<?xml version="1.0" encoding="utf-8" standalone="no"?>
<!DOCTYPE svg PUBLIC "-//W3C//DTD SVG 1.1//EN"
  "http://www.w3.org/Graphics/SVG/1.1/DTD/svg11.dtd">
<svg xmlns:xlink="http://www.w3.org/1999/xlink" width="58.32pt" height="58.32pt" viewBox="0 0 58.32 58.32" xmlns="http://www.w3.org/2000/svg" version="1.1">
 <title>Ski Rose for Arctic Valley Ski Area</title>
 <metadata>
  <rdf:RDF xmlns:dc="http://purl.org/dc/elements/1.1/" xmlns:cc="http://creativecommons.org/ns#" xmlns:rdf="http://www.w3.org/1999/02/22-rdf-syntax-ns#">
   <cc:Work>
    <dc:type rdf:resource="http://purl.org/dc/dcmitype/StillImage"/>
    <dc:title>Ski Rose for Arctic Valley Ski Area</dc:title>
    <dc:date>2025-03-22T10:45:32.111559</dc:date>
    <dc:description>An 8-bin histogram of downhill ski run orientations.</dc:description>
    <dc:format>image/svg+xml</dc:format>
    <dc:source>https://openskimap.org/?obj=6680be9909c240ccfcf603a6cbcf24da546c2bdc</dc:source>
    <dc:creator>
     <cc:Agent>
      <dc:title>https://github.com/dhimmel/openskistats</dc:title>
     </cc:Agent>
    </dc:creator>
    <dc:rights>
     <cc:Agent>
      <dc:title>https://creativecommons.org/licenses/by/4.0/</dc:title>
     </cc:Agent>
    </dc:rights>
   </cc:Work>
  </rdf:RDF>
 </metadata>
 <defs>
  <style type="text/css">*{stroke-linejoin: round; stroke-linecap: butt}</style>
 </defs>
 <g id="figure_1">
  <g id="patch_1">
   <path d="M 0 58.32 
L 58.32 58.32 
L 58.32 0 
L 0 0 
L 0 58.32 
z
" style="fill: none"/>
  </g>
  <g id="axes_1">
   <g id="patch_2">
    <path d="M 56.88 29.16 
C 56.88 25.519843 56.162968 21.915082 54.769941 18.552015 
C 53.376913 15.188949 51.33498 12.13298 48.761 9.559 
C 46.18702 6.98502 43.131051 4.943087 39.767985 3.550059 
C 36.404918 2.157032 32.800157 1.44 29.16 1.44 
C 25.519843 1.44 21.915082 2.157032 18.552015 3.550059 
C 15.188949 4.943087 12.13298 6.98502 9.559 9.559 
C 6.98502 12.13298 4.943087 15.188949 3.550059 18.552015 
C 2.157032 21.915082 1.44 25.519843 1.44 29.16 
C 1.44 32.800157 2.157032 36.404918 3.550059 39.767985 
C 4.943087 43.131051 6.98502 46.18702 9.559 48.761 
C 12.13298 51.33498 15.188949 53.376913 18.552015 54.769941 
C 21.915082 56.162968 25.519843 56.88 29.16 56.88 
C 32.800157 56.88 36.404918 56.162968 39.767985 54.769941 
C 43.131051 53.376913 46.18702 51.33498 48.761 48.761 
C 51.33498 46.18702 53.376913 43.131051 54.769941 39.767985 
C 56.162968 36.404918 56.88 32.800157 56.88 29.16 
M 29.16 29.16 
C 29.16 29.16 29.16 29.16 29.16 29.16 
C 29.16 29.16 29.16 29.16 29.16 29.16 
C 29.16 29.16 29.16 29.16 29.16 29.16 
C 29.16 29.16 29.16 29.16 29.16 29.16 
C 29.16 29.16 29.16 29.16 29.16 29.16 
C 29.16 29.16 29.16 29.16 29.16 29.16 
C 29.16 29.16 29.16 29.16 29.16 29.16 
C 29.16 29.16 29.16 29.16 29.16 29.16 
C 29.16 29.16 29.16 29.16 29.16 29.16 
C 29.16 29.16 29.16 29.16 29.16 29.16 
C 29.16 29.16 29.16 29.16 29.16 29.16 
C 29.16 29.16 29.16 29.16 29.16 29.16 
C 29.16 29.16 29.16 29.16 29.16 29.16 
C 29.16 29.16 29.16 29.16 29.16 29.16 
C 29.16 29.16 29.16 29.16 29.16 29.16 
C 29.16 29.16 29.16 29.16 29.16 29.16 
L 29.16 29.16 
z
" style="fill: none"/>
   </g>
   <g id="matplotlib.axis_1"/>
   <g id="matplotlib.axis_2"/>
   <g id="patch_3">
    <path d="M 29.16 29.16 
C 29.16 29.16 29.16 29.16 29.16 29.16 
C 29.16 29.16 29.16 29.16 29.16 29.16 
L 33.773447 18.022154 
C 32.310838 17.416321 30.743116 17.104482 29.16 17.104482 
C 27.576884 17.104482 26.009162 17.416321 24.546553 18.022154 
z
" clip-path="url(#p6a014f4306)" style="fill: #d4a0a7; stroke: #6b6b6b; stroke-width: 0.4; stroke-linejoin: miter"/>
   </g>
   <g id="patch_4">
    <path d="M 29.16 29.16 
C 29.16 29.16 29.16 29.16 29.16 29.16 
C 29.16 29.16 29.16 29.16 29.16 29.16 
L 30.411127 28.641766 
C 30.343074 28.477469 30.243319 28.328176 30.117572 28.202428 
C 29.991824 28.076681 29.842531 27.976926 29.678234 27.908873 
z
" clip-path="url(#p6a014f4306)" style="fill: #d4a0a7; stroke: #6b6b6b; stroke-width: 0.4; stroke-linejoin: miter"/>
   </g>
   <g id="patch_5">
    <path d="M 29.16 29.16 
C 29.16 29.16 29.16 29.16 29.16 29.16 
C 29.16 29.16 29.16 29.16 29.16 29.16 
L 30.815086 29.845559 
C 30.905113 29.628215 30.951452 29.395251 30.951452 29.16 
C 30.951452 28.924749 30.905113 28.691785 30.815086 28.474441 
z
" clip-path="url(#p6a014f4306)" style="fill: #d4a0a7; stroke: #6b6b6b; stroke-width: 0.4; stroke-linejoin: miter"/>
   </g>
   <g id="patch_6">
    <path d="M 29.16 29.16 
C 29.16 29.16 29.16 29.16 29.16 29.16 
C 29.16 29.16 29.16 29.16 29.16 29.16 
L 29.16 29.16 
C 29.16 29.16 29.16 29.16 29.16 29.16 
C 29.16 29.16 29.16 29.16 29.16 29.16 
z
" clip-path="url(#p6a014f4306)" style="fill: #d4a0a7; stroke: #6b6b6b; stroke-width: 0.4; stroke-linejoin: miter"/>
   </g>
   <g id="patch_7">
    <path d="M 29.16 29.16 
C 29.16 29.16 29.16 29.16 29.16 29.16 
C 29.16 29.16 29.16 29.16 29.16 29.16 
L 27.119711 34.085694 
C 27.766547 34.353622 28.45987 34.491533 29.16 34.491533 
C 29.86013 34.491533 30.553453 34.353622 31.200289 34.085694 
z
" clip-path="url(#p6a014f4306)" style="fill: #d4a0a7; stroke: #6b6b6b; stroke-width: 0.4; stroke-linejoin: miter"/>
   </g>
   <g id="patch_8">
    <path d="M 29.16 29.16 
C 29.16 29.16 29.16 29.16 29.16 29.16 
C 29.16 29.16 29.16 29.16 29.16 29.16 
L 20.605544 32.703371 
C 21.070856 33.826732 21.75292 34.847514 22.612703 35.707297 
C 23.472486 36.56708 24.493268 37.249144 25.616629 37.714456 
z
" clip-path="url(#p6a014f4306)" style="fill: #d4a0a7; stroke: #6b6b6b; stroke-width: 0.4; stroke-linejoin: miter"/>
   </g>
   <g id="patch_9">
    <path d="M 29.16 29.16 
C 29.16 29.16 29.16 29.16 29.16 29.16 
C 29.16 29.16 29.16 29.16 29.16 29.16 
L 3.550059 18.552015 
C 2.157032 21.915082 1.44 25.519843 1.44 29.16 
C 1.44 32.800157 2.157032 36.404918 3.550059 39.767985 
z
" clip-path="url(#p6a014f4306)" style="fill: #d4a0a7; stroke: #6b6b6b; stroke-width: 0.4; stroke-linejoin: miter"/>
   </g>
   <g id="patch_10">
    <path d="M 29.16 29.16 
C 29.16 29.16 29.16 29.16 29.16 29.16 
C 29.16 29.16 29.16 29.16 29.16 29.16 
L 22.245896 12.467877 
C 20.053907 13.375829 18.062079 14.706726 16.384402 16.384402 
C 14.706726 18.062079 13.375829 20.053907 12.467877 22.245896 
z
" clip-path="url(#p6a014f4306)" style="fill: #d4a0a7; stroke: #6b6b6b; stroke-width: 0.4; stroke-linejoin: miter"/>
   </g>
   <g id="patch_11">
    <path d="M 29.16 1.44 
C 25.519843 1.44 21.915082 2.157032 18.552015 3.550059 
C 15.188949 4.943087 12.13298 6.98502 9.559 9.559 
C 6.98502 12.13298 4.943087 15.188949 3.550059 18.552015 
C 2.157032 21.915082 1.44 25.519843 1.44 29.16 
C 1.44 32.800157 2.157032 36.404918 3.550059 39.767985 
C 4.943087 43.131051 6.98502 46.18702 9.559 48.761 
C 12.13298 51.33498 15.188949 53.376913 18.552015 54.769941 
C 21.915082 56.162968 25.519843 56.88 29.16 56.88 
C 32.800157 56.88 36.404918 56.162968 39.767985 54.769941 
C 43.131051 53.376913 46.18702 51.33498 48.761 48.761 
C 51.33498 46.18702 53.376913 43.131051 54.769941 39.767985 
C 56.162968 36.404918 56.88 32.800157 56.88 29.16 
C 56.88 25.519843 56.162968 21.915082 54.769941 18.552015 
C 53.376913 15.188949 51.33498 12.13298 48.761 9.559 
C 46.18702 6.98502 43.131051 4.943087 39.767985 3.550059 
C 36.404918 2.157032 32.800157 1.44 29.16 1.44 
" style="fill: none; stroke: #6b6b6b; stroke-width: 0.4; stroke-linejoin: miter; stroke-linecap: square"/>
   </g>
  </g>
 </g>
 <defs>
  <clipPath id="p6a014f4306">
   <path d="M 56.88 29.16 
C 56.88 25.519843 56.162968 21.915082 54.769941 18.552015 
C 53.376913 15.188949 51.33498 12.13298 48.761 9.559 
C 46.18702 6.98502 43.131051 4.943087 39.767985 3.550059 
C 36.404918 2.157032 32.800157 1.44 29.16 1.44 
C 25.519843 1.44 21.915082 2.157032 18.552015 3.550059 
C 15.188949 4.943087 12.13298 6.98502 9.559 9.559 
C 6.98502 12.13298 4.943087 15.188949 3.550059 18.552015 
C 2.157032 21.915082 1.44 25.519843 1.44 29.16 
C 1.44 32.800157 2.157032 36.404918 3.550059 39.767985 
C 4.943087 43.131051 6.98502 46.18702 9.559 48.761 
C 12.13298 51.33498 15.188949 53.376913 18.552015 54.769941 
C 21.915082 56.162968 25.519843 56.88 29.16 56.88 
C 32.800157 56.88 36.404918 56.162968 39.767985 54.769941 
C 43.131051 53.376913 46.18702 51.33498 48.761 48.761 
C 51.33498 46.18702 53.376913 43.131051 54.769941 39.767985 
C 56.162968 36.404918 56.88 32.800157 56.88 29.16 
M 29.16 29.16 
C 29.16 29.16 29.16 29.16 29.16 29.16 
C 29.16 29.16 29.16 29.16 29.16 29.16 
C 29.16 29.16 29.16 29.16 29.16 29.16 
C 29.16 29.16 29.16 29.16 29.16 29.16 
C 29.16 29.16 29.16 29.16 29.16 29.16 
C 29.16 29.16 29.16 29.16 29.16 29.16 
C 29.16 29.16 29.16 29.16 29.16 29.16 
C 29.16 29.16 29.16 29.16 29.16 29.16 
C 29.16 29.16 29.16 29.16 29.16 29.16 
C 29.16 29.16 29.16 29.16 29.16 29.16 
C 29.16 29.16 29.16 29.16 29.16 29.16 
C 29.16 29.16 29.16 29.16 29.16 29.16 
C 29.16 29.16 29.16 29.16 29.16 29.16 
C 29.16 29.16 29.16 29.16 29.16 29.16 
C 29.16 29.16 29.16 29.16 29.16 29.16 
C 29.16 29.16 29.16 29.16 29.16 29.16 
z
"/>
  </clipPath>
 </defs>
</svg>
