<?xml version="1.0" encoding="utf-8" standalone="no"?>
<!DOCTYPE svg PUBLIC "-//W3C//DTD SVG 1.1//EN"
  "http://www.w3.org/Graphics/SVG/1.1/DTD/svg11.dtd">
<svg xmlns:xlink="http://www.w3.org/1999/xlink" width="58.32pt" height="58.32pt" viewBox="0 0 58.32 58.32" xmlns="http://www.w3.org/2000/svg" version="1.1">
 <title>Ski Rose for Adanac Ski Hill</title>
 <metadata>
  <rdf:RDF xmlns:dc="http://purl.org/dc/elements/1.1/" xmlns:cc="http://creativecommons.org/ns#" xmlns:rdf="http://www.w3.org/1999/02/22-rdf-syntax-ns#">
   <cc:Work>
    <dc:type rdf:resource="http://purl.org/dc/dcmitype/StillImage"/>
    <dc:title>Ski Rose for Adanac Ski Hill</dc:title>
    <dc:date>2025-03-22T10:45:26.014441</dc:date>
    <dc:description>An 8-bin histogram of downhill ski run orientations.</dc:description>
    <dc:format>image/svg+xml</dc:format>
    <dc:source>https://openskimap.org/?obj=ae15130d0a0ca8a4617ca286203d0fe2c4ba7e0a</dc:source>
    <dc:creator>
     <cc:Agent>
      <dc:title>https://github.com/dhimmel/openskistats</dc:title>
     </cc:Agent>
    </dc:creator>
    <dc:rights>
     <cc:Agent>
      <dc:title>https://creativecommons.org/licenses/by/4.0/</dc:title>
     </cc:Agent>
    </dc:rights>
   </cc:Work>
  </rdf:RDF>
 </metadata>
 <defs>
  <style type="text/css">*{stroke-linejoin: round; stroke-linecap: butt}</style>
 </defs>
 <g id="figure_1">
  <g id="patch_1">
   <path d="M 0 58.32 
L 58.32 58.32 
L 58.32 0 
L 0 0 
L 0 58.32 
z
" style="fill: none"/>
  </g>
  <g id="axes_1">
   <g id="patch_2">
    <path d="M 56.88 29.16 
C 56.88 25.519843 56.162968 21.915082 54.769941 18.552015 
C 53.376913 15.188949 51.33498 12.13298 48.761 9.559 
C 46.18702 6.98502 43.131051 4.943087 39.767985 3.550059 
C 36.404918 2.157032 32.800157 1.44 29.16 1.44 
C 25.519843 1.44 21.915082 2.157032 18.552015 3.550059 
C 15.188949 4.943087 12.13298 6.98502 9.559 9.559 
C 6.98502 12.13298 4.943087 15.188949 3.550059 18.552015 
C 2.157032 21.915082 1.44 25.519843 1.44 29.16 
C 1.44 32.800157 2.157032 36.404918 3.550059 39.767985 
C 4.943087 43.131051 6.98502 46.18702 9.559 48.761 
C 12.13298 51.33498 15.188949 53.376913 18.552015 54.769941 
C 21.915082 56.162968 25.519843 56.88 29.16 56.88 
C 32.800157 56.88 36.404918 56.162968 39.767985 54.769941 
C 43.131051 53.376913 46.18702 51.33498 48.761 48.761 
C 51.33498 46.18702 53.376913 43.131051 54.769941 39.767985 
C 56.162968 36.404918 56.88 32.800157 56.88 29.16 
M 29.16 29.16 
C 29.16 29.16 29.16 29.16 29.16 29.16 
C 29.16 29.16 29.16 29.16 29.16 29.16 
C 29.16 29.16 29.16 29.16 29.16 29.16 
C 29.16 29.16 29.16 29.16 29.16 29.16 
C 29.16 29.16 29.16 29.16 29.16 29.16 
C 29.16 29.16 29.16 29.16 29.16 29.16 
C 29.16 29.16 29.16 29.16 29.16 29.16 
C 29.16 29.16 29.16 29.16 29.16 29.16 
C 29.16 29.16 29.16 29.16 29.16 29.16 
C 29.16 29.16 29.16 29.16 29.16 29.16 
C 29.16 29.16 29.16 29.16 29.16 29.16 
C 29.16 29.16 29.16 29.16 29.16 29.16 
C 29.16 29.16 29.16 29.16 29.16 29.16 
C 29.16 29.16 29.16 29.16 29.16 29.16 
C 29.16 29.16 29.16 29.16 29.16 29.16 
C 29.16 29.16 29.16 29.16 29.16 29.16 
L 29.16 29.16 
z
" style="fill: none"/>
   </g>
   <g id="matplotlib.axis_1"/>
   <g id="matplotlib.axis_2"/>
   <g id="patch_3">
    <path d="M 29.16 29.16 
C 29.16 29.16 29.16 29.16 29.16 29.16 
C 29.16 29.16 29.16 29.16 29.16 29.16 
L 39.767985 3.550059 
C 36.404918 2.157032 32.800157 1.44 29.16 1.44 
C 25.519843 1.44 21.915082 2.157032 18.552015 3.550059 
z
" clip-path="url(#pd27bc835fd)" style="fill: #d4a0a7; stroke: #6b6b6b; stroke-width: 0.4; stroke-linejoin: miter"/>
   </g>
   <g id="patch_4">
    <path d="M 29.16 29.16 
C 29.16 29.16 29.16 29.16 29.16 29.16 
C 29.16 29.16 29.16 29.16 29.16 29.16 
L 51.781273 19.789962 
C 50.550811 16.819364 48.74717 14.120025 46.473573 11.846427 
C 44.199975 9.57283 41.500636 7.769189 38.530038 6.538727 
z
" clip-path="url(#pd27bc835fd)" style="fill: #d4a0a7; stroke: #6b6b6b; stroke-width: 0.4; stroke-linejoin: miter"/>
   </g>
   <g id="patch_5">
    <path d="M 29.16 29.16 
C 29.16 29.16 29.16 29.16 29.16 29.16 
C 29.16 29.16 29.16 29.16 29.16 29.16 
L 45.04261 35.738793 
C 45.906529 33.653107 46.351213 31.417529 46.351213 29.16 
C 46.351213 26.902471 45.906529 24.666893 45.04261 22.581207 
z
" clip-path="url(#pd27bc835fd)" style="fill: #d4a0a7; stroke: #6b6b6b; stroke-width: 0.4; stroke-linejoin: miter"/>
   </g>
   <g id="patch_6">
    <path d="M 29.16 29.16 
C 29.16 29.16 29.16 29.16 29.16 29.16 
C 29.16 29.16 29.16 29.16 29.16 29.16 
L 30.272019 31.844651 
C 30.624564 31.698622 30.944917 31.484569 31.214743 31.214743 
C 31.484569 30.944917 31.698622 30.624564 31.844651 30.272019 
z
" clip-path="url(#pd27bc835fd)" style="fill: #d4a0a7; stroke: #6b6b6b; stroke-width: 0.4; stroke-linejoin: miter"/>
   </g>
   <g id="patch_7">
    <path d="M 29.16 29.16 
C 29.16 29.16 29.16 29.16 29.16 29.16 
C 29.16 29.16 29.16 29.16 29.16 29.16 
L 28.047981 31.844651 
C 28.400526 31.99068 28.778408 32.065846 29.16 32.065846 
C 29.541592 32.065846 29.919474 31.99068 30.272019 31.844651 
z
" clip-path="url(#pd27bc835fd)" style="fill: #d4a0a7; stroke: #6b6b6b; stroke-width: 0.4; stroke-linejoin: miter"/>
   </g>
   <g id="patch_8">
    <path d="M 29.16 29.16 
C 29.16 29.16 29.16 29.16 29.16 29.16 
C 29.16 29.16 29.16 29.16 29.16 29.16 
L 29.16 29.16 
C 29.16 29.16 29.16 29.16 29.16 29.16 
C 29.16 29.16 29.16 29.16 29.16 29.16 
z
" clip-path="url(#pd27bc835fd)" style="fill: #d4a0a7; stroke: #6b6b6b; stroke-width: 0.4; stroke-linejoin: miter"/>
   </g>
   <g id="patch_9">
    <path d="M 29.16 29.16 
C 29.16 29.16 29.16 29.16 29.16 29.16 
C 29.16 29.16 29.16 29.16 29.16 29.16 
L 23.156937 26.67345 
C 22.830406 27.461765 22.662332 28.306734 22.662332 29.16 
C 22.662332 30.013266 22.830406 30.858235 23.156937 31.64655 
z
" clip-path="url(#pd27bc835fd)" style="fill: #d4a0a7; stroke: #6b6b6b; stroke-width: 0.4; stroke-linejoin: miter"/>
   </g>
   <g id="patch_10">
    <path d="M 29.16 29.16 
C 29.16 29.16 29.16 29.16 29.16 29.16 
C 29.16 29.16 29.16 29.16 29.16 29.16 
L 22.675871 13.505928 
C 20.620197 14.357416 18.752237 15.605547 17.178892 17.178892 
C 15.605547 18.752237 14.357416 20.620197 13.505928 22.675871 
z
" clip-path="url(#pd27bc835fd)" style="fill: #d4a0a7; stroke: #6b6b6b; stroke-width: 0.4; stroke-linejoin: miter"/>
   </g>
   <g id="patch_11">
    <path d="M 29.16 1.44 
C 25.519843 1.44 21.915082 2.157032 18.552015 3.550059 
C 15.188949 4.943087 12.13298 6.98502 9.559 9.559 
C 6.98502 12.13298 4.943087 15.188949 3.550059 18.552015 
C 2.157032 21.915082 1.44 25.519843 1.44 29.16 
C 1.44 32.800157 2.157032 36.404918 3.550059 39.767985 
C 4.943087 43.131051 6.98502 46.18702 9.559 48.761 
C 12.13298 51.33498 15.188949 53.376913 18.552015 54.769941 
C 21.915082 56.162968 25.519843 56.88 29.16 56.88 
C 32.800157 56.88 36.404918 56.162968 39.767985 54.769941 
C 43.131051 53.376913 46.18702 51.33498 48.761 48.761 
C 51.33498 46.18702 53.376913 43.131051 54.769941 39.767985 
C 56.162968 36.404918 56.88 32.800157 56.88 29.16 
C 56.88 25.519843 56.162968 21.915082 54.769941 18.552015 
C 53.376913 15.188949 51.33498 12.13298 48.761 9.559 
C 46.18702 6.98502 43.131051 4.943087 39.767985 3.550059 
C 36.404918 2.157032 32.800157 1.44 29.16 1.44 
" style="fill: none; stroke: #6b6b6b; stroke-width: 0.4; stroke-linejoin: miter; stroke-linecap: square"/>
   </g>
  </g>
 </g>
 <defs>
  <clipPath id="pd27bc835fd">
   <path d="M 56.88 29.16 
C 56.88 25.519843 56.162968 21.915082 54.769941 18.552015 
C 53.376913 15.188949 51.33498 12.13298 48.761 9.559 
C 46.18702 6.98502 43.131051 4.943087 39.767985 3.550059 
C 36.404918 2.157032 32.800157 1.44 29.16 1.44 
C 25.519843 1.44 21.915082 2.157032 18.552015 3.550059 
C 15.188949 4.943087 12.13298 6.98502 9.559 9.559 
C 6.98502 12.13298 4.943087 15.188949 3.550059 18.552015 
C 2.157032 21.915082 1.44 25.519843 1.44 29.16 
C 1.44 32.800157 2.157032 36.404918 3.550059 39.767985 
C 4.943087 43.131051 6.98502 46.18702 9.559 48.761 
C 12.13298 51.33498 15.188949 53.376913 18.552015 54.769941 
C 21.915082 56.162968 25.519843 56.88 29.16 56.88 
C 32.800157 56.88 36.404918 56.162968 39.767985 54.769941 
C 43.131051 53.376913 46.18702 51.33498 48.761 48.761 
C 51.33498 46.18702 53.376913 43.131051 54.769941 39.767985 
C 56.162968 36.404918 56.88 32.800157 56.88 29.16 
M 29.16 29.16 
C 29.16 29.16 29.16 29.16 29.16 29.16 
C 29.16 29.16 29.16 29.16 29.16 29.16 
C 29.16 29.16 29.16 29.16 29.16 29.16 
C 29.16 29.16 29.16 29.16 29.16 29.16 
C 29.16 29.16 29.16 29.16 29.16 29.16 
C 29.16 29.16 29.16 29.16 29.16 29.16 
C 29.16 29.16 29.16 29.16 29.16 29.16 
C 29.16 29.16 29.16 29.16 29.16 29.16 
C 29.16 29.16 29.16 29.16 29.16 29.16 
C 29.16 29.16 29.16 29.16 29.16 29.16 
C 29.16 29.16 29.16 29.16 29.16 29.16 
C 29.16 29.16 29.16 29.16 29.16 29.16 
C 29.16 29.16 29.16 29.16 29.16 29.16 
C 29.16 29.16 29.16 29.16 29.16 29.16 
C 29.16 29.16 29.16 29.16 29.16 29.16 
C 29.16 29.16 29.16 29.16 29.16 29.16 
z
"/>
  </clipPath>
 </defs>
</svg>
