<?xml version="1.0" encoding="utf-8" standalone="no"?>
<!DOCTYPE svg PUBLIC "-//W3C//DTD SVG 1.1//EN"
  "http://www.w3.org/Graphics/SVG/1.1/DTD/svg11.dtd">
<svg xmlns:xlink="http://www.w3.org/1999/xlink" width="248.410469pt" height="249.158125pt" viewBox="0 0 248.410469 249.158125" xmlns="http://www.w3.org/2000/svg" version="1.1">
 <title>Ski Rose for Plattekill Mountain Ski Area</title>
 <metadata>
  <rdf:RDF xmlns:dc="http://purl.org/dc/elements/1.1/" xmlns:cc="http://creativecommons.org/ns#" xmlns:rdf="http://www.w3.org/1999/02/22-rdf-syntax-ns#">
   <cc:Work>
    <dc:type rdf:resource="http://purl.org/dc/dcmitype/StillImage"/>
    <dc:title>Ski Rose for Plattekill Mountain Ski Area</dc:title>
    <dc:date>2025-11-29T10:38:05.702842</dc:date>
    <dc:description>A 32-bin stacked histogram of downhill ski run orientations colored by difficulty.</dc:description>
    <dc:format>image/svg+xml</dc:format>
    <dc:source>https://openskimap.org/?obj=0facfd030f70daa8a6ceea03b9999f116f60d84e</dc:source>
    <dc:creator>
     <cc:Agent>
      <dc:title>https://github.com/dhimmel/openskistats</dc:title>
     </cc:Agent>
    </dc:creator>
    <dc:rights>
     <cc:Agent>
      <dc:title>https://creativecommons.org/licenses/by/4.0/</dc:title>
     </cc:Agent>
    </dc:rights>
   </cc:Work>
  </rdf:RDF>
 </metadata>
 <defs>
  <style type="text/css">*{stroke-linejoin: round; stroke-linecap: butt}</style>
 </defs>
 <g id="figure_1">
  <g id="patch_1">
   <path d="M 0 249.158125 
L 248.410469 249.158125 
L 248.410469 0 
L 0 0 
z
" style="fill: #ffffff"/>
  </g>
  <g id="axes_1">
   <g id="patch_2">
    <path d="M 236.134844 124.579063 
C 236.134844 110.018434 233.266717 95.59939 227.694606 82.147124 
C 222.122495 68.694857 213.954763 56.470982 203.658844 46.175063 
C 193.362925 35.879144 181.139049 27.711411 167.686783 22.1393 
C 154.234516 16.567189 139.815472 13.699063 125.254844 13.699063 
C 110.694216 13.699063 96.275171 16.567189 82.822905 22.1393 
C 69.370638 27.711411 57.146763 35.879144 46.850844 46.175063 
C 36.554925 56.470982 28.387192 68.694857 22.815081 82.147124 
C 17.24297 95.59939 14.374844 110.018434 14.374844 124.579062 
C 14.374844 139.139691 17.24297 153.558735 22.815081 167.011001 
C 28.387192 180.463268 36.554925 192.687143 46.850844 202.983062 
C 57.146763 213.278981 69.370638 221.446714 82.822905 227.018825 
C 96.275171 232.590936 110.694216 235.459063 125.254844 235.459063 
C 139.815472 235.459063 154.234516 232.590936 167.686783 227.018825 
C 181.139049 221.446714 193.362925 213.278981 203.658844 202.983062 
C 213.954763 192.687143 222.122495 180.463268 227.694606 167.011001 
C 233.266717 153.558735 236.134844 139.139691 236.134844 124.579063 
M 125.254844 124.579063 
C 125.254844 124.579063 125.254844 124.579063 125.254844 124.579063 
C 125.254844 124.579063 125.254844 124.579063 125.254844 124.579063 
C 125.254844 124.579063 125.254844 124.579063 125.254844 124.579063 
C 125.254844 124.579063 125.254844 124.579063 125.254844 124.579063 
C 125.254844 124.579063 125.254844 124.579063 125.254844 124.579063 
C 125.254844 124.579063 125.254844 124.579063 125.254844 124.579063 
C 125.254844 124.579063 125.254844 124.579063 125.254844 124.579063 
C 125.254844 124.579063 125.254844 124.579063 125.254844 124.579063 
C 125.254844 124.579063 125.254844 124.579063 125.254844 124.579063 
C 125.254844 124.579063 125.254844 124.579063 125.254844 124.579063 
C 125.254844 124.579063 125.254844 124.579063 125.254844 124.579063 
C 125.254844 124.579063 125.254844 124.579063 125.254844 124.579063 
C 125.254844 124.579063 125.254844 124.579063 125.254844 124.579063 
C 125.254844 124.579063 125.254844 124.579063 125.254844 124.579063 
C 125.254844 124.579063 125.254844 124.579063 125.254844 124.579063 
C 125.254844 124.579063 125.254844 124.579063 125.254844 124.579063 
z
" style="fill: #ffffff"/>
   </g>
   <g id="FillBetweenPolyCollection_1">
    <defs>
     <path id="m77674e624f" d="M 235.2448 -137.110835 
L 235.051899 -137.088857 
L 234.05374 -135.055205 
L 232.960035 -133.055645 
L 232.011616 -131.108586 
L 230.79097 -129.186869 
L 229.521511 -127.309381 
L 228.209807 -125.477537 
L 226.860406 -123.692364 
L 225.476752 -121.954659 
L 224.061666 -120.265063 
L 222.6176 -118.624101 
L 221.146781 -117.032203 
L 219.651295 -115.489718 
L 218.357191 -113.97139 
L 216.817401 -112.524623 
L 215.258595 -111.127912 
L 213.682643 -109.781324 
L 212.31102 -108.444154 
L 210.704781 -107.194076 
L 209.303314 -105.945965 
L 207.673474 -104.7921 
L 206.248248 -103.632744 
L 204.81245 -102.515786 
L 203.367453 -101.441054 
L 201.707852 -100.473521 
L 200.250871 -99.485743 
L 198.78891 -98.539284 
L 197.323317 -97.633764 
L 195.855436 -96.76875 
L 194.386597 -95.943753 
L 193.10915 -95.07517 
L 191.639287 -94.325929 
L 190.17227 -93.615039 
L 188.891205 -92.851143 
L 187.430297 -92.21257 
L 186.151164 -91.515058 
L 184.872899 -90.84879 
L 183.427727 -90.312615 
L 182.157302 -89.709191 
L 180.890479 -89.135254 
L 179.628103 -88.590187 
L 178.371 -88.07334 
L 177.119974 -87.584025 
L 175.875804 -87.121522 
L 174.639248 -86.685077 
L 173.411036 -86.273898 
L 172.326914 -85.775842 
L 171.113382 -85.412171 
L 169.910157 -85.071379 
L 168.841023 -84.639688 
L 167.65599 -84.341877 
L 166.59819 -83.95107 
L 165.433378 -83.693089 
L 164.388691 -83.340592 
L 163.34928 -83.006281 
L 162.215881 -82.80221 
L 161.191834 -82.502253 
L 160.174052 -82.218676 
L 159.162811 -81.950905 
L 158.158366 -81.698358 
L 157.160944 -81.460443 
L 156.094376 -81.343634 
L 155.115303 -81.131825 
L 154.143756 -80.932677 
L 153.245165 -80.64306 
L 152.285382 -80.469233 
L 151.333444 -80.306384 
L 150.389392 -80.153899 
L 149.453238 -80.011164 
L 148.524968 -79.87757 
L 147.604537 -79.752512 
L 146.733622 -79.547867 
L 145.825448 -79.440992 
L 144.924899 -79.341032 
L 144.064825 -79.167751 
L 143.176133 -79.08322 
L 142.294636 -79.004067 
L 141.445147 -78.859057 
L 140.574729 -78.792753 
L 139.710869 -78.730407 
L 138.871261 -78.610808 
L 138.017346 -78.558966 
L 137.183144 -78.455749 
L 136.338317 -78.413072 
L 135.509055 -78.325306 
L 134.67234 -78.29059 
L 133.847462 -78.217444 
L 133.017772 -78.189632 
L 132.196645 -78.130389 
L 131.372799 -78.108582 
L 130.55472 -78.062646 
L 129.735457 -78.046116 
L 128.919671 -78.013018 
L 128.103667 -78.001218 
L 127.289375 -77.980625 
L 126.475261 -77.97319 
L 125.661639 -77.964905 
L 124.848053 -77.96544 
L 124.034383 -77.971556 
L 123.220569 -77.986503 
L 122.405755 -77.996871 
L 121.590897 -78.024203 
L 120.77551 -78.059401 
L 119.956839 -78.079068 
L 119.139322 -78.127065 
L 118.316265 -78.15195 
L 117.495859 -78.2132 
L 116.66715 -78.244016 
L 115.843149 -78.319104 
L 115.0076 -78.356731 
L 114.179362 -78.446361 
L 113.335879 -78.491844 
L 112.486982 -78.539641 
L 111.65044 -78.651365 
L 110.792055 -78.708956 
L 109.949945 -78.837542 
L 109.081279 -78.906324 
L 108.233285 -79.052836 
L 107.353683 -79.134319 
L 106.466958 -79.221094 
L 105.608552 -79.395684 
L 104.710095 -79.497727 
L 103.804076 -79.606592 
L 102.890367 -79.722861 
L 102.01681 -79.939216 
L 101.090854 -80.074531 
L 100.157064 -80.218888 
L 99.215421 -80.372895 
L 98.265935 -80.537166 
L 97.308643 -80.712315 
L 96.343612 -80.898956 
L 95.370934 -81.097704 
L 94.39073 -81.309171 
L 93.403148 -81.533967 
L 92.408362 -81.772695 
L 91.406572 -82.025953 
L 90.398004 -82.294334 
L 89.382908 -82.578422 
L 88.361559 -82.87879 
L 87.231319 -83.083667 
L 86.19462 -83.418175 
L 85.152648 -83.770771 
L 83.991004 -84.0292 
L 82.935916 -84.4199 
L 81.754041 -84.717921 
L 80.687608 -85.149303 
L 79.487521 -85.490076 
L 78.27711 -85.853607 
L 77.195657 -86.351059 
L 75.970533 -86.761881 
L 74.737045 -87.197858 
L 73.49592 -87.659781 
L 72.247914 -88.148409 
L 70.993805 -88.664464 
L 69.734396 -89.208637 
L 68.470511 -89.781579 
L 67.202994 -90.38391 
L 65.761108 -90.919126 
L 64.485685 -91.584102 
L 63.209362 -92.280229 
L 61.751629 -92.917528 
L 60.473303 -93.679853 
L 59.009385 -94.389267 
L 57.542579 -95.136932 
L 56.26776 -96.003677 
L 54.8019 -96.82691 
L 53.336956 -97.690066 
L 51.874261 -98.593635 
L 50.415156 -99.538053 
L 48.960992 -100.523703 
L 47.513124 -101.550916 
L 46.072917 -102.619971 
L 44.429182 -103.676125 
L 43.006608 -104.833008 
L 41.595947 -106.032332 
L 39.980864 -107.229875 
L 38.596778 -108.517939 
L 37.008396 -109.811672 
L 35.435267 -111.155437 
L 34.102017 -112.578565 
L 32.565843 -114.018485 
L 31.050355 -115.508202 
L 29.557477 -117.047516 
L 28.314454 -118.649934 
L 26.872981 -120.283618 
L 25.460127 -121.965846 
L 24.078256 -123.696108 
L 22.73004 -125.473783 
L 21.418675 -127.298108 
L 20.148258 -129.168115 
L 18.924529 -131.082503 
L 17.756288 -133.039382 
L 16.657936 -135.035755 
L 15.651342 -137.066804 
L 15.264665 -137.11086 
L 15.264665 -137.11086 
L 15.014471 -135.194003 
L 14.796703 -133.272307 
L 14.611413 -131.346305 
L 14.484531 -129.415399 
L 14.53105 -127.478467 
L 14.442767 -125.546105 
L 14.386509 -123.611529 
L 14.584579 -121.68106 
L 14.592205 -119.747427 
L 14.631178 -117.813029 
L 14.734035 -115.880886 
L 14.993187 -113.962073 
L 15.123631 -112.031196 
L 15.474279 -110.126177 
L 15.664268 -108.200641 
L 15.926197 -106.283721 
L 16.322163 -104.389584 
L 16.602573 -102.473508 
L 17.09757 -100.601172 
L 17.438471 -98.694641 
L 17.991244 -96.838809 
L 18.442697 -94.957433 
L 19.003999 -93.106128 
L 19.518762 -91.240604 
L 20.136889 -89.407087 
L 20.834584 -87.601909 
L 21.443614 -85.765634 
L 22.096579 -83.943941 
L 22.832541 -82.154355 
L 23.650988 -80.400449 
L 24.388709 -78.611716 
L 25.180249 -76.845929 
L 26.05933 -75.122004 
L 26.9482 -73.403863 
L 27.826103 -71.679572 
L 28.755909 -69.982592 
L 29.717883 -68.303492 
L 30.714807 -66.644853 
L 31.808905 -65.047434 
L 33.696462 -63.977892 
L 35.549048 -62.925977 
L 37.495812 -61.981154 
L 39.454287 -61.08999 
L 41.345873 -60.193444 
L 43.239814 -59.341363 
L 45.198334 -58.585568 
L 47.083458 -57.814392 
L 48.963769 -57.082422 
L 50.835359 -56.386169 
L 52.63905 -55.669247 
L 54.495245 -55.043798 
L 56.284069 -54.393892 
L 58.11855 -53.83217 
L 59.889198 -53.244978 
L 61.65067 -52.687622 
L 63.402357 -52.159105 
L 65.143703 -51.658417 
L 66.874204 -51.184539 
L 68.593407 -50.736441 
L 70.30091 -50.313084 
L 71.958354 -49.860139 
L 73.643349 -49.483872 
L 75.280104 -49.075467 
L 76.941515 -48.742327 
L 78.559227 -48.378741 
L 80.166099 -48.033564 
L 81.764541 -47.710213 
L 83.351933 -47.403502 
L 84.930697 -47.117097 
L 86.498359 -46.845581 
L 88.057341 -46.592876 
L 89.586037 -46.311009 
L 91.125814 -46.087668 
L 92.657055 -45.881038 
L 94.162696 -45.647046 
L 95.675446 -45.465371 
L 97.166686 -45.260552 
L 98.66374 -45.106632 
L 100.141186 -44.928716 
L 101.612604 -44.764198 
L 103.086114 -44.641207 
L 104.545093 -44.500397 
L 105.998731 -44.371579 
L 107.447282 -44.254344 
L 108.891021 -44.148305 
L 110.330239 -44.0531 
L 111.76876 -43.989403 
L 113.199225 -43.913034 
L 114.626206 -43.846542 
L 116.050056 -43.789675 
L 117.47114 -43.742208 
L 118.889834 -43.703947 
L 120.306523 -43.674728 
L 121.721597 -43.654418 
L 123.135456 -43.642912 
L 124.548499 -43.639944 
L 125.96119 -43.63982 
L 127.374238 -43.642652 
L 128.788107 -43.654019 
L 130.203198 -43.674192 
L 131.619906 -43.703273 
L 133.038626 -43.741398 
L 134.459739 -43.78873 
L 135.883624 -43.845464 
L 137.310643 -43.911823 
L 138.741152 -43.988062 
L 140.17549 -44.07446 
L 141.619057 -44.146383 
L 143.062864 -44.252274 
L 144.511488 -44.369365 
L 145.965204 -44.498041 
L 147.424265 -44.638713 
L 148.89774 -44.761981 
L 150.369235 -44.926391 
L 151.846761 -45.1042 
L 153.344078 -45.257511 
L 154.835422 -45.462212 
L 156.348077 -45.644291 
L 157.853812 -45.878192 
L 159.385403 -46.084151 
L 160.925037 -46.307968 
L 162.453835 -46.589756 
L 164.013236 -46.841753 
L 165.580702 -47.113809 
L 167.159935 -47.399486 
L 168.74709 -47.706778 
L 170.346052 -48.029382 
L 171.952645 -48.375177 
L 173.570927 -48.738004 
L 175.232494 -49.07107 
L 176.8689 -49.480145 
L 178.554028 -49.856362 
L 180.212147 -50.308529 
L 181.919811 -50.73184 
L 183.639175 -51.179898 
L 185.369837 -51.653744 
L 187.111344 -52.154406 
L 188.863191 -52.682904 
L 190.624823 -53.240248 
L 192.395631 -53.827435 
L 194.229513 -54.389929 
L 196.018467 -55.039843 
L 197.875613 -55.664525 
L 199.679456 -56.381471 
L 201.550329 -57.078519 
L 203.431659 -57.809754 
L 205.316005 -58.581735 
L 207.207612 -59.390887 
L 209.169639 -60.188975 
L 211.060337 -61.086338 
L 213.018859 -61.977599 
L 214.895312 -62.970875 
L 216.819124 -63.973988 
L 218.70654 -65.043766 
L 219.790721 -66.647402 
L 220.752831 -68.326449 
L 221.756581 -69.981007 
L 222.664978 -71.689675 
L 223.592785 -73.38757 
L 224.447979 -75.12319 
L 225.329717 -76.845797 
L 226.072766 -78.633688 
L 226.871502 -80.394882 
L 227.619816 -82.178103 
L 228.317433 -83.981629 
L 229.103877 -85.7515 
L 229.692756 -87.595658 
L 230.404715 -89.396408 
L 230.947043 -91.25444 
L 231.550916 -93.092731 
L 232.008678 -94.973604 
L 232.527523 -96.836461 
L 233.00138 -98.711408 
L 233.430669 -100.597059 
L 233.896499 -102.475668 
L 234.233799 -104.381007 
L 234.528286 -106.29296 
L 234.901339 -108.192284 
L 235.116556 -110.115494 
L 235.41765 -112.027596 
L 235.615812 -113.95251 
L 235.710441 -115.886018 
L 235.902718 -117.811549 
L 235.97745 -119.744809 
L 235.958626 -121.680182 
L 236.097466 -123.611754 
L 236.007492 -125.545586 
L 236.025333 -127.47969 
L 236.009215 -129.414703 
L 235.869684 -131.344556 
L 235.786687 -133.278107 
L 235.584546 -135.202604 
L 235.2448 -137.110835 
z
" style="stroke: #ffee9c"/>
    </defs>
    <g clip-path="url(#pb6a8d75c97)">
     <use xlink:href="#m77674e624f" x="0" y="249.158125" style="fill: #ffee9c; stroke: #ffee9c"/>
    </g>
   </g>
   <g id="matplotlib.axis_1">
    <g id="xtick_1">
     <g id="line2d_1">
      <path d="M 125.254844 124.579063 
L 125.254844 13.699063 
" clip-path="url(#pb6a8d75c97)" style="fill: none; stroke: #b0b0b0; stroke-width: 0.8; stroke-linecap: square"/>
     </g>
     <g id="text_1">
      <!-- N -->
      <g transform="translate(121.070469 7.958438) scale(0.1 -0.1)">
       <defs>
        <path id="DejaVuSans-Bold-4e" d="M 588 4666 
L 1931 4666 
L 3628 1466 
L 3628 4666 
L 4769 4666 
L 4769 0 
L 3425 0 
L 1728 3200 
L 1728 0 
L 588 0 
L 588 4666 
z
" transform="scale(0.015625)"/>
       </defs>
       <use xlink:href="#DejaVuSans-Bold-4e"/>
      </g>
     </g>
    </g>
    <g id="xtick_2">
     <g id="line2d_2">
      <path d="M 125.254844 124.579063 
L 203.658844 46.175063 
" clip-path="url(#pb6a8d75c97)" style="fill: none; stroke: #b0b0b0; stroke-width: 0.8; stroke-linecap: square"/>
     </g>
    </g>
    <g id="xtick_3">
     <g id="line2d_3">
      <path d="M 125.254844 124.579063 
L 236.134844 124.579063 
" clip-path="url(#pb6a8d75c97)" style="fill: none; stroke: #b0b0b0; stroke-width: 0.8; stroke-linecap: square"/>
     </g>
     <g id="text_2">
      <!-- E -->
      <g transform="translate(241.219219 127.338438) scale(0.1 -0.1)">
       <defs>
        <path id="DejaVuSans-Bold-45" d="M 588 4666 
L 3834 4666 
L 3834 3756 
L 1791 3756 
L 1791 2888 
L 3713 2888 
L 3713 1978 
L 1791 1978 
L 1791 909 
L 3903 909 
L 3903 0 
L 588 0 
L 588 4666 
z
" transform="scale(0.015625)"/>
       </defs>
       <use xlink:href="#DejaVuSans-Bold-45"/>
      </g>
     </g>
    </g>
    <g id="xtick_4">
     <g id="line2d_4">
      <path d="M 125.254844 124.579063 
L 203.658844 202.983062 
" clip-path="url(#pb6a8d75c97)" style="fill: none; stroke: #b0b0b0; stroke-width: 0.8; stroke-linecap: square"/>
     </g>
    </g>
    <g id="xtick_5">
     <g id="line2d_5">
      <path d="M 125.254844 124.579063 
L 125.254844 235.459063 
" clip-path="url(#pb6a8d75c97)" style="fill: none; stroke: #b0b0b0; stroke-width: 0.8; stroke-linecap: square"/>
     </g>
     <g id="text_3">
      <!-- S -->
      <g transform="translate(121.654063 246.718438) scale(0.1 -0.1)">
       <defs>
        <path id="DejaVuSans-Bold-53" d="M 3834 4519 
L 3834 3531 
Q 3450 3703 3084 3790 
Q 2719 3878 2394 3878 
Q 1963 3878 1756 3759 
Q 1550 3641 1550 3391 
Q 1550 3203 1689 3098 
Q 1828 2994 2194 2919 
L 2706 2816 
Q 3484 2659 3812 2340 
Q 4141 2022 4141 1434 
Q 4141 663 3683 286 
Q 3225 -91 2284 -91 
Q 1841 -91 1394 -6 
Q 947 78 500 244 
L 500 1259 
Q 947 1022 1364 901 
Q 1781 781 2169 781 
Q 2563 781 2772 912 
Q 2981 1044 2981 1288 
Q 2981 1506 2839 1625 
Q 2697 1744 2272 1838 
L 1806 1941 
Q 1106 2091 782 2419 
Q 459 2747 459 3303 
Q 459 4000 909 4375 
Q 1359 4750 2203 4750 
Q 2588 4750 2994 4692 
Q 3400 4634 3834 4519 
z
" transform="scale(0.015625)"/>
       </defs>
       <use xlink:href="#DejaVuSans-Bold-53"/>
      </g>
     </g>
    </g>
    <g id="xtick_6">
     <g id="line2d_6">
      <path d="M 125.254844 124.579063 
L 46.850844 202.983062 
" clip-path="url(#pb6a8d75c97)" style="fill: none; stroke: #b0b0b0; stroke-width: 0.8; stroke-linecap: square"/>
     </g>
    </g>
    <g id="xtick_7">
     <g id="line2d_7">
      <path d="M 125.254844 124.579063 
L 14.374844 124.579063 
" clip-path="url(#pb6a8d75c97)" style="fill: none; stroke: #b0b0b0; stroke-width: 0.8; stroke-linecap: square"/>
     </g>
     <g id="text_4">
      <!-- W -->
      <g transform="translate(0.36 127.338438) scale(0.1 -0.1)">
       <defs>
        <path id="DejaVuSans-Bold-57" d="M 191 4666 
L 1344 4666 
L 2150 1275 
L 2950 4666 
L 4109 4666 
L 4909 1275 
L 5716 4666 
L 6859 4666 
L 5759 0 
L 4372 0 
L 3525 3547 
L 2688 0 
L 1300 0 
L 191 4666 
z
" transform="scale(0.015625)"/>
       </defs>
       <use xlink:href="#DejaVuSans-Bold-57"/>
      </g>
     </g>
    </g>
    <g id="xtick_8">
     <g id="line2d_8">
      <path d="M 125.254844 124.579063 
L 46.850844 46.175063 
" clip-path="url(#pb6a8d75c97)" style="fill: none; stroke: #b0b0b0; stroke-width: 0.8; stroke-linecap: square"/>
     </g>
    </g>
   </g>
   <g id="matplotlib.axis_2"/>
   <g id="patch_3">
    <path d="M 125.254844 124.579063 
C 125.254844 124.579063 125.254844 124.579063 125.254844 124.579063 
C 125.254844 124.579063 125.254844 124.579063 125.254844 124.579063 
L 128.148018 95.204168 
C 127.186534 95.10947 126.22098 95.062036 125.254844 95.062036 
C 124.288707 95.062036 123.323153 95.10947 122.361669 95.204168 
z
" clip-path="url(#pb6a8d75c97)" style="fill: #d9d9d9"/>
   </g>
   <g id="patch_4">
    <path d="M 125.254844 124.579063 
C 125.254844 124.579063 125.254844 124.579063 125.254844 124.579063 
C 125.254844 124.579063 125.254844 124.579063 125.254844 124.579063 
L 125.254844 124.579063 
C 125.254844 124.579063 125.254844 124.579063 125.254844 124.579063 
C 125.254844 124.579063 125.254844 124.579063 125.254844 124.579063 
z
" clip-path="url(#pb6a8d75c97)" style="fill: #d9d9d9"/>
   </g>
   <g id="patch_5">
    <path d="M 125.254844 124.579063 
C 125.254844 124.579063 125.254844 124.579063 125.254844 124.579063 
C 125.254844 124.579063 125.254844 124.579063 125.254844 124.579063 
L 139.550356 97.83404 
C 138.674952 97.366126 137.777102 96.941475 136.860049 96.561619 
C 135.942996 96.181763 135.007846 95.847161 134.057977 95.559022 
z
" clip-path="url(#pb6a8d75c97)" style="fill: #d9d9d9"/>
   </g>
   <g id="patch_6">
    <path d="M 125.254844 124.579063 
C 125.254844 124.579063 125.254844 124.579063 125.254844 124.579063 
C 125.254844 124.579063 125.254844 124.579063 125.254844 124.579063 
L 134.082084 113.82304 
C 133.730023 113.534111 133.363989 113.262641 132.985303 113.009612 
C 132.606618 112.756582 132.215738 112.522298 131.814075 112.307604 
z
" clip-path="url(#pb6a8d75c97)" style="fill: #d9d9d9"/>
   </g>
   <g id="patch_7">
    <path d="M 125.254844 124.579063 
C 125.254844 124.579063 125.254844 124.579063 125.254844 124.579063 
C 125.254844 124.579063 125.254844 124.579063 125.254844 124.579063 
L 125.254844 124.579063 
C 125.254844 124.579063 125.254844 124.579063 125.254844 124.579063 
C 125.254844 124.579063 125.254844 124.579063 125.254844 124.579063 
z
" clip-path="url(#pb6a8d75c97)" style="fill: #d9d9d9"/>
   </g>
   <g id="patch_8">
    <path d="M 125.254844 124.579063 
C 125.254844 124.579063 125.254844 124.579063 125.254844 124.579063 
C 125.254844 124.579063 125.254844 124.579063 125.254844 124.579063 
L 125.254844 124.579063 
C 125.254844 124.579063 125.254844 124.579063 125.254844 124.579063 
C 125.254844 124.579063 125.254844 124.579063 125.254844 124.579063 
z
" clip-path="url(#pb6a8d75c97)" style="fill: #d9d9d9"/>
   </g>
   <g id="patch_9">
    <path d="M 125.254844 124.579063 
C 125.254844 124.579063 125.254844 124.579063 125.254844 124.579063 
C 125.254844 124.579063 125.254844 124.579063 125.254844 124.579063 
L 125.254844 124.579063 
C 125.254844 124.579063 125.254844 124.579063 125.254844 124.579063 
C 125.254844 124.579063 125.254844 124.579063 125.254844 124.579063 
z
" clip-path="url(#pb6a8d75c97)" style="fill: #d9d9d9"/>
   </g>
   <g id="patch_10">
    <path d="M 125.254844 124.579063 
C 125.254844 124.579063 125.254844 124.579063 125.254844 124.579063 
C 125.254844 124.579063 125.254844 124.579063 125.254844 124.579063 
L 125.254844 124.579063 
C 125.254844 124.579063 125.254844 124.579063 125.254844 124.579063 
C 125.254844 124.579063 125.254844 124.579063 125.254844 124.579063 
z
" clip-path="url(#pb6a8d75c97)" style="fill: #d9d9d9"/>
   </g>
   <g id="patch_11">
    <path d="M 125.254844 124.579063 
C 125.254844 124.579063 125.254844 124.579063 125.254844 124.579063 
C 125.254844 124.579063 125.254844 124.579063 125.254844 124.579063 
L 135.046475 125.543454 
C 135.078041 125.222959 135.093853 124.901108 135.093853 124.579063 
C 135.093853 124.257017 135.078041 123.935166 135.046475 123.614671 
z
" clip-path="url(#pb6a8d75c97)" style="fill: #d9d9d9"/>
   </g>
   <g id="patch_12">
    <path d="M 125.254844 124.579063 
C 125.254844 124.579063 125.254844 124.579063 125.254844 124.579063 
C 125.254844 124.579063 125.254844 124.579063 125.254844 124.579063 
L 131.912498 126.59864 
C 131.978602 126.380725 132.033966 126.159696 132.078392 125.936351 
C 132.122819 125.713006 132.156252 125.487614 132.178573 125.26099 
z
" clip-path="url(#pb6a8d75c97)" style="fill: #d9d9d9"/>
   </g>
   <g id="patch_13">
    <path d="M 125.254844 124.579063 
C 125.254844 124.579063 125.254844 124.579063 125.254844 124.579063 
C 125.254844 124.579063 125.254844 124.579063 125.254844 124.579063 
L 147.377529 136.403884 
C 147.764574 135.679776 148.115833 134.937101 148.430038 134.178542 
C 148.744243 133.419984 149.021016 132.646455 149.259357 131.860752 
z
" clip-path="url(#pb6a8d75c97)" style="fill: #d9d9d9"/>
   </g>
   <g id="patch_14">
    <path d="M 125.254844 124.579063 
C 125.254844 124.579063 125.254844 124.579063 125.254844 124.579063 
C 125.254844 124.579063 125.254844 124.579063 125.254844 124.579063 
L 125.254844 124.579063 
C 125.254844 124.579063 125.254844 124.579063 125.254844 124.579063 
C 125.254844 124.579063 125.254844 124.579063 125.254844 124.579063 
z
" clip-path="url(#pb6a8d75c97)" style="fill: #d9d9d9"/>
   </g>
   <g id="patch_15">
    <path d="M 125.254844 124.579063 
C 125.254844 124.579063 125.254844 124.579063 125.254844 124.579063 
C 125.254844 124.579063 125.254844 124.579063 125.254844 124.579063 
L 125.254844 124.579063 
C 125.254844 124.579063 125.254844 124.579063 125.254844 124.579063 
C 125.254844 124.579063 125.254844 124.579063 125.254844 124.579063 
z
" clip-path="url(#pb6a8d75c97)" style="fill: #d9d9d9"/>
   </g>
   <g id="patch_16">
    <path d="M 125.254844 124.579063 
C 125.254844 124.579063 125.254844 124.579063 125.254844 124.579063 
C 125.254844 124.579063 125.254844 124.579063 125.254844 124.579063 
L 125.254844 124.579063 
C 125.254844 124.579063 125.254844 124.579063 125.254844 124.579063 
C 125.254844 124.579063 125.254844 124.579063 125.254844 124.579063 
z
" clip-path="url(#pb6a8d75c97)" style="fill: #d9d9d9"/>
   </g>
   <g id="patch_17">
    <path d="M 125.254844 124.579063 
C 125.254844 124.579063 125.254844 124.579063 125.254844 124.579063 
C 125.254844 124.579063 125.254844 124.579063 125.254844 124.579063 
L 125.254844 124.579063 
C 125.254844 124.579063 125.254844 124.579063 125.254844 124.579063 
C 125.254844 124.579063 125.254844 124.579063 125.254844 124.579063 
z
" clip-path="url(#pb6a8d75c97)" style="fill: #d9d9d9"/>
   </g>
   <g id="patch_18">
    <path d="M 125.254844 124.579063 
C 125.254844 124.579063 125.254844 124.579063 125.254844 124.579063 
C 125.254844 124.579063 125.254844 124.579063 125.254844 124.579063 
L 125.254844 124.579063 
C 125.254844 124.579063 125.254844 124.579063 125.254844 124.579063 
C 125.254844 124.579063 125.254844 124.579063 125.254844 124.579063 
z
" clip-path="url(#pb6a8d75c97)" style="fill: #d9d9d9"/>
   </g>
   <g id="patch_19">
    <path d="M 125.254844 124.579063 
C 125.254844 124.579063 125.254844 124.579063 125.254844 124.579063 
C 125.254844 124.579063 125.254844 124.579063 125.254844 124.579063 
L 125.254844 124.579063 
C 125.254844 124.579063 125.254844 124.579063 125.254844 124.579063 
C 125.254844 124.579063 125.254844 124.579063 125.254844 124.579063 
z
" clip-path="url(#pb6a8d75c97)" style="fill: #d9d9d9"/>
   </g>
   <g id="patch_20">
    <path d="M 125.254844 124.579063 
C 125.254844 124.579063 125.254844 124.579063 125.254844 124.579063 
C 125.254844 124.579063 125.254844 124.579063 125.254844 124.579063 
L 125.254844 124.579063 
C 125.254844 124.579063 125.254844 124.579063 125.254844 124.579063 
C 125.254844 124.579063 125.254844 124.579063 125.254844 124.579063 
z
" clip-path="url(#pb6a8d75c97)" style="fill: #d9d9d9"/>
   </g>
   <g id="patch_21">
    <path d="M 125.254844 124.579063 
C 125.254844 124.579063 125.254844 124.579063 125.254844 124.579063 
C 125.254844 124.579063 125.254844 124.579063 125.254844 124.579063 
L 125.254844 124.579063 
C 125.254844 124.579063 125.254844 124.579063 125.254844 124.579063 
C 125.254844 124.579063 125.254844 124.579063 125.254844 124.579063 
z
" clip-path="url(#pb6a8d75c97)" style="fill: #d9d9d9"/>
   </g>
   <g id="patch_22">
    <path d="M 125.254844 124.579063 
C 125.254844 124.579063 125.254844 124.579063 125.254844 124.579063 
C 125.254844 124.579063 125.254844 124.579063 125.254844 124.579063 
L 125.254844 124.579063 
C 125.254844 124.579063 125.254844 124.579063 125.254844 124.579063 
C 125.254844 124.579063 125.254844 124.579063 125.254844 124.579063 
z
" clip-path="url(#pb6a8d75c97)" style="fill: #d9d9d9"/>
   </g>
   <g id="patch_23">
    <path d="M 125.254844 124.579063 
C 125.254844 124.579063 125.254844 124.579063 125.254844 124.579063 
C 125.254844 124.579063 125.254844 124.579063 125.254844 124.579063 
L 125.254844 124.579063 
C 125.254844 124.579063 125.254844 124.579063 125.254844 124.579063 
C 125.254844 124.579063 125.254844 124.579063 125.254844 124.579063 
z
" clip-path="url(#pb6a8d75c97)" style="fill: #d9d9d9"/>
   </g>
   <g id="patch_24">
    <path d="M 125.254844 124.579063 
C 125.254844 124.579063 125.254844 124.579063 125.254844 124.579063 
C 125.254844 124.579063 125.254844 124.579063 125.254844 124.579063 
L 125.254844 124.579063 
C 125.254844 124.579063 125.254844 124.579063 125.254844 124.579063 
C 125.254844 124.579063 125.254844 124.579063 125.254844 124.579063 
z
" clip-path="url(#pb6a8d75c97)" style="fill: #d9d9d9"/>
   </g>
   <g id="patch_25">
    <path d="M 125.254844 124.579063 
C 125.254844 124.579063 125.254844 124.579063 125.254844 124.579063 
C 125.254844 124.579063 125.254844 124.579063 125.254844 124.579063 
L 125.254844 124.579063 
C 125.254844 124.579063 125.254844 124.579063 125.254844 124.579063 
C 125.254844 124.579063 125.254844 124.579063 125.254844 124.579063 
z
" clip-path="url(#pb6a8d75c97)" style="fill: #d9d9d9"/>
   </g>
   <g id="patch_26">
    <path d="M 125.254844 124.579063 
C 125.254844 124.579063 125.254844 124.579063 125.254844 124.579063 
C 125.254844 124.579063 125.254844 124.579063 125.254844 124.579063 
L 125.254844 124.579063 
C 125.254844 124.579063 125.254844 124.579063 125.254844 124.579063 
C 125.254844 124.579063 125.254844 124.579063 125.254844 124.579063 
z
" clip-path="url(#pb6a8d75c97)" style="fill: #d9d9d9"/>
   </g>
   <g id="patch_27">
    <path d="M 125.254844 124.579063 
C 125.254844 124.579063 125.254844 124.579063 125.254844 124.579063 
C 125.254844 124.579063 125.254844 124.579063 125.254844 124.579063 
L 125.254844 124.579063 
C 125.254844 124.579063 125.254844 124.579063 125.254844 124.579063 
C 125.254844 124.579063 125.254844 124.579063 125.254844 124.579063 
z
" clip-path="url(#pb6a8d75c97)" style="fill: #d9d9d9"/>
   </g>
   <g id="patch_28">
    <path d="M 125.254844 124.579063 
C 125.254844 124.579063 125.254844 124.579063 125.254844 124.579063 
C 125.254844 124.579063 125.254844 124.579063 125.254844 124.579063 
L 125.254844 124.579063 
C 125.254844 124.579063 125.254844 124.579063 125.254844 124.579063 
C 125.254844 124.579063 125.254844 124.579063 125.254844 124.579063 
z
" clip-path="url(#pb6a8d75c97)" style="fill: #d9d9d9"/>
   </g>
   <g id="patch_29">
    <path d="M 125.254844 124.579063 
C 125.254844 124.579063 125.254844 124.579063 125.254844 124.579063 
C 125.254844 124.579063 125.254844 124.579063 125.254844 124.579063 
L 125.254844 124.579063 
C 125.254844 124.579063 125.254844 124.579063 125.254844 124.579063 
C 125.254844 124.579063 125.254844 124.579063 125.254844 124.579063 
z
" clip-path="url(#pb6a8d75c97)" style="fill: #d9d9d9"/>
   </g>
   <g id="patch_30">
    <path d="M 125.254844 124.579063 
C 125.254844 124.579063 125.254844 124.579063 125.254844 124.579063 
C 125.254844 124.579063 125.254844 124.579063 125.254844 124.579063 
L 125.254844 124.579063 
C 125.254844 124.579063 125.254844 124.579063 125.254844 124.579063 
C 125.254844 124.579063 125.254844 124.579063 125.254844 124.579063 
z
" clip-path="url(#pb6a8d75c97)" style="fill: #d9d9d9"/>
   </g>
   <g id="patch_31">
    <path d="M 125.254844 124.579063 
C 125.254844 124.579063 125.254844 124.579063 125.254844 124.579063 
C 125.254844 124.579063 125.254844 124.579063 125.254844 124.579063 
L 125.254844 124.579063 
C 125.254844 124.579063 125.254844 124.579063 125.254844 124.579063 
C 125.254844 124.579063 125.254844 124.579063 125.254844 124.579063 
z
" clip-path="url(#pb6a8d75c97)" style="fill: #d9d9d9"/>
   </g>
   <g id="patch_32">
    <path d="M 125.254844 124.579063 
C 125.254844 124.579063 125.254844 124.579063 125.254844 124.579063 
C 125.254844 124.579063 125.254844 124.579063 125.254844 124.579063 
L 125.254844 124.579063 
C 125.254844 124.579063 125.254844 124.579063 125.254844 124.579063 
C 125.254844 124.579063 125.254844 124.579063 125.254844 124.579063 
z
" clip-path="url(#pb6a8d75c97)" style="fill: #d9d9d9"/>
   </g>
   <g id="patch_33">
    <path d="M 125.254844 124.579063 
C 125.254844 124.579063 125.254844 124.579063 125.254844 124.579063 
C 125.254844 124.579063 125.254844 124.579063 125.254844 124.579063 
L 125.254844 124.579063 
C 125.254844 124.579063 125.254844 124.579063 125.254844 124.579063 
C 125.254844 124.579063 125.254844 124.579063 125.254844 124.579063 
z
" clip-path="url(#pb6a8d75c97)" style="fill: #d9d9d9"/>
   </g>
   <g id="patch_34">
    <path d="M 125.254844 124.579063 
C 125.254844 124.579063 125.254844 124.579063 125.254844 124.579063 
C 125.254844 124.579063 125.254844 124.579063 125.254844 124.579063 
L 125.254844 124.579063 
C 125.254844 124.579063 125.254844 124.579063 125.254844 124.579063 
C 125.254844 124.579063 125.254844 124.579063 125.254844 124.579063 
z
" clip-path="url(#pb6a8d75c97)" style="fill: #d9d9d9"/>
   </g>
   <g id="patch_35">
    <path d="M 122.361669 95.204168 
C 123.323153 95.10947 124.288707 95.062036 125.254844 95.062036 
C 126.22098 95.062036 127.186534 95.10947 128.148018 95.204168 
L 129.979378 76.610061 
C 128.409281 76.45542 126.832538 76.377959 125.254844 76.377959 
C 123.67715 76.377959 122.100407 76.45542 120.530309 76.610061 
z
" clip-path="url(#pb6a8d75c97)" style="fill: #badbb8"/>
   </g>
   <g id="patch_36">
    <path d="M 125.254844 124.579063 
C 125.254844 124.579063 125.254844 124.579063 125.254844 124.579063 
C 125.254844 124.579063 125.254844 124.579063 125.254844 124.579063 
L 129.770756 109.692096 
C 129.283483 109.544283 128.789247 109.420483 128.289833 109.321144 
C 127.790418 109.221804 127.286427 109.147044 126.779681 109.097134 
z
" clip-path="url(#pb6a8d75c97)" style="fill: #badbb8"/>
   </g>
   <g id="patch_37">
    <path d="M 134.057977 95.559022 
C 135.007846 95.847161 135.942996 96.181763 136.860049 96.561619 
C 137.777102 96.941475 138.674952 97.366126 139.550356 97.83404 
L 142.296226 92.696879 
C 141.252674 92.139089 140.182366 91.632871 139.089166 91.180053 
C 137.995967 90.727235 136.881194 90.328363 135.748875 89.984878 
z
" clip-path="url(#pb6a8d75c97)" style="fill: #badbb8"/>
   </g>
   <g id="patch_38">
    <path d="M 131.814075 112.307604 
C 132.215738 112.522298 132.606618 112.756582 132.985303 113.009612 
C 133.363989 113.262641 133.730023 113.534111 134.082084 113.82304 
L 140.544072 105.949084 
C 139.934285 105.448645 139.300295 104.978446 138.644393 104.540186 
C 137.98849 104.101926 137.311466 103.696134 136.615765 103.324274 
z
" clip-path="url(#pb6a8d75c97)" style="fill: #badbb8"/>
   </g>
   <g id="patch_39">
    <path d="M 125.254844 124.579063 
C 125.254844 124.579063 125.254844 124.579063 125.254844 124.579063 
C 125.254844 124.579063 125.254844 124.579063 125.254844 124.579063 
L 153.199811 101.64522 
C 152.449152 100.73054 151.654038 99.853266 150.817339 99.016567 
C 149.98064 98.179869 149.103366 97.384754 148.188686 96.634095 
z
" clip-path="url(#pb6a8d75c97)" style="fill: #badbb8"/>
   </g>
   <g id="patch_40">
    <path d="M 125.254844 124.579063 
C 125.254844 124.579063 125.254844 124.579063 125.254844 124.579063 
C 125.254844 124.579063 125.254844 124.579063 125.254844 124.579063 
L 160.501924 105.739106 
C 159.885264 104.585416 159.212333 103.462698 158.485561 102.375007 
C 157.758789 101.287316 156.979052 100.235963 156.149168 99.224746 
z
" clip-path="url(#pb6a8d75c97)" style="fill: #badbb8"/>
   </g>
   <g id="patch_41">
    <path d="M 125.254844 124.579063 
C 125.254844 124.579063 125.254844 124.579063 125.254844 124.579063 
C 125.254844 124.579063 125.254844 124.579063 125.254844 124.579063 
L 162.916222 113.154608 
C 162.542283 111.921895 162.108046 110.708284 161.61508 109.51816 
C 161.122114 108.328035 160.571013 107.162831 159.963769 106.026756 
z
" clip-path="url(#pb6a8d75c97)" style="fill: #badbb8"/>
   </g>
   <g id="patch_42">
    <path d="M 125.254844 124.579063 
C 125.254844 124.579063 125.254844 124.579063 125.254844 124.579063 
C 125.254844 124.579063 125.254844 124.579063 125.254844 124.579063 
L 165.626775 120.602774 
C 165.496625 119.281341 165.301675 117.967094 165.042628 116.66478 
C 164.783582 115.362467 164.460752 114.073656 164.075304 112.803005 
z
" clip-path="url(#pb6a8d75c97)" style="fill: #badbb8"/>
   </g>
   <g id="patch_43">
    <path d="M 135.046475 123.614671 
C 135.078041 123.935166 135.093853 124.257017 135.093853 124.579063 
C 135.093853 124.901108 135.078041 125.222959 135.046475 125.543454 
L 171.181666 129.10246 
C 171.329724 127.599206 171.403887 126.08959 171.403887 124.579063 
C 171.403887 123.068535 171.329724 121.558919 171.181666 120.055665 
z
" clip-path="url(#pb6a8d75c97)" style="fill: #badbb8"/>
   </g>
   <g id="patch_44">
    <path d="M 132.178573 125.26099 
C 132.156252 125.487614 132.122819 125.713006 132.078392 125.936351 
C 132.033966 126.159696 131.978602 126.380725 131.912498 126.59864 
L 171.380424 138.571104 
C 171.838404 137.061345 172.221983 135.53001 172.529776 133.982631 
C 172.837569 132.435252 173.069204 130.873694 173.223845 129.303597 
z
" clip-path="url(#pb6a8d75c97)" style="fill: #badbb8"/>
   </g>
   <g id="patch_45">
    <path d="M 149.259357 131.860752 
C 149.021016 132.646455 148.744243 133.419984 148.430038 134.178542 
C 148.115833 134.937101 147.764574 135.679776 147.377529 136.403884 
L 160.501924 143.419019 
C 161.118584 142.26533 161.678229 141.082059 162.178838 139.873482 
C 162.679447 138.664904 163.120417 137.432477 163.500154 136.180651 
z
" clip-path="url(#pb6a8d75c97)" style="fill: #badbb8"/>
   </g>
   <g id="patch_46">
    <path d="M 125.254844 124.579063 
C 125.254844 124.579063 125.254844 124.579063 125.254844 124.579063 
C 125.254844 124.579063 125.254844 124.579063 125.254844 124.579063 
L 154.711426 148.753455 
C 155.50269 147.789297 156.246139 146.786871 156.939089 145.749798 
C 157.632039 144.712726 158.273654 143.642256 158.861616 142.542256 
z
" clip-path="url(#pb6a8d75c97)" style="fill: #badbb8"/>
   </g>
   <g id="patch_47">
    <path d="M 125.254844 124.579063 
C 125.254844 124.579063 125.254844 124.579063 125.254844 124.579063 
C 125.254844 124.579063 125.254844 124.579063 125.254844 124.579063 
L 140.544072 143.209041 
C 141.153859 142.708602 141.738708 142.178525 142.296507 141.620726 
C 142.854306 141.062927 143.384383 140.478078 143.884822 139.868291 
z
" clip-path="url(#pb6a8d75c97)" style="fill: #badbb8"/>
   </g>
   <g id="patch_48">
    <path d="M 125.254844 124.579063 
C 125.254844 124.579063 125.254844 124.579063 125.254844 124.579063 
C 125.254844 124.579063 125.254844 124.579063 125.254844 124.579063 
L 147.738755 166.643502 
C 149.115587 165.90757 150.455457 165.104483 151.753525 164.237141 
C 153.051593 163.3698 154.306295 162.43925 155.513098 161.448852 
z
" clip-path="url(#pb6a8d75c97)" style="fill: #badbb8"/>
   </g>
   <g id="patch_49">
    <path d="M 125.254844 124.579063 
C 125.254844 124.579063 125.254844 124.579063 125.254844 124.579063 
C 125.254844 124.579063 125.254844 124.579063 125.254844 124.579063 
L 135.35273 157.867332 
C 136.442305 157.536814 137.514995 157.152999 138.566927 156.717274 
C 139.618859 156.28155 140.648763 155.794441 141.652921 155.257708 
z
" clip-path="url(#pb6a8d75c97)" style="fill: #badbb8"/>
   </g>
   <g id="patch_50">
    <path d="M 125.254844 124.579063 
C 125.254844 124.579063 125.254844 124.579063 125.254844 124.579063 
C 125.254844 124.579063 125.254844 124.579063 125.254844 124.579063 
L 128.664483 159.197708 
C 129.797603 159.086105 130.92456 158.918937 132.041285 158.696806 
C 133.15801 158.474676 134.263155 158.197851 135.35273 157.867332 
z
" clip-path="url(#pb6a8d75c97)" style="fill: #badbb8"/>
   </g>
   <g id="patch_51">
    <path d="M 125.254844 124.579063 
C 125.254844 124.579063 125.254844 124.579063 125.254844 124.579063 
C 125.254844 124.579063 125.254844 124.579063 125.254844 124.579063 
L 124.07371 136.571313 
C 124.466234 136.609973 124.86042 136.629338 125.254844 136.629338 
C 125.649267 136.629338 126.043453 136.609973 126.435977 136.571313 
z
" clip-path="url(#pb6a8d75c97)" style="fill: #badbb8"/>
   </g>
   <g id="patch_52">
    <path d="M 125.254844 124.579063 
C 125.254844 124.579063 125.254844 124.579063 125.254844 124.579063 
C 125.254844 124.579063 125.254844 124.579063 125.254844 124.579063 
L 120.30791 140.886918 
C 120.84169 141.048838 121.383099 141.184454 121.93018 141.293275 
C 122.477261 141.402096 123.029355 141.483992 123.584469 141.538666 
z
" clip-path="url(#pb6a8d75c97)" style="fill: #badbb8"/>
   </g>
   <g id="patch_53">
    <path d="M 125.254844 124.579063 
C 125.254844 124.579063 125.254844 124.579063 125.254844 124.579063 
C 125.254844 124.579063 125.254844 124.579063 125.254844 124.579063 
L 117.921401 138.29897 
C 118.370474 138.539004 118.831061 138.756846 119.301499 138.951708 
C 119.771937 139.14657 120.251659 139.318217 120.738932 139.466029 
z
" clip-path="url(#pb6a8d75c97)" style="fill: #badbb8"/>
   </g>
   <g id="patch_54">
    <path d="M 125.254844 124.579063 
C 125.254844 124.579063 125.254844 124.579063 125.254844 124.579063 
C 125.254844 124.579063 125.254844 124.579063 125.254844 124.579063 
L 106.01632 148.021271 
C 106.783619 148.650977 107.581372 149.242631 108.406697 149.794096 
C 109.232023 150.345561 110.083927 150.856172 110.959331 151.324085 
z
" clip-path="url(#pb6a8d75c97)" style="fill: #badbb8"/>
   </g>
   <g id="patch_55">
    <path d="M 125.254844 124.579063 
C 125.254844 124.579063 125.254844 124.579063 125.254844 124.579063 
C 125.254844 124.579063 125.254844 124.579063 125.254844 124.579063 
L 99.462807 145.74604 
C 100.155633 146.590252 100.889491 147.399939 101.661729 148.172177 
C 102.433967 148.944415 103.243654 149.678273 104.087866 150.3711 
z
" clip-path="url(#pb6a8d75c97)" style="fill: #badbb8"/>
   </g>
   <g id="patch_56">
    <path d="M 125.254844 124.579063 
C 125.254844 124.579063 125.254844 124.579063 125.254844 124.579063 
C 125.254844 124.579063 125.254844 124.579063 125.254844 124.579063 
L 77.727691 149.982855 
C 78.559195 151.53849 79.466575 153.052362 80.446554 154.519004 
C 81.426533 155.985647 82.47793 157.403291 83.596946 158.766816 
z
" clip-path="url(#pb6a8d75c97)" style="fill: #badbb8"/>
   </g>
   <g id="patch_57">
    <path d="M 125.254844 124.579063 
C 125.254844 124.579063 125.254844 124.579063 125.254844 124.579063 
C 125.254844 124.579063 125.254844 124.579063 125.254844 124.579063 
L 97.804633 132.905993 
C 98.077186 133.804479 98.393688 134.689042 98.752995 135.556488 
C 99.112303 136.423933 99.513983 137.273214 99.956585 138.101264 
z
" clip-path="url(#pb6a8d75c97)" style="fill: #badbb8"/>
   </g>
   <g id="patch_58">
    <path d="M 125.254844 124.579063 
C 125.254844 124.579063 125.254844 124.579063 125.254844 124.579063 
C 125.254844 124.579063 125.254844 124.579063 125.254844 124.579063 
L 102.291432 126.840761 
C 102.365461 127.592388 102.476348 128.339927 102.623693 129.080678 
C 102.771037 129.82143 102.954662 130.5545 103.173904 131.277242 
z
" clip-path="url(#pb6a8d75c97)" style="fill: #badbb8"/>
   </g>
   <g id="patch_59">
    <path d="M 125.254844 124.579063 
C 125.254844 124.579063 125.254844 124.579063 125.254844 124.579063 
C 125.254844 124.579063 125.254844 124.579063 125.254844 124.579063 
L 125.254844 124.579063 
C 125.254844 124.579063 125.254844 124.579063 125.254844 124.579063 
C 125.254844 124.579063 125.254844 124.579063 125.254844 124.579063 
z
" clip-path="url(#pb6a8d75c97)" style="fill: #badbb8"/>
   </g>
   <g id="patch_60">
    <path d="M 125.254844 124.579063 
C 125.254844 124.579063 125.254844 124.579063 125.254844 124.579063 
C 125.254844 124.579063 125.254844 124.579063 125.254844 124.579063 
L 125.254844 124.579063 
C 125.254844 124.579063 125.254844 124.579063 125.254844 124.579063 
C 125.254844 124.579063 125.254844 124.579063 125.254844 124.579063 
z
" clip-path="url(#pb6a8d75c97)" style="fill: #badbb8"/>
   </g>
   <g id="patch_61">
    <path d="M 125.254844 124.579063 
C 125.254844 124.579063 125.254844 124.579063 125.254844 124.579063 
C 125.254844 124.579063 125.254844 124.579063 125.254844 124.579063 
L 125.254844 124.579063 
C 125.254844 124.579063 125.254844 124.579063 125.254844 124.579063 
C 125.254844 124.579063 125.254844 124.579063 125.254844 124.579063 
z
" clip-path="url(#pb6a8d75c97)" style="fill: #badbb8"/>
   </g>
   <g id="patch_62">
    <path d="M 125.254844 124.579063 
C 125.254844 124.579063 125.254844 124.579063 125.254844 124.579063 
C 125.254844 124.579063 125.254844 124.579063 125.254844 124.579063 
L 125.254844 124.579063 
C 125.254844 124.579063 125.254844 124.579063 125.254844 124.579063 
C 125.254844 124.579063 125.254844 124.579063 125.254844 124.579063 
z
" clip-path="url(#pb6a8d75c97)" style="fill: #badbb8"/>
   </g>
   <g id="patch_63">
    <path d="M 125.254844 124.579063 
C 125.254844 124.579063 125.254844 124.579063 125.254844 124.579063 
C 125.254844 124.579063 125.254844 124.579063 125.254844 124.579063 
L 125.254844 124.579063 
C 125.254844 124.579063 125.254844 124.579063 125.254844 124.579063 
C 125.254844 124.579063 125.254844 124.579063 125.254844 124.579063 
z
" clip-path="url(#pb6a8d75c97)" style="fill: #badbb8"/>
   </g>
   <g id="patch_64">
    <path d="M 125.254844 124.579063 
C 125.254844 124.579063 125.254844 124.579063 125.254844 124.579063 
C 125.254844 124.579063 125.254844 124.579063 125.254844 124.579063 
L 110.959331 97.83404 
C 110.083927 98.301953 109.232023 98.812564 108.406697 99.364029 
C 107.581372 99.915494 106.783619 100.507148 106.01632 101.136854 
z
" clip-path="url(#pb6a8d75c97)" style="fill: #badbb8"/>
   </g>
   <g id="patch_65">
    <path d="M 125.254844 124.579063 
C 125.254844 124.579063 125.254844 124.579063 125.254844 124.579063 
C 125.254844 124.579063 125.254844 124.579063 125.254844 124.579063 
L 119.542617 105.748373 
C 118.92626 105.935343 118.319455 106.152462 117.724392 106.398944 
C 117.12933 106.645427 116.546728 106.920978 115.97869 107.2246 
z
" clip-path="url(#pb6a8d75c97)" style="fill: #badbb8"/>
   </g>
   <g id="patch_66">
    <path d="M 125.254844 124.579063 
C 125.254844 124.579063 125.254844 124.579063 125.254844 124.579063 
C 125.254844 124.579063 125.254844 124.579063 125.254844 124.579063 
L 121.278556 84.207132 
C 119.957122 84.337282 118.642875 84.532232 117.340561 84.791278 
C 116.038248 85.050324 114.749438 85.373154 113.478786 85.758602 
z
" clip-path="url(#pb6a8d75c97)" style="fill: #badbb8"/>
   </g>
   <g id="patch_67">
    <path d="M 120.530309 76.610061 
C 122.100407 76.45542 123.67715 76.377959 125.254844 76.377959 
C 126.832538 76.377959 128.409281 76.45542 129.979378 76.610061 
L 131.354191 62.651348 
C 129.327205 62.451707 127.291638 62.351706 125.254844 62.351706 
C 123.218049 62.351706 121.182483 62.451707 119.155496 62.651348 
z
" clip-path="url(#pb6a8d75c97)" style="fill: #a1a1d8"/>
   </g>
   <g id="patch_68">
    <path d="M 126.779681 109.097134 
C 127.286427 109.147044 127.790418 109.221804 128.289833 109.321144 
C 128.789247 109.420483 129.283483 109.544283 129.770756 109.692096 
L 139.957588 76.11061 
C 138.371143 75.629367 136.762027 75.226304 135.136051 74.902878 
C 133.510076 74.579451 131.869201 74.33605 130.219353 74.173555 
z
" clip-path="url(#pb6a8d75c97)" style="fill: #a1a1d8"/>
   </g>
   <g id="patch_69">
    <path d="M 135.748875 89.984878 
C 136.881194 90.328363 137.995967 90.727235 139.089166 91.180053 
C 140.182366 91.632871 141.252674 92.139089 142.296226 92.696879 
L 164.61023 50.950314 
C 162.200251 49.662153 159.728479 48.493093 157.203843 47.447354 
C 154.679207 46.401616 152.10475 45.48046 149.489771 44.687215 
z
" clip-path="url(#pb6a8d75c97)" style="fill: #a1a1d8"/>
   </g>
   <g id="patch_70">
    <path d="M 136.615765 103.324274 
C 137.311466 103.696134 137.98849 104.101926 138.644393 104.540186 
C 139.300295 104.978446 139.934285 105.448645 140.544072 105.949084 
L 163.477914 78.004117 
C 161.953446 76.753019 160.368472 75.577522 158.728716 74.481872 
C 157.088961 73.386222 155.3964 72.37174 153.657147 71.44209 
z
" clip-path="url(#pb6a8d75c97)" style="fill: #a1a1d8"/>
   </g>
   <g id="patch_71">
    <path d="M 148.188686 96.634095 
C 149.103366 97.384754 149.98064 98.179869 150.817339 99.016567 
C 151.654038 99.853266 152.449152 100.73054 153.199811 101.64522 
L 176.275141 82.707787 
C 174.904631 81.037817 173.452957 79.436141 171.925361 77.908545 
C 170.397765 76.380949 168.79609 74.929275 167.126119 73.558766 
z
" clip-path="url(#pb6a8d75c97)" style="fill: #a1a1d8"/>
   </g>
   <g id="patch_72">
    <path d="M 156.149168 99.224746 
C 156.979052 100.235963 157.758789 101.287316 158.485561 102.375007 
C 159.212333 103.462698 159.885264 104.585416 160.501924 105.739106 
L 194.400998 87.619673 
C 193.191262 85.356416 191.871136 83.153918 190.445387 81.020134 
C 189.019638 78.88635 187.489986 76.823853 185.861955 74.840092 
z
" clip-path="url(#pb6a8d75c97)" style="fill: #a1a1d8"/>
   </g>
   <g id="patch_73">
    <path d="M 159.963769 106.026756 
C 160.571013 107.162831 161.122114 108.328035 161.61508 109.51816 
C 162.108046 110.708284 162.542283 111.921895 162.916222 113.154608 
L 191.162256 104.586268 
C 190.507862 102.42902 189.747947 100.305201 188.885257 98.222482 
C 188.022567 96.139764 187.058141 94.100657 185.995462 92.112525 
z
" clip-path="url(#pb6a8d75c97)" style="fill: #a1a1d8"/>
   </g>
   <g id="patch_74">
    <path d="M 164.075304 112.803005 
C 164.460752 114.073656 164.783582 115.362467 165.042628 116.66478 
C 165.301675 117.967094 165.496625 119.281341 165.626775 120.602774 
L 194.492134 117.759785 
C 194.268929 115.493545 193.934592 113.23963 193.490331 111.00618 
C 193.04607 108.772731 192.492421 106.56244 191.831384 104.38329 
z
" clip-path="url(#pb6a8d75c97)" style="fill: #a1a1d8"/>
   </g>
   <g id="patch_75">
    <path d="M 171.181666 120.055665 
C 171.329724 121.558919 171.403887 123.068535 171.403887 124.579063 
C 171.403887 126.08959 171.329724 127.599206 171.181666 129.10246 
L 199.18004 131.860059 
C 199.418358 129.440377 199.537733 127.010452 199.537733 124.579063 
C 199.537733 122.147673 199.418358 119.717748 199.18004 117.298066 
z
" clip-path="url(#pb6a8d75c97)" style="fill: #a1a1d8"/>
   </g>
   <g id="patch_76">
    <path d="M 173.223845 129.303597 
C 173.069204 130.873694 172.837569 132.435252 172.529776 133.982631 
C 172.221983 135.53001 171.838404 137.061345 171.380424 138.571104 
L 196.339136 146.142247 
C 197.044932 143.815552 197.636067 141.455607 198.110408 139.070935 
C 198.584748 136.686264 198.941722 134.279741 199.18004 131.860059 
z
" clip-path="url(#pb6a8d75c97)" style="fill: #a1a1d8"/>
   </g>
   <g id="patch_77">
    <path d="M 163.500154 136.180651 
C 163.120417 137.432477 162.679447 138.664904 162.178838 139.873482 
C 161.678229 141.082059 161.118584 142.26533 160.501924 143.419019 
L 180.816233 154.277244 
C 181.788299 152.458637 182.670491 150.5934 183.459621 148.688271 
C 184.248751 146.783141 184.943869 144.840416 185.542465 142.867112 
z
" clip-path="url(#pb6a8d75c97)" style="fill: #a1a1d8"/>
   </g>
   <g id="patch_78">
    <path d="M 158.861616 142.542256 
C 158.273654 143.642256 157.632039 144.712726 156.939089 145.749798 
C 156.246139 146.786871 155.50269 147.789297 154.711426 148.753455 
L 175.417595 165.746569 
C 176.765069 164.104667 178.031118 162.397598 179.211169 160.631527 
C 180.39122 158.865456 181.483851 157.042512 182.485114 155.169279 
z
" clip-path="url(#pb6a8d75c97)" style="fill: #a1a1d8"/>
   </g>
   <g id="patch_79">
    <path d="M 143.884822 139.868291 
C 143.384383 140.478078 142.854306 141.062927 142.296507 141.620726 
C 141.738708 142.178525 141.153859 142.708602 140.544072 143.209041 
L 178.767142 189.783987 
C 180.901396 188.032449 182.948369 186.177181 184.900666 184.224885 
C 186.852963 182.272588 188.70823 180.225615 190.459768 178.091361 
z
" clip-path="url(#pb6a8d75c97)" style="fill: #a1a1d8"/>
   </g>
   <g id="patch_80">
    <path d="M 155.513098 161.448852 
C 154.306295 162.43925 153.051593 163.3698 151.753525 164.237141 
C 150.455457 165.104483 149.115587 165.90757 147.738755 166.643502 
L 155.491405 181.147689 
C 157.34298 180.158001 159.144849 179.078003 160.890502 177.911595 
C 162.636156 176.745186 164.32349 175.493774 165.946409 174.161879 
z
" clip-path="url(#pb6a8d75c97)" style="fill: #a1a1d8"/>
   </g>
   <g id="patch_81">
    <path d="M 141.652921 155.257708 
C 140.648763 155.794441 139.618859 156.28155 138.566927 156.717274 
C 137.514995 157.152999 136.442305 157.536814 135.35273 157.867332 
L 148.192832 200.195476 
C 150.66787 199.444681 153.104555 198.572822 155.494084 197.583046 
C 157.883613 196.593271 160.223107 195.486773 162.504115 194.267548 
z
" clip-path="url(#pb6a8d75c97)" style="fill: #a1a1d8"/>
   </g>
   <g id="patch_82">
    <path d="M 135.35273 157.867332 
C 134.263155 158.197851 133.15801 158.474676 132.041285 158.696806 
C 130.92456 158.918937 129.797603 159.086105 128.664483 159.197708 
L 131.277467 185.727781 
C 133.278956 185.530652 135.26956 185.235374 137.242089 184.843013 
C 139.214618 184.450653 141.166694 183.961683 143.091267 183.37787 
z
" clip-path="url(#pb6a8d75c97)" style="fill: #a1a1d8"/>
   </g>
   <g id="patch_83">
    <path d="M 126.435977 136.571313 
C 126.043453 136.609973 125.649267 136.629338 125.254844 136.629338 
C 124.86042 136.629338 124.466234 136.609973 124.07371 136.571313 
L 121.646421 161.215993 
C 122.845603 161.334102 124.04986 161.393263 125.254844 161.393263 
C 126.459828 161.393263 127.664085 161.334102 128.863266 161.215993 
z
" clip-path="url(#pb6a8d75c97)" style="fill: #a1a1d8"/>
   </g>
   <g id="patch_84">
    <path d="M 123.584469 141.538666 
C 123.029355 141.483992 122.477261 141.402096 121.93018 141.293275 
C 121.383099 141.184454 120.84169 141.048838 120.30791 140.886918 
L 119.196112 144.552024 
C 119.849857 144.750336 120.512944 144.916431 121.182979 145.049709 
C 121.853014 145.182987 122.529188 145.283288 123.20906 145.35025 
z
" clip-path="url(#pb6a8d75c97)" style="fill: #a1a1d8"/>
   </g>
   <g id="patch_85">
    <path d="M 120.738932 139.466029 
C 120.251659 139.318217 119.771937 139.14657 119.301499 138.951708 
C 118.831061 138.756846 118.370474 138.539004 117.921401 138.29897 
L 110.225757 152.696505 
C 111.146083 153.18843 112.090007 153.634872 113.054118 154.03422 
C 114.018229 154.433568 115.001366 154.78534 115.999978 155.088266 
z
" clip-path="url(#pb6a8d75c97)" style="fill: #a1a1d8"/>
   </g>
   <g id="patch_86">
    <path d="M 110.959331 151.324085 
C 110.083927 150.856172 109.232023 150.345561 108.406697 149.794096 
C 107.581372 149.242631 106.783619 148.650977 106.01632 148.021271 
L 105.516535 148.630261 
C 106.303767 149.276325 107.122244 149.883349 107.96901 150.449141 
C 108.815777 151.014932 109.689811 151.538808 110.587957 152.018877 
z
" clip-path="url(#pb6a8d75c97)" style="fill: #a1a1d8"/>
   </g>
   <g id="patch_87">
    <path d="M 104.087866 150.3711 
C 103.243654 149.678273 102.433967 148.944415 101.661729 148.172177 
C 100.889491 147.399939 100.155633 146.590252 99.462807 145.74604 
L 81.563672 160.435481 
C 82.737306 161.865558 83.980446 163.237151 85.2886 164.545306 
C 86.596755 165.853461 87.968348 167.0966 89.398426 168.270234 
z
" clip-path="url(#pb6a8d75c97)" style="fill: #a1a1d8"/>
   </g>
   <g id="patch_88">
    <path d="M 83.596946 158.766816 
C 82.47793 157.403291 81.426533 155.985647 80.446554 154.519004 
C 79.466575 153.052362 78.559195 151.53849 77.727691 149.982855 
L 73.554272 152.213594 
C 74.458791 153.905831 75.44585 155.552638 76.511882 157.148068 
C 77.577914 158.743498 78.721635 160.285627 79.938913 161.768885 
z
" clip-path="url(#pb6a8d75c97)" style="fill: #a1a1d8"/>
   </g>
   <g id="patch_89">
    <path d="M 99.956585 138.101264 
C 99.513983 137.273214 99.112303 136.423933 98.752995 135.556488 
C 98.393688 134.689042 98.077186 133.804479 97.804633 132.905993 
L 94.027679 134.051719 
C 94.337733 135.073831 94.697783 136.080104 95.106529 137.066903 
C 95.515274 138.053703 95.972223 139.019839 96.475724 139.961823 
z
" clip-path="url(#pb6a8d75c97)" style="fill: #a1a1d8"/>
   </g>
   <g id="patch_90">
    <path d="M 103.173904 131.277242 
C 102.954662 130.5545 102.771037 129.82143 102.623693 129.080678 
C 102.476348 128.339927 102.365461 127.592388 102.291432 126.840761 
L 102.291432 126.840761 
C 102.365461 127.592388 102.476348 128.339927 102.623693 129.080678 
C 102.771037 129.82143 102.954662 130.5545 103.173904 131.277242 
z
" clip-path="url(#pb6a8d75c97)" style="fill: #a1a1d8"/>
   </g>
   <g id="patch_91">
    <path d="M 125.254844 124.579063 
C 125.254844 124.579063 125.254844 124.579063 125.254844 124.579063 
C 125.254844 124.579063 125.254844 124.579063 125.254844 124.579063 
L 125.254844 124.579063 
C 125.254844 124.579063 125.254844 124.579063 125.254844 124.579063 
C 125.254844 124.579063 125.254844 124.579063 125.254844 124.579063 
z
" clip-path="url(#pb6a8d75c97)" style="fill: #a1a1d8"/>
   </g>
   <g id="patch_92">
    <path d="M 125.254844 124.579063 
C 125.254844 124.579063 125.254844 124.579063 125.254844 124.579063 
C 125.254844 124.579063 125.254844 124.579063 125.254844 124.579063 
L 125.254844 124.579063 
C 125.254844 124.579063 125.254844 124.579063 125.254844 124.579063 
C 125.254844 124.579063 125.254844 124.579063 125.254844 124.579063 
z
" clip-path="url(#pb6a8d75c97)" style="fill: #a1a1d8"/>
   </g>
   <g id="patch_93">
    <path d="M 125.254844 124.579063 
C 125.254844 124.579063 125.254844 124.579063 125.254844 124.579063 
C 125.254844 124.579063 125.254844 124.579063 125.254844 124.579063 
L 125.254844 124.579063 
C 125.254844 124.579063 125.254844 124.579063 125.254844 124.579063 
C 125.254844 124.579063 125.254844 124.579063 125.254844 124.579063 
z
" clip-path="url(#pb6a8d75c97)" style="fill: #a1a1d8"/>
   </g>
   <g id="patch_94">
    <path d="M 125.254844 124.579063 
C 125.254844 124.579063 125.254844 124.579063 125.254844 124.579063 
C 125.254844 124.579063 125.254844 124.579063 125.254844 124.579063 
L 115.939855 116.934448 
C 115.689635 117.239342 115.454536 117.556337 115.235406 117.884288 
C 115.016276 118.212239 114.813379 118.550751 114.627449 118.898602 
z
" clip-path="url(#pb6a8d75c97)" style="fill: #a1a1d8"/>
   </g>
   <g id="patch_95">
    <path d="M 125.254844 124.579063 
C 125.254844 124.579063 125.254844 124.579063 125.254844 124.579063 
C 125.254844 124.579063 125.254844 124.579063 125.254844 124.579063 
L 104.087866 98.787025 
C 103.243654 99.479852 102.433967 100.21371 101.661729 100.985948 
C 100.889491 101.758186 100.155633 102.567873 99.462807 103.412085 
z
" clip-path="url(#pb6a8d75c97)" style="fill: #a1a1d8"/>
   </g>
   <g id="patch_96">
    <path d="M 106.01632 101.136854 
C 106.783619 100.507148 107.581372 99.915494 108.406697 99.364029 
C 109.232023 98.812564 110.083927 98.301953 110.959331 97.83404 
L 110.225757 96.46162 
C 109.305432 96.953544 108.409813 97.490358 107.542135 98.070121 
C 106.674458 98.649884 105.835769 99.271899 105.029096 99.933918 
z
" clip-path="url(#pb6a8d75c97)" style="fill: #a1a1d8"/>
   </g>
   <g id="patch_97">
    <path d="M 115.97869 107.2246 
C 116.546728 106.920978 117.12933 106.645427 117.724392 106.398944 
C 118.319455 106.152462 118.92626 105.935343 119.542617 105.748373 
L 115.569291 92.650076 
C 114.524208 92.967098 113.495319 93.33524 112.486342 93.753173 
C 111.477365 94.171105 110.489515 94.638323 109.52636 95.15314 
z
" clip-path="url(#pb6a8d75c97)" style="fill: #a1a1d8"/>
   </g>
   <g id="patch_98">
    <path d="M 113.478786 85.758602 
C 114.749438 85.373154 116.038248 85.050324 117.340561 84.791278 
C 118.642875 84.532232 119.957122 84.337282 121.278556 84.207132 
L 120.243718 73.700253 
C 118.578379 73.864275 116.922096 74.109961 115.280853 74.436425 
C 113.63961 74.762888 112.015384 75.169736 110.414042 75.655497 
z
" clip-path="url(#pb6a8d75c97)" style="fill: #a1a1d8"/>
   </g>
   <g id="patch_99">
    <path d="M 119.155496 62.651348 
C 121.182483 62.451707 123.218049 62.351706 125.254844 62.351706 
C 127.291638 62.351706 129.327205 62.451707 131.354191 62.651348 
L 132.53584 50.653866 
C 130.116158 50.415548 127.686234 50.296174 125.254844 50.296174 
C 122.823454 50.296174 120.393529 50.415548 117.973847 50.653866 
z
" clip-path="url(#pb6a8d75c97)" style="fill: #828282"/>
   </g>
   <g id="patch_100">
    <path d="M 130.219353 74.173555 
C 131.869201 74.33605 133.510076 74.579451 135.136051 74.902878 
C 136.762027 75.226304 138.371143 75.629367 139.957588 76.11061 
L 146.242906 55.390693 
C 143.978268 54.703722 141.681266 54.128353 139.360197 53.666664 
C 137.039128 53.204975 134.696791 52.857522 132.341645 52.62556 
z
" clip-path="url(#pb6a8d75c97)" style="fill: #828282"/>
   </g>
   <g id="patch_101">
    <path d="M 149.489771 44.687215 
C 152.10475 45.48046 154.679207 46.401616 157.203843 47.447354 
C 159.728479 48.493093 162.200251 49.662153 164.61023 50.950314 
L 166.348308 47.698598 
C 163.831896 46.353547 161.250962 45.132857 158.614829 44.040934 
C 155.978695 42.949012 153.290541 41.987175 150.560074 41.158897 
z
" clip-path="url(#pb6a8d75c97)" style="fill: #828282"/>
   </g>
   <g id="patch_102">
    <path d="M 153.657147 71.44209 
C 155.3964 72.37174 157.088961 73.386222 158.728716 74.481872 
C 160.368472 75.577522 161.953446 76.753019 163.477914 78.004117 
L 169.611175 70.530716 
C 167.842092 69.078867 166.002794 67.71475 164.099923 66.443293 
C 162.197053 65.171835 160.232904 63.99457 158.214572 62.915749 
z
" clip-path="url(#pb6a8d75c97)" style="fill: #828282"/>
   </g>
   <g id="patch_103">
    <path d="M 167.126119 73.558766 
C 168.79609 74.929275 170.397765 76.380949 171.925361 77.908545 
C 173.452957 79.436141 174.904631 81.037817 176.275141 82.707787 
L 184.656922 75.829037 
C 183.061261 73.884718 181.371101 72.019914 179.592547 70.241359 
C 177.813993 68.462805 175.949188 66.772645 174.00487 65.176984 
z
" clip-path="url(#pb6a8d75c97)" style="fill: #828282"/>
   </g>
   <g id="patch_104">
    <path d="M 185.861955 74.840092 
C 187.489986 76.823853 189.019638 78.88635 190.445387 81.020134 
C 191.871136 83.153918 193.191262 85.356416 194.400998 87.619673 
L 223.042274 72.310592 
C 221.331448 69.109864 219.464508 65.995061 217.448194 62.977435 
C 215.431881 59.959809 213.268626 57.042997 210.966243 54.237535 
z
" clip-path="url(#pb6a8d75c97)" style="fill: #828282"/>
   </g>
   <g id="patch_105">
    <path d="M 185.995462 92.112525 
C 187.058141 94.100657 188.022567 96.139764 188.885257 98.222482 
C 189.747947 100.305201 190.507862 102.42902 191.162256 104.586268 
L 197.268382 102.733994 
C 196.55336 100.376884 195.723042 98.056299 194.780426 95.780623 
C 193.83781 93.504947 192.784033 91.276923 191.622901 89.104597 
z
" clip-path="url(#pb6a8d75c97)" style="fill: #828282"/>
   </g>
   <g id="patch_106">
    <path d="M 191.831384 104.38329 
C 192.492421 106.56244 193.04607 108.772731 193.490331 111.00618 
C 193.934592 113.23963 194.268929 115.493545 194.492134 117.759785 
L 203.281307 116.894127 
C 203.029768 114.340204 202.652989 111.800171 202.152333 109.283201 
C 201.651676 106.766231 201.027745 104.27536 200.282794 101.819583 
z
" clip-path="url(#pb6a8d75c97)" style="fill: #828282"/>
   </g>
   <g id="patch_107">
    <path d="M 199.18004 117.298066 
C 199.418358 119.717748 199.537733 122.147673 199.537733 124.579063 
C 199.537733 127.010452 199.418358 129.440377 199.18004 131.860059 
L 206.884405 132.618873 
C 207.14756 129.947015 207.279375 127.263848 207.279375 124.579063 
C 207.279375 121.894277 207.14756 119.21111 206.884405 116.539252 
z
" clip-path="url(#pb6a8d75c97)" style="fill: #828282"/>
   </g>
   <g id="patch_108">
    <path d="M 199.18004 131.860059 
C 198.941722 134.279741 198.584748 136.686264 198.110408 139.070935 
C 197.636067 141.455607 197.044932 143.815552 196.339136 146.142247 
L 203.180686 148.217608 
C 203.954411 145.666979 204.60244 143.079899 205.122434 140.465714 
C 205.642428 137.851528 206.033759 135.213388 206.295014 132.560823 
z
" clip-path="url(#pb6a8d75c97)" style="fill: #828282"/>
   </g>
   <g id="patch_109">
    <path d="M 185.542465 142.867112 
C 184.943869 144.840416 184.248751 146.783141 183.459621 148.688271 
C 182.670491 150.5934 181.788299 152.458637 180.816233 154.277244 
L 187.525693 157.863525 
C 188.615143 155.825307 189.603865 153.734828 190.488289 151.59964 
C 191.372713 149.464452 192.151772 147.287128 192.822652 145.075533 
z
" clip-path="url(#pb6a8d75c97)" style="fill: #828282"/>
   </g>
   <g id="patch_110">
    <path d="M 182.485114 155.169279 
C 181.483851 157.042512 180.39122 158.865456 179.211169 160.631527 
C 178.031118 162.397598 176.765069 164.104667 175.417595 165.746569 
L 188.432174 176.427357 
C 190.129246 174.359469 191.723768 172.209506 193.209979 169.985232 
C 194.696191 167.760959 196.072301 165.465058 197.33334 163.105821 
z
" clip-path="url(#pb6a8d75c97)" style="fill: #828282"/>
   </g>
   <g id="patch_111">
    <path d="M 190.459768 178.091361 
C 188.70823 180.225615 186.852963 182.272588 184.900666 184.224885 
C 182.948369 186.177181 180.901396 188.032449 178.767142 189.783987 
L 192.914357 207.022418 
C 195.612851 204.807821 198.200988 202.46207 200.66942 199.993638 
C 203.137851 197.525207 205.483602 194.93707 207.698199 192.238575 
z
" clip-path="url(#pb6a8d75c97)" style="fill: #828282"/>
   </g>
   <g id="patch_112">
    <path d="M 165.946409 174.161879 
C 164.32349 175.493774 162.636156 176.745186 160.890502 177.911595 
C 159.144849 179.078003 157.34298 180.158001 155.491405 181.147689 
L 156.711811 183.430908 
C 158.638119 182.401275 160.512715 181.277685 162.328826 180.064198 
C 164.144938 178.850712 165.900376 177.54879 167.588799 176.163137 
z
" clip-path="url(#pb6a8d75c97)" style="fill: #828282"/>
   </g>
   <g id="patch_113">
    <path d="M 162.504115 194.267548 
C 160.223107 195.486773 157.883613 196.593271 155.494084 197.583046 
C 153.104555 198.572822 150.66787 199.444681 148.192832 200.195476 
L 148.806959 202.219983 
C 151.348263 201.449087 153.850185 200.553885 156.30369 199.537609 
C 158.757196 198.521334 161.159326 197.385211 163.501404 196.133344 
z
" clip-path="url(#pb6a8d75c97)" style="fill: #828282"/>
   </g>
   <g id="patch_114">
    <path d="M 143.091267 183.37787 
C 141.166694 183.961683 139.214618 184.450653 137.242089 184.843013 
C 135.26956 185.235374 133.278956 185.530652 131.277467 185.727781 
L 131.429962 187.276095 
C 133.48213 187.073974 135.523137 186.77122 137.545611 186.368924 
C 139.568086 185.966629 141.56959 185.465279 143.542894 184.866683 
z
" clip-path="url(#pb6a8d75c97)" style="fill: #828282"/>
   </g>
   <g id="patch_115">
    <path d="M 128.863266 161.215993 
C 127.664085 161.334102 126.459828 161.393263 125.254844 161.393263 
C 124.04986 161.393263 122.845603 161.334102 121.646421 161.215993 
L 120.835447 169.449955 
C 122.304138 169.594608 123.779046 169.667066 125.254844 169.667066 
C 126.730641 169.667066 128.20555 169.594608 129.674241 169.449955 
z
" clip-path="url(#pb6a8d75c97)" style="fill: #828282"/>
   </g>
   <g id="patch_116">
    <path d="M 123.20906 145.35025 
C 122.529188 145.283288 121.853014 145.182987 121.182979 145.049709 
C 120.512944 144.916431 119.849857 144.750336 119.196112 144.552024 
L 119.196112 144.552024 
C 119.849857 144.750336 120.512944 144.916431 121.182979 145.049709 
C 121.853014 145.182987 122.529188 145.283288 123.20906 145.35025 
z
" clip-path="url(#pb6a8d75c97)" style="fill: #828282"/>
   </g>
   <g id="patch_117">
    <path d="M 115.999978 155.088266 
C 115.001366 154.78534 114.018229 154.433568 113.054118 154.03422 
C 112.090007 153.634872 111.146083 153.18843 110.225757 152.696505 
L 110.225757 152.696505 
C 111.146083 153.18843 112.090007 153.634872 113.054118 154.03422 
C 114.018229 154.433568 115.001366 154.78534 115.999978 155.088266 
z
" clip-path="url(#pb6a8d75c97)" style="fill: #828282"/>
   </g>
   <g id="patch_118">
    <path d="M 110.587957 152.018877 
C 109.689811 151.538808 108.815777 151.014932 107.96901 150.449141 
C 107.122244 149.883349 106.303767 149.276325 105.516535 148.630261 
L 105.516535 148.630261 
C 106.303767 149.276325 107.122244 149.883349 107.96901 150.449141 
C 108.815777 151.014932 109.689811 151.538808 110.587957 152.018877 
z
" clip-path="url(#pb6a8d75c97)" style="fill: #828282"/>
   </g>
   <g id="patch_119">
    <path d="M 89.398426 168.270234 
C 87.968348 167.0966 86.596755 165.853461 85.2886 164.545306 
C 83.980446 163.237151 82.737306 161.865558 81.563672 160.435481 
L 81.563672 160.435481 
C 82.737306 161.865558 83.980446 163.237151 85.2886 164.545306 
C 86.596755 165.853461 87.968348 167.0966 89.398426 168.270234 
z
" clip-path="url(#pb6a8d75c97)" style="fill: #828282"/>
   </g>
   <g id="patch_120">
    <path d="M 79.938913 161.768885 
C 78.721635 160.285627 77.577914 158.743498 76.511882 157.148068 
C 75.44585 155.552638 74.458791 153.905831 73.554272 152.213594 
L 73.554272 152.213594 
C 74.458791 153.905831 75.44585 155.552638 76.511882 157.148068 
C 77.577914 158.743498 78.721635 160.285627 79.938913 161.768885 
z
" clip-path="url(#pb6a8d75c97)" style="fill: #828282"/>
   </g>
   <g id="patch_121">
    <path d="M 96.475724 139.961823 
C 95.972223 139.019839 95.515274 138.053703 95.106529 137.066903 
C 94.697783 136.080104 94.337733 135.073831 94.027679 134.051719 
L 94.027679 134.051719 
C 94.337733 135.073831 94.697783 136.080104 95.106529 137.066903 
C 95.515274 138.053703 95.972223 139.019839 96.475724 139.961823 
z
" clip-path="url(#pb6a8d75c97)" style="fill: #828282"/>
   </g>
   <g id="patch_122">
    <path d="M 103.173904 131.277242 
C 102.954662 130.5545 102.771037 129.82143 102.623693 129.080678 
C 102.476348 128.339927 102.365461 127.592388 102.291432 126.840761 
L 102.291432 126.840761 
C 102.365461 127.592388 102.476348 128.339927 102.623693 129.080678 
C 102.771037 129.82143 102.954662 130.5545 103.173904 131.277242 
z
" clip-path="url(#pb6a8d75c97)" style="fill: #828282"/>
   </g>
   <g id="patch_123">
    <path d="M 125.254844 124.579063 
C 125.254844 124.579063 125.254844 124.579063 125.254844 124.579063 
C 125.254844 124.579063 125.254844 124.579063 125.254844 124.579063 
L 125.254844 124.579063 
C 125.254844 124.579063 125.254844 124.579063 125.254844 124.579063 
C 125.254844 124.579063 125.254844 124.579063 125.254844 124.579063 
z
" clip-path="url(#pb6a8d75c97)" style="fill: #828282"/>
   </g>
   <g id="patch_124">
    <path d="M 125.254844 124.579063 
C 125.254844 124.579063 125.254844 124.579063 125.254844 124.579063 
C 125.254844 124.579063 125.254844 124.579063 125.254844 124.579063 
L 125.254844 124.579063 
C 125.254844 124.579063 125.254844 124.579063 125.254844 124.579063 
C 125.254844 124.579063 125.254844 124.579063 125.254844 124.579063 
z
" clip-path="url(#pb6a8d75c97)" style="fill: #828282"/>
   </g>
   <g id="patch_125">
    <path d="M 125.254844 124.579063 
C 125.254844 124.579063 125.254844 124.579063 125.254844 124.579063 
C 125.254844 124.579063 125.254844 124.579063 125.254844 124.579063 
L 125.254844 124.579063 
C 125.254844 124.579063 125.254844 124.579063 125.254844 124.579063 
C 125.254844 124.579063 125.254844 124.579063 125.254844 124.579063 
z
" clip-path="url(#pb6a8d75c97)" style="fill: #828282"/>
   </g>
   <g id="patch_126">
    <path d="M 114.627449 118.898602 
C 114.813379 118.550751 115.016276 118.212239 115.235406 117.884288 
C 115.454536 117.556337 115.689635 117.239342 115.939855 116.934448 
L 112.08146 113.767946 
C 111.727596 114.19913 111.395115 114.647429 111.085218 115.111222 
C 110.775322 115.575015 110.488383 116.053743 110.225438 116.545678 
z
" clip-path="url(#pb6a8d75c97)" style="fill: #828282"/>
   </g>
   <g id="patch_127">
    <path d="M 99.462807 103.412085 
C 100.155633 102.567873 100.889491 101.758186 101.661729 100.985948 
C 102.433967 100.21371 103.243654 99.479852 104.087866 98.787025 
L 104.087866 98.787025 
C 103.243654 99.479852 102.433967 100.21371 101.661729 100.985948 
C 100.889491 101.758186 100.155633 102.567873 99.462807 103.412085 
z
" clip-path="url(#pb6a8d75c97)" style="fill: #828282"/>
   </g>
   <g id="patch_128">
    <path d="M 105.029096 99.933918 
C 105.835769 99.271899 106.674458 98.649884 107.542135 98.070121 
C 108.409813 97.490358 109.305432 96.953544 110.225757 96.46162 
L 108.53202 93.29286 
C 107.507976 93.840223 106.511423 94.437534 105.545961 95.082635 
C 104.580499 95.727736 103.647292 96.41985 102.749709 97.156477 
z
" clip-path="url(#pb6a8d75c97)" style="fill: #828282"/>
   </g>
   <g id="patch_129">
    <path d="M 109.52636 95.15314 
C 110.489515 94.638323 111.477365 94.171105 112.486342 93.753173 
C 113.495319 93.33524 114.524208 92.967098 115.569291 92.650076 
L 115.156957 91.290793 
C 114.067383 91.621311 112.994692 92.005126 111.942761 92.440851 
C 110.890829 92.876575 109.860924 93.363684 108.856766 93.900417 
z
" clip-path="url(#pb6a8d75c97)" style="fill: #828282"/>
   </g>
   <g id="patch_130">
    <path d="M 110.414042 75.655497 
C 112.015384 75.169736 113.63961 74.762888 115.280853 74.436425 
C 116.922096 74.109961 118.578379 73.864275 120.243718 73.700253 
L 120.243718 73.700253 
C 118.578379 73.864275 116.922096 74.109961 115.280853 74.436425 
C 113.63961 74.762888 112.015384 75.169736 110.414042 75.655497 
z
" clip-path="url(#pb6a8d75c97)" style="fill: #828282"/>
   </g>
   <g id="patch_131">
    <path d="M 125.254844 124.579063 
C 125.254844 124.579063 125.254844 124.579063 125.254844 124.579063 
C 125.254844 124.579063 125.254844 124.579063 125.254844 124.579063 
L 132.53584 50.653866 
C 130.116158 50.415548 127.686234 50.296174 125.254844 50.296174 
C 122.823454 50.296174 120.393529 50.415548 117.973847 50.653866 
L 125.254844 124.579063 
z
" clip-path="url(#pb6a8d75c97)" style="fill: none; stroke: #292929; stroke-width: 0.5; stroke-linejoin: miter"/>
   </g>
   <g id="patch_132">
    <path d="M 125.254844 124.579063 
C 125.254844 124.579063 125.254844 124.579063 125.254844 124.579063 
C 125.254844 124.579063 125.254844 124.579063 125.254844 124.579063 
L 146.242906 55.390693 
C 143.978268 54.703722 141.681266 54.128353 139.360197 53.666664 
C 137.039128 53.204975 134.696791 52.857522 132.341645 52.62556 
L 125.254844 124.579063 
z
" clip-path="url(#pb6a8d75c97)" style="fill: none; stroke: #292929; stroke-width: 0.5; stroke-linejoin: miter"/>
   </g>
   <g id="patch_133">
    <path d="M 125.254844 124.579063 
C 125.254844 124.579063 125.254844 124.579063 125.254844 124.579063 
C 125.254844 124.579063 125.254844 124.579063 125.254844 124.579063 
L 166.348308 47.698598 
C 163.831896 46.353547 161.250962 45.132857 158.614829 44.040934 
C 155.978695 42.949012 153.290541 41.987175 150.560074 41.158897 
L 125.254844 124.579063 
z
" clip-path="url(#pb6a8d75c97)" style="fill: none; stroke: #292929; stroke-width: 0.5; stroke-linejoin: miter"/>
   </g>
   <g id="patch_134">
    <path d="M 125.254844 124.579063 
C 125.254844 124.579063 125.254844 124.579063 125.254844 124.579063 
C 125.254844 124.579063 125.254844 124.579063 125.254844 124.579063 
L 169.611175 70.530716 
C 167.842092 69.078867 166.002794 67.71475 164.099923 66.443293 
C 162.197053 65.171835 160.232904 63.99457 158.214572 62.915749 
L 125.254844 124.579063 
z
" clip-path="url(#pb6a8d75c97)" style="fill: none; stroke: #292929; stroke-width: 0.5; stroke-linejoin: miter"/>
   </g>
   <g id="patch_135">
    <path d="M 125.254844 124.579063 
C 125.254844 124.579063 125.254844 124.579063 125.254844 124.579063 
C 125.254844 124.579063 125.254844 124.579063 125.254844 124.579063 
L 184.656922 75.829037 
C 183.061261 73.884718 181.371101 72.019914 179.592547 70.241359 
C 177.813993 68.462805 175.949188 66.772645 174.00487 65.176984 
L 125.254844 124.579063 
z
" clip-path="url(#pb6a8d75c97)" style="fill: none; stroke: #292929; stroke-width: 0.5; stroke-linejoin: miter"/>
   </g>
   <g id="patch_136">
    <path d="M 125.254844 124.579063 
C 125.254844 124.579063 125.254844 124.579063 125.254844 124.579063 
C 125.254844 124.579063 125.254844 124.579063 125.254844 124.579063 
L 223.042274 72.310592 
C 221.331448 69.109864 219.464508 65.995061 217.448194 62.977435 
C 215.431881 59.959809 213.268626 57.042997 210.966243 54.237535 
L 125.254844 124.579063 
z
" clip-path="url(#pb6a8d75c97)" style="fill: none; stroke: #292929; stroke-width: 0.5; stroke-linejoin: miter"/>
   </g>
   <g id="patch_137">
    <path d="M 125.254844 124.579063 
C 125.254844 124.579063 125.254844 124.579063 125.254844 124.579063 
C 125.254844 124.579063 125.254844 124.579063 125.254844 124.579063 
L 197.268382 102.733994 
C 196.55336 100.376884 195.723042 98.056299 194.780426 95.780623 
C 193.83781 93.504947 192.784033 91.276923 191.622901 89.104597 
L 125.254844 124.579063 
z
" clip-path="url(#pb6a8d75c97)" style="fill: none; stroke: #292929; stroke-width: 0.5; stroke-linejoin: miter"/>
   </g>
   <g id="patch_138">
    <path d="M 125.254844 124.579063 
C 125.254844 124.579063 125.254844 124.579063 125.254844 124.579063 
C 125.254844 124.579063 125.254844 124.579063 125.254844 124.579063 
L 203.281307 116.894127 
C 203.029768 114.340204 202.652989 111.800171 202.152333 109.283201 
C 201.651676 106.766231 201.027745 104.27536 200.282794 101.819583 
L 125.254844 124.579063 
z
" clip-path="url(#pb6a8d75c97)" style="fill: none; stroke: #292929; stroke-width: 0.5; stroke-linejoin: miter"/>
   </g>
   <g id="patch_139">
    <path d="M 125.254844 124.579063 
C 125.254844 124.579063 125.254844 124.579063 125.254844 124.579063 
C 125.254844 124.579063 125.254844 124.579063 125.254844 124.579063 
L 206.884405 132.618873 
C 207.14756 129.947015 207.279375 127.263848 207.279375 124.579063 
C 207.279375 121.894277 207.14756 119.21111 206.884405 116.539252 
L 125.254844 124.579063 
z
" clip-path="url(#pb6a8d75c97)" style="fill: none; stroke: #292929; stroke-width: 0.5; stroke-linejoin: miter"/>
   </g>
   <g id="patch_140">
    <path d="M 125.254844 124.579063 
C 125.254844 124.579063 125.254844 124.579063 125.254844 124.579063 
C 125.254844 124.579063 125.254844 124.579063 125.254844 124.579063 
L 203.180686 148.217608 
C 203.954411 145.666979 204.60244 143.079899 205.122434 140.465714 
C 205.642428 137.851528 206.033759 135.213388 206.295014 132.560823 
L 125.254844 124.579063 
z
" clip-path="url(#pb6a8d75c97)" style="fill: none; stroke: #292929; stroke-width: 0.5; stroke-linejoin: miter"/>
   </g>
   <g id="patch_141">
    <path d="M 125.254844 124.579063 
C 125.254844 124.579063 125.254844 124.579063 125.254844 124.579063 
C 125.254844 124.579063 125.254844 124.579063 125.254844 124.579063 
L 187.525693 157.863525 
C 188.615143 155.825307 189.603865 153.734828 190.488289 151.59964 
C 191.372713 149.464452 192.151772 147.287128 192.822652 145.075533 
L 125.254844 124.579063 
z
" clip-path="url(#pb6a8d75c97)" style="fill: none; stroke: #292929; stroke-width: 0.5; stroke-linejoin: miter"/>
   </g>
   <g id="patch_142">
    <path d="M 125.254844 124.579063 
C 125.254844 124.579063 125.254844 124.579063 125.254844 124.579063 
C 125.254844 124.579063 125.254844 124.579063 125.254844 124.579063 
L 188.432174 176.427357 
C 190.129246 174.359469 191.723768 172.209506 193.209979 169.985232 
C 194.696191 167.760959 196.072301 165.465058 197.33334 163.105821 
L 125.254844 124.579063 
z
" clip-path="url(#pb6a8d75c97)" style="fill: none; stroke: #292929; stroke-width: 0.5; stroke-linejoin: miter"/>
   </g>
   <g id="patch_143">
    <path d="M 125.254844 124.579063 
C 125.254844 124.579063 125.254844 124.579063 125.254844 124.579063 
C 125.254844 124.579063 125.254844 124.579063 125.254844 124.579063 
L 192.914357 207.022418 
C 195.612851 204.807821 198.200988 202.46207 200.66942 199.993638 
C 203.137851 197.525207 205.483602 194.93707 207.698199 192.238575 
L 125.254844 124.579063 
z
" clip-path="url(#pb6a8d75c97)" style="fill: none; stroke: #292929; stroke-width: 0.5; stroke-linejoin: miter"/>
   </g>
   <g id="patch_144">
    <path d="M 125.254844 124.579063 
C 125.254844 124.579063 125.254844 124.579063 125.254844 124.579063 
C 125.254844 124.579063 125.254844 124.579063 125.254844 124.579063 
L 156.711811 183.430908 
C 158.638119 182.401275 160.512715 181.277685 162.328826 180.064198 
C 164.144938 178.850712 165.900376 177.54879 167.588799 176.163137 
L 125.254844 124.579063 
z
" clip-path="url(#pb6a8d75c97)" style="fill: none; stroke: #292929; stroke-width: 0.5; stroke-linejoin: miter"/>
   </g>
   <g id="patch_145">
    <path d="M 125.254844 124.579063 
C 125.254844 124.579063 125.254844 124.579063 125.254844 124.579063 
C 125.254844 124.579063 125.254844 124.579063 125.254844 124.579063 
L 148.806959 202.219983 
C 151.348263 201.449087 153.850185 200.553885 156.30369 199.537609 
C 158.757196 198.521334 161.159326 197.385211 163.501404 196.133344 
L 125.254844 124.579063 
z
" clip-path="url(#pb6a8d75c97)" style="fill: none; stroke: #292929; stroke-width: 0.5; stroke-linejoin: miter"/>
   </g>
   <g id="patch_146">
    <path d="M 125.254844 124.579063 
C 125.254844 124.579063 125.254844 124.579063 125.254844 124.579063 
C 125.254844 124.579063 125.254844 124.579063 125.254844 124.579063 
L 131.429962 187.276095 
C 133.48213 187.073974 135.523137 186.77122 137.545611 186.368924 
C 139.568086 185.966629 141.56959 185.465279 143.542894 184.866683 
L 125.254844 124.579063 
z
" clip-path="url(#pb6a8d75c97)" style="fill: none; stroke: #292929; stroke-width: 0.5; stroke-linejoin: miter"/>
   </g>
   <g id="patch_147">
    <path d="M 125.254844 124.579063 
C 125.254844 124.579063 125.254844 124.579063 125.254844 124.579063 
C 125.254844 124.579063 125.254844 124.579063 125.254844 124.579063 
L 120.835447 169.449955 
C 122.304138 169.594608 123.779046 169.667066 125.254844 169.667066 
C 126.730641 169.667066 128.20555 169.594608 129.674241 169.449955 
L 125.254844 124.579063 
z
" clip-path="url(#pb6a8d75c97)" style="fill: none; stroke: #292929; stroke-width: 0.5; stroke-linejoin: miter"/>
   </g>
   <g id="patch_148">
    <path d="M 125.254844 124.579063 
C 125.254844 124.579063 125.254844 124.579063 125.254844 124.579063 
C 125.254844 124.579063 125.254844 124.579063 125.254844 124.579063 
L 119.196112 144.552024 
C 119.849857 144.750336 120.512944 144.916431 121.182979 145.049709 
C 121.853014 145.182987 122.529188 145.283288 123.20906 145.35025 
L 125.254844 124.579063 
z
" clip-path="url(#pb6a8d75c97)" style="fill: none; stroke: #292929; stroke-width: 0.5; stroke-linejoin: miter"/>
   </g>
   <g id="patch_149">
    <path d="M 125.254844 124.579063 
C 125.254844 124.579063 125.254844 124.579063 125.254844 124.579063 
C 125.254844 124.579063 125.254844 124.579063 125.254844 124.579063 
L 110.225757 152.696505 
C 111.146083 153.18843 112.090007 153.634872 113.054118 154.03422 
C 114.018229 154.433568 115.001366 154.78534 115.999978 155.088266 
L 125.254844 124.579063 
z
" clip-path="url(#pb6a8d75c97)" style="fill: none; stroke: #292929; stroke-width: 0.5; stroke-linejoin: miter"/>
   </g>
   <g id="patch_150">
    <path d="M 125.254844 124.579063 
C 125.254844 124.579063 125.254844 124.579063 125.254844 124.579063 
C 125.254844 124.579063 125.254844 124.579063 125.254844 124.579063 
L 105.516535 148.630261 
C 106.303767 149.276325 107.122244 149.883349 107.96901 150.449141 
C 108.815777 151.014932 109.689811 151.538808 110.587957 152.018877 
L 125.254844 124.579063 
z
" clip-path="url(#pb6a8d75c97)" style="fill: none; stroke: #292929; stroke-width: 0.5; stroke-linejoin: miter"/>
   </g>
   <g id="patch_151">
    <path d="M 125.254844 124.579063 
C 125.254844 124.579063 125.254844 124.579063 125.254844 124.579063 
C 125.254844 124.579063 125.254844 124.579063 125.254844 124.579063 
L 81.563672 160.435481 
C 82.737306 161.865558 83.980446 163.237151 85.2886 164.545306 
C 86.596755 165.853461 87.968348 167.0966 89.398426 168.270234 
L 125.254844 124.579063 
z
" clip-path="url(#pb6a8d75c97)" style="fill: none; stroke: #292929; stroke-width: 0.5; stroke-linejoin: miter"/>
   </g>
   <g id="patch_152">
    <path d="M 125.254844 124.579063 
C 125.254844 124.579063 125.254844 124.579063 125.254844 124.579063 
C 125.254844 124.579063 125.254844 124.579063 125.254844 124.579063 
L 73.554272 152.213594 
C 74.458791 153.905831 75.44585 155.552638 76.511882 157.148068 
C 77.577914 158.743498 78.721635 160.285627 79.938913 161.768885 
L 125.254844 124.579063 
z
" clip-path="url(#pb6a8d75c97)" style="fill: none; stroke: #292929; stroke-width: 0.5; stroke-linejoin: miter"/>
   </g>
   <g id="patch_153">
    <path d="M 125.254844 124.579063 
C 125.254844 124.579063 125.254844 124.579063 125.254844 124.579063 
C 125.254844 124.579063 125.254844 124.579063 125.254844 124.579063 
L 94.027679 134.051719 
C 94.337733 135.073831 94.697783 136.080104 95.106529 137.066903 
C 95.515274 138.053703 95.972223 139.019839 96.475724 139.961823 
L 125.254844 124.579063 
z
" clip-path="url(#pb6a8d75c97)" style="fill: none; stroke: #292929; stroke-width: 0.5; stroke-linejoin: miter"/>
   </g>
   <g id="patch_154">
    <path d="M 125.254844 124.579063 
C 125.254844 124.579063 125.254844 124.579063 125.254844 124.579063 
C 125.254844 124.579063 125.254844 124.579063 125.254844 124.579063 
L 102.291432 126.840761 
C 102.365461 127.592388 102.476348 128.339927 102.623693 129.080678 
C 102.771037 129.82143 102.954662 130.5545 103.173904 131.277242 
L 125.254844 124.579063 
z
" clip-path="url(#pb6a8d75c97)" style="fill: none; stroke: #292929; stroke-width: 0.5; stroke-linejoin: miter"/>
   </g>
   <g id="patch_155">
    <path d="M 125.254844 124.579063 
C 125.254844 124.579063 125.254844 124.579063 125.254844 124.579063 
C 125.254844 124.579063 125.254844 124.579063 125.254844 124.579063 
L 125.254844 124.579063 
C 125.254844 124.579063 125.254844 124.579063 125.254844 124.579063 
C 125.254844 124.579063 125.254844 124.579063 125.254844 124.579063 
L 125.254844 124.579063 
z
" clip-path="url(#pb6a8d75c97)" style="fill: none; stroke: #292929; stroke-width: 0.5; stroke-linejoin: miter"/>
   </g>
   <g id="patch_156">
    <path d="M 125.254844 124.579063 
C 125.254844 124.579063 125.254844 124.579063 125.254844 124.579063 
C 125.254844 124.579063 125.254844 124.579063 125.254844 124.579063 
L 125.254844 124.579063 
C 125.254844 124.579063 125.254844 124.579063 125.254844 124.579063 
C 125.254844 124.579063 125.254844 124.579063 125.254844 124.579063 
L 125.254844 124.579063 
z
" clip-path="url(#pb6a8d75c97)" style="fill: none; stroke: #292929; stroke-width: 0.5; stroke-linejoin: miter"/>
   </g>
   <g id="patch_157">
    <path d="M 125.254844 124.579063 
C 125.254844 124.579063 125.254844 124.579063 125.254844 124.579063 
C 125.254844 124.579063 125.254844 124.579063 125.254844 124.579063 
L 125.254844 124.579063 
C 125.254844 124.579063 125.254844 124.579063 125.254844 124.579063 
C 125.254844 124.579063 125.254844 124.579063 125.254844 124.579063 
L 125.254844 124.579063 
z
" clip-path="url(#pb6a8d75c97)" style="fill: none; stroke: #292929; stroke-width: 0.5; stroke-linejoin: miter"/>
   </g>
   <g id="patch_158">
    <path d="M 125.254844 124.579063 
C 125.254844 124.579063 125.254844 124.579063 125.254844 124.579063 
C 125.254844 124.579063 125.254844 124.579063 125.254844 124.579063 
L 112.08146 113.767946 
C 111.727596 114.19913 111.395115 114.647429 111.085218 115.111222 
C 110.775322 115.575015 110.488383 116.053743 110.225438 116.545678 
L 125.254844 124.579063 
z
" clip-path="url(#pb6a8d75c97)" style="fill: none; stroke: #292929; stroke-width: 0.5; stroke-linejoin: miter"/>
   </g>
   <g id="patch_159">
    <path d="M 125.254844 124.579063 
C 125.254844 124.579063 125.254844 124.579063 125.254844 124.579063 
C 125.254844 124.579063 125.254844 124.579063 125.254844 124.579063 
L 104.087866 98.787025 
C 103.243654 99.479852 102.433967 100.21371 101.661729 100.985948 
C 100.889491 101.758186 100.155633 102.567873 99.462807 103.412085 
L 125.254844 124.579063 
z
" clip-path="url(#pb6a8d75c97)" style="fill: none; stroke: #292929; stroke-width: 0.5; stroke-linejoin: miter"/>
   </g>
   <g id="patch_160">
    <path d="M 125.254844 124.579063 
C 125.254844 124.579063 125.254844 124.579063 125.254844 124.579063 
C 125.254844 124.579063 125.254844 124.579063 125.254844 124.579063 
L 108.53202 93.29286 
C 107.507976 93.840223 106.511423 94.437534 105.545961 95.082635 
C 104.580499 95.727736 103.647292 96.41985 102.749709 97.156477 
L 125.254844 124.579063 
z
" clip-path="url(#pb6a8d75c97)" style="fill: none; stroke: #292929; stroke-width: 0.5; stroke-linejoin: miter"/>
   </g>
   <g id="patch_161">
    <path d="M 125.254844 124.579063 
C 125.254844 124.579063 125.254844 124.579063 125.254844 124.579063 
C 125.254844 124.579063 125.254844 124.579063 125.254844 124.579063 
L 115.156957 91.290793 
C 114.067383 91.621311 112.994692 92.005126 111.942761 92.440851 
C 110.890829 92.876575 109.860924 93.363684 108.856766 93.900417 
L 125.254844 124.579063 
z
" clip-path="url(#pb6a8d75c97)" style="fill: none; stroke: #292929; stroke-width: 0.5; stroke-linejoin: miter"/>
   </g>
   <g id="patch_162">
    <path d="M 125.254844 124.579063 
C 125.254844 124.579063 125.254844 124.579063 125.254844 124.579063 
C 125.254844 124.579063 125.254844 124.579063 125.254844 124.579063 
L 120.243718 73.700253 
C 118.578379 73.864275 116.922096 74.109961 115.280853 74.436425 
C 113.63961 74.762888 112.015384 75.169736 110.414042 75.655497 
L 125.254844 124.579063 
z
" clip-path="url(#pb6a8d75c97)" style="fill: none; stroke: #292929; stroke-width: 0.5; stroke-linejoin: miter"/>
   </g>
   <g id="PathCollection_1">
    <defs>
     <path id="m8320a6a319" d="M 0.193618 7.414054 
L 0.193618 7.414054 
C 0.054922 7.414054 -0.078235 7.358899 -0.176308 7.260826 
C -0.274381 7.162753 -0.329536 7.029596 -0.329536 6.890901 
L -0.329536 5.365008 
L -1.528416 6.56393 
L -1.528416 6.56393 
C -1.577018 6.612704 -1.634775 6.651408 -1.698366 6.677814 
C -1.761958 6.704221 -1.830141 6.717815 -1.898997 6.717815 
C -1.967853 6.717815 -2.036037 6.704221 -2.099628 6.677814 
C -2.163219 6.651408 -2.220976 6.612704 -2.269578 6.56393 
L -2.269578 6.56393 
C -2.318353 6.515327 -2.357056 6.457571 -2.383463 6.393979 
C -2.409869 6.330388 -2.423463 6.262205 -2.423463 6.193348 
C -2.423463 6.124492 -2.409869 6.056309 -2.383463 5.992718 
C -2.357056 5.929126 -2.318353 5.87137 -2.269578 5.822767 
L -0.329536 3.884106 
L -0.329536 0.820937 
L -2.98067 2.351538 
L -3.691824 5.001416 
L -3.691824 5.001416 
C -3.727584 5.135411 -3.815199 5.249836 -3.93523 5.319305 
C -4.055261 5.388775 -4.198123 5.407741 -4.332122 5.371997 
L -4.332122 5.371997 
C -4.466126 5.336237 -4.580558 5.248616 -4.650029 5.128576 
C -4.719499 5.008535 -4.73846 4.865662 -4.702703 4.731657 
L -4.262647 3.092721 
L -5.585535 3.855668 
L -5.585535 3.855668 
C -5.645013 3.890144 -5.710708 3.912561 -5.778854 3.921634 
C -5.847001 3.930706 -5.916272 3.926258 -5.982698 3.908543 
C -6.049125 3.890828 -6.111412 3.860192 -6.165991 3.818391 
C -6.220571 3.77659 -6.266379 3.724437 -6.300791 3.664922 
L -6.300791 3.664922 
C -6.335212 3.605364 -6.35755 3.539597 -6.366524 3.471396 
C -6.375498 3.403194 -6.370933 3.333888 -6.35309 3.267452 
C -6.335248 3.201017 -6.304476 3.138749 -6.26254 3.08422 
C -6.220605 3.029692 -6.168323 2.983966 -6.108695 2.949666 
L -4.785807 2.186762 
L -6.424743 1.746706 
L -6.424743 1.746706 
C -6.558747 1.710946 -6.673179 1.623325 -6.74265 1.503284 
C -6.81212 1.383244 -6.831081 1.240371 -6.795324 1.106366 
L -6.795324 1.106366 
C -6.777471 1.039969 -6.746703 0.977739 -6.704784 0.923241 
C -6.662864 0.868744 -6.61061 0.823041 -6.551015 0.788752 
C -6.491421 0.754464 -6.425647 0.732257 -6.357465 0.723406 
C -6.289282 0.714554 -6.220019 0.71923 -6.153645 0.737166 
L -3.505232 1.44698 
L -0.852424 -0.08496 
L -3.503767 -1.615666 
L -6.153645 -0.905851 
L -6.153645 -0.905851 
C -6.22011 -0.887939 -6.289462 -0.883321 -6.357716 -0.892262 
C -6.42597 -0.901202 -6.491793 -0.923527 -6.551403 -0.957953 
C -6.611013 -0.992379 -6.663247 -1.038234 -6.705103 -1.092883 
C -6.746958 -1.147533 -6.777619 -1.209911 -6.795324 -1.276432 
L -6.795324 -1.276432 
C -6.831068 -1.410431 -6.812101 -1.553293 -6.742632 -1.673324 
C -6.673162 -1.793355 -6.558738 -1.88097 -6.424743 -1.91673 
L -4.785807 -2.355447 
L -6.108695 -3.119732 
L -6.108695 -3.119732 
C -6.228699 -3.188976 -6.316415 -3.303132 -6.352417 -3.436921 
C -6.388419 -3.57071 -6.369839 -3.713469 -6.300791 -3.833586 
L -6.300791 -3.833586 
C -6.266491 -3.893214 -6.220765 -3.945496 -6.166237 -3.987431 
C -6.111708 -4.029367 -6.04944 -4.060139 -5.983005 -4.077981 
C -5.91657 -4.095823 -5.847263 -4.100389 -5.779062 -4.091415 
C -5.71086 -4.082441 -5.645094 -4.060102 -5.585535 -4.025682 
L -4.262647 -3.261396 
L -4.702703 -4.900332 
L -4.702703 -4.900332 
C -4.73846 -5.034337 -4.719499 -5.17721 -4.650029 -5.29725 
C -4.580558 -5.417291 -4.466126 -5.504912 -4.332122 -5.540672 
L -4.332122 -5.540672 
C -4.19831 -5.576464 -4.055613 -5.557686 -3.935617 -5.488496 
C -3.81562 -5.419305 -3.727882 -5.305212 -3.691824 -5.171472 
L -2.982009 -2.521594 
L -0.329411 -0.990302 
L -0.329411 -4.051588 
L -2.269453 -5.991589 
L -2.269453 -5.991589 
C -2.318227 -6.040191 -2.356931 -6.097947 -2.383337 -6.161539 
C -2.409744 -6.22513 -2.423338 -6.293314 -2.423338 -6.36217 
C -2.423338 -6.431026 -2.409744 -6.499209 -2.383337 -6.5628 
C -2.356931 -6.626392 -2.318227 -6.684149 -2.269453 -6.732751 
L -2.269453 -6.732751 
C -2.22085 -6.781526 -2.163094 -6.820229 -2.099502 -6.846635 
C -2.035911 -6.873042 -1.967728 -6.886636 -1.898871 -6.886636 
C -1.830015 -6.886636 -1.761832 -6.873042 -1.698241 -6.846635 
C -1.634649 -6.820229 -1.576893 -6.781526 -1.52829 -6.732751 
L -0.329411 -5.533829 
L -0.329411 -7.059722 
L -0.329411 -7.059722 
C -0.329411 -7.198418 -0.274255 -7.331575 -0.176182 -7.429647 
C -0.07811 -7.52772 0.055047 -7.582875 0.193743 -7.582875 
L 0.193743 -7.582875 
C 0.332439 -7.582875 0.465596 -7.52772 0.563669 -7.429647 
C 0.661741 -7.331575 0.716897 -7.198418 0.716897 -7.059722 
L 0.716897 -5.533829 
L 1.915777 -6.732751 
L 1.915777 -6.732751 
C 1.964379 -6.781526 2.022136 -6.820229 2.085727 -6.846635 
C 2.149318 -6.873042 2.217502 -6.886636 2.286358 -6.886636 
C 2.355214 -6.886636 2.423397 -6.873042 2.486989 -6.846635 
C 2.55058 -6.820229 2.608337 -6.781526 2.656939 -6.732751 
L 2.656939 -6.732751 
C 2.705714 -6.684149 2.744417 -6.626392 2.770823 -6.5628 
C 2.79723 -6.499209 2.810824 -6.431026 2.810824 -6.36217 
C 2.810824 -6.293314 2.79723 -6.22513 2.770823 -6.161539 
C 2.744417 -6.097947 2.705714 -6.040191 2.656939 -5.991589 
L 0.716897 -4.051588 
L 0.716897 -0.991139 
L 3.369495 -2.522954 
L 4.07931 -5.171367 
L 4.07931 -5.171367 
C 4.115368 -5.305107 4.203106 -5.4192 4.323103 -5.488391 
C 4.4431 -5.557582 4.585797 -5.576359 4.719608 -5.540567 
L 4.719608 -5.540567 
C 4.853612 -5.504807 4.968045 -5.417186 5.037515 -5.297146 
C 5.106986 -5.177105 5.125946 -5.034232 5.090189 -4.900227 
L 4.650133 -3.262673 
L 5.973022 -4.025577 
L 5.973022 -4.025577 
C 6.03258 -4.059998 6.098346 -4.082336 6.166548 -4.09131 
C 6.234749 -4.100284 6.304056 -4.095719 6.370491 -4.077876 
C 6.436926 -4.060034 6.499194 -4.029262 6.553723 -3.987327 
C 6.608252 -3.945391 6.653978 -3.893109 6.688277 -3.833481 
L 6.688277 -3.833481 
C 6.757325 -3.713365 6.775905 -3.570605 6.739903 -3.436816 
C 6.703901 -3.303027 6.616186 -3.188871 6.496181 -3.119628 
L 5.173293 -2.355342 
L 6.812229 -1.916625 
L 6.812229 -1.916625 
C 6.946224 -1.880865 7.060649 -1.79325 7.130118 -1.67322 
C 7.199588 -1.553189 7.218554 -1.410326 7.18281 -1.276327 
L 7.18281 -1.276327 
C 7.165106 -1.209806 7.134445 -1.147429 7.092589 -1.092779 
C 7.050733 -1.038129 6.998499 -0.992274 6.938889 -0.957848 
C 6.879279 -0.923422 6.813456 -0.901098 6.745202 -0.892157 
C 6.676949 -0.883217 6.607597 -0.887835 6.541131 -0.905746 
L 3.891253 -1.615561 
L 1.239492 -0.084604 
L 3.892718 1.447085 
L 6.541131 0.73727 
L 6.541131 0.73727 
C 6.674948 0.701466 6.817656 0.720237 6.937662 0.789429 
C 7.057669 0.858621 7.145413 0.972721 7.181471 1.10647 
L 7.181471 1.10647 
C 7.217274 1.240293 7.198497 1.383006 7.129297 1.503014 
C 7.060096 1.623021 6.945986 1.710762 6.812229 1.74681 
L 5.173293 2.186866 
L 6.496181 2.949771 
L 6.496181 2.949771 
C 6.555697 2.984183 6.607849 3.029991 6.649651 3.08457 
C 6.691452 3.13915 6.722088 3.201437 6.739803 3.267863 
C 6.757517 3.33429 6.761966 3.403561 6.752893 3.471707 
C 6.743821 3.539854 6.721404 3.605549 6.686927 3.665026 
L 6.686927 3.665026 
C 6.617458 3.784813 6.503196 3.87225 6.369416 3.907994 
C 6.235636 3.943739 6.092989 3.924946 5.973032 3.855772 
L 4.650144 3.091487 
L 5.08886 4.731783 
L 5.08886 4.731783 
C 5.124664 4.865606 5.105887 5.008319 5.036686 5.128326 
C 4.967486 5.248334 4.853376 5.336074 4.719619 5.372123 
L 4.719619 5.372123 
C 4.585619 5.407867 4.442757 5.3889 4.322726 5.319431 
C 4.202695 5.249961 4.115081 5.135537 4.07932 5.001542 
L 3.368166 2.351664 
L 0.717033 0.821063 
L 0.717033 3.884232 
L 2.657075 5.822893 
L 2.657075 5.822893 
C 2.70585 5.871495 2.744553 5.929252 2.770959 5.992843 
C 2.797366 6.056435 2.81096 6.124618 2.81096 6.193474 
C 2.81096 6.26233 2.797366 6.330514 2.770959 6.394105 
C 2.744553 6.457696 2.70585 6.515453 2.657075 6.564055 
L 2.657075 6.564055 
C 2.608473 6.61283 2.550716 6.651533 2.487125 6.67794 
C 2.423533 6.704346 2.35535 6.71794 2.286494 6.71794 
C 2.217638 6.71794 2.149454 6.704346 2.085863 6.67794 
C 2.022272 6.651533 1.964515 6.61283 1.915913 6.564055 
L 0.717033 5.365133 
L 0.717033 6.891026 
L 0.717033 6.891026 
C 0.717033 7.029722 0.661877 7.162879 0.563805 7.260952 
C 0.465732 7.359024 0.332575 7.41418 0.193879 7.41418 
L 0.193618 7.414054 
z
"/>
    </defs>
    <g clip-path="url(#pb6a8d75c97)">
     <use xlink:href="#m8320a6a319" x="178.315774" y="120.98035" style="fill: #9e2096; fill-opacity: 0.7"/>
    </g>
   </g>
   <g id="patch_163">
    <path d="M 125.254844 13.699063 
C 110.694216 13.699063 96.275171 16.567189 82.822905 22.1393 
C 69.370638 27.711411 57.146763 35.879144 46.850844 46.175063 
C 36.554925 56.470982 28.387192 68.694857 22.815081 82.147124 
C 17.24297 95.59939 14.374844 110.018434 14.374844 124.579063 
C 14.374844 139.139691 17.24297 153.558735 22.815081 167.011001 
C 28.387192 180.463268 36.554925 192.687143 46.850844 202.983062 
C 57.146763 213.278981 69.370638 221.446714 82.822905 227.018825 
C 96.275171 232.590936 110.694216 235.459063 125.254844 235.459063 
C 139.815472 235.459063 154.234516 232.590936 167.686783 227.018825 
C 181.139049 221.446714 193.362925 213.278981 203.658844 202.983062 
C 213.954763 192.687143 222.122495 180.463268 227.694606 167.011001 
C 233.266717 153.558735 236.134844 139.139691 236.134844 124.579063 
C 236.134844 110.018434 233.266717 95.59939 227.694606 82.147124 
C 222.122495 68.694857 213.954763 56.470982 203.658844 46.175063 
C 193.362925 35.879144 181.139049 27.711411 167.686783 22.1393 
C 154.234516 16.567189 139.815472 13.699063 125.254844 13.699063 
" style="fill: none; stroke: #000000; stroke-width: 0.8; stroke-linejoin: miter; stroke-linecap: square"/>
   </g>
  </g>
 </g>
 <defs>
  <clipPath id="pb6a8d75c97">
   <path d="M 236.134844 124.579063 
C 236.134844 110.018434 233.266717 95.59939 227.694606 82.147124 
C 222.122495 68.694857 213.954763 56.470982 203.658844 46.175063 
C 193.362925 35.879144 181.139049 27.711411 167.686783 22.1393 
C 154.234516 16.567189 139.815472 13.699063 125.254844 13.699063 
C 110.694216 13.699063 96.275171 16.567189 82.822905 22.1393 
C 69.370638 27.711411 57.146763 35.879144 46.850844 46.175063 
C 36.554925 56.470982 28.387192 68.694857 22.815081 82.147124 
C 17.24297 95.59939 14.374844 110.018434 14.374844 124.579062 
C 14.374844 139.139691 17.24297 153.558735 22.815081 167.011001 
C 28.387192 180.463268 36.554925 192.687143 46.850844 202.983062 
C 57.146763 213.278981 69.370638 221.446714 82.822905 227.018825 
C 96.275171 232.590936 110.694216 235.459063 125.254844 235.459063 
C 139.815472 235.459063 154.234516 232.590936 167.686783 227.018825 
C 181.139049 221.446714 193.362925 213.278981 203.658844 202.983062 
C 213.954763 192.687143 222.122495 180.463268 227.694606 167.011001 
C 233.266717 153.558735 236.134844 139.139691 236.134844 124.579063 
M 125.254844 124.579063 
C 125.254844 124.579063 125.254844 124.579063 125.254844 124.579063 
C 125.254844 124.579063 125.254844 124.579063 125.254844 124.579063 
C 125.254844 124.579063 125.254844 124.579063 125.254844 124.579063 
C 125.254844 124.579063 125.254844 124.579063 125.254844 124.579063 
C 125.254844 124.579063 125.254844 124.579063 125.254844 124.579063 
C 125.254844 124.579063 125.254844 124.579063 125.254844 124.579063 
C 125.254844 124.579063 125.254844 124.579063 125.254844 124.579063 
C 125.254844 124.579063 125.254844 124.579063 125.254844 124.579063 
C 125.254844 124.579063 125.254844 124.579063 125.254844 124.579063 
C 125.254844 124.579063 125.254844 124.579063 125.254844 124.579063 
C 125.254844 124.579063 125.254844 124.579063 125.254844 124.579063 
C 125.254844 124.579063 125.254844 124.579063 125.254844 124.579063 
C 125.254844 124.579063 125.254844 124.579063 125.254844 124.579063 
C 125.254844 124.579063 125.254844 124.579063 125.254844 124.579063 
C 125.254844 124.579063 125.254844 124.579063 125.254844 124.579063 
C 125.254844 124.579063 125.254844 124.579063 125.254844 124.579063 
z
"/>
  </clipPath>
 </defs>
</svg>
