<?xml version="1.0" encoding="utf-8" standalone="no"?>
<!DOCTYPE svg PUBLIC "-//W3C//DTD SVG 1.1//EN"
  "http://www.w3.org/Graphics/SVG/1.1/DTD/svg11.dtd">
<svg xmlns:xlink="http://www.w3.org/1999/xlink" width="248.410469pt" height="249.158125pt" viewBox="0 0 248.410469 249.158125" xmlns="http://www.w3.org/2000/svg" version="1.1">
 <title>Ski Rose for Claviere</title>
 <metadata>
  <rdf:RDF xmlns:dc="http://purl.org/dc/elements/1.1/" xmlns:cc="http://creativecommons.org/ns#" xmlns:rdf="http://www.w3.org/1999/02/22-rdf-syntax-ns#">
   <cc:Work>
    <dc:type rdf:resource="http://purl.org/dc/dcmitype/StillImage"/>
    <dc:title>Ski Rose for Claviere</dc:title>
    <dc:date>2025-03-01T23:52:47.476025</dc:date>
    <dc:description>A 32-bin stacked histogram of downhill ski run orientations colored by difficulty.</dc:description>
    <dc:format>image/svg+xml</dc:format>
    <dc:source>https://openskimap.org/?obj=2f571f297e2a25edd4929ab0f42342278adf777c</dc:source>
    <dc:creator>
     <cc:Agent>
      <dc:title>https://github.com/dhimmel/openskistats</dc:title>
     </cc:Agent>
    </dc:creator>
    <dc:rights>
     <cc:Agent>
      <dc:title>https://creativecommons.org/licenses/by/4.0/</dc:title>
     </cc:Agent>
    </dc:rights>
   </cc:Work>
  </rdf:RDF>
 </metadata>
 <defs>
  <style type="text/css">*{stroke-linejoin: round; stroke-linecap: butt}</style>
 </defs>
 <g id="figure_1">
  <g id="patch_1">
   <path d="M 0 249.158125 
L 248.410469 249.158125 
L 248.410469 0 
L 0 0 
z
" style="fill: #ffffff"/>
  </g>
  <g id="axes_1">
   <g id="patch_2">
    <path d="M 236.134844 124.579063 
C 236.134844 110.018434 233.266717 95.59939 227.694606 82.147124 
C 222.122495 68.694857 213.954763 56.470982 203.658844 46.175063 
C 193.362925 35.879144 181.139049 27.711411 167.686783 22.1393 
C 154.234516 16.567189 139.815472 13.699063 125.254844 13.699063 
C 110.694216 13.699063 96.275171 16.567189 82.822905 22.1393 
C 69.370638 27.711411 57.146763 35.879144 46.850844 46.175063 
C 36.554925 56.470982 28.387192 68.694857 22.815081 82.147124 
C 17.24297 95.59939 14.374844 110.018434 14.374844 124.579062 
C 14.374844 139.139691 17.24297 153.558735 22.815081 167.011001 
C 28.387192 180.463268 36.554925 192.687143 46.850844 202.983062 
C 57.146763 213.278981 69.370638 221.446714 82.822905 227.018825 
C 96.275171 232.590936 110.694216 235.459063 125.254844 235.459063 
C 139.815472 235.459063 154.234516 232.590936 167.686783 227.018825 
C 181.139049 221.446714 193.362925 213.278981 203.658844 202.983062 
C 213.954763 192.687143 222.122495 180.463268 227.694606 167.011001 
C 233.266717 153.558735 236.134844 139.139691 236.134844 124.579063 
M 125.254844 124.579063 
C 125.254844 124.579063 125.254844 124.579063 125.254844 124.579063 
C 125.254844 124.579063 125.254844 124.579063 125.254844 124.579063 
C 125.254844 124.579063 125.254844 124.579063 125.254844 124.579063 
C 125.254844 124.579063 125.254844 124.579063 125.254844 124.579063 
C 125.254844 124.579063 125.254844 124.579063 125.254844 124.579063 
C 125.254844 124.579063 125.254844 124.579063 125.254844 124.579063 
C 125.254844 124.579063 125.254844 124.579063 125.254844 124.579063 
C 125.254844 124.579063 125.254844 124.579063 125.254844 124.579063 
C 125.254844 124.579063 125.254844 124.579063 125.254844 124.579063 
C 125.254844 124.579063 125.254844 124.579063 125.254844 124.579063 
C 125.254844 124.579063 125.254844 124.579063 125.254844 124.579063 
C 125.254844 124.579063 125.254844 124.579063 125.254844 124.579063 
C 125.254844 124.579063 125.254844 124.579063 125.254844 124.579063 
C 125.254844 124.579063 125.254844 124.579063 125.254844 124.579063 
C 125.254844 124.579063 125.254844 124.579063 125.254844 124.579063 
C 125.254844 124.579063 125.254844 124.579063 125.254844 124.579063 
z
" style="fill: #ffffff"/>
   </g>
   <g id="PolyCollection_1">
    <defs>
     <path id="m4622273bda" d="M 235.315796 -137.118924 
L 234.939504 -137.076051 
L 234.170232 -135.066422 
L 233.125055 -133.068632 
L 232.011418 -131.108574 
L 231.054898 -129.198393 
L 229.841704 -127.317766 
L 228.587013 -125.480829 
L 227.510653 -123.68669 
L 226.18504 -121.936112 
L 224.827811 -120.231613 
L 223.657289 -118.560511 
L 222.243484 -116.945891 
L 221.019581 -115.357967 
L 219.556694 -113.834724 
L 218.285904 -112.331291 
L 216.780904 -110.900401 
L 215.469426 -109.482319 
L 213.92903 -108.144273 
L 212.582916 -106.811965 
L 211.220984 -105.520828 
L 209.638923 -104.320237 
L 208.25115 -103.114758 
L 206.85173 -101.950243 
L 205.441996 -100.826546 
L 204.02328 -99.74347 
L 202.596903 -98.700772 
L 201.164179 -97.698157 
L 199.726415 -96.735283 
L 198.284906 -95.811756 
L 197.02653 -94.850256 
L 195.578539 -94.001449 
L 194.130503 -93.190616 
L 192.86073 -92.332709 
L 191.413154 -91.593746 
L 190.140067 -90.801953 
L 188.697359 -90.132587 
L 187.424902 -89.404936 
L 186.1526 -88.707543 
L 184.881302 -88.039922 
L 183.457199 -87.500073 
L 182.193816 -86.891979 
L 180.933949 -86.311874 
L 179.678368 -85.75914 
L 178.427822 -85.233128 
L 177.183035 -84.73316 
L 175.944707 -84.258525 
L 174.842717 -83.701974 
L 173.61542 -83.275228 
L 172.396468 -82.871677 
L 171.304407 -82.382412 
L 170.099878 -82.022714 
L 168.905332 -81.683848 
L 167.827649 -81.256661 
L 166.650428 -80.957218 
L 165.583284 -80.568292 
L 164.520184 -80.197668 
L 163.36985 -79.952124 
L 162.319374 -79.616191 
L 161.273868 -79.296943 
L 160.153224 -79.098608 
L 159.121956 -78.810287 
L 158.096359 -78.536956 
L 157.076625 -78.278084 
L 156.062918 -78.033139 
L 155.055383 -77.801586 
L 154.054138 -77.582885 
L 153.059278 -77.3765 
L 152.070873 -77.181892 
L 151.088968 -76.998525 
L 150.113584 -76.825867 
L 149.144717 -76.663389 
L 148.182339 -76.510569 
L 147.226397 -76.36689 
L 146.276813 -76.231844 
L 145.333485 -76.104934 
L 144.425209 -75.912254 
L 143.49137 -75.803257 
L 142.563442 -75.70109 
L 141.641234 -75.605303 
L 140.74397 -75.453831 
L 139.830334 -75.373033 
L 138.92184 -75.297466 
L 138.018221 -75.226746 
L 137.130791 -75.112183 
L 136.234295 -75.05396 
L 135.341891 -74.99964 
L 134.460265 -74.911052 
L 133.573666 -74.867742 
L 132.690254 -74.827573 
L 131.813197 -74.763427 
L 130.934073 -74.733111 
L 130.059043 -74.685547 
L 129.183202 -74.664534 
L 128.30889 -74.64585 
L 127.436055 -74.621102 
L 126.563299 -74.611164 
L 125.690984 -74.602336 
L 124.818712 -74.603348 
L 123.946433 -74.612856 
L 123.07378 -74.624482 
L 122.201073 -74.650352 
L 121.326971 -74.670712 
L 120.4514 -74.693392 
L 119.576634 -74.742054 
L 118.697885 -74.774013 
L 117.821177 -74.839235 
L 116.938243 -74.881014 
L 116.052177 -74.925914 
L 115.171029 -75.015531 
L 114.279258 -75.071396 
L 113.383448 -75.131139 
L 112.496619 -75.246669 
L 111.593779 -75.318855 
L 110.686114 -75.395855 
L 109.792627 -75.539176 
L 108.876846 -75.630388 
L 107.955601 -75.727508 
L 107.028678 -75.830969 
L 106.095888 -75.941219 
L 105.188507 -76.134641 
L 104.246303 -76.262728 
L 103.297882 -76.398906 
L 102.343139 -76.543674 
L 101.381995 -76.697536 
L 100.414398 -76.861009 
L 99.440315 -77.034615 
L 98.459742 -77.218881 
L 97.472698 -77.414339 
L 96.479227 -77.621524 
L 95.479398 -77.840975 
L 94.473303 -78.073228 
L 93.46106 -78.318821 
L 92.442811 -78.578289 
L 91.41872 -78.852166 
L 90.388977 -79.14098 
L 89.353794 -79.445257 
L 88.226197 -79.659722 
L 87.177297 -79.995984 
L 86.123726 -80.34938 
L 84.967331 -80.612957 
L 83.901801 -81.002048 
L 82.726485 -81.30189 
L 81.650437 -81.729131 
L 80.457817 -82.068271 
L 79.372894 -82.536002 
L 78.164819 -82.917328 
L 76.947815 -83.320962 
L 75.85139 -83.853998 
L 74.622152 -84.304001 
L 73.385785 -84.778534 
L 72.142963 -85.278338 
L 70.894384 -85.804123 
L 69.640772 -86.35657 
L 68.382873 -86.936326 
L 67.121458 -87.544011 
L 65.857316 -88.180211 
L 64.591259 -88.84548 
L 63.159956 -89.447465 
L 61.88946 -90.174467 
L 60.619672 -90.932122 
L 59.177891 -91.634309 
L 57.909329 -92.4569 
L 56.464757 -93.229614 
L 55.018984 -94.039642 
L 53.758528 -94.964319 
L 52.316818 -95.84801 
L 50.877568 -96.770539 
L 49.442062 -97.732348 
L 48.206765 -98.799136 
L 46.784887 -99.83758 
L 45.370545 -100.916255 
L 43.763534 -101.979522 
L 42.366366 -103.142645 
L 40.980843 -104.346665 
L 39.608307 -105.591682 
L 38.250105 -106.877748 
L 36.697839 -108.165992 
L 35.371141 -109.537689 
L 34.062979 -110.950347 
L 32.56162 -112.375768 
L 31.293847 -113.873559 
L 29.834263 -115.391106 
L 28.613044 -116.973188 
L 27.202146 -118.581903 
L 25.818237 -120.237566 
L 24.679065 -121.945393 
L 23.355471 -123.6898 
L 22.065761 -125.47958 
L 21.026643 -127.308374 
L 19.813349 -129.182738 
L 18.64587 -131.099547 
L 17.737789 -133.040838 
L 16.684243 -135.033222 
L 15.712388 -137.059849 
L 15.099146 -137.129719 
L 15.099146 -137.129719 
L 14.984157 -135.196922 
L 14.765483 -133.274764 
L 14.716903 -131.339853 
L 14.512998 -129.414156 
L 14.529561 -127.478506 
L 14.390026 -125.546565 
L 14.524865 -123.612737 
L 14.449831 -121.677531 
L 14.594534 -119.747529 
L 14.582397 -117.810046 
L 14.788492 -115.885172 
L 14.897987 -113.952906 
L 15.165828 -112.036004 
L 15.340153 -110.108519 
L 15.605123 -108.191802 
L 15.961191 -106.289577 
L 16.413408 -104.406495 
L 16.64767 -102.482683 
L 17.093183 -100.6002 
L 17.459189 -98.699615 
L 17.965215 -96.832078 
L 18.429022 -94.95364 
L 18.992463 -93.102711 
L 19.585245 -91.261566 
L 20.110656 -89.398309 
L 20.764501 -87.577091 
L 21.447959 -85.767259 
L 22.161242 -83.969413 
L 22.833555 -82.154776 
L 23.608557 -80.381999 
L 24.415008 -78.623702 
L 25.188264 -76.849752 
L 26.062154 -75.123412 
L 26.912298 -73.385173 
L 27.858298 -71.697053 
L 28.792612 -70.003357 
L 29.738474 -68.315621 
L 30.715533 -66.645299 
L 31.755871 -65.013648 
L 32.79874 -63.383703 
L 34.185525 -61.988854 
L 36.007003 -60.919197 
L 37.856226 -59.907487 
L 39.784843 -58.995624 
L 41.653258 -58.079358 
L 43.463146 -57.15519 
L 45.339535 -56.324941 
L 47.209378 -55.530267 
L 49.078419 -54.77623 
L 50.882323 -54.002176 
L 52.735607 -53.314607 
L 54.528875 -52.607794 
L 56.316322 -51.933019 
L 58.097174 -51.289326 
L 59.920566 -50.732096 
L 61.684336 -50.147561 
L 63.393478 -49.535225 
L 65.141578 -49.006329 
L 66.880189 -48.503732 
L 68.608898 -48.026461 
L 70.292164 -47.524227 
L 72.00182 -47.095433 
L 73.665438 -46.635973 
L 75.324934 -46.204803 
L 77.004901 -45.842312 
L 78.643469 -45.448651 
L 80.277165 -45.081285 
L 81.899322 -44.728125 
L 83.516256 -44.399981 
L 85.121649 -44.084327 
L 86.721598 -43.792432 
L 88.310158 -43.511348 
L 89.893178 -43.2528 
L 91.450256 -42.967567 
L 93.015393 -42.734449 
L 94.56017 -42.482428 
L 96.113108 -42.285338 
L 97.6559 -42.094515 
L 99.182336 -41.887633 
L 100.713729 -41.729648 
L 102.229078 -41.550834 
L 103.739687 -41.386123 
L 105.250985 -41.256995 
L 106.751898 -41.117666 
L 108.24872 -40.991292 
L 109.741685 -40.877547 
L 111.234781 -40.79847 
L 112.720135 -40.707369 
L 114.202481 -40.62803 
L 115.682106 -40.560222 
L 117.159311 -40.503742 
L 118.634833 -40.463849 
L 120.107923 -40.42765 
L 121.579608 -40.402319 
L 123.050217 -40.387762 
L 124.520084 -40.383912 
L 125.989585 -40.386012 
L 127.459353 -40.392259 
L 128.929836 -40.407898 
L 130.402093 -40.422281 
L 131.875382 -40.457151 
L 133.350446 -40.503019 
L 134.827603 -40.560035 
L 136.307161 -40.628375 
L 137.789422 -40.708244 
L 139.277092 -40.785411 
L 140.766193 -40.88731 
L 142.258886 -41.001523 
L 143.75542 -41.128354 
L 145.2631 -41.238678 
L 146.768956 -41.390164 
L 148.279356 -41.555352 
L 149.802296 -41.708253 
L 151.323281 -41.900541 
L 152.861838 -42.070455 
L 154.394299 -42.291778 
L 155.944242 -42.496538 
L 157.488606 -42.748891 
L 159.056212 -42.97534 
L 160.628899 -43.224306 
L 162.213204 -43.481343 
L 163.783811 -43.801404 
L 165.380038 -44.100373 
L 166.988371 -44.409703 
L 168.601368 -44.744697 
L 170.226637 -45.091687 
L 171.856194 -45.465668 
L 173.525948 -45.807779 
L 175.177539 -46.216128 
L 176.832621 -46.653541 
L 178.532682 -47.059326 
L 180.208915 -47.536296 
L 181.928675 -47.988776 
L 183.61567 -48.521753 
L 185.353717 -49.024424 
L 187.101253 -49.553369 
L 188.857813 -50.109553 
L 190.622881 -50.693937 
L 192.395882 -51.307477 
L 194.176185 -51.951123 
L 195.963091 -52.625828 
L 197.813796 -53.275579 
L 199.613272 -54.015549 
L 201.47264 -54.73832 
L 203.280511 -55.547784 
L 205.154649 -56.338182 
L 207.025877 -57.172225 
L 208.902965 -58.042342 
L 210.771172 -58.960076 
L 212.636697 -59.919892 
L 214.481494 -60.934312 
L 216.307563 -62.000262 
L 217.713443 -63.382051 
L 218.75423 -65.013384 
L 219.780205 -66.653847 
L 220.755945 -68.324615 
L 221.73283 -69.994444 
L 222.637366 -71.704667 
L 223.593739 -73.387074 
L 224.355505 -75.169296 
L 225.198163 -76.908545 
L 226.146324 -78.600166 
L 226.889583 -80.38702 
L 227.658996 -82.161874 
L 228.334933 -83.974736 
L 229.080845 -85.760111 
L 229.708397 -87.590119 
L 230.351595 -89.414181 
L 230.948205 -91.254074 
L 231.498482 -93.108263 
L 232.002732 -94.975253 
L 232.572093 -96.824935 
L 233.053438 -98.69891 
L 233.423838 -100.598574 
L 233.879776 -102.47907 
L 234.215422 -104.384413 
L 234.596661 -106.281518 
L 234.839857 -108.201473 
L 235.147135 -110.111468 
L 235.419482 -112.027387 
L 235.536176 -113.960178 
L 235.765865 -115.881656 
L 235.769696 -117.819685 
L 235.89812 -119.748273 
L 236.018018 -121.678627 
L 236.101959 -123.611714 
L 236.126442 -125.546624 
L 235.976408 -127.478409 
L 235.933054 -129.411378 
L 235.880435 -131.345214 
L 235.770132 -133.276804 
L 235.491003 -135.193597 
L 235.315796 -137.118924 
z
" style="stroke: #ffee9c"/>
    </defs>
    <g clip-path="url(#p5d8f4b1ecf)">
     <use xlink:href="#m4622273bda" x="0" y="249.158125" style="fill: #ffee9c; stroke: #ffee9c"/>
    </g>
   </g>
   <g id="matplotlib.axis_1">
    <g id="xtick_1">
     <g id="line2d_1">
      <path d="M 125.254844 124.579063 
L 125.254844 13.699063 
" clip-path="url(#p5d8f4b1ecf)" style="fill: none; stroke: #b0b0b0; stroke-width: 0.8; stroke-linecap: square"/>
     </g>
     <g id="text_1">
      <!-- N -->
      <g transform="translate(121.070469 7.958438) scale(0.1 -0.1)">
       <defs>
        <path id="DejaVuSans-Bold-4e" d="M 588 4666 
L 1931 4666 
L 3628 1466 
L 3628 4666 
L 4769 4666 
L 4769 0 
L 3425 0 
L 1728 3200 
L 1728 0 
L 588 0 
L 588 4666 
z
" transform="scale(0.015625)"/>
       </defs>
       <use xlink:href="#DejaVuSans-Bold-4e"/>
      </g>
     </g>
    </g>
    <g id="xtick_2">
     <g id="line2d_2">
      <path d="M 125.254844 124.579063 
L 203.658844 46.175063 
" clip-path="url(#p5d8f4b1ecf)" style="fill: none; stroke: #b0b0b0; stroke-width: 0.8; stroke-linecap: square"/>
     </g>
    </g>
    <g id="xtick_3">
     <g id="line2d_3">
      <path d="M 125.254844 124.579063 
L 236.134844 124.579063 
" clip-path="url(#p5d8f4b1ecf)" style="fill: none; stroke: #b0b0b0; stroke-width: 0.8; stroke-linecap: square"/>
     </g>
     <g id="text_2">
      <!-- E -->
      <g transform="translate(241.219219 127.338438) scale(0.1 -0.1)">
       <defs>
        <path id="DejaVuSans-Bold-45" d="M 588 4666 
L 3834 4666 
L 3834 3756 
L 1791 3756 
L 1791 2888 
L 3713 2888 
L 3713 1978 
L 1791 1978 
L 1791 909 
L 3903 909 
L 3903 0 
L 588 0 
L 588 4666 
z
" transform="scale(0.015625)"/>
       </defs>
       <use xlink:href="#DejaVuSans-Bold-45"/>
      </g>
     </g>
    </g>
    <g id="xtick_4">
     <g id="line2d_4">
      <path d="M 125.254844 124.579063 
L 203.658844 202.983062 
" clip-path="url(#p5d8f4b1ecf)" style="fill: none; stroke: #b0b0b0; stroke-width: 0.8; stroke-linecap: square"/>
     </g>
    </g>
    <g id="xtick_5">
     <g id="line2d_5">
      <path d="M 125.254844 124.579063 
L 125.254844 235.459063 
" clip-path="url(#p5d8f4b1ecf)" style="fill: none; stroke: #b0b0b0; stroke-width: 0.8; stroke-linecap: square"/>
     </g>
     <g id="text_3">
      <!-- S -->
      <g transform="translate(121.654062 246.718438) scale(0.1 -0.1)">
       <defs>
        <path id="DejaVuSans-Bold-53" d="M 3834 4519 
L 3834 3531 
Q 3450 3703 3084 3790 
Q 2719 3878 2394 3878 
Q 1963 3878 1756 3759 
Q 1550 3641 1550 3391 
Q 1550 3203 1689 3098 
Q 1828 2994 2194 2919 
L 2706 2816 
Q 3484 2659 3812 2340 
Q 4141 2022 4141 1434 
Q 4141 663 3683 286 
Q 3225 -91 2284 -91 
Q 1841 -91 1394 -6 
Q 947 78 500 244 
L 500 1259 
Q 947 1022 1364 901 
Q 1781 781 2169 781 
Q 2563 781 2772 912 
Q 2981 1044 2981 1288 
Q 2981 1506 2839 1625 
Q 2697 1744 2272 1838 
L 1806 1941 
Q 1106 2091 782 2419 
Q 459 2747 459 3303 
Q 459 4000 909 4375 
Q 1359 4750 2203 4750 
Q 2588 4750 2994 4692 
Q 3400 4634 3834 4519 
z
" transform="scale(0.015625)"/>
       </defs>
       <use xlink:href="#DejaVuSans-Bold-53"/>
      </g>
     </g>
    </g>
    <g id="xtick_6">
     <g id="line2d_6">
      <path d="M 125.254844 124.579063 
L 46.850844 202.983062 
" clip-path="url(#p5d8f4b1ecf)" style="fill: none; stroke: #b0b0b0; stroke-width: 0.8; stroke-linecap: square"/>
     </g>
    </g>
    <g id="xtick_7">
     <g id="line2d_7">
      <path d="M 125.254844 124.579063 
L 14.374844 124.579063 
" clip-path="url(#p5d8f4b1ecf)" style="fill: none; stroke: #b0b0b0; stroke-width: 0.8; stroke-linecap: square"/>
     </g>
     <g id="text_4">
      <!-- W -->
      <g transform="translate(0.36 127.338438) scale(0.1 -0.1)">
       <defs>
        <path id="DejaVuSans-Bold-57" d="M 191 4666 
L 1344 4666 
L 2150 1275 
L 2950 4666 
L 4109 4666 
L 4909 1275 
L 5716 4666 
L 6859 4666 
L 5759 0 
L 4372 0 
L 3525 3547 
L 2688 0 
L 1300 0 
L 191 4666 
z
" transform="scale(0.015625)"/>
       </defs>
       <use xlink:href="#DejaVuSans-Bold-57"/>
      </g>
     </g>
    </g>
    <g id="xtick_8">
     <g id="line2d_8">
      <path d="M 125.254844 124.579063 
L 46.850844 46.175063 
" clip-path="url(#p5d8f4b1ecf)" style="fill: none; stroke: #b0b0b0; stroke-width: 0.8; stroke-linecap: square"/>
     </g>
    </g>
   </g>
   <g id="matplotlib.axis_2"/>
   <g id="patch_3">
    <path d="M 125.254844 124.579063 
C 125.254844 124.579063 125.254844 124.579063 125.254844 124.579063 
C 125.254844 124.579063 125.254844 124.579063 125.254844 124.579063 
L 125.254844 124.579063 
C 125.254844 124.579063 125.254844 124.579063 125.254844 124.579063 
C 125.254844 124.579063 125.254844 124.579063 125.254844 124.579063 
z
" clip-path="url(#p5d8f4b1ecf)" style="fill: #d9d9d9"/>
   </g>
   <g id="patch_4">
    <path d="M 125.254844 124.579063 
C 125.254844 124.579063 125.254844 124.579063 125.254844 124.579063 
C 125.254844 124.579063 125.254844 124.579063 125.254844 124.579063 
L 125.254844 124.579063 
C 125.254844 124.579063 125.254844 124.579063 125.254844 124.579063 
C 125.254844 124.579063 125.254844 124.579063 125.254844 124.579063 
z
" clip-path="url(#p5d8f4b1ecf)" style="fill: #d9d9d9"/>
   </g>
   <g id="patch_5">
    <path d="M 125.254844 124.579063 
C 125.254844 124.579063 125.254844 124.579063 125.254844 124.579063 
C 125.254844 124.579063 125.254844 124.579063 125.254844 124.579063 
L 125.254844 124.579063 
C 125.254844 124.579063 125.254844 124.579063 125.254844 124.579063 
C 125.254844 124.579063 125.254844 124.579063 125.254844 124.579063 
z
" clip-path="url(#p5d8f4b1ecf)" style="fill: #d9d9d9"/>
   </g>
   <g id="patch_6">
    <path d="M 125.254844 124.579063 
C 125.254844 124.579063 125.254844 124.579063 125.254844 124.579063 
C 125.254844 124.579063 125.254844 124.579063 125.254844 124.579063 
L 125.254844 124.579063 
C 125.254844 124.579063 125.254844 124.579063 125.254844 124.579063 
C 125.254844 124.579063 125.254844 124.579063 125.254844 124.579063 
z
" clip-path="url(#p5d8f4b1ecf)" style="fill: #d9d9d9"/>
   </g>
   <g id="patch_7">
    <path d="M 125.254844 124.579063 
C 125.254844 124.579063 125.254844 124.579063 125.254844 124.579063 
C 125.254844 124.579063 125.254844 124.579063 125.254844 124.579063 
L 125.254844 124.579063 
C 125.254844 124.579063 125.254844 124.579063 125.254844 124.579063 
C 125.254844 124.579063 125.254844 124.579063 125.254844 124.579063 
z
" clip-path="url(#p5d8f4b1ecf)" style="fill: #d9d9d9"/>
   </g>
   <g id="patch_8">
    <path d="M 125.254844 124.579063 
C 125.254844 124.579063 125.254844 124.579063 125.254844 124.579063 
C 125.254844 124.579063 125.254844 124.579063 125.254844 124.579063 
L 125.254844 124.579063 
C 125.254844 124.579063 125.254844 124.579063 125.254844 124.579063 
C 125.254844 124.579063 125.254844 124.579063 125.254844 124.579063 
z
" clip-path="url(#p5d8f4b1ecf)" style="fill: #d9d9d9"/>
   </g>
   <g id="patch_9">
    <path d="M 125.254844 124.579063 
C 125.254844 124.579063 125.254844 124.579063 125.254844 124.579063 
C 125.254844 124.579063 125.254844 124.579063 125.254844 124.579063 
L 125.254844 124.579063 
C 125.254844 124.579063 125.254844 124.579063 125.254844 124.579063 
C 125.254844 124.579063 125.254844 124.579063 125.254844 124.579063 
z
" clip-path="url(#p5d8f4b1ecf)" style="fill: #d9d9d9"/>
   </g>
   <g id="patch_10">
    <path d="M 125.254844 124.579063 
C 125.254844 124.579063 125.254844 124.579063 125.254844 124.579063 
C 125.254844 124.579063 125.254844 124.579063 125.254844 124.579063 
L 125.254844 124.579063 
C 125.254844 124.579063 125.254844 124.579063 125.254844 124.579063 
C 125.254844 124.579063 125.254844 124.579063 125.254844 124.579063 
z
" clip-path="url(#p5d8f4b1ecf)" style="fill: #d9d9d9"/>
   </g>
   <g id="patch_11">
    <path d="M 125.254844 124.579063 
C 125.254844 124.579063 125.254844 124.579063 125.254844 124.579063 
C 125.254844 124.579063 125.254844 124.579063 125.254844 124.579063 
L 125.254844 124.579063 
C 125.254844 124.579063 125.254844 124.579063 125.254844 124.579063 
C 125.254844 124.579063 125.254844 124.579063 125.254844 124.579063 
z
" clip-path="url(#p5d8f4b1ecf)" style="fill: #d9d9d9"/>
   </g>
   <g id="patch_12">
    <path d="M 125.254844 124.579063 
C 125.254844 124.579063 125.254844 124.579063 125.254844 124.579063 
C 125.254844 124.579063 125.254844 124.579063 125.254844 124.579063 
L 125.254844 124.579063 
C 125.254844 124.579063 125.254844 124.579063 125.254844 124.579063 
C 125.254844 124.579063 125.254844 124.579063 125.254844 124.579063 
z
" clip-path="url(#p5d8f4b1ecf)" style="fill: #d9d9d9"/>
   </g>
   <g id="patch_13">
    <path d="M 125.254844 124.579063 
C 125.254844 124.579063 125.254844 124.579063 125.254844 124.579063 
C 125.254844 124.579063 125.254844 124.579063 125.254844 124.579063 
L 125.254844 124.579063 
C 125.254844 124.579063 125.254844 124.579063 125.254844 124.579063 
C 125.254844 124.579063 125.254844 124.579063 125.254844 124.579063 
z
" clip-path="url(#p5d8f4b1ecf)" style="fill: #d9d9d9"/>
   </g>
   <g id="patch_14">
    <path d="M 125.254844 124.579063 
C 125.254844 124.579063 125.254844 124.579063 125.254844 124.579063 
C 125.254844 124.579063 125.254844 124.579063 125.254844 124.579063 
L 125.254844 124.579063 
C 125.254844 124.579063 125.254844 124.579063 125.254844 124.579063 
C 125.254844 124.579063 125.254844 124.579063 125.254844 124.579063 
z
" clip-path="url(#p5d8f4b1ecf)" style="fill: #d9d9d9"/>
   </g>
   <g id="patch_15">
    <path d="M 125.254844 124.579063 
C 125.254844 124.579063 125.254844 124.579063 125.254844 124.579063 
C 125.254844 124.579063 125.254844 124.579063 125.254844 124.579063 
L 125.254844 124.579063 
C 125.254844 124.579063 125.254844 124.579063 125.254844 124.579063 
C 125.254844 124.579063 125.254844 124.579063 125.254844 124.579063 
z
" clip-path="url(#p5d8f4b1ecf)" style="fill: #d9d9d9"/>
   </g>
   <g id="patch_16">
    <path d="M 125.254844 124.579063 
C 125.254844 124.579063 125.254844 124.579063 125.254844 124.579063 
C 125.254844 124.579063 125.254844 124.579063 125.254844 124.579063 
L 125.254844 124.579063 
C 125.254844 124.579063 125.254844 124.579063 125.254844 124.579063 
C 125.254844 124.579063 125.254844 124.579063 125.254844 124.579063 
z
" clip-path="url(#p5d8f4b1ecf)" style="fill: #d9d9d9"/>
   </g>
   <g id="patch_17">
    <path d="M 125.254844 124.579063 
C 125.254844 124.579063 125.254844 124.579063 125.254844 124.579063 
C 125.254844 124.579063 125.254844 124.579063 125.254844 124.579063 
L 125.254844 124.579063 
C 125.254844 124.579063 125.254844 124.579063 125.254844 124.579063 
C 125.254844 124.579063 125.254844 124.579063 125.254844 124.579063 
z
" clip-path="url(#p5d8f4b1ecf)" style="fill: #d9d9d9"/>
   </g>
   <g id="patch_18">
    <path d="M 125.254844 124.579063 
C 125.254844 124.579063 125.254844 124.579063 125.254844 124.579063 
C 125.254844 124.579063 125.254844 124.579063 125.254844 124.579063 
L 125.254844 124.579063 
C 125.254844 124.579063 125.254844 124.579063 125.254844 124.579063 
C 125.254844 124.579063 125.254844 124.579063 125.254844 124.579063 
z
" clip-path="url(#p5d8f4b1ecf)" style="fill: #d9d9d9"/>
   </g>
   <g id="patch_19">
    <path d="M 125.254844 124.579063 
C 125.254844 124.579063 125.254844 124.579063 125.254844 124.579063 
C 125.254844 124.579063 125.254844 124.579063 125.254844 124.579063 
L 125.254844 124.579063 
C 125.254844 124.579063 125.254844 124.579063 125.254844 124.579063 
C 125.254844 124.579063 125.254844 124.579063 125.254844 124.579063 
z
" clip-path="url(#p5d8f4b1ecf)" style="fill: #d9d9d9"/>
   </g>
   <g id="patch_20">
    <path d="M 125.254844 124.579063 
C 125.254844 124.579063 125.254844 124.579063 125.254844 124.579063 
C 125.254844 124.579063 125.254844 124.579063 125.254844 124.579063 
L 125.254844 124.579063 
C 125.254844 124.579063 125.254844 124.579063 125.254844 124.579063 
C 125.254844 124.579063 125.254844 124.579063 125.254844 124.579063 
z
" clip-path="url(#p5d8f4b1ecf)" style="fill: #d9d9d9"/>
   </g>
   <g id="patch_21">
    <path d="M 125.254844 124.579063 
C 125.254844 124.579063 125.254844 124.579063 125.254844 124.579063 
C 125.254844 124.579063 125.254844 124.579063 125.254844 124.579063 
L 125.254844 124.579063 
C 125.254844 124.579063 125.254844 124.579063 125.254844 124.579063 
C 125.254844 124.579063 125.254844 124.579063 125.254844 124.579063 
z
" clip-path="url(#p5d8f4b1ecf)" style="fill: #d9d9d9"/>
   </g>
   <g id="patch_22">
    <path d="M 125.254844 124.579063 
C 125.254844 124.579063 125.254844 124.579063 125.254844 124.579063 
C 125.254844 124.579063 125.254844 124.579063 125.254844 124.579063 
L 125.254844 124.579063 
C 125.254844 124.579063 125.254844 124.579063 125.254844 124.579063 
C 125.254844 124.579063 125.254844 124.579063 125.254844 124.579063 
z
" clip-path="url(#p5d8f4b1ecf)" style="fill: #d9d9d9"/>
   </g>
   <g id="patch_23">
    <path d="M 125.254844 124.579063 
C 125.254844 124.579063 125.254844 124.579063 125.254844 124.579063 
C 125.254844 124.579063 125.254844 124.579063 125.254844 124.579063 
L 125.254844 124.579063 
C 125.254844 124.579063 125.254844 124.579063 125.254844 124.579063 
C 125.254844 124.579063 125.254844 124.579063 125.254844 124.579063 
z
" clip-path="url(#p5d8f4b1ecf)" style="fill: #d9d9d9"/>
   </g>
   <g id="patch_24">
    <path d="M 125.254844 124.579063 
C 125.254844 124.579063 125.254844 124.579063 125.254844 124.579063 
C 125.254844 124.579063 125.254844 124.579063 125.254844 124.579063 
L 125.254844 124.579063 
C 125.254844 124.579063 125.254844 124.579063 125.254844 124.579063 
C 125.254844 124.579063 125.254844 124.579063 125.254844 124.579063 
z
" clip-path="url(#p5d8f4b1ecf)" style="fill: #d9d9d9"/>
   </g>
   <g id="patch_25">
    <path d="M 125.254844 124.579063 
C 125.254844 124.579063 125.254844 124.579063 125.254844 124.579063 
C 125.254844 124.579063 125.254844 124.579063 125.254844 124.579063 
L 125.254844 124.579063 
C 125.254844 124.579063 125.254844 124.579063 125.254844 124.579063 
C 125.254844 124.579063 125.254844 124.579063 125.254844 124.579063 
z
" clip-path="url(#p5d8f4b1ecf)" style="fill: #d9d9d9"/>
   </g>
   <g id="patch_26">
    <path d="M 125.254844 124.579063 
C 125.254844 124.579063 125.254844 124.579063 125.254844 124.579063 
C 125.254844 124.579063 125.254844 124.579063 125.254844 124.579063 
L 125.254844 124.579063 
C 125.254844 124.579063 125.254844 124.579063 125.254844 124.579063 
C 125.254844 124.579063 125.254844 124.579063 125.254844 124.579063 
z
" clip-path="url(#p5d8f4b1ecf)" style="fill: #d9d9d9"/>
   </g>
   <g id="patch_27">
    <path d="M 125.254844 124.579063 
C 125.254844 124.579063 125.254844 124.579063 125.254844 124.579063 
C 125.254844 124.579063 125.254844 124.579063 125.254844 124.579063 
L 125.254844 124.579063 
C 125.254844 124.579063 125.254844 124.579063 125.254844 124.579063 
C 125.254844 124.579063 125.254844 124.579063 125.254844 124.579063 
z
" clip-path="url(#p5d8f4b1ecf)" style="fill: #d9d9d9"/>
   </g>
   <g id="patch_28">
    <path d="M 125.254844 124.579063 
C 125.254844 124.579063 125.254844 124.579063 125.254844 124.579063 
C 125.254844 124.579063 125.254844 124.579063 125.254844 124.579063 
L 125.254844 124.579063 
C 125.254844 124.579063 125.254844 124.579063 125.254844 124.579063 
C 125.254844 124.579063 125.254844 124.579063 125.254844 124.579063 
z
" clip-path="url(#p5d8f4b1ecf)" style="fill: #d9d9d9"/>
   </g>
   <g id="patch_29">
    <path d="M 125.254844 124.579063 
C 125.254844 124.579063 125.254844 124.579063 125.254844 124.579063 
C 125.254844 124.579063 125.254844 124.579063 125.254844 124.579063 
L 125.254844 124.579063 
C 125.254844 124.579063 125.254844 124.579063 125.254844 124.579063 
C 125.254844 124.579063 125.254844 124.579063 125.254844 124.579063 
z
" clip-path="url(#p5d8f4b1ecf)" style="fill: #d9d9d9"/>
   </g>
   <g id="patch_30">
    <path d="M 125.254844 124.579063 
C 125.254844 124.579063 125.254844 124.579063 125.254844 124.579063 
C 125.254844 124.579063 125.254844 124.579063 125.254844 124.579063 
L 125.254844 124.579063 
C 125.254844 124.579063 125.254844 124.579063 125.254844 124.579063 
C 125.254844 124.579063 125.254844 124.579063 125.254844 124.579063 
z
" clip-path="url(#p5d8f4b1ecf)" style="fill: #d9d9d9"/>
   </g>
   <g id="patch_31">
    <path d="M 125.254844 124.579063 
C 125.254844 124.579063 125.254844 124.579063 125.254844 124.579063 
C 125.254844 124.579063 125.254844 124.579063 125.254844 124.579063 
L 125.254844 124.579063 
C 125.254844 124.579063 125.254844 124.579063 125.254844 124.579063 
C 125.254844 124.579063 125.254844 124.579063 125.254844 124.579063 
z
" clip-path="url(#p5d8f4b1ecf)" style="fill: #d9d9d9"/>
   </g>
   <g id="patch_32">
    <path d="M 125.254844 124.579063 
C 125.254844 124.579063 125.254844 124.579063 125.254844 124.579063 
C 125.254844 124.579063 125.254844 124.579063 125.254844 124.579063 
L 125.254844 124.579063 
C 125.254844 124.579063 125.254844 124.579063 125.254844 124.579063 
C 125.254844 124.579063 125.254844 124.579063 125.254844 124.579063 
z
" clip-path="url(#p5d8f4b1ecf)" style="fill: #d9d9d9"/>
   </g>
   <g id="patch_33">
    <path d="M 125.254844 124.579063 
C 125.254844 124.579063 125.254844 124.579063 125.254844 124.579063 
C 125.254844 124.579063 125.254844 124.579063 125.254844 124.579063 
L 125.254844 124.579063 
C 125.254844 124.579063 125.254844 124.579063 125.254844 124.579063 
C 125.254844 124.579063 125.254844 124.579063 125.254844 124.579063 
z
" clip-path="url(#p5d8f4b1ecf)" style="fill: #d9d9d9"/>
   </g>
   <g id="patch_34">
    <path d="M 125.254844 124.579063 
C 125.254844 124.579063 125.254844 124.579063 125.254844 124.579063 
C 125.254844 124.579063 125.254844 124.579063 125.254844 124.579063 
L 125.254844 124.579063 
C 125.254844 124.579063 125.254844 124.579063 125.254844 124.579063 
C 125.254844 124.579063 125.254844 124.579063 125.254844 124.579063 
z
" clip-path="url(#p5d8f4b1ecf)" style="fill: #d9d9d9"/>
   </g>
   <g id="patch_35">
    <path d="M 125.254844 124.579063 
C 125.254844 124.579063 125.254844 124.579063 125.254844 124.579063 
C 125.254844 124.579063 125.254844 124.579063 125.254844 124.579063 
L 132.278152 53.270217 
C 129.944107 53.040334 127.600182 52.925184 125.254844 52.925184 
C 122.909505 52.925184 120.56558 53.040334 118.231536 53.270217 
z
" clip-path="url(#p5d8f4b1ecf)" style="fill: #a1a1d8"/>
   </g>
   <g id="patch_36">
    <path d="M 125.254844 124.579063 
C 125.254844 124.579063 125.254844 124.579063 125.254844 124.579063 
C 125.254844 124.579063 125.254844 124.579063 125.254844 124.579063 
L 144.182174 62.184015 
C 142.139891 61.564495 140.068423 61.045619 137.97525 60.629261 
C 135.882078 60.212904 133.769725 59.899566 131.645821 59.690379 
z
" clip-path="url(#p5d8f4b1ecf)" style="fill: #a1a1d8"/>
   </g>
   <g id="patch_37">
    <path d="M 125.254844 124.579063 
C 125.254844 124.579063 125.254844 124.579063 125.254844 124.579063 
C 125.254844 124.579063 125.254844 124.579063 125.254844 124.579063 
L 149.117742 79.93472 
C 147.656466 79.153652 146.157722 78.444799 144.626925 77.810722 
C 143.096127 77.176645 141.535121 76.618108 139.949544 76.137128 
z
" clip-path="url(#p5d8f4b1ecf)" style="fill: #a1a1d8"/>
   </g>
   <g id="patch_38">
    <path d="M 125.254844 124.579063 
C 125.254844 124.579063 125.254844 124.579063 125.254844 124.579063 
C 125.254844 124.579063 125.254844 124.579063 125.254844 124.579063 
L 157.739296 84.996643 
C 156.443704 83.933379 155.09669 82.934365 153.703119 82.00321 
C 152.309548 81.072056 150.871099 80.209883 149.392969 79.419806 
z
" clip-path="url(#p5d8f4b1ecf)" style="fill: #a1a1d8"/>
   </g>
   <g id="patch_39">
    <path d="M 125.254844 124.579063 
C 125.254844 124.579063 125.254844 124.579063 125.254844 124.579063 
C 125.254844 124.579063 125.254844 124.579063 125.254844 124.579063 
L 155.355718 99.875913 
C 154.547147 98.890667 153.690691 97.945713 152.789442 97.044464 
C 151.888194 96.143216 150.943239 95.286759 149.957993 94.478188 
z
" clip-path="url(#p5d8f4b1ecf)" style="fill: #a1a1d8"/>
   </g>
   <g id="patch_40">
    <path d="M 125.254844 124.579063 
C 125.254844 124.579063 125.254844 124.579063 125.254844 124.579063 
C 125.254844 124.579063 125.254844 124.579063 125.254844 124.579063 
L 167.954712 101.755507 
C 167.207663 100.357877 166.392445 98.997767 165.512001 97.68009 
C 164.631558 96.362413 163.68695 95.088758 162.681592 93.863724 
z
" clip-path="url(#p5d8f4b1ecf)" style="fill: #a1a1d8"/>
   </g>
   <g id="patch_41">
    <path d="M 125.254844 124.579063 
C 125.254844 124.579063 125.254844 124.579063 125.254844 124.579063 
C 125.254844 124.579063 125.254844 124.579063 125.254844 124.579063 
L 178.650574 108.381645 
C 178.120409 106.633923 177.504754 104.913284 176.805835 103.225943 
C 176.106915 101.538602 175.325573 99.886593 174.464631 98.275883 
z
" clip-path="url(#p5d8f4b1ecf)" style="fill: #a1a1d8"/>
   </g>
   <g id="patch_42">
    <path d="M 125.254844 124.579063 
C 125.254844 124.579063 125.254844 124.579063 125.254844 124.579063 
C 125.254844 124.579063 125.254844 124.579063 125.254844 124.579063 
L 177.15275 119.467565 
C 176.985443 117.768869 176.734836 116.079411 176.401833 114.405294 
C 176.06883 112.731176 175.653834 111.074418 175.158342 109.441002 
z
" clip-path="url(#p5d8f4b1ecf)" style="fill: #a1a1d8"/>
   </g>
   <g id="patch_43">
    <path d="M 125.254844 124.579063 
C 125.254844 124.579063 125.254844 124.579063 125.254844 124.579063 
C 125.254844 124.579063 125.254844 124.579063 125.254844 124.579063 
L 172.247528 129.207438 
C 172.399022 127.669297 172.474906 126.124646 172.474906 124.579063 
C 172.474906 123.033479 172.399022 121.488828 172.247528 119.950687 
z
" clip-path="url(#p5d8f4b1ecf)" style="fill: #a1a1d8"/>
   </g>
   <g id="patch_44">
    <path d="M 125.254844 124.579063 
C 125.254844 124.579063 125.254844 124.579063 125.254844 124.579063 
C 125.254844 124.579063 125.254844 124.579063 125.254844 124.579063 
L 161.482862 135.568712 
C 161.84257 134.382915 162.143841 133.180172 162.385588 131.964827 
C 162.627335 130.749482 162.809267 129.523001 162.930725 128.289813 
z
" clip-path="url(#p5d8f4b1ecf)" style="fill: #a1a1d8"/>
   </g>
   <g id="patch_45">
    <path d="M 125.254844 124.579063 
C 125.254844 124.579063 125.254844 124.579063 125.254844 124.579063 
C 125.254844 124.579063 125.254844 124.579063 125.254844 124.579063 
L 161.315438 143.853852 
C 161.946331 142.673535 162.518893 141.462954 163.031056 140.226482 
C 163.543219 138.99001 163.994367 137.729138 164.382868 136.448419 
z
" clip-path="url(#p5d8f4b1ecf)" style="fill: #a1a1d8"/>
   </g>
   <g id="patch_46">
    <path d="M 125.254844 124.579063 
C 125.254844 124.579063 125.254844 124.579063 125.254844 124.579063 
C 125.254844 124.579063 125.254844 124.579063 125.254844 124.579063 
L 153.769735 147.980629 
C 154.535704 147.047294 155.255386 146.076915 155.926183 145.072996 
C 156.59698 144.069078 157.218083 143.03283 157.787249 141.967995 
z
" clip-path="url(#p5d8f4b1ecf)" style="fill: #a1a1d8"/>
   </g>
   <g id="patch_47">
    <path d="M 125.254844 124.579063 
C 125.254844 124.579063 125.254844 124.579063 125.254844 124.579063 
C 125.254844 124.579063 125.254844 124.579063 125.254844 124.579063 
L 140.809634 143.53263 
C 141.430013 143.023498 142.025021 142.484215 142.592508 141.916727 
C 143.159996 141.349239 143.699279 140.754232 144.208411 140.133853 
z
" clip-path="url(#p5d8f4b1ecf)" style="fill: #a1a1d8"/>
   </g>
   <g id="patch_48">
    <path d="M 125.254844 124.579063 
C 125.254844 124.579063 125.254844 124.579063 125.254844 124.579063 
C 125.254844 124.579063 125.254844 124.579063 125.254844 124.579063 
L 135.880858 144.458937 
C 136.531556 144.111132 137.164786 143.731589 137.77826 143.321679 
C 138.391733 142.911769 138.984712 142.471986 139.555054 142.003919 
z
" clip-path="url(#p5d8f4b1ecf)" style="fill: #a1a1d8"/>
   </g>
   <g id="patch_49">
    <path d="M 125.254844 124.579063 
C 125.254844 124.579063 125.254844 124.579063 125.254844 124.579063 
C 125.254844 124.579063 125.254844 124.579063 125.254844 124.579063 
L 129.814242 139.609385 
C 130.306207 139.460149 130.790548 139.286849 131.265517 139.090111 
C 131.740485 138.893372 132.205508 138.673433 132.658905 138.431087 
z
" clip-path="url(#p5d8f4b1ecf)" style="fill: #a1a1d8"/>
   </g>
   <g id="patch_50">
    <path d="M 125.254844 124.579063 
C 125.254844 124.579063 125.254844 124.579063 125.254844 124.579063 
C 125.254844 124.579063 125.254844 124.579063 125.254844 124.579063 
L 126.181902 133.991641 
C 126.48999 133.961297 126.796402 133.915845 127.100032 133.855449 
C 127.403662 133.795054 127.704144 133.719787 128.000392 133.629921 
z
" clip-path="url(#p5d8f4b1ecf)" style="fill: #a1a1d8"/>
   </g>
   <g id="patch_51">
    <path d="M 125.254844 124.579063 
C 125.254844 124.579063 125.254844 124.579063 125.254844 124.579063 
C 125.254844 124.579063 125.254844 124.579063 125.254844 124.579063 
L 123.341222 144.008388 
C 123.977173 144.071024 124.615816 144.102399 125.254844 144.102399 
C 125.893872 144.102399 126.532514 144.071024 127.168465 144.008388 
z
" clip-path="url(#p5d8f4b1ecf)" style="fill: #a1a1d8"/>
   </g>
   <g id="patch_52">
    <path d="M 125.254844 124.579063 
C 125.254844 124.579063 125.254844 124.579063 125.254844 124.579063 
C 125.254844 124.579063 125.254844 124.579063 125.254844 124.579063 
L 122.811575 132.633439 
C 123.075207 132.713411 123.342606 132.780391 123.612807 132.834137 
C 123.883008 132.887883 124.155685 132.928331 124.429853 132.955334 
z
" clip-path="url(#p5d8f4b1ecf)" style="fill: #a1a1d8"/>
   </g>
   <g id="patch_53">
    <path d="M 125.254844 124.579063 
C 125.254844 124.579063 125.254844 124.579063 125.254844 124.579063 
C 125.254844 124.579063 125.254844 124.579063 125.254844 124.579063 
L 118.949533 136.375469 
C 119.335647 136.581851 119.731661 136.769152 120.136145 136.936694 
C 120.540629 137.104237 120.953095 137.25182 121.372053 137.378909 
z
" clip-path="url(#p5d8f4b1ecf)" style="fill: #a1a1d8"/>
   </g>
   <g id="patch_54">
    <path d="M 125.254844 124.579063 
C 125.254844 124.579063 125.254844 124.579063 125.254844 124.579063 
C 125.254844 124.579063 125.254844 124.579063 125.254844 124.579063 
L 120.467303 130.412698 
C 120.658247 130.569401 120.856769 130.716635 121.062153 130.853868 
C 121.267536 130.991101 121.479534 131.118168 121.69738 131.234609 
z
" clip-path="url(#p5d8f4b1ecf)" style="fill: #a1a1d8"/>
   </g>
   <g id="patch_55">
    <path d="M 125.254844 124.579063 
C 125.254844 124.579063 125.254844 124.579063 125.254844 124.579063 
C 125.254844 124.579063 125.254844 124.579063 125.254844 124.579063 
L 116.062606 132.122937 
C 116.309529 132.423812 116.571074 132.712384 116.846298 132.987608 
C 117.121523 133.262832 117.410094 133.524378 117.710969 133.7713 
z
" clip-path="url(#p5d8f4b1ecf)" style="fill: #a1a1d8"/>
   </g>
   <g id="patch_56">
    <path d="M 125.254844 124.579063 
C 125.254844 124.579063 125.254844 124.579063 125.254844 124.579063 
C 125.254844 124.579063 125.254844 124.579063 125.254844 124.579063 
L 108.604619 133.478793 
C 108.89592 134.02378 109.213803 134.554136 109.55712 135.067946 
C 109.900437 135.581756 110.268773 136.0784 110.660799 136.556085 
z
" clip-path="url(#p5d8f4b1ecf)" style="fill: #a1a1d8"/>
   </g>
   <g id="patch_57">
    <path d="M 125.254844 124.579063 
C 125.254844 124.579063 125.254844 124.579063 125.254844 124.579063 
C 125.254844 124.579063 125.254844 124.579063 125.254844 124.579063 
L 104.698463 130.814772 
C 104.902567 131.487614 105.139583 132.150028 105.408654 132.799623 
C 105.677725 133.449219 105.978528 134.085212 106.309975 134.705306 
z
" clip-path="url(#p5d8f4b1ecf)" style="fill: #a1a1d8"/>
   </g>
   <g id="patch_58">
    <path d="M 125.254844 124.579063 
C 125.254844 124.579063 125.254844 124.579063 125.254844 124.579063 
C 125.254844 124.579063 125.254844 124.579063 125.254844 124.579063 
L 109.036383 126.176441 
C 109.088668 126.707296 109.166984 127.235263 109.27105 127.758437 
C 109.375116 128.28161 109.504805 128.799359 109.65965 129.309813 
z
" clip-path="url(#p5d8f4b1ecf)" style="fill: #a1a1d8"/>
   </g>
   <g id="patch_59">
    <path d="M 125.254844 124.579063 
C 125.254844 124.579063 125.254844 124.579063 125.254844 124.579063 
C 125.254844 124.579063 125.254844 124.579063 125.254844 124.579063 
L 104.378316 122.522904 
C 104.311015 123.206224 104.277304 123.892436 104.277304 124.579063 
C 104.277304 125.265689 104.311015 125.951901 104.378316 126.635221 
z
" clip-path="url(#p5d8f4b1ecf)" style="fill: #a1a1d8"/>
   </g>
   <g id="patch_60">
    <path d="M 125.254844 124.579063 
C 125.254844 124.579063 125.254844 124.579063 125.254844 124.579063 
C 125.254844 124.579063 125.254844 124.579063 125.254844 124.579063 
L 101.586357 117.399306 
C 101.351353 118.17401 101.154526 118.959786 100.996588 119.753795 
C 100.83865 120.547804 100.71979 121.349089 100.640439 122.154755 
z
" clip-path="url(#p5d8f4b1ecf)" style="fill: #a1a1d8"/>
   </g>
   <g id="patch_61">
    <path d="M 125.254844 124.579063 
C 125.254844 124.579063 125.254844 124.579063 125.254844 124.579063 
C 125.254844 124.579063 125.254844 124.579063 125.254844 124.579063 
L 91.279902 106.419078 
C 90.685499 107.531128 90.146052 108.671692 89.663511 109.83665 
C 89.18097 111.001607 88.755916 112.189554 88.389884 113.396199 
z
" clip-path="url(#p5d8f4b1ecf)" style="fill: #a1a1d8"/>
   </g>
   <g id="patch_62">
    <path d="M 125.254844 124.579063 
C 125.254844 124.579063 125.254844 124.579063 125.254844 124.579063 
C 125.254844 124.579063 125.254844 124.579063 125.254844 124.579063 
L 91.622015 96.977313 
C 90.718568 98.078166 89.869715 99.222712 89.078521 100.406817 
C 88.287328 101.590922 87.554747 102.813159 86.883426 104.069112 
z
" clip-path="url(#p5d8f4b1ecf)" style="fill: #a1a1d8"/>
   </g>
   <g id="patch_63">
    <path d="M 125.254844 124.579063 
C 125.254844 124.579063 125.254844 124.579063 125.254844 124.579063 
C 125.254844 124.579063 125.254844 124.579063 125.254844 124.579063 
L 87.349189 78.390889 
C 85.837381 79.631597 84.3874 80.945784 83.004483 82.328701 
C 81.621565 83.711619 80.307379 85.1616 79.06667 86.673408 
z
" clip-path="url(#p5d8f4b1ecf)" style="fill: #a1a1d8"/>
   </g>
   <g id="patch_64">
    <path d="M 125.254844 124.579063 
C 125.254844 124.579063 125.254844 124.579063 125.254844 124.579063 
C 125.254844 124.579063 125.254844 124.579063 125.254844 124.579063 
L 93.303295 64.801918 
C 91.346699 65.84774 89.44263 66.988995 87.597965 68.221561 
C 85.7533 69.454127 83.970262 70.776518 82.255292 72.183958 
z
" clip-path="url(#p5d8f4b1ecf)" style="fill: #a1a1d8"/>
   </g>
   <g id="patch_65">
    <path d="M 125.254844 124.579063 
C 125.254844 124.579063 125.254844 124.579063 125.254844 124.579063 
C 125.254844 124.579063 125.254844 124.579063 125.254844 124.579063 
L 106.105565 61.452351 
C 104.039334 62.079135 102.005121 62.806988 100.010274 63.633281 
C 98.015428 64.459573 96.062352 65.383309 94.158103 66.401152 
z
" clip-path="url(#p5d8f4b1ecf)" style="fill: #a1a1d8"/>
   </g>
   <g id="patch_66">
    <path d="M 125.254844 124.579063 
C 125.254844 124.579063 125.254844 124.579063 125.254844 124.579063 
C 125.254844 124.579063 125.254844 124.579063 125.254844 124.579063 
L 118.996162 61.033604 
C 116.916225 61.23846 114.847598 61.545312 112.797756 61.953051 
C 110.747913 62.36079 108.719324 62.868925 106.719317 63.47562 
z
" clip-path="url(#p5d8f4b1ecf)" style="fill: #a1a1d8"/>
   </g>
   <g id="patch_67">
    <path d="M 118.231536 53.270217 
C 120.56558 53.040334 122.909505 52.925184 125.254844 52.925184 
C 127.600182 52.925184 129.944107 53.040334 132.278152 53.270217 
L 135.641533 19.121236 
C 132.189741 18.781264 128.723338 18.61097 125.254844 18.61097 
C 121.78635 18.61097 118.319947 18.781264 114.868154 19.121236 
z
" clip-path="url(#p5d8f4b1ecf)" style="fill: #ff8c8e"/>
   </g>
   <g id="patch_68">
    <path d="M 131.645821 59.690379 
C 133.769725 59.899566 135.882078 60.212904 137.97525 60.629261 
C 140.068423 61.045619 142.139891 61.564495 144.182174 62.184015 
L 154.88501 26.901495 
C 151.687877 25.931655 148.445055 25.119371 145.168257 24.467575 
C 141.891458 23.815779 138.584633 23.325258 135.259726 22.997783 
z
" clip-path="url(#p5d8f4b1ecf)" style="fill: #ff8c8e"/>
   </g>
   <g id="patch_69">
    <path d="M 139.949544 76.137128 
C 141.535121 76.618108 143.096127 77.176645 144.626925 77.810722 
C 146.157722 78.444799 147.656466 79.153652 149.117742 79.93472 
L 169.550484 41.707748 
C 166.837982 40.257886 164.055931 38.942074 161.214379 37.765065 
C 158.372827 36.588055 155.4752 35.551268 152.531964 34.658447 
z
" clip-path="url(#p5d8f4b1ecf)" style="fill: #ff8c8e"/>
   </g>
   <g id="patch_70">
    <path d="M 149.392969 79.419806 
C 150.871099 80.209883 152.309548 81.072056 153.703119 82.00321 
C 155.09669 82.934365 156.443704 83.933379 157.739296 84.996643 
L 188.113151 47.985993 
C 185.606146 45.928547 182.999637 43.995428 180.303038 42.193618 
C 177.606439 40.391808 174.823002 38.72348 171.96278 37.19466 
z
" clip-path="url(#p5d8f4b1ecf)" style="fill: #ff8c8e"/>
   </g>
   <g id="patch_71">
    <path d="M 149.957993 94.478188 
C 150.943239 95.286759 151.888194 96.143216 152.789442 97.044464 
C 153.690691 97.945713 154.547147 98.890667 155.355718 99.875913 
L 184.883056 75.643454 
C 183.28132 73.691733 181.584726 71.81983 179.799401 70.034505 
C 178.014076 68.24918 176.142173 66.552586 174.190453 64.95085 
z
" clip-path="url(#p5d8f4b1ecf)" style="fill: #ff8c8e"/>
   </g>
   <g id="patch_72">
    <path d="M 162.681592 93.863724 
C 163.68695 95.088758 164.631558 96.362413 165.512001 97.68009 
C 166.392445 98.997767 167.207663 100.357877 167.954712 101.755507 
L 196.892041 86.288183 
C 195.638723 83.94339 194.271038 81.661546 192.793926 79.450891 
C 191.316813 77.240236 189.732054 75.103435 188.045372 73.048208 
z
" clip-path="url(#p5d8f4b1ecf)" style="fill: #ff8c8e"/>
   </g>
   <g id="patch_73">
    <path d="M 174.464631 98.275883 
C 175.325573 99.886593 176.106915 101.538602 176.805835 103.225943 
C 177.504754 104.913284 178.120409 106.633923 178.650574 108.381645 
L 207.719802 99.563591 
C 206.901009 96.86439 205.950185 94.207016 204.870766 91.601068 
C 203.791347 88.99512 202.584634 86.443739 201.254985 83.956141 
z
" clip-path="url(#p5d8f4b1ecf)" style="fill: #ff8c8e"/>
   </g>
   <g id="patch_74">
    <path d="M 175.158342 109.441002 
C 175.653834 111.074418 176.06883 112.731176 176.401833 114.405294 
C 176.734836 116.079411 176.985443 117.768869 177.15275 119.467565 
L 195.947526 117.616441 
C 195.719629 115.302564 195.378265 113.001271 194.924665 110.720873 
C 194.471066 108.440476 193.905779 106.183724 193.230846 103.958768 
z
" clip-path="url(#p5d8f4b1ecf)" style="fill: #ff8c8e"/>
   </g>
   <g id="patch_75">
    <path d="M 172.247528 119.950687 
C 172.399022 121.488828 172.474906 123.033479 172.474906 124.579063 
C 172.474906 126.124646 172.399022 127.669297 172.247528 129.207438 
L 200.031131 131.943884 
C 200.272193 129.496344 200.392941 127.038445 200.392941 124.579063 
C 200.392941 122.11968 200.272193 119.661781 200.031131 117.214241 
z
" clip-path="url(#p5d8f4b1ecf)" style="fill: #ff8c8e"/>
   </g>
   <g id="patch_76">
    <path d="M 162.930725 128.289813 
C 162.809267 129.523001 162.627335 130.749482 162.385588 131.964827 
C 162.143841 133.180172 161.84257 134.382915 161.482862 135.568712 
L 171.10948 138.488914 
C 171.56477 136.988024 171.946096 135.465684 172.252081 133.927394 
C 172.558066 132.389104 172.78834 130.836719 172.942073 129.275845 
z
" clip-path="url(#p5d8f4b1ecf)" style="fill: #ff8c8e"/>
   </g>
   <g id="patch_77">
    <path d="M 164.382868 136.448419 
C 163.994367 137.729138 163.543219 138.99001 163.031056 140.226482 
C 162.518893 141.462954 161.946331 142.673535 161.315438 143.853852 
L 172.426728 149.79296 
C 173.252016 148.248953 174.001001 146.665359 174.670976 145.047895 
C 175.340952 143.430431 175.93111 141.781048 176.43932 140.105704 
z
" clip-path="url(#p5d8f4b1ecf)" style="fill: #ff8c8e"/>
   </g>
   <g id="patch_78">
    <path d="M 157.787249 141.967995 
C 157.218083 143.03283 156.59698 144.069078 155.926183 145.072996 
C 155.255386 146.076915 154.535704 147.047294 153.769735 147.980629 
L 161.922068 154.671076 
C 162.907024 153.470903 163.832462 152.223094 164.695038 150.932158 
C 165.557614 149.641221 166.356289 148.308713 167.088178 146.939445 
z
" clip-path="url(#p5d8f4b1ecf)" style="fill: #ff8c8e"/>
   </g>
   <g id="patch_79">
    <path d="M 144.208411 140.133853 
C 143.699279 140.754232 143.159996 141.349239 142.592508 141.916727 
C 142.025021 142.484215 141.430013 143.023498 140.809634 143.53263 
L 143.523547 146.839541 
C 144.252165 146.241579 144.950987 145.608205 145.617486 144.941705 
C 146.283986 144.275205 146.917361 143.576384 147.515323 142.847765 
z
" clip-path="url(#p5d8f4b1ecf)" style="fill: #ff8c8e"/>
   </g>
   <g id="patch_80">
    <path d="M 139.555054 142.003919 
C 138.984712 142.471986 138.391733 142.911769 137.77826 143.321679 
C 137.164786 143.731589 136.531556 144.111132 135.880858 144.458937 
L 137.053616 146.653013 
C 137.77613 146.266822 138.479247 145.84539 139.160427 145.390239 
C 139.841608 144.935089 140.500032 144.446768 141.13332 143.927042 
z
" clip-path="url(#p5d8f4b1ecf)" style="fill: #ff8c8e"/>
   </g>
   <g id="patch_81">
    <path d="M 132.658905 138.431087 
C 132.205508 138.673433 131.740485 138.893372 131.265517 139.090111 
C 130.790548 139.286849 130.306207 139.460149 129.814242 139.609385 
L 129.814242 139.609385 
C 130.306207 139.460149 130.790548 139.286849 131.265517 139.090111 
C 131.740485 138.893372 132.205508 138.673433 132.658905 138.431087 
z
" clip-path="url(#p5d8f4b1ecf)" style="fill: #ff8c8e"/>
   </g>
   <g id="patch_82">
    <path d="M 128.000392 133.629921 
C 127.704144 133.719787 127.403662 133.795054 127.100032 133.855449 
C 126.796402 133.915845 126.48999 133.961297 126.181902 133.991641 
L 126.181902 133.991641 
C 126.48999 133.961297 126.796402 133.915845 127.100032 133.855449 
C 127.403662 133.795054 127.704144 133.719787 128.000392 133.629921 
z
" clip-path="url(#p5d8f4b1ecf)" style="fill: #ff8c8e"/>
   </g>
   <g id="patch_83">
    <path d="M 127.168465 144.008388 
C 126.532514 144.071024 125.893872 144.102399 125.254844 144.102399 
C 124.615816 144.102399 123.977173 144.071024 123.341222 144.008388 
L 122.72336 150.281645 
C 123.564644 150.364504 124.409489 150.406008 125.254844 150.406008 
C 126.100198 150.406008 126.945043 150.364504 127.786327 150.281645 
z
" clip-path="url(#p5d8f4b1ecf)" style="fill: #ff8c8e"/>
   </g>
   <g id="patch_84">
    <path d="M 124.429853 132.955334 
C 124.155685 132.928331 123.883008 132.887883 123.612807 132.834137 
C 123.342606 132.780391 123.075207 132.713411 122.811575 132.633439 
L 116.903885 152.108484 
C 117.804964 152.381823 118.71892 152.610757 119.642452 152.794459 
C 120.565984 152.978161 121.497979 153.116409 122.43507 153.208705 
z
" clip-path="url(#p5d8f4b1ecf)" style="fill: #ff8c8e"/>
   </g>
   <g id="patch_85">
    <path d="M 121.372053 137.378909 
C 120.953095 137.25182 120.540629 137.104237 120.136145 136.936694 
C 119.731661 136.769152 119.335647 136.581851 118.949533 136.375469 
L 115.291467 143.21923 
C 115.901587 143.545346 116.527351 143.841311 117.166499 144.106054 
C 117.805647 144.370798 118.457407 144.604002 119.119426 144.804823 
z
" clip-path="url(#p5d8f4b1ecf)" style="fill: #ff8c8e"/>
   </g>
   <g id="patch_86">
    <path d="M 121.69738 131.234609 
C 121.479534 131.118168 121.267536 130.991101 121.062153 130.853868 
C 120.856769 130.716635 120.658247 130.569401 120.467303 130.412698 
L 105.131055 149.099971 
C 105.93366 149.758652 106.768122 150.377531 107.631425 150.954372 
C 108.494729 151.531213 109.385833 152.06532 110.301519 152.554765 
z
" clip-path="url(#p5d8f4b1ecf)" style="fill: #ff8c8e"/>
   </g>
   <g id="patch_87">
    <path d="M 117.710969 133.7713 
C 117.410094 133.524378 117.121523 133.262832 116.846298 132.987608 
C 116.571074 132.712384 116.309529 132.423812 116.062606 132.122937 
L 97.62701 147.25264 
C 98.36915 148.15694 99.155241 149.024258 99.982445 149.851462 
C 100.809648 150.678665 101.676966 151.464756 102.581266 152.206896 
z
" clip-path="url(#p5d8f4b1ecf)" style="fill: #ff8c8e"/>
   </g>
   <g id="patch_88">
    <path d="M 110.660799 136.556085 
C 110.268773 136.0784 109.900437 135.581756 109.55712 135.067946 
C 109.213803 134.554136 108.89592 134.02378 108.604619 133.478793 
L 88.869144 144.027624 
C 89.505724 145.218583 90.200394 146.377569 90.950643 147.500396 
C 91.700893 148.623224 92.505818 149.70854 93.362511 150.752424 
z
" clip-path="url(#p5d8f4b1ecf)" style="fill: #ff8c8e"/>
   </g>
   <g id="patch_89">
    <path d="M 106.309975 134.705306 
C 105.978528 134.085212 105.677725 133.449219 105.408654 132.799623 
C 105.139583 132.150028 104.902567 131.487614 104.698463 130.814772 
L 75.899836 139.55074 
C 76.389882 141.166203 76.958946 142.756633 77.604975 144.316284 
C 78.251004 145.875936 78.973218 147.402929 79.769008 148.891748 
z
" clip-path="url(#p5d8f4b1ecf)" style="fill: #ff8c8e"/>
   </g>
   <g id="patch_90">
    <path d="M 109.65965 129.309813 
C 109.504805 128.799359 109.375116 128.28161 109.27105 127.758437 
C 109.166984 127.235263 109.088668 126.707296 109.036383 126.176441 
L 54.492139 131.548581 
C 54.720261 133.86475 55.061964 136.168322 55.516013 138.450979 
C 55.970061 140.733635 56.535908 142.992622 57.21151 145.219782 
z
" clip-path="url(#p5d8f4b1ecf)" style="fill: #ff8c8e"/>
   </g>
   <g id="patch_91">
    <path d="M 104.378316 126.635221 
C 104.311015 125.951901 104.277304 125.265689 104.277304 124.579063 
C 104.277304 123.892436 104.311015 123.206224 104.378316 122.522904 
L 62.050193 118.353948 
C 61.846436 120.42273 61.744373 122.50027 61.744373 124.579062 
C 61.744373 126.657855 61.846436 128.735395 62.050193 130.804177 
z
" clip-path="url(#p5d8f4b1ecf)" style="fill: #ff8c8e"/>
   </g>
   <g id="patch_92">
    <path d="M 100.640439 122.154755 
C 100.71979 121.349089 100.83865 120.547804 100.996588 119.753795 
C 101.154526 118.959786 101.351353 118.17401 101.586357 117.399306 
L 82.411832 111.582777 
C 81.986444 112.985093 81.630163 114.407449 81.344274 115.844707 
C 81.058386 117.281966 80.843235 118.732394 80.699599 120.190754 
z
" clip-path="url(#p5d8f4b1ecf)" style="fill: #ff8c8e"/>
   </g>
   <g id="patch_93">
    <path d="M 88.389884 113.396199 
C 88.755916 112.189554 89.18097 111.001607 89.663511 109.83665 
C 90.146052 108.671692 90.685499 107.531128 91.279902 106.419078 
L 69.907224 94.995143 
C 68.938898 96.806754 68.060101 98.664814 67.274007 100.562613 
C 66.487912 102.460413 65.795469 104.395663 65.199177 106.361375 
z
" clip-path="url(#p5d8f4b1ecf)" style="fill: #ff8c8e"/>
   </g>
   <g id="patch_94">
    <path d="M 86.883426 104.069112 
C 87.554747 102.813159 88.287328 101.590922 89.078521 100.406817 
C 89.869715 99.222712 90.718568 98.078166 91.622015 96.977313 
L 63.984399 74.295708 
C 62.33855 76.301181 60.792156 78.386252 59.350803 80.54339 
C 57.909449 82.700528 56.574874 84.927132 55.351898 87.215159 
z
" clip-path="url(#p5d8f4b1ecf)" style="fill: #ff8c8e"/>
   </g>
   <g id="patch_95">
    <path d="M 79.06667 86.673408 
C 80.307379 85.1616 81.621565 83.711619 83.004483 82.328701 
C 84.3874 80.945784 85.837381 79.631597 87.349189 78.390889 
L 65.129366 51.315956 
C 62.731355 53.283953 60.431413 55.368499 58.237846 57.562065 
C 56.04428 59.755632 53.959734 62.055574 51.991737 64.453585 
z
" clip-path="url(#p5d8f4b1ecf)" style="fill: #ff8c8e"/>
   </g>
   <g id="patch_96">
    <path d="M 82.255292 72.183958 
C 83.970262 70.776518 85.7533 69.454127 87.597965 68.221561 
C 89.44263 66.988995 91.346699 65.84774 93.303295 64.801918 
L 78.900482 37.856151 
C 76.061911 39.373398 73.299544 41.029097 70.623359 42.817267 
C 67.947173 44.605437 65.360395 46.523923 62.872367 48.565795 
z
" clip-path="url(#p5d8f4b1ecf)" style="fill: #ff8c8e"/>
   </g>
   <g id="patch_97">
    <path d="M 94.158103 66.401152 
C 96.062352 65.383309 98.015428 64.459573 100.010274 63.633281 
C 102.005121 62.806988 104.039334 62.079135 106.105565 61.452351 
L 96.219651 28.86286 
C 93.086717 29.813225 90.002331 30.916836 86.977635 32.169706 
C 83.952939 33.422577 80.991578 34.823196 78.10425 36.366505 
z
" clip-path="url(#p5d8f4b1ecf)" style="fill: #ff8c8e"/>
   </g>
   <g id="patch_98">
    <path d="M 106.719317 63.47562 
C 108.719324 62.868925 110.747913 62.36079 112.797756 61.953051 
C 114.847598 61.545312 116.916225 61.23846 118.996162 61.033604 
L 116.098547 31.613619 
C 113.055649 31.913319 110.0293 32.362235 107.03043 32.958747 
C 104.03156 33.55526 101.063785 34.298649 98.137824 35.186229 
z
" clip-path="url(#p5d8f4b1ecf)" style="fill: #ff8c8e"/>
   </g>
   <g id="patch_99">
    <path d="M 114.868154 19.121236 
C 118.319947 18.781264 121.78635 18.61097 125.254844 18.61097 
C 128.723338 18.61097 132.189741 18.781264 135.641533 19.121236 
L 136.122985 14.232977 
C 132.511192 13.877247 128.884112 13.69906 125.254844 13.69906 
C 121.625576 13.69906 117.998495 13.877247 114.386703 14.232977 
z
" clip-path="url(#p5d8f4b1ecf)" style="fill: #828282"/>
   </g>
   <g id="patch_100">
    <path d="M 135.259726 22.997783 
C 138.584633 23.325258 141.891458 23.815779 145.168257 24.467575 
C 148.445055 25.119371 151.687877 25.931655 154.88501 26.901495 
L 154.88501 26.901495 
C 151.687877 25.931655 148.445055 25.119371 145.168257 24.467575 
C 141.891458 23.815779 138.584633 23.325258 135.259726 22.997783 
z
" clip-path="url(#p5d8f4b1ecf)" style="fill: #828282"/>
   </g>
   <g id="patch_101">
    <path d="M 152.531964 34.658447 
C 155.4752 35.551268 158.372827 36.588055 161.214379 37.765065 
C 164.055931 38.942074 166.837982 40.257886 169.550484 41.707748 
L 171.105043 38.799373 
C 168.297346 37.298627 165.417658 35.936637 162.476382 34.71832 
C 159.535106 33.500003 156.535786 32.42683 153.489257 31.502675 
z
" clip-path="url(#p5d8f4b1ecf)" style="fill: #828282"/>
   </g>
   <g id="patch_102">
    <path d="M 171.96278 37.19466 
C 174.823002 38.72348 177.606439 40.391808 180.303038 42.193618 
C 182.999637 43.995428 185.606146 45.928547 188.113151 47.985993 
L 194.162338 40.615038 
C 191.41407 38.359593 188.556722 36.24044 185.600616 34.265232 
C 182.644509 32.290025 179.593207 30.461145 176.457731 28.785198 
z
" clip-path="url(#p5d8f4b1ecf)" style="fill: #828282"/>
   </g>
   <g id="patch_103">
    <path d="M 174.190453 64.95085 
C 176.142173 66.552586 178.014076 68.24918 179.799401 70.034505 
C 181.584726 71.81983 183.28132 73.691733 184.883056 75.643454 
L 191.399359 70.295661 
C 189.622583 68.130653 187.740581 66.054184 185.760152 64.073754 
C 183.779723 62.093325 181.703254 60.211324 179.538245 58.434547 
z
" clip-path="url(#p5d8f4b1ecf)" style="fill: #828282"/>
   </g>
   <g id="patch_104">
    <path d="M 188.045372 73.048208 
C 189.732054 75.103435 191.316813 77.240236 192.793926 79.450891 
C 194.271038 81.661546 195.638723 83.94339 196.892041 86.288183 
L 209.535216 79.530265 
C 208.060702 76.771642 206.451636 74.087077 204.713829 71.486266 
C 202.976023 68.885455 201.111571 66.371533 199.127208 63.95358 
z
" clip-path="url(#p5d8f4b1ecf)" style="fill: #828282"/>
   </g>
   <g id="patch_105">
    <path d="M 201.254985 83.956141 
C 202.584634 86.443739 203.791347 88.99512 204.870766 91.601068 
C 205.950185 94.207016 206.901009 96.86439 207.719802 99.563591 
L 216.485739 96.904473 
C 215.579909 93.918349 214.528014 90.9785 213.333854 88.095542 
C 212.139694 85.212585 210.804708 82.389995 209.333719 79.637967 
z
" clip-path="url(#p5d8f4b1ecf)" style="fill: #828282"/>
   </g>
   <g id="patch_106">
    <path d="M 193.230846 103.958768 
C 193.905779 106.183724 194.471066 108.440476 194.924665 110.720873 
C 195.378265 113.001271 195.719629 115.302564 195.947526 117.616441 
L 200.288259 117.188916 
C 200.046368 114.73296 199.684043 112.290361 199.202591 109.869941 
C 198.72114 107.449521 198.121142 105.054197 197.404767 102.692623 
z
" clip-path="url(#p5d8f4b1ecf)" style="fill: #828282"/>
   </g>
   <g id="patch_107">
    <path d="M 200.031131 117.214241 
C 200.272193 119.661781 200.392941 122.11968 200.392941 124.579063 
C 200.392941 127.038445 200.272193 129.496344 200.031131 131.943884 
L 201.253792 132.064306 
C 201.498795 129.576747 201.621519 127.078658 201.621519 124.579063 
C 201.621519 122.079467 201.498795 119.581378 201.253792 117.093819 
z
" clip-path="url(#p5d8f4b1ecf)" style="fill: #828282"/>
   </g>
   <g id="patch_108">
    <path d="M 172.942073 129.275845 
C 172.78834 130.836719 172.558066 132.389104 172.252081 133.927394 
C 171.946096 135.465684 171.56477 136.988024 171.10948 138.488914 
L 173.243003 139.136112 
C 173.719477 137.565387 174.118546 135.972216 174.438768 134.362353 
C 174.758989 132.75249 174.999978 131.127875 175.160864 129.494376 
z
" clip-path="url(#p5d8f4b1ecf)" style="fill: #828282"/>
   </g>
   <g id="patch_109">
    <path d="M 176.43932 140.105704 
C 175.93111 141.781048 175.340952 143.430431 174.670976 145.047895 
C 174.001001 146.665359 173.252016 148.248953 172.426728 149.79296 
L 172.426728 149.79296 
C 173.252016 148.248953 174.001001 146.665359 174.670976 145.047895 
C 175.340952 143.430431 175.93111 141.781048 176.43932 140.105704 
z
" clip-path="url(#p5d8f4b1ecf)" style="fill: #828282"/>
   </g>
   <g id="patch_110">
    <path d="M 167.088178 146.939445 
C 166.356289 148.308713 165.557614 149.641221 164.695038 150.932158 
C 163.832462 152.223094 162.907024 153.470903 161.922068 154.671076 
L 164.124159 156.478285 
C 165.168268 155.206034 166.149284 153.883288 167.063663 152.514823 
C 167.978042 151.146358 168.824683 149.733824 169.600526 148.282323 
z
" clip-path="url(#p5d8f4b1ecf)" style="fill: #828282"/>
   </g>
   <g id="patch_111">
    <path d="M 147.515323 142.847765 
C 146.917361 143.576384 146.283986 144.275205 145.617486 144.941705 
C 144.950987 145.608205 144.252165 146.241579 143.523547 146.839541 
L 143.523547 146.839541 
C 144.252165 146.241579 144.950987 145.608205 145.617486 144.941705 
C 146.283986 144.275205 146.917361 143.576384 147.515323 142.847765 
z
" clip-path="url(#p5d8f4b1ecf)" style="fill: #828282"/>
   </g>
   <g id="patch_112">
    <path d="M 141.13332 143.927042 
C 140.500032 144.446768 139.841608 144.935089 139.160427 145.390239 
C 138.479247 145.84539 137.77613 146.266822 137.053616 146.653013 
L 137.053616 146.653013 
C 137.77613 146.266822 138.479247 145.84539 139.160427 145.390239 
C 139.841608 144.935089 140.500032 144.446768 141.13332 143.927042 
z
" clip-path="url(#p5d8f4b1ecf)" style="fill: #828282"/>
   </g>
   <g id="patch_113">
    <path d="M 132.658905 138.431087 
C 132.205508 138.673433 131.740485 138.893372 131.265517 139.090111 
C 130.790548 139.286849 130.306207 139.460149 129.814242 139.609385 
L 129.814242 139.609385 
C 130.306207 139.460149 130.790548 139.286849 131.265517 139.090111 
C 131.740485 138.893372 132.205508 138.673433 132.658905 138.431087 
z
" clip-path="url(#p5d8f4b1ecf)" style="fill: #828282"/>
   </g>
   <g id="patch_114">
    <path d="M 128.000392 133.629921 
C 127.704144 133.719787 127.403662 133.795054 127.100032 133.855449 
C 126.796402 133.915845 126.48999 133.961297 126.181902 133.991641 
L 126.181902 133.991641 
C 126.48999 133.961297 126.796402 133.915845 127.100032 133.855449 
C 127.403662 133.795054 127.704144 133.719787 128.000392 133.629921 
z
" clip-path="url(#p5d8f4b1ecf)" style="fill: #828282"/>
   </g>
   <g id="patch_115">
    <path d="M 127.786327 150.281645 
C 126.945043 150.364504 126.100198 150.406008 125.254844 150.406008 
C 124.409489 150.406008 123.564644 150.364504 122.72336 150.281645 
L 122.72336 150.281645 
C 123.564644 150.364504 124.409489 150.406008 125.254844 150.406008 
C 126.100198 150.406008 126.945043 150.364504 127.786327 150.281645 
z
" clip-path="url(#p5d8f4b1ecf)" style="fill: #828282"/>
   </g>
   <g id="patch_116">
    <path d="M 122.43507 153.208705 
C 121.497979 153.116409 120.565984 152.978161 119.642452 152.794459 
C 118.71892 152.610757 117.804964 152.381823 116.903885 152.108484 
L 116.903885 152.108484 
C 117.804964 152.381823 118.71892 152.610757 119.642452 152.794459 
C 120.565984 152.978161 121.497979 153.116409 122.43507 153.208705 
z
" clip-path="url(#p5d8f4b1ecf)" style="fill: #828282"/>
   </g>
   <g id="patch_117">
    <path d="M 119.119426 144.804823 
C 118.457407 144.604002 117.805647 144.370798 117.166499 144.106054 
C 116.527351 143.841311 115.901587 143.545346 115.291467 143.21923 
L 115.291467 143.21923 
C 115.901587 143.545346 116.527351 143.841311 117.166499 144.106054 
C 117.805647 144.370798 118.457407 144.604002 119.119426 144.804823 
z
" clip-path="url(#p5d8f4b1ecf)" style="fill: #828282"/>
   </g>
   <g id="patch_118">
    <path d="M 110.301519 152.554765 
C 109.385833 152.06532 108.494729 151.531213 107.631425 150.954372 
C 106.768122 150.377531 105.93366 149.758652 105.131055 149.099971 
L 105.131055 149.099971 
C 105.93366 149.758652 106.768122 150.377531 107.631425 150.954372 
C 108.494729 151.531213 109.385833 152.06532 110.301519 152.554765 
z
" clip-path="url(#p5d8f4b1ecf)" style="fill: #828282"/>
   </g>
   <g id="patch_119">
    <path d="M 102.581266 152.206896 
C 101.676966 151.464756 100.809648 150.678665 99.982445 149.851462 
C 99.155241 149.024258 98.36915 148.15694 97.62701 147.25264 
L 97.62701 147.25264 
C 98.36915 148.15694 99.155241 149.024258 99.982445 149.851462 
C 100.809648 150.678665 101.676966 151.464756 102.581266 152.206896 
z
" clip-path="url(#p5d8f4b1ecf)" style="fill: #828282"/>
   </g>
   <g id="patch_120">
    <path d="M 93.362511 150.752424 
C 92.505818 149.70854 91.700893 148.623224 90.950643 147.500396 
C 90.200394 146.377569 89.505724 145.218583 88.869144 144.027624 
L 88.869144 144.027624 
C 89.505724 145.218583 90.200394 146.377569 90.950643 147.500396 
C 91.700893 148.623224 92.505818 149.70854 93.362511 150.752424 
z
" clip-path="url(#p5d8f4b1ecf)" style="fill: #828282"/>
   </g>
   <g id="patch_121">
    <path d="M 79.769008 148.891748 
C 78.973218 147.402929 78.251004 145.875936 77.604975 144.316284 
C 76.958946 142.756633 76.389882 141.166203 75.899836 139.55074 
L 75.899836 139.55074 
C 76.389882 141.166203 76.958946 142.756633 77.604975 144.316284 
C 78.251004 145.875936 78.973218 147.402929 79.769008 148.891748 
z
" clip-path="url(#p5d8f4b1ecf)" style="fill: #828282"/>
   </g>
   <g id="patch_122">
    <path d="M 57.21151 145.219782 
C 56.535908 142.992622 55.970061 140.733635 55.516013 138.450979 
C 55.061964 136.168322 54.720261 133.86475 54.492139 131.548581 
L 50.340701 131.957462 
C 50.582207 134.409513 50.943957 136.84823 51.424643 139.264803 
C 51.905329 141.681375 52.504373 144.072891 53.21961 146.430712 
z
" clip-path="url(#p5d8f4b1ecf)" style="fill: #828282"/>
   </g>
   <g id="patch_123">
    <path d="M 62.050193 130.804177 
C 61.846436 128.735395 61.744373 126.657855 61.744373 124.579062 
C 61.744373 122.50027 61.846436 120.42273 62.050193 118.353948 
L 62.050193 118.353948 
C 61.846436 120.42273 61.744373 122.50027 61.744373 124.579062 
C 61.744373 126.657855 61.846436 128.735395 62.050193 130.804177 
z
" clip-path="url(#p5d8f4b1ecf)" style="fill: #828282"/>
   </g>
   <g id="patch_124">
    <path d="M 80.699599 120.190754 
C 80.843235 118.732394 81.058386 117.281966 81.344274 115.844707 
C 81.630163 114.407449 81.986444 112.985093 82.411832 111.582777 
L 82.411832 111.582777 
C 81.986444 112.985093 81.630163 114.407449 81.344274 115.844707 
C 81.058386 117.281966 80.843235 118.732394 80.699599 120.190754 
z
" clip-path="url(#p5d8f4b1ecf)" style="fill: #828282"/>
   </g>
   <g id="patch_125">
    <path d="M 65.199177 106.361375 
C 65.795469 104.395663 66.487912 102.460413 67.274007 100.562613 
C 68.060101 98.664814 68.938898 96.806754 69.907224 94.995143 
L 66.551898 93.201684 
C 65.52487 95.12312 64.592798 97.093821 63.759048 99.10667 
C 62.925299 101.119519 62.190877 103.17209 61.558436 105.256968 
z
" clip-path="url(#p5d8f4b1ecf)" style="fill: #828282"/>
   </g>
   <g id="patch_126">
    <path d="M 55.351898 87.215159 
C 56.574874 84.927132 57.909449 82.700528 59.350803 80.54339 
C 60.792156 78.386252 62.33855 76.301181 63.984399 74.295708 
L 59.048866 70.245221 
C 57.270439 72.412242 55.599478 74.665272 54.042019 76.996174 
C 52.48456 79.327076 51.04248 81.73304 49.720989 84.205376 
z
" clip-path="url(#p5d8f4b1ecf)" style="fill: #828282"/>
   </g>
   <g id="patch_127">
    <path d="M 51.991737 64.453585 
C 53.959734 62.055574 56.04428 59.755632 58.237846 57.562065 
C 60.431413 55.368499 62.731355 53.283953 65.129366 51.315956 
L 65.129366 51.315956 
C 62.731355 53.283953 60.431413 55.368499 58.237846 57.562065 
C 56.04428 59.755632 53.959734 62.055574 51.991737 64.453585 
z
" clip-path="url(#p5d8f4b1ecf)" style="fill: #828282"/>
   </g>
   <g id="patch_128">
    <path d="M 62.872367 48.565795 
C 65.360395 46.523923 67.947173 44.605437 70.623359 42.817267 
C 73.299544 41.029097 76.061911 39.373398 78.900482 37.856151 
L 78.900482 37.856151 
C 76.061911 39.373398 73.299544 41.029097 70.623359 42.817267 
C 67.947173 44.605437 65.360395 46.523923 62.872367 48.565795 
z
" clip-path="url(#p5d8f4b1ecf)" style="fill: #828282"/>
   </g>
   <g id="patch_129">
    <path d="M 78.10425 36.366505 
C 80.991578 34.823196 83.952939 33.422577 86.977635 32.169706 
C 90.002331 30.916836 93.086717 29.813225 96.219651 28.86286 
L 96.219651 28.86286 
C 93.086717 29.813225 90.002331 30.916836 86.977635 32.169706 
C 83.952939 33.422577 80.991578 34.823196 78.10425 36.366505 
z
" clip-path="url(#p5d8f4b1ecf)" style="fill: #828282"/>
   </g>
   <g id="patch_130">
    <path d="M 98.137824 35.186229 
C 101.063785 34.298649 104.03156 33.55526 107.03043 32.958747 
C 110.0293 32.362235 113.055649 31.913319 116.098547 31.613619 
L 115.237031 22.866502 
C 111.907827 23.1944 108.596728 23.685555 105.315695 24.338193 
C 102.034662 24.990831 98.787649 25.804166 95.586384 26.775259 
z
" clip-path="url(#p5d8f4b1ecf)" style="fill: #828282"/>
   </g>
   <g id="patch_131">
    <path d="M 125.254844 124.579063 
C 125.254844 124.579063 125.254844 124.579063 125.254844 124.579063 
C 125.254844 124.579063 125.254844 124.579063 125.254844 124.579063 
L 136.122985 14.232977 
C 132.511192 13.877247 128.884112 13.69906 125.254844 13.69906 
C 121.625576 13.69906 117.998495 13.877247 114.386703 14.232977 
L 125.254844 124.579063 
z
" clip-path="url(#p5d8f4b1ecf)" style="fill: none; stroke: #292929; stroke-width: 0.5; stroke-linejoin: miter"/>
   </g>
   <g id="patch_132">
    <path d="M 125.254844 124.579063 
C 125.254844 124.579063 125.254844 124.579063 125.254844 124.579063 
C 125.254844 124.579063 125.254844 124.579063 125.254844 124.579063 
L 154.88501 26.901495 
C 151.687877 25.931655 148.445055 25.119371 145.168257 24.467575 
C 141.891458 23.815779 138.584633 23.325258 135.259726 22.997783 
L 125.254844 124.579063 
z
" clip-path="url(#p5d8f4b1ecf)" style="fill: none; stroke: #292929; stroke-width: 0.5; stroke-linejoin: miter"/>
   </g>
   <g id="patch_133">
    <path d="M 125.254844 124.579063 
C 125.254844 124.579063 125.254844 124.579063 125.254844 124.579063 
C 125.254844 124.579063 125.254844 124.579063 125.254844 124.579063 
L 171.105043 38.799373 
C 168.297346 37.298627 165.417658 35.936637 162.476382 34.71832 
C 159.535106 33.500003 156.535786 32.42683 153.489257 31.502675 
L 125.254844 124.579063 
z
" clip-path="url(#p5d8f4b1ecf)" style="fill: none; stroke: #292929; stroke-width: 0.5; stroke-linejoin: miter"/>
   </g>
   <g id="patch_134">
    <path d="M 125.254844 124.579063 
C 125.254844 124.579063 125.254844 124.579063 125.254844 124.579063 
C 125.254844 124.579063 125.254844 124.579063 125.254844 124.579063 
L 194.162338 40.615038 
C 191.41407 38.359593 188.556722 36.24044 185.600616 34.265232 
C 182.644509 32.290025 179.593207 30.461145 176.457731 28.785198 
L 125.254844 124.579063 
z
" clip-path="url(#p5d8f4b1ecf)" style="fill: none; stroke: #292929; stroke-width: 0.5; stroke-linejoin: miter"/>
   </g>
   <g id="patch_135">
    <path d="M 125.254844 124.579063 
C 125.254844 124.579063 125.254844 124.579063 125.254844 124.579063 
C 125.254844 124.579063 125.254844 124.579063 125.254844 124.579063 
L 191.399359 70.295661 
C 189.622583 68.130653 187.740581 66.054184 185.760152 64.073754 
C 183.779723 62.093325 181.703254 60.211324 179.538245 58.434547 
L 125.254844 124.579063 
z
" clip-path="url(#p5d8f4b1ecf)" style="fill: none; stroke: #292929; stroke-width: 0.5; stroke-linejoin: miter"/>
   </g>
   <g id="patch_136">
    <path d="M 125.254844 124.579063 
C 125.254844 124.579063 125.254844 124.579063 125.254844 124.579063 
C 125.254844 124.579063 125.254844 124.579063 125.254844 124.579063 
L 209.535216 79.530265 
C 208.060702 76.771642 206.451636 74.087077 204.713829 71.486266 
C 202.976023 68.885455 201.111571 66.371533 199.127208 63.95358 
L 125.254844 124.579063 
z
" clip-path="url(#p5d8f4b1ecf)" style="fill: none; stroke: #292929; stroke-width: 0.5; stroke-linejoin: miter"/>
   </g>
   <g id="patch_137">
    <path d="M 125.254844 124.579063 
C 125.254844 124.579063 125.254844 124.579063 125.254844 124.579063 
C 125.254844 124.579063 125.254844 124.579063 125.254844 124.579063 
L 216.485739 96.904473 
C 215.579909 93.918349 214.528014 90.9785 213.333854 88.095542 
C 212.139694 85.212585 210.804708 82.389995 209.333719 79.637967 
L 125.254844 124.579063 
z
" clip-path="url(#p5d8f4b1ecf)" style="fill: none; stroke: #292929; stroke-width: 0.5; stroke-linejoin: miter"/>
   </g>
   <g id="patch_138">
    <path d="M 125.254844 124.579063 
C 125.254844 124.579063 125.254844 124.579063 125.254844 124.579063 
C 125.254844 124.579063 125.254844 124.579063 125.254844 124.579063 
L 200.288259 117.188916 
C 200.046368 114.73296 199.684043 112.290361 199.202591 109.869941 
C 198.72114 107.449521 198.121142 105.054197 197.404767 102.692623 
L 125.254844 124.579063 
z
" clip-path="url(#p5d8f4b1ecf)" style="fill: none; stroke: #292929; stroke-width: 0.5; stroke-linejoin: miter"/>
   </g>
   <g id="patch_139">
    <path d="M 125.254844 124.579063 
C 125.254844 124.579063 125.254844 124.579063 125.254844 124.579063 
C 125.254844 124.579063 125.254844 124.579063 125.254844 124.579063 
L 201.253792 132.064306 
C 201.498795 129.576747 201.621519 127.078658 201.621519 124.579063 
C 201.621519 122.079467 201.498795 119.581378 201.253792 117.093819 
L 125.254844 124.579063 
z
" clip-path="url(#p5d8f4b1ecf)" style="fill: none; stroke: #292929; stroke-width: 0.5; stroke-linejoin: miter"/>
   </g>
   <g id="patch_140">
    <path d="M 125.254844 124.579063 
C 125.254844 124.579063 125.254844 124.579063 125.254844 124.579063 
C 125.254844 124.579063 125.254844 124.579063 125.254844 124.579063 
L 173.243003 139.136112 
C 173.719477 137.565387 174.118546 135.972216 174.438768 134.362353 
C 174.758989 132.75249 174.999978 131.127875 175.160864 129.494376 
L 125.254844 124.579063 
z
" clip-path="url(#p5d8f4b1ecf)" style="fill: none; stroke: #292929; stroke-width: 0.5; stroke-linejoin: miter"/>
   </g>
   <g id="patch_141">
    <path d="M 125.254844 124.579063 
C 125.254844 124.579063 125.254844 124.579063 125.254844 124.579063 
C 125.254844 124.579063 125.254844 124.579063 125.254844 124.579063 
L 172.426728 149.79296 
C 173.252016 148.248953 174.001001 146.665359 174.670976 145.047895 
C 175.340952 143.430431 175.93111 141.781048 176.43932 140.105704 
L 125.254844 124.579063 
z
" clip-path="url(#p5d8f4b1ecf)" style="fill: none; stroke: #292929; stroke-width: 0.5; stroke-linejoin: miter"/>
   </g>
   <g id="patch_142">
    <path d="M 125.254844 124.579063 
C 125.254844 124.579063 125.254844 124.579063 125.254844 124.579063 
C 125.254844 124.579063 125.254844 124.579063 125.254844 124.579063 
L 164.124159 156.478285 
C 165.168268 155.206034 166.149284 153.883288 167.063663 152.514823 
C 167.978042 151.146358 168.824683 149.733824 169.600526 148.282323 
L 125.254844 124.579063 
z
" clip-path="url(#p5d8f4b1ecf)" style="fill: none; stroke: #292929; stroke-width: 0.5; stroke-linejoin: miter"/>
   </g>
   <g id="patch_143">
    <path d="M 125.254844 124.579063 
C 125.254844 124.579063 125.254844 124.579063 125.254844 124.579063 
C 125.254844 124.579063 125.254844 124.579063 125.254844 124.579063 
L 143.523547 146.839541 
C 144.252165 146.241579 144.950987 145.608205 145.617486 144.941705 
C 146.283986 144.275205 146.917361 143.576384 147.515323 142.847765 
L 125.254844 124.579063 
z
" clip-path="url(#p5d8f4b1ecf)" style="fill: none; stroke: #292929; stroke-width: 0.5; stroke-linejoin: miter"/>
   </g>
   <g id="patch_144">
    <path d="M 125.254844 124.579063 
C 125.254844 124.579063 125.254844 124.579063 125.254844 124.579063 
C 125.254844 124.579063 125.254844 124.579063 125.254844 124.579063 
L 137.053616 146.653013 
C 137.77613 146.266822 138.479247 145.84539 139.160427 145.390239 
C 139.841608 144.935089 140.500032 144.446768 141.13332 143.927042 
L 125.254844 124.579063 
z
" clip-path="url(#p5d8f4b1ecf)" style="fill: none; stroke: #292929; stroke-width: 0.5; stroke-linejoin: miter"/>
   </g>
   <g id="patch_145">
    <path d="M 125.254844 124.579063 
C 125.254844 124.579063 125.254844 124.579063 125.254844 124.579063 
C 125.254844 124.579063 125.254844 124.579063 125.254844 124.579063 
L 129.814242 139.609385 
C 130.306207 139.460149 130.790548 139.286849 131.265517 139.090111 
C 131.740485 138.893372 132.205508 138.673433 132.658905 138.431087 
L 125.254844 124.579063 
z
" clip-path="url(#p5d8f4b1ecf)" style="fill: none; stroke: #292929; stroke-width: 0.5; stroke-linejoin: miter"/>
   </g>
   <g id="patch_146">
    <path d="M 125.254844 124.579063 
C 125.254844 124.579063 125.254844 124.579063 125.254844 124.579063 
C 125.254844 124.579063 125.254844 124.579063 125.254844 124.579063 
L 126.181902 133.991641 
C 126.48999 133.961297 126.796402 133.915845 127.100032 133.855449 
C 127.403662 133.795054 127.704144 133.719787 128.000392 133.629921 
L 125.254844 124.579063 
z
" clip-path="url(#p5d8f4b1ecf)" style="fill: none; stroke: #292929; stroke-width: 0.5; stroke-linejoin: miter"/>
   </g>
   <g id="patch_147">
    <path d="M 125.254844 124.579063 
C 125.254844 124.579063 125.254844 124.579063 125.254844 124.579063 
C 125.254844 124.579063 125.254844 124.579063 125.254844 124.579063 
L 122.72336 150.281645 
C 123.564644 150.364504 124.409489 150.406008 125.254844 150.406008 
C 126.100198 150.406008 126.945043 150.364504 127.786327 150.281645 
L 125.254844 124.579063 
z
" clip-path="url(#p5d8f4b1ecf)" style="fill: none; stroke: #292929; stroke-width: 0.5; stroke-linejoin: miter"/>
   </g>
   <g id="patch_148">
    <path d="M 125.254844 124.579063 
C 125.254844 124.579063 125.254844 124.579063 125.254844 124.579063 
C 125.254844 124.579063 125.254844 124.579063 125.254844 124.579063 
L 116.903885 152.108484 
C 117.804964 152.381823 118.71892 152.610757 119.642452 152.794459 
C 120.565984 152.978161 121.497979 153.116409 122.43507 153.208705 
L 125.254844 124.579063 
z
" clip-path="url(#p5d8f4b1ecf)" style="fill: none; stroke: #292929; stroke-width: 0.5; stroke-linejoin: miter"/>
   </g>
   <g id="patch_149">
    <path d="M 125.254844 124.579063 
C 125.254844 124.579063 125.254844 124.579063 125.254844 124.579063 
C 125.254844 124.579063 125.254844 124.579063 125.254844 124.579063 
L 115.291467 143.21923 
C 115.901587 143.545346 116.527351 143.841311 117.166499 144.106054 
C 117.805647 144.370798 118.457407 144.604002 119.119426 144.804823 
L 125.254844 124.579063 
z
" clip-path="url(#p5d8f4b1ecf)" style="fill: none; stroke: #292929; stroke-width: 0.5; stroke-linejoin: miter"/>
   </g>
   <g id="patch_150">
    <path d="M 125.254844 124.579063 
C 125.254844 124.579063 125.254844 124.579063 125.254844 124.579063 
C 125.254844 124.579063 125.254844 124.579063 125.254844 124.579063 
L 105.131055 149.099971 
C 105.93366 149.758652 106.768122 150.377531 107.631425 150.954372 
C 108.494729 151.531213 109.385833 152.06532 110.301519 152.554765 
L 125.254844 124.579063 
z
" clip-path="url(#p5d8f4b1ecf)" style="fill: none; stroke: #292929; stroke-width: 0.5; stroke-linejoin: miter"/>
   </g>
   <g id="patch_151">
    <path d="M 125.254844 124.579063 
C 125.254844 124.579063 125.254844 124.579063 125.254844 124.579063 
C 125.254844 124.579063 125.254844 124.579063 125.254844 124.579063 
L 97.62701 147.25264 
C 98.36915 148.15694 99.155241 149.024258 99.982445 149.851462 
C 100.809648 150.678665 101.676966 151.464756 102.581266 152.206896 
L 125.254844 124.579063 
z
" clip-path="url(#p5d8f4b1ecf)" style="fill: none; stroke: #292929; stroke-width: 0.5; stroke-linejoin: miter"/>
   </g>
   <g id="patch_152">
    <path d="M 125.254844 124.579063 
C 125.254844 124.579063 125.254844 124.579063 125.254844 124.579063 
C 125.254844 124.579063 125.254844 124.579063 125.254844 124.579063 
L 88.869144 144.027624 
C 89.505724 145.218583 90.200394 146.377569 90.950643 147.500396 
C 91.700893 148.623224 92.505818 149.70854 93.362511 150.752424 
L 125.254844 124.579063 
z
" clip-path="url(#p5d8f4b1ecf)" style="fill: none; stroke: #292929; stroke-width: 0.5; stroke-linejoin: miter"/>
   </g>
   <g id="patch_153">
    <path d="M 125.254844 124.579063 
C 125.254844 124.579063 125.254844 124.579063 125.254844 124.579063 
C 125.254844 124.579063 125.254844 124.579063 125.254844 124.579063 
L 75.899836 139.55074 
C 76.389882 141.166203 76.958946 142.756633 77.604975 144.316284 
C 78.251004 145.875936 78.973218 147.402929 79.769008 148.891748 
L 125.254844 124.579063 
z
" clip-path="url(#p5d8f4b1ecf)" style="fill: none; stroke: #292929; stroke-width: 0.5; stroke-linejoin: miter"/>
   </g>
   <g id="patch_154">
    <path d="M 125.254844 124.579063 
C 125.254844 124.579063 125.254844 124.579063 125.254844 124.579063 
C 125.254844 124.579063 125.254844 124.579063 125.254844 124.579063 
L 50.340701 131.957462 
C 50.582207 134.409513 50.943957 136.84823 51.424643 139.264803 
C 51.905329 141.681375 52.504373 144.072891 53.21961 146.430712 
L 125.254844 124.579063 
z
" clip-path="url(#p5d8f4b1ecf)" style="fill: none; stroke: #292929; stroke-width: 0.5; stroke-linejoin: miter"/>
   </g>
   <g id="patch_155">
    <path d="M 125.254844 124.579063 
C 125.254844 124.579063 125.254844 124.579063 125.254844 124.579063 
C 125.254844 124.579063 125.254844 124.579063 125.254844 124.579063 
L 62.050193 118.353948 
C 61.846436 120.42273 61.744373 122.50027 61.744373 124.579062 
C 61.744373 126.657855 61.846436 128.735395 62.050193 130.804177 
L 125.254844 124.579063 
z
" clip-path="url(#p5d8f4b1ecf)" style="fill: none; stroke: #292929; stroke-width: 0.5; stroke-linejoin: miter"/>
   </g>
   <g id="patch_156">
    <path d="M 125.254844 124.579063 
C 125.254844 124.579063 125.254844 124.579063 125.254844 124.579063 
C 125.254844 124.579063 125.254844 124.579063 125.254844 124.579063 
L 82.411832 111.582777 
C 81.986444 112.985093 81.630163 114.407449 81.344274 115.844707 
C 81.058386 117.281966 80.843235 118.732394 80.699599 120.190754 
L 125.254844 124.579063 
z
" clip-path="url(#p5d8f4b1ecf)" style="fill: none; stroke: #292929; stroke-width: 0.5; stroke-linejoin: miter"/>
   </g>
   <g id="patch_157">
    <path d="M 125.254844 124.579063 
C 125.254844 124.579063 125.254844 124.579063 125.254844 124.579063 
C 125.254844 124.579063 125.254844 124.579063 125.254844 124.579063 
L 66.551898 93.201684 
C 65.52487 95.12312 64.592798 97.093821 63.759048 99.10667 
C 62.925299 101.119519 62.190877 103.17209 61.558436 105.256968 
L 125.254844 124.579063 
z
" clip-path="url(#p5d8f4b1ecf)" style="fill: none; stroke: #292929; stroke-width: 0.5; stroke-linejoin: miter"/>
   </g>
   <g id="patch_158">
    <path d="M 125.254844 124.579063 
C 125.254844 124.579063 125.254844 124.579063 125.254844 124.579063 
C 125.254844 124.579063 125.254844 124.579063 125.254844 124.579063 
L 59.048866 70.245221 
C 57.270439 72.412242 55.599478 74.665272 54.042019 76.996174 
C 52.48456 79.327076 51.04248 81.73304 49.720989 84.205376 
L 125.254844 124.579063 
z
" clip-path="url(#p5d8f4b1ecf)" style="fill: none; stroke: #292929; stroke-width: 0.5; stroke-linejoin: miter"/>
   </g>
   <g id="patch_159">
    <path d="M 125.254844 124.579063 
C 125.254844 124.579063 125.254844 124.579063 125.254844 124.579063 
C 125.254844 124.579063 125.254844 124.579063 125.254844 124.579063 
L 65.129366 51.315956 
C 62.731355 53.283953 60.431413 55.368499 58.237846 57.562065 
C 56.04428 59.755632 53.959734 62.055574 51.991737 64.453585 
L 125.254844 124.579063 
z
" clip-path="url(#p5d8f4b1ecf)" style="fill: none; stroke: #292929; stroke-width: 0.5; stroke-linejoin: miter"/>
   </g>
   <g id="patch_160">
    <path d="M 125.254844 124.579063 
C 125.254844 124.579063 125.254844 124.579063 125.254844 124.579063 
C 125.254844 124.579063 125.254844 124.579063 125.254844 124.579063 
L 78.900482 37.856151 
C 76.061911 39.373398 73.299544 41.029097 70.623359 42.817267 
C 67.947173 44.605437 65.360395 46.523923 62.872367 48.565795 
L 125.254844 124.579063 
z
" clip-path="url(#p5d8f4b1ecf)" style="fill: none; stroke: #292929; stroke-width: 0.5; stroke-linejoin: miter"/>
   </g>
   <g id="patch_161">
    <path d="M 125.254844 124.579063 
C 125.254844 124.579063 125.254844 124.579063 125.254844 124.579063 
C 125.254844 124.579063 125.254844 124.579063 125.254844 124.579063 
L 96.219651 28.86286 
C 93.086717 29.813225 90.002331 30.916836 86.977635 32.169706 
C 83.952939 33.422577 80.991578 34.823196 78.10425 36.366505 
L 125.254844 124.579063 
z
" clip-path="url(#p5d8f4b1ecf)" style="fill: none; stroke: #292929; stroke-width: 0.5; stroke-linejoin: miter"/>
   </g>
   <g id="patch_162">
    <path d="M 125.254844 124.579063 
C 125.254844 124.579063 125.254844 124.579063 125.254844 124.579063 
C 125.254844 124.579063 125.254844 124.579063 125.254844 124.579063 
L 115.237031 22.866502 
C 111.907827 23.1944 108.596728 23.685555 105.315695 24.338193 
C 102.034662 24.990831 98.787649 25.804166 95.586384 26.775259 
L 125.254844 124.579063 
z
" clip-path="url(#p5d8f4b1ecf)" style="fill: none; stroke: #292929; stroke-width: 0.5; stroke-linejoin: miter"/>
   </g>
   <g id="PathCollection_1">
    <defs>
     <path id="mb1a9a8b443" d="M 0.193618 7.414054 
L 0.193618 7.414054 
C 0.054922 7.414054 -0.078235 7.358899 -0.176308 7.260826 
C -0.274381 7.162753 -0.329536 7.029596 -0.329536 6.890901 
L -0.329536 5.365008 
L -1.528416 6.56393 
L -1.528416 6.56393 
C -1.577018 6.612704 -1.634775 6.651408 -1.698366 6.677814 
C -1.761958 6.704221 -1.830141 6.717815 -1.898997 6.717815 
C -1.967853 6.717815 -2.036037 6.704221 -2.099628 6.677814 
C -2.163219 6.651408 -2.220976 6.612704 -2.269578 6.56393 
L -2.269578 6.56393 
C -2.318353 6.515327 -2.357056 6.457571 -2.383463 6.393979 
C -2.409869 6.330388 -2.423463 6.262205 -2.423463 6.193348 
C -2.423463 6.124492 -2.409869 6.056309 -2.383463 5.992718 
C -2.357056 5.929126 -2.318353 5.87137 -2.269578 5.822767 
L -0.329536 3.884106 
L -0.329536 0.820937 
L -2.98067 2.351538 
L -3.691824 5.001416 
L -3.691824 5.001416 
C -3.727584 5.135411 -3.815199 5.249836 -3.93523 5.319305 
C -4.055261 5.388775 -4.198123 5.407741 -4.332122 5.371997 
L -4.332122 5.371997 
C -4.466126 5.336237 -4.580558 5.248616 -4.650029 5.128576 
C -4.719499 5.008535 -4.73846 4.865662 -4.702703 4.731657 
L -4.262647 3.092721 
L -5.585535 3.855668 
L -5.585535 3.855668 
C -5.645013 3.890144 -5.710708 3.912561 -5.778854 3.921634 
C -5.847001 3.930706 -5.916272 3.926258 -5.982698 3.908543 
C -6.049125 3.890828 -6.111412 3.860192 -6.165991 3.818391 
C -6.220571 3.77659 -6.266379 3.724437 -6.300791 3.664922 
L -6.300791 3.664922 
C -6.335212 3.605364 -6.35755 3.539597 -6.366524 3.471396 
C -6.375498 3.403194 -6.370933 3.333888 -6.35309 3.267452 
C -6.335248 3.201017 -6.304476 3.138749 -6.26254 3.08422 
C -6.220605 3.029692 -6.168323 2.983966 -6.108695 2.949666 
L -4.785807 2.186762 
L -6.424743 1.746706 
L -6.424743 1.746706 
C -6.558747 1.710946 -6.673179 1.623325 -6.74265 1.503284 
C -6.81212 1.383244 -6.831081 1.240371 -6.795324 1.106366 
L -6.795324 1.106366 
C -6.777471 1.039969 -6.746703 0.977739 -6.704784 0.923241 
C -6.662864 0.868744 -6.61061 0.823041 -6.551015 0.788752 
C -6.491421 0.754464 -6.425647 0.732257 -6.357465 0.723406 
C -6.289282 0.714554 -6.220019 0.71923 -6.153645 0.737166 
L -3.505232 1.44698 
L -0.852424 -0.08496 
L -3.503767 -1.615666 
L -6.153645 -0.905851 
L -6.153645 -0.905851 
C -6.22011 -0.887939 -6.289462 -0.883321 -6.357716 -0.892262 
C -6.42597 -0.901202 -6.491793 -0.923527 -6.551403 -0.957953 
C -6.611013 -0.992379 -6.663247 -1.038234 -6.705103 -1.092883 
C -6.746958 -1.147533 -6.777619 -1.209911 -6.795324 -1.276432 
L -6.795324 -1.276432 
C -6.831068 -1.410431 -6.812101 -1.553293 -6.742632 -1.673324 
C -6.673162 -1.793355 -6.558738 -1.88097 -6.424743 -1.91673 
L -4.785807 -2.355447 
L -6.108695 -3.119732 
L -6.108695 -3.119732 
C -6.228699 -3.188976 -6.316415 -3.303132 -6.352417 -3.436921 
C -6.388419 -3.57071 -6.369839 -3.713469 -6.300791 -3.833586 
L -6.300791 -3.833586 
C -6.266491 -3.893214 -6.220765 -3.945496 -6.166237 -3.987431 
C -6.111708 -4.029367 -6.04944 -4.060139 -5.983005 -4.077981 
C -5.91657 -4.095823 -5.847263 -4.100389 -5.779062 -4.091415 
C -5.71086 -4.082441 -5.645094 -4.060102 -5.585535 -4.025682 
L -4.262647 -3.261396 
L -4.702703 -4.900332 
L -4.702703 -4.900332 
C -4.73846 -5.034337 -4.719499 -5.17721 -4.650029 -5.29725 
C -4.580558 -5.417291 -4.466126 -5.504912 -4.332122 -5.540672 
L -4.332122 -5.540672 
C -4.19831 -5.576464 -4.055613 -5.557686 -3.935617 -5.488496 
C -3.81562 -5.419305 -3.727882 -5.305212 -3.691824 -5.171472 
L -2.982009 -2.521594 
L -0.329411 -0.990302 
L -0.329411 -4.051588 
L -2.269453 -5.991589 
L -2.269453 -5.991589 
C -2.318227 -6.040191 -2.356931 -6.097947 -2.383337 -6.161539 
C -2.409744 -6.22513 -2.423338 -6.293314 -2.423338 -6.36217 
C -2.423338 -6.431026 -2.409744 -6.499209 -2.383337 -6.5628 
C -2.356931 -6.626392 -2.318227 -6.684149 -2.269453 -6.732751 
L -2.269453 -6.732751 
C -2.22085 -6.781526 -2.163094 -6.820229 -2.099502 -6.846635 
C -2.035911 -6.873042 -1.967728 -6.886636 -1.898871 -6.886636 
C -1.830015 -6.886636 -1.761832 -6.873042 -1.698241 -6.846635 
C -1.634649 -6.820229 -1.576893 -6.781526 -1.52829 -6.732751 
L -0.329411 -5.533829 
L -0.329411 -7.059722 
L -0.329411 -7.059722 
C -0.329411 -7.198418 -0.274255 -7.331575 -0.176182 -7.429647 
C -0.07811 -7.52772 0.055047 -7.582875 0.193743 -7.582875 
L 0.193743 -7.582875 
C 0.332439 -7.582875 0.465596 -7.52772 0.563669 -7.429647 
C 0.661741 -7.331575 0.716897 -7.198418 0.716897 -7.059722 
L 0.716897 -5.533829 
L 1.915777 -6.732751 
L 1.915777 -6.732751 
C 1.964379 -6.781526 2.022136 -6.820229 2.085727 -6.846635 
C 2.149318 -6.873042 2.217502 -6.886636 2.286358 -6.886636 
C 2.355214 -6.886636 2.423397 -6.873042 2.486989 -6.846635 
C 2.55058 -6.820229 2.608337 -6.781526 2.656939 -6.732751 
L 2.656939 -6.732751 
C 2.705714 -6.684149 2.744417 -6.626392 2.770823 -6.5628 
C 2.79723 -6.499209 2.810824 -6.431026 2.810824 -6.36217 
C 2.810824 -6.293314 2.79723 -6.22513 2.770823 -6.161539 
C 2.744417 -6.097947 2.705714 -6.040191 2.656939 -5.991589 
L 0.716897 -4.051588 
L 0.716897 -0.991139 
L 3.369495 -2.522954 
L 4.07931 -5.171367 
L 4.07931 -5.171367 
C 4.115368 -5.305107 4.203106 -5.4192 4.323103 -5.488391 
C 4.4431 -5.557582 4.585797 -5.576359 4.719608 -5.540567 
L 4.719608 -5.540567 
C 4.853612 -5.504807 4.968045 -5.417186 5.037515 -5.297146 
C 5.106986 -5.177105 5.125946 -5.034232 5.090189 -4.900227 
L 4.650133 -3.262673 
L 5.973022 -4.025577 
L 5.973022 -4.025577 
C 6.03258 -4.059998 6.098346 -4.082336 6.166548 -4.09131 
C 6.234749 -4.100284 6.304056 -4.095719 6.370491 -4.077876 
C 6.436926 -4.060034 6.499194 -4.029262 6.553723 -3.987327 
C 6.608252 -3.945391 6.653978 -3.893109 6.688277 -3.833481 
L 6.688277 -3.833481 
C 6.757325 -3.713365 6.775905 -3.570605 6.739903 -3.436816 
C 6.703901 -3.303027 6.616186 -3.188871 6.496181 -3.119628 
L 5.173293 -2.355342 
L 6.812229 -1.916625 
L 6.812229 -1.916625 
C 6.946224 -1.880865 7.060649 -1.79325 7.130118 -1.67322 
C 7.199588 -1.553189 7.218554 -1.410326 7.18281 -1.276327 
L 7.18281 -1.276327 
C 7.165106 -1.209806 7.134445 -1.147429 7.092589 -1.092779 
C 7.050733 -1.038129 6.998499 -0.992274 6.938889 -0.957848 
C 6.879279 -0.923422 6.813456 -0.901098 6.745202 -0.892157 
C 6.676949 -0.883217 6.607597 -0.887835 6.541131 -0.905746 
L 3.891253 -1.615561 
L 1.239492 -0.084604 
L 3.892718 1.447085 
L 6.541131 0.73727 
L 6.541131 0.73727 
C 6.674948 0.701466 6.817656 0.720237 6.937662 0.789429 
C 7.057669 0.858621 7.145413 0.972721 7.181471 1.10647 
L 7.181471 1.10647 
C 7.217274 1.240293 7.198497 1.383006 7.129297 1.503014 
C 7.060096 1.623021 6.945986 1.710762 6.812229 1.74681 
L 5.173293 2.186866 
L 6.496181 2.949771 
L 6.496181 2.949771 
C 6.555697 2.984183 6.607849 3.029991 6.649651 3.08457 
C 6.691452 3.13915 6.722088 3.201437 6.739803 3.267863 
C 6.757517 3.33429 6.761966 3.403561 6.752893 3.471707 
C 6.743821 3.539854 6.721404 3.605549 6.686927 3.665026 
L 6.686927 3.665026 
C 6.617458 3.784813 6.503196 3.87225 6.369416 3.907994 
C 6.235636 3.943739 6.092989 3.924946 5.973032 3.855772 
L 4.650144 3.091487 
L 5.08886 4.731783 
L 5.08886 4.731783 
C 5.124664 4.865606 5.105887 5.008319 5.036686 5.128326 
C 4.967486 5.248334 4.853376 5.336074 4.719619 5.372123 
L 4.719619 5.372123 
C 4.585619 5.407867 4.442757 5.3889 4.322726 5.319431 
C 4.202695 5.249961 4.115081 5.135537 4.07932 5.001542 
L 3.368166 2.351664 
L 0.717033 0.821063 
L 0.717033 3.884232 
L 2.657075 5.822893 
L 2.657075 5.822893 
C 2.70585 5.871495 2.744553 5.929252 2.770959 5.992843 
C 2.797366 6.056435 2.81096 6.124618 2.81096 6.193474 
C 2.81096 6.26233 2.797366 6.330514 2.770959 6.394105 
C 2.744553 6.457696 2.70585 6.515453 2.657075 6.564055 
L 2.657075 6.564055 
C 2.608473 6.61283 2.550716 6.651533 2.487125 6.67794 
C 2.423533 6.704346 2.35535 6.71794 2.286494 6.71794 
C 2.217638 6.71794 2.149454 6.704346 2.085863 6.67794 
C 2.022272 6.651533 1.964515 6.61283 1.915913 6.564055 
L 0.717033 5.365133 
L 0.717033 6.891026 
L 0.717033 6.891026 
C 0.717033 7.029722 0.661877 7.162879 0.563805 7.260952 
C 0.465732 7.359024 0.332575 7.41418 0.193879 7.41418 
L 0.193618 7.414054 
z
"/>
    </defs>
    <g clip-path="url(#p5d8f4b1ecf)">
     <use xlink:href="#mb1a9a8b443" x="130.726896" y="66.203113" style="fill: #9e2096; fill-opacity: 0.7"/>
    </g>
   </g>
   <g id="patch_163">
    <path d="M 125.254844 13.699063 
C 110.694216 13.699063 96.275171 16.567189 82.822905 22.1393 
C 69.370638 27.711411 57.146763 35.879144 46.850844 46.175063 
C 36.554925 56.470982 28.387192 68.694857 22.815081 82.147124 
C 17.24297 95.59939 14.374844 110.018434 14.374844 124.579063 
C 14.374844 139.139691 17.24297 153.558735 22.815081 167.011001 
C 28.387192 180.463268 36.554925 192.687143 46.850844 202.983062 
C 57.146763 213.278981 69.370638 221.446714 82.822905 227.018825 
C 96.275171 232.590936 110.694216 235.459063 125.254844 235.459063 
C 139.815472 235.459063 154.234516 232.590936 167.686783 227.018825 
C 181.139049 221.446714 193.362925 213.278981 203.658844 202.983062 
C 213.954763 192.687143 222.122495 180.463268 227.694606 167.011001 
C 233.266717 153.558735 236.134844 139.139691 236.134844 124.579063 
C 236.134844 110.018434 233.266717 95.59939 227.694606 82.147124 
C 222.122495 68.694857 213.954763 56.470982 203.658844 46.175063 
C 193.362925 35.879144 181.139049 27.711411 167.686783 22.1393 
C 154.234516 16.567189 139.815472 13.699063 125.254844 13.699063 
" style="fill: none; stroke: #000000; stroke-width: 0.8; stroke-linejoin: miter; stroke-linecap: square"/>
   </g>
  </g>
 </g>
 <defs>
  <clipPath id="p5d8f4b1ecf">
   <path d="M 236.134844 124.579063 
C 236.134844 110.018434 233.266717 95.59939 227.694606 82.147124 
C 222.122495 68.694857 213.954763 56.470982 203.658844 46.175063 
C 193.362925 35.879144 181.139049 27.711411 167.686783 22.1393 
C 154.234516 16.567189 139.815472 13.699063 125.254844 13.699063 
C 110.694216 13.699063 96.275171 16.567189 82.822905 22.1393 
C 69.370638 27.711411 57.146763 35.879144 46.850844 46.175063 
C 36.554925 56.470982 28.387192 68.694857 22.815081 82.147124 
C 17.24297 95.59939 14.374844 110.018434 14.374844 124.579062 
C 14.374844 139.139691 17.24297 153.558735 22.815081 167.011001 
C 28.387192 180.463268 36.554925 192.687143 46.850844 202.983062 
C 57.146763 213.278981 69.370638 221.446714 82.822905 227.018825 
C 96.275171 232.590936 110.694216 235.459063 125.254844 235.459063 
C 139.815472 235.459063 154.234516 232.590936 167.686783 227.018825 
C 181.139049 221.446714 193.362925 213.278981 203.658844 202.983062 
C 213.954763 192.687143 222.122495 180.463268 227.694606 167.011001 
C 233.266717 153.558735 236.134844 139.139691 236.134844 124.579063 
M 125.254844 124.579063 
C 125.254844 124.579063 125.254844 124.579063 125.254844 124.579063 
C 125.254844 124.579063 125.254844 124.579063 125.254844 124.579063 
C 125.254844 124.579063 125.254844 124.579063 125.254844 124.579063 
C 125.254844 124.579063 125.254844 124.579063 125.254844 124.579063 
C 125.254844 124.579063 125.254844 124.579063 125.254844 124.579063 
C 125.254844 124.579063 125.254844 124.579063 125.254844 124.579063 
C 125.254844 124.579063 125.254844 124.579063 125.254844 124.579063 
C 125.254844 124.579063 125.254844 124.579063 125.254844 124.579063 
C 125.254844 124.579063 125.254844 124.579063 125.254844 124.579063 
C 125.254844 124.579063 125.254844 124.579063 125.254844 124.579063 
C 125.254844 124.579063 125.254844 124.579063 125.254844 124.579063 
C 125.254844 124.579063 125.254844 124.579063 125.254844 124.579063 
C 125.254844 124.579063 125.254844 124.579063 125.254844 124.579063 
C 125.254844 124.579063 125.254844 124.579063 125.254844 124.579063 
C 125.254844 124.579063 125.254844 124.579063 125.254844 124.579063 
C 125.254844 124.579063 125.254844 124.579063 125.254844 124.579063 
z
"/>
  </clipPath>
 </defs>
</svg>
