<?xml version="1.0" encoding="utf-8" standalone="no"?>
<!DOCTYPE svg PUBLIC "-//W3C//DTD SVG 1.1//EN"
  "http://www.w3.org/Graphics/SVG/1.1/DTD/svg11.dtd">
<svg xmlns:xlink="http://www.w3.org/1999/xlink" width="248.410469pt" height="249.158125pt" viewBox="0 0 248.410469 249.158125" xmlns="http://www.w3.org/2000/svg" version="1.1">
 <title>Ski Rose for シャトレーゼスキーバレー野辺山, Chateraise Ski Valley Nobeyama</title>
 <metadata>
  <rdf:RDF xmlns:dc="http://purl.org/dc/elements/1.1/" xmlns:cc="http://creativecommons.org/ns#" xmlns:rdf="http://www.w3.org/1999/02/22-rdf-syntax-ns#">
   <cc:Work>
    <dc:type rdf:resource="http://purl.org/dc/dcmitype/StillImage"/>
    <dc:title>Ski Rose for シャトレーゼスキーバレー野辺山, Chateraise Ski Valley Nobeyama</dc:title>
    <dc:date>2026-05-30T10:52:17.151958</dc:date>
    <dc:description>A 32-bin stacked histogram of downhill ski run orientations colored by difficulty.</dc:description>
    <dc:format>image/svg+xml</dc:format>
    <dc:source>https://openskimap.org/?obj=31727fb1f0f12d11c0ea3ece472f2d192fb5db9a</dc:source>
    <dc:creator>
     <cc:Agent>
      <dc:title>https://github.com/dhimmel/openskistats</dc:title>
     </cc:Agent>
    </dc:creator>
    <dc:rights>
     <cc:Agent>
      <dc:title>https://creativecommons.org/licenses/by/4.0/</dc:title>
     </cc:Agent>
    </dc:rights>
   </cc:Work>
  </rdf:RDF>
 </metadata>
 <defs>
  <style type="text/css">*{stroke-linejoin: round; stroke-linecap: butt}</style>
 </defs>
 <g id="figure_1">
  <g id="patch_1">
   <path d="M 0 249.158125 
L 248.410469 249.158125 
L 248.410469 0 
L 0 0 
z
" style="fill: #ffffff"/>
  </g>
  <g id="axes_1">
   <g id="patch_2">
    <path d="M 236.134844 124.579063 
C 236.134844 110.018434 233.266717 95.59939 227.694606 82.147124 
C 222.122495 68.694857 213.954763 56.470982 203.658844 46.175063 
C 193.362925 35.879144 181.139049 27.711411 167.686783 22.1393 
C 154.234516 16.567189 139.815472 13.699063 125.254844 13.699063 
C 110.694216 13.699063 96.275171 16.567189 82.822905 22.1393 
C 69.370638 27.711411 57.146763 35.879144 46.850844 46.175063 
C 36.554925 56.470982 28.387192 68.694857 22.815081 82.147124 
C 17.24297 95.59939 14.374844 110.018434 14.374844 124.579062 
C 14.374844 139.139691 17.24297 153.558735 22.815081 167.011001 
C 28.387192 180.463268 36.554925 192.687143 46.850844 202.983062 
C 57.146763 213.278981 69.370638 221.446714 82.822905 227.018825 
C 96.275171 232.590936 110.694216 235.459063 125.254844 235.459063 
C 139.815472 235.459063 154.234516 232.590936 167.686783 227.018825 
C 181.139049 221.446714 193.362925 213.278981 203.658844 202.983062 
C 213.954763 192.687143 222.122495 180.463268 227.694606 167.011001 
C 233.266717 153.558735 236.134844 139.139691 236.134844 124.579063 
M 125.254844 124.579063 
C 125.254844 124.579063 125.254844 124.579063 125.254844 124.579063 
C 125.254844 124.579063 125.254844 124.579063 125.254844 124.579063 
C 125.254844 124.579063 125.254844 124.579063 125.254844 124.579063 
C 125.254844 124.579063 125.254844 124.579063 125.254844 124.579063 
C 125.254844 124.579063 125.254844 124.579063 125.254844 124.579063 
C 125.254844 124.579063 125.254844 124.579063 125.254844 124.579063 
C 125.254844 124.579063 125.254844 124.579063 125.254844 124.579063 
C 125.254844 124.579063 125.254844 124.579063 125.254844 124.579063 
C 125.254844 124.579063 125.254844 124.579063 125.254844 124.579063 
C 125.254844 124.579063 125.254844 124.579063 125.254844 124.579063 
C 125.254844 124.579063 125.254844 124.579063 125.254844 124.579063 
C 125.254844 124.579063 125.254844 124.579063 125.254844 124.579063 
C 125.254844 124.579063 125.254844 124.579063 125.254844 124.579063 
C 125.254844 124.579063 125.254844 124.579063 125.254844 124.579063 
C 125.254844 124.579063 125.254844 124.579063 125.254844 124.579063 
C 125.254844 124.579063 125.254844 124.579063 125.254844 124.579063 
z
" style="fill: #ffffff"/>
   </g>
   <g id="FillBetweenPolyCollection_1">
    <defs>
     <path id="mf2565d7d45" d="M 235.533509 -135.19769 
L 234.441155 -135.092508 
L 232.997939 -133.058628 
L 231.461935 -131.074966 
L 229.860834 -129.146259 
L 228.209096 -127.275014 
L 226.761883 -125.464901 
L 225.031402 -123.708326 
L 223.267592 -122.012508 
L 221.473835 -120.378051 
L 219.900602 -118.79028 
L 218.0551 -117.275524 
L 216.187681 -115.823226 
L 214.546397 -114.405575 
L 212.641525 -113.074388 
L 210.965267 -111.769554 
L 209.27395 -110.519086 
L 207.328815 -109.367551 
L 205.614616 -108.229682 
L 203.891148 -107.145814 
L 202.160295 -106.115697 
L 200.65723 -105.078679 
L 198.915032 -104.151284 
L 197.170957 -103.276539 
L 195.653226 -102.382538 
L 193.908382 -101.60791 
L 192.388194 -100.805896 
L 190.867786 -100.047388 
L 189.348605 -99.331858 
L 187.832093 -98.658717 
L 186.319687 -98.027313 
L 184.812819 -97.43693 
L 183.312912 -96.886784 
L 182.020504 -96.276748 
L 180.535026 -95.802021 
L 179.637624 -95.051622 
L 178.513263 -94.446899 
L 177.051852 -94.068293 
L 175.785402 -93.613896 
L 174.526611 -93.189485 
L 173.276411 -92.794281 
L 172.035717 -92.427459 
L 170.805421 -92.088151 
L 169.746821 -91.656731 
L 168.535533 -91.368621 
L 167.337084 -91.105338 
L 166.299908 -90.744123 
L 165.124854 -90.526857 
L 164.103793 -90.208415 
L 163.089587 -89.909908 
L 161.952025 -89.754738 
L 160.957149 -89.494505 
L 159.970544 -89.25211 
L 158.992618 -89.026866 
L 158.023755 -88.818071 
L 157.064309 -88.625003 
L 156.114607 -88.446922 
L 155.174948 -88.283073 
L 154.245601 -88.132686 
L 153.326801 -87.994975 
L 152.506434 -87.750652 
L 151.604979 -87.637535 
L 150.714605 -87.53488 
L 149.835419 -87.441864 
L 149.038756 -87.245798 
L 148.177918 -87.172005 
L 147.392064 -86.99752 
L 146.54977 -86.940408 
L 145.775 -86.785635 
L 144.951226 -86.742665 
L 144.187642 -86.605745 
L 143.382139 -86.574398 
L 142.629666 -86.453496 
L 141.88118 -86.341108 
L 141.100348 -86.324631 
L 140.362621 -86.225734 
L 139.628745 -86.134318 
L 138.871101 -86.127937 
L 138.147279 -86.047635 
L 137.42702 -85.973853 
L 136.710231 -85.906325 
L 135.979191 -85.908315 
L 135.271082 -85.849143 
L 134.565977 -85.7954 
L 133.863734 -85.746869 
L 133.164199 -85.703342 
L 132.467208 -85.664625 
L 131.765902 -85.670514 
L 131.07477 -85.63703 
L 130.385508 -85.607801 
L 129.697918 -85.582697 
L 129.011798 -85.5616 
L 128.326938 -85.544409 
L 127.643123 -85.531041 
L 126.960137 -85.521425 
L 126.277606 -85.521366 
L 125.595751 -85.514991 
L 124.913934 -85.514657 
L 124.232038 -85.519697 
L 123.549855 -85.528397 
L 122.867161 -85.540787 
L 122.183734 -85.556915 
L 121.499357 -85.576846 
L 120.813816 -85.600661 
L 120.126899 -85.628456 
L 119.433206 -85.625578 
L 118.741661 -85.657817 
L 118.048012 -85.69448 
L 117.352078 -85.735728 
L 116.653685 -85.781741 
L 115.952667 -85.832707 
L 115.233647 -85.829969 
L 114.524878 -85.888056 
L 113.812938 -85.951835 
L 113.097706 -86.021549 
L 112.379077 -86.097451 
L 111.629798 -86.103121 
L 110.901504 -86.189311 
L 110.169472 -86.282615 
L 109.397775 -86.296712 
L 108.65525 -86.40261 
L 107.908795 -86.516632 
L 107.11296 -86.543812 
L 106.355531 -86.672905 
L 105.541672 -86.710411 
L 104.773103 -86.856389 
L 104.000611 -87.012334 
L 103.161157 -87.071425 
L 102.31038 -87.137101 
L 101.519738 -87.32241 
L 100.650516 -87.405979 
L 99.849289 -87.613751 
L 98.961922 -87.717746 
L 98.063497 -87.832066 
L 97.154152 -87.957528 
L 96.329897 -88.21542 
L 95.403619 -88.366632 
L 94.467037 -88.531172 
L 93.520413 -88.709813 
L 92.564043 -88.903314 
L 91.598251 -89.112414 
L 90.623389 -89.337838 
L 89.639837 -89.580293 
L 88.517817 -89.716926 
L 87.513966 -89.99592 
L 86.502759 -90.294114 
L 85.34152 -90.489864 
L 84.313063 -90.829263 
L 83.127105 -91.069146 
L 82.083729 -91.452701 
L 80.875765 -91.740272 
L 79.65574 -92.053538 
L 78.592938 -92.509223 
L 77.355439 -92.875138 
L 76.108386 -93.269316 
L 74.852692 -93.692584 
L 73.589291 -94.145726 
L 72.131289 -94.523201 
L 70.851779 -95.040609 
L 69.567574 -95.590105 
L 68.081071 -96.073271 
L 66.585069 -96.595016 
L 65.286609 -97.249963 
L 63.779129 -97.848661 
L 62.266241 -98.488329 
L 60.749374 -99.169682 
L 59.229962 -99.893371 
L 57.709443 -100.659982 
L 55.9659 -101.395306 
L 54.445034 -102.252815 
L 52.699151 -103.087087 
L 51.184291 -104.03748 
L 49.443021 -104.972792 
L 47.705624 -105.961142 
L 45.973988 -107.00292 
L 44.249996 -108.09844 
L 42.535531 -109.247944 
L 40.832474 -110.451603 
L 39.142704 -111.709517 
L 37.223952 -112.989576 
L 35.565445 -114.360246 
L 33.680079 -115.761416 
L 32.061104 -117.244556 
L 30.218225 -118.766374 
L 28.647346 -120.361088 
L 26.856618 -122.002414 
L 25.096145 -123.704991 
L 23.369446 -125.468203 
L 21.680938 -127.291241 
L 20.279757 -129.162374 
L 18.686153 -131.097083 
L 17.161759 -133.086173 
L 15.738026 -135.124333 
L 14.908351 -135.204221 
L 14.908351 -135.204221 
L 14.774641 -133.274043 
L 14.709305 -131.340317 
L 14.496341 -129.414883 
L 14.462449 -127.480263 
L 14.495074 -125.545648 
L 14.559921 -123.613043 
L 14.441115 -121.677303 
L 14.568621 -119.746398 
L 14.726889 -117.818883 
L 14.726796 -115.880316 
L 14.919784 -113.955005 
L 15.167426 -112.036186 
L 15.443934 -110.122182 
L 15.749003 -108.213305 
L 15.899574 -106.279266 
L 16.247151 -104.375681 
L 16.6359 -102.480289 
L 17.05307 -100.591307 
L 17.498666 -98.709093 
L 17.974166 -96.834393 
L 18.473025 -94.965843 
L 18.995769 -93.103691 
L 19.54999 -91.25045 
L 20.125077 -89.403135 
L 20.736724 -87.567255 
L 21.556155 -85.807712 
L 22.214899 -83.990549 
L 22.906642 -82.185049 
L 23.634258 -80.393174 
L 24.395894 -78.614991 
L 25.207622 -76.858986 
L 26.059561 -75.122119 
L 26.967874 -73.414105 
L 27.81282 -71.67236 
L 28.766044 -69.988326 
L 30.805046 -68.94388 
L 32.978043 -68.031766 
L 35.091557 -67.138714 
L 37.209767 -66.303297 
L 39.330208 -65.524696 
L 41.440758 -64.795056 
L 43.462521 -64.055927 
L 45.474952 -63.361799 
L 47.476108 -62.711063 
L 49.464328 -62.102182 
L 51.438148 -61.533649 
L 53.396254 -61.003952 
L 55.271113 -60.450788 
L 57.129149 -59.930192 
L 58.97565 -59.446681 
L 60.803606 -58.993007 
L 62.618287 -58.573904 
L 64.357231 -58.12098 
L 66.136418 -57.757838 
L 67.845886 -57.361809 
L 69.540818 -56.992545 
L 71.220721 -56.648861 
L 72.885155 -56.329555 
L 74.490578 -55.975094 
L 76.125038 -55.701616 
L 77.701378 -55.388341 
L 79.304739 -55.156027 
L 80.856079 -54.886962 
L 82.391962 -54.633197 
L 83.917014 -54.401354 
L 85.426506 -54.182713 
L 86.9249 -53.984088 
L 88.407816 -53.796581 
L 89.853403 -53.574758 
L 91.313677 -53.419926 
L 92.73811 -53.227603 
L 94.172145 -53.093748 
L 95.57587 -52.927681 
L 96.970207 -52.774329 
L 98.355313 -52.632999 
L 99.731377 -52.503016 
L 101.098621 -52.383723 
L 102.457297 -52.27448 
L 103.807686 -52.174673 
L 105.150102 -52.083707 
L 106.484884 -52.001014 
L 107.8124 -51.926055 
L 109.133043 -51.858317 
L 110.442544 -51.774285 
L 111.751523 -51.721665 
L 113.054879 -51.67495 
L 114.349912 -51.612463 
L 115.644155 -51.57863 
L 116.934196 -51.549679 
L 118.219554 -51.51478 
L 119.503164 -51.497046 
L 120.783477 -51.472864 
L 122.062641 -51.465608 
L 123.34016 -51.460245 
L 124.616767 -51.462669 
L 125.892927 -51.461986 
L 127.169517 -51.460647 
L 128.447155 -51.463107 
L 129.725768 -51.480095 
L 131.006862 -51.492736 
L 132.289597 -51.520357 
L 133.576158 -51.543826 
L 134.866419 -51.571903 
L 136.157743 -51.626059 
L 137.456242 -51.666381 
L 138.755963 -51.733539 
L 140.064469 -51.78743 
L 141.379015 -51.847624 
L 142.700044 -51.914573 
L 144.019462 -52.021669 
L 145.353543 -52.105495 
L 146.695221 -52.197562 
L 148.044838 -52.298437 
L 149.402706 -52.408711 
L 150.769109 -52.528999 
L 152.144302 -52.659939 
L 153.546196 -52.75728 
L 154.941123 -52.910044 
L 156.345456 -53.075549 
L 157.759318 -53.254503 
L 159.205489 -53.400055 
L 160.640295 -53.606828 
L 162.112453 -53.776254 
L 163.596413 -53.962677 
L 165.095223 -54.161431 
L 166.605822 -54.379032 
L 168.13127 -54.611094 
L 169.668322 -54.863866 
L 171.220032 -55.133238 
L 172.782991 -55.425179 
L 174.401809 -55.677559 
L 175.99344 -56.009785 
L 177.642847 -56.305687 
L 179.308116 -56.624785 
L 180.988856 -56.968299 
L 182.684624 -57.33743 
L 184.394925 -57.73336 
L 186.119218 -58.157253 
L 187.915402 -58.548611 
L 189.730292 -58.96837 
L 191.559795 -59.421368 
L 193.406442 -59.90561 
L 195.26605 -60.425612 
L 197.140988 -60.979575 
L 199.099932 -61.509399 
L 200.999544 -62.13995 
L 202.986543 -62.748477 
L 204.986521 -63.398795 
L 207.078684 -64.032605 
L 209.10114 -64.772081 
L 211.213237 -65.501495 
L 213.247716 -66.337851 
L 215.367723 -67.170827 
L 217.565432 -68.011061 
L 219.652805 -68.974414 
L 221.695557 -70.015532 
L 222.697553 -71.671988 
L 223.600417 -73.383598 
L 224.446927 -75.123714 
L 225.298042 -76.860905 
L 226.148869 -78.599006 
L 226.937529 -80.366173 
L 227.665942 -82.158997 
L 228.348387 -83.969436 
L 229.07987 -85.760476 
L 229.657591 -87.608111 
L 230.312705 -89.427194 
L 230.918423 -91.263464 
L 231.474931 -93.115239 
L 231.982468 -94.980873 
L 232.587021 -96.821074 
L 233.021713 -98.706526 
L 233.379112 -100.608489 
L 233.896044 -102.475761 
L 234.254522 -104.377166 
L 234.528665 -106.292896 
L 234.909569 -108.191054 
L 235.174394 -110.107879 
L 235.333721 -112.037159 
L 235.589574 -113.955036 
L 235.719712 -115.885289 
L 235.8933 -117.812125 
L 236.028739 -119.74257 
L 236.004508 -121.67898 
L 236.067371 -123.612016 
L 236.094151 -125.546342 
L 236.085688 -127.48127 
L 235.947894 -129.412025 
L 235.872155 -131.344707 
L 235.764102 -133.27633 
L 235.533509 -135.19769 
z
" style="stroke: #ffee9c"/>
    </defs>
    <g clip-path="url(#p2ff743a173)">
     <use xlink:href="#mf2565d7d45" x="0" y="249.158125" style="fill: #ffee9c; stroke: #ffee9c"/>
    </g>
   </g>
   <g id="matplotlib.axis_1">
    <g id="xtick_1">
     <g id="line2d_1">
      <path d="M 125.254844 124.579063 
L 125.254844 13.699063 
" clip-path="url(#p2ff743a173)" style="fill: none; stroke: #b0b0b0; stroke-width: 0.8; stroke-linecap: square"/>
     </g>
     <g id="text_1">
      <!-- N -->
      <g transform="translate(121.070469 7.958438) scale(0.1 -0.1)">
       <defs>
        <path id="DejaVuSans-Bold-4e" d="M 588 4666 
L 1931 4666 
L 3628 1466 
L 3628 4666 
L 4769 4666 
L 4769 0 
L 3425 0 
L 1728 3200 
L 1728 0 
L 588 0 
L 588 4666 
z
" transform="scale(0.015625)"/>
       </defs>
       <use xlink:href="#DejaVuSans-Bold-4e"/>
      </g>
     </g>
    </g>
    <g id="xtick_2">
     <g id="line2d_2">
      <path d="M 125.254844 124.579063 
L 203.658844 46.175063 
" clip-path="url(#p2ff743a173)" style="fill: none; stroke: #b0b0b0; stroke-width: 0.8; stroke-linecap: square"/>
     </g>
    </g>
    <g id="xtick_3">
     <g id="line2d_3">
      <path d="M 125.254844 124.579063 
L 236.134844 124.579063 
" clip-path="url(#p2ff743a173)" style="fill: none; stroke: #b0b0b0; stroke-width: 0.8; stroke-linecap: square"/>
     </g>
     <g id="text_2">
      <!-- E -->
      <g transform="translate(241.219219 127.338438) scale(0.1 -0.1)">
       <defs>
        <path id="DejaVuSans-Bold-45" d="M 588 4666 
L 3834 4666 
L 3834 3756 
L 1791 3756 
L 1791 2888 
L 3713 2888 
L 3713 1978 
L 1791 1978 
L 1791 909 
L 3903 909 
L 3903 0 
L 588 0 
L 588 4666 
z
" transform="scale(0.015625)"/>
       </defs>
       <use xlink:href="#DejaVuSans-Bold-45"/>
      </g>
     </g>
    </g>
    <g id="xtick_4">
     <g id="line2d_4">
      <path d="M 125.254844 124.579063 
L 203.658844 202.983062 
" clip-path="url(#p2ff743a173)" style="fill: none; stroke: #b0b0b0; stroke-width: 0.8; stroke-linecap: square"/>
     </g>
    </g>
    <g id="xtick_5">
     <g id="line2d_5">
      <path d="M 125.254844 124.579063 
L 125.254844 235.459063 
" clip-path="url(#p2ff743a173)" style="fill: none; stroke: #b0b0b0; stroke-width: 0.8; stroke-linecap: square"/>
     </g>
     <g id="text_3">
      <!-- S -->
      <g transform="translate(121.654062 246.718438) scale(0.1 -0.1)">
       <defs>
        <path id="DejaVuSans-Bold-53" d="M 3834 4519 
L 3834 3531 
Q 3450 3703 3084 3790 
Q 2719 3878 2394 3878 
Q 1963 3878 1756 3759 
Q 1550 3641 1550 3391 
Q 1550 3203 1689 3098 
Q 1828 2994 2194 2919 
L 2706 2816 
Q 3484 2659 3812 2340 
Q 4141 2022 4141 1434 
Q 4141 663 3683 286 
Q 3225 -91 2284 -91 
Q 1841 -91 1394 -6 
Q 947 78 500 244 
L 500 1259 
Q 947 1022 1364 901 
Q 1781 781 2169 781 
Q 2563 781 2772 912 
Q 2981 1044 2981 1288 
Q 2981 1506 2839 1625 
Q 2697 1744 2272 1838 
L 1806 1941 
Q 1106 2091 782 2419 
Q 459 2747 459 3303 
Q 459 4000 909 4375 
Q 1359 4750 2203 4750 
Q 2588 4750 2994 4692 
Q 3400 4634 3834 4519 
z
" transform="scale(0.015625)"/>
       </defs>
       <use xlink:href="#DejaVuSans-Bold-53"/>
      </g>
     </g>
    </g>
    <g id="xtick_6">
     <g id="line2d_6">
      <path d="M 125.254844 124.579063 
L 46.850844 202.983062 
" clip-path="url(#p2ff743a173)" style="fill: none; stroke: #b0b0b0; stroke-width: 0.8; stroke-linecap: square"/>
     </g>
    </g>
    <g id="xtick_7">
     <g id="line2d_7">
      <path d="M 125.254844 124.579063 
L 14.374844 124.579063 
" clip-path="url(#p2ff743a173)" style="fill: none; stroke: #b0b0b0; stroke-width: 0.8; stroke-linecap: square"/>
     </g>
     <g id="text_4">
      <!-- W -->
      <g transform="translate(0.36 127.338438) scale(0.1 -0.1)">
       <defs>
        <path id="DejaVuSans-Bold-57" d="M 191 4666 
L 1344 4666 
L 2150 1275 
L 2950 4666 
L 4109 4666 
L 4909 1275 
L 5716 4666 
L 6859 4666 
L 5759 0 
L 4372 0 
L 3525 3547 
L 2688 0 
L 1300 0 
L 191 4666 
z
" transform="scale(0.015625)"/>
       </defs>
       <use xlink:href="#DejaVuSans-Bold-57"/>
      </g>
     </g>
    </g>
    <g id="xtick_8">
     <g id="line2d_8">
      <path d="M 125.254844 124.579063 
L 46.850844 46.175063 
" clip-path="url(#p2ff743a173)" style="fill: none; stroke: #b0b0b0; stroke-width: 0.8; stroke-linecap: square"/>
     </g>
    </g>
   </g>
   <g id="matplotlib.axis_2"/>
   <g id="patch_3">
    <path d="M 125.254844 124.579063 
C 125.254844 124.579063 125.254844 124.579063 125.254844 124.579063 
C 125.254844 124.579063 125.254844 124.579063 125.254844 124.579063 
L 125.254844 124.579063 
C 125.254844 124.579063 125.254844 124.579063 125.254844 124.579063 
C 125.254844 124.579063 125.254844 124.579063 125.254844 124.579063 
z
" clip-path="url(#p2ff743a173)" style="fill: #d9d9d9"/>
   </g>
   <g id="patch_4">
    <path d="M 125.254844 124.579063 
C 125.254844 124.579063 125.254844 124.579063 125.254844 124.579063 
C 125.254844 124.579063 125.254844 124.579063 125.254844 124.579063 
L 125.254844 124.579063 
C 125.254844 124.579063 125.254844 124.579063 125.254844 124.579063 
C 125.254844 124.579063 125.254844 124.579063 125.254844 124.579063 
z
" clip-path="url(#p2ff743a173)" style="fill: #d9d9d9"/>
   </g>
   <g id="patch_5">
    <path d="M 125.254844 124.579063 
C 125.254844 124.579063 125.254844 124.579063 125.254844 124.579063 
C 125.254844 124.579063 125.254844 124.579063 125.254844 124.579063 
L 125.254844 124.579063 
C 125.254844 124.579063 125.254844 124.579063 125.254844 124.579063 
C 125.254844 124.579063 125.254844 124.579063 125.254844 124.579063 
z
" clip-path="url(#p2ff743a173)" style="fill: #d9d9d9"/>
   </g>
   <g id="patch_6">
    <path d="M 125.254844 124.579063 
C 125.254844 124.579063 125.254844 124.579063 125.254844 124.579063 
C 125.254844 124.579063 125.254844 124.579063 125.254844 124.579063 
L 125.254844 124.579063 
C 125.254844 124.579063 125.254844 124.579063 125.254844 124.579063 
C 125.254844 124.579063 125.254844 124.579063 125.254844 124.579063 
z
" clip-path="url(#p2ff743a173)" style="fill: #d9d9d9"/>
   </g>
   <g id="patch_7">
    <path d="M 125.254844 124.579063 
C 125.254844 124.579063 125.254844 124.579063 125.254844 124.579063 
C 125.254844 124.579063 125.254844 124.579063 125.254844 124.579063 
L 125.254844 124.579063 
C 125.254844 124.579063 125.254844 124.579063 125.254844 124.579063 
C 125.254844 124.579063 125.254844 124.579063 125.254844 124.579063 
z
" clip-path="url(#p2ff743a173)" style="fill: #d9d9d9"/>
   </g>
   <g id="patch_8">
    <path d="M 125.254844 124.579063 
C 125.254844 124.579063 125.254844 124.579063 125.254844 124.579063 
C 125.254844 124.579063 125.254844 124.579063 125.254844 124.579063 
L 125.254844 124.579063 
C 125.254844 124.579063 125.254844 124.579063 125.254844 124.579063 
C 125.254844 124.579063 125.254844 124.579063 125.254844 124.579063 
z
" clip-path="url(#p2ff743a173)" style="fill: #d9d9d9"/>
   </g>
   <g id="patch_9">
    <path d="M 125.254844 124.579063 
C 125.254844 124.579063 125.254844 124.579063 125.254844 124.579063 
C 125.254844 124.579063 125.254844 124.579063 125.254844 124.579063 
L 125.254844 124.579063 
C 125.254844 124.579063 125.254844 124.579063 125.254844 124.579063 
C 125.254844 124.579063 125.254844 124.579063 125.254844 124.579063 
z
" clip-path="url(#p2ff743a173)" style="fill: #d9d9d9"/>
   </g>
   <g id="patch_10">
    <path d="M 125.254844 124.579063 
C 125.254844 124.579063 125.254844 124.579063 125.254844 124.579063 
C 125.254844 124.579063 125.254844 124.579063 125.254844 124.579063 
L 125.254844 124.579063 
C 125.254844 124.579063 125.254844 124.579063 125.254844 124.579063 
C 125.254844 124.579063 125.254844 124.579063 125.254844 124.579063 
z
" clip-path="url(#p2ff743a173)" style="fill: #d9d9d9"/>
   </g>
   <g id="patch_11">
    <path d="M 125.254844 124.579063 
C 125.254844 124.579063 125.254844 124.579063 125.254844 124.579063 
C 125.254844 124.579063 125.254844 124.579063 125.254844 124.579063 
L 125.254844 124.579063 
C 125.254844 124.579063 125.254844 124.579063 125.254844 124.579063 
C 125.254844 124.579063 125.254844 124.579063 125.254844 124.579063 
z
" clip-path="url(#p2ff743a173)" style="fill: #d9d9d9"/>
   </g>
   <g id="patch_12">
    <path d="M 125.254844 124.579063 
C 125.254844 124.579063 125.254844 124.579063 125.254844 124.579063 
C 125.254844 124.579063 125.254844 124.579063 125.254844 124.579063 
L 125.254844 124.579063 
C 125.254844 124.579063 125.254844 124.579063 125.254844 124.579063 
C 125.254844 124.579063 125.254844 124.579063 125.254844 124.579063 
z
" clip-path="url(#p2ff743a173)" style="fill: #d9d9d9"/>
   </g>
   <g id="patch_13">
    <path d="M 125.254844 124.579063 
C 125.254844 124.579063 125.254844 124.579063 125.254844 124.579063 
C 125.254844 124.579063 125.254844 124.579063 125.254844 124.579063 
L 125.254844 124.579063 
C 125.254844 124.579063 125.254844 124.579063 125.254844 124.579063 
C 125.254844 124.579063 125.254844 124.579063 125.254844 124.579063 
z
" clip-path="url(#p2ff743a173)" style="fill: #d9d9d9"/>
   </g>
   <g id="patch_14">
    <path d="M 125.254844 124.579063 
C 125.254844 124.579063 125.254844 124.579063 125.254844 124.579063 
C 125.254844 124.579063 125.254844 124.579063 125.254844 124.579063 
L 125.254844 124.579063 
C 125.254844 124.579063 125.254844 124.579063 125.254844 124.579063 
C 125.254844 124.579063 125.254844 124.579063 125.254844 124.579063 
z
" clip-path="url(#p2ff743a173)" style="fill: #d9d9d9"/>
   </g>
   <g id="patch_15">
    <path d="M 125.254844 124.579063 
C 125.254844 124.579063 125.254844 124.579063 125.254844 124.579063 
C 125.254844 124.579063 125.254844 124.579063 125.254844 124.579063 
L 125.254844 124.579063 
C 125.254844 124.579063 125.254844 124.579063 125.254844 124.579063 
C 125.254844 124.579063 125.254844 124.579063 125.254844 124.579063 
z
" clip-path="url(#p2ff743a173)" style="fill: #d9d9d9"/>
   </g>
   <g id="patch_16">
    <path d="M 125.254844 124.579063 
C 125.254844 124.579063 125.254844 124.579063 125.254844 124.579063 
C 125.254844 124.579063 125.254844 124.579063 125.254844 124.579063 
L 125.254844 124.579063 
C 125.254844 124.579063 125.254844 124.579063 125.254844 124.579063 
C 125.254844 124.579063 125.254844 124.579063 125.254844 124.579063 
z
" clip-path="url(#p2ff743a173)" style="fill: #d9d9d9"/>
   </g>
   <g id="patch_17">
    <path d="M 125.254844 124.579063 
C 125.254844 124.579063 125.254844 124.579063 125.254844 124.579063 
C 125.254844 124.579063 125.254844 124.579063 125.254844 124.579063 
L 125.254844 124.579063 
C 125.254844 124.579063 125.254844 124.579063 125.254844 124.579063 
C 125.254844 124.579063 125.254844 124.579063 125.254844 124.579063 
z
" clip-path="url(#p2ff743a173)" style="fill: #d9d9d9"/>
   </g>
   <g id="patch_18">
    <path d="M 125.254844 124.579063 
C 125.254844 124.579063 125.254844 124.579063 125.254844 124.579063 
C 125.254844 124.579063 125.254844 124.579063 125.254844 124.579063 
L 125.254844 124.579063 
C 125.254844 124.579063 125.254844 124.579063 125.254844 124.579063 
C 125.254844 124.579063 125.254844 124.579063 125.254844 124.579063 
z
" clip-path="url(#p2ff743a173)" style="fill: #d9d9d9"/>
   </g>
   <g id="patch_19">
    <path d="M 125.254844 124.579063 
C 125.254844 124.579063 125.254844 124.579063 125.254844 124.579063 
C 125.254844 124.579063 125.254844 124.579063 125.254844 124.579063 
L 125.254844 124.579063 
C 125.254844 124.579063 125.254844 124.579063 125.254844 124.579063 
C 125.254844 124.579063 125.254844 124.579063 125.254844 124.579063 
z
" clip-path="url(#p2ff743a173)" style="fill: #d9d9d9"/>
   </g>
   <g id="patch_20">
    <path d="M 125.254844 124.579063 
C 125.254844 124.579063 125.254844 124.579063 125.254844 124.579063 
C 125.254844 124.579063 125.254844 124.579063 125.254844 124.579063 
L 125.254844 124.579063 
C 125.254844 124.579063 125.254844 124.579063 125.254844 124.579063 
C 125.254844 124.579063 125.254844 124.579063 125.254844 124.579063 
z
" clip-path="url(#p2ff743a173)" style="fill: #d9d9d9"/>
   </g>
   <g id="patch_21">
    <path d="M 125.254844 124.579063 
C 125.254844 124.579063 125.254844 124.579063 125.254844 124.579063 
C 125.254844 124.579063 125.254844 124.579063 125.254844 124.579063 
L 125.254844 124.579063 
C 125.254844 124.579063 125.254844 124.579063 125.254844 124.579063 
C 125.254844 124.579063 125.254844 124.579063 125.254844 124.579063 
z
" clip-path="url(#p2ff743a173)" style="fill: #d9d9d9"/>
   </g>
   <g id="patch_22">
    <path d="M 125.254844 124.579063 
C 125.254844 124.579063 125.254844 124.579063 125.254844 124.579063 
C 125.254844 124.579063 125.254844 124.579063 125.254844 124.579063 
L 125.254844 124.579063 
C 125.254844 124.579063 125.254844 124.579063 125.254844 124.579063 
C 125.254844 124.579063 125.254844 124.579063 125.254844 124.579063 
z
" clip-path="url(#p2ff743a173)" style="fill: #d9d9d9"/>
   </g>
   <g id="patch_23">
    <path d="M 125.254844 124.579063 
C 125.254844 124.579063 125.254844 124.579063 125.254844 124.579063 
C 125.254844 124.579063 125.254844 124.579063 125.254844 124.579063 
L 125.254844 124.579063 
C 125.254844 124.579063 125.254844 124.579063 125.254844 124.579063 
C 125.254844 124.579063 125.254844 124.579063 125.254844 124.579063 
z
" clip-path="url(#p2ff743a173)" style="fill: #d9d9d9"/>
   </g>
   <g id="patch_24">
    <path d="M 125.254844 124.579063 
C 125.254844 124.579063 125.254844 124.579063 125.254844 124.579063 
C 125.254844 124.579063 125.254844 124.579063 125.254844 124.579063 
L 125.254844 124.579063 
C 125.254844 124.579063 125.254844 124.579063 125.254844 124.579063 
C 125.254844 124.579063 125.254844 124.579063 125.254844 124.579063 
z
" clip-path="url(#p2ff743a173)" style="fill: #d9d9d9"/>
   </g>
   <g id="patch_25">
    <path d="M 125.254844 124.579063 
C 125.254844 124.579063 125.254844 124.579063 125.254844 124.579063 
C 125.254844 124.579063 125.254844 124.579063 125.254844 124.579063 
L 125.254844 124.579063 
C 125.254844 124.579063 125.254844 124.579063 125.254844 124.579063 
C 125.254844 124.579063 125.254844 124.579063 125.254844 124.579063 
z
" clip-path="url(#p2ff743a173)" style="fill: #d9d9d9"/>
   </g>
   <g id="patch_26">
    <path d="M 125.254844 124.579063 
C 125.254844 124.579063 125.254844 124.579063 125.254844 124.579063 
C 125.254844 124.579063 125.254844 124.579063 125.254844 124.579063 
L 125.254844 124.579063 
C 125.254844 124.579063 125.254844 124.579063 125.254844 124.579063 
C 125.254844 124.579063 125.254844 124.579063 125.254844 124.579063 
z
" clip-path="url(#p2ff743a173)" style="fill: #d9d9d9"/>
   </g>
   <g id="patch_27">
    <path d="M 125.254844 124.579063 
C 125.254844 124.579063 125.254844 124.579063 125.254844 124.579063 
C 125.254844 124.579063 125.254844 124.579063 125.254844 124.579063 
L 125.254844 124.579063 
C 125.254844 124.579063 125.254844 124.579063 125.254844 124.579063 
C 125.254844 124.579063 125.254844 124.579063 125.254844 124.579063 
z
" clip-path="url(#p2ff743a173)" style="fill: #d9d9d9"/>
   </g>
   <g id="patch_28">
    <path d="M 125.254844 124.579063 
C 125.254844 124.579063 125.254844 124.579063 125.254844 124.579063 
C 125.254844 124.579063 125.254844 124.579063 125.254844 124.579063 
L 125.254844 124.579063 
C 125.254844 124.579063 125.254844 124.579063 125.254844 124.579063 
C 125.254844 124.579063 125.254844 124.579063 125.254844 124.579063 
z
" clip-path="url(#p2ff743a173)" style="fill: #d9d9d9"/>
   </g>
   <g id="patch_29">
    <path d="M 125.254844 124.579063 
C 125.254844 124.579063 125.254844 124.579063 125.254844 124.579063 
C 125.254844 124.579063 125.254844 124.579063 125.254844 124.579063 
L 125.254844 124.579063 
C 125.254844 124.579063 125.254844 124.579063 125.254844 124.579063 
C 125.254844 124.579063 125.254844 124.579063 125.254844 124.579063 
z
" clip-path="url(#p2ff743a173)" style="fill: #d9d9d9"/>
   </g>
   <g id="patch_30">
    <path d="M 125.254844 124.579063 
C 125.254844 124.579063 125.254844 124.579063 125.254844 124.579063 
C 125.254844 124.579063 125.254844 124.579063 125.254844 124.579063 
L 125.254844 124.579063 
C 125.254844 124.579063 125.254844 124.579063 125.254844 124.579063 
C 125.254844 124.579063 125.254844 124.579063 125.254844 124.579063 
z
" clip-path="url(#p2ff743a173)" style="fill: #d9d9d9"/>
   </g>
   <g id="patch_31">
    <path d="M 125.254844 124.579063 
C 125.254844 124.579063 125.254844 124.579063 125.254844 124.579063 
C 125.254844 124.579063 125.254844 124.579063 125.254844 124.579063 
L 125.254844 124.579063 
C 125.254844 124.579063 125.254844 124.579063 125.254844 124.579063 
C 125.254844 124.579063 125.254844 124.579063 125.254844 124.579063 
z
" clip-path="url(#p2ff743a173)" style="fill: #d9d9d9"/>
   </g>
   <g id="patch_32">
    <path d="M 125.254844 124.579063 
C 125.254844 124.579063 125.254844 124.579063 125.254844 124.579063 
C 125.254844 124.579063 125.254844 124.579063 125.254844 124.579063 
L 125.254844 124.579063 
C 125.254844 124.579063 125.254844 124.579063 125.254844 124.579063 
C 125.254844 124.579063 125.254844 124.579063 125.254844 124.579063 
z
" clip-path="url(#p2ff743a173)" style="fill: #d9d9d9"/>
   </g>
   <g id="patch_33">
    <path d="M 125.254844 124.579063 
C 125.254844 124.579063 125.254844 124.579063 125.254844 124.579063 
C 125.254844 124.579063 125.254844 124.579063 125.254844 124.579063 
L 125.254844 124.579063 
C 125.254844 124.579063 125.254844 124.579063 125.254844 124.579063 
C 125.254844 124.579063 125.254844 124.579063 125.254844 124.579063 
z
" clip-path="url(#p2ff743a173)" style="fill: #d9d9d9"/>
   </g>
   <g id="patch_34">
    <path d="M 125.254844 124.579063 
C 125.254844 124.579063 125.254844 124.579063 125.254844 124.579063 
C 125.254844 124.579063 125.254844 124.579063 125.254844 124.579063 
L 125.254844 124.579063 
C 125.254844 124.579063 125.254844 124.579063 125.254844 124.579063 
C 125.254844 124.579063 125.254844 124.579063 125.254844 124.579063 
z
" clip-path="url(#p2ff743a173)" style="fill: #d9d9d9"/>
   </g>
   <g id="patch_35">
    <path d="M 125.254844 124.579063 
C 125.254844 124.579063 125.254844 124.579063 125.254844 124.579063 
C 125.254844 124.579063 125.254844 124.579063 125.254844 124.579063 
L 126.115759 115.838039 
C 125.829653 115.80986 125.542335 115.795745 125.254844 115.795745 
C 124.967353 115.795745 124.680035 115.80986 124.393928 115.838039 
z
" clip-path="url(#p2ff743a173)" style="fill: #badbb8"/>
   </g>
   <g id="patch_36">
    <path d="M 125.254844 124.579063 
C 125.254844 124.579063 125.254844 124.579063 125.254844 124.579063 
C 125.254844 124.579063 125.254844 124.579063 125.254844 124.579063 
L 125.254844 124.579063 
C 125.254844 124.579063 125.254844 124.579063 125.254844 124.579063 
C 125.254844 124.579063 125.254844 124.579063 125.254844 124.579063 
z
" clip-path="url(#p2ff743a173)" style="fill: #badbb8"/>
   </g>
   <g id="patch_37">
    <path d="M 125.254844 124.579063 
C 125.254844 124.579063 125.254844 124.579063 125.254844 124.579063 
C 125.254844 124.579063 125.254844 124.579063 125.254844 124.579063 
L 125.254844 124.579063 
C 125.254844 124.579063 125.254844 124.579063 125.254844 124.579063 
C 125.254844 124.579063 125.254844 124.579063 125.254844 124.579063 
z
" clip-path="url(#p2ff743a173)" style="fill: #badbb8"/>
   </g>
   <g id="patch_38">
    <path d="M 125.254844 124.579063 
C 125.254844 124.579063 125.254844 124.579063 125.254844 124.579063 
C 125.254844 124.579063 125.254844 124.579063 125.254844 124.579063 
L 125.254844 124.579063 
C 125.254844 124.579063 125.254844 124.579063 125.254844 124.579063 
C 125.254844 124.579063 125.254844 124.579063 125.254844 124.579063 
z
" clip-path="url(#p2ff743a173)" style="fill: #badbb8"/>
   </g>
   <g id="patch_39">
    <path d="M 125.254844 124.579063 
C 125.254844 124.579063 125.254844 124.579063 125.254844 124.579063 
C 125.254844 124.579063 125.254844 124.579063 125.254844 124.579063 
L 141.503517 111.244121 
C 141.067044 110.712278 140.604723 110.202185 140.118222 109.715684 
C 139.631722 109.229183 139.121629 108.766862 138.589785 108.330389 
z
" clip-path="url(#p2ff743a173)" style="fill: #badbb8"/>
   </g>
   <g id="patch_40">
    <path d="M 125.254844 124.579063 
C 125.254844 124.579063 125.254844 124.579063 125.254844 124.579063 
C 125.254844 124.579063 125.254844 124.579063 125.254844 124.579063 
L 125.254844 124.579063 
C 125.254844 124.579063 125.254844 124.579063 125.254844 124.579063 
C 125.254844 124.579063 125.254844 124.579063 125.254844 124.579063 
z
" clip-path="url(#p2ff743a173)" style="fill: #badbb8"/>
   </g>
   <g id="patch_41">
    <path d="M 125.254844 124.579063 
C 125.254844 124.579063 125.254844 124.579063 125.254844 124.579063 
C 125.254844 124.579063 125.254844 124.579063 125.254844 124.579063 
L 143.877602 118.929911 
C 143.692697 118.32036 143.477976 117.720255 143.234214 117.131763 
C 142.990453 116.543272 142.717946 115.967103 142.417676 115.405338 
z
" clip-path="url(#p2ff743a173)" style="fill: #badbb8"/>
   </g>
   <g id="patch_42">
    <path d="M 125.254844 124.579063 
C 125.254844 124.579063 125.254844 124.579063 125.254844 124.579063 
C 125.254844 124.579063 125.254844 124.579063 125.254844 124.579063 
L 125.254844 124.579063 
C 125.254844 124.579063 125.254844 124.579063 125.254844 124.579063 
C 125.254844 124.579063 125.254844 124.579063 125.254844 124.579063 
z
" clip-path="url(#p2ff743a173)" style="fill: #badbb8"/>
   </g>
   <g id="patch_43">
    <path d="M 125.254844 124.579063 
C 125.254844 124.579063 125.254844 124.579063 125.254844 124.579063 
C 125.254844 124.579063 125.254844 124.579063 125.254844 124.579063 
L 125.254844 124.579063 
C 125.254844 124.579063 125.254844 124.579063 125.254844 124.579063 
C 125.254844 124.579063 125.254844 124.579063 125.254844 124.579063 
z
" clip-path="url(#p2ff743a173)" style="fill: #badbb8"/>
   </g>
   <g id="patch_44">
    <path d="M 125.254844 124.579063 
C 125.254844 124.579063 125.254844 124.579063 125.254844 124.579063 
C 125.254844 124.579063 125.254844 124.579063 125.254844 124.579063 
L 125.254844 124.579063 
C 125.254844 124.579063 125.254844 124.579063 125.254844 124.579063 
C 125.254844 124.579063 125.254844 124.579063 125.254844 124.579063 
z
" clip-path="url(#p2ff743a173)" style="fill: #badbb8"/>
   </g>
   <g id="patch_45">
    <path d="M 125.254844 124.579063 
C 125.254844 124.579063 125.254844 124.579063 125.254844 124.579063 
C 125.254844 124.579063 125.254844 124.579063 125.254844 124.579063 
L 125.254844 124.579063 
C 125.254844 124.579063 125.254844 124.579063 125.254844 124.579063 
C 125.254844 124.579063 125.254844 124.579063 125.254844 124.579063 
z
" clip-path="url(#p2ff743a173)" style="fill: #badbb8"/>
   </g>
   <g id="patch_46">
    <path d="M 125.254844 124.579063 
C 125.254844 124.579063 125.254844 124.579063 125.254844 124.579063 
C 125.254844 124.579063 125.254844 124.579063 125.254844 124.579063 
L 128.149937 126.955004 
C 128.227706 126.860244 128.300774 126.761722 128.36888 126.659795 
C 128.436985 126.557868 128.500045 126.452658 128.557832 126.344547 
z
" clip-path="url(#p2ff743a173)" style="fill: #badbb8"/>
   </g>
   <g id="patch_47">
    <path d="M 125.254844 124.579063 
C 125.254844 124.579063 125.254844 124.579063 125.254844 124.579063 
C 125.254844 124.579063 125.254844 124.579063 125.254844 124.579063 
L 125.254844 124.579063 
C 125.254844 124.579063 125.254844 124.579063 125.254844 124.579063 
C 125.254844 124.579063 125.254844 124.579063 125.254844 124.579063 
z
" clip-path="url(#p2ff743a173)" style="fill: #badbb8"/>
   </g>
   <g id="patch_48">
    <path d="M 125.254844 124.579063 
C 125.254844 124.579063 125.254844 124.579063 125.254844 124.579063 
C 125.254844 124.579063 125.254844 124.579063 125.254844 124.579063 
L 125.254844 124.579063 
C 125.254844 124.579063 125.254844 124.579063 125.254844 124.579063 
C 125.254844 124.579063 125.254844 124.579063 125.254844 124.579063 
z
" clip-path="url(#p2ff743a173)" style="fill: #badbb8"/>
   </g>
   <g id="patch_49">
    <path d="M 125.254844 124.579063 
C 125.254844 124.579063 125.254844 124.579063 125.254844 124.579063 
C 125.254844 124.579063 125.254844 124.579063 125.254844 124.579063 
L 125.254844 124.579063 
C 125.254844 124.579063 125.254844 124.579063 125.254844 124.579063 
C 125.254844 124.579063 125.254844 124.579063 125.254844 124.579063 
z
" clip-path="url(#p2ff743a173)" style="fill: #badbb8"/>
   </g>
   <g id="patch_50">
    <path d="M 125.254844 124.579063 
C 125.254844 124.579063 125.254844 124.579063 125.254844 124.579063 
C 125.254844 124.579063 125.254844 124.579063 125.254844 124.579063 
L 125.254844 124.579063 
C 125.254844 124.579063 125.254844 124.579063 125.254844 124.579063 
C 125.254844 124.579063 125.254844 124.579063 125.254844 124.579063 
z
" clip-path="url(#p2ff743a173)" style="fill: #badbb8"/>
   </g>
   <g id="patch_51">
    <path d="M 125.254844 124.579063 
C 125.254844 124.579063 125.254844 124.579063 125.254844 124.579063 
C 125.254844 124.579063 125.254844 124.579063 125.254844 124.579063 
L 125.254844 124.579063 
C 125.254844 124.579063 125.254844 124.579063 125.254844 124.579063 
C 125.254844 124.579063 125.254844 124.579063 125.254844 124.579063 
z
" clip-path="url(#p2ff743a173)" style="fill: #badbb8"/>
   </g>
   <g id="patch_52">
    <path d="M 125.254844 124.579063 
C 125.254844 124.579063 125.254844 124.579063 125.254844 124.579063 
C 125.254844 124.579063 125.254844 124.579063 125.254844 124.579063 
L 125.254844 124.579063 
C 125.254844 124.579063 125.254844 124.579063 125.254844 124.579063 
C 125.254844 124.579063 125.254844 124.579063 125.254844 124.579063 
z
" clip-path="url(#p2ff743a173)" style="fill: #badbb8"/>
   </g>
   <g id="patch_53">
    <path d="M 125.254844 124.579063 
C 125.254844 124.579063 125.254844 124.579063 125.254844 124.579063 
C 125.254844 124.579063 125.254844 124.579063 125.254844 124.579063 
L 125.254844 124.579063 
C 125.254844 124.579063 125.254844 124.579063 125.254844 124.579063 
C 125.254844 124.579063 125.254844 124.579063 125.254844 124.579063 
z
" clip-path="url(#p2ff743a173)" style="fill: #badbb8"/>
   </g>
   <g id="patch_54">
    <path d="M 125.254844 124.579063 
C 125.254844 124.579063 125.254844 124.579063 125.254844 124.579063 
C 125.254844 124.579063 125.254844 124.579063 125.254844 124.579063 
L 122.344921 128.124814 
C 122.460979 128.22006 122.581643 128.30955 122.706477 128.392962 
C 122.831312 128.476374 122.960167 128.553607 123.092576 128.624381 
z
" clip-path="url(#p2ff743a173)" style="fill: #badbb8"/>
   </g>
   <g id="patch_55">
    <path d="M 125.254844 124.579063 
C 125.254844 124.579063 125.254844 124.579063 125.254844 124.579063 
C 125.254844 124.579063 125.254844 124.579063 125.254844 124.579063 
L 125.254844 124.579063 
C 125.254844 124.579063 125.254844 124.579063 125.254844 124.579063 
C 125.254844 124.579063 125.254844 124.579063 125.254844 124.579063 
z
" clip-path="url(#p2ff743a173)" style="fill: #badbb8"/>
   </g>
   <g id="patch_56">
    <path d="M 125.254844 124.579063 
C 125.254844 124.579063 125.254844 124.579063 125.254844 124.579063 
C 125.254844 124.579063 125.254844 124.579063 125.254844 124.579063 
L 115.345878 129.875515 
C 115.519239 130.19985 115.708419 130.515478 115.912736 130.82126 
C 116.117052 131.127041 116.336258 131.422606 116.569563 131.706888 
z
" clip-path="url(#p2ff743a173)" style="fill: #badbb8"/>
   </g>
   <g id="patch_57">
    <path d="M 125.254844 124.579063 
C 125.254844 124.579063 125.254844 124.579063 125.254844 124.579063 
C 125.254844 124.579063 125.254844 124.579063 125.254844 124.579063 
L 103.307713 131.236652 
C 103.525626 131.955014 103.778677 132.662245 104.065952 133.355789 
C 104.353228 134.049333 104.674381 134.728354 105.028252 135.390401 
z
" clip-path="url(#p2ff743a173)" style="fill: #badbb8"/>
   </g>
   <g id="patch_58">
    <path d="M 125.254844 124.579063 
C 125.254844 124.579063 125.254844 124.579063 125.254844 124.579063 
C 125.254844 124.579063 125.254844 124.579063 125.254844 124.579063 
L 102.891734 126.781637 
C 102.963827 127.513615 103.071815 128.241612 103.215308 128.962999 
C 103.358801 129.684386 103.537625 130.398293 103.751136 131.102141 
z
" clip-path="url(#p2ff743a173)" style="fill: #badbb8"/>
   </g>
   <g id="patch_59">
    <path d="M 125.254844 124.579063 
C 125.254844 124.579063 125.254844 124.579063 125.254844 124.579063 
C 125.254844 124.579063 125.254844 124.579063 125.254844 124.579063 
L 69.409221 119.078749 
C 69.229188 120.906659 69.139008 122.742307 69.139008 124.579062 
C 69.139008 126.415818 69.229188 128.251466 69.409221 130.079376 
z
" clip-path="url(#p2ff743a173)" style="fill: #badbb8"/>
   </g>
   <g id="patch_60">
    <path d="M 125.254844 124.579063 
C 125.254844 124.579063 125.254844 124.579063 125.254844 124.579063 
C 125.254844 124.579063 125.254844 124.579063 125.254844 124.579063 
L 91.349073 114.293859 
C 91.012422 115.403646 90.730463 116.529292 90.504212 117.666732 
C 90.277961 118.804172 90.107692 119.952035 89.994019 121.106174 
z
" clip-path="url(#p2ff743a173)" style="fill: #badbb8"/>
   </g>
   <g id="patch_61">
    <path d="M 125.254844 124.579063 
C 125.254844 124.579063 125.254844 124.579063 125.254844 124.579063 
C 125.254844 124.579063 125.254844 124.579063 125.254844 124.579063 
L 112.896192 117.973226 
C 112.679973 118.377743 112.483746 118.792632 112.308217 119.216394 
C 112.132689 119.640157 111.978073 120.072282 111.844926 120.511208 
z
" clip-path="url(#p2ff743a173)" style="fill: #badbb8"/>
   </g>
   <g id="patch_62">
    <path d="M 125.254844 124.579063 
C 125.254844 124.579063 125.254844 124.579063 125.254844 124.579063 
C 125.254844 124.579063 125.254844 124.579063 125.254844 124.579063 
L 95.588961 100.232902 
C 94.792075 101.203911 94.043343 102.213459 93.34547 103.2579 
C 92.647596 104.302342 92.001423 105.380417 91.409283 106.488233 
z
" clip-path="url(#p2ff743a173)" style="fill: #badbb8"/>
   </g>
   <g id="patch_63">
    <path d="M 125.254844 124.579063 
C 125.254844 124.579063 125.254844 124.579063 125.254844 124.579063 
C 125.254844 124.579063 125.254844 124.579063 125.254844 124.579063 
L 91.991657 84.047753 
C 90.665007 85.136506 89.392611 86.289739 88.179066 87.503284 
C 86.96552 88.71683 85.812288 89.989226 84.723534 91.315876 
z
" clip-path="url(#p2ff743a173)" style="fill: #badbb8"/>
   </g>
   <g id="patch_64">
    <path d="M 125.254844 124.579063 
C 125.254844 124.579063 125.254844 124.579063 125.254844 124.579063 
C 125.254844 124.579063 125.254844 124.579063 125.254844 124.579063 
L 101.371817 79.897063 
C 99.909309 80.67879 98.486062 81.531851 97.107219 82.453165 
C 95.728375 83.374478 94.395597 84.362934 93.113697 85.414962 
z
" clip-path="url(#p2ff743a173)" style="fill: #badbb8"/>
   </g>
   <g id="patch_65">
    <path d="M 125.254844 124.579063 
C 125.254844 124.579063 125.254844 124.579063 125.254844 124.579063 
C 125.254844 124.579063 125.254844 124.579063 125.254844 124.579063 
L 115.320376 91.829511 
C 114.248434 92.154681 113.193103 92.532284 112.158196 92.960957 
C 111.123288 93.38963 110.11005 93.868855 109.122143 94.396903 
z
" clip-path="url(#p2ff743a173)" style="fill: #badbb8"/>
   </g>
   <g id="patch_66">
    <path d="M 125.254844 124.579063 
C 125.254844 124.579063 125.254844 124.579063 125.254844 124.579063 
C 125.254844 124.579063 125.254844 124.579063 125.254844 124.579063 
L 125.254844 124.579063 
C 125.254844 124.579063 125.254844 124.579063 125.254844 124.579063 
C 125.254844 124.579063 125.254844 124.579063 125.254844 124.579063 
z
" clip-path="url(#p2ff743a173)" style="fill: #badbb8"/>
   </g>
   <g id="patch_67">
    <path d="M 124.393928 115.838039 
C 124.680035 115.80986 124.967353 115.795745 125.254844 115.795745 
C 125.542335 115.795745 125.829653 115.80986 126.115759 115.838039 
L 126.976675 107.097015 
C 126.404462 107.040657 125.829826 107.012427 125.254844 107.012427 
C 124.679862 107.012427 124.105226 107.040657 123.533012 107.097015 
z
" clip-path="url(#p2ff743a173)" style="fill: #ff8c8e"/>
   </g>
   <g id="patch_68">
    <path d="M 125.254844 124.579063 
C 125.254844 124.579063 125.254844 124.579063 125.254844 124.579063 
C 125.254844 124.579063 125.254844 124.579063 125.254844 124.579063 
L 130.636109 106.839408 
C 130.055464 106.663271 129.466521 106.515748 128.871407 106.397373 
C 128.276293 106.278997 127.675726 106.189912 127.071875 106.130438 
z
" clip-path="url(#p2ff743a173)" style="fill: #ff8c8e"/>
   </g>
   <g id="patch_69">
    <path d="M 125.254844 124.579063 
C 125.254844 124.579063 125.254844 124.579063 125.254844 124.579063 
C 125.254844 124.579063 125.254844 124.579063 125.254844 124.579063 
L 125.254844 124.579063 
C 125.254844 124.579063 125.254844 124.579063 125.254844 124.579063 
C 125.254844 124.579063 125.254844 124.579063 125.254844 124.579063 
z
" clip-path="url(#p2ff743a173)" style="fill: #ff8c8e"/>
   </g>
   <g id="patch_70">
    <path d="M 125.254844 124.579063 
C 125.254844 124.579063 125.254844 124.579063 125.254844 124.579063 
C 125.254844 124.579063 125.254844 124.579063 125.254844 124.579063 
L 150.56727 93.735782 
C 149.557723 92.907269 148.508107 92.128821 147.422213 91.40325 
C 146.336319 90.677679 145.215456 90.005859 144.063673 89.390218 
z
" clip-path="url(#p2ff743a173)" style="fill: #ff8c8e"/>
   </g>
   <g id="patch_71">
    <path d="M 138.589785 108.330389 
C 139.121629 108.766862 139.631722 109.229183 140.118222 109.715684 
C 140.604723 110.202185 141.067044 110.712278 141.503517 111.244121 
L 141.503517 111.244121 
C 141.067044 110.712278 140.604723 110.202185 140.118222 109.715684 
C 139.631722 109.229183 139.121629 108.766862 138.589785 108.330389 
z
" clip-path="url(#p2ff743a173)" style="fill: #ff8c8e"/>
   </g>
   <g id="patch_72">
    <path d="M 125.254844 124.579063 
C 125.254844 124.579063 125.254844 124.579063 125.254844 124.579063 
C 125.254844 124.579063 125.254844 124.579063 125.254844 124.579063 
L 125.254844 124.579063 
C 125.254844 124.579063 125.254844 124.579063 125.254844 124.579063 
C 125.254844 124.579063 125.254844 124.579063 125.254844 124.579063 
z
" clip-path="url(#p2ff743a173)" style="fill: #ff8c8e"/>
   </g>
   <g id="patch_73">
    <path d="M 142.417676 115.405338 
C 142.717946 115.967103 142.990453 116.543272 143.234214 117.131763 
C 143.477976 117.720255 143.692697 118.32036 143.877602 118.929911 
L 143.877602 118.929911 
C 143.692697 118.32036 143.477976 117.720255 143.234214 117.131763 
C 142.990453 116.543272 142.717946 115.967103 142.417676 115.405338 
z
" clip-path="url(#p2ff743a173)" style="fill: #ff8c8e"/>
   </g>
   <g id="patch_74">
    <path d="M 125.254844 124.579063 
C 125.254844 124.579063 125.254844 124.579063 125.254844 124.579063 
C 125.254844 124.579063 125.254844 124.579063 125.254844 124.579063 
L 125.254844 124.579063 
C 125.254844 124.579063 125.254844 124.579063 125.254844 124.579063 
C 125.254844 124.579063 125.254844 124.579063 125.254844 124.579063 
z
" clip-path="url(#p2ff743a173)" style="fill: #ff8c8e"/>
   </g>
   <g id="patch_75">
    <path d="M 125.254844 124.579063 
C 125.254844 124.579063 125.254844 124.579063 125.254844 124.579063 
C 125.254844 124.579063 125.254844 124.579063 125.254844 124.579063 
L 125.254844 124.579063 
C 125.254844 124.579063 125.254844 124.579063 125.254844 124.579063 
C 125.254844 124.579063 125.254844 124.579063 125.254844 124.579063 
z
" clip-path="url(#p2ff743a173)" style="fill: #ff8c8e"/>
   </g>
   <g id="patch_76">
    <path d="M 125.254844 124.579063 
C 125.254844 124.579063 125.254844 124.579063 125.254844 124.579063 
C 125.254844 124.579063 125.254844 124.579063 125.254844 124.579063 
L 125.254844 124.579063 
C 125.254844 124.579063 125.254844 124.579063 125.254844 124.579063 
C 125.254844 124.579063 125.254844 124.579063 125.254844 124.579063 
z
" clip-path="url(#p2ff743a173)" style="fill: #ff8c8e"/>
   </g>
   <g id="patch_77">
    <path d="M 125.254844 124.579063 
C 125.254844 124.579063 125.254844 124.579063 125.254844 124.579063 
C 125.254844 124.579063 125.254844 124.579063 125.254844 124.579063 
L 125.254844 124.579063 
C 125.254844 124.579063 125.254844 124.579063 125.254844 124.579063 
C 125.254844 124.579063 125.254844 124.579063 125.254844 124.579063 
z
" clip-path="url(#p2ff743a173)" style="fill: #ff8c8e"/>
   </g>
   <g id="patch_78">
    <path d="M 128.557832 126.344547 
C 128.500045 126.452658 128.436985 126.557868 128.36888 126.659795 
C 128.300774 126.761722 128.227706 126.860244 128.149937 126.955004 
L 128.149937 126.955004 
C 128.227706 126.860244 128.300774 126.761722 128.36888 126.659795 
C 128.436985 126.557868 128.500045 126.452658 128.557832 126.344547 
z
" clip-path="url(#p2ff743a173)" style="fill: #ff8c8e"/>
   </g>
   <g id="patch_79">
    <path d="M 125.254844 124.579063 
C 125.254844 124.579063 125.254844 124.579063 125.254844 124.579063 
C 125.254844 124.579063 125.254844 124.579063 125.254844 124.579063 
L 125.254844 124.579063 
C 125.254844 124.579063 125.254844 124.579063 125.254844 124.579063 
C 125.254844 124.579063 125.254844 124.579063 125.254844 124.579063 
z
" clip-path="url(#p2ff743a173)" style="fill: #ff8c8e"/>
   </g>
   <g id="patch_80">
    <path d="M 125.254844 124.579063 
C 125.254844 124.579063 125.254844 124.579063 125.254844 124.579063 
C 125.254844 124.579063 125.254844 124.579063 125.254844 124.579063 
L 125.254844 124.579063 
C 125.254844 124.579063 125.254844 124.579063 125.254844 124.579063 
C 125.254844 124.579063 125.254844 124.579063 125.254844 124.579063 
z
" clip-path="url(#p2ff743a173)" style="fill: #ff8c8e"/>
   </g>
   <g id="patch_81">
    <path d="M 125.254844 124.579063 
C 125.254844 124.579063 125.254844 124.579063 125.254844 124.579063 
C 125.254844 124.579063 125.254844 124.579063 125.254844 124.579063 
L 125.254844 124.579063 
C 125.254844 124.579063 125.254844 124.579063 125.254844 124.579063 
C 125.254844 124.579063 125.254844 124.579063 125.254844 124.579063 
z
" clip-path="url(#p2ff743a173)" style="fill: #ff8c8e"/>
   </g>
   <g id="patch_82">
    <path d="M 125.254844 124.579063 
C 125.254844 124.579063 125.254844 124.579063 125.254844 124.579063 
C 125.254844 124.579063 125.254844 124.579063 125.254844 124.579063 
L 125.254844 124.579063 
C 125.254844 124.579063 125.254844 124.579063 125.254844 124.579063 
C 125.254844 124.579063 125.254844 124.579063 125.254844 124.579063 
z
" clip-path="url(#p2ff743a173)" style="fill: #ff8c8e"/>
   </g>
   <g id="patch_83">
    <path d="M 125.254844 124.579063 
C 125.254844 124.579063 125.254844 124.579063 125.254844 124.579063 
C 125.254844 124.579063 125.254844 124.579063 125.254844 124.579063 
L 125.254844 124.579063 
C 125.254844 124.579063 125.254844 124.579063 125.254844 124.579063 
C 125.254844 124.579063 125.254844 124.579063 125.254844 124.579063 
z
" clip-path="url(#p2ff743a173)" style="fill: #ff8c8e"/>
   </g>
   <g id="patch_84">
    <path d="M 125.254844 124.579063 
C 125.254844 124.579063 125.254844 124.579063 125.254844 124.579063 
C 125.254844 124.579063 125.254844 124.579063 125.254844 124.579063 
L 125.254844 124.579063 
C 125.254844 124.579063 125.254844 124.579063 125.254844 124.579063 
C 125.254844 124.579063 125.254844 124.579063 125.254844 124.579063 
z
" clip-path="url(#p2ff743a173)" style="fill: #ff8c8e"/>
   </g>
   <g id="patch_85">
    <path d="M 125.254844 124.579063 
C 125.254844 124.579063 125.254844 124.579063 125.254844 124.579063 
C 125.254844 124.579063 125.254844 124.579063 125.254844 124.579063 
L 125.254844 124.579063 
C 125.254844 124.579063 125.254844 124.579063 125.254844 124.579063 
C 125.254844 124.579063 125.254844 124.579063 125.254844 124.579063 
z
" clip-path="url(#p2ff743a173)" style="fill: #ff8c8e"/>
   </g>
   <g id="patch_86">
    <path d="M 123.092576 128.624381 
C 122.960167 128.553607 122.831312 128.476374 122.706477 128.392962 
C 122.581643 128.30955 122.460979 128.22006 122.344921 128.124814 
L 122.344921 128.124814 
C 122.460979 128.22006 122.581643 128.30955 122.706477 128.392962 
C 122.831312 128.476374 122.960167 128.553607 123.092576 128.624381 
z
" clip-path="url(#p2ff743a173)" style="fill: #ff8c8e"/>
   </g>
   <g id="patch_87">
    <path d="M 125.254844 124.579063 
C 125.254844 124.579063 125.254844 124.579063 125.254844 124.579063 
C 125.254844 124.579063 125.254844 124.579063 125.254844 124.579063 
L 125.254844 124.579063 
C 125.254844 124.579063 125.254844 124.579063 125.254844 124.579063 
C 125.254844 124.579063 125.254844 124.579063 125.254844 124.579063 
z
" clip-path="url(#p2ff743a173)" style="fill: #ff8c8e"/>
   </g>
   <g id="patch_88">
    <path d="M 116.569563 131.706888 
C 116.336258 131.422606 116.117052 131.127041 115.912736 130.82126 
C 115.708419 130.515478 115.519239 130.19985 115.345878 129.875515 
L 115.345878 129.875515 
C 115.519239 130.19985 115.708419 130.515478 115.912736 130.82126 
C 116.117052 131.127041 116.336258 131.422606 116.569563 131.706888 
z
" clip-path="url(#p2ff743a173)" style="fill: #ff8c8e"/>
   </g>
   <g id="patch_89">
    <path d="M 105.028252 135.390401 
C 104.674381 134.728354 104.353228 134.049333 104.065952 133.355789 
C 103.778677 132.662245 103.525626 131.955014 103.307713 131.236652 
L 103.307713 131.236652 
C 103.525626 131.955014 103.778677 132.662245 104.065952 133.355789 
C 104.353228 134.049333 104.674381 134.728354 105.028252 135.390401 
z
" clip-path="url(#p2ff743a173)" style="fill: #ff8c8e"/>
   </g>
   <g id="patch_90">
    <path d="M 103.751136 131.102141 
C 103.537625 130.398293 103.358801 129.684386 103.215308 128.962999 
C 103.071815 128.241612 102.963827 127.513615 102.891734 126.781637 
L 101.099924 126.958114 
C 101.177794 127.748741 101.294435 128.535068 101.449425 129.314255 
C 101.604414 130.093442 101.797567 130.864549 102.028184 131.624793 
z
" clip-path="url(#p2ff743a173)" style="fill: #ff8c8e"/>
   </g>
   <g id="patch_91">
    <path d="M 69.409221 130.079376 
C 69.229188 128.251466 69.139008 126.415818 69.139008 124.579062 
C 69.139008 122.742307 69.229188 120.906659 69.409221 119.078749 
L 69.409221 119.078749 
C 69.229188 120.906659 69.139008 122.742307 69.139008 124.579062 
C 69.139008 126.415818 69.229188 128.251466 69.409221 130.079376 
z
" clip-path="url(#p2ff743a173)" style="fill: #ff8c8e"/>
   </g>
   <g id="patch_92">
    <path d="M 89.994019 121.106174 
C 90.107692 119.952035 90.277961 118.804172 90.504212 117.666732 
C 90.730463 116.529292 91.012422 115.403646 91.349073 114.293859 
L 86.240771 112.744273 
C 85.853401 114.021262 85.528961 115.3165 85.268622 116.625309 
C 85.008284 117.934117 84.812362 119.254919 84.681563 120.582943 
z
" clip-path="url(#p2ff743a173)" style="fill: #ff8c8e"/>
   </g>
   <g id="patch_93">
    <path d="M 111.844926 120.511208 
C 111.978073 120.072282 112.132689 119.640157 112.308217 119.216394 
C 112.483746 118.792632 112.679973 118.377743 112.896192 117.973226 
L 88.997115 105.198902 
C 88.362773 106.385672 87.787081 107.602871 87.272118 108.846102 
C 86.757154 110.089334 86.303541 111.357099 85.912915 112.644819 
z
" clip-path="url(#p2ff743a173)" style="fill: #ff8c8e"/>
   </g>
   <g id="patch_94">
    <path d="M 91.409283 106.488233 
C 92.001423 105.380417 92.647596 104.302342 93.34547 103.2579 
C 94.043343 102.213459 94.792075 101.203911 95.588961 100.232902 
L 95.588961 100.232902 
C 94.792075 101.203911 94.043343 102.213459 93.34547 103.2579 
C 92.647596 104.302342 92.001423 105.380417 91.409283 106.488233 
z
" clip-path="url(#p2ff743a173)" style="fill: #ff8c8e"/>
   </g>
   <g id="patch_95">
    <path d="M 84.723534 91.315876 
C 85.812288 89.989226 86.96552 88.71683 88.179066 87.503284 
C 89.392611 86.289739 90.665007 85.136506 91.991657 84.047753 
L 72.876235 60.755543 
C 70.787196 62.469973 68.78359 64.285936 66.872654 66.196872 
C 64.961717 68.107809 63.145755 70.111415 61.431324 72.200454 
z
" clip-path="url(#p2ff743a173)" style="fill: #ff8c8e"/>
   </g>
   <g id="patch_96">
    <path d="M 93.113697 85.414962 
C 94.395597 84.362934 95.728375 83.374478 97.107219 82.453165 
C 98.486062 81.531851 99.909309 80.67879 101.371817 79.897063 
L 98.479951 74.486762 
C 96.840355 75.363144 95.244776 76.319497 93.698975 77.352368 
C 92.153175 78.385239 90.659018 79.493381 89.2219 80.672794 
z
" clip-path="url(#p2ff743a173)" style="fill: #ff8c8e"/>
   </g>
   <g id="patch_97">
    <path d="M 109.122143 94.396903 
C 110.11005 93.868855 111.123288 93.38963 112.158196 92.960957 
C 113.193103 92.532284 114.248434 92.154681 115.320376 91.829511 
L 110.112182 74.660396 
C 108.478269 75.156038 106.869676 75.731602 105.292213 76.385009 
C 103.71475 77.038415 102.170318 77.768877 100.664495 78.573756 
z
" clip-path="url(#p2ff743a173)" style="fill: #ff8c8e"/>
   </g>
   <g id="patch_98">
    <path d="M 125.254844 124.579063 
C 125.254844 124.579063 125.254844 124.579063 125.254844 124.579063 
C 125.254844 124.579063 125.254844 124.579063 125.254844 124.579063 
L 120.85735 79.930559 
C 119.395938 80.074495 117.942473 80.290096 116.502206 80.576583 
C 115.06194 80.86307 113.636606 81.220097 112.231356 81.646375 
z
" clip-path="url(#p2ff743a173)" style="fill: #ff8c8e"/>
   </g>
   <g id="patch_99">
    <path d="M 123.533012 107.097015 
C 124.105226 107.040657 124.679862 107.012427 125.254844 107.012427 
C 125.829826 107.012427 126.404462 107.040657 126.976675 107.097015 
L 126.976675 107.097015 
C 126.404462 107.040657 125.829826 107.012427 125.254844 107.012427 
C 124.679862 107.012427 124.105226 107.040657 123.533012 107.097015 
z
" clip-path="url(#p2ff743a173)" style="fill: #828282"/>
   </g>
   <g id="patch_100">
    <path d="M 127.071875 106.130438 
C 127.675726 106.189912 128.276293 106.278997 128.871407 106.397373 
C 129.466521 106.515748 130.055464 106.663271 130.636109 106.839408 
L 130.636109 106.839408 
C 130.055464 106.663271 129.466521 106.515748 128.871407 106.397373 
C 128.276293 106.278997 127.675726 106.189912 127.071875 106.130438 
z
" clip-path="url(#p2ff743a173)" style="fill: #828282"/>
   </g>
   <g id="patch_101">
    <path d="M 125.254844 124.579063 
C 125.254844 124.579063 125.254844 124.579063 125.254844 124.579063 
C 125.254844 124.579063 125.254844 124.579063 125.254844 124.579063 
L 125.254844 124.579063 
C 125.254844 124.579063 125.254844 124.579063 125.254844 124.579063 
C 125.254844 124.579063 125.254844 124.579063 125.254844 124.579063 
z
" clip-path="url(#p2ff743a173)" style="fill: #828282"/>
   </g>
   <g id="patch_102">
    <path d="M 144.063673 89.390218 
C 145.215456 90.005859 146.336319 90.677679 147.422213 91.40325 
C 148.508107 92.128821 149.557723 92.907269 150.56727 93.735782 
L 150.56727 93.735782 
C 149.557723 92.907269 148.508107 92.128821 147.422213 91.40325 
C 146.336319 90.677679 145.215456 90.005859 144.063673 89.390218 
z
" clip-path="url(#p2ff743a173)" style="fill: #828282"/>
   </g>
   <g id="patch_103">
    <path d="M 138.589785 108.330389 
C 139.121629 108.766862 139.631722 109.229183 140.118222 109.715684 
C 140.604723 110.202185 141.067044 110.712278 141.503517 111.244121 
L 141.503517 111.244121 
C 141.067044 110.712278 140.604723 110.202185 140.118222 109.715684 
C 139.631722 109.229183 139.121629 108.766862 138.589785 108.330389 
z
" clip-path="url(#p2ff743a173)" style="fill: #828282"/>
   </g>
   <g id="patch_104">
    <path d="M 125.254844 124.579063 
C 125.254844 124.579063 125.254844 124.579063 125.254844 124.579063 
C 125.254844 124.579063 125.254844 124.579063 125.254844 124.579063 
L 125.254844 124.579063 
C 125.254844 124.579063 125.254844 124.579063 125.254844 124.579063 
C 125.254844 124.579063 125.254844 124.579063 125.254844 124.579063 
z
" clip-path="url(#p2ff743a173)" style="fill: #828282"/>
   </g>
   <g id="patch_105">
    <path d="M 142.417676 115.405338 
C 142.717946 115.967103 142.990453 116.543272 143.234214 117.131763 
C 143.477976 117.720255 143.692697 118.32036 143.877602 118.929911 
L 143.877602 118.929911 
C 143.692697 118.32036 143.477976 117.720255 143.234214 117.131763 
C 142.990453 116.543272 142.717946 115.967103 142.417676 115.405338 
z
" clip-path="url(#p2ff743a173)" style="fill: #828282"/>
   </g>
   <g id="patch_106">
    <path d="M 125.254844 124.579063 
C 125.254844 124.579063 125.254844 124.579063 125.254844 124.579063 
C 125.254844 124.579063 125.254844 124.579063 125.254844 124.579063 
L 125.254844 124.579063 
C 125.254844 124.579063 125.254844 124.579063 125.254844 124.579063 
C 125.254844 124.579063 125.254844 124.579063 125.254844 124.579063 
z
" clip-path="url(#p2ff743a173)" style="fill: #828282"/>
   </g>
   <g id="patch_107">
    <path d="M 125.254844 124.579063 
C 125.254844 124.579063 125.254844 124.579063 125.254844 124.579063 
C 125.254844 124.579063 125.254844 124.579063 125.254844 124.579063 
L 125.254844 124.579063 
C 125.254844 124.579063 125.254844 124.579063 125.254844 124.579063 
C 125.254844 124.579063 125.254844 124.579063 125.254844 124.579063 
z
" clip-path="url(#p2ff743a173)" style="fill: #828282"/>
   </g>
   <g id="patch_108">
    <path d="M 125.254844 124.579063 
C 125.254844 124.579063 125.254844 124.579063 125.254844 124.579063 
C 125.254844 124.579063 125.254844 124.579063 125.254844 124.579063 
L 125.254844 124.579063 
C 125.254844 124.579063 125.254844 124.579063 125.254844 124.579063 
C 125.254844 124.579063 125.254844 124.579063 125.254844 124.579063 
z
" clip-path="url(#p2ff743a173)" style="fill: #828282"/>
   </g>
   <g id="patch_109">
    <path d="M 125.254844 124.579063 
C 125.254844 124.579063 125.254844 124.579063 125.254844 124.579063 
C 125.254844 124.579063 125.254844 124.579063 125.254844 124.579063 
L 125.254844 124.579063 
C 125.254844 124.579063 125.254844 124.579063 125.254844 124.579063 
C 125.254844 124.579063 125.254844 124.579063 125.254844 124.579063 
z
" clip-path="url(#p2ff743a173)" style="fill: #828282"/>
   </g>
   <g id="patch_110">
    <path d="M 128.557832 126.344547 
C 128.500045 126.452658 128.436985 126.557868 128.36888 126.659795 
C 128.300774 126.761722 128.227706 126.860244 128.149937 126.955004 
L 128.149937 126.955004 
C 128.227706 126.860244 128.300774 126.761722 128.36888 126.659795 
C 128.436985 126.557868 128.500045 126.452658 128.557832 126.344547 
z
" clip-path="url(#p2ff743a173)" style="fill: #828282"/>
   </g>
   <g id="patch_111">
    <path d="M 125.254844 124.579063 
C 125.254844 124.579063 125.254844 124.579063 125.254844 124.579063 
C 125.254844 124.579063 125.254844 124.579063 125.254844 124.579063 
L 125.254844 124.579063 
C 125.254844 124.579063 125.254844 124.579063 125.254844 124.579063 
C 125.254844 124.579063 125.254844 124.579063 125.254844 124.579063 
z
" clip-path="url(#p2ff743a173)" style="fill: #828282"/>
   </g>
   <g id="patch_112">
    <path d="M 125.254844 124.579063 
C 125.254844 124.579063 125.254844 124.579063 125.254844 124.579063 
C 125.254844 124.579063 125.254844 124.579063 125.254844 124.579063 
L 125.254844 124.579063 
C 125.254844 124.579063 125.254844 124.579063 125.254844 124.579063 
C 125.254844 124.579063 125.254844 124.579063 125.254844 124.579063 
z
" clip-path="url(#p2ff743a173)" style="fill: #828282"/>
   </g>
   <g id="patch_113">
    <path d="M 125.254844 124.579063 
C 125.254844 124.579063 125.254844 124.579063 125.254844 124.579063 
C 125.254844 124.579063 125.254844 124.579063 125.254844 124.579063 
L 125.254844 124.579063 
C 125.254844 124.579063 125.254844 124.579063 125.254844 124.579063 
C 125.254844 124.579063 125.254844 124.579063 125.254844 124.579063 
z
" clip-path="url(#p2ff743a173)" style="fill: #828282"/>
   </g>
   <g id="patch_114">
    <path d="M 125.254844 124.579063 
C 125.254844 124.579063 125.254844 124.579063 125.254844 124.579063 
C 125.254844 124.579063 125.254844 124.579063 125.254844 124.579063 
L 125.254844 124.579063 
C 125.254844 124.579063 125.254844 124.579063 125.254844 124.579063 
C 125.254844 124.579063 125.254844 124.579063 125.254844 124.579063 
z
" clip-path="url(#p2ff743a173)" style="fill: #828282"/>
   </g>
   <g id="patch_115">
    <path d="M 125.254844 124.579063 
C 125.254844 124.579063 125.254844 124.579063 125.254844 124.579063 
C 125.254844 124.579063 125.254844 124.579063 125.254844 124.579063 
L 124.674415 130.47226 
C 124.867308 130.491258 125.061017 130.500774 125.254844 130.500774 
C 125.44867 130.500774 125.64238 130.491258 125.835273 130.47226 
z
" clip-path="url(#p2ff743a173)" style="fill: #828282"/>
   </g>
   <g id="patch_116">
    <path d="M 125.254844 124.579063 
C 125.254844 124.579063 125.254844 124.579063 125.254844 124.579063 
C 125.254844 124.579063 125.254844 124.579063 125.254844 124.579063 
L 125.254844 124.579063 
C 125.254844 124.579063 125.254844 124.579063 125.254844 124.579063 
C 125.254844 124.579063 125.254844 124.579063 125.254844 124.579063 
z
" clip-path="url(#p2ff743a173)" style="fill: #828282"/>
   </g>
   <g id="patch_117">
    <path d="M 125.254844 124.579063 
C 125.254844 124.579063 125.254844 124.579063 125.254844 124.579063 
C 125.254844 124.579063 125.254844 124.579063 125.254844 124.579063 
L 125.254844 124.579063 
C 125.254844 124.579063 125.254844 124.579063 125.254844 124.579063 
C 125.254844 124.579063 125.254844 124.579063 125.254844 124.579063 
z
" clip-path="url(#p2ff743a173)" style="fill: #828282"/>
   </g>
   <g id="patch_118">
    <path d="M 123.092576 128.624381 
C 122.960167 128.553607 122.831312 128.476374 122.706477 128.392962 
C 122.581643 128.30955 122.460979 128.22006 122.344921 128.124814 
L 122.344921 128.124814 
C 122.460979 128.22006 122.581643 128.30955 122.706477 128.392962 
C 122.831312 128.476374 122.960167 128.553607 123.092576 128.624381 
z
" clip-path="url(#p2ff743a173)" style="fill: #828282"/>
   </g>
   <g id="patch_119">
    <path d="M 125.254844 124.579063 
C 125.254844 124.579063 125.254844 124.579063 125.254844 124.579063 
C 125.254844 124.579063 125.254844 124.579063 125.254844 124.579063 
L 125.254844 124.579063 
C 125.254844 124.579063 125.254844 124.579063 125.254844 124.579063 
C 125.254844 124.579063 125.254844 124.579063 125.254844 124.579063 
z
" clip-path="url(#p2ff743a173)" style="fill: #828282"/>
   </g>
   <g id="patch_120">
    <path d="M 116.569563 131.706888 
C 116.336258 131.422606 116.117052 131.127041 115.912736 130.82126 
C 115.708419 130.515478 115.519239 130.19985 115.345878 129.875515 
L 62.454616 158.146484 
C 63.553328 160.202029 64.752299 162.202391 66.047199 164.140346 
C 67.342099 166.078301 68.731366 167.951511 70.209984 169.753212 
z
" clip-path="url(#p2ff743a173)" style="fill: #828282"/>
   </g>
   <g id="patch_121">
    <path d="M 105.028252 135.390401 
C 104.674381 134.728354 104.353228 134.049333 104.065952 133.355789 
C 103.778677 132.662245 103.525626 131.955014 103.307713 131.236652 
L 19.149299 156.765828 
C 20.20282 160.23882 21.42622 163.657995 22.815081 167.011001 
C 24.203942 170.364008 25.756589 173.646804 27.467414 176.847533 
z
" clip-path="url(#p2ff743a173)" style="fill: #828282"/>
   </g>
   <g id="patch_122">
    <path d="M 102.028184 131.624793 
C 101.797567 130.864549 101.604414 130.093442 101.449425 129.314255 
C 101.294435 128.535068 101.177794 127.748741 101.099924 126.958114 
L 69.222967 130.097721 
C 69.403601 131.931728 69.67417 133.755761 70.033699 135.563231 
C 70.393227 137.370702 70.84128 139.159431 71.37624 140.922958 
z
" clip-path="url(#p2ff743a173)" style="fill: #828282"/>
   </g>
   <g id="patch_123">
    <path d="M 69.409221 130.079376 
C 69.229188 128.251466 69.139008 126.415818 69.139008 124.579062 
C 69.139008 122.742307 69.229188 120.906659 69.409221 119.078749 
L 69.409221 119.078749 
C 69.229188 120.906659 69.139008 122.742307 69.139008 124.579062 
C 69.139008 126.415818 69.229188 128.251466 69.409221 130.079376 
z
" clip-path="url(#p2ff743a173)" style="fill: #828282"/>
   </g>
   <g id="patch_124">
    <path d="M 84.681563 120.582943 
C 84.812362 119.254919 85.008284 117.934117 85.268622 116.625309 
C 85.528961 115.3165 85.853401 114.021262 86.240771 112.744273 
L 86.240771 112.744273 
C 85.853401 114.021262 85.528961 115.3165 85.268622 116.625309 
C 85.008284 117.934117 84.812362 119.254919 84.681563 120.582943 
z
" clip-path="url(#p2ff743a173)" style="fill: #828282"/>
   </g>
   <g id="patch_125">
    <path d="M 85.912915 112.644819 
C 86.303541 111.357099 86.757154 110.089334 87.272118 108.846102 
C 87.787081 107.602871 88.362773 106.385672 88.997115 105.198902 
L 88.997115 105.198902 
C 88.362773 106.385672 87.787081 107.602871 87.272118 108.846102 
C 86.757154 110.089334 86.303541 111.357099 85.912915 112.644819 
z
" clip-path="url(#p2ff743a173)" style="fill: #828282"/>
   </g>
   <g id="patch_126">
    <path d="M 91.409283 106.488233 
C 92.001423 105.380417 92.647596 104.302342 93.34547 103.2579 
C 94.043343 102.213459 94.792075 101.203911 95.588961 100.232902 
L 95.588961 100.232902 
C 94.792075 101.203911 94.043343 102.213459 93.34547 103.2579 
C 92.647596 104.302342 92.001423 105.380417 91.409283 106.488233 
z
" clip-path="url(#p2ff743a173)" style="fill: #828282"/>
   </g>
   <g id="patch_127">
    <path d="M 61.431324 72.200454 
C 63.145755 70.111415 64.961717 68.107809 66.872654 66.196872 
C 68.78359 64.285936 70.787196 62.469973 72.876235 60.755543 
L 72.876235 60.755543 
C 70.787196 62.469973 68.78359 64.285936 66.872654 66.196872 
C 64.961717 68.107809 63.145755 70.111415 61.431324 72.200454 
z
" clip-path="url(#p2ff743a173)" style="fill: #828282"/>
   </g>
   <g id="patch_128">
    <path d="M 89.2219 80.672794 
C 90.659018 79.493381 92.153175 78.385239 93.698975 77.352368 
C 95.244776 76.319497 96.840355 75.363144 98.479951 74.486762 
L 98.479951 74.486762 
C 96.840355 75.363144 95.244776 76.319497 93.698975 77.352368 
C 92.153175 78.385239 90.659018 79.493381 89.2219 80.672794 
z
" clip-path="url(#p2ff743a173)" style="fill: #828282"/>
   </g>
   <g id="patch_129">
    <path d="M 100.664495 78.573756 
C 102.170318 77.768877 103.71475 77.038415 105.292213 76.385009 
C 106.869676 75.731602 108.478269 75.156038 110.112182 74.660396 
L 110.112182 74.660396 
C 108.478269 75.156038 106.869676 75.731602 105.292213 76.385009 
C 103.71475 77.038415 102.170318 77.768877 100.664495 78.573756 
z
" clip-path="url(#p2ff743a173)" style="fill: #828282"/>
   </g>
   <g id="patch_130">
    <path d="M 112.231356 81.646375 
C 113.636606 81.220097 115.06194 80.86307 116.502206 80.576583 
C 117.942473 80.290096 119.395938 80.074495 120.85735 79.930559 
L 120.85735 79.930559 
C 119.395938 80.074495 117.942473 80.290096 116.502206 80.576583 
C 115.06194 80.86307 113.636606 81.220097 112.231356 81.646375 
z
" clip-path="url(#p2ff743a173)" style="fill: #828282"/>
   </g>
   <g id="patch_131">
    <path d="M 125.254844 124.579063 
C 125.254844 124.579063 125.254844 124.579063 125.254844 124.579063 
C 125.254844 124.579063 125.254844 124.579063 125.254844 124.579063 
L 126.976675 107.097015 
C 126.404462 107.040657 125.829826 107.012427 125.254844 107.012427 
C 124.679862 107.012427 124.105226 107.040657 123.533012 107.097015 
L 125.254844 124.579063 
z
" clip-path="url(#p2ff743a173)" style="fill: none; stroke: #292929; stroke-width: 0.5; stroke-linejoin: miter"/>
   </g>
   <g id="patch_132">
    <path d="M 125.254844 124.579063 
C 125.254844 124.579063 125.254844 124.579063 125.254844 124.579063 
C 125.254844 124.579063 125.254844 124.579063 125.254844 124.579063 
L 130.636109 106.839408 
C 130.055464 106.663271 129.466521 106.515748 128.871407 106.397373 
C 128.276293 106.278997 127.675726 106.189912 127.071875 106.130438 
L 125.254844 124.579063 
z
" clip-path="url(#p2ff743a173)" style="fill: none; stroke: #292929; stroke-width: 0.5; stroke-linejoin: miter"/>
   </g>
   <g id="patch_133">
    <path d="M 125.254844 124.579063 
C 125.254844 124.579063 125.254844 124.579063 125.254844 124.579063 
C 125.254844 124.579063 125.254844 124.579063 125.254844 124.579063 
L 125.254844 124.579063 
C 125.254844 124.579063 125.254844 124.579063 125.254844 124.579063 
C 125.254844 124.579063 125.254844 124.579063 125.254844 124.579063 
L 125.254844 124.579063 
z
" clip-path="url(#p2ff743a173)" style="fill: none; stroke: #292929; stroke-width: 0.5; stroke-linejoin: miter"/>
   </g>
   <g id="patch_134">
    <path d="M 125.254844 124.579063 
C 125.254844 124.579063 125.254844 124.579063 125.254844 124.579063 
C 125.254844 124.579063 125.254844 124.579063 125.254844 124.579063 
L 150.56727 93.735782 
C 149.557723 92.907269 148.508107 92.128821 147.422213 91.40325 
C 146.336319 90.677679 145.215456 90.005859 144.063673 89.390218 
L 125.254844 124.579063 
z
" clip-path="url(#p2ff743a173)" style="fill: none; stroke: #292929; stroke-width: 0.5; stroke-linejoin: miter"/>
   </g>
   <g id="patch_135">
    <path d="M 125.254844 124.579063 
C 125.254844 124.579063 125.254844 124.579063 125.254844 124.579063 
C 125.254844 124.579063 125.254844 124.579063 125.254844 124.579063 
L 141.503517 111.244121 
C 141.067044 110.712278 140.604723 110.202185 140.118222 109.715684 
C 139.631722 109.229183 139.121629 108.766862 138.589785 108.330389 
L 125.254844 124.579063 
z
" clip-path="url(#p2ff743a173)" style="fill: none; stroke: #292929; stroke-width: 0.5; stroke-linejoin: miter"/>
   </g>
   <g id="patch_136">
    <path d="M 125.254844 124.579063 
C 125.254844 124.579063 125.254844 124.579063 125.254844 124.579063 
C 125.254844 124.579063 125.254844 124.579063 125.254844 124.579063 
L 125.254844 124.579063 
C 125.254844 124.579063 125.254844 124.579063 125.254844 124.579063 
C 125.254844 124.579063 125.254844 124.579063 125.254844 124.579063 
L 125.254844 124.579063 
z
" clip-path="url(#p2ff743a173)" style="fill: none; stroke: #292929; stroke-width: 0.5; stroke-linejoin: miter"/>
   </g>
   <g id="patch_137">
    <path d="M 125.254844 124.579063 
C 125.254844 124.579063 125.254844 124.579063 125.254844 124.579063 
C 125.254844 124.579063 125.254844 124.579063 125.254844 124.579063 
L 143.877602 118.929911 
C 143.692697 118.32036 143.477976 117.720255 143.234214 117.131763 
C 142.990453 116.543272 142.717946 115.967103 142.417676 115.405338 
L 125.254844 124.579063 
z
" clip-path="url(#p2ff743a173)" style="fill: none; stroke: #292929; stroke-width: 0.5; stroke-linejoin: miter"/>
   </g>
   <g id="patch_138">
    <path d="M 125.254844 124.579063 
C 125.254844 124.579063 125.254844 124.579063 125.254844 124.579063 
C 125.254844 124.579063 125.254844 124.579063 125.254844 124.579063 
L 125.254844 124.579063 
C 125.254844 124.579063 125.254844 124.579063 125.254844 124.579063 
C 125.254844 124.579063 125.254844 124.579063 125.254844 124.579063 
L 125.254844 124.579063 
z
" clip-path="url(#p2ff743a173)" style="fill: none; stroke: #292929; stroke-width: 0.5; stroke-linejoin: miter"/>
   </g>
   <g id="patch_139">
    <path d="M 125.254844 124.579063 
C 125.254844 124.579063 125.254844 124.579063 125.254844 124.579063 
C 125.254844 124.579063 125.254844 124.579063 125.254844 124.579063 
L 125.254844 124.579063 
C 125.254844 124.579063 125.254844 124.579063 125.254844 124.579063 
C 125.254844 124.579063 125.254844 124.579063 125.254844 124.579063 
L 125.254844 124.579063 
z
" clip-path="url(#p2ff743a173)" style="fill: none; stroke: #292929; stroke-width: 0.5; stroke-linejoin: miter"/>
   </g>
   <g id="patch_140">
    <path d="M 125.254844 124.579063 
C 125.254844 124.579063 125.254844 124.579063 125.254844 124.579063 
C 125.254844 124.579063 125.254844 124.579063 125.254844 124.579063 
L 125.254844 124.579063 
C 125.254844 124.579063 125.254844 124.579063 125.254844 124.579063 
C 125.254844 124.579063 125.254844 124.579063 125.254844 124.579063 
L 125.254844 124.579063 
z
" clip-path="url(#p2ff743a173)" style="fill: none; stroke: #292929; stroke-width: 0.5; stroke-linejoin: miter"/>
   </g>
   <g id="patch_141">
    <path d="M 125.254844 124.579063 
C 125.254844 124.579063 125.254844 124.579063 125.254844 124.579063 
C 125.254844 124.579063 125.254844 124.579063 125.254844 124.579063 
L 125.254844 124.579063 
C 125.254844 124.579063 125.254844 124.579063 125.254844 124.579063 
C 125.254844 124.579063 125.254844 124.579063 125.254844 124.579063 
L 125.254844 124.579063 
z
" clip-path="url(#p2ff743a173)" style="fill: none; stroke: #292929; stroke-width: 0.5; stroke-linejoin: miter"/>
   </g>
   <g id="patch_142">
    <path d="M 125.254844 124.579063 
C 125.254844 124.579063 125.254844 124.579063 125.254844 124.579063 
C 125.254844 124.579063 125.254844 124.579063 125.254844 124.579063 
L 128.149937 126.955004 
C 128.227706 126.860244 128.300774 126.761722 128.36888 126.659795 
C 128.436985 126.557868 128.500045 126.452658 128.557832 126.344547 
L 125.254844 124.579063 
z
" clip-path="url(#p2ff743a173)" style="fill: none; stroke: #292929; stroke-width: 0.5; stroke-linejoin: miter"/>
   </g>
   <g id="patch_143">
    <path d="M 125.254844 124.579063 
C 125.254844 124.579063 125.254844 124.579063 125.254844 124.579063 
C 125.254844 124.579063 125.254844 124.579063 125.254844 124.579063 
L 125.254844 124.579063 
C 125.254844 124.579063 125.254844 124.579063 125.254844 124.579063 
C 125.254844 124.579063 125.254844 124.579063 125.254844 124.579063 
L 125.254844 124.579063 
z
" clip-path="url(#p2ff743a173)" style="fill: none; stroke: #292929; stroke-width: 0.5; stroke-linejoin: miter"/>
   </g>
   <g id="patch_144">
    <path d="M 125.254844 124.579063 
C 125.254844 124.579063 125.254844 124.579063 125.254844 124.579063 
C 125.254844 124.579063 125.254844 124.579063 125.254844 124.579063 
L 125.254844 124.579063 
C 125.254844 124.579063 125.254844 124.579063 125.254844 124.579063 
C 125.254844 124.579063 125.254844 124.579063 125.254844 124.579063 
L 125.254844 124.579063 
z
" clip-path="url(#p2ff743a173)" style="fill: none; stroke: #292929; stroke-width: 0.5; stroke-linejoin: miter"/>
   </g>
   <g id="patch_145">
    <path d="M 125.254844 124.579063 
C 125.254844 124.579063 125.254844 124.579063 125.254844 124.579063 
C 125.254844 124.579063 125.254844 124.579063 125.254844 124.579063 
L 125.254844 124.579063 
C 125.254844 124.579063 125.254844 124.579063 125.254844 124.579063 
C 125.254844 124.579063 125.254844 124.579063 125.254844 124.579063 
L 125.254844 124.579063 
z
" clip-path="url(#p2ff743a173)" style="fill: none; stroke: #292929; stroke-width: 0.5; stroke-linejoin: miter"/>
   </g>
   <g id="patch_146">
    <path d="M 125.254844 124.579063 
C 125.254844 124.579063 125.254844 124.579063 125.254844 124.579063 
C 125.254844 124.579063 125.254844 124.579063 125.254844 124.579063 
L 125.254844 124.579063 
C 125.254844 124.579063 125.254844 124.579063 125.254844 124.579063 
C 125.254844 124.579063 125.254844 124.579063 125.254844 124.579063 
L 125.254844 124.579063 
z
" clip-path="url(#p2ff743a173)" style="fill: none; stroke: #292929; stroke-width: 0.5; stroke-linejoin: miter"/>
   </g>
   <g id="patch_147">
    <path d="M 125.254844 124.579063 
C 125.254844 124.579063 125.254844 124.579063 125.254844 124.579063 
C 125.254844 124.579063 125.254844 124.579063 125.254844 124.579063 
L 124.674415 130.47226 
C 124.867308 130.491258 125.061017 130.500774 125.254844 130.500774 
C 125.44867 130.500774 125.64238 130.491258 125.835273 130.47226 
L 125.254844 124.579063 
z
" clip-path="url(#p2ff743a173)" style="fill: none; stroke: #292929; stroke-width: 0.5; stroke-linejoin: miter"/>
   </g>
   <g id="patch_148">
    <path d="M 125.254844 124.579063 
C 125.254844 124.579063 125.254844 124.579063 125.254844 124.579063 
C 125.254844 124.579063 125.254844 124.579063 125.254844 124.579063 
L 125.254844 124.579063 
C 125.254844 124.579063 125.254844 124.579063 125.254844 124.579063 
C 125.254844 124.579063 125.254844 124.579063 125.254844 124.579063 
L 125.254844 124.579063 
z
" clip-path="url(#p2ff743a173)" style="fill: none; stroke: #292929; stroke-width: 0.5; stroke-linejoin: miter"/>
   </g>
   <g id="patch_149">
    <path d="M 125.254844 124.579063 
C 125.254844 124.579063 125.254844 124.579063 125.254844 124.579063 
C 125.254844 124.579063 125.254844 124.579063 125.254844 124.579063 
L 125.254844 124.579063 
C 125.254844 124.579063 125.254844 124.579063 125.254844 124.579063 
C 125.254844 124.579063 125.254844 124.579063 125.254844 124.579063 
L 125.254844 124.579063 
z
" clip-path="url(#p2ff743a173)" style="fill: none; stroke: #292929; stroke-width: 0.5; stroke-linejoin: miter"/>
   </g>
   <g id="patch_150">
    <path d="M 125.254844 124.579063 
C 125.254844 124.579063 125.254844 124.579063 125.254844 124.579063 
C 125.254844 124.579063 125.254844 124.579063 125.254844 124.579063 
L 122.344921 128.124814 
C 122.460979 128.22006 122.581643 128.30955 122.706477 128.392962 
C 122.831312 128.476374 122.960167 128.553607 123.092576 128.624381 
L 125.254844 124.579063 
z
" clip-path="url(#p2ff743a173)" style="fill: none; stroke: #292929; stroke-width: 0.5; stroke-linejoin: miter"/>
   </g>
   <g id="patch_151">
    <path d="M 125.254844 124.579063 
C 125.254844 124.579063 125.254844 124.579063 125.254844 124.579063 
C 125.254844 124.579063 125.254844 124.579063 125.254844 124.579063 
L 125.254844 124.579063 
C 125.254844 124.579063 125.254844 124.579063 125.254844 124.579063 
C 125.254844 124.579063 125.254844 124.579063 125.254844 124.579063 
L 125.254844 124.579063 
z
" clip-path="url(#p2ff743a173)" style="fill: none; stroke: #292929; stroke-width: 0.5; stroke-linejoin: miter"/>
   </g>
   <g id="patch_152">
    <path d="M 125.254844 124.579063 
C 125.254844 124.579063 125.254844 124.579063 125.254844 124.579063 
C 125.254844 124.579063 125.254844 124.579063 125.254844 124.579063 
L 62.454616 158.146484 
C 63.553328 160.202029 64.752299 162.202391 66.047199 164.140346 
C 67.342099 166.078301 68.731366 167.951511 70.209984 169.753212 
L 125.254844 124.579063 
z
" clip-path="url(#p2ff743a173)" style="fill: none; stroke: #292929; stroke-width: 0.5; stroke-linejoin: miter"/>
   </g>
   <g id="patch_153">
    <path d="M 125.254844 124.579063 
C 125.254844 124.579063 125.254844 124.579063 125.254844 124.579063 
C 125.254844 124.579063 125.254844 124.579063 125.254844 124.579063 
L 19.149299 156.765828 
C 20.20282 160.23882 21.42622 163.657995 22.815081 167.011001 
C 24.203942 170.364008 25.756589 173.646804 27.467414 176.847533 
L 125.254844 124.579063 
z
" clip-path="url(#p2ff743a173)" style="fill: none; stroke: #292929; stroke-width: 0.5; stroke-linejoin: miter"/>
   </g>
   <g id="patch_154">
    <path d="M 125.254844 124.579063 
C 125.254844 124.579063 125.254844 124.579063 125.254844 124.579063 
C 125.254844 124.579063 125.254844 124.579063 125.254844 124.579063 
L 69.222967 130.097721 
C 69.403601 131.931728 69.67417 133.755761 70.033699 135.563231 
C 70.393227 137.370702 70.84128 139.159431 71.37624 140.922958 
L 125.254844 124.579063 
z
" clip-path="url(#p2ff743a173)" style="fill: none; stroke: #292929; stroke-width: 0.5; stroke-linejoin: miter"/>
   </g>
   <g id="patch_155">
    <path d="M 125.254844 124.579063 
C 125.254844 124.579063 125.254844 124.579063 125.254844 124.579063 
C 125.254844 124.579063 125.254844 124.579063 125.254844 124.579063 
L 69.409221 119.078749 
C 69.229188 120.906659 69.139008 122.742307 69.139008 124.579062 
C 69.139008 126.415818 69.229188 128.251466 69.409221 130.079376 
L 125.254844 124.579063 
z
" clip-path="url(#p2ff743a173)" style="fill: none; stroke: #292929; stroke-width: 0.5; stroke-linejoin: miter"/>
   </g>
   <g id="patch_156">
    <path d="M 125.254844 124.579063 
C 125.254844 124.579063 125.254844 124.579063 125.254844 124.579063 
C 125.254844 124.579063 125.254844 124.579063 125.254844 124.579063 
L 86.240771 112.744273 
C 85.853401 114.021262 85.528961 115.3165 85.268622 116.625309 
C 85.008284 117.934117 84.812362 119.254919 84.681563 120.582943 
L 125.254844 124.579063 
z
" clip-path="url(#p2ff743a173)" style="fill: none; stroke: #292929; stroke-width: 0.5; stroke-linejoin: miter"/>
   </g>
   <g id="patch_157">
    <path d="M 125.254844 124.579063 
C 125.254844 124.579063 125.254844 124.579063 125.254844 124.579063 
C 125.254844 124.579063 125.254844 124.579063 125.254844 124.579063 
L 88.997115 105.198902 
C 88.362773 106.385672 87.787081 107.602871 87.272118 108.846102 
C 86.757154 110.089334 86.303541 111.357099 85.912915 112.644819 
L 125.254844 124.579063 
z
" clip-path="url(#p2ff743a173)" style="fill: none; stroke: #292929; stroke-width: 0.5; stroke-linejoin: miter"/>
   </g>
   <g id="patch_158">
    <path d="M 125.254844 124.579063 
C 125.254844 124.579063 125.254844 124.579063 125.254844 124.579063 
C 125.254844 124.579063 125.254844 124.579063 125.254844 124.579063 
L 95.588961 100.232902 
C 94.792075 101.203911 94.043343 102.213459 93.34547 103.2579 
C 92.647596 104.302342 92.001423 105.380417 91.409283 106.488233 
L 125.254844 124.579063 
z
" clip-path="url(#p2ff743a173)" style="fill: none; stroke: #292929; stroke-width: 0.5; stroke-linejoin: miter"/>
   </g>
   <g id="patch_159">
    <path d="M 125.254844 124.579063 
C 125.254844 124.579063 125.254844 124.579063 125.254844 124.579063 
C 125.254844 124.579063 125.254844 124.579063 125.254844 124.579063 
L 72.876235 60.755543 
C 70.787196 62.469973 68.78359 64.285936 66.872654 66.196872 
C 64.961717 68.107809 63.145755 70.111415 61.431324 72.200454 
L 125.254844 124.579063 
z
" clip-path="url(#p2ff743a173)" style="fill: none; stroke: #292929; stroke-width: 0.5; stroke-linejoin: miter"/>
   </g>
   <g id="patch_160">
    <path d="M 125.254844 124.579063 
C 125.254844 124.579063 125.254844 124.579063 125.254844 124.579063 
C 125.254844 124.579063 125.254844 124.579063 125.254844 124.579063 
L 98.479951 74.486762 
C 96.840355 75.363144 95.244776 76.319497 93.698975 77.352368 
C 92.153175 78.385239 90.659018 79.493381 89.2219 80.672794 
L 125.254844 124.579063 
z
" clip-path="url(#p2ff743a173)" style="fill: none; stroke: #292929; stroke-width: 0.5; stroke-linejoin: miter"/>
   </g>
   <g id="patch_161">
    <path d="M 125.254844 124.579063 
C 125.254844 124.579063 125.254844 124.579063 125.254844 124.579063 
C 125.254844 124.579063 125.254844 124.579063 125.254844 124.579063 
L 110.112182 74.660396 
C 108.478269 75.156038 106.869676 75.731602 105.292213 76.385009 
C 103.71475 77.038415 102.170318 77.768877 100.664495 78.573756 
L 125.254844 124.579063 
z
" clip-path="url(#p2ff743a173)" style="fill: none; stroke: #292929; stroke-width: 0.5; stroke-linejoin: miter"/>
   </g>
   <g id="patch_162">
    <path d="M 125.254844 124.579063 
C 125.254844 124.579063 125.254844 124.579063 125.254844 124.579063 
C 125.254844 124.579063 125.254844 124.579063 125.254844 124.579063 
L 120.85735 79.930559 
C 119.395938 80.074495 117.942473 80.290096 116.502206 80.576583 
C 115.06194 80.86307 113.636606 81.220097 112.231356 81.646375 
L 125.254844 124.579063 
z
" clip-path="url(#p2ff743a173)" style="fill: none; stroke: #292929; stroke-width: 0.5; stroke-linejoin: miter"/>
   </g>
   <g id="PathCollection_1">
    <defs>
     <path id="m5f0c311321" d="M 0.193618 7.414054 
L 0.193618 7.414054 
C 0.054922 7.414054 -0.078235 7.358899 -0.176308 7.260826 
C -0.274381 7.162753 -0.329536 7.029596 -0.329536 6.890901 
L -0.329536 5.365008 
L -1.528416 6.56393 
L -1.528416 6.56393 
C -1.577018 6.612704 -1.634775 6.651408 -1.698366 6.677814 
C -1.761958 6.704221 -1.830141 6.717815 -1.898997 6.717815 
C -1.967853 6.717815 -2.036037 6.704221 -2.099628 6.677814 
C -2.163219 6.651408 -2.220976 6.612704 -2.269578 6.56393 
L -2.269578 6.56393 
C -2.318353 6.515327 -2.357056 6.457571 -2.383463 6.393979 
C -2.409869 6.330388 -2.423463 6.262205 -2.423463 6.193348 
C -2.423463 6.124492 -2.409869 6.056309 -2.383463 5.992718 
C -2.357056 5.929126 -2.318353 5.87137 -2.269578 5.822767 
L -0.329536 3.884106 
L -0.329536 0.820937 
L -2.98067 2.351538 
L -3.691824 5.001416 
L -3.691824 5.001416 
C -3.727584 5.135411 -3.815199 5.249836 -3.93523 5.319305 
C -4.055261 5.388775 -4.198123 5.407741 -4.332122 5.371997 
L -4.332122 5.371997 
C -4.466126 5.336237 -4.580558 5.248616 -4.650029 5.128576 
C -4.719499 5.008535 -4.73846 4.865662 -4.702703 4.731657 
L -4.262647 3.092721 
L -5.585535 3.855668 
L -5.585535 3.855668 
C -5.645013 3.890144 -5.710708 3.912561 -5.778854 3.921634 
C -5.847001 3.930706 -5.916272 3.926258 -5.982698 3.908543 
C -6.049125 3.890828 -6.111412 3.860192 -6.165991 3.818391 
C -6.220571 3.77659 -6.266379 3.724437 -6.300791 3.664922 
L -6.300791 3.664922 
C -6.335212 3.605364 -6.35755 3.539597 -6.366524 3.471396 
C -6.375498 3.403194 -6.370933 3.333888 -6.35309 3.267452 
C -6.335248 3.201017 -6.304476 3.138749 -6.26254 3.08422 
C -6.220605 3.029692 -6.168323 2.983966 -6.108695 2.949666 
L -4.785807 2.186762 
L -6.424743 1.746706 
L -6.424743 1.746706 
C -6.558747 1.710946 -6.673179 1.623325 -6.74265 1.503284 
C -6.81212 1.383244 -6.831081 1.240371 -6.795324 1.106366 
L -6.795324 1.106366 
C -6.777471 1.039969 -6.746703 0.977739 -6.704784 0.923241 
C -6.662864 0.868744 -6.61061 0.823041 -6.551015 0.788752 
C -6.491421 0.754464 -6.425647 0.732257 -6.357465 0.723406 
C -6.289282 0.714554 -6.220019 0.71923 -6.153645 0.737166 
L -3.505232 1.44698 
L -0.852424 -0.08496 
L -3.503767 -1.615666 
L -6.153645 -0.905851 
L -6.153645 -0.905851 
C -6.22011 -0.887939 -6.289462 -0.883321 -6.357716 -0.892262 
C -6.42597 -0.901202 -6.491793 -0.923527 -6.551403 -0.957953 
C -6.611013 -0.992379 -6.663247 -1.038234 -6.705103 -1.092883 
C -6.746958 -1.147533 -6.777619 -1.209911 -6.795324 -1.276432 
L -6.795324 -1.276432 
C -6.831068 -1.410431 -6.812101 -1.553293 -6.742632 -1.673324 
C -6.673162 -1.793355 -6.558738 -1.88097 -6.424743 -1.91673 
L -4.785807 -2.355447 
L -6.108695 -3.119732 
L -6.108695 -3.119732 
C -6.228699 -3.188976 -6.316415 -3.303132 -6.352417 -3.436921 
C -6.388419 -3.57071 -6.369839 -3.713469 -6.300791 -3.833586 
L -6.300791 -3.833586 
C -6.266491 -3.893214 -6.220765 -3.945496 -6.166237 -3.987431 
C -6.111708 -4.029367 -6.04944 -4.060139 -5.983005 -4.077981 
C -5.91657 -4.095823 -5.847263 -4.100389 -5.779062 -4.091415 
C -5.71086 -4.082441 -5.645094 -4.060102 -5.585535 -4.025682 
L -4.262647 -3.261396 
L -4.702703 -4.900332 
L -4.702703 -4.900332 
C -4.73846 -5.034337 -4.719499 -5.17721 -4.650029 -5.29725 
C -4.580558 -5.417291 -4.466126 -5.504912 -4.332122 -5.540672 
L -4.332122 -5.540672 
C -4.19831 -5.576464 -4.055613 -5.557686 -3.935617 -5.488496 
C -3.81562 -5.419305 -3.727882 -5.305212 -3.691824 -5.171472 
L -2.982009 -2.521594 
L -0.329411 -0.990302 
L -0.329411 -4.051588 
L -2.269453 -5.991589 
L -2.269453 -5.991589 
C -2.318227 -6.040191 -2.356931 -6.097947 -2.383337 -6.161539 
C -2.409744 -6.22513 -2.423338 -6.293314 -2.423338 -6.36217 
C -2.423338 -6.431026 -2.409744 -6.499209 -2.383337 -6.5628 
C -2.356931 -6.626392 -2.318227 -6.684149 -2.269453 -6.732751 
L -2.269453 -6.732751 
C -2.22085 -6.781526 -2.163094 -6.820229 -2.099502 -6.846635 
C -2.035911 -6.873042 -1.967728 -6.886636 -1.898871 -6.886636 
C -1.830015 -6.886636 -1.761832 -6.873042 -1.698241 -6.846635 
C -1.634649 -6.820229 -1.576893 -6.781526 -1.52829 -6.732751 
L -0.329411 -5.533829 
L -0.329411 -7.059722 
L -0.329411 -7.059722 
C -0.329411 -7.198418 -0.274255 -7.331575 -0.176182 -7.429647 
C -0.07811 -7.52772 0.055047 -7.582875 0.193743 -7.582875 
L 0.193743 -7.582875 
C 0.332439 -7.582875 0.465596 -7.52772 0.563669 -7.429647 
C 0.661741 -7.331575 0.716897 -7.198418 0.716897 -7.059722 
L 0.716897 -5.533829 
L 1.915777 -6.732751 
L 1.915777 -6.732751 
C 1.964379 -6.781526 2.022136 -6.820229 2.085727 -6.846635 
C 2.149318 -6.873042 2.217502 -6.886636 2.286358 -6.886636 
C 2.355214 -6.886636 2.423397 -6.873042 2.486989 -6.846635 
C 2.55058 -6.820229 2.608337 -6.781526 2.656939 -6.732751 
L 2.656939 -6.732751 
C 2.705714 -6.684149 2.744417 -6.626392 2.770823 -6.5628 
C 2.79723 -6.499209 2.810824 -6.431026 2.810824 -6.36217 
C 2.810824 -6.293314 2.79723 -6.22513 2.770823 -6.161539 
C 2.744417 -6.097947 2.705714 -6.040191 2.656939 -5.991589 
L 0.716897 -4.051588 
L 0.716897 -0.991139 
L 3.369495 -2.522954 
L 4.07931 -5.171367 
L 4.07931 -5.171367 
C 4.115368 -5.305107 4.203106 -5.4192 4.323103 -5.488391 
C 4.4431 -5.557582 4.585797 -5.576359 4.719608 -5.540567 
L 4.719608 -5.540567 
C 4.853612 -5.504807 4.968045 -5.417186 5.037515 -5.297146 
C 5.106986 -5.177105 5.125946 -5.034232 5.090189 -4.900227 
L 4.650133 -3.262673 
L 5.973022 -4.025577 
L 5.973022 -4.025577 
C 6.03258 -4.059998 6.098346 -4.082336 6.166548 -4.09131 
C 6.234749 -4.100284 6.304056 -4.095719 6.370491 -4.077876 
C 6.436926 -4.060034 6.499194 -4.029262 6.553723 -3.987327 
C 6.608252 -3.945391 6.653978 -3.893109 6.688277 -3.833481 
L 6.688277 -3.833481 
C 6.757325 -3.713365 6.775905 -3.570605 6.739903 -3.436816 
C 6.703901 -3.303027 6.616186 -3.188871 6.496181 -3.119628 
L 5.173293 -2.355342 
L 6.812229 -1.916625 
L 6.812229 -1.916625 
C 6.946224 -1.880865 7.060649 -1.79325 7.130118 -1.67322 
C 7.199588 -1.553189 7.218554 -1.410326 7.18281 -1.276327 
L 7.18281 -1.276327 
C 7.165106 -1.209806 7.134445 -1.147429 7.092589 -1.092779 
C 7.050733 -1.038129 6.998499 -0.992274 6.938889 -0.957848 
C 6.879279 -0.923422 6.813456 -0.901098 6.745202 -0.892157 
C 6.676949 -0.883217 6.607597 -0.887835 6.541131 -0.905746 
L 3.891253 -1.615561 
L 1.239492 -0.084604 
L 3.892718 1.447085 
L 6.541131 0.73727 
L 6.541131 0.73727 
C 6.674948 0.701466 6.817656 0.720237 6.937662 0.789429 
C 7.057669 0.858621 7.145413 0.972721 7.181471 1.10647 
L 7.181471 1.10647 
C 7.217274 1.240293 7.198497 1.383006 7.129297 1.503014 
C 7.060096 1.623021 6.945986 1.710762 6.812229 1.74681 
L 5.173293 2.186866 
L 6.496181 2.949771 
L 6.496181 2.949771 
C 6.555697 2.984183 6.607849 3.029991 6.649651 3.08457 
C 6.691452 3.13915 6.722088 3.201437 6.739803 3.267863 
C 6.757517 3.33429 6.761966 3.403561 6.752893 3.471707 
C 6.743821 3.539854 6.721404 3.605549 6.686927 3.665026 
L 6.686927 3.665026 
C 6.617458 3.784813 6.503196 3.87225 6.369416 3.907994 
C 6.235636 3.943739 6.092989 3.924946 5.973032 3.855772 
L 4.650144 3.091487 
L 5.08886 4.731783 
L 5.08886 4.731783 
C 5.124664 4.865606 5.105887 5.008319 5.036686 5.128326 
C 4.967486 5.248334 4.853376 5.336074 4.719619 5.372123 
L 4.719619 5.372123 
C 4.585619 5.407867 4.442757 5.3889 4.322726 5.319431 
C 4.202695 5.249961 4.115081 5.135537 4.07932 5.001542 
L 3.368166 2.351664 
L 0.717033 0.821063 
L 0.717033 3.884232 
L 2.657075 5.822893 
L 2.657075 5.822893 
C 2.70585 5.871495 2.744553 5.929252 2.770959 5.992843 
C 2.797366 6.056435 2.81096 6.124618 2.81096 6.193474 
C 2.81096 6.26233 2.797366 6.330514 2.770959 6.394105 
C 2.744553 6.457696 2.70585 6.515453 2.657075 6.564055 
L 2.657075 6.564055 
C 2.608473 6.61283 2.550716 6.651533 2.487125 6.67794 
C 2.423533 6.704346 2.35535 6.71794 2.286494 6.71794 
C 2.217638 6.71794 2.149454 6.704346 2.085863 6.67794 
C 2.022272 6.651533 1.964515 6.61283 1.915913 6.564055 
L 0.717033 5.365133 
L 0.717033 6.891026 
L 0.717033 6.891026 
C 0.717033 7.029722 0.661877 7.162879 0.563805 7.260952 
C 0.465732 7.359024 0.332575 7.41418 0.193879 7.41418 
L 0.193618 7.414054 
z
"/>
    </defs>
    <g clip-path="url(#p2ff743a173)">
     <use xlink:href="#m5f0c311321" x="46.863482" y="104.174145" style="fill: #9e2096; fill-opacity: 0.7"/>
    </g>
   </g>
   <g id="patch_163">
    <path d="M 125.254844 13.699063 
C 110.694216 13.699063 96.275171 16.567189 82.822905 22.1393 
C 69.370638 27.711411 57.146763 35.879144 46.850844 46.175063 
C 36.554925 56.470982 28.387192 68.694857 22.815081 82.147124 
C 17.24297 95.59939 14.374844 110.018434 14.374844 124.579063 
C 14.374844 139.139691 17.24297 153.558735 22.815081 167.011001 
C 28.387192 180.463268 36.554925 192.687143 46.850844 202.983062 
C 57.146763 213.278981 69.370638 221.446714 82.822905 227.018825 
C 96.275171 232.590936 110.694216 235.459063 125.254844 235.459063 
C 139.815472 235.459063 154.234516 232.590936 167.686783 227.018825 
C 181.139049 221.446714 193.362925 213.278981 203.658844 202.983062 
C 213.954763 192.687143 222.122495 180.463268 227.694606 167.011001 
C 233.266717 153.558735 236.134844 139.139691 236.134844 124.579063 
C 236.134844 110.018434 233.266717 95.59939 227.694606 82.147124 
C 222.122495 68.694857 213.954763 56.470982 203.658844 46.175063 
C 193.362925 35.879144 181.139049 27.711411 167.686783 22.1393 
C 154.234516 16.567189 139.815472 13.699063 125.254844 13.699063 
" style="fill: none; stroke: #000000; stroke-width: 0.8; stroke-linejoin: miter; stroke-linecap: square"/>
   </g>
  </g>
 </g>
 <defs>
  <clipPath id="p2ff743a173">
   <path d="M 236.134844 124.579063 
C 236.134844 110.018434 233.266717 95.59939 227.694606 82.147124 
C 222.122495 68.694857 213.954763 56.470982 203.658844 46.175063 
C 193.362925 35.879144 181.139049 27.711411 167.686783 22.1393 
C 154.234516 16.567189 139.815472 13.699063 125.254844 13.699063 
C 110.694216 13.699063 96.275171 16.567189 82.822905 22.1393 
C 69.370638 27.711411 57.146763 35.879144 46.850844 46.175063 
C 36.554925 56.470982 28.387192 68.694857 22.815081 82.147124 
C 17.24297 95.59939 14.374844 110.018434 14.374844 124.579062 
C 14.374844 139.139691 17.24297 153.558735 22.815081 167.011001 
C 28.387192 180.463268 36.554925 192.687143 46.850844 202.983062 
C 57.146763 213.278981 69.370638 221.446714 82.822905 227.018825 
C 96.275171 232.590936 110.694216 235.459063 125.254844 235.459063 
C 139.815472 235.459063 154.234516 232.590936 167.686783 227.018825 
C 181.139049 221.446714 193.362925 213.278981 203.658844 202.983062 
C 213.954763 192.687143 222.122495 180.463268 227.694606 167.011001 
C 233.266717 153.558735 236.134844 139.139691 236.134844 124.579063 
M 125.254844 124.579063 
C 125.254844 124.579063 125.254844 124.579063 125.254844 124.579063 
C 125.254844 124.579063 125.254844 124.579063 125.254844 124.579063 
C 125.254844 124.579063 125.254844 124.579063 125.254844 124.579063 
C 125.254844 124.579063 125.254844 124.579063 125.254844 124.579063 
C 125.254844 124.579063 125.254844 124.579063 125.254844 124.579063 
C 125.254844 124.579063 125.254844 124.579063 125.254844 124.579063 
C 125.254844 124.579063 125.254844 124.579063 125.254844 124.579063 
C 125.254844 124.579063 125.254844 124.579063 125.254844 124.579063 
C 125.254844 124.579063 125.254844 124.579063 125.254844 124.579063 
C 125.254844 124.579063 125.254844 124.579063 125.254844 124.579063 
C 125.254844 124.579063 125.254844 124.579063 125.254844 124.579063 
C 125.254844 124.579063 125.254844 124.579063 125.254844 124.579063 
C 125.254844 124.579063 125.254844 124.579063 125.254844 124.579063 
C 125.254844 124.579063 125.254844 124.579063 125.254844 124.579063 
C 125.254844 124.579063 125.254844 124.579063 125.254844 124.579063 
C 125.254844 124.579063 125.254844 124.579063 125.254844 124.579063 
z
"/>
  </clipPath>
 </defs>
</svg>
