<?xml version="1.0" encoding="utf-8" standalone="no"?>
<!DOCTYPE svg PUBLIC "-//W3C//DTD SVG 1.1//EN"
  "http://www.w3.org/Graphics/SVG/1.1/DTD/svg11.dtd">
<svg xmlns:xlink="http://www.w3.org/1999/xlink" width="248.410469pt" height="249.158125pt" viewBox="0 0 248.410469 249.158125" xmlns="http://www.w3.org/2000/svg" version="1.1">
 <title>Ski Rose for Monesi di Triora</title>
 <metadata>
  <rdf:RDF xmlns:dc="http://purl.org/dc/elements/1.1/" xmlns:cc="http://creativecommons.org/ns#" xmlns:rdf="http://www.w3.org/1999/02/22-rdf-syntax-ns#">
   <cc:Work>
    <dc:type rdf:resource="http://purl.org/dc/dcmitype/StillImage"/>
    <dc:title>Ski Rose for Monesi di Triora</dc:title>
    <dc:date>2025-08-02T10:16:40.120591</dc:date>
    <dc:description>A 32-bin stacked histogram of downhill ski run orientations colored by difficulty.</dc:description>
    <dc:format>image/svg+xml</dc:format>
    <dc:source>https://openskimap.org/?obj=527ad59b4f2432e6a766e6be798a19989d53e8a7</dc:source>
    <dc:creator>
     <cc:Agent>
      <dc:title>https://github.com/dhimmel/openskistats</dc:title>
     </cc:Agent>
    </dc:creator>
    <dc:rights>
     <cc:Agent>
      <dc:title>https://creativecommons.org/licenses/by/4.0/</dc:title>
     </cc:Agent>
    </dc:rights>
   </cc:Work>
  </rdf:RDF>
 </metadata>
 <defs>
  <style type="text/css">*{stroke-linejoin: round; stroke-linecap: butt}</style>
 </defs>
 <g id="figure_1">
  <g id="patch_1">
   <path d="M 0 249.158125 
L 248.410469 249.158125 
L 248.410469 0 
L 0 0 
z
" style="fill: #ffffff"/>
  </g>
  <g id="axes_1">
   <g id="patch_2">
    <path d="M 236.134844 124.579063 
C 236.134844 110.018434 233.266717 95.59939 227.694606 82.147124 
C 222.122495 68.694857 213.954763 56.470982 203.658844 46.175063 
C 193.362925 35.879144 181.139049 27.711411 167.686783 22.1393 
C 154.234516 16.567189 139.815472 13.699062 125.254844 13.699062 
C 110.694216 13.699062 96.275171 16.567189 82.822905 22.1393 
C 69.370638 27.711411 57.146763 35.879144 46.850844 46.175063 
C 36.554925 56.470982 28.387192 68.694857 22.815081 82.147124 
C 17.24297 95.59939 14.374844 110.018434 14.374844 124.579062 
C 14.374844 139.139691 17.24297 153.558735 22.815081 167.011001 
C 28.387192 180.463268 36.554925 192.687143 46.850844 202.983062 
C 57.146763 213.278981 69.370638 221.446714 82.822905 227.018825 
C 96.275171 232.590936 110.694216 235.459063 125.254844 235.459063 
C 139.815472 235.459063 154.234516 232.590936 167.686783 227.018825 
C 181.139049 221.446714 193.362925 213.278981 203.658844 202.983062 
C 213.954763 192.687143 222.122495 180.463268 227.694606 167.011001 
C 233.266717 153.558735 236.134844 139.139691 236.134844 124.579063 
M 125.254844 124.579063 
C 125.254844 124.579063 125.254844 124.579063 125.254844 124.579063 
C 125.254844 124.579063 125.254844 124.579063 125.254844 124.579063 
C 125.254844 124.579063 125.254844 124.579063 125.254844 124.579063 
C 125.254844 124.579063 125.254844 124.579063 125.254844 124.579063 
C 125.254844 124.579063 125.254844 124.579063 125.254844 124.579063 
C 125.254844 124.579063 125.254844 124.579063 125.254844 124.579063 
C 125.254844 124.579063 125.254844 124.579063 125.254844 124.579063 
C 125.254844 124.579063 125.254844 124.579063 125.254844 124.579063 
C 125.254844 124.579063 125.254844 124.579063 125.254844 124.579063 
C 125.254844 124.579063 125.254844 124.579063 125.254844 124.579063 
C 125.254844 124.579063 125.254844 124.579063 125.254844 124.579063 
C 125.254844 124.579063 125.254844 124.579063 125.254844 124.579063 
C 125.254844 124.579063 125.254844 124.579063 125.254844 124.579063 
C 125.254844 124.579063 125.254844 124.579063 125.254844 124.579063 
C 125.254844 124.579063 125.254844 124.579063 125.254844 124.579063 
C 125.254844 124.579063 125.254844 124.579063 125.254844 124.579063 
z
" style="fill: #ffffff"/>
   </g>
   <g id="PolyCollection_1">
    <defs>
     <path id="m7e94289264" d="M 235.247426 -137.111134 
L 235.057309 -137.089473 
L 234.080765 -135.057807 
L 233.223925 -133.076413 
L 232.095161 -131.113696 
L 230.909741 -129.192055 
L 229.676914 -127.313451 
L 228.620791 -125.481123 
L 227.310102 -123.68844 
L 225.965127 -121.941871 
L 224.588644 -120.242055 
L 223.402208 -118.576113 
L 221.969382 -116.967463 
L 220.511518 -115.406888 
L 219.248178 -113.869875 
L 217.745226 -112.402473 
L 216.438581 -110.951562 
L 214.897396 -109.578044 
L 213.553598 -108.213856 
L 211.980863 -106.934454 
L 210.605963 -105.657175 
L 209.216945 -104.421545 
L 207.608248 -103.281024 
L 206.196953 -102.131829 
L 204.775728 -101.023903 
L 203.345917 -99.957042 
L 201.908855 -98.930989 
L 200.465871 -97.945441 
L 199.018284 -97.000042 
L 197.567406 -96.094387 
L 196.302913 -95.149989 
L 194.846471 -94.319762 
L 193.390483 -93.527863 
L 192.115953 -92.687949 
L 190.661431 -91.968541 
L 189.384548 -91.195251 
L 187.93596 -90.545993 
L 186.660719 -89.83729 
L 185.386138 -89.159023 
L 183.952655 -88.608998 
L 182.685357 -87.99179 
L 181.421324 -87.40328 
L 180.161358 -86.842861 
L 178.906239 -86.309894 
L 177.656727 -85.803709 
L 176.413555 -85.323603 
L 175.177434 -84.868841 
L 174.08023 -84.33052 
L 172.856286 -83.92359 
L 171.641304 -83.539789 
L 170.555618 -83.06855 
L 169.356245 -82.728395 
L 168.167493 -82.408919 
L 167.097812 -81.999348 
L 165.927599 -81.718921 
L 164.869531 -81.347217 
L 163.81601 -80.993592 
L 162.67448 -80.766298 
L 161.634655 -80.446823 
L 160.600296 -80.143739 
L 159.571663 -79.856513 
L 158.548991 -79.584605 
L 157.458267 -79.431528 
L 156.451693 -79.187365 
L 155.451616 -78.956716 
L 154.458171 -78.73902 
L 153.471467 -78.533718 
L 152.491587 -78.340247 
L 151.518591 -78.158047 
L 150.55251 -77.986557 
L 149.593352 -77.825224 
L 148.684754 -77.585933 
L 147.736247 -77.445819 
L 146.794607 -77.314366 
L 145.859741 -77.191042 
L 144.931536 -77.075326 
L 144.039251 -76.892066 
L 143.12123 -76.793242 
L 142.209476 -76.700659 
L 141.303781 -76.613846 
L 140.423608 -76.469889 
L 139.527048 -76.396907 
L 138.635911 -76.328494 
L 137.763511 -76.211634 
L 136.880411 -76.155091 
L 136.001934 -76.102071 
L 135.13629 -76.010204 
L 134.264485 -75.967388 
L 133.402245 -75.892114 
L 132.536163 -75.858617 
L 131.673131 -75.827334 
L 130.81543 -75.774424 
L 129.956416 -75.751363 
L 129.100628 -75.713737 
L 128.244513 -75.698403 
L 127.390008 -75.67576 
L 126.53563 -75.667821 
L 125.681743 -75.66125 
L 124.827942 -75.661014 
L 123.974139 -75.670925 
L 123.11995 -75.681961 
L 122.26568 -75.706661 
L 121.409951 -75.725069 
L 120.554558 -75.764726 
L 119.696126 -75.790822 
L 118.835426 -75.818746 
L 117.976718 -75.879988 
L 117.111511 -75.916427 
L 116.250063 -75.993611 
L 115.379316 -76.039291 
L 114.504605 -76.087871 
L 113.637368 -76.188792 
L 112.755594 -76.248048 
L 111.868961 -76.311128 
L 110.994704 -76.437639 
L 110.099721 -76.513155 
L 109.19913 -76.593591 
L 108.316939 -76.747894 
L 107.406988 -76.842805 
L 106.490846 -76.943878 
L 105.568323 -77.051598 
L 104.673965 -77.246282 
L 103.741173 -77.37162 
L 102.801668 -77.505 
L 101.855356 -77.64695 
L 100.902169 -77.79801 
L 99.942065 -77.958724 
L 99.028014 -78.223298 
L 98.057409 -78.40698 
L 97.079964 -78.601837 
L 96.095734 -78.808429 
L 95.104801 -79.027316 
L 94.107269 -79.25906 
L 93.029484 -79.400775 
L 92.015593 -79.658794 
L 90.995553 -79.931485 
L 89.969572 -80.219396 
L 88.937885 -80.523068 
L 87.808311 -80.734805 
L 86.762368 -81.071233 
L 85.711559 -81.42514 
L 84.55232 -81.687552 
L 83.489174 -82.078009 
L 82.31058 -82.377852 
L 81.236648 -82.807355 
L 80.040451 -83.147704 
L 78.957486 -83.618621 
L 77.745666 -84.002391 
L 76.524873 -84.409174 
L 75.430363 -84.946881 
L 74.197365 -85.401281 
L 72.957299 -85.880915 
L 71.710873 -86.386519 
L 70.458818 -86.918798 
L 69.201893 -87.478424 
L 67.940877 -88.066039 
L 66.67657 -88.68225 
L 65.409793 -89.327634 
L 63.974824 -89.908496 
L 62.702487 -90.615904 
L 61.430336 -91.354127 
L 59.983142 -92.035792 
L 58.71117 -92.839358 
L 57.260078 -93.592062 
L 55.807232 -94.382381 
L 54.541868 -95.288789 
L 53.092066 -96.153388 
L 51.644216 -97.057177 
L 50.19962 -98.000614 
L 48.759586 -98.984107 
L 47.325435 -100.008014 
L 45.898495 -101.072641 
L 44.480101 -102.178244 
L 43.071596 -103.325029 
L 41.674327 -104.513156 
L 40.079737 -105.696196 
L 38.707502 -106.970807 
L 37.350707 -108.286994 
L 35.796571 -109.608882 
L 34.473665 -111.011724 
L 32.954156 -112.427446 
L 31.671218 -113.916555 
L 30.193067 -115.425654 
L 28.737909 -116.983015 
L 27.526457 -118.601738 
L 26.123413 -120.250891 
L 24.749336 -121.947233 
L 23.625088 -123.692153 
L 22.315686 -125.477399 
L 21.043104 -127.307943 
L 19.811359 -129.182824 
L 18.838544 -131.087762 
L 17.703925 -133.043503 
L 16.635266 -135.037938 
L 15.651371 -137.066801 
L 15.270362 -137.110211 
L 15.270362 -137.110211 
L 14.986002 -135.196744 
L 14.73394 -133.277246 
L 14.703889 -131.340649 
L 14.516547 -129.414001 
L 14.551902 -127.477921 
L 14.428872 -125.546226 
L 14.383643 -123.611504 
L 14.515702 -121.679256 
L 14.488874 -119.742916 
L 14.683096 -117.816205 
L 14.718349 -115.879652 
L 15.024938 -113.96513 
L 15.122594 -112.031078 
L 15.438255 -110.121434 
L 15.596481 -108.19051 
L 15.970574 -106.291148 
L 16.24829 -104.375892 
L 16.622095 -102.47748 
L 17.08345 -100.598042 
L 17.456422 -98.698951 
L 17.914311 -96.818913 
L 18.528242 -94.981156 
L 18.996721 -93.103973 
L 19.541787 -91.247864 
L 20.114526 -89.399604 
L 20.782028 -87.583298 
L 21.479063 -85.778888 
L 22.106516 -83.947856 
L 22.864959 -82.167784 
L 23.590203 -80.374019 
L 24.4113 -78.622012 
L 25.205435 -76.857943 
L 26.039038 -75.111886 
L 26.914948 -73.386553 
L 27.835849 -71.684864 
L 28.771029 -69.991147 
L 29.757355 -68.326743 
L 30.718315 -66.647003 
L 31.740862 -65.004086 
L 32.830568 -63.404769 
L 34.646396 -62.305602 
L 36.487492 -61.261926 
L 38.352342 -60.274594 
L 40.294195 -59.386464 
L 42.171278 -58.49141 
L 44.053266 -57.641648 
L 45.929558 -56.828868 
L 47.742301 -56.001758 
L 49.614458 -55.267419 
L 51.475626 -54.565199 
L 53.274333 -53.844012 
L 55.123638 -53.213029 
L 56.908392 -52.55693 
L 58.685894 -51.931801 
L 60.455461 -51.336684 
L 62.216474 -50.770614 
L 63.968366 -50.23262 
L 65.710627 -49.721722 
L 67.442798 -49.236937 
L 69.123266 -48.721589 
L 70.835963 -48.286606 
L 72.537481 -47.874824 
L 74.195388 -47.43664 
L 75.841669 -47.015914 
L 77.511844 -46.669567 
L 79.142972 -46.296639 
L 80.762099 -45.938402 
L 82.3757 -45.605503 
L 83.977238 -45.28552 
L 85.572984 -44.989565 
L 87.156765 -44.704779 
L 88.713881 -44.397238 
L 90.284321 -44.152366 
L 91.843194 -43.916205 
L 93.396128 -43.701 
L 94.92544 -43.459388 
L 96.46033 -43.265864 
L 97.977029 -43.054268 
L 99.499511 -42.893582 
L 101.004118 -42.709983 
L 102.503507 -42.540391 
L 104.004052 -42.408349 
L 105.492709 -42.263847 
L 106.976792 -42.132101 
L 108.456537 -42.012748 
L 109.936721 -41.92987 
L 111.407832 -41.832581 
L 112.875466 -41.746711 
L 114.339922 -41.671999 
L 115.801509 -41.608206 
L 117.260547 -41.555121 
L 118.717368 -41.512562 
L 120.172532 -41.483996 
L 121.625793 -41.460131 
L 123.077938 -41.446403 
L 124.529324 -41.442743 
L 125.980354 -41.443848 
L 127.431687 -41.44877 
L 128.883801 -41.462286 
L 130.337063 -41.485513 
L 131.791814 -41.518974 
L 133.248401 -41.562796 
L 134.707162 -41.617132 
L 136.168428 -41.682163 
L 137.635659 -41.737094 
L 139.103562 -41.822385 
L 140.574961 -41.919107 
L 142.050139 -42.027549 
L 143.529365 -42.148025 
L 145.018125 -42.259072 
L 146.507018 -42.403004 
L 148.000719 -42.560085 
L 149.509727 -42.695949 
L 151.014749 -42.87908 
L 152.535215 -43.046626 
L 154.052242 -43.257718 
L 155.590205 -43.443453 
L 157.119993 -43.684669 
L 158.67051 -43.906508 
L 160.213337 -44.180033 
L 161.783057 -44.425214 
L 163.358211 -44.693693 
L 164.945803 -44.971314 
L 166.538673 -45.273565 
L 168.144241 -45.586619 
L 169.754795 -45.925665 
L 171.378156 -46.277217 
L 173.006075 -46.656136 
L 174.646752 -47.049297 
L 176.327599 -47.416547 
L 177.98207 -47.860473 
L 179.684167 -48.271965 
L 181.360413 -48.756738 
L 183.08274 -49.216281 
L 184.815567 -49.700971 
L 186.511036 -50.269359 
L 188.261662 -50.807557 
L 190.021411 -51.373776 
L 191.842902 -51.910949 
L 193.621043 -52.536121 
L 195.406427 -53.192293 
L 197.198302 -53.880423 
L 199.050988 -54.549137 
L 200.917479 -55.247031 
L 202.726804 -56.037662 
L 204.598752 -56.812963 
L 206.480326 -57.621942 
L 208.358062 -58.475778 
L 210.240229 -59.367483 
L 212.111595 -60.308447 
L 214.042682 -61.247313 
L 215.887973 -62.288638 
L 217.699243 -63.391449 
L 218.767735 -65.00478 
L 219.788466 -66.648785 
L 220.770193 -68.316222 
L 221.693777 -70.016539 
L 222.680301 -71.681355 
L 223.53571 -73.417282 
L 224.453331 -75.120521 
L 225.322834 -76.84908 
L 226.137616 -78.604134 
L 226.903494 -80.380971 
L 227.590017 -82.190446 
L 228.40801 -83.94595 
L 229.072162 -85.763358 
L 229.673306 -87.602546 
L 230.339526 -89.41822 
L 230.959155 -91.250621 
L 231.532441 -93.098204 
L 232.059677 -94.959461 
L 232.541206 -96.832923 
L 233.04751 -98.700333 
L 233.434034 -100.596313 
L 233.899189 -102.475121 
L 234.203971 -104.386535 
L 234.596467 -106.28155 
L 234.871249 -108.196781 
L 235.049279 -110.124351 
L 235.374915 -112.032465 
L 235.619991 -113.952107 
L 235.720341 -115.885239 
L 235.893449 -117.812115 
L 235.877826 -119.749159 
L 236.016131 -121.678676 
L 236.118396 -123.611571 
L 235.994558 -125.545473 
L 236.027351 -127.479743 
L 235.99302 -129.413996 
L 235.924978 -131.347938 
L 235.701511 -133.271404 
L 235.602713 -135.204354 
L 235.247426 -137.111134 
z
" style="stroke: #ffee9c"/>
    </defs>
    <g clip-path="url(#p4e9c0d5dd5)">
     <use xlink:href="#m7e94289264" x="0" y="249.158125" style="fill: #ffee9c; stroke: #ffee9c"/>
    </g>
   </g>
   <g id="matplotlib.axis_1">
    <g id="xtick_1">
     <g id="line2d_1">
      <path d="M 125.254844 124.579062 
L 125.254844 13.699062 
" clip-path="url(#p4e9c0d5dd5)" style="fill: none; stroke: #b0b0b0; stroke-width: 0.8; stroke-linecap: square"/>
     </g>
     <g id="text_1">
      <!-- N -->
      <g transform="translate(121.070469 7.958437) scale(0.1 -0.1)">
       <defs>
        <path id="DejaVuSans-Bold-4e" d="M 588 4666 
L 1931 4666 
L 3628 1466 
L 3628 4666 
L 4769 4666 
L 4769 0 
L 3425 0 
L 1728 3200 
L 1728 0 
L 588 0 
L 588 4666 
z
" transform="scale(0.015625)"/>
       </defs>
       <use xlink:href="#DejaVuSans-Bold-4e"/>
      </g>
     </g>
    </g>
    <g id="xtick_2">
     <g id="line2d_2">
      <path d="M 125.254844 124.579062 
L 203.658844 46.175063 
" clip-path="url(#p4e9c0d5dd5)" style="fill: none; stroke: #b0b0b0; stroke-width: 0.8; stroke-linecap: square"/>
     </g>
    </g>
    <g id="xtick_3">
     <g id="line2d_3">
      <path d="M 125.254844 124.579062 
L 236.134844 124.579062 
" clip-path="url(#p4e9c0d5dd5)" style="fill: none; stroke: #b0b0b0; stroke-width: 0.8; stroke-linecap: square"/>
     </g>
     <g id="text_2">
      <!-- E -->
      <g transform="translate(241.219219 127.338437) scale(0.1 -0.1)">
       <defs>
        <path id="DejaVuSans-Bold-45" d="M 588 4666 
L 3834 4666 
L 3834 3756 
L 1791 3756 
L 1791 2888 
L 3713 2888 
L 3713 1978 
L 1791 1978 
L 1791 909 
L 3903 909 
L 3903 0 
L 588 0 
L 588 4666 
z
" transform="scale(0.015625)"/>
       </defs>
       <use xlink:href="#DejaVuSans-Bold-45"/>
      </g>
     </g>
    </g>
    <g id="xtick_4">
     <g id="line2d_4">
      <path d="M 125.254844 124.579062 
L 203.658844 202.983062 
" clip-path="url(#p4e9c0d5dd5)" style="fill: none; stroke: #b0b0b0; stroke-width: 0.8; stroke-linecap: square"/>
     </g>
    </g>
    <g id="xtick_5">
     <g id="line2d_5">
      <path d="M 125.254844 124.579062 
L 125.254844 235.459063 
" clip-path="url(#p4e9c0d5dd5)" style="fill: none; stroke: #b0b0b0; stroke-width: 0.8; stroke-linecap: square"/>
     </g>
     <g id="text_3">
      <!-- S -->
      <g transform="translate(121.654063 246.718438) scale(0.1 -0.1)">
       <defs>
        <path id="DejaVuSans-Bold-53" d="M 3834 4519 
L 3834 3531 
Q 3450 3703 3084 3790 
Q 2719 3878 2394 3878 
Q 1963 3878 1756 3759 
Q 1550 3641 1550 3391 
Q 1550 3203 1689 3098 
Q 1828 2994 2194 2919 
L 2706 2816 
Q 3484 2659 3812 2340 
Q 4141 2022 4141 1434 
Q 4141 663 3683 286 
Q 3225 -91 2284 -91 
Q 1841 -91 1394 -6 
Q 947 78 500 244 
L 500 1259 
Q 947 1022 1364 901 
Q 1781 781 2169 781 
Q 2563 781 2772 912 
Q 2981 1044 2981 1288 
Q 2981 1506 2839 1625 
Q 2697 1744 2272 1838 
L 1806 1941 
Q 1106 2091 782 2419 
Q 459 2747 459 3303 
Q 459 4000 909 4375 
Q 1359 4750 2203 4750 
Q 2588 4750 2994 4692 
Q 3400 4634 3834 4519 
z
" transform="scale(0.015625)"/>
       </defs>
       <use xlink:href="#DejaVuSans-Bold-53"/>
      </g>
     </g>
    </g>
    <g id="xtick_6">
     <g id="line2d_6">
      <path d="M 125.254844 124.579062 
L 46.850844 202.983062 
" clip-path="url(#p4e9c0d5dd5)" style="fill: none; stroke: #b0b0b0; stroke-width: 0.8; stroke-linecap: square"/>
     </g>
    </g>
    <g id="xtick_7">
     <g id="line2d_7">
      <path d="M 125.254844 124.579062 
L 14.374844 124.579063 
" clip-path="url(#p4e9c0d5dd5)" style="fill: none; stroke: #b0b0b0; stroke-width: 0.8; stroke-linecap: square"/>
     </g>
     <g id="text_4">
      <!-- W -->
      <g transform="translate(0.36 127.338438) scale(0.1 -0.1)">
       <defs>
        <path id="DejaVuSans-Bold-57" d="M 191 4666 
L 1344 4666 
L 2150 1275 
L 2950 4666 
L 4109 4666 
L 4909 1275 
L 5716 4666 
L 6859 4666 
L 5759 0 
L 4372 0 
L 3525 3547 
L 2688 0 
L 1300 0 
L 191 4666 
z
" transform="scale(0.015625)"/>
       </defs>
       <use xlink:href="#DejaVuSans-Bold-57"/>
      </g>
     </g>
    </g>
    <g id="xtick_8">
     <g id="line2d_8">
      <path d="M 125.254844 124.579062 
L 46.850844 46.175063 
" clip-path="url(#p4e9c0d5dd5)" style="fill: none; stroke: #b0b0b0; stroke-width: 0.8; stroke-linecap: square"/>
     </g>
    </g>
   </g>
   <g id="matplotlib.axis_2"/>
   <g id="patch_3">
    <path d="M 125.254844 124.579062 
C 125.254844 124.579062 125.254844 124.579062 125.254844 124.579062 
C 125.254844 124.579062 125.254844 124.579062 125.254844 124.579062 
L 125.254844 124.579062 
C 125.254844 124.579062 125.254844 124.579062 125.254844 124.579062 
C 125.254844 124.579062 125.254844 124.579062 125.254844 124.579062 
z
" clip-path="url(#p4e9c0d5dd5)" style="fill: #d9d9d9"/>
   </g>
   <g id="patch_4">
    <path d="M 125.254844 124.579062 
C 125.254844 124.579062 125.254844 124.579062 125.254844 124.579062 
C 125.254844 124.579062 125.254844 124.579062 125.254844 124.579062 
L 125.254844 124.579062 
C 125.254844 124.579062 125.254844 124.579062 125.254844 124.579062 
C 125.254844 124.579062 125.254844 124.579062 125.254844 124.579062 
z
" clip-path="url(#p4e9c0d5dd5)" style="fill: #d9d9d9"/>
   </g>
   <g id="patch_5">
    <path d="M 125.254844 124.579062 
C 125.254844 124.579062 125.254844 124.579062 125.254844 124.579062 
C 125.254844 124.579062 125.254844 124.579062 125.254844 124.579062 
L 125.254844 124.579062 
C 125.254844 124.579062 125.254844 124.579062 125.254844 124.579062 
C 125.254844 124.579062 125.254844 124.579062 125.254844 124.579062 
z
" clip-path="url(#p4e9c0d5dd5)" style="fill: #d9d9d9"/>
   </g>
   <g id="patch_6">
    <path d="M 125.254844 124.579062 
C 125.254844 124.579062 125.254844 124.579062 125.254844 124.579062 
C 125.254844 124.579062 125.254844 124.579062 125.254844 124.579062 
L 125.254844 124.579062 
C 125.254844 124.579062 125.254844 124.579062 125.254844 124.579062 
C 125.254844 124.579062 125.254844 124.579062 125.254844 124.579062 
z
" clip-path="url(#p4e9c0d5dd5)" style="fill: #d9d9d9"/>
   </g>
   <g id="patch_7">
    <path d="M 125.254844 124.579062 
C 125.254844 124.579062 125.254844 124.579062 125.254844 124.579062 
C 125.254844 124.579062 125.254844 124.579062 125.254844 124.579062 
L 125.254844 124.579062 
C 125.254844 124.579062 125.254844 124.579062 125.254844 124.579062 
C 125.254844 124.579062 125.254844 124.579062 125.254844 124.579062 
z
" clip-path="url(#p4e9c0d5dd5)" style="fill: #d9d9d9"/>
   </g>
   <g id="patch_8">
    <path d="M 125.254844 124.579062 
C 125.254844 124.579062 125.254844 124.579062 125.254844 124.579062 
C 125.254844 124.579062 125.254844 124.579062 125.254844 124.579062 
L 125.254844 124.579062 
C 125.254844 124.579062 125.254844 124.579062 125.254844 124.579062 
C 125.254844 124.579062 125.254844 124.579062 125.254844 124.579062 
z
" clip-path="url(#p4e9c0d5dd5)" style="fill: #d9d9d9"/>
   </g>
   <g id="patch_9">
    <path d="M 125.254844 124.579062 
C 125.254844 124.579062 125.254844 124.579062 125.254844 124.579062 
C 125.254844 124.579062 125.254844 124.579062 125.254844 124.579062 
L 125.254844 124.579062 
C 125.254844 124.579062 125.254844 124.579062 125.254844 124.579062 
C 125.254844 124.579062 125.254844 124.579062 125.254844 124.579062 
z
" clip-path="url(#p4e9c0d5dd5)" style="fill: #d9d9d9"/>
   </g>
   <g id="patch_10">
    <path d="M 125.254844 124.579062 
C 125.254844 124.579062 125.254844 124.579062 125.254844 124.579062 
C 125.254844 124.579062 125.254844 124.579062 125.254844 124.579062 
L 125.254844 124.579062 
C 125.254844 124.579062 125.254844 124.579062 125.254844 124.579062 
C 125.254844 124.579062 125.254844 124.579062 125.254844 124.579062 
z
" clip-path="url(#p4e9c0d5dd5)" style="fill: #d9d9d9"/>
   </g>
   <g id="patch_11">
    <path d="M 125.254844 124.579062 
C 125.254844 124.579062 125.254844 124.579062 125.254844 124.579062 
C 125.254844 124.579062 125.254844 124.579062 125.254844 124.579062 
L 125.254844 124.579062 
C 125.254844 124.579062 125.254844 124.579062 125.254844 124.579062 
C 125.254844 124.579062 125.254844 124.579062 125.254844 124.579062 
z
" clip-path="url(#p4e9c0d5dd5)" style="fill: #d9d9d9"/>
   </g>
   <g id="patch_12">
    <path d="M 125.254844 124.579062 
C 125.254844 124.579062 125.254844 124.579062 125.254844 124.579062 
C 125.254844 124.579062 125.254844 124.579062 125.254844 124.579062 
L 125.254844 124.579062 
C 125.254844 124.579062 125.254844 124.579062 125.254844 124.579062 
C 125.254844 124.579062 125.254844 124.579062 125.254844 124.579062 
z
" clip-path="url(#p4e9c0d5dd5)" style="fill: #d9d9d9"/>
   </g>
   <g id="patch_13">
    <path d="M 125.254844 124.579062 
C 125.254844 124.579062 125.254844 124.579062 125.254844 124.579062 
C 125.254844 124.579062 125.254844 124.579062 125.254844 124.579062 
L 125.254844 124.579062 
C 125.254844 124.579062 125.254844 124.579062 125.254844 124.579062 
C 125.254844 124.579062 125.254844 124.579062 125.254844 124.579062 
z
" clip-path="url(#p4e9c0d5dd5)" style="fill: #d9d9d9"/>
   </g>
   <g id="patch_14">
    <path d="M 125.254844 124.579062 
C 125.254844 124.579062 125.254844 124.579062 125.254844 124.579062 
C 125.254844 124.579062 125.254844 124.579062 125.254844 124.579062 
L 125.254844 124.579062 
C 125.254844 124.579062 125.254844 124.579062 125.254844 124.579062 
C 125.254844 124.579062 125.254844 124.579062 125.254844 124.579062 
z
" clip-path="url(#p4e9c0d5dd5)" style="fill: #d9d9d9"/>
   </g>
   <g id="patch_15">
    <path d="M 125.254844 124.579062 
C 125.254844 124.579062 125.254844 124.579062 125.254844 124.579062 
C 125.254844 124.579062 125.254844 124.579062 125.254844 124.579062 
L 125.254844 124.579062 
C 125.254844 124.579062 125.254844 124.579062 125.254844 124.579062 
C 125.254844 124.579062 125.254844 124.579062 125.254844 124.579062 
z
" clip-path="url(#p4e9c0d5dd5)" style="fill: #d9d9d9"/>
   </g>
   <g id="patch_16">
    <path d="M 125.254844 124.579062 
C 125.254844 124.579062 125.254844 124.579062 125.254844 124.579062 
C 125.254844 124.579062 125.254844 124.579062 125.254844 124.579062 
L 125.254844 124.579062 
C 125.254844 124.579062 125.254844 124.579062 125.254844 124.579062 
C 125.254844 124.579062 125.254844 124.579062 125.254844 124.579062 
z
" clip-path="url(#p4e9c0d5dd5)" style="fill: #d9d9d9"/>
   </g>
   <g id="patch_17">
    <path d="M 125.254844 124.579062 
C 125.254844 124.579062 125.254844 124.579062 125.254844 124.579062 
C 125.254844 124.579062 125.254844 124.579062 125.254844 124.579062 
L 125.254844 124.579062 
C 125.254844 124.579062 125.254844 124.579062 125.254844 124.579062 
C 125.254844 124.579062 125.254844 124.579062 125.254844 124.579062 
z
" clip-path="url(#p4e9c0d5dd5)" style="fill: #d9d9d9"/>
   </g>
   <g id="patch_18">
    <path d="M 125.254844 124.579062 
C 125.254844 124.579062 125.254844 124.579062 125.254844 124.579062 
C 125.254844 124.579062 125.254844 124.579062 125.254844 124.579062 
L 125.254844 124.579062 
C 125.254844 124.579062 125.254844 124.579062 125.254844 124.579062 
C 125.254844 124.579062 125.254844 124.579062 125.254844 124.579062 
z
" clip-path="url(#p4e9c0d5dd5)" style="fill: #d9d9d9"/>
   </g>
   <g id="patch_19">
    <path d="M 125.254844 124.579062 
C 125.254844 124.579062 125.254844 124.579062 125.254844 124.579062 
C 125.254844 124.579062 125.254844 124.579062 125.254844 124.579062 
L 125.254844 124.579062 
C 125.254844 124.579062 125.254844 124.579062 125.254844 124.579062 
C 125.254844 124.579062 125.254844 124.579062 125.254844 124.579062 
z
" clip-path="url(#p4e9c0d5dd5)" style="fill: #d9d9d9"/>
   </g>
   <g id="patch_20">
    <path d="M 125.254844 124.579062 
C 125.254844 124.579062 125.254844 124.579062 125.254844 124.579062 
C 125.254844 124.579062 125.254844 124.579062 125.254844 124.579062 
L 125.254844 124.579062 
C 125.254844 124.579062 125.254844 124.579062 125.254844 124.579062 
C 125.254844 124.579062 125.254844 124.579062 125.254844 124.579062 
z
" clip-path="url(#p4e9c0d5dd5)" style="fill: #d9d9d9"/>
   </g>
   <g id="patch_21">
    <path d="M 125.254844 124.579062 
C 125.254844 124.579062 125.254844 124.579062 125.254844 124.579062 
C 125.254844 124.579062 125.254844 124.579062 125.254844 124.579062 
L 125.254844 124.579062 
C 125.254844 124.579062 125.254844 124.579062 125.254844 124.579062 
C 125.254844 124.579062 125.254844 124.579062 125.254844 124.579062 
z
" clip-path="url(#p4e9c0d5dd5)" style="fill: #d9d9d9"/>
   </g>
   <g id="patch_22">
    <path d="M 125.254844 124.579062 
C 125.254844 124.579062 125.254844 124.579062 125.254844 124.579062 
C 125.254844 124.579062 125.254844 124.579062 125.254844 124.579062 
L 125.254844 124.579062 
C 125.254844 124.579062 125.254844 124.579062 125.254844 124.579062 
C 125.254844 124.579062 125.254844 124.579062 125.254844 124.579062 
z
" clip-path="url(#p4e9c0d5dd5)" style="fill: #d9d9d9"/>
   </g>
   <g id="patch_23">
    <path d="M 125.254844 124.579062 
C 125.254844 124.579062 125.254844 124.579062 125.254844 124.579062 
C 125.254844 124.579062 125.254844 124.579062 125.254844 124.579062 
L 125.254844 124.579062 
C 125.254844 124.579062 125.254844 124.579062 125.254844 124.579062 
C 125.254844 124.579062 125.254844 124.579062 125.254844 124.579062 
z
" clip-path="url(#p4e9c0d5dd5)" style="fill: #d9d9d9"/>
   </g>
   <g id="patch_24">
    <path d="M 125.254844 124.579062 
C 125.254844 124.579062 125.254844 124.579062 125.254844 124.579062 
C 125.254844 124.579062 125.254844 124.579062 125.254844 124.579062 
L 125.254844 124.579062 
C 125.254844 124.579062 125.254844 124.579062 125.254844 124.579062 
C 125.254844 124.579062 125.254844 124.579062 125.254844 124.579062 
z
" clip-path="url(#p4e9c0d5dd5)" style="fill: #d9d9d9"/>
   </g>
   <g id="patch_25">
    <path d="M 125.254844 124.579062 
C 125.254844 124.579062 125.254844 124.579062 125.254844 124.579062 
C 125.254844 124.579062 125.254844 124.579062 125.254844 124.579062 
L 125.254844 124.579062 
C 125.254844 124.579062 125.254844 124.579062 125.254844 124.579062 
C 125.254844 124.579062 125.254844 124.579062 125.254844 124.579062 
z
" clip-path="url(#p4e9c0d5dd5)" style="fill: #d9d9d9"/>
   </g>
   <g id="patch_26">
    <path d="M 125.254844 124.579062 
C 125.254844 124.579062 125.254844 124.579062 125.254844 124.579062 
C 125.254844 124.579062 125.254844 124.579062 125.254844 124.579062 
L 125.254844 124.579062 
C 125.254844 124.579062 125.254844 124.579062 125.254844 124.579062 
C 125.254844 124.579062 125.254844 124.579062 125.254844 124.579062 
z
" clip-path="url(#p4e9c0d5dd5)" style="fill: #d9d9d9"/>
   </g>
   <g id="patch_27">
    <path d="M 125.254844 124.579062 
C 125.254844 124.579062 125.254844 124.579062 125.254844 124.579062 
C 125.254844 124.579062 125.254844 124.579062 125.254844 124.579062 
L 125.254844 124.579062 
C 125.254844 124.579062 125.254844 124.579062 125.254844 124.579062 
C 125.254844 124.579062 125.254844 124.579062 125.254844 124.579062 
z
" clip-path="url(#p4e9c0d5dd5)" style="fill: #d9d9d9"/>
   </g>
   <g id="patch_28">
    <path d="M 125.254844 124.579062 
C 125.254844 124.579062 125.254844 124.579062 125.254844 124.579062 
C 125.254844 124.579062 125.254844 124.579062 125.254844 124.579062 
L 125.254844 124.579062 
C 125.254844 124.579062 125.254844 124.579062 125.254844 124.579062 
C 125.254844 124.579062 125.254844 124.579062 125.254844 124.579062 
z
" clip-path="url(#p4e9c0d5dd5)" style="fill: #d9d9d9"/>
   </g>
   <g id="patch_29">
    <path d="M 125.254844 124.579062 
C 125.254844 124.579062 125.254844 124.579062 125.254844 124.579062 
C 125.254844 124.579062 125.254844 124.579062 125.254844 124.579062 
L 125.254844 124.579062 
C 125.254844 124.579062 125.254844 124.579062 125.254844 124.579062 
C 125.254844 124.579062 125.254844 124.579062 125.254844 124.579062 
z
" clip-path="url(#p4e9c0d5dd5)" style="fill: #d9d9d9"/>
   </g>
   <g id="patch_30">
    <path d="M 125.254844 124.579062 
C 125.254844 124.579062 125.254844 124.579062 125.254844 124.579062 
C 125.254844 124.579062 125.254844 124.579062 125.254844 124.579062 
L 125.254844 124.579062 
C 125.254844 124.579062 125.254844 124.579062 125.254844 124.579062 
C 125.254844 124.579062 125.254844 124.579062 125.254844 124.579062 
z
" clip-path="url(#p4e9c0d5dd5)" style="fill: #d9d9d9"/>
   </g>
   <g id="patch_31">
    <path d="M 125.254844 124.579062 
C 125.254844 124.579062 125.254844 124.579062 125.254844 124.579062 
C 125.254844 124.579062 125.254844 124.579062 125.254844 124.579062 
L 125.254844 124.579062 
C 125.254844 124.579062 125.254844 124.579062 125.254844 124.579062 
C 125.254844 124.579062 125.254844 124.579062 125.254844 124.579062 
z
" clip-path="url(#p4e9c0d5dd5)" style="fill: #d9d9d9"/>
   </g>
   <g id="patch_32">
    <path d="M 125.254844 124.579062 
C 125.254844 124.579062 125.254844 124.579062 125.254844 124.579062 
C 125.254844 124.579062 125.254844 124.579062 125.254844 124.579062 
L 125.254844 124.579062 
C 125.254844 124.579062 125.254844 124.579062 125.254844 124.579062 
C 125.254844 124.579062 125.254844 124.579062 125.254844 124.579062 
z
" clip-path="url(#p4e9c0d5dd5)" style="fill: #d9d9d9"/>
   </g>
   <g id="patch_33">
    <path d="M 125.254844 124.579062 
C 125.254844 124.579062 125.254844 124.579062 125.254844 124.579062 
C 125.254844 124.579062 125.254844 124.579062 125.254844 124.579062 
L 125.254844 124.579062 
C 125.254844 124.579062 125.254844 124.579062 125.254844 124.579062 
C 125.254844 124.579062 125.254844 124.579062 125.254844 124.579062 
z
" clip-path="url(#p4e9c0d5dd5)" style="fill: #d9d9d9"/>
   </g>
   <g id="patch_34">
    <path d="M 125.254844 124.579062 
C 125.254844 124.579062 125.254844 124.579062 125.254844 124.579062 
C 125.254844 124.579062 125.254844 124.579062 125.254844 124.579062 
L 125.254844 124.579062 
C 125.254844 124.579062 125.254844 124.579062 125.254844 124.579062 
C 125.254844 124.579062 125.254844 124.579062 125.254844 124.579062 
z
" clip-path="url(#p4e9c0d5dd5)" style="fill: #d9d9d9"/>
   </g>
   <g id="patch_35">
    <path d="M 125.254844 124.579062 
C 125.254844 124.579062 125.254844 124.579062 125.254844 124.579062 
C 125.254844 124.579062 125.254844 124.579062 125.254844 124.579062 
L 129.362615 82.872164 
C 127.997486 82.73771 126.626578 82.670362 125.254844 82.670362 
C 123.883109 82.670362 122.512202 82.73771 121.147073 82.872164 
z
" clip-path="url(#p4e9c0d5dd5)" style="fill: #a1a1d8"/>
   </g>
   <g id="patch_36">
    <path d="M 125.254844 124.579062 
C 125.254844 124.579062 125.254844 124.579062 125.254844 124.579062 
C 125.254844 124.579062 125.254844 124.579062 125.254844 124.579062 
L 142.000523 69.375958 
C 140.193642 68.827847 138.360941 68.368779 136.509037 68.000412 
C 134.657133 67.632046 132.78826 67.354825 130.909167 67.16975 
z
" clip-path="url(#p4e9c0d5dd5)" style="fill: #a1a1d8"/>
   </g>
   <g id="patch_37">
    <path d="M 125.254844 124.579062 
C 125.254844 124.579062 125.254844 124.579062 125.254844 124.579062 
C 125.254844 124.579062 125.254844 124.579062 125.254844 124.579062 
L 145.268723 87.135728 
C 144.043147 86.480644 142.786146 85.886127 141.502262 85.354325 
C 140.218378 84.822523 138.909157 84.354076 137.57933 83.950677 
z
" clip-path="url(#p4e9c0d5dd5)" style="fill: #a1a1d8"/>
   </g>
   <g id="patch_38">
    <path d="M 125.254844 124.579062 
C 125.254844 124.579062 125.254844 124.579062 125.254844 124.579062 
C 125.254844 124.579062 125.254844 124.579062 125.254844 124.579062 
L 153.205732 90.520806 
C 152.090955 89.605932 150.931931 88.746342 149.732848 87.94514 
C 148.533765 87.143938 147.296068 86.402091 146.024228 85.722278 
z
" clip-path="url(#p4e9c0d5dd5)" style="fill: #a1a1d8"/>
   </g>
   <g id="patch_39">
    <path d="M 125.254844 124.579062 
C 125.254844 124.579062 125.254844 124.579062 125.254844 124.579062 
C 125.254844 124.579062 125.254844 124.579062 125.254844 124.579062 
L 142.684712 110.274739 
C 142.21651 109.704234 141.72058 109.157059 141.198714 108.635193 
C 140.676847 108.113326 140.129673 107.617396 139.559167 107.149194 
z
" clip-path="url(#p4e9c0d5dd5)" style="fill: #a1a1d8"/>
   </g>
   <g id="patch_40">
    <path d="M 125.254844 124.579062 
C 125.254844 124.579062 125.254844 124.579062 125.254844 124.579062 
C 125.254844 124.579062 125.254844 124.579062 125.254844 124.579062 
L 187.852123 91.12012 
C 186.756962 89.071217 185.561865 87.077319 184.27115 85.145627 
C 182.980435 83.213935 181.595657 81.346778 180.121818 79.5509 
z
" clip-path="url(#p4e9c0d5dd5)" style="fill: #a1a1d8"/>
   </g>
   <g id="patch_41">
    <path d="M 125.254844 124.579062 
C 125.254844 124.579062 125.254844 124.579062 125.254844 124.579062 
C 125.254844 124.579062 125.254844 124.579062 125.254844 124.579062 
L 183.806578 106.817588 
C 183.225219 104.901102 182.550115 103.014315 181.783707 101.164041 
C 181.017298 99.313767 180.160508 97.502236 179.216431 95.735993 
z
" clip-path="url(#p4e9c0d5dd5)" style="fill: #a1a1d8"/>
   </g>
   <g id="patch_42">
    <path d="M 125.254844 124.579062 
C 125.254844 124.579062 125.254844 124.579062 125.254844 124.579062 
C 125.254844 124.579062 125.254844 124.579062 125.254844 124.579062 
L 189.796008 118.222313 
C 189.587942 116.109784 189.276282 114.008744 188.862154 111.926782 
C 188.448026 109.84482 187.931929 107.784445 187.315727 105.753099 
z
" clip-path="url(#p4e9c0d5dd5)" style="fill: #a1a1d8"/>
   </g>
   <g id="patch_43">
    <path d="M 125.254844 124.579062 
C 125.254844 124.579062 125.254844 124.579062 125.254844 124.579062 
C 125.254844 124.579062 125.254844 124.579062 125.254844 124.579062 
L 170.64089 129.049198 
C 170.787205 127.563645 170.860494 126.071804 170.860494 124.579062 
C 170.860494 123.086321 170.787205 121.59448 170.64089 120.108927 
z
" clip-path="url(#p4e9c0d5dd5)" style="fill: #a1a1d8"/>
   </g>
   <g id="patch_44">
    <path d="M 125.254844 124.579062 
C 125.254844 124.579062 125.254844 124.579062 125.254844 124.579062 
C 125.254844 124.579062 125.254844 124.579062 125.254844 124.579062 
L 180.457949 141.324741 
C 181.00606 139.517861 181.465127 137.685159 181.833494 135.833256 
C 182.201861 133.981352 182.479082 132.112479 182.664156 130.233386 
z
" clip-path="url(#p4e9c0d5dd5)" style="fill: #a1a1d8"/>
   </g>
   <g id="patch_45">
    <path d="M 125.254844 124.579062 
C 125.254844 124.579062 125.254844 124.579062 125.254844 124.579062 
C 125.254844 124.579062 125.254844 124.579062 125.254844 124.579062 
L 157.542848 141.837361 
C 158.107738 140.780526 158.6204 139.696594 159.078982 138.589479 
C 159.537564 137.482365 159.941513 136.353402 160.28937 135.20667 
z
" clip-path="url(#p4e9c0d5dd5)" style="fill: #a1a1d8"/>
   </g>
   <g id="patch_46">
    <path d="M 125.254844 124.579062 
C 125.254844 124.579062 125.254844 124.579062 125.254844 124.579062 
C 125.254844 124.579062 125.254844 124.579062 125.254844 124.579062 
L 156.786662 150.456557 
C 157.633671 149.424473 158.429497 148.351426 159.171266 147.241291 
C 159.913034 146.131156 160.599851 144.985271 161.229236 143.807776 
z
" clip-path="url(#p4e9c0d5dd5)" style="fill: #a1a1d8"/>
   </g>
   <g id="patch_47">
    <path d="M 125.254844 124.579062 
C 125.254844 124.579062 125.254844 124.579062 125.254844 124.579062 
C 125.254844 124.579062 125.254844 124.579062 125.254844 124.579062 
L 148.076649 152.387512 
C 148.986861 151.64052 149.859849 150.84929 150.69246 150.016679 
C 151.525071 149.184068 152.316302 148.311079 153.063293 147.400867 
z
" clip-path="url(#p4e9c0d5dd5)" style="fill: #a1a1d8"/>
   </g>
   <g id="patch_48">
    <path d="M 125.254844 124.579062 
C 125.254844 124.579062 125.254844 124.579062 125.254844 124.579062 
C 125.254844 124.579062 125.254844 124.579062 125.254844 124.579062 
L 133.733909 140.442278 
C 134.253136 140.164746 134.758424 139.861888 135.247947 139.534799 
C 135.737471 139.20771 136.21064 138.856783 136.665746 138.483287 
z
" clip-path="url(#p4e9c0d5dd5)" style="fill: #a1a1d8"/>
   </g>
   <g id="patch_49">
    <path d="M 125.254844 124.579062 
C 125.254844 124.579062 125.254844 124.579062 125.254844 124.579062 
C 125.254844 124.579062 125.254844 124.579062 125.254844 124.579062 
L 129.667718 139.126358 
C 130.143872 138.981918 130.612648 138.814187 131.072353 138.623771 
C 131.532057 138.433356 131.982135 138.220484 132.420962 137.985927 
z
" clip-path="url(#p4e9c0d5dd5)" style="fill: #a1a1d8"/>
   </g>
   <g id="patch_50">
    <path d="M 125.254844 124.579062 
C 125.254844 124.579062 125.254844 124.579062 125.254844 124.579062 
C 125.254844 124.579062 125.254844 124.579062 125.254844 124.579062 
L 127.464938 147.018524 
C 128.199415 146.946185 128.929898 146.837828 129.653748 146.693845 
C 130.377597 146.549863 131.093942 146.370428 131.800193 146.156189 
z
" clip-path="url(#p4e9c0d5dd5)" style="fill: #a1a1d8"/>
   </g>
   <g id="patch_51">
    <path d="M 125.254844 124.579062 
C 125.254844 124.579062 125.254844 124.579062 125.254844 124.579062 
C 125.254844 124.579062 125.254844 124.579062 125.254844 124.579062 
L 122.274753 154.836427 
C 123.265122 154.93397 124.259683 154.982829 125.254844 154.982829 
C 126.250004 154.982829 127.244565 154.93397 128.234934 154.836427 
z
" clip-path="url(#p4e9c0d5dd5)" style="fill: #a1a1d8"/>
   </g>
   <g id="patch_52">
    <path d="M 125.254844 124.579062 
C 125.254844 124.579062 125.254844 124.579062 125.254844 124.579062 
C 125.254844 124.579062 125.254844 124.579062 125.254844 124.579062 
L 115.387358 157.107804 
C 116.452072 157.430781 117.532002 157.70129 118.623247 157.918352 
C 119.714491 158.135414 120.815736 158.298768 121.923002 158.407824 
z
" clip-path="url(#p4e9c0d5dd5)" style="fill: #a1a1d8"/>
   </g>
   <g id="patch_53">
    <path d="M 125.254844 124.579062 
C 125.254844 124.579062 125.254844 124.579062 125.254844 124.579062 
C 125.254844 124.579062 125.254844 124.579062 125.254844 124.579062 
L 125.254844 124.579062 
C 125.254844 124.579062 125.254844 124.579062 125.254844 124.579062 
C 125.254844 124.579062 125.254844 124.579062 125.254844 124.579062 
z
" clip-path="url(#p4e9c0d5dd5)" style="fill: #a1a1d8"/>
   </g>
   <g id="patch_54">
    <path d="M 125.254844 124.579062 
C 125.254844 124.579062 125.254844 124.579062 125.254844 124.579062 
C 125.254844 124.579062 125.254844 124.579062 125.254844 124.579062 
L 125.254844 124.579062 
C 125.254844 124.579062 125.254844 124.579062 125.254844 124.579062 
C 125.254844 124.579062 125.254844 124.579062 125.254844 124.579062 
z
" clip-path="url(#p4e9c0d5dd5)" style="fill: #a1a1d8"/>
   </g>
   <g id="patch_55">
    <path d="M 125.254844 124.579062 
C 125.254844 124.579062 125.254844 124.579062 125.254844 124.579062 
C 125.254844 124.579062 125.254844 124.579062 125.254844 124.579062 
L 125.254844 124.579062 
C 125.254844 124.579062 125.254844 124.579062 125.254844 124.579062 
C 125.254844 124.579062 125.254844 124.579062 125.254844 124.579062 
z
" clip-path="url(#p4e9c0d5dd5)" style="fill: #a1a1d8"/>
   </g>
   <g id="patch_56">
    <path d="M 125.254844 124.579062 
C 125.254844 124.579062 125.254844 124.579062 125.254844 124.579062 
C 125.254844 124.579062 125.254844 124.579062 125.254844 124.579062 
L 125.254844 124.579062 
C 125.254844 124.579062 125.254844 124.579062 125.254844 124.579062 
C 125.254844 124.579062 125.254844 124.579062 125.254844 124.579062 
z
" clip-path="url(#p4e9c0d5dd5)" style="fill: #a1a1d8"/>
   </g>
   <g id="patch_57">
    <path d="M 125.254844 124.579062 
C 125.254844 124.579062 125.254844 124.579062 125.254844 124.579062 
C 125.254844 124.579062 125.254844 124.579062 125.254844 124.579062 
L 113.986557 127.99726 
C 114.09844 128.366088 114.228364 128.7292 114.375859 129.085286 
C 114.523354 129.441371 114.688244 129.79 114.869931 130.129914 
z
" clip-path="url(#p4e9c0d5dd5)" style="fill: #a1a1d8"/>
   </g>
   <g id="patch_58">
    <path d="M 125.254844 124.579062 
C 125.254844 124.579062 125.254844 124.579062 125.254844 124.579062 
C 125.254844 124.579062 125.254844 124.579062 125.254844 124.579062 
L 118.489091 125.245431 
C 118.510903 125.466884 118.543573 125.687133 118.586986 125.905382 
C 118.630398 126.123631 118.6845 126.339617 118.749095 126.55256 
z
" clip-path="url(#p4e9c0d5dd5)" style="fill: #a1a1d8"/>
   </g>
   <g id="patch_59">
    <path d="M 125.254844 124.579062 
C 125.254844 124.579062 125.254844 124.579062 125.254844 124.579062 
C 125.254844 124.579062 125.254844 124.579062 125.254844 124.579062 
L 125.254844 124.579062 
C 125.254844 124.579062 125.254844 124.579062 125.254844 124.579062 
C 125.254844 124.579062 125.254844 124.579062 125.254844 124.579062 
z
" clip-path="url(#p4e9c0d5dd5)" style="fill: #a1a1d8"/>
   </g>
   <g id="patch_60">
    <path d="M 125.254844 124.579062 
C 125.254844 124.579062 125.254844 124.579062 125.254844 124.579062 
C 125.254844 124.579062 125.254844 124.579062 125.254844 124.579062 
L 105.737599 118.658571 
C 105.543812 119.2974 105.381507 119.945357 105.25127 120.600104 
C 105.121033 121.254851 105.02302 121.915598 104.957587 122.579957 
z
" clip-path="url(#p4e9c0d5dd5)" style="fill: #a1a1d8"/>
   </g>
   <g id="patch_61">
    <path d="M 125.254844 124.579062 
C 125.254844 124.579062 125.254844 124.579062 125.254844 124.579062 
C 125.254844 124.579062 125.254844 124.579062 125.254844 124.579062 
L 91.337862 106.450058 
C 90.744473 107.560211 90.205946 108.69883 89.724228 109.8618 
C 89.24251 111.02477 88.818181 112.21069 88.452774 113.415277 
z
" clip-path="url(#p4e9c0d5dd5)" style="fill: #a1a1d8"/>
   </g>
   <g id="patch_62">
    <path d="M 125.254844 124.579062 
C 125.254844 124.579062 125.254844 124.579062 125.254844 124.579062 
C 125.254844 124.579062 125.254844 124.579062 125.254844 124.579062 
L 96.470364 100.95625 
C 95.697154 101.898409 94.970667 102.877963 94.293528 103.891373 
C 93.616389 104.904783 92.989414 105.950828 92.414867 107.025729 
z
" clip-path="url(#p4e9c0d5dd5)" style="fill: #a1a1d8"/>
   </g>
   <g id="patch_63">
    <path d="M 125.254844 124.579062 
C 125.254844 124.579062 125.254844 124.579062 125.254844 124.579062 
C 125.254844 124.579062 125.254844 124.579062 125.254844 124.579062 
L 98.320694 91.759706 
C 97.246467 92.641301 96.216172 93.575106 95.233529 94.557748 
C 94.250887 95.540391 93.317082 96.570686 92.435487 97.644912 
z
" clip-path="url(#p4e9c0d5dd5)" style="fill: #a1a1d8"/>
   </g>
   <g id="patch_64">
    <path d="M 125.254844 124.579062 
C 125.254844 124.579062 125.254844 124.579062 125.254844 124.579062 
C 125.254844 124.579062 125.254844 124.579062 125.254844 124.579062 
L 104.986001 86.658724 
C 103.744811 87.322154 102.536943 88.046122 101.366757 88.828015 
C 100.196572 89.609908 99.065481 90.448782 97.97757 91.341608 
z
" clip-path="url(#p4e9c0d5dd5)" style="fill: #a1a1d8"/>
   </g>
   <g id="patch_65">
    <path d="M 125.254844 124.579062 
C 125.254844 124.579062 125.254844 124.579062 125.254844 124.579062 
C 125.254844 124.579062 125.254844 124.579062 125.254844 124.579062 
L 113.917966 87.206384 
C 112.694702 87.577457 111.490394 88.008365 110.309393 88.497552 
C 109.128391 88.986739 107.972119 89.533615 106.844753 90.136205 
z
" clip-path="url(#p4e9c0d5dd5)" style="fill: #a1a1d8"/>
   </g>
   <g id="patch_66">
    <path d="M 125.254844 124.579062 
C 125.254844 124.579062 125.254844 124.579062 125.254844 124.579062 
C 125.254844 124.579062 125.254844 124.579062 125.254844 124.579062 
L 119.88241 70.031823 
C 118.096997 70.207671 116.321294 70.471072 114.561715 70.821074 
C 112.802136 71.171076 111.060801 71.607257 109.344001 72.128043 
z
" clip-path="url(#p4e9c0d5dd5)" style="fill: #a1a1d8"/>
   </g>
   <g id="patch_67">
    <path d="M 121.147073 82.872164 
C 122.512202 82.73771 123.883109 82.670362 125.254844 82.670362 
C 126.626578 82.670362 127.997486 82.73771 129.362615 82.872164 
L 134.607771 29.617203 
C 131.499527 29.311068 128.378127 29.157723 125.254844 29.157723 
C 122.131561 29.157723 119.01016 29.311068 115.901917 29.617203 
z
" clip-path="url(#p4e9c0d5dd5)" style="fill: #ff8c8e"/>
   </g>
   <g id="patch_68">
    <path d="M 130.909167 67.16975 
C 132.78826 67.354825 134.657133 67.632046 136.509037 68.000412 
C 138.360941 68.368779 140.193642 68.827847 142.000523 69.375958 
L 154.725441 27.427523 
C 151.545526 26.462906 148.320168 25.654996 145.061016 25.00671 
C 141.801864 24.358425 138.512848 23.870545 135.205847 23.544834 
z
" clip-path="url(#p4e9c0d5dd5)" style="fill: #ff8c8e"/>
   </g>
   <g id="patch_69">
    <path d="M 137.57933 83.950677 
C 138.909157 84.354076 140.218378 84.822523 141.502262 85.354325 
C 142.786146 85.886127 144.043147 86.480644 145.268723 87.135728 
L 171.58589 37.899771 
C 168.748748 36.383287 165.83886 35.007012 162.866737 33.775919 
C 159.894615 32.544825 156.86384 31.460397 153.785361 30.526551 
z
" clip-path="url(#p4e9c0d5dd5)" style="fill: #ff8c8e"/>
   </g>
   <g id="patch_70">
    <path d="M 146.024228 85.722278 
C 147.296068 86.402091 148.533765 87.143938 149.732848 87.94514 
C 150.931931 88.746342 152.090955 89.605932 153.205732 90.520806 
L 193.855968 40.988351 
C 191.119919 38.742934 188.275276 36.633202 185.332312 34.666777 
C 182.389349 32.700352 179.351613 30.879603 176.230078 29.211108 
z
" clip-path="url(#p4e9c0d5dd5)" style="fill: #ff8c8e"/>
   </g>
   <g id="patch_71">
    <path d="M 139.559167 107.149194 
C 140.129673 107.617396 140.676847 108.113326 141.198714 108.635193 
C 141.72058 109.157059 142.21651 109.704234 142.684712 110.274739 
L 196.541242 66.075827 
C 194.626344 63.742517 192.598041 61.504629 190.463659 59.370247 
C 188.329277 57.235865 186.091389 55.207562 183.758079 53.292664 
z
" clip-path="url(#p4e9c0d5dd5)" style="fill: #ff8c8e"/>
   </g>
   <g id="patch_72">
    <path d="M 180.121818 79.5509 
C 181.595657 81.346778 182.980435 83.213935 184.27115 85.145627 
C 185.561865 87.077319 186.756962 89.071217 187.852123 91.12012 
L 211.309786 78.581737 
C 209.804225 75.765031 208.161279 73.02394 206.386882 70.368368 
C 204.612485 67.712795 202.708776 65.145941 200.682632 62.677077 
z
" clip-path="url(#p4e9c0d5dd5)" style="fill: #ff8c8e"/>
   </g>
   <g id="patch_73">
    <path d="M 179.216431 95.735993 
C 180.160508 97.502236 181.017298 99.313767 181.783707 101.164041 
C 182.550115 103.014315 183.225219 104.901102 183.806578 106.817588 
L 218.402984 96.322883 
C 217.478117 93.274005 216.404116 90.272374 215.18486 87.32883 
C 213.965604 84.385286 212.602564 81.503379 211.100661 78.693517 
z
" clip-path="url(#p4e9c0d5dd5)" style="fill: #ff8c8e"/>
   </g>
   <g id="patch_74">
    <path d="M 187.315727 105.753099 
C 187.931929 107.784445 188.448026 109.84482 188.862154 111.926782 
C 189.276282 114.008744 189.587942 116.109784 189.796008 118.222313 
L 223.765685 114.876591 
C 223.448109 111.652185 222.972414 108.445313 222.34032 105.267561 
C 221.708226 102.089808 220.920493 98.945005 219.979969 95.84451 
z
" clip-path="url(#p4e9c0d5dd5)" style="fill: #ff8c8e"/>
   </g>
   <g id="patch_75">
    <path d="M 170.64089 120.108927 
C 170.787205 121.59448 170.860494 123.086321 170.860494 124.579062 
C 170.860494 126.071804 170.787205 127.563645 170.64089 129.049198 
L 173.57198 129.337885 
C 173.727743 127.756393 173.805766 126.168207 173.805766 124.579062 
C 173.805766 122.989918 173.727743 121.401732 173.57198 119.82024 
z
" clip-path="url(#p4e9c0d5dd5)" style="fill: #ff8c8e"/>
   </g>
   <g id="patch_76">
    <path d="M 182.664156 130.233386 
C 182.479082 132.112479 182.201861 133.981352 181.833494 135.833256 
C 181.465127 137.685159 181.00606 139.517861 180.457949 141.324741 
L 190.312327 144.314034 
C 190.958282 142.184606 191.499298 140.024746 191.933423 137.842256 
C 192.367547 135.659767 192.694255 133.457279 192.912367 131.242747 
z
" clip-path="url(#p4e9c0d5dd5)" style="fill: #ff8c8e"/>
   </g>
   <g id="patch_77">
    <path d="M 160.28937 135.20667 
C 159.941513 136.353402 159.537564 137.482365 159.078982 138.589479 
C 158.6204 139.696594 158.107738 140.780526 157.542848 141.837361 
L 157.542848 141.837361 
C 158.107738 140.780526 158.6204 139.696594 159.078982 138.589479 
C 159.537564 137.482365 159.941513 136.353402 160.28937 135.20667 
z
" clip-path="url(#p4e9c0d5dd5)" style="fill: #ff8c8e"/>
   </g>
   <g id="patch_78">
    <path d="M 161.229236 143.807776 
C 160.599851 144.985271 159.913034 146.131156 159.171266 147.241291 
C 158.429497 148.351426 157.633671 149.424473 156.786662 150.456557 
L 156.786662 150.456557 
C 157.633671 149.424473 158.429497 148.351426 159.171266 147.241291 
C 159.913034 146.131156 160.599851 144.985271 161.229236 143.807776 
z
" clip-path="url(#p4e9c0d5dd5)" style="fill: #ff8c8e"/>
   </g>
   <g id="patch_79">
    <path d="M 153.063293 147.400867 
C 152.316302 148.311079 151.525071 149.184068 150.69246 150.016679 
C 149.859849 150.84929 148.986861 151.64052 148.076649 152.387512 
L 148.076649 152.387512 
C 148.986861 151.64052 149.859849 150.84929 150.69246 150.016679 
C 151.525071 149.184068 152.316302 148.311079 153.063293 147.400867 
z
" clip-path="url(#p4e9c0d5dd5)" style="fill: #ff8c8e"/>
   </g>
   <g id="patch_80">
    <path d="M 136.665746 138.483287 
C 136.21064 138.856783 135.737471 139.20771 135.247947 139.534799 
C 134.758424 139.861888 134.253136 140.164746 133.733909 140.442278 
L 133.733909 140.442278 
C 134.253136 140.164746 134.758424 139.861888 135.247947 139.534799 
C 135.737471 139.20771 136.21064 138.856783 136.665746 138.483287 
z
" clip-path="url(#p4e9c0d5dd5)" style="fill: #ff8c8e"/>
   </g>
   <g id="patch_81">
    <path d="M 132.420962 137.985927 
C 131.982135 138.220484 131.532057 138.433356 131.072353 138.623771 
C 130.612648 138.814187 130.143872 138.981918 129.667718 139.126358 
L 129.667718 139.126358 
C 130.143872 138.981918 130.612648 138.814187 131.072353 138.623771 
C 131.532057 138.433356 131.982135 138.220484 132.420962 137.985927 
z
" clip-path="url(#p4e9c0d5dd5)" style="fill: #ff8c8e"/>
   </g>
   <g id="patch_82">
    <path d="M 131.800193 146.156189 
C 131.093942 146.370428 130.377597 146.549863 129.653748 146.693845 
C 128.929898 146.837828 128.199415 146.946185 127.464938 147.018524 
L 127.464938 147.018524 
C 128.199415 146.946185 128.929898 146.837828 129.653748 146.693845 
C 130.377597 146.549863 131.093942 146.370428 131.800193 146.156189 
z
" clip-path="url(#p4e9c0d5dd5)" style="fill: #ff8c8e"/>
   </g>
   <g id="patch_83">
    <path d="M 128.234934 154.836427 
C 127.244565 154.93397 126.250004 154.982829 125.254844 154.982829 
C 124.259683 154.982829 123.265122 154.93397 122.274753 154.836427 
L 122.274753 154.836427 
C 123.265122 154.93397 124.259683 154.982829 125.254844 154.982829 
C 126.250004 154.982829 127.244565 154.93397 128.234934 154.836427 
z
" clip-path="url(#p4e9c0d5dd5)" style="fill: #ff8c8e"/>
   </g>
   <g id="patch_84">
    <path d="M 121.923002 158.407824 
C 120.815736 158.298768 119.714491 158.135414 118.623247 157.918352 
C 117.532002 157.70129 116.452072 157.430781 115.387358 157.107804 
L 115.387358 157.107804 
C 116.452072 157.430781 117.532002 157.70129 118.623247 157.918352 
C 119.714491 158.135414 120.815736 158.298768 121.923002 158.407824 
z
" clip-path="url(#p4e9c0d5dd5)" style="fill: #ff8c8e"/>
   </g>
   <g id="patch_85">
    <path d="M 125.254844 124.579062 
C 125.254844 124.579062 125.254844 124.579062 125.254844 124.579062 
C 125.254844 124.579062 125.254844 124.579062 125.254844 124.579062 
L 125.254844 124.579062 
C 125.254844 124.579062 125.254844 124.579062 125.254844 124.579062 
C 125.254844 124.579062 125.254844 124.579062 125.254844 124.579062 
z
" clip-path="url(#p4e9c0d5dd5)" style="fill: #ff8c8e"/>
   </g>
   <g id="patch_86">
    <path d="M 125.254844 124.579062 
C 125.254844 124.579062 125.254844 124.579062 125.254844 124.579062 
C 125.254844 124.579062 125.254844 124.579062 125.254844 124.579062 
L 125.254844 124.579062 
C 125.254844 124.579062 125.254844 124.579062 125.254844 124.579062 
C 125.254844 124.579062 125.254844 124.579062 125.254844 124.579062 
z
" clip-path="url(#p4e9c0d5dd5)" style="fill: #ff8c8e"/>
   </g>
   <g id="patch_87">
    <path d="M 125.254844 124.579062 
C 125.254844 124.579062 125.254844 124.579062 125.254844 124.579062 
C 125.254844 124.579062 125.254844 124.579062 125.254844 124.579062 
L 125.254844 124.579062 
C 125.254844 124.579062 125.254844 124.579062 125.254844 124.579062 
C 125.254844 124.579062 125.254844 124.579062 125.254844 124.579062 
z
" clip-path="url(#p4e9c0d5dd5)" style="fill: #ff8c8e"/>
   </g>
   <g id="patch_88">
    <path d="M 125.254844 124.579062 
C 125.254844 124.579062 125.254844 124.579062 125.254844 124.579062 
C 125.254844 124.579062 125.254844 124.579062 125.254844 124.579062 
L 125.254844 124.579062 
C 125.254844 124.579062 125.254844 124.579062 125.254844 124.579062 
C 125.254844 124.579062 125.254844 124.579062 125.254844 124.579062 
z
" clip-path="url(#p4e9c0d5dd5)" style="fill: #ff8c8e"/>
   </g>
   <g id="patch_89">
    <path d="M 114.869931 130.129914 
C 114.688244 129.79 114.523354 129.441371 114.375859 129.085286 
C 114.228364 128.7292 114.09844 128.366088 113.986557 127.99726 
L 113.986557 127.99726 
C 114.09844 128.366088 114.228364 128.7292 114.375859 129.085286 
C 114.523354 129.441371 114.688244 129.79 114.869931 130.129914 
z
" clip-path="url(#p4e9c0d5dd5)" style="fill: #ff8c8e"/>
   </g>
   <g id="patch_90">
    <path d="M 118.749095 126.55256 
C 118.6845 126.339617 118.630398 126.123631 118.586986 125.905382 
C 118.543573 125.687133 118.510903 125.466884 118.489091 125.245431 
L 118.489091 125.245431 
C 118.510903 125.466884 118.543573 125.687133 118.586986 125.905382 
C 118.630398 126.123631 118.6845 126.339617 118.749095 126.55256 
z
" clip-path="url(#p4e9c0d5dd5)" style="fill: #ff8c8e"/>
   </g>
   <g id="patch_91">
    <path d="M 125.254844 124.579062 
C 125.254844 124.579062 125.254844 124.579062 125.254844 124.579062 
C 125.254844 124.579062 125.254844 124.579062 125.254844 124.579062 
L 125.254844 124.579062 
C 125.254844 124.579062 125.254844 124.579062 125.254844 124.579062 
C 125.254844 124.579062 125.254844 124.579062 125.254844 124.579062 
z
" clip-path="url(#p4e9c0d5dd5)" style="fill: #ff8c8e"/>
   </g>
   <g id="patch_92">
    <path d="M 104.957587 122.579957 
C 105.02302 121.915598 105.121033 121.254851 105.25127 120.600104 
C 105.381507 119.945357 105.543812 119.2974 105.737599 118.658571 
L 105.737599 118.658571 
C 105.543812 119.2974 105.381507 119.945357 105.25127 120.600104 
C 105.121033 121.254851 105.02302 121.915598 104.957587 122.579957 
z
" clip-path="url(#p4e9c0d5dd5)" style="fill: #ff8c8e"/>
   </g>
   <g id="patch_93">
    <path d="M 88.452774 113.415277 
C 88.818181 112.21069 89.24251 111.02477 89.724228 109.8618 
C 90.205946 108.69883 90.744473 107.560211 91.337862 106.450058 
L 91.337862 106.450058 
C 90.744473 107.560211 90.205946 108.69883 89.724228 109.8618 
C 89.24251 111.02477 88.818181 112.21069 88.452774 113.415277 
z
" clip-path="url(#p4e9c0d5dd5)" style="fill: #ff8c8e"/>
   </g>
   <g id="patch_94">
    <path d="M 92.414867 107.025729 
C 92.989414 105.950828 93.616389 104.904783 94.293528 103.891373 
C 94.970667 102.877963 95.697154 101.898409 96.470364 100.95625 
L 96.470364 100.95625 
C 95.697154 101.898409 94.970667 102.877963 94.293528 103.891373 
C 93.616389 104.904783 92.989414 105.950828 92.414867 107.025729 
z
" clip-path="url(#p4e9c0d5dd5)" style="fill: #ff8c8e"/>
   </g>
   <g id="patch_95">
    <path d="M 92.435487 97.644912 
C 93.317082 96.570686 94.250887 95.540391 95.233529 94.557748 
C 96.216172 93.575106 97.246467 92.641301 98.320694 91.759706 
L 98.320694 91.759706 
C 97.246467 92.641301 96.216172 93.575106 95.233529 94.557748 
C 94.250887 95.540391 93.317082 96.570686 92.435487 97.644912 
z
" clip-path="url(#p4e9c0d5dd5)" style="fill: #ff8c8e"/>
   </g>
   <g id="patch_96">
    <path d="M 97.97757 91.341608 
C 99.065481 90.448782 100.196572 89.609908 101.366757 88.828015 
C 102.536943 88.046122 103.744811 87.322154 104.986001 86.658724 
L 104.986001 86.658724 
C 103.744811 87.322154 102.536943 88.046122 101.366757 88.828015 
C 100.196572 89.609908 99.065481 90.448782 97.97757 91.341608 
z
" clip-path="url(#p4e9c0d5dd5)" style="fill: #ff8c8e"/>
   </g>
   <g id="patch_97">
    <path d="M 106.844753 90.136205 
C 107.972119 89.533615 109.128391 88.986739 110.309393 88.497552 
C 111.490394 88.008365 112.694702 87.577457 113.917966 87.206384 
L 108.509165 69.375958 
C 106.702285 69.924069 104.923405 70.560562 103.17895 71.283139 
C 101.434494 72.005716 99.726567 72.813506 98.061337 73.70359 
z
" clip-path="url(#p4e9c0d5dd5)" style="fill: #ff8c8e"/>
   </g>
   <g id="patch_98">
    <path d="M 109.344001 72.128043 
C 111.060801 71.607257 112.802136 71.171076 114.561715 70.821074 
C 116.321294 70.471072 118.096997 70.207671 119.88241 70.031823 
L 119.445578 65.596601 
C 117.514994 65.786747 115.59491 66.071565 113.692259 66.450025 
C 111.789609 66.828486 109.906687 67.300133 108.050294 67.863264 
z
" clip-path="url(#p4e9c0d5dd5)" style="fill: #ff8c8e"/>
   </g>
   <g id="patch_99">
    <path d="M 115.901917 29.617203 
C 119.01016 29.311068 122.131561 29.157723 125.254844 29.157723 
C 128.378127 29.157723 131.499527 29.311068 134.607771 29.617203 
L 135.791054 17.603125 
C 132.289572 17.258259 128.773268 17.085514 125.254844 17.085514 
C 121.736419 17.085514 118.220116 17.258259 114.718634 17.603125 
z
" clip-path="url(#p4e9c0d5dd5)" style="fill: #828282"/>
   </g>
   <g id="patch_100">
    <path d="M 135.205847 23.544834 
C 138.512848 23.870545 141.801864 24.358425 145.061016 25.00671 
C 148.320168 25.654996 151.545526 26.462906 154.725441 27.427523 
L 155.82813 23.792443 
C 152.529234 22.791734 149.183194 21.953595 145.802095 21.281052 
C 142.420997 20.60851 139.008917 20.102376 135.578179 19.764478 
z
" clip-path="url(#p4e9c0d5dd5)" style="fill: #828282"/>
   </g>
   <g id="patch_101">
    <path d="M 153.785361 30.526551 
C 156.86384 31.460397 159.894615 32.544825 162.866737 33.775919 
C 165.83886 35.007012 168.748748 36.383287 171.58589 37.899771 
L 171.58589 37.899771 
C 168.748748 36.383287 165.83886 35.007012 162.866737 33.775919 
C 159.894615 32.544825 156.86384 31.460397 153.785361 30.526551 
z
" clip-path="url(#p4e9c0d5dd5)" style="fill: #828282"/>
   </g>
   <g id="patch_102">
    <path d="M 176.230078 29.211108 
C 179.351613 30.879603 182.389349 32.700352 185.332312 34.666777 
C 188.275276 36.633202 191.119919 38.742934 193.855968 40.988351 
L 195.596371 38.867664 
C 192.790908 36.565281 189.874097 34.402026 186.856471 32.385713 
C 183.838845 30.369399 180.724042 28.502459 177.523313 26.791634 
z
" clip-path="url(#p4e9c0d5dd5)" style="fill: #828282"/>
   </g>
   <g id="patch_103">
    <path d="M 183.758079 53.292664 
C 186.091389 55.207562 188.329277 57.235865 190.463659 59.370247 
C 192.598041 61.504629 194.626344 63.742517 196.541242 66.075827 
L 197.884576 64.973381 
C 195.933593 62.596102 193.867069 60.316043 191.692466 58.14144 
C 189.517863 55.966838 187.237805 53.900313 184.860525 51.94933 
z
" clip-path="url(#p4e9c0d5dd5)" style="fill: #828282"/>
   </g>
   <g id="patch_104">
    <path d="M 200.682632 62.677077 
C 202.708776 65.145941 204.612485 67.712795 206.386882 70.368368 
C 208.161279 73.02394 209.804225 75.765031 211.309786 78.581737 
L 211.309786 78.581737 
C 209.804225 75.765031 208.161279 73.02394 206.386882 70.368368 
C 204.612485 67.712795 202.708776 65.145941 200.682632 62.677077 
z
" clip-path="url(#p4e9c0d5dd5)" style="fill: #828282"/>
   </g>
   <g id="patch_105">
    <path d="M 211.100661 78.693517 
C 212.602564 81.503379 213.965604 84.385286 215.18486 87.32883 
C 216.404116 90.272374 217.478117 93.274005 218.402984 96.322883 
L 218.402984 96.322883 
C 217.478117 93.274005 216.404116 90.272374 215.18486 87.32883 
C 213.965604 84.385286 212.602564 81.503379 211.100661 78.693517 
z
" clip-path="url(#p4e9c0d5dd5)" style="fill: #828282"/>
   </g>
   <g id="patch_106">
    <path d="M 219.979969 95.84451 
C 220.920493 98.945005 221.708226 102.089808 222.34032 105.267561 
C 222.972414 108.445313 223.448109 111.652185 223.765685 114.876591 
L 223.765685 114.876591 
C 223.448109 111.652185 222.972414 108.445313 222.34032 105.267561 
C 221.708226 102.089808 220.920493 98.945005 219.979969 95.84451 
z
" clip-path="url(#p4e9c0d5dd5)" style="fill: #828282"/>
   </g>
   <g id="patch_107">
    <path d="M 173.57198 119.82024 
C 173.727743 121.401732 173.805766 122.989918 173.805766 124.579062 
C 173.805766 126.168207 173.727743 127.756393 173.57198 129.337885 
L 173.57198 129.337885 
C 173.727743 127.756393 173.805766 126.168207 173.805766 124.579062 
C 173.805766 122.989918 173.727743 121.401732 173.57198 119.82024 
z
" clip-path="url(#p4e9c0d5dd5)" style="fill: #828282"/>
   </g>
   <g id="patch_108">
    <path d="M 192.912367 131.242747 
C 192.694255 133.457279 192.367547 135.659767 191.933423 137.842256 
C 191.499298 140.024746 190.958282 142.184606 190.312327 144.314034 
L 190.312327 144.314034 
C 190.958282 142.184606 191.499298 140.024746 191.933423 137.842256 
C 192.367547 135.659767 192.694255 133.457279 192.912367 131.242747 
z
" clip-path="url(#p4e9c0d5dd5)" style="fill: #828282"/>
   </g>
   <g id="patch_109">
    <path d="M 160.28937 135.20667 
C 159.941513 136.353402 159.537564 137.482365 159.078982 138.589479 
C 158.6204 139.696594 158.107738 140.780526 157.542848 141.837361 
L 157.542848 141.837361 
C 158.107738 140.780526 158.6204 139.696594 159.078982 138.589479 
C 159.537564 137.482365 159.941513 136.353402 160.28937 135.20667 
z
" clip-path="url(#p4e9c0d5dd5)" style="fill: #828282"/>
   </g>
   <g id="patch_110">
    <path d="M 161.229236 143.807776 
C 160.599851 144.985271 159.913034 146.131156 159.171266 147.241291 
C 158.429497 148.351426 157.633671 149.424473 156.786662 150.456557 
L 156.786662 150.456557 
C 157.633671 149.424473 158.429497 148.351426 159.171266 147.241291 
C 159.913034 146.131156 160.599851 144.985271 161.229236 143.807776 
z
" clip-path="url(#p4e9c0d5dd5)" style="fill: #828282"/>
   </g>
   <g id="patch_111">
    <path d="M 153.063293 147.400867 
C 152.316302 148.311079 151.525071 149.184068 150.69246 150.016679 
C 149.859849 150.84929 148.986861 151.64052 148.076649 152.387512 
L 148.076649 152.387512 
C 148.986861 151.64052 149.859849 150.84929 150.69246 150.016679 
C 151.525071 149.184068 152.316302 148.311079 153.063293 147.400867 
z
" clip-path="url(#p4e9c0d5dd5)" style="fill: #828282"/>
   </g>
   <g id="patch_112">
    <path d="M 136.665746 138.483287 
C 136.21064 138.856783 135.737471 139.20771 135.247947 139.534799 
C 134.758424 139.861888 134.253136 140.164746 133.733909 140.442278 
L 133.733909 140.442278 
C 134.253136 140.164746 134.758424 139.861888 135.247947 139.534799 
C 135.737471 139.20771 136.21064 138.856783 136.665746 138.483287 
z
" clip-path="url(#p4e9c0d5dd5)" style="fill: #828282"/>
   </g>
   <g id="patch_113">
    <path d="M 132.420962 137.985927 
C 131.982135 138.220484 131.532057 138.433356 131.072353 138.623771 
C 130.612648 138.814187 130.143872 138.981918 129.667718 139.126358 
L 129.667718 139.126358 
C 130.143872 138.981918 130.612648 138.814187 131.072353 138.623771 
C 131.532057 138.433356 131.982135 138.220484 132.420962 137.985927 
z
" clip-path="url(#p4e9c0d5dd5)" style="fill: #828282"/>
   </g>
   <g id="patch_114">
    <path d="M 131.800193 146.156189 
C 131.093942 146.370428 130.377597 146.549863 129.653748 146.693845 
C 128.929898 146.837828 128.199415 146.946185 127.464938 147.018524 
L 127.464938 147.018524 
C 128.199415 146.946185 128.929898 146.837828 129.653748 146.693845 
C 130.377597 146.549863 131.093942 146.370428 131.800193 146.156189 
z
" clip-path="url(#p4e9c0d5dd5)" style="fill: #828282"/>
   </g>
   <g id="patch_115">
    <path d="M 128.234934 154.836427 
C 127.244565 154.93397 126.250004 154.982829 125.254844 154.982829 
C 124.259683 154.982829 123.265122 154.93397 122.274753 154.836427 
L 122.274753 154.836427 
C 123.265122 154.93397 124.259683 154.982829 125.254844 154.982829 
C 126.250004 154.982829 127.244565 154.93397 128.234934 154.836427 
z
" clip-path="url(#p4e9c0d5dd5)" style="fill: #828282"/>
   </g>
   <g id="patch_116">
    <path d="M 121.923002 158.407824 
C 120.815736 158.298768 119.714491 158.135414 118.623247 157.918352 
C 117.532002 157.70129 116.452072 157.430781 115.387358 157.107804 
L 115.387358 157.107804 
C 116.452072 157.430781 117.532002 157.70129 118.623247 157.918352 
C 119.714491 158.135414 120.815736 158.298768 121.923002 158.407824 
z
" clip-path="url(#p4e9c0d5dd5)" style="fill: #828282"/>
   </g>
   <g id="patch_117">
    <path d="M 125.254844 124.579062 
C 125.254844 124.579062 125.254844 124.579062 125.254844 124.579062 
C 125.254844 124.579062 125.254844 124.579062 125.254844 124.579062 
L 125.254844 124.579062 
C 125.254844 124.579062 125.254844 124.579062 125.254844 124.579062 
C 125.254844 124.579062 125.254844 124.579062 125.254844 124.579062 
z
" clip-path="url(#p4e9c0d5dd5)" style="fill: #828282"/>
   </g>
   <g id="patch_118">
    <path d="M 125.254844 124.579062 
C 125.254844 124.579062 125.254844 124.579062 125.254844 124.579062 
C 125.254844 124.579062 125.254844 124.579062 125.254844 124.579062 
L 125.254844 124.579062 
C 125.254844 124.579062 125.254844 124.579062 125.254844 124.579062 
C 125.254844 124.579062 125.254844 124.579062 125.254844 124.579062 
z
" clip-path="url(#p4e9c0d5dd5)" style="fill: #828282"/>
   </g>
   <g id="patch_119">
    <path d="M 125.254844 124.579062 
C 125.254844 124.579062 125.254844 124.579062 125.254844 124.579062 
C 125.254844 124.579062 125.254844 124.579062 125.254844 124.579062 
L 125.254844 124.579062 
C 125.254844 124.579062 125.254844 124.579062 125.254844 124.579062 
C 125.254844 124.579062 125.254844 124.579062 125.254844 124.579062 
z
" clip-path="url(#p4e9c0d5dd5)" style="fill: #828282"/>
   </g>
   <g id="patch_120">
    <path d="M 125.254844 124.579062 
C 125.254844 124.579062 125.254844 124.579062 125.254844 124.579062 
C 125.254844 124.579062 125.254844 124.579062 125.254844 124.579062 
L 125.254844 124.579062 
C 125.254844 124.579062 125.254844 124.579062 125.254844 124.579062 
C 125.254844 124.579062 125.254844 124.579062 125.254844 124.579062 
z
" clip-path="url(#p4e9c0d5dd5)" style="fill: #828282"/>
   </g>
   <g id="patch_121">
    <path d="M 114.869931 130.129914 
C 114.688244 129.79 114.523354 129.441371 114.375859 129.085286 
C 114.228364 128.7292 114.09844 128.366088 113.986557 127.99726 
L 113.986557 127.99726 
C 114.09844 128.366088 114.228364 128.7292 114.375859 129.085286 
C 114.523354 129.441371 114.688244 129.79 114.869931 130.129914 
z
" clip-path="url(#p4e9c0d5dd5)" style="fill: #828282"/>
   </g>
   <g id="patch_122">
    <path d="M 118.749095 126.55256 
C 118.6845 126.339617 118.630398 126.123631 118.586986 125.905382 
C 118.543573 125.687133 118.510903 125.466884 118.489091 125.245431 
L 118.489091 125.245431 
C 118.510903 125.466884 118.543573 125.687133 118.586986 125.905382 
C 118.630398 126.123631 118.6845 126.339617 118.749095 126.55256 
z
" clip-path="url(#p4e9c0d5dd5)" style="fill: #828282"/>
   </g>
   <g id="patch_123">
    <path d="M 125.254844 124.579062 
C 125.254844 124.579062 125.254844 124.579062 125.254844 124.579062 
C 125.254844 124.579062 125.254844 124.579062 125.254844 124.579062 
L 125.254844 124.579062 
C 125.254844 124.579062 125.254844 124.579062 125.254844 124.579062 
C 125.254844 124.579062 125.254844 124.579062 125.254844 124.579062 
z
" clip-path="url(#p4e9c0d5dd5)" style="fill: #828282"/>
   </g>
   <g id="patch_124">
    <path d="M 104.957587 122.579957 
C 105.02302 121.915598 105.121033 121.254851 105.25127 120.600104 
C 105.381507 119.945357 105.543812 119.2974 105.737599 118.658571 
L 105.737599 118.658571 
C 105.543812 119.2974 105.381507 119.945357 105.25127 120.600104 
C 105.121033 121.254851 105.02302 121.915598 104.957587 122.579957 
z
" clip-path="url(#p4e9c0d5dd5)" style="fill: #828282"/>
   </g>
   <g id="patch_125">
    <path d="M 88.452774 113.415277 
C 88.818181 112.21069 89.24251 111.02477 89.724228 109.8618 
C 90.205946 108.69883 90.744473 107.560211 91.337862 106.450058 
L 91.337862 106.450058 
C 90.744473 107.560211 90.205946 108.69883 89.724228 109.8618 
C 89.24251 111.02477 88.818181 112.21069 88.452774 113.415277 
z
" clip-path="url(#p4e9c0d5dd5)" style="fill: #828282"/>
   </g>
   <g id="patch_126">
    <path d="M 92.414867 107.025729 
C 92.989414 105.950828 93.616389 104.904783 94.293528 103.891373 
C 94.970667 102.877963 95.697154 101.898409 96.470364 100.95625 
L 96.470364 100.95625 
C 95.697154 101.898409 94.970667 102.877963 94.293528 103.891373 
C 93.616389 104.904783 92.989414 105.950828 92.414867 107.025729 
z
" clip-path="url(#p4e9c0d5dd5)" style="fill: #828282"/>
   </g>
   <g id="patch_127">
    <path d="M 92.435487 97.644912 
C 93.317082 96.570686 94.250887 95.540391 95.233529 94.557748 
C 96.216172 93.575106 97.246467 92.641301 98.320694 91.759706 
L 98.320694 91.759706 
C 97.246467 92.641301 96.216172 93.575106 95.233529 94.557748 
C 94.250887 95.540391 93.317082 96.570686 92.435487 97.644912 
z
" clip-path="url(#p4e9c0d5dd5)" style="fill: #828282"/>
   </g>
   <g id="patch_128">
    <path d="M 97.97757 91.341608 
C 99.065481 90.448782 100.196572 89.609908 101.366757 88.828015 
C 102.536943 88.046122 103.744811 87.322154 104.986001 86.658724 
L 104.986001 86.658724 
C 103.744811 87.322154 102.536943 88.046122 101.366757 88.828015 
C 100.196572 89.609908 99.065481 90.448782 97.97757 91.341608 
z
" clip-path="url(#p4e9c0d5dd5)" style="fill: #828282"/>
   </g>
   <g id="patch_129">
    <path d="M 98.061337 73.70359 
C 99.726567 72.813506 101.434494 72.005716 103.17895 71.283139 
C 104.923405 70.560562 106.702285 69.924069 108.509165 69.375958 
L 108.509165 69.375958 
C 106.702285 69.924069 104.923405 70.560562 103.17895 71.283139 
C 101.434494 72.005716 99.726567 72.813506 98.061337 73.70359 
z
" clip-path="url(#p4e9c0d5dd5)" style="fill: #828282"/>
   </g>
   <g id="patch_130">
    <path d="M 108.050294 67.863264 
C 109.906687 67.300133 111.789609 66.828486 113.692259 66.450025 
C 115.59491 66.071565 117.514994 65.786747 119.445578 65.596601 
L 119.445578 65.596601 
C 117.514994 65.786747 115.59491 66.071565 113.692259 66.450025 
C 111.789609 66.828486 109.906687 67.300133 108.050294 67.863264 
z
" clip-path="url(#p4e9c0d5dd5)" style="fill: #828282"/>
   </g>
   <g id="patch_131">
    <path d="M 125.254844 124.579062 
C 125.254844 124.579062 125.254844 124.579062 125.254844 124.579062 
C 125.254844 124.579062 125.254844 124.579062 125.254844 124.579062 
L 135.791054 17.603125 
C 132.289572 17.258259 128.773268 17.085514 125.254844 17.085514 
C 121.736419 17.085514 118.220116 17.258259 114.718634 17.603125 
L 125.254844 124.579062 
z
" clip-path="url(#p4e9c0d5dd5)" style="fill: none; stroke: #292929; stroke-width: 0.5; stroke-linejoin: miter"/>
   </g>
   <g id="patch_132">
    <path d="M 125.254844 124.579062 
C 125.254844 124.579062 125.254844 124.579062 125.254844 124.579062 
C 125.254844 124.579062 125.254844 124.579062 125.254844 124.579062 
L 155.82813 23.792443 
C 152.529234 22.791734 149.183194 21.953595 145.802095 21.281052 
C 142.420997 20.60851 139.008917 20.102376 135.578179 19.764478 
L 125.254844 124.579062 
z
" clip-path="url(#p4e9c0d5dd5)" style="fill: none; stroke: #292929; stroke-width: 0.5; stroke-linejoin: miter"/>
   </g>
   <g id="patch_133">
    <path d="M 125.254844 124.579062 
C 125.254844 124.579062 125.254844 124.579062 125.254844 124.579062 
C 125.254844 124.579062 125.254844 124.579062 125.254844 124.579062 
L 171.58589 37.899771 
C 168.748748 36.383287 165.83886 35.007012 162.866737 33.775919 
C 159.894615 32.544825 156.86384 31.460397 153.785361 30.526551 
L 125.254844 124.579062 
z
" clip-path="url(#p4e9c0d5dd5)" style="fill: none; stroke: #292929; stroke-width: 0.5; stroke-linejoin: miter"/>
   </g>
   <g id="patch_134">
    <path d="M 125.254844 124.579062 
C 125.254844 124.579062 125.254844 124.579062 125.254844 124.579062 
C 125.254844 124.579062 125.254844 124.579062 125.254844 124.579062 
L 195.596371 38.867664 
C 192.790908 36.565281 189.874097 34.402026 186.856471 32.385713 
C 183.838845 30.369399 180.724042 28.502459 177.523313 26.791634 
L 125.254844 124.579062 
z
" clip-path="url(#p4e9c0d5dd5)" style="fill: none; stroke: #292929; stroke-width: 0.5; stroke-linejoin: miter"/>
   </g>
   <g id="patch_135">
    <path d="M 125.254844 124.579062 
C 125.254844 124.579062 125.254844 124.579062 125.254844 124.579062 
C 125.254844 124.579062 125.254844 124.579062 125.254844 124.579062 
L 197.884576 64.973381 
C 195.933593 62.596102 193.867069 60.316043 191.692466 58.14144 
C 189.517863 55.966838 187.237805 53.900313 184.860525 51.94933 
L 125.254844 124.579062 
z
" clip-path="url(#p4e9c0d5dd5)" style="fill: none; stroke: #292929; stroke-width: 0.5; stroke-linejoin: miter"/>
   </g>
   <g id="patch_136">
    <path d="M 125.254844 124.579062 
C 125.254844 124.579062 125.254844 124.579062 125.254844 124.579062 
C 125.254844 124.579062 125.254844 124.579062 125.254844 124.579062 
L 211.309786 78.581737 
C 209.804225 75.765031 208.161279 73.02394 206.386882 70.368368 
C 204.612485 67.712795 202.708776 65.145941 200.682632 62.677077 
L 125.254844 124.579062 
z
" clip-path="url(#p4e9c0d5dd5)" style="fill: none; stroke: #292929; stroke-width: 0.5; stroke-linejoin: miter"/>
   </g>
   <g id="patch_137">
    <path d="M 125.254844 124.579062 
C 125.254844 124.579062 125.254844 124.579062 125.254844 124.579062 
C 125.254844 124.579062 125.254844 124.579062 125.254844 124.579062 
L 218.402984 96.322883 
C 217.478117 93.274005 216.404116 90.272374 215.18486 87.32883 
C 213.965604 84.385286 212.602564 81.503379 211.100661 78.693517 
L 125.254844 124.579062 
z
" clip-path="url(#p4e9c0d5dd5)" style="fill: none; stroke: #292929; stroke-width: 0.5; stroke-linejoin: miter"/>
   </g>
   <g id="patch_138">
    <path d="M 125.254844 124.579062 
C 125.254844 124.579062 125.254844 124.579062 125.254844 124.579062 
C 125.254844 124.579062 125.254844 124.579062 125.254844 124.579062 
L 223.765685 114.876591 
C 223.448109 111.652185 222.972414 108.445313 222.34032 105.267561 
C 221.708226 102.089808 220.920493 98.945005 219.979969 95.84451 
L 125.254844 124.579062 
z
" clip-path="url(#p4e9c0d5dd5)" style="fill: none; stroke: #292929; stroke-width: 0.5; stroke-linejoin: miter"/>
   </g>
   <g id="patch_139">
    <path d="M 125.254844 124.579062 
C 125.254844 124.579062 125.254844 124.579062 125.254844 124.579062 
C 125.254844 124.579062 125.254844 124.579062 125.254844 124.579062 
L 173.57198 129.337885 
C 173.727743 127.756393 173.805766 126.168207 173.805766 124.579062 
C 173.805766 122.989918 173.727743 121.401732 173.57198 119.82024 
L 125.254844 124.579062 
z
" clip-path="url(#p4e9c0d5dd5)" style="fill: none; stroke: #292929; stroke-width: 0.5; stroke-linejoin: miter"/>
   </g>
   <g id="patch_140">
    <path d="M 125.254844 124.579062 
C 125.254844 124.579062 125.254844 124.579062 125.254844 124.579062 
C 125.254844 124.579062 125.254844 124.579062 125.254844 124.579062 
L 190.312327 144.314034 
C 190.958282 142.184606 191.499298 140.024746 191.933423 137.842256 
C 192.367547 135.659767 192.694255 133.457279 192.912367 131.242747 
L 125.254844 124.579062 
z
" clip-path="url(#p4e9c0d5dd5)" style="fill: none; stroke: #292929; stroke-width: 0.5; stroke-linejoin: miter"/>
   </g>
   <g id="patch_141">
    <path d="M 125.254844 124.579062 
C 125.254844 124.579062 125.254844 124.579062 125.254844 124.579062 
C 125.254844 124.579062 125.254844 124.579062 125.254844 124.579062 
L 157.542848 141.837361 
C 158.107738 140.780526 158.6204 139.696594 159.078982 138.589479 
C 159.537564 137.482365 159.941513 136.353402 160.28937 135.20667 
L 125.254844 124.579062 
z
" clip-path="url(#p4e9c0d5dd5)" style="fill: none; stroke: #292929; stroke-width: 0.5; stroke-linejoin: miter"/>
   </g>
   <g id="patch_142">
    <path d="M 125.254844 124.579062 
C 125.254844 124.579062 125.254844 124.579062 125.254844 124.579062 
C 125.254844 124.579062 125.254844 124.579062 125.254844 124.579062 
L 156.786662 150.456557 
C 157.633671 149.424473 158.429497 148.351426 159.171266 147.241291 
C 159.913034 146.131156 160.599851 144.985271 161.229236 143.807776 
L 125.254844 124.579062 
z
" clip-path="url(#p4e9c0d5dd5)" style="fill: none; stroke: #292929; stroke-width: 0.5; stroke-linejoin: miter"/>
   </g>
   <g id="patch_143">
    <path d="M 125.254844 124.579062 
C 125.254844 124.579062 125.254844 124.579062 125.254844 124.579062 
C 125.254844 124.579062 125.254844 124.579062 125.254844 124.579062 
L 148.076649 152.387512 
C 148.986861 151.64052 149.859849 150.84929 150.69246 150.016679 
C 151.525071 149.184068 152.316302 148.311079 153.063293 147.400867 
L 125.254844 124.579062 
z
" clip-path="url(#p4e9c0d5dd5)" style="fill: none; stroke: #292929; stroke-width: 0.5; stroke-linejoin: miter"/>
   </g>
   <g id="patch_144">
    <path d="M 125.254844 124.579062 
C 125.254844 124.579062 125.254844 124.579062 125.254844 124.579062 
C 125.254844 124.579062 125.254844 124.579062 125.254844 124.579062 
L 133.733909 140.442278 
C 134.253136 140.164746 134.758424 139.861888 135.247947 139.534799 
C 135.737471 139.20771 136.21064 138.856783 136.665746 138.483287 
L 125.254844 124.579062 
z
" clip-path="url(#p4e9c0d5dd5)" style="fill: none; stroke: #292929; stroke-width: 0.5; stroke-linejoin: miter"/>
   </g>
   <g id="patch_145">
    <path d="M 125.254844 124.579062 
C 125.254844 124.579062 125.254844 124.579062 125.254844 124.579062 
C 125.254844 124.579062 125.254844 124.579062 125.254844 124.579062 
L 129.667718 139.126358 
C 130.143872 138.981918 130.612648 138.814187 131.072353 138.623771 
C 131.532057 138.433356 131.982135 138.220484 132.420962 137.985927 
L 125.254844 124.579062 
z
" clip-path="url(#p4e9c0d5dd5)" style="fill: none; stroke: #292929; stroke-width: 0.5; stroke-linejoin: miter"/>
   </g>
   <g id="patch_146">
    <path d="M 125.254844 124.579062 
C 125.254844 124.579062 125.254844 124.579062 125.254844 124.579062 
C 125.254844 124.579062 125.254844 124.579062 125.254844 124.579062 
L 127.464938 147.018524 
C 128.199415 146.946185 128.929898 146.837828 129.653748 146.693845 
C 130.377597 146.549863 131.093942 146.370428 131.800193 146.156189 
L 125.254844 124.579062 
z
" clip-path="url(#p4e9c0d5dd5)" style="fill: none; stroke: #292929; stroke-width: 0.5; stroke-linejoin: miter"/>
   </g>
   <g id="patch_147">
    <path d="M 125.254844 124.579062 
C 125.254844 124.579062 125.254844 124.579062 125.254844 124.579062 
C 125.254844 124.579062 125.254844 124.579062 125.254844 124.579062 
L 122.274753 154.836427 
C 123.265122 154.93397 124.259683 154.982829 125.254844 154.982829 
C 126.250004 154.982829 127.244565 154.93397 128.234934 154.836427 
L 125.254844 124.579062 
z
" clip-path="url(#p4e9c0d5dd5)" style="fill: none; stroke: #292929; stroke-width: 0.5; stroke-linejoin: miter"/>
   </g>
   <g id="patch_148">
    <path d="M 125.254844 124.579062 
C 125.254844 124.579062 125.254844 124.579062 125.254844 124.579062 
C 125.254844 124.579062 125.254844 124.579062 125.254844 124.579062 
L 115.387358 157.107804 
C 116.452072 157.430781 117.532002 157.70129 118.623247 157.918352 
C 119.714491 158.135414 120.815736 158.298768 121.923002 158.407824 
L 125.254844 124.579062 
z
" clip-path="url(#p4e9c0d5dd5)" style="fill: none; stroke: #292929; stroke-width: 0.5; stroke-linejoin: miter"/>
   </g>
   <g id="patch_149">
    <path d="M 125.254844 124.579062 
C 125.254844 124.579062 125.254844 124.579062 125.254844 124.579062 
C 125.254844 124.579062 125.254844 124.579062 125.254844 124.579062 
L 125.254844 124.579062 
C 125.254844 124.579062 125.254844 124.579062 125.254844 124.579062 
C 125.254844 124.579062 125.254844 124.579062 125.254844 124.579062 
L 125.254844 124.579062 
z
" clip-path="url(#p4e9c0d5dd5)" style="fill: none; stroke: #292929; stroke-width: 0.5; stroke-linejoin: miter"/>
   </g>
   <g id="patch_150">
    <path d="M 125.254844 124.579062 
C 125.254844 124.579062 125.254844 124.579062 125.254844 124.579062 
C 125.254844 124.579062 125.254844 124.579062 125.254844 124.579062 
L 125.254844 124.579062 
C 125.254844 124.579062 125.254844 124.579062 125.254844 124.579062 
C 125.254844 124.579062 125.254844 124.579062 125.254844 124.579062 
L 125.254844 124.579062 
z
" clip-path="url(#p4e9c0d5dd5)" style="fill: none; stroke: #292929; stroke-width: 0.5; stroke-linejoin: miter"/>
   </g>
   <g id="patch_151">
    <path d="M 125.254844 124.579062 
C 125.254844 124.579062 125.254844 124.579062 125.254844 124.579062 
C 125.254844 124.579062 125.254844 124.579062 125.254844 124.579062 
L 125.254844 124.579062 
C 125.254844 124.579062 125.254844 124.579062 125.254844 124.579062 
C 125.254844 124.579062 125.254844 124.579062 125.254844 124.579062 
L 125.254844 124.579062 
z
" clip-path="url(#p4e9c0d5dd5)" style="fill: none; stroke: #292929; stroke-width: 0.5; stroke-linejoin: miter"/>
   </g>
   <g id="patch_152">
    <path d="M 125.254844 124.579062 
C 125.254844 124.579062 125.254844 124.579062 125.254844 124.579062 
C 125.254844 124.579062 125.254844 124.579062 125.254844 124.579062 
L 125.254844 124.579062 
C 125.254844 124.579062 125.254844 124.579062 125.254844 124.579062 
C 125.254844 124.579062 125.254844 124.579062 125.254844 124.579062 
L 125.254844 124.579062 
z
" clip-path="url(#p4e9c0d5dd5)" style="fill: none; stroke: #292929; stroke-width: 0.5; stroke-linejoin: miter"/>
   </g>
   <g id="patch_153">
    <path d="M 125.254844 124.579062 
C 125.254844 124.579062 125.254844 124.579062 125.254844 124.579062 
C 125.254844 124.579062 125.254844 124.579062 125.254844 124.579062 
L 113.986557 127.99726 
C 114.09844 128.366088 114.228364 128.7292 114.375859 129.085286 
C 114.523354 129.441371 114.688244 129.79 114.869931 130.129914 
L 125.254844 124.579062 
z
" clip-path="url(#p4e9c0d5dd5)" style="fill: none; stroke: #292929; stroke-width: 0.5; stroke-linejoin: miter"/>
   </g>
   <g id="patch_154">
    <path d="M 125.254844 124.579062 
C 125.254844 124.579062 125.254844 124.579062 125.254844 124.579062 
C 125.254844 124.579062 125.254844 124.579062 125.254844 124.579062 
L 118.489091 125.245431 
C 118.510903 125.466884 118.543573 125.687133 118.586986 125.905382 
C 118.630398 126.123631 118.6845 126.339617 118.749095 126.55256 
L 125.254844 124.579062 
z
" clip-path="url(#p4e9c0d5dd5)" style="fill: none; stroke: #292929; stroke-width: 0.5; stroke-linejoin: miter"/>
   </g>
   <g id="patch_155">
    <path d="M 125.254844 124.579062 
C 125.254844 124.579062 125.254844 124.579062 125.254844 124.579062 
C 125.254844 124.579062 125.254844 124.579062 125.254844 124.579062 
L 125.254844 124.579062 
C 125.254844 124.579062 125.254844 124.579062 125.254844 124.579062 
C 125.254844 124.579062 125.254844 124.579062 125.254844 124.579062 
L 125.254844 124.579062 
z
" clip-path="url(#p4e9c0d5dd5)" style="fill: none; stroke: #292929; stroke-width: 0.5; stroke-linejoin: miter"/>
   </g>
   <g id="patch_156">
    <path d="M 125.254844 124.579062 
C 125.254844 124.579062 125.254844 124.579062 125.254844 124.579062 
C 125.254844 124.579062 125.254844 124.579062 125.254844 124.579062 
L 105.737599 118.658571 
C 105.543812 119.2974 105.381507 119.945357 105.25127 120.600104 
C 105.121033 121.254851 105.02302 121.915598 104.957587 122.579957 
L 125.254844 124.579062 
z
" clip-path="url(#p4e9c0d5dd5)" style="fill: none; stroke: #292929; stroke-width: 0.5; stroke-linejoin: miter"/>
   </g>
   <g id="patch_157">
    <path d="M 125.254844 124.579062 
C 125.254844 124.579062 125.254844 124.579062 125.254844 124.579062 
C 125.254844 124.579062 125.254844 124.579062 125.254844 124.579062 
L 91.337862 106.450058 
C 90.744473 107.560211 90.205946 108.69883 89.724228 109.8618 
C 89.24251 111.02477 88.818181 112.21069 88.452774 113.415277 
L 125.254844 124.579062 
z
" clip-path="url(#p4e9c0d5dd5)" style="fill: none; stroke: #292929; stroke-width: 0.5; stroke-linejoin: miter"/>
   </g>
   <g id="patch_158">
    <path d="M 125.254844 124.579062 
C 125.254844 124.579062 125.254844 124.579062 125.254844 124.579062 
C 125.254844 124.579062 125.254844 124.579062 125.254844 124.579062 
L 96.470364 100.95625 
C 95.697154 101.898409 94.970667 102.877963 94.293528 103.891373 
C 93.616389 104.904783 92.989414 105.950828 92.414867 107.025729 
L 125.254844 124.579062 
z
" clip-path="url(#p4e9c0d5dd5)" style="fill: none; stroke: #292929; stroke-width: 0.5; stroke-linejoin: miter"/>
   </g>
   <g id="patch_159">
    <path d="M 125.254844 124.579062 
C 125.254844 124.579062 125.254844 124.579062 125.254844 124.579062 
C 125.254844 124.579062 125.254844 124.579062 125.254844 124.579062 
L 98.320694 91.759706 
C 97.246467 92.641301 96.216172 93.575106 95.233529 94.557748 
C 94.250887 95.540391 93.317082 96.570686 92.435487 97.644912 
L 125.254844 124.579062 
z
" clip-path="url(#p4e9c0d5dd5)" style="fill: none; stroke: #292929; stroke-width: 0.5; stroke-linejoin: miter"/>
   </g>
   <g id="patch_160">
    <path d="M 125.254844 124.579062 
C 125.254844 124.579062 125.254844 124.579062 125.254844 124.579062 
C 125.254844 124.579062 125.254844 124.579062 125.254844 124.579062 
L 104.986001 86.658724 
C 103.744811 87.322154 102.536943 88.046122 101.366757 88.828015 
C 100.196572 89.609908 99.065481 90.448782 97.97757 91.341608 
L 125.254844 124.579062 
z
" clip-path="url(#p4e9c0d5dd5)" style="fill: none; stroke: #292929; stroke-width: 0.5; stroke-linejoin: miter"/>
   </g>
   <g id="patch_161">
    <path d="M 125.254844 124.579062 
C 125.254844 124.579062 125.254844 124.579062 125.254844 124.579062 
C 125.254844 124.579062 125.254844 124.579062 125.254844 124.579062 
L 108.509165 69.375958 
C 106.702285 69.924069 104.923405 70.560562 103.17895 71.283139 
C 101.434494 72.005716 99.726567 72.813506 98.061337 73.70359 
L 125.254844 124.579062 
z
" clip-path="url(#p4e9c0d5dd5)" style="fill: none; stroke: #292929; stroke-width: 0.5; stroke-linejoin: miter"/>
   </g>
   <g id="patch_162">
    <path d="M 125.254844 124.579062 
C 125.254844 124.579062 125.254844 124.579062 125.254844 124.579062 
C 125.254844 124.579062 125.254844 124.579062 125.254844 124.579062 
L 119.445578 65.596601 
C 117.514994 65.786747 115.59491 66.071565 113.692259 66.450025 
C 111.789609 66.828486 109.906687 67.300133 108.050294 67.863264 
L 125.254844 124.579062 
z
" clip-path="url(#p4e9c0d5dd5)" style="fill: none; stroke: #292929; stroke-width: 0.5; stroke-linejoin: miter"/>
   </g>
   <g id="PathCollection_1">
    <defs>
     <path id="md8a1b8e884" d="M 0.193618 7.414054 
L 0.193618 7.414054 
C 0.054922 7.414054 -0.078235 7.358899 -0.176308 7.260826 
C -0.274381 7.162753 -0.329536 7.029596 -0.329536 6.890901 
L -0.329536 5.365008 
L -1.528416 6.56393 
L -1.528416 6.56393 
C -1.577018 6.612704 -1.634775 6.651408 -1.698366 6.677814 
C -1.761958 6.704221 -1.830141 6.717815 -1.898997 6.717815 
C -1.967853 6.717815 -2.036037 6.704221 -2.099628 6.677814 
C -2.163219 6.651408 -2.220976 6.612704 -2.269578 6.56393 
L -2.269578 6.56393 
C -2.318353 6.515327 -2.357056 6.457571 -2.383463 6.393979 
C -2.409869 6.330388 -2.423463 6.262205 -2.423463 6.193348 
C -2.423463 6.124492 -2.409869 6.056309 -2.383463 5.992718 
C -2.357056 5.929126 -2.318353 5.87137 -2.269578 5.822767 
L -0.329536 3.884106 
L -0.329536 0.820937 
L -2.98067 2.351538 
L -3.691824 5.001416 
L -3.691824 5.001416 
C -3.727584 5.135411 -3.815199 5.249836 -3.93523 5.319305 
C -4.055261 5.388775 -4.198123 5.407741 -4.332122 5.371997 
L -4.332122 5.371997 
C -4.466126 5.336237 -4.580558 5.248616 -4.650029 5.128576 
C -4.719499 5.008535 -4.73846 4.865662 -4.702703 4.731657 
L -4.262647 3.092721 
L -5.585535 3.855668 
L -5.585535 3.855668 
C -5.645013 3.890144 -5.710708 3.912561 -5.778854 3.921634 
C -5.847001 3.930706 -5.916272 3.926258 -5.982698 3.908543 
C -6.049125 3.890828 -6.111412 3.860192 -6.165991 3.818391 
C -6.220571 3.77659 -6.266379 3.724437 -6.300791 3.664922 
L -6.300791 3.664922 
C -6.335212 3.605364 -6.35755 3.539597 -6.366524 3.471396 
C -6.375498 3.403194 -6.370933 3.333888 -6.35309 3.267452 
C -6.335248 3.201017 -6.304476 3.138749 -6.26254 3.08422 
C -6.220605 3.029692 -6.168323 2.983966 -6.108695 2.949666 
L -4.785807 2.186762 
L -6.424743 1.746706 
L -6.424743 1.746706 
C -6.558747 1.710946 -6.673179 1.623325 -6.74265 1.503284 
C -6.81212 1.383244 -6.831081 1.240371 -6.795324 1.106366 
L -6.795324 1.106366 
C -6.777471 1.039969 -6.746703 0.977739 -6.704784 0.923241 
C -6.662864 0.868744 -6.61061 0.823041 -6.551015 0.788752 
C -6.491421 0.754464 -6.425647 0.732257 -6.357465 0.723406 
C -6.289282 0.714554 -6.220019 0.71923 -6.153645 0.737166 
L -3.505232 1.44698 
L -0.852424 -0.08496 
L -3.503767 -1.615666 
L -6.153645 -0.905851 
L -6.153645 -0.905851 
C -6.22011 -0.887939 -6.289462 -0.883321 -6.357716 -0.892262 
C -6.42597 -0.901202 -6.491793 -0.923527 -6.551403 -0.957953 
C -6.611013 -0.992379 -6.663247 -1.038234 -6.705103 -1.092883 
C -6.746958 -1.147533 -6.777619 -1.209911 -6.795324 -1.276432 
L -6.795324 -1.276432 
C -6.831068 -1.410431 -6.812101 -1.553293 -6.742632 -1.673324 
C -6.673162 -1.793355 -6.558738 -1.88097 -6.424743 -1.91673 
L -4.785807 -2.355447 
L -6.108695 -3.119732 
L -6.108695 -3.119732 
C -6.228699 -3.188976 -6.316415 -3.303132 -6.352417 -3.436921 
C -6.388419 -3.57071 -6.369839 -3.713469 -6.300791 -3.833586 
L -6.300791 -3.833586 
C -6.266491 -3.893214 -6.220765 -3.945496 -6.166237 -3.987431 
C -6.111708 -4.029367 -6.04944 -4.060139 -5.983005 -4.077981 
C -5.91657 -4.095823 -5.847263 -4.100389 -5.779062 -4.091415 
C -5.71086 -4.082441 -5.645094 -4.060102 -5.585535 -4.025682 
L -4.262647 -3.261396 
L -4.702703 -4.900332 
L -4.702703 -4.900332 
C -4.73846 -5.034337 -4.719499 -5.17721 -4.650029 -5.29725 
C -4.580558 -5.417291 -4.466126 -5.504912 -4.332122 -5.540672 
L -4.332122 -5.540672 
C -4.19831 -5.576464 -4.055613 -5.557686 -3.935617 -5.488496 
C -3.81562 -5.419305 -3.727882 -5.305212 -3.691824 -5.171472 
L -2.982009 -2.521594 
L -0.329411 -0.990302 
L -0.329411 -4.051588 
L -2.269453 -5.991589 
L -2.269453 -5.991589 
C -2.318227 -6.040191 -2.356931 -6.097947 -2.383337 -6.161539 
C -2.409744 -6.22513 -2.423338 -6.293314 -2.423338 -6.36217 
C -2.423338 -6.431026 -2.409744 -6.499209 -2.383337 -6.5628 
C -2.356931 -6.626392 -2.318227 -6.684149 -2.269453 -6.732751 
L -2.269453 -6.732751 
C -2.22085 -6.781526 -2.163094 -6.820229 -2.099502 -6.846635 
C -2.035911 -6.873042 -1.967728 -6.886636 -1.898871 -6.886636 
C -1.830015 -6.886636 -1.761832 -6.873042 -1.698241 -6.846635 
C -1.634649 -6.820229 -1.576893 -6.781526 -1.52829 -6.732751 
L -0.329411 -5.533829 
L -0.329411 -7.059722 
L -0.329411 -7.059722 
C -0.329411 -7.198418 -0.274255 -7.331575 -0.176182 -7.429647 
C -0.07811 -7.52772 0.055047 -7.582875 0.193743 -7.582875 
L 0.193743 -7.582875 
C 0.332439 -7.582875 0.465596 -7.52772 0.563669 -7.429647 
C 0.661741 -7.331575 0.716897 -7.198418 0.716897 -7.059722 
L 0.716897 -5.533829 
L 1.915777 -6.732751 
L 1.915777 -6.732751 
C 1.964379 -6.781526 2.022136 -6.820229 2.085727 -6.846635 
C 2.149318 -6.873042 2.217502 -6.886636 2.286358 -6.886636 
C 2.355214 -6.886636 2.423397 -6.873042 2.486989 -6.846635 
C 2.55058 -6.820229 2.608337 -6.781526 2.656939 -6.732751 
L 2.656939 -6.732751 
C 2.705714 -6.684149 2.744417 -6.626392 2.770823 -6.5628 
C 2.79723 -6.499209 2.810824 -6.431026 2.810824 -6.36217 
C 2.810824 -6.293314 2.79723 -6.22513 2.770823 -6.161539 
C 2.744417 -6.097947 2.705714 -6.040191 2.656939 -5.991589 
L 0.716897 -4.051588 
L 0.716897 -0.991139 
L 3.369495 -2.522954 
L 4.07931 -5.171367 
L 4.07931 -5.171367 
C 4.115368 -5.305107 4.203106 -5.4192 4.323103 -5.488391 
C 4.4431 -5.557582 4.585797 -5.576359 4.719608 -5.540567 
L 4.719608 -5.540567 
C 4.853612 -5.504807 4.968045 -5.417186 5.037515 -5.297146 
C 5.106986 -5.177105 5.125946 -5.034232 5.090189 -4.900227 
L 4.650133 -3.262673 
L 5.973022 -4.025577 
L 5.973022 -4.025577 
C 6.03258 -4.059998 6.098346 -4.082336 6.166548 -4.09131 
C 6.234749 -4.100284 6.304056 -4.095719 6.370491 -4.077876 
C 6.436926 -4.060034 6.499194 -4.029262 6.553723 -3.987327 
C 6.608252 -3.945391 6.653978 -3.893109 6.688277 -3.833481 
L 6.688277 -3.833481 
C 6.757325 -3.713365 6.775905 -3.570605 6.739903 -3.436816 
C 6.703901 -3.303027 6.616186 -3.188871 6.496181 -3.119628 
L 5.173293 -2.355342 
L 6.812229 -1.916625 
L 6.812229 -1.916625 
C 6.946224 -1.880865 7.060649 -1.79325 7.130118 -1.67322 
C 7.199588 -1.553189 7.218554 -1.410326 7.18281 -1.276327 
L 7.18281 -1.276327 
C 7.165106 -1.209806 7.134445 -1.147429 7.092589 -1.092779 
C 7.050733 -1.038129 6.998499 -0.992274 6.938889 -0.957848 
C 6.879279 -0.923422 6.813456 -0.901098 6.745202 -0.892157 
C 6.676949 -0.883217 6.607597 -0.887835 6.541131 -0.905746 
L 3.891253 -1.615561 
L 1.239492 -0.084604 
L 3.892718 1.447085 
L 6.541131 0.73727 
L 6.541131 0.73727 
C 6.674948 0.701466 6.817656 0.720237 6.937662 0.789429 
C 7.057669 0.858621 7.145413 0.972721 7.181471 1.10647 
L 7.181471 1.10647 
C 7.217274 1.240293 7.198497 1.383006 7.129297 1.503014 
C 7.060096 1.623021 6.945986 1.710762 6.812229 1.74681 
L 5.173293 2.186866 
L 6.496181 2.949771 
L 6.496181 2.949771 
C 6.555697 2.984183 6.607849 3.029991 6.649651 3.08457 
C 6.691452 3.13915 6.722088 3.201437 6.739803 3.267863 
C 6.757517 3.33429 6.761966 3.403561 6.752893 3.471707 
C 6.743821 3.539854 6.721404 3.605549 6.686927 3.665026 
L 6.686927 3.665026 
C 6.617458 3.784813 6.503196 3.87225 6.369416 3.907994 
C 6.235636 3.943739 6.092989 3.924946 5.973032 3.855772 
L 4.650144 3.091487 
L 5.08886 4.731783 
L 5.08886 4.731783 
C 5.124664 4.865606 5.105887 5.008319 5.036686 5.128326 
C 4.967486 5.248334 4.853376 5.336074 4.719619 5.372123 
L 4.719619 5.372123 
C 4.585619 5.407867 4.442757 5.3889 4.322726 5.319431 
C 4.202695 5.249961 4.115081 5.135537 4.07932 5.001542 
L 3.368166 2.351664 
L 0.717033 0.821063 
L 0.717033 3.884232 
L 2.657075 5.822893 
L 2.657075 5.822893 
C 2.70585 5.871495 2.744553 5.929252 2.770959 5.992843 
C 2.797366 6.056435 2.81096 6.124618 2.81096 6.193474 
C 2.81096 6.26233 2.797366 6.330514 2.770959 6.394105 
C 2.744553 6.457696 2.70585 6.515453 2.657075 6.564055 
L 2.657075 6.564055 
C 2.608473 6.61283 2.550716 6.651533 2.487125 6.67794 
C 2.423533 6.704346 2.35535 6.71794 2.286494 6.71794 
C 2.217638 6.71794 2.149454 6.704346 2.085863 6.67794 
C 2.022272 6.651533 1.964515 6.61283 1.915913 6.564055 
L 0.717033 5.365133 
L 0.717033 6.891026 
L 0.717033 6.891026 
C 0.717033 7.029722 0.661877 7.162879 0.563805 7.260952 
C 0.465732 7.359024 0.332575 7.41418 0.193879 7.41418 
L 0.193618 7.414054 
z
"/>
    </defs>
    <g clip-path="url(#p4e9c0d5dd5)">
     <use xlink:href="#md8a1b8e884" x="173.92489" y="61.266968" style="fill: #9e2096; fill-opacity: 0.7"/>
    </g>
   </g>
   <g id="patch_163">
    <path d="M 125.254844 13.699062 
C 110.694216 13.699062 96.275171 16.567189 82.822905 22.1393 
C 69.370638 27.711411 57.146763 35.879144 46.850844 46.175063 
C 36.554925 56.470982 28.387192 68.694857 22.815081 82.147124 
C 17.24297 95.59939 14.374844 110.018434 14.374844 124.579063 
C 14.374844 139.139691 17.24297 153.558735 22.815081 167.011001 
C 28.387192 180.463268 36.554925 192.687143 46.850844 202.983062 
C 57.146763 213.278981 69.370638 221.446714 82.822905 227.018825 
C 96.275171 232.590936 110.694216 235.459063 125.254844 235.459063 
C 139.815472 235.459063 154.234516 232.590936 167.686783 227.018825 
C 181.139049 221.446714 193.362925 213.278981 203.658844 202.983062 
C 213.954763 192.687143 222.122495 180.463268 227.694606 167.011001 
C 233.266717 153.558735 236.134844 139.139691 236.134844 124.579062 
C 236.134844 110.018434 233.266717 95.59939 227.694606 82.147124 
C 222.122495 68.694857 213.954763 56.470982 203.658844 46.175063 
C 193.362925 35.879144 181.139049 27.711411 167.686783 22.1393 
C 154.234516 16.567189 139.815472 13.699062 125.254844 13.699062 
" style="fill: none; stroke: #000000; stroke-width: 0.8; stroke-linejoin: miter; stroke-linecap: square"/>
   </g>
  </g>
 </g>
 <defs>
  <clipPath id="p4e9c0d5dd5">
   <path d="M 236.134844 124.579063 
C 236.134844 110.018434 233.266717 95.59939 227.694606 82.147124 
C 222.122495 68.694857 213.954763 56.470982 203.658844 46.175063 
C 193.362925 35.879144 181.139049 27.711411 167.686783 22.1393 
C 154.234516 16.567189 139.815472 13.699062 125.254844 13.699062 
C 110.694216 13.699062 96.275171 16.567189 82.822905 22.1393 
C 69.370638 27.711411 57.146763 35.879144 46.850844 46.175063 
C 36.554925 56.470982 28.387192 68.694857 22.815081 82.147124 
C 17.24297 95.59939 14.374844 110.018434 14.374844 124.579062 
C 14.374844 139.139691 17.24297 153.558735 22.815081 167.011001 
C 28.387192 180.463268 36.554925 192.687143 46.850844 202.983062 
C 57.146763 213.278981 69.370638 221.446714 82.822905 227.018825 
C 96.275171 232.590936 110.694216 235.459063 125.254844 235.459063 
C 139.815472 235.459063 154.234516 232.590936 167.686783 227.018825 
C 181.139049 221.446714 193.362925 213.278981 203.658844 202.983062 
C 213.954763 192.687143 222.122495 180.463268 227.694606 167.011001 
C 233.266717 153.558735 236.134844 139.139691 236.134844 124.579063 
M 125.254844 124.579063 
C 125.254844 124.579063 125.254844 124.579063 125.254844 124.579063 
C 125.254844 124.579063 125.254844 124.579063 125.254844 124.579063 
C 125.254844 124.579063 125.254844 124.579063 125.254844 124.579063 
C 125.254844 124.579063 125.254844 124.579063 125.254844 124.579063 
C 125.254844 124.579063 125.254844 124.579063 125.254844 124.579063 
C 125.254844 124.579063 125.254844 124.579063 125.254844 124.579063 
C 125.254844 124.579063 125.254844 124.579063 125.254844 124.579063 
C 125.254844 124.579063 125.254844 124.579063 125.254844 124.579063 
C 125.254844 124.579063 125.254844 124.579063 125.254844 124.579063 
C 125.254844 124.579063 125.254844 124.579063 125.254844 124.579063 
C 125.254844 124.579063 125.254844 124.579063 125.254844 124.579063 
C 125.254844 124.579063 125.254844 124.579063 125.254844 124.579063 
C 125.254844 124.579063 125.254844 124.579063 125.254844 124.579063 
C 125.254844 124.579063 125.254844 124.579063 125.254844 124.579063 
C 125.254844 124.579063 125.254844 124.579063 125.254844 124.579063 
C 125.254844 124.579063 125.254844 124.579063 125.254844 124.579063 
z
"/>
  </clipPath>
 </defs>
</svg>
