<?xml version="1.0" encoding="utf-8" standalone="no"?>
<!DOCTYPE svg PUBLIC "-//W3C//DTD SVG 1.1//EN"
  "http://www.w3.org/Graphics/SVG/1.1/DTD/svg11.dtd">
<svg xmlns:xlink="http://www.w3.org/1999/xlink" width="248.410469pt" height="249.158125pt" viewBox="0 0 248.410469 249.158125" xmlns="http://www.w3.org/2000/svg" version="1.1">
 <title>Ski Rose for Boí Taüll</title>
 <metadata>
  <rdf:RDF xmlns:dc="http://purl.org/dc/elements/1.1/" xmlns:cc="http://creativecommons.org/ns#" xmlns:rdf="http://www.w3.org/1999/02/22-rdf-syntax-ns#">
   <cc:Work>
    <dc:type rdf:resource="http://purl.org/dc/dcmitype/StillImage"/>
    <dc:title>Ski Rose for Boí Taüll</dc:title>
    <dc:date>2025-03-01T23:44:45.262499</dc:date>
    <dc:description>A 32-bin stacked histogram of downhill ski run orientations colored by difficulty.</dc:description>
    <dc:format>image/svg+xml</dc:format>
    <dc:source>https://openskimap.org/?obj=52c9c35a9f63939f43b957b39196aa77ec0013c7</dc:source>
    <dc:creator>
     <cc:Agent>
      <dc:title>https://github.com/dhimmel/openskistats</dc:title>
     </cc:Agent>
    </dc:creator>
    <dc:rights>
     <cc:Agent>
      <dc:title>https://creativecommons.org/licenses/by/4.0/</dc:title>
     </cc:Agent>
    </dc:rights>
   </cc:Work>
  </rdf:RDF>
 </metadata>
 <defs>
  <style type="text/css">*{stroke-linejoin: round; stroke-linecap: butt}</style>
 </defs>
 <g id="figure_1">
  <g id="patch_1">
   <path d="M 0 249.158125 
L 248.410469 249.158125 
L 248.410469 0 
L 0 0 
z
" style="fill: #ffffff"/>
  </g>
  <g id="axes_1">
   <g id="patch_2">
    <path d="M 236.134844 124.579063 
C 236.134844 110.018434 233.266717 95.59939 227.694606 82.147124 
C 222.122495 68.694857 213.954763 56.470982 203.658844 46.175063 
C 193.362925 35.879144 181.139049 27.711411 167.686783 22.1393 
C 154.234516 16.567189 139.815472 13.699062 125.254844 13.699062 
C 110.694216 13.699062 96.275171 16.567189 82.822905 22.1393 
C 69.370638 27.711411 57.146763 35.879144 46.850844 46.175063 
C 36.554925 56.470982 28.387192 68.694857 22.815081 82.147124 
C 17.24297 95.59939 14.374844 110.018434 14.374844 124.579062 
C 14.374844 139.139691 17.24297 153.558735 22.815081 167.011001 
C 28.387192 180.463268 36.554925 192.687143 46.850844 202.983062 
C 57.146763 213.278981 69.370638 221.446714 82.822905 227.018825 
C 96.275171 232.590936 110.694216 235.459063 125.254844 235.459063 
C 139.815472 235.459063 154.234516 232.590936 167.686783 227.018825 
C 181.139049 221.446714 193.362925 213.278981 203.658844 202.983062 
C 213.954763 192.687143 222.122495 180.463268 227.694606 167.011001 
C 233.266717 153.558735 236.134844 139.139691 236.134844 124.579063 
M 125.254844 124.579063 
C 125.254844 124.579063 125.254844 124.579063 125.254844 124.579063 
C 125.254844 124.579063 125.254844 124.579063 125.254844 124.579063 
C 125.254844 124.579063 125.254844 124.579063 125.254844 124.579063 
C 125.254844 124.579063 125.254844 124.579063 125.254844 124.579063 
C 125.254844 124.579063 125.254844 124.579063 125.254844 124.579063 
C 125.254844 124.579063 125.254844 124.579063 125.254844 124.579063 
C 125.254844 124.579063 125.254844 124.579063 125.254844 124.579063 
C 125.254844 124.579063 125.254844 124.579063 125.254844 124.579063 
C 125.254844 124.579063 125.254844 124.579063 125.254844 124.579063 
C 125.254844 124.579063 125.254844 124.579063 125.254844 124.579063 
C 125.254844 124.579063 125.254844 124.579063 125.254844 124.579063 
C 125.254844 124.579063 125.254844 124.579063 125.254844 124.579063 
C 125.254844 124.579063 125.254844 124.579063 125.254844 124.579063 
C 125.254844 124.579063 125.254844 124.579063 125.254844 124.579063 
C 125.254844 124.579063 125.254844 124.579063 125.254844 124.579063 
C 125.254844 124.579063 125.254844 124.579063 125.254844 124.579063 
z
" style="fill: #ffffff"/>
   </g>
   <g id="PolyCollection_1">
    <defs>
     <path id="mc3e7a960b0" d="M 235.360477 -137.124015 
L 235.360477 -137.124015 
L 234.353665 -135.084084 
L 233.256822 -133.079003 
L 232.089224 -131.113333 
L 230.86566 -129.19013 
L 229.595247 -127.311312 
L 228.283854 -125.478183 
L 226.935618 -123.691708 
L 225.55373 -121.952644 
L 224.140849 -120.261606 
L 222.924504 -118.60533 
L 221.456091 -117.00786 
L 219.96302 -115.459702 
L 218.447256 -113.961128 
L 216.91071 -112.512339 
L 215.576849 -111.080348 
L 214.003112 -109.727696 
L 212.633096 -108.384461 
L 211.028887 -107.128136 
L 209.628821 -105.873802 
L 208.000788 -104.713519 
L 206.576729 -103.547793 
L 205.141972 -102.424401 
L 203.48944 -101.404919 
L 202.039569 -100.368931 
L 200.58322 -99.37454 
L 199.121746 -98.421421 
L 197.656491 -97.509196 
L 196.188792 -96.637437 
L 194.719978 -95.805662 
L 193.441931 -94.930473 
L 191.971771 -94.174407 
L 190.504287 -93.456675 
L 189.222147 -92.686142 
L 187.760426 -92.040716 
L 186.479889 -91.336575 
L 185.028443 -90.760787 
L 183.753533 -90.120701 
L 182.481194 -89.51071 
L 181.212286 -88.93024 
L 179.947652 -88.378682 
L 178.688117 -87.855391 
L 177.43448 -87.359689 
L 176.187522 -86.890863 
L 174.947996 -86.448166 
L 173.716632 -86.030816 
L 172.494131 -85.637999 
L 171.411908 -85.157205 
L 170.204997 -84.810526 
L 169.008824 -84.485926 
L 167.942744 -84.069758 
L 166.765496 -83.786658 
L 165.711383 -83.410189 
L 164.662028 -83.052555 
L 163.514489 -82.825987 
L 162.479509 -82.504232 
L 161.450353 -82.199566 
L 160.335902 -82.022335 
L 159.323046 -81.749463 
L 158.316844 -81.491824 
L 157.317526 -81.248834 
L 156.325292 -81.019901 
L 155.340318 -80.804426 
L 154.362754 -80.601807 
L 153.392723 -80.411439 
L 152.430321 -80.232713 
L 151.475617 -80.065022 
L 150.528652 -79.907757 
L 149.589439 -79.760313 
L 148.705911 -79.529981 
L 147.778817 -79.40296 
L 146.859422 -79.284122 
L 145.947633 -79.172881 
L 145.079031 -78.986553 
L 144.179072 -78.891935 
L 143.286371 -78.803364 
L 142.428243 -78.64672 
L 141.546743 -78.57216 
L 140.671946 -78.5022 
L 139.82377 -78.372331 
L 138.959186 -78.313979 
L 138.116529 -78.201325 
L 137.261389 -78.153196 
L 136.41165 -78.107618 
L 135.577268 -78.017616 
L 134.735463 -77.980332 
L 133.905326 -77.905238 
L 133.070388 -77.875209 
L 132.243881 -77.814319 
L 131.414653 -77.790662 
L 130.591094 -77.743392 
L 129.766339 -77.725393 
L 128.944992 -77.691282 
L 128.123411 -77.678403 
L 127.3035 -77.657125 
L 126.48375 -77.649011 
L 125.664471 -77.640374 
L 124.84522 -77.640804 
L 124.025879 -77.646783 
L 123.206394 -77.66184 
L 122.386669 -77.684824 
L 121.565401 -77.700253 
L 120.744375 -77.736049 
L 119.920094 -77.756565 
L 119.096986 -77.80549 
L 118.268391 -77.831617 
L 117.442464 -77.894119 
L 116.608314 -77.92656 
L 115.77888 -78.003214 
L 114.938011 -78.042838 
L 114.09244 -78.084305 
L 113.255793 -78.182175 
L 112.401808 -78.232512 
L 111.56015 -78.346551 
L 110.696852 -78.407011 
L 109.849781 -78.538183 
L 108.976395 -78.610143 
L 108.09637 -78.686639 
L 107.239498 -78.844443 
L 106.348384 -78.93483 
L 105.450067 -79.031194 
L 104.582856 -79.218525 
L 103.672807 -79.331382 
L 102.755201 -79.451761 
L 101.829943 -79.580247 
L 100.896965 -79.717431 
L 100.010662 -79.960122 
L 99.065649 -80.118633 
L 98.112934 -80.287491 
L 97.152554 -80.467304 
L 96.184576 -80.658679 
L 95.209092 -80.862223 
L 94.226225 -81.078543 
L 93.23612 -81.30824 
L 92.238951 -81.551913 
L 91.234918 -81.810154 
L 90.224245 -82.083548 
L 89.112367 -82.26166 
L 88.085422 -82.566674 
L 87.052663 -82.888698 
L 85.907728 -83.115853 
L 84.860606 -83.473587 
L 83.80873 -83.850079 
L 82.634096 -84.133483 
L 81.570254 -84.549511 
L 80.376692 -84.874228 
L 79.172386 -85.220925 
L 78.092389 -85.701335 
L 76.87248 -86.093992 
L 75.643696 -86.51109 
L 74.406738 -86.953444 
L 73.162335 -87.421837 
L 72.064584 -88.02241 
L 70.811241 -88.543628 
L 69.392105 -88.990573 
L 68.125688 -89.570271 
L 66.85582 -90.179409 
L 65.583364 -90.818563 
L 64.134708 -91.393536 
L 62.856582 -92.096583 
L 61.578641 -92.831279 
L 60.117832 -93.510301 
L 58.653045 -94.226874 
L 57.375771 -95.064402 
L 55.909808 -95.855408 
L 54.44362 -96.68578 
L 52.978523 -97.556054 
L 51.515846 -98.466714 
L 50.056925 -99.418191 
L 48.603106 -100.410863 
L 47.155741 -101.445054 
L 45.71619 -102.521042 
L 44.285816 -103.639048 
L 42.652131 -104.747906 
L 41.242556 -105.953987 
L 39.629198 -107.158328 
L 38.246457 -108.453011 
L 36.660046 -109.753378 
L 35.310212 -111.136747 
L 33.757421 -112.533198 
L 32.223511 -113.979481 
L 30.934206 -115.497018 
L 29.444271 -117.038607 
L 27.978761 -118.629402 
L 26.53969 -120.269066 
L 25.129191 -121.95718 
L 23.74957 -123.693239 
L 22.627508 -125.474678 
L 21.316902 -127.300773 
L 20.046216 -129.17257 
L 18.820644 -131.088857 
L 17.648045 -133.047901 
L 16.54111 -135.047004 
L 15.518719 -137.081915 
L 15.124419 -137.126839 
L 15.124419 -137.126839 
L 14.895809 -135.205429 
L 14.843304 -133.268639 
L 14.653074 -131.343757 
L 14.495225 -129.414932 
L 14.597256 -127.476733 
L 14.504482 -125.545566 
L 14.443734 -123.612029 
L 14.414801 -121.676614 
L 14.615251 -119.748434 
L 14.648447 -117.814085 
L 14.748364 -115.882014 
L 15.003706 -113.963085 
L 15.128011 -112.031695 
L 15.323679 -110.10635 
L 15.704192 -108.206608 
L 15.919903 -106.282668 
L 16.357729 -104.396175 
L 16.633022 -102.479703 
L 17.1281 -100.60794 
L 17.463615 -98.700678 
L 18.016141 -96.845248 
L 18.412564 -94.949076 
L 19.022774 -93.11169 
L 19.534628 -91.245607 
L 20.149115 -89.411178 
L 20.790321 -87.586235 
L 21.396686 -85.748089 
L 22.097452 -83.944285 
L 22.828581 -82.152716 
L 23.592567 -80.375047 
L 24.441891 -78.635953 
L 25.209836 -76.860042 
L 26.034887 -75.109817 
L 26.913914 -73.386015 
L 27.853728 -71.694571 
L 28.767303 -69.989038 
L 29.718303 -68.303739 
L 30.726686 -66.652133 
L 31.743052 -65.005481 
L 33.512168 -63.85591 
L 35.444878 -62.854383 
L 37.397579 -61.911085 
L 39.290135 -60.968524 
L 41.18375 -60.069043 
L 43.148334 -59.268596 
L 45.042346 -58.456982 
L 46.928212 -57.681799 
L 48.811548 -56.947748 
L 50.683621 -56.247126 
L 52.55057 -55.585283 
L 54.348067 -54.899167 
L 56.192662 -54.300876 
L 57.973586 -53.67941 
L 59.746045 -53.088754 
L 61.509386 -52.52793 
L 63.312933 -52.054404 
L 65.054342 -51.550014 
L 66.738953 -51.014506 
L 68.460329 -50.56301 
L 70.170091 -50.136292 
L 71.83101 -49.681609 
L 73.518424 -49.302105 
L 75.156746 -48.889094 
L 76.820778 -48.552809 
L 78.442236 -48.18783 
L 80.051001 -47.838166 
L 81.653316 -47.513623 
L 83.242816 -47.202534 
L 84.825572 -46.915155 
L 86.395557 -46.639392 
L 87.958642 -46.38595 
L 89.509162 -46.142323 
L 91.033107 -45.874457 
L 92.568592 -45.667469 
L 94.092078 -45.467773 
L 95.593466 -45.246105 
L 97.088418 -45.03953 
L 98.589852 -44.885801 
L 100.071085 -44.706385 
L 101.554726 -44.568806 
L 103.023189 -44.414305 
L 104.486117 -44.272354 
L 105.943739 -44.142524 
L 107.402587 -44.052738 
L 108.849499 -43.944216 
L 110.291971 -43.846626 
L 111.73031 -43.759635 
L 113.164837 -43.682938 
L 114.595888 -43.616254 
L 116.023811 -43.559331 
L 117.448968 -43.511946 
L 118.871729 -43.473906 
L 120.292475 -43.445045 
L 121.711591 -43.425229 
L 123.129468 -43.414243 
L 124.546494 -43.410237 
L 125.963211 -43.408236 
L 127.380332 -43.409956 
L 128.798301 -43.420549 
L 130.217516 -43.440086 
L 131.63837 -43.468672 
L 133.061249 -43.506442 
L 134.486534 -43.55356 
L 135.914594 -43.610221 
L 137.34579 -43.676649 
L 138.780472 -43.753096 
L 140.218974 -43.839841 
L 141.661618 -43.937192 
L 143.108709 -44.045483 
L 144.560535 -44.16507 
L 146.023687 -44.271902 
L 147.486698 -44.413587 
L 148.955252 -44.567826 
L 150.44124 -44.698019 
L 151.922697 -44.877251 
L 153.410303 -45.070498 
L 154.916982 -45.24407 
L 156.418503 -45.465505 
L 157.94493 -45.658212 
L 159.477786 -45.871684 
L 161.001885 -46.13934 
L 162.55567 -46.376253 
L 164.115845 -46.635952 
L 165.689296 -46.905203 
L 167.268967 -47.198674 
L 168.862121 -47.50346 
L 170.461186 -47.833923 
L 172.07378 -48.177502 
L 173.691832 -48.548221 
L 175.323299 -48.933877 
L 176.998486 -49.291596 
L 178.645403 -49.72826 
L 180.343445 -50.131091 
L 182.053454 -50.557672 
L 183.733134 -51.061776 
L 185.464082 -51.539416 
L 187.205796 -52.043817 
L 188.95778 -52.575992 
L 190.768999 -53.082908 
L 192.541713 -53.673497 
L 194.32289 -54.294908 
L 196.172165 -54.888805 
L 197.969946 -55.575007 
L 199.83271 -56.241039 
L 201.709531 -56.937669 
L 203.588627 -57.675691 
L 205.479252 -58.447164 
L 207.368977 -59.262532 
L 209.266474 -60.114671 
L 211.232067 -60.959264 
L 213.12028 -61.905256 
L 215.073054 -62.848717 
L 217.005725 -63.850479 
L 218.766495 -65.005571 
L 219.790666 -66.647436 
L 220.747073 -68.329841 
L 221.723813 -69.999546 
L 222.672881 -71.685384 
L 223.601226 -73.383176 
L 224.455407 -75.119486 
L 225.228761 -76.89395 
L 226.085881 -78.627711 
L 226.875735 -80.393041 
L 227.610988 -82.181759 
L 228.296746 -83.989778 
L 229.105124 -85.751034 
L 229.772751 -87.567331 
L 230.349021 -89.415043 
L 230.93966 -91.256768 
L 231.542291 -93.095286 
L 232.099047 -94.948542 
L 232.513763 -96.84002 
L 232.985202 -98.715292 
L 233.49778 -100.582181 
L 233.874985 -102.480045 
L 234.208495 -104.385697 
L 234.498835 -106.297888 
L 234.872227 -108.196635 
L 235.148334 -110.11131 
L 235.314221 -112.03938 
L 235.577308 -113.956217 
L 235.723811 -115.884966 
L 235.914915 -117.810803 
L 235.92761 -119.746985 
L 236.048776 -121.677821 
L 236.04123 -123.612244 
L 236.092819 -125.546331 
L 236.013881 -127.47939 
L 235.997427 -129.414188 
L 235.852212 -131.343487 
L 235.769271 -133.276737 
L 235.508939 -135.195324 
L 235.360477 -137.124015 
z
" style="stroke: #ffee9c"/>
    </defs>
    <g clip-path="url(#p95227a41dc)">
     <use xlink:href="#mc3e7a960b0" x="0" y="249.158125" style="fill: #ffee9c; stroke: #ffee9c"/>
    </g>
   </g>
   <g id="matplotlib.axis_1">
    <g id="xtick_1">
     <g id="line2d_1">
      <path d="M 125.254844 124.579062 
L 125.254844 13.699062 
" clip-path="url(#p95227a41dc)" style="fill: none; stroke: #b0b0b0; stroke-width: 0.8; stroke-linecap: square"/>
     </g>
     <g id="text_1">
      <!-- N -->
      <g transform="translate(121.070469 7.958438) scale(0.1 -0.1)">
       <defs>
        <path id="DejaVuSans-Bold-4e" d="M 588 4666 
L 1931 4666 
L 3628 1466 
L 3628 4666 
L 4769 4666 
L 4769 0 
L 3425 0 
L 1728 3200 
L 1728 0 
L 588 0 
L 588 4666 
z
" transform="scale(0.015625)"/>
       </defs>
       <use xlink:href="#DejaVuSans-Bold-4e"/>
      </g>
     </g>
    </g>
    <g id="xtick_2">
     <g id="line2d_2">
      <path d="M 125.254844 124.579062 
L 203.658844 46.175063 
" clip-path="url(#p95227a41dc)" style="fill: none; stroke: #b0b0b0; stroke-width: 0.8; stroke-linecap: square"/>
     </g>
    </g>
    <g id="xtick_3">
     <g id="line2d_3">
      <path d="M 125.254844 124.579062 
L 236.134844 124.579062 
" clip-path="url(#p95227a41dc)" style="fill: none; stroke: #b0b0b0; stroke-width: 0.8; stroke-linecap: square"/>
     </g>
     <g id="text_2">
      <!-- E -->
      <g transform="translate(241.219219 127.338437) scale(0.1 -0.1)">
       <defs>
        <path id="DejaVuSans-Bold-45" d="M 588 4666 
L 3834 4666 
L 3834 3756 
L 1791 3756 
L 1791 2888 
L 3713 2888 
L 3713 1978 
L 1791 1978 
L 1791 909 
L 3903 909 
L 3903 0 
L 588 0 
L 588 4666 
z
" transform="scale(0.015625)"/>
       </defs>
       <use xlink:href="#DejaVuSans-Bold-45"/>
      </g>
     </g>
    </g>
    <g id="xtick_4">
     <g id="line2d_4">
      <path d="M 125.254844 124.579062 
L 203.658844 202.983062 
" clip-path="url(#p95227a41dc)" style="fill: none; stroke: #b0b0b0; stroke-width: 0.8; stroke-linecap: square"/>
     </g>
    </g>
    <g id="xtick_5">
     <g id="line2d_5">
      <path d="M 125.254844 124.579062 
L 125.254844 235.459062 
" clip-path="url(#p95227a41dc)" style="fill: none; stroke: #b0b0b0; stroke-width: 0.8; stroke-linecap: square"/>
     </g>
     <g id="text_3">
      <!-- S -->
      <g transform="translate(121.654062 246.718437) scale(0.1 -0.1)">
       <defs>
        <path id="DejaVuSans-Bold-53" d="M 3834 4519 
L 3834 3531 
Q 3450 3703 3084 3790 
Q 2719 3878 2394 3878 
Q 1963 3878 1756 3759 
Q 1550 3641 1550 3391 
Q 1550 3203 1689 3098 
Q 1828 2994 2194 2919 
L 2706 2816 
Q 3484 2659 3812 2340 
Q 4141 2022 4141 1434 
Q 4141 663 3683 286 
Q 3225 -91 2284 -91 
Q 1841 -91 1394 -6 
Q 947 78 500 244 
L 500 1259 
Q 947 1022 1364 901 
Q 1781 781 2169 781 
Q 2563 781 2772 912 
Q 2981 1044 2981 1288 
Q 2981 1506 2839 1625 
Q 2697 1744 2272 1838 
L 1806 1941 
Q 1106 2091 782 2419 
Q 459 2747 459 3303 
Q 459 4000 909 4375 
Q 1359 4750 2203 4750 
Q 2588 4750 2994 4692 
Q 3400 4634 3834 4519 
z
" transform="scale(0.015625)"/>
       </defs>
       <use xlink:href="#DejaVuSans-Bold-53"/>
      </g>
     </g>
    </g>
    <g id="xtick_6">
     <g id="line2d_6">
      <path d="M 125.254844 124.579062 
L 46.850844 202.983062 
" clip-path="url(#p95227a41dc)" style="fill: none; stroke: #b0b0b0; stroke-width: 0.8; stroke-linecap: square"/>
     </g>
    </g>
    <g id="xtick_7">
     <g id="line2d_7">
      <path d="M 125.254844 124.579062 
L 14.374844 124.579063 
" clip-path="url(#p95227a41dc)" style="fill: none; stroke: #b0b0b0; stroke-width: 0.8; stroke-linecap: square"/>
     </g>
     <g id="text_4">
      <!-- W -->
      <g transform="translate(0.36 127.338438) scale(0.1 -0.1)">
       <defs>
        <path id="DejaVuSans-Bold-57" d="M 191 4666 
L 1344 4666 
L 2150 1275 
L 2950 4666 
L 4109 4666 
L 4909 1275 
L 5716 4666 
L 6859 4666 
L 5759 0 
L 4372 0 
L 3525 3547 
L 2688 0 
L 1300 0 
L 191 4666 
z
" transform="scale(0.015625)"/>
       </defs>
       <use xlink:href="#DejaVuSans-Bold-57"/>
      </g>
     </g>
    </g>
    <g id="xtick_8">
     <g id="line2d_8">
      <path d="M 125.254844 124.579062 
L 46.850844 46.175063 
" clip-path="url(#p95227a41dc)" style="fill: none; stroke: #b0b0b0; stroke-width: 0.8; stroke-linecap: square"/>
     </g>
    </g>
   </g>
   <g id="matplotlib.axis_2"/>
   <g id="patch_3">
    <path d="M 125.254844 124.579062 
C 125.254844 124.579062 125.254844 124.579062 125.254844 124.579062 
C 125.254844 124.579062 125.254844 124.579062 125.254844 124.579062 
L 125.254844 124.579062 
C 125.254844 124.579062 125.254844 124.579062 125.254844 124.579062 
C 125.254844 124.579062 125.254844 124.579062 125.254844 124.579062 
z
" clip-path="url(#p95227a41dc)" style="fill: #d9d9d9"/>
   </g>
   <g id="patch_4">
    <path d="M 125.254844 124.579062 
C 125.254844 124.579062 125.254844 124.579062 125.254844 124.579062 
C 125.254844 124.579062 125.254844 124.579062 125.254844 124.579062 
L 125.254844 124.579062 
C 125.254844 124.579062 125.254844 124.579062 125.254844 124.579062 
C 125.254844 124.579062 125.254844 124.579062 125.254844 124.579062 
z
" clip-path="url(#p95227a41dc)" style="fill: #d9d9d9"/>
   </g>
   <g id="patch_5">
    <path d="M 125.254844 124.579062 
C 125.254844 124.579062 125.254844 124.579062 125.254844 124.579062 
C 125.254844 124.579062 125.254844 124.579062 125.254844 124.579062 
L 125.254844 124.579062 
C 125.254844 124.579062 125.254844 124.579062 125.254844 124.579062 
C 125.254844 124.579062 125.254844 124.579062 125.254844 124.579062 
z
" clip-path="url(#p95227a41dc)" style="fill: #d9d9d9"/>
   </g>
   <g id="patch_6">
    <path d="M 125.254844 124.579062 
C 125.254844 124.579062 125.254844 124.579062 125.254844 124.579062 
C 125.254844 124.579062 125.254844 124.579062 125.254844 124.579062 
L 125.254844 124.579062 
C 125.254844 124.579062 125.254844 124.579062 125.254844 124.579062 
C 125.254844 124.579062 125.254844 124.579062 125.254844 124.579062 
z
" clip-path="url(#p95227a41dc)" style="fill: #d9d9d9"/>
   </g>
   <g id="patch_7">
    <path d="M 125.254844 124.579062 
C 125.254844 124.579062 125.254844 124.579062 125.254844 124.579062 
C 125.254844 124.579062 125.254844 124.579062 125.254844 124.579062 
L 125.254844 124.579062 
C 125.254844 124.579062 125.254844 124.579062 125.254844 124.579062 
C 125.254844 124.579062 125.254844 124.579062 125.254844 124.579062 
z
" clip-path="url(#p95227a41dc)" style="fill: #d9d9d9"/>
   </g>
   <g id="patch_8">
    <path d="M 125.254844 124.579062 
C 125.254844 124.579062 125.254844 124.579062 125.254844 124.579062 
C 125.254844 124.579062 125.254844 124.579062 125.254844 124.579062 
L 125.254844 124.579062 
C 125.254844 124.579062 125.254844 124.579062 125.254844 124.579062 
C 125.254844 124.579062 125.254844 124.579062 125.254844 124.579062 
z
" clip-path="url(#p95227a41dc)" style="fill: #d9d9d9"/>
   </g>
   <g id="patch_9">
    <path d="M 125.254844 124.579062 
C 125.254844 124.579062 125.254844 124.579062 125.254844 124.579062 
C 125.254844 124.579062 125.254844 124.579062 125.254844 124.579062 
L 125.254844 124.579062 
C 125.254844 124.579062 125.254844 124.579062 125.254844 124.579062 
C 125.254844 124.579062 125.254844 124.579062 125.254844 124.579062 
z
" clip-path="url(#p95227a41dc)" style="fill: #d9d9d9"/>
   </g>
   <g id="patch_10">
    <path d="M 125.254844 124.579062 
C 125.254844 124.579062 125.254844 124.579062 125.254844 124.579062 
C 125.254844 124.579062 125.254844 124.579062 125.254844 124.579062 
L 125.254844 124.579062 
C 125.254844 124.579062 125.254844 124.579062 125.254844 124.579062 
C 125.254844 124.579062 125.254844 124.579062 125.254844 124.579062 
z
" clip-path="url(#p95227a41dc)" style="fill: #d9d9d9"/>
   </g>
   <g id="patch_11">
    <path d="M 125.254844 124.579062 
C 125.254844 124.579062 125.254844 124.579062 125.254844 124.579062 
C 125.254844 124.579062 125.254844 124.579062 125.254844 124.579062 
L 125.254844 124.579062 
C 125.254844 124.579062 125.254844 124.579062 125.254844 124.579062 
C 125.254844 124.579062 125.254844 124.579062 125.254844 124.579062 
z
" clip-path="url(#p95227a41dc)" style="fill: #d9d9d9"/>
   </g>
   <g id="patch_12">
    <path d="M 125.254844 124.579062 
C 125.254844 124.579062 125.254844 124.579062 125.254844 124.579062 
C 125.254844 124.579062 125.254844 124.579062 125.254844 124.579062 
L 125.254844 124.579062 
C 125.254844 124.579062 125.254844 124.579062 125.254844 124.579062 
C 125.254844 124.579062 125.254844 124.579062 125.254844 124.579062 
z
" clip-path="url(#p95227a41dc)" style="fill: #d9d9d9"/>
   </g>
   <g id="patch_13">
    <path d="M 125.254844 124.579062 
C 125.254844 124.579062 125.254844 124.579062 125.254844 124.579062 
C 125.254844 124.579062 125.254844 124.579062 125.254844 124.579062 
L 125.254844 124.579062 
C 125.254844 124.579062 125.254844 124.579062 125.254844 124.579062 
C 125.254844 124.579062 125.254844 124.579062 125.254844 124.579062 
z
" clip-path="url(#p95227a41dc)" style="fill: #d9d9d9"/>
   </g>
   <g id="patch_14">
    <path d="M 125.254844 124.579062 
C 125.254844 124.579062 125.254844 124.579062 125.254844 124.579062 
C 125.254844 124.579062 125.254844 124.579062 125.254844 124.579062 
L 125.254844 124.579062 
C 125.254844 124.579062 125.254844 124.579062 125.254844 124.579062 
C 125.254844 124.579062 125.254844 124.579062 125.254844 124.579062 
z
" clip-path="url(#p95227a41dc)" style="fill: #d9d9d9"/>
   </g>
   <g id="patch_15">
    <path d="M 125.254844 124.579062 
C 125.254844 124.579062 125.254844 124.579062 125.254844 124.579062 
C 125.254844 124.579062 125.254844 124.579062 125.254844 124.579062 
L 125.254844 124.579062 
C 125.254844 124.579062 125.254844 124.579062 125.254844 124.579062 
C 125.254844 124.579062 125.254844 124.579062 125.254844 124.579062 
z
" clip-path="url(#p95227a41dc)" style="fill: #d9d9d9"/>
   </g>
   <g id="patch_16">
    <path d="M 125.254844 124.579062 
C 125.254844 124.579062 125.254844 124.579062 125.254844 124.579062 
C 125.254844 124.579062 125.254844 124.579062 125.254844 124.579062 
L 125.254844 124.579062 
C 125.254844 124.579062 125.254844 124.579062 125.254844 124.579062 
C 125.254844 124.579062 125.254844 124.579062 125.254844 124.579062 
z
" clip-path="url(#p95227a41dc)" style="fill: #d9d9d9"/>
   </g>
   <g id="patch_17">
    <path d="M 125.254844 124.579062 
C 125.254844 124.579062 125.254844 124.579062 125.254844 124.579062 
C 125.254844 124.579062 125.254844 124.579062 125.254844 124.579062 
L 125.254844 124.579062 
C 125.254844 124.579062 125.254844 124.579062 125.254844 124.579062 
C 125.254844 124.579062 125.254844 124.579062 125.254844 124.579062 
z
" clip-path="url(#p95227a41dc)" style="fill: #d9d9d9"/>
   </g>
   <g id="patch_18">
    <path d="M 125.254844 124.579062 
C 125.254844 124.579062 125.254844 124.579062 125.254844 124.579062 
C 125.254844 124.579062 125.254844 124.579062 125.254844 124.579062 
L 125.254844 124.579062 
C 125.254844 124.579062 125.254844 124.579062 125.254844 124.579062 
C 125.254844 124.579062 125.254844 124.579062 125.254844 124.579062 
z
" clip-path="url(#p95227a41dc)" style="fill: #d9d9d9"/>
   </g>
   <g id="patch_19">
    <path d="M 125.254844 124.579062 
C 125.254844 124.579062 125.254844 124.579062 125.254844 124.579062 
C 125.254844 124.579062 125.254844 124.579062 125.254844 124.579062 
L 125.254844 124.579062 
C 125.254844 124.579062 125.254844 124.579062 125.254844 124.579062 
C 125.254844 124.579062 125.254844 124.579062 125.254844 124.579062 
z
" clip-path="url(#p95227a41dc)" style="fill: #d9d9d9"/>
   </g>
   <g id="patch_20">
    <path d="M 125.254844 124.579062 
C 125.254844 124.579062 125.254844 124.579062 125.254844 124.579062 
C 125.254844 124.579062 125.254844 124.579062 125.254844 124.579062 
L 124.317781 127.668143 
C 124.418892 127.698815 124.521447 127.724504 124.625076 127.745117 
C 124.728706 127.76573 124.833285 127.781243 124.938436 127.791599 
z
" clip-path="url(#p95227a41dc)" style="fill: #d9d9d9"/>
   </g>
   <g id="patch_21">
    <path d="M 125.254844 124.579062 
C 125.254844 124.579062 125.254844 124.579062 125.254844 124.579062 
C 125.254844 124.579062 125.254844 124.579062 125.254844 124.579062 
L 125.254844 124.579062 
C 125.254844 124.579062 125.254844 124.579062 125.254844 124.579062 
C 125.254844 124.579062 125.254844 124.579062 125.254844 124.579062 
z
" clip-path="url(#p95227a41dc)" style="fill: #d9d9d9"/>
   </g>
   <g id="patch_22">
    <path d="M 125.254844 124.579062 
C 125.254844 124.579062 125.254844 124.579062 125.254844 124.579062 
C 125.254844 124.579062 125.254844 124.579062 125.254844 124.579062 
L 125.254844 124.579062 
C 125.254844 124.579062 125.254844 124.579062 125.254844 124.579062 
C 125.254844 124.579062 125.254844 124.579062 125.254844 124.579062 
z
" clip-path="url(#p95227a41dc)" style="fill: #d9d9d9"/>
   </g>
   <g id="patch_23">
    <path d="M 125.254844 124.579062 
C 125.254844 124.579062 125.254844 124.579062 125.254844 124.579062 
C 125.254844 124.579062 125.254844 124.579062 125.254844 124.579062 
L 125.254844 124.579062 
C 125.254844 124.579062 125.254844 124.579062 125.254844 124.579062 
C 125.254844 124.579062 125.254844 124.579062 125.254844 124.579062 
z
" clip-path="url(#p95227a41dc)" style="fill: #d9d9d9"/>
   </g>
   <g id="patch_24">
    <path d="M 125.254844 124.579062 
C 125.254844 124.579062 125.254844 124.579062 125.254844 124.579062 
C 125.254844 124.579062 125.254844 124.579062 125.254844 124.579062 
L 98.969031 138.629122 
C 99.42891 139.489496 99.930754 140.326773 100.472751 141.137928 
C 101.014747 141.949083 101.596242 142.733138 102.215136 143.487262 
z
" clip-path="url(#p95227a41dc)" style="fill: #d9d9d9"/>
   </g>
   <g id="patch_25">
    <path d="M 125.254844 124.579062 
C 125.254844 124.579062 125.254844 124.579062 125.254844 124.579062 
C 125.254844 124.579062 125.254844 124.579062 125.254844 124.579062 
L 117.258956 127.004589 
C 117.338347 127.266306 117.43054 127.523968 117.535202 127.776643 
C 117.639863 128.029318 117.756867 128.276703 117.885791 128.517903 
z
" clip-path="url(#p95227a41dc)" style="fill: #d9d9d9"/>
   </g>
   <g id="patch_26">
    <path d="M 125.254844 124.579062 
C 125.254844 124.579062 125.254844 124.579062 125.254844 124.579062 
C 125.254844 124.579062 125.254844 124.579062 125.254844 124.579062 
L 125.254844 124.579062 
C 125.254844 124.579062 125.254844 124.579062 125.254844 124.579062 
C 125.254844 124.579062 125.254844 124.579062 125.254844 124.579062 
z
" clip-path="url(#p95227a41dc)" style="fill: #d9d9d9"/>
   </g>
   <g id="patch_27">
    <path d="M 125.254844 124.579062 
C 125.254844 124.579062 125.254844 124.579062 125.254844 124.579062 
C 125.254844 124.579062 125.254844 124.579062 125.254844 124.579062 
L 113.320799 123.403662 
C 113.282326 123.794281 113.263055 124.186553 113.263055 124.579062 
C 113.263055 124.971572 113.282326 125.363844 113.320799 125.754463 
z
" clip-path="url(#p95227a41dc)" style="fill: #d9d9d9"/>
   </g>
   <g id="patch_28">
    <path d="M 125.254844 124.579062 
C 125.254844 124.579062 125.254844 124.579062 125.254844 124.579062 
C 125.254844 124.579062 125.254844 124.579062 125.254844 124.579062 
L 125.254844 124.579062 
C 125.254844 124.579062 125.254844 124.579062 125.254844 124.579062 
C 125.254844 124.579062 125.254844 124.579062 125.254844 124.579062 
z
" clip-path="url(#p95227a41dc)" style="fill: #d9d9d9"/>
   </g>
   <g id="patch_29">
    <path d="M 125.254844 124.579062 
C 125.254844 124.579062 125.254844 124.579062 125.254844 124.579062 
C 125.254844 124.579062 125.254844 124.579062 125.254844 124.579062 
L 125.254844 124.579062 
C 125.254844 124.579062 125.254844 124.579062 125.254844 124.579062 
C 125.254844 124.579062 125.254844 124.579062 125.254844 124.579062 
z
" clip-path="url(#p95227a41dc)" style="fill: #d9d9d9"/>
   </g>
   <g id="patch_30">
    <path d="M 125.254844 124.579062 
C 125.254844 124.579062 125.254844 124.579062 125.254844 124.579062 
C 125.254844 124.579062 125.254844 124.579062 125.254844 124.579062 
L 125.254844 124.579062 
C 125.254844 124.579062 125.254844 124.579062 125.254844 124.579062 
C 125.254844 124.579062 125.254844 124.579062 125.254844 124.579062 
z
" clip-path="url(#p95227a41dc)" style="fill: #d9d9d9"/>
   </g>
   <g id="patch_31">
    <path d="M 125.254844 124.579062 
C 125.254844 124.579062 125.254844 124.579062 125.254844 124.579062 
C 125.254844 124.579062 125.254844 124.579062 125.254844 124.579062 
L 116.572491 113.999585 
C 116.226208 114.283771 115.894088 114.584788 115.577328 114.901547 
C 115.260569 115.218307 114.959552 115.550427 114.675366 115.896709 
z
" clip-path="url(#p95227a41dc)" style="fill: #d9d9d9"/>
   </g>
   <g id="patch_32">
    <path d="M 125.254844 124.579062 
C 125.254844 124.579062 125.254844 124.579062 125.254844 124.579062 
C 125.254844 124.579062 125.254844 124.579062 125.254844 124.579062 
L 125.254844 124.579062 
C 125.254844 124.579062 125.254844 124.579062 125.254844 124.579062 
C 125.254844 124.579062 125.254844 124.579062 125.254844 124.579062 
z
" clip-path="url(#p95227a41dc)" style="fill: #d9d9d9"/>
   </g>
   <g id="patch_33">
    <path d="M 125.254844 124.579062 
C 125.254844 124.579062 125.254844 124.579062 125.254844 124.579062 
C 125.254844 124.579062 125.254844 124.579062 125.254844 124.579062 
L 125.254844 124.579062 
C 125.254844 124.579062 125.254844 124.579062 125.254844 124.579062 
C 125.254844 124.579062 125.254844 124.579062 125.254844 124.579062 
z
" clip-path="url(#p95227a41dc)" style="fill: #d9d9d9"/>
   </g>
   <g id="patch_34">
    <path d="M 125.254844 124.579062 
C 125.254844 124.579062 125.254844 124.579062 125.254844 124.579062 
C 125.254844 124.579062 125.254844 124.579062 125.254844 124.579062 
L 125.254844 124.579062 
C 125.254844 124.579062 125.254844 124.579062 125.254844 124.579062 
C 125.254844 124.579062 125.254844 124.579062 125.254844 124.579062 
z
" clip-path="url(#p95227a41dc)" style="fill: #d9d9d9"/>
   </g>
   <g id="patch_35">
    <path d="M 125.254844 124.579062 
C 125.254844 124.579062 125.254844 124.579062 125.254844 124.579062 
C 125.254844 124.579062 125.254844 124.579062 125.254844 124.579062 
L 131.90749 57.033609 
C 129.696627 56.815858 127.476405 56.706786 125.254844 56.706786 
C 123.033283 56.706786 120.813061 56.815858 118.602197 57.033609 
z
" clip-path="url(#p95227a41dc)" style="fill: #a1a1d8"/>
   </g>
   <g id="patch_36">
    <path d="M 125.254844 124.579062 
C 125.254844 124.579062 125.254844 124.579062 125.254844 124.579062 
C 125.254844 124.579062 125.254844 124.579062 125.254844 124.579062 
L 142.800697 66.738136 
C 140.907477 66.163834 138.987202 65.68283 137.046807 65.296861 
C 135.106412 64.910892 133.148236 64.620425 131.179353 64.426507 
z
" clip-path="url(#p95227a41dc)" style="fill: #a1a1d8"/>
   </g>
   <g id="patch_37">
    <path d="M 125.254844 124.579062 
C 125.254844 124.579062 125.254844 124.579062 125.254844 124.579062 
C 125.254844 124.579062 125.254844 124.579062 125.254844 124.579062 
L 144.28987 88.967034 
C 143.124235 88.343989 141.928713 87.778549 140.707622 87.272757 
C 139.48653 86.766964 138.241342 86.321429 136.976555 85.93776 
z
" clip-path="url(#p95227a41dc)" style="fill: #a1a1d8"/>
   </g>
   <g id="patch_38">
    <path d="M 125.254844 124.579062 
C 125.254844 124.579062 125.254844 124.579062 125.254844 124.579062 
C 125.254844 124.579062 125.254844 124.579062 125.254844 124.579062 
L 142.84451 103.145992 
C 142.142974 102.570256 141.413593 102.02931 140.659003 101.525109 
C 139.904413 101.020908 139.125522 100.554059 138.325145 100.126249 
z
" clip-path="url(#p95227a41dc)" style="fill: #a1a1d8"/>
   </g>
   <g id="patch_39">
    <path d="M 125.254844 124.579062 
C 125.254844 124.579062 125.254844 124.579062 125.254844 124.579062 
C 125.254844 124.579062 125.254844 124.579062 125.254844 124.579062 
L 148.138625 105.798829 
C 147.52392 105.049809 146.87281 104.33142 146.187648 103.646258 
C 145.502486 102.961096 144.784098 102.309987 144.035077 101.695282 
z
" clip-path="url(#p95227a41dc)" style="fill: #a1a1d8"/>
   </g>
   <g id="patch_40">
    <path d="M 125.254844 124.579062 
C 125.254844 124.579062 125.254844 124.579062 125.254844 124.579062 
C 125.254844 124.579062 125.254844 124.579062 125.254844 124.579062 
L 147.113131 112.895564 
C 146.730713 112.18011 146.313398 111.483862 145.862695 110.809337 
C 145.411991 110.134811 144.928442 109.48282 144.413793 108.855719 
z
" clip-path="url(#p95227a41dc)" style="fill: #a1a1d8"/>
   </g>
   <g id="patch_41">
    <path d="M 125.254844 124.579062 
C 125.254844 124.579062 125.254844 124.579062 125.254844 124.579062 
C 125.254844 124.579062 125.254844 124.579062 125.254844 124.579062 
L 139.215644 120.3441 
C 139.077027 119.887142 138.916059 119.437265 138.73332 118.996095 
C 138.550581 118.554924 138.346292 118.122991 138.121191 117.701857 
z
" clip-path="url(#p95227a41dc)" style="fill: #a1a1d8"/>
   </g>
   <g id="patch_42">
    <path d="M 125.254844 124.579062 
C 125.254844 124.579062 125.254844 124.579062 125.254844 124.579062 
C 125.254844 124.579062 125.254844 124.579062 125.254844 124.579062 
L 137.696946 123.353622 
C 137.656835 122.946374 137.596754 122.54134 137.516919 122.139984 
C 137.437085 121.738628 137.337593 121.341434 137.218803 120.949835 
z
" clip-path="url(#p95227a41dc)" style="fill: #a1a1d8"/>
   </g>
   <g id="patch_43">
    <path d="M 125.254844 124.579062 
C 125.254844 124.579062 125.254844 124.579062 125.254844 124.579062 
C 125.254844 124.579062 125.254844 124.579062 125.254844 124.579062 
L 135.413777 125.57963 
C 135.446527 125.247113 135.462932 124.913188 135.462932 124.579062 
C 135.462932 124.244937 135.446527 123.911012 135.413777 123.578495 
z
" clip-path="url(#p95227a41dc)" style="fill: #a1a1d8"/>
   </g>
   <g id="patch_44">
    <path d="M 125.254844 124.579062 
C 125.254844 124.579062 125.254844 124.579062 125.254844 124.579062 
C 125.254844 124.579062 125.254844 124.579062 125.254844 124.579062 
L 143.666647 130.164222 
C 143.849458 129.561576 144.00257 128.950318 144.12543 128.332656 
C 144.248291 127.714993 144.340752 127.091671 144.40248 126.46494 
z
" clip-path="url(#p95227a41dc)" style="fill: #a1a1d8"/>
   </g>
   <g id="patch_45">
    <path d="M 125.254844 124.579062 
C 125.254844 124.579062 125.254844 124.579062 125.254844 124.579062 
C 125.254844 124.579062 125.254844 124.579062 125.254844 124.579062 
L 141.59052 133.310664 
C 141.876319 132.775972 142.135693 132.227572 142.367706 131.667442 
C 142.599719 131.107313 142.804092 130.53613 142.980086 129.955956 
z
" clip-path="url(#p95227a41dc)" style="fill: #a1a1d8"/>
   </g>
   <g id="patch_46">
    <path d="M 125.254844 124.579062 
C 125.254844 124.579062 125.254844 124.579062 125.254844 124.579062 
C 125.254844 124.579062 125.254844 124.579062 125.254844 124.579062 
L 143.000731 139.142736 
C 143.477422 138.561887 143.925308 137.957983 144.34277 137.333207 
C 144.760232 136.708431 145.146768 136.063535 145.500981 135.400848 
z
" clip-path="url(#p95227a41dc)" style="fill: #a1a1d8"/>
   </g>
   <g id="patch_47">
    <path d="M 125.254844 124.579062 
C 125.254844 124.579062 125.254844 124.579062 125.254844 124.579062 
C 125.254844 124.579062 125.254844 124.579062 125.254844 124.579062 
L 136.753062 138.589682 
C 137.211651 138.213328 137.651485 137.814686 138.070976 137.395195 
C 138.490467 136.975704 138.88911 136.535869 139.265463 136.077281 
z
" clip-path="url(#p95227a41dc)" style="fill: #a1a1d8"/>
   </g>
   <g id="patch_48">
    <path d="M 125.254844 124.579062 
C 125.254844 124.579062 125.254844 124.579062 125.254844 124.579062 
C 125.254844 124.579062 125.254844 124.579062 125.254844 124.579062 
L 129.531896 132.580864 
C 129.793807 132.44087 130.048687 132.288101 130.295614 132.123109 
C 130.542542 131.958117 130.781221 131.781101 131.010788 131.5927 
z
" clip-path="url(#p95227a41dc)" style="fill: #a1a1d8"/>
   </g>
   <g id="patch_49">
    <path d="M 125.254844 124.579062 
C 125.254844 124.579062 125.254844 124.579062 125.254844 124.579062 
C 125.254844 124.579062 125.254844 124.579062 125.254844 124.579062 
L 127.386532 131.606297 
C 127.616544 131.536524 127.842992 131.4555 128.065057 131.363517 
C 128.287122 131.271535 128.504538 131.168705 128.716518 131.055399 
z
" clip-path="url(#p95227a41dc)" style="fill: #a1a1d8"/>
   </g>
   <g id="patch_50">
    <path d="M 125.254844 124.579062 
C 125.254844 124.579062 125.254844 124.579062 125.254844 124.579062 
C 125.254844 124.579062 125.254844 124.579062 125.254844 124.579062 
L 125.254844 124.579062 
C 125.254844 124.579062 125.254844 124.579062 125.254844 124.579062 
C 125.254844 124.579062 125.254844 124.579062 125.254844 124.579062 
z
" clip-path="url(#p95227a41dc)" style="fill: #a1a1d8"/>
   </g>
   <g id="patch_51">
    <path d="M 125.254844 124.579062 
C 125.254844 124.579062 125.254844 124.579062 125.254844 124.579062 
C 125.254844 124.579062 125.254844 124.579062 125.254844 124.579062 
L 124.547336 131.762513 
C 124.782461 131.785671 125.018581 131.797271 125.254844 131.797271 
C 125.491106 131.797271 125.727227 131.785671 125.962352 131.762513 
z
" clip-path="url(#p95227a41dc)" style="fill: #a1a1d8"/>
   </g>
   <g id="patch_52">
    <path d="M 124.938436 127.791599 
C 124.833285 127.781243 124.728706 127.76573 124.625076 127.745117 
C 124.521447 127.724504 124.418892 127.698815 124.317781 127.668143 
L 122.705758 132.982271 
C 122.980808 133.065706 123.259788 133.135587 123.541691 133.191661 
C 123.823595 133.247735 124.108081 133.289935 124.394123 133.318108 
z
" clip-path="url(#p95227a41dc)" style="fill: #a1a1d8"/>
   </g>
   <g id="patch_53">
    <path d="M 125.254844 124.579062 
C 125.254844 124.579062 125.254844 124.579062 125.254844 124.579062 
C 125.254844 124.579062 125.254844 124.579062 125.254844 124.579062 
L 125.254844 124.579062 
C 125.254844 124.579062 125.254844 124.579062 125.254844 124.579062 
C 125.254844 124.579062 125.254844 124.579062 125.254844 124.579062 
z
" clip-path="url(#p95227a41dc)" style="fill: #a1a1d8"/>
   </g>
   <g id="patch_54">
    <path d="M 125.254844 124.579062 
C 125.254844 124.579062 125.254844 124.579062 125.254844 124.579062 
C 125.254844 124.579062 125.254844 124.579062 125.254844 124.579062 
L 125.254844 124.579062 
C 125.254844 124.579062 125.254844 124.579062 125.254844 124.579062 
C 125.254844 124.579062 125.254844 124.579062 125.254844 124.579062 
z
" clip-path="url(#p95227a41dc)" style="fill: #a1a1d8"/>
   </g>
   <g id="patch_55">
    <path d="M 125.254844 124.579062 
C 125.254844 124.579062 125.254844 124.579062 125.254844 124.579062 
C 125.254844 124.579062 125.254844 124.579062 125.254844 124.579062 
L 125.254844 124.579062 
C 125.254844 124.579062 125.254844 124.579062 125.254844 124.579062 
C 125.254844 124.579062 125.254844 124.579062 125.254844 124.579062 
z
" clip-path="url(#p95227a41dc)" style="fill: #a1a1d8"/>
   </g>
   <g id="patch_56">
    <path d="M 102.215136 143.487262 
C 101.596242 142.733138 101.014747 141.949083 100.472751 141.137928 
C 99.930754 140.326773 99.42891 139.489496 98.969031 138.629122 
L 98.969031 138.629122 
C 99.42891 139.489496 99.930754 140.326773 100.472751 141.137928 
C 101.014747 141.949083 101.596242 142.733138 102.215136 143.487262 
z
" clip-path="url(#p95227a41dc)" style="fill: #a1a1d8"/>
   </g>
   <g id="patch_57">
    <path d="M 117.885791 128.517903 
C 117.756867 128.276703 117.639863 128.029318 117.535202 127.776643 
C 117.43054 127.523968 117.338347 127.266306 117.258956 127.004589 
L 117.258956 127.004589 
C 117.338347 127.266306 117.43054 127.523968 117.535202 127.776643 
C 117.639863 128.029318 117.756867 128.276703 117.885791 128.517903 
z
" clip-path="url(#p95227a41dc)" style="fill: #a1a1d8"/>
   </g>
   <g id="patch_58">
    <path d="M 125.254844 124.579062 
C 125.254844 124.579062 125.254844 124.579062 125.254844 124.579062 
C 125.254844 124.579062 125.254844 124.579062 125.254844 124.579062 
L 125.254844 124.579062 
C 125.254844 124.579062 125.254844 124.579062 125.254844 124.579062 
C 125.254844 124.579062 125.254844 124.579062 125.254844 124.579062 
z
" clip-path="url(#p95227a41dc)" style="fill: #a1a1d8"/>
   </g>
   <g id="patch_59">
    <path d="M 113.320799 125.754463 
C 113.282326 125.363844 113.263055 124.971572 113.263055 124.579062 
C 113.263055 124.186553 113.282326 123.794281 113.320799 123.403662 
L 105.412389 122.624751 
C 105.348422 123.274224 105.31638 123.926447 105.31638 124.579062 
C 105.31638 125.231678 105.348422 125.883901 105.412389 126.533374 
z
" clip-path="url(#p95227a41dc)" style="fill: #a1a1d8"/>
   </g>
   <g id="patch_60">
    <path d="M 125.254844 124.579062 
C 125.254844 124.579062 125.254844 124.579062 125.254844 124.579062 
C 125.254844 124.579062 125.254844 124.579062 125.254844 124.579062 
L 100.045219 116.931806 
C 99.794912 117.756955 99.58527 118.593896 99.417048 119.439605 
C 99.248825 120.285315 99.122227 121.138774 99.037709 121.9969 
z
" clip-path="url(#p95227a41dc)" style="fill: #a1a1d8"/>
   </g>
   <g id="patch_61">
    <path d="M 125.254844 124.579062 
C 125.254844 124.579062 125.254844 124.579062 125.254844 124.579062 
C 125.254844 124.579062 125.254844 124.579062 125.254844 124.579062 
L 89.668427 105.557726 
C 89.04583 106.722523 88.480797 107.917185 87.975368 109.137398 
C 87.46994 110.357611 87.024725 111.601904 86.641332 112.865782 
z
" clip-path="url(#p95227a41dc)" style="fill: #a1a1d8"/>
   </g>
   <g id="patch_62">
    <path d="M 125.254844 124.579062 
C 125.254844 124.579062 125.254844 124.579062 125.254844 124.579062 
C 125.254844 124.579062 125.254844 124.579062 125.254844 124.579062 
L 102.303138 105.743084 
C 101.686608 106.494328 101.107334 107.275389 100.567408 108.083445 
C 100.027482 108.891502 99.527554 109.72558 99.069431 110.582668 
z
" clip-path="url(#p95227a41dc)" style="fill: #a1a1d8"/>
   </g>
   <g id="patch_63">
    <path d="M 114.675366 115.896709 
C 114.959552 115.550427 115.260569 115.218307 115.577328 114.901547 
C 115.894088 114.584788 116.226208 114.283771 116.572491 113.999585 
L 106.900943 102.21477 
C 106.168926 102.81552 105.466846 103.451849 104.797238 104.121457 
C 104.12763 104.791065 103.491301 105.493145 102.890551 106.225162 
z
" clip-path="url(#p95227a41dc)" style="fill: #a1a1d8"/>
   </g>
   <g id="patch_64">
    <path d="M 125.254844 124.579062 
C 125.254844 124.579062 125.254844 124.579062 125.254844 124.579062 
C 125.254844 124.579062 125.254844 124.579062 125.254844 124.579062 
L 103.125908 83.178737 
C 101.770814 83.90305 100.452098 84.693458 99.174524 85.547105 
C 97.89695 86.400753 96.662057 87.316612 95.474307 88.291373 
z
" clip-path="url(#p95227a41dc)" style="fill: #a1a1d8"/>
   </g>
   <g id="patch_65">
    <path d="M 125.254844 124.579062 
C 125.254844 124.579062 125.254844 124.579062 125.254844 124.579062 
C 125.254844 124.579062 125.254844 124.579062 125.254844 124.579062 
L 113.369471 85.398239 
C 112.087024 85.787265 110.82445 86.239022 109.58631 86.751876 
C 108.34817 87.264731 107.135956 87.838065 105.954046 88.469809 
z
" clip-path="url(#p95227a41dc)" style="fill: #a1a1d8"/>
   </g>
   <g id="patch_66">
    <path d="M 125.254844 124.579062 
C 125.254844 124.579062 125.254844 124.579062 125.254844 124.579062 
C 125.254844 124.579062 125.254844 124.579062 125.254844 124.579062 
L 119.257903 63.691106 
C 117.26495 63.887394 115.282834 64.181413 113.318717 64.572101 
C 111.354599 64.962788 109.410847 65.449672 107.494482 66.030996 
z
" clip-path="url(#p95227a41dc)" style="fill: #a1a1d8"/>
   </g>
   <g id="patch_67">
    <path d="M 118.602197 57.033609 
C 120.813061 56.815858 123.033283 56.706786 125.254844 56.706786 
C 127.476405 56.706786 129.696627 56.815858 131.90749 57.033609 
L 134.111281 34.65815 
C 131.168035 34.368266 128.212331 34.223062 125.254844 34.223062 
C 122.297357 34.223062 119.341653 34.368266 116.398407 34.65815 
z
" clip-path="url(#p95227a41dc)" style="fill: #ff8c8e"/>
   </g>
   <g id="patch_68">
    <path d="M 131.179353 64.426507 
C 133.148236 64.620425 135.106412 64.910892 137.046807 65.296861 
C 138.987202 65.68283 140.907477 66.163834 142.800697 66.738136 
L 152.276953 35.499106 
C 149.361233 34.614632 146.403845 33.873845 143.415472 33.279421 
C 140.427098 32.684996 137.411341 32.237651 134.379093 31.939001 
z
" clip-path="url(#p95227a41dc)" style="fill: #ff8c8e"/>
   </g>
   <g id="patch_69">
    <path d="M 136.976555 85.93776 
C 138.241342 86.321429 139.48653 86.766964 140.707622 87.272757 
C 141.928713 87.778549 143.124235 88.343989 144.28987 88.967034 
L 160.062536 59.45845 
C 157.931041 58.319143 155.744894 57.285172 153.511991 56.360274 
C 151.279089 55.435375 149.002122 54.620663 146.689315 53.919081 
z
" clip-path="url(#p95227a41dc)" style="fill: #ff8c8e"/>
   </g>
   <g id="patch_70">
    <path d="M 138.325145 100.126249 
C 139.125522 100.554059 139.904413 101.020908 140.659003 101.525109 
C 141.413593 102.02931 142.142974 102.570256 142.84451 103.145992 
L 168.523882 71.855586 
C 166.798164 70.439326 165.003952 69.108647 163.147726 67.868357 
C 161.2915 66.628066 159.375498 65.479659 157.40664 64.427282 
z
" clip-path="url(#p95227a41dc)" style="fill: #ff8c8e"/>
   </g>
   <g id="patch_71">
    <path d="M 144.035077 101.695282 
C 144.784098 102.309987 145.502486 102.961096 146.187648 103.646258 
C 146.87281 104.33142 147.52392 105.049809 148.138625 105.798829 
L 183.998779 76.36916 
C 182.420797 74.446384 180.749363 72.60224 178.990515 70.843392 
C 177.231666 69.084543 175.387523 67.413109 173.464746 65.835127 
z
" clip-path="url(#p95227a41dc)" style="fill: #ff8c8e"/>
   </g>
   <g id="patch_72">
    <path d="M 144.413793 108.855719 
C 144.928442 109.48282 145.411991 110.134811 145.862695 110.809337 
C 146.313398 111.483862 146.730713 112.18011 147.113131 112.895564 
L 170.607073 100.337791 
C 169.81362 98.853345 168.947763 97.40875 168.012629 96.009224 
C 167.077496 94.609698 166.074213 93.256927 165.006405 91.955799 
z
" clip-path="url(#p95227a41dc)" style="fill: #ff8c8e"/>
   </g>
   <g id="patch_73">
    <path d="M 138.121191 117.701857 
C 138.346292 118.122991 138.550581 118.554924 138.73332 118.996095 
C 138.916059 119.437265 139.077027 119.887142 139.215644 120.3441 
L 171.231847 110.632091 
C 170.775342 109.127195 170.245225 107.645619 169.643413 106.192715 
C 169.0416 104.739811 168.368817 103.31733 167.627492 101.93041 
z
" clip-path="url(#p95227a41dc)" style="fill: #ff8c8e"/>
   </g>
   <g id="patch_74">
    <path d="M 137.218803 120.949835 
C 137.337593 121.341434 137.437085 121.738628 137.516919 122.139984 
C 137.596754 122.54134 137.656835 122.946374 137.696946 123.353622 
L 151.120255 122.031542 
C 151.036871 121.184928 150.91197 120.342919 150.746005 119.508555 
C 150.58004 118.674191 150.37321 117.848479 150.126262 117.0344 
z
" clip-path="url(#p95227a41dc)" style="fill: #ff8c8e"/>
   </g>
   <g id="patch_75">
    <path d="M 135.413777 123.578495 
C 135.446527 123.911012 135.462932 124.244937 135.462932 124.579062 
C 135.462932 124.913188 135.446527 125.247113 135.413777 125.57963 
L 146.123974 126.634492 
C 146.191251 125.951415 146.224951 125.265445 146.224951 124.579062 
C 146.224951 123.89268 146.191251 123.20671 146.123974 122.523633 
z
" clip-path="url(#p95227a41dc)" style="fill: #ff8c8e"/>
   </g>
   <g id="patch_76">
    <path d="M 144.40248 126.46494 
C 144.340752 127.091671 144.248291 127.714993 144.12543 128.332656 
C 144.00257 128.950318 143.849458 129.561576 143.666647 130.164222 
L 145.268417 130.650114 
C 145.467131 129.995039 145.633564 129.330604 145.767113 128.659207 
C 145.900662 127.987809 146.001167 127.31026 146.068265 126.629006 
z
" clip-path="url(#p95227a41dc)" style="fill: #ff8c8e"/>
   </g>
   <g id="patch_77">
    <path d="M 142.980086 129.955956 
C 142.804092 130.53613 142.599719 131.107313 142.367706 131.667442 
C 142.135693 132.227572 141.876319 132.775972 141.59052 133.310664 
L 144.187352 134.698699 
C 144.518583 134.07901 144.819189 133.443431 145.088085 132.79426 
C 145.35698 132.145088 145.593841 131.483106 145.797812 130.810704 
z
" clip-path="url(#p95227a41dc)" style="fill: #ff8c8e"/>
   </g>
   <g id="patch_78">
    <path d="M 145.500981 135.400848 
C 145.146768 136.063535 144.760232 136.708431 144.34277 137.333207 
C 143.925308 137.957983 143.477422 138.561887 143.000731 139.142736 
L 145.461708 141.162408 
C 146.004506 140.501007 146.514504 139.813355 146.989859 139.101935 
C 147.465214 138.390516 147.905354 137.656186 148.308689 136.9016 
z
" clip-path="url(#p95227a41dc)" style="fill: #ff8c8e"/>
   </g>
   <g id="patch_79">
    <path d="M 139.265463 136.077281 
C 138.88911 136.535869 138.490467 136.975704 138.070976 137.395195 
C 137.651485 137.814686 137.211651 138.213328 136.753062 138.589682 
L 139.721004 142.20613 
C 140.297964 141.732631 140.851329 141.23109 141.3791 140.703319 
C 141.906871 140.175548 142.408412 139.622183 142.881911 139.045223 
z
" clip-path="url(#p95227a41dc)" style="fill: #ff8c8e"/>
   </g>
   <g id="patch_80">
    <path d="M 131.010788 131.5927 
C 130.781221 131.781101 130.542542 131.958117 130.295614 132.123109 
C 130.048687 132.288101 129.793807 132.44087 129.531896 132.580864 
L 132.089832 137.366426 
C 132.508381 137.142706 132.915695 136.898572 133.3103 136.634905 
C 133.704906 136.371238 134.086329 136.088356 134.45319 135.78728 
z
" clip-path="url(#p95227a41dc)" style="fill: #ff8c8e"/>
   </g>
   <g id="patch_81">
    <path d="M 128.716518 131.055399 
C 128.504538 131.168705 128.287122 131.271535 128.065057 131.363517 
C 127.842992 131.4555 127.616544 131.536524 127.386532 131.606297 
L 130.782718 142.802022 
C 131.379183 142.621086 131.966404 142.410975 132.542262 142.172447 
C 133.11812 141.933919 133.68192 141.667262 134.231625 141.373438 
z
" clip-path="url(#p95227a41dc)" style="fill: #ff8c8e"/>
   </g>
   <g id="patch_82">
    <path d="M 125.254844 124.579062 
C 125.254844 124.579062 125.254844 124.579062 125.254844 124.579062 
C 125.254844 124.579062 125.254844 124.579062 125.254844 124.579062 
L 127.291927 145.261913 
C 127.968907 145.195236 128.642206 145.095362 129.309391 144.96265 
C 129.976577 144.829939 130.636844 144.66455 131.287809 144.467082 
z
" clip-path="url(#p95227a41dc)" style="fill: #ff8c8e"/>
   </g>
   <g id="patch_83">
    <path d="M 125.962352 131.762513 
C 125.727227 131.785671 125.491106 131.797271 125.254844 131.797271 
C 125.018581 131.797271 124.782461 131.785671 124.547336 131.762513 
L 121.440856 163.303127 
C 122.708353 163.427965 123.981214 163.490497 125.254844 163.490497 
C 126.528473 163.490497 127.801335 163.427965 129.068831 163.303127 
z
" clip-path="url(#p95227a41dc)" style="fill: #ff8c8e"/>
   </g>
   <g id="patch_84">
    <path d="M 124.394123 133.318108 
C 124.108081 133.289935 123.823595 133.247735 123.541691 133.191661 
C 123.259788 133.135587 122.980808 133.065706 122.705758 132.982271 
L 109.527262 176.425952 
C 111.224288 176.940739 112.945566 177.371897 114.684878 177.717868 
C 116.424191 178.063838 118.179441 178.324205 119.944289 178.498028 
z
" clip-path="url(#p95227a41dc)" style="fill: #ff8c8e"/>
   </g>
   <g id="patch_85">
    <path d="M 125.254844 124.579062 
C 125.254844 124.579062 125.254844 124.579062 125.254844 124.579062 
C 125.254844 124.579062 125.254844 124.579062 125.254844 124.579062 
L 93.967205 183.114117 
C 95.883145 184.138209 97.84821 185.067615 99.855302 185.89898 
C 101.862395 186.730345 103.909095 187.462666 105.988011 188.093298 
z
" clip-path="url(#p95227a41dc)" style="fill: #ff8c8e"/>
   </g>
   <g id="patch_86">
    <path d="M 125.254844 124.579062 
C 125.254844 124.579062 125.254844 124.579062 125.254844 124.579062 
C 125.254844 124.579062 125.254844 124.579062 125.254844 124.579062 
L 94.716464 161.790186 
C 95.93444 162.789752 97.200757 163.728917 98.510843 164.604288 
C 99.820928 165.47966 101.173202 166.290181 102.562781 167.032927 
z
" clip-path="url(#p95227a41dc)" style="fill: #ff8c8e"/>
   </g>
   <g id="patch_87">
    <path d="M 125.254844 124.579062 
C 125.254844 124.579062 125.254844 124.579062 125.254844 124.579062 
C 125.254844 124.579062 125.254844 124.579062 125.254844 124.579062 
L 85.311856 157.359426 
C 86.384806 158.666819 87.521299 159.920746 88.71723 161.116677 
C 89.91316 162.312607 91.167087 163.4491 92.474481 164.52205 
z
" clip-path="url(#p95227a41dc)" style="fill: #ff8c8e"/>
   </g>
   <g id="patch_88">
    <path d="M 102.215136 143.487262 
C 101.596242 142.733138 101.014747 141.949083 100.472751 141.137928 
C 99.930754 140.326773 99.42891 139.489496 98.969031 138.629122 
L 72.350875 152.856823 
C 73.276449 154.588449 74.286482 156.273588 75.377327 157.906153 
C 76.468173 159.538719 77.638515 161.116743 78.884128 162.634526 
z
" clip-path="url(#p95227a41dc)" style="fill: #ff8c8e"/>
   </g>
   <g id="patch_89">
    <path d="M 117.885791 128.517903 
C 117.756867 128.276703 117.639863 128.029318 117.535202 127.776643 
C 117.43054 127.523968 117.338347 127.266306 117.258956 127.004589 
L 74.975368 139.831175 
C 75.474593 141.476897 76.054317 143.097117 76.712446 144.685982 
C 77.370576 146.274847 78.106317 147.830442 78.917014 149.347149 
z
" clip-path="url(#p95227a41dc)" style="fill: #ff8c8e"/>
   </g>
   <g id="patch_90">
    <path d="M 125.254844 124.579062 
C 125.254844 124.579062 125.254844 124.579062 125.254844 124.579062 
C 125.254844 124.579062 125.254844 124.579062 125.254844 124.579062 
L 68.907094 130.128831 
C 69.088746 131.973177 69.360841 133.807493 69.722396 135.625153 
C 70.083951 137.442813 70.534531 139.241626 71.072506 141.015095 
z
" clip-path="url(#p95227a41dc)" style="fill: #ff8c8e"/>
   </g>
   <g id="patch_91">
    <path d="M 105.412389 126.533374 
C 105.348422 125.883901 105.31638 125.231678 105.31638 124.579062 
C 105.31638 123.926447 105.348422 123.274224 105.412389 122.624751 
L 62.05068 118.353996 
C 61.846924 120.422762 61.744862 122.500286 61.744862 124.579062 
C 61.744862 126.657839 61.846924 128.735363 62.05068 130.804129 
z
" clip-path="url(#p95227a41dc)" style="fill: #ff8c8e"/>
   </g>
   <g id="patch_92">
    <path d="M 99.037709 121.9969 
C 99.122227 121.138774 99.248825 120.285315 99.417048 119.439605 
C 99.58527 118.593896 99.794912 117.756955 100.045219 116.931806 
L 38.978748 98.407495 
C 38.122114 101.23144 37.404644 104.095742 36.828929 106.990054 
C 36.253215 109.884367 35.81995 112.8052 35.5307 115.742006 
z
" clip-path="url(#p95227a41dc)" style="fill: #ff8c8e"/>
   </g>
   <g id="patch_93">
    <path d="M 86.641332 112.865782 
C 87.024725 111.601904 87.46994 110.357611 87.975368 109.137398 
C 88.480797 107.917185 89.04583 106.722523 89.668427 105.557726 
L 39.646026 78.820196 
C 38.14827 81.6223 36.788992 84.496252 35.573102 87.431669 
C 34.357212 90.367086 33.286177 93.360431 32.363863 96.400892 
z
" clip-path="url(#p95227a41dc)" style="fill: #ff8c8e"/>
   </g>
   <g id="patch_94">
    <path d="M 99.069431 110.582668 
C 99.527554 109.72558 100.027482 108.891502 100.567408 108.083445 
C 101.107334 107.275389 101.686608 106.494328 102.303138 105.743084 
L 45.589368 59.199296 
C 43.44939 61.806866 41.438727 64.517931 39.564641 67.3227 
C 37.690555 70.127468 35.955305 73.022558 34.365158 75.997513 
z
" clip-path="url(#p95227a41dc)" style="fill: #ff8c8e"/>
   </g>
   <g id="patch_95">
    <path d="M 102.890551 106.225162 
C 103.491301 105.493145 104.12763 104.791065 104.797238 104.121457 
C 105.466846 103.451849 106.168926 102.81552 106.900943 102.21477 
L 69.550444 56.703055 
C 67.328761 58.526343 65.197935 60.457611 63.165663 62.489882 
C 61.133392 64.522154 59.202124 66.652979 57.378836 68.874662 
z
" clip-path="url(#p95227a41dc)" style="fill: #ff8c8e"/>
   </g>
   <g id="patch_96">
    <path d="M 95.474307 88.291373 
C 96.662057 87.316612 97.89695 86.400753 99.174524 85.547105 
C 100.452098 84.693458 101.770814 83.90305 103.125908 83.178737 
L 85.32997 49.884878 
C 82.885118 51.191679 80.5059 52.617727 78.200909 54.157873 
C 75.895919 55.698019 73.667934 57.350404 71.525003 59.109062 
z
" clip-path="url(#p95227a41dc)" style="fill: #ff8c8e"/>
   </g>
   <g id="patch_97">
    <path d="M 105.954046 88.469809 
C 107.135956 87.838065 108.34817 87.264731 109.58631 86.751876 
C 110.82445 86.239022 112.087024 85.787265 113.369471 85.398239 
L 93.068078 18.473517 
C 89.595085 19.527037 86.175911 20.750438 82.822904 22.139298 
C 79.469898 23.528159 76.187101 25.080806 72.986373 26.791631 
z
" clip-path="url(#p95227a41dc)" style="fill: #ff8c8e"/>
   </g>
   <g id="patch_98">
    <path d="M 107.494482 66.030996 
C 109.410847 65.449672 111.354599 64.962788 113.318717 64.572101 
C 115.282834 64.181413 117.26495 63.887394 119.257903 63.691106 
L 114.584716 16.243433 
C 111.038729 16.592682 107.512026 17.115819 104.017346 17.810954 
C 100.522667 18.506089 97.064223 19.372384 93.654506 20.40671 
z
" clip-path="url(#p95227a41dc)" style="fill: #ff8c8e"/>
   </g>
   <g id="patch_99">
    <path d="M 116.398407 34.65815 
C 119.341653 34.368266 122.297357 34.223062 125.254844 34.223062 
C 128.212331 34.223062 131.168035 34.368266 134.111281 34.65815 
L 134.111281 34.65815 
C 131.168035 34.368266 128.212331 34.223062 125.254844 34.223062 
C 122.297357 34.223062 119.341653 34.368266 116.398407 34.65815 
z
" clip-path="url(#p95227a41dc)" style="fill: #828282"/>
   </g>
   <g id="patch_100">
    <path d="M 134.379093 31.939001 
C 137.411341 32.237651 140.427098 32.684996 143.415472 33.279421 
C 146.403845 33.873845 149.361233 34.614632 152.276953 35.499106 
L 152.276953 35.499106 
C 149.361233 34.614632 146.403845 33.873845 143.415472 33.279421 
C 140.427098 32.684996 137.411341 32.237651 134.379093 31.939001 
z
" clip-path="url(#p95227a41dc)" style="fill: #828282"/>
   </g>
   <g id="patch_101">
    <path d="M 146.689315 53.919081 
C 149.002122 54.620663 151.279089 55.435375 153.511991 56.360274 
C 155.744894 57.285172 157.931041 58.319143 160.062536 59.45845 
L 160.062536 59.45845 
C 157.931041 58.319143 155.744894 57.285172 153.511991 56.360274 
C 151.279089 55.435375 149.002122 54.620663 146.689315 53.919081 
z
" clip-path="url(#p95227a41dc)" style="fill: #828282"/>
   </g>
   <g id="patch_102">
    <path d="M 157.40664 64.427282 
C 159.375498 65.479659 161.2915 66.628066 163.147726 67.868357 
C 165.003952 69.108647 166.798164 70.439326 168.523882 71.855586 
L 168.523882 71.855586 
C 166.798164 70.439326 165.003952 69.108647 163.147726 67.868357 
C 161.2915 66.628066 159.375498 65.479659 157.40664 64.427282 
z
" clip-path="url(#p95227a41dc)" style="fill: #828282"/>
   </g>
   <g id="patch_103">
    <path d="M 173.464746 65.835127 
C 175.387523 67.413109 177.231666 69.084543 178.990515 70.843392 
C 180.749363 72.60224 182.420797 74.446384 183.998779 76.36916 
L 183.998779 76.36916 
C 182.420797 74.446384 180.749363 72.60224 178.990515 70.843392 
C 177.231666 69.084543 175.387523 67.413109 173.464746 65.835127 
z
" clip-path="url(#p95227a41dc)" style="fill: #828282"/>
   </g>
   <g id="patch_104">
    <path d="M 165.006405 91.955799 
C 166.074213 93.256927 167.077496 94.609698 168.012629 96.009224 
C 168.947763 97.40875 169.81362 98.853345 170.607073 100.337791 
L 172.78849 99.171799 
C 171.956872 97.615952 171.049368 96.101873 170.069255 94.63503 
C 169.089142 93.168187 168.037602 91.75035 166.918433 90.386638 
z
" clip-path="url(#p95227a41dc)" style="fill: #828282"/>
   </g>
   <g id="patch_105">
    <path d="M 167.627492 101.93041 
C 168.368817 103.31733 169.0416 104.739811 169.643413 106.192715 
C 170.245225 107.645619 170.775342 109.127195 171.231847 110.632091 
L 176.968125 108.89201 
C 176.454665 107.199357 175.858409 105.532934 175.181512 103.898759 
C 174.504615 102.264585 173.747892 100.664629 172.914077 99.104672 
z
" clip-path="url(#p95227a41dc)" style="fill: #828282"/>
   </g>
   <g id="patch_106">
    <path d="M 150.126262 117.0344 
C 150.37321 117.848479 150.58004 118.674191 150.746005 119.508555 
C 150.91197 120.342919 151.036871 121.184928 151.120255 122.031542 
L 174.559698 119.722958 
C 174.40075 118.109137 174.162664 116.504092 173.8463 114.913621 
C 173.529936 113.32315 173.135674 111.74917 172.66494 110.197367 
z
" clip-path="url(#p95227a41dc)" style="fill: #828282"/>
   </g>
   <g id="patch_107">
    <path d="M 146.123974 122.523633 
C 146.191251 123.20671 146.224951 123.89268 146.224951 124.579062 
C 146.224951 125.265445 146.191251 125.951415 146.123974 126.634492 
L 152.932112 127.305036 
C 153.021338 126.399117 153.066031 125.489364 153.066031 124.579062 
C 153.066031 123.668761 153.021338 122.759008 152.932112 121.853089 
z
" clip-path="url(#p95227a41dc)" style="fill: #828282"/>
   </g>
   <g id="patch_108">
    <path d="M 146.068265 126.629006 
C 146.001167 127.31026 145.900662 127.987809 145.767113 128.659207 
C 145.633564 129.330604 145.467131 129.995039 145.268417 130.650114 
L 145.268417 130.650114 
C 145.467131 129.995039 145.633564 129.330604 145.767113 128.659207 
C 145.900662 127.987809 146.001167 127.31026 146.068265 126.629006 
z
" clip-path="url(#p95227a41dc)" style="fill: #828282"/>
   </g>
   <g id="patch_109">
    <path d="M 145.797812 130.810704 
C 145.593841 131.483106 145.35698 132.145088 145.088085 132.79426 
C 144.819189 133.443431 144.518583 134.07901 144.187352 134.698699 
L 147.621692 136.534392 
C 148.013007 135.802291 148.368143 135.05142 148.685816 134.284489 
C 149.003489 133.517558 149.283317 132.735493 149.524288 131.941118 
z
" clip-path="url(#p95227a41dc)" style="fill: #828282"/>
   </g>
   <g id="patch_110">
    <path d="M 148.308689 136.9016 
C 147.905354 137.656186 147.465214 138.390516 146.989859 139.101935 
C 146.514504 139.813355 146.004506 140.501007 145.461708 141.162408 
L 145.461708 141.162408 
C 146.004506 140.501007 146.514504 139.813355 146.989859 139.101935 
C 147.465214 138.390516 147.905354 137.656186 148.308689 136.9016 
z
" clip-path="url(#p95227a41dc)" style="fill: #828282"/>
   </g>
   <g id="patch_111">
    <path d="M 142.881911 139.045223 
C 142.408412 139.622183 141.906871 140.175548 141.3791 140.703319 
C 140.851329 141.23109 140.297964 141.732631 139.721004 142.20613 
L 139.721004 142.20613 
C 140.297964 141.732631 140.851329 141.23109 141.3791 140.703319 
C 141.906871 140.175548 142.408412 139.622183 142.881911 139.045223 
z
" clip-path="url(#p95227a41dc)" style="fill: #828282"/>
   </g>
   <g id="patch_112">
    <path d="M 134.45319 135.78728 
C 134.086329 136.088356 133.704906 136.371238 133.3103 136.634905 
C 132.915695 136.898572 132.508381 137.142706 132.089832 137.366426 
L 132.089832 137.366426 
C 132.508381 137.142706 132.915695 136.898572 133.3103 136.634905 
C 133.704906 136.371238 134.086329 136.088356 134.45319 135.78728 
z
" clip-path="url(#p95227a41dc)" style="fill: #828282"/>
   </g>
   <g id="patch_113">
    <path d="M 134.231625 141.373438 
C 133.68192 141.667262 133.11812 141.933919 132.542262 142.172447 
C 131.966404 142.410975 131.379183 142.621086 130.782718 142.802022 
L 130.782718 142.802022 
C 131.379183 142.621086 131.966404 142.410975 132.542262 142.172447 
C 133.11812 141.933919 133.68192 141.667262 134.231625 141.373438 
z
" clip-path="url(#p95227a41dc)" style="fill: #828282"/>
   </g>
   <g id="patch_114">
    <path d="M 131.287809 144.467082 
C 130.636844 144.66455 129.976577 144.829939 129.309391 144.96265 
C 128.642206 145.095362 127.968907 145.195236 127.291927 145.261913 
L 127.291927 145.261913 
C 127.968907 145.195236 128.642206 145.095362 129.309391 144.96265 
C 129.976577 144.829939 130.636844 144.66455 131.287809 144.467082 
z
" clip-path="url(#p95227a41dc)" style="fill: #828282"/>
   </g>
   <g id="patch_115">
    <path d="M 129.068831 163.303127 
C 127.801335 163.427965 126.528473 163.490497 125.254844 163.490497 
C 123.981214 163.490497 122.708353 163.427965 121.440856 163.303127 
L 121.440856 163.303127 
C 122.708353 163.427965 123.981214 163.490497 125.254844 163.490497 
C 126.528473 163.490497 127.801335 163.427965 129.068831 163.303127 
z
" clip-path="url(#p95227a41dc)" style="fill: #828282"/>
   </g>
   <g id="patch_116">
    <path d="M 119.944289 178.498028 
C 118.179441 178.324205 116.424191 178.063838 114.684878 177.717868 
C 112.945566 177.371897 111.224288 176.940739 109.527262 176.425952 
L 109.527262 176.425952 
C 111.224288 176.940739 112.945566 177.371897 114.684878 177.717868 
C 116.424191 178.063838 118.179441 178.324205 119.944289 178.498028 
z
" clip-path="url(#p95227a41dc)" style="fill: #828282"/>
   </g>
   <g id="patch_117">
    <path d="M 105.988011 188.093298 
C 103.909095 187.462666 101.862395 186.730345 99.855302 185.89898 
C 97.84821 185.067615 95.883145 184.138209 93.967205 183.114117 
L 93.967205 183.114117 
C 95.883145 184.138209 97.84821 185.067615 99.855302 185.89898 
C 101.862395 186.730345 103.909095 187.462666 105.988011 188.093298 
z
" clip-path="url(#p95227a41dc)" style="fill: #828282"/>
   </g>
   <g id="patch_118">
    <path d="M 102.562781 167.032927 
C 101.173202 166.290181 99.820928 165.47966 98.510843 164.604288 
C 97.200757 163.728917 95.93444 162.789752 94.716464 161.790186 
L 94.716464 161.790186 
C 95.93444 162.789752 97.200757 163.728917 98.510843 164.604288 
C 99.820928 165.47966 101.173202 166.290181 102.562781 167.032927 
z
" clip-path="url(#p95227a41dc)" style="fill: #828282"/>
   </g>
   <g id="patch_119">
    <path d="M 92.474481 164.52205 
C 91.167087 163.4491 89.91316 162.312607 88.71723 161.116677 
C 87.521299 159.920746 86.384806 158.666819 85.311856 157.359426 
L 85.311856 157.359426 
C 86.384806 158.666819 87.521299 159.920746 88.71723 161.116677 
C 89.91316 162.312607 91.167087 163.4491 92.474481 164.52205 
z
" clip-path="url(#p95227a41dc)" style="fill: #828282"/>
   </g>
   <g id="patch_120">
    <path d="M 78.884128 162.634526 
C 77.638515 161.116743 76.468173 159.538719 75.377327 157.906153 
C 74.286482 156.273588 73.276449 154.588449 72.350875 152.856823 
L 72.350875 152.856823 
C 73.276449 154.588449 74.286482 156.273588 75.377327 157.906153 
C 76.468173 159.538719 77.638515 161.116743 78.884128 162.634526 
z
" clip-path="url(#p95227a41dc)" style="fill: #828282"/>
   </g>
   <g id="patch_121">
    <path d="M 78.917014 149.347149 
C 78.106317 147.830442 77.370576 146.274847 76.712446 144.685982 
C 76.054317 143.097117 75.474593 141.476897 74.975368 139.831175 
L 74.975368 139.831175 
C 75.474593 141.476897 76.054317 143.097117 76.712446 144.685982 
C 77.370576 146.274847 78.106317 147.830442 78.917014 149.347149 
z
" clip-path="url(#p95227a41dc)" style="fill: #828282"/>
   </g>
   <g id="patch_122">
    <path d="M 71.072506 141.015095 
C 70.534531 139.241626 70.083951 137.442813 69.722396 135.625153 
C 69.360841 133.807493 69.088746 131.973177 68.907094 130.128831 
L 68.907094 130.128831 
C 69.088746 131.973177 69.360841 133.807493 69.722396 135.625153 
C 70.083951 137.442813 70.534531 139.241626 71.072506 141.015095 
z
" clip-path="url(#p95227a41dc)" style="fill: #828282"/>
   </g>
   <g id="patch_123">
    <path d="M 62.05068 130.804129 
C 61.846924 128.735363 61.744862 126.657839 61.744862 124.579062 
C 61.744862 122.500286 61.846924 120.422762 62.05068 118.353996 
L 62.05068 118.353996 
C 61.846924 120.422762 61.744862 122.500286 61.744862 124.579062 
C 61.744862 126.657839 61.846924 128.735363 62.05068 130.804129 
z
" clip-path="url(#p95227a41dc)" style="fill: #828282"/>
   </g>
   <g id="patch_124">
    <path d="M 35.5307 115.742006 
C 35.81995 112.8052 36.253215 109.884367 36.828929 106.990054 
C 37.404644 104.095742 38.122114 101.23144 38.978748 98.407495 
L 38.978748 98.407495 
C 38.122114 101.23144 37.404644 104.095742 36.828929 106.990054 
C 36.253215 109.884367 35.81995 112.8052 35.5307 115.742006 
z
" clip-path="url(#p95227a41dc)" style="fill: #828282"/>
   </g>
   <g id="patch_125">
    <path d="M 32.363863 96.400892 
C 33.286177 93.360431 34.357212 90.367086 35.573102 87.431669 
C 36.788992 84.496252 38.14827 81.6223 39.646026 78.820196 
L 39.646026 78.820196 
C 38.14827 81.6223 36.788992 84.496252 35.573102 87.431669 
C 34.357212 90.367086 33.286177 93.360431 32.363863 96.400892 
z
" clip-path="url(#p95227a41dc)" style="fill: #828282"/>
   </g>
   <g id="patch_126">
    <path d="M 34.365158 75.997513 
C 35.955305 73.022558 37.690555 70.127468 39.564641 67.3227 
C 41.438727 64.517931 43.44939 61.806866 45.589368 59.199296 
L 45.589368 59.199296 
C 43.44939 61.806866 41.438727 64.517931 39.564641 67.3227 
C 37.690555 70.127468 35.955305 73.022558 34.365158 75.997513 
z
" clip-path="url(#p95227a41dc)" style="fill: #828282"/>
   </g>
   <g id="patch_127">
    <path d="M 57.378836 68.874662 
C 59.202124 66.652979 61.133392 64.522154 63.165663 62.489882 
C 65.197935 60.457611 67.328761 58.526343 69.550444 56.703055 
L 69.550444 56.703055 
C 67.328761 58.526343 65.197935 60.457611 63.165663 62.489882 
C 61.133392 64.522154 59.202124 66.652979 57.378836 68.874662 
z
" clip-path="url(#p95227a41dc)" style="fill: #828282"/>
   </g>
   <g id="patch_128">
    <path d="M 71.525003 59.109062 
C 73.667934 57.350404 75.895919 55.698019 78.200909 54.157873 
C 80.5059 52.617727 82.885118 51.191679 85.32997 49.884878 
L 85.32997 49.884878 
C 82.885118 51.191679 80.5059 52.617727 78.200909 54.157873 
C 75.895919 55.698019 73.667934 57.350404 71.525003 59.109062 
z
" clip-path="url(#p95227a41dc)" style="fill: #828282"/>
   </g>
   <g id="patch_129">
    <path d="M 72.986373 26.791631 
C 76.187101 25.080806 79.469898 23.528159 82.822904 22.139298 
C 86.175911 20.750438 89.595085 19.527037 93.068078 18.473517 
L 93.068078 18.473517 
C 89.595085 19.527037 86.175911 20.750438 82.822904 22.139298 
C 79.469898 23.528159 76.187101 25.080806 72.986373 26.791631 
z
" clip-path="url(#p95227a41dc)" style="fill: #828282"/>
   </g>
   <g id="patch_130">
    <path d="M 93.654506 20.40671 
C 97.064223 19.372384 100.522667 18.506089 104.017346 17.810954 
C 107.512026 17.115819 111.038729 16.592682 114.584716 16.243433 
L 114.584716 16.243433 
C 111.038729 16.592682 107.512026 17.115819 104.017346 17.810954 
C 100.522667 18.506089 97.064223 19.372384 93.654506 20.40671 
z
" clip-path="url(#p95227a41dc)" style="fill: #828282"/>
   </g>
   <g id="patch_131">
    <path d="M 125.254844 124.579062 
C 125.254844 124.579062 125.254844 124.579062 125.254844 124.579062 
C 125.254844 124.579062 125.254844 124.579062 125.254844 124.579062 
L 134.111281 34.65815 
C 131.168035 34.368266 128.212331 34.223062 125.254844 34.223062 
C 122.297357 34.223062 119.341653 34.368266 116.398407 34.65815 
L 125.254844 124.579062 
z
" clip-path="url(#p95227a41dc)" style="fill: none; stroke: #292929; stroke-width: 0.5; stroke-linejoin: miter"/>
   </g>
   <g id="patch_132">
    <path d="M 125.254844 124.579062 
C 125.254844 124.579062 125.254844 124.579062 125.254844 124.579062 
C 125.254844 124.579062 125.254844 124.579062 125.254844 124.579062 
L 152.276953 35.499106 
C 149.361233 34.614632 146.403845 33.873845 143.415472 33.279421 
C 140.427098 32.684996 137.411341 32.237651 134.379093 31.939001 
L 125.254844 124.579062 
z
" clip-path="url(#p95227a41dc)" style="fill: none; stroke: #292929; stroke-width: 0.5; stroke-linejoin: miter"/>
   </g>
   <g id="patch_133">
    <path d="M 125.254844 124.579062 
C 125.254844 124.579062 125.254844 124.579062 125.254844 124.579062 
C 125.254844 124.579062 125.254844 124.579062 125.254844 124.579062 
L 160.062536 59.45845 
C 157.931041 58.319143 155.744894 57.285172 153.511991 56.360274 
C 151.279089 55.435375 149.002122 54.620663 146.689315 53.919081 
L 125.254844 124.579062 
z
" clip-path="url(#p95227a41dc)" style="fill: none; stroke: #292929; stroke-width: 0.5; stroke-linejoin: miter"/>
   </g>
   <g id="patch_134">
    <path d="M 125.254844 124.579062 
C 125.254844 124.579062 125.254844 124.579062 125.254844 124.579062 
C 125.254844 124.579062 125.254844 124.579062 125.254844 124.579062 
L 168.523882 71.855586 
C 166.798164 70.439326 165.003952 69.108647 163.147726 67.868357 
C 161.2915 66.628066 159.375498 65.479659 157.40664 64.427282 
L 125.254844 124.579062 
z
" clip-path="url(#p95227a41dc)" style="fill: none; stroke: #292929; stroke-width: 0.5; stroke-linejoin: miter"/>
   </g>
   <g id="patch_135">
    <path d="M 125.254844 124.579062 
C 125.254844 124.579062 125.254844 124.579062 125.254844 124.579062 
C 125.254844 124.579062 125.254844 124.579062 125.254844 124.579062 
L 183.998779 76.36916 
C 182.420797 74.446384 180.749363 72.60224 178.990515 70.843392 
C 177.231666 69.084543 175.387523 67.413109 173.464746 65.835127 
L 125.254844 124.579062 
z
" clip-path="url(#p95227a41dc)" style="fill: none; stroke: #292929; stroke-width: 0.5; stroke-linejoin: miter"/>
   </g>
   <g id="patch_136">
    <path d="M 125.254844 124.579062 
C 125.254844 124.579062 125.254844 124.579062 125.254844 124.579062 
C 125.254844 124.579062 125.254844 124.579062 125.254844 124.579062 
L 172.78849 99.171799 
C 171.956872 97.615952 171.049368 96.101873 170.069255 94.63503 
C 169.089142 93.168187 168.037602 91.75035 166.918433 90.386638 
L 125.254844 124.579062 
z
" clip-path="url(#p95227a41dc)" style="fill: none; stroke: #292929; stroke-width: 0.5; stroke-linejoin: miter"/>
   </g>
   <g id="patch_137">
    <path d="M 125.254844 124.579062 
C 125.254844 124.579062 125.254844 124.579062 125.254844 124.579062 
C 125.254844 124.579062 125.254844 124.579062 125.254844 124.579062 
L 176.968125 108.89201 
C 176.454665 107.199357 175.858409 105.532934 175.181512 103.898759 
C 174.504615 102.264585 173.747892 100.664629 172.914077 99.104672 
L 125.254844 124.579062 
z
" clip-path="url(#p95227a41dc)" style="fill: none; stroke: #292929; stroke-width: 0.5; stroke-linejoin: miter"/>
   </g>
   <g id="patch_138">
    <path d="M 125.254844 124.579062 
C 125.254844 124.579062 125.254844 124.579062 125.254844 124.579062 
C 125.254844 124.579062 125.254844 124.579062 125.254844 124.579062 
L 174.559698 119.722958 
C 174.40075 118.109137 174.162664 116.504092 173.8463 114.913621 
C 173.529936 113.32315 173.135674 111.74917 172.66494 110.197367 
L 125.254844 124.579062 
z
" clip-path="url(#p95227a41dc)" style="fill: none; stroke: #292929; stroke-width: 0.5; stroke-linejoin: miter"/>
   </g>
   <g id="patch_139">
    <path d="M 125.254844 124.579062 
C 125.254844 124.579062 125.254844 124.579062 125.254844 124.579062 
C 125.254844 124.579062 125.254844 124.579062 125.254844 124.579062 
L 152.932112 127.305036 
C 153.021338 126.399117 153.066031 125.489364 153.066031 124.579062 
C 153.066031 123.668761 153.021338 122.759008 152.932112 121.853089 
L 125.254844 124.579062 
z
" clip-path="url(#p95227a41dc)" style="fill: none; stroke: #292929; stroke-width: 0.5; stroke-linejoin: miter"/>
   </g>
   <g id="patch_140">
    <path d="M 125.254844 124.579062 
C 125.254844 124.579062 125.254844 124.579062 125.254844 124.579062 
C 125.254844 124.579062 125.254844 124.579062 125.254844 124.579062 
L 145.268417 130.650114 
C 145.467131 129.995039 145.633564 129.330604 145.767113 128.659207 
C 145.900662 127.987809 146.001167 127.31026 146.068265 126.629006 
L 125.254844 124.579062 
z
" clip-path="url(#p95227a41dc)" style="fill: none; stroke: #292929; stroke-width: 0.5; stroke-linejoin: miter"/>
   </g>
   <g id="patch_141">
    <path d="M 125.254844 124.579062 
C 125.254844 124.579062 125.254844 124.579062 125.254844 124.579062 
C 125.254844 124.579062 125.254844 124.579062 125.254844 124.579062 
L 147.621692 136.534392 
C 148.013007 135.802291 148.368143 135.05142 148.685816 134.284489 
C 149.003489 133.517558 149.283317 132.735493 149.524288 131.941118 
L 125.254844 124.579062 
z
" clip-path="url(#p95227a41dc)" style="fill: none; stroke: #292929; stroke-width: 0.5; stroke-linejoin: miter"/>
   </g>
   <g id="patch_142">
    <path d="M 125.254844 124.579062 
C 125.254844 124.579062 125.254844 124.579062 125.254844 124.579062 
C 125.254844 124.579062 125.254844 124.579062 125.254844 124.579062 
L 145.461708 141.162408 
C 146.004506 140.501007 146.514504 139.813355 146.989859 139.101935 
C 147.465214 138.390516 147.905354 137.656186 148.308689 136.9016 
L 125.254844 124.579062 
z
" clip-path="url(#p95227a41dc)" style="fill: none; stroke: #292929; stroke-width: 0.5; stroke-linejoin: miter"/>
   </g>
   <g id="patch_143">
    <path d="M 125.254844 124.579062 
C 125.254844 124.579062 125.254844 124.579062 125.254844 124.579062 
C 125.254844 124.579062 125.254844 124.579062 125.254844 124.579062 
L 139.721004 142.20613 
C 140.297964 141.732631 140.851329 141.23109 141.3791 140.703319 
C 141.906871 140.175548 142.408412 139.622183 142.881911 139.045223 
L 125.254844 124.579062 
z
" clip-path="url(#p95227a41dc)" style="fill: none; stroke: #292929; stroke-width: 0.5; stroke-linejoin: miter"/>
   </g>
   <g id="patch_144">
    <path d="M 125.254844 124.579062 
C 125.254844 124.579062 125.254844 124.579062 125.254844 124.579062 
C 125.254844 124.579062 125.254844 124.579062 125.254844 124.579062 
L 132.089832 137.366426 
C 132.508381 137.142706 132.915695 136.898572 133.3103 136.634905 
C 133.704906 136.371238 134.086329 136.088356 134.45319 135.78728 
L 125.254844 124.579062 
z
" clip-path="url(#p95227a41dc)" style="fill: none; stroke: #292929; stroke-width: 0.5; stroke-linejoin: miter"/>
   </g>
   <g id="patch_145">
    <path d="M 125.254844 124.579062 
C 125.254844 124.579062 125.254844 124.579062 125.254844 124.579062 
C 125.254844 124.579062 125.254844 124.579062 125.254844 124.579062 
L 130.782718 142.802022 
C 131.379183 142.621086 131.966404 142.410975 132.542262 142.172447 
C 133.11812 141.933919 133.68192 141.667262 134.231625 141.373438 
L 125.254844 124.579062 
z
" clip-path="url(#p95227a41dc)" style="fill: none; stroke: #292929; stroke-width: 0.5; stroke-linejoin: miter"/>
   </g>
   <g id="patch_146">
    <path d="M 125.254844 124.579062 
C 125.254844 124.579062 125.254844 124.579062 125.254844 124.579062 
C 125.254844 124.579062 125.254844 124.579062 125.254844 124.579062 
L 127.291927 145.261913 
C 127.968907 145.195236 128.642206 145.095362 129.309391 144.96265 
C 129.976577 144.829939 130.636844 144.66455 131.287809 144.467082 
L 125.254844 124.579062 
z
" clip-path="url(#p95227a41dc)" style="fill: none; stroke: #292929; stroke-width: 0.5; stroke-linejoin: miter"/>
   </g>
   <g id="patch_147">
    <path d="M 125.254844 124.579062 
C 125.254844 124.579062 125.254844 124.579062 125.254844 124.579062 
C 125.254844 124.579062 125.254844 124.579062 125.254844 124.579062 
L 121.440856 163.303127 
C 122.708353 163.427965 123.981214 163.490497 125.254844 163.490497 
C 126.528473 163.490497 127.801335 163.427965 129.068831 163.303127 
L 125.254844 124.579062 
z
" clip-path="url(#p95227a41dc)" style="fill: none; stroke: #292929; stroke-width: 0.5; stroke-linejoin: miter"/>
   </g>
   <g id="patch_148">
    <path d="M 125.254844 124.579062 
C 125.254844 124.579062 125.254844 124.579062 125.254844 124.579062 
C 125.254844 124.579062 125.254844 124.579062 125.254844 124.579062 
L 109.527262 176.425952 
C 111.224288 176.940739 112.945566 177.371897 114.684878 177.717868 
C 116.424191 178.063838 118.179441 178.324205 119.944289 178.498028 
L 125.254844 124.579062 
z
" clip-path="url(#p95227a41dc)" style="fill: none; stroke: #292929; stroke-width: 0.5; stroke-linejoin: miter"/>
   </g>
   <g id="patch_149">
    <path d="M 125.254844 124.579062 
C 125.254844 124.579062 125.254844 124.579062 125.254844 124.579062 
C 125.254844 124.579062 125.254844 124.579062 125.254844 124.579062 
L 93.967205 183.114117 
C 95.883145 184.138209 97.84821 185.067615 99.855302 185.89898 
C 101.862395 186.730345 103.909095 187.462666 105.988011 188.093298 
L 125.254844 124.579062 
z
" clip-path="url(#p95227a41dc)" style="fill: none; stroke: #292929; stroke-width: 0.5; stroke-linejoin: miter"/>
   </g>
   <g id="patch_150">
    <path d="M 125.254844 124.579062 
C 125.254844 124.579062 125.254844 124.579062 125.254844 124.579062 
C 125.254844 124.579062 125.254844 124.579062 125.254844 124.579062 
L 94.716464 161.790186 
C 95.93444 162.789752 97.200757 163.728917 98.510843 164.604288 
C 99.820928 165.47966 101.173202 166.290181 102.562781 167.032927 
L 125.254844 124.579062 
z
" clip-path="url(#p95227a41dc)" style="fill: none; stroke: #292929; stroke-width: 0.5; stroke-linejoin: miter"/>
   </g>
   <g id="patch_151">
    <path d="M 125.254844 124.579062 
C 125.254844 124.579062 125.254844 124.579062 125.254844 124.579062 
C 125.254844 124.579062 125.254844 124.579062 125.254844 124.579062 
L 85.311856 157.359426 
C 86.384806 158.666819 87.521299 159.920746 88.71723 161.116677 
C 89.91316 162.312607 91.167087 163.4491 92.474481 164.52205 
L 125.254844 124.579062 
z
" clip-path="url(#p95227a41dc)" style="fill: none; stroke: #292929; stroke-width: 0.5; stroke-linejoin: miter"/>
   </g>
   <g id="patch_152">
    <path d="M 125.254844 124.579062 
C 125.254844 124.579062 125.254844 124.579062 125.254844 124.579062 
C 125.254844 124.579062 125.254844 124.579062 125.254844 124.579062 
L 72.350875 152.856823 
C 73.276449 154.588449 74.286482 156.273588 75.377327 157.906153 
C 76.468173 159.538719 77.638515 161.116743 78.884128 162.634526 
L 125.254844 124.579062 
z
" clip-path="url(#p95227a41dc)" style="fill: none; stroke: #292929; stroke-width: 0.5; stroke-linejoin: miter"/>
   </g>
   <g id="patch_153">
    <path d="M 125.254844 124.579062 
C 125.254844 124.579062 125.254844 124.579062 125.254844 124.579062 
C 125.254844 124.579062 125.254844 124.579062 125.254844 124.579062 
L 74.975368 139.831175 
C 75.474593 141.476897 76.054317 143.097117 76.712446 144.685982 
C 77.370576 146.274847 78.106317 147.830442 78.917014 149.347149 
L 125.254844 124.579062 
z
" clip-path="url(#p95227a41dc)" style="fill: none; stroke: #292929; stroke-width: 0.5; stroke-linejoin: miter"/>
   </g>
   <g id="patch_154">
    <path d="M 125.254844 124.579062 
C 125.254844 124.579062 125.254844 124.579062 125.254844 124.579062 
C 125.254844 124.579062 125.254844 124.579062 125.254844 124.579062 
L 68.907094 130.128831 
C 69.088746 131.973177 69.360841 133.807493 69.722396 135.625153 
C 70.083951 137.442813 70.534531 139.241626 71.072506 141.015095 
L 125.254844 124.579062 
z
" clip-path="url(#p95227a41dc)" style="fill: none; stroke: #292929; stroke-width: 0.5; stroke-linejoin: miter"/>
   </g>
   <g id="patch_155">
    <path d="M 125.254844 124.579062 
C 125.254844 124.579062 125.254844 124.579062 125.254844 124.579062 
C 125.254844 124.579062 125.254844 124.579062 125.254844 124.579062 
L 62.05068 118.353996 
C 61.846924 120.422762 61.744862 122.500286 61.744862 124.579062 
C 61.744862 126.657839 61.846924 128.735363 62.05068 130.804129 
L 125.254844 124.579062 
z
" clip-path="url(#p95227a41dc)" style="fill: none; stroke: #292929; stroke-width: 0.5; stroke-linejoin: miter"/>
   </g>
   <g id="patch_156">
    <path d="M 125.254844 124.579062 
C 125.254844 124.579062 125.254844 124.579062 125.254844 124.579062 
C 125.254844 124.579062 125.254844 124.579062 125.254844 124.579062 
L 38.978748 98.407495 
C 38.122114 101.23144 37.404644 104.095742 36.828929 106.990054 
C 36.253215 109.884367 35.81995 112.8052 35.5307 115.742006 
L 125.254844 124.579062 
z
" clip-path="url(#p95227a41dc)" style="fill: none; stroke: #292929; stroke-width: 0.5; stroke-linejoin: miter"/>
   </g>
   <g id="patch_157">
    <path d="M 125.254844 124.579062 
C 125.254844 124.579062 125.254844 124.579062 125.254844 124.579062 
C 125.254844 124.579062 125.254844 124.579062 125.254844 124.579062 
L 39.646026 78.820196 
C 38.14827 81.6223 36.788992 84.496252 35.573102 87.431669 
C 34.357212 90.367086 33.286177 93.360431 32.363863 96.400892 
L 125.254844 124.579062 
z
" clip-path="url(#p95227a41dc)" style="fill: none; stroke: #292929; stroke-width: 0.5; stroke-linejoin: miter"/>
   </g>
   <g id="patch_158">
    <path d="M 125.254844 124.579062 
C 125.254844 124.579062 125.254844 124.579062 125.254844 124.579062 
C 125.254844 124.579062 125.254844 124.579062 125.254844 124.579062 
L 45.589368 59.199296 
C 43.44939 61.806866 41.438727 64.517931 39.564641 67.3227 
C 37.690555 70.127468 35.955305 73.022558 34.365158 75.997513 
L 125.254844 124.579062 
z
" clip-path="url(#p95227a41dc)" style="fill: none; stroke: #292929; stroke-width: 0.5; stroke-linejoin: miter"/>
   </g>
   <g id="patch_159">
    <path d="M 125.254844 124.579062 
C 125.254844 124.579062 125.254844 124.579062 125.254844 124.579062 
C 125.254844 124.579062 125.254844 124.579062 125.254844 124.579062 
L 69.550444 56.703055 
C 67.328761 58.526343 65.197935 60.457611 63.165663 62.489882 
C 61.133392 64.522154 59.202124 66.652979 57.378836 68.874662 
L 125.254844 124.579062 
z
" clip-path="url(#p95227a41dc)" style="fill: none; stroke: #292929; stroke-width: 0.5; stroke-linejoin: miter"/>
   </g>
   <g id="patch_160">
    <path d="M 125.254844 124.579062 
C 125.254844 124.579062 125.254844 124.579062 125.254844 124.579062 
C 125.254844 124.579062 125.254844 124.579062 125.254844 124.579062 
L 85.32997 49.884878 
C 82.885118 51.191679 80.5059 52.617727 78.200909 54.157873 
C 75.895919 55.698019 73.667934 57.350404 71.525003 59.109062 
L 125.254844 124.579062 
z
" clip-path="url(#p95227a41dc)" style="fill: none; stroke: #292929; stroke-width: 0.5; stroke-linejoin: miter"/>
   </g>
   <g id="patch_161">
    <path d="M 125.254844 124.579062 
C 125.254844 124.579062 125.254844 124.579062 125.254844 124.579062 
C 125.254844 124.579062 125.254844 124.579062 125.254844 124.579062 
L 93.068078 18.473517 
C 89.595085 19.527037 86.175911 20.750438 82.822904 22.139298 
C 79.469898 23.528159 76.187101 25.080806 72.986373 26.791631 
L 125.254844 124.579062 
z
" clip-path="url(#p95227a41dc)" style="fill: none; stroke: #292929; stroke-width: 0.5; stroke-linejoin: miter"/>
   </g>
   <g id="patch_162">
    <path d="M 125.254844 124.579062 
C 125.254844 124.579062 125.254844 124.579062 125.254844 124.579062 
C 125.254844 124.579062 125.254844 124.579062 125.254844 124.579062 
L 114.584716 16.243433 
C 111.038729 16.592682 107.512026 17.115819 104.017346 17.810954 
C 100.522667 18.506089 97.064223 19.372384 93.654506 20.40671 
L 125.254844 124.579062 
z
" clip-path="url(#p95227a41dc)" style="fill: none; stroke: #292929; stroke-width: 0.5; stroke-linejoin: miter"/>
   </g>
   <g id="PathCollection_1">
    <defs>
     <path id="maae888c176" d="M 0.193618 7.414054 
L 0.193618 7.414054 
C 0.054922 7.414054 -0.078235 7.358899 -0.176308 7.260826 
C -0.274381 7.162753 -0.329536 7.029596 -0.329536 6.890901 
L -0.329536 5.365008 
L -1.528416 6.56393 
L -1.528416 6.56393 
C -1.577018 6.612704 -1.634775 6.651408 -1.698366 6.677814 
C -1.761958 6.704221 -1.830141 6.717815 -1.898997 6.717815 
C -1.967853 6.717815 -2.036037 6.704221 -2.099628 6.677814 
C -2.163219 6.651408 -2.220976 6.612704 -2.269578 6.56393 
L -2.269578 6.56393 
C -2.318353 6.515327 -2.357056 6.457571 -2.383463 6.393979 
C -2.409869 6.330388 -2.423463 6.262205 -2.423463 6.193348 
C -2.423463 6.124492 -2.409869 6.056309 -2.383463 5.992718 
C -2.357056 5.929126 -2.318353 5.87137 -2.269578 5.822767 
L -0.329536 3.884106 
L -0.329536 0.820937 
L -2.98067 2.351538 
L -3.691824 5.001416 
L -3.691824 5.001416 
C -3.727584 5.135411 -3.815199 5.249836 -3.93523 5.319305 
C -4.055261 5.388775 -4.198123 5.407741 -4.332122 5.371997 
L -4.332122 5.371997 
C -4.466126 5.336237 -4.580558 5.248616 -4.650029 5.128576 
C -4.719499 5.008535 -4.73846 4.865662 -4.702703 4.731657 
L -4.262647 3.092721 
L -5.585535 3.855668 
L -5.585535 3.855668 
C -5.645013 3.890144 -5.710708 3.912561 -5.778854 3.921634 
C -5.847001 3.930706 -5.916272 3.926258 -5.982698 3.908543 
C -6.049125 3.890828 -6.111412 3.860192 -6.165991 3.818391 
C -6.220571 3.77659 -6.266379 3.724437 -6.300791 3.664922 
L -6.300791 3.664922 
C -6.335212 3.605364 -6.35755 3.539597 -6.366524 3.471396 
C -6.375498 3.403194 -6.370933 3.333888 -6.35309 3.267452 
C -6.335248 3.201017 -6.304476 3.138749 -6.26254 3.08422 
C -6.220605 3.029692 -6.168323 2.983966 -6.108695 2.949666 
L -4.785807 2.186762 
L -6.424743 1.746706 
L -6.424743 1.746706 
C -6.558747 1.710946 -6.673179 1.623325 -6.74265 1.503284 
C -6.81212 1.383244 -6.831081 1.240371 -6.795324 1.106366 
L -6.795324 1.106366 
C -6.777471 1.039969 -6.746703 0.977739 -6.704784 0.923241 
C -6.662864 0.868744 -6.61061 0.823041 -6.551015 0.788752 
C -6.491421 0.754464 -6.425647 0.732257 -6.357465 0.723406 
C -6.289282 0.714554 -6.220019 0.71923 -6.153645 0.737166 
L -3.505232 1.44698 
L -0.852424 -0.08496 
L -3.503767 -1.615666 
L -6.153645 -0.905851 
L -6.153645 -0.905851 
C -6.22011 -0.887939 -6.289462 -0.883321 -6.357716 -0.892262 
C -6.42597 -0.901202 -6.491793 -0.923527 -6.551403 -0.957953 
C -6.611013 -0.992379 -6.663247 -1.038234 -6.705103 -1.092883 
C -6.746958 -1.147533 -6.777619 -1.209911 -6.795324 -1.276432 
L -6.795324 -1.276432 
C -6.831068 -1.410431 -6.812101 -1.553293 -6.742632 -1.673324 
C -6.673162 -1.793355 -6.558738 -1.88097 -6.424743 -1.91673 
L -4.785807 -2.355447 
L -6.108695 -3.119732 
L -6.108695 -3.119732 
C -6.228699 -3.188976 -6.316415 -3.303132 -6.352417 -3.436921 
C -6.388419 -3.57071 -6.369839 -3.713469 -6.300791 -3.833586 
L -6.300791 -3.833586 
C -6.266491 -3.893214 -6.220765 -3.945496 -6.166237 -3.987431 
C -6.111708 -4.029367 -6.04944 -4.060139 -5.983005 -4.077981 
C -5.91657 -4.095823 -5.847263 -4.100389 -5.779062 -4.091415 
C -5.71086 -4.082441 -5.645094 -4.060102 -5.585535 -4.025682 
L -4.262647 -3.261396 
L -4.702703 -4.900332 
L -4.702703 -4.900332 
C -4.73846 -5.034337 -4.719499 -5.17721 -4.650029 -5.29725 
C -4.580558 -5.417291 -4.466126 -5.504912 -4.332122 -5.540672 
L -4.332122 -5.540672 
C -4.19831 -5.576464 -4.055613 -5.557686 -3.935617 -5.488496 
C -3.81562 -5.419305 -3.727882 -5.305212 -3.691824 -5.171472 
L -2.982009 -2.521594 
L -0.329411 -0.990302 
L -0.329411 -4.051588 
L -2.269453 -5.991589 
L -2.269453 -5.991589 
C -2.318227 -6.040191 -2.356931 -6.097947 -2.383337 -6.161539 
C -2.409744 -6.22513 -2.423338 -6.293314 -2.423338 -6.36217 
C -2.423338 -6.431026 -2.409744 -6.499209 -2.383337 -6.5628 
C -2.356931 -6.626392 -2.318227 -6.684149 -2.269453 -6.732751 
L -2.269453 -6.732751 
C -2.22085 -6.781526 -2.163094 -6.820229 -2.099502 -6.846635 
C -2.035911 -6.873042 -1.967728 -6.886636 -1.898871 -6.886636 
C -1.830015 -6.886636 -1.761832 -6.873042 -1.698241 -6.846635 
C -1.634649 -6.820229 -1.576893 -6.781526 -1.52829 -6.732751 
L -0.329411 -5.533829 
L -0.329411 -7.059722 
L -0.329411 -7.059722 
C -0.329411 -7.198418 -0.274255 -7.331575 -0.176182 -7.429647 
C -0.07811 -7.52772 0.055047 -7.582875 0.193743 -7.582875 
L 0.193743 -7.582875 
C 0.332439 -7.582875 0.465596 -7.52772 0.563669 -7.429647 
C 0.661741 -7.331575 0.716897 -7.198418 0.716897 -7.059722 
L 0.716897 -5.533829 
L 1.915777 -6.732751 
L 1.915777 -6.732751 
C 1.964379 -6.781526 2.022136 -6.820229 2.085727 -6.846635 
C 2.149318 -6.873042 2.217502 -6.886636 2.286358 -6.886636 
C 2.355214 -6.886636 2.423397 -6.873042 2.486989 -6.846635 
C 2.55058 -6.820229 2.608337 -6.781526 2.656939 -6.732751 
L 2.656939 -6.732751 
C 2.705714 -6.684149 2.744417 -6.626392 2.770823 -6.5628 
C 2.79723 -6.499209 2.810824 -6.431026 2.810824 -6.36217 
C 2.810824 -6.293314 2.79723 -6.22513 2.770823 -6.161539 
C 2.744417 -6.097947 2.705714 -6.040191 2.656939 -5.991589 
L 0.716897 -4.051588 
L 0.716897 -0.991139 
L 3.369495 -2.522954 
L 4.07931 -5.171367 
L 4.07931 -5.171367 
C 4.115368 -5.305107 4.203106 -5.4192 4.323103 -5.488391 
C 4.4431 -5.557582 4.585797 -5.576359 4.719608 -5.540567 
L 4.719608 -5.540567 
C 4.853612 -5.504807 4.968045 -5.417186 5.037515 -5.297146 
C 5.106986 -5.177105 5.125946 -5.034232 5.090189 -4.900227 
L 4.650133 -3.262673 
L 5.973022 -4.025577 
L 5.973022 -4.025577 
C 6.03258 -4.059998 6.098346 -4.082336 6.166548 -4.09131 
C 6.234749 -4.100284 6.304056 -4.095719 6.370491 -4.077876 
C 6.436926 -4.060034 6.499194 -4.029262 6.553723 -3.987327 
C 6.608252 -3.945391 6.653978 -3.893109 6.688277 -3.833481 
L 6.688277 -3.833481 
C 6.757325 -3.713365 6.775905 -3.570605 6.739903 -3.436816 
C 6.703901 -3.303027 6.616186 -3.188871 6.496181 -3.119628 
L 5.173293 -2.355342 
L 6.812229 -1.916625 
L 6.812229 -1.916625 
C 6.946224 -1.880865 7.060649 -1.79325 7.130118 -1.67322 
C 7.199588 -1.553189 7.218554 -1.410326 7.18281 -1.276327 
L 7.18281 -1.276327 
C 7.165106 -1.209806 7.134445 -1.147429 7.092589 -1.092779 
C 7.050733 -1.038129 6.998499 -0.992274 6.938889 -0.957848 
C 6.879279 -0.923422 6.813456 -0.901098 6.745202 -0.892157 
C 6.676949 -0.883217 6.607597 -0.887835 6.541131 -0.905746 
L 3.891253 -1.615561 
L 1.239492 -0.084604 
L 3.892718 1.447085 
L 6.541131 0.73727 
L 6.541131 0.73727 
C 6.674948 0.701466 6.817656 0.720237 6.937662 0.789429 
C 7.057669 0.858621 7.145413 0.972721 7.181471 1.10647 
L 7.181471 1.10647 
C 7.217274 1.240293 7.198497 1.383006 7.129297 1.503014 
C 7.060096 1.623021 6.945986 1.710762 6.812229 1.74681 
L 5.173293 2.186866 
L 6.496181 2.949771 
L 6.496181 2.949771 
C 6.555697 2.984183 6.607849 3.029991 6.649651 3.08457 
C 6.691452 3.13915 6.722088 3.201437 6.739803 3.267863 
C 6.757517 3.33429 6.761966 3.403561 6.752893 3.471707 
C 6.743821 3.539854 6.721404 3.605549 6.686927 3.665026 
L 6.686927 3.665026 
C 6.617458 3.784813 6.503196 3.87225 6.369416 3.907994 
C 6.235636 3.943739 6.092989 3.924946 5.973032 3.855772 
L 4.650144 3.091487 
L 5.08886 4.731783 
L 5.08886 4.731783 
C 5.124664 4.865606 5.105887 5.008319 5.036686 5.128326 
C 4.967486 5.248334 4.853376 5.336074 4.719619 5.372123 
L 4.719619 5.372123 
C 4.585619 5.407867 4.442757 5.3889 4.322726 5.319431 
C 4.202695 5.249961 4.115081 5.135537 4.07932 5.001542 
L 3.368166 2.351664 
L 0.717033 0.821063 
L 0.717033 3.884232 
L 2.657075 5.822893 
L 2.657075 5.822893 
C 2.70585 5.871495 2.744553 5.929252 2.770959 5.992843 
C 2.797366 6.056435 2.81096 6.124618 2.81096 6.193474 
C 2.81096 6.26233 2.797366 6.330514 2.770959 6.394105 
C 2.744553 6.457696 2.70585 6.515453 2.657075 6.564055 
L 2.657075 6.564055 
C 2.608473 6.61283 2.550716 6.651533 2.487125 6.67794 
C 2.423533 6.704346 2.35535 6.71794 2.286494 6.71794 
C 2.217638 6.71794 2.149454 6.704346 2.085863 6.67794 
C 2.022272 6.651533 1.964515 6.61283 1.915913 6.564055 
L 0.717033 5.365133 
L 0.717033 6.891026 
L 0.717033 6.891026 
C 0.717033 7.029722 0.661877 7.162879 0.563805 7.260952 
C 0.465732 7.359024 0.332575 7.41418 0.193879 7.41418 
L 0.193618 7.414054 
z
"/>
    </defs>
    <g clip-path="url(#p95227a41dc)">
     <use xlink:href="#maae888c176" x="94.262906" y="76.93726" style="fill: #9e2096; fill-opacity: 0.7"/>
    </g>
   </g>
   <g id="patch_163">
    <path d="M 125.254844 13.699062 
C 110.694216 13.699062 96.275171 16.567189 82.822905 22.1393 
C 69.370638 27.711411 57.146763 35.879144 46.850844 46.175063 
C 36.554925 56.470982 28.387192 68.694857 22.815081 82.147124 
C 17.24297 95.59939 14.374844 110.018434 14.374844 124.579063 
C 14.374844 139.139691 17.24297 153.558735 22.815081 167.011001 
C 28.387192 180.463268 36.554925 192.687143 46.850844 202.983062 
C 57.146763 213.278981 69.370638 221.446714 82.822905 227.018825 
C 96.275171 232.590936 110.694216 235.459063 125.254844 235.459063 
C 139.815472 235.459063 154.234516 232.590936 167.686783 227.018825 
C 181.139049 221.446714 193.362925 213.278981 203.658844 202.983062 
C 213.954763 192.687143 222.122495 180.463268 227.694606 167.011001 
C 233.266717 153.558735 236.134844 139.139691 236.134844 124.579062 
C 236.134844 110.018434 233.266717 95.59939 227.694606 82.147124 
C 222.122495 68.694857 213.954763 56.470982 203.658844 46.175063 
C 193.362925 35.879144 181.139049 27.711411 167.686783 22.1393 
C 154.234516 16.567189 139.815472 13.699062 125.254844 13.699062 
" style="fill: none; stroke: #000000; stroke-width: 0.8; stroke-linejoin: miter; stroke-linecap: square"/>
   </g>
  </g>
 </g>
 <defs>
  <clipPath id="p95227a41dc">
   <path d="M 236.134844 124.579063 
C 236.134844 110.018434 233.266717 95.59939 227.694606 82.147124 
C 222.122495 68.694857 213.954763 56.470982 203.658844 46.175063 
C 193.362925 35.879144 181.139049 27.711411 167.686783 22.1393 
C 154.234516 16.567189 139.815472 13.699062 125.254844 13.699062 
C 110.694216 13.699062 96.275171 16.567189 82.822905 22.1393 
C 69.370638 27.711411 57.146763 35.879144 46.850844 46.175063 
C 36.554925 56.470982 28.387192 68.694857 22.815081 82.147124 
C 17.24297 95.59939 14.374844 110.018434 14.374844 124.579062 
C 14.374844 139.139691 17.24297 153.558735 22.815081 167.011001 
C 28.387192 180.463268 36.554925 192.687143 46.850844 202.983062 
C 57.146763 213.278981 69.370638 221.446714 82.822905 227.018825 
C 96.275171 232.590936 110.694216 235.459063 125.254844 235.459063 
C 139.815472 235.459063 154.234516 232.590936 167.686783 227.018825 
C 181.139049 221.446714 193.362925 213.278981 203.658844 202.983062 
C 213.954763 192.687143 222.122495 180.463268 227.694606 167.011001 
C 233.266717 153.558735 236.134844 139.139691 236.134844 124.579063 
M 125.254844 124.579063 
C 125.254844 124.579063 125.254844 124.579063 125.254844 124.579063 
C 125.254844 124.579063 125.254844 124.579063 125.254844 124.579063 
C 125.254844 124.579063 125.254844 124.579063 125.254844 124.579063 
C 125.254844 124.579063 125.254844 124.579063 125.254844 124.579063 
C 125.254844 124.579063 125.254844 124.579063 125.254844 124.579063 
C 125.254844 124.579063 125.254844 124.579063 125.254844 124.579063 
C 125.254844 124.579063 125.254844 124.579063 125.254844 124.579063 
C 125.254844 124.579063 125.254844 124.579063 125.254844 124.579063 
C 125.254844 124.579063 125.254844 124.579063 125.254844 124.579063 
C 125.254844 124.579063 125.254844 124.579063 125.254844 124.579063 
C 125.254844 124.579063 125.254844 124.579063 125.254844 124.579063 
C 125.254844 124.579063 125.254844 124.579063 125.254844 124.579063 
C 125.254844 124.579063 125.254844 124.579063 125.254844 124.579063 
C 125.254844 124.579063 125.254844 124.579063 125.254844 124.579063 
C 125.254844 124.579063 125.254844 124.579063 125.254844 124.579063 
C 125.254844 124.579063 125.254844 124.579063 125.254844 124.579063 
z
"/>
  </clipPath>
 </defs>
</svg>
