<?xml version="1.0" encoding="utf-8" standalone="no"?>
<!DOCTYPE svg PUBLIC "-//W3C//DTD SVG 1.1//EN"
  "http://www.w3.org/Graphics/SVG/1.1/DTD/svg11.dtd">
<svg xmlns:xlink="http://www.w3.org/1999/xlink" width="248.410469pt" height="249.158125pt" viewBox="0 0 248.410469 249.158125" xmlns="http://www.w3.org/2000/svg" version="1.1">
 <title>Ski Rose for Solheisen</title>
 <metadata>
  <rdf:RDF xmlns:dc="http://purl.org/dc/elements/1.1/" xmlns:cc="http://creativecommons.org/ns#" xmlns:rdf="http://www.w3.org/1999/02/22-rdf-syntax-ns#">
   <cc:Work>
    <dc:type rdf:resource="http://purl.org/dc/dcmitype/StillImage"/>
    <dc:title>Ski Rose for Solheisen</dc:title>
    <dc:date>2025-02-24T20:50:21.174924</dc:date>
    <dc:description>A 32-bin stacked histogram of downhill ski run orientations colored by difficulty.</dc:description>
    <dc:format>image/svg+xml</dc:format>
    <dc:source>https://openskimap.org/?obj=5e49ec5078c0f2e79b0b769718022cc75c06bd72</dc:source>
    <dc:creator>
     <cc:Agent>
      <dc:title>https://github.com/dhimmel/openskistats</dc:title>
     </cc:Agent>
    </dc:creator>
    <dc:rights>
     <cc:Agent>
      <dc:title>https://creativecommons.org/licenses/by/4.0/</dc:title>
     </cc:Agent>
    </dc:rights>
   </cc:Work>
  </rdf:RDF>
 </metadata>
 <defs>
  <style type="text/css">*{stroke-linejoin: round; stroke-linecap: butt}</style>
 </defs>
 <g id="figure_1">
  <g id="patch_1">
   <path d="M 0 249.158125 
L 248.410469 249.158125 
L 248.410469 0 
L 0 0 
z
" style="fill: #ffffff"/>
  </g>
  <g id="axes_1">
   <g id="patch_2">
    <path d="M 236.134844 124.579063 
C 236.134844 110.018434 233.266717 95.59939 227.694606 82.147124 
C 222.122495 68.694857 213.954763 56.470982 203.658844 46.175063 
C 193.362925 35.879144 181.139049 27.711411 167.686783 22.1393 
C 154.234516 16.567189 139.815472 13.699062 125.254844 13.699062 
C 110.694216 13.699062 96.275171 16.567189 82.822905 22.1393 
C 69.370638 27.711411 57.146763 35.879144 46.850844 46.175063 
C 36.554925 56.470982 28.387192 68.694857 22.815081 82.147124 
C 17.24297 95.59939 14.374844 110.018434 14.374844 124.579062 
C 14.374844 139.139691 17.24297 153.558735 22.815081 167.011001 
C 28.387192 180.463268 36.554925 192.687143 46.850844 202.983062 
C 57.146763 213.278981 69.370638 221.446714 82.822905 227.018825 
C 96.275171 232.590936 110.694216 235.459063 125.254844 235.459063 
C 139.815472 235.459063 154.234516 232.590936 167.686783 227.018825 
C 181.139049 221.446714 193.362925 213.278981 203.658844 202.983062 
C 213.954763 192.687143 222.122495 180.463268 227.694606 167.011001 
C 233.266717 153.558735 236.134844 139.139691 236.134844 124.579063 
M 125.254844 124.579063 
C 125.254844 124.579063 125.254844 124.579063 125.254844 124.579063 
C 125.254844 124.579063 125.254844 124.579063 125.254844 124.579063 
C 125.254844 124.579063 125.254844 124.579063 125.254844 124.579063 
C 125.254844 124.579063 125.254844 124.579063 125.254844 124.579063 
C 125.254844 124.579063 125.254844 124.579063 125.254844 124.579063 
C 125.254844 124.579063 125.254844 124.579063 125.254844 124.579063 
C 125.254844 124.579063 125.254844 124.579063 125.254844 124.579063 
C 125.254844 124.579063 125.254844 124.579063 125.254844 124.579063 
C 125.254844 124.579063 125.254844 124.579063 125.254844 124.579063 
C 125.254844 124.579063 125.254844 124.579063 125.254844 124.579063 
C 125.254844 124.579063 125.254844 124.579063 125.254844 124.579063 
C 125.254844 124.579063 125.254844 124.579063 125.254844 124.579063 
C 125.254844 124.579063 125.254844 124.579063 125.254844 124.579063 
C 125.254844 124.579063 125.254844 124.579063 125.254844 124.579063 
C 125.254844 124.579063 125.254844 124.579063 125.254844 124.579063 
C 125.254844 124.579063 125.254844 124.579063 125.254844 124.579063 
z
" style="fill: #ffffff"/>
   </g>
   <g id="PolyCollection_1">
    <defs>
     <path id="ma6a0bae225" d="M 234.540997 -142.867292 
L 234.291782 -142.825588 
L 233.954106 -140.824276 
L 233.692628 -138.855168 
L 233.246527 -136.883161 
L 232.889977 -134.943147 
L 232.349343 -133.007582 
L 231.765161 -131.093513 
L 231.285174 -129.208447 
L 230.622812 -127.33822 
L 230.070196 -125.493772 
L 229.336548 -123.670755 
L 228.569211 -121.873681 
L 227.917035 -120.096734 
L 227.086511 -118.350771 
L 226.37341 -116.620859 
L 225.484201 -114.928073 
L 224.713996 -113.247124 
L 223.770314 -111.609255 
L 222.946667 -109.978922 
L 221.952562 -108.397414 
L 221.079041 -106.819097 
L 220.038455 -105.295119 
L 219.11857 -103.769975 
L 218.035375 -102.304428 
L 217.072588 -100.833379 
L 215.950596 -99.426904 
L 214.948329 -98.010642 
L 213.926906 -96.620869 
L 212.752924 -95.302615 
L 211.696991 -93.968293 
L 210.624247 -92.660751 
L 209.406249 -91.430942 
L 208.303853 -90.179037 
L 207.186934 -88.953976 
L 205.932661 -87.812063 
L 204.790801 -86.642357 
L 203.636633 -85.499344 
L 202.470856 -84.382951 
L 201.29416 -83.293083 
L 199.994185 -82.293578 
L 198.799897 -81.257715 
L 197.596745 -80.247888 
L 196.385371 -79.263919 
L 195.166405 -78.30561 
L 193.940462 -77.372745 
L 192.708146 -76.465089 
L 191.470044 -75.582392 
L 190.226727 -74.724383 
L 188.978752 -73.890777 
L 187.726657 -73.081274 
L 186.470966 -72.295555 
L 185.212183 -71.53329 
L 183.950794 -70.794134 
L 182.687267 -70.077728 
L 181.42205 -69.383703 
L 180.228719 -68.637241 
L 178.958715 -67.98699 
L 177.688245 -67.358046 
L 176.417678 -66.749998 
L 175.210165 -66.088896 
L 173.937771 -65.521949 
L 172.666275 -64.974725 
L 171.395963 -64.446785 
L 170.179687 -63.866621 
L 168.909923 -63.376899 
L 167.642096 -62.905228 
L 166.421628 -62.382836 
L 165.155745 -61.947193 
L 163.932939 -61.462147 
L 162.66977 -61.061123 
L 161.409397 -60.676105 
L 160.185632 -60.244553 
L 158.928817 -59.891963 
L 157.704541 -59.495038 
L 156.451695 -59.173503 
L 155.227453 -58.810174 
L 153.978855 -58.518359 
L 152.755079 -58.187622 
L 151.510876 -57.924242 
L 150.287893 -57.625132 
L 149.048106 -57.388963 
L 147.826141 -57.120566 
L 146.604024 -56.868112 
L 145.369857 -56.671917 
L 144.14899 -56.448971 
L 142.918872 -56.277333 
L 141.69926 -56.083139 
L 140.479717 -55.904096 
L 139.254406 -55.769017 
L 138.036061 -55.617785 
L 136.813844 -55.505202 
L 135.596528 -55.381236 
L 134.379312 -55.271846 
L 133.160347 -55.193355 
L 131.943894 -55.110617 
L 130.727511 -55.042236 
L 129.510671 -54.996894 
L 128.294706 -54.954766 
L 127.078751 -54.92687 
L 125.8628 -54.91414 
L 124.646889 -54.914314 
L 123.431055 -54.931377 
L 122.215325 -54.962648 
L 120.999239 -55.000534 
L 119.783414 -55.057956 
L 118.566376 -55.116668 
L 117.350147 -55.200429 
L 116.133898 -55.298598 
L 114.914571 -55.390682 
L 113.697592 -55.51565 
L 112.480574 -55.655269 
L 111.257879 -55.781781 
L 110.039896 -55.948868 
L 108.821903 -56.130937 
L 107.594947 -56.293308 
L 106.375877 -56.503709 
L 105.145208 -56.690071 
L 103.925022 -56.92951 
L 102.690327 -57.14083 
L 101.469063 -57.41009 
L 100.248079 -57.695433 
L 99.007919 -57.947362 
L 97.786148 -58.263764 
L 96.541714 -58.543385 
L 95.319424 -58.891779 
L 94.070792 -59.200339 
L 92.848356 -59.581704 
L 91.59573 -59.920507 
L 90.373628 -60.335855 
L 89.117345 -60.706249 
L 87.896168 -61.156617 
L 86.636701 -61.559981 
L 85.37463 -61.979666 
L 84.155118 -62.48415 
L 82.890801 -62.938997 
L 81.624382 -63.411411 
L 80.408437 -63.972622 
L 79.141047 -64.482392 
L 77.872241 -65.010967 
L 76.662197 -65.631468 
L 75.394029 -66.19955 
L 74.125313 -66.787641 
L 72.856375 -67.396168 
L 71.657787 -68.09955 
L 70.39214 -68.75037 
L 69.127375 -69.422753 
L 67.863899 -70.11709 
L 66.602141 -70.833763 
L 65.342548 -71.573141 
L 64.171338 -72.40882 
L 62.920085 -73.194253 
L 61.672429 -74.003326 
L 60.428889 -74.836358 
L 59.19 -75.69365 
L 57.956316 -76.575489 
L 56.728405 -77.482146 
L 55.506851 -78.413873 
L 54.292252 -79.370906 
L 52.977291 -80.287321 
L 51.776188 -81.296826 
L 50.583968 -82.332314 
L 49.401285 -83.393941 
L 48.228806 -84.481845 
L 47.067206 -85.596145 
L 45.917174 -86.736935 
L 44.656461 -87.848263 
L 43.529785 -89.043996 
L 42.416855 -90.266444 
L 41.189812 -91.464966 
L 40.10488 -92.742796 
L 39.035953 -94.047352 
L 37.850209 -95.333881 
L 36.814077 -96.693796 
L 35.796272 -98.080226 
L 34.659705 -99.454807 
L 33.679616 -100.896098 
L 32.579893 -102.329775 
L 31.64091 -103.825353 
L 30.724245 -105.346595 
L 29.687353 -106.866675 
L 28.816864 -108.440879 
L 27.826239 -110.01826 
L 27.005413 -111.64428 
L 26.064969 -113.277804 
L 25.297345 -114.95425 
L 24.411087 -116.642487 
L 23.553383 -118.358735 
L 22.872358 -120.108947 
L 22.075288 -121.877211 
L 21.456932 -123.673232 
L 20.725109 -125.49128 
L 20.17365 -127.33071 
L 19.512314 -129.195881 
L 18.88914 -131.084668 
L 18.448231 -132.984925 
L 17.906331 -134.915549 
L 17.547693 -136.850742 
L 17.097594 -138.818235 
L 16.831442 -140.783048 
L 16.486973 -142.780562 
L 15.920644 -142.875333 
L 15.920644 -142.875333 
L 15.67478 -140.955913 
L 15.338234 -139.049859 
L 15.091792 -137.130557 
L 14.946888 -135.200511 
L 14.835954 -133.269218 
L 14.632317 -131.345026 
L 14.588621 -129.410854 
L 14.451802 -127.480542 
L 14.405296 -125.546432 
L 14.461848 -123.612187 
L 14.425022 -121.676881 
L 14.548196 -119.745506 
L 14.632648 -117.813119 
L 14.821424 -115.887764 
L 14.917192 -113.954755 
L 15.09788 -112.028262 
L 15.384105 -110.114305 
L 15.702624 -108.206374 
L 15.929728 -106.284312 
L 16.236378 -104.373684 
L 16.650514 -102.483262 
L 17.096265 -100.600883 
L 17.453497 -98.698249 
L 17.962734 -96.831436 
L 18.424094 -94.952274 
L 18.994948 -93.103447 
L 19.596602 -91.265147 
L 20.114678 -89.399655 
L 20.778483 -87.582043 
L 21.503915 -85.78818 
L 22.116891 -83.951942 
L 22.870889 -82.17024 
L 23.575169 -80.367482 
L 24.388562 -78.611649 
L 25.231301 -76.87028 
L 26.025083 -75.104929 
L 26.926321 -73.392473 
L 27.856305 -71.695971 
L 28.814803 -70.015912 
L 29.726796 -68.308742 
L 30.742507 -66.661828 
L 31.786113 -65.032914 
L 32.874851 -63.434079 
L 33.886772 -61.783527 
L 35.031397 -60.223303 
L 36.185524 -58.671233 
L 37.30447 -57.092367 
L 38.513988 -55.582271 
L 39.749919 -54.094242 
L 40.958193 -52.582921 
L 42.248364 -51.141133 
L 43.517425 -49.680517 
L 44.886027 -48.311903 
L 46.190386 -46.882637 
L 47.552547 -45.508631 
L 48.947339 -44.167731 
L 50.355725 -42.841018 
L 51.805103 -41.559233 
L 53.247131 -40.268864 
L 54.745957 -39.044943 
L 56.232597 -37.806206 
L 57.756357 -36.613322 
L 59.302572 -35.449682 
L 61.015212 -34.51842 
L 62.78582 -33.686068 
L 64.567392 -32.890325 
L 66.35285 -32.121453 
L 68.147464 -31.388289 
L 69.944097 -30.680048 
L 71.748062 -30.006146 
L 73.552527 -29.355241 
L 75.362862 -28.737458 
L 77.172603 -28.141007 
L 78.987078 -27.576675 
L 80.800201 -27.032252 
L 82.617166 -26.519118 
L 84.432271 -26.024654 
L 86.250504 -25.560778 
L 88.066559 -25.114478 
L 89.885162 -24.698164 
L 91.701418 -24.298444 
L 93.511949 -23.903462 
L 95.330676 -23.556766 
L 97.14699 -23.225415 
L 98.964772 -22.922898 
L 100.780233 -22.634972 
L 102.592527 -22.35596 
L 104.409077 -22.118845 
L 106.223548 -21.895378 
L 108.038787 -21.699966 
L 109.851094 -21.510168 
L 111.664406 -21.34944 
L 113.478164 -21.216474 
L 115.290199 -21.092265 
L 117.102444 -20.992996 
L 118.914865 -20.921325 
L 120.726444 -20.861661 
L 122.5379 -20.823184 
L 124.349258 -20.809254 
L 126.160429 -20.809219 
L 127.971789 -20.823099 
L 129.783249 -20.861536 
L 131.594824 -20.921306 
L 133.407261 -20.992781 
L 135.219492 -21.092237 
L 137.031527 -21.216441 
L 138.845326 -21.349098 
L 140.6586 -21.510126 
L 142.470908 -21.69992 
L 144.286226 -21.894915 
L 146.100622 -22.118791 
L 147.917281 -22.355415 
L 149.729594 -22.634392 
L 151.544932 -22.922833 
L 153.36288 -23.224759 
L 155.179032 -23.556695 
L 156.997968 -23.902733 
L 158.808523 -24.297686 
L 160.624553 -24.698086 
L 162.443436 -25.113654 
L 164.259215 -25.560696 
L 166.077782 -26.023771 
L 167.892558 -26.519033 
L 169.709913 -27.031317 
L 171.52265 -27.576589 
L 173.337573 -28.140027 
L 175.14687 -28.737372 
L 176.957712 -29.354225 
L 178.761673 -30.006062 
L 180.566203 -30.679008 
L 182.362273 -31.388208 
L 184.157506 -32.120403 
L 185.942346 -32.890249 
L 187.724588 -33.685021 
L 189.494526 -34.51835 
L 191.206577 -35.45041 
L 192.753748 -36.612777 
L 194.271787 -37.812873 
L 195.749385 -39.062345 
L 197.254107 -40.278756 
L 198.725167 -41.535969 
L 200.163797 -42.830285 
L 201.560112 -44.170088 
L 202.966932 -45.498667 
L 204.294943 -46.906573 
L 205.639044 -48.297304 
L 206.948525 -49.720596 
L 208.290136 -51.115641 
L 209.542741 -52.590398 
L 210.765593 -54.08944 
L 212.007843 -55.572611 
L 213.213062 -57.086348 
L 214.33949 -58.659892 
L 215.518126 -60.194889 
L 216.620148 -61.785429 
L 217.68325 -63.402035 
L 218.768596 -65.004232 
L 219.731926 -66.683432 
L 220.78191 -68.30932 
L 221.677459 -70.025772 
L 222.637119 -71.704801 
L 223.584733 -73.391762 
L 224.480526 -75.106962 
L 225.241182 -76.888026 
L 226.084125 -78.628512 
L 226.881352 -80.390599 
L 227.646235 -82.16716 
L 228.378544 -83.957557 
L 229.082908 -85.75934 
L 229.748065 -87.576072 
L 230.380074 -89.404653 
L 230.978762 -91.244439 
L 231.54228 -93.09529 
L 232.072664 -94.955859 
L 232.569327 -96.82565 
L 233.032149 -98.704021 
L 233.453713 -100.591951 
L 233.84755 -102.485627 
L 234.207325 -104.385914 
L 234.532979 -106.292174 
L 234.812682 -108.205534 
L 235.069228 -110.121725 
L 235.41731 -112.027635 
L 235.605991 -113.953456 
L 235.760437 -115.882084 
L 235.865452 -117.813828 
L 235.951034 -119.745962 
L 236.002504 -121.679033 
L 236.0033 -123.612575 
L 236.113897 -125.546515 
L 236.063211 -127.480682 
L 235.978668 -129.413369 
L 235.860361 -131.343986 
L 235.691382 -133.270607 
L 235.505998 -135.195041 
L 235.413043 -137.130004 
L 235.160665 -139.048438 
L 234.87513 -140.961924 
L 234.540997 -142.867292 
z
" style="stroke: #ffee9c"/>
    </defs>
    <g clip-path="url(#p4e81d3ab10)">
     <use xlink:href="#ma6a0bae225" x="0" y="249.158125" style="fill: #ffee9c; stroke: #ffee9c"/>
    </g>
   </g>
   <g id="matplotlib.axis_1">
    <g id="xtick_1">
     <g id="line2d_1">
      <path d="M 125.254844 124.579062 
L 125.254844 13.699062 
" clip-path="url(#p4e81d3ab10)" style="fill: none; stroke: #b0b0b0; stroke-width: 0.8; stroke-linecap: square"/>
     </g>
     <g id="text_1">
      <!-- N -->
      <g transform="translate(121.070469 7.958438) scale(0.1 -0.1)">
       <defs>
        <path id="DejaVuSans-Bold-4e" d="M 588 4666 
L 1931 4666 
L 3628 1466 
L 3628 4666 
L 4769 4666 
L 4769 0 
L 3425 0 
L 1728 3200 
L 1728 0 
L 588 0 
L 588 4666 
z
" transform="scale(0.015625)"/>
       </defs>
       <use xlink:href="#DejaVuSans-Bold-4e"/>
      </g>
     </g>
    </g>
    <g id="xtick_2">
     <g id="line2d_2">
      <path d="M 125.254844 124.579062 
L 203.658844 46.175063 
" clip-path="url(#p4e81d3ab10)" style="fill: none; stroke: #b0b0b0; stroke-width: 0.8; stroke-linecap: square"/>
     </g>
    </g>
    <g id="xtick_3">
     <g id="line2d_3">
      <path d="M 125.254844 124.579062 
L 236.134844 124.579062 
" clip-path="url(#p4e81d3ab10)" style="fill: none; stroke: #b0b0b0; stroke-width: 0.8; stroke-linecap: square"/>
     </g>
     <g id="text_2">
      <!-- E -->
      <g transform="translate(241.219219 127.338437) scale(0.1 -0.1)">
       <defs>
        <path id="DejaVuSans-Bold-45" d="M 588 4666 
L 3834 4666 
L 3834 3756 
L 1791 3756 
L 1791 2888 
L 3713 2888 
L 3713 1978 
L 1791 1978 
L 1791 909 
L 3903 909 
L 3903 0 
L 588 0 
L 588 4666 
z
" transform="scale(0.015625)"/>
       </defs>
       <use xlink:href="#DejaVuSans-Bold-45"/>
      </g>
     </g>
    </g>
    <g id="xtick_4">
     <g id="line2d_4">
      <path d="M 125.254844 124.579062 
L 203.658844 202.983062 
" clip-path="url(#p4e81d3ab10)" style="fill: none; stroke: #b0b0b0; stroke-width: 0.8; stroke-linecap: square"/>
     </g>
    </g>
    <g id="xtick_5">
     <g id="line2d_5">
      <path d="M 125.254844 124.579062 
L 125.254844 235.459062 
" clip-path="url(#p4e81d3ab10)" style="fill: none; stroke: #b0b0b0; stroke-width: 0.8; stroke-linecap: square"/>
     </g>
     <g id="text_3">
      <!-- S -->
      <g transform="translate(121.654062 246.718437) scale(0.1 -0.1)">
       <defs>
        <path id="DejaVuSans-Bold-53" d="M 3834 4519 
L 3834 3531 
Q 3450 3703 3084 3790 
Q 2719 3878 2394 3878 
Q 1963 3878 1756 3759 
Q 1550 3641 1550 3391 
Q 1550 3203 1689 3098 
Q 1828 2994 2194 2919 
L 2706 2816 
Q 3484 2659 3812 2340 
Q 4141 2022 4141 1434 
Q 4141 663 3683 286 
Q 3225 -91 2284 -91 
Q 1841 -91 1394 -6 
Q 947 78 500 244 
L 500 1259 
Q 947 1022 1364 901 
Q 1781 781 2169 781 
Q 2563 781 2772 912 
Q 2981 1044 2981 1288 
Q 2981 1506 2839 1625 
Q 2697 1744 2272 1838 
L 1806 1941 
Q 1106 2091 782 2419 
Q 459 2747 459 3303 
Q 459 4000 909 4375 
Q 1359 4750 2203 4750 
Q 2588 4750 2994 4692 
Q 3400 4634 3834 4519 
z
" transform="scale(0.015625)"/>
       </defs>
       <use xlink:href="#DejaVuSans-Bold-53"/>
      </g>
     </g>
    </g>
    <g id="xtick_6">
     <g id="line2d_6">
      <path d="M 125.254844 124.579062 
L 46.850844 202.983062 
" clip-path="url(#p4e81d3ab10)" style="fill: none; stroke: #b0b0b0; stroke-width: 0.8; stroke-linecap: square"/>
     </g>
    </g>
    <g id="xtick_7">
     <g id="line2d_7">
      <path d="M 125.254844 124.579062 
L 14.374844 124.579063 
" clip-path="url(#p4e81d3ab10)" style="fill: none; stroke: #b0b0b0; stroke-width: 0.8; stroke-linecap: square"/>
     </g>
     <g id="text_4">
      <!-- W -->
      <g transform="translate(0.36 127.338438) scale(0.1 -0.1)">
       <defs>
        <path id="DejaVuSans-Bold-57" d="M 191 4666 
L 1344 4666 
L 2150 1275 
L 2950 4666 
L 4109 4666 
L 4909 1275 
L 5716 4666 
L 6859 4666 
L 5759 0 
L 4372 0 
L 3525 3547 
L 2688 0 
L 1300 0 
L 191 4666 
z
" transform="scale(0.015625)"/>
       </defs>
       <use xlink:href="#DejaVuSans-Bold-57"/>
      </g>
     </g>
    </g>
    <g id="xtick_8">
     <g id="line2d_8">
      <path d="M 125.254844 124.579062 
L 46.850844 46.175063 
" clip-path="url(#p4e81d3ab10)" style="fill: none; stroke: #b0b0b0; stroke-width: 0.8; stroke-linecap: square"/>
     </g>
    </g>
   </g>
   <g id="matplotlib.axis_2"/>
   <g id="patch_3">
    <path d="M 125.254844 124.579062 
C 125.254844 124.579062 125.254844 124.579062 125.254844 124.579062 
C 125.254844 124.579062 125.254844 124.579062 125.254844 124.579062 
L 125.254844 124.579062 
C 125.254844 124.579062 125.254844 124.579062 125.254844 124.579062 
C 125.254844 124.579062 125.254844 124.579062 125.254844 124.579062 
z
" clip-path="url(#p4e81d3ab10)" style="fill: #d9d9d9"/>
   </g>
   <g id="patch_4">
    <path d="M 125.254844 124.579062 
C 125.254844 124.579062 125.254844 124.579062 125.254844 124.579062 
C 125.254844 124.579062 125.254844 124.579062 125.254844 124.579062 
L 125.254844 124.579062 
C 125.254844 124.579062 125.254844 124.579062 125.254844 124.579062 
C 125.254844 124.579062 125.254844 124.579062 125.254844 124.579062 
z
" clip-path="url(#p4e81d3ab10)" style="fill: #d9d9d9"/>
   </g>
   <g id="patch_5">
    <path d="M 125.254844 124.579062 
C 125.254844 124.579062 125.254844 124.579062 125.254844 124.579062 
C 125.254844 124.579062 125.254844 124.579062 125.254844 124.579062 
L 125.254844 124.579062 
C 125.254844 124.579062 125.254844 124.579062 125.254844 124.579062 
C 125.254844 124.579062 125.254844 124.579062 125.254844 124.579062 
z
" clip-path="url(#p4e81d3ab10)" style="fill: #d9d9d9"/>
   </g>
   <g id="patch_6">
    <path d="M 125.254844 124.579062 
C 125.254844 124.579062 125.254844 124.579062 125.254844 124.579062 
C 125.254844 124.579062 125.254844 124.579062 125.254844 124.579062 
L 125.254844 124.579062 
C 125.254844 124.579062 125.254844 124.579062 125.254844 124.579062 
C 125.254844 124.579062 125.254844 124.579062 125.254844 124.579062 
z
" clip-path="url(#p4e81d3ab10)" style="fill: #d9d9d9"/>
   </g>
   <g id="patch_7">
    <path d="M 125.254844 124.579062 
C 125.254844 124.579062 125.254844 124.579062 125.254844 124.579062 
C 125.254844 124.579062 125.254844 124.579062 125.254844 124.579062 
L 125.254844 124.579062 
C 125.254844 124.579062 125.254844 124.579062 125.254844 124.579062 
C 125.254844 124.579062 125.254844 124.579062 125.254844 124.579062 
z
" clip-path="url(#p4e81d3ab10)" style="fill: #d9d9d9"/>
   </g>
   <g id="patch_8">
    <path d="M 125.254844 124.579062 
C 125.254844 124.579062 125.254844 124.579062 125.254844 124.579062 
C 125.254844 124.579062 125.254844 124.579062 125.254844 124.579062 
L 125.254844 124.579062 
C 125.254844 124.579062 125.254844 124.579062 125.254844 124.579062 
C 125.254844 124.579062 125.254844 124.579062 125.254844 124.579062 
z
" clip-path="url(#p4e81d3ab10)" style="fill: #d9d9d9"/>
   </g>
   <g id="patch_9">
    <path d="M 125.254844 124.579062 
C 125.254844 124.579062 125.254844 124.579062 125.254844 124.579062 
C 125.254844 124.579062 125.254844 124.579062 125.254844 124.579062 
L 125.254844 124.579062 
C 125.254844 124.579062 125.254844 124.579062 125.254844 124.579062 
C 125.254844 124.579062 125.254844 124.579062 125.254844 124.579062 
z
" clip-path="url(#p4e81d3ab10)" style="fill: #d9d9d9"/>
   </g>
   <g id="patch_10">
    <path d="M 125.254844 124.579062 
C 125.254844 124.579062 125.254844 124.579062 125.254844 124.579062 
C 125.254844 124.579062 125.254844 124.579062 125.254844 124.579062 
L 125.254844 124.579062 
C 125.254844 124.579062 125.254844 124.579062 125.254844 124.579062 
C 125.254844 124.579062 125.254844 124.579062 125.254844 124.579062 
z
" clip-path="url(#p4e81d3ab10)" style="fill: #d9d9d9"/>
   </g>
   <g id="patch_11">
    <path d="M 125.254844 124.579062 
C 125.254844 124.579062 125.254844 124.579062 125.254844 124.579062 
C 125.254844 124.579062 125.254844 124.579062 125.254844 124.579062 
L 125.254844 124.579062 
C 125.254844 124.579062 125.254844 124.579062 125.254844 124.579062 
C 125.254844 124.579062 125.254844 124.579062 125.254844 124.579062 
z
" clip-path="url(#p4e81d3ab10)" style="fill: #d9d9d9"/>
   </g>
   <g id="patch_12">
    <path d="M 125.254844 124.579062 
C 125.254844 124.579062 125.254844 124.579062 125.254844 124.579062 
C 125.254844 124.579062 125.254844 124.579062 125.254844 124.579062 
L 125.254844 124.579062 
C 125.254844 124.579062 125.254844 124.579062 125.254844 124.579062 
C 125.254844 124.579062 125.254844 124.579062 125.254844 124.579062 
z
" clip-path="url(#p4e81d3ab10)" style="fill: #d9d9d9"/>
   </g>
   <g id="patch_13">
    <path d="M 125.254844 124.579062 
C 125.254844 124.579062 125.254844 124.579062 125.254844 124.579062 
C 125.254844 124.579062 125.254844 124.579062 125.254844 124.579062 
L 125.254844 124.579062 
C 125.254844 124.579062 125.254844 124.579062 125.254844 124.579062 
C 125.254844 124.579062 125.254844 124.579062 125.254844 124.579062 
z
" clip-path="url(#p4e81d3ab10)" style="fill: #d9d9d9"/>
   </g>
   <g id="patch_14">
    <path d="M 125.254844 124.579062 
C 125.254844 124.579062 125.254844 124.579062 125.254844 124.579062 
C 125.254844 124.579062 125.254844 124.579062 125.254844 124.579062 
L 125.254844 124.579062 
C 125.254844 124.579062 125.254844 124.579062 125.254844 124.579062 
C 125.254844 124.579062 125.254844 124.579062 125.254844 124.579062 
z
" clip-path="url(#p4e81d3ab10)" style="fill: #d9d9d9"/>
   </g>
   <g id="patch_15">
    <path d="M 125.254844 124.579062 
C 125.254844 124.579062 125.254844 124.579062 125.254844 124.579062 
C 125.254844 124.579062 125.254844 124.579062 125.254844 124.579062 
L 125.254844 124.579062 
C 125.254844 124.579062 125.254844 124.579062 125.254844 124.579062 
C 125.254844 124.579062 125.254844 124.579062 125.254844 124.579062 
z
" clip-path="url(#p4e81d3ab10)" style="fill: #d9d9d9"/>
   </g>
   <g id="patch_16">
    <path d="M 125.254844 124.579062 
C 125.254844 124.579062 125.254844 124.579062 125.254844 124.579062 
C 125.254844 124.579062 125.254844 124.579062 125.254844 124.579062 
L 125.254844 124.579062 
C 125.254844 124.579062 125.254844 124.579062 125.254844 124.579062 
C 125.254844 124.579062 125.254844 124.579062 125.254844 124.579062 
z
" clip-path="url(#p4e81d3ab10)" style="fill: #d9d9d9"/>
   </g>
   <g id="patch_17">
    <path d="M 125.254844 124.579062 
C 125.254844 124.579062 125.254844 124.579062 125.254844 124.579062 
C 125.254844 124.579062 125.254844 124.579062 125.254844 124.579062 
L 125.254844 124.579062 
C 125.254844 124.579062 125.254844 124.579062 125.254844 124.579062 
C 125.254844 124.579062 125.254844 124.579062 125.254844 124.579062 
z
" clip-path="url(#p4e81d3ab10)" style="fill: #d9d9d9"/>
   </g>
   <g id="patch_18">
    <path d="M 125.254844 124.579062 
C 125.254844 124.579062 125.254844 124.579062 125.254844 124.579062 
C 125.254844 124.579062 125.254844 124.579062 125.254844 124.579062 
L 125.254844 124.579062 
C 125.254844 124.579062 125.254844 124.579062 125.254844 124.579062 
C 125.254844 124.579062 125.254844 124.579062 125.254844 124.579062 
z
" clip-path="url(#p4e81d3ab10)" style="fill: #d9d9d9"/>
   </g>
   <g id="patch_19">
    <path d="M 125.254844 124.579062 
C 125.254844 124.579062 125.254844 124.579062 125.254844 124.579062 
C 125.254844 124.579062 125.254844 124.579062 125.254844 124.579062 
L 125.254844 124.579062 
C 125.254844 124.579062 125.254844 124.579062 125.254844 124.579062 
C 125.254844 124.579062 125.254844 124.579062 125.254844 124.579062 
z
" clip-path="url(#p4e81d3ab10)" style="fill: #d9d9d9"/>
   </g>
   <g id="patch_20">
    <path d="M 125.254844 124.579062 
C 125.254844 124.579062 125.254844 124.579062 125.254844 124.579062 
C 125.254844 124.579062 125.254844 124.579062 125.254844 124.579062 
L 125.254844 124.579062 
C 125.254844 124.579062 125.254844 124.579062 125.254844 124.579062 
C 125.254844 124.579062 125.254844 124.579062 125.254844 124.579062 
z
" clip-path="url(#p4e81d3ab10)" style="fill: #d9d9d9"/>
   </g>
   <g id="patch_21">
    <path d="M 125.254844 124.579062 
C 125.254844 124.579062 125.254844 124.579062 125.254844 124.579062 
C 125.254844 124.579062 125.254844 124.579062 125.254844 124.579062 
L 113.135382 147.25298 
C 113.877533 147.649669 114.638713 148.00968 115.416173 148.331714 
C 116.193633 148.653749 116.986435 148.937418 117.791716 149.181697 
z
" clip-path="url(#p4e81d3ab10)" style="fill: #d9d9d9"/>
   </g>
   <g id="patch_22">
    <path d="M 125.254844 124.579062 
C 125.254844 124.579062 125.254844 124.579062 125.254844 124.579062 
C 125.254844 124.579062 125.254844 124.579062 125.254844 124.579062 
L 112.95666 139.564443 
C 113.447154 139.966981 113.957115 140.345195 114.484703 140.697717 
C 115.012291 141.05024 115.556868 141.376647 116.116469 141.67576 
z
" clip-path="url(#p4e81d3ab10)" style="fill: #d9d9d9"/>
   </g>
   <g id="patch_23">
    <path d="M 125.254844 124.579062 
C 125.254844 124.579062 125.254844 124.579062 125.254844 124.579062 
C 125.254844 124.579062 125.254844 124.579062 125.254844 124.579062 
L 125.254844 124.579062 
C 125.254844 124.579062 125.254844 124.579062 125.254844 124.579062 
C 125.254844 124.579062 125.254844 124.579062 125.254844 124.579062 
z
" clip-path="url(#p4e81d3ab10)" style="fill: #d9d9d9"/>
   </g>
   <g id="patch_24">
    <path d="M 125.254844 124.579062 
C 125.254844 124.579062 125.254844 124.579062 125.254844 124.579062 
C 125.254844 124.579062 125.254844 124.579062 125.254844 124.579062 
L 90.948162 142.916366 
C 91.548369 144.039275 92.203347 145.132039 92.910728 146.19071 
C 93.618109 147.249381 94.377042 148.272684 95.184786 149.256921 
z
" clip-path="url(#p4e81d3ab10)" style="fill: #d9d9d9"/>
   </g>
   <g id="patch_25">
    <path d="M 125.254844 124.579062 
C 125.254844 124.579062 125.254844 124.579062 125.254844 124.579062 
C 125.254844 124.579062 125.254844 124.579062 125.254844 124.579062 
L 86.871876 136.222408 
C 87.25298 137.47874 87.695537 138.715604 88.197948 139.928531 
C 88.700359 141.141459 89.262019 142.328988 89.880898 143.48683 
z
" clip-path="url(#p4e81d3ab10)" style="fill: #d9d9d9"/>
   </g>
   <g id="patch_26">
    <path d="M 125.254844 124.579062 
C 125.254844 124.579062 125.254844 124.579062 125.254844 124.579062 
C 125.254844 124.579062 125.254844 124.579062 125.254844 124.579062 
L 125.254844 124.579062 
C 125.254844 124.579062 125.254844 124.579062 125.254844 124.579062 
C 125.254844 124.579062 125.254844 124.579062 125.254844 124.579062 
z
" clip-path="url(#p4e81d3ab10)" style="fill: #d9d9d9"/>
   </g>
   <g id="patch_27">
    <path d="M 125.254844 124.579062 
C 125.254844 124.579062 125.254844 124.579062 125.254844 124.579062 
C 125.254844 124.579062 125.254844 124.579062 125.254844 124.579062 
L 125.254844 124.579062 
C 125.254844 124.579062 125.254844 124.579062 125.254844 124.579062 
C 125.254844 124.579062 125.254844 124.579062 125.254844 124.579062 
z
" clip-path="url(#p4e81d3ab10)" style="fill: #d9d9d9"/>
   </g>
   <g id="patch_28">
    <path d="M 125.254844 124.579062 
C 125.254844 124.579062 125.254844 124.579062 125.254844 124.579062 
C 125.254844 124.579062 125.254844 124.579062 125.254844 124.579062 
L 125.254844 124.579062 
C 125.254844 124.579062 125.254844 124.579062 125.254844 124.579062 
C 125.254844 124.579062 125.254844 124.579062 125.254844 124.579062 
z
" clip-path="url(#p4e81d3ab10)" style="fill: #d9d9d9"/>
   </g>
   <g id="patch_29">
    <path d="M 125.254844 124.579062 
C 125.254844 124.579062 125.254844 124.579062 125.254844 124.579062 
C 125.254844 124.579062 125.254844 124.579062 125.254844 124.579062 
L 125.254844 124.579062 
C 125.254844 124.579062 125.254844 124.579062 125.254844 124.579062 
C 125.254844 124.579062 125.254844 124.579062 125.254844 124.579062 
z
" clip-path="url(#p4e81d3ab10)" style="fill: #d9d9d9"/>
   </g>
   <g id="patch_30">
    <path d="M 125.254844 124.579062 
C 125.254844 124.579062 125.254844 124.579062 125.254844 124.579062 
C 125.254844 124.579062 125.254844 124.579062 125.254844 124.579062 
L 109.636344 111.761291 
C 109.2168 112.272508 108.822607 112.804015 108.45519 113.353893 
C 108.087774 113.903771 107.747576 114.471356 107.435826 115.054599 
z
" clip-path="url(#p4e81d3ab10)" style="fill: #d9d9d9"/>
   </g>
   <g id="patch_31">
    <path d="M 125.254844 124.579062 
C 125.254844 124.579062 125.254844 124.579062 125.254844 124.579062 
C 125.254844 124.579062 125.254844 124.579062 125.254844 124.579062 
L 125.254844 124.579062 
C 125.254844 124.579062 125.254844 124.579062 125.254844 124.579062 
C 125.254844 124.579062 125.254844 124.579062 125.254844 124.579062 
z
" clip-path="url(#p4e81d3ab10)" style="fill: #d9d9d9"/>
   </g>
   <g id="patch_32">
    <path d="M 125.254844 124.579062 
C 125.254844 124.579062 125.254844 124.579062 125.254844 124.579062 
C 125.254844 124.579062 125.254844 124.579062 125.254844 124.579062 
L 125.254844 124.579062 
C 125.254844 124.579062 125.254844 124.579062 125.254844 124.579062 
C 125.254844 124.579062 125.254844 124.579062 125.254844 124.579062 
z
" clip-path="url(#p4e81d3ab10)" style="fill: #d9d9d9"/>
   </g>
   <g id="patch_33">
    <path d="M 125.254844 124.579062 
C 125.254844 124.579062 125.254844 124.579062 125.254844 124.579062 
C 125.254844 124.579062 125.254844 124.579062 125.254844 124.579062 
L 125.254844 124.579062 
C 125.254844 124.579062 125.254844 124.579062 125.254844 124.579062 
C 125.254844 124.579062 125.254844 124.579062 125.254844 124.579062 
z
" clip-path="url(#p4e81d3ab10)" style="fill: #d9d9d9"/>
   </g>
   <g id="patch_34">
    <path d="M 125.254844 124.579062 
C 125.254844 124.579062 125.254844 124.579062 125.254844 124.579062 
C 125.254844 124.579062 125.254844 124.579062 125.254844 124.579062 
L 125.254844 124.579062 
C 125.254844 124.579062 125.254844 124.579062 125.254844 124.579062 
C 125.254844 124.579062 125.254844 124.579062 125.254844 124.579062 
z
" clip-path="url(#p4e81d3ab10)" style="fill: #d9d9d9"/>
   </g>
   <g id="patch_35">
    <path d="M 125.254844 124.579062 
C 125.254844 124.579062 125.254844 124.579062 125.254844 124.579062 
C 125.254844 124.579062 125.254844 124.579062 125.254844 124.579062 
L 125.254844 124.579062 
C 125.254844 124.579062 125.254844 124.579062 125.254844 124.579062 
C 125.254844 124.579062 125.254844 124.579062 125.254844 124.579062 
z
" clip-path="url(#p4e81d3ab10)" style="fill: #a1a1d8"/>
   </g>
   <g id="patch_36">
    <path d="M 125.254844 124.579062 
C 125.254844 124.579062 125.254844 124.579062 125.254844 124.579062 
C 125.254844 124.579062 125.254844 124.579062 125.254844 124.579062 
L 125.254844 124.579062 
C 125.254844 124.579062 125.254844 124.579062 125.254844 124.579062 
C 125.254844 124.579062 125.254844 124.579062 125.254844 124.579062 
z
" clip-path="url(#p4e81d3ab10)" style="fill: #a1a1d8"/>
   </g>
   <g id="patch_37">
    <path d="M 125.254844 124.579062 
C 125.254844 124.579062 125.254844 124.579062 125.254844 124.579062 
C 125.254844 124.579062 125.254844 124.579062 125.254844 124.579062 
L 125.254844 124.579062 
C 125.254844 124.579062 125.254844 124.579062 125.254844 124.579062 
C 125.254844 124.579062 125.254844 124.579062 125.254844 124.579062 
z
" clip-path="url(#p4e81d3ab10)" style="fill: #a1a1d8"/>
   </g>
   <g id="patch_38">
    <path d="M 125.254844 124.579062 
C 125.254844 124.579062 125.254844 124.579062 125.254844 124.579062 
C 125.254844 124.579062 125.254844 124.579062 125.254844 124.579062 
L 125.254844 124.579062 
C 125.254844 124.579062 125.254844 124.579062 125.254844 124.579062 
C 125.254844 124.579062 125.254844 124.579062 125.254844 124.579062 
z
" clip-path="url(#p4e81d3ab10)" style="fill: #a1a1d8"/>
   </g>
   <g id="patch_39">
    <path d="M 125.254844 124.579062 
C 125.254844 124.579062 125.254844 124.579062 125.254844 124.579062 
C 125.254844 124.579062 125.254844 124.579062 125.254844 124.579062 
L 125.254844 124.579062 
C 125.254844 124.579062 125.254844 124.579062 125.254844 124.579062 
C 125.254844 124.579062 125.254844 124.579062 125.254844 124.579062 
z
" clip-path="url(#p4e81d3ab10)" style="fill: #a1a1d8"/>
   </g>
   <g id="patch_40">
    <path d="M 125.254844 124.579062 
C 125.254844 124.579062 125.254844 124.579062 125.254844 124.579062 
C 125.254844 124.579062 125.254844 124.579062 125.254844 124.579062 
L 125.254844 124.579062 
C 125.254844 124.579062 125.254844 124.579062 125.254844 124.579062 
C 125.254844 124.579062 125.254844 124.579062 125.254844 124.579062 
z
" clip-path="url(#p4e81d3ab10)" style="fill: #a1a1d8"/>
   </g>
   <g id="patch_41">
    <path d="M 125.254844 124.579062 
C 125.254844 124.579062 125.254844 124.579062 125.254844 124.579062 
C 125.254844 124.579062 125.254844 124.579062 125.254844 124.579062 
L 125.254844 124.579062 
C 125.254844 124.579062 125.254844 124.579062 125.254844 124.579062 
C 125.254844 124.579062 125.254844 124.579062 125.254844 124.579062 
z
" clip-path="url(#p4e81d3ab10)" style="fill: #a1a1d8"/>
   </g>
   <g id="patch_42">
    <path d="M 125.254844 124.579062 
C 125.254844 124.579062 125.254844 124.579062 125.254844 124.579062 
C 125.254844 124.579062 125.254844 124.579062 125.254844 124.579062 
L 125.254844 124.579062 
C 125.254844 124.579062 125.254844 124.579062 125.254844 124.579062 
C 125.254844 124.579062 125.254844 124.579062 125.254844 124.579062 
z
" clip-path="url(#p4e81d3ab10)" style="fill: #a1a1d8"/>
   </g>
   <g id="patch_43">
    <path d="M 125.254844 124.579062 
C 125.254844 124.579062 125.254844 124.579062 125.254844 124.579062 
C 125.254844 124.579062 125.254844 124.579062 125.254844 124.579062 
L 125.254844 124.579062 
C 125.254844 124.579062 125.254844 124.579062 125.254844 124.579062 
C 125.254844 124.579062 125.254844 124.579062 125.254844 124.579062 
z
" clip-path="url(#p4e81d3ab10)" style="fill: #a1a1d8"/>
   </g>
   <g id="patch_44">
    <path d="M 125.254844 124.579062 
C 125.254844 124.579062 125.254844 124.579062 125.254844 124.579062 
C 125.254844 124.579062 125.254844 124.579062 125.254844 124.579062 
L 125.254844 124.579062 
C 125.254844 124.579062 125.254844 124.579062 125.254844 124.579062 
C 125.254844 124.579062 125.254844 124.579062 125.254844 124.579062 
z
" clip-path="url(#p4e81d3ab10)" style="fill: #a1a1d8"/>
   </g>
   <g id="patch_45">
    <path d="M 125.254844 124.579062 
C 125.254844 124.579062 125.254844 124.579062 125.254844 124.579062 
C 125.254844 124.579062 125.254844 124.579062 125.254844 124.579062 
L 125.254844 124.579062 
C 125.254844 124.579062 125.254844 124.579062 125.254844 124.579062 
C 125.254844 124.579062 125.254844 124.579062 125.254844 124.579062 
z
" clip-path="url(#p4e81d3ab10)" style="fill: #a1a1d8"/>
   </g>
   <g id="patch_46">
    <path d="M 125.254844 124.579062 
C 125.254844 124.579062 125.254844 124.579062 125.254844 124.579062 
C 125.254844 124.579062 125.254844 124.579062 125.254844 124.579062 
L 125.254844 124.579062 
C 125.254844 124.579062 125.254844 124.579062 125.254844 124.579062 
C 125.254844 124.579062 125.254844 124.579062 125.254844 124.579062 
z
" clip-path="url(#p4e81d3ab10)" style="fill: #a1a1d8"/>
   </g>
   <g id="patch_47">
    <path d="M 125.254844 124.579062 
C 125.254844 124.579062 125.254844 124.579062 125.254844 124.579062 
C 125.254844 124.579062 125.254844 124.579062 125.254844 124.579062 
L 125.254844 124.579062 
C 125.254844 124.579062 125.254844 124.579062 125.254844 124.579062 
C 125.254844 124.579062 125.254844 124.579062 125.254844 124.579062 
z
" clip-path="url(#p4e81d3ab10)" style="fill: #a1a1d8"/>
   </g>
   <g id="patch_48">
    <path d="M 125.254844 124.579062 
C 125.254844 124.579062 125.254844 124.579062 125.254844 124.579062 
C 125.254844 124.579062 125.254844 124.579062 125.254844 124.579062 
L 125.254844 124.579062 
C 125.254844 124.579062 125.254844 124.579062 125.254844 124.579062 
C 125.254844 124.579062 125.254844 124.579062 125.254844 124.579062 
z
" clip-path="url(#p4e81d3ab10)" style="fill: #a1a1d8"/>
   </g>
   <g id="patch_49">
    <path d="M 125.254844 124.579062 
C 125.254844 124.579062 125.254844 124.579062 125.254844 124.579062 
C 125.254844 124.579062 125.254844 124.579062 125.254844 124.579062 
L 125.254844 124.579062 
C 125.254844 124.579062 125.254844 124.579062 125.254844 124.579062 
C 125.254844 124.579062 125.254844 124.579062 125.254844 124.579062 
z
" clip-path="url(#p4e81d3ab10)" style="fill: #a1a1d8"/>
   </g>
   <g id="patch_50">
    <path d="M 125.254844 124.579062 
C 125.254844 124.579062 125.254844 124.579062 125.254844 124.579062 
C 125.254844 124.579062 125.254844 124.579062 125.254844 124.579062 
L 127.45499 146.917521 
C 128.186161 146.845507 128.913356 146.737638 129.633947 146.594304 
C 130.354539 146.450969 131.067659 146.272342 131.770732 146.059067 
z
" clip-path="url(#p4e81d3ab10)" style="fill: #a1a1d8"/>
   </g>
   <g id="patch_51">
    <path d="M 125.254844 124.579062 
C 125.254844 124.579062 125.254844 124.579062 125.254844 124.579062 
C 125.254844 124.579062 125.254844 124.579062 125.254844 124.579062 
L 122.985005 147.625126 
C 123.739337 147.699421 124.496862 147.736636 125.254844 147.736636 
C 126.012826 147.736636 126.770351 147.699421 127.524683 147.625126 
z
" clip-path="url(#p4e81d3ab10)" style="fill: #a1a1d8"/>
   </g>
   <g id="patch_52">
    <path d="M 125.254844 124.579062 
C 125.254844 124.579062 125.254844 124.579062 125.254844 124.579062 
C 125.254844 124.579062 125.254844 124.579062 125.254844 124.579062 
L 105.150608 190.853847 
C 107.31988 191.511888 109.520154 192.063028 111.74348 192.505275 
C 113.966806 192.947522 116.210506 193.280344 118.466474 193.502537 
z
" clip-path="url(#p4e81d3ab10)" style="fill: #a1a1d8"/>
   </g>
   <g id="patch_53">
    <path d="M 117.791716 149.181697 
C 116.986435 148.937418 116.193633 148.653749 115.416173 148.331714 
C 114.638713 148.00968 113.877533 147.649669 113.135382 147.25298 
L 105.066415 162.348957 
C 106.30268 163.009754 107.570643 163.609456 108.865724 164.145897 
C 110.160806 164.682337 111.481445 165.154869 112.82287 165.561786 
z
" clip-path="url(#p4e81d3ab10)" style="fill: #a1a1d8"/>
   </g>
   <g id="patch_54">
    <path d="M 116.116469 141.67576 
C 115.556868 141.376647 115.012291 141.05024 114.484703 140.697717 
C 113.957115 140.345195 113.447154 139.966981 112.95666 139.564443 
L 90.43187 167.010979 
C 91.82073 168.150787 93.264714 169.221718 94.758607 170.219906 
C 96.2525 171.218093 97.794501 172.142333 99.37904 172.989286 
z
" clip-path="url(#p4e81d3ab10)" style="fill: #a1a1d8"/>
   </g>
   <g id="patch_55">
    <path d="M 125.254844 124.579062 
C 125.254844 124.579062 125.254844 124.579062 125.254844 124.579062 
C 125.254844 124.579062 125.254844 124.579062 125.254844 124.579062 
L 69.593767 170.258928 
C 71.088937 172.080798 72.672655 173.828162 74.3392 175.494707 
C 76.005745 177.161252 77.753108 178.744969 79.574978 180.24014 
z
" clip-path="url(#p4e81d3ab10)" style="fill: #a1a1d8"/>
   </g>
   <g id="patch_56">
    <path d="M 95.184786 149.256921 
C 94.377042 148.272684 93.618109 147.249381 92.910728 146.19071 
C 92.203347 145.132039 91.548369 144.039275 90.948162 142.916366 
L 68.900424 154.701127 
C 69.886364 156.545692 70.962273 158.340737 72.124265 160.07978 
C 73.286256 161.818824 74.53293 163.499768 75.859782 165.116542 
z
" clip-path="url(#p4e81d3ab10)" style="fill: #a1a1d8"/>
   </g>
   <g id="patch_57">
    <path d="M 89.880898 143.48683 
C 89.262019 142.328988 88.700359 141.141459 88.197948 139.928531 
C 87.695537 138.715604 87.25298 137.47874 86.871876 136.222408 
L 73.544751 140.265148 
C 74.05818 141.957696 74.654399 143.624017 75.331254 145.25809 
C 76.00811 146.892164 76.764786 148.492021 77.598549 150.051883 
z
" clip-path="url(#p4e81d3ab10)" style="fill: #a1a1d8"/>
   </g>
   <g id="patch_58">
    <path d="M 125.254844 124.579062 
C 125.254844 124.579062 125.254844 124.579062 125.254844 124.579062 
C 125.254844 124.579062 125.254844 124.579062 125.254844 124.579062 
L 71.723701 129.85142 
C 71.896273 131.603574 72.154767 133.3462 72.498249 135.073002 
C 72.841731 136.799804 73.269788 138.508701 73.780872 140.193521 
z
" clip-path="url(#p4e81d3ab10)" style="fill: #a1a1d8"/>
   </g>
   <g id="patch_59">
    <path d="M 125.254844 124.579062 
C 125.254844 124.579062 125.254844 124.579062 125.254844 124.579062 
C 125.254844 124.579062 125.254844 124.579062 125.254844 124.579062 
L 18.608695 114.075334 
C 18.264892 117.566021 18.09268 121.071485 18.09268 124.579062 
C 18.09268 128.08664 18.264892 131.592104 18.608695 135.082791 
z
" clip-path="url(#p4e81d3ab10)" style="fill: #a1a1d8"/>
   </g>
   <g id="patch_60">
    <path d="M 125.254844 124.579062 
C 125.254844 124.579062 125.254844 124.579062 125.254844 124.579062 
C 125.254844 124.579062 125.254844 124.579062 125.254844 124.579062 
L 45.870561 100.498103 
C 45.082355 103.09647 44.422197 105.731968 43.892471 108.39508 
C 43.362745 111.058192 42.96409 113.745707 42.697945 116.447918 
z
" clip-path="url(#p4e81d3ab10)" style="fill: #a1a1d8"/>
   </g>
   <g id="patch_61">
    <path d="M 125.254844 124.579062 
C 125.254844 124.579062 125.254844 124.579062 125.254844 124.579062 
C 125.254844 124.579062 125.254844 124.579062 125.254844 124.579062 
L 52.661777 85.77726 
C 51.391736 88.153339 50.239119 90.590342 49.208091 93.079466 
C 48.177062 95.56859 47.268863 98.106834 46.486776 100.68503 
z
" clip-path="url(#p4e81d3ab10)" style="fill: #a1a1d8"/>
   </g>
   <g id="patch_62">
    <path d="M 107.435826 115.054599 
C 107.747576 114.471356 108.087774 113.903771 108.45519 113.353893 
C 108.822607 112.804015 109.2168 112.272508 109.636344 111.761291 
L 87.711909 93.768372 
C 86.703429 94.997208 85.755889 96.274817 84.872712 97.596585 
C 83.989535 98.918352 83.171786 100.282685 82.422418 101.684654 
z
" clip-path="url(#p4e81d3ab10)" style="fill: #a1a1d8"/>
   </g>
   <g id="patch_63">
    <path d="M 125.254844 124.579062 
C 125.254844 124.579062 125.254844 124.579062 125.254844 124.579062 
C 125.254844 124.579062 125.254844 124.579062 125.254844 124.579062 
L 93.996699 86.490903 
C 92.750017 87.514029 91.554319 88.597747 90.413924 89.738142 
C 89.273528 90.878538 88.18981 92.074236 87.166685 93.320918 
z
" clip-path="url(#p4e81d3ab10)" style="fill: #a1a1d8"/>
   </g>
   <g id="patch_64">
    <path d="M 125.254844 124.579062 
C 125.254844 124.579062 125.254844 124.579062 125.254844 124.579062 
C 125.254844 124.579062 125.254844 124.579062 125.254844 124.579062 
L 103.746006 84.338858 
C 102.428884 85.042874 101.147121 85.811133 99.905347 86.64086 
C 98.663573 87.470587 97.463285 88.360781 96.308818 89.308228 
z
" clip-path="url(#p4e81d3ab10)" style="fill: #a1a1d8"/>
   </g>
   <g id="patch_65">
    <path d="M 125.254844 124.579062 
C 125.254844 124.579062 125.254844 124.579062 125.254844 124.579062 
C 125.254844 124.579062 125.254844 124.579062 125.254844 124.579062 
L 114.766977 90.0052 
C 113.635323 90.348484 112.521205 90.747122 111.428648 91.199674 
C 110.336091 91.652226 109.266411 92.158147 108.223473 92.715609 
z
" clip-path="url(#p4e81d3ab10)" style="fill: #a1a1d8"/>
   </g>
   <g id="patch_66">
    <path d="M 125.254844 124.579062 
C 125.254844 124.579062 125.254844 124.579062 125.254844 124.579062 
C 125.254844 124.579062 125.254844 124.579062 125.254844 124.579062 
L 124.757226 119.526662 
C 124.591853 119.54295 124.42738 119.567347 124.2644 119.599766 
C 124.10142 119.632185 123.94013 119.672586 123.781113 119.720823 
z
" clip-path="url(#p4e81d3ab10)" style="fill: #a1a1d8"/>
   </g>
   <g id="patch_67">
    <path d="M 125.254844 124.579062 
C 125.254844 124.579062 125.254844 124.579062 125.254844 124.579062 
C 125.254844 124.579062 125.254844 124.579062 125.254844 124.579062 
L 125.254844 124.579062 
C 125.254844 124.579062 125.254844 124.579062 125.254844 124.579062 
C 125.254844 124.579062 125.254844 124.579062 125.254844 124.579062 
z
" clip-path="url(#p4e81d3ab10)" style="fill: #ff8c8e"/>
   </g>
   <g id="patch_68">
    <path d="M 125.254844 124.579062 
C 125.254844 124.579062 125.254844 124.579062 125.254844 124.579062 
C 125.254844 124.579062 125.254844 124.579062 125.254844 124.579062 
L 125.254844 124.579062 
C 125.254844 124.579062 125.254844 124.579062 125.254844 124.579062 
C 125.254844 124.579062 125.254844 124.579062 125.254844 124.579062 
z
" clip-path="url(#p4e81d3ab10)" style="fill: #ff8c8e"/>
   </g>
   <g id="patch_69">
    <path d="M 125.254844 124.579062 
C 125.254844 124.579062 125.254844 124.579062 125.254844 124.579062 
C 125.254844 124.579062 125.254844 124.579062 125.254844 124.579062 
L 125.254844 124.579062 
C 125.254844 124.579062 125.254844 124.579062 125.254844 124.579062 
C 125.254844 124.579062 125.254844 124.579062 125.254844 124.579062 
z
" clip-path="url(#p4e81d3ab10)" style="fill: #ff8c8e"/>
   </g>
   <g id="patch_70">
    <path d="M 125.254844 124.579062 
C 125.254844 124.579062 125.254844 124.579062 125.254844 124.579062 
C 125.254844 124.579062 125.254844 124.579062 125.254844 124.579062 
L 125.254844 124.579062 
C 125.254844 124.579062 125.254844 124.579062 125.254844 124.579062 
C 125.254844 124.579062 125.254844 124.579062 125.254844 124.579062 
z
" clip-path="url(#p4e81d3ab10)" style="fill: #ff8c8e"/>
   </g>
   <g id="patch_71">
    <path d="M 125.254844 124.579062 
C 125.254844 124.579062 125.254844 124.579062 125.254844 124.579062 
C 125.254844 124.579062 125.254844 124.579062 125.254844 124.579062 
L 125.254844 124.579062 
C 125.254844 124.579062 125.254844 124.579062 125.254844 124.579062 
C 125.254844 124.579062 125.254844 124.579062 125.254844 124.579062 
z
" clip-path="url(#p4e81d3ab10)" style="fill: #ff8c8e"/>
   </g>
   <g id="patch_72">
    <path d="M 125.254844 124.579062 
C 125.254844 124.579062 125.254844 124.579062 125.254844 124.579062 
C 125.254844 124.579062 125.254844 124.579062 125.254844 124.579062 
L 125.254844 124.579062 
C 125.254844 124.579062 125.254844 124.579062 125.254844 124.579062 
C 125.254844 124.579062 125.254844 124.579062 125.254844 124.579062 
z
" clip-path="url(#p4e81d3ab10)" style="fill: #ff8c8e"/>
   </g>
   <g id="patch_73">
    <path d="M 125.254844 124.579062 
C 125.254844 124.579062 125.254844 124.579062 125.254844 124.579062 
C 125.254844 124.579062 125.254844 124.579062 125.254844 124.579062 
L 125.254844 124.579062 
C 125.254844 124.579062 125.254844 124.579062 125.254844 124.579062 
C 125.254844 124.579062 125.254844 124.579062 125.254844 124.579062 
z
" clip-path="url(#p4e81d3ab10)" style="fill: #ff8c8e"/>
   </g>
   <g id="patch_74">
    <path d="M 125.254844 124.579062 
C 125.254844 124.579062 125.254844 124.579062 125.254844 124.579062 
C 125.254844 124.579062 125.254844 124.579062 125.254844 124.579062 
L 125.254844 124.579062 
C 125.254844 124.579062 125.254844 124.579062 125.254844 124.579062 
C 125.254844 124.579062 125.254844 124.579062 125.254844 124.579062 
z
" clip-path="url(#p4e81d3ab10)" style="fill: #ff8c8e"/>
   </g>
   <g id="patch_75">
    <path d="M 125.254844 124.579062 
C 125.254844 124.579062 125.254844 124.579062 125.254844 124.579062 
C 125.254844 124.579062 125.254844 124.579062 125.254844 124.579062 
L 125.254844 124.579062 
C 125.254844 124.579062 125.254844 124.579062 125.254844 124.579062 
C 125.254844 124.579062 125.254844 124.579062 125.254844 124.579062 
z
" clip-path="url(#p4e81d3ab10)" style="fill: #ff8c8e"/>
   </g>
   <g id="patch_76">
    <path d="M 125.254844 124.579062 
C 125.254844 124.579062 125.254844 124.579062 125.254844 124.579062 
C 125.254844 124.579062 125.254844 124.579062 125.254844 124.579062 
L 125.254844 124.579062 
C 125.254844 124.579062 125.254844 124.579062 125.254844 124.579062 
C 125.254844 124.579062 125.254844 124.579062 125.254844 124.579062 
z
" clip-path="url(#p4e81d3ab10)" style="fill: #ff8c8e"/>
   </g>
   <g id="patch_77">
    <path d="M 125.254844 124.579062 
C 125.254844 124.579062 125.254844 124.579062 125.254844 124.579062 
C 125.254844 124.579062 125.254844 124.579062 125.254844 124.579062 
L 125.254844 124.579062 
C 125.254844 124.579062 125.254844 124.579062 125.254844 124.579062 
C 125.254844 124.579062 125.254844 124.579062 125.254844 124.579062 
z
" clip-path="url(#p4e81d3ab10)" style="fill: #ff8c8e"/>
   </g>
   <g id="patch_78">
    <path d="M 125.254844 124.579062 
C 125.254844 124.579062 125.254844 124.579062 125.254844 124.579062 
C 125.254844 124.579062 125.254844 124.579062 125.254844 124.579062 
L 125.254844 124.579062 
C 125.254844 124.579062 125.254844 124.579062 125.254844 124.579062 
C 125.254844 124.579062 125.254844 124.579062 125.254844 124.579062 
z
" clip-path="url(#p4e81d3ab10)" style="fill: #ff8c8e"/>
   </g>
   <g id="patch_79">
    <path d="M 125.254844 124.579062 
C 125.254844 124.579062 125.254844 124.579062 125.254844 124.579062 
C 125.254844 124.579062 125.254844 124.579062 125.254844 124.579062 
L 125.254844 124.579062 
C 125.254844 124.579062 125.254844 124.579062 125.254844 124.579062 
C 125.254844 124.579062 125.254844 124.579062 125.254844 124.579062 
z
" clip-path="url(#p4e81d3ab10)" style="fill: #ff8c8e"/>
   </g>
   <g id="patch_80">
    <path d="M 125.254844 124.579062 
C 125.254844 124.579062 125.254844 124.579062 125.254844 124.579062 
C 125.254844 124.579062 125.254844 124.579062 125.254844 124.579062 
L 125.254844 124.579062 
C 125.254844 124.579062 125.254844 124.579062 125.254844 124.579062 
C 125.254844 124.579062 125.254844 124.579062 125.254844 124.579062 
z
" clip-path="url(#p4e81d3ab10)" style="fill: #ff8c8e"/>
   </g>
   <g id="patch_81">
    <path d="M 125.254844 124.579062 
C 125.254844 124.579062 125.254844 124.579062 125.254844 124.579062 
C 125.254844 124.579062 125.254844 124.579062 125.254844 124.579062 
L 125.254844 124.579062 
C 125.254844 124.579062 125.254844 124.579062 125.254844 124.579062 
C 125.254844 124.579062 125.254844 124.579062 125.254844 124.579062 
z
" clip-path="url(#p4e81d3ab10)" style="fill: #ff8c8e"/>
   </g>
   <g id="patch_82">
    <path d="M 131.770732 146.059067 
C 131.067659 146.272342 130.354539 146.450969 129.633947 146.594304 
C 128.913356 146.737638 128.186161 146.845507 127.45499 146.917521 
L 127.45499 146.917521 
C 128.186161 146.845507 128.913356 146.737638 129.633947 146.594304 
C 130.354539 146.450969 131.067659 146.272342 131.770732 146.059067 
z
" clip-path="url(#p4e81d3ab10)" style="fill: #ff8c8e"/>
   </g>
   <g id="patch_83">
    <path d="M 127.524683 147.625126 
C 126.770351 147.699421 126.012826 147.736636 125.254844 147.736636 
C 124.496862 147.736636 123.739337 147.699421 122.985005 147.625126 
L 122.985005 147.625126 
C 123.739337 147.699421 124.496862 147.736636 125.254844 147.736636 
C 126.012826 147.736636 126.770351 147.699421 127.524683 147.625126 
z
" clip-path="url(#p4e81d3ab10)" style="fill: #ff8c8e"/>
   </g>
   <g id="patch_84">
    <path d="M 118.466474 193.502537 
C 116.210506 193.280344 113.966806 192.947522 111.74348 192.505275 
C 109.520154 192.063028 107.31988 191.511888 105.150608 190.853847 
L 102.95168 198.102741 
C 105.358219 198.832757 107.79915 199.444179 110.265656 199.934797 
C 112.732162 200.425416 115.221269 200.79464 117.723987 201.041136 
z
" clip-path="url(#p4e81d3ab10)" style="fill: #ff8c8e"/>
   </g>
   <g id="patch_85">
    <path d="M 112.82287 165.561786 
C 111.481445 165.154869 110.160806 164.682337 108.865724 164.145897 
C 107.570643 163.609456 106.30268 163.009754 105.066415 162.348957 
L 105.066415 162.348957 
C 106.30268 163.009754 107.570643 163.609456 108.865724 164.145897 
C 110.160806 164.682337 111.481445 165.154869 112.82287 165.561786 
z
" clip-path="url(#p4e81d3ab10)" style="fill: #ff8c8e"/>
   </g>
   <g id="patch_86">
    <path d="M 99.37904 172.989286 
C 97.794501 172.142333 96.2525 171.218093 94.758607 170.219906 
C 93.264714 169.221718 91.82073 168.150787 90.43187 167.010979 
L 87.22591 170.917452 
C 88.742635 172.162196 90.319559 173.331722 91.950986 174.421807 
C 93.582414 175.511892 95.266378 176.521222 96.996797 177.44615 
z
" clip-path="url(#p4e81d3ab10)" style="fill: #ff8c8e"/>
   </g>
   <g id="patch_87">
    <path d="M 79.574978 180.24014 
C 77.753108 178.744969 76.005745 177.161252 74.3392 175.494707 
C 72.672655 173.828162 71.088937 172.080798 69.593767 170.258928 
L 69.593767 170.258928 
C 71.088937 172.080798 72.672655 173.828162 74.3392 175.494707 
C 76.005745 177.161252 77.753108 178.744969 79.574978 180.24014 
z
" clip-path="url(#p4e81d3ab10)" style="fill: #ff8c8e"/>
   </g>
   <g id="patch_88">
    <path d="M 75.859782 165.116542 
C 74.53293 163.499768 73.286256 161.818824 72.124265 160.07978 
C 70.962273 158.340737 69.886364 156.545692 68.900424 154.701127 
L 64.483464 157.062042 
C 65.546681 159.05118 66.706917 160.986918 67.959984 162.862264 
C 69.21305 164.73761 70.557436 166.550304 71.988284 168.293798 
z
" clip-path="url(#p4e81d3ab10)" style="fill: #ff8c8e"/>
   </g>
   <g id="patch_89">
    <path d="M 77.598549 150.051883 
C 76.764786 148.492021 76.00811 146.892164 75.331254 145.25809 
C 74.654399 143.624017 74.05818 141.957696 73.544751 140.265148 
L 73.544751 140.265148 
C 74.05818 141.957696 74.654399 143.624017 75.331254 145.25809 
C 76.00811 146.892164 76.764786 148.492021 77.598549 150.051883 
z
" clip-path="url(#p4e81d3ab10)" style="fill: #ff8c8e"/>
   </g>
   <g id="patch_90">
    <path d="M 73.780872 140.193521 
C 73.269788 138.508701 72.841731 136.799804 72.498249 135.073002 
C 72.154767 133.3462 71.896273 131.603574 71.723701 129.85142 
L 62.137338 130.795594 
C 62.340814 132.861524 62.6456 134.916219 63.050593 136.952257 
C 63.455586 138.988295 63.960299 141.003222 64.562908 142.98976 
z
" clip-path="url(#p4e81d3ab10)" style="fill: #ff8c8e"/>
   </g>
   <g id="patch_91">
    <path d="M 18.608695 135.082791 
C 18.264892 131.592104 18.09268 128.08664 18.09268 124.579062 
C 18.09268 121.071485 18.264892 117.566021 18.608695 114.075334 
L 14.908759 113.710922 
C 14.553028 117.322714 14.374841 120.949794 14.374841 124.579062 
C 14.374841 128.208331 14.553028 131.835411 14.908759 135.447203 
z
" clip-path="url(#p4e81d3ab10)" style="fill: #ff8c8e"/>
   </g>
   <g id="patch_92">
    <path d="M 42.697945 116.447918 
C 42.96409 113.745707 43.362745 111.058192 43.892471 108.39508 
C 44.422197 105.731968 45.082355 103.09647 45.870561 100.498103 
L 35.486551 97.348149 
C 34.595242 100.286399 33.848731 103.266639 33.249713 106.278104 
C 32.650696 109.28957 32.199894 112.32863 31.898936 115.384308 
z
" clip-path="url(#p4e81d3ab10)" style="fill: #ff8c8e"/>
   </g>
   <g id="patch_93">
    <path d="M 46.486776 100.68503 
C 47.268863 98.106834 48.177062 95.56859 49.208091 93.079466 
C 50.239119 90.590342 51.391736 88.153339 52.661777 85.77726 
L 50.59769 84.673983 
C 49.291537 87.117623 48.106148 89.623918 47.045803 92.183817 
C 45.985458 94.743716 45.051437 97.354132 44.247112 100.005636 
z
" clip-path="url(#p4e81d3ab10)" style="fill: #ff8c8e"/>
   </g>
   <g id="patch_94">
    <path d="M 82.422418 101.684654 
C 83.171786 100.282685 83.989535 98.918352 84.872712 97.596585 
C 85.755889 96.274817 86.703429 94.997208 87.711909 93.768372 
L 73.815059 82.363523 
C 72.433282 84.047223 71.135002 85.797751 69.92491 87.608782 
C 68.714817 89.419814 67.594371 91.289166 66.567617 93.210086 
z
" clip-path="url(#p4e81d3ab10)" style="fill: #ff8c8e"/>
   </g>
   <g id="patch_95">
    <path d="M 87.166685 93.320918 
C 88.18981 92.074236 89.273528 90.878538 90.413924 89.738142 
C 91.554319 88.597747 92.750017 87.514029 93.996699 86.490903 
L 93.996699 86.490903 
C 92.750017 87.514029 91.554319 88.597747 90.413924 89.738142 
C 89.273528 90.878538 88.18981 92.074236 87.166685 93.320918 
z
" clip-path="url(#p4e81d3ab10)" style="fill: #ff8c8e"/>
   </g>
   <g id="patch_96">
    <path d="M 96.308818 89.308228 
C 97.463285 88.360781 98.663573 87.470587 99.905347 86.64086 
C 101.147121 85.811133 102.428884 85.042874 103.746006 84.338858 
L 103.746006 84.338858 
C 102.428884 85.042874 101.147121 85.811133 99.905347 86.64086 
C 98.663573 87.470587 97.463285 88.360781 96.308818 89.308228 
z
" clip-path="url(#p4e81d3ab10)" style="fill: #ff8c8e"/>
   </g>
   <g id="patch_97">
    <path d="M 108.223473 92.715609 
C 109.266411 92.158147 110.336091 91.652226 111.428648 91.199674 
C 112.521205 90.747122 113.635323 90.348484 114.766977 90.0052 
L 114.766977 90.0052 
C 113.635323 90.348484 112.521205 90.747122 111.428648 91.199674 
C 110.336091 91.652226 109.266411 92.158147 108.223473 92.715609 
z
" clip-path="url(#p4e81d3ab10)" style="fill: #ff8c8e"/>
   </g>
   <g id="patch_98">
    <path d="M 123.781113 119.720823 
C 123.94013 119.672586 124.10142 119.632185 124.2644 119.599766 
C 124.42738 119.567347 124.591853 119.54295 124.757226 119.526662 
L 124.757226 119.526662 
C 124.591853 119.54295 124.42738 119.567347 124.2644 119.599766 
C 124.10142 119.632185 123.94013 119.672586 123.781113 119.720823 
z
" clip-path="url(#p4e81d3ab10)" style="fill: #ff8c8e"/>
   </g>
   <g id="patch_99">
    <path d="M 125.254844 124.579062 
C 125.254844 124.579062 125.254844 124.579062 125.254844 124.579062 
C 125.254844 124.579062 125.254844 124.579062 125.254844 124.579062 
L 125.254844 124.579062 
C 125.254844 124.579062 125.254844 124.579062 125.254844 124.579062 
C 125.254844 124.579062 125.254844 124.579062 125.254844 124.579062 
z
" clip-path="url(#p4e81d3ab10)" style="fill: #828282"/>
   </g>
   <g id="patch_100">
    <path d="M 125.254844 124.579062 
C 125.254844 124.579062 125.254844 124.579062 125.254844 124.579062 
C 125.254844 124.579062 125.254844 124.579062 125.254844 124.579062 
L 125.254844 124.579062 
C 125.254844 124.579062 125.254844 124.579062 125.254844 124.579062 
C 125.254844 124.579062 125.254844 124.579062 125.254844 124.579062 
z
" clip-path="url(#p4e81d3ab10)" style="fill: #828282"/>
   </g>
   <g id="patch_101">
    <path d="M 125.254844 124.579062 
C 125.254844 124.579062 125.254844 124.579062 125.254844 124.579062 
C 125.254844 124.579062 125.254844 124.579062 125.254844 124.579062 
L 125.254844 124.579062 
C 125.254844 124.579062 125.254844 124.579062 125.254844 124.579062 
C 125.254844 124.579062 125.254844 124.579062 125.254844 124.579062 
z
" clip-path="url(#p4e81d3ab10)" style="fill: #828282"/>
   </g>
   <g id="patch_102">
    <path d="M 125.254844 124.579062 
C 125.254844 124.579062 125.254844 124.579062 125.254844 124.579062 
C 125.254844 124.579062 125.254844 124.579062 125.254844 124.579062 
L 125.254844 124.579062 
C 125.254844 124.579062 125.254844 124.579062 125.254844 124.579062 
C 125.254844 124.579062 125.254844 124.579062 125.254844 124.579062 
z
" clip-path="url(#p4e81d3ab10)" style="fill: #828282"/>
   </g>
   <g id="patch_103">
    <path d="M 125.254844 124.579062 
C 125.254844 124.579062 125.254844 124.579062 125.254844 124.579062 
C 125.254844 124.579062 125.254844 124.579062 125.254844 124.579062 
L 125.254844 124.579062 
C 125.254844 124.579062 125.254844 124.579062 125.254844 124.579062 
C 125.254844 124.579062 125.254844 124.579062 125.254844 124.579062 
z
" clip-path="url(#p4e81d3ab10)" style="fill: #828282"/>
   </g>
   <g id="patch_104">
    <path d="M 125.254844 124.579062 
C 125.254844 124.579062 125.254844 124.579062 125.254844 124.579062 
C 125.254844 124.579062 125.254844 124.579062 125.254844 124.579062 
L 125.254844 124.579062 
C 125.254844 124.579062 125.254844 124.579062 125.254844 124.579062 
C 125.254844 124.579062 125.254844 124.579062 125.254844 124.579062 
z
" clip-path="url(#p4e81d3ab10)" style="fill: #828282"/>
   </g>
   <g id="patch_105">
    <path d="M 125.254844 124.579062 
C 125.254844 124.579062 125.254844 124.579062 125.254844 124.579062 
C 125.254844 124.579062 125.254844 124.579062 125.254844 124.579062 
L 125.254844 124.579062 
C 125.254844 124.579062 125.254844 124.579062 125.254844 124.579062 
C 125.254844 124.579062 125.254844 124.579062 125.254844 124.579062 
z
" clip-path="url(#p4e81d3ab10)" style="fill: #828282"/>
   </g>
   <g id="patch_106">
    <path d="M 125.254844 124.579062 
C 125.254844 124.579062 125.254844 124.579062 125.254844 124.579062 
C 125.254844 124.579062 125.254844 124.579062 125.254844 124.579062 
L 125.254844 124.579062 
C 125.254844 124.579062 125.254844 124.579062 125.254844 124.579062 
C 125.254844 124.579062 125.254844 124.579062 125.254844 124.579062 
z
" clip-path="url(#p4e81d3ab10)" style="fill: #828282"/>
   </g>
   <g id="patch_107">
    <path d="M 125.254844 124.579062 
C 125.254844 124.579062 125.254844 124.579062 125.254844 124.579062 
C 125.254844 124.579062 125.254844 124.579062 125.254844 124.579062 
L 125.254844 124.579062 
C 125.254844 124.579062 125.254844 124.579062 125.254844 124.579062 
C 125.254844 124.579062 125.254844 124.579062 125.254844 124.579062 
z
" clip-path="url(#p4e81d3ab10)" style="fill: #828282"/>
   </g>
   <g id="patch_108">
    <path d="M 125.254844 124.579062 
C 125.254844 124.579062 125.254844 124.579062 125.254844 124.579062 
C 125.254844 124.579062 125.254844 124.579062 125.254844 124.579062 
L 125.254844 124.579062 
C 125.254844 124.579062 125.254844 124.579062 125.254844 124.579062 
C 125.254844 124.579062 125.254844 124.579062 125.254844 124.579062 
z
" clip-path="url(#p4e81d3ab10)" style="fill: #828282"/>
   </g>
   <g id="patch_109">
    <path d="M 125.254844 124.579062 
C 125.254844 124.579062 125.254844 124.579062 125.254844 124.579062 
C 125.254844 124.579062 125.254844 124.579062 125.254844 124.579062 
L 125.254844 124.579062 
C 125.254844 124.579062 125.254844 124.579062 125.254844 124.579062 
C 125.254844 124.579062 125.254844 124.579062 125.254844 124.579062 
z
" clip-path="url(#p4e81d3ab10)" style="fill: #828282"/>
   </g>
   <g id="patch_110">
    <path d="M 125.254844 124.579062 
C 125.254844 124.579062 125.254844 124.579062 125.254844 124.579062 
C 125.254844 124.579062 125.254844 124.579062 125.254844 124.579062 
L 125.254844 124.579062 
C 125.254844 124.579062 125.254844 124.579062 125.254844 124.579062 
C 125.254844 124.579062 125.254844 124.579062 125.254844 124.579062 
z
" clip-path="url(#p4e81d3ab10)" style="fill: #828282"/>
   </g>
   <g id="patch_111">
    <path d="M 125.254844 124.579062 
C 125.254844 124.579062 125.254844 124.579062 125.254844 124.579062 
C 125.254844 124.579062 125.254844 124.579062 125.254844 124.579062 
L 125.254844 124.579062 
C 125.254844 124.579062 125.254844 124.579062 125.254844 124.579062 
C 125.254844 124.579062 125.254844 124.579062 125.254844 124.579062 
z
" clip-path="url(#p4e81d3ab10)" style="fill: #828282"/>
   </g>
   <g id="patch_112">
    <path d="M 125.254844 124.579062 
C 125.254844 124.579062 125.254844 124.579062 125.254844 124.579062 
C 125.254844 124.579062 125.254844 124.579062 125.254844 124.579062 
L 125.254844 124.579062 
C 125.254844 124.579062 125.254844 124.579062 125.254844 124.579062 
C 125.254844 124.579062 125.254844 124.579062 125.254844 124.579062 
z
" clip-path="url(#p4e81d3ab10)" style="fill: #828282"/>
   </g>
   <g id="patch_113">
    <path d="M 125.254844 124.579062 
C 125.254844 124.579062 125.254844 124.579062 125.254844 124.579062 
C 125.254844 124.579062 125.254844 124.579062 125.254844 124.579062 
L 125.254844 124.579062 
C 125.254844 124.579062 125.254844 124.579062 125.254844 124.579062 
C 125.254844 124.579062 125.254844 124.579062 125.254844 124.579062 
z
" clip-path="url(#p4e81d3ab10)" style="fill: #828282"/>
   </g>
   <g id="patch_114">
    <path d="M 131.770732 146.059067 
C 131.067659 146.272342 130.354539 146.450969 129.633947 146.594304 
C 128.913356 146.737638 128.186161 146.845507 127.45499 146.917521 
L 127.45499 146.917521 
C 128.186161 146.845507 128.913356 146.737638 129.633947 146.594304 
C 130.354539 146.450969 131.067659 146.272342 131.770732 146.059067 
z
" clip-path="url(#p4e81d3ab10)" style="fill: #828282"/>
   </g>
   <g id="patch_115">
    <path d="M 127.524683 147.625126 
C 126.770351 147.699421 126.012826 147.736636 125.254844 147.736636 
C 124.496862 147.736636 123.739337 147.699421 122.985005 147.625126 
L 122.985005 147.625126 
C 123.739337 147.699421 124.496862 147.736636 125.254844 147.736636 
C 126.012826 147.736636 126.770351 147.699421 127.524683 147.625126 
z
" clip-path="url(#p4e81d3ab10)" style="fill: #828282"/>
   </g>
   <g id="patch_116">
    <path d="M 117.723987 201.041136 
C 115.221269 200.79464 112.732162 200.425416 110.265656 199.934797 
C 107.79915 199.444179 105.358219 198.832757 102.95168 198.102741 
L 102.95168 198.102741 
C 105.358219 198.832757 107.79915 199.444179 110.265656 199.934797 
C 112.732162 200.425416 115.221269 200.79464 117.723987 201.041136 
z
" clip-path="url(#p4e81d3ab10)" style="fill: #828282"/>
   </g>
   <g id="patch_117">
    <path d="M 112.82287 165.561786 
C 111.481445 165.154869 110.160806 164.682337 108.865724 164.145897 
C 107.570643 163.609456 106.30268 163.009754 105.066415 162.348957 
L 105.066415 162.348957 
C 106.30268 163.009754 107.570643 163.609456 108.865724 164.145897 
C 110.160806 164.682337 111.481445 165.154869 112.82287 165.561786 
z
" clip-path="url(#p4e81d3ab10)" style="fill: #828282"/>
   </g>
   <g id="patch_118">
    <path d="M 96.996797 177.44615 
C 95.266378 176.521222 93.582414 175.511892 91.950986 174.421807 
C 90.319559 173.331722 88.742635 172.162196 87.22591 170.917452 
L 87.22591 170.917452 
C 88.742635 172.162196 90.319559 173.331722 91.950986 174.421807 
C 93.582414 175.511892 95.266378 176.521222 96.996797 177.44615 
z
" clip-path="url(#p4e81d3ab10)" style="fill: #828282"/>
   </g>
   <g id="patch_119">
    <path d="M 79.574978 180.24014 
C 77.753108 178.744969 76.005745 177.161252 74.3392 175.494707 
C 72.672655 173.828162 71.088937 172.080798 69.593767 170.258928 
L 69.593767 170.258928 
C 71.088937 172.080798 72.672655 173.828162 74.3392 175.494707 
C 76.005745 177.161252 77.753108 178.744969 79.574978 180.24014 
z
" clip-path="url(#p4e81d3ab10)" style="fill: #828282"/>
   </g>
   <g id="patch_120">
    <path d="M 71.988284 168.293798 
C 70.557436 166.550304 69.21305 164.73761 67.959984 162.862264 
C 66.706917 160.986918 65.546681 159.05118 64.483464 157.062042 
L 64.483464 157.062042 
C 65.546681 159.05118 66.706917 160.986918 67.959984 162.862264 
C 69.21305 164.73761 70.557436 166.550304 71.988284 168.293798 
z
" clip-path="url(#p4e81d3ab10)" style="fill: #828282"/>
   </g>
   <g id="patch_121">
    <path d="M 77.598549 150.051883 
C 76.764786 148.492021 76.00811 146.892164 75.331254 145.25809 
C 74.654399 143.624017 74.05818 141.957696 73.544751 140.265148 
L 73.544751 140.265148 
C 74.05818 141.957696 74.654399 143.624017 75.331254 145.25809 
C 76.00811 146.892164 76.764786 148.492021 77.598549 150.051883 
z
" clip-path="url(#p4e81d3ab10)" style="fill: #828282"/>
   </g>
   <g id="patch_122">
    <path d="M 64.562908 142.98976 
C 63.960299 141.003222 63.455586 138.988295 63.050593 136.952257 
C 62.6456 134.916219 62.340814 132.861524 62.137338 130.795594 
L 62.137338 130.795594 
C 62.340814 132.861524 62.6456 134.916219 63.050593 136.952257 
C 63.455586 138.988295 63.960299 141.003222 64.562908 142.98976 
z
" clip-path="url(#p4e81d3ab10)" style="fill: #828282"/>
   </g>
   <g id="patch_123">
    <path d="M 14.908759 135.447203 
C 14.553028 131.835411 14.374841 128.208331 14.374841 124.579062 
C 14.374841 120.949794 14.553028 117.322714 14.908759 113.710922 
L 14.908759 113.710922 
C 14.553028 117.322714 14.374841 120.949794 14.374841 124.579062 
C 14.374841 128.208331 14.553028 131.835411 14.908759 135.447203 
z
" clip-path="url(#p4e81d3ab10)" style="fill: #828282"/>
   </g>
   <g id="patch_124">
    <path d="M 31.898936 115.384308 
C 32.199894 112.32863 32.650696 109.28957 33.249713 106.278104 
C 33.848731 103.266639 34.595242 100.286399 35.486551 97.348149 
L 35.486551 97.348149 
C 34.595242 100.286399 33.848731 103.266639 33.249713 106.278104 
C 32.650696 109.28957 32.199894 112.32863 31.898936 115.384308 
z
" clip-path="url(#p4e81d3ab10)" style="fill: #828282"/>
   </g>
   <g id="patch_125">
    <path d="M 44.247112 100.005636 
C 45.051437 97.354132 45.985458 94.743716 47.045803 92.183817 
C 48.106148 89.623918 49.291537 87.117623 50.59769 84.673983 
L 50.59769 84.673983 
C 49.291537 87.117623 48.106148 89.623918 47.045803 92.183817 
C 45.985458 94.743716 45.051437 97.354132 44.247112 100.005636 
z
" clip-path="url(#p4e81d3ab10)" style="fill: #828282"/>
   </g>
   <g id="patch_126">
    <path d="M 66.567617 93.210086 
C 67.594371 91.289166 68.714817 89.419814 69.92491 87.608782 
C 71.135002 85.797751 72.433282 84.047223 73.815059 82.363523 
L 73.815059 82.363523 
C 72.433282 84.047223 71.135002 85.797751 69.92491 87.608782 
C 68.714817 89.419814 67.594371 91.289166 66.567617 93.210086 
z
" clip-path="url(#p4e81d3ab10)" style="fill: #828282"/>
   </g>
   <g id="patch_127">
    <path d="M 87.166685 93.320918 
C 88.18981 92.074236 89.273528 90.878538 90.413924 89.738142 
C 91.554319 88.597747 92.750017 87.514029 93.996699 86.490903 
L 93.996699 86.490903 
C 92.750017 87.514029 91.554319 88.597747 90.413924 89.738142 
C 89.273528 90.878538 88.18981 92.074236 87.166685 93.320918 
z
" clip-path="url(#p4e81d3ab10)" style="fill: #828282"/>
   </g>
   <g id="patch_128">
    <path d="M 96.308818 89.308228 
C 97.463285 88.360781 98.663573 87.470587 99.905347 86.64086 
C 101.147121 85.811133 102.428884 85.042874 103.746006 84.338858 
L 103.746006 84.338858 
C 102.428884 85.042874 101.147121 85.811133 99.905347 86.64086 
C 98.663573 87.470587 97.463285 88.360781 96.308818 89.308228 
z
" clip-path="url(#p4e81d3ab10)" style="fill: #828282"/>
   </g>
   <g id="patch_129">
    <path d="M 108.223473 92.715609 
C 109.266411 92.158147 110.336091 91.652226 111.428648 91.199674 
C 112.521205 90.747122 113.635323 90.348484 114.766977 90.0052 
L 114.766977 90.0052 
C 113.635323 90.348484 112.521205 90.747122 111.428648 91.199674 
C 110.336091 91.652226 109.266411 92.158147 108.223473 92.715609 
z
" clip-path="url(#p4e81d3ab10)" style="fill: #828282"/>
   </g>
   <g id="patch_130">
    <path d="M 123.781113 119.720823 
C 123.94013 119.672586 124.10142 119.632185 124.2644 119.599766 
C 124.42738 119.567347 124.591853 119.54295 124.757226 119.526662 
L 124.757226 119.526662 
C 124.591853 119.54295 124.42738 119.567347 124.2644 119.599766 
C 124.10142 119.632185 123.94013 119.672586 123.781113 119.720823 
z
" clip-path="url(#p4e81d3ab10)" style="fill: #828282"/>
   </g>
   <g id="patch_131">
    <path d="M 125.254844 124.579062 
C 125.254844 124.579062 125.254844 124.579062 125.254844 124.579062 
C 125.254844 124.579062 125.254844 124.579062 125.254844 124.579062 
L 125.254844 124.579062 
C 125.254844 124.579062 125.254844 124.579062 125.254844 124.579062 
C 125.254844 124.579062 125.254844 124.579062 125.254844 124.579062 
L 125.254844 124.579062 
z
" clip-path="url(#p4e81d3ab10)" style="fill: none; stroke: #292929; stroke-width: 0.5; stroke-linejoin: miter"/>
   </g>
   <g id="patch_132">
    <path d="M 125.254844 124.579062 
C 125.254844 124.579062 125.254844 124.579062 125.254844 124.579062 
C 125.254844 124.579062 125.254844 124.579062 125.254844 124.579062 
L 125.254844 124.579062 
C 125.254844 124.579062 125.254844 124.579062 125.254844 124.579062 
C 125.254844 124.579062 125.254844 124.579062 125.254844 124.579062 
L 125.254844 124.579062 
z
" clip-path="url(#p4e81d3ab10)" style="fill: none; stroke: #292929; stroke-width: 0.5; stroke-linejoin: miter"/>
   </g>
   <g id="patch_133">
    <path d="M 125.254844 124.579062 
C 125.254844 124.579062 125.254844 124.579062 125.254844 124.579062 
C 125.254844 124.579062 125.254844 124.579062 125.254844 124.579062 
L 125.254844 124.579062 
C 125.254844 124.579062 125.254844 124.579062 125.254844 124.579062 
C 125.254844 124.579062 125.254844 124.579062 125.254844 124.579062 
L 125.254844 124.579062 
z
" clip-path="url(#p4e81d3ab10)" style="fill: none; stroke: #292929; stroke-width: 0.5; stroke-linejoin: miter"/>
   </g>
   <g id="patch_134">
    <path d="M 125.254844 124.579062 
C 125.254844 124.579062 125.254844 124.579062 125.254844 124.579062 
C 125.254844 124.579062 125.254844 124.579062 125.254844 124.579062 
L 125.254844 124.579062 
C 125.254844 124.579062 125.254844 124.579062 125.254844 124.579062 
C 125.254844 124.579062 125.254844 124.579062 125.254844 124.579062 
L 125.254844 124.579062 
z
" clip-path="url(#p4e81d3ab10)" style="fill: none; stroke: #292929; stroke-width: 0.5; stroke-linejoin: miter"/>
   </g>
   <g id="patch_135">
    <path d="M 125.254844 124.579062 
C 125.254844 124.579062 125.254844 124.579062 125.254844 124.579062 
C 125.254844 124.579062 125.254844 124.579062 125.254844 124.579062 
L 125.254844 124.579062 
C 125.254844 124.579062 125.254844 124.579062 125.254844 124.579062 
C 125.254844 124.579062 125.254844 124.579062 125.254844 124.579062 
L 125.254844 124.579062 
z
" clip-path="url(#p4e81d3ab10)" style="fill: none; stroke: #292929; stroke-width: 0.5; stroke-linejoin: miter"/>
   </g>
   <g id="patch_136">
    <path d="M 125.254844 124.579062 
C 125.254844 124.579062 125.254844 124.579062 125.254844 124.579062 
C 125.254844 124.579062 125.254844 124.579062 125.254844 124.579062 
L 125.254844 124.579062 
C 125.254844 124.579062 125.254844 124.579062 125.254844 124.579062 
C 125.254844 124.579062 125.254844 124.579062 125.254844 124.579062 
L 125.254844 124.579062 
z
" clip-path="url(#p4e81d3ab10)" style="fill: none; stroke: #292929; stroke-width: 0.5; stroke-linejoin: miter"/>
   </g>
   <g id="patch_137">
    <path d="M 125.254844 124.579062 
C 125.254844 124.579062 125.254844 124.579062 125.254844 124.579062 
C 125.254844 124.579062 125.254844 124.579062 125.254844 124.579062 
L 125.254844 124.579062 
C 125.254844 124.579062 125.254844 124.579062 125.254844 124.579062 
C 125.254844 124.579062 125.254844 124.579062 125.254844 124.579062 
L 125.254844 124.579062 
z
" clip-path="url(#p4e81d3ab10)" style="fill: none; stroke: #292929; stroke-width: 0.5; stroke-linejoin: miter"/>
   </g>
   <g id="patch_138">
    <path d="M 125.254844 124.579062 
C 125.254844 124.579062 125.254844 124.579062 125.254844 124.579062 
C 125.254844 124.579062 125.254844 124.579062 125.254844 124.579062 
L 125.254844 124.579062 
C 125.254844 124.579062 125.254844 124.579062 125.254844 124.579062 
C 125.254844 124.579062 125.254844 124.579062 125.254844 124.579062 
L 125.254844 124.579062 
z
" clip-path="url(#p4e81d3ab10)" style="fill: none; stroke: #292929; stroke-width: 0.5; stroke-linejoin: miter"/>
   </g>
   <g id="patch_139">
    <path d="M 125.254844 124.579062 
C 125.254844 124.579062 125.254844 124.579062 125.254844 124.579062 
C 125.254844 124.579062 125.254844 124.579062 125.254844 124.579062 
L 125.254844 124.579062 
C 125.254844 124.579062 125.254844 124.579062 125.254844 124.579062 
C 125.254844 124.579062 125.254844 124.579062 125.254844 124.579062 
L 125.254844 124.579062 
z
" clip-path="url(#p4e81d3ab10)" style="fill: none; stroke: #292929; stroke-width: 0.5; stroke-linejoin: miter"/>
   </g>
   <g id="patch_140">
    <path d="M 125.254844 124.579062 
C 125.254844 124.579062 125.254844 124.579062 125.254844 124.579062 
C 125.254844 124.579062 125.254844 124.579062 125.254844 124.579062 
L 125.254844 124.579062 
C 125.254844 124.579062 125.254844 124.579062 125.254844 124.579062 
C 125.254844 124.579062 125.254844 124.579062 125.254844 124.579062 
L 125.254844 124.579062 
z
" clip-path="url(#p4e81d3ab10)" style="fill: none; stroke: #292929; stroke-width: 0.5; stroke-linejoin: miter"/>
   </g>
   <g id="patch_141">
    <path d="M 125.254844 124.579062 
C 125.254844 124.579062 125.254844 124.579062 125.254844 124.579062 
C 125.254844 124.579062 125.254844 124.579062 125.254844 124.579062 
L 125.254844 124.579062 
C 125.254844 124.579062 125.254844 124.579062 125.254844 124.579062 
C 125.254844 124.579062 125.254844 124.579062 125.254844 124.579062 
L 125.254844 124.579062 
z
" clip-path="url(#p4e81d3ab10)" style="fill: none; stroke: #292929; stroke-width: 0.5; stroke-linejoin: miter"/>
   </g>
   <g id="patch_142">
    <path d="M 125.254844 124.579062 
C 125.254844 124.579062 125.254844 124.579062 125.254844 124.579062 
C 125.254844 124.579062 125.254844 124.579062 125.254844 124.579062 
L 125.254844 124.579062 
C 125.254844 124.579062 125.254844 124.579062 125.254844 124.579062 
C 125.254844 124.579062 125.254844 124.579062 125.254844 124.579062 
L 125.254844 124.579062 
z
" clip-path="url(#p4e81d3ab10)" style="fill: none; stroke: #292929; stroke-width: 0.5; stroke-linejoin: miter"/>
   </g>
   <g id="patch_143">
    <path d="M 125.254844 124.579062 
C 125.254844 124.579062 125.254844 124.579062 125.254844 124.579062 
C 125.254844 124.579062 125.254844 124.579062 125.254844 124.579062 
L 125.254844 124.579062 
C 125.254844 124.579062 125.254844 124.579062 125.254844 124.579062 
C 125.254844 124.579062 125.254844 124.579062 125.254844 124.579062 
L 125.254844 124.579062 
z
" clip-path="url(#p4e81d3ab10)" style="fill: none; stroke: #292929; stroke-width: 0.5; stroke-linejoin: miter"/>
   </g>
   <g id="patch_144">
    <path d="M 125.254844 124.579062 
C 125.254844 124.579062 125.254844 124.579062 125.254844 124.579062 
C 125.254844 124.579062 125.254844 124.579062 125.254844 124.579062 
L 125.254844 124.579062 
C 125.254844 124.579062 125.254844 124.579062 125.254844 124.579062 
C 125.254844 124.579062 125.254844 124.579062 125.254844 124.579062 
L 125.254844 124.579062 
z
" clip-path="url(#p4e81d3ab10)" style="fill: none; stroke: #292929; stroke-width: 0.5; stroke-linejoin: miter"/>
   </g>
   <g id="patch_145">
    <path d="M 125.254844 124.579062 
C 125.254844 124.579062 125.254844 124.579062 125.254844 124.579062 
C 125.254844 124.579062 125.254844 124.579062 125.254844 124.579062 
L 125.254844 124.579062 
C 125.254844 124.579062 125.254844 124.579062 125.254844 124.579062 
C 125.254844 124.579062 125.254844 124.579062 125.254844 124.579062 
L 125.254844 124.579062 
z
" clip-path="url(#p4e81d3ab10)" style="fill: none; stroke: #292929; stroke-width: 0.5; stroke-linejoin: miter"/>
   </g>
   <g id="patch_146">
    <path d="M 125.254844 124.579062 
C 125.254844 124.579062 125.254844 124.579062 125.254844 124.579062 
C 125.254844 124.579062 125.254844 124.579062 125.254844 124.579062 
L 127.45499 146.917521 
C 128.186161 146.845507 128.913356 146.737638 129.633947 146.594304 
C 130.354539 146.450969 131.067659 146.272342 131.770732 146.059067 
L 125.254844 124.579062 
z
" clip-path="url(#p4e81d3ab10)" style="fill: none; stroke: #292929; stroke-width: 0.5; stroke-linejoin: miter"/>
   </g>
   <g id="patch_147">
    <path d="M 125.254844 124.579062 
C 125.254844 124.579062 125.254844 124.579062 125.254844 124.579062 
C 125.254844 124.579062 125.254844 124.579062 125.254844 124.579062 
L 122.985005 147.625126 
C 123.739337 147.699421 124.496862 147.736636 125.254844 147.736636 
C 126.012826 147.736636 126.770351 147.699421 127.524683 147.625126 
L 125.254844 124.579062 
z
" clip-path="url(#p4e81d3ab10)" style="fill: none; stroke: #292929; stroke-width: 0.5; stroke-linejoin: miter"/>
   </g>
   <g id="patch_148">
    <path d="M 125.254844 124.579062 
C 125.254844 124.579062 125.254844 124.579062 125.254844 124.579062 
C 125.254844 124.579062 125.254844 124.579062 125.254844 124.579062 
L 102.95168 198.102741 
C 105.358219 198.832757 107.79915 199.444179 110.265656 199.934797 
C 112.732162 200.425416 115.221269 200.79464 117.723987 201.041136 
L 125.254844 124.579062 
z
" clip-path="url(#p4e81d3ab10)" style="fill: none; stroke: #292929; stroke-width: 0.5; stroke-linejoin: miter"/>
   </g>
   <g id="patch_149">
    <path d="M 125.254844 124.579062 
C 125.254844 124.579062 125.254844 124.579062 125.254844 124.579062 
C 125.254844 124.579062 125.254844 124.579062 125.254844 124.579062 
L 105.066415 162.348957 
C 106.30268 163.009754 107.570643 163.609456 108.865724 164.145897 
C 110.160806 164.682337 111.481445 165.154869 112.82287 165.561786 
L 125.254844 124.579062 
z
" clip-path="url(#p4e81d3ab10)" style="fill: none; stroke: #292929; stroke-width: 0.5; stroke-linejoin: miter"/>
   </g>
   <g id="patch_150">
    <path d="M 125.254844 124.579062 
C 125.254844 124.579062 125.254844 124.579062 125.254844 124.579062 
C 125.254844 124.579062 125.254844 124.579062 125.254844 124.579062 
L 87.22591 170.917452 
C 88.742635 172.162196 90.319559 173.331722 91.950986 174.421807 
C 93.582414 175.511892 95.266378 176.521222 96.996797 177.44615 
L 125.254844 124.579062 
z
" clip-path="url(#p4e81d3ab10)" style="fill: none; stroke: #292929; stroke-width: 0.5; stroke-linejoin: miter"/>
   </g>
   <g id="patch_151">
    <path d="M 125.254844 124.579062 
C 125.254844 124.579062 125.254844 124.579062 125.254844 124.579062 
C 125.254844 124.579062 125.254844 124.579062 125.254844 124.579062 
L 69.593767 170.258928 
C 71.088937 172.080798 72.672655 173.828162 74.3392 175.494707 
C 76.005745 177.161252 77.753108 178.744969 79.574978 180.24014 
L 125.254844 124.579062 
z
" clip-path="url(#p4e81d3ab10)" style="fill: none; stroke: #292929; stroke-width: 0.5; stroke-linejoin: miter"/>
   </g>
   <g id="patch_152">
    <path d="M 125.254844 124.579062 
C 125.254844 124.579062 125.254844 124.579062 125.254844 124.579062 
C 125.254844 124.579062 125.254844 124.579062 125.254844 124.579062 
L 64.483464 157.062042 
C 65.546681 159.05118 66.706917 160.986918 67.959984 162.862264 
C 69.21305 164.73761 70.557436 166.550304 71.988284 168.293798 
L 125.254844 124.579062 
z
" clip-path="url(#p4e81d3ab10)" style="fill: none; stroke: #292929; stroke-width: 0.5; stroke-linejoin: miter"/>
   </g>
   <g id="patch_153">
    <path d="M 125.254844 124.579062 
C 125.254844 124.579062 125.254844 124.579062 125.254844 124.579062 
C 125.254844 124.579062 125.254844 124.579062 125.254844 124.579062 
L 73.544751 140.265148 
C 74.05818 141.957696 74.654399 143.624017 75.331254 145.25809 
C 76.00811 146.892164 76.764786 148.492021 77.598549 150.051883 
L 125.254844 124.579062 
z
" clip-path="url(#p4e81d3ab10)" style="fill: none; stroke: #292929; stroke-width: 0.5; stroke-linejoin: miter"/>
   </g>
   <g id="patch_154">
    <path d="M 125.254844 124.579062 
C 125.254844 124.579062 125.254844 124.579062 125.254844 124.579062 
C 125.254844 124.579062 125.254844 124.579062 125.254844 124.579062 
L 62.137338 130.795594 
C 62.340814 132.861524 62.6456 134.916219 63.050593 136.952257 
C 63.455586 138.988295 63.960299 141.003222 64.562908 142.98976 
L 125.254844 124.579062 
z
" clip-path="url(#p4e81d3ab10)" style="fill: none; stroke: #292929; stroke-width: 0.5; stroke-linejoin: miter"/>
   </g>
   <g id="patch_155">
    <path d="M 125.254844 124.579062 
C 125.254844 124.579062 125.254844 124.579062 125.254844 124.579062 
C 125.254844 124.579062 125.254844 124.579062 125.254844 124.579062 
L 14.908759 113.710922 
C 14.553028 117.322714 14.374841 120.949794 14.374841 124.579062 
C 14.374841 128.208331 14.553028 131.835411 14.908759 135.447203 
L 125.254844 124.579062 
z
" clip-path="url(#p4e81d3ab10)" style="fill: none; stroke: #292929; stroke-width: 0.5; stroke-linejoin: miter"/>
   </g>
   <g id="patch_156">
    <path d="M 125.254844 124.579062 
C 125.254844 124.579062 125.254844 124.579062 125.254844 124.579062 
C 125.254844 124.579062 125.254844 124.579062 125.254844 124.579062 
L 35.486551 97.348149 
C 34.595242 100.286399 33.848731 103.266639 33.249713 106.278104 
C 32.650696 109.28957 32.199894 112.32863 31.898936 115.384308 
L 125.254844 124.579062 
z
" clip-path="url(#p4e81d3ab10)" style="fill: none; stroke: #292929; stroke-width: 0.5; stroke-linejoin: miter"/>
   </g>
   <g id="patch_157">
    <path d="M 125.254844 124.579062 
C 125.254844 124.579062 125.254844 124.579062 125.254844 124.579062 
C 125.254844 124.579062 125.254844 124.579062 125.254844 124.579062 
L 50.59769 84.673983 
C 49.291537 87.117623 48.106148 89.623918 47.045803 92.183817 
C 45.985458 94.743716 45.051437 97.354132 44.247112 100.005636 
L 125.254844 124.579062 
z
" clip-path="url(#p4e81d3ab10)" style="fill: none; stroke: #292929; stroke-width: 0.5; stroke-linejoin: miter"/>
   </g>
   <g id="patch_158">
    <path d="M 125.254844 124.579062 
C 125.254844 124.579062 125.254844 124.579062 125.254844 124.579062 
C 125.254844 124.579062 125.254844 124.579062 125.254844 124.579062 
L 73.815059 82.363523 
C 72.433282 84.047223 71.135002 85.797751 69.92491 87.608782 
C 68.714817 89.419814 67.594371 91.289166 66.567617 93.210086 
L 125.254844 124.579062 
z
" clip-path="url(#p4e81d3ab10)" style="fill: none; stroke: #292929; stroke-width: 0.5; stroke-linejoin: miter"/>
   </g>
   <g id="patch_159">
    <path d="M 125.254844 124.579062 
C 125.254844 124.579062 125.254844 124.579062 125.254844 124.579062 
C 125.254844 124.579062 125.254844 124.579062 125.254844 124.579062 
L 93.996699 86.490903 
C 92.750017 87.514029 91.554319 88.597747 90.413924 89.738142 
C 89.273528 90.878538 88.18981 92.074236 87.166685 93.320918 
L 125.254844 124.579062 
z
" clip-path="url(#p4e81d3ab10)" style="fill: none; stroke: #292929; stroke-width: 0.5; stroke-linejoin: miter"/>
   </g>
   <g id="patch_160">
    <path d="M 125.254844 124.579062 
C 125.254844 124.579062 125.254844 124.579062 125.254844 124.579062 
C 125.254844 124.579062 125.254844 124.579062 125.254844 124.579062 
L 103.746006 84.338858 
C 102.428884 85.042874 101.147121 85.811133 99.905347 86.64086 
C 98.663573 87.470587 97.463285 88.360781 96.308818 89.308228 
L 125.254844 124.579062 
z
" clip-path="url(#p4e81d3ab10)" style="fill: none; stroke: #292929; stroke-width: 0.5; stroke-linejoin: miter"/>
   </g>
   <g id="patch_161">
    <path d="M 125.254844 124.579062 
C 125.254844 124.579062 125.254844 124.579062 125.254844 124.579062 
C 125.254844 124.579062 125.254844 124.579062 125.254844 124.579062 
L 114.766977 90.0052 
C 113.635323 90.348484 112.521205 90.747122 111.428648 91.199674 
C 110.336091 91.652226 109.266411 92.158147 108.223473 92.715609 
L 125.254844 124.579062 
z
" clip-path="url(#p4e81d3ab10)" style="fill: none; stroke: #292929; stroke-width: 0.5; stroke-linejoin: miter"/>
   </g>
   <g id="patch_162">
    <path d="M 125.254844 124.579062 
C 125.254844 124.579062 125.254844 124.579062 125.254844 124.579062 
C 125.254844 124.579062 125.254844 124.579062 125.254844 124.579062 
L 124.757226 119.526662 
C 124.591853 119.54295 124.42738 119.567347 124.2644 119.599766 
C 124.10142 119.632185 123.94013 119.672586 123.781113 119.720823 
L 125.254844 124.579062 
z
" clip-path="url(#p4e81d3ab10)" style="fill: none; stroke: #292929; stroke-width: 0.5; stroke-linejoin: miter"/>
   </g>
   <g id="PathCollection_1">
    <defs>
     <path id="mbdf64a68dd" d="M 0.193618 7.414054 
L 0.193618 7.414054 
C 0.054922 7.414054 -0.078235 7.358899 -0.176308 7.260826 
C -0.274381 7.162753 -0.329536 7.029596 -0.329536 6.890901 
L -0.329536 5.365008 
L -1.528416 6.56393 
L -1.528416 6.56393 
C -1.577018 6.612704 -1.634775 6.651408 -1.698366 6.677814 
C -1.761958 6.704221 -1.830141 6.717815 -1.898997 6.717815 
C -1.967853 6.717815 -2.036037 6.704221 -2.099628 6.677814 
C -2.163219 6.651408 -2.220976 6.612704 -2.269578 6.56393 
L -2.269578 6.56393 
C -2.318353 6.515327 -2.357056 6.457571 -2.383463 6.393979 
C -2.409869 6.330388 -2.423463 6.262205 -2.423463 6.193348 
C -2.423463 6.124492 -2.409869 6.056309 -2.383463 5.992718 
C -2.357056 5.929126 -2.318353 5.87137 -2.269578 5.822767 
L -0.329536 3.884106 
L -0.329536 0.820937 
L -2.98067 2.351538 
L -3.691824 5.001416 
L -3.691824 5.001416 
C -3.727584 5.135411 -3.815199 5.249836 -3.93523 5.319305 
C -4.055261 5.388775 -4.198123 5.407741 -4.332122 5.371997 
L -4.332122 5.371997 
C -4.466126 5.336237 -4.580558 5.248616 -4.650029 5.128576 
C -4.719499 5.008535 -4.73846 4.865662 -4.702703 4.731657 
L -4.262647 3.092721 
L -5.585535 3.855668 
L -5.585535 3.855668 
C -5.645013 3.890144 -5.710708 3.912561 -5.778854 3.921634 
C -5.847001 3.930706 -5.916272 3.926258 -5.982698 3.908543 
C -6.049125 3.890828 -6.111412 3.860192 -6.165991 3.818391 
C -6.220571 3.77659 -6.266379 3.724437 -6.300791 3.664922 
L -6.300791 3.664922 
C -6.335212 3.605364 -6.35755 3.539597 -6.366524 3.471396 
C -6.375498 3.403194 -6.370933 3.333888 -6.35309 3.267452 
C -6.335248 3.201017 -6.304476 3.138749 -6.26254 3.08422 
C -6.220605 3.029692 -6.168323 2.983966 -6.108695 2.949666 
L -4.785807 2.186762 
L -6.424743 1.746706 
L -6.424743 1.746706 
C -6.558747 1.710946 -6.673179 1.623325 -6.74265 1.503284 
C -6.81212 1.383244 -6.831081 1.240371 -6.795324 1.106366 
L -6.795324 1.106366 
C -6.777471 1.039969 -6.746703 0.977739 -6.704784 0.923241 
C -6.662864 0.868744 -6.61061 0.823041 -6.551015 0.788752 
C -6.491421 0.754464 -6.425647 0.732257 -6.357465 0.723406 
C -6.289282 0.714554 -6.220019 0.71923 -6.153645 0.737166 
L -3.505232 1.44698 
L -0.852424 -0.08496 
L -3.503767 -1.615666 
L -6.153645 -0.905851 
L -6.153645 -0.905851 
C -6.22011 -0.887939 -6.289462 -0.883321 -6.357716 -0.892262 
C -6.42597 -0.901202 -6.491793 -0.923527 -6.551403 -0.957953 
C -6.611013 -0.992379 -6.663247 -1.038234 -6.705103 -1.092883 
C -6.746958 -1.147533 -6.777619 -1.209911 -6.795324 -1.276432 
L -6.795324 -1.276432 
C -6.831068 -1.410431 -6.812101 -1.553293 -6.742632 -1.673324 
C -6.673162 -1.793355 -6.558738 -1.88097 -6.424743 -1.91673 
L -4.785807 -2.355447 
L -6.108695 -3.119732 
L -6.108695 -3.119732 
C -6.228699 -3.188976 -6.316415 -3.303132 -6.352417 -3.436921 
C -6.388419 -3.57071 -6.369839 -3.713469 -6.300791 -3.833586 
L -6.300791 -3.833586 
C -6.266491 -3.893214 -6.220765 -3.945496 -6.166237 -3.987431 
C -6.111708 -4.029367 -6.04944 -4.060139 -5.983005 -4.077981 
C -5.91657 -4.095823 -5.847263 -4.100389 -5.779062 -4.091415 
C -5.71086 -4.082441 -5.645094 -4.060102 -5.585535 -4.025682 
L -4.262647 -3.261396 
L -4.702703 -4.900332 
L -4.702703 -4.900332 
C -4.73846 -5.034337 -4.719499 -5.17721 -4.650029 -5.29725 
C -4.580558 -5.417291 -4.466126 -5.504912 -4.332122 -5.540672 
L -4.332122 -5.540672 
C -4.19831 -5.576464 -4.055613 -5.557686 -3.935617 -5.488496 
C -3.81562 -5.419305 -3.727882 -5.305212 -3.691824 -5.171472 
L -2.982009 -2.521594 
L -0.329411 -0.990302 
L -0.329411 -4.051588 
L -2.269453 -5.991589 
L -2.269453 -5.991589 
C -2.318227 -6.040191 -2.356931 -6.097947 -2.383337 -6.161539 
C -2.409744 -6.22513 -2.423338 -6.293314 -2.423338 -6.36217 
C -2.423338 -6.431026 -2.409744 -6.499209 -2.383337 -6.5628 
C -2.356931 -6.626392 -2.318227 -6.684149 -2.269453 -6.732751 
L -2.269453 -6.732751 
C -2.22085 -6.781526 -2.163094 -6.820229 -2.099502 -6.846635 
C -2.035911 -6.873042 -1.967728 -6.886636 -1.898871 -6.886636 
C -1.830015 -6.886636 -1.761832 -6.873042 -1.698241 -6.846635 
C -1.634649 -6.820229 -1.576893 -6.781526 -1.52829 -6.732751 
L -0.329411 -5.533829 
L -0.329411 -7.059722 
L -0.329411 -7.059722 
C -0.329411 -7.198418 -0.274255 -7.331575 -0.176182 -7.429647 
C -0.07811 -7.52772 0.055047 -7.582875 0.193743 -7.582875 
L 0.193743 -7.582875 
C 0.332439 -7.582875 0.465596 -7.52772 0.563669 -7.429647 
C 0.661741 -7.331575 0.716897 -7.198418 0.716897 -7.059722 
L 0.716897 -5.533829 
L 1.915777 -6.732751 
L 1.915777 -6.732751 
C 1.964379 -6.781526 2.022136 -6.820229 2.085727 -6.846635 
C 2.149318 -6.873042 2.217502 -6.886636 2.286358 -6.886636 
C 2.355214 -6.886636 2.423397 -6.873042 2.486989 -6.846635 
C 2.55058 -6.820229 2.608337 -6.781526 2.656939 -6.732751 
L 2.656939 -6.732751 
C 2.705714 -6.684149 2.744417 -6.626392 2.770823 -6.5628 
C 2.79723 -6.499209 2.810824 -6.431026 2.810824 -6.36217 
C 2.810824 -6.293314 2.79723 -6.22513 2.770823 -6.161539 
C 2.744417 -6.097947 2.705714 -6.040191 2.656939 -5.991589 
L 0.716897 -4.051588 
L 0.716897 -0.991139 
L 3.369495 -2.522954 
L 4.07931 -5.171367 
L 4.07931 -5.171367 
C 4.115368 -5.305107 4.203106 -5.4192 4.323103 -5.488391 
C 4.4431 -5.557582 4.585797 -5.576359 4.719608 -5.540567 
L 4.719608 -5.540567 
C 4.853612 -5.504807 4.968045 -5.417186 5.037515 -5.297146 
C 5.106986 -5.177105 5.125946 -5.034232 5.090189 -4.900227 
L 4.650133 -3.262673 
L 5.973022 -4.025577 
L 5.973022 -4.025577 
C 6.03258 -4.059998 6.098346 -4.082336 6.166548 -4.09131 
C 6.234749 -4.100284 6.304056 -4.095719 6.370491 -4.077876 
C 6.436926 -4.060034 6.499194 -4.029262 6.553723 -3.987327 
C 6.608252 -3.945391 6.653978 -3.893109 6.688277 -3.833481 
L 6.688277 -3.833481 
C 6.757325 -3.713365 6.775905 -3.570605 6.739903 -3.436816 
C 6.703901 -3.303027 6.616186 -3.188871 6.496181 -3.119628 
L 5.173293 -2.355342 
L 6.812229 -1.916625 
L 6.812229 -1.916625 
C 6.946224 -1.880865 7.060649 -1.79325 7.130118 -1.67322 
C 7.199588 -1.553189 7.218554 -1.410326 7.18281 -1.276327 
L 7.18281 -1.276327 
C 7.165106 -1.209806 7.134445 -1.147429 7.092589 -1.092779 
C 7.050733 -1.038129 6.998499 -0.992274 6.938889 -0.957848 
C 6.879279 -0.923422 6.813456 -0.901098 6.745202 -0.892157 
C 6.676949 -0.883217 6.607597 -0.887835 6.541131 -0.905746 
L 3.891253 -1.615561 
L 1.239492 -0.084604 
L 3.892718 1.447085 
L 6.541131 0.73727 
L 6.541131 0.73727 
C 6.674948 0.701466 6.817656 0.720237 6.937662 0.789429 
C 7.057669 0.858621 7.145413 0.972721 7.181471 1.10647 
L 7.181471 1.10647 
C 7.217274 1.240293 7.198497 1.383006 7.129297 1.503014 
C 7.060096 1.623021 6.945986 1.710762 6.812229 1.74681 
L 5.173293 2.186866 
L 6.496181 2.949771 
L 6.496181 2.949771 
C 6.555697 2.984183 6.607849 3.029991 6.649651 3.08457 
C 6.691452 3.13915 6.722088 3.201437 6.739803 3.267863 
C 6.757517 3.33429 6.761966 3.403561 6.752893 3.471707 
C 6.743821 3.539854 6.721404 3.605549 6.686927 3.665026 
L 6.686927 3.665026 
C 6.617458 3.784813 6.503196 3.87225 6.369416 3.907994 
C 6.235636 3.943739 6.092989 3.924946 5.973032 3.855772 
L 4.650144 3.091487 
L 5.08886 4.731783 
L 5.08886 4.731783 
C 5.124664 4.865606 5.105887 5.008319 5.036686 5.128326 
C 4.967486 5.248334 4.853376 5.336074 4.719619 5.372123 
L 4.719619 5.372123 
C 4.585619 5.407867 4.442757 5.3889 4.322726 5.319431 
C 4.202695 5.249961 4.115081 5.135537 4.07932 5.001542 
L 3.368166 2.351664 
L 0.717033 0.821063 
L 0.717033 3.884232 
L 2.657075 5.822893 
L 2.657075 5.822893 
C 2.70585 5.871495 2.744553 5.929252 2.770959 5.992843 
C 2.797366 6.056435 2.81096 6.124618 2.81096 6.193474 
C 2.81096 6.26233 2.797366 6.330514 2.770959 6.394105 
C 2.744553 6.457696 2.70585 6.515453 2.657075 6.564055 
L 2.657075 6.564055 
C 2.608473 6.61283 2.550716 6.651533 2.487125 6.67794 
C 2.423533 6.704346 2.35535 6.71794 2.286494 6.71794 
C 2.217638 6.71794 2.149454 6.704346 2.085863 6.67794 
C 2.022272 6.651533 1.964515 6.61283 1.915913 6.564055 
L 0.717033 5.365133 
L 0.717033 6.891026 
L 0.717033 6.891026 
C 0.717033 7.029722 0.661877 7.162879 0.563805 7.260952 
C 0.465732 7.359024 0.332575 7.41418 0.193879 7.41418 
L 0.193618 7.414054 
z
"/>
    </defs>
    <g clip-path="url(#p4e81d3ab10)">
     <use xlink:href="#mbdf64a68dd" x="38.650994" y="137.609055" style="fill: #9e2096; fill-opacity: 0.7"/>
    </g>
   </g>
   <g id="patch_163">
    <path d="M 125.254844 13.699062 
C 110.694216 13.699062 96.275171 16.567189 82.822905 22.1393 
C 69.370638 27.711411 57.146763 35.879144 46.850844 46.175063 
C 36.554925 56.470982 28.387192 68.694857 22.815081 82.147124 
C 17.24297 95.59939 14.374844 110.018434 14.374844 124.579063 
C 14.374844 139.139691 17.24297 153.558735 22.815081 167.011001 
C 28.387192 180.463268 36.554925 192.687143 46.850844 202.983062 
C 57.146763 213.278981 69.370638 221.446714 82.822905 227.018825 
C 96.275171 232.590936 110.694216 235.459063 125.254844 235.459063 
C 139.815472 235.459063 154.234516 232.590936 167.686783 227.018825 
C 181.139049 221.446714 193.362925 213.278981 203.658844 202.983062 
C 213.954763 192.687143 222.122495 180.463268 227.694606 167.011001 
C 233.266717 153.558735 236.134844 139.139691 236.134844 124.579062 
C 236.134844 110.018434 233.266717 95.59939 227.694606 82.147124 
C 222.122495 68.694857 213.954763 56.470982 203.658844 46.175063 
C 193.362925 35.879144 181.139049 27.711411 167.686783 22.1393 
C 154.234516 16.567189 139.815472 13.699062 125.254844 13.699062 
" style="fill: none; stroke: #000000; stroke-width: 0.8; stroke-linejoin: miter; stroke-linecap: square"/>
   </g>
  </g>
 </g>
 <defs>
  <clipPath id="p4e81d3ab10">
   <path d="M 236.134844 124.579063 
C 236.134844 110.018434 233.266717 95.59939 227.694606 82.147124 
C 222.122495 68.694857 213.954763 56.470982 203.658844 46.175063 
C 193.362925 35.879144 181.139049 27.711411 167.686783 22.1393 
C 154.234516 16.567189 139.815472 13.699062 125.254844 13.699062 
C 110.694216 13.699062 96.275171 16.567189 82.822905 22.1393 
C 69.370638 27.711411 57.146763 35.879144 46.850844 46.175063 
C 36.554925 56.470982 28.387192 68.694857 22.815081 82.147124 
C 17.24297 95.59939 14.374844 110.018434 14.374844 124.579062 
C 14.374844 139.139691 17.24297 153.558735 22.815081 167.011001 
C 28.387192 180.463268 36.554925 192.687143 46.850844 202.983062 
C 57.146763 213.278981 69.370638 221.446714 82.822905 227.018825 
C 96.275171 232.590936 110.694216 235.459063 125.254844 235.459063 
C 139.815472 235.459063 154.234516 232.590936 167.686783 227.018825 
C 181.139049 221.446714 193.362925 213.278981 203.658844 202.983062 
C 213.954763 192.687143 222.122495 180.463268 227.694606 167.011001 
C 233.266717 153.558735 236.134844 139.139691 236.134844 124.579063 
M 125.254844 124.579063 
C 125.254844 124.579063 125.254844 124.579063 125.254844 124.579063 
C 125.254844 124.579063 125.254844 124.579063 125.254844 124.579063 
C 125.254844 124.579063 125.254844 124.579063 125.254844 124.579063 
C 125.254844 124.579063 125.254844 124.579063 125.254844 124.579063 
C 125.254844 124.579063 125.254844 124.579063 125.254844 124.579063 
C 125.254844 124.579063 125.254844 124.579063 125.254844 124.579063 
C 125.254844 124.579063 125.254844 124.579063 125.254844 124.579063 
C 125.254844 124.579063 125.254844 124.579063 125.254844 124.579063 
C 125.254844 124.579063 125.254844 124.579063 125.254844 124.579063 
C 125.254844 124.579063 125.254844 124.579063 125.254844 124.579063 
C 125.254844 124.579063 125.254844 124.579063 125.254844 124.579063 
C 125.254844 124.579063 125.254844 124.579063 125.254844 124.579063 
C 125.254844 124.579063 125.254844 124.579063 125.254844 124.579063 
C 125.254844 124.579063 125.254844 124.579063 125.254844 124.579063 
C 125.254844 124.579063 125.254844 124.579063 125.254844 124.579063 
C 125.254844 124.579063 125.254844 124.579063 125.254844 124.579063 
z
"/>
  </clipPath>
 </defs>
</svg>
