<?xml version="1.0" encoding="utf-8" standalone="no"?>
<!DOCTYPE svg PUBLIC "-//W3C//DTD SVG 1.1//EN"
  "http://www.w3.org/Graphics/SVG/1.1/DTD/svg11.dtd">
<svg xmlns:xlink="http://www.w3.org/1999/xlink" width="248.410469pt" height="249.158125pt" viewBox="0 0 248.410469 249.158125" xmlns="http://www.w3.org/2000/svg" version="1.1">
 <title>Ski Rose for Villars/Gryon/Les Diablerets</title>
 <metadata>
  <rdf:RDF xmlns:dc="http://purl.org/dc/elements/1.1/" xmlns:cc="http://creativecommons.org/ns#" xmlns:rdf="http://www.w3.org/1999/02/22-rdf-syntax-ns#">
   <cc:Work>
    <dc:type rdf:resource="http://purl.org/dc/dcmitype/StillImage"/>
    <dc:title>Ski Rose for Villars/Gryon/Les Diablerets</dc:title>
    <dc:date>2025-12-13T10:25:04.493640</dc:date>
    <dc:description>A 32-bin stacked histogram of downhill ski run orientations colored by difficulty.</dc:description>
    <dc:format>image/svg+xml</dc:format>
    <dc:source>https://openskimap.org/?obj=669b5ff8d29a5a73f293dec2f318ed7554c32511</dc:source>
    <dc:creator>
     <cc:Agent>
      <dc:title>https://github.com/dhimmel/openskistats</dc:title>
     </cc:Agent>
    </dc:creator>
    <dc:rights>
     <cc:Agent>
      <dc:title>https://creativecommons.org/licenses/by/4.0/</dc:title>
     </cc:Agent>
    </dc:rights>
   </cc:Work>
  </rdf:RDF>
 </metadata>
 <defs>
  <style type="text/css">*{stroke-linejoin: round; stroke-linecap: butt}</style>
 </defs>
 <g id="figure_1">
  <g id="patch_1">
   <path d="M 0 249.158125 
L 248.410469 249.158125 
L 248.410469 0 
L 0 0 
z
" style="fill: #ffffff"/>
  </g>
  <g id="axes_1">
   <g id="patch_2">
    <path d="M 236.134844 124.579063 
C 236.134844 110.018434 233.266717 95.59939 227.694606 82.147124 
C 222.122495 68.694857 213.954763 56.470982 203.658844 46.175063 
C 193.362925 35.879144 181.139049 27.711411 167.686783 22.1393 
C 154.234516 16.567189 139.815472 13.699063 125.254844 13.699063 
C 110.694216 13.699063 96.275171 16.567189 82.822905 22.1393 
C 69.370638 27.711411 57.146763 35.879144 46.850844 46.175063 
C 36.554925 56.470982 28.387192 68.694857 22.815081 82.147124 
C 17.24297 95.59939 14.374844 110.018434 14.374844 124.579062 
C 14.374844 139.139691 17.24297 153.558735 22.815081 167.011001 
C 28.387192 180.463268 36.554925 192.687143 46.850844 202.983062 
C 57.146763 213.278981 69.370638 221.446714 82.822905 227.018825 
C 96.275171 232.590936 110.694216 235.459063 125.254844 235.459063 
C 139.815472 235.459063 154.234516 232.590936 167.686783 227.018825 
C 181.139049 221.446714 193.362925 213.278981 203.658844 202.983062 
C 213.954763 192.687143 222.122495 180.463268 227.694606 167.011001 
C 233.266717 153.558735 236.134844 139.139691 236.134844 124.579063 
M 125.254844 124.579063 
C 125.254844 124.579063 125.254844 124.579063 125.254844 124.579063 
C 125.254844 124.579063 125.254844 124.579063 125.254844 124.579063 
C 125.254844 124.579063 125.254844 124.579063 125.254844 124.579063 
C 125.254844 124.579063 125.254844 124.579063 125.254844 124.579063 
C 125.254844 124.579063 125.254844 124.579063 125.254844 124.579063 
C 125.254844 124.579063 125.254844 124.579063 125.254844 124.579063 
C 125.254844 124.579063 125.254844 124.579063 125.254844 124.579063 
C 125.254844 124.579063 125.254844 124.579063 125.254844 124.579063 
C 125.254844 124.579063 125.254844 124.579063 125.254844 124.579063 
C 125.254844 124.579063 125.254844 124.579063 125.254844 124.579063 
C 125.254844 124.579063 125.254844 124.579063 125.254844 124.579063 
C 125.254844 124.579063 125.254844 124.579063 125.254844 124.579063 
C 125.254844 124.579063 125.254844 124.579063 125.254844 124.579063 
C 125.254844 124.579063 125.254844 124.579063 125.254844 124.579063 
C 125.254844 124.579063 125.254844 124.579063 125.254844 124.579063 
C 125.254844 124.579063 125.254844 124.579063 125.254844 124.579063 
z
" style="fill: #ffffff"/>
   </g>
   <g id="FillBetweenPolyCollection_1">
    <defs>
     <path id="mbbd278946e" d="M 235.255334 -137.112035 
L 234.890572 -137.070476 
L 233.957128 -135.045902 
L 233.13941 -133.069762 
L 232.060077 -131.11155 
L 231.131863 -129.201753 
L 229.952291 -127.320662 
L 228.730905 -125.482084 
L 227.682093 -123.685193 
L 226.389313 -121.930763 
L 225.275295 -120.212075 
L 223.921159 -118.544372 
L 222.749755 -116.906047 
L 221.342293 -115.326893 
L 220.120261 -113.770514 
L 218.874904 -112.253748 
L 217.400282 -110.807834 
L 216.113495 -109.374539 
L 214.807653 -107.98143 
L 213.48411 -106.628615 
L 211.941996 -105.360984 
L 210.588652 -104.092228 
L 209.221744 -102.863745 
L 207.842594 -101.675452 
L 206.452519 -100.527215 
L 205.052825 -99.418856 
L 203.644816 -98.350145 
L 202.229782 -97.320807 
L 200.809006 -96.330519 
L 199.56738 -95.306576 
L 198.136261 -94.390591 
L 196.703066 -93.512491 
L 195.444615 -92.591741 
L 194.00796 -91.785508 
L 192.742594 -90.930912 
L 191.306858 -90.19456 
L 190.038499 -89.404408 
L 188.768562 -88.64473 
L 187.340375 -88.00789 
L 186.073002 -87.309647 
L 184.806623 -86.640395 
L 183.542036 -85.999612 
L 182.280015 -85.386748 
L 181.021317 -84.801224 
L 179.766675 -84.242429 
L 178.5168 -83.709726 
L 177.27238 -83.202446 
L 176.034074 -82.719895 
L 174.802518 -82.261351 
L 173.697105 -81.72097 
L 172.476991 -81.307937 
L 171.265318 -80.916753 
L 170.170256 -80.44081 
L 168.973051 -80.091092 
L 167.885993 -79.655205 
L 166.70498 -79.344176 
L 165.627476 -78.946103 
L 164.464154 -78.670859 
L 163.397551 -78.308259 
L 162.335117 -77.96277 
L 161.198612 -77.736231 
L 160.14872 -77.422695 
L 159.103719 -77.124689 
L 158.06381 -76.84172 
L 156.964744 -76.67063 
L 155.938838 -76.414839 
L 154.918452 -76.172453 
L 153.903691 -75.942971 
L 152.894638 -75.725892 
L 151.891351 -75.520718 
L 150.893869 -75.326953 
L 149.902204 -75.144105 
L 148.916347 -74.971688 
L 147.936267 -74.809222 
L 146.961907 -74.656234 
L 145.993192 -74.512261 
L 145.030022 -74.376849 
L 144.098044 -74.180634 
L 143.143142 -74.064068 
L 142.193458 -73.954881 
L 141.248814 -73.85267 
L 140.309012 -73.757043 
L 139.388796 -73.613676 
L 138.45609 -73.533631 
L 137.527638 -73.459193 
L 136.603176 -73.390043 
L 135.690708 -73.285149 
L 134.771923 -73.229499 
L 133.85637 -73.178366 
L 132.943732 -73.131513 
L 132.037165 -73.06222 
L 131.128423 -73.027323 
L 130.22171 -72.996181 
L 129.317909 -72.952921 
L 128.413653 -72.932988 
L 127.510481 -72.916476 
L 126.608145 -72.898586 
L 125.705902 -72.892883 
L 124.80379 -72.893464 
L 123.901649 -72.902648 
L 122.999148 -72.915142 
L 122.096637 -72.942831 
L 121.192824 -72.966213 
L 120.28768 -72.993092 
L 119.383427 -73.046299 
L 118.475465 -73.084569 
L 117.565241 -73.126727 
L 116.65798 -73.206229 
L 115.743533 -73.260621 
L 114.825964 -73.319481 
L 113.904964 -73.383064 
L 112.991533 -73.498695 
L 112.064601 -73.576177 
L 111.133516 -73.6592 
L 110.198027 -73.748101 
L 109.276713 -73.902906 
L 108.333965 -74.007888 
L 107.386269 -74.119763 
L 106.433441 -74.238934 
L 105.47532 -74.365817 
L 104.511766 -74.500843 
L 103.542658 -74.644455 
L 102.603911 -74.876126 
L 101.626282 -75.040752 
L 100.642944 -75.215229 
L 99.653863 -75.400036 
L 98.659025 -75.595657 
L 97.658439 -75.802583 
L 96.65214 -76.021307 
L 95.640183 -76.252328 
L 94.562014 -76.40097 
L 93.535698 -76.656661 
L 92.503996 -76.926283 
L 91.46706 -77.210336 
L 90.425064 -77.509316 
L 89.378205 -77.823717 
L 88.245268 -78.051649 
L 87.185919 -78.397764 
L 86.122419 -78.76088 
L 84.962729 -79.037111 
L 83.888357 -79.435464 
L 82.711001 -79.747207 
L 81.627093 -80.18314 
L 80.433554 -80.533304 
L 79.341646 -81.009065 
L 78.133638 -81.400433 
L 76.91718 -81.81351 
L 75.814906 -82.353367 
L 74.586988 -82.811705 
L 73.352303 -83.293918 
L 72.111486 -83.80073 
L 70.865193 -84.332838 
L 69.61411 -84.890913 
L 68.358946 -85.475595 
L 67.100431 -86.087496 
L 65.83932 -86.727199 
L 64.576387 -87.395257 
L 63.312426 -88.09219 
L 61.888094 -88.72788 
L 60.621495 -89.486017 
L 59.356436 -90.274523 
L 57.924429 -91.009356 
L 56.66228 -91.862088 
L 55.229263 -92.666567 
L 53.973942 -93.585244 
L 52.544289 -94.461365 
L 51.116663 -95.375257 
L 49.878026 -96.396825 
L 48.460643 -97.38481 
L 47.048949 -98.411736 
L 45.644225 -99.477931 
L 44.247765 -100.583673 
L 42.860867 -101.729191 
L 41.48484 -102.914667 
L 40.120999 -104.140235 
L 38.770664 -105.405982 
L 37.435165 -106.711947 
L 35.911284 -108.020212 
L 34.608268 -109.410028 
L 33.324241 -110.839942 
L 32.060562 -112.309803 
L 30.610002 -113.795645 
L 29.390506 -115.348377 
L 27.985911 -116.923831 
L 26.816849 -118.558337 
L 25.465336 -120.222159 
L 24.353388 -121.936865 
L 23.062847 -123.687246 
L 22.015654 -125.480017 
L 20.795786 -127.314419 
L 19.823367 -129.1823 
L 18.68859 -131.096934 
L 17.807509 -133.035351 
L 16.785649 -135.023458 
L 16.03033 -137.023624 
L 15.114989 -137.127914 
L 15.114989 -137.127914 
L 14.906992 -135.204352 
L 14.793621 -133.272549 
L 14.595395 -131.347284 
L 14.54795 -129.41263 
L 14.416056 -127.481478 
L 14.434191 -125.54618 
L 14.484565 -123.612385 
L 14.451727 -121.677581 
L 14.498347 -119.743329 
L 14.642965 -117.81375 
L 14.889129 -115.893092 
L 14.915368 -113.954579 
L 15.152733 -112.034512 
L 15.419796 -110.119004 
L 15.614023 -108.193132 
L 15.942356 -106.286426 
L 16.300076 -104.38549 
L 16.687201 -102.490726 
L 17.010142 -100.58179 
L 17.458639 -98.699483 
L 17.936763 -96.82472 
L 18.444616 -94.957965 
L 18.9823 -93.099701 
L 19.549934 -91.250432 
L 20.14766 -89.410691 
L 20.775646 -87.581038 
L 21.43409 -85.762073 
L 22.123243 -83.954445 
L 22.843438 -82.158869 
L 23.595102 -80.376149 
L 24.378757 -78.607181 
L 25.19499 -76.85296 
L 26.044429 -75.114574 
L 26.937275 -73.398176 
L 27.86056 -71.698281 
L 28.764294 -69.987336 
L 29.764968 -68.331227 
L 30.721652 -66.649048 
L 31.753225 -65.011962 
L 32.807804 -63.389702 
L 33.876047 -61.776156 
L 35.34277 -60.445403 
L 37.152466 -59.386732 
L 38.988943 -58.384909 
L 40.836702 -57.42984 
L 42.63335 -56.471159 
L 44.497633 -55.605888 
L 46.35824 -54.777244 
L 48.161406 -53.935942 
L 50.020785 -53.184607 
L 51.818778 -52.413641 
L 53.613164 -51.67596 
L 55.402982 -50.970559 
L 57.233927 -50.347257 
L 59.0104 -49.703339 
L 60.780025 -49.088749 
L 62.500982 -48.45254 
L 64.256959 -47.894211 
L 66.00447 -47.362472 
L 67.703473 -46.802849 
L 69.43462 -46.321996 
L 71.156154 -45.864981 
L 72.836969 -45.384293 
L 74.507563 -44.921787 
L 76.202192 -44.53241 
L 77.860391 -44.119248 
L 79.507934 -43.721673 
L 81.15123 -43.350311 
L 82.783763 -42.992876 
L 84.411732 -42.660453 
L 86.028979 -42.340328 
L 87.641467 -42.044041 
L 89.243423 -41.758465 
L 90.823401 -41.454206 
L 92.414276 -41.208424 
L 93.995126 -40.97115 
L 95.557936 -40.717581 
L 97.128035 -40.516893 
L 98.680185 -40.295013 
L 100.235494 -40.115152 
L 101.777641 -39.923005 
L 103.323277 -39.775984 
L 104.856041 -39.611933 
L 106.389198 -39.481636 
L 107.913586 -39.344057 
L 109.434483 -39.220033 
L 110.955763 -39.131126 
L 112.469705 -39.031704 
L 113.980908 -38.945015 
L 115.489626 -38.870844 
L 116.996804 -38.816038 
L 118.501095 -38.764551 
L 120.003788 -38.725065 
L 121.505172 -38.697466 
L 123.005541 -38.681664 
L 124.505221 -38.68086 
L 126.004488 -38.67837 
L 127.504106 -38.683213 
L 129.004414 -38.699787 
L 130.50571 -38.728155 
L 132.008683 -38.763396 
L 133.513092 -38.813874 
L 135.019417 -38.8765 
L 136.527934 -38.951443 
L 138.041947 -39.018554 
L 139.556282 -39.117036 
L 141.073634 -39.228509 
L 142.597786 -39.335776 
L 144.122531 -39.472423 
L 145.651002 -39.622949 
L 147.191261 -39.75723 
L 148.72871 -39.935035 
L 150.278043 -40.102157 
L 151.825141 -40.308845 
L 153.389053 -40.494775 
L 154.946581 -40.732182 
L 156.520699 -40.954734 
L 158.08898 -41.224753 
L 159.679514 -41.470557 
L 161.274418 -41.739714 
L 162.880253 -42.017636 
L 164.490354 -42.320105 
L 166.088463 -42.679493 
L 167.716117 -43.011716 
L 169.347616 -43.370279 
L 171.014631 -43.698912 
L 172.66676 -44.0896 
L 174.322091 -44.508593 
L 175.988882 -44.942575 
L 177.693127 -45.353459 
L 179.370853 -45.839781 
L 181.059642 -46.343621 
L 182.790025 -46.824728 
L 184.529685 -47.330585 
L 186.234396 -47.917258 
L 187.989574 -48.475749 
L 189.752736 -49.061734 
L 191.523341 -49.676152 
L 193.30079 -50.319943 
L 195.084412 -50.994051 
L 196.873459 -51.69943 
L 198.66709 -52.437049 
L 200.522498 -53.152725 
L 202.323894 -53.958289 
L 204.182075 -54.750147 
L 205.985498 -55.62857 
L 207.850173 -56.492727 
L 209.705704 -57.403815 
L 211.558357 -58.356047 
L 213.390254 -59.36229 
L 215.20388 -60.419039 
L 216.633132 -61.776505 
L 217.702235 -63.389469 
L 218.75803 -65.010963 
L 219.735214 -66.681417 
L 220.775637 -68.313015 
L 221.736894 -69.992145 
L 222.646192 -71.699875 
L 223.56201 -73.403591 
L 224.427374 -75.133463 
L 225.241824 -76.887719 
L 226.121595 -78.611436 
L 226.930295 -80.369318 
L 227.632973 -82.172653 
L 228.393226 -83.951773 
L 229.106167 -85.750644 
L 229.77191 -87.567628 
L 230.390618 -89.401125 
L 230.962493 -91.249569 
L 231.546512 -93.094036 
L 232.019908 -94.97049 
L 232.571004 -96.825216 
L 233.003483 -98.710903 
L 233.479213 -100.586298 
L 233.781065 -102.499153 
L 234.215855 -104.384333 
L 234.609809 -106.279317 
L 234.784812 -108.209699 
L 235.097853 -110.117956 
L 235.353291 -112.034929 
L 235.591006 -113.954898 
L 235.790417 -115.879724 
L 235.770235 -117.819652 
L 235.883472 -119.748912 
L 235.973074 -121.679804 
L 236.026843 -123.61237 
L 236.045505 -125.545918 
L 236.020807 -127.479571 
L 235.971318 -129.413048 
L 235.888578 -131.345712 
L 235.773313 -133.277055 
L 235.615171 -135.205553 
L 235.255334 -137.112035 
z
" style="stroke: #ffee9c"/>
    </defs>
    <g clip-path="url(#pbd8d5a5690)">
     <use xlink:href="#mbbd278946e" x="0" y="249.158125" style="fill: #ffee9c; stroke: #ffee9c"/>
    </g>
   </g>
   <g id="matplotlib.axis_1">
    <g id="xtick_1">
     <g id="line2d_1">
      <path d="M 125.254844 124.579063 
L 125.254844 13.699063 
" clip-path="url(#pbd8d5a5690)" style="fill: none; stroke: #b0b0b0; stroke-width: 0.8; stroke-linecap: square"/>
     </g>
     <g id="text_1">
      <!-- N -->
      <g transform="translate(121.070469 7.958438) scale(0.1 -0.1)">
       <defs>
        <path id="DejaVuSans-Bold-4e" d="M 588 4666 
L 1931 4666 
L 3628 1466 
L 3628 4666 
L 4769 4666 
L 4769 0 
L 3425 0 
L 1728 3200 
L 1728 0 
L 588 0 
L 588 4666 
z
" transform="scale(0.015625)"/>
       </defs>
       <use xlink:href="#DejaVuSans-Bold-4e"/>
      </g>
     </g>
    </g>
    <g id="xtick_2">
     <g id="line2d_2">
      <path d="M 125.254844 124.579063 
L 203.658844 46.175063 
" clip-path="url(#pbd8d5a5690)" style="fill: none; stroke: #b0b0b0; stroke-width: 0.8; stroke-linecap: square"/>
     </g>
    </g>
    <g id="xtick_3">
     <g id="line2d_3">
      <path d="M 125.254844 124.579063 
L 236.134844 124.579063 
" clip-path="url(#pbd8d5a5690)" style="fill: none; stroke: #b0b0b0; stroke-width: 0.8; stroke-linecap: square"/>
     </g>
     <g id="text_2">
      <!-- E -->
      <g transform="translate(241.219219 127.338438) scale(0.1 -0.1)">
       <defs>
        <path id="DejaVuSans-Bold-45" d="M 588 4666 
L 3834 4666 
L 3834 3756 
L 1791 3756 
L 1791 2888 
L 3713 2888 
L 3713 1978 
L 1791 1978 
L 1791 909 
L 3903 909 
L 3903 0 
L 588 0 
L 588 4666 
z
" transform="scale(0.015625)"/>
       </defs>
       <use xlink:href="#DejaVuSans-Bold-45"/>
      </g>
     </g>
    </g>
    <g id="xtick_4">
     <g id="line2d_4">
      <path d="M 125.254844 124.579063 
L 203.658844 202.983062 
" clip-path="url(#pbd8d5a5690)" style="fill: none; stroke: #b0b0b0; stroke-width: 0.8; stroke-linecap: square"/>
     </g>
    </g>
    <g id="xtick_5">
     <g id="line2d_5">
      <path d="M 125.254844 124.579063 
L 125.254844 235.459063 
" clip-path="url(#pbd8d5a5690)" style="fill: none; stroke: #b0b0b0; stroke-width: 0.8; stroke-linecap: square"/>
     </g>
     <g id="text_3">
      <!-- S -->
      <g transform="translate(121.654062 246.718438) scale(0.1 -0.1)">
       <defs>
        <path id="DejaVuSans-Bold-53" d="M 3834 4519 
L 3834 3531 
Q 3450 3703 3084 3790 
Q 2719 3878 2394 3878 
Q 1963 3878 1756 3759 
Q 1550 3641 1550 3391 
Q 1550 3203 1689 3098 
Q 1828 2994 2194 2919 
L 2706 2816 
Q 3484 2659 3812 2340 
Q 4141 2022 4141 1434 
Q 4141 663 3683 286 
Q 3225 -91 2284 -91 
Q 1841 -91 1394 -6 
Q 947 78 500 244 
L 500 1259 
Q 947 1022 1364 901 
Q 1781 781 2169 781 
Q 2563 781 2772 912 
Q 2981 1044 2981 1288 
Q 2981 1506 2839 1625 
Q 2697 1744 2272 1838 
L 1806 1941 
Q 1106 2091 782 2419 
Q 459 2747 459 3303 
Q 459 4000 909 4375 
Q 1359 4750 2203 4750 
Q 2588 4750 2994 4692 
Q 3400 4634 3834 4519 
z
" transform="scale(0.015625)"/>
       </defs>
       <use xlink:href="#DejaVuSans-Bold-53"/>
      </g>
     </g>
    </g>
    <g id="xtick_6">
     <g id="line2d_6">
      <path d="M 125.254844 124.579063 
L 46.850844 202.983062 
" clip-path="url(#pbd8d5a5690)" style="fill: none; stroke: #b0b0b0; stroke-width: 0.8; stroke-linecap: square"/>
     </g>
    </g>
    <g id="xtick_7">
     <g id="line2d_7">
      <path d="M 125.254844 124.579063 
L 14.374844 124.579063 
" clip-path="url(#pbd8d5a5690)" style="fill: none; stroke: #b0b0b0; stroke-width: 0.8; stroke-linecap: square"/>
     </g>
     <g id="text_4">
      <!-- W -->
      <g transform="translate(0.36 127.338438) scale(0.1 -0.1)">
       <defs>
        <path id="DejaVuSans-Bold-57" d="M 191 4666 
L 1344 4666 
L 2150 1275 
L 2950 4666 
L 4109 4666 
L 4909 1275 
L 5716 4666 
L 6859 4666 
L 5759 0 
L 4372 0 
L 3525 3547 
L 2688 0 
L 1300 0 
L 191 4666 
z
" transform="scale(0.015625)"/>
       </defs>
       <use xlink:href="#DejaVuSans-Bold-57"/>
      </g>
     </g>
    </g>
    <g id="xtick_8">
     <g id="line2d_8">
      <path d="M 125.254844 124.579063 
L 46.850844 46.175063 
" clip-path="url(#pbd8d5a5690)" style="fill: none; stroke: #b0b0b0; stroke-width: 0.8; stroke-linecap: square"/>
     </g>
    </g>
   </g>
   <g id="matplotlib.axis_2"/>
   <g id="patch_3">
    <path d="M 125.254844 124.579063 
C 125.254844 124.579063 125.254844 124.579063 125.254844 124.579063 
C 125.254844 124.579063 125.254844 124.579063 125.254844 124.579063 
L 125.254844 124.579063 
C 125.254844 124.579063 125.254844 124.579063 125.254844 124.579063 
C 125.254844 124.579063 125.254844 124.579063 125.254844 124.579063 
z
" clip-path="url(#pbd8d5a5690)" style="fill: #d9d9d9"/>
   </g>
   <g id="patch_4">
    <path d="M 125.254844 124.579063 
C 125.254844 124.579063 125.254844 124.579063 125.254844 124.579063 
C 125.254844 124.579063 125.254844 124.579063 125.254844 124.579063 
L 125.254844 124.579063 
C 125.254844 124.579063 125.254844 124.579063 125.254844 124.579063 
C 125.254844 124.579063 125.254844 124.579063 125.254844 124.579063 
z
" clip-path="url(#pbd8d5a5690)" style="fill: #d9d9d9"/>
   </g>
   <g id="patch_5">
    <path d="M 125.254844 124.579063 
C 125.254844 124.579063 125.254844 124.579063 125.254844 124.579063 
C 125.254844 124.579063 125.254844 124.579063 125.254844 124.579063 
L 125.254844 124.579063 
C 125.254844 124.579063 125.254844 124.579063 125.254844 124.579063 
C 125.254844 124.579063 125.254844 124.579063 125.254844 124.579063 
z
" clip-path="url(#pbd8d5a5690)" style="fill: #d9d9d9"/>
   </g>
   <g id="patch_6">
    <path d="M 125.254844 124.579063 
C 125.254844 124.579063 125.254844 124.579063 125.254844 124.579063 
C 125.254844 124.579063 125.254844 124.579063 125.254844 124.579063 
L 125.254844 124.579063 
C 125.254844 124.579063 125.254844 124.579063 125.254844 124.579063 
C 125.254844 124.579063 125.254844 124.579063 125.254844 124.579063 
z
" clip-path="url(#pbd8d5a5690)" style="fill: #d9d9d9"/>
   </g>
   <g id="patch_7">
    <path d="M 125.254844 124.579063 
C 125.254844 124.579063 125.254844 124.579063 125.254844 124.579063 
C 125.254844 124.579063 125.254844 124.579063 125.254844 124.579063 
L 125.254844 124.579063 
C 125.254844 124.579063 125.254844 124.579063 125.254844 124.579063 
C 125.254844 124.579063 125.254844 124.579063 125.254844 124.579063 
z
" clip-path="url(#pbd8d5a5690)" style="fill: #d9d9d9"/>
   </g>
   <g id="patch_8">
    <path d="M 125.254844 124.579063 
C 125.254844 124.579063 125.254844 124.579063 125.254844 124.579063 
C 125.254844 124.579063 125.254844 124.579063 125.254844 124.579063 
L 125.254844 124.579063 
C 125.254844 124.579063 125.254844 124.579063 125.254844 124.579063 
C 125.254844 124.579063 125.254844 124.579063 125.254844 124.579063 
z
" clip-path="url(#pbd8d5a5690)" style="fill: #d9d9d9"/>
   </g>
   <g id="patch_9">
    <path d="M 125.254844 124.579063 
C 125.254844 124.579063 125.254844 124.579063 125.254844 124.579063 
C 125.254844 124.579063 125.254844 124.579063 125.254844 124.579063 
L 125.254844 124.579063 
C 125.254844 124.579063 125.254844 124.579063 125.254844 124.579063 
C 125.254844 124.579063 125.254844 124.579063 125.254844 124.579063 
z
" clip-path="url(#pbd8d5a5690)" style="fill: #d9d9d9"/>
   </g>
   <g id="patch_10">
    <path d="M 125.254844 124.579063 
C 125.254844 124.579063 125.254844 124.579063 125.254844 124.579063 
C 125.254844 124.579063 125.254844 124.579063 125.254844 124.579063 
L 125.254844 124.579063 
C 125.254844 124.579063 125.254844 124.579063 125.254844 124.579063 
C 125.254844 124.579063 125.254844 124.579063 125.254844 124.579063 
z
" clip-path="url(#pbd8d5a5690)" style="fill: #d9d9d9"/>
   </g>
   <g id="patch_11">
    <path d="M 125.254844 124.579063 
C 125.254844 124.579063 125.254844 124.579063 125.254844 124.579063 
C 125.254844 124.579063 125.254844 124.579063 125.254844 124.579063 
L 125.254844 124.579063 
C 125.254844 124.579063 125.254844 124.579063 125.254844 124.579063 
C 125.254844 124.579063 125.254844 124.579063 125.254844 124.579063 
z
" clip-path="url(#pbd8d5a5690)" style="fill: #d9d9d9"/>
   </g>
   <g id="patch_12">
    <path d="M 125.254844 124.579063 
C 125.254844 124.579063 125.254844 124.579063 125.254844 124.579063 
C 125.254844 124.579063 125.254844 124.579063 125.254844 124.579063 
L 125.254844 124.579063 
C 125.254844 124.579063 125.254844 124.579063 125.254844 124.579063 
C 125.254844 124.579063 125.254844 124.579063 125.254844 124.579063 
z
" clip-path="url(#pbd8d5a5690)" style="fill: #d9d9d9"/>
   </g>
   <g id="patch_13">
    <path d="M 125.254844 124.579063 
C 125.254844 124.579063 125.254844 124.579063 125.254844 124.579063 
C 125.254844 124.579063 125.254844 124.579063 125.254844 124.579063 
L 125.254844 124.579063 
C 125.254844 124.579063 125.254844 124.579063 125.254844 124.579063 
C 125.254844 124.579063 125.254844 124.579063 125.254844 124.579063 
z
" clip-path="url(#pbd8d5a5690)" style="fill: #d9d9d9"/>
   </g>
   <g id="patch_14">
    <path d="M 125.254844 124.579063 
C 125.254844 124.579063 125.254844 124.579063 125.254844 124.579063 
C 125.254844 124.579063 125.254844 124.579063 125.254844 124.579063 
L 125.254844 124.579063 
C 125.254844 124.579063 125.254844 124.579063 125.254844 124.579063 
C 125.254844 124.579063 125.254844 124.579063 125.254844 124.579063 
z
" clip-path="url(#pbd8d5a5690)" style="fill: #d9d9d9"/>
   </g>
   <g id="patch_15">
    <path d="M 125.254844 124.579063 
C 125.254844 124.579063 125.254844 124.579063 125.254844 124.579063 
C 125.254844 124.579063 125.254844 124.579063 125.254844 124.579063 
L 125.254844 124.579063 
C 125.254844 124.579063 125.254844 124.579063 125.254844 124.579063 
C 125.254844 124.579063 125.254844 124.579063 125.254844 124.579063 
z
" clip-path="url(#pbd8d5a5690)" style="fill: #d9d9d9"/>
   </g>
   <g id="patch_16">
    <path d="M 125.254844 124.579063 
C 125.254844 124.579063 125.254844 124.579063 125.254844 124.579063 
C 125.254844 124.579063 125.254844 124.579063 125.254844 124.579063 
L 125.254844 124.579063 
C 125.254844 124.579063 125.254844 124.579063 125.254844 124.579063 
C 125.254844 124.579063 125.254844 124.579063 125.254844 124.579063 
z
" clip-path="url(#pbd8d5a5690)" style="fill: #d9d9d9"/>
   </g>
   <g id="patch_17">
    <path d="M 125.254844 124.579063 
C 125.254844 124.579063 125.254844 124.579063 125.254844 124.579063 
C 125.254844 124.579063 125.254844 124.579063 125.254844 124.579063 
L 125.254844 124.579063 
C 125.254844 124.579063 125.254844 124.579063 125.254844 124.579063 
C 125.254844 124.579063 125.254844 124.579063 125.254844 124.579063 
z
" clip-path="url(#pbd8d5a5690)" style="fill: #d9d9d9"/>
   </g>
   <g id="patch_18">
    <path d="M 125.254844 124.579063 
C 125.254844 124.579063 125.254844 124.579063 125.254844 124.579063 
C 125.254844 124.579063 125.254844 124.579063 125.254844 124.579063 
L 125.254844 124.579063 
C 125.254844 124.579063 125.254844 124.579063 125.254844 124.579063 
C 125.254844 124.579063 125.254844 124.579063 125.254844 124.579063 
z
" clip-path="url(#pbd8d5a5690)" style="fill: #d9d9d9"/>
   </g>
   <g id="patch_19">
    <path d="M 125.254844 124.579063 
C 125.254844 124.579063 125.254844 124.579063 125.254844 124.579063 
C 125.254844 124.579063 125.254844 124.579063 125.254844 124.579063 
L 125.254844 124.579063 
C 125.254844 124.579063 125.254844 124.579063 125.254844 124.579063 
C 125.254844 124.579063 125.254844 124.579063 125.254844 124.579063 
z
" clip-path="url(#pbd8d5a5690)" style="fill: #d9d9d9"/>
   </g>
   <g id="patch_20">
    <path d="M 125.254844 124.579063 
C 125.254844 124.579063 125.254844 124.579063 125.254844 124.579063 
C 125.254844 124.579063 125.254844 124.579063 125.254844 124.579063 
L 125.254844 124.579063 
C 125.254844 124.579063 125.254844 124.579063 125.254844 124.579063 
C 125.254844 124.579063 125.254844 124.579063 125.254844 124.579063 
z
" clip-path="url(#pbd8d5a5690)" style="fill: #d9d9d9"/>
   </g>
   <g id="patch_21">
    <path d="M 125.254844 124.579063 
C 125.254844 124.579063 125.254844 124.579063 125.254844 124.579063 
C 125.254844 124.579063 125.254844 124.579063 125.254844 124.579063 
L 125.254844 124.579063 
C 125.254844 124.579063 125.254844 124.579063 125.254844 124.579063 
C 125.254844 124.579063 125.254844 124.579063 125.254844 124.579063 
z
" clip-path="url(#pbd8d5a5690)" style="fill: #d9d9d9"/>
   </g>
   <g id="patch_22">
    <path d="M 125.254844 124.579063 
C 125.254844 124.579063 125.254844 124.579063 125.254844 124.579063 
C 125.254844 124.579063 125.254844 124.579063 125.254844 124.579063 
L 125.254844 124.579063 
C 125.254844 124.579063 125.254844 124.579063 125.254844 124.579063 
C 125.254844 124.579063 125.254844 124.579063 125.254844 124.579063 
z
" clip-path="url(#pbd8d5a5690)" style="fill: #d9d9d9"/>
   </g>
   <g id="patch_23">
    <path d="M 125.254844 124.579063 
C 125.254844 124.579063 125.254844 124.579063 125.254844 124.579063 
C 125.254844 124.579063 125.254844 124.579063 125.254844 124.579063 
L 125.254844 124.579063 
C 125.254844 124.579063 125.254844 124.579063 125.254844 124.579063 
C 125.254844 124.579063 125.254844 124.579063 125.254844 124.579063 
z
" clip-path="url(#pbd8d5a5690)" style="fill: #d9d9d9"/>
   </g>
   <g id="patch_24">
    <path d="M 125.254844 124.579063 
C 125.254844 124.579063 125.254844 124.579063 125.254844 124.579063 
C 125.254844 124.579063 125.254844 124.579063 125.254844 124.579063 
L 125.254844 124.579063 
C 125.254844 124.579063 125.254844 124.579063 125.254844 124.579063 
C 125.254844 124.579063 125.254844 124.579063 125.254844 124.579063 
z
" clip-path="url(#pbd8d5a5690)" style="fill: #d9d9d9"/>
   </g>
   <g id="patch_25">
    <path d="M 125.254844 124.579063 
C 125.254844 124.579063 125.254844 124.579063 125.254844 124.579063 
C 125.254844 124.579063 125.254844 124.579063 125.254844 124.579063 
L 125.254844 124.579063 
C 125.254844 124.579063 125.254844 124.579063 125.254844 124.579063 
C 125.254844 124.579063 125.254844 124.579063 125.254844 124.579063 
z
" clip-path="url(#pbd8d5a5690)" style="fill: #d9d9d9"/>
   </g>
   <g id="patch_26">
    <path d="M 125.254844 124.579063 
C 125.254844 124.579063 125.254844 124.579063 125.254844 124.579063 
C 125.254844 124.579063 125.254844 124.579063 125.254844 124.579063 
L 125.254844 124.579063 
C 125.254844 124.579063 125.254844 124.579063 125.254844 124.579063 
C 125.254844 124.579063 125.254844 124.579063 125.254844 124.579063 
z
" clip-path="url(#pbd8d5a5690)" style="fill: #d9d9d9"/>
   </g>
   <g id="patch_27">
    <path d="M 125.254844 124.579063 
C 125.254844 124.579063 125.254844 124.579063 125.254844 124.579063 
C 125.254844 124.579063 125.254844 124.579063 125.254844 124.579063 
L 125.254844 124.579063 
C 125.254844 124.579063 125.254844 124.579063 125.254844 124.579063 
C 125.254844 124.579063 125.254844 124.579063 125.254844 124.579063 
z
" clip-path="url(#pbd8d5a5690)" style="fill: #d9d9d9"/>
   </g>
   <g id="patch_28">
    <path d="M 125.254844 124.579063 
C 125.254844 124.579063 125.254844 124.579063 125.254844 124.579063 
C 125.254844 124.579063 125.254844 124.579063 125.254844 124.579063 
L 125.254844 124.579063 
C 125.254844 124.579063 125.254844 124.579063 125.254844 124.579063 
C 125.254844 124.579063 125.254844 124.579063 125.254844 124.579063 
z
" clip-path="url(#pbd8d5a5690)" style="fill: #d9d9d9"/>
   </g>
   <g id="patch_29">
    <path d="M 125.254844 124.579063 
C 125.254844 124.579063 125.254844 124.579063 125.254844 124.579063 
C 125.254844 124.579063 125.254844 124.579063 125.254844 124.579063 
L 125.254844 124.579063 
C 125.254844 124.579063 125.254844 124.579063 125.254844 124.579063 
C 125.254844 124.579063 125.254844 124.579063 125.254844 124.579063 
z
" clip-path="url(#pbd8d5a5690)" style="fill: #d9d9d9"/>
   </g>
   <g id="patch_30">
    <path d="M 125.254844 124.579063 
C 125.254844 124.579063 125.254844 124.579063 125.254844 124.579063 
C 125.254844 124.579063 125.254844 124.579063 125.254844 124.579063 
L 125.254844 124.579063 
C 125.254844 124.579063 125.254844 124.579063 125.254844 124.579063 
C 125.254844 124.579063 125.254844 124.579063 125.254844 124.579063 
z
" clip-path="url(#pbd8d5a5690)" style="fill: #d9d9d9"/>
   </g>
   <g id="patch_31">
    <path d="M 125.254844 124.579063 
C 125.254844 124.579063 125.254844 124.579063 125.254844 124.579063 
C 125.254844 124.579063 125.254844 124.579063 125.254844 124.579063 
L 125.254844 124.579063 
C 125.254844 124.579063 125.254844 124.579063 125.254844 124.579063 
C 125.254844 124.579063 125.254844 124.579063 125.254844 124.579063 
z
" clip-path="url(#pbd8d5a5690)" style="fill: #d9d9d9"/>
   </g>
   <g id="patch_32">
    <path d="M 125.254844 124.579063 
C 125.254844 124.579063 125.254844 124.579063 125.254844 124.579063 
C 125.254844 124.579063 125.254844 124.579063 125.254844 124.579063 
L 125.254844 124.579063 
C 125.254844 124.579063 125.254844 124.579063 125.254844 124.579063 
C 125.254844 124.579063 125.254844 124.579063 125.254844 124.579063 
z
" clip-path="url(#pbd8d5a5690)" style="fill: #d9d9d9"/>
   </g>
   <g id="patch_33">
    <path d="M 125.254844 124.579063 
C 125.254844 124.579063 125.254844 124.579063 125.254844 124.579063 
C 125.254844 124.579063 125.254844 124.579063 125.254844 124.579063 
L 125.254844 124.579063 
C 125.254844 124.579063 125.254844 124.579063 125.254844 124.579063 
C 125.254844 124.579063 125.254844 124.579063 125.254844 124.579063 
z
" clip-path="url(#pbd8d5a5690)" style="fill: #d9d9d9"/>
   </g>
   <g id="patch_34">
    <path d="M 125.254844 124.579063 
C 125.254844 124.579063 125.254844 124.579063 125.254844 124.579063 
C 125.254844 124.579063 125.254844 124.579063 125.254844 124.579063 
L 125.254844 124.579063 
C 125.254844 124.579063 125.254844 124.579063 125.254844 124.579063 
C 125.254844 124.579063 125.254844 124.579063 125.254844 124.579063 
z
" clip-path="url(#pbd8d5a5690)" style="fill: #d9d9d9"/>
   </g>
   <g id="patch_35">
    <path d="M 125.254844 124.579063 
C 125.254844 124.579063 125.254844 124.579063 125.254844 124.579063 
C 125.254844 124.579063 125.254844 124.579063 125.254844 124.579063 
L 131.339692 62.798558 
C 129.317524 62.599392 127.286796 62.499629 125.254844 62.499629 
C 123.222891 62.499629 121.192163 62.599392 119.169995 62.798558 
z
" clip-path="url(#pbd8d5a5690)" style="fill: #a1a1d8"/>
   </g>
   <g id="patch_36">
    <path d="M 125.254844 124.579063 
C 125.254844 124.579063 125.254844 124.579063 125.254844 124.579063 
C 125.254844 124.579063 125.254844 124.579063 125.254844 124.579063 
L 150.783725 40.421621 
C 148.029126 39.586022 145.235162 38.886171 142.411924 38.324594 
C 139.588687 37.763017 136.739579 37.340392 133.874892 37.058245 
z
" clip-path="url(#pbd8d5a5690)" style="fill: #a1a1d8"/>
   </g>
   <g id="patch_37">
    <path d="M 125.254844 124.579063 
C 125.254844 124.579063 125.254844 124.579063 125.254844 124.579063 
C 125.254844 124.579063 125.254844 124.579063 125.254844 124.579063 
L 169.6039 41.607815 
C 166.888127 40.156204 164.102721 38.838805 161.257742 37.660377 
C 158.412764 36.481948 155.511643 35.44391 152.564857 34.550013 
z
" clip-path="url(#pbd8d5a5690)" style="fill: #a1a1d8"/>
   </g>
   <g id="patch_38">
    <path d="M 125.254844 124.579063 
C 125.254844 124.579063 125.254844 124.579063 125.254844 124.579063 
C 125.254844 124.579063 125.254844 124.579063 125.254844 124.579063 
L 155.517952 87.703359 
C 154.310955 86.712802 153.056052 85.782103 151.757775 84.914622 
C 150.459499 84.047142 149.119414 83.243926 147.742362 82.507876 
z
" clip-path="url(#pbd8d5a5690)" style="fill: #a1a1d8"/>
   </g>
   <g id="patch_39">
    <path d="M 125.254844 124.579063 
C 125.254844 124.579063 125.254844 124.579063 125.254844 124.579063 
C 125.254844 124.579063 125.254844 124.579063 125.254844 124.579063 
L 159.975193 96.084808 
C 159.042534 94.948359 158.05464 93.858386 157.01508 92.818826 
C 155.97552 91.779266 154.885547 90.791373 153.749098 89.858713 
z
" clip-path="url(#pbd8d5a5690)" style="fill: #a1a1d8"/>
   </g>
   <g id="patch_40">
    <path d="M 125.254844 124.579063 
C 125.254844 124.579063 125.254844 124.579063 125.254844 124.579063 
C 125.254844 124.579063 125.254844 124.579063 125.254844 124.579063 
L 168.96708 101.214386 
C 168.202319 99.783619 167.367772 98.391262 166.466455 97.042345 
C 165.565137 95.693427 164.598134 94.389575 163.568939 93.135497 
z
" clip-path="url(#pbd8d5a5690)" style="fill: #a1a1d8"/>
   </g>
   <g id="patch_41">
    <path d="M 125.254844 124.579063 
C 125.254844 124.579063 125.254844 124.579063 125.254844 124.579063 
C 125.254844 124.579063 125.254844 124.579063 125.254844 124.579063 
L 180.22552 107.90389 
C 179.679716 106.104618 179.045903 104.333228 178.326368 102.596117 
C 177.606833 100.859007 176.802445 99.158271 175.916109 97.500052 
z
" clip-path="url(#pbd8d5a5690)" style="fill: #a1a1d8"/>
   </g>
   <g id="patch_42">
    <path d="M 125.254844 124.579063 
C 125.254844 124.579063 125.254844 124.579063 125.254844 124.579063 
C 125.254844 124.579063 125.254844 124.579063 125.254844 124.579063 
L 144.701833 122.663701 
C 144.63914 122.027172 144.545233 121.394105 144.420452 120.766786 
C 144.29567 120.139467 144.140164 119.518653 143.954496 118.906585 
z
" clip-path="url(#pbd8d5a5690)" style="fill: #a1a1d8"/>
   </g>
   <g id="patch_43">
    <path d="M 125.254844 124.579063 
C 125.254844 124.579063 125.254844 124.579063 125.254844 124.579063 
C 125.254844 124.579063 125.254844 124.579063 125.254844 124.579063 
L 175.328698 129.510907 
C 175.490125 127.871915 175.570984 126.225985 175.570984 124.579063 
C 175.570984 122.93214 175.490125 121.28621 175.328698 119.647218 
z
" clip-path="url(#pbd8d5a5690)" style="fill: #a1a1d8"/>
   </g>
   <g id="patch_44">
    <path d="M 125.254844 124.579063 
C 125.254844 124.579063 125.254844 124.579063 125.254844 124.579063 
C 125.254844 124.579063 125.254844 124.579063 125.254844 124.579063 
L 190.637968 144.412816 
C 191.287156 142.272729 191.830881 140.102058 192.267178 137.908645 
C 192.703475 135.715231 193.031819 133.501718 193.251023 131.276102 
z
" clip-path="url(#pbd8d5a5690)" style="fill: #a1a1d8"/>
   </g>
   <g id="patch_45">
    <path d="M 125.254844 124.579063 
C 125.254844 124.579063 125.254844 124.579063 125.254844 124.579063 
C 125.254844 124.579063 125.254844 124.579063 125.254844 124.579063 
L 146.824344 136.108201 
C 147.20171 135.402199 147.544186 134.678095 147.850534 133.938504 
C 148.156883 133.198913 148.426735 132.444727 148.659115 131.678671 
z
" clip-path="url(#pbd8d5a5690)" style="fill: #a1a1d8"/>
   </g>
   <g id="patch_46">
    <path d="M 125.254844 124.579063 
C 125.254844 124.579063 125.254844 124.579063 125.254844 124.579063 
C 125.254844 124.579063 125.254844 124.579063 125.254844 124.579063 
L 171.820088 162.794171 
C 173.070926 161.270021 174.246178 159.685377 175.341599 158.045963 
C 176.437021 156.406548 177.451292 154.71434 178.380748 152.97545 
z
" clip-path="url(#pbd8d5a5690)" style="fill: #a1a1d8"/>
   </g>
   <g id="patch_47">
    <path d="M 125.254844 124.579063 
C 125.254844 124.579063 125.254844 124.579063 125.254844 124.579063 
C 125.254844 124.579063 125.254844 124.579063 125.254844 124.579063 
L 180.45385 191.839246 
C 182.655376 190.0325 184.766869 188.118754 186.780702 186.104921 
C 188.794535 184.091088 190.708281 181.979595 192.515027 179.778068 
z
" clip-path="url(#pbd8d5a5690)" style="fill: #a1a1d8"/>
   </g>
   <g id="patch_48">
    <path d="M 125.254844 124.579063 
C 125.254844 124.579063 125.254844 124.579063 125.254844 124.579063 
C 125.254844 124.579063 125.254844 124.579063 125.254844 124.579063 
L 148.598518 168.252006 
C 150.027999 167.487932 151.419104 166.654136 152.766809 165.753628 
C 154.114514 164.853121 155.417194 163.886987 156.670145 162.858717 
z
" clip-path="url(#pbd8d5a5690)" style="fill: #a1a1d8"/>
   </g>
   <g id="patch_49">
    <path d="M 125.254844 124.579063 
C 125.254844 124.579063 125.254844 124.579063 125.254844 124.579063 
C 125.254844 124.579063 125.254844 124.579063 125.254844 124.579063 
L 137.128496 163.72125 
C 138.409679 163.332608 139.671008 162.881297 140.907927 162.368948 
C 142.144846 161.856599 143.355865 161.28383 144.53661 160.652709 
z
" clip-path="url(#pbd8d5a5690)" style="fill: #a1a1d8"/>
   </g>
   <g id="patch_50">
    <path d="M 125.254844 124.579063 
C 125.254844 124.579063 125.254844 124.579063 125.254844 124.579063 
C 125.254844 124.579063 125.254844 124.579063 125.254844 124.579063 
L 129.088333 163.501134 
C 130.362311 163.375658 131.62936 163.187709 132.884904 162.937966 
C 134.140448 162.688223 135.382974 162.376986 136.607993 162.005381 
z
" clip-path="url(#pbd8d5a5690)" style="fill: #a1a1d8"/>
   </g>
   <g id="patch_51">
    <path d="M 125.254844 124.579063 
C 125.254844 124.579063 125.254844 124.579063 125.254844 124.579063 
C 125.254844 124.579063 125.254844 124.579063 125.254844 124.579063 
L 121.148917 166.267238 
C 122.513433 166.401631 123.883725 166.468949 125.254844 166.468949 
C 126.625962 166.468949 127.996254 166.401631 129.360771 166.267238 
z
" clip-path="url(#pbd8d5a5690)" style="fill: #a1a1d8"/>
   </g>
   <g id="patch_52">
    <path d="M 125.254844 124.579063 
C 125.254844 124.579063 125.254844 124.579063 125.254844 124.579063 
C 125.254844 124.579063 125.254844 124.579063 125.254844 124.579063 
L 114.03352 161.570808 
C 115.244315 161.938099 116.472414 162.245722 117.713379 162.492565 
C 118.954345 162.739408 120.206682 162.925175 121.465867 163.049194 
z
" clip-path="url(#pbd8d5a5690)" style="fill: #a1a1d8"/>
   </g>
   <g id="patch_53">
    <path d="M 125.254844 124.579063 
C 125.254844 124.579063 125.254844 124.579063 125.254844 124.579063 
C 125.254844 124.579063 125.254844 124.579063 125.254844 124.579063 
L 93.468118 184.047845 
C 95.41462 185.088272 97.41103 186.032504 99.450139 186.87713 
C 101.489248 187.721757 103.568597 188.465759 105.680674 189.106451 
z
" clip-path="url(#pbd8d5a5690)" style="fill: #a1a1d8"/>
   </g>
   <g id="patch_54">
    <path d="M 125.254844 124.579063 
C 125.254844 124.579063 125.254844 124.579063 125.254844 124.579063 
C 125.254844 124.579063 125.254844 124.579063 125.254844 124.579063 
L 89.241734 168.461164 
C 90.678061 169.639927 92.171396 170.747459 93.716345 171.779761 
C 95.261294 172.812064 96.855996 173.767891 98.494689 174.643791 
z
" clip-path="url(#pbd8d5a5690)" style="fill: #a1a1d8"/>
   </g>
   <g id="patch_55">
    <path d="M 125.254844 124.579063 
C 125.254844 124.579063 125.254844 124.579063 125.254844 124.579063 
C 125.254844 124.579063 125.254844 124.579063 125.254844 124.579063 
L 81.207743 160.727584 
C 82.390938 162.169312 83.644204 163.552078 84.963016 164.87089 
C 86.281828 166.189702 87.664595 167.442969 89.106322 168.626164 
z
" clip-path="url(#pbd8d5a5690)" style="fill: #a1a1d8"/>
   </g>
   <g id="patch_56">
    <path d="M 125.254844 124.579063 
C 125.254844 124.579063 125.254844 124.579063 125.254844 124.579063 
C 125.254844 124.579063 125.254844 124.579063 125.254844 124.579063 
L 67.603675 155.394254 
C 68.612302 157.281263 69.712968 159.117614 70.901698 160.896673 
C 72.090428 162.675733 73.365788 164.395357 74.723172 166.049334 
z
" clip-path="url(#pbd8d5a5690)" style="fill: #a1a1d8"/>
   </g>
   <g id="patch_57">
    <path d="M 125.254844 124.579063 
C 125.254844 124.579063 125.254844 124.579063 125.254844 124.579063 
C 125.254844 124.579063 125.254844 124.579063 125.254844 124.579063 
L 68.689433 141.737992 
C 69.251071 143.589462 69.903272 145.412242 70.643681 147.199747 
C 71.384089 148.987252 72.211813 150.737327 73.123863 152.443652 
z
" clip-path="url(#pbd8d5a5690)" style="fill: #a1a1d8"/>
   </g>
   <g id="patch_58">
    <path d="M 125.254844 124.579063 
C 125.254844 124.579063 125.254844 124.579063 125.254844 124.579063 
C 125.254844 124.579063 125.254844 124.579063 125.254844 124.579063 
L 68.240412 130.194494 
C 68.424213 132.060661 68.699528 133.91668 69.06536 135.755846 
C 69.431193 137.595011 69.887103 139.415107 70.431444 141.209559 
z
" clip-path="url(#pbd8d5a5690)" style="fill: #a1a1d8"/>
   </g>
   <g id="patch_59">
    <path d="M 125.254844 124.579063 
C 125.254844 124.579063 125.254844 124.579063 125.254844 124.579063 
C 125.254844 124.579063 125.254844 124.579063 125.254844 124.579063 
L 73.274571 119.459452 
C 73.106998 121.160844 73.023061 122.869438 73.023061 124.579062 
C 73.023061 126.288687 73.106998 127.997281 73.274571 129.698673 
z
" clip-path="url(#pbd8d5a5690)" style="fill: #a1a1d8"/>
   </g>
   <g id="patch_60">
    <path d="M 125.254844 124.579063 
C 125.254844 124.579063 125.254844 124.579063 125.254844 124.579063 
C 125.254844 124.579063 125.254844 124.579063 125.254844 124.579063 
L 125.254844 124.579063 
C 125.254844 124.579063 125.254844 124.579063 125.254844 124.579063 
C 125.254844 124.579063 125.254844 124.579063 125.254844 124.579063 
z
" clip-path="url(#pbd8d5a5690)" style="fill: #a1a1d8"/>
   </g>
   <g id="patch_61">
    <path d="M 125.254844 124.579063 
C 125.254844 124.579063 125.254844 124.579063 125.254844 124.579063 
C 125.254844 124.579063 125.254844 124.579063 125.254844 124.579063 
L 91.926973 106.764945 
C 91.343891 107.855816 90.814718 108.974657 90.341367 110.117427 
C 89.868016 111.260197 89.451058 112.425519 89.091997 113.609183 
z
" clip-path="url(#pbd8d5a5690)" style="fill: #a1a1d8"/>
   </g>
   <g id="patch_62">
    <path d="M 125.254844 124.579063 
C 125.254844 124.579063 125.254844 124.579063 125.254844 124.579063 
C 125.254844 124.579063 125.254844 124.579063 125.254844 124.579063 
L 83.058204 89.949175 
C 81.924716 91.330334 80.859722 92.766312 79.86707 94.251921 
C 78.874417 95.737531 77.955302 97.270982 77.113044 98.846735 
z
" clip-path="url(#pbd8d5a5690)" style="fill: #a1a1d8"/>
   </g>
   <g id="patch_63">
    <path d="M 125.254844 124.579063 
C 125.254844 124.579063 125.254844 124.579063 125.254844 124.579063 
C 125.254844 124.579063 125.254844 124.579063 125.254844 124.579063 
L 87.790965 78.929194 
C 86.296777 80.155443 84.863694 81.454313 83.496894 82.821113 
C 82.130094 84.187913 80.831224 85.620995 79.604975 87.115184 
z
" clip-path="url(#pbd8d5a5690)" style="fill: #a1a1d8"/>
   </g>
   <g id="patch_64">
    <path d="M 125.254844 124.579063 
C 125.254844 124.579063 125.254844 124.579063 125.254844 124.579063 
C 125.254844 124.579063 125.254844 124.579063 125.254844 124.579063 
L 105.261244 87.173668 
C 104.036909 87.828088 102.845443 88.542226 101.691149 89.313501 
C 100.536854 90.084776 99.421123 90.912258 98.347985 91.79296 
z
" clip-path="url(#pbd8d5a5690)" style="fill: #a1a1d8"/>
   </g>
   <g id="patch_65">
    <path d="M 125.254844 124.579063 
C 125.254844 124.579063 125.254844 124.579063 125.254844 124.579063 
C 125.254844 124.579063 125.254844 124.579063 125.254844 124.579063 
L 105.647446 59.942133 
C 103.531782 60.583913 101.448904 61.329179 99.406334 62.175239 
C 97.363763 63.021299 95.363963 63.967134 93.414157 65.009327 
z
" clip-path="url(#pbd8d5a5690)" style="fill: #a1a1d8"/>
   </g>
   <g id="patch_66">
    <path d="M 125.254844 124.579063 
C 125.254844 124.579063 125.254844 124.579063 125.254844 124.579063 
C 125.254844 124.579063 125.254844 124.579063 125.254844 124.579063 
L 121.95015 91.02594 
C 120.851906 91.134108 119.759635 91.296131 118.677282 91.511425 
C 117.594928 91.726718 116.523798 91.995022 115.467759 92.315368 
z
" clip-path="url(#pbd8d5a5690)" style="fill: #a1a1d8"/>
   </g>
   <g id="patch_67">
    <path d="M 119.169995 62.798558 
C 121.192163 62.599392 123.222891 62.499629 125.254844 62.499629 
C 127.286796 62.499629 129.317524 62.599392 131.339692 62.798558 
L 131.552058 60.642375 
C 129.459315 60.436258 127.357713 60.333013 125.254844 60.333013 
C 123.151975 60.333013 121.050373 60.436258 118.95763 60.642375 
z
" clip-path="url(#pbd8d5a5690)" style="fill: #ff8c8e"/>
   </g>
   <g id="patch_68">
    <path d="M 133.874892 37.058245 
C 136.739579 37.340392 139.588687 37.763017 142.411924 38.324594 
C 145.235162 38.886171 148.029126 39.586022 150.783725 40.421621 
L 157.441609 18.473518 
C 153.968616 17.419997 150.445991 16.537626 146.886459 15.829591 
C 143.326926 15.121556 139.734776 14.58871 136.122984 14.23298 
z
" clip-path="url(#pbd8d5a5690)" style="fill: #ff8c8e"/>
   </g>
   <g id="patch_69">
    <path d="M 152.564857 34.550013 
C 155.511643 35.44391 158.412764 36.481948 161.257742 37.660377 
C 164.102721 38.838805 166.888127 40.156204 169.6039 41.607815 
L 173.735735 33.877695 
C 170.766944 32.290843 167.722032 30.850707 164.611998 29.562488 
C 161.501963 28.27427 158.330555 27.139522 155.109229 26.162343 
z
" clip-path="url(#pbd8d5a5690)" style="fill: #ff8c8e"/>
   </g>
   <g id="patch_70">
    <path d="M 147.742362 82.507876 
C 149.119414 83.243926 150.459499 84.047142 151.757775 84.914622 
C 153.056052 85.782103 154.310955 86.712802 155.517952 87.703359 
L 166.917453 73.813026 
C 165.255805 72.449346 163.528206 71.168071 161.740895 69.973828 
C 159.953584 68.779585 158.108716 67.673814 156.212956 66.660509 
z
" clip-path="url(#pbd8d5a5690)" style="fill: #ff8c8e"/>
   </g>
   <g id="patch_71">
    <path d="M 153.749098 89.858713 
C 154.885547 90.791373 155.97552 91.779266 157.01508 92.818826 
C 158.05464 93.858386 159.042534 94.948359 159.975193 96.084808 
L 163.430994 93.248706 
C 162.405504 91.999143 161.319283 90.800683 160.176253 89.657653 
C 159.033223 88.514623 157.834763 87.428402 156.5852 86.402912 
z
" clip-path="url(#pbd8d5a5690)" style="fill: #ff8c8e"/>
   </g>
   <g id="patch_72">
    <path d="M 163.568939 93.135497 
C 164.598134 94.389575 165.565137 95.693427 166.466455 97.042345 
C 167.367772 98.391262 168.202319 99.783619 168.96708 101.214386 
L 169.649059 100.84986 
C 168.872367 99.396771 168.0248 97.982691 167.10942 96.612729 
C 166.19404 95.242766 165.211951 93.918571 164.166699 92.644928 
z
" clip-path="url(#pbd8d5a5690)" style="fill: #ff8c8e"/>
   </g>
   <g id="patch_73">
    <path d="M 175.916109 97.500052 
C 176.802445 99.158271 177.606833 100.859007 178.326368 102.596117 
C 179.045903 104.333228 179.679716 106.104618 180.22552 107.90389 
L 180.445697 107.8371 
C 179.897707 106.030621 179.261355 104.252136 178.538938 102.508068 
C 177.816522 100.764 177.008912 99.056452 176.119025 97.391591 
z
" clip-path="url(#pbd8d5a5690)" style="fill: #ff8c8e"/>
   </g>
   <g id="patch_74">
    <path d="M 143.954496 118.906585 
C 144.140164 119.518653 144.29567 120.139467 144.420452 120.766786 
C 144.545233 121.394105 144.63914 122.027172 144.701833 122.663701 
L 163.639642 120.79849 
C 163.515898 119.542098 163.330544 118.292539 163.084248 117.054326 
C 162.837952 115.816113 162.531012 114.590739 162.164536 113.38263 
z
" clip-path="url(#pbd8d5a5690)" style="fill: #ff8c8e"/>
   </g>
   <g id="patch_75">
    <path d="M 175.328698 119.647218 
C 175.490125 121.28621 175.570984 122.93214 175.570984 124.579063 
C 175.570984 126.225985 175.490125 127.871915 175.328698 129.510907 
L 195.899981 131.537001 
C 196.127725 129.22468 196.241803 126.902572 196.241803 124.579063 
C 196.241803 122.255553 196.127725 119.933445 195.899981 117.621124 
z
" clip-path="url(#pbd8d5a5690)" style="fill: #ff8c8e"/>
   </g>
   <g id="patch_76">
    <path d="M 193.251023 131.276102 
C 193.031819 133.501718 192.703475 135.715231 192.267178 137.908645 
C 191.830881 140.102058 191.287156 142.272729 190.637968 144.412816 
L 198.799908 146.888714 
C 199.530137 144.481474 200.141736 142.039833 200.632497 139.57261 
C 201.123258 137.105387 201.49259 134.615556 201.739158 132.11211 
z
" clip-path="url(#pbd8d5a5690)" style="fill: #ff8c8e"/>
   </g>
   <g id="patch_77">
    <path d="M 148.659115 131.678671 
C 148.426735 132.444727 148.156883 133.198913 147.850534 133.938504 
C 147.544186 134.678095 147.20171 135.402199 146.824344 136.108201 
L 161.161536 143.77159 
C 161.789736 142.59631 162.359855 141.390896 162.869832 140.159701 
C 163.37981 138.928506 163.829032 137.673015 164.215876 136.397762 
z
" clip-path="url(#pbd8d5a5690)" style="fill: #ff8c8e"/>
   </g>
   <g id="patch_78">
    <path d="M 178.380748 152.97545 
C 177.451292 154.71434 176.437021 156.406548 175.341599 158.045963 
C 174.246178 159.685377 173.070926 161.270021 171.820088 162.794171 
L 185.12849 173.716094 
C 186.736819 171.75634 188.247959 169.718803 189.656454 167.610842 
C 191.064948 165.502882 192.369098 163.327038 193.564194 161.091171 
z
" clip-path="url(#pbd8d5a5690)" style="fill: #ff8c8e"/>
   </g>
   <g id="patch_79">
    <path d="M 192.515027 179.778068 
C 190.708281 181.979595 188.794535 184.091088 186.780702 186.104921 
C 184.766869 188.118754 182.655376 190.0325 180.45385 191.839246 
L 180.758775 192.210798 
C 182.972462 190.394071 185.095619 188.469754 187.120577 186.444796 
C 189.145535 184.419838 191.069853 182.296681 192.886579 180.082993 
z
" clip-path="url(#pbd8d5a5690)" style="fill: #ff8c8e"/>
   </g>
   <g id="patch_80">
    <path d="M 156.670145 162.858717 
C 155.417194 163.886987 154.114514 164.853121 152.766809 165.753628 
C 151.419104 166.654136 150.027999 167.487932 148.598518 168.252006 
L 155.491596 181.148048 
C 157.343184 180.158354 159.145064 179.078348 160.890728 177.911933 
C 162.636393 176.745517 164.323737 175.494097 165.946667 174.162193 
z
" clip-path="url(#pbd8d5a5690)" style="fill: #ff8c8e"/>
   </g>
   <g id="patch_81">
    <path d="M 144.53661 160.652709 
C 143.355865 161.28383 142.144846 161.856599 140.907927 162.368948 
C 139.671008 162.881297 138.409679 163.332608 137.128496 163.72125 
L 140.756603 175.681515 
C 142.429263 175.174119 144.076003 174.584907 145.690874 173.916005 
C 147.305746 173.247103 148.886803 172.499319 150.428335 171.675353 
z
" clip-path="url(#pbd8d5a5690)" style="fill: #ff8c8e"/>
   </g>
   <g id="patch_82">
    <path d="M 136.607993 162.005381 
C 135.382974 162.376986 134.140448 162.688223 132.884904 162.937966 
C 131.62936 163.187709 130.362311 163.375658 129.088333 163.501134 
L 129.143257 164.058785 
C 130.435487 163.931512 131.72069 163.74087 132.994223 163.487549 
C 134.267756 163.234227 135.528084 162.918531 136.770654 162.541602 
z
" clip-path="url(#pbd8d5a5690)" style="fill: #ff8c8e"/>
   </g>
   <g id="patch_83">
    <path d="M 129.360771 166.267238 
C 127.996254 166.401631 126.625962 166.468949 125.254844 166.468949 
C 123.883725 166.468949 122.513433 166.401631 121.148917 166.267238 
L 120.775925 170.054291 
C 122.264397 170.200893 123.75917 170.274326 125.254844 170.274326 
C 126.750518 170.274326 128.245291 170.200893 129.733763 170.054291 
z
" clip-path="url(#pbd8d5a5690)" style="fill: #ff8c8e"/>
   </g>
   <g id="patch_84">
    <path d="M 121.465867 163.049194 
C 120.206682 162.925175 118.954345 162.739408 117.713379 162.492565 
C 116.472414 162.245722 115.244315 161.938099 114.03352 161.570808 
L 113.56272 163.12283 
C 114.824315 163.505531 116.103939 163.82606 117.39697 164.08326 
C 118.690002 164.34046 119.994882 164.53402 121.306897 164.663243 
z
" clip-path="url(#pbd8d5a5690)" style="fill: #ff8c8e"/>
   </g>
   <g id="patch_85">
    <path d="M 105.680674 189.106451 
C 103.568597 188.465759 101.489248 187.721757 99.450139 186.87713 
C 97.41103 186.032504 95.41462 185.088272 93.468118 184.047845 
L 88.958307 192.485107 
C 91.180973 193.673147 93.460629 194.751344 95.789041 195.715804 
C 98.117452 196.680264 100.491813 197.529824 102.903546 198.261415 
z
" clip-path="url(#pbd8d5a5690)" style="fill: #ff8c8e"/>
   </g>
   <g id="patch_86">
    <path d="M 98.494689 174.643791 
C 96.855996 173.767891 95.261294 172.812064 93.716345 171.779761 
C 92.171396 170.747459 90.678061 169.639927 89.241734 168.461164 
L 76.608376 183.854954 
C 78.548565 185.447226 80.56576 186.94328 82.652676 188.337712 
C 84.739592 189.732145 86.893712 191.023275 89.107257 192.20644 
z
" clip-path="url(#pbd8d5a5690)" style="fill: #ff8c8e"/>
   </g>
   <g id="patch_87">
    <path d="M 89.106322 168.626164 
C 87.664595 167.442969 86.281828 166.189702 84.963016 164.87089 
C 83.644204 163.552078 82.390938 162.169312 81.207743 160.727584 
L 66.369626 172.904912 
C 67.951403 174.832313 69.626857 176.680892 71.389936 178.443971 
C 73.153015 180.207049 75.001593 181.882503 76.928994 183.46428 
z
" clip-path="url(#pbd8d5a5690)" style="fill: #ff8c8e"/>
   </g>
   <g id="patch_88">
    <path d="M 74.723172 166.049334 
C 73.365788 164.395357 72.090428 162.675733 70.901698 160.896673 
C 69.712968 159.117614 68.612302 157.281263 67.603675 155.394254 
L 44.836847 167.563377 
C 46.243788 170.195578 47.779114 172.757116 49.437281 175.238738 
C 51.095448 177.72036 52.874456 180.119075 54.76788 182.426219 
z
" clip-path="url(#pbd8d5a5690)" style="fill: #ff8c8e"/>
   </g>
   <g id="patch_89">
    <path d="M 73.123863 152.443652 
C 72.211813 150.737327 71.384089 148.987252 70.643681 147.199747 
C 69.903272 145.412242 69.251071 143.589462 68.689433 141.737992 
L 37.488106 151.202811 
C 38.359541 154.075548 39.371494 156.903768 40.52031 159.677256 
C 41.669126 162.450743 42.953421 165.166156 44.368555 167.813685 
z
" clip-path="url(#pbd8d5a5690)" style="fill: #ff8c8e"/>
   </g>
   <g id="patch_90">
    <path d="M 70.431444 141.209559 
C 69.887103 139.415107 69.431193 137.595011 69.06536 135.755846 
C 68.699528 133.91668 68.424213 132.060661 68.240412 130.194494 
L 53.947514 131.602222 
C 54.177392 133.936217 54.521725 136.257519 54.979268 138.557744 
C 55.436811 140.857968 56.007013 143.134342 56.687814 145.378643 
z
" clip-path="url(#pbd8d5a5690)" style="fill: #ff8c8e"/>
   </g>
   <g id="patch_91">
    <path d="M 73.274571 129.698673 
C 73.106998 127.997281 73.023061 126.288687 73.023061 124.579062 
C 73.023061 122.869438 73.106998 121.160844 73.274571 119.459452 
L 17.768865 113.992618 
C 17.422355 117.510794 17.248787 121.043863 17.248787 124.579062 
C 17.248787 128.114262 17.422355 131.647331 17.768865 135.165507 
z
" clip-path="url(#pbd8d5a5690)" style="fill: #ff8c8e"/>
   </g>
   <g id="patch_92">
    <path d="M 125.254844 124.579063 
C 125.254844 124.579063 125.254844 124.579063 125.254844 124.579063 
C 125.254844 124.579063 125.254844 124.579063 125.254844 124.579063 
L 54.325993 103.063031 
C 53.621741 105.384638 53.031898 107.739423 52.558595 110.11888 
C 52.085291 112.498336 51.729098 114.899597 51.491301 117.313988 
z
" clip-path="url(#pbd8d5a5690)" style="fill: #ff8c8e"/>
   </g>
   <g id="patch_93">
    <path d="M 89.091997 113.609183 
C 89.451058 112.425519 89.868016 111.260197 90.341367 110.117427 
C 90.814718 108.974657 91.343891 107.855816 91.926973 106.764945 
L 42.252565 80.21342 
C 40.800411 82.930209 39.48252 85.716657 38.30365 88.562699 
C 37.124781 91.408741 36.086355 94.310948 35.192123 97.258835 
z
" clip-path="url(#pbd8d5a5690)" style="fill: #ff8c8e"/>
   </g>
   <g id="patch_94">
    <path d="M 77.113044 98.846735 
C 77.955302 97.270982 78.874417 95.737531 79.86707 94.251921 
C 80.859722 92.766312 81.924716 91.330334 83.058204 89.949175 
L 69.345402 78.695369 
C 67.84356 80.525369 66.432471 82.428001 65.117232 84.396395 
C 63.801994 86.364789 62.58419 88.396571 61.468221 90.484402 
z
" clip-path="url(#pbd8d5a5690)" style="fill: #ff8c8e"/>
   </g>
   <g id="patch_95">
    <path d="M 79.604975 87.115184 
C 80.831224 85.620995 82.130094 84.187913 83.496894 82.821113 
C 84.863694 81.454313 86.296777 80.155443 87.790965 78.929194 
L 83.720361 73.969148 
C 82.063823 75.328634 80.47503 76.768632 78.959721 78.28394 
C 77.444413 79.799249 76.004415 81.388041 74.64493 83.044579 
z
" clip-path="url(#pbd8d5a5690)" style="fill: #ff8c8e"/>
   </g>
   <g id="patch_96">
    <path d="M 98.347985 91.79296 
C 99.421123 90.912258 100.536854 90.084776 101.691149 89.313501 
C 102.845443 88.542226 104.036909 87.828088 105.261244 87.173668 
L 96.910321 71.550191 
C 95.174607 72.477949 93.48549 73.490367 91.84907 74.583788 
C 90.21265 75.677209 88.6309 76.850315 87.109534 78.098868 
z
" clip-path="url(#pbd8d5a5690)" style="fill: #ff8c8e"/>
   </g>
   <g id="patch_97">
    <path d="M 93.414157 65.009327 
C 95.363963 63.967134 97.363763 63.021299 99.406334 62.175239 
C 101.448904 61.329179 103.531782 60.583913 105.647446 59.942133 
L 103.336288 52.323268 
C 100.971248 53.040695 98.642857 53.873806 96.359525 54.819593 
C 94.076194 55.76538 91.840674 56.822702 89.661041 57.987741 
z
" clip-path="url(#pbd8d5a5690)" style="fill: #ff8c8e"/>
   </g>
   <g id="patch_98">
    <path d="M 115.467759 92.315368 
C 116.523798 91.995022 117.594928 91.726718 118.677282 91.511425 
C 119.759635 91.296131 120.851906 91.134108 121.95015 91.02594 
L 118.055743 51.485367 
C 115.663277 51.721005 113.283823 52.073963 110.925974 52.542969 
C 108.568125 53.011974 106.234724 53.596461 103.934199 54.294317 
z
" clip-path="url(#pbd8d5a5690)" style="fill: #ff8c8e"/>
   </g>
   <g id="patch_99">
    <path d="M 118.95763 60.642375 
C 121.050373 60.436258 123.151975 60.333013 125.254844 60.333013 
C 127.357713 60.333013 129.459315 60.436258 131.552058 60.642375 
L 131.552058 60.642375 
C 129.459315 60.436258 127.357713 60.333013 125.254844 60.333013 
C 123.151975 60.333013 121.050373 60.436258 118.95763 60.642375 
z
" clip-path="url(#pbd8d5a5690)" style="fill: #828282"/>
   </g>
   <g id="patch_100">
    <path d="M 136.122984 14.23298 
C 139.734776 14.58871 143.326926 15.121556 146.886459 15.829591 
C 150.445991 16.537626 153.968616 17.419997 157.441609 18.473518 
L 157.441609 18.473518 
C 153.968616 17.419997 150.445991 16.537626 146.886459 15.829591 
C 143.326926 15.121556 139.734776 14.58871 136.122984 14.23298 
z
" clip-path="url(#pbd8d5a5690)" style="fill: #828282"/>
   </g>
   <g id="patch_101">
    <path d="M 155.109229 26.162343 
C 158.330555 27.139522 161.501963 28.27427 164.611998 29.562488 
C 167.722032 30.850707 170.766944 32.290843 173.735735 33.877695 
L 173.735735 33.877695 
C 170.766944 32.290843 167.722032 30.850707 164.611998 29.562488 
C 161.501963 28.27427 158.330555 27.139522 155.109229 26.162343 
z
" clip-path="url(#pbd8d5a5690)" style="fill: #828282"/>
   </g>
   <g id="patch_102">
    <path d="M 156.212956 66.660509 
C 158.108716 67.673814 159.953584 68.779585 161.740895 69.973828 
C 163.528206 71.168071 165.255805 72.449346 166.917453 73.813026 
L 166.917453 73.813026 
C 165.255805 72.449346 163.528206 71.168071 161.740895 69.973828 
C 159.953584 68.779585 158.108716 67.673814 156.212956 66.660509 
z
" clip-path="url(#pbd8d5a5690)" style="fill: #828282"/>
   </g>
   <g id="patch_103">
    <path d="M 156.5852 86.402912 
C 157.834763 87.428402 159.033223 88.514623 160.176253 89.657653 
C 161.319283 90.800683 162.405504 91.999143 163.430994 93.248706 
L 163.430994 93.248706 
C 162.405504 91.999143 161.319283 90.800683 160.176253 89.657653 
C 159.033223 88.514623 157.834763 87.428402 156.5852 86.402912 
z
" clip-path="url(#pbd8d5a5690)" style="fill: #828282"/>
   </g>
   <g id="patch_104">
    <path d="M 164.166699 92.644928 
C 165.211951 93.918571 166.19404 95.242766 167.10942 96.612729 
C 168.0248 97.982691 168.872367 99.396771 169.649059 100.84986 
L 169.649059 100.84986 
C 168.872367 99.396771 168.0248 97.982691 167.10942 96.612729 
C 166.19404 95.242766 165.211951 93.918571 164.166699 92.644928 
z
" clip-path="url(#pbd8d5a5690)" style="fill: #828282"/>
   </g>
   <g id="patch_105">
    <path d="M 176.119025 97.391591 
C 177.008912 99.056452 177.816522 100.764 178.538938 102.508068 
C 179.261355 104.252136 179.897707 106.030621 180.445697 107.8371 
L 180.445697 107.8371 
C 179.897707 106.030621 179.261355 104.252136 178.538938 102.508068 
C 177.816522 100.764 177.008912 99.056452 176.119025 97.391591 
z
" clip-path="url(#pbd8d5a5690)" style="fill: #828282"/>
   </g>
   <g id="patch_106">
    <path d="M 162.164536 113.38263 
C 162.531012 114.590739 162.837952 115.816113 163.084248 117.054326 
C 163.330544 118.292539 163.515898 119.542098 163.639642 120.79849 
L 163.639642 120.79849 
C 163.515898 119.542098 163.330544 118.292539 163.084248 117.054326 
C 162.837952 115.816113 162.531012 114.590739 162.164536 113.38263 
z
" clip-path="url(#pbd8d5a5690)" style="fill: #828282"/>
   </g>
   <g id="patch_107">
    <path d="M 195.899981 117.621124 
C 196.127725 119.933445 196.241803 122.255553 196.241803 124.579063 
C 196.241803 126.902572 196.127725 129.22468 195.899981 131.537001 
L 195.899981 131.537001 
C 196.127725 129.22468 196.241803 126.902572 196.241803 124.579063 
C 196.241803 122.255553 196.127725 119.933445 195.899981 117.621124 
z
" clip-path="url(#pbd8d5a5690)" style="fill: #828282"/>
   </g>
   <g id="patch_108">
    <path d="M 201.739158 132.11211 
C 201.49259 134.615556 201.123258 137.105387 200.632497 139.57261 
C 200.141736 142.039833 199.530137 144.481474 198.799908 146.888714 
L 198.799908 146.888714 
C 199.530137 144.481474 200.141736 142.039833 200.632497 139.57261 
C 201.123258 137.105387 201.49259 134.615556 201.739158 132.11211 
z
" clip-path="url(#pbd8d5a5690)" style="fill: #828282"/>
   </g>
   <g id="patch_109">
    <path d="M 164.215876 136.397762 
C 163.829032 137.673015 163.37981 138.928506 162.869832 140.159701 
C 162.359855 141.390896 161.789736 142.59631 161.161536 143.77159 
L 161.161536 143.77159 
C 161.789736 142.59631 162.359855 141.390896 162.869832 140.159701 
C 163.37981 138.928506 163.829032 137.673015 164.215876 136.397762 
z
" clip-path="url(#pbd8d5a5690)" style="fill: #828282"/>
   </g>
   <g id="patch_110">
    <path d="M 193.564194 161.091171 
C 192.369098 163.327038 191.064948 165.502882 189.656454 167.610842 
C 188.247959 169.718803 186.736819 171.75634 185.12849 173.716094 
L 185.12849 173.716094 
C 186.736819 171.75634 188.247959 169.718803 189.656454 167.610842 
C 191.064948 165.502882 192.369098 163.327038 193.564194 161.091171 
z
" clip-path="url(#pbd8d5a5690)" style="fill: #828282"/>
   </g>
   <g id="patch_111">
    <path d="M 192.886579 180.082993 
C 191.069853 182.296681 189.145535 184.419838 187.120577 186.444796 
C 185.095619 188.469754 182.972462 190.394071 180.758775 192.210798 
L 181.836621 193.524158 
C 184.093297 191.672152 186.257685 189.710466 188.321966 187.646185 
C 190.386247 185.581903 192.347933 183.417516 194.199939 181.16084 
z
" clip-path="url(#pbd8d5a5690)" style="fill: #828282"/>
   </g>
   <g id="patch_112">
    <path d="M 165.946667 174.162193 
C 164.323737 175.494097 162.636393 176.745517 160.890728 177.911933 
C 159.145064 179.078348 157.343184 180.158354 155.491596 181.148048 
L 158.958846 187.634815 
C 161.022755 186.531633 163.031256 185.327783 164.977096 184.027615 
C 166.922936 182.727446 168.803769 181.332526 170.6128 179.847892 
z
" clip-path="url(#pbd8d5a5690)" style="fill: #828282"/>
   </g>
   <g id="patch_113">
    <path d="M 150.428335 171.675353 
C 148.886803 172.499319 147.305746 173.247103 145.690874 173.916005 
C 144.076003 174.584907 142.429263 175.174119 140.756603 175.681515 
L 142.239456 180.569825 
C 144.072117 180.013894 145.876379 179.368318 147.645725 178.635431 
C 149.415071 177.902545 151.147367 177.083229 152.836357 176.180445 
z
" clip-path="url(#pbd8d5a5690)" style="fill: #828282"/>
   </g>
   <g id="patch_114">
    <path d="M 136.770654 162.541602 
C 135.528084 162.918531 134.267756 163.234227 132.994223 163.487549 
C 131.72069 163.74087 130.435487 163.931512 129.143257 164.058785 
L 129.422286 166.891815 
C 130.807246 166.755409 132.184673 166.551087 133.549594 166.279587 
C 134.914514 166.008088 136.265282 165.669738 137.597019 165.26576 
z
" clip-path="url(#pbd8d5a5690)" style="fill: #828282"/>
   </g>
   <g id="patch_115">
    <path d="M 129.733763 170.054291 
C 128.245291 170.200893 126.750518 170.274326 125.254844 170.274326 
C 123.75917 170.274326 122.264397 170.200893 120.775925 170.054291 
L 120.775925 170.054291 
C 122.264397 170.200893 123.75917 170.274326 125.254844 170.274326 
C 126.750518 170.274326 128.245291 170.200893 129.733763 170.054291 
z
" clip-path="url(#pbd8d5a5690)" style="fill: #828282"/>
   </g>
   <g id="patch_116">
    <path d="M 121.306897 164.663243 
C 119.994882 164.53402 118.690002 164.34046 117.39697 164.08326 
C 116.103939 163.82606 114.824315 163.505531 113.56272 163.12283 
L 113.56272 163.12283 
C 114.824315 163.505531 116.103939 163.82606 117.39697 164.08326 
C 118.690002 164.34046 119.994882 164.53402 121.306897 164.663243 
z
" clip-path="url(#pbd8d5a5690)" style="fill: #828282"/>
   </g>
   <g id="patch_117">
    <path d="M 102.903546 198.261415 
C 100.491813 197.529824 98.117452 196.680264 95.789041 195.715804 
C 93.460629 194.751344 91.180973 193.673147 88.958307 192.485107 
L 88.958307 192.485107 
C 91.180973 193.673147 93.460629 194.751344 95.789041 195.715804 
C 98.117452 196.680264 100.491813 197.529824 102.903546 198.261415 
z
" clip-path="url(#pbd8d5a5690)" style="fill: #828282"/>
   </g>
   <g id="patch_118">
    <path d="M 89.107257 192.20644 
C 86.893712 191.023275 84.739592 189.732145 82.652676 188.337712 
C 80.56576 186.94328 78.548565 185.447226 76.608376 183.854954 
L 76.608376 183.854954 
C 78.548565 185.447226 80.56576 186.94328 82.652676 188.337712 
C 84.739592 189.732145 86.893712 191.023275 89.107257 192.20644 
z
" clip-path="url(#pbd8d5a5690)" style="fill: #828282"/>
   </g>
   <g id="patch_119">
    <path d="M 76.928994 183.46428 
C 75.001593 181.882503 73.153015 180.207049 71.389936 178.443971 
C 69.626857 176.680892 67.951403 174.832313 66.369626 172.904912 
L 66.369626 172.904912 
C 67.951403 174.832313 69.626857 176.680892 71.389936 178.443971 
C 73.153015 180.207049 75.001593 181.882503 76.928994 183.46428 
z
" clip-path="url(#pbd8d5a5690)" style="fill: #828282"/>
   </g>
   <g id="patch_120">
    <path d="M 54.76788 182.426219 
C 52.874456 180.119075 51.095448 177.72036 49.437281 175.238738 
C 47.779114 172.757116 46.243788 170.195578 44.836847 167.563377 
L 44.836847 167.563377 
C 46.243788 170.195578 47.779114 172.757116 49.437281 175.238738 
C 51.095448 177.72036 52.874456 180.119075 54.76788 182.426219 
z
" clip-path="url(#pbd8d5a5690)" style="fill: #828282"/>
   </g>
   <g id="patch_121">
    <path d="M 44.368555 167.813685 
C 42.953421 165.166156 41.669126 162.450743 40.52031 159.677256 
C 39.371494 156.903768 38.359541 154.075548 37.488106 151.202811 
L 37.488106 151.202811 
C 38.359541 154.075548 39.371494 156.903768 40.52031 159.677256 
C 41.669126 162.450743 42.953421 165.166156 44.368555 167.813685 
z
" clip-path="url(#pbd8d5a5690)" style="fill: #828282"/>
   </g>
   <g id="patch_122">
    <path d="M 56.687814 145.378643 
C 56.007013 143.134342 55.436811 140.857968 54.979268 138.557744 
C 54.521725 136.257519 54.177392 133.936217 53.947514 131.602222 
L 53.947514 131.602222 
C 54.177392 133.936217 54.521725 136.257519 54.979268 138.557744 
C 55.436811 140.857968 56.007013 143.134342 56.687814 145.378643 
z
" clip-path="url(#pbd8d5a5690)" style="fill: #828282"/>
   </g>
   <g id="patch_123">
    <path d="M 17.768865 135.165507 
C 17.422355 131.647331 17.248787 128.114262 17.248787 124.579062 
C 17.248787 121.043863 17.422355 117.510794 17.768865 113.992618 
L 17.768865 113.992618 
C 17.422355 117.510794 17.248787 121.043863 17.248787 124.579062 
C 17.248787 128.114262 17.422355 131.647331 17.768865 135.165507 
z
" clip-path="url(#pbd8d5a5690)" style="fill: #828282"/>
   </g>
   <g id="patch_124">
    <path d="M 51.491301 117.313988 
C 51.729098 114.899597 52.085291 112.498336 52.558595 110.11888 
C 53.031898 107.739423 53.621741 105.384638 54.325993 103.063031 
L 54.325993 103.063031 
C 53.621741 105.384638 53.031898 107.739423 52.558595 110.11888 
C 52.085291 112.498336 51.729098 114.899597 51.491301 117.313988 
z
" clip-path="url(#pbd8d5a5690)" style="fill: #828282"/>
   </g>
   <g id="patch_125">
    <path d="M 35.192123 97.258835 
C 36.086355 94.310948 37.124781 91.408741 38.30365 88.562699 
C 39.48252 85.716657 40.800411 82.930209 42.252565 80.21342 
L 42.252565 80.21342 
C 40.800411 82.930209 39.48252 85.716657 38.30365 88.562699 
C 37.124781 91.408741 36.086355 94.310948 35.192123 97.258835 
z
" clip-path="url(#pbd8d5a5690)" style="fill: #828282"/>
   </g>
   <g id="patch_126">
    <path d="M 61.468221 90.484402 
C 62.58419 88.396571 63.801994 86.364789 65.117232 84.396395 
C 66.432471 82.428001 67.84356 80.525369 69.345402 78.695369 
L 69.345402 78.695369 
C 67.84356 80.525369 66.432471 82.428001 65.117232 84.396395 
C 63.801994 86.364789 62.58419 88.396571 61.468221 90.484402 
z
" clip-path="url(#pbd8d5a5690)" style="fill: #828282"/>
   </g>
   <g id="patch_127">
    <path d="M 74.64493 83.044579 
C 76.004415 81.388041 77.444413 79.799249 78.959721 78.28394 
C 80.47503 76.768632 82.063823 75.328634 83.720361 73.969148 
L 83.720361 73.969148 
C 82.063823 75.328634 80.47503 76.768632 78.959721 78.28394 
C 77.444413 79.799249 76.004415 81.388041 74.64493 83.044579 
z
" clip-path="url(#pbd8d5a5690)" style="fill: #828282"/>
   </g>
   <g id="patch_128">
    <path d="M 87.109534 78.098868 
C 88.6309 76.850315 90.21265 75.677209 91.84907 74.583788 
C 93.48549 73.490367 95.174607 72.477949 96.910321 71.550191 
L 96.910321 71.550191 
C 95.174607 72.477949 93.48549 73.490367 91.84907 74.583788 
C 90.21265 75.677209 88.6309 76.850315 87.109534 78.098868 
z
" clip-path="url(#pbd8d5a5690)" style="fill: #828282"/>
   </g>
   <g id="patch_129">
    <path d="M 89.661041 57.987741 
C 91.840674 56.822702 94.076194 55.76538 96.359525 54.819593 
C 98.642857 53.873806 100.971248 53.040695 103.336288 52.323268 
L 103.336288 52.323268 
C 100.971248 53.040695 98.642857 53.873806 96.359525 54.819593 
C 94.076194 55.76538 91.840674 56.822702 89.661041 57.987741 
z
" clip-path="url(#pbd8d5a5690)" style="fill: #828282"/>
   </g>
   <g id="patch_130">
    <path d="M 103.934199 54.294317 
C 106.234724 53.596461 108.568125 53.011974 110.925974 52.542969 
C 113.283823 52.073963 115.663277 51.721005 118.055743 51.485367 
L 118.055743 51.485367 
C 115.663277 51.721005 113.283823 52.073963 110.925974 52.542969 
C 108.568125 53.011974 106.234724 53.596461 103.934199 54.294317 
z
" clip-path="url(#pbd8d5a5690)" style="fill: #828282"/>
   </g>
   <g id="patch_131">
    <path d="M 125.254844 124.579063 
C 125.254844 124.579063 125.254844 124.579063 125.254844 124.579063 
C 125.254844 124.579063 125.254844 124.579063 125.254844 124.579063 
L 131.552058 60.642375 
C 129.459315 60.436258 127.357713 60.333013 125.254844 60.333013 
C 123.151975 60.333013 121.050373 60.436258 118.95763 60.642375 
L 125.254844 124.579063 
z
" clip-path="url(#pbd8d5a5690)" style="fill: none; stroke: #292929; stroke-width: 0.5; stroke-linejoin: miter"/>
   </g>
   <g id="patch_132">
    <path d="M 125.254844 124.579063 
C 125.254844 124.579063 125.254844 124.579063 125.254844 124.579063 
C 125.254844 124.579063 125.254844 124.579063 125.254844 124.579063 
L 157.441609 18.473518 
C 153.968616 17.419997 150.445991 16.537626 146.886459 15.829591 
C 143.326926 15.121556 139.734776 14.58871 136.122984 14.23298 
L 125.254844 124.579063 
z
" clip-path="url(#pbd8d5a5690)" style="fill: none; stroke: #292929; stroke-width: 0.5; stroke-linejoin: miter"/>
   </g>
   <g id="patch_133">
    <path d="M 125.254844 124.579063 
C 125.254844 124.579063 125.254844 124.579063 125.254844 124.579063 
C 125.254844 124.579063 125.254844 124.579063 125.254844 124.579063 
L 173.735735 33.877695 
C 170.766944 32.290843 167.722032 30.850707 164.611998 29.562488 
C 161.501963 28.27427 158.330555 27.139522 155.109229 26.162343 
L 125.254844 124.579063 
z
" clip-path="url(#pbd8d5a5690)" style="fill: none; stroke: #292929; stroke-width: 0.5; stroke-linejoin: miter"/>
   </g>
   <g id="patch_134">
    <path d="M 125.254844 124.579063 
C 125.254844 124.579063 125.254844 124.579063 125.254844 124.579063 
C 125.254844 124.579063 125.254844 124.579063 125.254844 124.579063 
L 166.917453 73.813026 
C 165.255805 72.449346 163.528206 71.168071 161.740895 69.973828 
C 159.953584 68.779585 158.108716 67.673814 156.212956 66.660509 
L 125.254844 124.579063 
z
" clip-path="url(#pbd8d5a5690)" style="fill: none; stroke: #292929; stroke-width: 0.5; stroke-linejoin: miter"/>
   </g>
   <g id="patch_135">
    <path d="M 125.254844 124.579063 
C 125.254844 124.579063 125.254844 124.579063 125.254844 124.579063 
C 125.254844 124.579063 125.254844 124.579063 125.254844 124.579063 
L 163.430994 93.248706 
C 162.405504 91.999143 161.319283 90.800683 160.176253 89.657653 
C 159.033223 88.514623 157.834763 87.428402 156.5852 86.402912 
L 125.254844 124.579063 
z
" clip-path="url(#pbd8d5a5690)" style="fill: none; stroke: #292929; stroke-width: 0.5; stroke-linejoin: miter"/>
   </g>
   <g id="patch_136">
    <path d="M 125.254844 124.579063 
C 125.254844 124.579063 125.254844 124.579063 125.254844 124.579063 
C 125.254844 124.579063 125.254844 124.579063 125.254844 124.579063 
L 169.649059 100.84986 
C 168.872367 99.396771 168.0248 97.982691 167.10942 96.612729 
C 166.19404 95.242766 165.211951 93.918571 164.166699 92.644928 
L 125.254844 124.579063 
z
" clip-path="url(#pbd8d5a5690)" style="fill: none; stroke: #292929; stroke-width: 0.5; stroke-linejoin: miter"/>
   </g>
   <g id="patch_137">
    <path d="M 125.254844 124.579063 
C 125.254844 124.579063 125.254844 124.579063 125.254844 124.579063 
C 125.254844 124.579063 125.254844 124.579063 125.254844 124.579063 
L 180.445697 107.8371 
C 179.897707 106.030621 179.261355 104.252136 178.538938 102.508068 
C 177.816522 100.764 177.008912 99.056452 176.119025 97.391591 
L 125.254844 124.579063 
z
" clip-path="url(#pbd8d5a5690)" style="fill: none; stroke: #292929; stroke-width: 0.5; stroke-linejoin: miter"/>
   </g>
   <g id="patch_138">
    <path d="M 125.254844 124.579063 
C 125.254844 124.579063 125.254844 124.579063 125.254844 124.579063 
C 125.254844 124.579063 125.254844 124.579063 125.254844 124.579063 
L 163.639642 120.79849 
C 163.515898 119.542098 163.330544 118.292539 163.084248 117.054326 
C 162.837952 115.816113 162.531012 114.590739 162.164536 113.38263 
L 125.254844 124.579063 
z
" clip-path="url(#pbd8d5a5690)" style="fill: none; stroke: #292929; stroke-width: 0.5; stroke-linejoin: miter"/>
   </g>
   <g id="patch_139">
    <path d="M 125.254844 124.579063 
C 125.254844 124.579063 125.254844 124.579063 125.254844 124.579063 
C 125.254844 124.579063 125.254844 124.579063 125.254844 124.579063 
L 195.899981 131.537001 
C 196.127725 129.22468 196.241803 126.902572 196.241803 124.579063 
C 196.241803 122.255553 196.127725 119.933445 195.899981 117.621124 
L 125.254844 124.579063 
z
" clip-path="url(#pbd8d5a5690)" style="fill: none; stroke: #292929; stroke-width: 0.5; stroke-linejoin: miter"/>
   </g>
   <g id="patch_140">
    <path d="M 125.254844 124.579063 
C 125.254844 124.579063 125.254844 124.579063 125.254844 124.579063 
C 125.254844 124.579063 125.254844 124.579063 125.254844 124.579063 
L 198.799908 146.888714 
C 199.530137 144.481474 200.141736 142.039833 200.632497 139.57261 
C 201.123258 137.105387 201.49259 134.615556 201.739158 132.11211 
L 125.254844 124.579063 
z
" clip-path="url(#pbd8d5a5690)" style="fill: none; stroke: #292929; stroke-width: 0.5; stroke-linejoin: miter"/>
   </g>
   <g id="patch_141">
    <path d="M 125.254844 124.579063 
C 125.254844 124.579063 125.254844 124.579063 125.254844 124.579063 
C 125.254844 124.579063 125.254844 124.579063 125.254844 124.579063 
L 161.161536 143.77159 
C 161.789736 142.59631 162.359855 141.390896 162.869832 140.159701 
C 163.37981 138.928506 163.829032 137.673015 164.215876 136.397762 
L 125.254844 124.579063 
z
" clip-path="url(#pbd8d5a5690)" style="fill: none; stroke: #292929; stroke-width: 0.5; stroke-linejoin: miter"/>
   </g>
   <g id="patch_142">
    <path d="M 125.254844 124.579063 
C 125.254844 124.579063 125.254844 124.579063 125.254844 124.579063 
C 125.254844 124.579063 125.254844 124.579063 125.254844 124.579063 
L 185.12849 173.716094 
C 186.736819 171.75634 188.247959 169.718803 189.656454 167.610842 
C 191.064948 165.502882 192.369098 163.327038 193.564194 161.091171 
L 125.254844 124.579063 
z
" clip-path="url(#pbd8d5a5690)" style="fill: none; stroke: #292929; stroke-width: 0.5; stroke-linejoin: miter"/>
   </g>
   <g id="patch_143">
    <path d="M 125.254844 124.579063 
C 125.254844 124.579063 125.254844 124.579063 125.254844 124.579063 
C 125.254844 124.579063 125.254844 124.579063 125.254844 124.579063 
L 181.836621 193.524158 
C 184.093297 191.672152 186.257685 189.710466 188.321966 187.646185 
C 190.386247 185.581903 192.347933 183.417516 194.199939 181.16084 
L 125.254844 124.579063 
z
" clip-path="url(#pbd8d5a5690)" style="fill: none; stroke: #292929; stroke-width: 0.5; stroke-linejoin: miter"/>
   </g>
   <g id="patch_144">
    <path d="M 125.254844 124.579063 
C 125.254844 124.579063 125.254844 124.579063 125.254844 124.579063 
C 125.254844 124.579063 125.254844 124.579063 125.254844 124.579063 
L 158.958846 187.634815 
C 161.022755 186.531633 163.031256 185.327783 164.977096 184.027615 
C 166.922936 182.727446 168.803769 181.332526 170.6128 179.847892 
L 125.254844 124.579063 
z
" clip-path="url(#pbd8d5a5690)" style="fill: none; stroke: #292929; stroke-width: 0.5; stroke-linejoin: miter"/>
   </g>
   <g id="patch_145">
    <path d="M 125.254844 124.579063 
C 125.254844 124.579063 125.254844 124.579063 125.254844 124.579063 
C 125.254844 124.579063 125.254844 124.579063 125.254844 124.579063 
L 142.239456 180.569825 
C 144.072117 180.013894 145.876379 179.368318 147.645725 178.635431 
C 149.415071 177.902545 151.147367 177.083229 152.836357 176.180445 
L 125.254844 124.579063 
z
" clip-path="url(#pbd8d5a5690)" style="fill: none; stroke: #292929; stroke-width: 0.5; stroke-linejoin: miter"/>
   </g>
   <g id="patch_146">
    <path d="M 125.254844 124.579063 
C 125.254844 124.579063 125.254844 124.579063 125.254844 124.579063 
C 125.254844 124.579063 125.254844 124.579063 125.254844 124.579063 
L 129.422286 166.891815 
C 130.807246 166.755409 132.184673 166.551087 133.549594 166.279587 
C 134.914514 166.008088 136.265282 165.669738 137.597019 165.26576 
L 125.254844 124.579063 
z
" clip-path="url(#pbd8d5a5690)" style="fill: none; stroke: #292929; stroke-width: 0.5; stroke-linejoin: miter"/>
   </g>
   <g id="patch_147">
    <path d="M 125.254844 124.579063 
C 125.254844 124.579063 125.254844 124.579063 125.254844 124.579063 
C 125.254844 124.579063 125.254844 124.579063 125.254844 124.579063 
L 120.775925 170.054291 
C 122.264397 170.200893 123.75917 170.274326 125.254844 170.274326 
C 126.750518 170.274326 128.245291 170.200893 129.733763 170.054291 
L 125.254844 124.579063 
z
" clip-path="url(#pbd8d5a5690)" style="fill: none; stroke: #292929; stroke-width: 0.5; stroke-linejoin: miter"/>
   </g>
   <g id="patch_148">
    <path d="M 125.254844 124.579063 
C 125.254844 124.579063 125.254844 124.579063 125.254844 124.579063 
C 125.254844 124.579063 125.254844 124.579063 125.254844 124.579063 
L 113.56272 163.12283 
C 114.824315 163.505531 116.103939 163.82606 117.39697 164.08326 
C 118.690002 164.34046 119.994882 164.53402 121.306897 164.663243 
L 125.254844 124.579063 
z
" clip-path="url(#pbd8d5a5690)" style="fill: none; stroke: #292929; stroke-width: 0.5; stroke-linejoin: miter"/>
   </g>
   <g id="patch_149">
    <path d="M 125.254844 124.579063 
C 125.254844 124.579063 125.254844 124.579063 125.254844 124.579063 
C 125.254844 124.579063 125.254844 124.579063 125.254844 124.579063 
L 88.958307 192.485107 
C 91.180973 193.673147 93.460629 194.751344 95.789041 195.715804 
C 98.117452 196.680264 100.491813 197.529824 102.903546 198.261415 
L 125.254844 124.579063 
z
" clip-path="url(#pbd8d5a5690)" style="fill: none; stroke: #292929; stroke-width: 0.5; stroke-linejoin: miter"/>
   </g>
   <g id="patch_150">
    <path d="M 125.254844 124.579063 
C 125.254844 124.579063 125.254844 124.579063 125.254844 124.579063 
C 125.254844 124.579063 125.254844 124.579063 125.254844 124.579063 
L 76.608376 183.854954 
C 78.548565 185.447226 80.56576 186.94328 82.652676 188.337712 
C 84.739592 189.732145 86.893712 191.023275 89.107257 192.20644 
L 125.254844 124.579063 
z
" clip-path="url(#pbd8d5a5690)" style="fill: none; stroke: #292929; stroke-width: 0.5; stroke-linejoin: miter"/>
   </g>
   <g id="patch_151">
    <path d="M 125.254844 124.579063 
C 125.254844 124.579063 125.254844 124.579063 125.254844 124.579063 
C 125.254844 124.579063 125.254844 124.579063 125.254844 124.579063 
L 66.369626 172.904912 
C 67.951403 174.832313 69.626857 176.680892 71.389936 178.443971 
C 73.153015 180.207049 75.001593 181.882503 76.928994 183.46428 
L 125.254844 124.579063 
z
" clip-path="url(#pbd8d5a5690)" style="fill: none; stroke: #292929; stroke-width: 0.5; stroke-linejoin: miter"/>
   </g>
   <g id="patch_152">
    <path d="M 125.254844 124.579063 
C 125.254844 124.579063 125.254844 124.579063 125.254844 124.579063 
C 125.254844 124.579063 125.254844 124.579063 125.254844 124.579063 
L 44.836847 167.563377 
C 46.243788 170.195578 47.779114 172.757116 49.437281 175.238738 
C 51.095448 177.72036 52.874456 180.119075 54.76788 182.426219 
L 125.254844 124.579063 
z
" clip-path="url(#pbd8d5a5690)" style="fill: none; stroke: #292929; stroke-width: 0.5; stroke-linejoin: miter"/>
   </g>
   <g id="patch_153">
    <path d="M 125.254844 124.579063 
C 125.254844 124.579063 125.254844 124.579063 125.254844 124.579063 
C 125.254844 124.579063 125.254844 124.579063 125.254844 124.579063 
L 37.488106 151.202811 
C 38.359541 154.075548 39.371494 156.903768 40.52031 159.677256 
C 41.669126 162.450743 42.953421 165.166156 44.368555 167.813685 
L 125.254844 124.579063 
z
" clip-path="url(#pbd8d5a5690)" style="fill: none; stroke: #292929; stroke-width: 0.5; stroke-linejoin: miter"/>
   </g>
   <g id="patch_154">
    <path d="M 125.254844 124.579063 
C 125.254844 124.579063 125.254844 124.579063 125.254844 124.579063 
C 125.254844 124.579063 125.254844 124.579063 125.254844 124.579063 
L 53.947514 131.602222 
C 54.177392 133.936217 54.521725 136.257519 54.979268 138.557744 
C 55.436811 140.857968 56.007013 143.134342 56.687814 145.378643 
L 125.254844 124.579063 
z
" clip-path="url(#pbd8d5a5690)" style="fill: none; stroke: #292929; stroke-width: 0.5; stroke-linejoin: miter"/>
   </g>
   <g id="patch_155">
    <path d="M 125.254844 124.579063 
C 125.254844 124.579063 125.254844 124.579063 125.254844 124.579063 
C 125.254844 124.579063 125.254844 124.579063 125.254844 124.579063 
L 17.768865 113.992618 
C 17.422355 117.510794 17.248787 121.043863 17.248787 124.579062 
C 17.248787 128.114262 17.422355 131.647331 17.768865 135.165507 
L 125.254844 124.579063 
z
" clip-path="url(#pbd8d5a5690)" style="fill: none; stroke: #292929; stroke-width: 0.5; stroke-linejoin: miter"/>
   </g>
   <g id="patch_156">
    <path d="M 125.254844 124.579063 
C 125.254844 124.579063 125.254844 124.579063 125.254844 124.579063 
C 125.254844 124.579063 125.254844 124.579063 125.254844 124.579063 
L 54.325993 103.063031 
C 53.621741 105.384638 53.031898 107.739423 52.558595 110.11888 
C 52.085291 112.498336 51.729098 114.899597 51.491301 117.313988 
L 125.254844 124.579063 
z
" clip-path="url(#pbd8d5a5690)" style="fill: none; stroke: #292929; stroke-width: 0.5; stroke-linejoin: miter"/>
   </g>
   <g id="patch_157">
    <path d="M 125.254844 124.579063 
C 125.254844 124.579063 125.254844 124.579063 125.254844 124.579063 
C 125.254844 124.579063 125.254844 124.579063 125.254844 124.579063 
L 42.252565 80.21342 
C 40.800411 82.930209 39.48252 85.716657 38.30365 88.562699 
C 37.124781 91.408741 36.086355 94.310948 35.192123 97.258835 
L 125.254844 124.579063 
z
" clip-path="url(#pbd8d5a5690)" style="fill: none; stroke: #292929; stroke-width: 0.5; stroke-linejoin: miter"/>
   </g>
   <g id="patch_158">
    <path d="M 125.254844 124.579063 
C 125.254844 124.579063 125.254844 124.579063 125.254844 124.579063 
C 125.254844 124.579063 125.254844 124.579063 125.254844 124.579063 
L 69.345402 78.695369 
C 67.84356 80.525369 66.432471 82.428001 65.117232 84.396395 
C 63.801994 86.364789 62.58419 88.396571 61.468221 90.484402 
L 125.254844 124.579063 
z
" clip-path="url(#pbd8d5a5690)" style="fill: none; stroke: #292929; stroke-width: 0.5; stroke-linejoin: miter"/>
   </g>
   <g id="patch_159">
    <path d="M 125.254844 124.579063 
C 125.254844 124.579063 125.254844 124.579063 125.254844 124.579063 
C 125.254844 124.579063 125.254844 124.579063 125.254844 124.579063 
L 83.720361 73.969148 
C 82.063823 75.328634 80.47503 76.768632 78.959721 78.28394 
C 77.444413 79.799249 76.004415 81.388041 74.64493 83.044579 
L 125.254844 124.579063 
z
" clip-path="url(#pbd8d5a5690)" style="fill: none; stroke: #292929; stroke-width: 0.5; stroke-linejoin: miter"/>
   </g>
   <g id="patch_160">
    <path d="M 125.254844 124.579063 
C 125.254844 124.579063 125.254844 124.579063 125.254844 124.579063 
C 125.254844 124.579063 125.254844 124.579063 125.254844 124.579063 
L 96.910321 71.550191 
C 95.174607 72.477949 93.48549 73.490367 91.84907 74.583788 
C 90.21265 75.677209 88.6309 76.850315 87.109534 78.098868 
L 125.254844 124.579063 
z
" clip-path="url(#pbd8d5a5690)" style="fill: none; stroke: #292929; stroke-width: 0.5; stroke-linejoin: miter"/>
   </g>
   <g id="patch_161">
    <path d="M 125.254844 124.579063 
C 125.254844 124.579063 125.254844 124.579063 125.254844 124.579063 
C 125.254844 124.579063 125.254844 124.579063 125.254844 124.579063 
L 103.336288 52.323268 
C 100.971248 53.040695 98.642857 53.873806 96.359525 54.819593 
C 94.076194 55.76538 91.840674 56.822702 89.661041 57.987741 
L 125.254844 124.579063 
z
" clip-path="url(#pbd8d5a5690)" style="fill: none; stroke: #292929; stroke-width: 0.5; stroke-linejoin: miter"/>
   </g>
   <g id="patch_162">
    <path d="M 125.254844 124.579063 
C 125.254844 124.579063 125.254844 124.579063 125.254844 124.579063 
C 125.254844 124.579063 125.254844 124.579063 125.254844 124.579063 
L 118.055743 51.485367 
C 115.663277 51.721005 113.283823 52.073963 110.925974 52.542969 
C 108.568125 53.011974 106.234724 53.596461 103.934199 54.294317 
L 125.254844 124.579063 
z
" clip-path="url(#pbd8d5a5690)" style="fill: none; stroke: #292929; stroke-width: 0.5; stroke-linejoin: miter"/>
   </g>
   <g id="PathCollection_1">
    <defs>
     <path id="m3c42b5c062" d="M 0.193618 7.414054 
L 0.193618 7.414054 
C 0.054922 7.414054 -0.078235 7.358899 -0.176308 7.260826 
C -0.274381 7.162753 -0.329536 7.029596 -0.329536 6.890901 
L -0.329536 5.365008 
L -1.528416 6.56393 
L -1.528416 6.56393 
C -1.577018 6.612704 -1.634775 6.651408 -1.698366 6.677814 
C -1.761958 6.704221 -1.830141 6.717815 -1.898997 6.717815 
C -1.967853 6.717815 -2.036037 6.704221 -2.099628 6.677814 
C -2.163219 6.651408 -2.220976 6.612704 -2.269578 6.56393 
L -2.269578 6.56393 
C -2.318353 6.515327 -2.357056 6.457571 -2.383463 6.393979 
C -2.409869 6.330388 -2.423463 6.262205 -2.423463 6.193348 
C -2.423463 6.124492 -2.409869 6.056309 -2.383463 5.992718 
C -2.357056 5.929126 -2.318353 5.87137 -2.269578 5.822767 
L -0.329536 3.884106 
L -0.329536 0.820937 
L -2.98067 2.351538 
L -3.691824 5.001416 
L -3.691824 5.001416 
C -3.727584 5.135411 -3.815199 5.249836 -3.93523 5.319305 
C -4.055261 5.388775 -4.198123 5.407741 -4.332122 5.371997 
L -4.332122 5.371997 
C -4.466126 5.336237 -4.580558 5.248616 -4.650029 5.128576 
C -4.719499 5.008535 -4.73846 4.865662 -4.702703 4.731657 
L -4.262647 3.092721 
L -5.585535 3.855668 
L -5.585535 3.855668 
C -5.645013 3.890144 -5.710708 3.912561 -5.778854 3.921634 
C -5.847001 3.930706 -5.916272 3.926258 -5.982698 3.908543 
C -6.049125 3.890828 -6.111412 3.860192 -6.165991 3.818391 
C -6.220571 3.77659 -6.266379 3.724437 -6.300791 3.664922 
L -6.300791 3.664922 
C -6.335212 3.605364 -6.35755 3.539597 -6.366524 3.471396 
C -6.375498 3.403194 -6.370933 3.333888 -6.35309 3.267452 
C -6.335248 3.201017 -6.304476 3.138749 -6.26254 3.08422 
C -6.220605 3.029692 -6.168323 2.983966 -6.108695 2.949666 
L -4.785807 2.186762 
L -6.424743 1.746706 
L -6.424743 1.746706 
C -6.558747 1.710946 -6.673179 1.623325 -6.74265 1.503284 
C -6.81212 1.383244 -6.831081 1.240371 -6.795324 1.106366 
L -6.795324 1.106366 
C -6.777471 1.039969 -6.746703 0.977739 -6.704784 0.923241 
C -6.662864 0.868744 -6.61061 0.823041 -6.551015 0.788752 
C -6.491421 0.754464 -6.425647 0.732257 -6.357465 0.723406 
C -6.289282 0.714554 -6.220019 0.71923 -6.153645 0.737166 
L -3.505232 1.44698 
L -0.852424 -0.08496 
L -3.503767 -1.615666 
L -6.153645 -0.905851 
L -6.153645 -0.905851 
C -6.22011 -0.887939 -6.289462 -0.883321 -6.357716 -0.892262 
C -6.42597 -0.901202 -6.491793 -0.923527 -6.551403 -0.957953 
C -6.611013 -0.992379 -6.663247 -1.038234 -6.705103 -1.092883 
C -6.746958 -1.147533 -6.777619 -1.209911 -6.795324 -1.276432 
L -6.795324 -1.276432 
C -6.831068 -1.410431 -6.812101 -1.553293 -6.742632 -1.673324 
C -6.673162 -1.793355 -6.558738 -1.88097 -6.424743 -1.91673 
L -4.785807 -2.355447 
L -6.108695 -3.119732 
L -6.108695 -3.119732 
C -6.228699 -3.188976 -6.316415 -3.303132 -6.352417 -3.436921 
C -6.388419 -3.57071 -6.369839 -3.713469 -6.300791 -3.833586 
L -6.300791 -3.833586 
C -6.266491 -3.893214 -6.220765 -3.945496 -6.166237 -3.987431 
C -6.111708 -4.029367 -6.04944 -4.060139 -5.983005 -4.077981 
C -5.91657 -4.095823 -5.847263 -4.100389 -5.779062 -4.091415 
C -5.71086 -4.082441 -5.645094 -4.060102 -5.585535 -4.025682 
L -4.262647 -3.261396 
L -4.702703 -4.900332 
L -4.702703 -4.900332 
C -4.73846 -5.034337 -4.719499 -5.17721 -4.650029 -5.29725 
C -4.580558 -5.417291 -4.466126 -5.504912 -4.332122 -5.540672 
L -4.332122 -5.540672 
C -4.19831 -5.576464 -4.055613 -5.557686 -3.935617 -5.488496 
C -3.81562 -5.419305 -3.727882 -5.305212 -3.691824 -5.171472 
L -2.982009 -2.521594 
L -0.329411 -0.990302 
L -0.329411 -4.051588 
L -2.269453 -5.991589 
L -2.269453 -5.991589 
C -2.318227 -6.040191 -2.356931 -6.097947 -2.383337 -6.161539 
C -2.409744 -6.22513 -2.423338 -6.293314 -2.423338 -6.36217 
C -2.423338 -6.431026 -2.409744 -6.499209 -2.383337 -6.5628 
C -2.356931 -6.626392 -2.318227 -6.684149 -2.269453 -6.732751 
L -2.269453 -6.732751 
C -2.22085 -6.781526 -2.163094 -6.820229 -2.099502 -6.846635 
C -2.035911 -6.873042 -1.967728 -6.886636 -1.898871 -6.886636 
C -1.830015 -6.886636 -1.761832 -6.873042 -1.698241 -6.846635 
C -1.634649 -6.820229 -1.576893 -6.781526 -1.52829 -6.732751 
L -0.329411 -5.533829 
L -0.329411 -7.059722 
L -0.329411 -7.059722 
C -0.329411 -7.198418 -0.274255 -7.331575 -0.176182 -7.429647 
C -0.07811 -7.52772 0.055047 -7.582875 0.193743 -7.582875 
L 0.193743 -7.582875 
C 0.332439 -7.582875 0.465596 -7.52772 0.563669 -7.429647 
C 0.661741 -7.331575 0.716897 -7.198418 0.716897 -7.059722 
L 0.716897 -5.533829 
L 1.915777 -6.732751 
L 1.915777 -6.732751 
C 1.964379 -6.781526 2.022136 -6.820229 2.085727 -6.846635 
C 2.149318 -6.873042 2.217502 -6.886636 2.286358 -6.886636 
C 2.355214 -6.886636 2.423397 -6.873042 2.486989 -6.846635 
C 2.55058 -6.820229 2.608337 -6.781526 2.656939 -6.732751 
L 2.656939 -6.732751 
C 2.705714 -6.684149 2.744417 -6.626392 2.770823 -6.5628 
C 2.79723 -6.499209 2.810824 -6.431026 2.810824 -6.36217 
C 2.810824 -6.293314 2.79723 -6.22513 2.770823 -6.161539 
C 2.744417 -6.097947 2.705714 -6.040191 2.656939 -5.991589 
L 0.716897 -4.051588 
L 0.716897 -0.991139 
L 3.369495 -2.522954 
L 4.07931 -5.171367 
L 4.07931 -5.171367 
C 4.115368 -5.305107 4.203106 -5.4192 4.323103 -5.488391 
C 4.4431 -5.557582 4.585797 -5.576359 4.719608 -5.540567 
L 4.719608 -5.540567 
C 4.853612 -5.504807 4.968045 -5.417186 5.037515 -5.297146 
C 5.106986 -5.177105 5.125946 -5.034232 5.090189 -4.900227 
L 4.650133 -3.262673 
L 5.973022 -4.025577 
L 5.973022 -4.025577 
C 6.03258 -4.059998 6.098346 -4.082336 6.166548 -4.09131 
C 6.234749 -4.100284 6.304056 -4.095719 6.370491 -4.077876 
C 6.436926 -4.060034 6.499194 -4.029262 6.553723 -3.987327 
C 6.608252 -3.945391 6.653978 -3.893109 6.688277 -3.833481 
L 6.688277 -3.833481 
C 6.757325 -3.713365 6.775905 -3.570605 6.739903 -3.436816 
C 6.703901 -3.303027 6.616186 -3.188871 6.496181 -3.119628 
L 5.173293 -2.355342 
L 6.812229 -1.916625 
L 6.812229 -1.916625 
C 6.946224 -1.880865 7.060649 -1.79325 7.130118 -1.67322 
C 7.199588 -1.553189 7.218554 -1.410326 7.18281 -1.276327 
L 7.18281 -1.276327 
C 7.165106 -1.209806 7.134445 -1.147429 7.092589 -1.092779 
C 7.050733 -1.038129 6.998499 -0.992274 6.938889 -0.957848 
C 6.879279 -0.923422 6.813456 -0.901098 6.745202 -0.892157 
C 6.676949 -0.883217 6.607597 -0.887835 6.541131 -0.905746 
L 3.891253 -1.615561 
L 1.239492 -0.084604 
L 3.892718 1.447085 
L 6.541131 0.73727 
L 6.541131 0.73727 
C 6.674948 0.701466 6.817656 0.720237 6.937662 0.789429 
C 7.057669 0.858621 7.145413 0.972721 7.181471 1.10647 
L 7.181471 1.10647 
C 7.217274 1.240293 7.198497 1.383006 7.129297 1.503014 
C 7.060096 1.623021 6.945986 1.710762 6.812229 1.74681 
L 5.173293 2.186866 
L 6.496181 2.949771 
L 6.496181 2.949771 
C 6.555697 2.984183 6.607849 3.029991 6.649651 3.08457 
C 6.691452 3.13915 6.722088 3.201437 6.739803 3.267863 
C 6.757517 3.33429 6.761966 3.403561 6.752893 3.471707 
C 6.743821 3.539854 6.721404 3.605549 6.686927 3.665026 
L 6.686927 3.665026 
C 6.617458 3.784813 6.503196 3.87225 6.369416 3.907994 
C 6.235636 3.943739 6.092989 3.924946 5.973032 3.855772 
L 4.650144 3.091487 
L 5.08886 4.731783 
L 5.08886 4.731783 
C 5.124664 4.865606 5.105887 5.008319 5.036686 5.128326 
C 4.967486 5.248334 4.853376 5.336074 4.719619 5.372123 
L 4.719619 5.372123 
C 4.585619 5.407867 4.442757 5.3889 4.322726 5.319431 
C 4.202695 5.249961 4.115081 5.135537 4.07932 5.001542 
L 3.368166 2.351664 
L 0.717033 0.821063 
L 0.717033 3.884232 
L 2.657075 5.822893 
L 2.657075 5.822893 
C 2.70585 5.871495 2.744553 5.929252 2.770959 5.992843 
C 2.797366 6.056435 2.81096 6.124618 2.81096 6.193474 
C 2.81096 6.26233 2.797366 6.330514 2.770959 6.394105 
C 2.744553 6.457696 2.70585 6.515453 2.657075 6.564055 
L 2.657075 6.564055 
C 2.608473 6.61283 2.550716 6.651533 2.487125 6.67794 
C 2.423533 6.704346 2.35535 6.71794 2.286494 6.71794 
C 2.217638 6.71794 2.149454 6.704346 2.085863 6.67794 
C 2.022272 6.651533 1.964515 6.61283 1.915913 6.564055 
L 0.717033 5.365133 
L 0.717033 6.891026 
L 0.717033 6.891026 
C 0.717033 7.029722 0.661877 7.162879 0.563805 7.260952 
C 0.465732 7.359024 0.332575 7.41418 0.193879 7.41418 
L 0.193618 7.414054 
z
"/>
    </defs>
    <g clip-path="url(#pbd8d5a5690)">
     <use xlink:href="#m3c42b5c062" x="110.289813" y="117.139111" style="fill: #9e2096; fill-opacity: 0.7"/>
    </g>
   </g>
   <g id="patch_163">
    <path d="M 125.254844 13.699063 
C 110.694216 13.699063 96.275171 16.567189 82.822905 22.1393 
C 69.370638 27.711411 57.146763 35.879144 46.850844 46.175063 
C 36.554925 56.470982 28.387192 68.694857 22.815081 82.147124 
C 17.24297 95.59939 14.374844 110.018434 14.374844 124.579063 
C 14.374844 139.139691 17.24297 153.558735 22.815081 167.011001 
C 28.387192 180.463268 36.554925 192.687143 46.850844 202.983062 
C 57.146763 213.278981 69.370638 221.446714 82.822905 227.018825 
C 96.275171 232.590936 110.694216 235.459063 125.254844 235.459063 
C 139.815472 235.459063 154.234516 232.590936 167.686783 227.018825 
C 181.139049 221.446714 193.362925 213.278981 203.658844 202.983062 
C 213.954763 192.687143 222.122495 180.463268 227.694606 167.011001 
C 233.266717 153.558735 236.134844 139.139691 236.134844 124.579063 
C 236.134844 110.018434 233.266717 95.59939 227.694606 82.147124 
C 222.122495 68.694857 213.954763 56.470982 203.658844 46.175063 
C 193.362925 35.879144 181.139049 27.711411 167.686783 22.1393 
C 154.234516 16.567189 139.815472 13.699063 125.254844 13.699063 
" style="fill: none; stroke: #000000; stroke-width: 0.8; stroke-linejoin: miter; stroke-linecap: square"/>
   </g>
  </g>
 </g>
 <defs>
  <clipPath id="pbd8d5a5690">
   <path d="M 236.134844 124.579063 
C 236.134844 110.018434 233.266717 95.59939 227.694606 82.147124 
C 222.122495 68.694857 213.954763 56.470982 203.658844 46.175063 
C 193.362925 35.879144 181.139049 27.711411 167.686783 22.1393 
C 154.234516 16.567189 139.815472 13.699063 125.254844 13.699063 
C 110.694216 13.699063 96.275171 16.567189 82.822905 22.1393 
C 69.370638 27.711411 57.146763 35.879144 46.850844 46.175063 
C 36.554925 56.470982 28.387192 68.694857 22.815081 82.147124 
C 17.24297 95.59939 14.374844 110.018434 14.374844 124.579062 
C 14.374844 139.139691 17.24297 153.558735 22.815081 167.011001 
C 28.387192 180.463268 36.554925 192.687143 46.850844 202.983062 
C 57.146763 213.278981 69.370638 221.446714 82.822905 227.018825 
C 96.275171 232.590936 110.694216 235.459063 125.254844 235.459063 
C 139.815472 235.459063 154.234516 232.590936 167.686783 227.018825 
C 181.139049 221.446714 193.362925 213.278981 203.658844 202.983062 
C 213.954763 192.687143 222.122495 180.463268 227.694606 167.011001 
C 233.266717 153.558735 236.134844 139.139691 236.134844 124.579063 
M 125.254844 124.579063 
C 125.254844 124.579063 125.254844 124.579063 125.254844 124.579063 
C 125.254844 124.579063 125.254844 124.579063 125.254844 124.579063 
C 125.254844 124.579063 125.254844 124.579063 125.254844 124.579063 
C 125.254844 124.579063 125.254844 124.579063 125.254844 124.579063 
C 125.254844 124.579063 125.254844 124.579063 125.254844 124.579063 
C 125.254844 124.579063 125.254844 124.579063 125.254844 124.579063 
C 125.254844 124.579063 125.254844 124.579063 125.254844 124.579063 
C 125.254844 124.579063 125.254844 124.579063 125.254844 124.579063 
C 125.254844 124.579063 125.254844 124.579063 125.254844 124.579063 
C 125.254844 124.579063 125.254844 124.579063 125.254844 124.579063 
C 125.254844 124.579063 125.254844 124.579063 125.254844 124.579063 
C 125.254844 124.579063 125.254844 124.579063 125.254844 124.579063 
C 125.254844 124.579063 125.254844 124.579063 125.254844 124.579063 
C 125.254844 124.579063 125.254844 124.579063 125.254844 124.579063 
C 125.254844 124.579063 125.254844 124.579063 125.254844 124.579063 
C 125.254844 124.579063 125.254844 124.579063 125.254844 124.579063 
z
"/>
  </clipPath>
 </defs>
</svg>
