<?xml version="1.0" encoding="utf-8" standalone="no"?>
<!DOCTYPE svg PUBLIC "-//W3C//DTD SVG 1.1//EN"
  "http://www.w3.org/Graphics/SVG/1.1/DTD/svg11.dtd">
<svg xmlns:xlink="http://www.w3.org/1999/xlink" width="248.410469pt" height="249.158125pt" viewBox="0 0 248.410469 249.158125" xmlns="http://www.w3.org/2000/svg" version="1.1">
 <title>Ski Rose for Radstadt - Altenmarkt</title>
 <metadata>
  <rdf:RDF xmlns:dc="http://purl.org/dc/elements/1.1/" xmlns:cc="http://creativecommons.org/ns#" xmlns:rdf="http://www.w3.org/1999/02/22-rdf-syntax-ns#">
   <cc:Work>
    <dc:type rdf:resource="http://purl.org/dc/dcmitype/StillImage"/>
    <dc:title>Ski Rose for Radstadt - Altenmarkt</dc:title>
    <dc:date>2025-10-18T10:25:51.658293</dc:date>
    <dc:description>A 32-bin stacked histogram of downhill ski run orientations colored by difficulty.</dc:description>
    <dc:format>image/svg+xml</dc:format>
    <dc:source>https://openskimap.org/?obj=6d993fe595f830217b5c7abac769ea432a6cc300</dc:source>
    <dc:creator>
     <cc:Agent>
      <dc:title>https://github.com/dhimmel/openskistats</dc:title>
     </cc:Agent>
    </dc:creator>
    <dc:rights>
     <cc:Agent>
      <dc:title>https://creativecommons.org/licenses/by/4.0/</dc:title>
     </cc:Agent>
    </dc:rights>
   </cc:Work>
  </rdf:RDF>
 </metadata>
 <defs>
  <style type="text/css">*{stroke-linejoin: round; stroke-linecap: butt}</style>
 </defs>
 <g id="figure_1">
  <g id="patch_1">
   <path d="M 0 249.158125 
L 248.410469 249.158125 
L 248.410469 0 
L 0 0 
z
" style="fill: #ffffff"/>
  </g>
  <g id="axes_1">
   <g id="patch_2">
    <path d="M 236.134844 124.579062 
C 236.134844 110.018434 233.266717 95.59939 227.694606 82.147124 
C 222.122495 68.694857 213.954763 56.470982 203.658844 46.175063 
C 193.362925 35.879144 181.139049 27.711411 167.686783 22.1393 
C 154.234516 16.567189 139.815472 13.699062 125.254844 13.699062 
C 110.694216 13.699062 96.275171 16.567189 82.822905 22.1393 
C 69.370638 27.711411 57.146763 35.879144 46.850844 46.175063 
C 36.554925 56.470982 28.387192 68.694857 22.815081 82.147124 
C 17.24297 95.59939 14.374844 110.018434 14.374844 124.579062 
C 14.374844 139.139691 17.24297 153.558735 22.815081 167.011001 
C 28.387192 180.463268 36.554925 192.687143 46.850844 202.983062 
C 57.146763 213.278981 69.370638 221.446714 82.822905 227.018825 
C 96.275171 232.590936 110.694216 235.459062 125.254844 235.459062 
C 139.815472 235.459062 154.234516 232.590936 167.686783 227.018825 
C 181.139049 221.446714 193.362925 213.278981 203.658844 202.983062 
C 213.954763 192.687143 222.122495 180.463268 227.694606 167.011001 
C 233.266717 153.558735 236.134844 139.139691 236.134844 124.579062 
M 125.254844 124.579062 
C 125.254844 124.579062 125.254844 124.579062 125.254844 124.579062 
C 125.254844 124.579062 125.254844 124.579062 125.254844 124.579062 
C 125.254844 124.579062 125.254844 124.579062 125.254844 124.579062 
C 125.254844 124.579062 125.254844 124.579062 125.254844 124.579062 
C 125.254844 124.579062 125.254844 124.579062 125.254844 124.579062 
C 125.254844 124.579062 125.254844 124.579062 125.254844 124.579062 
C 125.254844 124.579062 125.254844 124.579062 125.254844 124.579062 
C 125.254844 124.579062 125.254844 124.579062 125.254844 124.579062 
C 125.254844 124.579062 125.254844 124.579062 125.254844 124.579062 
C 125.254844 124.579062 125.254844 124.579062 125.254844 124.579062 
C 125.254844 124.579062 125.254844 124.579062 125.254844 124.579062 
C 125.254844 124.579062 125.254844 124.579062 125.254844 124.579062 
C 125.254844 124.579062 125.254844 124.579062 125.254844 124.579062 
C 125.254844 124.579062 125.254844 124.579062 125.254844 124.579062 
C 125.254844 124.579062 125.254844 124.579062 125.254844 124.579062 
C 125.254844 124.579062 125.254844 124.579062 125.254844 124.579062 
z
" style="fill: #ffffff"/>
   </g>
   <g id="PolyCollection_1">
    <defs>
     <path id="m006ce9842b" d="M 235.400663 -137.128593 
L 234.688427 -137.047444 
L 233.961867 -135.046358 
L 232.97093 -133.056502 
L 232.113272 -131.114804 
L 231.004624 -129.196198 
L 230.052943 -127.323297 
L 228.857052 -125.483185 
L 227.829313 -123.683909 
L 226.767907 -121.920849 
L 225.468378 -120.203645 
L 224.345336 -118.518428 
L 222.988061 -116.887291 
L 221.810607 -115.2818 
L 220.6081 -113.714931 
L 219.177747 -112.213878 
L 217.930246 -110.728631 
L 216.662001 -109.28275 
L 215.374365 -107.876396 
L 214.068679 -106.509683 
L 212.54799 -105.226638 
L 211.211744 -103.942636 
L 209.861545 -102.698282 
L 208.498699 -101.493498 
L 207.124507 -100.328163 
L 205.740261 -99.202108 
L 204.534376 -98.052502 
L 203.131584 -97.001462 
L 201.722444 -95.988998 
L 200.30821 -95.014755 
L 199.067717 -94.004769 
L 197.644283 -93.103239 
L 196.21933 -92.238683 
L 194.963445 -91.329765 
L 193.535991 -90.535338 
L 192.273984 -89.691106 
L 191.008904 -88.877521 
L 189.583947 -88.183407 
L 188.318313 -87.43184 
L 187.052191 -86.7096 
L 185.786383 -86.016219 
L 184.377067 -85.446917 
L 183.117567 -84.811115 
L 181.860739 -84.20247 
L 180.607305 -83.620396 
L 179.357961 -83.06428 
L 178.240649 -82.43225 
L 176.997848 -81.925421 
L 175.761035 -81.4427 
L 174.53081 -80.98337 
L 173.307742 -80.546693 
L 172.201524 -80.028326 
L 170.990537 -79.634722 
L 169.890193 -79.157801 
L 168.693105 -78.804686 
L 167.505524 -78.470536 
L 166.418688 -78.051801 
L 165.334818 -77.651442 
L 164.170114 -77.371065 
L 163.09646 -77.005631 
L 161.949773 -76.7573 
L 160.887383 -76.42445 
L 159.829293 -76.107472 
L 158.77571 -75.805899 
L 157.663669 -75.614669 
L 156.622855 -75.341148 
L 155.586999 -75.081484 
L 154.556216 -74.835203 
L 153.530601 -74.601832 
L 152.510224 -74.380896 
L 151.495137 -74.171928 
L 150.485367 -73.974461 
L 149.480922 -73.788034 
L 148.481785 -73.612192 
L 147.48792 -73.446488 
L 146.49927 -73.290481 
L 145.515756 -73.143741 
L 144.537278 -73.005848 
L 143.563719 -72.876394 
L 142.594938 -72.754984 
L 141.630778 -72.641234 
L 140.687641 -72.47881 
L 139.730207 -72.382591 
L 138.776922 -72.293065 
L 137.827564 -72.209912 
L 136.881894 -72.13283 
L 135.939655 -72.061535 
L 135.00731 -71.959462 
L 134.069845 -71.902693 
L 133.135099 -71.851042 
L 132.202772 -71.804307 
L 131.275109 -71.739873 
L 130.345907 -71.706348 
L 129.418302 -71.677305 
L 128.491963 -71.652628 
L 127.566903 -71.62421 
L 126.641835 -71.612009 
L 125.71715 -71.603991 
L 124.792538 -71.604038 
L 123.867861 -71.612334 
L 122.943157 -71.63274 
L 122.017773 -71.653417 
L 121.091469 -71.678372 
L 120.165686 -71.726141 
L 119.237309 -71.763837 
L 118.307153 -71.806113 
L 117.3749 -71.853125 
L 116.440237 -71.905052 
L 115.509576 -71.998305 
L 114.570605 -72.06435 
L 113.628479 -72.135918 
L 112.68293 -72.213274 
L 111.74643 -72.345902 
L 110.795146 -72.439076 
L 109.839833 -72.538857 
L 108.88028 -72.64558 
L 107.916293 -72.759596 
L 106.947696 -72.881272 
L 105.974331 -73.01099 
L 105.023562 -73.218962 
L 104.042807 -73.368675 
L 103.057011 -73.527542 
L 102.066092 -73.69599 
L 101.069987 -73.874456 
L 100.068656 -74.063384 
L 99.062078 -74.263229 
L 98.050257 -74.474447 
L 97.033216 -74.697505 
L 95.957979 -74.842856 
L 94.927522 -75.089371 
L 93.892003 -75.349264 
L 92.85154 -75.623011 
L 91.806269 -75.911085 
L 90.75635 -76.213958 
L 89.629035 -76.433546 
L 88.567051 -76.7666 
L 87.501006 -77.115984 
L 86.347654 -77.380867 
L 85.270883 -77.763859 
L 84.190848 -78.164659 
L 83.013737 -78.480984 
L 81.924764 -78.918686 
L 80.732166 -79.272456 
L 79.530481 -79.645856 
L 78.42919 -80.143176 
L 77.214505 -80.558202 
L 75.992144 -80.995107 
L 74.882462 -81.556984 
L 73.650083 -82.03938 
L 72.41169 -82.54572 
L 71.167909 -83.076698 
L 69.919387 -83.632978 
L 68.666799 -84.215202 
L 67.410842 -84.823982 
L 66.152238 -85.459901 
L 64.891728 -86.123517 
L 63.630075 -86.815355 
L 62.36806 -87.535916 
L 61.106483 -88.285666 
L 59.686089 -88.978133 
L 58.424957 -89.789626 
L 57.000722 -90.548812 
L 55.743765 -91.423979 
L 54.319861 -92.252128 
L 53.070939 -93.192607 
L 51.651673 -94.091631 
L 50.414756 -95.098768 
L 49.004548 -96.070245 
L 47.599358 -97.079813 
L 46.200439 -98.127829 
L 44.997849 -99.274129 
L 43.617323 -100.396927 
L 42.24677 -101.558886 
L 40.887483 -102.76018 
L 39.54076 -104.000932 
L 38.207906 -105.281221 
L 36.690995 -106.560544 
L 35.388521 -107.923324 
L 34.104005 -109.325643 
L 32.838786 -110.76739 
L 31.59421 -112.248406 
L 30.167124 -113.745185 
L 28.967316 -115.307628 
L 27.792437 -116.908605 
L 26.438012 -118.535166 
L 25.317231 -120.215692 
L 24.22604 -121.93353 
L 22.960525 -123.686354 
L 21.93427 -125.480727 
L 20.739621 -127.31589 
L 19.788291 -129.183832 
L 18.678866 -131.097529 
L 17.818882 -133.034456 
L 16.822086 -135.01995 
L 16.087113 -137.017154 
L 15.427495 -139.038107 
L 15.427495 -139.038107 
L 15.427495 -139.038107 
L 15.121137 -137.127213 
L 14.951934 -135.200025 
L 14.815637 -133.270817 
L 14.608157 -131.346504 
L 14.537584 -129.413082 
L 14.499614 -127.47929 
L 14.391412 -125.546553 
L 14.418596 -123.611809 
L 14.477654 -121.67826 
L 14.568207 -119.74638 
L 14.591593 -117.810608 
L 14.745646 -115.8818 
L 14.930259 -113.956013 
L 15.145085 -112.03364 
L 15.47314 -110.126027 
L 15.659025 -108.199858 
L 15.966966 -106.290544 
L 16.304577 -104.386324 
L 16.671894 -102.487612 
L 17.06901 -100.594841 
L 17.496063 -98.708468 
L 17.953206 -96.828972 
L 18.440586 -94.956847 
L 18.958351 -93.092607 
L 19.596268 -91.265042 
L 20.175074 -89.419863 
L 20.784583 -87.584203 
L 21.425003 -85.758676 
L 22.096582 -83.943943 
L 22.88646 -82.176689 
L 23.59842 -80.377591 
L 24.36543 -78.601108 
L 25.246492 -76.877525 
L 26.077829 -75.131227 
L 26.935289 -73.397142 
L 27.841151 -71.687743 
L 28.783227 -69.998048 
L 29.762005 -68.329482 
L 30.717548 -66.646533 
L 31.760088 -65.016334 
L 32.809274 -63.390675 
L 33.886421 -61.783285 
L 35.0118 -60.209325 
L 36.638347 -59.006305 
L 38.387111 -57.923107 
L 40.214488 -56.934909 
L 42.059361 -55.997999 
L 43.851447 -55.053994 
L 45.70378 -54.198226 
L 47.502432 -53.332104 
L 49.357655 -52.555319 
L 51.154124 -51.760488 
L 52.948142 -50.999228 
L 54.738633 -50.270481 
L 56.524675 -49.573245 
L 58.30546 -48.90655 
L 60.080275 -48.269447 
L 61.848486 -47.661 
L 63.60953 -47.080281 
L 65.362903 -46.526365 
L 67.069254 -45.945751 
L 68.807774 -45.44319 
L 70.50569 -44.91855 
L 72.227901 -44.464091 
L 73.908634 -43.981658 
L 75.586634 -43.527911 
L 77.254554 -43.09074 
L 78.943027 -42.723203 
L 80.599219 -42.333633 
L 82.24511 -41.958133 
L 83.887185 -41.608374 
L 85.518984 -41.271101 
L 87.12707 -40.915298 
L 88.749031 -40.621441 
L 90.360987 -40.337841 
L 91.96872 -40.077315 
L 93.555111 -39.794276 
L 95.147673 -39.559036 
L 96.736069 -39.345429 
L 98.307107 -39.111761 
L 99.881468 -38.919981 
L 101.443274 -38.717317 
L 103.008821 -38.560076 
L 104.561924 -38.38685 
L 106.115591 -38.247473 
L 107.660911 -38.102123 
L 109.202993 -37.971027 
L 110.745666 -37.875636 
L 112.281235 -37.770623 
L 113.814243 -37.679076 
L 115.345891 -37.609298 
L 116.874161 -37.542343 
L 118.400651 -37.488285 
L 119.926306 -37.458244 
L 121.44974 -37.427866 
L 122.972224 -37.409312 
L 124.494063 -37.4022 
L 126.015624 -37.402295 
L 127.537459 -37.409515 
L 129.059929 -37.428274 
L 130.584043 -37.447432 
L 132.108993 -37.488837 
L 133.635463 -37.543001 
L 135.16371 -37.610061 
L 136.695298 -37.680185 
L 138.228267 -37.771861 
L 139.763793 -37.877002 
L 141.306472 -37.972225 
L 142.848512 -38.103418 
L 144.393788 -38.248866 
L 145.947309 -38.38874 
L 147.500347 -38.562082 
L 149.065943 -38.719011 
L 150.627692 -38.921763 
L 152.201834 -39.11413 
L 153.772791 -39.347903 
L 155.361287 -39.56109 
L 156.953567 -39.796977 
L 158.539866 -40.08011 
L 160.147748 -40.340139 
L 161.759353 -40.62444 
L 163.3815 -40.91775 
L 164.989504 -41.273614 
L 166.620878 -41.611634 
L 168.2632 -41.960779 
L 169.908612 -42.337052 
L 171.588505 -42.684593 
L 173.25347 -43.093565 
L 174.920827 -43.531544 
L 176.599194 -43.984576 
L 178.31362 -44.415996 
L 180.001385 -44.92235 
L 181.699748 -45.446226 
L 183.438161 -45.948822 
L 185.185086 -46.47645 
L 186.897021 -47.084225 
L 188.657948 -47.664947 
L 190.426044 -48.273391 
L 192.200745 -48.910486 
L 193.981417 -49.577169 
L 195.767348 -50.274387 
L 197.557732 -51.003109 
L 199.351644 -51.764339 
L 201.148014 -52.559133 
L 203.003849 -53.335225 
L 204.802418 -54.201314 
L 206.653966 -55.057645 
L 208.445996 -56.001568 
L 210.291542 -56.937819 
L 212.118238 -57.926436 
L 213.928669 -58.963883 
L 215.523843 -60.190811 
L 216.630409 -61.778376 
L 217.714237 -63.381525 
L 218.746086 -65.018572 
L 219.752195 -66.671011 
L 220.772401 -68.314921 
L 221.675673 -70.026782 
L 222.617405 -71.715505 
L 223.507237 -73.432104 
L 224.463328 -75.115537 
L 225.280348 -76.869344 
L 226.120795 -78.6118 
L 226.890183 -80.386759 
L 227.662978 -82.160224 
L 228.388607 -83.953593 
L 229.06715 -85.765232 
L 229.698732 -87.593542 
L 230.387544 -89.402153 
L 230.983977 -91.242795 
L 231.478035 -93.11432 
L 232.052743 -94.961384 
L 232.592618 -96.819627 
L 232.995644 -98.712785 
L 233.486959 -100.58458 
L 233.765868 -102.502245 
L 234.173742 -104.392138 
L 234.526181 -106.293312 
L 234.85681 -108.198939 
L 235.147601 -110.111407 
L 235.39194 -112.030525 
L 235.607334 -113.953326 
L 235.784413 -115.880197 
L 235.923855 -117.810256 
L 236.026102 -119.742685 
L 236.09389 -121.67664 
L 236.126391 -123.611501 
L 236.123375 -125.546598 
L 236.087678 -127.481322 
L 236.015935 -129.414996 
L 235.910605 -131.347059 
L 235.772458 -133.276987 
L 235.602794 -135.204362 
L 235.400663 -137.128593 
z
" style="stroke: #ffee9c"/>
    </defs>
    <g clip-path="url(#p9e2a1b5a38)">
     <use xlink:href="#m006ce9842b" x="0" y="249.158125" style="fill: #ffee9c; stroke: #ffee9c"/>
    </g>
   </g>
   <g id="matplotlib.axis_1">
    <g id="xtick_1">
     <g id="line2d_1">
      <path d="M 125.254844 124.579062 
L 125.254844 13.699062 
" clip-path="url(#p9e2a1b5a38)" style="fill: none; stroke: #b0b0b0; stroke-width: 0.8; stroke-linecap: square"/>
     </g>
     <g id="text_1">
      <!-- N -->
      <g transform="translate(121.070469 7.958437) scale(0.1 -0.1)">
       <defs>
        <path id="DejaVuSans-Bold-4e" d="M 588 4666 
L 1931 4666 
L 3628 1466 
L 3628 4666 
L 4769 4666 
L 4769 0 
L 3425 0 
L 1728 3200 
L 1728 0 
L 588 0 
L 588 4666 
z
" transform="scale(0.015625)"/>
       </defs>
       <use xlink:href="#DejaVuSans-Bold-4e"/>
      </g>
     </g>
    </g>
    <g id="xtick_2">
     <g id="line2d_2">
      <path d="M 125.254844 124.579062 
L 203.658844 46.175063 
" clip-path="url(#p9e2a1b5a38)" style="fill: none; stroke: #b0b0b0; stroke-width: 0.8; stroke-linecap: square"/>
     </g>
    </g>
    <g id="xtick_3">
     <g id="line2d_3">
      <path d="M 125.254844 124.579062 
L 236.134844 124.579062 
" clip-path="url(#p9e2a1b5a38)" style="fill: none; stroke: #b0b0b0; stroke-width: 0.8; stroke-linecap: square"/>
     </g>
     <g id="text_2">
      <!-- E -->
      <g transform="translate(241.219219 127.338437) scale(0.1 -0.1)">
       <defs>
        <path id="DejaVuSans-Bold-45" d="M 588 4666 
L 3834 4666 
L 3834 3756 
L 1791 3756 
L 1791 2888 
L 3713 2888 
L 3713 1978 
L 1791 1978 
L 1791 909 
L 3903 909 
L 3903 0 
L 588 0 
L 588 4666 
z
" transform="scale(0.015625)"/>
       </defs>
       <use xlink:href="#DejaVuSans-Bold-45"/>
      </g>
     </g>
    </g>
    <g id="xtick_4">
     <g id="line2d_4">
      <path d="M 125.254844 124.579062 
L 203.658844 202.983062 
" clip-path="url(#p9e2a1b5a38)" style="fill: none; stroke: #b0b0b0; stroke-width: 0.8; stroke-linecap: square"/>
     </g>
    </g>
    <g id="xtick_5">
     <g id="line2d_5">
      <path d="M 125.254844 124.579062 
L 125.254844 235.459062 
" clip-path="url(#p9e2a1b5a38)" style="fill: none; stroke: #b0b0b0; stroke-width: 0.8; stroke-linecap: square"/>
     </g>
     <g id="text_3">
      <!-- S -->
      <g transform="translate(121.654062 246.718437) scale(0.1 -0.1)">
       <defs>
        <path id="DejaVuSans-Bold-53" d="M 3834 4519 
L 3834 3531 
Q 3450 3703 3084 3790 
Q 2719 3878 2394 3878 
Q 1963 3878 1756 3759 
Q 1550 3641 1550 3391 
Q 1550 3203 1689 3098 
Q 1828 2994 2194 2919 
L 2706 2816 
Q 3484 2659 3812 2340 
Q 4141 2022 4141 1434 
Q 4141 663 3683 286 
Q 3225 -91 2284 -91 
Q 1841 -91 1394 -6 
Q 947 78 500 244 
L 500 1259 
Q 947 1022 1364 901 
Q 1781 781 2169 781 
Q 2563 781 2772 912 
Q 2981 1044 2981 1288 
Q 2981 1506 2839 1625 
Q 2697 1744 2272 1838 
L 1806 1941 
Q 1106 2091 782 2419 
Q 459 2747 459 3303 
Q 459 4000 909 4375 
Q 1359 4750 2203 4750 
Q 2588 4750 2994 4692 
Q 3400 4634 3834 4519 
z
" transform="scale(0.015625)"/>
       </defs>
       <use xlink:href="#DejaVuSans-Bold-53"/>
      </g>
     </g>
    </g>
    <g id="xtick_6">
     <g id="line2d_6">
      <path d="M 125.254844 124.579062 
L 46.850844 202.983062 
" clip-path="url(#p9e2a1b5a38)" style="fill: none; stroke: #b0b0b0; stroke-width: 0.8; stroke-linecap: square"/>
     </g>
    </g>
    <g id="xtick_7">
     <g id="line2d_7">
      <path d="M 125.254844 124.579062 
L 14.374844 124.579062 
" clip-path="url(#p9e2a1b5a38)" style="fill: none; stroke: #b0b0b0; stroke-width: 0.8; stroke-linecap: square"/>
     </g>
     <g id="text_4">
      <!-- W -->
      <g transform="translate(0.36 127.338437) scale(0.1 -0.1)">
       <defs>
        <path id="DejaVuSans-Bold-57" d="M 191 4666 
L 1344 4666 
L 2150 1275 
L 2950 4666 
L 4109 4666 
L 4909 1275 
L 5716 4666 
L 6859 4666 
L 5759 0 
L 4372 0 
L 3525 3547 
L 2688 0 
L 1300 0 
L 191 4666 
z
" transform="scale(0.015625)"/>
       </defs>
       <use xlink:href="#DejaVuSans-Bold-57"/>
      </g>
     </g>
    </g>
    <g id="xtick_8">
     <g id="line2d_8">
      <path d="M 125.254844 124.579062 
L 46.850844 46.175063 
" clip-path="url(#p9e2a1b5a38)" style="fill: none; stroke: #b0b0b0; stroke-width: 0.8; stroke-linecap: square"/>
     </g>
    </g>
   </g>
   <g id="matplotlib.axis_2"/>
   <g id="patch_3">
    <path d="M 125.254844 124.579062 
C 125.254844 124.579062 125.254844 124.579062 125.254844 124.579062 
C 125.254844 124.579062 125.254844 124.579062 125.254844 124.579062 
L 125.254844 124.579062 
C 125.254844 124.579062 125.254844 124.579062 125.254844 124.579062 
C 125.254844 124.579062 125.254844 124.579062 125.254844 124.579062 
z
" clip-path="url(#p9e2a1b5a38)" style="fill: #d9d9d9"/>
   </g>
   <g id="patch_4">
    <path d="M 125.254844 124.579062 
C 125.254844 124.579062 125.254844 124.579062 125.254844 124.579062 
C 125.254844 124.579062 125.254844 124.579062 125.254844 124.579062 
L 125.254844 124.579062 
C 125.254844 124.579062 125.254844 124.579062 125.254844 124.579062 
C 125.254844 124.579062 125.254844 124.579062 125.254844 124.579062 
z
" clip-path="url(#p9e2a1b5a38)" style="fill: #d9d9d9"/>
   </g>
   <g id="patch_5">
    <path d="M 125.254844 124.579062 
C 125.254844 124.579062 125.254844 124.579062 125.254844 124.579062 
C 125.254844 124.579062 125.254844 124.579062 125.254844 124.579062 
L 125.254844 124.579062 
C 125.254844 124.579062 125.254844 124.579062 125.254844 124.579062 
C 125.254844 124.579062 125.254844 124.579062 125.254844 124.579062 
z
" clip-path="url(#p9e2a1b5a38)" style="fill: #d9d9d9"/>
   </g>
   <g id="patch_6">
    <path d="M 125.254844 124.579062 
C 125.254844 124.579062 125.254844 124.579062 125.254844 124.579062 
C 125.254844 124.579062 125.254844 124.579062 125.254844 124.579062 
L 125.254844 124.579062 
C 125.254844 124.579062 125.254844 124.579062 125.254844 124.579062 
C 125.254844 124.579062 125.254844 124.579062 125.254844 124.579062 
z
" clip-path="url(#p9e2a1b5a38)" style="fill: #d9d9d9"/>
   </g>
   <g id="patch_7">
    <path d="M 125.254844 124.579062 
C 125.254844 124.579062 125.254844 124.579062 125.254844 124.579062 
C 125.254844 124.579062 125.254844 124.579062 125.254844 124.579062 
L 125.254844 124.579062 
C 125.254844 124.579062 125.254844 124.579062 125.254844 124.579062 
C 125.254844 124.579062 125.254844 124.579062 125.254844 124.579062 
z
" clip-path="url(#p9e2a1b5a38)" style="fill: #d9d9d9"/>
   </g>
   <g id="patch_8">
    <path d="M 125.254844 124.579062 
C 125.254844 124.579062 125.254844 124.579062 125.254844 124.579062 
C 125.254844 124.579062 125.254844 124.579062 125.254844 124.579062 
L 125.254844 124.579062 
C 125.254844 124.579062 125.254844 124.579062 125.254844 124.579062 
C 125.254844 124.579062 125.254844 124.579062 125.254844 124.579062 
z
" clip-path="url(#p9e2a1b5a38)" style="fill: #d9d9d9"/>
   </g>
   <g id="patch_9">
    <path d="M 125.254844 124.579062 
C 125.254844 124.579062 125.254844 124.579062 125.254844 124.579062 
C 125.254844 124.579062 125.254844 124.579062 125.254844 124.579062 
L 125.254844 124.579062 
C 125.254844 124.579062 125.254844 124.579062 125.254844 124.579062 
C 125.254844 124.579062 125.254844 124.579062 125.254844 124.579062 
z
" clip-path="url(#p9e2a1b5a38)" style="fill: #d9d9d9"/>
   </g>
   <g id="patch_10">
    <path d="M 125.254844 124.579062 
C 125.254844 124.579062 125.254844 124.579062 125.254844 124.579062 
C 125.254844 124.579062 125.254844 124.579062 125.254844 124.579062 
L 125.254844 124.579062 
C 125.254844 124.579062 125.254844 124.579062 125.254844 124.579062 
C 125.254844 124.579062 125.254844 124.579062 125.254844 124.579062 
z
" clip-path="url(#p9e2a1b5a38)" style="fill: #d9d9d9"/>
   </g>
   <g id="patch_11">
    <path d="M 125.254844 124.579062 
C 125.254844 124.579062 125.254844 124.579062 125.254844 124.579062 
C 125.254844 124.579062 125.254844 124.579062 125.254844 124.579062 
L 125.254844 124.579062 
C 125.254844 124.579062 125.254844 124.579062 125.254844 124.579062 
C 125.254844 124.579062 125.254844 124.579062 125.254844 124.579062 
z
" clip-path="url(#p9e2a1b5a38)" style="fill: #d9d9d9"/>
   </g>
   <g id="patch_12">
    <path d="M 125.254844 124.579062 
C 125.254844 124.579062 125.254844 124.579062 125.254844 124.579062 
C 125.254844 124.579062 125.254844 124.579062 125.254844 124.579062 
L 125.254844 124.579062 
C 125.254844 124.579062 125.254844 124.579062 125.254844 124.579062 
C 125.254844 124.579062 125.254844 124.579062 125.254844 124.579062 
z
" clip-path="url(#p9e2a1b5a38)" style="fill: #d9d9d9"/>
   </g>
   <g id="patch_13">
    <path d="M 125.254844 124.579062 
C 125.254844 124.579062 125.254844 124.579062 125.254844 124.579062 
C 125.254844 124.579062 125.254844 124.579062 125.254844 124.579062 
L 125.254844 124.579062 
C 125.254844 124.579062 125.254844 124.579062 125.254844 124.579062 
C 125.254844 124.579062 125.254844 124.579062 125.254844 124.579062 
z
" clip-path="url(#p9e2a1b5a38)" style="fill: #d9d9d9"/>
   </g>
   <g id="patch_14">
    <path d="M 125.254844 124.579062 
C 125.254844 124.579062 125.254844 124.579062 125.254844 124.579062 
C 125.254844 124.579062 125.254844 124.579062 125.254844 124.579062 
L 125.254844 124.579062 
C 125.254844 124.579062 125.254844 124.579062 125.254844 124.579062 
C 125.254844 124.579062 125.254844 124.579062 125.254844 124.579062 
z
" clip-path="url(#p9e2a1b5a38)" style="fill: #d9d9d9"/>
   </g>
   <g id="patch_15">
    <path d="M 125.254844 124.579062 
C 125.254844 124.579062 125.254844 124.579062 125.254844 124.579062 
C 125.254844 124.579062 125.254844 124.579062 125.254844 124.579062 
L 125.254844 124.579062 
C 125.254844 124.579062 125.254844 124.579062 125.254844 124.579062 
C 125.254844 124.579062 125.254844 124.579062 125.254844 124.579062 
z
" clip-path="url(#p9e2a1b5a38)" style="fill: #d9d9d9"/>
   </g>
   <g id="patch_16">
    <path d="M 125.254844 124.579062 
C 125.254844 124.579062 125.254844 124.579062 125.254844 124.579062 
C 125.254844 124.579062 125.254844 124.579062 125.254844 124.579062 
L 125.254844 124.579062 
C 125.254844 124.579062 125.254844 124.579062 125.254844 124.579062 
C 125.254844 124.579062 125.254844 124.579062 125.254844 124.579062 
z
" clip-path="url(#p9e2a1b5a38)" style="fill: #d9d9d9"/>
   </g>
   <g id="patch_17">
    <path d="M 125.254844 124.579062 
C 125.254844 124.579062 125.254844 124.579062 125.254844 124.579062 
C 125.254844 124.579062 125.254844 124.579062 125.254844 124.579062 
L 125.254844 124.579062 
C 125.254844 124.579062 125.254844 124.579062 125.254844 124.579062 
C 125.254844 124.579062 125.254844 124.579062 125.254844 124.579062 
z
" clip-path="url(#p9e2a1b5a38)" style="fill: #d9d9d9"/>
   </g>
   <g id="patch_18">
    <path d="M 125.254844 124.579062 
C 125.254844 124.579062 125.254844 124.579062 125.254844 124.579062 
C 125.254844 124.579062 125.254844 124.579062 125.254844 124.579062 
L 125.254844 124.579062 
C 125.254844 124.579062 125.254844 124.579062 125.254844 124.579062 
C 125.254844 124.579062 125.254844 124.579062 125.254844 124.579062 
z
" clip-path="url(#p9e2a1b5a38)" style="fill: #d9d9d9"/>
   </g>
   <g id="patch_19">
    <path d="M 125.254844 124.579062 
C 125.254844 124.579062 125.254844 124.579062 125.254844 124.579062 
C 125.254844 124.579062 125.254844 124.579062 125.254844 124.579062 
L 125.254844 124.579062 
C 125.254844 124.579062 125.254844 124.579062 125.254844 124.579062 
C 125.254844 124.579062 125.254844 124.579062 125.254844 124.579062 
z
" clip-path="url(#p9e2a1b5a38)" style="fill: #d9d9d9"/>
   </g>
   <g id="patch_20">
    <path d="M 125.254844 124.579062 
C 125.254844 124.579062 125.254844 124.579062 125.254844 124.579062 
C 125.254844 124.579062 125.254844 124.579062 125.254844 124.579062 
L 125.254844 124.579062 
C 125.254844 124.579062 125.254844 124.579062 125.254844 124.579062 
C 125.254844 124.579062 125.254844 124.579062 125.254844 124.579062 
z
" clip-path="url(#p9e2a1b5a38)" style="fill: #d9d9d9"/>
   </g>
   <g id="patch_21">
    <path d="M 125.254844 124.579062 
C 125.254844 124.579062 125.254844 124.579062 125.254844 124.579062 
C 125.254844 124.579062 125.254844 124.579062 125.254844 124.579062 
L 125.254844 124.579062 
C 125.254844 124.579062 125.254844 124.579062 125.254844 124.579062 
C 125.254844 124.579062 125.254844 124.579062 125.254844 124.579062 
z
" clip-path="url(#p9e2a1b5a38)" style="fill: #d9d9d9"/>
   </g>
   <g id="patch_22">
    <path d="M 125.254844 124.579062 
C 125.254844 124.579062 125.254844 124.579062 125.254844 124.579062 
C 125.254844 124.579062 125.254844 124.579062 125.254844 124.579062 
L 125.254844 124.579062 
C 125.254844 124.579062 125.254844 124.579062 125.254844 124.579062 
C 125.254844 124.579062 125.254844 124.579062 125.254844 124.579062 
z
" clip-path="url(#p9e2a1b5a38)" style="fill: #d9d9d9"/>
   </g>
   <g id="patch_23">
    <path d="M 125.254844 124.579062 
C 125.254844 124.579062 125.254844 124.579062 125.254844 124.579062 
C 125.254844 124.579062 125.254844 124.579062 125.254844 124.579062 
L 125.254844 124.579062 
C 125.254844 124.579062 125.254844 124.579062 125.254844 124.579062 
C 125.254844 124.579062 125.254844 124.579062 125.254844 124.579062 
z
" clip-path="url(#p9e2a1b5a38)" style="fill: #d9d9d9"/>
   </g>
   <g id="patch_24">
    <path d="M 125.254844 124.579062 
C 125.254844 124.579062 125.254844 124.579062 125.254844 124.579062 
C 125.254844 124.579062 125.254844 124.579062 125.254844 124.579062 
L 125.254844 124.579062 
C 125.254844 124.579062 125.254844 124.579062 125.254844 124.579062 
C 125.254844 124.579062 125.254844 124.579062 125.254844 124.579062 
z
" clip-path="url(#p9e2a1b5a38)" style="fill: #d9d9d9"/>
   </g>
   <g id="patch_25">
    <path d="M 125.254844 124.579062 
C 125.254844 124.579062 125.254844 124.579062 125.254844 124.579062 
C 125.254844 124.579062 125.254844 124.579062 125.254844 124.579062 
L 125.254844 124.579062 
C 125.254844 124.579062 125.254844 124.579062 125.254844 124.579062 
C 125.254844 124.579062 125.254844 124.579062 125.254844 124.579062 
z
" clip-path="url(#p9e2a1b5a38)" style="fill: #d9d9d9"/>
   </g>
   <g id="patch_26">
    <path d="M 125.254844 124.579062 
C 125.254844 124.579062 125.254844 124.579062 125.254844 124.579062 
C 125.254844 124.579062 125.254844 124.579062 125.254844 124.579062 
L 125.254844 124.579062 
C 125.254844 124.579062 125.254844 124.579062 125.254844 124.579062 
C 125.254844 124.579062 125.254844 124.579062 125.254844 124.579062 
z
" clip-path="url(#p9e2a1b5a38)" style="fill: #d9d9d9"/>
   </g>
   <g id="patch_27">
    <path d="M 125.254844 124.579062 
C 125.254844 124.579062 125.254844 124.579062 125.254844 124.579062 
C 125.254844 124.579062 125.254844 124.579062 125.254844 124.579062 
L 125.254844 124.579062 
C 125.254844 124.579062 125.254844 124.579062 125.254844 124.579062 
C 125.254844 124.579062 125.254844 124.579062 125.254844 124.579062 
z
" clip-path="url(#p9e2a1b5a38)" style="fill: #d9d9d9"/>
   </g>
   <g id="patch_28">
    <path d="M 125.254844 124.579062 
C 125.254844 124.579062 125.254844 124.579062 125.254844 124.579062 
C 125.254844 124.579062 125.254844 124.579062 125.254844 124.579062 
L 125.254844 124.579062 
C 125.254844 124.579062 125.254844 124.579062 125.254844 124.579062 
C 125.254844 124.579062 125.254844 124.579062 125.254844 124.579062 
z
" clip-path="url(#p9e2a1b5a38)" style="fill: #d9d9d9"/>
   </g>
   <g id="patch_29">
    <path d="M 125.254844 124.579062 
C 125.254844 124.579062 125.254844 124.579062 125.254844 124.579062 
C 125.254844 124.579062 125.254844 124.579062 125.254844 124.579062 
L 125.254844 124.579062 
C 125.254844 124.579062 125.254844 124.579062 125.254844 124.579062 
C 125.254844 124.579062 125.254844 124.579062 125.254844 124.579062 
z
" clip-path="url(#p9e2a1b5a38)" style="fill: #d9d9d9"/>
   </g>
   <g id="patch_30">
    <path d="M 125.254844 124.579062 
C 125.254844 124.579062 125.254844 124.579062 125.254844 124.579062 
C 125.254844 124.579062 125.254844 124.579062 125.254844 124.579062 
L 125.254844 124.579062 
C 125.254844 124.579062 125.254844 124.579062 125.254844 124.579062 
C 125.254844 124.579062 125.254844 124.579062 125.254844 124.579062 
z
" clip-path="url(#p9e2a1b5a38)" style="fill: #d9d9d9"/>
   </g>
   <g id="patch_31">
    <path d="M 125.254844 124.579062 
C 125.254844 124.579062 125.254844 124.579062 125.254844 124.579062 
C 125.254844 124.579062 125.254844 124.579062 125.254844 124.579062 
L 125.254844 124.579062 
C 125.254844 124.579062 125.254844 124.579062 125.254844 124.579062 
C 125.254844 124.579062 125.254844 124.579062 125.254844 124.579062 
z
" clip-path="url(#p9e2a1b5a38)" style="fill: #d9d9d9"/>
   </g>
   <g id="patch_32">
    <path d="M 125.254844 124.579062 
C 125.254844 124.579062 125.254844 124.579062 125.254844 124.579062 
C 125.254844 124.579062 125.254844 124.579062 125.254844 124.579062 
L 125.254844 124.579062 
C 125.254844 124.579062 125.254844 124.579062 125.254844 124.579062 
C 125.254844 124.579062 125.254844 124.579062 125.254844 124.579062 
z
" clip-path="url(#p9e2a1b5a38)" style="fill: #d9d9d9"/>
   </g>
   <g id="patch_33">
    <path d="M 125.254844 124.579062 
C 125.254844 124.579062 125.254844 124.579062 125.254844 124.579062 
C 125.254844 124.579062 125.254844 124.579062 125.254844 124.579062 
L 125.254844 124.579062 
C 125.254844 124.579062 125.254844 124.579062 125.254844 124.579062 
C 125.254844 124.579062 125.254844 124.579062 125.254844 124.579062 
z
" clip-path="url(#p9e2a1b5a38)" style="fill: #d9d9d9"/>
   </g>
   <g id="patch_34">
    <path d="M 125.254844 124.579062 
C 125.254844 124.579062 125.254844 124.579062 125.254844 124.579062 
C 125.254844 124.579062 125.254844 124.579062 125.254844 124.579062 
L 125.254844 124.579062 
C 125.254844 124.579062 125.254844 124.579062 125.254844 124.579062 
C 125.254844 124.579062 125.254844 124.579062 125.254844 124.579062 
z
" clip-path="url(#p9e2a1b5a38)" style="fill: #d9d9d9"/>
   </g>
   <g id="patch_35">
    <path d="M 125.254844 124.579062 
C 125.254844 124.579062 125.254844 124.579062 125.254844 124.579062 
C 125.254844 124.579062 125.254844 124.579062 125.254844 124.579062 
L 133.523501 40.625978 
C 130.775591 40.355333 128.01605 40.219765 125.254844 40.219765 
C 122.493638 40.219765 119.734096 40.355333 116.986187 40.625978 
z
" clip-path="url(#p9e2a1b5a38)" style="fill: #a1a1d8"/>
   </g>
   <g id="patch_36">
    <path d="M 125.254844 124.579062 
C 125.254844 124.579062 125.254844 124.579062 125.254844 124.579062 
C 125.254844 124.579062 125.254844 124.579062 125.254844 124.579062 
L 140.260704 75.111372 
C 138.641552 74.620208 136.999262 74.208836 135.339765 73.878741 
C 133.680267 73.548647 132.005564 73.300228 130.321703 73.134382 
z
" clip-path="url(#p9e2a1b5a38)" style="fill: #a1a1d8"/>
   </g>
   <g id="patch_37">
    <path d="M 125.254844 124.579062 
C 125.254844 124.579062 125.254844 124.579062 125.254844 124.579062 
C 125.254844 124.579062 125.254844 124.579062 125.254844 124.579062 
L 149.460906 79.292706 
C 147.978616 78.500405 146.458319 77.781359 144.905508 77.138163 
C 143.352696 76.494968 141.769242 75.928398 140.160863 75.440502 
z
" clip-path="url(#p9e2a1b5a38)" style="fill: #a1a1d8"/>
   </g>
   <g id="patch_38">
    <path d="M 125.254844 124.579062 
C 125.254844 124.579062 125.254844 124.579062 125.254844 124.579062 
C 125.254844 124.579062 125.254844 124.579062 125.254844 124.579062 
L 136.956445 110.32062 
C 136.489745 109.937609 136.004521 109.577743 135.502527 109.242321 
C 135.000532 108.906899 134.482372 108.596326 133.949918 108.311723 
z
" clip-path="url(#p9e2a1b5a38)" style="fill: #a1a1d8"/>
   </g>
   <g id="patch_39">
    <path d="M 125.254844 124.579062 
C 125.254844 124.579062 125.254844 124.579062 125.254844 124.579062 
C 125.254844 124.579062 125.254844 124.579062 125.254844 124.579062 
L 143.547004 109.567075 
C 143.055639 108.968345 142.535175 108.394101 141.98749 107.846416 
C 141.439806 107.298732 140.865561 106.778267 140.266832 106.286902 
z
" clip-path="url(#p9e2a1b5a38)" style="fill: #a1a1d8"/>
   </g>
   <g id="patch_40">
    <path d="M 125.254844 124.579062 
C 125.254844 124.579062 125.254844 124.579062 125.254844 124.579062 
C 125.254844 124.579062 125.254844 124.579062 125.254844 124.579062 
L 172.008708 99.588601 
C 171.190733 98.058278 170.298116 96.569037 169.334082 95.126257 
C 168.370048 93.683478 167.335758 92.2889 166.234949 90.94756 
z
" clip-path="url(#p9e2a1b5a38)" style="fill: #a1a1d8"/>
   </g>
   <g id="patch_41">
    <path d="M 125.254844 124.579062 
C 125.254844 124.579062 125.254844 124.579062 125.254844 124.579062 
C 125.254844 124.579062 125.254844 124.579062 125.254844 124.579062 
L 154.581253 115.682993 
C 154.290072 114.723096 153.951937 113.778074 153.568071 112.85134 
C 153.184205 111.924605 152.755071 111.017277 152.282217 110.13263 
z
" clip-path="url(#p9e2a1b5a38)" style="fill: #a1a1d8"/>
   </g>
   <g id="patch_42">
    <path d="M 125.254844 124.579062 
C 125.254844 124.579062 125.254844 124.579062 125.254844 124.579062 
C 125.254844 124.579062 125.254844 124.579062 125.254844 124.579062 
L 146.033017 122.532591 
C 145.966033 121.85249 145.865698 121.176088 145.732375 120.505828 
C 145.599052 119.835568 145.432901 119.172258 145.234523 118.518293 
z
" clip-path="url(#p9e2a1b5a38)" style="fill: #a1a1d8"/>
   </g>
   <g id="patch_43">
    <path d="M 125.254844 124.579062 
C 125.254844 124.579062 125.254844 124.579062 125.254844 124.579062 
C 125.254844 124.579062 125.254844 124.579062 125.254844 124.579062 
L 154.99581 127.508292 
C 155.091688 126.534826 155.139714 125.557239 155.139714 124.579062 
C 155.139714 123.600886 155.091688 122.623299 154.99581 121.649833 
z
" clip-path="url(#p9e2a1b5a38)" style="fill: #a1a1d8"/>
   </g>
   <g id="patch_44">
    <path d="M 125.254844 124.579062 
C 125.254844 124.579062 125.254844 124.579062 125.254844 124.579062 
C 125.254844 124.579062 125.254844 124.579062 125.254844 124.579062 
L 125.254844 124.579062 
C 125.254844 124.579062 125.254844 124.579062 125.254844 124.579062 
C 125.254844 124.579062 125.254844 124.579062 125.254844 124.579062 
z
" clip-path="url(#p9e2a1b5a38)" style="fill: #a1a1d8"/>
   </g>
   <g id="patch_45">
    <path d="M 125.254844 124.579062 
C 125.254844 124.579062 125.254844 124.579062 125.254844 124.579062 
C 125.254844 124.579062 125.254844 124.579062 125.254844 124.579062 
L 125.254844 124.579062 
C 125.254844 124.579062 125.254844 124.579062 125.254844 124.579062 
C 125.254844 124.579062 125.254844 124.579062 125.254844 124.579062 
z
" clip-path="url(#p9e2a1b5a38)" style="fill: #a1a1d8"/>
   </g>
   <g id="patch_46">
    <path d="M 125.254844 124.579062 
C 125.254844 124.579062 125.254844 124.579062 125.254844 124.579062 
C 125.254844 124.579062 125.254844 124.579062 125.254844 124.579062 
L 125.254844 124.579062 
C 125.254844 124.579062 125.254844 124.579062 125.254844 124.579062 
C 125.254844 124.579062 125.254844 124.579062 125.254844 124.579062 
z
" clip-path="url(#p9e2a1b5a38)" style="fill: #a1a1d8"/>
   </g>
   <g id="patch_47">
    <path d="M 125.254844 124.579062 
C 125.254844 124.579062 125.254844 124.579062 125.254844 124.579062 
C 125.254844 124.579062 125.254844 124.579062 125.254844 124.579062 
L 132.519424 133.430979 
C 132.809161 133.193199 133.087048 132.941336 133.352083 132.676302 
C 133.617118 132.411267 133.86898 132.133379 134.106761 131.843643 
z
" clip-path="url(#p9e2a1b5a38)" style="fill: #a1a1d8"/>
   </g>
   <g id="patch_48">
    <path d="M 125.254844 124.579062 
C 125.254844 124.579062 125.254844 124.579062 125.254844 124.579062 
C 125.254844 124.579062 125.254844 124.579062 125.254844 124.579062 
L 125.254844 124.579062 
C 125.254844 124.579062 125.254844 124.579062 125.254844 124.579062 
C 125.254844 124.579062 125.254844 124.579062 125.254844 124.579062 
z
" clip-path="url(#p9e2a1b5a38)" style="fill: #a1a1d8"/>
   </g>
   <g id="patch_49">
    <path d="M 125.254844 124.579062 
C 125.254844 124.579062 125.254844 124.579062 125.254844 124.579062 
C 125.254844 124.579062 125.254844 124.579062 125.254844 124.579062 
L 125.254844 124.579062 
C 125.254844 124.579062 125.254844 124.579062 125.254844 124.579062 
C 125.254844 124.579062 125.254844 124.579062 125.254844 124.579062 
z
" clip-path="url(#p9e2a1b5a38)" style="fill: #a1a1d8"/>
   </g>
   <g id="patch_50">
    <path d="M 125.254844 124.579062 
C 125.254844 124.579062 125.254844 124.579062 125.254844 124.579062 
C 125.254844 124.579062 125.254844 124.579062 125.254844 124.579062 
L 125.254844 124.579062 
C 125.254844 124.579062 125.254844 124.579062 125.254844 124.579062 
C 125.254844 124.579062 125.254844 124.579062 125.254844 124.579062 
z
" clip-path="url(#p9e2a1b5a38)" style="fill: #a1a1d8"/>
   </g>
   <g id="patch_51">
    <path d="M 125.254844 124.579062 
C 125.254844 124.579062 125.254844 124.579062 125.254844 124.579062 
C 125.254844 124.579062 125.254844 124.579062 125.254844 124.579062 
L 125.254844 124.579062 
C 125.254844 124.579062 125.254844 124.579062 125.254844 124.579062 
C 125.254844 124.579062 125.254844 124.579062 125.254844 124.579062 
z
" clip-path="url(#p9e2a1b5a38)" style="fill: #a1a1d8"/>
   </g>
   <g id="patch_52">
    <path d="M 125.254844 124.579062 
C 125.254844 124.579062 125.254844 124.579062 125.254844 124.579062 
C 125.254844 124.579062 125.254844 124.579062 125.254844 124.579062 
L 125.254844 124.579062 
C 125.254844 124.579062 125.254844 124.579062 125.254844 124.579062 
C 125.254844 124.579062 125.254844 124.579062 125.254844 124.579062 
z
" clip-path="url(#p9e2a1b5a38)" style="fill: #a1a1d8"/>
   </g>
   <g id="patch_53">
    <path d="M 125.254844 124.579062 
C 125.254844 124.579062 125.254844 124.579062 125.254844 124.579062 
C 125.254844 124.579062 125.254844 124.579062 125.254844 124.579062 
L 125.254844 124.579062 
C 125.254844 124.579062 125.254844 124.579062 125.254844 124.579062 
C 125.254844 124.579062 125.254844 124.579062 125.254844 124.579062 
z
" clip-path="url(#p9e2a1b5a38)" style="fill: #a1a1d8"/>
   </g>
   <g id="patch_54">
    <path d="M 125.254844 124.579062 
C 125.254844 124.579062 125.254844 124.579062 125.254844 124.579062 
C 125.254844 124.579062 125.254844 124.579062 125.254844 124.579062 
L 125.254844 124.579062 
C 125.254844 124.579062 125.254844 124.579062 125.254844 124.579062 
C 125.254844 124.579062 125.254844 124.579062 125.254844 124.579062 
z
" clip-path="url(#p9e2a1b5a38)" style="fill: #a1a1d8"/>
   </g>
   <g id="patch_55">
    <path d="M 125.254844 124.579062 
C 125.254844 124.579062 125.254844 124.579062 125.254844 124.579062 
C 125.254844 124.579062 125.254844 124.579062 125.254844 124.579062 
L 108.283903 138.506753 
C 108.739777 139.062238 109.22265 139.595005 109.730776 140.103131 
C 110.238901 140.611257 110.771669 141.094129 111.327153 141.550003 
z
" clip-path="url(#p9e2a1b5a38)" style="fill: #a1a1d8"/>
   </g>
   <g id="patch_56">
    <path d="M 125.254844 124.579062 
C 125.254844 124.579062 125.254844 124.579062 125.254844 124.579062 
C 125.254844 124.579062 125.254844 124.579062 125.254844 124.579062 
L 125.254844 124.579062 
C 125.254844 124.579062 125.254844 124.579062 125.254844 124.579062 
C 125.254844 124.579062 125.254844 124.579062 125.254844 124.579062 
z
" clip-path="url(#p9e2a1b5a38)" style="fill: #a1a1d8"/>
   </g>
   <g id="patch_57">
    <path d="M 125.254844 124.579062 
C 125.254844 124.579062 125.254844 124.579062 125.254844 124.579062 
C 125.254844 124.579062 125.254844 124.579062 125.254844 124.579062 
L 90.602165 135.090838 
C 90.946231 136.225072 91.345777 137.341729 91.799361 138.436777 
C 92.252945 139.531825 92.760019 140.603943 93.318752 141.649259 
z
" clip-path="url(#p9e2a1b5a38)" style="fill: #a1a1d8"/>
   </g>
   <g id="patch_58">
    <path d="M 125.254844 124.579062 
C 125.254844 124.579062 125.254844 124.579062 125.254844 124.579062 
C 125.254844 124.579062 125.254844 124.579062 125.254844 124.579062 
L 76.615831 129.369587 
C 76.772632 130.961615 77.007503 132.544984 77.319595 134.113976 
C 77.631687 135.682969 78.020624 137.235692 78.485001 138.766539 
z
" clip-path="url(#p9e2a1b5a38)" style="fill: #a1a1d8"/>
   </g>
   <g id="patch_59">
    <path d="M 125.254844 124.579062 
C 125.254844 124.579062 125.254844 124.579062 125.254844 124.579062 
C 125.254844 124.579062 125.254844 124.579062 125.254844 124.579062 
L 77.050766 119.831375 
C 76.895367 121.409167 76.817527 122.993637 76.817527 124.579062 
C 76.817527 126.164488 76.895367 127.748958 77.050766 129.32675 
z
" clip-path="url(#p9e2a1b5a38)" style="fill: #a1a1d8"/>
   </g>
   <g id="patch_60">
    <path d="M 125.254844 124.579062 
C 125.254844 124.579062 125.254844 124.579062 125.254844 124.579062 
C 125.254844 124.579062 125.254844 124.579062 125.254844 124.579062 
L 86.323949 112.769505 
C 85.937405 114.043771 85.613656 115.336248 85.353873 116.642266 
C 85.09409 117.948284 84.898585 119.26627 84.768065 120.591463 
z
" clip-path="url(#p9e2a1b5a38)" style="fill: #a1a1d8"/>
   </g>
   <g id="patch_61">
    <path d="M 125.254844 124.579062 
C 125.254844 124.579062 125.254844 124.579062 125.254844 124.579062 
C 125.254844 124.579062 125.254844 124.579062 125.254844 124.579062 
L 60.567875 90.003157 
C 59.436154 92.120458 58.409069 94.292048 57.490329 96.510082 
C 56.57159 98.728115 55.762303 100.98992 55.065393 103.287325 
z
" clip-path="url(#p9e2a1b5a38)" style="fill: #a1a1d8"/>
   </g>
   <g id="patch_62">
    <path d="M 125.254844 124.579062 
C 125.254844 124.579062 125.254844 124.579062 125.254844 124.579062 
C 125.254844 124.579062 125.254844 124.579062 125.254844 124.579062 
L 94.938186 99.698825 
C 94.123819 100.691134 93.358662 101.722829 92.64548 102.790182 
C 91.932297 103.857535 91.271948 104.95926 90.666819 106.091378 
z
" clip-path="url(#p9e2a1b5a38)" style="fill: #a1a1d8"/>
   </g>
   <g id="patch_63">
    <path d="M 125.254844 124.579062 
C 125.254844 124.579062 125.254844 124.579062 125.254844 124.579062 
C 125.254844 124.579062 125.254844 124.579062 125.254844 124.579062 
L 109.729078 105.660863 
C 109.109857 106.169044 108.51596 106.707321 107.949531 107.27375 
C 107.383103 107.840179 106.844825 108.434076 106.336644 109.053297 
z
" clip-path="url(#p9e2a1b5a38)" style="fill: #a1a1d8"/>
   </g>
   <g id="patch_64">
    <path d="M 125.254844 124.579062 
C 125.254844 124.579062 125.254844 124.579062 125.254844 124.579062 
C 125.254844 124.579062 125.254844 124.579062 125.254844 124.579062 
L 113.684077 102.931681 
C 112.975526 103.310409 112.285997 103.723698 111.617979 104.170053 
C 110.949962 104.616407 110.304262 105.095291 109.683212 105.604974 
z
" clip-path="url(#p9e2a1b5a38)" style="fill: #a1a1d8"/>
   </g>
   <g id="patch_65">
    <path d="M 125.254844 124.579062 
C 125.254844 124.579062 125.254844 124.579062 125.254844 124.579062 
C 125.254844 124.579062 125.254844 124.579062 125.254844 124.579062 
L 108.571498 69.581441 
C 106.771343 70.127512 104.999085 70.761636 103.261123 71.481524 
C 101.523161 72.201411 99.821592 73.006194 98.16256 73.892965 
z
" clip-path="url(#p9e2a1b5a38)" style="fill: #a1a1d8"/>
   </g>
   <g id="patch_66">
    <path d="M 125.254844 124.579062 
C 125.254844 124.579062 125.254844 124.579062 125.254844 124.579062 
C 125.254844 124.579062 125.254844 124.579062 125.254844 124.579062 
L 117.818728 49.078911 
C 115.347495 49.322306 112.889702 49.686885 110.454226 50.171332 
C 108.01875 50.655778 105.608527 51.259508 103.232262 51.98034 
z
" clip-path="url(#p9e2a1b5a38)" style="fill: #a1a1d8"/>
   </g>
   <g id="patch_67">
    <path d="M 116.986187 40.625978 
C 119.734096 40.355333 122.493638 40.219765 125.254844 40.219765 
C 128.01605 40.219765 130.775591 40.355333 133.523501 40.625978 
L 135.606301 19.478952 
C 132.166218 19.140133 128.711572 18.970418 125.254844 18.970418 
C 121.798115 18.970418 118.34347 19.140133 114.903386 19.478952 
z
" clip-path="url(#p9e2a1b5a38)" style="fill: #ff8c8e"/>
   </g>
   <g id="patch_68">
    <path d="M 130.321703 73.134382 
C 132.005564 73.300228 133.680267 73.548647 135.339765 73.878741 
C 136.999262 74.208836 138.641552 74.620208 140.260704 75.111372 
L 146.171585 55.625808 
C 143.914642 54.941172 141.625445 54.367758 139.312264 53.907638 
C 136.999083 53.447517 134.664705 53.101245 132.317563 52.870072 
z
" clip-path="url(#p9e2a1b5a38)" style="fill: #ff8c8e"/>
   </g>
   <g id="patch_69">
    <path d="M 140.160863 75.440502 
C 141.769242 75.928398 143.352696 76.494968 144.905508 77.138163 
C 146.458319 77.781359 147.978616 78.500405 149.460906 79.292706 
L 154.48644 69.890592 
C 152.696405 68.933798 150.860473 68.065467 148.985275 67.288734 
C 147.110077 66.512002 145.197874 65.827805 143.255572 65.238614 
z
" clip-path="url(#p9e2a1b5a38)" style="fill: #ff8c8e"/>
   </g>
   <g id="patch_70">
    <path d="M 133.949918 108.311723 
C 134.482372 108.596326 135.000532 108.906899 135.502527 109.242321 
C 136.004521 109.577743 136.489745 109.937609 136.956445 110.32062 
L 177.449537 60.979645 
C 175.367833 59.271235 173.203506 57.66606 170.964372 56.169919 
C 168.725239 54.673778 166.413999 53.288474 164.039 52.01901 
z
" clip-path="url(#p9e2a1b5a38)" style="fill: #ff8c8e"/>
   </g>
   <g id="patch_71">
    <path d="M 140.266832 106.286902 
C 140.865561 106.778267 141.439806 107.298732 141.98749 107.846416 
C 142.535175 108.394101 143.055639 108.968345 143.547004 109.567075 
L 181.578698 78.35527 
C 180.065724 76.511706 178.463149 74.743536 176.77676 73.057147 
C 175.09037 71.370757 173.3222 69.768182 171.478637 68.255208 
z
" clip-path="url(#p9e2a1b5a38)" style="fill: #ff8c8e"/>
   </g>
   <g id="patch_72">
    <path d="M 166.234949 90.94756 
C 167.335758 92.2889 168.370048 93.683478 169.334082 95.126257 
C 170.298116 96.569037 171.190733 98.058278 172.008708 99.588601 
L 185.070967 92.606679 
C 184.024463 90.648808 182.882464 88.743497 181.649094 86.897629 
C 180.415725 85.051761 179.092471 83.267561 177.684114 81.551472 
z
" clip-path="url(#p9e2a1b5a38)" style="fill: #ff8c8e"/>
   </g>
   <g id="patch_73">
    <path d="M 152.282217 110.13263 
C 152.755071 111.017277 153.184205 111.924605 153.568071 112.85134 
C 153.951937 113.778074 154.290072 114.723096 154.581253 115.682993 
L 154.581253 115.682993 
C 154.290072 114.723096 153.951937 113.778074 153.568071 112.85134 
C 153.184205 111.924605 152.755071 111.017277 152.282217 110.13263 
z
" clip-path="url(#p9e2a1b5a38)" style="fill: #ff8c8e"/>
   </g>
   <g id="patch_74">
    <path d="M 145.234523 118.518293 
C 145.432901 119.172258 145.599052 119.835568 145.732375 120.505828 
C 145.865698 121.176088 145.966033 121.85249 146.033017 122.532591 
L 147.422451 122.395744 
C 147.350988 121.670165 147.243944 120.948532 147.101705 120.233452 
C 146.959467 119.518371 146.782206 118.810705 146.570562 118.11301 
z
" clip-path="url(#p9e2a1b5a38)" style="fill: #ff8c8e"/>
   </g>
   <g id="patch_75">
    <path d="M 154.99581 121.649833 
C 155.091688 122.623299 155.139714 123.600886 155.139714 124.579062 
C 155.139714 125.557239 155.091688 126.534826 154.99581 127.508292 
L 154.99581 127.508292 
C 155.091688 126.534826 155.139714 125.557239 155.139714 124.579062 
C 155.139714 123.600886 155.091688 122.623299 154.99581 121.649833 
z
" clip-path="url(#p9e2a1b5a38)" style="fill: #ff8c8e"/>
   </g>
   <g id="patch_76">
    <path d="M 125.254844 124.579062 
C 125.254844 124.579062 125.254844 124.579062 125.254844 124.579062 
C 125.254844 124.579062 125.254844 124.579062 125.254844 124.579062 
L 125.254844 124.579062 
C 125.254844 124.579062 125.254844 124.579062 125.254844 124.579062 
C 125.254844 124.579062 125.254844 124.579062 125.254844 124.579062 
z
" clip-path="url(#p9e2a1b5a38)" style="fill: #ff8c8e"/>
   </g>
   <g id="patch_77">
    <path d="M 125.254844 124.579062 
C 125.254844 124.579062 125.254844 124.579062 125.254844 124.579062 
C 125.254844 124.579062 125.254844 124.579062 125.254844 124.579062 
L 125.254844 124.579062 
C 125.254844 124.579062 125.254844 124.579062 125.254844 124.579062 
C 125.254844 124.579062 125.254844 124.579062 125.254844 124.579062 
z
" clip-path="url(#p9e2a1b5a38)" style="fill: #ff8c8e"/>
   </g>
   <g id="patch_78">
    <path d="M 125.254844 124.579062 
C 125.254844 124.579062 125.254844 124.579062 125.254844 124.579062 
C 125.254844 124.579062 125.254844 124.579062 125.254844 124.579062 
L 125.254844 124.579062 
C 125.254844 124.579062 125.254844 124.579062 125.254844 124.579062 
C 125.254844 124.579062 125.254844 124.579062 125.254844 124.579062 
z
" clip-path="url(#p9e2a1b5a38)" style="fill: #ff8c8e"/>
   </g>
   <g id="patch_79">
    <path d="M 134.106761 131.843643 
C 133.86898 132.133379 133.617118 132.411267 133.352083 132.676302 
C 133.087048 132.941336 132.809161 133.193199 132.519424 133.430979 
L 132.519424 133.430979 
C 132.809161 133.193199 133.087048 132.941336 133.352083 132.676302 
C 133.617118 132.411267 133.86898 132.133379 134.106761 131.843643 
z
" clip-path="url(#p9e2a1b5a38)" style="fill: #ff8c8e"/>
   </g>
   <g id="patch_80">
    <path d="M 125.254844 124.579062 
C 125.254844 124.579062 125.254844 124.579062 125.254844 124.579062 
C 125.254844 124.579062 125.254844 124.579062 125.254844 124.579062 
L 125.254844 124.579062 
C 125.254844 124.579062 125.254844 124.579062 125.254844 124.579062 
C 125.254844 124.579062 125.254844 124.579062 125.254844 124.579062 
z
" clip-path="url(#p9e2a1b5a38)" style="fill: #ff8c8e"/>
   </g>
   <g id="patch_81">
    <path d="M 125.254844 124.579062 
C 125.254844 124.579062 125.254844 124.579062 125.254844 124.579062 
C 125.254844 124.579062 125.254844 124.579062 125.254844 124.579062 
L 125.254844 124.579062 
C 125.254844 124.579062 125.254844 124.579062 125.254844 124.579062 
C 125.254844 124.579062 125.254844 124.579062 125.254844 124.579062 
z
" clip-path="url(#p9e2a1b5a38)" style="fill: #ff8c8e"/>
   </g>
   <g id="patch_82">
    <path d="M 125.254844 124.579062 
C 125.254844 124.579062 125.254844 124.579062 125.254844 124.579062 
C 125.254844 124.579062 125.254844 124.579062 125.254844 124.579062 
L 125.254844 124.579062 
C 125.254844 124.579062 125.254844 124.579062 125.254844 124.579062 
C 125.254844 124.579062 125.254844 124.579062 125.254844 124.579062 
z
" clip-path="url(#p9e2a1b5a38)" style="fill: #ff8c8e"/>
   </g>
   <g id="patch_83">
    <path d="M 125.254844 124.579062 
C 125.254844 124.579062 125.254844 124.579062 125.254844 124.579062 
C 125.254844 124.579062 125.254844 124.579062 125.254844 124.579062 
L 125.254844 124.579062 
C 125.254844 124.579062 125.254844 124.579062 125.254844 124.579062 
C 125.254844 124.579062 125.254844 124.579062 125.254844 124.579062 
z
" clip-path="url(#p9e2a1b5a38)" style="fill: #ff8c8e"/>
   </g>
   <g id="patch_84">
    <path d="M 125.254844 124.579062 
C 125.254844 124.579062 125.254844 124.579062 125.254844 124.579062 
C 125.254844 124.579062 125.254844 124.579062 125.254844 124.579062 
L 125.254844 124.579062 
C 125.254844 124.579062 125.254844 124.579062 125.254844 124.579062 
C 125.254844 124.579062 125.254844 124.579062 125.254844 124.579062 
z
" clip-path="url(#p9e2a1b5a38)" style="fill: #ff8c8e"/>
   </g>
   <g id="patch_85">
    <path d="M 125.254844 124.579062 
C 125.254844 124.579062 125.254844 124.579062 125.254844 124.579062 
C 125.254844 124.579062 125.254844 124.579062 125.254844 124.579062 
L 125.254844 124.579062 
C 125.254844 124.579062 125.254844 124.579062 125.254844 124.579062 
C 125.254844 124.579062 125.254844 124.579062 125.254844 124.579062 
z
" clip-path="url(#p9e2a1b5a38)" style="fill: #ff8c8e"/>
   </g>
   <g id="patch_86">
    <path d="M 125.254844 124.579062 
C 125.254844 124.579062 125.254844 124.579062 125.254844 124.579062 
C 125.254844 124.579062 125.254844 124.579062 125.254844 124.579062 
L 117.990263 133.430979 
C 118.28 133.66876 118.581236 133.892172 118.892884 134.100408 
C 119.204532 134.308645 119.526216 134.501455 119.856773 134.678142 
z
" clip-path="url(#p9e2a1b5a38)" style="fill: #ff8c8e"/>
   </g>
   <g id="patch_87">
    <path d="M 111.327153 141.550003 
C 110.771669 141.094129 110.238901 140.611257 109.730776 140.103131 
C 109.22265 139.595005 108.739777 139.062238 108.283903 138.506753 
L 108.283903 138.506753 
C 108.739777 139.062238 109.22265 139.595005 109.730776 140.103131 
C 110.238901 140.611257 110.771669 141.094129 111.327153 141.550003 
z
" clip-path="url(#p9e2a1b5a38)" style="fill: #ff8c8e"/>
   </g>
   <g id="patch_88">
    <path d="M 125.254844 124.579062 
C 125.254844 124.579062 125.254844 124.579062 125.254844 124.579062 
C 125.254844 124.579062 125.254844 124.579062 125.254844 124.579062 
L 105.680451 135.041794 
C 106.022912 135.682493 106.396623 136.305992 106.800234 136.910039 
C 107.203845 137.514086 107.63687 138.097952 108.097745 138.65953 
z
" clip-path="url(#p9e2a1b5a38)" style="fill: #ff8c8e"/>
   </g>
   <g id="patch_89">
    <path d="M 93.318752 141.649259 
C 92.760019 140.603943 92.252945 139.531825 91.799361 138.436777 
C 91.345777 137.341729 90.946231 136.225072 90.602165 135.090838 
L 84.531221 136.932438 
C 84.935565 138.265383 85.40511 139.577673 85.938159 140.864567 
C 86.471208 142.15146 87.067118 143.411407 87.723738 144.639857 
z
" clip-path="url(#p9e2a1b5a38)" style="fill: #ff8c8e"/>
   </g>
   <g id="patch_90">
    <path d="M 78.485001 138.766539 
C 78.020624 137.235692 77.631687 135.682969 77.319595 134.113976 
C 77.007503 132.544984 76.772632 130.961615 76.615831 129.369587 
L 63.400807 130.671153 
C 63.60021 132.695728 63.898895 134.709293 64.295781 136.704574 
C 64.692667 138.699855 65.187276 140.674448 65.777823 142.621219 
z
" clip-path="url(#p9e2a1b5a38)" style="fill: #ff8c8e"/>
   </g>
   <g id="patch_91">
    <path d="M 77.050766 129.32675 
C 76.895367 127.748958 76.817527 126.164488 76.817527 124.579062 
C 76.817527 122.993637 76.895367 121.409167 77.050766 119.831375 
L 62.695495 118.417504 
C 62.493818 120.465165 62.392797 122.521494 62.392797 124.579062 
C 62.392797 126.636631 62.493818 128.69296 62.695495 130.740621 
z
" clip-path="url(#p9e2a1b5a38)" style="fill: #ff8c8e"/>
   </g>
   <g id="patch_92">
    <path d="M 84.768065 120.591463 
C 84.898585 119.26627 85.09409 117.948284 85.353873 116.642266 
C 85.613656 115.336248 85.937405 114.043771 86.323949 112.769505 
L 23.857041 93.820375 
C 22.850263 97.139277 22.007041 100.505608 21.33042 103.907209 
C 20.6538 107.308811 20.144596 110.741583 19.804649 114.193125 
z
" clip-path="url(#p9e2a1b5a38)" style="fill: #ff8c8e"/>
   </g>
   <g id="patch_93">
    <path d="M 55.065393 103.287325 
C 55.762303 100.98992 56.57159 98.728115 57.490329 96.510082 
C 58.409069 94.292048 59.436154 92.120458 60.567875 90.003157 
L 39.144156 78.551941 
C 37.63762 81.370473 36.270374 84.261272 35.047356 87.213898 
C 33.824338 90.166523 32.747024 93.177416 31.819303 96.235701 
z
" clip-path="url(#p9e2a1b5a38)" style="fill: #ff8c8e"/>
   </g>
   <g id="patch_94">
    <path d="M 90.666819 106.091378 
C 91.271948 104.95926 91.932297 103.857535 92.64548 102.790182 
C 93.358662 101.722829 94.123819 100.691134 94.938186 99.698825 
L 73.27179 81.917673 
C 71.875419 83.619156 70.563428 85.388171 69.340555 87.218329 
C 68.117682 89.048487 66.985403 90.937582 65.947805 92.87879 
z
" clip-path="url(#p9e2a1b5a38)" style="fill: #ff8c8e"/>
   </g>
   <g id="patch_95">
    <path d="M 106.336644 109.053297 
C 106.844825 108.434076 107.383103 107.840179 107.949531 107.27375 
C 108.51596 106.707321 109.109857 106.169044 109.729078 105.660863 
L 85.536857 76.182555 
C 83.952767 77.482584 82.433459 78.859604 80.984423 80.308641 
C 79.535386 81.757678 78.158366 83.276986 76.858337 84.861076 
z
" clip-path="url(#p9e2a1b5a38)" style="fill: #ff8c8e"/>
   </g>
   <g id="patch_96">
    <path d="M 109.683212 105.604974 
C 110.304262 105.095291 110.949962 104.616407 111.617979 104.170053 
C 112.285997 103.723698 112.975526 103.310409 113.684077 102.931681 
L 105.096144 86.864788 
C 103.8617 87.524613 102.660395 88.244647 101.496569 89.022291 
C 100.332742 89.799935 99.207798 90.634251 98.125798 91.522225 
z
" clip-path="url(#p9e2a1b5a38)" style="fill: #ff8c8e"/>
   </g>
   <g id="patch_97">
    <path d="M 98.16256 73.892965 
C 99.821592 73.006194 101.523161 72.201411 103.261123 71.481524 
C 104.999085 70.761636 106.771343 70.127512 108.571498 69.581441 
L 107.146598 64.884178 
C 105.192696 65.476888 103.269071 66.165172 101.382673 66.946543 
C 99.496274 67.727915 97.649376 68.601433 95.848649 69.563942 
z
" clip-path="url(#p9e2a1b5a38)" style="fill: #ff8c8e"/>
   </g>
   <g id="patch_98">
    <path d="M 103.232262 51.98034 
C 105.608527 51.259508 108.01875 50.655778 110.454226 50.171332 
C 112.889702 49.686885 115.347495 49.322306 117.818728 49.078911 
L 115.35912 24.10609 
C 112.070489 24.429992 108.799744 24.915162 105.558697 25.559846 
C 102.31765 26.20453 99.110209 27.007952 95.947959 27.96721 
z
" clip-path="url(#p9e2a1b5a38)" style="fill: #ff8c8e"/>
   </g>
   <g id="patch_99">
    <path d="M 114.903386 19.478952 
C 118.34347 19.140133 121.798115 18.970418 125.254844 18.970418 
C 128.711572 18.970418 132.166218 19.140133 135.606301 19.478952 
L 135.606301 19.478952 
C 132.166218 19.140133 128.711572 18.970418 125.254844 18.970418 
C 121.798115 18.970418 118.34347 19.140133 114.903386 19.478952 
z
" clip-path="url(#p9e2a1b5a38)" style="fill: #828282"/>
   </g>
   <g id="patch_100">
    <path d="M 132.317563 52.870072 
C 134.664705 53.101245 136.999083 53.447517 139.312264 53.907638 
C 141.625445 54.367758 143.914642 54.941172 146.171585 55.625808 
L 146.921978 53.152093 
C 144.584067 52.442895 142.212745 51.84891 139.816578 51.372282 
C 137.42041 50.895655 135.002286 50.53696 132.57094 50.297494 
z
" clip-path="url(#p9e2a1b5a38)" style="fill: #828282"/>
   </g>
   <g id="patch_101">
    <path d="M 143.255572 65.238614 
C 145.197874 65.827805 147.110077 66.512002 148.985275 67.288734 
C 150.860473 68.065467 152.696405 68.933798 154.48644 69.890592 
L 154.48644 69.890592 
C 152.696405 68.933798 150.860473 68.065467 148.985275 67.288734 
C 147.110077 66.512002 145.197874 65.827805 143.255572 65.238614 
z
" clip-path="url(#p9e2a1b5a38)" style="fill: #828282"/>
   </g>
   <g id="patch_102">
    <path d="M 164.039 52.01901 
C 166.413999 53.288474 168.725239 54.673778 170.964372 56.169919 
C 173.203506 57.66606 175.367833 59.271235 177.449537 60.979645 
L 177.449537 60.979645 
C 175.367833 59.271235 173.203506 57.66606 170.964372 56.169919 
C 168.725239 54.673778 166.413999 53.288474 164.039 52.01901 
z
" clip-path="url(#p9e2a1b5a38)" style="fill: #828282"/>
   </g>
   <g id="patch_103">
    <path d="M 171.478637 68.255208 
C 173.3222 69.768182 175.09037 71.370757 176.77676 73.057147 
C 178.463149 74.743536 180.065724 76.511706 181.578698 78.35527 
L 181.710143 78.247396 
C 180.193638 76.39953 178.587322 74.627234 176.896998 72.936909 
C 175.206673 71.246584 173.434376 69.640268 171.58651 68.123764 
z
" clip-path="url(#p9e2a1b5a38)" style="fill: #828282"/>
   </g>
   <g id="patch_104">
    <path d="M 177.684114 81.551472 
C 179.092471 83.267561 180.415725 85.051761 181.649094 86.897629 
C 182.882464 88.743497 184.024463 90.648808 185.070967 92.606679 
L 185.070967 92.606679 
C 184.024463 90.648808 182.882464 88.743497 181.649094 86.897629 
C 180.415725 85.051761 179.092471 83.267561 177.684114 81.551472 
z
" clip-path="url(#p9e2a1b5a38)" style="fill: #828282"/>
   </g>
   <g id="patch_105">
    <path d="M 152.282217 110.13263 
C 152.755071 111.017277 153.184205 111.924605 153.568071 112.85134 
C 153.951937 113.778074 154.290072 114.723096 154.581253 115.682993 
L 154.581253 115.682993 
C 154.290072 114.723096 153.951937 113.778074 153.568071 112.85134 
C 153.184205 111.924605 152.755071 111.017277 152.282217 110.13263 
z
" clip-path="url(#p9e2a1b5a38)" style="fill: #828282"/>
   </g>
   <g id="patch_106">
    <path d="M 146.570562 118.11301 
C 146.782206 118.810705 146.959467 119.518371 147.101705 120.233452 
C 147.243944 120.948532 147.350988 121.670165 147.422451 122.395744 
L 147.422451 122.395744 
C 147.350988 121.670165 147.243944 120.948532 147.101705 120.233452 
C 146.959467 119.518371 146.782206 118.810705 146.570562 118.11301 
z
" clip-path="url(#p9e2a1b5a38)" style="fill: #828282"/>
   </g>
   <g id="patch_107">
    <path d="M 154.99581 121.649833 
C 155.091688 122.623299 155.139714 123.600886 155.139714 124.579062 
C 155.139714 125.557239 155.091688 126.534826 154.99581 127.508292 
L 154.99581 127.508292 
C 155.091688 126.534826 155.139714 125.557239 155.139714 124.579062 
C 155.139714 123.600886 155.091688 122.623299 154.99581 121.649833 
z
" clip-path="url(#p9e2a1b5a38)" style="fill: #828282"/>
   </g>
   <g id="patch_108">
    <path d="M 125.254844 124.579062 
C 125.254844 124.579062 125.254844 124.579062 125.254844 124.579062 
C 125.254844 124.579062 125.254844 124.579062 125.254844 124.579062 
L 125.254844 124.579062 
C 125.254844 124.579062 125.254844 124.579062 125.254844 124.579062 
C 125.254844 124.579062 125.254844 124.579062 125.254844 124.579062 
z
" clip-path="url(#p9e2a1b5a38)" style="fill: #828282"/>
   </g>
   <g id="patch_109">
    <path d="M 125.254844 124.579062 
C 125.254844 124.579062 125.254844 124.579062 125.254844 124.579062 
C 125.254844 124.579062 125.254844 124.579062 125.254844 124.579062 
L 125.254844 124.579062 
C 125.254844 124.579062 125.254844 124.579062 125.254844 124.579062 
C 125.254844 124.579062 125.254844 124.579062 125.254844 124.579062 
z
" clip-path="url(#p9e2a1b5a38)" style="fill: #828282"/>
   </g>
   <g id="patch_110">
    <path d="M 125.254844 124.579062 
C 125.254844 124.579062 125.254844 124.579062 125.254844 124.579062 
C 125.254844 124.579062 125.254844 124.579062 125.254844 124.579062 
L 125.254844 124.579062 
C 125.254844 124.579062 125.254844 124.579062 125.254844 124.579062 
C 125.254844 124.579062 125.254844 124.579062 125.254844 124.579062 
z
" clip-path="url(#p9e2a1b5a38)" style="fill: #828282"/>
   </g>
   <g id="patch_111">
    <path d="M 134.106761 131.843643 
C 133.86898 132.133379 133.617118 132.411267 133.352083 132.676302 
C 133.087048 132.941336 132.809161 133.193199 132.519424 133.430979 
L 132.519424 133.430979 
C 132.809161 133.193199 133.087048 132.941336 133.352083 132.676302 
C 133.617118 132.411267 133.86898 132.133379 134.106761 131.843643 
z
" clip-path="url(#p9e2a1b5a38)" style="fill: #828282"/>
   </g>
   <g id="patch_112">
    <path d="M 125.254844 124.579062 
C 125.254844 124.579062 125.254844 124.579062 125.254844 124.579062 
C 125.254844 124.579062 125.254844 124.579062 125.254844 124.579062 
L 125.254844 124.579062 
C 125.254844 124.579062 125.254844 124.579062 125.254844 124.579062 
C 125.254844 124.579062 125.254844 124.579062 125.254844 124.579062 
z
" clip-path="url(#p9e2a1b5a38)" style="fill: #828282"/>
   </g>
   <g id="patch_113">
    <path d="M 125.254844 124.579062 
C 125.254844 124.579062 125.254844 124.579062 125.254844 124.579062 
C 125.254844 124.579062 125.254844 124.579062 125.254844 124.579062 
L 125.254844 124.579062 
C 125.254844 124.579062 125.254844 124.579062 125.254844 124.579062 
C 125.254844 124.579062 125.254844 124.579062 125.254844 124.579062 
z
" clip-path="url(#p9e2a1b5a38)" style="fill: #828282"/>
   </g>
   <g id="patch_114">
    <path d="M 125.254844 124.579062 
C 125.254844 124.579062 125.254844 124.579062 125.254844 124.579062 
C 125.254844 124.579062 125.254844 124.579062 125.254844 124.579062 
L 125.254844 124.579062 
C 125.254844 124.579062 125.254844 124.579062 125.254844 124.579062 
C 125.254844 124.579062 125.254844 124.579062 125.254844 124.579062 
z
" clip-path="url(#p9e2a1b5a38)" style="fill: #828282"/>
   </g>
   <g id="patch_115">
    <path d="M 125.254844 124.579062 
C 125.254844 124.579062 125.254844 124.579062 125.254844 124.579062 
C 125.254844 124.579062 125.254844 124.579062 125.254844 124.579062 
L 125.254844 124.579062 
C 125.254844 124.579062 125.254844 124.579062 125.254844 124.579062 
C 125.254844 124.579062 125.254844 124.579062 125.254844 124.579062 
z
" clip-path="url(#p9e2a1b5a38)" style="fill: #828282"/>
   </g>
   <g id="patch_116">
    <path d="M 125.254844 124.579062 
C 125.254844 124.579062 125.254844 124.579062 125.254844 124.579062 
C 125.254844 124.579062 125.254844 124.579062 125.254844 124.579062 
L 125.254844 124.579062 
C 125.254844 124.579062 125.254844 124.579062 125.254844 124.579062 
C 125.254844 124.579062 125.254844 124.579062 125.254844 124.579062 
z
" clip-path="url(#p9e2a1b5a38)" style="fill: #828282"/>
   </g>
   <g id="patch_117">
    <path d="M 125.254844 124.579062 
C 125.254844 124.579062 125.254844 124.579062 125.254844 124.579062 
C 125.254844 124.579062 125.254844 124.579062 125.254844 124.579062 
L 125.254844 124.579062 
C 125.254844 124.579062 125.254844 124.579062 125.254844 124.579062 
C 125.254844 124.579062 125.254844 124.579062 125.254844 124.579062 
z
" clip-path="url(#p9e2a1b5a38)" style="fill: #828282"/>
   </g>
   <g id="patch_118">
    <path d="M 119.856773 134.678142 
C 119.526216 134.501455 119.204532 134.308645 118.892884 134.100408 
C 118.581236 133.892172 118.28 133.66876 117.990263 133.430979 
L 117.990263 133.430979 
C 118.28 133.66876 118.581236 133.892172 118.892884 134.100408 
C 119.204532 134.308645 119.526216 134.501455 119.856773 134.678142 
z
" clip-path="url(#p9e2a1b5a38)" style="fill: #828282"/>
   </g>
   <g id="patch_119">
    <path d="M 111.327153 141.550003 
C 110.771669 141.094129 110.238901 140.611257 109.730776 140.103131 
C 109.22265 139.595005 108.739777 139.062238 108.283903 138.506753 
L 108.283903 138.506753 
C 108.739777 139.062238 109.22265 139.595005 109.730776 140.103131 
C 110.238901 140.611257 110.771669 141.094129 111.327153 141.550003 
z
" clip-path="url(#p9e2a1b5a38)" style="fill: #828282"/>
   </g>
   <g id="patch_120">
    <path d="M 108.097745 138.65953 
C 107.63687 138.097952 107.203845 137.514086 106.800234 136.910039 
C 106.396623 136.305992 106.022912 135.682493 105.680451 135.041794 
L 105.680451 135.041794 
C 106.022912 135.682493 106.396623 136.305992 106.800234 136.910039 
C 107.203845 137.514086 107.63687 138.097952 108.097745 138.65953 
z
" clip-path="url(#p9e2a1b5a38)" style="fill: #828282"/>
   </g>
   <g id="patch_121">
    <path d="M 87.723738 144.639857 
C 87.067118 143.411407 86.471208 142.15146 85.938159 140.864567 
C 85.40511 139.577673 84.935565 138.265383 84.531221 136.932438 
L 84.531221 136.932438 
C 84.935565 138.265383 85.40511 139.577673 85.938159 140.864567 
C 86.471208 142.15146 87.067118 143.411407 87.723738 144.639857 
z
" clip-path="url(#p9e2a1b5a38)" style="fill: #828282"/>
   </g>
   <g id="patch_122">
    <path d="M 65.777823 142.621219 
C 65.187276 140.674448 64.692667 138.699855 64.295781 136.704574 
C 63.898895 134.709293 63.60021 132.695728 63.400807 130.671153 
L 63.400807 130.671153 
C 63.60021 132.695728 63.898895 134.709293 64.295781 136.704574 
C 64.692667 138.699855 65.187276 140.674448 65.777823 142.621219 
z
" clip-path="url(#p9e2a1b5a38)" style="fill: #828282"/>
   </g>
   <g id="patch_123">
    <path d="M 62.695495 130.740621 
C 62.493818 128.69296 62.392797 126.636631 62.392797 124.579062 
C 62.392797 122.521494 62.493818 120.465165 62.695495 118.417504 
L 62.695495 118.417504 
C 62.493818 120.465165 62.392797 122.521494 62.392797 124.579062 
C 62.392797 126.636631 62.493818 128.69296 62.695495 130.740621 
z
" clip-path="url(#p9e2a1b5a38)" style="fill: #828282"/>
   </g>
   <g id="patch_124">
    <path d="M 19.804649 114.193125 
C 20.144596 110.741583 20.6538 107.308811 21.33042 103.907209 
C 22.007041 100.505608 22.850263 97.139277 23.857041 93.820375 
L 23.857041 93.820375 
C 22.850263 97.139277 22.007041 100.505608 21.33042 103.907209 
C 20.6538 107.308811 20.144596 110.741583 19.804649 114.193125 
z
" clip-path="url(#p9e2a1b5a38)" style="fill: #828282"/>
   </g>
   <g id="patch_125">
    <path d="M 31.819303 96.235701 
C 32.747024 93.177416 33.824338 90.166523 35.047356 87.213898 
C 36.270374 84.261272 37.63762 81.370473 39.144156 78.551941 
L 39.144156 78.551941 
C 37.63762 81.370473 36.270374 84.261272 35.047356 87.213898 
C 33.824338 90.166523 32.747024 93.177416 31.819303 96.235701 
z
" clip-path="url(#p9e2a1b5a38)" style="fill: #828282"/>
   </g>
   <g id="patch_126">
    <path d="M 65.947805 92.87879 
C 66.985403 90.937582 68.117682 89.048487 69.340555 87.218329 
C 70.563428 85.388171 71.875419 83.619156 73.27179 81.917673 
L 70.668563 79.78126 
C 69.202264 81.56795 67.824571 83.425555 66.540458 85.347365 
C 65.256346 87.269174 64.067364 89.252872 62.977805 91.291292 
z
" clip-path="url(#p9e2a1b5a38)" style="fill: #828282"/>
   </g>
   <g id="patch_127">
    <path d="M 76.858337 84.861076 
C 78.158366 83.276986 79.535386 81.757678 80.984423 80.308641 
C 82.433459 78.859604 83.952767 77.482584 85.536857 76.182555 
L 85.536857 76.182555 
C 83.952767 77.482584 82.433459 78.859604 80.984423 80.308641 
C 79.535386 81.757678 78.158366 83.276986 76.858337 84.861076 
z
" clip-path="url(#p9e2a1b5a38)" style="fill: #828282"/>
   </g>
   <g id="patch_128">
    <path d="M 98.125798 91.522225 
C 99.207798 90.634251 100.332742 89.799935 101.496569 89.022291 
C 102.660395 88.244647 103.8617 87.524613 105.096144 86.864788 
L 103.193503 83.305197 
C 101.842548 84.027298 100.52786 84.815292 99.254188 85.666332 
C 97.980517 86.517372 96.749396 87.430433 95.565274 88.402217 
z
" clip-path="url(#p9e2a1b5a38)" style="fill: #828282"/>
   </g>
   <g id="patch_129">
    <path d="M 95.848649 69.563942 
C 97.649376 68.601433 99.496274 67.727915 101.382673 66.946543 
C 103.269071 66.165172 105.192696 65.476888 107.146598 64.884178 
L 102.31565 48.958674 
C 99.840481 49.709508 97.403669 50.581413 95.014014 51.571241 
C 92.624359 52.561068 90.284742 53.667625 88.003614 54.886913 
z
" clip-path="url(#p9e2a1b5a38)" style="fill: #828282"/>
   </g>
   <g id="patch_130">
    <path d="M 95.947959 27.96721 
C 99.110209 27.007952 102.31765 26.20453 105.558697 25.559846 
C 108.799744 24.915162 112.070489 24.429992 115.35912 24.10609 
L 114.386702 14.23297 
C 110.77491 14.588701 107.18276 15.121546 103.623227 15.829581 
C 100.063694 16.537616 96.541069 17.419988 93.068076 18.473509 
z
" clip-path="url(#p9e2a1b5a38)" style="fill: #828282"/>
   </g>
   <g id="patch_131">
    <path d="M 125.254844 124.579062 
C 125.254844 124.579062 125.254844 124.579062 125.254844 124.579062 
C 125.254844 124.579062 125.254844 124.579062 125.254844 124.579062 
L 135.606301 19.478952 
C 132.166218 19.140133 128.711572 18.970418 125.254844 18.970418 
C 121.798115 18.970418 118.34347 19.140133 114.903386 19.478952 
L 125.254844 124.579062 
z
" clip-path="url(#p9e2a1b5a38)" style="fill: none; stroke: #292929; stroke-width: 0.5; stroke-linejoin: miter"/>
   </g>
   <g id="patch_132">
    <path d="M 125.254844 124.579062 
C 125.254844 124.579062 125.254844 124.579062 125.254844 124.579062 
C 125.254844 124.579062 125.254844 124.579062 125.254844 124.579062 
L 146.921978 53.152093 
C 144.584067 52.442895 142.212745 51.84891 139.816578 51.372282 
C 137.42041 50.895655 135.002286 50.53696 132.57094 50.297494 
L 125.254844 124.579062 
z
" clip-path="url(#p9e2a1b5a38)" style="fill: none; stroke: #292929; stroke-width: 0.5; stroke-linejoin: miter"/>
   </g>
   <g id="patch_133">
    <path d="M 125.254844 124.579062 
C 125.254844 124.579062 125.254844 124.579062 125.254844 124.579062 
C 125.254844 124.579062 125.254844 124.579062 125.254844 124.579062 
L 154.48644 69.890592 
C 152.696405 68.933798 150.860473 68.065467 148.985275 67.288734 
C 147.110077 66.512002 145.197874 65.827805 143.255572 65.238614 
L 125.254844 124.579062 
z
" clip-path="url(#p9e2a1b5a38)" style="fill: none; stroke: #292929; stroke-width: 0.5; stroke-linejoin: miter"/>
   </g>
   <g id="patch_134">
    <path d="M 125.254844 124.579062 
C 125.254844 124.579062 125.254844 124.579062 125.254844 124.579062 
C 125.254844 124.579062 125.254844 124.579062 125.254844 124.579062 
L 177.449537 60.979645 
C 175.367833 59.271235 173.203506 57.66606 170.964372 56.169919 
C 168.725239 54.673778 166.413999 53.288474 164.039 52.01901 
L 125.254844 124.579062 
z
" clip-path="url(#p9e2a1b5a38)" style="fill: none; stroke: #292929; stroke-width: 0.5; stroke-linejoin: miter"/>
   </g>
   <g id="patch_135">
    <path d="M 125.254844 124.579062 
C 125.254844 124.579062 125.254844 124.579062 125.254844 124.579062 
C 125.254844 124.579062 125.254844 124.579062 125.254844 124.579062 
L 181.710143 78.247396 
C 180.193638 76.39953 178.587322 74.627234 176.896998 72.936909 
C 175.206673 71.246584 173.434376 69.640268 171.58651 68.123764 
L 125.254844 124.579062 
z
" clip-path="url(#p9e2a1b5a38)" style="fill: none; stroke: #292929; stroke-width: 0.5; stroke-linejoin: miter"/>
   </g>
   <g id="patch_136">
    <path d="M 125.254844 124.579062 
C 125.254844 124.579062 125.254844 124.579062 125.254844 124.579062 
C 125.254844 124.579062 125.254844 124.579062 125.254844 124.579062 
L 185.070967 92.606679 
C 184.024463 90.648808 182.882464 88.743497 181.649094 86.897629 
C 180.415725 85.051761 179.092471 83.267561 177.684114 81.551472 
L 125.254844 124.579062 
z
" clip-path="url(#p9e2a1b5a38)" style="fill: none; stroke: #292929; stroke-width: 0.5; stroke-linejoin: miter"/>
   </g>
   <g id="patch_137">
    <path d="M 125.254844 124.579062 
C 125.254844 124.579062 125.254844 124.579062 125.254844 124.579062 
C 125.254844 124.579062 125.254844 124.579062 125.254844 124.579062 
L 154.581253 115.682993 
C 154.290072 114.723096 153.951937 113.778074 153.568071 112.85134 
C 153.184205 111.924605 152.755071 111.017277 152.282217 110.13263 
L 125.254844 124.579062 
z
" clip-path="url(#p9e2a1b5a38)" style="fill: none; stroke: #292929; stroke-width: 0.5; stroke-linejoin: miter"/>
   </g>
   <g id="patch_138">
    <path d="M 125.254844 124.579062 
C 125.254844 124.579062 125.254844 124.579062 125.254844 124.579062 
C 125.254844 124.579062 125.254844 124.579062 125.254844 124.579062 
L 147.422451 122.395744 
C 147.350988 121.670165 147.243944 120.948532 147.101705 120.233452 
C 146.959467 119.518371 146.782206 118.810705 146.570562 118.11301 
L 125.254844 124.579062 
z
" clip-path="url(#p9e2a1b5a38)" style="fill: none; stroke: #292929; stroke-width: 0.5; stroke-linejoin: miter"/>
   </g>
   <g id="patch_139">
    <path d="M 125.254844 124.579062 
C 125.254844 124.579062 125.254844 124.579062 125.254844 124.579062 
C 125.254844 124.579062 125.254844 124.579062 125.254844 124.579062 
L 154.99581 127.508292 
C 155.091688 126.534826 155.139714 125.557239 155.139714 124.579062 
C 155.139714 123.600886 155.091688 122.623299 154.99581 121.649833 
L 125.254844 124.579062 
z
" clip-path="url(#p9e2a1b5a38)" style="fill: none; stroke: #292929; stroke-width: 0.5; stroke-linejoin: miter"/>
   </g>
   <g id="patch_140">
    <path d="M 125.254844 124.579062 
C 125.254844 124.579062 125.254844 124.579062 125.254844 124.579062 
C 125.254844 124.579062 125.254844 124.579062 125.254844 124.579062 
L 125.254844 124.579062 
C 125.254844 124.579062 125.254844 124.579062 125.254844 124.579062 
C 125.254844 124.579062 125.254844 124.579062 125.254844 124.579062 
L 125.254844 124.579062 
z
" clip-path="url(#p9e2a1b5a38)" style="fill: none; stroke: #292929; stroke-width: 0.5; stroke-linejoin: miter"/>
   </g>
   <g id="patch_141">
    <path d="M 125.254844 124.579062 
C 125.254844 124.579062 125.254844 124.579062 125.254844 124.579062 
C 125.254844 124.579062 125.254844 124.579062 125.254844 124.579062 
L 125.254844 124.579062 
C 125.254844 124.579062 125.254844 124.579062 125.254844 124.579062 
C 125.254844 124.579062 125.254844 124.579062 125.254844 124.579062 
L 125.254844 124.579062 
z
" clip-path="url(#p9e2a1b5a38)" style="fill: none; stroke: #292929; stroke-width: 0.5; stroke-linejoin: miter"/>
   </g>
   <g id="patch_142">
    <path d="M 125.254844 124.579062 
C 125.254844 124.579062 125.254844 124.579062 125.254844 124.579062 
C 125.254844 124.579062 125.254844 124.579062 125.254844 124.579062 
L 125.254844 124.579062 
C 125.254844 124.579062 125.254844 124.579062 125.254844 124.579062 
C 125.254844 124.579062 125.254844 124.579062 125.254844 124.579062 
L 125.254844 124.579062 
z
" clip-path="url(#p9e2a1b5a38)" style="fill: none; stroke: #292929; stroke-width: 0.5; stroke-linejoin: miter"/>
   </g>
   <g id="patch_143">
    <path d="M 125.254844 124.579062 
C 125.254844 124.579062 125.254844 124.579062 125.254844 124.579062 
C 125.254844 124.579062 125.254844 124.579062 125.254844 124.579062 
L 132.519424 133.430979 
C 132.809161 133.193199 133.087048 132.941336 133.352083 132.676302 
C 133.617118 132.411267 133.86898 132.133379 134.106761 131.843643 
L 125.254844 124.579062 
z
" clip-path="url(#p9e2a1b5a38)" style="fill: none; stroke: #292929; stroke-width: 0.5; stroke-linejoin: miter"/>
   </g>
   <g id="patch_144">
    <path d="M 125.254844 124.579062 
C 125.254844 124.579062 125.254844 124.579062 125.254844 124.579062 
C 125.254844 124.579062 125.254844 124.579062 125.254844 124.579062 
L 125.254844 124.579062 
C 125.254844 124.579062 125.254844 124.579062 125.254844 124.579062 
C 125.254844 124.579062 125.254844 124.579062 125.254844 124.579062 
L 125.254844 124.579062 
z
" clip-path="url(#p9e2a1b5a38)" style="fill: none; stroke: #292929; stroke-width: 0.5; stroke-linejoin: miter"/>
   </g>
   <g id="patch_145">
    <path d="M 125.254844 124.579062 
C 125.254844 124.579062 125.254844 124.579062 125.254844 124.579062 
C 125.254844 124.579062 125.254844 124.579062 125.254844 124.579062 
L 125.254844 124.579062 
C 125.254844 124.579062 125.254844 124.579062 125.254844 124.579062 
C 125.254844 124.579062 125.254844 124.579062 125.254844 124.579062 
L 125.254844 124.579062 
z
" clip-path="url(#p9e2a1b5a38)" style="fill: none; stroke: #292929; stroke-width: 0.5; stroke-linejoin: miter"/>
   </g>
   <g id="patch_146">
    <path d="M 125.254844 124.579062 
C 125.254844 124.579062 125.254844 124.579062 125.254844 124.579062 
C 125.254844 124.579062 125.254844 124.579062 125.254844 124.579062 
L 125.254844 124.579062 
C 125.254844 124.579062 125.254844 124.579062 125.254844 124.579062 
C 125.254844 124.579062 125.254844 124.579062 125.254844 124.579062 
L 125.254844 124.579062 
z
" clip-path="url(#p9e2a1b5a38)" style="fill: none; stroke: #292929; stroke-width: 0.5; stroke-linejoin: miter"/>
   </g>
   <g id="patch_147">
    <path d="M 125.254844 124.579062 
C 125.254844 124.579062 125.254844 124.579062 125.254844 124.579062 
C 125.254844 124.579062 125.254844 124.579062 125.254844 124.579062 
L 125.254844 124.579062 
C 125.254844 124.579062 125.254844 124.579062 125.254844 124.579062 
C 125.254844 124.579062 125.254844 124.579062 125.254844 124.579062 
L 125.254844 124.579062 
z
" clip-path="url(#p9e2a1b5a38)" style="fill: none; stroke: #292929; stroke-width: 0.5; stroke-linejoin: miter"/>
   </g>
   <g id="patch_148">
    <path d="M 125.254844 124.579062 
C 125.254844 124.579062 125.254844 124.579062 125.254844 124.579062 
C 125.254844 124.579062 125.254844 124.579062 125.254844 124.579062 
L 125.254844 124.579062 
C 125.254844 124.579062 125.254844 124.579062 125.254844 124.579062 
C 125.254844 124.579062 125.254844 124.579062 125.254844 124.579062 
L 125.254844 124.579062 
z
" clip-path="url(#p9e2a1b5a38)" style="fill: none; stroke: #292929; stroke-width: 0.5; stroke-linejoin: miter"/>
   </g>
   <g id="patch_149">
    <path d="M 125.254844 124.579062 
C 125.254844 124.579062 125.254844 124.579062 125.254844 124.579062 
C 125.254844 124.579062 125.254844 124.579062 125.254844 124.579062 
L 125.254844 124.579062 
C 125.254844 124.579062 125.254844 124.579062 125.254844 124.579062 
C 125.254844 124.579062 125.254844 124.579062 125.254844 124.579062 
L 125.254844 124.579062 
z
" clip-path="url(#p9e2a1b5a38)" style="fill: none; stroke: #292929; stroke-width: 0.5; stroke-linejoin: miter"/>
   </g>
   <g id="patch_150">
    <path d="M 125.254844 124.579062 
C 125.254844 124.579062 125.254844 124.579062 125.254844 124.579062 
C 125.254844 124.579062 125.254844 124.579062 125.254844 124.579062 
L 117.990263 133.430979 
C 118.28 133.66876 118.581236 133.892172 118.892884 134.100408 
C 119.204532 134.308645 119.526216 134.501455 119.856773 134.678142 
L 125.254844 124.579062 
z
" clip-path="url(#p9e2a1b5a38)" style="fill: none; stroke: #292929; stroke-width: 0.5; stroke-linejoin: miter"/>
   </g>
   <g id="patch_151">
    <path d="M 125.254844 124.579062 
C 125.254844 124.579062 125.254844 124.579062 125.254844 124.579062 
C 125.254844 124.579062 125.254844 124.579062 125.254844 124.579062 
L 108.283903 138.506753 
C 108.739777 139.062238 109.22265 139.595005 109.730776 140.103131 
C 110.238901 140.611257 110.771669 141.094129 111.327153 141.550003 
L 125.254844 124.579062 
z
" clip-path="url(#p9e2a1b5a38)" style="fill: none; stroke: #292929; stroke-width: 0.5; stroke-linejoin: miter"/>
   </g>
   <g id="patch_152">
    <path d="M 125.254844 124.579062 
C 125.254844 124.579062 125.254844 124.579062 125.254844 124.579062 
C 125.254844 124.579062 125.254844 124.579062 125.254844 124.579062 
L 105.680451 135.041794 
C 106.022912 135.682493 106.396623 136.305992 106.800234 136.910039 
C 107.203845 137.514086 107.63687 138.097952 108.097745 138.65953 
L 125.254844 124.579062 
z
" clip-path="url(#p9e2a1b5a38)" style="fill: none; stroke: #292929; stroke-width: 0.5; stroke-linejoin: miter"/>
   </g>
   <g id="patch_153">
    <path d="M 125.254844 124.579062 
C 125.254844 124.579062 125.254844 124.579062 125.254844 124.579062 
C 125.254844 124.579062 125.254844 124.579062 125.254844 124.579062 
L 84.531221 136.932438 
C 84.935565 138.265383 85.40511 139.577673 85.938159 140.864567 
C 86.471208 142.15146 87.067118 143.411407 87.723738 144.639857 
L 125.254844 124.579062 
z
" clip-path="url(#p9e2a1b5a38)" style="fill: none; stroke: #292929; stroke-width: 0.5; stroke-linejoin: miter"/>
   </g>
   <g id="patch_154">
    <path d="M 125.254844 124.579062 
C 125.254844 124.579062 125.254844 124.579062 125.254844 124.579062 
C 125.254844 124.579062 125.254844 124.579062 125.254844 124.579062 
L 63.400807 130.671153 
C 63.60021 132.695728 63.898895 134.709293 64.295781 136.704574 
C 64.692667 138.699855 65.187276 140.674448 65.777823 142.621219 
L 125.254844 124.579062 
z
" clip-path="url(#p9e2a1b5a38)" style="fill: none; stroke: #292929; stroke-width: 0.5; stroke-linejoin: miter"/>
   </g>
   <g id="patch_155">
    <path d="M 125.254844 124.579062 
C 125.254844 124.579062 125.254844 124.579062 125.254844 124.579062 
C 125.254844 124.579062 125.254844 124.579062 125.254844 124.579062 
L 62.695495 118.417504 
C 62.493818 120.465165 62.392797 122.521494 62.392797 124.579062 
C 62.392797 126.636631 62.493818 128.69296 62.695495 130.740621 
L 125.254844 124.579062 
z
" clip-path="url(#p9e2a1b5a38)" style="fill: none; stroke: #292929; stroke-width: 0.5; stroke-linejoin: miter"/>
   </g>
   <g id="patch_156">
    <path d="M 125.254844 124.579062 
C 125.254844 124.579062 125.254844 124.579062 125.254844 124.579062 
C 125.254844 124.579062 125.254844 124.579062 125.254844 124.579062 
L 23.857041 93.820375 
C 22.850263 97.139277 22.007041 100.505608 21.33042 103.907209 
C 20.6538 107.308811 20.144596 110.741583 19.804649 114.193125 
L 125.254844 124.579062 
z
" clip-path="url(#p9e2a1b5a38)" style="fill: none; stroke: #292929; stroke-width: 0.5; stroke-linejoin: miter"/>
   </g>
   <g id="patch_157">
    <path d="M 125.254844 124.579062 
C 125.254844 124.579062 125.254844 124.579062 125.254844 124.579062 
C 125.254844 124.579062 125.254844 124.579062 125.254844 124.579062 
L 39.144156 78.551941 
C 37.63762 81.370473 36.270374 84.261272 35.047356 87.213898 
C 33.824338 90.166523 32.747024 93.177416 31.819303 96.235701 
L 125.254844 124.579062 
z
" clip-path="url(#p9e2a1b5a38)" style="fill: none; stroke: #292929; stroke-width: 0.5; stroke-linejoin: miter"/>
   </g>
   <g id="patch_158">
    <path d="M 125.254844 124.579062 
C 125.254844 124.579062 125.254844 124.579062 125.254844 124.579062 
C 125.254844 124.579062 125.254844 124.579062 125.254844 124.579062 
L 70.668563 79.78126 
C 69.202264 81.56795 67.824571 83.425555 66.540458 85.347365 
C 65.256346 87.269174 64.067364 89.252872 62.977805 91.291292 
L 125.254844 124.579062 
z
" clip-path="url(#p9e2a1b5a38)" style="fill: none; stroke: #292929; stroke-width: 0.5; stroke-linejoin: miter"/>
   </g>
   <g id="patch_159">
    <path d="M 125.254844 124.579062 
C 125.254844 124.579062 125.254844 124.579062 125.254844 124.579062 
C 125.254844 124.579062 125.254844 124.579062 125.254844 124.579062 
L 85.536857 76.182555 
C 83.952767 77.482584 82.433459 78.859604 80.984423 80.308641 
C 79.535386 81.757678 78.158366 83.276986 76.858337 84.861076 
L 125.254844 124.579062 
z
" clip-path="url(#p9e2a1b5a38)" style="fill: none; stroke: #292929; stroke-width: 0.5; stroke-linejoin: miter"/>
   </g>
   <g id="patch_160">
    <path d="M 125.254844 124.579062 
C 125.254844 124.579062 125.254844 124.579062 125.254844 124.579062 
C 125.254844 124.579062 125.254844 124.579062 125.254844 124.579062 
L 103.193503 83.305197 
C 101.842548 84.027298 100.52786 84.815292 99.254188 85.666332 
C 97.980517 86.517372 96.749396 87.430433 95.565274 88.402217 
L 125.254844 124.579062 
z
" clip-path="url(#p9e2a1b5a38)" style="fill: none; stroke: #292929; stroke-width: 0.5; stroke-linejoin: miter"/>
   </g>
   <g id="patch_161">
    <path d="M 125.254844 124.579062 
C 125.254844 124.579062 125.254844 124.579062 125.254844 124.579062 
C 125.254844 124.579062 125.254844 124.579062 125.254844 124.579062 
L 102.31565 48.958674 
C 99.840481 49.709508 97.403669 50.581413 95.014014 51.571241 
C 92.624359 52.561068 90.284742 53.667625 88.003614 54.886913 
L 125.254844 124.579062 
z
" clip-path="url(#p9e2a1b5a38)" style="fill: none; stroke: #292929; stroke-width: 0.5; stroke-linejoin: miter"/>
   </g>
   <g id="patch_162">
    <path d="M 125.254844 124.579062 
C 125.254844 124.579062 125.254844 124.579062 125.254844 124.579062 
C 125.254844 124.579062 125.254844 124.579062 125.254844 124.579062 
L 114.386702 14.23297 
C 110.77491 14.588701 107.18276 15.121546 103.623227 15.829581 
C 100.063694 16.537616 96.541069 17.419988 93.068076 18.473509 
L 125.254844 124.579062 
z
" clip-path="url(#p9e2a1b5a38)" style="fill: none; stroke: #292929; stroke-width: 0.5; stroke-linejoin: miter"/>
   </g>
   <g id="PathCollection_1">
    <defs>
     <path id="m6fec1db875" d="M 0.193618 7.414054 
L 0.193618 7.414054 
C 0.054922 7.414054 -0.078235 7.358899 -0.176308 7.260826 
C -0.274381 7.162753 -0.329536 7.029596 -0.329536 6.890901 
L -0.329536 5.365008 
L -1.528416 6.56393 
L -1.528416 6.56393 
C -1.577018 6.612704 -1.634775 6.651408 -1.698366 6.677814 
C -1.761958 6.704221 -1.830141 6.717815 -1.898997 6.717815 
C -1.967853 6.717815 -2.036037 6.704221 -2.099628 6.677814 
C -2.163219 6.651408 -2.220976 6.612704 -2.269578 6.56393 
L -2.269578 6.56393 
C -2.318353 6.515327 -2.357056 6.457571 -2.383463 6.393979 
C -2.409869 6.330388 -2.423463 6.262205 -2.423463 6.193348 
C -2.423463 6.124492 -2.409869 6.056309 -2.383463 5.992718 
C -2.357056 5.929126 -2.318353 5.87137 -2.269578 5.822767 
L -0.329536 3.884106 
L -0.329536 0.820937 
L -2.98067 2.351538 
L -3.691824 5.001416 
L -3.691824 5.001416 
C -3.727584 5.135411 -3.815199 5.249836 -3.93523 5.319305 
C -4.055261 5.388775 -4.198123 5.407741 -4.332122 5.371997 
L -4.332122 5.371997 
C -4.466126 5.336237 -4.580558 5.248616 -4.650029 5.128576 
C -4.719499 5.008535 -4.73846 4.865662 -4.702703 4.731657 
L -4.262647 3.092721 
L -5.585535 3.855668 
L -5.585535 3.855668 
C -5.645013 3.890144 -5.710708 3.912561 -5.778854 3.921634 
C -5.847001 3.930706 -5.916272 3.926258 -5.982698 3.908543 
C -6.049125 3.890828 -6.111412 3.860192 -6.165991 3.818391 
C -6.220571 3.77659 -6.266379 3.724437 -6.300791 3.664922 
L -6.300791 3.664922 
C -6.335212 3.605364 -6.35755 3.539597 -6.366524 3.471396 
C -6.375498 3.403194 -6.370933 3.333888 -6.35309 3.267452 
C -6.335248 3.201017 -6.304476 3.138749 -6.26254 3.08422 
C -6.220605 3.029692 -6.168323 2.983966 -6.108695 2.949666 
L -4.785807 2.186762 
L -6.424743 1.746706 
L -6.424743 1.746706 
C -6.558747 1.710946 -6.673179 1.623325 -6.74265 1.503284 
C -6.81212 1.383244 -6.831081 1.240371 -6.795324 1.106366 
L -6.795324 1.106366 
C -6.777471 1.039969 -6.746703 0.977739 -6.704784 0.923241 
C -6.662864 0.868744 -6.61061 0.823041 -6.551015 0.788752 
C -6.491421 0.754464 -6.425647 0.732257 -6.357465 0.723406 
C -6.289282 0.714554 -6.220019 0.71923 -6.153645 0.737166 
L -3.505232 1.44698 
L -0.852424 -0.08496 
L -3.503767 -1.615666 
L -6.153645 -0.905851 
L -6.153645 -0.905851 
C -6.22011 -0.887939 -6.289462 -0.883321 -6.357716 -0.892262 
C -6.42597 -0.901202 -6.491793 -0.923527 -6.551403 -0.957953 
C -6.611013 -0.992379 -6.663247 -1.038234 -6.705103 -1.092883 
C -6.746958 -1.147533 -6.777619 -1.209911 -6.795324 -1.276432 
L -6.795324 -1.276432 
C -6.831068 -1.410431 -6.812101 -1.553293 -6.742632 -1.673324 
C -6.673162 -1.793355 -6.558738 -1.88097 -6.424743 -1.91673 
L -4.785807 -2.355447 
L -6.108695 -3.119732 
L -6.108695 -3.119732 
C -6.228699 -3.188976 -6.316415 -3.303132 -6.352417 -3.436921 
C -6.388419 -3.57071 -6.369839 -3.713469 -6.300791 -3.833586 
L -6.300791 -3.833586 
C -6.266491 -3.893214 -6.220765 -3.945496 -6.166237 -3.987431 
C -6.111708 -4.029367 -6.04944 -4.060139 -5.983005 -4.077981 
C -5.91657 -4.095823 -5.847263 -4.100389 -5.779062 -4.091415 
C -5.71086 -4.082441 -5.645094 -4.060102 -5.585535 -4.025682 
L -4.262647 -3.261396 
L -4.702703 -4.900332 
L -4.702703 -4.900332 
C -4.73846 -5.034337 -4.719499 -5.17721 -4.650029 -5.29725 
C -4.580558 -5.417291 -4.466126 -5.504912 -4.332122 -5.540672 
L -4.332122 -5.540672 
C -4.19831 -5.576464 -4.055613 -5.557686 -3.935617 -5.488496 
C -3.81562 -5.419305 -3.727882 -5.305212 -3.691824 -5.171472 
L -2.982009 -2.521594 
L -0.329411 -0.990302 
L -0.329411 -4.051588 
L -2.269453 -5.991589 
L -2.269453 -5.991589 
C -2.318227 -6.040191 -2.356931 -6.097947 -2.383337 -6.161539 
C -2.409744 -6.22513 -2.423338 -6.293314 -2.423338 -6.36217 
C -2.423338 -6.431026 -2.409744 -6.499209 -2.383337 -6.5628 
C -2.356931 -6.626392 -2.318227 -6.684149 -2.269453 -6.732751 
L -2.269453 -6.732751 
C -2.22085 -6.781526 -2.163094 -6.820229 -2.099502 -6.846635 
C -2.035911 -6.873042 -1.967728 -6.886636 -1.898871 -6.886636 
C -1.830015 -6.886636 -1.761832 -6.873042 -1.698241 -6.846635 
C -1.634649 -6.820229 -1.576893 -6.781526 -1.52829 -6.732751 
L -0.329411 -5.533829 
L -0.329411 -7.059722 
L -0.329411 -7.059722 
C -0.329411 -7.198418 -0.274255 -7.331575 -0.176182 -7.429647 
C -0.07811 -7.52772 0.055047 -7.582875 0.193743 -7.582875 
L 0.193743 -7.582875 
C 0.332439 -7.582875 0.465596 -7.52772 0.563669 -7.429647 
C 0.661741 -7.331575 0.716897 -7.198418 0.716897 -7.059722 
L 0.716897 -5.533829 
L 1.915777 -6.732751 
L 1.915777 -6.732751 
C 1.964379 -6.781526 2.022136 -6.820229 2.085727 -6.846635 
C 2.149318 -6.873042 2.217502 -6.886636 2.286358 -6.886636 
C 2.355214 -6.886636 2.423397 -6.873042 2.486989 -6.846635 
C 2.55058 -6.820229 2.608337 -6.781526 2.656939 -6.732751 
L 2.656939 -6.732751 
C 2.705714 -6.684149 2.744417 -6.626392 2.770823 -6.5628 
C 2.79723 -6.499209 2.810824 -6.431026 2.810824 -6.36217 
C 2.810824 -6.293314 2.79723 -6.22513 2.770823 -6.161539 
C 2.744417 -6.097947 2.705714 -6.040191 2.656939 -5.991589 
L 0.716897 -4.051588 
L 0.716897 -0.991139 
L 3.369495 -2.522954 
L 4.07931 -5.171367 
L 4.07931 -5.171367 
C 4.115368 -5.305107 4.203106 -5.4192 4.323103 -5.488391 
C 4.4431 -5.557582 4.585797 -5.576359 4.719608 -5.540567 
L 4.719608 -5.540567 
C 4.853612 -5.504807 4.968045 -5.417186 5.037515 -5.297146 
C 5.106986 -5.177105 5.125946 -5.034232 5.090189 -4.900227 
L 4.650133 -3.262673 
L 5.973022 -4.025577 
L 5.973022 -4.025577 
C 6.03258 -4.059998 6.098346 -4.082336 6.166548 -4.09131 
C 6.234749 -4.100284 6.304056 -4.095719 6.370491 -4.077876 
C 6.436926 -4.060034 6.499194 -4.029262 6.553723 -3.987327 
C 6.608252 -3.945391 6.653978 -3.893109 6.688277 -3.833481 
L 6.688277 -3.833481 
C 6.757325 -3.713365 6.775905 -3.570605 6.739903 -3.436816 
C 6.703901 -3.303027 6.616186 -3.188871 6.496181 -3.119628 
L 5.173293 -2.355342 
L 6.812229 -1.916625 
L 6.812229 -1.916625 
C 6.946224 -1.880865 7.060649 -1.79325 7.130118 -1.67322 
C 7.199588 -1.553189 7.218554 -1.410326 7.18281 -1.276327 
L 7.18281 -1.276327 
C 7.165106 -1.209806 7.134445 -1.147429 7.092589 -1.092779 
C 7.050733 -1.038129 6.998499 -0.992274 6.938889 -0.957848 
C 6.879279 -0.923422 6.813456 -0.901098 6.745202 -0.892157 
C 6.676949 -0.883217 6.607597 -0.887835 6.541131 -0.905746 
L 3.891253 -1.615561 
L 1.239492 -0.084604 
L 3.892718 1.447085 
L 6.541131 0.73727 
L 6.541131 0.73727 
C 6.674948 0.701466 6.817656 0.720237 6.937662 0.789429 
C 7.057669 0.858621 7.145413 0.972721 7.181471 1.10647 
L 7.181471 1.10647 
C 7.217274 1.240293 7.198497 1.383006 7.129297 1.503014 
C 7.060096 1.623021 6.945986 1.710762 6.812229 1.74681 
L 5.173293 2.186866 
L 6.496181 2.949771 
L 6.496181 2.949771 
C 6.555697 2.984183 6.607849 3.029991 6.649651 3.08457 
C 6.691452 3.13915 6.722088 3.201437 6.739803 3.267863 
C 6.757517 3.33429 6.761966 3.403561 6.752893 3.471707 
C 6.743821 3.539854 6.721404 3.605549 6.686927 3.665026 
L 6.686927 3.665026 
C 6.617458 3.784813 6.503196 3.87225 6.369416 3.907994 
C 6.235636 3.943739 6.092989 3.924946 5.973032 3.855772 
L 4.650144 3.091487 
L 5.08886 4.731783 
L 5.08886 4.731783 
C 5.124664 4.865606 5.105887 5.008319 5.036686 5.128326 
C 4.967486 5.248334 4.853376 5.336074 4.719619 5.372123 
L 4.719619 5.372123 
C 4.585619 5.407867 4.442757 5.3889 4.322726 5.319431 
C 4.202695 5.249961 4.115081 5.135537 4.07932 5.001542 
L 3.368166 2.351664 
L 0.717033 0.821063 
L 0.717033 3.884232 
L 2.657075 5.822893 
L 2.657075 5.822893 
C 2.70585 5.871495 2.744553 5.929252 2.770959 5.992843 
C 2.797366 6.056435 2.81096 6.124618 2.81096 6.193474 
C 2.81096 6.26233 2.797366 6.330514 2.770959 6.394105 
C 2.744553 6.457696 2.70585 6.515453 2.657075 6.564055 
L 2.657075 6.564055 
C 2.608473 6.61283 2.550716 6.651533 2.487125 6.67794 
C 2.423533 6.704346 2.35535 6.71794 2.286494 6.71794 
C 2.217638 6.71794 2.149454 6.704346 2.085863 6.67794 
C 2.022272 6.651533 1.964515 6.61283 1.915913 6.564055 
L 0.717033 5.365133 
L 0.717033 6.891026 
L 0.717033 6.891026 
C 0.717033 7.029722 0.661877 7.162879 0.563805 7.260952 
C 0.465732 7.359024 0.332575 7.41418 0.193879 7.41418 
L 0.193618 7.414054 
z
"/>
    </defs>
    <g clip-path="url(#p9e2a1b5a38)">
     <use xlink:href="#m6fec1db875" x="96.712111" y="57.006357" style="fill: #9e2096; fill-opacity: 0.7"/>
    </g>
   </g>
   <g id="patch_163">
    <path d="M 125.254844 13.699062 
C 110.694216 13.699062 96.275171 16.567189 82.822905 22.1393 
C 69.370638 27.711411 57.146763 35.879144 46.850844 46.175063 
C 36.554925 56.470982 28.387192 68.694857 22.815081 82.147124 
C 17.24297 95.59939 14.374844 110.018434 14.374844 124.579062 
C 14.374844 139.139691 17.24297 153.558735 22.815081 167.011001 
C 28.387192 180.463268 36.554925 192.687143 46.850844 202.983062 
C 57.146763 213.278981 69.370638 221.446714 82.822905 227.018825 
C 96.275171 232.590936 110.694216 235.459062 125.254844 235.459062 
C 139.815472 235.459062 154.234516 232.590936 167.686783 227.018825 
C 181.139049 221.446714 193.362925 213.278981 203.658844 202.983062 
C 213.954763 192.687143 222.122495 180.463268 227.694606 167.011001 
C 233.266717 153.558735 236.134844 139.139691 236.134844 124.579062 
C 236.134844 110.018434 233.266717 95.59939 227.694606 82.147124 
C 222.122495 68.694857 213.954763 56.470982 203.658844 46.175063 
C 193.362925 35.879144 181.139049 27.711411 167.686783 22.1393 
C 154.234516 16.567189 139.815472 13.699062 125.254844 13.699062 
" style="fill: none; stroke: #000000; stroke-width: 0.8; stroke-linejoin: miter; stroke-linecap: square"/>
   </g>
  </g>
 </g>
 <defs>
  <clipPath id="p9e2a1b5a38">
   <path d="M 236.134844 124.579062 
C 236.134844 110.018434 233.266717 95.59939 227.694606 82.147124 
C 222.122495 68.694857 213.954763 56.470982 203.658844 46.175063 
C 193.362925 35.879144 181.139049 27.711411 167.686783 22.1393 
C 154.234516 16.567189 139.815472 13.699062 125.254844 13.699062 
C 110.694216 13.699062 96.275171 16.567189 82.822905 22.1393 
C 69.370638 27.711411 57.146763 35.879144 46.850844 46.175063 
C 36.554925 56.470982 28.387192 68.694857 22.815081 82.147124 
C 17.24297 95.59939 14.374844 110.018434 14.374844 124.579062 
C 14.374844 139.139691 17.24297 153.558735 22.815081 167.011001 
C 28.387192 180.463268 36.554925 192.687143 46.850844 202.983062 
C 57.146763 213.278981 69.370638 221.446714 82.822905 227.018825 
C 96.275171 232.590936 110.694216 235.459062 125.254844 235.459062 
C 139.815472 235.459062 154.234516 232.590936 167.686783 227.018825 
C 181.139049 221.446714 193.362925 213.278981 203.658844 202.983062 
C 213.954763 192.687143 222.122495 180.463268 227.694606 167.011001 
C 233.266717 153.558735 236.134844 139.139691 236.134844 124.579062 
M 125.254844 124.579062 
C 125.254844 124.579062 125.254844 124.579062 125.254844 124.579062 
C 125.254844 124.579062 125.254844 124.579062 125.254844 124.579062 
C 125.254844 124.579062 125.254844 124.579062 125.254844 124.579062 
C 125.254844 124.579062 125.254844 124.579062 125.254844 124.579062 
C 125.254844 124.579062 125.254844 124.579062 125.254844 124.579062 
C 125.254844 124.579062 125.254844 124.579062 125.254844 124.579062 
C 125.254844 124.579062 125.254844 124.579062 125.254844 124.579062 
C 125.254844 124.579062 125.254844 124.579062 125.254844 124.579062 
C 125.254844 124.579062 125.254844 124.579062 125.254844 124.579062 
C 125.254844 124.579062 125.254844 124.579062 125.254844 124.579062 
C 125.254844 124.579062 125.254844 124.579062 125.254844 124.579062 
C 125.254844 124.579062 125.254844 124.579062 125.254844 124.579062 
C 125.254844 124.579062 125.254844 124.579062 125.254844 124.579062 
C 125.254844 124.579062 125.254844 124.579062 125.254844 124.579062 
C 125.254844 124.579062 125.254844 124.579062 125.254844 124.579062 
C 125.254844 124.579062 125.254844 124.579062 125.254844 124.579062 
z
"/>
  </clipPath>
 </defs>
</svg>
