<?xml version="1.0" encoding="utf-8" standalone="no"?>
<!DOCTYPE svg PUBLIC "-//W3C//DTD SVG 1.1//EN"
  "http://www.w3.org/Graphics/SVG/1.1/DTD/svg11.dtd">
<svg xmlns:xlink="http://www.w3.org/1999/xlink" width="248.410469pt" height="249.158125pt" viewBox="0 0 248.410469 249.158125" xmlns="http://www.w3.org/2000/svg" version="1.1">
 <title>Ski Rose for Nuova Lizzola</title>
 <metadata>
  <rdf:RDF xmlns:dc="http://purl.org/dc/elements/1.1/" xmlns:cc="http://creativecommons.org/ns#" xmlns:rdf="http://www.w3.org/1999/02/22-rdf-syntax-ns#">
   <cc:Work>
    <dc:type rdf:resource="http://purl.org/dc/dcmitype/StillImage"/>
    <dc:title>Ski Rose for Nuova Lizzola</dc:title>
    <dc:date>2026-02-28T10:29:34.381824</dc:date>
    <dc:description>A 32-bin stacked histogram of downhill ski run orientations colored by difficulty.</dc:description>
    <dc:format>image/svg+xml</dc:format>
    <dc:source>https://openskimap.org/?obj=6ff247cdb15f5728a6973db6773f170a65202428</dc:source>
    <dc:creator>
     <cc:Agent>
      <dc:title>https://github.com/dhimmel/openskistats</dc:title>
     </cc:Agent>
    </dc:creator>
    <dc:rights>
     <cc:Agent>
      <dc:title>https://creativecommons.org/licenses/by/4.0/</dc:title>
     </cc:Agent>
    </dc:rights>
   </cc:Work>
  </rdf:RDF>
 </metadata>
 <defs>
  <style type="text/css">*{stroke-linejoin: round; stroke-linecap: butt}</style>
 </defs>
 <g id="figure_1">
  <g id="patch_1">
   <path d="M 0 249.158125 
L 248.410469 249.158125 
L 248.410469 0 
L 0 0 
z
" style="fill: #ffffff"/>
  </g>
  <g id="axes_1">
   <g id="patch_2">
    <path d="M 236.134844 124.579063 
C 236.134844 110.018434 233.266717 95.59939 227.694606 82.147124 
C 222.122495 68.694857 213.954763 56.470982 203.658844 46.175063 
C 193.362925 35.879144 181.139049 27.711411 167.686783 22.1393 
C 154.234516 16.567189 139.815472 13.699063 125.254844 13.699063 
C 110.694216 13.699063 96.275171 16.567189 82.822905 22.1393 
C 69.370638 27.711411 57.146763 35.879144 46.850844 46.175063 
C 36.554925 56.470982 28.387192 68.694857 22.815081 82.147124 
C 17.24297 95.59939 14.374844 110.018434 14.374844 124.579062 
C 14.374844 139.139691 17.24297 153.558735 22.815081 167.011001 
C 28.387192 180.463268 36.554925 192.687143 46.850844 202.983062 
C 57.146763 213.278981 69.370638 221.446714 82.822905 227.018825 
C 96.275171 232.590936 110.694216 235.459063 125.254844 235.459063 
C 139.815472 235.459063 154.234516 232.590936 167.686783 227.018825 
C 181.139049 221.446714 193.362925 213.278981 203.658844 202.983062 
C 213.954763 192.687143 222.122495 180.463268 227.694606 167.011001 
C 233.266717 153.558735 236.134844 139.139691 236.134844 124.579063 
M 125.254844 124.579063 
C 125.254844 124.579063 125.254844 124.579063 125.254844 124.579063 
C 125.254844 124.579063 125.254844 124.579063 125.254844 124.579063 
C 125.254844 124.579063 125.254844 124.579063 125.254844 124.579063 
C 125.254844 124.579063 125.254844 124.579063 125.254844 124.579063 
C 125.254844 124.579063 125.254844 124.579063 125.254844 124.579063 
C 125.254844 124.579063 125.254844 124.579063 125.254844 124.579063 
C 125.254844 124.579063 125.254844 124.579063 125.254844 124.579063 
C 125.254844 124.579063 125.254844 124.579063 125.254844 124.579063 
C 125.254844 124.579063 125.254844 124.579063 125.254844 124.579063 
C 125.254844 124.579063 125.254844 124.579063 125.254844 124.579063 
C 125.254844 124.579063 125.254844 124.579063 125.254844 124.579063 
C 125.254844 124.579063 125.254844 124.579063 125.254844 124.579063 
C 125.254844 124.579063 125.254844 124.579063 125.254844 124.579063 
C 125.254844 124.579063 125.254844 124.579063 125.254844 124.579063 
C 125.254844 124.579063 125.254844 124.579063 125.254844 124.579063 
C 125.254844 124.579063 125.254844 124.579063 125.254844 124.579063 
z
" style="fill: #ffffff"/>
   </g>
   <g id="FillBetweenPolyCollection_1">
    <defs>
     <path id="m7c5a4c058f" d="M 235.369713 -137.125067 
L 234.818408 -137.062254 
L 234.067166 -135.056497 
L 233.045197 -133.062347 
L 232.160979 -131.117722 
L 231.020086 -129.196873 
L 229.831983 -127.317511 
L 228.813161 -125.482802 
L 227.547174 -123.686371 
L 226.458523 -121.928951 
L 225.126645 -120.218565 
L 223.976981 -118.540958 
L 222.588009 -116.918776 
L 221.384505 -115.322829 
L 219.94596 -113.790373 
L 218.695102 -112.277419 
L 217.422432 -110.804524 
L 215.921893 -109.406602 
L 214.610915 -108.017894 
L 213.282359 -106.669662 
L 211.734235 -105.407043 
L 210.376143 -104.143246 
L 209.004621 -102.919897 
L 207.620995 -101.736907 
L 206.226584 -100.59414 
L 204.822703 -99.491413 
L 203.410656 -98.428493 
L 201.991742 -97.405102 
L 200.567246 -96.420909 
L 199.323098 -95.402801 
L 197.888585 -94.493182 
L 196.452171 -93.621583 
L 195.191678 -92.707011 
L 193.75216 -91.907519 
L 192.485088 -91.059299 
L 191.046864 -90.329904 
L 189.777156 -89.546305 
L 188.344495 -88.884655 
L 187.075965 -88.163639 
L 185.8078 -87.472163 
L 184.54082 -86.80973 
L 183.275823 -86.175814 
L 182.013589 -85.569858 
L 180.754877 -84.991273 
L 179.500425 -84.439444 
L 178.250948 -83.913722 
L 177.007134 -83.413432 
L 175.769649 -82.93787 
L 174.539131 -82.486305 
L 173.435646 -81.95229 
L 172.216983 -81.54619 
L 171.006987 -81.1619 
L 169.914425 -80.692214 
L 168.719321 -80.349289 
L 167.635141 -79.919548 
L 166.45666 -79.61517 
L 165.382412 -79.223098 
L 164.222053 -78.954323 
L 163.159084 -78.597543 
L 162.100458 -78.257776 
L 160.967545 -78.037364 
L 159.921832 -77.729316 
L 158.881181 -77.436677 
L 157.845788 -77.158944 
L 156.81583 -76.895614 
L 155.730082 -76.742521 
L 154.714722 -76.50491 
L 153.705143 -76.280039 
L 152.701421 -76.067401 
L 151.703614 -75.866488 
L 150.711752 -75.676798 
L 149.725843 -75.497831 
L 148.745874 -75.329093 
L 147.771806 -75.170098 
L 146.803579 -75.020365 
L 145.872072 -74.804669 
L 144.91261 -74.674915 
L 143.958762 -74.55316 
L 143.010383 -74.438966 
L 142.067307 -74.331907 
L 141.129346 -74.231573 
L 140.213245 -74.080346 
L 139.282834 -73.995764 
L 138.356978 -73.916868 
L 137.435419 -73.843314 
L 136.527667 -73.730642 
L 135.612286 -73.670607 
L 134.70046 -73.615078 
L 133.797549 -73.529869 
L 132.89067 -73.486554 
L 131.986497 -73.447082 
L 131.084679 -73.41126 
L 130.186702 -73.359761 
L 129.287848 -73.334885 
L 128.390395 -73.313257 
L 127.494317 -73.286697 
L 126.598275 -73.275497 
L 125.702634 -73.267349 
L 124.807051 -73.267045 
L 123.911475 -73.277867 
L 123.015577 -73.291433 
L 122.118977 -73.308091 
L 121.222521 -73.34354 
L 120.324044 -73.370751 
L 119.423876 -73.401314 
L 118.525143 -73.461911 
L 117.621573 -73.503659 
L 116.715377 -73.549223 
L 115.813085 -73.635893 
L 114.902082 -73.693614 
L 113.987599 -73.755805 
L 113.08064 -73.869856 
L 112.160113 -73.945494 
L 111.235358 -74.02643 
L 110.306116 -74.113005 
L 109.372146 -74.20558 
L 108.454359 -74.367708 
L 107.512637 -74.476615 
L 106.565672 -74.592602 
L 105.613297 -74.716091 
L 104.655365 -74.847521 
L 103.691749 -74.987341 
L 102.758565 -75.215484 
L 101.786176 -75.375977 
L 100.807934 -75.546147 
L 99.823798 -75.726478 
L 98.833752 -75.917464 
L 97.837801 -76.119604 
L 96.835976 -76.333399 
L 95.828329 -76.559354 
L 94.814936 -76.797979 
L 93.731529 -76.95253 
L 92.703604 -77.216714 
L 91.670271 -77.495228 
L 90.631705 -77.788576 
L 89.5881 -78.097257 
L 88.457676 -78.318683 
L 87.401202 -78.658923 
L 86.3404 -79.016103 
L 85.18259 -79.285619 
L 84.110538 -79.677932 
L 82.934634 -79.982867 
L 81.852672 -80.412691 
L 80.660165 -80.755994 
L 79.569834 -81.225607 
L 78.362446 -81.610097 
L 77.265478 -82.121659 
L 76.045148 -82.550012 
L 74.817241 -83.001511 
L 73.582365 -83.476917 
L 72.341157 -83.976962 
L 71.231554 -84.603931 
L 69.983263 -85.154227 
L 68.73064 -85.731053 
L 67.474416 -86.335032 
L 66.064198 -86.870462 
L 64.799768 -87.532144 
L 63.534141 -88.22279 
L 62.268134 -88.942897 
L 60.838357 -89.603764 
L 59.571141 -90.386291 
L 58.306177 -91.199689 
L 56.871153 -91.961715 
L 55.610654 -92.840377 
L 54.176376 -93.673265 
L 52.74274 -94.543566 
L 51.495257 -95.524389 
L 50.069196 -96.468301 
L 48.647419 -97.450951 
L 47.231202 -98.472717 
L 45.821832 -99.53393 
L 44.420607 -100.634871 
L 43.028831 -101.775771 
L 41.647817 -102.956815 
L 40.278884 -104.17814 
L 38.923359 -105.439833 
L 37.582573 -106.741937 
L 36.257865 -108.084447 
L 34.74365 -109.432683 
L 33.454068 -110.859345 
L 32.184752 -112.326152 
L 30.727278 -113.809007 
L 29.501983 -115.359111 
L 28.090303 -116.932047 
L 26.915284 -118.564357 
L 25.556507 -120.226139 
L 24.438433 -121.939092 
L 23.140421 -123.687923 
L 22.086897 -125.479396 
L 20.859275 -127.312757 
L 19.88022 -129.179818 
L 18.737212 -131.09396 
L 17.647273 -133.047962 
L 16.817907 -135.020352 
L 15.866381 -137.042304 
L 15.130547 -137.126141 
L 15.130547 -137.126141 
L 14.932227 -135.201922 
L 14.886331 -133.265253 
L 14.630385 -131.345144 
L 14.590032 -129.410793 
L 14.460776 -127.480307 
L 14.422984 -125.546277 
L 14.543389 -123.612898 
L 14.448649 -121.6775 
L 14.569081 -119.746418 
L 14.604232 -117.811381 
L 14.719868 -115.879771 
L 15.001807 -113.962903 
L 15.134431 -112.032426 
L 15.338425 -110.108291 
L 15.641902 -108.197299 
L 16.049541 -106.304362 
L 16.235473 -104.373516 
L 16.629383 -102.478963 
L 17.052684 -100.591221 
L 17.505466 -98.710725 
L 18.067192 -96.858451 
L 18.409208 -94.948145 
L 18.953156 -93.091068 
L 19.526902 -91.24317 
L 20.130576 -89.404975 
L 20.764334 -87.577033 
L 21.428365 -85.759933 
L 22.122911 -83.954314 
L 22.848298 -82.160882 
L 23.604948 -80.38043 
L 24.393379 -78.613845 
L 25.214177 -76.862112 
L 26.077316 -75.130971 
L 26.906172 -73.381984 
L 27.837395 -71.685703 
L 28.752958 -69.980922 
L 29.718287 -68.30373 
L 30.735592 -66.65759 
L 31.740821 -65.00406 
L 32.798687 -63.383667 
L 33.87765 -61.777257 
L 35.471667 -60.537345 
L 37.293756 -59.491281 
L 39.133761 -58.496031 
L 40.990908 -57.552501 
L 42.851178 -56.650722 
L 44.655464 -55.740689 
L 46.522911 -54.922933 
L 48.383485 -54.13944 
L 50.185551 -53.340963 
L 52.040817 -52.631839 
L 53.834438 -51.901129 
L 55.623181 -51.2026 
L 57.406224 -50.535287 
L 59.182833 -49.89824 
L 60.952349 -49.290514 
L 62.714178 -48.711168 
L 64.467786 -48.159258 
L 66.171028 -47.579534 
L 67.908642 -47.080119 
L 69.636755 -46.605377 
L 71.322352 -46.1068 
L 73.032271 -45.679362 
L 74.699015 -45.222307 
L 76.362098 -44.793353 
L 78.014361 -44.380638 
L 79.686991 -44.038156 
L 81.325795 -43.671819 
L 82.953595 -43.31912 
L 84.576739 -42.991406 
L 86.188936 -42.675684 
L 87.776192 -42.339668 
L 89.377087 -42.06587 
L 90.967356 -41.801745 
L 92.552676 -41.559773 
L 94.115728 -41.293715 
L 95.684718 -41.075605 
L 97.236745 -40.841791 
L 98.794966 -40.659051 
L 100.336342 -40.455609 
L 101.879988 -40.292054 
L 103.41149 -40.117081 
L 104.945669 -39.985262 
L 106.468021 -39.837183 
L 107.986569 -39.702779 
L 109.504509 -39.597861 
L 111.015512 -39.488171 
L 112.523441 -39.391257 
L 114.028547 -39.306873 
L 115.533008 -39.251602 
L 117.032802 -39.189896 
L 118.530653 -39.140116 
L 120.02685 -39.102117 
L 121.52169 -39.075783 
L 123.015464 -39.060609 
L 124.508491 -39.055517 
L 126.001183 -39.0571 
L 127.494134 -39.064 
L 128.988176 -39.0717 
L 130.483087 -39.09804 
L 131.979355 -39.136046 
L 133.477276 -39.185836 
L 134.977141 -39.247554 
L 136.48061 -39.310899 
L 137.985647 -39.395266 
L 139.493508 -39.492162 
L 141.004443 -39.601832 
L 142.523924 -39.698819 
L 144.042539 -39.833246 
L 145.564958 -39.981349 
L 147.097196 -40.120952 
L 148.628635 -40.295896 
L 150.174479 -40.451783 
L 151.715918 -40.655256 
L 153.27169 -40.845534 
L 154.823656 -41.079312 
L 156.395338 -41.290026 
L 157.95845 -41.556122 
L 159.540844 -41.805336 
L 161.134153 -42.062302 
L 162.731898 -42.343173 
L 164.3191 -42.679145 
L 165.934662 -42.98797 
L 167.554339 -43.322488 
L 169.185707 -43.668478 
L 170.820846 -44.041426 
L 172.493431 -44.383856 
L 174.149542 -44.790166 
L 175.808689 -45.225421 
L 177.479456 -45.67628 
L 179.189415 -46.103774 
L 180.870828 -46.608328 
L 182.598904 -47.083012 
L 184.299181 -47.630984 
L 186.044126 -48.156461 
L 187.797766 -48.708431 
L 189.559625 -49.287838 
L 191.329168 -49.895625 
L 193.105803 -50.532734 
L 194.88887 -51.200109 
L 196.677636 -51.898701 
L 198.471276 -52.629475 
L 200.321782 -53.343198 
L 202.123856 -54.141591 
L 203.989217 -54.920773 
L 205.794291 -55.791876 
L 207.656224 -56.652606 
L 209.521205 -57.550572 
L 211.373729 -58.497717 
L 213.218276 -59.489547 
L 215.03598 -60.538801 
L 216.621905 -61.784221 
L 217.690659 -63.397131 
L 218.766361 -65.005656 
L 219.780083 -66.653921 
L 220.770364 -68.316121 
L 221.753832 -69.982562 
L 222.681616 -71.680641 
L 223.491079 -73.440515 
L 224.366707 -75.16371 
L 225.327101 -76.847044 
L 226.095985 -78.623107 
L 226.925899 -80.37123 
L 227.684924 -82.151134 
L 228.349055 -83.969173 
L 229.067088 -85.765255 
L 229.737958 -87.579651 
L 230.361831 -89.410756 
L 230.938912 -91.257004 
L 231.531649 -93.098439 
L 232.010338 -94.973144 
L 232.564857 -96.826806 
L 233.006159 -98.71026 
L 233.48535 -100.584937 
L 233.79265 -102.496796 
L 234.234364 -104.380902 
L 234.603725 -106.280335 
L 234.815767 -108.205073 
L 235.135704 -110.112973 
L 235.394622 -112.03022 
L 235.618677 -113.952234 
L 235.662535 -115.889789 
L 235.830814 -117.815946 
L 235.947458 -119.746119 
L 236.043769 -121.677952 
L 236.104184 -123.611695 
L 236.129421 -125.54665 
L 235.936268 -127.477358 
L 235.881239 -129.409115 
L 235.805372 -131.340622 
L 235.697006 -133.271049 
L 235.556823 -135.199935 
L 235.369713 -137.125067 
z
" style="stroke: #ffee9c"/>
    </defs>
    <g clip-path="url(#p7fc7a57d46)">
     <use xlink:href="#m7c5a4c058f" x="0" y="249.158125" style="fill: #ffee9c; stroke: #ffee9c"/>
    </g>
   </g>
   <g id="matplotlib.axis_1">
    <g id="xtick_1">
     <g id="line2d_1">
      <path d="M 125.254844 124.579063 
L 125.254844 13.699063 
" clip-path="url(#p7fc7a57d46)" style="fill: none; stroke: #b0b0b0; stroke-width: 0.8; stroke-linecap: square"/>
     </g>
     <g id="text_1">
      <!-- N -->
      <g transform="translate(121.070469 7.958438) scale(0.1 -0.1)">
       <defs>
        <path id="DejaVuSans-Bold-4e" d="M 588 4666 
L 1931 4666 
L 3628 1466 
L 3628 4666 
L 4769 4666 
L 4769 0 
L 3425 0 
L 1728 3200 
L 1728 0 
L 588 0 
L 588 4666 
z
" transform="scale(0.015625)"/>
       </defs>
       <use xlink:href="#DejaVuSans-Bold-4e"/>
      </g>
     </g>
    </g>
    <g id="xtick_2">
     <g id="line2d_2">
      <path d="M 125.254844 124.579063 
L 203.658844 46.175063 
" clip-path="url(#p7fc7a57d46)" style="fill: none; stroke: #b0b0b0; stroke-width: 0.8; stroke-linecap: square"/>
     </g>
    </g>
    <g id="xtick_3">
     <g id="line2d_3">
      <path d="M 125.254844 124.579063 
L 236.134844 124.579063 
" clip-path="url(#p7fc7a57d46)" style="fill: none; stroke: #b0b0b0; stroke-width: 0.8; stroke-linecap: square"/>
     </g>
     <g id="text_2">
      <!-- E -->
      <g transform="translate(241.219219 127.338438) scale(0.1 -0.1)">
       <defs>
        <path id="DejaVuSans-Bold-45" d="M 588 4666 
L 3834 4666 
L 3834 3756 
L 1791 3756 
L 1791 2888 
L 3713 2888 
L 3713 1978 
L 1791 1978 
L 1791 909 
L 3903 909 
L 3903 0 
L 588 0 
L 588 4666 
z
" transform="scale(0.015625)"/>
       </defs>
       <use xlink:href="#DejaVuSans-Bold-45"/>
      </g>
     </g>
    </g>
    <g id="xtick_4">
     <g id="line2d_4">
      <path d="M 125.254844 124.579063 
L 203.658844 202.983062 
" clip-path="url(#p7fc7a57d46)" style="fill: none; stroke: #b0b0b0; stroke-width: 0.8; stroke-linecap: square"/>
     </g>
    </g>
    <g id="xtick_5">
     <g id="line2d_5">
      <path d="M 125.254844 124.579063 
L 125.254844 235.459063 
" clip-path="url(#p7fc7a57d46)" style="fill: none; stroke: #b0b0b0; stroke-width: 0.8; stroke-linecap: square"/>
     </g>
     <g id="text_3">
      <!-- S -->
      <g transform="translate(121.654062 246.718438) scale(0.1 -0.1)">
       <defs>
        <path id="DejaVuSans-Bold-53" d="M 3834 4519 
L 3834 3531 
Q 3450 3703 3084 3790 
Q 2719 3878 2394 3878 
Q 1963 3878 1756 3759 
Q 1550 3641 1550 3391 
Q 1550 3203 1689 3098 
Q 1828 2994 2194 2919 
L 2706 2816 
Q 3484 2659 3812 2340 
Q 4141 2022 4141 1434 
Q 4141 663 3683 286 
Q 3225 -91 2284 -91 
Q 1841 -91 1394 -6 
Q 947 78 500 244 
L 500 1259 
Q 947 1022 1364 901 
Q 1781 781 2169 781 
Q 2563 781 2772 912 
Q 2981 1044 2981 1288 
Q 2981 1506 2839 1625 
Q 2697 1744 2272 1838 
L 1806 1941 
Q 1106 2091 782 2419 
Q 459 2747 459 3303 
Q 459 4000 909 4375 
Q 1359 4750 2203 4750 
Q 2588 4750 2994 4692 
Q 3400 4634 3834 4519 
z
" transform="scale(0.015625)"/>
       </defs>
       <use xlink:href="#DejaVuSans-Bold-53"/>
      </g>
     </g>
    </g>
    <g id="xtick_6">
     <g id="line2d_6">
      <path d="M 125.254844 124.579063 
L 46.850844 202.983062 
" clip-path="url(#p7fc7a57d46)" style="fill: none; stroke: #b0b0b0; stroke-width: 0.8; stroke-linecap: square"/>
     </g>
    </g>
    <g id="xtick_7">
     <g id="line2d_7">
      <path d="M 125.254844 124.579063 
L 14.374844 124.579063 
" clip-path="url(#p7fc7a57d46)" style="fill: none; stroke: #b0b0b0; stroke-width: 0.8; stroke-linecap: square"/>
     </g>
     <g id="text_4">
      <!-- W -->
      <g transform="translate(0.36 127.338438) scale(0.1 -0.1)">
       <defs>
        <path id="DejaVuSans-Bold-57" d="M 191 4666 
L 1344 4666 
L 2150 1275 
L 2950 4666 
L 4109 4666 
L 4909 1275 
L 5716 4666 
L 6859 4666 
L 5759 0 
L 4372 0 
L 3525 3547 
L 2688 0 
L 1300 0 
L 191 4666 
z
" transform="scale(0.015625)"/>
       </defs>
       <use xlink:href="#DejaVuSans-Bold-57"/>
      </g>
     </g>
    </g>
    <g id="xtick_8">
     <g id="line2d_8">
      <path d="M 125.254844 124.579063 
L 46.850844 46.175063 
" clip-path="url(#p7fc7a57d46)" style="fill: none; stroke: #b0b0b0; stroke-width: 0.8; stroke-linecap: square"/>
     </g>
    </g>
   </g>
   <g id="matplotlib.axis_2"/>
   <g id="patch_3">
    <path d="M 125.254844 124.579063 
C 125.254844 124.579063 125.254844 124.579063 125.254844 124.579063 
C 125.254844 124.579063 125.254844 124.579063 125.254844 124.579063 
L 125.254844 124.579063 
C 125.254844 124.579063 125.254844 124.579063 125.254844 124.579063 
C 125.254844 124.579063 125.254844 124.579063 125.254844 124.579063 
z
" clip-path="url(#p7fc7a57d46)" style="fill: #d9d9d9"/>
   </g>
   <g id="patch_4">
    <path d="M 125.254844 124.579063 
C 125.254844 124.579063 125.254844 124.579063 125.254844 124.579063 
C 125.254844 124.579063 125.254844 124.579063 125.254844 124.579063 
L 125.254844 124.579063 
C 125.254844 124.579063 125.254844 124.579063 125.254844 124.579063 
C 125.254844 124.579063 125.254844 124.579063 125.254844 124.579063 
z
" clip-path="url(#p7fc7a57d46)" style="fill: #d9d9d9"/>
   </g>
   <g id="patch_5">
    <path d="M 125.254844 124.579063 
C 125.254844 124.579063 125.254844 124.579063 125.254844 124.579063 
C 125.254844 124.579063 125.254844 124.579063 125.254844 124.579063 
L 125.254844 124.579063 
C 125.254844 124.579063 125.254844 124.579063 125.254844 124.579063 
C 125.254844 124.579063 125.254844 124.579063 125.254844 124.579063 
z
" clip-path="url(#p7fc7a57d46)" style="fill: #d9d9d9"/>
   </g>
   <g id="patch_6">
    <path d="M 125.254844 124.579063 
C 125.254844 124.579063 125.254844 124.579063 125.254844 124.579063 
C 125.254844 124.579063 125.254844 124.579063 125.254844 124.579063 
L 125.254844 124.579063 
C 125.254844 124.579063 125.254844 124.579063 125.254844 124.579063 
C 125.254844 124.579063 125.254844 124.579063 125.254844 124.579063 
z
" clip-path="url(#p7fc7a57d46)" style="fill: #d9d9d9"/>
   </g>
   <g id="patch_7">
    <path d="M 125.254844 124.579063 
C 125.254844 124.579063 125.254844 124.579063 125.254844 124.579063 
C 125.254844 124.579063 125.254844 124.579063 125.254844 124.579063 
L 125.254844 124.579063 
C 125.254844 124.579063 125.254844 124.579063 125.254844 124.579063 
C 125.254844 124.579063 125.254844 124.579063 125.254844 124.579063 
z
" clip-path="url(#p7fc7a57d46)" style="fill: #d9d9d9"/>
   </g>
   <g id="patch_8">
    <path d="M 125.254844 124.579063 
C 125.254844 124.579063 125.254844 124.579063 125.254844 124.579063 
C 125.254844 124.579063 125.254844 124.579063 125.254844 124.579063 
L 125.254844 124.579063 
C 125.254844 124.579063 125.254844 124.579063 125.254844 124.579063 
C 125.254844 124.579063 125.254844 124.579063 125.254844 124.579063 
z
" clip-path="url(#p7fc7a57d46)" style="fill: #d9d9d9"/>
   </g>
   <g id="patch_9">
    <path d="M 125.254844 124.579063 
C 125.254844 124.579063 125.254844 124.579063 125.254844 124.579063 
C 125.254844 124.579063 125.254844 124.579063 125.254844 124.579063 
L 125.254844 124.579063 
C 125.254844 124.579063 125.254844 124.579063 125.254844 124.579063 
C 125.254844 124.579063 125.254844 124.579063 125.254844 124.579063 
z
" clip-path="url(#p7fc7a57d46)" style="fill: #d9d9d9"/>
   </g>
   <g id="patch_10">
    <path d="M 125.254844 124.579063 
C 125.254844 124.579063 125.254844 124.579063 125.254844 124.579063 
C 125.254844 124.579063 125.254844 124.579063 125.254844 124.579063 
L 125.254844 124.579063 
C 125.254844 124.579063 125.254844 124.579063 125.254844 124.579063 
C 125.254844 124.579063 125.254844 124.579063 125.254844 124.579063 
z
" clip-path="url(#p7fc7a57d46)" style="fill: #d9d9d9"/>
   </g>
   <g id="patch_11">
    <path d="M 125.254844 124.579063 
C 125.254844 124.579063 125.254844 124.579063 125.254844 124.579063 
C 125.254844 124.579063 125.254844 124.579063 125.254844 124.579063 
L 125.254844 124.579063 
C 125.254844 124.579063 125.254844 124.579063 125.254844 124.579063 
C 125.254844 124.579063 125.254844 124.579063 125.254844 124.579063 
z
" clip-path="url(#p7fc7a57d46)" style="fill: #d9d9d9"/>
   </g>
   <g id="patch_12">
    <path d="M 125.254844 124.579063 
C 125.254844 124.579063 125.254844 124.579063 125.254844 124.579063 
C 125.254844 124.579063 125.254844 124.579063 125.254844 124.579063 
L 125.254844 124.579063 
C 125.254844 124.579063 125.254844 124.579063 125.254844 124.579063 
C 125.254844 124.579063 125.254844 124.579063 125.254844 124.579063 
z
" clip-path="url(#p7fc7a57d46)" style="fill: #d9d9d9"/>
   </g>
   <g id="patch_13">
    <path d="M 125.254844 124.579063 
C 125.254844 124.579063 125.254844 124.579063 125.254844 124.579063 
C 125.254844 124.579063 125.254844 124.579063 125.254844 124.579063 
L 125.254844 124.579063 
C 125.254844 124.579063 125.254844 124.579063 125.254844 124.579063 
C 125.254844 124.579063 125.254844 124.579063 125.254844 124.579063 
z
" clip-path="url(#p7fc7a57d46)" style="fill: #d9d9d9"/>
   </g>
   <g id="patch_14">
    <path d="M 125.254844 124.579063 
C 125.254844 124.579063 125.254844 124.579063 125.254844 124.579063 
C 125.254844 124.579063 125.254844 124.579063 125.254844 124.579063 
L 125.254844 124.579063 
C 125.254844 124.579063 125.254844 124.579063 125.254844 124.579063 
C 125.254844 124.579063 125.254844 124.579063 125.254844 124.579063 
z
" clip-path="url(#p7fc7a57d46)" style="fill: #d9d9d9"/>
   </g>
   <g id="patch_15">
    <path d="M 125.254844 124.579063 
C 125.254844 124.579063 125.254844 124.579063 125.254844 124.579063 
C 125.254844 124.579063 125.254844 124.579063 125.254844 124.579063 
L 125.254844 124.579063 
C 125.254844 124.579063 125.254844 124.579063 125.254844 124.579063 
C 125.254844 124.579063 125.254844 124.579063 125.254844 124.579063 
z
" clip-path="url(#p7fc7a57d46)" style="fill: #d9d9d9"/>
   </g>
   <g id="patch_16">
    <path d="M 125.254844 124.579063 
C 125.254844 124.579063 125.254844 124.579063 125.254844 124.579063 
C 125.254844 124.579063 125.254844 124.579063 125.254844 124.579063 
L 125.254844 124.579063 
C 125.254844 124.579063 125.254844 124.579063 125.254844 124.579063 
C 125.254844 124.579063 125.254844 124.579063 125.254844 124.579063 
z
" clip-path="url(#p7fc7a57d46)" style="fill: #d9d9d9"/>
   </g>
   <g id="patch_17">
    <path d="M 125.254844 124.579063 
C 125.254844 124.579063 125.254844 124.579063 125.254844 124.579063 
C 125.254844 124.579063 125.254844 124.579063 125.254844 124.579063 
L 125.254844 124.579063 
C 125.254844 124.579063 125.254844 124.579063 125.254844 124.579063 
C 125.254844 124.579063 125.254844 124.579063 125.254844 124.579063 
z
" clip-path="url(#p7fc7a57d46)" style="fill: #d9d9d9"/>
   </g>
   <g id="patch_18">
    <path d="M 125.254844 124.579063 
C 125.254844 124.579063 125.254844 124.579063 125.254844 124.579063 
C 125.254844 124.579063 125.254844 124.579063 125.254844 124.579063 
L 125.254844 124.579063 
C 125.254844 124.579063 125.254844 124.579063 125.254844 124.579063 
C 125.254844 124.579063 125.254844 124.579063 125.254844 124.579063 
z
" clip-path="url(#p7fc7a57d46)" style="fill: #d9d9d9"/>
   </g>
   <g id="patch_19">
    <path d="M 125.254844 124.579063 
C 125.254844 124.579063 125.254844 124.579063 125.254844 124.579063 
C 125.254844 124.579063 125.254844 124.579063 125.254844 124.579063 
L 125.254844 124.579063 
C 125.254844 124.579063 125.254844 124.579063 125.254844 124.579063 
C 125.254844 124.579063 125.254844 124.579063 125.254844 124.579063 
z
" clip-path="url(#p7fc7a57d46)" style="fill: #d9d9d9"/>
   </g>
   <g id="patch_20">
    <path d="M 125.254844 124.579063 
C 125.254844 124.579063 125.254844 124.579063 125.254844 124.579063 
C 125.254844 124.579063 125.254844 124.579063 125.254844 124.579063 
L 125.254844 124.579063 
C 125.254844 124.579063 125.254844 124.579063 125.254844 124.579063 
C 125.254844 124.579063 125.254844 124.579063 125.254844 124.579063 
z
" clip-path="url(#p7fc7a57d46)" style="fill: #d9d9d9"/>
   </g>
   <g id="patch_21">
    <path d="M 125.254844 124.579063 
C 125.254844 124.579063 125.254844 124.579063 125.254844 124.579063 
C 125.254844 124.579063 125.254844 124.579063 125.254844 124.579063 
L 125.254844 124.579063 
C 125.254844 124.579063 125.254844 124.579063 125.254844 124.579063 
C 125.254844 124.579063 125.254844 124.579063 125.254844 124.579063 
z
" clip-path="url(#p7fc7a57d46)" style="fill: #d9d9d9"/>
   </g>
   <g id="patch_22">
    <path d="M 125.254844 124.579063 
C 125.254844 124.579063 125.254844 124.579063 125.254844 124.579063 
C 125.254844 124.579063 125.254844 124.579063 125.254844 124.579063 
L 125.254844 124.579063 
C 125.254844 124.579063 125.254844 124.579063 125.254844 124.579063 
C 125.254844 124.579063 125.254844 124.579063 125.254844 124.579063 
z
" clip-path="url(#p7fc7a57d46)" style="fill: #d9d9d9"/>
   </g>
   <g id="patch_23">
    <path d="M 125.254844 124.579063 
C 125.254844 124.579063 125.254844 124.579063 125.254844 124.579063 
C 125.254844 124.579063 125.254844 124.579063 125.254844 124.579063 
L 125.254844 124.579063 
C 125.254844 124.579063 125.254844 124.579063 125.254844 124.579063 
C 125.254844 124.579063 125.254844 124.579063 125.254844 124.579063 
z
" clip-path="url(#p7fc7a57d46)" style="fill: #d9d9d9"/>
   </g>
   <g id="patch_24">
    <path d="M 125.254844 124.579063 
C 125.254844 124.579063 125.254844 124.579063 125.254844 124.579063 
C 125.254844 124.579063 125.254844 124.579063 125.254844 124.579063 
L 125.254844 124.579063 
C 125.254844 124.579063 125.254844 124.579063 125.254844 124.579063 
C 125.254844 124.579063 125.254844 124.579063 125.254844 124.579063 
z
" clip-path="url(#p7fc7a57d46)" style="fill: #d9d9d9"/>
   </g>
   <g id="patch_25">
    <path d="M 125.254844 124.579063 
C 125.254844 124.579063 125.254844 124.579063 125.254844 124.579063 
C 125.254844 124.579063 125.254844 124.579063 125.254844 124.579063 
L 125.254844 124.579063 
C 125.254844 124.579063 125.254844 124.579063 125.254844 124.579063 
C 125.254844 124.579063 125.254844 124.579063 125.254844 124.579063 
z
" clip-path="url(#p7fc7a57d46)" style="fill: #d9d9d9"/>
   </g>
   <g id="patch_26">
    <path d="M 125.254844 124.579063 
C 125.254844 124.579063 125.254844 124.579063 125.254844 124.579063 
C 125.254844 124.579063 125.254844 124.579063 125.254844 124.579063 
L 125.254844 124.579063 
C 125.254844 124.579063 125.254844 124.579063 125.254844 124.579063 
C 125.254844 124.579063 125.254844 124.579063 125.254844 124.579063 
z
" clip-path="url(#p7fc7a57d46)" style="fill: #d9d9d9"/>
   </g>
   <g id="patch_27">
    <path d="M 125.254844 124.579063 
C 125.254844 124.579063 125.254844 124.579063 125.254844 124.579063 
C 125.254844 124.579063 125.254844 124.579063 125.254844 124.579063 
L 125.254844 124.579063 
C 125.254844 124.579063 125.254844 124.579063 125.254844 124.579063 
C 125.254844 124.579063 125.254844 124.579063 125.254844 124.579063 
z
" clip-path="url(#p7fc7a57d46)" style="fill: #d9d9d9"/>
   </g>
   <g id="patch_28">
    <path d="M 125.254844 124.579063 
C 125.254844 124.579063 125.254844 124.579063 125.254844 124.579063 
C 125.254844 124.579063 125.254844 124.579063 125.254844 124.579063 
L 125.254844 124.579063 
C 125.254844 124.579063 125.254844 124.579063 125.254844 124.579063 
C 125.254844 124.579063 125.254844 124.579063 125.254844 124.579063 
z
" clip-path="url(#p7fc7a57d46)" style="fill: #d9d9d9"/>
   </g>
   <g id="patch_29">
    <path d="M 125.254844 124.579063 
C 125.254844 124.579063 125.254844 124.579063 125.254844 124.579063 
C 125.254844 124.579063 125.254844 124.579063 125.254844 124.579063 
L 125.254844 124.579063 
C 125.254844 124.579063 125.254844 124.579063 125.254844 124.579063 
C 125.254844 124.579063 125.254844 124.579063 125.254844 124.579063 
z
" clip-path="url(#p7fc7a57d46)" style="fill: #d9d9d9"/>
   </g>
   <g id="patch_30">
    <path d="M 125.254844 124.579063 
C 125.254844 124.579063 125.254844 124.579063 125.254844 124.579063 
C 125.254844 124.579063 125.254844 124.579063 125.254844 124.579063 
L 125.254844 124.579063 
C 125.254844 124.579063 125.254844 124.579063 125.254844 124.579063 
C 125.254844 124.579063 125.254844 124.579063 125.254844 124.579063 
z
" clip-path="url(#p7fc7a57d46)" style="fill: #d9d9d9"/>
   </g>
   <g id="patch_31">
    <path d="M 125.254844 124.579063 
C 125.254844 124.579063 125.254844 124.579063 125.254844 124.579063 
C 125.254844 124.579063 125.254844 124.579063 125.254844 124.579063 
L 125.254844 124.579063 
C 125.254844 124.579063 125.254844 124.579063 125.254844 124.579063 
C 125.254844 124.579063 125.254844 124.579063 125.254844 124.579063 
z
" clip-path="url(#p7fc7a57d46)" style="fill: #d9d9d9"/>
   </g>
   <g id="patch_32">
    <path d="M 125.254844 124.579063 
C 125.254844 124.579063 125.254844 124.579063 125.254844 124.579063 
C 125.254844 124.579063 125.254844 124.579063 125.254844 124.579063 
L 125.254844 124.579063 
C 125.254844 124.579063 125.254844 124.579063 125.254844 124.579063 
C 125.254844 124.579063 125.254844 124.579063 125.254844 124.579063 
z
" clip-path="url(#p7fc7a57d46)" style="fill: #d9d9d9"/>
   </g>
   <g id="patch_33">
    <path d="M 125.254844 124.579063 
C 125.254844 124.579063 125.254844 124.579063 125.254844 124.579063 
C 125.254844 124.579063 125.254844 124.579063 125.254844 124.579063 
L 125.254844 124.579063 
C 125.254844 124.579063 125.254844 124.579063 125.254844 124.579063 
C 125.254844 124.579063 125.254844 124.579063 125.254844 124.579063 
z
" clip-path="url(#p7fc7a57d46)" style="fill: #d9d9d9"/>
   </g>
   <g id="patch_34">
    <path d="M 125.254844 124.579063 
C 125.254844 124.579063 125.254844 124.579063 125.254844 124.579063 
C 125.254844 124.579063 125.254844 124.579063 125.254844 124.579063 
L 125.254844 124.579063 
C 125.254844 124.579063 125.254844 124.579063 125.254844 124.579063 
C 125.254844 124.579063 125.254844 124.579063 125.254844 124.579063 
z
" clip-path="url(#p7fc7a57d46)" style="fill: #d9d9d9"/>
   </g>
   <g id="patch_35">
    <path d="M 125.254844 124.579063 
C 125.254844 124.579063 125.254844 124.579063 125.254844 124.579063 
C 125.254844 124.579063 125.254844 124.579063 125.254844 124.579063 
L 127.837121 98.360761 
C 126.978957 98.276239 126.11716 98.233902 125.254844 98.233902 
C 124.392527 98.233902 123.530731 98.276239 122.672566 98.360761 
z
" clip-path="url(#p7fc7a57d46)" style="fill: #a1a1d8"/>
   </g>
   <g id="patch_36">
    <path d="M 125.254844 124.579063 
C 125.254844 124.579063 125.254844 124.579063 125.254844 124.579063 
C 125.254844 124.579063 125.254844 124.579063 125.254844 124.579063 
L 135.042088 92.314842 
C 133.986032 91.994491 132.914884 91.726183 131.832513 91.510886 
C 130.750142 91.295589 129.657853 91.133563 128.559592 91.025394 
z
" clip-path="url(#p7fc7a57d46)" style="fill: #a1a1d8"/>
   </g>
   <g id="patch_37">
    <path d="M 125.254844 124.579063 
C 125.254844 124.579063 125.254844 124.579063 125.254844 124.579063 
C 125.254844 124.579063 125.254844 124.579063 125.254844 124.579063 
L 145.425102 86.843163 
C 144.18995 86.18296 142.923128 85.583798 141.629212 85.04784 
C 140.335296 84.511883 139.015846 84.039776 137.675628 83.633225 
z
" clip-path="url(#p7fc7a57d46)" style="fill: #a1a1d8"/>
   </g>
   <g id="patch_38">
    <path d="M 125.254844 124.579063 
C 125.254844 124.579063 125.254844 124.579063 125.254844 124.579063 
C 125.254844 124.579063 125.254844 124.579063 125.254844 124.579063 
L 151.117637 93.065158 
C 150.08614 92.21863 149.013702 91.423256 147.904198 90.681909 
C 146.794693 89.940562 145.649459 89.254135 144.472633 88.625108 
z
" clip-path="url(#p7fc7a57d46)" style="fill: #a1a1d8"/>
   </g>
   <g id="patch_39">
    <path d="M 125.254844 124.579063 
C 125.254844 124.579063 125.254844 124.579063 125.254844 124.579063 
C 125.254844 124.579063 125.254844 124.579063 125.254844 124.579063 
L 146.744723 106.942775 
C 146.167461 106.239379 145.556012 105.564749 144.912585 104.921322 
C 144.269157 104.277894 143.594527 103.666446 142.891132 103.089184 
z
" clip-path="url(#p7fc7a57d46)" style="fill: #a1a1d8"/>
   </g>
   <g id="patch_40">
    <path d="M 125.254844 124.579063 
C 125.254844 124.579063 125.254844 124.579063 125.254844 124.579063 
C 125.254844 124.579063 125.254844 124.579063 125.254844 124.579063 
L 156.427005 107.917195 
C 155.881637 106.896884 155.286504 105.903963 154.643754 104.942021 
C 154.001004 103.980078 153.311413 103.050272 152.577472 102.155961 
z
" clip-path="url(#p7fc7a57d46)" style="fill: #a1a1d8"/>
   </g>
   <g id="patch_41">
    <path d="M 125.254844 124.579063 
C 125.254844 124.579063 125.254844 124.579063 125.254844 124.579063 
C 125.254844 124.579063 125.254844 124.579063 125.254844 124.579063 
L 161.952883 113.446834 
C 161.588509 112.245652 161.165379 111.063084 160.685023 109.903402 
C 160.204667 108.743719 159.667663 107.608319 159.075951 106.501304 
z
" clip-path="url(#p7fc7a57d46)" style="fill: #a1a1d8"/>
   </g>
   <g id="patch_42">
    <path d="M 125.254844 124.579063 
C 125.254844 124.579063 125.254844 124.579063 125.254844 124.579063 
C 125.254844 124.579063 125.254844 124.579063 125.254844 124.579063 
L 166.597427 120.507173 
C 166.464148 119.153969 166.26451 117.808124 165.999236 116.474499 
C 165.733961 115.140874 165.40337 113.821077 165.008654 112.519876 
z
" clip-path="url(#p7fc7a57d46)" style="fill: #a1a1d8"/>
   </g>
   <g id="patch_43">
    <path d="M 125.254844 124.579063 
C 125.254844 124.579063 125.254844 124.579063 125.254844 124.579063 
C 125.254844 124.579063 125.254844 124.579063 125.254844 124.579063 
L 159.683021 127.969942 
C 159.794009 126.843056 159.849604 125.711401 159.849604 124.579063 
C 159.849604 123.446724 159.794009 122.315069 159.683021 121.188183 
z
" clip-path="url(#p7fc7a57d46)" style="fill: #a1a1d8"/>
   </g>
   <g id="patch_44">
    <path d="M 125.254844 124.579063 
C 125.254844 124.579063 125.254844 124.579063 125.254844 124.579063 
C 125.254844 124.579063 125.254844 124.579063 125.254844 124.579063 
L 146.630806 131.06339 
C 146.843048 130.363723 147.02081 129.654057 147.16345 128.936955 
C 147.30609 128.219854 147.413437 127.496181 147.485102 126.768552 
z
" clip-path="url(#p7fc7a57d46)" style="fill: #a1a1d8"/>
   </g>
   <g id="patch_45">
    <path d="M 125.254844 124.579063 
C 125.254844 124.579063 125.254844 124.579063 125.254844 124.579063 
C 125.254844 124.579063 125.254844 124.579063 125.254844 124.579063 
L 135.504187 130.057451 
C 135.683503 129.721974 135.84624 129.377896 135.99181 129.026459 
C 136.13738 128.675023 136.265607 128.31665 136.376029 127.952637 
z
" clip-path="url(#p7fc7a57d46)" style="fill: #a1a1d8"/>
   </g>
   <g id="patch_46">
    <path d="M 125.254844 124.579063 
C 125.254844 124.579063 125.254844 124.579063 125.254844 124.579063 
C 125.254844 124.579063 125.254844 124.579063 125.254844 124.579063 
L 130.441542 128.835676 
C 130.580867 128.665907 130.711774 128.489401 130.833788 128.306794 
C 130.955802 128.124187 131.068777 127.935699 131.172305 127.742012 
z
" clip-path="url(#p7fc7a57d46)" style="fill: #a1a1d8"/>
   </g>
   <g id="patch_47">
    <path d="M 125.254844 124.579063 
C 125.254844 124.579063 125.254844 124.579063 125.254844 124.579063 
C 125.254844 124.579063 125.254844 124.579063 125.254844 124.579063 
L 134.030077 135.271715 
C 134.380063 134.984488 134.715737 134.680251 135.035885 134.360103 
C 135.356033 134.039955 135.660269 133.704282 135.947496 133.354295 
z
" clip-path="url(#p7fc7a57d46)" style="fill: #a1a1d8"/>
   </g>
   <g id="patch_48">
    <path d="M 125.254844 124.579063 
C 125.254844 124.579063 125.254844 124.579063 125.254844 124.579063 
C 125.254844 124.579063 125.254844 124.579063 125.254844 124.579063 
L 128.907103 131.411958 
C 129.130754 131.292414 129.3484 131.161962 129.559257 131.021072 
C 129.770114 130.880182 129.973926 130.729025 130.169957 130.568146 
z
" clip-path="url(#p7fc7a57d46)" style="fill: #a1a1d8"/>
   </g>
   <g id="patch_49">
    <path d="M 125.254844 124.579063 
C 125.254844 124.579063 125.254844 124.579063 125.254844 124.579063 
C 125.254844 124.579063 125.254844 124.579063 125.254844 124.579063 
L 126.379369 128.286124 
C 126.500706 128.249317 126.620164 128.206575 126.737309 128.158051 
C 126.854455 128.109528 126.969148 128.055282 127.080973 127.99551 
z
" clip-path="url(#p7fc7a57d46)" style="fill: #a1a1d8"/>
   </g>
   <g id="patch_50">
    <path d="M 125.254844 124.579063 
C 125.254844 124.579063 125.254844 124.579063 125.254844 124.579063 
C 125.254844 124.579063 125.254844 124.579063 125.254844 124.579063 
L 126.25945 134.779005 
C 126.59331 134.746122 126.925353 134.696868 127.254382 134.63142 
C 127.583411 134.565972 127.909028 134.48441 128.230057 134.387026 
z
" clip-path="url(#p7fc7a57d46)" style="fill: #a1a1d8"/>
   </g>
   <g id="patch_51">
    <path d="M 125.254844 124.579063 
C 125.254844 124.579063 125.254844 124.579063 125.254844 124.579063 
C 125.254844 124.579063 125.254844 124.579063 125.254844 124.579063 
L 123.000467 147.468138 
C 123.74966 147.541927 124.502025 147.578889 125.254844 147.578889 
C 126.007662 147.578889 126.760027 147.541927 127.509221 147.468138 
z
" clip-path="url(#p7fc7a57d46)" style="fill: #a1a1d8"/>
   </g>
   <g id="patch_52">
    <path d="M 125.254844 124.579063 
C 125.254844 124.579063 125.254844 124.579063 125.254844 124.579063 
C 125.254844 124.579063 125.254844 124.579063 125.254844 124.579063 
L 113.663506 162.790583 
C 114.914226 163.169984 116.18282 163.487751 117.464705 163.742733 
C 118.746591 163.997716 120.040222 164.189608 121.340928 164.317717 
z
" clip-path="url(#p7fc7a57d46)" style="fill: #a1a1d8"/>
   </g>
   <g id="patch_53">
    <path d="M 125.254844 124.579063 
C 125.254844 124.579063 125.254844 124.579063 125.254844 124.579063 
C 125.254844 124.579063 125.254844 124.579063 125.254844 124.579063 
L 98.447413 174.732237 
C 100.089002 175.609684 101.772681 176.406005 103.492369 177.118323 
C 105.212058 177.830642 106.965683 178.458099 108.74691 178.998428 
z
" clip-path="url(#p7fc7a57d46)" style="fill: #a1a1d8"/>
   </g>
   <g id="patch_54">
    <path d="M 125.254844 124.579063 
C 125.254844 124.579063 125.254844 124.579063 125.254844 124.579063 
C 125.254844 124.579063 125.254844 124.579063 125.254844 124.579063 
L 102.966823 151.737094 
C 103.855746 152.466614 104.779951 153.152051 105.736099 153.790929 
C 106.692247 154.429806 107.679186 155.021355 108.69335 155.563437 
z
" clip-path="url(#p7fc7a57d46)" style="fill: #a1a1d8"/>
   </g>
   <g id="patch_55">
    <path d="M 125.254844 124.579063 
C 125.254844 124.579063 125.254844 124.579063 125.254844 124.579063 
C 125.254844 124.579063 125.254844 124.579063 125.254844 124.579063 
L 92.212957 151.695838 
C 93.100529 152.777349 94.040666 153.81463 95.029971 154.803935 
C 96.019277 155.79324 97.056558 156.733377 98.138068 157.620949 
z
" clip-path="url(#p7fc7a57d46)" style="fill: #a1a1d8"/>
   </g>
   <g id="patch_56">
    <path d="M 125.254844 124.579063 
C 125.254844 124.579063 125.254844 124.579063 125.254844 124.579063 
C 125.254844 124.579063 125.254844 124.579063 125.254844 124.579063 
L 104.263837 135.798989 
C 104.631082 136.486056 105.031839 137.154679 105.46466 137.802441 
C 105.897481 138.450203 106.361844 139.076325 106.856072 139.678544 
z
" clip-path="url(#p7fc7a57d46)" style="fill: #a1a1d8"/>
   </g>
   <g id="patch_57">
    <path d="M 125.254844 124.579063 
C 125.254844 124.579063 125.254844 124.579063 125.254844 124.579063 
C 125.254844 124.579063 125.254844 124.579063 125.254844 124.579063 
L 125.254844 124.579063 
C 125.254844 124.579063 125.254844 124.579063 125.254844 124.579063 
C 125.254844 124.579063 125.254844 124.579063 125.254844 124.579063 
z
" clip-path="url(#p7fc7a57d46)" style="fill: #a1a1d8"/>
   </g>
   <g id="patch_58">
    <path d="M 125.254844 124.579063 
C 125.254844 124.579063 125.254844 124.579063 125.254844 124.579063 
C 125.254844 124.579063 125.254844 124.579063 125.254844 124.579063 
L 93.816512 127.675468 
C 93.917862 128.704491 94.069673 129.727919 94.271397 130.742053 
C 94.473121 131.756188 94.724514 132.759807 95.024669 133.749286 
z
" clip-path="url(#p7fc7a57d46)" style="fill: #a1a1d8"/>
   </g>
   <g id="patch_59">
    <path d="M 125.254844 124.579063 
C 125.254844 124.579063 125.254844 124.579063 125.254844 124.579063 
C 125.254844 124.579063 125.254844 124.579063 125.254844 124.579063 
L 101.179029 122.207802 
C 101.101414 122.995839 101.062536 123.787212 101.062536 124.579063 
C 101.062536 125.370913 101.101414 126.162286 101.179029 126.950323 
z
" clip-path="url(#p7fc7a57d46)" style="fill: #a1a1d8"/>
   </g>
   <g id="patch_60">
    <path d="M 125.254844 124.579063 
C 125.254844 124.579063 125.254844 124.579063 125.254844 124.579063 
C 125.254844 124.579063 125.254844 124.579063 125.254844 124.579063 
L 99.504769 116.767863 
C 99.249097 117.610701 99.03496 118.465584 98.863131 119.329424 
C 98.691303 120.193265 98.56199 121.06502 98.47566 121.941543 
z
" clip-path="url(#p7fc7a57d46)" style="fill: #a1a1d8"/>
   </g>
   <g id="patch_61">
    <path d="M 125.254844 124.579063 
C 125.254844 124.579063 125.254844 124.579063 125.254844 124.579063 
C 125.254844 124.579063 125.254844 124.579063 125.254844 124.579063 
L 97.446973 109.715446 
C 96.960464 110.625639 96.518937 111.55917 96.123986 112.512666 
C 95.729035 113.466163 95.381136 114.438475 95.081545 115.426093 
z
" clip-path="url(#p7fc7a57d46)" style="fill: #a1a1d8"/>
   </g>
   <g id="patch_62">
    <path d="M 125.254844 124.579063 
C 125.254844 124.579063 125.254844 124.579063 125.254844 124.579063 
C 125.254844 124.579063 125.254844 124.579063 125.254844 124.579063 
L 101.818849 105.345638 
C 101.18931 106.112734 100.597813 106.910275 100.046494 107.735382 
C 99.495175 108.560489 98.984699 109.412167 98.51691 110.287339 
z
" clip-path="url(#p7fc7a57d46)" style="fill: #a1a1d8"/>
   </g>
   <g id="patch_63">
    <path d="M 125.254844 124.579063 
C 125.254844 124.579063 125.254844 124.579063 125.254844 124.579063 
C 125.254844 124.579063 125.254844 124.579063 125.254844 124.579063 
L 109.518803 105.404641 
C 108.891195 105.919705 108.289254 106.465272 107.715154 107.039373 
C 107.141054 107.613473 106.595486 108.215414 106.080422 108.843021 
z
" clip-path="url(#p7fc7a57d46)" style="fill: #a1a1d8"/>
   </g>
   <g id="patch_64">
    <path d="M 125.254844 124.579063 
C 125.254844 124.579063 125.254844 124.579063 125.254844 124.579063 
C 125.254844 124.579063 125.254844 124.579063 125.254844 124.579063 
L 106.721654 89.905903 
C 105.58675 90.512522 104.482313 91.174496 103.412332 91.889434 
C 102.342352 92.604372 101.308118 93.371412 100.313366 94.187784 
z
" clip-path="url(#p7fc7a57d46)" style="fill: #a1a1d8"/>
   </g>
   <g id="patch_65">
    <path d="M 125.254844 124.579063 
C 125.254844 124.579063 125.254844 124.579063 125.254844 124.579063 
C 125.254844 124.579063 125.254844 124.579063 125.254844 124.579063 
L 112.445621 82.352713 
C 111.063489 82.771978 109.702776 83.258849 108.368395 83.811568 
C 107.034014 84.364287 105.727574 84.982187 104.453794 85.663036 
z
" clip-path="url(#p7fc7a57d46)" style="fill: #a1a1d8"/>
   </g>
   <g id="patch_66">
    <path d="M 125.254844 124.579063 
C 125.254844 124.579063 125.254844 124.579063 125.254844 124.579063 
C 125.254844 124.579063 125.254844 124.579063 125.254844 124.579063 
L 120.979993 81.17577 
C 119.559338 81.315692 118.14641 81.525281 116.746311 81.803778 
C 115.346212 82.082275 113.96063 82.429345 112.59457 82.843734 
z
" clip-path="url(#p7fc7a57d46)" style="fill: #a1a1d8"/>
   </g>
   <g id="patch_67">
    <path d="M 122.672566 98.360761 
C 123.530731 98.276239 124.392527 98.233902 125.254844 98.233902 
C 126.11716 98.233902 126.978957 98.276239 127.837121 98.360761 
L 132.315224 52.893816 
C 129.968859 52.662719 127.612562 52.546961 125.254844 52.546961 
C 122.897126 52.546961 120.540828 52.662719 118.194463 52.893816 
z
" clip-path="url(#p7fc7a57d46)" style="fill: #ff8c8e"/>
   </g>
   <g id="patch_68">
    <path d="M 128.559592 91.025394 
C 129.657853 91.133563 130.750142 91.295589 131.832513 91.510886 
C 132.914884 91.726183 133.986032 91.994491 135.042088 92.314842 
L 148.094053 49.288279 
C 145.629674 48.540717 143.130076 47.914601 140.604289 47.41219 
C 138.078502 46.90978 135.52957 46.531682 132.966701 46.279261 
z
" clip-path="url(#p7fc7a57d46)" style="fill: #ff8c8e"/>
   </g>
   <g id="patch_69">
    <path d="M 137.675628 83.633225 
C 139.015846 84.039776 140.335296 84.511883 141.629212 85.04784 
C 142.923128 85.583798 144.18995 86.18296 145.425102 86.843163 
L 151.859362 74.80551 
C 150.230199 73.934704 148.559264 73.144411 146.852593 72.437484 
C 145.145921 71.730558 143.40557 71.10785 141.637825 70.57161 
z
" clip-path="url(#p7fc7a57d46)" style="fill: #ff8c8e"/>
   </g>
   <g id="patch_70">
    <path d="M 144.472633 88.625108 
C 145.649459 89.254135 146.794693 89.940562 147.904198 90.681909 
C 149.013702 91.423256 150.08614 92.21863 151.117637 93.065158 
L 166.779555 73.981056 
C 165.123406 72.62189 163.401525 71.344856 161.62013 70.154566 
C 159.838735 68.964275 157.999974 67.862164 156.110488 66.852213 
z
" clip-path="url(#p7fc7a57d46)" style="fill: #ff8c8e"/>
   </g>
   <g id="patch_71">
    <path d="M 142.891132 103.089184 
C 143.594527 103.666446 144.269157 104.277894 144.912585 104.921322 
C 145.556012 105.564749 146.167461 106.239379 146.744723 106.942775 
L 165.514449 91.538859 
C 164.432993 90.221102 163.287492 88.957235 162.082081 87.751825 
C 160.876671 86.546415 159.612805 85.400913 158.295048 84.319458 
z
" clip-path="url(#p7fc7a57d46)" style="fill: #ff8c8e"/>
   </g>
   <g id="patch_72">
    <path d="M 152.577472 102.155961 
C 153.311413 103.050272 154.001004 103.980078 154.643754 104.942021 
C 155.286504 105.903963 155.881637 106.896884 156.427005 107.917195 
L 171.091302 100.078965 
C 170.289377 98.57867 169.414275 97.11865 168.469157 95.704181 
C 167.524039 94.289712 166.510044 92.922499 165.430835 91.607478 
z
" clip-path="url(#p7fc7a57d46)" style="fill: #ff8c8e"/>
   </g>
   <g id="patch_73">
    <path d="M 159.075951 106.501304 
C 159.667663 107.608319 160.204667 108.743719 160.685023 109.903402 
C 161.165379 111.063084 161.588509 112.245652 161.952883 113.446834 
L 182.833761 107.112689 
C 182.262061 105.228045 181.598174 103.372606 180.844499 101.553073 
C 180.090824 99.733541 179.248269 97.952108 178.319878 96.215211 
z
" clip-path="url(#p7fc7a57d46)" style="fill: #ff8c8e"/>
   </g>
   <g id="patch_74">
    <path d="M 165.008654 112.519876 
C 165.40337 113.821077 165.733961 115.140874 165.999236 116.474499 
C 166.26451 117.808124 166.464148 119.153969 166.597427 120.507173 
L 190.935094 118.110122 
C 190.723356 115.96031 190.406195 113.822189 189.984758 111.703482 
C 189.563321 109.584775 189.038116 107.488037 188.411039 105.42084 
z
" clip-path="url(#p7fc7a57d46)" style="fill: #ff8c8e"/>
   </g>
   <g id="patch_75">
    <path d="M 159.683021 121.188183 
C 159.794009 122.315069 159.849604 123.446724 159.849604 124.579063 
C 159.849604 125.711401 159.794009 126.843056 159.683021 127.969942 
L 165.826296 128.575002 
C 165.957089 127.247038 166.022604 125.913452 166.022604 124.579063 
C 166.022604 123.244673 165.957089 121.911087 165.826296 120.583123 
z
" clip-path="url(#p7fc7a57d46)" style="fill: #ff8c8e"/>
   </g>
   <g id="patch_76">
    <path d="M 147.485102 126.768552 
C 147.413437 127.496181 147.30609 128.219854 147.16345 128.936955 
C 147.02081 129.654057 146.843048 130.363723 146.630806 131.06339 
L 151.598469 132.570314 
C 151.860034 131.708048 152.079107 130.833459 152.254897 129.949707 
C 152.430686 129.065955 152.562979 128.174105 152.651299 127.277378 
z
" clip-path="url(#p7fc7a57d46)" style="fill: #ff8c8e"/>
   </g>
   <g id="patch_77">
    <path d="M 136.376029 127.952637 
C 136.265607 128.31665 136.13738 128.675023 135.99181 129.026459 
C 135.84624 129.377896 135.683503 129.721974 135.504187 130.057451 
L 147.916995 136.692235 
C 148.313477 135.950469 148.673302 135.189684 148.995169 134.412627 
C 149.317036 133.635571 149.600558 132.84318 149.844711 132.038317 
z
" clip-path="url(#p7fc7a57d46)" style="fill: #ff8c8e"/>
   </g>
   <g id="patch_78">
    <path d="M 131.172305 127.742012 
C 131.068777 127.935699 130.955802 128.124187 130.833788 128.306794 
C 130.711774 128.489401 130.580867 128.665907 130.441542 128.835676 
L 138.89563 135.773766 
C 139.262049 135.327283 139.606327 134.863079 139.927219 134.38283 
C 140.248111 133.902581 140.54523 133.406867 140.817504 132.897478 
z
" clip-path="url(#p7fc7a57d46)" style="fill: #ff8c8e"/>
   </g>
   <g id="patch_79">
    <path d="M 135.947496 133.354295 
C 135.660269 133.704282 135.356033 134.039955 135.035885 134.360103 
C 134.715737 134.680251 134.380063 134.984488 134.030077 135.271715 
L 147.338696 151.488314 
C 148.219476 150.765477 149.064236 149.999831 149.869924 149.194143 
C 150.675612 148.388454 151.441258 147.543695 152.164095 146.662915 
z
" clip-path="url(#p7fc7a57d46)" style="fill: #ff8c8e"/>
   </g>
   <g id="patch_80">
    <path d="M 130.169957 130.568146 
C 129.973926 130.729025 129.770114 130.880182 129.559257 131.021072 
C 129.3484 131.161962 129.130754 131.292414 128.907103 131.411958 
L 128.907103 131.411958 
C 129.130754 131.292414 129.3484 131.161962 129.559257 131.021072 
C 129.770114 130.880182 129.973926 130.729025 130.169957 130.568146 
z
" clip-path="url(#p7fc7a57d46)" style="fill: #ff8c8e"/>
   </g>
   <g id="patch_81">
    <path d="M 127.080973 127.99551 
C 126.969148 128.055282 126.854455 128.109528 126.737309 128.158051 
C 126.620164 128.206575 126.500706 128.249317 126.379369 128.286124 
L 128.941845 136.733478 
C 129.339678 136.612797 129.731345 136.472656 130.115433 136.313562 
C 130.49952 136.154468 130.875565 135.976611 131.24221 135.780636 
z
" clip-path="url(#p7fc7a57d46)" style="fill: #ff8c8e"/>
   </g>
   <g id="patch_82">
    <path d="M 128.230057 134.387026 
C 127.909028 134.48441 127.583411 134.565972 127.254382 134.63142 
C 126.925353 134.696868 126.59331 134.746122 126.25945 134.779005 
L 126.25945 134.779005 
C 126.59331 134.746122 126.925353 134.696868 127.254382 134.63142 
C 127.583411 134.565972 127.909028 134.48441 128.230057 134.387026 
z
" clip-path="url(#p7fc7a57d46)" style="fill: #ff8c8e"/>
   </g>
   <g id="patch_83">
    <path d="M 127.509221 147.468138 
C 126.760027 147.541927 126.007662 147.578889 125.254844 147.578889 
C 124.502025 147.578889 123.74966 147.541927 123.000467 147.468138 
L 123.000467 147.468138 
C 123.74966 147.541927 124.502025 147.578889 125.254844 147.578889 
C 126.007662 147.578889 126.760027 147.541927 127.509221 147.468138 
z
" clip-path="url(#p7fc7a57d46)" style="fill: #ff8c8e"/>
   </g>
   <g id="patch_84">
    <path d="M 121.340928 164.317717 
C 120.040222 164.189608 118.746591 163.997716 117.464705 163.742733 
C 116.18282 163.487751 114.914226 163.169984 113.663506 162.790583 
L 111.866384 168.714901 
C 113.311016 169.153125 114.776292 169.520158 116.256921 169.814673 
C 117.73755 170.109188 119.231747 170.330832 120.734114 170.478802 
z
" clip-path="url(#p7fc7a57d46)" style="fill: #ff8c8e"/>
   </g>
   <g id="patch_85">
    <path d="M 108.74691 178.998428 
C 106.965683 178.458099 105.212058 177.830642 103.492369 177.118323 
C 101.772681 176.406005 100.089002 175.609684 98.447413 174.732237 
L 88.892393 192.608424 
C 91.119095 193.798621 93.402891 194.878776 95.735531 195.844987 
C 98.068171 196.811198 100.446844 197.662301 102.862957 198.395221 
z
" clip-path="url(#p7fc7a57d46)" style="fill: #ff8c8e"/>
   </g>
   <g id="patch_86">
    <path d="M 108.69335 155.563437 
C 107.679186 155.021355 106.692247 154.429806 105.736099 153.790929 
C 104.779951 153.152051 103.855746 152.466614 102.966823 151.737094 
L 94.266232 162.338795 
C 95.502165 163.353098 96.787152 164.30611 98.116552 165.194387 
C 99.445952 166.082663 100.818163 166.905135 102.228228 167.65883 
z
" clip-path="url(#p7fc7a57d46)" style="fill: #ff8c8e"/>
   </g>
   <g id="patch_87">
    <path d="M 98.138068 157.620949 
C 97.056558 156.733377 96.019277 155.79324 95.029971 154.803935 
C 94.040666 153.81463 93.100529 152.777349 92.212957 151.695838 
L 92.212957 151.695838 
C 93.100529 152.777349 94.040666 153.81463 95.029971 154.803935 
C 96.019277 155.79324 97.056558 156.733377 98.138068 157.620949 
z
" clip-path="url(#p7fc7a57d46)" style="fill: #ff8c8e"/>
   </g>
   <g id="patch_88">
    <path d="M 106.856072 139.678544 
C 106.361844 139.076325 105.897481 138.450203 105.46466 137.802441 
C 105.031839 137.154679 104.631082 136.486056 104.263837 135.798989 
L 104.263837 135.798989 
C 104.631082 136.486056 105.031839 137.154679 105.46466 137.802441 
C 105.897481 138.450203 106.361844 139.076325 106.856072 139.678544 
z
" clip-path="url(#p7fc7a57d46)" style="fill: #ff8c8e"/>
   </g>
   <g id="patch_89">
    <path d="M 125.254844 124.579063 
C 125.254844 124.579063 125.254844 124.579063 125.254844 124.579063 
C 125.254844 124.579063 125.254844 124.579063 125.254844 124.579063 
L 105.814847 130.476121 
C 106.007866 131.112421 106.23201 131.738861 106.486469 132.353178 
C 106.740927 132.967495 107.025393 133.568948 107.33884 134.155366 
z
" clip-path="url(#p7fc7a57d46)" style="fill: #ff8c8e"/>
   </g>
   <g id="patch_90">
    <path d="M 95.024669 133.749286 
C 94.724514 132.759807 94.473121 131.756188 94.271397 130.742053 
C 94.069673 129.727919 93.917862 128.704491 93.816512 127.675468 
L 80.585885 128.978571 
C 80.729887 130.440653 80.945587 131.894783 81.232205 133.33571 
C 81.518824 134.776636 81.876015 136.202622 82.302488 137.608517 
z
" clip-path="url(#p7fc7a57d46)" style="fill: #ff8c8e"/>
   </g>
   <g id="patch_91">
    <path d="M 101.179029 126.950323 
C 101.101414 126.162286 101.062536 125.370913 101.062536 124.579063 
C 101.062536 123.787212 101.101414 122.995839 101.179029 122.207802 
L 89.555046 121.062939 
C 89.439958 122.231447 89.38231 123.404901 89.38231 124.579062 
C 89.38231 125.753224 89.439958 126.926678 89.555046 128.095186 
z
" clip-path="url(#p7fc7a57d46)" style="fill: #ff8c8e"/>
   </g>
   <g id="patch_92">
    <path d="M 98.47566 121.941543 
C 98.56199 121.06502 98.691303 120.193265 98.863131 119.329424 
C 99.03496 118.465584 99.249097 117.610701 99.504769 116.767863 
L 85.501033 112.519876 
C 85.106318 113.821077 84.775726 115.140874 84.510452 116.474499 
C 84.245177 117.808124 84.04554 119.153969 83.912261 120.507173 
z
" clip-path="url(#p7fc7a57d46)" style="fill: #ff8c8e"/>
   </g>
   <g id="patch_93">
    <path d="M 95.081545 115.426093 
C 95.381136 114.438475 95.729035 113.466163 96.123986 112.512666 
C 96.518937 111.55917 96.960464 110.625639 97.446973 109.715446 
L 82.446875 101.697726 
C 81.697935 103.098895 81.018239 104.53599 80.410244 106.003821 
C 79.802248 107.471652 79.266686 108.968449 78.805491 110.488805 
z
" clip-path="url(#p7fc7a57d46)" style="fill: #ff8c8e"/>
   </g>
   <g id="patch_94">
    <path d="M 98.51691 110.287339 
C 98.984699 109.412167 99.495175 108.560489 100.046494 107.735382 
C 100.597813 106.910275 101.18931 106.112734 101.818849 105.345638 
L 78.001775 85.799471 
C 76.732461 87.346134 75.539849 88.954186 74.428246 90.617816 
C 73.316644 92.281446 72.287391 93.998651 71.344206 95.763226 
z
" clip-path="url(#p7fc7a57d46)" style="fill: #ff8c8e"/>
   </g>
   <g id="patch_95">
    <path d="M 106.080422 108.843021 
C 106.595486 108.215414 107.141054 107.613473 107.715154 107.039373 
C 108.289254 106.465272 108.891195 105.919705 109.518803 105.404641 
L 81.810967 71.642546 
C 80.078276 73.064529 78.416445 74.570725 76.831476 76.155694 
C 75.246506 77.740664 73.74031 79.402495 72.318327 81.135186 
z
" clip-path="url(#p7fc7a57d46)" style="fill: #ff8c8e"/>
   </g>
   <g id="patch_96">
    <path d="M 100.313366 94.187784 
C 101.308118 93.371412 102.342352 92.604372 103.412332 91.889434 
C 104.482313 91.174496 105.58675 90.512522 106.721654 89.905903 
L 95.994004 69.835882 
C 94.202178 70.793633 92.458455 71.83878 90.769133 72.967549 
C 89.079811 74.096318 87.446927 75.307347 85.876378 76.596263 
z
" clip-path="url(#p7fc7a57d46)" style="fill: #ff8c8e"/>
   </g>
   <g id="patch_97">
    <path d="M 104.453794 85.663036 
C 105.727574 84.982187 107.034014 84.364287 108.368395 83.811568 
C 109.702776 83.258849 111.063489 82.771978 112.445621 82.352713 
L 98.876403 37.620997 
C 96.030136 38.484403 93.227975 39.487032 90.480042 40.625263 
C 87.732108 41.763495 85.041715 43.035956 82.41858 44.43805 
z
" clip-path="url(#p7fc7a57d46)" style="fill: #ff8c8e"/>
   </g>
   <g id="patch_98">
    <path d="M 112.59457 82.843734 
C 113.96063 82.429345 115.346212 82.082275 116.746311 81.803778 
C 118.14641 81.525281 119.559338 81.315692 120.979993 81.17577 
L 117.420108 45.031658 
C 114.816403 45.288101 112.226858 45.672223 109.660826 46.182639 
C 107.094794 46.693054 104.555368 47.329147 102.051722 48.08862 
z
" clip-path="url(#p7fc7a57d46)" style="fill: #ff8c8e"/>
   </g>
   <g id="patch_99">
    <path d="M 118.194463 52.893816 
C 120.540828 52.662719 122.897126 52.546961 125.254844 52.546961 
C 127.612562 52.546961 129.968859 52.662719 132.315224 52.893816 
L 132.398962 52.04361 
C 130.024769 51.809773 127.640525 51.692642 125.254844 51.692642 
C 122.869162 51.692642 120.484919 51.809773 118.110725 52.04361 
z
" clip-path="url(#p7fc7a57d46)" style="fill: #828282"/>
   </g>
   <g id="patch_100">
    <path d="M 132.966701 46.279261 
C 135.52957 46.531682 138.078502 46.90978 140.604289 47.41219 
C 143.130076 47.914601 145.629674 48.540717 148.094053 49.288279 
L 149.37977 45.049839 
C 146.77666 44.260194 144.136349 43.598831 141.468375 43.068138 
C 138.8004 42.537445 136.107979 42.138062 133.400834 41.871431 
z
" clip-path="url(#p7fc7a57d46)" style="fill: #828282"/>
   </g>
   <g id="patch_101">
    <path d="M 141.637825 70.57161 
C 143.40557 71.10785 145.145921 71.730558 146.852593 72.437484 
C 148.559264 73.144411 150.230199 73.934704 151.859362 74.80551 
L 151.859362 74.80551 
C 150.230199 73.934704 148.559264 73.144411 146.852593 72.437484 
C 145.145921 71.730558 143.40557 71.10785 141.637825 70.57161 
z
" clip-path="url(#p7fc7a57d46)" style="fill: #828282"/>
   </g>
   <g id="patch_102">
    <path d="M 156.110488 66.852213 
C 157.999974 67.862164 159.838735 68.964275 161.62013 70.154566 
C 163.401525 71.344856 165.123406 72.62189 166.779555 73.981056 
L 169.712175 70.407647 
C 167.939064 68.952492 166.095577 67.58527 164.188374 66.310917 
C 162.28117 65.036564 160.312549 63.856618 158.289621 62.775341 
z
" clip-path="url(#p7fc7a57d46)" style="fill: #828282"/>
   </g>
   <g id="patch_103">
    <path d="M 158.295048 84.319458 
C 159.612805 85.400913 160.876671 86.546415 162.082081 87.751825 
C 163.287492 88.957235 164.432993 90.221102 165.514449 91.538859 
L 169.316346 88.418722 
C 168.132765 86.976523 166.879088 85.593304 165.559845 84.274061 
C 164.240602 82.954818 162.857383 81.701142 161.415185 80.51756 
z
" clip-path="url(#p7fc7a57d46)" style="fill: #828282"/>
   </g>
   <g id="patch_104">
    <path d="M 165.430835 91.607478 
C 166.510044 92.922499 167.524039 94.289712 168.469157 95.704181 
C 169.414275 97.11865 170.289377 98.57867 171.091302 100.078965 
L 174.734399 98.131689 
C 173.868737 96.51215 172.924081 94.936088 171.903845 93.409196 
C 170.883609 91.882305 169.789021 90.406424 168.624036 88.986886 
z
" clip-path="url(#p7fc7a57d46)" style="fill: #828282"/>
   </g>
   <g id="patch_105">
    <path d="M 178.319878 96.215211 
C 179.248269 97.952108 180.090824 99.733541 180.844499 101.553073 
C 181.598174 103.372606 182.262061 105.228045 182.833761 107.112689 
L 185.115572 106.420509 
C 184.521215 104.461178 183.831019 102.532209 183.047477 100.64057 
C 182.263934 98.748931 181.38799 96.896902 180.422807 95.091172 
z
" clip-path="url(#p7fc7a57d46)" style="fill: #828282"/>
   </g>
   <g id="patch_106">
    <path d="M 188.411039 105.42084 
C 189.038116 107.488037 189.563321 109.584775 189.984758 111.703482 
C 190.406195 113.822189 190.723356 115.96031 190.935094 118.110122 
L 190.935094 118.110122 
C 190.723356 115.96031 190.406195 113.822189 189.984758 111.703482 
C 189.563321 109.584775 189.038116 107.488037 188.411039 105.42084 
z
" clip-path="url(#p7fc7a57d46)" style="fill: #828282"/>
   </g>
   <g id="patch_107">
    <path d="M 165.826296 120.583123 
C 165.957089 121.911087 166.022604 123.244673 166.022604 124.579063 
C 166.022604 125.913452 165.957089 127.247038 165.826296 128.575002 
L 165.826296 128.575002 
C 165.957089 127.247038 166.022604 125.913452 166.022604 124.579063 
C 166.022604 123.244673 165.957089 121.911087 165.826296 120.583123 
z
" clip-path="url(#p7fc7a57d46)" style="fill: #828282"/>
   </g>
   <g id="patch_108">
    <path d="M 152.651299 127.277378 
C 152.562979 128.174105 152.430686 129.065955 152.254897 129.949707 
C 152.079107 130.833459 151.860034 131.708048 151.598469 132.570314 
L 151.598469 132.570314 
C 151.860034 131.708048 152.079107 130.833459 152.254897 129.949707 
C 152.430686 129.065955 152.562979 128.174105 152.651299 127.277378 
z
" clip-path="url(#p7fc7a57d46)" style="fill: #828282"/>
   </g>
   <g id="patch_109">
    <path d="M 149.844711 132.038317 
C 149.600558 132.84318 149.317036 133.635571 148.995169 134.412627 
C 148.673302 135.189684 148.313477 135.950469 147.916995 136.692235 
L 147.916995 136.692235 
C 148.313477 135.950469 148.673302 135.189684 148.995169 134.412627 
C 149.317036 133.635571 149.600558 132.84318 149.844711 132.038317 
z
" clip-path="url(#p7fc7a57d46)" style="fill: #828282"/>
   </g>
   <g id="patch_110">
    <path d="M 140.817504 132.897478 
C 140.54523 133.406867 140.248111 133.902581 139.927219 134.38283 
C 139.606327 134.863079 139.262049 135.327283 138.89563 135.773766 
L 138.89563 135.773766 
C 139.262049 135.327283 139.606327 134.863079 139.927219 134.38283 
C 140.248111 133.902581 140.54523 133.406867 140.817504 132.897478 
z
" clip-path="url(#p7fc7a57d46)" style="fill: #828282"/>
   </g>
   <g id="patch_111">
    <path d="M 152.164095 146.662915 
C 151.441258 147.543695 150.675612 148.388454 149.869924 149.194143 
C 149.064236 149.999831 148.219476 150.765477 147.338696 151.488314 
L 147.338696 151.488314 
C 148.219476 150.765477 149.064236 149.999831 149.869924 149.194143 
C 150.675612 148.388454 151.441258 147.543695 152.164095 146.662915 
z
" clip-path="url(#p7fc7a57d46)" style="fill: #828282"/>
   </g>
   <g id="patch_112">
    <path d="M 130.169957 130.568146 
C 129.973926 130.729025 129.770114 130.880182 129.559257 131.021072 
C 129.3484 131.161962 129.130754 131.292414 128.907103 131.411958 
L 128.907103 131.411958 
C 129.130754 131.292414 129.3484 131.161962 129.559257 131.021072 
C 129.770114 130.880182 129.973926 130.729025 130.169957 130.568146 
z
" clip-path="url(#p7fc7a57d46)" style="fill: #828282"/>
   </g>
   <g id="patch_113">
    <path d="M 131.24221 135.780636 
C 130.875565 135.976611 130.49952 136.154468 130.115433 136.313562 
C 129.731345 136.472656 129.339678 136.612797 128.941845 136.733478 
L 128.941845 136.733478 
C 129.339678 136.612797 129.731345 136.472656 130.115433 136.313562 
C 130.49952 136.154468 130.875565 135.976611 131.24221 135.780636 
z
" clip-path="url(#p7fc7a57d46)" style="fill: #828282"/>
   </g>
   <g id="patch_114">
    <path d="M 128.230057 134.387026 
C 127.909028 134.48441 127.583411 134.565972 127.254382 134.63142 
C 126.925353 134.696868 126.59331 134.746122 126.25945 134.779005 
L 126.25945 134.779005 
C 126.59331 134.746122 126.925353 134.696868 127.254382 134.63142 
C 127.583411 134.565972 127.909028 134.48441 128.230057 134.387026 
z
" clip-path="url(#p7fc7a57d46)" style="fill: #828282"/>
   </g>
   <g id="patch_115">
    <path d="M 127.509221 147.468138 
C 126.760027 147.541927 126.007662 147.578889 125.254844 147.578889 
C 124.502025 147.578889 123.74966 147.541927 123.000467 147.468138 
L 123.000467 147.468138 
C 123.74966 147.541927 124.502025 147.578889 125.254844 147.578889 
C 126.007662 147.578889 126.760027 147.541927 127.509221 147.468138 
z
" clip-path="url(#p7fc7a57d46)" style="fill: #828282"/>
   </g>
   <g id="patch_116">
    <path d="M 120.734114 170.478802 
C 119.231747 170.330832 117.73755 170.109188 116.256921 169.814673 
C 114.776292 169.520158 113.311016 169.153125 111.866384 168.714901 
L 111.866384 168.714901 
C 113.311016 169.153125 114.776292 169.520158 116.256921 169.814673 
C 117.73755 170.109188 119.231747 170.330832 120.734114 170.478802 
z
" clip-path="url(#p7fc7a57d46)" style="fill: #828282"/>
   </g>
   <g id="patch_117">
    <path d="M 102.862957 198.395221 
C 100.446844 197.662301 98.068171 196.811198 95.735531 195.844987 
C 93.402891 194.878776 91.119095 193.798621 88.892393 192.608424 
L 88.892393 192.608424 
C 91.119095 193.798621 93.402891 194.878776 95.735531 195.844987 
C 98.068171 196.811198 100.446844 197.662301 102.862957 198.395221 
z
" clip-path="url(#p7fc7a57d46)" style="fill: #828282"/>
   </g>
   <g id="patch_118">
    <path d="M 102.228228 167.65883 
C 100.818163 166.905135 99.445952 166.082663 98.116552 165.194387 
C 96.787152 164.30611 95.502165 163.353098 94.266232 162.338795 
L 94.266232 162.338795 
C 95.502165 163.353098 96.787152 164.30611 98.116552 165.194387 
C 99.445952 166.082663 100.818163 166.905135 102.228228 167.65883 
z
" clip-path="url(#p7fc7a57d46)" style="fill: #828282"/>
   </g>
   <g id="patch_119">
    <path d="M 98.138068 157.620949 
C 97.056558 156.733377 96.019277 155.79324 95.029971 154.803935 
C 94.040666 153.81463 93.100529 152.777349 92.212957 151.695838 
L 92.212957 151.695838 
C 93.100529 152.777349 94.040666 153.81463 95.029971 154.803935 
C 96.019277 155.79324 97.056558 156.733377 98.138068 157.620949 
z
" clip-path="url(#p7fc7a57d46)" style="fill: #828282"/>
   </g>
   <g id="patch_120">
    <path d="M 106.856072 139.678544 
C 106.361844 139.076325 105.897481 138.450203 105.46466 137.802441 
C 105.031839 137.154679 104.631082 136.486056 104.263837 135.798989 
L 104.263837 135.798989 
C 104.631082 136.486056 105.031839 137.154679 105.46466 137.802441 
C 105.897481 138.450203 106.361844 139.076325 106.856072 139.678544 
z
" clip-path="url(#p7fc7a57d46)" style="fill: #828282"/>
   </g>
   <g id="patch_121">
    <path d="M 107.33884 134.155366 
C 107.025393 133.568948 106.740927 132.967495 106.486469 132.353178 
C 106.23201 131.738861 106.007866 131.112421 105.814847 130.476121 
L 105.814847 130.476121 
C 106.007866 131.112421 106.23201 131.738861 106.486469 132.353178 
C 106.740927 132.967495 107.025393 133.568948 107.33884 134.155366 
z
" clip-path="url(#p7fc7a57d46)" style="fill: #828282"/>
   </g>
   <g id="patch_122">
    <path d="M 82.302488 137.608517 
C 81.876015 136.202622 81.518824 134.776636 81.232205 133.33571 
C 80.945587 131.894783 80.729887 130.440653 80.585885 128.978571 
L 80.585885 128.978571 
C 80.729887 130.440653 80.945587 131.894783 81.232205 133.33571 
C 81.518824 134.776636 81.876015 136.202622 82.302488 137.608517 
z
" clip-path="url(#p7fc7a57d46)" style="fill: #828282"/>
   </g>
   <g id="patch_123">
    <path d="M 89.555046 128.095186 
C 89.439958 126.926678 89.38231 125.753224 89.38231 124.579062 
C 89.38231 123.404901 89.439958 122.231447 89.555046 121.062939 
L 89.555046 121.062939 
C 89.439958 122.231447 89.38231 123.404901 89.38231 124.579062 
C 89.38231 125.753224 89.439958 126.926678 89.555046 128.095186 
z
" clip-path="url(#p7fc7a57d46)" style="fill: #828282"/>
   </g>
   <g id="patch_124">
    <path d="M 83.912261 120.507173 
C 84.04554 119.153969 84.245177 117.808124 84.510452 116.474499 
C 84.775726 115.140874 85.106318 113.821077 85.501033 112.519876 
L 85.501033 112.519876 
C 85.106318 113.821077 84.775726 115.140874 84.510452 116.474499 
C 84.245177 117.808124 84.04554 119.153969 83.912261 120.507173 
z
" clip-path="url(#p7fc7a57d46)" style="fill: #828282"/>
   </g>
   <g id="patch_125">
    <path d="M 78.805491 110.488805 
C 79.266686 108.968449 79.802248 107.471652 80.410244 106.003821 
C 81.018239 104.53599 81.697935 103.098895 82.446875 101.697726 
L 82.446875 101.697726 
C 81.697935 103.098895 81.018239 104.53599 80.410244 106.003821 
C 79.802248 107.471652 79.266686 108.968449 78.805491 110.488805 
z
" clip-path="url(#p7fc7a57d46)" style="fill: #828282"/>
   </g>
   <g id="patch_126">
    <path d="M 71.344206 95.763226 
C 72.287391 93.998651 73.316644 92.281446 74.428246 90.617816 
C 75.539849 88.954186 76.732461 87.346134 78.001775 85.799471 
L 74.723341 83.10893 
C 73.365962 84.762901 72.090606 86.48252 70.90188 88.261573 
C 69.713154 90.040627 68.612492 91.876971 67.603868 93.763974 
z
" clip-path="url(#p7fc7a57d46)" style="fill: #828282"/>
   </g>
   <g id="patch_127">
    <path d="M 72.318327 81.135186 
C 73.74031 79.402495 75.246506 77.740664 76.831476 76.155694 
C 78.416445 74.570725 80.078276 73.064529 81.810967 71.642546 
L 76.893399 65.650471 
C 74.964578 67.233413 73.114638 68.910101 71.35026 70.674479 
C 69.585883 72.438856 67.909195 74.288796 66.326252 76.217617 
z
" clip-path="url(#p7fc7a57d46)" style="fill: #828282"/>
   </g>
   <g id="patch_128">
    <path d="M 85.876378 76.596263 
C 87.446927 75.307347 89.079811 74.096318 90.769133 72.967549 
C 92.458455 71.83878 94.202178 70.793633 95.994004 69.835882 
L 91.744 61.884684 
C 89.69192 62.981544 87.694929 64.178494 85.76024 65.471212 
C 83.825552 66.763929 81.955499 68.150855 80.156835 69.62698 
z
" clip-path="url(#p7fc7a57d46)" style="fill: #828282"/>
   </g>
   <g id="patch_129">
    <path d="M 82.41858 44.43805 
C 85.041715 43.035956 87.732108 41.763495 90.480042 40.625263 
C 93.227975 39.487032 96.030136 38.484403 98.876403 37.620997 
L 93.068079 18.473521 
C 89.595087 19.527041 86.175912 20.750442 82.822906 22.139302 
C 79.469899 23.528163 76.187103 25.08081 72.986375 26.791635 
z
" clip-path="url(#p7fc7a57d46)" style="fill: #828282"/>
   </g>
   <g id="patch_130">
    <path d="M 102.051722 48.08862 
C 104.555368 47.329147 107.094794 46.693054 109.660826 46.182639 
C 112.226858 45.672223 114.816403 45.288101 117.420108 45.031658 
L 117.420108 45.031658 
C 114.816403 45.288101 112.226858 45.672223 109.660826 46.182639 
C 107.094794 46.693054 104.555368 47.329147 102.051722 48.08862 
z
" clip-path="url(#p7fc7a57d46)" style="fill: #828282"/>
   </g>
   <g id="patch_131">
    <path d="M 125.254844 124.579063 
C 125.254844 124.579063 125.254844 124.579063 125.254844 124.579063 
C 125.254844 124.579063 125.254844 124.579063 125.254844 124.579063 
L 132.398962 52.04361 
C 130.024769 51.809773 127.640525 51.692642 125.254844 51.692642 
C 122.869162 51.692642 120.484919 51.809773 118.110725 52.04361 
L 125.254844 124.579063 
z
" clip-path="url(#p7fc7a57d46)" style="fill: none; stroke: #292929; stroke-width: 0.5; stroke-linejoin: miter"/>
   </g>
   <g id="patch_132">
    <path d="M 125.254844 124.579063 
C 125.254844 124.579063 125.254844 124.579063 125.254844 124.579063 
C 125.254844 124.579063 125.254844 124.579063 125.254844 124.579063 
L 149.37977 45.049839 
C 146.77666 44.260194 144.136349 43.598831 141.468375 43.068138 
C 138.8004 42.537445 136.107979 42.138062 133.400834 41.871431 
L 125.254844 124.579063 
z
" clip-path="url(#p7fc7a57d46)" style="fill: none; stroke: #292929; stroke-width: 0.5; stroke-linejoin: miter"/>
   </g>
   <g id="patch_133">
    <path d="M 125.254844 124.579063 
C 125.254844 124.579063 125.254844 124.579063 125.254844 124.579063 
C 125.254844 124.579063 125.254844 124.579063 125.254844 124.579063 
L 151.859362 74.80551 
C 150.230199 73.934704 148.559264 73.144411 146.852593 72.437484 
C 145.145921 71.730558 143.40557 71.10785 141.637825 70.57161 
L 125.254844 124.579063 
z
" clip-path="url(#p7fc7a57d46)" style="fill: none; stroke: #292929; stroke-width: 0.5; stroke-linejoin: miter"/>
   </g>
   <g id="patch_134">
    <path d="M 125.254844 124.579063 
C 125.254844 124.579063 125.254844 124.579063 125.254844 124.579063 
C 125.254844 124.579063 125.254844 124.579063 125.254844 124.579063 
L 169.712175 70.407647 
C 167.939064 68.952492 166.095577 67.58527 164.188374 66.310917 
C 162.28117 65.036564 160.312549 63.856618 158.289621 62.775341 
L 125.254844 124.579063 
z
" clip-path="url(#p7fc7a57d46)" style="fill: none; stroke: #292929; stroke-width: 0.5; stroke-linejoin: miter"/>
   </g>
   <g id="patch_135">
    <path d="M 125.254844 124.579063 
C 125.254844 124.579063 125.254844 124.579063 125.254844 124.579063 
C 125.254844 124.579063 125.254844 124.579063 125.254844 124.579063 
L 169.316346 88.418722 
C 168.132765 86.976523 166.879088 85.593304 165.559845 84.274061 
C 164.240602 82.954818 162.857383 81.701142 161.415185 80.51756 
L 125.254844 124.579063 
z
" clip-path="url(#p7fc7a57d46)" style="fill: none; stroke: #292929; stroke-width: 0.5; stroke-linejoin: miter"/>
   </g>
   <g id="patch_136">
    <path d="M 125.254844 124.579063 
C 125.254844 124.579063 125.254844 124.579063 125.254844 124.579063 
C 125.254844 124.579063 125.254844 124.579063 125.254844 124.579063 
L 174.734399 98.131689 
C 173.868737 96.51215 172.924081 94.936088 171.903845 93.409196 
C 170.883609 91.882305 169.789021 90.406424 168.624036 88.986886 
L 125.254844 124.579063 
z
" clip-path="url(#p7fc7a57d46)" style="fill: none; stroke: #292929; stroke-width: 0.5; stroke-linejoin: miter"/>
   </g>
   <g id="patch_137">
    <path d="M 125.254844 124.579063 
C 125.254844 124.579063 125.254844 124.579063 125.254844 124.579063 
C 125.254844 124.579063 125.254844 124.579063 125.254844 124.579063 
L 185.115572 106.420509 
C 184.521215 104.461178 183.831019 102.532209 183.047477 100.64057 
C 182.263934 98.748931 181.38799 96.896902 180.422807 95.091172 
L 125.254844 124.579063 
z
" clip-path="url(#p7fc7a57d46)" style="fill: none; stroke: #292929; stroke-width: 0.5; stroke-linejoin: miter"/>
   </g>
   <g id="patch_138">
    <path d="M 125.254844 124.579063 
C 125.254844 124.579063 125.254844 124.579063 125.254844 124.579063 
C 125.254844 124.579063 125.254844 124.579063 125.254844 124.579063 
L 190.935094 118.110122 
C 190.723356 115.96031 190.406195 113.822189 189.984758 111.703482 
C 189.563321 109.584775 189.038116 107.488037 188.411039 105.42084 
L 125.254844 124.579063 
z
" clip-path="url(#p7fc7a57d46)" style="fill: none; stroke: #292929; stroke-width: 0.5; stroke-linejoin: miter"/>
   </g>
   <g id="patch_139">
    <path d="M 125.254844 124.579063 
C 125.254844 124.579063 125.254844 124.579063 125.254844 124.579063 
C 125.254844 124.579063 125.254844 124.579063 125.254844 124.579063 
L 165.826296 128.575002 
C 165.957089 127.247038 166.022604 125.913452 166.022604 124.579063 
C 166.022604 123.244673 165.957089 121.911087 165.826296 120.583123 
L 125.254844 124.579063 
z
" clip-path="url(#p7fc7a57d46)" style="fill: none; stroke: #292929; stroke-width: 0.5; stroke-linejoin: miter"/>
   </g>
   <g id="patch_140">
    <path d="M 125.254844 124.579063 
C 125.254844 124.579063 125.254844 124.579063 125.254844 124.579063 
C 125.254844 124.579063 125.254844 124.579063 125.254844 124.579063 
L 151.598469 132.570314 
C 151.860034 131.708048 152.079107 130.833459 152.254897 129.949707 
C 152.430686 129.065955 152.562979 128.174105 152.651299 127.277378 
L 125.254844 124.579063 
z
" clip-path="url(#p7fc7a57d46)" style="fill: none; stroke: #292929; stroke-width: 0.5; stroke-linejoin: miter"/>
   </g>
   <g id="patch_141">
    <path d="M 125.254844 124.579063 
C 125.254844 124.579063 125.254844 124.579063 125.254844 124.579063 
C 125.254844 124.579063 125.254844 124.579063 125.254844 124.579063 
L 147.916995 136.692235 
C 148.313477 135.950469 148.673302 135.189684 148.995169 134.412627 
C 149.317036 133.635571 149.600558 132.84318 149.844711 132.038317 
L 125.254844 124.579063 
z
" clip-path="url(#p7fc7a57d46)" style="fill: none; stroke: #292929; stroke-width: 0.5; stroke-linejoin: miter"/>
   </g>
   <g id="patch_142">
    <path d="M 125.254844 124.579063 
C 125.254844 124.579063 125.254844 124.579063 125.254844 124.579063 
C 125.254844 124.579063 125.254844 124.579063 125.254844 124.579063 
L 138.89563 135.773766 
C 139.262049 135.327283 139.606327 134.863079 139.927219 134.38283 
C 140.248111 133.902581 140.54523 133.406867 140.817504 132.897478 
L 125.254844 124.579063 
z
" clip-path="url(#p7fc7a57d46)" style="fill: none; stroke: #292929; stroke-width: 0.5; stroke-linejoin: miter"/>
   </g>
   <g id="patch_143">
    <path d="M 125.254844 124.579063 
C 125.254844 124.579063 125.254844 124.579063 125.254844 124.579063 
C 125.254844 124.579063 125.254844 124.579063 125.254844 124.579063 
L 147.338696 151.488314 
C 148.219476 150.765477 149.064236 149.999831 149.869924 149.194143 
C 150.675612 148.388454 151.441258 147.543695 152.164095 146.662915 
L 125.254844 124.579063 
z
" clip-path="url(#p7fc7a57d46)" style="fill: none; stroke: #292929; stroke-width: 0.5; stroke-linejoin: miter"/>
   </g>
   <g id="patch_144">
    <path d="M 125.254844 124.579063 
C 125.254844 124.579063 125.254844 124.579063 125.254844 124.579063 
C 125.254844 124.579063 125.254844 124.579063 125.254844 124.579063 
L 128.907103 131.411958 
C 129.130754 131.292414 129.3484 131.161962 129.559257 131.021072 
C 129.770114 130.880182 129.973926 130.729025 130.169957 130.568146 
L 125.254844 124.579063 
z
" clip-path="url(#p7fc7a57d46)" style="fill: none; stroke: #292929; stroke-width: 0.5; stroke-linejoin: miter"/>
   </g>
   <g id="patch_145">
    <path d="M 125.254844 124.579063 
C 125.254844 124.579063 125.254844 124.579063 125.254844 124.579063 
C 125.254844 124.579063 125.254844 124.579063 125.254844 124.579063 
L 128.941845 136.733478 
C 129.339678 136.612797 129.731345 136.472656 130.115433 136.313562 
C 130.49952 136.154468 130.875565 135.976611 131.24221 135.780636 
L 125.254844 124.579063 
z
" clip-path="url(#p7fc7a57d46)" style="fill: none; stroke: #292929; stroke-width: 0.5; stroke-linejoin: miter"/>
   </g>
   <g id="patch_146">
    <path d="M 125.254844 124.579063 
C 125.254844 124.579063 125.254844 124.579063 125.254844 124.579063 
C 125.254844 124.579063 125.254844 124.579063 125.254844 124.579063 
L 126.25945 134.779005 
C 126.59331 134.746122 126.925353 134.696868 127.254382 134.63142 
C 127.583411 134.565972 127.909028 134.48441 128.230057 134.387026 
L 125.254844 124.579063 
z
" clip-path="url(#p7fc7a57d46)" style="fill: none; stroke: #292929; stroke-width: 0.5; stroke-linejoin: miter"/>
   </g>
   <g id="patch_147">
    <path d="M 125.254844 124.579063 
C 125.254844 124.579063 125.254844 124.579063 125.254844 124.579063 
C 125.254844 124.579063 125.254844 124.579063 125.254844 124.579063 
L 123.000467 147.468138 
C 123.74966 147.541927 124.502025 147.578889 125.254844 147.578889 
C 126.007662 147.578889 126.760027 147.541927 127.509221 147.468138 
L 125.254844 124.579063 
z
" clip-path="url(#p7fc7a57d46)" style="fill: none; stroke: #292929; stroke-width: 0.5; stroke-linejoin: miter"/>
   </g>
   <g id="patch_148">
    <path d="M 125.254844 124.579063 
C 125.254844 124.579063 125.254844 124.579063 125.254844 124.579063 
C 125.254844 124.579063 125.254844 124.579063 125.254844 124.579063 
L 111.866384 168.714901 
C 113.311016 169.153125 114.776292 169.520158 116.256921 169.814673 
C 117.73755 170.109188 119.231747 170.330832 120.734114 170.478802 
L 125.254844 124.579063 
z
" clip-path="url(#p7fc7a57d46)" style="fill: none; stroke: #292929; stroke-width: 0.5; stroke-linejoin: miter"/>
   </g>
   <g id="patch_149">
    <path d="M 125.254844 124.579063 
C 125.254844 124.579063 125.254844 124.579063 125.254844 124.579063 
C 125.254844 124.579063 125.254844 124.579063 125.254844 124.579063 
L 88.892393 192.608424 
C 91.119095 193.798621 93.402891 194.878776 95.735531 195.844987 
C 98.068171 196.811198 100.446844 197.662301 102.862957 198.395221 
L 125.254844 124.579063 
z
" clip-path="url(#p7fc7a57d46)" style="fill: none; stroke: #292929; stroke-width: 0.5; stroke-linejoin: miter"/>
   </g>
   <g id="patch_150">
    <path d="M 125.254844 124.579063 
C 125.254844 124.579063 125.254844 124.579063 125.254844 124.579063 
C 125.254844 124.579063 125.254844 124.579063 125.254844 124.579063 
L 94.266232 162.338795 
C 95.502165 163.353098 96.787152 164.30611 98.116552 165.194387 
C 99.445952 166.082663 100.818163 166.905135 102.228228 167.65883 
L 125.254844 124.579063 
z
" clip-path="url(#p7fc7a57d46)" style="fill: none; stroke: #292929; stroke-width: 0.5; stroke-linejoin: miter"/>
   </g>
   <g id="patch_151">
    <path d="M 125.254844 124.579063 
C 125.254844 124.579063 125.254844 124.579063 125.254844 124.579063 
C 125.254844 124.579063 125.254844 124.579063 125.254844 124.579063 
L 92.212957 151.695838 
C 93.100529 152.777349 94.040666 153.81463 95.029971 154.803935 
C 96.019277 155.79324 97.056558 156.733377 98.138068 157.620949 
L 125.254844 124.579063 
z
" clip-path="url(#p7fc7a57d46)" style="fill: none; stroke: #292929; stroke-width: 0.5; stroke-linejoin: miter"/>
   </g>
   <g id="patch_152">
    <path d="M 125.254844 124.579063 
C 125.254844 124.579063 125.254844 124.579063 125.254844 124.579063 
C 125.254844 124.579063 125.254844 124.579063 125.254844 124.579063 
L 104.263837 135.798989 
C 104.631082 136.486056 105.031839 137.154679 105.46466 137.802441 
C 105.897481 138.450203 106.361844 139.076325 106.856072 139.678544 
L 125.254844 124.579063 
z
" clip-path="url(#p7fc7a57d46)" style="fill: none; stroke: #292929; stroke-width: 0.5; stroke-linejoin: miter"/>
   </g>
   <g id="patch_153">
    <path d="M 125.254844 124.579063 
C 125.254844 124.579063 125.254844 124.579063 125.254844 124.579063 
C 125.254844 124.579063 125.254844 124.579063 125.254844 124.579063 
L 105.814847 130.476121 
C 106.007866 131.112421 106.23201 131.738861 106.486469 132.353178 
C 106.740927 132.967495 107.025393 133.568948 107.33884 134.155366 
L 125.254844 124.579063 
z
" clip-path="url(#p7fc7a57d46)" style="fill: none; stroke: #292929; stroke-width: 0.5; stroke-linejoin: miter"/>
   </g>
   <g id="patch_154">
    <path d="M 125.254844 124.579063 
C 125.254844 124.579063 125.254844 124.579063 125.254844 124.579063 
C 125.254844 124.579063 125.254844 124.579063 125.254844 124.579063 
L 80.585885 128.978571 
C 80.729887 130.440653 80.945587 131.894783 81.232205 133.33571 
C 81.518824 134.776636 81.876015 136.202622 82.302488 137.608517 
L 125.254844 124.579063 
z
" clip-path="url(#p7fc7a57d46)" style="fill: none; stroke: #292929; stroke-width: 0.5; stroke-linejoin: miter"/>
   </g>
   <g id="patch_155">
    <path d="M 125.254844 124.579063 
C 125.254844 124.579063 125.254844 124.579063 125.254844 124.579063 
C 125.254844 124.579063 125.254844 124.579063 125.254844 124.579063 
L 89.555046 121.062939 
C 89.439958 122.231447 89.38231 123.404901 89.38231 124.579062 
C 89.38231 125.753224 89.439958 126.926678 89.555046 128.095186 
L 125.254844 124.579063 
z
" clip-path="url(#p7fc7a57d46)" style="fill: none; stroke: #292929; stroke-width: 0.5; stroke-linejoin: miter"/>
   </g>
   <g id="patch_156">
    <path d="M 125.254844 124.579063 
C 125.254844 124.579063 125.254844 124.579063 125.254844 124.579063 
C 125.254844 124.579063 125.254844 124.579063 125.254844 124.579063 
L 85.501033 112.519876 
C 85.106318 113.821077 84.775726 115.140874 84.510452 116.474499 
C 84.245177 117.808124 84.04554 119.153969 83.912261 120.507173 
L 125.254844 124.579063 
z
" clip-path="url(#p7fc7a57d46)" style="fill: none; stroke: #292929; stroke-width: 0.5; stroke-linejoin: miter"/>
   </g>
   <g id="patch_157">
    <path d="M 125.254844 124.579063 
C 125.254844 124.579063 125.254844 124.579063 125.254844 124.579063 
C 125.254844 124.579063 125.254844 124.579063 125.254844 124.579063 
L 82.446875 101.697726 
C 81.697935 103.098895 81.018239 104.53599 80.410244 106.003821 
C 79.802248 107.471652 79.266686 108.968449 78.805491 110.488805 
L 125.254844 124.579063 
z
" clip-path="url(#p7fc7a57d46)" style="fill: none; stroke: #292929; stroke-width: 0.5; stroke-linejoin: miter"/>
   </g>
   <g id="patch_158">
    <path d="M 125.254844 124.579063 
C 125.254844 124.579063 125.254844 124.579063 125.254844 124.579063 
C 125.254844 124.579063 125.254844 124.579063 125.254844 124.579063 
L 74.723341 83.10893 
C 73.365962 84.762901 72.090606 86.48252 70.90188 88.261573 
C 69.713154 90.040627 68.612492 91.876971 67.603868 93.763974 
L 125.254844 124.579063 
z
" clip-path="url(#p7fc7a57d46)" style="fill: none; stroke: #292929; stroke-width: 0.5; stroke-linejoin: miter"/>
   </g>
   <g id="patch_159">
    <path d="M 125.254844 124.579063 
C 125.254844 124.579063 125.254844 124.579063 125.254844 124.579063 
C 125.254844 124.579063 125.254844 124.579063 125.254844 124.579063 
L 76.893399 65.650471 
C 74.964578 67.233413 73.114638 68.910101 71.35026 70.674479 
C 69.585883 72.438856 67.909195 74.288796 66.326252 76.217617 
L 125.254844 124.579063 
z
" clip-path="url(#p7fc7a57d46)" style="fill: none; stroke: #292929; stroke-width: 0.5; stroke-linejoin: miter"/>
   </g>
   <g id="patch_160">
    <path d="M 125.254844 124.579063 
C 125.254844 124.579063 125.254844 124.579063 125.254844 124.579063 
C 125.254844 124.579063 125.254844 124.579063 125.254844 124.579063 
L 91.744 61.884684 
C 89.69192 62.981544 87.694929 64.178494 85.76024 65.471212 
C 83.825552 66.763929 81.955499 68.150855 80.156835 69.62698 
L 125.254844 124.579063 
z
" clip-path="url(#p7fc7a57d46)" style="fill: none; stroke: #292929; stroke-width: 0.5; stroke-linejoin: miter"/>
   </g>
   <g id="patch_161">
    <path d="M 125.254844 124.579063 
C 125.254844 124.579063 125.254844 124.579063 125.254844 124.579063 
C 125.254844 124.579063 125.254844 124.579063 125.254844 124.579063 
L 93.068079 18.473521 
C 89.595087 19.527041 86.175912 20.750442 82.822906 22.139302 
C 79.469899 23.528163 76.187103 25.08081 72.986375 26.791635 
L 125.254844 124.579063 
z
" clip-path="url(#p7fc7a57d46)" style="fill: none; stroke: #292929; stroke-width: 0.5; stroke-linejoin: miter"/>
   </g>
   <g id="patch_162">
    <path d="M 125.254844 124.579063 
C 125.254844 124.579063 125.254844 124.579063 125.254844 124.579063 
C 125.254844 124.579063 125.254844 124.579063 125.254844 124.579063 
L 117.420108 45.031658 
C 114.816403 45.288101 112.226858 45.672223 109.660826 46.182639 
C 107.094794 46.693054 104.555368 47.329147 102.051722 48.08862 
L 125.254844 124.579063 
z
" clip-path="url(#p7fc7a57d46)" style="fill: none; stroke: #292929; stroke-width: 0.5; stroke-linejoin: miter"/>
   </g>
   <g id="PathCollection_1">
    <defs>
     <path id="ma72c01b13c" d="M 0.193618 7.414054 
L 0.193618 7.414054 
C 0.054922 7.414054 -0.078235 7.358899 -0.176308 7.260826 
C -0.274381 7.162753 -0.329536 7.029596 -0.329536 6.890901 
L -0.329536 5.365008 
L -1.528416 6.56393 
L -1.528416 6.56393 
C -1.577018 6.612704 -1.634775 6.651408 -1.698366 6.677814 
C -1.761958 6.704221 -1.830141 6.717815 -1.898997 6.717815 
C -1.967853 6.717815 -2.036037 6.704221 -2.099628 6.677814 
C -2.163219 6.651408 -2.220976 6.612704 -2.269578 6.56393 
L -2.269578 6.56393 
C -2.318353 6.515327 -2.357056 6.457571 -2.383463 6.393979 
C -2.409869 6.330388 -2.423463 6.262205 -2.423463 6.193348 
C -2.423463 6.124492 -2.409869 6.056309 -2.383463 5.992718 
C -2.357056 5.929126 -2.318353 5.87137 -2.269578 5.822767 
L -0.329536 3.884106 
L -0.329536 0.820937 
L -2.98067 2.351538 
L -3.691824 5.001416 
L -3.691824 5.001416 
C -3.727584 5.135411 -3.815199 5.249836 -3.93523 5.319305 
C -4.055261 5.388775 -4.198123 5.407741 -4.332122 5.371997 
L -4.332122 5.371997 
C -4.466126 5.336237 -4.580558 5.248616 -4.650029 5.128576 
C -4.719499 5.008535 -4.73846 4.865662 -4.702703 4.731657 
L -4.262647 3.092721 
L -5.585535 3.855668 
L -5.585535 3.855668 
C -5.645013 3.890144 -5.710708 3.912561 -5.778854 3.921634 
C -5.847001 3.930706 -5.916272 3.926258 -5.982698 3.908543 
C -6.049125 3.890828 -6.111412 3.860192 -6.165991 3.818391 
C -6.220571 3.77659 -6.266379 3.724437 -6.300791 3.664922 
L -6.300791 3.664922 
C -6.335212 3.605364 -6.35755 3.539597 -6.366524 3.471396 
C -6.375498 3.403194 -6.370933 3.333888 -6.35309 3.267452 
C -6.335248 3.201017 -6.304476 3.138749 -6.26254 3.08422 
C -6.220605 3.029692 -6.168323 2.983966 -6.108695 2.949666 
L -4.785807 2.186762 
L -6.424743 1.746706 
L -6.424743 1.746706 
C -6.558747 1.710946 -6.673179 1.623325 -6.74265 1.503284 
C -6.81212 1.383244 -6.831081 1.240371 -6.795324 1.106366 
L -6.795324 1.106366 
C -6.777471 1.039969 -6.746703 0.977739 -6.704784 0.923241 
C -6.662864 0.868744 -6.61061 0.823041 -6.551015 0.788752 
C -6.491421 0.754464 -6.425647 0.732257 -6.357465 0.723406 
C -6.289282 0.714554 -6.220019 0.71923 -6.153645 0.737166 
L -3.505232 1.44698 
L -0.852424 -0.08496 
L -3.503767 -1.615666 
L -6.153645 -0.905851 
L -6.153645 -0.905851 
C -6.22011 -0.887939 -6.289462 -0.883321 -6.357716 -0.892262 
C -6.42597 -0.901202 -6.491793 -0.923527 -6.551403 -0.957953 
C -6.611013 -0.992379 -6.663247 -1.038234 -6.705103 -1.092883 
C -6.746958 -1.147533 -6.777619 -1.209911 -6.795324 -1.276432 
L -6.795324 -1.276432 
C -6.831068 -1.410431 -6.812101 -1.553293 -6.742632 -1.673324 
C -6.673162 -1.793355 -6.558738 -1.88097 -6.424743 -1.91673 
L -4.785807 -2.355447 
L -6.108695 -3.119732 
L -6.108695 -3.119732 
C -6.228699 -3.188976 -6.316415 -3.303132 -6.352417 -3.436921 
C -6.388419 -3.57071 -6.369839 -3.713469 -6.300791 -3.833586 
L -6.300791 -3.833586 
C -6.266491 -3.893214 -6.220765 -3.945496 -6.166237 -3.987431 
C -6.111708 -4.029367 -6.04944 -4.060139 -5.983005 -4.077981 
C -5.91657 -4.095823 -5.847263 -4.100389 -5.779062 -4.091415 
C -5.71086 -4.082441 -5.645094 -4.060102 -5.585535 -4.025682 
L -4.262647 -3.261396 
L -4.702703 -4.900332 
L -4.702703 -4.900332 
C -4.73846 -5.034337 -4.719499 -5.17721 -4.650029 -5.29725 
C -4.580558 -5.417291 -4.466126 -5.504912 -4.332122 -5.540672 
L -4.332122 -5.540672 
C -4.19831 -5.576464 -4.055613 -5.557686 -3.935617 -5.488496 
C -3.81562 -5.419305 -3.727882 -5.305212 -3.691824 -5.171472 
L -2.982009 -2.521594 
L -0.329411 -0.990302 
L -0.329411 -4.051588 
L -2.269453 -5.991589 
L -2.269453 -5.991589 
C -2.318227 -6.040191 -2.356931 -6.097947 -2.383337 -6.161539 
C -2.409744 -6.22513 -2.423338 -6.293314 -2.423338 -6.36217 
C -2.423338 -6.431026 -2.409744 -6.499209 -2.383337 -6.5628 
C -2.356931 -6.626392 -2.318227 -6.684149 -2.269453 -6.732751 
L -2.269453 -6.732751 
C -2.22085 -6.781526 -2.163094 -6.820229 -2.099502 -6.846635 
C -2.035911 -6.873042 -1.967728 -6.886636 -1.898871 -6.886636 
C -1.830015 -6.886636 -1.761832 -6.873042 -1.698241 -6.846635 
C -1.634649 -6.820229 -1.576893 -6.781526 -1.52829 -6.732751 
L -0.329411 -5.533829 
L -0.329411 -7.059722 
L -0.329411 -7.059722 
C -0.329411 -7.198418 -0.274255 -7.331575 -0.176182 -7.429647 
C -0.07811 -7.52772 0.055047 -7.582875 0.193743 -7.582875 
L 0.193743 -7.582875 
C 0.332439 -7.582875 0.465596 -7.52772 0.563669 -7.429647 
C 0.661741 -7.331575 0.716897 -7.198418 0.716897 -7.059722 
L 0.716897 -5.533829 
L 1.915777 -6.732751 
L 1.915777 -6.732751 
C 1.964379 -6.781526 2.022136 -6.820229 2.085727 -6.846635 
C 2.149318 -6.873042 2.217502 -6.886636 2.286358 -6.886636 
C 2.355214 -6.886636 2.423397 -6.873042 2.486989 -6.846635 
C 2.55058 -6.820229 2.608337 -6.781526 2.656939 -6.732751 
L 2.656939 -6.732751 
C 2.705714 -6.684149 2.744417 -6.626392 2.770823 -6.5628 
C 2.79723 -6.499209 2.810824 -6.431026 2.810824 -6.36217 
C 2.810824 -6.293314 2.79723 -6.22513 2.770823 -6.161539 
C 2.744417 -6.097947 2.705714 -6.040191 2.656939 -5.991589 
L 0.716897 -4.051588 
L 0.716897 -0.991139 
L 3.369495 -2.522954 
L 4.07931 -5.171367 
L 4.07931 -5.171367 
C 4.115368 -5.305107 4.203106 -5.4192 4.323103 -5.488391 
C 4.4431 -5.557582 4.585797 -5.576359 4.719608 -5.540567 
L 4.719608 -5.540567 
C 4.853612 -5.504807 4.968045 -5.417186 5.037515 -5.297146 
C 5.106986 -5.177105 5.125946 -5.034232 5.090189 -4.900227 
L 4.650133 -3.262673 
L 5.973022 -4.025577 
L 5.973022 -4.025577 
C 6.03258 -4.059998 6.098346 -4.082336 6.166548 -4.09131 
C 6.234749 -4.100284 6.304056 -4.095719 6.370491 -4.077876 
C 6.436926 -4.060034 6.499194 -4.029262 6.553723 -3.987327 
C 6.608252 -3.945391 6.653978 -3.893109 6.688277 -3.833481 
L 6.688277 -3.833481 
C 6.757325 -3.713365 6.775905 -3.570605 6.739903 -3.436816 
C 6.703901 -3.303027 6.616186 -3.188871 6.496181 -3.119628 
L 5.173293 -2.355342 
L 6.812229 -1.916625 
L 6.812229 -1.916625 
C 6.946224 -1.880865 7.060649 -1.79325 7.130118 -1.67322 
C 7.199588 -1.553189 7.218554 -1.410326 7.18281 -1.276327 
L 7.18281 -1.276327 
C 7.165106 -1.209806 7.134445 -1.147429 7.092589 -1.092779 
C 7.050733 -1.038129 6.998499 -0.992274 6.938889 -0.957848 
C 6.879279 -0.923422 6.813456 -0.901098 6.745202 -0.892157 
C 6.676949 -0.883217 6.607597 -0.887835 6.541131 -0.905746 
L 3.891253 -1.615561 
L 1.239492 -0.084604 
L 3.892718 1.447085 
L 6.541131 0.73727 
L 6.541131 0.73727 
C 6.674948 0.701466 6.817656 0.720237 6.937662 0.789429 
C 7.057669 0.858621 7.145413 0.972721 7.181471 1.10647 
L 7.181471 1.10647 
C 7.217274 1.240293 7.198497 1.383006 7.129297 1.503014 
C 7.060096 1.623021 6.945986 1.710762 6.812229 1.74681 
L 5.173293 2.186866 
L 6.496181 2.949771 
L 6.496181 2.949771 
C 6.555697 2.984183 6.607849 3.029991 6.649651 3.08457 
C 6.691452 3.13915 6.722088 3.201437 6.739803 3.267863 
C 6.757517 3.33429 6.761966 3.403561 6.752893 3.471707 
C 6.743821 3.539854 6.721404 3.605549 6.686927 3.665026 
L 6.686927 3.665026 
C 6.617458 3.784813 6.503196 3.87225 6.369416 3.907994 
C 6.235636 3.943739 6.092989 3.924946 5.973032 3.855772 
L 4.650144 3.091487 
L 5.08886 4.731783 
L 5.08886 4.731783 
C 5.124664 4.865606 5.105887 5.008319 5.036686 5.128326 
C 4.967486 5.248334 4.853376 5.336074 4.719619 5.372123 
L 4.719619 5.372123 
C 4.585619 5.407867 4.442757 5.3889 4.322726 5.319431 
C 4.202695 5.249961 4.115081 5.135537 4.07932 5.001542 
L 3.368166 2.351664 
L 0.717033 0.821063 
L 0.717033 3.884232 
L 2.657075 5.822893 
L 2.657075 5.822893 
C 2.70585 5.871495 2.744553 5.929252 2.770959 5.992843 
C 2.797366 6.056435 2.81096 6.124618 2.81096 6.193474 
C 2.81096 6.26233 2.797366 6.330514 2.770959 6.394105 
C 2.744553 6.457696 2.70585 6.515453 2.657075 6.564055 
L 2.657075 6.564055 
C 2.608473 6.61283 2.550716 6.651533 2.487125 6.67794 
C 2.423533 6.704346 2.35535 6.71794 2.286494 6.71794 
C 2.217638 6.71794 2.149454 6.704346 2.085863 6.67794 
C 2.022272 6.651533 1.964515 6.61283 1.915913 6.564055 
L 0.717033 5.365133 
L 0.717033 6.891026 
L 0.717033 6.891026 
C 0.717033 7.029722 0.661877 7.162879 0.563805 7.260952 
C 0.465732 7.359024 0.332575 7.41418 0.193879 7.41418 
L 0.193618 7.414054 
z
"/>
    </defs>
    <g clip-path="url(#p7fc7a57d46)">
     <use xlink:href="#ma72c01b13c" x="116.930369" y="76.420466" style="fill: #9e2096; fill-opacity: 0.7"/>
    </g>
   </g>
   <g id="patch_163">
    <path d="M 125.254844 13.699063 
C 110.694216 13.699063 96.275171 16.567189 82.822905 22.1393 
C 69.370638 27.711411 57.146763 35.879144 46.850844 46.175063 
C 36.554925 56.470982 28.387192 68.694857 22.815081 82.147124 
C 17.24297 95.59939 14.374844 110.018434 14.374844 124.579063 
C 14.374844 139.139691 17.24297 153.558735 22.815081 167.011001 
C 28.387192 180.463268 36.554925 192.687143 46.850844 202.983062 
C 57.146763 213.278981 69.370638 221.446714 82.822905 227.018825 
C 96.275171 232.590936 110.694216 235.459063 125.254844 235.459063 
C 139.815472 235.459063 154.234516 232.590936 167.686783 227.018825 
C 181.139049 221.446714 193.362925 213.278981 203.658844 202.983062 
C 213.954763 192.687143 222.122495 180.463268 227.694606 167.011001 
C 233.266717 153.558735 236.134844 139.139691 236.134844 124.579063 
C 236.134844 110.018434 233.266717 95.59939 227.694606 82.147124 
C 222.122495 68.694857 213.954763 56.470982 203.658844 46.175063 
C 193.362925 35.879144 181.139049 27.711411 167.686783 22.1393 
C 154.234516 16.567189 139.815472 13.699063 125.254844 13.699063 
" style="fill: none; stroke: #000000; stroke-width: 0.8; stroke-linejoin: miter; stroke-linecap: square"/>
   </g>
  </g>
 </g>
 <defs>
  <clipPath id="p7fc7a57d46">
   <path d="M 236.134844 124.579063 
C 236.134844 110.018434 233.266717 95.59939 227.694606 82.147124 
C 222.122495 68.694857 213.954763 56.470982 203.658844 46.175063 
C 193.362925 35.879144 181.139049 27.711411 167.686783 22.1393 
C 154.234516 16.567189 139.815472 13.699063 125.254844 13.699063 
C 110.694216 13.699063 96.275171 16.567189 82.822905 22.1393 
C 69.370638 27.711411 57.146763 35.879144 46.850844 46.175063 
C 36.554925 56.470982 28.387192 68.694857 22.815081 82.147124 
C 17.24297 95.59939 14.374844 110.018434 14.374844 124.579062 
C 14.374844 139.139691 17.24297 153.558735 22.815081 167.011001 
C 28.387192 180.463268 36.554925 192.687143 46.850844 202.983062 
C 57.146763 213.278981 69.370638 221.446714 82.822905 227.018825 
C 96.275171 232.590936 110.694216 235.459063 125.254844 235.459063 
C 139.815472 235.459063 154.234516 232.590936 167.686783 227.018825 
C 181.139049 221.446714 193.362925 213.278981 203.658844 202.983062 
C 213.954763 192.687143 222.122495 180.463268 227.694606 167.011001 
C 233.266717 153.558735 236.134844 139.139691 236.134844 124.579063 
M 125.254844 124.579063 
C 125.254844 124.579063 125.254844 124.579063 125.254844 124.579063 
C 125.254844 124.579063 125.254844 124.579063 125.254844 124.579063 
C 125.254844 124.579063 125.254844 124.579063 125.254844 124.579063 
C 125.254844 124.579063 125.254844 124.579063 125.254844 124.579063 
C 125.254844 124.579063 125.254844 124.579063 125.254844 124.579063 
C 125.254844 124.579063 125.254844 124.579063 125.254844 124.579063 
C 125.254844 124.579063 125.254844 124.579063 125.254844 124.579063 
C 125.254844 124.579063 125.254844 124.579063 125.254844 124.579063 
C 125.254844 124.579063 125.254844 124.579063 125.254844 124.579063 
C 125.254844 124.579063 125.254844 124.579063 125.254844 124.579063 
C 125.254844 124.579063 125.254844 124.579063 125.254844 124.579063 
C 125.254844 124.579063 125.254844 124.579063 125.254844 124.579063 
C 125.254844 124.579063 125.254844 124.579063 125.254844 124.579063 
C 125.254844 124.579063 125.254844 124.579063 125.254844 124.579063 
C 125.254844 124.579063 125.254844 124.579063 125.254844 124.579063 
C 125.254844 124.579063 125.254844 124.579063 125.254844 124.579063 
z
"/>
  </clipPath>
 </defs>
</svg>
