<?xml version="1.0" encoding="utf-8" standalone="no"?>
<!DOCTYPE svg PUBLIC "-//W3C//DTD SVG 1.1//EN"
  "http://www.w3.org/Graphics/SVG/1.1/DTD/svg11.dtd">
<svg xmlns:xlink="http://www.w3.org/1999/xlink" width="248.410469pt" height="249.158125pt" viewBox="0 0 248.410469 249.158125" xmlns="http://www.w3.org/2000/svg" version="1.1">
 <title>Ski Rose for Eagle Point</title>
 <metadata>
  <rdf:RDF xmlns:dc="http://purl.org/dc/elements/1.1/" xmlns:cc="http://creativecommons.org/ns#" xmlns:rdf="http://www.w3.org/1999/02/22-rdf-syntax-ns#">
   <cc:Work>
    <dc:type rdf:resource="http://purl.org/dc/dcmitype/StillImage"/>
    <dc:title>Ski Rose for Eagle Point</dc:title>
    <dc:date>2025-10-18T10:46:38.688134</dc:date>
    <dc:description>A 32-bin stacked histogram of downhill ski run orientations colored by difficulty.</dc:description>
    <dc:format>image/svg+xml</dc:format>
    <dc:source>https://openskimap.org/?obj=72510c18b4eb758d0daab8290bda044c27c5405f</dc:source>
    <dc:creator>
     <cc:Agent>
      <dc:title>https://github.com/dhimmel/openskistats</dc:title>
     </cc:Agent>
    </dc:creator>
    <dc:rights>
     <cc:Agent>
      <dc:title>https://creativecommons.org/licenses/by/4.0/</dc:title>
     </cc:Agent>
    </dc:rights>
   </cc:Work>
  </rdf:RDF>
 </metadata>
 <defs>
  <style type="text/css">*{stroke-linejoin: round; stroke-linecap: butt}</style>
 </defs>
 <g id="figure_1">
  <g id="patch_1">
   <path d="M 0 249.158125 
L 248.410469 249.158125 
L 248.410469 0 
L 0 0 
z
" style="fill: #ffffff"/>
  </g>
  <g id="axes_1">
   <g id="patch_2">
    <path d="M 236.134844 124.579063 
C 236.134844 110.018434 233.266717 95.59939 227.694606 82.147124 
C 222.122495 68.694857 213.954763 56.470982 203.658844 46.175063 
C 193.362925 35.879144 181.139049 27.711411 167.686783 22.1393 
C 154.234516 16.567189 139.815472 13.699063 125.254844 13.699063 
C 110.694216 13.699063 96.275171 16.567189 82.822905 22.1393 
C 69.370638 27.711411 57.146763 35.879144 46.850844 46.175063 
C 36.554925 56.470982 28.387192 68.694857 22.815081 82.147124 
C 17.24297 95.59939 14.374844 110.018434 14.374844 124.579062 
C 14.374844 139.139691 17.24297 153.558735 22.815081 167.011001 
C 28.387192 180.463268 36.554925 192.687143 46.850844 202.983062 
C 57.146763 213.278981 69.370638 221.446714 82.822905 227.018825 
C 96.275171 232.590936 110.694216 235.459063 125.254844 235.459063 
C 139.815472 235.459063 154.234516 232.590936 167.686783 227.018825 
C 181.139049 221.446714 193.362925 213.278981 203.658844 202.983062 
C 213.954763 192.687143 222.122495 180.463268 227.694606 167.011001 
C 233.266717 153.558735 236.134844 139.139691 236.134844 124.579063 
M 125.254844 124.579063 
C 125.254844 124.579063 125.254844 124.579063 125.254844 124.579063 
C 125.254844 124.579063 125.254844 124.579063 125.254844 124.579063 
C 125.254844 124.579063 125.254844 124.579063 125.254844 124.579063 
C 125.254844 124.579063 125.254844 124.579063 125.254844 124.579063 
C 125.254844 124.579063 125.254844 124.579063 125.254844 124.579063 
C 125.254844 124.579063 125.254844 124.579063 125.254844 124.579063 
C 125.254844 124.579063 125.254844 124.579063 125.254844 124.579063 
C 125.254844 124.579063 125.254844 124.579063 125.254844 124.579063 
C 125.254844 124.579063 125.254844 124.579063 125.254844 124.579063 
C 125.254844 124.579063 125.254844 124.579063 125.254844 124.579063 
C 125.254844 124.579063 125.254844 124.579063 125.254844 124.579063 
C 125.254844 124.579063 125.254844 124.579063 125.254844 124.579063 
C 125.254844 124.579063 125.254844 124.579063 125.254844 124.579063 
C 125.254844 124.579063 125.254844 124.579063 125.254844 124.579063 
C 125.254844 124.579063 125.254844 124.579063 125.254844 124.579063 
C 125.254844 124.579063 125.254844 124.579063 125.254844 124.579063 
z
" style="fill: #ffffff"/>
   </g>
   <g id="PolyCollection_1">
    <defs>
     <path id="m490907e76c" d="M 235.564823 -135.200705 
L 234.482469 -135.096487 
L 233.2986 -133.08229 
L 231.80888 -131.096187 
L 230.493814 -129.173895 
L 228.894784 -127.29297 
L 227.492917 -125.471281 
L 225.815379 -123.701484 
L 224.344687 -121.984304 
L 222.603829 -120.328714 
L 221.075505 -118.71842 
L 219.521633 -117.160105 
L 217.705425 -115.677084 
L 216.107155 -114.227749 
L 214.489322 -112.831121 
L 212.853801 -111.487311 
L 211.20246 -110.196364 
L 209.537155 -108.958259 
L 207.859742 -107.772906 
L 206.172073 -106.640145 
L 204.704037 -105.504999 
L 202.99937 -104.472961 
L 201.28985 -103.492689 
L 199.798967 -102.498087 
L 198.082801 -101.616496 
L 196.583886 -100.712699 
L 195.082004 -99.851968 
L 193.578565 -99.03387 
L 192.074975 -98.257913 
L 190.572632 -97.523549 
L 189.072928 -96.83017 
L 187.577247 -96.177107 
L 186.283284 -95.46999 
L 184.796273 -94.892801 
L 183.317236 -94.353694 
L 182.03338 -93.750833 
L 180.752835 -93.17981 
L 179.297673 -92.745404 
L 178.030234 -92.238262 
L 176.769011 -91.760918 
L 175.514903 -91.312655 
L 174.268787 -90.892712 
L 173.031522 -90.500289 
L 171.803941 -90.134542 
L 170.738249 -89.678418 
L 169.528156 -89.36248 
L 168.330011 -89.070635 
L 167.283458 -88.683234 
L 166.106866 -88.436247 
L 165.074718 -88.09087 
L 164.048571 -87.765189 
L 162.906381 -87.579 
L 161.897608 -87.291114 
L 160.896148 -87.020964 
L 159.902378 -86.767914 
L 158.916649 -86.531313 
L 157.939288 -86.310495 
L 156.970594 -86.10478 
L 156.01084 -85.913476 
L 155.060269 -85.735876 
L 154.119095 -85.571265 
L 153.187502 -85.41892 
L 152.265643 -85.278105 
L 151.35364 -85.148082 
L 150.520857 -84.919366 
L 149.624814 -84.810885 
L 148.738842 -84.711144 
L 147.921099 -84.516592 
L 147.051392 -84.434814 
L 146.191706 -84.359725 
L 145.389497 -84.195195 
L 144.5459 -84.134522 
L 143.753069 -83.988412 
L 142.925231 -83.939955 
L 142.141664 -83.810673 
L 141.329056 -83.772299 
L 140.554487 -83.658308 
L 139.756385 -83.627973 
L 138.9904 -83.527811 
L 138.227374 -83.435454 
L 137.447935 -83.415875 
L 136.692716 -83.335426 
L 135.940158 -83.262019 
L 135.17715 -83.249681 
L 134.431356 -83.186493 
L 133.687814 -83.129691 
L 132.946406 -83.079107 
L 132.200481 -83.073571 
L 131.464179 -83.03143 
L 130.729487 -82.995015 
L 129.993246 -82.990639 
L 129.262143 -82.961669 
L 128.53206 -82.938077 
L 127.802834 -82.91979 
L 127.073872 -82.916469 
L 126.346121 -82.904865 
L 125.618585 -82.898421 
L 124.891105 -82.898716 
L 124.163605 -82.906342 
L 123.435932 -82.919126 
L 122.707124 -82.92421 
L 121.978067 -82.943665 
L 121.248194 -82.968418 
L 120.517342 -82.99854 
L 119.781467 -83.004636 
L 119.047115 -83.042177 
L 118.311191 -83.085431 
L 117.573553 -83.134525 
L 116.824844 -83.144288 
L 116.081802 -83.202146 
L 115.336544 -83.266372 
L 114.57425 -83.280269 
L 113.822306 -83.354664 
L 113.067736 -83.436077 
L 112.289144 -83.457115 
L 111.526838 -83.550379 
L 110.761605 -83.65142 
L 109.964471 -83.683103 
L 109.19072 -83.797908 
L 108.379155 -83.837545 
L 107.596465 -83.967572 
L 106.769739 -84.017203 
L 105.977841 -84.163986 
L 105.135419 -84.225739 
L 104.334193 -84.390867 
L 103.475738 -84.46694 
L 102.665222 -84.652041 
L 101.790597 -84.744676 
L 100.905931 -84.845248 
L 100.08025 -85.062865 
L 99.179537 -85.183572 
L 98.2689 -85.31427 
L 97.348424 -85.455704 
L 96.418229 -85.608615 
L 95.567185 -85.889353 
L 94.622172 -86.068516 
L 93.66799 -86.261145 
L 92.704878 -86.467949 
L 91.733099 -86.689622 
L 90.643583 -86.807499 
L 89.651279 -87.060734 
L 88.651291 -87.331017 
L 87.643994 -87.618983 
L 86.629788 -87.925253 
L 85.478872 -88.1311 
L 84.448203 -88.476397 
L 83.273348 -88.723478 
L 82.228272 -89.110694 
L 81.031861 -89.402514 
L 79.974635 -89.834336 
L 78.759272 -90.17415 
L 77.533412 -90.539696 
L 76.297862 -90.931861 
L 75.053455 -91.351488 
L 73.80105 -91.799381 
L 72.541523 -92.276298 
L 71.275774 -92.78296 
L 70.004719 -93.320046 
L 68.543681 -93.787413 
L 67.261492 -94.389634 
L 65.784373 -94.92818 
L 64.495337 -95.598264 
L 63.006958 -96.211066 
L 61.513178 -96.863397 
L 60.22076 -97.641063 
L 58.723268 -98.371578 
L 57.22439 -99.143518 
L 55.725525 -99.957439 
L 54.011661 -100.741427 
L 52.514625 -101.644159 
L 51.021967 -102.590283 
L 49.31161 -103.51814 
L 47.829955 -104.555625 
L 46.129503 -105.582749 
L 44.435607 -106.661869 
L 42.981335 -107.840328 
L 40.614279 -108.891861 
L 38.950746 -110.13671 
L 37.301262 -111.434312 
L 35.667689 -112.78469 
L 33.814376 -114.160737 
L 32.217455 -115.620581 
L 30.642271 -117.132892 
L 29.090772 -118.697416 
L 27.325327 -120.303367 
L 25.827278 -121.97546 
L 24.120134 -123.696473 
L 22.685748 -125.474169 
L 21.287596 -127.301541 
L 19.693782 -129.187958 
L 18.384586 -131.115527 
L 16.904717 -133.106402 
L 15.733878 -135.124732 
L 14.887708 -135.206209 
L 14.887708 -135.206209 
L 14.731856 -133.27741 
L 14.621896 -131.345663 
L 14.544708 -129.412771 
L 14.50009 -127.479278 
L 14.487763 -125.545712 
L 14.50737 -123.612584 
L 14.558506 -121.680377 
L 14.640735 -119.749546 
L 14.753604 -117.820517 
L 14.89298 -115.893395 
L 15.06776 -113.969253 
L 15.271634 -112.048059 
L 15.49909 -110.129443 
L 15.756994 -108.214499 
L 16.043806 -106.303403 
L 16.359592 -104.39652 
L 16.704461 -102.494237 
L 17.07854 -100.596953 
L 17.481947 -98.705079 
L 17.914794 -96.819038 
L 18.576042 -94.994413 
L 19.043639 -93.11787 
L 19.562172 -91.254291 
L 20.110873 -89.398382 
L 20.853659 -87.608664 
L 21.433454 -85.761835 
L 22.099505 -83.945094 
L 22.899562 -82.182117 
L 23.578318 -80.368851 
L 24.473325 -78.650278 
L 25.214232 -76.862138 
L 26.033914 -75.109332 
L 27.044605 -73.454048 
L 27.823353 -71.678079 
L 28.750803 -69.979703 
L 29.741699 -68.317521 
L 31.698327 -67.247555 
L 33.686879 -66.243836 
L 35.775091 -65.353706 
L 37.788427 -64.46506 
L 39.881178 -63.682619 
L 41.88935 -62.891842 
L 43.89043 -62.145952 
L 45.808437 -61.384537 
L 47.790953 -60.722759 
L 49.760794 -60.101053 
L 51.648752 -59.457894 
L 53.525686 -58.8514 
L 55.390344 -58.280128 
L 57.242085 -57.74311 
L 59.079723 -57.23877 
L 60.845239 -56.705501 
L 62.655046 -56.263371 
L 64.395337 -55.789904 
L 66.123124 -55.344714 
L 67.837869 -54.926703 
L 69.539086 -54.534755 
L 71.226334 -54.167738 
L 72.899226 -53.824506 
L 74.516182 -53.446082 
L 76.161422 -53.147691 
L 77.754476 -52.813834 
L 79.335665 -52.500389 
L 80.938665 -52.261632 
L 82.494778 -51.986877 
L 84.038577 -51.729557 
L 85.570733 -51.490023 
L 87.064578 -51.216244 
L 88.574045 -51.008761 
L 90.0719 -50.816488 
L 91.536593 -50.591114 
L 93.012059 -50.425735 
L 94.45813 -50.229219 
L 95.912516 -50.089223 
L 97.340489 -49.918729 
L 98.760368 -49.760972 
L 100.172335 -49.615346 
L 101.587614 -49.516201 
L 102.983232 -49.391361 
L 104.371704 -49.276894 
L 105.753324 -49.17228 
L 107.128407 -49.077021 
L 108.497295 -48.990644 
L 109.860349 -48.912706 
L 111.213906 -48.820944 
L 112.567201 -48.7607 
L 113.915803 -48.70777 
L 115.26015 -48.661829 
L 116.600696 -48.622584 
L 117.936645 -48.576659 
L 119.2714 -48.552198 
L 120.603715 -48.533779 
L 121.934088 -48.521248 
L 123.262939 -48.511274 
L 124.59102 -48.5124 
L 125.918665 -48.512735 
L 127.24673 -48.511992 
L 128.575788 -48.51694 
L 129.905891 -48.535117 
L 131.238155 -48.553888 
L 132.572846 -48.5787 
L 133.910454 -48.609742 
L 135.249158 -48.664705 
L 136.5934 -48.71101 
L 137.941884 -48.764298 
L 139.295049 -48.824894 
L 140.653315 -48.893157 
L 142.011442 -48.994934 
L 143.380176 -49.081622 
L 144.755095 -49.177185 
L 146.136541 -49.282096 
L 147.52483 -49.39685 
L 148.93113 -49.487477 
L 150.335176 -49.621851 
L 151.746917 -49.767757 
L 153.166561 -49.925783 
L 154.594291 -50.096537 
L 156.048615 -50.236321 
L 157.494444 -50.433058 
L 158.969404 -50.599212 
L 160.433823 -50.824799 
L 161.93166 -51.016749 
L 163.440545 -51.225013 
L 164.962447 -51.446754 
L 166.466277 -51.7381 
L 168.009418 -51.996199 
L 169.59836 -52.217021 
L 171.168264 -52.50943 
L 172.748719 -52.823644 
L 174.341883 -53.156977 
L 175.986792 -53.455495 
L 177.602941 -53.83467 
L 179.275474 -54.178007 
L 180.962363 -54.545112 
L 182.66322 -54.937133 
L 184.377606 -55.355202 
L 186.105034 -55.800434 
L 187.901146 -56.21262 
L 189.655055 -56.7154 
L 191.479062 -57.188808 
L 193.256836 -57.753691 
L 195.108936 -58.290004 
L 196.972512 -58.861927 
L 198.849863 -59.46769 
L 200.807376 -60.051104 
L 202.706194 -60.733097 
L 204.688369 -61.394784 
L 206.681661 -62.098068 
L 208.607707 -62.901188 
L 210.693742 -63.636089 
L 212.707217 -64.474712 
L 214.720373 -65.363121 
L 216.809452 -66.252345 
L 218.87836 -67.206498 
L 220.783981 -68.3081 
L 221.747774 -69.985989 
L 222.683213 -71.679774 
L 223.582536 -73.392906 
L 224.434845 -75.129738 
L 225.293899 -76.862881 
L 226.128347 -78.608358 
L 226.894721 -80.384786 
L 227.693467 -82.147595 
L 228.373005 -83.959738 
L 229.087146 -85.757755 
L 229.752148 -87.574626 
L 230.363719 -89.410125 
L 230.926319 -91.260974 
L 231.566426 -93.088137 
L 232.059135 -94.959611 
L 232.466051 -96.852359 
L 233.026863 -98.70529 
L 233.476302 -100.586943 
L 233.865325 -102.48201 
L 234.155172 -104.39558 
L 234.531878 -106.292358 
L 234.86583 -108.197591 
L 235.157578 -110.110093 
L 235.40775 -112.028724 
L 235.617059 -113.95239 
L 235.786284 -115.88005 
L 235.916248 -117.810721 
L 236.007805 -119.743484 
L 236.061823 -121.67748 
L 236.079191 -123.611913 
L 236.060812 -125.546052 
L 236.007608 -127.479226 
L 236.017911 -129.415082 
L 235.898364 -131.34631 
L 235.747062 -133.274989 
L 235.564823 -135.200705 
z
" style="stroke: #ffee9c"/>
    </defs>
    <g clip-path="url(#p0340be778a)">
     <use xlink:href="#m490907e76c" x="0" y="249.158125" style="fill: #ffee9c; stroke: #ffee9c"/>
    </g>
   </g>
   <g id="matplotlib.axis_1">
    <g id="xtick_1">
     <g id="line2d_1">
      <path d="M 125.254844 124.579063 
L 125.254844 13.699063 
" clip-path="url(#p0340be778a)" style="fill: none; stroke: #b0b0b0; stroke-width: 0.8; stroke-linecap: square"/>
     </g>
     <g id="text_1">
      <!-- N -->
      <g transform="translate(121.070469 7.958438) scale(0.1 -0.1)">
       <defs>
        <path id="DejaVuSans-Bold-4e" d="M 588 4666 
L 1931 4666 
L 3628 1466 
L 3628 4666 
L 4769 4666 
L 4769 0 
L 3425 0 
L 1728 3200 
L 1728 0 
L 588 0 
L 588 4666 
z
" transform="scale(0.015625)"/>
       </defs>
       <use xlink:href="#DejaVuSans-Bold-4e"/>
      </g>
     </g>
    </g>
    <g id="xtick_2">
     <g id="line2d_2">
      <path d="M 125.254844 124.579063 
L 203.658844 46.175063 
" clip-path="url(#p0340be778a)" style="fill: none; stroke: #b0b0b0; stroke-width: 0.8; stroke-linecap: square"/>
     </g>
    </g>
    <g id="xtick_3">
     <g id="line2d_3">
      <path d="M 125.254844 124.579063 
L 236.134844 124.579063 
" clip-path="url(#p0340be778a)" style="fill: none; stroke: #b0b0b0; stroke-width: 0.8; stroke-linecap: square"/>
     </g>
     <g id="text_2">
      <!-- E -->
      <g transform="translate(241.219219 127.338438) scale(0.1 -0.1)">
       <defs>
        <path id="DejaVuSans-Bold-45" d="M 588 4666 
L 3834 4666 
L 3834 3756 
L 1791 3756 
L 1791 2888 
L 3713 2888 
L 3713 1978 
L 1791 1978 
L 1791 909 
L 3903 909 
L 3903 0 
L 588 0 
L 588 4666 
z
" transform="scale(0.015625)"/>
       </defs>
       <use xlink:href="#DejaVuSans-Bold-45"/>
      </g>
     </g>
    </g>
    <g id="xtick_4">
     <g id="line2d_4">
      <path d="M 125.254844 124.579063 
L 203.658844 202.983062 
" clip-path="url(#p0340be778a)" style="fill: none; stroke: #b0b0b0; stroke-width: 0.8; stroke-linecap: square"/>
     </g>
    </g>
    <g id="xtick_5">
     <g id="line2d_5">
      <path d="M 125.254844 124.579063 
L 125.254844 235.459063 
" clip-path="url(#p0340be778a)" style="fill: none; stroke: #b0b0b0; stroke-width: 0.8; stroke-linecap: square"/>
     </g>
     <g id="text_3">
      <!-- S -->
      <g transform="translate(121.654062 246.718438) scale(0.1 -0.1)">
       <defs>
        <path id="DejaVuSans-Bold-53" d="M 3834 4519 
L 3834 3531 
Q 3450 3703 3084 3790 
Q 2719 3878 2394 3878 
Q 1963 3878 1756 3759 
Q 1550 3641 1550 3391 
Q 1550 3203 1689 3098 
Q 1828 2994 2194 2919 
L 2706 2816 
Q 3484 2659 3812 2340 
Q 4141 2022 4141 1434 
Q 4141 663 3683 286 
Q 3225 -91 2284 -91 
Q 1841 -91 1394 -6 
Q 947 78 500 244 
L 500 1259 
Q 947 1022 1364 901 
Q 1781 781 2169 781 
Q 2563 781 2772 912 
Q 2981 1044 2981 1288 
Q 2981 1506 2839 1625 
Q 2697 1744 2272 1838 
L 1806 1941 
Q 1106 2091 782 2419 
Q 459 2747 459 3303 
Q 459 4000 909 4375 
Q 1359 4750 2203 4750 
Q 2588 4750 2994 4692 
Q 3400 4634 3834 4519 
z
" transform="scale(0.015625)"/>
       </defs>
       <use xlink:href="#DejaVuSans-Bold-53"/>
      </g>
     </g>
    </g>
    <g id="xtick_6">
     <g id="line2d_6">
      <path d="M 125.254844 124.579063 
L 46.850844 202.983062 
" clip-path="url(#p0340be778a)" style="fill: none; stroke: #b0b0b0; stroke-width: 0.8; stroke-linecap: square"/>
     </g>
    </g>
    <g id="xtick_7">
     <g id="line2d_7">
      <path d="M 125.254844 124.579063 
L 14.374844 124.579063 
" clip-path="url(#p0340be778a)" style="fill: none; stroke: #b0b0b0; stroke-width: 0.8; stroke-linecap: square"/>
     </g>
     <g id="text_4">
      <!-- W -->
      <g transform="translate(0.36 127.338438) scale(0.1 -0.1)">
       <defs>
        <path id="DejaVuSans-Bold-57" d="M 191 4666 
L 1344 4666 
L 2150 1275 
L 2950 4666 
L 4109 4666 
L 4909 1275 
L 5716 4666 
L 6859 4666 
L 5759 0 
L 4372 0 
L 3525 3547 
L 2688 0 
L 1300 0 
L 191 4666 
z
" transform="scale(0.015625)"/>
       </defs>
       <use xlink:href="#DejaVuSans-Bold-57"/>
      </g>
     </g>
    </g>
    <g id="xtick_8">
     <g id="line2d_8">
      <path d="M 125.254844 124.579063 
L 46.850844 46.175063 
" clip-path="url(#p0340be778a)" style="fill: none; stroke: #b0b0b0; stroke-width: 0.8; stroke-linecap: square"/>
     </g>
    </g>
   </g>
   <g id="matplotlib.axis_2"/>
   <g id="patch_3">
    <path d="M 125.254844 124.579063 
C 125.254844 124.579063 125.254844 124.579063 125.254844 124.579063 
C 125.254844 124.579063 125.254844 124.579063 125.254844 124.579063 
L 125.254844 124.579063 
C 125.254844 124.579063 125.254844 124.579063 125.254844 124.579063 
C 125.254844 124.579063 125.254844 124.579063 125.254844 124.579063 
z
" clip-path="url(#p0340be778a)" style="fill: #d9d9d9"/>
   </g>
   <g id="patch_4">
    <path d="M 125.254844 124.579063 
C 125.254844 124.579063 125.254844 124.579063 125.254844 124.579063 
C 125.254844 124.579063 125.254844 124.579063 125.254844 124.579063 
L 125.254844 124.579063 
C 125.254844 124.579063 125.254844 124.579063 125.254844 124.579063 
C 125.254844 124.579063 125.254844 124.579063 125.254844 124.579063 
z
" clip-path="url(#p0340be778a)" style="fill: #d9d9d9"/>
   </g>
   <g id="patch_5">
    <path d="M 125.254844 124.579063 
C 125.254844 124.579063 125.254844 124.579063 125.254844 124.579063 
C 125.254844 124.579063 125.254844 124.579063 125.254844 124.579063 
L 125.254844 124.579063 
C 125.254844 124.579063 125.254844 124.579063 125.254844 124.579063 
C 125.254844 124.579063 125.254844 124.579063 125.254844 124.579063 
z
" clip-path="url(#p0340be778a)" style="fill: #d9d9d9"/>
   </g>
   <g id="patch_6">
    <path d="M 125.254844 124.579063 
C 125.254844 124.579063 125.254844 124.579063 125.254844 124.579063 
C 125.254844 124.579063 125.254844 124.579063 125.254844 124.579063 
L 125.254844 124.579063 
C 125.254844 124.579063 125.254844 124.579063 125.254844 124.579063 
C 125.254844 124.579063 125.254844 124.579063 125.254844 124.579063 
z
" clip-path="url(#p0340be778a)" style="fill: #d9d9d9"/>
   </g>
   <g id="patch_7">
    <path d="M 125.254844 124.579063 
C 125.254844 124.579063 125.254844 124.579063 125.254844 124.579063 
C 125.254844 124.579063 125.254844 124.579063 125.254844 124.579063 
L 125.254844 124.579063 
C 125.254844 124.579063 125.254844 124.579063 125.254844 124.579063 
C 125.254844 124.579063 125.254844 124.579063 125.254844 124.579063 
z
" clip-path="url(#p0340be778a)" style="fill: #d9d9d9"/>
   </g>
   <g id="patch_8">
    <path d="M 125.254844 124.579063 
C 125.254844 124.579063 125.254844 124.579063 125.254844 124.579063 
C 125.254844 124.579063 125.254844 124.579063 125.254844 124.579063 
L 125.254844 124.579063 
C 125.254844 124.579063 125.254844 124.579063 125.254844 124.579063 
C 125.254844 124.579063 125.254844 124.579063 125.254844 124.579063 
z
" clip-path="url(#p0340be778a)" style="fill: #d9d9d9"/>
   </g>
   <g id="patch_9">
    <path d="M 125.254844 124.579063 
C 125.254844 124.579063 125.254844 124.579063 125.254844 124.579063 
C 125.254844 124.579063 125.254844 124.579063 125.254844 124.579063 
L 125.254844 124.579063 
C 125.254844 124.579063 125.254844 124.579063 125.254844 124.579063 
C 125.254844 124.579063 125.254844 124.579063 125.254844 124.579063 
z
" clip-path="url(#p0340be778a)" style="fill: #d9d9d9"/>
   </g>
   <g id="patch_10">
    <path d="M 125.254844 124.579063 
C 125.254844 124.579063 125.254844 124.579063 125.254844 124.579063 
C 125.254844 124.579063 125.254844 124.579063 125.254844 124.579063 
L 125.254844 124.579063 
C 125.254844 124.579063 125.254844 124.579063 125.254844 124.579063 
C 125.254844 124.579063 125.254844 124.579063 125.254844 124.579063 
z
" clip-path="url(#p0340be778a)" style="fill: #d9d9d9"/>
   </g>
   <g id="patch_11">
    <path d="M 125.254844 124.579063 
C 125.254844 124.579063 125.254844 124.579063 125.254844 124.579063 
C 125.254844 124.579063 125.254844 124.579063 125.254844 124.579063 
L 125.254844 124.579063 
C 125.254844 124.579063 125.254844 124.579063 125.254844 124.579063 
C 125.254844 124.579063 125.254844 124.579063 125.254844 124.579063 
z
" clip-path="url(#p0340be778a)" style="fill: #d9d9d9"/>
   </g>
   <g id="patch_12">
    <path d="M 125.254844 124.579063 
C 125.254844 124.579063 125.254844 124.579063 125.254844 124.579063 
C 125.254844 124.579063 125.254844 124.579063 125.254844 124.579063 
L 125.254844 124.579063 
C 125.254844 124.579063 125.254844 124.579063 125.254844 124.579063 
C 125.254844 124.579063 125.254844 124.579063 125.254844 124.579063 
z
" clip-path="url(#p0340be778a)" style="fill: #d9d9d9"/>
   </g>
   <g id="patch_13">
    <path d="M 125.254844 124.579063 
C 125.254844 124.579063 125.254844 124.579063 125.254844 124.579063 
C 125.254844 124.579063 125.254844 124.579063 125.254844 124.579063 
L 125.254844 124.579063 
C 125.254844 124.579063 125.254844 124.579063 125.254844 124.579063 
C 125.254844 124.579063 125.254844 124.579063 125.254844 124.579063 
z
" clip-path="url(#p0340be778a)" style="fill: #d9d9d9"/>
   </g>
   <g id="patch_14">
    <path d="M 125.254844 124.579063 
C 125.254844 124.579063 125.254844 124.579063 125.254844 124.579063 
C 125.254844 124.579063 125.254844 124.579063 125.254844 124.579063 
L 125.254844 124.579063 
C 125.254844 124.579063 125.254844 124.579063 125.254844 124.579063 
C 125.254844 124.579063 125.254844 124.579063 125.254844 124.579063 
z
" clip-path="url(#p0340be778a)" style="fill: #d9d9d9"/>
   </g>
   <g id="patch_15">
    <path d="M 125.254844 124.579063 
C 125.254844 124.579063 125.254844 124.579063 125.254844 124.579063 
C 125.254844 124.579063 125.254844 124.579063 125.254844 124.579063 
L 125.254844 124.579063 
C 125.254844 124.579063 125.254844 124.579063 125.254844 124.579063 
C 125.254844 124.579063 125.254844 124.579063 125.254844 124.579063 
z
" clip-path="url(#p0340be778a)" style="fill: #d9d9d9"/>
   </g>
   <g id="patch_16">
    <path d="M 125.254844 124.579063 
C 125.254844 124.579063 125.254844 124.579063 125.254844 124.579063 
C 125.254844 124.579063 125.254844 124.579063 125.254844 124.579063 
L 125.254844 124.579063 
C 125.254844 124.579063 125.254844 124.579063 125.254844 124.579063 
C 125.254844 124.579063 125.254844 124.579063 125.254844 124.579063 
z
" clip-path="url(#p0340be778a)" style="fill: #d9d9d9"/>
   </g>
   <g id="patch_17">
    <path d="M 125.254844 124.579063 
C 125.254844 124.579063 125.254844 124.579063 125.254844 124.579063 
C 125.254844 124.579063 125.254844 124.579063 125.254844 124.579063 
L 125.254844 124.579063 
C 125.254844 124.579063 125.254844 124.579063 125.254844 124.579063 
C 125.254844 124.579063 125.254844 124.579063 125.254844 124.579063 
z
" clip-path="url(#p0340be778a)" style="fill: #d9d9d9"/>
   </g>
   <g id="patch_18">
    <path d="M 125.254844 124.579063 
C 125.254844 124.579063 125.254844 124.579063 125.254844 124.579063 
C 125.254844 124.579063 125.254844 124.579063 125.254844 124.579063 
L 125.254844 124.579063 
C 125.254844 124.579063 125.254844 124.579063 125.254844 124.579063 
C 125.254844 124.579063 125.254844 124.579063 125.254844 124.579063 
z
" clip-path="url(#p0340be778a)" style="fill: #d9d9d9"/>
   </g>
   <g id="patch_19">
    <path d="M 125.254844 124.579063 
C 125.254844 124.579063 125.254844 124.579063 125.254844 124.579063 
C 125.254844 124.579063 125.254844 124.579063 125.254844 124.579063 
L 125.254844 124.579063 
C 125.254844 124.579063 125.254844 124.579063 125.254844 124.579063 
C 125.254844 124.579063 125.254844 124.579063 125.254844 124.579063 
z
" clip-path="url(#p0340be778a)" style="fill: #d9d9d9"/>
   </g>
   <g id="patch_20">
    <path d="M 125.254844 124.579063 
C 125.254844 124.579063 125.254844 124.579063 125.254844 124.579063 
C 125.254844 124.579063 125.254844 124.579063 125.254844 124.579063 
L 125.254844 124.579063 
C 125.254844 124.579063 125.254844 124.579063 125.254844 124.579063 
C 125.254844 124.579063 125.254844 124.579063 125.254844 124.579063 
z
" clip-path="url(#p0340be778a)" style="fill: #d9d9d9"/>
   </g>
   <g id="patch_21">
    <path d="M 125.254844 124.579063 
C 125.254844 124.579063 125.254844 124.579063 125.254844 124.579063 
C 125.254844 124.579063 125.254844 124.579063 125.254844 124.579063 
L 125.254844 124.579063 
C 125.254844 124.579063 125.254844 124.579063 125.254844 124.579063 
C 125.254844 124.579063 125.254844 124.579063 125.254844 124.579063 
z
" clip-path="url(#p0340be778a)" style="fill: #d9d9d9"/>
   </g>
   <g id="patch_22">
    <path d="M 125.254844 124.579063 
C 125.254844 124.579063 125.254844 124.579063 125.254844 124.579063 
C 125.254844 124.579063 125.254844 124.579063 125.254844 124.579063 
L 125.254844 124.579063 
C 125.254844 124.579063 125.254844 124.579063 125.254844 124.579063 
C 125.254844 124.579063 125.254844 124.579063 125.254844 124.579063 
z
" clip-path="url(#p0340be778a)" style="fill: #d9d9d9"/>
   </g>
   <g id="patch_23">
    <path d="M 125.254844 124.579063 
C 125.254844 124.579063 125.254844 124.579063 125.254844 124.579063 
C 125.254844 124.579063 125.254844 124.579063 125.254844 124.579063 
L 125.254844 124.579063 
C 125.254844 124.579063 125.254844 124.579063 125.254844 124.579063 
C 125.254844 124.579063 125.254844 124.579063 125.254844 124.579063 
z
" clip-path="url(#p0340be778a)" style="fill: #d9d9d9"/>
   </g>
   <g id="patch_24">
    <path d="M 125.254844 124.579063 
C 125.254844 124.579063 125.254844 124.579063 125.254844 124.579063 
C 125.254844 124.579063 125.254844 124.579063 125.254844 124.579063 
L 125.254844 124.579063 
C 125.254844 124.579063 125.254844 124.579063 125.254844 124.579063 
C 125.254844 124.579063 125.254844 124.579063 125.254844 124.579063 
z
" clip-path="url(#p0340be778a)" style="fill: #d9d9d9"/>
   </g>
   <g id="patch_25">
    <path d="M 125.254844 124.579063 
C 125.254844 124.579063 125.254844 124.579063 125.254844 124.579063 
C 125.254844 124.579063 125.254844 124.579063 125.254844 124.579063 
L 125.254844 124.579063 
C 125.254844 124.579063 125.254844 124.579063 125.254844 124.579063 
C 125.254844 124.579063 125.254844 124.579063 125.254844 124.579063 
z
" clip-path="url(#p0340be778a)" style="fill: #d9d9d9"/>
   </g>
   <g id="patch_26">
    <path d="M 125.254844 124.579063 
C 125.254844 124.579063 125.254844 124.579063 125.254844 124.579063 
C 125.254844 124.579063 125.254844 124.579063 125.254844 124.579063 
L 125.254844 124.579063 
C 125.254844 124.579063 125.254844 124.579063 125.254844 124.579063 
C 125.254844 124.579063 125.254844 124.579063 125.254844 124.579063 
z
" clip-path="url(#p0340be778a)" style="fill: #d9d9d9"/>
   </g>
   <g id="patch_27">
    <path d="M 125.254844 124.579063 
C 125.254844 124.579063 125.254844 124.579063 125.254844 124.579063 
C 125.254844 124.579063 125.254844 124.579063 125.254844 124.579063 
L 125.254844 124.579063 
C 125.254844 124.579063 125.254844 124.579063 125.254844 124.579063 
C 125.254844 124.579063 125.254844 124.579063 125.254844 124.579063 
z
" clip-path="url(#p0340be778a)" style="fill: #d9d9d9"/>
   </g>
   <g id="patch_28">
    <path d="M 125.254844 124.579063 
C 125.254844 124.579063 125.254844 124.579063 125.254844 124.579063 
C 125.254844 124.579063 125.254844 124.579063 125.254844 124.579063 
L 125.254844 124.579063 
C 125.254844 124.579063 125.254844 124.579063 125.254844 124.579063 
C 125.254844 124.579063 125.254844 124.579063 125.254844 124.579063 
z
" clip-path="url(#p0340be778a)" style="fill: #d9d9d9"/>
   </g>
   <g id="patch_29">
    <path d="M 125.254844 124.579063 
C 125.254844 124.579063 125.254844 124.579063 125.254844 124.579063 
C 125.254844 124.579063 125.254844 124.579063 125.254844 124.579063 
L 125.254844 124.579063 
C 125.254844 124.579063 125.254844 124.579063 125.254844 124.579063 
C 125.254844 124.579063 125.254844 124.579063 125.254844 124.579063 
z
" clip-path="url(#p0340be778a)" style="fill: #d9d9d9"/>
   </g>
   <g id="patch_30">
    <path d="M 125.254844 124.579063 
C 125.254844 124.579063 125.254844 124.579063 125.254844 124.579063 
C 125.254844 124.579063 125.254844 124.579063 125.254844 124.579063 
L 125.254844 124.579063 
C 125.254844 124.579063 125.254844 124.579063 125.254844 124.579063 
C 125.254844 124.579063 125.254844 124.579063 125.254844 124.579063 
z
" clip-path="url(#p0340be778a)" style="fill: #d9d9d9"/>
   </g>
   <g id="patch_31">
    <path d="M 125.254844 124.579063 
C 125.254844 124.579063 125.254844 124.579063 125.254844 124.579063 
C 125.254844 124.579063 125.254844 124.579063 125.254844 124.579063 
L 125.254844 124.579063 
C 125.254844 124.579063 125.254844 124.579063 125.254844 124.579063 
C 125.254844 124.579063 125.254844 124.579063 125.254844 124.579063 
z
" clip-path="url(#p0340be778a)" style="fill: #d9d9d9"/>
   </g>
   <g id="patch_32">
    <path d="M 125.254844 124.579063 
C 125.254844 124.579063 125.254844 124.579063 125.254844 124.579063 
C 125.254844 124.579063 125.254844 124.579063 125.254844 124.579063 
L 125.254844 124.579063 
C 125.254844 124.579063 125.254844 124.579063 125.254844 124.579063 
C 125.254844 124.579063 125.254844 124.579063 125.254844 124.579063 
z
" clip-path="url(#p0340be778a)" style="fill: #d9d9d9"/>
   </g>
   <g id="patch_33">
    <path d="M 125.254844 124.579063 
C 125.254844 124.579063 125.254844 124.579063 125.254844 124.579063 
C 125.254844 124.579063 125.254844 124.579063 125.254844 124.579063 
L 125.254844 124.579063 
C 125.254844 124.579063 125.254844 124.579063 125.254844 124.579063 
C 125.254844 124.579063 125.254844 124.579063 125.254844 124.579063 
z
" clip-path="url(#p0340be778a)" style="fill: #d9d9d9"/>
   </g>
   <g id="patch_34">
    <path d="M 125.254844 124.579063 
C 125.254844 124.579063 125.254844 124.579063 125.254844 124.579063 
C 125.254844 124.579063 125.254844 124.579063 125.254844 124.579063 
L 125.254844 124.579063 
C 125.254844 124.579063 125.254844 124.579063 125.254844 124.579063 
C 125.254844 124.579063 125.254844 124.579063 125.254844 124.579063 
z
" clip-path="url(#p0340be778a)" style="fill: #d9d9d9"/>
   </g>
   <g id="patch_35">
    <path d="M 125.254844 124.579063 
C 125.254844 124.579063 125.254844 124.579063 125.254844 124.579063 
C 125.254844 124.579063 125.254844 124.579063 125.254844 124.579063 
L 125.254844 124.579063 
C 125.254844 124.579063 125.254844 124.579063 125.254844 124.579063 
C 125.254844 124.579063 125.254844 124.579063 125.254844 124.579063 
z
" clip-path="url(#p0340be778a)" style="fill: #badbb8"/>
   </g>
   <g id="patch_36">
    <path d="M 125.254844 124.579063 
C 125.254844 124.579063 125.254844 124.579063 125.254844 124.579063 
C 125.254844 124.579063 125.254844 124.579063 125.254844 124.579063 
L 125.254844 124.579063 
C 125.254844 124.579063 125.254844 124.579063 125.254844 124.579063 
C 125.254844 124.579063 125.254844 124.579063 125.254844 124.579063 
z
" clip-path="url(#p0340be778a)" style="fill: #badbb8"/>
   </g>
   <g id="patch_37">
    <path d="M 125.254844 124.579063 
C 125.254844 124.579063 125.254844 124.579063 125.254844 124.579063 
C 125.254844 124.579063 125.254844 124.579063 125.254844 124.579063 
L 125.254844 124.579063 
C 125.254844 124.579063 125.254844 124.579063 125.254844 124.579063 
C 125.254844 124.579063 125.254844 124.579063 125.254844 124.579063 
z
" clip-path="url(#p0340be778a)" style="fill: #badbb8"/>
   </g>
   <g id="patch_38">
    <path d="M 125.254844 124.579063 
C 125.254844 124.579063 125.254844 124.579063 125.254844 124.579063 
C 125.254844 124.579063 125.254844 124.579063 125.254844 124.579063 
L 132.306648 115.986414 
C 132.025398 115.755598 131.732985 115.538729 131.430465 115.336592 
C 131.127945 115.134455 130.815683 114.947292 130.494807 114.77578 
z
" clip-path="url(#p0340be778a)" style="fill: #badbb8"/>
   </g>
   <g id="patch_39">
    <path d="M 125.254844 124.579063 
C 125.254844 124.579063 125.254844 124.579063 125.254844 124.579063 
C 125.254844 124.579063 125.254844 124.579063 125.254844 124.579063 
L 133.098823 118.141675 
C 132.888118 117.88493 132.664934 117.638685 132.430078 117.403828 
C 132.195222 117.168972 131.948976 116.945789 131.692231 116.735083 
z
" clip-path="url(#p0340be778a)" style="fill: #badbb8"/>
   </g>
   <g id="patch_40">
    <path d="M 125.254844 124.579063 
C 125.254844 124.579063 125.254844 124.579063 125.254844 124.579063 
C 125.254844 124.579063 125.254844 124.579063 125.254844 124.579063 
L 130.914771 121.553768 
C 130.815749 121.36851 130.707691 121.188226 130.590987 121.013566 
C 130.474283 120.838906 130.349074 120.670081 130.215812 120.507701 
z
" clip-path="url(#p0340be778a)" style="fill: #badbb8"/>
   </g>
   <g id="patch_41">
    <path d="M 125.254844 124.579063 
C 125.254844 124.579063 125.254844 124.579063 125.254844 124.579063 
C 125.254844 124.579063 125.254844 124.579063 125.254844 124.579063 
L 131.396223 122.716095 
C 131.335245 122.515079 131.264435 122.317177 131.184048 122.123106 
C 131.103661 121.929034 131.013794 121.739026 130.914771 121.553768 
z
" clip-path="url(#p0340be778a)" style="fill: #badbb8"/>
   </g>
   <g id="patch_42">
    <path d="M 125.254844 124.579063 
C 125.254844 124.579063 125.254844 124.579063 125.254844 124.579063 
C 125.254844 124.579063 125.254844 124.579063 125.254844 124.579063 
L 129.771008 124.134259 
C 129.756449 123.986438 129.734641 123.839421 129.705664 123.693739 
C 129.676686 123.548057 129.640573 123.403886 129.597455 123.261746 
z
" clip-path="url(#p0340be778a)" style="fill: #badbb8"/>
   </g>
   <g id="patch_43">
    <path d="M 125.254844 124.579063 
C 125.254844 124.579063 125.254844 124.579063 125.254844 124.579063 
C 125.254844 124.579063 125.254844 124.579063 125.254844 124.579063 
L 144.940349 126.517916 
C 145.003811 125.87358 145.035599 125.226516 145.035599 124.579063 
C 145.035599 123.931609 145.003811 123.284545 144.940349 122.640209 
z
" clip-path="url(#p0340be778a)" style="fill: #badbb8"/>
   </g>
   <g id="patch_44">
    <path d="M 125.254844 124.579063 
C 125.254844 124.579063 125.254844 124.579063 125.254844 124.579063 
C 125.254844 124.579063 125.254844 124.579063 125.254844 124.579063 
L 146.529206 131.03257 
C 146.740439 130.336228 146.917356 129.629935 147.059318 128.916242 
C 147.201281 128.202549 147.308117 127.482316 147.379442 126.758145 
z
" clip-path="url(#p0340be778a)" style="fill: #badbb8"/>
   </g>
   <g id="patch_45">
    <path d="M 125.254844 124.579063 
C 125.254844 124.579063 125.254844 124.579063 125.254844 124.579063 
C 125.254844 124.579063 125.254844 124.579063 125.254844 124.579063 
L 133.25919 128.857475 
C 133.399229 128.595481 133.52632 128.326769 133.640005 128.05231 
C 133.753689 127.777851 133.85383 127.497976 133.940066 127.213696 
z
" clip-path="url(#p0340be778a)" style="fill: #badbb8"/>
   </g>
   <g id="patch_46">
    <path d="M 125.254844 124.579063 
C 125.254844 124.579063 125.254844 124.579063 125.254844 124.579063 
C 125.254844 124.579063 125.254844 124.579063 125.254844 124.579063 
L 137.90288 134.959038 
C 138.242632 134.545049 138.561854 134.114628 138.859392 133.669331 
C 139.15693 133.224034 139.432426 132.764397 139.684885 132.29208 
z
" clip-path="url(#p0340be778a)" style="fill: #badbb8"/>
   </g>
   <g id="patch_47">
    <path d="M 125.254844 124.579063 
C 125.254844 124.579063 125.254844 124.579063 125.254844 124.579063 
C 125.254844 124.579063 125.254844 124.579063 125.254844 124.579063 
L 130.241223 130.654983 
C 130.440097 130.491771 130.630837 130.318894 130.812756 130.136975 
C 130.994675 129.955056 131.167552 129.764315 131.330764 129.565441 
z
" clip-path="url(#p0340be778a)" style="fill: #badbb8"/>
   </g>
   <g id="patch_48">
    <path d="M 125.254844 124.579063 
C 125.254844 124.579063 125.254844 124.579063 125.254844 124.579063 
C 125.254844 124.579063 125.254844 124.579063 125.254844 124.579063 
L 130.494807 134.382345 
C 130.815683 134.210833 131.127945 134.02367 131.430465 133.821533 
C 131.732985 133.619396 132.025398 133.402527 132.306648 133.171711 
z
" clip-path="url(#p0340be778a)" style="fill: #badbb8"/>
   </g>
   <g id="patch_49">
    <path d="M 125.254844 124.579063 
C 125.254844 124.579063 125.254844 124.579063 125.254844 124.579063 
C 125.254844 124.579063 125.254844 124.579063 125.254844 124.579063 
L 131.572472 145.405493 
C 132.254153 145.198708 132.925269 144.958578 133.583399 144.685972 
C 134.241528 144.413366 134.885876 144.108612 135.514116 143.772811 
z
" clip-path="url(#p0340be778a)" style="fill: #badbb8"/>
   </g>
   <g id="patch_50">
    <path d="M 125.254844 124.579063 
C 125.254844 124.579063 125.254844 124.579063 125.254844 124.579063 
C 125.254844 124.579063 125.254844 124.579063 125.254844 124.579063 
L 126.919146 141.477003 
C 127.472241 141.422528 128.022327 141.340931 128.567419 141.232505 
C 129.112511 141.12408 129.651952 140.988957 130.183791 140.827625 
z
" clip-path="url(#p0340be778a)" style="fill: #badbb8"/>
   </g>
   <g id="patch_51">
    <path d="M 125.254844 124.579063 
C 125.254844 124.579063 125.254844 124.579063 125.254844 124.579063 
C 125.254844 124.579063 125.254844 124.579063 125.254844 124.579063 
L 122.304352 154.53591 
C 123.284884 154.632484 124.269567 154.680858 125.254844 154.680858 
C 126.24012 154.680858 127.224803 154.632484 128.205336 154.53591 
z
" clip-path="url(#p0340be778a)" style="fill: #badbb8"/>
   </g>
   <g id="patch_52">
    <path d="M 125.254844 124.579063 
C 125.254844 124.579063 125.254844 124.579063 125.254844 124.579063 
C 125.254844 124.579063 125.254844 124.579063 125.254844 124.579063 
L 113.181437 164.37975 
C 114.484173 164.774931 115.805526 165.105912 117.140724 165.371499 
C 118.475921 165.637087 119.823353 165.836959 121.178153 165.970396 
z
" clip-path="url(#p0340be778a)" style="fill: #badbb8"/>
   </g>
   <g id="patch_53">
    <path d="M 125.254844 124.579063 
C 125.254844 124.579063 125.254844 124.579063 125.254844 124.579063 
C 125.254844 124.579063 125.254844 124.579063 125.254844 124.579063 
L 105.073613 162.335489 
C 106.309437 162.996051 107.576949 163.595539 108.871568 164.131788 
C 110.166188 164.668037 111.486356 165.140401 112.827303 165.547173 
z
" clip-path="url(#p0340be778a)" style="fill: #badbb8"/>
   </g>
   <g id="patch_54">
    <path d="M 125.254844 124.579063 
C 125.254844 124.579063 125.254844 124.579063 125.254844 124.579063 
C 125.254844 124.579063 125.254844 124.579063 125.254844 124.579063 
L 100.996909 154.137441 
C 101.964399 154.93144 102.970289 155.677458 104.010946 156.372803 
C 105.051602 157.068147 106.125771 157.71198 107.229572 158.301974 
z
" clip-path="url(#p0340be778a)" style="fill: #badbb8"/>
   </g>
   <g id="patch_55">
    <path d="M 125.254844 124.579063 
C 125.254844 124.579063 125.254844 124.579063 125.254844 124.579063 
C 125.254844 124.579063 125.254844 124.579063 125.254844 124.579063 
L 106.041097 140.347377 
C 106.557217 140.976272 107.103904 141.579447 107.679181 142.154725 
C 108.254459 142.730002 108.857635 143.276689 109.486529 143.792809 
z
" clip-path="url(#p0340be778a)" style="fill: #badbb8"/>
   </g>
   <g id="patch_56">
    <path d="M 125.254844 124.579063 
C 125.254844 124.579063 125.254844 124.579063 125.254844 124.579063 
C 125.254844 124.579063 125.254844 124.579063 125.254844 124.579063 
L 108.753461 133.399235 
C 109.042158 133.93935 109.3572 134.464965 109.697448 134.974182 
C 110.037695 135.483399 110.402739 135.975604 110.791261 136.449018 
z
" clip-path="url(#p0340be778a)" style="fill: #badbb8"/>
   </g>
   <g id="patch_57">
    <path d="M 125.254844 124.579063 
C 125.254844 124.579063 125.254844 124.579063 125.254844 124.579063 
C 125.254844 124.579063 125.254844 124.579063 125.254844 124.579063 
L 97.78976 132.910505 
C 98.062461 133.809478 98.379134 134.69452 98.738636 135.562435 
C 99.098138 136.43035 99.500036 137.280092 99.942878 138.10859 
z
" clip-path="url(#p0340be778a)" style="fill: #badbb8"/>
   </g>
   <g id="patch_58">
    <path d="M 125.254844 124.579063 
C 125.254844 124.579063 125.254844 124.579063 125.254844 124.579063 
C 125.254844 124.579063 125.254844 124.579063 125.254844 124.579063 
L 103.596079 126.712265 
C 103.665902 127.421188 103.770489 128.126257 103.909462 128.824923 
C 104.048435 129.523589 104.221628 130.215011 104.428413 130.896691 
z
" clip-path="url(#p0340be778a)" style="fill: #badbb8"/>
   </g>
   <g id="patch_59">
    <path d="M 125.254844 124.579063 
C 125.254844 124.579063 125.254844 124.579063 125.254844 124.579063 
C 125.254844 124.579063 125.254844 124.579063 125.254844 124.579063 
L 115.156392 123.584452 
C 115.123837 123.914989 115.10753 124.246926 115.10753 124.579063 
C 115.10753 124.911199 115.123837 125.243136 115.156392 125.573673 
z
" clip-path="url(#p0340be778a)" style="fill: #badbb8"/>
   </g>
   <g id="patch_60">
    <path d="M 125.254844 124.579063 
C 125.254844 124.579063 125.254844 124.579063 125.254844 124.579063 
C 125.254844 124.579063 125.254844 124.579063 125.254844 124.579063 
L 116.569622 121.944429 
C 116.483386 122.228709 116.41116 122.517052 116.353204 122.808416 
C 116.295248 123.09978 116.251633 123.393814 116.222514 123.689456 
z
" clip-path="url(#p0340be778a)" style="fill: #badbb8"/>
   </g>
   <g id="patch_61">
    <path d="M 125.254844 124.579063 
C 125.254844 124.579063 125.254844 124.579063 125.254844 124.579063 
C 125.254844 124.579063 125.254844 124.579063 125.254844 124.579063 
L 119.594916 121.553768 
C 119.495894 121.739026 119.406027 121.929034 119.325639 122.123106 
C 119.245252 122.317177 119.174442 122.515079 119.113464 122.716095 
z
" clip-path="url(#p0340be778a)" style="fill: #badbb8"/>
   </g>
   <g id="patch_62">
    <path d="M 125.254844 124.579063 
C 125.254844 124.579063 125.254844 124.579063 125.254844 124.579063 
C 125.254844 124.579063 125.254844 124.579063 125.254844 124.579063 
L 121.74691 121.700175 
C 121.652679 121.814995 121.564143 121.934372 121.481621 122.057876 
C 121.399099 122.181379 121.32269 122.308859 121.252671 122.439856 
z
" clip-path="url(#p0340be778a)" style="fill: #badbb8"/>
   </g>
   <g id="patch_63">
    <path d="M 125.254844 124.579063 
C 125.254844 124.579063 125.254844 124.579063 125.254844 124.579063 
C 125.254844 124.579063 125.254844 124.579063 125.254844 124.579063 
L 125.254844 124.579063 
C 125.254844 124.579063 125.254844 124.579063 125.254844 124.579063 
C 125.254844 124.579063 125.254844 124.579063 125.254844 124.579063 
z
" clip-path="url(#p0340be778a)" style="fill: #badbb8"/>
   </g>
   <g id="patch_64">
    <path d="M 125.254844 124.579063 
C 125.254844 124.579063 125.254844 124.579063 125.254844 124.579063 
C 125.254844 124.579063 125.254844 124.579063 125.254844 124.579063 
L 125.254844 124.579063 
C 125.254844 124.579063 125.254844 124.579063 125.254844 124.579063 
C 125.254844 124.579063 125.254844 124.579063 125.254844 124.579063 
z
" clip-path="url(#p0340be778a)" style="fill: #badbb8"/>
   </g>
   <g id="patch_65">
    <path d="M 125.254844 124.579063 
C 125.254844 124.579063 125.254844 124.579063 125.254844 124.579063 
C 125.254844 124.579063 125.254844 124.579063 125.254844 124.579063 
L 125.254844 124.579063 
C 125.254844 124.579063 125.254844 124.579063 125.254844 124.579063 
C 125.254844 124.579063 125.254844 124.579063 125.254844 124.579063 
z
" clip-path="url(#p0340be778a)" style="fill: #badbb8"/>
   </g>
   <g id="patch_66">
    <path d="M 125.254844 124.579063 
C 125.254844 124.579063 125.254844 124.579063 125.254844 124.579063 
C 125.254844 124.579063 125.254844 124.579063 125.254844 124.579063 
L 125.254844 124.579063 
C 125.254844 124.579063 125.254844 124.579063 125.254844 124.579063 
C 125.254844 124.579063 125.254844 124.579063 125.254844 124.579063 
z
" clip-path="url(#p0340be778a)" style="fill: #badbb8"/>
   </g>
   <g id="patch_67">
    <path d="M 125.254844 124.579063 
C 125.254844 124.579063 125.254844 124.579063 125.254844 124.579063 
C 125.254844 124.579063 125.254844 124.579063 125.254844 124.579063 
L 129.427469 82.213682 
C 128.040787 82.077106 126.648235 82.008694 125.254844 82.008694 
C 123.861452 82.008694 122.4689 82.077106 121.082218 82.213682 
z
" clip-path="url(#p0340be778a)" style="fill: #a1a1d8"/>
   </g>
   <g id="patch_68">
    <path d="M 125.254844 124.579063 
C 125.254844 124.579063 125.254844 124.579063 125.254844 124.579063 
C 125.254844 124.579063 125.254844 124.579063 125.254844 124.579063 
L 136.354751 87.987572 
C 135.157057 87.624255 133.942247 87.319961 132.714709 87.075789 
C 131.487171 86.831616 130.248384 86.647859 129.002824 86.525182 
z
" clip-path="url(#p0340be778a)" style="fill: #a1a1d8"/>
   </g>
   <g id="patch_69">
    <path d="M 125.254844 124.579063 
C 125.254844 124.579063 125.254844 124.579063 125.254844 124.579063 
C 125.254844 124.579063 125.254844 124.579063 125.254844 124.579063 
L 139.605075 97.731668 
C 138.72632 97.261964 137.825033 96.835687 136.90447 96.454377 
C 135.983907 96.073068 135.045178 95.737185 134.091672 95.447942 
z
" clip-path="url(#p0340be778a)" style="fill: #a1a1d8"/>
   </g>
   <g id="patch_70">
    <path d="M 130.494807 114.77578 
C 130.815683 114.947292 131.127945 115.134455 131.430465 115.336592 
C 131.732985 115.538729 132.025398 115.755598 132.306648 115.986414 
L 139.64928 107.039392 
C 139.07518 106.56824 138.478294 106.12556 137.860778 105.712948 
C 137.243262 105.300337 136.60586 104.918293 135.950875 104.568196 
z
" clip-path="url(#p0340be778a)" style="fill: #a1a1d8"/>
   </g>
   <g id="patch_71">
    <path d="M 131.692231 116.735083 
C 131.948976 116.945789 132.195222 117.168972 132.430078 117.403828 
C 132.664934 117.638685 132.888118 117.88493 133.098823 118.141675 
L 135.17678 116.43634 
C 134.910256 116.11158 134.627949 115.800102 134.330877 115.50303 
C 134.033805 115.205957 133.722326 114.92365 133.397566 114.657126 
z
" clip-path="url(#p0340be778a)" style="fill: #a1a1d8"/>
   </g>
   <g id="patch_72">
    <path d="M 130.215812 120.507701 
C 130.349074 120.670081 130.474283 120.838906 130.590987 121.013566 
C 130.707691 121.188226 130.815749 121.36851 130.914771 121.553768 
L 141.263537 116.022238 
C 140.983459 115.498249 140.677824 114.988328 140.347735 114.494315 
C 140.017646 114.000302 139.663502 113.522793 139.28658 113.063514 
z
" clip-path="url(#p0340be778a)" style="fill: #a1a1d8"/>
   </g>
   <g id="patch_73">
    <path d="M 130.914771 121.553768 
C 131.013794 121.739026 131.103661 121.929034 131.184048 122.123106 
C 131.264435 122.317177 131.335245 122.515079 131.396223 122.716095 
L 136.744313 121.09377 
C 136.630234 120.717703 136.49776 120.347463 136.347369 119.984388 
C 136.196979 119.621313 136.028853 119.265841 135.843599 118.919255 
z
" clip-path="url(#p0340be778a)" style="fill: #a1a1d8"/>
   </g>
   <g id="patch_74">
    <path d="M 129.597455 123.261746 
C 129.640573 123.403886 129.676686 123.548057 129.705664 123.693739 
C 129.734641 123.839421 129.756449 123.986438 129.771008 124.134259 
L 129.771008 124.134259 
C 129.756449 123.986438 129.734641 123.839421 129.705664 123.693739 
C 129.676686 123.548057 129.640573 123.403886 129.597455 123.261746 
z
" clip-path="url(#p0340be778a)" style="fill: #a1a1d8"/>
   </g>
   <g id="patch_75">
    <path d="M 144.940349 122.640209 
C 145.003811 123.284545 145.035599 123.931609 145.035599 124.579063 
C 145.035599 125.226516 145.003811 125.87358 144.940349 126.517916 
L 151.588383 127.17269 
C 151.673276 126.310754 151.7158 125.445169 151.7158 124.579063 
C 151.7158 123.712956 151.673276 122.847371 151.588383 121.985435 
z
" clip-path="url(#p0340be778a)" style="fill: #a1a1d8"/>
   </g>
   <g id="patch_76">
    <path d="M 147.379442 126.758145 
C 147.308117 127.482316 147.201281 128.202549 147.059318 128.916242 
C 146.917356 129.629935 146.740439 130.336228 146.529206 131.03257 
L 155.026285 133.61013 
C 155.321885 132.635667 155.569464 131.647277 155.768127 130.648532 
C 155.96679 129.649787 156.116297 128.641889 156.216109 127.628481 
z
" clip-path="url(#p0340be778a)" style="fill: #a1a1d8"/>
   </g>
   <g id="patch_77">
    <path d="M 133.940066 127.213696 
C 133.85383 127.497976 133.753689 127.777851 133.640005 128.05231 
C 133.52632 128.326769 133.399229 128.595481 133.25919 128.857475 
L 155.99612 141.010617 
C 156.533949 140.004409 157.022052 138.972402 157.458666 137.918322 
C 157.89528 136.864243 158.279878 135.789363 158.611072 134.697564 
z
" clip-path="url(#p0340be778a)" style="fill: #a1a1d8"/>
   </g>
   <g id="patch_78">
    <path d="M 139.684885 132.29208 
C 139.432426 132.764397 139.15693 133.224034 138.859392 133.669331 
C 138.561854 134.114628 138.242632 134.545049 137.90288 134.959038 
L 154.18201 148.318974 
C 154.959053 147.372145 155.689141 146.387736 156.369636 145.369302 
C 157.050132 144.350868 157.680215 143.299638 158.25761 142.219408 
z
" clip-path="url(#p0340be778a)" style="fill: #a1a1d8"/>
   </g>
   <g id="patch_79">
    <path d="M 131.330764 129.565441 
C 131.167552 129.764315 130.994675 129.955056 130.812756 130.136975 
C 130.630837 130.318894 130.440097 130.491771 130.241223 130.654983 
L 151.164828 156.15047 
C 152.198208 155.302398 153.189326 154.4041 154.134604 153.458823 
C 155.079881 152.513545 155.978179 151.522426 156.826251 150.489047 
z
" clip-path="url(#p0340be778a)" style="fill: #a1a1d8"/>
   </g>
   <g id="patch_80">
    <path d="M 132.306648 133.171711 
C 132.025398 133.402527 131.732985 133.619396 131.430465 133.821533 
C 131.127945 134.02367 130.815683 134.210833 130.494807 134.382345 
L 145.884601 163.174623 
C 147.147891 162.499381 148.377268 161.762521 149.568289 160.966705 
C 150.759311 160.17089 151.910543 159.317078 153.017826 158.408355 
z
" clip-path="url(#p0340be778a)" style="fill: #a1a1d8"/>
   </g>
   <g id="patch_81">
    <path d="M 135.514116 143.772811 
C 134.885876 144.108612 134.241528 144.413366 133.583399 144.685972 
C 132.925269 144.958578 132.254153 145.198708 131.572472 145.405493 
L 144.389973 187.659131 
C 146.454678 187.03281 148.487388 186.305495 150.48076 185.479813 
C 152.474133 184.654131 154.425765 183.731077 156.328608 182.713987 
z
" clip-path="url(#p0340be778a)" style="fill: #a1a1d8"/>
   </g>
   <g id="patch_82">
    <path d="M 130.183791 140.827625 
C 129.651952 140.988957 129.112511 141.12408 128.567419 141.232505 
C 128.022327 141.340931 127.472241 141.422528 126.919146 141.477003 
L 129.157978 164.208247 
C 130.4551 164.080491 131.745168 163.889128 133.023522 163.634847 
C 134.301877 163.380567 135.566976 163.063676 136.81425 162.68532 
z
" clip-path="url(#p0340be778a)" style="fill: #a1a1d8"/>
   </g>
   <g id="patch_83">
    <path d="M 128.205336 154.53591 
C 127.224803 154.632484 126.24012 154.680858 125.254844 154.680858 
C 124.269567 154.680858 123.284884 154.632484 122.304352 154.53591 
L 120.632311 171.512423 
C 122.16851 171.663725 123.711212 171.739513 125.254844 171.739513 
C 126.798476 171.739513 128.341177 171.663725 129.877376 171.512423 
z
" clip-path="url(#p0340be778a)" style="fill: #a1a1d8"/>
   </g>
   <g id="patch_84">
    <path d="M 121.178153 165.970396 
C 119.823353 165.836959 118.475921 165.637087 117.140724 165.371499 
C 115.805526 165.105912 114.484173 164.774931 113.181437 164.37975 
L 106.812411 185.375617 
C 108.802373 185.979265 110.820773 186.484848 112.86032 186.890539 
C 114.899868 187.296231 116.958105 187.601541 119.027596 187.805368 
z
" clip-path="url(#p0340be778a)" style="fill: #a1a1d8"/>
   </g>
   <g id="patch_85">
    <path d="M 112.827303 165.547173 
C 111.486356 165.140401 110.166188 164.668037 108.871568 164.131788 
C 107.576949 163.595539 106.309437 162.996051 105.073613 162.335489 
L 86.512172 197.061503 
C 88.884631 198.329608 91.31792 199.480468 93.80325 200.509926 
C 96.288581 201.539383 98.822957 202.446198 101.397225 203.227093 
z
" clip-path="url(#p0340be778a)" style="fill: #a1a1d8"/>
   </g>
   <g id="patch_86">
    <path d="M 107.229572 158.301974 
C 106.125771 157.71198 105.051602 157.068147 104.010946 156.372803 
C 102.970289 155.677458 101.964399 154.93144 100.996909 154.137441 
L 88.162977 169.775633 
C 89.642328 170.989705 91.180396 172.130413 92.771623 173.193638 
C 94.362851 174.256862 96.005321 175.241321 97.6931 176.143458 
z
" clip-path="url(#p0340be778a)" style="fill: #a1a1d8"/>
   </g>
   <g id="patch_87">
    <path d="M 109.486529 143.792809 
C 108.857635 143.276689 108.254459 142.730002 107.679181 142.154725 
C 107.103904 141.579447 106.557217 140.976272 106.041097 140.347377 
L 81.300554 160.651415 
C 82.481256 162.090105 83.731882 163.469958 85.047915 164.785991 
C 86.363948 166.102024 87.743801 167.35265 89.182491 168.533352 
z
" clip-path="url(#p0340be778a)" style="fill: #a1a1d8"/>
   </g>
   <g id="patch_88">
    <path d="M 110.791261 136.449018 
C 110.402739 135.975604 110.037695 135.483399 109.697448 134.974182 
C 109.3572 134.464965 109.042158 133.93935 108.753461 133.399235 
L 75.58918 151.125913 
C 76.458098 152.751544 77.406306 154.333534 78.43038 155.866169 
C 79.454454 157.398803 80.553158 158.880235 81.722525 160.305113 
z
" clip-path="url(#p0340be778a)" style="fill: #a1a1d8"/>
   </g>
   <g id="patch_89">
    <path d="M 99.942878 138.10859 
C 99.500036 137.280092 99.098138 136.43035 98.738636 135.562435 
C 98.379134 134.69452 98.062461 133.809478 97.78976 132.910505 
L 62.324431 143.668794 
C 62.949267 145.728601 63.674857 147.756488 64.49858 149.745131 
C 65.322303 151.733774 66.243166 153.680777 67.257844 155.579105 
z
" clip-path="url(#p0340be778a)" style="fill: #a1a1d8"/>
   </g>
   <g id="patch_90">
    <path d="M 104.428413 130.896691 
C 104.221628 130.215011 104.048435 129.523589 103.909462 128.824923 
C 103.770489 128.126257 103.665902 127.421188 103.596079 126.712265 
L 87.200964 128.327043 
C 87.323641 129.572603 87.507397 130.811389 87.75157 132.038928 
C 87.995742 133.266466 88.300036 134.481276 88.663353 135.67897 
z
" clip-path="url(#p0340be778a)" style="fill: #a1a1d8"/>
   </g>
   <g id="patch_91">
    <path d="M 115.156392 125.573673 
C 115.123837 125.243136 115.10753 124.911199 115.10753 124.579063 
C 115.10753 124.246926 115.123837 123.914989 115.156392 123.584452 
L 84.110625 120.526711 
C 83.977986 121.873422 83.911546 123.225835 83.911546 124.579062 
C 83.911546 125.93229 83.977986 127.284703 84.110625 128.631414 
z
" clip-path="url(#p0340be778a)" style="fill: #a1a1d8"/>
   </g>
   <g id="patch_92">
    <path d="M 116.222514 123.689456 
C 116.251633 123.393814 116.295248 123.09978 116.353204 122.808416 
C 116.41116 122.517052 116.483386 122.228709 116.569622 121.944429 
L 94.856567 115.357846 
C 94.554742 116.352827 94.301951 117.362027 94.099105 118.381801 
C 93.89626 119.401575 93.743604 120.430693 93.641691 121.465439 
z
" clip-path="url(#p0340be778a)" style="fill: #a1a1d8"/>
   </g>
   <g id="patch_93">
    <path d="M 119.113464 122.716095 
C 119.174442 122.515079 119.245252 122.317177 119.325639 122.123106 
C 119.406027 121.929034 119.495894 121.739026 119.594916 121.553768 
L 106.914582 114.775988 
C 106.593713 115.376292 106.30251 115.991989 106.042026 116.620853 
C 105.781542 117.249717 105.55209 117.890991 105.3545 118.542359 
z
" clip-path="url(#p0340be778a)" style="fill: #a1a1d8"/>
   </g>
   <g id="patch_94">
    <path d="M 121.252671 122.439856 
C 121.32269 122.308859 121.399099 122.181379 121.481621 122.057876 
C 121.564143 121.934372 121.652679 121.814995 121.74691 121.700175 
L 121.74691 121.700175 
C 121.652679 121.814995 121.564143 121.934372 121.481621 122.057876 
C 121.399099 122.181379 121.32269 122.308859 121.252671 122.439856 
z
" clip-path="url(#p0340be778a)" style="fill: #a1a1d8"/>
   </g>
   <g id="patch_95">
    <path d="M 125.254844 124.579063 
C 125.254844 124.579063 125.254844 124.579063 125.254844 124.579063 
C 125.254844 124.579063 125.254844 124.579063 125.254844 124.579063 
L 118.203039 115.986414 
C 117.921789 116.21723 117.652041 116.461715 117.394769 116.718987 
C 117.137497 116.976259 116.893011 117.246008 116.662195 117.527258 
z
" clip-path="url(#p0340be778a)" style="fill: #a1a1d8"/>
   </g>
   <g id="patch_96">
    <path d="M 125.254844 124.579063 
C 125.254844 124.579063 125.254844 124.579063 125.254844 124.579063 
C 125.254844 124.579063 125.254844 124.579063 125.254844 124.579063 
L 119.595036 113.990307 
C 119.24845 114.175561 118.911169 114.37772 118.58441 114.596053 
C 118.257651 114.814387 117.941809 115.048631 117.638024 115.297941 
z
" clip-path="url(#p0340be778a)" style="fill: #a1a1d8"/>
   </g>
   <g id="patch_97">
    <path d="M 125.254844 124.579063 
C 125.254844 124.579063 125.254844 124.579063 125.254844 124.579063 
C 125.254844 124.579063 125.254844 124.579063 125.254844 124.579063 
L 122.02809 113.941881 
C 121.679919 114.047498 121.337144 114.170145 121.001002 114.309379 
C 120.66486 114.448614 120.335756 114.604268 120.01488 114.77578 
z
" clip-path="url(#p0340be778a)" style="fill: #a1a1d8"/>
   </g>
   <g id="patch_98">
    <path d="M 125.254844 124.579063 
C 125.254844 124.579063 125.254844 124.579063 125.254844 124.579063 
C 125.254844 124.579063 125.254844 124.579063 125.254844 124.579063 
L 123.315991 104.893557 
C 122.671655 104.957019 122.030823 105.052077 121.39581 105.178389 
C 120.760797 105.304701 120.132368 105.462114 119.512794 105.65006 
z
" clip-path="url(#p0340be778a)" style="fill: #a1a1d8"/>
   </g>
   <g id="patch_99">
    <path d="M 121.082218 82.213682 
C 122.4689 82.077106 123.861452 82.008694 125.254844 82.008694 
C 126.648235 82.008694 128.040787 82.077106 129.427469 82.213682 
L 130.345851 72.889195 
C 128.653965 72.722559 126.954917 72.63909 125.254844 72.63909 
C 123.554771 72.63909 121.855723 72.722559 120.163836 72.889195 
z
" clip-path="url(#p0340be778a)" style="fill: #828282"/>
   </g>
   <g id="patch_100">
    <path d="M 129.002824 86.525182 
C 130.248384 86.647859 131.487171 86.831616 132.714709 87.075789 
C 133.942247 87.319961 135.157057 87.624255 136.354751 87.987572 
L 140.38966 74.68626 
C 138.756594 74.190875 137.10019 73.775968 135.426432 73.443037 
C 133.752673 73.110105 132.063578 72.859552 130.365246 72.692281 
z
" clip-path="url(#p0340be778a)" style="fill: #828282"/>
   </g>
   <g id="patch_101">
    <path d="M 134.091672 95.447942 
C 135.045178 95.737185 135.983907 96.073068 136.90447 96.454377 
C 137.825033 96.835687 138.72632 97.261964 139.605075 97.731668 
L 147.894074 82.224042 
C 146.507731 81.483026 145.085841 80.810523 143.633542 80.208961 
C 142.181242 79.607398 140.700283 79.077503 139.196013 78.621187 
z
" clip-path="url(#p0340be778a)" style="fill: #828282"/>
   </g>
   <g id="patch_102">
    <path d="M 135.950875 104.568196 
C 136.60586 104.918293 137.243262 105.300337 137.860778 105.712948 
C 138.478294 106.12556 139.07518 106.56824 139.64928 107.039392 
L 142.041496 104.124467 
C 141.371987 103.575015 140.675904 103.058765 139.955763 102.577582 
C 139.235622 102.096399 138.49229 101.650863 137.728452 101.242583 
z
" clip-path="url(#p0340be778a)" style="fill: #828282"/>
   </g>
   <g id="patch_103">
    <path d="M 133.397566 114.657126 
C 133.722326 114.92365 134.033805 115.205957 134.330877 115.50303 
C 134.627949 115.800102 134.910256 116.11158 135.17678 116.43634 
L 141.708514 111.075885 
C 141.266534 110.537332 140.79838 110.020803 140.305742 109.528165 
C 139.813103 109.035526 139.296575 108.567372 138.758022 108.125393 
z
" clip-path="url(#p0340be778a)" style="fill: #828282"/>
   </g>
   <g id="patch_104">
    <path d="M 139.28658 113.063514 
C 139.663502 113.522793 140.017646 114.000302 140.347735 114.494315 
C 140.677824 114.988328 140.983459 115.498249 141.263537 116.022238 
L 141.263537 116.022238 
C 140.983459 115.498249 140.677824 114.988328 140.347735 114.494315 
C 140.017646 114.000302 139.663502 113.522793 139.28658 113.063514 
z
" clip-path="url(#p0340be778a)" style="fill: #828282"/>
   </g>
   <g id="patch_105">
    <path d="M 135.843599 118.919255 
C 136.028853 119.265841 136.196979 119.621313 136.347369 119.984388 
C 136.49776 120.347463 136.630234 120.717703 136.744313 121.09377 
L 137.537603 120.853128 
C 137.415647 120.451095 137.274027 120.055292 137.113252 119.667149 
C 136.952478 119.279005 136.772744 118.89899 136.574699 118.528474 
z
" clip-path="url(#p0340be778a)" style="fill: #828282"/>
   </g>
   <g id="patch_106">
    <path d="M 129.597455 123.261746 
C 129.640573 123.403886 129.676686 123.548057 129.705664 123.693739 
C 129.734641 123.839421 129.756449 123.986438 129.771008 124.134259 
L 129.771008 124.134259 
C 129.756449 123.986438 129.734641 123.839421 129.705664 123.693739 
C 129.676686 123.548057 129.640573 123.403886 129.597455 123.261746 
z
" clip-path="url(#p0340be778a)" style="fill: #828282"/>
   </g>
   <g id="patch_107">
    <path d="M 151.588383 121.985435 
C 151.673276 122.847371 151.7158 123.712956 151.7158 124.579063 
C 151.7158 125.445169 151.673276 126.310754 151.588383 127.17269 
L 151.588383 127.17269 
C 151.673276 126.310754 151.7158 125.445169 151.7158 124.579063 
C 151.7158 123.712956 151.673276 122.847371 151.588383 121.985435 
z
" clip-path="url(#p0340be778a)" style="fill: #828282"/>
   </g>
   <g id="patch_108">
    <path d="M 156.216109 127.628481 
C 156.116297 128.641889 155.96679 129.649787 155.768127 130.648532 
C 155.569464 131.647277 155.321885 132.635667 155.026285 133.61013 
L 155.026285 133.61013 
C 155.321885 132.635667 155.569464 131.647277 155.768127 130.648532 
C 155.96679 129.649787 156.116297 128.641889 156.216109 127.628481 
z
" clip-path="url(#p0340be778a)" style="fill: #828282"/>
   </g>
   <g id="patch_109">
    <path d="M 158.611072 134.697564 
C 158.279878 135.789363 157.89528 136.864243 157.458666 137.918322 
C 157.022052 138.972402 156.533949 140.004409 155.99612 141.010617 
L 155.99612 141.010617 
C 156.533949 140.004409 157.022052 138.972402 157.458666 137.918322 
C 157.89528 136.864243 158.279878 135.789363 158.611072 134.697564 
z
" clip-path="url(#p0340be778a)" style="fill: #828282"/>
   </g>
   <g id="patch_110">
    <path d="M 158.25761 142.219408 
C 157.680215 143.299638 157.050132 144.350868 156.369636 145.369302 
C 155.689141 146.387736 154.959053 147.372145 154.18201 148.318974 
L 154.18201 148.318974 
C 154.959053 147.372145 155.689141 146.387736 156.369636 145.369302 
C 157.050132 144.350868 157.680215 143.299638 158.25761 142.219408 
z
" clip-path="url(#p0340be778a)" style="fill: #828282"/>
   </g>
   <g id="patch_111">
    <path d="M 156.826251 150.489047 
C 155.978179 151.522426 155.079881 152.513545 154.134604 153.458823 
C 153.189326 154.4041 152.198208 155.302398 151.164828 156.15047 
L 151.164828 156.15047 
C 152.198208 155.302398 153.189326 154.4041 154.134604 153.458823 
C 155.079881 152.513545 155.978179 151.522426 156.826251 150.489047 
z
" clip-path="url(#p0340be778a)" style="fill: #828282"/>
   </g>
   <g id="patch_112">
    <path d="M 153.017826 158.408355 
C 151.910543 159.317078 150.759311 160.17089 149.568289 160.966705 
C 148.377268 161.762521 147.147891 162.499381 145.884601 163.174623 
L 145.884601 163.174623 
C 147.147891 162.499381 148.377268 161.762521 149.568289 160.966705 
C 150.759311 160.17089 151.910543 159.317078 153.017826 158.408355 
z
" clip-path="url(#p0340be778a)" style="fill: #828282"/>
   </g>
   <g id="patch_113">
    <path d="M 156.328608 182.713987 
C 154.425765 183.731077 152.474133 184.654131 150.48076 185.479813 
C 148.487388 186.305495 146.454678 187.03281 144.389973 187.659131 
L 144.389973 187.659131 
C 146.454678 187.03281 148.487388 186.305495 150.48076 185.479813 
C 152.474133 184.654131 154.425765 183.731077 156.328608 182.713987 
z
" clip-path="url(#p0340be778a)" style="fill: #828282"/>
   </g>
   <g id="patch_114">
    <path d="M 136.81425 162.68532 
C 135.566976 163.063676 134.301877 163.380567 133.023522 163.634847 
C 131.745168 163.889128 130.4551 164.080491 129.157978 164.208247 
L 129.157978 164.208247 
C 130.4551 164.080491 131.745168 163.889128 133.023522 163.634847 
C 134.301877 163.380567 135.566976 163.063676 136.81425 162.68532 
z
" clip-path="url(#p0340be778a)" style="fill: #828282"/>
   </g>
   <g id="patch_115">
    <path d="M 129.877376 171.512423 
C 128.341177 171.663725 126.798476 171.739513 125.254844 171.739513 
C 123.711212 171.739513 122.16851 171.663725 120.632311 171.512423 
L 120.632311 171.512423 
C 122.16851 171.663725 123.711212 171.739513 125.254844 171.739513 
C 126.798476 171.739513 128.341177 171.663725 129.877376 171.512423 
z
" clip-path="url(#p0340be778a)" style="fill: #828282"/>
   </g>
   <g id="patch_116">
    <path d="M 119.027596 187.805368 
C 116.958105 187.601541 114.899868 187.296231 112.86032 186.890539 
C 110.820773 186.484848 108.802373 185.979265 106.812411 185.375617 
L 106.625173 185.992856 
C 108.635338 186.602633 110.67423 187.113349 112.734484 187.523159 
C 114.794739 187.932969 116.873872 188.24138 118.964374 188.447276 
z
" clip-path="url(#p0340be778a)" style="fill: #828282"/>
   </g>
   <g id="patch_117">
    <path d="M 101.397225 203.227093 
C 98.822957 202.446198 96.288581 201.539383 93.80325 200.509926 
C 91.31792 199.480468 88.884631 198.329608 86.512172 197.061503 
L 82.631463 204.321799 
C 85.241562 205.716926 87.918584 206.983064 90.652861 208.115638 
C 93.387138 209.248213 96.175373 210.245859 99.007495 211.104974 
z
" clip-path="url(#p0340be778a)" style="fill: #828282"/>
   </g>
   <g id="patch_118">
    <path d="M 97.6931 176.143458 
C 96.005321 175.241321 94.362851 174.256862 92.771623 173.193638 
C 91.180396 172.130413 89.642328 170.989705 88.162977 169.775633 
L 88.162977 169.775633 
C 89.642328 170.989705 91.180396 172.130413 92.771623 173.193638 
C 94.362851 174.256862 96.005321 175.241321 97.6931 176.143458 
z
" clip-path="url(#p0340be778a)" style="fill: #828282"/>
   </g>
   <g id="patch_119">
    <path d="M 89.182491 168.533352 
C 87.743801 167.35265 86.363948 166.102024 85.047915 164.785991 
C 83.731882 163.469958 82.481256 162.090105 81.300554 160.651415 
L 80.606131 161.221314 
C 81.805487 162.682733 83.075871 164.084386 84.412695 165.421211 
C 85.74952 166.758035 87.151173 168.02842 88.612592 169.227775 
z
" clip-path="url(#p0340be778a)" style="fill: #828282"/>
   </g>
   <g id="patch_120">
    <path d="M 81.722525 160.305113 
C 80.553158 158.880235 79.454454 157.398803 78.43038 155.866169 
C 77.406306 154.333534 76.458098 152.751544 75.58918 151.125913 
L 73.226592 152.388743 
C 74.136844 154.091705 75.130159 155.74895 76.202947 157.354492 
C 77.275736 158.960034 78.426706 160.511937 79.651699 162.004596 
z
" clip-path="url(#p0340be778a)" style="fill: #828282"/>
   </g>
   <g id="patch_121">
    <path d="M 67.257844 155.579105 
C 66.243166 153.680777 65.322303 151.733774 64.49858 149.745131 
C 63.674857 147.756488 62.949267 145.728601 62.324431 143.668794 
L 61.876523 143.804666 
C 62.505805 145.879133 63.236559 147.921454 64.066145 149.924251 
C 64.895731 151.927049 65.823149 153.887909 66.845048 155.799749 
z
" clip-path="url(#p0340be778a)" style="fill: #828282"/>
   </g>
   <g id="patch_122">
    <path d="M 88.663353 135.67897 
C 88.300036 134.481276 87.995742 133.266466 87.75157 132.038928 
C 87.507397 130.811389 87.323641 129.572603 87.200964 128.327043 
L 79.420778 129.093324 
C 79.568537 130.593541 79.789863 132.0856 80.083957 133.564111 
C 80.378051 135.042621 80.744558 136.505801 81.182155 137.948366 
z
" clip-path="url(#p0340be778a)" style="fill: #828282"/>
   </g>
   <g id="patch_123">
    <path d="M 84.110625 128.631414 
C 83.977986 127.284703 83.911546 125.93229 83.911546 124.579062 
C 83.911546 123.225835 83.977986 121.873422 84.110625 120.526711 
L 77.0354 119.829862 
C 76.879951 121.408156 76.802087 122.993131 76.802087 124.579062 
C 76.802087 126.164994 76.879951 127.749969 77.0354 129.328263 
z
" clip-path="url(#p0340be778a)" style="fill: #828282"/>
   </g>
   <g id="patch_124">
    <path d="M 93.641691 121.465439 
C 93.743604 120.430693 93.89626 119.401575 94.099105 118.381801 
C 94.301951 117.362027 94.554742 116.352827 94.856567 115.357846 
L 77.289137 110.028825 
C 76.812886 111.598814 76.414004 113.191239 76.093933 114.800349 
C 75.773861 116.409459 75.532985 118.033314 75.372174 119.666048 
z
" clip-path="url(#p0340be778a)" style="fill: #828282"/>
   </g>
   <g id="patch_125">
    <path d="M 105.3545 118.542359 
C 105.55209 117.890991 105.781542 117.249717 106.042026 116.620853 
C 106.30251 115.991989 106.593713 115.376292 106.914582 114.775988 
L 80.152642 100.471433 
C 79.363563 101.947696 78.647441 103.46181 78.006861 105.008307 
C 77.36628 106.554804 76.802015 108.13182 76.316103 109.733658 
z
" clip-path="url(#p0340be778a)" style="fill: #828282"/>
   </g>
   <g id="patch_126">
    <path d="M 121.252671 122.439856 
C 121.32269 122.308859 121.399099 122.181379 121.481621 122.057876 
C 121.564143 121.934372 121.652679 121.814995 121.74691 121.700175 
L 68.042169 77.625834 
C 66.505319 79.49849 65.061339 81.445472 63.715442 83.459749 
C 62.369546 85.474025 61.123356 87.553168 59.981374 89.689666 
z
" clip-path="url(#p0340be778a)" style="fill: #828282"/>
   </g>
   <g id="patch_127">
    <path d="M 116.662195 117.527258 
C 116.893011 117.246008 117.137497 116.976259 117.394769 116.718987 
C 117.652041 116.461715 117.921789 116.21723 118.203039 115.986414 
L 54.913314 38.86766 
C 52.107851 41.170043 49.417121 43.608779 46.850841 46.175059 
C 44.284561 48.74134 41.845825 51.43207 39.543441 54.237532 
z
" clip-path="url(#p0340be778a)" style="fill: #828282"/>
   </g>
   <g id="patch_128">
    <path d="M 117.638024 115.297941 
C 117.941809 115.048631 118.257651 114.814387 118.58441 114.596053 
C 118.911169 114.37772 119.24845 114.175561 119.595036 113.990307 
L 73.514349 27.779406 
C 70.345952 29.47295 67.262613 31.321032 64.275469 33.316978 
C 61.288324 35.312924 58.400976 37.454328 55.623852 39.733454 
z
" clip-path="url(#p0340be778a)" style="fill: #828282"/>
   </g>
   <g id="patch_129">
    <path d="M 120.01488 114.77578 
C 120.335756 114.604268 120.66486 114.448614 121.001002 114.309379 
C 121.337144 114.170145 121.679919 114.047498 122.02809 113.941881 
L 110.884616 77.206769 
C 109.33405 77.677128 107.807512 78.223332 106.310515 78.843408 
C 104.813519 79.463484 103.347869 80.156685 101.91886 80.920507 
z
" clip-path="url(#p0340be778a)" style="fill: #828282"/>
   </g>
   <g id="patch_130">
    <path d="M 119.512794 105.65006 
C 120.132368 105.462114 120.760797 105.304701 121.39581 105.178389 
C 122.030823 105.052077 122.671655 104.957019 123.315991 104.893557 
L 121.082218 82.213682 
C 119.695536 82.350259 118.316395 82.554835 116.949777 82.826672 
C 115.583159 83.098509 114.230711 83.43728 112.897318 83.84176 
z
" clip-path="url(#p0340be778a)" style="fill: #828282"/>
   </g>
   <g id="patch_131">
    <path d="M 125.254844 124.579063 
C 125.254844 124.579063 125.254844 124.579063 125.254844 124.579063 
C 125.254844 124.579063 125.254844 124.579063 125.254844 124.579063 
L 130.345851 72.889195 
C 128.653965 72.722559 126.954917 72.63909 125.254844 72.63909 
C 123.554771 72.63909 121.855723 72.722559 120.163836 72.889195 
L 125.254844 124.579063 
z
" clip-path="url(#p0340be778a)" style="fill: none; stroke: #292929; stroke-width: 0.5; stroke-linejoin: miter"/>
   </g>
   <g id="patch_132">
    <path d="M 125.254844 124.579063 
C 125.254844 124.579063 125.254844 124.579063 125.254844 124.579063 
C 125.254844 124.579063 125.254844 124.579063 125.254844 124.579063 
L 140.38966 74.68626 
C 138.756594 74.190875 137.10019 73.775968 135.426432 73.443037 
C 133.752673 73.110105 132.063578 72.859552 130.365246 72.692281 
L 125.254844 124.579063 
z
" clip-path="url(#p0340be778a)" style="fill: none; stroke: #292929; stroke-width: 0.5; stroke-linejoin: miter"/>
   </g>
   <g id="patch_133">
    <path d="M 125.254844 124.579063 
C 125.254844 124.579063 125.254844 124.579063 125.254844 124.579063 
C 125.254844 124.579063 125.254844 124.579063 125.254844 124.579063 
L 147.894074 82.224042 
C 146.507731 81.483026 145.085841 80.810523 143.633542 80.208961 
C 142.181242 79.607398 140.700283 79.077503 139.196013 78.621187 
L 125.254844 124.579063 
z
" clip-path="url(#p0340be778a)" style="fill: none; stroke: #292929; stroke-width: 0.5; stroke-linejoin: miter"/>
   </g>
   <g id="patch_134">
    <path d="M 125.254844 124.579063 
C 125.254844 124.579063 125.254844 124.579063 125.254844 124.579063 
C 125.254844 124.579063 125.254844 124.579063 125.254844 124.579063 
L 142.041496 104.124467 
C 141.371987 103.575015 140.675904 103.058765 139.955763 102.577582 
C 139.235622 102.096399 138.49229 101.650863 137.728452 101.242583 
L 125.254844 124.579063 
z
" clip-path="url(#p0340be778a)" style="fill: none; stroke: #292929; stroke-width: 0.5; stroke-linejoin: miter"/>
   </g>
   <g id="patch_135">
    <path d="M 125.254844 124.579063 
C 125.254844 124.579063 125.254844 124.579063 125.254844 124.579063 
C 125.254844 124.579063 125.254844 124.579063 125.254844 124.579063 
L 141.708514 111.075885 
C 141.266534 110.537332 140.79838 110.020803 140.305742 109.528165 
C 139.813103 109.035526 139.296575 108.567372 138.758022 108.125393 
L 125.254844 124.579063 
z
" clip-path="url(#p0340be778a)" style="fill: none; stroke: #292929; stroke-width: 0.5; stroke-linejoin: miter"/>
   </g>
   <g id="patch_136">
    <path d="M 125.254844 124.579063 
C 125.254844 124.579063 125.254844 124.579063 125.254844 124.579063 
C 125.254844 124.579063 125.254844 124.579063 125.254844 124.579063 
L 141.263537 116.022238 
C 140.983459 115.498249 140.677824 114.988328 140.347735 114.494315 
C 140.017646 114.000302 139.663502 113.522793 139.28658 113.063514 
L 125.254844 124.579063 
z
" clip-path="url(#p0340be778a)" style="fill: none; stroke: #292929; stroke-width: 0.5; stroke-linejoin: miter"/>
   </g>
   <g id="patch_137">
    <path d="M 125.254844 124.579063 
C 125.254844 124.579063 125.254844 124.579063 125.254844 124.579063 
C 125.254844 124.579063 125.254844 124.579063 125.254844 124.579063 
L 137.537603 120.853128 
C 137.415647 120.451095 137.274027 120.055292 137.113252 119.667149 
C 136.952478 119.279005 136.772744 118.89899 136.574699 118.528474 
L 125.254844 124.579063 
z
" clip-path="url(#p0340be778a)" style="fill: none; stroke: #292929; stroke-width: 0.5; stroke-linejoin: miter"/>
   </g>
   <g id="patch_138">
    <path d="M 125.254844 124.579063 
C 125.254844 124.579063 125.254844 124.579063 125.254844 124.579063 
C 125.254844 124.579063 125.254844 124.579063 125.254844 124.579063 
L 129.771008 124.134259 
C 129.756449 123.986438 129.734641 123.839421 129.705664 123.693739 
C 129.676686 123.548057 129.640573 123.403886 129.597455 123.261746 
L 125.254844 124.579063 
z
" clip-path="url(#p0340be778a)" style="fill: none; stroke: #292929; stroke-width: 0.5; stroke-linejoin: miter"/>
   </g>
   <g id="patch_139">
    <path d="M 125.254844 124.579063 
C 125.254844 124.579063 125.254844 124.579063 125.254844 124.579063 
C 125.254844 124.579063 125.254844 124.579063 125.254844 124.579063 
L 151.588383 127.17269 
C 151.673276 126.310754 151.7158 125.445169 151.7158 124.579063 
C 151.7158 123.712956 151.673276 122.847371 151.588383 121.985435 
L 125.254844 124.579063 
z
" clip-path="url(#p0340be778a)" style="fill: none; stroke: #292929; stroke-width: 0.5; stroke-linejoin: miter"/>
   </g>
   <g id="patch_140">
    <path d="M 125.254844 124.579063 
C 125.254844 124.579063 125.254844 124.579063 125.254844 124.579063 
C 125.254844 124.579063 125.254844 124.579063 125.254844 124.579063 
L 155.026285 133.61013 
C 155.321885 132.635667 155.569464 131.647277 155.768127 130.648532 
C 155.96679 129.649787 156.116297 128.641889 156.216109 127.628481 
L 125.254844 124.579063 
z
" clip-path="url(#p0340be778a)" style="fill: none; stroke: #292929; stroke-width: 0.5; stroke-linejoin: miter"/>
   </g>
   <g id="patch_141">
    <path d="M 125.254844 124.579063 
C 125.254844 124.579063 125.254844 124.579063 125.254844 124.579063 
C 125.254844 124.579063 125.254844 124.579063 125.254844 124.579063 
L 155.99612 141.010617 
C 156.533949 140.004409 157.022052 138.972402 157.458666 137.918322 
C 157.89528 136.864243 158.279878 135.789363 158.611072 134.697564 
L 125.254844 124.579063 
z
" clip-path="url(#p0340be778a)" style="fill: none; stroke: #292929; stroke-width: 0.5; stroke-linejoin: miter"/>
   </g>
   <g id="patch_142">
    <path d="M 125.254844 124.579063 
C 125.254844 124.579063 125.254844 124.579063 125.254844 124.579063 
C 125.254844 124.579063 125.254844 124.579063 125.254844 124.579063 
L 154.18201 148.318974 
C 154.959053 147.372145 155.689141 146.387736 156.369636 145.369302 
C 157.050132 144.350868 157.680215 143.299638 158.25761 142.219408 
L 125.254844 124.579063 
z
" clip-path="url(#p0340be778a)" style="fill: none; stroke: #292929; stroke-width: 0.5; stroke-linejoin: miter"/>
   </g>
   <g id="patch_143">
    <path d="M 125.254844 124.579063 
C 125.254844 124.579063 125.254844 124.579063 125.254844 124.579063 
C 125.254844 124.579063 125.254844 124.579063 125.254844 124.579063 
L 151.164828 156.15047 
C 152.198208 155.302398 153.189326 154.4041 154.134604 153.458823 
C 155.079881 152.513545 155.978179 151.522426 156.826251 150.489047 
L 125.254844 124.579063 
z
" clip-path="url(#p0340be778a)" style="fill: none; stroke: #292929; stroke-width: 0.5; stroke-linejoin: miter"/>
   </g>
   <g id="patch_144">
    <path d="M 125.254844 124.579063 
C 125.254844 124.579063 125.254844 124.579063 125.254844 124.579063 
C 125.254844 124.579063 125.254844 124.579063 125.254844 124.579063 
L 145.884601 163.174623 
C 147.147891 162.499381 148.377268 161.762521 149.568289 160.966705 
C 150.759311 160.17089 151.910543 159.317078 153.017826 158.408355 
L 125.254844 124.579063 
z
" clip-path="url(#p0340be778a)" style="fill: none; stroke: #292929; stroke-width: 0.5; stroke-linejoin: miter"/>
   </g>
   <g id="patch_145">
    <path d="M 125.254844 124.579063 
C 125.254844 124.579063 125.254844 124.579063 125.254844 124.579063 
C 125.254844 124.579063 125.254844 124.579063 125.254844 124.579063 
L 144.389973 187.659131 
C 146.454678 187.03281 148.487388 186.305495 150.48076 185.479813 
C 152.474133 184.654131 154.425765 183.731077 156.328608 182.713987 
L 125.254844 124.579063 
z
" clip-path="url(#p0340be778a)" style="fill: none; stroke: #292929; stroke-width: 0.5; stroke-linejoin: miter"/>
   </g>
   <g id="patch_146">
    <path d="M 125.254844 124.579063 
C 125.254844 124.579063 125.254844 124.579063 125.254844 124.579063 
C 125.254844 124.579063 125.254844 124.579063 125.254844 124.579063 
L 129.157978 164.208247 
C 130.4551 164.080491 131.745168 163.889128 133.023522 163.634847 
C 134.301877 163.380567 135.566976 163.063676 136.81425 162.68532 
L 125.254844 124.579063 
z
" clip-path="url(#p0340be778a)" style="fill: none; stroke: #292929; stroke-width: 0.5; stroke-linejoin: miter"/>
   </g>
   <g id="patch_147">
    <path d="M 125.254844 124.579063 
C 125.254844 124.579063 125.254844 124.579063 125.254844 124.579063 
C 125.254844 124.579063 125.254844 124.579063 125.254844 124.579063 
L 120.632311 171.512423 
C 122.16851 171.663725 123.711212 171.739513 125.254844 171.739513 
C 126.798476 171.739513 128.341177 171.663725 129.877376 171.512423 
L 125.254844 124.579063 
z
" clip-path="url(#p0340be778a)" style="fill: none; stroke: #292929; stroke-width: 0.5; stroke-linejoin: miter"/>
   </g>
   <g id="patch_148">
    <path d="M 125.254844 124.579063 
C 125.254844 124.579063 125.254844 124.579063 125.254844 124.579063 
C 125.254844 124.579063 125.254844 124.579063 125.254844 124.579063 
L 106.625173 185.992856 
C 108.635338 186.602633 110.67423 187.113349 112.734484 187.523159 
C 114.794739 187.932969 116.873872 188.24138 118.964374 188.447276 
L 125.254844 124.579063 
z
" clip-path="url(#p0340be778a)" style="fill: none; stroke: #292929; stroke-width: 0.5; stroke-linejoin: miter"/>
   </g>
   <g id="patch_149">
    <path d="M 125.254844 124.579063 
C 125.254844 124.579063 125.254844 124.579063 125.254844 124.579063 
C 125.254844 124.579063 125.254844 124.579063 125.254844 124.579063 
L 82.631463 204.321799 
C 85.241562 205.716926 87.918584 206.983064 90.652861 208.115638 
C 93.387138 209.248213 96.175373 210.245859 99.007495 211.104974 
L 125.254844 124.579063 
z
" clip-path="url(#p0340be778a)" style="fill: none; stroke: #292929; stroke-width: 0.5; stroke-linejoin: miter"/>
   </g>
   <g id="patch_150">
    <path d="M 125.254844 124.579063 
C 125.254844 124.579063 125.254844 124.579063 125.254844 124.579063 
C 125.254844 124.579063 125.254844 124.579063 125.254844 124.579063 
L 88.162977 169.775633 
C 89.642328 170.989705 91.180396 172.130413 92.771623 173.193638 
C 94.362851 174.256862 96.005321 175.241321 97.6931 176.143458 
L 125.254844 124.579063 
z
" clip-path="url(#p0340be778a)" style="fill: none; stroke: #292929; stroke-width: 0.5; stroke-linejoin: miter"/>
   </g>
   <g id="patch_151">
    <path d="M 125.254844 124.579063 
C 125.254844 124.579063 125.254844 124.579063 125.254844 124.579063 
C 125.254844 124.579063 125.254844 124.579063 125.254844 124.579063 
L 80.606131 161.221314 
C 81.805487 162.682733 83.075871 164.084386 84.412695 165.421211 
C 85.74952 166.758035 87.151173 168.02842 88.612592 169.227775 
L 125.254844 124.579063 
z
" clip-path="url(#p0340be778a)" style="fill: none; stroke: #292929; stroke-width: 0.5; stroke-linejoin: miter"/>
   </g>
   <g id="patch_152">
    <path d="M 125.254844 124.579063 
C 125.254844 124.579063 125.254844 124.579063 125.254844 124.579063 
C 125.254844 124.579063 125.254844 124.579063 125.254844 124.579063 
L 73.226592 152.388743 
C 74.136844 154.091705 75.130159 155.74895 76.202947 157.354492 
C 77.275736 158.960034 78.426706 160.511937 79.651699 162.004596 
L 125.254844 124.579063 
z
" clip-path="url(#p0340be778a)" style="fill: none; stroke: #292929; stroke-width: 0.5; stroke-linejoin: miter"/>
   </g>
   <g id="patch_153">
    <path d="M 125.254844 124.579063 
C 125.254844 124.579063 125.254844 124.579063 125.254844 124.579063 
C 125.254844 124.579063 125.254844 124.579063 125.254844 124.579063 
L 61.876523 143.804666 
C 62.505805 145.879133 63.236559 147.921454 64.066145 149.924251 
C 64.895731 151.927049 65.823149 153.887909 66.845048 155.799749 
L 125.254844 124.579063 
z
" clip-path="url(#p0340be778a)" style="fill: none; stroke: #292929; stroke-width: 0.5; stroke-linejoin: miter"/>
   </g>
   <g id="patch_154">
    <path d="M 125.254844 124.579063 
C 125.254844 124.579063 125.254844 124.579063 125.254844 124.579063 
C 125.254844 124.579063 125.254844 124.579063 125.254844 124.579063 
L 79.420778 129.093324 
C 79.568537 130.593541 79.789863 132.0856 80.083957 133.564111 
C 80.378051 135.042621 80.744558 136.505801 81.182155 137.948366 
L 125.254844 124.579063 
z
" clip-path="url(#p0340be778a)" style="fill: none; stroke: #292929; stroke-width: 0.5; stroke-linejoin: miter"/>
   </g>
   <g id="patch_155">
    <path d="M 125.254844 124.579063 
C 125.254844 124.579063 125.254844 124.579063 125.254844 124.579063 
C 125.254844 124.579063 125.254844 124.579063 125.254844 124.579063 
L 77.0354 119.829862 
C 76.879951 121.408156 76.802087 122.993131 76.802087 124.579062 
C 76.802087 126.164994 76.879951 127.749969 77.0354 129.328263 
L 125.254844 124.579063 
z
" clip-path="url(#p0340be778a)" style="fill: none; stroke: #292929; stroke-width: 0.5; stroke-linejoin: miter"/>
   </g>
   <g id="patch_156">
    <path d="M 125.254844 124.579063 
C 125.254844 124.579063 125.254844 124.579063 125.254844 124.579063 
C 125.254844 124.579063 125.254844 124.579063 125.254844 124.579063 
L 77.289137 110.028825 
C 76.812886 111.598814 76.414004 113.191239 76.093933 114.800349 
C 75.773861 116.409459 75.532985 118.033314 75.372174 119.666048 
L 125.254844 124.579063 
z
" clip-path="url(#p0340be778a)" style="fill: none; stroke: #292929; stroke-width: 0.5; stroke-linejoin: miter"/>
   </g>
   <g id="patch_157">
    <path d="M 125.254844 124.579063 
C 125.254844 124.579063 125.254844 124.579063 125.254844 124.579063 
C 125.254844 124.579063 125.254844 124.579063 125.254844 124.579063 
L 80.152642 100.471433 
C 79.363563 101.947696 78.647441 103.46181 78.006861 105.008307 
C 77.36628 106.554804 76.802015 108.13182 76.316103 109.733658 
L 125.254844 124.579063 
z
" clip-path="url(#p0340be778a)" style="fill: none; stroke: #292929; stroke-width: 0.5; stroke-linejoin: miter"/>
   </g>
   <g id="patch_158">
    <path d="M 125.254844 124.579063 
C 125.254844 124.579063 125.254844 124.579063 125.254844 124.579063 
C 125.254844 124.579063 125.254844 124.579063 125.254844 124.579063 
L 68.042169 77.625834 
C 66.505319 79.49849 65.061339 81.445472 63.715442 83.459749 
C 62.369546 85.474025 61.123356 87.553168 59.981374 89.689666 
L 125.254844 124.579063 
z
" clip-path="url(#p0340be778a)" style="fill: none; stroke: #292929; stroke-width: 0.5; stroke-linejoin: miter"/>
   </g>
   <g id="patch_159">
    <path d="M 125.254844 124.579063 
C 125.254844 124.579063 125.254844 124.579063 125.254844 124.579063 
C 125.254844 124.579063 125.254844 124.579063 125.254844 124.579063 
L 54.913314 38.86766 
C 52.107851 41.170043 49.417121 43.608779 46.850841 46.175059 
C 44.284561 48.74134 41.845825 51.43207 39.543441 54.237532 
L 125.254844 124.579063 
z
" clip-path="url(#p0340be778a)" style="fill: none; stroke: #292929; stroke-width: 0.5; stroke-linejoin: miter"/>
   </g>
   <g id="patch_160">
    <path d="M 125.254844 124.579063 
C 125.254844 124.579063 125.254844 124.579063 125.254844 124.579063 
C 125.254844 124.579063 125.254844 124.579063 125.254844 124.579063 
L 73.514349 27.779406 
C 70.345952 29.47295 67.262613 31.321032 64.275469 33.316978 
C 61.288324 35.312924 58.400976 37.454328 55.623852 39.733454 
L 125.254844 124.579063 
z
" clip-path="url(#p0340be778a)" style="fill: none; stroke: #292929; stroke-width: 0.5; stroke-linejoin: miter"/>
   </g>
   <g id="patch_161">
    <path d="M 125.254844 124.579063 
C 125.254844 124.579063 125.254844 124.579063 125.254844 124.579063 
C 125.254844 124.579063 125.254844 124.579063 125.254844 124.579063 
L 110.884616 77.206769 
C 109.33405 77.677128 107.807512 78.223332 106.310515 78.843408 
C 104.813519 79.463484 103.347869 80.156685 101.91886 80.920507 
L 125.254844 124.579063 
z
" clip-path="url(#p0340be778a)" style="fill: none; stroke: #292929; stroke-width: 0.5; stroke-linejoin: miter"/>
   </g>
   <g id="patch_162">
    <path d="M 125.254844 124.579063 
C 125.254844 124.579063 125.254844 124.579063 125.254844 124.579063 
C 125.254844 124.579063 125.254844 124.579063 125.254844 124.579063 
L 121.082218 82.213682 
C 119.695536 82.350259 118.316395 82.554835 116.949777 82.826672 
C 115.583159 83.098509 114.230711 83.43728 112.897318 83.84176 
L 125.254844 124.579063 
z
" clip-path="url(#p0340be778a)" style="fill: none; stroke: #292929; stroke-width: 0.5; stroke-linejoin: miter"/>
   </g>
   <g id="PathCollection_1">
    <defs>
     <path id="m06f32a694e" d="M 0.193618 7.414054 
L 0.193618 7.414054 
C 0.054922 7.414054 -0.078235 7.358899 -0.176308 7.260826 
C -0.274381 7.162753 -0.329536 7.029596 -0.329536 6.890901 
L -0.329536 5.365008 
L -1.528416 6.56393 
L -1.528416 6.56393 
C -1.577018 6.612704 -1.634775 6.651408 -1.698366 6.677814 
C -1.761958 6.704221 -1.830141 6.717815 -1.898997 6.717815 
C -1.967853 6.717815 -2.036037 6.704221 -2.099628 6.677814 
C -2.163219 6.651408 -2.220976 6.612704 -2.269578 6.56393 
L -2.269578 6.56393 
C -2.318353 6.515327 -2.357056 6.457571 -2.383463 6.393979 
C -2.409869 6.330388 -2.423463 6.262205 -2.423463 6.193348 
C -2.423463 6.124492 -2.409869 6.056309 -2.383463 5.992718 
C -2.357056 5.929126 -2.318353 5.87137 -2.269578 5.822767 
L -0.329536 3.884106 
L -0.329536 0.820937 
L -2.98067 2.351538 
L -3.691824 5.001416 
L -3.691824 5.001416 
C -3.727584 5.135411 -3.815199 5.249836 -3.93523 5.319305 
C -4.055261 5.388775 -4.198123 5.407741 -4.332122 5.371997 
L -4.332122 5.371997 
C -4.466126 5.336237 -4.580558 5.248616 -4.650029 5.128576 
C -4.719499 5.008535 -4.73846 4.865662 -4.702703 4.731657 
L -4.262647 3.092721 
L -5.585535 3.855668 
L -5.585535 3.855668 
C -5.645013 3.890144 -5.710708 3.912561 -5.778854 3.921634 
C -5.847001 3.930706 -5.916272 3.926258 -5.982698 3.908543 
C -6.049125 3.890828 -6.111412 3.860192 -6.165991 3.818391 
C -6.220571 3.77659 -6.266379 3.724437 -6.300791 3.664922 
L -6.300791 3.664922 
C -6.335212 3.605364 -6.35755 3.539597 -6.366524 3.471396 
C -6.375498 3.403194 -6.370933 3.333888 -6.35309 3.267452 
C -6.335248 3.201017 -6.304476 3.138749 -6.26254 3.08422 
C -6.220605 3.029692 -6.168323 2.983966 -6.108695 2.949666 
L -4.785807 2.186762 
L -6.424743 1.746706 
L -6.424743 1.746706 
C -6.558747 1.710946 -6.673179 1.623325 -6.74265 1.503284 
C -6.81212 1.383244 -6.831081 1.240371 -6.795324 1.106366 
L -6.795324 1.106366 
C -6.777471 1.039969 -6.746703 0.977739 -6.704784 0.923241 
C -6.662864 0.868744 -6.61061 0.823041 -6.551015 0.788752 
C -6.491421 0.754464 -6.425647 0.732257 -6.357465 0.723406 
C -6.289282 0.714554 -6.220019 0.71923 -6.153645 0.737166 
L -3.505232 1.44698 
L -0.852424 -0.08496 
L -3.503767 -1.615666 
L -6.153645 -0.905851 
L -6.153645 -0.905851 
C -6.22011 -0.887939 -6.289462 -0.883321 -6.357716 -0.892262 
C -6.42597 -0.901202 -6.491793 -0.923527 -6.551403 -0.957953 
C -6.611013 -0.992379 -6.663247 -1.038234 -6.705103 -1.092883 
C -6.746958 -1.147533 -6.777619 -1.209911 -6.795324 -1.276432 
L -6.795324 -1.276432 
C -6.831068 -1.410431 -6.812101 -1.553293 -6.742632 -1.673324 
C -6.673162 -1.793355 -6.558738 -1.88097 -6.424743 -1.91673 
L -4.785807 -2.355447 
L -6.108695 -3.119732 
L -6.108695 -3.119732 
C -6.228699 -3.188976 -6.316415 -3.303132 -6.352417 -3.436921 
C -6.388419 -3.57071 -6.369839 -3.713469 -6.300791 -3.833586 
L -6.300791 -3.833586 
C -6.266491 -3.893214 -6.220765 -3.945496 -6.166237 -3.987431 
C -6.111708 -4.029367 -6.04944 -4.060139 -5.983005 -4.077981 
C -5.91657 -4.095823 -5.847263 -4.100389 -5.779062 -4.091415 
C -5.71086 -4.082441 -5.645094 -4.060102 -5.585535 -4.025682 
L -4.262647 -3.261396 
L -4.702703 -4.900332 
L -4.702703 -4.900332 
C -4.73846 -5.034337 -4.719499 -5.17721 -4.650029 -5.29725 
C -4.580558 -5.417291 -4.466126 -5.504912 -4.332122 -5.540672 
L -4.332122 -5.540672 
C -4.19831 -5.576464 -4.055613 -5.557686 -3.935617 -5.488496 
C -3.81562 -5.419305 -3.727882 -5.305212 -3.691824 -5.171472 
L -2.982009 -2.521594 
L -0.329411 -0.990302 
L -0.329411 -4.051588 
L -2.269453 -5.991589 
L -2.269453 -5.991589 
C -2.318227 -6.040191 -2.356931 -6.097947 -2.383337 -6.161539 
C -2.409744 -6.22513 -2.423338 -6.293314 -2.423338 -6.36217 
C -2.423338 -6.431026 -2.409744 -6.499209 -2.383337 -6.5628 
C -2.356931 -6.626392 -2.318227 -6.684149 -2.269453 -6.732751 
L -2.269453 -6.732751 
C -2.22085 -6.781526 -2.163094 -6.820229 -2.099502 -6.846635 
C -2.035911 -6.873042 -1.967728 -6.886636 -1.898871 -6.886636 
C -1.830015 -6.886636 -1.761832 -6.873042 -1.698241 -6.846635 
C -1.634649 -6.820229 -1.576893 -6.781526 -1.52829 -6.732751 
L -0.329411 -5.533829 
L -0.329411 -7.059722 
L -0.329411 -7.059722 
C -0.329411 -7.198418 -0.274255 -7.331575 -0.176182 -7.429647 
C -0.07811 -7.52772 0.055047 -7.582875 0.193743 -7.582875 
L 0.193743 -7.582875 
C 0.332439 -7.582875 0.465596 -7.52772 0.563669 -7.429647 
C 0.661741 -7.331575 0.716897 -7.198418 0.716897 -7.059722 
L 0.716897 -5.533829 
L 1.915777 -6.732751 
L 1.915777 -6.732751 
C 1.964379 -6.781526 2.022136 -6.820229 2.085727 -6.846635 
C 2.149318 -6.873042 2.217502 -6.886636 2.286358 -6.886636 
C 2.355214 -6.886636 2.423397 -6.873042 2.486989 -6.846635 
C 2.55058 -6.820229 2.608337 -6.781526 2.656939 -6.732751 
L 2.656939 -6.732751 
C 2.705714 -6.684149 2.744417 -6.626392 2.770823 -6.5628 
C 2.79723 -6.499209 2.810824 -6.431026 2.810824 -6.36217 
C 2.810824 -6.293314 2.79723 -6.22513 2.770823 -6.161539 
C 2.744417 -6.097947 2.705714 -6.040191 2.656939 -5.991589 
L 0.716897 -4.051588 
L 0.716897 -0.991139 
L 3.369495 -2.522954 
L 4.07931 -5.171367 
L 4.07931 -5.171367 
C 4.115368 -5.305107 4.203106 -5.4192 4.323103 -5.488391 
C 4.4431 -5.557582 4.585797 -5.576359 4.719608 -5.540567 
L 4.719608 -5.540567 
C 4.853612 -5.504807 4.968045 -5.417186 5.037515 -5.297146 
C 5.106986 -5.177105 5.125946 -5.034232 5.090189 -4.900227 
L 4.650133 -3.262673 
L 5.973022 -4.025577 
L 5.973022 -4.025577 
C 6.03258 -4.059998 6.098346 -4.082336 6.166548 -4.09131 
C 6.234749 -4.100284 6.304056 -4.095719 6.370491 -4.077876 
C 6.436926 -4.060034 6.499194 -4.029262 6.553723 -3.987327 
C 6.608252 -3.945391 6.653978 -3.893109 6.688277 -3.833481 
L 6.688277 -3.833481 
C 6.757325 -3.713365 6.775905 -3.570605 6.739903 -3.436816 
C 6.703901 -3.303027 6.616186 -3.188871 6.496181 -3.119628 
L 5.173293 -2.355342 
L 6.812229 -1.916625 
L 6.812229 -1.916625 
C 6.946224 -1.880865 7.060649 -1.79325 7.130118 -1.67322 
C 7.199588 -1.553189 7.218554 -1.410326 7.18281 -1.276327 
L 7.18281 -1.276327 
C 7.165106 -1.209806 7.134445 -1.147429 7.092589 -1.092779 
C 7.050733 -1.038129 6.998499 -0.992274 6.938889 -0.957848 
C 6.879279 -0.923422 6.813456 -0.901098 6.745202 -0.892157 
C 6.676949 -0.883217 6.607597 -0.887835 6.541131 -0.905746 
L 3.891253 -1.615561 
L 1.239492 -0.084604 
L 3.892718 1.447085 
L 6.541131 0.73727 
L 6.541131 0.73727 
C 6.674948 0.701466 6.817656 0.720237 6.937662 0.789429 
C 7.057669 0.858621 7.145413 0.972721 7.181471 1.10647 
L 7.181471 1.10647 
C 7.217274 1.240293 7.198497 1.383006 7.129297 1.503014 
C 7.060096 1.623021 6.945986 1.710762 6.812229 1.74681 
L 5.173293 2.186866 
L 6.496181 2.949771 
L 6.496181 2.949771 
C 6.555697 2.984183 6.607849 3.029991 6.649651 3.08457 
C 6.691452 3.13915 6.722088 3.201437 6.739803 3.267863 
C 6.757517 3.33429 6.761966 3.403561 6.752893 3.471707 
C 6.743821 3.539854 6.721404 3.605549 6.686927 3.665026 
L 6.686927 3.665026 
C 6.617458 3.784813 6.503196 3.87225 6.369416 3.907994 
C 6.235636 3.943739 6.092989 3.924946 5.973032 3.855772 
L 4.650144 3.091487 
L 5.08886 4.731783 
L 5.08886 4.731783 
C 5.124664 4.865606 5.105887 5.008319 5.036686 5.128326 
C 4.967486 5.248334 4.853376 5.336074 4.719619 5.372123 
L 4.719619 5.372123 
C 4.585619 5.407867 4.442757 5.3889 4.322726 5.319431 
C 4.202695 5.249961 4.115081 5.135537 4.07932 5.001542 
L 3.368166 2.351664 
L 0.717033 0.821063 
L 0.717033 3.884232 
L 2.657075 5.822893 
L 2.657075 5.822893 
C 2.70585 5.871495 2.744553 5.929252 2.770959 5.992843 
C 2.797366 6.056435 2.81096 6.124618 2.81096 6.193474 
C 2.81096 6.26233 2.797366 6.330514 2.770959 6.394105 
C 2.744553 6.457696 2.70585 6.515453 2.657075 6.564055 
L 2.657075 6.564055 
C 2.608473 6.61283 2.550716 6.651533 2.487125 6.67794 
C 2.423533 6.704346 2.35535 6.71794 2.286494 6.71794 
C 2.217638 6.71794 2.149454 6.704346 2.085863 6.67794 
C 2.022272 6.651533 1.964515 6.61283 1.915913 6.564055 
L 0.717033 5.365133 
L 0.717033 6.891026 
L 0.717033 6.891026 
C 0.717033 7.029722 0.661877 7.162879 0.563805 7.260952 
C 0.465732 7.359024 0.332575 7.41418 0.193879 7.41418 
L 0.193618 7.414054 
z
"/>
    </defs>
    <g clip-path="url(#p0340be778a)">
     <use xlink:href="#m06f32a694e" x="84.431596" y="120.994034" style="fill: #9e2096; fill-opacity: 0.7"/>
    </g>
   </g>
   <g id="patch_163">
    <path d="M 125.254844 13.699063 
C 110.694216 13.699063 96.275171 16.567189 82.822905 22.1393 
C 69.370638 27.711411 57.146763 35.879144 46.850844 46.175063 
C 36.554925 56.470982 28.387192 68.694857 22.815081 82.147124 
C 17.24297 95.59939 14.374844 110.018434 14.374844 124.579063 
C 14.374844 139.139691 17.24297 153.558735 22.815081 167.011001 
C 28.387192 180.463268 36.554925 192.687143 46.850844 202.983062 
C 57.146763 213.278981 69.370638 221.446714 82.822905 227.018825 
C 96.275171 232.590936 110.694216 235.459063 125.254844 235.459063 
C 139.815472 235.459063 154.234516 232.590936 167.686783 227.018825 
C 181.139049 221.446714 193.362925 213.278981 203.658844 202.983062 
C 213.954763 192.687143 222.122495 180.463268 227.694606 167.011001 
C 233.266717 153.558735 236.134844 139.139691 236.134844 124.579063 
C 236.134844 110.018434 233.266717 95.59939 227.694606 82.147124 
C 222.122495 68.694857 213.954763 56.470982 203.658844 46.175063 
C 193.362925 35.879144 181.139049 27.711411 167.686783 22.1393 
C 154.234516 16.567189 139.815472 13.699063 125.254844 13.699063 
" style="fill: none; stroke: #000000; stroke-width: 0.8; stroke-linejoin: miter; stroke-linecap: square"/>
   </g>
  </g>
 </g>
 <defs>
  <clipPath id="p0340be778a">
   <path d="M 236.134844 124.579063 
C 236.134844 110.018434 233.266717 95.59939 227.694606 82.147124 
C 222.122495 68.694857 213.954763 56.470982 203.658844 46.175063 
C 193.362925 35.879144 181.139049 27.711411 167.686783 22.1393 
C 154.234516 16.567189 139.815472 13.699063 125.254844 13.699063 
C 110.694216 13.699063 96.275171 16.567189 82.822905 22.1393 
C 69.370638 27.711411 57.146763 35.879144 46.850844 46.175063 
C 36.554925 56.470982 28.387192 68.694857 22.815081 82.147124 
C 17.24297 95.59939 14.374844 110.018434 14.374844 124.579062 
C 14.374844 139.139691 17.24297 153.558735 22.815081 167.011001 
C 28.387192 180.463268 36.554925 192.687143 46.850844 202.983062 
C 57.146763 213.278981 69.370638 221.446714 82.822905 227.018825 
C 96.275171 232.590936 110.694216 235.459063 125.254844 235.459063 
C 139.815472 235.459063 154.234516 232.590936 167.686783 227.018825 
C 181.139049 221.446714 193.362925 213.278981 203.658844 202.983062 
C 213.954763 192.687143 222.122495 180.463268 227.694606 167.011001 
C 233.266717 153.558735 236.134844 139.139691 236.134844 124.579063 
M 125.254844 124.579063 
C 125.254844 124.579063 125.254844 124.579063 125.254844 124.579063 
C 125.254844 124.579063 125.254844 124.579063 125.254844 124.579063 
C 125.254844 124.579063 125.254844 124.579063 125.254844 124.579063 
C 125.254844 124.579063 125.254844 124.579063 125.254844 124.579063 
C 125.254844 124.579063 125.254844 124.579063 125.254844 124.579063 
C 125.254844 124.579063 125.254844 124.579063 125.254844 124.579063 
C 125.254844 124.579063 125.254844 124.579063 125.254844 124.579063 
C 125.254844 124.579063 125.254844 124.579063 125.254844 124.579063 
C 125.254844 124.579063 125.254844 124.579063 125.254844 124.579063 
C 125.254844 124.579063 125.254844 124.579063 125.254844 124.579063 
C 125.254844 124.579063 125.254844 124.579063 125.254844 124.579063 
C 125.254844 124.579063 125.254844 124.579063 125.254844 124.579063 
C 125.254844 124.579063 125.254844 124.579063 125.254844 124.579063 
C 125.254844 124.579063 125.254844 124.579063 125.254844 124.579063 
C 125.254844 124.579063 125.254844 124.579063 125.254844 124.579063 
C 125.254844 124.579063 125.254844 124.579063 125.254844 124.579063 
z
"/>
  </clipPath>
 </defs>
</svg>
