<?xml version="1.0" encoding="utf-8" standalone="no"?>
<!DOCTYPE svg PUBLIC "-//W3C//DTD SVG 1.1//EN"
  "http://www.w3.org/Graphics/SVG/1.1/DTD/svg11.dtd">
<svg xmlns:xlink="http://www.w3.org/1999/xlink" width="248.410469pt" height="249.158125pt" viewBox="0 0 248.410469 249.158125" xmlns="http://www.w3.org/2000/svg" version="1.1">
 <title>Ski Rose for 糸魚川シーサイドバレースキー場, Itoigawa Seaside Valley Ski Resort</title>
 <metadata>
  <rdf:RDF xmlns:dc="http://purl.org/dc/elements/1.1/" xmlns:cc="http://creativecommons.org/ns#" xmlns:rdf="http://www.w3.org/1999/02/22-rdf-syntax-ns#">
   <cc:Work>
    <dc:type rdf:resource="http://purl.org/dc/dcmitype/StillImage"/>
    <dc:title>Ski Rose for 糸魚川シーサイドバレースキー場, Itoigawa Seaside Valley Ski Resort</dc:title>
    <dc:date>2025-03-02T00:12:21.660436</dc:date>
    <dc:description>A 32-bin stacked histogram of downhill ski run orientations colored by difficulty.</dc:description>
    <dc:format>image/svg+xml</dc:format>
    <dc:source>https://openskimap.org/?obj=77ffb3acbb18880977f6d4f73286423536b1e852</dc:source>
    <dc:creator>
     <cc:Agent>
      <dc:title>https://github.com/dhimmel/openskistats</dc:title>
     </cc:Agent>
    </dc:creator>
    <dc:rights>
     <cc:Agent>
      <dc:title>https://creativecommons.org/licenses/by/4.0/</dc:title>
     </cc:Agent>
    </dc:rights>
   </cc:Work>
  </rdf:RDF>
 </metadata>
 <defs>
  <style type="text/css">*{stroke-linejoin: round; stroke-linecap: butt}</style>
 </defs>
 <g id="figure_1">
  <g id="patch_1">
   <path d="M 0 249.158125 
L 248.410469 249.158125 
L 248.410469 0 
L 0 0 
z
" style="fill: #ffffff"/>
  </g>
  <g id="axes_1">
   <g id="patch_2">
    <path d="M 236.134844 124.579062 
C 236.134844 110.018434 233.266717 95.59939 227.694606 82.147124 
C 222.122495 68.694857 213.954763 56.470982 203.658844 46.175063 
C 193.362925 35.879144 181.139049 27.711411 167.686783 22.1393 
C 154.234516 16.567189 139.815472 13.699062 125.254844 13.699062 
C 110.694216 13.699062 96.275171 16.567189 82.822905 22.1393 
C 69.370638 27.711411 57.146763 35.879144 46.850844 46.175063 
C 36.554925 56.470982 28.387192 68.694857 22.815081 82.147124 
C 17.24297 95.59939 14.374844 110.018434 14.374844 124.579062 
C 14.374844 139.139691 17.24297 153.558735 22.815081 167.011001 
C 28.387192 180.463268 36.554925 192.687143 46.850844 202.983062 
C 57.146763 213.278981 69.370638 221.446714 82.822905 227.018825 
C 96.275171 232.590936 110.694216 235.459062 125.254844 235.459062 
C 139.815472 235.459062 154.234516 232.590936 167.686783 227.018825 
C 181.139049 221.446714 193.362925 213.278981 203.658844 202.983062 
C 213.954763 192.687143 222.122495 180.463268 227.694606 167.011001 
C 233.266717 153.558735 236.134844 139.139691 236.134844 124.579062 
M 125.254844 124.579062 
C 125.254844 124.579062 125.254844 124.579062 125.254844 124.579062 
C 125.254844 124.579062 125.254844 124.579062 125.254844 124.579062 
C 125.254844 124.579062 125.254844 124.579062 125.254844 124.579062 
C 125.254844 124.579062 125.254844 124.579062 125.254844 124.579062 
C 125.254844 124.579062 125.254844 124.579062 125.254844 124.579062 
C 125.254844 124.579062 125.254844 124.579062 125.254844 124.579062 
C 125.254844 124.579062 125.254844 124.579062 125.254844 124.579062 
C 125.254844 124.579062 125.254844 124.579062 125.254844 124.579062 
C 125.254844 124.579062 125.254844 124.579062 125.254844 124.579062 
C 125.254844 124.579062 125.254844 124.579062 125.254844 124.579062 
C 125.254844 124.579062 125.254844 124.579062 125.254844 124.579062 
C 125.254844 124.579062 125.254844 124.579062 125.254844 124.579062 
C 125.254844 124.579062 125.254844 124.579062 125.254844 124.579062 
C 125.254844 124.579062 125.254844 124.579062 125.254844 124.579062 
C 125.254844 124.579062 125.254844 124.579062 125.254844 124.579062 
C 125.254844 124.579062 125.254844 124.579062 125.254844 124.579062 
z
" style="fill: #ffffff"/>
   </g>
   <g id="PolyCollection_1">
    <defs>
     <path id="me5e47d1674" d="M 235.530789 -135.197428 
L 234.158607 -135.065302 
L 232.973482 -133.056703 
L 231.470308 -131.075479 
L 229.898307 -129.147895 
L 228.515547 -127.283039 
L 226.848382 -125.465656 
L 225.142833 -123.707353 
L 223.647675 -122.002556 
L 221.877886 -120.360409 
L 220.324683 -118.764342 
L 218.502174 -117.240338 
L 216.900454 -115.754594 
L 215.035041 -114.349901 
L 213.393452 -112.975395 
L 211.734498 -111.654592 
L 209.821154 -110.427515 
L 208.13457 -109.218213 
L 206.436434 -108.062481 
L 204.728623 -106.96015 
L 203.245275 -105.855217 
L 201.521685 -104.855116 
L 199.793898 -103.907553 
L 198.289604 -102.945181 
L 196.556537 -102.097725 
L 195.04559 -101.227405 
L 193.532391 -100.400715 
L 191.802854 -99.697781 
L 190.292306 -98.960125 
L 188.783934 -98.264452 
L 187.279155 -97.610124 
L 185.982636 -96.903813 
L 184.485862 -96.327316 
L 182.996753 -95.790008 
L 181.709676 -95.190537 
L 180.615783 -94.520525 
L 179.498994 -93.889199 
L 178.223002 -93.378433 
L 176.953023 -92.898377 
L 175.689995 -92.448327 
L 174.434836 -92.027535 
L 173.188446 -91.63521 
L 171.951703 -91.270517 
L 170.725459 -90.932577 
L 169.664902 -90.502026 
L 168.457747 -90.213921 
L 167.263415 -89.949869 
L 166.224244 -89.587889 
L 165.05316 -89.368486 
L 164.02992 -89.048251 
L 163.013409 -88.747522 
L 161.879318 -88.588292 
L 160.881758 -88.324851 
L 159.892255 -88.078847 
L 158.911189 -87.849607 
L 157.938913 -87.636443 
L 156.975755 -87.438648 
L 156.022012 -87.255503 
L 155.077956 -87.086272 
L 154.143825 -86.930209 
L 153.219829 -86.786554 
L 152.306145 -86.654537 
L 151.481264 -86.419384 
L 150.584419 -86.310248 
L 149.698251 -86.210598 
L 148.88945 -86.01089 
L 148.020683 -85.930337 
L 147.162684 -85.857086 
L 146.370745 -85.688411 
L 145.530206 -85.630454 
L 144.748596 -85.480643 
L 143.925322 -85.435591 
L 143.15402 -85.302905 
L 142.386361 -85.17927 
L 141.586416 -85.151158 
L 140.828807 -85.042253 
L 140.044811 -85.021497 
L 139.29683 -84.925717 
L 138.552233 -84.837356 
L 137.788929 -84.826022 
L 137.053146 -84.748662 
L 136.320423 -84.677873 
L 135.59066 -84.613425 
L 134.850477 -84.610375 
L 134.128069 -84.55453 
L 133.408142 -84.504323 
L 132.690552 -84.459571 
L 131.968578 -84.459366 
L 131.256458 -84.421324 
L 130.546069 -84.388215 
L 129.837237 -84.359916 
L 129.12978 -84.336316 
L 128.423512 -84.317319 
L 127.717363 -84.317237 
L 127.013322 -84.303281 
L 126.309753 -84.293715 
L 125.606454 -84.288508 
L 124.903238 -84.289069 
L 124.200008 -84.296518 
L 123.496585 -84.308322 
L 122.791958 -84.311231 
L 122.08701 -84.327922 
L 121.381141 -84.34912 
L 120.674158 -84.374902 
L 119.965876 -84.405363 
L 119.25096 -84.40614 
L 118.5383 -84.442577 
L 117.823684 -84.484112 
L 117.106953 -84.5309 
L 116.387954 -84.583107 
L 115.653519 -84.586665 
L 114.927684 -84.6469 
L 114.199064 -84.71321 
L 113.467546 -84.785812 
L 112.711305 -84.796041 
L 111.971369 -84.878942 
L 111.228166 -84.968948 
L 110.452038 -84.987159 
L 109.699495 -85.089509 
L 108.943448 -85.199869 
L 108.14549 -85.230242 
L 107.379496 -85.355191 
L 106.56499 -85.394968 
L 105.788778 -85.536175 
L 104.957206 -85.587664 
L 104.170671 -85.746847 
L 103.32173 -85.812415 
L 102.524931 -85.991328 
L 101.658531 -86.07338 
L 100.851695 -86.273792 
L 99.967956 -86.374742 
L 99.073566 -86.485068 
L 98.168607 -86.605559 
L 97.339535 -86.853688 
L 96.418054 -86.998226 
L 95.486452 -87.155065 
L 94.544935 -87.324964 
L 93.59374 -87.508673 
L 92.633134 -87.706927 
L 91.663412 -87.920447 
L 90.684899 -88.149941 
L 89.697946 -88.3961 
L 88.70293 -88.659597 
L 87.571804 -88.819193 
L 86.557818 -89.119771 
L 85.53709 -89.439762 
L 84.368921 -89.659185 
L 83.332229 -90.020726 
L 82.140765 -90.284576 
L 80.936451 -90.572364 
L 79.87831 -91.002194 
L 78.654853 -91.339612 
L 77.420864 -91.703679 
L 76.177195 -92.095276 
L 74.924725 -92.51524 
L 73.66435 -92.964367 
L 72.39699 -93.443407 
L 71.12358 -93.953067 
L 69.655956 -94.39133 
L 68.369925 -94.966648 
L 66.884662 -95.476763 
L 65.590385 -96.120575 
L 64.092402 -96.705732 
L 62.588301 -97.330874 
L 61.079482 -97.996757 
L 59.77955 -98.787658 
L 58.053335 -99.453448 
L 56.538845 -100.245451 
L 55.025313 -101.08059 
L 53.51417 -101.959315 
L 51.781499 -102.815266 
L 50.277278 -103.785943 
L 48.550145 -104.741879 
L 46.827338 -105.750284 
L 45.110737 -106.811542 
L 43.402219 -107.925958 
L 41.703663 -109.093766 
L 40.016946 -110.31513 
L 38.343952 -111.590143 
L 36.686568 -112.918828 
L 35.046692 -114.301142 
L 33.18359 -115.713609 
L 31.583908 -117.207 
L 29.764083 -118.738597 
L 28.213329 -120.342138 
L 26.446754 -121.991682 
L 24.954658 -123.703756 
L 23.253238 -125.469217 
L 21.591073 -127.293594 
L 20.213788 -129.165254 
L 18.650566 -131.099259 
L 17.161278 -133.086211 
L 15.995693 -135.099522 
L 14.946819 -135.200517 
L 14.946819 -135.200517 
L 14.828183 -133.269829 
L 14.742775 -131.33827 
L 14.484086 -129.415418 
L 14.463866 -127.480226 
L 14.476249 -125.545813 
L 14.520852 -123.612702 
L 14.597233 -121.681391 
L 14.498375 -119.743331 
L 14.636911 -117.81338 
L 14.805884 -115.886541 
L 15.004807 -113.963191 
L 15.233233 -112.043683 
L 15.490798 -110.128352 
L 15.777252 -108.217527 
L 15.896132 -106.27869 
L 16.23894 -104.374159 
L 16.610316 -102.475084 
L 17.008936 -100.581523 
L 17.44091 -98.695227 
L 18.087 -96.863574 
L 18.561858 -94.990479 
L 19.073511 -93.126719 
L 19.601454 -91.266677 
L 20.170869 -89.418456 
L 20.754592 -87.573583 
L 21.400323 -85.749448 
L 22.206576 -83.98727 
L 22.881435 -82.174608 
L 23.592372 -80.374962 
L 24.365975 -78.601356 
L 25.294639 -76.900491 
L 26.132102 -75.158286 
L 26.90315 -73.380411 
L 27.813068 -71.672495 
L 28.750383 -69.979466 
L 30.461562 -68.741553 
L 32.506379 -67.74273 
L 34.585549 -66.816351 
L 36.684682 -65.955751 
L 38.704445 -65.094621 
L 40.802484 -64.339779 
L 42.815585 -63.57722 
L 44.820991 -62.859997 
L 46.816436 -62.186336 
L 48.800058 -61.5546 
L 50.700792 -60.903887 
L 52.658259 -60.35103 
L 54.531139 -59.772727 
L 56.394294 -59.232841 
L 58.240422 -58.724174 
L 60.074921 -58.251491 
L 61.890779 -57.807271 
L 63.635444 -57.333288 
L 65.423194 -56.951685 
L 67.139686 -56.534955 
L 68.842296 -56.14517 
L 70.530531 -55.781173 
L 72.203948 -55.441789 
L 73.816928 -55.064709 
L 75.461694 -54.771641 
L 77.052067 -54.443587 
L 78.66693 -54.192403 
L 80.228447 -53.901777 
L 81.779938 -53.634464 
L 83.316424 -53.381754 
L 84.842512 -53.150508 
L 86.353571 -52.931831 
L 87.854031 -52.73277 
L 89.315811 -52.496515 
L 90.790497 -52.323057 
L 92.254564 -52.166557 
L 93.685374 -51.974252 
L 95.107085 -51.795934 
L 96.535807 -51.671541 
L 97.938289 -51.517618 
L 99.332142 -51.375612 
L 100.717572 -51.244887 
L 102.094812 -51.124826 
L 103.464126 -51.014833 
L 104.825807 -50.914335 
L 106.180173 -50.822783 
L 107.52757 -50.739654 
L 108.868369 -50.664453 
L 110.202965 -50.596713 
L 111.527937 -50.515301 
L 112.852116 -50.463286 
L 114.171332 -50.417551 
L 115.486056 -50.377754 
L 116.794859 -50.326729 
L 118.102596 -50.300129 
L 119.40662 -50.270339 
L 120.709054 -50.256065 
L 122.009418 -50.246595 
L 123.308091 -50.235565 
L 124.606076 -50.237637 
L 125.903614 -50.237338 
L 127.201614 -50.234925 
L 128.500313 -50.245585 
L 129.800717 -50.25469 
L 131.102534 -50.27711 
L 132.407275 -50.298225 
L 133.715083 -50.324494 
L 135.023989 -50.375035 
L 136.338814 -50.414483 
L 137.658142 -50.459875 
L 138.978552 -50.532559 
L 140.307485 -50.592966 
L 141.642216 -50.660404 
L 142.983161 -50.735309 
L 144.330713 -50.818148 
L 145.685244 -50.909417 
L 147.047099 -51.009641 
L 148.416596 -51.119368 
L 149.794028 -51.239171 
L 151.179657 -51.369648 
L 152.573718 -51.511413 
L 153.976415 -51.665105 
L 155.405589 -51.788725 
L 156.827547 -51.966815 
L 158.258611 -52.158905 
L 159.722683 -52.315735 
L 161.173808 -52.536766 
L 162.659975 -52.724474 
L 164.160397 -52.923946 
L 165.672087 -53.141826 
L 167.198105 -53.373535 
L 168.735273 -53.62545 
L 170.286657 -53.893274 
L 171.848907 -54.183112 
L 173.425078 -54.490937 
L 175.05431 -54.762786 
L 176.654658 -55.1162 
L 178.313204 -55.432062 
L 179.98696 -55.771362 
L 181.675536 -56.13529 
L 183.378486 -56.525021 
L 185.095317 -56.941712 
L 186.882768 -57.323985 
L 188.627745 -57.797958 
L 190.444629 -58.241455 
L 192.27875 -58.714854 
L 194.125944 -59.222828 
L 195.988665 -59.763457 
L 197.862648 -60.341104 
L 199.750151 -60.954059 
L 201.720666 -61.545503 
L 203.704586 -62.17732 
L 205.700316 -62.85108 
L 207.705993 -63.568422 
L 209.719342 -64.331121 
L 211.818537 -65.085484 
L 213.838474 -65.946837 
L 215.936725 -66.808333 
L 218.016729 -67.734506 
L 220.060215 -68.734431 
L 221.740588 -69.990055 
L 222.689857 -71.676166 
L 223.599184 -73.384239 
L 224.464122 -75.115141 
L 225.285937 -76.866679 
L 226.115068 -78.61441 
L 226.924801 -80.371707 
L 227.667552 -82.15833 
L 228.333313 -83.975374 
L 229.1038 -85.751529 
L 229.610768 -87.624692 
L 230.250483 -89.448013 
L 230.840974 -91.287883 
L 231.554977 -93.091529 
L 232.06696 -94.957441 
L 232.480186 -96.848703 
L 233.066171 -98.695853 
L 233.41126 -100.601362 
L 233.907649 -102.473399 
L 234.233866 -104.380995 
L 234.502008 -106.297357 
L 234.862957 -108.19802 
L 235.181973 -110.106881 
L 235.375838 -112.03236 
L 235.609122 -113.953154 
L 235.688329 -115.887759 
L 235.84547 -117.81505 
L 235.964161 -119.745389 
L 236.045201 -121.677915 
L 236.089401 -123.611824 
L 236.097588 -125.546372 
L 236.070599 -127.480875 
L 236.009281 -129.414706 
L 235.914473 -131.347295 
L 235.786992 -133.278131 
L 235.530789 -135.197428 
z
" style="stroke: #ffee9c"/>
    </defs>
    <g clip-path="url(#p025c3b88c4)">
     <use xlink:href="#me5e47d1674" x="0" y="249.158125" style="fill: #ffee9c; stroke: #ffee9c"/>
    </g>
   </g>
   <g id="matplotlib.axis_1">
    <g id="xtick_1">
     <g id="line2d_1">
      <path d="M 125.254844 124.579062 
L 125.254844 13.699062 
" clip-path="url(#p025c3b88c4)" style="fill: none; stroke: #b0b0b0; stroke-width: 0.8; stroke-linecap: square"/>
     </g>
     <g id="text_1">
      <!-- N -->
      <g transform="translate(121.070469 7.958437) scale(0.1 -0.1)">
       <defs>
        <path id="DejaVuSans-Bold-4e" d="M 588 4666 
L 1931 4666 
L 3628 1466 
L 3628 4666 
L 4769 4666 
L 4769 0 
L 3425 0 
L 1728 3200 
L 1728 0 
L 588 0 
L 588 4666 
z
" transform="scale(0.015625)"/>
       </defs>
       <use xlink:href="#DejaVuSans-Bold-4e"/>
      </g>
     </g>
    </g>
    <g id="xtick_2">
     <g id="line2d_2">
      <path d="M 125.254844 124.579062 
L 203.658844 46.175063 
" clip-path="url(#p025c3b88c4)" style="fill: none; stroke: #b0b0b0; stroke-width: 0.8; stroke-linecap: square"/>
     </g>
    </g>
    <g id="xtick_3">
     <g id="line2d_3">
      <path d="M 125.254844 124.579062 
L 236.134844 124.579062 
" clip-path="url(#p025c3b88c4)" style="fill: none; stroke: #b0b0b0; stroke-width: 0.8; stroke-linecap: square"/>
     </g>
     <g id="text_2">
      <!-- E -->
      <g transform="translate(241.219219 127.338437) scale(0.1 -0.1)">
       <defs>
        <path id="DejaVuSans-Bold-45" d="M 588 4666 
L 3834 4666 
L 3834 3756 
L 1791 3756 
L 1791 2888 
L 3713 2888 
L 3713 1978 
L 1791 1978 
L 1791 909 
L 3903 909 
L 3903 0 
L 588 0 
L 588 4666 
z
" transform="scale(0.015625)"/>
       </defs>
       <use xlink:href="#DejaVuSans-Bold-45"/>
      </g>
     </g>
    </g>
    <g id="xtick_4">
     <g id="line2d_4">
      <path d="M 125.254844 124.579062 
L 203.658844 202.983062 
" clip-path="url(#p025c3b88c4)" style="fill: none; stroke: #b0b0b0; stroke-width: 0.8; stroke-linecap: square"/>
     </g>
    </g>
    <g id="xtick_5">
     <g id="line2d_5">
      <path d="M 125.254844 124.579062 
L 125.254844 235.459062 
" clip-path="url(#p025c3b88c4)" style="fill: none; stroke: #b0b0b0; stroke-width: 0.8; stroke-linecap: square"/>
     </g>
     <g id="text_3">
      <!-- S -->
      <g transform="translate(121.654062 246.718437) scale(0.1 -0.1)">
       <defs>
        <path id="DejaVuSans-Bold-53" d="M 3834 4519 
L 3834 3531 
Q 3450 3703 3084 3790 
Q 2719 3878 2394 3878 
Q 1963 3878 1756 3759 
Q 1550 3641 1550 3391 
Q 1550 3203 1689 3098 
Q 1828 2994 2194 2919 
L 2706 2816 
Q 3484 2659 3812 2340 
Q 4141 2022 4141 1434 
Q 4141 663 3683 286 
Q 3225 -91 2284 -91 
Q 1841 -91 1394 -6 
Q 947 78 500 244 
L 500 1259 
Q 947 1022 1364 901 
Q 1781 781 2169 781 
Q 2563 781 2772 912 
Q 2981 1044 2981 1288 
Q 2981 1506 2839 1625 
Q 2697 1744 2272 1838 
L 1806 1941 
Q 1106 2091 782 2419 
Q 459 2747 459 3303 
Q 459 4000 909 4375 
Q 1359 4750 2203 4750 
Q 2588 4750 2994 4692 
Q 3400 4634 3834 4519 
z
" transform="scale(0.015625)"/>
       </defs>
       <use xlink:href="#DejaVuSans-Bold-53"/>
      </g>
     </g>
    </g>
    <g id="xtick_6">
     <g id="line2d_6">
      <path d="M 125.254844 124.579062 
L 46.850844 202.983062 
" clip-path="url(#p025c3b88c4)" style="fill: none; stroke: #b0b0b0; stroke-width: 0.8; stroke-linecap: square"/>
     </g>
    </g>
    <g id="xtick_7">
     <g id="line2d_7">
      <path d="M 125.254844 124.579062 
L 14.374844 124.579062 
" clip-path="url(#p025c3b88c4)" style="fill: none; stroke: #b0b0b0; stroke-width: 0.8; stroke-linecap: square"/>
     </g>
     <g id="text_4">
      <!-- W -->
      <g transform="translate(0.36 127.338437) scale(0.1 -0.1)">
       <defs>
        <path id="DejaVuSans-Bold-57" d="M 191 4666 
L 1344 4666 
L 2150 1275 
L 2950 4666 
L 4109 4666 
L 4909 1275 
L 5716 4666 
L 6859 4666 
L 5759 0 
L 4372 0 
L 3525 3547 
L 2688 0 
L 1300 0 
L 191 4666 
z
" transform="scale(0.015625)"/>
       </defs>
       <use xlink:href="#DejaVuSans-Bold-57"/>
      </g>
     </g>
    </g>
    <g id="xtick_8">
     <g id="line2d_8">
      <path d="M 125.254844 124.579062 
L 46.850844 46.175063 
" clip-path="url(#p025c3b88c4)" style="fill: none; stroke: #b0b0b0; stroke-width: 0.8; stroke-linecap: square"/>
     </g>
    </g>
   </g>
   <g id="matplotlib.axis_2"/>
   <g id="patch_3">
    <path d="M 125.254844 124.579062 
C 125.254844 124.579062 125.254844 124.579062 125.254844 124.579062 
C 125.254844 124.579062 125.254844 124.579062 125.254844 124.579062 
L 125.254844 124.579062 
C 125.254844 124.579062 125.254844 124.579062 125.254844 124.579062 
C 125.254844 124.579062 125.254844 124.579062 125.254844 124.579062 
z
" clip-path="url(#p025c3b88c4)" style="fill: #d9d9d9"/>
   </g>
   <g id="patch_4">
    <path d="M 125.254844 124.579062 
C 125.254844 124.579062 125.254844 124.579062 125.254844 124.579062 
C 125.254844 124.579062 125.254844 124.579062 125.254844 124.579062 
L 125.254844 124.579062 
C 125.254844 124.579062 125.254844 124.579062 125.254844 124.579062 
C 125.254844 124.579062 125.254844 124.579062 125.254844 124.579062 
z
" clip-path="url(#p025c3b88c4)" style="fill: #d9d9d9"/>
   </g>
   <g id="patch_5">
    <path d="M 125.254844 124.579062 
C 125.254844 124.579062 125.254844 124.579062 125.254844 124.579062 
C 125.254844 124.579062 125.254844 124.579062 125.254844 124.579062 
L 125.254844 124.579062 
C 125.254844 124.579062 125.254844 124.579062 125.254844 124.579062 
C 125.254844 124.579062 125.254844 124.579062 125.254844 124.579062 
z
" clip-path="url(#p025c3b88c4)" style="fill: #d9d9d9"/>
   </g>
   <g id="patch_6">
    <path d="M 125.254844 124.579062 
C 125.254844 124.579062 125.254844 124.579062 125.254844 124.579062 
C 125.254844 124.579062 125.254844 124.579062 125.254844 124.579062 
L 125.254844 124.579062 
C 125.254844 124.579062 125.254844 124.579062 125.254844 124.579062 
C 125.254844 124.579062 125.254844 124.579062 125.254844 124.579062 
z
" clip-path="url(#p025c3b88c4)" style="fill: #d9d9d9"/>
   </g>
   <g id="patch_7">
    <path d="M 125.254844 124.579062 
C 125.254844 124.579062 125.254844 124.579062 125.254844 124.579062 
C 125.254844 124.579062 125.254844 124.579062 125.254844 124.579062 
L 125.254844 124.579062 
C 125.254844 124.579062 125.254844 124.579062 125.254844 124.579062 
C 125.254844 124.579062 125.254844 124.579062 125.254844 124.579062 
z
" clip-path="url(#p025c3b88c4)" style="fill: #d9d9d9"/>
   </g>
   <g id="patch_8">
    <path d="M 125.254844 124.579062 
C 125.254844 124.579062 125.254844 124.579062 125.254844 124.579062 
C 125.254844 124.579062 125.254844 124.579062 125.254844 124.579062 
L 125.254844 124.579062 
C 125.254844 124.579062 125.254844 124.579062 125.254844 124.579062 
C 125.254844 124.579062 125.254844 124.579062 125.254844 124.579062 
z
" clip-path="url(#p025c3b88c4)" style="fill: #d9d9d9"/>
   </g>
   <g id="patch_9">
    <path d="M 125.254844 124.579062 
C 125.254844 124.579062 125.254844 124.579062 125.254844 124.579062 
C 125.254844 124.579062 125.254844 124.579062 125.254844 124.579062 
L 125.254844 124.579062 
C 125.254844 124.579062 125.254844 124.579062 125.254844 124.579062 
C 125.254844 124.579062 125.254844 124.579062 125.254844 124.579062 
z
" clip-path="url(#p025c3b88c4)" style="fill: #d9d9d9"/>
   </g>
   <g id="patch_10">
    <path d="M 125.254844 124.579062 
C 125.254844 124.579062 125.254844 124.579062 125.254844 124.579062 
C 125.254844 124.579062 125.254844 124.579062 125.254844 124.579062 
L 125.254844 124.579062 
C 125.254844 124.579062 125.254844 124.579062 125.254844 124.579062 
C 125.254844 124.579062 125.254844 124.579062 125.254844 124.579062 
z
" clip-path="url(#p025c3b88c4)" style="fill: #d9d9d9"/>
   </g>
   <g id="patch_11">
    <path d="M 125.254844 124.579062 
C 125.254844 124.579062 125.254844 124.579062 125.254844 124.579062 
C 125.254844 124.579062 125.254844 124.579062 125.254844 124.579062 
L 125.254844 124.579062 
C 125.254844 124.579062 125.254844 124.579062 125.254844 124.579062 
C 125.254844 124.579062 125.254844 124.579062 125.254844 124.579062 
z
" clip-path="url(#p025c3b88c4)" style="fill: #d9d9d9"/>
   </g>
   <g id="patch_12">
    <path d="M 125.254844 124.579062 
C 125.254844 124.579062 125.254844 124.579062 125.254844 124.579062 
C 125.254844 124.579062 125.254844 124.579062 125.254844 124.579062 
L 125.254844 124.579062 
C 125.254844 124.579062 125.254844 124.579062 125.254844 124.579062 
C 125.254844 124.579062 125.254844 124.579062 125.254844 124.579062 
z
" clip-path="url(#p025c3b88c4)" style="fill: #d9d9d9"/>
   </g>
   <g id="patch_13">
    <path d="M 125.254844 124.579062 
C 125.254844 124.579062 125.254844 124.579062 125.254844 124.579062 
C 125.254844 124.579062 125.254844 124.579062 125.254844 124.579062 
L 125.254844 124.579062 
C 125.254844 124.579062 125.254844 124.579062 125.254844 124.579062 
C 125.254844 124.579062 125.254844 124.579062 125.254844 124.579062 
z
" clip-path="url(#p025c3b88c4)" style="fill: #d9d9d9"/>
   </g>
   <g id="patch_14">
    <path d="M 125.254844 124.579062 
C 125.254844 124.579062 125.254844 124.579062 125.254844 124.579062 
C 125.254844 124.579062 125.254844 124.579062 125.254844 124.579062 
L 125.254844 124.579062 
C 125.254844 124.579062 125.254844 124.579062 125.254844 124.579062 
C 125.254844 124.579062 125.254844 124.579062 125.254844 124.579062 
z
" clip-path="url(#p025c3b88c4)" style="fill: #d9d9d9"/>
   </g>
   <g id="patch_15">
    <path d="M 125.254844 124.579062 
C 125.254844 124.579062 125.254844 124.579062 125.254844 124.579062 
C 125.254844 124.579062 125.254844 124.579062 125.254844 124.579062 
L 125.254844 124.579062 
C 125.254844 124.579062 125.254844 124.579062 125.254844 124.579062 
C 125.254844 124.579062 125.254844 124.579062 125.254844 124.579062 
z
" clip-path="url(#p025c3b88c4)" style="fill: #d9d9d9"/>
   </g>
   <g id="patch_16">
    <path d="M 125.254844 124.579062 
C 125.254844 124.579062 125.254844 124.579062 125.254844 124.579062 
C 125.254844 124.579062 125.254844 124.579062 125.254844 124.579062 
L 125.254844 124.579062 
C 125.254844 124.579062 125.254844 124.579062 125.254844 124.579062 
C 125.254844 124.579062 125.254844 124.579062 125.254844 124.579062 
z
" clip-path="url(#p025c3b88c4)" style="fill: #d9d9d9"/>
   </g>
   <g id="patch_17">
    <path d="M 125.254844 124.579062 
C 125.254844 124.579062 125.254844 124.579062 125.254844 124.579062 
C 125.254844 124.579062 125.254844 124.579062 125.254844 124.579062 
L 125.254844 124.579062 
C 125.254844 124.579062 125.254844 124.579062 125.254844 124.579062 
C 125.254844 124.579062 125.254844 124.579062 125.254844 124.579062 
z
" clip-path="url(#p025c3b88c4)" style="fill: #d9d9d9"/>
   </g>
   <g id="patch_18">
    <path d="M 125.254844 124.579062 
C 125.254844 124.579062 125.254844 124.579062 125.254844 124.579062 
C 125.254844 124.579062 125.254844 124.579062 125.254844 124.579062 
L 125.254844 124.579062 
C 125.254844 124.579062 125.254844 124.579062 125.254844 124.579062 
C 125.254844 124.579062 125.254844 124.579062 125.254844 124.579062 
z
" clip-path="url(#p025c3b88c4)" style="fill: #d9d9d9"/>
   </g>
   <g id="patch_19">
    <path d="M 125.254844 124.579062 
C 125.254844 124.579062 125.254844 124.579062 125.254844 124.579062 
C 125.254844 124.579062 125.254844 124.579062 125.254844 124.579062 
L 125.254844 124.579062 
C 125.254844 124.579062 125.254844 124.579062 125.254844 124.579062 
C 125.254844 124.579062 125.254844 124.579062 125.254844 124.579062 
z
" clip-path="url(#p025c3b88c4)" style="fill: #d9d9d9"/>
   </g>
   <g id="patch_20">
    <path d="M 125.254844 124.579062 
C 125.254844 124.579062 125.254844 124.579062 125.254844 124.579062 
C 125.254844 124.579062 125.254844 124.579062 125.254844 124.579062 
L 125.254844 124.579062 
C 125.254844 124.579062 125.254844 124.579062 125.254844 124.579062 
C 125.254844 124.579062 125.254844 124.579062 125.254844 124.579062 
z
" clip-path="url(#p025c3b88c4)" style="fill: #d9d9d9"/>
   </g>
   <g id="patch_21">
    <path d="M 125.254844 124.579062 
C 125.254844 124.579062 125.254844 124.579062 125.254844 124.579062 
C 125.254844 124.579062 125.254844 124.579062 125.254844 124.579062 
L 125.254844 124.579062 
C 125.254844 124.579062 125.254844 124.579062 125.254844 124.579062 
C 125.254844 124.579062 125.254844 124.579062 125.254844 124.579062 
z
" clip-path="url(#p025c3b88c4)" style="fill: #d9d9d9"/>
   </g>
   <g id="patch_22">
    <path d="M 125.254844 124.579062 
C 125.254844 124.579062 125.254844 124.579062 125.254844 124.579062 
C 125.254844 124.579062 125.254844 124.579062 125.254844 124.579062 
L 125.254844 124.579062 
C 125.254844 124.579062 125.254844 124.579062 125.254844 124.579062 
C 125.254844 124.579062 125.254844 124.579062 125.254844 124.579062 
z
" clip-path="url(#p025c3b88c4)" style="fill: #d9d9d9"/>
   </g>
   <g id="patch_23">
    <path d="M 125.254844 124.579062 
C 125.254844 124.579062 125.254844 124.579062 125.254844 124.579062 
C 125.254844 124.579062 125.254844 124.579062 125.254844 124.579062 
L 125.254844 124.579062 
C 125.254844 124.579062 125.254844 124.579062 125.254844 124.579062 
C 125.254844 124.579062 125.254844 124.579062 125.254844 124.579062 
z
" clip-path="url(#p025c3b88c4)" style="fill: #d9d9d9"/>
   </g>
   <g id="patch_24">
    <path d="M 125.254844 124.579062 
C 125.254844 124.579062 125.254844 124.579062 125.254844 124.579062 
C 125.254844 124.579062 125.254844 124.579062 125.254844 124.579062 
L 125.254844 124.579062 
C 125.254844 124.579062 125.254844 124.579062 125.254844 124.579062 
C 125.254844 124.579062 125.254844 124.579062 125.254844 124.579062 
z
" clip-path="url(#p025c3b88c4)" style="fill: #d9d9d9"/>
   </g>
   <g id="patch_25">
    <path d="M 125.254844 124.579062 
C 125.254844 124.579062 125.254844 124.579062 125.254844 124.579062 
C 125.254844 124.579062 125.254844 124.579062 125.254844 124.579062 
L 125.254844 124.579062 
C 125.254844 124.579062 125.254844 124.579062 125.254844 124.579062 
C 125.254844 124.579062 125.254844 124.579062 125.254844 124.579062 
z
" clip-path="url(#p025c3b88c4)" style="fill: #d9d9d9"/>
   </g>
   <g id="patch_26">
    <path d="M 125.254844 124.579062 
C 125.254844 124.579062 125.254844 124.579062 125.254844 124.579062 
C 125.254844 124.579062 125.254844 124.579062 125.254844 124.579062 
L 125.254844 124.579062 
C 125.254844 124.579062 125.254844 124.579062 125.254844 124.579062 
C 125.254844 124.579062 125.254844 124.579062 125.254844 124.579062 
z
" clip-path="url(#p025c3b88c4)" style="fill: #d9d9d9"/>
   </g>
   <g id="patch_27">
    <path d="M 125.254844 124.579062 
C 125.254844 124.579062 125.254844 124.579062 125.254844 124.579062 
C 125.254844 124.579062 125.254844 124.579062 125.254844 124.579062 
L 125.254844 124.579062 
C 125.254844 124.579062 125.254844 124.579062 125.254844 124.579062 
C 125.254844 124.579062 125.254844 124.579062 125.254844 124.579062 
z
" clip-path="url(#p025c3b88c4)" style="fill: #d9d9d9"/>
   </g>
   <g id="patch_28">
    <path d="M 125.254844 124.579062 
C 125.254844 124.579062 125.254844 124.579062 125.254844 124.579062 
C 125.254844 124.579062 125.254844 124.579062 125.254844 124.579062 
L 125.254844 124.579062 
C 125.254844 124.579062 125.254844 124.579062 125.254844 124.579062 
C 125.254844 124.579062 125.254844 124.579062 125.254844 124.579062 
z
" clip-path="url(#p025c3b88c4)" style="fill: #d9d9d9"/>
   </g>
   <g id="patch_29">
    <path d="M 125.254844 124.579062 
C 125.254844 124.579062 125.254844 124.579062 125.254844 124.579062 
C 125.254844 124.579062 125.254844 124.579062 125.254844 124.579062 
L 125.254844 124.579062 
C 125.254844 124.579062 125.254844 124.579062 125.254844 124.579062 
C 125.254844 124.579062 125.254844 124.579062 125.254844 124.579062 
z
" clip-path="url(#p025c3b88c4)" style="fill: #d9d9d9"/>
   </g>
   <g id="patch_30">
    <path d="M 125.254844 124.579062 
C 125.254844 124.579062 125.254844 124.579062 125.254844 124.579062 
C 125.254844 124.579062 125.254844 124.579062 125.254844 124.579062 
L 125.254844 124.579062 
C 125.254844 124.579062 125.254844 124.579062 125.254844 124.579062 
C 125.254844 124.579062 125.254844 124.579062 125.254844 124.579062 
z
" clip-path="url(#p025c3b88c4)" style="fill: #d9d9d9"/>
   </g>
   <g id="patch_31">
    <path d="M 125.254844 124.579062 
C 125.254844 124.579062 125.254844 124.579062 125.254844 124.579062 
C 125.254844 124.579062 125.254844 124.579062 125.254844 124.579062 
L 125.254844 124.579062 
C 125.254844 124.579062 125.254844 124.579062 125.254844 124.579062 
C 125.254844 124.579062 125.254844 124.579062 125.254844 124.579062 
z
" clip-path="url(#p025c3b88c4)" style="fill: #d9d9d9"/>
   </g>
   <g id="patch_32">
    <path d="M 125.254844 124.579062 
C 125.254844 124.579062 125.254844 124.579062 125.254844 124.579062 
C 125.254844 124.579062 125.254844 124.579062 125.254844 124.579062 
L 125.254844 124.579062 
C 125.254844 124.579062 125.254844 124.579062 125.254844 124.579062 
C 125.254844 124.579062 125.254844 124.579062 125.254844 124.579062 
z
" clip-path="url(#p025c3b88c4)" style="fill: #d9d9d9"/>
   </g>
   <g id="patch_33">
    <path d="M 125.254844 124.579062 
C 125.254844 124.579062 125.254844 124.579062 125.254844 124.579062 
C 125.254844 124.579062 125.254844 124.579062 125.254844 124.579062 
L 125.254844 124.579062 
C 125.254844 124.579062 125.254844 124.579062 125.254844 124.579062 
C 125.254844 124.579062 125.254844 124.579062 125.254844 124.579062 
z
" clip-path="url(#p025c3b88c4)" style="fill: #d9d9d9"/>
   </g>
   <g id="patch_34">
    <path d="M 125.254844 124.579062 
C 125.254844 124.579062 125.254844 124.579062 125.254844 124.579062 
C 125.254844 124.579062 125.254844 124.579062 125.254844 124.579062 
L 125.254844 124.579062 
C 125.254844 124.579062 125.254844 124.579062 125.254844 124.579062 
C 125.254844 124.579062 125.254844 124.579062 125.254844 124.579062 
z
" clip-path="url(#p025c3b88c4)" style="fill: #d9d9d9"/>
   </g>
   <g id="patch_35">
    <path d="M 125.254844 124.579062 
C 125.254844 124.579062 125.254844 124.579062 125.254844 124.579062 
C 125.254844 124.579062 125.254844 124.579062 125.254844 124.579062 
L 130.194641 74.424458 
C 128.553006 74.262771 126.904422 74.181782 125.254844 74.181782 
C 123.605265 74.181782 121.956681 74.262771 120.315046 74.424458 
z
" clip-path="url(#p025c3b88c4)" style="fill: #badbb8"/>
   </g>
   <g id="patch_36">
    <path d="M 125.254844 124.579062 
C 125.254844 124.579062 125.254844 124.579062 125.254844 124.579062 
C 125.254844 124.579062 125.254844 124.579062 125.254844 124.579062 
L 139.815727 76.578262 
C 138.24459 76.101663 136.650999 75.702489 135.040712 75.382183 
C 133.430424 75.061877 131.805381 74.820824 130.171452 74.659896 
z
" clip-path="url(#p025c3b88c4)" style="fill: #badbb8"/>
   </g>
   <g id="patch_37">
    <path d="M 125.254844 124.579062 
C 125.254844 124.579062 125.254844 124.579062 125.254844 124.579062 
C 125.254844 124.579062 125.254844 124.579062 125.254844 124.579062 
L 158.410656 62.5489 
C 156.380317 61.463661 154.297918 60.478759 152.170983 59.597754 
C 150.044048 58.716749 147.87514 57.940701 145.672092 57.272414 
z
" clip-path="url(#p025c3b88c4)" style="fill: #badbb8"/>
   </g>
   <g id="patch_38">
    <path d="M 125.254844 124.579062 
C 125.254844 124.579062 125.254844 124.579062 125.254844 124.579062 
C 125.254844 124.579062 125.254844 124.579062 125.254844 124.579062 
L 170.605969 69.318556 
C 168.79721 67.834146 166.916661 66.439436 164.971114 65.139463 
C 163.025568 63.83949 161.017368 62.635822 158.95377 61.532806 
z
" clip-path="url(#p025c3b88c4)" style="fill: #badbb8"/>
   </g>
   <g id="patch_39">
    <path d="M 125.254844 124.579062 
C 125.254844 124.579062 125.254844 124.579062 125.254844 124.579062 
C 125.254844 124.579062 125.254844 124.579062 125.254844 124.579062 
L 193.664691 68.436552 
C 191.827063 66.197395 189.880606 64.049811 187.832351 62.001556 
C 185.784095 59.9533 183.636511 58.006843 181.397355 56.169215 
z
" clip-path="url(#p025c3b88c4)" style="fill: #badbb8"/>
   </g>
   <g id="patch_40">
    <path d="M 125.254844 124.579062 
C 125.254844 124.579062 125.254844 124.579062 125.254844 124.579062 
C 125.254844 124.579062 125.254844 124.579062 125.254844 124.579062 
L 199.350488 84.974116 
C 198.054159 82.548855 196.639537 80.188701 195.111733 77.902181 
C 193.583929 75.615661 191.944784 73.40553 190.200219 71.279771 
z
" clip-path="url(#p025c3b88c4)" style="fill: #badbb8"/>
   </g>
   <g id="patch_41">
    <path d="M 125.254844 124.579062 
C 125.254844 124.579062 125.254844 124.579062 125.254844 124.579062 
C 125.254844 124.579062 125.254844 124.579062 125.254844 124.579062 
L 191.966888 104.342185 
C 191.304505 102.1586 190.535313 100.008853 189.66209 97.900707 
C 188.788868 95.792562 187.812668 93.72856 186.737016 91.716157 
z
" clip-path="url(#p025c3b88c4)" style="fill: #badbb8"/>
   </g>
   <g id="patch_42">
    <path d="M 125.254844 124.579062 
C 125.254844 124.579062 125.254844 124.579062 125.254844 124.579062 
C 125.254844 124.579062 125.254844 124.579062 125.254844 124.579062 
L 177.093381 119.473412 
C 176.926266 117.776659 176.675945 116.089134 176.343323 114.416932 
C 176.010702 112.74473 175.59618 111.089866 175.101255 109.458319 
z
" clip-path="url(#p025c3b88c4)" style="fill: #badbb8"/>
   </g>
   <g id="patch_43">
    <path d="M 125.254844 124.579062 
C 125.254844 124.579062 125.254844 124.579062 125.254844 124.579062 
C 125.254844 124.579062 125.254844 124.579062 125.254844 124.579062 
L 147.076561 126.728314 
C 147.146909 126.014057 147.182147 125.296776 147.182147 124.579062 
C 147.182147 123.861349 147.146909 123.144068 147.076561 122.429811 
z
" clip-path="url(#p025c3b88c4)" style="fill: #badbb8"/>
   </g>
   <g id="patch_44">
    <path d="M 125.254844 124.579062 
C 125.254844 124.579062 125.254844 124.579062 125.254844 124.579062 
C 125.254844 124.579062 125.254844 124.579062 125.254844 124.579062 
L 150.503708 132.238222 
C 150.754404 131.411789 150.964373 130.573545 151.132857 129.726519 
C 151.301341 128.879493 151.428137 128.024706 151.512786 127.165244 
z
" clip-path="url(#p025c3b88c4)" style="fill: #badbb8"/>
   </g>
   <g id="patch_45">
    <path d="M 125.254844 124.579062 
C 125.254844 124.579062 125.254844 124.579062 125.254844 124.579062 
C 125.254844 124.579062 125.254844 124.579062 125.254844 124.579062 
L 146.48924 135.929084 
C 146.860743 135.23405 147.197898 134.521196 147.499487 133.793095 
C 147.801076 133.064995 148.066736 132.322526 148.295506 131.568371 
z
" clip-path="url(#p025c3b88c4)" style="fill: #badbb8"/>
   </g>
   <g id="patch_46">
    <path d="M 125.254844 124.579062 
C 125.254844 124.579062 125.254844 124.579062 125.254844 124.579062 
C 125.254844 124.579062 125.254844 124.579062 125.254844 124.579062 
L 138.272688 135.262531 
C 138.622373 134.836437 138.950929 134.393432 139.257166 133.935115 
C 139.563404 133.476798 139.846955 133.003722 140.106795 132.517596 
z
" clip-path="url(#p025c3b88c4)" style="fill: #badbb8"/>
   </g>
   <g id="patch_47">
    <path d="M 125.254844 124.579062 
C 125.254844 124.579062 125.254844 124.579062 125.254844 124.579062 
C 125.254844 124.579062 125.254844 124.579062 125.254844 124.579062 
L 130.274375 130.695379 
C 130.474571 130.531083 130.66658 130.357056 130.849709 130.173927 
C 131.032837 129.990799 131.206864 129.79879 131.371161 129.598594 
z
" clip-path="url(#p025c3b88c4)" style="fill: #badbb8"/>
   </g>
   <g id="patch_48">
    <path d="M 125.254844 124.579062 
C 125.254844 124.579062 125.254844 124.579062 125.254844 124.579062 
C 125.254844 124.579062 125.254844 124.579062 125.254844 124.579062 
L 125.254844 124.579062 
C 125.254844 124.579062 125.254844 124.579062 125.254844 124.579062 
C 125.254844 124.579062 125.254844 124.579062 125.254844 124.579062 
z
" clip-path="url(#p025c3b88c4)" style="fill: #badbb8"/>
   </g>
   <g id="patch_49">
    <path d="M 125.254844 124.579062 
C 125.254844 124.579062 125.254844 124.579062 125.254844 124.579062 
C 125.254844 124.579062 125.254844 124.579062 125.254844 124.579062 
L 128.205174 134.304999 
C 128.523519 134.20843 128.83693 134.09629 129.144276 133.968983 
C 129.451622 133.841676 129.752533 133.699356 130.045921 133.542537 
z
" clip-path="url(#p025c3b88c4)" style="fill: #badbb8"/>
   </g>
   <g id="patch_50">
    <path d="M 125.254844 124.579062 
C 125.254844 124.579062 125.254844 124.579062 125.254844 124.579062 
C 125.254844 124.579062 125.254844 124.579062 125.254844 124.579062 
L 125.254844 124.579062 
C 125.254844 124.579062 125.254844 124.579062 125.254844 124.579062 
C 125.254844 124.579062 125.254844 124.579062 125.254844 124.579062 
z
" clip-path="url(#p025c3b88c4)" style="fill: #badbb8"/>
   </g>
   <g id="patch_51">
    <path d="M 125.254844 124.579062 
C 125.254844 124.579062 125.254844 124.579062 125.254844 124.579062 
C 125.254844 124.579062 125.254844 124.579062 125.254844 124.579062 
L 123.348834 143.931103 
C 123.982255 143.99349 124.618358 144.02474 125.254844 144.02474 
C 125.89133 144.02474 126.527432 143.99349 127.160853 143.931103 
z
" clip-path="url(#p025c3b88c4)" style="fill: #badbb8"/>
   </g>
   <g id="patch_52">
    <path d="M 125.254844 124.579062 
C 125.254844 124.579062 125.254844 124.579062 125.254844 124.579062 
C 125.254844 124.579062 125.254844 124.579062 125.254844 124.579062 
L 120.661185 139.722325 
C 121.156847 139.872683 121.659592 139.998614 122.167604 140.099664 
C 122.675617 140.200714 123.188284 140.276761 123.703755 140.32753 
z
" clip-path="url(#p025c3b88c4)" style="fill: #badbb8"/>
   </g>
   <g id="patch_53">
    <path d="M 125.254844 124.579062 
C 125.254844 124.579062 125.254844 124.579062 125.254844 124.579062 
C 125.254844 124.579062 125.254844 124.579062 125.254844 124.579062 
L 120.596265 133.294651 
C 120.881539 133.447133 121.174128 133.585517 121.472974 133.709303 
C 121.771821 133.83309 122.076564 133.942129 122.386105 134.036027 
z
" clip-path="url(#p025c3b88c4)" style="fill: #badbb8"/>
   </g>
   <g id="patch_54">
    <path d="M 125.254844 124.579062 
C 125.254844 124.579062 125.254844 124.579062 125.254844 124.579062 
C 125.254844 124.579062 125.254844 124.579062 125.254844 124.579062 
L 120.235312 130.695379 
C 120.435508 130.859676 120.643651 131.014045 120.858987 131.157928 
C 121.074323 131.301811 121.296593 131.435034 121.524995 131.557118 
z
" clip-path="url(#p025c3b88c4)" style="fill: #badbb8"/>
   </g>
   <g id="patch_55">
    <path d="M 125.254844 124.579062 
C 125.254844 124.579062 125.254844 124.579062 125.254844 124.579062 
C 125.254844 124.579062 125.254844 124.579062 125.254844 124.579062 
L 113.02221 134.618125 
C 113.350804 135.018518 113.698857 135.402536 114.065114 135.768792 
C 114.43137 136.135049 114.815388 136.483103 115.215781 136.811696 
z
" clip-path="url(#p025c3b88c4)" style="fill: #badbb8"/>
   </g>
   <g id="patch_56">
    <path d="M 125.254844 124.579062 
C 125.254844 124.579062 125.254844 124.579062 125.254844 124.579062 
C 125.254844 124.579062 125.254844 124.579062 125.254844 124.579062 
L 109.449895 133.026984 
C 109.726408 133.544303 110.028153 134.047735 110.354041 134.535461 
C 110.679929 135.023186 111.029566 135.494618 111.40169 135.948052 
z
" clip-path="url(#p025c3b88c4)" style="fill: #badbb8"/>
   </g>
   <g id="patch_57">
    <path d="M 125.254844 124.579062 
C 125.254844 124.579062 125.254844 124.579062 125.254844 124.579062 
C 125.254844 124.579062 125.254844 124.579062 125.254844 124.579062 
L 125.254844 124.579062 
C 125.254844 124.579062 125.254844 124.579062 125.254844 124.579062 
C 125.254844 124.579062 125.254844 124.579062 125.254844 124.579062 
z
" clip-path="url(#p025c3b88c4)" style="fill: #badbb8"/>
   </g>
   <g id="patch_58">
    <path d="M 125.254844 124.579062 
C 125.254844 124.579062 125.254844 124.579062 125.254844 124.579062 
C 125.254844 124.579062 125.254844 124.579062 125.254844 124.579062 
L 101.632142 126.905696 
C 101.708297 127.678902 101.822367 128.447903 101.973942 129.209922 
C 102.125517 129.97194 102.314414 130.726058 102.53995 131.46955 
z
" clip-path="url(#p025c3b88c4)" style="fill: #badbb8"/>
   </g>
   <g id="patch_59">
    <path d="M 125.254844 124.579062 
C 125.254844 124.579062 125.254844 124.579062 125.254844 124.579062 
C 125.254844 124.579062 125.254844 124.579062 125.254844 124.579062 
L 116.416038 123.708516 
C 116.387544 123.997823 116.373271 124.288355 116.373271 124.579062 
C 116.373271 124.86977 116.387544 125.160302 116.416038 125.449609 
z
" clip-path="url(#p025c3b88c4)" style="fill: #badbb8"/>
   </g>
   <g id="patch_60">
    <path d="M 125.254844 124.579062 
C 125.254844 124.579062 125.254844 124.579062 125.254844 124.579062 
C 125.254844 124.579062 125.254844 124.579062 125.254844 124.579062 
L 94.054577 115.114565 
C 93.74479 116.135797 93.48533 117.171622 93.277132 118.2183 
C 93.068935 119.264978 92.912252 120.321248 92.80765 121.383293 
z
" clip-path="url(#p025c3b88c4)" style="fill: #badbb8"/>
   </g>
   <g id="patch_61">
    <path d="M 125.254844 124.579062 
C 125.254844 124.579062 125.254844 124.579062 125.254844 124.579062 
C 125.254844 124.579062 125.254844 124.579062 125.254844 124.579062 
L 96.961431 109.455918 
C 96.466428 110.382004 96.017192 111.331835 95.615344 112.30198 
C 95.213497 113.272125 94.859524 114.261415 94.554702 115.266276 
z
" clip-path="url(#p025c3b88c4)" style="fill: #badbb8"/>
   </g>
   <g id="patch_62">
    <path d="M 125.254844 124.579062 
C 125.254844 124.579062 125.254844 124.579062 125.254844 124.579062 
C 125.254844 124.579062 125.254844 124.579062 125.254844 124.579062 
L 107.401902 109.927532 
C 106.922336 110.511886 106.471749 111.119432 106.051768 111.747978 
C 105.631788 112.376523 105.24292 113.025309 104.88657 113.691993 
z
" clip-path="url(#p025c3b88c4)" style="fill: #badbb8"/>
   </g>
   <g id="patch_63">
    <path d="M 125.254844 124.579062 
C 125.254844 124.579062 125.254844 124.579062 125.254844 124.579062 
C 125.254844 124.579062 125.254844 124.579062 125.254844 124.579062 
L 110.741538 106.894549 
C 110.162698 107.369591 109.607529 107.872766 109.078038 108.402257 
C 108.548547 108.931748 108.045372 109.486917 107.57033 110.065757 
z
" clip-path="url(#p025c3b88c4)" style="fill: #badbb8"/>
   </g>
   <g id="patch_64">
    <path d="M 125.254844 124.579062 
C 125.254844 124.579062 125.254844 124.579062 125.254844 124.579062 
C 125.254844 124.579062 125.254844 124.579062 125.254844 124.579062 
L 94.626906 67.278221 
C 92.751364 68.280719 90.926172 69.374697 89.157923 70.556203 
C 87.389674 71.737709 85.6805 73.00532 84.036574 74.354455 
z
" clip-path="url(#p025c3b88c4)" style="fill: #badbb8"/>
   </g>
   <g id="patch_65">
    <path d="M 125.254844 124.579062 
C 125.254844 124.579062 125.254844 124.579062 125.254844 124.579062 
C 125.254844 124.579062 125.254844 124.579062 125.254844 124.579062 
L 108.176254 68.278498 
C 106.333453 68.837506 104.519208 69.486653 102.740072 70.223595 
C 100.960936 70.960538 99.219055 71.784386 97.520719 72.692165 
z
" clip-path="url(#p025c3b88c4)" style="fill: #badbb8"/>
   </g>
   <g id="patch_66">
    <path d="M 125.254844 124.579062 
C 125.254844 124.579062 125.254844 124.579062 125.254844 124.579062 
C 125.254844 124.579062 125.254844 124.579062 125.254844 124.579062 
L 120.037903 71.610572 
C 118.304165 71.78133 116.579856 72.037107 114.871204 72.376979 
C 113.162552 72.716851 111.471616 73.140409 109.804505 73.646121 
z
" clip-path="url(#p025c3b88c4)" style="fill: #badbb8"/>
   </g>
   <g id="patch_67">
    <path d="M 120.315046 74.424458 
C 121.956681 74.262771 123.605265 74.181782 125.254844 74.181782 
C 126.904422 74.181782 128.553006 74.262771 130.194641 74.424458 
L 135.20632 23.540031 
C 131.899161 23.214304 128.578004 23.051146 125.254844 23.051146 
C 121.931683 23.051146 118.610526 23.214304 115.303368 23.540031 
z
" clip-path="url(#p025c3b88c4)" style="fill: #ff8c8e"/>
   </g>
   <g id="patch_68">
    <path d="M 130.171452 74.659896 
C 131.805381 74.820824 133.430424 75.061877 135.040712 75.382183 
C 136.650999 75.702489 138.24459 76.101663 139.815727 76.578262 
L 156.033212 23.116379 
C 152.712187 22.108957 149.343702 21.265195 145.939924 20.588142 
C 142.536146 19.911088 139.101178 19.401559 135.647427 19.061394 
z
" clip-path="url(#p025c3b88c4)" style="fill: #ff8c8e"/>
   </g>
   <g id="patch_69">
    <path d="M 145.672092 57.272414 
C 147.87514 57.940701 150.044048 58.716749 152.170983 59.597754 
C 154.297918 60.478759 156.380317 61.463661 158.410656 62.5489 
L 173.913284 33.545523 
C 170.933621 31.95286 167.877558 30.507449 164.756133 29.214513 
C 161.634709 27.921577 158.451687 26.782673 155.218564 25.801916 
z
" clip-path="url(#p025c3b88c4)" style="fill: #ff8c8e"/>
   </g>
   <g id="patch_70">
    <path d="M 158.95377 61.532806 
C 161.017368 62.635822 163.025568 63.83949 164.971114 65.139463 
C 166.916661 66.439436 168.79721 67.834146 170.605969 69.318556 
L 180.742806 56.966785 
C 178.529755 55.150581 176.228868 53.444126 173.848454 51.853585 
C 171.468041 50.263044 169.010971 48.790332 166.486119 47.440771 
z
" clip-path="url(#p025c3b88c4)" style="fill: #ff8c8e"/>
   </g>
   <g id="patch_71">
    <path d="M 181.397355 56.169215 
C 183.636511 58.006843 185.784095 59.9533 187.832351 62.001556 
C 189.880606 64.049811 191.827063 66.197395 193.664691 68.436552 
L 203.806069 60.113738 
C 201.696023 57.542639 199.461014 55.076687 197.109116 52.72479 
C 194.757219 50.372892 192.291267 48.137884 189.720168 46.027837 
z
" clip-path="url(#p025c3b88c4)" style="fill: #ff8c8e"/>
   </g>
   <g id="patch_72">
    <path d="M 190.200219 71.279771 
C 191.944784 73.40553 193.583929 75.615661 195.111733 77.902181 
C 196.639537 80.188701 198.054159 82.548855 199.350488 84.974116 
L 202.24781 83.425465 
C 200.900791 80.90537 199.430855 78.452929 197.84331 76.077 
C 196.255765 73.701071 194.552525 71.404518 192.739743 69.195637 
z
" clip-path="url(#p025c3b88c4)" style="fill: #ff8c8e"/>
   </g>
   <g id="patch_73">
    <path d="M 186.737016 91.716157 
C 187.812668 93.72856 188.788868 95.792562 189.66209 97.900707 
C 190.535313 100.008853 191.304505 102.1586 191.966888 104.342185 
L 198.789379 102.272605 
C 198.059256 99.86571 197.2114 97.496112 196.248875 95.172372 
C 195.28635 92.848631 194.210316 90.573548 193.02466 88.355341 
z
" clip-path="url(#p025c3b88c4)" style="fill: #ff8c8e"/>
   </g>
   <g id="patch_74">
    <path d="M 175.101255 109.458319 
C 175.59618 111.089866 176.010702 112.74473 176.343323 114.416932 
C 176.675945 116.089134 176.926266 117.776659 177.093381 119.473412 
L 177.093381 119.473412 
C 176.926266 117.776659 176.675945 116.089134 176.343323 114.416932 
C 176.010702 112.74473 175.59618 111.089866 175.101255 109.458319 
z
" clip-path="url(#p025c3b88c4)" style="fill: #ff8c8e"/>
   </g>
   <g id="patch_75">
    <path d="M 147.076561 122.429811 
C 147.146909 123.144068 147.182147 123.861349 147.182147 124.579062 
C 147.182147 125.296776 147.146909 126.014057 147.076561 126.728314 
L 147.076561 126.728314 
C 147.146909 126.014057 147.182147 125.296776 147.182147 124.579062 
C 147.182147 123.861349 147.146909 123.144068 147.076561 122.429811 
z
" clip-path="url(#p025c3b88c4)" style="fill: #ff8c8e"/>
   </g>
   <g id="patch_76">
    <path d="M 151.512786 127.165244 
C 151.428137 128.024706 151.301341 128.879493 151.132857 129.726519 
C 150.964373 130.573545 150.754404 131.411789 150.503708 132.238222 
L 150.503708 132.238222 
C 150.754404 131.411789 150.964373 130.573545 151.132857 129.726519 
C 151.301341 128.879493 151.428137 128.024706 151.512786 127.165244 
z
" clip-path="url(#p025c3b88c4)" style="fill: #ff8c8e"/>
   </g>
   <g id="patch_77">
    <path d="M 148.295506 131.568371 
C 148.066736 132.322526 147.801076 133.064995 147.499487 133.793095 
C 147.197898 134.521196 146.860743 135.23405 146.48924 135.929084 
L 146.48924 135.929084 
C 146.860743 135.23405 147.197898 134.521196 147.499487 133.793095 
C 147.801076 133.064995 148.066736 132.322526 148.295506 131.568371 
z
" clip-path="url(#p025c3b88c4)" style="fill: #ff8c8e"/>
   </g>
   <g id="patch_78">
    <path d="M 140.106795 132.517596 
C 139.846955 133.003722 139.563404 133.476798 139.257166 133.935115 
C 138.950929 134.393432 138.622373 134.836437 138.272688 135.262531 
L 138.272688 135.262531 
C 138.622373 134.836437 138.950929 134.393432 139.257166 133.935115 
C 139.563404 133.476798 139.846955 133.003722 140.106795 132.517596 
z
" clip-path="url(#p025c3b88c4)" style="fill: #ff8c8e"/>
   </g>
   <g id="patch_79">
    <path d="M 131.371161 129.598594 
C 131.206864 129.79879 131.032837 129.990799 130.849709 130.173927 
C 130.66658 130.357056 130.474571 130.531083 130.274375 130.695379 
L 130.274375 130.695379 
C 130.474571 130.531083 130.66658 130.357056 130.849709 130.173927 
C 131.032837 129.990799 131.206864 129.79879 131.371161 129.598594 
z
" clip-path="url(#p025c3b88c4)" style="fill: #ff8c8e"/>
   </g>
   <g id="patch_80">
    <path d="M 125.254844 124.579062 
C 125.254844 124.579062 125.254844 124.579062 125.254844 124.579062 
C 125.254844 124.579062 125.254844 124.579062 125.254844 124.579062 
L 125.254844 124.579062 
C 125.254844 124.579062 125.254844 124.579062 125.254844 124.579062 
C 125.254844 124.579062 125.254844 124.579062 125.254844 124.579062 
z
" clip-path="url(#p025c3b88c4)" style="fill: #ff8c8e"/>
   </g>
   <g id="patch_81">
    <path d="M 130.045921 133.542537 
C 129.752533 133.699356 129.451622 133.841676 129.144276 133.968983 
C 128.83693 134.09629 128.523519 134.20843 128.205174 134.304999 
L 128.205174 134.304999 
C 128.523519 134.20843 128.83693 134.09629 129.144276 133.968983 
C 129.451622 133.841676 129.752533 133.699356 130.045921 133.542537 
z
" clip-path="url(#p025c3b88c4)" style="fill: #ff8c8e"/>
   </g>
   <g id="patch_82">
    <path d="M 125.254844 124.579062 
C 125.254844 124.579062 125.254844 124.579062 125.254844 124.579062 
C 125.254844 124.579062 125.254844 124.579062 125.254844 124.579062 
L 125.254844 124.579062 
C 125.254844 124.579062 125.254844 124.579062 125.254844 124.579062 
C 125.254844 124.579062 125.254844 124.579062 125.254844 124.579062 
z
" clip-path="url(#p025c3b88c4)" style="fill: #ff8c8e"/>
   </g>
   <g id="patch_83">
    <path d="M 127.160853 143.931103 
C 126.527432 143.99349 125.89133 144.02474 125.254844 144.02474 
C 124.618358 144.02474 123.982255 143.99349 123.348834 143.931103 
L 123.348834 143.931103 
C 123.982255 143.99349 124.618358 144.02474 125.254844 144.02474 
C 125.89133 144.02474 126.527432 143.99349 127.160853 143.931103 
z
" clip-path="url(#p025c3b88c4)" style="fill: #ff8c8e"/>
   </g>
   <g id="patch_84">
    <path d="M 123.703755 140.32753 
C 123.188284 140.276761 122.675617 140.200714 122.167604 140.099664 
C 121.659592 139.998614 121.156847 139.872683 120.661185 139.722325 
L 120.661185 139.722325 
C 121.156847 139.872683 121.659592 139.998614 122.167604 140.099664 
C 122.675617 140.200714 123.188284 140.276761 123.703755 140.32753 
z
" clip-path="url(#p025c3b88c4)" style="fill: #ff8c8e"/>
   </g>
   <g id="patch_85">
    <path d="M 122.386105 134.036027 
C 122.076564 133.942129 121.771821 133.83309 121.472974 133.709303 
C 121.174128 133.585517 120.881539 133.447133 120.596265 133.294651 
L 120.596265 133.294651 
C 120.881539 133.447133 121.174128 133.585517 121.472974 133.709303 
C 121.771821 133.83309 122.076564 133.942129 122.386105 134.036027 
z
" clip-path="url(#p025c3b88c4)" style="fill: #ff8c8e"/>
   </g>
   <g id="patch_86">
    <path d="M 121.524995 131.557118 
C 121.296593 131.435034 121.074323 131.301811 120.858987 131.157928 
C 120.643651 131.014045 120.435508 130.859676 120.235312 130.695379 
L 120.235312 130.695379 
C 120.435508 130.859676 120.643651 131.014045 120.858987 131.157928 
C 121.074323 131.301811 121.296593 131.435034 121.524995 131.557118 
z
" clip-path="url(#p025c3b88c4)" style="fill: #ff8c8e"/>
   </g>
   <g id="patch_87">
    <path d="M 115.215781 136.811696 
C 114.815388 136.483103 114.43137 136.135049 114.065114 135.768792 
C 113.698857 135.402536 113.350804 135.018518 113.02221 134.618125 
L 113.02221 134.618125 
C 113.350804 135.018518 113.698857 135.402536 114.065114 135.768792 
C 114.43137 136.135049 114.815388 136.483103 115.215781 136.811696 
z
" clip-path="url(#p025c3b88c4)" style="fill: #ff8c8e"/>
   </g>
   <g id="patch_88">
    <path d="M 111.40169 135.948052 
C 111.029566 135.494618 110.679929 135.023186 110.354041 134.535461 
C 110.028153 134.047735 109.726408 133.544303 109.449895 133.026984 
L 109.449895 133.026984 
C 109.726408 133.544303 110.028153 134.047735 110.354041 134.535461 
C 110.679929 135.023186 111.029566 135.494618 111.40169 135.948052 
z
" clip-path="url(#p025c3b88c4)" style="fill: #ff8c8e"/>
   </g>
   <g id="patch_89">
    <path d="M 125.254844 124.579062 
C 125.254844 124.579062 125.254844 124.579062 125.254844 124.579062 
C 125.254844 124.579062 125.254844 124.579062 125.254844 124.579062 
L 125.254844 124.579062 
C 125.254844 124.579062 125.254844 124.579062 125.254844 124.579062 
C 125.254844 124.579062 125.254844 124.579062 125.254844 124.579062 
z
" clip-path="url(#p025c3b88c4)" style="fill: #ff8c8e"/>
   </g>
   <g id="patch_90">
    <path d="M 102.53995 131.46955 
C 102.314414 130.726058 102.125517 129.97194 101.973942 129.209922 
C 101.822367 128.447903 101.708297 127.678902 101.632142 126.905696 
L 101.632142 126.905696 
C 101.708297 127.678902 101.822367 128.447903 101.973942 129.209922 
C 102.125517 129.97194 102.314414 130.726058 102.53995 131.46955 
z
" clip-path="url(#p025c3b88c4)" style="fill: #ff8c8e"/>
   </g>
   <g id="patch_91">
    <path d="M 116.416038 125.449609 
C 116.387544 125.160302 116.373271 124.86977 116.373271 124.579062 
C 116.373271 124.288355 116.387544 123.997823 116.416038 123.708516 
L 116.416038 123.708516 
C 116.387544 123.997823 116.373271 124.288355 116.373271 124.579062 
C 116.373271 124.86977 116.387544 125.160302 116.416038 125.449609 
z
" clip-path="url(#p025c3b88c4)" style="fill: #ff8c8e"/>
   </g>
   <g id="patch_92">
    <path d="M 92.80765 121.383293 
C 92.912252 120.321248 93.068935 119.264978 93.277132 118.2183 
C 93.48533 117.171622 93.74479 116.135797 94.054577 115.114565 
L 94.054577 115.114565 
C 93.74479 116.135797 93.48533 117.171622 93.277132 118.2183 
C 93.068935 119.264978 92.912252 120.321248 92.80765 121.383293 
z
" clip-path="url(#p025c3b88c4)" style="fill: #ff8c8e"/>
   </g>
   <g id="patch_93">
    <path d="M 94.554702 115.266276 
C 94.859524 114.261415 95.213497 113.272125 95.615344 112.30198 
C 96.017192 111.331835 96.466428 110.382004 96.961431 109.455918 
L 92.989353 107.332798 
C 92.424857 108.388896 91.912553 109.472072 91.454291 110.578415 
C 90.996029 111.684758 90.592361 112.812933 90.244746 113.958866 
z
" clip-path="url(#p025c3b88c4)" style="fill: #ff8c8e"/>
   </g>
   <g id="patch_94">
    <path d="M 104.88657 113.691993 
C 105.24292 113.025309 105.631788 112.376523 106.051768 111.747978 
C 106.471749 111.119432 106.922336 110.511886 107.401902 109.927532 
L 107.401902 109.927532 
C 106.922336 110.511886 106.471749 111.119432 106.051768 111.747978 
C 105.631788 112.376523 105.24292 113.025309 104.88657 113.691993 
z
" clip-path="url(#p025c3b88c4)" style="fill: #ff8c8e"/>
   </g>
   <g id="patch_95">
    <path d="M 107.57033 110.065757 
C 108.045372 109.486917 108.548547 108.931748 109.078038 108.402257 
C 109.607529 107.872766 110.162698 107.369591 110.741538 106.894549 
L 105.801326 100.874882 
C 105.025452 101.511625 104.281309 102.186077 103.571584 102.895802 
C 102.861858 103.605528 102.187406 104.349671 101.550663 105.125544 
z
" clip-path="url(#p025c3b88c4)" style="fill: #ff8c8e"/>
   </g>
   <g id="patch_96">
    <path d="M 84.036574 74.354455 
C 85.6805 73.00532 87.389674 71.737709 89.157923 70.556203 
C 90.926172 69.374697 92.751364 68.280719 94.626906 67.278221 
L 94.131276 66.350963 
C 92.225384 67.369684 90.370656 68.481365 88.573793 69.68199 
C 86.77693 70.882616 85.040097 72.170739 83.369568 73.541706 
z
" clip-path="url(#p025c3b88c4)" style="fill: #ff8c8e"/>
   </g>
   <g id="patch_97">
    <path d="M 97.520719 72.692165 
C 99.219055 71.784386 100.960936 70.960538 102.740072 70.223595 
C 104.519208 69.486653 106.333453 68.837506 108.176254 68.278498 
L 104.296985 55.490261 
C 102.035605 56.176243 99.809269 56.972839 97.626016 57.877172 
C 95.442764 58.781505 93.305227 59.792484 91.221128 60.906459 
z
" clip-path="url(#p025c3b88c4)" style="fill: #ff8c8e"/>
   </g>
   <g id="patch_98">
    <path d="M 109.804505 73.646121 
C 111.471616 73.140409 113.162552 72.716851 114.871204 72.376979 
C 116.579856 72.037107 118.304165 71.78133 120.037903 71.610572 
L 118.673675 57.759334 
C 116.486565 57.974746 114.31135 58.297408 112.155886 58.726157 
C 110.000422 59.154905 107.867308 59.689223 105.764248 60.327179 
z
" clip-path="url(#p025c3b88c4)" style="fill: #ff8c8e"/>
   </g>
   <g id="patch_99">
    <path d="M 115.303368 23.540031 
C 118.610526 23.214304 121.931683 23.051146 125.254844 23.051146 
C 128.578004 23.051146 131.899161 23.214304 135.20632 23.540031 
L 135.20632 23.540031 
C 131.899161 23.214304 128.578004 23.051146 125.254844 23.051146 
C 121.931683 23.051146 118.610526 23.214304 115.303368 23.540031 
z
" clip-path="url(#p025c3b88c4)" style="fill: #828282"/>
   </g>
   <g id="patch_100">
    <path d="M 135.647427 19.061394 
C 139.101178 19.401559 142.536146 19.911088 145.939924 20.588142 
C 149.343702 21.265195 152.712187 22.108957 156.033212 23.116379 
L 156.033212 23.116379 
C 152.712187 22.108957 149.343702 21.265195 145.939924 20.588142 
C 142.536146 19.911088 139.101178 19.401559 135.647427 19.061394 
z
" clip-path="url(#p025c3b88c4)" style="fill: #828282"/>
   </g>
   <g id="patch_101">
    <path d="M 155.218564 25.801916 
C 158.451687 26.782673 161.634709 27.921577 164.756133 29.214513 
C 167.877558 30.507449 170.933621 31.95286 173.913284 33.545523 
L 177.523315 26.791631 
C 174.322586 25.080806 171.03979 23.528159 167.686784 22.139298 
C 164.333777 20.750437 160.914602 19.527037 157.441609 18.473516 
z
" clip-path="url(#p025c3b88c4)" style="fill: #828282"/>
   </g>
   <g id="patch_102">
    <path d="M 166.486119 47.440771 
C 169.010971 48.790332 171.468041 50.263044 173.848454 51.853585 
C 176.228868 53.444126 178.529755 55.150581 180.742806 56.966785 
L 186.550701 49.889844 
C 184.106011 47.88354 181.564291 45.998471 178.934721 44.241449 
C 176.305151 42.484426 173.590901 40.857567 170.801775 39.366748 
z
" clip-path="url(#p025c3b88c4)" style="fill: #828282"/>
   </g>
   <g id="patch_103">
    <path d="M 189.720168 46.027837 
C 192.291267 48.137884 194.757219 50.372892 197.109116 52.72479 
C 199.461014 55.076687 201.696023 57.542639 203.806069 60.113738 
L 203.806069 60.113738 
C 201.696023 57.542639 199.461014 55.076687 197.109116 52.72479 
C 194.757219 50.372892 192.291267 48.137884 189.720168 46.027837 
z
" clip-path="url(#p025c3b88c4)" style="fill: #828282"/>
   </g>
   <g id="patch_104">
    <path d="M 192.739743 69.195637 
C 194.552525 71.404518 196.255765 73.701071 197.84331 76.077 
C 199.430855 78.452929 200.900791 80.90537 202.24781 83.425465 
L 206.365544 81.22449 
C 204.946484 78.569616 203.397933 75.986013 201.725483 73.483015 
C 200.053033 70.980017 198.2587 68.56064 196.348967 66.233623 
z
" clip-path="url(#p025c3b88c4)" style="fill: #828282"/>
   </g>
   <g id="patch_105">
    <path d="M 193.02466 88.355341 
C 194.210316 90.573548 195.28635 92.848631 196.248875 95.172372 
C 197.2114 97.496112 198.059256 99.86571 198.789379 102.272605 
L 215.59237 97.175474 
C 214.69541 94.218591 213.653815 91.30753 212.471349 88.452803 
C 211.288882 85.598077 209.966969 82.803127 208.510385 80.078049 
z
" clip-path="url(#p025c3b88c4)" style="fill: #828282"/>
   </g>
   <g id="patch_106">
    <path d="M 175.101255 109.458319 
C 175.59618 111.089866 176.010702 112.74473 176.343323 114.416932 
C 176.675945 116.089134 176.926266 117.776659 177.093381 119.473412 
L 203.289254 116.893344 
C 203.037688 114.339161 202.660872 111.798869 202.160164 109.281643 
C 201.659457 106.764417 201.035463 104.273292 200.290435 101.817265 
z
" clip-path="url(#p025c3b88c4)" style="fill: #828282"/>
   </g>
   <g id="patch_107">
    <path d="M 147.076561 122.429811 
C 147.146909 123.144068 147.182147 123.861349 147.182147 124.579062 
C 147.182147 125.296776 147.146909 126.014057 147.076561 126.728314 
L 162.796032 128.276547 
C 162.917056 127.047768 162.977678 125.813787 162.977678 124.579062 
C 162.977678 123.344338 162.917056 122.110357 162.796032 120.881578 
z
" clip-path="url(#p025c3b88c4)" style="fill: #828282"/>
   </g>
   <g id="patch_108">
    <path d="M 151.512786 127.165244 
C 151.428137 128.024706 151.301341 128.879493 151.132857 129.726519 
C 150.964373 130.573545 150.754404 131.411789 150.503708 132.238222 
L 158.613015 134.698153 
C 158.944228 133.60629 159.221633 132.498824 159.44423 131.379754 
C 159.666827 130.260685 159.834346 129.131361 159.946183 127.995861 
z
" clip-path="url(#p025c3b88c4)" style="fill: #828282"/>
   </g>
   <g id="patch_109">
    <path d="M 148.295506 131.568371 
C 148.066736 132.322526 147.801076 133.064995 147.499487 133.793095 
C 147.197898 134.521196 146.860743 135.23405 146.48924 135.929084 
L 146.48924 135.929084 
C 146.860743 135.23405 147.197898 134.521196 147.499487 133.793095 
C 147.801076 133.064995 148.066736 132.322526 148.295506 131.568371 
z
" clip-path="url(#p025c3b88c4)" style="fill: #828282"/>
   </g>
   <g id="patch_110">
    <path d="M 140.106795 132.517596 
C 139.846955 133.003722 139.563404 133.476798 139.257166 133.935115 
C 138.950929 134.393432 138.622373 134.836437 138.272688 135.262531 
L 143.118258 139.239188 
C 143.598106 138.654492 144.048958 138.046589 144.469185 137.417675 
C 144.889412 136.788761 145.278507 136.139594 145.635066 135.472518 
z
" clip-path="url(#p025c3b88c4)" style="fill: #828282"/>
   </g>
   <g id="patch_111">
    <path d="M 131.371161 129.598594 
C 131.206864 129.79879 131.032837 129.990799 130.849709 130.173927 
C 130.66658 130.357056 130.474571 130.531083 130.274375 130.695379 
L 135.293907 136.811696 
C 135.694299 136.483103 136.078317 136.135049 136.444574 135.768792 
C 136.81083 135.402536 137.158884 135.018518 137.487477 134.618125 
z
" clip-path="url(#p025c3b88c4)" style="fill: #828282"/>
   </g>
   <g id="patch_112">
    <path d="M 125.254844 124.579062 
C 125.254844 124.579062 125.254844 124.579062 125.254844 124.579062 
C 125.254844 124.579062 125.254844 124.579062 125.254844 124.579062 
L 130.045921 133.542537 
C 130.339309 133.385718 130.62482 133.214589 130.901424 133.029768 
C 131.178029 132.844947 131.445392 132.646657 131.702549 132.435614 
z
" clip-path="url(#p025c3b88c4)" style="fill: #828282"/>
   </g>
   <g id="patch_113">
    <path d="M 130.045921 133.542537 
C 129.752533 133.699356 129.451622 133.841676 129.144276 133.968983 
C 128.83693 134.09629 128.523519 134.20843 128.205174 134.304999 
L 128.205174 134.304999 
C 128.523519 134.20843 128.83693 134.09629 129.144276 133.968983 
C 129.451622 133.841676 129.752533 133.699356 130.045921 133.542537 
z
" clip-path="url(#p025c3b88c4)" style="fill: #828282"/>
   </g>
   <g id="patch_114">
    <path d="M 125.254844 124.579062 
C 125.254844 124.579062 125.254844 124.579062 125.254844 124.579062 
C 125.254844 124.579062 125.254844 124.579062 125.254844 124.579062 
L 125.254844 124.579062 
C 125.254844 124.579062 125.254844 124.579062 125.254844 124.579062 
C 125.254844 124.579062 125.254844 124.579062 125.254844 124.579062 
z
" clip-path="url(#p025c3b88c4)" style="fill: #828282"/>
   </g>
   <g id="patch_115">
    <path d="M 127.160853 143.931103 
C 126.527432 143.99349 125.89133 144.02474 125.254844 144.02474 
C 124.618358 144.02474 123.982255 143.99349 123.348834 143.931103 
L 123.348834 143.931103 
C 123.982255 143.99349 124.618358 144.02474 125.254844 144.02474 
C 125.89133 144.02474 126.527432 143.99349 127.160853 143.931103 
z
" clip-path="url(#p025c3b88c4)" style="fill: #828282"/>
   </g>
   <g id="patch_116">
    <path d="M 123.703755 140.32753 
C 123.188284 140.276761 122.675617 140.200714 122.167604 140.099664 
C 121.659592 139.998614 121.156847 139.872683 120.661185 139.722325 
L 120.661185 139.722325 
C 121.156847 139.872683 121.659592 139.998614 122.167604 140.099664 
C 122.675617 140.200714 123.188284 140.276761 123.703755 140.32753 
z
" clip-path="url(#p025c3b88c4)" style="fill: #828282"/>
   </g>
   <g id="patch_117">
    <path d="M 122.386105 134.036027 
C 122.076564 133.942129 121.771821 133.83309 121.472974 133.709303 
C 121.174128 133.585517 120.881539 133.447133 120.596265 133.294651 
L 120.596265 133.294651 
C 120.881539 133.447133 121.174128 133.585517 121.472974 133.709303 
C 121.771821 133.83309 122.076564 133.942129 122.386105 134.036027 
z
" clip-path="url(#p025c3b88c4)" style="fill: #828282"/>
   </g>
   <g id="patch_118">
    <path d="M 121.524995 131.557118 
C 121.296593 131.435034 121.074323 131.301811 120.858987 131.157928 
C 120.643651 131.014045 120.435508 130.859676 120.235312 130.695379 
L 120.235312 130.695379 
C 120.435508 130.859676 120.643651 131.014045 120.858987 131.157928 
C 121.074323 131.301811 121.296593 131.435034 121.524995 131.557118 
z
" clip-path="url(#p025c3b88c4)" style="fill: #828282"/>
   </g>
   <g id="patch_119">
    <path d="M 115.215781 136.811696 
C 114.815388 136.483103 114.43137 136.135049 114.065114 135.768792 
C 113.698857 135.402536 113.350804 135.018518 113.02221 134.618125 
L 113.02221 134.618125 
C 113.350804 135.018518 113.698857 135.402536 114.065114 135.768792 
C 114.43137 136.135049 114.815388 136.483103 115.215781 136.811696 
z
" clip-path="url(#p025c3b88c4)" style="fill: #828282"/>
   </g>
   <g id="patch_120">
    <path d="M 111.40169 135.948052 
C 111.029566 135.494618 110.679929 135.023186 110.354041 134.535461 
C 110.028153 134.047735 109.726408 133.544303 109.449895 133.026984 
L 109.449895 133.026984 
C 109.726408 133.544303 110.028153 134.047735 110.354041 134.535461 
C 110.679929 135.023186 111.029566 135.494618 111.40169 135.948052 
z
" clip-path="url(#p025c3b88c4)" style="fill: #828282"/>
   </g>
   <g id="patch_121">
    <path d="M 125.254844 124.579062 
C 125.254844 124.579062 125.254844 124.579062 125.254844 124.579062 
C 125.254844 124.579062 125.254844 124.579062 125.254844 124.579062 
L 125.254844 124.579062 
C 125.254844 124.579062 125.254844 124.579062 125.254844 124.579062 
C 125.254844 124.579062 125.254844 124.579062 125.254844 124.579062 
z
" clip-path="url(#p025c3b88c4)" style="fill: #828282"/>
   </g>
   <g id="patch_122">
    <path d="M 102.53995 131.46955 
C 102.314414 130.726058 102.125517 129.97194 101.973942 129.209922 
C 101.822367 128.447903 101.708297 127.678902 101.632142 126.905696 
L 101.632142 126.905696 
C 101.708297 127.678902 101.822367 128.447903 101.973942 129.209922 
C 102.125517 129.97194 102.314414 130.726058 102.53995 131.46955 
z
" clip-path="url(#p025c3b88c4)" style="fill: #828282"/>
   </g>
   <g id="patch_123">
    <path d="M 116.416038 125.449609 
C 116.387544 125.160302 116.373271 124.86977 116.373271 124.579062 
C 116.373271 124.288355 116.387544 123.997823 116.416038 123.708516 
L 116.416038 123.708516 
C 116.387544 123.997823 116.373271 124.288355 116.373271 124.579062 
C 116.373271 124.86977 116.387544 125.160302 116.416038 125.449609 
z
" clip-path="url(#p025c3b88c4)" style="fill: #828282"/>
   </g>
   <g id="patch_124">
    <path d="M 92.80765 121.383293 
C 92.912252 120.321248 93.068935 119.264978 93.277132 118.2183 
C 93.48533 117.171622 93.74479 116.135797 94.054577 115.114565 
L 94.054577 115.114565 
C 93.74479 116.135797 93.48533 117.171622 93.277132 118.2183 
C 93.068935 119.264978 92.912252 120.321248 92.80765 121.383293 
z
" clip-path="url(#p025c3b88c4)" style="fill: #828282"/>
   </g>
   <g id="patch_125">
    <path d="M 90.244746 113.958866 
C 90.592361 112.812933 90.996029 111.684758 91.454291 110.578415 
C 91.912553 109.472072 92.424857 108.388896 92.989353 107.332798 
L 83.160335 102.079079 
C 82.423877 103.456895 81.755509 104.870039 81.157647 106.313406 
C 80.559785 107.756773 80.033148 109.228623 79.57964 110.723641 
z
" clip-path="url(#p025c3b88c4)" style="fill: #828282"/>
   </g>
   <g id="patch_126">
    <path d="M 104.88657 113.691993 
C 105.24292 113.025309 105.631788 112.376523 106.051768 111.747978 
C 106.471749 111.119432 106.922336 110.511886 107.401902 109.927532 
L 98.933354 102.977574 
C 98.226305 103.839116 97.561982 104.734852 96.942783 105.661548 
C 96.323585 106.588244 95.750257 107.544783 95.224873 108.527709 
z
" clip-path="url(#p025c3b88c4)" style="fill: #828282"/>
   </g>
   <g id="patch_127">
    <path d="M 101.550663 105.125544 
C 102.187406 104.349671 102.861858 103.605528 103.571584 102.895802 
C 104.281309 102.186077 105.025452 101.511625 105.801326 100.874882 
L 96.922267 90.055718 
C 95.792267 90.983086 94.708478 91.965374 93.674817 92.999036 
C 92.641155 94.032697 91.658867 95.116485 90.731499 96.246486 
z
" clip-path="url(#p025c3b88c4)" style="fill: #828282"/>
   </g>
   <g id="patch_128">
    <path d="M 83.369568 73.541706 
C 85.040097 72.170739 86.77693 70.882616 88.573793 69.68199 
C 90.370656 68.481365 92.225384 67.369684 94.131276 66.350963 
L 91.557981 61.536666 
C 89.494509 62.639615 87.486433 63.84321 85.541005 65.143103 
C 83.595577 66.442996 81.715143 67.837621 79.906495 69.32194 
z
" clip-path="url(#p025c3b88c4)" style="fill: #828282"/>
   </g>
   <g id="patch_129">
    <path d="M 91.221128 60.906459 
C 93.305227 59.792484 95.442764 58.781505 97.626016 57.877172 
C 99.809269 56.972839 102.035605 56.176243 104.296985 55.490261 
L 102.891699 50.857654 
C 100.478687 51.589633 98.103068 52.439643 95.773422 53.404614 
C 93.443776 54.369585 91.162912 55.448354 88.939067 56.637023 
z
" clip-path="url(#p025c3b88c4)" style="fill: #828282"/>
   </g>
   <g id="patch_130">
    <path d="M 105.764248 60.327179 
C 107.867308 59.689223 110.000422 59.154905 112.155886 58.726157 
C 114.31135 58.297408 116.486565 57.974746 118.673675 57.759334 
L 118.028119 51.204893 
C 115.626473 51.441434 113.237888 51.795747 110.870991 52.266552 
C 108.504095 52.737357 106.16174 53.324087 103.852388 54.024621 
z
" clip-path="url(#p025c3b88c4)" style="fill: #828282"/>
   </g>
   <g id="patch_131">
    <path d="M 125.254844 124.579062 
C 125.254844 124.579062 125.254844 124.579062 125.254844 124.579062 
C 125.254844 124.579062 125.254844 124.579062 125.254844 124.579062 
L 135.20632 23.540031 
C 131.899161 23.214304 128.578004 23.051146 125.254844 23.051146 
C 121.931683 23.051146 118.610526 23.214304 115.303368 23.540031 
L 125.254844 124.579062 
z
" clip-path="url(#p025c3b88c4)" style="fill: none; stroke: #292929; stroke-width: 0.5; stroke-linejoin: miter"/>
   </g>
   <g id="patch_132">
    <path d="M 125.254844 124.579062 
C 125.254844 124.579062 125.254844 124.579062 125.254844 124.579062 
C 125.254844 124.579062 125.254844 124.579062 125.254844 124.579062 
L 156.033212 23.116379 
C 152.712187 22.108957 149.343702 21.265195 145.939924 20.588142 
C 142.536146 19.911088 139.101178 19.401559 135.647427 19.061394 
L 125.254844 124.579062 
z
" clip-path="url(#p025c3b88c4)" style="fill: none; stroke: #292929; stroke-width: 0.5; stroke-linejoin: miter"/>
   </g>
   <g id="patch_133">
    <path d="M 125.254844 124.579062 
C 125.254844 124.579062 125.254844 124.579062 125.254844 124.579062 
C 125.254844 124.579062 125.254844 124.579062 125.254844 124.579062 
L 177.523315 26.791631 
C 174.322586 25.080806 171.03979 23.528159 167.686784 22.139298 
C 164.333777 20.750437 160.914602 19.527037 157.441609 18.473516 
L 125.254844 124.579062 
z
" clip-path="url(#p025c3b88c4)" style="fill: none; stroke: #292929; stroke-width: 0.5; stroke-linejoin: miter"/>
   </g>
   <g id="patch_134">
    <path d="M 125.254844 124.579062 
C 125.254844 124.579062 125.254844 124.579062 125.254844 124.579062 
C 125.254844 124.579062 125.254844 124.579062 125.254844 124.579062 
L 186.550701 49.889844 
C 184.106011 47.88354 181.564291 45.998471 178.934721 44.241449 
C 176.305151 42.484426 173.590901 40.857567 170.801775 39.366748 
L 125.254844 124.579062 
z
" clip-path="url(#p025c3b88c4)" style="fill: none; stroke: #292929; stroke-width: 0.5; stroke-linejoin: miter"/>
   </g>
   <g id="patch_135">
    <path d="M 125.254844 124.579062 
C 125.254844 124.579062 125.254844 124.579062 125.254844 124.579062 
C 125.254844 124.579062 125.254844 124.579062 125.254844 124.579062 
L 203.806069 60.113738 
C 201.696023 57.542639 199.461014 55.076687 197.109116 52.72479 
C 194.757219 50.372892 192.291267 48.137884 189.720168 46.027837 
L 125.254844 124.579062 
z
" clip-path="url(#p025c3b88c4)" style="fill: none; stroke: #292929; stroke-width: 0.5; stroke-linejoin: miter"/>
   </g>
   <g id="patch_136">
    <path d="M 125.254844 124.579062 
C 125.254844 124.579062 125.254844 124.579062 125.254844 124.579062 
C 125.254844 124.579062 125.254844 124.579062 125.254844 124.579062 
L 206.365544 81.22449 
C 204.946484 78.569616 203.397933 75.986013 201.725483 73.483015 
C 200.053033 70.980017 198.2587 68.56064 196.348967 66.233623 
L 125.254844 124.579062 
z
" clip-path="url(#p025c3b88c4)" style="fill: none; stroke: #292929; stroke-width: 0.5; stroke-linejoin: miter"/>
   </g>
   <g id="patch_137">
    <path d="M 125.254844 124.579062 
C 125.254844 124.579062 125.254844 124.579062 125.254844 124.579062 
C 125.254844 124.579062 125.254844 124.579062 125.254844 124.579062 
L 215.59237 97.175474 
C 214.69541 94.218591 213.653815 91.30753 212.471349 88.452803 
C 211.288882 85.598077 209.966969 82.803127 208.510385 80.078049 
L 125.254844 124.579062 
z
" clip-path="url(#p025c3b88c4)" style="fill: none; stroke: #292929; stroke-width: 0.5; stroke-linejoin: miter"/>
   </g>
   <g id="patch_138">
    <path d="M 125.254844 124.579062 
C 125.254844 124.579062 125.254844 124.579062 125.254844 124.579062 
C 125.254844 124.579062 125.254844 124.579062 125.254844 124.579062 
L 203.289254 116.893344 
C 203.037688 114.339161 202.660872 111.798869 202.160164 109.281643 
C 201.659457 106.764417 201.035463 104.273292 200.290435 101.817265 
L 125.254844 124.579062 
z
" clip-path="url(#p025c3b88c4)" style="fill: none; stroke: #292929; stroke-width: 0.5; stroke-linejoin: miter"/>
   </g>
   <g id="patch_139">
    <path d="M 125.254844 124.579062 
C 125.254844 124.579062 125.254844 124.579062 125.254844 124.579062 
C 125.254844 124.579062 125.254844 124.579062 125.254844 124.579062 
L 162.796032 128.276547 
C 162.917056 127.047768 162.977678 125.813787 162.977678 124.579062 
C 162.977678 123.344338 162.917056 122.110357 162.796032 120.881578 
L 125.254844 124.579062 
z
" clip-path="url(#p025c3b88c4)" style="fill: none; stroke: #292929; stroke-width: 0.5; stroke-linejoin: miter"/>
   </g>
   <g id="patch_140">
    <path d="M 125.254844 124.579062 
C 125.254844 124.579062 125.254844 124.579062 125.254844 124.579062 
C 125.254844 124.579062 125.254844 124.579062 125.254844 124.579062 
L 158.613015 134.698153 
C 158.944228 133.60629 159.221633 132.498824 159.44423 131.379754 
C 159.666827 130.260685 159.834346 129.131361 159.946183 127.995861 
L 125.254844 124.579062 
z
" clip-path="url(#p025c3b88c4)" style="fill: none; stroke: #292929; stroke-width: 0.5; stroke-linejoin: miter"/>
   </g>
   <g id="patch_141">
    <path d="M 125.254844 124.579062 
C 125.254844 124.579062 125.254844 124.579062 125.254844 124.579062 
C 125.254844 124.579062 125.254844 124.579062 125.254844 124.579062 
L 146.48924 135.929084 
C 146.860743 135.23405 147.197898 134.521196 147.499487 133.793095 
C 147.801076 133.064995 148.066736 132.322526 148.295506 131.568371 
L 125.254844 124.579062 
z
" clip-path="url(#p025c3b88c4)" style="fill: none; stroke: #292929; stroke-width: 0.5; stroke-linejoin: miter"/>
   </g>
   <g id="patch_142">
    <path d="M 125.254844 124.579062 
C 125.254844 124.579062 125.254844 124.579062 125.254844 124.579062 
C 125.254844 124.579062 125.254844 124.579062 125.254844 124.579062 
L 143.118258 139.239188 
C 143.598106 138.654492 144.048958 138.046589 144.469185 137.417675 
C 144.889412 136.788761 145.278507 136.139594 145.635066 135.472518 
L 125.254844 124.579062 
z
" clip-path="url(#p025c3b88c4)" style="fill: none; stroke: #292929; stroke-width: 0.5; stroke-linejoin: miter"/>
   </g>
   <g id="patch_143">
    <path d="M 125.254844 124.579062 
C 125.254844 124.579062 125.254844 124.579062 125.254844 124.579062 
C 125.254844 124.579062 125.254844 124.579062 125.254844 124.579062 
L 135.293907 136.811696 
C 135.694299 136.483103 136.078317 136.135049 136.444574 135.768792 
C 136.81083 135.402536 137.158884 135.018518 137.487477 134.618125 
L 125.254844 124.579062 
z
" clip-path="url(#p025c3b88c4)" style="fill: none; stroke: #292929; stroke-width: 0.5; stroke-linejoin: miter"/>
   </g>
   <g id="patch_144">
    <path d="M 125.254844 124.579062 
C 125.254844 124.579062 125.254844 124.579062 125.254844 124.579062 
C 125.254844 124.579062 125.254844 124.579062 125.254844 124.579062 
L 130.045921 133.542537 
C 130.339309 133.385718 130.62482 133.214589 130.901424 133.029768 
C 131.178029 132.844947 131.445392 132.646657 131.702549 132.435614 
L 125.254844 124.579062 
z
" clip-path="url(#p025c3b88c4)" style="fill: none; stroke: #292929; stroke-width: 0.5; stroke-linejoin: miter"/>
   </g>
   <g id="patch_145">
    <path d="M 125.254844 124.579062 
C 125.254844 124.579062 125.254844 124.579062 125.254844 124.579062 
C 125.254844 124.579062 125.254844 124.579062 125.254844 124.579062 
L 128.205174 134.304999 
C 128.523519 134.20843 128.83693 134.09629 129.144276 133.968983 
C 129.451622 133.841676 129.752533 133.699356 130.045921 133.542537 
L 125.254844 124.579062 
z
" clip-path="url(#p025c3b88c4)" style="fill: none; stroke: #292929; stroke-width: 0.5; stroke-linejoin: miter"/>
   </g>
   <g id="patch_146">
    <path d="M 125.254844 124.579062 
C 125.254844 124.579062 125.254844 124.579062 125.254844 124.579062 
C 125.254844 124.579062 125.254844 124.579062 125.254844 124.579062 
L 125.254844 124.579062 
C 125.254844 124.579062 125.254844 124.579062 125.254844 124.579062 
C 125.254844 124.579062 125.254844 124.579062 125.254844 124.579062 
L 125.254844 124.579062 
z
" clip-path="url(#p025c3b88c4)" style="fill: none; stroke: #292929; stroke-width: 0.5; stroke-linejoin: miter"/>
   </g>
   <g id="patch_147">
    <path d="M 125.254844 124.579062 
C 125.254844 124.579062 125.254844 124.579062 125.254844 124.579062 
C 125.254844 124.579062 125.254844 124.579062 125.254844 124.579062 
L 123.348834 143.931103 
C 123.982255 143.99349 124.618358 144.02474 125.254844 144.02474 
C 125.89133 144.02474 126.527432 143.99349 127.160853 143.931103 
L 125.254844 124.579062 
z
" clip-path="url(#p025c3b88c4)" style="fill: none; stroke: #292929; stroke-width: 0.5; stroke-linejoin: miter"/>
   </g>
   <g id="patch_148">
    <path d="M 125.254844 124.579062 
C 125.254844 124.579062 125.254844 124.579062 125.254844 124.579062 
C 125.254844 124.579062 125.254844 124.579062 125.254844 124.579062 
L 120.661185 139.722325 
C 121.156847 139.872683 121.659592 139.998614 122.167604 140.099664 
C 122.675617 140.200714 123.188284 140.276761 123.703755 140.32753 
L 125.254844 124.579062 
z
" clip-path="url(#p025c3b88c4)" style="fill: none; stroke: #292929; stroke-width: 0.5; stroke-linejoin: miter"/>
   </g>
   <g id="patch_149">
    <path d="M 125.254844 124.579062 
C 125.254844 124.579062 125.254844 124.579062 125.254844 124.579062 
C 125.254844 124.579062 125.254844 124.579062 125.254844 124.579062 
L 120.596265 133.294651 
C 120.881539 133.447133 121.174128 133.585517 121.472974 133.709303 
C 121.771821 133.83309 122.076564 133.942129 122.386105 134.036027 
L 125.254844 124.579062 
z
" clip-path="url(#p025c3b88c4)" style="fill: none; stroke: #292929; stroke-width: 0.5; stroke-linejoin: miter"/>
   </g>
   <g id="patch_150">
    <path d="M 125.254844 124.579062 
C 125.254844 124.579062 125.254844 124.579062 125.254844 124.579062 
C 125.254844 124.579062 125.254844 124.579062 125.254844 124.579062 
L 120.235312 130.695379 
C 120.435508 130.859676 120.643651 131.014045 120.858987 131.157928 
C 121.074323 131.301811 121.296593 131.435034 121.524995 131.557118 
L 125.254844 124.579062 
z
" clip-path="url(#p025c3b88c4)" style="fill: none; stroke: #292929; stroke-width: 0.5; stroke-linejoin: miter"/>
   </g>
   <g id="patch_151">
    <path d="M 125.254844 124.579062 
C 125.254844 124.579062 125.254844 124.579062 125.254844 124.579062 
C 125.254844 124.579062 125.254844 124.579062 125.254844 124.579062 
L 113.02221 134.618125 
C 113.350804 135.018518 113.698857 135.402536 114.065114 135.768792 
C 114.43137 136.135049 114.815388 136.483103 115.215781 136.811696 
L 125.254844 124.579062 
z
" clip-path="url(#p025c3b88c4)" style="fill: none; stroke: #292929; stroke-width: 0.5; stroke-linejoin: miter"/>
   </g>
   <g id="patch_152">
    <path d="M 125.254844 124.579062 
C 125.254844 124.579062 125.254844 124.579062 125.254844 124.579062 
C 125.254844 124.579062 125.254844 124.579062 125.254844 124.579062 
L 109.449895 133.026984 
C 109.726408 133.544303 110.028153 134.047735 110.354041 134.535461 
C 110.679929 135.023186 111.029566 135.494618 111.40169 135.948052 
L 125.254844 124.579062 
z
" clip-path="url(#p025c3b88c4)" style="fill: none; stroke: #292929; stroke-width: 0.5; stroke-linejoin: miter"/>
   </g>
   <g id="patch_153">
    <path d="M 125.254844 124.579062 
C 125.254844 124.579062 125.254844 124.579062 125.254844 124.579062 
C 125.254844 124.579062 125.254844 124.579062 125.254844 124.579062 
L 125.254844 124.579062 
C 125.254844 124.579062 125.254844 124.579062 125.254844 124.579062 
C 125.254844 124.579062 125.254844 124.579062 125.254844 124.579062 
L 125.254844 124.579062 
z
" clip-path="url(#p025c3b88c4)" style="fill: none; stroke: #292929; stroke-width: 0.5; stroke-linejoin: miter"/>
   </g>
   <g id="patch_154">
    <path d="M 125.254844 124.579062 
C 125.254844 124.579062 125.254844 124.579062 125.254844 124.579062 
C 125.254844 124.579062 125.254844 124.579062 125.254844 124.579062 
L 101.632142 126.905696 
C 101.708297 127.678902 101.822367 128.447903 101.973942 129.209922 
C 102.125517 129.97194 102.314414 130.726058 102.53995 131.46955 
L 125.254844 124.579062 
z
" clip-path="url(#p025c3b88c4)" style="fill: none; stroke: #292929; stroke-width: 0.5; stroke-linejoin: miter"/>
   </g>
   <g id="patch_155">
    <path d="M 125.254844 124.579062 
C 125.254844 124.579062 125.254844 124.579062 125.254844 124.579062 
C 125.254844 124.579062 125.254844 124.579062 125.254844 124.579062 
L 116.416038 123.708516 
C 116.387544 123.997823 116.373271 124.288355 116.373271 124.579062 
C 116.373271 124.86977 116.387544 125.160302 116.416038 125.449609 
L 125.254844 124.579062 
z
" clip-path="url(#p025c3b88c4)" style="fill: none; stroke: #292929; stroke-width: 0.5; stroke-linejoin: miter"/>
   </g>
   <g id="patch_156">
    <path d="M 125.254844 124.579062 
C 125.254844 124.579062 125.254844 124.579062 125.254844 124.579062 
C 125.254844 124.579062 125.254844 124.579062 125.254844 124.579062 
L 94.054577 115.114565 
C 93.74479 116.135797 93.48533 117.171622 93.277132 118.2183 
C 93.068935 119.264978 92.912252 120.321248 92.80765 121.383293 
L 125.254844 124.579062 
z
" clip-path="url(#p025c3b88c4)" style="fill: none; stroke: #292929; stroke-width: 0.5; stroke-linejoin: miter"/>
   </g>
   <g id="patch_157">
    <path d="M 125.254844 124.579062 
C 125.254844 124.579062 125.254844 124.579062 125.254844 124.579062 
C 125.254844 124.579062 125.254844 124.579062 125.254844 124.579062 
L 83.160335 102.079079 
C 82.423877 103.456895 81.755509 104.870039 81.157647 106.313406 
C 80.559785 107.756773 80.033148 109.228623 79.57964 110.723641 
L 125.254844 124.579062 
z
" clip-path="url(#p025c3b88c4)" style="fill: none; stroke: #292929; stroke-width: 0.5; stroke-linejoin: miter"/>
   </g>
   <g id="patch_158">
    <path d="M 125.254844 124.579062 
C 125.254844 124.579062 125.254844 124.579062 125.254844 124.579062 
C 125.254844 124.579062 125.254844 124.579062 125.254844 124.579062 
L 98.933354 102.977574 
C 98.226305 103.839116 97.561982 104.734852 96.942783 105.661548 
C 96.323585 106.588244 95.750257 107.544783 95.224873 108.527709 
L 125.254844 124.579062 
z
" clip-path="url(#p025c3b88c4)" style="fill: none; stroke: #292929; stroke-width: 0.5; stroke-linejoin: miter"/>
   </g>
   <g id="patch_159">
    <path d="M 125.254844 124.579062 
C 125.254844 124.579062 125.254844 124.579062 125.254844 124.579062 
C 125.254844 124.579062 125.254844 124.579062 125.254844 124.579062 
L 96.922267 90.055718 
C 95.792267 90.983086 94.708478 91.965374 93.674817 92.999036 
C 92.641155 94.032697 91.658867 95.116485 90.731499 96.246486 
L 125.254844 124.579062 
z
" clip-path="url(#p025c3b88c4)" style="fill: none; stroke: #292929; stroke-width: 0.5; stroke-linejoin: miter"/>
   </g>
   <g id="patch_160">
    <path d="M 125.254844 124.579062 
C 125.254844 124.579062 125.254844 124.579062 125.254844 124.579062 
C 125.254844 124.579062 125.254844 124.579062 125.254844 124.579062 
L 91.557981 61.536666 
C 89.494509 62.639615 87.486433 63.84321 85.541005 65.143103 
C 83.595577 66.442996 81.715143 67.837621 79.906495 69.32194 
L 125.254844 124.579062 
z
" clip-path="url(#p025c3b88c4)" style="fill: none; stroke: #292929; stroke-width: 0.5; stroke-linejoin: miter"/>
   </g>
   <g id="patch_161">
    <path d="M 125.254844 124.579062 
C 125.254844 124.579062 125.254844 124.579062 125.254844 124.579062 
C 125.254844 124.579062 125.254844 124.579062 125.254844 124.579062 
L 102.891699 50.857654 
C 100.478687 51.589633 98.103068 52.439643 95.773422 53.404614 
C 93.443776 54.369585 91.162912 55.448354 88.939067 56.637023 
L 125.254844 124.579062 
z
" clip-path="url(#p025c3b88c4)" style="fill: none; stroke: #292929; stroke-width: 0.5; stroke-linejoin: miter"/>
   </g>
   <g id="patch_162">
    <path d="M 125.254844 124.579062 
C 125.254844 124.579062 125.254844 124.579062 125.254844 124.579062 
C 125.254844 124.579062 125.254844 124.579062 125.254844 124.579062 
L 118.028119 51.204893 
C 115.626473 51.441434 113.237888 51.795747 110.870991 52.266552 
C 108.504095 52.737357 106.16174 53.324087 103.852388 54.024621 
L 125.254844 124.579062 
z
" clip-path="url(#p025c3b88c4)" style="fill: none; stroke: #292929; stroke-width: 0.5; stroke-linejoin: miter"/>
   </g>
   <g id="PathCollection_1">
    <defs>
     <path id="mc31b357654" d="M 0.193618 7.414054 
L 0.193618 7.414054 
C 0.054922 7.414054 -0.078235 7.358899 -0.176308 7.260826 
C -0.274381 7.162753 -0.329536 7.029596 -0.329536 6.890901 
L -0.329536 5.365008 
L -1.528416 6.56393 
L -1.528416 6.56393 
C -1.577018 6.612704 -1.634775 6.651408 -1.698366 6.677814 
C -1.761958 6.704221 -1.830141 6.717815 -1.898997 6.717815 
C -1.967853 6.717815 -2.036037 6.704221 -2.099628 6.677814 
C -2.163219 6.651408 -2.220976 6.612704 -2.269578 6.56393 
L -2.269578 6.56393 
C -2.318353 6.515327 -2.357056 6.457571 -2.383463 6.393979 
C -2.409869 6.330388 -2.423463 6.262205 -2.423463 6.193348 
C -2.423463 6.124492 -2.409869 6.056309 -2.383463 5.992718 
C -2.357056 5.929126 -2.318353 5.87137 -2.269578 5.822767 
L -0.329536 3.884106 
L -0.329536 0.820937 
L -2.98067 2.351538 
L -3.691824 5.001416 
L -3.691824 5.001416 
C -3.727584 5.135411 -3.815199 5.249836 -3.93523 5.319305 
C -4.055261 5.388775 -4.198123 5.407741 -4.332122 5.371997 
L -4.332122 5.371997 
C -4.466126 5.336237 -4.580558 5.248616 -4.650029 5.128576 
C -4.719499 5.008535 -4.73846 4.865662 -4.702703 4.731657 
L -4.262647 3.092721 
L -5.585535 3.855668 
L -5.585535 3.855668 
C -5.645013 3.890144 -5.710708 3.912561 -5.778854 3.921634 
C -5.847001 3.930706 -5.916272 3.926258 -5.982698 3.908543 
C -6.049125 3.890828 -6.111412 3.860192 -6.165991 3.818391 
C -6.220571 3.77659 -6.266379 3.724437 -6.300791 3.664922 
L -6.300791 3.664922 
C -6.335212 3.605364 -6.35755 3.539597 -6.366524 3.471396 
C -6.375498 3.403194 -6.370933 3.333888 -6.35309 3.267452 
C -6.335248 3.201017 -6.304476 3.138749 -6.26254 3.08422 
C -6.220605 3.029692 -6.168323 2.983966 -6.108695 2.949666 
L -4.785807 2.186762 
L -6.424743 1.746706 
L -6.424743 1.746706 
C -6.558747 1.710946 -6.673179 1.623325 -6.74265 1.503284 
C -6.81212 1.383244 -6.831081 1.240371 -6.795324 1.106366 
L -6.795324 1.106366 
C -6.777471 1.039969 -6.746703 0.977739 -6.704784 0.923241 
C -6.662864 0.868744 -6.61061 0.823041 -6.551015 0.788752 
C -6.491421 0.754464 -6.425647 0.732257 -6.357465 0.723406 
C -6.289282 0.714554 -6.220019 0.71923 -6.153645 0.737166 
L -3.505232 1.44698 
L -0.852424 -0.08496 
L -3.503767 -1.615666 
L -6.153645 -0.905851 
L -6.153645 -0.905851 
C -6.22011 -0.887939 -6.289462 -0.883321 -6.357716 -0.892262 
C -6.42597 -0.901202 -6.491793 -0.923527 -6.551403 -0.957953 
C -6.611013 -0.992379 -6.663247 -1.038234 -6.705103 -1.092883 
C -6.746958 -1.147533 -6.777619 -1.209911 -6.795324 -1.276432 
L -6.795324 -1.276432 
C -6.831068 -1.410431 -6.812101 -1.553293 -6.742632 -1.673324 
C -6.673162 -1.793355 -6.558738 -1.88097 -6.424743 -1.91673 
L -4.785807 -2.355447 
L -6.108695 -3.119732 
L -6.108695 -3.119732 
C -6.228699 -3.188976 -6.316415 -3.303132 -6.352417 -3.436921 
C -6.388419 -3.57071 -6.369839 -3.713469 -6.300791 -3.833586 
L -6.300791 -3.833586 
C -6.266491 -3.893214 -6.220765 -3.945496 -6.166237 -3.987431 
C -6.111708 -4.029367 -6.04944 -4.060139 -5.983005 -4.077981 
C -5.91657 -4.095823 -5.847263 -4.100389 -5.779062 -4.091415 
C -5.71086 -4.082441 -5.645094 -4.060102 -5.585535 -4.025682 
L -4.262647 -3.261396 
L -4.702703 -4.900332 
L -4.702703 -4.900332 
C -4.73846 -5.034337 -4.719499 -5.17721 -4.650029 -5.29725 
C -4.580558 -5.417291 -4.466126 -5.504912 -4.332122 -5.540672 
L -4.332122 -5.540672 
C -4.19831 -5.576464 -4.055613 -5.557686 -3.935617 -5.488496 
C -3.81562 -5.419305 -3.727882 -5.305212 -3.691824 -5.171472 
L -2.982009 -2.521594 
L -0.329411 -0.990302 
L -0.329411 -4.051588 
L -2.269453 -5.991589 
L -2.269453 -5.991589 
C -2.318227 -6.040191 -2.356931 -6.097947 -2.383337 -6.161539 
C -2.409744 -6.22513 -2.423338 -6.293314 -2.423338 -6.36217 
C -2.423338 -6.431026 -2.409744 -6.499209 -2.383337 -6.5628 
C -2.356931 -6.626392 -2.318227 -6.684149 -2.269453 -6.732751 
L -2.269453 -6.732751 
C -2.22085 -6.781526 -2.163094 -6.820229 -2.099502 -6.846635 
C -2.035911 -6.873042 -1.967728 -6.886636 -1.898871 -6.886636 
C -1.830015 -6.886636 -1.761832 -6.873042 -1.698241 -6.846635 
C -1.634649 -6.820229 -1.576893 -6.781526 -1.52829 -6.732751 
L -0.329411 -5.533829 
L -0.329411 -7.059722 
L -0.329411 -7.059722 
C -0.329411 -7.198418 -0.274255 -7.331575 -0.176182 -7.429647 
C -0.07811 -7.52772 0.055047 -7.582875 0.193743 -7.582875 
L 0.193743 -7.582875 
C 0.332439 -7.582875 0.465596 -7.52772 0.563669 -7.429647 
C 0.661741 -7.331575 0.716897 -7.198418 0.716897 -7.059722 
L 0.716897 -5.533829 
L 1.915777 -6.732751 
L 1.915777 -6.732751 
C 1.964379 -6.781526 2.022136 -6.820229 2.085727 -6.846635 
C 2.149318 -6.873042 2.217502 -6.886636 2.286358 -6.886636 
C 2.355214 -6.886636 2.423397 -6.873042 2.486989 -6.846635 
C 2.55058 -6.820229 2.608337 -6.781526 2.656939 -6.732751 
L 2.656939 -6.732751 
C 2.705714 -6.684149 2.744417 -6.626392 2.770823 -6.5628 
C 2.79723 -6.499209 2.810824 -6.431026 2.810824 -6.36217 
C 2.810824 -6.293314 2.79723 -6.22513 2.770823 -6.161539 
C 2.744417 -6.097947 2.705714 -6.040191 2.656939 -5.991589 
L 0.716897 -4.051588 
L 0.716897 -0.991139 
L 3.369495 -2.522954 
L 4.07931 -5.171367 
L 4.07931 -5.171367 
C 4.115368 -5.305107 4.203106 -5.4192 4.323103 -5.488391 
C 4.4431 -5.557582 4.585797 -5.576359 4.719608 -5.540567 
L 4.719608 -5.540567 
C 4.853612 -5.504807 4.968045 -5.417186 5.037515 -5.297146 
C 5.106986 -5.177105 5.125946 -5.034232 5.090189 -4.900227 
L 4.650133 -3.262673 
L 5.973022 -4.025577 
L 5.973022 -4.025577 
C 6.03258 -4.059998 6.098346 -4.082336 6.166548 -4.09131 
C 6.234749 -4.100284 6.304056 -4.095719 6.370491 -4.077876 
C 6.436926 -4.060034 6.499194 -4.029262 6.553723 -3.987327 
C 6.608252 -3.945391 6.653978 -3.893109 6.688277 -3.833481 
L 6.688277 -3.833481 
C 6.757325 -3.713365 6.775905 -3.570605 6.739903 -3.436816 
C 6.703901 -3.303027 6.616186 -3.188871 6.496181 -3.119628 
L 5.173293 -2.355342 
L 6.812229 -1.916625 
L 6.812229 -1.916625 
C 6.946224 -1.880865 7.060649 -1.79325 7.130118 -1.67322 
C 7.199588 -1.553189 7.218554 -1.410326 7.18281 -1.276327 
L 7.18281 -1.276327 
C 7.165106 -1.209806 7.134445 -1.147429 7.092589 -1.092779 
C 7.050733 -1.038129 6.998499 -0.992274 6.938889 -0.957848 
C 6.879279 -0.923422 6.813456 -0.901098 6.745202 -0.892157 
C 6.676949 -0.883217 6.607597 -0.887835 6.541131 -0.905746 
L 3.891253 -1.615561 
L 1.239492 -0.084604 
L 3.892718 1.447085 
L 6.541131 0.73727 
L 6.541131 0.73727 
C 6.674948 0.701466 6.817656 0.720237 6.937662 0.789429 
C 7.057669 0.858621 7.145413 0.972721 7.181471 1.10647 
L 7.181471 1.10647 
C 7.217274 1.240293 7.198497 1.383006 7.129297 1.503014 
C 7.060096 1.623021 6.945986 1.710762 6.812229 1.74681 
L 5.173293 2.186866 
L 6.496181 2.949771 
L 6.496181 2.949771 
C 6.555697 2.984183 6.607849 3.029991 6.649651 3.08457 
C 6.691452 3.13915 6.722088 3.201437 6.739803 3.267863 
C 6.757517 3.33429 6.761966 3.403561 6.752893 3.471707 
C 6.743821 3.539854 6.721404 3.605549 6.686927 3.665026 
L 6.686927 3.665026 
C 6.617458 3.784813 6.503196 3.87225 6.369416 3.907994 
C 6.235636 3.943739 6.092989 3.924946 5.973032 3.855772 
L 4.650144 3.091487 
L 5.08886 4.731783 
L 5.08886 4.731783 
C 5.124664 4.865606 5.105887 5.008319 5.036686 5.128326 
C 4.967486 5.248334 4.853376 5.336074 4.719619 5.372123 
L 4.719619 5.372123 
C 4.585619 5.407867 4.442757 5.3889 4.322726 5.319431 
C 4.202695 5.249961 4.115081 5.135537 4.07932 5.001542 
L 3.368166 2.351664 
L 0.717033 0.821063 
L 0.717033 3.884232 
L 2.657075 5.822893 
L 2.657075 5.822893 
C 2.70585 5.871495 2.744553 5.929252 2.770959 5.992843 
C 2.797366 6.056435 2.81096 6.124618 2.81096 6.193474 
C 2.81096 6.26233 2.797366 6.330514 2.770959 6.394105 
C 2.744553 6.457696 2.70585 6.515453 2.657075 6.564055 
L 2.657075 6.564055 
C 2.608473 6.61283 2.550716 6.651533 2.487125 6.67794 
C 2.423533 6.704346 2.35535 6.71794 2.286494 6.71794 
C 2.217638 6.71794 2.149454 6.704346 2.085863 6.67794 
C 2.022272 6.651533 1.964515 6.61283 1.915913 6.564055 
L 0.717033 5.365133 
L 0.717033 6.891026 
L 0.717033 6.891026 
C 0.717033 7.029722 0.661877 7.162879 0.563805 7.260952 
C 0.465732 7.359024 0.332575 7.41418 0.193879 7.41418 
L 0.193618 7.414054 
z
"/>
    </defs>
    <g clip-path="url(#p025c3b88c4)">
     <use xlink:href="#mc31b357654" x="157.849239" y="48.327475" style="fill: #9e2096; fill-opacity: 0.7"/>
    </g>
   </g>
   <g id="patch_163">
    <path d="M 125.254844 13.699062 
C 110.694216 13.699062 96.275171 16.567189 82.822905 22.1393 
C 69.370638 27.711411 57.146763 35.879144 46.850844 46.175063 
C 36.554925 56.470982 28.387192 68.694857 22.815081 82.147124 
C 17.24297 95.59939 14.374844 110.018434 14.374844 124.579062 
C 14.374844 139.139691 17.24297 153.558735 22.815081 167.011001 
C 28.387192 180.463268 36.554925 192.687143 46.850844 202.983062 
C 57.146763 213.278981 69.370638 221.446714 82.822905 227.018825 
C 96.275171 232.590936 110.694216 235.459062 125.254844 235.459062 
C 139.815472 235.459062 154.234516 232.590936 167.686783 227.018825 
C 181.139049 221.446714 193.362925 213.278981 203.658844 202.983062 
C 213.954763 192.687143 222.122495 180.463268 227.694606 167.011001 
C 233.266717 153.558735 236.134844 139.139691 236.134844 124.579062 
C 236.134844 110.018434 233.266717 95.59939 227.694606 82.147124 
C 222.122495 68.694857 213.954763 56.470982 203.658844 46.175063 
C 193.362925 35.879144 181.139049 27.711411 167.686783 22.1393 
C 154.234516 16.567189 139.815472 13.699062 125.254844 13.699062 
" style="fill: none; stroke: #000000; stroke-width: 0.8; stroke-linejoin: miter; stroke-linecap: square"/>
   </g>
  </g>
 </g>
 <defs>
  <clipPath id="p025c3b88c4">
   <path d="M 236.134844 124.579062 
C 236.134844 110.018434 233.266717 95.59939 227.694606 82.147124 
C 222.122495 68.694857 213.954763 56.470982 203.658844 46.175063 
C 193.362925 35.879144 181.139049 27.711411 167.686783 22.1393 
C 154.234516 16.567189 139.815472 13.699062 125.254844 13.699062 
C 110.694216 13.699062 96.275171 16.567189 82.822905 22.1393 
C 69.370638 27.711411 57.146763 35.879144 46.850844 46.175063 
C 36.554925 56.470982 28.387192 68.694857 22.815081 82.147124 
C 17.24297 95.59939 14.374844 110.018434 14.374844 124.579062 
C 14.374844 139.139691 17.24297 153.558735 22.815081 167.011001 
C 28.387192 180.463268 36.554925 192.687143 46.850844 202.983062 
C 57.146763 213.278981 69.370638 221.446714 82.822905 227.018825 
C 96.275171 232.590936 110.694216 235.459062 125.254844 235.459062 
C 139.815472 235.459062 154.234516 232.590936 167.686783 227.018825 
C 181.139049 221.446714 193.362925 213.278981 203.658844 202.983062 
C 213.954763 192.687143 222.122495 180.463268 227.694606 167.011001 
C 233.266717 153.558735 236.134844 139.139691 236.134844 124.579062 
M 125.254844 124.579062 
C 125.254844 124.579062 125.254844 124.579062 125.254844 124.579062 
C 125.254844 124.579062 125.254844 124.579062 125.254844 124.579062 
C 125.254844 124.579062 125.254844 124.579062 125.254844 124.579062 
C 125.254844 124.579062 125.254844 124.579062 125.254844 124.579062 
C 125.254844 124.579062 125.254844 124.579062 125.254844 124.579062 
C 125.254844 124.579062 125.254844 124.579062 125.254844 124.579062 
C 125.254844 124.579062 125.254844 124.579062 125.254844 124.579062 
C 125.254844 124.579062 125.254844 124.579062 125.254844 124.579062 
C 125.254844 124.579062 125.254844 124.579062 125.254844 124.579062 
C 125.254844 124.579062 125.254844 124.579062 125.254844 124.579062 
C 125.254844 124.579062 125.254844 124.579062 125.254844 124.579062 
C 125.254844 124.579062 125.254844 124.579062 125.254844 124.579062 
C 125.254844 124.579062 125.254844 124.579062 125.254844 124.579062 
C 125.254844 124.579062 125.254844 124.579062 125.254844 124.579062 
C 125.254844 124.579062 125.254844 124.579062 125.254844 124.579062 
C 125.254844 124.579062 125.254844 124.579062 125.254844 124.579062 
z
"/>
  </clipPath>
 </defs>
</svg>
