<?xml version="1.0" encoding="utf-8" standalone="no"?>
<!DOCTYPE svg PUBLIC "-//W3C//DTD SVG 1.1//EN"
  "http://www.w3.org/Graphics/SVG/1.1/DTD/svg11.dtd">
<svg xmlns:xlink="http://www.w3.org/1999/xlink" width="248.410469pt" height="249.158125pt" viewBox="0 0 248.410469 249.158125" xmlns="http://www.w3.org/2000/svg" version="1.1">
 <title>Ski Rose for Peyragudes</title>
 <metadata>
  <rdf:RDF xmlns:dc="http://purl.org/dc/elements/1.1/" xmlns:cc="http://creativecommons.org/ns#" xmlns:rdf="http://www.w3.org/1999/02/22-rdf-syntax-ns#">
   <cc:Work>
    <dc:type rdf:resource="http://purl.org/dc/dcmitype/StillImage"/>
    <dc:title>Ski Rose for Peyragudes</dc:title>
    <dc:date>2025-11-22T10:11:31.631274</dc:date>
    <dc:description>A 32-bin stacked histogram of downhill ski run orientations colored by difficulty.</dc:description>
    <dc:format>image/svg+xml</dc:format>
    <dc:source>https://openskimap.org/?obj=851128bb56a54648e73d41ecdaca409350648f33</dc:source>
    <dc:creator>
     <cc:Agent>
      <dc:title>https://github.com/dhimmel/openskistats</dc:title>
     </cc:Agent>
    </dc:creator>
    <dc:rights>
     <cc:Agent>
      <dc:title>https://creativecommons.org/licenses/by/4.0/</dc:title>
     </cc:Agent>
    </dc:rights>
   </cc:Work>
  </rdf:RDF>
 </metadata>
 <defs>
  <style type="text/css">*{stroke-linejoin: round; stroke-linecap: butt}</style>
 </defs>
 <g id="figure_1">
  <g id="patch_1">
   <path d="M 0 249.158125 
L 248.410469 249.158125 
L 248.410469 0 
L 0 0 
z
" style="fill: #ffffff"/>
  </g>
  <g id="axes_1">
   <g id="patch_2">
    <path d="M 236.134844 124.579063 
C 236.134844 110.018434 233.266717 95.59939 227.694606 82.147124 
C 222.122495 68.694857 213.954763 56.470982 203.658844 46.175063 
C 193.362925 35.879144 181.139049 27.711411 167.686783 22.1393 
C 154.234516 16.567189 139.815472 13.699062 125.254844 13.699062 
C 110.694216 13.699062 96.275171 16.567189 82.822905 22.1393 
C 69.370638 27.711411 57.146763 35.879144 46.850844 46.175063 
C 36.554925 56.470982 28.387192 68.694857 22.815081 82.147124 
C 17.24297 95.59939 14.374844 110.018434 14.374844 124.579062 
C 14.374844 139.139691 17.24297 153.558735 22.815081 167.011001 
C 28.387192 180.463268 36.554925 192.687143 46.850844 202.983062 
C 57.146763 213.278981 69.370638 221.446714 82.822905 227.018825 
C 96.275171 232.590936 110.694216 235.459063 125.254844 235.459063 
C 139.815472 235.459063 154.234516 232.590936 167.686783 227.018825 
C 181.139049 221.446714 193.362925 213.278981 203.658844 202.983062 
C 213.954763 192.687143 222.122495 180.463268 227.694606 167.011001 
C 233.266717 153.558735 236.134844 139.139691 236.134844 124.579063 
M 125.254844 124.579063 
C 125.254844 124.579063 125.254844 124.579063 125.254844 124.579063 
C 125.254844 124.579063 125.254844 124.579063 125.254844 124.579063 
C 125.254844 124.579063 125.254844 124.579063 125.254844 124.579063 
C 125.254844 124.579063 125.254844 124.579063 125.254844 124.579063 
C 125.254844 124.579063 125.254844 124.579063 125.254844 124.579063 
C 125.254844 124.579063 125.254844 124.579063 125.254844 124.579063 
C 125.254844 124.579063 125.254844 124.579063 125.254844 124.579063 
C 125.254844 124.579063 125.254844 124.579063 125.254844 124.579063 
C 125.254844 124.579063 125.254844 124.579063 125.254844 124.579063 
C 125.254844 124.579063 125.254844 124.579063 125.254844 124.579063 
C 125.254844 124.579063 125.254844 124.579063 125.254844 124.579063 
C 125.254844 124.579063 125.254844 124.579063 125.254844 124.579063 
C 125.254844 124.579063 125.254844 124.579063 125.254844 124.579063 
C 125.254844 124.579063 125.254844 124.579063 125.254844 124.579063 
C 125.254844 124.579063 125.254844 124.579063 125.254844 124.579063 
C 125.254844 124.579063 125.254844 124.579063 125.254844 124.579063 
z
" style="fill: #ffffff"/>
   </g>
   <g id="FillBetweenPolyCollection_1">
    <defs>
     <path id="m6e444c3981" d="M 235.412751 -137.129971 
L 235.219718 -137.107977 
L 234.225502 -135.071743 
L 233.138904 -133.069722 
L 231.980579 -131.106688 
L 230.765684 -129.185765 
L 229.725289 -127.314717 
L 228.42308 -125.479398 
L 227.08335 -123.690419 
L 225.709478 -121.948565 
L 224.30424 -120.254472 
L 222.870053 -118.608661 
L 221.409117 -117.011557 
L 220.146553 -115.44203 
L 218.637496 -113.939453 
L 217.107477 -112.486434 
L 215.778838 -111.050161 
L 214.211307 -109.692856 
L 212.628234 -108.385362 
L 211.247921 -107.083573 
L 209.852511 -105.824211 
L 208.230076 -104.658472 
L 206.810387 -103.487365 
L 205.379858 -102.358429 
L 203.732462 -101.332933 
L 202.286517 -100.291069 
L 200.833943 -99.29065 
L 199.376087 -98.331354 
L 197.914291 -97.412808 
L 196.449888 -96.534589 
L 194.984199 -95.696218 
L 193.708125 -94.814729 
L 192.240749 -94.051827 
L 190.775865 -93.327139 
L 189.495195 -92.550005 
L 188.035702 -91.897416 
L 186.756281 -91.186507 
L 185.477389 -90.506786 
L 184.032505 -89.956374 
L 182.760724 -89.339414 
L 181.492185 -88.751925 
L 180.227727 -88.193305 
L 178.96817 -87.662916 
L 177.714311 -87.160088 
L 176.466924 -86.684117 
L 175.22676 -86.234262 
L 173.994546 -85.809753 
L 172.770978 -85.409784 
L 171.686788 -84.922436 
L 170.47839 -84.568648 
L 169.280504 -84.236977 
L 168.211878 -83.814359 
L 167.032483 -83.524291 
L 165.975437 -83.141486 
L 164.922966 -82.777584 
L 163.772631 -82.544273 
L 162.734146 -82.216418 
L 161.701301 -81.905743 
L 160.583402 -81.722095 
L 159.566468 -81.443439 
L 158.55601 -81.180137 
L 157.552257 -80.931613 
L 156.555413 -80.697282 
L 155.565656 -80.476557 
L 154.583138 -80.268844 
L 153.607985 -80.073546 
L 152.640297 -79.890064 
L 151.680147 -79.7178 
L 150.72758 -79.556154 
L 149.782613 -79.40453 
L 148.845239 -79.262335 
L 147.959971 -79.039623 
L 147.034425 -78.91722 
L 146.116357 -78.802649 
L 145.205654 -78.695341 
L 144.334879 -78.515782 
L 143.435577 -78.424582 
L 142.543238 -78.339151 
L 141.682501 -78.188788 
L 140.800847 -78.116956 
L 139.925555 -78.049511 
L 139.074239 -77.925567 
L 138.208569 -77.86944 
L 137.362412 -77.762569 
L 136.50556 -77.716456 
L 135.653711 -77.672805 
L 134.815186 -77.588478 
L 133.970599 -77.553053 
L 133.135911 -77.483662 
L 132.297505 -77.455518 
L 131.466029 -77.400427 
L 130.632637 -77.378776 
L 129.803692 -77.337472 
L 128.974079 -77.321695 
L 128.146935 -77.293787 
L 127.319815 -77.283443 
L 126.49371 -77.268674 
L 125.66776 -77.263501 
L 124.841926 -77.263416 
L 124.016089 -77.272912 
L 123.189832 -77.282512 
L 122.363442 -77.305062 
L 121.535469 -77.319926 
L 120.707752 -77.355713 
L 119.876755 -77.376185 
L 119.046963 -77.425525 
L 118.211676 -77.452127 
L 117.379099 -77.515465 
L 116.538317 -77.548892 
L 115.702297 -77.626797 
L 114.854891 -77.667908 
L 114.014837 -77.761067 
L 113.159768 -77.810876 
L 112.299457 -77.863448 
L 111.451498 -77.979747 
L 110.582048 -78.0429 
L 109.728831 -78.176702 
L 108.849497 -78.251793 
L 107.963645 -78.331651 
L 107.100912 -78.492621 
L 106.204212 -78.586768 
L 105.30045 -78.6871 
L 104.389461 -78.79416 
L 103.512488 -78.995265 
L 102.589867 -79.120152 
L 101.659754 -79.253317 
L 100.722087 -79.395345 
L 99.776828 -79.546823 
L 98.88151 -79.806026 
L 97.924591 -79.980144 
L 96.960185 -80.165345 
L 95.988359 -80.362227 
L 95.009208 -80.57139 
L 94.022854 -80.793428 
L 93.029445 -81.028936 
L 92.029156 -81.278503 
L 90.935508 -81.433745 
L 89.918344 -81.71246 
L 88.894968 -82.007117 
L 87.865657 -82.318275 
L 86.728486 -82.534921 
L 85.68451 -82.880631 
L 84.635585 -83.244605 
L 83.468154 -83.515397 
L 82.406801 -83.917788 
L 81.219912 -84.228482 
L 80.147898 -84.671808 
L 78.943559 -85.025489 
L 77.729295 -85.402023 
L 76.643286 -85.911684 
L 75.415048 -86.335642 
L 74.178826 -86.784798 
L 72.935343 -87.259925 
L 71.685348 -87.761768 
L 70.429612 -88.291033 
L 69.168932 -88.848396 
L 67.904124 -89.434496 
L 66.636026 -90.04994 
L 65.195276 -90.598994 
L 63.919962 -91.276939 
L 62.644066 -91.985955 
L 61.188528 -92.636776 
L 59.91127 -93.411777 
L 58.450214 -94.134439 
L 56.986599 -94.895185 
L 55.713759 -95.774202 
L 54.251701 -96.610181 
L 52.790861 -97.485889 
L 51.33256 -98.401809 
L 49.878131 -99.358367 
L 48.428916 -100.35594 
L 46.986261 -101.394852 
L 45.551523 -102.475375 
L 43.915137 -103.543184 
L 42.498528 -104.711029 
L 41.094061 -105.921066 
L 39.487054 -107.129408 
L 38.109606 -108.427647 
L 36.529741 -109.731572 
L 35.185384 -111.118092 
L 33.639336 -112.517652 
L 32.112278 -113.966808 
L 30.828743 -115.486863 
L 29.345893 -117.030864 
L 27.887609 -118.623827 
L 26.455936 -120.265409 
L 25.053037 -121.955186 
L 23.904632 -123.694593 
L 22.566025 -125.475214 
L 21.26401 -127.302158 
L 20.002558 -129.174477 
L 18.787199 -131.090903 
L 17.626364 -133.049608 
L 16.533729 -135.047715 
L 15.529475 -137.080689 
L 15.142107 -137.124824 
L 15.142107 -137.124824 
L 14.910976 -135.203968 
L 14.847226 -133.26833 
L 14.651892 -131.343829 
L 14.488973 -129.415205 
L 14.552902 -127.477895 
L 14.454307 -125.546004 
L 14.387701 -123.61154 
L 14.582074 -121.680994 
L 14.579268 -119.746863 
L 14.607821 -117.811601 
L 14.860824 -115.890865 
L 14.950305 -113.957943 
L 15.111868 -112.029856 
L 15.45541 -110.123693 
L 15.636857 -108.196545 
L 16.038196 -106.302464 
L 16.27934 -104.381647 
L 16.7382 -102.501102 
L 17.039574 -100.588315 
L 17.556119 -98.722886 
L 17.918455 -96.819985 
L 18.492945 -94.971368 
L 18.971607 -93.096534 
L 19.549721 -91.250365 
L 20.154397 -89.412945 
L 20.84377 -87.605162 
L 21.448198 -85.767348 
L 22.141067 -83.961466 
L 22.8647 -82.167676 
L 23.675314 -80.411026 
L 24.408297 -78.620643 
L 25.182861 -76.847175 
L 26.049523 -75.117114 
L 26.921531 -73.38998 
L 27.8826 -71.710248 
L 28.767284 -69.989028 
L 29.732577 -68.312147 
L 30.714926 -66.644927 
L 31.744246 -65.006241 
L 33.41438 -63.791186 
L 35.259632 -62.727067 
L 37.201277 -61.771064 
L 39.155685 -60.869037 
L 41.046903 -59.964037 
L 42.936269 -59.099911 
L 44.827806 -58.280129 
L 46.711942 -57.497087 
L 48.594105 -56.75537 
L 50.4655 -56.047256 
L 52.332166 -55.378025 
L 54.130073 -54.684944 
L 55.975082 -54.079465 
L 57.757008 -53.451185 
L 59.584255 -52.912191 
L 61.347198 -52.344609 
L 63.100659 -51.805862 
L 64.844085 -51.294952 
L 66.576977 -50.810874 
L 68.255017 -50.295442 
L 69.96747 -49.862465 
L 71.668179 -49.453329 
L 73.322011 -49.016322 
L 75.00022 -48.652608 
L 76.631395 -48.255537 
L 78.256726 -47.885105 
L 79.869559 -47.530139 
L 81.476107 -47.200407 
L 83.070028 -46.884297 
L 84.657362 -46.592026 
L 86.232103 -46.311553 
L 87.800094 -46.053546 
L 89.355687 -45.805553 
L 90.904502 -45.578685 
L 92.42576 -45.322643 
L 93.954747 -45.119138 
L 95.461816 -44.893989 
L 96.976569 -44.723679 
L 98.469853 -44.527164 
L 99.966503 -44.374692 
L 101.446818 -44.204513 
L 102.921477 -44.047543 
L 104.398857 -43.934944 
L 105.86185 -43.801431 
L 107.319911 -43.67981 
L 108.773303 -43.569703 
L 110.222308 -43.470755 
L 111.667222 -43.382636 
L 113.10836 -43.305041 
L 114.5476 -43.249469 
L 115.981754 -43.190196 
L 117.413219 -43.140679 
L 118.84236 -43.100728 
L 120.269547 -43.070181 
L 121.69516 -43.048907 
L 123.119585 -43.036805 
L 124.543209 -43.033805 
L 125.966476 -43.034049 
L 127.390089 -43.037329 
L 128.814575 -43.047804 
L 130.24031 -43.067403 
L 131.667678 -43.096283 
L 133.097056 -43.134578 
L 134.528816 -43.182451 
L 135.963322 -43.240095 
L 137.400926 -43.307731 
L 138.841968 -43.385611 
L 140.286777 -43.474011 
L 141.735666 -43.573235 
L 143.188933 -43.683612 
L 144.646861 -43.805498 
L 146.117972 -43.907332 
L 147.587038 -44.051772 
L 149.06155 -44.208968 
L 150.550974 -44.349988 
L 152.038039 -44.532529 
L 153.531139 -44.729268 
L 155.045872 -44.899338 
L 156.552759 -45.124677 
L 158.081329 -45.328916 
L 159.622176 -45.539609 
L 161.151213 -45.811668 
L 162.706315 -46.06042 
L 164.274357 -46.318026 
L 165.848555 -46.599269 
L 167.435973 -46.891087 
L 169.029298 -47.207976 
L 170.635965 -47.537207 
L 172.24815 -47.892956 
L 173.873638 -48.262843 
L 175.540935 -48.605066 
L 177.182033 -49.024534 
L 178.836085 -49.460933 
L 180.536524 -49.870159 
L 182.248707 -50.303214 
L 183.972278 -50.76113 
L 185.658511 -51.303555 
L 187.40164 -51.814513 
L 189.154804 -52.353296 
L 190.971634 -52.86177 
L 192.745093 -53.459179 
L 194.526753 -54.087456 
L 196.370733 -54.693673 
L 198.168355 -55.386724 
L 200.035535 -56.055184 
L 201.905842 -56.763988 
L 203.788587 -57.50491 
L 205.671607 -58.288599 
L 207.563804 -59.107559 
L 209.452054 -59.972271 
L 211.411819 -60.826255 
L 213.298355 -61.778236 
L 215.240018 -62.733966 
L 217.08446 -63.798365 
L 218.768751 -65.004133 
L 219.784456 -66.651241 
L 220.791592 -68.303617 
L 221.733981 -69.993793 
L 222.647136 -71.699363 
L 223.592461 -73.387739 
L 224.458253 -75.118067 
L 225.281022 -76.869023 
L 226.115761 -78.614094 
L 226.903773 -80.38085 
L 227.633333 -82.172504 
L 228.315582 -83.982358 
L 229.079969 -85.760439 
L 229.652727 -87.609833 
L 230.350085 -89.414687 
L 231.000864 -91.23747 
L 231.52981 -93.098983 
L 232.080679 -94.953637 
L 232.586125 -96.821306 
L 233.04654 -98.700566 
L 233.462364 -100.590033 
L 233.834071 -102.488369 
L 234.278009 -104.372813 
L 234.568557 -106.28622 
L 234.881017 -108.195321 
L 235.082997 -110.119912 
L 235.378428 -112.032065 
L 235.558228 -113.958055 
L 235.781098 -115.880458 
L 235.827251 -117.816164 
L 235.979703 -119.744711 
L 236.001343 -121.679063 
L 236.083526 -123.611875 
L 236.031283 -125.545794 
L 236.091672 -127.481427 
L 235.923637 -129.410966 
L 235.869828 -131.344565 
L 235.782422 -133.277772 
L 235.565499 -135.200771 
L 235.412751 -137.129971 
z
" style="stroke: #ffee9c"/>
    </defs>
    <g clip-path="url(#p3c091d161e)">
     <use xlink:href="#m6e444c3981" x="0" y="249.158125" style="fill: #ffee9c; stroke: #ffee9c"/>
    </g>
   </g>
   <g id="matplotlib.axis_1">
    <g id="xtick_1">
     <g id="line2d_1">
      <path d="M 125.254844 124.579062 
L 125.254844 13.699062 
" clip-path="url(#p3c091d161e)" style="fill: none; stroke: #b0b0b0; stroke-width: 0.8; stroke-linecap: square"/>
     </g>
     <g id="text_1">
      <!-- N -->
      <g transform="translate(121.070469 7.958438) scale(0.1 -0.1)">
       <defs>
        <path id="DejaVuSans-Bold-4e" d="M 588 4666 
L 1931 4666 
L 3628 1466 
L 3628 4666 
L 4769 4666 
L 4769 0 
L 3425 0 
L 1728 3200 
L 1728 0 
L 588 0 
L 588 4666 
z
" transform="scale(0.015625)"/>
       </defs>
       <use xlink:href="#DejaVuSans-Bold-4e"/>
      </g>
     </g>
    </g>
    <g id="xtick_2">
     <g id="line2d_2">
      <path d="M 125.254844 124.579062 
L 203.658844 46.175063 
" clip-path="url(#p3c091d161e)" style="fill: none; stroke: #b0b0b0; stroke-width: 0.8; stroke-linecap: square"/>
     </g>
    </g>
    <g id="xtick_3">
     <g id="line2d_3">
      <path d="M 125.254844 124.579062 
L 236.134844 124.579062 
" clip-path="url(#p3c091d161e)" style="fill: none; stroke: #b0b0b0; stroke-width: 0.8; stroke-linecap: square"/>
     </g>
     <g id="text_2">
      <!-- E -->
      <g transform="translate(241.219219 127.338437) scale(0.1 -0.1)">
       <defs>
        <path id="DejaVuSans-Bold-45" d="M 588 4666 
L 3834 4666 
L 3834 3756 
L 1791 3756 
L 1791 2888 
L 3713 2888 
L 3713 1978 
L 1791 1978 
L 1791 909 
L 3903 909 
L 3903 0 
L 588 0 
L 588 4666 
z
" transform="scale(0.015625)"/>
       </defs>
       <use xlink:href="#DejaVuSans-Bold-45"/>
      </g>
     </g>
    </g>
    <g id="xtick_4">
     <g id="line2d_4">
      <path d="M 125.254844 124.579062 
L 203.658844 202.983062 
" clip-path="url(#p3c091d161e)" style="fill: none; stroke: #b0b0b0; stroke-width: 0.8; stroke-linecap: square"/>
     </g>
    </g>
    <g id="xtick_5">
     <g id="line2d_5">
      <path d="M 125.254844 124.579062 
L 125.254844 235.459063 
" clip-path="url(#p3c091d161e)" style="fill: none; stroke: #b0b0b0; stroke-width: 0.8; stroke-linecap: square"/>
     </g>
     <g id="text_3">
      <!-- S -->
      <g transform="translate(121.654062 246.718437) scale(0.1 -0.1)">
       <defs>
        <path id="DejaVuSans-Bold-53" d="M 3834 4519 
L 3834 3531 
Q 3450 3703 3084 3790 
Q 2719 3878 2394 3878 
Q 1963 3878 1756 3759 
Q 1550 3641 1550 3391 
Q 1550 3203 1689 3098 
Q 1828 2994 2194 2919 
L 2706 2816 
Q 3484 2659 3812 2340 
Q 4141 2022 4141 1434 
Q 4141 663 3683 286 
Q 3225 -91 2284 -91 
Q 1841 -91 1394 -6 
Q 947 78 500 244 
L 500 1259 
Q 947 1022 1364 901 
Q 1781 781 2169 781 
Q 2563 781 2772 912 
Q 2981 1044 2981 1288 
Q 2981 1506 2839 1625 
Q 2697 1744 2272 1838 
L 1806 1941 
Q 1106 2091 782 2419 
Q 459 2747 459 3303 
Q 459 4000 909 4375 
Q 1359 4750 2203 4750 
Q 2588 4750 2994 4692 
Q 3400 4634 3834 4519 
z
" transform="scale(0.015625)"/>
       </defs>
       <use xlink:href="#DejaVuSans-Bold-53"/>
      </g>
     </g>
    </g>
    <g id="xtick_6">
     <g id="line2d_6">
      <path d="M 125.254844 124.579062 
L 46.850844 202.983062 
" clip-path="url(#p3c091d161e)" style="fill: none; stroke: #b0b0b0; stroke-width: 0.8; stroke-linecap: square"/>
     </g>
    </g>
    <g id="xtick_7">
     <g id="line2d_7">
      <path d="M 125.254844 124.579062 
L 14.374844 124.579063 
" clip-path="url(#p3c091d161e)" style="fill: none; stroke: #b0b0b0; stroke-width: 0.8; stroke-linecap: square"/>
     </g>
     <g id="text_4">
      <!-- W -->
      <g transform="translate(0.36 127.338438) scale(0.1 -0.1)">
       <defs>
        <path id="DejaVuSans-Bold-57" d="M 191 4666 
L 1344 4666 
L 2150 1275 
L 2950 4666 
L 4109 4666 
L 4909 1275 
L 5716 4666 
L 6859 4666 
L 5759 0 
L 4372 0 
L 3525 3547 
L 2688 0 
L 1300 0 
L 191 4666 
z
" transform="scale(0.015625)"/>
       </defs>
       <use xlink:href="#DejaVuSans-Bold-57"/>
      </g>
     </g>
    </g>
    <g id="xtick_8">
     <g id="line2d_8">
      <path d="M 125.254844 124.579062 
L 46.850844 46.175063 
" clip-path="url(#p3c091d161e)" style="fill: none; stroke: #b0b0b0; stroke-width: 0.8; stroke-linecap: square"/>
     </g>
    </g>
   </g>
   <g id="matplotlib.axis_2"/>
   <g id="patch_3">
    <path d="M 125.254844 124.579062 
C 125.254844 124.579062 125.254844 124.579062 125.254844 124.579062 
C 125.254844 124.579062 125.254844 124.579062 125.254844 124.579062 
L 125.254844 124.579062 
C 125.254844 124.579062 125.254844 124.579062 125.254844 124.579062 
C 125.254844 124.579062 125.254844 124.579062 125.254844 124.579062 
z
" clip-path="url(#p3c091d161e)" style="fill: #d9d9d9"/>
   </g>
   <g id="patch_4">
    <path d="M 125.254844 124.579062 
C 125.254844 124.579062 125.254844 124.579062 125.254844 124.579062 
C 125.254844 124.579062 125.254844 124.579062 125.254844 124.579062 
L 125.254844 124.579062 
C 125.254844 124.579062 125.254844 124.579062 125.254844 124.579062 
C 125.254844 124.579062 125.254844 124.579062 125.254844 124.579062 
z
" clip-path="url(#p3c091d161e)" style="fill: #d9d9d9"/>
   </g>
   <g id="patch_5">
    <path d="M 125.254844 124.579062 
C 125.254844 124.579062 125.254844 124.579062 125.254844 124.579062 
C 125.254844 124.579062 125.254844 124.579062 125.254844 124.579062 
L 125.254844 124.579062 
C 125.254844 124.579062 125.254844 124.579062 125.254844 124.579062 
C 125.254844 124.579062 125.254844 124.579062 125.254844 124.579062 
z
" clip-path="url(#p3c091d161e)" style="fill: #d9d9d9"/>
   </g>
   <g id="patch_6">
    <path d="M 125.254844 124.579062 
C 125.254844 124.579062 125.254844 124.579062 125.254844 124.579062 
C 125.254844 124.579062 125.254844 124.579062 125.254844 124.579062 
L 125.254844 124.579062 
C 125.254844 124.579062 125.254844 124.579062 125.254844 124.579062 
C 125.254844 124.579062 125.254844 124.579062 125.254844 124.579062 
z
" clip-path="url(#p3c091d161e)" style="fill: #d9d9d9"/>
   </g>
   <g id="patch_7">
    <path d="M 125.254844 124.579062 
C 125.254844 124.579062 125.254844 124.579062 125.254844 124.579062 
C 125.254844 124.579062 125.254844 124.579062 125.254844 124.579062 
L 125.254844 124.579062 
C 125.254844 124.579062 125.254844 124.579062 125.254844 124.579062 
C 125.254844 124.579062 125.254844 124.579062 125.254844 124.579062 
z
" clip-path="url(#p3c091d161e)" style="fill: #d9d9d9"/>
   </g>
   <g id="patch_8">
    <path d="M 125.254844 124.579062 
C 125.254844 124.579062 125.254844 124.579062 125.254844 124.579062 
C 125.254844 124.579062 125.254844 124.579062 125.254844 124.579062 
L 125.254844 124.579062 
C 125.254844 124.579062 125.254844 124.579062 125.254844 124.579062 
C 125.254844 124.579062 125.254844 124.579062 125.254844 124.579062 
z
" clip-path="url(#p3c091d161e)" style="fill: #d9d9d9"/>
   </g>
   <g id="patch_9">
    <path d="M 125.254844 124.579062 
C 125.254844 124.579062 125.254844 124.579062 125.254844 124.579062 
C 125.254844 124.579062 125.254844 124.579062 125.254844 124.579062 
L 125.254844 124.579062 
C 125.254844 124.579062 125.254844 124.579062 125.254844 124.579062 
C 125.254844 124.579062 125.254844 124.579062 125.254844 124.579062 
z
" clip-path="url(#p3c091d161e)" style="fill: #d9d9d9"/>
   </g>
   <g id="patch_10">
    <path d="M 125.254844 124.579062 
C 125.254844 124.579062 125.254844 124.579062 125.254844 124.579062 
C 125.254844 124.579062 125.254844 124.579062 125.254844 124.579062 
L 125.254844 124.579062 
C 125.254844 124.579062 125.254844 124.579062 125.254844 124.579062 
C 125.254844 124.579062 125.254844 124.579062 125.254844 124.579062 
z
" clip-path="url(#p3c091d161e)" style="fill: #d9d9d9"/>
   </g>
   <g id="patch_11">
    <path d="M 125.254844 124.579062 
C 125.254844 124.579062 125.254844 124.579062 125.254844 124.579062 
C 125.254844 124.579062 125.254844 124.579062 125.254844 124.579062 
L 125.254844 124.579062 
C 125.254844 124.579062 125.254844 124.579062 125.254844 124.579062 
C 125.254844 124.579062 125.254844 124.579062 125.254844 124.579062 
z
" clip-path="url(#p3c091d161e)" style="fill: #d9d9d9"/>
   </g>
   <g id="patch_12">
    <path d="M 125.254844 124.579062 
C 125.254844 124.579062 125.254844 124.579062 125.254844 124.579062 
C 125.254844 124.579062 125.254844 124.579062 125.254844 124.579062 
L 125.254844 124.579062 
C 125.254844 124.579062 125.254844 124.579062 125.254844 124.579062 
C 125.254844 124.579062 125.254844 124.579062 125.254844 124.579062 
z
" clip-path="url(#p3c091d161e)" style="fill: #d9d9d9"/>
   </g>
   <g id="patch_13">
    <path d="M 125.254844 124.579062 
C 125.254844 124.579062 125.254844 124.579062 125.254844 124.579062 
C 125.254844 124.579062 125.254844 124.579062 125.254844 124.579062 
L 125.254844 124.579062 
C 125.254844 124.579062 125.254844 124.579062 125.254844 124.579062 
C 125.254844 124.579062 125.254844 124.579062 125.254844 124.579062 
z
" clip-path="url(#p3c091d161e)" style="fill: #d9d9d9"/>
   </g>
   <g id="patch_14">
    <path d="M 125.254844 124.579062 
C 125.254844 124.579062 125.254844 124.579062 125.254844 124.579062 
C 125.254844 124.579062 125.254844 124.579062 125.254844 124.579062 
L 125.254844 124.579062 
C 125.254844 124.579062 125.254844 124.579062 125.254844 124.579062 
C 125.254844 124.579062 125.254844 124.579062 125.254844 124.579062 
z
" clip-path="url(#p3c091d161e)" style="fill: #d9d9d9"/>
   </g>
   <g id="patch_15">
    <path d="M 125.254844 124.579062 
C 125.254844 124.579062 125.254844 124.579062 125.254844 124.579062 
C 125.254844 124.579062 125.254844 124.579062 125.254844 124.579062 
L 125.254844 124.579062 
C 125.254844 124.579062 125.254844 124.579062 125.254844 124.579062 
C 125.254844 124.579062 125.254844 124.579062 125.254844 124.579062 
z
" clip-path="url(#p3c091d161e)" style="fill: #d9d9d9"/>
   </g>
   <g id="patch_16">
    <path d="M 125.254844 124.579062 
C 125.254844 124.579062 125.254844 124.579062 125.254844 124.579062 
C 125.254844 124.579062 125.254844 124.579062 125.254844 124.579062 
L 126.560196 127.021206 
C 126.640131 126.97848 126.717921 126.931855 126.793283 126.881499 
C 126.868645 126.831144 126.941489 126.777119 127.011553 126.719619 
z
" clip-path="url(#p3c091d161e)" style="fill: #d9d9d9"/>
   </g>
   <g id="patch_17">
    <path d="M 125.254844 124.579062 
C 125.254844 124.579062 125.254844 124.579062 125.254844 124.579062 
C 125.254844 124.579062 125.254844 124.579062 125.254844 124.579062 
L 125.254844 124.579062 
C 125.254844 124.579062 125.254844 124.579062 125.254844 124.579062 
C 125.254844 124.579062 125.254844 124.579062 125.254844 124.579062 
z
" clip-path="url(#p3c091d161e)" style="fill: #d9d9d9"/>
   </g>
   <g id="patch_18">
    <path d="M 125.254844 124.579062 
C 125.254844 124.579062 125.254844 124.579062 125.254844 124.579062 
C 125.254844 124.579062 125.254844 124.579062 125.254844 124.579062 
L 125.622349 128.31041 
C 125.744482 128.298381 125.86595 128.280363 125.986316 128.256421 
C 126.106681 128.232479 126.225799 128.202641 126.343238 128.167017 
z
" clip-path="url(#p3c091d161e)" style="fill: #d9d9d9"/>
   </g>
   <g id="patch_19">
    <path d="M 125.254844 124.579062 
C 125.254844 124.579062 125.254844 124.579062 125.254844 124.579062 
C 125.254844 124.579062 125.254844 124.579062 125.254844 124.579062 
L 125.254844 124.579062 
C 125.254844 124.579062 125.254844 124.579062 125.254844 124.579062 
C 125.254844 124.579062 125.254844 124.579062 125.254844 124.579062 
z
" clip-path="url(#p3c091d161e)" style="fill: #d9d9d9"/>
   </g>
   <g id="patch_20">
    <path d="M 125.254844 124.579062 
C 125.254844 124.579062 125.254844 124.579062 125.254844 124.579062 
C 125.254844 124.579062 125.254844 124.579062 125.254844 124.579062 
L 125.254844 124.579062 
C 125.254844 124.579062 125.254844 124.579062 125.254844 124.579062 
C 125.254844 124.579062 125.254844 124.579062 125.254844 124.579062 
z
" clip-path="url(#p3c091d161e)" style="fill: #d9d9d9"/>
   </g>
   <g id="patch_21">
    <path d="M 125.254844 124.579062 
C 125.254844 124.579062 125.254844 124.579062 125.254844 124.579062 
C 125.254844 124.579062 125.254844 124.579062 125.254844 124.579062 
L 125.254844 124.579062 
C 125.254844 124.579062 125.254844 124.579062 125.254844 124.579062 
C 125.254844 124.579062 125.254844 124.579062 125.254844 124.579062 
z
" clip-path="url(#p3c091d161e)" style="fill: #d9d9d9"/>
   </g>
   <g id="patch_22">
    <path d="M 125.254844 124.579062 
C 125.254844 124.579062 125.254844 124.579062 125.254844 124.579062 
C 125.254844 124.579062 125.254844 124.579062 125.254844 124.579062 
L 125.254844 124.579062 
C 125.254844 124.579062 125.254844 124.579062 125.254844 124.579062 
C 125.254844 124.579062 125.254844 124.579062 125.254844 124.579062 
z
" clip-path="url(#p3c091d161e)" style="fill: #d9d9d9"/>
   </g>
   <g id="patch_23">
    <path d="M 125.254844 124.579062 
C 125.254844 124.579062 125.254844 124.579062 125.254844 124.579062 
C 125.254844 124.579062 125.254844 124.579062 125.254844 124.579062 
L 125.254844 124.579062 
C 125.254844 124.579062 125.254844 124.579062 125.254844 124.579062 
C 125.254844 124.579062 125.254844 124.579062 125.254844 124.579062 
z
" clip-path="url(#p3c091d161e)" style="fill: #d9d9d9"/>
   </g>
   <g id="patch_24">
    <path d="M 125.254844 124.579062 
C 125.254844 124.579062 125.254844 124.579062 125.254844 124.579062 
C 125.254844 124.579062 125.254844 124.579062 125.254844 124.579062 
L 125.254844 124.579062 
C 125.254844 124.579062 125.254844 124.579062 125.254844 124.579062 
C 125.254844 124.579062 125.254844 124.579062 125.254844 124.579062 
z
" clip-path="url(#p3c091d161e)" style="fill: #d9d9d9"/>
   </g>
   <g id="patch_25">
    <path d="M 125.254844 124.579062 
C 125.254844 124.579062 125.254844 124.579062 125.254844 124.579062 
C 125.254844 124.579062 125.254844 124.579062 125.254844 124.579062 
L 125.254844 124.579062 
C 125.254844 124.579062 125.254844 124.579062 125.254844 124.579062 
C 125.254844 124.579062 125.254844 124.579062 125.254844 124.579062 
z
" clip-path="url(#p3c091d161e)" style="fill: #d9d9d9"/>
   </g>
   <g id="patch_26">
    <path d="M 125.254844 124.579062 
C 125.254844 124.579062 125.254844 124.579062 125.254844 124.579062 
C 125.254844 124.579062 125.254844 124.579062 125.254844 124.579062 
L 125.254844 124.579062 
C 125.254844 124.579062 125.254844 124.579062 125.254844 124.579062 
C 125.254844 124.579062 125.254844 124.579062 125.254844 124.579062 
z
" clip-path="url(#p3c091d161e)" style="fill: #d9d9d9"/>
   </g>
   <g id="patch_27">
    <path d="M 125.254844 124.579062 
C 125.254844 124.579062 125.254844 124.579062 125.254844 124.579062 
C 125.254844 124.579062 125.254844 124.579062 125.254844 124.579062 
L 125.254844 124.579062 
C 125.254844 124.579062 125.254844 124.579062 125.254844 124.579062 
C 125.254844 124.579062 125.254844 124.579062 125.254844 124.579062 
z
" clip-path="url(#p3c091d161e)" style="fill: #d9d9d9"/>
   </g>
   <g id="patch_28">
    <path d="M 125.254844 124.579062 
C 125.254844 124.579062 125.254844 124.579062 125.254844 124.579062 
C 125.254844 124.579062 125.254844 124.579062 125.254844 124.579062 
L 125.254844 124.579062 
C 125.254844 124.579062 125.254844 124.579062 125.254844 124.579062 
C 125.254844 124.579062 125.254844 124.579062 125.254844 124.579062 
z
" clip-path="url(#p3c091d161e)" style="fill: #d9d9d9"/>
   </g>
   <g id="patch_29">
    <path d="M 125.254844 124.579062 
C 125.254844 124.579062 125.254844 124.579062 125.254844 124.579062 
C 125.254844 124.579062 125.254844 124.579062 125.254844 124.579062 
L 125.254844 124.579062 
C 125.254844 124.579062 125.254844 124.579062 125.254844 124.579062 
C 125.254844 124.579062 125.254844 124.579062 125.254844 124.579062 
z
" clip-path="url(#p3c091d161e)" style="fill: #d9d9d9"/>
   </g>
   <g id="patch_30">
    <path d="M 125.254844 124.579062 
C 125.254844 124.579062 125.254844 124.579062 125.254844 124.579062 
C 125.254844 124.579062 125.254844 124.579062 125.254844 124.579062 
L 125.254844 124.579062 
C 125.254844 124.579062 125.254844 124.579062 125.254844 124.579062 
C 125.254844 124.579062 125.254844 124.579062 125.254844 124.579062 
z
" clip-path="url(#p3c091d161e)" style="fill: #d9d9d9"/>
   </g>
   <g id="patch_31">
    <path d="M 125.254844 124.579062 
C 125.254844 124.579062 125.254844 124.579062 125.254844 124.579062 
C 125.254844 124.579062 125.254844 124.579062 125.254844 124.579062 
L 125.254844 124.579062 
C 125.254844 124.579062 125.254844 124.579062 125.254844 124.579062 
C 125.254844 124.579062 125.254844 124.579062 125.254844 124.579062 
z
" clip-path="url(#p3c091d161e)" style="fill: #d9d9d9"/>
   </g>
   <g id="patch_32">
    <path d="M 125.254844 124.579062 
C 125.254844 124.579062 125.254844 124.579062 125.254844 124.579062 
C 125.254844 124.579062 125.254844 124.579062 125.254844 124.579062 
L 125.254844 124.579062 
C 125.254844 124.579062 125.254844 124.579062 125.254844 124.579062 
C 125.254844 124.579062 125.254844 124.579062 125.254844 124.579062 
z
" clip-path="url(#p3c091d161e)" style="fill: #d9d9d9"/>
   </g>
   <g id="patch_33">
    <path d="M 125.254844 124.579062 
C 125.254844 124.579062 125.254844 124.579062 125.254844 124.579062 
C 125.254844 124.579062 125.254844 124.579062 125.254844 124.579062 
L 125.254844 124.579062 
C 125.254844 124.579062 125.254844 124.579062 125.254844 124.579062 
C 125.254844 124.579062 125.254844 124.579062 125.254844 124.579062 
z
" clip-path="url(#p3c091d161e)" style="fill: #d9d9d9"/>
   </g>
   <g id="patch_34">
    <path d="M 125.254844 124.579062 
C 125.254844 124.579062 125.254844 124.579062 125.254844 124.579062 
C 125.254844 124.579062 125.254844 124.579062 125.254844 124.579062 
L 125.254844 124.579062 
C 125.254844 124.579062 125.254844 124.579062 125.254844 124.579062 
C 125.254844 124.579062 125.254844 124.579062 125.254844 124.579062 
z
" clip-path="url(#p3c091d161e)" style="fill: #d9d9d9"/>
   </g>
   <g id="patch_35">
    <path d="M 125.254844 124.579062 
C 125.254844 124.579062 125.254844 124.579062 125.254844 124.579062 
C 125.254844 124.579062 125.254844 124.579062 125.254844 124.579062 
L 130.854716 67.722601 
C 128.99372 67.539309 127.124845 67.447497 125.254844 67.447497 
C 123.384842 67.447497 121.515968 67.539309 119.654971 67.722601 
z
" clip-path="url(#p3c091d161e)" style="fill: #a1a1d8"/>
   </g>
   <g id="patch_36">
    <path d="M 125.254844 124.579062 
C 125.254844 124.579062 125.254844 124.579062 125.254844 124.579062 
C 125.254844 124.579062 125.254844 124.579062 125.254844 124.579062 
L 147.429543 51.478876 
C 145.036865 50.753065 142.609993 50.145165 140.157694 49.657373 
C 137.705396 49.16958 135.230626 48.802483 132.742323 48.557407 
z
" clip-path="url(#p3c091d161e)" style="fill: #a1a1d8"/>
   </g>
   <g id="patch_37">
    <path d="M 125.254844 124.579062 
C 125.254844 124.579062 125.254844 124.579062 125.254844 124.579062 
C 125.254844 124.579062 125.254844 124.579062 125.254844 124.579062 
L 150.431574 77.476713 
C 148.889844 76.652641 147.308583 75.90476 145.693504 75.235772 
C 144.078424 74.566784 142.431473 73.977496 140.758598 73.470035 
z
" clip-path="url(#p3c091d161e)" style="fill: #a1a1d8"/>
   </g>
   <g id="patch_38">
    <path d="M 125.254844 124.579062 
C 125.254844 124.579062 125.254844 124.579062 125.254844 124.579062 
C 125.254844 124.579062 125.254844 124.579062 125.254844 124.579062 
L 156.769705 86.178093 
C 155.512784 85.146564 154.205975 84.177369 152.853999 83.274007 
C 151.502023 82.370646 150.106509 81.534207 148.672498 80.767712 
z
" clip-path="url(#p3c091d161e)" style="fill: #a1a1d8"/>
   </g>
   <g id="patch_39">
    <path d="M 125.254844 124.579062 
C 125.254844 124.579062 125.254844 124.579062 125.254844 124.579062 
C 125.254844 124.579062 125.254844 124.579062 125.254844 124.579062 
L 156.738735 98.740901 
C 155.893013 97.710386 154.997206 96.722015 154.054548 95.779358 
C 153.111891 94.8367 152.12352 93.940893 151.093005 93.095172 
z
" clip-path="url(#p3c091d161e)" style="fill: #a1a1d8"/>
   </g>
   <g id="patch_40">
    <path d="M 125.254844 124.579062 
C 125.254844 124.579062 125.254844 124.579062 125.254844 124.579062 
C 125.254844 124.579062 125.254844 124.579062 125.254844 124.579062 
L 160.910692 105.520615 
C 160.28688 104.353546 159.606145 103.217807 158.870945 102.117502 
C 158.135744 101.017197 157.346965 99.953651 156.507456 98.930707 
z
" clip-path="url(#p3c091d161e)" style="fill: #a1a1d8"/>
   </g>
   <g id="patch_41">
    <path d="M 125.254844 124.579062 
C 125.254844 124.579062 125.254844 124.579062 125.254844 124.579062 
C 125.254844 124.579062 125.254844 124.579062 125.254844 124.579062 
L 188.824351 105.295463 
C 188.19317 103.214739 187.460211 101.166257 186.628123 99.157418 
C 185.796034 97.148579 184.865819 95.181804 183.840837 93.264197 
z
" clip-path="url(#p3c091d161e)" style="fill: #a1a1d8"/>
   </g>
   <g id="patch_42">
    <path d="M 125.254844 124.579062 
C 125.254844 124.579062 125.254844 124.579062 125.254844 124.579062 
C 125.254844 124.579062 125.254844 124.579062 125.254844 124.579062 
L 167.033218 120.464252 
C 166.898534 119.096783 166.696792 117.736752 166.428721 116.389069 
C 166.160651 115.041387 165.826574 113.707678 165.427698 112.39276 
z
" clip-path="url(#p3c091d161e)" style="fill: #a1a1d8"/>
   </g>
   <g id="patch_43">
    <path d="M 125.254844 124.579062 
C 125.254844 124.579062 125.254844 124.579062 125.254844 124.579062 
C 125.254844 124.579062 125.254844 124.579062 125.254844 124.579062 
L 168.827598 128.870604 
C 168.968067 127.444403 169.038428 126.012165 169.038428 124.579062 
C 169.038428 123.14596 168.968067 121.713722 168.827598 120.287521 
z
" clip-path="url(#p3c091d161e)" style="fill: #a1a1d8"/>
   </g>
   <g id="patch_44">
    <path d="M 125.254844 124.579062 
C 125.254844 124.579062 125.254844 124.579062 125.254844 124.579062 
C 125.254844 124.579062 125.254844 124.579062 125.254844 124.579062 
L 163.578983 136.204563 
C 163.959503 134.950157 164.278205 133.677824 164.53394 132.39216 
C 164.789674 131.106497 164.982132 129.809053 165.110618 128.504514 
z
" clip-path="url(#p3c091d161e)" style="fill: #a1a1d8"/>
   </g>
   <g id="patch_45">
    <path d="M 125.254844 124.579062 
C 125.254844 124.579062 125.254844 124.579062 125.254844 124.579062 
C 125.254844 124.579062 125.254844 124.579062 125.254844 124.579062 
L 148.890282 137.212467 
C 149.303792 136.438844 149.67907 135.645385 150.014761 134.834956 
C 150.350452 134.024527 150.64615 133.198105 150.900789 132.358675 
z
" clip-path="url(#p3c091d161e)" style="fill: #a1a1d8"/>
   </g>
   <g id="patch_46">
    <path d="M 125.254844 124.579062 
C 125.254844 124.579062 125.254844 124.579062 125.254844 124.579062 
C 125.254844 124.579062 125.254844 124.579062 125.254844 124.579062 
L 139.182175 136.008928 
C 139.556291 135.553065 139.907801 135.07911 140.235434 134.588773 
C 140.563067 134.098436 140.866428 133.592308 141.144421 133.072219 
z
" clip-path="url(#p3c091d161e)" style="fill: #a1a1d8"/>
   </g>
   <g id="patch_47">
    <path d="M 125.254844 124.579062 
C 125.254844 124.579062 125.254844 124.579062 125.254844 124.579062 
C 125.254844 124.579062 125.254844 124.579062 125.254844 124.579062 
L 129.247897 129.444612 
C 129.407154 129.313914 129.559898 129.175475 129.705577 129.029795 
C 129.851256 128.884116 129.989695 128.731373 130.120393 128.572116 
z
" clip-path="url(#p3c091d161e)" style="fill: #a1a1d8"/>
   </g>
   <g id="patch_48">
    <path d="M 127.011553 126.719619 
C 126.941489 126.777119 126.868645 126.831144 126.793283 126.881499 
C 126.717921 126.931855 126.640131 126.97848 126.560196 127.021206 
L 133.105069 139.265801 
C 133.585788 139.008852 134.053602 138.728455 134.50682 138.425624 
C 134.960039 138.122793 135.398116 137.797893 135.81947 137.452097 
z
" clip-path="url(#p3c091d161e)" style="fill: #a1a1d8"/>
   </g>
   <g id="patch_49">
    <path d="M 125.254844 124.579062 
C 125.254844 124.579062 125.254844 124.579062 125.254844 124.579062 
C 125.254844 124.579062 125.254844 124.579062 125.254844 124.579062 
L 129.081851 137.195013 
C 129.494789 137.06975 129.901329 136.924287 130.300002 136.759152 
C 130.698674 136.594016 131.088999 136.409406 131.469566 136.205989 
z
" clip-path="url(#p3c091d161e)" style="fill: #a1a1d8"/>
   </g>
   <g id="patch_50">
    <path d="M 126.343238 128.167017 
C 126.225799 128.202641 126.106681 128.232479 125.986316 128.256421 
C 125.86595 128.280363 125.744482 128.298381 125.622349 128.31041 
L 127.279918 145.139987 
C 127.952908 145.073703 128.622238 144.974418 129.28549 144.842488 
C 129.948742 144.710559 130.605117 144.546146 131.252244 144.349842 
z
" clip-path="url(#p3c091d161e)" style="fill: #a1a1d8"/>
   </g>
   <g id="patch_51">
    <path d="M 125.254844 124.579062 
C 125.254844 124.579062 125.254844 124.579062 125.254844 124.579062 
C 125.254844 124.579062 125.254844 124.579062 125.254844 124.579062 
L 123.114803 146.307265 
C 123.825999 146.377311 124.540206 146.412398 125.254844 146.412398 
C 125.969481 146.412398 126.683688 146.377311 127.394885 146.307265 
z
" clip-path="url(#p3c091d161e)" style="fill: #a1a1d8"/>
   </g>
   <g id="patch_52">
    <path d="M 125.254844 124.579062 
C 125.254844 124.579062 125.254844 124.579062 125.254844 124.579062 
C 125.254844 124.579062 125.254844 124.579062 125.254844 124.579062 
L 118.577712 146.590616 
C 119.298183 146.809169 120.02895 146.992216 120.767374 147.139098 
C 121.505797 147.28598 122.250987 147.396518 123.000252 147.470314 
z
" clip-path="url(#p3c091d161e)" style="fill: #a1a1d8"/>
   </g>
   <g id="patch_53">
    <path d="M 125.254844 124.579062 
C 125.254844 124.579062 125.254844 124.579062 125.254844 124.579062 
C 125.254844 124.579062 125.254844 124.579062 125.254844 124.579062 
L 115.442967 142.935793 
C 116.04381 143.25695 116.660059 143.548414 117.289488 143.809132 
C 117.918917 144.06985 118.560767 144.299508 119.21272 144.497276 
z
" clip-path="url(#p3c091d161e)" style="fill: #a1a1d8"/>
   </g>
   <g id="patch_54">
    <path d="M 125.254844 124.579062 
C 125.254844 124.579062 125.254844 124.579062 125.254844 124.579062 
C 125.254844 124.579062 125.254844 124.579062 125.254844 124.579062 
L 117.564014 133.950365 
C 117.870751 134.202098 118.189662 134.438618 118.519596 134.659073 
C 118.84953 134.879528 119.190089 135.083651 119.540042 135.270705 
z
" clip-path="url(#p3c091d161e)" style="fill: #a1a1d8"/>
   </g>
   <g id="patch_55">
    <path d="M 125.254844 124.579062 
C 125.254844 124.579062 125.254844 124.579062 125.254844 124.579062 
C 125.254844 124.579062 125.254844 124.579062 125.254844 124.579062 
L 107.260585 139.346569 
C 107.743947 139.935548 108.255936 140.50044 108.794701 141.039205 
C 109.333466 141.57797 109.898358 142.089959 110.487337 142.573321 
z
" clip-path="url(#p3c091d161e)" style="fill: #a1a1d8"/>
   </g>
   <g id="patch_56">
    <path d="M 125.254844 124.579062 
C 125.254844 124.579062 125.254844 124.579062 125.254844 124.579062 
C 125.254844 124.579062 125.254844 124.579062 125.254844 124.579062 
L 125.254844 124.579062 
C 125.254844 124.579062 125.254844 124.579062 125.254844 124.579062 
C 125.254844 124.579062 125.254844 124.579062 125.254844 124.579062 
z
" clip-path="url(#p3c091d161e)" style="fill: #a1a1d8"/>
   </g>
   <g id="patch_57">
    <path d="M 125.254844 124.579062 
C 125.254844 124.579062 125.254844 124.579062 125.254844 124.579062 
C 125.254844 124.579062 125.254844 124.579062 125.254844 124.579062 
L 96.69427 133.242818 
C 96.977848 134.177648 97.307152 135.097992 97.680994 136.000525 
C 98.054835 136.903058 98.472763 137.786693 98.933269 138.648238 
z
" clip-path="url(#p3c091d161e)" style="fill: #a1a1d8"/>
   </g>
   <g id="patch_58">
    <path d="M 125.254844 124.579062 
C 125.254844 124.579062 125.254844 124.579062 125.254844 124.579062 
C 125.254844 124.579062 125.254844 124.579062 125.254844 124.579062 
L 88.990722 128.150767 
C 89.10763 129.337746 89.282744 130.518269 89.515432 131.688073 
C 89.748121 132.857878 90.038103 134.015553 90.384332 135.156917 
z
" clip-path="url(#p3c091d161e)" style="fill: #a1a1d8"/>
   </g>
   <g id="patch_59">
    <path d="M 125.254844 124.579062 
C 125.254844 124.579062 125.254844 124.579062 125.254844 124.579062 
C 125.254844 124.579062 125.254844 124.579062 125.254844 124.579062 
L 98.77446 121.970972 
C 98.689093 122.837715 98.646333 123.708126 98.646333 124.579062 
C 98.646333 125.449999 98.689093 126.32041 98.77446 127.187153 
z
" clip-path="url(#p3c091d161e)" style="fill: #a1a1d8"/>
   </g>
   <g id="patch_60">
    <path d="M 125.254844 124.579062 
C 125.254844 124.579062 125.254844 124.579062 125.254844 124.579062 
C 125.254844 124.579062 125.254844 124.579062 125.254844 124.579062 
L 81.538522 111.317861 
C 81.104463 112.748762 80.740919 114.200111 80.449203 115.666666 
C 80.157487 117.133222 79.93795 118.613216 79.791386 120.101303 
z
" clip-path="url(#p3c091d161e)" style="fill: #a1a1d8"/>
   </g>
   <g id="patch_61">
    <path d="M 125.254844 124.579062 
C 125.254844 124.579062 125.254844 124.579062 125.254844 124.579062 
C 125.254844 124.579062 125.254844 124.579062 125.254844 124.579062 
L 81.899636 101.405221 
C 81.141122 102.824302 80.452738 104.279768 79.83697 105.766363 
C 79.221202 107.252958 78.678793 108.768889 78.211703 110.308682 
z
" clip-path="url(#p3c091d161e)" style="fill: #a1a1d8"/>
   </g>
   <g id="patch_62">
    <path d="M 125.254844 124.579062 
C 125.254844 124.579062 125.254844 124.579062 125.254844 124.579062 
C 125.254844 124.579062 125.254844 124.579062 125.254844 124.579062 
L 96.009276 100.577845 
C 95.22368 101.535096 94.485556 102.530341 93.797571 103.559985 
C 93.109585 104.589628 92.472566 105.652429 91.888816 106.744549 
z
" clip-path="url(#p3c091d161e)" style="fill: #a1a1d8"/>
   </g>
   <g id="patch_63">
    <path d="M 125.254844 124.579062 
C 125.254844 124.579062 125.254844 124.579062 125.254844 124.579062 
C 125.254844 124.579062 125.254844 124.579062 125.254844 124.579062 
L 100.987234 95.008895 
C 100.019358 95.80321 99.091065 96.644566 98.205706 97.529925 
C 97.320347 98.415283 96.478991 99.343577 95.684676 100.311453 
z
" clip-path="url(#p3c091d161e)" style="fill: #a1a1d8"/>
   </g>
   <g id="patch_64">
    <path d="M 125.254844 124.579062 
C 125.254844 124.579062 125.254844 124.579062 125.254844 124.579062 
C 125.254844 124.579062 125.254844 124.579062 125.254844 124.579062 
L 105.739929 88.069225 
C 104.544908 88.707978 103.381968 89.405017 102.255309 90.157826 
C 101.128651 90.910636 100.039632 91.718307 98.992187 92.577923 
z
" clip-path="url(#p3c091d161e)" style="fill: #a1a1d8"/>
   </g>
   <g id="patch_65">
    <path d="M 125.254844 124.579062 
C 125.254844 124.579062 125.254844 124.579062 125.254844 124.579062 
C 125.254844 124.579062 125.254844 124.579062 125.254844 124.579062 
L 112.099635 81.212153 
C 110.680172 81.642742 109.282704 82.142764 107.912281 82.710412 
C 106.541857 83.27806 105.20013 83.91265 103.891945 84.61189 
z
" clip-path="url(#p3c091d161e)" style="fill: #a1a1d8"/>
   </g>
   <g id="patch_66">
    <path d="M 125.254844 124.579062 
C 125.254844 124.579062 125.254844 124.579062 125.254844 124.579062 
C 125.254844 124.579062 125.254844 124.579062 125.254844 124.579062 
L 121.099946 82.393674 
C 119.719155 82.52967 118.345873 82.733377 116.985061 83.004059 
C 115.62425 83.274742 114.277548 83.612073 112.94982 84.014835 
z
" clip-path="url(#p3c091d161e)" style="fill: #a1a1d8"/>
   </g>
   <g id="patch_67">
    <path d="M 119.654971 67.722601 
C 121.515968 67.539309 123.384842 67.447497 125.254844 67.447497 
C 127.124845 67.447497 128.99372 67.539309 130.854716 67.722601 
L 134.648648 29.202163 
C 131.52682 28.89469 128.391777 28.740675 125.254844 28.740675 
C 122.11791 28.740675 118.982867 28.89469 115.861039 29.202163 
z
" clip-path="url(#p3c091d161e)" style="fill: #ff8c8e"/>
   </g>
   <g id="patch_68">
    <path d="M 132.742323 48.557407 
C 135.230626 48.802483 137.705396 49.16958 140.157694 49.657373 
C 142.609993 50.145165 145.036865 50.753065 147.429543 51.478876 
L 152.699171 34.107239 
C 149.737894 33.208945 146.734297 32.456583 143.69923 31.852871 
C 140.664163 31.249159 137.601285 30.794824 134.521659 30.491507 
z
" clip-path="url(#p3c091d161e)" style="fill: #ff8c8e"/>
   </g>
   <g id="patch_69">
    <path d="M 140.758598 73.470035 
C 142.431473 73.977496 144.078424 74.566784 145.693504 75.235772 
C 147.308583 75.90476 148.889844 76.652641 150.431574 77.476713 
L 162.770962 54.391343 
C 160.473613 53.163384 158.117359 52.048959 155.710712 51.052093 
C 153.304064 50.055227 150.849924 49.177122 148.357155 48.420949 
z
" clip-path="url(#p3c091d161e)" style="fill: #ff8c8e"/>
   </g>
   <g id="patch_70">
    <path d="M 148.672498 80.767712 
C 150.106509 81.534207 151.502023 82.370646 152.853999 83.274007 
C 154.205975 84.177369 155.512784 85.146564 156.769705 86.178093 
L 167.604533 72.975817 
C 165.915482 71.589648 164.159392 70.287243 162.342605 69.073305 
C 160.525819 67.859367 158.650527 66.73536 156.723502 65.705344 
z
" clip-path="url(#p3c091d161e)" style="fill: #ff8c8e"/>
   </g>
   <g id="patch_71">
    <path d="M 151.093005 93.095172 
C 152.12352 93.940893 153.111891 94.8367 154.054548 95.779358 
C 154.997206 96.722015 155.893013 97.710386 156.738735 98.740901 
L 183.102697 77.104556 
C 181.548786 75.211109 179.902848 73.395097 178.170829 71.663078 
C 176.438809 69.931058 174.622797 68.285121 172.72935 66.731209 
z
" clip-path="url(#p3c091d161e)" style="fill: #ff8c8e"/>
   </g>
   <g id="patch_72">
    <path d="M 156.507456 98.930707 
C 157.346965 99.953651 158.135744 101.017197 158.870945 102.117502 
C 159.606145 103.217807 160.28688 104.353546 160.910692 105.520615 
L 184.983429 92.653469 
C 183.938456 90.698463 182.798128 88.795941 181.566564 86.952774 
C 180.334999 85.109607 179.013682 83.328018 177.607386 81.614441 
z
" clip-path="url(#p3c091d161e)" style="fill: #ff8c8e"/>
   </g>
   <g id="patch_73">
    <path d="M 183.840837 93.264197 
C 184.865819 95.181804 185.796034 97.148579 186.628123 99.157418 
C 187.460211 101.166257 188.19317 103.214739 188.824351 105.295463 
L 219.98573 95.842762 
C 219.045148 92.742079 217.952898 89.689445 216.712925 86.695885 
C 215.472952 83.702325 214.086751 80.771449 212.559328 77.913843 
z
" clip-path="url(#p3c091d161e)" style="fill: #ff8c8e"/>
   </g>
   <g id="patch_74">
    <path d="M 165.427698 112.39276 
C 165.826574 113.707678 166.160651 115.041387 166.428721 116.389069 
C 166.696792 117.736752 166.898534 119.096783 167.033218 120.464252 
L 191.278711 118.076279 
C 191.065865 115.915219 190.747046 113.765912 190.323404 111.636121 
C 189.899762 109.50633 189.371809 107.398622 188.741451 105.320611 
z
" clip-path="url(#p3c091d161e)" style="fill: #ff8c8e"/>
   </g>
   <g id="patch_75">
    <path d="M 168.827598 120.287521 
C 168.968067 121.713722 169.038428 123.14596 169.038428 124.579062 
C 169.038428 126.012165 168.968067 127.444403 168.827598 128.870604 
L 183.994623 130.364426 
C 184.183986 128.441785 184.278839 126.511006 184.278839 124.579062 
C 184.278839 122.647119 184.183986 120.71634 183.994623 118.793699 
z
" clip-path="url(#p3c091d161e)" style="fill: #ff8c8e"/>
   </g>
   <g id="patch_76">
    <path d="M 165.110618 128.504514 
C 164.982132 129.809053 164.789674 131.106497 164.53394 132.39216 
C 164.278205 133.677824 163.959503 134.950157 163.578983 136.204563 
L 172.792928 138.999583 
C 173.264933 137.44359 173.660259 135.865361 173.977477 134.270597 
C 174.294696 132.675832 174.533424 131.066454 174.692801 129.448276 
z
" clip-path="url(#p3c091d161e)" style="fill: #ff8c8e"/>
   </g>
   <g id="patch_77">
    <path d="M 150.900789 132.358675 
C 150.64615 133.198105 150.350452 134.024527 150.014761 134.834956 
C 149.67907 135.645385 149.303792 136.438844 148.890282 137.212467 
L 167.04571 146.916746 
C 167.776856 145.548869 168.440402 144.145918 169.033952 142.712963 
C 169.627501 141.280007 170.150339 139.818774 170.600576 138.33454 
z
" clip-path="url(#p3c091d161e)" style="fill: #ff8c8e"/>
   </g>
   <g id="patch_78">
    <path d="M 141.144421 133.072219 
C 140.866428 133.592308 140.563067 134.098436 140.235434 134.588773 
C 139.907801 135.07911 139.556291 135.553065 139.182175 136.008928 
L 147.101806 142.508401 
C 147.68866 141.793317 148.240051 141.049851 148.753989 140.280689 
C 149.267927 139.511527 149.743791 138.717596 150.179863 137.901763 
z
" clip-path="url(#p3c091d161e)" style="fill: #ff8c8e"/>
   </g>
   <g id="patch_79">
    <path d="M 130.120393 128.572116 
C 129.989695 128.731373 129.851256 128.884116 129.705577 129.029795 
C 129.559898 129.175475 129.407154 129.313914 129.247897 129.444612 
L 129.247897 129.444612 
C 129.407154 129.313914 129.559898 129.175475 129.705577 129.029795 
C 129.851256 128.884116 129.989695 128.731373 130.120393 128.572116 
z
" clip-path="url(#p3c091d161e)" style="fill: #ff8c8e"/>
   </g>
   <g id="patch_80">
    <path d="M 135.81947 137.452097 
C 135.398116 137.797893 134.960039 138.122793 134.50682 138.425624 
C 134.053602 138.728455 133.585788 139.008852 133.105069 139.265801 
L 137.182939 146.89496 
C 137.913372 146.504536 138.624196 146.078484 139.312843 145.618345 
C 140.00149 145.158206 140.667131 144.664533 141.30736 144.13911 
z
" clip-path="url(#p3c091d161e)" style="fill: #ff8c8e"/>
   </g>
   <g id="patch_81">
    <path d="M 131.469566 136.205989 
C 131.088999 136.409406 130.698674 136.594016 130.300002 136.759152 
C 129.901329 136.924287 129.494789 137.06975 129.081851 137.195013 
L 129.081851 137.195013 
C 129.494789 137.06975 129.901329 136.924287 130.300002 136.759152 
C 130.698674 136.594016 131.088999 136.409406 131.469566 136.205989 
z
" clip-path="url(#p3c091d161e)" style="fill: #ff8c8e"/>
   </g>
   <g id="patch_82">
    <path d="M 131.252244 144.349842 
C 130.605117 144.546146 129.948742 144.710559 129.28549 144.842488 
C 128.622238 144.974418 127.952908 145.073703 127.279918 145.139987 
L 127.380493 146.161143 
C 128.086907 146.091567 128.789479 145.987351 129.485671 145.848869 
C 130.181864 145.710388 130.870838 145.537809 131.550104 145.331756 
z
" clip-path="url(#p3c091d161e)" style="fill: #ff8c8e"/>
   </g>
   <g id="patch_83">
    <path d="M 127.394885 146.307265 
C 126.683688 146.377311 125.969481 146.412398 125.254844 146.412398 
C 124.540206 146.412398 123.825999 146.377311 123.114803 146.307265 
L 122.992098 147.553104 
C 123.744073 147.627167 124.499231 147.664266 125.254844 147.664266 
C 126.010457 147.664266 126.765615 147.627167 127.517589 147.553104 
z
" clip-path="url(#p3c091d161e)" style="fill: #ff8c8e"/>
   </g>
   <g id="patch_84">
    <path d="M 123.000252 147.470314 
C 122.250987 147.396518 121.505797 147.28598 120.767374 147.139098 
C 120.02895 146.992216 119.298183 146.809169 118.577712 146.590616 
L 118.577712 146.590616 
C 119.298183 146.809169 120.02895 146.992216 120.767374 147.139098 
C 121.505797 147.28598 122.250987 147.396518 123.000252 147.470314 
z
" clip-path="url(#p3c091d161e)" style="fill: #ff8c8e"/>
   </g>
   <g id="patch_85">
    <path d="M 119.21272 144.497276 
C 118.560767 144.299508 117.918917 144.06985 117.289488 143.809132 
C 116.660059 143.548414 116.04381 143.25695 115.442967 142.935793 
L 115.442967 142.935793 
C 116.04381 143.25695 116.660059 143.548414 117.289488 143.809132 
C 117.918917 144.06985 118.560767 144.299508 119.21272 144.497276 
z
" clip-path="url(#p3c091d161e)" style="fill: #ff8c8e"/>
   </g>
   <g id="patch_86">
    <path d="M 119.540042 135.270705 
C 119.190089 135.083651 118.84953 134.879528 118.519596 134.659073 
C 118.189662 134.438618 117.870751 134.202098 117.564014 133.950365 
L 117.564014 133.950365 
C 117.870751 134.202098 118.189662 134.438618 118.519596 134.659073 
C 118.84953 134.879528 119.190089 135.083651 119.540042 135.270705 
z
" clip-path="url(#p3c091d161e)" style="fill: #ff8c8e"/>
   </g>
   <g id="patch_87">
    <path d="M 110.487337 142.573321 
C 109.898358 142.089959 109.333466 141.57797 108.794701 141.039205 
C 108.255936 140.50044 107.743947 139.935548 107.260585 139.346569 
L 107.260585 139.346569 
C 107.743947 139.935548 108.255936 140.50044 108.794701 141.039205 
C 109.333466 141.57797 109.898358 142.089959 110.487337 142.573321 
z
" clip-path="url(#p3c091d161e)" style="fill: #ff8c8e"/>
   </g>
   <g id="patch_88">
    <path d="M 125.254844 124.579062 
C 125.254844 124.579062 125.254844 124.579062 125.254844 124.579062 
C 125.254844 124.579062 125.254844 124.579062 125.254844 124.579062 
L 125.254844 124.579062 
C 125.254844 124.579062 125.254844 124.579062 125.254844 124.579062 
C 125.254844 124.579062 125.254844 124.579062 125.254844 124.579062 
z
" clip-path="url(#p3c091d161e)" style="fill: #ff8c8e"/>
   </g>
   <g id="patch_89">
    <path d="M 98.933269 138.648238 
C 98.472763 137.786693 98.054835 136.903058 97.680994 136.000525 
C 97.307152 135.097992 96.977848 134.177648 96.69427 133.242818 
L 94.82927 133.808559 
C 95.131365 134.804434 95.482173 135.784876 95.880427 136.746345 
C 96.27868 137.707813 96.723899 138.649149 97.214475 139.566952 
z
" clip-path="url(#p3c091d161e)" style="fill: #ff8c8e"/>
   </g>
   <g id="patch_90">
    <path d="M 90.384332 135.156917 
C 90.038103 134.015553 89.748121 132.857878 89.515432 131.688073 
C 89.282744 130.518269 89.10763 129.337746 88.990722 128.150767 
L 83.84162 128.657909 
C 83.975127 130.013426 84.175106 131.36157 84.440833 132.697474 
C 84.706561 134.033377 85.037718 135.355429 85.433107 136.658854 
z
" clip-path="url(#p3c091d161e)" style="fill: #ff8c8e"/>
   </g>
   <g id="patch_91">
    <path d="M 98.77446 127.187153 
C 98.689093 126.32041 98.646333 125.449999 98.646333 124.579062 
C 98.646333 123.708126 98.689093 122.837715 98.77446 121.970972 
L 92.862181 121.388664 
C 92.757754 122.448924 92.705447 123.513672 92.705447 124.579062 
C 92.705447 125.644453 92.757754 126.709201 92.862181 127.769461 
z
" clip-path="url(#p3c091d161e)" style="fill: #ff8c8e"/>
   </g>
   <g id="patch_92">
    <path d="M 79.791386 120.101303 
C 79.93795 118.613216 80.157487 117.133222 80.449203 115.666666 
C 80.740919 114.200111 81.104463 112.748762 81.538522 111.317861 
L 66.98761 106.90389 
C 66.409075 108.811064 65.924526 110.745492 65.535713 112.700189 
C 65.1469 114.654885 64.854291 116.627493 64.658944 118.610887 
z
" clip-path="url(#p3c091d161e)" style="fill: #ff8c8e"/>
   </g>
   <g id="patch_93">
    <path d="M 78.211703 110.308682 
C 78.678793 108.768889 79.221202 107.252958 79.83697 105.766363 
C 80.452738 104.279768 81.141122 102.824302 81.899636 101.405221 
L 56.954832 88.071945 
C 55.759899 90.307507 54.675447 92.600389 53.705392 94.942309 
C 52.735336 97.284229 51.880848 99.672365 51.145012 102.098091 
z
" clip-path="url(#p3c091d161e)" style="fill: #ff8c8e"/>
   </g>
   <g id="patch_94">
    <path d="M 91.888816 106.744549 
C 92.472566 105.652429 93.109585 104.589628 93.797571 103.559985 
C 94.485556 102.530341 95.22368 101.535096 96.009276 100.577845 
L 76.622898 84.667856 
C 75.316544 86.259652 74.089131 87.914627 72.945091 89.626803 
C 71.801052 91.33898 70.741765 93.106293 69.771057 94.92236 
z
" clip-path="url(#p3c091d161e)" style="fill: #ff8c8e"/>
   </g>
   <g id="patch_95">
    <path d="M 95.684676 100.311453 
C 96.478991 99.343577 97.320347 98.415283 98.205706 97.529925 
C 99.091065 96.644566 100.019358 95.80321 100.987234 95.008895 
L 80.790085 70.398597 
C 79.016677 71.853995 77.315794 73.395585 75.69358 75.017799 
C 74.071366 76.640013 72.529776 78.340896 71.074378 80.114303 
z
" clip-path="url(#p3c091d161e)" style="fill: #ff8c8e"/>
   </g>
   <g id="patch_96">
    <path d="M 98.992187 92.577923 
C 100.039632 91.718307 101.128651 90.910636 102.255309 90.157826 
C 103.381968 89.405017 104.544908 88.707978 105.739929 88.069225 
L 94.030799 66.162983 
C 92.118753 67.184992 90.258038 68.300262 88.455374 69.504764 
C 86.65271 70.709265 84.91027 72.001547 83.234348 73.37694 
z
" clip-path="url(#p3c091d161e)" style="fill: #ff8c8e"/>
   </g>
   <g id="patch_97">
    <path d="M 103.891945 84.61189 
C 105.20013 83.91265 106.541857 83.27806 107.912281 82.710412 
C 109.282704 82.142764 110.680172 81.642742 112.099635 81.212153 
L 104.265226 55.385566 
C 102.00042 56.072588 99.770709 56.870391 97.584148 57.776094 
C 95.397587 58.681797 93.256812 59.694308 91.169554 60.809971 
z
" clip-path="url(#p3c091d161e)" style="fill: #ff8c8e"/>
   </g>
   <g id="patch_98">
    <path d="M 112.94982 84.014835 
C 114.277548 83.612073 115.62425 83.274742 116.985061 83.004059 
C 118.345873 82.733377 119.719155 82.52967 121.099946 82.393674 
L 119.08835 61.969597 
C 117.039048 62.171436 115.000892 62.473768 112.981242 62.875501 
C 110.961593 63.277234 108.962884 63.777885 106.992336 64.375644 
z
" clip-path="url(#p3c091d161e)" style="fill: #ff8c8e"/>
   </g>
   <g id="patch_99">
    <path d="M 115.861039 29.202163 
C 118.982867 28.89469 122.11791 28.740675 125.254844 28.740675 
C 128.391777 28.740675 131.52682 28.89469 134.648648 29.202163 
L 136.122984 14.232981 
C 132.511192 13.87725 128.884112 13.699063 125.254844 13.699063 
C 121.625576 13.699063 117.998495 13.87725 114.386703 14.232981 
z
" clip-path="url(#p3c091d161e)" style="fill: #828282"/>
   </g>
   <g id="patch_100">
    <path d="M 134.521659 30.491507 
C 137.601285 30.794824 140.664163 31.249159 143.69923 31.852871 
C 146.734297 32.456583 149.737894 33.208945 152.699171 34.107239 
L 154.935017 26.736643 
C 151.732489 25.765167 148.484194 24.951511 145.201865 24.298616 
C 141.919536 23.64572 138.60713 23.154371 135.276612 22.826344 
z
" clip-path="url(#p3c091d161e)" style="fill: #828282"/>
   </g>
   <g id="patch_101">
    <path d="M 148.357155 48.420949 
C 150.849924 49.177122 153.304064 50.055227 155.710712 51.052093 
C 158.117359 52.048959 160.473613 53.163384 162.770962 54.391343 
L 165.194512 49.857198 
C 162.748754 48.549913 160.240286 47.363496 157.678168 46.302233 
C 155.116051 45.240969 152.503372 44.306137 149.84957 43.501115 
z
" clip-path="url(#p3c091d161e)" style="fill: #828282"/>
   </g>
   <g id="patch_102">
    <path d="M 156.723502 65.705344 
C 158.650527 66.73536 160.525819 67.859367 162.342605 69.073305 
C 164.159392 70.287243 165.915482 71.589648 167.604533 72.975817 
L 170.076756 69.963405 
C 168.289104 68.496317 166.430499 67.117882 164.507655 65.833079 
C 162.584811 64.548276 160.600046 63.358653 158.560529 62.268508 
z
" clip-path="url(#p3c091d161e)" style="fill: #828282"/>
   </g>
   <g id="patch_103">
    <path d="M 172.72935 66.731209 
C 174.622797 68.285121 176.438809 69.931058 178.170829 71.663078 
C 179.902848 73.395097 181.548786 75.211109 183.102697 77.104556 
L 190.597352 70.953852 
C 188.842119 68.815094 186.982937 66.763802 185.02652 64.807386 
C 183.070104 62.85097 181.018812 60.991787 178.880055 59.236554 
z
" clip-path="url(#p3c091d161e)" style="fill: #828282"/>
   </g>
   <g id="patch_104">
    <path d="M 177.607386 81.614441 
C 179.013682 83.328018 180.334999 85.109607 181.566564 86.952774 
C 182.798128 88.795941 183.938456 90.698463 184.983429 92.653469 
L 190.996443 89.439446 
C 189.846271 87.287625 188.591144 85.193571 187.235594 83.164849 
C 185.880045 81.136126 184.425709 79.17518 182.877837 77.289094 
z
" clip-path="url(#p3c091d161e)" style="fill: #828282"/>
   </g>
   <g id="patch_105">
    <path d="M 212.559328 77.913843 
C 214.086751 80.771449 215.472952 83.702325 216.712925 86.695885 
C 217.952898 89.689445 219.045148 92.742079 219.98573 95.842762 
L 223.699453 94.716217 
C 222.721998 91.493978 221.586928 88.321671 220.298345 85.210755 
C 219.009761 82.09984 217.569217 79.054065 215.981915 76.084432 
z
" clip-path="url(#p3c091d161e)" style="fill: #828282"/>
   </g>
   <g id="patch_106">
    <path d="M 188.741451 105.320611 
C 189.371809 107.398622 189.899762 109.50633 190.323404 111.636121 
C 190.747046 113.765912 191.065865 115.915219 191.278711 118.076279 
L 195.621808 117.648521 
C 195.394961 115.345306 195.055169 113.054616 194.60366 110.784725 
C 194.15215 108.514835 193.589468 106.268481 192.917645 104.053776 
z
" clip-path="url(#p3c091d161e)" style="fill: #828282"/>
   </g>
   <g id="patch_107">
    <path d="M 183.994623 118.793699 
C 184.183986 120.71634 184.278839 122.647119 184.278839 124.579062 
C 184.278839 126.511006 184.183986 128.441785 183.994623 130.364426 
L 185.189163 130.482078 
C 185.382378 128.520338 185.47916 126.550294 185.47916 124.579062 
C 185.47916 122.607831 185.382378 120.637787 185.189163 118.676047 
z
" clip-path="url(#p3c091d161e)" style="fill: #828282"/>
   </g>
   <g id="patch_108">
    <path d="M 174.692801 129.448276 
C 174.533424 131.066454 174.294696 132.675832 173.977477 134.270597 
C 173.660259 135.865361 173.264933 137.44359 172.792928 138.999583 
L 174.545456 139.531206 
C 175.034862 137.917851 175.444762 136.28144 175.773675 134.627883 
C 176.102588 132.974326 176.350117 131.305617 176.51537 129.627784 
z
" clip-path="url(#p3c091d161e)" style="fill: #828282"/>
   </g>
   <g id="patch_109">
    <path d="M 170.600576 138.33454 
C 170.150339 139.818774 169.627501 141.280007 169.033952 142.712963 
C 168.440402 144.145918 167.776856 145.548869 167.04571 146.916746 
L 167.647898 147.238622 
C 168.389579 145.851034 169.062687 144.427868 169.664789 142.974264 
C 170.266892 141.52066 170.797263 140.038371 171.253988 138.53275 
z
" clip-path="url(#p3c091d161e)" style="fill: #828282"/>
   </g>
   <g id="patch_110">
    <path d="M 150.179863 137.901763 
C 149.743791 138.717596 149.267927 139.511527 148.753989 140.280689 
C 148.240051 141.049851 147.68866 141.793317 147.101806 142.508401 
L 148.143121 143.362986 
C 148.757947 142.613819 149.33562 141.834916 149.874054 141.029093 
C 150.412488 140.223269 150.911034 139.391496 151.367891 138.536777 
z
" clip-path="url(#p3c091d161e)" style="fill: #828282"/>
   </g>
   <g id="patch_111">
    <path d="M 130.120393 128.572116 
C 129.989695 128.731373 129.851256 128.884116 129.705577 129.029795 
C 129.559898 129.175475 129.407154 129.313914 129.247897 129.444612 
L 136.885444 138.75099 
C 137.349312 138.370303 137.79421 137.967071 138.218531 137.54275 
C 138.642852 137.118429 139.046084 136.673531 139.426771 136.209663 
z
" clip-path="url(#p3c091d161e)" style="fill: #828282"/>
   </g>
   <g id="patch_112">
    <path d="M 141.30736 144.13911 
C 140.667131 144.664533 140.00149 145.158206 139.312843 145.618345 
C 138.624196 146.078484 137.913372 146.504536 137.182939 146.89496 
L 137.488536 147.466691 
C 138.237683 147.066264 138.966717 146.629298 139.673008 146.15737 
C 140.379298 145.685442 141.061992 145.179121 141.718624 144.640237 
z
" clip-path="url(#p3c091d161e)" style="fill: #828282"/>
   </g>
   <g id="patch_113">
    <path d="M 131.469566 136.205989 
C 131.088999 136.409406 130.698674 136.594016 130.300002 136.759152 
C 129.901329 136.924287 129.494789 137.06975 129.081851 137.195013 
L 129.095895 137.241311 
C 129.510349 137.115587 129.918381 136.969591 130.318516 136.80385 
C 130.718652 136.638108 131.110409 136.452821 131.492372 136.248657 
z
" clip-path="url(#p3c091d161e)" style="fill: #828282"/>
   </g>
   <g id="patch_114">
    <path d="M 131.550104 145.331756 
C 130.870838 145.537809 130.181864 145.710388 129.485671 145.848869 
C 128.789479 145.987351 128.086907 146.091567 127.380493 146.161143 
L 127.895683 151.391949 
C 128.773308 151.30551 129.646161 151.176035 130.511089 151.00399 
C 131.376016 150.831945 132.231975 150.617538 133.075874 150.361544 
z
" clip-path="url(#p3c091d161e)" style="fill: #828282"/>
   </g>
   <g id="patch_115">
    <path d="M 127.517589 147.553104 
C 126.765615 147.627167 126.010457 147.664266 125.254844 147.664266 
C 124.499231 147.664266 123.744073 147.627167 122.992098 147.553104 
L 122.254855 155.038464 
C 123.251836 155.136658 124.253038 155.185844 125.254844 155.185844 
C 126.256649 155.185844 127.257851 155.136658 128.254833 155.038464 
z
" clip-path="url(#p3c091d161e)" style="fill: #828282"/>
   </g>
   <g id="patch_116">
    <path d="M 123.000252 147.470314 
C 122.250987 147.396518 121.505797 147.28598 120.767374 147.139098 
C 120.02895 146.992216 119.298183 146.809169 118.577712 146.590616 
L 118.577712 146.590616 
C 119.298183 146.809169 120.02895 146.992216 120.767374 147.139098 
C 121.505797 147.28598 122.250987 147.396518 123.000252 147.470314 
z
" clip-path="url(#p3c091d161e)" style="fill: #828282"/>
   </g>
   <g id="patch_117">
    <path d="M 119.21272 144.497276 
C 118.560767 144.299508 117.918917 144.06985 117.289488 143.809132 
C 116.660059 143.548414 116.04381 143.25695 115.442967 142.935793 
L 115.442967 142.935793 
C 116.04381 143.25695 116.660059 143.548414 117.289488 143.809132 
C 117.918917 144.06985 118.560767 144.299508 119.21272 144.497276 
z
" clip-path="url(#p3c091d161e)" style="fill: #828282"/>
   </g>
   <g id="patch_118">
    <path d="M 119.540042 135.270705 
C 119.190089 135.083651 118.84953 134.879528 118.519596 134.659073 
C 118.189662 134.438618 117.870751 134.202098 117.564014 133.950365 
L 117.564014 133.950365 
C 117.870751 134.202098 118.189662 134.438618 118.519596 134.659073 
C 118.84953 134.879528 119.190089 135.083651 119.540042 135.270705 
z
" clip-path="url(#p3c091d161e)" style="fill: #828282"/>
   </g>
   <g id="patch_119">
    <path d="M 110.487337 142.573321 
C 109.898358 142.089959 109.333466 141.57797 108.794701 141.039205 
C 108.255936 140.50044 107.743947 139.935548 107.260585 139.346569 
L 107.260585 139.346569 
C 107.743947 139.935548 108.255936 140.50044 108.794701 141.039205 
C 109.333466 141.57797 109.898358 142.089959 110.487337 142.573321 
z
" clip-path="url(#p3c091d161e)" style="fill: #828282"/>
   </g>
   <g id="patch_120">
    <path d="M 125.254844 124.579062 
C 125.254844 124.579062 125.254844 124.579062 125.254844 124.579062 
C 125.254844 124.579062 125.254844 124.579062 125.254844 124.579062 
L 125.254844 124.579062 
C 125.254844 124.579062 125.254844 124.579062 125.254844 124.579062 
C 125.254844 124.579062 125.254844 124.579062 125.254844 124.579062 
z
" clip-path="url(#p3c091d161e)" style="fill: #828282"/>
   </g>
   <g id="patch_121">
    <path d="M 97.214475 139.566952 
C 96.723899 138.649149 96.27868 137.707813 95.880427 136.746345 
C 95.482173 135.784876 95.131365 134.804434 94.82927 133.808559 
L 94.82927 133.808559 
C 95.131365 134.804434 95.482173 135.784876 95.880427 136.746345 
C 96.27868 137.707813 96.723899 138.649149 97.214475 139.566952 
z
" clip-path="url(#p3c091d161e)" style="fill: #828282"/>
   </g>
   <g id="patch_122">
    <path d="M 85.433107 136.658854 
C 85.037718 135.355429 84.706561 134.033377 84.440833 132.697474 
C 84.175106 131.36157 83.975127 130.013426 83.84162 128.657909 
L 83.84162 128.657909 
C 83.975127 130.013426 84.175106 131.36157 84.440833 132.697474 
C 84.706561 134.033377 85.037718 135.355429 85.433107 136.658854 
z
" clip-path="url(#p3c091d161e)" style="fill: #828282"/>
   </g>
   <g id="patch_123">
    <path d="M 92.862181 127.769461 
C 92.757754 126.709201 92.705447 125.644453 92.705447 124.579062 
C 92.705447 123.513672 92.757754 122.448924 92.862181 121.388664 
L 81.667568 120.286091 
C 81.527052 121.712767 81.456668 123.145483 81.456668 124.579062 
C 81.456668 126.012642 81.527052 127.445358 81.667568 128.872034 
z
" clip-path="url(#p3c091d161e)" style="fill: #828282"/>
   </g>
   <g id="patch_124">
    <path d="M 64.658944 118.610887 
C 64.854291 116.627493 65.1469 114.654885 65.535713 112.700189 
C 65.924526 110.745492 66.409075 108.811064 66.98761 106.90389 
L 57.0923 103.902181 
C 56.415515 106.133243 55.848676 108.396188 55.393832 110.682843 
C 54.938988 112.969499 54.596687 115.277107 54.368164 117.597334 
z
" clip-path="url(#p3c091d161e)" style="fill: #828282"/>
   </g>
   <g id="patch_125">
    <path d="M 51.145012 102.098091 
C 51.880848 99.672365 52.735336 97.284229 53.705392 94.942309 
C 54.675447 92.600389 55.759899 90.307507 56.954832 88.071945 
L 56.563008 87.862512 
C 55.361221 90.110898 54.270547 92.416934 53.294927 94.772289 
C 52.319307 97.127645 51.459916 99.529481 50.719859 101.969122 
z
" clip-path="url(#p3c091d161e)" style="fill: #828282"/>
   </g>
   <g id="patch_126">
    <path d="M 69.771057 94.92236 
C 70.741765 93.106293 71.801052 91.33898 72.945091 89.626803 
C 74.089131 87.914627 75.316544 86.259652 76.622898 84.667856 
L 76.224108 84.340578 
C 74.907043 85.945427 73.669564 87.613973 72.516143 89.34019 
C 71.362723 91.066406 70.294749 92.848212 69.316081 94.679171 
z
" clip-path="url(#p3c091d161e)" style="fill: #828282"/>
   </g>
   <g id="patch_127">
    <path d="M 71.074378 80.114303 
C 72.529776 78.340896 74.071366 76.640013 75.69358 75.017799 
C 77.315794 73.395585 79.016677 71.853995 80.790085 70.398597 
L 66.376687 52.835821 
C 64.028423 54.762991 61.776194 56.804292 59.628134 58.952353 
C 57.480074 61.100413 55.438772 63.352642 53.511602 65.700906 
z
" clip-path="url(#p3c091d161e)" style="fill: #828282"/>
   </g>
   <g id="patch_128">
    <path d="M 83.234348 73.37694 
C 84.91027 72.001547 86.65271 70.709265 88.455374 69.504764 
C 90.258038 68.300262 92.118753 67.184992 94.030799 66.162983 
L 93.40495 64.992102 
C 91.45458 66.034597 89.556569 67.172221 87.717772 68.400865 
C 85.878976 69.62951 84.101611 70.947693 82.392097 72.350655 
z
" clip-path="url(#p3c091d161e)" style="fill: #828282"/>
   </g>
   <g id="patch_129">
    <path d="M 91.169554 60.809971 
C 93.256812 59.694308 95.397587 58.681797 97.584148 57.776094 
C 99.770709 56.870391 102.00042 56.072588 104.265226 55.385566 
L 95.603711 26.832376 
C 92.404316 27.802902 89.254499 28.929925 86.165638 30.209373 
C 83.076777 31.488821 80.052596 32.919152 77.104016 34.495201 
z
" clip-path="url(#p3c091d161e)" style="fill: #828282"/>
   </g>
   <g id="patch_130">
    <path d="M 106.992336 64.375644 
C 108.962884 63.777885 110.961593 63.277234 112.981242 62.875501 
C 115.000892 62.473768 117.039048 62.171436 119.08835 61.969597 
L 116.676053 37.477136 
C 113.825077 37.757932 110.989605 38.178535 108.17988 38.737424 
C 105.370155 39.296313 102.589564 39.992815 99.848149 40.824414 
z
" clip-path="url(#p3c091d161e)" style="fill: #828282"/>
   </g>
   <g id="patch_131">
    <path d="M 125.254844 124.579062 
C 125.254844 124.579062 125.254844 124.579062 125.254844 124.579062 
C 125.254844 124.579062 125.254844 124.579062 125.254844 124.579062 
L 136.122984 14.232981 
C 132.511192 13.87725 128.884112 13.699063 125.254844 13.699063 
C 121.625576 13.699063 117.998495 13.87725 114.386703 14.232981 
L 125.254844 124.579062 
z
" clip-path="url(#p3c091d161e)" style="fill: none; stroke: #292929; stroke-width: 0.5; stroke-linejoin: miter"/>
   </g>
   <g id="patch_132">
    <path d="M 125.254844 124.579062 
C 125.254844 124.579062 125.254844 124.579062 125.254844 124.579062 
C 125.254844 124.579062 125.254844 124.579062 125.254844 124.579062 
L 154.935017 26.736643 
C 151.732489 25.765167 148.484194 24.951511 145.201865 24.298616 
C 141.919536 23.64572 138.60713 23.154371 135.276612 22.826344 
L 125.254844 124.579062 
z
" clip-path="url(#p3c091d161e)" style="fill: none; stroke: #292929; stroke-width: 0.5; stroke-linejoin: miter"/>
   </g>
   <g id="patch_133">
    <path d="M 125.254844 124.579062 
C 125.254844 124.579062 125.254844 124.579062 125.254844 124.579062 
C 125.254844 124.579062 125.254844 124.579062 125.254844 124.579062 
L 165.194512 49.857198 
C 162.748754 48.549913 160.240286 47.363496 157.678168 46.302233 
C 155.116051 45.240969 152.503372 44.306137 149.84957 43.501115 
L 125.254844 124.579062 
z
" clip-path="url(#p3c091d161e)" style="fill: none; stroke: #292929; stroke-width: 0.5; stroke-linejoin: miter"/>
   </g>
   <g id="patch_134">
    <path d="M 125.254844 124.579062 
C 125.254844 124.579062 125.254844 124.579062 125.254844 124.579062 
C 125.254844 124.579062 125.254844 124.579062 125.254844 124.579062 
L 170.076756 69.963405 
C 168.289104 68.496317 166.430499 67.117882 164.507655 65.833079 
C 162.584811 64.548276 160.600046 63.358653 158.560529 62.268508 
L 125.254844 124.579062 
z
" clip-path="url(#p3c091d161e)" style="fill: none; stroke: #292929; stroke-width: 0.5; stroke-linejoin: miter"/>
   </g>
   <g id="patch_135">
    <path d="M 125.254844 124.579062 
C 125.254844 124.579062 125.254844 124.579062 125.254844 124.579062 
C 125.254844 124.579062 125.254844 124.579062 125.254844 124.579062 
L 190.597352 70.953852 
C 188.842119 68.815094 186.982937 66.763802 185.02652 64.807386 
C 183.070104 62.85097 181.018812 60.991787 178.880055 59.236554 
L 125.254844 124.579062 
z
" clip-path="url(#p3c091d161e)" style="fill: none; stroke: #292929; stroke-width: 0.5; stroke-linejoin: miter"/>
   </g>
   <g id="patch_136">
    <path d="M 125.254844 124.579062 
C 125.254844 124.579062 125.254844 124.579062 125.254844 124.579062 
C 125.254844 124.579062 125.254844 124.579062 125.254844 124.579062 
L 190.996443 89.439446 
C 189.846271 87.287625 188.591144 85.193571 187.235594 83.164849 
C 185.880045 81.136126 184.425709 79.17518 182.877837 77.289094 
L 125.254844 124.579062 
z
" clip-path="url(#p3c091d161e)" style="fill: none; stroke: #292929; stroke-width: 0.5; stroke-linejoin: miter"/>
   </g>
   <g id="patch_137">
    <path d="M 125.254844 124.579062 
C 125.254844 124.579062 125.254844 124.579062 125.254844 124.579062 
C 125.254844 124.579062 125.254844 124.579062 125.254844 124.579062 
L 223.699453 94.716217 
C 222.721998 91.493978 221.586928 88.321671 220.298345 85.210755 
C 219.009761 82.09984 217.569217 79.054065 215.981915 76.084432 
L 125.254844 124.579062 
z
" clip-path="url(#p3c091d161e)" style="fill: none; stroke: #292929; stroke-width: 0.5; stroke-linejoin: miter"/>
   </g>
   <g id="patch_138">
    <path d="M 125.254844 124.579062 
C 125.254844 124.579062 125.254844 124.579062 125.254844 124.579062 
C 125.254844 124.579062 125.254844 124.579062 125.254844 124.579062 
L 195.621808 117.648521 
C 195.394961 115.345306 195.055169 113.054616 194.60366 110.784725 
C 194.15215 108.514835 193.589468 106.268481 192.917645 104.053776 
L 125.254844 124.579062 
z
" clip-path="url(#p3c091d161e)" style="fill: none; stroke: #292929; stroke-width: 0.5; stroke-linejoin: miter"/>
   </g>
   <g id="patch_139">
    <path d="M 125.254844 124.579062 
C 125.254844 124.579062 125.254844 124.579062 125.254844 124.579062 
C 125.254844 124.579062 125.254844 124.579062 125.254844 124.579062 
L 185.189163 130.482078 
C 185.382378 128.520338 185.47916 126.550294 185.47916 124.579062 
C 185.47916 122.607831 185.382378 120.637787 185.189163 118.676047 
L 125.254844 124.579062 
z
" clip-path="url(#p3c091d161e)" style="fill: none; stroke: #292929; stroke-width: 0.5; stroke-linejoin: miter"/>
   </g>
   <g id="patch_140">
    <path d="M 125.254844 124.579062 
C 125.254844 124.579062 125.254844 124.579062 125.254844 124.579062 
C 125.254844 124.579062 125.254844 124.579062 125.254844 124.579062 
L 174.545456 139.531206 
C 175.034862 137.917851 175.444762 136.28144 175.773675 134.627883 
C 176.102588 132.974326 176.350117 131.305617 176.51537 129.627784 
L 125.254844 124.579062 
z
" clip-path="url(#p3c091d161e)" style="fill: none; stroke: #292929; stroke-width: 0.5; stroke-linejoin: miter"/>
   </g>
   <g id="patch_141">
    <path d="M 125.254844 124.579062 
C 125.254844 124.579062 125.254844 124.579062 125.254844 124.579062 
C 125.254844 124.579062 125.254844 124.579062 125.254844 124.579062 
L 167.647898 147.238622 
C 168.389579 145.851034 169.062687 144.427868 169.664789 142.974264 
C 170.266892 141.52066 170.797263 140.038371 171.253988 138.53275 
L 125.254844 124.579062 
z
" clip-path="url(#p3c091d161e)" style="fill: none; stroke: #292929; stroke-width: 0.5; stroke-linejoin: miter"/>
   </g>
   <g id="patch_142">
    <path d="M 125.254844 124.579062 
C 125.254844 124.579062 125.254844 124.579062 125.254844 124.579062 
C 125.254844 124.579062 125.254844 124.579062 125.254844 124.579062 
L 148.143121 143.362986 
C 148.757947 142.613819 149.33562 141.834916 149.874054 141.029093 
C 150.412488 140.223269 150.911034 139.391496 151.367891 138.536777 
L 125.254844 124.579062 
z
" clip-path="url(#p3c091d161e)" style="fill: none; stroke: #292929; stroke-width: 0.5; stroke-linejoin: miter"/>
   </g>
   <g id="patch_143">
    <path d="M 125.254844 124.579062 
C 125.254844 124.579062 125.254844 124.579062 125.254844 124.579062 
C 125.254844 124.579062 125.254844 124.579062 125.254844 124.579062 
L 136.885444 138.75099 
C 137.349312 138.370303 137.79421 137.967071 138.218531 137.54275 
C 138.642852 137.118429 139.046084 136.673531 139.426771 136.209663 
L 125.254844 124.579062 
z
" clip-path="url(#p3c091d161e)" style="fill: none; stroke: #292929; stroke-width: 0.5; stroke-linejoin: miter"/>
   </g>
   <g id="patch_144">
    <path d="M 125.254844 124.579062 
C 125.254844 124.579062 125.254844 124.579062 125.254844 124.579062 
C 125.254844 124.579062 125.254844 124.579062 125.254844 124.579062 
L 137.488536 147.466691 
C 138.237683 147.066264 138.966717 146.629298 139.673008 146.15737 
C 140.379298 145.685442 141.061992 145.179121 141.718624 144.640237 
L 125.254844 124.579062 
z
" clip-path="url(#p3c091d161e)" style="fill: none; stroke: #292929; stroke-width: 0.5; stroke-linejoin: miter"/>
   </g>
   <g id="patch_145">
    <path d="M 125.254844 124.579062 
C 125.254844 124.579062 125.254844 124.579062 125.254844 124.579062 
C 125.254844 124.579062 125.254844 124.579062 125.254844 124.579062 
L 129.095895 137.241311 
C 129.510349 137.115587 129.918381 136.969591 130.318516 136.80385 
C 130.718652 136.638108 131.110409 136.452821 131.492372 136.248657 
L 125.254844 124.579062 
z
" clip-path="url(#p3c091d161e)" style="fill: none; stroke: #292929; stroke-width: 0.5; stroke-linejoin: miter"/>
   </g>
   <g id="patch_146">
    <path d="M 125.254844 124.579062 
C 125.254844 124.579062 125.254844 124.579062 125.254844 124.579062 
C 125.254844 124.579062 125.254844 124.579062 125.254844 124.579062 
L 127.895683 151.391949 
C 128.773308 151.30551 129.646161 151.176035 130.511089 151.00399 
C 131.376016 150.831945 132.231975 150.617538 133.075874 150.361544 
L 125.254844 124.579062 
z
" clip-path="url(#p3c091d161e)" style="fill: none; stroke: #292929; stroke-width: 0.5; stroke-linejoin: miter"/>
   </g>
   <g id="patch_147">
    <path d="M 125.254844 124.579062 
C 125.254844 124.579062 125.254844 124.579062 125.254844 124.579062 
C 125.254844 124.579062 125.254844 124.579062 125.254844 124.579062 
L 122.254855 155.038464 
C 123.251836 155.136658 124.253038 155.185844 125.254844 155.185844 
C 126.256649 155.185844 127.257851 155.136658 128.254833 155.038464 
L 125.254844 124.579062 
z
" clip-path="url(#p3c091d161e)" style="fill: none; stroke: #292929; stroke-width: 0.5; stroke-linejoin: miter"/>
   </g>
   <g id="patch_148">
    <path d="M 125.254844 124.579062 
C 125.254844 124.579062 125.254844 124.579062 125.254844 124.579062 
C 125.254844 124.579062 125.254844 124.579062 125.254844 124.579062 
L 118.577712 146.590616 
C 119.298183 146.809169 120.02895 146.992216 120.767374 147.139098 
C 121.505797 147.28598 122.250987 147.396518 123.000252 147.470314 
L 125.254844 124.579062 
z
" clip-path="url(#p3c091d161e)" style="fill: none; stroke: #292929; stroke-width: 0.5; stroke-linejoin: miter"/>
   </g>
   <g id="patch_149">
    <path d="M 125.254844 124.579062 
C 125.254844 124.579062 125.254844 124.579062 125.254844 124.579062 
C 125.254844 124.579062 125.254844 124.579062 125.254844 124.579062 
L 115.442967 142.935793 
C 116.04381 143.25695 116.660059 143.548414 117.289488 143.809132 
C 117.918917 144.06985 118.560767 144.299508 119.21272 144.497276 
L 125.254844 124.579062 
z
" clip-path="url(#p3c091d161e)" style="fill: none; stroke: #292929; stroke-width: 0.5; stroke-linejoin: miter"/>
   </g>
   <g id="patch_150">
    <path d="M 125.254844 124.579062 
C 125.254844 124.579062 125.254844 124.579062 125.254844 124.579062 
C 125.254844 124.579062 125.254844 124.579062 125.254844 124.579062 
L 117.564014 133.950365 
C 117.870751 134.202098 118.189662 134.438618 118.519596 134.659073 
C 118.84953 134.879528 119.190089 135.083651 119.540042 135.270705 
L 125.254844 124.579062 
z
" clip-path="url(#p3c091d161e)" style="fill: none; stroke: #292929; stroke-width: 0.5; stroke-linejoin: miter"/>
   </g>
   <g id="patch_151">
    <path d="M 125.254844 124.579062 
C 125.254844 124.579062 125.254844 124.579062 125.254844 124.579062 
C 125.254844 124.579062 125.254844 124.579062 125.254844 124.579062 
L 107.260585 139.346569 
C 107.743947 139.935548 108.255936 140.50044 108.794701 141.039205 
C 109.333466 141.57797 109.898358 142.089959 110.487337 142.573321 
L 125.254844 124.579062 
z
" clip-path="url(#p3c091d161e)" style="fill: none; stroke: #292929; stroke-width: 0.5; stroke-linejoin: miter"/>
   </g>
   <g id="patch_152">
    <path d="M 125.254844 124.579062 
C 125.254844 124.579062 125.254844 124.579062 125.254844 124.579062 
C 125.254844 124.579062 125.254844 124.579062 125.254844 124.579062 
L 125.254844 124.579062 
C 125.254844 124.579062 125.254844 124.579062 125.254844 124.579062 
C 125.254844 124.579062 125.254844 124.579062 125.254844 124.579062 
L 125.254844 124.579062 
z
" clip-path="url(#p3c091d161e)" style="fill: none; stroke: #292929; stroke-width: 0.5; stroke-linejoin: miter"/>
   </g>
   <g id="patch_153">
    <path d="M 125.254844 124.579062 
C 125.254844 124.579062 125.254844 124.579062 125.254844 124.579062 
C 125.254844 124.579062 125.254844 124.579062 125.254844 124.579062 
L 94.82927 133.808559 
C 95.131365 134.804434 95.482173 135.784876 95.880427 136.746345 
C 96.27868 137.707813 96.723899 138.649149 97.214475 139.566952 
L 125.254844 124.579062 
z
" clip-path="url(#p3c091d161e)" style="fill: none; stroke: #292929; stroke-width: 0.5; stroke-linejoin: miter"/>
   </g>
   <g id="patch_154">
    <path d="M 125.254844 124.579062 
C 125.254844 124.579062 125.254844 124.579062 125.254844 124.579062 
C 125.254844 124.579062 125.254844 124.579062 125.254844 124.579062 
L 83.84162 128.657909 
C 83.975127 130.013426 84.175106 131.36157 84.440833 132.697474 
C 84.706561 134.033377 85.037718 135.355429 85.433107 136.658854 
L 125.254844 124.579062 
z
" clip-path="url(#p3c091d161e)" style="fill: none; stroke: #292929; stroke-width: 0.5; stroke-linejoin: miter"/>
   </g>
   <g id="patch_155">
    <path d="M 125.254844 124.579062 
C 125.254844 124.579062 125.254844 124.579062 125.254844 124.579062 
C 125.254844 124.579062 125.254844 124.579062 125.254844 124.579062 
L 81.667568 120.286091 
C 81.527052 121.712767 81.456668 123.145483 81.456668 124.579062 
C 81.456668 126.012642 81.527052 127.445358 81.667568 128.872034 
L 125.254844 124.579062 
z
" clip-path="url(#p3c091d161e)" style="fill: none; stroke: #292929; stroke-width: 0.5; stroke-linejoin: miter"/>
   </g>
   <g id="patch_156">
    <path d="M 125.254844 124.579062 
C 125.254844 124.579062 125.254844 124.579062 125.254844 124.579062 
C 125.254844 124.579062 125.254844 124.579062 125.254844 124.579062 
L 57.0923 103.902181 
C 56.415515 106.133243 55.848676 108.396188 55.393832 110.682843 
C 54.938988 112.969499 54.596687 115.277107 54.368164 117.597334 
L 125.254844 124.579062 
z
" clip-path="url(#p3c091d161e)" style="fill: none; stroke: #292929; stroke-width: 0.5; stroke-linejoin: miter"/>
   </g>
   <g id="patch_157">
    <path d="M 125.254844 124.579062 
C 125.254844 124.579062 125.254844 124.579062 125.254844 124.579062 
C 125.254844 124.579062 125.254844 124.579062 125.254844 124.579062 
L 56.563008 87.862512 
C 55.361221 90.110898 54.270547 92.416934 53.294927 94.772289 
C 52.319307 97.127645 51.459916 99.529481 50.719859 101.969122 
L 125.254844 124.579062 
z
" clip-path="url(#p3c091d161e)" style="fill: none; stroke: #292929; stroke-width: 0.5; stroke-linejoin: miter"/>
   </g>
   <g id="patch_158">
    <path d="M 125.254844 124.579062 
C 125.254844 124.579062 125.254844 124.579062 125.254844 124.579062 
C 125.254844 124.579062 125.254844 124.579062 125.254844 124.579062 
L 76.224108 84.340578 
C 74.907043 85.945427 73.669564 87.613973 72.516143 89.34019 
C 71.362723 91.066406 70.294749 92.848212 69.316081 94.679171 
L 125.254844 124.579062 
z
" clip-path="url(#p3c091d161e)" style="fill: none; stroke: #292929; stroke-width: 0.5; stroke-linejoin: miter"/>
   </g>
   <g id="patch_159">
    <path d="M 125.254844 124.579062 
C 125.254844 124.579062 125.254844 124.579062 125.254844 124.579062 
C 125.254844 124.579062 125.254844 124.579062 125.254844 124.579062 
L 66.376687 52.835821 
C 64.028423 54.762991 61.776194 56.804292 59.628134 58.952353 
C 57.480074 61.100413 55.438772 63.352642 53.511602 65.700906 
L 125.254844 124.579062 
z
" clip-path="url(#p3c091d161e)" style="fill: none; stroke: #292929; stroke-width: 0.5; stroke-linejoin: miter"/>
   </g>
   <g id="patch_160">
    <path d="M 125.254844 124.579062 
C 125.254844 124.579062 125.254844 124.579062 125.254844 124.579062 
C 125.254844 124.579062 125.254844 124.579062 125.254844 124.579062 
L 93.40495 64.992102 
C 91.45458 66.034597 89.556569 67.172221 87.717772 68.400865 
C 85.878976 69.62951 84.101611 70.947693 82.392097 72.350655 
L 125.254844 124.579062 
z
" clip-path="url(#p3c091d161e)" style="fill: none; stroke: #292929; stroke-width: 0.5; stroke-linejoin: miter"/>
   </g>
   <g id="patch_161">
    <path d="M 125.254844 124.579062 
C 125.254844 124.579062 125.254844 124.579062 125.254844 124.579062 
C 125.254844 124.579062 125.254844 124.579062 125.254844 124.579062 
L 95.603711 26.832376 
C 92.404316 27.802902 89.254499 28.929925 86.165638 30.209373 
C 83.076777 31.488821 80.052596 32.919152 77.104016 34.495201 
L 125.254844 124.579062 
z
" clip-path="url(#p3c091d161e)" style="fill: none; stroke: #292929; stroke-width: 0.5; stroke-linejoin: miter"/>
   </g>
   <g id="patch_162">
    <path d="M 125.254844 124.579062 
C 125.254844 124.579062 125.254844 124.579062 125.254844 124.579062 
C 125.254844 124.579062 125.254844 124.579062 125.254844 124.579062 
L 116.676053 37.477136 
C 113.825077 37.757932 110.989605 38.178535 108.17988 38.737424 
C 105.370155 39.296313 102.589564 39.992815 99.848149 40.824414 
L 125.254844 124.579062 
z
" clip-path="url(#p3c091d161e)" style="fill: none; stroke: #292929; stroke-width: 0.5; stroke-linejoin: miter"/>
   </g>
   <g id="PathCollection_1">
    <defs>
     <path id="m470874747d" d="M 0.193618 7.414054 
L 0.193618 7.414054 
C 0.054922 7.414054 -0.078235 7.358899 -0.176308 7.260826 
C -0.274381 7.162753 -0.329536 7.029596 -0.329536 6.890901 
L -0.329536 5.365008 
L -1.528416 6.56393 
L -1.528416 6.56393 
C -1.577018 6.612704 -1.634775 6.651408 -1.698366 6.677814 
C -1.761958 6.704221 -1.830141 6.717815 -1.898997 6.717815 
C -1.967853 6.717815 -2.036037 6.704221 -2.099628 6.677814 
C -2.163219 6.651408 -2.220976 6.612704 -2.269578 6.56393 
L -2.269578 6.56393 
C -2.318353 6.515327 -2.357056 6.457571 -2.383463 6.393979 
C -2.409869 6.330388 -2.423463 6.262205 -2.423463 6.193348 
C -2.423463 6.124492 -2.409869 6.056309 -2.383463 5.992718 
C -2.357056 5.929126 -2.318353 5.87137 -2.269578 5.822767 
L -0.329536 3.884106 
L -0.329536 0.820937 
L -2.98067 2.351538 
L -3.691824 5.001416 
L -3.691824 5.001416 
C -3.727584 5.135411 -3.815199 5.249836 -3.93523 5.319305 
C -4.055261 5.388775 -4.198123 5.407741 -4.332122 5.371997 
L -4.332122 5.371997 
C -4.466126 5.336237 -4.580558 5.248616 -4.650029 5.128576 
C -4.719499 5.008535 -4.73846 4.865662 -4.702703 4.731657 
L -4.262647 3.092721 
L -5.585535 3.855668 
L -5.585535 3.855668 
C -5.645013 3.890144 -5.710708 3.912561 -5.778854 3.921634 
C -5.847001 3.930706 -5.916272 3.926258 -5.982698 3.908543 
C -6.049125 3.890828 -6.111412 3.860192 -6.165991 3.818391 
C -6.220571 3.77659 -6.266379 3.724437 -6.300791 3.664922 
L -6.300791 3.664922 
C -6.335212 3.605364 -6.35755 3.539597 -6.366524 3.471396 
C -6.375498 3.403194 -6.370933 3.333888 -6.35309 3.267452 
C -6.335248 3.201017 -6.304476 3.138749 -6.26254 3.08422 
C -6.220605 3.029692 -6.168323 2.983966 -6.108695 2.949666 
L -4.785807 2.186762 
L -6.424743 1.746706 
L -6.424743 1.746706 
C -6.558747 1.710946 -6.673179 1.623325 -6.74265 1.503284 
C -6.81212 1.383244 -6.831081 1.240371 -6.795324 1.106366 
L -6.795324 1.106366 
C -6.777471 1.039969 -6.746703 0.977739 -6.704784 0.923241 
C -6.662864 0.868744 -6.61061 0.823041 -6.551015 0.788752 
C -6.491421 0.754464 -6.425647 0.732257 -6.357465 0.723406 
C -6.289282 0.714554 -6.220019 0.71923 -6.153645 0.737166 
L -3.505232 1.44698 
L -0.852424 -0.08496 
L -3.503767 -1.615666 
L -6.153645 -0.905851 
L -6.153645 -0.905851 
C -6.22011 -0.887939 -6.289462 -0.883321 -6.357716 -0.892262 
C -6.42597 -0.901202 -6.491793 -0.923527 -6.551403 -0.957953 
C -6.611013 -0.992379 -6.663247 -1.038234 -6.705103 -1.092883 
C -6.746958 -1.147533 -6.777619 -1.209911 -6.795324 -1.276432 
L -6.795324 -1.276432 
C -6.831068 -1.410431 -6.812101 -1.553293 -6.742632 -1.673324 
C -6.673162 -1.793355 -6.558738 -1.88097 -6.424743 -1.91673 
L -4.785807 -2.355447 
L -6.108695 -3.119732 
L -6.108695 -3.119732 
C -6.228699 -3.188976 -6.316415 -3.303132 -6.352417 -3.436921 
C -6.388419 -3.57071 -6.369839 -3.713469 -6.300791 -3.833586 
L -6.300791 -3.833586 
C -6.266491 -3.893214 -6.220765 -3.945496 -6.166237 -3.987431 
C -6.111708 -4.029367 -6.04944 -4.060139 -5.983005 -4.077981 
C -5.91657 -4.095823 -5.847263 -4.100389 -5.779062 -4.091415 
C -5.71086 -4.082441 -5.645094 -4.060102 -5.585535 -4.025682 
L -4.262647 -3.261396 
L -4.702703 -4.900332 
L -4.702703 -4.900332 
C -4.73846 -5.034337 -4.719499 -5.17721 -4.650029 -5.29725 
C -4.580558 -5.417291 -4.466126 -5.504912 -4.332122 -5.540672 
L -4.332122 -5.540672 
C -4.19831 -5.576464 -4.055613 -5.557686 -3.935617 -5.488496 
C -3.81562 -5.419305 -3.727882 -5.305212 -3.691824 -5.171472 
L -2.982009 -2.521594 
L -0.329411 -0.990302 
L -0.329411 -4.051588 
L -2.269453 -5.991589 
L -2.269453 -5.991589 
C -2.318227 -6.040191 -2.356931 -6.097947 -2.383337 -6.161539 
C -2.409744 -6.22513 -2.423338 -6.293314 -2.423338 -6.36217 
C -2.423338 -6.431026 -2.409744 -6.499209 -2.383337 -6.5628 
C -2.356931 -6.626392 -2.318227 -6.684149 -2.269453 -6.732751 
L -2.269453 -6.732751 
C -2.22085 -6.781526 -2.163094 -6.820229 -2.099502 -6.846635 
C -2.035911 -6.873042 -1.967728 -6.886636 -1.898871 -6.886636 
C -1.830015 -6.886636 -1.761832 -6.873042 -1.698241 -6.846635 
C -1.634649 -6.820229 -1.576893 -6.781526 -1.52829 -6.732751 
L -0.329411 -5.533829 
L -0.329411 -7.059722 
L -0.329411 -7.059722 
C -0.329411 -7.198418 -0.274255 -7.331575 -0.176182 -7.429647 
C -0.07811 -7.52772 0.055047 -7.582875 0.193743 -7.582875 
L 0.193743 -7.582875 
C 0.332439 -7.582875 0.465596 -7.52772 0.563669 -7.429647 
C 0.661741 -7.331575 0.716897 -7.198418 0.716897 -7.059722 
L 0.716897 -5.533829 
L 1.915777 -6.732751 
L 1.915777 -6.732751 
C 1.964379 -6.781526 2.022136 -6.820229 2.085727 -6.846635 
C 2.149318 -6.873042 2.217502 -6.886636 2.286358 -6.886636 
C 2.355214 -6.886636 2.423397 -6.873042 2.486989 -6.846635 
C 2.55058 -6.820229 2.608337 -6.781526 2.656939 -6.732751 
L 2.656939 -6.732751 
C 2.705714 -6.684149 2.744417 -6.626392 2.770823 -6.5628 
C 2.79723 -6.499209 2.810824 -6.431026 2.810824 -6.36217 
C 2.810824 -6.293314 2.79723 -6.22513 2.770823 -6.161539 
C 2.744417 -6.097947 2.705714 -6.040191 2.656939 -5.991589 
L 0.716897 -4.051588 
L 0.716897 -0.991139 
L 3.369495 -2.522954 
L 4.07931 -5.171367 
L 4.07931 -5.171367 
C 4.115368 -5.305107 4.203106 -5.4192 4.323103 -5.488391 
C 4.4431 -5.557582 4.585797 -5.576359 4.719608 -5.540567 
L 4.719608 -5.540567 
C 4.853612 -5.504807 4.968045 -5.417186 5.037515 -5.297146 
C 5.106986 -5.177105 5.125946 -5.034232 5.090189 -4.900227 
L 4.650133 -3.262673 
L 5.973022 -4.025577 
L 5.973022 -4.025577 
C 6.03258 -4.059998 6.098346 -4.082336 6.166548 -4.09131 
C 6.234749 -4.100284 6.304056 -4.095719 6.370491 -4.077876 
C 6.436926 -4.060034 6.499194 -4.029262 6.553723 -3.987327 
C 6.608252 -3.945391 6.653978 -3.893109 6.688277 -3.833481 
L 6.688277 -3.833481 
C 6.757325 -3.713365 6.775905 -3.570605 6.739903 -3.436816 
C 6.703901 -3.303027 6.616186 -3.188871 6.496181 -3.119628 
L 5.173293 -2.355342 
L 6.812229 -1.916625 
L 6.812229 -1.916625 
C 6.946224 -1.880865 7.060649 -1.79325 7.130118 -1.67322 
C 7.199588 -1.553189 7.218554 -1.410326 7.18281 -1.276327 
L 7.18281 -1.276327 
C 7.165106 -1.209806 7.134445 -1.147429 7.092589 -1.092779 
C 7.050733 -1.038129 6.998499 -0.992274 6.938889 -0.957848 
C 6.879279 -0.923422 6.813456 -0.901098 6.745202 -0.892157 
C 6.676949 -0.883217 6.607597 -0.887835 6.541131 -0.905746 
L 3.891253 -1.615561 
L 1.239492 -0.084604 
L 3.892718 1.447085 
L 6.541131 0.73727 
L 6.541131 0.73727 
C 6.674948 0.701466 6.817656 0.720237 6.937662 0.789429 
C 7.057669 0.858621 7.145413 0.972721 7.181471 1.10647 
L 7.181471 1.10647 
C 7.217274 1.240293 7.198497 1.383006 7.129297 1.503014 
C 7.060096 1.623021 6.945986 1.710762 6.812229 1.74681 
L 5.173293 2.186866 
L 6.496181 2.949771 
L 6.496181 2.949771 
C 6.555697 2.984183 6.607849 3.029991 6.649651 3.08457 
C 6.691452 3.13915 6.722088 3.201437 6.739803 3.267863 
C 6.757517 3.33429 6.761966 3.403561 6.752893 3.471707 
C 6.743821 3.539854 6.721404 3.605549 6.686927 3.665026 
L 6.686927 3.665026 
C 6.617458 3.784813 6.503196 3.87225 6.369416 3.907994 
C 6.235636 3.943739 6.092989 3.924946 5.973032 3.855772 
L 4.650144 3.091487 
L 5.08886 4.731783 
L 5.08886 4.731783 
C 5.124664 4.865606 5.105887 5.008319 5.036686 5.128326 
C 4.967486 5.248334 4.853376 5.336074 4.719619 5.372123 
L 4.719619 5.372123 
C 4.585619 5.407867 4.442757 5.3889 4.322726 5.319431 
C 4.202695 5.249961 4.115081 5.135537 4.07932 5.001542 
L 3.368166 2.351664 
L 0.717033 0.821063 
L 0.717033 3.884232 
L 2.657075 5.822893 
L 2.657075 5.822893 
C 2.70585 5.871495 2.744553 5.929252 2.770959 5.992843 
C 2.797366 6.056435 2.81096 6.124618 2.81096 6.193474 
C 2.81096 6.26233 2.797366 6.330514 2.770959 6.394105 
C 2.744553 6.457696 2.70585 6.515453 2.657075 6.564055 
L 2.657075 6.564055 
C 2.608473 6.61283 2.550716 6.651533 2.487125 6.67794 
C 2.423533 6.704346 2.35535 6.71794 2.286494 6.71794 
C 2.217638 6.71794 2.149454 6.704346 2.085863 6.67794 
C 2.022272 6.651533 1.964515 6.61283 1.915913 6.564055 
L 0.717033 5.365133 
L 0.717033 6.891026 
L 0.717033 6.891026 
C 0.717033 7.029722 0.661877 7.162879 0.563805 7.260952 
C 0.465732 7.359024 0.332575 7.41418 0.193879 7.41418 
L 0.193618 7.414054 
z
"/>
    </defs>
    <g clip-path="url(#p3c091d161e)">
     <use xlink:href="#m470874747d" x="132.290515" y="61.682608" style="fill: #9e2096; fill-opacity: 0.7"/>
    </g>
   </g>
   <g id="patch_163">
    <path d="M 125.254844 13.699062 
C 110.694216 13.699062 96.275171 16.567189 82.822905 22.1393 
C 69.370638 27.711411 57.146763 35.879144 46.850844 46.175063 
C 36.554925 56.470982 28.387192 68.694857 22.815081 82.147124 
C 17.24297 95.59939 14.374844 110.018434 14.374844 124.579063 
C 14.374844 139.139691 17.24297 153.558735 22.815081 167.011001 
C 28.387192 180.463268 36.554925 192.687143 46.850844 202.983062 
C 57.146763 213.278981 69.370638 221.446714 82.822905 227.018825 
C 96.275171 232.590936 110.694216 235.459063 125.254844 235.459063 
C 139.815472 235.459063 154.234516 232.590936 167.686783 227.018825 
C 181.139049 221.446714 193.362925 213.278981 203.658844 202.983062 
C 213.954763 192.687143 222.122495 180.463268 227.694606 167.011001 
C 233.266717 153.558735 236.134844 139.139691 236.134844 124.579062 
C 236.134844 110.018434 233.266717 95.59939 227.694606 82.147124 
C 222.122495 68.694857 213.954763 56.470982 203.658844 46.175063 
C 193.362925 35.879144 181.139049 27.711411 167.686783 22.1393 
C 154.234516 16.567189 139.815472 13.699062 125.254844 13.699062 
" style="fill: none; stroke: #000000; stroke-width: 0.8; stroke-linejoin: miter; stroke-linecap: square"/>
   </g>
  </g>
 </g>
 <defs>
  <clipPath id="p3c091d161e">
   <path d="M 236.134844 124.579063 
C 236.134844 110.018434 233.266717 95.59939 227.694606 82.147124 
C 222.122495 68.694857 213.954763 56.470982 203.658844 46.175063 
C 193.362925 35.879144 181.139049 27.711411 167.686783 22.1393 
C 154.234516 16.567189 139.815472 13.699062 125.254844 13.699062 
C 110.694216 13.699062 96.275171 16.567189 82.822905 22.1393 
C 69.370638 27.711411 57.146763 35.879144 46.850844 46.175063 
C 36.554925 56.470982 28.387192 68.694857 22.815081 82.147124 
C 17.24297 95.59939 14.374844 110.018434 14.374844 124.579062 
C 14.374844 139.139691 17.24297 153.558735 22.815081 167.011001 
C 28.387192 180.463268 36.554925 192.687143 46.850844 202.983062 
C 57.146763 213.278981 69.370638 221.446714 82.822905 227.018825 
C 96.275171 232.590936 110.694216 235.459063 125.254844 235.459063 
C 139.815472 235.459063 154.234516 232.590936 167.686783 227.018825 
C 181.139049 221.446714 193.362925 213.278981 203.658844 202.983062 
C 213.954763 192.687143 222.122495 180.463268 227.694606 167.011001 
C 233.266717 153.558735 236.134844 139.139691 236.134844 124.579063 
M 125.254844 124.579063 
C 125.254844 124.579063 125.254844 124.579063 125.254844 124.579063 
C 125.254844 124.579063 125.254844 124.579063 125.254844 124.579063 
C 125.254844 124.579063 125.254844 124.579063 125.254844 124.579063 
C 125.254844 124.579063 125.254844 124.579063 125.254844 124.579063 
C 125.254844 124.579063 125.254844 124.579063 125.254844 124.579063 
C 125.254844 124.579063 125.254844 124.579063 125.254844 124.579063 
C 125.254844 124.579063 125.254844 124.579063 125.254844 124.579063 
C 125.254844 124.579063 125.254844 124.579063 125.254844 124.579063 
C 125.254844 124.579063 125.254844 124.579063 125.254844 124.579063 
C 125.254844 124.579063 125.254844 124.579063 125.254844 124.579063 
C 125.254844 124.579063 125.254844 124.579063 125.254844 124.579063 
C 125.254844 124.579063 125.254844 124.579063 125.254844 124.579063 
C 125.254844 124.579063 125.254844 124.579063 125.254844 124.579063 
C 125.254844 124.579063 125.254844 124.579063 125.254844 124.579063 
C 125.254844 124.579063 125.254844 124.579063 125.254844 124.579063 
C 125.254844 124.579063 125.254844 124.579063 125.254844 124.579063 
z
"/>
  </clipPath>
 </defs>
</svg>
