<?xml version="1.0" encoding="utf-8" standalone="no"?>
<!DOCTYPE svg PUBLIC "-//W3C//DTD SVG 1.1//EN"
  "http://www.w3.org/Graphics/SVG/1.1/DTD/svg11.dtd">
<svg xmlns:xlink="http://www.w3.org/1999/xlink" width="248.410469pt" height="249.158125pt" viewBox="0 0 248.410469 249.158125" xmlns="http://www.w3.org/2000/svg" version="1.1">
 <title>Ski Rose for Cheggio</title>
 <metadata>
  <rdf:RDF xmlns:dc="http://purl.org/dc/elements/1.1/" xmlns:cc="http://creativecommons.org/ns#" xmlns:rdf="http://www.w3.org/1999/02/22-rdf-syntax-ns#">
   <cc:Work>
    <dc:type rdf:resource="http://purl.org/dc/dcmitype/StillImage"/>
    <dc:title>Ski Rose for Cheggio</dc:title>
    <dc:date>2025-08-02T10:17:34.645447</dc:date>
    <dc:description>A 32-bin stacked histogram of downhill ski run orientations colored by difficulty.</dc:description>
    <dc:format>image/svg+xml</dc:format>
    <dc:source>https://openskimap.org/?obj=86ad57f23946d1f656838746e91c17db0b23837b</dc:source>
    <dc:creator>
     <cc:Agent>
      <dc:title>https://github.com/dhimmel/openskistats</dc:title>
     </cc:Agent>
    </dc:creator>
    <dc:rights>
     <cc:Agent>
      <dc:title>https://creativecommons.org/licenses/by/4.0/</dc:title>
     </cc:Agent>
    </dc:rights>
   </cc:Work>
  </rdf:RDF>
 </metadata>
 <defs>
  <style type="text/css">*{stroke-linejoin: round; stroke-linecap: butt}</style>
 </defs>
 <g id="figure_1">
  <g id="patch_1">
   <path d="M 0 249.158125 
L 248.410469 249.158125 
L 248.410469 0 
L 0 0 
z
" style="fill: #ffffff"/>
  </g>
  <g id="axes_1">
   <g id="patch_2">
    <path d="M 236.134844 124.579063 
C 236.134844 110.018434 233.266717 95.59939 227.694606 82.147124 
C 222.122495 68.694857 213.954763 56.470982 203.658844 46.175063 
C 193.362925 35.879144 181.139049 27.711411 167.686783 22.1393 
C 154.234516 16.567189 139.815472 13.699063 125.254844 13.699063 
C 110.694216 13.699063 96.275171 16.567189 82.822905 22.1393 
C 69.370638 27.711411 57.146763 35.879144 46.850844 46.175063 
C 36.554925 56.470982 28.387192 68.694857 22.815081 82.147124 
C 17.24297 95.59939 14.374844 110.018434 14.374844 124.579062 
C 14.374844 139.139691 17.24297 153.558735 22.815081 167.011001 
C 28.387192 180.463268 36.554925 192.687143 46.850844 202.983062 
C 57.146763 213.278981 69.370638 221.446714 82.822905 227.018825 
C 96.275171 232.590936 110.694216 235.459063 125.254844 235.459063 
C 139.815472 235.459063 154.234516 232.590936 167.686783 227.018825 
C 181.139049 221.446714 193.362925 213.278981 203.658844 202.983062 
C 213.954763 192.687143 222.122495 180.463268 227.694606 167.011001 
C 233.266717 153.558735 236.134844 139.139691 236.134844 124.579063 
M 125.254844 124.579063 
C 125.254844 124.579063 125.254844 124.579063 125.254844 124.579063 
C 125.254844 124.579063 125.254844 124.579063 125.254844 124.579063 
C 125.254844 124.579063 125.254844 124.579063 125.254844 124.579063 
C 125.254844 124.579063 125.254844 124.579063 125.254844 124.579063 
C 125.254844 124.579063 125.254844 124.579063 125.254844 124.579063 
C 125.254844 124.579063 125.254844 124.579063 125.254844 124.579063 
C 125.254844 124.579063 125.254844 124.579063 125.254844 124.579063 
C 125.254844 124.579063 125.254844 124.579063 125.254844 124.579063 
C 125.254844 124.579063 125.254844 124.579063 125.254844 124.579063 
C 125.254844 124.579063 125.254844 124.579063 125.254844 124.579063 
C 125.254844 124.579063 125.254844 124.579063 125.254844 124.579063 
C 125.254844 124.579063 125.254844 124.579063 125.254844 124.579063 
C 125.254844 124.579063 125.254844 124.579063 125.254844 124.579063 
C 125.254844 124.579063 125.254844 124.579063 125.254844 124.579063 
C 125.254844 124.579063 125.254844 124.579063 125.254844 124.579063 
C 125.254844 124.579063 125.254844 124.579063 125.254844 124.579063 
z
" style="fill: #ffffff"/>
   </g>
   <g id="PolyCollection_1">
    <defs>
     <path id="m5741e28e77" d="M 235.290526 -137.116045 
L 234.922162 -137.074075 
L 233.979116 -135.048019 
L 233.154395 -133.070941 
L 232.067456 -131.112002 
L 231.133364 -129.201819 
L 229.947112 -127.320526 
L 228.719332 -125.481983 
L 227.665348 -123.68534 
L 226.366506 -121.93136 
L 225.247532 -120.213287 
L 223.887539 -118.546428 
L 222.711325 -116.909071 
L 221.298151 -115.331144 
L 220.071425 -113.776078 
L 218.612226 -112.28833 
L 217.341266 -110.816654 
L 216.049938 -109.385174 
L 214.739607 -107.994042 
L 213.207029 -106.684988 
L 211.864198 -105.378231 
L 210.50653 -104.111944 
L 209.135355 -102.886087 
L 207.752001 -101.700576 
L 206.357784 -100.555277 
L 204.954019 -99.450009 
L 203.542007 -98.384544 
L 202.123047 -97.358604 
L 200.698423 -96.371864 
L 199.269413 -95.423948 
L 198.019132 -94.439107 
L 196.582346 -93.564982 
L 195.144812 -92.728369 
L 193.881229 -91.845956 
L 192.442745 -91.080411 
L 191.17451 -90.263456 
L 189.739406 -89.566802 
L 188.470393 -88.813425 
L 187.200839 -88.090083 
L 185.931577 -87.396313 
L 184.511938 -86.82813 
L 183.249054 -86.193532 
L 181.98893 -85.586806 
L 180.732322 -85.007362 
L 179.479966 -84.454582 
L 178.232574 -83.927821 
L 176.990831 -83.4264 
L 175.882016 -82.845242 
L 174.649748 -82.391829 
L 173.424986 -81.961721 
L 172.20831 -81.554137 
L 171.112002 -81.062244 
L 169.909181 -80.697368 
L 168.820324 -80.246507 
L 167.633194 -79.9216 
L 166.553433 -79.509561 
L 165.383607 -79.221747 
L 164.31439 -78.84621 
L 163.249189 -78.488236 
L 162.105814 -78.251044 
L 161.052947 -77.926067 
L 160.004887 -77.617074 
L 158.890238 -77.423978 
L 157.855831 -77.144332 
L 156.826802 -76.879037 
L 155.803301 -76.62759 
L 154.785456 -76.389482 
L 153.773373 -76.164208 
L 152.767131 -75.951259 
L 151.76679 -75.750131 
L 150.772385 -75.560322 
L 149.783927 -75.381333 
L 148.801404 -75.212673 
L 147.824782 -75.053853 
L 146.854003 -74.904397 
L 145.888987 -74.763833 
L 144.929632 -74.631703 
L 143.975812 -74.507558 
L 143.050871 -74.324633 
L 142.105308 -74.218334 
L 141.164884 -74.11886 
L 140.229397 -74.025817 
L 139.298624 -73.938826 
L 138.385452 -73.806766 
L 137.461556 -73.734447 
L 136.541723 -73.667241 
L 135.625666 -73.604844 
L 134.719963 -73.509849 
L 133.809216 -73.460152 
L 132.901432 -73.414547 
L 131.999778 -73.346203 
L 131.095964 -73.312208 
L 130.194211 -73.281774 
L 129.295393 -73.239013 
L 128.396133 -73.219433 
L 127.497968 -73.203076 
L 126.600639 -73.185228 
L 125.703403 -73.179321 
L 124.806289 -73.17978 
L 123.909133 -73.188438 
L 123.01194 -73.208117 
L 122.11403 -73.227212 
L 121.215121 -73.249519 
L 120.316662 -73.294081 
L 119.415432 -73.327207 
L 118.512236 -73.363869 
L 117.606714 -73.404234 
L 116.704158 -73.482177 
L 115.794285 -73.534453 
L 114.88121 -73.591023 
L 113.974344 -73.696016 
L 113.05563 -73.765681 
L 112.132936 -73.840412 
L 111.205989 -73.920528 
L 110.291393 -74.063299 
L 109.357333 -74.158599 
L 108.418411 -74.260268 
L 107.474422 -74.3687 
L 106.52518 -74.484301 
L 105.598714 -74.67907 
L 104.641125 -74.813143 
L 103.677938 -74.955576 
L 102.709048 -75.106828 
L 101.734372 -75.267368 
L 100.75385 -75.437671 
L 99.767444 -75.618223 
L 98.77514 -75.809515 
L 97.776947 -76.012045 
L 96.772897 -76.226312 
L 95.763046 -76.452823 
L 94.747472 -76.692081 
L 93.726277 -76.944595 
L 92.699587 -77.21087 
L 91.596331 -77.391568 
L 90.555702 -77.685864 
L 89.510068 -77.995564 
L 88.459649 -78.321162 
L 87.319154 -78.559391 
L 86.25644 -78.917799 
L 85.189726 -79.293684 
L 84.022833 -79.582219 
L 82.945599 -79.994421 
L 81.761423 -80.319836 
L 80.675108 -80.770678 
L 79.475252 -81.135852 
L 78.381491 -81.627549 
L 77.167784 -82.035226 
L 75.945987 -82.46532 
L 74.716679 -82.918615 
L 73.610398 -83.499216 
L 72.371601 -84.000323 
L 71.127143 -84.526671 
L 69.877709 -85.078936 
L 68.624009 -85.657768 
L 67.366777 -86.263787 
L 66.106767 -86.897582 
L 64.844755 -87.559713 
L 63.423968 -88.157893 
L 62.157227 -88.880148 
L 60.891005 -89.632349 
L 59.459076 -90.327954 
L 58.193582 -91.143551 
L 56.75822 -91.907849 
L 55.497325 -92.78873 
L 54.062858 -93.623906 
L 52.810554 -94.571655 
L 51.381429 -95.479551 
L 49.955397 -96.425753 
L 48.53372 -97.410688 
L 47.308859 -98.498701 
L 45.901938 -99.559187 
L 44.503109 -100.659309 
L 43.113675 -101.7993 
L 41.734946 -102.979348 
L 40.167245 -104.151337 
L 38.812293 -105.41521 
L 37.472144 -106.71947 
L 36.148133 -108.06411 
L 34.841604 -109.449075 
L 33.346134 -110.843214 
L 32.077694 -112.312058 
L 30.830949 -113.820819 
L 29.397078 -115.349009 
L 28.197403 -116.940476 
L 26.812752 -118.558086 
L 25.666542 -120.230943 
L 24.338479 -121.936475 
L 23.252726 -123.688904 
L 21.989721 -125.480244 
L 20.972816 -127.309783 
L 19.786048 -129.18393 
L 18.644808 -131.099612 
L 17.75815 -133.039236 
L 16.729251 -135.028888 
L 15.967641 -137.030766 
L 15.16665 -137.122028 
L 15.16665 -137.122028 
L 14.904311 -135.20461 
L 14.73581 -133.277099 
L 14.722813 -131.339491 
L 14.497295 -129.414842 
L 14.488003 -127.479594 
L 14.39079 -125.546558 
L 14.446655 -123.612054 
L 14.415621 -121.676635 
L 14.535867 -119.744968 
L 14.619567 -117.812319 
L 14.869452 -115.891544 
L 14.899091 -113.953012 
L 15.141785 -112.033264 
L 15.414103 -110.118255 
L 15.609895 -108.192515 
L 15.943331 -106.286589 
L 16.306048 -104.386597 
L 16.698051 -102.492933 
L 17.022299 -100.584485 
L 17.475461 -98.703522 
L 17.95811 -96.83024 
L 18.470338 -94.965098 
L 19.01224 -93.10857 
L 19.58393 -91.261151 
L 20.185545 -89.423367 
L 20.817247 -87.59577 
L 21.398119 -85.748624 
L 22.0919 -83.942098 
L 22.816338 -82.147644 
L 23.572463 -80.366305 
L 24.36084 -78.599016 
L 25.182094 -76.846809 
L 26.036877 -75.110809 
L 26.925844 -73.392225 
L 27.813704 -71.67284 
L 28.784451 -69.99874 
L 29.747776 -68.3211 
L 30.730836 -66.654676 
L 31.765278 -65.01964 
L 32.808273 -63.390012 
L 33.885902 -61.782928 
L 35.432836 -60.509647 
L 37.251714 -59.460172 
L 39.095501 -58.466673 
L 40.948791 -57.519 
L 42.812793 -56.61908 
L 44.617005 -55.707842 
L 46.480375 -54.885299 
L 48.344714 -54.103913 
L 50.146702 -53.304097 
L 51.945887 -52.538552 
L 53.7915 -51.857435 
L 55.580251 -51.157361 
L 57.363337 -50.488484 
L 59.140027 -49.849856 
L 60.909664 -49.240537 
L 62.671657 -48.659586 
L 64.425474 -48.106064 
L 66.132766 -47.529671 
L 67.870639 -47.02876 
L 69.561026 -46.49921 
L 71.281464 -46.047307 
L 72.960826 -45.571419 
L 74.662603 -45.165152 
L 76.322799 -44.729223 
L 77.979062 -44.320712 
L 79.624489 -43.927684 
L 81.265542 -43.560846 
L 82.895655 -43.207818 
L 84.521079 -42.879769 
L 86.135612 -42.563887 
L 87.745263 -42.271799 
L 89.344218 -41.990278 
L 90.938221 -41.731406 
L 92.508593 -41.447862 
L 94.086044 -41.21432 
L 95.658602 -41.001854 
L 97.211725 -40.767016 
L 98.76883 -40.576158 
L 100.311479 -40.371676 
L 101.858418 -40.214275 
L 103.391148 -40.038422 
L 104.924794 -39.898309 
L 106.448551 -39.749357 
L 107.968532 -39.614125 
L 109.489332 -39.515971 
L 111.001696 -39.405612 
L 112.511009 -39.308072 
L 114.017519 -39.223109 
L 115.522504 -39.159415 
L 117.023874 -39.097177 
L 118.523318 -39.046917 
L 120.021123 -39.008491 
L 121.517586 -38.981782 
L 123.013189 -38.973705 
L 124.507715 -38.966548 
L 126.00199 -38.964624 
L 127.496607 -38.969585 
L 128.991913 -38.986103 
L 130.488408 -39.01104 
L 131.986198 -39.049099 
L 133.485638 -39.098993 
L 134.987018 -39.160865 
L 136.490618 -39.234884 
L 137.999762 -39.300822 
L 139.509259 -39.398038 
L 141.021818 -39.50808 
L 142.541243 -39.613694 
L 144.061309 -39.748579 
L 145.585163 -39.897189 
L 147.120909 -40.02926 
L 148.653887 -40.204839 
L 150.198859 -40.369477 
L 151.741651 -40.573642 
L 153.301402 -40.756736 
L 154.854809 -40.991339 
L 156.424954 -41.210814 
L 157.989315 -41.477767 
L 159.576116 -41.720183 
L 161.167389 -41.985863 
L 162.769737 -42.260143 
L 164.358192 -42.597187 
L 165.971226 -42.914633 
L 167.59578 -43.242882 
L 169.224296 -43.597406 
L 170.864477 -43.964308 
L 172.538063 -44.308085 
L 174.190848 -44.722761 
L 175.855263 -45.152314 
L 177.522397 -45.611403 
L 179.233074 -46.040251 
L 180.919956 -46.539453 
L 182.648766 -47.015629 
L 184.344826 -47.571498 
L 186.090319 -48.098388 
L 187.844466 -48.651779 
L 189.60679 -49.232614 
L 191.376758 -49.841833 
L 193.15378 -50.480377 
L 194.937195 -51.149185 
L 196.726273 -51.849208 
L 198.520191 -52.581406 
L 200.376502 -53.29127 
L 202.178827 -54.091219 
L 204.03872 -54.876977 
L 205.843989 -55.74943 
L 207.711618 -56.606943 
L 209.571134 -57.510857 
L 211.429193 -58.455158 
L 213.268457 -59.452414 
L 215.091615 -60.499116 
L 216.630317 -61.778439 
L 217.680448 -63.40389 
L 218.75455 -65.01318 
L 219.765678 -66.662749 
L 220.76926 -68.316772 
L 221.700388 -70.012799 
L 222.693885 -71.67398 
L 223.468294 -73.452376 
L 224.483092 -75.105683 
L 225.301501 -76.859255 
L 226.068538 -78.635615 
L 226.896109 -80.384183 
L 227.652557 -82.164541 
L 228.40906 -83.945536 
L 229.031676 -85.778495 
L 229.700683 -87.592851 
L 230.396276 -89.399231 
L 230.965157 -91.248729 
L 231.487675 -93.111464 
L 232.079636 -94.953926 
L 232.568557 -96.825849 
L 232.956124 -98.722273 
L 233.475525 -100.587115 
L 233.775969 -102.50019 
L 234.179433 -104.391083 
L 234.578686 -106.284526 
L 234.910315 -108.190942 
L 235.075035 -110.12096 
L 235.333084 -112.037231 
L 235.576057 -113.956338 
L 235.780705 -115.880489 
L 235.763586 -117.820058 
L 235.893436 -119.748477 
L 235.974264 -121.679772 
L 236.033238 -123.612314 
L 236.057085 -125.546019 
L 236.03497 -127.479942 
L 235.990631 -129.413891 
L 235.913015 -131.347206 
L 235.79025 -133.278388 
L 235.478055 -135.192351 
L 235.290526 -137.116045 
z
" style="stroke: #ffee9c"/>
    </defs>
    <g clip-path="url(#paa6a944012)">
     <use xlink:href="#m5741e28e77" x="0" y="249.158125" style="fill: #ffee9c; stroke: #ffee9c"/>
    </g>
   </g>
   <g id="matplotlib.axis_1">
    <g id="xtick_1">
     <g id="line2d_1">
      <path d="M 125.254844 124.579063 
L 125.254844 13.699063 
" clip-path="url(#paa6a944012)" style="fill: none; stroke: #b0b0b0; stroke-width: 0.8; stroke-linecap: square"/>
     </g>
     <g id="text_1">
      <!-- N -->
      <g transform="translate(121.070469 7.958438) scale(0.1 -0.1)">
       <defs>
        <path id="DejaVuSans-Bold-4e" d="M 588 4666 
L 1931 4666 
L 3628 1466 
L 3628 4666 
L 4769 4666 
L 4769 0 
L 3425 0 
L 1728 3200 
L 1728 0 
L 588 0 
L 588 4666 
z
" transform="scale(0.015625)"/>
       </defs>
       <use xlink:href="#DejaVuSans-Bold-4e"/>
      </g>
     </g>
    </g>
    <g id="xtick_2">
     <g id="line2d_2">
      <path d="M 125.254844 124.579063 
L 203.658844 46.175063 
" clip-path="url(#paa6a944012)" style="fill: none; stroke: #b0b0b0; stroke-width: 0.8; stroke-linecap: square"/>
     </g>
    </g>
    <g id="xtick_3">
     <g id="line2d_3">
      <path d="M 125.254844 124.579063 
L 236.134844 124.579063 
" clip-path="url(#paa6a944012)" style="fill: none; stroke: #b0b0b0; stroke-width: 0.8; stroke-linecap: square"/>
     </g>
     <g id="text_2">
      <!-- E -->
      <g transform="translate(241.219219 127.338438) scale(0.1 -0.1)">
       <defs>
        <path id="DejaVuSans-Bold-45" d="M 588 4666 
L 3834 4666 
L 3834 3756 
L 1791 3756 
L 1791 2888 
L 3713 2888 
L 3713 1978 
L 1791 1978 
L 1791 909 
L 3903 909 
L 3903 0 
L 588 0 
L 588 4666 
z
" transform="scale(0.015625)"/>
       </defs>
       <use xlink:href="#DejaVuSans-Bold-45"/>
      </g>
     </g>
    </g>
    <g id="xtick_4">
     <g id="line2d_4">
      <path d="M 125.254844 124.579063 
L 203.658844 202.983062 
" clip-path="url(#paa6a944012)" style="fill: none; stroke: #b0b0b0; stroke-width: 0.8; stroke-linecap: square"/>
     </g>
    </g>
    <g id="xtick_5">
     <g id="line2d_5">
      <path d="M 125.254844 124.579063 
L 125.254844 235.459063 
" clip-path="url(#paa6a944012)" style="fill: none; stroke: #b0b0b0; stroke-width: 0.8; stroke-linecap: square"/>
     </g>
     <g id="text_3">
      <!-- S -->
      <g transform="translate(121.654062 246.718438) scale(0.1 -0.1)">
       <defs>
        <path id="DejaVuSans-Bold-53" d="M 3834 4519 
L 3834 3531 
Q 3450 3703 3084 3790 
Q 2719 3878 2394 3878 
Q 1963 3878 1756 3759 
Q 1550 3641 1550 3391 
Q 1550 3203 1689 3098 
Q 1828 2994 2194 2919 
L 2706 2816 
Q 3484 2659 3812 2340 
Q 4141 2022 4141 1434 
Q 4141 663 3683 286 
Q 3225 -91 2284 -91 
Q 1841 -91 1394 -6 
Q 947 78 500 244 
L 500 1259 
Q 947 1022 1364 901 
Q 1781 781 2169 781 
Q 2563 781 2772 912 
Q 2981 1044 2981 1288 
Q 2981 1506 2839 1625 
Q 2697 1744 2272 1838 
L 1806 1941 
Q 1106 2091 782 2419 
Q 459 2747 459 3303 
Q 459 4000 909 4375 
Q 1359 4750 2203 4750 
Q 2588 4750 2994 4692 
Q 3400 4634 3834 4519 
z
" transform="scale(0.015625)"/>
       </defs>
       <use xlink:href="#DejaVuSans-Bold-53"/>
      </g>
     </g>
    </g>
    <g id="xtick_6">
     <g id="line2d_6">
      <path d="M 125.254844 124.579063 
L 46.850844 202.983062 
" clip-path="url(#paa6a944012)" style="fill: none; stroke: #b0b0b0; stroke-width: 0.8; stroke-linecap: square"/>
     </g>
    </g>
    <g id="xtick_7">
     <g id="line2d_7">
      <path d="M 125.254844 124.579063 
L 14.374844 124.579063 
" clip-path="url(#paa6a944012)" style="fill: none; stroke: #b0b0b0; stroke-width: 0.8; stroke-linecap: square"/>
     </g>
     <g id="text_4">
      <!-- W -->
      <g transform="translate(0.36 127.338438) scale(0.1 -0.1)">
       <defs>
        <path id="DejaVuSans-Bold-57" d="M 191 4666 
L 1344 4666 
L 2150 1275 
L 2950 4666 
L 4109 4666 
L 4909 1275 
L 5716 4666 
L 6859 4666 
L 5759 0 
L 4372 0 
L 3525 3547 
L 2688 0 
L 1300 0 
L 191 4666 
z
" transform="scale(0.015625)"/>
       </defs>
       <use xlink:href="#DejaVuSans-Bold-57"/>
      </g>
     </g>
    </g>
    <g id="xtick_8">
     <g id="line2d_8">
      <path d="M 125.254844 124.579063 
L 46.850844 46.175063 
" clip-path="url(#paa6a944012)" style="fill: none; stroke: #b0b0b0; stroke-width: 0.8; stroke-linecap: square"/>
     </g>
    </g>
   </g>
   <g id="matplotlib.axis_2"/>
   <g id="patch_3">
    <path d="M 125.254844 124.579063 
C 125.254844 124.579063 125.254844 124.579063 125.254844 124.579063 
C 125.254844 124.579063 125.254844 124.579063 125.254844 124.579063 
L 125.254844 124.579063 
C 125.254844 124.579063 125.254844 124.579063 125.254844 124.579063 
C 125.254844 124.579063 125.254844 124.579063 125.254844 124.579063 
z
" clip-path="url(#paa6a944012)" style="fill: #d9d9d9"/>
   </g>
   <g id="patch_4">
    <path d="M 125.254844 124.579063 
C 125.254844 124.579063 125.254844 124.579063 125.254844 124.579063 
C 125.254844 124.579063 125.254844 124.579063 125.254844 124.579063 
L 125.254844 124.579063 
C 125.254844 124.579063 125.254844 124.579063 125.254844 124.579063 
C 125.254844 124.579063 125.254844 124.579063 125.254844 124.579063 
z
" clip-path="url(#paa6a944012)" style="fill: #d9d9d9"/>
   </g>
   <g id="patch_5">
    <path d="M 125.254844 124.579063 
C 125.254844 124.579063 125.254844 124.579063 125.254844 124.579063 
C 125.254844 124.579063 125.254844 124.579063 125.254844 124.579063 
L 125.254844 124.579063 
C 125.254844 124.579063 125.254844 124.579063 125.254844 124.579063 
C 125.254844 124.579063 125.254844 124.579063 125.254844 124.579063 
z
" clip-path="url(#paa6a944012)" style="fill: #d9d9d9"/>
   </g>
   <g id="patch_6">
    <path d="M 125.254844 124.579063 
C 125.254844 124.579063 125.254844 124.579063 125.254844 124.579063 
C 125.254844 124.579063 125.254844 124.579063 125.254844 124.579063 
L 125.254844 124.579063 
C 125.254844 124.579063 125.254844 124.579063 125.254844 124.579063 
C 125.254844 124.579063 125.254844 124.579063 125.254844 124.579063 
z
" clip-path="url(#paa6a944012)" style="fill: #d9d9d9"/>
   </g>
   <g id="patch_7">
    <path d="M 125.254844 124.579063 
C 125.254844 124.579063 125.254844 124.579063 125.254844 124.579063 
C 125.254844 124.579063 125.254844 124.579063 125.254844 124.579063 
L 125.254844 124.579063 
C 125.254844 124.579063 125.254844 124.579063 125.254844 124.579063 
C 125.254844 124.579063 125.254844 124.579063 125.254844 124.579063 
z
" clip-path="url(#paa6a944012)" style="fill: #d9d9d9"/>
   </g>
   <g id="patch_8">
    <path d="M 125.254844 124.579063 
C 125.254844 124.579063 125.254844 124.579063 125.254844 124.579063 
C 125.254844 124.579063 125.254844 124.579063 125.254844 124.579063 
L 125.254844 124.579063 
C 125.254844 124.579063 125.254844 124.579063 125.254844 124.579063 
C 125.254844 124.579063 125.254844 124.579063 125.254844 124.579063 
z
" clip-path="url(#paa6a944012)" style="fill: #d9d9d9"/>
   </g>
   <g id="patch_9">
    <path d="M 125.254844 124.579063 
C 125.254844 124.579063 125.254844 124.579063 125.254844 124.579063 
C 125.254844 124.579063 125.254844 124.579063 125.254844 124.579063 
L 125.254844 124.579063 
C 125.254844 124.579063 125.254844 124.579063 125.254844 124.579063 
C 125.254844 124.579063 125.254844 124.579063 125.254844 124.579063 
z
" clip-path="url(#paa6a944012)" style="fill: #d9d9d9"/>
   </g>
   <g id="patch_10">
    <path d="M 125.254844 124.579063 
C 125.254844 124.579063 125.254844 124.579063 125.254844 124.579063 
C 125.254844 124.579063 125.254844 124.579063 125.254844 124.579063 
L 125.254844 124.579063 
C 125.254844 124.579063 125.254844 124.579063 125.254844 124.579063 
C 125.254844 124.579063 125.254844 124.579063 125.254844 124.579063 
z
" clip-path="url(#paa6a944012)" style="fill: #d9d9d9"/>
   </g>
   <g id="patch_11">
    <path d="M 125.254844 124.579063 
C 125.254844 124.579063 125.254844 124.579063 125.254844 124.579063 
C 125.254844 124.579063 125.254844 124.579063 125.254844 124.579063 
L 125.254844 124.579063 
C 125.254844 124.579063 125.254844 124.579063 125.254844 124.579063 
C 125.254844 124.579063 125.254844 124.579063 125.254844 124.579063 
z
" clip-path="url(#paa6a944012)" style="fill: #d9d9d9"/>
   </g>
   <g id="patch_12">
    <path d="M 125.254844 124.579063 
C 125.254844 124.579063 125.254844 124.579063 125.254844 124.579063 
C 125.254844 124.579063 125.254844 124.579063 125.254844 124.579063 
L 125.254844 124.579063 
C 125.254844 124.579063 125.254844 124.579063 125.254844 124.579063 
C 125.254844 124.579063 125.254844 124.579063 125.254844 124.579063 
z
" clip-path="url(#paa6a944012)" style="fill: #d9d9d9"/>
   </g>
   <g id="patch_13">
    <path d="M 125.254844 124.579063 
C 125.254844 124.579063 125.254844 124.579063 125.254844 124.579063 
C 125.254844 124.579063 125.254844 124.579063 125.254844 124.579063 
L 125.254844 124.579063 
C 125.254844 124.579063 125.254844 124.579063 125.254844 124.579063 
C 125.254844 124.579063 125.254844 124.579063 125.254844 124.579063 
z
" clip-path="url(#paa6a944012)" style="fill: #d9d9d9"/>
   </g>
   <g id="patch_14">
    <path d="M 125.254844 124.579063 
C 125.254844 124.579063 125.254844 124.579063 125.254844 124.579063 
C 125.254844 124.579063 125.254844 124.579063 125.254844 124.579063 
L 125.254844 124.579063 
C 125.254844 124.579063 125.254844 124.579063 125.254844 124.579063 
C 125.254844 124.579063 125.254844 124.579063 125.254844 124.579063 
z
" clip-path="url(#paa6a944012)" style="fill: #d9d9d9"/>
   </g>
   <g id="patch_15">
    <path d="M 125.254844 124.579063 
C 125.254844 124.579063 125.254844 124.579063 125.254844 124.579063 
C 125.254844 124.579063 125.254844 124.579063 125.254844 124.579063 
L 125.254844 124.579063 
C 125.254844 124.579063 125.254844 124.579063 125.254844 124.579063 
C 125.254844 124.579063 125.254844 124.579063 125.254844 124.579063 
z
" clip-path="url(#paa6a944012)" style="fill: #d9d9d9"/>
   </g>
   <g id="patch_16">
    <path d="M 125.254844 124.579063 
C 125.254844 124.579063 125.254844 124.579063 125.254844 124.579063 
C 125.254844 124.579063 125.254844 124.579063 125.254844 124.579063 
L 125.254844 124.579063 
C 125.254844 124.579063 125.254844 124.579063 125.254844 124.579063 
C 125.254844 124.579063 125.254844 124.579063 125.254844 124.579063 
z
" clip-path="url(#paa6a944012)" style="fill: #d9d9d9"/>
   </g>
   <g id="patch_17">
    <path d="M 125.254844 124.579063 
C 125.254844 124.579063 125.254844 124.579063 125.254844 124.579063 
C 125.254844 124.579063 125.254844 124.579063 125.254844 124.579063 
L 125.254844 124.579063 
C 125.254844 124.579063 125.254844 124.579063 125.254844 124.579063 
C 125.254844 124.579063 125.254844 124.579063 125.254844 124.579063 
z
" clip-path="url(#paa6a944012)" style="fill: #d9d9d9"/>
   </g>
   <g id="patch_18">
    <path d="M 125.254844 124.579063 
C 125.254844 124.579063 125.254844 124.579063 125.254844 124.579063 
C 125.254844 124.579063 125.254844 124.579063 125.254844 124.579063 
L 125.254844 124.579063 
C 125.254844 124.579063 125.254844 124.579063 125.254844 124.579063 
C 125.254844 124.579063 125.254844 124.579063 125.254844 124.579063 
z
" clip-path="url(#paa6a944012)" style="fill: #d9d9d9"/>
   </g>
   <g id="patch_19">
    <path d="M 125.254844 124.579063 
C 125.254844 124.579063 125.254844 124.579063 125.254844 124.579063 
C 125.254844 124.579063 125.254844 124.579063 125.254844 124.579063 
L 125.254844 124.579063 
C 125.254844 124.579063 125.254844 124.579063 125.254844 124.579063 
C 125.254844 124.579063 125.254844 124.579063 125.254844 124.579063 
z
" clip-path="url(#paa6a944012)" style="fill: #d9d9d9"/>
   </g>
   <g id="patch_20">
    <path d="M 125.254844 124.579063 
C 125.254844 124.579063 125.254844 124.579063 125.254844 124.579063 
C 125.254844 124.579063 125.254844 124.579063 125.254844 124.579063 
L 125.254844 124.579063 
C 125.254844 124.579063 125.254844 124.579063 125.254844 124.579063 
C 125.254844 124.579063 125.254844 124.579063 125.254844 124.579063 
z
" clip-path="url(#paa6a944012)" style="fill: #d9d9d9"/>
   </g>
   <g id="patch_21">
    <path d="M 125.254844 124.579063 
C 125.254844 124.579063 125.254844 124.579063 125.254844 124.579063 
C 125.254844 124.579063 125.254844 124.579063 125.254844 124.579063 
L 125.254844 124.579063 
C 125.254844 124.579063 125.254844 124.579063 125.254844 124.579063 
C 125.254844 124.579063 125.254844 124.579063 125.254844 124.579063 
z
" clip-path="url(#paa6a944012)" style="fill: #d9d9d9"/>
   </g>
   <g id="patch_22">
    <path d="M 125.254844 124.579063 
C 125.254844 124.579063 125.254844 124.579063 125.254844 124.579063 
C 125.254844 124.579063 125.254844 124.579063 125.254844 124.579063 
L 125.254844 124.579063 
C 125.254844 124.579063 125.254844 124.579063 125.254844 124.579063 
C 125.254844 124.579063 125.254844 124.579063 125.254844 124.579063 
z
" clip-path="url(#paa6a944012)" style="fill: #d9d9d9"/>
   </g>
   <g id="patch_23">
    <path d="M 125.254844 124.579063 
C 125.254844 124.579063 125.254844 124.579063 125.254844 124.579063 
C 125.254844 124.579063 125.254844 124.579063 125.254844 124.579063 
L 125.254844 124.579063 
C 125.254844 124.579063 125.254844 124.579063 125.254844 124.579063 
C 125.254844 124.579063 125.254844 124.579063 125.254844 124.579063 
z
" clip-path="url(#paa6a944012)" style="fill: #d9d9d9"/>
   </g>
   <g id="patch_24">
    <path d="M 125.254844 124.579063 
C 125.254844 124.579063 125.254844 124.579063 125.254844 124.579063 
C 125.254844 124.579063 125.254844 124.579063 125.254844 124.579063 
L 125.254844 124.579063 
C 125.254844 124.579063 125.254844 124.579063 125.254844 124.579063 
C 125.254844 124.579063 125.254844 124.579063 125.254844 124.579063 
z
" clip-path="url(#paa6a944012)" style="fill: #d9d9d9"/>
   </g>
   <g id="patch_25">
    <path d="M 125.254844 124.579063 
C 125.254844 124.579063 125.254844 124.579063 125.254844 124.579063 
C 125.254844 124.579063 125.254844 124.579063 125.254844 124.579063 
L 125.254844 124.579063 
C 125.254844 124.579063 125.254844 124.579063 125.254844 124.579063 
C 125.254844 124.579063 125.254844 124.579063 125.254844 124.579063 
z
" clip-path="url(#paa6a944012)" style="fill: #d9d9d9"/>
   </g>
   <g id="patch_26">
    <path d="M 125.254844 124.579063 
C 125.254844 124.579063 125.254844 124.579063 125.254844 124.579063 
C 125.254844 124.579063 125.254844 124.579063 125.254844 124.579063 
L 125.254844 124.579063 
C 125.254844 124.579063 125.254844 124.579063 125.254844 124.579063 
C 125.254844 124.579063 125.254844 124.579063 125.254844 124.579063 
z
" clip-path="url(#paa6a944012)" style="fill: #d9d9d9"/>
   </g>
   <g id="patch_27">
    <path d="M 125.254844 124.579063 
C 125.254844 124.579063 125.254844 124.579063 125.254844 124.579063 
C 125.254844 124.579063 125.254844 124.579063 125.254844 124.579063 
L 125.254844 124.579063 
C 125.254844 124.579063 125.254844 124.579063 125.254844 124.579063 
C 125.254844 124.579063 125.254844 124.579063 125.254844 124.579063 
z
" clip-path="url(#paa6a944012)" style="fill: #d9d9d9"/>
   </g>
   <g id="patch_28">
    <path d="M 125.254844 124.579063 
C 125.254844 124.579063 125.254844 124.579063 125.254844 124.579063 
C 125.254844 124.579063 125.254844 124.579063 125.254844 124.579063 
L 125.254844 124.579063 
C 125.254844 124.579063 125.254844 124.579063 125.254844 124.579063 
C 125.254844 124.579063 125.254844 124.579063 125.254844 124.579063 
z
" clip-path="url(#paa6a944012)" style="fill: #d9d9d9"/>
   </g>
   <g id="patch_29">
    <path d="M 125.254844 124.579063 
C 125.254844 124.579063 125.254844 124.579063 125.254844 124.579063 
C 125.254844 124.579063 125.254844 124.579063 125.254844 124.579063 
L 125.254844 124.579063 
C 125.254844 124.579063 125.254844 124.579063 125.254844 124.579063 
C 125.254844 124.579063 125.254844 124.579063 125.254844 124.579063 
z
" clip-path="url(#paa6a944012)" style="fill: #d9d9d9"/>
   </g>
   <g id="patch_30">
    <path d="M 125.254844 124.579063 
C 125.254844 124.579063 125.254844 124.579063 125.254844 124.579063 
C 125.254844 124.579063 125.254844 124.579063 125.254844 124.579063 
L 125.254844 124.579063 
C 125.254844 124.579063 125.254844 124.579063 125.254844 124.579063 
C 125.254844 124.579063 125.254844 124.579063 125.254844 124.579063 
z
" clip-path="url(#paa6a944012)" style="fill: #d9d9d9"/>
   </g>
   <g id="patch_31">
    <path d="M 125.254844 124.579063 
C 125.254844 124.579063 125.254844 124.579063 125.254844 124.579063 
C 125.254844 124.579063 125.254844 124.579063 125.254844 124.579063 
L 125.254844 124.579063 
C 125.254844 124.579063 125.254844 124.579063 125.254844 124.579063 
C 125.254844 124.579063 125.254844 124.579063 125.254844 124.579063 
z
" clip-path="url(#paa6a944012)" style="fill: #d9d9d9"/>
   </g>
   <g id="patch_32">
    <path d="M 125.254844 124.579063 
C 125.254844 124.579063 125.254844 124.579063 125.254844 124.579063 
C 125.254844 124.579063 125.254844 124.579063 125.254844 124.579063 
L 125.254844 124.579063 
C 125.254844 124.579063 125.254844 124.579063 125.254844 124.579063 
C 125.254844 124.579063 125.254844 124.579063 125.254844 124.579063 
z
" clip-path="url(#paa6a944012)" style="fill: #d9d9d9"/>
   </g>
   <g id="patch_33">
    <path d="M 125.254844 124.579063 
C 125.254844 124.579063 125.254844 124.579063 125.254844 124.579063 
C 125.254844 124.579063 125.254844 124.579063 125.254844 124.579063 
L 125.254844 124.579063 
C 125.254844 124.579063 125.254844 124.579063 125.254844 124.579063 
C 125.254844 124.579063 125.254844 124.579063 125.254844 124.579063 
z
" clip-path="url(#paa6a944012)" style="fill: #d9d9d9"/>
   </g>
   <g id="patch_34">
    <path d="M 125.254844 124.579063 
C 125.254844 124.579063 125.254844 124.579063 125.254844 124.579063 
C 125.254844 124.579063 125.254844 124.579063 125.254844 124.579063 
L 125.254844 124.579063 
C 125.254844 124.579063 125.254844 124.579063 125.254844 124.579063 
C 125.254844 124.579063 125.254844 124.579063 125.254844 124.579063 
z
" clip-path="url(#paa6a944012)" style="fill: #d9d9d9"/>
   </g>
   <g id="patch_35">
    <path d="M 125.254844 124.579063 
C 125.254844 124.579063 125.254844 124.579063 125.254844 124.579063 
C 125.254844 124.579063 125.254844 124.579063 125.254844 124.579063 
L 125.254844 124.579063 
C 125.254844 124.579063 125.254844 124.579063 125.254844 124.579063 
C 125.254844 124.579063 125.254844 124.579063 125.254844 124.579063 
z
" clip-path="url(#paa6a944012)" style="fill: #a1a1d8"/>
   </g>
   <g id="patch_36">
    <path d="M 125.254844 124.579063 
C 125.254844 124.579063 125.254844 124.579063 125.254844 124.579063 
C 125.254844 124.579063 125.254844 124.579063 125.254844 124.579063 
L 125.254844 124.579063 
C 125.254844 124.579063 125.254844 124.579063 125.254844 124.579063 
C 125.254844 124.579063 125.254844 124.579063 125.254844 124.579063 
z
" clip-path="url(#paa6a944012)" style="fill: #a1a1d8"/>
   </g>
   <g id="patch_37">
    <path d="M 125.254844 124.579063 
C 125.254844 124.579063 125.254844 124.579063 125.254844 124.579063 
C 125.254844 124.579063 125.254844 124.579063 125.254844 124.579063 
L 125.254844 124.579063 
C 125.254844 124.579063 125.254844 124.579063 125.254844 124.579063 
C 125.254844 124.579063 125.254844 124.579063 125.254844 124.579063 
z
" clip-path="url(#paa6a944012)" style="fill: #a1a1d8"/>
   </g>
   <g id="patch_38">
    <path d="M 125.254844 124.579063 
C 125.254844 124.579063 125.254844 124.579063 125.254844 124.579063 
C 125.254844 124.579063 125.254844 124.579063 125.254844 124.579063 
L 125.254844 124.579063 
C 125.254844 124.579063 125.254844 124.579063 125.254844 124.579063 
C 125.254844 124.579063 125.254844 124.579063 125.254844 124.579063 
z
" clip-path="url(#paa6a944012)" style="fill: #a1a1d8"/>
   </g>
   <g id="patch_39">
    <path d="M 125.254844 124.579063 
C 125.254844 124.579063 125.254844 124.579063 125.254844 124.579063 
C 125.254844 124.579063 125.254844 124.579063 125.254844 124.579063 
L 125.254844 124.579063 
C 125.254844 124.579063 125.254844 124.579063 125.254844 124.579063 
C 125.254844 124.579063 125.254844 124.579063 125.254844 124.579063 
z
" clip-path="url(#paa6a944012)" style="fill: #a1a1d8"/>
   </g>
   <g id="patch_40">
    <path d="M 125.254844 124.579063 
C 125.254844 124.579063 125.254844 124.579063 125.254844 124.579063 
C 125.254844 124.579063 125.254844 124.579063 125.254844 124.579063 
L 125.254844 124.579063 
C 125.254844 124.579063 125.254844 124.579063 125.254844 124.579063 
C 125.254844 124.579063 125.254844 124.579063 125.254844 124.579063 
z
" clip-path="url(#paa6a944012)" style="fill: #a1a1d8"/>
   </g>
   <g id="patch_41">
    <path d="M 125.254844 124.579063 
C 125.254844 124.579063 125.254844 124.579063 125.254844 124.579063 
C 125.254844 124.579063 125.254844 124.579063 125.254844 124.579063 
L 125.254844 124.579063 
C 125.254844 124.579063 125.254844 124.579063 125.254844 124.579063 
C 125.254844 124.579063 125.254844 124.579063 125.254844 124.579063 
z
" clip-path="url(#paa6a944012)" style="fill: #a1a1d8"/>
   </g>
   <g id="patch_42">
    <path d="M 125.254844 124.579063 
C 125.254844 124.579063 125.254844 124.579063 125.254844 124.579063 
C 125.254844 124.579063 125.254844 124.579063 125.254844 124.579063 
L 125.254844 124.579063 
C 125.254844 124.579063 125.254844 124.579063 125.254844 124.579063 
C 125.254844 124.579063 125.254844 124.579063 125.254844 124.579063 
z
" clip-path="url(#paa6a944012)" style="fill: #a1a1d8"/>
   </g>
   <g id="patch_43">
    <path d="M 125.254844 124.579063 
C 125.254844 124.579063 125.254844 124.579063 125.254844 124.579063 
C 125.254844 124.579063 125.254844 124.579063 125.254844 124.579063 
L 125.254844 124.579063 
C 125.254844 124.579063 125.254844 124.579063 125.254844 124.579063 
C 125.254844 124.579063 125.254844 124.579063 125.254844 124.579063 
z
" clip-path="url(#paa6a944012)" style="fill: #a1a1d8"/>
   </g>
   <g id="patch_44">
    <path d="M 125.254844 124.579063 
C 125.254844 124.579063 125.254844 124.579063 125.254844 124.579063 
C 125.254844 124.579063 125.254844 124.579063 125.254844 124.579063 
L 125.254844 124.579063 
C 125.254844 124.579063 125.254844 124.579063 125.254844 124.579063 
C 125.254844 124.579063 125.254844 124.579063 125.254844 124.579063 
z
" clip-path="url(#paa6a944012)" style="fill: #a1a1d8"/>
   </g>
   <g id="patch_45">
    <path d="M 125.254844 124.579063 
C 125.254844 124.579063 125.254844 124.579063 125.254844 124.579063 
C 125.254844 124.579063 125.254844 124.579063 125.254844 124.579063 
L 125.254844 124.579063 
C 125.254844 124.579063 125.254844 124.579063 125.254844 124.579063 
C 125.254844 124.579063 125.254844 124.579063 125.254844 124.579063 
z
" clip-path="url(#paa6a944012)" style="fill: #a1a1d8"/>
   </g>
   <g id="patch_46">
    <path d="M 125.254844 124.579063 
C 125.254844 124.579063 125.254844 124.579063 125.254844 124.579063 
C 125.254844 124.579063 125.254844 124.579063 125.254844 124.579063 
L 125.254844 124.579063 
C 125.254844 124.579063 125.254844 124.579063 125.254844 124.579063 
C 125.254844 124.579063 125.254844 124.579063 125.254844 124.579063 
z
" clip-path="url(#paa6a944012)" style="fill: #a1a1d8"/>
   </g>
   <g id="patch_47">
    <path d="M 125.254844 124.579063 
C 125.254844 124.579063 125.254844 124.579063 125.254844 124.579063 
C 125.254844 124.579063 125.254844 124.579063 125.254844 124.579063 
L 157.962988 164.434052 
C 159.267501 163.363465 160.518666 162.229476 161.711961 161.03618 
C 162.905257 159.842884 164.039247 158.59172 165.109833 157.287207 
z
" clip-path="url(#paa6a944012)" style="fill: #a1a1d8"/>
   </g>
   <g id="patch_48">
    <path d="M 125.254844 124.579063 
C 125.254844 124.579063 125.254844 124.579063 125.254844 124.579063 
C 125.254844 124.579063 125.254844 124.579063 125.254844 124.579063 
L 144.469115 160.526435 
C 145.645726 159.897523 146.79075 159.211222 147.900051 158.470011 
C 149.009353 157.728799 150.081594 156.933571 151.112902 156.087198 
z
" clip-path="url(#paa6a944012)" style="fill: #a1a1d8"/>
   </g>
   <g id="patch_49">
    <path d="M 125.254844 124.579063 
C 125.254844 124.579063 125.254844 124.579063 125.254844 124.579063 
C 125.254844 124.579063 125.254844 124.579063 125.254844 124.579063 
L 137.086933 163.584235 
C 138.363631 163.196953 139.620544 162.747222 140.853134 162.236666 
C 142.085724 161.726111 143.292503 161.155347 144.469115 160.526435 
z
" clip-path="url(#paa6a944012)" style="fill: #a1a1d8"/>
   </g>
   <g id="patch_50">
    <path d="M 125.254844 124.579063 
C 125.254844 124.579063 125.254844 124.579063 125.254844 124.579063 
C 125.254844 124.579063 125.254844 124.579063 125.254844 124.579063 
L 131.444193 187.42058 
C 133.50109 187.217993 135.5468 186.91454 137.573935 186.511318 
C 139.601071 186.108096 141.607187 185.60559 143.585038 185.005615 
z
" clip-path="url(#paa6a944012)" style="fill: #a1a1d8"/>
   </g>
   <g id="patch_51">
    <path d="M 125.254844 124.579063 
C 125.254844 124.579063 125.254844 124.579063 125.254844 124.579063 
C 125.254844 124.579063 125.254844 124.579063 125.254844 124.579063 
L 121.681421 160.860629 
C 122.868971 160.977593 124.061548 161.03618 125.254844 161.03618 
C 126.44814 161.03618 127.640716 160.977593 128.828266 160.860629 
z
" clip-path="url(#paa6a944012)" style="fill: #a1a1d8"/>
   </g>
   <g id="patch_52">
    <path d="M 125.254844 124.579063 
C 125.254844 124.579063 125.254844 124.579063 125.254844 124.579063 
C 125.254844 124.579063 125.254844 124.579063 125.254844 124.579063 
L 125.254844 124.579063 
C 125.254844 124.579063 125.254844 124.579063 125.254844 124.579063 
C 125.254844 124.579063 125.254844 124.579063 125.254844 124.579063 
z
" clip-path="url(#paa6a944012)" style="fill: #a1a1d8"/>
   </g>
   <g id="patch_53">
    <path d="M 125.254844 124.579063 
C 125.254844 124.579063 125.254844 124.579063 125.254844 124.579063 
C 125.254844 124.579063 125.254844 124.579063 125.254844 124.579063 
L 113.102672 147.314177 
C 113.846826 147.711936 114.610061 148.072919 115.389619 148.395822 
C 116.169177 148.718726 116.964119 149.003161 117.771573 149.248099 
z
" clip-path="url(#paa6a944012)" style="fill: #a1a1d8"/>
   </g>
   <g id="patch_54">
    <path d="M 125.254844 124.579063 
C 125.254844 124.579063 125.254844 124.579063 125.254844 124.579063 
C 125.254844 124.579063 125.254844 124.579063 125.254844 124.579063 
L 108.900772 144.506557 
C 109.553028 145.04185 110.231173 145.544797 110.932757 146.01358 
C 111.634341 146.482363 112.358518 146.916418 113.102672 147.314177 
z
" clip-path="url(#paa6a944012)" style="fill: #a1a1d8"/>
   </g>
   <g id="patch_55">
    <path d="M 125.254844 124.579063 
C 125.254844 124.579063 125.254844 124.579063 125.254844 124.579063 
C 125.254844 124.579063 125.254844 124.579063 125.254844 124.579063 
L 65.47236 173.641279 
C 67.07824 175.598049 68.779223 177.474795 70.569167 179.264739 
C 72.359111 181.054683 74.235857 182.755667 76.192627 184.361546 
z
" clip-path="url(#paa6a944012)" style="fill: #a1a1d8"/>
   </g>
   <g id="patch_56">
    <path d="M 125.254844 124.579063 
C 125.254844 124.579063 125.254844 124.579063 125.254844 124.579063 
C 125.254844 124.579063 125.254844 124.579063 125.254844 124.579063 
L 51.584653 163.9566 
C 52.873538 166.367935 54.280037 168.714537 55.799068 170.987928 
C 57.3181 173.261319 58.947833 175.45876 60.682381 177.572313 
z
" clip-path="url(#paa6a944012)" style="fill: #a1a1d8"/>
   </g>
   <g id="patch_57">
    <path d="M 125.254844 124.579063 
C 125.254844 124.579063 125.254844 124.579063 125.254844 124.579063 
C 125.254844 124.579063 125.254844 124.579063 125.254844 124.579063 
L 19.149304 156.765826 
C 20.202825 160.238819 21.426225 163.657993 22.815086 167.011 
C 24.203947 170.364006 25.756593 173.646802 27.467418 176.84753 
z
" clip-path="url(#paa6a944012)" style="fill: #a1a1d8"/>
   </g>
   <g id="patch_58">
    <path d="M 125.254844 124.579063 
C 125.254844 124.579063 125.254844 124.579063 125.254844 124.579063 
C 125.254844 124.579063 125.254844 124.579063 125.254844 124.579063 
L 48.290018 132.159436 
C 48.538135 134.67861 48.909787 137.184083 49.403631 139.666807 
C 49.897476 142.14953 50.512917 144.606511 51.247733 147.028874 
z
" clip-path="url(#paa6a944012)" style="fill: #a1a1d8"/>
   </g>
   <g id="patch_59">
    <path d="M 125.254844 124.579063 
C 125.254844 124.579063 125.254844 124.579063 125.254844 124.579063 
C 125.254844 124.579063 125.254844 124.579063 125.254844 124.579063 
L 67.88865 118.928986 
C 67.703714 120.806667 67.611079 122.692296 67.611079 124.579062 
C 67.611079 126.465829 67.703714 128.351458 67.88865 130.229139 
z
" clip-path="url(#paa6a944012)" style="fill: #a1a1d8"/>
   </g>
   <g id="patch_60">
    <path d="M 125.254844 124.579063 
C 125.254844 124.579063 125.254844 124.579063 125.254844 124.579063 
C 125.254844 124.579063 125.254844 124.579063 125.254844 124.579063 
L 62.360894 105.500391 
C 61.73642 107.559004 61.213395 109.647036 60.793708 111.756945 
C 60.374021 113.866855 60.058178 115.996098 59.847319 118.136984 
z
" clip-path="url(#paa6a944012)" style="fill: #a1a1d8"/>
   </g>
   <g id="patch_61">
    <path d="M 125.254844 124.579063 
C 125.254844 124.579063 125.254844 124.579063 125.254844 124.579063 
C 125.254844 124.579063 125.254844 124.579063 125.254844 124.579063 
L 65.103385 92.427438 
C 64.051014 94.396285 63.095942 96.415614 62.24162 98.478131 
C 61.387297 100.540647 60.634754 102.643866 59.986707 104.78019 
z
" clip-path="url(#paa6a944012)" style="fill: #a1a1d8"/>
   </g>
   <g id="patch_62">
    <path d="M 125.254844 124.579063 
C 125.254844 124.579063 125.254844 124.579063 125.254844 124.579063 
C 125.254844 124.579063 125.254844 124.579063 125.254844 124.579063 
L 125.254844 124.579063 
C 125.254844 124.579063 125.254844 124.579063 125.254844 124.579063 
C 125.254844 124.579063 125.254844 124.579063 125.254844 124.579063 
z
" clip-path="url(#paa6a944012)" style="fill: #a1a1d8"/>
   </g>
   <g id="patch_63">
    <path d="M 125.254844 124.579063 
C 125.254844 124.579063 125.254844 124.579063 125.254844 124.579063 
C 125.254844 124.579063 125.254844 124.579063 125.254844 124.579063 
L 125.254844 124.579063 
C 125.254844 124.579063 125.254844 124.579063 125.254844 124.579063 
C 125.254844 124.579063 125.254844 124.579063 125.254844 124.579063 
z
" clip-path="url(#paa6a944012)" style="fill: #a1a1d8"/>
   </g>
   <g id="patch_64">
    <path d="M 125.254844 124.579063 
C 125.254844 124.579063 125.254844 124.579063 125.254844 124.579063 
C 125.254844 124.579063 125.254844 124.579063 125.254844 124.579063 
L 125.254844 124.579063 
C 125.254844 124.579063 125.254844 124.579063 125.254844 124.579063 
C 125.254844 124.579063 125.254844 124.579063 125.254844 124.579063 
z
" clip-path="url(#paa6a944012)" style="fill: #a1a1d8"/>
   </g>
   <g id="patch_65">
    <path d="M 125.254844 124.579063 
C 125.254844 124.579063 125.254844 124.579063 125.254844 124.579063 
C 125.254844 124.579063 125.254844 124.579063 125.254844 124.579063 
L 125.254844 124.579063 
C 125.254844 124.579063 125.254844 124.579063 125.254844 124.579063 
C 125.254844 124.579063 125.254844 124.579063 125.254844 124.579063 
z
" clip-path="url(#paa6a944012)" style="fill: #a1a1d8"/>
   </g>
   <g id="patch_66">
    <path d="M 125.254844 124.579063 
C 125.254844 124.579063 125.254844 124.579063 125.254844 124.579063 
C 125.254844 124.579063 125.254844 124.579063 125.254844 124.579063 
L 125.254844 124.579063 
C 125.254844 124.579063 125.254844 124.579063 125.254844 124.579063 
C 125.254844 124.579063 125.254844 124.579063 125.254844 124.579063 
z
" clip-path="url(#paa6a944012)" style="fill: #a1a1d8"/>
   </g>
   <g id="patch_67">
    <path d="M 125.254844 124.579063 
C 125.254844 124.579063 125.254844 124.579063 125.254844 124.579063 
C 125.254844 124.579063 125.254844 124.579063 125.254844 124.579063 
L 125.254844 124.579063 
C 125.254844 124.579063 125.254844 124.579063 125.254844 124.579063 
C 125.254844 124.579063 125.254844 124.579063 125.254844 124.579063 
z
" clip-path="url(#paa6a944012)" style="fill: #ff8c8e"/>
   </g>
   <g id="patch_68">
    <path d="M 125.254844 124.579063 
C 125.254844 124.579063 125.254844 124.579063 125.254844 124.579063 
C 125.254844 124.579063 125.254844 124.579063 125.254844 124.579063 
L 125.254844 124.579063 
C 125.254844 124.579063 125.254844 124.579063 125.254844 124.579063 
C 125.254844 124.579063 125.254844 124.579063 125.254844 124.579063 
z
" clip-path="url(#paa6a944012)" style="fill: #ff8c8e"/>
   </g>
   <g id="patch_69">
    <path d="M 125.254844 124.579063 
C 125.254844 124.579063 125.254844 124.579063 125.254844 124.579063 
C 125.254844 124.579063 125.254844 124.579063 125.254844 124.579063 
L 125.254844 124.579063 
C 125.254844 124.579063 125.254844 124.579063 125.254844 124.579063 
C 125.254844 124.579063 125.254844 124.579063 125.254844 124.579063 
z
" clip-path="url(#paa6a944012)" style="fill: #ff8c8e"/>
   </g>
   <g id="patch_70">
    <path d="M 125.254844 124.579063 
C 125.254844 124.579063 125.254844 124.579063 125.254844 124.579063 
C 125.254844 124.579063 125.254844 124.579063 125.254844 124.579063 
L 125.254844 124.579063 
C 125.254844 124.579063 125.254844 124.579063 125.254844 124.579063 
C 125.254844 124.579063 125.254844 124.579063 125.254844 124.579063 
z
" clip-path="url(#paa6a944012)" style="fill: #ff8c8e"/>
   </g>
   <g id="patch_71">
    <path d="M 125.254844 124.579063 
C 125.254844 124.579063 125.254844 124.579063 125.254844 124.579063 
C 125.254844 124.579063 125.254844 124.579063 125.254844 124.579063 
L 125.254844 124.579063 
C 125.254844 124.579063 125.254844 124.579063 125.254844 124.579063 
C 125.254844 124.579063 125.254844 124.579063 125.254844 124.579063 
z
" clip-path="url(#paa6a944012)" style="fill: #ff8c8e"/>
   </g>
   <g id="patch_72">
    <path d="M 125.254844 124.579063 
C 125.254844 124.579063 125.254844 124.579063 125.254844 124.579063 
C 125.254844 124.579063 125.254844 124.579063 125.254844 124.579063 
L 125.254844 124.579063 
C 125.254844 124.579063 125.254844 124.579063 125.254844 124.579063 
C 125.254844 124.579063 125.254844 124.579063 125.254844 124.579063 
z
" clip-path="url(#paa6a944012)" style="fill: #ff8c8e"/>
   </g>
   <g id="patch_73">
    <path d="M 125.254844 124.579063 
C 125.254844 124.579063 125.254844 124.579063 125.254844 124.579063 
C 125.254844 124.579063 125.254844 124.579063 125.254844 124.579063 
L 125.254844 124.579063 
C 125.254844 124.579063 125.254844 124.579063 125.254844 124.579063 
C 125.254844 124.579063 125.254844 124.579063 125.254844 124.579063 
z
" clip-path="url(#paa6a944012)" style="fill: #ff8c8e"/>
   </g>
   <g id="patch_74">
    <path d="M 125.254844 124.579063 
C 125.254844 124.579063 125.254844 124.579063 125.254844 124.579063 
C 125.254844 124.579063 125.254844 124.579063 125.254844 124.579063 
L 125.254844 124.579063 
C 125.254844 124.579063 125.254844 124.579063 125.254844 124.579063 
C 125.254844 124.579063 125.254844 124.579063 125.254844 124.579063 
z
" clip-path="url(#paa6a944012)" style="fill: #ff8c8e"/>
   </g>
   <g id="patch_75">
    <path d="M 125.254844 124.579063 
C 125.254844 124.579063 125.254844 124.579063 125.254844 124.579063 
C 125.254844 124.579063 125.254844 124.579063 125.254844 124.579063 
L 125.254844 124.579063 
C 125.254844 124.579063 125.254844 124.579063 125.254844 124.579063 
C 125.254844 124.579063 125.254844 124.579063 125.254844 124.579063 
z
" clip-path="url(#paa6a944012)" style="fill: #ff8c8e"/>
   </g>
   <g id="patch_76">
    <path d="M 125.254844 124.579063 
C 125.254844 124.579063 125.254844 124.579063 125.254844 124.579063 
C 125.254844 124.579063 125.254844 124.579063 125.254844 124.579063 
L 125.254844 124.579063 
C 125.254844 124.579063 125.254844 124.579063 125.254844 124.579063 
C 125.254844 124.579063 125.254844 124.579063 125.254844 124.579063 
z
" clip-path="url(#paa6a944012)" style="fill: #ff8c8e"/>
   </g>
   <g id="patch_77">
    <path d="M 125.254844 124.579063 
C 125.254844 124.579063 125.254844 124.579063 125.254844 124.579063 
C 125.254844 124.579063 125.254844 124.579063 125.254844 124.579063 
L 125.254844 124.579063 
C 125.254844 124.579063 125.254844 124.579063 125.254844 124.579063 
C 125.254844 124.579063 125.254844 124.579063 125.254844 124.579063 
z
" clip-path="url(#paa6a944012)" style="fill: #ff8c8e"/>
   </g>
   <g id="patch_78">
    <path d="M 125.254844 124.579063 
C 125.254844 124.579063 125.254844 124.579063 125.254844 124.579063 
C 125.254844 124.579063 125.254844 124.579063 125.254844 124.579063 
L 125.254844 124.579063 
C 125.254844 124.579063 125.254844 124.579063 125.254844 124.579063 
C 125.254844 124.579063 125.254844 124.579063 125.254844 124.579063 
z
" clip-path="url(#paa6a944012)" style="fill: #ff8c8e"/>
   </g>
   <g id="patch_79">
    <path d="M 165.109833 157.287207 
C 164.039247 158.59172 162.905257 159.842884 161.711961 161.03618 
C 160.518666 162.229476 159.267501 163.363465 157.962988 164.434052 
L 157.962988 164.434052 
C 159.267501 163.363465 160.518666 162.229476 161.711961 161.03618 
C 162.905257 159.842884 164.039247 158.59172 165.109833 157.287207 
z
" clip-path="url(#paa6a944012)" style="fill: #ff8c8e"/>
   </g>
   <g id="patch_80">
    <path d="M 151.112902 156.087198 
C 150.081594 156.933571 149.009353 157.728799 147.900051 158.470011 
C 146.79075 159.211222 145.645726 159.897523 144.469115 160.526435 
L 144.469115 160.526435 
C 145.645726 159.897523 146.79075 159.211222 147.900051 158.470011 
C 149.009353 157.728799 150.081594 156.933571 151.112902 156.087198 
z
" clip-path="url(#paa6a944012)" style="fill: #ff8c8e"/>
   </g>
   <g id="patch_81">
    <path d="M 144.469115 160.526435 
C 143.292503 161.155347 142.085724 161.726111 140.853134 162.236666 
C 139.620544 162.747222 138.363631 163.196953 137.086933 163.584235 
L 137.086933 163.584235 
C 138.363631 163.196953 139.620544 162.747222 140.853134 162.236666 
C 142.085724 161.726111 143.292503 161.155347 144.469115 160.526435 
z
" clip-path="url(#paa6a944012)" style="fill: #ff8c8e"/>
   </g>
   <g id="patch_82">
    <path d="M 143.585038 185.005615 
C 141.607187 185.60559 139.601071 186.108096 137.573935 186.511318 
C 135.5468 186.91454 133.50109 187.217993 131.444193 187.42058 
L 131.444193 187.42058 
C 133.50109 187.217993 135.5468 186.91454 137.573935 186.511318 
C 139.601071 186.108096 141.607187 185.60559 143.585038 185.005615 
z
" clip-path="url(#paa6a944012)" style="fill: #ff8c8e"/>
   </g>
   <g id="patch_83">
    <path d="M 128.828266 160.860629 
C 127.640716 160.977593 126.44814 161.03618 125.254844 161.03618 
C 124.061548 161.03618 122.868971 160.977593 121.681421 160.860629 
L 121.681421 160.860629 
C 122.868971 160.977593 124.061548 161.03618 125.254844 161.03618 
C 126.44814 161.03618 127.640716 160.977593 128.828266 160.860629 
z
" clip-path="url(#paa6a944012)" style="fill: #ff8c8e"/>
   </g>
   <g id="patch_84">
    <path d="M 125.254844 124.579063 
C 125.254844 124.579063 125.254844 124.579063 125.254844 124.579063 
C 125.254844 124.579063 125.254844 124.579063 125.254844 124.579063 
L 125.254844 124.579063 
C 125.254844 124.579063 125.254844 124.579063 125.254844 124.579063 
C 125.254844 124.579063 125.254844 124.579063 125.254844 124.579063 
z
" clip-path="url(#paa6a944012)" style="fill: #ff8c8e"/>
   </g>
   <g id="patch_85">
    <path d="M 117.771573 149.248099 
C 116.964119 149.003161 116.169177 148.718726 115.389619 148.395822 
C 114.610061 148.072919 113.846826 147.711936 113.102672 147.314177 
L 113.102672 147.314177 
C 113.846826 147.711936 114.610061 148.072919 115.389619 148.395822 
C 116.169177 148.718726 116.964119 149.003161 117.771573 149.248099 
z
" clip-path="url(#paa6a944012)" style="fill: #ff8c8e"/>
   </g>
   <g id="patch_86">
    <path d="M 113.102672 147.314177 
C 112.358518 146.916418 111.634341 146.482363 110.932757 146.01358 
C 110.231173 145.544797 109.553028 145.04185 108.900772 144.506557 
L 108.900772 144.506557 
C 109.553028 145.04185 110.231173 145.544797 110.932757 146.01358 
C 111.634341 146.482363 112.358518 146.916418 113.102672 147.314177 
z
" clip-path="url(#paa6a944012)" style="fill: #ff8c8e"/>
   </g>
   <g id="patch_87">
    <path d="M 76.192627 184.361546 
C 74.235857 182.755667 72.359111 181.054683 70.569167 179.264739 
C 68.779223 177.474795 67.07824 175.598049 65.47236 173.641279 
L 65.47236 173.641279 
C 67.07824 175.598049 68.779223 177.474795 70.569167 179.264739 
C 72.359111 181.054683 74.235857 182.755667 76.192627 184.361546 
z
" clip-path="url(#paa6a944012)" style="fill: #ff8c8e"/>
   </g>
   <g id="patch_88">
    <path d="M 60.682381 177.572313 
C 58.947833 175.45876 57.3181 173.261319 55.799068 170.987928 
C 54.280037 168.714537 52.873538 166.367935 51.584653 163.9566 
L 51.584653 163.9566 
C 52.873538 166.367935 54.280037 168.714537 55.799068 170.987928 
C 57.3181 173.261319 58.947833 175.45876 60.682381 177.572313 
z
" clip-path="url(#paa6a944012)" style="fill: #ff8c8e"/>
   </g>
   <g id="patch_89">
    <path d="M 27.467418 176.84753 
C 25.756593 173.646802 24.203947 170.364006 22.815086 167.011 
C 21.426225 163.657993 20.202825 160.238819 19.149304 156.765826 
L 19.149304 156.765826 
C 20.202825 160.238819 21.426225 163.657993 22.815086 167.011 
C 24.203947 170.364006 25.756593 173.646802 27.467418 176.84753 
z
" clip-path="url(#paa6a944012)" style="fill: #ff8c8e"/>
   </g>
   <g id="patch_90">
    <path d="M 51.247733 147.028874 
C 50.512917 144.606511 49.897476 142.14953 49.403631 139.666807 
C 48.909787 137.184083 48.538135 134.67861 48.290018 132.159436 
L 48.290018 132.159436 
C 48.538135 134.67861 48.909787 137.184083 49.403631 139.666807 
C 49.897476 142.14953 50.512917 144.606511 51.247733 147.028874 
z
" clip-path="url(#paa6a944012)" style="fill: #ff8c8e"/>
   </g>
   <g id="patch_91">
    <path d="M 67.88865 130.229139 
C 67.703714 128.351458 67.611079 126.465829 67.611079 124.579062 
C 67.611079 122.692296 67.703714 120.806667 67.88865 118.928986 
L 67.88865 118.928986 
C 67.703714 120.806667 67.611079 122.692296 67.611079 124.579062 
C 67.611079 126.465829 67.703714 128.351458 67.88865 130.229139 
z
" clip-path="url(#paa6a944012)" style="fill: #ff8c8e"/>
   </g>
   <g id="patch_92">
    <path d="M 59.847319 118.136984 
C 60.058178 115.996098 60.374021 113.866855 60.793708 111.756945 
C 61.213395 109.647036 61.73642 107.559004 62.360894 105.500391 
L 62.360894 105.500391 
C 61.73642 107.559004 61.213395 109.647036 60.793708 111.756945 
C 60.374021 113.866855 60.058178 115.996098 59.847319 118.136984 
z
" clip-path="url(#paa6a944012)" style="fill: #ff8c8e"/>
   </g>
   <g id="patch_93">
    <path d="M 59.986707 104.78019 
C 60.634754 102.643866 61.387297 100.540647 62.24162 98.478131 
C 63.095942 96.415614 64.051014 94.396285 65.103385 92.427438 
L 65.103385 92.427438 
C 64.051014 94.396285 63.095942 96.415614 62.24162 98.478131 
C 61.387297 100.540647 60.634754 102.643866 59.986707 104.78019 
z
" clip-path="url(#paa6a944012)" style="fill: #ff8c8e"/>
   </g>
   <g id="patch_94">
    <path d="M 125.254844 124.579063 
C 125.254844 124.579063 125.254844 124.579063 125.254844 124.579063 
C 125.254844 124.579063 125.254844 124.579063 125.254844 124.579063 
L 125.254844 124.579063 
C 125.254844 124.579063 125.254844 124.579063 125.254844 124.579063 
C 125.254844 124.579063 125.254844 124.579063 125.254844 124.579063 
z
" clip-path="url(#paa6a944012)" style="fill: #ff8c8e"/>
   </g>
   <g id="patch_95">
    <path d="M 125.254844 124.579063 
C 125.254844 124.579063 125.254844 124.579063 125.254844 124.579063 
C 125.254844 124.579063 125.254844 124.579063 125.254844 124.579063 
L 125.254844 124.579063 
C 125.254844 124.579063 125.254844 124.579063 125.254844 124.579063 
C 125.254844 124.579063 125.254844 124.579063 125.254844 124.579063 
z
" clip-path="url(#paa6a944012)" style="fill: #ff8c8e"/>
   </g>
   <g id="patch_96">
    <path d="M 125.254844 124.579063 
C 125.254844 124.579063 125.254844 124.579063 125.254844 124.579063 
C 125.254844 124.579063 125.254844 124.579063 125.254844 124.579063 
L 125.254844 124.579063 
C 125.254844 124.579063 125.254844 124.579063 125.254844 124.579063 
C 125.254844 124.579063 125.254844 124.579063 125.254844 124.579063 
z
" clip-path="url(#paa6a944012)" style="fill: #ff8c8e"/>
   </g>
   <g id="patch_97">
    <path d="M 125.254844 124.579063 
C 125.254844 124.579063 125.254844 124.579063 125.254844 124.579063 
C 125.254844 124.579063 125.254844 124.579063 125.254844 124.579063 
L 125.254844 124.579063 
C 125.254844 124.579063 125.254844 124.579063 125.254844 124.579063 
C 125.254844 124.579063 125.254844 124.579063 125.254844 124.579063 
z
" clip-path="url(#paa6a944012)" style="fill: #ff8c8e"/>
   </g>
   <g id="patch_98">
    <path d="M 125.254844 124.579063 
C 125.254844 124.579063 125.254844 124.579063 125.254844 124.579063 
C 125.254844 124.579063 125.254844 124.579063 125.254844 124.579063 
L 125.254844 124.579063 
C 125.254844 124.579063 125.254844 124.579063 125.254844 124.579063 
C 125.254844 124.579063 125.254844 124.579063 125.254844 124.579063 
z
" clip-path="url(#paa6a944012)" style="fill: #ff8c8e"/>
   </g>
   <g id="patch_99">
    <path d="M 125.254844 124.579063 
C 125.254844 124.579063 125.254844 124.579063 125.254844 124.579063 
C 125.254844 124.579063 125.254844 124.579063 125.254844 124.579063 
L 125.254844 124.579063 
C 125.254844 124.579063 125.254844 124.579063 125.254844 124.579063 
C 125.254844 124.579063 125.254844 124.579063 125.254844 124.579063 
z
" clip-path="url(#paa6a944012)" style="fill: #828282"/>
   </g>
   <g id="patch_100">
    <path d="M 125.254844 124.579063 
C 125.254844 124.579063 125.254844 124.579063 125.254844 124.579063 
C 125.254844 124.579063 125.254844 124.579063 125.254844 124.579063 
L 125.254844 124.579063 
C 125.254844 124.579063 125.254844 124.579063 125.254844 124.579063 
C 125.254844 124.579063 125.254844 124.579063 125.254844 124.579063 
z
" clip-path="url(#paa6a944012)" style="fill: #828282"/>
   </g>
   <g id="patch_101">
    <path d="M 125.254844 124.579063 
C 125.254844 124.579063 125.254844 124.579063 125.254844 124.579063 
C 125.254844 124.579063 125.254844 124.579063 125.254844 124.579063 
L 125.254844 124.579063 
C 125.254844 124.579063 125.254844 124.579063 125.254844 124.579063 
C 125.254844 124.579063 125.254844 124.579063 125.254844 124.579063 
z
" clip-path="url(#paa6a944012)" style="fill: #828282"/>
   </g>
   <g id="patch_102">
    <path d="M 125.254844 124.579063 
C 125.254844 124.579063 125.254844 124.579063 125.254844 124.579063 
C 125.254844 124.579063 125.254844 124.579063 125.254844 124.579063 
L 125.254844 124.579063 
C 125.254844 124.579063 125.254844 124.579063 125.254844 124.579063 
C 125.254844 124.579063 125.254844 124.579063 125.254844 124.579063 
z
" clip-path="url(#paa6a944012)" style="fill: #828282"/>
   </g>
   <g id="patch_103">
    <path d="M 125.254844 124.579063 
C 125.254844 124.579063 125.254844 124.579063 125.254844 124.579063 
C 125.254844 124.579063 125.254844 124.579063 125.254844 124.579063 
L 125.254844 124.579063 
C 125.254844 124.579063 125.254844 124.579063 125.254844 124.579063 
C 125.254844 124.579063 125.254844 124.579063 125.254844 124.579063 
z
" clip-path="url(#paa6a944012)" style="fill: #828282"/>
   </g>
   <g id="patch_104">
    <path d="M 125.254844 124.579063 
C 125.254844 124.579063 125.254844 124.579063 125.254844 124.579063 
C 125.254844 124.579063 125.254844 124.579063 125.254844 124.579063 
L 125.254844 124.579063 
C 125.254844 124.579063 125.254844 124.579063 125.254844 124.579063 
C 125.254844 124.579063 125.254844 124.579063 125.254844 124.579063 
z
" clip-path="url(#paa6a944012)" style="fill: #828282"/>
   </g>
   <g id="patch_105">
    <path d="M 125.254844 124.579063 
C 125.254844 124.579063 125.254844 124.579063 125.254844 124.579063 
C 125.254844 124.579063 125.254844 124.579063 125.254844 124.579063 
L 125.254844 124.579063 
C 125.254844 124.579063 125.254844 124.579063 125.254844 124.579063 
C 125.254844 124.579063 125.254844 124.579063 125.254844 124.579063 
z
" clip-path="url(#paa6a944012)" style="fill: #828282"/>
   </g>
   <g id="patch_106">
    <path d="M 125.254844 124.579063 
C 125.254844 124.579063 125.254844 124.579063 125.254844 124.579063 
C 125.254844 124.579063 125.254844 124.579063 125.254844 124.579063 
L 125.254844 124.579063 
C 125.254844 124.579063 125.254844 124.579063 125.254844 124.579063 
C 125.254844 124.579063 125.254844 124.579063 125.254844 124.579063 
z
" clip-path="url(#paa6a944012)" style="fill: #828282"/>
   </g>
   <g id="patch_107">
    <path d="M 125.254844 124.579063 
C 125.254844 124.579063 125.254844 124.579063 125.254844 124.579063 
C 125.254844 124.579063 125.254844 124.579063 125.254844 124.579063 
L 125.254844 124.579063 
C 125.254844 124.579063 125.254844 124.579063 125.254844 124.579063 
C 125.254844 124.579063 125.254844 124.579063 125.254844 124.579063 
z
" clip-path="url(#paa6a944012)" style="fill: #828282"/>
   </g>
   <g id="patch_108">
    <path d="M 125.254844 124.579063 
C 125.254844 124.579063 125.254844 124.579063 125.254844 124.579063 
C 125.254844 124.579063 125.254844 124.579063 125.254844 124.579063 
L 125.254844 124.579063 
C 125.254844 124.579063 125.254844 124.579063 125.254844 124.579063 
C 125.254844 124.579063 125.254844 124.579063 125.254844 124.579063 
z
" clip-path="url(#paa6a944012)" style="fill: #828282"/>
   </g>
   <g id="patch_109">
    <path d="M 125.254844 124.579063 
C 125.254844 124.579063 125.254844 124.579063 125.254844 124.579063 
C 125.254844 124.579063 125.254844 124.579063 125.254844 124.579063 
L 125.254844 124.579063 
C 125.254844 124.579063 125.254844 124.579063 125.254844 124.579063 
C 125.254844 124.579063 125.254844 124.579063 125.254844 124.579063 
z
" clip-path="url(#paa6a944012)" style="fill: #828282"/>
   </g>
   <g id="patch_110">
    <path d="M 125.254844 124.579063 
C 125.254844 124.579063 125.254844 124.579063 125.254844 124.579063 
C 125.254844 124.579063 125.254844 124.579063 125.254844 124.579063 
L 125.254844 124.579063 
C 125.254844 124.579063 125.254844 124.579063 125.254844 124.579063 
C 125.254844 124.579063 125.254844 124.579063 125.254844 124.579063 
z
" clip-path="url(#paa6a944012)" style="fill: #828282"/>
   </g>
   <g id="patch_111">
    <path d="M 165.109833 157.287207 
C 164.039247 158.59172 162.905257 159.842884 161.711961 161.03618 
C 160.518666 162.229476 159.267501 163.363465 157.962988 164.434052 
L 157.962988 164.434052 
C 159.267501 163.363465 160.518666 162.229476 161.711961 161.03618 
C 162.905257 159.842884 164.039247 158.59172 165.109833 157.287207 
z
" clip-path="url(#paa6a944012)" style="fill: #828282"/>
   </g>
   <g id="patch_112">
    <path d="M 151.112902 156.087198 
C 150.081594 156.933571 149.009353 157.728799 147.900051 158.470011 
C 146.79075 159.211222 145.645726 159.897523 144.469115 160.526435 
L 144.469115 160.526435 
C 145.645726 159.897523 146.79075 159.211222 147.900051 158.470011 
C 149.009353 157.728799 150.081594 156.933571 151.112902 156.087198 
z
" clip-path="url(#paa6a944012)" style="fill: #828282"/>
   </g>
   <g id="patch_113">
    <path d="M 144.469115 160.526435 
C 143.292503 161.155347 142.085724 161.726111 140.853134 162.236666 
C 139.620544 162.747222 138.363631 163.196953 137.086933 163.584235 
L 137.086933 163.584235 
C 138.363631 163.196953 139.620544 162.747222 140.853134 162.236666 
C 142.085724 161.726111 143.292503 161.155347 144.469115 160.526435 
z
" clip-path="url(#paa6a944012)" style="fill: #828282"/>
   </g>
   <g id="patch_114">
    <path d="M 143.585038 185.005615 
C 141.607187 185.60559 139.601071 186.108096 137.573935 186.511318 
C 135.5468 186.91454 133.50109 187.217993 131.444193 187.42058 
L 131.444193 187.42058 
C 133.50109 187.217993 135.5468 186.91454 137.573935 186.511318 
C 139.601071 186.108096 141.607187 185.60559 143.585038 185.005615 
z
" clip-path="url(#paa6a944012)" style="fill: #828282"/>
   </g>
   <g id="patch_115">
    <path d="M 128.828266 160.860629 
C 127.640716 160.977593 126.44814 161.03618 125.254844 161.03618 
C 124.061548 161.03618 122.868971 160.977593 121.681421 160.860629 
L 121.681421 160.860629 
C 122.868971 160.977593 124.061548 161.03618 125.254844 161.03618 
C 126.44814 161.03618 127.640716 160.977593 128.828266 160.860629 
z
" clip-path="url(#paa6a944012)" style="fill: #828282"/>
   </g>
   <g id="patch_116">
    <path d="M 125.254844 124.579063 
C 125.254844 124.579063 125.254844 124.579063 125.254844 124.579063 
C 125.254844 124.579063 125.254844 124.579063 125.254844 124.579063 
L 125.254844 124.579063 
C 125.254844 124.579063 125.254844 124.579063 125.254844 124.579063 
C 125.254844 124.579063 125.254844 124.579063 125.254844 124.579063 
z
" clip-path="url(#paa6a944012)" style="fill: #828282"/>
   </g>
   <g id="patch_117">
    <path d="M 117.771573 149.248099 
C 116.964119 149.003161 116.169177 148.718726 115.389619 148.395822 
C 114.610061 148.072919 113.846826 147.711936 113.102672 147.314177 
L 113.102672 147.314177 
C 113.846826 147.711936 114.610061 148.072919 115.389619 148.395822 
C 116.169177 148.718726 116.964119 149.003161 117.771573 149.248099 
z
" clip-path="url(#paa6a944012)" style="fill: #828282"/>
   </g>
   <g id="patch_118">
    <path d="M 113.102672 147.314177 
C 112.358518 146.916418 111.634341 146.482363 110.932757 146.01358 
C 110.231173 145.544797 109.553028 145.04185 108.900772 144.506557 
L 108.900772 144.506557 
C 109.553028 145.04185 110.231173 145.544797 110.932757 146.01358 
C 111.634341 146.482363 112.358518 146.916418 113.102672 147.314177 
z
" clip-path="url(#paa6a944012)" style="fill: #828282"/>
   </g>
   <g id="patch_119">
    <path d="M 76.192627 184.361546 
C 74.235857 182.755667 72.359111 181.054683 70.569167 179.264739 
C 68.779223 177.474795 67.07824 175.598049 65.47236 173.641279 
L 65.47236 173.641279 
C 67.07824 175.598049 68.779223 177.474795 70.569167 179.264739 
C 72.359111 181.054683 74.235857 182.755667 76.192627 184.361546 
z
" clip-path="url(#paa6a944012)" style="fill: #828282"/>
   </g>
   <g id="patch_120">
    <path d="M 60.682381 177.572313 
C 58.947833 175.45876 57.3181 173.261319 55.799068 170.987928 
C 54.280037 168.714537 52.873538 166.367935 51.584653 163.9566 
L 51.584653 163.9566 
C 52.873538 166.367935 54.280037 168.714537 55.799068 170.987928 
C 57.3181 173.261319 58.947833 175.45876 60.682381 177.572313 
z
" clip-path="url(#paa6a944012)" style="fill: #828282"/>
   </g>
   <g id="patch_121">
    <path d="M 27.467418 176.84753 
C 25.756593 173.646802 24.203947 170.364006 22.815086 167.011 
C 21.426225 163.657993 20.202825 160.238819 19.149304 156.765826 
L 19.149304 156.765826 
C 20.202825 160.238819 21.426225 163.657993 22.815086 167.011 
C 24.203947 170.364006 25.756593 173.646802 27.467418 176.84753 
z
" clip-path="url(#paa6a944012)" style="fill: #828282"/>
   </g>
   <g id="patch_122">
    <path d="M 51.247733 147.028874 
C 50.512917 144.606511 49.897476 142.14953 49.403631 139.666807 
C 48.909787 137.184083 48.538135 134.67861 48.290018 132.159436 
L 48.290018 132.159436 
C 48.538135 134.67861 48.909787 137.184083 49.403631 139.666807 
C 49.897476 142.14953 50.512917 144.606511 51.247733 147.028874 
z
" clip-path="url(#paa6a944012)" style="fill: #828282"/>
   </g>
   <g id="patch_123">
    <path d="M 67.88865 130.229139 
C 67.703714 128.351458 67.611079 126.465829 67.611079 124.579062 
C 67.611079 122.692296 67.703714 120.806667 67.88865 118.928986 
L 67.88865 118.928986 
C 67.703714 120.806667 67.611079 122.692296 67.611079 124.579062 
C 67.611079 126.465829 67.703714 128.351458 67.88865 130.229139 
z
" clip-path="url(#paa6a944012)" style="fill: #828282"/>
   </g>
   <g id="patch_124">
    <path d="M 59.847319 118.136984 
C 60.058178 115.996098 60.374021 113.866855 60.793708 111.756945 
C 61.213395 109.647036 61.73642 107.559004 62.360894 105.500391 
L 62.360894 105.500391 
C 61.73642 107.559004 61.213395 109.647036 60.793708 111.756945 
C 60.374021 113.866855 60.058178 115.996098 59.847319 118.136984 
z
" clip-path="url(#paa6a944012)" style="fill: #828282"/>
   </g>
   <g id="patch_125">
    <path d="M 59.986707 104.78019 
C 60.634754 102.643866 61.387297 100.540647 62.24162 98.478131 
C 63.095942 96.415614 64.051014 94.396285 65.103385 92.427438 
L 65.103385 92.427438 
C 64.051014 94.396285 63.095942 96.415614 62.24162 98.478131 
C 61.387297 100.540647 60.634754 102.643866 59.986707 104.78019 
z
" clip-path="url(#paa6a944012)" style="fill: #828282"/>
   </g>
   <g id="patch_126">
    <path d="M 125.254844 124.579063 
C 125.254844 124.579063 125.254844 124.579063 125.254844 124.579063 
C 125.254844 124.579063 125.254844 124.579063 125.254844 124.579063 
L 125.254844 124.579063 
C 125.254844 124.579063 125.254844 124.579063 125.254844 124.579063 
C 125.254844 124.579063 125.254844 124.579063 125.254844 124.579063 
z
" clip-path="url(#paa6a944012)" style="fill: #828282"/>
   </g>
   <g id="patch_127">
    <path d="M 125.254844 124.579063 
C 125.254844 124.579063 125.254844 124.579063 125.254844 124.579063 
C 125.254844 124.579063 125.254844 124.579063 125.254844 124.579063 
L 125.254844 124.579063 
C 125.254844 124.579063 125.254844 124.579063 125.254844 124.579063 
C 125.254844 124.579063 125.254844 124.579063 125.254844 124.579063 
z
" clip-path="url(#paa6a944012)" style="fill: #828282"/>
   </g>
   <g id="patch_128">
    <path d="M 125.254844 124.579063 
C 125.254844 124.579063 125.254844 124.579063 125.254844 124.579063 
C 125.254844 124.579063 125.254844 124.579063 125.254844 124.579063 
L 125.254844 124.579063 
C 125.254844 124.579063 125.254844 124.579063 125.254844 124.579063 
C 125.254844 124.579063 125.254844 124.579063 125.254844 124.579063 
z
" clip-path="url(#paa6a944012)" style="fill: #828282"/>
   </g>
   <g id="patch_129">
    <path d="M 125.254844 124.579063 
C 125.254844 124.579063 125.254844 124.579063 125.254844 124.579063 
C 125.254844 124.579063 125.254844 124.579063 125.254844 124.579063 
L 125.254844 124.579063 
C 125.254844 124.579063 125.254844 124.579063 125.254844 124.579063 
C 125.254844 124.579063 125.254844 124.579063 125.254844 124.579063 
z
" clip-path="url(#paa6a944012)" style="fill: #828282"/>
   </g>
   <g id="patch_130">
    <path d="M 125.254844 124.579063 
C 125.254844 124.579063 125.254844 124.579063 125.254844 124.579063 
C 125.254844 124.579063 125.254844 124.579063 125.254844 124.579063 
L 125.254844 124.579063 
C 125.254844 124.579063 125.254844 124.579063 125.254844 124.579063 
C 125.254844 124.579063 125.254844 124.579063 125.254844 124.579063 
z
" clip-path="url(#paa6a944012)" style="fill: #828282"/>
   </g>
   <g id="patch_131">
    <path d="M 125.254844 124.579063 
C 125.254844 124.579063 125.254844 124.579063 125.254844 124.579063 
C 125.254844 124.579063 125.254844 124.579063 125.254844 124.579063 
L 125.254844 124.579063 
C 125.254844 124.579063 125.254844 124.579063 125.254844 124.579063 
C 125.254844 124.579063 125.254844 124.579063 125.254844 124.579063 
L 125.254844 124.579063 
z
" clip-path="url(#paa6a944012)" style="fill: none; stroke: #292929; stroke-width: 0.5; stroke-linejoin: miter"/>
   </g>
   <g id="patch_132">
    <path d="M 125.254844 124.579063 
C 125.254844 124.579063 125.254844 124.579063 125.254844 124.579063 
C 125.254844 124.579063 125.254844 124.579063 125.254844 124.579063 
L 125.254844 124.579063 
C 125.254844 124.579063 125.254844 124.579063 125.254844 124.579063 
C 125.254844 124.579063 125.254844 124.579063 125.254844 124.579063 
L 125.254844 124.579063 
z
" clip-path="url(#paa6a944012)" style="fill: none; stroke: #292929; stroke-width: 0.5; stroke-linejoin: miter"/>
   </g>
   <g id="patch_133">
    <path d="M 125.254844 124.579063 
C 125.254844 124.579063 125.254844 124.579063 125.254844 124.579063 
C 125.254844 124.579063 125.254844 124.579063 125.254844 124.579063 
L 125.254844 124.579063 
C 125.254844 124.579063 125.254844 124.579063 125.254844 124.579063 
C 125.254844 124.579063 125.254844 124.579063 125.254844 124.579063 
L 125.254844 124.579063 
z
" clip-path="url(#paa6a944012)" style="fill: none; stroke: #292929; stroke-width: 0.5; stroke-linejoin: miter"/>
   </g>
   <g id="patch_134">
    <path d="M 125.254844 124.579063 
C 125.254844 124.579063 125.254844 124.579063 125.254844 124.579063 
C 125.254844 124.579063 125.254844 124.579063 125.254844 124.579063 
L 125.254844 124.579063 
C 125.254844 124.579063 125.254844 124.579063 125.254844 124.579063 
C 125.254844 124.579063 125.254844 124.579063 125.254844 124.579063 
L 125.254844 124.579063 
z
" clip-path="url(#paa6a944012)" style="fill: none; stroke: #292929; stroke-width: 0.5; stroke-linejoin: miter"/>
   </g>
   <g id="patch_135">
    <path d="M 125.254844 124.579063 
C 125.254844 124.579063 125.254844 124.579063 125.254844 124.579063 
C 125.254844 124.579063 125.254844 124.579063 125.254844 124.579063 
L 125.254844 124.579063 
C 125.254844 124.579063 125.254844 124.579063 125.254844 124.579063 
C 125.254844 124.579063 125.254844 124.579063 125.254844 124.579063 
L 125.254844 124.579063 
z
" clip-path="url(#paa6a944012)" style="fill: none; stroke: #292929; stroke-width: 0.5; stroke-linejoin: miter"/>
   </g>
   <g id="patch_136">
    <path d="M 125.254844 124.579063 
C 125.254844 124.579063 125.254844 124.579063 125.254844 124.579063 
C 125.254844 124.579063 125.254844 124.579063 125.254844 124.579063 
L 125.254844 124.579063 
C 125.254844 124.579063 125.254844 124.579063 125.254844 124.579063 
C 125.254844 124.579063 125.254844 124.579063 125.254844 124.579063 
L 125.254844 124.579063 
z
" clip-path="url(#paa6a944012)" style="fill: none; stroke: #292929; stroke-width: 0.5; stroke-linejoin: miter"/>
   </g>
   <g id="patch_137">
    <path d="M 125.254844 124.579063 
C 125.254844 124.579063 125.254844 124.579063 125.254844 124.579063 
C 125.254844 124.579063 125.254844 124.579063 125.254844 124.579063 
L 125.254844 124.579063 
C 125.254844 124.579063 125.254844 124.579063 125.254844 124.579063 
C 125.254844 124.579063 125.254844 124.579063 125.254844 124.579063 
L 125.254844 124.579063 
z
" clip-path="url(#paa6a944012)" style="fill: none; stroke: #292929; stroke-width: 0.5; stroke-linejoin: miter"/>
   </g>
   <g id="patch_138">
    <path d="M 125.254844 124.579063 
C 125.254844 124.579063 125.254844 124.579063 125.254844 124.579063 
C 125.254844 124.579063 125.254844 124.579063 125.254844 124.579063 
L 125.254844 124.579063 
C 125.254844 124.579063 125.254844 124.579063 125.254844 124.579063 
C 125.254844 124.579063 125.254844 124.579063 125.254844 124.579063 
L 125.254844 124.579063 
z
" clip-path="url(#paa6a944012)" style="fill: none; stroke: #292929; stroke-width: 0.5; stroke-linejoin: miter"/>
   </g>
   <g id="patch_139">
    <path d="M 125.254844 124.579063 
C 125.254844 124.579063 125.254844 124.579063 125.254844 124.579063 
C 125.254844 124.579063 125.254844 124.579063 125.254844 124.579063 
L 125.254844 124.579063 
C 125.254844 124.579063 125.254844 124.579063 125.254844 124.579063 
C 125.254844 124.579063 125.254844 124.579063 125.254844 124.579063 
L 125.254844 124.579063 
z
" clip-path="url(#paa6a944012)" style="fill: none; stroke: #292929; stroke-width: 0.5; stroke-linejoin: miter"/>
   </g>
   <g id="patch_140">
    <path d="M 125.254844 124.579063 
C 125.254844 124.579063 125.254844 124.579063 125.254844 124.579063 
C 125.254844 124.579063 125.254844 124.579063 125.254844 124.579063 
L 125.254844 124.579063 
C 125.254844 124.579063 125.254844 124.579063 125.254844 124.579063 
C 125.254844 124.579063 125.254844 124.579063 125.254844 124.579063 
L 125.254844 124.579063 
z
" clip-path="url(#paa6a944012)" style="fill: none; stroke: #292929; stroke-width: 0.5; stroke-linejoin: miter"/>
   </g>
   <g id="patch_141">
    <path d="M 125.254844 124.579063 
C 125.254844 124.579063 125.254844 124.579063 125.254844 124.579063 
C 125.254844 124.579063 125.254844 124.579063 125.254844 124.579063 
L 125.254844 124.579063 
C 125.254844 124.579063 125.254844 124.579063 125.254844 124.579063 
C 125.254844 124.579063 125.254844 124.579063 125.254844 124.579063 
L 125.254844 124.579063 
z
" clip-path="url(#paa6a944012)" style="fill: none; stroke: #292929; stroke-width: 0.5; stroke-linejoin: miter"/>
   </g>
   <g id="patch_142">
    <path d="M 125.254844 124.579063 
C 125.254844 124.579063 125.254844 124.579063 125.254844 124.579063 
C 125.254844 124.579063 125.254844 124.579063 125.254844 124.579063 
L 125.254844 124.579063 
C 125.254844 124.579063 125.254844 124.579063 125.254844 124.579063 
C 125.254844 124.579063 125.254844 124.579063 125.254844 124.579063 
L 125.254844 124.579063 
z
" clip-path="url(#paa6a944012)" style="fill: none; stroke: #292929; stroke-width: 0.5; stroke-linejoin: miter"/>
   </g>
   <g id="patch_143">
    <path d="M 125.254844 124.579063 
C 125.254844 124.579063 125.254844 124.579063 125.254844 124.579063 
C 125.254844 124.579063 125.254844 124.579063 125.254844 124.579063 
L 157.962988 164.434052 
C 159.267501 163.363465 160.518666 162.229476 161.711961 161.03618 
C 162.905257 159.842884 164.039247 158.59172 165.109833 157.287207 
L 125.254844 124.579063 
z
" clip-path="url(#paa6a944012)" style="fill: none; stroke: #292929; stroke-width: 0.5; stroke-linejoin: miter"/>
   </g>
   <g id="patch_144">
    <path d="M 125.254844 124.579063 
C 125.254844 124.579063 125.254844 124.579063 125.254844 124.579063 
C 125.254844 124.579063 125.254844 124.579063 125.254844 124.579063 
L 144.469115 160.526435 
C 145.645726 159.897523 146.79075 159.211222 147.900051 158.470011 
C 149.009353 157.728799 150.081594 156.933571 151.112902 156.087198 
L 125.254844 124.579063 
z
" clip-path="url(#paa6a944012)" style="fill: none; stroke: #292929; stroke-width: 0.5; stroke-linejoin: miter"/>
   </g>
   <g id="patch_145">
    <path d="M 125.254844 124.579063 
C 125.254844 124.579063 125.254844 124.579063 125.254844 124.579063 
C 125.254844 124.579063 125.254844 124.579063 125.254844 124.579063 
L 137.086933 163.584235 
C 138.363631 163.196953 139.620544 162.747222 140.853134 162.236666 
C 142.085724 161.726111 143.292503 161.155347 144.469115 160.526435 
L 125.254844 124.579063 
z
" clip-path="url(#paa6a944012)" style="fill: none; stroke: #292929; stroke-width: 0.5; stroke-linejoin: miter"/>
   </g>
   <g id="patch_146">
    <path d="M 125.254844 124.579063 
C 125.254844 124.579063 125.254844 124.579063 125.254844 124.579063 
C 125.254844 124.579063 125.254844 124.579063 125.254844 124.579063 
L 131.444193 187.42058 
C 133.50109 187.217993 135.5468 186.91454 137.573935 186.511318 
C 139.601071 186.108096 141.607187 185.60559 143.585038 185.005615 
L 125.254844 124.579063 
z
" clip-path="url(#paa6a944012)" style="fill: none; stroke: #292929; stroke-width: 0.5; stroke-linejoin: miter"/>
   </g>
   <g id="patch_147">
    <path d="M 125.254844 124.579063 
C 125.254844 124.579063 125.254844 124.579063 125.254844 124.579063 
C 125.254844 124.579063 125.254844 124.579063 125.254844 124.579063 
L 121.681421 160.860629 
C 122.868971 160.977593 124.061548 161.03618 125.254844 161.03618 
C 126.44814 161.03618 127.640716 160.977593 128.828266 160.860629 
L 125.254844 124.579063 
z
" clip-path="url(#paa6a944012)" style="fill: none; stroke: #292929; stroke-width: 0.5; stroke-linejoin: miter"/>
   </g>
   <g id="patch_148">
    <path d="M 125.254844 124.579063 
C 125.254844 124.579063 125.254844 124.579063 125.254844 124.579063 
C 125.254844 124.579063 125.254844 124.579063 125.254844 124.579063 
L 125.254844 124.579063 
C 125.254844 124.579063 125.254844 124.579063 125.254844 124.579063 
C 125.254844 124.579063 125.254844 124.579063 125.254844 124.579063 
L 125.254844 124.579063 
z
" clip-path="url(#paa6a944012)" style="fill: none; stroke: #292929; stroke-width: 0.5; stroke-linejoin: miter"/>
   </g>
   <g id="patch_149">
    <path d="M 125.254844 124.579063 
C 125.254844 124.579063 125.254844 124.579063 125.254844 124.579063 
C 125.254844 124.579063 125.254844 124.579063 125.254844 124.579063 
L 113.102672 147.314177 
C 113.846826 147.711936 114.610061 148.072919 115.389619 148.395822 
C 116.169177 148.718726 116.964119 149.003161 117.771573 149.248099 
L 125.254844 124.579063 
z
" clip-path="url(#paa6a944012)" style="fill: none; stroke: #292929; stroke-width: 0.5; stroke-linejoin: miter"/>
   </g>
   <g id="patch_150">
    <path d="M 125.254844 124.579063 
C 125.254844 124.579063 125.254844 124.579063 125.254844 124.579063 
C 125.254844 124.579063 125.254844 124.579063 125.254844 124.579063 
L 108.900772 144.506557 
C 109.553028 145.04185 110.231173 145.544797 110.932757 146.01358 
C 111.634341 146.482363 112.358518 146.916418 113.102672 147.314177 
L 125.254844 124.579063 
z
" clip-path="url(#paa6a944012)" style="fill: none; stroke: #292929; stroke-width: 0.5; stroke-linejoin: miter"/>
   </g>
   <g id="patch_151">
    <path d="M 125.254844 124.579063 
C 125.254844 124.579063 125.254844 124.579063 125.254844 124.579063 
C 125.254844 124.579063 125.254844 124.579063 125.254844 124.579063 
L 65.47236 173.641279 
C 67.07824 175.598049 68.779223 177.474795 70.569167 179.264739 
C 72.359111 181.054683 74.235857 182.755667 76.192627 184.361546 
L 125.254844 124.579063 
z
" clip-path="url(#paa6a944012)" style="fill: none; stroke: #292929; stroke-width: 0.5; stroke-linejoin: miter"/>
   </g>
   <g id="patch_152">
    <path d="M 125.254844 124.579063 
C 125.254844 124.579063 125.254844 124.579063 125.254844 124.579063 
C 125.254844 124.579063 125.254844 124.579063 125.254844 124.579063 
L 51.584653 163.9566 
C 52.873538 166.367935 54.280037 168.714537 55.799068 170.987928 
C 57.3181 173.261319 58.947833 175.45876 60.682381 177.572313 
L 125.254844 124.579063 
z
" clip-path="url(#paa6a944012)" style="fill: none; stroke: #292929; stroke-width: 0.5; stroke-linejoin: miter"/>
   </g>
   <g id="patch_153">
    <path d="M 125.254844 124.579063 
C 125.254844 124.579063 125.254844 124.579063 125.254844 124.579063 
C 125.254844 124.579063 125.254844 124.579063 125.254844 124.579063 
L 19.149304 156.765826 
C 20.202825 160.238819 21.426225 163.657993 22.815086 167.011 
C 24.203947 170.364006 25.756593 173.646802 27.467418 176.84753 
L 125.254844 124.579063 
z
" clip-path="url(#paa6a944012)" style="fill: none; stroke: #292929; stroke-width: 0.5; stroke-linejoin: miter"/>
   </g>
   <g id="patch_154">
    <path d="M 125.254844 124.579063 
C 125.254844 124.579063 125.254844 124.579063 125.254844 124.579063 
C 125.254844 124.579063 125.254844 124.579063 125.254844 124.579063 
L 48.290018 132.159436 
C 48.538135 134.67861 48.909787 137.184083 49.403631 139.666807 
C 49.897476 142.14953 50.512917 144.606511 51.247733 147.028874 
L 125.254844 124.579063 
z
" clip-path="url(#paa6a944012)" style="fill: none; stroke: #292929; stroke-width: 0.5; stroke-linejoin: miter"/>
   </g>
   <g id="patch_155">
    <path d="M 125.254844 124.579063 
C 125.254844 124.579063 125.254844 124.579063 125.254844 124.579063 
C 125.254844 124.579063 125.254844 124.579063 125.254844 124.579063 
L 67.88865 118.928986 
C 67.703714 120.806667 67.611079 122.692296 67.611079 124.579062 
C 67.611079 126.465829 67.703714 128.351458 67.88865 130.229139 
L 125.254844 124.579063 
z
" clip-path="url(#paa6a944012)" style="fill: none; stroke: #292929; stroke-width: 0.5; stroke-linejoin: miter"/>
   </g>
   <g id="patch_156">
    <path d="M 125.254844 124.579063 
C 125.254844 124.579063 125.254844 124.579063 125.254844 124.579063 
C 125.254844 124.579063 125.254844 124.579063 125.254844 124.579063 
L 62.360894 105.500391 
C 61.73642 107.559004 61.213395 109.647036 60.793708 111.756945 
C 60.374021 113.866855 60.058178 115.996098 59.847319 118.136984 
L 125.254844 124.579063 
z
" clip-path="url(#paa6a944012)" style="fill: none; stroke: #292929; stroke-width: 0.5; stroke-linejoin: miter"/>
   </g>
   <g id="patch_157">
    <path d="M 125.254844 124.579063 
C 125.254844 124.579063 125.254844 124.579063 125.254844 124.579063 
C 125.254844 124.579063 125.254844 124.579063 125.254844 124.579063 
L 65.103385 92.427438 
C 64.051014 94.396285 63.095942 96.415614 62.24162 98.478131 
C 61.387297 100.540647 60.634754 102.643866 59.986707 104.78019 
L 125.254844 124.579063 
z
" clip-path="url(#paa6a944012)" style="fill: none; stroke: #292929; stroke-width: 0.5; stroke-linejoin: miter"/>
   </g>
   <g id="patch_158">
    <path d="M 125.254844 124.579063 
C 125.254844 124.579063 125.254844 124.579063 125.254844 124.579063 
C 125.254844 124.579063 125.254844 124.579063 125.254844 124.579063 
L 125.254844 124.579063 
C 125.254844 124.579063 125.254844 124.579063 125.254844 124.579063 
C 125.254844 124.579063 125.254844 124.579063 125.254844 124.579063 
L 125.254844 124.579063 
z
" clip-path="url(#paa6a944012)" style="fill: none; stroke: #292929; stroke-width: 0.5; stroke-linejoin: miter"/>
   </g>
   <g id="patch_159">
    <path d="M 125.254844 124.579063 
C 125.254844 124.579063 125.254844 124.579063 125.254844 124.579063 
C 125.254844 124.579063 125.254844 124.579063 125.254844 124.579063 
L 125.254844 124.579063 
C 125.254844 124.579063 125.254844 124.579063 125.254844 124.579063 
C 125.254844 124.579063 125.254844 124.579063 125.254844 124.579063 
L 125.254844 124.579063 
z
" clip-path="url(#paa6a944012)" style="fill: none; stroke: #292929; stroke-width: 0.5; stroke-linejoin: miter"/>
   </g>
   <g id="patch_160">
    <path d="M 125.254844 124.579063 
C 125.254844 124.579063 125.254844 124.579063 125.254844 124.579063 
C 125.254844 124.579063 125.254844 124.579063 125.254844 124.579063 
L 125.254844 124.579063 
C 125.254844 124.579063 125.254844 124.579063 125.254844 124.579063 
C 125.254844 124.579063 125.254844 124.579063 125.254844 124.579063 
L 125.254844 124.579063 
z
" clip-path="url(#paa6a944012)" style="fill: none; stroke: #292929; stroke-width: 0.5; stroke-linejoin: miter"/>
   </g>
   <g id="patch_161">
    <path d="M 125.254844 124.579063 
C 125.254844 124.579063 125.254844 124.579063 125.254844 124.579063 
C 125.254844 124.579063 125.254844 124.579063 125.254844 124.579063 
L 125.254844 124.579063 
C 125.254844 124.579063 125.254844 124.579063 125.254844 124.579063 
C 125.254844 124.579063 125.254844 124.579063 125.254844 124.579063 
L 125.254844 124.579063 
z
" clip-path="url(#paa6a944012)" style="fill: none; stroke: #292929; stroke-width: 0.5; stroke-linejoin: miter"/>
   </g>
   <g id="patch_162">
    <path d="M 125.254844 124.579063 
C 125.254844 124.579063 125.254844 124.579063 125.254844 124.579063 
C 125.254844 124.579063 125.254844 124.579063 125.254844 124.579063 
L 125.254844 124.579063 
C 125.254844 124.579063 125.254844 124.579063 125.254844 124.579063 
C 125.254844 124.579063 125.254844 124.579063 125.254844 124.579063 
L 125.254844 124.579063 
z
" clip-path="url(#paa6a944012)" style="fill: none; stroke: #292929; stroke-width: 0.5; stroke-linejoin: miter"/>
   </g>
   <g id="PathCollection_1">
    <defs>
     <path id="m87754174f6" d="M 0.193618 7.414054 
L 0.193618 7.414054 
C 0.054922 7.414054 -0.078235 7.358899 -0.176308 7.260826 
C -0.274381 7.162753 -0.329536 7.029596 -0.329536 6.890901 
L -0.329536 5.365008 
L -1.528416 6.56393 
L -1.528416 6.56393 
C -1.577018 6.612704 -1.634775 6.651408 -1.698366 6.677814 
C -1.761958 6.704221 -1.830141 6.717815 -1.898997 6.717815 
C -1.967853 6.717815 -2.036037 6.704221 -2.099628 6.677814 
C -2.163219 6.651408 -2.220976 6.612704 -2.269578 6.56393 
L -2.269578 6.56393 
C -2.318353 6.515327 -2.357056 6.457571 -2.383463 6.393979 
C -2.409869 6.330388 -2.423463 6.262205 -2.423463 6.193348 
C -2.423463 6.124492 -2.409869 6.056309 -2.383463 5.992718 
C -2.357056 5.929126 -2.318353 5.87137 -2.269578 5.822767 
L -0.329536 3.884106 
L -0.329536 0.820937 
L -2.98067 2.351538 
L -3.691824 5.001416 
L -3.691824 5.001416 
C -3.727584 5.135411 -3.815199 5.249836 -3.93523 5.319305 
C -4.055261 5.388775 -4.198123 5.407741 -4.332122 5.371997 
L -4.332122 5.371997 
C -4.466126 5.336237 -4.580558 5.248616 -4.650029 5.128576 
C -4.719499 5.008535 -4.73846 4.865662 -4.702703 4.731657 
L -4.262647 3.092721 
L -5.585535 3.855668 
L -5.585535 3.855668 
C -5.645013 3.890144 -5.710708 3.912561 -5.778854 3.921634 
C -5.847001 3.930706 -5.916272 3.926258 -5.982698 3.908543 
C -6.049125 3.890828 -6.111412 3.860192 -6.165991 3.818391 
C -6.220571 3.77659 -6.266379 3.724437 -6.300791 3.664922 
L -6.300791 3.664922 
C -6.335212 3.605364 -6.35755 3.539597 -6.366524 3.471396 
C -6.375498 3.403194 -6.370933 3.333888 -6.35309 3.267452 
C -6.335248 3.201017 -6.304476 3.138749 -6.26254 3.08422 
C -6.220605 3.029692 -6.168323 2.983966 -6.108695 2.949666 
L -4.785807 2.186762 
L -6.424743 1.746706 
L -6.424743 1.746706 
C -6.558747 1.710946 -6.673179 1.623325 -6.74265 1.503284 
C -6.81212 1.383244 -6.831081 1.240371 -6.795324 1.106366 
L -6.795324 1.106366 
C -6.777471 1.039969 -6.746703 0.977739 -6.704784 0.923241 
C -6.662864 0.868744 -6.61061 0.823041 -6.551015 0.788752 
C -6.491421 0.754464 -6.425647 0.732257 -6.357465 0.723406 
C -6.289282 0.714554 -6.220019 0.71923 -6.153645 0.737166 
L -3.505232 1.44698 
L -0.852424 -0.08496 
L -3.503767 -1.615666 
L -6.153645 -0.905851 
L -6.153645 -0.905851 
C -6.22011 -0.887939 -6.289462 -0.883321 -6.357716 -0.892262 
C -6.42597 -0.901202 -6.491793 -0.923527 -6.551403 -0.957953 
C -6.611013 -0.992379 -6.663247 -1.038234 -6.705103 -1.092883 
C -6.746958 -1.147533 -6.777619 -1.209911 -6.795324 -1.276432 
L -6.795324 -1.276432 
C -6.831068 -1.410431 -6.812101 -1.553293 -6.742632 -1.673324 
C -6.673162 -1.793355 -6.558738 -1.88097 -6.424743 -1.91673 
L -4.785807 -2.355447 
L -6.108695 -3.119732 
L -6.108695 -3.119732 
C -6.228699 -3.188976 -6.316415 -3.303132 -6.352417 -3.436921 
C -6.388419 -3.57071 -6.369839 -3.713469 -6.300791 -3.833586 
L -6.300791 -3.833586 
C -6.266491 -3.893214 -6.220765 -3.945496 -6.166237 -3.987431 
C -6.111708 -4.029367 -6.04944 -4.060139 -5.983005 -4.077981 
C -5.91657 -4.095823 -5.847263 -4.100389 -5.779062 -4.091415 
C -5.71086 -4.082441 -5.645094 -4.060102 -5.585535 -4.025682 
L -4.262647 -3.261396 
L -4.702703 -4.900332 
L -4.702703 -4.900332 
C -4.73846 -5.034337 -4.719499 -5.17721 -4.650029 -5.29725 
C -4.580558 -5.417291 -4.466126 -5.504912 -4.332122 -5.540672 
L -4.332122 -5.540672 
C -4.19831 -5.576464 -4.055613 -5.557686 -3.935617 -5.488496 
C -3.81562 -5.419305 -3.727882 -5.305212 -3.691824 -5.171472 
L -2.982009 -2.521594 
L -0.329411 -0.990302 
L -0.329411 -4.051588 
L -2.269453 -5.991589 
L -2.269453 -5.991589 
C -2.318227 -6.040191 -2.356931 -6.097947 -2.383337 -6.161539 
C -2.409744 -6.22513 -2.423338 -6.293314 -2.423338 -6.36217 
C -2.423338 -6.431026 -2.409744 -6.499209 -2.383337 -6.5628 
C -2.356931 -6.626392 -2.318227 -6.684149 -2.269453 -6.732751 
L -2.269453 -6.732751 
C -2.22085 -6.781526 -2.163094 -6.820229 -2.099502 -6.846635 
C -2.035911 -6.873042 -1.967728 -6.886636 -1.898871 -6.886636 
C -1.830015 -6.886636 -1.761832 -6.873042 -1.698241 -6.846635 
C -1.634649 -6.820229 -1.576893 -6.781526 -1.52829 -6.732751 
L -0.329411 -5.533829 
L -0.329411 -7.059722 
L -0.329411 -7.059722 
C -0.329411 -7.198418 -0.274255 -7.331575 -0.176182 -7.429647 
C -0.07811 -7.52772 0.055047 -7.582875 0.193743 -7.582875 
L 0.193743 -7.582875 
C 0.332439 -7.582875 0.465596 -7.52772 0.563669 -7.429647 
C 0.661741 -7.331575 0.716897 -7.198418 0.716897 -7.059722 
L 0.716897 -5.533829 
L 1.915777 -6.732751 
L 1.915777 -6.732751 
C 1.964379 -6.781526 2.022136 -6.820229 2.085727 -6.846635 
C 2.149318 -6.873042 2.217502 -6.886636 2.286358 -6.886636 
C 2.355214 -6.886636 2.423397 -6.873042 2.486989 -6.846635 
C 2.55058 -6.820229 2.608337 -6.781526 2.656939 -6.732751 
L 2.656939 -6.732751 
C 2.705714 -6.684149 2.744417 -6.626392 2.770823 -6.5628 
C 2.79723 -6.499209 2.810824 -6.431026 2.810824 -6.36217 
C 2.810824 -6.293314 2.79723 -6.22513 2.770823 -6.161539 
C 2.744417 -6.097947 2.705714 -6.040191 2.656939 -5.991589 
L 0.716897 -4.051588 
L 0.716897 -0.991139 
L 3.369495 -2.522954 
L 4.07931 -5.171367 
L 4.07931 -5.171367 
C 4.115368 -5.305107 4.203106 -5.4192 4.323103 -5.488391 
C 4.4431 -5.557582 4.585797 -5.576359 4.719608 -5.540567 
L 4.719608 -5.540567 
C 4.853612 -5.504807 4.968045 -5.417186 5.037515 -5.297146 
C 5.106986 -5.177105 5.125946 -5.034232 5.090189 -4.900227 
L 4.650133 -3.262673 
L 5.973022 -4.025577 
L 5.973022 -4.025577 
C 6.03258 -4.059998 6.098346 -4.082336 6.166548 -4.09131 
C 6.234749 -4.100284 6.304056 -4.095719 6.370491 -4.077876 
C 6.436926 -4.060034 6.499194 -4.029262 6.553723 -3.987327 
C 6.608252 -3.945391 6.653978 -3.893109 6.688277 -3.833481 
L 6.688277 -3.833481 
C 6.757325 -3.713365 6.775905 -3.570605 6.739903 -3.436816 
C 6.703901 -3.303027 6.616186 -3.188871 6.496181 -3.119628 
L 5.173293 -2.355342 
L 6.812229 -1.916625 
L 6.812229 -1.916625 
C 6.946224 -1.880865 7.060649 -1.79325 7.130118 -1.67322 
C 7.199588 -1.553189 7.218554 -1.410326 7.18281 -1.276327 
L 7.18281 -1.276327 
C 7.165106 -1.209806 7.134445 -1.147429 7.092589 -1.092779 
C 7.050733 -1.038129 6.998499 -0.992274 6.938889 -0.957848 
C 6.879279 -0.923422 6.813456 -0.901098 6.745202 -0.892157 
C 6.676949 -0.883217 6.607597 -0.887835 6.541131 -0.905746 
L 3.891253 -1.615561 
L 1.239492 -0.084604 
L 3.892718 1.447085 
L 6.541131 0.73727 
L 6.541131 0.73727 
C 6.674948 0.701466 6.817656 0.720237 6.937662 0.789429 
C 7.057669 0.858621 7.145413 0.972721 7.181471 1.10647 
L 7.181471 1.10647 
C 7.217274 1.240293 7.198497 1.383006 7.129297 1.503014 
C 7.060096 1.623021 6.945986 1.710762 6.812229 1.74681 
L 5.173293 2.186866 
L 6.496181 2.949771 
L 6.496181 2.949771 
C 6.555697 2.984183 6.607849 3.029991 6.649651 3.08457 
C 6.691452 3.13915 6.722088 3.201437 6.739803 3.267863 
C 6.757517 3.33429 6.761966 3.403561 6.752893 3.471707 
C 6.743821 3.539854 6.721404 3.605549 6.686927 3.665026 
L 6.686927 3.665026 
C 6.617458 3.784813 6.503196 3.87225 6.369416 3.907994 
C 6.235636 3.943739 6.092989 3.924946 5.973032 3.855772 
L 4.650144 3.091487 
L 5.08886 4.731783 
L 5.08886 4.731783 
C 5.124664 4.865606 5.105887 5.008319 5.036686 5.128326 
C 4.967486 5.248334 4.853376 5.336074 4.719619 5.372123 
L 4.719619 5.372123 
C 4.585619 5.407867 4.442757 5.3889 4.322726 5.319431 
C 4.202695 5.249961 4.115081 5.135537 4.07932 5.001542 
L 3.368166 2.351664 
L 0.717033 0.821063 
L 0.717033 3.884232 
L 2.657075 5.822893 
L 2.657075 5.822893 
C 2.70585 5.871495 2.744553 5.929252 2.770959 5.992843 
C 2.797366 6.056435 2.81096 6.124618 2.81096 6.193474 
C 2.81096 6.26233 2.797366 6.330514 2.770959 6.394105 
C 2.744553 6.457696 2.70585 6.515453 2.657075 6.564055 
L 2.657075 6.564055 
C 2.608473 6.61283 2.550716 6.651533 2.487125 6.67794 
C 2.423533 6.704346 2.35535 6.71794 2.286494 6.71794 
C 2.217638 6.71794 2.149454 6.704346 2.085863 6.67794 
C 2.022272 6.651533 1.964515 6.61283 1.915913 6.564055 
L 0.717033 5.365133 
L 0.717033 6.891026 
L 0.717033 6.891026 
C 0.717033 7.029722 0.661877 7.162879 0.563805 7.260952 
C 0.465732 7.359024 0.332575 7.41418 0.193879 7.41418 
L 0.193618 7.414054 
z
"/>
    </defs>
    <g clip-path="url(#paa6a944012)">
     <use xlink:href="#m87754174f6" x="55.439812" y="169.185603" style="fill: #9e2096; fill-opacity: 0.7"/>
    </g>
   </g>
   <g id="patch_163">
    <path d="M 125.254844 13.699063 
C 110.694216 13.699063 96.275171 16.567189 82.822905 22.1393 
C 69.370638 27.711411 57.146763 35.879144 46.850844 46.175063 
C 36.554925 56.470982 28.387192 68.694857 22.815081 82.147124 
C 17.24297 95.59939 14.374844 110.018434 14.374844 124.579063 
C 14.374844 139.139691 17.24297 153.558735 22.815081 167.011001 
C 28.387192 180.463268 36.554925 192.687143 46.850844 202.983062 
C 57.146763 213.278981 69.370638 221.446714 82.822905 227.018825 
C 96.275171 232.590936 110.694216 235.459063 125.254844 235.459063 
C 139.815472 235.459063 154.234516 232.590936 167.686783 227.018825 
C 181.139049 221.446714 193.362925 213.278981 203.658844 202.983062 
C 213.954763 192.687143 222.122495 180.463268 227.694606 167.011001 
C 233.266717 153.558735 236.134844 139.139691 236.134844 124.579063 
C 236.134844 110.018434 233.266717 95.59939 227.694606 82.147124 
C 222.122495 68.694857 213.954763 56.470982 203.658844 46.175063 
C 193.362925 35.879144 181.139049 27.711411 167.686783 22.1393 
C 154.234516 16.567189 139.815472 13.699063 125.254844 13.699063 
" style="fill: none; stroke: #000000; stroke-width: 0.8; stroke-linejoin: miter; stroke-linecap: square"/>
   </g>
  </g>
 </g>
 <defs>
  <clipPath id="paa6a944012">
   <path d="M 236.134844 124.579063 
C 236.134844 110.018434 233.266717 95.59939 227.694606 82.147124 
C 222.122495 68.694857 213.954763 56.470982 203.658844 46.175063 
C 193.362925 35.879144 181.139049 27.711411 167.686783 22.1393 
C 154.234516 16.567189 139.815472 13.699063 125.254844 13.699063 
C 110.694216 13.699063 96.275171 16.567189 82.822905 22.1393 
C 69.370638 27.711411 57.146763 35.879144 46.850844 46.175063 
C 36.554925 56.470982 28.387192 68.694857 22.815081 82.147124 
C 17.24297 95.59939 14.374844 110.018434 14.374844 124.579062 
C 14.374844 139.139691 17.24297 153.558735 22.815081 167.011001 
C 28.387192 180.463268 36.554925 192.687143 46.850844 202.983062 
C 57.146763 213.278981 69.370638 221.446714 82.822905 227.018825 
C 96.275171 232.590936 110.694216 235.459063 125.254844 235.459063 
C 139.815472 235.459063 154.234516 232.590936 167.686783 227.018825 
C 181.139049 221.446714 193.362925 213.278981 203.658844 202.983062 
C 213.954763 192.687143 222.122495 180.463268 227.694606 167.011001 
C 233.266717 153.558735 236.134844 139.139691 236.134844 124.579063 
M 125.254844 124.579063 
C 125.254844 124.579063 125.254844 124.579063 125.254844 124.579063 
C 125.254844 124.579063 125.254844 124.579063 125.254844 124.579063 
C 125.254844 124.579063 125.254844 124.579063 125.254844 124.579063 
C 125.254844 124.579063 125.254844 124.579063 125.254844 124.579063 
C 125.254844 124.579063 125.254844 124.579063 125.254844 124.579063 
C 125.254844 124.579063 125.254844 124.579063 125.254844 124.579063 
C 125.254844 124.579063 125.254844 124.579063 125.254844 124.579063 
C 125.254844 124.579063 125.254844 124.579063 125.254844 124.579063 
C 125.254844 124.579063 125.254844 124.579063 125.254844 124.579063 
C 125.254844 124.579063 125.254844 124.579063 125.254844 124.579063 
C 125.254844 124.579063 125.254844 124.579063 125.254844 124.579063 
C 125.254844 124.579063 125.254844 124.579063 125.254844 124.579063 
C 125.254844 124.579063 125.254844 124.579063 125.254844 124.579063 
C 125.254844 124.579063 125.254844 124.579063 125.254844 124.579063 
C 125.254844 124.579063 125.254844 124.579063 125.254844 124.579063 
C 125.254844 124.579063 125.254844 124.579063 125.254844 124.579063 
z
"/>
  </clipPath>
 </defs>
</svg>
