<?xml version="1.0" encoding="utf-8" standalone="no"?>
<!DOCTYPE svg PUBLIC "-//W3C//DTD SVG 1.1//EN"
  "http://www.w3.org/Graphics/SVG/1.1/DTD/svg11.dtd">
<svg xmlns:xlink="http://www.w3.org/1999/xlink" width="248.410469pt" height="249.158125pt" viewBox="0 0 248.410469 249.158125" xmlns="http://www.w3.org/2000/svg" version="1.1">
 <title>Ski Rose for Fröhnd</title>
 <metadata>
  <rdf:RDF xmlns:dc="http://purl.org/dc/elements/1.1/" xmlns:cc="http://creativecommons.org/ns#" xmlns:rdf="http://www.w3.org/1999/02/22-rdf-syntax-ns#">
   <cc:Work>
    <dc:type rdf:resource="http://purl.org/dc/dcmitype/StillImage"/>
    <dc:title>Ski Rose for Fröhnd</dc:title>
    <dc:date>2026-05-30T11:03:05.427435</dc:date>
    <dc:description>A 32-bin stacked histogram of downhill ski run orientations colored by difficulty.</dc:description>
    <dc:format>image/svg+xml</dc:format>
    <dc:source>https://openskimap.org/?obj=8c6ebe370270900fef18f5a1dc2580b64bc0e1bd</dc:source>
    <dc:creator>
     <cc:Agent>
      <dc:title>https://github.com/dhimmel/openskistats</dc:title>
     </cc:Agent>
    </dc:creator>
    <dc:rights>
     <cc:Agent>
      <dc:title>https://creativecommons.org/licenses/by/4.0/</dc:title>
     </cc:Agent>
    </dc:rights>
   </cc:Work>
  </rdf:RDF>
 </metadata>
 <defs>
  <style type="text/css">*{stroke-linejoin: round; stroke-linecap: butt}</style>
 </defs>
 <g id="figure_1">
  <g id="patch_1">
   <path d="M 0 249.158125 
L 248.410469 249.158125 
L 248.410469 0 
L 0 0 
z
" style="fill: #ffffff"/>
  </g>
  <g id="axes_1">
   <g id="patch_2">
    <path d="M 236.134844 124.579063 
C 236.134844 110.018434 233.266717 95.59939 227.694606 82.147124 
C 222.122495 68.694857 213.954763 56.470982 203.658844 46.175063 
C 193.362925 35.879144 181.139049 27.711411 167.686783 22.1393 
C 154.234516 16.567189 139.815472 13.699063 125.254844 13.699063 
C 110.694216 13.699063 96.275171 16.567189 82.822905 22.1393 
C 69.370638 27.711411 57.146763 35.879144 46.850844 46.175063 
C 36.554925 56.470982 28.387192 68.694857 22.815081 82.147124 
C 17.24297 95.59939 14.374844 110.018434 14.374844 124.579062 
C 14.374844 139.139691 17.24297 153.558735 22.815081 167.011001 
C 28.387192 180.463268 36.554925 192.687143 46.850844 202.983062 
C 57.146763 213.278981 69.370638 221.446714 82.822905 227.018825 
C 96.275171 232.590936 110.694216 235.459063 125.254844 235.459063 
C 139.815472 235.459063 154.234516 232.590936 167.686783 227.018825 
C 181.139049 221.446714 193.362925 213.278981 203.658844 202.983062 
C 213.954763 192.687143 222.122495 180.463268 227.694606 167.011001 
C 233.266717 153.558735 236.134844 139.139691 236.134844 124.579063 
M 125.254844 124.579063 
C 125.254844 124.579063 125.254844 124.579063 125.254844 124.579063 
C 125.254844 124.579063 125.254844 124.579063 125.254844 124.579063 
C 125.254844 124.579063 125.254844 124.579063 125.254844 124.579063 
C 125.254844 124.579063 125.254844 124.579063 125.254844 124.579063 
C 125.254844 124.579063 125.254844 124.579063 125.254844 124.579063 
C 125.254844 124.579063 125.254844 124.579063 125.254844 124.579063 
C 125.254844 124.579063 125.254844 124.579063 125.254844 124.579063 
C 125.254844 124.579063 125.254844 124.579063 125.254844 124.579063 
C 125.254844 124.579063 125.254844 124.579063 125.254844 124.579063 
C 125.254844 124.579063 125.254844 124.579063 125.254844 124.579063 
C 125.254844 124.579063 125.254844 124.579063 125.254844 124.579063 
C 125.254844 124.579063 125.254844 124.579063 125.254844 124.579063 
C 125.254844 124.579063 125.254844 124.579063 125.254844 124.579063 
C 125.254844 124.579063 125.254844 124.579063 125.254844 124.579063 
C 125.254844 124.579063 125.254844 124.579063 125.254844 124.579063 
C 125.254844 124.579063 125.254844 124.579063 125.254844 124.579063 
z
" style="fill: #ffffff"/>
   </g>
   <g id="FillBetweenPolyCollection_1">
    <defs>
     <path id="m08f435b5f3" d="M 235.396588 -137.128129 
L 234.688676 -137.047473 
L 233.784022 -135.029234 
L 232.992289 -133.058183 
L 232.14378 -131.11667 
L 231.045804 -129.197996 
L 230.102826 -127.324604 
L 228.917194 -125.48371 
L 227.897882 -123.68331 
L 226.640197 -121.924194 
L 225.555164 -120.199856 
L 224.440266 -118.512622 
L 223.092685 -116.879057 
L 221.923205 -115.270958 
L 220.728589 -113.701203 
L 219.51025 -112.170103 
L 218.067864 -110.708064 
L 216.807238 -109.258446 
L 215.527125 -107.848084 
L 214.22886 -106.477094 
L 212.91377 -105.145546 
L 211.583173 -103.853464 
L 210.238378 -102.600826 
L 208.88069 -101.387563 
L 207.511402 -100.21356 
L 206.131803 -99.078655 
L 204.743168 -97.982641 
L 203.346768 -96.925262 
L 201.943861 -95.906214 
L 200.714392 -94.854756 
L 199.299597 -93.908722 
L 197.881885 -92.999926 
L 196.633317 -92.050018 
L 195.210457 -91.211947 
L 193.953368 -90.327242 
L 192.529643 -89.558018 
L 191.267874 -88.736911 
L 190.003688 -87.945929 
L 188.584693 -87.27493 
L 187.321257 -86.544715 
L 186.057921 -85.84323 
L 184.795462 -85.169987 
L 183.534641 -84.524468 
L 182.276194 -83.906129 
L 181.020841 -83.314396 
L 179.769275 -82.748668 
L 178.522169 -82.208319 
L 177.280169 -81.692694 
L 176.043897 -81.201113 
L 174.929521 -80.63062 
L 173.702726 -80.184758 
L 172.483318 -79.760914 
L 171.376595 -79.255344 
L 170.169644 -78.87343 
L 168.971492 -78.511327 
L 167.876358 -78.065842 
L 166.693158 -77.741569 
L 165.606496 -77.333348 
L 164.522882 -76.943122 
L 163.362675 -76.670953 
L 162.289341 -76.314766 
L 161.219866 -75.975125 
L 160.084967 -75.749031 
L 159.027138 -75.44007 
L 157.973771 -75.146156 
L 156.925031 -74.866827 
L 155.824893 -74.693276 
L 154.788927 -74.440139 
L 153.757909 -74.200066 
L 152.731914 -73.972595 
L 151.710996 -73.757267 
L 150.695188 -73.553626 
L 149.684501 -73.361221 
L 148.678925 -73.179607 
L 147.678429 -73.008346 
L 146.682962 -72.847008 
L 145.692452 -72.695172 
L 144.706806 -72.552427 
L 143.725913 -72.418373 
L 142.749641 -72.292624 
L 141.777842 -72.174806 
L 140.826804 -72.009006 
L 139.861481 -71.90923 
L 138.900186 -71.816439 
L 137.942705 -71.730318 
L 136.988808 -71.650571 
L 136.038252 -71.57692 
L 135.097486 -71.472918 
L 134.151562 -71.414368 
L 133.208298 -71.361259 
L 132.267402 -71.313391 
L 131.328577 -71.270587 
L 130.393316 -71.21399 
L 129.457068 -71.184743 
L 128.522082 -71.160195 
L 127.588032 -71.140259 
L 126.654707 -71.120448 
L 125.721431 -71.113496 
L 124.788261 -71.113987 
L 123.855071 -71.123888 
L 122.92157 -71.138298 
L 121.988116 -71.168531 
L 121.053506 -71.196 
L 120.117735 -71.228151 
L 119.180484 -71.265091 
L 118.244778 -71.332325 
L 117.304643 -71.383025 
L 116.362236 -71.438932 
L 115.417266 -71.500242 
L 114.469453 -71.567173 
L 113.527927 -71.682361 
L 112.575248 -71.764743 
L 111.619073 -71.853448 
L 110.659171 -71.948768 
L 109.695327 -72.051015 
L 108.72734 -72.160516 
L 107.755025 -72.277618 
L 106.80084 -72.466564 
L 105.82173 -72.602839 
L 104.837941 -72.747734 
L 103.849357 -72.901646 
L 102.855884 -73.064983 
L 101.857448 -73.238164 
L 100.853994 -73.421617 
L 99.845488 -73.615779 
L 98.831917 -73.821093 
L 97.813291 -74.038009 
L 96.789637 -74.26698 
L 95.761008 -74.508466 
L 94.671721 -74.671942 
L 93.630234 -74.938369 
L 92.584015 -75.218825 
L 91.533205 -75.513774 
L 90.477966 -75.823679 
L 89.346126 -76.051215 
L 88.279303 -76.391599 
L 87.208645 -76.748436 
L 86.051584 -77.021706 
L 84.970692 -77.412381 
L 83.796755 -77.719217 
L 82.706773 -78.145991 
L 81.517208 -78.489211 
L 80.419482 -78.954267 
L 79.21577 -79.33659 
L 78.111834 -79.842017 
L 76.895672 -80.266046 
L 75.672123 -80.711977 
L 74.560535 -81.282032 
L 73.327501 -81.773465 
L 72.088733 -82.288828 
L 70.844849 -82.828805 
L 69.596493 -83.394049 
L 68.344335 -83.985191 
L 67.089068 -84.602832 
L 65.831408 -85.247548 
L 64.572091 -85.919886 
L 63.311876 -86.620363 
L 62.051538 -87.34947 
L 60.636061 -88.019514 
L 59.374921 -88.809183 
L 58.11617 -89.628881 
L 56.695876 -90.396822 
L 55.441746 -91.279923 
L 54.022253 -92.116501 
L 52.77658 -93.064616 
L 51.362166 -93.971713 
L 50.128895 -94.986164 
L 48.723954 -95.965335 
L 47.324235 -96.982387 
L 45.930985 -98.037671 
L 44.545462 -99.131492 
L 43.358279 -100.320195 
L 41.993935 -101.488769 
L 40.641027 -102.696442 
L 39.300848 -103.943334 
L 37.974698 -105.22952 
L 36.663884 -106.555028 
L 35.170733 -107.88296 
L 33.893377 -109.290396 
L 32.635455 -110.737002 
L 31.398312 -112.222616 
L 30.183306 -113.747029 
L 28.788291 -115.29039 
L 27.621248 -116.895132 
L 26.480703 -118.537777 
L 25.163767 -120.208992 
L 24.080835 -121.929728 
L 23.02932 -123.686954 
L 21.807807 -125.481831 
L 20.825867 -127.313631 
L 19.681608 -129.18849 
L 18.78163 -131.091243 
L 17.928495 -133.025829 
L 16.938919 -135.0087 
L 16.208681 -137.003303 
L 15.380066 -139.044351 
L 15.380066 -139.044351 
L 15.380066 -139.044351 
L 15.24348 -137.113274 
L 14.891877 -135.205808 
L 14.746388 -133.276267 
L 14.633697 -131.344942 
L 14.630915 -129.409008 
L 14.486172 -127.479642 
L 14.394013 -125.54653 
L 14.490671 -123.612438 
L 14.445165 -121.677409 
L 14.528034 -119.744626 
L 14.642251 -117.813706 
L 14.787439 -115.885089 
L 14.963233 -113.959188 
L 15.169309 -112.0364 
L 15.492059 -110.128518 
L 15.674552 -108.202178 
L 15.973967 -106.291715 
L 16.303193 -104.386068 
L 16.662285 -102.485657 
L 17.051357 -100.590927 
L 17.470563 -98.702346 
L 17.920072 -96.820403 
L 18.492177 -94.971154 
L 19.002855 -93.105789 
L 19.544131 -91.248603 
L 20.116186 -89.40016 
L 20.81087 -87.593512 
L 21.444399 -85.765927 
L 22.109122 -83.948882 
L 22.86571 -82.168095 
L 23.593037 -80.375251 
L 24.439088 -78.634676 
L 25.205787 -76.85811 
L 26.033399 -75.109075 
L 26.972418 -73.41647 
L 27.858234 -71.697018 
L 28.794561 -70.00446 
L 29.767853 -68.332927 
L 30.725357 -66.651319 
L 31.746596 -65.007739 
L 32.807419 -63.389447 
L 33.884029 -61.781641 
L 34.985988 -60.190913 
L 36.422696 -58.846731 
L 38.220891 -57.795562 
L 39.981918 -56.749915 
L 41.815676 -55.79712 
L 43.662488 -54.892608 
L 45.455437 -53.978511 
L 47.251788 -53.102431 
L 49.100929 -52.311696 
L 50.896474 -51.507296 
L 52.690079 -50.736622 
L 54.480613 -49.998585 
L 56.267111 -49.292163 
L 58.048733 -48.616373 
L 59.824747 -47.970262 
L 61.594502 -47.352892 
L 63.357421 -46.763337 
L 65.076415 -46.153007 
L 66.825903 -45.616881 
L 68.567184 -45.105895 
L 70.26481 -44.568068 
L 71.960464 -44.060038 
L 73.678609 -43.62059 
L 75.35729 -43.153655 
L 77.033061 -42.71472 
L 78.699024 -42.29193 
L 80.361599 -41.895991 
L 82.038079 -41.560431 
L 83.682425 -41.19769 
L 85.302037 -40.81626 
L 86.936985 -40.498195 
L 88.562133 -40.191606 
L 90.183173 -39.908558 
L 91.794695 -39.635526 
L 93.387935 -39.347143 
L 94.989877 -39.113433 
L 96.582927 -38.887735 
L 98.16133 -38.649417 
L 99.745274 -38.4602 
L 101.314636 -38.253463 
L 102.885913 -38.084824 
L 104.446955 -37.907966 
L 106.01031 -37.772582 
L 107.56368 -37.624216 
L 109.116784 -37.505887 
L 110.663504 -37.384655 
L 112.207523 -37.277404 
L 113.751425 -37.201921 
L 115.290178 -37.120316 
L 116.826952 -37.052057 
L 118.362372 -37.00191 
L 119.895719 -36.958145 
L 121.427886 -36.927314 
L 122.959131 -36.909332 
L 124.489744 -36.90734 
L 126.019961 -36.905303 
L 127.550496 -36.911656 
L 129.081702 -36.929597 
L 130.613864 -36.959859 
L 132.147225 -37.003055 
L 133.682039 -37.059295 
L 135.220424 -37.112286 
L 136.75939 -37.193357 
L 138.300586 -37.287961 
L 139.846483 -37.382863 
L 141.393336 -37.50355 
L 142.943107 -37.638472 
L 144.501866 -37.761357 
L 146.058868 -37.924067 
L 147.624956 -38.080255 
L 149.189881 -38.272105 
L 150.768312 -38.447036 
L 152.341993 -38.6696 
L 153.928981 -38.8811 
L 155.524942 -39.098941 
L 157.11315 -39.370151 
L 158.718175 -39.627447 
L 160.333004 -39.892892 
L 161.93645 -40.217144 
L 163.560398 -40.525196 
L 165.194715 -40.84338 
L 166.832353 -41.187479 
L 168.480604 -41.543149 
L 170.131843 -41.925912 
L 171.7938 -42.321736 
L 173.45829 -42.74585 
L 175.159745 -43.141666 
L 176.842845 -43.602121 
L 178.527576 -44.092744 
L 180.253694 -44.555239 
L 181.956002 -45.08697 
L 183.697883 -45.597828 
L 185.407032 -46.187205 
L 187.163136 -46.749673 
L 188.926589 -47.339059 
L 190.655931 -48.004228 
L 192.430797 -48.650459 
L 194.211285 -49.326312 
L 195.996662 -50.03274 
L 197.7861 -50.77072 
L 199.627753 -51.493008 
L 201.423805 -52.297418 
L 203.220411 -53.136783 
L 205.074981 -53.960171 
L 206.86829 -54.874594 
L 208.710713 -55.783353 
L 210.48784 -56.781676 
L 212.31013 -57.779192 
L 214.103761 -58.834322 
L 215.522984 -60.191424 
L 216.63332 -61.776376 
L 217.688331 -63.398672 
L 218.718102 -65.0364 
L 219.763145 -66.664301 
L 220.768709 -68.317096 
L 221.755017 -69.981892 
L 222.694939 -71.673407 
L 223.577798 -73.395372 
L 224.384197 -75.15499 
L 225.301187 -76.859404 
L 226.118028 -78.613061 
L 226.931307 -80.368878 
L 227.619658 -82.178168 
L 228.416173 -83.942734 
L 229.087847 -85.757493 
L 229.712498 -87.588667 
L 230.396861 -89.399036 
L 230.981739 -91.243501 
L 231.468676 -93.117092 
L 232.07338 -94.955661 
L 232.470725 -96.85115 
L 232.965356 -98.720056 
L 233.447546 -100.593318 
L 233.888329 -102.47733 
L 234.27379 -104.373595 
L 234.475975 -106.301713 
L 234.787057 -108.209364 
L 235.068758 -110.121786 
L 235.311257 -112.039718 
L 235.514853 -113.962231 
L 235.683695 -115.888123 
L 235.816108 -117.816846 
L 235.911277 -119.747698 
L 235.974635 -121.679763 
L 235.998419 -123.612618 
L 235.986784 -125.545406 
L 235.940498 -127.477468 
L 235.866674 -129.408479 
L 235.922454 -131.347784 
L 235.781781 -133.277721 
L 235.607854 -135.204849 
L 235.396588 -137.128129 
z
" style="stroke: #ffee9c"/>
    </defs>
    <g clip-path="url(#p2eb88a26f2)">
     <use xlink:href="#m08f435b5f3" x="0" y="249.158125" style="fill: #ffee9c; stroke: #ffee9c"/>
    </g>
   </g>
   <g id="matplotlib.axis_1">
    <g id="xtick_1">
     <g id="line2d_1">
      <path d="M 125.254844 124.579063 
L 125.254844 13.699063 
" clip-path="url(#p2eb88a26f2)" style="fill: none; stroke: #b0b0b0; stroke-width: 0.8; stroke-linecap: square"/>
     </g>
     <g id="text_1">
      <!-- N -->
      <g transform="translate(121.070469 7.958438) scale(0.1 -0.1)">
       <defs>
        <path id="DejaVuSans-Bold-4e" d="M 588 4666 
L 1931 4666 
L 3628 1466 
L 3628 4666 
L 4769 4666 
L 4769 0 
L 3425 0 
L 1728 3200 
L 1728 0 
L 588 0 
L 588 4666 
z
" transform="scale(0.015625)"/>
       </defs>
       <use xlink:href="#DejaVuSans-Bold-4e"/>
      </g>
     </g>
    </g>
    <g id="xtick_2">
     <g id="line2d_2">
      <path d="M 125.254844 124.579063 
L 203.658844 46.175063 
" clip-path="url(#p2eb88a26f2)" style="fill: none; stroke: #b0b0b0; stroke-width: 0.8; stroke-linecap: square"/>
     </g>
    </g>
    <g id="xtick_3">
     <g id="line2d_3">
      <path d="M 125.254844 124.579063 
L 236.134844 124.579063 
" clip-path="url(#p2eb88a26f2)" style="fill: none; stroke: #b0b0b0; stroke-width: 0.8; stroke-linecap: square"/>
     </g>
     <g id="text_2">
      <!-- E -->
      <g transform="translate(241.219219 127.338438) scale(0.1 -0.1)">
       <defs>
        <path id="DejaVuSans-Bold-45" d="M 588 4666 
L 3834 4666 
L 3834 3756 
L 1791 3756 
L 1791 2888 
L 3713 2888 
L 3713 1978 
L 1791 1978 
L 1791 909 
L 3903 909 
L 3903 0 
L 588 0 
L 588 4666 
z
" transform="scale(0.015625)"/>
       </defs>
       <use xlink:href="#DejaVuSans-Bold-45"/>
      </g>
     </g>
    </g>
    <g id="xtick_4">
     <g id="line2d_4">
      <path d="M 125.254844 124.579063 
L 203.658844 202.983062 
" clip-path="url(#p2eb88a26f2)" style="fill: none; stroke: #b0b0b0; stroke-width: 0.8; stroke-linecap: square"/>
     </g>
    </g>
    <g id="xtick_5">
     <g id="line2d_5">
      <path d="M 125.254844 124.579063 
L 125.254844 235.459063 
" clip-path="url(#p2eb88a26f2)" style="fill: none; stroke: #b0b0b0; stroke-width: 0.8; stroke-linecap: square"/>
     </g>
     <g id="text_3">
      <!-- S -->
      <g transform="translate(121.654062 246.718438) scale(0.1 -0.1)">
       <defs>
        <path id="DejaVuSans-Bold-53" d="M 3834 4519 
L 3834 3531 
Q 3450 3703 3084 3790 
Q 2719 3878 2394 3878 
Q 1963 3878 1756 3759 
Q 1550 3641 1550 3391 
Q 1550 3203 1689 3098 
Q 1828 2994 2194 2919 
L 2706 2816 
Q 3484 2659 3812 2340 
Q 4141 2022 4141 1434 
Q 4141 663 3683 286 
Q 3225 -91 2284 -91 
Q 1841 -91 1394 -6 
Q 947 78 500 244 
L 500 1259 
Q 947 1022 1364 901 
Q 1781 781 2169 781 
Q 2563 781 2772 912 
Q 2981 1044 2981 1288 
Q 2981 1506 2839 1625 
Q 2697 1744 2272 1838 
L 1806 1941 
Q 1106 2091 782 2419 
Q 459 2747 459 3303 
Q 459 4000 909 4375 
Q 1359 4750 2203 4750 
Q 2588 4750 2994 4692 
Q 3400 4634 3834 4519 
z
" transform="scale(0.015625)"/>
       </defs>
       <use xlink:href="#DejaVuSans-Bold-53"/>
      </g>
     </g>
    </g>
    <g id="xtick_6">
     <g id="line2d_6">
      <path d="M 125.254844 124.579063 
L 46.850844 202.983062 
" clip-path="url(#p2eb88a26f2)" style="fill: none; stroke: #b0b0b0; stroke-width: 0.8; stroke-linecap: square"/>
     </g>
    </g>
    <g id="xtick_7">
     <g id="line2d_7">
      <path d="M 125.254844 124.579063 
L 14.374844 124.579063 
" clip-path="url(#p2eb88a26f2)" style="fill: none; stroke: #b0b0b0; stroke-width: 0.8; stroke-linecap: square"/>
     </g>
     <g id="text_4">
      <!-- W -->
      <g transform="translate(0.36 127.338438) scale(0.1 -0.1)">
       <defs>
        <path id="DejaVuSans-Bold-57" d="M 191 4666 
L 1344 4666 
L 2150 1275 
L 2950 4666 
L 4109 4666 
L 4909 1275 
L 5716 4666 
L 6859 4666 
L 5759 0 
L 4372 0 
L 3525 3547 
L 2688 0 
L 1300 0 
L 191 4666 
z
" transform="scale(0.015625)"/>
       </defs>
       <use xlink:href="#DejaVuSans-Bold-57"/>
      </g>
     </g>
    </g>
    <g id="xtick_8">
     <g id="line2d_8">
      <path d="M 125.254844 124.579063 
L 46.850844 46.175063 
" clip-path="url(#p2eb88a26f2)" style="fill: none; stroke: #b0b0b0; stroke-width: 0.8; stroke-linecap: square"/>
     </g>
    </g>
   </g>
   <g id="matplotlib.axis_2"/>
   <g id="patch_3">
    <path d="M 125.254844 124.579063 
C 125.254844 124.579063 125.254844 124.579063 125.254844 124.579063 
C 125.254844 124.579063 125.254844 124.579063 125.254844 124.579063 
L 125.254844 124.579063 
C 125.254844 124.579063 125.254844 124.579063 125.254844 124.579063 
C 125.254844 124.579063 125.254844 124.579063 125.254844 124.579063 
z
" clip-path="url(#p2eb88a26f2)" style="fill: #d9d9d9"/>
   </g>
   <g id="patch_4">
    <path d="M 125.254844 124.579063 
C 125.254844 124.579063 125.254844 124.579063 125.254844 124.579063 
C 125.254844 124.579063 125.254844 124.579063 125.254844 124.579063 
L 125.254844 124.579063 
C 125.254844 124.579063 125.254844 124.579063 125.254844 124.579063 
C 125.254844 124.579063 125.254844 124.579063 125.254844 124.579063 
z
" clip-path="url(#p2eb88a26f2)" style="fill: #d9d9d9"/>
   </g>
   <g id="patch_5">
    <path d="M 125.254844 124.579063 
C 125.254844 124.579063 125.254844 124.579063 125.254844 124.579063 
C 125.254844 124.579063 125.254844 124.579063 125.254844 124.579063 
L 125.254844 124.579063 
C 125.254844 124.579063 125.254844 124.579063 125.254844 124.579063 
C 125.254844 124.579063 125.254844 124.579063 125.254844 124.579063 
z
" clip-path="url(#p2eb88a26f2)" style="fill: #d9d9d9"/>
   </g>
   <g id="patch_6">
    <path d="M 125.254844 124.579063 
C 125.254844 124.579063 125.254844 124.579063 125.254844 124.579063 
C 125.254844 124.579063 125.254844 124.579063 125.254844 124.579063 
L 125.254844 124.579063 
C 125.254844 124.579063 125.254844 124.579063 125.254844 124.579063 
C 125.254844 124.579063 125.254844 124.579063 125.254844 124.579063 
z
" clip-path="url(#p2eb88a26f2)" style="fill: #d9d9d9"/>
   </g>
   <g id="patch_7">
    <path d="M 125.254844 124.579063 
C 125.254844 124.579063 125.254844 124.579063 125.254844 124.579063 
C 125.254844 124.579063 125.254844 124.579063 125.254844 124.579063 
L 125.254844 124.579063 
C 125.254844 124.579063 125.254844 124.579063 125.254844 124.579063 
C 125.254844 124.579063 125.254844 124.579063 125.254844 124.579063 
z
" clip-path="url(#p2eb88a26f2)" style="fill: #d9d9d9"/>
   </g>
   <g id="patch_8">
    <path d="M 125.254844 124.579063 
C 125.254844 124.579063 125.254844 124.579063 125.254844 124.579063 
C 125.254844 124.579063 125.254844 124.579063 125.254844 124.579063 
L 125.254844 124.579063 
C 125.254844 124.579063 125.254844 124.579063 125.254844 124.579063 
C 125.254844 124.579063 125.254844 124.579063 125.254844 124.579063 
z
" clip-path="url(#p2eb88a26f2)" style="fill: #d9d9d9"/>
   </g>
   <g id="patch_9">
    <path d="M 125.254844 124.579063 
C 125.254844 124.579063 125.254844 124.579063 125.254844 124.579063 
C 125.254844 124.579063 125.254844 124.579063 125.254844 124.579063 
L 125.254844 124.579063 
C 125.254844 124.579063 125.254844 124.579063 125.254844 124.579063 
C 125.254844 124.579063 125.254844 124.579063 125.254844 124.579063 
z
" clip-path="url(#p2eb88a26f2)" style="fill: #d9d9d9"/>
   </g>
   <g id="patch_10">
    <path d="M 125.254844 124.579063 
C 125.254844 124.579063 125.254844 124.579063 125.254844 124.579063 
C 125.254844 124.579063 125.254844 124.579063 125.254844 124.579063 
L 125.254844 124.579063 
C 125.254844 124.579063 125.254844 124.579063 125.254844 124.579063 
C 125.254844 124.579063 125.254844 124.579063 125.254844 124.579063 
z
" clip-path="url(#p2eb88a26f2)" style="fill: #d9d9d9"/>
   </g>
   <g id="patch_11">
    <path d="M 125.254844 124.579063 
C 125.254844 124.579063 125.254844 124.579063 125.254844 124.579063 
C 125.254844 124.579063 125.254844 124.579063 125.254844 124.579063 
L 125.254844 124.579063 
C 125.254844 124.579063 125.254844 124.579063 125.254844 124.579063 
C 125.254844 124.579063 125.254844 124.579063 125.254844 124.579063 
z
" clip-path="url(#p2eb88a26f2)" style="fill: #d9d9d9"/>
   </g>
   <g id="patch_12">
    <path d="M 125.254844 124.579063 
C 125.254844 124.579063 125.254844 124.579063 125.254844 124.579063 
C 125.254844 124.579063 125.254844 124.579063 125.254844 124.579063 
L 125.254844 124.579063 
C 125.254844 124.579063 125.254844 124.579063 125.254844 124.579063 
C 125.254844 124.579063 125.254844 124.579063 125.254844 124.579063 
z
" clip-path="url(#p2eb88a26f2)" style="fill: #d9d9d9"/>
   </g>
   <g id="patch_13">
    <path d="M 125.254844 124.579063 
C 125.254844 124.579063 125.254844 124.579063 125.254844 124.579063 
C 125.254844 124.579063 125.254844 124.579063 125.254844 124.579063 
L 125.254844 124.579063 
C 125.254844 124.579063 125.254844 124.579063 125.254844 124.579063 
C 125.254844 124.579063 125.254844 124.579063 125.254844 124.579063 
z
" clip-path="url(#p2eb88a26f2)" style="fill: #d9d9d9"/>
   </g>
   <g id="patch_14">
    <path d="M 125.254844 124.579063 
C 125.254844 124.579063 125.254844 124.579063 125.254844 124.579063 
C 125.254844 124.579063 125.254844 124.579063 125.254844 124.579063 
L 125.254844 124.579063 
C 125.254844 124.579063 125.254844 124.579063 125.254844 124.579063 
C 125.254844 124.579063 125.254844 124.579063 125.254844 124.579063 
z
" clip-path="url(#p2eb88a26f2)" style="fill: #d9d9d9"/>
   </g>
   <g id="patch_15">
    <path d="M 125.254844 124.579063 
C 125.254844 124.579063 125.254844 124.579063 125.254844 124.579063 
C 125.254844 124.579063 125.254844 124.579063 125.254844 124.579063 
L 125.254844 124.579063 
C 125.254844 124.579063 125.254844 124.579063 125.254844 124.579063 
C 125.254844 124.579063 125.254844 124.579063 125.254844 124.579063 
z
" clip-path="url(#p2eb88a26f2)" style="fill: #d9d9d9"/>
   </g>
   <g id="patch_16">
    <path d="M 125.254844 124.579063 
C 125.254844 124.579063 125.254844 124.579063 125.254844 124.579063 
C 125.254844 124.579063 125.254844 124.579063 125.254844 124.579063 
L 125.254844 124.579063 
C 125.254844 124.579063 125.254844 124.579063 125.254844 124.579063 
C 125.254844 124.579063 125.254844 124.579063 125.254844 124.579063 
z
" clip-path="url(#p2eb88a26f2)" style="fill: #d9d9d9"/>
   </g>
   <g id="patch_17">
    <path d="M 125.254844 124.579063 
C 125.254844 124.579063 125.254844 124.579063 125.254844 124.579063 
C 125.254844 124.579063 125.254844 124.579063 125.254844 124.579063 
L 125.254844 124.579063 
C 125.254844 124.579063 125.254844 124.579063 125.254844 124.579063 
C 125.254844 124.579063 125.254844 124.579063 125.254844 124.579063 
z
" clip-path="url(#p2eb88a26f2)" style="fill: #d9d9d9"/>
   </g>
   <g id="patch_18">
    <path d="M 125.254844 124.579063 
C 125.254844 124.579063 125.254844 124.579063 125.254844 124.579063 
C 125.254844 124.579063 125.254844 124.579063 125.254844 124.579063 
L 125.254844 124.579063 
C 125.254844 124.579063 125.254844 124.579063 125.254844 124.579063 
C 125.254844 124.579063 125.254844 124.579063 125.254844 124.579063 
z
" clip-path="url(#p2eb88a26f2)" style="fill: #d9d9d9"/>
   </g>
   <g id="patch_19">
    <path d="M 125.254844 124.579063 
C 125.254844 124.579063 125.254844 124.579063 125.254844 124.579063 
C 125.254844 124.579063 125.254844 124.579063 125.254844 124.579063 
L 125.254844 124.579063 
C 125.254844 124.579063 125.254844 124.579063 125.254844 124.579063 
C 125.254844 124.579063 125.254844 124.579063 125.254844 124.579063 
z
" clip-path="url(#p2eb88a26f2)" style="fill: #d9d9d9"/>
   </g>
   <g id="patch_20">
    <path d="M 125.254844 124.579063 
C 125.254844 124.579063 125.254844 124.579063 125.254844 124.579063 
C 125.254844 124.579063 125.254844 124.579063 125.254844 124.579063 
L 125.254844 124.579063 
C 125.254844 124.579063 125.254844 124.579063 125.254844 124.579063 
C 125.254844 124.579063 125.254844 124.579063 125.254844 124.579063 
z
" clip-path="url(#p2eb88a26f2)" style="fill: #d9d9d9"/>
   </g>
   <g id="patch_21">
    <path d="M 125.254844 124.579063 
C 125.254844 124.579063 125.254844 124.579063 125.254844 124.579063 
C 125.254844 124.579063 125.254844 124.579063 125.254844 124.579063 
L 125.254844 124.579063 
C 125.254844 124.579063 125.254844 124.579063 125.254844 124.579063 
C 125.254844 124.579063 125.254844 124.579063 125.254844 124.579063 
z
" clip-path="url(#p2eb88a26f2)" style="fill: #d9d9d9"/>
   </g>
   <g id="patch_22">
    <path d="M 125.254844 124.579063 
C 125.254844 124.579063 125.254844 124.579063 125.254844 124.579063 
C 125.254844 124.579063 125.254844 124.579063 125.254844 124.579063 
L 125.254844 124.579063 
C 125.254844 124.579063 125.254844 124.579063 125.254844 124.579063 
C 125.254844 124.579063 125.254844 124.579063 125.254844 124.579063 
z
" clip-path="url(#p2eb88a26f2)" style="fill: #d9d9d9"/>
   </g>
   <g id="patch_23">
    <path d="M 125.254844 124.579063 
C 125.254844 124.579063 125.254844 124.579063 125.254844 124.579063 
C 125.254844 124.579063 125.254844 124.579063 125.254844 124.579063 
L 125.254844 124.579063 
C 125.254844 124.579063 125.254844 124.579063 125.254844 124.579063 
C 125.254844 124.579063 125.254844 124.579063 125.254844 124.579063 
z
" clip-path="url(#p2eb88a26f2)" style="fill: #d9d9d9"/>
   </g>
   <g id="patch_24">
    <path d="M 125.254844 124.579063 
C 125.254844 124.579063 125.254844 124.579063 125.254844 124.579063 
C 125.254844 124.579063 125.254844 124.579063 125.254844 124.579063 
L 125.254844 124.579063 
C 125.254844 124.579063 125.254844 124.579063 125.254844 124.579063 
C 125.254844 124.579063 125.254844 124.579063 125.254844 124.579063 
z
" clip-path="url(#p2eb88a26f2)" style="fill: #d9d9d9"/>
   </g>
   <g id="patch_25">
    <path d="M 125.254844 124.579063 
C 125.254844 124.579063 125.254844 124.579063 125.254844 124.579063 
C 125.254844 124.579063 125.254844 124.579063 125.254844 124.579063 
L 125.254844 124.579063 
C 125.254844 124.579063 125.254844 124.579063 125.254844 124.579063 
C 125.254844 124.579063 125.254844 124.579063 125.254844 124.579063 
z
" clip-path="url(#p2eb88a26f2)" style="fill: #d9d9d9"/>
   </g>
   <g id="patch_26">
    <path d="M 125.254844 124.579063 
C 125.254844 124.579063 125.254844 124.579063 125.254844 124.579063 
C 125.254844 124.579063 125.254844 124.579063 125.254844 124.579063 
L 125.254844 124.579063 
C 125.254844 124.579063 125.254844 124.579063 125.254844 124.579063 
C 125.254844 124.579063 125.254844 124.579063 125.254844 124.579063 
z
" clip-path="url(#p2eb88a26f2)" style="fill: #d9d9d9"/>
   </g>
   <g id="patch_27">
    <path d="M 125.254844 124.579063 
C 125.254844 124.579063 125.254844 124.579063 125.254844 124.579063 
C 125.254844 124.579063 125.254844 124.579063 125.254844 124.579063 
L 125.254844 124.579063 
C 125.254844 124.579063 125.254844 124.579063 125.254844 124.579063 
C 125.254844 124.579063 125.254844 124.579063 125.254844 124.579063 
z
" clip-path="url(#p2eb88a26f2)" style="fill: #d9d9d9"/>
   </g>
   <g id="patch_28">
    <path d="M 125.254844 124.579063 
C 125.254844 124.579063 125.254844 124.579063 125.254844 124.579063 
C 125.254844 124.579063 125.254844 124.579063 125.254844 124.579063 
L 125.254844 124.579063 
C 125.254844 124.579063 125.254844 124.579063 125.254844 124.579063 
C 125.254844 124.579063 125.254844 124.579063 125.254844 124.579063 
z
" clip-path="url(#p2eb88a26f2)" style="fill: #d9d9d9"/>
   </g>
   <g id="patch_29">
    <path d="M 125.254844 124.579063 
C 125.254844 124.579063 125.254844 124.579063 125.254844 124.579063 
C 125.254844 124.579063 125.254844 124.579063 125.254844 124.579063 
L 125.254844 124.579063 
C 125.254844 124.579063 125.254844 124.579063 125.254844 124.579063 
C 125.254844 124.579063 125.254844 124.579063 125.254844 124.579063 
z
" clip-path="url(#p2eb88a26f2)" style="fill: #d9d9d9"/>
   </g>
   <g id="patch_30">
    <path d="M 125.254844 124.579063 
C 125.254844 124.579063 125.254844 124.579063 125.254844 124.579063 
C 125.254844 124.579063 125.254844 124.579063 125.254844 124.579063 
L 125.254844 124.579063 
C 125.254844 124.579063 125.254844 124.579063 125.254844 124.579063 
C 125.254844 124.579063 125.254844 124.579063 125.254844 124.579063 
z
" clip-path="url(#p2eb88a26f2)" style="fill: #d9d9d9"/>
   </g>
   <g id="patch_31">
    <path d="M 125.254844 124.579063 
C 125.254844 124.579063 125.254844 124.579063 125.254844 124.579063 
C 125.254844 124.579063 125.254844 124.579063 125.254844 124.579063 
L 125.254844 124.579063 
C 125.254844 124.579063 125.254844 124.579063 125.254844 124.579063 
C 125.254844 124.579063 125.254844 124.579063 125.254844 124.579063 
z
" clip-path="url(#p2eb88a26f2)" style="fill: #d9d9d9"/>
   </g>
   <g id="patch_32">
    <path d="M 125.254844 124.579063 
C 125.254844 124.579063 125.254844 124.579063 125.254844 124.579063 
C 125.254844 124.579063 125.254844 124.579063 125.254844 124.579063 
L 125.254844 124.579063 
C 125.254844 124.579063 125.254844 124.579063 125.254844 124.579063 
C 125.254844 124.579063 125.254844 124.579063 125.254844 124.579063 
z
" clip-path="url(#p2eb88a26f2)" style="fill: #d9d9d9"/>
   </g>
   <g id="patch_33">
    <path d="M 125.254844 124.579063 
C 125.254844 124.579063 125.254844 124.579063 125.254844 124.579063 
C 125.254844 124.579063 125.254844 124.579063 125.254844 124.579063 
L 125.254844 124.579063 
C 125.254844 124.579063 125.254844 124.579063 125.254844 124.579063 
C 125.254844 124.579063 125.254844 124.579063 125.254844 124.579063 
z
" clip-path="url(#p2eb88a26f2)" style="fill: #d9d9d9"/>
   </g>
   <g id="patch_34">
    <path d="M 125.254844 124.579063 
C 125.254844 124.579063 125.254844 124.579063 125.254844 124.579063 
C 125.254844 124.579063 125.254844 124.579063 125.254844 124.579063 
L 125.254844 124.579063 
C 125.254844 124.579063 125.254844 124.579063 125.254844 124.579063 
C 125.254844 124.579063 125.254844 124.579063 125.254844 124.579063 
z
" clip-path="url(#p2eb88a26f2)" style="fill: #d9d9d9"/>
   </g>
   <g id="patch_35">
    <path d="M 125.254844 124.579063 
C 125.254844 124.579063 125.254844 124.579063 125.254844 124.579063 
C 125.254844 124.579063 125.254844 124.579063 125.254844 124.579063 
L 125.254844 124.579063 
C 125.254844 124.579063 125.254844 124.579063 125.254844 124.579063 
C 125.254844 124.579063 125.254844 124.579063 125.254844 124.579063 
z
" clip-path="url(#p2eb88a26f2)" style="fill: #a1a1d8"/>
   </g>
   <g id="patch_36">
    <path d="M 125.254844 124.579063 
C 125.254844 124.579063 125.254844 124.579063 125.254844 124.579063 
C 125.254844 124.579063 125.254844 124.579063 125.254844 124.579063 
L 134.353189 94.585836 
C 133.371466 94.288034 132.375714 94.038611 131.369528 93.838468 
C 130.363343 93.638325 129.347937 93.487704 128.326979 93.387149 
z
" clip-path="url(#p2eb88a26f2)" style="fill: #a1a1d8"/>
   </g>
   <g id="patch_37">
    <path d="M 125.254844 124.579063 
C 125.254844 124.579063 125.254844 124.579063 125.254844 124.579063 
C 125.254844 124.579063 125.254844 124.579063 125.254844 124.579063 
L 151.023899 76.368551 
C 149.445897 75.525091 147.827435 74.759615 146.174358 74.074888 
C 144.521281 73.390162 142.835582 72.787009 141.12335 72.267609 
z
" clip-path="url(#p2eb88a26f2)" style="fill: #a1a1d8"/>
   </g>
   <g id="patch_38">
    <path d="M 125.254844 124.579063 
C 125.254844 124.579063 125.254844 124.579063 125.254844 124.579063 
C 125.254844 124.579063 125.254844 124.579063 125.254844 124.579063 
L 151.771385 92.268563 
C 150.713814 91.400637 149.614268 90.585158 148.476718 89.825071 
C 147.339168 89.064985 146.164986 88.361207 144.958412 87.71628 
z
" clip-path="url(#p2eb88a26f2)" style="fill: #a1a1d8"/>
   </g>
   <g id="patch_39">
    <path d="M 125.254844 124.579063 
C 125.254844 124.579063 125.254844 124.579063 125.254844 124.579063 
C 125.254844 124.579063 125.254844 124.579063 125.254844 124.579063 
L 150.961427 103.482215 
C 150.270896 102.6408 149.539469 101.833795 148.76979 101.064116 
C 148.000111 100.294437 147.193106 99.563011 146.351691 98.872479 
z
" clip-path="url(#p2eb88a26f2)" style="fill: #a1a1d8"/>
   </g>
   <g id="patch_40">
    <path d="M 125.254844 124.579063 
C 125.254844 124.579063 125.254844 124.579063 125.254844 124.579063 
C 125.254844 124.579063 125.254844 124.579063 125.254844 124.579063 
L 183.755494 93.309813 
C 182.732005 91.395 181.615121 89.531591 180.408875 87.726317 
C 179.20263 85.921043 177.908478 84.176081 176.531093 82.497732 
z
" clip-path="url(#p2eb88a26f2)" style="fill: #a1a1d8"/>
   </g>
   <g id="patch_41">
    <path d="M 125.254844 124.579063 
C 125.254844 124.579063 125.254844 124.579063 125.254844 124.579063 
C 125.254844 124.579063 125.254844 124.579063 125.254844 124.579063 
L 188.30601 105.4527 
C 187.679976 103.388941 186.952994 101.357163 186.12769 99.364704 
C 185.302387 97.372245 184.379756 95.421507 183.363131 93.519536 
z
" clip-path="url(#p2eb88a26f2)" style="fill: #a1a1d8"/>
   </g>
   <g id="patch_42">
    <path d="M 125.254844 124.579063 
C 125.254844 124.579063 125.254844 124.579063 125.254844 124.579063 
C 125.254844 124.579063 125.254844 124.579063 125.254844 124.579063 
L 191.532853 118.051248 
C 191.319188 115.88187 190.999141 113.72429 190.573868 111.586301 
C 190.148596 109.448311 189.61861 107.332491 188.985826 105.24648 
z
" clip-path="url(#p2eb88a26f2)" style="fill: #a1a1d8"/>
   </g>
   <g id="patch_43">
    <path d="M 125.254844 124.579063 
C 125.254844 124.579063 125.254844 124.579063 125.254844 124.579063 
C 125.254844 124.579063 125.254844 124.579063 125.254844 124.579063 
L 176.570868 129.63325 
C 176.736299 127.9536 176.819164 126.26684 176.819164 124.579063 
C 176.819164 122.891285 176.736299 121.204525 176.570868 119.524875 
z
" clip-path="url(#p2eb88a26f2)" style="fill: #a1a1d8"/>
   </g>
   <g id="patch_44">
    <path d="M 125.254844 124.579063 
C 125.254844 124.579063 125.254844 124.579063 125.254844 124.579063 
C 125.254844 124.579063 125.254844 124.579063 125.254844 124.579063 
L 229.826251 156.300452 
C 230.86454 152.877674 231.734153 149.405981 232.431951 145.897915 
C 233.129749 142.389848 233.65489 138.849636 234.005477 135.290065 
z
" clip-path="url(#p2eb88a26f2)" style="fill: #a1a1d8"/>
   </g>
   <g id="patch_45">
    <path d="M 125.254844 124.579063 
C 125.254844 124.579063 125.254844 124.579063 125.254844 124.579063 
C 125.254844 124.579063 125.254844 124.579063 125.254844 124.579063 
L 196.519038 162.670568 
C 197.76583 160.337984 198.897347 157.945593 199.909502 155.502034 
C 200.921657 153.058476 201.81323 150.566696 202.581 148.035696 
z
" clip-path="url(#p2eb88a26f2)" style="fill: #a1a1d8"/>
   </g>
   <g id="patch_46">
    <path d="M 125.254844 124.579063 
C 125.254844 124.579063 125.254844 124.579063 125.254844 124.579063 
C 125.254844 124.579063 125.254844 124.579063 125.254844 124.579063 
L 136.186977 133.550832 
C 136.480636 133.193007 136.75655 132.82098 137.013723 132.436094 
C 137.270895 132.051209 137.509016 131.653928 137.727224 131.245689 
z
" clip-path="url(#p2eb88a26f2)" style="fill: #a1a1d8"/>
   </g>
   <g id="patch_47">
    <path d="M 125.254844 124.579063 
C 125.254844 124.579063 125.254844 124.579063 125.254844 124.579063 
C 125.254844 124.579063 125.254844 124.579063 125.254844 124.579063 
L 136.242972 137.968136 
C 136.681217 137.608478 137.101539 137.22752 137.50242 136.826639 
C 137.903302 136.425758 138.284259 136.005436 138.643917 135.567191 
z
" clip-path="url(#p2eb88a26f2)" style="fill: #a1a1d8"/>
   </g>
   <g id="patch_48">
    <path d="M 125.254844 124.579063 
C 125.254844 124.579063 125.254844 124.579063 125.254844 124.579063 
C 125.254844 124.579063 125.254844 124.579063 125.254844 124.579063 
L 125.254844 124.579063 
C 125.254844 124.579063 125.254844 124.579063 125.254844 124.579063 
C 125.254844 124.579063 125.254844 124.579063 125.254844 124.579063 
z
" clip-path="url(#p2eb88a26f2)" style="fill: #a1a1d8"/>
   </g>
   <g id="patch_49">
    <path d="M 125.254844 124.579063 
C 125.254844 124.579063 125.254844 124.579063 125.254844 124.579063 
C 125.254844 124.579063 125.254844 124.579063 125.254844 124.579063 
L 129.11109 137.291404 
C 129.527184 137.165184 129.93683 137.01861 130.338549 136.852213 
C 130.740268 136.685815 131.133574 136.499795 131.517049 136.294824 
z
" clip-path="url(#p2eb88a26f2)" style="fill: #a1a1d8"/>
   </g>
   <g id="patch_50">
    <path d="M 125.254844 124.579063 
C 125.254844 124.579063 125.254844 124.579063 125.254844 124.579063 
C 125.254844 124.579063 125.254844 124.579063 125.254844 124.579063 
L 126.556939 137.799457 
C 126.989662 137.756837 127.420032 137.692998 127.846494 137.608169 
C 128.272956 137.523341 128.694997 137.417625 129.11109 137.291404 
z
" clip-path="url(#p2eb88a26f2)" style="fill: #a1a1d8"/>
   </g>
   <g id="patch_51">
    <path d="M 125.254844 124.579063 
C 125.254844 124.579063 125.254844 124.579063 125.254844 124.579063 
C 125.254844 124.579063 125.254844 124.579063 125.254844 124.579063 
L 125.254844 124.579063 
C 125.254844 124.579063 125.254844 124.579063 125.254844 124.579063 
C 125.254844 124.579063 125.254844 124.579063 125.254844 124.579063 
z
" clip-path="url(#p2eb88a26f2)" style="fill: #a1a1d8"/>
   </g>
   <g id="patch_52">
    <path d="M 125.254844 124.579063 
C 125.254844 124.579063 125.254844 124.579063 125.254844 124.579063 
C 125.254844 124.579063 125.254844 124.579063 125.254844 124.579063 
L 125.254844 124.579063 
C 125.254844 124.579063 125.254844 124.579063 125.254844 124.579063 
C 125.254844 124.579063 125.254844 124.579063 125.254844 124.579063 
z
" clip-path="url(#p2eb88a26f2)" style="fill: #a1a1d8"/>
   </g>
   <g id="patch_53">
    <path d="M 125.254844 124.579063 
C 125.254844 124.579063 125.254844 124.579063 125.254844 124.579063 
C 125.254844 124.579063 125.254844 124.579063 125.254844 124.579063 
L 125.254844 124.579063 
C 125.254844 124.579063 125.254844 124.579063 125.254844 124.579063 
C 125.254844 124.579063 125.254844 124.579063 125.254844 124.579063 
z
" clip-path="url(#p2eb88a26f2)" style="fill: #a1a1d8"/>
   </g>
   <g id="patch_54">
    <path d="M 125.254844 124.579063 
C 125.254844 124.579063 125.254844 124.579063 125.254844 124.579063 
C 125.254844 124.579063 125.254844 124.579063 125.254844 124.579063 
L 125.254844 124.579063 
C 125.254844 124.579063 125.254844 124.579063 125.254844 124.579063 
C 125.254844 124.579063 125.254844 124.579063 125.254844 124.579063 
z
" clip-path="url(#p2eb88a26f2)" style="fill: #a1a1d8"/>
   </g>
   <g id="patch_55">
    <path d="M 125.254844 124.579063 
C 125.254844 124.579063 125.254844 124.579063 125.254844 124.579063 
C 125.254844 124.579063 125.254844 124.579063 125.254844 124.579063 
L 125.254844 124.579063 
C 125.254844 124.579063 125.254844 124.579063 125.254844 124.579063 
C 125.254844 124.579063 125.254844 124.579063 125.254844 124.579063 
z
" clip-path="url(#p2eb88a26f2)" style="fill: #a1a1d8"/>
   </g>
   <g id="patch_56">
    <path d="M 125.254844 124.579063 
C 125.254844 124.579063 125.254844 124.579063 125.254844 124.579063 
C 125.254844 124.579063 125.254844 124.579063 125.254844 124.579063 
L 125.254844 124.579063 
C 125.254844 124.579063 125.254844 124.579063 125.254844 124.579063 
C 125.254844 124.579063 125.254844 124.579063 125.254844 124.579063 
z
" clip-path="url(#p2eb88a26f2)" style="fill: #a1a1d8"/>
   </g>
   <g id="patch_57">
    <path d="M 125.254844 124.579063 
C 125.254844 124.579063 125.254844 124.579063 125.254844 124.579063 
C 125.254844 124.579063 125.254844 124.579063 125.254844 124.579063 
L 125.254844 124.579063 
C 125.254844 124.579063 125.254844 124.579063 125.254844 124.579063 
C 125.254844 124.579063 125.254844 124.579063 125.254844 124.579063 
z
" clip-path="url(#p2eb88a26f2)" style="fill: #a1a1d8"/>
   </g>
   <g id="patch_58">
    <path d="M 125.254844 124.579063 
C 125.254844 124.579063 125.254844 124.579063 125.254844 124.579063 
C 125.254844 124.579063 125.254844 124.579063 125.254844 124.579063 
L 125.254844 124.579063 
C 125.254844 124.579063 125.254844 124.579063 125.254844 124.579063 
C 125.254844 124.579063 125.254844 124.579063 125.254844 124.579063 
z
" clip-path="url(#p2eb88a26f2)" style="fill: #a1a1d8"/>
   </g>
   <g id="patch_59">
    <path d="M 125.254844 124.579063 
C 125.254844 124.579063 125.254844 124.579063 125.254844 124.579063 
C 125.254844 124.579063 125.254844 124.579063 125.254844 124.579063 
L 125.254844 124.579063 
C 125.254844 124.579063 125.254844 124.579063 125.254844 124.579063 
C 125.254844 124.579063 125.254844 124.579063 125.254844 124.579063 
z
" clip-path="url(#p2eb88a26f2)" style="fill: #a1a1d8"/>
   </g>
   <g id="patch_60">
    <path d="M 125.254844 124.579063 
C 125.254844 124.579063 125.254844 124.579063 125.254844 124.579063 
C 125.254844 124.579063 125.254844 124.579063 125.254844 124.579063 
L 118.690219 122.587705 
C 118.625039 122.802575 118.570447 123.020516 118.526642 123.24074 
C 118.482837 123.460964 118.44987 123.683206 118.427862 123.906663 
z
" clip-path="url(#p2eb88a26f2)" style="fill: #a1a1d8"/>
   </g>
   <g id="patch_61">
    <path d="M 125.254844 124.579063 
C 125.254844 124.579063 125.254844 124.579063 125.254844 124.579063 
C 125.254844 124.579063 125.254844 124.579063 125.254844 124.579063 
L 94.257853 108.010826 
C 93.71555 109.025403 93.223386 110.065995 92.783141 111.128843 
C 92.342895 112.19169 91.955097 113.275512 91.621149 114.376393 
z
" clip-path="url(#p2eb88a26f2)" style="fill: #a1a1d8"/>
   </g>
   <g id="patch_62">
    <path d="M 125.254844 124.579063 
C 125.254844 124.579063 125.254844 124.579063 125.254844 124.579063 
C 125.254844 124.579063 125.254844 124.579063 125.254844 124.579063 
L 112.265534 113.919012 
C 111.916615 114.344171 111.58878 114.786205 111.283214 115.243518 
C 110.977647 115.70083 110.694718 116.172869 110.435447 116.65793 
z
" clip-path="url(#p2eb88a26f2)" style="fill: #a1a1d8"/>
   </g>
   <g id="patch_63">
    <path d="M 125.254844 124.579063 
C 125.254844 124.579063 125.254844 124.579063 125.254844 124.579063 
C 125.254844 124.579063 125.254844 124.579063 125.254844 124.579063 
L 112.473892 109.005428 
C 111.964144 109.423767 111.475242 109.866882 111.008952 110.333171 
C 110.542663 110.799461 110.099548 111.288362 109.681209 111.798111 
z
" clip-path="url(#p2eb88a26f2)" style="fill: #a1a1d8"/>
   </g>
   <g id="patch_64">
    <path d="M 125.254844 124.579063 
C 125.254844 124.579063 125.254844 124.579063 125.254844 124.579063 
C 125.254844 124.579063 125.254844 124.579063 125.254844 124.579063 
L 115.028706 105.447304 
C 114.402495 105.782021 113.793095 106.147281 113.202707 106.541766 
C 112.61232 106.93625 112.041656 107.359483 111.492777 107.809936 
z
" clip-path="url(#p2eb88a26f2)" style="fill: #a1a1d8"/>
   </g>
   <g id="patch_65">
    <path d="M 125.254844 124.579063 
C 125.254844 124.579063 125.254844 124.579063 125.254844 124.579063 
C 125.254844 124.579063 125.254844 124.579063 125.254844 124.579063 
L 117.837205 100.126384 
C 117.036832 100.369175 116.248862 100.651115 115.476141 100.971186 
C 114.70342 101.291258 113.94688 101.649075 113.209252 102.043345 
z
" clip-path="url(#p2eb88a26f2)" style="fill: #a1a1d8"/>
   </g>
   <g id="patch_66">
    <path d="M 125.254844 124.579063 
C 125.254844 124.579063 125.254844 124.579063 125.254844 124.579063 
C 125.254844 124.579063 125.254844 124.579063 125.254844 124.579063 
L 121.549016 86.95316 
C 120.317464 87.074457 119.09261 87.256147 117.878877 87.497574 
C 116.665145 87.739 115.463997 88.039872 114.279773 88.399103 
z
" clip-path="url(#p2eb88a26f2)" style="fill: #a1a1d8"/>
   </g>
   <g id="patch_67">
    <path d="M 125.254844 124.579063 
C 125.254844 124.579063 125.254844 124.579063 125.254844 124.579063 
C 125.254844 124.579063 125.254844 124.579063 125.254844 124.579063 
L 125.254844 124.579063 
C 125.254844 124.579063 125.254844 124.579063 125.254844 124.579063 
C 125.254844 124.579063 125.254844 124.579063 125.254844 124.579063 
z
" clip-path="url(#p2eb88a26f2)" style="fill: #ff8c8e"/>
   </g>
   <g id="patch_68">
    <path d="M 128.326979 93.387149 
C 129.347937 93.487704 130.363343 93.638325 131.369528 93.838468 
C 132.375714 94.038611 133.371466 94.288034 134.353189 94.585836 
L 142.21064 68.683294 
C 140.381088 68.128305 138.52539 67.663477 136.65025 67.290489 
C 134.775109 66.9175 132.882786 66.6368 130.980115 66.449404 
z
" clip-path="url(#p2eb88a26f2)" style="fill: #ff8c8e"/>
   </g>
   <g id="patch_69">
    <path d="M 141.12335 72.267609 
C 142.835582 72.787009 144.521281 73.390162 146.174358 74.074888 
C 147.827435 74.759615 149.445897 75.525091 151.023899 76.368551 
L 151.023899 76.368551 
C 149.445897 75.525091 147.827435 74.759615 146.174358 74.074888 
C 144.521281 73.390162 142.835582 72.787009 141.12335 72.267609 
z
" clip-path="url(#p2eb88a26f2)" style="fill: #ff8c8e"/>
   </g>
   <g id="patch_70">
    <path d="M 144.958412 87.71628 
C 146.164986 88.361207 147.339168 89.064985 148.476718 89.825071 
C 149.614268 90.585158 150.713814 91.400637 151.771385 92.268563 
L 151.771385 92.268563 
C 150.713814 91.400637 149.614268 90.585158 148.476718 89.825071 
C 147.339168 89.064985 146.164986 88.361207 144.958412 87.71628 
z
" clip-path="url(#p2eb88a26f2)" style="fill: #ff8c8e"/>
   </g>
   <g id="patch_71">
    <path d="M 146.351691 98.872479 
C 147.193106 99.563011 148.000111 100.294437 148.76979 101.064116 
C 149.539469 101.833795 150.270896 102.6408 150.961427 103.482215 
L 164.357843 92.48806 
C 163.307457 91.208161 162.194864 89.980604 161.024083 88.809823 
C 159.853302 87.639043 158.625745 86.52645 157.345846 85.476063 
z
" clip-path="url(#p2eb88a26f2)" style="fill: #ff8c8e"/>
   </g>
   <g id="patch_72">
    <path d="M 176.531093 82.497732 
C 177.908478 84.176081 179.20263 85.921043 180.408875 87.726317 
C 181.615121 89.531591 182.732005 91.395 183.755494 93.309813 
L 219.758759 74.065668 
C 218.10538 70.972413 216.301127 67.9622 214.352518 65.0459 
C 212.403909 62.1296 210.313292 59.310729 208.088218 56.599469 
z
" clip-path="url(#p2eb88a26f2)" style="fill: #ff8c8e"/>
   </g>
   <g id="patch_73">
    <path d="M 183.363131 93.519536 
C 184.379756 95.421507 185.302387 97.372245 186.12769 99.364704 
C 186.952994 101.357163 187.679976 103.388941 188.30601 105.4527 
L 216.748387 96.8248 
C 215.839948 93.830079 214.785025 90.881766 213.587427 87.990509 
C 212.389829 85.099251 211.051 82.268535 209.575776 79.508585 
z
" clip-path="url(#p2eb88a26f2)" style="fill: #ff8c8e"/>
   </g>
   <g id="patch_74">
    <path d="M 188.985826 105.24648 
C 189.61861 107.332491 190.148596 109.448311 190.573868 111.586301 
C 190.999141 113.72429 191.319188 115.88187 191.532853 118.051248 
L 208.518841 116.378275 
C 208.250417 113.65292 207.848347 110.942386 207.314084 108.256465 
C 206.779821 105.570543 206.114009 102.912471 205.319052 100.29185 
z
" clip-path="url(#p2eb88a26f2)" style="fill: #ff8c8e"/>
   </g>
   <g id="patch_75">
    <path d="M 176.570868 119.524875 
C 176.736299 121.204525 176.819164 122.891285 176.819164 124.579063 
C 176.819164 126.26684 176.736299 127.9536 176.570868 129.63325 
L 176.570868 129.63325 
C 176.736299 127.9536 176.819164 126.26684 176.819164 124.579063 
C 176.819164 122.891285 176.736299 121.204525 176.570868 119.524875 
z
" clip-path="url(#p2eb88a26f2)" style="fill: #ff8c8e"/>
   </g>
   <g id="patch_76">
    <path d="M 234.005477 135.290065 
C 233.65489 138.849636 233.129749 142.389848 232.431951 145.897915 
C 231.734153 149.405981 230.86454 152.877674 229.826251 156.300452 
L 231.360388 156.765828 
C 232.413909 153.292835 233.296281 149.77021 234.004316 146.210677 
C 234.712351 142.651145 235.245196 139.058995 235.600926 135.447203 
z
" clip-path="url(#p2eb88a26f2)" style="fill: #ff8c8e"/>
   </g>
   <g id="patch_77">
    <path d="M 202.581 148.035696 
C 201.81323 150.566696 200.921657 153.058476 199.909502 155.502034 
C 198.897347 157.945593 197.76583 160.337984 196.519038 162.670568 
L 196.519038 162.670568 
C 197.76583 160.337984 198.897347 157.945593 199.909502 155.502034 
C 200.921657 153.058476 201.81323 150.566696 202.581 148.035696 
z
" clip-path="url(#p2eb88a26f2)" style="fill: #ff8c8e"/>
   </g>
   <g id="patch_78">
    <path d="M 137.727224 131.245689 
C 137.509016 131.653928 137.270895 132.051209 137.013723 132.436094 
C 136.75655 132.82098 136.480636 133.193007 136.186977 133.550832 
L 136.186977 133.550832 
C 136.480636 133.193007 136.75655 132.82098 137.013723 132.436094 
C 137.270895 132.051209 137.509016 131.653928 137.727224 131.245689 
z
" clip-path="url(#p2eb88a26f2)" style="fill: #ff8c8e"/>
   </g>
   <g id="patch_79">
    <path d="M 138.643917 135.567191 
C 138.284259 136.005436 137.903302 136.425758 137.50242 136.826639 
C 137.101539 137.22752 136.681217 137.608478 136.242972 137.968136 
L 136.242972 137.968136 
C 136.681217 137.608478 137.101539 137.22752 137.50242 136.826639 
C 137.903302 136.425758 138.284259 136.005436 138.643917 135.567191 
z
" clip-path="url(#p2eb88a26f2)" style="fill: #ff8c8e"/>
   </g>
   <g id="patch_80">
    <path d="M 125.254844 124.579063 
C 125.254844 124.579063 125.254844 124.579063 125.254844 124.579063 
C 125.254844 124.579063 125.254844 124.579063 125.254844 124.579063 
L 125.254844 124.579063 
C 125.254844 124.579063 125.254844 124.579063 125.254844 124.579063 
C 125.254844 124.579063 125.254844 124.579063 125.254844 124.579063 
z
" clip-path="url(#p2eb88a26f2)" style="fill: #ff8c8e"/>
   </g>
   <g id="patch_81">
    <path d="M 131.517049 136.294824 
C 131.133574 136.499795 130.740268 136.685815 130.338549 136.852213 
C 129.93683 137.01861 129.527184 137.165184 129.11109 137.291404 
L 129.11109 137.291404 
C 129.527184 137.165184 129.93683 137.01861 130.338549 136.852213 
C 130.740268 136.685815 131.133574 136.499795 131.517049 136.294824 
z
" clip-path="url(#p2eb88a26f2)" style="fill: #ff8c8e"/>
   </g>
   <g id="patch_82">
    <path d="M 129.11109 137.291404 
C 128.694997 137.417625 128.272956 137.523341 127.846494 137.608169 
C 127.420032 137.692998 126.989662 137.756837 126.556939 137.799457 
L 126.556939 137.799457 
C 126.989662 137.756837 127.420032 137.692998 127.846494 137.608169 
C 128.272956 137.523341 128.694997 137.417625 129.11109 137.291404 
z
" clip-path="url(#p2eb88a26f2)" style="fill: #ff8c8e"/>
   </g>
   <g id="patch_83">
    <path d="M 125.254844 124.579063 
C 125.254844 124.579063 125.254844 124.579063 125.254844 124.579063 
C 125.254844 124.579063 125.254844 124.579063 125.254844 124.579063 
L 125.254844 124.579063 
C 125.254844 124.579063 125.254844 124.579063 125.254844 124.579063 
C 125.254844 124.579063 125.254844 124.579063 125.254844 124.579063 
z
" clip-path="url(#p2eb88a26f2)" style="fill: #ff8c8e"/>
   </g>
   <g id="patch_84">
    <path d="M 125.254844 124.579063 
C 125.254844 124.579063 125.254844 124.579063 125.254844 124.579063 
C 125.254844 124.579063 125.254844 124.579063 125.254844 124.579063 
L 125.254844 124.579063 
C 125.254844 124.579063 125.254844 124.579063 125.254844 124.579063 
C 125.254844 124.579063 125.254844 124.579063 125.254844 124.579063 
z
" clip-path="url(#p2eb88a26f2)" style="fill: #ff8c8e"/>
   </g>
   <g id="patch_85">
    <path d="M 125.254844 124.579063 
C 125.254844 124.579063 125.254844 124.579063 125.254844 124.579063 
C 125.254844 124.579063 125.254844 124.579063 125.254844 124.579063 
L 125.254844 124.579063 
C 125.254844 124.579063 125.254844 124.579063 125.254844 124.579063 
C 125.254844 124.579063 125.254844 124.579063 125.254844 124.579063 
z
" clip-path="url(#p2eb88a26f2)" style="fill: #ff8c8e"/>
   </g>
   <g id="patch_86">
    <path d="M 125.254844 124.579063 
C 125.254844 124.579063 125.254844 124.579063 125.254844 124.579063 
C 125.254844 124.579063 125.254844 124.579063 125.254844 124.579063 
L 125.254844 124.579063 
C 125.254844 124.579063 125.254844 124.579063 125.254844 124.579063 
C 125.254844 124.579063 125.254844 124.579063 125.254844 124.579063 
z
" clip-path="url(#p2eb88a26f2)" style="fill: #ff8c8e"/>
   </g>
   <g id="patch_87">
    <path d="M 125.254844 124.579063 
C 125.254844 124.579063 125.254844 124.579063 125.254844 124.579063 
C 125.254844 124.579063 125.254844 124.579063 125.254844 124.579063 
L 125.254844 124.579063 
C 125.254844 124.579063 125.254844 124.579063 125.254844 124.579063 
C 125.254844 124.579063 125.254844 124.579063 125.254844 124.579063 
z
" clip-path="url(#p2eb88a26f2)" style="fill: #ff8c8e"/>
   </g>
   <g id="patch_88">
    <path d="M 125.254844 124.579063 
C 125.254844 124.579063 125.254844 124.579063 125.254844 124.579063 
C 125.254844 124.579063 125.254844 124.579063 125.254844 124.579063 
L 125.254844 124.579063 
C 125.254844 124.579063 125.254844 124.579063 125.254844 124.579063 
C 125.254844 124.579063 125.254844 124.579063 125.254844 124.579063 
z
" clip-path="url(#p2eb88a26f2)" style="fill: #ff8c8e"/>
   </g>
   <g id="patch_89">
    <path d="M 125.254844 124.579063 
C 125.254844 124.579063 125.254844 124.579063 125.254844 124.579063 
C 125.254844 124.579063 125.254844 124.579063 125.254844 124.579063 
L 125.254844 124.579063 
C 125.254844 124.579063 125.254844 124.579063 125.254844 124.579063 
C 125.254844 124.579063 125.254844 124.579063 125.254844 124.579063 
z
" clip-path="url(#p2eb88a26f2)" style="fill: #ff8c8e"/>
   </g>
   <g id="patch_90">
    <path d="M 125.254844 124.579063 
C 125.254844 124.579063 125.254844 124.579063 125.254844 124.579063 
C 125.254844 124.579063 125.254844 124.579063 125.254844 124.579063 
L 125.254844 124.579063 
C 125.254844 124.579063 125.254844 124.579063 125.254844 124.579063 
C 125.254844 124.579063 125.254844 124.579063 125.254844 124.579063 
z
" clip-path="url(#p2eb88a26f2)" style="fill: #ff8c8e"/>
   </g>
   <g id="patch_91">
    <path d="M 125.254844 124.579063 
C 125.254844 124.579063 125.254844 124.579063 125.254844 124.579063 
C 125.254844 124.579063 125.254844 124.579063 125.254844 124.579063 
L 125.254844 124.579063 
C 125.254844 124.579063 125.254844 124.579063 125.254844 124.579063 
C 125.254844 124.579063 125.254844 124.579063 125.254844 124.579063 
z
" clip-path="url(#p2eb88a26f2)" style="fill: #ff8c8e"/>
   </g>
   <g id="patch_92">
    <path d="M 118.427862 123.906663 
C 118.44987 123.683206 118.482837 123.460964 118.526642 123.24074 
C 118.570447 123.020516 118.625039 122.802575 118.690219 122.587705 
L 118.690219 122.587705 
C 118.625039 122.802575 118.570447 123.020516 118.526642 123.24074 
C 118.482837 123.460964 118.44987 123.683206 118.427862 123.906663 
z
" clip-path="url(#p2eb88a26f2)" style="fill: #ff8c8e"/>
   </g>
   <g id="patch_93">
    <path d="M 91.621149 114.376393 
C 91.955097 113.275512 92.342895 112.19169 92.783141 111.128843 
C 93.223386 110.065995 93.71555 109.025403 94.257853 108.010826 
L 94.257853 108.010826 
C 93.71555 109.025403 93.223386 110.065995 92.783141 111.128843 
C 92.342895 112.19169 91.955097 113.275512 91.621149 114.376393 
z
" clip-path="url(#p2eb88a26f2)" style="fill: #ff8c8e"/>
   </g>
   <g id="patch_94">
    <path d="M 110.435447 116.65793 
C 110.694718 116.172869 110.977647 115.70083 111.283214 115.243518 
C 111.58878 114.786205 111.916615 114.344171 112.265534 113.919012 
L 112.265534 113.919012 
C 111.916615 114.344171 111.58878 114.786205 111.283214 115.243518 
C 110.977647 115.70083 110.694718 116.172869 110.435447 116.65793 
z
" clip-path="url(#p2eb88a26f2)" style="fill: #ff8c8e"/>
   </g>
   <g id="patch_95">
    <path d="M 109.681209 111.798111 
C 110.099548 111.288362 110.542663 110.799461 111.008952 110.333171 
C 111.475242 109.866882 111.964144 109.423767 112.473892 109.005428 
L 112.473892 109.005428 
C 111.964144 109.423767 111.475242 109.866882 111.008952 110.333171 
C 110.542663 110.799461 110.099548 111.288362 109.681209 111.798111 
z
" clip-path="url(#p2eb88a26f2)" style="fill: #ff8c8e"/>
   </g>
   <g id="patch_96">
    <path d="M 111.492777 107.809936 
C 112.041656 107.359483 112.61232 106.93625 113.202707 106.541766 
C 113.793095 106.147281 114.402495 105.782021 115.028706 105.447304 
L 115.028706 105.447304 
C 114.402495 105.782021 113.793095 106.147281 113.202707 106.541766 
C 112.61232 106.93625 112.041656 107.359483 111.492777 107.809936 
z
" clip-path="url(#p2eb88a26f2)" style="fill: #ff8c8e"/>
   </g>
   <g id="patch_97">
    <path d="M 113.209252 102.043345 
C 113.94688 101.649075 114.70342 101.291258 115.476141 100.971186 
C 116.248862 100.651115 117.036832 100.369175 117.837205 100.126384 
L 117.837205 100.126384 
C 117.036832 100.369175 116.248862 100.651115 115.476141 100.971186 
C 114.70342 101.291258 113.94688 101.649075 113.209252 102.043345 
z
" clip-path="url(#p2eb88a26f2)" style="fill: #ff8c8e"/>
   </g>
   <g id="patch_98">
    <path d="M 114.279773 88.399103 
C 115.463997 88.039872 116.665145 87.739 117.878877 87.497574 
C 119.09261 87.256147 120.317464 87.074457 121.549016 86.95316 
L 121.549016 86.95316 
C 120.317464 87.074457 119.09261 87.256147 117.878877 87.497574 
C 116.665145 87.739 115.463997 88.039872 114.279773 88.399103 
z
" clip-path="url(#p2eb88a26f2)" style="fill: #ff8c8e"/>
   </g>
   <g id="patch_99">
    <path d="M 125.254844 124.579063 
C 125.254844 124.579063 125.254844 124.579063 125.254844 124.579063 
C 125.254844 124.579063 125.254844 124.579063 125.254844 124.579063 
L 125.254844 124.579063 
C 125.254844 124.579063 125.254844 124.579063 125.254844 124.579063 
C 125.254844 124.579063 125.254844 124.579063 125.254844 124.579063 
z
" clip-path="url(#p2eb88a26f2)" style="fill: #828282"/>
   </g>
   <g id="patch_100">
    <path d="M 130.980115 66.449404 
C 132.882786 66.6368 134.775109 66.9175 136.65025 67.290489 
C 138.52539 67.663477 140.381088 68.128305 142.21064 68.683294 
L 142.21064 68.683294 
C 140.381088 68.128305 138.52539 67.663477 136.65025 67.290489 
C 134.775109 66.9175 132.882786 66.6368 130.980115 66.449404 
z
" clip-path="url(#p2eb88a26f2)" style="fill: #828282"/>
   </g>
   <g id="patch_101">
    <path d="M 141.12335 72.267609 
C 142.835582 72.787009 144.521281 73.390162 146.174358 74.074888 
C 147.827435 74.759615 149.445897 75.525091 151.023899 76.368551 
L 151.023899 76.368551 
C 149.445897 75.525091 147.827435 74.759615 146.174358 74.074888 
C 144.521281 73.390162 142.835582 72.787009 141.12335 72.267609 
z
" clip-path="url(#p2eb88a26f2)" style="fill: #828282"/>
   </g>
   <g id="patch_102">
    <path d="M 144.958412 87.71628 
C 146.164986 88.361207 147.339168 89.064985 148.476718 89.825071 
C 149.614268 90.585158 150.713814 91.400637 151.771385 92.268563 
L 151.771385 92.268563 
C 150.713814 91.400637 149.614268 90.585158 148.476718 89.825071 
C 147.339168 89.064985 146.164986 88.361207 144.958412 87.71628 
z
" clip-path="url(#p2eb88a26f2)" style="fill: #828282"/>
   </g>
   <g id="patch_103">
    <path d="M 157.345846 85.476063 
C 158.625745 86.52645 159.853302 87.639043 161.024083 88.809823 
C 162.194864 89.980604 163.307457 91.208161 164.357843 92.48806 
L 164.357843 92.48806 
C 163.307457 91.208161 162.194864 89.980604 161.024083 88.809823 
C 159.853302 87.639043 158.625745 86.52645 157.345846 85.476063 
z
" clip-path="url(#p2eb88a26f2)" style="fill: #828282"/>
   </g>
   <g id="patch_104">
    <path d="M 208.088218 56.599469 
C 210.313292 59.310729 212.403909 62.1296 214.352518 65.0459 
C 216.301127 67.9622 218.10538 70.972413 219.758759 74.065668 
L 219.758759 74.065668 
C 218.10538 70.972413 216.301127 67.9622 214.352518 65.0459 
C 212.403909 62.1296 210.313292 59.310729 208.088218 56.599469 
z
" clip-path="url(#p2eb88a26f2)" style="fill: #828282"/>
   </g>
   <g id="patch_105">
    <path d="M 209.575776 79.508585 
C 211.051 82.268535 212.389829 85.099251 213.587427 87.990509 
C 214.785025 90.881766 215.839948 93.830079 216.748387 96.8248 
L 216.748387 96.8248 
C 215.839948 93.830079 214.785025 90.881766 213.587427 87.990509 
C 212.389829 85.099251 211.051 82.268535 209.575776 79.508585 
z
" clip-path="url(#p2eb88a26f2)" style="fill: #828282"/>
   </g>
   <g id="patch_106">
    <path d="M 205.319052 100.29185 
C 206.114009 102.912471 206.779821 105.570543 207.314084 108.256465 
C 207.848347 110.942386 208.250417 113.65292 208.518841 116.378275 
L 208.518841 116.378275 
C 208.250417 113.65292 207.848347 110.942386 207.314084 108.256465 
C 206.779821 105.570543 206.114009 102.912471 205.319052 100.29185 
z
" clip-path="url(#p2eb88a26f2)" style="fill: #828282"/>
   </g>
   <g id="patch_107">
    <path d="M 176.570868 119.524875 
C 176.736299 121.204525 176.819164 122.891285 176.819164 124.579063 
C 176.819164 126.26684 176.736299 127.9536 176.570868 129.63325 
L 176.570868 129.63325 
C 176.736299 127.9536 176.819164 126.26684 176.819164 124.579063 
C 176.819164 122.891285 176.736299 121.204525 176.570868 119.524875 
z
" clip-path="url(#p2eb88a26f2)" style="fill: #828282"/>
   </g>
   <g id="patch_108">
    <path d="M 235.600926 135.447203 
C 235.245196 139.058995 234.712351 142.651145 234.004316 146.210677 
C 233.296281 149.77021 232.413909 153.292835 231.360388 156.765828 
L 231.360388 156.765828 
C 232.413909 153.292835 233.296281 149.77021 234.004316 146.210677 
C 234.712351 142.651145 235.245196 139.058995 235.600926 135.447203 
z
" clip-path="url(#p2eb88a26f2)" style="fill: #828282"/>
   </g>
   <g id="patch_109">
    <path d="M 202.581 148.035696 
C 201.81323 150.566696 200.921657 153.058476 199.909502 155.502034 
C 198.897347 157.945593 197.76583 160.337984 196.519038 162.670568 
L 196.519038 162.670568 
C 197.76583 160.337984 198.897347 157.945593 199.909502 155.502034 
C 200.921657 153.058476 201.81323 150.566696 202.581 148.035696 
z
" clip-path="url(#p2eb88a26f2)" style="fill: #828282"/>
   </g>
   <g id="patch_110">
    <path d="M 137.727224 131.245689 
C 137.509016 131.653928 137.270895 132.051209 137.013723 132.436094 
C 136.75655 132.82098 136.480636 133.193007 136.186977 133.550832 
L 136.186977 133.550832 
C 136.480636 133.193007 136.75655 132.82098 137.013723 132.436094 
C 137.270895 132.051209 137.509016 131.653928 137.727224 131.245689 
z
" clip-path="url(#p2eb88a26f2)" style="fill: #828282"/>
   </g>
   <g id="patch_111">
    <path d="M 138.643917 135.567191 
C 138.284259 136.005436 137.903302 136.425758 137.50242 136.826639 
C 137.101539 137.22752 136.681217 137.608478 136.242972 137.968136 
L 136.242972 137.968136 
C 136.681217 137.608478 137.101539 137.22752 137.50242 136.826639 
C 137.903302 136.425758 138.284259 136.005436 138.643917 135.567191 
z
" clip-path="url(#p2eb88a26f2)" style="fill: #828282"/>
   </g>
   <g id="patch_112">
    <path d="M 125.254844 124.579063 
C 125.254844 124.579063 125.254844 124.579063 125.254844 124.579063 
C 125.254844 124.579063 125.254844 124.579063 125.254844 124.579063 
L 125.254844 124.579063 
C 125.254844 124.579063 125.254844 124.579063 125.254844 124.579063 
C 125.254844 124.579063 125.254844 124.579063 125.254844 124.579063 
z
" clip-path="url(#p2eb88a26f2)" style="fill: #828282"/>
   </g>
   <g id="patch_113">
    <path d="M 131.517049 136.294824 
C 131.133574 136.499795 130.740268 136.685815 130.338549 136.852213 
C 129.93683 137.01861 129.527184 137.165184 129.11109 137.291404 
L 129.11109 137.291404 
C 129.527184 137.165184 129.93683 137.01861 130.338549 136.852213 
C 130.740268 136.685815 131.133574 136.499795 131.517049 136.294824 
z
" clip-path="url(#p2eb88a26f2)" style="fill: #828282"/>
   </g>
   <g id="patch_114">
    <path d="M 129.11109 137.291404 
C 128.694997 137.417625 128.272956 137.523341 127.846494 137.608169 
C 127.420032 137.692998 126.989662 137.756837 126.556939 137.799457 
L 126.556939 137.799457 
C 126.989662 137.756837 127.420032 137.692998 127.846494 137.608169 
C 128.272956 137.523341 128.694997 137.417625 129.11109 137.291404 
z
" clip-path="url(#p2eb88a26f2)" style="fill: #828282"/>
   </g>
   <g id="patch_115">
    <path d="M 125.254844 124.579063 
C 125.254844 124.579063 125.254844 124.579063 125.254844 124.579063 
C 125.254844 124.579063 125.254844 124.579063 125.254844 124.579063 
L 125.254844 124.579063 
C 125.254844 124.579063 125.254844 124.579063 125.254844 124.579063 
C 125.254844 124.579063 125.254844 124.579063 125.254844 124.579063 
z
" clip-path="url(#p2eb88a26f2)" style="fill: #828282"/>
   </g>
   <g id="patch_116">
    <path d="M 125.254844 124.579063 
C 125.254844 124.579063 125.254844 124.579063 125.254844 124.579063 
C 125.254844 124.579063 125.254844 124.579063 125.254844 124.579063 
L 125.254844 124.579063 
C 125.254844 124.579063 125.254844 124.579063 125.254844 124.579063 
C 125.254844 124.579063 125.254844 124.579063 125.254844 124.579063 
z
" clip-path="url(#p2eb88a26f2)" style="fill: #828282"/>
   </g>
   <g id="patch_117">
    <path d="M 125.254844 124.579063 
C 125.254844 124.579063 125.254844 124.579063 125.254844 124.579063 
C 125.254844 124.579063 125.254844 124.579063 125.254844 124.579063 
L 125.254844 124.579063 
C 125.254844 124.579063 125.254844 124.579063 125.254844 124.579063 
C 125.254844 124.579063 125.254844 124.579063 125.254844 124.579063 
z
" clip-path="url(#p2eb88a26f2)" style="fill: #828282"/>
   </g>
   <g id="patch_118">
    <path d="M 125.254844 124.579063 
C 125.254844 124.579063 125.254844 124.579063 125.254844 124.579063 
C 125.254844 124.579063 125.254844 124.579063 125.254844 124.579063 
L 125.254844 124.579063 
C 125.254844 124.579063 125.254844 124.579063 125.254844 124.579063 
C 125.254844 124.579063 125.254844 124.579063 125.254844 124.579063 
z
" clip-path="url(#p2eb88a26f2)" style="fill: #828282"/>
   </g>
   <g id="patch_119">
    <path d="M 125.254844 124.579063 
C 125.254844 124.579063 125.254844 124.579063 125.254844 124.579063 
C 125.254844 124.579063 125.254844 124.579063 125.254844 124.579063 
L 125.254844 124.579063 
C 125.254844 124.579063 125.254844 124.579063 125.254844 124.579063 
C 125.254844 124.579063 125.254844 124.579063 125.254844 124.579063 
z
" clip-path="url(#p2eb88a26f2)" style="fill: #828282"/>
   </g>
   <g id="patch_120">
    <path d="M 125.254844 124.579063 
C 125.254844 124.579063 125.254844 124.579063 125.254844 124.579063 
C 125.254844 124.579063 125.254844 124.579063 125.254844 124.579063 
L 125.254844 124.579063 
C 125.254844 124.579063 125.254844 124.579063 125.254844 124.579063 
C 125.254844 124.579063 125.254844 124.579063 125.254844 124.579063 
z
" clip-path="url(#p2eb88a26f2)" style="fill: #828282"/>
   </g>
   <g id="patch_121">
    <path d="M 125.254844 124.579063 
C 125.254844 124.579063 125.254844 124.579063 125.254844 124.579063 
C 125.254844 124.579063 125.254844 124.579063 125.254844 124.579063 
L 125.254844 124.579063 
C 125.254844 124.579063 125.254844 124.579063 125.254844 124.579063 
C 125.254844 124.579063 125.254844 124.579063 125.254844 124.579063 
z
" clip-path="url(#p2eb88a26f2)" style="fill: #828282"/>
   </g>
   <g id="patch_122">
    <path d="M 125.254844 124.579063 
C 125.254844 124.579063 125.254844 124.579063 125.254844 124.579063 
C 125.254844 124.579063 125.254844 124.579063 125.254844 124.579063 
L 125.254844 124.579063 
C 125.254844 124.579063 125.254844 124.579063 125.254844 124.579063 
C 125.254844 124.579063 125.254844 124.579063 125.254844 124.579063 
z
" clip-path="url(#p2eb88a26f2)" style="fill: #828282"/>
   </g>
   <g id="patch_123">
    <path d="M 125.254844 124.579063 
C 125.254844 124.579063 125.254844 124.579063 125.254844 124.579063 
C 125.254844 124.579063 125.254844 124.579063 125.254844 124.579063 
L 125.254844 124.579063 
C 125.254844 124.579063 125.254844 124.579063 125.254844 124.579063 
C 125.254844 124.579063 125.254844 124.579063 125.254844 124.579063 
z
" clip-path="url(#p2eb88a26f2)" style="fill: #828282"/>
   </g>
   <g id="patch_124">
    <path d="M 118.427862 123.906663 
C 118.44987 123.683206 118.482837 123.460964 118.526642 123.24074 
C 118.570447 123.020516 118.625039 122.802575 118.690219 122.587705 
L 118.690219 122.587705 
C 118.625039 122.802575 118.570447 123.020516 118.526642 123.24074 
C 118.482837 123.460964 118.44987 123.683206 118.427862 123.906663 
z
" clip-path="url(#p2eb88a26f2)" style="fill: #828282"/>
   </g>
   <g id="patch_125">
    <path d="M 91.621149 114.376393 
C 91.955097 113.275512 92.342895 112.19169 92.783141 111.128843 
C 93.223386 110.065995 93.71555 109.025403 94.257853 108.010826 
L 94.257853 108.010826 
C 93.71555 109.025403 93.223386 110.065995 92.783141 111.128843 
C 92.342895 112.19169 91.955097 113.275512 91.621149 114.376393 
z
" clip-path="url(#p2eb88a26f2)" style="fill: #828282"/>
   </g>
   <g id="patch_126">
    <path d="M 110.435447 116.65793 
C 110.694718 116.172869 110.977647 115.70083 111.283214 115.243518 
C 111.58878 114.786205 111.916615 114.344171 112.265534 113.919012 
L 112.265534 113.919012 
C 111.916615 114.344171 111.58878 114.786205 111.283214 115.243518 
C 110.977647 115.70083 110.694718 116.172869 110.435447 116.65793 
z
" clip-path="url(#p2eb88a26f2)" style="fill: #828282"/>
   </g>
   <g id="patch_127">
    <path d="M 109.681209 111.798111 
C 110.099548 111.288362 110.542663 110.799461 111.008952 110.333171 
C 111.475242 109.866882 111.964144 109.423767 112.473892 109.005428 
L 112.473892 109.005428 
C 111.964144 109.423767 111.475242 109.866882 111.008952 110.333171 
C 110.542663 110.799461 110.099548 111.288362 109.681209 111.798111 
z
" clip-path="url(#p2eb88a26f2)" style="fill: #828282"/>
   </g>
   <g id="patch_128">
    <path d="M 111.492777 107.809936 
C 112.041656 107.359483 112.61232 106.93625 113.202707 106.541766 
C 113.793095 106.147281 114.402495 105.782021 115.028706 105.447304 
L 115.028706 105.447304 
C 114.402495 105.782021 113.793095 106.147281 113.202707 106.541766 
C 112.61232 106.93625 112.041656 107.359483 111.492777 107.809936 
z
" clip-path="url(#p2eb88a26f2)" style="fill: #828282"/>
   </g>
   <g id="patch_129">
    <path d="M 113.209252 102.043345 
C 113.94688 101.649075 114.70342 101.291258 115.476141 100.971186 
C 116.248862 100.651115 117.036832 100.369175 117.837205 100.126384 
L 117.837205 100.126384 
C 117.036832 100.369175 116.248862 100.651115 115.476141 100.971186 
C 114.70342 101.291258 113.94688 101.649075 113.209252 102.043345 
z
" clip-path="url(#p2eb88a26f2)" style="fill: #828282"/>
   </g>
   <g id="patch_130">
    <path d="M 114.279773 88.399103 
C 115.463997 88.039872 116.665145 87.739 117.878877 87.497574 
C 119.09261 87.256147 120.317464 87.074457 121.549016 86.95316 
L 121.549016 86.95316 
C 120.317464 87.074457 119.09261 87.256147 117.878877 87.497574 
C 116.665145 87.739 115.463997 88.039872 114.279773 88.399103 
z
" clip-path="url(#p2eb88a26f2)" style="fill: #828282"/>
   </g>
   <g id="patch_131">
    <path d="M 125.254844 124.579063 
C 125.254844 124.579063 125.254844 124.579063 125.254844 124.579063 
C 125.254844 124.579063 125.254844 124.579063 125.254844 124.579063 
L 125.254844 124.579063 
C 125.254844 124.579063 125.254844 124.579063 125.254844 124.579063 
C 125.254844 124.579063 125.254844 124.579063 125.254844 124.579063 
L 125.254844 124.579063 
z
" clip-path="url(#p2eb88a26f2)" style="fill: none; stroke: #292929; stroke-width: 0.5; stroke-linejoin: miter"/>
   </g>
   <g id="patch_132">
    <path d="M 125.254844 124.579063 
C 125.254844 124.579063 125.254844 124.579063 125.254844 124.579063 
C 125.254844 124.579063 125.254844 124.579063 125.254844 124.579063 
L 142.21064 68.683294 
C 140.381088 68.128305 138.52539 67.663477 136.65025 67.290489 
C 134.775109 66.9175 132.882786 66.6368 130.980115 66.449404 
L 125.254844 124.579063 
z
" clip-path="url(#p2eb88a26f2)" style="fill: none; stroke: #292929; stroke-width: 0.5; stroke-linejoin: miter"/>
   </g>
   <g id="patch_133">
    <path d="M 125.254844 124.579063 
C 125.254844 124.579063 125.254844 124.579063 125.254844 124.579063 
C 125.254844 124.579063 125.254844 124.579063 125.254844 124.579063 
L 151.023899 76.368551 
C 149.445897 75.525091 147.827435 74.759615 146.174358 74.074888 
C 144.521281 73.390162 142.835582 72.787009 141.12335 72.267609 
L 125.254844 124.579063 
z
" clip-path="url(#p2eb88a26f2)" style="fill: none; stroke: #292929; stroke-width: 0.5; stroke-linejoin: miter"/>
   </g>
   <g id="patch_134">
    <path d="M 125.254844 124.579063 
C 125.254844 124.579063 125.254844 124.579063 125.254844 124.579063 
C 125.254844 124.579063 125.254844 124.579063 125.254844 124.579063 
L 151.771385 92.268563 
C 150.713814 91.400637 149.614268 90.585158 148.476718 89.825071 
C 147.339168 89.064985 146.164986 88.361207 144.958412 87.71628 
L 125.254844 124.579063 
z
" clip-path="url(#p2eb88a26f2)" style="fill: none; stroke: #292929; stroke-width: 0.5; stroke-linejoin: miter"/>
   </g>
   <g id="patch_135">
    <path d="M 125.254844 124.579063 
C 125.254844 124.579063 125.254844 124.579063 125.254844 124.579063 
C 125.254844 124.579063 125.254844 124.579063 125.254844 124.579063 
L 164.357843 92.48806 
C 163.307457 91.208161 162.194864 89.980604 161.024083 88.809823 
C 159.853302 87.639043 158.625745 86.52645 157.345846 85.476063 
L 125.254844 124.579063 
z
" clip-path="url(#p2eb88a26f2)" style="fill: none; stroke: #292929; stroke-width: 0.5; stroke-linejoin: miter"/>
   </g>
   <g id="patch_136">
    <path d="M 125.254844 124.579063 
C 125.254844 124.579063 125.254844 124.579063 125.254844 124.579063 
C 125.254844 124.579063 125.254844 124.579063 125.254844 124.579063 
L 219.758759 74.065668 
C 218.10538 70.972413 216.301127 67.9622 214.352518 65.0459 
C 212.403909 62.1296 210.313292 59.310729 208.088218 56.599469 
L 125.254844 124.579063 
z
" clip-path="url(#p2eb88a26f2)" style="fill: none; stroke: #292929; stroke-width: 0.5; stroke-linejoin: miter"/>
   </g>
   <g id="patch_137">
    <path d="M 125.254844 124.579063 
C 125.254844 124.579063 125.254844 124.579063 125.254844 124.579063 
C 125.254844 124.579063 125.254844 124.579063 125.254844 124.579063 
L 216.748387 96.8248 
C 215.839948 93.830079 214.785025 90.881766 213.587427 87.990509 
C 212.389829 85.099251 211.051 82.268535 209.575776 79.508585 
L 125.254844 124.579063 
z
" clip-path="url(#p2eb88a26f2)" style="fill: none; stroke: #292929; stroke-width: 0.5; stroke-linejoin: miter"/>
   </g>
   <g id="patch_138">
    <path d="M 125.254844 124.579063 
C 125.254844 124.579063 125.254844 124.579063 125.254844 124.579063 
C 125.254844 124.579063 125.254844 124.579063 125.254844 124.579063 
L 208.518841 116.378275 
C 208.250417 113.65292 207.848347 110.942386 207.314084 108.256465 
C 206.779821 105.570543 206.114009 102.912471 205.319052 100.29185 
L 125.254844 124.579063 
z
" clip-path="url(#p2eb88a26f2)" style="fill: none; stroke: #292929; stroke-width: 0.5; stroke-linejoin: miter"/>
   </g>
   <g id="patch_139">
    <path d="M 125.254844 124.579063 
C 125.254844 124.579063 125.254844 124.579063 125.254844 124.579063 
C 125.254844 124.579063 125.254844 124.579063 125.254844 124.579063 
L 176.570868 129.63325 
C 176.736299 127.9536 176.819164 126.26684 176.819164 124.579063 
C 176.819164 122.891285 176.736299 121.204525 176.570868 119.524875 
L 125.254844 124.579063 
z
" clip-path="url(#p2eb88a26f2)" style="fill: none; stroke: #292929; stroke-width: 0.5; stroke-linejoin: miter"/>
   </g>
   <g id="patch_140">
    <path d="M 125.254844 124.579063 
C 125.254844 124.579063 125.254844 124.579063 125.254844 124.579063 
C 125.254844 124.579063 125.254844 124.579063 125.254844 124.579063 
L 231.360388 156.765828 
C 232.413909 153.292835 233.296281 149.77021 234.004316 146.210677 
C 234.712351 142.651145 235.245196 139.058995 235.600926 135.447203 
L 125.254844 124.579063 
z
" clip-path="url(#p2eb88a26f2)" style="fill: none; stroke: #292929; stroke-width: 0.5; stroke-linejoin: miter"/>
   </g>
   <g id="patch_141">
    <path d="M 125.254844 124.579063 
C 125.254844 124.579063 125.254844 124.579063 125.254844 124.579063 
C 125.254844 124.579063 125.254844 124.579063 125.254844 124.579063 
L 196.519038 162.670568 
C 197.76583 160.337984 198.897347 157.945593 199.909502 155.502034 
C 200.921657 153.058476 201.81323 150.566696 202.581 148.035696 
L 125.254844 124.579063 
z
" clip-path="url(#p2eb88a26f2)" style="fill: none; stroke: #292929; stroke-width: 0.5; stroke-linejoin: miter"/>
   </g>
   <g id="patch_142">
    <path d="M 125.254844 124.579063 
C 125.254844 124.579063 125.254844 124.579063 125.254844 124.579063 
C 125.254844 124.579063 125.254844 124.579063 125.254844 124.579063 
L 136.186977 133.550832 
C 136.480636 133.193007 136.75655 132.82098 137.013723 132.436094 
C 137.270895 132.051209 137.509016 131.653928 137.727224 131.245689 
L 125.254844 124.579063 
z
" clip-path="url(#p2eb88a26f2)" style="fill: none; stroke: #292929; stroke-width: 0.5; stroke-linejoin: miter"/>
   </g>
   <g id="patch_143">
    <path d="M 125.254844 124.579063 
C 125.254844 124.579063 125.254844 124.579063 125.254844 124.579063 
C 125.254844 124.579063 125.254844 124.579063 125.254844 124.579063 
L 136.242972 137.968136 
C 136.681217 137.608478 137.101539 137.22752 137.50242 136.826639 
C 137.903302 136.425758 138.284259 136.005436 138.643917 135.567191 
L 125.254844 124.579063 
z
" clip-path="url(#p2eb88a26f2)" style="fill: none; stroke: #292929; stroke-width: 0.5; stroke-linejoin: miter"/>
   </g>
   <g id="patch_144">
    <path d="M 125.254844 124.579063 
C 125.254844 124.579063 125.254844 124.579063 125.254844 124.579063 
C 125.254844 124.579063 125.254844 124.579063 125.254844 124.579063 
L 125.254844 124.579063 
C 125.254844 124.579063 125.254844 124.579063 125.254844 124.579063 
C 125.254844 124.579063 125.254844 124.579063 125.254844 124.579063 
L 125.254844 124.579063 
z
" clip-path="url(#p2eb88a26f2)" style="fill: none; stroke: #292929; stroke-width: 0.5; stroke-linejoin: miter"/>
   </g>
   <g id="patch_145">
    <path d="M 125.254844 124.579063 
C 125.254844 124.579063 125.254844 124.579063 125.254844 124.579063 
C 125.254844 124.579063 125.254844 124.579063 125.254844 124.579063 
L 129.11109 137.291404 
C 129.527184 137.165184 129.93683 137.01861 130.338549 136.852213 
C 130.740268 136.685815 131.133574 136.499795 131.517049 136.294824 
L 125.254844 124.579063 
z
" clip-path="url(#p2eb88a26f2)" style="fill: none; stroke: #292929; stroke-width: 0.5; stroke-linejoin: miter"/>
   </g>
   <g id="patch_146">
    <path d="M 125.254844 124.579063 
C 125.254844 124.579063 125.254844 124.579063 125.254844 124.579063 
C 125.254844 124.579063 125.254844 124.579063 125.254844 124.579063 
L 126.556939 137.799457 
C 126.989662 137.756837 127.420032 137.692998 127.846494 137.608169 
C 128.272956 137.523341 128.694997 137.417625 129.11109 137.291404 
L 125.254844 124.579063 
z
" clip-path="url(#p2eb88a26f2)" style="fill: none; stroke: #292929; stroke-width: 0.5; stroke-linejoin: miter"/>
   </g>
   <g id="patch_147">
    <path d="M 125.254844 124.579063 
C 125.254844 124.579063 125.254844 124.579063 125.254844 124.579063 
C 125.254844 124.579063 125.254844 124.579063 125.254844 124.579063 
L 125.254844 124.579063 
C 125.254844 124.579063 125.254844 124.579063 125.254844 124.579063 
C 125.254844 124.579063 125.254844 124.579063 125.254844 124.579063 
L 125.254844 124.579063 
z
" clip-path="url(#p2eb88a26f2)" style="fill: none; stroke: #292929; stroke-width: 0.5; stroke-linejoin: miter"/>
   </g>
   <g id="patch_148">
    <path d="M 125.254844 124.579063 
C 125.254844 124.579063 125.254844 124.579063 125.254844 124.579063 
C 125.254844 124.579063 125.254844 124.579063 125.254844 124.579063 
L 125.254844 124.579063 
C 125.254844 124.579063 125.254844 124.579063 125.254844 124.579063 
C 125.254844 124.579063 125.254844 124.579063 125.254844 124.579063 
L 125.254844 124.579063 
z
" clip-path="url(#p2eb88a26f2)" style="fill: none; stroke: #292929; stroke-width: 0.5; stroke-linejoin: miter"/>
   </g>
   <g id="patch_149">
    <path d="M 125.254844 124.579063 
C 125.254844 124.579063 125.254844 124.579063 125.254844 124.579063 
C 125.254844 124.579063 125.254844 124.579063 125.254844 124.579063 
L 125.254844 124.579063 
C 125.254844 124.579063 125.254844 124.579063 125.254844 124.579063 
C 125.254844 124.579063 125.254844 124.579063 125.254844 124.579063 
L 125.254844 124.579063 
z
" clip-path="url(#p2eb88a26f2)" style="fill: none; stroke: #292929; stroke-width: 0.5; stroke-linejoin: miter"/>
   </g>
   <g id="patch_150">
    <path d="M 125.254844 124.579063 
C 125.254844 124.579063 125.254844 124.579063 125.254844 124.579063 
C 125.254844 124.579063 125.254844 124.579063 125.254844 124.579063 
L 125.254844 124.579063 
C 125.254844 124.579063 125.254844 124.579063 125.254844 124.579063 
C 125.254844 124.579063 125.254844 124.579063 125.254844 124.579063 
L 125.254844 124.579063 
z
" clip-path="url(#p2eb88a26f2)" style="fill: none; stroke: #292929; stroke-width: 0.5; stroke-linejoin: miter"/>
   </g>
   <g id="patch_151">
    <path d="M 125.254844 124.579063 
C 125.254844 124.579063 125.254844 124.579063 125.254844 124.579063 
C 125.254844 124.579063 125.254844 124.579063 125.254844 124.579063 
L 125.254844 124.579063 
C 125.254844 124.579063 125.254844 124.579063 125.254844 124.579063 
C 125.254844 124.579063 125.254844 124.579063 125.254844 124.579063 
L 125.254844 124.579063 
z
" clip-path="url(#p2eb88a26f2)" style="fill: none; stroke: #292929; stroke-width: 0.5; stroke-linejoin: miter"/>
   </g>
   <g id="patch_152">
    <path d="M 125.254844 124.579063 
C 125.254844 124.579063 125.254844 124.579063 125.254844 124.579063 
C 125.254844 124.579063 125.254844 124.579063 125.254844 124.579063 
L 125.254844 124.579063 
C 125.254844 124.579063 125.254844 124.579063 125.254844 124.579063 
C 125.254844 124.579063 125.254844 124.579063 125.254844 124.579063 
L 125.254844 124.579063 
z
" clip-path="url(#p2eb88a26f2)" style="fill: none; stroke: #292929; stroke-width: 0.5; stroke-linejoin: miter"/>
   </g>
   <g id="patch_153">
    <path d="M 125.254844 124.579063 
C 125.254844 124.579063 125.254844 124.579063 125.254844 124.579063 
C 125.254844 124.579063 125.254844 124.579063 125.254844 124.579063 
L 125.254844 124.579063 
C 125.254844 124.579063 125.254844 124.579063 125.254844 124.579063 
C 125.254844 124.579063 125.254844 124.579063 125.254844 124.579063 
L 125.254844 124.579063 
z
" clip-path="url(#p2eb88a26f2)" style="fill: none; stroke: #292929; stroke-width: 0.5; stroke-linejoin: miter"/>
   </g>
   <g id="patch_154">
    <path d="M 125.254844 124.579063 
C 125.254844 124.579063 125.254844 124.579063 125.254844 124.579063 
C 125.254844 124.579063 125.254844 124.579063 125.254844 124.579063 
L 125.254844 124.579063 
C 125.254844 124.579063 125.254844 124.579063 125.254844 124.579063 
C 125.254844 124.579063 125.254844 124.579063 125.254844 124.579063 
L 125.254844 124.579063 
z
" clip-path="url(#p2eb88a26f2)" style="fill: none; stroke: #292929; stroke-width: 0.5; stroke-linejoin: miter"/>
   </g>
   <g id="patch_155">
    <path d="M 125.254844 124.579063 
C 125.254844 124.579063 125.254844 124.579063 125.254844 124.579063 
C 125.254844 124.579063 125.254844 124.579063 125.254844 124.579063 
L 125.254844 124.579063 
C 125.254844 124.579063 125.254844 124.579063 125.254844 124.579063 
C 125.254844 124.579063 125.254844 124.579063 125.254844 124.579063 
L 125.254844 124.579063 
z
" clip-path="url(#p2eb88a26f2)" style="fill: none; stroke: #292929; stroke-width: 0.5; stroke-linejoin: miter"/>
   </g>
   <g id="patch_156">
    <path d="M 125.254844 124.579063 
C 125.254844 124.579063 125.254844 124.579063 125.254844 124.579063 
C 125.254844 124.579063 125.254844 124.579063 125.254844 124.579063 
L 118.690219 122.587705 
C 118.625039 122.802575 118.570447 123.020516 118.526642 123.24074 
C 118.482837 123.460964 118.44987 123.683206 118.427862 123.906663 
L 125.254844 124.579063 
z
" clip-path="url(#p2eb88a26f2)" style="fill: none; stroke: #292929; stroke-width: 0.5; stroke-linejoin: miter"/>
   </g>
   <g id="patch_157">
    <path d="M 125.254844 124.579063 
C 125.254844 124.579063 125.254844 124.579063 125.254844 124.579063 
C 125.254844 124.579063 125.254844 124.579063 125.254844 124.579063 
L 94.257853 108.010826 
C 93.71555 109.025403 93.223386 110.065995 92.783141 111.128843 
C 92.342895 112.19169 91.955097 113.275512 91.621149 114.376393 
L 125.254844 124.579063 
z
" clip-path="url(#p2eb88a26f2)" style="fill: none; stroke: #292929; stroke-width: 0.5; stroke-linejoin: miter"/>
   </g>
   <g id="patch_158">
    <path d="M 125.254844 124.579063 
C 125.254844 124.579063 125.254844 124.579063 125.254844 124.579063 
C 125.254844 124.579063 125.254844 124.579063 125.254844 124.579063 
L 112.265534 113.919012 
C 111.916615 114.344171 111.58878 114.786205 111.283214 115.243518 
C 110.977647 115.70083 110.694718 116.172869 110.435447 116.65793 
L 125.254844 124.579063 
z
" clip-path="url(#p2eb88a26f2)" style="fill: none; stroke: #292929; stroke-width: 0.5; stroke-linejoin: miter"/>
   </g>
   <g id="patch_159">
    <path d="M 125.254844 124.579063 
C 125.254844 124.579063 125.254844 124.579063 125.254844 124.579063 
C 125.254844 124.579063 125.254844 124.579063 125.254844 124.579063 
L 112.473892 109.005428 
C 111.964144 109.423767 111.475242 109.866882 111.008952 110.333171 
C 110.542663 110.799461 110.099548 111.288362 109.681209 111.798111 
L 125.254844 124.579063 
z
" clip-path="url(#p2eb88a26f2)" style="fill: none; stroke: #292929; stroke-width: 0.5; stroke-linejoin: miter"/>
   </g>
   <g id="patch_160">
    <path d="M 125.254844 124.579063 
C 125.254844 124.579063 125.254844 124.579063 125.254844 124.579063 
C 125.254844 124.579063 125.254844 124.579063 125.254844 124.579063 
L 115.028706 105.447304 
C 114.402495 105.782021 113.793095 106.147281 113.202707 106.541766 
C 112.61232 106.93625 112.041656 107.359483 111.492777 107.809936 
L 125.254844 124.579063 
z
" clip-path="url(#p2eb88a26f2)" style="fill: none; stroke: #292929; stroke-width: 0.5; stroke-linejoin: miter"/>
   </g>
   <g id="patch_161">
    <path d="M 125.254844 124.579063 
C 125.254844 124.579063 125.254844 124.579063 125.254844 124.579063 
C 125.254844 124.579063 125.254844 124.579063 125.254844 124.579063 
L 117.837205 100.126384 
C 117.036832 100.369175 116.248862 100.651115 115.476141 100.971186 
C 114.70342 101.291258 113.94688 101.649075 113.209252 102.043345 
L 125.254844 124.579063 
z
" clip-path="url(#p2eb88a26f2)" style="fill: none; stroke: #292929; stroke-width: 0.5; stroke-linejoin: miter"/>
   </g>
   <g id="patch_162">
    <path d="M 125.254844 124.579063 
C 125.254844 124.579063 125.254844 124.579063 125.254844 124.579063 
C 125.254844 124.579063 125.254844 124.579063 125.254844 124.579063 
L 121.549016 86.95316 
C 120.317464 87.074457 119.09261 87.256147 117.878877 87.497574 
C 116.665145 87.739 115.463997 88.039872 114.279773 88.399103 
L 125.254844 124.579063 
z
" clip-path="url(#p2eb88a26f2)" style="fill: none; stroke: #292929; stroke-width: 0.5; stroke-linejoin: miter"/>
   </g>
   <g id="PathCollection_1">
    <defs>
     <path id="m8372b651af" d="M 0.193618 7.414054 
L 0.193618 7.414054 
C 0.054922 7.414054 -0.078235 7.358899 -0.176308 7.260826 
C -0.274381 7.162753 -0.329536 7.029596 -0.329536 6.890901 
L -0.329536 5.365008 
L -1.528416 6.56393 
L -1.528416 6.56393 
C -1.577018 6.612704 -1.634775 6.651408 -1.698366 6.677814 
C -1.761958 6.704221 -1.830141 6.717815 -1.898997 6.717815 
C -1.967853 6.717815 -2.036037 6.704221 -2.099628 6.677814 
C -2.163219 6.651408 -2.220976 6.612704 -2.269578 6.56393 
L -2.269578 6.56393 
C -2.318353 6.515327 -2.357056 6.457571 -2.383463 6.393979 
C -2.409869 6.330388 -2.423463 6.262205 -2.423463 6.193348 
C -2.423463 6.124492 -2.409869 6.056309 -2.383463 5.992718 
C -2.357056 5.929126 -2.318353 5.87137 -2.269578 5.822767 
L -0.329536 3.884106 
L -0.329536 0.820937 
L -2.98067 2.351538 
L -3.691824 5.001416 
L -3.691824 5.001416 
C -3.727584 5.135411 -3.815199 5.249836 -3.93523 5.319305 
C -4.055261 5.388775 -4.198123 5.407741 -4.332122 5.371997 
L -4.332122 5.371997 
C -4.466126 5.336237 -4.580558 5.248616 -4.650029 5.128576 
C -4.719499 5.008535 -4.73846 4.865662 -4.702703 4.731657 
L -4.262647 3.092721 
L -5.585535 3.855668 
L -5.585535 3.855668 
C -5.645013 3.890144 -5.710708 3.912561 -5.778854 3.921634 
C -5.847001 3.930706 -5.916272 3.926258 -5.982698 3.908543 
C -6.049125 3.890828 -6.111412 3.860192 -6.165991 3.818391 
C -6.220571 3.77659 -6.266379 3.724437 -6.300791 3.664922 
L -6.300791 3.664922 
C -6.335212 3.605364 -6.35755 3.539597 -6.366524 3.471396 
C -6.375498 3.403194 -6.370933 3.333888 -6.35309 3.267452 
C -6.335248 3.201017 -6.304476 3.138749 -6.26254 3.08422 
C -6.220605 3.029692 -6.168323 2.983966 -6.108695 2.949666 
L -4.785807 2.186762 
L -6.424743 1.746706 
L -6.424743 1.746706 
C -6.558747 1.710946 -6.673179 1.623325 -6.74265 1.503284 
C -6.81212 1.383244 -6.831081 1.240371 -6.795324 1.106366 
L -6.795324 1.106366 
C -6.777471 1.039969 -6.746703 0.977739 -6.704784 0.923241 
C -6.662864 0.868744 -6.61061 0.823041 -6.551015 0.788752 
C -6.491421 0.754464 -6.425647 0.732257 -6.357465 0.723406 
C -6.289282 0.714554 -6.220019 0.71923 -6.153645 0.737166 
L -3.505232 1.44698 
L -0.852424 -0.08496 
L -3.503767 -1.615666 
L -6.153645 -0.905851 
L -6.153645 -0.905851 
C -6.22011 -0.887939 -6.289462 -0.883321 -6.357716 -0.892262 
C -6.42597 -0.901202 -6.491793 -0.923527 -6.551403 -0.957953 
C -6.611013 -0.992379 -6.663247 -1.038234 -6.705103 -1.092883 
C -6.746958 -1.147533 -6.777619 -1.209911 -6.795324 -1.276432 
L -6.795324 -1.276432 
C -6.831068 -1.410431 -6.812101 -1.553293 -6.742632 -1.673324 
C -6.673162 -1.793355 -6.558738 -1.88097 -6.424743 -1.91673 
L -4.785807 -2.355447 
L -6.108695 -3.119732 
L -6.108695 -3.119732 
C -6.228699 -3.188976 -6.316415 -3.303132 -6.352417 -3.436921 
C -6.388419 -3.57071 -6.369839 -3.713469 -6.300791 -3.833586 
L -6.300791 -3.833586 
C -6.266491 -3.893214 -6.220765 -3.945496 -6.166237 -3.987431 
C -6.111708 -4.029367 -6.04944 -4.060139 -5.983005 -4.077981 
C -5.91657 -4.095823 -5.847263 -4.100389 -5.779062 -4.091415 
C -5.71086 -4.082441 -5.645094 -4.060102 -5.585535 -4.025682 
L -4.262647 -3.261396 
L -4.702703 -4.900332 
L -4.702703 -4.900332 
C -4.73846 -5.034337 -4.719499 -5.17721 -4.650029 -5.29725 
C -4.580558 -5.417291 -4.466126 -5.504912 -4.332122 -5.540672 
L -4.332122 -5.540672 
C -4.19831 -5.576464 -4.055613 -5.557686 -3.935617 -5.488496 
C -3.81562 -5.419305 -3.727882 -5.305212 -3.691824 -5.171472 
L -2.982009 -2.521594 
L -0.329411 -0.990302 
L -0.329411 -4.051588 
L -2.269453 -5.991589 
L -2.269453 -5.991589 
C -2.318227 -6.040191 -2.356931 -6.097947 -2.383337 -6.161539 
C -2.409744 -6.22513 -2.423338 -6.293314 -2.423338 -6.36217 
C -2.423338 -6.431026 -2.409744 -6.499209 -2.383337 -6.5628 
C -2.356931 -6.626392 -2.318227 -6.684149 -2.269453 -6.732751 
L -2.269453 -6.732751 
C -2.22085 -6.781526 -2.163094 -6.820229 -2.099502 -6.846635 
C -2.035911 -6.873042 -1.967728 -6.886636 -1.898871 -6.886636 
C -1.830015 -6.886636 -1.761832 -6.873042 -1.698241 -6.846635 
C -1.634649 -6.820229 -1.576893 -6.781526 -1.52829 -6.732751 
L -0.329411 -5.533829 
L -0.329411 -7.059722 
L -0.329411 -7.059722 
C -0.329411 -7.198418 -0.274255 -7.331575 -0.176182 -7.429647 
C -0.07811 -7.52772 0.055047 -7.582875 0.193743 -7.582875 
L 0.193743 -7.582875 
C 0.332439 -7.582875 0.465596 -7.52772 0.563669 -7.429647 
C 0.661741 -7.331575 0.716897 -7.198418 0.716897 -7.059722 
L 0.716897 -5.533829 
L 1.915777 -6.732751 
L 1.915777 -6.732751 
C 1.964379 -6.781526 2.022136 -6.820229 2.085727 -6.846635 
C 2.149318 -6.873042 2.217502 -6.886636 2.286358 -6.886636 
C 2.355214 -6.886636 2.423397 -6.873042 2.486989 -6.846635 
C 2.55058 -6.820229 2.608337 -6.781526 2.656939 -6.732751 
L 2.656939 -6.732751 
C 2.705714 -6.684149 2.744417 -6.626392 2.770823 -6.5628 
C 2.79723 -6.499209 2.810824 -6.431026 2.810824 -6.36217 
C 2.810824 -6.293314 2.79723 -6.22513 2.770823 -6.161539 
C 2.744417 -6.097947 2.705714 -6.040191 2.656939 -5.991589 
L 0.716897 -4.051588 
L 0.716897 -0.991139 
L 3.369495 -2.522954 
L 4.07931 -5.171367 
L 4.07931 -5.171367 
C 4.115368 -5.305107 4.203106 -5.4192 4.323103 -5.488391 
C 4.4431 -5.557582 4.585797 -5.576359 4.719608 -5.540567 
L 4.719608 -5.540567 
C 4.853612 -5.504807 4.968045 -5.417186 5.037515 -5.297146 
C 5.106986 -5.177105 5.125946 -5.034232 5.090189 -4.900227 
L 4.650133 -3.262673 
L 5.973022 -4.025577 
L 5.973022 -4.025577 
C 6.03258 -4.059998 6.098346 -4.082336 6.166548 -4.09131 
C 6.234749 -4.100284 6.304056 -4.095719 6.370491 -4.077876 
C 6.436926 -4.060034 6.499194 -4.029262 6.553723 -3.987327 
C 6.608252 -3.945391 6.653978 -3.893109 6.688277 -3.833481 
L 6.688277 -3.833481 
C 6.757325 -3.713365 6.775905 -3.570605 6.739903 -3.436816 
C 6.703901 -3.303027 6.616186 -3.188871 6.496181 -3.119628 
L 5.173293 -2.355342 
L 6.812229 -1.916625 
L 6.812229 -1.916625 
C 6.946224 -1.880865 7.060649 -1.79325 7.130118 -1.67322 
C 7.199588 -1.553189 7.218554 -1.410326 7.18281 -1.276327 
L 7.18281 -1.276327 
C 7.165106 -1.209806 7.134445 -1.147429 7.092589 -1.092779 
C 7.050733 -1.038129 6.998499 -0.992274 6.938889 -0.957848 
C 6.879279 -0.923422 6.813456 -0.901098 6.745202 -0.892157 
C 6.676949 -0.883217 6.607597 -0.887835 6.541131 -0.905746 
L 3.891253 -1.615561 
L 1.239492 -0.084604 
L 3.892718 1.447085 
L 6.541131 0.73727 
L 6.541131 0.73727 
C 6.674948 0.701466 6.817656 0.720237 6.937662 0.789429 
C 7.057669 0.858621 7.145413 0.972721 7.181471 1.10647 
L 7.181471 1.10647 
C 7.217274 1.240293 7.198497 1.383006 7.129297 1.503014 
C 7.060096 1.623021 6.945986 1.710762 6.812229 1.74681 
L 5.173293 2.186866 
L 6.496181 2.949771 
L 6.496181 2.949771 
C 6.555697 2.984183 6.607849 3.029991 6.649651 3.08457 
C 6.691452 3.13915 6.722088 3.201437 6.739803 3.267863 
C 6.757517 3.33429 6.761966 3.403561 6.752893 3.471707 
C 6.743821 3.539854 6.721404 3.605549 6.686927 3.665026 
L 6.686927 3.665026 
C 6.617458 3.784813 6.503196 3.87225 6.369416 3.907994 
C 6.235636 3.943739 6.092989 3.924946 5.973032 3.855772 
L 4.650144 3.091487 
L 5.08886 4.731783 
L 5.08886 4.731783 
C 5.124664 4.865606 5.105887 5.008319 5.036686 5.128326 
C 4.967486 5.248334 4.853376 5.336074 4.719619 5.372123 
L 4.719619 5.372123 
C 4.585619 5.407867 4.442757 5.3889 4.322726 5.319431 
C 4.202695 5.249961 4.115081 5.135537 4.07932 5.001542 
L 3.368166 2.351664 
L 0.717033 0.821063 
L 0.717033 3.884232 
L 2.657075 5.822893 
L 2.657075 5.822893 
C 2.70585 5.871495 2.744553 5.929252 2.770959 5.992843 
C 2.797366 6.056435 2.81096 6.124618 2.81096 6.193474 
C 2.81096 6.26233 2.797366 6.330514 2.770959 6.394105 
C 2.744553 6.457696 2.70585 6.515453 2.657075 6.564055 
L 2.657075 6.564055 
C 2.608473 6.61283 2.550716 6.651533 2.487125 6.67794 
C 2.423533 6.704346 2.35535 6.71794 2.286494 6.71794 
C 2.217638 6.71794 2.149454 6.704346 2.085863 6.67794 
C 2.022272 6.651533 1.964515 6.61283 1.915913 6.564055 
L 0.717033 5.365133 
L 0.717033 6.891026 
L 0.717033 6.891026 
C 0.717033 7.029722 0.661877 7.162879 0.563805 7.260952 
C 0.465732 7.359024 0.332575 7.41418 0.193879 7.41418 
L 0.193618 7.414054 
z
"/>
    </defs>
    <g clip-path="url(#p2eb88a26f2)">
     <use xlink:href="#m8372b651af" x="206.153876" y="93.081887" style="fill: #9e2096; fill-opacity: 0.7"/>
    </g>
   </g>
   <g id="patch_163">
    <path d="M 125.254844 13.699063 
C 110.694216 13.699063 96.275171 16.567189 82.822905 22.1393 
C 69.370638 27.711411 57.146763 35.879144 46.850844 46.175063 
C 36.554925 56.470982 28.387192 68.694857 22.815081 82.147124 
C 17.24297 95.59939 14.374844 110.018434 14.374844 124.579063 
C 14.374844 139.139691 17.24297 153.558735 22.815081 167.011001 
C 28.387192 180.463268 36.554925 192.687143 46.850844 202.983062 
C 57.146763 213.278981 69.370638 221.446714 82.822905 227.018825 
C 96.275171 232.590936 110.694216 235.459063 125.254844 235.459063 
C 139.815472 235.459063 154.234516 232.590936 167.686783 227.018825 
C 181.139049 221.446714 193.362925 213.278981 203.658844 202.983062 
C 213.954763 192.687143 222.122495 180.463268 227.694606 167.011001 
C 233.266717 153.558735 236.134844 139.139691 236.134844 124.579063 
C 236.134844 110.018434 233.266717 95.59939 227.694606 82.147124 
C 222.122495 68.694857 213.954763 56.470982 203.658844 46.175063 
C 193.362925 35.879144 181.139049 27.711411 167.686783 22.1393 
C 154.234516 16.567189 139.815472 13.699063 125.254844 13.699063 
" style="fill: none; stroke: #000000; stroke-width: 0.8; stroke-linejoin: miter; stroke-linecap: square"/>
   </g>
  </g>
 </g>
 <defs>
  <clipPath id="p2eb88a26f2">
   <path d="M 236.134844 124.579063 
C 236.134844 110.018434 233.266717 95.59939 227.694606 82.147124 
C 222.122495 68.694857 213.954763 56.470982 203.658844 46.175063 
C 193.362925 35.879144 181.139049 27.711411 167.686783 22.1393 
C 154.234516 16.567189 139.815472 13.699063 125.254844 13.699063 
C 110.694216 13.699063 96.275171 16.567189 82.822905 22.1393 
C 69.370638 27.711411 57.146763 35.879144 46.850844 46.175063 
C 36.554925 56.470982 28.387192 68.694857 22.815081 82.147124 
C 17.24297 95.59939 14.374844 110.018434 14.374844 124.579062 
C 14.374844 139.139691 17.24297 153.558735 22.815081 167.011001 
C 28.387192 180.463268 36.554925 192.687143 46.850844 202.983062 
C 57.146763 213.278981 69.370638 221.446714 82.822905 227.018825 
C 96.275171 232.590936 110.694216 235.459063 125.254844 235.459063 
C 139.815472 235.459063 154.234516 232.590936 167.686783 227.018825 
C 181.139049 221.446714 193.362925 213.278981 203.658844 202.983062 
C 213.954763 192.687143 222.122495 180.463268 227.694606 167.011001 
C 233.266717 153.558735 236.134844 139.139691 236.134844 124.579063 
M 125.254844 124.579063 
C 125.254844 124.579063 125.254844 124.579063 125.254844 124.579063 
C 125.254844 124.579063 125.254844 124.579063 125.254844 124.579063 
C 125.254844 124.579063 125.254844 124.579063 125.254844 124.579063 
C 125.254844 124.579063 125.254844 124.579063 125.254844 124.579063 
C 125.254844 124.579063 125.254844 124.579063 125.254844 124.579063 
C 125.254844 124.579063 125.254844 124.579063 125.254844 124.579063 
C 125.254844 124.579063 125.254844 124.579063 125.254844 124.579063 
C 125.254844 124.579063 125.254844 124.579063 125.254844 124.579063 
C 125.254844 124.579063 125.254844 124.579063 125.254844 124.579063 
C 125.254844 124.579063 125.254844 124.579063 125.254844 124.579063 
C 125.254844 124.579063 125.254844 124.579063 125.254844 124.579063 
C 125.254844 124.579063 125.254844 124.579063 125.254844 124.579063 
C 125.254844 124.579063 125.254844 124.579063 125.254844 124.579063 
C 125.254844 124.579063 125.254844 124.579063 125.254844 124.579063 
C 125.254844 124.579063 125.254844 124.579063 125.254844 124.579063 
C 125.254844 124.579063 125.254844 124.579063 125.254844 124.579063 
z
"/>
  </clipPath>
 </defs>
</svg>
