<?xml version="1.0" encoding="utf-8" standalone="no"?>
<!DOCTYPE svg PUBLIC "-//W3C//DTD SVG 1.1//EN"
  "http://www.w3.org/Graphics/SVG/1.1/DTD/svg11.dtd">
<svg xmlns:xlink="http://www.w3.org/1999/xlink" width="248.410469pt" height="249.158125pt" viewBox="0 0 248.410469 249.158125" xmlns="http://www.w3.org/2000/svg" version="1.1">
 <title>Ski Rose for 白馬コルチナ, Hakuba Cortina, 白馬岩岳コルチナ</title>
 <metadata>
  <rdf:RDF xmlns:dc="http://purl.org/dc/elements/1.1/" xmlns:cc="http://creativecommons.org/ns#" xmlns:rdf="http://www.w3.org/1999/02/22-rdf-syntax-ns#">
   <cc:Work>
    <dc:type rdf:resource="http://purl.org/dc/dcmitype/StillImage"/>
    <dc:title>Ski Rose for 白馬コルチナ, Hakuba Cortina, 白馬岩岳コルチナ</dc:title>
    <dc:date>2025-10-18T10:56:00.139405</dc:date>
    <dc:description>A 32-bin stacked histogram of downhill ski run orientations colored by difficulty.</dc:description>
    <dc:format>image/svg+xml</dc:format>
    <dc:source>https://openskimap.org/?obj=8f92803adb9b1d0e7fc61dcdf9a3e6a4ace13768</dc:source>
    <dc:creator>
     <cc:Agent>
      <dc:title>https://github.com/dhimmel/openskistats</dc:title>
     </cc:Agent>
    </dc:creator>
    <dc:rights>
     <cc:Agent>
      <dc:title>https://creativecommons.org/licenses/by/4.0/</dc:title>
     </cc:Agent>
    </dc:rights>
   </cc:Work>
  </rdf:RDF>
 </metadata>
 <defs>
  <style type="text/css">*{stroke-linejoin: round; stroke-linecap: butt}</style>
 </defs>
 <g id="figure_1">
  <g id="patch_1">
   <path d="M 0 249.158125 
L 248.410469 249.158125 
L 248.410469 0 
L 0 0 
z
" style="fill: #ffffff"/>
  </g>
  <g id="axes_1">
   <g id="patch_2">
    <path d="M 236.134844 124.579063 
C 236.134844 110.018434 233.266717 95.59939 227.694606 82.147124 
C 222.122495 68.694857 213.954763 56.470982 203.658844 46.175063 
C 193.362925 35.879144 181.139049 27.711411 167.686783 22.1393 
C 154.234516 16.567189 139.815472 13.699063 125.254844 13.699063 
C 110.694216 13.699063 96.275171 16.567189 82.822905 22.1393 
C 69.370638 27.711411 57.146763 35.879144 46.850844 46.175063 
C 36.554925 56.470982 28.387192 68.694857 22.815081 82.147124 
C 17.24297 95.59939 14.374844 110.018434 14.374844 124.579062 
C 14.374844 139.139691 17.24297 153.558735 22.815081 167.011001 
C 28.387192 180.463268 36.554925 192.687143 46.850844 202.983062 
C 57.146763 213.278981 69.370638 221.446714 82.822905 227.018825 
C 96.275171 232.590936 110.694216 235.459063 125.254844 235.459063 
C 139.815472 235.459063 154.234516 232.590936 167.686783 227.018825 
C 181.139049 221.446714 193.362925 213.278981 203.658844 202.983062 
C 213.954763 192.687143 222.122495 180.463268 227.694606 167.011001 
C 233.266717 153.558735 236.134844 139.139691 236.134844 124.579063 
M 125.254844 124.579063 
C 125.254844 124.579063 125.254844 124.579063 125.254844 124.579063 
C 125.254844 124.579063 125.254844 124.579063 125.254844 124.579063 
C 125.254844 124.579063 125.254844 124.579063 125.254844 124.579063 
C 125.254844 124.579063 125.254844 124.579063 125.254844 124.579063 
C 125.254844 124.579063 125.254844 124.579063 125.254844 124.579063 
C 125.254844 124.579063 125.254844 124.579063 125.254844 124.579063 
C 125.254844 124.579063 125.254844 124.579063 125.254844 124.579063 
C 125.254844 124.579063 125.254844 124.579063 125.254844 124.579063 
C 125.254844 124.579063 125.254844 124.579063 125.254844 124.579063 
C 125.254844 124.579063 125.254844 124.579063 125.254844 124.579063 
C 125.254844 124.579063 125.254844 124.579063 125.254844 124.579063 
C 125.254844 124.579063 125.254844 124.579063 125.254844 124.579063 
C 125.254844 124.579063 125.254844 124.579063 125.254844 124.579063 
C 125.254844 124.579063 125.254844 124.579063 125.254844 124.579063 
C 125.254844 124.579063 125.254844 124.579063 125.254844 124.579063 
C 125.254844 124.579063 125.254844 124.579063 125.254844 124.579063 
z
" style="fill: #ffffff"/>
   </g>
   <g id="PolyCollection_1">
    <defs>
     <path id="mc34e0d9c2b" d="M 235.597147 -135.203818 
L 234.211579 -135.070403 
L 233.017176 -133.060142 
L 231.505986 -131.077661 
L 229.92764 -129.149175 
L 228.540213 -127.283685 
L 226.868152 -125.465828 
L 225.15809 -123.70722 
L 223.659269 -122.002252 
L 221.885373 -120.360082 
L 220.084052 -118.77906 
L 218.50234 -117.240325 
L 216.653691 -115.778355 
L 215.028128 -114.350689 
L 213.383323 -112.976728 
L 211.480449 -111.69256 
L 209.804121 -110.430366 
L 208.114378 -109.221956 
L 206.413094 -108.06723 
L 204.702144 -106.96602 
L 202.983406 -105.918086 
L 201.258756 -104.923114 
L 199.758602 -103.917342 
L 198.025394 -103.023443 
L 196.515595 -102.110634 
L 194.780738 -101.316024 
L 193.26761 -100.494479 
L 191.753817 -99.716115 
L 190.240792 -98.980417 
L 188.729962 -98.286808 
L 187.22275 -97.63465 
L 185.72057 -97.023244 
L 184.224829 -96.451822 
L 182.933781 -95.821405 
L 181.451406 -95.324984 
L 180.549947 -94.556271 
L 179.430249 -93.928093 
L 178.152654 -93.419871 
L 176.702343 -93.051994 
L 175.441633 -92.606551 
L 174.188945 -92.190287 
L 172.945179 -91.802403 
L 171.874089 -91.325878 
L 170.646565 -90.990956 
L 169.430436 -90.681939 
L 168.226508 -90.397857 
L 167.181635 -90.017283 
L 165.999867 -89.779525 
L 164.969994 -89.442066 
L 163.946441 -89.124745 
L 162.800282 -88.949772 
L 161.794913 -88.671237 
L 160.797272 -88.410824 
L 159.807768 -88.167877 
L 158.714743 -88.063989 
L 157.746873 -87.853505 
L 156.78822 -87.658223 
L 155.83908 -87.477417 
L 154.994728 -87.190904 
L 154.061115 -87.037999 
L 153.137731 -86.897503 
L 152.224753 -86.768645 
L 151.322327 -86.65064 
L 150.505115 -86.430064 
L 149.619932 -86.333535 
L 148.745573 -86.245677 
L 147.944972 -86.058868 
L 147.088243 -85.98866 
L 146.297984 -85.822419 
L 145.458901 -85.767429 
L 144.679128 -85.619976 
L 143.857494 -85.577796 
L 143.088181 -85.447376 
L 142.283583 -85.415644 
L 141.524538 -85.300546 
L 140.769133 -85.193746 
L 139.987216 -85.175542 
L 139.24158 -85.081739 
L 138.499389 -84.99529 
L 137.738406 -84.986263 
L 137.005159 -84.910665 
L 136.275027 -84.841564 
L 135.532642 -84.837764 
L 134.810329 -84.777603 
L 134.090677 -84.723193 
L 133.373552 -84.674336 
L 132.658807 -84.630849 
L 131.939668 -84.632128 
L 131.230479 -84.595151 
L 130.523056 -84.563015 
L 129.817221 -84.535594 
L 129.112788 -84.512776 
L 128.408114 -84.512963 
L 127.706482 -84.495137 
L 127.005535 -84.481645 
L 126.305073 -84.472442 
L 125.604892 -84.467499 
L 124.904801 -84.468146 
L 124.2047 -84.475678 
L 123.504407 -84.487463 
L 122.802907 -84.490255 
L 122.10108 -84.506701 
L 121.398322 -84.527552 
L 120.694437 -84.552888 
L 119.989236 -84.582802 
L 119.282534 -84.617403 
L 118.567737 -84.618487 
L 117.856128 -84.659163 
L 117.142374 -84.704998 
L 116.426319 -84.756159 
L 115.694736 -84.758346 
L 114.971763 -84.817338 
L 114.245962 -84.882318 
L 113.51722 -84.953508 
L 112.763609 -84.961928 
L 112.026342 -85.043239 
L 111.285757 -85.131579 
L 110.512056 -85.147686 
L 109.762011 -85.248214 
L 109.008403 -85.356685 
L 108.212648 -85.384696 
L 107.448962 -85.50762 
L 106.681612 -85.639472 
L 105.862451 -85.68394 
L 105.084739 -85.832652 
L 104.248237 -85.889707 
L 103.460127 -86.05703 
L 102.606071 -86.129076 
L 101.741188 -86.208263 
L 100.936082 -86.406252 
L 100.053682 -86.504261 
L 99.160537 -86.61161 
L 98.339191 -86.844709 
L 97.429073 -86.974691 
L 96.508565 -87.116183 
L 95.577844 -87.269961 
L 94.637117 -87.436789 
L 93.68662 -87.617422 
L 92.726624 -87.812598 
L 91.757425 -88.023045 
L 90.77935 -88.249472 
L 89.79275 -88.492574 
L 88.798006 -88.753028 
L 87.795522 -89.031493 
L 86.652713 -89.206727 
L 85.632014 -89.523744 
L 84.604974 -89.860794 
L 83.426483 -90.098423 
L 82.384398 -90.47837 
L 81.183685 -90.762073 
L 79.970733 -91.070583 
L 78.746347 -91.404874 
L 77.677926 -91.880353 
L 76.437223 -92.267384 
L 75.187556 -92.682683 
L 73.929824 -93.12705 
L 72.482852 -93.493984 
L 71.20814 -94.000909 
L 69.92828 -94.53919 
L 68.451182 -95.008948 
L 67.160661 -95.614372 
L 65.668145 -96.157665 
L 64.371405 -96.832881 
L 62.868454 -97.452688 
L 61.360608 -98.113204 
L 59.84928 -98.815126 
L 58.335889 -99.559091 
L 56.82186 -100.345672 
L 55.087721 -101.101472 
L 53.574258 -101.978261 
L 52.064595 -102.899123 
L 50.332115 -103.801151 
L 48.602056 -104.755304 
L 47.108643 -105.81782 
L 45.390973 -106.873669 
L 43.681205 -107.982718 
L 41.981216 -109.145208 
L 40.292882 -110.361306 
L 38.3778 -111.595201 
L 36.717303 -112.922874 
L 35.074276 -114.304285 
L 33.207431 -115.715905 
L 31.604489 -117.20862 
L 29.780766 -118.739618 
L 28.226575 -120.342717 
L 26.455836 -121.991919 
L 24.959993 -123.703803 
L 23.253902 -125.469211 
L 21.586584 -127.293711 
L 20.204284 -129.165669 
L 18.634052 -131.10027 
L 17.135533 -133.088237 
L 15.958812 -135.103073 
L 14.897052 -135.205309 
L 14.897052 -135.205309 
L 14.781645 -133.273492 
L 14.699497 -131.340917 
L 14.650419 -129.408156 
L 14.4242 -127.481265 
L 14.439885 -125.54613 
L 14.487785 -123.612413 
L 14.567446 -121.680611 
L 14.489399 -119.742939 
L 14.610521 -117.811766 
L 14.782648 -115.884712 
L 14.98466 -113.961252 
L 15.216099 -112.041731 
L 15.476589 -110.126481 
L 15.765872 -108.215826 
L 16.083797 -106.310095 
L 16.234026 -104.373248 
L 16.605179 -102.474038 
L 17.006918 -100.581075 
L 17.439986 -98.695005 
L 18.092268 -96.864936 
L 18.569929 -94.992717 
L 19.083281 -93.129613 
L 19.613565 -91.270495 
L 20.184367 -89.422973 
L 20.769998 -87.579038 
L 21.400547 -85.749532 
L 22.227602 -83.995553 
L 22.9038 -82.183872 
L 23.615959 -80.385218 
L 24.366847 -78.601753 
L 25.323805 -76.914402 
L 26.162399 -75.173392 
L 26.912071 -73.385055 
L 27.822289 -71.677501 
L 28.752397 -69.980605 
L 30.427617 -68.721557 
L 32.565111 -67.778721 
L 34.652824 -66.85921 
L 36.75778 -66.004134 
L 38.781403 -65.147513 
L 40.882715 -64.397008 
L 42.898146 -63.638312 
L 44.905453 -62.924807 
L 46.902473 -62.254772 
L 48.887407 -61.626605 
L 50.858708 -61.03876 
L 52.74742 -60.429913 
L 54.620872 -59.854952 
L 56.54793 -59.378636 
L 58.330876 -58.813063 
L 60.165539 -58.343705 
L 61.981445 -57.902813 
L 63.725891 -57.431993 
L 65.513452 -57.053703 
L 67.229507 -56.640122 
L 68.931576 -56.253475 
L 70.619166 -55.892602 
L 72.291834 -55.556324 
L 73.949189 -55.243449 
L 75.547667 -54.892171 
L 77.175535 -54.623234 
L 78.750597 -54.31881 
L 80.31077 -54.030999 
L 81.860823 -53.766457 
L 83.395784 -53.516481 
L 84.920255 -53.287918 
L 86.42961 -53.071877 
L 87.928276 -52.875393 
L 89.411986 -52.689411 
L 90.860835 -52.470523 
L 92.322857 -52.316413 
L 93.751486 -52.126301 
L 95.188435 -51.99233 
L 96.597393 -51.827887 
L 97.997482 -51.675938 
L 99.388877 -51.535827 
L 100.771785 -51.406914 
L 102.146443 -51.288579 
L 103.513117 -51.180225 
L 104.872103 -51.081273 
L 106.223722 -50.991174 
L 107.568323 -50.9094 
L 108.906279 -50.835454 
L 110.23799 -50.768866 
L 111.560028 -50.688447 
L 112.88125 -50.637379 
L 114.197475 -50.592483 
L 115.509182 -50.553414 
L 116.81494 -50.502979 
L 118.119616 -50.476888 
L 119.420562 -50.447481 
L 120.719907 -50.433495 
L 122.017172 -50.424196 
L 123.312743 -50.41323 
L 124.607626 -50.415248 
L 125.902067 -50.414609 
L 127.196816 -50.418135 
L 128.492606 -50.422119 
L 129.789954 -50.430666 
L 131.088733 -50.452476 
L 132.390464 -50.472815 
L 133.693378 -50.515002 
L 135.001241 -50.547824 
L 136.313155 -50.586175 
L 137.629612 -50.630365 
L 138.947177 -50.701844 
L 140.273328 -50.760853 
L 141.605328 -50.826793 
L 142.943596 -50.900106 
L 144.280103 -51.013844 
L 145.630952 -51.10519 
L 146.989127 -51.205352 
L 148.354952 -51.31488 
L 149.728722 -51.434349 
L 151.110707 -51.564357 
L 152.517166 -51.66267 
L 153.917715 -51.814125 
L 155.327149 -51.978096 
L 156.764849 -52.111012 
L 158.194 -52.30068 
L 159.632412 -52.504991 
L 161.105698 -52.673372 
L 162.59029 -52.858338 
L 164.08923 -53.05502 
L 165.570033 -53.322207 
L 167.091318 -53.554823 
L 168.62697 -53.802185 
L 170.17372 -54.070551 
L 171.771732 -54.299711 
L 173.346985 -54.604563 
L 174.975521 -54.873244 
L 176.575144 -55.223658 
L 178.233196 -55.536329 
L 179.906564 -55.872434 
L 181.594853 -56.233166 
L 183.297621 -56.619702 
L 185.014373 -57.033202 
L 186.744565 -57.474807 
L 188.547125 -57.882915 
L 190.304428 -58.384125 
L 192.135267 -58.855854 
L 193.982672 -59.358789 
L 195.842433 -59.897454 
L 197.785333 -60.409507 
L 199.673903 -61.019181 
L 201.645864 -61.607165 
L 203.555364 -62.296017 
L 205.551096 -62.965581 
L 207.636961 -63.619502 
L 209.652931 -64.378492 
L 211.674211 -65.184677 
L 213.779668 -65.98576 
L 215.883866 -66.842007 
L 217.972374 -67.761687 
L 220.028584 -68.753063 
L 221.758828 -69.979735 
L 222.67067 -71.686584 
L 223.590909 -73.388547 
L 224.450477 -75.121944 
L 225.273481 -76.87262 
L 226.10397 -78.619468 
L 226.917509 -80.374878 
L 227.662334 -82.160491 
L 228.329622 -83.976828 
L 229.104008 -85.751451 
L 229.610383 -87.624828 
L 230.252219 -89.447432 
L 230.844637 -91.286729 
L 231.564141 -93.088814 
L 232.076911 -94.954681 
L 232.492141 -96.845612 
L 233.039555 -98.702243 
L 233.428377 -100.597567 
L 233.872851 -102.480479 
L 234.259147 -104.376309 
L 234.52759 -106.293076 
L 234.891997 -108.19368 
L 235.134709 -110.113104 
L 235.411526 -112.028294 
L 235.527744 -113.96099 
L 235.727188 -115.8847 
L 235.887321 -117.81249 
L 236.008932 -119.743435 
L 236.092829 -121.676668 
L 236.040603 -123.61225 
L 236.050754 -125.545964 
L 236.026172 -127.479712 
L 235.967705 -129.41289 
L 235.876187 -131.344954 
L 235.752417 -133.27541 
L 235.597147 -135.203818 
z
" style="stroke: #ffee9c"/>
    </defs>
    <g clip-path="url(#p078caec50e)">
     <use xlink:href="#mc34e0d9c2b" x="0" y="249.158125" style="fill: #ffee9c; stroke: #ffee9c"/>
    </g>
   </g>
   <g id="matplotlib.axis_1">
    <g id="xtick_1">
     <g id="line2d_1">
      <path d="M 125.254844 124.579063 
L 125.254844 13.699063 
" clip-path="url(#p078caec50e)" style="fill: none; stroke: #b0b0b0; stroke-width: 0.8; stroke-linecap: square"/>
     </g>
     <g id="text_1">
      <!-- N -->
      <g transform="translate(121.070469 7.958438) scale(0.1 -0.1)">
       <defs>
        <path id="DejaVuSans-Bold-4e" d="M 588 4666 
L 1931 4666 
L 3628 1466 
L 3628 4666 
L 4769 4666 
L 4769 0 
L 3425 0 
L 1728 3200 
L 1728 0 
L 588 0 
L 588 4666 
z
" transform="scale(0.015625)"/>
       </defs>
       <use xlink:href="#DejaVuSans-Bold-4e"/>
      </g>
     </g>
    </g>
    <g id="xtick_2">
     <g id="line2d_2">
      <path d="M 125.254844 124.579063 
L 203.658844 46.175063 
" clip-path="url(#p078caec50e)" style="fill: none; stroke: #b0b0b0; stroke-width: 0.8; stroke-linecap: square"/>
     </g>
    </g>
    <g id="xtick_3">
     <g id="line2d_3">
      <path d="M 125.254844 124.579063 
L 236.134844 124.579063 
" clip-path="url(#p078caec50e)" style="fill: none; stroke: #b0b0b0; stroke-width: 0.8; stroke-linecap: square"/>
     </g>
     <g id="text_2">
      <!-- E -->
      <g transform="translate(241.219219 127.338438) scale(0.1 -0.1)">
       <defs>
        <path id="DejaVuSans-Bold-45" d="M 588 4666 
L 3834 4666 
L 3834 3756 
L 1791 3756 
L 1791 2888 
L 3713 2888 
L 3713 1978 
L 1791 1978 
L 1791 909 
L 3903 909 
L 3903 0 
L 588 0 
L 588 4666 
z
" transform="scale(0.015625)"/>
       </defs>
       <use xlink:href="#DejaVuSans-Bold-45"/>
      </g>
     </g>
    </g>
    <g id="xtick_4">
     <g id="line2d_4">
      <path d="M 125.254844 124.579063 
L 203.658844 202.983062 
" clip-path="url(#p078caec50e)" style="fill: none; stroke: #b0b0b0; stroke-width: 0.8; stroke-linecap: square"/>
     </g>
    </g>
    <g id="xtick_5">
     <g id="line2d_5">
      <path d="M 125.254844 124.579063 
L 125.254844 235.459063 
" clip-path="url(#p078caec50e)" style="fill: none; stroke: #b0b0b0; stroke-width: 0.8; stroke-linecap: square"/>
     </g>
     <g id="text_3">
      <!-- S -->
      <g transform="translate(121.654062 246.718438) scale(0.1 -0.1)">
       <defs>
        <path id="DejaVuSans-Bold-53" d="M 3834 4519 
L 3834 3531 
Q 3450 3703 3084 3790 
Q 2719 3878 2394 3878 
Q 1963 3878 1756 3759 
Q 1550 3641 1550 3391 
Q 1550 3203 1689 3098 
Q 1828 2994 2194 2919 
L 2706 2816 
Q 3484 2659 3812 2340 
Q 4141 2022 4141 1434 
Q 4141 663 3683 286 
Q 3225 -91 2284 -91 
Q 1841 -91 1394 -6 
Q 947 78 500 244 
L 500 1259 
Q 947 1022 1364 901 
Q 1781 781 2169 781 
Q 2563 781 2772 912 
Q 2981 1044 2981 1288 
Q 2981 1506 2839 1625 
Q 2697 1744 2272 1838 
L 1806 1941 
Q 1106 2091 782 2419 
Q 459 2747 459 3303 
Q 459 4000 909 4375 
Q 1359 4750 2203 4750 
Q 2588 4750 2994 4692 
Q 3400 4634 3834 4519 
z
" transform="scale(0.015625)"/>
       </defs>
       <use xlink:href="#DejaVuSans-Bold-53"/>
      </g>
     </g>
    </g>
    <g id="xtick_6">
     <g id="line2d_6">
      <path d="M 125.254844 124.579063 
L 46.850844 202.983062 
" clip-path="url(#p078caec50e)" style="fill: none; stroke: #b0b0b0; stroke-width: 0.8; stroke-linecap: square"/>
     </g>
    </g>
    <g id="xtick_7">
     <g id="line2d_7">
      <path d="M 125.254844 124.579063 
L 14.374844 124.579063 
" clip-path="url(#p078caec50e)" style="fill: none; stroke: #b0b0b0; stroke-width: 0.8; stroke-linecap: square"/>
     </g>
     <g id="text_4">
      <!-- W -->
      <g transform="translate(0.36 127.338438) scale(0.1 -0.1)">
       <defs>
        <path id="DejaVuSans-Bold-57" d="M 191 4666 
L 1344 4666 
L 2150 1275 
L 2950 4666 
L 4109 4666 
L 4909 1275 
L 5716 4666 
L 6859 4666 
L 5759 0 
L 4372 0 
L 3525 3547 
L 2688 0 
L 1300 0 
L 191 4666 
z
" transform="scale(0.015625)"/>
       </defs>
       <use xlink:href="#DejaVuSans-Bold-57"/>
      </g>
     </g>
    </g>
    <g id="xtick_8">
     <g id="line2d_8">
      <path d="M 125.254844 124.579063 
L 46.850844 46.175063 
" clip-path="url(#p078caec50e)" style="fill: none; stroke: #b0b0b0; stroke-width: 0.8; stroke-linecap: square"/>
     </g>
    </g>
   </g>
   <g id="matplotlib.axis_2"/>
   <g id="patch_3">
    <path d="M 125.254844 124.579063 
C 125.254844 124.579063 125.254844 124.579063 125.254844 124.579063 
C 125.254844 124.579063 125.254844 124.579063 125.254844 124.579063 
L 125.254844 124.579063 
C 125.254844 124.579063 125.254844 124.579063 125.254844 124.579063 
C 125.254844 124.579063 125.254844 124.579063 125.254844 124.579063 
z
" clip-path="url(#p078caec50e)" style="fill: #d9d9d9"/>
   </g>
   <g id="patch_4">
    <path d="M 125.254844 124.579063 
C 125.254844 124.579063 125.254844 124.579063 125.254844 124.579063 
C 125.254844 124.579063 125.254844 124.579063 125.254844 124.579063 
L 125.254844 124.579063 
C 125.254844 124.579063 125.254844 124.579063 125.254844 124.579063 
C 125.254844 124.579063 125.254844 124.579063 125.254844 124.579063 
z
" clip-path="url(#p078caec50e)" style="fill: #d9d9d9"/>
   </g>
   <g id="patch_5">
    <path d="M 125.254844 124.579063 
C 125.254844 124.579063 125.254844 124.579063 125.254844 124.579063 
C 125.254844 124.579063 125.254844 124.579063 125.254844 124.579063 
L 125.254844 124.579063 
C 125.254844 124.579063 125.254844 124.579063 125.254844 124.579063 
C 125.254844 124.579063 125.254844 124.579063 125.254844 124.579063 
z
" clip-path="url(#p078caec50e)" style="fill: #d9d9d9"/>
   </g>
   <g id="patch_6">
    <path d="M 125.254844 124.579063 
C 125.254844 124.579063 125.254844 124.579063 125.254844 124.579063 
C 125.254844 124.579063 125.254844 124.579063 125.254844 124.579063 
L 125.254844 124.579063 
C 125.254844 124.579063 125.254844 124.579063 125.254844 124.579063 
C 125.254844 124.579063 125.254844 124.579063 125.254844 124.579063 
z
" clip-path="url(#p078caec50e)" style="fill: #d9d9d9"/>
   </g>
   <g id="patch_7">
    <path d="M 125.254844 124.579063 
C 125.254844 124.579063 125.254844 124.579063 125.254844 124.579063 
C 125.254844 124.579063 125.254844 124.579063 125.254844 124.579063 
L 125.254844 124.579063 
C 125.254844 124.579063 125.254844 124.579063 125.254844 124.579063 
C 125.254844 124.579063 125.254844 124.579063 125.254844 124.579063 
z
" clip-path="url(#p078caec50e)" style="fill: #d9d9d9"/>
   </g>
   <g id="patch_8">
    <path d="M 125.254844 124.579063 
C 125.254844 124.579063 125.254844 124.579063 125.254844 124.579063 
C 125.254844 124.579063 125.254844 124.579063 125.254844 124.579063 
L 125.254844 124.579063 
C 125.254844 124.579063 125.254844 124.579063 125.254844 124.579063 
C 125.254844 124.579063 125.254844 124.579063 125.254844 124.579063 
z
" clip-path="url(#p078caec50e)" style="fill: #d9d9d9"/>
   </g>
   <g id="patch_9">
    <path d="M 125.254844 124.579063 
C 125.254844 124.579063 125.254844 124.579063 125.254844 124.579063 
C 125.254844 124.579063 125.254844 124.579063 125.254844 124.579063 
L 125.254844 124.579063 
C 125.254844 124.579063 125.254844 124.579063 125.254844 124.579063 
C 125.254844 124.579063 125.254844 124.579063 125.254844 124.579063 
z
" clip-path="url(#p078caec50e)" style="fill: #d9d9d9"/>
   </g>
   <g id="patch_10">
    <path d="M 125.254844 124.579063 
C 125.254844 124.579063 125.254844 124.579063 125.254844 124.579063 
C 125.254844 124.579063 125.254844 124.579063 125.254844 124.579063 
L 125.254844 124.579063 
C 125.254844 124.579063 125.254844 124.579063 125.254844 124.579063 
C 125.254844 124.579063 125.254844 124.579063 125.254844 124.579063 
z
" clip-path="url(#p078caec50e)" style="fill: #d9d9d9"/>
   </g>
   <g id="patch_11">
    <path d="M 125.254844 124.579063 
C 125.254844 124.579063 125.254844 124.579063 125.254844 124.579063 
C 125.254844 124.579063 125.254844 124.579063 125.254844 124.579063 
L 125.254844 124.579063 
C 125.254844 124.579063 125.254844 124.579063 125.254844 124.579063 
C 125.254844 124.579063 125.254844 124.579063 125.254844 124.579063 
z
" clip-path="url(#p078caec50e)" style="fill: #d9d9d9"/>
   </g>
   <g id="patch_12">
    <path d="M 125.254844 124.579063 
C 125.254844 124.579063 125.254844 124.579063 125.254844 124.579063 
C 125.254844 124.579063 125.254844 124.579063 125.254844 124.579063 
L 125.254844 124.579063 
C 125.254844 124.579063 125.254844 124.579063 125.254844 124.579063 
C 125.254844 124.579063 125.254844 124.579063 125.254844 124.579063 
z
" clip-path="url(#p078caec50e)" style="fill: #d9d9d9"/>
   </g>
   <g id="patch_13">
    <path d="M 125.254844 124.579063 
C 125.254844 124.579063 125.254844 124.579063 125.254844 124.579063 
C 125.254844 124.579063 125.254844 124.579063 125.254844 124.579063 
L 125.254844 124.579063 
C 125.254844 124.579063 125.254844 124.579063 125.254844 124.579063 
C 125.254844 124.579063 125.254844 124.579063 125.254844 124.579063 
z
" clip-path="url(#p078caec50e)" style="fill: #d9d9d9"/>
   </g>
   <g id="patch_14">
    <path d="M 125.254844 124.579063 
C 125.254844 124.579063 125.254844 124.579063 125.254844 124.579063 
C 125.254844 124.579063 125.254844 124.579063 125.254844 124.579063 
L 125.254844 124.579063 
C 125.254844 124.579063 125.254844 124.579063 125.254844 124.579063 
C 125.254844 124.579063 125.254844 124.579063 125.254844 124.579063 
z
" clip-path="url(#p078caec50e)" style="fill: #d9d9d9"/>
   </g>
   <g id="patch_15">
    <path d="M 125.254844 124.579063 
C 125.254844 124.579063 125.254844 124.579063 125.254844 124.579063 
C 125.254844 124.579063 125.254844 124.579063 125.254844 124.579063 
L 125.254844 124.579063 
C 125.254844 124.579063 125.254844 124.579063 125.254844 124.579063 
C 125.254844 124.579063 125.254844 124.579063 125.254844 124.579063 
z
" clip-path="url(#p078caec50e)" style="fill: #d9d9d9"/>
   </g>
   <g id="patch_16">
    <path d="M 125.254844 124.579063 
C 125.254844 124.579063 125.254844 124.579063 125.254844 124.579063 
C 125.254844 124.579063 125.254844 124.579063 125.254844 124.579063 
L 125.254844 124.579063 
C 125.254844 124.579063 125.254844 124.579063 125.254844 124.579063 
C 125.254844 124.579063 125.254844 124.579063 125.254844 124.579063 
z
" clip-path="url(#p078caec50e)" style="fill: #d9d9d9"/>
   </g>
   <g id="patch_17">
    <path d="M 125.254844 124.579063 
C 125.254844 124.579063 125.254844 124.579063 125.254844 124.579063 
C 125.254844 124.579063 125.254844 124.579063 125.254844 124.579063 
L 125.254844 124.579063 
C 125.254844 124.579063 125.254844 124.579063 125.254844 124.579063 
C 125.254844 124.579063 125.254844 124.579063 125.254844 124.579063 
z
" clip-path="url(#p078caec50e)" style="fill: #d9d9d9"/>
   </g>
   <g id="patch_18">
    <path d="M 125.254844 124.579063 
C 125.254844 124.579063 125.254844 124.579063 125.254844 124.579063 
C 125.254844 124.579063 125.254844 124.579063 125.254844 124.579063 
L 125.254844 124.579063 
C 125.254844 124.579063 125.254844 124.579063 125.254844 124.579063 
C 125.254844 124.579063 125.254844 124.579063 125.254844 124.579063 
z
" clip-path="url(#p078caec50e)" style="fill: #d9d9d9"/>
   </g>
   <g id="patch_19">
    <path d="M 125.254844 124.579063 
C 125.254844 124.579063 125.254844 124.579063 125.254844 124.579063 
C 125.254844 124.579063 125.254844 124.579063 125.254844 124.579063 
L 125.254844 124.579063 
C 125.254844 124.579063 125.254844 124.579063 125.254844 124.579063 
C 125.254844 124.579063 125.254844 124.579063 125.254844 124.579063 
z
" clip-path="url(#p078caec50e)" style="fill: #d9d9d9"/>
   </g>
   <g id="patch_20">
    <path d="M 125.254844 124.579063 
C 125.254844 124.579063 125.254844 124.579063 125.254844 124.579063 
C 125.254844 124.579063 125.254844 124.579063 125.254844 124.579063 
L 125.254844 124.579063 
C 125.254844 124.579063 125.254844 124.579063 125.254844 124.579063 
C 125.254844 124.579063 125.254844 124.579063 125.254844 124.579063 
z
" clip-path="url(#p078caec50e)" style="fill: #d9d9d9"/>
   </g>
   <g id="patch_21">
    <path d="M 125.254844 124.579063 
C 125.254844 124.579063 125.254844 124.579063 125.254844 124.579063 
C 125.254844 124.579063 125.254844 124.579063 125.254844 124.579063 
L 125.254844 124.579063 
C 125.254844 124.579063 125.254844 124.579063 125.254844 124.579063 
C 125.254844 124.579063 125.254844 124.579063 125.254844 124.579063 
z
" clip-path="url(#p078caec50e)" style="fill: #d9d9d9"/>
   </g>
   <g id="patch_22">
    <path d="M 125.254844 124.579063 
C 125.254844 124.579063 125.254844 124.579063 125.254844 124.579063 
C 125.254844 124.579063 125.254844 124.579063 125.254844 124.579063 
L 125.254844 124.579063 
C 125.254844 124.579063 125.254844 124.579063 125.254844 124.579063 
C 125.254844 124.579063 125.254844 124.579063 125.254844 124.579063 
z
" clip-path="url(#p078caec50e)" style="fill: #d9d9d9"/>
   </g>
   <g id="patch_23">
    <path d="M 125.254844 124.579063 
C 125.254844 124.579063 125.254844 124.579063 125.254844 124.579063 
C 125.254844 124.579063 125.254844 124.579063 125.254844 124.579063 
L 116.540933 131.730384 
C 116.775006 132.015603 117.022942 132.289159 117.283845 132.550061 
C 117.544748 132.810964 117.818303 133.0589 118.103522 133.292973 
z
" clip-path="url(#p078caec50e)" style="fill: #d9d9d9"/>
   </g>
   <g id="patch_24">
    <path d="M 125.254844 124.579063 
C 125.254844 124.579063 125.254844 124.579063 125.254844 124.579063 
C 125.254844 124.579063 125.254844 124.579063 125.254844 124.579063 
L 125.254844 124.579063 
C 125.254844 124.579063 125.254844 124.579063 125.254844 124.579063 
C 125.254844 124.579063 125.254844 124.579063 125.254844 124.579063 
z
" clip-path="url(#p078caec50e)" style="fill: #d9d9d9"/>
   </g>
   <g id="patch_25">
    <path d="M 125.254844 124.579063 
C 125.254844 124.579063 125.254844 124.579063 125.254844 124.579063 
C 125.254844 124.579063 125.254844 124.579063 125.254844 124.579063 
L 125.254844 124.579063 
C 125.254844 124.579063 125.254844 124.579063 125.254844 124.579063 
C 125.254844 124.579063 125.254844 124.579063 125.254844 124.579063 
z
" clip-path="url(#p078caec50e)" style="fill: #d9d9d9"/>
   </g>
   <g id="patch_26">
    <path d="M 125.254844 124.579063 
C 125.254844 124.579063 125.254844 124.579063 125.254844 124.579063 
C 125.254844 124.579063 125.254844 124.579063 125.254844 124.579063 
L 125.254844 124.579063 
C 125.254844 124.579063 125.254844 124.579063 125.254844 124.579063 
C 125.254844 124.579063 125.254844 124.579063 125.254844 124.579063 
z
" clip-path="url(#p078caec50e)" style="fill: #d9d9d9"/>
   </g>
   <g id="patch_27">
    <path d="M 125.254844 124.579063 
C 125.254844 124.579063 125.254844 124.579063 125.254844 124.579063 
C 125.254844 124.579063 125.254844 124.579063 125.254844 124.579063 
L 115.539413 123.622176 
C 115.508092 123.940177 115.492404 124.259523 115.492404 124.579063 
C 115.492404 124.898602 115.508092 125.217948 115.539413 125.535949 
z
" clip-path="url(#p078caec50e)" style="fill: #d9d9d9"/>
   </g>
   <g id="patch_28">
    <path d="M 125.254844 124.579063 
C 125.254844 124.579063 125.254844 124.579063 125.254844 124.579063 
C 125.254844 124.579063 125.254844 124.579063 125.254844 124.579063 
L 125.254844 124.579063 
C 125.254844 124.579063 125.254844 124.579063 125.254844 124.579063 
C 125.254844 124.579063 125.254844 124.579063 125.254844 124.579063 
z
" clip-path="url(#p078caec50e)" style="fill: #d9d9d9"/>
   </g>
   <g id="patch_29">
    <path d="M 125.254844 124.579063 
C 125.254844 124.579063 125.254844 124.579063 125.254844 124.579063 
C 125.254844 124.579063 125.254844 124.579063 125.254844 124.579063 
L 125.254844 124.579063 
C 125.254844 124.579063 125.254844 124.579063 125.254844 124.579063 
C 125.254844 124.579063 125.254844 124.579063 125.254844 124.579063 
z
" clip-path="url(#p078caec50e)" style="fill: #d9d9d9"/>
   </g>
   <g id="patch_30">
    <path d="M 125.254844 124.579063 
C 125.254844 124.579063 125.254844 124.579063 125.254844 124.579063 
C 125.254844 124.579063 125.254844 124.579063 125.254844 124.579063 
L 125.254844 124.579063 
C 125.254844 124.579063 125.254844 124.579063 125.254844 124.579063 
C 125.254844 124.579063 125.254844 124.579063 125.254844 124.579063 
z
" clip-path="url(#p078caec50e)" style="fill: #d9d9d9"/>
   </g>
   <g id="patch_31">
    <path d="M 125.254844 124.579063 
C 125.254844 124.579063 125.254844 124.579063 125.254844 124.579063 
C 125.254844 124.579063 125.254844 124.579063 125.254844 124.579063 
L 125.254844 124.579063 
C 125.254844 124.579063 125.254844 124.579063 125.254844 124.579063 
C 125.254844 124.579063 125.254844 124.579063 125.254844 124.579063 
z
" clip-path="url(#p078caec50e)" style="fill: #d9d9d9"/>
   </g>
   <g id="patch_32">
    <path d="M 125.254844 124.579063 
C 125.254844 124.579063 125.254844 124.579063 125.254844 124.579063 
C 125.254844 124.579063 125.254844 124.579063 125.254844 124.579063 
L 125.254844 124.579063 
C 125.254844 124.579063 125.254844 124.579063 125.254844 124.579063 
C 125.254844 124.579063 125.254844 124.579063 125.254844 124.579063 
z
" clip-path="url(#p078caec50e)" style="fill: #d9d9d9"/>
   </g>
   <g id="patch_33">
    <path d="M 125.254844 124.579063 
C 125.254844 124.579063 125.254844 124.579063 125.254844 124.579063 
C 125.254844 124.579063 125.254844 124.579063 125.254844 124.579063 
L 125.254844 124.579063 
C 125.254844 124.579063 125.254844 124.579063 125.254844 124.579063 
C 125.254844 124.579063 125.254844 124.579063 125.254844 124.579063 
z
" clip-path="url(#p078caec50e)" style="fill: #d9d9d9"/>
   </g>
   <g id="patch_34">
    <path d="M 125.254844 124.579063 
C 125.254844 124.579063 125.254844 124.579063 125.254844 124.579063 
C 125.254844 124.579063 125.254844 124.579063 125.254844 124.579063 
L 125.254844 124.579063 
C 125.254844 124.579063 125.254844 124.579063 125.254844 124.579063 
C 125.254844 124.579063 125.254844 124.579063 125.254844 124.579063 
z
" clip-path="url(#p078caec50e)" style="fill: #d9d9d9"/>
   </g>
   <g id="patch_35">
    <path d="M 125.254844 124.579063 
C 125.254844 124.579063 125.254844 124.579063 125.254844 124.579063 
C 125.254844 124.579063 125.254844 124.579063 125.254844 124.579063 
L 125.254844 124.579063 
C 125.254844 124.579063 125.254844 124.579063 125.254844 124.579063 
C 125.254844 124.579063 125.254844 124.579063 125.254844 124.579063 
z
" clip-path="url(#p078caec50e)" style="fill: #badbb8"/>
   </g>
   <g id="patch_36">
    <path d="M 125.254844 124.579063 
C 125.254844 124.579063 125.254844 124.579063 125.254844 124.579063 
C 125.254844 124.579063 125.254844 124.579063 125.254844 124.579063 
L 133.101521 98.712035 
C 132.254854 98.455202 131.396088 98.240092 130.528325 98.067483 
C 129.660561 97.894874 128.784846 97.764974 127.904342 97.678252 
z
" clip-path="url(#p078caec50e)" style="fill: #badbb8"/>
   </g>
   <g id="patch_37">
    <path d="M 125.254844 124.579063 
C 125.254844 124.579063 125.254844 124.579063 125.254844 124.579063 
C 125.254844 124.579063 125.254844 124.579063 125.254844 124.579063 
L 130.568755 114.637434 
C 130.243351 114.463501 129.909603 114.30565 129.568717 114.164451 
C 129.227831 114.023251 128.880219 113.898873 128.527134 113.791766 
z
" clip-path="url(#p078caec50e)" style="fill: #badbb8"/>
   </g>
   <g id="patch_38">
    <path d="M 125.254844 124.579063 
C 125.254844 124.579063 125.254844 124.579063 125.254844 124.579063 
C 125.254844 124.579063 125.254844 124.579063 125.254844 124.579063 
L 143.487208 102.362862 
C 142.760039 101.76609 142.004008 101.205379 141.221846 100.682755 
C 140.439684 100.160131 139.632334 99.676224 138.802713 99.232782 
z
" clip-path="url(#p078caec50e)" style="fill: #badbb8"/>
   </g>
   <g id="patch_39">
    <path d="M 125.254844 124.579063 
C 125.254844 124.579063 125.254844 124.579063 125.254844 124.579063 
C 125.254844 124.579063 125.254844 124.579063 125.254844 124.579063 
L 125.254844 124.579063 
C 125.254844 124.579063 125.254844 124.579063 125.254844 124.579063 
C 125.254844 124.579063 125.254844 124.579063 125.254844 124.579063 
z
" clip-path="url(#p078caec50e)" style="fill: #badbb8"/>
   </g>
   <g id="patch_40">
    <path d="M 125.254844 124.579063 
C 125.254844 124.579063 125.254844 124.579063 125.254844 124.579063 
C 125.254844 124.579063 125.254844 124.579063 125.254844 124.579063 
L 166.24523 102.669244 
C 165.528089 101.327568 164.745508 100.02191 163.900313 98.756986 
C 163.055117 97.492062 162.148327 96.269397 161.183218 95.093408 
z
" clip-path="url(#p078caec50e)" style="fill: #badbb8"/>
   </g>
   <g id="patch_41">
    <path d="M 125.254844 124.579063 
C 125.254844 124.579063 125.254844 124.579063 125.254844 124.579063 
C 125.254844 124.579063 125.254844 124.579063 125.254844 124.579063 
L 161.836345 113.482186 
C 161.473127 112.284818 161.051341 111.106006 160.57251 109.950006 
C 160.09368 108.794006 159.558381 107.662212 158.968548 106.558712 
z
" clip-path="url(#p078caec50e)" style="fill: #badbb8"/>
   </g>
   <g id="patch_42">
    <path d="M 125.254844 124.579063 
C 125.254844 124.579063 125.254844 124.579063 125.254844 124.579063 
C 125.254844 124.579063 125.254844 124.579063 125.254844 124.579063 
L 173.831999 119.79463 
C 173.675397 118.204628 173.440825 116.623272 173.12913 115.056275 
C 172.817435 113.489278 172.428993 111.938529 171.965206 110.409629 
z
" clip-path="url(#p078caec50e)" style="fill: #badbb8"/>
   </g>
   <g id="patch_43">
    <path d="M 125.254844 124.579063 
C 125.254844 124.579063 125.254844 124.579063 125.254844 124.579063 
C 125.254844 124.579063 125.254844 124.579063 125.254844 124.579063 
L 147.691671 126.788897 
C 147.764002 126.054506 147.800233 125.317007 147.800233 124.579063 
C 147.800233 123.841118 147.764002 123.103619 147.691671 122.369228 
z
" clip-path="url(#p078caec50e)" style="fill: #badbb8"/>
   </g>
   <g id="patch_44">
    <path d="M 125.254844 124.579063 
C 125.254844 124.579063 125.254844 124.579063 125.254844 124.579063 
C 125.254844 124.579063 125.254844 124.579063 125.254844 124.579063 
L 171.965206 138.748496 
C 172.428993 137.219596 172.817435 135.668847 173.12913 134.10185 
C 173.440825 132.534853 173.675397 130.953497 173.831999 129.363495 
z
" clip-path="url(#p078caec50e)" style="fill: #badbb8"/>
   </g>
   <g id="patch_45">
    <path d="M 125.254844 124.579063 
C 125.254844 124.579063 125.254844 124.579063 125.254844 124.579063 
C 125.254844 124.579063 125.254844 124.579063 125.254844 124.579063 
L 155.491128 140.740693 
C 156.020122 139.751014 156.500207 138.73596 156.929649 137.699196 
C 157.35909 136.662433 157.737371 135.605209 158.063124 134.531345 
z
" clip-path="url(#p078caec50e)" style="fill: #badbb8"/>
   </g>
   <g id="patch_46">
    <path d="M 125.254844 124.579063 
C 125.254844 124.579063 125.254844 124.579063 125.254844 124.579063 
C 125.254844 124.579063 125.254844 124.579063 125.254844 124.579063 
L 191.474832 178.924402 
C 193.253636 176.756923 194.924951 174.503416 196.482739 172.172021 
C 198.040528 169.840625 199.482913 167.434152 200.804683 164.961293 
z
" clip-path="url(#p078caec50e)" style="fill: #badbb8"/>
   </g>
   <g id="patch_47">
    <path d="M 125.254844 124.579063 
C 125.254844 124.579063 125.254844 124.579063 125.254844 124.579063 
C 125.254844 124.579063 125.254844 124.579063 125.254844 124.579063 
L 148.973095 153.479835 
C 149.91906 152.703501 150.826339 151.881191 151.691656 151.015874 
C 152.556972 150.150558 153.379282 149.243279 154.155616 148.297313 
z
" clip-path="url(#p078caec50e)" style="fill: #badbb8"/>
   </g>
   <g id="patch_48">
    <path d="M 125.254844 124.579063 
C 125.254844 124.579063 125.254844 124.579063 125.254844 124.579063 
C 125.254844 124.579063 125.254844 124.579063 125.254844 124.579063 
L 147.79986 166.757822 
C 149.180434 166.01989 150.523946 165.21462 151.825541 164.344922 
C 153.127137 163.475223 154.385249 162.542144 155.595332 161.549055 
z
" clip-path="url(#p078caec50e)" style="fill: #badbb8"/>
   </g>
   <g id="patch_49">
    <path d="M 125.254844 124.579063 
C 125.254844 124.579063 125.254844 124.579063 125.254844 124.579063 
C 125.254844 124.579063 125.254844 124.579063 125.254844 124.579063 
L 134.21638 154.121289 
C 135.183342 153.827965 136.135318 153.487342 137.068873 153.100651 
C 138.002427 152.713961 138.916433 152.281668 139.807589 151.805335 
z
" clip-path="url(#p078caec50e)" style="fill: #badbb8"/>
   </g>
   <g id="patch_50">
    <path d="M 125.254844 124.579063 
C 125.254844 124.579063 125.254844 124.579063 125.254844 124.579063 
C 125.254844 124.579063 125.254844 124.579063 125.254844 124.579063 
L 130.039276 173.156217 
C 131.629279 172.999616 133.210635 172.765044 134.777631 172.453349 
C 136.344628 172.141654 137.895377 171.753211 139.424277 171.289425 
z
" clip-path="url(#p078caec50e)" style="fill: #badbb8"/>
   </g>
   <g id="patch_51">
    <path d="M 125.254844 124.579063 
C 125.254844 124.579063 125.254844 124.579063 125.254844 124.579063 
C 125.254844 124.579063 125.254844 124.579063 125.254844 124.579063 
L 121.271008 165.027627 
C 122.59495 165.158024 123.924496 165.223341 125.254844 165.223341 
C 126.585192 165.223341 127.914738 165.158024 129.23868 165.027627 
z
" clip-path="url(#p078caec50e)" style="fill: #badbb8"/>
   </g>
   <g id="patch_52">
    <path d="M 125.254844 124.579063 
C 125.254844 124.579063 125.254844 124.579063 125.254844 124.579063 
C 125.254844 124.579063 125.254844 124.579063 125.254844 124.579063 
L 115.302561 157.387343 
C 116.376425 157.713096 117.465635 157.985929 118.566258 158.204856 
C 119.66688 158.423784 120.777588 158.588541 121.894369 158.698535 
z
" clip-path="url(#p078caec50e)" style="fill: #badbb8"/>
   </g>
   <g id="patch_53">
    <path d="M 125.254844 124.579063 
C 125.254844 124.579063 125.254844 124.579063 125.254844 124.579063 
C 125.254844 124.579063 125.254844 124.579063 125.254844 124.579063 
L 118.2252 137.730601 
C 118.655669 137.960692 119.097176 138.169509 119.548126 138.356299 
C 119.999075 138.543088 120.458924 138.707625 120.92601 138.849314 
z
" clip-path="url(#p078caec50e)" style="fill: #badbb8"/>
   </g>
   <g id="patch_54">
    <path d="M 125.254844 124.579063 
C 125.254844 124.579063 125.254844 124.579063 125.254844 124.579063 
C 125.254844 124.579063 125.254844 124.579063 125.254844 124.579063 
L 109.264002 144.063959 
C 109.901772 144.587363 110.564855 145.079139 111.250856 145.537511 
C 111.936858 145.995882 112.64495 146.420296 113.372577 146.809221 
z
" clip-path="url(#p078caec50e)" style="fill: #badbb8"/>
   </g>
   <g id="patch_55">
    <path d="M 118.103522 133.292973 
C 117.818303 133.0589 117.544748 132.810964 117.283845 132.550061 
C 117.022942 132.289159 116.775006 132.015603 116.540933 131.730384 
L 108.380428 138.427537 
C 108.83371 138.979862 109.313835 139.509599 109.819071 140.014835 
C 110.324307 140.520071 110.854044 141.000197 111.406369 141.453478 
z
" clip-path="url(#p078caec50e)" style="fill: #badbb8"/>
   </g>
   <g id="patch_56">
    <path d="M 125.254844 124.579063 
C 125.254844 124.579063 125.254844 124.579063 125.254844 124.579063 
C 125.254844 124.579063 125.254844 124.579063 125.254844 124.579063 
L 108.768517 133.391188 
C 109.056951 133.93081 109.371705 134.455945 109.711643 134.964697 
C 110.05158 135.47345 110.416291 135.965205 110.804458 136.438188 
z
" clip-path="url(#p078caec50e)" style="fill: #badbb8"/>
   </g>
   <g id="patch_57">
    <path d="M 125.254844 124.579063 
C 125.254844 124.579063 125.254844 124.579063 125.254844 124.579063 
C 125.254844 124.579063 125.254844 124.579063 125.254844 124.579063 
L 103.680252 131.123643 
C 103.894466 131.829812 104.143221 132.525038 104.42562 133.206809 
C 104.708019 133.888581 105.023721 134.556077 105.371586 135.206885 
z
" clip-path="url(#p078caec50e)" style="fill: #badbb8"/>
   </g>
   <g id="patch_58">
    <path d="M 125.254844 124.579063 
C 125.254844 124.579063 125.254844 124.579063 125.254844 124.579063 
C 125.254844 124.579063 125.254844 124.579063 125.254844 124.579063 
L 105.030561 126.57098 
C 105.09576 127.232951 105.19342 127.891322 105.323189 128.543715 
C 105.452958 129.196108 105.614679 129.841736 105.807769 130.478268 
z
" clip-path="url(#p078caec50e)" style="fill: #badbb8"/>
   </g>
   <g id="patch_59">
    <path d="M 115.539413 125.535949 
C 115.508092 125.217948 115.492404 124.898602 115.492404 124.579063 
C 115.492404 124.259523 115.508092 123.940177 115.539413 123.622176 
L 107.516975 122.832035 
C 107.459792 123.412622 107.431149 123.995666 107.431149 124.579063 
C 107.431149 125.162459 107.459792 125.745503 107.516975 126.32609 
z
" clip-path="url(#p078caec50e)" style="fill: #badbb8"/>
   </g>
   <g id="patch_60">
    <path d="M 125.254844 124.579063 
C 125.254844 124.579063 125.254844 124.579063 125.254844 124.579063 
C 125.254844 124.579063 125.254844 124.579063 125.254844 124.579063 
L 109.0739 119.670627 
C 108.913239 120.200253 108.778679 120.737448 108.670704 121.280272 
C 108.56273 121.823096 108.481472 122.370893 108.427224 122.921687 
z
" clip-path="url(#p078caec50e)" style="fill: #badbb8"/>
   </g>
   <g id="patch_61">
    <path d="M 125.254844 124.579063 
C 125.254844 124.579063 125.254844 124.579063 125.254844 124.579063 
C 125.254844 124.579063 125.254844 124.579063 125.254844 124.579063 
L 101.939657 112.116836 
C 101.53175 112.879976 101.161556 113.662685 100.830414 114.462133 
C 100.499272 115.261581 100.20758 116.076805 99.956392 116.904861 
z
" clip-path="url(#p078caec50e)" style="fill: #badbb8"/>
   </g>
   <g id="patch_62">
    <path d="M 125.254844 124.579063 
C 125.254844 124.579063 125.254844 124.579063 125.254844 124.579063 
C 125.254844 124.579063 125.254844 124.579063 125.254844 124.579063 
L 117.708376 118.385836 
C 117.505662 118.632843 117.315198 118.889654 117.137672 119.155342 
C 116.960145 119.421029 116.79577 119.695272 116.64514 119.97708 
z
" clip-path="url(#p078caec50e)" style="fill: #badbb8"/>
   </g>
   <g id="patch_63">
    <path d="M 125.254844 124.579063 
C 125.254844 124.579063 125.254844 124.579063 125.254844 124.579063 
C 125.254844 124.579063 125.254844 124.579063 125.254844 124.579063 
L 111.875946 108.276828 
C 111.342349 108.71474 110.830575 109.178585 110.342471 109.666689 
C 109.854366 110.154794 109.390521 110.666568 108.95261 111.200165 
z
" clip-path="url(#p078caec50e)" style="fill: #badbb8"/>
   </g>
   <g id="patch_64">
    <path d="M 125.254844 124.579063 
C 125.254844 124.579063 125.254844 124.579063 125.254844 124.579063 
C 125.254844 124.579063 125.254844 124.579063 125.254844 124.579063 
L 116.442719 108.092736 
C 115.903097 108.38117 115.377961 108.695924 114.869209 109.035861 
C 114.360457 109.375799 113.868701 109.74051 113.395718 110.128676 
z
" clip-path="url(#p078caec50e)" style="fill: #badbb8"/>
   </g>
   <g id="patch_65">
    <path d="M 125.254844 124.579063 
C 125.254844 124.579063 125.254844 124.579063 125.254844 124.579063 
C 125.254844 124.579063 125.254844 124.579063 125.254844 124.579063 
L 121.982553 113.791766 
C 121.629469 113.898873 121.281856 114.023251 120.94097 114.164451 
C 120.600085 114.30565 120.266337 114.463501 119.940932 114.637434 
z
" clip-path="url(#p078caec50e)" style="fill: #badbb8"/>
   </g>
   <g id="patch_66">
    <path d="M 125.254844 124.579063 
C 125.254844 124.579063 125.254844 124.579063 125.254844 124.579063 
C 125.254844 124.579063 125.254844 124.579063 125.254844 124.579063 
L 125.254844 124.579063 
C 125.254844 124.579063 125.254844 124.579063 125.254844 124.579063 
C 125.254844 124.579063 125.254844 124.579063 125.254844 124.579063 
z
" clip-path="url(#p078caec50e)" style="fill: #badbb8"/>
   </g>
   <g id="patch_67">
    <path d="M 125.254844 124.579063 
C 125.254844 124.579063 125.254844 124.579063 125.254844 124.579063 
C 125.254844 124.579063 125.254844 124.579063 125.254844 124.579063 
L 125.254844 124.579063 
C 125.254844 124.579063 125.254844 124.579063 125.254844 124.579063 
C 125.254844 124.579063 125.254844 124.579063 125.254844 124.579063 
z
" clip-path="url(#p078caec50e)" style="fill: #ff8c8e"/>
   </g>
   <g id="patch_68">
    <path d="M 127.904342 97.678252 
C 128.784846 97.764974 129.660561 97.894874 130.528325 98.067483 
C 131.396088 98.240092 132.254854 98.455202 133.101521 98.712035 
L 133.101521 98.712035 
C 132.254854 98.455202 131.396088 98.240092 130.528325 98.067483 
C 129.660561 97.894874 128.784846 97.764974 127.904342 97.678252 
z
" clip-path="url(#p078caec50e)" style="fill: #ff8c8e"/>
   </g>
   <g id="patch_69">
    <path d="M 128.527134 113.791766 
C 128.880219 113.898873 129.227831 114.023251 129.568717 114.164451 
C 129.909603 114.30565 130.243351 114.463501 130.568755 114.637434 
L 130.568755 114.637434 
C 130.243351 114.463501 129.909603 114.30565 129.568717 114.164451 
C 129.227831 114.023251 128.880219 113.898873 128.527134 113.791766 
z
" clip-path="url(#p078caec50e)" style="fill: #ff8c8e"/>
   </g>
   <g id="patch_70">
    <path d="M 138.802713 99.232782 
C 139.632334 99.676224 140.439684 100.160131 141.221846 100.682755 
C 142.004008 101.205379 142.760039 101.76609 143.487208 102.362862 
L 143.487208 102.362862 
C 142.760039 101.76609 142.004008 101.205379 141.221846 100.682755 
C 140.439684 100.160131 139.632334 99.676224 138.802713 99.232782 
z
" clip-path="url(#p078caec50e)" style="fill: #ff8c8e"/>
   </g>
   <g id="patch_71">
    <path d="M 125.254844 124.579063 
C 125.254844 124.579063 125.254844 124.579063 125.254844 124.579063 
C 125.254844 124.579063 125.254844 124.579063 125.254844 124.579063 
L 125.254844 124.579063 
C 125.254844 124.579063 125.254844 124.579063 125.254844 124.579063 
C 125.254844 124.579063 125.254844 124.579063 125.254844 124.579063 
z
" clip-path="url(#p078caec50e)" style="fill: #ff8c8e"/>
   </g>
   <g id="patch_72">
    <path d="M 161.183218 95.093408 
C 162.148327 96.269397 163.055117 97.492062 163.900313 98.756986 
C 164.745508 100.02191 165.528089 101.327568 166.24523 102.669244 
L 166.24523 102.669244 
C 165.528089 101.327568 164.745508 100.02191 163.900313 98.756986 
C 163.055117 97.492062 162.148327 96.269397 161.183218 95.093408 
z
" clip-path="url(#p078caec50e)" style="fill: #ff8c8e"/>
   </g>
   <g id="patch_73">
    <path d="M 158.968548 106.558712 
C 159.558381 107.662212 160.09368 108.794006 160.57251 109.950006 
C 161.051341 111.106006 161.473127 112.284818 161.836345 113.482186 
L 161.836345 113.482186 
C 161.473127 112.284818 161.051341 111.106006 160.57251 109.950006 
C 160.09368 108.794006 159.558381 107.662212 158.968548 106.558712 
z
" clip-path="url(#p078caec50e)" style="fill: #ff8c8e"/>
   </g>
   <g id="patch_74">
    <path d="M 171.965206 110.409629 
C 172.428993 111.938529 172.817435 113.489278 173.12913 115.056275 
C 173.440825 116.623272 173.675397 118.204628 173.831999 119.79463 
L 173.831999 119.79463 
C 173.675397 118.204628 173.440825 116.623272 173.12913 115.056275 
C 172.817435 113.489278 172.428993 111.938529 171.965206 110.409629 
z
" clip-path="url(#p078caec50e)" style="fill: #ff8c8e"/>
   </g>
   <g id="patch_75">
    <path d="M 147.691671 122.369228 
C 147.764002 123.103619 147.800233 123.841118 147.800233 124.579063 
C 147.800233 125.317007 147.764002 126.054506 147.691671 126.788897 
L 147.691671 126.788897 
C 147.764002 126.054506 147.800233 125.317007 147.800233 124.579063 
C 147.800233 123.841118 147.764002 123.103619 147.691671 122.369228 
z
" clip-path="url(#p078caec50e)" style="fill: #ff8c8e"/>
   </g>
   <g id="patch_76">
    <path d="M 173.831999 129.363495 
C 173.675397 130.953497 173.440825 132.534853 173.12913 134.10185 
C 172.817435 135.668847 172.428993 137.219596 171.965206 138.748496 
L 199.405245 147.072341 
C 200.141483 144.645287 200.758117 142.18355 201.252917 139.696019 
C 201.747718 137.208489 202.120089 134.698164 202.368687 132.174113 
z
" clip-path="url(#p078caec50e)" style="fill: #ff8c8e"/>
   </g>
   <g id="patch_77">
    <path d="M 158.063124 134.531345 
C 157.737371 135.605209 157.35909 136.662433 156.929649 137.699196 
C 156.500207 138.73596 156.020122 139.751014 155.491128 140.740693 
L 162.78367 144.638638 
C 163.44025 143.410264 164.036124 142.150393 164.569141 140.863578 
C 165.102157 139.576762 165.571674 138.264552 165.975993 136.931688 
z
" clip-path="url(#p078caec50e)" style="fill: #ff8c8e"/>
   </g>
   <g id="patch_78">
    <path d="M 200.804683 164.961293 
C 199.482913 167.434152 198.040528 169.840625 196.482739 172.172021 
C 194.924951 174.503416 193.253636 176.756923 191.474832 178.924402 
L 201.220956 186.92284 
C 203.261561 184.436355 205.178856 181.851182 206.965917 179.176656 
C 208.752978 176.502131 210.40765 173.741478 211.923956 170.904668 
z
" clip-path="url(#p078caec50e)" style="fill: #ff8c8e"/>
   </g>
   <g id="patch_79">
    <path d="M 154.155616 148.297313 
C 153.379282 149.243279 152.556972 150.150558 151.691656 151.015874 
C 150.826339 151.881191 149.91906 152.703501 148.973095 153.479835 
L 149.506156 154.129371 
C 150.473381 153.33559 151.401052 152.494798 152.285816 151.610034 
C 153.17058 150.72527 154.011371 149.7976 154.805153 148.830374 
z
" clip-path="url(#p078caec50e)" style="fill: #ff8c8e"/>
   </g>
   <g id="patch_80">
    <path d="M 155.595332 161.549055 
C 154.385249 162.542144 153.127137 163.475223 151.825541 164.344922 
C 150.523946 165.21462 149.180434 166.01989 147.79986 166.757822 
L 153.994214 178.346642 
C 155.754107 177.40596 157.466755 176.379438 159.12597 175.270786 
C 160.785186 174.162133 162.38897 172.972686 163.931529 171.70674 
z
" clip-path="url(#p078caec50e)" style="fill: #ff8c8e"/>
   </g>
   <g id="patch_81">
    <path d="M 139.807589 151.805335 
C 138.916433 152.281668 138.002427 152.713961 137.068873 153.100651 
C 136.135318 153.487342 135.183342 153.827965 134.21638 154.121289 
L 143.474186 184.640185 
C 145.440076 184.043839 147.375503 183.351332 149.273474 182.565167 
C 151.171446 181.779001 153.029675 180.900124 154.84145 179.93171 
z
" clip-path="url(#p078caec50e)" style="fill: #ff8c8e"/>
   </g>
   <g id="patch_82">
    <path d="M 139.424277 171.289425 
C 137.895377 171.753211 136.344628 172.141654 134.777631 172.453349 
C 133.210635 172.765044 131.629279 172.999616 130.039276 173.156217 
L 134.918923 222.700106 
C 138.130571 222.383786 141.324753 221.909974 144.489932 221.280381 
C 147.65511 220.650788 150.78747 219.866172 153.875696 218.929369 
z
" clip-path="url(#p078caec50e)" style="fill: #ff8c8e"/>
   </g>
   <g id="patch_83">
    <path d="M 129.23868 165.027627 
C 127.914738 165.158024 126.585192 165.223341 125.254844 165.223341 
C 123.924496 165.223341 122.59495 165.158024 121.271008 165.027627 
L 120.665778 171.172633 
C 122.190855 171.32284 123.722387 171.398079 125.254844 171.398079 
C 126.7873 171.398079 128.318833 171.32284 129.84391 171.172633 
z
" clip-path="url(#p078caec50e)" style="fill: #ff8c8e"/>
   </g>
   <g id="patch_84">
    <path d="M 121.894369 158.698535 
C 120.777588 158.588541 119.66688 158.423784 118.566258 158.204856 
C 117.465635 157.985929 116.376425 157.713096 115.302561 157.387343 
L 114.401884 160.356476 
C 115.572932 160.71171 116.760716 161.009234 117.960944 161.247974 
C 119.161172 161.486714 120.372398 161.666383 121.590248 161.78633 
z
" clip-path="url(#p078caec50e)" style="fill: #ff8c8e"/>
   </g>
   <g id="patch_85">
    <path d="M 120.92601 138.849314 
C 120.458924 138.707625 119.999075 138.543088 119.548126 138.356299 
C 119.097176 138.169509 118.655669 137.960692 118.2252 137.730601 
L 110.224833 152.698236 
C 111.145215 153.19019 112.089197 153.63666 113.053367 154.036033 
C 114.017538 154.435405 115.000735 154.787199 115.999409 155.090143 
z
" clip-path="url(#p078caec50e)" style="fill: #ff8c8e"/>
   </g>
   <g id="patch_86">
    <path d="M 113.372577 146.809221 
C 112.64495 146.420296 111.936858 145.995882 111.250856 145.537511 
C 110.564855 145.079139 109.901772 144.587363 109.264002 144.063959 
L 99.22364 156.298176 
C 100.261854 157.150216 101.341275 157.95077 102.458004 158.696944 
C 103.574733 159.443119 104.727425 160.134015 105.911914 160.767138 
z
" clip-path="url(#p078caec50e)" style="fill: #ff8c8e"/>
   </g>
   <g id="patch_87">
    <path d="M 111.406369 141.453478 
C 110.854044 141.000197 110.324307 140.520071 109.819071 140.014835 
C 109.313835 139.509599 108.83371 138.979862 108.380428 138.427537 
L 92.360552 151.57471 
C 93.24416 152.651389 94.180097 153.684037 95.164983 154.668923 
C 96.149869 155.653809 97.182517 156.589746 98.259196 157.473354 
z
" clip-path="url(#p078caec50e)" style="fill: #ff8c8e"/>
   </g>
   <g id="patch_88">
    <path d="M 110.804458 136.438188 
C 110.416291 135.965205 110.05158 135.47345 109.711643 134.964697 
C 109.371705 134.455945 109.056951 133.93081 108.768517 133.391188 
L 86.114611 145.499953 
C 86.799383 146.781071 87.546642 148.027797 88.353688 149.235626 
C 89.160734 150.443456 90.026595 151.610935 90.948143 152.733844 
z
" clip-path="url(#p078caec50e)" style="fill: #ff8c8e"/>
   </g>
   <g id="patch_89">
    <path d="M 105.371586 135.206885 
C 105.023721 134.556077 104.708019 133.888581 104.42562 133.206809 
C 104.143221 132.525038 103.894466 131.829812 103.680252 131.123643 
L 103.680252 131.123643 
C 103.894466 131.829812 104.143221 132.525038 104.42562 133.206809 
C 104.708019 133.888581 105.023721 134.556077 105.371586 135.206885 
z
" clip-path="url(#p078caec50e)" style="fill: #ff8c8e"/>
   </g>
   <g id="patch_90">
    <path d="M 105.807769 130.478268 
C 105.614679 129.841736 105.452958 129.196108 105.323189 128.543715 
C 105.19342 127.891322 105.09576 127.232951 105.030561 126.57098 
L 105.030561 126.57098 
C 105.09576 127.232951 105.19342 127.891322 105.323189 128.543715 
C 105.452958 129.196108 105.614679 129.841736 105.807769 130.478268 
z
" clip-path="url(#p078caec50e)" style="fill: #ff8c8e"/>
   </g>
   <g id="patch_91">
    <path d="M 107.516975 126.32609 
C 107.459792 125.745503 107.431149 125.162459 107.431149 124.579063 
C 107.431149 123.995666 107.459792 123.412622 107.516975 122.832035 
L 107.516975 122.832035 
C 107.459792 123.412622 107.431149 123.995666 107.431149 124.579063 
C 107.431149 125.162459 107.459792 125.745503 107.516975 126.32609 
z
" clip-path="url(#p078caec50e)" style="fill: #ff8c8e"/>
   </g>
   <g id="patch_92">
    <path d="M 108.427224 122.921687 
C 108.481472 122.370893 108.56273 121.823096 108.670704 121.280272 
C 108.778679 120.737448 108.913239 120.200253 109.0739 119.670627 
L 109.0739 119.670627 
C 108.913239 120.200253 108.778679 120.737448 108.670704 121.280272 
C 108.56273 121.823096 108.481472 122.370893 108.427224 122.921687 
z
" clip-path="url(#p078caec50e)" style="fill: #ff8c8e"/>
   </g>
   <g id="patch_93">
    <path d="M 99.956392 116.904861 
C 100.20758 116.076805 100.499272 115.261581 100.830414 114.462133 
C 101.161556 113.662685 101.53175 112.879976 101.939657 112.116836 
L 101.939657 112.116836 
C 101.53175 112.879976 101.161556 113.662685 100.830414 114.462133 
C 100.499272 115.261581 100.20758 116.076805 99.956392 116.904861 
z
" clip-path="url(#p078caec50e)" style="fill: #ff8c8e"/>
   </g>
   <g id="patch_94">
    <path d="M 116.64514 119.97708 
C 116.79577 119.695272 116.960145 119.421029 117.137672 119.155342 
C 117.315198 118.889654 117.505662 118.632843 117.708376 118.385836 
L 117.708376 118.385836 
C 117.505662 118.632843 117.315198 118.889654 117.137672 119.155342 
C 116.960145 119.421029 116.79577 119.695272 116.64514 119.97708 
z
" clip-path="url(#p078caec50e)" style="fill: #ff8c8e"/>
   </g>
   <g id="patch_95">
    <path d="M 108.95261 111.200165 
C 109.390521 110.666568 109.854366 110.154794 110.342471 109.666689 
C 110.830575 109.178585 111.342349 108.71474 111.875946 108.276828 
L 111.875946 108.276828 
C 111.342349 108.71474 110.830575 109.178585 110.342471 109.666689 
C 109.854366 110.154794 109.390521 110.666568 108.95261 111.200165 
z
" clip-path="url(#p078caec50e)" style="fill: #ff8c8e"/>
   </g>
   <g id="patch_96">
    <path d="M 113.395718 110.128676 
C 113.868701 109.74051 114.360457 109.375799 114.869209 109.035861 
C 115.377961 108.695924 115.903097 108.38117 116.442719 108.092736 
L 116.442719 108.092736 
C 115.903097 108.38117 115.377961 108.695924 114.869209 109.035861 
C 114.360457 109.375799 113.868701 109.74051 113.395718 110.128676 
z
" clip-path="url(#p078caec50e)" style="fill: #ff8c8e"/>
   </g>
   <g id="patch_97">
    <path d="M 119.940932 114.637434 
C 120.266337 114.463501 120.600085 114.30565 120.94097 114.164451 
C 121.281856 114.023251 121.629469 113.898873 121.982553 113.791766 
L 121.982553 113.791766 
C 121.629469 113.898873 121.281856 114.023251 120.94097 114.164451 
C 120.600085 114.30565 120.266337 114.463501 119.940932 114.637434 
z
" clip-path="url(#p078caec50e)" style="fill: #ff8c8e"/>
   </g>
   <g id="patch_98">
    <path d="M 125.254844 124.579063 
C 125.254844 124.579063 125.254844 124.579063 125.254844 124.579063 
C 125.254844 124.579063 125.254844 124.579063 125.254844 124.579063 
L 125.254844 124.579063 
C 125.254844 124.579063 125.254844 124.579063 125.254844 124.579063 
C 125.254844 124.579063 125.254844 124.579063 125.254844 124.579063 
z
" clip-path="url(#p078caec50e)" style="fill: #ff8c8e"/>
   </g>
   <g id="patch_99">
    <path d="M 125.254844 124.579063 
C 125.254844 124.579063 125.254844 124.579063 125.254844 124.579063 
C 125.254844 124.579063 125.254844 124.579063 125.254844 124.579063 
L 125.254844 124.579063 
C 125.254844 124.579063 125.254844 124.579063 125.254844 124.579063 
C 125.254844 124.579063 125.254844 124.579063 125.254844 124.579063 
z
" clip-path="url(#p078caec50e)" style="fill: #828282"/>
   </g>
   <g id="patch_100">
    <path d="M 127.904342 97.678252 
C 128.784846 97.764974 129.660561 97.894874 130.528325 98.067483 
C 131.396088 98.240092 132.254854 98.455202 133.101521 98.712035 
L 133.101521 98.712035 
C 132.254854 98.455202 131.396088 98.240092 130.528325 98.067483 
C 129.660561 97.894874 128.784846 97.764974 127.904342 97.678252 
z
" clip-path="url(#p078caec50e)" style="fill: #828282"/>
   </g>
   <g id="patch_101">
    <path d="M 128.527134 113.791766 
C 128.880219 113.898873 129.227831 114.023251 129.568717 114.164451 
C 129.909603 114.30565 130.243351 114.463501 130.568755 114.637434 
L 130.568755 114.637434 
C 130.243351 114.463501 129.909603 114.30565 129.568717 114.164451 
C 129.227831 114.023251 128.880219 113.898873 128.527134 113.791766 
z
" clip-path="url(#p078caec50e)" style="fill: #828282"/>
   </g>
   <g id="patch_102">
    <path d="M 138.802713 99.232782 
C 139.632334 99.676224 140.439684 100.160131 141.221846 100.682755 
C 142.004008 101.205379 142.760039 101.76609 143.487208 102.362862 
L 143.487208 102.362862 
C 142.760039 101.76609 142.004008 101.205379 141.221846 100.682755 
C 140.439684 100.160131 139.632334 99.676224 138.802713 99.232782 
z
" clip-path="url(#p078caec50e)" style="fill: #828282"/>
   </g>
   <g id="patch_103">
    <path d="M 125.254844 124.579063 
C 125.254844 124.579063 125.254844 124.579063 125.254844 124.579063 
C 125.254844 124.579063 125.254844 124.579063 125.254844 124.579063 
L 145.220921 108.193326 
C 144.684592 107.539806 144.116499 106.913013 143.518696 106.31521 
C 142.920893 105.717407 142.2941 105.149314 141.64058 104.612985 
z
" clip-path="url(#p078caec50e)" style="fill: #828282"/>
   </g>
   <g id="patch_104">
    <path d="M 161.183218 95.093408 
C 162.148327 96.269397 163.055117 97.492062 163.900313 98.756986 
C 164.745508 100.02191 165.528089 101.327568 166.24523 102.669244 
L 200.640978 84.284334 
C 199.322071 81.816833 197.882812 79.415575 196.328399 77.089231 
C 194.773986 74.762887 193.106293 72.514263 191.331343 70.351481 
z
" clip-path="url(#p078caec50e)" style="fill: #828282"/>
   </g>
   <g id="patch_105">
    <path d="M 158.968548 106.558712 
C 159.558381 107.662212 160.09368 108.794006 160.57251 109.950006 
C 161.051341 111.106006 161.473127 112.284818 161.836345 113.482186 
L 231.36039 92.392297 
C 230.306869 88.919304 229.083469 85.500129 227.694608 82.147123 
C 226.305747 78.794116 224.7531 75.51132 223.042275 72.310591 
z
" clip-path="url(#p078caec50e)" style="fill: #828282"/>
   </g>
   <g id="patch_106">
    <path d="M 171.965206 110.409629 
C 172.428993 111.938529 172.817435 113.489278 173.12913 115.056275 
C 173.440825 116.623272 173.675397 118.204628 173.831999 119.79463 
L 189.455149 118.255884 
C 189.248182 116.154513 188.938168 114.064569 188.526227 111.993602 
C 188.114286 109.922635 187.600915 107.873142 186.987967 105.852524 
z
" clip-path="url(#p078caec50e)" style="fill: #828282"/>
   </g>
   <g id="patch_107">
    <path d="M 147.691671 122.369228 
C 147.764002 123.103619 147.800233 123.841118 147.800233 124.579063 
C 147.800233 125.317007 147.764002 126.054506 147.691671 126.788897 
L 172.51886 129.234162 
C 172.671228 127.68714 172.74755 126.13357 172.74755 124.579063 
C 172.74755 123.024555 172.671228 121.470985 172.51886 119.923963 
z
" clip-path="url(#p078caec50e)" style="fill: #828282"/>
   </g>
   <g id="patch_108">
    <path d="M 202.368687 132.174113 
C 202.120089 134.698164 201.747718 137.208489 201.252917 139.696019 
C 200.758117 142.18355 200.141483 144.645287 199.405245 147.072341 
L 221.889992 153.893014 
C 222.849482 150.730002 223.653098 147.521787 224.297937 144.279959 
C 224.942777 141.03813 225.428063 137.766596 225.752043 134.477173 
z
" clip-path="url(#p078caec50e)" style="fill: #828282"/>
   </g>
   <g id="patch_109">
    <path d="M 165.975993 136.931688 
C 165.571674 138.264552 165.102157 139.576762 164.569141 140.863578 
C 164.036124 142.150393 163.44025 143.410264 162.78367 144.638638 
L 179.25171 153.440989 
C 180.196404 151.673591 181.053755 149.860876 181.820664 148.009393 
C 182.587574 146.157909 183.263119 144.269888 183.844858 142.352149 
z
" clip-path="url(#p078caec50e)" style="fill: #828282"/>
   </g>
   <g id="patch_110">
    <path d="M 211.923956 170.904668 
C 210.40765 173.741478 208.752978 176.502131 206.965917 179.176656 
C 205.178856 181.851182 203.261561 184.436355 201.220956 186.92284 
L 205.829073 190.704624 
C 207.993462 188.067309 210.027061 185.325318 211.922525 182.488556 
C 213.817989 179.651793 215.573034 176.723678 217.181319 173.714787 
z
" clip-path="url(#p078caec50e)" style="fill: #828282"/>
   </g>
   <g id="patch_111">
    <path d="M 154.805153 148.830374 
C 154.011371 149.7976 153.17058 150.72527 152.285816 151.610034 
C 151.401052 152.494798 150.473381 153.33559 149.506156 154.129371 
L 168.013528 176.680671 
C 169.718892 175.281115 171.354513 173.798674 172.914484 172.238703 
C 174.474456 170.678732 175.956896 169.043111 177.356452 167.337747 
z
" clip-path="url(#p078caec50e)" style="fill: #828282"/>
   </g>
   <g id="patch_112">
    <path d="M 163.931529 171.70674 
C 162.38897 172.972686 160.785186 174.162133 159.12597 175.270786 
C 157.466755 176.379438 155.754107 177.40596 153.994214 178.346642 
L 171.197903 210.53248 
C 174.011286 209.028695 176.749143 207.387687 179.401583 205.615384 
C 182.054022 203.84308 184.617848 201.941617 187.0838 199.917863 
z
" clip-path="url(#p078caec50e)" style="fill: #828282"/>
   </g>
   <g id="patch_113">
    <path d="M 154.84145 179.93171 
C 153.029675 180.900124 151.171446 181.779001 149.273474 182.565167 
C 147.375503 183.351332 145.440076 184.043839 143.474186 184.640185 
L 148.160877 200.090135 
C 150.632467 199.340386 153.065757 198.469741 155.451958 197.481345 
C 157.838158 196.492948 160.174393 195.387991 162.452224 194.170465 
z
" clip-path="url(#p078caec50e)" style="fill: #828282"/>
   </g>
   <g id="patch_114">
    <path d="M 153.875696 218.929369 
C 150.78747 219.866172 147.65511 220.650788 144.489932 221.280381 
C 141.324753 221.909974 138.130571 222.383786 134.918923 222.700106 
L 134.918923 222.700106 
C 138.130571 222.383786 141.324753 221.909974 144.489932 221.280381 
C 147.65511 220.650788 150.78747 219.866172 153.875696 218.929369 
z
" clip-path="url(#p078caec50e)" style="fill: #828282"/>
   </g>
   <g id="patch_115">
    <path d="M 129.84391 171.172633 
C 128.318833 171.32284 126.7873 171.398079 125.254844 171.398079 
C 123.722387 171.398079 122.190855 171.32284 120.665778 171.172633 
L 120.599745 171.843078 
C 122.146766 171.995447 123.700337 172.071769 125.254844 172.071769 
C 126.809351 172.071769 128.362921 171.995447 129.909943 171.843078 
z
" clip-path="url(#p078caec50e)" style="fill: #828282"/>
   </g>
   <g id="patch_116">
    <path d="M 121.590248 161.78633 
C 120.372398 161.666383 119.161172 161.486714 117.960944 161.247974 
C 116.760716 161.009234 115.572932 160.71171 114.401884 160.356476 
L 114.401884 160.356476 
C 115.572932 160.71171 116.760716 161.009234 117.960944 161.247974 
C 119.161172 161.486714 120.372398 161.666383 121.590248 161.78633 
z
" clip-path="url(#p078caec50e)" style="fill: #828282"/>
   </g>
   <g id="patch_117">
    <path d="M 115.999409 155.090143 
C 115.000735 154.787199 114.017538 154.435405 113.053367 154.036033 
C 112.089197 153.63666 111.145215 153.19019 110.224833 152.698236 
L 110.224833 152.698236 
C 111.145215 153.19019 112.089197 153.63666 113.053367 154.036033 
C 114.017538 154.435405 115.000735 154.787199 115.999409 155.090143 
z
" clip-path="url(#p078caec50e)" style="fill: #828282"/>
   </g>
   <g id="patch_118">
    <path d="M 105.911914 160.767138 
C 104.727425 160.134015 103.574733 159.443119 102.458004 158.696944 
C 101.341275 157.95077 100.261854 157.150216 99.22364 156.298176 
L 99.22364 156.298176 
C 100.261854 157.150216 101.341275 157.95077 102.458004 158.696944 
C 103.574733 159.443119 104.727425 160.134015 105.911914 160.767138 
z
" clip-path="url(#p078caec50e)" style="fill: #828282"/>
   </g>
   <g id="patch_119">
    <path d="M 98.259196 157.473354 
C 97.182517 156.589746 96.149869 155.653809 95.164983 154.668923 
C 94.180097 153.684037 93.24416 152.651389 92.360552 151.57471 
L 92.360552 151.57471 
C 93.24416 152.651389 94.180097 153.684037 95.164983 154.668923 
C 96.149869 155.653809 97.182517 156.589746 98.259196 157.473354 
z
" clip-path="url(#p078caec50e)" style="fill: #828282"/>
   </g>
   <g id="patch_120">
    <path d="M 90.948143 152.733844 
C 90.026595 151.610935 89.160734 150.443456 88.353688 149.235626 
C 87.546642 148.027797 86.799383 146.781071 86.114611 145.499953 
L 86.114611 145.499953 
C 86.799383 146.781071 87.546642 148.027797 88.353688 149.235626 
C 89.160734 150.443456 90.026595 151.610935 90.948143 152.733844 
z
" clip-path="url(#p078caec50e)" style="fill: #828282"/>
   </g>
   <g id="patch_121">
    <path d="M 105.371586 135.206885 
C 105.023721 134.556077 104.708019 133.888581 104.42562 133.206809 
C 104.143221 132.525038 103.894466 131.829812 103.680252 131.123643 
L 103.680252 131.123643 
C 103.894466 131.829812 104.143221 132.525038 104.42562 133.206809 
C 104.708019 133.888581 105.023721 134.556077 105.371586 135.206885 
z
" clip-path="url(#p078caec50e)" style="fill: #828282"/>
   </g>
   <g id="patch_122">
    <path d="M 105.807769 130.478268 
C 105.614679 129.841736 105.452958 129.196108 105.323189 128.543715 
C 105.19342 127.891322 105.09576 127.232951 105.030561 126.57098 
L 105.030561 126.57098 
C 105.09576 127.232951 105.19342 127.891322 105.323189 128.543715 
C 105.452958 129.196108 105.614679 129.841736 105.807769 130.478268 
z
" clip-path="url(#p078caec50e)" style="fill: #828282"/>
   </g>
   <g id="patch_123">
    <path d="M 107.516975 126.32609 
C 107.459792 125.745503 107.431149 125.162459 107.431149 124.579063 
C 107.431149 123.995666 107.459792 123.412622 107.516975 122.832035 
L 107.516975 122.832035 
C 107.459792 123.412622 107.431149 123.995666 107.431149 124.579063 
C 107.431149 125.162459 107.459792 125.745503 107.516975 126.32609 
z
" clip-path="url(#p078caec50e)" style="fill: #828282"/>
   </g>
   <g id="patch_124">
    <path d="M 108.427224 122.921687 
C 108.481472 122.370893 108.56273 121.823096 108.670704 121.280272 
C 108.778679 120.737448 108.913239 120.200253 109.0739 119.670627 
L 109.0739 119.670627 
C 108.913239 120.200253 108.778679 120.737448 108.670704 121.280272 
C 108.56273 121.823096 108.481472 122.370893 108.427224 122.921687 
z
" clip-path="url(#p078caec50e)" style="fill: #828282"/>
   </g>
   <g id="patch_125">
    <path d="M 99.956392 116.904861 
C 100.20758 116.076805 100.499272 115.261581 100.830414 114.462133 
C 101.161556 113.662685 101.53175 112.879976 101.939657 112.116836 
L 101.939657 112.116836 
C 101.53175 112.879976 101.161556 113.662685 100.830414 114.462133 
C 100.499272 115.261581 100.20758 116.076805 99.956392 116.904861 
z
" clip-path="url(#p078caec50e)" style="fill: #828282"/>
   </g>
   <g id="patch_126">
    <path d="M 116.64514 119.97708 
C 116.79577 119.695272 116.960145 119.421029 117.137672 119.155342 
C 117.315198 118.889654 117.505662 118.632843 117.708376 118.385836 
L 117.708376 118.385836 
C 117.505662 118.632843 117.315198 118.889654 117.137672 119.155342 
C 116.960145 119.421029 116.79577 119.695272 116.64514 119.97708 
z
" clip-path="url(#p078caec50e)" style="fill: #828282"/>
   </g>
   <g id="patch_127">
    <path d="M 108.95261 111.200165 
C 109.390521 110.666568 109.854366 110.154794 110.342471 109.666689 
C 110.830575 109.178585 111.342349 108.71474 111.875946 108.276828 
L 111.875946 108.276828 
C 111.342349 108.71474 110.830575 109.178585 110.342471 109.666689 
C 109.854366 110.154794 109.390521 110.666568 108.95261 111.200165 
z
" clip-path="url(#p078caec50e)" style="fill: #828282"/>
   </g>
   <g id="patch_128">
    <path d="M 113.395718 110.128676 
C 113.868701 109.74051 114.360457 109.375799 114.869209 109.035861 
C 115.377961 108.695924 115.903097 108.38117 116.442719 108.092736 
L 116.442719 108.092736 
C 115.903097 108.38117 115.377961 108.695924 114.869209 109.035861 
C 114.360457 109.375799 113.868701 109.74051 113.395718 110.128676 
z
" clip-path="url(#p078caec50e)" style="fill: #828282"/>
   </g>
   <g id="patch_129">
    <path d="M 119.940932 114.637434 
C 120.266337 114.463501 120.600085 114.30565 120.94097 114.164451 
C 121.281856 114.023251 121.629469 113.898873 121.982553 113.791766 
L 121.982553 113.791766 
C 121.629469 113.898873 121.281856 114.023251 120.94097 114.164451 
C 120.600085 114.30565 120.266337 114.463501 119.940932 114.637434 
z
" clip-path="url(#p078caec50e)" style="fill: #828282"/>
   </g>
   <g id="patch_130">
    <path d="M 125.254844 124.579063 
C 125.254844 124.579063 125.254844 124.579063 125.254844 124.579063 
C 125.254844 124.579063 125.254844 124.579063 125.254844 124.579063 
L 125.254844 124.579063 
C 125.254844 124.579063 125.254844 124.579063 125.254844 124.579063 
C 125.254844 124.579063 125.254844 124.579063 125.254844 124.579063 
z
" clip-path="url(#p078caec50e)" style="fill: #828282"/>
   </g>
   <g id="patch_131">
    <path d="M 125.254844 124.579063 
C 125.254844 124.579063 125.254844 124.579063 125.254844 124.579063 
C 125.254844 124.579063 125.254844 124.579063 125.254844 124.579063 
L 125.254844 124.579063 
C 125.254844 124.579063 125.254844 124.579063 125.254844 124.579063 
C 125.254844 124.579063 125.254844 124.579063 125.254844 124.579063 
L 125.254844 124.579063 
z
" clip-path="url(#p078caec50e)" style="fill: none; stroke: #292929; stroke-width: 0.5; stroke-linejoin: miter"/>
   </g>
   <g id="patch_132">
    <path d="M 125.254844 124.579063 
C 125.254844 124.579063 125.254844 124.579063 125.254844 124.579063 
C 125.254844 124.579063 125.254844 124.579063 125.254844 124.579063 
L 133.101521 98.712035 
C 132.254854 98.455202 131.396088 98.240092 130.528325 98.067483 
C 129.660561 97.894874 128.784846 97.764974 127.904342 97.678252 
L 125.254844 124.579063 
z
" clip-path="url(#p078caec50e)" style="fill: none; stroke: #292929; stroke-width: 0.5; stroke-linejoin: miter"/>
   </g>
   <g id="patch_133">
    <path d="M 125.254844 124.579063 
C 125.254844 124.579063 125.254844 124.579063 125.254844 124.579063 
C 125.254844 124.579063 125.254844 124.579063 125.254844 124.579063 
L 130.568755 114.637434 
C 130.243351 114.463501 129.909603 114.30565 129.568717 114.164451 
C 129.227831 114.023251 128.880219 113.898873 128.527134 113.791766 
L 125.254844 124.579063 
z
" clip-path="url(#p078caec50e)" style="fill: none; stroke: #292929; stroke-width: 0.5; stroke-linejoin: miter"/>
   </g>
   <g id="patch_134">
    <path d="M 125.254844 124.579063 
C 125.254844 124.579063 125.254844 124.579063 125.254844 124.579063 
C 125.254844 124.579063 125.254844 124.579063 125.254844 124.579063 
L 143.487208 102.362862 
C 142.760039 101.76609 142.004008 101.205379 141.221846 100.682755 
C 140.439684 100.160131 139.632334 99.676224 138.802713 99.232782 
L 125.254844 124.579063 
z
" clip-path="url(#p078caec50e)" style="fill: none; stroke: #292929; stroke-width: 0.5; stroke-linejoin: miter"/>
   </g>
   <g id="patch_135">
    <path d="M 125.254844 124.579063 
C 125.254844 124.579063 125.254844 124.579063 125.254844 124.579063 
C 125.254844 124.579063 125.254844 124.579063 125.254844 124.579063 
L 145.220921 108.193326 
C 144.684592 107.539806 144.116499 106.913013 143.518696 106.31521 
C 142.920893 105.717407 142.2941 105.149314 141.64058 104.612985 
L 125.254844 124.579063 
z
" clip-path="url(#p078caec50e)" style="fill: none; stroke: #292929; stroke-width: 0.5; stroke-linejoin: miter"/>
   </g>
   <g id="patch_136">
    <path d="M 125.254844 124.579063 
C 125.254844 124.579063 125.254844 124.579063 125.254844 124.579063 
C 125.254844 124.579063 125.254844 124.579063 125.254844 124.579063 
L 200.640978 84.284334 
C 199.322071 81.816833 197.882812 79.415575 196.328399 77.089231 
C 194.773986 74.762887 193.106293 72.514263 191.331343 70.351481 
L 125.254844 124.579063 
z
" clip-path="url(#p078caec50e)" style="fill: none; stroke: #292929; stroke-width: 0.5; stroke-linejoin: miter"/>
   </g>
   <g id="patch_137">
    <path d="M 125.254844 124.579063 
C 125.254844 124.579063 125.254844 124.579063 125.254844 124.579063 
C 125.254844 124.579063 125.254844 124.579063 125.254844 124.579063 
L 231.36039 92.392297 
C 230.306869 88.919304 229.083469 85.500129 227.694608 82.147123 
C 226.305747 78.794116 224.7531 75.51132 223.042275 72.310591 
L 125.254844 124.579063 
z
" clip-path="url(#p078caec50e)" style="fill: none; stroke: #292929; stroke-width: 0.5; stroke-linejoin: miter"/>
   </g>
   <g id="patch_138">
    <path d="M 125.254844 124.579063 
C 125.254844 124.579063 125.254844 124.579063 125.254844 124.579063 
C 125.254844 124.579063 125.254844 124.579063 125.254844 124.579063 
L 189.455149 118.255884 
C 189.248182 116.154513 188.938168 114.064569 188.526227 111.993602 
C 188.114286 109.922635 187.600915 107.873142 186.987967 105.852524 
L 125.254844 124.579063 
z
" clip-path="url(#p078caec50e)" style="fill: none; stroke: #292929; stroke-width: 0.5; stroke-linejoin: miter"/>
   </g>
   <g id="patch_139">
    <path d="M 125.254844 124.579063 
C 125.254844 124.579063 125.254844 124.579063 125.254844 124.579063 
C 125.254844 124.579063 125.254844 124.579063 125.254844 124.579063 
L 172.51886 129.234162 
C 172.671228 127.68714 172.74755 126.13357 172.74755 124.579063 
C 172.74755 123.024555 172.671228 121.470985 172.51886 119.923963 
L 125.254844 124.579063 
z
" clip-path="url(#p078caec50e)" style="fill: none; stroke: #292929; stroke-width: 0.5; stroke-linejoin: miter"/>
   </g>
   <g id="patch_140">
    <path d="M 125.254844 124.579063 
C 125.254844 124.579063 125.254844 124.579063 125.254844 124.579063 
C 125.254844 124.579063 125.254844 124.579063 125.254844 124.579063 
L 221.889992 153.893014 
C 222.849482 150.730002 223.653098 147.521787 224.297937 144.279959 
C 224.942777 141.03813 225.428063 137.766596 225.752043 134.477173 
L 125.254844 124.579063 
z
" clip-path="url(#p078caec50e)" style="fill: none; stroke: #292929; stroke-width: 0.5; stroke-linejoin: miter"/>
   </g>
   <g id="patch_141">
    <path d="M 125.254844 124.579063 
C 125.254844 124.579063 125.254844 124.579063 125.254844 124.579063 
C 125.254844 124.579063 125.254844 124.579063 125.254844 124.579063 
L 179.25171 153.440989 
C 180.196404 151.673591 181.053755 149.860876 181.820664 148.009393 
C 182.587574 146.157909 183.263119 144.269888 183.844858 142.352149 
L 125.254844 124.579063 
z
" clip-path="url(#p078caec50e)" style="fill: none; stroke: #292929; stroke-width: 0.5; stroke-linejoin: miter"/>
   </g>
   <g id="patch_142">
    <path d="M 125.254844 124.579063 
C 125.254844 124.579063 125.254844 124.579063 125.254844 124.579063 
C 125.254844 124.579063 125.254844 124.579063 125.254844 124.579063 
L 205.829073 190.704624 
C 207.993462 188.067309 210.027061 185.325318 211.922525 182.488556 
C 213.817989 179.651793 215.573034 176.723678 217.181319 173.714787 
L 125.254844 124.579063 
z
" clip-path="url(#p078caec50e)" style="fill: none; stroke: #292929; stroke-width: 0.5; stroke-linejoin: miter"/>
   </g>
   <g id="patch_143">
    <path d="M 125.254844 124.579063 
C 125.254844 124.579063 125.254844 124.579063 125.254844 124.579063 
C 125.254844 124.579063 125.254844 124.579063 125.254844 124.579063 
L 168.013528 176.680671 
C 169.718892 175.281115 171.354513 173.798674 172.914484 172.238703 
C 174.474456 170.678732 175.956896 169.043111 177.356452 167.337747 
L 125.254844 124.579063 
z
" clip-path="url(#p078caec50e)" style="fill: none; stroke: #292929; stroke-width: 0.5; stroke-linejoin: miter"/>
   </g>
   <g id="patch_144">
    <path d="M 125.254844 124.579063 
C 125.254844 124.579063 125.254844 124.579063 125.254844 124.579063 
C 125.254844 124.579063 125.254844 124.579063 125.254844 124.579063 
L 171.197903 210.53248 
C 174.011286 209.028695 176.749143 207.387687 179.401583 205.615384 
C 182.054022 203.84308 184.617848 201.941617 187.0838 199.917863 
L 125.254844 124.579063 
z
" clip-path="url(#p078caec50e)" style="fill: none; stroke: #292929; stroke-width: 0.5; stroke-linejoin: miter"/>
   </g>
   <g id="patch_145">
    <path d="M 125.254844 124.579063 
C 125.254844 124.579063 125.254844 124.579063 125.254844 124.579063 
C 125.254844 124.579063 125.254844 124.579063 125.254844 124.579063 
L 148.160877 200.090135 
C 150.632467 199.340386 153.065757 198.469741 155.451958 197.481345 
C 157.838158 196.492948 160.174393 195.387991 162.452224 194.170465 
L 125.254844 124.579063 
z
" clip-path="url(#p078caec50e)" style="fill: none; stroke: #292929; stroke-width: 0.5; stroke-linejoin: miter"/>
   </g>
   <g id="patch_146">
    <path d="M 125.254844 124.579063 
C 125.254844 124.579063 125.254844 124.579063 125.254844 124.579063 
C 125.254844 124.579063 125.254844 124.579063 125.254844 124.579063 
L 134.918923 222.700106 
C 138.130571 222.383786 141.324753 221.909974 144.489932 221.280381 
C 147.65511 220.650788 150.78747 219.866172 153.875696 218.929369 
L 125.254844 124.579063 
z
" clip-path="url(#p078caec50e)" style="fill: none; stroke: #292929; stroke-width: 0.5; stroke-linejoin: miter"/>
   </g>
   <g id="patch_147">
    <path d="M 125.254844 124.579063 
C 125.254844 124.579063 125.254844 124.579063 125.254844 124.579063 
C 125.254844 124.579063 125.254844 124.579063 125.254844 124.579063 
L 120.599745 171.843078 
C 122.146766 171.995447 123.700337 172.071769 125.254844 172.071769 
C 126.809351 172.071769 128.362921 171.995447 129.909943 171.843078 
L 125.254844 124.579063 
z
" clip-path="url(#p078caec50e)" style="fill: none; stroke: #292929; stroke-width: 0.5; stroke-linejoin: miter"/>
   </g>
   <g id="patch_148">
    <path d="M 125.254844 124.579063 
C 125.254844 124.579063 125.254844 124.579063 125.254844 124.579063 
C 125.254844 124.579063 125.254844 124.579063 125.254844 124.579063 
L 114.401884 160.356476 
C 115.572932 160.71171 116.760716 161.009234 117.960944 161.247974 
C 119.161172 161.486714 120.372398 161.666383 121.590248 161.78633 
L 125.254844 124.579063 
z
" clip-path="url(#p078caec50e)" style="fill: none; stroke: #292929; stroke-width: 0.5; stroke-linejoin: miter"/>
   </g>
   <g id="patch_149">
    <path d="M 125.254844 124.579063 
C 125.254844 124.579063 125.254844 124.579063 125.254844 124.579063 
C 125.254844 124.579063 125.254844 124.579063 125.254844 124.579063 
L 110.224833 152.698236 
C 111.145215 153.19019 112.089197 153.63666 113.053367 154.036033 
C 114.017538 154.435405 115.000735 154.787199 115.999409 155.090143 
L 125.254844 124.579063 
z
" clip-path="url(#p078caec50e)" style="fill: none; stroke: #292929; stroke-width: 0.5; stroke-linejoin: miter"/>
   </g>
   <g id="patch_150">
    <path d="M 125.254844 124.579063 
C 125.254844 124.579063 125.254844 124.579063 125.254844 124.579063 
C 125.254844 124.579063 125.254844 124.579063 125.254844 124.579063 
L 99.22364 156.298176 
C 100.261854 157.150216 101.341275 157.95077 102.458004 158.696944 
C 103.574733 159.443119 104.727425 160.134015 105.911914 160.767138 
L 125.254844 124.579063 
z
" clip-path="url(#p078caec50e)" style="fill: none; stroke: #292929; stroke-width: 0.5; stroke-linejoin: miter"/>
   </g>
   <g id="patch_151">
    <path d="M 125.254844 124.579063 
C 125.254844 124.579063 125.254844 124.579063 125.254844 124.579063 
C 125.254844 124.579063 125.254844 124.579063 125.254844 124.579063 
L 92.360552 151.57471 
C 93.24416 152.651389 94.180097 153.684037 95.164983 154.668923 
C 96.149869 155.653809 97.182517 156.589746 98.259196 157.473354 
L 125.254844 124.579063 
z
" clip-path="url(#p078caec50e)" style="fill: none; stroke: #292929; stroke-width: 0.5; stroke-linejoin: miter"/>
   </g>
   <g id="patch_152">
    <path d="M 125.254844 124.579063 
C 125.254844 124.579063 125.254844 124.579063 125.254844 124.579063 
C 125.254844 124.579063 125.254844 124.579063 125.254844 124.579063 
L 86.114611 145.499953 
C 86.799383 146.781071 87.546642 148.027797 88.353688 149.235626 
C 89.160734 150.443456 90.026595 151.610935 90.948143 152.733844 
L 125.254844 124.579063 
z
" clip-path="url(#p078caec50e)" style="fill: none; stroke: #292929; stroke-width: 0.5; stroke-linejoin: miter"/>
   </g>
   <g id="patch_153">
    <path d="M 125.254844 124.579063 
C 125.254844 124.579063 125.254844 124.579063 125.254844 124.579063 
C 125.254844 124.579063 125.254844 124.579063 125.254844 124.579063 
L 103.680252 131.123643 
C 103.894466 131.829812 104.143221 132.525038 104.42562 133.206809 
C 104.708019 133.888581 105.023721 134.556077 105.371586 135.206885 
L 125.254844 124.579063 
z
" clip-path="url(#p078caec50e)" style="fill: none; stroke: #292929; stroke-width: 0.5; stroke-linejoin: miter"/>
   </g>
   <g id="patch_154">
    <path d="M 125.254844 124.579063 
C 125.254844 124.579063 125.254844 124.579063 125.254844 124.579063 
C 125.254844 124.579063 125.254844 124.579063 125.254844 124.579063 
L 105.030561 126.57098 
C 105.09576 127.232951 105.19342 127.891322 105.323189 128.543715 
C 105.452958 129.196108 105.614679 129.841736 105.807769 130.478268 
L 125.254844 124.579063 
z
" clip-path="url(#p078caec50e)" style="fill: none; stroke: #292929; stroke-width: 0.5; stroke-linejoin: miter"/>
   </g>
   <g id="patch_155">
    <path d="M 125.254844 124.579063 
C 125.254844 124.579063 125.254844 124.579063 125.254844 124.579063 
C 125.254844 124.579063 125.254844 124.579063 125.254844 124.579063 
L 107.516975 122.832035 
C 107.459792 123.412622 107.431149 123.995666 107.431149 124.579063 
C 107.431149 125.162459 107.459792 125.745503 107.516975 126.32609 
L 125.254844 124.579063 
z
" clip-path="url(#p078caec50e)" style="fill: none; stroke: #292929; stroke-width: 0.5; stroke-linejoin: miter"/>
   </g>
   <g id="patch_156">
    <path d="M 125.254844 124.579063 
C 125.254844 124.579063 125.254844 124.579063 125.254844 124.579063 
C 125.254844 124.579063 125.254844 124.579063 125.254844 124.579063 
L 109.0739 119.670627 
C 108.913239 120.200253 108.778679 120.737448 108.670704 121.280272 
C 108.56273 121.823096 108.481472 122.370893 108.427224 122.921687 
L 125.254844 124.579063 
z
" clip-path="url(#p078caec50e)" style="fill: none; stroke: #292929; stroke-width: 0.5; stroke-linejoin: miter"/>
   </g>
   <g id="patch_157">
    <path d="M 125.254844 124.579063 
C 125.254844 124.579063 125.254844 124.579063 125.254844 124.579063 
C 125.254844 124.579063 125.254844 124.579063 125.254844 124.579063 
L 101.939657 112.116836 
C 101.53175 112.879976 101.161556 113.662685 100.830414 114.462133 
C 100.499272 115.261581 100.20758 116.076805 99.956392 116.904861 
L 125.254844 124.579063 
z
" clip-path="url(#p078caec50e)" style="fill: none; stroke: #292929; stroke-width: 0.5; stroke-linejoin: miter"/>
   </g>
   <g id="patch_158">
    <path d="M 125.254844 124.579063 
C 125.254844 124.579063 125.254844 124.579063 125.254844 124.579063 
C 125.254844 124.579063 125.254844 124.579063 125.254844 124.579063 
L 117.708376 118.385836 
C 117.505662 118.632843 117.315198 118.889654 117.137672 119.155342 
C 116.960145 119.421029 116.79577 119.695272 116.64514 119.97708 
L 125.254844 124.579063 
z
" clip-path="url(#p078caec50e)" style="fill: none; stroke: #292929; stroke-width: 0.5; stroke-linejoin: miter"/>
   </g>
   <g id="patch_159">
    <path d="M 125.254844 124.579063 
C 125.254844 124.579063 125.254844 124.579063 125.254844 124.579063 
C 125.254844 124.579063 125.254844 124.579063 125.254844 124.579063 
L 111.875946 108.276828 
C 111.342349 108.71474 110.830575 109.178585 110.342471 109.666689 
C 109.854366 110.154794 109.390521 110.666568 108.95261 111.200165 
L 125.254844 124.579063 
z
" clip-path="url(#p078caec50e)" style="fill: none; stroke: #292929; stroke-width: 0.5; stroke-linejoin: miter"/>
   </g>
   <g id="patch_160">
    <path d="M 125.254844 124.579063 
C 125.254844 124.579063 125.254844 124.579063 125.254844 124.579063 
C 125.254844 124.579063 125.254844 124.579063 125.254844 124.579063 
L 116.442719 108.092736 
C 115.903097 108.38117 115.377961 108.695924 114.869209 109.035861 
C 114.360457 109.375799 113.868701 109.74051 113.395718 110.128676 
L 125.254844 124.579063 
z
" clip-path="url(#p078caec50e)" style="fill: none; stroke: #292929; stroke-width: 0.5; stroke-linejoin: miter"/>
   </g>
   <g id="patch_161">
    <path d="M 125.254844 124.579063 
C 125.254844 124.579063 125.254844 124.579063 125.254844 124.579063 
C 125.254844 124.579063 125.254844 124.579063 125.254844 124.579063 
L 121.982553 113.791766 
C 121.629469 113.898873 121.281856 114.023251 120.94097 114.164451 
C 120.600085 114.30565 120.266337 114.463501 119.940932 114.637434 
L 125.254844 124.579063 
z
" clip-path="url(#p078caec50e)" style="fill: none; stroke: #292929; stroke-width: 0.5; stroke-linejoin: miter"/>
   </g>
   <g id="patch_162">
    <path d="M 125.254844 124.579063 
C 125.254844 124.579063 125.254844 124.579063 125.254844 124.579063 
C 125.254844 124.579063 125.254844 124.579063 125.254844 124.579063 
L 125.254844 124.579063 
C 125.254844 124.579063 125.254844 124.579063 125.254844 124.579063 
C 125.254844 124.579063 125.254844 124.579063 125.254844 124.579063 
L 125.254844 124.579063 
z
" clip-path="url(#p078caec50e)" style="fill: none; stroke: #292929; stroke-width: 0.5; stroke-linejoin: miter"/>
   </g>
   <g id="PathCollection_1">
    <defs>
     <path id="m5aa2dd2ea7" d="M 0.193618 7.414054 
L 0.193618 7.414054 
C 0.054922 7.414054 -0.078235 7.358899 -0.176308 7.260826 
C -0.274381 7.162753 -0.329536 7.029596 -0.329536 6.890901 
L -0.329536 5.365008 
L -1.528416 6.56393 
L -1.528416 6.56393 
C -1.577018 6.612704 -1.634775 6.651408 -1.698366 6.677814 
C -1.761958 6.704221 -1.830141 6.717815 -1.898997 6.717815 
C -1.967853 6.717815 -2.036037 6.704221 -2.099628 6.677814 
C -2.163219 6.651408 -2.220976 6.612704 -2.269578 6.56393 
L -2.269578 6.56393 
C -2.318353 6.515327 -2.357056 6.457571 -2.383463 6.393979 
C -2.409869 6.330388 -2.423463 6.262205 -2.423463 6.193348 
C -2.423463 6.124492 -2.409869 6.056309 -2.383463 5.992718 
C -2.357056 5.929126 -2.318353 5.87137 -2.269578 5.822767 
L -0.329536 3.884106 
L -0.329536 0.820937 
L -2.98067 2.351538 
L -3.691824 5.001416 
L -3.691824 5.001416 
C -3.727584 5.135411 -3.815199 5.249836 -3.93523 5.319305 
C -4.055261 5.388775 -4.198123 5.407741 -4.332122 5.371997 
L -4.332122 5.371997 
C -4.466126 5.336237 -4.580558 5.248616 -4.650029 5.128576 
C -4.719499 5.008535 -4.73846 4.865662 -4.702703 4.731657 
L -4.262647 3.092721 
L -5.585535 3.855668 
L -5.585535 3.855668 
C -5.645013 3.890144 -5.710708 3.912561 -5.778854 3.921634 
C -5.847001 3.930706 -5.916272 3.926258 -5.982698 3.908543 
C -6.049125 3.890828 -6.111412 3.860192 -6.165991 3.818391 
C -6.220571 3.77659 -6.266379 3.724437 -6.300791 3.664922 
L -6.300791 3.664922 
C -6.335212 3.605364 -6.35755 3.539597 -6.366524 3.471396 
C -6.375498 3.403194 -6.370933 3.333888 -6.35309 3.267452 
C -6.335248 3.201017 -6.304476 3.138749 -6.26254 3.08422 
C -6.220605 3.029692 -6.168323 2.983966 -6.108695 2.949666 
L -4.785807 2.186762 
L -6.424743 1.746706 
L -6.424743 1.746706 
C -6.558747 1.710946 -6.673179 1.623325 -6.74265 1.503284 
C -6.81212 1.383244 -6.831081 1.240371 -6.795324 1.106366 
L -6.795324 1.106366 
C -6.777471 1.039969 -6.746703 0.977739 -6.704784 0.923241 
C -6.662864 0.868744 -6.61061 0.823041 -6.551015 0.788752 
C -6.491421 0.754464 -6.425647 0.732257 -6.357465 0.723406 
C -6.289282 0.714554 -6.220019 0.71923 -6.153645 0.737166 
L -3.505232 1.44698 
L -0.852424 -0.08496 
L -3.503767 -1.615666 
L -6.153645 -0.905851 
L -6.153645 -0.905851 
C -6.22011 -0.887939 -6.289462 -0.883321 -6.357716 -0.892262 
C -6.42597 -0.901202 -6.491793 -0.923527 -6.551403 -0.957953 
C -6.611013 -0.992379 -6.663247 -1.038234 -6.705103 -1.092883 
C -6.746958 -1.147533 -6.777619 -1.209911 -6.795324 -1.276432 
L -6.795324 -1.276432 
C -6.831068 -1.410431 -6.812101 -1.553293 -6.742632 -1.673324 
C -6.673162 -1.793355 -6.558738 -1.88097 -6.424743 -1.91673 
L -4.785807 -2.355447 
L -6.108695 -3.119732 
L -6.108695 -3.119732 
C -6.228699 -3.188976 -6.316415 -3.303132 -6.352417 -3.436921 
C -6.388419 -3.57071 -6.369839 -3.713469 -6.300791 -3.833586 
L -6.300791 -3.833586 
C -6.266491 -3.893214 -6.220765 -3.945496 -6.166237 -3.987431 
C -6.111708 -4.029367 -6.04944 -4.060139 -5.983005 -4.077981 
C -5.91657 -4.095823 -5.847263 -4.100389 -5.779062 -4.091415 
C -5.71086 -4.082441 -5.645094 -4.060102 -5.585535 -4.025682 
L -4.262647 -3.261396 
L -4.702703 -4.900332 
L -4.702703 -4.900332 
C -4.73846 -5.034337 -4.719499 -5.17721 -4.650029 -5.29725 
C -4.580558 -5.417291 -4.466126 -5.504912 -4.332122 -5.540672 
L -4.332122 -5.540672 
C -4.19831 -5.576464 -4.055613 -5.557686 -3.935617 -5.488496 
C -3.81562 -5.419305 -3.727882 -5.305212 -3.691824 -5.171472 
L -2.982009 -2.521594 
L -0.329411 -0.990302 
L -0.329411 -4.051588 
L -2.269453 -5.991589 
L -2.269453 -5.991589 
C -2.318227 -6.040191 -2.356931 -6.097947 -2.383337 -6.161539 
C -2.409744 -6.22513 -2.423338 -6.293314 -2.423338 -6.36217 
C -2.423338 -6.431026 -2.409744 -6.499209 -2.383337 -6.5628 
C -2.356931 -6.626392 -2.318227 -6.684149 -2.269453 -6.732751 
L -2.269453 -6.732751 
C -2.22085 -6.781526 -2.163094 -6.820229 -2.099502 -6.846635 
C -2.035911 -6.873042 -1.967728 -6.886636 -1.898871 -6.886636 
C -1.830015 -6.886636 -1.761832 -6.873042 -1.698241 -6.846635 
C -1.634649 -6.820229 -1.576893 -6.781526 -1.52829 -6.732751 
L -0.329411 -5.533829 
L -0.329411 -7.059722 
L -0.329411 -7.059722 
C -0.329411 -7.198418 -0.274255 -7.331575 -0.176182 -7.429647 
C -0.07811 -7.52772 0.055047 -7.582875 0.193743 -7.582875 
L 0.193743 -7.582875 
C 0.332439 -7.582875 0.465596 -7.52772 0.563669 -7.429647 
C 0.661741 -7.331575 0.716897 -7.198418 0.716897 -7.059722 
L 0.716897 -5.533829 
L 1.915777 -6.732751 
L 1.915777 -6.732751 
C 1.964379 -6.781526 2.022136 -6.820229 2.085727 -6.846635 
C 2.149318 -6.873042 2.217502 -6.886636 2.286358 -6.886636 
C 2.355214 -6.886636 2.423397 -6.873042 2.486989 -6.846635 
C 2.55058 -6.820229 2.608337 -6.781526 2.656939 -6.732751 
L 2.656939 -6.732751 
C 2.705714 -6.684149 2.744417 -6.626392 2.770823 -6.5628 
C 2.79723 -6.499209 2.810824 -6.431026 2.810824 -6.36217 
C 2.810824 -6.293314 2.79723 -6.22513 2.770823 -6.161539 
C 2.744417 -6.097947 2.705714 -6.040191 2.656939 -5.991589 
L 0.716897 -4.051588 
L 0.716897 -0.991139 
L 3.369495 -2.522954 
L 4.07931 -5.171367 
L 4.07931 -5.171367 
C 4.115368 -5.305107 4.203106 -5.4192 4.323103 -5.488391 
C 4.4431 -5.557582 4.585797 -5.576359 4.719608 -5.540567 
L 4.719608 -5.540567 
C 4.853612 -5.504807 4.968045 -5.417186 5.037515 -5.297146 
C 5.106986 -5.177105 5.125946 -5.034232 5.090189 -4.900227 
L 4.650133 -3.262673 
L 5.973022 -4.025577 
L 5.973022 -4.025577 
C 6.03258 -4.059998 6.098346 -4.082336 6.166548 -4.09131 
C 6.234749 -4.100284 6.304056 -4.095719 6.370491 -4.077876 
C 6.436926 -4.060034 6.499194 -4.029262 6.553723 -3.987327 
C 6.608252 -3.945391 6.653978 -3.893109 6.688277 -3.833481 
L 6.688277 -3.833481 
C 6.757325 -3.713365 6.775905 -3.570605 6.739903 -3.436816 
C 6.703901 -3.303027 6.616186 -3.188871 6.496181 -3.119628 
L 5.173293 -2.355342 
L 6.812229 -1.916625 
L 6.812229 -1.916625 
C 6.946224 -1.880865 7.060649 -1.79325 7.130118 -1.67322 
C 7.199588 -1.553189 7.218554 -1.410326 7.18281 -1.276327 
L 7.18281 -1.276327 
C 7.165106 -1.209806 7.134445 -1.147429 7.092589 -1.092779 
C 7.050733 -1.038129 6.998499 -0.992274 6.938889 -0.957848 
C 6.879279 -0.923422 6.813456 -0.901098 6.745202 -0.892157 
C 6.676949 -0.883217 6.607597 -0.887835 6.541131 -0.905746 
L 3.891253 -1.615561 
L 1.239492 -0.084604 
L 3.892718 1.447085 
L 6.541131 0.73727 
L 6.541131 0.73727 
C 6.674948 0.701466 6.817656 0.720237 6.937662 0.789429 
C 7.057669 0.858621 7.145413 0.972721 7.181471 1.10647 
L 7.181471 1.10647 
C 7.217274 1.240293 7.198497 1.383006 7.129297 1.503014 
C 7.060096 1.623021 6.945986 1.710762 6.812229 1.74681 
L 5.173293 2.186866 
L 6.496181 2.949771 
L 6.496181 2.949771 
C 6.555697 2.984183 6.607849 3.029991 6.649651 3.08457 
C 6.691452 3.13915 6.722088 3.201437 6.739803 3.267863 
C 6.757517 3.33429 6.761966 3.403561 6.752893 3.471707 
C 6.743821 3.539854 6.721404 3.605549 6.686927 3.665026 
L 6.686927 3.665026 
C 6.617458 3.784813 6.503196 3.87225 6.369416 3.907994 
C 6.235636 3.943739 6.092989 3.924946 5.973032 3.855772 
L 4.650144 3.091487 
L 5.08886 4.731783 
L 5.08886 4.731783 
C 5.124664 4.865606 5.105887 5.008319 5.036686 5.128326 
C 4.967486 5.248334 4.853376 5.336074 4.719619 5.372123 
L 4.719619 5.372123 
C 4.585619 5.407867 4.442757 5.3889 4.322726 5.319431 
C 4.202695 5.249961 4.115081 5.135537 4.07932 5.001542 
L 3.368166 2.351664 
L 0.717033 0.821063 
L 0.717033 3.884232 
L 2.657075 5.822893 
L 2.657075 5.822893 
C 2.70585 5.871495 2.744553 5.929252 2.770959 5.992843 
C 2.797366 6.056435 2.81096 6.124618 2.81096 6.193474 
C 2.81096 6.26233 2.797366 6.330514 2.770959 6.394105 
C 2.744553 6.457696 2.70585 6.515453 2.657075 6.564055 
L 2.657075 6.564055 
C 2.608473 6.61283 2.550716 6.651533 2.487125 6.67794 
C 2.423533 6.704346 2.35535 6.71794 2.286494 6.71794 
C 2.217638 6.71794 2.149454 6.704346 2.085863 6.67794 
C 2.022272 6.651533 1.964515 6.61283 1.915913 6.564055 
L 0.717033 5.365133 
L 0.717033 6.891026 
L 0.717033 6.891026 
C 0.717033 7.029722 0.661877 7.162879 0.563805 7.260952 
C 0.465732 7.359024 0.332575 7.41418 0.193879 7.41418 
L 0.193618 7.414054 
z
"/>
    </defs>
    <g clip-path="url(#p078caec50e)">
     <use xlink:href="#m5aa2dd2ea7" x="186.096612" y="161.154982" style="fill: #9e2096; fill-opacity: 0.7"/>
    </g>
   </g>
   <g id="patch_163">
    <path d="M 125.254844 13.699063 
C 110.694216 13.699063 96.275171 16.567189 82.822905 22.1393 
C 69.370638 27.711411 57.146763 35.879144 46.850844 46.175063 
C 36.554925 56.470982 28.387192 68.694857 22.815081 82.147124 
C 17.24297 95.59939 14.374844 110.018434 14.374844 124.579063 
C 14.374844 139.139691 17.24297 153.558735 22.815081 167.011001 
C 28.387192 180.463268 36.554925 192.687143 46.850844 202.983062 
C 57.146763 213.278981 69.370638 221.446714 82.822905 227.018825 
C 96.275171 232.590936 110.694216 235.459063 125.254844 235.459063 
C 139.815472 235.459063 154.234516 232.590936 167.686783 227.018825 
C 181.139049 221.446714 193.362925 213.278981 203.658844 202.983062 
C 213.954763 192.687143 222.122495 180.463268 227.694606 167.011001 
C 233.266717 153.558735 236.134844 139.139691 236.134844 124.579063 
C 236.134844 110.018434 233.266717 95.59939 227.694606 82.147124 
C 222.122495 68.694857 213.954763 56.470982 203.658844 46.175063 
C 193.362925 35.879144 181.139049 27.711411 167.686783 22.1393 
C 154.234516 16.567189 139.815472 13.699063 125.254844 13.699063 
" style="fill: none; stroke: #000000; stroke-width: 0.8; stroke-linejoin: miter; stroke-linecap: square"/>
   </g>
  </g>
 </g>
 <defs>
  <clipPath id="p078caec50e">
   <path d="M 236.134844 124.579063 
C 236.134844 110.018434 233.266717 95.59939 227.694606 82.147124 
C 222.122495 68.694857 213.954763 56.470982 203.658844 46.175063 
C 193.362925 35.879144 181.139049 27.711411 167.686783 22.1393 
C 154.234516 16.567189 139.815472 13.699063 125.254844 13.699063 
C 110.694216 13.699063 96.275171 16.567189 82.822905 22.1393 
C 69.370638 27.711411 57.146763 35.879144 46.850844 46.175063 
C 36.554925 56.470982 28.387192 68.694857 22.815081 82.147124 
C 17.24297 95.59939 14.374844 110.018434 14.374844 124.579062 
C 14.374844 139.139691 17.24297 153.558735 22.815081 167.011001 
C 28.387192 180.463268 36.554925 192.687143 46.850844 202.983062 
C 57.146763 213.278981 69.370638 221.446714 82.822905 227.018825 
C 96.275171 232.590936 110.694216 235.459063 125.254844 235.459063 
C 139.815472 235.459063 154.234516 232.590936 167.686783 227.018825 
C 181.139049 221.446714 193.362925 213.278981 203.658844 202.983062 
C 213.954763 192.687143 222.122495 180.463268 227.694606 167.011001 
C 233.266717 153.558735 236.134844 139.139691 236.134844 124.579063 
M 125.254844 124.579063 
C 125.254844 124.579063 125.254844 124.579063 125.254844 124.579063 
C 125.254844 124.579063 125.254844 124.579063 125.254844 124.579063 
C 125.254844 124.579063 125.254844 124.579063 125.254844 124.579063 
C 125.254844 124.579063 125.254844 124.579063 125.254844 124.579063 
C 125.254844 124.579063 125.254844 124.579063 125.254844 124.579063 
C 125.254844 124.579063 125.254844 124.579063 125.254844 124.579063 
C 125.254844 124.579063 125.254844 124.579063 125.254844 124.579063 
C 125.254844 124.579063 125.254844 124.579063 125.254844 124.579063 
C 125.254844 124.579063 125.254844 124.579063 125.254844 124.579063 
C 125.254844 124.579063 125.254844 124.579063 125.254844 124.579063 
C 125.254844 124.579063 125.254844 124.579063 125.254844 124.579063 
C 125.254844 124.579063 125.254844 124.579063 125.254844 124.579063 
C 125.254844 124.579063 125.254844 124.579063 125.254844 124.579063 
C 125.254844 124.579063 125.254844 124.579063 125.254844 124.579063 
C 125.254844 124.579063 125.254844 124.579063 125.254844 124.579063 
C 125.254844 124.579063 125.254844 124.579063 125.254844 124.579063 
z
"/>
  </clipPath>
 </defs>
</svg>
