<?xml version="1.0" encoding="utf-8" standalone="no"?>
<!DOCTYPE svg PUBLIC "-//W3C//DTD SVG 1.1//EN"
  "http://www.w3.org/Graphics/SVG/1.1/DTD/svg11.dtd">
<svg xmlns:xlink="http://www.w3.org/1999/xlink" width="248.410469pt" height="249.158125pt" viewBox="0 0 248.410469 249.158125" xmlns="http://www.w3.org/2000/svg" version="1.1">
 <title>Ski Rose for Semmering Hirschenkogel</title>
 <metadata>
  <rdf:RDF xmlns:dc="http://purl.org/dc/elements/1.1/" xmlns:cc="http://creativecommons.org/ns#" xmlns:rdf="http://www.w3.org/1999/02/22-rdf-syntax-ns#">
   <cc:Work>
    <dc:type rdf:resource="http://purl.org/dc/dcmitype/StillImage"/>
    <dc:title>Ski Rose for Semmering Hirschenkogel</dc:title>
    <dc:date>2025-07-19T10:39:12.143921</dc:date>
    <dc:description>A 32-bin stacked histogram of downhill ski run orientations colored by difficulty.</dc:description>
    <dc:format>image/svg+xml</dc:format>
    <dc:source>https://openskimap.org/?obj=9344e43bce13e47aa80379e25d33136048d40b60</dc:source>
    <dc:creator>
     <cc:Agent>
      <dc:title>https://github.com/dhimmel/openskistats</dc:title>
     </cc:Agent>
    </dc:creator>
    <dc:rights>
     <cc:Agent>
      <dc:title>https://creativecommons.org/licenses/by/4.0/</dc:title>
     </cc:Agent>
    </dc:rights>
   </cc:Work>
  </rdf:RDF>
 </metadata>
 <defs>
  <style type="text/css">*{stroke-linejoin: round; stroke-linecap: butt}</style>
 </defs>
 <g id="figure_1">
  <g id="patch_1">
   <path d="M 0 249.158125 
L 248.410469 249.158125 
L 248.410469 0 
L 0 0 
z
" style="fill: #ffffff"/>
  </g>
  <g id="axes_1">
   <g id="patch_2">
    <path d="M 236.134844 124.579063 
C 236.134844 110.018434 233.266717 95.59939 227.694606 82.147124 
C 222.122495 68.694857 213.954763 56.470982 203.658844 46.175063 
C 193.362925 35.879144 181.139049 27.711411 167.686783 22.1393 
C 154.234516 16.567189 139.815472 13.699063 125.254844 13.699063 
C 110.694216 13.699063 96.275171 16.567189 82.822905 22.1393 
C 69.370638 27.711411 57.146763 35.879144 46.850844 46.175063 
C 36.554925 56.470982 28.387192 68.694857 22.815081 82.147124 
C 17.24297 95.59939 14.374844 110.018434 14.374844 124.579062 
C 14.374844 139.139691 17.24297 153.558735 22.815081 167.011001 
C 28.387192 180.463268 36.554925 192.687143 46.850844 202.983062 
C 57.146763 213.278981 69.370638 221.446714 82.822905 227.018825 
C 96.275171 232.590936 110.694216 235.459063 125.254844 235.459063 
C 139.815472 235.459063 154.234516 232.590936 167.686783 227.018825 
C 181.139049 221.446714 193.362925 213.278981 203.658844 202.983062 
C 213.954763 192.687143 222.122495 180.463268 227.694606 167.011001 
C 233.266717 153.558735 236.134844 139.139691 236.134844 124.579063 
M 125.254844 124.579063 
C 125.254844 124.579063 125.254844 124.579063 125.254844 124.579063 
C 125.254844 124.579063 125.254844 124.579063 125.254844 124.579063 
C 125.254844 124.579063 125.254844 124.579063 125.254844 124.579063 
C 125.254844 124.579063 125.254844 124.579063 125.254844 124.579063 
C 125.254844 124.579063 125.254844 124.579063 125.254844 124.579063 
C 125.254844 124.579063 125.254844 124.579063 125.254844 124.579063 
C 125.254844 124.579063 125.254844 124.579063 125.254844 124.579063 
C 125.254844 124.579063 125.254844 124.579063 125.254844 124.579063 
C 125.254844 124.579063 125.254844 124.579063 125.254844 124.579063 
C 125.254844 124.579063 125.254844 124.579063 125.254844 124.579063 
C 125.254844 124.579063 125.254844 124.579063 125.254844 124.579063 
C 125.254844 124.579063 125.254844 124.579063 125.254844 124.579063 
C 125.254844 124.579063 125.254844 124.579063 125.254844 124.579063 
C 125.254844 124.579063 125.254844 124.579063 125.254844 124.579063 
C 125.254844 124.579063 125.254844 124.579063 125.254844 124.579063 
C 125.254844 124.579063 125.254844 124.579063 125.254844 124.579063 
z
" style="fill: #ffffff"/>
   </g>
   <g id="PolyCollection_1">
    <defs>
     <path id="mf8004ee877" d="M 235.287498 -137.1157 
L 234.751862 -137.054672 
L 233.842088 -135.034825 
L 233.046526 -133.062452 
L 231.995749 -131.107616 
L 231.092237 -129.200023 
L 230.145908 -127.325732 
L 228.956357 -125.484052 
L 227.933847 -123.682996 
L 226.672386 -121.923351 
L 225.584242 -120.198586 
L 224.466259 -118.511032 
L 223.11501 -116.8773 
L 221.942487 -115.269101 
L 220.744842 -113.699351 
L 219.320295 -112.195111 
L 218.077505 -110.706623 
L 216.81389 -109.257333 
L 215.5308 -107.847403 
L 214.030854 -106.517379 
L 212.714237 -105.189782 
L 211.382253 -103.901701 
L 210.036212 -102.65311 
L 208.677418 -101.443935 
L 207.307167 -100.274057 
L 205.926745 -99.14331 
L 204.723613 -97.989184 
L 203.324408 -96.93318 
L 201.918725 -95.915612 
L 200.507814 -94.936129 
L 199.269587 -93.921152 
L 197.8492 -93.014138 
L 196.427145 -92.143976 
L 195.173119 -91.229756 
L 193.74826 -90.429505 
L 192.487824 -89.579788 
L 191.224169 -88.760641 
L 189.801324 -88.060421 
L 188.536802 -87.30314 
L 187.271637 -86.575123 
L 186.006626 -85.875909 
L 184.742552 -85.205008 
L 183.339672 -84.658466 
L 182.083127 -84.043842 
L 180.829802 -83.455757 
L 179.710536 -82.79374 
L 178.462145 -82.256064 
L 177.218934 -81.743172 
L 175.981528 -81.254381 
L 174.750521 -80.788986 
L 173.526483 -80.346254 
L 172.418515 -79.82241 
L 171.206194 -79.422796 
L 170.103775 -78.940459 
L 168.904985 -78.581412 
L 167.80975 -78.138532 
L 166.626091 -77.817374 
L 165.539491 -77.411801 
L 164.372338 -77.125747 
L 163.295627 -76.755243 
L 162.14612 -76.501415 
L 161.080348 -76.163672 
L 160.018728 -75.841894 
L 158.961467 -75.535621 
L 157.8459 -75.339347 
L 156.801098 -75.061363 
L 155.761112 -74.797357 
L 154.726062 -74.546861 
L 153.696045 -74.30941 
L 152.671135 -74.084536 
L 151.651386 -73.871777 
L 150.636831 -73.670673 
L 149.62748 -73.480769 
L 148.623322 -73.301616 
L 147.624327 -73.132773 
L 146.630441 -72.973806 
L 145.641591 -72.824289 
L 144.657684 -72.683809 
L 143.678606 -72.551962 
L 142.704226 -72.428357 
L 141.734391 -72.312617 
L 140.768932 -72.20438 
L 139.807661 -72.103297 
L 138.863146 -71.95966 
L 137.90789 -71.875333 
L 136.956279 -71.797297 
L 136.008069 -71.725273 
L 135.062998 -71.658999 
L 134.126291 -71.565383 
L 133.185524 -71.513643 
L 132.247173 -71.467049 
L 131.310936 -71.425421 
L 130.378328 -71.369643 
L 129.44474 -71.341388 
L 128.512446 -71.317729 
L 127.58112 -71.298575 
L 126.650548 -71.279255 
L 125.72004 -71.272892 
L 124.789654 -71.27355 
L 123.85926 -71.283862 
L 122.928567 -71.298574 
L 121.997241 -71.317728 
L 121.066134 -71.356464 
L 120.133185 -71.388607 
L 119.198752 -71.425429 
L 118.262516 -71.467064 
L 117.328519 -71.542786 
L 116.388899 -71.598268 
L 115.446698 -71.659046 
L 114.501632 -71.725339 
L 113.56284 -71.839843 
L 112.612857 -71.921399 
L 111.659346 -72.009175 
L 110.702073 -72.103467 
L 109.740818 -72.204588 
L 108.775377 -72.31287 
L 107.805563 -72.428659 
L 106.853891 -72.616374 
L 105.87719 -72.751174 
L 104.895756 -72.894508 
L 103.909472 -73.046778 
L 102.918241 -73.208393 
L 101.921985 -73.379777 
L 100.920648 -73.56136 
L 99.914194 -73.753582 
L 98.902608 -73.956889 
L 97.885898 -74.171736 
L 96.864092 -74.398578 
L 95.837238 -74.637878 
L 94.805409 -74.890101 
L 93.709598 -75.062946 
L 92.664922 -75.341062 
L 91.61558 -75.633629 
L 90.561732 -75.941113 
L 89.430961 -76.165864 
L 88.365364 -76.503756 
L 87.295856 -76.858074 
L 86.139586 -77.12846 
L 85.059676 -77.516568 
L 83.976657 -77.922559 
L 82.797177 -78.24465 
L 81.705548 -78.68768 
L 80.510955 -79.047351 
L 79.307475 -79.426709 
L 78.204032 -79.929509 
L 76.987922 -80.350577 
L 75.76433 -80.793555 
L 74.652995 -81.361001 
L 73.419747 -81.849506 
L 72.180675 -82.361963 
L 70.9364 -82.899055 
L 69.687568 -83.461442 
L 68.434851 -84.049755 
L 67.178943 -84.664601 
L 65.920561 -85.306558 
L 64.660446 -85.976174 
L 63.399355 -86.673971 
L 62.138069 -87.400441 
L 60.721095 -88.067624 
L 59.458858 -88.854757 
L 58.198943 -89.67197 
L 56.776925 -90.437231 
L 55.521495 -91.317961 
L 54.100136 -92.151994 
L 52.853036 -93.09786 
L 51.436624 -94.002555 
L 50.201808 -95.014885 
L 48.794746 -95.991803 
L 47.392845 -97.006683 
L 45.997354 -98.059878 
L 44.797382 -99.210922 
L 43.42054 -100.338637 
L 42.053797 -101.50537 
L 40.698439 -102.711289 
L 39.355761 -103.956517 
L 38.027064 -105.241129 
L 36.713657 -106.565154 
L 35.217305 -107.891591 
L 33.93726 -109.29774 
L 32.676606 -110.743152 
L 31.436686 -112.227668 
L 30.218856 -113.751079 
L 28.82038 -115.29348 
L 27.650408 -116.897427 
L 26.506879 -118.539378 
L 25.186278 -120.209975 
L 24.100218 -121.930235 
L 22.840957 -123.68531 
L 21.81998 -125.481725 
L 20.834561 -127.313404 
L 19.685882 -129.188303 
L 18.781938 -131.091224 
L 17.728879 -133.041539 
L 16.928979 -135.009657 
L 16.19295 -137.005096 
L 15.355999 -139.04752 
L 15.355999 -139.04752 
L 15.355999 -139.04752 
L 15.221701 -137.115756 
L 14.945767 -135.200619 
L 14.729334 -133.277609 
L 14.6198 -131.345792 
L 14.619397 -129.40951 
L 14.475434 -127.479923 
L 14.3872 -125.54659 
L 14.486254 -123.6124 
L 14.441486 -121.677313 
L 14.52746 -119.744601 
L 14.644743 -117.813859 
L 14.792948 -115.885523 
L 14.971699 -113.960003 
L 15.09027 -112.027395 
L 15.331381 -110.107364 
L 15.60241 -108.191397 
L 15.903274 -106.279885 
L 16.233985 -104.373241 
L 16.684305 -102.490137 
L 17.075817 -100.59635 
L 17.497364 -98.70878 
L 17.949112 -96.827913 
L 18.431223 -94.95425 
L 18.943855 -93.088313 
L 19.579067 -91.259618 
L 20.152974 -89.412469 
L 20.75775 -87.574701 
L 21.484476 -85.780912 
L 22.150766 -83.965286 
L 22.848428 -82.160936 
L 23.577813 -80.368631 
L 24.400326 -78.617011 
L 25.194594 -76.852771 
L 26.084524 -75.134565 
L 26.948001 -73.403759 
L 27.84691 -71.690869 
L 28.78182 -69.997252 
L 29.765417 -68.331492 
L 30.732365 -66.655613 
L 31.752915 -65.011764 
L 32.801816 -63.385738 
L 33.923132 -61.808516 
L 34.987233 -60.191801 
L 36.48951 -58.896171 
L 38.233665 -57.805364 
L 40.060518 -56.812436 
L 41.898095 -55.865061 
L 43.688097 -54.91448 
L 45.542614 -54.055639 
L 47.340235 -53.183477 
L 49.190346 -52.396549 
L 50.986447 -51.595712 
L 52.78036 -50.828492 
L 54.570989 -50.093822 
L 56.357396 -49.390692 
L 58.138761 -48.718131 
L 59.914365 -48.075191 
L 61.683569 -47.460939 
L 63.445804 -46.87445 
L 65.163995 -46.267144 
L 66.912558 -45.733988 
L 68.615741 -45.173969 
L 70.349065 -44.690659 
L 72.043486 -44.185471 
L 73.760274 -43.74878 
L 75.437314 -43.284243 
L 77.111563 -42.84799 
L 78.775712 -42.427476 
L 80.436586 -42.034101 
L 82.087235 -41.654857 
L 83.734244 -41.301623 
L 85.371047 -40.960944 
L 87.003966 -40.645171 
L 88.62684 -40.340421 
L 90.245699 -40.059511 
L 91.854815 -39.788149 
L 93.445632 -39.501461 
L 95.045193 -39.26964 
L 96.635662 -39.045344 
L 98.211478 -38.808465 
L 99.792865 -38.620863 
L 101.359542 -38.415388 
L 102.928052 -38.247763 
L 104.48633 -38.071977 
L 106.046942 -37.937815 
L 107.597476 -37.790327 
L 109.144841 -37.657267 
L 110.691514 -37.552038 
L 112.232625 -37.445363 
L 113.771228 -37.352341 
L 115.309436 -37.289341 
L 116.843253 -37.22135 
L 118.375321 -37.166443 
L 119.906073 -37.127434 
L 121.435275 -37.096558 
L 122.963559 -37.078428 
L 124.49119 -37.072986 
L 126.018494 -37.073394 
L 127.546107 -37.079243 
L 129.074359 -37.097779 
L 130.603685 -37.126279 
L 132.134191 -37.168666 
L 133.66618 -37.224 
L 135.199901 -37.292414 
L 136.738023 -37.355656 
L 138.276509 -37.449067 
L 139.817489 -37.556123 
L 141.363952 -37.662091 
L 142.91115 -37.795546 
L 144.46746 -37.916551 
L 146.022002 -38.077624 
L 147.580085 -38.253759 
L 149.148253 -38.422213 
L 150.714696 -38.628042 
L 152.295977 -38.815544 
L 153.88081 -39.025069 
L 155.461564 -39.277915 
L 157.061038 -39.509531 
L 158.664134 -39.764637 
L 160.260151 -40.068775 
L 161.878953 -40.349378 
L 163.501216 -40.655057 
L 165.134104 -40.970455 
L 166.770233 -41.312074 
L 168.417242 -41.664867 
L 170.067152 -42.045058 
L 171.728061 -42.437928 
L 173.391409 -42.85939 
L 175.065733 -43.295078 
L 176.774387 -43.709578 
L 178.458273 -44.19745 
L 180.152838 -44.701985 
L 181.88576 -45.185446 
L 183.58799 -45.746339 
L 185.336139 -46.279594 
L 187.092214 -46.838834 
L 188.81635 -47.472789 
L 190.585149 -48.087103 
L 192.36035 -48.730085 
L 194.141316 -49.402669 
L 195.927329 -50.105802 
L 197.717572 -50.840454 
L 199.511109 -51.607634 
L 201.357861 -52.359996 
L 203.155971 -53.195831 
L 204.953278 -54.067844 
L 206.808152 -54.925957 
L 208.597943 -55.876313 
L 210.434784 -56.823879 
L 212.262281 -57.815907 
L 214.062622 -58.864763 
L 215.516769 -60.195857 
L 216.631306 -61.77776 
L 217.71265 -63.382576 
L 218.751824 -65.014917 
L 219.772932 -66.658304 
L 220.74299 -68.332246 
L 221.731003 -69.995478 
L 222.671629 -71.686064 
L 223.556898 -73.406252 
L 224.474875 -75.10978 
L 225.28517 -76.867044 
L 226.105269 -78.618876 
L 226.921073 -80.373328 
L 227.689571 -82.149209 
L 228.410775 -83.944861 
L 229.084763 -85.758646 
L 229.711664 -87.588962 
L 230.397891 -89.398691 
L 230.986747 -91.241921 
L 231.475764 -93.114992 
L 232.084018 -94.95271 
L 232.483348 -96.847886 
L 232.979742 -98.716603 
L 233.465365 -100.589367 
L 233.889617 -102.477068 
L 234.140819 -104.39824 
L 234.49029 -106.299318 
L 234.815071 -108.205177 
L 235.099999 -110.117673 
L 235.345678 -112.035796 
L 235.550878 -113.958762 
L 235.722099 -115.885101 
L 235.856804 -117.814357 
L 235.95501 -119.745789 
L 236.019882 -121.678578 
L 236.046632 -123.612197 
L 236.037918 -125.545852 
L 235.99451 -127.478883 
L 235.922089 -129.410899 
L 235.811263 -131.340983 
L 235.66772 -133.268744 
L 235.492218 -135.193714 
L 235.287498 -137.1157 
z
" style="stroke: #ffee9c"/>
    </defs>
    <g clip-path="url(#pf313232deb)">
     <use xlink:href="#mf8004ee877" x="0" y="249.158125" style="fill: #ffee9c; stroke: #ffee9c"/>
    </g>
   </g>
   <g id="matplotlib.axis_1">
    <g id="xtick_1">
     <g id="line2d_1">
      <path d="M 125.254844 124.579063 
L 125.254844 13.699063 
" clip-path="url(#pf313232deb)" style="fill: none; stroke: #b0b0b0; stroke-width: 0.8; stroke-linecap: square"/>
     </g>
     <g id="text_1">
      <!-- N -->
      <g transform="translate(121.070469 7.958438) scale(0.1 -0.1)">
       <defs>
        <path id="DejaVuSans-Bold-4e" d="M 588 4666 
L 1931 4666 
L 3628 1466 
L 3628 4666 
L 4769 4666 
L 4769 0 
L 3425 0 
L 1728 3200 
L 1728 0 
L 588 0 
L 588 4666 
z
" transform="scale(0.015625)"/>
       </defs>
       <use xlink:href="#DejaVuSans-Bold-4e"/>
      </g>
     </g>
    </g>
    <g id="xtick_2">
     <g id="line2d_2">
      <path d="M 125.254844 124.579063 
L 203.658844 46.175063 
" clip-path="url(#pf313232deb)" style="fill: none; stroke: #b0b0b0; stroke-width: 0.8; stroke-linecap: square"/>
     </g>
    </g>
    <g id="xtick_3">
     <g id="line2d_3">
      <path d="M 125.254844 124.579063 
L 236.134844 124.579063 
" clip-path="url(#pf313232deb)" style="fill: none; stroke: #b0b0b0; stroke-width: 0.8; stroke-linecap: square"/>
     </g>
     <g id="text_2">
      <!-- E -->
      <g transform="translate(241.219219 127.338438) scale(0.1 -0.1)">
       <defs>
        <path id="DejaVuSans-Bold-45" d="M 588 4666 
L 3834 4666 
L 3834 3756 
L 1791 3756 
L 1791 2888 
L 3713 2888 
L 3713 1978 
L 1791 1978 
L 1791 909 
L 3903 909 
L 3903 0 
L 588 0 
L 588 4666 
z
" transform="scale(0.015625)"/>
       </defs>
       <use xlink:href="#DejaVuSans-Bold-45"/>
      </g>
     </g>
    </g>
    <g id="xtick_4">
     <g id="line2d_4">
      <path d="M 125.254844 124.579063 
L 203.658844 202.983062 
" clip-path="url(#pf313232deb)" style="fill: none; stroke: #b0b0b0; stroke-width: 0.8; stroke-linecap: square"/>
     </g>
    </g>
    <g id="xtick_5">
     <g id="line2d_5">
      <path d="M 125.254844 124.579063 
L 125.254844 235.459063 
" clip-path="url(#pf313232deb)" style="fill: none; stroke: #b0b0b0; stroke-width: 0.8; stroke-linecap: square"/>
     </g>
     <g id="text_3">
      <!-- S -->
      <g transform="translate(121.654062 246.718438) scale(0.1 -0.1)">
       <defs>
        <path id="DejaVuSans-Bold-53" d="M 3834 4519 
L 3834 3531 
Q 3450 3703 3084 3790 
Q 2719 3878 2394 3878 
Q 1963 3878 1756 3759 
Q 1550 3641 1550 3391 
Q 1550 3203 1689 3098 
Q 1828 2994 2194 2919 
L 2706 2816 
Q 3484 2659 3812 2340 
Q 4141 2022 4141 1434 
Q 4141 663 3683 286 
Q 3225 -91 2284 -91 
Q 1841 -91 1394 -6 
Q 947 78 500 244 
L 500 1259 
Q 947 1022 1364 901 
Q 1781 781 2169 781 
Q 2563 781 2772 912 
Q 2981 1044 2981 1288 
Q 2981 1506 2839 1625 
Q 2697 1744 2272 1838 
L 1806 1941 
Q 1106 2091 782 2419 
Q 459 2747 459 3303 
Q 459 4000 909 4375 
Q 1359 4750 2203 4750 
Q 2588 4750 2994 4692 
Q 3400 4634 3834 4519 
z
" transform="scale(0.015625)"/>
       </defs>
       <use xlink:href="#DejaVuSans-Bold-53"/>
      </g>
     </g>
    </g>
    <g id="xtick_6">
     <g id="line2d_6">
      <path d="M 125.254844 124.579063 
L 46.850844 202.983062 
" clip-path="url(#pf313232deb)" style="fill: none; stroke: #b0b0b0; stroke-width: 0.8; stroke-linecap: square"/>
     </g>
    </g>
    <g id="xtick_7">
     <g id="line2d_7">
      <path d="M 125.254844 124.579063 
L 14.374844 124.579063 
" clip-path="url(#pf313232deb)" style="fill: none; stroke: #b0b0b0; stroke-width: 0.8; stroke-linecap: square"/>
     </g>
     <g id="text_4">
      <!-- W -->
      <g transform="translate(0.36 127.338438) scale(0.1 -0.1)">
       <defs>
        <path id="DejaVuSans-Bold-57" d="M 191 4666 
L 1344 4666 
L 2150 1275 
L 2950 4666 
L 4109 4666 
L 4909 1275 
L 5716 4666 
L 6859 4666 
L 5759 0 
L 4372 0 
L 3525 3547 
L 2688 0 
L 1300 0 
L 191 4666 
z
" transform="scale(0.015625)"/>
       </defs>
       <use xlink:href="#DejaVuSans-Bold-57"/>
      </g>
     </g>
    </g>
    <g id="xtick_8">
     <g id="line2d_8">
      <path d="M 125.254844 124.579063 
L 46.850844 46.175063 
" clip-path="url(#pf313232deb)" style="fill: none; stroke: #b0b0b0; stroke-width: 0.8; stroke-linecap: square"/>
     </g>
    </g>
   </g>
   <g id="matplotlib.axis_2"/>
   <g id="patch_3">
    <path d="M 125.254844 124.579063 
C 125.254844 124.579063 125.254844 124.579063 125.254844 124.579063 
C 125.254844 124.579063 125.254844 124.579063 125.254844 124.579063 
L 129.021216 86.338446 
C 127.769543 86.215167 126.512573 86.153416 125.254844 86.153416 
C 123.997115 86.153416 122.740144 86.215167 121.488472 86.338446 
z
" clip-path="url(#pf313232deb)" style="fill: #d9d9d9"/>
   </g>
   <g id="patch_4">
    <path d="M 125.254844 124.579063 
C 125.254844 124.579063 125.254844 124.579063 125.254844 124.579063 
C 125.254844 124.579063 125.254844 124.579063 125.254844 124.579063 
L 125.254844 124.579063 
C 125.254844 124.579063 125.254844 124.579063 125.254844 124.579063 
C 125.254844 124.579063 125.254844 124.579063 125.254844 124.579063 
z
" clip-path="url(#pf313232deb)" style="fill: #d9d9d9"/>
   </g>
   <g id="patch_5">
    <path d="M 125.254844 124.579063 
C 125.254844 124.579063 125.254844 124.579063 125.254844 124.579063 
C 125.254844 124.579063 125.254844 124.579063 125.254844 124.579063 
L 125.254844 124.579063 
C 125.254844 124.579063 125.254844 124.579063 125.254844 124.579063 
C 125.254844 124.579063 125.254844 124.579063 125.254844 124.579063 
z
" clip-path="url(#pf313232deb)" style="fill: #d9d9d9"/>
   </g>
   <g id="patch_6">
    <path d="M 125.254844 124.579063 
C 125.254844 124.579063 125.254844 124.579063 125.254844 124.579063 
C 125.254844 124.579063 125.254844 124.579063 125.254844 124.579063 
L 125.254844 124.579063 
C 125.254844 124.579063 125.254844 124.579063 125.254844 124.579063 
C 125.254844 124.579063 125.254844 124.579063 125.254844 124.579063 
z
" clip-path="url(#pf313232deb)" style="fill: #d9d9d9"/>
   </g>
   <g id="patch_7">
    <path d="M 125.254844 124.579063 
C 125.254844 124.579063 125.254844 124.579063 125.254844 124.579063 
C 125.254844 124.579063 125.254844 124.579063 125.254844 124.579063 
L 125.254844 124.579063 
C 125.254844 124.579063 125.254844 124.579063 125.254844 124.579063 
C 125.254844 124.579063 125.254844 124.579063 125.254844 124.579063 
z
" clip-path="url(#pf313232deb)" style="fill: #d9d9d9"/>
   </g>
   <g id="patch_8">
    <path d="M 125.254844 124.579063 
C 125.254844 124.579063 125.254844 124.579063 125.254844 124.579063 
C 125.254844 124.579063 125.254844 124.579063 125.254844 124.579063 
L 130.096043 121.991388 
C 130.011345 121.832928 129.918917 121.678722 129.819095 121.529327 
C 129.719272 121.379933 129.612175 121.235529 129.49819 121.096638 
z
" clip-path="url(#pf313232deb)" style="fill: #d9d9d9"/>
   </g>
   <g id="patch_9">
    <path d="M 125.254844 124.579063 
C 125.254844 124.579063 125.254844 124.579063 125.254844 124.579063 
C 125.254844 124.579063 125.254844 124.579063 125.254844 124.579063 
L 125.254844 124.579063 
C 125.254844 124.579063 125.254844 124.579063 125.254844 124.579063 
C 125.254844 124.579063 125.254844 124.579063 125.254844 124.579063 
z
" clip-path="url(#pf313232deb)" style="fill: #d9d9d9"/>
   </g>
   <g id="patch_10">
    <path d="M 125.254844 124.579063 
C 125.254844 124.579063 125.254844 124.579063 125.254844 124.579063 
C 125.254844 124.579063 125.254844 124.579063 125.254844 124.579063 
L 125.254844 124.579063 
C 125.254844 124.579063 125.254844 124.579063 125.254844 124.579063 
C 125.254844 124.579063 125.254844 124.579063 125.254844 124.579063 
z
" clip-path="url(#pf313232deb)" style="fill: #d9d9d9"/>
   </g>
   <g id="patch_11">
    <path d="M 125.254844 124.579063 
C 125.254844 124.579063 125.254844 124.579063 125.254844 124.579063 
C 125.254844 124.579063 125.254844 124.579063 125.254844 124.579063 
L 130.717789 125.117116 
C 130.7354 124.938305 130.744222 124.758738 130.744222 124.579063 
C 130.744222 124.399387 130.7354 124.21982 130.717789 124.041009 
z
" clip-path="url(#pf313232deb)" style="fill: #d9d9d9"/>
   </g>
   <g id="patch_12">
    <path d="M 125.254844 124.579063 
C 125.254844 124.579063 125.254844 124.579063 125.254844 124.579063 
C 125.254844 124.579063 125.254844 124.579063 125.254844 124.579063 
L 125.254844 124.579063 
C 125.254844 124.579063 125.254844 124.579063 125.254844 124.579063 
C 125.254844 124.579063 125.254844 124.579063 125.254844 124.579063 
z
" clip-path="url(#pf313232deb)" style="fill: #d9d9d9"/>
   </g>
   <g id="patch_13">
    <path d="M 125.254844 124.579063 
C 125.254844 124.579063 125.254844 124.579063 125.254844 124.579063 
C 125.254844 124.579063 125.254844 124.579063 125.254844 124.579063 
L 125.254844 124.579063 
C 125.254844 124.579063 125.254844 124.579063 125.254844 124.579063 
C 125.254844 124.579063 125.254844 124.579063 125.254844 124.579063 
z
" clip-path="url(#pf313232deb)" style="fill: #d9d9d9"/>
   </g>
   <g id="patch_14">
    <path d="M 125.254844 124.579063 
C 125.254844 124.579063 125.254844 124.579063 125.254844 124.579063 
C 125.254844 124.579063 125.254844 124.579063 125.254844 124.579063 
L 125.254844 124.579063 
C 125.254844 124.579063 125.254844 124.579063 125.254844 124.579063 
C 125.254844 124.579063 125.254844 124.579063 125.254844 124.579063 
z
" clip-path="url(#pf313232deb)" style="fill: #d9d9d9"/>
   </g>
   <g id="patch_15">
    <path d="M 125.254844 124.579063 
C 125.254844 124.579063 125.254844 124.579063 125.254844 124.579063 
C 125.254844 124.579063 125.254844 124.579063 125.254844 124.579063 
L 125.254844 124.579063 
C 125.254844 124.579063 125.254844 124.579063 125.254844 124.579063 
C 125.254844 124.579063 125.254844 124.579063 125.254844 124.579063 
z
" clip-path="url(#pf313232deb)" style="fill: #d9d9d9"/>
   </g>
   <g id="patch_16">
    <path d="M 125.254844 124.579063 
C 125.254844 124.579063 125.254844 124.579063 125.254844 124.579063 
C 125.254844 124.579063 125.254844 124.579063 125.254844 124.579063 
L 125.254844 124.579063 
C 125.254844 124.579063 125.254844 124.579063 125.254844 124.579063 
C 125.254844 124.579063 125.254844 124.579063 125.254844 124.579063 
z
" clip-path="url(#pf313232deb)" style="fill: #d9d9d9"/>
   </g>
   <g id="patch_17">
    <path d="M 125.254844 124.579063 
C 125.254844 124.579063 125.254844 124.579063 125.254844 124.579063 
C 125.254844 124.579063 125.254844 124.579063 125.254844 124.579063 
L 125.254844 124.579063 
C 125.254844 124.579063 125.254844 124.579063 125.254844 124.579063 
C 125.254844 124.579063 125.254844 124.579063 125.254844 124.579063 
z
" clip-path="url(#pf313232deb)" style="fill: #d9d9d9"/>
   </g>
   <g id="patch_18">
    <path d="M 125.254844 124.579063 
C 125.254844 124.579063 125.254844 124.579063 125.254844 124.579063 
C 125.254844 124.579063 125.254844 124.579063 125.254844 124.579063 
L 125.254844 124.579063 
C 125.254844 124.579063 125.254844 124.579063 125.254844 124.579063 
C 125.254844 124.579063 125.254844 124.579063 125.254844 124.579063 
z
" clip-path="url(#pf313232deb)" style="fill: #d9d9d9"/>
   </g>
   <g id="patch_19">
    <path d="M 125.254844 124.579063 
C 125.254844 124.579063 125.254844 124.579063 125.254844 124.579063 
C 125.254844 124.579063 125.254844 124.579063 125.254844 124.579063 
L 125.254844 124.579063 
C 125.254844 124.579063 125.254844 124.579063 125.254844 124.579063 
C 125.254844 124.579063 125.254844 124.579063 125.254844 124.579063 
z
" clip-path="url(#pf313232deb)" style="fill: #d9d9d9"/>
   </g>
   <g id="patch_20">
    <path d="M 125.254844 124.579063 
C 125.254844 124.579063 125.254844 124.579063 125.254844 124.579063 
C 125.254844 124.579063 125.254844 124.579063 125.254844 124.579063 
L 125.254844 124.579063 
C 125.254844 124.579063 125.254844 124.579063 125.254844 124.579063 
C 125.254844 124.579063 125.254844 124.579063 125.254844 124.579063 
z
" clip-path="url(#pf313232deb)" style="fill: #d9d9d9"/>
   </g>
   <g id="patch_21">
    <path d="M 125.254844 124.579063 
C 125.254844 124.579063 125.254844 124.579063 125.254844 124.579063 
C 125.254844 124.579063 125.254844 124.579063 125.254844 124.579063 
L 125.254844 124.579063 
C 125.254844 124.579063 125.254844 124.579063 125.254844 124.579063 
C 125.254844 124.579063 125.254844 124.579063 125.254844 124.579063 
z
" clip-path="url(#pf313232deb)" style="fill: #d9d9d9"/>
   </g>
   <g id="patch_22">
    <path d="M 125.254844 124.579063 
C 125.254844 124.579063 125.254844 124.579063 125.254844 124.579063 
C 125.254844 124.579063 125.254844 124.579063 125.254844 124.579063 
L 125.254844 124.579063 
C 125.254844 124.579063 125.254844 124.579063 125.254844 124.579063 
C 125.254844 124.579063 125.254844 124.579063 125.254844 124.579063 
z
" clip-path="url(#pf313232deb)" style="fill: #d9d9d9"/>
   </g>
   <g id="patch_23">
    <path d="M 125.254844 124.579063 
C 125.254844 124.579063 125.254844 124.579063 125.254844 124.579063 
C 125.254844 124.579063 125.254844 124.579063 125.254844 124.579063 
L 125.254844 124.579063 
C 125.254844 124.579063 125.254844 124.579063 125.254844 124.579063 
C 125.254844 124.579063 125.254844 124.579063 125.254844 124.579063 
z
" clip-path="url(#pf313232deb)" style="fill: #d9d9d9"/>
   </g>
   <g id="patch_24">
    <path d="M 125.254844 124.579063 
C 125.254844 124.579063 125.254844 124.579063 125.254844 124.579063 
C 125.254844 124.579063 125.254844 124.579063 125.254844 124.579063 
L 125.254844 124.579063 
C 125.254844 124.579063 125.254844 124.579063 125.254844 124.579063 
C 125.254844 124.579063 125.254844 124.579063 125.254844 124.579063 
z
" clip-path="url(#pf313232deb)" style="fill: #d9d9d9"/>
   </g>
   <g id="patch_25">
    <path d="M 125.254844 124.579063 
C 125.254844 124.579063 125.254844 124.579063 125.254844 124.579063 
C 125.254844 124.579063 125.254844 124.579063 125.254844 124.579063 
L 125.254844 124.579063 
C 125.254844 124.579063 125.254844 124.579063 125.254844 124.579063 
C 125.254844 124.579063 125.254844 124.579063 125.254844 124.579063 
z
" clip-path="url(#pf313232deb)" style="fill: #d9d9d9"/>
   </g>
   <g id="patch_26">
    <path d="M 125.254844 124.579063 
C 125.254844 124.579063 125.254844 124.579063 125.254844 124.579063 
C 125.254844 124.579063 125.254844 124.579063 125.254844 124.579063 
L 125.254844 124.579063 
C 125.254844 124.579063 125.254844 124.579063 125.254844 124.579063 
C 125.254844 124.579063 125.254844 124.579063 125.254844 124.579063 
z
" clip-path="url(#pf313232deb)" style="fill: #d9d9d9"/>
   </g>
   <g id="patch_27">
    <path d="M 125.254844 124.579063 
C 125.254844 124.579063 125.254844 124.579063 125.254844 124.579063 
C 125.254844 124.579063 125.254844 124.579063 125.254844 124.579063 
L 125.254844 124.579063 
C 125.254844 124.579063 125.254844 124.579063 125.254844 124.579063 
C 125.254844 124.579063 125.254844 124.579063 125.254844 124.579063 
z
" clip-path="url(#pf313232deb)" style="fill: #d9d9d9"/>
   </g>
   <g id="patch_28">
    <path d="M 125.254844 124.579063 
C 125.254844 124.579063 125.254844 124.579063 125.254844 124.579063 
C 125.254844 124.579063 125.254844 124.579063 125.254844 124.579063 
L 125.254844 124.579063 
C 125.254844 124.579063 125.254844 124.579063 125.254844 124.579063 
C 125.254844 124.579063 125.254844 124.579063 125.254844 124.579063 
z
" clip-path="url(#pf313232deb)" style="fill: #d9d9d9"/>
   </g>
   <g id="patch_29">
    <path d="M 125.254844 124.579063 
C 125.254844 124.579063 125.254844 124.579063 125.254844 124.579063 
C 125.254844 124.579063 125.254844 124.579063 125.254844 124.579063 
L 125.254844 124.579063 
C 125.254844 124.579063 125.254844 124.579063 125.254844 124.579063 
C 125.254844 124.579063 125.254844 124.579063 125.254844 124.579063 
z
" clip-path="url(#pf313232deb)" style="fill: #d9d9d9"/>
   </g>
   <g id="patch_30">
    <path d="M 125.254844 124.579063 
C 125.254844 124.579063 125.254844 124.579063 125.254844 124.579063 
C 125.254844 124.579063 125.254844 124.579063 125.254844 124.579063 
L 125.254844 124.579063 
C 125.254844 124.579063 125.254844 124.579063 125.254844 124.579063 
C 125.254844 124.579063 125.254844 124.579063 125.254844 124.579063 
z
" clip-path="url(#pf313232deb)" style="fill: #d9d9d9"/>
   </g>
   <g id="patch_31">
    <path d="M 125.254844 124.579063 
C 125.254844 124.579063 125.254844 124.579063 125.254844 124.579063 
C 125.254844 124.579063 125.254844 124.579063 125.254844 124.579063 
L 125.254844 124.579063 
C 125.254844 124.579063 125.254844 124.579063 125.254844 124.579063 
C 125.254844 124.579063 125.254844 124.579063 125.254844 124.579063 
z
" clip-path="url(#pf313232deb)" style="fill: #d9d9d9"/>
   </g>
   <g id="patch_32">
    <path d="M 125.254844 124.579063 
C 125.254844 124.579063 125.254844 124.579063 125.254844 124.579063 
C 125.254844 124.579063 125.254844 124.579063 125.254844 124.579063 
L 112.060239 99.893693 
C 111.25225 100.325572 110.465952 100.796861 109.704185 101.305857 
C 108.942419 101.814854 108.206101 102.360944 107.497893 102.942155 
z
" clip-path="url(#pf313232deb)" style="fill: #d9d9d9"/>
   </g>
   <g id="patch_33">
    <path d="M 125.254844 124.579063 
C 125.254844 124.579063 125.254844 124.579063 125.254844 124.579063 
C 125.254844 124.579063 125.254844 124.579063 125.254844 124.579063 
L 104.973125 57.719196 
C 102.784702 58.383046 100.630191 59.153943 98.517374 60.0291 
C 96.404557 60.904257 94.335982 61.882621 92.319119 62.960656 
z
" clip-path="url(#pf313232deb)" style="fill: #d9d9d9"/>
   </g>
   <g id="patch_34">
    <path d="M 125.254844 124.579063 
C 125.254844 124.579063 125.254844 124.579063 125.254844 124.579063 
C 125.254844 124.579063 125.254844 124.579063 125.254844 124.579063 
L 125.254844 124.579063 
C 125.254844 124.579063 125.254844 124.579063 125.254844 124.579063 
C 125.254844 124.579063 125.254844 124.579063 125.254844 124.579063 
z
" clip-path="url(#pf313232deb)" style="fill: #d9d9d9"/>
   </g>
   <g id="patch_35">
    <path d="M 121.488472 86.338446 
C 122.740144 86.215167 123.997115 86.153416 125.254844 86.153416 
C 126.512573 86.153416 127.769543 86.215167 129.021216 86.338446 
L 131.888408 57.227351 
C 129.683886 57.010225 127.470033 56.901465 125.254844 56.901465 
C 123.039655 56.901465 120.825801 57.010225 118.621279 57.227351 
z
" clip-path="url(#pf313232deb)" style="fill: #a1a1d8"/>
   </g>
   <g id="patch_36">
    <path d="M 125.254844 124.579063 
C 125.254844 124.579063 125.254844 124.579063 125.254844 124.579063 
C 125.254844 124.579063 125.254844 124.579063 125.254844 124.579063 
L 130.035291 108.820041 
C 129.519474 108.66357 128.996287 108.532518 128.467617 108.427359 
C 127.938948 108.3222 127.405434 108.243061 126.869003 108.190227 
z
" clip-path="url(#pf313232deb)" style="fill: #a1a1d8"/>
   </g>
   <g id="patch_37">
    <path d="M 125.254844 124.579063 
C 125.254844 124.579063 125.254844 124.579063 125.254844 124.579063 
C 125.254844 124.579063 125.254844 124.579063 125.254844 124.579063 
L 141.824048 93.580262 
C 140.809411 93.037928 139.768758 92.545736 138.705849 92.105464 
C 137.642939 91.665193 136.559054 91.277373 135.458109 90.943404 
z
" clip-path="url(#pf313232deb)" style="fill: #a1a1d8"/>
   </g>
   <g id="patch_38">
    <path d="M 125.254844 124.579063 
C 125.254844 124.579063 125.254844 124.579063 125.254844 124.579063 
C 125.254844 124.579063 125.254844 124.579063 125.254844 124.579063 
L 136.267237 111.160422 
C 135.828025 110.79997 135.37138 110.4613 134.898953 110.145633 
C 134.426525 109.829967 133.938884 109.537686 133.43779 109.269846 
z
" clip-path="url(#pf313232deb)" style="fill: #a1a1d8"/>
   </g>
   <g id="patch_39">
    <path d="M 125.254844 124.579063 
C 125.254844 124.579063 125.254844 124.579063 125.254844 124.579063 
C 125.254844 124.579063 125.254844 124.579063 125.254844 124.579063 
L 150.358821 103.976761 
C 149.684477 103.15507 148.970196 102.366983 148.21856 101.615347 
C 147.466923 100.86371 146.678836 100.14943 145.857145 99.475085 
z
" clip-path="url(#pf313232deb)" style="fill: #a1a1d8"/>
   </g>
   <g id="patch_40">
    <path d="M 129.49819 121.096638 
C 129.612175 121.235529 129.719272 121.379933 129.819095 121.529327 
C 129.918917 121.678722 130.011345 121.832928 130.096043 121.991388 
L 151.325499 110.644007 
C 150.869384 109.790675 150.371648 108.960252 149.834088 108.155737 
C 149.296528 107.351221 148.719792 106.573584 148.105965 105.825632 
z
" clip-path="url(#pf313232deb)" style="fill: #a1a1d8"/>
   </g>
   <g id="patch_41">
    <path d="M 125.254844 124.579063 
C 125.254844 124.579063 125.254844 124.579063 125.254844 124.579063 
C 125.254844 124.579063 125.254844 124.579063 125.254844 124.579063 
L 144.909797 118.616798 
C 144.714643 117.973462 144.488021 117.340095 144.230749 116.718985 
C 143.973477 116.097875 143.685865 115.489771 143.368953 114.89687 
z
" clip-path="url(#pf313232deb)" style="fill: #a1a1d8"/>
   </g>
   <g id="patch_42">
    <path d="M 125.254844 124.579063 
C 125.254844 124.579063 125.254844 124.579063 125.254844 124.579063 
C 125.254844 124.579063 125.254844 124.579063 125.254844 124.579063 
L 142.530193 122.877589 
C 142.474501 122.312141 142.391081 121.749768 142.280234 121.192502 
C 142.169387 120.635235 142.031246 120.083747 141.866311 119.540029 
z
" clip-path="url(#pf313232deb)" style="fill: #a1a1d8"/>
   </g>
   <g id="patch_43">
    <path d="M 130.717789 124.041009 
C 130.7354 124.21982 130.744222 124.399387 130.744222 124.579063 
C 130.744222 124.758738 130.7354 124.938305 130.717789 125.117116 
L 136.180734 125.655169 
C 136.215957 125.297548 136.2336 124.938414 136.2336 124.579063 
C 136.2336 124.219711 136.215957 123.860577 136.180734 123.502956 
z
" clip-path="url(#pf313232deb)" style="fill: #a1a1d8"/>
   </g>
   <g id="patch_44">
    <path d="M 125.254844 124.579063 
C 125.254844 124.579063 125.254844 124.579063 125.254844 124.579063 
C 125.254844 124.579063 125.254844 124.579063 125.254844 124.579063 
L 125.254844 124.579063 
C 125.254844 124.579063 125.254844 124.579063 125.254844 124.579063 
C 125.254844 124.579063 125.254844 124.579063 125.254844 124.579063 
z
" clip-path="url(#pf313232deb)" style="fill: #a1a1d8"/>
   </g>
   <g id="patch_45">
    <path d="M 125.254844 124.579063 
C 125.254844 124.579063 125.254844 124.579063 125.254844 124.579063 
C 125.254844 124.579063 125.254844 124.579063 125.254844 124.579063 
L 138.063453 131.425407 
C 138.287544 131.006162 138.490916 130.576167 138.672835 130.136976 
C 138.854754 129.697786 139.015 129.249928 139.152995 128.79502 
z
" clip-path="url(#pf313232deb)" style="fill: #a1a1d8"/>
   </g>
   <g id="patch_46">
    <path d="M 125.254844 124.579063 
C 125.254844 124.579063 125.254844 124.579063 125.254844 124.579063 
C 125.254844 124.579063 125.254844 124.579063 125.254844 124.579063 
L 129.49819 128.061487 
C 129.612175 127.922596 129.719272 127.778192 129.819095 127.628798 
C 129.918917 127.479403 130.011345 127.325197 130.096043 127.166737 
z
" clip-path="url(#pf313232deb)" style="fill: #a1a1d8"/>
   </g>
   <g id="patch_47">
    <path d="M 125.254844 124.579063 
C 125.254844 124.579063 125.254844 124.579063 125.254844 124.579063 
C 125.254844 124.579063 125.254844 124.579063 125.254844 124.579063 
L 144.328869 147.820829 
C 145.089606 147.196508 145.819233 146.535213 146.515113 145.839332 
C 147.210994 145.143452 147.872289 144.413825 148.49661 143.653087 
z
" clip-path="url(#pf313232deb)" style="fill: #a1a1d8"/>
   </g>
   <g id="patch_48">
    <path d="M 125.254844 124.579063 
C 125.254844 124.579063 125.254844 124.579063 125.254844 124.579063 
C 125.254844 124.579063 125.254844 124.579063 125.254844 124.579063 
L 130.430194 134.261461 
C 130.747113 134.092064 131.055524 133.907209 131.354314 133.707565 
C 131.653103 133.50792 131.941911 133.293726 132.219693 133.065756 
z
" clip-path="url(#pf313232deb)" style="fill: #a1a1d8"/>
   </g>
   <g id="patch_49">
    <path d="M 125.254844 124.579063 
C 125.254844 124.579063 125.254844 124.579063 125.254844 124.579063 
C 125.254844 124.579063 125.254844 124.579063 125.254844 124.579063 
L 129.761892 139.436811 
C 130.248209 139.289288 130.726989 139.117978 131.196504 138.923499 
C 131.666019 138.729019 132.125702 138.511605 132.573894 138.272042 
z
" clip-path="url(#pf313232deb)" style="fill: #a1a1d8"/>
   </g>
   <g id="patch_50">
    <path d="M 125.254844 124.579063 
C 125.254844 124.579063 125.254844 124.579063 125.254844 124.579063 
C 125.254844 124.579063 125.254844 124.579063 125.254844 124.579063 
L 126.572799 137.960491 
C 127.010794 137.917352 127.446406 137.852735 127.878062 137.766873 
C 128.309719 137.681011 128.7369 137.574008 129.158062 137.44625 
z
" clip-path="url(#pf313232deb)" style="fill: #a1a1d8"/>
   </g>
   <g id="patch_51">
    <path d="M 125.254844 124.579063 
C 125.254844 124.579063 125.254844 124.579063 125.254844 124.579063 
C 125.254844 124.579063 125.254844 124.579063 125.254844 124.579063 
L 125.254844 124.579063 
C 125.254844 124.579063 125.254844 124.579063 125.254844 124.579063 
C 125.254844 124.579063 125.254844 124.579063 125.254844 124.579063 
z
" clip-path="url(#pf313232deb)" style="fill: #a1a1d8"/>
   </g>
   <g id="patch_52">
    <path d="M 125.254844 124.579063 
C 125.254844 124.579063 125.254844 124.579063 125.254844 124.579063 
C 125.254844 124.579063 125.254844 124.579063 125.254844 124.579063 
L 125.254844 124.579063 
C 125.254844 124.579063 125.254844 124.579063 125.254844 124.579063 
C 125.254844 124.579063 125.254844 124.579063 125.254844 124.579063 
z
" clip-path="url(#pf313232deb)" style="fill: #a1a1d8"/>
   </g>
   <g id="patch_53">
    <path d="M 125.254844 124.579063 
C 125.254844 124.579063 125.254844 124.579063 125.254844 124.579063 
C 125.254844 124.579063 125.254844 124.579063 125.254844 124.579063 
L 125.254844 124.579063 
C 125.254844 124.579063 125.254844 124.579063 125.254844 124.579063 
C 125.254844 124.579063 125.254844 124.579063 125.254844 124.579063 
z
" clip-path="url(#pf313232deb)" style="fill: #a1a1d8"/>
   </g>
   <g id="patch_54">
    <path d="M 125.254844 124.579063 
C 125.254844 124.579063 125.254844 124.579063 125.254844 124.579063 
C 125.254844 124.579063 125.254844 124.579063 125.254844 124.579063 
L 119.223107 131.928754 
C 119.463674 132.126182 119.713788 132.31168 119.972548 132.484577 
C 120.231307 132.657475 120.498399 132.817563 120.772859 132.964266 
z
" clip-path="url(#pf313232deb)" style="fill: #a1a1d8"/>
   </g>
   <g id="patch_55">
    <path d="M 125.254844 124.579063 
C 125.254844 124.579063 125.254844 124.579063 125.254844 124.579063 
C 125.254844 124.579063 125.254844 124.579063 125.254844 124.579063 
L 116.768151 131.543912 
C 116.99612 131.821694 117.237591 132.088116 117.491691 132.342215 
C 117.74579 132.596315 118.012212 132.837786 118.289995 133.065756 
z
" clip-path="url(#pf313232deb)" style="fill: #a1a1d8"/>
   </g>
   <g id="patch_56">
    <path d="M 125.254844 124.579063 
C 125.254844 124.579063 125.254844 124.579063 125.254844 124.579063 
C 125.254844 124.579063 125.254844 124.579063 125.254844 124.579063 
L 112.446235 131.425407 
C 112.670326 131.844652 112.914865 132.252642 113.178971 132.647903 
C 113.443076 133.043164 113.726428 133.425221 114.028004 133.792692 
z
" clip-path="url(#pf313232deb)" style="fill: #a1a1d8"/>
   </g>
   <g id="patch_57">
    <path d="M 125.254844 124.579063 
C 125.254844 124.579063 125.254844 124.579063 125.254844 124.579063 
C 125.254844 124.579063 125.254844 124.579063 125.254844 124.579063 
L 100.062306 132.221135 
C 100.312442 133.045725 100.602913 133.857536 100.932669 134.653637 
C 101.262425 135.449738 101.631068 136.229169 102.037268 136.989115 
z
" clip-path="url(#pf313232deb)" style="fill: #a1a1d8"/>
   </g>
   <g id="patch_58">
    <path d="M 125.254844 124.579063 
C 125.254844 124.579063 125.254844 124.579063 125.254844 124.579063 
C 125.254844 124.579063 125.254844 124.579063 125.254844 124.579063 
L 97.940118 127.269328 
C 98.028174 128.16338 98.160073 129.05257 98.335338 129.933685 
C 98.510603 130.814801 98.729022 131.68678 98.989807 132.546474 
z
" clip-path="url(#pf313232deb)" style="fill: #a1a1d8"/>
   </g>
   <g id="patch_59">
    <path d="M 125.254844 124.579063 
C 125.254844 124.579063 125.254844 124.579063 125.254844 124.579063 
C 125.254844 124.579063 125.254844 124.579063 125.254844 124.579063 
L 101.442418 122.233743 
C 101.365652 123.01316 101.3272 123.795875 101.3272 124.579063 
C 101.3272 125.36225 101.365652 126.144965 101.442418 126.924382 
z
" clip-path="url(#pf313232deb)" style="fill: #a1a1d8"/>
   </g>
   <g id="patch_60">
    <path d="M 125.254844 124.579063 
C 125.254844 124.579063 125.254844 124.579063 125.254844 124.579063 
C 125.254844 124.579063 125.254844 124.579063 125.254844 124.579063 
L 80.681599 111.057917 
C 80.239032 112.516865 79.868362 113.996664 79.570927 115.491967 
C 79.273493 116.987269 79.049653 118.496274 78.900217 120.01353 
z
" clip-path="url(#pf313232deb)" style="fill: #a1a1d8"/>
   </g>
   <g id="patch_61">
    <path d="M 125.254844 124.579063 
C 125.254844 124.579063 125.254844 124.579063 125.254844 124.579063 
C 125.254844 124.579063 125.254844 124.579063 125.254844 124.579063 
L 94.636412 108.213169 
C 94.100731 109.215357 93.614579 110.24324 93.17971 111.293107 
C 92.74484 112.342974 92.361779 113.413559 92.031909 114.500995 
z
" clip-path="url(#pf313232deb)" style="fill: #a1a1d8"/>
   </g>
   <g id="patch_62">
    <path d="M 125.254844 124.579063 
C 125.254844 124.579063 125.254844 124.579063 125.254844 124.579063 
C 125.254844 124.579063 125.254844 124.579063 125.254844 124.579063 
L 96.789609 101.218248 
C 96.024975 102.149958 95.306546 103.118648 94.636917 104.120818 
C 93.967288 105.122988 93.347267 106.157432 92.779092 107.220412 
z
" clip-path="url(#pf313232deb)" style="fill: #a1a1d8"/>
   </g>
   <g id="patch_63">
    <path d="M 125.254844 124.579063 
C 125.254844 124.579063 125.254844 124.579063 125.254844 124.579063 
C 125.254844 124.579063 125.254844 124.579063 125.254844 124.579063 
L 111.325146 107.605676 
C 110.769581 108.061616 110.236737 108.544558 109.728538 109.052757 
C 109.220339 109.560956 108.737397 110.0938 108.281457 110.649364 
z
" clip-path="url(#pf313232deb)" style="fill: #a1a1d8"/>
   </g>
   <g id="patch_64">
    <path d="M 107.497893 102.942155 
C 108.206101 102.360944 108.942419 101.814854 109.704185 101.305857 
C 110.465952 100.796861 111.25225 100.325572 112.060239 99.893693 
L 108.484794 93.204506 
C 107.457858 93.753414 106.45849 94.352412 105.490302 94.999335 
C 104.522113 95.646258 103.58627 96.340327 102.686153 97.079033 
z
" clip-path="url(#pf313232deb)" style="fill: #a1a1d8"/>
   </g>
   <g id="patch_65">
    <path d="M 92.319119 62.960656 
C 94.335982 61.882621 96.404557 60.904257 98.517374 60.0291 
C 100.630191 59.153943 102.784702 58.383046 104.973125 57.719196 
L 101.673459 46.841654 
C 99.128997 47.613508 96.623965 48.509823 94.167411 49.527361 
C 91.710857 50.544899 89.305741 51.682434 86.960752 52.935857 
z
" clip-path="url(#pf313232deb)" style="fill: #a1a1d8"/>
   </g>
   <g id="patch_66">
    <path d="M 125.254844 124.579063 
C 125.254844 124.579063 125.254844 124.579063 125.254844 124.579063 
C 125.254844 124.579063 125.254844 124.579063 125.254844 124.579063 
L 122.163964 93.196832 
C 121.136777 93.298001 120.115175 93.449541 119.102851 93.650905 
C 118.090526 93.852269 117.088698 94.103214 116.100985 94.402833 
z
" clip-path="url(#pf313232deb)" style="fill: #a1a1d8"/>
   </g>
   <g id="patch_67">
    <path d="M 118.621279 57.227351 
C 120.825801 57.010225 123.039655 56.901465 125.254844 56.901465 
C 127.470033 56.901465 129.683886 57.010225 131.888408 57.227351 
L 135.349615 22.085126 
C 131.994836 21.754709 128.625856 21.589202 125.254844 21.589202 
C 121.883832 21.589202 118.514852 21.754709 115.160072 22.085126 
z
" clip-path="url(#pf313232deb)" style="fill: #ff8c8e"/>
   </g>
   <g id="patch_68">
    <path d="M 126.869003 108.190227 
C 127.405434 108.243061 127.938948 108.3222 128.467617 108.427359 
C 128.996287 108.532518 129.519474 108.66357 130.035291 108.820041 
L 143.769435 63.544634 
C 141.771687 62.938623 139.74539 62.431062 137.697862 62.023784 
C 135.650335 61.616505 133.584045 61.31 131.506456 61.105375 
z
" clip-path="url(#pf313232deb)" style="fill: #ff8c8e"/>
   </g>
   <g id="patch_69">
    <path d="M 135.458109 90.943404 
C 136.559054 91.277373 137.642939 91.665193 138.705849 92.105464 
C 139.768758 92.545736 140.809411 93.037928 141.824048 93.580262 
L 147.961599 82.097712 
C 146.571121 81.354486 145.14499 80.679976 143.688359 80.07662 
C 142.231728 79.473263 140.746351 78.941787 139.237594 78.484111 
z
" clip-path="url(#pf313232deb)" style="fill: #ff8c8e"/>
   </g>
   <g id="patch_70">
    <path d="M 133.43779 109.269846 
C 133.938884 109.537686 134.426525 109.829967 134.898953 110.145633 
C 135.37138 110.4613 135.828025 110.79997 136.267237 111.160422 
L 136.267237 111.160422 
C 135.828025 110.79997 135.37138 110.4613 134.898953 110.145633 
C 134.426525 109.829967 133.938884 109.537686 133.43779 109.269846 
z
" clip-path="url(#pf313232deb)" style="fill: #ff8c8e"/>
   </g>
   <g id="patch_71">
    <path d="M 145.857145 99.475085 
C 146.678836 100.14943 147.466923 100.86371 148.21856 101.615347 
C 148.970196 102.366983 149.684477 103.15507 150.358821 103.976761 
L 155.854051 99.466942 
C 155.032094 98.465384 154.161459 97.504786 153.245289 96.588617 
C 152.32912 95.672448 151.368522 94.801812 150.366964 93.979855 
z
" clip-path="url(#pf313232deb)" style="fill: #ff8c8e"/>
   </g>
   <g id="patch_72">
    <path d="M 148.105965 105.825632 
C 148.719792 106.573584 149.296528 107.351221 149.834088 108.155737 
C 150.371648 108.960252 150.869384 109.790675 151.325499 110.644007 
L 155.873276 108.213169 
C 155.337596 107.210982 154.753034 106.2357 154.121702 105.290845 
C 153.49037 104.345989 152.813028 103.4327 152.092124 102.554276 
z
" clip-path="url(#pf313232deb)" style="fill: #ff8c8e"/>
   </g>
   <g id="patch_73">
    <path d="M 143.368953 114.89687 
C 143.685865 115.489771 143.973477 116.097875 144.230749 116.718985 
C 144.488021 117.340095 144.714643 117.973462 144.909797 118.616798 
L 175.089246 109.461962 
C 174.594441 107.830807 174.019849 106.22493 173.367545 104.650129 
C 172.715241 103.075329 171.986012 101.533504 171.182492 100.030223 
z
" clip-path="url(#pf313232deb)" style="fill: #ff8c8e"/>
   </g>
   <g id="patch_74">
    <path d="M 141.866311 119.540029 
C 142.031246 120.083747 142.169387 120.635235 142.280234 121.192502 
C 142.391081 121.749768 142.474501 122.312141 142.530193 122.877589 
L 142.530193 122.877589 
C 142.474501 122.312141 142.391081 121.749768 142.280234 121.192502 
C 142.169387 120.635235 142.031246 120.083747 141.866311 119.540029 
z
" clip-path="url(#pf313232deb)" style="fill: #ff8c8e"/>
   </g>
   <g id="patch_75">
    <path d="M 136.180734 123.502956 
C 136.215957 123.860577 136.2336 124.219711 136.2336 124.579063 
C 136.2336 124.938414 136.215957 125.297548 136.180734 125.655169 
L 136.180734 125.655169 
C 136.215957 125.297548 136.2336 124.938414 136.2336 124.579063 
C 136.2336 124.219711 136.215957 123.860577 136.180734 123.502956 
z
" clip-path="url(#pf313232deb)" style="fill: #ff8c8e"/>
   </g>
   <g id="patch_76">
    <path d="M 125.254844 124.579063 
C 125.254844 124.579063 125.254844 124.579063 125.254844 124.579063 
C 125.254844 124.579063 125.254844 124.579063 125.254844 124.579063 
L 125.254844 124.579063 
C 125.254844 124.579063 125.254844 124.579063 125.254844 124.579063 
C 125.254844 124.579063 125.254844 124.579063 125.254844 124.579063 
z
" clip-path="url(#pf313232deb)" style="fill: #ff8c8e"/>
   </g>
   <g id="patch_77">
    <path d="M 139.152995 128.79502 
C 139.015 129.249928 138.854754 129.697786 138.672835 130.136976 
C 138.490916 130.576167 138.287544 131.006162 138.063453 131.425407 
L 138.063453 131.425407 
C 138.287544 131.006162 138.490916 130.576167 138.672835 130.136976 
C 138.854754 129.697786 139.015 129.249928 139.152995 128.79502 
z
" clip-path="url(#pf313232deb)" style="fill: #ff8c8e"/>
   </g>
   <g id="patch_78">
    <path d="M 130.096043 127.166737 
C 130.011345 127.325197 129.918917 127.479403 129.819095 127.628798 
C 129.719272 127.778192 129.612175 127.922596 129.49819 128.061487 
L 129.49819 128.061487 
C 129.612175 127.922596 129.719272 127.778192 129.819095 127.628798 
C 129.918917 127.479403 130.011345 127.325197 130.096043 127.166737 
z
" clip-path="url(#pf313232deb)" style="fill: #ff8c8e"/>
   </g>
   <g id="patch_79">
    <path d="M 148.49661 143.653087 
C 147.872289 144.413825 147.210994 145.143452 146.515113 145.839332 
C 145.819233 146.535213 145.089606 147.196508 144.328869 147.820829 
L 144.328869 147.820829 
C 145.089606 147.196508 145.819233 146.535213 146.515113 145.839332 
C 147.210994 145.143452 147.872289 144.413825 148.49661 143.653087 
z
" clip-path="url(#pf313232deb)" style="fill: #ff8c8e"/>
   </g>
   <g id="patch_80">
    <path d="M 132.219693 133.065756 
C 131.941911 133.293726 131.653103 133.50792 131.354314 133.707565 
C 131.055524 133.907209 130.747113 134.092064 130.430194 134.261461 
L 130.430194 134.261461 
C 130.747113 134.092064 131.055524 133.907209 131.354314 133.707565 
C 131.653103 133.50792 131.941911 133.293726 132.219693 133.065756 
z
" clip-path="url(#pf313232deb)" style="fill: #ff8c8e"/>
   </g>
   <g id="patch_81">
    <path d="M 132.573894 138.272042 
C 132.125702 138.511605 131.666019 138.729019 131.196504 138.923499 
C 130.726989 139.117978 130.248209 139.289288 129.761892 139.436811 
L 129.761892 139.436811 
C 130.248209 139.289288 130.726989 139.117978 131.196504 138.923499 
C 131.666019 138.729019 132.125702 138.511605 132.573894 138.272042 
z
" clip-path="url(#pf313232deb)" style="fill: #ff8c8e"/>
   </g>
   <g id="patch_82">
    <path d="M 129.158062 137.44625 
C 128.7369 137.574008 128.309719 137.681011 127.878062 137.766873 
C 127.446406 137.852735 127.010794 137.917352 126.572799 137.960491 
L 126.572799 137.960491 
C 127.010794 137.917352 127.446406 137.852735 127.878062 137.766873 
C 128.309719 137.681011 128.7369 137.574008 129.158062 137.44625 
z
" clip-path="url(#pf313232deb)" style="fill: #ff8c8e"/>
   </g>
   <g id="patch_83">
    <path d="M 125.254844 124.579063 
C 125.254844 124.579063 125.254844 124.579063 125.254844 124.579063 
C 125.254844 124.579063 125.254844 124.579063 125.254844 124.579063 
L 125.254844 124.579063 
C 125.254844 124.579063 125.254844 124.579063 125.254844 124.579063 
C 125.254844 124.579063 125.254844 124.579063 125.254844 124.579063 
z
" clip-path="url(#pf313232deb)" style="fill: #ff8c8e"/>
   </g>
   <g id="patch_84">
    <path d="M 125.254844 124.579063 
C 125.254844 124.579063 125.254844 124.579063 125.254844 124.579063 
C 125.254844 124.579063 125.254844 124.579063 125.254844 124.579063 
L 125.254844 124.579063 
C 125.254844 124.579063 125.254844 124.579063 125.254844 124.579063 
C 125.254844 124.579063 125.254844 124.579063 125.254844 124.579063 
z
" clip-path="url(#pf313232deb)" style="fill: #ff8c8e"/>
   </g>
   <g id="patch_85">
    <path d="M 125.254844 124.579063 
C 125.254844 124.579063 125.254844 124.579063 125.254844 124.579063 
C 125.254844 124.579063 125.254844 124.579063 125.254844 124.579063 
L 125.254844 124.579063 
C 125.254844 124.579063 125.254844 124.579063 125.254844 124.579063 
C 125.254844 124.579063 125.254844 124.579063 125.254844 124.579063 
z
" clip-path="url(#pf313232deb)" style="fill: #ff8c8e"/>
   </g>
   <g id="patch_86">
    <path d="M 120.772859 132.964266 
C 120.498399 132.817563 120.231307 132.657475 119.972548 132.484577 
C 119.713788 132.31168 119.463674 132.126182 119.223107 131.928754 
L 119.223107 131.928754 
C 119.463674 132.126182 119.713788 132.31168 119.972548 132.484577 
C 120.231307 132.657475 120.498399 132.817563 120.772859 132.964266 
z
" clip-path="url(#pf313232deb)" style="fill: #ff8c8e"/>
   </g>
   <g id="patch_87">
    <path d="M 118.289995 133.065756 
C 118.012212 132.837786 117.74579 132.596315 117.491691 132.342215 
C 117.237591 132.088116 116.99612 131.821694 116.768151 131.543912 
L 116.768151 131.543912 
C 116.99612 131.821694 117.237591 132.088116 117.491691 132.342215 
C 117.74579 132.596315 118.012212 132.837786 118.289995 133.065756 
z
" clip-path="url(#pf313232deb)" style="fill: #ff8c8e"/>
   </g>
   <g id="patch_88">
    <path d="M 114.028004 133.792692 
C 113.726428 133.425221 113.443076 133.043164 113.178971 132.647903 
C 112.914865 132.252642 112.670326 131.844652 112.446235 131.425407 
L 112.446235 131.425407 
C 112.670326 131.844652 112.914865 132.252642 113.178971 132.647903 
C 113.443076 133.043164 113.726428 133.425221 114.028004 133.792692 
z
" clip-path="url(#pf313232deb)" style="fill: #ff8c8e"/>
   </g>
   <g id="patch_89">
    <path d="M 102.037268 136.989115 
C 101.631068 136.229169 101.262425 135.449738 100.932669 134.653637 
C 100.602913 133.857536 100.312442 133.045725 100.062306 132.221135 
L 100.062306 132.221135 
C 100.312442 133.045725 100.602913 133.857536 100.932669 134.653637 
C 101.262425 135.449738 101.631068 136.229169 102.037268 136.989115 
z
" clip-path="url(#pf313232deb)" style="fill: #ff8c8e"/>
   </g>
   <g id="patch_90">
    <path d="M 98.989807 132.546474 
C 98.729022 131.68678 98.510603 130.814801 98.335338 129.933685 
C 98.160073 129.05257 98.028174 128.16338 97.940118 127.269328 
L 96.868548 127.374869 
C 96.960059 128.303994 97.097132 129.228067 97.279273 130.14375 
C 97.461413 131.059432 97.688401 131.96562 97.959417 132.85904 
z
" clip-path="url(#pf313232deb)" style="fill: #ff8c8e"/>
   </g>
   <g id="patch_91">
    <path d="M 101.442418 126.924382 
C 101.365652 126.144965 101.3272 125.36225 101.3272 124.579063 
C 101.3272 123.795875 101.365652 123.01316 101.442418 122.233743 
L 95.835984 121.681558 
C 95.741144 122.644481 95.693638 123.61148 95.693638 124.579062 
C 95.693638 125.546645 95.741144 126.513644 95.835984 127.476567 
z
" clip-path="url(#pf313232deb)" style="fill: #ff8c8e"/>
   </g>
   <g id="patch_92">
    <path d="M 78.900217 120.01353 
C 79.049653 118.496274 79.273493 116.987269 79.570927 115.491967 
C 79.868362 113.996664 80.239032 112.516865 80.681599 111.057917 
L 80.681599 111.057917 
C 80.239032 112.516865 79.868362 113.996664 79.570927 115.491967 
C 79.273493 116.987269 79.049653 118.496274 78.900217 120.01353 
z
" clip-path="url(#pf313232deb)" style="fill: #ff8c8e"/>
   </g>
   <g id="patch_93">
    <path d="M 92.031909 114.500995 
C 92.361779 113.413559 92.74484 112.342974 93.17971 111.293107 
C 93.614579 110.24324 94.100731 109.215357 94.636412 108.213169 
L 59.764315 89.573645 
C 58.618535 91.717248 57.578691 93.915814 56.648539 96.1614 
C 55.718386 98.406987 54.899046 100.696889 54.193479 103.022833 
z
" clip-path="url(#pf313232deb)" style="fill: #ff8c8e"/>
   </g>
   <g id="patch_94">
    <path d="M 92.779092 107.220412 
C 93.347267 106.157432 93.967288 105.122988 94.636917 104.120818 
C 95.306546 103.118648 96.024975 102.149958 96.789609 101.218248 
L 87.778621 93.823122 
C 86.771933 95.049774 85.826078 96.325113 84.94447 97.644532 
C 84.062863 98.963951 83.246567 100.325859 82.49853 101.725337 
z
" clip-path="url(#pf313232deb)" style="fill: #ff8c8e"/>
   </g>
   <g id="patch_95">
    <path d="M 108.281457 110.649364 
C 108.737397 110.0938 109.220339 109.560956 109.728538 109.052757 
C 110.236737 108.544558 110.769581 108.061616 111.325146 107.605676 
L 106.501414 101.727942 
C 105.753462 102.341769 105.036099 102.99195 104.351915 103.676134 
C 103.667731 104.360318 103.017551 105.077681 102.403723 105.825632 
z
" clip-path="url(#pf313232deb)" style="fill: #ff8c8e"/>
   </g>
   <g id="patch_96">
    <path d="M 102.686153 97.079033 
C 103.58627 96.340327 104.522113 95.646258 105.490302 94.999335 
C 106.45849 94.352412 107.457858 93.753414 108.484794 93.204506 
L 74.944694 30.455392 
C 71.863886 32.102118 68.865784 33.899111 65.961218 35.83988 
C 63.056652 37.780649 60.249123 39.862855 57.548772 42.078975 
z
" clip-path="url(#pf313232deb)" style="fill: #ff8c8e"/>
   </g>
   <g id="patch_97">
    <path d="M 86.960752 52.935857 
C 89.305741 51.682434 91.710857 50.544899 94.167411 49.527361 
C 96.623965 48.509823 99.128997 47.613508 101.673459 46.841654 
L 93.068078 18.473517 
C 89.595085 19.527038 86.175911 20.750438 82.822904 22.139299 
C 79.469898 23.52816 76.187102 25.080807 72.986373 26.791632 
z
" clip-path="url(#pf313232deb)" style="fill: #ff8c8e"/>
   </g>
   <g id="patch_98">
    <path d="M 116.100985 94.402833 
C 117.088698 94.103214 118.090526 93.852269 119.102851 93.650905 
C 120.115175 93.449541 121.136777 93.298001 122.163964 93.196832 
L 119.073084 61.814601 
C 117.018709 62.016939 114.975507 62.32002 112.950858 62.722747 
C 110.926208 63.125475 108.922552 63.627365 106.947126 64.226604 
z
" clip-path="url(#pf313232deb)" style="fill: #ff8c8e"/>
   </g>
   <g id="patch_99">
    <path d="M 115.160072 22.085126 
C 118.514852 21.754709 121.883832 21.589202 125.254844 21.589202 
C 128.625856 21.589202 131.994836 21.754709 135.349615 22.085126 
L 135.349615 22.085126 
C 131.994836 21.754709 128.625856 21.589202 125.254844 21.589202 
C 121.883832 21.589202 118.514852 21.754709 115.160072 22.085126 
z
" clip-path="url(#pf313232deb)" style="fill: #828282"/>
   </g>
   <g id="patch_100">
    <path d="M 131.506456 61.105375 
C 133.584045 61.31 135.650335 61.616505 137.697862 62.023784 
C 139.74539 62.431062 141.771687 62.938623 143.769435 63.544634 
L 143.769435 63.544634 
C 141.771687 62.938623 139.74539 62.431062 137.697862 62.023784 
C 135.650335 61.616505 133.584045 61.31 131.506456 61.105375 
z
" clip-path="url(#pf313232deb)" style="fill: #828282"/>
   </g>
   <g id="patch_101">
    <path d="M 139.237594 78.484111 
C 140.746351 78.941787 142.231728 79.473263 143.688359 80.07662 
C 145.14499 80.679976 146.571121 81.354486 147.961599 82.097712 
L 147.961599 82.097712 
C 146.571121 81.354486 145.14499 80.679976 143.688359 80.07662 
C 142.231728 79.473263 140.746351 78.941787 139.237594 78.484111 
z
" clip-path="url(#pf313232deb)" style="fill: #828282"/>
   </g>
   <g id="patch_102">
    <path d="M 133.43779 109.269846 
C 133.938884 109.537686 134.426525 109.829967 134.898953 110.145633 
C 135.37138 110.4613 135.828025 110.79997 136.267237 111.160422 
L 136.267237 111.160422 
C 135.828025 110.79997 135.37138 110.4613 134.898953 110.145633 
C 134.426525 109.829967 133.938884 109.537686 133.43779 109.269846 
z
" clip-path="url(#pf313232deb)" style="fill: #828282"/>
   </g>
   <g id="patch_103">
    <path d="M 150.366964 93.979855 
C 151.368522 94.801812 152.32912 95.672448 153.245289 96.588617 
C 154.161459 97.504786 155.032094 98.465384 155.854051 99.466942 
L 155.854051 99.466942 
C 155.032094 98.465384 154.161459 97.504786 153.245289 96.588617 
C 152.32912 95.672448 151.368522 94.801812 150.366964 93.979855 
z
" clip-path="url(#pf313232deb)" style="fill: #828282"/>
   </g>
   <g id="patch_104">
    <path d="M 152.092124 102.554276 
C 152.813028 103.4327 153.49037 104.345989 154.121702 105.290845 
C 154.753034 106.2357 155.337596 107.210982 155.873276 108.213169 
L 155.873276 108.213169 
C 155.337596 107.210982 154.753034 106.2357 154.121702 105.290845 
C 153.49037 104.345989 152.813028 103.4327 152.092124 102.554276 
z
" clip-path="url(#pf313232deb)" style="fill: #828282"/>
   </g>
   <g id="patch_105">
    <path d="M 171.182492 100.030223 
C 171.986012 101.533504 172.715241 103.075329 173.367545 104.650129 
C 174.019849 106.22493 174.594441 107.830807 175.089246 109.461962 
L 175.089246 109.461962 
C 174.594441 107.830807 174.019849 106.22493 173.367545 104.650129 
C 172.715241 103.075329 171.986012 101.533504 171.182492 100.030223 
z
" clip-path="url(#pf313232deb)" style="fill: #828282"/>
   </g>
   <g id="patch_106">
    <path d="M 141.866311 119.540029 
C 142.031246 120.083747 142.169387 120.635235 142.280234 121.192502 
C 142.391081 121.749768 142.474501 122.312141 142.530193 122.877589 
L 142.530193 122.877589 
C 142.474501 122.312141 142.391081 121.749768 142.280234 121.192502 
C 142.169387 120.635235 142.031246 120.083747 141.866311 119.540029 
z
" clip-path="url(#pf313232deb)" style="fill: #828282"/>
   </g>
   <g id="patch_107">
    <path d="M 136.180734 123.502956 
C 136.215957 123.860577 136.2336 124.219711 136.2336 124.579063 
C 136.2336 124.938414 136.215957 125.297548 136.180734 125.655169 
L 136.180734 125.655169 
C 136.215957 125.297548 136.2336 124.938414 136.2336 124.579063 
C 136.2336 124.219711 136.215957 123.860577 136.180734 123.502956 
z
" clip-path="url(#pf313232deb)" style="fill: #828282"/>
   </g>
   <g id="patch_108">
    <path d="M 125.254844 124.579063 
C 125.254844 124.579063 125.254844 124.579063 125.254844 124.579063 
C 125.254844 124.579063 125.254844 124.579063 125.254844 124.579063 
L 125.254844 124.579063 
C 125.254844 124.579063 125.254844 124.579063 125.254844 124.579063 
C 125.254844 124.579063 125.254844 124.579063 125.254844 124.579063 
z
" clip-path="url(#pf313232deb)" style="fill: #828282"/>
   </g>
   <g id="patch_109">
    <path d="M 139.152995 128.79502 
C 139.015 129.249928 138.854754 129.697786 138.672835 130.136976 
C 138.490916 130.576167 138.287544 131.006162 138.063453 131.425407 
L 138.063453 131.425407 
C 138.287544 131.006162 138.490916 130.576167 138.672835 130.136976 
C 138.854754 129.697786 139.015 129.249928 139.152995 128.79502 
z
" clip-path="url(#pf313232deb)" style="fill: #828282"/>
   </g>
   <g id="patch_110">
    <path d="M 130.096043 127.166737 
C 130.011345 127.325197 129.918917 127.479403 129.819095 127.628798 
C 129.719272 127.778192 129.612175 127.922596 129.49819 128.061487 
L 129.49819 128.061487 
C 129.612175 127.922596 129.719272 127.778192 129.819095 127.628798 
C 129.918917 127.479403 130.011345 127.325197 130.096043 127.166737 
z
" clip-path="url(#pf313232deb)" style="fill: #828282"/>
   </g>
   <g id="patch_111">
    <path d="M 148.49661 143.653087 
C 147.872289 144.413825 147.210994 145.143452 146.515113 145.839332 
C 145.819233 146.535213 145.089606 147.196508 144.328869 147.820829 
L 144.328869 147.820829 
C 145.089606 147.196508 145.819233 146.535213 146.515113 145.839332 
C 147.210994 145.143452 147.872289 144.413825 148.49661 143.653087 
z
" clip-path="url(#pf313232deb)" style="fill: #828282"/>
   </g>
   <g id="patch_112">
    <path d="M 132.219693 133.065756 
C 131.941911 133.293726 131.653103 133.50792 131.354314 133.707565 
C 131.055524 133.907209 130.747113 134.092064 130.430194 134.261461 
L 130.430194 134.261461 
C 130.747113 134.092064 131.055524 133.907209 131.354314 133.707565 
C 131.653103 133.50792 131.941911 133.293726 132.219693 133.065756 
z
" clip-path="url(#pf313232deb)" style="fill: #828282"/>
   </g>
   <g id="patch_113">
    <path d="M 132.573894 138.272042 
C 132.125702 138.511605 131.666019 138.729019 131.196504 138.923499 
C 130.726989 139.117978 130.248209 139.289288 129.761892 139.436811 
L 129.761892 139.436811 
C 130.248209 139.289288 130.726989 139.117978 131.196504 138.923499 
C 131.666019 138.729019 132.125702 138.511605 132.573894 138.272042 
z
" clip-path="url(#pf313232deb)" style="fill: #828282"/>
   </g>
   <g id="patch_114">
    <path d="M 129.158062 137.44625 
C 128.7369 137.574008 128.309719 137.681011 127.878062 137.766873 
C 127.446406 137.852735 127.010794 137.917352 126.572799 137.960491 
L 126.572799 137.960491 
C 127.010794 137.917352 127.446406 137.852735 127.878062 137.766873 
C 128.309719 137.681011 128.7369 137.574008 129.158062 137.44625 
z
" clip-path="url(#pf313232deb)" style="fill: #828282"/>
   </g>
   <g id="patch_115">
    <path d="M 125.254844 124.579063 
C 125.254844 124.579063 125.254844 124.579063 125.254844 124.579063 
C 125.254844 124.579063 125.254844 124.579063 125.254844 124.579063 
L 125.254844 124.579063 
C 125.254844 124.579063 125.254844 124.579063 125.254844 124.579063 
C 125.254844 124.579063 125.254844 124.579063 125.254844 124.579063 
z
" clip-path="url(#pf313232deb)" style="fill: #828282"/>
   </g>
   <g id="patch_116">
    <path d="M 125.254844 124.579063 
C 125.254844 124.579063 125.254844 124.579063 125.254844 124.579063 
C 125.254844 124.579063 125.254844 124.579063 125.254844 124.579063 
L 125.254844 124.579063 
C 125.254844 124.579063 125.254844 124.579063 125.254844 124.579063 
C 125.254844 124.579063 125.254844 124.579063 125.254844 124.579063 
z
" clip-path="url(#pf313232deb)" style="fill: #828282"/>
   </g>
   <g id="patch_117">
    <path d="M 125.254844 124.579063 
C 125.254844 124.579063 125.254844 124.579063 125.254844 124.579063 
C 125.254844 124.579063 125.254844 124.579063 125.254844 124.579063 
L 125.254844 124.579063 
C 125.254844 124.579063 125.254844 124.579063 125.254844 124.579063 
C 125.254844 124.579063 125.254844 124.579063 125.254844 124.579063 
z
" clip-path="url(#pf313232deb)" style="fill: #828282"/>
   </g>
   <g id="patch_118">
    <path d="M 120.772859 132.964266 
C 120.498399 132.817563 120.231307 132.657475 119.972548 132.484577 
C 119.713788 132.31168 119.463674 132.126182 119.223107 131.928754 
L 119.223107 131.928754 
C 119.463674 132.126182 119.713788 132.31168 119.972548 132.484577 
C 120.231307 132.657475 120.498399 132.817563 120.772859 132.964266 
z
" clip-path="url(#pf313232deb)" style="fill: #828282"/>
   </g>
   <g id="patch_119">
    <path d="M 118.289995 133.065756 
C 118.012212 132.837786 117.74579 132.596315 117.491691 132.342215 
C 117.237591 132.088116 116.99612 131.821694 116.768151 131.543912 
L 116.768151 131.543912 
C 116.99612 131.821694 117.237591 132.088116 117.491691 132.342215 
C 117.74579 132.596315 118.012212 132.837786 118.289995 133.065756 
z
" clip-path="url(#pf313232deb)" style="fill: #828282"/>
   </g>
   <g id="patch_120">
    <path d="M 114.028004 133.792692 
C 113.726428 133.425221 113.443076 133.043164 113.178971 132.647903 
C 112.914865 132.252642 112.670326 131.844652 112.446235 131.425407 
L 112.446235 131.425407 
C 112.670326 131.844652 112.914865 132.252642 113.178971 132.647903 
C 113.443076 133.043164 113.726428 133.425221 114.028004 133.792692 
z
" clip-path="url(#pf313232deb)" style="fill: #828282"/>
   </g>
   <g id="patch_121">
    <path d="M 102.037268 136.989115 
C 101.631068 136.229169 101.262425 135.449738 100.932669 134.653637 
C 100.602913 133.857536 100.312442 133.045725 100.062306 132.221135 
L 100.062306 132.221135 
C 100.312442 133.045725 100.602913 133.857536 100.932669 134.653637 
C 101.262425 135.449738 101.631068 136.229169 102.037268 136.989115 
z
" clip-path="url(#pf313232deb)" style="fill: #828282"/>
   </g>
   <g id="patch_122">
    <path d="M 97.959417 132.85904 
C 97.688401 131.96562 97.461413 131.059432 97.279273 130.14375 
C 97.097132 129.228067 96.960059 128.303994 96.868548 127.374869 
L 96.868548 127.374869 
C 96.960059 128.303994 97.097132 129.228067 97.279273 130.14375 
C 97.461413 131.059432 97.688401 131.96562 97.959417 132.85904 
z
" clip-path="url(#pf313232deb)" style="fill: #828282"/>
   </g>
   <g id="patch_123">
    <path d="M 95.835984 127.476567 
C 95.741144 126.513644 95.693638 125.546645 95.693638 124.579062 
C 95.693638 123.61148 95.741144 122.644481 95.835984 121.681558 
L 95.835984 121.681558 
C 95.741144 122.644481 95.693638 123.61148 95.693638 124.579062 
C 95.693638 125.546645 95.741144 126.513644 95.835984 127.476567 
z
" clip-path="url(#pf313232deb)" style="fill: #828282"/>
   </g>
   <g id="patch_124">
    <path d="M 78.900217 120.01353 
C 79.049653 118.496274 79.273493 116.987269 79.570927 115.491967 
C 79.868362 113.996664 80.239032 112.516865 80.681599 111.057917 
L 80.681599 111.057917 
C 80.239032 112.516865 79.868362 113.996664 79.570927 115.491967 
C 79.273493 116.987269 79.049653 118.496274 78.900217 120.01353 
z
" clip-path="url(#pf313232deb)" style="fill: #828282"/>
   </g>
   <g id="patch_125">
    <path d="M 54.193479 103.022833 
C 54.899046 100.696889 55.718386 98.406987 56.648539 96.1614 
C 57.578691 93.915814 58.618535 91.717248 59.764315 89.573645 
L 59.764315 89.573645 
C 58.618535 91.717248 57.578691 93.915814 56.648539 96.1614 
C 55.718386 98.406987 54.899046 100.696889 54.193479 103.022833 
z
" clip-path="url(#pf313232deb)" style="fill: #828282"/>
   </g>
   <g id="patch_126">
    <path d="M 82.49853 101.725337 
C 83.246567 100.325859 84.062863 98.963951 84.94447 97.644532 
C 85.826078 96.325113 86.771933 95.049774 87.778621 93.823122 
L 87.778621 93.823122 
C 86.771933 95.049774 85.826078 96.325113 84.94447 97.644532 
C 84.062863 98.963951 83.246567 100.325859 82.49853 101.725337 
z
" clip-path="url(#pf313232deb)" style="fill: #828282"/>
   </g>
   <g id="patch_127">
    <path d="M 102.403723 105.825632 
C 103.017551 105.077681 103.667731 104.360318 104.351915 103.676134 
C 105.036099 102.99195 105.753462 102.341769 106.501414 101.727942 
L 106.501414 101.727942 
C 105.753462 102.341769 105.036099 102.99195 104.351915 103.676134 
C 103.667731 104.360318 103.017551 105.077681 102.403723 105.825632 
z
" clip-path="url(#pf313232deb)" style="fill: #828282"/>
   </g>
   <g id="patch_128">
    <path d="M 57.548772 42.078975 
C 60.249123 39.862855 63.056652 37.780649 65.961218 35.83988 
C 68.865784 33.899111 71.863886 32.102118 74.944694 30.455392 
L 74.944694 30.455392 
C 71.863886 32.102118 68.865784 33.899111 65.961218 35.83988 
C 63.056652 37.780649 60.249123 39.862855 57.548772 42.078975 
z
" clip-path="url(#pf313232deb)" style="fill: #828282"/>
   </g>
   <g id="patch_129">
    <path d="M 72.986373 26.791632 
C 76.187102 25.080807 79.469898 23.52816 82.822904 22.139299 
C 86.175911 20.750438 89.595085 19.527038 93.068078 18.473517 
L 93.068078 18.473517 
C 89.595085 19.527038 86.175911 20.750438 82.822904 22.139299 
C 79.469898 23.52816 76.187102 25.080807 72.986373 26.791632 
z
" clip-path="url(#pf313232deb)" style="fill: #828282"/>
   </g>
   <g id="patch_130">
    <path d="M 106.947126 64.226604 
C 108.922552 63.627365 110.926208 63.125475 112.950858 62.722747 
C 114.975507 62.32002 117.018709 62.016939 119.073084 61.814601 
L 119.073084 61.814601 
C 117.018709 62.016939 114.975507 62.32002 112.950858 62.722747 
C 110.926208 63.125475 108.922552 63.627365 106.947126 64.226604 
z
" clip-path="url(#pf313232deb)" style="fill: #828282"/>
   </g>
   <g id="patch_131">
    <path d="M 125.254844 124.579063 
C 125.254844 124.579063 125.254844 124.579063 125.254844 124.579063 
C 125.254844 124.579063 125.254844 124.579063 125.254844 124.579063 
L 135.349615 22.085126 
C 131.994836 21.754709 128.625856 21.589202 125.254844 21.589202 
C 121.883832 21.589202 118.514852 21.754709 115.160072 22.085126 
L 125.254844 124.579063 
z
" clip-path="url(#pf313232deb)" style="fill: none; stroke: #292929; stroke-width: 0.5; stroke-linejoin: miter"/>
   </g>
   <g id="patch_132">
    <path d="M 125.254844 124.579063 
C 125.254844 124.579063 125.254844 124.579063 125.254844 124.579063 
C 125.254844 124.579063 125.254844 124.579063 125.254844 124.579063 
L 143.769435 63.544634 
C 141.771687 62.938623 139.74539 62.431062 137.697862 62.023784 
C 135.650335 61.616505 133.584045 61.31 131.506456 61.105375 
L 125.254844 124.579063 
z
" clip-path="url(#pf313232deb)" style="fill: none; stroke: #292929; stroke-width: 0.5; stroke-linejoin: miter"/>
   </g>
   <g id="patch_133">
    <path d="M 125.254844 124.579063 
C 125.254844 124.579063 125.254844 124.579063 125.254844 124.579063 
C 125.254844 124.579063 125.254844 124.579063 125.254844 124.579063 
L 147.961599 82.097712 
C 146.571121 81.354486 145.14499 80.679976 143.688359 80.07662 
C 142.231728 79.473263 140.746351 78.941787 139.237594 78.484111 
L 125.254844 124.579063 
z
" clip-path="url(#pf313232deb)" style="fill: none; stroke: #292929; stroke-width: 0.5; stroke-linejoin: miter"/>
   </g>
   <g id="patch_134">
    <path d="M 125.254844 124.579063 
C 125.254844 124.579063 125.254844 124.579063 125.254844 124.579063 
C 125.254844 124.579063 125.254844 124.579063 125.254844 124.579063 
L 136.267237 111.160422 
C 135.828025 110.79997 135.37138 110.4613 134.898953 110.145633 
C 134.426525 109.829967 133.938884 109.537686 133.43779 109.269846 
L 125.254844 124.579063 
z
" clip-path="url(#pf313232deb)" style="fill: none; stroke: #292929; stroke-width: 0.5; stroke-linejoin: miter"/>
   </g>
   <g id="patch_135">
    <path d="M 125.254844 124.579063 
C 125.254844 124.579063 125.254844 124.579063 125.254844 124.579063 
C 125.254844 124.579063 125.254844 124.579063 125.254844 124.579063 
L 155.854051 99.466942 
C 155.032094 98.465384 154.161459 97.504786 153.245289 96.588617 
C 152.32912 95.672448 151.368522 94.801812 150.366964 93.979855 
L 125.254844 124.579063 
z
" clip-path="url(#pf313232deb)" style="fill: none; stroke: #292929; stroke-width: 0.5; stroke-linejoin: miter"/>
   </g>
   <g id="patch_136">
    <path d="M 125.254844 124.579063 
C 125.254844 124.579063 125.254844 124.579063 125.254844 124.579063 
C 125.254844 124.579063 125.254844 124.579063 125.254844 124.579063 
L 155.873276 108.213169 
C 155.337596 107.210982 154.753034 106.2357 154.121702 105.290845 
C 153.49037 104.345989 152.813028 103.4327 152.092124 102.554276 
L 125.254844 124.579063 
z
" clip-path="url(#pf313232deb)" style="fill: none; stroke: #292929; stroke-width: 0.5; stroke-linejoin: miter"/>
   </g>
   <g id="patch_137">
    <path d="M 125.254844 124.579063 
C 125.254844 124.579063 125.254844 124.579063 125.254844 124.579063 
C 125.254844 124.579063 125.254844 124.579063 125.254844 124.579063 
L 175.089246 109.461962 
C 174.594441 107.830807 174.019849 106.22493 173.367545 104.650129 
C 172.715241 103.075329 171.986012 101.533504 171.182492 100.030223 
L 125.254844 124.579063 
z
" clip-path="url(#pf313232deb)" style="fill: none; stroke: #292929; stroke-width: 0.5; stroke-linejoin: miter"/>
   </g>
   <g id="patch_138">
    <path d="M 125.254844 124.579063 
C 125.254844 124.579063 125.254844 124.579063 125.254844 124.579063 
C 125.254844 124.579063 125.254844 124.579063 125.254844 124.579063 
L 142.530193 122.877589 
C 142.474501 122.312141 142.391081 121.749768 142.280234 121.192502 
C 142.169387 120.635235 142.031246 120.083747 141.866311 119.540029 
L 125.254844 124.579063 
z
" clip-path="url(#pf313232deb)" style="fill: none; stroke: #292929; stroke-width: 0.5; stroke-linejoin: miter"/>
   </g>
   <g id="patch_139">
    <path d="M 125.254844 124.579063 
C 125.254844 124.579063 125.254844 124.579063 125.254844 124.579063 
C 125.254844 124.579063 125.254844 124.579063 125.254844 124.579063 
L 136.180734 125.655169 
C 136.215957 125.297548 136.2336 124.938414 136.2336 124.579063 
C 136.2336 124.219711 136.215957 123.860577 136.180734 123.502956 
L 125.254844 124.579063 
z
" clip-path="url(#pf313232deb)" style="fill: none; stroke: #292929; stroke-width: 0.5; stroke-linejoin: miter"/>
   </g>
   <g id="patch_140">
    <path d="M 125.254844 124.579063 
C 125.254844 124.579063 125.254844 124.579063 125.254844 124.579063 
C 125.254844 124.579063 125.254844 124.579063 125.254844 124.579063 
L 125.254844 124.579063 
C 125.254844 124.579063 125.254844 124.579063 125.254844 124.579063 
C 125.254844 124.579063 125.254844 124.579063 125.254844 124.579063 
L 125.254844 124.579063 
z
" clip-path="url(#pf313232deb)" style="fill: none; stroke: #292929; stroke-width: 0.5; stroke-linejoin: miter"/>
   </g>
   <g id="patch_141">
    <path d="M 125.254844 124.579063 
C 125.254844 124.579063 125.254844 124.579063 125.254844 124.579063 
C 125.254844 124.579063 125.254844 124.579063 125.254844 124.579063 
L 138.063453 131.425407 
C 138.287544 131.006162 138.490916 130.576167 138.672835 130.136976 
C 138.854754 129.697786 139.015 129.249928 139.152995 128.79502 
L 125.254844 124.579063 
z
" clip-path="url(#pf313232deb)" style="fill: none; stroke: #292929; stroke-width: 0.5; stroke-linejoin: miter"/>
   </g>
   <g id="patch_142">
    <path d="M 125.254844 124.579063 
C 125.254844 124.579063 125.254844 124.579063 125.254844 124.579063 
C 125.254844 124.579063 125.254844 124.579063 125.254844 124.579063 
L 129.49819 128.061487 
C 129.612175 127.922596 129.719272 127.778192 129.819095 127.628798 
C 129.918917 127.479403 130.011345 127.325197 130.096043 127.166737 
L 125.254844 124.579063 
z
" clip-path="url(#pf313232deb)" style="fill: none; stroke: #292929; stroke-width: 0.5; stroke-linejoin: miter"/>
   </g>
   <g id="patch_143">
    <path d="M 125.254844 124.579063 
C 125.254844 124.579063 125.254844 124.579063 125.254844 124.579063 
C 125.254844 124.579063 125.254844 124.579063 125.254844 124.579063 
L 144.328869 147.820829 
C 145.089606 147.196508 145.819233 146.535213 146.515113 145.839332 
C 147.210994 145.143452 147.872289 144.413825 148.49661 143.653087 
L 125.254844 124.579063 
z
" clip-path="url(#pf313232deb)" style="fill: none; stroke: #292929; stroke-width: 0.5; stroke-linejoin: miter"/>
   </g>
   <g id="patch_144">
    <path d="M 125.254844 124.579063 
C 125.254844 124.579063 125.254844 124.579063 125.254844 124.579063 
C 125.254844 124.579063 125.254844 124.579063 125.254844 124.579063 
L 130.430194 134.261461 
C 130.747113 134.092064 131.055524 133.907209 131.354314 133.707565 
C 131.653103 133.50792 131.941911 133.293726 132.219693 133.065756 
L 125.254844 124.579063 
z
" clip-path="url(#pf313232deb)" style="fill: none; stroke: #292929; stroke-width: 0.5; stroke-linejoin: miter"/>
   </g>
   <g id="patch_145">
    <path d="M 125.254844 124.579063 
C 125.254844 124.579063 125.254844 124.579063 125.254844 124.579063 
C 125.254844 124.579063 125.254844 124.579063 125.254844 124.579063 
L 129.761892 139.436811 
C 130.248209 139.289288 130.726989 139.117978 131.196504 138.923499 
C 131.666019 138.729019 132.125702 138.511605 132.573894 138.272042 
L 125.254844 124.579063 
z
" clip-path="url(#pf313232deb)" style="fill: none; stroke: #292929; stroke-width: 0.5; stroke-linejoin: miter"/>
   </g>
   <g id="patch_146">
    <path d="M 125.254844 124.579063 
C 125.254844 124.579063 125.254844 124.579063 125.254844 124.579063 
C 125.254844 124.579063 125.254844 124.579063 125.254844 124.579063 
L 126.572799 137.960491 
C 127.010794 137.917352 127.446406 137.852735 127.878062 137.766873 
C 128.309719 137.681011 128.7369 137.574008 129.158062 137.44625 
L 125.254844 124.579063 
z
" clip-path="url(#pf313232deb)" style="fill: none; stroke: #292929; stroke-width: 0.5; stroke-linejoin: miter"/>
   </g>
   <g id="patch_147">
    <path d="M 125.254844 124.579063 
C 125.254844 124.579063 125.254844 124.579063 125.254844 124.579063 
C 125.254844 124.579063 125.254844 124.579063 125.254844 124.579063 
L 125.254844 124.579063 
C 125.254844 124.579063 125.254844 124.579063 125.254844 124.579063 
C 125.254844 124.579063 125.254844 124.579063 125.254844 124.579063 
L 125.254844 124.579063 
z
" clip-path="url(#pf313232deb)" style="fill: none; stroke: #292929; stroke-width: 0.5; stroke-linejoin: miter"/>
   </g>
   <g id="patch_148">
    <path d="M 125.254844 124.579063 
C 125.254844 124.579063 125.254844 124.579063 125.254844 124.579063 
C 125.254844 124.579063 125.254844 124.579063 125.254844 124.579063 
L 125.254844 124.579063 
C 125.254844 124.579063 125.254844 124.579063 125.254844 124.579063 
C 125.254844 124.579063 125.254844 124.579063 125.254844 124.579063 
L 125.254844 124.579063 
z
" clip-path="url(#pf313232deb)" style="fill: none; stroke: #292929; stroke-width: 0.5; stroke-linejoin: miter"/>
   </g>
   <g id="patch_149">
    <path d="M 125.254844 124.579063 
C 125.254844 124.579063 125.254844 124.579063 125.254844 124.579063 
C 125.254844 124.579063 125.254844 124.579063 125.254844 124.579063 
L 125.254844 124.579063 
C 125.254844 124.579063 125.254844 124.579063 125.254844 124.579063 
C 125.254844 124.579063 125.254844 124.579063 125.254844 124.579063 
L 125.254844 124.579063 
z
" clip-path="url(#pf313232deb)" style="fill: none; stroke: #292929; stroke-width: 0.5; stroke-linejoin: miter"/>
   </g>
   <g id="patch_150">
    <path d="M 125.254844 124.579063 
C 125.254844 124.579063 125.254844 124.579063 125.254844 124.579063 
C 125.254844 124.579063 125.254844 124.579063 125.254844 124.579063 
L 119.223107 131.928754 
C 119.463674 132.126182 119.713788 132.31168 119.972548 132.484577 
C 120.231307 132.657475 120.498399 132.817563 120.772859 132.964266 
L 125.254844 124.579063 
z
" clip-path="url(#pf313232deb)" style="fill: none; stroke: #292929; stroke-width: 0.5; stroke-linejoin: miter"/>
   </g>
   <g id="patch_151">
    <path d="M 125.254844 124.579063 
C 125.254844 124.579063 125.254844 124.579063 125.254844 124.579063 
C 125.254844 124.579063 125.254844 124.579063 125.254844 124.579063 
L 116.768151 131.543912 
C 116.99612 131.821694 117.237591 132.088116 117.491691 132.342215 
C 117.74579 132.596315 118.012212 132.837786 118.289995 133.065756 
L 125.254844 124.579063 
z
" clip-path="url(#pf313232deb)" style="fill: none; stroke: #292929; stroke-width: 0.5; stroke-linejoin: miter"/>
   </g>
   <g id="patch_152">
    <path d="M 125.254844 124.579063 
C 125.254844 124.579063 125.254844 124.579063 125.254844 124.579063 
C 125.254844 124.579063 125.254844 124.579063 125.254844 124.579063 
L 112.446235 131.425407 
C 112.670326 131.844652 112.914865 132.252642 113.178971 132.647903 
C 113.443076 133.043164 113.726428 133.425221 114.028004 133.792692 
L 125.254844 124.579063 
z
" clip-path="url(#pf313232deb)" style="fill: none; stroke: #292929; stroke-width: 0.5; stroke-linejoin: miter"/>
   </g>
   <g id="patch_153">
    <path d="M 125.254844 124.579063 
C 125.254844 124.579063 125.254844 124.579063 125.254844 124.579063 
C 125.254844 124.579063 125.254844 124.579063 125.254844 124.579063 
L 100.062306 132.221135 
C 100.312442 133.045725 100.602913 133.857536 100.932669 134.653637 
C 101.262425 135.449738 101.631068 136.229169 102.037268 136.989115 
L 125.254844 124.579063 
z
" clip-path="url(#pf313232deb)" style="fill: none; stroke: #292929; stroke-width: 0.5; stroke-linejoin: miter"/>
   </g>
   <g id="patch_154">
    <path d="M 125.254844 124.579063 
C 125.254844 124.579063 125.254844 124.579063 125.254844 124.579063 
C 125.254844 124.579063 125.254844 124.579063 125.254844 124.579063 
L 96.868548 127.374869 
C 96.960059 128.303994 97.097132 129.228067 97.279273 130.14375 
C 97.461413 131.059432 97.688401 131.96562 97.959417 132.85904 
L 125.254844 124.579063 
z
" clip-path="url(#pf313232deb)" style="fill: none; stroke: #292929; stroke-width: 0.5; stroke-linejoin: miter"/>
   </g>
   <g id="patch_155">
    <path d="M 125.254844 124.579063 
C 125.254844 124.579063 125.254844 124.579063 125.254844 124.579063 
C 125.254844 124.579063 125.254844 124.579063 125.254844 124.579063 
L 95.835984 121.681558 
C 95.741144 122.644481 95.693638 123.61148 95.693638 124.579062 
C 95.693638 125.546645 95.741144 126.513644 95.835984 127.476567 
L 125.254844 124.579063 
z
" clip-path="url(#pf313232deb)" style="fill: none; stroke: #292929; stroke-width: 0.5; stroke-linejoin: miter"/>
   </g>
   <g id="patch_156">
    <path d="M 125.254844 124.579063 
C 125.254844 124.579063 125.254844 124.579063 125.254844 124.579063 
C 125.254844 124.579063 125.254844 124.579063 125.254844 124.579063 
L 80.681599 111.057917 
C 80.239032 112.516865 79.868362 113.996664 79.570927 115.491967 
C 79.273493 116.987269 79.049653 118.496274 78.900217 120.01353 
L 125.254844 124.579063 
z
" clip-path="url(#pf313232deb)" style="fill: none; stroke: #292929; stroke-width: 0.5; stroke-linejoin: miter"/>
   </g>
   <g id="patch_157">
    <path d="M 125.254844 124.579063 
C 125.254844 124.579063 125.254844 124.579063 125.254844 124.579063 
C 125.254844 124.579063 125.254844 124.579063 125.254844 124.579063 
L 59.764315 89.573645 
C 58.618535 91.717248 57.578691 93.915814 56.648539 96.1614 
C 55.718386 98.406987 54.899046 100.696889 54.193479 103.022833 
L 125.254844 124.579063 
z
" clip-path="url(#pf313232deb)" style="fill: none; stroke: #292929; stroke-width: 0.5; stroke-linejoin: miter"/>
   </g>
   <g id="patch_158">
    <path d="M 125.254844 124.579063 
C 125.254844 124.579063 125.254844 124.579063 125.254844 124.579063 
C 125.254844 124.579063 125.254844 124.579063 125.254844 124.579063 
L 87.778621 93.823122 
C 86.771933 95.049774 85.826078 96.325113 84.94447 97.644532 
C 84.062863 98.963951 83.246567 100.325859 82.49853 101.725337 
L 125.254844 124.579063 
z
" clip-path="url(#pf313232deb)" style="fill: none; stroke: #292929; stroke-width: 0.5; stroke-linejoin: miter"/>
   </g>
   <g id="patch_159">
    <path d="M 125.254844 124.579063 
C 125.254844 124.579063 125.254844 124.579063 125.254844 124.579063 
C 125.254844 124.579063 125.254844 124.579063 125.254844 124.579063 
L 106.501414 101.727942 
C 105.753462 102.341769 105.036099 102.99195 104.351915 103.676134 
C 103.667731 104.360318 103.017551 105.077681 102.403723 105.825632 
L 125.254844 124.579063 
z
" clip-path="url(#pf313232deb)" style="fill: none; stroke: #292929; stroke-width: 0.5; stroke-linejoin: miter"/>
   </g>
   <g id="patch_160">
    <path d="M 125.254844 124.579063 
C 125.254844 124.579063 125.254844 124.579063 125.254844 124.579063 
C 125.254844 124.579063 125.254844 124.579063 125.254844 124.579063 
L 74.944694 30.455392 
C 71.863886 32.102118 68.865784 33.899111 65.961218 35.83988 
C 63.056652 37.780649 60.249123 39.862855 57.548772 42.078975 
L 125.254844 124.579063 
z
" clip-path="url(#pf313232deb)" style="fill: none; stroke: #292929; stroke-width: 0.5; stroke-linejoin: miter"/>
   </g>
   <g id="patch_161">
    <path d="M 125.254844 124.579063 
C 125.254844 124.579063 125.254844 124.579063 125.254844 124.579063 
C 125.254844 124.579063 125.254844 124.579063 125.254844 124.579063 
L 93.068078 18.473517 
C 89.595085 19.527038 86.175911 20.750438 82.822904 22.139299 
C 79.469898 23.52816 76.187102 25.080807 72.986373 26.791632 
L 125.254844 124.579063 
z
" clip-path="url(#pf313232deb)" style="fill: none; stroke: #292929; stroke-width: 0.5; stroke-linejoin: miter"/>
   </g>
   <g id="patch_162">
    <path d="M 125.254844 124.579063 
C 125.254844 124.579063 125.254844 124.579063 125.254844 124.579063 
C 125.254844 124.579063 125.254844 124.579063 125.254844 124.579063 
L 119.073084 61.814601 
C 117.018709 62.016939 114.975507 62.32002 112.950858 62.722747 
C 110.926208 63.125475 108.922552 63.627365 106.947126 64.226604 
L 125.254844 124.579063 
z
" clip-path="url(#pf313232deb)" style="fill: none; stroke: #292929; stroke-width: 0.5; stroke-linejoin: miter"/>
   </g>
   <g id="PathCollection_1">
    <defs>
     <path id="m86cd0fd96e" d="M 0.193618 7.414054 
L 0.193618 7.414054 
C 0.054922 7.414054 -0.078235 7.358899 -0.176308 7.260826 
C -0.274381 7.162753 -0.329536 7.029596 -0.329536 6.890901 
L -0.329536 5.365008 
L -1.528416 6.56393 
L -1.528416 6.56393 
C -1.577018 6.612704 -1.634775 6.651408 -1.698366 6.677814 
C -1.761958 6.704221 -1.830141 6.717815 -1.898997 6.717815 
C -1.967853 6.717815 -2.036037 6.704221 -2.099628 6.677814 
C -2.163219 6.651408 -2.220976 6.612704 -2.269578 6.56393 
L -2.269578 6.56393 
C -2.318353 6.515327 -2.357056 6.457571 -2.383463 6.393979 
C -2.409869 6.330388 -2.423463 6.262205 -2.423463 6.193348 
C -2.423463 6.124492 -2.409869 6.056309 -2.383463 5.992718 
C -2.357056 5.929126 -2.318353 5.87137 -2.269578 5.822767 
L -0.329536 3.884106 
L -0.329536 0.820937 
L -2.98067 2.351538 
L -3.691824 5.001416 
L -3.691824 5.001416 
C -3.727584 5.135411 -3.815199 5.249836 -3.93523 5.319305 
C -4.055261 5.388775 -4.198123 5.407741 -4.332122 5.371997 
L -4.332122 5.371997 
C -4.466126 5.336237 -4.580558 5.248616 -4.650029 5.128576 
C -4.719499 5.008535 -4.73846 4.865662 -4.702703 4.731657 
L -4.262647 3.092721 
L -5.585535 3.855668 
L -5.585535 3.855668 
C -5.645013 3.890144 -5.710708 3.912561 -5.778854 3.921634 
C -5.847001 3.930706 -5.916272 3.926258 -5.982698 3.908543 
C -6.049125 3.890828 -6.111412 3.860192 -6.165991 3.818391 
C -6.220571 3.77659 -6.266379 3.724437 -6.300791 3.664922 
L -6.300791 3.664922 
C -6.335212 3.605364 -6.35755 3.539597 -6.366524 3.471396 
C -6.375498 3.403194 -6.370933 3.333888 -6.35309 3.267452 
C -6.335248 3.201017 -6.304476 3.138749 -6.26254 3.08422 
C -6.220605 3.029692 -6.168323 2.983966 -6.108695 2.949666 
L -4.785807 2.186762 
L -6.424743 1.746706 
L -6.424743 1.746706 
C -6.558747 1.710946 -6.673179 1.623325 -6.74265 1.503284 
C -6.81212 1.383244 -6.831081 1.240371 -6.795324 1.106366 
L -6.795324 1.106366 
C -6.777471 1.039969 -6.746703 0.977739 -6.704784 0.923241 
C -6.662864 0.868744 -6.61061 0.823041 -6.551015 0.788752 
C -6.491421 0.754464 -6.425647 0.732257 -6.357465 0.723406 
C -6.289282 0.714554 -6.220019 0.71923 -6.153645 0.737166 
L -3.505232 1.44698 
L -0.852424 -0.08496 
L -3.503767 -1.615666 
L -6.153645 -0.905851 
L -6.153645 -0.905851 
C -6.22011 -0.887939 -6.289462 -0.883321 -6.357716 -0.892262 
C -6.42597 -0.901202 -6.491793 -0.923527 -6.551403 -0.957953 
C -6.611013 -0.992379 -6.663247 -1.038234 -6.705103 -1.092883 
C -6.746958 -1.147533 -6.777619 -1.209911 -6.795324 -1.276432 
L -6.795324 -1.276432 
C -6.831068 -1.410431 -6.812101 -1.553293 -6.742632 -1.673324 
C -6.673162 -1.793355 -6.558738 -1.88097 -6.424743 -1.91673 
L -4.785807 -2.355447 
L -6.108695 -3.119732 
L -6.108695 -3.119732 
C -6.228699 -3.188976 -6.316415 -3.303132 -6.352417 -3.436921 
C -6.388419 -3.57071 -6.369839 -3.713469 -6.300791 -3.833586 
L -6.300791 -3.833586 
C -6.266491 -3.893214 -6.220765 -3.945496 -6.166237 -3.987431 
C -6.111708 -4.029367 -6.04944 -4.060139 -5.983005 -4.077981 
C -5.91657 -4.095823 -5.847263 -4.100389 -5.779062 -4.091415 
C -5.71086 -4.082441 -5.645094 -4.060102 -5.585535 -4.025682 
L -4.262647 -3.261396 
L -4.702703 -4.900332 
L -4.702703 -4.900332 
C -4.73846 -5.034337 -4.719499 -5.17721 -4.650029 -5.29725 
C -4.580558 -5.417291 -4.466126 -5.504912 -4.332122 -5.540672 
L -4.332122 -5.540672 
C -4.19831 -5.576464 -4.055613 -5.557686 -3.935617 -5.488496 
C -3.81562 -5.419305 -3.727882 -5.305212 -3.691824 -5.171472 
L -2.982009 -2.521594 
L -0.329411 -0.990302 
L -0.329411 -4.051588 
L -2.269453 -5.991589 
L -2.269453 -5.991589 
C -2.318227 -6.040191 -2.356931 -6.097947 -2.383337 -6.161539 
C -2.409744 -6.22513 -2.423338 -6.293314 -2.423338 -6.36217 
C -2.423338 -6.431026 -2.409744 -6.499209 -2.383337 -6.5628 
C -2.356931 -6.626392 -2.318227 -6.684149 -2.269453 -6.732751 
L -2.269453 -6.732751 
C -2.22085 -6.781526 -2.163094 -6.820229 -2.099502 -6.846635 
C -2.035911 -6.873042 -1.967728 -6.886636 -1.898871 -6.886636 
C -1.830015 -6.886636 -1.761832 -6.873042 -1.698241 -6.846635 
C -1.634649 -6.820229 -1.576893 -6.781526 -1.52829 -6.732751 
L -0.329411 -5.533829 
L -0.329411 -7.059722 
L -0.329411 -7.059722 
C -0.329411 -7.198418 -0.274255 -7.331575 -0.176182 -7.429647 
C -0.07811 -7.52772 0.055047 -7.582875 0.193743 -7.582875 
L 0.193743 -7.582875 
C 0.332439 -7.582875 0.465596 -7.52772 0.563669 -7.429647 
C 0.661741 -7.331575 0.716897 -7.198418 0.716897 -7.059722 
L 0.716897 -5.533829 
L 1.915777 -6.732751 
L 1.915777 -6.732751 
C 1.964379 -6.781526 2.022136 -6.820229 2.085727 -6.846635 
C 2.149318 -6.873042 2.217502 -6.886636 2.286358 -6.886636 
C 2.355214 -6.886636 2.423397 -6.873042 2.486989 -6.846635 
C 2.55058 -6.820229 2.608337 -6.781526 2.656939 -6.732751 
L 2.656939 -6.732751 
C 2.705714 -6.684149 2.744417 -6.626392 2.770823 -6.5628 
C 2.79723 -6.499209 2.810824 -6.431026 2.810824 -6.36217 
C 2.810824 -6.293314 2.79723 -6.22513 2.770823 -6.161539 
C 2.744417 -6.097947 2.705714 -6.040191 2.656939 -5.991589 
L 0.716897 -4.051588 
L 0.716897 -0.991139 
L 3.369495 -2.522954 
L 4.07931 -5.171367 
L 4.07931 -5.171367 
C 4.115368 -5.305107 4.203106 -5.4192 4.323103 -5.488391 
C 4.4431 -5.557582 4.585797 -5.576359 4.719608 -5.540567 
L 4.719608 -5.540567 
C 4.853612 -5.504807 4.968045 -5.417186 5.037515 -5.297146 
C 5.106986 -5.177105 5.125946 -5.034232 5.090189 -4.900227 
L 4.650133 -3.262673 
L 5.973022 -4.025577 
L 5.973022 -4.025577 
C 6.03258 -4.059998 6.098346 -4.082336 6.166548 -4.09131 
C 6.234749 -4.100284 6.304056 -4.095719 6.370491 -4.077876 
C 6.436926 -4.060034 6.499194 -4.029262 6.553723 -3.987327 
C 6.608252 -3.945391 6.653978 -3.893109 6.688277 -3.833481 
L 6.688277 -3.833481 
C 6.757325 -3.713365 6.775905 -3.570605 6.739903 -3.436816 
C 6.703901 -3.303027 6.616186 -3.188871 6.496181 -3.119628 
L 5.173293 -2.355342 
L 6.812229 -1.916625 
L 6.812229 -1.916625 
C 6.946224 -1.880865 7.060649 -1.79325 7.130118 -1.67322 
C 7.199588 -1.553189 7.218554 -1.410326 7.18281 -1.276327 
L 7.18281 -1.276327 
C 7.165106 -1.209806 7.134445 -1.147429 7.092589 -1.092779 
C 7.050733 -1.038129 6.998499 -0.992274 6.938889 -0.957848 
C 6.879279 -0.923422 6.813456 -0.901098 6.745202 -0.892157 
C 6.676949 -0.883217 6.607597 -0.887835 6.541131 -0.905746 
L 3.891253 -1.615561 
L 1.239492 -0.084604 
L 3.892718 1.447085 
L 6.541131 0.73727 
L 6.541131 0.73727 
C 6.674948 0.701466 6.817656 0.720237 6.937662 0.789429 
C 7.057669 0.858621 7.145413 0.972721 7.181471 1.10647 
L 7.181471 1.10647 
C 7.217274 1.240293 7.198497 1.383006 7.129297 1.503014 
C 7.060096 1.623021 6.945986 1.710762 6.812229 1.74681 
L 5.173293 2.186866 
L 6.496181 2.949771 
L 6.496181 2.949771 
C 6.555697 2.984183 6.607849 3.029991 6.649651 3.08457 
C 6.691452 3.13915 6.722088 3.201437 6.739803 3.267863 
C 6.757517 3.33429 6.761966 3.403561 6.752893 3.471707 
C 6.743821 3.539854 6.721404 3.605549 6.686927 3.665026 
L 6.686927 3.665026 
C 6.617458 3.784813 6.503196 3.87225 6.369416 3.907994 
C 6.235636 3.943739 6.092989 3.924946 5.973032 3.855772 
L 4.650144 3.091487 
L 5.08886 4.731783 
L 5.08886 4.731783 
C 5.124664 4.865606 5.105887 5.008319 5.036686 5.128326 
C 4.967486 5.248334 4.853376 5.336074 4.719619 5.372123 
L 4.719619 5.372123 
C 4.585619 5.407867 4.442757 5.3889 4.322726 5.319431 
C 4.202695 5.249961 4.115081 5.135537 4.07932 5.001542 
L 3.368166 2.351664 
L 0.717033 0.821063 
L 0.717033 3.884232 
L 2.657075 5.822893 
L 2.657075 5.822893 
C 2.70585 5.871495 2.744553 5.929252 2.770959 5.992843 
C 2.797366 6.056435 2.81096 6.124618 2.81096 6.193474 
C 2.81096 6.26233 2.797366 6.330514 2.770959 6.394105 
C 2.744553 6.457696 2.70585 6.515453 2.657075 6.564055 
L 2.657075 6.564055 
C 2.608473 6.61283 2.550716 6.651533 2.487125 6.67794 
C 2.423533 6.704346 2.35535 6.71794 2.286494 6.71794 
C 2.217638 6.71794 2.149454 6.704346 2.085863 6.67794 
C 2.022272 6.651533 1.964515 6.61283 1.915913 6.564055 
L 0.717033 5.365133 
L 0.717033 6.891026 
L 0.717033 6.891026 
C 0.717033 7.029722 0.661877 7.162879 0.563805 7.260952 
C 0.465732 7.359024 0.332575 7.41418 0.193879 7.41418 
L 0.193618 7.414054 
z
"/>
    </defs>
    <g clip-path="url(#pf313232deb)">
     <use xlink:href="#m86cd0fd96e" x="97.916134" y="45.689154" style="fill: #9e2096; fill-opacity: 0.7"/>
    </g>
   </g>
   <g id="patch_163">
    <path d="M 125.254844 13.699063 
C 110.694216 13.699063 96.275171 16.567189 82.822905 22.1393 
C 69.370638 27.711411 57.146763 35.879144 46.850844 46.175063 
C 36.554925 56.470982 28.387192 68.694857 22.815081 82.147124 
C 17.24297 95.59939 14.374844 110.018434 14.374844 124.579063 
C 14.374844 139.139691 17.24297 153.558735 22.815081 167.011001 
C 28.387192 180.463268 36.554925 192.687143 46.850844 202.983062 
C 57.146763 213.278981 69.370638 221.446714 82.822905 227.018825 
C 96.275171 232.590936 110.694216 235.459063 125.254844 235.459063 
C 139.815472 235.459063 154.234516 232.590936 167.686783 227.018825 
C 181.139049 221.446714 193.362925 213.278981 203.658844 202.983062 
C 213.954763 192.687143 222.122495 180.463268 227.694606 167.011001 
C 233.266717 153.558735 236.134844 139.139691 236.134844 124.579063 
C 236.134844 110.018434 233.266717 95.59939 227.694606 82.147124 
C 222.122495 68.694857 213.954763 56.470982 203.658844 46.175063 
C 193.362925 35.879144 181.139049 27.711411 167.686783 22.1393 
C 154.234516 16.567189 139.815472 13.699063 125.254844 13.699063 
" style="fill: none; stroke: #000000; stroke-width: 0.8; stroke-linejoin: miter; stroke-linecap: square"/>
   </g>
  </g>
 </g>
 <defs>
  <clipPath id="pf313232deb">
   <path d="M 236.134844 124.579063 
C 236.134844 110.018434 233.266717 95.59939 227.694606 82.147124 
C 222.122495 68.694857 213.954763 56.470982 203.658844 46.175063 
C 193.362925 35.879144 181.139049 27.711411 167.686783 22.1393 
C 154.234516 16.567189 139.815472 13.699063 125.254844 13.699063 
C 110.694216 13.699063 96.275171 16.567189 82.822905 22.1393 
C 69.370638 27.711411 57.146763 35.879144 46.850844 46.175063 
C 36.554925 56.470982 28.387192 68.694857 22.815081 82.147124 
C 17.24297 95.59939 14.374844 110.018434 14.374844 124.579062 
C 14.374844 139.139691 17.24297 153.558735 22.815081 167.011001 
C 28.387192 180.463268 36.554925 192.687143 46.850844 202.983062 
C 57.146763 213.278981 69.370638 221.446714 82.822905 227.018825 
C 96.275171 232.590936 110.694216 235.459063 125.254844 235.459063 
C 139.815472 235.459063 154.234516 232.590936 167.686783 227.018825 
C 181.139049 221.446714 193.362925 213.278981 203.658844 202.983062 
C 213.954763 192.687143 222.122495 180.463268 227.694606 167.011001 
C 233.266717 153.558735 236.134844 139.139691 236.134844 124.579063 
M 125.254844 124.579063 
C 125.254844 124.579063 125.254844 124.579063 125.254844 124.579063 
C 125.254844 124.579063 125.254844 124.579063 125.254844 124.579063 
C 125.254844 124.579063 125.254844 124.579063 125.254844 124.579063 
C 125.254844 124.579063 125.254844 124.579063 125.254844 124.579063 
C 125.254844 124.579063 125.254844 124.579063 125.254844 124.579063 
C 125.254844 124.579063 125.254844 124.579063 125.254844 124.579063 
C 125.254844 124.579063 125.254844 124.579063 125.254844 124.579063 
C 125.254844 124.579063 125.254844 124.579063 125.254844 124.579063 
C 125.254844 124.579063 125.254844 124.579063 125.254844 124.579063 
C 125.254844 124.579063 125.254844 124.579063 125.254844 124.579063 
C 125.254844 124.579063 125.254844 124.579063 125.254844 124.579063 
C 125.254844 124.579063 125.254844 124.579063 125.254844 124.579063 
C 125.254844 124.579063 125.254844 124.579063 125.254844 124.579063 
C 125.254844 124.579063 125.254844 124.579063 125.254844 124.579063 
C 125.254844 124.579063 125.254844 124.579063 125.254844 124.579063 
C 125.254844 124.579063 125.254844 124.579063 125.254844 124.579063 
z
"/>
  </clipPath>
 </defs>
</svg>
