<?xml version="1.0" encoding="utf-8" standalone="no"?>
<!DOCTYPE svg PUBLIC "-//W3C//DTD SVG 1.1//EN"
  "http://www.w3.org/Graphics/SVG/1.1/DTD/svg11.dtd">
<svg xmlns:xlink="http://www.w3.org/1999/xlink" width="248.410469pt" height="249.158125pt" viewBox="0 0 248.410469 249.158125" xmlns="http://www.w3.org/2000/svg" version="1.1">
 <title>Ski Rose for Banff Sunshine Village</title>
 <metadata>
  <rdf:RDF xmlns:dc="http://purl.org/dc/elements/1.1/" xmlns:cc="http://creativecommons.org/ns#" xmlns:rdf="http://www.w3.org/1999/02/22-rdf-syntax-ns#">
   <cc:Work>
    <dc:type rdf:resource="http://purl.org/dc/dcmitype/StillImage"/>
    <dc:title>Ski Rose for Banff Sunshine Village</dc:title>
    <dc:date>2025-12-13T10:36:00.087587</dc:date>
    <dc:description>A 32-bin stacked histogram of downhill ski run orientations colored by difficulty.</dc:description>
    <dc:format>image/svg+xml</dc:format>
    <dc:source>https://openskimap.org/?obj=ae6ee1b64d24f32a1a020aa4448d29b83dd1e43f</dc:source>
    <dc:creator>
     <cc:Agent>
      <dc:title>https://github.com/dhimmel/openskistats</dc:title>
     </cc:Agent>
    </dc:creator>
    <dc:rights>
     <cc:Agent>
      <dc:title>https://creativecommons.org/licenses/by/4.0/</dc:title>
     </cc:Agent>
    </dc:rights>
   </cc:Work>
  </rdf:RDF>
 </metadata>
 <defs>
  <style type="text/css">*{stroke-linejoin: round; stroke-linecap: butt}</style>
 </defs>
 <g id="figure_1">
  <g id="patch_1">
   <path d="M 0 249.158125 
L 248.410469 249.158125 
L 248.410469 0 
L 0 0 
z
" style="fill: #ffffff"/>
  </g>
  <g id="axes_1">
   <g id="patch_2">
    <path d="M 236.134844 124.579063 
C 236.134844 110.018434 233.266717 95.59939 227.694606 82.147124 
C 222.122495 68.694857 213.954763 56.470982 203.658844 46.175063 
C 193.362925 35.879144 181.139049 27.711411 167.686783 22.1393 
C 154.234516 16.567189 139.815472 13.699062 125.254844 13.699062 
C 110.694216 13.699062 96.275171 16.567189 82.822905 22.1393 
C 69.370638 27.711411 57.146763 35.879144 46.850844 46.175063 
C 36.554925 56.470982 28.387192 68.694857 22.815081 82.147124 
C 17.24297 95.59939 14.374844 110.018434 14.374844 124.579062 
C 14.374844 139.139691 17.24297 153.558735 22.815081 167.011001 
C 28.387192 180.463268 36.554925 192.687143 46.850844 202.983062 
C 57.146763 213.278981 69.370638 221.446714 82.822905 227.018825 
C 96.275171 232.590936 110.694216 235.459063 125.254844 235.459063 
C 139.815472 235.459063 154.234516 232.590936 167.686783 227.018825 
C 181.139049 221.446714 193.362925 213.278981 203.658844 202.983062 
C 213.954763 192.687143 222.122495 180.463268 227.694606 167.011001 
C 233.266717 153.558735 236.134844 139.139691 236.134844 124.579063 
M 125.254844 124.579063 
C 125.254844 124.579063 125.254844 124.579063 125.254844 124.579063 
C 125.254844 124.579063 125.254844 124.579063 125.254844 124.579063 
C 125.254844 124.579063 125.254844 124.579063 125.254844 124.579063 
C 125.254844 124.579063 125.254844 124.579063 125.254844 124.579063 
C 125.254844 124.579063 125.254844 124.579063 125.254844 124.579063 
C 125.254844 124.579063 125.254844 124.579063 125.254844 124.579063 
C 125.254844 124.579063 125.254844 124.579063 125.254844 124.579063 
C 125.254844 124.579063 125.254844 124.579063 125.254844 124.579063 
C 125.254844 124.579063 125.254844 124.579063 125.254844 124.579063 
C 125.254844 124.579063 125.254844 124.579063 125.254844 124.579063 
C 125.254844 124.579063 125.254844 124.579063 125.254844 124.579063 
C 125.254844 124.579063 125.254844 124.579063 125.254844 124.579063 
C 125.254844 124.579063 125.254844 124.579063 125.254844 124.579063 
C 125.254844 124.579063 125.254844 124.579063 125.254844 124.579063 
C 125.254844 124.579063 125.254844 124.579063 125.254844 124.579063 
C 125.254844 124.579063 125.254844 124.579063 125.254844 124.579063 
z
" style="fill: #ffffff"/>
   </g>
   <g id="FillBetweenPolyCollection_1">
    <defs>
     <path id="m1076879846" d="M 235.098285 -139.040226 
L 234.765407 -138.996402 
L 234.144194 -136.985437 
L 233.45762 -134.997805 
L 232.713802 -133.036266 
L 231.919861 -131.102974 
L 230.892833 -129.191317 
L 230.01178 -127.322219 
L 229.093134 -125.485246 
L 228.139199 -123.681204 
L 227.151936 -121.910793 
L 226.133089 -120.174623 
L 225.084254 -118.473234 
L 224.006927 -116.807105 
L 222.711887 -115.195017 
L 221.582394 -113.603924 
L 220.428709 -112.049185 
L 219.252151 -110.531071 
L 218.054021 -109.049806 
L 216.835605 -107.605572 
L 215.59818 -106.198503 
L 214.526865 -104.787932 
L 213.25374 -103.452397 
L 211.965261 -102.154224 
L 210.662672 -100.893376 
L 209.347207 -99.66977 
L 208.19561 -98.427939 
L 206.856023 -97.27569 
L 205.507098 -96.160249 
L 204.319334 -95.018061 
L 202.952953 -93.972963 
L 201.580679 -92.963866 
L 200.365854 -91.919866 
L 198.982595 -90.979391 
L 197.753822 -89.998824 
L 196.518199 -89.048464 
L 195.124671 -88.207133 
L 193.880525 -87.318358 
L 192.632058 -86.458869 
L 191.236817 -85.71271 
L 189.984978 -84.912386 
L 188.731208 -84.140159 
L 187.476247 -83.395614 
L 186.220817 -82.67831 
L 184.965621 -81.987779 
L 183.711341 -81.32353 
L 182.458638 -80.685047 
L 181.208153 -80.07179 
L 179.960503 -79.483197 
L 178.716279 -78.918683 
L 177.47605 -78.377642 
L 176.345043 -77.76352 
L 175.110917 -77.267415 
L 173.882306 -76.792989 
L 172.659672 -76.339559 
L 171.534529 -75.81045 
L 170.321566 -75.397366 
L 169.200222 -74.907848 
L 167.998399 -74.532789 
L 166.882216 -74.081022 
L 165.6928 -73.741585 
L 164.582963 -73.32566 
L 163.407006 -73.019374 
L 162.304521 -72.63733 
L 161.142857 -72.361679 
L 160.048541 -72.011521 
L 158.957091 -71.677131 
L 157.868678 -71.358122 
L 156.73388 -71.138264 
L 155.654783 -70.847352 
L 154.579075 -70.570547 
L 153.506848 -70.307467 
L 152.399959 -70.134385 
L 151.337486 -69.895666 
L 150.278602 -69.669437 
L 149.223323 -69.455333 
L 148.171652 -69.252994 
L 147.123569 -69.062069 
L 146.079042 -68.882215 
L 145.03802 -68.713097 
L 144.000437 -68.55439 
L 142.966211 -68.405782 
L 141.935246 -68.266969 
L 140.907429 -68.137662 
L 139.882637 -68.017584 
L 138.860729 -67.906472 
L 137.841555 -67.804078 
L 136.824951 -67.710169 
L 135.810743 -67.624526 
L 134.798746 -67.546949 
L 133.788766 -67.477254 
L 132.780599 -67.415275 
L 131.774034 -67.360863 
L 130.768853 -67.313888 
L 129.764831 -67.274239 
L 128.76174 -67.241823 
L 127.759344 -67.216568 
L 126.757409 -67.198421 
L 125.755694 -67.187348 
L 124.753992 -67.187169 
L 123.752342 -67.200819 
L 122.750552 -67.22136 
L 121.748387 -67.249001 
L 120.745608 -67.283793 
L 119.741982 -67.325805 
L 118.737279 -67.375127 
L 117.731273 -67.431865 
L 116.723745 -67.496148 
L 115.714484 -67.568122 
L 114.703285 -67.647948 
L 113.689953 -67.735809 
L 112.674301 -67.831903 
L 111.656154 -67.936444 
L 110.635347 -68.049662 
L 109.611727 -68.171805 
L 108.585154 -68.303132 
L 107.555501 -68.443918 
L 106.522655 -68.59445 
L 105.486517 -68.755029 
L 104.447003 -68.925965 
L 103.404046 -69.107581 
L 102.357594 -69.300211 
L 101.30761 -69.504195 
L 100.254075 -69.719883 
L 99.196988 -69.947632 
L 98.136364 -70.187808 
L 97.031695 -70.362898 
L 95.961421 -70.62729 
L 94.887711 -70.905338 
L 93.810656 -71.197424 
L 92.678288 -71.418956 
L 91.592002 -71.738985 
L 90.502714 -72.074322 
L 89.349284 -72.336148 
L 88.251529 -72.702329 
L 87.151306 -73.085087 
L 85.97802 -73.392509 
L 84.870502 -73.808987 
L 83.683817 -74.149374 
L 82.57 -74.601531 
L 81.370957 -74.977352 
L 80.252018 -75.467097 
L 79.041876 -75.880755 
L 77.919167 -76.409928 
L 76.699385 -76.863746 
L 75.473638 -77.338462 
L 74.242387 -77.834758 
L 73.113852 -78.44861 
L 71.876511 -78.98966 
L 70.635181 -79.554087 
L 69.390425 -80.142497 
L 68.142835 -80.755477 
L 66.893027 -81.39359 
L 65.641637 -82.057376 
L 64.389326 -82.747351 
L 63.136776 -83.46401 
L 61.884686 -84.207819 
L 60.633776 -84.979221 
L 59.384786 -85.778633 
L 58.138471 -86.606446 
L 56.747163 -87.382427 
L 55.505824 -88.270021 
L 54.269593 -89.187122 
L 52.882664 -90.059304 
L 51.656646 -91.038432 
L 50.276551 -91.977573 
L 49.064439 -93.019963 
L 47.695288 -94.027541 
L 46.500876 -95.13416 
L 45.146887 -96.211347 
L 43.801016 -97.324993 
L 41.978502 -98.322133 
L 40.82731 -99.570488 
L 39.512914 -100.800721 
L 38.211508 -102.068125 
L 36.924327 -103.372782 
L 35.652613 -104.714726 
L 34.397619 -106.093951 
L 33.160606 -107.510404 
L 31.942842 -108.963989 
L 30.745611 -110.454563 
L 29.570205 -111.981941 
L 28.417934 -113.54589 
L 27.290127 -115.146133 
L 26.188144 -116.782344 
L 25.11338 -118.454148 
L 24.067282 -120.161118 
L 23.051378 -121.902771 
L 22.067301 -123.678558 
L 21.116853 -125.487861 
L 20.202086 -127.329966 
L 19.325438 -129.20404 
L 18.304636 -131.120417 
L 17.517156 -133.058202 
L 16.781461 -135.023861 
L 16.105183 -137.015095 
L 15.495777 -139.029118 
L 15.330794 -139.050838 
L 15.330794 -139.050838 
L 15.153382 -137.12354 
L 14.902082 -135.204825 
L 14.791592 -133.272709 
L 14.605814 -131.346647 
L 14.562198 -129.412008 
L 14.441932 -127.480801 
L 14.464979 -125.545911 
L 14.409946 -123.611734 
L 14.554414 -121.68027 
L 14.508966 -119.743793 
L 14.717305 -117.818297 
L 14.737854 -115.881187 
L 14.893075 -113.952433 
L 15.144428 -112.033565 
L 15.428249 -110.120117 
L 15.626343 -108.194973 
L 15.974034 -106.291727 
L 16.234575 -104.37335 
L 16.686744 -102.490633 
L 17.007957 -100.581305 
L 17.481299 -98.704924 
L 17.986255 -96.837519 
L 18.436449 -94.9557 
L 19.003281 -93.105916 
L 19.601364 -91.266648 
L 20.110462 -89.398245 
L 20.800796 -87.589944 
L 21.401205 -85.749778 
L 22.12242 -83.95412 
L 22.874246 -82.171631 
L 23.682728 -80.41425 
L 24.381266 -78.608325 
L 25.250448 -76.879412 
L 26.041776 -75.113252 
L 26.946923 -73.403198 
L 27.909675 -71.724948 
L 28.776697 -69.994353 
L 29.748217 -68.32136 
L 30.780172 -66.684909 
L 31.76073 -65.016743 
L 32.82504 -63.40111 
L 33.880654 -61.779322 
L 34.99563 -60.197791 
L 36.131415 -58.631194 
L 37.294052 -57.084373 
L 38.483837 -55.558287 
L 39.938584 -54.249765 
L 41.682423 -53.201472 
L 43.492939 -52.24224 
L 45.264948 -51.281827 
L 47.045171 -50.360854 
L 48.830556 -49.477124 
L 50.618757 -48.628829 
L 52.407956 -47.81446 
L 54.196715 -47.032723 
L 55.941931 -46.235066 
L 57.728052 -45.515347 
L 59.510807 -44.825169 
L 61.28949 -44.163592 
L 63.027764 -43.483153 
L 64.798166 -42.876551 
L 66.53026 -42.250233 
L 68.290489 -41.695412 
L 70.014825 -41.120499 
L 71.735397 -40.570359 
L 73.452107 -40.04468 
L 75.189607 -39.585156 
L 76.896048 -39.10518 
L 78.598009 -38.647863 
L 80.295 -38.212006 
L 81.987243 -37.797681 
L 83.67426 -37.403555 
L 85.356378 -37.029869 
L 87.033138 -36.675157 
L 88.704959 -36.339836 
L 90.37141 -36.022308 
L 92.020829 -35.690653 
L 93.678475 -35.410147 
L 95.330898 -35.145816 
L 96.969645 -34.869872 
L 98.613665 -34.639949 
L 100.252834 -34.424726 
L 101.881467 -34.200919 
L 103.513008 -34.017799 
L 105.140268 -33.848075 
L 106.759855 -33.673286 
L 108.380586 -33.533716 
L 109.995136 -33.390643 
L 111.60982 -33.278078 
L 113.22005 -33.165731 
L 114.828614 -33.069221 
L 116.436688 -32.999012 
L 118.042077 -32.932175 
L 119.646703 -32.886772 
L 121.249825 -32.849059 
L 122.852324 -32.830546 
L 124.454089 -32.821669 
L 126.055601 -32.821407 
L 127.657377 -32.830021 
L 129.259902 -32.848138 
L 130.863059 -32.885558 
L 132.467129 -32.938288 
L 134.073156 -32.997384 
L 135.679903 -33.079496 
L 137.289958 -33.163292 
L 138.900274 -33.275359 
L 140.515003 -33.387949 
L 142.129646 -33.530779 
L 143.750567 -33.669677 
L 145.370278 -33.844202 
L 146.997568 -34.014098 
L 148.622909 -34.221457 
L 150.258157 -34.420028 
L 151.897331 -34.635533 
L 153.532461 -34.893918 
L 155.180618 -35.14035 
L 156.833011 -35.40507 
L 158.491087 -35.684693 
L 160.140705 -36.016143 
L 161.807078 -36.334163 
L 163.479422 -36.66855 
L 165.156066 -37.023821 
L 166.838773 -37.396543 
L 168.52563 -37.791293 
L 170.218528 -38.204628 
L 171.915312 -38.641171 
L 173.617998 -39.097477 
L 175.32418 -39.578197 
L 177.036002 -40.079893 
L 178.779471 -40.562227 
L 180.499697 -41.113194 
L 182.224933 -41.687068 
L 183.985457 -42.241779 
L 185.71711 -42.868999 
L 187.487774 -43.475529 
L 189.227088 -44.154929 
L 191.006067 -44.816451 
L 192.789115 -45.506591 
L 194.532675 -46.274719 
L 196.320074 -47.024972 
L 198.109072 -47.806724 
L 199.898498 -48.621128 
L 201.686909 -49.469481 
L 203.472481 -50.353297 
L 205.252857 -51.274389 
L 207.024973 -52.234963 
L 208.784977 -53.237589 
L 210.580493 -54.242025 
L 212.021435 -55.5618 
L 213.212032 -57.087138 
L 214.38289 -58.627778 
L 215.518928 -60.194317 
L 216.598297 -61.800446 
L 217.704724 -63.387822 
L 218.756208 -65.012124 
L 219.760753 -66.665767 
L 220.776258 -68.312649 
L 221.704434 -70.01051 
L 222.676295 -71.683531 
L 223.60081 -73.383393 
L 224.47762 -75.108411 
L 225.306424 -76.856907 
L 226.131653 -78.606852 
L 226.85666 -80.401336 
L 227.677124 -82.154365 
L 228.308355 -83.985205 
L 229.039655 -85.775512 
L 229.715794 -87.5875 
L 230.366135 -89.409316 
L 230.97319 -91.246196 
L 231.539349 -93.096158 
L 232.065758 -94.957774 
L 232.559205 -96.828268 
L 233.005396 -98.710444 
L 233.409465 -100.60176 
L 233.792673 -102.496791 
L 234.117766 -104.402513 
L 234.59186 -106.282321 
L 234.840258 -108.201413 
L 235.048429 -110.124463 
L 235.417034 -112.027666 
L 235.550421 -113.958806 
L 235.645269 -115.891148 
L 235.909199 -117.811152 
L 235.931626 -119.74681 
L 236.085474 -121.67686 
L 236.077825 -123.611925 
L 235.993805 -125.545467 
L 236.085779 -127.481273 
L 235.933629 -129.411403 
L 235.915665 -131.347368 
L 235.739051 -133.274358 
L 235.488439 -135.19335 
L 235.412329 -137.129923 
L 235.098285 -139.040226 
z
" style="stroke: #ffee9c"/>
    </defs>
    <g clip-path="url(#pfe97282a47)">
     <use xlink:href="#m1076879846" x="0" y="249.158125" style="fill: #ffee9c; stroke: #ffee9c"/>
    </g>
   </g>
   <g id="matplotlib.axis_1">
    <g id="xtick_1">
     <g id="line2d_1">
      <path d="M 125.254844 124.579062 
L 125.254844 13.699062 
" clip-path="url(#pfe97282a47)" style="fill: none; stroke: #b0b0b0; stroke-width: 0.8; stroke-linecap: square"/>
     </g>
     <g id="text_1">
      <!-- N -->
      <g transform="translate(121.070469 7.958438) scale(0.1 -0.1)">
       <defs>
        <path id="DejaVuSans-Bold-4e" d="M 588 4666 
L 1931 4666 
L 3628 1466 
L 3628 4666 
L 4769 4666 
L 4769 0 
L 3425 0 
L 1728 3200 
L 1728 0 
L 588 0 
L 588 4666 
z
" transform="scale(0.015625)"/>
       </defs>
       <use xlink:href="#DejaVuSans-Bold-4e"/>
      </g>
     </g>
    </g>
    <g id="xtick_2">
     <g id="line2d_2">
      <path d="M 125.254844 124.579062 
L 203.658844 46.175063 
" clip-path="url(#pfe97282a47)" style="fill: none; stroke: #b0b0b0; stroke-width: 0.8; stroke-linecap: square"/>
     </g>
    </g>
    <g id="xtick_3">
     <g id="line2d_3">
      <path d="M 125.254844 124.579062 
L 236.134844 124.579062 
" clip-path="url(#pfe97282a47)" style="fill: none; stroke: #b0b0b0; stroke-width: 0.8; stroke-linecap: square"/>
     </g>
     <g id="text_2">
      <!-- E -->
      <g transform="translate(241.219219 127.338437) scale(0.1 -0.1)">
       <defs>
        <path id="DejaVuSans-Bold-45" d="M 588 4666 
L 3834 4666 
L 3834 3756 
L 1791 3756 
L 1791 2888 
L 3713 2888 
L 3713 1978 
L 1791 1978 
L 1791 909 
L 3903 909 
L 3903 0 
L 588 0 
L 588 4666 
z
" transform="scale(0.015625)"/>
       </defs>
       <use xlink:href="#DejaVuSans-Bold-45"/>
      </g>
     </g>
    </g>
    <g id="xtick_4">
     <g id="line2d_4">
      <path d="M 125.254844 124.579062 
L 203.658844 202.983062 
" clip-path="url(#pfe97282a47)" style="fill: none; stroke: #b0b0b0; stroke-width: 0.8; stroke-linecap: square"/>
     </g>
    </g>
    <g id="xtick_5">
     <g id="line2d_5">
      <path d="M 125.254844 124.579062 
L 125.254844 235.459062 
" clip-path="url(#pfe97282a47)" style="fill: none; stroke: #b0b0b0; stroke-width: 0.8; stroke-linecap: square"/>
     </g>
     <g id="text_3">
      <!-- S -->
      <g transform="translate(121.654062 246.718437) scale(0.1 -0.1)">
       <defs>
        <path id="DejaVuSans-Bold-53" d="M 3834 4519 
L 3834 3531 
Q 3450 3703 3084 3790 
Q 2719 3878 2394 3878 
Q 1963 3878 1756 3759 
Q 1550 3641 1550 3391 
Q 1550 3203 1689 3098 
Q 1828 2994 2194 2919 
L 2706 2816 
Q 3484 2659 3812 2340 
Q 4141 2022 4141 1434 
Q 4141 663 3683 286 
Q 3225 -91 2284 -91 
Q 1841 -91 1394 -6 
Q 947 78 500 244 
L 500 1259 
Q 947 1022 1364 901 
Q 1781 781 2169 781 
Q 2563 781 2772 912 
Q 2981 1044 2981 1288 
Q 2981 1506 2839 1625 
Q 2697 1744 2272 1838 
L 1806 1941 
Q 1106 2091 782 2419 
Q 459 2747 459 3303 
Q 459 4000 909 4375 
Q 1359 4750 2203 4750 
Q 2588 4750 2994 4692 
Q 3400 4634 3834 4519 
z
" transform="scale(0.015625)"/>
       </defs>
       <use xlink:href="#DejaVuSans-Bold-53"/>
      </g>
     </g>
    </g>
    <g id="xtick_6">
     <g id="line2d_6">
      <path d="M 125.254844 124.579062 
L 46.850844 202.983062 
" clip-path="url(#pfe97282a47)" style="fill: none; stroke: #b0b0b0; stroke-width: 0.8; stroke-linecap: square"/>
     </g>
    </g>
    <g id="xtick_7">
     <g id="line2d_7">
      <path d="M 125.254844 124.579062 
L 14.374844 124.579063 
" clip-path="url(#pfe97282a47)" style="fill: none; stroke: #b0b0b0; stroke-width: 0.8; stroke-linecap: square"/>
     </g>
     <g id="text_4">
      <!-- W -->
      <g transform="translate(0.36 127.338438) scale(0.1 -0.1)">
       <defs>
        <path id="DejaVuSans-Bold-57" d="M 191 4666 
L 1344 4666 
L 2150 1275 
L 2950 4666 
L 4109 4666 
L 4909 1275 
L 5716 4666 
L 6859 4666 
L 5759 0 
L 4372 0 
L 3525 3547 
L 2688 0 
L 1300 0 
L 191 4666 
z
" transform="scale(0.015625)"/>
       </defs>
       <use xlink:href="#DejaVuSans-Bold-57"/>
      </g>
     </g>
    </g>
    <g id="xtick_8">
     <g id="line2d_8">
      <path d="M 125.254844 124.579062 
L 46.850844 46.175063 
" clip-path="url(#pfe97282a47)" style="fill: none; stroke: #b0b0b0; stroke-width: 0.8; stroke-linecap: square"/>
     </g>
    </g>
   </g>
   <g id="matplotlib.axis_2"/>
   <g id="patch_3">
    <path d="M 125.254844 124.579062 
C 125.254844 124.579062 125.254844 124.579062 125.254844 124.579062 
C 125.254844 124.579062 125.254844 124.579062 125.254844 124.579062 
L 125.632538 120.744271 
C 125.507019 120.731909 125.38097 120.725716 125.254844 120.725716 
C 125.128718 120.725716 125.002668 120.731909 124.87715 120.744271 
z
" clip-path="url(#pfe97282a47)" style="fill: #d9d9d9"/>
   </g>
   <g id="patch_4">
    <path d="M 125.254844 124.579062 
C 125.254844 124.579062 125.254844 124.579062 125.254844 124.579062 
C 125.254844 124.579062 125.254844 124.579062 125.254844 124.579062 
L 129.658648 110.061665 
C 129.183472 109.917522 128.701505 109.796796 128.214489 109.699922 
C 127.727472 109.603049 127.235993 109.530145 126.741826 109.481473 
z
" clip-path="url(#pfe97282a47)" style="fill: #d9d9d9"/>
   </g>
   <g id="patch_5">
    <path d="M 125.254844 124.579062 
C 125.254844 124.579062 125.254844 124.579062 125.254844 124.579062 
C 125.254844 124.579062 125.254844 124.579062 125.254844 124.579062 
L 128.126911 119.205802 
C 127.951036 119.111795 127.770652 119.02648 127.58641 118.950164 
C 127.402168 118.873849 127.214289 118.806625 127.023454 118.748735 
z
" clip-path="url(#pfe97282a47)" style="fill: #d9d9d9"/>
   </g>
   <g id="patch_6">
    <path d="M 125.254844 124.579062 
C 125.254844 124.579062 125.254844 124.579062 125.254844 124.579062 
C 125.254844 124.579062 125.254844 124.579062 125.254844 124.579062 
L 131.487215 116.984896 
C 131.238646 116.780902 130.980212 116.589234 130.712846 116.410585 
C 130.445479 116.231937 130.169503 116.066523 129.885913 115.914941 
z
" clip-path="url(#pfe97282a47)" style="fill: #d9d9d9"/>
   </g>
   <g id="patch_7">
    <path d="M 125.254844 124.579062 
C 125.254844 124.579062 125.254844 124.579062 125.254844 124.579062 
C 125.254844 124.579062 125.254844 124.579062 125.254844 124.579062 
L 125.254844 124.579062 
C 125.254844 124.579062 125.254844 124.579062 125.254844 124.579062 
C 125.254844 124.579062 125.254844 124.579062 125.254844 124.579062 
z
" clip-path="url(#pfe97282a47)" style="fill: #d9d9d9"/>
   </g>
   <g id="patch_8">
    <path d="M 125.254844 124.579062 
C 125.254844 124.579062 125.254844 124.579062 125.254844 124.579062 
C 125.254844 124.579062 125.254844 124.579062 125.254844 124.579062 
L 125.254844 124.579062 
C 125.254844 124.579062 125.254844 124.579062 125.254844 124.579062 
C 125.254844 124.579062 125.254844 124.579062 125.254844 124.579062 
z
" clip-path="url(#pfe97282a47)" style="fill: #d9d9d9"/>
   </g>
   <g id="patch_9">
    <path d="M 125.254844 124.579062 
C 125.254844 124.579062 125.254844 124.579062 125.254844 124.579062 
C 125.254844 124.579062 125.254844 124.579062 125.254844 124.579062 
L 125.254844 124.579062 
C 125.254844 124.579062 125.254844 124.579062 125.254844 124.579062 
C 125.254844 124.579062 125.254844 124.579062 125.254844 124.579062 
z
" clip-path="url(#pfe97282a47)" style="fill: #d9d9d9"/>
   </g>
   <g id="patch_10">
    <path d="M 125.254844 124.579062 
C 125.254844 124.579062 125.254844 124.579062 125.254844 124.579062 
C 125.254844 124.579062 125.254844 124.579062 125.254844 124.579062 
L 125.254844 124.579062 
C 125.254844 124.579062 125.254844 124.579062 125.254844 124.579062 
C 125.254844 124.579062 125.254844 124.579062 125.254844 124.579062 
z
" clip-path="url(#pfe97282a47)" style="fill: #d9d9d9"/>
   </g>
   <g id="patch_11">
    <path d="M 125.254844 124.579062 
C 125.254844 124.579062 125.254844 124.579062 125.254844 124.579062 
C 125.254844 124.579062 125.254844 124.579062 125.254844 124.579062 
L 127.966451 124.846132 
C 127.975192 124.757378 127.979571 124.668247 127.979571 124.579062 
C 127.979571 124.489878 127.975192 124.400747 127.966451 124.311993 
z
" clip-path="url(#pfe97282a47)" style="fill: #d9d9d9"/>
   </g>
   <g id="patch_12">
    <path d="M 125.254844 124.579062 
C 125.254844 124.579062 125.254844 124.579062 125.254844 124.579062 
C 125.254844 124.579062 125.254844 124.579062 125.254844 124.579062 
L 125.254844 124.579062 
C 125.254844 124.579062 125.254844 124.579062 125.254844 124.579062 
C 125.254844 124.579062 125.254844 124.579062 125.254844 124.579062 
z
" clip-path="url(#pfe97282a47)" style="fill: #d9d9d9"/>
   </g>
   <g id="patch_13">
    <path d="M 125.254844 124.579062 
C 125.254844 124.579062 125.254844 124.579062 125.254844 124.579062 
C 125.254844 124.579062 125.254844 124.579062 125.254844 124.579062 
L 125.254844 124.579062 
C 125.254844 124.579062 125.254844 124.579062 125.254844 124.579062 
C 125.254844 124.579062 125.254844 124.579062 125.254844 124.579062 
z
" clip-path="url(#pfe97282a47)" style="fill: #d9d9d9"/>
   </g>
   <g id="patch_14">
    <path d="M 125.254844 124.579062 
C 125.254844 124.579062 125.254844 124.579062 125.254844 124.579062 
C 125.254844 124.579062 125.254844 124.579062 125.254844 124.579062 
L 125.254844 124.579062 
C 125.254844 124.579062 125.254844 124.579062 125.254844 124.579062 
C 125.254844 124.579062 125.254844 124.579062 125.254844 124.579062 
z
" clip-path="url(#pfe97282a47)" style="fill: #d9d9d9"/>
   </g>
   <g id="patch_15">
    <path d="M 125.254844 124.579062 
C 125.254844 124.579062 125.254844 124.579062 125.254844 124.579062 
C 125.254844 124.579062 125.254844 124.579062 125.254844 124.579062 
L 129.828154 130.151657 
C 130.010553 130.001966 130.185493 129.843409 130.352342 129.676561 
C 130.519191 129.509712 130.677747 129.334772 130.827438 129.152373 
z
" clip-path="url(#pfe97282a47)" style="fill: #d9d9d9"/>
   </g>
   <g id="patch_16">
    <path d="M 125.254844 124.579062 
C 125.254844 124.579062 125.254844 124.579062 125.254844 124.579062 
C 125.254844 124.579062 125.254844 124.579062 125.254844 124.579062 
L 127.071299 127.977411 
C 127.182532 127.917955 127.290779 127.853075 127.395648 127.783003 
C 127.500518 127.712931 127.601884 127.637753 127.699381 127.55774 
z
" clip-path="url(#pfe97282a47)" style="fill: #d9d9d9"/>
   </g>
   <g id="patch_17">
    <path d="M 125.254844 124.579062 
C 125.254844 124.579062 125.254844 124.579062 125.254844 124.579062 
C 125.254844 124.579062 125.254844 124.579062 125.254844 124.579062 
L 128.610546 135.64133 
C 128.972631 135.531493 129.329104 135.403945 129.678679 135.259146 
C 130.028254 135.114347 130.370509 134.952473 130.704208 134.774107 
z
" clip-path="url(#pfe97282a47)" style="fill: #d9d9d9"/>
   </g>
   <g id="patch_18">
    <path d="M 125.254844 124.579062 
C 125.254844 124.579062 125.254844 124.579062 125.254844 124.579062 
C 125.254844 124.579062 125.254844 124.579062 125.254844 124.579062 
L 126.323124 135.425491 
C 126.678143 135.390524 127.031233 135.338148 127.381115 135.268552 
C 127.730998 135.198956 128.077254 135.112224 128.41863 135.008669 
z
" clip-path="url(#pfe97282a47)" style="fill: #d9d9d9"/>
   </g>
   <g id="patch_19">
    <path d="M 125.254844 124.579062 
C 125.254844 124.579062 125.254844 124.579062 125.254844 124.579062 
C 125.254844 124.579062 125.254844 124.579062 125.254844 124.579062 
L 124.090713 136.398684 
C 124.477587 136.436787 124.866098 136.455874 125.254844 136.455874 
C 125.64359 136.455874 126.032101 136.436787 126.418975 136.398684 
z
" clip-path="url(#pfe97282a47)" style="fill: #d9d9d9"/>
   </g>
   <g id="patch_20">
    <path d="M 125.254844 124.579062 
C 125.254844 124.579062 125.254844 124.579062 125.254844 124.579062 
C 125.254844 124.579062 125.254844 124.579062 125.254844 124.579062 
L 125.254844 124.579062 
C 125.254844 124.579062 125.254844 124.579062 125.254844 124.579062 
C 125.254844 124.579062 125.254844 124.579062 125.254844 124.579062 
z
" clip-path="url(#pfe97282a47)" style="fill: #d9d9d9"/>
   </g>
   <g id="patch_21">
    <path d="M 125.254844 124.579062 
C 125.254844 124.579062 125.254844 124.579062 125.254844 124.579062 
C 125.254844 124.579062 125.254844 124.579062 125.254844 124.579062 
L 123.03015 128.741172 
C 123.166382 128.813989 123.306107 128.880075 123.44882 128.939188 
C 123.591534 128.998302 123.737064 129.050374 123.884884 129.095214 
z
" clip-path="url(#pfe97282a47)" style="fill: #d9d9d9"/>
   </g>
   <g id="patch_22">
    <path d="M 125.254844 124.579062 
C 125.254844 124.579062 125.254844 124.579062 125.254844 124.579062 
C 125.254844 124.579062 125.254844 124.579062 125.254844 124.579062 
L 125.254844 124.579062 
C 125.254844 124.579062 125.254844 124.579062 125.254844 124.579062 
C 125.254844 124.579062 125.254844 124.579062 125.254844 124.579062 
z
" clip-path="url(#pfe97282a47)" style="fill: #d9d9d9"/>
   </g>
   <g id="patch_23">
    <path d="M 125.254844 124.579062 
C 125.254844 124.579062 125.254844 124.579062 125.254844 124.579062 
C 125.254844 124.579062 125.254844 124.579062 125.254844 124.579062 
L 125.254844 124.579062 
C 125.254844 124.579062 125.254844 124.579062 125.254844 124.579062 
C 125.254844 124.579062 125.254844 124.579062 125.254844 124.579062 
z
" clip-path="url(#pfe97282a47)" style="fill: #d9d9d9"/>
   </g>
   <g id="patch_24">
    <path d="M 125.254844 124.579062 
C 125.254844 124.579062 125.254844 124.579062 125.254844 124.579062 
C 125.254844 124.579062 125.254844 124.579062 125.254844 124.579062 
L 125.254844 124.579062 
C 125.254844 124.579062 125.254844 124.579062 125.254844 124.579062 
C 125.254844 124.579062 125.254844 124.579062 125.254844 124.579062 
z
" clip-path="url(#pfe97282a47)" style="fill: #d9d9d9"/>
   </g>
   <g id="patch_25">
    <path d="M 125.254844 124.579062 
C 125.254844 124.579062 125.254844 124.579062 125.254844 124.579062 
C 125.254844 124.579062 125.254844 124.579062 125.254844 124.579062 
L 125.254844 124.579062 
C 125.254844 124.579062 125.254844 124.579062 125.254844 124.579062 
C 125.254844 124.579062 125.254844 124.579062 125.254844 124.579062 
z
" clip-path="url(#pfe97282a47)" style="fill: #d9d9d9"/>
   </g>
   <g id="patch_26">
    <path d="M 125.254844 124.579062 
C 125.254844 124.579062 125.254844 124.579062 125.254844 124.579062 
C 125.254844 124.579062 125.254844 124.579062 125.254844 124.579062 
L 125.254844 124.579062 
C 125.254844 124.579062 125.254844 124.579062 125.254844 124.579062 
C 125.254844 124.579062 125.254844 124.579062 125.254844 124.579062 
z
" clip-path="url(#pfe97282a47)" style="fill: #d9d9d9"/>
   </g>
   <g id="patch_27">
    <path d="M 125.254844 124.579062 
C 125.254844 124.579062 125.254844 124.579062 125.254844 124.579062 
C 125.254844 124.579062 125.254844 124.579062 125.254844 124.579062 
L 125.254844 124.579062 
C 125.254844 124.579062 125.254844 124.579062 125.254844 124.579062 
C 125.254844 124.579062 125.254844 124.579062 125.254844 124.579062 
z
" clip-path="url(#pfe97282a47)" style="fill: #d9d9d9"/>
   </g>
   <g id="patch_28">
    <path d="M 125.254844 124.579062 
C 125.254844 124.579062 125.254844 124.579062 125.254844 124.579062 
C 125.254844 124.579062 125.254844 124.579062 125.254844 124.579062 
L 125.254844 124.579062 
C 125.254844 124.579062 125.254844 124.579062 125.254844 124.579062 
C 125.254844 124.579062 125.254844 124.579062 125.254844 124.579062 
z
" clip-path="url(#pfe97282a47)" style="fill: #d9d9d9"/>
   </g>
   <g id="patch_29">
    <path d="M 125.254844 124.579062 
C 125.254844 124.579062 125.254844 124.579062 125.254844 124.579062 
C 125.254844 124.579062 125.254844 124.579062 125.254844 124.579062 
L 125.254844 124.579062 
C 125.254844 124.579062 125.254844 124.579062 125.254844 124.579062 
C 125.254844 124.579062 125.254844 124.579062 125.254844 124.579062 
z
" clip-path="url(#pfe97282a47)" style="fill: #d9d9d9"/>
   </g>
   <g id="patch_30">
    <path d="M 125.254844 124.579062 
C 125.254844 124.579062 125.254844 124.579062 125.254844 124.579062 
C 125.254844 124.579062 125.254844 124.579062 125.254844 124.579062 
L 125.254844 124.579062 
C 125.254844 124.579062 125.254844 124.579062 125.254844 124.579062 
C 125.254844 124.579062 125.254844 124.579062 125.254844 124.579062 
z
" clip-path="url(#pfe97282a47)" style="fill: #d9d9d9"/>
   </g>
   <g id="patch_31">
    <path d="M 125.254844 124.579062 
C 125.254844 124.579062 125.254844 124.579062 125.254844 124.579062 
C 125.254844 124.579062 125.254844 124.579062 125.254844 124.579062 
L 114.740492 111.767288 
C 114.321144 112.111439 113.918945 112.47597 113.535348 112.859567 
C 113.151752 113.243164 112.78722 113.645363 112.443069 114.064711 
z
" clip-path="url(#pfe97282a47)" style="fill: #d9d9d9"/>
   </g>
   <g id="patch_32">
    <path d="M 125.254844 124.579062 
C 125.254844 124.579062 125.254844 124.579062 125.254844 124.579062 
C 125.254844 124.579062 125.254844 124.579062 125.254844 124.579062 
L 125.254844 124.579062 
C 125.254844 124.579062 125.254844 124.579062 125.254844 124.579062 
C 125.254844 124.579062 125.254844 124.579062 125.254844 124.579062 
z
" clip-path="url(#pfe97282a47)" style="fill: #d9d9d9"/>
   </g>
   <g id="patch_33">
    <path d="M 125.254844 124.579062 
C 125.254844 124.579062 125.254844 124.579062 125.254844 124.579062 
C 125.254844 124.579062 125.254844 124.579062 125.254844 124.579062 
L 122.091057 114.149456 
C 121.749681 114.253012 121.413594 114.373266 121.084012 114.509783 
C 120.754429 114.646301 120.431748 114.798918 120.117133 114.967083 
z
" clip-path="url(#pfe97282a47)" style="fill: #d9d9d9"/>
   </g>
   <g id="patch_34">
    <path d="M 125.254844 124.579062 
C 125.254844 124.579062 125.254844 124.579062 125.254844 124.579062 
C 125.254844 124.579062 125.254844 124.579062 125.254844 124.579062 
L 124.002174 111.860498 
C 123.585877 111.9015 123.171843 111.962916 122.761569 112.044525 
C 122.351295 112.126133 121.945275 112.227836 121.544975 112.349265 
z
" clip-path="url(#pfe97282a47)" style="fill: #d9d9d9"/>
   </g>
   <g id="patch_35">
    <path d="M 124.87715 120.744271 
C 125.002668 120.731909 125.128718 120.725716 125.254844 120.725716 
C 125.38097 120.725716 125.507019 120.731909 125.632538 120.744271 
L 129.888335 77.534439 
C 128.348494 77.382778 126.802135 77.30681 125.254844 77.30681 
C 123.707552 77.30681 122.161194 77.382778 120.621353 77.534439 
z
" clip-path="url(#pfe97282a47)" style="fill: #badbb8"/>
   </g>
   <g id="patch_36">
    <path d="M 126.741826 109.481473 
C 127.235993 109.530145 127.727472 109.603049 128.214489 109.699922 
C 128.701505 109.796796 129.183472 109.917522 129.658648 110.061665 
L 138.654329 80.40688 
C 137.208507 79.968295 135.742024 79.60096 134.260176 79.306202 
C 132.778327 79.011444 131.2829 78.789618 129.779296 78.641526 
z
" clip-path="url(#pfe97282a47)" style="fill: #badbb8"/>
   </g>
   <g id="patch_37">
    <path d="M 127.023454 118.748735 
C 127.214289 118.806625 127.402168 118.873849 127.58641 118.950164 
C 127.770652 119.02648 127.951036 119.111795 128.126911 119.205802 
L 146.515903 84.802418 
C 145.213954 84.106512 143.878623 83.474947 142.514733 82.910005 
C 141.150842 82.345063 139.760037 81.847425 138.34734 81.418888 
z
" clip-path="url(#pfe97282a47)" style="fill: #badbb8"/>
   </g>
   <g id="patch_38">
    <path d="M 129.885913 115.914941 
C 130.169503 116.066523 130.445479 116.231937 130.712846 116.410585 
C 130.980212 116.589234 131.238646 116.780902 131.487215 116.984896 
L 145.560694 99.836313 
C 144.750826 99.171672 143.908815 98.547194 143.037702 97.965135 
C 142.166588 97.383075 141.267422 96.844136 140.343451 96.350263 
z
" clip-path="url(#pfe97282a47)" style="fill: #badbb8"/>
   </g>
   <g id="patch_39">
    <path d="M 125.254844 124.579062 
C 125.254844 124.579062 125.254844 124.579062 125.254844 124.579062 
C 125.254844 124.579062 125.254844 124.579062 125.254844 124.579062 
L 147.041988 106.698815 
C 146.456741 105.98569 145.836834 105.301728 145.184506 104.6494 
C 144.532179 103.997072 143.848217 103.377166 143.135091 102.791918 
z
" clip-path="url(#pfe97282a47)" style="fill: #badbb8"/>
   </g>
   <g id="patch_40">
    <path d="M 125.254844 124.579062 
C 125.254844 124.579062 125.254844 124.579062 125.254844 124.579062 
C 125.254844 124.579062 125.254844 124.579062 125.254844 124.579062 
L 146.747884 113.090793 
C 146.371856 112.387294 145.961515 111.70268 145.518342 111.039426 
C 145.07517 110.376171 144.5997 109.735075 144.093651 109.118453 
z
" clip-path="url(#pfe97282a47)" style="fill: #badbb8"/>
   </g>
   <g id="patch_41">
    <path d="M 125.254844 124.579062 
C 125.254844 124.579062 125.254844 124.579062 125.254844 124.579062 
C 125.254844 124.579062 125.254844 124.579062 125.254844 124.579062 
L 146.756027 118.05675 
C 146.542542 117.352984 146.294633 116.660124 146.013195 115.980672 
C 145.731757 115.30122 145.417129 114.635996 145.070448 113.987401 
z
" clip-path="url(#pfe97282a47)" style="fill: #badbb8"/>
   </g>
   <g id="patch_42">
    <path d="M 125.254844 124.579062 
C 125.254844 124.579062 125.254844 124.579062 125.254844 124.579062 
C 125.254844 124.579062 125.254844 124.579062 125.254844 124.579062 
L 145.36466 122.598418 
C 145.29983 121.940194 145.202723 121.28555 145.073688 120.636849 
C 144.944654 119.988149 144.783848 119.346175 144.591851 118.713246 
z
" clip-path="url(#pfe97282a47)" style="fill: #badbb8"/>
   </g>
   <g id="patch_43">
    <path d="M 127.966451 124.311993 
C 127.975192 124.400747 127.979571 124.489878 127.979571 124.579062 
C 127.979571 124.668247 127.975192 124.757378 127.966451 124.846132 
L 139.344767 125.966799 
C 139.39019 125.505615 139.412942 125.042478 139.412942 124.579062 
C 139.412942 124.115647 139.39019 123.65251 139.344767 123.191326 
z
" clip-path="url(#pfe97282a47)" style="fill: #badbb8"/>
   </g>
   <g id="patch_44">
    <path d="M 125.254844 124.579062 
C 125.254844 124.579062 125.254844 124.579062 125.254844 124.579062 
C 125.254844 124.579062 125.254844 124.579062 125.254844 124.579062 
L 139.051916 128.764359 
C 139.188907 128.31276 139.303643 127.854707 139.39571 127.391856 
C 139.487777 126.929004 139.557063 126.461911 139.60332 125.992264 
z
" clip-path="url(#pfe97282a47)" style="fill: #badbb8"/>
   </g>
   <g id="patch_45">
    <path d="M 125.254844 124.579062 
C 125.254844 124.579062 125.254844 124.579062 125.254844 124.579062 
C 125.254844 124.579062 125.254844 124.579062 125.254844 124.579062 
L 139.058999 131.957537 
C 139.300507 131.505707 139.519687 131.042291 139.715745 130.568964 
C 139.911804 130.095637 140.084505 129.61297 140.233225 129.122705 
z
" clip-path="url(#pfe97282a47)" style="fill: #badbb8"/>
   </g>
   <g id="patch_46">
    <path d="M 125.254844 124.579062 
C 125.254844 124.579062 125.254844 124.579062 125.254844 124.579062 
C 125.254844 124.579062 125.254844 124.579062 125.254844 124.579062 
L 134.190875 131.912674 
C 134.430915 131.620184 134.65645 131.316085 134.866665 131.001476 
C 135.07688 130.686867 135.271522 130.362126 135.449888 130.028427 
z
" clip-path="url(#pfe97282a47)" style="fill: #badbb8"/>
   </g>
   <g id="patch_47">
    <path d="M 130.827438 129.152373 
C 130.677747 129.334772 130.519191 129.509712 130.352342 129.676561 
C 130.185493 129.843409 130.010553 130.001966 129.828154 130.151657 
L 131.487215 132.173229 
C 131.735783 131.969234 131.974186 131.753158 132.201563 131.525781 
C 132.428939 131.298405 132.645015 131.060002 132.84901 130.811434 
z
" clip-path="url(#pfe97282a47)" style="fill: #badbb8"/>
   </g>
   <g id="patch_48">
    <path d="M 127.699381 127.55774 
C 127.601884 127.637753 127.500518 127.712931 127.395648 127.783003 
C 127.290779 127.853075 127.182532 127.917955 127.071299 127.977411 
L 131.547228 136.351286 
C 131.932551 136.145327 132.307529 135.920573 132.670808 135.677838 
C 133.034088 135.435102 133.385231 135.174677 133.722969 134.897502 
z
" clip-path="url(#pfe97282a47)" style="fill: #badbb8"/>
   </g>
   <g id="patch_49">
    <path d="M 130.704208 134.774107 
C 130.370509 134.952473 130.028254 135.114347 129.678679 135.259146 
C 129.329104 135.403945 128.972631 135.531493 128.610546 135.64133 
L 130.50139 141.874607 
C 131.067499 141.70288 131.624835 141.503462 132.171386 141.277073 
C 132.717937 141.050684 133.253043 140.797598 133.774772 140.518728 
z
" clip-path="url(#pfe97282a47)" style="fill: #badbb8"/>
   </g>
   <g id="patch_50">
    <path d="M 128.41863 135.008669 
C 128.077254 135.112224 127.730998 135.198956 127.381115 135.268552 
C 127.031233 135.338148 126.678143 135.390524 126.323124 135.425491 
L 127.306247 145.407311 
C 127.987987 145.340166 128.666019 145.239589 129.337895 145.105945 
C 130.00977 144.972301 130.674679 144.80575 131.33022 144.606893 
z
" clip-path="url(#pfe97282a47)" style="fill: #badbb8"/>
   </g>
   <g id="patch_51">
    <path d="M 126.418975 136.398684 
C 126.032101 136.436787 125.64359 136.455874 125.254844 136.455874 
C 124.866098 136.455874 124.477587 136.436787 124.090713 136.398684 
L 122.972997 147.747043 
C 123.731319 147.821731 124.492852 147.859143 125.254844 147.859143 
C 126.016836 147.859143 126.778368 147.821731 127.536691 147.747043 
z
" clip-path="url(#pfe97282a47)" style="fill: #badbb8"/>
   </g>
   <g id="patch_52">
    <path d="M 125.254844 124.579062 
C 125.254844 124.579062 125.254844 124.579062 125.254844 124.579062 
C 125.254844 124.579062 125.254844 124.579062 125.254844 124.579062 
L 119.496666 143.561232 
C 120.11798 143.749706 120.748174 143.907561 121.384971 144.034228 
C 122.021767 144.160895 122.664399 144.25622 123.310545 144.31986 
z
" clip-path="url(#pfe97282a47)" style="fill: #badbb8"/>
   </g>
   <g id="patch_53">
    <path d="M 123.884884 129.095214 
C 123.737064 129.050374 123.591534 128.998302 123.44882 128.939188 
C 123.306107 128.880075 123.166382 128.813989 123.03015 128.741172 
L 119.094945 136.103422 
C 119.472155 136.305044 119.859036 136.488025 120.254192 136.651704 
C 120.649347 136.815383 121.052301 136.959562 121.461597 137.083721 
z
" clip-path="url(#pfe97282a47)" style="fill: #badbb8"/>
   </g>
   <g id="patch_54">
    <path d="M 125.254844 124.579062 
C 125.254844 124.579062 125.254844 124.579062 125.254844 124.579062 
C 125.254844 124.579062 125.254844 124.579062 125.254844 124.579062 
L 116.273041 135.523421 
C 116.631266 135.817409 117.00371 136.093631 117.389026 136.351091 
C 117.774342 136.608551 118.172066 136.846938 118.580762 137.065391 
z
" clip-path="url(#pfe97282a47)" style="fill: #badbb8"/>
   </g>
   <g id="patch_55">
    <path d="M 125.254844 124.579062 
C 125.254844 124.579062 125.254844 124.579062 125.254844 124.579062 
C 125.254844 124.579062 125.254844 124.579062 125.254844 124.579062 
L 117.958605 130.566931 
C 118.154597 130.805748 118.362196 131.034798 118.580652 131.253254 
C 118.799108 131.47171 119.028159 131.679309 119.266975 131.875301 
z
" clip-path="url(#pfe97282a47)" style="fill: #badbb8"/>
   </g>
   <g id="patch_56">
    <path d="M 125.254844 124.579062 
C 125.254844 124.579062 125.254844 124.579062 125.254844 124.579062 
C 125.254844 124.579062 125.254844 124.579062 125.254844 124.579062 
L 110.441788 132.496806 
C 110.700947 132.981659 110.983756 133.453496 111.289191 133.910613 
C 111.594627 134.36773 111.922322 134.809575 112.271092 135.234553 
z
" clip-path="url(#pfe97282a47)" style="fill: #badbb8"/>
   </g>
   <g id="patch_57">
    <path d="M 125.254844 124.579062 
C 125.254844 124.579062 125.254844 124.579062 125.254844 124.579062 
C 125.254844 124.579062 125.254844 124.579062 125.254844 124.579062 
L 117.879999 126.816197 
C 117.953223 127.057587 118.038256 127.295236 118.134788 127.528286 
C 118.231321 127.761336 118.339237 127.989506 118.458148 128.211972 
z
" clip-path="url(#pfe97282a47)" style="fill: #badbb8"/>
   </g>
   <g id="patch_58">
    <path d="M 125.254844 124.579062 
C 125.254844 124.579062 125.254844 124.579062 125.254844 124.579062 
C 125.254844 124.579062 125.254844 124.579062 125.254844 124.579062 
L 106.86383 126.390419 
C 106.923118 126.992385 107.011926 127.591076 107.129932 128.184332 
C 107.247938 128.777587 107.395 129.364691 107.570586 129.943523 
z
" clip-path="url(#pfe97282a47)" style="fill: #badbb8"/>
   </g>
   <g id="patch_59">
    <path d="M 125.254844 124.579062 
C 125.254844 124.579062 125.254844 124.579062 125.254844 124.579062 
C 125.254844 124.579062 125.254844 124.579062 125.254844 124.579062 
L 101.460589 122.235533 
C 101.383881 123.014354 101.345458 123.796473 101.345458 124.579062 
C 101.345458 125.361652 101.383881 126.143771 101.460589 126.922592 
z
" clip-path="url(#pfe97282a47)" style="fill: #badbb8"/>
   </g>
   <g id="patch_60">
    <path d="M 125.254844 124.579062 
C 125.254844 124.579062 125.254844 124.579062 125.254844 124.579062 
C 125.254844 124.579062 125.254844 124.579062 125.254844 124.579062 
L 93.427452 114.924329 
C 93.111438 115.966087 92.846762 117.022732 92.63438 118.090449 
C 92.421998 119.158165 92.262166 120.235666 92.155462 121.319058 
z
" clip-path="url(#pfe97282a47)" style="fill: #badbb8"/>
   </g>
   <g id="patch_61">
    <path d="M 125.254844 124.579062 
C 125.254844 124.579062 125.254844 124.579062 125.254844 124.579062 
C 125.254844 124.579062 125.254844 124.579062 125.254844 124.579062 
L 115.948084 119.604496 
C 115.785259 119.90912 115.637489 120.221555 115.505306 120.540672 
C 115.373123 120.859789 115.256688 121.185203 115.156421 121.515739 
z
" clip-path="url(#pfe97282a47)" style="fill: #badbb8"/>
   </g>
   <g id="patch_62">
    <path d="M 125.254844 124.579062 
C 125.254844 124.579062 125.254844 124.579062 125.254844 124.579062 
C 125.254844 124.579062 125.254844 124.579062 125.254844 124.579062 
L 98.612746 102.714458 
C 97.897085 103.586494 97.22467 104.493141 96.59793 105.431125 
C 95.971189 106.369108 95.390878 107.337298 94.859094 108.332196 
z
" clip-path="url(#pfe97282a47)" style="fill: #badbb8"/>
   </g>
   <g id="patch_63">
    <path d="M 112.443069 114.064711 
C 112.78722 113.645363 113.151752 113.243164 113.535348 112.859567 
C 113.918945 112.47597 114.321144 112.111439 114.740492 111.767288 
L 98.309436 91.745988 
C 97.23476 92.627951 96.204034 93.562147 95.220981 94.5452 
C 94.237928 95.528253 93.303732 96.558979 92.421769 97.633654 
z
" clip-path="url(#pfe97282a47)" style="fill: #badbb8"/>
   </g>
   <g id="patch_64">
    <path d="M 125.254844 124.579062 
C 125.254844 124.579062 125.254844 124.579062 125.254844 124.579062 
C 125.254844 124.579062 125.254844 124.579062 125.254844 124.579062 
L 110.78008 97.498684 
C 109.893699 97.972465 109.031113 98.489479 108.195439 99.047859 
C 107.359764 99.606238 106.552008 100.205311 105.775089 100.842912 
z
" clip-path="url(#pfe97282a47)" style="fill: #badbb8"/>
   </g>
   <g id="patch_65">
    <path d="M 120.117133 114.967083 
C 120.431748 114.798918 120.754429 114.646301 121.084012 114.509783 
C 121.413594 114.373266 121.749681 114.253012 122.091057 114.149456 
L 113.496577 85.817252 
C 112.227845 86.202118 110.978774 86.649043 109.753875 87.156413 
C 108.528976 87.663783 107.329725 88.230986 106.160455 88.855974 
z
" clip-path="url(#pfe97282a47)" style="fill: #badbb8"/>
   </g>
   <g id="patch_66">
    <path d="M 121.544975 112.349265 
C 121.945275 112.227836 122.351295 112.126133 122.761569 112.044525 
C 123.171843 111.962916 123.585877 111.9015 124.002174 111.860498 
L 120.598319 77.300578 
C 119.050824 77.452993 117.511745 77.681294 115.98664 77.984656 
C 114.461536 78.288018 112.952245 78.666076 111.464219 79.117464 
z
" clip-path="url(#pfe97282a47)" style="fill: #badbb8"/>
   </g>
   <g id="patch_67">
    <path d="M 120.621353 77.534439 
C 122.161194 77.382778 123.707552 77.30681 125.254844 77.30681 
C 126.802135 77.30681 128.348494 77.382778 129.888335 77.534439 
L 131.774853 58.380298 
C 129.608069 58.166889 127.432112 58.059991 125.254844 58.059991 
C 123.077575 58.059991 120.901619 58.166889 118.734835 58.380298 
z
" clip-path="url(#pfe97282a47)" style="fill: #a1a1d8"/>
   </g>
   <g id="patch_68">
    <path d="M 129.779296 78.641526 
C 131.2829 78.789618 132.778327 79.011444 134.260176 79.306202 
C 135.742024 79.60096 137.208507 79.968295 138.654329 80.40688 
L 140.571459 74.086949 
C 138.918777 73.585614 137.242476 73.165722 135.548613 72.828792 
C 133.854749 72.491862 132.145364 72.238298 130.426632 72.069018 
z
" clip-path="url(#pfe97282a47)" style="fill: #a1a1d8"/>
   </g>
   <g id="patch_69">
    <path d="M 138.34734 81.418888 
C 139.760037 81.847425 141.150842 82.345063 142.514733 82.910005 
C 143.878623 83.474947 145.213954 84.106512 146.515903 84.802418 
L 150.424381 77.49017 
C 148.883091 76.666333 147.302283 75.918666 145.687664 75.24987 
C 144.073046 74.581073 142.426565 73.991953 140.754168 73.484637 
z
" clip-path="url(#pfe97282a47)" style="fill: #a1a1d8"/>
   </g>
   <g id="patch_70">
    <path d="M 140.343451 96.350263 
C 141.267422 96.844136 142.166588 97.383075 143.037702 97.965135 
C 143.908815 98.547194 144.750826 99.171672 145.560694 99.836313 
L 149.392713 95.166984 
C 148.430012 94.376915 147.429101 93.634589 146.393595 92.942686 
C 145.358089 92.250783 144.289237 91.610138 143.190899 91.023064 
z
" clip-path="url(#pfe97282a47)" style="fill: #a1a1d8"/>
   </g>
   <g id="patch_71">
    <path d="M 143.135091 102.791918 
C 143.848217 103.377166 144.532179 103.997072 145.184506 104.6494 
C 145.836834 105.301728 146.456741 105.98569 147.041988 106.698815 
L 152.310021 102.375452 
C 151.583264 101.489896 150.813466 100.640555 150.003409 99.830497 
C 149.193351 99.02044 148.344011 98.250642 147.458454 97.523885 
z
" clip-path="url(#pfe97282a47)" style="fill: #a1a1d8"/>
   </g>
   <g id="patch_72">
    <path d="M 144.093651 109.118453 
C 144.5997 109.735075 145.07517 110.376171 145.518342 111.039426 
C 145.961515 111.70268 146.371856 112.387294 146.747884 113.090793 
L 153.071522 109.710738 
C 152.584859 108.800257 152.053788 107.914218 151.480226 107.055822 
C 150.906664 106.197426 150.291303 105.367708 149.636366 104.569664 
z
" clip-path="url(#pfe97282a47)" style="fill: #a1a1d8"/>
   </g>
   <g id="patch_73">
    <path d="M 145.070448 113.987401 
C 145.417129 114.635996 145.731757 115.30122 146.013195 115.980672 
C 146.294633 116.660124 146.542542 117.352984 146.756027 118.05675 
L 158.543918 114.480932 
C 158.213391 113.391331 157.829567 112.318615 157.393832 111.266658 
C 156.958097 110.214701 156.470977 109.184771 155.93423 108.180589 
z
" clip-path="url(#pfe97282a47)" style="fill: #a1a1d8"/>
   </g>
   <g id="patch_74">
    <path d="M 144.591851 118.713246 
C 144.783848 119.346175 144.944654 119.988149 145.073688 120.636849 
C 145.202723 121.28555 145.29983 121.940194 145.36466 122.598418 
L 156.760871 121.47599 
C 156.659302 120.44475 156.507164 119.419119 156.305006 118.402801 
C 156.102848 117.386483 155.850913 116.380703 155.550112 115.389093 
z
" clip-path="url(#pfe97282a47)" style="fill: #a1a1d8"/>
   </g>
   <g id="patch_75">
    <path d="M 139.344767 123.191326 
C 139.39019 123.65251 139.412942 124.115647 139.412942 124.579062 
C 139.412942 125.042478 139.39019 125.505615 139.344767 125.966799 
L 151.823058 127.195803 
C 151.908708 126.326186 151.951611 125.452888 151.951611 124.579062 
C 151.951611 123.705237 151.908708 122.831939 151.823058 121.962322 
z
" clip-path="url(#pfe97282a47)" style="fill: #a1a1d8"/>
   </g>
   <g id="patch_76">
    <path d="M 139.60332 125.992264 
C 139.557063 126.461911 139.487777 126.929004 139.39571 127.391856 
C 139.303643 127.854707 139.188907 128.31276 139.051916 128.764359 
L 150.127869 132.124212 
C 150.374833 131.310081 150.581676 130.484315 150.747652 129.649897 
C 150.913628 128.81548 151.038537 127.973416 151.121926 127.126748 
z
" clip-path="url(#pfe97282a47)" style="fill: #a1a1d8"/>
   </g>
   <g id="patch_77">
    <path d="M 140.233225 129.122705 
C 140.084505 129.61297 139.911804 130.095637 139.715745 130.568964 
C 139.519687 131.042291 139.300507 131.505707 139.058999 131.957537 
L 146.477521 135.92282 
C 146.848819 135.22817 147.185788 134.515709 147.487211 133.78801 
C 147.788633 133.060312 148.054146 132.318253 148.28279 131.564514 
z
" clip-path="url(#pfe97282a47)" style="fill: #a1a1d8"/>
   </g>
   <g id="patch_78">
    <path d="M 135.449888 130.028427 
C 135.271522 130.362126 135.07688 130.686867 134.866665 131.001476 
C 134.65645 131.316085 134.430915 131.620184 134.190875 131.912674 
L 147.041988 142.45931 
C 147.627235 141.746184 148.177117 141.004754 148.689648 140.237698 
C 149.202178 139.470642 149.676739 138.678884 150.111617 137.865285 
z
" clip-path="url(#pfe97282a47)" style="fill: #a1a1d8"/>
   </g>
   <g id="patch_79">
    <path d="M 132.84901 130.811434 
C 132.645015 131.060002 132.428939 131.298405 132.201563 131.525781 
C 131.974186 131.753158 131.735783 131.969234 131.487215 132.173229 
L 132.169039 133.004033 
C 132.444801 132.777721 132.709285 132.538007 132.961536 132.285755 
C 133.213788 132.033504 133.453503 131.769019 133.679815 131.493257 
z
" clip-path="url(#pfe97282a47)" style="fill: #a1a1d8"/>
   </g>
   <g id="patch_80">
    <path d="M 133.722969 134.897502 
C 133.385231 135.174677 133.034088 135.435102 132.670808 135.677838 
C 132.307529 135.920573 131.932551 136.145327 131.547228 136.351286 
L 133.774772 140.518728 
C 134.296502 140.239858 134.804224 139.935541 135.296107 139.606875 
C 135.78799 139.27821 136.26344 138.925592 136.720739 138.550296 
z
" clip-path="url(#pfe97282a47)" style="fill: #a1a1d8"/>
   </g>
   <g id="patch_81">
    <path d="M 133.774772 140.518728 
C 133.253043 140.797598 132.717937 141.050684 132.171386 141.277073 
C 131.624835 141.503462 131.067499 141.70288 130.50139 141.874607 
L 133.320948 151.169445 
C 134.191291 150.905429 135.048147 150.598841 135.888421 150.250788 
C 136.728695 149.902736 137.551374 149.513637 138.353486 149.084899 
z
" clip-path="url(#pfe97282a47)" style="fill: #a1a1d8"/>
   </g>
   <g id="patch_82">
    <path d="M 131.33022 144.606893 
C 130.674679 144.80575 130.00977 144.972301 129.337895 145.105945 
C 128.666019 145.239589 127.987987 145.340166 127.306247 145.407311 
L 127.702581 149.431352 
C 128.516033 149.351233 129.325062 149.231225 130.126744 149.071761 
C 130.928427 148.912296 131.721797 148.713567 132.503989 148.476292 
z
" clip-path="url(#pfe97282a47)" style="fill: #a1a1d8"/>
   </g>
   <g id="patch_83">
    <path d="M 127.536691 147.747043 
C 126.778368 147.821731 126.016836 147.859143 125.254844 147.859143 
C 124.492852 147.859143 123.731319 147.821731 122.972997 147.747043 
L 122.268911 154.895751 
C 123.261221 154.993485 124.257732 155.04244 125.254844 155.04244 
C 126.251956 155.04244 127.248466 154.993485 128.240777 154.895751 
z
" clip-path="url(#pfe97282a47)" style="fill: #a1a1d8"/>
   </g>
   <g id="patch_84">
    <path d="M 123.310545 144.31986 
C 122.664399 144.25622 122.021767 144.160895 121.384971 144.034228 
C 120.748174 143.907561 120.11798 143.749706 119.496666 143.561232 
L 117.11155 151.423904 
C 117.990222 151.690446 118.88145 151.913687 119.782017 152.092821 
C 120.682583 152.271955 121.591402 152.406765 122.50519 152.496766 
z
" clip-path="url(#pfe97282a47)" style="fill: #a1a1d8"/>
   </g>
   <g id="patch_85">
    <path d="M 121.461597 137.083721 
C 121.052301 136.959562 120.649347 136.815383 120.254192 136.651704 
C 119.859036 136.488025 119.472155 136.305044 119.094945 136.103422 
L 114.508552 144.683961 
C 115.166615 145.035703 115.841551 145.354924 116.530923 145.640471 
C 117.220294 145.926018 117.923269 146.177547 118.63731 146.394149 
z
" clip-path="url(#pfe97282a47)" style="fill: #a1a1d8"/>
   </g>
   <g id="patch_86">
    <path d="M 118.580762 137.065391 
C 118.172066 136.846938 117.774342 136.608551 117.389026 136.351091 
C 117.00371 136.093631 116.631266 135.817409 116.273041 135.523421 
L 105.096675 149.141863 
C 105.900652 149.801669 106.736539 150.421606 107.601317 150.999432 
C 108.466095 151.577258 109.358722 152.112278 110.275973 152.602559 
z
" clip-path="url(#pfe97282a47)" style="fill: #a1a1d8"/>
   </g>
   <g id="patch_87">
    <path d="M 119.266975 131.875301 
C 119.028159 131.679309 118.799108 131.47171 118.580652 131.253254 
C 118.362196 131.034798 118.154597 130.805748 117.958605 130.566931 
L 96.840076 147.89846 
C 97.603355 148.828518 98.411837 149.72054 99.262601 150.571305 
C 100.113366 151.42207 101.005389 152.230552 101.935446 152.99383 
z
" clip-path="url(#pfe97282a47)" style="fill: #a1a1d8"/>
   </g>
   <g id="patch_88">
    <path d="M 112.271092 135.234553 
C 111.922322 134.809575 111.594627 134.36773 111.289191 133.910613 
C 110.983756 133.453496 110.700947 132.981659 110.441788 132.496806 
L 88.417628 144.268964 
C 89.062108 145.474702 89.765398 146.64807 90.524957 147.784831 
C 91.284517 148.921592 92.09943 150.020375 92.966754 151.077213 
z
" clip-path="url(#pfe97282a47)" style="fill: #a1a1d8"/>
   </g>
   <g id="patch_89">
    <path d="M 118.458148 128.211972 
C 118.339237 127.989506 118.231321 127.761336 118.134788 127.528286 
C 118.038256 127.295236 117.953223 127.057587 117.879999 126.816197 
L 85.883944 136.522094 
C 86.274858 137.810763 86.728805 139.079461 87.244148 140.323608 
C 87.75949 141.567755 88.335606 142.78585 88.970415 143.973494 
z
" clip-path="url(#pfe97282a47)" style="fill: #a1a1d8"/>
   </g>
   <g id="patch_90">
    <path d="M 107.570586 129.943523 
C 107.395 129.364691 107.247938 128.777587 107.129932 128.184332 
C 107.011926 127.591076 106.923118 126.992385 106.86383 126.390419 
L 72.814859 129.74395 
C 72.983914 131.460389 73.237139 133.167493 73.57362 134.859097 
C 73.910101 136.550701 74.329432 138.224765 74.830098 139.875242 
z
" clip-path="url(#pfe97282a47)" style="fill: #a1a1d8"/>
   </g>
   <g id="patch_91">
    <path d="M 101.460589 126.922592 
C 101.383881 126.143771 101.345458 125.361652 101.345458 124.579062 
C 101.345458 123.796473 101.383881 123.014354 101.460589 122.235533 
L 64.621467 118.607196 
C 64.425999 120.591817 64.328088 122.584839 64.328088 124.579062 
C 64.328088 126.573286 64.425999 128.566308 64.621467 130.550929 
z
" clip-path="url(#pfe97282a47)" style="fill: #a1a1d8"/>
   </g>
   <g id="patch_92">
    <path d="M 92.155462 121.319058 
C 92.262166 120.235666 92.421998 119.158165 92.63438 118.090449 
C 92.846762 117.022732 93.111438 115.966087 93.427452 114.924329 
L 63.607578 105.878569 
C 62.995483 107.896376 62.482826 109.943019 62.071458 112.011106 
C 61.66009 114.079192 61.350507 116.166229 61.143828 118.264679 
z
" clip-path="url(#pfe97282a47)" style="fill: #a1a1d8"/>
   </g>
   <g id="patch_93">
    <path d="M 115.156421 121.515739 
C 115.256688 121.185203 115.373123 120.859789 115.505306 120.540672 
C 115.637489 120.221555 115.785259 119.90912 115.948084 119.604496 
L 89.370476 105.398468 
C 88.742667 106.573017 88.172903 107.777682 87.663242 109.008111 
C 87.153582 110.238541 86.704639 111.493251 86.318036 112.767711 
z
" clip-path="url(#pfe97282a47)" style="fill: #a1a1d8"/>
   </g>
   <g id="patch_94">
    <path d="M 94.859094 108.332196 
C 95.390878 107.337298 95.971189 106.369108 96.59793 105.431125 
C 97.22467 104.493141 97.897085 103.586494 98.612746 102.714458 
L 84.359008 91.016717 
C 83.260462 92.355299 82.228299 93.747009 81.266247 95.186822 
C 80.304195 96.626634 79.413414 98.112813 78.597121 99.63999 
z
" clip-path="url(#pfe97282a47)" style="fill: #a1a1d8"/>
   </g>
   <g id="patch_95">
    <path d="M 92.421769 97.633654 
C 93.303732 96.558979 94.237928 95.528253 95.220981 94.5452 
C 96.204034 93.562147 97.23476 92.627951 98.309436 91.745988 
L 89.36924 80.852327 
C 87.937998 82.026917 86.565289 83.271068 85.256069 84.580288 
C 83.946849 85.889507 82.702698 87.262217 81.528109 88.693458 
z
" clip-path="url(#pfe97282a47)" style="fill: #a1a1d8"/>
   </g>
   <g id="patch_96">
    <path d="M 105.775089 100.842912 
C 106.552008 100.205311 107.359764 99.606238 108.195439 99.047859 
C 109.031113 98.489479 109.893699 97.972465 110.78008 97.498684 
L 104.385366 85.535015 
C 103.107396 86.218105 101.863734 86.963527 100.658872 87.76859 
C 99.45401 88.573653 98.289401 89.437386 97.169251 90.356669 
z
" clip-path="url(#pfe97282a47)" style="fill: #a1a1d8"/>
   </g>
   <g id="patch_97">
    <path d="M 106.160455 88.855974 
C 107.329725 88.230986 108.528976 87.663783 109.753875 87.156413 
C 110.978774 86.649043 112.227845 86.202118 113.496577 85.817252 
L 111.150245 78.082433 
C 109.628341 78.544098 108.130021 79.080205 106.660696 79.688819 
C 105.191372 80.297434 103.752814 80.977821 102.350219 81.727523 
z
" clip-path="url(#pfe97282a47)" style="fill: #a1a1d8"/>
   </g>
   <g id="patch_98">
    <path d="M 111.464219 79.117464 
C 112.952245 78.666076 114.461536 78.288018 115.98664 77.984656 
C 117.511745 77.681294 119.050824 77.452993 120.598319 77.300578 
L 119.147169 62.566797 
C 117.117415 62.76671 115.098699 63.066158 113.098314 63.46406 
C 111.097929 63.861961 109.118285 64.357836 107.166533 64.949894 
z
" clip-path="url(#pfe97282a47)" style="fill: #a1a1d8"/>
   </g>
   <g id="patch_99">
    <path d="M 118.734835 58.380298 
C 120.901619 58.166889 123.077575 58.059991 125.254844 58.059991 
C 127.432112 58.059991 129.608069 58.166889 131.774853 58.380298 
L 133.027452 45.662446 
C 130.444393 45.408037 127.850401 45.280602 125.254844 45.280602 
C 122.659287 45.280602 120.065294 45.408037 117.482235 45.662446 
z
" clip-path="url(#pfe97282a47)" style="fill: #828282"/>
   </g>
   <g id="patch_100">
    <path d="M 130.426632 72.069018 
C 132.145364 72.238298 133.854749 72.491862 135.548613 72.828792 
C 137.242476 73.165722 138.918777 73.585614 140.571459 74.086949 
L 143.515264 64.382524 
C 141.544941 63.784833 139.546461 63.28424 137.527043 62.882553 
C 135.507624 62.480866 133.4697 62.178568 131.420633 61.976753 
z
" clip-path="url(#pfe97282a47)" style="fill: #828282"/>
   </g>
   <g id="patch_101">
    <path d="M 140.754168 73.484637 
C 142.426565 73.991953 144.073046 74.581073 145.687664 75.24987 
C 147.302283 75.918666 148.883091 76.666333 150.424381 77.49017 
L 156.294439 66.508065 
C 154.393688 65.492092 152.444202 64.570054 150.453022 63.74528 
C 148.461841 62.920506 146.431366 62.193991 144.368932 61.568358 
z
" clip-path="url(#pfe97282a47)" style="fill: #828282"/>
   </g>
   <g id="patch_102">
    <path d="M 143.190899 91.023064 
C 144.289237 91.610138 145.358089 92.250783 146.393595 92.942686 
C 147.429101 93.634589 148.430012 94.376915 149.392713 95.166984 
L 157.174545 85.684794 
C 155.901477 84.640015 154.577882 83.658369 153.208538 82.743403 
C 151.839194 81.828437 150.425754 80.981253 148.973321 80.204912 
z
" clip-path="url(#pfe97282a47)" style="fill: #828282"/>
   </g>
   <g id="patch_103">
    <path d="M 147.458454 97.523885 
C 148.344011 98.250642 149.193351 99.02044 150.003409 99.830497 
C 150.813466 100.640555 151.583264 101.489896 152.310021 102.375452 
L 166.903097 90.399224 
C 165.78434 89.036014 164.599328 87.728554 163.35234 86.481567 
C 162.105352 85.234579 160.797892 84.049566 159.434682 82.930809 
z
" clip-path="url(#pfe97282a47)" style="fill: #828282"/>
   </g>
   <g id="patch_104">
    <path d="M 149.636366 104.569664 
C 150.291303 105.367708 150.906664 106.197426 151.480226 107.055822 
C 152.053788 107.914218 152.584859 108.800257 153.071522 109.710738 
L 167.700198 101.891548 
C 166.957602 100.502248 166.147242 99.150245 165.272047 97.840422 
C 164.396851 96.5306 163.457874 95.264536 162.458508 94.046804 
z
" clip-path="url(#pfe97282a47)" style="fill: #828282"/>
   </g>
   <g id="patch_105">
    <path d="M 155.93423 108.180589 
C 156.470977 109.184771 156.958097 110.214701 157.393832 111.266658 
C 157.829567 112.318615 158.213391 113.391331 158.543918 114.480932 
L 172.978127 110.102363 
C 172.504283 108.540308 171.954032 107.00246 171.329362 105.494372 
C 170.704691 103.986284 170.006354 102.509775 169.236874 101.070178 
z
" clip-path="url(#pfe97282a47)" style="fill: #828282"/>
   </g>
   <g id="patch_106">
    <path d="M 155.550112 115.389093 
C 155.850913 116.380703 156.102848 117.386483 156.305006 118.402801 
C 156.507164 119.419119 156.659302 120.44475 156.760871 121.47599 
L 172.611025 119.914886 
C 172.458359 118.364847 172.229683 116.823238 171.925823 115.295628 
C 171.621962 113.768017 171.243283 112.256245 170.791153 110.765774 
z
" clip-path="url(#pfe97282a47)" style="fill: #828282"/>
   </g>
   <g id="patch_107">
    <path d="M 151.823058 121.962322 
C 151.908708 122.831939 151.951611 123.705237 151.951611 124.579062 
C 151.951611 125.452888 151.908708 126.326186 151.823058 127.195803 
L 173.685694 129.349085 
C 173.841824 127.763871 173.92003 126.171947 173.92003 124.579062 
C 173.92003 122.986178 173.841824 121.394254 173.685694 119.80904 
z
" clip-path="url(#pfe97282a47)" style="fill: #828282"/>
   </g>
   <g id="patch_108">
    <path d="M 151.121926 127.126748 
C 151.038537 127.973416 150.913628 128.81548 150.747652 129.649897 
C 150.581676 130.484315 150.374833 131.310081 150.127869 132.124212 
L 170.566651 138.324249 
C 171.016551 136.841126 171.393363 135.336808 171.695726 133.816728 
C 171.998089 132.296649 172.225637 130.762641 172.37755 129.220244 
z
" clip-path="url(#pfe97282a47)" style="fill: #828282"/>
   </g>
   <g id="patch_109">
    <path d="M 148.28279 131.564514 
C 148.054146 132.318253 147.788633 133.060312 147.487211 133.78801 
C 147.185788 134.515709 146.848819 135.22817 146.477521 135.92282 
L 160.815922 143.586855 
C 161.438076 142.422888 162.002706 141.229076 162.507775 140.009732 
C 163.012844 138.790388 163.457742 137.546981 163.840862 136.284003 
z
" clip-path="url(#pfe97282a47)" style="fill: #828282"/>
   </g>
   <g id="patch_110">
    <path d="M 150.111617 137.865285 
C 149.676739 138.678884 149.202178 139.470642 148.689648 140.237698 
C 148.177117 141.004754 147.627235 141.746184 147.041988 142.45931 
L 153.591442 147.834307 
C 154.35262 146.906808 155.067803 145.942496 155.734406 144.944855 
C 156.401008 143.947213 157.018228 142.917444 157.583835 141.859268 
z
" clip-path="url(#pfe97282a47)" style="fill: #828282"/>
   </g>
   <g id="patch_111">
    <path d="M 133.679815 131.493257 
C 133.453503 131.769019 133.213788 132.033504 132.961536 132.285755 
C 132.709285 132.538007 132.444801 132.777721 132.169039 133.004033 
L 141.284745 144.111554 
C 141.924073 143.586871 142.537255 143.031116 143.122076 142.446295 
C 143.706897 141.861473 144.262653 141.248292 144.787335 140.608964 
z
" clip-path="url(#pfe97282a47)" style="fill: #828282"/>
   </g>
   <g id="patch_112">
    <path d="M 136.720739 138.550296 
C 136.26344 138.925592 135.78799 139.27821 135.296107 139.606875 
C 134.804224 139.935541 134.296502 140.239858 133.774772 140.518728 
L 138.034737 148.488561 
C 138.81733 148.070256 139.578915 147.61378 140.316739 147.120781 
C 141.054563 146.627783 141.767737 146.098857 142.453686 145.535913 
z
" clip-path="url(#pfe97282a47)" style="fill: #828282"/>
   </g>
   <g id="patch_113">
    <path d="M 138.353486 149.084899 
C 137.551374 149.513637 136.728695 149.902736 135.888421 150.250788 
C 135.048147 150.598841 134.191291 150.905429 133.320948 151.169445 
L 134.746203 155.867881 
C 135.770333 155.557214 136.778592 155.196453 137.76734 154.7869 
C 138.756088 154.377348 139.724131 153.919497 140.667975 153.415002 
z
" clip-path="url(#pfe97282a47)" style="fill: #828282"/>
   </g>
   <g id="patch_114">
    <path d="M 132.503989 148.476292 
C 131.721797 148.713567 130.928427 148.912296 130.126744 149.071761 
C 129.325062 149.231225 128.516033 149.351233 127.702581 149.431352 
L 127.978434 152.232137 
C 128.88356 152.14299 129.783764 152.009457 130.675794 151.832021 
C 131.567824 151.654586 132.450605 151.43346 133.320948 151.169445 
z
" clip-path="url(#pfe97282a47)" style="fill: #828282"/>
   </g>
   <g id="patch_115">
    <path d="M 128.240777 154.895751 
C 127.248466 154.993485 126.251956 155.04244 125.254844 155.04244 
C 124.257732 155.04244 123.261221 154.993485 122.268911 154.895751 
L 121.919141 158.447024 
C 123.02769 158.556206 124.140931 158.610896 125.254844 158.610896 
C 126.368756 158.610896 127.481998 158.556206 128.590547 158.447024 
z
" clip-path="url(#pfe97282a47)" style="fill: #828282"/>
   </g>
   <g id="patch_116">
    <path d="M 122.50519 152.496766 
C 121.591402 152.406765 120.682583 152.271955 119.782017 152.092821 
C 118.88145 151.913687 117.990222 151.690446 117.11155 151.423904 
L 114.525922 159.947577 
C 115.683586 160.298751 116.857795 160.592875 118.044305 160.828886 
C 119.230816 161.064898 120.4282 161.242513 121.63213 161.36109 
z
" clip-path="url(#pfe97282a47)" style="fill: #828282"/>
   </g>
   <g id="patch_117">
    <path d="M 118.63731 146.394149 
C 117.923269 146.177547 117.220294 145.926018 116.530923 145.640471 
C 115.841551 145.354924 115.166615 145.035703 114.508552 144.683961 
L 102.970858 166.269467 
C 104.335447 166.998856 105.735025 167.660806 107.164536 168.252929 
C 108.594047 168.845052 110.051768 169.366633 111.532433 169.815788 
z
" clip-path="url(#pfe97282a47)" style="fill: #828282"/>
   </g>
   <g id="patch_118">
    <path d="M 110.275973 152.602559 
C 109.358722 152.112278 108.466095 151.577258 107.601317 150.999432 
C 106.736539 150.421606 105.900652 149.801669 105.096675 149.141863 
L 76.547788 183.928782 
C 78.490393 185.523036 80.5101 187.020954 82.599615 188.417123 
C 84.68913 189.813292 86.845934 191.106031 89.062236 192.290669 
z
" clip-path="url(#pfe97282a47)" style="fill: #828282"/>
   </g>
   <g id="patch_119">
    <path d="M 101.935446 152.99383 
C 101.005389 152.230552 100.113366 151.42207 99.262601 150.571305 
C 98.411837 149.72054 97.603355 148.828518 96.840076 147.89846 
L 53.673572 183.324294 
C 55.596391 185.667256 57.633084 187.914401 59.776295 190.057611 
C 61.919506 192.200822 64.16665 194.237515 66.509612 196.160334 
z
" clip-path="url(#pfe97282a47)" style="fill: #828282"/>
   </g>
   <g id="patch_120">
    <path d="M 92.966754 151.077213 
C 92.09943 150.020375 91.284517 148.921592 90.524957 147.784831 
C 89.765398 146.64807 89.062108 145.474702 88.417628 144.268964 
L 48.321466 165.700809 
C 49.667443 168.218954 51.136241 170.669497 52.722558 173.043587 
C 54.308874 175.417677 56.010795 177.712452 57.822175 179.919624 
z
" clip-path="url(#pfe97282a47)" style="fill: #828282"/>
   </g>
   <g id="patch_121">
    <path d="M 88.970415 143.973494 
C 88.335606 142.78585 87.75949 141.567755 87.244148 140.323608 
C 86.728805 139.079461 86.274858 137.810763 85.883944 136.522094 
L 55.827423 145.63964 
C 56.516767 147.912103 57.317268 150.149352 58.226033 152.343305 
C 59.134798 154.537258 60.150732 156.685271 61.270167 158.779585 
z
" clip-path="url(#pfe97282a47)" style="fill: #828282"/>
   </g>
   <g id="patch_122">
    <path d="M 74.830098 139.875242 
C 74.329432 138.224765 73.910101 136.550701 73.57362 134.859097 
C 73.237139 133.167493 72.983914 131.460389 72.814859 129.74395 
L 31.792865 133.784264 
C 32.094165 136.843414 32.545479 139.885927 33.145177 142.900814 
C 33.744875 145.915701 34.492235 148.899328 35.384556 151.840916 
z
" clip-path="url(#pfe97282a47)" style="fill: #828282"/>
   </g>
   <g id="patch_123">
    <path d="M 64.621467 130.550929 
C 64.425999 128.566308 64.328088 126.573286 64.328088 124.579062 
C 64.328088 122.584839 64.425999 120.591817 64.621467 118.607196 
L 14.908761 113.710922 
C 14.553031 117.322714 14.374844 120.949795 14.374844 124.579062 
C 14.374844 128.20833 14.553031 131.835411 14.908761 135.447203 
z
" clip-path="url(#pfe97282a47)" style="fill: #828282"/>
   </g>
   <g id="patch_124">
    <path d="M 61.143828 118.264679 
C 61.350507 116.166229 61.66009 114.079192 62.071458 112.011106 
C 62.482826 109.943019 62.995483 107.896376 63.607578 105.878569 
L 40.084162 98.742819 
C 39.238504 101.530582 38.530226 104.358185 37.961888 107.215414 
C 37.39355 110.072643 36.965836 112.956053 36.680292 115.855231 
z
" clip-path="url(#pfe97282a47)" style="fill: #828282"/>
   </g>
   <g id="patch_125">
    <path d="M 86.318036 112.767711 
C 86.704639 111.493251 87.153582 110.238541 87.663242 109.008111 
C 88.172903 107.777682 88.742667 106.573017 89.370476 105.398468 
L 70.405463 95.261458 
C 69.445854 97.05676 68.574968 98.898094 67.79595 100.77881 
C 67.016932 102.659525 66.330722 104.577354 65.739798 106.525371 
z
" clip-path="url(#pfe97282a47)" style="fill: #828282"/>
   </g>
   <g id="patch_126">
    <path d="M 78.597121 99.63999 
C 79.413414 98.112813 80.304195 96.626634 81.266247 95.186822 
C 82.228299 93.747009 83.260462 92.355299 84.359008 91.016717 
L 61.438817 72.206603 
C 59.724589 74.295397 58.113947 76.467096 56.61271 78.713855 
C 55.111474 80.960615 53.721451 83.279727 52.447664 85.662814 
z
" clip-path="url(#pfe97282a47)" style="fill: #828282"/>
   </g>
   <g id="patch_127">
    <path d="M 81.528109 88.693458 
C 82.702698 87.262217 83.946849 85.889507 85.256069 84.580288 
C 86.565289 83.271068 87.937998 82.026917 89.36924 80.852327 
L 76.333555 64.9683 
C 74.382406 66.569567 72.511051 68.265665 70.726248 70.050467 
C 68.941446 71.835269 67.245348 73.706625 65.644081 75.657774 
z
" clip-path="url(#pfe97282a47)" style="fill: #828282"/>
   </g>
   <g id="patch_128">
    <path d="M 97.169251 90.356669 
C 98.289401 89.437386 99.45401 88.573653 100.658872 87.76859 
C 101.863734 86.963527 103.107396 86.218105 104.385366 85.535015 
L 101.259756 79.687411 
C 99.790386 80.472806 98.360461 81.32987 96.975148 82.255507 
C 95.589835 83.181144 94.250803 84.174237 92.962889 85.231201 
z
" clip-path="url(#pfe97282a47)" style="fill: #828282"/>
   </g>
   <g id="patch_129">
    <path d="M 102.350219 81.727523 
C 103.752814 80.977821 105.191372 80.297434 106.660696 79.688819 
C 108.130021 79.080205 109.628341 78.544098 111.150245 78.082433 
L 107.908031 67.394283 
C 106.036287 67.96207 104.193549 68.621413 102.386472 69.369928 
C 100.579394 70.118444 98.810156 70.955232 97.085148 71.877268 
z
" clip-path="url(#pfe97282a47)" style="fill: #828282"/>
   </g>
   <g id="patch_130">
    <path d="M 107.166533 64.949894 
C 109.118285 64.357836 111.097929 63.861961 113.098314 63.46406 
C 115.098699 63.066158 117.117415 62.76671 119.147169 62.566797 
L 118.259853 53.557731 
C 115.935219 53.786687 113.623227 54.129639 111.332228 54.585347 
C 109.041229 55.041055 106.773985 55.60897 104.538685 56.287041 
z
" clip-path="url(#pfe97282a47)" style="fill: #828282"/>
   </g>
   <g id="patch_131">
    <path d="M 125.254844 124.579062 
C 125.254844 124.579062 125.254844 124.579062 125.254844 124.579062 
C 125.254844 124.579062 125.254844 124.579062 125.254844 124.579062 
L 133.027452 45.662446 
C 130.444393 45.408037 127.850401 45.280602 125.254844 45.280602 
C 122.659287 45.280602 120.065294 45.408037 117.482235 45.662446 
L 125.254844 124.579062 
z
" clip-path="url(#pfe97282a47)" style="fill: none; stroke: #292929; stroke-width: 0.5; stroke-linejoin: miter"/>
   </g>
   <g id="patch_132">
    <path d="M 125.254844 124.579062 
C 125.254844 124.579062 125.254844 124.579062 125.254844 124.579062 
C 125.254844 124.579062 125.254844 124.579062 125.254844 124.579062 
L 143.515264 64.382524 
C 141.544941 63.784833 139.546461 63.28424 137.527043 62.882553 
C 135.507624 62.480866 133.4697 62.178568 131.420633 61.976753 
L 125.254844 124.579062 
z
" clip-path="url(#pfe97282a47)" style="fill: none; stroke: #292929; stroke-width: 0.5; stroke-linejoin: miter"/>
   </g>
   <g id="patch_133">
    <path d="M 125.254844 124.579062 
C 125.254844 124.579062 125.254844 124.579062 125.254844 124.579062 
C 125.254844 124.579062 125.254844 124.579062 125.254844 124.579062 
L 156.294439 66.508065 
C 154.393688 65.492092 152.444202 64.570054 150.453022 63.74528 
C 148.461841 62.920506 146.431366 62.193991 144.368932 61.568358 
L 125.254844 124.579062 
z
" clip-path="url(#pfe97282a47)" style="fill: none; stroke: #292929; stroke-width: 0.5; stroke-linejoin: miter"/>
   </g>
   <g id="patch_134">
    <path d="M 125.254844 124.579062 
C 125.254844 124.579062 125.254844 124.579062 125.254844 124.579062 
C 125.254844 124.579062 125.254844 124.579062 125.254844 124.579062 
L 157.174545 85.684794 
C 155.901477 84.640015 154.577882 83.658369 153.208538 82.743403 
C 151.839194 81.828437 150.425754 80.981253 148.973321 80.204912 
L 125.254844 124.579062 
z
" clip-path="url(#pfe97282a47)" style="fill: none; stroke: #292929; stroke-width: 0.5; stroke-linejoin: miter"/>
   </g>
   <g id="patch_135">
    <path d="M 125.254844 124.579062 
C 125.254844 124.579062 125.254844 124.579062 125.254844 124.579062 
C 125.254844 124.579062 125.254844 124.579062 125.254844 124.579062 
L 166.903097 90.399224 
C 165.78434 89.036014 164.599328 87.728554 163.35234 86.481567 
C 162.105352 85.234579 160.797892 84.049566 159.434682 82.930809 
L 125.254844 124.579062 
z
" clip-path="url(#pfe97282a47)" style="fill: none; stroke: #292929; stroke-width: 0.5; stroke-linejoin: miter"/>
   </g>
   <g id="patch_136">
    <path d="M 125.254844 124.579062 
C 125.254844 124.579062 125.254844 124.579062 125.254844 124.579062 
C 125.254844 124.579062 125.254844 124.579062 125.254844 124.579062 
L 167.700198 101.891548 
C 166.957602 100.502248 166.147242 99.150245 165.272047 97.840422 
C 164.396851 96.5306 163.457874 95.264536 162.458508 94.046804 
L 125.254844 124.579062 
z
" clip-path="url(#pfe97282a47)" style="fill: none; stroke: #292929; stroke-width: 0.5; stroke-linejoin: miter"/>
   </g>
   <g id="patch_137">
    <path d="M 125.254844 124.579062 
C 125.254844 124.579062 125.254844 124.579062 125.254844 124.579062 
C 125.254844 124.579062 125.254844 124.579062 125.254844 124.579062 
L 172.978127 110.102363 
C 172.504283 108.540308 171.954032 107.00246 171.329362 105.494372 
C 170.704691 103.986284 170.006354 102.509775 169.236874 101.070178 
L 125.254844 124.579062 
z
" clip-path="url(#pfe97282a47)" style="fill: none; stroke: #292929; stroke-width: 0.5; stroke-linejoin: miter"/>
   </g>
   <g id="patch_138">
    <path d="M 125.254844 124.579062 
C 125.254844 124.579062 125.254844 124.579062 125.254844 124.579062 
C 125.254844 124.579062 125.254844 124.579062 125.254844 124.579062 
L 172.611025 119.914886 
C 172.458359 118.364847 172.229683 116.823238 171.925823 115.295628 
C 171.621962 113.768017 171.243283 112.256245 170.791153 110.765774 
L 125.254844 124.579062 
z
" clip-path="url(#pfe97282a47)" style="fill: none; stroke: #292929; stroke-width: 0.5; stroke-linejoin: miter"/>
   </g>
   <g id="patch_139">
    <path d="M 125.254844 124.579062 
C 125.254844 124.579062 125.254844 124.579062 125.254844 124.579062 
C 125.254844 124.579062 125.254844 124.579062 125.254844 124.579062 
L 173.685694 129.349085 
C 173.841824 127.763871 173.92003 126.171947 173.92003 124.579062 
C 173.92003 122.986178 173.841824 121.394254 173.685694 119.80904 
L 125.254844 124.579062 
z
" clip-path="url(#pfe97282a47)" style="fill: none; stroke: #292929; stroke-width: 0.5; stroke-linejoin: miter"/>
   </g>
   <g id="patch_140">
    <path d="M 125.254844 124.579062 
C 125.254844 124.579062 125.254844 124.579062 125.254844 124.579062 
C 125.254844 124.579062 125.254844 124.579062 125.254844 124.579062 
L 170.566651 138.324249 
C 171.016551 136.841126 171.393363 135.336808 171.695726 133.816728 
C 171.998089 132.296649 172.225637 130.762641 172.37755 129.220244 
L 125.254844 124.579062 
z
" clip-path="url(#pfe97282a47)" style="fill: none; stroke: #292929; stroke-width: 0.5; stroke-linejoin: miter"/>
   </g>
   <g id="patch_141">
    <path d="M 125.254844 124.579062 
C 125.254844 124.579062 125.254844 124.579062 125.254844 124.579062 
C 125.254844 124.579062 125.254844 124.579062 125.254844 124.579062 
L 160.815922 143.586855 
C 161.438076 142.422888 162.002706 141.229076 162.507775 140.009732 
C 163.012844 138.790388 163.457742 137.546981 163.840862 136.284003 
L 125.254844 124.579062 
z
" clip-path="url(#pfe97282a47)" style="fill: none; stroke: #292929; stroke-width: 0.5; stroke-linejoin: miter"/>
   </g>
   <g id="patch_142">
    <path d="M 125.254844 124.579062 
C 125.254844 124.579062 125.254844 124.579062 125.254844 124.579062 
C 125.254844 124.579062 125.254844 124.579062 125.254844 124.579062 
L 153.591442 147.834307 
C 154.35262 146.906808 155.067803 145.942496 155.734406 144.944855 
C 156.401008 143.947213 157.018228 142.917444 157.583835 141.859268 
L 125.254844 124.579062 
z
" clip-path="url(#pfe97282a47)" style="fill: none; stroke: #292929; stroke-width: 0.5; stroke-linejoin: miter"/>
   </g>
   <g id="patch_143">
    <path d="M 125.254844 124.579062 
C 125.254844 124.579062 125.254844 124.579062 125.254844 124.579062 
C 125.254844 124.579062 125.254844 124.579062 125.254844 124.579062 
L 141.284745 144.111554 
C 141.924073 143.586871 142.537255 143.031116 143.122076 142.446295 
C 143.706897 141.861473 144.262653 141.248292 144.787335 140.608964 
L 125.254844 124.579062 
z
" clip-path="url(#pfe97282a47)" style="fill: none; stroke: #292929; stroke-width: 0.5; stroke-linejoin: miter"/>
   </g>
   <g id="patch_144">
    <path d="M 125.254844 124.579062 
C 125.254844 124.579062 125.254844 124.579062 125.254844 124.579062 
C 125.254844 124.579062 125.254844 124.579062 125.254844 124.579062 
L 138.034737 148.488561 
C 138.81733 148.070256 139.578915 147.61378 140.316739 147.120781 
C 141.054563 146.627783 141.767737 146.098857 142.453686 145.535913 
L 125.254844 124.579062 
z
" clip-path="url(#pfe97282a47)" style="fill: none; stroke: #292929; stroke-width: 0.5; stroke-linejoin: miter"/>
   </g>
   <g id="patch_145">
    <path d="M 125.254844 124.579062 
C 125.254844 124.579062 125.254844 124.579062 125.254844 124.579062 
C 125.254844 124.579062 125.254844 124.579062 125.254844 124.579062 
L 134.746203 155.867881 
C 135.770333 155.557214 136.778592 155.196453 137.76734 154.7869 
C 138.756088 154.377348 139.724131 153.919497 140.667975 153.415002 
L 125.254844 124.579062 
z
" clip-path="url(#pfe97282a47)" style="fill: none; stroke: #292929; stroke-width: 0.5; stroke-linejoin: miter"/>
   </g>
   <g id="patch_146">
    <path d="M 125.254844 124.579062 
C 125.254844 124.579062 125.254844 124.579062 125.254844 124.579062 
C 125.254844 124.579062 125.254844 124.579062 125.254844 124.579062 
L 127.978434 152.232137 
C 128.88356 152.14299 129.783764 152.009457 130.675794 151.832021 
C 131.567824 151.654586 132.450605 151.43346 133.320948 151.169445 
L 125.254844 124.579062 
z
" clip-path="url(#pfe97282a47)" style="fill: none; stroke: #292929; stroke-width: 0.5; stroke-linejoin: miter"/>
   </g>
   <g id="patch_147">
    <path d="M 125.254844 124.579062 
C 125.254844 124.579062 125.254844 124.579062 125.254844 124.579062 
C 125.254844 124.579062 125.254844 124.579062 125.254844 124.579062 
L 121.919141 158.447024 
C 123.02769 158.556206 124.140931 158.610896 125.254844 158.610896 
C 126.368756 158.610896 127.481998 158.556206 128.590547 158.447024 
L 125.254844 124.579062 
z
" clip-path="url(#pfe97282a47)" style="fill: none; stroke: #292929; stroke-width: 0.5; stroke-linejoin: miter"/>
   </g>
   <g id="patch_148">
    <path d="M 125.254844 124.579062 
C 125.254844 124.579062 125.254844 124.579062 125.254844 124.579062 
C 125.254844 124.579062 125.254844 124.579062 125.254844 124.579062 
L 114.525922 159.947577 
C 115.683586 160.298751 116.857795 160.592875 118.044305 160.828886 
C 119.230816 161.064898 120.4282 161.242513 121.63213 161.36109 
L 125.254844 124.579062 
z
" clip-path="url(#pfe97282a47)" style="fill: none; stroke: #292929; stroke-width: 0.5; stroke-linejoin: miter"/>
   </g>
   <g id="patch_149">
    <path d="M 125.254844 124.579062 
C 125.254844 124.579062 125.254844 124.579062 125.254844 124.579062 
C 125.254844 124.579062 125.254844 124.579062 125.254844 124.579062 
L 102.970858 166.269467 
C 104.335447 166.998856 105.735025 167.660806 107.164536 168.252929 
C 108.594047 168.845052 110.051768 169.366633 111.532433 169.815788 
L 125.254844 124.579062 
z
" clip-path="url(#pfe97282a47)" style="fill: none; stroke: #292929; stroke-width: 0.5; stroke-linejoin: miter"/>
   </g>
   <g id="patch_150">
    <path d="M 125.254844 124.579062 
C 125.254844 124.579062 125.254844 124.579062 125.254844 124.579062 
C 125.254844 124.579062 125.254844 124.579062 125.254844 124.579062 
L 76.547788 183.928782 
C 78.490393 185.523036 80.5101 187.020954 82.599615 188.417123 
C 84.68913 189.813292 86.845934 191.106031 89.062236 192.290669 
L 125.254844 124.579062 
z
" clip-path="url(#pfe97282a47)" style="fill: none; stroke: #292929; stroke-width: 0.5; stroke-linejoin: miter"/>
   </g>
   <g id="patch_151">
    <path d="M 125.254844 124.579062 
C 125.254844 124.579062 125.254844 124.579062 125.254844 124.579062 
C 125.254844 124.579062 125.254844 124.579062 125.254844 124.579062 
L 53.673572 183.324294 
C 55.596391 185.667256 57.633084 187.914401 59.776295 190.057611 
C 61.919506 192.200822 64.16665 194.237515 66.509612 196.160334 
L 125.254844 124.579062 
z
" clip-path="url(#pfe97282a47)" style="fill: none; stroke: #292929; stroke-width: 0.5; stroke-linejoin: miter"/>
   </g>
   <g id="patch_152">
    <path d="M 125.254844 124.579062 
C 125.254844 124.579062 125.254844 124.579062 125.254844 124.579062 
C 125.254844 124.579062 125.254844 124.579062 125.254844 124.579062 
L 48.321466 165.700809 
C 49.667443 168.218954 51.136241 170.669497 52.722558 173.043587 
C 54.308874 175.417677 56.010795 177.712452 57.822175 179.919624 
L 125.254844 124.579062 
z
" clip-path="url(#pfe97282a47)" style="fill: none; stroke: #292929; stroke-width: 0.5; stroke-linejoin: miter"/>
   </g>
   <g id="patch_153">
    <path d="M 125.254844 124.579062 
C 125.254844 124.579062 125.254844 124.579062 125.254844 124.579062 
C 125.254844 124.579062 125.254844 124.579062 125.254844 124.579062 
L 55.827423 145.63964 
C 56.516767 147.912103 57.317268 150.149352 58.226033 152.343305 
C 59.134798 154.537258 60.150732 156.685271 61.270167 158.779585 
L 125.254844 124.579062 
z
" clip-path="url(#pfe97282a47)" style="fill: none; stroke: #292929; stroke-width: 0.5; stroke-linejoin: miter"/>
   </g>
   <g id="patch_154">
    <path d="M 125.254844 124.579062 
C 125.254844 124.579062 125.254844 124.579062 125.254844 124.579062 
C 125.254844 124.579062 125.254844 124.579062 125.254844 124.579062 
L 31.792865 133.784264 
C 32.094165 136.843414 32.545479 139.885927 33.145177 142.900814 
C 33.744875 145.915701 34.492235 148.899328 35.384556 151.840916 
L 125.254844 124.579062 
z
" clip-path="url(#pfe97282a47)" style="fill: none; stroke: #292929; stroke-width: 0.5; stroke-linejoin: miter"/>
   </g>
   <g id="patch_155">
    <path d="M 125.254844 124.579062 
C 125.254844 124.579062 125.254844 124.579062 125.254844 124.579062 
C 125.254844 124.579062 125.254844 124.579062 125.254844 124.579062 
L 14.908761 113.710922 
C 14.553031 117.322714 14.374844 120.949795 14.374844 124.579062 
C 14.374844 128.20833 14.553031 131.835411 14.908761 135.447203 
L 125.254844 124.579062 
z
" clip-path="url(#pfe97282a47)" style="fill: none; stroke: #292929; stroke-width: 0.5; stroke-linejoin: miter"/>
   </g>
   <g id="patch_156">
    <path d="M 125.254844 124.579062 
C 125.254844 124.579062 125.254844 124.579062 125.254844 124.579062 
C 125.254844 124.579062 125.254844 124.579062 125.254844 124.579062 
L 40.084162 98.742819 
C 39.238504 101.530582 38.530226 104.358185 37.961888 107.215414 
C 37.39355 110.072643 36.965836 112.956053 36.680292 115.855231 
L 125.254844 124.579062 
z
" clip-path="url(#pfe97282a47)" style="fill: none; stroke: #292929; stroke-width: 0.5; stroke-linejoin: miter"/>
   </g>
   <g id="patch_157">
    <path d="M 125.254844 124.579062 
C 125.254844 124.579062 125.254844 124.579062 125.254844 124.579062 
C 125.254844 124.579062 125.254844 124.579062 125.254844 124.579062 
L 70.405463 95.261458 
C 69.445854 97.05676 68.574968 98.898094 67.79595 100.77881 
C 67.016932 102.659525 66.330722 104.577354 65.739798 106.525371 
L 125.254844 124.579062 
z
" clip-path="url(#pfe97282a47)" style="fill: none; stroke: #292929; stroke-width: 0.5; stroke-linejoin: miter"/>
   </g>
   <g id="patch_158">
    <path d="M 125.254844 124.579062 
C 125.254844 124.579062 125.254844 124.579062 125.254844 124.579062 
C 125.254844 124.579062 125.254844 124.579062 125.254844 124.579062 
L 61.438817 72.206603 
C 59.724589 74.295397 58.113947 76.467096 56.61271 78.713855 
C 55.111474 80.960615 53.721451 83.279727 52.447664 85.662814 
L 125.254844 124.579062 
z
" clip-path="url(#pfe97282a47)" style="fill: none; stroke: #292929; stroke-width: 0.5; stroke-linejoin: miter"/>
   </g>
   <g id="patch_159">
    <path d="M 125.254844 124.579062 
C 125.254844 124.579062 125.254844 124.579062 125.254844 124.579062 
C 125.254844 124.579062 125.254844 124.579062 125.254844 124.579062 
L 76.333555 64.9683 
C 74.382406 66.569567 72.511051 68.265665 70.726248 70.050467 
C 68.941446 71.835269 67.245348 73.706625 65.644081 75.657774 
L 125.254844 124.579062 
z
" clip-path="url(#pfe97282a47)" style="fill: none; stroke: #292929; stroke-width: 0.5; stroke-linejoin: miter"/>
   </g>
   <g id="patch_160">
    <path d="M 125.254844 124.579062 
C 125.254844 124.579062 125.254844 124.579062 125.254844 124.579062 
C 125.254844 124.579062 125.254844 124.579062 125.254844 124.579062 
L 101.259756 79.687411 
C 99.790386 80.472806 98.360461 81.32987 96.975148 82.255507 
C 95.589835 83.181144 94.250803 84.174237 92.962889 85.231201 
L 125.254844 124.579062 
z
" clip-path="url(#pfe97282a47)" style="fill: none; stroke: #292929; stroke-width: 0.5; stroke-linejoin: miter"/>
   </g>
   <g id="patch_161">
    <path d="M 125.254844 124.579062 
C 125.254844 124.579062 125.254844 124.579062 125.254844 124.579062 
C 125.254844 124.579062 125.254844 124.579062 125.254844 124.579062 
L 107.908031 67.394283 
C 106.036287 67.96207 104.193549 68.621413 102.386472 69.369928 
C 100.579394 70.118444 98.810156 70.955232 97.085148 71.877268 
L 125.254844 124.579062 
z
" clip-path="url(#pfe97282a47)" style="fill: none; stroke: #292929; stroke-width: 0.5; stroke-linejoin: miter"/>
   </g>
   <g id="patch_162">
    <path d="M 125.254844 124.579062 
C 125.254844 124.579062 125.254844 124.579062 125.254844 124.579062 
C 125.254844 124.579062 125.254844 124.579062 125.254844 124.579062 
L 118.259853 53.557731 
C 115.935219 53.786687 113.623227 54.129639 111.332228 54.585347 
C 109.041229 55.041055 106.773985 55.60897 104.538685 56.287041 
L 125.254844 124.579062 
z
" clip-path="url(#pfe97282a47)" style="fill: none; stroke: #292929; stroke-width: 0.5; stroke-linejoin: miter"/>
   </g>
   <g id="PathCollection_1">
    <defs>
     <path id="mfe54b79cb1" d="M 0.193618 7.414054 
L 0.193618 7.414054 
C 0.054922 7.414054 -0.078235 7.358899 -0.176308 7.260826 
C -0.274381 7.162753 -0.329536 7.029596 -0.329536 6.890901 
L -0.329536 5.365008 
L -1.528416 6.56393 
L -1.528416 6.56393 
C -1.577018 6.612704 -1.634775 6.651408 -1.698366 6.677814 
C -1.761958 6.704221 -1.830141 6.717815 -1.898997 6.717815 
C -1.967853 6.717815 -2.036037 6.704221 -2.099628 6.677814 
C -2.163219 6.651408 -2.220976 6.612704 -2.269578 6.56393 
L -2.269578 6.56393 
C -2.318353 6.515327 -2.357056 6.457571 -2.383463 6.393979 
C -2.409869 6.330388 -2.423463 6.262205 -2.423463 6.193348 
C -2.423463 6.124492 -2.409869 6.056309 -2.383463 5.992718 
C -2.357056 5.929126 -2.318353 5.87137 -2.269578 5.822767 
L -0.329536 3.884106 
L -0.329536 0.820937 
L -2.98067 2.351538 
L -3.691824 5.001416 
L -3.691824 5.001416 
C -3.727584 5.135411 -3.815199 5.249836 -3.93523 5.319305 
C -4.055261 5.388775 -4.198123 5.407741 -4.332122 5.371997 
L -4.332122 5.371997 
C -4.466126 5.336237 -4.580558 5.248616 -4.650029 5.128576 
C -4.719499 5.008535 -4.73846 4.865662 -4.702703 4.731657 
L -4.262647 3.092721 
L -5.585535 3.855668 
L -5.585535 3.855668 
C -5.645013 3.890144 -5.710708 3.912561 -5.778854 3.921634 
C -5.847001 3.930706 -5.916272 3.926258 -5.982698 3.908543 
C -6.049125 3.890828 -6.111412 3.860192 -6.165991 3.818391 
C -6.220571 3.77659 -6.266379 3.724437 -6.300791 3.664922 
L -6.300791 3.664922 
C -6.335212 3.605364 -6.35755 3.539597 -6.366524 3.471396 
C -6.375498 3.403194 -6.370933 3.333888 -6.35309 3.267452 
C -6.335248 3.201017 -6.304476 3.138749 -6.26254 3.08422 
C -6.220605 3.029692 -6.168323 2.983966 -6.108695 2.949666 
L -4.785807 2.186762 
L -6.424743 1.746706 
L -6.424743 1.746706 
C -6.558747 1.710946 -6.673179 1.623325 -6.74265 1.503284 
C -6.81212 1.383244 -6.831081 1.240371 -6.795324 1.106366 
L -6.795324 1.106366 
C -6.777471 1.039969 -6.746703 0.977739 -6.704784 0.923241 
C -6.662864 0.868744 -6.61061 0.823041 -6.551015 0.788752 
C -6.491421 0.754464 -6.425647 0.732257 -6.357465 0.723406 
C -6.289282 0.714554 -6.220019 0.71923 -6.153645 0.737166 
L -3.505232 1.44698 
L -0.852424 -0.08496 
L -3.503767 -1.615666 
L -6.153645 -0.905851 
L -6.153645 -0.905851 
C -6.22011 -0.887939 -6.289462 -0.883321 -6.357716 -0.892262 
C -6.42597 -0.901202 -6.491793 -0.923527 -6.551403 -0.957953 
C -6.611013 -0.992379 -6.663247 -1.038234 -6.705103 -1.092883 
C -6.746958 -1.147533 -6.777619 -1.209911 -6.795324 -1.276432 
L -6.795324 -1.276432 
C -6.831068 -1.410431 -6.812101 -1.553293 -6.742632 -1.673324 
C -6.673162 -1.793355 -6.558738 -1.88097 -6.424743 -1.91673 
L -4.785807 -2.355447 
L -6.108695 -3.119732 
L -6.108695 -3.119732 
C -6.228699 -3.188976 -6.316415 -3.303132 -6.352417 -3.436921 
C -6.388419 -3.57071 -6.369839 -3.713469 -6.300791 -3.833586 
L -6.300791 -3.833586 
C -6.266491 -3.893214 -6.220765 -3.945496 -6.166237 -3.987431 
C -6.111708 -4.029367 -6.04944 -4.060139 -5.983005 -4.077981 
C -5.91657 -4.095823 -5.847263 -4.100389 -5.779062 -4.091415 
C -5.71086 -4.082441 -5.645094 -4.060102 -5.585535 -4.025682 
L -4.262647 -3.261396 
L -4.702703 -4.900332 
L -4.702703 -4.900332 
C -4.73846 -5.034337 -4.719499 -5.17721 -4.650029 -5.29725 
C -4.580558 -5.417291 -4.466126 -5.504912 -4.332122 -5.540672 
L -4.332122 -5.540672 
C -4.19831 -5.576464 -4.055613 -5.557686 -3.935617 -5.488496 
C -3.81562 -5.419305 -3.727882 -5.305212 -3.691824 -5.171472 
L -2.982009 -2.521594 
L -0.329411 -0.990302 
L -0.329411 -4.051588 
L -2.269453 -5.991589 
L -2.269453 -5.991589 
C -2.318227 -6.040191 -2.356931 -6.097947 -2.383337 -6.161539 
C -2.409744 -6.22513 -2.423338 -6.293314 -2.423338 -6.36217 
C -2.423338 -6.431026 -2.409744 -6.499209 -2.383337 -6.5628 
C -2.356931 -6.626392 -2.318227 -6.684149 -2.269453 -6.732751 
L -2.269453 -6.732751 
C -2.22085 -6.781526 -2.163094 -6.820229 -2.099502 -6.846635 
C -2.035911 -6.873042 -1.967728 -6.886636 -1.898871 -6.886636 
C -1.830015 -6.886636 -1.761832 -6.873042 -1.698241 -6.846635 
C -1.634649 -6.820229 -1.576893 -6.781526 -1.52829 -6.732751 
L -0.329411 -5.533829 
L -0.329411 -7.059722 
L -0.329411 -7.059722 
C -0.329411 -7.198418 -0.274255 -7.331575 -0.176182 -7.429647 
C -0.07811 -7.52772 0.055047 -7.582875 0.193743 -7.582875 
L 0.193743 -7.582875 
C 0.332439 -7.582875 0.465596 -7.52772 0.563669 -7.429647 
C 0.661741 -7.331575 0.716897 -7.198418 0.716897 -7.059722 
L 0.716897 -5.533829 
L 1.915777 -6.732751 
L 1.915777 -6.732751 
C 1.964379 -6.781526 2.022136 -6.820229 2.085727 -6.846635 
C 2.149318 -6.873042 2.217502 -6.886636 2.286358 -6.886636 
C 2.355214 -6.886636 2.423397 -6.873042 2.486989 -6.846635 
C 2.55058 -6.820229 2.608337 -6.781526 2.656939 -6.732751 
L 2.656939 -6.732751 
C 2.705714 -6.684149 2.744417 -6.626392 2.770823 -6.5628 
C 2.79723 -6.499209 2.810824 -6.431026 2.810824 -6.36217 
C 2.810824 -6.293314 2.79723 -6.22513 2.770823 -6.161539 
C 2.744417 -6.097947 2.705714 -6.040191 2.656939 -5.991589 
L 0.716897 -4.051588 
L 0.716897 -0.991139 
L 3.369495 -2.522954 
L 4.07931 -5.171367 
L 4.07931 -5.171367 
C 4.115368 -5.305107 4.203106 -5.4192 4.323103 -5.488391 
C 4.4431 -5.557582 4.585797 -5.576359 4.719608 -5.540567 
L 4.719608 -5.540567 
C 4.853612 -5.504807 4.968045 -5.417186 5.037515 -5.297146 
C 5.106986 -5.177105 5.125946 -5.034232 5.090189 -4.900227 
L 4.650133 -3.262673 
L 5.973022 -4.025577 
L 5.973022 -4.025577 
C 6.03258 -4.059998 6.098346 -4.082336 6.166548 -4.09131 
C 6.234749 -4.100284 6.304056 -4.095719 6.370491 -4.077876 
C 6.436926 -4.060034 6.499194 -4.029262 6.553723 -3.987327 
C 6.608252 -3.945391 6.653978 -3.893109 6.688277 -3.833481 
L 6.688277 -3.833481 
C 6.757325 -3.713365 6.775905 -3.570605 6.739903 -3.436816 
C 6.703901 -3.303027 6.616186 -3.188871 6.496181 -3.119628 
L 5.173293 -2.355342 
L 6.812229 -1.916625 
L 6.812229 -1.916625 
C 6.946224 -1.880865 7.060649 -1.79325 7.130118 -1.67322 
C 7.199588 -1.553189 7.218554 -1.410326 7.18281 -1.276327 
L 7.18281 -1.276327 
C 7.165106 -1.209806 7.134445 -1.147429 7.092589 -1.092779 
C 7.050733 -1.038129 6.998499 -0.992274 6.938889 -0.957848 
C 6.879279 -0.923422 6.813456 -0.901098 6.745202 -0.892157 
C 6.676949 -0.883217 6.607597 -0.887835 6.541131 -0.905746 
L 3.891253 -1.615561 
L 1.239492 -0.084604 
L 3.892718 1.447085 
L 6.541131 0.73727 
L 6.541131 0.73727 
C 6.674948 0.701466 6.817656 0.720237 6.937662 0.789429 
C 7.057669 0.858621 7.145413 0.972721 7.181471 1.10647 
L 7.181471 1.10647 
C 7.217274 1.240293 7.198497 1.383006 7.129297 1.503014 
C 7.060096 1.623021 6.945986 1.710762 6.812229 1.74681 
L 5.173293 2.186866 
L 6.496181 2.949771 
L 6.496181 2.949771 
C 6.555697 2.984183 6.607849 3.029991 6.649651 3.08457 
C 6.691452 3.13915 6.722088 3.201437 6.739803 3.267863 
C 6.757517 3.33429 6.761966 3.403561 6.752893 3.471707 
C 6.743821 3.539854 6.721404 3.605549 6.686927 3.665026 
L 6.686927 3.665026 
C 6.617458 3.784813 6.503196 3.87225 6.369416 3.907994 
C 6.235636 3.943739 6.092989 3.924946 5.973032 3.855772 
L 4.650144 3.091487 
L 5.08886 4.731783 
L 5.08886 4.731783 
C 5.124664 4.865606 5.105887 5.008319 5.036686 5.128326 
C 4.967486 5.248334 4.853376 5.336074 4.719619 5.372123 
L 4.719619 5.372123 
C 4.585619 5.407867 4.442757 5.3889 4.322726 5.319431 
C 4.202695 5.249961 4.115081 5.135537 4.07932 5.001542 
L 3.368166 2.351664 
L 0.717033 0.821063 
L 0.717033 3.884232 
L 2.657075 5.822893 
L 2.657075 5.822893 
C 2.70585 5.871495 2.744553 5.929252 2.770959 5.992843 
C 2.797366 6.056435 2.81096 6.124618 2.81096 6.193474 
C 2.81096 6.26233 2.797366 6.330514 2.770959 6.394105 
C 2.744553 6.457696 2.70585 6.515453 2.657075 6.564055 
L 2.657075 6.564055 
C 2.608473 6.61283 2.550716 6.651533 2.487125 6.67794 
C 2.423533 6.704346 2.35535 6.71794 2.286494 6.71794 
C 2.217638 6.71794 2.149454 6.704346 2.085863 6.67794 
C 2.022272 6.651533 1.964515 6.61283 1.915913 6.564055 
L 0.717033 5.365133 
L 0.717033 6.891026 
L 0.717033 6.891026 
C 0.717033 7.029722 0.661877 7.162879 0.563805 7.260952 
C 0.465732 7.359024 0.332575 7.41418 0.193879 7.41418 
L 0.193618 7.414054 
z
"/>
    </defs>
    <g clip-path="url(#pfe97282a47)">
     <use xlink:href="#mfe54b79cb1" x="84.378755" y="112.224429" style="fill: #9e2096; fill-opacity: 0.7"/>
    </g>
   </g>
   <g id="patch_163">
    <path d="M 125.254844 13.699062 
C 110.694216 13.699062 96.275171 16.567189 82.822905 22.1393 
C 69.370638 27.711411 57.146763 35.879144 46.850844 46.175063 
C 36.554925 56.470982 28.387192 68.694857 22.815081 82.147124 
C 17.24297 95.59939 14.374844 110.018434 14.374844 124.579063 
C 14.374844 139.139691 17.24297 153.558735 22.815081 167.011001 
C 28.387192 180.463268 36.554925 192.687143 46.850844 202.983062 
C 57.146763 213.278981 69.370638 221.446714 82.822905 227.018825 
C 96.275171 232.590936 110.694216 235.459063 125.254844 235.459063 
C 139.815472 235.459063 154.234516 232.590936 167.686783 227.018825 
C 181.139049 221.446714 193.362925 213.278981 203.658844 202.983062 
C 213.954763 192.687143 222.122495 180.463268 227.694606 167.011001 
C 233.266717 153.558735 236.134844 139.139691 236.134844 124.579062 
C 236.134844 110.018434 233.266717 95.59939 227.694606 82.147124 
C 222.122495 68.694857 213.954763 56.470982 203.658844 46.175063 
C 193.362925 35.879144 181.139049 27.711411 167.686783 22.1393 
C 154.234516 16.567189 139.815472 13.699062 125.254844 13.699062 
" style="fill: none; stroke: #000000; stroke-width: 0.8; stroke-linejoin: miter; stroke-linecap: square"/>
   </g>
  </g>
 </g>
 <defs>
  <clipPath id="pfe97282a47">
   <path d="M 236.134844 124.579063 
C 236.134844 110.018434 233.266717 95.59939 227.694606 82.147124 
C 222.122495 68.694857 213.954763 56.470982 203.658844 46.175063 
C 193.362925 35.879144 181.139049 27.711411 167.686783 22.1393 
C 154.234516 16.567189 139.815472 13.699062 125.254844 13.699062 
C 110.694216 13.699062 96.275171 16.567189 82.822905 22.1393 
C 69.370638 27.711411 57.146763 35.879144 46.850844 46.175063 
C 36.554925 56.470982 28.387192 68.694857 22.815081 82.147124 
C 17.24297 95.59939 14.374844 110.018434 14.374844 124.579062 
C 14.374844 139.139691 17.24297 153.558735 22.815081 167.011001 
C 28.387192 180.463268 36.554925 192.687143 46.850844 202.983062 
C 57.146763 213.278981 69.370638 221.446714 82.822905 227.018825 
C 96.275171 232.590936 110.694216 235.459063 125.254844 235.459063 
C 139.815472 235.459063 154.234516 232.590936 167.686783 227.018825 
C 181.139049 221.446714 193.362925 213.278981 203.658844 202.983062 
C 213.954763 192.687143 222.122495 180.463268 227.694606 167.011001 
C 233.266717 153.558735 236.134844 139.139691 236.134844 124.579063 
M 125.254844 124.579063 
C 125.254844 124.579063 125.254844 124.579063 125.254844 124.579063 
C 125.254844 124.579063 125.254844 124.579063 125.254844 124.579063 
C 125.254844 124.579063 125.254844 124.579063 125.254844 124.579063 
C 125.254844 124.579063 125.254844 124.579063 125.254844 124.579063 
C 125.254844 124.579063 125.254844 124.579063 125.254844 124.579063 
C 125.254844 124.579063 125.254844 124.579063 125.254844 124.579063 
C 125.254844 124.579063 125.254844 124.579063 125.254844 124.579063 
C 125.254844 124.579063 125.254844 124.579063 125.254844 124.579063 
C 125.254844 124.579063 125.254844 124.579063 125.254844 124.579063 
C 125.254844 124.579063 125.254844 124.579063 125.254844 124.579063 
C 125.254844 124.579063 125.254844 124.579063 125.254844 124.579063 
C 125.254844 124.579063 125.254844 124.579063 125.254844 124.579063 
C 125.254844 124.579063 125.254844 124.579063 125.254844 124.579063 
C 125.254844 124.579063 125.254844 124.579063 125.254844 124.579063 
C 125.254844 124.579063 125.254844 124.579063 125.254844 124.579063 
C 125.254844 124.579063 125.254844 124.579063 125.254844 124.579063 
z
"/>
  </clipPath>
 </defs>
</svg>
