<?xml version="1.0" encoding="utf-8" standalone="no"?>
<!DOCTYPE svg PUBLIC "-//W3C//DTD SVG 1.1//EN"
  "http://www.w3.org/Graphics/SVG/1.1/DTD/svg11.dtd">
<svg xmlns:xlink="http://www.w3.org/1999/xlink" width="248.410469pt" height="249.158125pt" viewBox="0 0 248.410469 249.158125" xmlns="http://www.w3.org/2000/svg" version="1.1">
 <title>Ski Rose for Queyras - Ceillac</title>
 <metadata>
  <rdf:RDF xmlns:dc="http://purl.org/dc/elements/1.1/" xmlns:cc="http://creativecommons.org/ns#" xmlns:rdf="http://www.w3.org/1999/02/22-rdf-syntax-ns#">
   <cc:Work>
    <dc:type rdf:resource="http://purl.org/dc/dcmitype/StillImage"/>
    <dc:title>Ski Rose for Queyras - Ceillac</dc:title>
    <dc:date>2025-08-09T10:21:06.223059</dc:date>
    <dc:description>A 32-bin stacked histogram of downhill ski run orientations colored by difficulty.</dc:description>
    <dc:format>image/svg+xml</dc:format>
    <dc:source>https://openskimap.org/?obj=b7833ccfbf2f1d33ea1771f80296d89830bc2d6d</dc:source>
    <dc:creator>
     <cc:Agent>
      <dc:title>https://github.com/dhimmel/openskistats</dc:title>
     </cc:Agent>
    </dc:creator>
    <dc:rights>
     <cc:Agent>
      <dc:title>https://creativecommons.org/licenses/by/4.0/</dc:title>
     </cc:Agent>
    </dc:rights>
   </cc:Work>
  </rdf:RDF>
 </metadata>
 <defs>
  <style type="text/css">*{stroke-linejoin: round; stroke-linecap: butt}</style>
 </defs>
 <g id="figure_1">
  <g id="patch_1">
   <path d="M 0 249.158125 
L 248.410469 249.158125 
L 248.410469 0 
L 0 0 
z
" style="fill: #ffffff"/>
  </g>
  <g id="axes_1">
   <g id="patch_2">
    <path d="M 236.134844 124.579063 
C 236.134844 110.018434 233.266717 95.59939 227.694606 82.147124 
C 222.122495 68.694857 213.954763 56.470982 203.658844 46.175063 
C 193.362925 35.879144 181.139049 27.711411 167.686783 22.1393 
C 154.234516 16.567189 139.815472 13.699063 125.254844 13.699063 
C 110.694216 13.699063 96.275171 16.567189 82.822905 22.1393 
C 69.370638 27.711411 57.146763 35.879144 46.850844 46.175063 
C 36.554925 56.470982 28.387192 68.694857 22.815081 82.147124 
C 17.24297 95.59939 14.374844 110.018434 14.374844 124.579062 
C 14.374844 139.139691 17.24297 153.558735 22.815081 167.011001 
C 28.387192 180.463268 36.554925 192.687143 46.850844 202.983062 
C 57.146763 213.278981 69.370638 221.446714 82.822905 227.018825 
C 96.275171 232.590936 110.694216 235.459063 125.254844 235.459063 
C 139.815472 235.459063 154.234516 232.590936 167.686783 227.018825 
C 181.139049 221.446714 193.362925 213.278981 203.658844 202.983062 
C 213.954763 192.687143 222.122495 180.463268 227.694606 167.011001 
C 233.266717 153.558735 236.134844 139.139691 236.134844 124.579063 
M 125.254844 124.579063 
C 125.254844 124.579063 125.254844 124.579063 125.254844 124.579063 
C 125.254844 124.579063 125.254844 124.579063 125.254844 124.579063 
C 125.254844 124.579063 125.254844 124.579063 125.254844 124.579063 
C 125.254844 124.579063 125.254844 124.579063 125.254844 124.579063 
C 125.254844 124.579063 125.254844 124.579063 125.254844 124.579063 
C 125.254844 124.579063 125.254844 124.579063 125.254844 124.579063 
C 125.254844 124.579063 125.254844 124.579063 125.254844 124.579063 
C 125.254844 124.579063 125.254844 124.579063 125.254844 124.579063 
C 125.254844 124.579063 125.254844 124.579063 125.254844 124.579063 
C 125.254844 124.579063 125.254844 124.579063 125.254844 124.579063 
C 125.254844 124.579063 125.254844 124.579063 125.254844 124.579063 
C 125.254844 124.579063 125.254844 124.579063 125.254844 124.579063 
C 125.254844 124.579063 125.254844 124.579063 125.254844 124.579063 
C 125.254844 124.579063 125.254844 124.579063 125.254844 124.579063 
C 125.254844 124.579063 125.254844 124.579063 125.254844 124.579063 
C 125.254844 124.579063 125.254844 124.579063 125.254844 124.579063 
z
" style="fill: #ffffff"/>
   </g>
   <g id="PolyCollection_1">
    <defs>
     <path id="m18eecd3039" d="M 235.33867 -137.12153 
L 235.150009 -137.100035 
L 234.184396 -135.067785 
L 233.13188 -133.069169 
L 232.010988 -131.108548 
L 231.048495 -129.198113 
L 229.828213 -127.317413 
L 228.566505 -125.48065 
L 227.484345 -123.686919 
L 226.151818 -121.936982 
L 224.787718 -120.233363 
L 223.61151 -118.563311 
L 222.19091 -116.950029 
L 220.745174 -115.384389 
L 219.491782 -113.84212 
L 218.00074 -112.368834 
L 216.70381 -110.911923 
L 215.174279 -109.53171 
L 213.83993 -108.160787 
L 212.488453 -106.831184 
L 210.912801 -105.58915 
L 209.532768 -104.345723 
L 208.139805 -103.143554 
L 206.73526 -101.982543 
L 205.320473 -100.862543 
L 203.896777 -99.783356 
L 202.4655 -98.744738 
L 201.02796 -97.746395 
L 199.585468 -96.787981 
L 198.139326 -95.869101 
L 196.690824 -94.989311 
L 195.241241 -94.148111 
L 193.97275 -93.262508 
L 192.52171 -92.494413 
L 191.248207 -91.675985 
L 189.800202 -90.978876 
L 188.525709 -90.225786 
L 187.085098 -89.597188 
L 185.81351 -88.907282 
L 184.543143 -88.247146 
L 183.27483 -87.616255 
L 182.009389 -87.014048 
L 180.747615 -86.439937 
L 179.490283 -85.893299 
L 178.238147 -85.37348 
L 176.991936 -84.879795 
L 175.752354 -84.411529 
L 174.52008 -83.967936 
L 173.295765 -83.54824 
L 172.202341 -83.043426 
L 170.991785 -82.668877 
L 169.790919 -82.315905 
L 168.71103 -81.874787 
L 167.527002 -81.562601 
L 166.457219 -81.160819 
L 165.391294 -80.777813 
L 164.233647 -80.52154 
L 163.180067 -80.174331 
L 162.043154 -79.951273 
L 161.003157 -79.637274 
L 159.968555 -79.339273 
L 158.939587 -79.056744 
L 157.916467 -78.789156 
L 156.899384 -78.535971 
L 155.822142 -78.396912 
L 154.821061 -78.169398 
L 153.826405 -77.954513 
L 152.838263 -77.751709 
L 151.856699 -77.560443 
L 150.881751 -77.38017 
L 149.913434 -77.210351 
L 148.994957 -76.963762 
L 148.036775 -76.815751 
L 147.085189 -76.676741 
L 146.140119 -76.546217 
L 145.201459 -76.423672 
L 144.26908 -76.308611 
L 143.369349 -76.129617 
L 142.446498 -76.031328 
L 141.529503 -75.939233 
L 140.618147 -75.852889 
L 139.72955 -75.713273 
L 138.826616 -75.640832 
L 137.928667 -75.573024 
L 137.047102 -75.460774 
L 136.156458 -75.405058 
L 135.269996 -75.353017 
L 134.394442 -75.266206 
L 133.513924 -75.224743 
L 132.63666 -75.186179 
L 131.765825 -75.123246 
L 130.892945 -75.094084 
L 130.024204 -75.047359 
L 129.154672 -75.02704 
L 128.286691 -75.008794 
L 127.420198 -74.984293 
L 126.553789 -74.974328 
L 125.687816 -74.965362 
L 124.821879 -74.966224 
L 123.955918 -74.975077 
L 123.089555 -74.985792 
L 122.223118 -75.01079 
L 121.355231 -75.02978 
L 120.487709 -75.070479 
L 119.617195 -75.098054 
L 118.744481 -75.127948 
L 117.873802 -75.191361 
L 116.996751 -75.230646 
L 116.123495 -75.310715 
L 115.241131 -75.360094 
L 114.354953 -75.412832 
L 113.476253 -75.517701 
L 112.583322 -75.581923 
L 111.685724 -75.650398 
L 110.800453 -75.781858 
L 109.894892 -75.86352 
L 108.983953 -75.950495 
L 108.067396 -76.043208 
L 107.171442 -76.212807 
L 106.245668 -76.321459 
L 105.313788 -76.437096 
L 104.375648 -76.5602 
L 103.431118 -76.691267 
L 102.520145 -76.914775 
L 101.565604 -77.065798 
L 100.6045 -77.226192 
L 99.636795 -77.396487 
L 98.662478 -77.577216 
L 97.681563 -77.76892 
L 96.694086 -77.972142 
L 95.700112 -78.187426 
L 94.699728 -78.415318 
L 93.693047 -78.656364 
L 92.680207 -78.911106 
L 91.661369 -79.180087 
L 90.556401 -79.359171 
L 89.522575 -79.657444 
L 88.483367 -79.971694 
L 87.439035 -80.302439 
L 86.294645 -80.542568 
L 85.237347 -80.907629 
L 84.072905 -81.182354 
L 83.00398 -81.584271 
L 81.931579 -82.005409 
L 80.741981 -82.337933 
L 79.54218 -82.691124 
L 78.454843 -83.173919 
L 77.240203 -83.570686 
L 76.017 -83.990516 
L 74.919169 -84.540259 
L 73.68452 -85.007761 
L 72.443195 -85.500498 
L 71.195896 -86.01919 
L 69.943349 -86.564525 
L 68.686303 -87.137162 
L 67.425531 -87.737727 
L 66.161827 -88.366815 
L 64.734287 -88.92973 
L 63.463966 -89.619466 
L 62.19329 -90.339433 
L 60.75167 -91.000836 
L 59.479962 -91.784916 
L 58.033047 -92.51591 
L 56.764263 -93.366107 
L 55.316478 -94.168996 
L 54.054694 -95.086995 
L 52.610584 -95.963728 
L 51.168739 -96.879403 
L 49.730447 -97.834471 
L 48.297011 -98.829332 
L 46.869739 -99.864334 
L 45.449951 -100.939776 
L 44.038973 -102.055908 
L 42.638137 -103.212929 
L 41.248784 -104.410992 
L 39.872258 -105.650199 
L 38.300483 -106.887998 
L 36.952301 -108.213154 
L 35.621141 -109.579525 
L 34.095142 -110.955154 
L 32.801173 -112.407306 
L 31.313412 -113.875788 
L 30.062732 -115.413105 
L 28.619992 -116.973735 
L 27.202215 -118.581907 
L 26.028245 -120.246736 
L 24.666547 -121.945065 
L 23.33611 -123.689631 
L 22.255372 -125.477925 
L 20.994825 -127.309207 
L 19.774823 -129.18442 
L 18.811438 -131.08942 
L 17.687393 -133.044804 
L 16.627898 -135.038648 
L 15.842859 -137.044984 
L 15.224722 -137.115411 
L 15.224722 -137.115411 
L 14.928676 -135.202264 
L 14.901469 -133.264061 
L 14.670538 -131.342688 
L 14.520822 -129.413814 
L 14.495223 -127.479405 
L 14.411464 -125.546378 
L 14.499929 -123.612519 
L 14.430294 -121.67702 
L 14.581708 -119.746969 
L 14.629165 -117.812906 
L 14.787621 -115.885104 
L 14.899699 -113.953071 
L 15.174111 -112.036947 
L 15.350931 -110.109938 
L 15.624778 -108.194739 
L 15.987139 -106.29392 
L 16.259342 -104.37794 
L 16.616299 -102.476301 
L 17.133439 -100.609124 
L 17.501448 -98.709761 
L 17.944853 -96.826812 
L 18.484477 -94.969019 
L 18.948357 -93.089647 
L 19.548521 -91.249987 
L 20.107469 -89.397243 
L 20.765813 -87.577556 
L 21.453792 -85.769439 
L 22.101776 -83.945989 
L 22.850648 -82.161856 
L 23.63061 -80.391588 
L 24.377124 -78.606437 
L 25.223425 -76.866523 
L 26.044958 -75.114838 
L 26.909703 -73.383823 
L 27.82035 -71.676449 
L 28.77943 -69.9959 
L 29.762093 -68.329534 
L 30.734511 -66.656928 
L 31.741108 -65.004242 
L 32.807911 -63.389773 
L 34.31289 -62.076389 
L 36.142835 -61.016084 
L 38.064042 -60.061263 
L 39.933546 -59.109728 
L 41.806089 -58.200926 
L 43.684685 -57.337813 
L 45.558513 -56.511965 
L 47.370149 -55.672505 
L 49.241104 -54.925304 
L 51.101646 -54.210305 
L 52.900789 -53.47693 
L 54.750391 -52.833211 
L 56.536445 -52.16498 
L 58.315653 -51.527755 
L 60.087325 -50.920582 
L 61.850837 -50.342508 
L 63.605619 -49.792573 
L 65.35116 -49.269811 
L 67.086999 -48.773251 
L 68.771939 -48.246798 
L 70.489056 -47.80026 
L 72.161756 -47.328141 
L 73.858804 -46.928117 
L 75.510973 -46.496826 
L 77.158559 -46.093059 
L 78.824731 -45.756372 
L 80.450768 -45.388127 
L 82.071584 -45.045392 
L 83.680683 -44.715842 
L 85.284283 -44.410519 
L 86.85714 -44.076603 
L 88.442044 -43.800745 
L 90.021232 -43.547303 
L 91.589162 -43.302917 
L 93.135152 -43.038475 
L 94.690461 -42.830906 
L 96.235202 -42.630122 
L 97.762105 -42.411928 
L 99.294897 -42.244629 
L 100.810136 -42.055113 
L 102.32035 -41.879951 
L 103.831844 -41.742467 
L 105.331686 -41.593137 
L 106.827111 -41.456933 
L 108.323615 -41.359414 
L 109.810113 -41.24675 
L 111.292969 -41.146188 
L 112.772455 -41.057446 
L 114.248853 -40.980266 
L 115.723518 -40.923694 
L 117.194299 -40.867108 
L 118.662977 -40.821448 
L 120.129875 -40.786566 
L 121.595326 -40.762336 
L 123.059668 -40.748665 
L 124.523239 -40.745484 
L 125.986424 -40.7483 
L 127.450049 -40.747555 
L 128.914434 -40.760673 
L 130.379948 -40.784352 
L 131.846928 -40.818687 
L 133.315706 -40.863802 
L 134.786607 -40.91985 
L 136.259947 -40.987008 
L 137.736032 -41.065481 
L 139.217594 -41.140958 
L 140.700635 -41.241032 
L 142.187333 -41.353217 
L 143.677946 -41.47782 
L 145.179815 -41.585586 
L 146.679919 -41.734444 
L 148.18466 -41.896816 
L 149.702089 -42.046547 
L 151.217623 -42.235647 
L 152.7509 -42.402011 
L 154.278142 -42.619796 
L 155.823064 -42.820643 
L 157.36246 -43.06913 
L 158.925321 -43.29134 
L 160.493415 -43.535897 
L 162.052459 -43.834065 
L 163.639485 -44.103988 
L 165.231588 -44.398118 
L 166.835957 -44.702487 
L 168.445166 -45.032385 
L 170.066814 -45.374173 
L 171.692932 -45.742833 
L 173.33151 -46.125073 
L 175.008107 -46.482082 
L 176.660302 -46.913887 
L 178.324716 -47.36192 
L 180.031575 -47.784918 
L 181.749234 -48.231276 
L 183.434111 -48.758366 
L 185.170469 -49.254798 
L 186.91653 -49.777455 
L 188.671833 -50.327309 
L 190.435862 -50.905323 
L 192.20805 -51.512459 
L 193.98777 -52.149671 
L 195.77433 -52.817912 
L 197.625258 -53.460854 
L 199.424917 -54.194291 
L 201.285127 -54.910144 
L 203.093811 -55.712962 
L 204.969545 -56.496276 
L 206.842902 -57.323058 
L 208.722803 -58.18565 
L 210.594749 -59.09545 
L 212.465344 -60.046687 
L 214.317 -61.051644 
L 216.215395 -62.063608 
L 217.70218 -63.389505 
L 218.740152 -65.022353 
L 219.788024 -66.649055 
L 220.751209 -68.327404 
L 221.713846 -70.005185 
L 222.673931 -71.684814 
L 223.606306 -73.380532 
L 224.372802 -75.160671 
L 225.222913 -76.89674 
L 226.017284 -78.658973 
L 226.922365 -80.372766 
L 227.581408 -82.194012 
L 228.380606 -83.956744 
L 229.072347 -85.763288 
L 229.768404 -87.56887 
L 230.324656 -89.423195 
L 230.933697 -91.258648 
L 231.496179 -93.108945 
L 232.087341 -94.951789 
L 232.552169 -96.830087 
L 232.971782 -98.718514 
L 233.468666 -100.588636 
L 233.860517 -102.482989 
L 234.149142 -104.396697 
L 234.580195 -106.284273 
L 234.784655 -108.209722 
L 235.095106 -110.118318 
L 235.408985 -112.028583 
L 235.495424 -113.964102 
L 235.731635 -115.88435 
L 235.898831 -117.811786 
L 235.87204 -119.749411 
L 235.99849 -121.679138 
L 236.088965 -123.611828 
L 236.116706 -125.546539 
L 235.974948 -127.47837 
L 235.934845 -129.411456 
L 235.888692 -131.345719 
L 235.781598 -133.277707 
L 235.510723 -135.195496 
L 235.33867 -137.12153 
z
" style="stroke: #ffee9c"/>
    </defs>
    <g clip-path="url(#p3b62a5a583)">
     <use xlink:href="#m18eecd3039" x="0" y="249.158125" style="fill: #ffee9c; stroke: #ffee9c"/>
    </g>
   </g>
   <g id="matplotlib.axis_1">
    <g id="xtick_1">
     <g id="line2d_1">
      <path d="M 125.254844 124.579063 
L 125.254844 13.699063 
" clip-path="url(#p3b62a5a583)" style="fill: none; stroke: #b0b0b0; stroke-width: 0.8; stroke-linecap: square"/>
     </g>
     <g id="text_1">
      <!-- N -->
      <g transform="translate(121.070469 7.958438) scale(0.1 -0.1)">
       <defs>
        <path id="DejaVuSans-Bold-4e" d="M 588 4666 
L 1931 4666 
L 3628 1466 
L 3628 4666 
L 4769 4666 
L 4769 0 
L 3425 0 
L 1728 3200 
L 1728 0 
L 588 0 
L 588 4666 
z
" transform="scale(0.015625)"/>
       </defs>
       <use xlink:href="#DejaVuSans-Bold-4e"/>
      </g>
     </g>
    </g>
    <g id="xtick_2">
     <g id="line2d_2">
      <path d="M 125.254844 124.579063 
L 203.658844 46.175063 
" clip-path="url(#p3b62a5a583)" style="fill: none; stroke: #b0b0b0; stroke-width: 0.8; stroke-linecap: square"/>
     </g>
    </g>
    <g id="xtick_3">
     <g id="line2d_3">
      <path d="M 125.254844 124.579063 
L 236.134844 124.579063 
" clip-path="url(#p3b62a5a583)" style="fill: none; stroke: #b0b0b0; stroke-width: 0.8; stroke-linecap: square"/>
     </g>
     <g id="text_2">
      <!-- E -->
      <g transform="translate(241.219219 127.338438) scale(0.1 -0.1)">
       <defs>
        <path id="DejaVuSans-Bold-45" d="M 588 4666 
L 3834 4666 
L 3834 3756 
L 1791 3756 
L 1791 2888 
L 3713 2888 
L 3713 1978 
L 1791 1978 
L 1791 909 
L 3903 909 
L 3903 0 
L 588 0 
L 588 4666 
z
" transform="scale(0.015625)"/>
       </defs>
       <use xlink:href="#DejaVuSans-Bold-45"/>
      </g>
     </g>
    </g>
    <g id="xtick_4">
     <g id="line2d_4">
      <path d="M 125.254844 124.579063 
L 203.658844 202.983062 
" clip-path="url(#p3b62a5a583)" style="fill: none; stroke: #b0b0b0; stroke-width: 0.8; stroke-linecap: square"/>
     </g>
    </g>
    <g id="xtick_5">
     <g id="line2d_5">
      <path d="M 125.254844 124.579063 
L 125.254844 235.459063 
" clip-path="url(#p3b62a5a583)" style="fill: none; stroke: #b0b0b0; stroke-width: 0.8; stroke-linecap: square"/>
     </g>
     <g id="text_3">
      <!-- S -->
      <g transform="translate(121.654062 246.718438) scale(0.1 -0.1)">
       <defs>
        <path id="DejaVuSans-Bold-53" d="M 3834 4519 
L 3834 3531 
Q 3450 3703 3084 3790 
Q 2719 3878 2394 3878 
Q 1963 3878 1756 3759 
Q 1550 3641 1550 3391 
Q 1550 3203 1689 3098 
Q 1828 2994 2194 2919 
L 2706 2816 
Q 3484 2659 3812 2340 
Q 4141 2022 4141 1434 
Q 4141 663 3683 286 
Q 3225 -91 2284 -91 
Q 1841 -91 1394 -6 
Q 947 78 500 244 
L 500 1259 
Q 947 1022 1364 901 
Q 1781 781 2169 781 
Q 2563 781 2772 912 
Q 2981 1044 2981 1288 
Q 2981 1506 2839 1625 
Q 2697 1744 2272 1838 
L 1806 1941 
Q 1106 2091 782 2419 
Q 459 2747 459 3303 
Q 459 4000 909 4375 
Q 1359 4750 2203 4750 
Q 2588 4750 2994 4692 
Q 3400 4634 3834 4519 
z
" transform="scale(0.015625)"/>
       </defs>
       <use xlink:href="#DejaVuSans-Bold-53"/>
      </g>
     </g>
    </g>
    <g id="xtick_6">
     <g id="line2d_6">
      <path d="M 125.254844 124.579063 
L 46.850844 202.983062 
" clip-path="url(#p3b62a5a583)" style="fill: none; stroke: #b0b0b0; stroke-width: 0.8; stroke-linecap: square"/>
     </g>
    </g>
    <g id="xtick_7">
     <g id="line2d_7">
      <path d="M 125.254844 124.579063 
L 14.374844 124.579063 
" clip-path="url(#p3b62a5a583)" style="fill: none; stroke: #b0b0b0; stroke-width: 0.8; stroke-linecap: square"/>
     </g>
     <g id="text_4">
      <!-- W -->
      <g transform="translate(0.36 127.338438) scale(0.1 -0.1)">
       <defs>
        <path id="DejaVuSans-Bold-57" d="M 191 4666 
L 1344 4666 
L 2150 1275 
L 2950 4666 
L 4109 4666 
L 4909 1275 
L 5716 4666 
L 6859 4666 
L 5759 0 
L 4372 0 
L 3525 3547 
L 2688 0 
L 1300 0 
L 191 4666 
z
" transform="scale(0.015625)"/>
       </defs>
       <use xlink:href="#DejaVuSans-Bold-57"/>
      </g>
     </g>
    </g>
    <g id="xtick_8">
     <g id="line2d_8">
      <path d="M 125.254844 124.579063 
L 46.850844 46.175063 
" clip-path="url(#p3b62a5a583)" style="fill: none; stroke: #b0b0b0; stroke-width: 0.8; stroke-linecap: square"/>
     </g>
    </g>
   </g>
   <g id="matplotlib.axis_2"/>
   <g id="patch_3">
    <path d="M 125.254844 124.579063 
C 125.254844 124.579063 125.254844 124.579063 125.254844 124.579063 
C 125.254844 124.579063 125.254844 124.579063 125.254844 124.579063 
L 125.254844 124.579063 
C 125.254844 124.579063 125.254844 124.579063 125.254844 124.579063 
C 125.254844 124.579063 125.254844 124.579063 125.254844 124.579063 
z
" clip-path="url(#p3b62a5a583)" style="fill: #d9d9d9"/>
   </g>
   <g id="patch_4">
    <path d="M 125.254844 124.579063 
C 125.254844 124.579063 125.254844 124.579063 125.254844 124.579063 
C 125.254844 124.579063 125.254844 124.579063 125.254844 124.579063 
L 125.254844 124.579063 
C 125.254844 124.579063 125.254844 124.579063 125.254844 124.579063 
C 125.254844 124.579063 125.254844 124.579063 125.254844 124.579063 
z
" clip-path="url(#p3b62a5a583)" style="fill: #d9d9d9"/>
   </g>
   <g id="patch_5">
    <path d="M 125.254844 124.579063 
C 125.254844 124.579063 125.254844 124.579063 125.254844 124.579063 
C 125.254844 124.579063 125.254844 124.579063 125.254844 124.579063 
L 125.254844 124.579063 
C 125.254844 124.579063 125.254844 124.579063 125.254844 124.579063 
C 125.254844 124.579063 125.254844 124.579063 125.254844 124.579063 
z
" clip-path="url(#p3b62a5a583)" style="fill: #d9d9d9"/>
   </g>
   <g id="patch_6">
    <path d="M 125.254844 124.579063 
C 125.254844 124.579063 125.254844 124.579063 125.254844 124.579063 
C 125.254844 124.579063 125.254844 124.579063 125.254844 124.579063 
L 125.254844 124.579063 
C 125.254844 124.579063 125.254844 124.579063 125.254844 124.579063 
C 125.254844 124.579063 125.254844 124.579063 125.254844 124.579063 
z
" clip-path="url(#p3b62a5a583)" style="fill: #d9d9d9"/>
   </g>
   <g id="patch_7">
    <path d="M 125.254844 124.579063 
C 125.254844 124.579063 125.254844 124.579063 125.254844 124.579063 
C 125.254844 124.579063 125.254844 124.579063 125.254844 124.579063 
L 125.254844 124.579063 
C 125.254844 124.579063 125.254844 124.579063 125.254844 124.579063 
C 125.254844 124.579063 125.254844 124.579063 125.254844 124.579063 
z
" clip-path="url(#p3b62a5a583)" style="fill: #d9d9d9"/>
   </g>
   <g id="patch_8">
    <path d="M 125.254844 124.579063 
C 125.254844 124.579063 125.254844 124.579063 125.254844 124.579063 
C 125.254844 124.579063 125.254844 124.579063 125.254844 124.579063 
L 125.254844 124.579063 
C 125.254844 124.579063 125.254844 124.579063 125.254844 124.579063 
C 125.254844 124.579063 125.254844 124.579063 125.254844 124.579063 
z
" clip-path="url(#p3b62a5a583)" style="fill: #d9d9d9"/>
   </g>
   <g id="patch_9">
    <path d="M 125.254844 124.579063 
C 125.254844 124.579063 125.254844 124.579063 125.254844 124.579063 
C 125.254844 124.579063 125.254844 124.579063 125.254844 124.579063 
L 125.254844 124.579063 
C 125.254844 124.579063 125.254844 124.579063 125.254844 124.579063 
C 125.254844 124.579063 125.254844 124.579063 125.254844 124.579063 
z
" clip-path="url(#p3b62a5a583)" style="fill: #d9d9d9"/>
   </g>
   <g id="patch_10">
    <path d="M 125.254844 124.579063 
C 125.254844 124.579063 125.254844 124.579063 125.254844 124.579063 
C 125.254844 124.579063 125.254844 124.579063 125.254844 124.579063 
L 125.254844 124.579063 
C 125.254844 124.579063 125.254844 124.579063 125.254844 124.579063 
C 125.254844 124.579063 125.254844 124.579063 125.254844 124.579063 
z
" clip-path="url(#p3b62a5a583)" style="fill: #d9d9d9"/>
   </g>
   <g id="patch_11">
    <path d="M 125.254844 124.579063 
C 125.254844 124.579063 125.254844 124.579063 125.254844 124.579063 
C 125.254844 124.579063 125.254844 124.579063 125.254844 124.579063 
L 125.254844 124.579063 
C 125.254844 124.579063 125.254844 124.579063 125.254844 124.579063 
C 125.254844 124.579063 125.254844 124.579063 125.254844 124.579063 
z
" clip-path="url(#p3b62a5a583)" style="fill: #d9d9d9"/>
   </g>
   <g id="patch_12">
    <path d="M 125.254844 124.579063 
C 125.254844 124.579063 125.254844 124.579063 125.254844 124.579063 
C 125.254844 124.579063 125.254844 124.579063 125.254844 124.579063 
L 125.254844 124.579063 
C 125.254844 124.579063 125.254844 124.579063 125.254844 124.579063 
C 125.254844 124.579063 125.254844 124.579063 125.254844 124.579063 
z
" clip-path="url(#p3b62a5a583)" style="fill: #d9d9d9"/>
   </g>
   <g id="patch_13">
    <path d="M 125.254844 124.579063 
C 125.254844 124.579063 125.254844 124.579063 125.254844 124.579063 
C 125.254844 124.579063 125.254844 124.579063 125.254844 124.579063 
L 125.254844 124.579063 
C 125.254844 124.579063 125.254844 124.579063 125.254844 124.579063 
C 125.254844 124.579063 125.254844 124.579063 125.254844 124.579063 
z
" clip-path="url(#p3b62a5a583)" style="fill: #d9d9d9"/>
   </g>
   <g id="patch_14">
    <path d="M 125.254844 124.579063 
C 125.254844 124.579063 125.254844 124.579063 125.254844 124.579063 
C 125.254844 124.579063 125.254844 124.579063 125.254844 124.579063 
L 125.254844 124.579063 
C 125.254844 124.579063 125.254844 124.579063 125.254844 124.579063 
C 125.254844 124.579063 125.254844 124.579063 125.254844 124.579063 
z
" clip-path="url(#p3b62a5a583)" style="fill: #d9d9d9"/>
   </g>
   <g id="patch_15">
    <path d="M 125.254844 124.579063 
C 125.254844 124.579063 125.254844 124.579063 125.254844 124.579063 
C 125.254844 124.579063 125.254844 124.579063 125.254844 124.579063 
L 125.254844 124.579063 
C 125.254844 124.579063 125.254844 124.579063 125.254844 124.579063 
C 125.254844 124.579063 125.254844 124.579063 125.254844 124.579063 
z
" clip-path="url(#p3b62a5a583)" style="fill: #d9d9d9"/>
   </g>
   <g id="patch_16">
    <path d="M 125.254844 124.579063 
C 125.254844 124.579063 125.254844 124.579063 125.254844 124.579063 
C 125.254844 124.579063 125.254844 124.579063 125.254844 124.579063 
L 125.254844 124.579063 
C 125.254844 124.579063 125.254844 124.579063 125.254844 124.579063 
C 125.254844 124.579063 125.254844 124.579063 125.254844 124.579063 
z
" clip-path="url(#p3b62a5a583)" style="fill: #d9d9d9"/>
   </g>
   <g id="patch_17">
    <path d="M 125.254844 124.579063 
C 125.254844 124.579063 125.254844 124.579063 125.254844 124.579063 
C 125.254844 124.579063 125.254844 124.579063 125.254844 124.579063 
L 125.254844 124.579063 
C 125.254844 124.579063 125.254844 124.579063 125.254844 124.579063 
C 125.254844 124.579063 125.254844 124.579063 125.254844 124.579063 
z
" clip-path="url(#p3b62a5a583)" style="fill: #d9d9d9"/>
   </g>
   <g id="patch_18">
    <path d="M 125.254844 124.579063 
C 125.254844 124.579063 125.254844 124.579063 125.254844 124.579063 
C 125.254844 124.579063 125.254844 124.579063 125.254844 124.579063 
L 125.254844 124.579063 
C 125.254844 124.579063 125.254844 124.579063 125.254844 124.579063 
C 125.254844 124.579063 125.254844 124.579063 125.254844 124.579063 
z
" clip-path="url(#p3b62a5a583)" style="fill: #d9d9d9"/>
   </g>
   <g id="patch_19">
    <path d="M 125.254844 124.579063 
C 125.254844 124.579063 125.254844 124.579063 125.254844 124.579063 
C 125.254844 124.579063 125.254844 124.579063 125.254844 124.579063 
L 125.254844 124.579063 
C 125.254844 124.579063 125.254844 124.579063 125.254844 124.579063 
C 125.254844 124.579063 125.254844 124.579063 125.254844 124.579063 
z
" clip-path="url(#p3b62a5a583)" style="fill: #d9d9d9"/>
   </g>
   <g id="patch_20">
    <path d="M 125.254844 124.579063 
C 125.254844 124.579063 125.254844 124.579063 125.254844 124.579063 
C 125.254844 124.579063 125.254844 124.579063 125.254844 124.579063 
L 125.254844 124.579063 
C 125.254844 124.579063 125.254844 124.579063 125.254844 124.579063 
C 125.254844 124.579063 125.254844 124.579063 125.254844 124.579063 
z
" clip-path="url(#p3b62a5a583)" style="fill: #d9d9d9"/>
   </g>
   <g id="patch_21">
    <path d="M 125.254844 124.579063 
C 125.254844 124.579063 125.254844 124.579063 125.254844 124.579063 
C 125.254844 124.579063 125.254844 124.579063 125.254844 124.579063 
L 125.254844 124.579063 
C 125.254844 124.579063 125.254844 124.579063 125.254844 124.579063 
C 125.254844 124.579063 125.254844 124.579063 125.254844 124.579063 
z
" clip-path="url(#p3b62a5a583)" style="fill: #d9d9d9"/>
   </g>
   <g id="patch_22">
    <path d="M 125.254844 124.579063 
C 125.254844 124.579063 125.254844 124.579063 125.254844 124.579063 
C 125.254844 124.579063 125.254844 124.579063 125.254844 124.579063 
L 125.254844 124.579063 
C 125.254844 124.579063 125.254844 124.579063 125.254844 124.579063 
C 125.254844 124.579063 125.254844 124.579063 125.254844 124.579063 
z
" clip-path="url(#p3b62a5a583)" style="fill: #d9d9d9"/>
   </g>
   <g id="patch_23">
    <path d="M 125.254844 124.579063 
C 125.254844 124.579063 125.254844 124.579063 125.254844 124.579063 
C 125.254844 124.579063 125.254844 124.579063 125.254844 124.579063 
L 125.254844 124.579063 
C 125.254844 124.579063 125.254844 124.579063 125.254844 124.579063 
C 125.254844 124.579063 125.254844 124.579063 125.254844 124.579063 
z
" clip-path="url(#p3b62a5a583)" style="fill: #d9d9d9"/>
   </g>
   <g id="patch_24">
    <path d="M 125.254844 124.579063 
C 125.254844 124.579063 125.254844 124.579063 125.254844 124.579063 
C 125.254844 124.579063 125.254844 124.579063 125.254844 124.579063 
L 125.254844 124.579063 
C 125.254844 124.579063 125.254844 124.579063 125.254844 124.579063 
C 125.254844 124.579063 125.254844 124.579063 125.254844 124.579063 
z
" clip-path="url(#p3b62a5a583)" style="fill: #d9d9d9"/>
   </g>
   <g id="patch_25">
    <path d="M 125.254844 124.579063 
C 125.254844 124.579063 125.254844 124.579063 125.254844 124.579063 
C 125.254844 124.579063 125.254844 124.579063 125.254844 124.579063 
L 125.254844 124.579063 
C 125.254844 124.579063 125.254844 124.579063 125.254844 124.579063 
C 125.254844 124.579063 125.254844 124.579063 125.254844 124.579063 
z
" clip-path="url(#p3b62a5a583)" style="fill: #d9d9d9"/>
   </g>
   <g id="patch_26">
    <path d="M 125.254844 124.579063 
C 125.254844 124.579063 125.254844 124.579063 125.254844 124.579063 
C 125.254844 124.579063 125.254844 124.579063 125.254844 124.579063 
L 116.448267 125.446435 
C 116.476658 125.734687 116.519183 126.021372 116.575691 126.305453 
C 116.632198 126.589535 116.702619 126.870671 116.786699 127.147846 
z
" clip-path="url(#p3b62a5a583)" style="fill: #d9d9d9"/>
   </g>
   <g id="patch_27">
    <path d="M 125.254844 124.579063 
C 125.254844 124.579063 125.254844 124.579063 125.254844 124.579063 
C 125.254844 124.579063 125.254844 124.579063 125.254844 124.579063 
L 125.254844 124.579063 
C 125.254844 124.579063 125.254844 124.579063 125.254844 124.579063 
C 125.254844 124.579063 125.254844 124.579063 125.254844 124.579063 
z
" clip-path="url(#p3b62a5a583)" style="fill: #d9d9d9"/>
   </g>
   <g id="patch_28">
    <path d="M 125.254844 124.579063 
C 125.254844 124.579063 125.254844 124.579063 125.254844 124.579063 
C 125.254844 124.579063 125.254844 124.579063 125.254844 124.579063 
L 125.254844 124.579063 
C 125.254844 124.579063 125.254844 124.579063 125.254844 124.579063 
C 125.254844 124.579063 125.254844 124.579063 125.254844 124.579063 
z
" clip-path="url(#p3b62a5a583)" style="fill: #d9d9d9"/>
   </g>
   <g id="patch_29">
    <path d="M 125.254844 124.579063 
C 125.254844 124.579063 125.254844 124.579063 125.254844 124.579063 
C 125.254844 124.579063 125.254844 124.579063 125.254844 124.579063 
L 125.254844 124.579063 
C 125.254844 124.579063 125.254844 124.579063 125.254844 124.579063 
C 125.254844 124.579063 125.254844 124.579063 125.254844 124.579063 
z
" clip-path="url(#p3b62a5a583)" style="fill: #d9d9d9"/>
   </g>
   <g id="patch_30">
    <path d="M 125.254844 124.579063 
C 125.254844 124.579063 125.254844 124.579063 125.254844 124.579063 
C 125.254844 124.579063 125.254844 124.579063 125.254844 124.579063 
L 125.254844 124.579063 
C 125.254844 124.579063 125.254844 124.579063 125.254844 124.579063 
C 125.254844 124.579063 125.254844 124.579063 125.254844 124.579063 
z
" clip-path="url(#p3b62a5a583)" style="fill: #d9d9d9"/>
   </g>
   <g id="patch_31">
    <path d="M 125.254844 124.579063 
C 125.254844 124.579063 125.254844 124.579063 125.254844 124.579063 
C 125.254844 124.579063 125.254844 124.579063 125.254844 124.579063 
L 125.254844 124.579063 
C 125.254844 124.579063 125.254844 124.579063 125.254844 124.579063 
C 125.254844 124.579063 125.254844 124.579063 125.254844 124.579063 
z
" clip-path="url(#p3b62a5a583)" style="fill: #d9d9d9"/>
   </g>
   <g id="patch_32">
    <path d="M 125.254844 124.579063 
C 125.254844 124.579063 125.254844 124.579063 125.254844 124.579063 
C 125.254844 124.579063 125.254844 124.579063 125.254844 124.579063 
L 125.254844 124.579063 
C 125.254844 124.579063 125.254844 124.579063 125.254844 124.579063 
C 125.254844 124.579063 125.254844 124.579063 125.254844 124.579063 
z
" clip-path="url(#p3b62a5a583)" style="fill: #d9d9d9"/>
   </g>
   <g id="patch_33">
    <path d="M 125.254844 124.579063 
C 125.254844 124.579063 125.254844 124.579063 125.254844 124.579063 
C 125.254844 124.579063 125.254844 124.579063 125.254844 124.579063 
L 125.254844 124.579063 
C 125.254844 124.579063 125.254844 124.579063 125.254844 124.579063 
C 125.254844 124.579063 125.254844 124.579063 125.254844 124.579063 
z
" clip-path="url(#p3b62a5a583)" style="fill: #d9d9d9"/>
   </g>
   <g id="patch_34">
    <path d="M 125.254844 124.579063 
C 125.254844 124.579063 125.254844 124.579063 125.254844 124.579063 
C 125.254844 124.579063 125.254844 124.579063 125.254844 124.579063 
L 125.254844 124.579063 
C 125.254844 124.579063 125.254844 124.579063 125.254844 124.579063 
C 125.254844 124.579063 125.254844 124.579063 125.254844 124.579063 
z
" clip-path="url(#p3b62a5a583)" style="fill: #d9d9d9"/>
   </g>
   <g id="patch_35">
    <path d="M 125.254844 124.579063 
C 125.254844 124.579063 125.254844 124.579063 125.254844 124.579063 
C 125.254844 124.579063 125.254844 124.579063 125.254844 124.579063 
L 127.758731 99.156666 
C 126.926618 99.07471 126.090983 99.033658 125.254844 99.033658 
C 124.418705 99.033658 123.583069 99.07471 122.750956 99.156666 
z
" clip-path="url(#p3b62a5a583)" style="fill: #a1a1d8"/>
   </g>
   <g id="patch_36">
    <path d="M 125.254844 124.579063 
C 125.254844 124.579063 125.254844 124.579063 125.254844 124.579063 
C 125.254844 124.579063 125.254844 124.579063 125.254844 124.579063 
L 132.211143 101.647218 
C 131.460549 101.419528 130.699229 101.228827 129.929932 101.075805 
C 129.160636 100.922782 128.38429 100.807622 127.603698 100.730741 
z
" clip-path="url(#p3b62a5a583)" style="fill: #a1a1d8"/>
   </g>
   <g id="patch_37">
    <path d="M 125.254844 124.579063 
C 125.254844 124.579063 125.254844 124.579063 125.254844 124.579063 
C 125.254844 124.579063 125.254844 124.579063 125.254844 124.579063 
L 136.55126 103.444954 
C 135.859509 103.075205 135.150022 102.739642 134.42536 102.439478 
C 133.700698 102.139313 132.961736 101.874908 132.211143 101.647218 
z
" clip-path="url(#p3b62a5a583)" style="fill: #a1a1d8"/>
   </g>
   <g id="patch_38">
    <path d="M 125.254844 124.579063 
C 125.254844 124.579063 125.254844 124.579063 125.254844 124.579063 
C 125.254844 124.579063 125.254844 124.579063 125.254844 124.579063 
L 134.978344 112.730944 
C 134.590537 112.412679 134.187338 112.113646 133.770204 111.834926 
C 133.353069 111.556205 132.922501 111.298133 132.480056 111.061641 
z
" clip-path="url(#p3b62a5a583)" style="fill: #a1a1d8"/>
   </g>
   <g id="patch_39">
    <path d="M 125.254844 124.579063 
C 125.254844 124.579063 125.254844 124.579063 125.254844 124.579063 
C 125.254844 124.579063 125.254844 124.579063 125.254844 124.579063 
L 142.916977 110.084125 
C 142.442536 109.506017 141.939997 108.951551 141.411176 108.42273 
C 140.882355 107.893909 140.32789 107.391371 139.749782 106.91693 
z
" clip-path="url(#p3b62a5a583)" style="fill: #a1a1d8"/>
   </g>
   <g id="patch_40">
    <path d="M 125.254844 124.579063 
C 125.254844 124.579063 125.254844 124.579063 125.254844 124.579063 
C 125.254844 124.579063 125.254844 124.579063 125.254844 124.579063 
L 134.266458 119.762254 
C 134.108797 119.467291 133.936748 119.180246 133.750935 118.902156 
C 133.565121 118.624066 133.365766 118.355267 133.15359 118.096729 
z
" clip-path="url(#p3b62a5a583)" style="fill: #a1a1d8"/>
   </g>
   <g id="patch_41">
    <path d="M 125.254844 124.579063 
C 125.254844 124.579063 125.254844 124.579063 125.254844 124.579063 
C 125.254844 124.579063 125.254844 124.579063 125.254844 124.579063 
L 130.143929 123.095975 
C 130.095386 122.935948 130.039014 122.7784 129.975019 122.623902 
C 129.911024 122.469403 129.839482 122.31814 129.760651 122.170658 
z
" clip-path="url(#p3b62a5a583)" style="fill: #a1a1d8"/>
   </g>
   <g id="patch_42">
    <path d="M 125.254844 124.579063 
C 125.254844 124.579063 125.254844 124.579063 125.254844 124.579063 
C 125.254844 124.579063 125.254844 124.579063 125.254844 124.579063 
L 134.06142 123.71169 
C 134.03303 123.423438 133.990504 123.136753 133.933997 122.852672 
C 133.87749 122.56859 133.807069 122.287454 133.722988 122.010279 
z
" clip-path="url(#p3b62a5a583)" style="fill: #a1a1d8"/>
   </g>
   <g id="patch_43">
    <path d="M 125.254844 124.579063 
C 125.254844 124.579063 125.254844 124.579063 125.254844 124.579063 
C 125.254844 124.579063 125.254844 124.579063 125.254844 124.579063 
L 125.254844 124.579063 
C 125.254844 124.579063 125.254844 124.579063 125.254844 124.579063 
C 125.254844 124.579063 125.254844 124.579063 125.254844 124.579063 
z
" clip-path="url(#p3b62a5a583)" style="fill: #a1a1d8"/>
   </g>
   <g id="patch_44">
    <path d="M 125.254844 124.579063 
C 125.254844 124.579063 125.254844 124.579063 125.254844 124.579063 
C 125.254844 124.579063 125.254844 124.579063 125.254844 124.579063 
L 125.254844 124.579063 
C 125.254844 124.579063 125.254844 124.579063 125.254844 124.579063 
C 125.254844 124.579063 125.254844 124.579063 125.254844 124.579063 
z
" clip-path="url(#p3b62a5a583)" style="fill: #a1a1d8"/>
   </g>
   <g id="patch_45">
    <path d="M 125.254844 124.579063 
C 125.254844 124.579063 125.254844 124.579063 125.254844 124.579063 
C 125.254844 124.579063 125.254844 124.579063 125.254844 124.579063 
L 125.254844 124.579063 
C 125.254844 124.579063 125.254844 124.579063 125.254844 124.579063 
C 125.254844 124.579063 125.254844 124.579063 125.254844 124.579063 
z
" clip-path="url(#p3b62a5a583)" style="fill: #a1a1d8"/>
   </g>
   <g id="patch_46">
    <path d="M 125.254844 124.579063 
C 125.254844 124.579063 125.254844 124.579063 125.254844 124.579063 
C 125.254844 124.579063 125.254844 124.579063 125.254844 124.579063 
L 125.254844 124.579063 
C 125.254844 124.579063 125.254844 124.579063 125.254844 124.579063 
C 125.254844 124.579063 125.254844 124.579063 125.254844 124.579063 
z
" clip-path="url(#p3b62a5a583)" style="fill: #a1a1d8"/>
   </g>
   <g id="patch_47">
    <path d="M 125.254844 124.579063 
C 125.254844 124.579063 125.254844 124.579063 125.254844 124.579063 
C 125.254844 124.579063 125.254844 124.579063 125.254844 124.579063 
L 125.254844 124.579063 
C 125.254844 124.579063 125.254844 124.579063 125.254844 124.579063 
C 125.254844 124.579063 125.254844 124.579063 125.254844 124.579063 
z
" clip-path="url(#p3b62a5a583)" style="fill: #a1a1d8"/>
   </g>
   <g id="patch_48">
    <path d="M 125.254844 124.579063 
C 125.254844 124.579063 125.254844 124.579063 125.254844 124.579063 
C 125.254844 124.579063 125.254844 124.579063 125.254844 124.579063 
L 125.254844 124.579063 
C 125.254844 124.579063 125.254844 124.579063 125.254844 124.579063 
C 125.254844 124.579063 125.254844 124.579063 125.254844 124.579063 
z
" clip-path="url(#p3b62a5a583)" style="fill: #a1a1d8"/>
   </g>
   <g id="patch_49">
    <path d="M 125.254844 124.579063 
C 125.254844 124.579063 125.254844 124.579063 125.254844 124.579063 
C 125.254844 124.579063 125.254844 124.579063 125.254844 124.579063 
L 125.254844 124.579063 
C 125.254844 124.579063 125.254844 124.579063 125.254844 124.579063 
C 125.254844 124.579063 125.254844 124.579063 125.254844 124.579063 
z
" clip-path="url(#p3b62a5a583)" style="fill: #a1a1d8"/>
   </g>
   <g id="patch_50">
    <path d="M 125.254844 124.579063 
C 125.254844 124.579063 125.254844 124.579063 125.254844 124.579063 
C 125.254844 124.579063 125.254844 124.579063 125.254844 124.579063 
L 125.96305 131.769602 
C 126.198407 131.746421 126.432484 131.711699 126.664436 131.665561 
C 126.896388 131.619423 127.125934 131.561925 127.352247 131.493274 
z
" clip-path="url(#p3b62a5a583)" style="fill: #a1a1d8"/>
   </g>
   <g id="patch_51">
    <path d="M 125.254844 124.579063 
C 125.254844 124.579063 125.254844 124.579063 125.254844 124.579063 
C 125.254844 124.579063 125.254844 124.579063 125.254844 124.579063 
L 124.028194 137.033442 
C 124.435845 137.073593 124.845221 137.093704 125.254844 137.093704 
C 125.664467 137.093704 126.073843 137.073593 126.481493 137.033442 
z
" clip-path="url(#p3b62a5a583)" style="fill: #a1a1d8"/>
   </g>
   <g id="patch_52">
    <path d="M 125.254844 124.579063 
C 125.254844 124.579063 125.254844 124.579063 125.254844 124.579063 
C 125.254844 124.579063 125.254844 124.579063 125.254844 124.579063 
L 116.607029 153.087086 
C 117.54014 153.370142 118.486585 153.607214 119.442946 153.797446 
C 120.399307 153.987678 121.364432 154.130841 122.334834 154.226417 
z
" clip-path="url(#p3b62a5a583)" style="fill: #a1a1d8"/>
   </g>
   <g id="patch_53">
    <path d="M 125.254844 124.579063 
C 125.254844 124.579063 125.254844 124.579063 125.254844 124.579063 
C 125.254844 124.579063 125.254844 124.579063 125.254844 124.579063 
L 114.484133 144.729645 
C 115.143692 145.082186 115.820162 145.402132 116.5111 145.688328 
C 117.202037 145.974524 117.90661 146.226624 118.622273 146.443718 
z
" clip-path="url(#p3b62a5a583)" style="fill: #a1a1d8"/>
   </g>
   <g id="patch_54">
    <path d="M 125.254844 124.579063 
C 125.254844 124.579063 125.254844 124.579063 125.254844 124.579063 
C 125.254844 124.579063 125.254844 124.579063 125.254844 124.579063 
L 115.531344 136.427181 
C 115.91915 136.745446 116.322349 137.044479 116.739484 137.323199 
C 117.156618 137.60192 117.587186 137.859992 118.029631 138.096484 
z
" clip-path="url(#p3b62a5a583)" style="fill: #a1a1d8"/>
   </g>
   <g id="patch_55">
    <path d="M 125.254844 124.579063 
C 125.254844 124.579063 125.254844 124.579063 125.254844 124.579063 
C 125.254844 124.579063 125.254844 124.579063 125.254844 124.579063 
L 112.156255 135.328796 
C 112.50811 135.757532 112.880803 136.168735 113.272987 136.560919 
C 113.665171 136.953103 114.076374 137.325796 114.50511 137.677651 
z
" clip-path="url(#p3b62a5a583)" style="fill: #a1a1d8"/>
   </g>
   <g id="patch_56">
    <path d="M 125.254844 124.579063 
C 125.254844 124.579063 125.254844 124.579063 125.254844 124.579063 
C 125.254844 124.579063 125.254844 124.579063 125.254844 124.579063 
L 92.144059 142.277146 
C 92.723343 143.360911 93.355489 144.415582 94.038212 145.437349 
C 94.720935 146.459116 95.453412 147.446747 96.232998 148.396676 
z
" clip-path="url(#p3b62a5a583)" style="fill: #a1a1d8"/>
   </g>
   <g id="patch_57">
    <path d="M 125.254844 124.579063 
C 125.254844 124.579063 125.254844 124.579063 125.254844 124.579063 
C 125.254844 124.579063 125.254844 124.579063 125.254844 124.579063 
L 99.384234 132.426826 
C 99.641103 133.27361 99.939392 134.107272 100.278024 134.9248 
C 100.616655 135.742329 100.995221 136.542739 101.412353 137.323139 
z
" clip-path="url(#p3b62a5a583)" style="fill: #a1a1d8"/>
   </g>
   <g id="patch_58">
    <path d="M 116.786699 127.147846 
C 116.702619 126.870671 116.632198 126.589535 116.575691 126.305453 
C 116.519183 126.021372 116.476658 125.734687 116.448267 125.446435 
L 96.945661 127.367274 
C 97.036923 128.293875 97.173624 129.215438 97.35527 130.128633 
C 97.536916 131.041828 97.763287 131.945554 98.033567 132.836547 
z
" clip-path="url(#p3b62a5a583)" style="fill: #a1a1d8"/>
   </g>
   <g id="patch_59">
    <path d="M 125.254844 124.579063 
C 125.254844 124.579063 125.254844 124.579063 125.254844 124.579063 
C 125.254844 124.579063 125.254844 124.579063 125.254844 124.579063 
L 74.156459 119.546311 
C 73.991729 121.218837 73.909216 122.898443 73.909216 124.579062 
C 73.909216 126.259682 73.991729 127.939288 74.156459 129.611814 
z
" clip-path="url(#p3b62a5a583)" style="fill: #a1a1d8"/>
   </g>
   <g id="patch_60">
    <path d="M 125.254844 124.579063 
C 125.254844 124.579063 125.254844 124.579063 125.254844 124.579063 
C 125.254844 124.579063 125.254844 124.579063 125.254844 124.579063 
L 76.609056 109.822524 
C 76.126052 111.414773 75.721515 113.029777 75.396905 114.661702 
C 75.072295 116.293627 74.828004 117.940505 74.664913 119.596389 
z
" clip-path="url(#p3b62a5a583)" style="fill: #a1a1d8"/>
   </g>
   <g id="patch_61">
    <path d="M 125.254844 124.579063 
C 125.254844 124.579063 125.254844 124.579063 125.254844 124.579063 
C 125.254844 124.579063 125.254844 124.579063 125.254844 124.579063 
L 101.412353 111.834986 
C 100.995221 112.615386 100.616655 113.415796 100.278024 114.233325 
C 99.939392 115.050853 99.641103 115.884515 99.384234 116.731299 
z
" clip-path="url(#p3b62a5a583)" style="fill: #a1a1d8"/>
   </g>
   <g id="patch_62">
    <path d="M 125.254844 124.579063 
C 125.254844 124.579063 125.254844 124.579063 125.254844 124.579063 
C 125.254844 124.579063 125.254844 124.579063 125.254844 124.579063 
L 99.357073 103.325311 
C 98.661406 104.172984 98.007777 105.054301 97.398546 105.96608 
C 96.789315 106.877858 96.225218 107.818998 95.70829 108.786101 
z
" clip-path="url(#p3b62a5a583)" style="fill: #a1a1d8"/>
   </g>
   <g id="patch_63">
    <path d="M 125.254844 124.579063 
C 125.254844 124.579063 125.254844 124.579063 125.254844 124.579063 
C 125.254844 124.579063 125.254844 124.579063 125.254844 124.579063 
L 95.372764 88.167643 
C 94.180964 89.145728 93.037903 90.181737 91.947711 91.27193 
C 90.857519 92.362122 89.821509 93.505182 88.843424 94.696983 
z
" clip-path="url(#p3b62a5a583)" style="fill: #a1a1d8"/>
   </g>
   <g id="patch_64">
    <path d="M 125.254844 124.579063 
C 125.254844 124.579063 125.254844 124.579063 125.254844 124.579063 
C 125.254844 124.579063 125.254844 124.579063 125.254844 124.579063 
L 102.280133 81.596402 
C 100.873246 82.348399 99.504129 83.169016 98.177725 84.055291 
C 96.851321 84.941565 95.569231 85.892428 94.336085 86.904445 
z
" clip-path="url(#p3b62a5a583)" style="fill: #a1a1d8"/>
   </g>
   <g id="patch_65">
    <path d="M 125.254844 124.579063 
C 125.254844 124.579063 125.254844 124.579063 125.254844 124.579063 
C 125.254844 124.579063 125.254844 124.579063 125.254844 124.579063 
L 115.196052 91.41967 
C 114.110696 91.74891 113.042158 92.131238 111.994299 92.565276 
C 110.94644 92.999313 109.920523 93.484536 108.920252 94.019192 
z
" clip-path="url(#p3b62a5a583)" style="fill: #a1a1d8"/>
   </g>
   <g id="patch_66">
    <path d="M 125.254844 124.579063 
C 125.254844 124.579063 125.254844 124.579063 125.254844 124.579063 
C 125.254844 124.579063 125.254844 124.579063 125.254844 124.579063 
L 121.785355 89.352756 
C 120.632346 89.466318 119.485607 89.636421 118.34928 89.86245 
C 117.212954 90.088479 116.088409 90.370163 114.979709 90.706484 
z
" clip-path="url(#p3b62a5a583)" style="fill: #a1a1d8"/>
   </g>
   <g id="patch_67">
    <path d="M 122.750956 99.156666 
C 123.583069 99.07471 124.418705 99.033658 125.254844 99.033658 
C 126.090983 99.033658 126.926618 99.07471 127.758731 99.156666 
L 132.31918 52.853655 
C 129.9715 52.622429 127.613883 52.506606 125.254844 52.506606 
C 122.895805 52.506606 120.538187 52.622429 118.190508 52.853655 
z
" clip-path="url(#p3b62a5a583)" style="fill: #ff8c8e"/>
   </g>
   <g id="patch_68">
    <path d="M 127.603698 100.730741 
C 128.38429 100.807622 129.160636 100.922782 129.929932 101.075805 
C 130.699229 101.228827 131.460549 101.419528 132.211143 101.647218 
L 139.402601 77.940158 
C 137.87604 77.477081 136.327663 77.089233 134.763063 76.778014 
C 133.198464 76.466796 131.619527 76.232583 130.031957 76.076221 
z
" clip-path="url(#p3b62a5a583)" style="fill: #ff8c8e"/>
   </g>
   <g id="patch_69">
    <path d="M 132.211143 101.647218 
C 132.961736 101.874908 133.700698 102.139313 134.42536 102.439478 
C 135.150022 102.739642 135.859509 103.075205 136.55126 103.444954 
L 153.853058 71.075567 
C 152.101808 70.139505 150.305657 69.289988 148.47109 68.530086 
C 146.636523 67.770184 144.765753 67.100811 142.865537 66.524387 
z
" clip-path="url(#p3b62a5a583)" style="fill: #ff8c8e"/>
   </g>
   <g id="patch_70">
    <path d="M 132.480056 111.061641 
C 132.922501 111.298133 133.353069 111.556205 133.770204 111.834926 
C 134.187338 112.113646 134.590537 112.412679 134.978344 112.730944 
L 164.950866 76.209319 
C 163.367652 74.910009 161.7216 73.689214 160.018655 72.551342 
C 158.31571 71.413471 156.557925 70.359895 154.751649 69.394421 
z
" clip-path="url(#p3b62a5a583)" style="fill: #ff8c8e"/>
   </g>
   <g id="patch_71">
    <path d="M 139.749782 106.91693 
C 140.32789 107.391371 140.882355 107.893909 141.411176 108.42273 
C 141.939997 108.951551 142.442536 109.506017 142.916977 110.084125 
L 163.950638 92.822245 
C 162.91119 91.555674 161.810183 90.3409 160.651595 89.182311 
C 159.493006 88.023723 158.278233 86.922716 157.011662 85.883268 
z
" clip-path="url(#p3b62a5a583)" style="fill: #ff8c8e"/>
   </g>
   <g id="patch_72">
    <path d="M 133.15359 118.096729 
C 133.365766 118.355267 133.565121 118.624066 133.750935 118.902156 
C 133.936748 119.180246 134.108797 119.467291 134.266458 119.762254 
L 143.278072 114.945446 
C 142.96275 114.355519 142.618653 113.781429 142.247026 113.225249 
C 141.875399 112.66907 141.476689 112.131471 141.052336 111.614396 
z
" clip-path="url(#p3b62a5a583)" style="fill: #ff8c8e"/>
   </g>
   <g id="patch_73">
    <path d="M 129.760651 122.170658 
C 129.839482 122.31814 129.911024 122.469403 129.975019 122.623902 
C 130.039014 122.7784 130.095386 122.935948 130.143929 123.095975 
L 168.434079 111.480785 
C 168.005353 110.067464 167.507495 108.676044 166.942303 107.311551 
C 166.377112 105.947059 165.745268 104.611137 165.049055 103.308614 
z
" clip-path="url(#p3b62a5a583)" style="fill: #ff8c8e"/>
   </g>
   <g id="patch_74">
    <path d="M 133.722988 122.010279 
C 133.807069 122.287454 133.87749 122.56859 133.933997 122.852672 
C 133.990504 123.136753 134.03303 123.423438 134.06142 123.71169 
L 144.946948 122.63956 
C 144.883465 121.995008 144.788374 121.353961 144.66202 120.718735 
C 144.535666 120.083509 144.3782 119.45487 144.190191 118.835088 
z
" clip-path="url(#p3b62a5a583)" style="fill: #ff8c8e"/>
   </g>
   <g id="patch_75">
    <path d="M 125.254844 124.579063 
C 125.254844 124.579063 125.254844 124.579063 125.254844 124.579063 
C 125.254844 124.579063 125.254844 124.579063 125.254844 124.579063 
L 140.508282 126.081395 
C 140.557455 125.582127 140.582087 125.080746 140.582087 124.579063 
C 140.582087 124.077379 140.557455 123.575998 140.508282 123.07673 
z
" clip-path="url(#p3b62a5a583)" style="fill: #ff8c8e"/>
   </g>
   <g id="patch_76">
    <path d="M 125.254844 124.579063 
C 125.254844 124.579063 125.254844 124.579063 125.254844 124.579063 
C 125.254844 124.579063 125.254844 124.579063 125.254844 124.579063 
L 145.41306 130.693991 
C 145.613211 130.034182 145.780846 129.364944 145.915361 128.688695 
C 146.049875 128.012445 146.151106 127.329999 146.218689 126.643821 
z
" clip-path="url(#p3b62a5a583)" style="fill: #ff8c8e"/>
   </g>
   <g id="patch_77">
    <path d="M 125.254844 124.579063 
C 125.254844 124.579063 125.254844 124.579063 125.254844 124.579063 
C 125.254844 124.579063 125.254844 124.579063 125.254844 124.579063 
L 144.895202 135.077053 
C 145.238817 134.434194 145.550662 133.774853 145.829611 133.10141 
C 146.10856 132.427967 146.354277 131.741235 146.565874 131.043693 
z
" clip-path="url(#p3b62a5a583)" style="fill: #ff8c8e"/>
   </g>
   <g id="patch_78">
    <path d="M 125.254844 124.579063 
C 125.254844 124.579063 125.254844 124.579063 125.254844 124.579063 
C 125.254844 124.579063 125.254844 124.579063 125.254844 124.579063 
L 129.204217 127.820229 
C 129.310305 127.69096 129.409982 127.556561 129.502889 127.417516 
C 129.595796 127.278471 129.68182 127.134948 129.760651 126.987467 
z
" clip-path="url(#p3b62a5a583)" style="fill: #ff8c8e"/>
   </g>
   <g id="patch_79">
    <path d="M 125.254844 124.579063 
C 125.254844 124.579063 125.254844 124.579063 125.254844 124.579063 
C 125.254844 124.579063 125.254844 124.579063 125.254844 124.579063 
L 141.133253 143.92696 
C 141.766538 143.407236 142.373925 142.856732 142.953219 142.277438 
C 143.532514 141.698144 144.083017 141.090757 144.602741 140.457471 
z
" clip-path="url(#p3b62a5a583)" style="fill: #ff8c8e"/>
   </g>
   <g id="patch_80">
    <path d="M 125.254844 124.579063 
C 125.254844 124.579063 125.254844 124.579063 125.254844 124.579063 
C 125.254844 124.579063 125.254844 124.579063 125.254844 124.579063 
L 133.242616 139.523134 
C 133.731758 139.261682 134.207769 138.976373 134.668928 138.668236 
C 135.130088 138.360099 135.575841 138.029506 136.004577 137.677651 
z
" clip-path="url(#p3b62a5a583)" style="fill: #ff8c8e"/>
   </g>
   <g id="patch_81">
    <path d="M 125.254844 124.579063 
C 125.254844 124.579063 125.254844 124.579063 125.254844 124.579063 
C 125.254844 124.579063 125.254844 124.579063 125.254844 124.579063 
L 126.737932 129.468148 
C 126.897959 129.419604 127.055506 129.363233 127.210004 129.299238 
C 127.364503 129.235242 127.515766 129.1637 127.663248 129.08487 
z
" clip-path="url(#p3b62a5a583)" style="fill: #ff8c8e"/>
   </g>
   <g id="patch_82">
    <path d="M 127.352247 131.493274 
C 127.125934 131.561925 126.896388 131.619423 126.664436 131.665561 
C 126.432484 131.711699 126.198407 131.746421 125.96305 131.769602 
L 126.374616 135.948304 
C 126.746749 135.911652 127.116857 135.856752 127.483605 135.783801 
C 127.850353 135.71085 128.213298 135.619937 128.571129 135.51139 
z
" clip-path="url(#p3b62a5a583)" style="fill: #ff8c8e"/>
   </g>
   <g id="patch_83">
    <path d="M 126.481493 137.033442 
C 126.073843 137.073593 125.664467 137.093704 125.254844 137.093704 
C 124.845221 137.093704 124.435845 137.073593 124.028194 137.033442 
L 124.028194 137.033442 
C 124.435845 137.073593 124.845221 137.093704 125.254844 137.093704 
C 125.664467 137.093704 126.073843 137.073593 126.481493 137.033442 
z
" clip-path="url(#p3b62a5a583)" style="fill: #ff8c8e"/>
   </g>
   <g id="patch_84">
    <path d="M 122.334834 154.226417 
C 121.364432 154.130841 120.399307 153.987678 119.442946 153.797446 
C 118.486585 153.607214 117.54014 153.370142 116.607029 153.087086 
L 115.196052 157.738455 
C 116.281409 158.067694 117.382276 158.343447 118.494677 158.564717 
C 119.607078 158.785987 120.729672 158.952509 121.858405 159.063679 
z
" clip-path="url(#p3b62a5a583)" style="fill: #ff8c8e"/>
   </g>
   <g id="patch_85">
    <path d="M 118.622273 146.443718 
C 117.90661 146.226624 117.202037 145.974524 116.5111 145.688328 
C 115.820162 145.402132 115.143692 145.082186 114.484133 144.729645 
L 114.484133 144.729645 
C 115.143692 145.082186 115.820162 145.402132 116.5111 145.688328 
C 117.202037 145.974524 117.90661 146.226624 118.622273 146.443718 
z
" clip-path="url(#p3b62a5a583)" style="fill: #ff8c8e"/>
   </g>
   <g id="patch_86">
    <path d="M 118.029631 138.096484 
C 117.587186 137.859992 117.156618 137.60192 116.739484 137.323199 
C 116.322349 137.044479 115.91915 136.745446 115.531344 136.427181 
L 113.568651 138.818729 
C 114.034737 139.201236 114.519321 139.560628 115.020655 139.895609 
C 115.521988 140.230589 116.039466 140.540753 116.571219 140.824981 
z
" clip-path="url(#p3b62a5a583)" style="fill: #ff8c8e"/>
   </g>
   <g id="patch_87">
    <path d="M 114.50511 137.677651 
C 114.076374 137.325796 113.665171 136.953103 113.272987 136.560919 
C 112.880803 136.168735 112.50811 135.757532 112.156255 135.328796 
L 110.477643 136.706398 
C 110.874589 137.190077 111.295043 137.653977 111.737486 138.09642 
C 112.179929 138.538863 112.643829 138.959317 113.127509 139.356263 
z
" clip-path="url(#p3b62a5a583)" style="fill: #ff8c8e"/>
   </g>
   <g id="patch_88">
    <path d="M 96.232998 148.396676 
C 95.453412 147.446747 94.720935 146.459116 94.038212 145.437349 
C 93.355489 144.415582 92.723343 143.360911 92.144059 142.277146 
L 92.144059 142.277146 
C 92.723343 143.360911 93.355489 144.415582 94.038212 145.437349 
C 94.720935 146.459116 95.453412 147.446747 96.232998 148.396676 
z
" clip-path="url(#p3b62a5a583)" style="fill: #ff8c8e"/>
   </g>
   <g id="patch_89">
    <path d="M 101.412353 137.323139 
C 100.995221 136.542739 100.616655 135.742329 100.278024 134.9248 
C 99.939392 134.107272 99.641103 133.27361 99.384234 132.426826 
L 93.949421 134.075459 
C 94.260252 135.100132 94.621205 136.108927 95.030975 137.098199 
C 95.440745 138.087471 95.898838 139.056029 96.403601 140.000373 
z
" clip-path="url(#p3b62a5a583)" style="fill: #ff8c8e"/>
   </g>
   <g id="patch_90">
    <path d="M 98.033567 132.836547 
C 97.763287 131.945554 97.536916 131.041828 97.35527 130.128633 
C 97.173624 129.215438 97.036923 128.293875 96.945661 127.367274 
L 84.579009 128.585283 
C 84.710139 129.916663 84.906556 131.240804 85.167553 132.55292 
C 85.428549 133.865037 85.753809 135.163549 86.142159 136.443766 
z
" clip-path="url(#p3b62a5a583)" style="fill: #ff8c8e"/>
   </g>
   <g id="patch_91">
    <path d="M 74.156459 129.611814 
C 73.991729 127.939288 73.909216 126.259682 73.909216 124.579062 
C 73.909216 122.898443 73.991729 121.218837 74.156459 119.546311 
L 60.141738 118.165981 
C 59.931828 120.297231 59.826684 122.437501 59.826684 124.579062 
C 59.826684 126.720624 59.931828 128.860894 60.141738 130.992144 
z
" clip-path="url(#p3b62a5a583)" style="fill: #ff8c8e"/>
   </g>
   <g id="patch_92">
    <path d="M 74.664913 119.596389 
C 74.828004 117.940505 75.072295 116.293627 75.396905 114.661702 
C 75.721515 113.029777 76.126052 111.414773 76.609056 109.822524 
L 60.026306 104.792202 
C 59.378652 106.927229 58.836213 109.092768 58.400947 111.280996 
C 57.965682 113.469224 57.638114 115.677503 57.419429 117.897857 
z
" clip-path="url(#p3b62a5a583)" style="fill: #ff8c8e"/>
   </g>
   <g id="patch_93">
    <path d="M 99.384234 116.731299 
C 99.641103 115.884515 99.939392 115.050853 100.278024 114.233325 
C 100.616655 113.415796 100.995221 112.615386 101.412353 111.834986 
L 69.157997 94.594673 
C 68.176564 96.430807 67.28587 98.31402 66.489135 100.237509 
C 65.6924 102.160998 64.990582 104.122446 64.386218 106.114767 
z
" clip-path="url(#p3b62a5a583)" style="fill: #ff8c8e"/>
   </g>
   <g id="patch_94">
    <path d="M 95.70829 108.786101 
C 96.225218 107.818998 96.789315 106.877858 97.398546 105.96608 
C 98.007777 105.054301 98.661406 104.172984 99.357073 103.325311 
L 62.685008 73.229326 
C 61.004255 75.27733 59.425066 77.40662 57.953145 79.609505 
C 56.481224 81.81239 55.118346 84.086215 53.869434 86.422766 
z
" clip-path="url(#p3b62a5a583)" style="fill: #ff8c8e"/>
   </g>
   <g id="patch_95">
    <path d="M 88.843424 94.696983 
C 89.821509 93.505182 90.857519 92.362122 91.947711 91.27193 
C 93.037903 90.181737 94.180964 89.145728 95.372764 88.167643 
L 69.585979 56.746354 
C 67.365713 58.568479 65.236246 60.498515 63.205271 62.52949 
C 61.174296 64.560465 59.24426 66.689931 57.422135 68.910197 
z
" clip-path="url(#p3b62a5a583)" style="fill: #ff8c8e"/>
   </g>
   <g id="patch_96">
    <path d="M 94.336085 86.904445 
C 95.569231 85.892428 96.851321 84.941565 98.177725 84.055291 
C 99.504129 83.169016 100.873246 82.348399 102.280133 81.596402 
L 79.6221 39.206204 
C 76.827719 40.699832 74.108355 42.329756 71.473831 44.090089 
C 68.839307 45.850422 66.292798 47.739041 63.843502 49.749126 
z
" clip-path="url(#p3b62a5a583)" style="fill: #ff8c8e"/>
   </g>
   <g id="patch_97">
    <path d="M 108.920252 94.019192 
C 109.920523 93.484536 110.94644 92.999313 111.994299 92.565276 
C 113.042158 92.131238 114.110696 91.74891 115.196052 91.41967 
L 93.068077 18.473513 
C 89.595084 19.527034 86.175909 20.750434 82.822903 22.139295 
C 79.469896 23.528156 76.1871 25.080803 72.986371 26.791628 
z
" clip-path="url(#p3b62a5a583)" style="fill: #ff8c8e"/>
   </g>
   <g id="patch_98">
    <path d="M 114.979709 90.706484 
C 116.088409 90.370163 117.212954 90.088479 118.34928 89.86245 
C 119.485607 89.636421 120.632346 89.466318 121.785355 89.352756 
L 117.384507 44.670197 
C 114.768971 44.927805 112.167659 45.313673 109.589967 45.826408 
C 107.012275 46.339143 104.46131 46.978126 101.946288 47.74105 
z
" clip-path="url(#p3b62a5a583)" style="fill: #ff8c8e"/>
   </g>
   <g id="patch_99">
    <path d="M 118.190508 52.853655 
C 120.538187 52.622429 122.895805 52.506606 125.254844 52.506606 
C 127.613883 52.506606 129.9715 52.622429 132.31918 52.853655 
L 132.31918 52.853655 
C 129.9715 52.622429 127.613883 52.506606 125.254844 52.506606 
C 122.895805 52.506606 120.538187 52.622429 118.190508 52.853655 
z
" clip-path="url(#p3b62a5a583)" style="fill: #828282"/>
   </g>
   <g id="patch_100">
    <path d="M 130.031957 76.076221 
C 131.619527 76.232583 133.198464 76.466796 134.763063 76.778014 
C 136.327663 77.089233 137.87604 77.477081 139.402601 77.940158 
L 139.402601 77.940158 
C 137.87604 77.477081 136.327663 77.089233 134.763063 76.778014 
C 133.198464 76.466796 131.619527 76.232583 130.031957 76.076221 
z
" clip-path="url(#p3b62a5a583)" style="fill: #828282"/>
   </g>
   <g id="patch_101">
    <path d="M 142.865537 66.524387 
C 144.765753 67.100811 146.636523 67.770184 148.47109 68.530086 
C 150.305657 69.289988 152.101808 70.139505 153.853058 71.075567 
L 153.853058 71.075567 
C 152.101808 70.139505 150.305657 69.289988 148.47109 68.530086 
C 146.636523 67.770184 144.765753 67.100811 142.865537 66.524387 
z
" clip-path="url(#p3b62a5a583)" style="fill: #828282"/>
   </g>
   <g id="patch_102">
    <path d="M 154.751649 69.394421 
C 156.557925 70.359895 158.31571 71.413471 160.018655 72.551342 
C 161.7216 73.689214 163.367652 74.910009 164.950866 76.209319 
L 164.950866 76.209319 
C 163.367652 74.910009 161.7216 73.689214 160.018655 72.551342 
C 158.31571 71.413471 156.557925 70.359895 154.751649 69.394421 
z
" clip-path="url(#p3b62a5a583)" style="fill: #828282"/>
   </g>
   <g id="patch_103">
    <path d="M 157.011662 85.883268 
C 158.278233 86.922716 159.493006 88.023723 160.651595 89.182311 
C 161.810183 90.3409 162.91119 91.555674 163.950638 92.822245 
L 163.950638 92.822245 
C 162.91119 91.555674 161.810183 90.3409 160.651595 89.182311 
C 159.493006 88.023723 158.278233 86.922716 157.011662 85.883268 
z
" clip-path="url(#p3b62a5a583)" style="fill: #828282"/>
   </g>
   <g id="patch_104">
    <path d="M 141.052336 111.614396 
C 141.476689 112.131471 141.875399 112.66907 142.247026 113.225249 
C 142.618653 113.781429 142.96275 114.355519 143.278072 114.945446 
L 143.278072 114.945446 
C 142.96275 114.355519 142.618653 113.781429 142.247026 113.225249 
C 141.875399 112.66907 141.476689 112.131471 141.052336 111.614396 
z
" clip-path="url(#p3b62a5a583)" style="fill: #828282"/>
   </g>
   <g id="patch_105">
    <path d="M 165.049055 103.308614 
C 165.745268 104.611137 166.377112 105.947059 166.942303 107.311551 
C 167.507495 108.676044 168.005353 110.067464 168.434079 111.480785 
L 168.434079 111.480785 
C 168.005353 110.067464 167.507495 108.676044 166.942303 107.311551 
C 166.377112 105.947059 165.745268 104.611137 165.049055 103.308614 
z
" clip-path="url(#p3b62a5a583)" style="fill: #828282"/>
   </g>
   <g id="patch_106">
    <path d="M 144.190191 118.835088 
C 144.3782 119.45487 144.535666 120.083509 144.66202 120.718735 
C 144.788374 121.353961 144.883465 121.995008 144.946948 122.63956 
L 144.946948 122.63956 
C 144.883465 121.995008 144.788374 121.353961 144.66202 120.718735 
C 144.535666 120.083509 144.3782 119.45487 144.190191 118.835088 
z
" clip-path="url(#p3b62a5a583)" style="fill: #828282"/>
   </g>
   <g id="patch_107">
    <path d="M 140.508282 123.07673 
C 140.557455 123.575998 140.582087 124.077379 140.582087 124.579063 
C 140.582087 125.080746 140.557455 125.582127 140.508282 126.081395 
L 140.508282 126.081395 
C 140.557455 125.582127 140.582087 125.080746 140.582087 124.579063 
C 140.582087 124.077379 140.557455 123.575998 140.508282 123.07673 
z
" clip-path="url(#p3b62a5a583)" style="fill: #828282"/>
   </g>
   <g id="patch_108">
    <path d="M 146.218689 126.643821 
C 146.151106 127.329999 146.049875 128.012445 145.915361 128.688695 
C 145.780846 129.364944 145.613211 130.034182 145.41306 130.693991 
L 145.41306 130.693991 
C 145.613211 130.034182 145.780846 129.364944 145.915361 128.688695 
C 146.049875 128.012445 146.151106 127.329999 146.218689 126.643821 
z
" clip-path="url(#p3b62a5a583)" style="fill: #828282"/>
   </g>
   <g id="patch_109">
    <path d="M 146.565874 131.043693 
C 146.354277 131.741235 146.10856 132.427967 145.829611 133.10141 
C 145.550662 133.774853 145.238817 134.434194 144.895202 135.077053 
L 144.895202 135.077053 
C 145.238817 134.434194 145.550662 133.774853 145.829611 133.10141 
C 146.10856 132.427967 146.354277 131.741235 146.565874 131.043693 
z
" clip-path="url(#p3b62a5a583)" style="fill: #828282"/>
   </g>
   <g id="patch_110">
    <path d="M 129.760651 126.987467 
C 129.68182 127.134948 129.595796 127.278471 129.502889 127.417516 
C 129.409982 127.556561 129.310305 127.69096 129.204217 127.820229 
L 129.204217 127.820229 
C 129.310305 127.69096 129.409982 127.556561 129.502889 127.417516 
C 129.595796 127.278471 129.68182 127.134948 129.760651 126.987467 
z
" clip-path="url(#p3b62a5a583)" style="fill: #828282"/>
   </g>
   <g id="patch_111">
    <path d="M 144.602741 140.457471 
C 144.083017 141.090757 143.532514 141.698144 142.953219 142.277438 
C 142.373925 142.856732 141.766538 143.407236 141.133253 143.92696 
L 141.133253 143.92696 
C 141.766538 143.407236 142.373925 142.856732 142.953219 142.277438 
C 143.532514 141.698144 144.083017 141.090757 144.602741 140.457471 
z
" clip-path="url(#p3b62a5a583)" style="fill: #828282"/>
   </g>
   <g id="patch_112">
    <path d="M 136.004577 137.677651 
C 135.575841 138.029506 135.130088 138.360099 134.668928 138.668236 
C 134.207769 138.976373 133.731758 139.261682 133.242616 139.523134 
L 133.242616 139.523134 
C 133.731758 139.261682 134.207769 138.976373 134.668928 138.668236 
C 135.130088 138.360099 135.575841 138.029506 136.004577 137.677651 
z
" clip-path="url(#p3b62a5a583)" style="fill: #828282"/>
   </g>
   <g id="patch_113">
    <path d="M 127.663248 129.08487 
C 127.515766 129.1637 127.364503 129.235242 127.210004 129.299238 
C 127.055506 129.363233 126.897959 129.419604 126.737932 129.468148 
L 126.737932 129.468148 
C 126.897959 129.419604 127.055506 129.363233 127.210004 129.299238 
C 127.364503 129.235242 127.515766 129.1637 127.663248 129.08487 
z
" clip-path="url(#p3b62a5a583)" style="fill: #828282"/>
   </g>
   <g id="patch_114">
    <path d="M 128.571129 135.51139 
C 128.213298 135.619937 127.850353 135.71085 127.483605 135.783801 
C 127.116857 135.856752 126.746749 135.911652 126.374616 135.948304 
L 126.374616 135.948304 
C 126.746749 135.911652 127.116857 135.856752 127.483605 135.783801 
C 127.850353 135.71085 128.213298 135.619937 128.571129 135.51139 
z
" clip-path="url(#p3b62a5a583)" style="fill: #828282"/>
   </g>
   <g id="patch_115">
    <path d="M 126.481493 137.033442 
C 126.073843 137.073593 125.664467 137.093704 125.254844 137.093704 
C 124.845221 137.093704 124.435845 137.073593 124.028194 137.033442 
L 124.028194 137.033442 
C 124.435845 137.073593 124.845221 137.093704 125.254844 137.093704 
C 125.664467 137.093704 126.073843 137.073593 126.481493 137.033442 
z
" clip-path="url(#p3b62a5a583)" style="fill: #828282"/>
   </g>
   <g id="patch_116">
    <path d="M 121.858405 159.063679 
C 120.729672 158.952509 119.607078 158.785987 118.494677 158.564717 
C 117.382276 158.343447 116.281409 158.067694 115.196052 157.738455 
L 115.087305 158.096945 
C 116.184396 158.429744 117.297164 158.708478 118.421592 158.93214 
C 119.546019 159.155803 120.68075 159.324124 121.821686 159.436497 
z
" clip-path="url(#p3b62a5a583)" style="fill: #828282"/>
   </g>
   <g id="patch_117">
    <path d="M 118.622273 146.443718 
C 117.90661 146.226624 117.202037 145.974524 116.5111 145.688328 
C 115.820162 145.402132 115.143692 145.082186 114.484133 144.729645 
L 114.484133 144.729645 
C 115.143692 145.082186 115.820162 145.402132 116.5111 145.688328 
C 117.202037 145.974524 117.90661 146.226624 118.622273 146.443718 
z
" clip-path="url(#p3b62a5a583)" style="fill: #828282"/>
   </g>
   <g id="patch_118">
    <path d="M 116.571219 140.824981 
C 116.039466 140.540753 115.521988 140.230589 115.020655 139.895609 
C 114.519321 139.560628 114.034737 139.201236 113.568651 138.818729 
L 107.208792 146.568241 
C 107.92853 147.158915 108.676836 147.713896 109.451005 148.231179 
C 110.225174 148.748462 111.024273 149.227424 111.845417 149.666335 
z
" clip-path="url(#p3b62a5a583)" style="fill: #828282"/>
   </g>
   <g id="patch_119">
    <path d="M 113.127509 139.356263 
C 112.643829 138.959317 112.179929 138.538863 111.737486 138.09642 
C 111.295043 137.653977 110.874589 137.190077 110.477643 136.706398 
L 109.457352 137.543729 
C 109.881705 138.060805 110.331189 138.556734 110.804181 139.029726 
C 111.277172 139.502717 111.773102 139.952202 112.290177 140.376554 
z
" clip-path="url(#p3b62a5a583)" style="fill: #828282"/>
   </g>
   <g id="patch_120">
    <path d="M 96.232998 148.396676 
C 95.453412 147.446747 94.720935 146.459116 94.038212 145.437349 
C 93.355489 144.415582 92.723343 143.360911 92.144059 142.277146 
L 90.939639 142.920922 
C 91.539995 144.044109 92.195135 145.137145 92.902693 146.196079 
C 93.61025 147.255013 94.369371 148.27857 95.177315 149.263052 
z
" clip-path="url(#p3b62a5a583)" style="fill: #828282"/>
   </g>
   <g id="patch_121">
    <path d="M 96.403601 140.000373 
C 95.898838 139.056029 95.440745 138.087471 95.030975 137.098199 
C 94.621205 136.108927 94.260252 135.100132 93.949421 134.075459 
L 87.701064 135.970877 
C 88.073935 137.200068 88.506932 138.410212 88.998489 139.596936 
C 89.490047 140.783661 90.039573 141.945536 90.645082 143.078365 
z
" clip-path="url(#p3b62a5a583)" style="fill: #828282"/>
   </g>
   <g id="patch_122">
    <path d="M 86.142159 136.443766 
C 85.753809 135.163549 85.428549 133.865037 85.167553 132.55292 
C 84.906556 131.240804 84.710139 129.916663 84.579009 128.585283 
L 71.68653 129.855081 
C 71.859222 131.608452 72.117896 133.352287 72.461616 135.080288 
C 72.805337 136.80829 73.233691 138.518373 73.74513 140.204363 
z
" clip-path="url(#p3b62a5a583)" style="fill: #828282"/>
   </g>
   <g id="patch_123">
    <path d="M 60.141738 130.992144 
C 59.931828 128.860894 59.826684 126.720624 59.826684 124.579062 
C 59.826684 122.437501 59.931828 120.297231 60.141738 118.165981 
L 57.229147 117.879116 
C 57.009847 120.105699 56.899999 122.341706 56.899999 124.579062 
C 56.899999 126.816419 57.009847 129.052426 57.229147 131.279009 
z
" clip-path="url(#p3b62a5a583)" style="fill: #828282"/>
   </g>
   <g id="patch_124">
    <path d="M 57.419429 117.897857 
C 57.638114 115.677503 57.965682 113.469224 58.400947 111.280996 
C 58.836213 109.092768 59.378652 106.927229 60.026306 104.792202 
L 58.75609 104.406886 
C 58.095824 106.583489 57.542822 108.791198 57.09908 111.022038 
C 56.655339 113.252878 56.321392 115.50416 56.098448 117.767752 
z
" clip-path="url(#p3b62a5a583)" style="fill: #828282"/>
   </g>
   <g id="patch_125">
    <path d="M 64.386218 106.114767 
C 64.990582 104.122446 65.6924 102.160998 66.489135 100.237509 
C 67.28587 98.31402 68.176564 96.430807 69.157997 94.594673 
L 65.819166 92.810031 
C 64.779318 94.755449 63.835611 96.750749 62.991455 98.788722 
C 62.147299 100.826696 61.40371 102.904887 60.763375 105.015789 
z
" clip-path="url(#p3b62a5a583)" style="fill: #828282"/>
   </g>
   <g id="patch_126">
    <path d="M 53.869434 86.422766 
C 55.118346 84.086215 56.481224 81.81239 57.953145 79.609505 
C 59.425066 77.40662 61.004255 75.27733 62.685008 73.229326 
L 62.685008 73.229326 
C 61.004255 75.27733 59.425066 77.40662 57.953145 79.609505 
C 56.481224 81.81239 55.118346 84.086215 53.869434 86.422766 
z
" clip-path="url(#p3b62a5a583)" style="fill: #828282"/>
   </g>
   <g id="patch_127">
    <path d="M 57.422135 68.910197 
C 59.24426 66.689931 61.174296 64.560465 63.205271 62.52949 
C 65.236246 60.498515 67.365713 58.568479 69.585979 56.746354 
L 69.585979 56.746354 
C 67.365713 58.568479 65.236246 60.498515 63.205271 62.52949 
C 61.174296 64.560465 59.24426 66.689931 57.422135 68.910197 
z
" clip-path="url(#p3b62a5a583)" style="fill: #828282"/>
   </g>
   <g id="patch_128">
    <path d="M 63.843502 49.749126 
C 66.292798 47.739041 68.839307 45.850422 71.473831 44.090089 
C 74.108355 42.329756 76.827719 40.699832 79.6221 39.206204 
L 79.6221 39.206204 
C 76.827719 40.699832 74.108355 42.329756 71.473831 44.090089 
C 68.839307 45.850422 66.292798 47.739041 63.843502 49.749126 
z
" clip-path="url(#p3b62a5a583)" style="fill: #828282"/>
   </g>
   <g id="patch_129">
    <path d="M 72.986371 26.791628 
C 76.1871 25.080803 79.469896 23.528156 82.822903 22.139295 
C 86.175909 20.750434 89.595084 19.527034 93.068077 18.473513 
L 93.068077 18.473513 
C 89.595084 19.527034 86.175909 20.750434 82.822903 22.139295 
C 79.469896 23.528156 76.1871 25.080803 72.986371 26.791628 
z
" clip-path="url(#p3b62a5a583)" style="fill: #828282"/>
   </g>
   <g id="patch_130">
    <path d="M 101.946288 47.74105 
C 104.46131 46.978126 107.012275 46.339143 109.589967 45.826408 
C 112.167659 45.313673 114.768971 44.927805 117.384507 44.670197 
L 117.384507 44.670197 
C 114.768971 44.927805 112.167659 45.313673 109.589967 45.826408 
C 107.012275 46.339143 104.46131 46.978126 101.946288 47.74105 
z
" clip-path="url(#p3b62a5a583)" style="fill: #828282"/>
   </g>
   <g id="patch_131">
    <path d="M 125.254844 124.579063 
C 125.254844 124.579063 125.254844 124.579063 125.254844 124.579063 
C 125.254844 124.579063 125.254844 124.579063 125.254844 124.579063 
L 132.31918 52.853655 
C 129.9715 52.622429 127.613883 52.506606 125.254844 52.506606 
C 122.895805 52.506606 120.538187 52.622429 118.190508 52.853655 
L 125.254844 124.579063 
z
" clip-path="url(#p3b62a5a583)" style="fill: none; stroke: #292929; stroke-width: 0.5; stroke-linejoin: miter"/>
   </g>
   <g id="patch_132">
    <path d="M 125.254844 124.579063 
C 125.254844 124.579063 125.254844 124.579063 125.254844 124.579063 
C 125.254844 124.579063 125.254844 124.579063 125.254844 124.579063 
L 139.402601 77.940158 
C 137.87604 77.477081 136.327663 77.089233 134.763063 76.778014 
C 133.198464 76.466796 131.619527 76.232583 130.031957 76.076221 
L 125.254844 124.579063 
z
" clip-path="url(#p3b62a5a583)" style="fill: none; stroke: #292929; stroke-width: 0.5; stroke-linejoin: miter"/>
   </g>
   <g id="patch_133">
    <path d="M 125.254844 124.579063 
C 125.254844 124.579063 125.254844 124.579063 125.254844 124.579063 
C 125.254844 124.579063 125.254844 124.579063 125.254844 124.579063 
L 153.853058 71.075567 
C 152.101808 70.139505 150.305657 69.289988 148.47109 68.530086 
C 146.636523 67.770184 144.765753 67.100811 142.865537 66.524387 
L 125.254844 124.579063 
z
" clip-path="url(#p3b62a5a583)" style="fill: none; stroke: #292929; stroke-width: 0.5; stroke-linejoin: miter"/>
   </g>
   <g id="patch_134">
    <path d="M 125.254844 124.579063 
C 125.254844 124.579063 125.254844 124.579063 125.254844 124.579063 
C 125.254844 124.579063 125.254844 124.579063 125.254844 124.579063 
L 164.950866 76.209319 
C 163.367652 74.910009 161.7216 73.689214 160.018655 72.551342 
C 158.31571 71.413471 156.557925 70.359895 154.751649 69.394421 
L 125.254844 124.579063 
z
" clip-path="url(#p3b62a5a583)" style="fill: none; stroke: #292929; stroke-width: 0.5; stroke-linejoin: miter"/>
   </g>
   <g id="patch_135">
    <path d="M 125.254844 124.579063 
C 125.254844 124.579063 125.254844 124.579063 125.254844 124.579063 
C 125.254844 124.579063 125.254844 124.579063 125.254844 124.579063 
L 163.950638 92.822245 
C 162.91119 91.555674 161.810183 90.3409 160.651595 89.182311 
C 159.493006 88.023723 158.278233 86.922716 157.011662 85.883268 
L 125.254844 124.579063 
z
" clip-path="url(#p3b62a5a583)" style="fill: none; stroke: #292929; stroke-width: 0.5; stroke-linejoin: miter"/>
   </g>
   <g id="patch_136">
    <path d="M 125.254844 124.579063 
C 125.254844 124.579063 125.254844 124.579063 125.254844 124.579063 
C 125.254844 124.579063 125.254844 124.579063 125.254844 124.579063 
L 143.278072 114.945446 
C 142.96275 114.355519 142.618653 113.781429 142.247026 113.225249 
C 141.875399 112.66907 141.476689 112.131471 141.052336 111.614396 
L 125.254844 124.579063 
z
" clip-path="url(#p3b62a5a583)" style="fill: none; stroke: #292929; stroke-width: 0.5; stroke-linejoin: miter"/>
   </g>
   <g id="patch_137">
    <path d="M 125.254844 124.579063 
C 125.254844 124.579063 125.254844 124.579063 125.254844 124.579063 
C 125.254844 124.579063 125.254844 124.579063 125.254844 124.579063 
L 168.434079 111.480785 
C 168.005353 110.067464 167.507495 108.676044 166.942303 107.311551 
C 166.377112 105.947059 165.745268 104.611137 165.049055 103.308614 
L 125.254844 124.579063 
z
" clip-path="url(#p3b62a5a583)" style="fill: none; stroke: #292929; stroke-width: 0.5; stroke-linejoin: miter"/>
   </g>
   <g id="patch_138">
    <path d="M 125.254844 124.579063 
C 125.254844 124.579063 125.254844 124.579063 125.254844 124.579063 
C 125.254844 124.579063 125.254844 124.579063 125.254844 124.579063 
L 144.946948 122.63956 
C 144.883465 121.995008 144.788374 121.353961 144.66202 120.718735 
C 144.535666 120.083509 144.3782 119.45487 144.190191 118.835088 
L 125.254844 124.579063 
z
" clip-path="url(#p3b62a5a583)" style="fill: none; stroke: #292929; stroke-width: 0.5; stroke-linejoin: miter"/>
   </g>
   <g id="patch_139">
    <path d="M 125.254844 124.579063 
C 125.254844 124.579063 125.254844 124.579063 125.254844 124.579063 
C 125.254844 124.579063 125.254844 124.579063 125.254844 124.579063 
L 140.508282 126.081395 
C 140.557455 125.582127 140.582087 125.080746 140.582087 124.579063 
C 140.582087 124.077379 140.557455 123.575998 140.508282 123.07673 
L 125.254844 124.579063 
z
" clip-path="url(#p3b62a5a583)" style="fill: none; stroke: #292929; stroke-width: 0.5; stroke-linejoin: miter"/>
   </g>
   <g id="patch_140">
    <path d="M 125.254844 124.579063 
C 125.254844 124.579063 125.254844 124.579063 125.254844 124.579063 
C 125.254844 124.579063 125.254844 124.579063 125.254844 124.579063 
L 145.41306 130.693991 
C 145.613211 130.034182 145.780846 129.364944 145.915361 128.688695 
C 146.049875 128.012445 146.151106 127.329999 146.218689 126.643821 
L 125.254844 124.579063 
z
" clip-path="url(#p3b62a5a583)" style="fill: none; stroke: #292929; stroke-width: 0.5; stroke-linejoin: miter"/>
   </g>
   <g id="patch_141">
    <path d="M 125.254844 124.579063 
C 125.254844 124.579063 125.254844 124.579063 125.254844 124.579063 
C 125.254844 124.579063 125.254844 124.579063 125.254844 124.579063 
L 144.895202 135.077053 
C 145.238817 134.434194 145.550662 133.774853 145.829611 133.10141 
C 146.10856 132.427967 146.354277 131.741235 146.565874 131.043693 
L 125.254844 124.579063 
z
" clip-path="url(#p3b62a5a583)" style="fill: none; stroke: #292929; stroke-width: 0.5; stroke-linejoin: miter"/>
   </g>
   <g id="patch_142">
    <path d="M 125.254844 124.579063 
C 125.254844 124.579063 125.254844 124.579063 125.254844 124.579063 
C 125.254844 124.579063 125.254844 124.579063 125.254844 124.579063 
L 129.204217 127.820229 
C 129.310305 127.69096 129.409982 127.556561 129.502889 127.417516 
C 129.595796 127.278471 129.68182 127.134948 129.760651 126.987467 
L 125.254844 124.579063 
z
" clip-path="url(#p3b62a5a583)" style="fill: none; stroke: #292929; stroke-width: 0.5; stroke-linejoin: miter"/>
   </g>
   <g id="patch_143">
    <path d="M 125.254844 124.579063 
C 125.254844 124.579063 125.254844 124.579063 125.254844 124.579063 
C 125.254844 124.579063 125.254844 124.579063 125.254844 124.579063 
L 141.133253 143.92696 
C 141.766538 143.407236 142.373925 142.856732 142.953219 142.277438 
C 143.532514 141.698144 144.083017 141.090757 144.602741 140.457471 
L 125.254844 124.579063 
z
" clip-path="url(#p3b62a5a583)" style="fill: none; stroke: #292929; stroke-width: 0.5; stroke-linejoin: miter"/>
   </g>
   <g id="patch_144">
    <path d="M 125.254844 124.579063 
C 125.254844 124.579063 125.254844 124.579063 125.254844 124.579063 
C 125.254844 124.579063 125.254844 124.579063 125.254844 124.579063 
L 133.242616 139.523134 
C 133.731758 139.261682 134.207769 138.976373 134.668928 138.668236 
C 135.130088 138.360099 135.575841 138.029506 136.004577 137.677651 
L 125.254844 124.579063 
z
" clip-path="url(#p3b62a5a583)" style="fill: none; stroke: #292929; stroke-width: 0.5; stroke-linejoin: miter"/>
   </g>
   <g id="patch_145">
    <path d="M 125.254844 124.579063 
C 125.254844 124.579063 125.254844 124.579063 125.254844 124.579063 
C 125.254844 124.579063 125.254844 124.579063 125.254844 124.579063 
L 126.737932 129.468148 
C 126.897959 129.419604 127.055506 129.363233 127.210004 129.299238 
C 127.364503 129.235242 127.515766 129.1637 127.663248 129.08487 
L 125.254844 124.579063 
z
" clip-path="url(#p3b62a5a583)" style="fill: none; stroke: #292929; stroke-width: 0.5; stroke-linejoin: miter"/>
   </g>
   <g id="patch_146">
    <path d="M 125.254844 124.579063 
C 125.254844 124.579063 125.254844 124.579063 125.254844 124.579063 
C 125.254844 124.579063 125.254844 124.579063 125.254844 124.579063 
L 126.374616 135.948304 
C 126.746749 135.911652 127.116857 135.856752 127.483605 135.783801 
C 127.850353 135.71085 128.213298 135.619937 128.571129 135.51139 
L 125.254844 124.579063 
z
" clip-path="url(#p3b62a5a583)" style="fill: none; stroke: #292929; stroke-width: 0.5; stroke-linejoin: miter"/>
   </g>
   <g id="patch_147">
    <path d="M 125.254844 124.579063 
C 125.254844 124.579063 125.254844 124.579063 125.254844 124.579063 
C 125.254844 124.579063 125.254844 124.579063 125.254844 124.579063 
L 124.028194 137.033442 
C 124.435845 137.073593 124.845221 137.093704 125.254844 137.093704 
C 125.664467 137.093704 126.073843 137.073593 126.481493 137.033442 
L 125.254844 124.579063 
z
" clip-path="url(#p3b62a5a583)" style="fill: none; stroke: #292929; stroke-width: 0.5; stroke-linejoin: miter"/>
   </g>
   <g id="patch_148">
    <path d="M 125.254844 124.579063 
C 125.254844 124.579063 125.254844 124.579063 125.254844 124.579063 
C 125.254844 124.579063 125.254844 124.579063 125.254844 124.579063 
L 115.087305 158.096945 
C 116.184396 158.429744 117.297164 158.708478 118.421592 158.93214 
C 119.546019 159.155803 120.68075 159.324124 121.821686 159.436497 
L 125.254844 124.579063 
z
" clip-path="url(#p3b62a5a583)" style="fill: none; stroke: #292929; stroke-width: 0.5; stroke-linejoin: miter"/>
   </g>
   <g id="patch_149">
    <path d="M 125.254844 124.579063 
C 125.254844 124.579063 125.254844 124.579063 125.254844 124.579063 
C 125.254844 124.579063 125.254844 124.579063 125.254844 124.579063 
L 114.484133 144.729645 
C 115.143692 145.082186 115.820162 145.402132 116.5111 145.688328 
C 117.202037 145.974524 117.90661 146.226624 118.622273 146.443718 
L 125.254844 124.579063 
z
" clip-path="url(#p3b62a5a583)" style="fill: none; stroke: #292929; stroke-width: 0.5; stroke-linejoin: miter"/>
   </g>
   <g id="patch_150">
    <path d="M 125.254844 124.579063 
C 125.254844 124.579063 125.254844 124.579063 125.254844 124.579063 
C 125.254844 124.579063 125.254844 124.579063 125.254844 124.579063 
L 107.208792 146.568241 
C 107.92853 147.158915 108.676836 147.713896 109.451005 148.231179 
C 110.225174 148.748462 111.024273 149.227424 111.845417 149.666335 
L 125.254844 124.579063 
z
" clip-path="url(#p3b62a5a583)" style="fill: none; stroke: #292929; stroke-width: 0.5; stroke-linejoin: miter"/>
   </g>
   <g id="patch_151">
    <path d="M 125.254844 124.579063 
C 125.254844 124.579063 125.254844 124.579063 125.254844 124.579063 
C 125.254844 124.579063 125.254844 124.579063 125.254844 124.579063 
L 109.457352 137.543729 
C 109.881705 138.060805 110.331189 138.556734 110.804181 139.029726 
C 111.277172 139.502717 111.773102 139.952202 112.290177 140.376554 
L 125.254844 124.579063 
z
" clip-path="url(#p3b62a5a583)" style="fill: none; stroke: #292929; stroke-width: 0.5; stroke-linejoin: miter"/>
   </g>
   <g id="patch_152">
    <path d="M 125.254844 124.579063 
C 125.254844 124.579063 125.254844 124.579063 125.254844 124.579063 
C 125.254844 124.579063 125.254844 124.579063 125.254844 124.579063 
L 90.939639 142.920922 
C 91.539995 144.044109 92.195135 145.137145 92.902693 146.196079 
C 93.61025 147.255013 94.369371 148.27857 95.177315 149.263052 
L 125.254844 124.579063 
z
" clip-path="url(#p3b62a5a583)" style="fill: none; stroke: #292929; stroke-width: 0.5; stroke-linejoin: miter"/>
   </g>
   <g id="patch_153">
    <path d="M 125.254844 124.579063 
C 125.254844 124.579063 125.254844 124.579063 125.254844 124.579063 
C 125.254844 124.579063 125.254844 124.579063 125.254844 124.579063 
L 87.701064 135.970877 
C 88.073935 137.200068 88.506932 138.410212 88.998489 139.596936 
C 89.490047 140.783661 90.039573 141.945536 90.645082 143.078365 
L 125.254844 124.579063 
z
" clip-path="url(#p3b62a5a583)" style="fill: none; stroke: #292929; stroke-width: 0.5; stroke-linejoin: miter"/>
   </g>
   <g id="patch_154">
    <path d="M 125.254844 124.579063 
C 125.254844 124.579063 125.254844 124.579063 125.254844 124.579063 
C 125.254844 124.579063 125.254844 124.579063 125.254844 124.579063 
L 71.68653 129.855081 
C 71.859222 131.608452 72.117896 133.352287 72.461616 135.080288 
C 72.805337 136.80829 73.233691 138.518373 73.74513 140.204363 
L 125.254844 124.579063 
z
" clip-path="url(#p3b62a5a583)" style="fill: none; stroke: #292929; stroke-width: 0.5; stroke-linejoin: miter"/>
   </g>
   <g id="patch_155">
    <path d="M 125.254844 124.579063 
C 125.254844 124.579063 125.254844 124.579063 125.254844 124.579063 
C 125.254844 124.579063 125.254844 124.579063 125.254844 124.579063 
L 57.229147 117.879116 
C 57.009847 120.105699 56.899999 122.341706 56.899999 124.579062 
C 56.899999 126.816419 57.009847 129.052426 57.229147 131.279009 
L 125.254844 124.579063 
z
" clip-path="url(#p3b62a5a583)" style="fill: none; stroke: #292929; stroke-width: 0.5; stroke-linejoin: miter"/>
   </g>
   <g id="patch_156">
    <path d="M 125.254844 124.579063 
C 125.254844 124.579063 125.254844 124.579063 125.254844 124.579063 
C 125.254844 124.579063 125.254844 124.579063 125.254844 124.579063 
L 58.75609 104.406886 
C 58.095824 106.583489 57.542822 108.791198 57.09908 111.022038 
C 56.655339 113.252878 56.321392 115.50416 56.098448 117.767752 
L 125.254844 124.579063 
z
" clip-path="url(#p3b62a5a583)" style="fill: none; stroke: #292929; stroke-width: 0.5; stroke-linejoin: miter"/>
   </g>
   <g id="patch_157">
    <path d="M 125.254844 124.579063 
C 125.254844 124.579063 125.254844 124.579063 125.254844 124.579063 
C 125.254844 124.579063 125.254844 124.579063 125.254844 124.579063 
L 65.819166 92.810031 
C 64.779318 94.755449 63.835611 96.750749 62.991455 98.788722 
C 62.147299 100.826696 61.40371 102.904887 60.763375 105.015789 
L 125.254844 124.579063 
z
" clip-path="url(#p3b62a5a583)" style="fill: none; stroke: #292929; stroke-width: 0.5; stroke-linejoin: miter"/>
   </g>
   <g id="patch_158">
    <path d="M 125.254844 124.579063 
C 125.254844 124.579063 125.254844 124.579063 125.254844 124.579063 
C 125.254844 124.579063 125.254844 124.579063 125.254844 124.579063 
L 62.685008 73.229326 
C 61.004255 75.27733 59.425066 77.40662 57.953145 79.609505 
C 56.481224 81.81239 55.118346 84.086215 53.869434 86.422766 
L 125.254844 124.579063 
z
" clip-path="url(#p3b62a5a583)" style="fill: none; stroke: #292929; stroke-width: 0.5; stroke-linejoin: miter"/>
   </g>
   <g id="patch_159">
    <path d="M 125.254844 124.579063 
C 125.254844 124.579063 125.254844 124.579063 125.254844 124.579063 
C 125.254844 124.579063 125.254844 124.579063 125.254844 124.579063 
L 69.585979 56.746354 
C 67.365713 58.568479 65.236246 60.498515 63.205271 62.52949 
C 61.174296 64.560465 59.24426 66.689931 57.422135 68.910197 
L 125.254844 124.579063 
z
" clip-path="url(#p3b62a5a583)" style="fill: none; stroke: #292929; stroke-width: 0.5; stroke-linejoin: miter"/>
   </g>
   <g id="patch_160">
    <path d="M 125.254844 124.579063 
C 125.254844 124.579063 125.254844 124.579063 125.254844 124.579063 
C 125.254844 124.579063 125.254844 124.579063 125.254844 124.579063 
L 79.6221 39.206204 
C 76.827719 40.699832 74.108355 42.329756 71.473831 44.090089 
C 68.839307 45.850422 66.292798 47.739041 63.843502 49.749126 
L 125.254844 124.579063 
z
" clip-path="url(#p3b62a5a583)" style="fill: none; stroke: #292929; stroke-width: 0.5; stroke-linejoin: miter"/>
   </g>
   <g id="patch_161">
    <path d="M 125.254844 124.579063 
C 125.254844 124.579063 125.254844 124.579063 125.254844 124.579063 
C 125.254844 124.579063 125.254844 124.579063 125.254844 124.579063 
L 93.068077 18.473513 
C 89.595084 19.527034 86.175909 20.750434 82.822903 22.139295 
C 79.469896 23.528156 76.1871 25.080803 72.986371 26.791628 
L 125.254844 124.579063 
z
" clip-path="url(#p3b62a5a583)" style="fill: none; stroke: #292929; stroke-width: 0.5; stroke-linejoin: miter"/>
   </g>
   <g id="patch_162">
    <path d="M 125.254844 124.579063 
C 125.254844 124.579063 125.254844 124.579063 125.254844 124.579063 
C 125.254844 124.579063 125.254844 124.579063 125.254844 124.579063 
L 117.384507 44.670197 
C 114.768971 44.927805 112.167659 45.313673 109.589967 45.826408 
C 107.012275 46.339143 104.46131 46.978126 101.946288 47.74105 
L 125.254844 124.579063 
z
" clip-path="url(#p3b62a5a583)" style="fill: none; stroke: #292929; stroke-width: 0.5; stroke-linejoin: miter"/>
   </g>
   <g id="PathCollection_1">
    <defs>
     <path id="mc428f503da" d="M 0.193618 7.414054 
L 0.193618 7.414054 
C 0.054922 7.414054 -0.078235 7.358899 -0.176308 7.260826 
C -0.274381 7.162753 -0.329536 7.029596 -0.329536 6.890901 
L -0.329536 5.365008 
L -1.528416 6.56393 
L -1.528416 6.56393 
C -1.577018 6.612704 -1.634775 6.651408 -1.698366 6.677814 
C -1.761958 6.704221 -1.830141 6.717815 -1.898997 6.717815 
C -1.967853 6.717815 -2.036037 6.704221 -2.099628 6.677814 
C -2.163219 6.651408 -2.220976 6.612704 -2.269578 6.56393 
L -2.269578 6.56393 
C -2.318353 6.515327 -2.357056 6.457571 -2.383463 6.393979 
C -2.409869 6.330388 -2.423463 6.262205 -2.423463 6.193348 
C -2.423463 6.124492 -2.409869 6.056309 -2.383463 5.992718 
C -2.357056 5.929126 -2.318353 5.87137 -2.269578 5.822767 
L -0.329536 3.884106 
L -0.329536 0.820937 
L -2.98067 2.351538 
L -3.691824 5.001416 
L -3.691824 5.001416 
C -3.727584 5.135411 -3.815199 5.249836 -3.93523 5.319305 
C -4.055261 5.388775 -4.198123 5.407741 -4.332122 5.371997 
L -4.332122 5.371997 
C -4.466126 5.336237 -4.580558 5.248616 -4.650029 5.128576 
C -4.719499 5.008535 -4.73846 4.865662 -4.702703 4.731657 
L -4.262647 3.092721 
L -5.585535 3.855668 
L -5.585535 3.855668 
C -5.645013 3.890144 -5.710708 3.912561 -5.778854 3.921634 
C -5.847001 3.930706 -5.916272 3.926258 -5.982698 3.908543 
C -6.049125 3.890828 -6.111412 3.860192 -6.165991 3.818391 
C -6.220571 3.77659 -6.266379 3.724437 -6.300791 3.664922 
L -6.300791 3.664922 
C -6.335212 3.605364 -6.35755 3.539597 -6.366524 3.471396 
C -6.375498 3.403194 -6.370933 3.333888 -6.35309 3.267452 
C -6.335248 3.201017 -6.304476 3.138749 -6.26254 3.08422 
C -6.220605 3.029692 -6.168323 2.983966 -6.108695 2.949666 
L -4.785807 2.186762 
L -6.424743 1.746706 
L -6.424743 1.746706 
C -6.558747 1.710946 -6.673179 1.623325 -6.74265 1.503284 
C -6.81212 1.383244 -6.831081 1.240371 -6.795324 1.106366 
L -6.795324 1.106366 
C -6.777471 1.039969 -6.746703 0.977739 -6.704784 0.923241 
C -6.662864 0.868744 -6.61061 0.823041 -6.551015 0.788752 
C -6.491421 0.754464 -6.425647 0.732257 -6.357465 0.723406 
C -6.289282 0.714554 -6.220019 0.71923 -6.153645 0.737166 
L -3.505232 1.44698 
L -0.852424 -0.08496 
L -3.503767 -1.615666 
L -6.153645 -0.905851 
L -6.153645 -0.905851 
C -6.22011 -0.887939 -6.289462 -0.883321 -6.357716 -0.892262 
C -6.42597 -0.901202 -6.491793 -0.923527 -6.551403 -0.957953 
C -6.611013 -0.992379 -6.663247 -1.038234 -6.705103 -1.092883 
C -6.746958 -1.147533 -6.777619 -1.209911 -6.795324 -1.276432 
L -6.795324 -1.276432 
C -6.831068 -1.410431 -6.812101 -1.553293 -6.742632 -1.673324 
C -6.673162 -1.793355 -6.558738 -1.88097 -6.424743 -1.91673 
L -4.785807 -2.355447 
L -6.108695 -3.119732 
L -6.108695 -3.119732 
C -6.228699 -3.188976 -6.316415 -3.303132 -6.352417 -3.436921 
C -6.388419 -3.57071 -6.369839 -3.713469 -6.300791 -3.833586 
L -6.300791 -3.833586 
C -6.266491 -3.893214 -6.220765 -3.945496 -6.166237 -3.987431 
C -6.111708 -4.029367 -6.04944 -4.060139 -5.983005 -4.077981 
C -5.91657 -4.095823 -5.847263 -4.100389 -5.779062 -4.091415 
C -5.71086 -4.082441 -5.645094 -4.060102 -5.585535 -4.025682 
L -4.262647 -3.261396 
L -4.702703 -4.900332 
L -4.702703 -4.900332 
C -4.73846 -5.034337 -4.719499 -5.17721 -4.650029 -5.29725 
C -4.580558 -5.417291 -4.466126 -5.504912 -4.332122 -5.540672 
L -4.332122 -5.540672 
C -4.19831 -5.576464 -4.055613 -5.557686 -3.935617 -5.488496 
C -3.81562 -5.419305 -3.727882 -5.305212 -3.691824 -5.171472 
L -2.982009 -2.521594 
L -0.329411 -0.990302 
L -0.329411 -4.051588 
L -2.269453 -5.991589 
L -2.269453 -5.991589 
C -2.318227 -6.040191 -2.356931 -6.097947 -2.383337 -6.161539 
C -2.409744 -6.22513 -2.423338 -6.293314 -2.423338 -6.36217 
C -2.423338 -6.431026 -2.409744 -6.499209 -2.383337 -6.5628 
C -2.356931 -6.626392 -2.318227 -6.684149 -2.269453 -6.732751 
L -2.269453 -6.732751 
C -2.22085 -6.781526 -2.163094 -6.820229 -2.099502 -6.846635 
C -2.035911 -6.873042 -1.967728 -6.886636 -1.898871 -6.886636 
C -1.830015 -6.886636 -1.761832 -6.873042 -1.698241 -6.846635 
C -1.634649 -6.820229 -1.576893 -6.781526 -1.52829 -6.732751 
L -0.329411 -5.533829 
L -0.329411 -7.059722 
L -0.329411 -7.059722 
C -0.329411 -7.198418 -0.274255 -7.331575 -0.176182 -7.429647 
C -0.07811 -7.52772 0.055047 -7.582875 0.193743 -7.582875 
L 0.193743 -7.582875 
C 0.332439 -7.582875 0.465596 -7.52772 0.563669 -7.429647 
C 0.661741 -7.331575 0.716897 -7.198418 0.716897 -7.059722 
L 0.716897 -5.533829 
L 1.915777 -6.732751 
L 1.915777 -6.732751 
C 1.964379 -6.781526 2.022136 -6.820229 2.085727 -6.846635 
C 2.149318 -6.873042 2.217502 -6.886636 2.286358 -6.886636 
C 2.355214 -6.886636 2.423397 -6.873042 2.486989 -6.846635 
C 2.55058 -6.820229 2.608337 -6.781526 2.656939 -6.732751 
L 2.656939 -6.732751 
C 2.705714 -6.684149 2.744417 -6.626392 2.770823 -6.5628 
C 2.79723 -6.499209 2.810824 -6.431026 2.810824 -6.36217 
C 2.810824 -6.293314 2.79723 -6.22513 2.770823 -6.161539 
C 2.744417 -6.097947 2.705714 -6.040191 2.656939 -5.991589 
L 0.716897 -4.051588 
L 0.716897 -0.991139 
L 3.369495 -2.522954 
L 4.07931 -5.171367 
L 4.07931 -5.171367 
C 4.115368 -5.305107 4.203106 -5.4192 4.323103 -5.488391 
C 4.4431 -5.557582 4.585797 -5.576359 4.719608 -5.540567 
L 4.719608 -5.540567 
C 4.853612 -5.504807 4.968045 -5.417186 5.037515 -5.297146 
C 5.106986 -5.177105 5.125946 -5.034232 5.090189 -4.900227 
L 4.650133 -3.262673 
L 5.973022 -4.025577 
L 5.973022 -4.025577 
C 6.03258 -4.059998 6.098346 -4.082336 6.166548 -4.09131 
C 6.234749 -4.100284 6.304056 -4.095719 6.370491 -4.077876 
C 6.436926 -4.060034 6.499194 -4.029262 6.553723 -3.987327 
C 6.608252 -3.945391 6.653978 -3.893109 6.688277 -3.833481 
L 6.688277 -3.833481 
C 6.757325 -3.713365 6.775905 -3.570605 6.739903 -3.436816 
C 6.703901 -3.303027 6.616186 -3.188871 6.496181 -3.119628 
L 5.173293 -2.355342 
L 6.812229 -1.916625 
L 6.812229 -1.916625 
C 6.946224 -1.880865 7.060649 -1.79325 7.130118 -1.67322 
C 7.199588 -1.553189 7.218554 -1.410326 7.18281 -1.276327 
L 7.18281 -1.276327 
C 7.165106 -1.209806 7.134445 -1.147429 7.092589 -1.092779 
C 7.050733 -1.038129 6.998499 -0.992274 6.938889 -0.957848 
C 6.879279 -0.923422 6.813456 -0.901098 6.745202 -0.892157 
C 6.676949 -0.883217 6.607597 -0.887835 6.541131 -0.905746 
L 3.891253 -1.615561 
L 1.239492 -0.084604 
L 3.892718 1.447085 
L 6.541131 0.73727 
L 6.541131 0.73727 
C 6.674948 0.701466 6.817656 0.720237 6.937662 0.789429 
C 7.057669 0.858621 7.145413 0.972721 7.181471 1.10647 
L 7.181471 1.10647 
C 7.217274 1.240293 7.198497 1.383006 7.129297 1.503014 
C 7.060096 1.623021 6.945986 1.710762 6.812229 1.74681 
L 5.173293 2.186866 
L 6.496181 2.949771 
L 6.496181 2.949771 
C 6.555697 2.984183 6.607849 3.029991 6.649651 3.08457 
C 6.691452 3.13915 6.722088 3.201437 6.739803 3.267863 
C 6.757517 3.33429 6.761966 3.403561 6.752893 3.471707 
C 6.743821 3.539854 6.721404 3.605549 6.686927 3.665026 
L 6.686927 3.665026 
C 6.617458 3.784813 6.503196 3.87225 6.369416 3.907994 
C 6.235636 3.943739 6.092989 3.924946 5.973032 3.855772 
L 4.650144 3.091487 
L 5.08886 4.731783 
L 5.08886 4.731783 
C 5.124664 4.865606 5.105887 5.008319 5.036686 5.128326 
C 4.967486 5.248334 4.853376 5.336074 4.719619 5.372123 
L 4.719619 5.372123 
C 4.585619 5.407867 4.442757 5.3889 4.322726 5.319431 
C 4.202695 5.249961 4.115081 5.135537 4.07932 5.001542 
L 3.368166 2.351664 
L 0.717033 0.821063 
L 0.717033 3.884232 
L 2.657075 5.822893 
L 2.657075 5.822893 
C 2.70585 5.871495 2.744553 5.929252 2.770959 5.992843 
C 2.797366 6.056435 2.81096 6.124618 2.81096 6.193474 
C 2.81096 6.26233 2.797366 6.330514 2.770959 6.394105 
C 2.744553 6.457696 2.70585 6.515453 2.657075 6.564055 
L 2.657075 6.564055 
C 2.608473 6.61283 2.550716 6.651533 2.487125 6.67794 
C 2.423533 6.704346 2.35535 6.71794 2.286494 6.71794 
C 2.217638 6.71794 2.149454 6.704346 2.085863 6.67794 
C 2.022272 6.651533 1.964515 6.61283 1.915913 6.564055 
L 0.717033 5.365133 
L 0.717033 6.891026 
L 0.717033 6.891026 
C 0.717033 7.029722 0.661877 7.162879 0.563805 7.260952 
C 0.465732 7.359024 0.332575 7.41418 0.193879 7.41418 
L 0.193618 7.414054 
z
"/>
    </defs>
    <g clip-path="url(#p3b62a5a583)">
     <use xlink:href="#mc428f503da" x="85.178926" y="64.12996" style="fill: #9e2096; fill-opacity: 0.7"/>
    </g>
   </g>
   <g id="patch_163">
    <path d="M 125.254844 13.699063 
C 110.694216 13.699063 96.275171 16.567189 82.822905 22.1393 
C 69.370638 27.711411 57.146763 35.879144 46.850844 46.175063 
C 36.554925 56.470982 28.387192 68.694857 22.815081 82.147124 
C 17.24297 95.59939 14.374844 110.018434 14.374844 124.579063 
C 14.374844 139.139691 17.24297 153.558735 22.815081 167.011001 
C 28.387192 180.463268 36.554925 192.687143 46.850844 202.983062 
C 57.146763 213.278981 69.370638 221.446714 82.822905 227.018825 
C 96.275171 232.590936 110.694216 235.459063 125.254844 235.459063 
C 139.815472 235.459063 154.234516 232.590936 167.686783 227.018825 
C 181.139049 221.446714 193.362925 213.278981 203.658844 202.983062 
C 213.954763 192.687143 222.122495 180.463268 227.694606 167.011001 
C 233.266717 153.558735 236.134844 139.139691 236.134844 124.579063 
C 236.134844 110.018434 233.266717 95.59939 227.694606 82.147124 
C 222.122495 68.694857 213.954763 56.470982 203.658844 46.175063 
C 193.362925 35.879144 181.139049 27.711411 167.686783 22.1393 
C 154.234516 16.567189 139.815472 13.699063 125.254844 13.699063 
" style="fill: none; stroke: #000000; stroke-width: 0.8; stroke-linejoin: miter; stroke-linecap: square"/>
   </g>
  </g>
 </g>
 <defs>
  <clipPath id="p3b62a5a583">
   <path d="M 236.134844 124.579063 
C 236.134844 110.018434 233.266717 95.59939 227.694606 82.147124 
C 222.122495 68.694857 213.954763 56.470982 203.658844 46.175063 
C 193.362925 35.879144 181.139049 27.711411 167.686783 22.1393 
C 154.234516 16.567189 139.815472 13.699063 125.254844 13.699063 
C 110.694216 13.699063 96.275171 16.567189 82.822905 22.1393 
C 69.370638 27.711411 57.146763 35.879144 46.850844 46.175063 
C 36.554925 56.470982 28.387192 68.694857 22.815081 82.147124 
C 17.24297 95.59939 14.374844 110.018434 14.374844 124.579062 
C 14.374844 139.139691 17.24297 153.558735 22.815081 167.011001 
C 28.387192 180.463268 36.554925 192.687143 46.850844 202.983062 
C 57.146763 213.278981 69.370638 221.446714 82.822905 227.018825 
C 96.275171 232.590936 110.694216 235.459063 125.254844 235.459063 
C 139.815472 235.459063 154.234516 232.590936 167.686783 227.018825 
C 181.139049 221.446714 193.362925 213.278981 203.658844 202.983062 
C 213.954763 192.687143 222.122495 180.463268 227.694606 167.011001 
C 233.266717 153.558735 236.134844 139.139691 236.134844 124.579063 
M 125.254844 124.579063 
C 125.254844 124.579063 125.254844 124.579063 125.254844 124.579063 
C 125.254844 124.579063 125.254844 124.579063 125.254844 124.579063 
C 125.254844 124.579063 125.254844 124.579063 125.254844 124.579063 
C 125.254844 124.579063 125.254844 124.579063 125.254844 124.579063 
C 125.254844 124.579063 125.254844 124.579063 125.254844 124.579063 
C 125.254844 124.579063 125.254844 124.579063 125.254844 124.579063 
C 125.254844 124.579063 125.254844 124.579063 125.254844 124.579063 
C 125.254844 124.579063 125.254844 124.579063 125.254844 124.579063 
C 125.254844 124.579063 125.254844 124.579063 125.254844 124.579063 
C 125.254844 124.579063 125.254844 124.579063 125.254844 124.579063 
C 125.254844 124.579063 125.254844 124.579063 125.254844 124.579063 
C 125.254844 124.579063 125.254844 124.579063 125.254844 124.579063 
C 125.254844 124.579063 125.254844 124.579063 125.254844 124.579063 
C 125.254844 124.579063 125.254844 124.579063 125.254844 124.579063 
C 125.254844 124.579063 125.254844 124.579063 125.254844 124.579063 
C 125.254844 124.579063 125.254844 124.579063 125.254844 124.579063 
z
"/>
  </clipPath>
 </defs>
</svg>
