<?xml version="1.0" encoding="utf-8" standalone="no"?>
<!DOCTYPE svg PUBLIC "-//W3C//DTD SVG 1.1//EN"
  "http://www.w3.org/Graphics/SVG/1.1/DTD/svg11.dtd">
<svg xmlns:xlink="http://www.w3.org/1999/xlink" width="248.410469pt" height="249.158125pt" viewBox="0 0 248.410469 249.158125" xmlns="http://www.w3.org/2000/svg" version="1.1">
 <title>Ski Rose for Kappl</title>
 <metadata>
  <rdf:RDF xmlns:dc="http://purl.org/dc/elements/1.1/" xmlns:cc="http://creativecommons.org/ns#" xmlns:rdf="http://www.w3.org/1999/02/22-rdf-syntax-ns#">
   <cc:Work>
    <dc:type rdf:resource="http://purl.org/dc/dcmitype/StillImage"/>
    <dc:title>Ski Rose for Kappl</dc:title>
    <dc:date>2025-07-19T10:38:09.703875</dc:date>
    <dc:description>A 32-bin stacked histogram of downhill ski run orientations colored by difficulty.</dc:description>
    <dc:format>image/svg+xml</dc:format>
    <dc:source>https://openskimap.org/?obj=bc6999f9bfbf693b2408c3192e343aa26f11c81e</dc:source>
    <dc:creator>
     <cc:Agent>
      <dc:title>https://github.com/dhimmel/openskistats</dc:title>
     </cc:Agent>
    </dc:creator>
    <dc:rights>
     <cc:Agent>
      <dc:title>https://creativecommons.org/licenses/by/4.0/</dc:title>
     </cc:Agent>
    </dc:rights>
   </cc:Work>
  </rdf:RDF>
 </metadata>
 <defs>
  <style type="text/css">*{stroke-linejoin: round; stroke-linecap: butt}</style>
 </defs>
 <g id="figure_1">
  <g id="patch_1">
   <path d="M 0 249.158125 
L 248.410469 249.158125 
L 248.410469 0 
L 0 0 
z
" style="fill: #ffffff"/>
  </g>
  <g id="axes_1">
   <g id="patch_2">
    <path d="M 236.134844 124.579063 
C 236.134844 110.018434 233.266717 95.59939 227.694606 82.147124 
C 222.122495 68.694857 213.954763 56.470982 203.658844 46.175063 
C 193.362925 35.879144 181.139049 27.711411 167.686783 22.1393 
C 154.234516 16.567189 139.815472 13.699063 125.254844 13.699063 
C 110.694216 13.699063 96.275171 16.567189 82.822905 22.1393 
C 69.370638 27.711411 57.146763 35.879144 46.850844 46.175063 
C 36.554925 56.470982 28.387192 68.694857 22.815081 82.147124 
C 17.24297 95.59939 14.374844 110.018434 14.374844 124.579062 
C 14.374844 139.139691 17.24297 153.558735 22.815081 167.011001 
C 28.387192 180.463268 36.554925 192.687143 46.850844 202.983062 
C 57.146763 213.278981 69.370638 221.446714 82.822905 227.018825 
C 96.275171 232.590936 110.694216 235.459063 125.254844 235.459063 
C 139.815472 235.459063 154.234516 232.590936 167.686783 227.018825 
C 181.139049 221.446714 193.362925 213.278981 203.658844 202.983062 
C 213.954763 192.687143 222.122495 180.463268 227.694606 167.011001 
C 233.266717 153.558735 236.134844 139.139691 236.134844 124.579063 
M 125.254844 124.579063 
C 125.254844 124.579063 125.254844 124.579063 125.254844 124.579063 
C 125.254844 124.579063 125.254844 124.579063 125.254844 124.579063 
C 125.254844 124.579063 125.254844 124.579063 125.254844 124.579063 
C 125.254844 124.579063 125.254844 124.579063 125.254844 124.579063 
C 125.254844 124.579063 125.254844 124.579063 125.254844 124.579063 
C 125.254844 124.579063 125.254844 124.579063 125.254844 124.579063 
C 125.254844 124.579063 125.254844 124.579063 125.254844 124.579063 
C 125.254844 124.579063 125.254844 124.579063 125.254844 124.579063 
C 125.254844 124.579063 125.254844 124.579063 125.254844 124.579063 
C 125.254844 124.579063 125.254844 124.579063 125.254844 124.579063 
C 125.254844 124.579063 125.254844 124.579063 125.254844 124.579063 
C 125.254844 124.579063 125.254844 124.579063 125.254844 124.579063 
C 125.254844 124.579063 125.254844 124.579063 125.254844 124.579063 
C 125.254844 124.579063 125.254844 124.579063 125.254844 124.579063 
C 125.254844 124.579063 125.254844 124.579063 125.254844 124.579063 
C 125.254844 124.579063 125.254844 124.579063 125.254844 124.579063 
z
" style="fill: #ffffff"/>
   </g>
   <g id="PolyCollection_1">
    <defs>
     <path id="m516724c179" d="M 235.345306 -137.122286 
L 234.805275 -137.060758 
L 233.882801 -135.038745 
L 233.076285 -133.064794 
L 232.012093 -131.108616 
L 231.097319 -129.200245 
L 229.934458 -127.320195 
L 228.936635 -125.48388 
L 227.695766 -123.685074 
L 226.627963 -121.924514 
L 225.528645 -120.201014 
L 224.191996 -118.527807 
L 223.034955 -116.883601 
L 221.644614 -115.297783 
L 220.436596 -113.734472 
L 219.205075 -112.21028 
L 217.746992 -110.756018 
L 216.473645 -109.31427 
L 215.181037 -107.912228 
L 213.87051 -106.550001 
L 212.543399 -105.227656 
L 211.003223 -103.992698 
L 209.648601 -102.753353 
L 208.281475 -101.55374 
L 206.903147 -100.393733 
L 205.514915 -99.273159 
L 204.306216 -98.128843 
L 202.899738 -97.083563 
L 201.487073 -96.077 
L 200.069481 -95.108793 
L 198.826771 -94.104573 
L 197.400311 -93.20932 
L 195.972514 -92.351163 
L 194.714899 -91.448316 
L 193.284962 -90.660497 
L 192.021567 -89.822506 
L 190.755267 -89.015234 
L 189.328396 -88.327991 
L 188.061907 -87.582875 
L 186.79511 -86.867139 
L 185.528812 -86.18031 
L 184.118396 -85.618127 
L 182.858801 -84.98896 
L 181.602072 -84.386975 
L 180.348935 -83.81158 
L 179.100088 -83.262154 
L 177.984169 -82.636263 
L 176.74225 -82.13612 
L 175.506528 -81.66007 
L 174.277603 -81.207389 
L 173.056048 -80.777329 
L 171.952135 -80.264988 
L 170.743065 -79.877912 
L 169.645385 -79.40692 
L 168.450622 -79.06021 
L 167.360813 -78.62846 
L 166.181963 -78.319369 
L 165.101477 -77.924649 
L 163.939915 -77.650318 
L 162.870001 -77.290328 
L 161.804091 -76.947156 
L 160.668561 -76.72017 
L 159.614722 -76.40829 
L 158.565547 -76.111689 
L 157.521218 -75.829889 
L 156.421735 -75.656843 
L 155.390766 -75.401707 
L 154.365016 -75.159797 
L 153.344574 -74.930633 
L 152.329507 -74.713735 
L 151.319863 -74.508627 
L 150.315663 -74.314835 
L 149.316909 -74.131893 
L 148.323581 -73.959338 
L 147.335636 -73.796718 
L 146.35301 -73.643584 
L 145.375617 -73.499503 
L 144.403353 -73.364048 
L 143.436091 -73.236805 
L 142.494496 -73.055173 
L 141.534586 -72.946318 
L 140.579286 -72.844612 
L 139.628399 -72.749696 
L 138.681709 -72.661228 
L 137.750215 -72.532095 
L 136.809554 -72.459133 
L 135.872467 -72.391777 
L 134.93868 -72.329756 
L 134.007906 -72.272823 
L 133.084271 -72.191145 
L 132.157578 -72.14759 
L 131.233103 -72.108558 
L 130.310517 -72.073887 
L 129.390688 -72.028178 
L 128.47036 -72.00584 
L 127.551039 -71.987548 
L 126.632496 -71.968663 
L 125.714023 -71.962324 
L 124.795669 -71.962865 
L 123.877291 -71.972445 
L 122.95858 -71.985966 
L 122.039888 -72.015004 
L 121.119973 -72.040553 
L 120.198817 -72.070222 
L 119.27608 -72.104125 
L 118.354849 -72.168401 
L 117.428992 -72.215066 
L 116.500707 -72.266402 
L 115.57638 -72.358744 
L 114.643727 -72.423758 
L 113.707876 -72.494057 
L 112.76855 -72.569908 
L 111.825488 -72.651596 
L 110.893055 -72.792126 
L 109.943775 -72.889759 
L 108.990172 -72.994115 
L 108.032047 -73.105548 
L 107.069215 -73.224432 
L 106.101513 -73.351153 
L 105.128796 -73.486114 
L 104.181127 -73.702609 
L 103.20067 -73.857935 
L 102.214964 -74.022661 
L 101.223943 -74.197231 
L 100.22756 -74.382097 
L 99.225792 -74.57772 
L 98.218637 -74.784564 
L 97.206114 -75.003101 
L 96.188267 -75.233807 
L 95.108656 -75.384955 
L 94.077172 -75.63992 
L 93.040583 -75.908624 
L 91.999026 -76.191548 
L 90.952657 -76.489171 
L 89.828258 -76.702779 
L 88.76947 -77.030398 
L 87.706454 -77.374268 
L 86.639458 -77.734853 
L 85.481318 -78.010247 
L 84.403786 -78.405342 
L 83.228392 -78.715238 
L 82.141564 -79.147145 
L 80.950278 -79.494409 
L 79.855592 -79.965342 
L 78.650008 -80.352724 
L 77.43603 -80.761193 
L 76.331018 -81.294918 
L 75.105569 -81.747535 
L 73.873313 -82.223397 
L 72.634849 -82.723229 
L 71.521889 -83.348316 
L 70.276468 -83.897204 
L 69.026736 -84.471943 
L 67.773394 -85.073157 
L 66.517162 -85.701439 
L 65.110554 -86.262924 
L 63.847564 -86.948633 
L 62.584048 -87.663143 
L 61.320809 -88.406926 
L 59.897617 -89.092984 
L 58.634501 -89.898707 
L 57.374254 -90.735049 
L 55.947885 -91.521339 
L 54.693344 -92.422334 
L 53.269033 -93.278741 
L 52.02413 -94.245907 
L 50.606259 -95.174203 
L 49.192024 -96.140339 
L 47.78267 -97.144727 
L 46.567164 -98.250533 
L 45.173534 -99.329522 
L 43.788473 -100.447624 
L 42.413268 -101.60506 
L 41.049215 -102.802006 
L 39.697615 -104.038589 
L 38.35978 -105.314891 
L 37.037025 -106.630944 
L 35.528989 -107.949358 
L 34.239186 -109.348265 
L 32.968584 -110.786789 
L 31.718533 -112.264774 
L 30.284706 -113.758582 
L 29.079225 -115.318404 
L 27.898577 -116.916958 
L 26.537073 -118.541225 
L 25.410297 -120.219755 
L 24.105838 -121.930383 
L 23.03995 -123.687047 
L 21.801079 -125.48189 
L 20.804573 -127.314189 
L 19.846243 -129.181301 
L 18.727898 -131.09453 
L 17.859838 -133.031233 
L 16.85222 -135.017048 
L 16.106906 -137.014899 
L 15.131597 -137.126022 
L 15.131597 -137.126022 
L 14.969083 -135.198373 
L 14.730843 -133.27749 
L 14.634175 -131.344912 
L 14.570315 -129.411653 
L 14.431296 -127.481079 
L 14.43291 -125.546191 
L 14.466715 -123.612229 
L 14.42684 -121.676929 
L 14.525088 -119.744497 
L 14.654596 -117.814462 
L 14.814946 -115.887254 
L 14.905894 -113.953667 
L 15.128799 -112.031785 
L 15.381655 -110.113983 
L 15.664229 -108.200635 
L 15.976407 -106.292124 
L 16.318175 -104.388844 
L 16.602506 -102.473495 
L 17.005973 -100.580866 
L 17.439269 -98.694833 
L 17.989632 -96.838392 
L 18.48345 -94.968734 
L 19.007319 -93.107112 
L 19.561377 -91.254041 
L 20.145785 -89.410063 
L 20.76072 -87.575753 
L 21.406386 -85.751715 
L 22.151908 -83.965736 
L 22.858797 -82.165231 
L 23.597674 -80.377267 
L 24.369076 -78.60277 
L 25.253259 -76.880753 
L 26.079969 -75.132294 
L 26.953923 -73.406842 
L 27.863371 -71.699807 
L 28.808873 -70.012558 
L 29.734616 -68.313349 
L 30.715095 -66.64503 
L 31.745565 -65.007082 
L 32.816929 -63.395741 
L 33.885271 -61.782495 
L 34.988117 -60.192432 
L 36.754246 -59.092065 
L 38.574485 -58.066884 
L 40.351071 -57.043552 
L 42.198177 -56.11243 
L 44.055137 -55.227962 
L 45.854577 -54.33164 
L 47.709876 -53.522191 
L 49.509574 -52.699485 
L 51.307669 -51.911376 
L 53.156092 -51.210839 
L 54.945817 -50.488807 
L 56.730765 -49.798152 
L 58.510157 -49.137917 
L 60.283302 -48.507161 
L 62.049582 -47.904949 
L 63.765827 -47.276774 
L 65.518573 -46.729238 
L 67.262972 -46.207546 
L 68.964965 -45.663563 
L 70.693283 -45.191499 
L 72.378321 -44.691351 
L 74.060659 -44.220289 
L 75.763565 -43.816635 
L 77.427562 -43.38445 
L 79.088042 -42.979517 
L 80.738151 -42.589513 
L 82.38434 -42.225592 
L 84.020113 -41.874987 
L 85.651685 -41.549314 
L 87.27294 -41.235382 
L 88.889834 -40.945265 
L 90.496651 -40.665363 
L 92.083429 -40.36852 
L 93.679997 -40.128298 
L 95.267064 -39.896185 
L 96.837876 -39.649698 
L 98.415093 -39.454249 
L 99.97608 -39.239387 
L 101.539551 -39.064481 
L 103.091408 -38.879416 
L 104.646155 -38.737697 
L 106.189515 -38.580921 
L 107.732896 -38.455936 
L 109.268776 -38.32596 
L 110.801578 -38.209752 
L 112.334502 -38.127036 
L 113.861228 -38.035956 
L 115.385611 -37.957918 
L 116.9079 -37.892735 
L 118.428745 -37.845249 
L 119.947425 -37.803539 
L 121.464864 -37.774261 
L 122.981337 -37.757328 
L 124.49715 -37.755912 
L 126.012558 -37.753667 
L 127.528299 -37.759301 
L 129.044694 -37.777217 
L 130.562204 -37.804482 
L 132.08093 -37.845419 
L 133.601194 -37.898903 
L 135.123261 -37.965072 
L 136.649816 -38.025658 
L 138.176833 -38.116017 
L 139.706455 -38.219639 
L 141.241754 -38.321415 
L 142.777864 -38.450665 
L 144.317279 -38.593972 
L 145.86704 -38.723087 
L 147.414528 -38.893923 
L 148.972418 -39.056252 
L 150.52866 -39.25609 
L 152.100022 -39.437035 
L 153.665829 -39.667579 
L 155.246496 -39.88525 
L 156.836791 -40.109307 
L 158.418303 -40.388717 
L 160.01834 -40.652559 
L 161.628792 -40.924708 
L 163.243124 -41.221389 
L 164.846762 -41.572879 
L 166.477843 -41.898517 
L 168.112432 -42.250402 
L 169.758142 -42.614184 
L 171.406984 -43.00543 
L 173.092113 -43.367495 
L 174.760674 -43.79289 
L 176.431591 -44.247661 
L 178.113513 -44.718324 
L 179.833254 -45.166983 
L 181.524412 -45.692038 
L 183.260808 -46.188501 
L 184.969469 -46.757448 
L 186.721232 -47.305222 
L 188.480901 -47.879722 
L 190.247982 -48.481875 
L 192.021922 -49.112609 
L 193.802101 -49.772858 
L 195.587824 -50.463565 
L 197.37831 -51.18569 
L 199.172669 -51.940218 
L 200.969874 -52.728181 
L 202.821915 -53.501937 
L 204.622387 -54.360592 
L 206.482627 -55.203982 
L 208.278293 -56.139813 
L 210.124204 -57.070925 
L 211.964068 -58.044735 
L 213.779678 -59.074131 
L 215.513064 -60.198499 
L 216.633193 -61.776463 
L 217.713648 -63.381915 
L 218.753104 -65.014102 
L 219.759704 -66.66641 
L 220.771037 -68.315725 
L 221.741489 -69.989545 
L 222.697842 -71.671831 
L 223.603953 -73.381757 
L 224.440056 -75.12714 
L 225.233865 -76.891516 
L 226.1248 -78.609975 
L 226.914625 -80.376132 
L 227.633463 -82.17245 
L 228.363697 -83.963405 
L 229.046817 -85.772834 
L 229.682956 -87.599128 
L 230.3751 -89.406317 
L 230.979454 -91.244221 
L 231.478028 -93.114322 
L 232.056082 -94.960458 
L 232.59931 -96.817896 
L 233.010159 -98.7093 
L 233.477826 -100.586605 
L 233.79152 -102.497026 
L 234.205975 -104.386164 
L 234.561745 -106.287361 
L 234.898907 -108.192648 
L 235.182977 -110.106749 
L 235.276174 -112.043715 
L 235.487165 -113.964897 
L 235.670131 -115.889191 
L 235.815516 -117.816882 
L 235.92071 -119.747286 
L 235.994174 -121.679251 
L 236.031812 -123.612327 
L 236.034368 -125.545821 
L 236.001638 -127.479069 
L 235.936133 -129.411512 
L 235.837466 -131.342585 
L 235.706391 -133.271788 
L 235.540455 -135.198359 
L 235.345306 -137.122286 
z
" style="stroke: #ffee9c"/>
    </defs>
    <g clip-path="url(#pd898382089)">
     <use xlink:href="#m516724c179" x="0" y="249.158125" style="fill: #ffee9c; stroke: #ffee9c"/>
    </g>
   </g>
   <g id="matplotlib.axis_1">
    <g id="xtick_1">
     <g id="line2d_1">
      <path d="M 125.254844 124.579063 
L 125.254844 13.699063 
" clip-path="url(#pd898382089)" style="fill: none; stroke: #b0b0b0; stroke-width: 0.8; stroke-linecap: square"/>
     </g>
     <g id="text_1">
      <!-- N -->
      <g transform="translate(121.070469 7.958438) scale(0.1 -0.1)">
       <defs>
        <path id="DejaVuSans-Bold-4e" d="M 588 4666 
L 1931 4666 
L 3628 1466 
L 3628 4666 
L 4769 4666 
L 4769 0 
L 3425 0 
L 1728 3200 
L 1728 0 
L 588 0 
L 588 4666 
z
" transform="scale(0.015625)"/>
       </defs>
       <use xlink:href="#DejaVuSans-Bold-4e"/>
      </g>
     </g>
    </g>
    <g id="xtick_2">
     <g id="line2d_2">
      <path d="M 125.254844 124.579063 
L 203.658844 46.175063 
" clip-path="url(#pd898382089)" style="fill: none; stroke: #b0b0b0; stroke-width: 0.8; stroke-linecap: square"/>
     </g>
    </g>
    <g id="xtick_3">
     <g id="line2d_3">
      <path d="M 125.254844 124.579063 
L 236.134844 124.579063 
" clip-path="url(#pd898382089)" style="fill: none; stroke: #b0b0b0; stroke-width: 0.8; stroke-linecap: square"/>
     </g>
     <g id="text_2">
      <!-- E -->
      <g transform="translate(241.219219 127.338438) scale(0.1 -0.1)">
       <defs>
        <path id="DejaVuSans-Bold-45" d="M 588 4666 
L 3834 4666 
L 3834 3756 
L 1791 3756 
L 1791 2888 
L 3713 2888 
L 3713 1978 
L 1791 1978 
L 1791 909 
L 3903 909 
L 3903 0 
L 588 0 
L 588 4666 
z
" transform="scale(0.015625)"/>
       </defs>
       <use xlink:href="#DejaVuSans-Bold-45"/>
      </g>
     </g>
    </g>
    <g id="xtick_4">
     <g id="line2d_4">
      <path d="M 125.254844 124.579063 
L 203.658844 202.983062 
" clip-path="url(#pd898382089)" style="fill: none; stroke: #b0b0b0; stroke-width: 0.8; stroke-linecap: square"/>
     </g>
    </g>
    <g id="xtick_5">
     <g id="line2d_5">
      <path d="M 125.254844 124.579063 
L 125.254844 235.459063 
" clip-path="url(#pd898382089)" style="fill: none; stroke: #b0b0b0; stroke-width: 0.8; stroke-linecap: square"/>
     </g>
     <g id="text_3">
      <!-- S -->
      <g transform="translate(121.654063 246.718438) scale(0.1 -0.1)">
       <defs>
        <path id="DejaVuSans-Bold-53" d="M 3834 4519 
L 3834 3531 
Q 3450 3703 3084 3790 
Q 2719 3878 2394 3878 
Q 1963 3878 1756 3759 
Q 1550 3641 1550 3391 
Q 1550 3203 1689 3098 
Q 1828 2994 2194 2919 
L 2706 2816 
Q 3484 2659 3812 2340 
Q 4141 2022 4141 1434 
Q 4141 663 3683 286 
Q 3225 -91 2284 -91 
Q 1841 -91 1394 -6 
Q 947 78 500 244 
L 500 1259 
Q 947 1022 1364 901 
Q 1781 781 2169 781 
Q 2563 781 2772 912 
Q 2981 1044 2981 1288 
Q 2981 1506 2839 1625 
Q 2697 1744 2272 1838 
L 1806 1941 
Q 1106 2091 782 2419 
Q 459 2747 459 3303 
Q 459 4000 909 4375 
Q 1359 4750 2203 4750 
Q 2588 4750 2994 4692 
Q 3400 4634 3834 4519 
z
" transform="scale(0.015625)"/>
       </defs>
       <use xlink:href="#DejaVuSans-Bold-53"/>
      </g>
     </g>
    </g>
    <g id="xtick_6">
     <g id="line2d_6">
      <path d="M 125.254844 124.579063 
L 46.850844 202.983062 
" clip-path="url(#pd898382089)" style="fill: none; stroke: #b0b0b0; stroke-width: 0.8; stroke-linecap: square"/>
     </g>
    </g>
    <g id="xtick_7">
     <g id="line2d_7">
      <path d="M 125.254844 124.579063 
L 14.374844 124.579063 
" clip-path="url(#pd898382089)" style="fill: none; stroke: #b0b0b0; stroke-width: 0.8; stroke-linecap: square"/>
     </g>
     <g id="text_4">
      <!-- W -->
      <g transform="translate(0.36 127.338438) scale(0.1 -0.1)">
       <defs>
        <path id="DejaVuSans-Bold-57" d="M 191 4666 
L 1344 4666 
L 2150 1275 
L 2950 4666 
L 4109 4666 
L 4909 1275 
L 5716 4666 
L 6859 4666 
L 5759 0 
L 4372 0 
L 3525 3547 
L 2688 0 
L 1300 0 
L 191 4666 
z
" transform="scale(0.015625)"/>
       </defs>
       <use xlink:href="#DejaVuSans-Bold-57"/>
      </g>
     </g>
    </g>
    <g id="xtick_8">
     <g id="line2d_8">
      <path d="M 125.254844 124.579063 
L 46.850844 46.175063 
" clip-path="url(#pd898382089)" style="fill: none; stroke: #b0b0b0; stroke-width: 0.8; stroke-linecap: square"/>
     </g>
    </g>
   </g>
   <g id="matplotlib.axis_2"/>
   <g id="patch_3">
    <path d="M 125.254844 124.579063 
C 125.254844 124.579063 125.254844 124.579063 125.254844 124.579063 
C 125.254844 124.579063 125.254844 124.579063 125.254844 124.579063 
L 125.254844 124.579063 
C 125.254844 124.579063 125.254844 124.579063 125.254844 124.579063 
C 125.254844 124.579063 125.254844 124.579063 125.254844 124.579063 
z
" clip-path="url(#pd898382089)" style="fill: #d9d9d9"/>
   </g>
   <g id="patch_4">
    <path d="M 125.254844 124.579063 
C 125.254844 124.579063 125.254844 124.579063 125.254844 124.579063 
C 125.254844 124.579063 125.254844 124.579063 125.254844 124.579063 
L 125.254844 124.579063 
C 125.254844 124.579063 125.254844 124.579063 125.254844 124.579063 
C 125.254844 124.579063 125.254844 124.579063 125.254844 124.579063 
z
" clip-path="url(#pd898382089)" style="fill: #d9d9d9"/>
   </g>
   <g id="patch_5">
    <path d="M 125.254844 124.579063 
C 125.254844 124.579063 125.254844 124.579063 125.254844 124.579063 
C 125.254844 124.579063 125.254844 124.579063 125.254844 124.579063 
L 125.254844 124.579063 
C 125.254844 124.579063 125.254844 124.579063 125.254844 124.579063 
C 125.254844 124.579063 125.254844 124.579063 125.254844 124.579063 
z
" clip-path="url(#pd898382089)" style="fill: #d9d9d9"/>
   </g>
   <g id="patch_6">
    <path d="M 125.254844 124.579063 
C 125.254844 124.579063 125.254844 124.579063 125.254844 124.579063 
C 125.254844 124.579063 125.254844 124.579063 125.254844 124.579063 
L 125.254844 124.579063 
C 125.254844 124.579063 125.254844 124.579063 125.254844 124.579063 
C 125.254844 124.579063 125.254844 124.579063 125.254844 124.579063 
z
" clip-path="url(#pd898382089)" style="fill: #d9d9d9"/>
   </g>
   <g id="patch_7">
    <path d="M 125.254844 124.579063 
C 125.254844 124.579063 125.254844 124.579063 125.254844 124.579063 
C 125.254844 124.579063 125.254844 124.579063 125.254844 124.579063 
L 125.254844 124.579063 
C 125.254844 124.579063 125.254844 124.579063 125.254844 124.579063 
C 125.254844 124.579063 125.254844 124.579063 125.254844 124.579063 
z
" clip-path="url(#pd898382089)" style="fill: #d9d9d9"/>
   </g>
   <g id="patch_8">
    <path d="M 125.254844 124.579063 
C 125.254844 124.579063 125.254844 124.579063 125.254844 124.579063 
C 125.254844 124.579063 125.254844 124.579063 125.254844 124.579063 
L 125.254844 124.579063 
C 125.254844 124.579063 125.254844 124.579063 125.254844 124.579063 
C 125.254844 124.579063 125.254844 124.579063 125.254844 124.579063 
z
" clip-path="url(#pd898382089)" style="fill: #d9d9d9"/>
   </g>
   <g id="patch_9">
    <path d="M 125.254844 124.579063 
C 125.254844 124.579063 125.254844 124.579063 125.254844 124.579063 
C 125.254844 124.579063 125.254844 124.579063 125.254844 124.579063 
L 125.254844 124.579063 
C 125.254844 124.579063 125.254844 124.579063 125.254844 124.579063 
C 125.254844 124.579063 125.254844 124.579063 125.254844 124.579063 
z
" clip-path="url(#pd898382089)" style="fill: #d9d9d9"/>
   </g>
   <g id="patch_10">
    <path d="M 125.254844 124.579063 
C 125.254844 124.579063 125.254844 124.579063 125.254844 124.579063 
C 125.254844 124.579063 125.254844 124.579063 125.254844 124.579063 
L 125.254844 124.579063 
C 125.254844 124.579063 125.254844 124.579063 125.254844 124.579063 
C 125.254844 124.579063 125.254844 124.579063 125.254844 124.579063 
z
" clip-path="url(#pd898382089)" style="fill: #d9d9d9"/>
   </g>
   <g id="patch_11">
    <path d="M 125.254844 124.579063 
C 125.254844 124.579063 125.254844 124.579063 125.254844 124.579063 
C 125.254844 124.579063 125.254844 124.579063 125.254844 124.579063 
L 125.254844 124.579063 
C 125.254844 124.579063 125.254844 124.579063 125.254844 124.579063 
C 125.254844 124.579063 125.254844 124.579063 125.254844 124.579063 
z
" clip-path="url(#pd898382089)" style="fill: #d9d9d9"/>
   </g>
   <g id="patch_12">
    <path d="M 125.254844 124.579063 
C 125.254844 124.579063 125.254844 124.579063 125.254844 124.579063 
C 125.254844 124.579063 125.254844 124.579063 125.254844 124.579063 
L 125.254844 124.579063 
C 125.254844 124.579063 125.254844 124.579063 125.254844 124.579063 
C 125.254844 124.579063 125.254844 124.579063 125.254844 124.579063 
z
" clip-path="url(#pd898382089)" style="fill: #d9d9d9"/>
   </g>
   <g id="patch_13">
    <path d="M 125.254844 124.579063 
C 125.254844 124.579063 125.254844 124.579063 125.254844 124.579063 
C 125.254844 124.579063 125.254844 124.579063 125.254844 124.579063 
L 125.254844 124.579063 
C 125.254844 124.579063 125.254844 124.579063 125.254844 124.579063 
C 125.254844 124.579063 125.254844 124.579063 125.254844 124.579063 
z
" clip-path="url(#pd898382089)" style="fill: #d9d9d9"/>
   </g>
   <g id="patch_14">
    <path d="M 125.254844 124.579063 
C 125.254844 124.579063 125.254844 124.579063 125.254844 124.579063 
C 125.254844 124.579063 125.254844 124.579063 125.254844 124.579063 
L 125.254844 124.579063 
C 125.254844 124.579063 125.254844 124.579063 125.254844 124.579063 
C 125.254844 124.579063 125.254844 124.579063 125.254844 124.579063 
z
" clip-path="url(#pd898382089)" style="fill: #d9d9d9"/>
   </g>
   <g id="patch_15">
    <path d="M 125.254844 124.579063 
C 125.254844 124.579063 125.254844 124.579063 125.254844 124.579063 
C 125.254844 124.579063 125.254844 124.579063 125.254844 124.579063 
L 125.254844 124.579063 
C 125.254844 124.579063 125.254844 124.579063 125.254844 124.579063 
C 125.254844 124.579063 125.254844 124.579063 125.254844 124.579063 
z
" clip-path="url(#pd898382089)" style="fill: #d9d9d9"/>
   </g>
   <g id="patch_16">
    <path d="M 125.254844 124.579063 
C 125.254844 124.579063 125.254844 124.579063 125.254844 124.579063 
C 125.254844 124.579063 125.254844 124.579063 125.254844 124.579063 
L 125.254844 124.579063 
C 125.254844 124.579063 125.254844 124.579063 125.254844 124.579063 
C 125.254844 124.579063 125.254844 124.579063 125.254844 124.579063 
z
" clip-path="url(#pd898382089)" style="fill: #d9d9d9"/>
   </g>
   <g id="patch_17">
    <path d="M 125.254844 124.579063 
C 125.254844 124.579063 125.254844 124.579063 125.254844 124.579063 
C 125.254844 124.579063 125.254844 124.579063 125.254844 124.579063 
L 125.254844 124.579063 
C 125.254844 124.579063 125.254844 124.579063 125.254844 124.579063 
C 125.254844 124.579063 125.254844 124.579063 125.254844 124.579063 
z
" clip-path="url(#pd898382089)" style="fill: #d9d9d9"/>
   </g>
   <g id="patch_18">
    <path d="M 125.254844 124.579063 
C 125.254844 124.579063 125.254844 124.579063 125.254844 124.579063 
C 125.254844 124.579063 125.254844 124.579063 125.254844 124.579063 
L 125.254844 124.579063 
C 125.254844 124.579063 125.254844 124.579063 125.254844 124.579063 
C 125.254844 124.579063 125.254844 124.579063 125.254844 124.579063 
z
" clip-path="url(#pd898382089)" style="fill: #d9d9d9"/>
   </g>
   <g id="patch_19">
    <path d="M 125.254844 124.579063 
C 125.254844 124.579063 125.254844 124.579063 125.254844 124.579063 
C 125.254844 124.579063 125.254844 124.579063 125.254844 124.579063 
L 125.254844 124.579063 
C 125.254844 124.579063 125.254844 124.579063 125.254844 124.579063 
C 125.254844 124.579063 125.254844 124.579063 125.254844 124.579063 
z
" clip-path="url(#pd898382089)" style="fill: #d9d9d9"/>
   </g>
   <g id="patch_20">
    <path d="M 125.254844 124.579063 
C 125.254844 124.579063 125.254844 124.579063 125.254844 124.579063 
C 125.254844 124.579063 125.254844 124.579063 125.254844 124.579063 
L 125.254844 124.579063 
C 125.254844 124.579063 125.254844 124.579063 125.254844 124.579063 
C 125.254844 124.579063 125.254844 124.579063 125.254844 124.579063 
z
" clip-path="url(#pd898382089)" style="fill: #d9d9d9"/>
   </g>
   <g id="patch_21">
    <path d="M 125.254844 124.579063 
C 125.254844 124.579063 125.254844 124.579063 125.254844 124.579063 
C 125.254844 124.579063 125.254844 124.579063 125.254844 124.579063 
L 125.254844 124.579063 
C 125.254844 124.579063 125.254844 124.579063 125.254844 124.579063 
C 125.254844 124.579063 125.254844 124.579063 125.254844 124.579063 
z
" clip-path="url(#pd898382089)" style="fill: #d9d9d9"/>
   </g>
   <g id="patch_22">
    <path d="M 125.254844 124.579063 
C 125.254844 124.579063 125.254844 124.579063 125.254844 124.579063 
C 125.254844 124.579063 125.254844 124.579063 125.254844 124.579063 
L 125.254844 124.579063 
C 125.254844 124.579063 125.254844 124.579063 125.254844 124.579063 
C 125.254844 124.579063 125.254844 124.579063 125.254844 124.579063 
z
" clip-path="url(#pd898382089)" style="fill: #d9d9d9"/>
   </g>
   <g id="patch_23">
    <path d="M 125.254844 124.579063 
C 125.254844 124.579063 125.254844 124.579063 125.254844 124.579063 
C 125.254844 124.579063 125.254844 124.579063 125.254844 124.579063 
L 125.254844 124.579063 
C 125.254844 124.579063 125.254844 124.579063 125.254844 124.579063 
C 125.254844 124.579063 125.254844 124.579063 125.254844 124.579063 
z
" clip-path="url(#pd898382089)" style="fill: #d9d9d9"/>
   </g>
   <g id="patch_24">
    <path d="M 125.254844 124.579063 
C 125.254844 124.579063 125.254844 124.579063 125.254844 124.579063 
C 125.254844 124.579063 125.254844 124.579063 125.254844 124.579063 
L 125.254844 124.579063 
C 125.254844 124.579063 125.254844 124.579063 125.254844 124.579063 
C 125.254844 124.579063 125.254844 124.579063 125.254844 124.579063 
z
" clip-path="url(#pd898382089)" style="fill: #d9d9d9"/>
   </g>
   <g id="patch_25">
    <path d="M 125.254844 124.579063 
C 125.254844 124.579063 125.254844 124.579063 125.254844 124.579063 
C 125.254844 124.579063 125.254844 124.579063 125.254844 124.579063 
L 125.254844 124.579063 
C 125.254844 124.579063 125.254844 124.579063 125.254844 124.579063 
C 125.254844 124.579063 125.254844 124.579063 125.254844 124.579063 
z
" clip-path="url(#pd898382089)" style="fill: #d9d9d9"/>
   </g>
   <g id="patch_26">
    <path d="M 125.254844 124.579063 
C 125.254844 124.579063 125.254844 124.579063 125.254844 124.579063 
C 125.254844 124.579063 125.254844 124.579063 125.254844 124.579063 
L 125.254844 124.579063 
C 125.254844 124.579063 125.254844 124.579063 125.254844 124.579063 
C 125.254844 124.579063 125.254844 124.579063 125.254844 124.579063 
z
" clip-path="url(#pd898382089)" style="fill: #d9d9d9"/>
   </g>
   <g id="patch_27">
    <path d="M 125.254844 124.579063 
C 125.254844 124.579063 125.254844 124.579063 125.254844 124.579063 
C 125.254844 124.579063 125.254844 124.579063 125.254844 124.579063 
L 125.254844 124.579063 
C 125.254844 124.579063 125.254844 124.579063 125.254844 124.579063 
C 125.254844 124.579063 125.254844 124.579063 125.254844 124.579063 
z
" clip-path="url(#pd898382089)" style="fill: #d9d9d9"/>
   </g>
   <g id="patch_28">
    <path d="M 125.254844 124.579063 
C 125.254844 124.579063 125.254844 124.579063 125.254844 124.579063 
C 125.254844 124.579063 125.254844 124.579063 125.254844 124.579063 
L 125.254844 124.579063 
C 125.254844 124.579063 125.254844 124.579063 125.254844 124.579063 
C 125.254844 124.579063 125.254844 124.579063 125.254844 124.579063 
z
" clip-path="url(#pd898382089)" style="fill: #d9d9d9"/>
   </g>
   <g id="patch_29">
    <path d="M 125.254844 124.579063 
C 125.254844 124.579063 125.254844 124.579063 125.254844 124.579063 
C 125.254844 124.579063 125.254844 124.579063 125.254844 124.579063 
L 125.254844 124.579063 
C 125.254844 124.579063 125.254844 124.579063 125.254844 124.579063 
C 125.254844 124.579063 125.254844 124.579063 125.254844 124.579063 
z
" clip-path="url(#pd898382089)" style="fill: #d9d9d9"/>
   </g>
   <g id="patch_30">
    <path d="M 125.254844 124.579063 
C 125.254844 124.579063 125.254844 124.579063 125.254844 124.579063 
C 125.254844 124.579063 125.254844 124.579063 125.254844 124.579063 
L 125.254844 124.579063 
C 125.254844 124.579063 125.254844 124.579063 125.254844 124.579063 
C 125.254844 124.579063 125.254844 124.579063 125.254844 124.579063 
z
" clip-path="url(#pd898382089)" style="fill: #d9d9d9"/>
   </g>
   <g id="patch_31">
    <path d="M 125.254844 124.579063 
C 125.254844 124.579063 125.254844 124.579063 125.254844 124.579063 
C 125.254844 124.579063 125.254844 124.579063 125.254844 124.579063 
L 125.254844 124.579063 
C 125.254844 124.579063 125.254844 124.579063 125.254844 124.579063 
C 125.254844 124.579063 125.254844 124.579063 125.254844 124.579063 
z
" clip-path="url(#pd898382089)" style="fill: #d9d9d9"/>
   </g>
   <g id="patch_32">
    <path d="M 125.254844 124.579063 
C 125.254844 124.579063 125.254844 124.579063 125.254844 124.579063 
C 125.254844 124.579063 125.254844 124.579063 125.254844 124.579063 
L 125.254844 124.579063 
C 125.254844 124.579063 125.254844 124.579063 125.254844 124.579063 
C 125.254844 124.579063 125.254844 124.579063 125.254844 124.579063 
z
" clip-path="url(#pd898382089)" style="fill: #d9d9d9"/>
   </g>
   <g id="patch_33">
    <path d="M 125.254844 124.579063 
C 125.254844 124.579063 125.254844 124.579063 125.254844 124.579063 
C 125.254844 124.579063 125.254844 124.579063 125.254844 124.579063 
L 125.254844 124.579063 
C 125.254844 124.579063 125.254844 124.579063 125.254844 124.579063 
C 125.254844 124.579063 125.254844 124.579063 125.254844 124.579063 
z
" clip-path="url(#pd898382089)" style="fill: #d9d9d9"/>
   </g>
   <g id="patch_34">
    <path d="M 125.254844 124.579063 
C 125.254844 124.579063 125.254844 124.579063 125.254844 124.579063 
C 125.254844 124.579063 125.254844 124.579063 125.254844 124.579063 
L 125.254844 124.579063 
C 125.254844 124.579063 125.254844 124.579063 125.254844 124.579063 
C 125.254844 124.579063 125.254844 124.579063 125.254844 124.579063 
z
" clip-path="url(#pd898382089)" style="fill: #d9d9d9"/>
   </g>
   <g id="patch_35">
    <path d="M 125.254844 124.579063 
C 125.254844 124.579063 125.254844 124.579063 125.254844 124.579063 
C 125.254844 124.579063 125.254844 124.579063 125.254844 124.579063 
L 125.837019 118.668136 
C 125.643546 118.649081 125.449253 118.639536 125.254844 118.639536 
C 125.060434 118.639536 124.866142 118.649081 124.672668 118.668136 
z
" clip-path="url(#pd898382089)" style="fill: #a1a1d8"/>
   </g>
   <g id="patch_36">
    <path d="M 125.254844 124.579063 
C 125.254844 124.579063 125.254844 124.579063 125.254844 124.579063 
C 125.254844 124.579063 125.254844 124.579063 125.254844 124.579063 
L 126.474004 120.560028 
C 126.342455 120.520123 126.209027 120.486701 126.0742 120.459882 
C 125.939373 120.433064 125.80331 120.412881 125.666504 120.399406 
z
" clip-path="url(#pd898382089)" style="fill: #a1a1d8"/>
   </g>
   <g id="patch_37">
    <path d="M 125.254844 124.579063 
C 125.254844 124.579063 125.254844 124.579063 125.254844 124.579063 
C 125.254844 124.579063 125.254844 124.579063 125.254844 124.579063 
L 128.683974 118.16361 
C 128.473987 118.05137 128.258616 117.949507 128.038638 117.858389 
C 127.81866 117.767271 127.594342 117.687009 127.366492 117.617891 
z
" clip-path="url(#pd898382089)" style="fill: #a1a1d8"/>
   </g>
   <g id="patch_38">
    <path d="M 125.254844 124.579063 
C 125.254844 124.579063 125.254844 124.579063 125.254844 124.579063 
C 125.254844 124.579063 125.254844 124.579063 125.254844 124.579063 
L 129.869677 118.955872 
C 129.685622 118.804821 129.494261 118.662898 129.296287 118.530616 
C 129.098312 118.398333 128.893962 118.275851 128.683974 118.16361 
z
" clip-path="url(#pd898382089)" style="fill: #a1a1d8"/>
   </g>
   <g id="patch_39">
    <path d="M 125.254844 124.579063 
C 125.254844 124.579063 125.254844 124.579063 125.254844 124.579063 
C 125.254844 124.579063 125.254844 124.579063 125.254844 124.579063 
L 141.487598 111.257186 
C 141.051553 110.725863 140.589684 110.21627 140.10366 109.730246 
C 139.617636 109.244222 139.108043 108.782353 138.576721 108.346308 
z
" clip-path="url(#pd898382089)" style="fill: #a1a1d8"/>
   </g>
   <g id="patch_40">
    <path d="M 125.254844 124.579063 
C 125.254844 124.579063 125.254844 124.579063 125.254844 124.579063 
C 125.254844 124.579063 125.254844 124.579063 125.254844 124.579063 
L 143.774659 114.680015 
C 143.450649 114.073834 143.097072 113.483926 142.715205 112.912422 
C 142.333338 112.340918 141.923643 111.788508 141.487598 111.257186 
z
" clip-path="url(#pd898382089)" style="fill: #a1a1d8"/>
   </g>
   <g id="patch_41">
    <path d="M 125.254844 124.579063 
C 125.254844 124.579063 125.254844 124.579063 125.254844 124.579063 
C 125.254844 124.579063 125.254844 124.579063 125.254844 124.579063 
L 151.301162 116.677998 
C 151.042548 115.825463 150.742234 114.98614 150.401302 114.163058 
C 150.060371 113.339977 149.679234 112.534131 149.259268 111.74843 
z
" clip-path="url(#pd898382089)" style="fill: #a1a1d8"/>
   </g>
   <g id="patch_42">
    <path d="M 125.254844 124.579063 
C 125.254844 124.579063 125.254844 124.579063 125.254844 124.579063 
C 125.254844 124.579063 125.254844 124.579063 125.254844 124.579063 
L 151.689309 121.975495 
C 151.604091 121.110255 151.476443 120.249721 151.306826 119.397001 
C 151.137209 118.544281 150.925829 117.700402 150.673448 116.868413 
z
" clip-path="url(#pd898382089)" style="fill: #a1a1d8"/>
   </g>
   <g id="patch_43">
    <path d="M 125.254844 124.579063 
C 125.254844 124.579063 125.254844 124.579063 125.254844 124.579063 
C 125.254844 124.579063 125.254844 124.579063 125.254844 124.579063 
L 159.466803 127.948646 
C 159.577094 126.828838 159.63234 125.704289 159.63234 124.579063 
C 159.63234 123.453836 159.577094 122.329287 159.466803 121.209479 
z
" clip-path="url(#pd898382089)" style="fill: #a1a1d8"/>
   </g>
   <g id="patch_44">
    <path d="M 125.254844 124.579063 
C 125.254844 124.579063 125.254844 124.579063 125.254844 124.579063 
C 125.254844 124.579063 125.254844 124.579063 125.254844 124.579063 
L 161.202178 135.483567 
C 161.559099 134.306957 161.858036 133.113533 162.09791 131.907604 
C 162.337784 130.701676 162.518306 129.484697 162.638824 128.261063 
z
" clip-path="url(#pd898382089)" style="fill: #a1a1d8"/>
   </g>
   <g id="patch_45">
    <path d="M 125.254844 124.579063 
C 125.254844 124.579063 125.254844 124.579063 125.254844 124.579063 
C 125.254844 124.579063 125.254844 124.579063 125.254844 124.579063 
L 160.5884 143.465242 
C 161.206573 142.308722 161.767591 141.122548 162.269428 139.911005 
C 162.771266 138.699463 163.213317 137.464012 163.593986 136.209114 
z
" clip-path="url(#pd898382089)" style="fill: #a1a1d8"/>
   </g>
   <g id="patch_46">
    <path d="M 125.254844 124.579063 
C 125.254844 124.579063 125.254844 124.579063 125.254844 124.579063 
C 125.254844 124.579063 125.254844 124.579063 125.254844 124.579063 
L 156.731322 150.41114 
C 157.576844 149.380868 158.371274 148.309704 159.11174 147.201518 
C 159.852207 146.093331 160.537819 144.949457 161.166098 143.774028 
z
" clip-path="url(#pd898382089)" style="fill: #a1a1d8"/>
   </g>
   <g id="patch_47">
    <path d="M 125.254844 124.579063 
C 125.254844 124.579063 125.254844 124.579063 125.254844 124.579063 
C 125.254844 124.579063 125.254844 124.579063 125.254844 124.579063 
L 153.32578 158.783598 
C 154.445346 157.864794 155.519126 156.891577 156.543242 155.867461 
C 157.567358 154.843345 158.540575 153.769565 159.459379 152.649999 
z
" clip-path="url(#pd898382089)" style="fill: #a1a1d8"/>
   </g>
   <g id="patch_48">
    <path d="M 125.254844 124.579063 
C 125.254844 124.579063 125.254844 124.579063 125.254844 124.579063 
C 125.254844 124.579063 125.254844 124.579063 125.254844 124.579063 
L 144.652936 160.870341 
C 145.840804 160.235412 146.996783 159.542546 148.116696 158.794243 
C 149.23661 158.04594 150.31911 157.243104 151.360285 156.388634 
z
" clip-path="url(#pd898382089)" style="fill: #a1a1d8"/>
   </g>
   <g id="patch_49">
    <path d="M 125.254844 124.579063 
C 125.254844 124.579063 125.254844 124.579063 125.254844 124.579063 
C 125.254844 124.579063 125.254844 124.579063 125.254844 124.579063 
L 140.579456 175.097539 
C 142.233001 174.595941 143.860923 174.013462 145.45734 173.352204 
C 147.053758 172.690946 148.616748 171.951707 150.140664 171.137157 
z
" clip-path="url(#pd898382089)" style="fill: #a1a1d8"/>
   </g>
   <g id="patch_50">
    <path d="M 125.254844 124.579063 
C 125.254844 124.579063 125.254844 124.579063 125.254844 124.579063 
C 125.254844 124.579063 125.254844 124.579063 125.254844 124.579063 
L 129.984459 172.599654 
C 131.556245 172.444847 133.119483 172.212962 134.668526 171.904838 
C 136.217569 171.596715 137.750551 171.212723 139.261934 170.75425 
z
" clip-path="url(#pd898382089)" style="fill: #a1a1d8"/>
   </g>
   <g id="patch_51">
    <path d="M 125.254844 124.579063 
C 125.254844 124.579063 125.254844 124.579063 125.254844 124.579063 
C 125.254844 124.579063 125.254844 124.579063 125.254844 124.579063 
L 122.618932 151.341919 
C 123.494921 151.428196 124.374617 151.471413 125.254844 151.471413 
C 126.135071 151.471413 127.014767 151.428196 127.890755 151.341919 
z
" clip-path="url(#pd898382089)" style="fill: #a1a1d8"/>
   </g>
   <g id="patch_52">
    <path d="M 125.254844 124.579063 
C 125.254844 124.579063 125.254844 124.579063 125.254844 124.579063 
C 125.254844 124.579063 125.254844 124.579063 125.254844 124.579063 
L 119.407954 143.853673 
C 120.038841 144.045051 120.678744 144.205338 121.325351 144.333956 
C 121.971958 144.462574 122.62449 144.559368 123.280591 144.623989 
z
" clip-path="url(#pd898382089)" style="fill: #a1a1d8"/>
   </g>
   <g id="patch_53">
    <path d="M 125.254844 124.579063 
C 125.254844 124.579063 125.254844 124.579063 125.254844 124.579063 
C 125.254844 124.579063 125.254844 124.579063 125.254844 124.579063 
L 118.688558 136.863718 
C 119.090654 137.078643 119.503058 137.273696 119.924284 137.448173 
C 120.345509 137.62265 120.775047 137.776341 121.211345 137.908691 
z
" clip-path="url(#pd898382089)" style="fill: #a1a1d8"/>
   </g>
   <g id="patch_54">
    <path d="M 125.254844 124.579063 
C 125.254844 124.579063 125.254844 124.579063 125.254844 124.579063 
C 125.254844 124.579063 125.254844 124.579063 125.254844 124.579063 
L 115.648302 136.284668 
C 116.031444 136.599104 116.429793 136.89454 116.84191 137.169908 
C 117.254027 137.445276 117.679415 137.700244 118.116539 137.933891 
z
" clip-path="url(#pd898382089)" style="fill: #a1a1d8"/>
   </g>
   <g id="patch_55">
    <path d="M 125.254844 124.579063 
C 125.254844 124.579063 125.254844 124.579063 125.254844 124.579063 
C 125.254844 124.579063 125.254844 124.579063 125.254844 124.579063 
L 107.178814 139.413677 
C 107.664373 140.005332 108.178688 140.572792 108.719901 141.114005 
C 109.261115 141.655218 109.828574 142.169533 110.420229 142.655092 
z
" clip-path="url(#pd898382089)" style="fill: #a1a1d8"/>
   </g>
   <g id="patch_56">
    <path d="M 125.254844 124.579063 
C 125.254844 124.579063 125.254844 124.579063 125.254844 124.579063 
C 125.254844 124.579063 125.254844 124.579063 125.254844 124.579063 
L 104.63205 135.602175 
C 104.992853 136.27719 105.38658 136.934084 105.811808 137.570483 
C 106.237037 138.206883 106.693255 138.822021 107.178814 139.413677 
z
" clip-path="url(#pd898382089)" style="fill: #a1a1d8"/>
   </g>
   <g id="patch_57">
    <path d="M 125.254844 124.579063 
C 125.254844 124.579063 125.254844 124.579063 125.254844 124.579063 
C 125.254844 124.579063 125.254844 124.579063 125.254844 124.579063 
L 94.384057 133.943613 
C 94.690572 134.95406 95.046513 135.948849 95.450594 136.924387 
C 95.854675 137.899924 96.306409 138.855035 96.804163 139.786268 
z
" clip-path="url(#pd898382089)" style="fill: #a1a1d8"/>
   </g>
   <g id="patch_58">
    <path d="M 125.254844 124.579063 
C 125.254844 124.579063 125.254844 124.579063 125.254844 124.579063 
C 125.254844 124.579063 125.254844 124.579063 125.254844 124.579063 
L 101.983504 126.871089 
C 102.058525 127.632795 102.170899 128.390358 102.32022 129.141043 
C 102.46954 129.891727 102.655627 130.634628 102.877809 131.367062 
z
" clip-path="url(#pd898382089)" style="fill: #a1a1d8"/>
   </g>
   <g id="patch_59">
    <path d="M 125.254844 124.579063 
C 125.254844 124.579063 125.254844 124.579063 125.254844 124.579063 
C 125.254844 124.579063 125.254844 124.579063 125.254844 124.579063 
L 105.209918 122.60481 
C 105.145297 123.26091 105.112929 123.919788 105.112929 124.579063 
C 105.112929 125.238337 105.145297 125.897215 105.209918 126.553315 
z
" clip-path="url(#pd898382089)" style="fill: #a1a1d8"/>
   </g>
   <g id="patch_60">
    <path d="M 125.254844 124.579063 
C 125.254844 124.579063 125.254844 124.579063 125.254844 124.579063 
C 125.254844 124.579063 125.254844 124.579063 125.254844 124.579063 
L 110.76401 120.183316 
C 110.620131 120.657623 110.499625 121.138708 110.402929 121.624833 
C 110.306232 122.110958 110.233462 122.601538 110.18488 123.094801 
z
" clip-path="url(#pd898382089)" style="fill: #a1a1d8"/>
   </g>
   <g id="patch_61">
    <path d="M 125.254844 124.579063 
C 125.254844 124.579063 125.254844 124.579063 125.254844 124.579063 
C 125.254844 124.579063 125.254844 124.579063 125.254844 124.579063 
L 118.839391 121.149932 
C 118.727151 121.359919 118.625288 121.575291 118.53417 121.795268 
C 118.443052 122.015246 118.36279 122.239565 118.293672 122.467414 
z
" clip-path="url(#pd898382089)" style="fill: #a1a1d8"/>
   </g>
   <g id="patch_62">
    <path d="M 125.254844 124.579063 
C 125.254844 124.579063 125.254844 124.579063 125.254844 124.579063 
C 125.254844 124.579063 125.254844 124.579063 125.254844 124.579063 
L 125.254844 124.579063 
C 125.254844 124.579063 125.254844 124.579063 125.254844 124.579063 
C 125.254844 124.579063 125.254844 124.579063 125.254844 124.579063 
z
" clip-path="url(#pd898382089)" style="fill: #a1a1d8"/>
   </g>
   <g id="patch_63">
    <path d="M 125.254844 124.579063 
C 125.254844 124.579063 125.254844 124.579063 125.254844 124.579063 
C 125.254844 124.579063 125.254844 124.579063 125.254844 124.579063 
L 125.254844 124.579063 
C 125.254844 124.579063 125.254844 124.579063 125.254844 124.579063 
C 125.254844 124.579063 125.254844 124.579063 125.254844 124.579063 
z
" clip-path="url(#pd898382089)" style="fill: #a1a1d8"/>
   </g>
   <g id="patch_64">
    <path d="M 125.254844 124.579063 
C 125.254844 124.579063 125.254844 124.579063 125.254844 124.579063 
C 125.254844 124.579063 125.254844 124.579063 125.254844 124.579063 
L 125.254844 124.579063 
C 125.254844 124.579063 125.254844 124.579063 125.254844 124.579063 
C 125.254844 124.579063 125.254844 124.579063 125.254844 124.579063 
z
" clip-path="url(#pd898382089)" style="fill: #a1a1d8"/>
   </g>
   <g id="patch_65">
    <path d="M 125.254844 124.579063 
C 125.254844 124.579063 125.254844 124.579063 125.254844 124.579063 
C 125.254844 124.579063 125.254844 124.579063 125.254844 124.579063 
L 125.254844 124.579063 
C 125.254844 124.579063 125.254844 124.579063 125.254844 124.579063 
C 125.254844 124.579063 125.254844 124.579063 125.254844 124.579063 
z
" clip-path="url(#pd898382089)" style="fill: #a1a1d8"/>
   </g>
   <g id="patch_66">
    <path d="M 125.254844 124.579063 
C 125.254844 124.579063 125.254844 124.579063 125.254844 124.579063 
C 125.254844 124.579063 125.254844 124.579063 125.254844 124.579063 
L 124.246486 114.341038 
C 123.911381 114.374043 123.578097 114.423481 123.24784 114.489173 
C 122.917583 114.554865 122.59075 114.636733 122.268522 114.73448 
z
" clip-path="url(#pd898382089)" style="fill: #a1a1d8"/>
   </g>
   <g id="patch_67">
    <path d="M 124.672668 118.668136 
C 124.866142 118.649081 125.060434 118.639536 125.254844 118.639536 
C 125.449253 118.639536 125.643546 118.649081 125.837019 118.668136 
L 127.271559 104.103013 
C 126.601347 104.037003 125.928298 104.003939 125.254844 104.003939 
C 124.581389 104.003939 123.908341 104.037003 123.238129 104.103013 
z
" clip-path="url(#pd898382089)" style="fill: #ff8c8e"/>
   </g>
   <g id="patch_68">
    <path d="M 125.666504 120.399406 
C 125.80331 120.412881 125.939373 120.433064 126.0742 120.459882 
C 126.209027 120.486701 126.342455 120.520123 126.474004 120.560028 
L 130.131486 108.502926 
C 129.605291 108.343306 129.071575 108.209617 128.532267 108.102342 
C 127.99296 107.995067 127.44871 107.914335 126.901484 107.860438 
z
" clip-path="url(#pd898382089)" style="fill: #ff8c8e"/>
   </g>
   <g id="patch_69">
    <path d="M 127.366492 117.617891 
C 127.594342 117.687009 127.81866 117.767271 128.038638 117.858389 
C 128.258616 117.949507 128.473987 118.05137 128.683974 118.16361 
L 134.95389 106.433423 
C 134.359956 106.115959 133.750794 105.827847 133.128603 105.570127 
C 132.506412 105.312407 131.871943 105.08539 131.227487 104.889897 
z
" clip-path="url(#pd898382089)" style="fill: #ff8c8e"/>
   </g>
   <g id="patch_70">
    <path d="M 128.683974 118.16361 
C 128.893962 118.275851 129.098312 118.398333 129.296287 118.530616 
C 129.494261 118.662898 129.685622 118.804821 129.869677 118.955872 
L 145.370437 100.068141 
C 144.568158 99.409728 143.734036 98.791101 142.871084 98.214495 
C 142.008133 97.637889 141.117391 97.104 140.202078 96.614754 
z
" clip-path="url(#pd898382089)" style="fill: #ff8c8e"/>
   </g>
   <g id="patch_71">
    <path d="M 138.576721 108.346308 
C 139.108043 108.782353 139.617636 109.244222 140.10366 109.730246 
C 140.589684 110.21627 141.051553 110.725863 141.487598 111.257186 
L 162.128573 94.317575 
C 161.138069 93.110643 160.088905 91.953069 158.984871 90.849035 
C 157.880837 89.745001 156.723263 88.695837 155.516331 87.705333 
z
" clip-path="url(#pd898382089)" style="fill: #ff8c8e"/>
   </g>
   <g id="patch_72">
    <path d="M 141.487598 111.257186 
C 141.923643 111.788508 142.333338 112.340918 142.715205 112.912422 
C 143.097072 113.483926 143.450649 114.073834 143.774659 114.680015 
L 165.660311 102.98189 
C 164.953403 101.659359 164.181989 100.372332 163.348855 99.125458 
C 162.51572 97.878584 161.62187 96.673367 160.670532 95.514158 
z
" clip-path="url(#pd898382089)" style="fill: #ff8c8e"/>
   </g>
   <g id="patch_73">
    <path d="M 149.259268 111.74843 
C 149.679234 112.534131 150.060371 113.339977 150.401302 114.163058 
C 150.742234 114.98614 151.042548 115.825463 151.301162 116.677998 
L 164.427543 112.696154 
C 164.038598 111.413973 163.586935 110.151661 163.074187 108.913777 
C 162.561439 107.675894 161.988223 106.463931 161.35661 105.282266 
z
" clip-path="url(#pd898382089)" style="fill: #ff8c8e"/>
   </g>
   <g id="patch_74">
    <path d="M 150.673448 116.868413 
C 150.925829 117.700402 151.137209 118.544281 151.306826 119.397001 
C 151.476443 120.249721 151.604091 121.110255 151.689309 121.975495 
L 172.72661 119.903502 
C 172.573572 118.34968 172.344338 116.804308 172.039736 115.272969 
C 171.735134 113.741629 171.35553 112.226168 170.902297 110.732059 
z
" clip-path="url(#pd898382089)" style="fill: #ff8c8e"/>
   </g>
   <g id="patch_75">
    <path d="M 159.466803 121.209479 
C 159.577094 122.329287 159.63234 123.453836 159.63234 124.579063 
C 159.63234 125.704289 159.577094 126.828838 159.466803 127.948646 
L 183.470715 130.312825 
C 183.65839 128.407333 183.752397 126.493775 183.752397 124.579063 
C 183.752397 122.66435 183.65839 120.750792 183.470715 118.8453 
z
" clip-path="url(#pd898382089)" style="fill: #ff8c8e"/>
   </g>
   <g id="patch_76">
    <path d="M 162.638824 128.261063 
C 162.518306 129.484697 162.337784 130.701676 162.09791 131.907604 
C 161.858036 133.113533 161.559099 134.306957 161.202178 135.483567 
L 190.432625 144.350526 
C 191.079775 142.21716 191.621792 140.053307 192.056719 137.866782 
C 192.491645 135.680256 192.818958 133.473696 193.037474 131.255069 
z
" clip-path="url(#pd898382089)" style="fill: #ff8c8e"/>
   </g>
   <g id="patch_77">
    <path d="M 163.593986 136.209114 
C 163.213317 137.464012 162.771266 138.699463 162.269428 139.911005 
C 161.767591 141.122548 161.206573 142.308722 160.5884 143.465242 
L 198.120375 163.5265 
C 199.395183 161.141503 200.552125 158.695353 201.587024 156.196887 
C 202.621922 153.698421 203.533529 151.150649 204.318552 148.562776 
z
" clip-path="url(#pd898382089)" style="fill: #ff8c8e"/>
   </g>
   <g id="patch_78">
    <path d="M 161.166098 143.774028 
C 160.537819 144.949457 159.852207 146.093331 159.11174 147.201518 
C 158.371274 148.309704 157.576844 149.380868 156.731322 150.41114 
L 193.044815 180.212854 
C 194.865792 177.993987 196.576731 175.687053 198.171453 173.300383 
C 199.766174 170.913714 201.242756 168.450186 202.595864 165.918699 
z
" clip-path="url(#pd898382089)" style="fill: #ff8c8e"/>
   </g>
   <g id="patch_79">
    <path d="M 159.459379 152.649999 
C 158.540575 153.769565 157.567358 154.843345 156.543242 155.867461 
C 155.519126 156.891577 154.445346 157.864794 153.32578 158.783598 
L 189.4215 202.76636 
C 191.980687 200.666089 194.435214 198.441436 196.776216 196.100434 
C 199.117217 193.759433 201.341871 191.304906 203.442141 188.745719 
z
" clip-path="url(#pd898382089)" style="fill: #ff8c8e"/>
   </g>
   <g id="patch_80">
    <path d="M 151.360285 156.388634 
C 150.31911 157.243104 149.23661 158.04594 148.116696 158.794243 
C 146.996783 159.542546 145.840804 160.235412 144.652936 160.870341 
L 165.828865 200.487718 
C 168.313469 199.159669 170.731371 197.710434 173.07384 196.145247 
C 175.416308 194.58006 177.680517 192.900808 179.858291 191.113555 
z
" clip-path="url(#pd898382089)" style="fill: #ff8c8e"/>
   </g>
   <g id="patch_81">
    <path d="M 150.140664 171.137157 
C 148.616748 171.951707 147.053758 172.690946 145.45734 173.352204 
C 143.860923 174.013462 142.233001 174.595941 140.579456 175.097539 
L 149.392994 204.151879 
C 151.997531 203.361802 154.561708 202.444325 157.076262 201.402762 
C 159.590816 200.361199 162.052717 199.196807 164.453073 197.91379 
z
" clip-path="url(#pd898382089)" style="fill: #ff8c8e"/>
   </g>
   <g id="patch_82">
    <path d="M 139.261934 170.75425 
C 137.750551 171.212723 136.217569 171.596715 134.668526 171.904838 
C 133.119483 172.212962 131.556245 172.444847 129.984459 172.599654 
L 134.255057 215.959764 
C 137.246084 215.665174 140.220845 215.22391 143.168594 214.637566 
C 146.116343 214.051222 149.033528 213.320505 151.909611 212.448055 
z
" clip-path="url(#pd898382089)" style="fill: #ff8c8e"/>
   </g>
   <g id="patch_83">
    <path d="M 127.890755 151.341919 
C 127.014767 151.428196 126.135071 151.471413 125.254844 151.471413 
C 124.374617 151.471413 123.494921 151.428196 122.618932 151.341919 
L 116.66899 211.7527 
C 119.522313 212.033728 122.387714 212.174496 125.254844 212.174496 
C 128.121973 212.174496 130.987374 212.033728 133.840698 211.7527 
z
" clip-path="url(#pd898382089)" style="fill: #ff8c8e"/>
   </g>
   <g id="patch_84">
    <path d="M 123.280591 144.623989 
C 122.62449 144.559368 121.971958 144.462574 121.325351 144.333956 
C 120.678744 144.205338 120.038841 144.045051 119.407954 143.853673 
L 110.224021 174.129044 
C 111.845866 174.621025 113.490888 175.033081 115.153146 175.363725 
C 116.815404 175.694369 118.492894 175.943201 120.179556 176.109323 
z
" clip-path="url(#pd898382089)" style="fill: #ff8c8e"/>
   </g>
   <g id="patch_85">
    <path d="M 121.211345 137.908691 
C 120.775047 137.776341 120.345509 137.62265 119.924284 137.448173 
C 119.503058 137.273696 119.090654 137.078643 118.688558 136.863718 
L 96.908285 177.611743 
C 98.644124 178.539569 100.42447 179.38161 102.242893 180.134825 
C 104.061316 180.888041 105.915624 181.551523 107.799119 182.122875 
z
" clip-path="url(#pd898382089)" style="fill: #ff8c8e"/>
   </g>
   <g id="patch_86">
    <path d="M 118.116539 137.933891 
C 117.679415 137.700244 117.254027 137.445276 116.84191 137.169908 
C 116.429793 136.89454 116.031444 136.599104 115.648302 136.284668 
L 94.527768 162.020113 
C 95.753269 163.025856 97.027411 163.970824 98.345592 164.851604 
C 99.663772 165.732384 101.024402 166.547914 102.422566 167.295249 
z
" clip-path="url(#pd898382089)" style="fill: #ff8c8e"/>
   </g>
   <g id="patch_87">
    <path d="M 110.420229 142.655092 
C 109.828574 142.169533 109.261115 141.655218 108.719901 141.114005 
C 108.178688 140.572792 107.664373 140.005332 107.178814 139.413677 
L 82.800683 159.420292 
C 83.941088 160.80988 85.149032 162.14264 86.420149 163.413757 
C 87.691267 164.684875 89.024026 165.892818 90.413614 167.033223 
z
" clip-path="url(#pd898382089)" style="fill: #ff8c8e"/>
   </g>
   <g id="patch_88">
    <path d="M 107.178814 139.413677 
C 106.693255 138.822021 106.237037 138.206883 105.811808 137.570483 
C 105.38658 136.934084 104.992853 136.27719 104.63205 135.602175 
L 89.153077 143.875859 
C 89.78469 145.057524 90.473939 146.207466 91.218334 147.321531 
C 91.962729 148.435597 92.761373 149.512444 93.611381 150.548182 
z
" clip-path="url(#pd898382089)" style="fill: #ff8c8e"/>
   </g>
   <g id="patch_89">
    <path d="M 96.804163 139.786268 
C 96.306409 138.855035 95.854675 137.899924 95.450594 136.924387 
C 95.046513 135.948849 94.690572 134.95406 94.384057 133.943613 
L 85.671948 136.586403 
C 86.064966 137.88201 86.521358 139.15754 87.039475 140.408386 
C 87.557593 141.659232 88.136811 142.883886 88.775038 144.077925 
z
" clip-path="url(#pd898382089)" style="fill: #ff8c8e"/>
   </g>
   <g id="patch_90">
    <path d="M 102.877809 131.367062 
C 102.655627 130.634628 102.46954 129.891727 102.32022 129.141043 
C 102.170899 128.390358 102.058525 127.632795 101.983504 126.871089 
L 95.114916 127.547586 
C 95.21208 128.534111 95.357621 129.515271 95.551014 130.487522 
C 95.744407 131.459772 95.985418 132.421942 96.273176 133.370555 
z
" clip-path="url(#pd898382089)" style="fill: #ff8c8e"/>
   </g>
   <g id="patch_91">
    <path d="M 105.209918 126.553315 
C 105.145297 125.897215 105.112929 125.238337 105.112929 124.579063 
C 105.112929 123.919788 105.145297 123.26091 105.209918 122.60481 
L 93.977162 121.49848 
C 93.87633 122.522245 93.825823 123.550344 93.825823 124.579062 
C 93.825823 125.607781 93.87633 126.63588 93.977162 127.659645 
z
" clip-path="url(#pd898382089)" style="fill: #ff8c8e"/>
   </g>
   <g id="patch_92">
    <path d="M 110.18488 123.094801 
C 110.233462 122.601538 110.306232 122.110958 110.402929 121.624833 
C 110.499625 121.138708 110.620131 120.657623 110.76401 120.183316 
L 95.995833 115.703439 
C 95.705321 116.66113 95.462004 117.632507 95.26676 118.614062 
C 95.071517 119.595617 94.924583 120.586166 94.826489 121.582131 
z
" clip-path="url(#pd898382089)" style="fill: #ff8c8e"/>
   </g>
   <g id="patch_93">
    <path d="M 118.293672 122.467414 
C 118.36279 122.239565 118.443052 122.015246 118.53417 121.795268 
C 118.625288 121.575291 118.727151 121.359919 118.839391 121.149932 
L 118.839391 121.149932 
C 118.727151 121.359919 118.625288 121.575291 118.53417 121.795268 
C 118.443052 122.015246 118.36279 122.239565 118.293672 122.467414 
z
" clip-path="url(#pd898382089)" style="fill: #ff8c8e"/>
   </g>
   <g id="patch_94">
    <path d="M 125.254844 124.579063 
C 125.254844 124.579063 125.254844 124.579063 125.254844 124.579063 
C 125.254844 124.579063 125.254844 124.579063 125.254844 124.579063 
L 125.254844 124.579063 
C 125.254844 124.579063 125.254844 124.579063 125.254844 124.579063 
C 125.254844 124.579063 125.254844 124.579063 125.254844 124.579063 
z
" clip-path="url(#pd898382089)" style="fill: #ff8c8e"/>
   </g>
   <g id="patch_95">
    <path d="M 125.254844 124.579063 
C 125.254844 124.579063 125.254844 124.579063 125.254844 124.579063 
C 125.254844 124.579063 125.254844 124.579063 125.254844 124.579063 
L 122.590468 121.332512 
C 122.484204 121.419721 122.382285 121.512094 122.28508 121.609299 
C 122.187876 121.706504 122.095502 121.808423 122.008293 121.914687 
z
" clip-path="url(#pd898382089)" style="fill: #ff8c8e"/>
   </g>
   <g id="patch_96">
    <path d="M 125.254844 124.579063 
C 125.254844 124.579063 125.254844 124.579063 125.254844 124.579063 
C 125.254844 124.579063 125.254844 124.579063 125.254844 124.579063 
L 125.254844 124.579063 
C 125.254844 124.579063 125.254844 124.579063 125.254844 124.579063 
C 125.254844 124.579063 125.254844 124.579063 125.254844 124.579063 
z
" clip-path="url(#pd898382089)" style="fill: #ff8c8e"/>
   </g>
   <g id="patch_97">
    <path d="M 125.254844 124.579063 
C 125.254844 124.579063 125.254844 124.579063 125.254844 124.579063 
C 125.254844 124.579063 125.254844 124.579063 125.254844 124.579063 
L 125.254844 124.579063 
C 125.254844 124.579063 125.254844 124.579063 125.254844 124.579063 
C 125.254844 124.579063 125.254844 124.579063 125.254844 124.579063 
z
" clip-path="url(#pd898382089)" style="fill: #ff8c8e"/>
   </g>
   <g id="patch_98">
    <path d="M 122.268522 114.73448 
C 122.59075 114.636733 122.917583 114.554865 123.24784 114.489173 
C 123.578097 114.423481 123.911381 114.374043 124.246486 114.341038 
L 122.890036 100.568767 
C 122.104143 100.64617 121.322524 100.762113 120.548003 100.916175 
C 119.773481 101.070236 119.00699 101.262232 118.251299 101.491469 
z
" clip-path="url(#pd898382089)" style="fill: #ff8c8e"/>
   </g>
   <g id="patch_99">
    <path d="M 123.238129 104.103013 
C 123.908341 104.037003 124.581389 104.003939 125.254844 104.003939 
C 125.928298 104.003939 126.601347 104.037003 127.271559 104.103013 
L 127.313145 103.680782 
C 126.629113 103.613411 125.942185 103.579665 125.254844 103.579665 
C 124.567502 103.579665 123.880575 103.613411 123.196543 103.680782 
z
" clip-path="url(#pd898382089)" style="fill: #828282"/>
   </g>
   <g id="patch_100">
    <path d="M 126.901484 107.860438 
C 127.44871 107.914335 127.99296 107.995067 128.532267 108.102342 
C 129.071575 108.209617 129.605291 108.343306 130.131486 108.502926 
L 130.569042 107.060499 
C 129.995633 106.886557 129.41403 106.740873 128.826333 106.623973 
C 128.238636 106.507073 127.645554 106.419097 127.049229 106.360364 
z
" clip-path="url(#pd898382089)" style="fill: #828282"/>
   </g>
   <g id="patch_101">
    <path d="M 131.227487 104.889897 
C 131.871943 105.08539 132.506412 105.312407 133.128603 105.570127 
C 133.750794 105.827847 134.359956 106.115959 134.95389 106.433423 
L 137.93181 100.862127 
C 137.155519 100.447191 136.359324 100.070618 135.546101 99.73377 
C 134.732877 99.396922 133.903606 99.100204 133.061281 98.844687 
z
" clip-path="url(#pd898382089)" style="fill: #828282"/>
   </g>
   <g id="patch_102">
    <path d="M 140.202078 96.614754 
C 141.117391 97.104 142.008133 97.637889 142.871084 98.214495 
C 143.734036 98.791101 144.568158 99.409728 145.370437 100.068141 
L 146.569847 98.606656 
C 145.719731 97.908984 144.835874 97.253471 143.921468 96.642485 
C 143.007062 96.031498 142.06321 95.465775 141.09332 94.947358 
z
" clip-path="url(#pd898382089)" style="fill: #828282"/>
   </g>
   <g id="patch_103">
    <path d="M 155.516331 87.705333 
C 156.723263 88.695837 157.880837 89.745001 158.984871 90.849035 
C 160.088905 91.953069 161.138069 93.110643 162.128573 94.317575 
L 162.271218 94.200509 
C 161.276883 92.988908 160.22366 91.826856 159.115355 90.718551 
C 158.00705 89.610246 156.844998 88.557023 155.633397 87.562688 
z
" clip-path="url(#pd898382089)" style="fill: #828282"/>
   </g>
   <g id="patch_104">
    <path d="M 160.670532 95.514158 
C 161.62187 96.673367 162.51572 97.878584 163.348855 99.125458 
C 164.181989 100.372332 164.953403 101.659359 165.660311 102.98189 
L 174.393467 98.313921 
C 173.53377 96.705541 172.595624 95.140338 171.582417 93.623968 
C 170.569211 92.107597 169.482165 90.641886 168.325207 89.232129 
z
" clip-path="url(#pd898382089)" style="fill: #828282"/>
   </g>
   <g id="patch_105">
    <path d="M 161.35661 105.282266 
C 161.988223 106.463931 162.561439 107.675894 163.074187 108.913777 
C 163.586935 110.151661 164.038598 111.413973 164.427543 112.696154 
L 176.723594 108.966188 
C 176.212561 107.281539 175.619125 105.622995 174.945429 103.996548 
C 174.271732 102.370101 173.518588 100.777711 172.688716 99.22513 
z
" clip-path="url(#pd898382089)" style="fill: #828282"/>
   </g>
   <g id="patch_106">
    <path d="M 170.902297 110.732059 
C 171.35553 112.226168 171.735134 113.741629 172.039736 115.272969 
C 172.344338 116.804308 172.573572 118.34968 172.72661 119.903502 
L 180.86155 119.10228 
C 180.682287 117.282189 180.41377 115.471997 180.05697 113.678242 
C 179.70017 111.884486 179.255517 110.10933 178.724616 108.359185 
z
" clip-path="url(#pd898382089)" style="fill: #828282"/>
   </g>
   <g id="patch_107">
    <path d="M 183.470715 118.8453 
C 183.65839 120.750792 183.752397 122.66435 183.752397 124.579063 
C 183.752397 126.493775 183.65839 128.407333 183.470715 130.312825 
L 195.939241 131.540868 
C 196.167111 129.227262 196.281252 126.903863 196.281252 124.579063 
C 196.281252 122.254262 196.167111 119.930863 195.939241 117.617257 
z
" clip-path="url(#pd898382089)" style="fill: #828282"/>
   </g>
   <g id="patch_108">
    <path d="M 193.037474 131.255069 
C 192.818958 133.473696 192.491645 135.680256 192.056719 137.866782 
C 191.621792 140.053307 191.079775 142.21716 190.432625 144.350526 
L 193.460115 145.268905 
C 194.137325 143.036445 194.704518 140.772081 195.159648 138.483993 
C 195.614777 136.195904 195.957293 133.886849 196.185958 131.565168 
z
" clip-path="url(#pd898382089)" style="fill: #828282"/>
   </g>
   <g id="patch_109">
    <path d="M 204.318552 148.562776 
C 203.533529 151.150649 202.621922 153.698421 201.587024 156.196887 
C 200.552125 158.695353 199.395183 161.141503 198.120375 163.5265 
L 217.482781 173.875922 
C 219.096341 170.857164 220.560716 167.761004 221.870616 164.598626 
C 223.180516 161.436247 224.334362 158.211462 225.327988 154.935919 
z
" clip-path="url(#pd898382089)" style="fill: #828282"/>
   </g>
   <g id="patch_110">
    <path d="M 202.595864 165.918699 
C 201.242756 168.450186 199.766174 170.913714 198.171453 173.300383 
C 196.576731 175.687053 194.865792 177.993987 193.044815 180.212854 
L 197.994972 184.275343 
C 199.948921 181.89445 201.784796 179.419059 203.495967 176.85811 
C 205.207139 174.297161 206.791543 171.653742 208.243458 168.937401 
z
" clip-path="url(#pd898382089)" style="fill: #828282"/>
   </g>
   <g id="patch_111">
    <path d="M 203.442141 188.745719 
C 201.341871 191.304906 199.117217 193.759433 196.776216 196.100434 
C 194.435214 198.441436 191.980687 200.666089 189.4215 202.76636 
L 195.545894 210.228955 
C 198.349343 207.928224 201.038143 205.491238 203.602581 202.9268 
C 206.16702 200.362362 208.604006 197.673562 210.904737 194.870113 
z
" clip-path="url(#pd898382089)" style="fill: #828282"/>
   </g>
   <g id="patch_112">
    <path d="M 179.858291 191.113555 
C 177.680517 192.900808 175.416308 194.58006 173.07384 196.145247 
C 170.731371 197.710434 168.313469 199.159669 165.828865 200.487718 
L 170.314543 208.879831 
C 173.073833 207.404959 175.759048 205.795504 178.360489 204.057277 
C 180.961929 202.319049 183.47646 200.454147 185.894998 198.469304 
z
" clip-path="url(#pd898382089)" style="fill: #828282"/>
   </g>
   <g id="patch_113">
    <path d="M 164.453073 197.91379 
C 162.052717 199.196807 159.590816 200.361199 157.076262 201.402762 
C 154.561708 202.444325 151.997531 203.361802 149.392994 204.151879 
L 157.441609 230.684609 
C 160.914602 229.631088 164.333777 228.407688 167.686784 227.018827 
C 171.03979 225.629967 174.322586 224.07732 177.523315 222.366494 
z
" clip-path="url(#pd898382089)" style="fill: #828282"/>
   </g>
   <g id="patch_114">
    <path d="M 151.909611 212.448055 
C 149.033528 213.320505 146.116343 214.051222 143.168594 214.637566 
C 140.220845 215.22391 137.246084 215.665174 134.255057 215.959764 
L 135.031231 223.840393 
C 138.280203 223.520397 141.511505 223.041079 144.713467 222.404169 
C 147.915429 221.767259 151.08419 220.973526 154.208306 220.025836 
z
" clip-path="url(#pd898382089)" style="fill: #828282"/>
   </g>
   <g id="patch_115">
    <path d="M 133.840698 211.7527 
C 130.987374 212.033728 128.121973 212.174496 125.254844 212.174496 
C 122.387714 212.174496 119.522313 212.033728 116.66899 211.7527 
L 116.444931 214.027607 
C 119.372715 214.315969 122.312893 214.46041 125.254844 214.46041 
C 128.196794 214.46041 131.136972 214.315969 134.064756 214.027607 
z
" clip-path="url(#pd898382089)" style="fill: #828282"/>
   </g>
   <g id="patch_116">
    <path d="M 120.179556 176.109323 
C 118.492894 175.943201 116.815404 175.694369 115.153146 175.363725 
C 113.490888 175.033081 111.845866 174.621025 110.224021 174.129044 
L 110.224021 174.129044 
C 111.845866 174.621025 113.490888 175.033081 115.153146 175.363725 
C 116.815404 175.694369 118.492894 175.943201 120.179556 176.109323 
z
" clip-path="url(#pd898382089)" style="fill: #828282"/>
   </g>
   <g id="patch_117">
    <path d="M 107.799119 182.122875 
C 105.915624 181.551523 104.061316 180.888041 102.242893 180.134825 
C 100.42447 179.38161 98.644124 178.539569 96.908285 177.611743 
L 95.822859 179.642433 
C 97.625166 180.605785 99.473684 181.480069 101.361736 182.262126 
C 103.249789 183.044183 105.175101 183.733071 107.130717 184.326301 
z
" clip-path="url(#pd898382089)" style="fill: #828282"/>
   </g>
   <g id="patch_118">
    <path d="M 102.422566 167.295249 
C 101.024402 166.547914 99.663772 165.732384 98.345592 164.851604 
C 97.027411 163.970824 95.753269 163.025856 94.527768 162.020113 
L 84.323932 174.453522 
C 85.956398 175.793252 87.653656 177.052025 89.409578 178.225294 
C 91.165499 179.398563 92.977966 180.484914 94.840433 181.480423 
z
" clip-path="url(#pd898382089)" style="fill: #828282"/>
   </g>
   <g id="patch_119">
    <path d="M 90.413614 167.033223 
C 89.024026 165.892818 87.691267 164.684875 86.420149 163.413757 
C 85.149032 162.14264 83.941088 160.80988 82.800683 159.420292 
L 80.740382 161.111137 
C 81.936131 162.568162 83.202696 163.965601 84.535501 165.298406 
C 85.868305 166.631211 87.265744 167.897775 88.722769 169.093525 
z
" clip-path="url(#pd898382089)" style="fill: #828282"/>
   </g>
   <g id="patch_120">
    <path d="M 93.611381 150.548182 
C 92.761373 149.512444 91.962729 148.435597 91.218334 147.321531 
C 90.473939 146.207466 89.78469 145.057524 89.153077 143.875859 
L 89.153077 143.875859 
C 89.78469 145.057524 90.473939 146.207466 91.218334 147.321531 
C 91.962729 148.435597 92.761373 149.512444 93.611381 150.548182 
z
" clip-path="url(#pd898382089)" style="fill: #828282"/>
   </g>
   <g id="patch_121">
    <path d="M 88.775038 144.077925 
C 88.136811 142.883886 87.557593 141.659232 87.039475 140.408386 
C 86.521358 139.15754 86.064966 137.88201 85.671948 136.586403 
L 85.671948 136.586403 
C 86.064966 137.88201 86.521358 139.15754 87.039475 140.408386 
C 87.557593 141.659232 88.136811 142.883886 88.775038 144.077925 
z
" clip-path="url(#pd898382089)" style="fill: #828282"/>
   </g>
   <g id="patch_122">
    <path d="M 96.273176 133.370555 
C 95.985418 132.421942 95.744407 131.459772 95.551014 130.487522 
C 95.357621 129.515271 95.21208 128.534111 95.114916 127.547586 
L 95.114916 127.547586 
C 95.21208 128.534111 95.357621 129.515271 95.551014 130.487522 
C 95.744407 131.459772 95.985418 132.421942 96.273176 133.370555 
z
" clip-path="url(#pd898382089)" style="fill: #828282"/>
   </g>
   <g id="patch_123">
    <path d="M 93.977162 127.659645 
C 93.87633 126.63588 93.825823 125.607781 93.825823 124.579062 
C 93.825823 123.550344 93.87633 122.522245 93.977162 121.49848 
L 93.977162 121.49848 
C 93.87633 122.522245 93.825823 123.550344 93.825823 124.579062 
C 93.825823 125.607781 93.87633 126.63588 93.977162 127.659645 
z
" clip-path="url(#pd898382089)" style="fill: #828282"/>
   </g>
   <g id="patch_124">
    <path d="M 94.826489 121.582131 
C 94.924583 120.586166 95.071517 119.595617 95.26676 118.614062 
C 95.462004 117.632507 95.705321 116.66113 95.995833 115.703439 
L 95.995833 115.703439 
C 95.705321 116.66113 95.462004 117.632507 95.26676 118.614062 
C 95.071517 119.595617 94.924583 120.586166 94.826489 121.582131 
z
" clip-path="url(#pd898382089)" style="fill: #828282"/>
   </g>
   <g id="patch_125">
    <path d="M 118.293672 122.467414 
C 118.36279 122.239565 118.443052 122.015246 118.53417 121.795268 
C 118.625288 121.575291 118.727151 121.359919 118.839391 121.149932 
L 118.839391 121.149932 
C 118.727151 121.359919 118.625288 121.575291 118.53417 121.795268 
C 118.443052 122.015246 118.36279 122.239565 118.293672 122.467414 
z
" clip-path="url(#pd898382089)" style="fill: #828282"/>
   </g>
   <g id="patch_126">
    <path d="M 125.254844 124.579063 
C 125.254844 124.579063 125.254844 124.579063 125.254844 124.579063 
C 125.254844 124.579063 125.254844 124.579063 125.254844 124.579063 
L 125.254844 124.579063 
C 125.254844 124.579063 125.254844 124.579063 125.254844 124.579063 
C 125.254844 124.579063 125.254844 124.579063 125.254844 124.579063 
z
" clip-path="url(#pd898382089)" style="fill: #828282"/>
   </g>
   <g id="patch_127">
    <path d="M 122.008293 121.914687 
C 122.095502 121.808423 122.187876 121.706504 122.28508 121.609299 
C 122.382285 121.512094 122.484204 121.419721 122.590468 121.332512 
L 122.590468 121.332512 
C 122.484204 121.419721 122.382285 121.512094 122.28508 121.609299 
C 122.187876 121.706504 122.095502 121.808423 122.008293 121.914687 
z
" clip-path="url(#pd898382089)" style="fill: #828282"/>
   </g>
   <g id="patch_128">
    <path d="M 125.254844 124.579063 
C 125.254844 124.579063 125.254844 124.579063 125.254844 124.579063 
C 125.254844 124.579063 125.254844 124.579063 125.254844 124.579063 
L 125.254844 124.579063 
C 125.254844 124.579063 125.254844 124.579063 125.254844 124.579063 
C 125.254844 124.579063 125.254844 124.579063 125.254844 124.579063 
z
" clip-path="url(#pd898382089)" style="fill: #828282"/>
   </g>
   <g id="patch_129">
    <path d="M 125.254844 124.579063 
C 125.254844 124.579063 125.254844 124.579063 125.254844 124.579063 
C 125.254844 124.579063 125.254844 124.579063 125.254844 124.579063 
L 125.254844 124.579063 
C 125.254844 124.579063 125.254844 124.579063 125.254844 124.579063 
C 125.254844 124.579063 125.254844 124.579063 125.254844 124.579063 
z
" clip-path="url(#pd898382089)" style="fill: #828282"/>
   </g>
   <g id="patch_130">
    <path d="M 118.251299 101.491469 
C 119.00699 101.262232 119.773481 101.070236 120.548003 100.916175 
C 121.322524 100.762113 122.104143 100.64617 122.890036 100.568767 
L 122.854473 100.207689 
C 122.056762 100.286257 121.263388 100.403943 120.477219 100.560322 
C 119.69105 100.7167 118.913032 100.911584 118.145976 101.144268 
z
" clip-path="url(#pd898382089)" style="fill: #828282"/>
   </g>
   <g id="patch_131">
    <path d="M 125.254844 124.579063 
C 125.254844 124.579063 125.254844 124.579063 125.254844 124.579063 
C 125.254844 124.579063 125.254844 124.579063 125.254844 124.579063 
L 127.313145 103.680782 
C 126.629113 103.613411 125.942185 103.579665 125.254844 103.579665 
C 124.567502 103.579665 123.880575 103.613411 123.196543 103.680782 
L 125.254844 124.579063 
z
" clip-path="url(#pd898382089)" style="fill: none; stroke: #292929; stroke-width: 0.5; stroke-linejoin: miter"/>
   </g>
   <g id="patch_132">
    <path d="M 125.254844 124.579063 
C 125.254844 124.579063 125.254844 124.579063 125.254844 124.579063 
C 125.254844 124.579063 125.254844 124.579063 125.254844 124.579063 
L 130.569042 107.060499 
C 129.995633 106.886557 129.41403 106.740873 128.826333 106.623973 
C 128.238636 106.507073 127.645554 106.419097 127.049229 106.360364 
L 125.254844 124.579063 
z
" clip-path="url(#pd898382089)" style="fill: none; stroke: #292929; stroke-width: 0.5; stroke-linejoin: miter"/>
   </g>
   <g id="patch_133">
    <path d="M 125.254844 124.579063 
C 125.254844 124.579063 125.254844 124.579063 125.254844 124.579063 
C 125.254844 124.579063 125.254844 124.579063 125.254844 124.579063 
L 137.93181 100.862127 
C 137.155519 100.447191 136.359324 100.070618 135.546101 99.73377 
C 134.732877 99.396922 133.903606 99.100204 133.061281 98.844687 
L 125.254844 124.579063 
z
" clip-path="url(#pd898382089)" style="fill: none; stroke: #292929; stroke-width: 0.5; stroke-linejoin: miter"/>
   </g>
   <g id="patch_134">
    <path d="M 125.254844 124.579063 
C 125.254844 124.579063 125.254844 124.579063 125.254844 124.579063 
C 125.254844 124.579063 125.254844 124.579063 125.254844 124.579063 
L 146.569847 98.606656 
C 145.719731 97.908984 144.835874 97.253471 143.921468 96.642485 
C 143.007062 96.031498 142.06321 95.465775 141.09332 94.947358 
L 125.254844 124.579063 
z
" clip-path="url(#pd898382089)" style="fill: none; stroke: #292929; stroke-width: 0.5; stroke-linejoin: miter"/>
   </g>
   <g id="patch_135">
    <path d="M 125.254844 124.579063 
C 125.254844 124.579063 125.254844 124.579063 125.254844 124.579063 
C 125.254844 124.579063 125.254844 124.579063 125.254844 124.579063 
L 162.271218 94.200509 
C 161.276883 92.988908 160.22366 91.826856 159.115355 90.718551 
C 158.00705 89.610246 156.844998 88.557023 155.633397 87.562688 
L 125.254844 124.579063 
z
" clip-path="url(#pd898382089)" style="fill: none; stroke: #292929; stroke-width: 0.5; stroke-linejoin: miter"/>
   </g>
   <g id="patch_136">
    <path d="M 125.254844 124.579063 
C 125.254844 124.579063 125.254844 124.579063 125.254844 124.579063 
C 125.254844 124.579063 125.254844 124.579063 125.254844 124.579063 
L 174.393467 98.313921 
C 173.53377 96.705541 172.595624 95.140338 171.582417 93.623968 
C 170.569211 92.107597 169.482165 90.641886 168.325207 89.232129 
L 125.254844 124.579063 
z
" clip-path="url(#pd898382089)" style="fill: none; stroke: #292929; stroke-width: 0.5; stroke-linejoin: miter"/>
   </g>
   <g id="patch_137">
    <path d="M 125.254844 124.579063 
C 125.254844 124.579063 125.254844 124.579063 125.254844 124.579063 
C 125.254844 124.579063 125.254844 124.579063 125.254844 124.579063 
L 176.723594 108.966188 
C 176.212561 107.281539 175.619125 105.622995 174.945429 103.996548 
C 174.271732 102.370101 173.518588 100.777711 172.688716 99.22513 
L 125.254844 124.579063 
z
" clip-path="url(#pd898382089)" style="fill: none; stroke: #292929; stroke-width: 0.5; stroke-linejoin: miter"/>
   </g>
   <g id="patch_138">
    <path d="M 125.254844 124.579063 
C 125.254844 124.579063 125.254844 124.579063 125.254844 124.579063 
C 125.254844 124.579063 125.254844 124.579063 125.254844 124.579063 
L 180.86155 119.10228 
C 180.682287 117.282189 180.41377 115.471997 180.05697 113.678242 
C 179.70017 111.884486 179.255517 110.10933 178.724616 108.359185 
L 125.254844 124.579063 
z
" clip-path="url(#pd898382089)" style="fill: none; stroke: #292929; stroke-width: 0.5; stroke-linejoin: miter"/>
   </g>
   <g id="patch_139">
    <path d="M 125.254844 124.579063 
C 125.254844 124.579063 125.254844 124.579063 125.254844 124.579063 
C 125.254844 124.579063 125.254844 124.579063 125.254844 124.579063 
L 195.939241 131.540868 
C 196.167111 129.227262 196.281252 126.903863 196.281252 124.579063 
C 196.281252 122.254262 196.167111 119.930863 195.939241 117.617257 
L 125.254844 124.579063 
z
" clip-path="url(#pd898382089)" style="fill: none; stroke: #292929; stroke-width: 0.5; stroke-linejoin: miter"/>
   </g>
   <g id="patch_140">
    <path d="M 125.254844 124.579063 
C 125.254844 124.579063 125.254844 124.579063 125.254844 124.579063 
C 125.254844 124.579063 125.254844 124.579063 125.254844 124.579063 
L 193.460115 145.268905 
C 194.137325 143.036445 194.704518 140.772081 195.159648 138.483993 
C 195.614777 136.195904 195.957293 133.886849 196.185958 131.565168 
L 125.254844 124.579063 
z
" clip-path="url(#pd898382089)" style="fill: none; stroke: #292929; stroke-width: 0.5; stroke-linejoin: miter"/>
   </g>
   <g id="patch_141">
    <path d="M 125.254844 124.579063 
C 125.254844 124.579063 125.254844 124.579063 125.254844 124.579063 
C 125.254844 124.579063 125.254844 124.579063 125.254844 124.579063 
L 217.482781 173.875922 
C 219.096341 170.857164 220.560716 167.761004 221.870616 164.598626 
C 223.180516 161.436247 224.334362 158.211462 225.327988 154.935919 
L 125.254844 124.579063 
z
" clip-path="url(#pd898382089)" style="fill: none; stroke: #292929; stroke-width: 0.5; stroke-linejoin: miter"/>
   </g>
   <g id="patch_142">
    <path d="M 125.254844 124.579063 
C 125.254844 124.579063 125.254844 124.579063 125.254844 124.579063 
C 125.254844 124.579063 125.254844 124.579063 125.254844 124.579063 
L 197.994972 184.275343 
C 199.948921 181.89445 201.784796 179.419059 203.495967 176.85811 
C 205.207139 174.297161 206.791543 171.653742 208.243458 168.937401 
L 125.254844 124.579063 
z
" clip-path="url(#pd898382089)" style="fill: none; stroke: #292929; stroke-width: 0.5; stroke-linejoin: miter"/>
   </g>
   <g id="patch_143">
    <path d="M 125.254844 124.579063 
C 125.254844 124.579063 125.254844 124.579063 125.254844 124.579063 
C 125.254844 124.579063 125.254844 124.579063 125.254844 124.579063 
L 195.545894 210.228955 
C 198.349343 207.928224 201.038143 205.491238 203.602581 202.9268 
C 206.16702 200.362362 208.604006 197.673562 210.904737 194.870113 
L 125.254844 124.579063 
z
" clip-path="url(#pd898382089)" style="fill: none; stroke: #292929; stroke-width: 0.5; stroke-linejoin: miter"/>
   </g>
   <g id="patch_144">
    <path d="M 125.254844 124.579063 
C 125.254844 124.579063 125.254844 124.579063 125.254844 124.579063 
C 125.254844 124.579063 125.254844 124.579063 125.254844 124.579063 
L 170.314543 208.879831 
C 173.073833 207.404959 175.759048 205.795504 178.360489 204.057277 
C 180.961929 202.319049 183.47646 200.454147 185.894998 198.469304 
L 125.254844 124.579063 
z
" clip-path="url(#pd898382089)" style="fill: none; stroke: #292929; stroke-width: 0.5; stroke-linejoin: miter"/>
   </g>
   <g id="patch_145">
    <path d="M 125.254844 124.579063 
C 125.254844 124.579063 125.254844 124.579063 125.254844 124.579063 
C 125.254844 124.579063 125.254844 124.579063 125.254844 124.579063 
L 157.441609 230.684609 
C 160.914602 229.631088 164.333777 228.407688 167.686784 227.018827 
C 171.03979 225.629967 174.322586 224.07732 177.523315 222.366494 
L 125.254844 124.579063 
z
" clip-path="url(#pd898382089)" style="fill: none; stroke: #292929; stroke-width: 0.5; stroke-linejoin: miter"/>
   </g>
   <g id="patch_146">
    <path d="M 125.254844 124.579063 
C 125.254844 124.579063 125.254844 124.579063 125.254844 124.579063 
C 125.254844 124.579063 125.254844 124.579063 125.254844 124.579063 
L 135.031231 223.840393 
C 138.280203 223.520397 141.511505 223.041079 144.713467 222.404169 
C 147.915429 221.767259 151.08419 220.973526 154.208306 220.025836 
L 125.254844 124.579063 
z
" clip-path="url(#pd898382089)" style="fill: none; stroke: #292929; stroke-width: 0.5; stroke-linejoin: miter"/>
   </g>
   <g id="patch_147">
    <path d="M 125.254844 124.579063 
C 125.254844 124.579063 125.254844 124.579063 125.254844 124.579063 
C 125.254844 124.579063 125.254844 124.579063 125.254844 124.579063 
L 116.444931 214.027607 
C 119.372715 214.315969 122.312893 214.46041 125.254844 214.46041 
C 128.196794 214.46041 131.136972 214.315969 134.064756 214.027607 
L 125.254844 124.579063 
z
" clip-path="url(#pd898382089)" style="fill: none; stroke: #292929; stroke-width: 0.5; stroke-linejoin: miter"/>
   </g>
   <g id="patch_148">
    <path d="M 125.254844 124.579063 
C 125.254844 124.579063 125.254844 124.579063 125.254844 124.579063 
C 125.254844 124.579063 125.254844 124.579063 125.254844 124.579063 
L 110.224021 174.129044 
C 111.845866 174.621025 113.490888 175.033081 115.153146 175.363725 
C 116.815404 175.694369 118.492894 175.943201 120.179556 176.109323 
L 125.254844 124.579063 
z
" clip-path="url(#pd898382089)" style="fill: none; stroke: #292929; stroke-width: 0.5; stroke-linejoin: miter"/>
   </g>
   <g id="patch_149">
    <path d="M 125.254844 124.579063 
C 125.254844 124.579063 125.254844 124.579063 125.254844 124.579063 
C 125.254844 124.579063 125.254844 124.579063 125.254844 124.579063 
L 95.822859 179.642433 
C 97.625166 180.605785 99.473684 181.480069 101.361736 182.262126 
C 103.249789 183.044183 105.175101 183.733071 107.130717 184.326301 
L 125.254844 124.579063 
z
" clip-path="url(#pd898382089)" style="fill: none; stroke: #292929; stroke-width: 0.5; stroke-linejoin: miter"/>
   </g>
   <g id="patch_150">
    <path d="M 125.254844 124.579063 
C 125.254844 124.579063 125.254844 124.579063 125.254844 124.579063 
C 125.254844 124.579063 125.254844 124.579063 125.254844 124.579063 
L 84.323932 174.453522 
C 85.956398 175.793252 87.653656 177.052025 89.409578 178.225294 
C 91.165499 179.398563 92.977966 180.484914 94.840433 181.480423 
L 125.254844 124.579063 
z
" clip-path="url(#pd898382089)" style="fill: none; stroke: #292929; stroke-width: 0.5; stroke-linejoin: miter"/>
   </g>
   <g id="patch_151">
    <path d="M 125.254844 124.579063 
C 125.254844 124.579063 125.254844 124.579063 125.254844 124.579063 
C 125.254844 124.579063 125.254844 124.579063 125.254844 124.579063 
L 80.740382 161.111137 
C 81.936131 162.568162 83.202696 163.965601 84.535501 165.298406 
C 85.868305 166.631211 87.265744 167.897775 88.722769 169.093525 
L 125.254844 124.579063 
z
" clip-path="url(#pd898382089)" style="fill: none; stroke: #292929; stroke-width: 0.5; stroke-linejoin: miter"/>
   </g>
   <g id="patch_152">
    <path d="M 125.254844 124.579063 
C 125.254844 124.579063 125.254844 124.579063 125.254844 124.579063 
C 125.254844 124.579063 125.254844 124.579063 125.254844 124.579063 
L 89.153077 143.875859 
C 89.78469 145.057524 90.473939 146.207466 91.218334 147.321531 
C 91.962729 148.435597 92.761373 149.512444 93.611381 150.548182 
L 125.254844 124.579063 
z
" clip-path="url(#pd898382089)" style="fill: none; stroke: #292929; stroke-width: 0.5; stroke-linejoin: miter"/>
   </g>
   <g id="patch_153">
    <path d="M 125.254844 124.579063 
C 125.254844 124.579063 125.254844 124.579063 125.254844 124.579063 
C 125.254844 124.579063 125.254844 124.579063 125.254844 124.579063 
L 85.671948 136.586403 
C 86.064966 137.88201 86.521358 139.15754 87.039475 140.408386 
C 87.557593 141.659232 88.136811 142.883886 88.775038 144.077925 
L 125.254844 124.579063 
z
" clip-path="url(#pd898382089)" style="fill: none; stroke: #292929; stroke-width: 0.5; stroke-linejoin: miter"/>
   </g>
   <g id="patch_154">
    <path d="M 125.254844 124.579063 
C 125.254844 124.579063 125.254844 124.579063 125.254844 124.579063 
C 125.254844 124.579063 125.254844 124.579063 125.254844 124.579063 
L 95.114916 127.547586 
C 95.21208 128.534111 95.357621 129.515271 95.551014 130.487522 
C 95.744407 131.459772 95.985418 132.421942 96.273176 133.370555 
L 125.254844 124.579063 
z
" clip-path="url(#pd898382089)" style="fill: none; stroke: #292929; stroke-width: 0.5; stroke-linejoin: miter"/>
   </g>
   <g id="patch_155">
    <path d="M 125.254844 124.579063 
C 125.254844 124.579063 125.254844 124.579063 125.254844 124.579063 
C 125.254844 124.579063 125.254844 124.579063 125.254844 124.579063 
L 93.977162 121.49848 
C 93.87633 122.522245 93.825823 123.550344 93.825823 124.579062 
C 93.825823 125.607781 93.87633 126.63588 93.977162 127.659645 
L 125.254844 124.579063 
z
" clip-path="url(#pd898382089)" style="fill: none; stroke: #292929; stroke-width: 0.5; stroke-linejoin: miter"/>
   </g>
   <g id="patch_156">
    <path d="M 125.254844 124.579063 
C 125.254844 124.579063 125.254844 124.579063 125.254844 124.579063 
C 125.254844 124.579063 125.254844 124.579063 125.254844 124.579063 
L 95.995833 115.703439 
C 95.705321 116.66113 95.462004 117.632507 95.26676 118.614062 
C 95.071517 119.595617 94.924583 120.586166 94.826489 121.582131 
L 125.254844 124.579063 
z
" clip-path="url(#pd898382089)" style="fill: none; stroke: #292929; stroke-width: 0.5; stroke-linejoin: miter"/>
   </g>
   <g id="patch_157">
    <path d="M 125.254844 124.579063 
C 125.254844 124.579063 125.254844 124.579063 125.254844 124.579063 
C 125.254844 124.579063 125.254844 124.579063 125.254844 124.579063 
L 118.839391 121.149932 
C 118.727151 121.359919 118.625288 121.575291 118.53417 121.795268 
C 118.443052 122.015246 118.36279 122.239565 118.293672 122.467414 
L 125.254844 124.579063 
z
" clip-path="url(#pd898382089)" style="fill: none; stroke: #292929; stroke-width: 0.5; stroke-linejoin: miter"/>
   </g>
   <g id="patch_158">
    <path d="M 125.254844 124.579063 
C 125.254844 124.579063 125.254844 124.579063 125.254844 124.579063 
C 125.254844 124.579063 125.254844 124.579063 125.254844 124.579063 
L 125.254844 124.579063 
C 125.254844 124.579063 125.254844 124.579063 125.254844 124.579063 
C 125.254844 124.579063 125.254844 124.579063 125.254844 124.579063 
L 125.254844 124.579063 
z
" clip-path="url(#pd898382089)" style="fill: none; stroke: #292929; stroke-width: 0.5; stroke-linejoin: miter"/>
   </g>
   <g id="patch_159">
    <path d="M 125.254844 124.579063 
C 125.254844 124.579063 125.254844 124.579063 125.254844 124.579063 
C 125.254844 124.579063 125.254844 124.579063 125.254844 124.579063 
L 122.590468 121.332512 
C 122.484204 121.419721 122.382285 121.512094 122.28508 121.609299 
C 122.187876 121.706504 122.095502 121.808423 122.008293 121.914687 
L 125.254844 124.579063 
z
" clip-path="url(#pd898382089)" style="fill: none; stroke: #292929; stroke-width: 0.5; stroke-linejoin: miter"/>
   </g>
   <g id="patch_160">
    <path d="M 125.254844 124.579063 
C 125.254844 124.579063 125.254844 124.579063 125.254844 124.579063 
C 125.254844 124.579063 125.254844 124.579063 125.254844 124.579063 
L 125.254844 124.579063 
C 125.254844 124.579063 125.254844 124.579063 125.254844 124.579063 
C 125.254844 124.579063 125.254844 124.579063 125.254844 124.579063 
L 125.254844 124.579063 
z
" clip-path="url(#pd898382089)" style="fill: none; stroke: #292929; stroke-width: 0.5; stroke-linejoin: miter"/>
   </g>
   <g id="patch_161">
    <path d="M 125.254844 124.579063 
C 125.254844 124.579063 125.254844 124.579063 125.254844 124.579063 
C 125.254844 124.579063 125.254844 124.579063 125.254844 124.579063 
L 125.254844 124.579063 
C 125.254844 124.579063 125.254844 124.579063 125.254844 124.579063 
C 125.254844 124.579063 125.254844 124.579063 125.254844 124.579063 
L 125.254844 124.579063 
z
" clip-path="url(#pd898382089)" style="fill: none; stroke: #292929; stroke-width: 0.5; stroke-linejoin: miter"/>
   </g>
   <g id="patch_162">
    <path d="M 125.254844 124.579063 
C 125.254844 124.579063 125.254844 124.579063 125.254844 124.579063 
C 125.254844 124.579063 125.254844 124.579063 125.254844 124.579063 
L 122.854473 100.207689 
C 122.056762 100.286257 121.263388 100.403943 120.477219 100.560322 
C 119.69105 100.7167 118.913032 100.911584 118.145976 101.144268 
L 125.254844 124.579063 
z
" clip-path="url(#pd898382089)" style="fill: none; stroke: #292929; stroke-width: 0.5; stroke-linejoin: miter"/>
   </g>
   <g id="PathCollection_1">
    <defs>
     <path id="m5cb1cefb6f" d="M 0.193618 7.414054 
L 0.193618 7.414054 
C 0.054922 7.414054 -0.078235 7.358899 -0.176308 7.260826 
C -0.274381 7.162753 -0.329536 7.029596 -0.329536 6.890901 
L -0.329536 5.365008 
L -1.528416 6.56393 
L -1.528416 6.56393 
C -1.577018 6.612704 -1.634775 6.651408 -1.698366 6.677814 
C -1.761958 6.704221 -1.830141 6.717815 -1.898997 6.717815 
C -1.967853 6.717815 -2.036037 6.704221 -2.099628 6.677814 
C -2.163219 6.651408 -2.220976 6.612704 -2.269578 6.56393 
L -2.269578 6.56393 
C -2.318353 6.515327 -2.357056 6.457571 -2.383463 6.393979 
C -2.409869 6.330388 -2.423463 6.262205 -2.423463 6.193348 
C -2.423463 6.124492 -2.409869 6.056309 -2.383463 5.992718 
C -2.357056 5.929126 -2.318353 5.87137 -2.269578 5.822767 
L -0.329536 3.884106 
L -0.329536 0.820937 
L -2.98067 2.351538 
L -3.691824 5.001416 
L -3.691824 5.001416 
C -3.727584 5.135411 -3.815199 5.249836 -3.93523 5.319305 
C -4.055261 5.388775 -4.198123 5.407741 -4.332122 5.371997 
L -4.332122 5.371997 
C -4.466126 5.336237 -4.580558 5.248616 -4.650029 5.128576 
C -4.719499 5.008535 -4.73846 4.865662 -4.702703 4.731657 
L -4.262647 3.092721 
L -5.585535 3.855668 
L -5.585535 3.855668 
C -5.645013 3.890144 -5.710708 3.912561 -5.778854 3.921634 
C -5.847001 3.930706 -5.916272 3.926258 -5.982698 3.908543 
C -6.049125 3.890828 -6.111412 3.860192 -6.165991 3.818391 
C -6.220571 3.77659 -6.266379 3.724437 -6.300791 3.664922 
L -6.300791 3.664922 
C -6.335212 3.605364 -6.35755 3.539597 -6.366524 3.471396 
C -6.375498 3.403194 -6.370933 3.333888 -6.35309 3.267452 
C -6.335248 3.201017 -6.304476 3.138749 -6.26254 3.08422 
C -6.220605 3.029692 -6.168323 2.983966 -6.108695 2.949666 
L -4.785807 2.186762 
L -6.424743 1.746706 
L -6.424743 1.746706 
C -6.558747 1.710946 -6.673179 1.623325 -6.74265 1.503284 
C -6.81212 1.383244 -6.831081 1.240371 -6.795324 1.106366 
L -6.795324 1.106366 
C -6.777471 1.039969 -6.746703 0.977739 -6.704784 0.923241 
C -6.662864 0.868744 -6.61061 0.823041 -6.551015 0.788752 
C -6.491421 0.754464 -6.425647 0.732257 -6.357465 0.723406 
C -6.289282 0.714554 -6.220019 0.71923 -6.153645 0.737166 
L -3.505232 1.44698 
L -0.852424 -0.08496 
L -3.503767 -1.615666 
L -6.153645 -0.905851 
L -6.153645 -0.905851 
C -6.22011 -0.887939 -6.289462 -0.883321 -6.357716 -0.892262 
C -6.42597 -0.901202 -6.491793 -0.923527 -6.551403 -0.957953 
C -6.611013 -0.992379 -6.663247 -1.038234 -6.705103 -1.092883 
C -6.746958 -1.147533 -6.777619 -1.209911 -6.795324 -1.276432 
L -6.795324 -1.276432 
C -6.831068 -1.410431 -6.812101 -1.553293 -6.742632 -1.673324 
C -6.673162 -1.793355 -6.558738 -1.88097 -6.424743 -1.91673 
L -4.785807 -2.355447 
L -6.108695 -3.119732 
L -6.108695 -3.119732 
C -6.228699 -3.188976 -6.316415 -3.303132 -6.352417 -3.436921 
C -6.388419 -3.57071 -6.369839 -3.713469 -6.300791 -3.833586 
L -6.300791 -3.833586 
C -6.266491 -3.893214 -6.220765 -3.945496 -6.166237 -3.987431 
C -6.111708 -4.029367 -6.04944 -4.060139 -5.983005 -4.077981 
C -5.91657 -4.095823 -5.847263 -4.100389 -5.779062 -4.091415 
C -5.71086 -4.082441 -5.645094 -4.060102 -5.585535 -4.025682 
L -4.262647 -3.261396 
L -4.702703 -4.900332 
L -4.702703 -4.900332 
C -4.73846 -5.034337 -4.719499 -5.17721 -4.650029 -5.29725 
C -4.580558 -5.417291 -4.466126 -5.504912 -4.332122 -5.540672 
L -4.332122 -5.540672 
C -4.19831 -5.576464 -4.055613 -5.557686 -3.935617 -5.488496 
C -3.81562 -5.419305 -3.727882 -5.305212 -3.691824 -5.171472 
L -2.982009 -2.521594 
L -0.329411 -0.990302 
L -0.329411 -4.051588 
L -2.269453 -5.991589 
L -2.269453 -5.991589 
C -2.318227 -6.040191 -2.356931 -6.097947 -2.383337 -6.161539 
C -2.409744 -6.22513 -2.423338 -6.293314 -2.423338 -6.36217 
C -2.423338 -6.431026 -2.409744 -6.499209 -2.383337 -6.5628 
C -2.356931 -6.626392 -2.318227 -6.684149 -2.269453 -6.732751 
L -2.269453 -6.732751 
C -2.22085 -6.781526 -2.163094 -6.820229 -2.099502 -6.846635 
C -2.035911 -6.873042 -1.967728 -6.886636 -1.898871 -6.886636 
C -1.830015 -6.886636 -1.761832 -6.873042 -1.698241 -6.846635 
C -1.634649 -6.820229 -1.576893 -6.781526 -1.52829 -6.732751 
L -0.329411 -5.533829 
L -0.329411 -7.059722 
L -0.329411 -7.059722 
C -0.329411 -7.198418 -0.274255 -7.331575 -0.176182 -7.429647 
C -0.07811 -7.52772 0.055047 -7.582875 0.193743 -7.582875 
L 0.193743 -7.582875 
C 0.332439 -7.582875 0.465596 -7.52772 0.563669 -7.429647 
C 0.661741 -7.331575 0.716897 -7.198418 0.716897 -7.059722 
L 0.716897 -5.533829 
L 1.915777 -6.732751 
L 1.915777 -6.732751 
C 1.964379 -6.781526 2.022136 -6.820229 2.085727 -6.846635 
C 2.149318 -6.873042 2.217502 -6.886636 2.286358 -6.886636 
C 2.355214 -6.886636 2.423397 -6.873042 2.486989 -6.846635 
C 2.55058 -6.820229 2.608337 -6.781526 2.656939 -6.732751 
L 2.656939 -6.732751 
C 2.705714 -6.684149 2.744417 -6.626392 2.770823 -6.5628 
C 2.79723 -6.499209 2.810824 -6.431026 2.810824 -6.36217 
C 2.810824 -6.293314 2.79723 -6.22513 2.770823 -6.161539 
C 2.744417 -6.097947 2.705714 -6.040191 2.656939 -5.991589 
L 0.716897 -4.051588 
L 0.716897 -0.991139 
L 3.369495 -2.522954 
L 4.07931 -5.171367 
L 4.07931 -5.171367 
C 4.115368 -5.305107 4.203106 -5.4192 4.323103 -5.488391 
C 4.4431 -5.557582 4.585797 -5.576359 4.719608 -5.540567 
L 4.719608 -5.540567 
C 4.853612 -5.504807 4.968045 -5.417186 5.037515 -5.297146 
C 5.106986 -5.177105 5.125946 -5.034232 5.090189 -4.900227 
L 4.650133 -3.262673 
L 5.973022 -4.025577 
L 5.973022 -4.025577 
C 6.03258 -4.059998 6.098346 -4.082336 6.166548 -4.09131 
C 6.234749 -4.100284 6.304056 -4.095719 6.370491 -4.077876 
C 6.436926 -4.060034 6.499194 -4.029262 6.553723 -3.987327 
C 6.608252 -3.945391 6.653978 -3.893109 6.688277 -3.833481 
L 6.688277 -3.833481 
C 6.757325 -3.713365 6.775905 -3.570605 6.739903 -3.436816 
C 6.703901 -3.303027 6.616186 -3.188871 6.496181 -3.119628 
L 5.173293 -2.355342 
L 6.812229 -1.916625 
L 6.812229 -1.916625 
C 6.946224 -1.880865 7.060649 -1.79325 7.130118 -1.67322 
C 7.199588 -1.553189 7.218554 -1.410326 7.18281 -1.276327 
L 7.18281 -1.276327 
C 7.165106 -1.209806 7.134445 -1.147429 7.092589 -1.092779 
C 7.050733 -1.038129 6.998499 -0.992274 6.938889 -0.957848 
C 6.879279 -0.923422 6.813456 -0.901098 6.745202 -0.892157 
C 6.676949 -0.883217 6.607597 -0.887835 6.541131 -0.905746 
L 3.891253 -1.615561 
L 1.239492 -0.084604 
L 3.892718 1.447085 
L 6.541131 0.73727 
L 6.541131 0.73727 
C 6.674948 0.701466 6.817656 0.720237 6.937662 0.789429 
C 7.057669 0.858621 7.145413 0.972721 7.181471 1.10647 
L 7.181471 1.10647 
C 7.217274 1.240293 7.198497 1.383006 7.129297 1.503014 
C 7.060096 1.623021 6.945986 1.710762 6.812229 1.74681 
L 5.173293 2.186866 
L 6.496181 2.949771 
L 6.496181 2.949771 
C 6.555697 2.984183 6.607849 3.029991 6.649651 3.08457 
C 6.691452 3.13915 6.722088 3.201437 6.739803 3.267863 
C 6.757517 3.33429 6.761966 3.403561 6.752893 3.471707 
C 6.743821 3.539854 6.721404 3.605549 6.686927 3.665026 
L 6.686927 3.665026 
C 6.617458 3.784813 6.503196 3.87225 6.369416 3.907994 
C 6.235636 3.943739 6.092989 3.924946 5.973032 3.855772 
L 4.650144 3.091487 
L 5.08886 4.731783 
L 5.08886 4.731783 
C 5.124664 4.865606 5.105887 5.008319 5.036686 5.128326 
C 4.967486 5.248334 4.853376 5.336074 4.719619 5.372123 
L 4.719619 5.372123 
C 4.585619 5.407867 4.442757 5.3889 4.322726 5.319431 
C 4.202695 5.249961 4.115081 5.135537 4.07932 5.001542 
L 3.368166 2.351664 
L 0.717033 0.821063 
L 0.717033 3.884232 
L 2.657075 5.822893 
L 2.657075 5.822893 
C 2.70585 5.871495 2.744553 5.929252 2.770959 5.992843 
C 2.797366 6.056435 2.81096 6.124618 2.81096 6.193474 
C 2.81096 6.26233 2.797366 6.330514 2.770959 6.394105 
C 2.744553 6.457696 2.70585 6.515453 2.657075 6.564055 
L 2.657075 6.564055 
C 2.608473 6.61283 2.550716 6.651533 2.487125 6.67794 
C 2.423533 6.704346 2.35535 6.71794 2.286494 6.71794 
C 2.217638 6.71794 2.149454 6.704346 2.085863 6.67794 
C 2.022272 6.651533 1.964515 6.61283 1.915913 6.564055 
L 0.717033 5.365133 
L 0.717033 6.891026 
L 0.717033 6.891026 
C 0.717033 7.029722 0.661877 7.162879 0.563805 7.260952 
C 0.465732 7.359024 0.332575 7.41418 0.193879 7.41418 
L 0.193618 7.414054 
z
"/>
    </defs>
    <g clip-path="url(#pd898382089)">
     <use xlink:href="#m5cb1cefb6f" x="169.345644" y="182.652415" style="fill: #9e2096; fill-opacity: 0.7"/>
    </g>
   </g>
   <g id="patch_163">
    <path d="M 125.254844 13.699063 
C 110.694216 13.699063 96.275171 16.567189 82.822905 22.1393 
C 69.370638 27.711411 57.146763 35.879144 46.850844 46.175063 
C 36.554925 56.470982 28.387192 68.694857 22.815081 82.147124 
C 17.24297 95.59939 14.374844 110.018434 14.374844 124.579063 
C 14.374844 139.139691 17.24297 153.558735 22.815081 167.011001 
C 28.387192 180.463268 36.554925 192.687143 46.850844 202.983062 
C 57.146763 213.278981 69.370638 221.446714 82.822905 227.018825 
C 96.275171 232.590936 110.694216 235.459063 125.254844 235.459063 
C 139.815472 235.459063 154.234516 232.590936 167.686783 227.018825 
C 181.139049 221.446714 193.362925 213.278981 203.658844 202.983062 
C 213.954763 192.687143 222.122495 180.463268 227.694606 167.011001 
C 233.266717 153.558735 236.134844 139.139691 236.134844 124.579063 
C 236.134844 110.018434 233.266717 95.59939 227.694606 82.147124 
C 222.122495 68.694857 213.954763 56.470982 203.658844 46.175063 
C 193.362925 35.879144 181.139049 27.711411 167.686783 22.1393 
C 154.234516 16.567189 139.815472 13.699063 125.254844 13.699063 
" style="fill: none; stroke: #000000; stroke-width: 0.8; stroke-linejoin: miter; stroke-linecap: square"/>
   </g>
  </g>
 </g>
 <defs>
  <clipPath id="pd898382089">
   <path d="M 236.134844 124.579063 
C 236.134844 110.018434 233.266717 95.59939 227.694606 82.147124 
C 222.122495 68.694857 213.954763 56.470982 203.658844 46.175063 
C 193.362925 35.879144 181.139049 27.711411 167.686783 22.1393 
C 154.234516 16.567189 139.815472 13.699063 125.254844 13.699063 
C 110.694216 13.699063 96.275171 16.567189 82.822905 22.1393 
C 69.370638 27.711411 57.146763 35.879144 46.850844 46.175063 
C 36.554925 56.470982 28.387192 68.694857 22.815081 82.147124 
C 17.24297 95.59939 14.374844 110.018434 14.374844 124.579062 
C 14.374844 139.139691 17.24297 153.558735 22.815081 167.011001 
C 28.387192 180.463268 36.554925 192.687143 46.850844 202.983062 
C 57.146763 213.278981 69.370638 221.446714 82.822905 227.018825 
C 96.275171 232.590936 110.694216 235.459063 125.254844 235.459063 
C 139.815472 235.459063 154.234516 232.590936 167.686783 227.018825 
C 181.139049 221.446714 193.362925 213.278981 203.658844 202.983062 
C 213.954763 192.687143 222.122495 180.463268 227.694606 167.011001 
C 233.266717 153.558735 236.134844 139.139691 236.134844 124.579063 
M 125.254844 124.579063 
C 125.254844 124.579063 125.254844 124.579063 125.254844 124.579063 
C 125.254844 124.579063 125.254844 124.579063 125.254844 124.579063 
C 125.254844 124.579063 125.254844 124.579063 125.254844 124.579063 
C 125.254844 124.579063 125.254844 124.579063 125.254844 124.579063 
C 125.254844 124.579063 125.254844 124.579063 125.254844 124.579063 
C 125.254844 124.579063 125.254844 124.579063 125.254844 124.579063 
C 125.254844 124.579063 125.254844 124.579063 125.254844 124.579063 
C 125.254844 124.579063 125.254844 124.579063 125.254844 124.579063 
C 125.254844 124.579063 125.254844 124.579063 125.254844 124.579063 
C 125.254844 124.579063 125.254844 124.579063 125.254844 124.579063 
C 125.254844 124.579063 125.254844 124.579063 125.254844 124.579063 
C 125.254844 124.579063 125.254844 124.579063 125.254844 124.579063 
C 125.254844 124.579063 125.254844 124.579063 125.254844 124.579063 
C 125.254844 124.579063 125.254844 124.579063 125.254844 124.579063 
C 125.254844 124.579063 125.254844 124.579063 125.254844 124.579063 
C 125.254844 124.579063 125.254844 124.579063 125.254844 124.579063 
z
"/>
  </clipPath>
 </defs>
</svg>
