<?xml version="1.0" encoding="utf-8" standalone="no"?>
<!DOCTYPE svg PUBLIC "-//W3C//DTD SVG 1.1//EN"
  "http://www.w3.org/Graphics/SVG/1.1/DTD/svg11.dtd">
<svg xmlns:xlink="http://www.w3.org/1999/xlink" width="248.410469pt" height="249.158125pt" viewBox="0 0 248.410469 249.158125" xmlns="http://www.w3.org/2000/svg" version="1.1">
 <title>Ski Rose for San Bernadino - Pian Cales</title>
 <metadata>
  <rdf:RDF xmlns:dc="http://purl.org/dc/elements/1.1/" xmlns:cc="http://creativecommons.org/ns#" xmlns:rdf="http://www.w3.org/1999/02/22-rdf-syntax-ns#">
   <cc:Work>
    <dc:type rdf:resource="http://purl.org/dc/dcmitype/StillImage"/>
    <dc:title>Ski Rose for San Bernadino - Pian Cales</dc:title>
    <dc:date>2025-10-18T10:26:00.331893</dc:date>
    <dc:description>A 32-bin stacked histogram of downhill ski run orientations colored by difficulty.</dc:description>
    <dc:format>image/svg+xml</dc:format>
    <dc:source>https://openskimap.org/?obj=bff8dbc7e6bf853d24b88589e78a041564539762</dc:source>
    <dc:creator>
     <cc:Agent>
      <dc:title>https://github.com/dhimmel/openskistats</dc:title>
     </cc:Agent>
    </dc:creator>
    <dc:rights>
     <cc:Agent>
      <dc:title>https://creativecommons.org/licenses/by/4.0/</dc:title>
     </cc:Agent>
    </dc:rights>
   </cc:Work>
  </rdf:RDF>
 </metadata>
 <defs>
  <style type="text/css">*{stroke-linejoin: round; stroke-linecap: butt}</style>
 </defs>
 <g id="figure_1">
  <g id="patch_1">
   <path d="M 0 249.158125 
L 248.410469 249.158125 
L 248.410469 0 
L 0 0 
z
" style="fill: #ffffff"/>
  </g>
  <g id="axes_1">
   <g id="patch_2">
    <path d="M 236.134844 124.579063 
C 236.134844 110.018434 233.266717 95.59939 227.694606 82.147124 
C 222.122495 68.694857 213.954763 56.470982 203.658844 46.175063 
C 193.362925 35.879144 181.139049 27.711411 167.686783 22.1393 
C 154.234516 16.567189 139.815472 13.699062 125.254844 13.699062 
C 110.694216 13.699062 96.275171 16.567189 82.822905 22.1393 
C 69.370638 27.711411 57.146763 35.879144 46.850844 46.175063 
C 36.554925 56.470982 28.387192 68.694857 22.815081 82.147124 
C 17.24297 95.59939 14.374844 110.018434 14.374844 124.579062 
C 14.374844 139.139691 17.24297 153.558735 22.815081 167.011001 
C 28.387192 180.463268 36.554925 192.687143 46.850844 202.983062 
C 57.146763 213.278981 69.370638 221.446714 82.822905 227.018825 
C 96.275171 232.590936 110.694216 235.459063 125.254844 235.459063 
C 139.815472 235.459063 154.234516 232.590936 167.686783 227.018825 
C 181.139049 221.446714 193.362925 213.278981 203.658844 202.983062 
C 213.954763 192.687143 222.122495 180.463268 227.694606 167.011001 
C 233.266717 153.558735 236.134844 139.139691 236.134844 124.579063 
M 125.254844 124.579063 
C 125.254844 124.579063 125.254844 124.579063 125.254844 124.579063 
C 125.254844 124.579063 125.254844 124.579063 125.254844 124.579063 
C 125.254844 124.579063 125.254844 124.579063 125.254844 124.579063 
C 125.254844 124.579063 125.254844 124.579063 125.254844 124.579063 
C 125.254844 124.579063 125.254844 124.579063 125.254844 124.579063 
C 125.254844 124.579063 125.254844 124.579063 125.254844 124.579063 
C 125.254844 124.579063 125.254844 124.579063 125.254844 124.579063 
C 125.254844 124.579063 125.254844 124.579063 125.254844 124.579063 
C 125.254844 124.579063 125.254844 124.579063 125.254844 124.579063 
C 125.254844 124.579063 125.254844 124.579063 125.254844 124.579063 
C 125.254844 124.579063 125.254844 124.579063 125.254844 124.579063 
C 125.254844 124.579063 125.254844 124.579063 125.254844 124.579063 
C 125.254844 124.579063 125.254844 124.579063 125.254844 124.579063 
C 125.254844 124.579063 125.254844 124.579063 125.254844 124.579063 
C 125.254844 124.579063 125.254844 124.579063 125.254844 124.579063 
C 125.254844 124.579063 125.254844 124.579063 125.254844 124.579063 
z
" style="fill: #ffffff"/>
   </g>
   <g id="PolyCollection_1">
    <defs>
     <path id="m58a326a9f5" d="M 235.382791 -137.126557 
L 234.832193 -137.063824 
L 234.083937 -135.058112 
L 233.068006 -133.064142 
L 232.19012 -131.119504 
L 231.057731 -129.198516 
L 229.878738 -127.318736 
L 228.867798 -125.483279 
L 227.61149 -123.68581 
L 226.531023 -121.927052 
L 225.209066 -120.214967 
L 224.067703 -118.535409 
L 222.688741 -116.910848 
L 221.493559 -115.312328 
L 220.273583 -113.753045 
L 218.822442 -112.260654 
L 217.558008 -110.784262 
L 216.273089 -109.347832 
L 214.764513 -107.989426 
L 213.44401 -106.636774 
L 212.107196 -105.324359 
L 210.755405 -104.052194 
L 209.389962 -102.820241 
L 208.012187 -101.62842 
L 206.623392 -100.4766 
L 205.224883 -99.364606 
L 203.817959 -98.292212 
L 202.403907 -97.259146 
L 200.984009 -96.265088 
L 199.559533 -95.309667 
L 198.312316 -94.317667 
L 196.879675 -93.4357 
L 195.446076 -92.591075 
L 194.18498 -91.701074 
L 192.750003 -90.927218 
L 191.483845 -90.102426 
L 190.21514 -89.308499 
L 188.784427 -88.635754 
L 187.516302 -87.904261 
L 186.24825 -87.202255 
L 184.981082 -86.529252 
L 183.568542 -85.982067 
L 182.308914 -85.366886 
L 181.052562 -84.778937 
L 179.800216 -84.21761 
L 178.552583 -83.682269 
L 177.43974 -83.069322 
L 176.19985 -82.58324 
L 174.966594 -82.121217 
L 173.740578 -81.682508 
L 172.637172 -81.161158 
L 171.423465 -80.766677 
L 170.218604 -80.393298 
L 169.126679 -79.934759 
L 167.936985 -79.601471 
L 166.85369 -79.181888 
L 165.680771 -78.885863 
L 164.607554 -78.502958 
L 163.538135 -78.137716 
L 162.390889 -77.892656 
L 161.333341 -77.56065 
L 160.280387 -77.244758 
L 159.161096 -77.04425 
L 158.121342 -76.758011 
L 157.08676 -76.486284 
L 156.057503 -76.228573 
L 155.033702 -75.984382 
L 154.015467 -75.753213 
L 153.002884 -75.534568 
L 151.996015 -75.327952 
L 150.994901 -75.132872 
L 149.999559 -74.948841 
L 149.009985 -74.775373 
L 148.026149 -74.611993 
L 147.048002 -74.458229 
L 146.075471 -74.313621 
L 145.108462 -74.177717 
L 144.146857 -74.050077 
L 143.190521 -73.930273 
L 142.239295 -73.81789 
L 141.311891 -73.652615 
L 140.368206 -73.557208 
L 139.42915 -73.468164 
L 138.494495 -73.385128 
L 137.563993 -73.307767 
L 136.647072 -73.192041 
L 135.722514 -73.128822 
L 134.801399 -73.070461 
L 133.88906 -72.983021 
L 132.972723 -72.93753 
L 132.059015 -72.89625 
L 131.147601 -72.858992 
L 130.239982 -72.806425 
L 129.331456 -72.780797 
L 128.424307 -72.758797 
L 127.518533 -72.732052 
L 126.61279 -72.721172 
L 125.707466 -72.713726 
L 124.802222 -72.713759 
L 123.89701 -72.725494 
L 122.991531 -72.740688 
L 122.085414 -72.759349 
L 121.178291 -72.781544 
L 120.271635 -72.826464 
L 119.362208 -72.860063 
L 118.450839 -72.897517 
L 117.541625 -72.96871 
L 116.62653 -73.018295 
L 115.70862 -73.07225 
L 114.787578 -73.130808 
L 113.872777 -73.237879 
L 112.94625 -73.31008 
L 112.015842 -73.38764 
L 111.081289 -73.470874 
L 110.159087 -73.616641 
L 109.217645 -73.715565 
L 108.271476 -73.821127 
L 107.320384 -73.93371 
L 106.36419 -74.053715 
L 105.402738 -74.181556 
L 104.46645 -74.39144 
L 103.49678 -74.538942 
L 102.521586 -74.695481 
L 101.54079 -74.861514 
L 100.554337 -75.03751 
L 99.562195 -75.223943 
L 98.564354 -75.421295 
L 97.560826 -75.630052 
L 96.551648 -75.850706 
L 95.536879 -76.083751 
L 94.516598 -76.329682 
L 93.427053 -76.492516 
L 92.392761 -76.764435 
L 91.353309 -77.050864 
L 90.308874 -77.352295 
L 89.259655 -77.669219 
L 88.124573 -77.899915 
L 87.063033 -78.248692 
L 85.997425 -78.614531 
L 84.835884 -78.893739 
L 83.75958 -79.294929 
L 82.580577 -79.609769 
L 81.494917 -80.048638 
L 80.299936 -80.401998 
L 79.206457 -80.880775 
L 77.997212 -81.275421 
L 76.779625 -81.691812 
L 75.676056 -82.234777 
L 74.44721 -82.696482 
L 73.211705 -83.182081 
L 71.970172 -83.692295 
L 70.723267 -84.227818 
L 69.471674 -84.789314 
L 68.216101 -85.377421 
L 66.957277 -85.992745 
L 65.695955 -86.635866 
L 64.432907 -87.307332 
L 63.168927 -88.007662 
L 61.904823 -88.737345 
L 60.478627 -89.408446 
L 59.213831 -90.200287 
L 57.782583 -90.938634 
L 56.520877 -91.794642 
L 55.08881 -92.602558 
L 53.834104 -93.524441 
L 52.405582 -94.40391 
L 50.979176 -95.321099 
L 49.741399 -96.345742 
L 48.3254 -97.336918 
L 46.915172 -98.366975 
L 45.511993 -99.436238 
L 44.117151 -100.544983 
L 42.731944 -101.693437 
L 41.357677 -102.88178 
L 39.99566 -104.110143 
L 38.647213 -105.378613 
L 37.313659 -106.687226 
L 35.996329 -108.035975 
L 34.491296 -109.390454 
L 33.209367 -110.822774 
L 31.947826 -112.294961 
L 30.499921 -113.783103 
L 29.282626 -115.337989 
L 28.090007 -116.932024 
L 26.713892 -118.55204 
L 25.574803 -120.226938 
L 24.255317 -121.934297 
L 23.176705 -123.68824 
L 21.922256 -125.480832 
L 20.912448 -127.311364 
L 19.734106 -129.186197 
L 18.805015 -131.089813 
L 17.721137 -133.042149 
L 16.894895 -135.012939 
L 15.943622 -137.033503 
L 15.142482 -137.124781 
L 15.142482 -137.124781 
L 14.994005 -135.195974 
L 14.760822 -133.275131 
L 14.678278 -131.342215 
L 14.511322 -129.414229 
L 14.4277 -127.481173 
L 14.442469 -125.546107 
L 14.558129 -123.613027 
L 14.453804 -121.677635 
L 14.564664 -119.746225 
L 14.595082 -117.810822 
L 14.76917 -115.883651 
L 14.973605 -113.960187 
L 15.101654 -112.028692 
L 15.367922 -110.112175 
L 15.663726 -108.20056 
L 15.988918 -106.294217 
L 16.24571 -104.375414 
L 16.632048 -102.479505 
L 17.047798 -100.590138 
L 17.493057 -98.707746 
L 17.967939 -96.832782 
L 18.472556 -94.965713 
L 19.007024 -93.107024 
L 19.571472 -91.257223 
L 20.166055 -89.416846 
L 20.790951 -87.586458 
L 21.44637 -85.766665 
L 22.132577 -83.958121 
L 22.849913 -82.161551 
L 23.598821 -80.377766 
L 24.379835 -78.607673 
L 25.193555 -76.852276 
L 26.040621 -75.112676 
L 26.929111 -73.393926 
L 27.850486 -71.692811 
L 28.751168 -69.97991 
L 29.750401 -68.322646 
L 30.743886 -66.662673 
L 31.759974 -65.016262 
L 32.829665 -63.404171 
L 33.878129 -61.777586 
L 35.255778 -60.383353 
L 37.071068 -59.326501 
L 38.844263 -58.273892 
L 40.692987 -57.315524 
L 42.553853 -56.405626 
L 44.41433 -55.534741 
L 46.218402 -54.653526 
L 48.081958 -53.863141 
L 49.884048 -53.054848 
L 51.735337 -52.331644 
L 53.529785 -51.591112 
L 55.319709 -50.882807 
L 57.104273 -50.205766 
L 58.882734 -49.559039 
L 60.654426 -48.941691 
L 62.418751 -48.352786 
L 64.175172 -47.791391 
L 65.885616 -47.207578 
L 67.626613 -46.698978 
L 69.358414 -46.215158 
L 71.044679 -45.702783 
L 72.758928 -45.266386 
L 74.434059 -44.80641 
L 76.098806 -44.363699 
L 77.759867 -43.948593 
L 79.437907 -43.5979 
L 81.079368 -43.217957 
L 82.716547 -42.863754 
L 84.343 -42.522599 
L 85.964911 -42.206005 
L 87.559184 -41.863486 
L 89.164337 -41.57658 
L 90.76474 -41.312585 
L 92.354941 -41.057794 
L 93.925925 -40.786064 
L 95.505377 -40.56916 
L 97.075328 -40.359369 
L 98.629867 -40.135426 
L 100.189692 -39.960528 
L 101.734252 -39.766547 
L 103.274564 -39.587627 
L 104.815862 -39.444576 
L 106.347396 -39.293078 
L 107.880373 -39.180811 
L 109.403962 -39.05536 
L 110.924325 -38.943262 
L 112.443545 -38.856661 
L 113.957703 -38.76876 
L 115.469417 -38.693473 
L 116.978949 -38.630608 
L 118.487599 -38.593064 
L 119.993253 -38.552811 
L 121.497622 -38.524544 
L 123.000984 -38.507634 
L 124.503654 -38.50128 
L 126.006033 -38.501337 
L 127.5087 -38.507755 
L 129.012053 -38.52482 
L 130.516412 -38.553179 
L 132.023091 -38.580329 
L 133.530701 -38.631001 
L 135.040219 -38.693929 
L 136.551916 -38.769278 
L 138.066056 -38.85724 
L 139.585207 -38.944186 
L 141.105538 -39.056369 
L 142.629092 -39.181904 
L 144.162107 -39.293909 
L 145.693613 -39.445462 
L 147.234773 -39.588983 
L 148.775038 -39.76798 
L 150.319549 -39.962036 
L 151.879469 -40.136539 
L 153.43397 -40.360532 
L 155.003694 -40.5709 
L 156.583287 -40.787334 
L 158.154229 -41.059108 
L 159.74414 -41.314535 
L 161.344737 -41.57799 
L 162.949555 -41.865568 
L 164.565472 -42.162616 
L 166.165924 -42.524131 
L 167.79197 -42.866004 
L 169.429447 -43.219564 
L 171.098473 -43.550722 
L 172.748404 -43.950997 
L 174.409836 -44.365405 
L 176.074045 -44.808896 
L 177.749597 -45.268142 
L 179.463783 -45.704566 
L 181.149427 -46.217747 
L 182.881136 -46.701599 
L 184.62204 -47.210226 
L 186.333042 -47.793244 
L 188.089399 -48.354651 
L 189.85366 -48.943566 
L 191.625288 -49.560921 
L 193.403686 -50.207652 
L 195.188188 -50.884695 
L 196.97805 -51.592997 
L 198.772438 -52.333524 
L 200.622825 -53.057519 
L 202.424854 -53.865776 
L 204.289199 -54.655372 
L 206.093222 -55.536565 
L 207.95281 -56.40812 
L 209.814488 -57.317284 
L 211.662367 -58.276238 
L 213.500609 -59.280631 
L 215.310936 -60.342676 
L 216.607767 -61.793938 
L 217.706844 -63.386419 
L 218.745537 -65.018922 
L 219.779981 -66.653984 
L 220.773668 -68.314175 
L 221.719242 -70.002132 
L 222.683778 -71.679468 
L 223.598098 -73.384805 
L 224.461701 -75.116348 
L 225.274125 -76.872313 
L 226.151241 -78.597925 
L 226.852346 -80.403211 
L 227.658097 -82.162246 
L 228.416278 -83.942693 
L 229.048899 -85.772055 
L 229.703393 -87.591891 
L 230.310884 -89.427803 
L 230.97522 -91.245556 
L 231.55518 -93.091468 
L 232.02525 -94.969008 
L 232.575293 -96.824107 
L 233.003031 -98.711011 
L 233.477576 -100.58666 
L 233.808218 -102.493629 
L 234.207793 -104.385827 
L 234.599124 -106.281105 
L 234.769897 -108.211928 
L 235.080162 -110.120285 
L 235.334176 -112.037107 
L 235.569054 -113.957012 
L 235.7656 -115.881677 
L 235.924487 -117.810217 
L 235.862569 -119.749825 
L 235.939327 -121.680687 
L 235.99021 -123.61269 
L 236.006016 -125.545573 
L 235.987493 -127.478699 
L 235.927642 -129.411141 
L 235.842183 -131.342874 
L 235.724274 -133.273195 
L 235.564882 -135.200711 
L 235.382791 -137.126557 
z
" style="stroke: #ffee9c"/>
    </defs>
    <g clip-path="url(#p27aaea75fe)">
     <use xlink:href="#m58a326a9f5" x="0" y="249.158125" style="fill: #ffee9c; stroke: #ffee9c"/>
    </g>
   </g>
   <g id="matplotlib.axis_1">
    <g id="xtick_1">
     <g id="line2d_1">
      <path d="M 125.254844 124.579062 
L 125.254844 13.699062 
" clip-path="url(#p27aaea75fe)" style="fill: none; stroke: #b0b0b0; stroke-width: 0.8; stroke-linecap: square"/>
     </g>
     <g id="text_1">
      <!-- N -->
      <g transform="translate(121.070469 7.958438) scale(0.1 -0.1)">
       <defs>
        <path id="DejaVuSans-Bold-4e" d="M 588 4666 
L 1931 4666 
L 3628 1466 
L 3628 4666 
L 4769 4666 
L 4769 0 
L 3425 0 
L 1728 3200 
L 1728 0 
L 588 0 
L 588 4666 
z
" transform="scale(0.015625)"/>
       </defs>
       <use xlink:href="#DejaVuSans-Bold-4e"/>
      </g>
     </g>
    </g>
    <g id="xtick_2">
     <g id="line2d_2">
      <path d="M 125.254844 124.579062 
L 203.658844 46.175063 
" clip-path="url(#p27aaea75fe)" style="fill: none; stroke: #b0b0b0; stroke-width: 0.8; stroke-linecap: square"/>
     </g>
    </g>
    <g id="xtick_3">
     <g id="line2d_3">
      <path d="M 125.254844 124.579062 
L 236.134844 124.579062 
" clip-path="url(#p27aaea75fe)" style="fill: none; stroke: #b0b0b0; stroke-width: 0.8; stroke-linecap: square"/>
     </g>
     <g id="text_2">
      <!-- E -->
      <g transform="translate(241.219219 127.338437) scale(0.1 -0.1)">
       <defs>
        <path id="DejaVuSans-Bold-45" d="M 588 4666 
L 3834 4666 
L 3834 3756 
L 1791 3756 
L 1791 2888 
L 3713 2888 
L 3713 1978 
L 1791 1978 
L 1791 909 
L 3903 909 
L 3903 0 
L 588 0 
L 588 4666 
z
" transform="scale(0.015625)"/>
       </defs>
       <use xlink:href="#DejaVuSans-Bold-45"/>
      </g>
     </g>
    </g>
    <g id="xtick_4">
     <g id="line2d_4">
      <path d="M 125.254844 124.579062 
L 203.658844 202.983062 
" clip-path="url(#p27aaea75fe)" style="fill: none; stroke: #b0b0b0; stroke-width: 0.8; stroke-linecap: square"/>
     </g>
    </g>
    <g id="xtick_5">
     <g id="line2d_5">
      <path d="M 125.254844 124.579062 
L 125.254844 235.459063 
" clip-path="url(#p27aaea75fe)" style="fill: none; stroke: #b0b0b0; stroke-width: 0.8; stroke-linecap: square"/>
     </g>
     <g id="text_3">
      <!-- S -->
      <g transform="translate(121.654062 246.718437) scale(0.1 -0.1)">
       <defs>
        <path id="DejaVuSans-Bold-53" d="M 3834 4519 
L 3834 3531 
Q 3450 3703 3084 3790 
Q 2719 3878 2394 3878 
Q 1963 3878 1756 3759 
Q 1550 3641 1550 3391 
Q 1550 3203 1689 3098 
Q 1828 2994 2194 2919 
L 2706 2816 
Q 3484 2659 3812 2340 
Q 4141 2022 4141 1434 
Q 4141 663 3683 286 
Q 3225 -91 2284 -91 
Q 1841 -91 1394 -6 
Q 947 78 500 244 
L 500 1259 
Q 947 1022 1364 901 
Q 1781 781 2169 781 
Q 2563 781 2772 912 
Q 2981 1044 2981 1288 
Q 2981 1506 2839 1625 
Q 2697 1744 2272 1838 
L 1806 1941 
Q 1106 2091 782 2419 
Q 459 2747 459 3303 
Q 459 4000 909 4375 
Q 1359 4750 2203 4750 
Q 2588 4750 2994 4692 
Q 3400 4634 3834 4519 
z
" transform="scale(0.015625)"/>
       </defs>
       <use xlink:href="#DejaVuSans-Bold-53"/>
      </g>
     </g>
    </g>
    <g id="xtick_6">
     <g id="line2d_6">
      <path d="M 125.254844 124.579062 
L 46.850844 202.983062 
" clip-path="url(#p27aaea75fe)" style="fill: none; stroke: #b0b0b0; stroke-width: 0.8; stroke-linecap: square"/>
     </g>
    </g>
    <g id="xtick_7">
     <g id="line2d_7">
      <path d="M 125.254844 124.579062 
L 14.374844 124.579063 
" clip-path="url(#p27aaea75fe)" style="fill: none; stroke: #b0b0b0; stroke-width: 0.8; stroke-linecap: square"/>
     </g>
     <g id="text_4">
      <!-- W -->
      <g transform="translate(0.36 127.338438) scale(0.1 -0.1)">
       <defs>
        <path id="DejaVuSans-Bold-57" d="M 191 4666 
L 1344 4666 
L 2150 1275 
L 2950 4666 
L 4109 4666 
L 4909 1275 
L 5716 4666 
L 6859 4666 
L 5759 0 
L 4372 0 
L 3525 3547 
L 2688 0 
L 1300 0 
L 191 4666 
z
" transform="scale(0.015625)"/>
       </defs>
       <use xlink:href="#DejaVuSans-Bold-57"/>
      </g>
     </g>
    </g>
    <g id="xtick_8">
     <g id="line2d_8">
      <path d="M 125.254844 124.579062 
L 46.850844 46.175063 
" clip-path="url(#p27aaea75fe)" style="fill: none; stroke: #b0b0b0; stroke-width: 0.8; stroke-linecap: square"/>
     </g>
    </g>
   </g>
   <g id="matplotlib.axis_2"/>
   <g id="patch_3">
    <path d="M 125.254844 124.579062 
C 125.254844 124.579062 125.254844 124.579062 125.254844 124.579062 
C 125.254844 124.579062 125.254844 124.579062 125.254844 124.579062 
L 125.254844 124.579062 
C 125.254844 124.579062 125.254844 124.579062 125.254844 124.579062 
C 125.254844 124.579062 125.254844 124.579062 125.254844 124.579062 
z
" clip-path="url(#p27aaea75fe)" style="fill: #d9d9d9"/>
   </g>
   <g id="patch_4">
    <path d="M 125.254844 124.579062 
C 125.254844 124.579062 125.254844 124.579062 125.254844 124.579062 
C 125.254844 124.579062 125.254844 124.579062 125.254844 124.579062 
L 125.254844 124.579062 
C 125.254844 124.579062 125.254844 124.579062 125.254844 124.579062 
C 125.254844 124.579062 125.254844 124.579062 125.254844 124.579062 
z
" clip-path="url(#p27aaea75fe)" style="fill: #d9d9d9"/>
   </g>
   <g id="patch_5">
    <path d="M 125.254844 124.579062 
C 125.254844 124.579062 125.254844 124.579062 125.254844 124.579062 
C 125.254844 124.579062 125.254844 124.579062 125.254844 124.579062 
L 125.254844 124.579062 
C 125.254844 124.579062 125.254844 124.579062 125.254844 124.579062 
C 125.254844 124.579062 125.254844 124.579062 125.254844 124.579062 
z
" clip-path="url(#p27aaea75fe)" style="fill: #d9d9d9"/>
   </g>
   <g id="patch_6">
    <path d="M 125.254844 124.579062 
C 125.254844 124.579062 125.254844 124.579062 125.254844 124.579062 
C 125.254844 124.579062 125.254844 124.579062 125.254844 124.579062 
L 125.254844 124.579062 
C 125.254844 124.579062 125.254844 124.579062 125.254844 124.579062 
C 125.254844 124.579062 125.254844 124.579062 125.254844 124.579062 
z
" clip-path="url(#p27aaea75fe)" style="fill: #d9d9d9"/>
   </g>
   <g id="patch_7">
    <path d="M 125.254844 124.579062 
C 125.254844 124.579062 125.254844 124.579062 125.254844 124.579062 
C 125.254844 124.579062 125.254844 124.579062 125.254844 124.579062 
L 125.254844 124.579062 
C 125.254844 124.579062 125.254844 124.579062 125.254844 124.579062 
C 125.254844 124.579062 125.254844 124.579062 125.254844 124.579062 
z
" clip-path="url(#p27aaea75fe)" style="fill: #d9d9d9"/>
   </g>
   <g id="patch_8">
    <path d="M 125.254844 124.579062 
C 125.254844 124.579062 125.254844 124.579062 125.254844 124.579062 
C 125.254844 124.579062 125.254844 124.579062 125.254844 124.579062 
L 125.254844 124.579062 
C 125.254844 124.579062 125.254844 124.579062 125.254844 124.579062 
C 125.254844 124.579062 125.254844 124.579062 125.254844 124.579062 
z
" clip-path="url(#p27aaea75fe)" style="fill: #d9d9d9"/>
   </g>
   <g id="patch_9">
    <path d="M 125.254844 124.579062 
C 125.254844 124.579062 125.254844 124.579062 125.254844 124.579062 
C 125.254844 124.579062 125.254844 124.579062 125.254844 124.579062 
L 125.254844 124.579062 
C 125.254844 124.579062 125.254844 124.579062 125.254844 124.579062 
C 125.254844 124.579062 125.254844 124.579062 125.254844 124.579062 
z
" clip-path="url(#p27aaea75fe)" style="fill: #d9d9d9"/>
   </g>
   <g id="patch_10">
    <path d="M 125.254844 124.579062 
C 125.254844 124.579062 125.254844 124.579062 125.254844 124.579062 
C 125.254844 124.579062 125.254844 124.579062 125.254844 124.579062 
L 125.254844 124.579062 
C 125.254844 124.579062 125.254844 124.579062 125.254844 124.579062 
C 125.254844 124.579062 125.254844 124.579062 125.254844 124.579062 
z
" clip-path="url(#p27aaea75fe)" style="fill: #d9d9d9"/>
   </g>
   <g id="patch_11">
    <path d="M 125.254844 124.579062 
C 125.254844 124.579062 125.254844 124.579062 125.254844 124.579062 
C 125.254844 124.579062 125.254844 124.579062 125.254844 124.579062 
L 125.254844 124.579062 
C 125.254844 124.579062 125.254844 124.579062 125.254844 124.579062 
C 125.254844 124.579062 125.254844 124.579062 125.254844 124.579062 
z
" clip-path="url(#p27aaea75fe)" style="fill: #d9d9d9"/>
   </g>
   <g id="patch_12">
    <path d="M 125.254844 124.579062 
C 125.254844 124.579062 125.254844 124.579062 125.254844 124.579062 
C 125.254844 124.579062 125.254844 124.579062 125.254844 124.579062 
L 125.254844 124.579062 
C 125.254844 124.579062 125.254844 124.579062 125.254844 124.579062 
C 125.254844 124.579062 125.254844 124.579062 125.254844 124.579062 
z
" clip-path="url(#p27aaea75fe)" style="fill: #d9d9d9"/>
   </g>
   <g id="patch_13">
    <path d="M 125.254844 124.579062 
C 125.254844 124.579062 125.254844 124.579062 125.254844 124.579062 
C 125.254844 124.579062 125.254844 124.579062 125.254844 124.579062 
L 125.254844 124.579062 
C 125.254844 124.579062 125.254844 124.579062 125.254844 124.579062 
C 125.254844 124.579062 125.254844 124.579062 125.254844 124.579062 
z
" clip-path="url(#p27aaea75fe)" style="fill: #d9d9d9"/>
   </g>
   <g id="patch_14">
    <path d="M 125.254844 124.579062 
C 125.254844 124.579062 125.254844 124.579062 125.254844 124.579062 
C 125.254844 124.579062 125.254844 124.579062 125.254844 124.579062 
L 125.254844 124.579062 
C 125.254844 124.579062 125.254844 124.579062 125.254844 124.579062 
C 125.254844 124.579062 125.254844 124.579062 125.254844 124.579062 
z
" clip-path="url(#p27aaea75fe)" style="fill: #d9d9d9"/>
   </g>
   <g id="patch_15">
    <path d="M 125.254844 124.579062 
C 125.254844 124.579062 125.254844 124.579062 125.254844 124.579062 
C 125.254844 124.579062 125.254844 124.579062 125.254844 124.579062 
L 125.254844 124.579062 
C 125.254844 124.579062 125.254844 124.579062 125.254844 124.579062 
C 125.254844 124.579062 125.254844 124.579062 125.254844 124.579062 
z
" clip-path="url(#p27aaea75fe)" style="fill: #d9d9d9"/>
   </g>
   <g id="patch_16">
    <path d="M 125.254844 124.579062 
C 125.254844 124.579062 125.254844 124.579062 125.254844 124.579062 
C 125.254844 124.579062 125.254844 124.579062 125.254844 124.579062 
L 125.254844 124.579062 
C 125.254844 124.579062 125.254844 124.579062 125.254844 124.579062 
C 125.254844 124.579062 125.254844 124.579062 125.254844 124.579062 
z
" clip-path="url(#p27aaea75fe)" style="fill: #d9d9d9"/>
   </g>
   <g id="patch_17">
    <path d="M 125.254844 124.579062 
C 125.254844 124.579062 125.254844 124.579062 125.254844 124.579062 
C 125.254844 124.579062 125.254844 124.579062 125.254844 124.579062 
L 125.254844 124.579062 
C 125.254844 124.579062 125.254844 124.579062 125.254844 124.579062 
C 125.254844 124.579062 125.254844 124.579062 125.254844 124.579062 
z
" clip-path="url(#p27aaea75fe)" style="fill: #d9d9d9"/>
   </g>
   <g id="patch_18">
    <path d="M 125.254844 124.579062 
C 125.254844 124.579062 125.254844 124.579062 125.254844 124.579062 
C 125.254844 124.579062 125.254844 124.579062 125.254844 124.579062 
L 125.254844 124.579062 
C 125.254844 124.579062 125.254844 124.579062 125.254844 124.579062 
C 125.254844 124.579062 125.254844 124.579062 125.254844 124.579062 
z
" clip-path="url(#p27aaea75fe)" style="fill: #d9d9d9"/>
   </g>
   <g id="patch_19">
    <path d="M 125.254844 124.579062 
C 125.254844 124.579062 125.254844 124.579062 125.254844 124.579062 
C 125.254844 124.579062 125.254844 124.579062 125.254844 124.579062 
L 125.254844 124.579062 
C 125.254844 124.579062 125.254844 124.579062 125.254844 124.579062 
C 125.254844 124.579062 125.254844 124.579062 125.254844 124.579062 
z
" clip-path="url(#p27aaea75fe)" style="fill: #d9d9d9"/>
   </g>
   <g id="patch_20">
    <path d="M 125.254844 124.579062 
C 125.254844 124.579062 125.254844 124.579062 125.254844 124.579062 
C 125.254844 124.579062 125.254844 124.579062 125.254844 124.579062 
L 125.254844 124.579062 
C 125.254844 124.579062 125.254844 124.579062 125.254844 124.579062 
C 125.254844 124.579062 125.254844 124.579062 125.254844 124.579062 
z
" clip-path="url(#p27aaea75fe)" style="fill: #d9d9d9"/>
   </g>
   <g id="patch_21">
    <path d="M 125.254844 124.579062 
C 125.254844 124.579062 125.254844 124.579062 125.254844 124.579062 
C 125.254844 124.579062 125.254844 124.579062 125.254844 124.579062 
L 125.254844 124.579062 
C 125.254844 124.579062 125.254844 124.579062 125.254844 124.579062 
C 125.254844 124.579062 125.254844 124.579062 125.254844 124.579062 
z
" clip-path="url(#p27aaea75fe)" style="fill: #d9d9d9"/>
   </g>
   <g id="patch_22">
    <path d="M 125.254844 124.579062 
C 125.254844 124.579062 125.254844 124.579062 125.254844 124.579062 
C 125.254844 124.579062 125.254844 124.579062 125.254844 124.579062 
L 125.254844 124.579062 
C 125.254844 124.579062 125.254844 124.579062 125.254844 124.579062 
C 125.254844 124.579062 125.254844 124.579062 125.254844 124.579062 
z
" clip-path="url(#p27aaea75fe)" style="fill: #d9d9d9"/>
   </g>
   <g id="patch_23">
    <path d="M 125.254844 124.579062 
C 125.254844 124.579062 125.254844 124.579062 125.254844 124.579062 
C 125.254844 124.579062 125.254844 124.579062 125.254844 124.579062 
L 125.254844 124.579062 
C 125.254844 124.579062 125.254844 124.579062 125.254844 124.579062 
C 125.254844 124.579062 125.254844 124.579062 125.254844 124.579062 
z
" clip-path="url(#p27aaea75fe)" style="fill: #d9d9d9"/>
   </g>
   <g id="patch_24">
    <path d="M 125.254844 124.579062 
C 125.254844 124.579062 125.254844 124.579062 125.254844 124.579062 
C 125.254844 124.579062 125.254844 124.579062 125.254844 124.579062 
L 125.254844 124.579062 
C 125.254844 124.579062 125.254844 124.579062 125.254844 124.579062 
C 125.254844 124.579062 125.254844 124.579062 125.254844 124.579062 
z
" clip-path="url(#p27aaea75fe)" style="fill: #d9d9d9"/>
   </g>
   <g id="patch_25">
    <path d="M 125.254844 124.579062 
C 125.254844 124.579062 125.254844 124.579062 125.254844 124.579062 
C 125.254844 124.579062 125.254844 124.579062 125.254844 124.579062 
L 125.254844 124.579062 
C 125.254844 124.579062 125.254844 124.579062 125.254844 124.579062 
C 125.254844 124.579062 125.254844 124.579062 125.254844 124.579062 
z
" clip-path="url(#p27aaea75fe)" style="fill: #d9d9d9"/>
   </g>
   <g id="patch_26">
    <path d="M 125.254844 124.579062 
C 125.254844 124.579062 125.254844 124.579062 125.254844 124.579062 
C 125.254844 124.579062 125.254844 124.579062 125.254844 124.579062 
L 125.254844 124.579062 
C 125.254844 124.579062 125.254844 124.579062 125.254844 124.579062 
C 125.254844 124.579062 125.254844 124.579062 125.254844 124.579062 
z
" clip-path="url(#p27aaea75fe)" style="fill: #d9d9d9"/>
   </g>
   <g id="patch_27">
    <path d="M 125.254844 124.579062 
C 125.254844 124.579062 125.254844 124.579062 125.254844 124.579062 
C 125.254844 124.579062 125.254844 124.579062 125.254844 124.579062 
L 125.254844 124.579062 
C 125.254844 124.579062 125.254844 124.579062 125.254844 124.579062 
C 125.254844 124.579062 125.254844 124.579062 125.254844 124.579062 
z
" clip-path="url(#p27aaea75fe)" style="fill: #d9d9d9"/>
   </g>
   <g id="patch_28">
    <path d="M 125.254844 124.579062 
C 125.254844 124.579062 125.254844 124.579062 125.254844 124.579062 
C 125.254844 124.579062 125.254844 124.579062 125.254844 124.579062 
L 125.254844 124.579062 
C 125.254844 124.579062 125.254844 124.579062 125.254844 124.579062 
C 125.254844 124.579062 125.254844 124.579062 125.254844 124.579062 
z
" clip-path="url(#p27aaea75fe)" style="fill: #d9d9d9"/>
   </g>
   <g id="patch_29">
    <path d="M 125.254844 124.579062 
C 125.254844 124.579062 125.254844 124.579062 125.254844 124.579062 
C 125.254844 124.579062 125.254844 124.579062 125.254844 124.579062 
L 125.254844 124.579062 
C 125.254844 124.579062 125.254844 124.579062 125.254844 124.579062 
C 125.254844 124.579062 125.254844 124.579062 125.254844 124.579062 
z
" clip-path="url(#p27aaea75fe)" style="fill: #d9d9d9"/>
   </g>
   <g id="patch_30">
    <path d="M 125.254844 124.579062 
C 125.254844 124.579062 125.254844 124.579062 125.254844 124.579062 
C 125.254844 124.579062 125.254844 124.579062 125.254844 124.579062 
L 125.254844 124.579062 
C 125.254844 124.579062 125.254844 124.579062 125.254844 124.579062 
C 125.254844 124.579062 125.254844 124.579062 125.254844 124.579062 
z
" clip-path="url(#p27aaea75fe)" style="fill: #d9d9d9"/>
   </g>
   <g id="patch_31">
    <path d="M 125.254844 124.579062 
C 125.254844 124.579062 125.254844 124.579062 125.254844 124.579062 
C 125.254844 124.579062 125.254844 124.579062 125.254844 124.579062 
L 125.254844 124.579062 
C 125.254844 124.579062 125.254844 124.579062 125.254844 124.579062 
C 125.254844 124.579062 125.254844 124.579062 125.254844 124.579062 
z
" clip-path="url(#p27aaea75fe)" style="fill: #d9d9d9"/>
   </g>
   <g id="patch_32">
    <path d="M 125.254844 124.579062 
C 125.254844 124.579062 125.254844 124.579062 125.254844 124.579062 
C 125.254844 124.579062 125.254844 124.579062 125.254844 124.579062 
L 125.254844 124.579062 
C 125.254844 124.579062 125.254844 124.579062 125.254844 124.579062 
C 125.254844 124.579062 125.254844 124.579062 125.254844 124.579062 
z
" clip-path="url(#p27aaea75fe)" style="fill: #d9d9d9"/>
   </g>
   <g id="patch_33">
    <path d="M 125.254844 124.579062 
C 125.254844 124.579062 125.254844 124.579062 125.254844 124.579062 
C 125.254844 124.579062 125.254844 124.579062 125.254844 124.579062 
L 125.254844 124.579062 
C 125.254844 124.579062 125.254844 124.579062 125.254844 124.579062 
C 125.254844 124.579062 125.254844 124.579062 125.254844 124.579062 
z
" clip-path="url(#p27aaea75fe)" style="fill: #d9d9d9"/>
   </g>
   <g id="patch_34">
    <path d="M 125.254844 124.579062 
C 125.254844 124.579062 125.254844 124.579062 125.254844 124.579062 
C 125.254844 124.579062 125.254844 124.579062 125.254844 124.579062 
L 125.254844 124.579062 
C 125.254844 124.579062 125.254844 124.579062 125.254844 124.579062 
C 125.254844 124.579062 125.254844 124.579062 125.254844 124.579062 
z
" clip-path="url(#p27aaea75fe)" style="fill: #d9d9d9"/>
   </g>
   <g id="patch_35">
    <path d="M 125.254844 124.579062 
C 125.254844 124.579062 125.254844 124.579062 125.254844 124.579062 
C 125.254844 124.579062 125.254844 124.579062 125.254844 124.579062 
L 125.254844 124.579062 
C 125.254844 124.579062 125.254844 124.579062 125.254844 124.579062 
C 125.254844 124.579062 125.254844 124.579062 125.254844 124.579062 
z
" clip-path="url(#p27aaea75fe)" style="fill: #a1a1d8"/>
   </g>
   <g id="patch_36">
    <path d="M 125.254844 124.579062 
C 125.254844 124.579062 125.254844 124.579062 125.254844 124.579062 
C 125.254844 124.579062 125.254844 124.579062 125.254844 124.579062 
L 125.254844 124.579062 
C 125.254844 124.579062 125.254844 124.579062 125.254844 124.579062 
C 125.254844 124.579062 125.254844 124.579062 125.254844 124.579062 
z
" clip-path="url(#p27aaea75fe)" style="fill: #a1a1d8"/>
   </g>
   <g id="patch_37">
    <path d="M 125.254844 124.579062 
C 125.254844 124.579062 125.254844 124.579062 125.254844 124.579062 
C 125.254844 124.579062 125.254844 124.579062 125.254844 124.579062 
L 125.254844 124.579062 
C 125.254844 124.579062 125.254844 124.579062 125.254844 124.579062 
C 125.254844 124.579062 125.254844 124.579062 125.254844 124.579062 
z
" clip-path="url(#p27aaea75fe)" style="fill: #a1a1d8"/>
   </g>
   <g id="patch_38">
    <path d="M 125.254844 124.579062 
C 125.254844 124.579062 125.254844 124.579062 125.254844 124.579062 
C 125.254844 124.579062 125.254844 124.579062 125.254844 124.579062 
L 125.254844 124.579062 
C 125.254844 124.579062 125.254844 124.579062 125.254844 124.579062 
C 125.254844 124.579062 125.254844 124.579062 125.254844 124.579062 
z
" clip-path="url(#p27aaea75fe)" style="fill: #a1a1d8"/>
   </g>
   <g id="patch_39">
    <path d="M 125.254844 124.579062 
C 125.254844 124.579062 125.254844 124.579062 125.254844 124.579062 
C 125.254844 124.579062 125.254844 124.579062 125.254844 124.579062 
L 125.254844 124.579062 
C 125.254844 124.579062 125.254844 124.579062 125.254844 124.579062 
C 125.254844 124.579062 125.254844 124.579062 125.254844 124.579062 
z
" clip-path="url(#p27aaea75fe)" style="fill: #a1a1d8"/>
   </g>
   <g id="patch_40">
    <path d="M 125.254844 124.579062 
C 125.254844 124.579062 125.254844 124.579062 125.254844 124.579062 
C 125.254844 124.579062 125.254844 124.579062 125.254844 124.579062 
L 125.254844 124.579062 
C 125.254844 124.579062 125.254844 124.579062 125.254844 124.579062 
C 125.254844 124.579062 125.254844 124.579062 125.254844 124.579062 
z
" clip-path="url(#p27aaea75fe)" style="fill: #a1a1d8"/>
   </g>
   <g id="patch_41">
    <path d="M 125.254844 124.579062 
C 125.254844 124.579062 125.254844 124.579062 125.254844 124.579062 
C 125.254844 124.579062 125.254844 124.579062 125.254844 124.579062 
L 125.254844 124.579062 
C 125.254844 124.579062 125.254844 124.579062 125.254844 124.579062 
C 125.254844 124.579062 125.254844 124.579062 125.254844 124.579062 
z
" clip-path="url(#p27aaea75fe)" style="fill: #a1a1d8"/>
   </g>
   <g id="patch_42">
    <path d="M 125.254844 124.579062 
C 125.254844 124.579062 125.254844 124.579062 125.254844 124.579062 
C 125.254844 124.579062 125.254844 124.579062 125.254844 124.579062 
L 125.254844 124.579062 
C 125.254844 124.579062 125.254844 124.579062 125.254844 124.579062 
C 125.254844 124.579062 125.254844 124.579062 125.254844 124.579062 
z
" clip-path="url(#p27aaea75fe)" style="fill: #a1a1d8"/>
   </g>
   <g id="patch_43">
    <path d="M 125.254844 124.579062 
C 125.254844 124.579062 125.254844 124.579062 125.254844 124.579062 
C 125.254844 124.579062 125.254844 124.579062 125.254844 124.579062 
L 125.254844 124.579062 
C 125.254844 124.579062 125.254844 124.579062 125.254844 124.579062 
C 125.254844 124.579062 125.254844 124.579062 125.254844 124.579062 
z
" clip-path="url(#p27aaea75fe)" style="fill: #a1a1d8"/>
   </g>
   <g id="patch_44">
    <path d="M 125.254844 124.579062 
C 125.254844 124.579062 125.254844 124.579062 125.254844 124.579062 
C 125.254844 124.579062 125.254844 124.579062 125.254844 124.579062 
L 125.254844 124.579062 
C 125.254844 124.579062 125.254844 124.579062 125.254844 124.579062 
C 125.254844 124.579062 125.254844 124.579062 125.254844 124.579062 
z
" clip-path="url(#p27aaea75fe)" style="fill: #a1a1d8"/>
   </g>
   <g id="patch_45">
    <path d="M 125.254844 124.579062 
C 125.254844 124.579062 125.254844 124.579062 125.254844 124.579062 
C 125.254844 124.579062 125.254844 124.579062 125.254844 124.579062 
L 125.254844 124.579062 
C 125.254844 124.579062 125.254844 124.579062 125.254844 124.579062 
C 125.254844 124.579062 125.254844 124.579062 125.254844 124.579062 
z
" clip-path="url(#p27aaea75fe)" style="fill: #a1a1d8"/>
   </g>
   <g id="patch_46">
    <path d="M 125.254844 124.579062 
C 125.254844 124.579062 125.254844 124.579062 125.254844 124.579062 
C 125.254844 124.579062 125.254844 124.579062 125.254844 124.579062 
L 125.254844 124.579062 
C 125.254844 124.579062 125.254844 124.579062 125.254844 124.579062 
C 125.254844 124.579062 125.254844 124.579062 125.254844 124.579062 
z
" clip-path="url(#p27aaea75fe)" style="fill: #a1a1d8"/>
   </g>
   <g id="patch_47">
    <path d="M 125.254844 124.579062 
C 125.254844 124.579062 125.254844 124.579062 125.254844 124.579062 
C 125.254844 124.579062 125.254844 124.579062 125.254844 124.579062 
L 125.254844 124.579062 
C 125.254844 124.579062 125.254844 124.579062 125.254844 124.579062 
C 125.254844 124.579062 125.254844 124.579062 125.254844 124.579062 
z
" clip-path="url(#p27aaea75fe)" style="fill: #a1a1d8"/>
   </g>
   <g id="patch_48">
    <path d="M 125.254844 124.579062 
C 125.254844 124.579062 125.254844 124.579062 125.254844 124.579062 
C 125.254844 124.579062 125.254844 124.579062 125.254844 124.579062 
L 125.254844 124.579062 
C 125.254844 124.579062 125.254844 124.579062 125.254844 124.579062 
C 125.254844 124.579062 125.254844 124.579062 125.254844 124.579062 
z
" clip-path="url(#p27aaea75fe)" style="fill: #a1a1d8"/>
   </g>
   <g id="patch_49">
    <path d="M 125.254844 124.579062 
C 125.254844 124.579062 125.254844 124.579062 125.254844 124.579062 
C 125.254844 124.579062 125.254844 124.579062 125.254844 124.579062 
L 125.254844 124.579062 
C 125.254844 124.579062 125.254844 124.579062 125.254844 124.579062 
C 125.254844 124.579062 125.254844 124.579062 125.254844 124.579062 
z
" clip-path="url(#p27aaea75fe)" style="fill: #a1a1d8"/>
   </g>
   <g id="patch_50">
    <path d="M 125.254844 124.579062 
C 125.254844 124.579062 125.254844 124.579062 125.254844 124.579062 
C 125.254844 124.579062 125.254844 124.579062 125.254844 124.579062 
L 129.74418 170.160061 
C 131.236114 170.013118 132.719935 169.793014 134.190282 169.500544 
C 135.660629 169.208074 137.115731 168.84359 138.550331 168.408409 
z
" clip-path="url(#p27aaea75fe)" style="fill: #a1a1d8"/>
   </g>
   <g id="patch_51">
    <path d="M 125.254844 124.579062 
C 125.254844 124.579062 125.254844 124.579062 125.254844 124.579062 
C 125.254844 124.579062 125.254844 124.579062 125.254844 124.579062 
L 119.878076 179.170299 
C 121.664929 179.346288 123.459345 179.434443 125.254844 179.434443 
C 127.050342 179.434443 128.844759 179.346288 130.631611 179.170299 
z
" clip-path="url(#p27aaea75fe)" style="fill: #a1a1d8"/>
   </g>
   <g id="patch_52">
    <path d="M 125.254844 124.579062 
C 125.254844 124.579062 125.254844 124.579062 125.254844 124.579062 
C 125.254844 124.579062 125.254844 124.579062 125.254844 124.579062 
L 104.862589 191.803318 
C 107.062939 192.470787 109.294734 193.029823 111.549912 193.478406 
C 113.805091 193.926989 116.080934 194.264578 118.369222 194.489955 
z
" clip-path="url(#p27aaea75fe)" style="fill: #a1a1d8"/>
   </g>
   <g id="patch_53">
    <path d="M 125.254844 124.579062 
C 125.254844 124.579062 125.254844 124.579062 125.254844 124.579062 
C 125.254844 124.579062 125.254844 124.579062 125.254844 124.579062 
L 98.239938 175.120397 
C 99.894231 176.004635 101.590941 176.807119 103.323939 177.524951 
C 105.056937 178.242782 106.824134 178.875095 108.619147 179.419606 
z
" clip-path="url(#p27aaea75fe)" style="fill: #a1a1d8"/>
   </g>
   <g id="patch_54">
    <path d="M 125.254844 124.579062 
C 125.254844 124.579062 125.254844 124.579062 125.254844 124.579062 
C 125.254844 124.579062 125.254844 124.579062 125.254844 124.579062 
L 101.433529 153.605418 
C 102.383605 154.385126 103.37139 155.117717 104.393316 155.800546 
C 105.415241 156.483375 106.470076 157.115618 107.55401 157.694993 
z
" clip-path="url(#p27aaea75fe)" style="fill: #a1a1d8"/>
   </g>
   <g id="patch_55">
    <path d="M 125.254844 124.579062 
C 125.254844 124.579062 125.254844 124.579062 125.254844 124.579062 
C 125.254844 124.579062 125.254844 124.579062 125.254844 124.579062 
L 89.417108 153.990332 
C 90.379783 155.163355 91.39947 156.288405 92.472485 157.361421 
C 93.545501 158.434437 94.670552 159.454123 95.843574 160.416798 
z
" clip-path="url(#p27aaea75fe)" style="fill: #a1a1d8"/>
   </g>
   <g id="patch_56">
    <path d="M 125.254844 124.579062 
C 125.254844 124.579062 125.254844 124.579062 125.254844 124.579062 
C 125.254844 124.579062 125.254844 124.579062 125.254844 124.579062 
L 104.567487 135.636685 
C 104.929419 136.313813 105.324379 136.972763 105.750939 137.611155 
C 106.177498 138.249547 106.635144 138.866612 107.122224 139.460119 
z
" clip-path="url(#p27aaea75fe)" style="fill: #a1a1d8"/>
   </g>
   <g id="patch_57">
    <path d="M 125.254844 124.579062 
C 125.254844 124.579062 125.254844 124.579062 125.254844 124.579062 
C 125.254844 124.579062 125.254844 124.579062 125.254844 124.579062 
L 73.669253 140.22738 
C 74.181445 141.915854 74.776229 143.578162 75.451455 145.208302 
C 76.12668 146.838441 76.881535 148.434446 77.713291 149.990552 
z
" clip-path="url(#p27aaea75fe)" style="fill: #a1a1d8"/>
   </g>
   <g id="patch_58">
    <path d="M 125.254844 124.579062 
C 125.254844 124.579062 125.254844 124.579062 125.254844 124.579062 
C 125.254844 124.579062 125.254844 124.579062 125.254844 124.579062 
L 114.336597 125.654416 
C 114.371794 126.011787 114.424517 126.367214 114.494574 126.719413 
C 114.564631 127.071613 114.651938 127.420161 114.756179 127.763798 
z
" clip-path="url(#p27aaea75fe)" style="fill: #a1a1d8"/>
   </g>
   <g id="patch_59">
    <path d="M 125.254844 124.579062 
C 125.254844 124.579062 125.254844 124.579062 125.254844 124.579062 
C 125.254844 124.579062 125.254844 124.579062 125.254844 124.579062 
L 64.464615 118.591748 
C 64.268641 120.581502 64.170477 122.57968 64.170477 124.579062 
C 64.170477 126.578445 64.268641 128.576623 64.464615 130.566377 
z
" clip-path="url(#p27aaea75fe)" style="fill: #a1a1d8"/>
   </g>
   <g id="patch_60">
    <path d="M 125.254844 124.579062 
C 125.254844 124.579062 125.254844 124.579062 125.254844 124.579062 
C 125.254844 124.579062 125.254844 124.579062 125.254844 124.579062 
L 70.846691 108.07453 
C 70.306473 109.85539 69.854016 111.6617 69.490954 113.486935 
C 69.127892 115.312171 68.854663 117.154131 68.672254 119.006164 
z
" clip-path="url(#p27aaea75fe)" style="fill: #a1a1d8"/>
   </g>
   <g id="patch_61">
    <path d="M 125.254844 124.579062 
C 125.254844 124.579062 125.254844 124.579062 125.254844 124.579062 
C 125.254844 124.579062 125.254844 124.579062 125.254844 124.579062 
L 41.861442 80.004361 
C 40.402445 82.733951 39.078344 85.533529 37.893919 88.392983 
C 36.709495 91.252436 35.666176 94.168318 34.76773 97.130097 
z
" clip-path="url(#p27aaea75fe)" style="fill: #a1a1d8"/>
   </g>
   <g id="patch_62">
    <path d="M 125.254844 124.579062 
C 125.254844 124.579062 125.254844 124.579062 125.254844 124.579062 
C 125.254844 124.579062 125.254844 124.579062 125.254844 124.579062 
L 79.697199 87.19087 
C 78.473428 88.682039 77.323606 90.232394 76.251888 91.836334 
C 75.180169 93.440274 74.187846 95.095866 73.278502 96.797129 
z
" clip-path="url(#p27aaea75fe)" style="fill: #a1a1d8"/>
   </g>
   <g id="patch_63">
    <path d="M 125.254844 124.579062 
C 125.254844 124.579062 125.254844 124.579062 125.254844 124.579062 
C 125.254844 124.579062 125.254844 124.579062 125.254844 124.579062 
L 88.803847 80.163395 
C 87.350056 81.356491 85.955719 82.620244 84.625872 83.950091 
C 83.296025 85.279938 82.032272 86.674275 80.839176 88.128066 
z
" clip-path="url(#p27aaea75fe)" style="fill: #a1a1d8"/>
   </g>
   <g id="patch_64">
    <path d="M 125.254844 124.579062 
C 125.254844 124.579062 125.254844 124.579062 125.254844 124.579062 
C 125.254844 124.579062 125.254844 124.579062 125.254844 124.579062 
L 91.852403 62.087491 
C 89.80696 63.180802 87.816429 64.373881 85.887999 65.662416 
C 83.95957 66.950952 82.095566 68.333391 80.30272 69.804742 
z
" clip-path="url(#p27aaea75fe)" style="fill: #a1a1d8"/>
   </g>
   <g id="patch_65">
    <path d="M 125.254844 124.579062 
C 125.254844 124.579062 125.254844 124.579062 125.254844 124.579062 
C 125.254844 124.579062 125.254844 124.579062 125.254844 124.579062 
L 125.254844 124.579062 
C 125.254844 124.579062 125.254844 124.579062 125.254844 124.579062 
C 125.254844 124.579062 125.254844 124.579062 125.254844 124.579062 
z
" clip-path="url(#p27aaea75fe)" style="fill: #a1a1d8"/>
   </g>
   <g id="patch_66">
    <path d="M 125.254844 124.579062 
C 125.254844 124.579062 125.254844 124.579062 125.254844 124.579062 
C 125.254844 124.579062 125.254844 124.579062 125.254844 124.579062 
L 121.596835 87.438675 
C 120.381175 87.558408 119.172125 87.737753 117.974055 87.976064 
C 116.775984 88.214375 115.590336 88.511365 114.421392 88.86596 
z
" clip-path="url(#p27aaea75fe)" style="fill: #a1a1d8"/>
   </g>
   <g id="patch_67">
    <path d="M 125.254844 124.579062 
C 125.254844 124.579062 125.254844 124.579062 125.254844 124.579062 
C 125.254844 124.579062 125.254844 124.579062 125.254844 124.579062 
L 125.254844 124.579062 
C 125.254844 124.579062 125.254844 124.579062 125.254844 124.579062 
C 125.254844 124.579062 125.254844 124.579062 125.254844 124.579062 
z
" clip-path="url(#p27aaea75fe)" style="fill: #ff8c8e"/>
   </g>
   <g id="patch_68">
    <path d="M 125.254844 124.579062 
C 125.254844 124.579062 125.254844 124.579062 125.254844 124.579062 
C 125.254844 124.579062 125.254844 124.579062 125.254844 124.579062 
L 125.254844 124.579062 
C 125.254844 124.579062 125.254844 124.579062 125.254844 124.579062 
C 125.254844 124.579062 125.254844 124.579062 125.254844 124.579062 
z
" clip-path="url(#p27aaea75fe)" style="fill: #ff8c8e"/>
   </g>
   <g id="patch_69">
    <path d="M 125.254844 124.579062 
C 125.254844 124.579062 125.254844 124.579062 125.254844 124.579062 
C 125.254844 124.579062 125.254844 124.579062 125.254844 124.579062 
L 125.254844 124.579062 
C 125.254844 124.579062 125.254844 124.579062 125.254844 124.579062 
C 125.254844 124.579062 125.254844 124.579062 125.254844 124.579062 
z
" clip-path="url(#p27aaea75fe)" style="fill: #ff8c8e"/>
   </g>
   <g id="patch_70">
    <path d="M 125.254844 124.579062 
C 125.254844 124.579062 125.254844 124.579062 125.254844 124.579062 
C 125.254844 124.579062 125.254844 124.579062 125.254844 124.579062 
L 125.254844 124.579062 
C 125.254844 124.579062 125.254844 124.579062 125.254844 124.579062 
C 125.254844 124.579062 125.254844 124.579062 125.254844 124.579062 
z
" clip-path="url(#p27aaea75fe)" style="fill: #ff8c8e"/>
   </g>
   <g id="patch_71">
    <path d="M 125.254844 124.579062 
C 125.254844 124.579062 125.254844 124.579062 125.254844 124.579062 
C 125.254844 124.579062 125.254844 124.579062 125.254844 124.579062 
L 125.254844 124.579062 
C 125.254844 124.579062 125.254844 124.579062 125.254844 124.579062 
C 125.254844 124.579062 125.254844 124.579062 125.254844 124.579062 
z
" clip-path="url(#p27aaea75fe)" style="fill: #ff8c8e"/>
   </g>
   <g id="patch_72">
    <path d="M 125.254844 124.579062 
C 125.254844 124.579062 125.254844 124.579062 125.254844 124.579062 
C 125.254844 124.579062 125.254844 124.579062 125.254844 124.579062 
L 125.254844 124.579062 
C 125.254844 124.579062 125.254844 124.579062 125.254844 124.579062 
C 125.254844 124.579062 125.254844 124.579062 125.254844 124.579062 
z
" clip-path="url(#p27aaea75fe)" style="fill: #ff8c8e"/>
   </g>
   <g id="patch_73">
    <path d="M 125.254844 124.579062 
C 125.254844 124.579062 125.254844 124.579062 125.254844 124.579062 
C 125.254844 124.579062 125.254844 124.579062 125.254844 124.579062 
L 125.254844 124.579062 
C 125.254844 124.579062 125.254844 124.579062 125.254844 124.579062 
C 125.254844 124.579062 125.254844 124.579062 125.254844 124.579062 
z
" clip-path="url(#p27aaea75fe)" style="fill: #ff8c8e"/>
   </g>
   <g id="patch_74">
    <path d="M 125.254844 124.579062 
C 125.254844 124.579062 125.254844 124.579062 125.254844 124.579062 
C 125.254844 124.579062 125.254844 124.579062 125.254844 124.579062 
L 125.254844 124.579062 
C 125.254844 124.579062 125.254844 124.579062 125.254844 124.579062 
C 125.254844 124.579062 125.254844 124.579062 125.254844 124.579062 
z
" clip-path="url(#p27aaea75fe)" style="fill: #ff8c8e"/>
   </g>
   <g id="patch_75">
    <path d="M 125.254844 124.579062 
C 125.254844 124.579062 125.254844 124.579062 125.254844 124.579062 
C 125.254844 124.579062 125.254844 124.579062 125.254844 124.579062 
L 125.254844 124.579062 
C 125.254844 124.579062 125.254844 124.579062 125.254844 124.579062 
C 125.254844 124.579062 125.254844 124.579062 125.254844 124.579062 
z
" clip-path="url(#p27aaea75fe)" style="fill: #ff8c8e"/>
   </g>
   <g id="patch_76">
    <path d="M 125.254844 124.579062 
C 125.254844 124.579062 125.254844 124.579062 125.254844 124.579062 
C 125.254844 124.579062 125.254844 124.579062 125.254844 124.579062 
L 125.254844 124.579062 
C 125.254844 124.579062 125.254844 124.579062 125.254844 124.579062 
C 125.254844 124.579062 125.254844 124.579062 125.254844 124.579062 
z
" clip-path="url(#p27aaea75fe)" style="fill: #ff8c8e"/>
   </g>
   <g id="patch_77">
    <path d="M 125.254844 124.579062 
C 125.254844 124.579062 125.254844 124.579062 125.254844 124.579062 
C 125.254844 124.579062 125.254844 124.579062 125.254844 124.579062 
L 125.254844 124.579062 
C 125.254844 124.579062 125.254844 124.579062 125.254844 124.579062 
C 125.254844 124.579062 125.254844 124.579062 125.254844 124.579062 
z
" clip-path="url(#p27aaea75fe)" style="fill: #ff8c8e"/>
   </g>
   <g id="patch_78">
    <path d="M 125.254844 124.579062 
C 125.254844 124.579062 125.254844 124.579062 125.254844 124.579062 
C 125.254844 124.579062 125.254844 124.579062 125.254844 124.579062 
L 125.254844 124.579062 
C 125.254844 124.579062 125.254844 124.579062 125.254844 124.579062 
C 125.254844 124.579062 125.254844 124.579062 125.254844 124.579062 
z
" clip-path="url(#p27aaea75fe)" style="fill: #ff8c8e"/>
   </g>
   <g id="patch_79">
    <path d="M 125.254844 124.579062 
C 125.254844 124.579062 125.254844 124.579062 125.254844 124.579062 
C 125.254844 124.579062 125.254844 124.579062 125.254844 124.579062 
L 125.254844 124.579062 
C 125.254844 124.579062 125.254844 124.579062 125.254844 124.579062 
C 125.254844 124.579062 125.254844 124.579062 125.254844 124.579062 
z
" clip-path="url(#p27aaea75fe)" style="fill: #ff8c8e"/>
   </g>
   <g id="patch_80">
    <path d="M 125.254844 124.579062 
C 125.254844 124.579062 125.254844 124.579062 125.254844 124.579062 
C 125.254844 124.579062 125.254844 124.579062 125.254844 124.579062 
L 125.254844 124.579062 
C 125.254844 124.579062 125.254844 124.579062 125.254844 124.579062 
C 125.254844 124.579062 125.254844 124.579062 125.254844 124.579062 
z
" clip-path="url(#p27aaea75fe)" style="fill: #ff8c8e"/>
   </g>
   <g id="patch_81">
    <path d="M 125.254844 124.579062 
C 125.254844 124.579062 125.254844 124.579062 125.254844 124.579062 
C 125.254844 124.579062 125.254844 124.579062 125.254844 124.579062 
L 128.865994 136.48343 
C 129.255642 136.365231 129.639251 136.227974 130.015437 136.072152 
C 130.391623 135.916331 130.759932 135.742134 131.119034 135.55019 
z
" clip-path="url(#p27aaea75fe)" style="fill: #ff8c8e"/>
   </g>
   <g id="patch_82">
    <path d="M 138.550331 168.408409 
C 137.115731 168.84359 135.660629 169.208074 134.190282 169.500544 
C 132.719935 169.793014 131.236114 170.013118 129.74418 170.160061 
L 130.491527 177.747997 
C 132.231825 177.576592 133.96266 177.319847 135.677778 176.978689 
C 137.392896 176.637531 139.09023 176.212371 140.76365 175.704744 
z
" clip-path="url(#p27aaea75fe)" style="fill: #ff8c8e"/>
   </g>
   <g id="patch_83">
    <path d="M 130.631611 179.170299 
C 128.844759 179.346288 127.050342 179.434443 125.254844 179.434443 
C 123.459345 179.434443 121.664929 179.346288 119.878076 179.170299 
L 119.681945 181.161653 
C 121.533978 181.344063 123.39385 181.435432 125.254844 181.435432 
C 127.115838 181.435432 128.97571 181.344063 130.827743 181.161653 
z
" clip-path="url(#p27aaea75fe)" style="fill: #ff8c8e"/>
   </g>
   <g id="patch_84">
    <path d="M 118.369222 194.489955 
C 116.080934 194.264578 113.805091 193.926989 111.549912 193.478406 
C 109.294734 193.029823 107.062939 192.470787 104.862589 191.803318 
L 104.510365 192.964445 
C 106.74872 193.643443 109.019064 194.212134 111.313195 194.668465 
C 113.607326 195.124796 115.922478 195.468217 118.25029 195.697486 
z
" clip-path="url(#p27aaea75fe)" style="fill: #ff8c8e"/>
   </g>
   <g id="patch_85">
    <path d="M 108.619147 179.419606 
C 106.824134 178.875095 105.056937 178.242782 103.323939 177.524951 
C 101.590941 176.807119 99.894231 176.004635 98.239938 175.120397 
L 88.476819 193.385908 
C 90.728969 194.589707 93.038866 195.682207 95.398165 196.659461 
C 97.757464 197.636715 100.163322 198.497544 102.607048 199.23884 
z
" clip-path="url(#p27aaea75fe)" style="fill: #ff8c8e"/>
   </g>
   <g id="patch_86">
    <path d="M 107.55401 157.694993 
C 106.470076 157.115618 105.415241 156.483375 104.393316 155.800546 
C 103.37139 155.117717 102.383605 154.385126 101.433529 153.605418 
L 79.539472 180.283404 
C 81.362758 181.779737 83.258411 183.185649 85.219584 184.496063 
C 87.180757 185.806477 89.205086 187.019812 91.285258 188.131688 
z
" clip-path="url(#p27aaea75fe)" style="fill: #ff8c8e"/>
   </g>
   <g id="patch_87">
    <path d="M 95.843574 160.416798 
C 94.670552 159.454123 93.545501 158.434437 92.472485 157.361421 
C 91.39947 156.288405 90.379783 155.163355 89.417108 153.990332 
L 89.417108 153.990332 
C 90.379783 155.163355 91.39947 156.288405 92.472485 157.361421 
C 93.545501 158.434437 94.670552 159.454123 95.843574 160.416798 
z
" clip-path="url(#p27aaea75fe)" style="fill: #ff8c8e"/>
   </g>
   <g id="patch_88">
    <path d="M 107.122224 139.460119 
C 106.635144 138.866612 106.177498 138.249547 105.750939 137.611155 
C 105.324379 136.972763 104.929419 136.313813 104.567487 135.636685 
L 27.46741 176.847535 
C 29.178235 180.048263 31.045176 183.163066 33.06149 186.180692 
C 35.077803 189.198318 37.241058 192.11513 39.543441 194.920593 
z
" clip-path="url(#p27aaea75fe)" style="fill: #ff8c8e"/>
   </g>
   <g id="patch_89">
    <path d="M 77.713291 149.990552 
C 76.881535 148.434446 76.12668 146.838441 75.451455 145.208302 
C 74.776229 143.578162 74.181445 141.915854 73.669253 140.22738 
L 32.958673 152.5768 
C 33.875081 155.597791 34.939258 158.571969 36.147362 161.48859 
C 37.355466 164.405211 38.70604 167.260759 40.194206 170.044921 
z
" clip-path="url(#p27aaea75fe)" style="fill: #ff8c8e"/>
   </g>
   <g id="patch_90">
    <path d="M 114.756179 127.763798 
C 114.651938 127.420161 114.564631 127.071613 114.494574 126.719413 
C 114.424517 126.367214 114.371794 126.011787 114.336597 125.654416 
L 63.491909 130.662181 
C 63.691019 132.683774 63.989263 134.694373 64.385564 136.686715 
C 64.781866 138.679057 65.275747 140.650742 65.865424 142.594646 
z
" clip-path="url(#p27aaea75fe)" style="fill: #ff8c8e"/>
   </g>
   <g id="patch_91">
    <path d="M 64.464615 130.566377 
C 64.268641 128.576623 64.170477 126.578445 64.170477 124.579062 
C 64.170477 122.57968 64.268641 120.581502 64.464615 118.591748 
L 25.102401 114.714908 
C 24.779533 117.993047 24.617807 121.285062 24.617807 124.579062 
C 24.617807 127.873063 24.779533 131.165078 25.102401 134.443217 
z
" clip-path="url(#p27aaea75fe)" style="fill: #ff8c8e"/>
   </g>
   <g id="patch_92">
    <path d="M 68.672254 119.006164 
C 68.854663 117.154131 69.127892 115.312171 69.490954 113.486935 
C 69.854016 111.6617 70.306473 109.85539 70.846691 108.07453 
L 24.711672 94.079625 
C 23.71338 97.370553 22.877265 100.708511 22.206347 104.081442 
C 21.53543 107.454373 21.030518 110.858212 20.693436 114.280663 
z
" clip-path="url(#p27aaea75fe)" style="fill: #ff8c8e"/>
   </g>
   <g id="patch_93">
    <path d="M 34.76773 97.130097 
C 35.666176 94.168318 36.709495 91.252436 37.893919 88.392983 
C 39.078344 85.533529 40.402445 82.733951 41.861442 80.004361 
L 41.861442 80.004361 
C 40.402445 82.733951 39.078344 85.533529 37.893919 88.392983 
C 36.709495 91.252436 35.666176 94.168318 34.76773 97.130097 
z
" clip-path="url(#p27aaea75fe)" style="fill: #ff8c8e"/>
   </g>
   <g id="patch_94">
    <path d="M 73.278502 96.797129 
C 74.187846 95.095866 75.180169 93.440274 76.251888 91.836334 
C 77.323606 90.232394 78.473428 88.682039 79.697199 87.19087 
L 79.697199 87.19087 
C 78.473428 88.682039 77.323606 90.232394 76.251888 91.836334 
C 75.180169 93.440274 74.187846 95.095866 73.278502 96.797129 
z
" clip-path="url(#p27aaea75fe)" style="fill: #ff8c8e"/>
   </g>
   <g id="patch_95">
    <path d="M 80.839176 88.128066 
C 82.032272 86.674275 83.296025 85.279938 84.625872 83.950091 
C 85.955719 82.620244 87.350056 81.356491 88.803847 80.163395 
L 88.803847 80.163395 
C 87.350056 81.356491 85.955719 82.620244 84.625872 83.950091 
C 83.296025 85.279938 82.032272 86.674275 80.839176 88.128066 
z
" clip-path="url(#p27aaea75fe)" style="fill: #ff8c8e"/>
   </g>
   <g id="patch_96">
    <path d="M 80.30272 69.804742 
C 82.095566 68.333391 83.95957 66.950952 85.887999 65.662416 
C 87.816429 64.373881 89.80696 63.180802 91.852403 62.087491 
L 91.852403 62.087491 
C 89.80696 63.180802 87.816429 64.373881 85.887999 65.662416 
C 83.95957 66.950952 82.095566 68.333391 80.30272 69.804742 
z
" clip-path="url(#p27aaea75fe)" style="fill: #ff8c8e"/>
   </g>
   <g id="patch_97">
    <path d="M 125.254844 124.579062 
C 125.254844 124.579062 125.254844 124.579062 125.254844 124.579062 
C 125.254844 124.579062 125.254844 124.579062 125.254844 124.579062 
L 125.254844 124.579062 
C 125.254844 124.579062 125.254844 124.579062 125.254844 124.579062 
C 125.254844 124.579062 125.254844 124.579062 125.254844 124.579062 
z
" clip-path="url(#p27aaea75fe)" style="fill: #ff8c8e"/>
   </g>
   <g id="patch_98">
    <path d="M 114.421392 88.86596 
C 115.590336 88.511365 116.775984 88.214375 117.974055 87.976064 
C 119.172125 87.737753 120.381175 87.558408 121.596835 87.438675 
L 121.596835 87.438675 
C 120.381175 87.558408 119.172125 87.737753 117.974055 87.976064 
C 116.775984 88.214375 115.590336 88.511365 114.421392 88.86596 
z
" clip-path="url(#p27aaea75fe)" style="fill: #ff8c8e"/>
   </g>
   <g id="patch_99">
    <path d="M 125.254844 124.579062 
C 125.254844 124.579062 125.254844 124.579062 125.254844 124.579062 
C 125.254844 124.579062 125.254844 124.579062 125.254844 124.579062 
L 125.254844 124.579062 
C 125.254844 124.579062 125.254844 124.579062 125.254844 124.579062 
C 125.254844 124.579062 125.254844 124.579062 125.254844 124.579062 
z
" clip-path="url(#p27aaea75fe)" style="fill: #828282"/>
   </g>
   <g id="patch_100">
    <path d="M 125.254844 124.579062 
C 125.254844 124.579062 125.254844 124.579062 125.254844 124.579062 
C 125.254844 124.579062 125.254844 124.579062 125.254844 124.579062 
L 125.254844 124.579062 
C 125.254844 124.579062 125.254844 124.579062 125.254844 124.579062 
C 125.254844 124.579062 125.254844 124.579062 125.254844 124.579062 
z
" clip-path="url(#p27aaea75fe)" style="fill: #828282"/>
   </g>
   <g id="patch_101">
    <path d="M 125.254844 124.579062 
C 125.254844 124.579062 125.254844 124.579062 125.254844 124.579062 
C 125.254844 124.579062 125.254844 124.579062 125.254844 124.579062 
L 125.254844 124.579062 
C 125.254844 124.579062 125.254844 124.579062 125.254844 124.579062 
C 125.254844 124.579062 125.254844 124.579062 125.254844 124.579062 
z
" clip-path="url(#p27aaea75fe)" style="fill: #828282"/>
   </g>
   <g id="patch_102">
    <path d="M 125.254844 124.579062 
C 125.254844 124.579062 125.254844 124.579062 125.254844 124.579062 
C 125.254844 124.579062 125.254844 124.579062 125.254844 124.579062 
L 125.254844 124.579062 
C 125.254844 124.579062 125.254844 124.579062 125.254844 124.579062 
C 125.254844 124.579062 125.254844 124.579062 125.254844 124.579062 
z
" clip-path="url(#p27aaea75fe)" style="fill: #828282"/>
   </g>
   <g id="patch_103">
    <path d="M 125.254844 124.579062 
C 125.254844 124.579062 125.254844 124.579062 125.254844 124.579062 
C 125.254844 124.579062 125.254844 124.579062 125.254844 124.579062 
L 125.254844 124.579062 
C 125.254844 124.579062 125.254844 124.579062 125.254844 124.579062 
C 125.254844 124.579062 125.254844 124.579062 125.254844 124.579062 
z
" clip-path="url(#p27aaea75fe)" style="fill: #828282"/>
   </g>
   <g id="patch_104">
    <path d="M 125.254844 124.579062 
C 125.254844 124.579062 125.254844 124.579062 125.254844 124.579062 
C 125.254844 124.579062 125.254844 124.579062 125.254844 124.579062 
L 125.254844 124.579062 
C 125.254844 124.579062 125.254844 124.579062 125.254844 124.579062 
C 125.254844 124.579062 125.254844 124.579062 125.254844 124.579062 
z
" clip-path="url(#p27aaea75fe)" style="fill: #828282"/>
   </g>
   <g id="patch_105">
    <path d="M 125.254844 124.579062 
C 125.254844 124.579062 125.254844 124.579062 125.254844 124.579062 
C 125.254844 124.579062 125.254844 124.579062 125.254844 124.579062 
L 125.254844 124.579062 
C 125.254844 124.579062 125.254844 124.579062 125.254844 124.579062 
C 125.254844 124.579062 125.254844 124.579062 125.254844 124.579062 
z
" clip-path="url(#p27aaea75fe)" style="fill: #828282"/>
   </g>
   <g id="patch_106">
    <path d="M 125.254844 124.579062 
C 125.254844 124.579062 125.254844 124.579062 125.254844 124.579062 
C 125.254844 124.579062 125.254844 124.579062 125.254844 124.579062 
L 125.254844 124.579062 
C 125.254844 124.579062 125.254844 124.579062 125.254844 124.579062 
C 125.254844 124.579062 125.254844 124.579062 125.254844 124.579062 
z
" clip-path="url(#p27aaea75fe)" style="fill: #828282"/>
   </g>
   <g id="patch_107">
    <path d="M 125.254844 124.579062 
C 125.254844 124.579062 125.254844 124.579062 125.254844 124.579062 
C 125.254844 124.579062 125.254844 124.579062 125.254844 124.579062 
L 125.254844 124.579062 
C 125.254844 124.579062 125.254844 124.579062 125.254844 124.579062 
C 125.254844 124.579062 125.254844 124.579062 125.254844 124.579062 
z
" clip-path="url(#p27aaea75fe)" style="fill: #828282"/>
   </g>
   <g id="patch_108">
    <path d="M 125.254844 124.579062 
C 125.254844 124.579062 125.254844 124.579062 125.254844 124.579062 
C 125.254844 124.579062 125.254844 124.579062 125.254844 124.579062 
L 125.254844 124.579062 
C 125.254844 124.579062 125.254844 124.579062 125.254844 124.579062 
C 125.254844 124.579062 125.254844 124.579062 125.254844 124.579062 
z
" clip-path="url(#p27aaea75fe)" style="fill: #828282"/>
   </g>
   <g id="patch_109">
    <path d="M 125.254844 124.579062 
C 125.254844 124.579062 125.254844 124.579062 125.254844 124.579062 
C 125.254844 124.579062 125.254844 124.579062 125.254844 124.579062 
L 125.254844 124.579062 
C 125.254844 124.579062 125.254844 124.579062 125.254844 124.579062 
C 125.254844 124.579062 125.254844 124.579062 125.254844 124.579062 
z
" clip-path="url(#p27aaea75fe)" style="fill: #828282"/>
   </g>
   <g id="patch_110">
    <path d="M 125.254844 124.579062 
C 125.254844 124.579062 125.254844 124.579062 125.254844 124.579062 
C 125.254844 124.579062 125.254844 124.579062 125.254844 124.579062 
L 125.254844 124.579062 
C 125.254844 124.579062 125.254844 124.579062 125.254844 124.579062 
C 125.254844 124.579062 125.254844 124.579062 125.254844 124.579062 
z
" clip-path="url(#p27aaea75fe)" style="fill: #828282"/>
   </g>
   <g id="patch_111">
    <path d="M 125.254844 124.579062 
C 125.254844 124.579062 125.254844 124.579062 125.254844 124.579062 
C 125.254844 124.579062 125.254844 124.579062 125.254844 124.579062 
L 125.254844 124.579062 
C 125.254844 124.579062 125.254844 124.579062 125.254844 124.579062 
C 125.254844 124.579062 125.254844 124.579062 125.254844 124.579062 
z
" clip-path="url(#p27aaea75fe)" style="fill: #828282"/>
   </g>
   <g id="patch_112">
    <path d="M 125.254844 124.579062 
C 125.254844 124.579062 125.254844 124.579062 125.254844 124.579062 
C 125.254844 124.579062 125.254844 124.579062 125.254844 124.579062 
L 125.254844 124.579062 
C 125.254844 124.579062 125.254844 124.579062 125.254844 124.579062 
C 125.254844 124.579062 125.254844 124.579062 125.254844 124.579062 
z
" clip-path="url(#p27aaea75fe)" style="fill: #828282"/>
   </g>
   <g id="patch_113">
    <path d="M 131.119034 135.55019 
C 130.759932 135.742134 130.391623 135.916331 130.015437 136.072152 
C 129.639251 136.227974 129.255642 136.365231 128.865994 136.48343 
L 128.865994 136.48343 
C 129.255642 136.365231 129.639251 136.227974 130.015437 136.072152 
C 130.391623 135.916331 130.759932 135.742134 131.119034 135.55019 
z
" clip-path="url(#p27aaea75fe)" style="fill: #828282"/>
   </g>
   <g id="patch_114">
    <path d="M 140.76365 175.704744 
C 139.09023 176.212371 137.392896 176.637531 135.677778 176.978689 
C 133.96266 177.319847 132.231825 177.576592 130.491527 177.747997 
L 130.491527 177.747997 
C 132.231825 177.576592 133.96266 177.319847 135.677778 176.978689 
C 137.392896 176.637531 139.09023 176.212371 140.76365 175.704744 
z
" clip-path="url(#p27aaea75fe)" style="fill: #828282"/>
   </g>
   <g id="patch_115">
    <path d="M 130.827743 181.161653 
C 128.97571 181.344063 127.115838 181.435432 125.254844 181.435432 
C 123.39385 181.435432 121.533978 181.344063 119.681945 181.161653 
L 119.681945 181.161653 
C 121.533978 181.344063 123.39385 181.435432 125.254844 181.435432 
C 127.115838 181.435432 128.97571 181.344063 130.827743 181.161653 
z
" clip-path="url(#p27aaea75fe)" style="fill: #828282"/>
   </g>
   <g id="patch_116">
    <path d="M 118.25029 195.697486 
C 115.922478 195.468217 113.607326 195.124796 111.313195 194.668465 
C 109.019064 194.212134 106.74872 193.643443 104.510365 192.964445 
L 104.510365 192.964445 
C 106.74872 193.643443 109.019064 194.212134 111.313195 194.668465 
C 113.607326 195.124796 115.922478 195.468217 118.25029 195.697486 
z
" clip-path="url(#p27aaea75fe)" style="fill: #828282"/>
   </g>
   <g id="patch_117">
    <path d="M 102.607048 199.23884 
C 100.163322 198.497544 97.757464 197.636715 95.398165 196.659461 
C 93.038866 195.682207 90.728969 194.589707 88.476819 193.385908 
L 88.476819 193.385908 
C 90.728969 194.589707 93.038866 195.682207 95.398165 196.659461 
C 97.757464 197.636715 100.163322 198.497544 102.607048 199.23884 
z
" clip-path="url(#p27aaea75fe)" style="fill: #828282"/>
   </g>
   <g id="patch_118">
    <path d="M 91.285258 188.131688 
C 89.205086 187.019812 87.180757 185.806477 85.219584 184.496063 
C 83.258411 183.185649 81.362758 181.779737 79.539472 180.283404 
L 79.539472 180.283404 
C 81.362758 181.779737 83.258411 183.185649 85.219584 184.496063 
C 87.180757 185.806477 89.205086 187.019812 91.285258 188.131688 
z
" clip-path="url(#p27aaea75fe)" style="fill: #828282"/>
   </g>
   <g id="patch_119">
    <path d="M 95.843574 160.416798 
C 94.670552 159.454123 93.545501 158.434437 92.472485 157.361421 
C 91.39947 156.288405 90.379783 155.163355 89.417108 153.990332 
L 89.417108 153.990332 
C 90.379783 155.163355 91.39947 156.288405 92.472485 157.361421 
C 93.545501 158.434437 94.670552 159.454123 95.843574 160.416798 
z
" clip-path="url(#p27aaea75fe)" style="fill: #828282"/>
   </g>
   <g id="patch_120">
    <path d="M 39.543441 194.920593 
C 37.241058 192.11513 35.077803 189.198318 33.06149 186.180692 
C 31.045176 183.163066 29.178235 180.048263 27.46741 176.847535 
L 27.46741 176.847535 
C 29.178235 180.048263 31.045176 183.163066 33.06149 186.180692 
C 35.077803 189.198318 37.241058 192.11513 39.543441 194.920593 
z
" clip-path="url(#p27aaea75fe)" style="fill: #828282"/>
   </g>
   <g id="patch_121">
    <path d="M 40.194206 170.044921 
C 38.70604 167.260759 37.355466 164.405211 36.147362 161.48859 
C 34.939258 158.571969 33.875081 155.597791 32.958673 152.5768 
L 32.958673 152.5768 
C 33.875081 155.597791 34.939258 158.571969 36.147362 161.48859 
C 37.355466 164.405211 38.70604 167.260759 40.194206 170.044921 
z
" clip-path="url(#p27aaea75fe)" style="fill: #828282"/>
   </g>
   <g id="patch_122">
    <path d="M 65.865424 142.594646 
C 65.275747 140.650742 64.781866 138.679057 64.385564 136.686715 
C 63.989263 134.694373 63.691019 132.683774 63.491909 130.662181 
L 63.491909 130.662181 
C 63.691019 132.683774 63.989263 134.694373 64.385564 136.686715 
C 64.781866 138.679057 65.275747 140.650742 65.865424 142.594646 
z
" clip-path="url(#p27aaea75fe)" style="fill: #828282"/>
   </g>
   <g id="patch_123">
    <path d="M 25.102401 134.443217 
C 24.779533 131.165078 24.617807 127.873063 24.617807 124.579062 
C 24.617807 121.285062 24.779533 117.993047 25.102401 114.714908 
L 25.102401 114.714908 
C 24.779533 117.993047 24.617807 121.285062 24.617807 124.579062 
C 24.617807 127.873063 24.779533 131.165078 25.102401 134.443217 
z
" clip-path="url(#p27aaea75fe)" style="fill: #828282"/>
   </g>
   <g id="patch_124">
    <path d="M 20.693436 114.280663 
C 21.030518 110.858212 21.53543 107.454373 22.206347 104.081442 
C 22.877265 100.708511 23.71338 97.370553 24.711672 94.079625 
L 24.711672 94.079625 
C 23.71338 97.370553 22.877265 100.708511 22.206347 104.081442 
C 21.53543 107.454373 21.030518 110.858212 20.693436 114.280663 
z
" clip-path="url(#p27aaea75fe)" style="fill: #828282"/>
   </g>
   <g id="patch_125">
    <path d="M 34.76773 97.130097 
C 35.666176 94.168318 36.709495 91.252436 37.893919 88.392983 
C 39.078344 85.533529 40.402445 82.733951 41.861442 80.004361 
L 41.861442 80.004361 
C 40.402445 82.733951 39.078344 85.533529 37.893919 88.392983 
C 36.709495 91.252436 35.666176 94.168318 34.76773 97.130097 
z
" clip-path="url(#p27aaea75fe)" style="fill: #828282"/>
   </g>
   <g id="patch_126">
    <path d="M 73.278502 96.797129 
C 74.187846 95.095866 75.180169 93.440274 76.251888 91.836334 
C 77.323606 90.232394 78.473428 88.682039 79.697199 87.19087 
L 79.697199 87.19087 
C 78.473428 88.682039 77.323606 90.232394 76.251888 91.836334 
C 75.180169 93.440274 74.187846 95.095866 73.278502 96.797129 
z
" clip-path="url(#p27aaea75fe)" style="fill: #828282"/>
   </g>
   <g id="patch_127">
    <path d="M 80.839176 88.128066 
C 82.032272 86.674275 83.296025 85.279938 84.625872 83.950091 
C 85.955719 82.620244 87.350056 81.356491 88.803847 80.163395 
L 88.803847 80.163395 
C 87.350056 81.356491 85.955719 82.620244 84.625872 83.950091 
C 83.296025 85.279938 82.032272 86.674275 80.839176 88.128066 
z
" clip-path="url(#p27aaea75fe)" style="fill: #828282"/>
   </g>
   <g id="patch_128">
    <path d="M 80.30272 69.804742 
C 82.095566 68.333391 83.95957 66.950952 85.887999 65.662416 
C 87.816429 64.373881 89.80696 63.180802 91.852403 62.087491 
L 91.852403 62.087491 
C 89.80696 63.180802 87.816429 64.373881 85.887999 65.662416 
C 83.95957 66.950952 82.095566 68.333391 80.30272 69.804742 
z
" clip-path="url(#p27aaea75fe)" style="fill: #828282"/>
   </g>
   <g id="patch_129">
    <path d="M 125.254844 124.579062 
C 125.254844 124.579062 125.254844 124.579062 125.254844 124.579062 
C 125.254844 124.579062 125.254844 124.579062 125.254844 124.579062 
L 125.254844 124.579062 
C 125.254844 124.579062 125.254844 124.579062 125.254844 124.579062 
C 125.254844 124.579062 125.254844 124.579062 125.254844 124.579062 
z
" clip-path="url(#p27aaea75fe)" style="fill: #828282"/>
   </g>
   <g id="patch_130">
    <path d="M 114.421392 88.86596 
C 115.590336 88.511365 116.775984 88.214375 117.974055 87.976064 
C 119.172125 87.737753 120.381175 87.558408 121.596835 87.438675 
L 121.596835 87.438675 
C 120.381175 87.558408 119.172125 87.737753 117.974055 87.976064 
C 116.775984 88.214375 115.590336 88.511365 114.421392 88.86596 
z
" clip-path="url(#p27aaea75fe)" style="fill: #828282"/>
   </g>
   <g id="patch_131">
    <path d="M 125.254844 124.579062 
C 125.254844 124.579062 125.254844 124.579062 125.254844 124.579062 
C 125.254844 124.579062 125.254844 124.579062 125.254844 124.579062 
L 125.254844 124.579062 
C 125.254844 124.579062 125.254844 124.579062 125.254844 124.579062 
C 125.254844 124.579062 125.254844 124.579062 125.254844 124.579062 
L 125.254844 124.579062 
z
" clip-path="url(#p27aaea75fe)" style="fill: none; stroke: #292929; stroke-width: 0.5; stroke-linejoin: miter"/>
   </g>
   <g id="patch_132">
    <path d="M 125.254844 124.579062 
C 125.254844 124.579062 125.254844 124.579062 125.254844 124.579062 
C 125.254844 124.579062 125.254844 124.579062 125.254844 124.579062 
L 125.254844 124.579062 
C 125.254844 124.579062 125.254844 124.579062 125.254844 124.579062 
C 125.254844 124.579062 125.254844 124.579062 125.254844 124.579062 
L 125.254844 124.579062 
z
" clip-path="url(#p27aaea75fe)" style="fill: none; stroke: #292929; stroke-width: 0.5; stroke-linejoin: miter"/>
   </g>
   <g id="patch_133">
    <path d="M 125.254844 124.579062 
C 125.254844 124.579062 125.254844 124.579062 125.254844 124.579062 
C 125.254844 124.579062 125.254844 124.579062 125.254844 124.579062 
L 125.254844 124.579062 
C 125.254844 124.579062 125.254844 124.579062 125.254844 124.579062 
C 125.254844 124.579062 125.254844 124.579062 125.254844 124.579062 
L 125.254844 124.579062 
z
" clip-path="url(#p27aaea75fe)" style="fill: none; stroke: #292929; stroke-width: 0.5; stroke-linejoin: miter"/>
   </g>
   <g id="patch_134">
    <path d="M 125.254844 124.579062 
C 125.254844 124.579062 125.254844 124.579062 125.254844 124.579062 
C 125.254844 124.579062 125.254844 124.579062 125.254844 124.579062 
L 125.254844 124.579062 
C 125.254844 124.579062 125.254844 124.579062 125.254844 124.579062 
C 125.254844 124.579062 125.254844 124.579062 125.254844 124.579062 
L 125.254844 124.579062 
z
" clip-path="url(#p27aaea75fe)" style="fill: none; stroke: #292929; stroke-width: 0.5; stroke-linejoin: miter"/>
   </g>
   <g id="patch_135">
    <path d="M 125.254844 124.579062 
C 125.254844 124.579062 125.254844 124.579062 125.254844 124.579062 
C 125.254844 124.579062 125.254844 124.579062 125.254844 124.579062 
L 125.254844 124.579062 
C 125.254844 124.579062 125.254844 124.579062 125.254844 124.579062 
C 125.254844 124.579062 125.254844 124.579062 125.254844 124.579062 
L 125.254844 124.579062 
z
" clip-path="url(#p27aaea75fe)" style="fill: none; stroke: #292929; stroke-width: 0.5; stroke-linejoin: miter"/>
   </g>
   <g id="patch_136">
    <path d="M 125.254844 124.579062 
C 125.254844 124.579062 125.254844 124.579062 125.254844 124.579062 
C 125.254844 124.579062 125.254844 124.579062 125.254844 124.579062 
L 125.254844 124.579062 
C 125.254844 124.579062 125.254844 124.579062 125.254844 124.579062 
C 125.254844 124.579062 125.254844 124.579062 125.254844 124.579062 
L 125.254844 124.579062 
z
" clip-path="url(#p27aaea75fe)" style="fill: none; stroke: #292929; stroke-width: 0.5; stroke-linejoin: miter"/>
   </g>
   <g id="patch_137">
    <path d="M 125.254844 124.579062 
C 125.254844 124.579062 125.254844 124.579062 125.254844 124.579062 
C 125.254844 124.579062 125.254844 124.579062 125.254844 124.579062 
L 125.254844 124.579062 
C 125.254844 124.579062 125.254844 124.579062 125.254844 124.579062 
C 125.254844 124.579062 125.254844 124.579062 125.254844 124.579062 
L 125.254844 124.579062 
z
" clip-path="url(#p27aaea75fe)" style="fill: none; stroke: #292929; stroke-width: 0.5; stroke-linejoin: miter"/>
   </g>
   <g id="patch_138">
    <path d="M 125.254844 124.579062 
C 125.254844 124.579062 125.254844 124.579062 125.254844 124.579062 
C 125.254844 124.579062 125.254844 124.579062 125.254844 124.579062 
L 125.254844 124.579062 
C 125.254844 124.579062 125.254844 124.579062 125.254844 124.579062 
C 125.254844 124.579062 125.254844 124.579062 125.254844 124.579062 
L 125.254844 124.579062 
z
" clip-path="url(#p27aaea75fe)" style="fill: none; stroke: #292929; stroke-width: 0.5; stroke-linejoin: miter"/>
   </g>
   <g id="patch_139">
    <path d="M 125.254844 124.579062 
C 125.254844 124.579062 125.254844 124.579062 125.254844 124.579062 
C 125.254844 124.579062 125.254844 124.579062 125.254844 124.579062 
L 125.254844 124.579062 
C 125.254844 124.579062 125.254844 124.579062 125.254844 124.579062 
C 125.254844 124.579062 125.254844 124.579062 125.254844 124.579062 
L 125.254844 124.579062 
z
" clip-path="url(#p27aaea75fe)" style="fill: none; stroke: #292929; stroke-width: 0.5; stroke-linejoin: miter"/>
   </g>
   <g id="patch_140">
    <path d="M 125.254844 124.579062 
C 125.254844 124.579062 125.254844 124.579062 125.254844 124.579062 
C 125.254844 124.579062 125.254844 124.579062 125.254844 124.579062 
L 125.254844 124.579062 
C 125.254844 124.579062 125.254844 124.579062 125.254844 124.579062 
C 125.254844 124.579062 125.254844 124.579062 125.254844 124.579062 
L 125.254844 124.579062 
z
" clip-path="url(#p27aaea75fe)" style="fill: none; stroke: #292929; stroke-width: 0.5; stroke-linejoin: miter"/>
   </g>
   <g id="patch_141">
    <path d="M 125.254844 124.579062 
C 125.254844 124.579062 125.254844 124.579062 125.254844 124.579062 
C 125.254844 124.579062 125.254844 124.579062 125.254844 124.579062 
L 125.254844 124.579062 
C 125.254844 124.579062 125.254844 124.579062 125.254844 124.579062 
C 125.254844 124.579062 125.254844 124.579062 125.254844 124.579062 
L 125.254844 124.579062 
z
" clip-path="url(#p27aaea75fe)" style="fill: none; stroke: #292929; stroke-width: 0.5; stroke-linejoin: miter"/>
   </g>
   <g id="patch_142">
    <path d="M 125.254844 124.579062 
C 125.254844 124.579062 125.254844 124.579062 125.254844 124.579062 
C 125.254844 124.579062 125.254844 124.579062 125.254844 124.579062 
L 125.254844 124.579062 
C 125.254844 124.579062 125.254844 124.579062 125.254844 124.579062 
C 125.254844 124.579062 125.254844 124.579062 125.254844 124.579062 
L 125.254844 124.579062 
z
" clip-path="url(#p27aaea75fe)" style="fill: none; stroke: #292929; stroke-width: 0.5; stroke-linejoin: miter"/>
   </g>
   <g id="patch_143">
    <path d="M 125.254844 124.579062 
C 125.254844 124.579062 125.254844 124.579062 125.254844 124.579062 
C 125.254844 124.579062 125.254844 124.579062 125.254844 124.579062 
L 125.254844 124.579062 
C 125.254844 124.579062 125.254844 124.579062 125.254844 124.579062 
C 125.254844 124.579062 125.254844 124.579062 125.254844 124.579062 
L 125.254844 124.579062 
z
" clip-path="url(#p27aaea75fe)" style="fill: none; stroke: #292929; stroke-width: 0.5; stroke-linejoin: miter"/>
   </g>
   <g id="patch_144">
    <path d="M 125.254844 124.579062 
C 125.254844 124.579062 125.254844 124.579062 125.254844 124.579062 
C 125.254844 124.579062 125.254844 124.579062 125.254844 124.579062 
L 125.254844 124.579062 
C 125.254844 124.579062 125.254844 124.579062 125.254844 124.579062 
C 125.254844 124.579062 125.254844 124.579062 125.254844 124.579062 
L 125.254844 124.579062 
z
" clip-path="url(#p27aaea75fe)" style="fill: none; stroke: #292929; stroke-width: 0.5; stroke-linejoin: miter"/>
   </g>
   <g id="patch_145">
    <path d="M 125.254844 124.579062 
C 125.254844 124.579062 125.254844 124.579062 125.254844 124.579062 
C 125.254844 124.579062 125.254844 124.579062 125.254844 124.579062 
L 128.865994 136.48343 
C 129.255642 136.365231 129.639251 136.227974 130.015437 136.072152 
C 130.391623 135.916331 130.759932 135.742134 131.119034 135.55019 
L 125.254844 124.579062 
z
" clip-path="url(#p27aaea75fe)" style="fill: none; stroke: #292929; stroke-width: 0.5; stroke-linejoin: miter"/>
   </g>
   <g id="patch_146">
    <path d="M 125.254844 124.579062 
C 125.254844 124.579062 125.254844 124.579062 125.254844 124.579062 
C 125.254844 124.579062 125.254844 124.579062 125.254844 124.579062 
L 130.491527 177.747997 
C 132.231825 177.576592 133.96266 177.319847 135.677778 176.978689 
C 137.392896 176.637531 139.09023 176.212371 140.76365 175.704744 
L 125.254844 124.579062 
z
" clip-path="url(#p27aaea75fe)" style="fill: none; stroke: #292929; stroke-width: 0.5; stroke-linejoin: miter"/>
   </g>
   <g id="patch_147">
    <path d="M 125.254844 124.579062 
C 125.254844 124.579062 125.254844 124.579062 125.254844 124.579062 
C 125.254844 124.579062 125.254844 124.579062 125.254844 124.579062 
L 119.681945 181.161653 
C 121.533978 181.344063 123.39385 181.435432 125.254844 181.435432 
C 127.115838 181.435432 128.97571 181.344063 130.827743 181.161653 
L 125.254844 124.579062 
z
" clip-path="url(#p27aaea75fe)" style="fill: none; stroke: #292929; stroke-width: 0.5; stroke-linejoin: miter"/>
   </g>
   <g id="patch_148">
    <path d="M 125.254844 124.579062 
C 125.254844 124.579062 125.254844 124.579062 125.254844 124.579062 
C 125.254844 124.579062 125.254844 124.579062 125.254844 124.579062 
L 104.510365 192.964445 
C 106.74872 193.643443 109.019064 194.212134 111.313195 194.668465 
C 113.607326 195.124796 115.922478 195.468217 118.25029 195.697486 
L 125.254844 124.579062 
z
" clip-path="url(#p27aaea75fe)" style="fill: none; stroke: #292929; stroke-width: 0.5; stroke-linejoin: miter"/>
   </g>
   <g id="patch_149">
    <path d="M 125.254844 124.579062 
C 125.254844 124.579062 125.254844 124.579062 125.254844 124.579062 
C 125.254844 124.579062 125.254844 124.579062 125.254844 124.579062 
L 88.476819 193.385908 
C 90.728969 194.589707 93.038866 195.682207 95.398165 196.659461 
C 97.757464 197.636715 100.163322 198.497544 102.607048 199.23884 
L 125.254844 124.579062 
z
" clip-path="url(#p27aaea75fe)" style="fill: none; stroke: #292929; stroke-width: 0.5; stroke-linejoin: miter"/>
   </g>
   <g id="patch_150">
    <path d="M 125.254844 124.579062 
C 125.254844 124.579062 125.254844 124.579062 125.254844 124.579062 
C 125.254844 124.579062 125.254844 124.579062 125.254844 124.579062 
L 79.539472 180.283404 
C 81.362758 181.779737 83.258411 183.185649 85.219584 184.496063 
C 87.180757 185.806477 89.205086 187.019812 91.285258 188.131688 
L 125.254844 124.579062 
z
" clip-path="url(#p27aaea75fe)" style="fill: none; stroke: #292929; stroke-width: 0.5; stroke-linejoin: miter"/>
   </g>
   <g id="patch_151">
    <path d="M 125.254844 124.579062 
C 125.254844 124.579062 125.254844 124.579062 125.254844 124.579062 
C 125.254844 124.579062 125.254844 124.579062 125.254844 124.579062 
L 89.417108 153.990332 
C 90.379783 155.163355 91.39947 156.288405 92.472485 157.361421 
C 93.545501 158.434437 94.670552 159.454123 95.843574 160.416798 
L 125.254844 124.579062 
z
" clip-path="url(#p27aaea75fe)" style="fill: none; stroke: #292929; stroke-width: 0.5; stroke-linejoin: miter"/>
   </g>
   <g id="patch_152">
    <path d="M 125.254844 124.579062 
C 125.254844 124.579062 125.254844 124.579062 125.254844 124.579062 
C 125.254844 124.579062 125.254844 124.579062 125.254844 124.579062 
L 27.46741 176.847535 
C 29.178235 180.048263 31.045176 183.163066 33.06149 186.180692 
C 35.077803 189.198318 37.241058 192.11513 39.543441 194.920593 
L 125.254844 124.579062 
z
" clip-path="url(#p27aaea75fe)" style="fill: none; stroke: #292929; stroke-width: 0.5; stroke-linejoin: miter"/>
   </g>
   <g id="patch_153">
    <path d="M 125.254844 124.579062 
C 125.254844 124.579062 125.254844 124.579062 125.254844 124.579062 
C 125.254844 124.579062 125.254844 124.579062 125.254844 124.579062 
L 32.958673 152.5768 
C 33.875081 155.597791 34.939258 158.571969 36.147362 161.48859 
C 37.355466 164.405211 38.70604 167.260759 40.194206 170.044921 
L 125.254844 124.579062 
z
" clip-path="url(#p27aaea75fe)" style="fill: none; stroke: #292929; stroke-width: 0.5; stroke-linejoin: miter"/>
   </g>
   <g id="patch_154">
    <path d="M 125.254844 124.579062 
C 125.254844 124.579062 125.254844 124.579062 125.254844 124.579062 
C 125.254844 124.579062 125.254844 124.579062 125.254844 124.579062 
L 63.491909 130.662181 
C 63.691019 132.683774 63.989263 134.694373 64.385564 136.686715 
C 64.781866 138.679057 65.275747 140.650742 65.865424 142.594646 
L 125.254844 124.579062 
z
" clip-path="url(#p27aaea75fe)" style="fill: none; stroke: #292929; stroke-width: 0.5; stroke-linejoin: miter"/>
   </g>
   <g id="patch_155">
    <path d="M 125.254844 124.579062 
C 125.254844 124.579062 125.254844 124.579062 125.254844 124.579062 
C 125.254844 124.579062 125.254844 124.579062 125.254844 124.579062 
L 25.102401 114.714908 
C 24.779533 117.993047 24.617807 121.285062 24.617807 124.579062 
C 24.617807 127.873063 24.779533 131.165078 25.102401 134.443217 
L 125.254844 124.579062 
z
" clip-path="url(#p27aaea75fe)" style="fill: none; stroke: #292929; stroke-width: 0.5; stroke-linejoin: miter"/>
   </g>
   <g id="patch_156">
    <path d="M 125.254844 124.579062 
C 125.254844 124.579062 125.254844 124.579062 125.254844 124.579062 
C 125.254844 124.579062 125.254844 124.579062 125.254844 124.579062 
L 24.711672 94.079625 
C 23.71338 97.370553 22.877265 100.708511 22.206347 104.081442 
C 21.53543 107.454373 21.030518 110.858212 20.693436 114.280663 
L 125.254844 124.579062 
z
" clip-path="url(#p27aaea75fe)" style="fill: none; stroke: #292929; stroke-width: 0.5; stroke-linejoin: miter"/>
   </g>
   <g id="patch_157">
    <path d="M 125.254844 124.579062 
C 125.254844 124.579062 125.254844 124.579062 125.254844 124.579062 
C 125.254844 124.579062 125.254844 124.579062 125.254844 124.579062 
L 41.861442 80.004361 
C 40.402445 82.733951 39.078344 85.533529 37.893919 88.392983 
C 36.709495 91.252436 35.666176 94.168318 34.76773 97.130097 
L 125.254844 124.579062 
z
" clip-path="url(#p27aaea75fe)" style="fill: none; stroke: #292929; stroke-width: 0.5; stroke-linejoin: miter"/>
   </g>
   <g id="patch_158">
    <path d="M 125.254844 124.579062 
C 125.254844 124.579062 125.254844 124.579062 125.254844 124.579062 
C 125.254844 124.579062 125.254844 124.579062 125.254844 124.579062 
L 79.697199 87.19087 
C 78.473428 88.682039 77.323606 90.232394 76.251888 91.836334 
C 75.180169 93.440274 74.187846 95.095866 73.278502 96.797129 
L 125.254844 124.579062 
z
" clip-path="url(#p27aaea75fe)" style="fill: none; stroke: #292929; stroke-width: 0.5; stroke-linejoin: miter"/>
   </g>
   <g id="patch_159">
    <path d="M 125.254844 124.579062 
C 125.254844 124.579062 125.254844 124.579062 125.254844 124.579062 
C 125.254844 124.579062 125.254844 124.579062 125.254844 124.579062 
L 88.803847 80.163395 
C 87.350056 81.356491 85.955719 82.620244 84.625872 83.950091 
C 83.296025 85.279938 82.032272 86.674275 80.839176 88.128066 
L 125.254844 124.579062 
z
" clip-path="url(#p27aaea75fe)" style="fill: none; stroke: #292929; stroke-width: 0.5; stroke-linejoin: miter"/>
   </g>
   <g id="patch_160">
    <path d="M 125.254844 124.579062 
C 125.254844 124.579062 125.254844 124.579062 125.254844 124.579062 
C 125.254844 124.579062 125.254844 124.579062 125.254844 124.579062 
L 91.852403 62.087491 
C 89.80696 63.180802 87.816429 64.373881 85.887999 65.662416 
C 83.95957 66.950952 82.095566 68.333391 80.30272 69.804742 
L 125.254844 124.579062 
z
" clip-path="url(#p27aaea75fe)" style="fill: none; stroke: #292929; stroke-width: 0.5; stroke-linejoin: miter"/>
   </g>
   <g id="patch_161">
    <path d="M 125.254844 124.579062 
C 125.254844 124.579062 125.254844 124.579062 125.254844 124.579062 
C 125.254844 124.579062 125.254844 124.579062 125.254844 124.579062 
L 125.254844 124.579062 
C 125.254844 124.579062 125.254844 124.579062 125.254844 124.579062 
C 125.254844 124.579062 125.254844 124.579062 125.254844 124.579062 
L 125.254844 124.579062 
z
" clip-path="url(#p27aaea75fe)" style="fill: none; stroke: #292929; stroke-width: 0.5; stroke-linejoin: miter"/>
   </g>
   <g id="patch_162">
    <path d="M 125.254844 124.579062 
C 125.254844 124.579062 125.254844 124.579062 125.254844 124.579062 
C 125.254844 124.579062 125.254844 124.579062 125.254844 124.579062 
L 121.596835 87.438675 
C 120.381175 87.558408 119.172125 87.737753 117.974055 87.976064 
C 116.775984 88.214375 115.590336 88.511365 114.421392 88.86596 
L 125.254844 124.579062 
z
" clip-path="url(#p27aaea75fe)" style="fill: none; stroke: #292929; stroke-width: 0.5; stroke-linejoin: miter"/>
   </g>
   <g id="PathCollection_1">
    <defs>
     <path id="ma2a0b34b89" d="M 0.193618 7.414054 
L 0.193618 7.414054 
C 0.054922 7.414054 -0.078235 7.358899 -0.176308 7.260826 
C -0.274381 7.162753 -0.329536 7.029596 -0.329536 6.890901 
L -0.329536 5.365008 
L -1.528416 6.56393 
L -1.528416 6.56393 
C -1.577018 6.612704 -1.634775 6.651408 -1.698366 6.677814 
C -1.761958 6.704221 -1.830141 6.717815 -1.898997 6.717815 
C -1.967853 6.717815 -2.036037 6.704221 -2.099628 6.677814 
C -2.163219 6.651408 -2.220976 6.612704 -2.269578 6.56393 
L -2.269578 6.56393 
C -2.318353 6.515327 -2.357056 6.457571 -2.383463 6.393979 
C -2.409869 6.330388 -2.423463 6.262205 -2.423463 6.193348 
C -2.423463 6.124492 -2.409869 6.056309 -2.383463 5.992718 
C -2.357056 5.929126 -2.318353 5.87137 -2.269578 5.822767 
L -0.329536 3.884106 
L -0.329536 0.820937 
L -2.98067 2.351538 
L -3.691824 5.001416 
L -3.691824 5.001416 
C -3.727584 5.135411 -3.815199 5.249836 -3.93523 5.319305 
C -4.055261 5.388775 -4.198123 5.407741 -4.332122 5.371997 
L -4.332122 5.371997 
C -4.466126 5.336237 -4.580558 5.248616 -4.650029 5.128576 
C -4.719499 5.008535 -4.73846 4.865662 -4.702703 4.731657 
L -4.262647 3.092721 
L -5.585535 3.855668 
L -5.585535 3.855668 
C -5.645013 3.890144 -5.710708 3.912561 -5.778854 3.921634 
C -5.847001 3.930706 -5.916272 3.926258 -5.982698 3.908543 
C -6.049125 3.890828 -6.111412 3.860192 -6.165991 3.818391 
C -6.220571 3.77659 -6.266379 3.724437 -6.300791 3.664922 
L -6.300791 3.664922 
C -6.335212 3.605364 -6.35755 3.539597 -6.366524 3.471396 
C -6.375498 3.403194 -6.370933 3.333888 -6.35309 3.267452 
C -6.335248 3.201017 -6.304476 3.138749 -6.26254 3.08422 
C -6.220605 3.029692 -6.168323 2.983966 -6.108695 2.949666 
L -4.785807 2.186762 
L -6.424743 1.746706 
L -6.424743 1.746706 
C -6.558747 1.710946 -6.673179 1.623325 -6.74265 1.503284 
C -6.81212 1.383244 -6.831081 1.240371 -6.795324 1.106366 
L -6.795324 1.106366 
C -6.777471 1.039969 -6.746703 0.977739 -6.704784 0.923241 
C -6.662864 0.868744 -6.61061 0.823041 -6.551015 0.788752 
C -6.491421 0.754464 -6.425647 0.732257 -6.357465 0.723406 
C -6.289282 0.714554 -6.220019 0.71923 -6.153645 0.737166 
L -3.505232 1.44698 
L -0.852424 -0.08496 
L -3.503767 -1.615666 
L -6.153645 -0.905851 
L -6.153645 -0.905851 
C -6.22011 -0.887939 -6.289462 -0.883321 -6.357716 -0.892262 
C -6.42597 -0.901202 -6.491793 -0.923527 -6.551403 -0.957953 
C -6.611013 -0.992379 -6.663247 -1.038234 -6.705103 -1.092883 
C -6.746958 -1.147533 -6.777619 -1.209911 -6.795324 -1.276432 
L -6.795324 -1.276432 
C -6.831068 -1.410431 -6.812101 -1.553293 -6.742632 -1.673324 
C -6.673162 -1.793355 -6.558738 -1.88097 -6.424743 -1.91673 
L -4.785807 -2.355447 
L -6.108695 -3.119732 
L -6.108695 -3.119732 
C -6.228699 -3.188976 -6.316415 -3.303132 -6.352417 -3.436921 
C -6.388419 -3.57071 -6.369839 -3.713469 -6.300791 -3.833586 
L -6.300791 -3.833586 
C -6.266491 -3.893214 -6.220765 -3.945496 -6.166237 -3.987431 
C -6.111708 -4.029367 -6.04944 -4.060139 -5.983005 -4.077981 
C -5.91657 -4.095823 -5.847263 -4.100389 -5.779062 -4.091415 
C -5.71086 -4.082441 -5.645094 -4.060102 -5.585535 -4.025682 
L -4.262647 -3.261396 
L -4.702703 -4.900332 
L -4.702703 -4.900332 
C -4.73846 -5.034337 -4.719499 -5.17721 -4.650029 -5.29725 
C -4.580558 -5.417291 -4.466126 -5.504912 -4.332122 -5.540672 
L -4.332122 -5.540672 
C -4.19831 -5.576464 -4.055613 -5.557686 -3.935617 -5.488496 
C -3.81562 -5.419305 -3.727882 -5.305212 -3.691824 -5.171472 
L -2.982009 -2.521594 
L -0.329411 -0.990302 
L -0.329411 -4.051588 
L -2.269453 -5.991589 
L -2.269453 -5.991589 
C -2.318227 -6.040191 -2.356931 -6.097947 -2.383337 -6.161539 
C -2.409744 -6.22513 -2.423338 -6.293314 -2.423338 -6.36217 
C -2.423338 -6.431026 -2.409744 -6.499209 -2.383337 -6.5628 
C -2.356931 -6.626392 -2.318227 -6.684149 -2.269453 -6.732751 
L -2.269453 -6.732751 
C -2.22085 -6.781526 -2.163094 -6.820229 -2.099502 -6.846635 
C -2.035911 -6.873042 -1.967728 -6.886636 -1.898871 -6.886636 
C -1.830015 -6.886636 -1.761832 -6.873042 -1.698241 -6.846635 
C -1.634649 -6.820229 -1.576893 -6.781526 -1.52829 -6.732751 
L -0.329411 -5.533829 
L -0.329411 -7.059722 
L -0.329411 -7.059722 
C -0.329411 -7.198418 -0.274255 -7.331575 -0.176182 -7.429647 
C -0.07811 -7.52772 0.055047 -7.582875 0.193743 -7.582875 
L 0.193743 -7.582875 
C 0.332439 -7.582875 0.465596 -7.52772 0.563669 -7.429647 
C 0.661741 -7.331575 0.716897 -7.198418 0.716897 -7.059722 
L 0.716897 -5.533829 
L 1.915777 -6.732751 
L 1.915777 -6.732751 
C 1.964379 -6.781526 2.022136 -6.820229 2.085727 -6.846635 
C 2.149318 -6.873042 2.217502 -6.886636 2.286358 -6.886636 
C 2.355214 -6.886636 2.423397 -6.873042 2.486989 -6.846635 
C 2.55058 -6.820229 2.608337 -6.781526 2.656939 -6.732751 
L 2.656939 -6.732751 
C 2.705714 -6.684149 2.744417 -6.626392 2.770823 -6.5628 
C 2.79723 -6.499209 2.810824 -6.431026 2.810824 -6.36217 
C 2.810824 -6.293314 2.79723 -6.22513 2.770823 -6.161539 
C 2.744417 -6.097947 2.705714 -6.040191 2.656939 -5.991589 
L 0.716897 -4.051588 
L 0.716897 -0.991139 
L 3.369495 -2.522954 
L 4.07931 -5.171367 
L 4.07931 -5.171367 
C 4.115368 -5.305107 4.203106 -5.4192 4.323103 -5.488391 
C 4.4431 -5.557582 4.585797 -5.576359 4.719608 -5.540567 
L 4.719608 -5.540567 
C 4.853612 -5.504807 4.968045 -5.417186 5.037515 -5.297146 
C 5.106986 -5.177105 5.125946 -5.034232 5.090189 -4.900227 
L 4.650133 -3.262673 
L 5.973022 -4.025577 
L 5.973022 -4.025577 
C 6.03258 -4.059998 6.098346 -4.082336 6.166548 -4.09131 
C 6.234749 -4.100284 6.304056 -4.095719 6.370491 -4.077876 
C 6.436926 -4.060034 6.499194 -4.029262 6.553723 -3.987327 
C 6.608252 -3.945391 6.653978 -3.893109 6.688277 -3.833481 
L 6.688277 -3.833481 
C 6.757325 -3.713365 6.775905 -3.570605 6.739903 -3.436816 
C 6.703901 -3.303027 6.616186 -3.188871 6.496181 -3.119628 
L 5.173293 -2.355342 
L 6.812229 -1.916625 
L 6.812229 -1.916625 
C 6.946224 -1.880865 7.060649 -1.79325 7.130118 -1.67322 
C 7.199588 -1.553189 7.218554 -1.410326 7.18281 -1.276327 
L 7.18281 -1.276327 
C 7.165106 -1.209806 7.134445 -1.147429 7.092589 -1.092779 
C 7.050733 -1.038129 6.998499 -0.992274 6.938889 -0.957848 
C 6.879279 -0.923422 6.813456 -0.901098 6.745202 -0.892157 
C 6.676949 -0.883217 6.607597 -0.887835 6.541131 -0.905746 
L 3.891253 -1.615561 
L 1.239492 -0.084604 
L 3.892718 1.447085 
L 6.541131 0.73727 
L 6.541131 0.73727 
C 6.674948 0.701466 6.817656 0.720237 6.937662 0.789429 
C 7.057669 0.858621 7.145413 0.972721 7.181471 1.10647 
L 7.181471 1.10647 
C 7.217274 1.240293 7.198497 1.383006 7.129297 1.503014 
C 7.060096 1.623021 6.945986 1.710762 6.812229 1.74681 
L 5.173293 2.186866 
L 6.496181 2.949771 
L 6.496181 2.949771 
C 6.555697 2.984183 6.607849 3.029991 6.649651 3.08457 
C 6.691452 3.13915 6.722088 3.201437 6.739803 3.267863 
C 6.757517 3.33429 6.761966 3.403561 6.752893 3.471707 
C 6.743821 3.539854 6.721404 3.605549 6.686927 3.665026 
L 6.686927 3.665026 
C 6.617458 3.784813 6.503196 3.87225 6.369416 3.907994 
C 6.235636 3.943739 6.092989 3.924946 5.973032 3.855772 
L 4.650144 3.091487 
L 5.08886 4.731783 
L 5.08886 4.731783 
C 5.124664 4.865606 5.105887 5.008319 5.036686 5.128326 
C 4.967486 5.248334 4.853376 5.336074 4.719619 5.372123 
L 4.719619 5.372123 
C 4.585619 5.407867 4.442757 5.3889 4.322726 5.319431 
C 4.202695 5.249961 4.115081 5.135537 4.07932 5.001542 
L 3.368166 2.351664 
L 0.717033 0.821063 
L 0.717033 3.884232 
L 2.657075 5.822893 
L 2.657075 5.822893 
C 2.70585 5.871495 2.744553 5.929252 2.770959 5.992843 
C 2.797366 6.056435 2.81096 6.124618 2.81096 6.193474 
C 2.81096 6.26233 2.797366 6.330514 2.770959 6.394105 
C 2.744553 6.457696 2.70585 6.515453 2.657075 6.564055 
L 2.657075 6.564055 
C 2.608473 6.61283 2.550716 6.651533 2.487125 6.67794 
C 2.423533 6.704346 2.35535 6.71794 2.286494 6.71794 
C 2.217638 6.71794 2.149454 6.704346 2.085863 6.67794 
C 2.022272 6.651533 1.964515 6.61283 1.915913 6.564055 
L 0.717033 5.365133 
L 0.717033 6.891026 
L 0.717033 6.891026 
C 0.717033 7.029722 0.661877 7.162879 0.563805 7.260952 
C 0.465732 7.359024 0.332575 7.41418 0.193879 7.41418 
L 0.193618 7.414054 
z
"/>
    </defs>
    <g clip-path="url(#p27aaea75fe)">
     <use xlink:href="#ma2a0b34b89" x="45.125503" y="144.81346" style="fill: #9e2096; fill-opacity: 0.7"/>
    </g>
   </g>
   <g id="patch_163">
    <path d="M 125.254844 13.699062 
C 110.694216 13.699062 96.275171 16.567189 82.822905 22.1393 
C 69.370638 27.711411 57.146763 35.879144 46.850844 46.175063 
C 36.554925 56.470982 28.387192 68.694857 22.815081 82.147124 
C 17.24297 95.59939 14.374844 110.018434 14.374844 124.579063 
C 14.374844 139.139691 17.24297 153.558735 22.815081 167.011001 
C 28.387192 180.463268 36.554925 192.687143 46.850844 202.983062 
C 57.146763 213.278981 69.370638 221.446714 82.822905 227.018825 
C 96.275171 232.590936 110.694216 235.459063 125.254844 235.459063 
C 139.815472 235.459063 154.234516 232.590936 167.686783 227.018825 
C 181.139049 221.446714 193.362925 213.278981 203.658844 202.983062 
C 213.954763 192.687143 222.122495 180.463268 227.694606 167.011001 
C 233.266717 153.558735 236.134844 139.139691 236.134844 124.579062 
C 236.134844 110.018434 233.266717 95.59939 227.694606 82.147124 
C 222.122495 68.694857 213.954763 56.470982 203.658844 46.175063 
C 193.362925 35.879144 181.139049 27.711411 167.686783 22.1393 
C 154.234516 16.567189 139.815472 13.699062 125.254844 13.699062 
" style="fill: none; stroke: #000000; stroke-width: 0.8; stroke-linejoin: miter; stroke-linecap: square"/>
   </g>
  </g>
 </g>
 <defs>
  <clipPath id="p27aaea75fe">
   <path d="M 236.134844 124.579063 
C 236.134844 110.018434 233.266717 95.59939 227.694606 82.147124 
C 222.122495 68.694857 213.954763 56.470982 203.658844 46.175063 
C 193.362925 35.879144 181.139049 27.711411 167.686783 22.1393 
C 154.234516 16.567189 139.815472 13.699062 125.254844 13.699062 
C 110.694216 13.699062 96.275171 16.567189 82.822905 22.1393 
C 69.370638 27.711411 57.146763 35.879144 46.850844 46.175063 
C 36.554925 56.470982 28.387192 68.694857 22.815081 82.147124 
C 17.24297 95.59939 14.374844 110.018434 14.374844 124.579062 
C 14.374844 139.139691 17.24297 153.558735 22.815081 167.011001 
C 28.387192 180.463268 36.554925 192.687143 46.850844 202.983062 
C 57.146763 213.278981 69.370638 221.446714 82.822905 227.018825 
C 96.275171 232.590936 110.694216 235.459063 125.254844 235.459063 
C 139.815472 235.459063 154.234516 232.590936 167.686783 227.018825 
C 181.139049 221.446714 193.362925 213.278981 203.658844 202.983062 
C 213.954763 192.687143 222.122495 180.463268 227.694606 167.011001 
C 233.266717 153.558735 236.134844 139.139691 236.134844 124.579063 
M 125.254844 124.579063 
C 125.254844 124.579063 125.254844 124.579063 125.254844 124.579063 
C 125.254844 124.579063 125.254844 124.579063 125.254844 124.579063 
C 125.254844 124.579063 125.254844 124.579063 125.254844 124.579063 
C 125.254844 124.579063 125.254844 124.579063 125.254844 124.579063 
C 125.254844 124.579063 125.254844 124.579063 125.254844 124.579063 
C 125.254844 124.579063 125.254844 124.579063 125.254844 124.579063 
C 125.254844 124.579063 125.254844 124.579063 125.254844 124.579063 
C 125.254844 124.579063 125.254844 124.579063 125.254844 124.579063 
C 125.254844 124.579063 125.254844 124.579063 125.254844 124.579063 
C 125.254844 124.579063 125.254844 124.579063 125.254844 124.579063 
C 125.254844 124.579063 125.254844 124.579063 125.254844 124.579063 
C 125.254844 124.579063 125.254844 124.579063 125.254844 124.579063 
C 125.254844 124.579063 125.254844 124.579063 125.254844 124.579063 
C 125.254844 124.579063 125.254844 124.579063 125.254844 124.579063 
C 125.254844 124.579063 125.254844 124.579063 125.254844 124.579063 
C 125.254844 124.579063 125.254844 124.579063 125.254844 124.579063 
z
"/>
  </clipPath>
 </defs>
</svg>
