<?xml version="1.0" encoding="utf-8" standalone="no"?>
<!DOCTYPE svg PUBLIC "-//W3C//DTD SVG 1.1//EN"
  "http://www.w3.org/Graphics/SVG/1.1/DTD/svg11.dtd">
<svg xmlns:xlink="http://www.w3.org/1999/xlink" width="248.410469pt" height="249.158125pt" viewBox="0 0 248.410469 249.158125" xmlns="http://www.w3.org/2000/svg" version="1.1">
 <title>Ski Rose for Discovery Ski Area</title>
 <metadata>
  <rdf:RDF xmlns:dc="http://purl.org/dc/elements/1.1/" xmlns:cc="http://creativecommons.org/ns#" xmlns:rdf="http://www.w3.org/1999/02/22-rdf-syntax-ns#">
   <cc:Work>
    <dc:type rdf:resource="http://purl.org/dc/dcmitype/StillImage"/>
    <dc:title>Ski Rose for Discovery Ski Area</dc:title>
    <dc:date>2025-07-19T10:48:51.770233</dc:date>
    <dc:description>A 32-bin stacked histogram of downhill ski run orientations colored by difficulty.</dc:description>
    <dc:format>image/svg+xml</dc:format>
    <dc:source>https://openskimap.org/?obj=c6ef230ac0b1e1ee07e1d5cb2b3ed6ded70df3f0</dc:source>
    <dc:creator>
     <cc:Agent>
      <dc:title>https://github.com/dhimmel/openskistats</dc:title>
     </cc:Agent>
    </dc:creator>
    <dc:rights>
     <cc:Agent>
      <dc:title>https://creativecommons.org/licenses/by/4.0/</dc:title>
     </cc:Agent>
    </dc:rights>
   </cc:Work>
  </rdf:RDF>
 </metadata>
 <defs>
  <style type="text/css">*{stroke-linejoin: round; stroke-linecap: butt}</style>
 </defs>
 <g id="figure_1">
  <g id="patch_1">
   <path d="M 0 249.158125 
L 248.410469 249.158125 
L 248.410469 0 
L 0 0 
z
" style="fill: #ffffff"/>
  </g>
  <g id="axes_1">
   <g id="patch_2">
    <path d="M 236.134844 124.579063 
C 236.134844 110.018434 233.266717 95.59939 227.694606 82.147124 
C 222.122495 68.694857 213.954763 56.470982 203.658844 46.175063 
C 193.362925 35.879144 181.139049 27.711411 167.686783 22.1393 
C 154.234516 16.567189 139.815472 13.699063 125.254844 13.699063 
C 110.694216 13.699063 96.275171 16.567189 82.822905 22.1393 
C 69.370638 27.711411 57.146763 35.879144 46.850844 46.175063 
C 36.554925 56.470982 28.387192 68.694857 22.815081 82.147124 
C 17.24297 95.59939 14.374844 110.018434 14.374844 124.579062 
C 14.374844 139.139691 17.24297 153.558735 22.815081 167.011001 
C 28.387192 180.463268 36.554925 192.687143 46.850844 202.983062 
C 57.146763 213.278981 69.370638 221.446714 82.822905 227.018825 
C 96.275171 232.590936 110.694216 235.459063 125.254844 235.459063 
C 139.815472 235.459063 154.234516 232.590936 167.686783 227.018825 
C 181.139049 221.446714 193.362925 213.278981 203.658844 202.983062 
C 213.954763 192.687143 222.122495 180.463268 227.694606 167.011001 
C 233.266717 153.558735 236.134844 139.139691 236.134844 124.579063 
M 125.254844 124.579063 
C 125.254844 124.579063 125.254844 124.579063 125.254844 124.579063 
C 125.254844 124.579063 125.254844 124.579063 125.254844 124.579063 
C 125.254844 124.579063 125.254844 124.579063 125.254844 124.579063 
C 125.254844 124.579063 125.254844 124.579063 125.254844 124.579063 
C 125.254844 124.579063 125.254844 124.579063 125.254844 124.579063 
C 125.254844 124.579063 125.254844 124.579063 125.254844 124.579063 
C 125.254844 124.579063 125.254844 124.579063 125.254844 124.579063 
C 125.254844 124.579063 125.254844 124.579063 125.254844 124.579063 
C 125.254844 124.579063 125.254844 124.579063 125.254844 124.579063 
C 125.254844 124.579063 125.254844 124.579063 125.254844 124.579063 
C 125.254844 124.579063 125.254844 124.579063 125.254844 124.579063 
C 125.254844 124.579063 125.254844 124.579063 125.254844 124.579063 
C 125.254844 124.579063 125.254844 124.579063 125.254844 124.579063 
C 125.254844 124.579063 125.254844 124.579063 125.254844 124.579063 
C 125.254844 124.579063 125.254844 124.579063 125.254844 124.579063 
C 125.254844 124.579063 125.254844 124.579063 125.254844 124.579063 
z
" style="fill: #ffffff"/>
   </g>
   <g id="PolyCollection_1">
    <defs>
     <path id="me23f947770" d="M 235.256661 -137.112186 
L 234.699848 -137.048746 
L 233.745469 -135.025522 
L 232.915341 -133.052127 
L 231.825639 -131.097212 
L 230.891145 -129.191243 
L 229.705898 -127.31421 
L 228.690131 -125.481729 
L 227.42836 -123.687408 
L 226.343546 -121.931962 
L 225.016537 -120.223373 
L 223.871114 -118.547433 
L 222.487361 -116.926697 
L 221.288325 -115.33209 
L 219.855196 -113.800714 
L 218.608937 -112.288763 
L 217.133299 -110.847735 
L 215.845926 -109.419314 
L 214.539639 -108.031104 
L 213.215785 -106.683207 
L 211.673262 -105.42056 
L 210.319875 -104.156755 
L 208.953049 -102.933235 
L 207.574106 -101.749911 
L 206.18436 -100.606648 
L 204.785119 -99.503263 
L 203.377684 -98.439526 
L 201.963347 -97.415157 
L 200.729728 -96.36016 
L 199.302871 -95.410769 
L 197.872812 -94.499715 
L 196.4408 -93.626528 
L 195.1838 -92.710601 
L 193.748572 -91.90923 
L 192.484884 -91.059401 
L 191.050821 -90.327845 
L 189.784373 -89.542387 
L 188.516459 -88.787363 
L 187.090315 -88.155186 
L 185.825199 -87.461501 
L 184.561191 -86.796752 
L 183.299088 -86.160415 
L 182.039665 -85.551936 
L 180.783678 -84.97073 
L 179.53186 -84.416183 
L 178.284923 -83.887651 
L 177.043553 -83.384463 
L 175.808411 -82.905918 
L 174.702721 -82.346586 
L 173.47809 -81.914738 
L 172.26146 -81.505434 
L 171.053383 -81.117872 
L 169.961979 -80.645483 
L 168.768571 -80.299172 
L 167.685351 -79.866637 
L 166.508333 -79.558779 
L 165.434839 -79.16384 
L 164.364992 -78.786962 
L 163.213271 -78.531808 
L 162.155086 -78.1891 
L 161.10141 -77.862908 
L 159.977527 -77.65405 
L 158.936988 -77.358438 
L 157.901604 -77.077732 
L 156.871548 -76.811433 
L 155.846974 -76.559037 
L 154.82801 -76.320042 
L 153.760318 -76.186371 
L 152.756057 -75.970833 
L 151.757603 -75.767051 
L 150.764991 -75.574526 
L 149.778227 -75.392764 
L 148.836401 -75.1393 
L 147.858402 -74.98008 
L 146.88622 -74.830302 
L 145.919778 -74.689498 
L 144.958976 -74.557209 
L 144.003692 -74.432989 
L 143.053785 -74.316404 
L 142.109089 -74.207034 
L 141.18837 -74.044375 
L 140.251386 -73.951584 
L 139.319116 -73.864934 
L 138.391323 -73.784067 
L 137.479136 -73.66122 
L 136.557826 -73.594604 
L 135.640305 -73.532888 
L 134.726276 -73.475789 
L 133.821046 -73.389457 
L 132.911859 -73.344779 
L 132.005325 -73.304064 
L 131.10372 -73.244131 
L 130.200654 -73.214862 
L 129.299322 -73.18909 
L 128.400097 -73.154623 
L 127.500737 -73.139659 
L 126.602139 -73.127926 
L 125.703934 -73.118391 
L 124.805762 -73.119378 
L 123.907594 -73.129675 
L 123.009103 -73.143154 
L 122.110613 -73.171351 
L 121.210868 -73.195479 
L 120.309815 -73.222975 
L 119.407087 -73.253956 
L 118.505804 -73.315014 
L 117.599717 -73.357411 
L 116.691034 -73.403754 
L 115.786262 -73.491167 
L 114.872841 -73.549889 
L 113.955985 -73.613203 
L 113.035394 -73.681389 
L 112.123839 -73.805235 
L 111.196862 -73.887618 
L 110.265459 -73.975749 
L 109.329393 -74.069987 
L 108.409467 -74.23354 
L 107.465778 -74.34429 
L 106.516922 -74.462214 
L 105.562735 -74.587733 
L 104.603073 -74.721278 
L 103.637813 -74.863294 
L 102.666853 -75.01424 
L 101.728994 -75.256093 
L 100.749358 -75.428663 
L 99.763923 -75.611459 
L 98.772672 -75.804969 
L 97.775613 -76.009687 
L 96.772778 -76.226109 
L 95.764219 -76.454737 
L 94.689317 -76.600796 
L 93.666256 -76.853912 
L 92.637739 -77.12088 
L 91.603915 -77.402201 
L 90.56496 -77.698375 
L 89.521067 -78.009898 
L 88.390904 -78.234739 
L 87.334361 -78.577838 
L 86.27359 -78.937879 
L 85.116411 -79.210817 
L 84.044604 -79.605977 
L 82.869577 -79.914311 
L 81.78807 -80.346952 
L 80.596679 -80.693606 
L 79.507006 -81.165986 
L 78.300966 -81.553761 
L 77.086383 -81.963208 
L 75.986094 -82.499575 
L 74.759873 -82.95422 
L 73.526795 -83.432714 
L 72.287493 -83.935785 
L 71.042629 -84.464133 
L 69.792886 -85.018432 
L 68.538974 -85.599325 
L 67.281627 -86.207428 
L 66.0216 -86.843324 
L 64.759667 -87.50757 
L 63.496623 -88.20069 
L 62.233283 -88.923179 
L 60.807025 -89.586752 
L 59.542642 -90.371455 
L 58.280584 -91.186929 
L 56.849336 -91.951309 
L 55.591887 -92.831824 
L 54.161538 -93.666813 
L 52.731905 -94.539078 
L 51.487663 -95.521397 
L 50.065733 -96.467006 
L 48.648147 -97.451208 
L 47.236177 -98.474382 
L 45.831106 -99.536854 
L 44.434227 -100.638905 
L 43.046838 -101.780765 
L 41.188814 -102.838109 
L 39.822938 -104.068676 
L 38.268688 -105.294696 
L 36.929802 -106.60913 
L 35.607264 -107.963866 
L 34.302417 -109.358846 
L 32.809517 -110.763016 
L 31.543184 -112.241688 
L 30.298756 -113.760183 
L 28.868126 -115.298077 
L 27.671218 -116.899065 
L 26.290308 -118.526132 
L 25.147374 -120.208276 
L 23.823667 -121.922994 
L 22.741845 -123.684445 
L 21.484095 -125.484656 
L 20.472163 -127.322894 
L 19.292326 -129.205486 
L 18.363437 -131.116821 
L 17.282427 -133.076676 
L 16.462228 -135.0546 
L 15.523461 -137.081374 
L 15.155937 -137.123248 
L 15.155937 -137.123248 
L 14.891665 -135.205828 
L 14.717756 -133.27852 
L 14.639244 -131.344602 
L 14.658356 -129.407809 
L 14.461039 -127.4803 
L 14.480717 -125.545774 
L 14.414393 -123.611773 
L 14.49875 -121.678812 
L 14.498471 -119.743335 
L 14.646681 -117.813977 
L 14.754741 -115.882516 
L 15.035013 -113.9661 
L 15.091713 -112.027559 
L 15.361141 -110.111282 
L 15.660026 -108.200007 
L 16.065948 -106.307108 
L 16.246081 -104.375482 
L 16.635398 -102.480187 
L 17.05411 -100.591537 
L 17.502314 -98.709969 
L 17.98012 -96.835932 
L 18.487633 -94.969894 
L 19.108204 -93.136995 
L 19.507609 -91.237087 
L 20.106958 -89.397072 
L 20.736466 -87.567164 
L 21.47872 -85.77876 
L 22.168582 -83.972304 
L 22.88487 -82.176031 
L 23.636769 -80.394266 
L 24.420901 -78.626387 
L 25.23789 -76.873423 
L 26.088395 -75.136495 
L 26.90565 -73.381713 
L 27.829116 -71.681208 
L 28.764968 -69.987718 
L 29.730348 -68.310834 
L 30.717655 -66.646599 
L 31.765045 -65.019492 
L 32.797015 -63.382561 
L 33.877552 -61.77719 
L 35.345678 -60.447478 
L 37.165021 -59.396023 
L 39.00567 -58.397744 
L 40.797092 -57.398333 
L 42.658884 -56.492208 
L 44.523683 -55.628138 
L 46.387928 -54.80351 
L 48.192307 -53.964257 
L 50.050849 -53.213136 
L 51.849537 -52.443868 
L 53.644447 -51.707793 
L 55.434646 -51.003926 
L 57.219309 -50.331305 
L 59.044489 -49.74187 
L 60.769162 -49.07603 
L 62.533098 -48.491501 
L 64.288977 -47.934464 
L 66.036321 -47.403981 
L 67.736945 -46.848083 
L 69.467791 -46.368499 
L 71.154494 -45.862565 
L 72.867472 -45.430377 
L 74.539415 -44.971786 
L 76.204099 -44.535521 
L 77.889355 -44.168418 
L 79.538046 -43.774896 
L 81.178944 -43.401353 
L 82.812488 -43.048057 
L 84.438051 -42.713241 
L 86.056171 -42.397335 
L 87.666259 -42.098441 
L 89.251618 -41.777312 
L 90.848025 -41.513653 
L 92.436541 -41.264948 
L 94.017902 -41.032067 
L 95.579736 -40.779143 
L 97.14755 -40.575216 
L 98.698735 -40.353845 
L 100.254252 -40.178479 
L 101.79534 -39.986824 
L 103.338836 -39.836149 
L 104.87057 -39.672453 
L 106.398356 -39.522944 
L 107.926894 -39.40947 
L 109.446659 -39.285732 
L 110.963142 -39.175219 
L 112.478927 -39.093405 
L 113.989045 -39.006828 
L 115.496677 -38.932728 
L 117.002087 -38.870911 
L 118.50633 -38.831063 
L 120.007855 -38.791561 
L 121.508073 -38.763902 
L 123.007278 -38.747997 
L 124.505771 -38.743783 
L 126.003914 -38.74416 
L 127.50239 -38.748749 
L 129.001565 -38.765029 
L 130.50174 -38.793061 
L 132.003994 -38.822972 
L 133.507398 -38.873014 
L 135.012733 -38.935167 
L 136.520277 -39.0096 
L 138.030298 -39.096505 
L 139.545915 -39.178987 
L 141.062265 -39.289847 
L 142.581887 -39.413926 
L 144.110345 -39.527391 
L 145.637977 -39.677203 
L 147.169547 -39.841194 
L 148.712728 -39.992664 
L 150.253615 -40.184624 
L 151.809073 -40.359807 
L 153.360054 -40.581442 
L 154.927441 -40.786231 
L 156.502691 -41.002899 
L 158.070374 -41.271986 
L 159.658375 -41.521592 
L 161.254786 -41.784863 
L 162.857992 -42.066484 
L 164.449373 -42.406022 
L 166.067546 -42.721445 
L 167.692437 -43.057205 
L 169.326073 -43.409956 
L 170.966234 -43.784453 
L 172.61506 -44.177371 
L 174.299991 -44.544657 
L 175.96384 -44.981883 
L 177.635989 -45.439785 
L 179.348631 -45.872114 
L 181.034402 -46.379006 
L 182.764877 -46.858713 
L 184.465817 -47.41382 
L 186.212817 -47.944387 
L 187.968353 -48.501492 
L 189.731947 -49.086074 
L 191.503066 -49.699069 
L 193.281119 -50.34141 
L 195.065446 -51.014037 
L 196.855314 -51.717895 
L 198.649899 -52.453943 
L 200.502827 -53.171392 
L 202.305506 -53.975139 
L 204.169221 -54.76152 
L 205.974547 -55.637923 
L 207.838034 -56.502734 
L 209.700708 -57.407789 
L 211.554031 -58.359367 
L 213.395565 -59.35836 
L 215.21359 -60.412113 
L 216.632442 -61.776979 
L 217.67609 -63.406774 
L 218.761415 -65.008807 
L 219.775206 -66.65691 
L 220.764206 -68.319749 
L 221.686029 -70.020923 
L 222.670207 -71.686836 
L 223.583605 -73.392349 
L 224.456604 -75.118889 
L 225.257613 -76.880188 
L 226.134684 -78.605471 
L 226.834899 -80.410797 
L 227.641124 -82.169277 
L 228.399854 -83.949162 
L 229.111154 -85.748779 
L 229.688127 -87.597297 
L 230.392 -89.400662 
L 230.961927 -91.249747 
L 231.544173 -93.094729 
L 232.015452 -94.971725 
L 232.566772 -96.826311 
L 232.997309 -98.712385 
L 233.473255 -100.587618 
L 233.772892 -102.500816 
L 234.208152 -104.38576 
L 234.602603 -106.280523 
L 234.775428 -108.211102 
L 235.067515 -110.12195 
L 235.344807 -112.035896 
L 235.583226 -113.955648 
L 235.783428 -115.880274 
L 235.761418 -117.820191 
L 235.875137 -119.749276 
L 235.965796 -121.679994 
L 236.020743 -123.612423 
L 236.030836 -125.54579 
L 236.01672 -127.479464 
L 235.968748 -129.412936 
L 235.887669 -131.345656 
L 235.763255 -133.276263 
L 235.617024 -135.205732 
L 235.256661 -137.112186 
z
" style="stroke: #ffee9c"/>
    </defs>
    <g clip-path="url(#p0acd33e63d)">
     <use xlink:href="#me23f947770" x="0" y="249.158125" style="fill: #ffee9c; stroke: #ffee9c"/>
    </g>
   </g>
   <g id="matplotlib.axis_1">
    <g id="xtick_1">
     <g id="line2d_1">
      <path d="M 125.254844 124.579063 
L 125.254844 13.699063 
" clip-path="url(#p0acd33e63d)" style="fill: none; stroke: #b0b0b0; stroke-width: 0.8; stroke-linecap: square"/>
     </g>
     <g id="text_1">
      <!-- N -->
      <g transform="translate(121.070469 7.958438) scale(0.1 -0.1)">
       <defs>
        <path id="DejaVuSans-Bold-4e" d="M 588 4666 
L 1931 4666 
L 3628 1466 
L 3628 4666 
L 4769 4666 
L 4769 0 
L 3425 0 
L 1728 3200 
L 1728 0 
L 588 0 
L 588 4666 
z
" transform="scale(0.015625)"/>
       </defs>
       <use xlink:href="#DejaVuSans-Bold-4e"/>
      </g>
     </g>
    </g>
    <g id="xtick_2">
     <g id="line2d_2">
      <path d="M 125.254844 124.579063 
L 203.658844 46.175063 
" clip-path="url(#p0acd33e63d)" style="fill: none; stroke: #b0b0b0; stroke-width: 0.8; stroke-linecap: square"/>
     </g>
    </g>
    <g id="xtick_3">
     <g id="line2d_3">
      <path d="M 125.254844 124.579063 
L 236.134844 124.579063 
" clip-path="url(#p0acd33e63d)" style="fill: none; stroke: #b0b0b0; stroke-width: 0.8; stroke-linecap: square"/>
     </g>
     <g id="text_2">
      <!-- E -->
      <g transform="translate(241.219219 127.338438) scale(0.1 -0.1)">
       <defs>
        <path id="DejaVuSans-Bold-45" d="M 588 4666 
L 3834 4666 
L 3834 3756 
L 1791 3756 
L 1791 2888 
L 3713 2888 
L 3713 1978 
L 1791 1978 
L 1791 909 
L 3903 909 
L 3903 0 
L 588 0 
L 588 4666 
z
" transform="scale(0.015625)"/>
       </defs>
       <use xlink:href="#DejaVuSans-Bold-45"/>
      </g>
     </g>
    </g>
    <g id="xtick_4">
     <g id="line2d_4">
      <path d="M 125.254844 124.579063 
L 203.658844 202.983062 
" clip-path="url(#p0acd33e63d)" style="fill: none; stroke: #b0b0b0; stroke-width: 0.8; stroke-linecap: square"/>
     </g>
    </g>
    <g id="xtick_5">
     <g id="line2d_5">
      <path d="M 125.254844 124.579063 
L 125.254844 235.459063 
" clip-path="url(#p0acd33e63d)" style="fill: none; stroke: #b0b0b0; stroke-width: 0.8; stroke-linecap: square"/>
     </g>
     <g id="text_3">
      <!-- S -->
      <g transform="translate(121.654063 246.718438) scale(0.1 -0.1)">
       <defs>
        <path id="DejaVuSans-Bold-53" d="M 3834 4519 
L 3834 3531 
Q 3450 3703 3084 3790 
Q 2719 3878 2394 3878 
Q 1963 3878 1756 3759 
Q 1550 3641 1550 3391 
Q 1550 3203 1689 3098 
Q 1828 2994 2194 2919 
L 2706 2816 
Q 3484 2659 3812 2340 
Q 4141 2022 4141 1434 
Q 4141 663 3683 286 
Q 3225 -91 2284 -91 
Q 1841 -91 1394 -6 
Q 947 78 500 244 
L 500 1259 
Q 947 1022 1364 901 
Q 1781 781 2169 781 
Q 2563 781 2772 912 
Q 2981 1044 2981 1288 
Q 2981 1506 2839 1625 
Q 2697 1744 2272 1838 
L 1806 1941 
Q 1106 2091 782 2419 
Q 459 2747 459 3303 
Q 459 4000 909 4375 
Q 1359 4750 2203 4750 
Q 2588 4750 2994 4692 
Q 3400 4634 3834 4519 
z
" transform="scale(0.015625)"/>
       </defs>
       <use xlink:href="#DejaVuSans-Bold-53"/>
      </g>
     </g>
    </g>
    <g id="xtick_6">
     <g id="line2d_6">
      <path d="M 125.254844 124.579063 
L 46.850844 202.983062 
" clip-path="url(#p0acd33e63d)" style="fill: none; stroke: #b0b0b0; stroke-width: 0.8; stroke-linecap: square"/>
     </g>
    </g>
    <g id="xtick_7">
     <g id="line2d_7">
      <path d="M 125.254844 124.579063 
L 14.374844 124.579063 
" clip-path="url(#p0acd33e63d)" style="fill: none; stroke: #b0b0b0; stroke-width: 0.8; stroke-linecap: square"/>
     </g>
     <g id="text_4">
      <!-- W -->
      <g transform="translate(0.36 127.338438) scale(0.1 -0.1)">
       <defs>
        <path id="DejaVuSans-Bold-57" d="M 191 4666 
L 1344 4666 
L 2150 1275 
L 2950 4666 
L 4109 4666 
L 4909 1275 
L 5716 4666 
L 6859 4666 
L 5759 0 
L 4372 0 
L 3525 3547 
L 2688 0 
L 1300 0 
L 191 4666 
z
" transform="scale(0.015625)"/>
       </defs>
       <use xlink:href="#DejaVuSans-Bold-57"/>
      </g>
     </g>
    </g>
    <g id="xtick_8">
     <g id="line2d_8">
      <path d="M 125.254844 124.579063 
L 46.850844 46.175063 
" clip-path="url(#p0acd33e63d)" style="fill: none; stroke: #b0b0b0; stroke-width: 0.8; stroke-linecap: square"/>
     </g>
    </g>
   </g>
   <g id="matplotlib.axis_2"/>
   <g id="patch_3">
    <path d="M 125.254844 124.579063 
C 125.254844 124.579063 125.254844 124.579063 125.254844 124.579063 
C 125.254844 124.579063 125.254844 124.579063 125.254844 124.579063 
L 125.254844 124.579063 
C 125.254844 124.579063 125.254844 124.579063 125.254844 124.579063 
C 125.254844 124.579063 125.254844 124.579063 125.254844 124.579063 
z
" clip-path="url(#p0acd33e63d)" style="fill: #d9d9d9"/>
   </g>
   <g id="patch_4">
    <path d="M 125.254844 124.579063 
C 125.254844 124.579063 125.254844 124.579063 125.254844 124.579063 
C 125.254844 124.579063 125.254844 124.579063 125.254844 124.579063 
L 125.254844 124.579063 
C 125.254844 124.579063 125.254844 124.579063 125.254844 124.579063 
C 125.254844 124.579063 125.254844 124.579063 125.254844 124.579063 
z
" clip-path="url(#p0acd33e63d)" style="fill: #d9d9d9"/>
   </g>
   <g id="patch_5">
    <path d="M 125.254844 124.579063 
C 125.254844 124.579063 125.254844 124.579063 125.254844 124.579063 
C 125.254844 124.579063 125.254844 124.579063 125.254844 124.579063 
L 125.254844 124.579063 
C 125.254844 124.579063 125.254844 124.579063 125.254844 124.579063 
C 125.254844 124.579063 125.254844 124.579063 125.254844 124.579063 
z
" clip-path="url(#p0acd33e63d)" style="fill: #d9d9d9"/>
   </g>
   <g id="patch_6">
    <path d="M 125.254844 124.579063 
C 125.254844 124.579063 125.254844 124.579063 125.254844 124.579063 
C 125.254844 124.579063 125.254844 124.579063 125.254844 124.579063 
L 125.254844 124.579063 
C 125.254844 124.579063 125.254844 124.579063 125.254844 124.579063 
C 125.254844 124.579063 125.254844 124.579063 125.254844 124.579063 
z
" clip-path="url(#p0acd33e63d)" style="fill: #d9d9d9"/>
   </g>
   <g id="patch_7">
    <path d="M 125.254844 124.579063 
C 125.254844 124.579063 125.254844 124.579063 125.254844 124.579063 
C 125.254844 124.579063 125.254844 124.579063 125.254844 124.579063 
L 125.254844 124.579063 
C 125.254844 124.579063 125.254844 124.579063 125.254844 124.579063 
C 125.254844 124.579063 125.254844 124.579063 125.254844 124.579063 
z
" clip-path="url(#p0acd33e63d)" style="fill: #d9d9d9"/>
   </g>
   <g id="patch_8">
    <path d="M 125.254844 124.579063 
C 125.254844 124.579063 125.254844 124.579063 125.254844 124.579063 
C 125.254844 124.579063 125.254844 124.579063 125.254844 124.579063 
L 125.254844 124.579063 
C 125.254844 124.579063 125.254844 124.579063 125.254844 124.579063 
C 125.254844 124.579063 125.254844 124.579063 125.254844 124.579063 
z
" clip-path="url(#p0acd33e63d)" style="fill: #d9d9d9"/>
   </g>
   <g id="patch_9">
    <path d="M 125.254844 124.579063 
C 125.254844 124.579063 125.254844 124.579063 125.254844 124.579063 
C 125.254844 124.579063 125.254844 124.579063 125.254844 124.579063 
L 125.254844 124.579063 
C 125.254844 124.579063 125.254844 124.579063 125.254844 124.579063 
C 125.254844 124.579063 125.254844 124.579063 125.254844 124.579063 
z
" clip-path="url(#p0acd33e63d)" style="fill: #d9d9d9"/>
   </g>
   <g id="patch_10">
    <path d="M 125.254844 124.579063 
C 125.254844 124.579063 125.254844 124.579063 125.254844 124.579063 
C 125.254844 124.579063 125.254844 124.579063 125.254844 124.579063 
L 125.254844 124.579063 
C 125.254844 124.579063 125.254844 124.579063 125.254844 124.579063 
C 125.254844 124.579063 125.254844 124.579063 125.254844 124.579063 
z
" clip-path="url(#p0acd33e63d)" style="fill: #d9d9d9"/>
   </g>
   <g id="patch_11">
    <path d="M 125.254844 124.579063 
C 125.254844 124.579063 125.254844 124.579063 125.254844 124.579063 
C 125.254844 124.579063 125.254844 124.579063 125.254844 124.579063 
L 125.254844 124.579063 
C 125.254844 124.579063 125.254844 124.579063 125.254844 124.579063 
C 125.254844 124.579063 125.254844 124.579063 125.254844 124.579063 
z
" clip-path="url(#p0acd33e63d)" style="fill: #d9d9d9"/>
   </g>
   <g id="patch_12">
    <path d="M 125.254844 124.579063 
C 125.254844 124.579063 125.254844 124.579063 125.254844 124.579063 
C 125.254844 124.579063 125.254844 124.579063 125.254844 124.579063 
L 125.254844 124.579063 
C 125.254844 124.579063 125.254844 124.579063 125.254844 124.579063 
C 125.254844 124.579063 125.254844 124.579063 125.254844 124.579063 
z
" clip-path="url(#p0acd33e63d)" style="fill: #d9d9d9"/>
   </g>
   <g id="patch_13">
    <path d="M 125.254844 124.579063 
C 125.254844 124.579063 125.254844 124.579063 125.254844 124.579063 
C 125.254844 124.579063 125.254844 124.579063 125.254844 124.579063 
L 125.254844 124.579063 
C 125.254844 124.579063 125.254844 124.579063 125.254844 124.579063 
C 125.254844 124.579063 125.254844 124.579063 125.254844 124.579063 
z
" clip-path="url(#p0acd33e63d)" style="fill: #d9d9d9"/>
   </g>
   <g id="patch_14">
    <path d="M 125.254844 124.579063 
C 125.254844 124.579063 125.254844 124.579063 125.254844 124.579063 
C 125.254844 124.579063 125.254844 124.579063 125.254844 124.579063 
L 125.254844 124.579063 
C 125.254844 124.579063 125.254844 124.579063 125.254844 124.579063 
C 125.254844 124.579063 125.254844 124.579063 125.254844 124.579063 
z
" clip-path="url(#p0acd33e63d)" style="fill: #d9d9d9"/>
   </g>
   <g id="patch_15">
    <path d="M 125.254844 124.579063 
C 125.254844 124.579063 125.254844 124.579063 125.254844 124.579063 
C 125.254844 124.579063 125.254844 124.579063 125.254844 124.579063 
L 125.254844 124.579063 
C 125.254844 124.579063 125.254844 124.579063 125.254844 124.579063 
C 125.254844 124.579063 125.254844 124.579063 125.254844 124.579063 
z
" clip-path="url(#p0acd33e63d)" style="fill: #d9d9d9"/>
   </g>
   <g id="patch_16">
    <path d="M 125.254844 124.579063 
C 125.254844 124.579063 125.254844 124.579063 125.254844 124.579063 
C 125.254844 124.579063 125.254844 124.579063 125.254844 124.579063 
L 125.254844 124.579063 
C 125.254844 124.579063 125.254844 124.579063 125.254844 124.579063 
C 125.254844 124.579063 125.254844 124.579063 125.254844 124.579063 
z
" clip-path="url(#p0acd33e63d)" style="fill: #d9d9d9"/>
   </g>
   <g id="patch_17">
    <path d="M 125.254844 124.579063 
C 125.254844 124.579063 125.254844 124.579063 125.254844 124.579063 
C 125.254844 124.579063 125.254844 124.579063 125.254844 124.579063 
L 125.254844 124.579063 
C 125.254844 124.579063 125.254844 124.579063 125.254844 124.579063 
C 125.254844 124.579063 125.254844 124.579063 125.254844 124.579063 
z
" clip-path="url(#p0acd33e63d)" style="fill: #d9d9d9"/>
   </g>
   <g id="patch_18">
    <path d="M 125.254844 124.579063 
C 125.254844 124.579063 125.254844 124.579063 125.254844 124.579063 
C 125.254844 124.579063 125.254844 124.579063 125.254844 124.579063 
L 125.254844 124.579063 
C 125.254844 124.579063 125.254844 124.579063 125.254844 124.579063 
C 125.254844 124.579063 125.254844 124.579063 125.254844 124.579063 
z
" clip-path="url(#p0acd33e63d)" style="fill: #d9d9d9"/>
   </g>
   <g id="patch_19">
    <path d="M 125.254844 124.579063 
C 125.254844 124.579063 125.254844 124.579063 125.254844 124.579063 
C 125.254844 124.579063 125.254844 124.579063 125.254844 124.579063 
L 125.254844 124.579063 
C 125.254844 124.579063 125.254844 124.579063 125.254844 124.579063 
C 125.254844 124.579063 125.254844 124.579063 125.254844 124.579063 
z
" clip-path="url(#p0acd33e63d)" style="fill: #d9d9d9"/>
   </g>
   <g id="patch_20">
    <path d="M 125.254844 124.579063 
C 125.254844 124.579063 125.254844 124.579063 125.254844 124.579063 
C 125.254844 124.579063 125.254844 124.579063 125.254844 124.579063 
L 125.254844 124.579063 
C 125.254844 124.579063 125.254844 124.579063 125.254844 124.579063 
C 125.254844 124.579063 125.254844 124.579063 125.254844 124.579063 
z
" clip-path="url(#p0acd33e63d)" style="fill: #d9d9d9"/>
   </g>
   <g id="patch_21">
    <path d="M 125.254844 124.579063 
C 125.254844 124.579063 125.254844 124.579063 125.254844 124.579063 
C 125.254844 124.579063 125.254844 124.579063 125.254844 124.579063 
L 125.254844 124.579063 
C 125.254844 124.579063 125.254844 124.579063 125.254844 124.579063 
C 125.254844 124.579063 125.254844 124.579063 125.254844 124.579063 
z
" clip-path="url(#p0acd33e63d)" style="fill: #d9d9d9"/>
   </g>
   <g id="patch_22">
    <path d="M 125.254844 124.579063 
C 125.254844 124.579063 125.254844 124.579063 125.254844 124.579063 
C 125.254844 124.579063 125.254844 124.579063 125.254844 124.579063 
L 125.254844 124.579063 
C 125.254844 124.579063 125.254844 124.579063 125.254844 124.579063 
C 125.254844 124.579063 125.254844 124.579063 125.254844 124.579063 
z
" clip-path="url(#p0acd33e63d)" style="fill: #d9d9d9"/>
   </g>
   <g id="patch_23">
    <path d="M 125.254844 124.579063 
C 125.254844 124.579063 125.254844 124.579063 125.254844 124.579063 
C 125.254844 124.579063 125.254844 124.579063 125.254844 124.579063 
L 125.254844 124.579063 
C 125.254844 124.579063 125.254844 124.579063 125.254844 124.579063 
C 125.254844 124.579063 125.254844 124.579063 125.254844 124.579063 
z
" clip-path="url(#p0acd33e63d)" style="fill: #d9d9d9"/>
   </g>
   <g id="patch_24">
    <path d="M 125.254844 124.579063 
C 125.254844 124.579063 125.254844 124.579063 125.254844 124.579063 
C 125.254844 124.579063 125.254844 124.579063 125.254844 124.579063 
L 125.254844 124.579063 
C 125.254844 124.579063 125.254844 124.579063 125.254844 124.579063 
C 125.254844 124.579063 125.254844 124.579063 125.254844 124.579063 
z
" clip-path="url(#p0acd33e63d)" style="fill: #d9d9d9"/>
   </g>
   <g id="patch_25">
    <path d="M 125.254844 124.579063 
C 125.254844 124.579063 125.254844 124.579063 125.254844 124.579063 
C 125.254844 124.579063 125.254844 124.579063 125.254844 124.579063 
L 125.254844 124.579063 
C 125.254844 124.579063 125.254844 124.579063 125.254844 124.579063 
C 125.254844 124.579063 125.254844 124.579063 125.254844 124.579063 
z
" clip-path="url(#p0acd33e63d)" style="fill: #d9d9d9"/>
   </g>
   <g id="patch_26">
    <path d="M 125.254844 124.579063 
C 125.254844 124.579063 125.254844 124.579063 125.254844 124.579063 
C 125.254844 124.579063 125.254844 124.579063 125.254844 124.579063 
L 125.254844 124.579063 
C 125.254844 124.579063 125.254844 124.579063 125.254844 124.579063 
C 125.254844 124.579063 125.254844 124.579063 125.254844 124.579063 
z
" clip-path="url(#p0acd33e63d)" style="fill: #d9d9d9"/>
   </g>
   <g id="patch_27">
    <path d="M 125.254844 124.579063 
C 125.254844 124.579063 125.254844 124.579063 125.254844 124.579063 
C 125.254844 124.579063 125.254844 124.579063 125.254844 124.579063 
L 125.254844 124.579063 
C 125.254844 124.579063 125.254844 124.579063 125.254844 124.579063 
C 125.254844 124.579063 125.254844 124.579063 125.254844 124.579063 
z
" clip-path="url(#p0acd33e63d)" style="fill: #d9d9d9"/>
   </g>
   <g id="patch_28">
    <path d="M 125.254844 124.579063 
C 125.254844 124.579063 125.254844 124.579063 125.254844 124.579063 
C 125.254844 124.579063 125.254844 124.579063 125.254844 124.579063 
L 125.254844 124.579063 
C 125.254844 124.579063 125.254844 124.579063 125.254844 124.579063 
C 125.254844 124.579063 125.254844 124.579063 125.254844 124.579063 
z
" clip-path="url(#p0acd33e63d)" style="fill: #d9d9d9"/>
   </g>
   <g id="patch_29">
    <path d="M 125.254844 124.579063 
C 125.254844 124.579063 125.254844 124.579063 125.254844 124.579063 
C 125.254844 124.579063 125.254844 124.579063 125.254844 124.579063 
L 125.254844 124.579063 
C 125.254844 124.579063 125.254844 124.579063 125.254844 124.579063 
C 125.254844 124.579063 125.254844 124.579063 125.254844 124.579063 
z
" clip-path="url(#p0acd33e63d)" style="fill: #d9d9d9"/>
   </g>
   <g id="patch_30">
    <path d="M 125.254844 124.579063 
C 125.254844 124.579063 125.254844 124.579063 125.254844 124.579063 
C 125.254844 124.579063 125.254844 124.579063 125.254844 124.579063 
L 125.254844 124.579063 
C 125.254844 124.579063 125.254844 124.579063 125.254844 124.579063 
C 125.254844 124.579063 125.254844 124.579063 125.254844 124.579063 
z
" clip-path="url(#p0acd33e63d)" style="fill: #d9d9d9"/>
   </g>
   <g id="patch_31">
    <path d="M 125.254844 124.579063 
C 125.254844 124.579063 125.254844 124.579063 125.254844 124.579063 
C 125.254844 124.579063 125.254844 124.579063 125.254844 124.579063 
L 125.254844 124.579063 
C 125.254844 124.579063 125.254844 124.579063 125.254844 124.579063 
C 125.254844 124.579063 125.254844 124.579063 125.254844 124.579063 
z
" clip-path="url(#p0acd33e63d)" style="fill: #d9d9d9"/>
   </g>
   <g id="patch_32">
    <path d="M 125.254844 124.579063 
C 125.254844 124.579063 125.254844 124.579063 125.254844 124.579063 
C 125.254844 124.579063 125.254844 124.579063 125.254844 124.579063 
L 125.254844 124.579063 
C 125.254844 124.579063 125.254844 124.579063 125.254844 124.579063 
C 125.254844 124.579063 125.254844 124.579063 125.254844 124.579063 
z
" clip-path="url(#p0acd33e63d)" style="fill: #d9d9d9"/>
   </g>
   <g id="patch_33">
    <path d="M 125.254844 124.579063 
C 125.254844 124.579063 125.254844 124.579063 125.254844 124.579063 
C 125.254844 124.579063 125.254844 124.579063 125.254844 124.579063 
L 125.254844 124.579063 
C 125.254844 124.579063 125.254844 124.579063 125.254844 124.579063 
C 125.254844 124.579063 125.254844 124.579063 125.254844 124.579063 
z
" clip-path="url(#p0acd33e63d)" style="fill: #d9d9d9"/>
   </g>
   <g id="patch_34">
    <path d="M 125.254844 124.579063 
C 125.254844 124.579063 125.254844 124.579063 125.254844 124.579063 
C 125.254844 124.579063 125.254844 124.579063 125.254844 124.579063 
L 125.254844 124.579063 
C 125.254844 124.579063 125.254844 124.579063 125.254844 124.579063 
C 125.254844 124.579063 125.254844 124.579063 125.254844 124.579063 
z
" clip-path="url(#p0acd33e63d)" style="fill: #d9d9d9"/>
   </g>
   <g id="patch_35">
    <path d="M 125.254844 124.579063 
C 125.254844 124.579063 125.254844 124.579063 125.254844 124.579063 
C 125.254844 124.579063 125.254844 124.579063 125.254844 124.579063 
L 126.51505 111.78397 
C 126.096248 111.742721 125.675673 111.72206 125.254844 111.72206 
C 124.834015 111.72206 124.41344 111.742721 123.994637 111.78397 
z
" clip-path="url(#p0acd33e63d)" style="fill: #badbb8"/>
   </g>
   <g id="patch_36">
    <path d="M 125.254844 124.579063 
C 125.254844 124.579063 125.254844 124.579063 125.254844 124.579063 
C 125.254844 124.579063 125.254844 124.579063 125.254844 124.579063 
L 125.254844 124.579063 
C 125.254844 124.579063 125.254844 124.579063 125.254844 124.579063 
C 125.254844 124.579063 125.254844 124.579063 125.254844 124.579063 
z
" clip-path="url(#p0acd33e63d)" style="fill: #badbb8"/>
   </g>
   <g id="patch_37">
    <path d="M 125.254844 124.579063 
C 125.254844 124.579063 125.254844 124.579063 125.254844 124.579063 
C 125.254844 124.579063 125.254844 124.579063 125.254844 124.579063 
L 127.397642 120.570169 
C 127.266425 120.500032 127.131844 120.436379 126.994384 120.379442 
C 126.856924 120.322504 126.716751 120.272349 126.574373 120.229159 
z
" clip-path="url(#p0acd33e63d)" style="fill: #badbb8"/>
   </g>
   <g id="patch_38">
    <path d="M 125.254844 124.579063 
C 125.254844 124.579063 125.254844 124.579063 125.254844 124.579063 
C 125.254844 124.579063 125.254844 124.579063 125.254844 124.579063 
L 132.884454 115.282356 
C 132.580159 115.032627 132.263786 114.797989 131.936479 114.579289 
C 131.609171 114.360589 131.271323 114.158091 130.924155 113.972526 
z
" clip-path="url(#p0acd33e63d)" style="fill: #badbb8"/>
   </g>
   <g id="patch_39">
    <path d="M 125.254844 124.579063 
C 125.254844 124.579063 125.254844 124.579063 125.254844 124.579063 
C 125.254844 124.579063 125.254844 124.579063 125.254844 124.579063 
L 132.282494 118.811619 
C 132.093716 118.581594 131.89376 118.360976 131.683345 118.150561 
C 131.472931 117.940147 131.252312 117.74019 131.022287 117.551413 
z
" clip-path="url(#p0acd33e63d)" style="fill: #badbb8"/>
   </g>
   <g id="patch_40">
    <path d="M 125.254844 124.579063 
C 125.254844 124.579063 125.254844 124.579063 125.254844 124.579063 
C 125.254844 124.579063 125.254844 124.579063 125.254844 124.579063 
L 125.254844 124.579063 
C 125.254844 124.579063 125.254844 124.579063 125.254844 124.579063 
C 125.254844 124.579063 125.254844 124.579063 125.254844 124.579063 
z
" clip-path="url(#p0acd33e63d)" style="fill: #badbb8"/>
   </g>
   <g id="patch_41">
    <path d="M 125.254844 124.579063 
C 125.254844 124.579063 125.254844 124.579063 125.254844 124.579063 
C 125.254844 124.579063 125.254844 124.579063 125.254844 124.579063 
L 129.604747 123.259534 
C 129.561557 123.117155 129.511402 122.976982 129.454465 122.839523 
C 129.397527 122.702063 129.333875 122.567481 129.263738 122.436264 
z
" clip-path="url(#p0acd33e63d)" style="fill: #badbb8"/>
   </g>
   <g id="patch_42">
    <path d="M 125.254844 124.579063 
C 125.254844 124.579063 125.254844 124.579063 125.254844 124.579063 
C 125.254844 124.579063 125.254844 124.579063 125.254844 124.579063 
L 140.25842 123.101339 
C 140.210052 122.61025 140.137602 122.121831 140.041332 121.637847 
C 139.945061 121.153863 139.825087 120.674898 139.681841 120.202681 
z
" clip-path="url(#p0acd33e63d)" style="fill: #badbb8"/>
   </g>
   <g id="patch_43">
    <path d="M 125.254844 124.579063 
C 125.254844 124.579063 125.254844 124.579063 125.254844 124.579063 
C 125.254844 124.579063 125.254844 124.579063 125.254844 124.579063 
L 149.192271 126.936693 
C 149.269439 126.153186 149.308094 125.366361 149.308094 124.579063 
C 149.308094 123.791764 149.269439 123.004939 149.192271 122.221432 
z
" clip-path="url(#p0acd33e63d)" style="fill: #badbb8"/>
   </g>
   <g id="patch_44">
    <path d="M 125.254844 124.579063 
C 125.254844 124.579063 125.254844 124.579063 125.254844 124.579063 
C 125.254844 124.579063 125.254844 124.579063 125.254844 124.579063 
L 139.681841 128.955444 
C 139.825087 128.483227 139.945061 128.004262 140.041332 127.520278 
C 140.137602 127.036294 140.210052 126.547875 140.25842 126.056786 
z
" clip-path="url(#p0acd33e63d)" style="fill: #badbb8"/>
   </g>
   <g id="patch_45">
    <path d="M 125.254844 124.579063 
C 125.254844 124.579063 125.254844 124.579063 125.254844 124.579063 
C 125.254844 124.579063 125.254844 124.579063 125.254844 124.579063 
L 141.290419 133.150256 
C 141.570967 132.625388 141.825577 132.087062 142.053328 131.537222 
C 142.281078 130.987383 142.481697 130.426693 142.654457 129.857178 
z
" clip-path="url(#p0acd33e63d)" style="fill: #badbb8"/>
   </g>
   <g id="patch_46">
    <path d="M 125.254844 124.579063 
C 125.254844 124.579063 125.254844 124.579063 125.254844 124.579063 
C 125.254844 124.579063 125.254844 124.579063 125.254844 124.579063 
L 144.17737 140.108378 
C 144.685668 139.489016 145.16325 138.845071 145.608392 138.178869 
C 146.053534 137.512667 146.465699 136.825011 146.843398 136.118385 
z
" clip-path="url(#p0acd33e63d)" style="fill: #badbb8"/>
   </g>
   <g id="patch_47">
    <path d="M 125.254844 124.579063 
C 125.254844 124.579063 125.254844 124.579063 125.254844 124.579063 
C 125.254844 124.579063 125.254844 124.579063 125.254844 124.579063 
L 145.645834 149.425557 
C 146.459097 148.758129 147.239101 148.051175 147.983029 147.307247 
C 148.726956 146.56332 149.43391 145.783316 150.101338 144.970053 
z
" clip-path="url(#p0acd33e63d)" style="fill: #badbb8"/>
   </g>
   <g id="patch_48">
    <path d="M 125.254844 124.579063 
C 125.254844 124.579063 125.254844 124.579063 125.254844 124.579063 
C 125.254844 124.579063 125.254844 124.579063 125.254844 124.579063 
L 137.749398 147.95473 
C 138.514519 147.545764 139.259099 147.09948 139.98045 146.617489 
C 140.7018 146.135498 141.399052 145.618381 142.069685 145.068006 
z
" clip-path="url(#p0acd33e63d)" style="fill: #badbb8"/>
   </g>
   <g id="patch_49">
    <path d="M 125.254844 124.579063 
C 125.254844 124.579063 125.254844 124.579063 125.254844 124.579063 
C 125.254844 124.579063 125.254844 124.579063 125.254844 124.579063 
L 137.276323 164.208568 
C 138.573456 163.815087 139.850488 163.358158 141.102807 162.83943 
C 142.355126 162.320703 143.581222 161.740802 144.776666 161.101824 
z
" clip-path="url(#p0acd33e63d)" style="fill: #badbb8"/>
   </g>
   <g id="patch_50">
    <path d="M 125.254844 124.579063 
C 125.254844 124.579063 125.254844 124.579063 125.254844 124.579063 
C 125.254844 124.579063 125.254844 124.579063 125.254844 124.579063 
L 127.437586 146.740813 
C 128.162973 146.669369 128.884415 146.562353 129.599307 146.420152 
C 130.314198 146.277952 131.021677 146.100737 131.719188 145.88915 
z
" clip-path="url(#p0acd33e63d)" style="fill: #badbb8"/>
   </g>
   <g id="patch_51">
    <path d="M 125.254844 124.579063 
C 125.254844 124.579063 125.254844 124.579063 125.254844 124.579063 
C 125.254844 124.579063 125.254844 124.579063 125.254844 124.579063 
L 122.135991 156.245302 
C 123.172475 156.347386 124.213345 156.398521 125.254844 156.398521 
C 126.296342 156.398521 127.337213 156.347386 128.373696 156.245302 
z
" clip-path="url(#p0acd33e63d)" style="fill: #badbb8"/>
   </g>
   <g id="patch_52">
    <path d="M 125.254844 124.579063 
C 125.254844 124.579063 125.254844 124.579063 125.254844 124.579063 
C 125.254844 124.579063 125.254844 124.579063 125.254844 124.579063 
L 118.526541 146.759305 
C 119.252533 146.979532 119.988901 147.163982 120.732983 147.31199 
C 121.477066 147.459997 122.227967 147.571383 122.982974 147.645744 
z
" clip-path="url(#p0acd33e63d)" style="fill: #badbb8"/>
   </g>
   <g id="patch_53">
    <path d="M 125.254844 124.579063 
C 125.254844 124.579063 125.254844 124.579063 125.254844 124.579063 
C 125.254844 124.579063 125.254844 124.579063 125.254844 124.579063 
L 109.219609 154.578877 
C 110.201547 155.103735 111.208663 155.580065 112.237319 156.006148 
C 113.265974 156.432231 114.314929 156.807553 115.380395 157.130759 
z
" clip-path="url(#p0acd33e63d)" style="fill: #badbb8"/>
   </g>
   <g id="patch_54">
    <path d="M 125.254844 124.579063 
C 125.254844 124.579063 125.254844 124.579063 125.254844 124.579063 
C 125.254844 124.579063 125.254844 124.579063 125.254844 124.579063 
L 102.366013 152.469183 
C 103.278899 153.218368 104.228017 153.922282 105.209939 154.578382 
C 106.191862 155.234482 107.205405 155.841976 108.246909 156.398671 
z
" clip-path="url(#p0acd33e63d)" style="fill: #badbb8"/>
   </g>
   <g id="patch_55">
    <path d="M 125.254844 124.579063 
C 125.254844 124.579063 125.254844 124.579063 125.254844 124.579063 
C 125.254844 124.579063 125.254844 124.579063 125.254844 124.579063 
L 97.144245 147.648835 
C 97.899353 148.568937 98.69918 149.45141 99.540838 150.293068 
C 100.382496 151.134726 101.264969 151.934553 102.185071 152.689662 
z
" clip-path="url(#p0acd33e63d)" style="fill: #badbb8"/>
   </g>
   <g id="patch_56">
    <path d="M 125.254844 124.579063 
C 125.254844 124.579063 125.254844 124.579063 125.254844 124.579063 
C 125.254844 124.579063 125.254844 124.579063 125.254844 124.579063 
L 93.944382 141.314853 
C 94.492169 142.339691 95.089943 143.337017 95.735544 144.303228 
C 96.381146 145.269439 97.073796 146.20337 97.810994 147.101648 
z
" clip-path="url(#p0acd33e63d)" style="fill: #badbb8"/>
   </g>
   <g id="patch_57">
    <path d="M 125.254844 124.579063 
C 125.254844 124.579063 125.254844 124.579063 125.254844 124.579063 
C 125.254844 124.579063 125.254844 124.579063 125.254844 124.579063 
L 93.587069 134.185377 
C 93.901498 135.22191 94.266629 136.242382 94.681142 137.243105 
C 95.095655 138.243827 95.559051 139.223596 96.069656 140.178871 
z
" clip-path="url(#p0acd33e63d)" style="fill: #badbb8"/>
   </g>
   <g id="patch_58">
    <path d="M 125.254844 124.579063 
C 125.254844 124.579063 125.254844 124.579063 125.254844 124.579063 
C 125.254844 124.579063 125.254844 124.579063 125.254844 124.579063 
L 98.112353 127.252365 
C 98.199854 128.140779 98.330921 129.024361 98.505081 129.899921 
C 98.679241 130.775481 98.896283 131.641962 99.155424 132.496235 
z
" clip-path="url(#p0acd33e63d)" style="fill: #badbb8"/>
   </g>
   <g id="patch_59">
    <path d="M 125.254844 124.579063 
C 125.254844 124.579063 125.254844 124.579063 125.254844 124.579063 
C 125.254844 124.579063 125.254844 124.579063 125.254844 124.579063 
L 82.101034 120.328783 
C 81.961916 121.741272 81.892231 123.159739 81.892231 124.579062 
C 81.892231 125.998386 81.961916 127.416853 82.101034 128.829342 
z
" clip-path="url(#p0acd33e63d)" style="fill: #badbb8"/>
   </g>
   <g id="patch_60">
    <path d="M 125.254844 124.579063 
C 125.254844 124.579063 125.254844 124.579063 125.254844 124.579063 
C 125.254844 124.579063 125.254844 124.579063 125.254844 124.579063 
L 94.80552 115.342361 
C 94.503189 116.339013 94.249973 117.349908 94.046787 118.371394 
C 93.843601 119.39288 93.690689 120.423727 93.588604 121.46021 
z
" clip-path="url(#p0acd33e63d)" style="fill: #badbb8"/>
   </g>
   <g id="patch_61">
    <path d="M 125.254844 124.579063 
C 125.254844 124.579063 125.254844 124.579063 125.254844 124.579063 
C 125.254844 124.579063 125.254844 124.579063 125.254844 124.579063 
L 88.732082 105.05724 
C 88.093104 106.252684 87.513204 107.47878 86.994476 108.731099 
C 86.475749 109.983418 86.018819 111.260451 85.625338 112.557583 
z
" clip-path="url(#p0acd33e63d)" style="fill: #badbb8"/>
   </g>
   <g id="patch_62">
    <path d="M 125.254844 124.579063 
C 125.254844 124.579063 125.254844 124.579063 125.254844 124.579063 
C 125.254844 124.579063 125.254844 124.579063 125.254844 124.579063 
L 99.673812 103.585253 
C 98.986654 104.422558 98.341019 105.293096 97.739239 106.193723 
C 97.137459 107.09435 96.580261 108.02398 96.069656 108.979254 
z
" clip-path="url(#p0acd33e63d)" style="fill: #badbb8"/>
   </g>
   <g id="patch_63">
    <path d="M 125.254844 124.579063 
C 125.254844 124.579063 125.254844 124.579063 125.254844 124.579063 
C 125.254844 124.579063 125.254844 124.579063 125.254844 124.579063 
L 109.46005 105.333051 
C 108.8301 105.850038 108.225911 106.397643 107.649668 106.973886 
C 107.073424 107.55013 106.525819 108.154318 106.008832 108.784269 
z
" clip-path="url(#p0acd33e63d)" style="fill: #badbb8"/>
   </g>
   <g id="patch_64">
    <path d="M 125.254844 124.579063 
C 125.254844 124.579063 125.254844 124.579063 125.254844 124.579063 
C 125.254844 124.579063 125.254844 124.579063 125.254844 124.579063 
L 113.133345 101.901334 
C 112.391069 102.298089 111.66872 102.731048 110.968908 103.198648 
C 110.269095 103.666248 109.592661 104.167925 108.942051 104.701867 
z
" clip-path="url(#p0acd33e63d)" style="fill: #badbb8"/>
   </g>
   <g id="patch_65">
    <path d="M 125.254844 124.579063 
C 125.254844 124.579063 125.254844 124.579063 125.254844 124.579063 
C 125.254844 124.579063 125.254844 124.579063 125.254844 124.579063 
L 118.6572 102.829546 
C 117.945306 103.045496 117.244443 103.296269 116.557144 103.580958 
C 115.869845 103.865646 115.196937 104.183908 114.540852 104.534593 
z
" clip-path="url(#p0acd33e63d)" style="fill: #badbb8"/>
   </g>
   <g id="patch_66">
    <path d="M 125.254844 124.579063 
C 125.254844 124.579063 125.254844 124.579063 125.254844 124.579063 
C 125.254844 124.579063 125.254844 124.579063 125.254844 124.579063 
L 124.62474 118.181516 
C 124.415339 118.20214 124.207077 118.233033 124.000705 118.274083 
C 123.794334 118.315133 123.590102 118.36629 123.388748 118.42737 
z
" clip-path="url(#p0acd33e63d)" style="fill: #badbb8"/>
   </g>
   <g id="patch_67">
    <path d="M 123.994637 111.78397 
C 124.41344 111.742721 124.834015 111.72206 125.254844 111.72206 
C 125.675673 111.72206 126.096248 111.742721 126.51505 111.78397 
L 131.012623 66.119349 
C 129.099149 65.930888 127.177576 65.836487 125.254844 65.836487 
C 123.332112 65.836487 121.410538 65.930888 119.497065 66.119349 
z
" clip-path="url(#p0acd33e63d)" style="fill: #a1a1d8"/>
   </g>
   <g id="patch_68">
    <path d="M 125.254844 124.579063 
C 125.254844 124.579063 125.254844 124.579063 125.254844 124.579063 
C 125.254844 124.579063 125.254844 124.579063 125.254844 124.579063 
L 138.250695 81.737483 
C 136.848426 81.312109 135.426118 80.95584 133.988907 80.669961 
C 132.551697 80.384082 131.101317 80.168938 129.643006 80.025307 
z
" clip-path="url(#p0acd33e63d)" style="fill: #a1a1d8"/>
   </g>
   <g id="patch_69">
    <path d="M 126.574373 120.229159 
C 126.716751 120.272349 126.856924 120.322504 126.994384 120.379442 
C 127.131844 120.436379 127.266425 120.500032 127.397642 120.570169 
L 145.126339 87.40211 
C 143.909482 86.751686 142.661424 86.161399 141.386674 85.63338 
C 140.111923 85.105361 138.812017 84.640247 137.49165 84.239718 
z
" clip-path="url(#p0acd33e63d)" style="fill: #a1a1d8"/>
   </g>
   <g id="patch_70">
    <path d="M 130.924155 113.972526 
C 131.271323 114.158091 131.609171 114.360589 131.936479 114.579289 
C 132.263786 114.797989 132.580159 115.032627 132.884454 115.282356 
L 160.573076 81.543672 
C 159.164463 80.387654 157.699942 79.301491 156.184803 78.289108 
C 154.669663 77.276724 153.105732 76.339339 151.498658 75.48034 
z
" clip-path="url(#p0acd33e63d)" style="fill: #a1a1d8"/>
   </g>
   <g id="patch_71">
    <path d="M 131.022287 117.551413 
C 131.252312 117.74019 131.472931 117.940147 131.683345 118.150561 
C 131.89376 118.360976 132.093716 118.581594 132.282494 118.811619 
L 143.848257 109.319842 
C 143.3488 108.711252 142.819764 108.127551 142.26306 107.570846 
C 141.706356 107.014142 141.122654 106.485106 140.514064 105.985649 
z
" clip-path="url(#p0acd33e63d)" style="fill: #a1a1d8"/>
   </g>
   <g id="patch_72">
    <path d="M 125.254844 124.579063 
C 125.254844 124.579063 125.254844 124.579063 125.254844 124.579063 
C 125.254844 124.579063 125.254844 124.579063 125.254844 124.579063 
L 151.846837 110.365346 
C 151.381601 109.49495 150.873911 108.647921 150.325602 107.827317 
C 149.777292 107.006714 149.189024 106.213526 148.562921 105.450618 
z
" clip-path="url(#p0acd33e63d)" style="fill: #a1a1d8"/>
   </g>
   <g id="patch_73">
    <path d="M 129.263738 122.436264 
C 129.333875 122.567481 129.397527 122.702063 129.454465 122.839523 
C 129.511402 122.976982 129.561557 123.117155 129.604747 123.259534 
L 154.757324 115.629583 
C 154.464394 114.663923 154.124229 113.713227 153.738059 112.780929 
C 153.351888 111.84863 152.920177 110.935854 152.444485 110.045896 
z
" clip-path="url(#p0acd33e63d)" style="fill: #a1a1d8"/>
   </g>
   <g id="patch_74">
    <path d="M 139.681841 120.202681 
C 139.825087 120.674898 139.945061 121.153863 140.041332 121.637847 
C 140.137602 122.121831 140.210052 122.61025 140.25842 123.101339 
L 157.56087 121.397197 
C 157.456722 120.339772 157.300721 119.288098 157.09343 118.245974 
C 156.886138 117.203849 156.627807 116.172531 156.319367 115.155742 
z
" clip-path="url(#p0acd33e63d)" style="fill: #a1a1d8"/>
   </g>
   <g id="patch_75">
    <path d="M 149.192271 122.221432 
C 149.269439 123.004939 149.308094 123.791764 149.308094 124.579063 
C 149.308094 125.366361 149.269439 126.153186 149.192271 126.936693 
L 157.242576 127.729579 
C 157.345697 126.682573 157.397351 125.631135 157.397351 124.579063 
C 157.397351 123.52699 157.345697 122.475552 157.242576 121.428546 
z
" clip-path="url(#p0acd33e63d)" style="fill: #a1a1d8"/>
   </g>
   <g id="patch_76">
    <path d="M 140.25842 126.056786 
C 140.210052 126.547875 140.137602 127.036294 140.041332 127.520278 
C 139.945061 128.004262 139.825087 128.483227 139.681841 128.955444 
L 164.884349 136.600542 
C 165.27783 135.303409 165.607388 133.987739 165.871833 132.658284 
C 166.136278 131.328829 166.335291 129.987192 166.468154 128.638219 
z
" clip-path="url(#p0acd33e63d)" style="fill: #a1a1d8"/>
   </g>
   <g id="patch_77">
    <path d="M 142.654457 129.857178 
C 142.481697 130.426693 142.281078 130.987383 142.053328 131.537222 
C 141.825577 132.087062 141.570967 132.625388 141.290419 133.150256 
L 168.245441 147.558016 
C 168.997577 146.150869 169.680172 144.707643 170.290761 143.23355 
C 170.90135 141.759457 171.439198 140.256275 171.90236 138.729432 
z
" clip-path="url(#p0acd33e63d)" style="fill: #a1a1d8"/>
   </g>
   <g id="patch_78">
    <path d="M 146.843398 136.118385 
C 146.465699 136.825011 146.053534 137.512667 145.608392 138.178869 
C 145.16325 138.845071 144.685668 139.489016 144.17737 140.108378 
L 162.607315 155.233443 
C 163.610678 154.010841 164.553411 152.739713 165.432107 151.424652 
C 166.310803 150.10959 167.124404 148.752179 167.86997 147.357322 
z
" clip-path="url(#p0acd33e63d)" style="fill: #a1a1d8"/>
   </g>
   <g id="patch_79">
    <path d="M 150.101338 144.970053 
C 149.43391 145.783316 148.726956 146.56332 147.983029 147.307247 
C 147.239101 148.051175 146.459097 148.758129 145.645834 149.425557 
L 155.909224 161.931533 
C 157.131827 160.92817 158.304429 159.865384 159.422798 158.747016 
C 160.541166 157.628648 161.603951 156.456045 162.607315 155.233443 
z
" clip-path="url(#p0acd33e63d)" style="fill: #a1a1d8"/>
   </g>
   <g id="patch_80">
    <path d="M 142.069685 145.068006 
C 141.399052 145.618381 140.7018 146.135498 139.98045 146.617489 
C 139.259099 147.09948 138.514519 147.545764 137.749398 147.95473 
L 142.262779 156.398671 
C 143.304282 155.841976 144.317826 155.234482 145.299748 154.578382 
C 146.281671 153.922282 147.230789 153.218368 148.143674 152.469183 
z
" clip-path="url(#p0acd33e63d)" style="fill: #a1a1d8"/>
   </g>
   <g id="patch_81">
    <path d="M 144.776666 161.101824 
C 143.581222 161.740802 142.355126 162.320703 141.102807 162.83943 
C 139.850488 163.358158 138.573456 163.815087 137.276323 164.208568 
L 144.826618 189.098556 
C 146.938437 188.457942 149.017532 187.714031 151.056391 186.869507 
C 153.09525 186.024984 155.091417 185.080868 157.037681 184.040568 
z
" clip-path="url(#p0acd33e63d)" style="fill: #a1a1d8"/>
   </g>
   <g id="patch_82">
    <path d="M 131.719188 145.88915 
C 131.021677 146.100737 130.314198 146.277952 129.599307 146.420152 
C 128.884415 146.562353 128.162973 146.669369 127.437586 146.740813 
L 131.444627 187.424985 
C 133.501668 187.222384 135.547522 186.91891 137.574799 186.51566 
C 139.602076 186.112409 141.608333 185.609868 143.586323 185.009851 
z
" clip-path="url(#p0acd33e63d)" style="fill: #a1a1d8"/>
   </g>
   <g id="patch_83">
    <path d="M 128.373696 156.245302 
C 127.337213 156.347386 126.296342 156.398521 125.254844 156.398521 
C 124.213345 156.398521 123.172475 156.347386 122.135991 156.245302 
L 119.244041 185.607766 
C 121.241602 185.804508 123.247618 185.903058 125.254844 185.903058 
C 127.26207 185.903058 129.268086 185.804508 131.265646 185.607766 
z
" clip-path="url(#p0acd33e63d)" style="fill: #a1a1d8"/>
   </g>
   <g id="patch_84">
    <path d="M 122.982974 147.645744 
C 122.227967 147.571383 121.477066 147.459997 120.732983 147.31199 
C 119.988901 147.163982 119.252533 146.979532 118.526541 146.759305 
L 107.650134 182.614012 
C 109.549705 183.19024 111.476422 183.672858 113.423326 184.060121 
C 115.370229 184.447384 117.334973 184.738826 119.310461 184.933395 
z
" clip-path="url(#p0acd33e63d)" style="fill: #a1a1d8"/>
   </g>
   <g id="patch_85">
    <path d="M 115.380395 157.130759 
C 114.314929 156.807553 113.265974 156.432231 112.237319 156.006148 
C 111.208663 155.580065 110.201547 155.103735 109.219609 154.578877 
L 100.450159 170.985364 
C 101.969106 171.797259 103.527 172.534088 105.118213 173.19319 
C 106.709426 173.852292 108.33204 174.432872 109.980194 174.932834 
z
" clip-path="url(#p0acd33e63d)" style="fill: #a1a1d8"/>
   </g>
   <g id="patch_86">
    <path d="M 108.246909 156.398671 
C 107.205405 155.841976 106.191862 155.234482 105.209939 154.578382 
C 104.228017 153.922282 103.278899 153.218368 102.366013 152.469183 
L 89.936612 167.614453 
C 91.345224 168.770471 92.809745 169.856634 94.324885 170.869017 
C 95.840024 171.881401 97.403955 172.818786 99.01103 173.677785 
z
" clip-path="url(#p0acd33e63d)" style="fill: #a1a1d8"/>
   </g>
   <g id="patch_87">
    <path d="M 102.185071 152.689662 
C 101.264969 151.934553 100.382496 151.134726 99.540838 150.293068 
C 98.69918 149.45141 97.899353 148.568937 97.144245 147.648835 
L 85.191076 157.458547 
C 86.267271 158.769894 87.4072 160.027612 88.606747 161.227159 
C 89.806294 162.426706 91.064012 163.566636 92.375359 164.64283 
z
" clip-path="url(#p0acd33e63d)" style="fill: #a1a1d8"/>
   </g>
   <g id="patch_88">
    <path d="M 97.810994 147.101648 
C 97.073796 146.20337 96.381146 145.269439 95.735544 144.303228 
C 95.089943 143.337017 94.492169 142.339691 93.944382 141.314853 
L 84.767 146.220266 
C 85.475349 147.545493 86.248336 148.835144 87.083169 150.08456 
C 87.918002 151.333976 88.813675 152.541651 89.766952 153.703223 
z
" clip-path="url(#p0acd33e63d)" style="fill: #a1a1d8"/>
   </g>
   <g id="patch_89">
    <path d="M 96.069656 140.178871 
C 95.559051 139.223596 95.095655 138.243827 94.681142 137.243105 
C 94.266629 136.242382 93.901498 135.22191 93.587069 134.185377 
L 41.019328 150.131627 
C 41.855701 152.888781 42.826939 155.60321 43.929534 158.265109 
C 45.032128 160.927008 46.26475 163.533168 47.622947 166.074176 
z
" clip-path="url(#p0acd33e63d)" style="fill: #a1a1d8"/>
   </g>
   <g id="patch_90">
    <path d="M 99.155424 132.496235 
C 98.896283 131.641962 98.679241 130.775481 98.505081 129.899921 
C 98.330921 129.024361 98.199854 128.140779 98.112353 127.252365 
L 73.280931 129.698046 
C 73.448483 131.39923 73.699457 133.091162 74.032948 134.767731 
C 74.366438 136.4443 74.782042 138.103485 75.278259 139.739294 
z
" clip-path="url(#p0acd33e63d)" style="fill: #a1a1d8"/>
   </g>
   <g id="patch_91">
    <path d="M 82.101034 128.829342 
C 81.961916 127.416853 81.892231 125.998386 81.892231 124.579062 
C 81.892231 123.159739 81.961916 121.741272 82.101034 120.328783 
L 20.914019 114.302388 
C 20.577648 117.717619 20.409158 121.147307 20.409158 124.579062 
C 20.409158 128.010818 20.577648 131.440506 20.914019 134.855737 
z
" clip-path="url(#p0acd33e63d)" style="fill: #a1a1d8"/>
   </g>
   <g id="patch_92">
    <path d="M 93.588604 121.46021 
C 93.690689 120.423727 93.843601 119.39288 94.046787 118.371394 
C 94.249973 117.349908 94.503189 116.339013 94.80552 115.342361 
L 55.249774 103.343257 
C 54.554695 105.634627 53.972534 107.958743 53.505395 110.30721 
C 53.038256 112.655676 52.686702 115.025663 52.452002 117.408608 
z
" clip-path="url(#p0acd33e63d)" style="fill: #a1a1d8"/>
   </g>
   <g id="patch_93">
    <path d="M 85.625338 112.557583 
C 86.018819 111.260451 86.475749 109.983418 86.994476 108.731099 
C 87.513204 107.47878 88.093104 106.252684 88.732082 105.05724 
L 54.330271 86.669088 
C 53.089421 88.990556 51.963296 91.371546 50.955965 93.803459 
C 49.948633 96.235372 49.061309 98.715277 48.297197 101.234216 
z
" clip-path="url(#p0acd33e63d)" style="fill: #a1a1d8"/>
   </g>
   <g id="patch_94">
    <path d="M 96.069656 108.979254 
C 96.580261 108.02398 97.137459 107.09435 97.739239 106.193723 
C 98.341019 105.293096 98.986654 104.422558 99.673812 103.585253 
L 63.788012 74.134538 
C 62.136888 76.146439 60.585537 78.238193 59.139564 80.402245 
C 57.693591 82.566297 56.354738 84.800037 55.127842 87.095399 
z
" clip-path="url(#p0acd33e63d)" style="fill: #a1a1d8"/>
   </g>
   <g id="patch_95">
    <path d="M 106.008832 108.784269 
C 106.525819 108.154318 107.073424 107.55013 107.649668 106.973886 
C 108.225911 106.397643 108.8301 105.850038 109.46005 105.333051 
L 79.659202 69.020613 
C 77.840691 70.513026 76.09655 72.093824 74.433078 73.757296 
C 72.769605 75.420769 71.188808 77.16491 69.696394 78.983421 
z
" clip-path="url(#p0acd33e63d)" style="fill: #a1a1d8"/>
   </g>
   <g id="patch_96">
    <path d="M 108.942051 104.701867 
C 109.592661 104.167925 110.269095 103.666248 110.968908 103.198648 
C 111.66872 102.731048 112.391069 102.298089 113.133345 101.901334 
L 89.720552 58.099078 
C 87.544563 59.262169 85.42699 60.531393 83.375481 61.902167 
C 81.323973 63.272941 79.341002 64.743613 77.433732 66.308869 
z
" clip-path="url(#p0acd33e63d)" style="fill: #a1a1d8"/>
   </g>
   <g id="patch_97">
    <path d="M 114.540852 104.534593 
C 115.196937 104.183908 115.869845 103.865646 116.557144 103.580958 
C 117.244443 103.296269 117.945306 103.045496 118.6572 102.829546 
L 109.641969 73.110312 
C 107.95732 73.621345 106.298777 74.214781 104.672329 74.888477 
C 103.045882 75.562174 101.453492 76.315318 99.900911 77.14519 
z
" clip-path="url(#p0acd33e63d)" style="fill: #a1a1d8"/>
   </g>
   <g id="patch_98">
    <path d="M 123.388748 118.42737 
C 123.590102 118.36629 123.794334 118.315133 124.000705 118.274083 
C 124.207077 118.233033 124.415339 118.20214 124.62474 118.181516 
L 120.078017 72.017855 
C 118.35761 72.1873 116.646559 72.441111 114.951045 72.778369 
C 113.255531 73.115628 111.577598 73.535929 109.923305 74.037753 
z
" clip-path="url(#p0acd33e63d)" style="fill: #a1a1d8"/>
   </g>
   <g id="patch_99">
    <path d="M 119.497065 66.119349 
C 121.410538 65.930888 123.332112 65.836487 125.254844 65.836487 
C 127.177576 65.836487 129.099149 65.930888 131.012623 66.119349 
L 132.984853 46.09496 
C 130.415951 45.841945 127.836175 45.715209 125.254844 45.715209 
C 122.673512 45.715209 120.093736 45.841945 117.524834 46.09496 
z
" clip-path="url(#p0acd33e63d)" style="fill: #828282"/>
   </g>
   <g id="patch_100">
    <path d="M 129.643006 80.025307 
C 131.101317 80.168938 132.551697 80.384082 133.988907 80.669961 
C 135.426118 80.95584 136.848426 81.312109 138.250695 81.737483 
L 143.491094 64.462202 
C 141.523379 63.865302 139.527545 63.365372 137.510799 62.964216 
C 135.494053 62.56306 133.458827 62.261163 131.412472 62.059615 
z
" clip-path="url(#p0acd33e63d)" style="fill: #828282"/>
   </g>
   <g id="patch_101">
    <path d="M 137.49165 84.239718 
C 138.812017 84.640247 140.111923 85.105361 141.386674 85.63338 
C 142.661424 86.161399 143.909482 86.751686 145.126339 87.40211 
L 160.918117 57.857771 
C 158.73423 56.690459 156.494347 55.631073 154.206559 54.68344 
C 151.91877 53.735807 149.585835 52.90107 147.216179 52.182242 
z
" clip-path="url(#p0acd33e63d)" style="fill: #828282"/>
   </g>
   <g id="patch_102">
    <path d="M 151.498658 75.48034 
C 153.105732 76.339339 154.669663 77.276724 156.184803 78.289108 
C 157.699942 79.301491 159.164463 80.387654 160.573076 81.543672 
L 187.772437 48.401154 
C 185.279021 46.35486 182.686639 44.432219 180.004657 42.640176 
C 177.322675 40.848133 174.554325 39.188848 171.709607 37.668314 
z
" clip-path="url(#p0acd33e63d)" style="fill: #828282"/>
   </g>
   <g id="patch_103">
    <path d="M 140.514064 105.985649 
C 141.122654 106.485106 141.706356 107.014142 142.26306 107.570846 
C 142.819764 108.127551 143.3488 108.711252 143.848257 109.319842 
L 180.142543 79.533892 
C 178.668147 77.737335 177.106434 76.014251 175.463045 74.370861 
C 173.819656 72.727472 172.096571 71.165759 170.300014 69.691363 
z
" clip-path="url(#p0acd33e63d)" style="fill: #828282"/>
   </g>
   <g id="patch_104">
    <path d="M 148.562921 105.450618 
C 149.189024 106.213526 149.777292 107.006714 150.325602 107.827317 
C 150.873911 108.647921 151.381601 109.49495 151.846837 110.365346 
L 162.215019 104.823437 
C 161.568388 103.613675 160.862751 102.436391 160.100656 101.295835 
C 159.338561 100.15528 158.520928 99.052828 157.650708 97.992463 
z
" clip-path="url(#p0acd33e63d)" style="fill: #828282"/>
   </g>
   <g id="patch_105">
    <path d="M 152.444485 110.045896 
C 152.920177 110.935854 153.351888 111.84863 153.738059 112.780929 
C 154.124229 113.713227 154.464394 114.663923 154.757324 115.629583 
L 161.125066 113.69795 
C 160.768911 112.523864 160.355326 111.367972 159.885805 110.234449 
C 159.416285 109.100926 158.891394 107.991138 158.31303 106.909094 
z
" clip-path="url(#p0acd33e63d)" style="fill: #828282"/>
   </g>
   <g id="patch_106">
    <path d="M 156.319367 115.155742 
C 156.627807 116.172531 156.886138 117.203849 157.09343 118.245974 
C 157.300721 119.288098 157.456722 120.339772 157.56087 121.397197 
L 168.645115 120.305494 
C 168.505234 118.885265 168.295709 117.472761 168.017296 116.073082 
C 167.738882 114.673403 167.391916 113.288237 166.977651 111.922587 
z
" clip-path="url(#p0acd33e63d)" style="fill: #828282"/>
   </g>
   <g id="patch_107">
    <path d="M 157.242576 121.428546 
C 157.345697 122.475552 157.397351 123.52699 157.397351 124.579063 
C 157.397351 125.631135 157.345697 126.682573 157.242576 127.729579 
L 160.874875 128.087329 
C 160.989706 126.921433 161.047225 125.750601 161.047225 124.579063 
C 161.047225 123.407524 160.989706 122.236692 160.874875 121.070796 
z
" clip-path="url(#p0acd33e63d)" style="fill: #828282"/>
   </g>
   <g id="patch_108">
    <path d="M 166.468154 128.638219 
C 166.335291 129.987192 166.136278 131.328829 165.871833 132.658284 
C 165.607388 133.987739 165.27783 135.303409 164.884349 136.600542 
L 165.358971 136.744517 
C 165.757165 135.431849 166.09067 134.100422 166.358282 132.755045 
C 166.625894 131.409668 166.82729 130.051963 166.961744 128.686834 
z
" clip-path="url(#p0acd33e63d)" style="fill: #828282"/>
   </g>
   <g id="patch_109">
    <path d="M 171.90236 138.729432 
C 171.439198 140.256275 170.90135 141.759457 170.290761 143.23355 
C 169.680172 144.707643 168.997577 146.150869 168.245441 147.558016 
L 173.194242 150.203205 
C 174.032959 148.634077 174.79413 147.024716 175.475006 145.380935 
C 176.155882 143.737154 176.755643 142.060935 177.272122 140.358331 
z
" clip-path="url(#p0acd33e63d)" style="fill: #828282"/>
   </g>
   <g id="patch_110">
    <path d="M 167.86997 147.357322 
C 167.124404 148.752179 166.310803 150.10959 165.432107 151.424652 
C 164.553411 152.739713 163.610678 154.010841 162.607315 155.233443 
L 172.135115 163.052707 
C 173.394415 161.518245 174.577618 159.922881 175.68045 158.272376 
C 176.783283 156.62187 177.804415 154.918213 178.740159 153.167559 
z
" clip-path="url(#p0acd33e63d)" style="fill: #828282"/>
   </g>
   <g id="patch_111">
    <path d="M 162.607315 155.233443 
C 161.603951 156.456045 160.541166 157.628648 159.422798 158.747016 
C 158.304429 159.865384 157.131827 160.92817 155.909224 161.931533 
L 163.511733 171.195217 
C 165.03755 169.943012 166.500967 168.616648 167.896698 167.220917 
C 169.29243 165.825185 170.618793 164.361768 171.870999 162.835952 
z
" clip-path="url(#p0acd33e63d)" style="fill: #828282"/>
   </g>
   <g id="patch_112">
    <path d="M 148.143674 152.469183 
C 147.230789 153.218368 146.281671 153.922282 145.299748 154.578382 
C 144.317826 155.234482 143.304282 155.841976 142.262779 156.398671 
L 156.232921 182.534969 
C 158.129905 181.52101 159.975962 180.414526 161.764426 179.219513 
C 163.552889 178.0245 165.281603 176.742398 166.944323 175.37784 
z
" clip-path="url(#p0acd33e63d)" style="fill: #828282"/>
   </g>
   <g id="patch_113">
    <path d="M 157.037681 184.040568 
C 155.091417 185.080868 153.09525 186.024984 151.056391 186.869507 
C 149.017532 187.714031 146.938437 188.457942 144.826618 189.098556 
L 156.785783 228.52264 
C 160.188012 227.490586 163.537519 226.292113 166.822206 224.931551 
C 170.106892 223.570989 173.3228 222.049978 176.458311 220.374013 
z
" clip-path="url(#p0acd33e63d)" style="fill: #828282"/>
   </g>
   <g id="patch_114">
    <path d="M 143.586323 185.009851 
C 141.608333 185.609868 139.602076 186.112409 137.574799 186.51566 
C 135.547522 186.91891 133.501668 187.222384 131.444627 187.424985 
L 133.348668 206.757034 
C 136.038475 206.492111 138.713655 206.095286 141.364543 205.567992 
C 144.015432 205.040697 146.638834 204.383569 149.225274 203.598981 
z
" clip-path="url(#p0acd33e63d)" style="fill: #828282"/>
   </g>
   <g id="patch_115">
    <path d="M 131.265646 185.607766 
C 129.268086 185.804508 127.26207 185.903058 125.254844 185.903058 
C 123.247618 185.903058 121.241602 185.804508 119.244041 185.607766 
L 118.859993 189.507068 
C 120.985184 189.716381 123.11937 189.821226 125.254844 189.821226 
C 127.390317 189.821226 129.524504 189.716381 131.649694 189.507068 
z
" clip-path="url(#p0acd33e63d)" style="fill: #828282"/>
   </g>
   <g id="patch_116">
    <path d="M 119.310461 184.933395 
C 117.334973 184.738826 115.370229 184.447384 113.423326 184.060121 
C 111.476422 183.672858 109.549705 183.19024 107.650134 182.614012 
L 103.174904 197.366868 
C 105.557358 198.089577 107.973859 198.694879 110.415678 199.180587 
C 112.857497 199.666295 115.321692 200.031824 117.799361 200.275853 
z
" clip-path="url(#p0acd33e63d)" style="fill: #828282"/>
   </g>
   <g id="patch_117">
    <path d="M 109.980194 174.932834 
C 108.33204 174.432872 106.709426 173.852292 105.118213 173.19319 
C 103.527 172.534088 101.969106 171.797259 100.450159 170.985364 
L 96.746765 177.913927 
C 98.492495 178.847039 100.282985 179.693878 102.11177 180.451385 
C 103.940554 181.208893 105.805428 181.876155 107.699655 182.450763 
z
" clip-path="url(#p0acd33e63d)" style="fill: #828282"/>
   </g>
   <g id="patch_118">
    <path d="M 99.01103 173.677785 
C 97.403955 172.818786 95.840024 171.881401 94.324885 170.869017 
C 92.809745 169.856634 91.345224 168.770471 89.936612 167.614453 
L 84.26946 174.519897 
C 85.904098 175.86141 87.603615 177.121858 89.361873 178.296689 
C 91.120132 179.471519 92.935011 180.559316 94.799956 181.55615 
z
" clip-path="url(#p0acd33e63d)" style="fill: #828282"/>
   </g>
   <g id="patch_119">
    <path d="M 92.375359 164.64283 
C 91.064012 163.566636 89.806294 162.426706 88.606747 161.227159 
C 87.4072 160.027612 86.267271 158.769894 85.191076 157.458547 
L 85.191076 157.458547 
C 86.267271 158.769894 87.4072 160.027612 88.606747 161.227159 
C 89.806294 162.426706 91.064012 163.566636 92.375359 164.64283 
z
" clip-path="url(#p0acd33e63d)" style="fill: #828282"/>
   </g>
   <g id="patch_120">
    <path d="M 89.766952 153.703223 
C 88.813675 152.541651 87.918002 151.333976 87.083169 150.08456 
C 86.248336 148.835144 85.475349 147.545493 84.767 146.220266 
L 79.546421 149.010724 
C 80.346106 150.506828 81.218763 151.962769 82.161241 153.373287 
C 83.103719 154.783805 84.114881 156.1472 85.191076 157.458547 
z
" clip-path="url(#p0acd33e63d)" style="fill: #828282"/>
   </g>
   <g id="patch_121">
    <path d="M 47.622947 166.074176 
C 46.26475 163.533168 45.032128 160.927008 43.929534 158.265109 
C 42.826939 155.60321 41.855701 152.888781 41.019328 150.131627 
L 38.039553 151.035532 
C 38.905513 153.890218 39.911108 156.700668 41.052706 159.45673 
C 42.194304 162.212792 43.470529 164.911143 44.876771 167.542037 
z
" clip-path="url(#p0acd33e63d)" style="fill: #828282"/>
   </g>
   <g id="patch_122">
    <path d="M 75.278259 139.739294 
C 74.782042 138.103485 74.366438 136.4443 74.032948 134.767731 
C 73.699457 133.091162 73.448483 131.39923 73.280931 129.698046 
L 72.499324 129.775028 
C 72.669396 131.501795 72.924145 133.219171 73.26265 134.920953 
C 73.601156 136.622735 74.02301 138.306872 74.526689 139.96728 
z
" clip-path="url(#p0acd33e63d)" style="fill: #828282"/>
   </g>
   <g id="patch_123">
    <path d="M 20.914019 134.855737 
C 20.577648 131.440506 20.409158 128.010818 20.409158 124.579062 
C 20.409158 121.147307 20.577648 117.717619 20.914019 114.302388 
L 14.908758 113.710922 
C 14.553028 117.322714 14.374841 120.949794 14.374841 124.579062 
C 14.374841 128.208331 14.553028 131.835411 14.908758 135.447203 
z
" clip-path="url(#p0acd33e63d)" style="fill: #828282"/>
   </g>
   <g id="patch_124">
    <path d="M 52.452002 117.408608 
C 52.686702 115.025663 53.038256 112.655676 53.505395 110.30721 
C 53.972534 107.958743 54.554695 105.634627 55.249774 103.343257 
L 51.562808 102.224828 
C 50.83112 104.636878 50.218299 107.083399 49.726557 109.555552 
C 49.234815 112.027706 48.864745 114.522512 48.617685 117.030961 
z
" clip-path="url(#p0acd33e63d)" style="fill: #828282"/>
   </g>
   <g id="patch_125">
    <path d="M 48.297197 101.234216 
C 49.061309 98.715277 49.948633 96.235372 50.955965 93.803459 
C 51.963296 91.371546 53.089421 88.990556 54.330271 86.669088 
L 46.187097 82.316471 
C 44.803779 84.904477 43.548359 87.558839 42.425372 90.269972 
C 41.302384 92.981104 40.313182 95.745738 39.461339 98.553887 
z
" clip-path="url(#p0acd33e63d)" style="fill: #828282"/>
   </g>
   <g id="patch_126">
    <path d="M 55.127842 87.095399 
C 56.354738 84.800037 57.693591 82.566297 59.139564 80.402245 
C 60.585537 78.238193 62.136888 76.146439 63.788012 74.134538 
L 56.667718 68.291063 
C 54.825328 70.536022 53.09427 72.870085 51.480795 75.284819 
C 49.867321 77.699554 48.373376 80.192051 47.004357 82.753306 
z
" clip-path="url(#p0acd33e63d)" style="fill: #828282"/>
   </g>
   <g id="patch_127">
    <path d="M 69.696394 78.983421 
C 71.188808 77.16491 72.769605 75.420769 74.433078 73.757296 
C 76.09655 72.093824 77.840691 70.513026 79.659202 69.020613 
L 73.428021 61.427896 
C 71.360989 63.124266 69.37849 64.921098 67.487685 66.811903 
C 65.596879 68.702709 63.800047 70.685208 62.103678 72.75224 
z
" clip-path="url(#p0acd33e63d)" style="fill: #828282"/>
   </g>
   <g id="patch_128">
    <path d="M 77.433732 66.308869 
C 79.341002 64.743613 81.323973 63.272941 83.375481 61.902167 
C 85.42699 60.531393 87.544563 59.262169 89.720552 58.099078 
L 79.396955 38.784987 
C 76.588787 40.285984 73.856006 41.92395 71.208483 43.692968 
C 68.560961 45.461986 66.001887 47.359924 63.540507 49.379926 
z
" clip-path="url(#p0acd33e63d)" style="fill: #828282"/>
   </g>
   <g id="patch_129">
    <path d="M 99.900911 77.14519 
C 101.453492 76.315318 103.045882 75.562174 104.672329 74.888477 
C 106.298777 74.214781 107.95732 73.621345 109.641969 73.110312 
L 93.586154 20.181382 
C 90.169062 21.217946 86.804922 22.421654 83.505885 23.78816 
C 80.206848 25.154666 76.976892 26.682321 73.827682 28.365609 
z
" clip-path="url(#p0acd33e63d)" style="fill: #828282"/>
   </g>
   <g id="patch_130">
    <path d="M 109.923305 74.037753 
C 111.577598 73.535929 113.255531 73.115628 114.951045 72.778369 
C 116.646559 72.441111 118.35761 72.1873 120.078017 72.017855 
L 115.252264 23.021161 
C 111.928122 23.348561 108.622058 23.838969 105.346014 24.490615 
C 102.069969 25.14226 98.827894 25.954358 95.631497 26.923974 
z
" clip-path="url(#p0acd33e63d)" style="fill: #828282"/>
   </g>
   <g id="patch_131">
    <path d="M 125.254844 124.579063 
C 125.254844 124.579063 125.254844 124.579063 125.254844 124.579063 
C 125.254844 124.579063 125.254844 124.579063 125.254844 124.579063 
L 132.984853 46.09496 
C 130.415951 45.841945 127.836175 45.715209 125.254844 45.715209 
C 122.673512 45.715209 120.093736 45.841945 117.524834 46.09496 
L 125.254844 124.579063 
z
" clip-path="url(#p0acd33e63d)" style="fill: none; stroke: #292929; stroke-width: 0.5; stroke-linejoin: miter"/>
   </g>
   <g id="patch_132">
    <path d="M 125.254844 124.579063 
C 125.254844 124.579063 125.254844 124.579063 125.254844 124.579063 
C 125.254844 124.579063 125.254844 124.579063 125.254844 124.579063 
L 143.491094 64.462202 
C 141.523379 63.865302 139.527545 63.365372 137.510799 62.964216 
C 135.494053 62.56306 133.458827 62.261163 131.412472 62.059615 
L 125.254844 124.579063 
z
" clip-path="url(#p0acd33e63d)" style="fill: none; stroke: #292929; stroke-width: 0.5; stroke-linejoin: miter"/>
   </g>
   <g id="patch_133">
    <path d="M 125.254844 124.579063 
C 125.254844 124.579063 125.254844 124.579063 125.254844 124.579063 
C 125.254844 124.579063 125.254844 124.579063 125.254844 124.579063 
L 160.918117 57.857771 
C 158.73423 56.690459 156.494347 55.631073 154.206559 54.68344 
C 151.91877 53.735807 149.585835 52.90107 147.216179 52.182242 
L 125.254844 124.579063 
z
" clip-path="url(#p0acd33e63d)" style="fill: none; stroke: #292929; stroke-width: 0.5; stroke-linejoin: miter"/>
   </g>
   <g id="patch_134">
    <path d="M 125.254844 124.579063 
C 125.254844 124.579063 125.254844 124.579063 125.254844 124.579063 
C 125.254844 124.579063 125.254844 124.579063 125.254844 124.579063 
L 187.772437 48.401154 
C 185.279021 46.35486 182.686639 44.432219 180.004657 42.640176 
C 177.322675 40.848133 174.554325 39.188848 171.709607 37.668314 
L 125.254844 124.579063 
z
" clip-path="url(#p0acd33e63d)" style="fill: none; stroke: #292929; stroke-width: 0.5; stroke-linejoin: miter"/>
   </g>
   <g id="patch_135">
    <path d="M 125.254844 124.579063 
C 125.254844 124.579063 125.254844 124.579063 125.254844 124.579063 
C 125.254844 124.579063 125.254844 124.579063 125.254844 124.579063 
L 180.142543 79.533892 
C 178.668147 77.737335 177.106434 76.014251 175.463045 74.370861 
C 173.819656 72.727472 172.096571 71.165759 170.300014 69.691363 
L 125.254844 124.579063 
z
" clip-path="url(#p0acd33e63d)" style="fill: none; stroke: #292929; stroke-width: 0.5; stroke-linejoin: miter"/>
   </g>
   <g id="patch_136">
    <path d="M 125.254844 124.579063 
C 125.254844 124.579063 125.254844 124.579063 125.254844 124.579063 
C 125.254844 124.579063 125.254844 124.579063 125.254844 124.579063 
L 162.215019 104.823437 
C 161.568388 103.613675 160.862751 102.436391 160.100656 101.295835 
C 159.338561 100.15528 158.520928 99.052828 157.650708 97.992463 
L 125.254844 124.579063 
z
" clip-path="url(#p0acd33e63d)" style="fill: none; stroke: #292929; stroke-width: 0.5; stroke-linejoin: miter"/>
   </g>
   <g id="patch_137">
    <path d="M 125.254844 124.579063 
C 125.254844 124.579063 125.254844 124.579063 125.254844 124.579063 
C 125.254844 124.579063 125.254844 124.579063 125.254844 124.579063 
L 161.125066 113.69795 
C 160.768911 112.523864 160.355326 111.367972 159.885805 110.234449 
C 159.416285 109.100926 158.891394 107.991138 158.31303 106.909094 
L 125.254844 124.579063 
z
" clip-path="url(#p0acd33e63d)" style="fill: none; stroke: #292929; stroke-width: 0.5; stroke-linejoin: miter"/>
   </g>
   <g id="patch_138">
    <path d="M 125.254844 124.579063 
C 125.254844 124.579063 125.254844 124.579063 125.254844 124.579063 
C 125.254844 124.579063 125.254844 124.579063 125.254844 124.579063 
L 168.645115 120.305494 
C 168.505234 118.885265 168.295709 117.472761 168.017296 116.073082 
C 167.738882 114.673403 167.391916 113.288237 166.977651 111.922587 
L 125.254844 124.579063 
z
" clip-path="url(#p0acd33e63d)" style="fill: none; stroke: #292929; stroke-width: 0.5; stroke-linejoin: miter"/>
   </g>
   <g id="patch_139">
    <path d="M 125.254844 124.579063 
C 125.254844 124.579063 125.254844 124.579063 125.254844 124.579063 
C 125.254844 124.579063 125.254844 124.579063 125.254844 124.579063 
L 160.874875 128.087329 
C 160.989706 126.921433 161.047225 125.750601 161.047225 124.579063 
C 161.047225 123.407524 160.989706 122.236692 160.874875 121.070796 
L 125.254844 124.579063 
z
" clip-path="url(#p0acd33e63d)" style="fill: none; stroke: #292929; stroke-width: 0.5; stroke-linejoin: miter"/>
   </g>
   <g id="patch_140">
    <path d="M 125.254844 124.579063 
C 125.254844 124.579063 125.254844 124.579063 125.254844 124.579063 
C 125.254844 124.579063 125.254844 124.579063 125.254844 124.579063 
L 165.358971 136.744517 
C 165.757165 135.431849 166.09067 134.100422 166.358282 132.755045 
C 166.625894 131.409668 166.82729 130.051963 166.961744 128.686834 
L 125.254844 124.579063 
z
" clip-path="url(#p0acd33e63d)" style="fill: none; stroke: #292929; stroke-width: 0.5; stroke-linejoin: miter"/>
   </g>
   <g id="patch_141">
    <path d="M 125.254844 124.579063 
C 125.254844 124.579063 125.254844 124.579063 125.254844 124.579063 
C 125.254844 124.579063 125.254844 124.579063 125.254844 124.579063 
L 173.194242 150.203205 
C 174.032959 148.634077 174.79413 147.024716 175.475006 145.380935 
C 176.155882 143.737154 176.755643 142.060935 177.272122 140.358331 
L 125.254844 124.579063 
z
" clip-path="url(#p0acd33e63d)" style="fill: none; stroke: #292929; stroke-width: 0.5; stroke-linejoin: miter"/>
   </g>
   <g id="patch_142">
    <path d="M 125.254844 124.579063 
C 125.254844 124.579063 125.254844 124.579063 125.254844 124.579063 
C 125.254844 124.579063 125.254844 124.579063 125.254844 124.579063 
L 172.135115 163.052707 
C 173.394415 161.518245 174.577618 159.922881 175.68045 158.272376 
C 176.783283 156.62187 177.804415 154.918213 178.740159 153.167559 
L 125.254844 124.579063 
z
" clip-path="url(#p0acd33e63d)" style="fill: none; stroke: #292929; stroke-width: 0.5; stroke-linejoin: miter"/>
   </g>
   <g id="patch_143">
    <path d="M 125.254844 124.579063 
C 125.254844 124.579063 125.254844 124.579063 125.254844 124.579063 
C 125.254844 124.579063 125.254844 124.579063 125.254844 124.579063 
L 163.511733 171.195217 
C 165.03755 169.943012 166.500967 168.616648 167.896698 167.220917 
C 169.29243 165.825185 170.618793 164.361768 171.870999 162.835952 
L 125.254844 124.579063 
z
" clip-path="url(#p0acd33e63d)" style="fill: none; stroke: #292929; stroke-width: 0.5; stroke-linejoin: miter"/>
   </g>
   <g id="patch_144">
    <path d="M 125.254844 124.579063 
C 125.254844 124.579063 125.254844 124.579063 125.254844 124.579063 
C 125.254844 124.579063 125.254844 124.579063 125.254844 124.579063 
L 156.232921 182.534969 
C 158.129905 181.52101 159.975962 180.414526 161.764426 179.219513 
C 163.552889 178.0245 165.281603 176.742398 166.944323 175.37784 
L 125.254844 124.579063 
z
" clip-path="url(#p0acd33e63d)" style="fill: none; stroke: #292929; stroke-width: 0.5; stroke-linejoin: miter"/>
   </g>
   <g id="patch_145">
    <path d="M 125.254844 124.579063 
C 125.254844 124.579063 125.254844 124.579063 125.254844 124.579063 
C 125.254844 124.579063 125.254844 124.579063 125.254844 124.579063 
L 156.785783 228.52264 
C 160.188012 227.490586 163.537519 226.292113 166.822206 224.931551 
C 170.106892 223.570989 173.3228 222.049978 176.458311 220.374013 
L 125.254844 124.579063 
z
" clip-path="url(#p0acd33e63d)" style="fill: none; stroke: #292929; stroke-width: 0.5; stroke-linejoin: miter"/>
   </g>
   <g id="patch_146">
    <path d="M 125.254844 124.579063 
C 125.254844 124.579063 125.254844 124.579063 125.254844 124.579063 
C 125.254844 124.579063 125.254844 124.579063 125.254844 124.579063 
L 133.348668 206.757034 
C 136.038475 206.492111 138.713655 206.095286 141.364543 205.567992 
C 144.015432 205.040697 146.638834 204.383569 149.225274 203.598981 
L 125.254844 124.579063 
z
" clip-path="url(#p0acd33e63d)" style="fill: none; stroke: #292929; stroke-width: 0.5; stroke-linejoin: miter"/>
   </g>
   <g id="patch_147">
    <path d="M 125.254844 124.579063 
C 125.254844 124.579063 125.254844 124.579063 125.254844 124.579063 
C 125.254844 124.579063 125.254844 124.579063 125.254844 124.579063 
L 118.859993 189.507068 
C 120.985184 189.716381 123.11937 189.821226 125.254844 189.821226 
C 127.390317 189.821226 129.524504 189.716381 131.649694 189.507068 
L 125.254844 124.579063 
z
" clip-path="url(#p0acd33e63d)" style="fill: none; stroke: #292929; stroke-width: 0.5; stroke-linejoin: miter"/>
   </g>
   <g id="patch_148">
    <path d="M 125.254844 124.579063 
C 125.254844 124.579063 125.254844 124.579063 125.254844 124.579063 
C 125.254844 124.579063 125.254844 124.579063 125.254844 124.579063 
L 103.174904 197.366868 
C 105.557358 198.089577 107.973859 198.694879 110.415678 199.180587 
C 112.857497 199.666295 115.321692 200.031824 117.799361 200.275853 
L 125.254844 124.579063 
z
" clip-path="url(#p0acd33e63d)" style="fill: none; stroke: #292929; stroke-width: 0.5; stroke-linejoin: miter"/>
   </g>
   <g id="patch_149">
    <path d="M 125.254844 124.579063 
C 125.254844 124.579063 125.254844 124.579063 125.254844 124.579063 
C 125.254844 124.579063 125.254844 124.579063 125.254844 124.579063 
L 96.746765 177.913927 
C 98.492495 178.847039 100.282985 179.693878 102.11177 180.451385 
C 103.940554 181.208893 105.805428 181.876155 107.699655 182.450763 
L 125.254844 124.579063 
z
" clip-path="url(#p0acd33e63d)" style="fill: none; stroke: #292929; stroke-width: 0.5; stroke-linejoin: miter"/>
   </g>
   <g id="patch_150">
    <path d="M 125.254844 124.579063 
C 125.254844 124.579063 125.254844 124.579063 125.254844 124.579063 
C 125.254844 124.579063 125.254844 124.579063 125.254844 124.579063 
L 84.26946 174.519897 
C 85.904098 175.86141 87.603615 177.121858 89.361873 178.296689 
C 91.120132 179.471519 92.935011 180.559316 94.799956 181.55615 
L 125.254844 124.579063 
z
" clip-path="url(#p0acd33e63d)" style="fill: none; stroke: #292929; stroke-width: 0.5; stroke-linejoin: miter"/>
   </g>
   <g id="patch_151">
    <path d="M 125.254844 124.579063 
C 125.254844 124.579063 125.254844 124.579063 125.254844 124.579063 
C 125.254844 124.579063 125.254844 124.579063 125.254844 124.579063 
L 85.191076 157.458547 
C 86.267271 158.769894 87.4072 160.027612 88.606747 161.227159 
C 89.806294 162.426706 91.064012 163.566636 92.375359 164.64283 
L 125.254844 124.579063 
z
" clip-path="url(#p0acd33e63d)" style="fill: none; stroke: #292929; stroke-width: 0.5; stroke-linejoin: miter"/>
   </g>
   <g id="patch_152">
    <path d="M 125.254844 124.579063 
C 125.254844 124.579063 125.254844 124.579063 125.254844 124.579063 
C 125.254844 124.579063 125.254844 124.579063 125.254844 124.579063 
L 79.546421 149.010724 
C 80.346106 150.506828 81.218763 151.962769 82.161241 153.373287 
C 83.103719 154.783805 84.114881 156.1472 85.191076 157.458547 
L 125.254844 124.579063 
z
" clip-path="url(#p0acd33e63d)" style="fill: none; stroke: #292929; stroke-width: 0.5; stroke-linejoin: miter"/>
   </g>
   <g id="patch_153">
    <path d="M 125.254844 124.579063 
C 125.254844 124.579063 125.254844 124.579063 125.254844 124.579063 
C 125.254844 124.579063 125.254844 124.579063 125.254844 124.579063 
L 38.039553 151.035532 
C 38.905513 153.890218 39.911108 156.700668 41.052706 159.45673 
C 42.194304 162.212792 43.470529 164.911143 44.876771 167.542037 
L 125.254844 124.579063 
z
" clip-path="url(#p0acd33e63d)" style="fill: none; stroke: #292929; stroke-width: 0.5; stroke-linejoin: miter"/>
   </g>
   <g id="patch_154">
    <path d="M 125.254844 124.579063 
C 125.254844 124.579063 125.254844 124.579063 125.254844 124.579063 
C 125.254844 124.579063 125.254844 124.579063 125.254844 124.579063 
L 72.499324 129.775028 
C 72.669396 131.501795 72.924145 133.219171 73.26265 134.920953 
C 73.601156 136.622735 74.02301 138.306872 74.526689 139.96728 
L 125.254844 124.579063 
z
" clip-path="url(#p0acd33e63d)" style="fill: none; stroke: #292929; stroke-width: 0.5; stroke-linejoin: miter"/>
   </g>
   <g id="patch_155">
    <path d="M 125.254844 124.579063 
C 125.254844 124.579063 125.254844 124.579063 125.254844 124.579063 
C 125.254844 124.579063 125.254844 124.579063 125.254844 124.579063 
L 14.908758 113.710922 
C 14.553028 117.322714 14.374841 120.949794 14.374841 124.579062 
C 14.374841 128.208331 14.553028 131.835411 14.908758 135.447203 
L 125.254844 124.579063 
z
" clip-path="url(#p0acd33e63d)" style="fill: none; stroke: #292929; stroke-width: 0.5; stroke-linejoin: miter"/>
   </g>
   <g id="patch_156">
    <path d="M 125.254844 124.579063 
C 125.254844 124.579063 125.254844 124.579063 125.254844 124.579063 
C 125.254844 124.579063 125.254844 124.579063 125.254844 124.579063 
L 51.562808 102.224828 
C 50.83112 104.636878 50.218299 107.083399 49.726557 109.555552 
C 49.234815 112.027706 48.864745 114.522512 48.617685 117.030961 
L 125.254844 124.579063 
z
" clip-path="url(#p0acd33e63d)" style="fill: none; stroke: #292929; stroke-width: 0.5; stroke-linejoin: miter"/>
   </g>
   <g id="patch_157">
    <path d="M 125.254844 124.579063 
C 125.254844 124.579063 125.254844 124.579063 125.254844 124.579063 
C 125.254844 124.579063 125.254844 124.579063 125.254844 124.579063 
L 46.187097 82.316471 
C 44.803779 84.904477 43.548359 87.558839 42.425372 90.269972 
C 41.302384 92.981104 40.313182 95.745738 39.461339 98.553887 
L 125.254844 124.579063 
z
" clip-path="url(#p0acd33e63d)" style="fill: none; stroke: #292929; stroke-width: 0.5; stroke-linejoin: miter"/>
   </g>
   <g id="patch_158">
    <path d="M 125.254844 124.579063 
C 125.254844 124.579063 125.254844 124.579063 125.254844 124.579063 
C 125.254844 124.579063 125.254844 124.579063 125.254844 124.579063 
L 56.667718 68.291063 
C 54.825328 70.536022 53.09427 72.870085 51.480795 75.284819 
C 49.867321 77.699554 48.373376 80.192051 47.004357 82.753306 
L 125.254844 124.579063 
z
" clip-path="url(#p0acd33e63d)" style="fill: none; stroke: #292929; stroke-width: 0.5; stroke-linejoin: miter"/>
   </g>
   <g id="patch_159">
    <path d="M 125.254844 124.579063 
C 125.254844 124.579063 125.254844 124.579063 125.254844 124.579063 
C 125.254844 124.579063 125.254844 124.579063 125.254844 124.579063 
L 73.428021 61.427896 
C 71.360989 63.124266 69.37849 64.921098 67.487685 66.811903 
C 65.596879 68.702709 63.800047 70.685208 62.103678 72.75224 
L 125.254844 124.579063 
z
" clip-path="url(#p0acd33e63d)" style="fill: none; stroke: #292929; stroke-width: 0.5; stroke-linejoin: miter"/>
   </g>
   <g id="patch_160">
    <path d="M 125.254844 124.579063 
C 125.254844 124.579063 125.254844 124.579063 125.254844 124.579063 
C 125.254844 124.579063 125.254844 124.579063 125.254844 124.579063 
L 79.396955 38.784987 
C 76.588787 40.285984 73.856006 41.92395 71.208483 43.692968 
C 68.560961 45.461986 66.001887 47.359924 63.540507 49.379926 
L 125.254844 124.579063 
z
" clip-path="url(#p0acd33e63d)" style="fill: none; stroke: #292929; stroke-width: 0.5; stroke-linejoin: miter"/>
   </g>
   <g id="patch_161">
    <path d="M 125.254844 124.579063 
C 125.254844 124.579063 125.254844 124.579063 125.254844 124.579063 
C 125.254844 124.579063 125.254844 124.579063 125.254844 124.579063 
L 93.586154 20.181382 
C 90.169062 21.217946 86.804922 22.421654 83.505885 23.78816 
C 80.206848 25.154666 76.976892 26.682321 73.827682 28.365609 
L 125.254844 124.579063 
z
" clip-path="url(#p0acd33e63d)" style="fill: none; stroke: #292929; stroke-width: 0.5; stroke-linejoin: miter"/>
   </g>
   <g id="patch_162">
    <path d="M 125.254844 124.579063 
C 125.254844 124.579063 125.254844 124.579063 125.254844 124.579063 
C 125.254844 124.579063 125.254844 124.579063 125.254844 124.579063 
L 115.252264 23.021161 
C 111.928122 23.348561 108.622058 23.838969 105.346014 24.490615 
C 102.069969 25.14226 98.827894 25.954358 95.631497 26.923974 
L 125.254844 124.579063 
z
" clip-path="url(#p0acd33e63d)" style="fill: none; stroke: #292929; stroke-width: 0.5; stroke-linejoin: miter"/>
   </g>
   <g id="PathCollection_1">
    <defs>
     <path id="m2208ab5561" d="M 0.193618 7.414054 
L 0.193618 7.414054 
C 0.054922 7.414054 -0.078235 7.358899 -0.176308 7.260826 
C -0.274381 7.162753 -0.329536 7.029596 -0.329536 6.890901 
L -0.329536 5.365008 
L -1.528416 6.56393 
L -1.528416 6.56393 
C -1.577018 6.612704 -1.634775 6.651408 -1.698366 6.677814 
C -1.761958 6.704221 -1.830141 6.717815 -1.898997 6.717815 
C -1.967853 6.717815 -2.036037 6.704221 -2.099628 6.677814 
C -2.163219 6.651408 -2.220976 6.612704 -2.269578 6.56393 
L -2.269578 6.56393 
C -2.318353 6.515327 -2.357056 6.457571 -2.383463 6.393979 
C -2.409869 6.330388 -2.423463 6.262205 -2.423463 6.193348 
C -2.423463 6.124492 -2.409869 6.056309 -2.383463 5.992718 
C -2.357056 5.929126 -2.318353 5.87137 -2.269578 5.822767 
L -0.329536 3.884106 
L -0.329536 0.820937 
L -2.98067 2.351538 
L -3.691824 5.001416 
L -3.691824 5.001416 
C -3.727584 5.135411 -3.815199 5.249836 -3.93523 5.319305 
C -4.055261 5.388775 -4.198123 5.407741 -4.332122 5.371997 
L -4.332122 5.371997 
C -4.466126 5.336237 -4.580558 5.248616 -4.650029 5.128576 
C -4.719499 5.008535 -4.73846 4.865662 -4.702703 4.731657 
L -4.262647 3.092721 
L -5.585535 3.855668 
L -5.585535 3.855668 
C -5.645013 3.890144 -5.710708 3.912561 -5.778854 3.921634 
C -5.847001 3.930706 -5.916272 3.926258 -5.982698 3.908543 
C -6.049125 3.890828 -6.111412 3.860192 -6.165991 3.818391 
C -6.220571 3.77659 -6.266379 3.724437 -6.300791 3.664922 
L -6.300791 3.664922 
C -6.335212 3.605364 -6.35755 3.539597 -6.366524 3.471396 
C -6.375498 3.403194 -6.370933 3.333888 -6.35309 3.267452 
C -6.335248 3.201017 -6.304476 3.138749 -6.26254 3.08422 
C -6.220605 3.029692 -6.168323 2.983966 -6.108695 2.949666 
L -4.785807 2.186762 
L -6.424743 1.746706 
L -6.424743 1.746706 
C -6.558747 1.710946 -6.673179 1.623325 -6.74265 1.503284 
C -6.81212 1.383244 -6.831081 1.240371 -6.795324 1.106366 
L -6.795324 1.106366 
C -6.777471 1.039969 -6.746703 0.977739 -6.704784 0.923241 
C -6.662864 0.868744 -6.61061 0.823041 -6.551015 0.788752 
C -6.491421 0.754464 -6.425647 0.732257 -6.357465 0.723406 
C -6.289282 0.714554 -6.220019 0.71923 -6.153645 0.737166 
L -3.505232 1.44698 
L -0.852424 -0.08496 
L -3.503767 -1.615666 
L -6.153645 -0.905851 
L -6.153645 -0.905851 
C -6.22011 -0.887939 -6.289462 -0.883321 -6.357716 -0.892262 
C -6.42597 -0.901202 -6.491793 -0.923527 -6.551403 -0.957953 
C -6.611013 -0.992379 -6.663247 -1.038234 -6.705103 -1.092883 
C -6.746958 -1.147533 -6.777619 -1.209911 -6.795324 -1.276432 
L -6.795324 -1.276432 
C -6.831068 -1.410431 -6.812101 -1.553293 -6.742632 -1.673324 
C -6.673162 -1.793355 -6.558738 -1.88097 -6.424743 -1.91673 
L -4.785807 -2.355447 
L -6.108695 -3.119732 
L -6.108695 -3.119732 
C -6.228699 -3.188976 -6.316415 -3.303132 -6.352417 -3.436921 
C -6.388419 -3.57071 -6.369839 -3.713469 -6.300791 -3.833586 
L -6.300791 -3.833586 
C -6.266491 -3.893214 -6.220765 -3.945496 -6.166237 -3.987431 
C -6.111708 -4.029367 -6.04944 -4.060139 -5.983005 -4.077981 
C -5.91657 -4.095823 -5.847263 -4.100389 -5.779062 -4.091415 
C -5.71086 -4.082441 -5.645094 -4.060102 -5.585535 -4.025682 
L -4.262647 -3.261396 
L -4.702703 -4.900332 
L -4.702703 -4.900332 
C -4.73846 -5.034337 -4.719499 -5.17721 -4.650029 -5.29725 
C -4.580558 -5.417291 -4.466126 -5.504912 -4.332122 -5.540672 
L -4.332122 -5.540672 
C -4.19831 -5.576464 -4.055613 -5.557686 -3.935617 -5.488496 
C -3.81562 -5.419305 -3.727882 -5.305212 -3.691824 -5.171472 
L -2.982009 -2.521594 
L -0.329411 -0.990302 
L -0.329411 -4.051588 
L -2.269453 -5.991589 
L -2.269453 -5.991589 
C -2.318227 -6.040191 -2.356931 -6.097947 -2.383337 -6.161539 
C -2.409744 -6.22513 -2.423338 -6.293314 -2.423338 -6.36217 
C -2.423338 -6.431026 -2.409744 -6.499209 -2.383337 -6.5628 
C -2.356931 -6.626392 -2.318227 -6.684149 -2.269453 -6.732751 
L -2.269453 -6.732751 
C -2.22085 -6.781526 -2.163094 -6.820229 -2.099502 -6.846635 
C -2.035911 -6.873042 -1.967728 -6.886636 -1.898871 -6.886636 
C -1.830015 -6.886636 -1.761832 -6.873042 -1.698241 -6.846635 
C -1.634649 -6.820229 -1.576893 -6.781526 -1.52829 -6.732751 
L -0.329411 -5.533829 
L -0.329411 -7.059722 
L -0.329411 -7.059722 
C -0.329411 -7.198418 -0.274255 -7.331575 -0.176182 -7.429647 
C -0.07811 -7.52772 0.055047 -7.582875 0.193743 -7.582875 
L 0.193743 -7.582875 
C 0.332439 -7.582875 0.465596 -7.52772 0.563669 -7.429647 
C 0.661741 -7.331575 0.716897 -7.198418 0.716897 -7.059722 
L 0.716897 -5.533829 
L 1.915777 -6.732751 
L 1.915777 -6.732751 
C 1.964379 -6.781526 2.022136 -6.820229 2.085727 -6.846635 
C 2.149318 -6.873042 2.217502 -6.886636 2.286358 -6.886636 
C 2.355214 -6.886636 2.423397 -6.873042 2.486989 -6.846635 
C 2.55058 -6.820229 2.608337 -6.781526 2.656939 -6.732751 
L 2.656939 -6.732751 
C 2.705714 -6.684149 2.744417 -6.626392 2.770823 -6.5628 
C 2.79723 -6.499209 2.810824 -6.431026 2.810824 -6.36217 
C 2.810824 -6.293314 2.79723 -6.22513 2.770823 -6.161539 
C 2.744417 -6.097947 2.705714 -6.040191 2.656939 -5.991589 
L 0.716897 -4.051588 
L 0.716897 -0.991139 
L 3.369495 -2.522954 
L 4.07931 -5.171367 
L 4.07931 -5.171367 
C 4.115368 -5.305107 4.203106 -5.4192 4.323103 -5.488391 
C 4.4431 -5.557582 4.585797 -5.576359 4.719608 -5.540567 
L 4.719608 -5.540567 
C 4.853612 -5.504807 4.968045 -5.417186 5.037515 -5.297146 
C 5.106986 -5.177105 5.125946 -5.034232 5.090189 -4.900227 
L 4.650133 -3.262673 
L 5.973022 -4.025577 
L 5.973022 -4.025577 
C 6.03258 -4.059998 6.098346 -4.082336 6.166548 -4.09131 
C 6.234749 -4.100284 6.304056 -4.095719 6.370491 -4.077876 
C 6.436926 -4.060034 6.499194 -4.029262 6.553723 -3.987327 
C 6.608252 -3.945391 6.653978 -3.893109 6.688277 -3.833481 
L 6.688277 -3.833481 
C 6.757325 -3.713365 6.775905 -3.570605 6.739903 -3.436816 
C 6.703901 -3.303027 6.616186 -3.188871 6.496181 -3.119628 
L 5.173293 -2.355342 
L 6.812229 -1.916625 
L 6.812229 -1.916625 
C 6.946224 -1.880865 7.060649 -1.79325 7.130118 -1.67322 
C 7.199588 -1.553189 7.218554 -1.410326 7.18281 -1.276327 
L 7.18281 -1.276327 
C 7.165106 -1.209806 7.134445 -1.147429 7.092589 -1.092779 
C 7.050733 -1.038129 6.998499 -0.992274 6.938889 -0.957848 
C 6.879279 -0.923422 6.813456 -0.901098 6.745202 -0.892157 
C 6.676949 -0.883217 6.607597 -0.887835 6.541131 -0.905746 
L 3.891253 -1.615561 
L 1.239492 -0.084604 
L 3.892718 1.447085 
L 6.541131 0.73727 
L 6.541131 0.73727 
C 6.674948 0.701466 6.817656 0.720237 6.937662 0.789429 
C 7.057669 0.858621 7.145413 0.972721 7.181471 1.10647 
L 7.181471 1.10647 
C 7.217274 1.240293 7.198497 1.383006 7.129297 1.503014 
C 7.060096 1.623021 6.945986 1.710762 6.812229 1.74681 
L 5.173293 2.186866 
L 6.496181 2.949771 
L 6.496181 2.949771 
C 6.555697 2.984183 6.607849 3.029991 6.649651 3.08457 
C 6.691452 3.13915 6.722088 3.201437 6.739803 3.267863 
C 6.757517 3.33429 6.761966 3.403561 6.752893 3.471707 
C 6.743821 3.539854 6.721404 3.605549 6.686927 3.665026 
L 6.686927 3.665026 
C 6.617458 3.784813 6.503196 3.87225 6.369416 3.907994 
C 6.235636 3.943739 6.092989 3.924946 5.973032 3.855772 
L 4.650144 3.091487 
L 5.08886 4.731783 
L 5.08886 4.731783 
C 5.124664 4.865606 5.105887 5.008319 5.036686 5.128326 
C 4.967486 5.248334 4.853376 5.336074 4.719619 5.372123 
L 4.719619 5.372123 
C 4.585619 5.407867 4.442757 5.3889 4.322726 5.319431 
C 4.202695 5.249961 4.115081 5.135537 4.07932 5.001542 
L 3.368166 2.351664 
L 0.717033 0.821063 
L 0.717033 3.884232 
L 2.657075 5.822893 
L 2.657075 5.822893 
C 2.70585 5.871495 2.744553 5.929252 2.770959 5.992843 
C 2.797366 6.056435 2.81096 6.124618 2.81096 6.193474 
C 2.81096 6.26233 2.797366 6.330514 2.770959 6.394105 
C 2.744553 6.457696 2.70585 6.515453 2.657075 6.564055 
L 2.657075 6.564055 
C 2.608473 6.61283 2.550716 6.651533 2.487125 6.67794 
C 2.423533 6.704346 2.35535 6.71794 2.286494 6.71794 
C 2.217638 6.71794 2.149454 6.704346 2.085863 6.67794 
C 2.022272 6.651533 1.964515 6.61283 1.915913 6.564055 
L 0.717033 5.365133 
L 0.717033 6.891026 
L 0.717033 6.891026 
C 0.717033 7.029722 0.661877 7.162879 0.563805 7.260952 
C 0.465732 7.359024 0.332575 7.41418 0.193879 7.41418 
L 0.193618 7.414054 
z
"/>
    </defs>
    <g clip-path="url(#p0acd33e63d)">
     <use xlink:href="#m2208ab5561" x="105.219989" y="111.995796" style="fill: #9e2096; fill-opacity: 0.7"/>
    </g>
   </g>
   <g id="patch_163">
    <path d="M 125.254844 13.699063 
C 110.694216 13.699063 96.275171 16.567189 82.822905 22.1393 
C 69.370638 27.711411 57.146763 35.879144 46.850844 46.175063 
C 36.554925 56.470982 28.387192 68.694857 22.815081 82.147124 
C 17.24297 95.59939 14.374844 110.018434 14.374844 124.579063 
C 14.374844 139.139691 17.24297 153.558735 22.815081 167.011001 
C 28.387192 180.463268 36.554925 192.687143 46.850844 202.983062 
C 57.146763 213.278981 69.370638 221.446714 82.822905 227.018825 
C 96.275171 232.590936 110.694216 235.459063 125.254844 235.459063 
C 139.815472 235.459063 154.234516 232.590936 167.686783 227.018825 
C 181.139049 221.446714 193.362925 213.278981 203.658844 202.983062 
C 213.954763 192.687143 222.122495 180.463268 227.694606 167.011001 
C 233.266717 153.558735 236.134844 139.139691 236.134844 124.579063 
C 236.134844 110.018434 233.266717 95.59939 227.694606 82.147124 
C 222.122495 68.694857 213.954763 56.470982 203.658844 46.175063 
C 193.362925 35.879144 181.139049 27.711411 167.686783 22.1393 
C 154.234516 16.567189 139.815472 13.699063 125.254844 13.699063 
" style="fill: none; stroke: #000000; stroke-width: 0.8; stroke-linejoin: miter; stroke-linecap: square"/>
   </g>
  </g>
 </g>
 <defs>
  <clipPath id="p0acd33e63d">
   <path d="M 236.134844 124.579063 
C 236.134844 110.018434 233.266717 95.59939 227.694606 82.147124 
C 222.122495 68.694857 213.954763 56.470982 203.658844 46.175063 
C 193.362925 35.879144 181.139049 27.711411 167.686783 22.1393 
C 154.234516 16.567189 139.815472 13.699063 125.254844 13.699063 
C 110.694216 13.699063 96.275171 16.567189 82.822905 22.1393 
C 69.370638 27.711411 57.146763 35.879144 46.850844 46.175063 
C 36.554925 56.470982 28.387192 68.694857 22.815081 82.147124 
C 17.24297 95.59939 14.374844 110.018434 14.374844 124.579062 
C 14.374844 139.139691 17.24297 153.558735 22.815081 167.011001 
C 28.387192 180.463268 36.554925 192.687143 46.850844 202.983062 
C 57.146763 213.278981 69.370638 221.446714 82.822905 227.018825 
C 96.275171 232.590936 110.694216 235.459063 125.254844 235.459063 
C 139.815472 235.459063 154.234516 232.590936 167.686783 227.018825 
C 181.139049 221.446714 193.362925 213.278981 203.658844 202.983062 
C 213.954763 192.687143 222.122495 180.463268 227.694606 167.011001 
C 233.266717 153.558735 236.134844 139.139691 236.134844 124.579063 
M 125.254844 124.579063 
C 125.254844 124.579063 125.254844 124.579063 125.254844 124.579063 
C 125.254844 124.579063 125.254844 124.579063 125.254844 124.579063 
C 125.254844 124.579063 125.254844 124.579063 125.254844 124.579063 
C 125.254844 124.579063 125.254844 124.579063 125.254844 124.579063 
C 125.254844 124.579063 125.254844 124.579063 125.254844 124.579063 
C 125.254844 124.579063 125.254844 124.579063 125.254844 124.579063 
C 125.254844 124.579063 125.254844 124.579063 125.254844 124.579063 
C 125.254844 124.579063 125.254844 124.579063 125.254844 124.579063 
C 125.254844 124.579063 125.254844 124.579063 125.254844 124.579063 
C 125.254844 124.579063 125.254844 124.579063 125.254844 124.579063 
C 125.254844 124.579063 125.254844 124.579063 125.254844 124.579063 
C 125.254844 124.579063 125.254844 124.579063 125.254844 124.579063 
C 125.254844 124.579063 125.254844 124.579063 125.254844 124.579063 
C 125.254844 124.579063 125.254844 124.579063 125.254844 124.579063 
C 125.254844 124.579063 125.254844 124.579063 125.254844 124.579063 
C 125.254844 124.579063 125.254844 124.579063 125.254844 124.579063 
z
"/>
  </clipPath>
 </defs>
</svg>
