<?xml version="1.0" encoding="utf-8" standalone="no"?>
<!DOCTYPE svg PUBLIC "-//W3C//DTD SVG 1.1//EN"
  "http://www.w3.org/Graphics/SVG/1.1/DTD/svg11.dtd">
<svg xmlns:xlink="http://www.w3.org/1999/xlink" width="248.410469pt" height="249.48pt" viewBox="0 0 248.410469 249.48" xmlns="http://www.w3.org/2000/svg" version="1.1">
 <title>Ski Rose for Prali</title>
 <metadata>
  <rdf:RDF xmlns:dc="http://purl.org/dc/elements/1.1/" xmlns:cc="http://creativecommons.org/ns#" xmlns:rdf="http://www.w3.org/1999/02/22-rdf-syntax-ns#">
   <cc:Work>
    <dc:type rdf:resource="http://purl.org/dc/dcmitype/StillImage"/>
    <dc:title>Ski Rose for Prali</dc:title>
    <dc:date>2026-08-08T11:01:56.972055</dc:date>
    <dc:description>A 32-bin stacked histogram of downhill ski run orientations colored by difficulty.</dc:description>
    <dc:format>image/svg+xml</dc:format>
    <dc:source>https://openskimap.org/?obj=d4475742159d10369d9fead55b18bb36ae781ad8</dc:source>
    <dc:creator>
     <cc:Agent>
      <dc:title>https://github.com/dhimmel/openskistats</dc:title>
     </cc:Agent>
    </dc:creator>
    <dc:rights>
     <cc:Agent>
      <dc:title>https://creativecommons.org/licenses/by/4.0/</dc:title>
     </cc:Agent>
    </dc:rights>
   </cc:Work>
  </rdf:RDF>
 </metadata>
 <defs>
  <style type="text/css">*{stroke-linejoin: round; stroke-linecap: butt}</style>
 </defs>
 <g id="figure_1">
  <g id="patch_1">
   <path d="M 0 249.48 
L 248.410469 249.48 
L 248.410469 0 
L 0 0 
z
" style="fill: #ffffff"/>
  </g>
  <g id="axes_1">
   <g id="patch_2">
    <path d="M 236.134844 124.74 
C 236.134844 110.179372 233.266717 95.760327 227.694606 82.308061 
C 222.122495 68.855795 213.954763 56.631919 203.658844 46.336 
C 193.362925 36.040081 181.139049 27.872349 167.686783 22.300237 
C 154.234516 16.728126 139.815472 13.86 125.254844 13.86 
C 110.694216 13.86 96.275171 16.728126 82.822905 22.300237 
C 69.370638 27.872349 57.146763 36.040081 46.850844 46.336 
C 36.554925 56.631919 28.387192 68.855795 22.815081 82.308061 
C 17.24297 95.760327 14.374844 110.179372 14.374844 124.74 
C 14.374844 139.300628 17.24297 153.719673 22.815081 167.171939 
C 28.387192 180.624205 36.554925 192.848081 46.850844 203.144 
C 57.146763 213.439919 69.370638 221.607651 82.822905 227.179763 
C 96.275171 232.751874 110.694216 235.62 125.254844 235.62 
C 139.815472 235.62 154.234516 232.751874 167.686783 227.179763 
C 181.139049 221.607651 193.362925 213.439919 203.658844 203.144 
C 213.954763 192.848081 222.122495 180.624205 227.694606 167.171939 
C 233.266717 153.719673 236.134844 139.300628 236.134844 124.74 
M 125.254844 124.74 
C 125.254844 124.74 125.254844 124.74 125.254844 124.74 
C 125.254844 124.74 125.254844 124.74 125.254844 124.74 
C 125.254844 124.74 125.254844 124.74 125.254844 124.74 
C 125.254844 124.74 125.254844 124.74 125.254844 124.74 
C 125.254844 124.74 125.254844 124.74 125.254844 124.74 
C 125.254844 124.74 125.254844 124.74 125.254844 124.74 
C 125.254844 124.74 125.254844 124.74 125.254844 124.74 
C 125.254844 124.74 125.254844 124.74 125.254844 124.74 
C 125.254844 124.74 125.254844 124.74 125.254844 124.74 
C 125.254844 124.74 125.254844 124.74 125.254844 124.74 
C 125.254844 124.74 125.254844 124.74 125.254844 124.74 
C 125.254844 124.74 125.254844 124.74 125.254844 124.74 
C 125.254844 124.74 125.254844 124.74 125.254844 124.74 
C 125.254844 124.74 125.254844 124.74 125.254844 124.74 
C 125.254844 124.74 125.254844 124.74 125.254844 124.74 
C 125.254844 124.74 125.254844 124.74 125.254844 124.74 
z
" style="fill: #ffffff"/>
   </g>
   <g id="FillBetweenPolyCollection_1">
    <defs>
     <path id="m80e6b049b7" d="M 235.297305 -137.277755 
L 235.109798 -137.256391 
L 234.150496 -135.225459 
L 233.104049 -133.227917 
L 231.989137 -131.268149 
L 231.031557 -129.358311 
L 229.817104 -127.478059 
L 228.56116 -125.641541 
L 227.483765 -123.847862 
L 226.156917 -122.097786 
L 224.798463 -120.393832 
L 223.626935 -118.723305 
L 222.21193 -117.109312 
L 220.987048 -115.522037 
L 219.522991 -113.999501 
L 218.251252 -112.496791 
L 216.745117 -111.066687 
L 215.432724 -109.649398 
L 213.891232 -108.312217 
L 212.544242 -106.980771 
L 211.181456 -105.690529 
L 209.598364 -104.490912 
L 208.209781 -103.286395 
L 206.809573 -102.122872 
L 205.399077 -101.000196 
L 203.979624 -99.918172 
L 202.552535 -98.876554 
L 201.119128 -97.875048 
L 199.680708 -96.91331 
L 198.238572 -95.990945 
L 196.979784 -95.030557 
L 195.531225 -94.18296 
L 194.082654 -93.37336 
L 192.812557 -92.516624 
L 191.364511 -91.778936 
L 190.091162 -90.988349 
L 188.648054 -90.320295 
L 187.3754 -89.59388 
L 186.102935 -88.897735 
L 184.831508 -88.231373 
L 183.407151 -87.692894 
L 182.143711 -87.08608 
L 180.883823 -86.507262 
L 179.628258 -85.95582 
L 178.377765 -85.431106 
L 177.133069 -84.932438 
L 175.89487 -84.459104 
L 174.793181 -83.903746 
L 173.566089 -83.478299 
L 172.347381 -83.076042 
L 171.255725 -82.587959 
L 170.051518 -82.229543 
L 168.857336 -81.89195 
L 167.780165 -81.465919 
L 166.603387 -81.167727 
L 165.536825 -80.779932 
L 164.474339 -80.410425 
L 163.324566 -80.166082 
L 162.274775 -79.831233 
L 161.229985 -79.513049 
L 160.110019 -79.315851 
L 159.079538 -79.02855 
L 158.054759 -78.756215 
L 157.035874 -78.498315 
L 156.023047 -78.254315 
L 155.016422 -78.023679 
L 154.016118 -77.805867 
L 153.022226 -77.600338 
L 152.034818 -77.406555 
L 151.053938 -77.223979 
L 150.079605 -77.052077 
L 149.111815 -76.890318 
L 148.150539 -76.738178 
L 147.195721 -76.595139 
L 146.247284 -76.460693 
L 145.305125 -76.33434 
L 144.398039 -76.142167 
L 143.465403 -76.033646 
L 142.538695 -75.93191 
L 141.617724 -75.836507 
L 140.721701 -75.685395 
L 139.809325 -75.604894 
L 138.902103 -75.529575 
L 138.013228 -75.406989 
L 137.113608 -75.344693 
L 136.218404 -75.286574 
L 135.335803 -75.1905 
L 134.446955 -75.143803 
L 133.561655 -75.100451 
L 132.68417 -75.029218 
L 131.803765 -74.996005 
L 130.925932 -74.965499 
L 130.052174 -74.917821 
L 129.17761 -74.896524 
L 128.304565 -74.877503 
L 127.432978 -74.852521 
L 126.561465 -74.842154 
L 125.690375 -74.833017 
L 124.819319 -74.833858 
L 123.94824 -74.842817 
L 123.076767 -74.853845 
L 122.205231 -74.879267 
L 121.332268 -74.898945 
L 120.459685 -74.940375 
L 119.584156 -74.969008 
L 118.70647 -75.000162 
L 117.830831 -75.06477 
L 116.948906 -75.105671 
L 116.063816 -75.149654 
L 115.183664 -75.238568 
L 114.292808 -75.293453 
L 113.397878 -75.352182 
L 112.511962 -75.46693 
L 111.609935 -75.538047 
L 110.703045 -75.61395 
L 109.810381 -75.756423 
L 108.895305 -75.846493 
L 107.974724 -75.942448 
L 107.048426 -76.044725 
L 106.145064 -76.226997 
L 105.209501 -76.346262 
L 104.267806 -76.473118 
L 103.319852 -76.608054 
L 102.365536 -76.751568 
L 101.404778 -76.904169 
L 100.483408 -77.154514 
L 99.512805 -77.329062 
L 98.535731 -77.514128 
L 97.552201 -77.710245 
L 96.562254 -77.917948 
L 95.565953 -78.137777 
L 94.563388 -78.370268 
L 93.485473 -78.515279 
L 92.467252 -78.773492 
L 91.443153 -79.046122 
L 90.413364 -79.3337 
L 89.3781 -79.636751 
L 88.250172 -79.849744 
L 87.201118 -80.184812 
L 86.14736 -80.53703 
L 84.990517 -80.799198 
L 83.924733 -81.18715 
L 82.855235 -81.593844 
L 81.672531 -81.91178 
L 80.479324 -82.249618 
L 79.394024 -82.716301 
L 78.1853 -83.096385 
L 77.092906 -83.605819 
L 75.870734 -84.030882 
L 74.640763 -84.479742 
L 73.403637 -84.95317 
L 72.160032 -85.451906 
L 70.910648 -85.976662 
L 69.656208 -86.528116 
L 68.397462 -87.10692 
L 67.135181 -87.713691 
L 65.870156 -88.349017 
L 64.603199 -89.013451 
L 63.33514 -89.707517 
L 61.899301 -90.340747 
L 60.628572 -91.097692 
L 59.185583 -91.799082 
L 57.916061 -92.621048 
L 56.470265 -93.393061 
L 55.205954 -94.281876 
L 53.761823 -95.126621 
L 52.318875 -96.009758 
L 51.068952 -97.003032 
L 49.634689 -97.961499 
L 48.205345 -98.959598 
L 46.782225 -99.997678 
L 45.366645 -101.076037 
L 43.959926 -102.194924 
L 42.563399 -103.354538 
L 40.973017 -104.505724 
L 39.599266 -105.750616 
L 38.239858 -107.036601 
L 36.896144 -108.363683 
L 35.358283 -109.696475 
L 34.04895 -111.109188 
L 32.54621 -112.534677 
L 31.277297 -114.032611 
L 29.816374 -115.550321 
L 28.594055 -117.132631 
L 27.181871 -118.7416 
L 26.012582 -120.406989 
L 24.656532 -122.105741 
L 23.331781 -123.850531 
L 22.255814 -125.638859 
L 21.001043 -127.469982 
L 19.786886 -129.34483 
L 18.828438 -131.249318 
L 17.710418 -133.20393 
L 16.657072 -135.196776 
L 15.877285 -137.201999 
L 15.12275 -137.287967 
L 15.12275 -137.287967 
L 14.960232 -135.360163 
L 14.74213 -133.437539 
L 14.694574 -131.502156 
L 14.491889 -129.576015 
L 14.509528 -127.639968 
L 14.423683 -125.707209 
L 14.506566 -123.773514 
L 14.432802 -121.838023 
L 14.578653 -119.907773 
L 14.624092 -117.973533 
L 14.775062 -116.045053 
L 15.071991 -114.130598 
L 15.154234 -112.19562 
L 15.329209 -110.268016 
L 15.595989 -108.351374 
L 15.953246 -106.449185 
L 16.406038 -104.566066 
L 16.641536 -102.642373 
L 17.088218 -100.760036 
L 17.454832 -98.859507 
L 17.962003 -96.992185 
L 18.427497 -95.114155 
L 18.992033 -93.263521 
L 19.585885 -91.422705 
L 20.111816 -89.559635 
L 20.766683 -87.738802 
L 21.451133 -85.929383 
L 22.094056 -84.103885 
L 22.839058 -82.317993 
L 23.614926 -80.545706 
L 24.422203 -78.787918 
L 25.196626 -77.014678 
L 26.071237 -75.288878 
L 26.922394 -73.551367 
L 27.817721 -71.835959 
L 28.759799 -70.14573 
L 29.751048 -68.483965 
L 30.714703 -66.805727 
L 31.739897 -65.164408 
L 32.798956 -63.544783 
L 34.201024 -62.160443 
L 36.023141 -61.091645 
L 37.937533 -60.128589 
L 39.802507 -59.170116 
L 41.671612 -58.254896 
L 43.547544 -57.3857 
L 45.419268 -56.553977 
L 47.229574 -55.709072 
L 49.099203 -54.956212 
L 50.903579 -54.183285 
L 52.757382 -53.496942 
L 54.551059 -52.791306 
L 56.392477 -52.174206 
L 58.17184 -51.531748 
L 59.943858 -50.919359 
L 61.707899 -50.336087 
L 63.463391 -49.780974 
L 65.209821 -49.253061 
L 66.904267 -48.696047 
L 68.633095 -48.220098 
L 70.316377 -47.71911 
L 72.026072 -47.291657 
L 73.689622 -46.833449 
L 75.379091 -46.45075 
L 77.0289 -46.042412 
L 78.667281 -45.650014 
L 80.300756 -45.283919 
L 81.922646 -44.932019 
L 83.539277 -44.605142 
L 85.144322 -44.290739 
L 86.743886 -44.000099 
L 88.332017 -43.72025 
L 89.914571 -43.462938 
L 91.485994 -43.214785 
L 93.035688 -42.946909 
L 94.59474 -42.735826 
L 96.132157 -42.500071 
L 97.674283 -42.310393 
L 99.199987 -42.104551 
L 100.730641 -41.94768 
L 102.245188 -41.769862 
L 103.761061 -41.629709 
L 105.265411 -41.478019 
L 106.765422 -41.339608 
L 108.261312 -41.214124 
L 109.757787 -41.125365 
L 111.245435 -41.023075 
L 112.729769 -40.932769 
L 114.211067 -40.85419 
L 115.690668 -40.796311 
L 117.166436 -40.738675 
L 118.640134 -40.692139 
L 120.11208 -40.656554 
L 121.5826 -40.631796 
L 123.052026 -40.617773 
L 124.520691 -40.614417 
L 125.988971 -40.617294 
L 127.457686 -40.616846 
L 128.927148 -40.630408 
L 130.397721 -40.654705 
L 131.869735 -40.689834 
L 133.343517 -40.735916 
L 134.819385 -40.793102 
L 136.297649 -40.861567 
L 137.780503 -40.928856 
L 139.264976 -41.018753 
L 140.752776 -41.12064 
L 142.24417 -41.234796 
L 143.745574 -41.333707 
L 145.24579 -41.471715 
L 146.750359 -41.623009 
L 148.266365 -41.763135 
L 149.781143 -41.9406 
L 151.300868 -42.132566 
L 152.838175 -42.302112 
L 154.369401 -42.523027 
L 155.918119 -42.727344 
L 157.477688 -42.937543 
L 159.027699 -43.205116 
L 160.599216 -43.453509 
L 162.182377 -43.709923 
L 163.770579 -43.990081 
L 165.346978 -44.327618 
L 166.954237 -44.636212 
L 168.56618 -44.970441 
L 170.190428 -45.316623 
L 171.849427 -45.638094 
L 173.487788 -46.030989 
L 175.138444 -46.438432 
L 176.792618 -46.874917 
L 178.491823 -47.279714 
L 180.167216 -47.755693 
L 181.88619 -48.207128 
L 183.572408 -48.739071 
L 185.30974 -49.240648 
L 187.0566 -49.768475 
L 188.812523 -50.323519 
L 190.576992 -50.906743 
L 192.349435 -51.519102 
L 194.129222 -52.161549 
L 195.915654 -52.835037 
L 197.765975 -53.48351 
L 199.565072 -54.222226 
L 201.424157 -54.943683 
L 203.231761 -55.751851 
L 205.105758 -56.540876 
L 206.976939 -57.373503 
L 208.854095 -58.242153 
L 210.722543 -59.158327 
L 212.588545 -60.11646 
L 214.434141 -61.129026 
L 216.323944 -62.149942 
L 217.711119 -63.544526 
L 218.75867 -65.171493 
L 219.750486 -66.832996 
L 220.779533 -68.471658 
L 221.728729 -70.157702 
L 222.667967 -71.848989 
L 223.565226 -73.562854 
L 224.461442 -75.277415 
L 225.310913 -77.015703 
L 226.101928 -78.781336 
L 226.845401 -80.567169 
L 227.65917 -82.322739 
L 228.402286 -84.109142 
L 229.038174 -85.937003 
L 229.737413 -87.740782 
L 230.389633 -89.562391 
L 230.995041 -91.400244 
L 231.55388 -93.252791 
L 232.066444 -95.118522 
L 232.599752 -96.978719 
L 233.015682 -98.868912 
L 233.386835 -100.767715 
L 233.895331 -102.636843 
L 234.180208 -104.551877 
L 234.605873 -106.440913 
L 234.806542 -108.367389 
L 235.114317 -110.276726 
L 235.387172 -112.192006 
L 235.505395 -114.124079 
L 235.73622 -116.044927 
L 235.900731 -117.972608 
L 235.870041 -119.910436 
L 235.991129 -121.840268 
L 236.07627 -123.772876 
L 236.126161 -125.707559 
L 235.953021 -127.638734 
L 235.910293 -129.571321 
L 235.858916 -131.504835 
L 235.774849 -133.438113 
L 235.471867 -135.352692 
L 235.297305 -137.277755 
z
" style="stroke: #ffee9c"/>
    </defs>
    <g clip-path="url(#p1741033556)">
     <use xlink:href="#m80e6b049b7" x="0" y="249.48" style="fill: #ffee9c; stroke: #ffee9c"/>
    </g>
   </g>
   <g id="matplotlib.axis_1">
    <g id="xtick_1">
     <g id="line2d_1">
      <path d="M 125.254844 124.74 
L 125.254844 13.86 
" clip-path="url(#p1741033556)" style="fill: none; stroke: #b0b0b0; stroke-width: 0.8; stroke-linecap: square"/>
     </g>
     <g id="text_1">
      <!-- N -->
      <g transform="translate(121.070469 7.957656) scale(0.1 -0.1)">
       <defs>
        <path id="DejaVuSans-Bold-31" d="M 588 4666 
L 1931 4666 
L 3628 1466 
L 3628 4666 
L 4769 4666 
L 4769 0 
L 3425 0 
L 1728 3200 
L 1728 0 
L 588 0 
L 588 4666 
z
" transform="scale(0.015625)"/>
       </defs>
       <use xlink:href="#DejaVuSans-Bold-31"/>
      </g>
     </g>
    </g>
    <g id="xtick_2">
     <g id="line2d_2">
      <path d="M 125.254844 124.74 
L 203.658844 46.336 
" clip-path="url(#p1741033556)" style="fill: none; stroke: #b0b0b0; stroke-width: 0.8; stroke-linecap: square"/>
     </g>
    </g>
    <g id="xtick_3">
     <g id="line2d_3">
      <path d="M 125.254844 124.74 
L 236.134844 124.74 
" clip-path="url(#p1741033556)" style="fill: none; stroke: #b0b0b0; stroke-width: 0.8; stroke-linecap: square"/>
     </g>
     <g id="text_2">
      <!-- E -->
      <g transform="translate(241.219219 127.337656) scale(0.1 -0.1)">
       <defs>
        <path id="DejaVuSans-Bold-28" d="M 588 4666 
L 3834 4666 
L 3834 3756 
L 1791 3756 
L 1791 2888 
L 3713 2888 
L 3713 1978 
L 1791 1978 
L 1791 909 
L 3903 909 
L 3903 0 
L 588 0 
L 588 4666 
z
" transform="scale(0.015625)"/>
       </defs>
       <use xlink:href="#DejaVuSans-Bold-28"/>
      </g>
     </g>
    </g>
    <g id="xtick_4">
     <g id="line2d_4">
      <path d="M 125.254844 124.74 
L 203.658844 203.144 
" clip-path="url(#p1741033556)" style="fill: none; stroke: #b0b0b0; stroke-width: 0.8; stroke-linecap: square"/>
     </g>
    </g>
    <g id="xtick_5">
     <g id="line2d_5">
      <path d="M 125.254844 124.74 
L 125.254844 235.62 
" clip-path="url(#p1741033556)" style="fill: none; stroke: #b0b0b0; stroke-width: 0.8; stroke-linecap: square"/>
     </g>
     <g id="text_3">
      <!-- S -->
      <g transform="translate(121.654062 246.717656) scale(0.1 -0.1)">
       <defs>
        <path id="DejaVuSans-Bold-36" d="M 3834 4519 
L 3834 3531 
Q 3450 3703 3084 3790 
Q 2719 3878 2394 3878 
Q 1963 3878 1756 3759 
Q 1550 3641 1550 3391 
Q 1550 3203 1689 3098 
Q 1828 2994 2194 2919 
L 2706 2816 
Q 3484 2659 3812 2340 
Q 4141 2022 4141 1434 
Q 4141 663 3683 286 
Q 3225 -91 2284 -91 
Q 1841 -91 1394 -6 
Q 947 78 500 244 
L 500 1259 
Q 947 1022 1364 901 
Q 1781 781 2169 781 
Q 2563 781 2772 912 
Q 2981 1044 2981 1288 
Q 2981 1506 2839 1625 
Q 2697 1744 2272 1838 
L 1806 1941 
Q 1106 2091 782 2419 
Q 459 2747 459 3303 
Q 459 4000 909 4375 
Q 1359 4750 2203 4750 
Q 2588 4750 2994 4692 
Q 3400 4634 3834 4519 
z
" transform="scale(0.015625)"/>
       </defs>
       <use xlink:href="#DejaVuSans-Bold-36"/>
      </g>
     </g>
    </g>
    <g id="xtick_6">
     <g id="line2d_6">
      <path d="M 125.254844 124.74 
L 46.850844 203.144 
" clip-path="url(#p1741033556)" style="fill: none; stroke: #b0b0b0; stroke-width: 0.8; stroke-linecap: square"/>
     </g>
    </g>
    <g id="xtick_7">
     <g id="line2d_7">
      <path d="M 125.254844 124.74 
L 14.374844 124.74 
" clip-path="url(#p1741033556)" style="fill: none; stroke: #b0b0b0; stroke-width: 0.8; stroke-linecap: square"/>
     </g>
     <g id="text_4">
      <!-- W -->
      <g transform="translate(0.36 127.337656) scale(0.1 -0.1)">
       <defs>
        <path id="DejaVuSans-Bold-3a" d="M 191 4666 
L 1344 4666 
L 2150 1275 
L 2950 4666 
L 4109 4666 
L 4909 1275 
L 5716 4666 
L 6859 4666 
L 5759 0 
L 4372 0 
L 3525 3547 
L 2688 0 
L 1300 0 
L 191 4666 
z
" transform="scale(0.015625)"/>
       </defs>
       <use xlink:href="#DejaVuSans-Bold-3a"/>
      </g>
     </g>
    </g>
    <g id="xtick_8">
     <g id="line2d_8">
      <path d="M 125.254844 124.74 
L 46.850844 46.336 
" clip-path="url(#p1741033556)" style="fill: none; stroke: #b0b0b0; stroke-width: 0.8; stroke-linecap: square"/>
     </g>
    </g>
   </g>
   <g id="matplotlib.axis_2"/>
   <g id="patch_3">
    <path d="M 125.254844 124.74 
C 125.254844 124.74 125.254844 124.74 125.254844 124.74 
C 125.254844 124.74 125.254844 124.74 125.254844 124.74 
L 125.254844 124.74 
C 125.254844 124.74 125.254844 124.74 125.254844 124.74 
C 125.254844 124.74 125.254844 124.74 125.254844 124.74 
z
" clip-path="url(#p1741033556)" style="fill: #d9d9d9"/>
   </g>
   <g id="patch_4">
    <path d="M 125.254844 124.74 
C 125.254844 124.74 125.254844 124.74 125.254844 124.74 
C 125.254844 124.74 125.254844 124.74 125.254844 124.74 
L 125.254844 124.74 
C 125.254844 124.74 125.254844 124.74 125.254844 124.74 
C 125.254844 124.74 125.254844 124.74 125.254844 124.74 
z
" clip-path="url(#p1741033556)" style="fill: #d9d9d9"/>
   </g>
   <g id="patch_5">
    <path d="M 125.254844 124.74 
C 125.254844 124.74 125.254844 124.74 125.254844 124.74 
C 125.254844 124.74 125.254844 124.74 125.254844 124.74 
L 125.254844 124.74 
C 125.254844 124.74 125.254844 124.74 125.254844 124.74 
C 125.254844 124.74 125.254844 124.74 125.254844 124.74 
z
" clip-path="url(#p1741033556)" style="fill: #d9d9d9"/>
   </g>
   <g id="patch_6">
    <path d="M 125.254844 124.74 
C 125.254844 124.74 125.254844 124.74 125.254844 124.74 
C 125.254844 124.74 125.254844 124.74 125.254844 124.74 
L 125.254844 124.74 
C 125.254844 124.74 125.254844 124.74 125.254844 124.74 
C 125.254844 124.74 125.254844 124.74 125.254844 124.74 
z
" clip-path="url(#p1741033556)" style="fill: #d9d9d9"/>
   </g>
   <g id="patch_7">
    <path d="M 125.254844 124.74 
C 125.254844 124.74 125.254844 124.74 125.254844 124.74 
C 125.254844 124.74 125.254844 124.74 125.254844 124.74 
L 125.254844 124.74 
C 125.254844 124.74 125.254844 124.74 125.254844 124.74 
C 125.254844 124.74 125.254844 124.74 125.254844 124.74 
z
" clip-path="url(#p1741033556)" style="fill: #d9d9d9"/>
   </g>
   <g id="patch_8">
    <path d="M 125.254844 124.74 
C 125.254844 124.74 125.254844 124.74 125.254844 124.74 
C 125.254844 124.74 125.254844 124.74 125.254844 124.74 
L 125.254844 124.74 
C 125.254844 124.74 125.254844 124.74 125.254844 124.74 
C 125.254844 124.74 125.254844 124.74 125.254844 124.74 
z
" clip-path="url(#p1741033556)" style="fill: #d9d9d9"/>
   </g>
   <g id="patch_9">
    <path d="M 125.254844 124.74 
C 125.254844 124.74 125.254844 124.74 125.254844 124.74 
C 125.254844 124.74 125.254844 124.74 125.254844 124.74 
L 125.254844 124.74 
C 125.254844 124.74 125.254844 124.74 125.254844 124.74 
C 125.254844 124.74 125.254844 124.74 125.254844 124.74 
z
" clip-path="url(#p1741033556)" style="fill: #d9d9d9"/>
   </g>
   <g id="patch_10">
    <path d="M 125.254844 124.74 
C 125.254844 124.74 125.254844 124.74 125.254844 124.74 
C 125.254844 124.74 125.254844 124.74 125.254844 124.74 
L 125.254844 124.74 
C 125.254844 124.74 125.254844 124.74 125.254844 124.74 
C 125.254844 124.74 125.254844 124.74 125.254844 124.74 
z
" clip-path="url(#p1741033556)" style="fill: #d9d9d9"/>
   </g>
   <g id="patch_11">
    <path d="M 125.254844 124.74 
C 125.254844 124.74 125.254844 124.74 125.254844 124.74 
C 125.254844 124.74 125.254844 124.74 125.254844 124.74 
L 125.254844 124.74 
C 125.254844 124.74 125.254844 124.74 125.254844 124.74 
C 125.254844 124.74 125.254844 124.74 125.254844 124.74 
z
" clip-path="url(#p1741033556)" style="fill: #d9d9d9"/>
   </g>
   <g id="patch_12">
    <path d="M 125.254844 124.74 
C 125.254844 124.74 125.254844 124.74 125.254844 124.74 
C 125.254844 124.74 125.254844 124.74 125.254844 124.74 
L 125.254844 124.74 
C 125.254844 124.74 125.254844 124.74 125.254844 124.74 
C 125.254844 124.74 125.254844 124.74 125.254844 124.74 
z
" clip-path="url(#p1741033556)" style="fill: #d9d9d9"/>
   </g>
   <g id="patch_13">
    <path d="M 125.254844 124.74 
C 125.254844 124.74 125.254844 124.74 125.254844 124.74 
C 125.254844 124.74 125.254844 124.74 125.254844 124.74 
L 125.254844 124.74 
C 125.254844 124.74 125.254844 124.74 125.254844 124.74 
C 125.254844 124.74 125.254844 124.74 125.254844 124.74 
z
" clip-path="url(#p1741033556)" style="fill: #d9d9d9"/>
   </g>
   <g id="patch_14">
    <path d="M 125.254844 124.74 
C 125.254844 124.74 125.254844 124.74 125.254844 124.74 
C 125.254844 124.74 125.254844 124.74 125.254844 124.74 
L 125.254844 124.74 
C 125.254844 124.74 125.254844 124.74 125.254844 124.74 
C 125.254844 124.74 125.254844 124.74 125.254844 124.74 
z
" clip-path="url(#p1741033556)" style="fill: #d9d9d9"/>
   </g>
   <g id="patch_15">
    <path d="M 125.254844 124.74 
C 125.254844 124.74 125.254844 124.74 125.254844 124.74 
C 125.254844 124.74 125.254844 124.74 125.254844 124.74 
L 125.254844 124.74 
C 125.254844 124.74 125.254844 124.74 125.254844 124.74 
C 125.254844 124.74 125.254844 124.74 125.254844 124.74 
z
" clip-path="url(#p1741033556)" style="fill: #d9d9d9"/>
   </g>
   <g id="patch_16">
    <path d="M 125.254844 124.74 
C 125.254844 124.74 125.254844 124.74 125.254844 124.74 
C 125.254844 124.74 125.254844 124.74 125.254844 124.74 
L 125.254844 124.74 
C 125.254844 124.74 125.254844 124.74 125.254844 124.74 
C 125.254844 124.74 125.254844 124.74 125.254844 124.74 
z
" clip-path="url(#p1741033556)" style="fill: #d9d9d9"/>
   </g>
   <g id="patch_17">
    <path d="M 125.254844 124.74 
C 125.254844 124.74 125.254844 124.74 125.254844 124.74 
C 125.254844 124.74 125.254844 124.74 125.254844 124.74 
L 125.254844 124.74 
C 125.254844 124.74 125.254844 124.74 125.254844 124.74 
C 125.254844 124.74 125.254844 124.74 125.254844 124.74 
z
" clip-path="url(#p1741033556)" style="fill: #d9d9d9"/>
   </g>
   <g id="patch_18">
    <path d="M 125.254844 124.74 
C 125.254844 124.74 125.254844 124.74 125.254844 124.74 
C 125.254844 124.74 125.254844 124.74 125.254844 124.74 
L 125.254844 124.74 
C 125.254844 124.74 125.254844 124.74 125.254844 124.74 
C 125.254844 124.74 125.254844 124.74 125.254844 124.74 
z
" clip-path="url(#p1741033556)" style="fill: #d9d9d9"/>
   </g>
   <g id="patch_19">
    <path d="M 125.254844 124.74 
C 125.254844 124.74 125.254844 124.74 125.254844 124.74 
C 125.254844 124.74 125.254844 124.74 125.254844 124.74 
L 125.254844 124.74 
C 125.254844 124.74 125.254844 124.74 125.254844 124.74 
C 125.254844 124.74 125.254844 124.74 125.254844 124.74 
z
" clip-path="url(#p1741033556)" style="fill: #d9d9d9"/>
   </g>
   <g id="patch_20">
    <path d="M 125.254844 124.74 
C 125.254844 124.74 125.254844 124.74 125.254844 124.74 
C 125.254844 124.74 125.254844 124.74 125.254844 124.74 
L 125.254844 124.74 
C 125.254844 124.74 125.254844 124.74 125.254844 124.74 
C 125.254844 124.74 125.254844 124.74 125.254844 124.74 
z
" clip-path="url(#p1741033556)" style="fill: #d9d9d9"/>
   </g>
   <g id="patch_21">
    <path d="M 125.254844 124.74 
C 125.254844 124.74 125.254844 124.74 125.254844 124.74 
C 125.254844 124.74 125.254844 124.74 125.254844 124.74 
L 125.254844 124.74 
C 125.254844 124.74 125.254844 124.74 125.254844 124.74 
C 125.254844 124.74 125.254844 124.74 125.254844 124.74 
z
" clip-path="url(#p1741033556)" style="fill: #d9d9d9"/>
   </g>
   <g id="patch_22">
    <path d="M 125.254844 124.74 
C 125.254844 124.74 125.254844 124.74 125.254844 124.74 
C 125.254844 124.74 125.254844 124.74 125.254844 124.74 
L 125.254844 124.74 
C 125.254844 124.74 125.254844 124.74 125.254844 124.74 
C 125.254844 124.74 125.254844 124.74 125.254844 124.74 
z
" clip-path="url(#p1741033556)" style="fill: #d9d9d9"/>
   </g>
   <g id="patch_23">
    <path d="M 125.254844 124.74 
C 125.254844 124.74 125.254844 124.74 125.254844 124.74 
C 125.254844 124.74 125.254844 124.74 125.254844 124.74 
L 125.254844 124.74 
C 125.254844 124.74 125.254844 124.74 125.254844 124.74 
C 125.254844 124.74 125.254844 124.74 125.254844 124.74 
z
" clip-path="url(#p1741033556)" style="fill: #d9d9d9"/>
   </g>
   <g id="patch_24">
    <path d="M 125.254844 124.74 
C 125.254844 124.74 125.254844 124.74 125.254844 124.74 
C 125.254844 124.74 125.254844 124.74 125.254844 124.74 
L 125.254844 124.74 
C 125.254844 124.74 125.254844 124.74 125.254844 124.74 
C 125.254844 124.74 125.254844 124.74 125.254844 124.74 
z
" clip-path="url(#p1741033556)" style="fill: #d9d9d9"/>
   </g>
   <g id="patch_25">
    <path d="M 125.254844 124.74 
C 125.254844 124.74 125.254844 124.74 125.254844 124.74 
C 125.254844 124.74 125.254844 124.74 125.254844 124.74 
L 125.254844 124.74 
C 125.254844 124.74 125.254844 124.74 125.254844 124.74 
C 125.254844 124.74 125.254844 124.74 125.254844 124.74 
z
" clip-path="url(#p1741033556)" style="fill: #d9d9d9"/>
   </g>
   <g id="patch_26">
    <path d="M 125.254844 124.74 
C 125.254844 124.74 125.254844 124.74 125.254844 124.74 
C 125.254844 124.74 125.254844 124.74 125.254844 124.74 
L 125.254844 124.74 
C 125.254844 124.74 125.254844 124.74 125.254844 124.74 
C 125.254844 124.74 125.254844 124.74 125.254844 124.74 
z
" clip-path="url(#p1741033556)" style="fill: #d9d9d9"/>
   </g>
   <g id="patch_27">
    <path d="M 125.254844 124.74 
C 125.254844 124.74 125.254844 124.74 125.254844 124.74 
C 125.254844 124.74 125.254844 124.74 125.254844 124.74 
L 125.254844 124.74 
C 125.254844 124.74 125.254844 124.74 125.254844 124.74 
C 125.254844 124.74 125.254844 124.74 125.254844 124.74 
z
" clip-path="url(#p1741033556)" style="fill: #d9d9d9"/>
   </g>
   <g id="patch_28">
    <path d="M 125.254844 124.74 
C 125.254844 124.74 125.254844 124.74 125.254844 124.74 
C 125.254844 124.74 125.254844 124.74 125.254844 124.74 
L 125.254844 124.74 
C 125.254844 124.74 125.254844 124.74 125.254844 124.74 
C 125.254844 124.74 125.254844 124.74 125.254844 124.74 
z
" clip-path="url(#p1741033556)" style="fill: #d9d9d9"/>
   </g>
   <g id="patch_29">
    <path d="M 125.254844 124.74 
C 125.254844 124.74 125.254844 124.74 125.254844 124.74 
C 125.254844 124.74 125.254844 124.74 125.254844 124.74 
L 125.254844 124.74 
C 125.254844 124.74 125.254844 124.74 125.254844 124.74 
C 125.254844 124.74 125.254844 124.74 125.254844 124.74 
z
" clip-path="url(#p1741033556)" style="fill: #d9d9d9"/>
   </g>
   <g id="patch_30">
    <path d="M 125.254844 124.74 
C 125.254844 124.74 125.254844 124.74 125.254844 124.74 
C 125.254844 124.74 125.254844 124.74 125.254844 124.74 
L 125.254844 124.74 
C 125.254844 124.74 125.254844 124.74 125.254844 124.74 
C 125.254844 124.74 125.254844 124.74 125.254844 124.74 
z
" clip-path="url(#p1741033556)" style="fill: #d9d9d9"/>
   </g>
   <g id="patch_31">
    <path d="M 125.254844 124.74 
C 125.254844 124.74 125.254844 124.74 125.254844 124.74 
C 125.254844 124.74 125.254844 124.74 125.254844 124.74 
L 125.254844 124.74 
C 125.254844 124.74 125.254844 124.74 125.254844 124.74 
C 125.254844 124.74 125.254844 124.74 125.254844 124.74 
z
" clip-path="url(#p1741033556)" style="fill: #d9d9d9"/>
   </g>
   <g id="patch_32">
    <path d="M 125.254844 124.74 
C 125.254844 124.74 125.254844 124.74 125.254844 124.74 
C 125.254844 124.74 125.254844 124.74 125.254844 124.74 
L 125.254844 124.74 
C 125.254844 124.74 125.254844 124.74 125.254844 124.74 
C 125.254844 124.74 125.254844 124.74 125.254844 124.74 
z
" clip-path="url(#p1741033556)" style="fill: #d9d9d9"/>
   </g>
   <g id="patch_33">
    <path d="M 125.254844 124.74 
C 125.254844 124.74 125.254844 124.74 125.254844 124.74 
C 125.254844 124.74 125.254844 124.74 125.254844 124.74 
L 125.254844 124.74 
C 125.254844 124.74 125.254844 124.74 125.254844 124.74 
C 125.254844 124.74 125.254844 124.74 125.254844 124.74 
z
" clip-path="url(#p1741033556)" style="fill: #d9d9d9"/>
   </g>
   <g id="patch_34">
    <path d="M 125.254844 124.74 
C 125.254844 124.74 125.254844 124.74 125.254844 124.74 
C 125.254844 124.74 125.254844 124.74 125.254844 124.74 
L 125.254844 124.74 
C 125.254844 124.74 125.254844 124.74 125.254844 124.74 
C 125.254844 124.74 125.254844 124.74 125.254844 124.74 
z
" clip-path="url(#p1741033556)" style="fill: #d9d9d9"/>
   </g>
   <g id="patch_35">
    <path d="M 125.254844 124.74 
C 125.254844 124.74 125.254844 124.74 125.254844 124.74 
C 125.254844 124.74 125.254844 124.74 125.254844 124.74 
L 125.662603 120.599951 
C 125.527093 120.586605 125.391009 120.57992 125.254844 120.57992 
C 125.118678 120.57992 124.982595 120.586605 124.847085 120.599951 
z
" clip-path="url(#p1741033556)" style="fill: #a1a1d8"/>
   </g>
   <g id="patch_36">
    <path d="M 125.254844 124.74 
C 125.254844 124.74 125.254844 124.74 125.254844 124.74 
C 125.254844 124.74 125.254844 124.74 125.254844 124.74 
L 125.254844 124.74 
C 125.254844 124.74 125.254844 124.74 125.254844 124.74 
C 125.254844 124.74 125.254844 124.74 125.254844 124.74 
z
" clip-path="url(#p1741033556)" style="fill: #a1a1d8"/>
   </g>
   <g id="patch_37">
    <path d="M 125.254844 124.74 
C 125.254844 124.74 125.254844 124.74 125.254844 124.74 
C 125.254844 124.74 125.254844 124.74 125.254844 124.74 
L 125.254844 124.74 
C 125.254844 124.74 125.254844 124.74 125.254844 124.74 
C 125.254844 124.74 125.254844 124.74 125.254844 124.74 
z
" clip-path="url(#p1741033556)" style="fill: #a1a1d8"/>
   </g>
   <g id="patch_38">
    <path d="M 125.254844 124.74 
C 125.254844 124.74 125.254844 124.74 125.254844 124.74 
C 125.254844 124.74 125.254844 124.74 125.254844 124.74 
L 125.254844 124.74 
C 125.254844 124.74 125.254844 124.74 125.254844 124.74 
C 125.254844 124.74 125.254844 124.74 125.254844 124.74 
z
" clip-path="url(#p1741033556)" style="fill: #a1a1d8"/>
   </g>
   <g id="patch_39">
    <path d="M 125.254844 124.74 
C 125.254844 124.74 125.254844 124.74 125.254844 124.74 
C 125.254844 124.74 125.254844 124.74 125.254844 124.74 
L 125.254844 124.74 
C 125.254844 124.74 125.254844 124.74 125.254844 124.74 
C 125.254844 124.74 125.254844 124.74 125.254844 124.74 
z
" clip-path="url(#p1741033556)" style="fill: #a1a1d8"/>
   </g>
   <g id="patch_40">
    <path d="M 125.254844 124.74 
C 125.254844 124.74 125.254844 124.74 125.254844 124.74 
C 125.254844 124.74 125.254844 124.74 125.254844 124.74 
L 125.254844 124.74 
C 125.254844 124.74 125.254844 124.74 125.254844 124.74 
C 125.254844 124.74 125.254844 124.74 125.254844 124.74 
z
" clip-path="url(#p1741033556)" style="fill: #a1a1d8"/>
   </g>
   <g id="patch_41">
    <path d="M 125.254844 124.74 
C 125.254844 124.74 125.254844 124.74 125.254844 124.74 
C 125.254844 124.74 125.254844 124.74 125.254844 124.74 
L 125.254844 124.74 
C 125.254844 124.74 125.254844 124.74 125.254844 124.74 
C 125.254844 124.74 125.254844 124.74 125.254844 124.74 
z
" clip-path="url(#p1741033556)" style="fill: #a1a1d8"/>
   </g>
   <g id="patch_42">
    <path d="M 125.254844 124.74 
C 125.254844 124.74 125.254844 124.74 125.254844 124.74 
C 125.254844 124.74 125.254844 124.74 125.254844 124.74 
L 125.254844 124.74 
C 125.254844 124.74 125.254844 124.74 125.254844 124.74 
C 125.254844 124.74 125.254844 124.74 125.254844 124.74 
z
" clip-path="url(#p1741033556)" style="fill: #a1a1d8"/>
   </g>
   <g id="patch_43">
    <path d="M 125.254844 124.74 
C 125.254844 124.74 125.254844 124.74 125.254844 124.74 
C 125.254844 124.74 125.254844 124.74 125.254844 124.74 
L 125.254844 124.74 
C 125.254844 124.74 125.254844 124.74 125.254844 124.74 
C 125.254844 124.74 125.254844 124.74 125.254844 124.74 
z
" clip-path="url(#p1741033556)" style="fill: #a1a1d8"/>
   </g>
   <g id="patch_44">
    <path d="M 125.254844 124.74 
C 125.254844 124.74 125.254844 124.74 125.254844 124.74 
C 125.254844 124.74 125.254844 124.74 125.254844 124.74 
L 125.254844 124.74 
C 125.254844 124.74 125.254844 124.74 125.254844 124.74 
C 125.254844 124.74 125.254844 124.74 125.254844 124.74 
z
" clip-path="url(#p1741033556)" style="fill: #a1a1d8"/>
   </g>
   <g id="patch_45">
    <path d="M 125.254844 124.74 
C 125.254844 124.74 125.254844 124.74 125.254844 124.74 
C 125.254844 124.74 125.254844 124.74 125.254844 124.74 
L 125.254844 124.74 
C 125.254844 124.74 125.254844 124.74 125.254844 124.74 
C 125.254844 124.74 125.254844 124.74 125.254844 124.74 
z
" clip-path="url(#p1741033556)" style="fill: #a1a1d8"/>
   </g>
   <g id="patch_46">
    <path d="M 125.254844 124.74 
C 125.254844 124.74 125.254844 124.74 125.254844 124.74 
C 125.254844 124.74 125.254844 124.74 125.254844 124.74 
L 125.254844 124.74 
C 125.254844 124.74 125.254844 124.74 125.254844 124.74 
C 125.254844 124.74 125.254844 124.74 125.254844 124.74 
z
" clip-path="url(#p1741033556)" style="fill: #a1a1d8"/>
   </g>
   <g id="patch_47">
    <path d="M 125.254844 124.74 
C 125.254844 124.74 125.254844 124.74 125.254844 124.74 
C 125.254844 124.74 125.254844 124.74 125.254844 124.74 
L 125.254844 124.74 
C 125.254844 124.74 125.254844 124.74 125.254844 124.74 
C 125.254844 124.74 125.254844 124.74 125.254844 124.74 
z
" clip-path="url(#p1741033556)" style="fill: #a1a1d8"/>
   </g>
   <g id="patch_48">
    <path d="M 125.254844 124.74 
C 125.254844 124.74 125.254844 124.74 125.254844 124.74 
C 125.254844 124.74 125.254844 124.74 125.254844 124.74 
L 125.254844 124.74 
C 125.254844 124.74 125.254844 124.74 125.254844 124.74 
C 125.254844 124.74 125.254844 124.74 125.254844 124.74 
z
" clip-path="url(#p1741033556)" style="fill: #a1a1d8"/>
   </g>
   <g id="patch_49">
    <path d="M 125.254844 124.74 
C 125.254844 124.74 125.254844 124.74 125.254844 124.74 
C 125.254844 124.74 125.254844 124.74 125.254844 124.74 
L 125.254844 124.74 
C 125.254844 124.74 125.254844 124.74 125.254844 124.74 
C 125.254844 124.74 125.254844 124.74 125.254844 124.74 
z
" clip-path="url(#p1741033556)" style="fill: #a1a1d8"/>
   </g>
   <g id="patch_50">
    <path d="M 125.254844 124.74 
C 125.254844 124.74 125.254844 124.74 125.254844 124.74 
C 125.254844 124.74 125.254844 124.74 125.254844 124.74 
L 125.254844 124.74 
C 125.254844 124.74 125.254844 124.74 125.254844 124.74 
C 125.254844 124.74 125.254844 124.74 125.254844 124.74 
z
" clip-path="url(#p1741033556)" style="fill: #a1a1d8"/>
   </g>
   <g id="patch_51">
    <path d="M 125.254844 124.74 
C 125.254844 124.74 125.254844 124.74 125.254844 124.74 
C 125.254844 124.74 125.254844 124.74 125.254844 124.74 
L 123.613645 141.403374 
C 124.159062 141.457093 124.706788 141.484001 125.254844 141.484001 
C 125.8029 141.484001 126.350626 141.457093 126.896043 141.403374 
z
" clip-path="url(#p1741033556)" style="fill: #a1a1d8"/>
   </g>
   <g id="patch_52">
    <path d="M 125.254844 124.74 
C 125.254844 124.74 125.254844 124.74 125.254844 124.74 
C 125.254844 124.74 125.254844 124.74 125.254844 124.74 
L 125.254844 124.74 
C 125.254844 124.74 125.254844 124.74 125.254844 124.74 
C 125.254844 124.74 125.254844 124.74 125.254844 124.74 
z
" clip-path="url(#p1741033556)" style="fill: #a1a1d8"/>
   </g>
   <g id="patch_53">
    <path d="M 125.254844 124.74 
C 125.254844 124.74 125.254844 124.74 125.254844 124.74 
C 125.254844 124.74 125.254844 124.74 125.254844 124.74 
L 120.782966 133.106296 
C 121.056807 133.252667 121.33767 133.385505 121.624539 133.50433 
C 121.911409 133.623156 122.20394 133.727825 122.501075 133.81796 
z
" clip-path="url(#p1741033556)" style="fill: #a1a1d8"/>
   </g>
   <g id="patch_54">
    <path d="M 125.254844 124.74 
C 125.254844 124.74 125.254844 124.74 125.254844 124.74 
C 125.254844 124.74 125.254844 124.74 125.254844 124.74 
L 115.886872 136.154907 
C 116.260499 136.461535 116.648955 136.749634 117.050838 137.018163 
C 117.45272 137.286692 117.867545 137.535329 118.293812 137.763174 
z
" clip-path="url(#p1741033556)" style="fill: #a1a1d8"/>
   </g>
   <g id="patch_55">
    <path d="M 125.254844 124.74 
C 125.254844 124.74 125.254844 124.74 125.254844 124.74 
C 125.254844 124.74 125.254844 124.74 125.254844 124.74 
L 97.146595 147.807843 
C 97.90164 148.727868 98.701401 149.610268 99.542988 150.451856 
C 100.384576 151.293443 101.266975 152.093204 102.187 152.848248 
z
" clip-path="url(#p1741033556)" style="fill: #a1a1d8"/>
   </g>
   <g id="patch_56">
    <path d="M 125.254844 124.74 
C 125.254844 124.74 125.254844 124.74 125.254844 124.74 
C 125.254844 124.74 125.254844 124.74 125.254844 124.74 
L 94.911768 140.958712 
C 95.442631 141.951886 96.021935 142.918398 96.64759 143.854756 
C 97.273244 144.791114 97.944494 145.69619 98.658915 146.566714 
z
" clip-path="url(#p1741033556)" style="fill: #a1a1d8"/>
   </g>
   <g id="patch_57">
    <path d="M 125.254844 124.74 
C 125.254844 124.74 125.254844 124.74 125.254844 124.74 
C 125.254844 124.74 125.254844 124.74 125.254844 124.74 
L 97.502177 133.158679 
C 97.777733 134.067066 98.097722 134.961375 98.460988 135.838378 
C 98.824255 136.715381 99.230361 137.57402 99.67784 138.411194 
z
" clip-path="url(#p1741033556)" style="fill: #a1a1d8"/>
   </g>
   <g id="patch_58">
    <path d="M 125.254844 124.74 
C 125.254844 124.74 125.254844 124.74 125.254844 124.74 
C 125.254844 124.74 125.254844 124.74 125.254844 124.74 
L 96.156457 127.605941 
C 96.250263 128.558375 96.390775 129.505629 96.577485 130.444281 
C 96.764194 131.382934 96.996877 132.311854 97.274691 133.227686 
z
" clip-path="url(#p1741033556)" style="fill: #a1a1d8"/>
   </g>
   <g id="patch_59">
    <path d="M 125.254844 124.74 
C 125.254844 124.74 125.254844 124.74 125.254844 124.74 
C 125.254844 124.74 125.254844 124.74 125.254844 124.74 
L 81.952231 120.475065 
C 81.812633 121.892424 81.742708 123.315783 81.742708 124.74 
C 81.742708 126.164217 81.812633 127.587576 81.952231 129.004935 
z
" clip-path="url(#p1741033556)" style="fill: #a1a1d8"/>
   </g>
   <g id="patch_60">
    <path d="M 125.254844 124.74 
C 125.254844 124.74 125.254844 124.74 125.254844 124.74 
C 125.254844 124.74 125.254844 124.74 125.254844 124.74 
L 51.871369 102.479366 
C 51.142745 104.881317 50.532489 107.317593 50.042807 109.779396 
C 49.553124 112.241198 49.184604 114.725558 48.938577 117.223504 
z
" clip-path="url(#p1741033556)" style="fill: #a1a1d8"/>
   </g>
   <g id="patch_61">
    <path d="M 125.254844 124.74 
C 125.254844 124.74 125.254844 124.74 125.254844 124.74 
C 125.254844 124.74 125.254844 124.74 125.254844 124.74 
L 95.766675 108.978245 
C 95.250769 109.943437 94.782563 110.933377 94.363747 111.944489 
C 93.94493 112.9556 93.576009 113.986665 93.258316 115.033959 
z
" clip-path="url(#p1741033556)" style="fill: #a1a1d8"/>
   </g>
   <g id="patch_62">
    <path d="M 125.254844 124.74 
C 125.254844 124.74 125.254844 124.74 125.254844 124.74 
C 125.254844 124.74 125.254844 124.74 125.254844 124.74 
L 104.563568 107.759108 
C 104.007758 108.436365 103.485534 109.140502 102.998783 109.868976 
C 102.512032 110.59745 102.061341 111.349383 101.648337 112.122059 
z
" clip-path="url(#p1741033556)" style="fill: #a1a1d8"/>
   </g>
   <g id="patch_63">
    <path d="M 125.254844 124.74 
C 125.254844 124.74 125.254844 124.74 125.254844 124.74 
C 125.254844 124.74 125.254844 124.74 125.254844 124.74 
L 104.01028 98.853424 
C 103.162973 99.54879 102.350318 100.285338 101.57525 101.060406 
C 100.800181 101.835475 100.063634 102.64813 99.368268 103.495436 
z
" clip-path="url(#p1741033556)" style="fill: #a1a1d8"/>
   </g>
   <g id="patch_64">
    <path d="M 125.254844 124.74 
C 125.254844 124.74 125.254844 124.74 125.254844 124.74 
C 125.254844 124.74 125.254844 124.74 125.254844 124.74 
L 99.716 76.960183 
C 98.152095 77.796108 96.630174 78.708312 95.155735 79.693501 
C 93.681296 80.678689 92.256116 81.735675 90.885342 82.86064 
z
" clip-path="url(#p1741033556)" style="fill: #a1a1d8"/>
   </g>
   <g id="patch_65">
    <path d="M 125.254844 124.74 
C 125.254844 124.74 125.254844 124.74 125.254844 124.74 
C 125.254844 124.74 125.254844 124.74 125.254844 124.74 
L 107.52315 66.286438 
C 105.609877 66.866823 103.726253 67.540795 101.879082 68.305918 
C 100.03191 69.071042 98.223417 69.926395 96.460135 70.868889 
z
" clip-path="url(#p1741033556)" style="fill: #a1a1d8"/>
   </g>
   <g id="patch_66">
    <path d="M 125.254844 124.74 
C 125.254844 124.74 125.254844 124.74 125.254844 124.74 
C 125.254844 124.74 125.254844 124.74 125.254844 124.74 
L 122.637551 98.166176 
C 121.76775 98.251844 120.902679 98.380165 120.045463 98.550676 
C 119.188248 98.721187 118.33992 98.933682 117.503545 99.187394 
z
" clip-path="url(#p1741033556)" style="fill: #a1a1d8"/>
   </g>
   <g id="patch_67">
    <path d="M 124.847085 120.599951 
C 124.982595 120.586605 125.118678 120.57992 125.254844 120.57992 
C 125.391009 120.57992 125.527093 120.586605 125.662603 120.599951 
L 129.36088 83.050718 
C 127.996327 82.916321 126.625999 82.849001 125.254844 82.849001 
C 123.883689 82.849001 122.51336 82.916321 121.148808 83.050718 
z
" clip-path="url(#p1741033556)" style="fill: #ff8c8e"/>
   </g>
   <g id="patch_68">
    <path d="M 125.254844 124.74 
C 125.254844 124.74 125.254844 124.74 125.254844 124.74 
C 125.254844 124.74 125.254844 124.74 125.254844 124.74 
L 136.975483 86.102231 
C 135.710811 85.718597 134.428066 85.397286 133.131881 85.139459 
C 131.835696 84.881632 130.527634 84.687599 129.212419 84.558062 
z
" clip-path="url(#p1741033556)" style="fill: #ff8c8e"/>
   </g>
   <g id="patch_69">
    <path d="M 125.254844 124.74 
C 125.254844 124.74 125.254844 124.74 125.254844 124.74 
C 125.254844 124.74 125.254844 124.74 125.254844 124.74 
L 132.160408 111.820599 
C 131.737536 111.594569 131.303822 111.389438 130.860833 111.205946 
C 130.417843 111.022453 129.966111 110.860821 129.507269 110.721633 
z
" clip-path="url(#p1741033556)" style="fill: #ff8c8e"/>
   </g>
   <g id="patch_70">
    <path d="M 125.254844 124.74 
C 125.254844 124.74 125.254844 124.74 125.254844 124.74 
C 125.254844 124.74 125.254844 124.74 125.254844 124.74 
L 137.463481 109.863732 
C 136.976559 109.464125 136.47031 109.088666 135.946564 108.73871 
C 135.422818 108.388754 134.882206 108.064723 134.32668 107.767789 
z
" clip-path="url(#p1741033556)" style="fill: #ff8c8e"/>
   </g>
   <g id="patch_71">
    <path d="M 125.254844 124.74 
C 125.254844 124.74 125.254844 124.74 125.254844 124.74 
C 125.254844 124.74 125.254844 124.74 125.254844 124.74 
L 134.902201 116.822619 
C 134.643053 116.506846 134.368558 116.203988 134.079707 115.915137 
C 133.790856 115.626286 133.487998 115.351791 133.172225 115.092643 
z
" clip-path="url(#p1741033556)" style="fill: #ff8c8e"/>
   </g>
   <g id="patch_72">
    <path d="M 125.254844 124.74 
C 125.254844 124.74 125.254844 124.74 125.254844 124.74 
C 125.254844 124.74 125.254844 124.74 125.254844 124.74 
L 138.278017 117.778969 
C 138.050172 117.352701 137.801536 116.937876 137.533007 116.535994 
C 137.264477 116.134111 136.976379 115.745655 136.669751 115.372028 
z
" clip-path="url(#p1741033556)" style="fill: #ff8c8e"/>
   </g>
   <g id="patch_73">
    <path d="M 125.254844 124.74 
C 125.254844 124.74 125.254844 124.74 125.254844 124.74 
C 125.254844 124.74 125.254844 124.74 125.254844 124.74 
L 125.254844 124.74 
C 125.254844 124.74 125.254844 124.74 125.254844 124.74 
C 125.254844 124.74 125.254844 124.74 125.254844 124.74 
z
" clip-path="url(#p1741033556)" style="fill: #ff8c8e"/>
   </g>
   <g id="patch_74">
    <path d="M 125.254844 124.74 
C 125.254844 124.74 125.254844 124.74 125.254844 124.74 
C 125.254844 124.74 125.254844 124.74 125.254844 124.74 
L 125.254844 124.74 
C 125.254844 124.74 125.254844 124.74 125.254844 124.74 
C 125.254844 124.74 125.254844 124.74 125.254844 124.74 
z
" clip-path="url(#p1741033556)" style="fill: #ff8c8e"/>
   </g>
   <g id="patch_75">
    <path d="M 125.254844 124.74 
C 125.254844 124.74 125.254844 124.74 125.254844 124.74 
C 125.254844 124.74 125.254844 124.74 125.254844 124.74 
L 125.254844 124.74 
C 125.254844 124.74 125.254844 124.74 125.254844 124.74 
C 125.254844 124.74 125.254844 124.74 125.254844 124.74 
z
" clip-path="url(#p1741033556)" style="fill: #ff8c8e"/>
   </g>
   <g id="patch_76">
    <path d="M 125.254844 124.74 
C 125.254844 124.74 125.254844 124.74 125.254844 124.74 
C 125.254844 124.74 125.254844 124.74 125.254844 124.74 
L 125.254844 124.74 
C 125.254844 124.74 125.254844 124.74 125.254844 124.74 
C 125.254844 124.74 125.254844 124.74 125.254844 124.74 
z
" clip-path="url(#p1741033556)" style="fill: #ff8c8e"/>
   </g>
   <g id="patch_77">
    <path d="M 125.254844 124.74 
C 125.254844 124.74 125.254844 124.74 125.254844 124.74 
C 125.254844 124.74 125.254844 124.74 125.254844 124.74 
L 125.254844 124.74 
C 125.254844 124.74 125.254844 124.74 125.254844 124.74 
C 125.254844 124.74 125.254844 124.74 125.254844 124.74 
z
" clip-path="url(#p1741033556)" style="fill: #ff8c8e"/>
   </g>
   <g id="patch_78">
    <path d="M 125.254844 124.74 
C 125.254844 124.74 125.254844 124.74 125.254844 124.74 
C 125.254844 124.74 125.254844 124.74 125.254844 124.74 
L 125.254844 124.74 
C 125.254844 124.74 125.254844 124.74 125.254844 124.74 
C 125.254844 124.74 125.254844 124.74 125.254844 124.74 
z
" clip-path="url(#p1741033556)" style="fill: #ff8c8e"/>
   </g>
   <g id="patch_79">
    <path d="M 125.254844 124.74 
C 125.254844 124.74 125.254844 124.74 125.254844 124.74 
C 125.254844 124.74 125.254844 124.74 125.254844 124.74 
L 125.254844 124.74 
C 125.254844 124.74 125.254844 124.74 125.254844 124.74 
C 125.254844 124.74 125.254844 124.74 125.254844 124.74 
z
" clip-path="url(#p1741033556)" style="fill: #ff8c8e"/>
   </g>
   <g id="patch_80">
    <path d="M 125.254844 124.74 
C 125.254844 124.74 125.254844 124.74 125.254844 124.74 
C 125.254844 124.74 125.254844 124.74 125.254844 124.74 
L 125.254844 124.74 
C 125.254844 124.74 125.254844 124.74 125.254844 124.74 
C 125.254844 124.74 125.254844 124.74 125.254844 124.74 
z
" clip-path="url(#p1741033556)" style="fill: #ff8c8e"/>
   </g>
   <g id="patch_81">
    <path d="M 125.254844 124.74 
C 125.254844 124.74 125.254844 124.74 125.254844 124.74 
C 125.254844 124.74 125.254844 124.74 125.254844 124.74 
L 127.415078 131.861338 
C 127.64817 131.79063 127.87765 131.708521 128.102689 131.615307 
C 128.327728 131.522092 128.548055 131.417886 128.762874 131.303062 
z
" clip-path="url(#p1741033556)" style="fill: #ff8c8e"/>
   </g>
   <g id="patch_82">
    <path d="M 125.254844 124.74 
C 125.254844 124.74 125.254844 124.74 125.254844 124.74 
C 125.254844 124.74 125.254844 124.74 125.254844 124.74 
L 125.254844 124.74 
C 125.254844 124.74 125.254844 124.74 125.254844 124.74 
C 125.254844 124.74 125.254844 124.74 125.254844 124.74 
z
" clip-path="url(#p1741033556)" style="fill: #ff8c8e"/>
   </g>
   <g id="patch_83">
    <path d="M 126.896043 141.403374 
C 126.350626 141.457093 125.8029 141.484001 125.254844 141.484001 
C 124.706788 141.484001 124.159062 141.457093 123.613645 141.403374 
L 122.835625 149.302738 
C 123.6396 149.381922 124.446979 149.421586 125.254844 149.421586 
C 126.062709 149.421586 126.870087 149.381922 127.674062 149.302738 
z
" clip-path="url(#p1741033556)" style="fill: #ff8c8e"/>
   </g>
   <g id="patch_84">
    <path d="M 125.254844 124.74 
C 125.254844 124.74 125.254844 124.74 125.254844 124.74 
C 125.254844 124.74 125.254844 124.74 125.254844 124.74 
L 117.028917 151.857247 
C 117.916505 152.126494 118.816777 152.352 119.726482 152.532952 
C 120.636187 152.713903 121.554227 152.850082 122.477288 152.940995 
z
" clip-path="url(#p1741033556)" style="fill: #ff8c8e"/>
   </g>
   <g id="patch_85">
    <path d="M 122.501075 133.81796 
C 122.20394 133.727825 121.911409 133.623156 121.624539 133.50433 
C 121.33767 133.385505 121.056807 133.252667 120.782966 133.106296 
L 103.988542 164.526452 
C 105.290812 165.22253 106.626473 165.85425 107.990699 166.419331 
C 109.354926 166.984413 110.746075 167.482173 112.15912 167.910816 
z
" clip-path="url(#p1741033556)" style="fill: #ff8c8e"/>
   </g>
   <g id="patch_86">
    <path d="M 118.293812 137.763174 
C 117.867545 137.535329 117.45272 137.286692 117.050838 137.018163 
C 116.648955 136.749634 116.260499 136.461535 115.886872 136.154907 
L 101.153384 154.107713 
C 102.114633 154.89659 103.114035 155.637797 104.147979 156.328656 
C 105.181922 157.019515 106.249162 157.659194 107.345844 158.245383 
z
" clip-path="url(#p1741033556)" style="fill: #ff8c8e"/>
   </g>
   <g id="patch_87">
    <path d="M 102.187 152.848248 
C 101.266975 152.093204 100.384576 151.293443 99.542988 150.451856 
C 98.701401 149.610268 97.90164 148.727868 97.146595 147.807843 
L 77.168363 164.203555 
C 78.460064 165.777498 79.828262 167.287072 81.268017 168.726827 
C 82.707771 170.166581 84.217346 171.53478 85.791288 172.826481 
z
" clip-path="url(#p1741033556)" style="fill: #ff8c8e"/>
   </g>
   <g id="patch_88">
    <path d="M 98.658915 146.566714 
C 97.944494 145.69619 97.273244 144.791114 96.64759 143.854756 
C 96.021935 142.918398 95.442631 141.951886 94.911768 140.958712 
L 73.681533 152.306509 
C 74.583826 153.994581 75.568454 155.637335 76.631862 157.228837 
C 77.695271 158.82034 78.836176 160.358673 80.050458 161.83828 
z
" clip-path="url(#p1741033556)" style="fill: #ff8c8e"/>
   </g>
   <g id="patch_89">
    <path d="M 99.67784 138.411194 
C 99.230361 137.57402 98.824255 136.715381 98.460988 135.838378 
C 98.097722 134.961375 97.777733 134.067066 97.502177 133.158679 
L 83.807068 137.313045 
C 84.218602 138.669693 84.696497 140.005318 85.239024 141.315095 
C 85.781552 142.624873 86.388059 143.907224 87.056355 145.157518 
z
" clip-path="url(#p1741033556)" style="fill: #ff8c8e"/>
   </g>
   <g id="patch_90">
    <path d="M 97.274691 133.227686 
C 96.996877 132.311854 96.764194 131.382934 96.577485 130.444281 
C 96.390775 129.505629 96.250263 128.558375 96.156457 127.605941 
L 78.525449 129.342444 
C 78.676094 130.871966 78.901744 132.393171 79.201583 133.900563 
C 79.501421 135.407955 79.875088 136.899717 80.321234 138.370462 
z
" clip-path="url(#p1741033556)" style="fill: #ff8c8e"/>
   </g>
   <g id="patch_91">
    <path d="M 81.952231 129.004935 
C 81.812633 127.587576 81.742708 126.164217 81.742708 124.74 
C 81.742708 123.315783 81.812633 121.892424 81.952231 120.475065 
L 56.077617 117.926638 
C 55.854606 120.190912 55.742898 122.46477 55.742898 124.74 
C 55.742898 127.01523 55.854606 129.289088 56.077617 131.553362 
z
" clip-path="url(#p1741033556)" style="fill: #ff8c8e"/>
   </g>
   <g id="patch_92">
    <path d="M 48.938577 117.223504 
C 49.184604 114.725558 49.553124 112.241198 50.042807 109.779396 
C 50.532489 107.317593 51.142745 104.881317 51.871369 102.479366 
L 36.416335 97.791133 
C 35.534259 100.69895 34.795479 103.648322 34.202666 106.628596 
C 33.609853 109.60887 33.16372 112.616452 32.865879 115.640481 
z
" clip-path="url(#p1741033556)" style="fill: #ff8c8e"/>
   </g>
   <g id="patch_93">
    <path d="M 93.258316 115.033959 
C 93.576009 113.986665 93.94493 112.9556 94.363747 111.944489 
C 94.782563 110.933377 95.250769 109.943437 95.766675 108.978245 
L 70.590011 95.521038 
C 69.63363 97.3103 68.765674 99.145438 67.989278 101.019826 
C 67.212881 102.894213 66.528979 104.80559 65.940043 106.747052 
z
" clip-path="url(#p1741033556)" style="fill: #ff8c8e"/>
   </g>
   <g id="patch_94">
    <path d="M 101.648337 112.122059 
C 102.061341 111.349383 102.512032 110.59745 102.998783 109.868976 
C 103.485534 109.140502 104.007758 108.436365 104.563568 107.759108 
L 85.399854 92.031855 
C 84.329267 93.336368 83.323374 94.692658 82.385807 96.095826 
C 81.448241 97.498993 80.580131 98.947347 79.784614 100.435656 
z
" clip-path="url(#p1741033556)" style="fill: #ff8c8e"/>
   </g>
   <g id="patch_95">
    <path d="M 99.368268 103.495436 
C 100.063634 102.64813 100.800181 101.835475 101.57525 101.060406 
C 102.350318 100.285338 103.162973 99.54879 104.01028 98.853424 
L 91.027491 83.03385 
C 89.662386 84.154162 88.353109 85.340822 87.104387 86.589544 
C 85.855666 87.838265 84.669006 89.147543 83.548694 90.512647 
z
" clip-path="url(#p1741033556)" style="fill: #ff8c8e"/>
   </g>
   <g id="patch_96">
    <path d="M 90.885342 82.86064 
C 92.256116 81.735675 93.681296 80.678689 95.155735 79.693501 
C 96.630174 78.708312 98.152095 77.796108 99.716 76.960183 
L 86.656549 52.52767 
C 84.292932 53.791049 81.992767 55.169715 79.764364 56.658686 
C 77.535961 58.147657 75.382006 59.74514 73.310278 61.445363 
z
" clip-path="url(#p1741033556)" style="fill: #ff8c8e"/>
   </g>
   <g id="patch_97">
    <path d="M 96.460135 70.868889 
C 98.223417 69.926395 100.03191 69.071042 101.879082 68.305918 
C 103.726253 67.540795 105.609877 66.866823 107.52315 66.286438 
L 98.289747 35.847988 
C 95.380179 36.730596 92.515698 37.755524 89.70665 38.919069 
C 86.897603 40.082615 84.147376 41.383376 81.465902 42.816653 
z
" clip-path="url(#p1741033556)" style="fill: #ff8c8e"/>
   </g>
   <g id="patch_98">
    <path d="M 117.503545 99.187394 
C 118.33992 98.933682 119.188248 98.721187 120.045463 98.550676 
C 120.902679 98.380165 121.76775 98.251844 122.637551 98.166176 
L 119.702727 68.368408 
C 117.8576 68.550137 116.022508 68.822348 114.204079 69.184056 
C 112.38565 69.545764 110.586076 69.996533 108.811857 70.534737 
z
" clip-path="url(#p1741033556)" style="fill: #ff8c8e"/>
   </g>
   <g id="patch_99">
    <path d="M 121.148808 83.050718 
C 122.51336 82.916321 123.883689 82.849001 125.254844 82.849001 
C 126.625999 82.849001 127.996327 82.916321 129.36088 83.050718 
L 130.406184 72.437569 
C 128.694247 72.268958 126.975064 72.1845 125.254844 72.1845 
C 123.534624 72.1845 121.815441 72.268958 120.103504 72.437569 
z
" clip-path="url(#p1741033556)" style="fill: #828282"/>
   </g>
   <g id="patch_100">
    <path d="M 129.212419 84.558062 
C 130.527634 84.687599 131.835696 84.881632 133.131881 85.139459 
C 134.428066 85.397286 135.710811 85.718597 136.975483 86.102231 
L 141.438588 71.389346 
C 139.692341 70.859628 137.921139 70.415965 136.13138 70.059959 
C 134.341621 69.703954 132.535461 69.436036 130.719425 69.257172 
z
" clip-path="url(#p1741033556)" style="fill: #828282"/>
   </g>
   <g id="patch_101">
    <path d="M 129.507269 110.721633 
C 129.966111 110.860821 130.417843 111.022453 130.860833 111.205946 
C 131.303822 111.389438 131.737536 111.594569 132.160408 111.820599 
L 132.160408 111.820599 
C 131.737536 111.594569 131.303822 111.389438 130.860833 111.205946 
C 130.417843 111.022453 129.966111 110.860821 129.507269 110.721633 
z
" clip-path="url(#p1741033556)" style="fill: #828282"/>
   </g>
   <g id="patch_102">
    <path d="M 134.32668 107.767789 
C 134.882206 108.064723 135.422818 108.388754 135.946564 108.73871 
C 136.47031 109.088666 136.976559 109.464125 137.463481 109.863732 
L 142.997945 103.119969 
C 142.290289 102.539211 141.554546 101.993547 140.793373 101.484947 
C 140.032201 100.976348 139.246516 100.505427 138.439157 100.073885 
z
" clip-path="url(#p1741033556)" style="fill: #828282"/>
   </g>
   <g id="patch_103">
    <path d="M 133.172225 115.092643 
C 133.487998 115.351791 133.790856 115.626286 134.079707 115.915137 
C 134.368558 116.203988 134.643053 116.506846 134.902201 116.822619 
L 134.902201 116.822619 
C 134.643053 116.506846 134.368558 116.203988 134.079707 115.915137 
C 133.790856 115.626286 133.487998 115.351791 133.172225 115.092643 
z
" clip-path="url(#p1741033556)" style="fill: #828282"/>
   </g>
   <g id="patch_104">
    <path d="M 136.669751 115.372028 
C 136.976379 115.745655 137.264477 116.134111 137.533007 116.535994 
C 137.801536 116.937876 138.050172 117.352701 138.278017 117.778969 
L 138.278017 117.778969 
C 138.050172 117.352701 137.801536 116.937876 137.533007 116.535994 
C 137.264477 116.134111 136.976379 115.745655 136.669751 115.372028 
z
" clip-path="url(#p1741033556)" style="fill: #828282"/>
   </g>
   <g id="patch_105">
    <path d="M 125.254844 124.74 
C 125.254844 124.74 125.254844 124.74 125.254844 124.74 
C 125.254844 124.74 125.254844 124.74 125.254844 124.74 
L 125.254844 124.74 
C 125.254844 124.74 125.254844 124.74 125.254844 124.74 
C 125.254844 124.74 125.254844 124.74 125.254844 124.74 
z
" clip-path="url(#p1741033556)" style="fill: #828282"/>
   </g>
   <g id="patch_106">
    <path d="M 125.254844 124.74 
C 125.254844 124.74 125.254844 124.74 125.254844 124.74 
C 125.254844 124.74 125.254844 124.74 125.254844 124.74 
L 125.254844 124.74 
C 125.254844 124.74 125.254844 124.74 125.254844 124.74 
C 125.254844 124.74 125.254844 124.74 125.254844 124.74 
z
" clip-path="url(#p1741033556)" style="fill: #828282"/>
   </g>
   <g id="patch_107">
    <path d="M 125.254844 124.74 
C 125.254844 124.74 125.254844 124.74 125.254844 124.74 
C 125.254844 124.74 125.254844 124.74 125.254844 124.74 
L 125.254844 124.74 
C 125.254844 124.74 125.254844 124.74 125.254844 124.74 
C 125.254844 124.74 125.254844 124.74 125.254844 124.74 
z
" clip-path="url(#p1741033556)" style="fill: #828282"/>
   </g>
   <g id="patch_108">
    <path d="M 125.254844 124.74 
C 125.254844 124.74 125.254844 124.74 125.254844 124.74 
C 125.254844 124.74 125.254844 124.74 125.254844 124.74 
L 125.254844 124.74 
C 125.254844 124.74 125.254844 124.74 125.254844 124.74 
C 125.254844 124.74 125.254844 124.74 125.254844 124.74 
z
" clip-path="url(#p1741033556)" style="fill: #828282"/>
   </g>
   <g id="patch_109">
    <path d="M 125.254844 124.74 
C 125.254844 124.74 125.254844 124.74 125.254844 124.74 
C 125.254844 124.74 125.254844 124.74 125.254844 124.74 
L 125.254844 124.74 
C 125.254844 124.74 125.254844 124.74 125.254844 124.74 
C 125.254844 124.74 125.254844 124.74 125.254844 124.74 
z
" clip-path="url(#p1741033556)" style="fill: #828282"/>
   </g>
   <g id="patch_110">
    <path d="M 125.254844 124.74 
C 125.254844 124.74 125.254844 124.74 125.254844 124.74 
C 125.254844 124.74 125.254844 124.74 125.254844 124.74 
L 125.254844 124.74 
C 125.254844 124.74 125.254844 124.74 125.254844 124.74 
C 125.254844 124.74 125.254844 124.74 125.254844 124.74 
z
" clip-path="url(#p1741033556)" style="fill: #828282"/>
   </g>
   <g id="patch_111">
    <path d="M 125.254844 124.74 
C 125.254844 124.74 125.254844 124.74 125.254844 124.74 
C 125.254844 124.74 125.254844 124.74 125.254844 124.74 
L 125.254844 124.74 
C 125.254844 124.74 125.254844 124.74 125.254844 124.74 
C 125.254844 124.74 125.254844 124.74 125.254844 124.74 
z
" clip-path="url(#p1741033556)" style="fill: #828282"/>
   </g>
   <g id="patch_112">
    <path d="M 125.254844 124.74 
C 125.254844 124.74 125.254844 124.74 125.254844 124.74 
C 125.254844 124.74 125.254844 124.74 125.254844 124.74 
L 125.254844 124.74 
C 125.254844 124.74 125.254844 124.74 125.254844 124.74 
C 125.254844 124.74 125.254844 124.74 125.254844 124.74 
z
" clip-path="url(#p1741033556)" style="fill: #828282"/>
   </g>
   <g id="patch_113">
    <path d="M 128.762874 131.303062 
C 128.548055 131.417886 128.327728 131.522092 128.102689 131.615307 
C 127.87765 131.708521 127.64817 131.79063 127.415078 131.861338 
L 127.415078 131.861338 
C 127.64817 131.79063 127.87765 131.708521 128.102689 131.615307 
C 128.327728 131.522092 128.548055 131.417886 128.762874 131.303062 
z
" clip-path="url(#p1741033556)" style="fill: #828282"/>
   </g>
   <g id="patch_114">
    <path d="M 125.254844 124.74 
C 125.254844 124.74 125.254844 124.74 125.254844 124.74 
C 125.254844 124.74 125.254844 124.74 125.254844 124.74 
L 125.254844 124.74 
C 125.254844 124.74 125.254844 124.74 125.254844 124.74 
C 125.254844 124.74 125.254844 124.74 125.254844 124.74 
z
" clip-path="url(#p1741033556)" style="fill: #828282"/>
   </g>
   <g id="patch_115">
    <path d="M 127.674062 149.302738 
C 126.870087 149.381922 126.062709 149.421586 125.254844 149.421586 
C 124.446979 149.421586 123.6396 149.381922 122.835625 149.302738 
L 122.835625 149.302738 
C 123.6396 149.381922 124.446979 149.421586 125.254844 149.421586 
C 126.062709 149.421586 126.870087 149.381922 127.674062 149.302738 
z
" clip-path="url(#p1741033556)" style="fill: #828282"/>
   </g>
   <g id="patch_116">
    <path d="M 122.477288 152.940995 
C 121.554227 152.850082 120.636187 152.713903 119.726482 152.532952 
C 118.816777 152.352 117.916505 152.126494 117.028917 151.857247 
L 117.028917 151.857247 
C 117.916505 152.126494 118.816777 152.352 119.726482 152.532952 
C 120.636187 152.713903 121.554227 152.850082 122.477288 152.940995 
z
" clip-path="url(#p1741033556)" style="fill: #828282"/>
   </g>
   <g id="patch_117">
    <path d="M 112.15912 167.910816 
C 110.746075 167.482173 109.354926 166.984413 107.990699 166.419331 
C 106.626473 165.85425 105.290812 165.22253 103.988542 164.526452 
L 103.988542 164.526452 
C 105.290812 165.22253 106.626473 165.85425 107.990699 166.419331 
C 109.354926 166.984413 110.746075 167.482173 112.15912 167.910816 
z
" clip-path="url(#p1741033556)" style="fill: #828282"/>
   </g>
   <g id="patch_118">
    <path d="M 107.345844 158.245383 
C 106.249162 157.659194 105.181922 157.019515 104.147979 156.328656 
C 103.114035 155.637797 102.114633 154.89659 101.153384 154.107713 
L 97.175721 158.95451 
C 98.295613 159.873581 99.459954 160.737115 100.664538 161.541993 
C 101.869123 162.34687 103.112498 163.092121 104.390174 163.775052 
z
" clip-path="url(#p1741033556)" style="fill: #828282"/>
   </g>
   <g id="patch_119">
    <path d="M 85.791288 172.826481 
C 84.217346 171.53478 82.707771 170.166581 81.268017 168.726827 
C 79.828262 167.287072 78.460064 165.777498 77.168363 164.203555 
L 77.168363 164.203555 
C 78.460064 165.777498 79.828262 167.287072 81.268017 168.726827 
C 82.707771 170.166581 84.217346 171.53478 85.791288 172.826481 
z
" clip-path="url(#p1741033556)" style="fill: #828282"/>
   </g>
   <g id="patch_120">
    <path d="M 80.050458 161.83828 
C 78.836176 160.358673 77.695271 158.82034 76.631862 157.228837 
C 75.568454 155.637335 74.583826 153.994581 73.681533 152.306509 
L 64.701922 157.106211 
C 65.761317 159.088198 66.917383 161.016978 68.165945 162.885583 
C 69.414507 164.754188 70.754059 166.560365 72.179764 168.297592 
z
" clip-path="url(#p1741033556)" style="fill: #828282"/>
   </g>
   <g id="patch_121">
    <path d="M 87.056355 145.157518 
C 86.388059 143.907224 85.781552 142.624873 85.239024 141.315095 
C 84.696497 140.005318 84.218602 138.669693 83.807068 137.313045 
L 83.807068 137.313045 
C 84.218602 138.669693 84.696497 140.005318 85.239024 141.315095 
C 85.781552 142.624873 86.388059 143.907224 87.056355 145.157518 
z
" clip-path="url(#p1741033556)" style="fill: #828282"/>
   </g>
   <g id="patch_122">
    <path d="M 80.321234 138.370462 
C 79.875088 136.899717 79.501421 135.407955 79.201583 133.900563 
C 78.901744 132.393171 78.676094 130.871966 78.525449 129.342444 
L 76.761459 129.516181 
C 76.917791 131.103442 77.151958 132.682071 77.463116 134.246366 
C 77.774274 135.81066 78.162046 137.358735 78.625033 138.884998 
z
" clip-path="url(#p1741033556)" style="fill: #828282"/>
   </g>
   <g id="patch_123">
    <path d="M 56.077617 131.553362 
C 55.854606 129.289088 55.742898 127.01523 55.742898 124.74 
C 55.742898 122.46477 55.854606 120.190912 56.077617 117.926638 
L 30.974384 115.454185 
C 30.670446 118.540125 30.518201 121.639128 30.518201 124.74 
C 30.518201 127.840872 30.670446 130.939875 30.974384 134.025815 
z
" clip-path="url(#p1741033556)" style="fill: #828282"/>
   </g>
   <g id="patch_124">
    <path d="M 32.865879 115.640481 
C 33.16372 112.616452 33.609853 109.60887 34.202666 106.628596 
C 34.795479 103.648322 35.534259 100.69895 36.416335 97.791133 
L 21.566603 93.286516 
C 20.537083 96.680387 19.674814 100.122759 18.982909 103.601198 
C 18.291005 107.079637 17.770299 110.58995 17.422673 114.119458 
z
" clip-path="url(#p1741033556)" style="fill: #828282"/>
   </g>
   <g id="patch_125">
    <path d="M 65.940043 106.747052 
C 66.528979 104.80559 67.212881 102.894213 67.989278 101.019826 
C 68.765674 99.145438 69.63363 97.3103 70.590011 95.521038 
L 34.166489 76.05226 
C 32.572867 79.033718 31.126586 82.091621 29.832871 85.214925 
C 28.539157 88.338229 27.399567 91.523167 26.418219 94.758238 
z
" clip-path="url(#p1741033556)" style="fill: #828282"/>
   </g>
   <g id="patch_126">
    <path d="M 79.784614 100.435656 
C 80.580131 98.947347 81.448241 97.498993 82.385807 96.095826 
C 83.323374 94.692658 84.329267 93.336368 85.399854 92.031855 
L 40.343487 55.05505 
C 38.062594 57.834326 35.919531 60.723912 33.922039 63.713371 
C 31.924546 66.70283 30.075031 69.788558 28.380175 72.959411 
z
" clip-path="url(#p1741033556)" style="fill: #828282"/>
   </g>
   <g id="patch_127">
    <path d="M 83.548694 90.512647 
C 84.669006 89.147543 85.855666 87.838265 87.104387 86.589544 
C 88.353109 85.340822 89.662386 84.154162 91.027491 83.03385 
L 66.395799 53.020047 
C 64.048298 54.946591 61.7968 56.98723 59.649437 59.134593 
C 57.502074 61.281956 55.461435 63.533454 53.53489 65.880955 
z
" clip-path="url(#p1741033556)" style="fill: #828282"/>
   </g>
   <g id="patch_128">
    <path d="M 73.310278 61.445363 
C 75.382006 59.74514 77.535961 58.147657 79.764364 56.658686 
C 81.992767 55.169715 84.292932 53.791049 86.656549 52.52767 
L 75.088788 30.885912 
C 72.016804 32.527921 69.027289 34.319768 66.131042 36.254978 
C 63.234795 38.190188 60.435308 40.26643 57.742691 42.476203 
z
" clip-path="url(#p1741033556)" style="fill: #828282"/>
   </g>
   <g id="patch_129">
    <path d="M 81.465902 42.816653 
C 84.147376 41.383376 86.897603 40.082615 89.70665 38.919069 
C 92.515698 37.755524 95.380179 36.730596 98.289747 35.847988 
L 93.068079 18.634458 
C 89.595087 19.687979 86.175912 20.911379 82.822906 22.30024 
C 79.469899 23.6891 76.187103 25.241747 72.986375 26.952572 
z
" clip-path="url(#p1741033556)" style="fill: #828282"/>
   </g>
   <g id="patch_130">
    <path d="M 108.811857 70.534737 
C 110.586076 69.996533 112.38565 69.545764 114.204079 69.184056 
C 116.022508 68.822348 117.8576 68.550137 119.702727 68.368408 
L 116.473335 35.579847 
C 113.55499 35.867279 110.652516 36.29782 107.776397 36.869916 
C 104.900278 37.442012 102.053981 38.154972 99.247786 39.006222 
z
" clip-path="url(#p1741033556)" style="fill: #828282"/>
   </g>
   <g id="patch_131">
    <path d="M 125.254844 124.74 
C 125.254844 124.74 125.254844 124.74 125.254844 124.74 
C 125.254844 124.74 125.254844 124.74 125.254844 124.74 
L 130.406184 72.437569 
C 128.694247 72.268958 126.975064 72.1845 125.254844 72.1845 
C 123.534624 72.1845 121.815441 72.268958 120.103504 72.437569 
L 125.254844 124.74 
z
" clip-path="url(#p1741033556)" style="fill: none; stroke: #292929; stroke-width: 0.5; stroke-linejoin: miter"/>
   </g>
   <g id="patch_132">
    <path d="M 125.254844 124.74 
C 125.254844 124.74 125.254844 124.74 125.254844 124.74 
C 125.254844 124.74 125.254844 124.74 125.254844 124.74 
L 141.438588 71.389346 
C 139.692341 70.859628 137.921139 70.415965 136.13138 70.059959 
C 134.341621 69.703954 132.535461 69.436036 130.719425 69.257172 
L 125.254844 124.74 
z
" clip-path="url(#p1741033556)" style="fill: none; stroke: #292929; stroke-width: 0.5; stroke-linejoin: miter"/>
   </g>
   <g id="patch_133">
    <path d="M 125.254844 124.74 
C 125.254844 124.74 125.254844 124.74 125.254844 124.74 
C 125.254844 124.74 125.254844 124.74 125.254844 124.74 
L 132.160408 111.820599 
C 131.737536 111.594569 131.303822 111.389438 130.860833 111.205946 
C 130.417843 111.022453 129.966111 110.860821 129.507269 110.721633 
L 125.254844 124.74 
z
" clip-path="url(#p1741033556)" style="fill: none; stroke: #292929; stroke-width: 0.5; stroke-linejoin: miter"/>
   </g>
   <g id="patch_134">
    <path d="M 125.254844 124.74 
C 125.254844 124.74 125.254844 124.74 125.254844 124.74 
C 125.254844 124.74 125.254844 124.74 125.254844 124.74 
L 142.997945 103.119969 
C 142.290289 102.539211 141.554546 101.993547 140.793373 101.484947 
C 140.032201 100.976348 139.246516 100.505427 138.439157 100.073885 
L 125.254844 124.74 
z
" clip-path="url(#p1741033556)" style="fill: none; stroke: #292929; stroke-width: 0.5; stroke-linejoin: miter"/>
   </g>
   <g id="patch_135">
    <path d="M 125.254844 124.74 
C 125.254844 124.74 125.254844 124.74 125.254844 124.74 
C 125.254844 124.74 125.254844 124.74 125.254844 124.74 
L 134.902201 116.822619 
C 134.643053 116.506846 134.368558 116.203988 134.079707 115.915137 
C 133.790856 115.626286 133.487998 115.351791 133.172225 115.092643 
L 125.254844 124.74 
z
" clip-path="url(#p1741033556)" style="fill: none; stroke: #292929; stroke-width: 0.5; stroke-linejoin: miter"/>
   </g>
   <g id="patch_136">
    <path d="M 125.254844 124.74 
C 125.254844 124.74 125.254844 124.74 125.254844 124.74 
C 125.254844 124.74 125.254844 124.74 125.254844 124.74 
L 138.278017 117.778969 
C 138.050172 117.352701 137.801536 116.937876 137.533007 116.535994 
C 137.264477 116.134111 136.976379 115.745655 136.669751 115.372028 
L 125.254844 124.74 
z
" clip-path="url(#p1741033556)" style="fill: none; stroke: #292929; stroke-width: 0.5; stroke-linejoin: miter"/>
   </g>
   <g id="patch_137">
    <path d="M 125.254844 124.74 
C 125.254844 124.74 125.254844 124.74 125.254844 124.74 
C 125.254844 124.74 125.254844 124.74 125.254844 124.74 
L 125.254844 124.74 
C 125.254844 124.74 125.254844 124.74 125.254844 124.74 
C 125.254844 124.74 125.254844 124.74 125.254844 124.74 
L 125.254844 124.74 
z
" clip-path="url(#p1741033556)" style="fill: none; stroke: #292929; stroke-width: 0.5; stroke-linejoin: miter"/>
   </g>
   <g id="patch_138">
    <path d="M 125.254844 124.74 
C 125.254844 124.74 125.254844 124.74 125.254844 124.74 
C 125.254844 124.74 125.254844 124.74 125.254844 124.74 
L 125.254844 124.74 
C 125.254844 124.74 125.254844 124.74 125.254844 124.74 
C 125.254844 124.74 125.254844 124.74 125.254844 124.74 
L 125.254844 124.74 
z
" clip-path="url(#p1741033556)" style="fill: none; stroke: #292929; stroke-width: 0.5; stroke-linejoin: miter"/>
   </g>
   <g id="patch_139">
    <path d="M 125.254844 124.74 
C 125.254844 124.74 125.254844 124.74 125.254844 124.74 
C 125.254844 124.74 125.254844 124.74 125.254844 124.74 
L 125.254844 124.74 
C 125.254844 124.74 125.254844 124.74 125.254844 124.74 
C 125.254844 124.74 125.254844 124.74 125.254844 124.74 
L 125.254844 124.74 
z
" clip-path="url(#p1741033556)" style="fill: none; stroke: #292929; stroke-width: 0.5; stroke-linejoin: miter"/>
   </g>
   <g id="patch_140">
    <path d="M 125.254844 124.74 
C 125.254844 124.74 125.254844 124.74 125.254844 124.74 
C 125.254844 124.74 125.254844 124.74 125.254844 124.74 
L 125.254844 124.74 
C 125.254844 124.74 125.254844 124.74 125.254844 124.74 
C 125.254844 124.74 125.254844 124.74 125.254844 124.74 
L 125.254844 124.74 
z
" clip-path="url(#p1741033556)" style="fill: none; stroke: #292929; stroke-width: 0.5; stroke-linejoin: miter"/>
   </g>
   <g id="patch_141">
    <path d="M 125.254844 124.74 
C 125.254844 124.74 125.254844 124.74 125.254844 124.74 
C 125.254844 124.74 125.254844 124.74 125.254844 124.74 
L 125.254844 124.74 
C 125.254844 124.74 125.254844 124.74 125.254844 124.74 
C 125.254844 124.74 125.254844 124.74 125.254844 124.74 
L 125.254844 124.74 
z
" clip-path="url(#p1741033556)" style="fill: none; stroke: #292929; stroke-width: 0.5; stroke-linejoin: miter"/>
   </g>
   <g id="patch_142">
    <path d="M 125.254844 124.74 
C 125.254844 124.74 125.254844 124.74 125.254844 124.74 
C 125.254844 124.74 125.254844 124.74 125.254844 124.74 
L 125.254844 124.74 
C 125.254844 124.74 125.254844 124.74 125.254844 124.74 
C 125.254844 124.74 125.254844 124.74 125.254844 124.74 
L 125.254844 124.74 
z
" clip-path="url(#p1741033556)" style="fill: none; stroke: #292929; stroke-width: 0.5; stroke-linejoin: miter"/>
   </g>
   <g id="patch_143">
    <path d="M 125.254844 124.74 
C 125.254844 124.74 125.254844 124.74 125.254844 124.74 
C 125.254844 124.74 125.254844 124.74 125.254844 124.74 
L 125.254844 124.74 
C 125.254844 124.74 125.254844 124.74 125.254844 124.74 
C 125.254844 124.74 125.254844 124.74 125.254844 124.74 
L 125.254844 124.74 
z
" clip-path="url(#p1741033556)" style="fill: none; stroke: #292929; stroke-width: 0.5; stroke-linejoin: miter"/>
   </g>
   <g id="patch_144">
    <path d="M 125.254844 124.74 
C 125.254844 124.74 125.254844 124.74 125.254844 124.74 
C 125.254844 124.74 125.254844 124.74 125.254844 124.74 
L 125.254844 124.74 
C 125.254844 124.74 125.254844 124.74 125.254844 124.74 
C 125.254844 124.74 125.254844 124.74 125.254844 124.74 
L 125.254844 124.74 
z
" clip-path="url(#p1741033556)" style="fill: none; stroke: #292929; stroke-width: 0.5; stroke-linejoin: miter"/>
   </g>
   <g id="patch_145">
    <path d="M 125.254844 124.74 
C 125.254844 124.74 125.254844 124.74 125.254844 124.74 
C 125.254844 124.74 125.254844 124.74 125.254844 124.74 
L 127.415078 131.861338 
C 127.64817 131.79063 127.87765 131.708521 128.102689 131.615307 
C 128.327728 131.522092 128.548055 131.417886 128.762874 131.303062 
L 125.254844 124.74 
z
" clip-path="url(#p1741033556)" style="fill: none; stroke: #292929; stroke-width: 0.5; stroke-linejoin: miter"/>
   </g>
   <g id="patch_146">
    <path d="M 125.254844 124.74 
C 125.254844 124.74 125.254844 124.74 125.254844 124.74 
C 125.254844 124.74 125.254844 124.74 125.254844 124.74 
L 125.254844 124.74 
C 125.254844 124.74 125.254844 124.74 125.254844 124.74 
C 125.254844 124.74 125.254844 124.74 125.254844 124.74 
L 125.254844 124.74 
z
" clip-path="url(#p1741033556)" style="fill: none; stroke: #292929; stroke-width: 0.5; stroke-linejoin: miter"/>
   </g>
   <g id="patch_147">
    <path d="M 125.254844 124.74 
C 125.254844 124.74 125.254844 124.74 125.254844 124.74 
C 125.254844 124.74 125.254844 124.74 125.254844 124.74 
L 122.835625 149.302738 
C 123.6396 149.381922 124.446979 149.421586 125.254844 149.421586 
C 126.062709 149.421586 126.870087 149.381922 127.674062 149.302738 
L 125.254844 124.74 
z
" clip-path="url(#p1741033556)" style="fill: none; stroke: #292929; stroke-width: 0.5; stroke-linejoin: miter"/>
   </g>
   <g id="patch_148">
    <path d="M 125.254844 124.74 
C 125.254844 124.74 125.254844 124.74 125.254844 124.74 
C 125.254844 124.74 125.254844 124.74 125.254844 124.74 
L 117.028917 151.857247 
C 117.916505 152.126494 118.816777 152.352 119.726482 152.532952 
C 120.636187 152.713903 121.554227 152.850082 122.477288 152.940995 
L 125.254844 124.74 
z
" clip-path="url(#p1741033556)" style="fill: none; stroke: #292929; stroke-width: 0.5; stroke-linejoin: miter"/>
   </g>
   <g id="patch_149">
    <path d="M 125.254844 124.74 
C 125.254844 124.74 125.254844 124.74 125.254844 124.74 
C 125.254844 124.74 125.254844 124.74 125.254844 124.74 
L 103.988542 164.526452 
C 105.290812 165.22253 106.626473 165.85425 107.990699 166.419331 
C 109.354926 166.984413 110.746075 167.482173 112.15912 167.910816 
L 125.254844 124.74 
z
" clip-path="url(#p1741033556)" style="fill: none; stroke: #292929; stroke-width: 0.5; stroke-linejoin: miter"/>
   </g>
   <g id="patch_150">
    <path d="M 125.254844 124.74 
C 125.254844 124.74 125.254844 124.74 125.254844 124.74 
C 125.254844 124.74 125.254844 124.74 125.254844 124.74 
L 97.175721 158.95451 
C 98.295613 159.873581 99.459954 160.737115 100.664538 161.541993 
C 101.869123 162.34687 103.112498 163.092121 104.390174 163.775052 
L 125.254844 124.74 
z
" clip-path="url(#p1741033556)" style="fill: none; stroke: #292929; stroke-width: 0.5; stroke-linejoin: miter"/>
   </g>
   <g id="patch_151">
    <path d="M 125.254844 124.74 
C 125.254844 124.74 125.254844 124.74 125.254844 124.74 
C 125.254844 124.74 125.254844 124.74 125.254844 124.74 
L 77.168363 164.203555 
C 78.460064 165.777498 79.828262 167.287072 81.268017 168.726827 
C 82.707771 170.166581 84.217346 171.53478 85.791288 172.826481 
L 125.254844 124.74 
z
" clip-path="url(#p1741033556)" style="fill: none; stroke: #292929; stroke-width: 0.5; stroke-linejoin: miter"/>
   </g>
   <g id="patch_152">
    <path d="M 125.254844 124.74 
C 125.254844 124.74 125.254844 124.74 125.254844 124.74 
C 125.254844 124.74 125.254844 124.74 125.254844 124.74 
L 64.701922 157.106211 
C 65.761317 159.088198 66.917383 161.016978 68.165945 162.885583 
C 69.414507 164.754188 70.754059 166.560365 72.179764 168.297592 
L 125.254844 124.74 
z
" clip-path="url(#p1741033556)" style="fill: none; stroke: #292929; stroke-width: 0.5; stroke-linejoin: miter"/>
   </g>
   <g id="patch_153">
    <path d="M 125.254844 124.74 
C 125.254844 124.74 125.254844 124.74 125.254844 124.74 
C 125.254844 124.74 125.254844 124.74 125.254844 124.74 
L 83.807068 137.313045 
C 84.218602 138.669693 84.696497 140.005318 85.239024 141.315095 
C 85.781552 142.624873 86.388059 143.907224 87.056355 145.157518 
L 125.254844 124.74 
z
" clip-path="url(#p1741033556)" style="fill: none; stroke: #292929; stroke-width: 0.5; stroke-linejoin: miter"/>
   </g>
   <g id="patch_154">
    <path d="M 125.254844 124.74 
C 125.254844 124.74 125.254844 124.74 125.254844 124.74 
C 125.254844 124.74 125.254844 124.74 125.254844 124.74 
L 76.761459 129.516181 
C 76.917791 131.103442 77.151958 132.682071 77.463116 134.246366 
C 77.774274 135.81066 78.162046 137.358735 78.625033 138.884998 
L 125.254844 124.74 
z
" clip-path="url(#p1741033556)" style="fill: none; stroke: #292929; stroke-width: 0.5; stroke-linejoin: miter"/>
   </g>
   <g id="patch_155">
    <path d="M 125.254844 124.74 
C 125.254844 124.74 125.254844 124.74 125.254844 124.74 
C 125.254844 124.74 125.254844 124.74 125.254844 124.74 
L 30.974384 115.454185 
C 30.670446 118.540125 30.518201 121.639128 30.518201 124.74 
C 30.518201 127.840872 30.670446 130.939875 30.974384 134.025815 
L 125.254844 124.74 
z
" clip-path="url(#p1741033556)" style="fill: none; stroke: #292929; stroke-width: 0.5; stroke-linejoin: miter"/>
   </g>
   <g id="patch_156">
    <path d="M 125.254844 124.74 
C 125.254844 124.74 125.254844 124.74 125.254844 124.74 
C 125.254844 124.74 125.254844 124.74 125.254844 124.74 
L 21.566603 93.286516 
C 20.537083 96.680387 19.674814 100.122759 18.982909 103.601198 
C 18.291005 107.079637 17.770299 110.58995 17.422673 114.119458 
L 125.254844 124.74 
z
" clip-path="url(#p1741033556)" style="fill: none; stroke: #292929; stroke-width: 0.5; stroke-linejoin: miter"/>
   </g>
   <g id="patch_157">
    <path d="M 125.254844 124.74 
C 125.254844 124.74 125.254844 124.74 125.254844 124.74 
C 125.254844 124.74 125.254844 124.74 125.254844 124.74 
L 34.166489 76.05226 
C 32.572867 79.033718 31.126586 82.091621 29.832871 85.214925 
C 28.539157 88.338229 27.399567 91.523167 26.418219 94.758238 
L 125.254844 124.74 
z
" clip-path="url(#p1741033556)" style="fill: none; stroke: #292929; stroke-width: 0.5; stroke-linejoin: miter"/>
   </g>
   <g id="patch_158">
    <path d="M 125.254844 124.74 
C 125.254844 124.74 125.254844 124.74 125.254844 124.74 
C 125.254844 124.74 125.254844 124.74 125.254844 124.74 
L 40.343487 55.05505 
C 38.062594 57.834326 35.919531 60.723912 33.922039 63.713371 
C 31.924546 66.70283 30.075031 69.788558 28.380175 72.959411 
L 125.254844 124.74 
z
" clip-path="url(#p1741033556)" style="fill: none; stroke: #292929; stroke-width: 0.5; stroke-linejoin: miter"/>
   </g>
   <g id="patch_159">
    <path d="M 125.254844 124.74 
C 125.254844 124.74 125.254844 124.74 125.254844 124.74 
C 125.254844 124.74 125.254844 124.74 125.254844 124.74 
L 66.395799 53.020047 
C 64.048298 54.946591 61.7968 56.98723 59.649437 59.134593 
C 57.502074 61.281956 55.461435 63.533454 53.53489 65.880955 
L 125.254844 124.74 
z
" clip-path="url(#p1741033556)" style="fill: none; stroke: #292929; stroke-width: 0.5; stroke-linejoin: miter"/>
   </g>
   <g id="patch_160">
    <path d="M 125.254844 124.74 
C 125.254844 124.74 125.254844 124.74 125.254844 124.74 
C 125.254844 124.74 125.254844 124.74 125.254844 124.74 
L 75.088788 30.885912 
C 72.016804 32.527921 69.027289 34.319768 66.131042 36.254978 
C 63.234795 38.190188 60.435308 40.26643 57.742691 42.476203 
L 125.254844 124.74 
z
" clip-path="url(#p1741033556)" style="fill: none; stroke: #292929; stroke-width: 0.5; stroke-linejoin: miter"/>
   </g>
   <g id="patch_161">
    <path d="M 125.254844 124.74 
C 125.254844 124.74 125.254844 124.74 125.254844 124.74 
C 125.254844 124.74 125.254844 124.74 125.254844 124.74 
L 93.068079 18.634458 
C 89.595087 19.687979 86.175912 20.911379 82.822906 22.30024 
C 79.469899 23.6891 76.187103 25.241747 72.986375 26.952572 
L 125.254844 124.74 
z
" clip-path="url(#p1741033556)" style="fill: none; stroke: #292929; stroke-width: 0.5; stroke-linejoin: miter"/>
   </g>
   <g id="patch_162">
    <path d="M 125.254844 124.74 
C 125.254844 124.74 125.254844 124.74 125.254844 124.74 
C 125.254844 124.74 125.254844 124.74 125.254844 124.74 
L 116.473335 35.579847 
C 113.55499 35.867279 110.652516 36.29782 107.776397 36.869916 
C 104.900278 37.442012 102.053981 38.154972 99.247786 39.006222 
L 125.254844 124.74 
z
" clip-path="url(#p1741033556)" style="fill: none; stroke: #292929; stroke-width: 0.5; stroke-linejoin: miter"/>
   </g>
   <g id="PathCollection_1">
    <defs>
     <path id="mf9b9ef903a" d="M 0.193618 7.414054 
L 0.193618 7.414054 
C 0.054922 7.414054 -0.078235 7.358899 -0.176308 7.260826 
C -0.274381 7.162753 -0.329536 7.029596 -0.329536 6.890901 
L -0.329536 5.365008 
L -1.528416 6.56393 
L -1.528416 6.56393 
C -1.577018 6.612704 -1.634775 6.651408 -1.698366 6.677814 
C -1.761958 6.704221 -1.830141 6.717815 -1.898997 6.717815 
C -1.967853 6.717815 -2.036037 6.704221 -2.099628 6.677814 
C -2.163219 6.651408 -2.220976 6.612704 -2.269578 6.56393 
L -2.269578 6.56393 
C -2.318353 6.515327 -2.357056 6.457571 -2.383463 6.393979 
C -2.409869 6.330388 -2.423463 6.262205 -2.423463 6.193348 
C -2.423463 6.124492 -2.409869 6.056309 -2.383463 5.992718 
C -2.357056 5.929126 -2.318353 5.87137 -2.269578 5.822767 
L -0.329536 3.884106 
L -0.329536 0.820937 
L -2.98067 2.351538 
L -3.691824 5.001416 
L -3.691824 5.001416 
C -3.727584 5.135411 -3.815199 5.249836 -3.93523 5.319305 
C -4.055261 5.388775 -4.198123 5.407741 -4.332122 5.371997 
L -4.332122 5.371997 
C -4.466126 5.336237 -4.580558 5.248616 -4.650029 5.128576 
C -4.719499 5.008535 -4.73846 4.865662 -4.702703 4.731657 
L -4.262647 3.092721 
L -5.585535 3.855668 
L -5.585535 3.855668 
C -5.645013 3.890144 -5.710708 3.912561 -5.778854 3.921634 
C -5.847001 3.930706 -5.916272 3.926258 -5.982698 3.908543 
C -6.049125 3.890828 -6.111412 3.860192 -6.165991 3.818391 
C -6.220571 3.77659 -6.266379 3.724437 -6.300791 3.664922 
L -6.300791 3.664922 
C -6.335212 3.605364 -6.35755 3.539597 -6.366524 3.471396 
C -6.375498 3.403194 -6.370933 3.333888 -6.35309 3.267452 
C -6.335248 3.201017 -6.304476 3.138749 -6.26254 3.08422 
C -6.220605 3.029692 -6.168323 2.983966 -6.108695 2.949666 
L -4.785807 2.186762 
L -6.424743 1.746706 
L -6.424743 1.746706 
C -6.558747 1.710946 -6.673179 1.623325 -6.74265 1.503284 
C -6.81212 1.383244 -6.831081 1.240371 -6.795324 1.106366 
L -6.795324 1.106366 
C -6.777471 1.039969 -6.746703 0.977739 -6.704784 0.923241 
C -6.662864 0.868744 -6.61061 0.823041 -6.551015 0.788752 
C -6.491421 0.754464 -6.425647 0.732257 -6.357465 0.723406 
C -6.289282 0.714554 -6.220019 0.71923 -6.153645 0.737166 
L -3.505232 1.44698 
L -0.852424 -0.08496 
L -3.503767 -1.615666 
L -6.153645 -0.905851 
L -6.153645 -0.905851 
C -6.22011 -0.887939 -6.289462 -0.883321 -6.357716 -0.892262 
C -6.42597 -0.901202 -6.491793 -0.923527 -6.551403 -0.957953 
C -6.611013 -0.992379 -6.663247 -1.038234 -6.705103 -1.092883 
C -6.746958 -1.147533 -6.777619 -1.209911 -6.795324 -1.276432 
L -6.795324 -1.276432 
C -6.831068 -1.410431 -6.812101 -1.553293 -6.742632 -1.673324 
C -6.673162 -1.793355 -6.558738 -1.88097 -6.424743 -1.91673 
L -4.785807 -2.355447 
L -6.108695 -3.119732 
L -6.108695 -3.119732 
C -6.228699 -3.188976 -6.316415 -3.303132 -6.352417 -3.436921 
C -6.388419 -3.57071 -6.369839 -3.713469 -6.300791 -3.833586 
L -6.300791 -3.833586 
C -6.266491 -3.893214 -6.220765 -3.945496 -6.166237 -3.987431 
C -6.111708 -4.029367 -6.04944 -4.060139 -5.983005 -4.077981 
C -5.91657 -4.095823 -5.847263 -4.100389 -5.779062 -4.091415 
C -5.71086 -4.082441 -5.645094 -4.060102 -5.585535 -4.025682 
L -4.262647 -3.261396 
L -4.702703 -4.900332 
L -4.702703 -4.900332 
C -4.73846 -5.034337 -4.719499 -5.17721 -4.650029 -5.29725 
C -4.580558 -5.417291 -4.466126 -5.504912 -4.332122 -5.540672 
L -4.332122 -5.540672 
C -4.19831 -5.576464 -4.055613 -5.557686 -3.935617 -5.488496 
C -3.81562 -5.419305 -3.727882 -5.305212 -3.691824 -5.171472 
L -2.982009 -2.521594 
L -0.329411 -0.990302 
L -0.329411 -4.051588 
L -2.269453 -5.991589 
L -2.269453 -5.991589 
C -2.318227 -6.040191 -2.356931 -6.097947 -2.383337 -6.161539 
C -2.409744 -6.22513 -2.423338 -6.293314 -2.423338 -6.36217 
C -2.423338 -6.431026 -2.409744 -6.499209 -2.383337 -6.5628 
C -2.356931 -6.626392 -2.318227 -6.684149 -2.269453 -6.732751 
L -2.269453 -6.732751 
C -2.22085 -6.781526 -2.163094 -6.820229 -2.099502 -6.846635 
C -2.035911 -6.873042 -1.967728 -6.886636 -1.898871 -6.886636 
C -1.830015 -6.886636 -1.761832 -6.873042 -1.698241 -6.846635 
C -1.634649 -6.820229 -1.576893 -6.781526 -1.52829 -6.732751 
L -0.329411 -5.533829 
L -0.329411 -7.059722 
L -0.329411 -7.059722 
C -0.329411 -7.198418 -0.274255 -7.331575 -0.176182 -7.429647 
C -0.07811 -7.52772 0.055047 -7.582875 0.193743 -7.582875 
L 0.193743 -7.582875 
C 0.332439 -7.582875 0.465596 -7.52772 0.563669 -7.429647 
C 0.661741 -7.331575 0.716897 -7.198418 0.716897 -7.059722 
L 0.716897 -5.533829 
L 1.915777 -6.732751 
L 1.915777 -6.732751 
C 1.964379 -6.781526 2.022136 -6.820229 2.085727 -6.846635 
C 2.149318 -6.873042 2.217502 -6.886636 2.286358 -6.886636 
C 2.355214 -6.886636 2.423397 -6.873042 2.486989 -6.846635 
C 2.55058 -6.820229 2.608337 -6.781526 2.656939 -6.732751 
L 2.656939 -6.732751 
C 2.705714 -6.684149 2.744417 -6.626392 2.770823 -6.5628 
C 2.79723 -6.499209 2.810824 -6.431026 2.810824 -6.36217 
C 2.810824 -6.293314 2.79723 -6.22513 2.770823 -6.161539 
C 2.744417 -6.097947 2.705714 -6.040191 2.656939 -5.991589 
L 0.716897 -4.051588 
L 0.716897 -0.991139 
L 3.369495 -2.522954 
L 4.07931 -5.171367 
L 4.07931 -5.171367 
C 4.115368 -5.305107 4.203106 -5.4192 4.323103 -5.488391 
C 4.4431 -5.557582 4.585797 -5.576359 4.719608 -5.540567 
L 4.719608 -5.540567 
C 4.853612 -5.504807 4.968045 -5.417186 5.037515 -5.297146 
C 5.106986 -5.177105 5.125946 -5.034232 5.090189 -4.900227 
L 4.650133 -3.262673 
L 5.973022 -4.025577 
L 5.973022 -4.025577 
C 6.03258 -4.059998 6.098346 -4.082336 6.166548 -4.09131 
C 6.234749 -4.100284 6.304056 -4.095719 6.370491 -4.077876 
C 6.436926 -4.060034 6.499194 -4.029262 6.553723 -3.987327 
C 6.608252 -3.945391 6.653978 -3.893109 6.688277 -3.833481 
L 6.688277 -3.833481 
C 6.757325 -3.713365 6.775905 -3.570605 6.739903 -3.436816 
C 6.703901 -3.303027 6.616186 -3.188871 6.496181 -3.119628 
L 5.173293 -2.355342 
L 6.812229 -1.916625 
L 6.812229 -1.916625 
C 6.946224 -1.880865 7.060649 -1.79325 7.130118 -1.67322 
C 7.199588 -1.553189 7.218554 -1.410326 7.18281 -1.276327 
L 7.18281 -1.276327 
C 7.165106 -1.209806 7.134445 -1.147429 7.092589 -1.092779 
C 7.050733 -1.038129 6.998499 -0.992274 6.938889 -0.957848 
C 6.879279 -0.923422 6.813456 -0.901098 6.745202 -0.892157 
C 6.676949 -0.883217 6.607597 -0.887835 6.541131 -0.905746 
L 3.891253 -1.615561 
L 1.239492 -0.084604 
L 3.892718 1.447085 
L 6.541131 0.73727 
L 6.541131 0.73727 
C 6.674948 0.701466 6.817656 0.720237 6.937662 0.789429 
C 7.057669 0.858621 7.145413 0.972721 7.181471 1.10647 
L 7.181471 1.10647 
C 7.217274 1.240293 7.198497 1.383006 7.129297 1.503014 
C 7.060096 1.623021 6.945986 1.710762 6.812229 1.74681 
L 5.173293 2.186866 
L 6.496181 2.949771 
L 6.496181 2.949771 
C 6.555697 2.984183 6.607849 3.029991 6.649651 3.08457 
C 6.691452 3.13915 6.722088 3.201437 6.739803 3.267863 
C 6.757517 3.33429 6.761966 3.403561 6.752893 3.471707 
C 6.743821 3.539854 6.721404 3.605549 6.686927 3.665026 
L 6.686927 3.665026 
C 6.617458 3.784813 6.503196 3.87225 6.369416 3.907994 
C 6.235636 3.943739 6.092989 3.924946 5.973032 3.855772 
L 4.650144 3.091487 
L 5.08886 4.731783 
L 5.08886 4.731783 
C 5.124664 4.865606 5.105887 5.008319 5.036686 5.128326 
C 4.967486 5.248334 4.853376 5.336074 4.719619 5.372123 
L 4.719619 5.372123 
C 4.585619 5.407867 4.442757 5.3889 4.322726 5.319431 
C 4.202695 5.249961 4.115081 5.135537 4.07932 5.001542 
L 3.368166 2.351664 
L 0.717033 0.821063 
L 0.717033 3.884232 
L 2.657075 5.822893 
L 2.657075 5.822893 
C 2.70585 5.871495 2.744553 5.929252 2.770959 5.992843 
C 2.797366 6.056435 2.81096 6.124618 2.81096 6.193474 
C 2.81096 6.26233 2.797366 6.330514 2.770959 6.394105 
C 2.744553 6.457696 2.70585 6.515453 2.657075 6.564055 
L 2.657075 6.564055 
C 2.608473 6.61283 2.550716 6.651533 2.487125 6.67794 
C 2.423533 6.704346 2.35535 6.71794 2.286494 6.71794 
C 2.217638 6.71794 2.149454 6.704346 2.085863 6.67794 
C 2.022272 6.651533 1.964515 6.61283 1.915913 6.564055 
L 0.717033 5.365133 
L 0.717033 6.891026 
L 0.717033 6.891026 
C 0.717033 7.029722 0.661877 7.162879 0.563805 7.260952 
C 0.465732 7.359024 0.332575 7.41418 0.193879 7.41418 
L 0.193618 7.414054 
z
"/>
    </defs>
    <g clip-path="url(#p1741033556)">
     <use xlink:href="#mf9b9ef903a" x="53.235475" y="80.882957" style="fill: #9e2096; fill-opacity: 0.7"/>
    </g>
   </g>
   <g id="patch_163">
    <path d="M 125.254844 13.86 
C 110.694216 13.86 96.275171 16.728126 82.822905 22.300237 
C 69.370638 27.872349 57.146763 36.040081 46.850844 46.336 
C 36.554925 56.631919 28.387192 68.855795 22.815081 82.308061 
C 17.24297 95.760327 14.374844 110.179372 14.374844 124.74 
C 14.374844 139.300628 17.24297 153.719673 22.815081 167.171939 
C 28.387192 180.624205 36.554925 192.848081 46.850844 203.144 
C 57.146763 213.439919 69.370638 221.607651 82.822905 227.179763 
C 96.275171 232.751874 110.694216 235.62 125.254844 235.62 
C 139.815472 235.62 154.234516 232.751874 167.686783 227.179763 
C 181.139049 221.607651 193.362925 213.439919 203.658844 203.144 
C 213.954763 192.848081 222.122495 180.624205 227.694606 167.171939 
C 233.266717 153.719673 236.134844 139.300628 236.134844 124.74 
C 236.134844 110.179372 233.266717 95.760327 227.694606 82.308061 
C 222.122495 68.855795 213.954763 56.631919 203.658844 46.336 
C 193.362925 36.040081 181.139049 27.872349 167.686783 22.300237 
C 154.234516 16.728126 139.815472 13.86 125.254844 13.86 
" style="fill: none; stroke: #000000; stroke-width: 0.8; stroke-linejoin: miter; stroke-linecap: square"/>
   </g>
  </g>
 </g>
 <defs>
  <clipPath id="p1741033556">
   <path d="M 236.134844 124.74 
C 236.134844 110.179372 233.266717 95.760327 227.694606 82.308061 
C 222.122495 68.855795 213.954763 56.631919 203.658844 46.336 
C 193.362925 36.040081 181.139049 27.872349 167.686783 22.300237 
C 154.234516 16.728126 139.815472 13.86 125.254844 13.86 
C 110.694216 13.86 96.275171 16.728126 82.822905 22.300237 
C 69.370638 27.872349 57.146763 36.040081 46.850844 46.336 
C 36.554925 56.631919 28.387192 68.855795 22.815081 82.308061 
C 17.24297 95.760327 14.374844 110.179372 14.374844 124.74 
C 14.374844 139.300628 17.24297 153.719673 22.815081 167.171939 
C 28.387192 180.624205 36.554925 192.848081 46.850844 203.144 
C 57.146763 213.439919 69.370638 221.607651 82.822905 227.179763 
C 96.275171 232.751874 110.694216 235.62 125.254844 235.62 
C 139.815472 235.62 154.234516 232.751874 167.686783 227.179763 
C 181.139049 221.607651 193.362925 213.439919 203.658844 203.144 
C 213.954763 192.848081 222.122495 180.624205 227.694606 167.171939 
C 233.266717 153.719673 236.134844 139.300628 236.134844 124.74 
M 125.254844 124.74 
C 125.254844 124.74 125.254844 124.74 125.254844 124.74 
C 125.254844 124.74 125.254844 124.74 125.254844 124.74 
C 125.254844 124.74 125.254844 124.74 125.254844 124.74 
C 125.254844 124.74 125.254844 124.74 125.254844 124.74 
C 125.254844 124.74 125.254844 124.74 125.254844 124.74 
C 125.254844 124.74 125.254844 124.74 125.254844 124.74 
C 125.254844 124.74 125.254844 124.74 125.254844 124.74 
C 125.254844 124.74 125.254844 124.74 125.254844 124.74 
C 125.254844 124.74 125.254844 124.74 125.254844 124.74 
C 125.254844 124.74 125.254844 124.74 125.254844 124.74 
C 125.254844 124.74 125.254844 124.74 125.254844 124.74 
C 125.254844 124.74 125.254844 124.74 125.254844 124.74 
C 125.254844 124.74 125.254844 124.74 125.254844 124.74 
C 125.254844 124.74 125.254844 124.74 125.254844 124.74 
C 125.254844 124.74 125.254844 124.74 125.254844 124.74 
C 125.254844 124.74 125.254844 124.74 125.254844 124.74 
z
"/>
  </clipPath>
 </defs>
</svg>
