<?xml version="1.0" encoding="utf-8" standalone="no"?>
<!DOCTYPE svg PUBLIC "-//W3C//DTD SVG 1.1//EN"
  "http://www.w3.org/Graphics/SVG/1.1/DTD/svg11.dtd">
<svg xmlns:xlink="http://www.w3.org/1999/xlink" width="248.410469pt" height="249.158125pt" viewBox="0 0 248.410469 249.158125" xmlns="http://www.w3.org/2000/svg" version="1.1">
 <title>Ski Rose for Laax</title>
 <metadata>
  <rdf:RDF xmlns:dc="http://purl.org/dc/elements/1.1/" xmlns:cc="http://creativecommons.org/ns#" xmlns:rdf="http://www.w3.org/1999/02/22-rdf-syntax-ns#">
   <cc:Work>
    <dc:type rdf:resource="http://purl.org/dc/dcmitype/StillImage"/>
    <dc:title>Ski Rose for Laax</dc:title>
    <dc:date>2025-12-13T10:13:01.405733</dc:date>
    <dc:description>A 32-bin stacked histogram of downhill ski run orientations colored by difficulty.</dc:description>
    <dc:format>image/svg+xml</dc:format>
    <dc:source>https://openskimap.org/?obj=d5ff708ce6a4ab382afaeb81310e7317494b6fbb</dc:source>
    <dc:creator>
     <cc:Agent>
      <dc:title>https://github.com/dhimmel/openskistats</dc:title>
     </cc:Agent>
    </dc:creator>
    <dc:rights>
     <cc:Agent>
      <dc:title>https://creativecommons.org/licenses/by/4.0/</dc:title>
     </cc:Agent>
    </dc:rights>
   </cc:Work>
  </rdf:RDF>
 </metadata>
 <defs>
  <style type="text/css">*{stroke-linejoin: round; stroke-linecap: butt}</style>
 </defs>
 <g id="figure_1">
  <g id="patch_1">
   <path d="M 0 249.158125 
L 248.410469 249.158125 
L 248.410469 0 
L 0 0 
z
" style="fill: #ffffff"/>
  </g>
  <g id="axes_1">
   <g id="patch_2">
    <path d="M 236.134844 124.579063 
C 236.134844 110.018434 233.266717 95.59939 227.694606 82.147124 
C 222.122495 68.694857 213.954763 56.470982 203.658844 46.175063 
C 193.362925 35.879144 181.139049 27.711411 167.686783 22.1393 
C 154.234516 16.567189 139.815472 13.699062 125.254844 13.699062 
C 110.694216 13.699062 96.275171 16.567189 82.822905 22.1393 
C 69.370638 27.711411 57.146763 35.879144 46.850844 46.175063 
C 36.554925 56.470982 28.387192 68.694857 22.815081 82.147124 
C 17.24297 95.59939 14.374844 110.018434 14.374844 124.579062 
C 14.374844 139.139691 17.24297 153.558735 22.815081 167.011001 
C 28.387192 180.463268 36.554925 192.687143 46.850844 202.983062 
C 57.146763 213.278981 69.370638 221.446714 82.822905 227.018825 
C 96.275171 232.590936 110.694216 235.459063 125.254844 235.459063 
C 139.815472 235.459063 154.234516 232.590936 167.686783 227.018825 
C 181.139049 221.446714 193.362925 213.278981 203.658844 202.983062 
C 213.954763 192.687143 222.122495 180.463268 227.694606 167.011001 
C 233.266717 153.558735 236.134844 139.139691 236.134844 124.579063 
M 125.254844 124.579063 
C 125.254844 124.579063 125.254844 124.579063 125.254844 124.579063 
C 125.254844 124.579063 125.254844 124.579063 125.254844 124.579063 
C 125.254844 124.579063 125.254844 124.579063 125.254844 124.579063 
C 125.254844 124.579063 125.254844 124.579063 125.254844 124.579063 
C 125.254844 124.579063 125.254844 124.579063 125.254844 124.579063 
C 125.254844 124.579063 125.254844 124.579063 125.254844 124.579063 
C 125.254844 124.579063 125.254844 124.579063 125.254844 124.579063 
C 125.254844 124.579063 125.254844 124.579063 125.254844 124.579063 
C 125.254844 124.579063 125.254844 124.579063 125.254844 124.579063 
C 125.254844 124.579063 125.254844 124.579063 125.254844 124.579063 
C 125.254844 124.579063 125.254844 124.579063 125.254844 124.579063 
C 125.254844 124.579063 125.254844 124.579063 125.254844 124.579063 
C 125.254844 124.579063 125.254844 124.579063 125.254844 124.579063 
C 125.254844 124.579063 125.254844 124.579063 125.254844 124.579063 
C 125.254844 124.579063 125.254844 124.579063 125.254844 124.579063 
C 125.254844 124.579063 125.254844 124.579063 125.254844 124.579063 
z
" style="fill: #ffffff"/>
   </g>
   <g id="FillBetweenPolyCollection_1">
    <defs>
     <path id="m984e096b05" d="M 235.28323 -137.115214 
L 234.740742 -137.053405 
L 234.004203 -135.050435 
L 233.000945 -133.058865 
L 232.132864 -131.116002 
L 231.01165 -129.196504 
L 230.049503 -127.323207 
L 228.841086 -125.483046 
L 227.802941 -123.684139 
L 226.522823 -121.927267 
L 225.419235 -120.205791 
L 224.077514 -118.534809 
L 222.916325 -116.892937 
L 221.728678 -115.289689 
L 220.30901 -113.749008 
L 219.073539 -112.227597 
L 217.816021 -110.745702 
L 216.333588 -109.337708 
L 215.037257 -107.938876 
L 213.723088 -106.579995 
L 212.392418 -105.261127 
L 211.046578 -103.982289 
L 209.489963 -102.794379 
L 208.11956 -101.598643 
L 206.738056 -100.442636 
L 205.346749 -99.326182 
L 204.135867 -98.185841 
L 202.726525 -97.144901 
L 201.311112 -96.142789 
L 199.890891 -95.179141 
L 198.646426 -94.179274 
L 197.217579 -93.288775 
L 195.787525 -92.435468 
L 194.528511 -91.537218 
L 193.096582 -90.754419 
L 191.83204 -89.921168 
L 190.402516 -89.206763 
L 189.136275 -88.436688 
L 187.869036 -87.696485 
L 186.601624 -86.985707 
L 185.185508 -86.399019 
L 183.923467 -85.747148 
L 182.663691 -85.123055 
L 181.406929 -84.526169 
L 180.153905 -83.955894 
L 178.905324 -83.411601 
L 177.661864 -82.892636 
L 176.549016 -82.29541 
L 175.31401 -81.824496 
L 174.085961 -81.37694 
L 172.865444 -80.951985 
L 171.763197 -80.444284 
L 170.555473 -80.062258 
L 169.459735 -79.595838 
L 168.266632 -79.254095 
L 167.179042 -78.826828 
L 166.002166 -78.522592 
L 164.924176 -78.132243 
L 163.764904 -77.862624 
L 162.69776 -77.506865 
L 161.634748 -77.167849 
L 160.501966 -76.945311 
L 159.451293 -76.637409 
L 158.405408 -76.344693 
L 157.36449 -76.066679 
L 156.328697 -75.802883 
L 155.241032 -75.64605 
L 154.21906 -75.40758 
L 153.202508 -75.181734 
L 152.191439 -74.968026 
L 151.185896 -74.765974 
L 150.185899 -74.575101 
L 149.191445 -74.394934 
L 148.20251 -74.225006 
L 147.219045 -74.064857 
L 146.240984 -73.914038 
L 145.268236 -73.772107 
L 144.326203 -73.570396 
L 143.361324 -73.447941 
L 142.401461 -73.333226 
L 141.446447 -73.225858 
L 140.496096 -73.125457 
L 139.550203 -73.031661 
L 138.621512 -72.89399 
L 137.682078 -72.815907 
L 136.746505 -72.743528 
L 135.814527 -72.67656 
L 134.892702 -72.577835 
L 133.965759 -72.524684 
L 133.041661 -72.476253 
L 132.120091 -72.432333 
L 131.203318 -72.369975 
L 130.285036 -72.338514 
L 129.368421 -72.311113 
L 128.453123 -72.287656 
L 127.539144 -72.259988 
L 126.625175 -72.248231 
L 125.711598 -72.24023 
L 124.798089 -72.240165 
L 123.884609 -72.251911 
L 122.970865 -72.26734 
L 122.056497 -72.286559 
L 121.141151 -72.309634 
L 120.226294 -72.355575 
L 119.308723 -72.390632 
L 118.389271 -72.429859 
L 117.471995 -72.502804 
L 116.548955 -72.554723 
L 115.623191 -72.611315 
L 114.694397 -72.672806 
L 113.771839 -72.782573 
L 112.837771 -72.858233 
L 111.899952 -72.93953 
L 110.958128 -73.026771 
L 110.01206 -73.120286 
L 109.080159 -73.279516 
L 108.127159 -73.389808 
L 107.169406 -73.507361 
L 106.206729 -73.632566 
L 105.238978 -73.765827 
L 104.266021 -73.907563 
L 103.287749 -74.058204 
L 102.304072 -74.218191 
L 101.314923 -74.387975 
L 100.320256 -74.568016 
L 99.320046 -74.758779 
L 98.314292 -74.960739 
L 97.303015 -75.174372 
L 96.286257 -75.400162 
L 95.264085 -75.638592 
L 94.236586 -75.89015 
L 93.20387 -76.155323 
L 92.166069 -76.434597 
L 91.123339 -76.728458 
L 90.002238 -76.937901 
L 88.946828 -77.261535 
L 87.887065 -77.601326 
L 86.738877 -77.855459 
L 85.667758 -78.22854 
L 84.593078 -78.619297 
L 83.420071 -78.924419 
L 82.335816 -79.351844 
L 81.146599 -79.694186 
L 80.054206 -80.160519 
L 78.850372 -80.542863 
L 77.637975 -80.946242 
L 76.534829 -81.475234 
L 75.310647 -81.922689 
L 74.079493 -82.393359 
L 72.841969 -82.887979 
L 71.598701 -83.407256 
L 70.485521 -84.051895 
L 69.236267 -84.6214 
L 67.983246 -85.217384 
L 66.581667 -85.744134 
L 65.319992 -86.396351 
L 64.056856 -87.076888 
L 62.793049 -87.786254 
L 61.529376 -88.524928 
L 60.104956 -89.205559 
L 58.841116 -90.006264 
L 57.58001 -90.837635 
L 56.151961 -91.618678 
L 54.89629 -92.514822 
L 53.470012 -93.366129 
L 52.044885 -94.254505 
L 50.803611 -95.251942 
L 49.387 -96.213238 
L 47.97514 -97.212884 
L 46.569292 -98.251245 
L 45.361381 -99.388751 
L 43.973451 -100.502417 
L 42.595261 -101.655532 
L 41.22811 -102.848272 
L 39.873305 -104.080769 
L 38.33242 -105.308825 
L 37.004807 -106.62439 
L 35.693626 -107.979872 
L 34.400211 -109.375211 
L 33.125907 -110.810301 
L 31.66631 -112.257898 
L 30.433519 -113.775537 
L 29.224075 -115.332351 
L 27.831712 -116.911696 
L 26.672898 -118.549532 
L 25.33382 -120.216416 
L 24.232306 -121.933694 
L 23.162054 -123.688112 
L 21.917841 -125.480871 
L 20.916783 -127.311251 
L 19.749302 -129.185534 
L 18.829674 -131.088305 
L 17.757874 -133.039257 
L 16.94255 -135.00835 
L 16.005954 -137.026401 
L 15.337663 -139.049934 
L 15.337663 -139.049934 
L 15.337663 -139.049934 
L 15.21321 -137.116723 
L 14.944367 -135.200753 
L 14.752157 -133.275813 
L 14.728454 -131.339146 
L 14.489816 -129.415168 
L 14.463168 -127.480245 
L 14.468902 -125.545877 
L 14.398015 -123.61163 
L 14.468443 -121.678018 
L 14.570341 -119.746473 
L 14.598086 -117.811005 
L 14.763352 -115.883194 
L 14.959076 -113.958788 
L 15.18488 -112.038174 
L 15.342464 -110.108823 
L 15.629974 -108.195516 
L 15.947067 -106.287214 
L 16.293713 -104.384311 
L 16.669958 -102.487218 
L 17.160321 -100.615084 
L 17.51093 -98.712037 
L 17.979511 -96.835775 
L 18.47792 -94.967201 
L 19.006278 -93.106803 
L 19.564714 -91.255093 
L 20.153377 -89.412604 
L 20.772435 -87.579901 
L 21.422084 -85.757585 
L 22.102556 -83.946296 
L 22.8841 -82.175712 
L 23.626435 -80.389773 
L 24.401125 -78.617375 
L 25.208766 -76.859531 
L 26.049992 -75.117348 
L 26.925446 -73.392018 
L 27.843592 -71.689068 
L 28.796024 -70.005288 
L 29.732604 -68.312163 
L 30.720482 -66.648331 
L 31.740252 -65.003697 
L 32.796773 -63.382401 
L 33.881125 -61.779646 
L 35.085181 -60.261667 
L 36.884224 -59.188244 
L 38.704875 -58.166935 
L 40.484178 -57.14943 
L 42.337542 -56.227314 
L 44.192401 -55.345195 
L 45.992849 -54.453973 
L 47.853063 -53.653398 
L 49.653174 -52.835757 
L 51.50256 -52.102895 
L 53.296147 -51.35336 
L 55.085654 -50.636164 
L 56.870205 -49.950325 
L 58.649029 -49.294884 
L 60.421439 -48.668899 
L 62.186821 -48.071433 
L 63.944625 -47.501554 
L 65.657103 -46.909774 
L 67.400091 -46.392851 
L 69.096685 -45.848228 
L 70.823329 -45.380717 
L 72.509946 -44.890214 
L 74.218986 -44.468813 
L 75.887399 -44.018715 
L 77.552376 -43.596342 
L 79.206953 -43.189692 
L 80.857636 -42.809578 
L 82.497801 -42.443548 
L 84.133736 -42.10288 
L 85.759185 -41.774692 
L 87.380189 -41.470718 
L 88.990882 -41.17766 
L 90.597034 -40.907707 
L 92.180133 -40.614016 
L 93.770441 -40.370202 
L 95.356226 -40.147971 
L 96.923056 -39.904275 
L 98.494014 -39.704554 
L 100.050948 -39.492136 
L 101.612334 -39.326926 
L 103.159863 -39.144112 
L 104.708457 -38.997201 
L 106.247463 -38.842309 
L 107.787988 -38.726724 
L 109.31927 -38.598401 
L 110.84742 -38.483693 
L 112.374493 -38.394624 
L 113.896604 -38.304665 
L 115.416336 -38.227591 
L 116.933944 -38.163215 
L 118.450713 -38.124382 
L 119.96453 -38.083193 
L 121.47709 -38.054272 
L 122.98866 -38.036992 
L 124.499546 -38.030569 
L 126.010136 -38.031093 
L 127.520998 -38.038115 
L 129.032516 -38.05615 
L 130.545696 -38.074388 
L 132.059758 -38.114427 
L 133.575393 -38.166856 
L 135.09287 -38.231813 
L 136.613803 -38.299204 
L 138.136179 -38.388034 
L 139.661216 -38.489974 
L 141.189146 -38.605261 
L 142.725343 -38.708816 
L 144.260517 -38.850012 
L 145.804182 -38.98491 
L 147.347441 -39.153328 
L 148.894653 -39.336665 
L 150.45582 -39.501993 
L 152.012417 -39.714883 
L 153.582831 -39.915633 
L 155.162627 -40.122088 
L 156.734841 -40.381985 
L 158.324501 -40.626847 
L 159.924426 -40.879286 
L 161.513116 -41.190746 
L 163.123056 -41.484855 
L 164.743873 -41.788592 
L 166.368498 -42.117829 
L 168.004269 -42.458181 
L 169.643542 -42.825251 
L 171.294088 -43.204973 
L 172.947705 -43.612651 
L 174.612579 -44.034559 
L 176.312794 -44.434134 
L 177.988398 -44.907352 
L 179.674975 -45.397281 
L 181.40103 -45.865013 
L 183.13632 -46.356737 
L 184.838829 -46.927701 
L 186.5897 -47.47058 
L 188.348639 -48.040168 
L 190.073362 -48.686328 
L 191.84518 -49.312379 
L 193.623417 -49.967857 
L 195.407388 -50.653706 
L 197.244914 -51.321435 
L 199.039598 -52.070986 
L 200.837328 -52.853963 
L 202.696004 -53.617313 
L 204.497476 -54.471104 
L 206.353765 -55.31404 
L 208.151129 -56.244639 
L 210.005083 -57.165679 
L 211.842832 -58.137762 
L 213.667686 -59.157001 
L 215.461969 -60.234946 
L 216.63033 -61.778431 
L 217.707866 -63.385742 
L 218.753541 -65.013823 
L 219.78762 -66.649303 
L 220.771727 -68.315318 
L 221.708669 -70.008114 
L 222.670421 -71.686719 
L 223.576383 -73.396109 
L 224.434568 -75.129876 
L 225.327984 -76.846623 
L 226.108183 -78.617548 
L 226.903401 -80.381012 
L 227.693911 -82.147412 
L 228.362072 -83.964045 
L 229.049283 -85.771912 
L 229.689621 -87.596768 
L 230.384066 -89.403317 
L 230.939341 -91.256868 
L 231.560823 -93.089797 
L 232.078625 -94.954206 
L 232.497584 -96.844204 
L 233.042207 -98.701606 
L 233.372931 -100.60986 
L 233.833329 -102.48852 
L 234.228537 -104.381982 
L 234.611084 -106.279104 
L 234.77668 -108.210914 
L 235.078226 -110.12054 
L 235.327891 -112.037823 
L 235.554113 -113.958451 
L 235.74205 -115.883531 
L 235.892374 -117.812181 
L 236.000058 -119.743822 
L 236.078387 -121.677046 
L 236.120836 -123.61155 
L 236.124612 -125.546608 
L 236.094364 -127.481497 
L 235.85663 -129.408041 
L 235.762896 -131.338025 
L 235.636781 -133.266309 
L 235.473388 -135.191901 
L 235.28323 -137.115214 
z
" style="stroke: #ffee9c"/>
    </defs>
    <g clip-path="url(#p4b68670b0c)">
     <use xlink:href="#m984e096b05" x="0" y="249.158125" style="fill: #ffee9c; stroke: #ffee9c"/>
    </g>
   </g>
   <g id="matplotlib.axis_1">
    <g id="xtick_1">
     <g id="line2d_1">
      <path d="M 125.254844 124.579062 
L 125.254844 13.699062 
" clip-path="url(#p4b68670b0c)" style="fill: none; stroke: #b0b0b0; stroke-width: 0.8; stroke-linecap: square"/>
     </g>
     <g id="text_1">
      <!-- N -->
      <g transform="translate(121.070469 7.958437) scale(0.1 -0.1)">
       <defs>
        <path id="DejaVuSans-Bold-4e" d="M 588 4666 
L 1931 4666 
L 3628 1466 
L 3628 4666 
L 4769 4666 
L 4769 0 
L 3425 0 
L 1728 3200 
L 1728 0 
L 588 0 
L 588 4666 
z
" transform="scale(0.015625)"/>
       </defs>
       <use xlink:href="#DejaVuSans-Bold-4e"/>
      </g>
     </g>
    </g>
    <g id="xtick_2">
     <g id="line2d_2">
      <path d="M 125.254844 124.579062 
L 203.658844 46.175063 
" clip-path="url(#p4b68670b0c)" style="fill: none; stroke: #b0b0b0; stroke-width: 0.8; stroke-linecap: square"/>
     </g>
    </g>
    <g id="xtick_3">
     <g id="line2d_3">
      <path d="M 125.254844 124.579062 
L 236.134844 124.579062 
" clip-path="url(#p4b68670b0c)" style="fill: none; stroke: #b0b0b0; stroke-width: 0.8; stroke-linecap: square"/>
     </g>
     <g id="text_2">
      <!-- E -->
      <g transform="translate(241.219219 127.338437) scale(0.1 -0.1)">
       <defs>
        <path id="DejaVuSans-Bold-45" d="M 588 4666 
L 3834 4666 
L 3834 3756 
L 1791 3756 
L 1791 2888 
L 3713 2888 
L 3713 1978 
L 1791 1978 
L 1791 909 
L 3903 909 
L 3903 0 
L 588 0 
L 588 4666 
z
" transform="scale(0.015625)"/>
       </defs>
       <use xlink:href="#DejaVuSans-Bold-45"/>
      </g>
     </g>
    </g>
    <g id="xtick_4">
     <g id="line2d_4">
      <path d="M 125.254844 124.579062 
L 203.658844 202.983062 
" clip-path="url(#p4b68670b0c)" style="fill: none; stroke: #b0b0b0; stroke-width: 0.8; stroke-linecap: square"/>
     </g>
    </g>
    <g id="xtick_5">
     <g id="line2d_5">
      <path d="M 125.254844 124.579062 
L 125.254844 235.459063 
" clip-path="url(#p4b68670b0c)" style="fill: none; stroke: #b0b0b0; stroke-width: 0.8; stroke-linecap: square"/>
     </g>
     <g id="text_3">
      <!-- S -->
      <g transform="translate(121.654063 246.718438) scale(0.1 -0.1)">
       <defs>
        <path id="DejaVuSans-Bold-53" d="M 3834 4519 
L 3834 3531 
Q 3450 3703 3084 3790 
Q 2719 3878 2394 3878 
Q 1963 3878 1756 3759 
Q 1550 3641 1550 3391 
Q 1550 3203 1689 3098 
Q 1828 2994 2194 2919 
L 2706 2816 
Q 3484 2659 3812 2340 
Q 4141 2022 4141 1434 
Q 4141 663 3683 286 
Q 3225 -91 2284 -91 
Q 1841 -91 1394 -6 
Q 947 78 500 244 
L 500 1259 
Q 947 1022 1364 901 
Q 1781 781 2169 781 
Q 2563 781 2772 912 
Q 2981 1044 2981 1288 
Q 2981 1506 2839 1625 
Q 2697 1744 2272 1838 
L 1806 1941 
Q 1106 2091 782 2419 
Q 459 2747 459 3303 
Q 459 4000 909 4375 
Q 1359 4750 2203 4750 
Q 2588 4750 2994 4692 
Q 3400 4634 3834 4519 
z
" transform="scale(0.015625)"/>
       </defs>
       <use xlink:href="#DejaVuSans-Bold-53"/>
      </g>
     </g>
    </g>
    <g id="xtick_6">
     <g id="line2d_6">
      <path d="M 125.254844 124.579062 
L 46.850844 202.983062 
" clip-path="url(#p4b68670b0c)" style="fill: none; stroke: #b0b0b0; stroke-width: 0.8; stroke-linecap: square"/>
     </g>
    </g>
    <g id="xtick_7">
     <g id="line2d_7">
      <path d="M 125.254844 124.579062 
L 14.374844 124.579063 
" clip-path="url(#p4b68670b0c)" style="fill: none; stroke: #b0b0b0; stroke-width: 0.8; stroke-linecap: square"/>
     </g>
     <g id="text_4">
      <!-- W -->
      <g transform="translate(0.36 127.338438) scale(0.1 -0.1)">
       <defs>
        <path id="DejaVuSans-Bold-57" d="M 191 4666 
L 1344 4666 
L 2150 1275 
L 2950 4666 
L 4109 4666 
L 4909 1275 
L 5716 4666 
L 6859 4666 
L 5759 0 
L 4372 0 
L 3525 3547 
L 2688 0 
L 1300 0 
L 191 4666 
z
" transform="scale(0.015625)"/>
       </defs>
       <use xlink:href="#DejaVuSans-Bold-57"/>
      </g>
     </g>
    </g>
    <g id="xtick_8">
     <g id="line2d_8">
      <path d="M 125.254844 124.579062 
L 46.850844 46.175063 
" clip-path="url(#p4b68670b0c)" style="fill: none; stroke: #b0b0b0; stroke-width: 0.8; stroke-linecap: square"/>
     </g>
    </g>
   </g>
   <g id="matplotlib.axis_2"/>
   <g id="patch_3">
    <path d="M 125.254844 124.579062 
C 125.254844 124.579062 125.254844 124.579062 125.254844 124.579062 
C 125.254844 124.579062 125.254844 124.579062 125.254844 124.579062 
L 125.254844 124.579062 
C 125.254844 124.579062 125.254844 124.579062 125.254844 124.579062 
C 125.254844 124.579062 125.254844 124.579062 125.254844 124.579062 
z
" clip-path="url(#p4b68670b0c)" style="fill: #d9d9d9"/>
   </g>
   <g id="patch_4">
    <path d="M 125.254844 124.579062 
C 125.254844 124.579062 125.254844 124.579062 125.254844 124.579062 
C 125.254844 124.579062 125.254844 124.579062 125.254844 124.579062 
L 125.254844 124.579062 
C 125.254844 124.579062 125.254844 124.579062 125.254844 124.579062 
C 125.254844 124.579062 125.254844 124.579062 125.254844 124.579062 
z
" clip-path="url(#p4b68670b0c)" style="fill: #d9d9d9"/>
   </g>
   <g id="patch_5">
    <path d="M 125.254844 124.579062 
C 125.254844 124.579062 125.254844 124.579062 125.254844 124.579062 
C 125.254844 124.579062 125.254844 124.579062 125.254844 124.579062 
L 125.254844 124.579062 
C 125.254844 124.579062 125.254844 124.579062 125.254844 124.579062 
C 125.254844 124.579062 125.254844 124.579062 125.254844 124.579062 
z
" clip-path="url(#p4b68670b0c)" style="fill: #d9d9d9"/>
   </g>
   <g id="patch_6">
    <path d="M 125.254844 124.579062 
C 125.254844 124.579062 125.254844 124.579062 125.254844 124.579062 
C 125.254844 124.579062 125.254844 124.579062 125.254844 124.579062 
L 125.254844 124.579062 
C 125.254844 124.579062 125.254844 124.579062 125.254844 124.579062 
C 125.254844 124.579062 125.254844 124.579062 125.254844 124.579062 
z
" clip-path="url(#p4b68670b0c)" style="fill: #d9d9d9"/>
   </g>
   <g id="patch_7">
    <path d="M 125.254844 124.579062 
C 125.254844 124.579062 125.254844 124.579062 125.254844 124.579062 
C 125.254844 124.579062 125.254844 124.579062 125.254844 124.579062 
L 125.254844 124.579062 
C 125.254844 124.579062 125.254844 124.579062 125.254844 124.579062 
C 125.254844 124.579062 125.254844 124.579062 125.254844 124.579062 
z
" clip-path="url(#p4b68670b0c)" style="fill: #d9d9d9"/>
   </g>
   <g id="patch_8">
    <path d="M 125.254844 124.579062 
C 125.254844 124.579062 125.254844 124.579062 125.254844 124.579062 
C 125.254844 124.579062 125.254844 124.579062 125.254844 124.579062 
L 125.254844 124.579062 
C 125.254844 124.579062 125.254844 124.579062 125.254844 124.579062 
C 125.254844 124.579062 125.254844 124.579062 125.254844 124.579062 
z
" clip-path="url(#p4b68670b0c)" style="fill: #d9d9d9"/>
   </g>
   <g id="patch_9">
    <path d="M 125.254844 124.579062 
C 125.254844 124.579062 125.254844 124.579062 125.254844 124.579062 
C 125.254844 124.579062 125.254844 124.579062 125.254844 124.579062 
L 125.254844 124.579062 
C 125.254844 124.579062 125.254844 124.579062 125.254844 124.579062 
C 125.254844 124.579062 125.254844 124.579062 125.254844 124.579062 
z
" clip-path="url(#p4b68670b0c)" style="fill: #d9d9d9"/>
   </g>
   <g id="patch_10">
    <path d="M 125.254844 124.579062 
C 125.254844 124.579062 125.254844 124.579062 125.254844 124.579062 
C 125.254844 124.579062 125.254844 124.579062 125.254844 124.579062 
L 125.254844 124.579062 
C 125.254844 124.579062 125.254844 124.579062 125.254844 124.579062 
C 125.254844 124.579062 125.254844 124.579062 125.254844 124.579062 
z
" clip-path="url(#p4b68670b0c)" style="fill: #d9d9d9"/>
   </g>
   <g id="patch_11">
    <path d="M 125.254844 124.579062 
C 125.254844 124.579062 125.254844 124.579062 125.254844 124.579062 
C 125.254844 124.579062 125.254844 124.579062 125.254844 124.579062 
L 125.254844 124.579062 
C 125.254844 124.579062 125.254844 124.579062 125.254844 124.579062 
C 125.254844 124.579062 125.254844 124.579062 125.254844 124.579062 
z
" clip-path="url(#p4b68670b0c)" style="fill: #d9d9d9"/>
   </g>
   <g id="patch_12">
    <path d="M 125.254844 124.579062 
C 125.254844 124.579062 125.254844 124.579062 125.254844 124.579062 
C 125.254844 124.579062 125.254844 124.579062 125.254844 124.579062 
L 125.254844 124.579062 
C 125.254844 124.579062 125.254844 124.579062 125.254844 124.579062 
C 125.254844 124.579062 125.254844 124.579062 125.254844 124.579062 
z
" clip-path="url(#p4b68670b0c)" style="fill: #d9d9d9"/>
   </g>
   <g id="patch_13">
    <path d="M 125.254844 124.579062 
C 125.254844 124.579062 125.254844 124.579062 125.254844 124.579062 
C 125.254844 124.579062 125.254844 124.579062 125.254844 124.579062 
L 125.254844 124.579062 
C 125.254844 124.579062 125.254844 124.579062 125.254844 124.579062 
C 125.254844 124.579062 125.254844 124.579062 125.254844 124.579062 
z
" clip-path="url(#p4b68670b0c)" style="fill: #d9d9d9"/>
   </g>
   <g id="patch_14">
    <path d="M 125.254844 124.579062 
C 125.254844 124.579062 125.254844 124.579062 125.254844 124.579062 
C 125.254844 124.579062 125.254844 124.579062 125.254844 124.579062 
L 125.254844 124.579062 
C 125.254844 124.579062 125.254844 124.579062 125.254844 124.579062 
C 125.254844 124.579062 125.254844 124.579062 125.254844 124.579062 
z
" clip-path="url(#p4b68670b0c)" style="fill: #d9d9d9"/>
   </g>
   <g id="patch_15">
    <path d="M 125.254844 124.579062 
C 125.254844 124.579062 125.254844 124.579062 125.254844 124.579062 
C 125.254844 124.579062 125.254844 124.579062 125.254844 124.579062 
L 125.254844 124.579062 
C 125.254844 124.579062 125.254844 124.579062 125.254844 124.579062 
C 125.254844 124.579062 125.254844 124.579062 125.254844 124.579062 
z
" clip-path="url(#p4b68670b0c)" style="fill: #d9d9d9"/>
   </g>
   <g id="patch_16">
    <path d="M 125.254844 124.579062 
C 125.254844 124.579062 125.254844 124.579062 125.254844 124.579062 
C 125.254844 124.579062 125.254844 124.579062 125.254844 124.579062 
L 125.254844 124.579062 
C 125.254844 124.579062 125.254844 124.579062 125.254844 124.579062 
C 125.254844 124.579062 125.254844 124.579062 125.254844 124.579062 
z
" clip-path="url(#p4b68670b0c)" style="fill: #d9d9d9"/>
   </g>
   <g id="patch_17">
    <path d="M 125.254844 124.579062 
C 125.254844 124.579062 125.254844 124.579062 125.254844 124.579062 
C 125.254844 124.579062 125.254844 124.579062 125.254844 124.579062 
L 125.254844 124.579062 
C 125.254844 124.579062 125.254844 124.579062 125.254844 124.579062 
C 125.254844 124.579062 125.254844 124.579062 125.254844 124.579062 
z
" clip-path="url(#p4b68670b0c)" style="fill: #d9d9d9"/>
   </g>
   <g id="patch_18">
    <path d="M 125.254844 124.579062 
C 125.254844 124.579062 125.254844 124.579062 125.254844 124.579062 
C 125.254844 124.579062 125.254844 124.579062 125.254844 124.579062 
L 125.254844 124.579062 
C 125.254844 124.579062 125.254844 124.579062 125.254844 124.579062 
C 125.254844 124.579062 125.254844 124.579062 125.254844 124.579062 
z
" clip-path="url(#p4b68670b0c)" style="fill: #d9d9d9"/>
   </g>
   <g id="patch_19">
    <path d="M 125.254844 124.579062 
C 125.254844 124.579062 125.254844 124.579062 125.254844 124.579062 
C 125.254844 124.579062 125.254844 124.579062 125.254844 124.579062 
L 125.254844 124.579062 
C 125.254844 124.579062 125.254844 124.579062 125.254844 124.579062 
C 125.254844 124.579062 125.254844 124.579062 125.254844 124.579062 
z
" clip-path="url(#p4b68670b0c)" style="fill: #d9d9d9"/>
   </g>
   <g id="patch_20">
    <path d="M 125.254844 124.579062 
C 125.254844 124.579062 125.254844 124.579062 125.254844 124.579062 
C 125.254844 124.579062 125.254844 124.579062 125.254844 124.579062 
L 125.254844 124.579062 
C 125.254844 124.579062 125.254844 124.579062 125.254844 124.579062 
C 125.254844 124.579062 125.254844 124.579062 125.254844 124.579062 
z
" clip-path="url(#p4b68670b0c)" style="fill: #d9d9d9"/>
   </g>
   <g id="patch_21">
    <path d="M 125.254844 124.579062 
C 125.254844 124.579062 125.254844 124.579062 125.254844 124.579062 
C 125.254844 124.579062 125.254844 124.579062 125.254844 124.579062 
L 125.254844 124.579062 
C 125.254844 124.579062 125.254844 124.579062 125.254844 124.579062 
C 125.254844 124.579062 125.254844 124.579062 125.254844 124.579062 
z
" clip-path="url(#p4b68670b0c)" style="fill: #d9d9d9"/>
   </g>
   <g id="patch_22">
    <path d="M 125.254844 124.579062 
C 125.254844 124.579062 125.254844 124.579062 125.254844 124.579062 
C 125.254844 124.579062 125.254844 124.579062 125.254844 124.579062 
L 125.254844 124.579062 
C 125.254844 124.579062 125.254844 124.579062 125.254844 124.579062 
C 125.254844 124.579062 125.254844 124.579062 125.254844 124.579062 
z
" clip-path="url(#p4b68670b0c)" style="fill: #d9d9d9"/>
   </g>
   <g id="patch_23">
    <path d="M 125.254844 124.579062 
C 125.254844 124.579062 125.254844 124.579062 125.254844 124.579062 
C 125.254844 124.579062 125.254844 124.579062 125.254844 124.579062 
L 125.254844 124.579062 
C 125.254844 124.579062 125.254844 124.579062 125.254844 124.579062 
C 125.254844 124.579062 125.254844 124.579062 125.254844 124.579062 
z
" clip-path="url(#p4b68670b0c)" style="fill: #d9d9d9"/>
   </g>
   <g id="patch_24">
    <path d="M 125.254844 124.579062 
C 125.254844 124.579062 125.254844 124.579062 125.254844 124.579062 
C 125.254844 124.579062 125.254844 124.579062 125.254844 124.579062 
L 125.254844 124.579062 
C 125.254844 124.579062 125.254844 124.579062 125.254844 124.579062 
C 125.254844 124.579062 125.254844 124.579062 125.254844 124.579062 
z
" clip-path="url(#p4b68670b0c)" style="fill: #d9d9d9"/>
   </g>
   <g id="patch_25">
    <path d="M 125.254844 124.579062 
C 125.254844 124.579062 125.254844 124.579062 125.254844 124.579062 
C 125.254844 124.579062 125.254844 124.579062 125.254844 124.579062 
L 125.254844 124.579062 
C 125.254844 124.579062 125.254844 124.579062 125.254844 124.579062 
C 125.254844 124.579062 125.254844 124.579062 125.254844 124.579062 
z
" clip-path="url(#p4b68670b0c)" style="fill: #d9d9d9"/>
   </g>
   <g id="patch_26">
    <path d="M 125.254844 124.579062 
C 125.254844 124.579062 125.254844 124.579062 125.254844 124.579062 
C 125.254844 124.579062 125.254844 124.579062 125.254844 124.579062 
L 125.254844 124.579062 
C 125.254844 124.579062 125.254844 124.579062 125.254844 124.579062 
C 125.254844 124.579062 125.254844 124.579062 125.254844 124.579062 
z
" clip-path="url(#p4b68670b0c)" style="fill: #d9d9d9"/>
   </g>
   <g id="patch_27">
    <path d="M 125.254844 124.579062 
C 125.254844 124.579062 125.254844 124.579062 125.254844 124.579062 
C 125.254844 124.579062 125.254844 124.579062 125.254844 124.579062 
L 125.254844 124.579062 
C 125.254844 124.579062 125.254844 124.579062 125.254844 124.579062 
C 125.254844 124.579062 125.254844 124.579062 125.254844 124.579062 
z
" clip-path="url(#p4b68670b0c)" style="fill: #d9d9d9"/>
   </g>
   <g id="patch_28">
    <path d="M 125.254844 124.579062 
C 125.254844 124.579062 125.254844 124.579062 125.254844 124.579062 
C 125.254844 124.579062 125.254844 124.579062 125.254844 124.579062 
L 125.254844 124.579062 
C 125.254844 124.579062 125.254844 124.579062 125.254844 124.579062 
C 125.254844 124.579062 125.254844 124.579062 125.254844 124.579062 
z
" clip-path="url(#p4b68670b0c)" style="fill: #d9d9d9"/>
   </g>
   <g id="patch_29">
    <path d="M 125.254844 124.579062 
C 125.254844 124.579062 125.254844 124.579062 125.254844 124.579062 
C 125.254844 124.579062 125.254844 124.579062 125.254844 124.579062 
L 125.254844 124.579062 
C 125.254844 124.579062 125.254844 124.579062 125.254844 124.579062 
C 125.254844 124.579062 125.254844 124.579062 125.254844 124.579062 
z
" clip-path="url(#p4b68670b0c)" style="fill: #d9d9d9"/>
   </g>
   <g id="patch_30">
    <path d="M 125.254844 124.579062 
C 125.254844 124.579062 125.254844 124.579062 125.254844 124.579062 
C 125.254844 124.579062 125.254844 124.579062 125.254844 124.579062 
L 125.254844 124.579062 
C 125.254844 124.579062 125.254844 124.579062 125.254844 124.579062 
C 125.254844 124.579062 125.254844 124.579062 125.254844 124.579062 
z
" clip-path="url(#p4b68670b0c)" style="fill: #d9d9d9"/>
   </g>
   <g id="patch_31">
    <path d="M 125.254844 124.579062 
C 125.254844 124.579062 125.254844 124.579062 125.254844 124.579062 
C 125.254844 124.579062 125.254844 124.579062 125.254844 124.579062 
L 125.254844 124.579062 
C 125.254844 124.579062 125.254844 124.579062 125.254844 124.579062 
C 125.254844 124.579062 125.254844 124.579062 125.254844 124.579062 
z
" clip-path="url(#p4b68670b0c)" style="fill: #d9d9d9"/>
   </g>
   <g id="patch_32">
    <path d="M 125.254844 124.579062 
C 125.254844 124.579062 125.254844 124.579062 125.254844 124.579062 
C 125.254844 124.579062 125.254844 124.579062 125.254844 124.579062 
L 125.254844 124.579062 
C 125.254844 124.579062 125.254844 124.579062 125.254844 124.579062 
C 125.254844 124.579062 125.254844 124.579062 125.254844 124.579062 
z
" clip-path="url(#p4b68670b0c)" style="fill: #d9d9d9"/>
   </g>
   <g id="patch_33">
    <path d="M 125.254844 124.579062 
C 125.254844 124.579062 125.254844 124.579062 125.254844 124.579062 
C 125.254844 124.579062 125.254844 124.579062 125.254844 124.579062 
L 125.254844 124.579062 
C 125.254844 124.579062 125.254844 124.579062 125.254844 124.579062 
C 125.254844 124.579062 125.254844 124.579062 125.254844 124.579062 
z
" clip-path="url(#p4b68670b0c)" style="fill: #d9d9d9"/>
   </g>
   <g id="patch_34">
    <path d="M 125.254844 124.579062 
C 125.254844 124.579062 125.254844 124.579062 125.254844 124.579062 
C 125.254844 124.579062 125.254844 124.579062 125.254844 124.579062 
L 125.254844 124.579062 
C 125.254844 124.579062 125.254844 124.579062 125.254844 124.579062 
C 125.254844 124.579062 125.254844 124.579062 125.254844 124.579062 
z
" clip-path="url(#p4b68670b0c)" style="fill: #d9d9d9"/>
   </g>
   <g id="patch_35">
    <path d="M 125.254844 124.579062 
C 125.254844 124.579062 125.254844 124.579062 125.254844 124.579062 
C 125.254844 124.579062 125.254844 124.579062 125.254844 124.579062 
L 127.204906 104.779748 
C 126.556845 104.71592 125.906041 104.683948 125.254844 104.683948 
C 124.603647 104.683948 123.952843 104.71592 123.304782 104.779748 
z
" clip-path="url(#p4b68670b0c)" style="fill: #a1a1d8"/>
   </g>
   <g id="patch_36">
    <path d="M 125.254844 124.579062 
C 125.254844 124.579062 125.254844 124.579062 125.254844 124.579062 
C 125.254844 124.579062 125.254844 124.579062 125.254844 124.579062 
L 127.865535 115.972766 
C 127.583838 115.887314 127.298116 115.815744 127.009399 115.758315 
C 126.720683 115.700886 126.429321 115.657666 126.136366 115.628813 
z
" clip-path="url(#p4b68670b0c)" style="fill: #a1a1d8"/>
   </g>
   <g id="patch_37">
    <path d="M 125.254844 124.579062 
C 125.254844 124.579062 125.254844 124.579062 125.254844 124.579062 
C 125.254844 124.579062 125.254844 124.579062 125.254844 124.579062 
L 131.099727 113.644055 
C 130.741808 113.452743 130.374712 113.279119 129.999764 113.123811 
C 129.624817 112.968503 129.24247 112.831697 128.854105 112.713887 
z
" clip-path="url(#p4b68670b0c)" style="fill: #a1a1d8"/>
   </g>
   <g id="patch_38">
    <path d="M 125.254844 124.579062 
C 125.254844 124.579062 125.254844 124.579062 125.254844 124.579062 
C 125.254844 124.579062 125.254844 124.579062 125.254844 124.579062 
L 128.914114 120.120229 
C 128.76817 120.000455 128.616433 119.88792 128.459451 119.783028 
C 128.30247 119.678137 128.140433 119.581016 127.973927 119.492016 
z
" clip-path="url(#p4b68670b0c)" style="fill: #a1a1d8"/>
   </g>
   <g id="patch_39">
    <path d="M 125.254844 124.579062 
C 125.254844 124.579062 125.254844 124.579062 125.254844 124.579062 
C 125.254844 124.579062 125.254844 124.579062 125.254844 124.579062 
L 133.472356 117.835124 
C 133.251617 117.566153 133.017805 117.308181 132.771765 117.062141 
C 132.525725 116.816101 132.267754 116.582289 131.998782 116.36155 
z
" clip-path="url(#p4b68670b0c)" style="fill: #a1a1d8"/>
   </g>
   <g id="patch_40">
    <path d="M 125.254844 124.579062 
C 125.254844 124.579062 125.254844 124.579062 125.254844 124.579062 
C 125.254844 124.579062 125.254844 124.579062 125.254844 124.579062 
L 144.041087 114.537606 
C 143.712415 113.922704 143.353752 113.32431 142.966392 112.744585 
C 142.579031 112.164859 142.163442 111.604502 141.721124 111.065536 
z
" clip-path="url(#p4b68670b0c)" style="fill: #a1a1d8"/>
   </g>
   <g id="patch_41">
    <path d="M 125.254844 124.579062 
C 125.254844 124.579062 125.254844 124.579062 125.254844 124.579062 
C 125.254844 124.579062 125.254844 124.579062 125.254844 124.579062 
L 138.520513 120.554966 
C 138.388798 120.120761 138.235845 119.693284 138.062205 119.27408 
C 137.888565 118.854876 137.694447 118.44445 137.480554 118.044284 
z
" clip-path="url(#p4b68670b0c)" style="fill: #a1a1d8"/>
   </g>
   <g id="patch_42">
    <path d="M 125.254844 124.579062 
C 125.254844 124.579062 125.254844 124.579062 125.254844 124.579062 
C 125.254844 124.579062 125.254844 124.579062 125.254844 124.579062 
L 147.359044 122.401989 
C 147.287785 121.678485 147.181047 120.958917 147.039216 120.245882 
C 146.897384 119.532846 146.72063 118.827205 146.509592 118.131505 
z
" clip-path="url(#p4b68670b0c)" style="fill: #a1a1d8"/>
   </g>
   <g id="patch_43">
    <path d="M 125.254844 124.579062 
C 125.254844 124.579062 125.254844 124.579062 125.254844 124.579062 
C 125.254844 124.579062 125.254844 124.579062 125.254844 124.579062 
L 168.704942 128.858524 
C 168.845015 127.436337 168.915178 126.00813 168.915178 124.579062 
C 168.915178 123.149995 168.845015 121.721788 168.704942 120.299601 
z
" clip-path="url(#p4b68670b0c)" style="fill: #a1a1d8"/>
   </g>
   <g id="patch_44">
    <path d="M 125.254844 124.579062 
C 125.254844 124.579062 125.254844 124.579062 125.254844 124.579062 
C 125.254844 124.579062 125.254844 124.579062 125.254844 124.579062 
L 165.22965 136.705288 
C 165.62656 135.396852 165.958989 134.069719 166.225739 132.72868 
C 166.492488 131.387642 166.693235 130.034315 166.827255 128.673588 
z
" clip-path="url(#p4b68670b0c)" style="fill: #a1a1d8"/>
   </g>
   <g id="patch_45">
    <path d="M 125.254844 124.579062 
C 125.254844 124.579062 125.254844 124.579062 125.254844 124.579062 
C 125.254844 124.579062 125.254844 124.579062 125.254844 124.579062 
L 182.974638 155.430935 
C 183.984466 153.54168 184.900928 151.603984 185.720713 149.624846 
C 186.540499 147.645708 187.262621 145.627513 187.88447 143.577552 
z
" clip-path="url(#p4b68670b0c)" style="fill: #a1a1d8"/>
   </g>
   <g id="patch_46">
    <path d="M 125.254844 124.579062 
C 125.254844 124.579062 125.254844 124.579062 125.254844 124.579062 
C 125.254844 124.579062 125.254844 124.579062 125.254844 124.579062 
L 174.9753 165.383587 
C 176.310893 163.756162 177.565779 162.064144 178.735425 160.313645 
C 179.905072 158.563145 180.988068 156.756275 181.980503 154.899559 
z
" clip-path="url(#p4b68670b0c)" style="fill: #a1a1d8"/>
   </g>
   <g id="patch_47">
    <path d="M 125.254844 124.579062 
C 125.254844 124.579062 125.254844 124.579062 125.254844 124.579062 
C 125.254844 124.579062 125.254844 124.579062 125.254844 124.579062 
L 169.854687 178.924128 
C 171.633482 177.464309 173.339532 175.918035 174.966674 174.290893 
C 176.593816 172.66375 178.14009 170.9577 179.599909 169.178905 
z
" clip-path="url(#p4b68670b0c)" style="fill: #a1a1d8"/>
   </g>
   <g id="patch_48">
    <path d="M 125.254844 124.579062 
C 125.254844 124.579062 125.254844 124.579062 125.254844 124.579062 
C 125.254844 124.579062 125.254844 124.579062 125.254844 124.579062 
L 151.752376 174.152459 
C 153.374987 173.285155 154.954038 172.338708 156.483826 171.316537 
C 158.013613 170.294366 159.492292 169.197702 160.914523 168.030508 
z
" clip-path="url(#p4b68670b0c)" style="fill: #a1a1d8"/>
   </g>
   <g id="patch_49">
    <path d="M 125.254844 124.579062 
C 125.254844 124.579062 125.254844 124.579062 125.254844 124.579062 
C 125.254844 124.579062 125.254844 124.579062 125.254844 124.579062 
L 143.768822 185.611469 
C 145.766504 185.005479 147.733229 184.301773 149.661894 183.502894 
C 151.590559 182.704015 153.478839 181.810925 155.319913 180.82685 
z
" clip-path="url(#p4b68670b0c)" style="fill: #a1a1d8"/>
   </g>
   <g id="patch_50">
    <path d="M 125.254844 124.579062 
C 125.254844 124.579062 125.254844 124.579062 125.254844 124.579062 
C 125.254844 124.579062 125.254844 124.579062 125.254844 124.579062 
L 130.86703 181.560541 
C 132.732118 181.376846 134.587064 181.101691 136.425167 180.73607 
C 138.26327 180.370448 140.082313 179.914801 141.875728 179.370775 
z
" clip-path="url(#p4b68670b0c)" style="fill: #a1a1d8"/>
   </g>
   <g id="patch_51">
    <path d="M 125.254844 124.579062 
C 125.254844 124.579062 125.254844 124.579062 125.254844 124.579062 
C 125.254844 124.579062 125.254844 124.579062 125.254844 124.579062 
L 120.832251 169.482397 
C 122.302004 169.627155 123.777979 169.699665 125.254844 169.699665 
C 126.731708 169.699665 128.207683 169.627155 129.677436 169.482397 
z
" clip-path="url(#p4b68670b0c)" style="fill: #a1a1d8"/>
   </g>
   <g id="patch_52">
    <path d="M 125.254844 124.579062 
C 125.254844 124.579062 125.254844 124.579062 125.254844 124.579062 
C 125.254844 124.579062 125.254844 124.579062 125.254844 124.579062 
L 110.644497 172.742922 
C 112.220972 173.22114 113.819976 173.62167 115.435733 173.943064 
C 117.051491 174.264458 118.682054 174.506329 120.321533 174.667804 
z
" clip-path="url(#p4b68670b0c)" style="fill: #a1a1d8"/>
   </g>
   <g id="patch_53">
    <path d="M 125.254844 124.579062 
C 125.254844 124.579062 125.254844 124.579062 125.254844 124.579062 
C 125.254844 124.579062 125.254844 124.579062 125.254844 124.579062 
L 102.864001 166.469382 
C 104.235134 167.202268 105.641423 167.867393 107.077789 168.462355 
C 108.514154 169.057318 109.978865 169.5814 111.466631 170.032708 
z
" clip-path="url(#p4b68670b0c)" style="fill: #a1a1d8"/>
   </g>
   <g id="patch_54">
    <path d="M 125.254844 124.579062 
C 125.254844 124.579062 125.254844 124.579062 125.254844 124.579062 
C 125.254844 124.579062 125.254844 124.579062 125.254844 124.579062 
L 100.872857 154.288599 
C 101.845295 155.086658 102.856328 155.836492 103.902307 156.535392 
C 104.948285 157.234293 106.027947 157.881417 107.137393 158.474428 
z
" clip-path="url(#p4b68670b0c)" style="fill: #a1a1d8"/>
   </g>
   <g id="patch_55">
    <path d="M 125.254844 124.579062 
C 125.254844 124.579062 125.254844 124.579062 125.254844 124.579062 
C 125.254844 124.579062 125.254844 124.579062 125.254844 124.579062 
L 100.44292 144.941682 
C 101.109419 145.753813 101.81539 146.532732 102.558282 147.275624 
C 103.301174 148.018517 104.080093 148.724487 104.892224 149.390986 
z
" clip-path="url(#p4b68670b0c)" style="fill: #a1a1d8"/>
   </g>
   <g id="patch_56">
    <path d="M 125.254844 124.579062 
C 125.254844 124.579062 125.254844 124.579062 125.254844 124.579062 
C 125.254844 124.579062 125.254844 124.579062 125.254844 124.579062 
L 97.29603 139.52336 
C 97.785179 140.438493 98.318964 141.32906 98.895457 142.191842 
C 99.471949 143.054624 100.090455 143.888582 100.748739 144.690703 
z
" clip-path="url(#p4b68670b0c)" style="fill: #a1a1d8"/>
   </g>
   <g id="patch_57">
    <path d="M 125.254844 124.579062 
C 125.254844 124.579062 125.254844 124.579062 125.254844 124.579062 
C 125.254844 124.579062 125.254844 124.579062 125.254844 124.579062 
L 92.327128 134.567576 
C 92.654067 135.645349 93.033725 136.706421 93.46473 137.746959 
C 93.895735 138.787497 94.377568 139.806246 94.908488 140.799528 
z
" clip-path="url(#p4b68670b0c)" style="fill: #a1a1d8"/>
   </g>
   <g id="patch_58">
    <path d="M 125.254844 124.579062 
C 125.254844 124.579062 125.254844 124.579062 125.254844 124.579062 
C 125.254844 124.579062 125.254844 124.579062 125.254844 124.579062 
L 102.94597 126.776295 
C 103.017889 127.506498 103.125615 128.232729 103.26876 128.952367 
C 103.411904 129.672004 103.590295 130.38418 103.803287 131.086321 
z
" clip-path="url(#p4b68670b0c)" style="fill: #a1a1d8"/>
   </g>
   <g id="patch_59">
    <path d="M 125.254844 124.579062 
C 125.254844 124.579062 125.254844 124.579062 125.254844 124.579062 
C 125.254844 124.579062 125.254844 124.579062 125.254844 124.579062 
L 117.349478 123.800452 
C 117.323993 124.059206 117.311228 124.319056 117.311228 124.579062 
C 117.311228 124.839069 117.323993 125.098919 117.349478 125.357673 
z
" clip-path="url(#p4b68670b0c)" style="fill: #a1a1d8"/>
   </g>
   <g id="patch_60">
    <path d="M 125.254844 124.579062 
C 125.254844 124.579062 125.254844 124.579062 125.254844 124.579062 
C 125.254844 124.579062 125.254844 124.579062 125.254844 124.579062 
L 111.96939 120.548964 
C 111.837479 120.983817 111.726997 121.424884 111.638345 121.870572 
C 111.549692 122.316261 111.482974 122.766033 111.438433 123.218265 
z
" clip-path="url(#p4b68670b0c)" style="fill: #a1a1d8"/>
   </g>
   <g id="patch_61">
    <path d="M 125.254844 124.579062 
C 125.254844 124.579062 125.254844 124.579062 125.254844 124.579062 
C 125.254844 124.579062 125.254844 124.579062 125.254844 124.579062 
L 114.238533 118.690722 
C 114.045799 119.051302 113.870885 119.421128 113.714421 119.798863 
C 113.557958 120.176598 113.420135 120.561788 113.30145 120.95304 
z
" clip-path="url(#p4b68670b0c)" style="fill: #a1a1d8"/>
   </g>
   <g id="patch_62">
    <path d="M 125.254844 124.579062 
C 125.254844 124.579062 125.254844 124.579062 125.254844 124.579062 
C 125.254844 124.579062 125.254844 124.579062 125.254844 124.579062 
L 115.250268 116.368519 
C 114.981524 116.695984 114.72902 117.036446 114.493668 117.388675 
C 114.258316 117.740904 114.040399 118.104477 113.840705 118.478078 
z
" clip-path="url(#p4b68670b0c)" style="fill: #a1a1d8"/>
   </g>
   <g id="patch_63">
    <path d="M 125.254844 124.579062 
C 125.254844 124.579062 125.254844 124.579062 125.254844 124.579062 
C 125.254844 124.579062 125.254844 124.579062 125.254844 124.579062 
L 111.537839 107.864844 
C 110.990758 108.313822 110.46605 108.78939 109.965611 109.289829 
C 109.465171 109.790269 108.989604 110.314977 108.540626 110.862058 
z
" clip-path="url(#p4b68670b0c)" style="fill: #a1a1d8"/>
   </g>
   <g id="patch_64">
    <path d="M 125.254844 124.579062 
C 125.254844 124.579062 125.254844 124.579062 125.254844 124.579062 
C 125.254844 124.579062 125.254844 124.579062 125.254844 124.579062 
L 117.748653 110.535967 
C 117.289001 110.781656 116.84169 111.049764 116.408333 111.339324 
C 115.974977 111.628883 115.556098 111.939545 115.15321 112.270186 
z
" clip-path="url(#p4b68670b0c)" style="fill: #a1a1d8"/>
   </g>
   <g id="patch_65">
    <path d="M 125.254844 124.579062 
C 125.254844 124.579062 125.254844 124.579062 125.254844 124.579062 
C 125.254844 124.579062 125.254844 124.579062 125.254844 124.579062 
L 120.974629 110.469084 
C 120.512788 110.609182 120.058104 110.77187 119.612219 110.956562 
C 119.166334 111.141253 118.729786 111.347725 118.304151 111.575232 
z
" clip-path="url(#p4b68670b0c)" style="fill: #a1a1d8"/>
   </g>
   <g id="patch_66">
    <path d="M 125.254844 124.579062 
C 125.254844 124.579062 125.254844 124.579062 125.254844 124.579062 
C 125.254844 124.579062 125.254844 124.579062 125.254844 124.579062 
L 124.647183 118.409377 
C 124.44524 118.429267 124.244395 118.45906 124.045374 118.498647 
C 123.846353 118.538235 123.649395 118.58757 123.455213 118.646475 
z
" clip-path="url(#p4b68670b0c)" style="fill: #a1a1d8"/>
   </g>
   <g id="patch_67">
    <path d="M 123.304782 104.779748 
C 123.952843 104.71592 124.603647 104.683948 125.254844 104.683948 
C 125.906041 104.683948 126.556845 104.71592 127.204906 104.779748 
L 128.167192 95.009499 
C 127.199336 94.914174 126.227383 94.866425 125.254844 94.866425 
C 124.282305 94.866425 123.310352 94.914174 122.342496 95.009499 
z
" clip-path="url(#p4b68670b0c)" style="fill: #ff8c8e"/>
   </g>
   <g id="patch_68">
    <path d="M 126.136366 115.628813 
C 126.429321 115.657666 126.720683 115.700886 127.009399 115.758315 
C 127.298116 115.815744 127.583838 115.887314 127.865535 115.972766 
L 130.847243 106.143394 
C 130.243816 105.960346 129.631765 105.807036 129.013302 105.684016 
C 128.394839 105.560996 127.770709 105.468415 127.143166 105.406607 
z
" clip-path="url(#p4b68670b0c)" style="fill: #ff8c8e"/>
   </g>
   <g id="patch_69">
    <path d="M 128.854105 112.713887 
C 129.24247 112.831697 129.624817 112.968503 129.999764 113.123811 
C 130.374712 113.279119 130.741808 113.452743 131.099727 113.644055 
L 144.653276 88.287148 
C 143.465388 87.652208 142.247041 87.075973 141.002638 86.560524 
C 139.758234 86.045076 138.489274 85.591034 137.20034 85.20004 
z
" clip-path="url(#p4b68670b0c)" style="fill: #ff8c8e"/>
   </g>
   <g id="patch_70">
    <path d="M 127.973927 119.492016 
C 128.140433 119.581016 128.30247 119.678137 128.459451 119.783028 
C 128.616433 119.88792 128.76817 120.000455 128.914114 120.120229 
L 142.112978 104.037367 
C 141.440618 103.485575 140.741571 102.967126 140.018363 102.483894 
C 139.295155 102.000662 138.548658 101.553229 137.781568 101.143211 
z
" clip-path="url(#p4b68670b0c)" style="fill: #ff8c8e"/>
   </g>
   <g id="patch_71">
    <path d="M 131.998782 116.36155 
C 132.267754 116.582289 132.525725 116.816101 132.771765 117.062141 
C 133.017805 117.308181 133.251617 117.566153 133.472356 117.835124 
L 153.558115 101.351168 
C 152.797831 100.42476 151.992522 99.536238 151.145095 98.688811 
C 150.297669 97.841384 149.409147 97.036075 148.482738 96.275791 
z
" clip-path="url(#p4b68670b0c)" style="fill: #ff8c8e"/>
   </g>
   <g id="patch_72">
    <path d="M 141.721124 111.065536 
C 142.163442 111.604502 142.579031 112.164859 142.966392 112.744585 
C 143.353752 113.32431 143.712415 113.922704 144.041087 114.537606 
L 164.879118 103.399447 
C 164.185877 102.102485 163.429377 100.840341 162.612351 99.617574 
C 161.795324 98.394807 160.918755 97.212891 159.98581 96.076095 
z
" clip-path="url(#p4b68670b0c)" style="fill: #ff8c8e"/>
   </g>
   <g id="patch_73">
    <path d="M 137.480554 118.044284 
C 137.694447 118.44445 137.888565 118.854876 138.062205 119.27408 
C 138.235845 119.693284 138.388798 120.120761 138.520513 120.554966 
L 176.912964 108.908743 
C 176.400051 107.217896 175.804431 105.55325 175.128256 103.920819 
C 174.452081 102.288387 173.696166 100.690138 172.86324 99.131844 
z
" clip-path="url(#p4b68670b0c)" style="fill: #ff8c8e"/>
   </g>
   <g id="patch_74">
    <path d="M 146.509592 118.131505 
C 146.72063 118.827205 146.897384 119.532846 147.039216 120.245882 
C 147.181047 120.958917 147.287785 121.678485 147.359044 122.401989 
L 188.569593 118.343104 
C 188.365481 116.270718 188.059743 114.209602 187.653485 112.167201 
C 187.247226 110.1248 186.740936 108.103577 186.136443 106.110831 
z
" clip-path="url(#p4b68670b0c)" style="fill: #ff8c8e"/>
   </g>
   <g id="patch_75">
    <path d="M 168.704942 120.299601 
C 168.845015 121.721788 168.915178 123.149995 168.915178 124.579062 
C 168.915178 126.00813 168.845015 127.436337 168.704942 128.858524 
L 199.279556 131.86986 
C 199.518195 129.446921 199.63773 127.013725 199.63773 124.579062 
C 199.63773 122.1444 199.518195 119.711204 199.279556 117.288265 
z
" clip-path="url(#p4b68670b0c)" style="fill: #ff8c8e"/>
   </g>
   <g id="patch_76">
    <path d="M 166.827255 128.673588 
C 166.693235 130.034315 166.492488 131.387642 166.225739 132.72868 
C 165.958989 134.069719 165.62656 135.396852 165.22965 136.705288 
L 198.436188 146.778381 
C 199.162805 144.383046 199.77138 141.95348 200.259714 139.498459 
C 200.748048 137.043437 201.115553 134.56592 201.360902 132.074855 
z
" clip-path="url(#p4b68670b0c)" style="fill: #ff8c8e"/>
   </g>
   <g id="patch_77">
    <path d="M 187.88447 143.577552 
C 187.262621 145.627513 186.540499 147.645708 185.720713 149.624846 
C 184.900928 151.603984 183.984466 153.54168 182.974638 155.430935 
L 207.75017 168.673733 
C 209.193454 165.973538 210.503297 163.204109 211.674966 160.375449 
C 212.846635 157.54679 213.878719 154.662309 214.767489 151.732427 
z
" clip-path="url(#p4b68670b0c)" style="fill: #ff8c8e"/>
   </g>
   <g id="patch_78">
    <path d="M 181.980503 154.899559 
C 180.988068 156.756275 179.905072 158.563145 178.735425 160.313645 
C 177.565779 162.064144 176.310893 163.756162 174.9753 165.383587 
L 199.200868 185.264996 
C 201.187209 182.844632 203.05352 180.328203 204.793059 177.724799 
C 206.532598 175.121394 208.143269 172.434152 209.619254 169.672779 
z
" clip-path="url(#p4b68670b0c)" style="fill: #ff8c8e"/>
   </g>
   <g id="patch_79">
    <path d="M 179.599909 169.178905 
C 178.14009 170.9577 176.593816 172.66375 174.966674 174.290893 
C 173.339532 175.918035 171.633482 177.464309 169.854687 178.924128 
L 185.072904 197.46758 
C 187.458654 195.509645 189.746837 193.435757 191.929188 191.253406 
C 194.111538 189.071055 196.185426 186.782873 198.143361 184.397123 
z
" clip-path="url(#p4b68670b0c)" style="fill: #ff8c8e"/>
   </g>
   <g id="patch_80">
    <path d="M 160.914523 168.030508 
C 159.492292 169.197702 158.013613 170.294366 156.483826 171.316537 
C 154.954038 172.338708 153.374987 173.285155 151.752376 174.152459 
L 163.316983 195.788316 
C 165.647768 194.542485 167.915981 193.18297 170.11343 191.714682 
C 172.310879 190.246393 174.434915 188.671101 176.477865 186.994495 
z
" clip-path="url(#p4b68670b0c)" style="fill: #ff8c8e"/>
   </g>
   <g id="patch_81">
    <path d="M 155.319913 180.82685 
C 153.478839 181.810925 151.590559 182.704015 149.661894 183.502894 
C 147.733229 184.301773 145.766504 185.005479 143.768822 185.611469 
L 150.01423 206.19982 
C 152.685799 205.389409 155.315969 204.448319 157.89524 203.37995 
C 160.474511 202.311581 162.999773 201.117221 165.461905 199.801184 
z
" clip-path="url(#p4b68670b0c)" style="fill: #ff8c8e"/>
   </g>
   <g id="patch_82">
    <path d="M 141.875728 179.370775 
C 140.082313 179.914801 138.26327 180.370448 136.425167 180.73607 
C 134.587064 181.101691 132.732118 181.376846 130.86703 181.560541 
L 132.250925 195.61147 
C 134.575922 195.382478 136.888275 195.039473 139.179631 194.583694 
C 141.470987 194.127915 143.738584 193.559911 145.974233 192.881735 
z
" clip-path="url(#p4b68670b0c)" style="fill: #ff8c8e"/>
   </g>
   <g id="patch_83">
    <path d="M 129.677436 169.482397 
C 128.207683 169.627155 126.731708 169.699665 125.254844 169.699665 
C 123.777979 169.699665 122.302004 169.627155 120.832251 169.482397 
L 118.219485 196.010263 
C 120.557534 196.240541 122.905481 196.355888 125.254844 196.355888 
C 127.604206 196.355888 129.952153 196.240541 132.290203 196.010263 
z
" clip-path="url(#p4b68670b0c)" style="fill: #ff8c8e"/>
   </g>
   <g id="patch_84">
    <path d="M 120.321533 174.667804 
C 118.682054 174.506329 117.051491 174.264458 115.435733 173.943064 
C 113.819976 173.62167 112.220972 173.22114 110.644497 172.742922 
L 106.180177 187.459811 
C 108.238358 188.084153 110.325952 188.607068 112.435418 189.026667 
C 114.544884 189.446266 116.673681 189.762043 118.814117 189.972858 
z
" clip-path="url(#p4b68670b0c)" style="fill: #ff8c8e"/>
   </g>
   <g id="patch_85">
    <path d="M 111.466631 170.032708 
C 109.978865 169.5814 108.514154 169.057318 107.077789 168.462355 
C 105.641423 167.867393 104.235134 167.202268 102.864001 166.469382 
L 99.617979 172.542264 
C 101.187886 173.381397 102.798046 174.142946 104.442643 174.82416 
C 106.08724 175.505374 107.764292 176.105433 109.46774 176.622169 
z
" clip-path="url(#p4b68670b0c)" style="fill: #ff8c8e"/>
   </g>
   <g id="patch_86">
    <path d="M 107.137393 158.474428 
C 106.027947 157.881417 104.948285 157.234293 103.902307 156.535392 
C 102.856328 155.836492 101.845295 155.086658 100.872857 154.288599 
L 95.577314 160.741237 
C 96.760956 161.712627 97.991577 162.625318 99.264732 163.476013 
C 100.537888 164.326708 101.852042 165.114382 103.20245 165.83619 
z
" clip-path="url(#p4b68670b0c)" style="fill: #ff8c8e"/>
   </g>
   <g id="patch_87">
    <path d="M 104.892224 149.390986 
C 104.080093 148.724487 103.301174 148.018517 102.558282 147.275624 
C 101.81539 146.532732 101.109419 145.753813 100.44292 144.941682 
L 89.617825 153.825608 
C 90.575108 154.992061 91.589084 156.110811 92.656089 157.177817 
C 93.723095 158.244823 94.841845 159.258798 96.008298 160.216082 
z
" clip-path="url(#p4b68670b0c)" style="fill: #ff8c8e"/>
   </g>
   <g id="patch_88">
    <path d="M 100.748739 144.690703 
C 100.090455 143.888582 99.471949 143.054624 98.895457 142.191842 
C 98.318964 141.32906 97.785179 140.438493 97.29603 139.52336 
L 89.821369 143.518649 
C 90.44129 144.67844 91.117779 145.807095 91.848395 146.900538 
C 92.57901 147.993981 93.36287 149.050894 94.197143 150.067459 
z
" clip-path="url(#p4b68670b0c)" style="fill: #ff8c8e"/>
   </g>
   <g id="patch_89">
    <path d="M 94.908488 140.799528 
C 94.377568 139.806246 93.895735 138.787497 93.46473 137.746959 
C 93.033725 136.706421 92.654067 135.645349 92.327128 134.567576 
L 85.556958 136.621285 
C 85.951118 137.920656 86.408836 139.199891 86.928458 140.454371 
C 87.448081 141.708851 88.028982 142.937063 88.669063 144.13457 
z
" clip-path="url(#p4b68670b0c)" style="fill: #ff8c8e"/>
   </g>
   <g id="patch_90">
    <path d="M 103.803287 131.086321 
C 103.590295 130.38418 103.411904 129.672004 103.26876 128.952367 
C 103.125615 128.232729 103.017889 127.506498 102.94597 126.776295 
L 97.88023 127.275227 
C 97.96848 128.171239 98.100668 129.062378 98.276317 129.945425 
C 98.451966 130.828473 98.670864 131.702364 98.932221 132.563943 
z
" clip-path="url(#p4b68670b0c)" style="fill: #ff8c8e"/>
   </g>
   <g id="patch_91">
    <path d="M 117.349478 125.357673 
C 117.323993 125.098919 117.311228 124.839069 117.311228 124.579062 
C 117.311228 124.319056 117.323993 124.059206 117.349478 123.800452 
L 105.613984 122.644607 
C 105.550667 123.287481 105.51895 123.933077 105.51895 124.579062 
C 105.51895 125.225048 105.550667 125.870644 105.613984 126.513518 
z
" clip-path="url(#p4b68670b0c)" style="fill: #ff8c8e"/>
   </g>
   <g id="patch_92">
    <path d="M 111.438433 123.218265 
C 111.482974 122.766033 111.549692 122.316261 111.638345 121.870572 
C 111.726997 121.424884 111.837479 120.983817 111.96939 120.548964 
L 109.710025 119.863593 
C 109.555681 120.372398 109.42641 120.888475 109.322681 121.409958 
C 109.218951 121.931442 109.140888 122.457704 109.088772 122.986843 
z
" clip-path="url(#p4b68670b0c)" style="fill: #ff8c8e"/>
   </g>
   <g id="patch_93">
    <path d="M 113.30145 120.95304 
C 113.420135 120.561788 113.557958 120.176598 113.714421 119.798863 
C 113.870885 119.421128 114.045799 119.051302 114.238533 118.690722 
L 104.656041 113.568773 
C 104.295658 114.243003 103.968595 114.93452 103.676033 115.640826 
C 103.383471 116.347133 103.125763 117.067378 102.903841 117.79896 
z
" clip-path="url(#p4b68670b0c)" style="fill: #ff8c8e"/>
   </g>
   <g id="patch_94">
    <path d="M 113.840705 118.478078 
C 114.040399 118.104477 114.258316 117.740904 114.493668 117.388675 
C 114.72902 117.036446 114.981524 116.695984 115.250268 116.368519 
L 108.115362 110.513054 
C 107.654961 111.074054 107.222381 111.657322 106.819184 112.260748 
C 106.415987 112.864175 106.04266 113.487034 105.700551 114.127075 
z
" clip-path="url(#p4b68670b0c)" style="fill: #ff8c8e"/>
   </g>
   <g id="patch_95">
    <path d="M 108.540626 110.862058 
C 108.989604 110.314977 109.465171 109.790269 109.965611 109.289829 
C 110.46605 108.78939 110.990758 108.313822 111.537839 107.864844 
L 107.884106 103.412757 
C 107.191301 103.981327 106.526829 104.583569 105.89309 105.217308 
C 105.259351 105.851048 104.657108 106.51552 104.088538 107.208324 
z
" clip-path="url(#p4b68670b0c)" style="fill: #ff8c8e"/>
   </g>
   <g id="patch_96">
    <path d="M 115.15321 112.270186 
C 115.556098 111.939545 115.974977 111.628883 116.408333 111.339324 
C 116.84169 111.049764 117.289001 110.781656 117.748653 110.535967 
L 112.92298 101.507769 
C 112.167823 101.911409 111.432937 102.351882 110.720979 102.827598 
C 110.009022 103.303313 109.320849 103.813696 108.658948 104.356905 
z
" clip-path="url(#p4b68670b0c)" style="fill: #ff8c8e"/>
   </g>
   <g id="patch_97">
    <path d="M 118.304151 111.575232 
C 118.729786 111.347725 119.166334 111.141253 119.612219 110.956562 
C 120.058104 110.77187 120.512788 110.609182 120.974629 110.469084 
L 118.673721 102.884007 
C 117.963609 103.099417 117.264502 103.349562 116.578923 103.633538 
C 115.893345 103.917514 115.222122 104.234978 114.56768 104.584785 
z
" clip-path="url(#p4b68670b0c)" style="fill: #ff8c8e"/>
   </g>
   <g id="patch_98">
    <path d="M 123.455213 118.646475 
C 123.649395 118.58757 123.846353 118.538235 124.045374 118.498647 
C 124.244395 118.45906 124.44524 118.429267 124.647183 118.409377 
L 123.290701 104.636791 
C 122.637961 104.701081 121.988771 104.797379 121.345475 104.925338 
C 120.702179 105.053298 120.065554 105.212764 119.437898 105.403162 
z
" clip-path="url(#p4b68670b0c)" style="fill: #ff8c8e"/>
   </g>
   <g id="patch_99">
    <path d="M 122.342496 95.009499 
C 123.310352 94.914174 124.282305 94.866425 125.254844 94.866425 
C 126.227383 94.866425 127.199336 94.914174 128.167192 95.009499 
L 128.222491 94.448032 
C 127.236258 94.350896 126.245849 94.302241 125.254844 94.302241 
C 124.263838 94.302241 123.27343 94.350896 122.287196 94.448032 
z
" clip-path="url(#p4b68670b0c)" style="fill: #828282"/>
   </g>
   <g id="patch_100">
    <path d="M 127.143166 105.406607 
C 127.770709 105.468415 128.394839 105.560996 129.013302 105.684016 
C 129.631765 105.807036 130.243816 105.960346 130.847243 106.143394 
L 134.161205 95.218725 
C 133.200197 94.927206 132.225456 94.683046 131.240502 94.487127 
C 130.255548 94.291207 129.261568 94.143764 128.262154 94.045331 
z
" clip-path="url(#p4b68670b0c)" style="fill: #828282"/>
   </g>
   <g id="patch_101">
    <path d="M 137.20034 85.20004 
C 138.489274 85.591034 139.758234 86.045076 141.002638 86.560524 
C 142.247041 87.075973 143.465388 87.652208 144.653276 88.287148 
L 147.965067 82.091223 
C 146.574377 81.347884 145.148029 80.673271 143.691175 80.069822 
C 142.234321 79.466374 140.748717 78.934816 139.23973 78.47707 
z
" clip-path="url(#p4b68670b0c)" style="fill: #828282"/>
   </g>
   <g id="patch_102">
    <path d="M 137.781568 101.143211 
C 138.548658 101.553229 139.295155 102.000662 140.018363 102.483894 
C 140.741571 102.967126 141.440618 103.485575 142.112978 104.037367 
L 151.598434 92.479305 
C 150.547761 91.61704 149.455387 90.80688 148.325256 90.051751 
C 147.195126 89.296621 146.028601 88.597434 144.829897 87.956713 
z
" clip-path="url(#p4b68670b0c)" style="fill: #828282"/>
   </g>
   <g id="patch_103">
    <path d="M 148.482738 96.275791 
C 149.409147 97.036075 150.297669 97.841384 151.145095 98.688811 
C 151.992522 99.536238 152.797831 100.42476 153.558115 101.351168 
L 170.899255 87.119662 
C 169.673153 85.625653 168.374438 84.192742 167.007801 82.826105 
C 165.641165 81.459468 164.208254 80.160753 162.714244 78.934651 
z
" clip-path="url(#p4b68670b0c)" style="fill: #828282"/>
   </g>
   <g id="patch_104">
    <path d="M 159.98581 96.076095 
C 160.918755 97.212891 161.795324 98.394807 162.612351 99.617574 
C 163.429377 100.840341 164.185877 102.102485 164.879118 103.399447 
L 173.283116 98.907416 
C 172.442844 97.335379 171.525897 95.805545 170.535585 94.323439 
C 169.545273 92.841332 168.482791 91.408741 167.351976 90.030839 
z
" clip-path="url(#p4b68670b0c)" style="fill: #828282"/>
   </g>
   <g id="patch_105">
    <path d="M 172.86324 99.131844 
C 173.696166 100.690138 174.452081 102.288387 175.128256 103.920819 
C 175.804431 105.55325 176.400051 107.217896 176.912964 108.908743 
L 185.720862 106.236897 
C 185.120495 104.257753 184.42332 102.30928 183.631855 100.398513 
C 182.840389 98.487746 181.955587 96.61699 180.980645 94.793001 
z
" clip-path="url(#p4b68670b0c)" style="fill: #828282"/>
   </g>
   <g id="patch_106">
    <path d="M 186.136443 106.110831 
C 186.740936 108.103577 187.247226 110.1248 187.653485 112.167201 
C 188.059743 114.209602 188.365481 116.270718 188.569593 118.343104 
L 197.740072 117.439891 
C 197.506396 115.067341 197.156376 112.707694 196.691275 110.369473 
C 196.226174 108.031252 195.646553 105.717275 194.954506 103.435901 
z
" clip-path="url(#p4b68670b0c)" style="fill: #828282"/>
   </g>
   <g id="patch_107">
    <path d="M 199.279556 117.288265 
C 199.518195 119.711204 199.63773 122.1444 199.63773 124.579062 
C 199.63773 127.013725 199.518195 129.446921 199.279556 131.86986 
L 207.964628 132.725265 
C 208.231265 130.01805 208.364825 127.299376 208.364825 124.579062 
C 208.364825 121.858749 208.231265 119.140075 207.964628 116.43286 
z
" clip-path="url(#p4b68670b0c)" style="fill: #828282"/>
   </g>
   <g id="patch_108">
    <path d="M 201.360902 132.074855 
C 201.115553 134.56592 200.748048 137.043437 200.259714 139.498459 
C 199.77138 141.95348 199.162805 144.383046 198.436188 146.778381 
L 221.492545 153.77245 
C 222.448088 150.622446 223.248399 147.427427 223.890587 144.198932 
C 224.532774 140.970437 225.016065 137.712358 225.338712 134.436463 
z
" clip-path="url(#p4b68670b0c)" style="fill: #828282"/>
   </g>
   <g id="patch_109">
    <path d="M 214.767489 151.732427 
C 213.878719 154.662309 212.846635 157.54679 211.674966 160.375449 
C 210.503297 163.204109 209.193454 165.973538 207.75017 168.673733 
L 216.677824 173.445664 
C 218.277301 170.453253 219.728895 167.384116 221.027362 164.249339 
C 222.32583 161.114561 223.469605 157.917922 224.454558 154.670967 
z
" clip-path="url(#p4b68670b0c)" style="fill: #828282"/>
   </g>
   <g id="patch_110">
    <path d="M 209.619254 169.672779 
C 208.143269 172.434152 206.532598 175.121394 204.793059 177.724799 
C 203.05352 180.328203 201.187209 182.844632 199.200868 185.264996 
L 210.966248 194.920594 
C 213.268631 192.115132 215.431886 189.19832 217.4482 186.180693 
C 219.464513 183.163067 221.331454 180.048264 223.042279 176.847536 
z
" clip-path="url(#p4b68670b0c)" style="fill: #828282"/>
   </g>
   <g id="patch_111">
    <path d="M 198.143361 184.397123 
C 196.185426 186.782873 194.111538 189.071055 191.929188 191.253406 
C 189.746837 193.435757 187.458654 195.509645 185.072904 197.46758 
L 195.300367 209.92978 
C 198.094024 207.637085 200.773431 205.208612 203.328912 202.653131 
C 205.884393 200.09765 208.312866 197.418242 210.605561 194.624586 
z
" clip-path="url(#p4b68670b0c)" style="fill: #828282"/>
   </g>
   <g id="patch_112">
    <path d="M 176.477865 186.994495 
C 174.434915 188.671101 172.310879 190.246393 170.11343 191.714682 
C 167.915981 193.18297 165.647768 194.542485 163.316983 195.788316 
L 169.899687 208.103689 
C 172.633573 206.642397 175.294065 205.047759 177.871555 203.325535 
C 180.449044 201.603312 182.940424 199.755579 185.336695 197.78901 
z
" clip-path="url(#p4b68670b0c)" style="fill: #828282"/>
   </g>
   <g id="patch_113">
    <path d="M 165.461905 199.801184 
C 162.999773 201.117221 160.474511 202.311581 157.89524 203.37995 
C 155.315969 204.448319 152.685799 205.389409 150.01423 206.19982 
L 155.865941 225.490327 
C 159.168917 224.48838 162.42071 223.32487 165.609574 222.003999 
C 168.798437 220.683128 171.920528 219.20649 174.964568 217.579416 
z
" clip-path="url(#p4b68670b0c)" style="fill: #828282"/>
   </g>
   <g id="patch_114">
    <path d="M 145.974233 192.881735 
C 143.738584 193.559911 141.470987 194.127915 139.179631 194.583694 
C 136.888275 195.039473 134.575922 195.382478 132.250925 195.61147 
L 134.417099 217.605001 
C 137.461977 217.305107 140.490296 216.855898 143.491117 216.258998 
C 146.491938 215.662098 149.461644 214.918225 152.389509 214.030067 
z
" clip-path="url(#p4b68670b0c)" style="fill: #828282"/>
   </g>
   <g id="patch_115">
    <path d="M 132.290203 196.010263 
C 129.952153 196.240541 127.604206 196.355888 125.254844 196.355888 
C 122.905481 196.355888 120.557534 196.240541 118.219485 196.010263 
L 116.03353 218.204633 
C 119.098035 218.506461 122.175511 218.657647 125.254844 218.657647 
C 128.334176 218.657647 131.411653 218.506461 134.476158 218.204633 
z
" clip-path="url(#p4b68670b0c)" style="fill: #828282"/>
   </g>
   <g id="patch_116">
    <path d="M 118.814117 189.972858 
C 116.673681 189.762043 114.544884 189.446266 112.435418 189.026667 
C 110.325952 188.607068 108.238358 188.084153 106.180177 187.459811 
L 98.337492 213.313678 
C 101.241909 214.194723 104.187832 214.932639 107.16462 215.524759 
C 110.141408 216.116879 113.145474 216.56249 116.165966 216.859982 
z
" clip-path="url(#p4b68670b0c)" style="fill: #828282"/>
   </g>
   <g id="patch_117">
    <path d="M 109.46774 176.622169 
C 107.764292 176.105433 106.08724 175.505374 104.442643 174.82416 
C 102.798046 174.142946 101.187886 173.381397 99.617979 172.542264 
L 94.835709 181.489261 
C 96.698465 182.484925 98.608982 183.388532 100.56036 184.19682 
C 102.511738 185.005107 104.501625 185.7171 106.522833 186.330227 
z
" clip-path="url(#p4b68670b0c)" style="fill: #828282"/>
   </g>
   <g id="patch_118">
    <path d="M 103.20245 165.83619 
C 101.852042 165.114382 100.537888 164.326708 99.264732 163.476013 
C 97.991577 162.625318 96.760956 161.712627 95.577314 160.741237 
L 85.493381 173.028546 
C 87.079205 174.329998 88.72797 175.552806 90.433723 176.692553 
C 92.139475 177.8323 93.900158 178.887613 95.709411 179.854679 
z
" clip-path="url(#p4b68670b0c)" style="fill: #828282"/>
   </g>
   <g id="patch_119">
    <path d="M 96.008298 160.216082 
C 94.841845 159.258798 93.723095 158.244823 92.656089 157.177817 
C 91.589084 156.110811 90.575108 154.992061 89.617825 153.825608 
L 85.086922 157.544024 
C 86.165915 158.85878 87.308807 160.119768 88.511473 161.322433 
C 89.714138 162.525099 90.975126 163.667992 92.289882 164.746984 
z
" clip-path="url(#p4b68670b0c)" style="fill: #828282"/>
   </g>
   <g id="patch_120">
    <path d="M 94.197143 150.067459 
C 93.36287 149.050894 92.57901 147.993981 91.848395 146.900538 
C 91.117779 145.807095 90.44129 144.67844 89.821369 143.518649 
L 85.077059 146.054536 
C 85.779984 147.369615 86.547051 148.649389 87.375491 149.889237 
C 88.203931 151.129085 89.092744 152.327511 90.038721 153.480187 
z
" clip-path="url(#p4b68670b0c)" style="fill: #828282"/>
   </g>
   <g id="patch_121">
    <path d="M 88.669063 144.13457 
C 88.028982 142.937063 87.448081 141.708851 86.928458 140.454371 
C 86.408836 139.199891 85.951118 137.920656 85.556958 136.621285 
L 85.556958 136.621285 
C 85.951118 137.920656 86.408836 139.199891 86.928458 140.454371 
C 87.448081 141.708851 88.028982 142.937063 88.669063 144.13457 
z
" clip-path="url(#p4b68670b0c)" style="fill: #828282"/>
   </g>
   <g id="patch_122">
    <path d="M 98.932221 132.563943 
C 98.670864 131.702364 98.451966 130.828473 98.276317 129.945425 
C 98.100668 129.062378 97.96848 128.171239 97.88023 127.275227 
L 92.443032 127.810744 
C 92.54881 128.884723 92.707254 129.952862 92.91779 131.011302 
C 93.128327 132.069742 93.390704 133.117208 93.703972 134.149915 
z
" clip-path="url(#p4b68670b0c)" style="fill: #828282"/>
   </g>
   <g id="patch_123">
    <path d="M 105.613984 126.513518 
C 105.550667 125.870644 105.51895 125.225048 105.51895 124.579062 
C 105.51895 123.933077 105.550667 123.287481 105.613984 122.644607 
L 105.613984 122.644607 
C 105.550667 123.287481 105.51895 123.933077 105.51895 124.579062 
C 105.51895 125.225048 105.550667 125.870644 105.613984 126.513518 
z
" clip-path="url(#p4b68670b0c)" style="fill: #828282"/>
   </g>
   <g id="patch_124">
    <path d="M 109.088772 122.986843 
C 109.140888 122.457704 109.218951 121.931442 109.322681 121.409958 
C 109.42641 120.888475 109.555681 120.372398 109.710025 119.863593 
L 109.710025 119.863593 
C 109.555681 120.372398 109.42641 120.888475 109.322681 121.409958 
C 109.218951 121.931442 109.140888 122.457704 109.088772 122.986843 
z
" clip-path="url(#p4b68670b0c)" style="fill: #828282"/>
   </g>
   <g id="patch_125">
    <path d="M 102.903841 117.79896 
C 103.125763 117.067378 103.383471 116.347133 103.676033 115.640826 
C 103.968595 114.93452 104.295658 114.243003 104.656041 113.568773 
L 104.656041 113.568773 
C 104.295658 114.243003 103.968595 114.93452 103.676033 115.640826 
C 103.383471 116.347133 103.125763 117.067378 102.903841 117.79896 
z
" clip-path="url(#p4b68670b0c)" style="fill: #828282"/>
   </g>
   <g id="patch_126">
    <path d="M 105.700551 114.127075 
C 106.04266 113.487034 106.415987 112.864175 106.819184 112.260748 
C 107.222381 111.657322 107.654961 111.074054 108.115362 110.513054 
L 108.115362 110.513054 
C 107.654961 111.074054 107.222381 111.657322 106.819184 112.260748 
C 106.415987 112.864175 106.04266 113.487034 105.700551 114.127075 
z
" clip-path="url(#p4b68670b0c)" style="fill: #828282"/>
   </g>
   <g id="patch_127">
    <path d="M 104.088538 107.208324 
C 104.657108 106.51552 105.259351 105.851048 105.89309 105.217308 
C 106.526829 104.583569 107.191301 103.981327 107.884106 103.412757 
L 107.884106 103.412757 
C 107.191301 103.981327 106.526829 104.583569 105.89309 105.217308 
C 105.259351 105.851048 104.657108 106.51552 104.088538 107.208324 
z
" clip-path="url(#p4b68670b0c)" style="fill: #828282"/>
   </g>
   <g id="patch_128">
    <path d="M 108.658948 104.356905 
C 109.320849 103.813696 110.009022 103.303313 110.720979 102.827598 
C 111.432937 102.351882 112.167823 101.911409 112.92298 101.507769 
L 112.92298 101.507769 
C 112.167823 101.911409 111.432937 102.351882 110.720979 102.827598 
C 110.009022 103.303313 109.320849 103.813696 108.658948 104.356905 
z
" clip-path="url(#p4b68670b0c)" style="fill: #828282"/>
   </g>
   <g id="patch_129">
    <path d="M 114.56768 104.584785 
C 115.222122 104.234978 115.893345 103.917514 116.578923 103.633538 
C 117.264502 103.349562 117.963609 103.099417 118.673721 102.884007 
L 118.673721 102.884007 
C 117.963609 103.099417 117.264502 103.349562 116.578923 103.633538 
C 115.893345 103.917514 115.222122 104.234978 114.56768 104.584785 
z
" clip-path="url(#p4b68670b0c)" style="fill: #828282"/>
   </g>
   <g id="patch_130">
    <path d="M 119.437898 105.403162 
C 120.065554 105.212764 120.702179 105.053298 121.345475 104.925338 
C 121.988771 104.797379 122.637961 104.701081 123.290701 104.636791 
L 123.290701 104.636791 
C 122.637961 104.701081 121.988771 104.797379 121.345475 104.925338 
C 120.702179 105.053298 120.065554 105.212764 119.437898 105.403162 
z
" clip-path="url(#p4b68670b0c)" style="fill: #828282"/>
   </g>
   <g id="patch_131">
    <path d="M 125.254844 124.579062 
C 125.254844 124.579062 125.254844 124.579062 125.254844 124.579062 
C 125.254844 124.579062 125.254844 124.579062 125.254844 124.579062 
L 128.222491 94.448032 
C 127.236258 94.350896 126.245849 94.302241 125.254844 94.302241 
C 124.263838 94.302241 123.27343 94.350896 122.287196 94.448032 
L 125.254844 124.579062 
z
" clip-path="url(#p4b68670b0c)" style="fill: none; stroke: #292929; stroke-width: 0.5; stroke-linejoin: miter"/>
   </g>
   <g id="patch_132">
    <path d="M 125.254844 124.579062 
C 125.254844 124.579062 125.254844 124.579062 125.254844 124.579062 
C 125.254844 124.579062 125.254844 124.579062 125.254844 124.579062 
L 134.161205 95.218725 
C 133.200197 94.927206 132.225456 94.683046 131.240502 94.487127 
C 130.255548 94.291207 129.261568 94.143764 128.262154 94.045331 
L 125.254844 124.579062 
z
" clip-path="url(#p4b68670b0c)" style="fill: none; stroke: #292929; stroke-width: 0.5; stroke-linejoin: miter"/>
   </g>
   <g id="patch_133">
    <path d="M 125.254844 124.579062 
C 125.254844 124.579062 125.254844 124.579062 125.254844 124.579062 
C 125.254844 124.579062 125.254844 124.579062 125.254844 124.579062 
L 147.965067 82.091223 
C 146.574377 81.347884 145.148029 80.673271 143.691175 80.069822 
C 142.234321 79.466374 140.748717 78.934816 139.23973 78.47707 
L 125.254844 124.579062 
z
" clip-path="url(#p4b68670b0c)" style="fill: none; stroke: #292929; stroke-width: 0.5; stroke-linejoin: miter"/>
   </g>
   <g id="patch_134">
    <path d="M 125.254844 124.579062 
C 125.254844 124.579062 125.254844 124.579062 125.254844 124.579062 
C 125.254844 124.579062 125.254844 124.579062 125.254844 124.579062 
L 151.598434 92.479305 
C 150.547761 91.61704 149.455387 90.80688 148.325256 90.051751 
C 147.195126 89.296621 146.028601 88.597434 144.829897 87.956713 
L 125.254844 124.579062 
z
" clip-path="url(#p4b68670b0c)" style="fill: none; stroke: #292929; stroke-width: 0.5; stroke-linejoin: miter"/>
   </g>
   <g id="patch_135">
    <path d="M 125.254844 124.579062 
C 125.254844 124.579062 125.254844 124.579062 125.254844 124.579062 
C 125.254844 124.579062 125.254844 124.579062 125.254844 124.579062 
L 170.899255 87.119662 
C 169.673153 85.625653 168.374438 84.192742 167.007801 82.826105 
C 165.641165 81.459468 164.208254 80.160753 162.714244 78.934651 
L 125.254844 124.579062 
z
" clip-path="url(#p4b68670b0c)" style="fill: none; stroke: #292929; stroke-width: 0.5; stroke-linejoin: miter"/>
   </g>
   <g id="patch_136">
    <path d="M 125.254844 124.579062 
C 125.254844 124.579062 125.254844 124.579062 125.254844 124.579062 
C 125.254844 124.579062 125.254844 124.579062 125.254844 124.579062 
L 173.283116 98.907416 
C 172.442844 97.335379 171.525897 95.805545 170.535585 94.323439 
C 169.545273 92.841332 168.482791 91.408741 167.351976 90.030839 
L 125.254844 124.579062 
z
" clip-path="url(#p4b68670b0c)" style="fill: none; stroke: #292929; stroke-width: 0.5; stroke-linejoin: miter"/>
   </g>
   <g id="patch_137">
    <path d="M 125.254844 124.579062 
C 125.254844 124.579062 125.254844 124.579062 125.254844 124.579062 
C 125.254844 124.579062 125.254844 124.579062 125.254844 124.579062 
L 185.720862 106.236897 
C 185.120495 104.257753 184.42332 102.30928 183.631855 100.398513 
C 182.840389 98.487746 181.955587 96.61699 180.980645 94.793001 
L 125.254844 124.579062 
z
" clip-path="url(#p4b68670b0c)" style="fill: none; stroke: #292929; stroke-width: 0.5; stroke-linejoin: miter"/>
   </g>
   <g id="patch_138">
    <path d="M 125.254844 124.579062 
C 125.254844 124.579062 125.254844 124.579062 125.254844 124.579062 
C 125.254844 124.579062 125.254844 124.579062 125.254844 124.579062 
L 197.740072 117.439891 
C 197.506396 115.067341 197.156376 112.707694 196.691275 110.369473 
C 196.226174 108.031252 195.646553 105.717275 194.954506 103.435901 
L 125.254844 124.579062 
z
" clip-path="url(#p4b68670b0c)" style="fill: none; stroke: #292929; stroke-width: 0.5; stroke-linejoin: miter"/>
   </g>
   <g id="patch_139">
    <path d="M 125.254844 124.579062 
C 125.254844 124.579062 125.254844 124.579062 125.254844 124.579062 
C 125.254844 124.579062 125.254844 124.579062 125.254844 124.579062 
L 207.964628 132.725265 
C 208.231265 130.01805 208.364825 127.299376 208.364825 124.579062 
C 208.364825 121.858749 208.231265 119.140075 207.964628 116.43286 
L 125.254844 124.579062 
z
" clip-path="url(#p4b68670b0c)" style="fill: none; stroke: #292929; stroke-width: 0.5; stroke-linejoin: miter"/>
   </g>
   <g id="patch_140">
    <path d="M 125.254844 124.579062 
C 125.254844 124.579062 125.254844 124.579062 125.254844 124.579062 
C 125.254844 124.579062 125.254844 124.579062 125.254844 124.579062 
L 221.492545 153.77245 
C 222.448088 150.622446 223.248399 147.427427 223.890587 144.198932 
C 224.532774 140.970437 225.016065 137.712358 225.338712 134.436463 
L 125.254844 124.579062 
z
" clip-path="url(#p4b68670b0c)" style="fill: none; stroke: #292929; stroke-width: 0.5; stroke-linejoin: miter"/>
   </g>
   <g id="patch_141">
    <path d="M 125.254844 124.579062 
C 125.254844 124.579062 125.254844 124.579062 125.254844 124.579062 
C 125.254844 124.579062 125.254844 124.579062 125.254844 124.579062 
L 216.677824 173.445664 
C 218.277301 170.453253 219.728895 167.384116 221.027362 164.249339 
C 222.32583 161.114561 223.469605 157.917922 224.454558 154.670967 
L 125.254844 124.579062 
z
" clip-path="url(#p4b68670b0c)" style="fill: none; stroke: #292929; stroke-width: 0.5; stroke-linejoin: miter"/>
   </g>
   <g id="patch_142">
    <path d="M 125.254844 124.579062 
C 125.254844 124.579062 125.254844 124.579062 125.254844 124.579062 
C 125.254844 124.579062 125.254844 124.579062 125.254844 124.579062 
L 210.966248 194.920594 
C 213.268631 192.115132 215.431886 189.19832 217.4482 186.180693 
C 219.464513 183.163067 221.331454 180.048264 223.042279 176.847536 
L 125.254844 124.579062 
z
" clip-path="url(#p4b68670b0c)" style="fill: none; stroke: #292929; stroke-width: 0.5; stroke-linejoin: miter"/>
   </g>
   <g id="patch_143">
    <path d="M 125.254844 124.579062 
C 125.254844 124.579062 125.254844 124.579062 125.254844 124.579062 
C 125.254844 124.579062 125.254844 124.579062 125.254844 124.579062 
L 195.300367 209.92978 
C 198.094024 207.637085 200.773431 205.208612 203.328912 202.653131 
C 205.884393 200.09765 208.312866 197.418242 210.605561 194.624586 
L 125.254844 124.579062 
z
" clip-path="url(#p4b68670b0c)" style="fill: none; stroke: #292929; stroke-width: 0.5; stroke-linejoin: miter"/>
   </g>
   <g id="patch_144">
    <path d="M 125.254844 124.579062 
C 125.254844 124.579062 125.254844 124.579062 125.254844 124.579062 
C 125.254844 124.579062 125.254844 124.579062 125.254844 124.579062 
L 169.899687 208.103689 
C 172.633573 206.642397 175.294065 205.047759 177.871555 203.325535 
C 180.449044 201.603312 182.940424 199.755579 185.336695 197.78901 
L 125.254844 124.579062 
z
" clip-path="url(#p4b68670b0c)" style="fill: none; stroke: #292929; stroke-width: 0.5; stroke-linejoin: miter"/>
   </g>
   <g id="patch_145">
    <path d="M 125.254844 124.579062 
C 125.254844 124.579062 125.254844 124.579062 125.254844 124.579062 
C 125.254844 124.579062 125.254844 124.579062 125.254844 124.579062 
L 155.865941 225.490327 
C 159.168917 224.48838 162.42071 223.32487 165.609574 222.003999 
C 168.798437 220.683128 171.920528 219.20649 174.964568 217.579416 
L 125.254844 124.579062 
z
" clip-path="url(#p4b68670b0c)" style="fill: none; stroke: #292929; stroke-width: 0.5; stroke-linejoin: miter"/>
   </g>
   <g id="patch_146">
    <path d="M 125.254844 124.579062 
C 125.254844 124.579062 125.254844 124.579062 125.254844 124.579062 
C 125.254844 124.579062 125.254844 124.579062 125.254844 124.579062 
L 134.417099 217.605001 
C 137.461977 217.305107 140.490296 216.855898 143.491117 216.258998 
C 146.491938 215.662098 149.461644 214.918225 152.389509 214.030067 
L 125.254844 124.579062 
z
" clip-path="url(#p4b68670b0c)" style="fill: none; stroke: #292929; stroke-width: 0.5; stroke-linejoin: miter"/>
   </g>
   <g id="patch_147">
    <path d="M 125.254844 124.579062 
C 125.254844 124.579062 125.254844 124.579062 125.254844 124.579062 
C 125.254844 124.579062 125.254844 124.579062 125.254844 124.579062 
L 116.03353 218.204633 
C 119.098035 218.506461 122.175511 218.657647 125.254844 218.657647 
C 128.334176 218.657647 131.411653 218.506461 134.476158 218.204633 
L 125.254844 124.579062 
z
" clip-path="url(#p4b68670b0c)" style="fill: none; stroke: #292929; stroke-width: 0.5; stroke-linejoin: miter"/>
   </g>
   <g id="patch_148">
    <path d="M 125.254844 124.579062 
C 125.254844 124.579062 125.254844 124.579062 125.254844 124.579062 
C 125.254844 124.579062 125.254844 124.579062 125.254844 124.579062 
L 98.337492 213.313678 
C 101.241909 214.194723 104.187832 214.932639 107.16462 215.524759 
C 110.141408 216.116879 113.145474 216.56249 116.165966 216.859982 
L 125.254844 124.579062 
z
" clip-path="url(#p4b68670b0c)" style="fill: none; stroke: #292929; stroke-width: 0.5; stroke-linejoin: miter"/>
   </g>
   <g id="patch_149">
    <path d="M 125.254844 124.579062 
C 125.254844 124.579062 125.254844 124.579062 125.254844 124.579062 
C 125.254844 124.579062 125.254844 124.579062 125.254844 124.579062 
L 94.835709 181.489261 
C 96.698465 182.484925 98.608982 183.388532 100.56036 184.19682 
C 102.511738 185.005107 104.501625 185.7171 106.522833 186.330227 
L 125.254844 124.579062 
z
" clip-path="url(#p4b68670b0c)" style="fill: none; stroke: #292929; stroke-width: 0.5; stroke-linejoin: miter"/>
   </g>
   <g id="patch_150">
    <path d="M 125.254844 124.579062 
C 125.254844 124.579062 125.254844 124.579062 125.254844 124.579062 
C 125.254844 124.579062 125.254844 124.579062 125.254844 124.579062 
L 85.493381 173.028546 
C 87.079205 174.329998 88.72797 175.552806 90.433723 176.692553 
C 92.139475 177.8323 93.900158 178.887613 95.709411 179.854679 
L 125.254844 124.579062 
z
" clip-path="url(#p4b68670b0c)" style="fill: none; stroke: #292929; stroke-width: 0.5; stroke-linejoin: miter"/>
   </g>
   <g id="patch_151">
    <path d="M 125.254844 124.579062 
C 125.254844 124.579062 125.254844 124.579062 125.254844 124.579062 
C 125.254844 124.579062 125.254844 124.579062 125.254844 124.579062 
L 85.086922 157.544024 
C 86.165915 158.85878 87.308807 160.119768 88.511473 161.322433 
C 89.714138 162.525099 90.975126 163.667992 92.289882 164.746984 
L 125.254844 124.579062 
z
" clip-path="url(#p4b68670b0c)" style="fill: none; stroke: #292929; stroke-width: 0.5; stroke-linejoin: miter"/>
   </g>
   <g id="patch_152">
    <path d="M 125.254844 124.579062 
C 125.254844 124.579062 125.254844 124.579062 125.254844 124.579062 
C 125.254844 124.579062 125.254844 124.579062 125.254844 124.579062 
L 85.077059 146.054536 
C 85.779984 147.369615 86.547051 148.649389 87.375491 149.889237 
C 88.203931 151.129085 89.092744 152.327511 90.038721 153.480187 
L 125.254844 124.579062 
z
" clip-path="url(#p4b68670b0c)" style="fill: none; stroke: #292929; stroke-width: 0.5; stroke-linejoin: miter"/>
   </g>
   <g id="patch_153">
    <path d="M 125.254844 124.579062 
C 125.254844 124.579062 125.254844 124.579062 125.254844 124.579062 
C 125.254844 124.579062 125.254844 124.579062 125.254844 124.579062 
L 85.556958 136.621285 
C 85.951118 137.920656 86.408836 139.199891 86.928458 140.454371 
C 87.448081 141.708851 88.028982 142.937063 88.669063 144.13457 
L 125.254844 124.579062 
z
" clip-path="url(#p4b68670b0c)" style="fill: none; stroke: #292929; stroke-width: 0.5; stroke-linejoin: miter"/>
   </g>
   <g id="patch_154">
    <path d="M 125.254844 124.579062 
C 125.254844 124.579062 125.254844 124.579062 125.254844 124.579062 
C 125.254844 124.579062 125.254844 124.579062 125.254844 124.579062 
L 92.443032 127.810744 
C 92.54881 128.884723 92.707254 129.952862 92.91779 131.011302 
C 93.128327 132.069742 93.390704 133.117208 93.703972 134.149915 
L 125.254844 124.579062 
z
" clip-path="url(#p4b68670b0c)" style="fill: none; stroke: #292929; stroke-width: 0.5; stroke-linejoin: miter"/>
   </g>
   <g id="patch_155">
    <path d="M 125.254844 124.579062 
C 125.254844 124.579062 125.254844 124.579062 125.254844 124.579062 
C 125.254844 124.579062 125.254844 124.579062 125.254844 124.579062 
L 105.613984 122.644607 
C 105.550667 123.287481 105.51895 123.933077 105.51895 124.579062 
C 105.51895 125.225048 105.550667 125.870644 105.613984 126.513518 
L 125.254844 124.579062 
z
" clip-path="url(#p4b68670b0c)" style="fill: none; stroke: #292929; stroke-width: 0.5; stroke-linejoin: miter"/>
   </g>
   <g id="patch_156">
    <path d="M 125.254844 124.579062 
C 125.254844 124.579062 125.254844 124.579062 125.254844 124.579062 
C 125.254844 124.579062 125.254844 124.579062 125.254844 124.579062 
L 109.710025 119.863593 
C 109.555681 120.372398 109.42641 120.888475 109.322681 121.409958 
C 109.218951 121.931442 109.140888 122.457704 109.088772 122.986843 
L 125.254844 124.579062 
z
" clip-path="url(#p4b68670b0c)" style="fill: none; stroke: #292929; stroke-width: 0.5; stroke-linejoin: miter"/>
   </g>
   <g id="patch_157">
    <path d="M 125.254844 124.579062 
C 125.254844 124.579062 125.254844 124.579062 125.254844 124.579062 
C 125.254844 124.579062 125.254844 124.579062 125.254844 124.579062 
L 104.656041 113.568773 
C 104.295658 114.243003 103.968595 114.93452 103.676033 115.640826 
C 103.383471 116.347133 103.125763 117.067378 102.903841 117.79896 
L 125.254844 124.579062 
z
" clip-path="url(#p4b68670b0c)" style="fill: none; stroke: #292929; stroke-width: 0.5; stroke-linejoin: miter"/>
   </g>
   <g id="patch_158">
    <path d="M 125.254844 124.579062 
C 125.254844 124.579062 125.254844 124.579062 125.254844 124.579062 
C 125.254844 124.579062 125.254844 124.579062 125.254844 124.579062 
L 108.115362 110.513054 
C 107.654961 111.074054 107.222381 111.657322 106.819184 112.260748 
C 106.415987 112.864175 106.04266 113.487034 105.700551 114.127075 
L 125.254844 124.579062 
z
" clip-path="url(#p4b68670b0c)" style="fill: none; stroke: #292929; stroke-width: 0.5; stroke-linejoin: miter"/>
   </g>
   <g id="patch_159">
    <path d="M 125.254844 124.579062 
C 125.254844 124.579062 125.254844 124.579062 125.254844 124.579062 
C 125.254844 124.579062 125.254844 124.579062 125.254844 124.579062 
L 107.884106 103.412757 
C 107.191301 103.981327 106.526829 104.583569 105.89309 105.217308 
C 105.259351 105.851048 104.657108 106.51552 104.088538 107.208324 
L 125.254844 124.579062 
z
" clip-path="url(#p4b68670b0c)" style="fill: none; stroke: #292929; stroke-width: 0.5; stroke-linejoin: miter"/>
   </g>
   <g id="patch_160">
    <path d="M 125.254844 124.579062 
C 125.254844 124.579062 125.254844 124.579062 125.254844 124.579062 
C 125.254844 124.579062 125.254844 124.579062 125.254844 124.579062 
L 112.92298 101.507769 
C 112.167823 101.911409 111.432937 102.351882 110.720979 102.827598 
C 110.009022 103.303313 109.320849 103.813696 108.658948 104.356905 
L 125.254844 124.579062 
z
" clip-path="url(#p4b68670b0c)" style="fill: none; stroke: #292929; stroke-width: 0.5; stroke-linejoin: miter"/>
   </g>
   <g id="patch_161">
    <path d="M 125.254844 124.579062 
C 125.254844 124.579062 125.254844 124.579062 125.254844 124.579062 
C 125.254844 124.579062 125.254844 124.579062 125.254844 124.579062 
L 118.673721 102.884007 
C 117.963609 103.099417 117.264502 103.349562 116.578923 103.633538 
C 115.893345 103.917514 115.222122 104.234978 114.56768 104.584785 
L 125.254844 124.579062 
z
" clip-path="url(#p4b68670b0c)" style="fill: none; stroke: #292929; stroke-width: 0.5; stroke-linejoin: miter"/>
   </g>
   <g id="patch_162">
    <path d="M 125.254844 124.579062 
C 125.254844 124.579062 125.254844 124.579062 125.254844 124.579062 
C 125.254844 124.579062 125.254844 124.579062 125.254844 124.579062 
L 123.290701 104.636791 
C 122.637961 104.701081 121.988771 104.797379 121.345475 104.925338 
C 120.702179 105.053298 120.065554 105.212764 119.437898 105.403162 
L 125.254844 124.579062 
z
" clip-path="url(#p4b68670b0c)" style="fill: none; stroke: #292929; stroke-width: 0.5; stroke-linejoin: miter"/>
   </g>
   <g id="PathCollection_1">
    <defs>
     <path id="mb647d8ada4" d="M 0.193618 7.414054 
L 0.193618 7.414054 
C 0.054922 7.414054 -0.078235 7.358899 -0.176308 7.260826 
C -0.274381 7.162753 -0.329536 7.029596 -0.329536 6.890901 
L -0.329536 5.365008 
L -1.528416 6.56393 
L -1.528416 6.56393 
C -1.577018 6.612704 -1.634775 6.651408 -1.698366 6.677814 
C -1.761958 6.704221 -1.830141 6.717815 -1.898997 6.717815 
C -1.967853 6.717815 -2.036037 6.704221 -2.099628 6.677814 
C -2.163219 6.651408 -2.220976 6.612704 -2.269578 6.56393 
L -2.269578 6.56393 
C -2.318353 6.515327 -2.357056 6.457571 -2.383463 6.393979 
C -2.409869 6.330388 -2.423463 6.262205 -2.423463 6.193348 
C -2.423463 6.124492 -2.409869 6.056309 -2.383463 5.992718 
C -2.357056 5.929126 -2.318353 5.87137 -2.269578 5.822767 
L -0.329536 3.884106 
L -0.329536 0.820937 
L -2.98067 2.351538 
L -3.691824 5.001416 
L -3.691824 5.001416 
C -3.727584 5.135411 -3.815199 5.249836 -3.93523 5.319305 
C -4.055261 5.388775 -4.198123 5.407741 -4.332122 5.371997 
L -4.332122 5.371997 
C -4.466126 5.336237 -4.580558 5.248616 -4.650029 5.128576 
C -4.719499 5.008535 -4.73846 4.865662 -4.702703 4.731657 
L -4.262647 3.092721 
L -5.585535 3.855668 
L -5.585535 3.855668 
C -5.645013 3.890144 -5.710708 3.912561 -5.778854 3.921634 
C -5.847001 3.930706 -5.916272 3.926258 -5.982698 3.908543 
C -6.049125 3.890828 -6.111412 3.860192 -6.165991 3.818391 
C -6.220571 3.77659 -6.266379 3.724437 -6.300791 3.664922 
L -6.300791 3.664922 
C -6.335212 3.605364 -6.35755 3.539597 -6.366524 3.471396 
C -6.375498 3.403194 -6.370933 3.333888 -6.35309 3.267452 
C -6.335248 3.201017 -6.304476 3.138749 -6.26254 3.08422 
C -6.220605 3.029692 -6.168323 2.983966 -6.108695 2.949666 
L -4.785807 2.186762 
L -6.424743 1.746706 
L -6.424743 1.746706 
C -6.558747 1.710946 -6.673179 1.623325 -6.74265 1.503284 
C -6.81212 1.383244 -6.831081 1.240371 -6.795324 1.106366 
L -6.795324 1.106366 
C -6.777471 1.039969 -6.746703 0.977739 -6.704784 0.923241 
C -6.662864 0.868744 -6.61061 0.823041 -6.551015 0.788752 
C -6.491421 0.754464 -6.425647 0.732257 -6.357465 0.723406 
C -6.289282 0.714554 -6.220019 0.71923 -6.153645 0.737166 
L -3.505232 1.44698 
L -0.852424 -0.08496 
L -3.503767 -1.615666 
L -6.153645 -0.905851 
L -6.153645 -0.905851 
C -6.22011 -0.887939 -6.289462 -0.883321 -6.357716 -0.892262 
C -6.42597 -0.901202 -6.491793 -0.923527 -6.551403 -0.957953 
C -6.611013 -0.992379 -6.663247 -1.038234 -6.705103 -1.092883 
C -6.746958 -1.147533 -6.777619 -1.209911 -6.795324 -1.276432 
L -6.795324 -1.276432 
C -6.831068 -1.410431 -6.812101 -1.553293 -6.742632 -1.673324 
C -6.673162 -1.793355 -6.558738 -1.88097 -6.424743 -1.91673 
L -4.785807 -2.355447 
L -6.108695 -3.119732 
L -6.108695 -3.119732 
C -6.228699 -3.188976 -6.316415 -3.303132 -6.352417 -3.436921 
C -6.388419 -3.57071 -6.369839 -3.713469 -6.300791 -3.833586 
L -6.300791 -3.833586 
C -6.266491 -3.893214 -6.220765 -3.945496 -6.166237 -3.987431 
C -6.111708 -4.029367 -6.04944 -4.060139 -5.983005 -4.077981 
C -5.91657 -4.095823 -5.847263 -4.100389 -5.779062 -4.091415 
C -5.71086 -4.082441 -5.645094 -4.060102 -5.585535 -4.025682 
L -4.262647 -3.261396 
L -4.702703 -4.900332 
L -4.702703 -4.900332 
C -4.73846 -5.034337 -4.719499 -5.17721 -4.650029 -5.29725 
C -4.580558 -5.417291 -4.466126 -5.504912 -4.332122 -5.540672 
L -4.332122 -5.540672 
C -4.19831 -5.576464 -4.055613 -5.557686 -3.935617 -5.488496 
C -3.81562 -5.419305 -3.727882 -5.305212 -3.691824 -5.171472 
L -2.982009 -2.521594 
L -0.329411 -0.990302 
L -0.329411 -4.051588 
L -2.269453 -5.991589 
L -2.269453 -5.991589 
C -2.318227 -6.040191 -2.356931 -6.097947 -2.383337 -6.161539 
C -2.409744 -6.22513 -2.423338 -6.293314 -2.423338 -6.36217 
C -2.423338 -6.431026 -2.409744 -6.499209 -2.383337 -6.5628 
C -2.356931 -6.626392 -2.318227 -6.684149 -2.269453 -6.732751 
L -2.269453 -6.732751 
C -2.22085 -6.781526 -2.163094 -6.820229 -2.099502 -6.846635 
C -2.035911 -6.873042 -1.967728 -6.886636 -1.898871 -6.886636 
C -1.830015 -6.886636 -1.761832 -6.873042 -1.698241 -6.846635 
C -1.634649 -6.820229 -1.576893 -6.781526 -1.52829 -6.732751 
L -0.329411 -5.533829 
L -0.329411 -7.059722 
L -0.329411 -7.059722 
C -0.329411 -7.198418 -0.274255 -7.331575 -0.176182 -7.429647 
C -0.07811 -7.52772 0.055047 -7.582875 0.193743 -7.582875 
L 0.193743 -7.582875 
C 0.332439 -7.582875 0.465596 -7.52772 0.563669 -7.429647 
C 0.661741 -7.331575 0.716897 -7.198418 0.716897 -7.059722 
L 0.716897 -5.533829 
L 1.915777 -6.732751 
L 1.915777 -6.732751 
C 1.964379 -6.781526 2.022136 -6.820229 2.085727 -6.846635 
C 2.149318 -6.873042 2.217502 -6.886636 2.286358 -6.886636 
C 2.355214 -6.886636 2.423397 -6.873042 2.486989 -6.846635 
C 2.55058 -6.820229 2.608337 -6.781526 2.656939 -6.732751 
L 2.656939 -6.732751 
C 2.705714 -6.684149 2.744417 -6.626392 2.770823 -6.5628 
C 2.79723 -6.499209 2.810824 -6.431026 2.810824 -6.36217 
C 2.810824 -6.293314 2.79723 -6.22513 2.770823 -6.161539 
C 2.744417 -6.097947 2.705714 -6.040191 2.656939 -5.991589 
L 0.716897 -4.051588 
L 0.716897 -0.991139 
L 3.369495 -2.522954 
L 4.07931 -5.171367 
L 4.07931 -5.171367 
C 4.115368 -5.305107 4.203106 -5.4192 4.323103 -5.488391 
C 4.4431 -5.557582 4.585797 -5.576359 4.719608 -5.540567 
L 4.719608 -5.540567 
C 4.853612 -5.504807 4.968045 -5.417186 5.037515 -5.297146 
C 5.106986 -5.177105 5.125946 -5.034232 5.090189 -4.900227 
L 4.650133 -3.262673 
L 5.973022 -4.025577 
L 5.973022 -4.025577 
C 6.03258 -4.059998 6.098346 -4.082336 6.166548 -4.09131 
C 6.234749 -4.100284 6.304056 -4.095719 6.370491 -4.077876 
C 6.436926 -4.060034 6.499194 -4.029262 6.553723 -3.987327 
C 6.608252 -3.945391 6.653978 -3.893109 6.688277 -3.833481 
L 6.688277 -3.833481 
C 6.757325 -3.713365 6.775905 -3.570605 6.739903 -3.436816 
C 6.703901 -3.303027 6.616186 -3.188871 6.496181 -3.119628 
L 5.173293 -2.355342 
L 6.812229 -1.916625 
L 6.812229 -1.916625 
C 6.946224 -1.880865 7.060649 -1.79325 7.130118 -1.67322 
C 7.199588 -1.553189 7.218554 -1.410326 7.18281 -1.276327 
L 7.18281 -1.276327 
C 7.165106 -1.209806 7.134445 -1.147429 7.092589 -1.092779 
C 7.050733 -1.038129 6.998499 -0.992274 6.938889 -0.957848 
C 6.879279 -0.923422 6.813456 -0.901098 6.745202 -0.892157 
C 6.676949 -0.883217 6.607597 -0.887835 6.541131 -0.905746 
L 3.891253 -1.615561 
L 1.239492 -0.084604 
L 3.892718 1.447085 
L 6.541131 0.73727 
L 6.541131 0.73727 
C 6.674948 0.701466 6.817656 0.720237 6.937662 0.789429 
C 7.057669 0.858621 7.145413 0.972721 7.181471 1.10647 
L 7.181471 1.10647 
C 7.217274 1.240293 7.198497 1.383006 7.129297 1.503014 
C 7.060096 1.623021 6.945986 1.710762 6.812229 1.74681 
L 5.173293 2.186866 
L 6.496181 2.949771 
L 6.496181 2.949771 
C 6.555697 2.984183 6.607849 3.029991 6.649651 3.08457 
C 6.691452 3.13915 6.722088 3.201437 6.739803 3.267863 
C 6.757517 3.33429 6.761966 3.403561 6.752893 3.471707 
C 6.743821 3.539854 6.721404 3.605549 6.686927 3.665026 
L 6.686927 3.665026 
C 6.617458 3.784813 6.503196 3.87225 6.369416 3.907994 
C 6.235636 3.943739 6.092989 3.924946 5.973032 3.855772 
L 4.650144 3.091487 
L 5.08886 4.731783 
L 5.08886 4.731783 
C 5.124664 4.865606 5.105887 5.008319 5.036686 5.128326 
C 4.967486 5.248334 4.853376 5.336074 4.719619 5.372123 
L 4.719619 5.372123 
C 4.585619 5.407867 4.442757 5.3889 4.322726 5.319431 
C 4.202695 5.249961 4.115081 5.135537 4.07932 5.001542 
L 3.368166 2.351664 
L 0.717033 0.821063 
L 0.717033 3.884232 
L 2.657075 5.822893 
L 2.657075 5.822893 
C 2.70585 5.871495 2.744553 5.929252 2.770959 5.992843 
C 2.797366 6.056435 2.81096 6.124618 2.81096 6.193474 
C 2.81096 6.26233 2.797366 6.330514 2.770959 6.394105 
C 2.744553 6.457696 2.70585 6.515453 2.657075 6.564055 
L 2.657075 6.564055 
C 2.608473 6.61283 2.550716 6.651533 2.487125 6.67794 
C 2.423533 6.704346 2.35535 6.71794 2.286494 6.71794 
C 2.217638 6.71794 2.149454 6.704346 2.085863 6.67794 
C 2.022272 6.651533 1.964515 6.61283 1.915913 6.564055 
L 0.717033 5.365133 
L 0.717033 6.891026 
L 0.717033 6.891026 
C 0.717033 7.029722 0.661877 7.162879 0.563805 7.260952 
C 0.465732 7.359024 0.332575 7.41418 0.193879 7.41418 
L 0.193618 7.414054 
z
"/>
    </defs>
    <g clip-path="url(#p4b68670b0c)">
     <use xlink:href="#mb647d8ada4" x="171.428854" y="173.337997" style="fill: #9e2096; fill-opacity: 0.7"/>
    </g>
   </g>
   <g id="patch_163">
    <path d="M 125.254844 13.699062 
C 110.694216 13.699062 96.275171 16.567189 82.822905 22.1393 
C 69.370638 27.711411 57.146763 35.879144 46.850844 46.175063 
C 36.554925 56.470982 28.387192 68.694857 22.815081 82.147124 
C 17.24297 95.59939 14.374844 110.018434 14.374844 124.579063 
C 14.374844 139.139691 17.24297 153.558735 22.815081 167.011001 
C 28.387192 180.463268 36.554925 192.687143 46.850844 202.983062 
C 57.146763 213.278981 69.370638 221.446714 82.822905 227.018825 
C 96.275171 232.590936 110.694216 235.459063 125.254844 235.459063 
C 139.815472 235.459063 154.234516 232.590936 167.686783 227.018825 
C 181.139049 221.446714 193.362925 213.278981 203.658844 202.983062 
C 213.954763 192.687143 222.122495 180.463268 227.694606 167.011001 
C 233.266717 153.558735 236.134844 139.139691 236.134844 124.579062 
C 236.134844 110.018434 233.266717 95.59939 227.694606 82.147124 
C 222.122495 68.694857 213.954763 56.470982 203.658844 46.175063 
C 193.362925 35.879144 181.139049 27.711411 167.686783 22.1393 
C 154.234516 16.567189 139.815472 13.699062 125.254844 13.699062 
" style="fill: none; stroke: #000000; stroke-width: 0.8; stroke-linejoin: miter; stroke-linecap: square"/>
   </g>
  </g>
 </g>
 <defs>
  <clipPath id="p4b68670b0c">
   <path d="M 236.134844 124.579063 
C 236.134844 110.018434 233.266717 95.59939 227.694606 82.147124 
C 222.122495 68.694857 213.954763 56.470982 203.658844 46.175063 
C 193.362925 35.879144 181.139049 27.711411 167.686783 22.1393 
C 154.234516 16.567189 139.815472 13.699062 125.254844 13.699062 
C 110.694216 13.699062 96.275171 16.567189 82.822905 22.1393 
C 69.370638 27.711411 57.146763 35.879144 46.850844 46.175063 
C 36.554925 56.470982 28.387192 68.694857 22.815081 82.147124 
C 17.24297 95.59939 14.374844 110.018434 14.374844 124.579062 
C 14.374844 139.139691 17.24297 153.558735 22.815081 167.011001 
C 28.387192 180.463268 36.554925 192.687143 46.850844 202.983062 
C 57.146763 213.278981 69.370638 221.446714 82.822905 227.018825 
C 96.275171 232.590936 110.694216 235.459063 125.254844 235.459063 
C 139.815472 235.459063 154.234516 232.590936 167.686783 227.018825 
C 181.139049 221.446714 193.362925 213.278981 203.658844 202.983062 
C 213.954763 192.687143 222.122495 180.463268 227.694606 167.011001 
C 233.266717 153.558735 236.134844 139.139691 236.134844 124.579063 
M 125.254844 124.579063 
C 125.254844 124.579063 125.254844 124.579063 125.254844 124.579063 
C 125.254844 124.579063 125.254844 124.579063 125.254844 124.579063 
C 125.254844 124.579063 125.254844 124.579063 125.254844 124.579063 
C 125.254844 124.579063 125.254844 124.579063 125.254844 124.579063 
C 125.254844 124.579063 125.254844 124.579063 125.254844 124.579063 
C 125.254844 124.579063 125.254844 124.579063 125.254844 124.579063 
C 125.254844 124.579063 125.254844 124.579063 125.254844 124.579063 
C 125.254844 124.579063 125.254844 124.579063 125.254844 124.579063 
C 125.254844 124.579063 125.254844 124.579063 125.254844 124.579063 
C 125.254844 124.579063 125.254844 124.579063 125.254844 124.579063 
C 125.254844 124.579063 125.254844 124.579063 125.254844 124.579063 
C 125.254844 124.579063 125.254844 124.579063 125.254844 124.579063 
C 125.254844 124.579063 125.254844 124.579063 125.254844 124.579063 
C 125.254844 124.579063 125.254844 124.579063 125.254844 124.579063 
C 125.254844 124.579063 125.254844 124.579063 125.254844 124.579063 
C 125.254844 124.579063 125.254844 124.579063 125.254844 124.579063 
z
"/>
  </clipPath>
 </defs>
</svg>
