<?xml version="1.0" encoding="utf-8" standalone="no"?>
<!DOCTYPE svg PUBLIC "-//W3C//DTD SVG 1.1//EN"
  "http://www.w3.org/Graphics/SVG/1.1/DTD/svg11.dtd">
<svg xmlns:xlink="http://www.w3.org/1999/xlink" width="248.410469pt" height="249.158125pt" viewBox="0 0 248.410469 249.158125" xmlns="http://www.w3.org/2000/svg" version="1.1">
 <title>Ski Rose for Bear Canyon</title>
 <metadata>
  <rdf:RDF xmlns:dc="http://purl.org/dc/elements/1.1/" xmlns:cc="http://creativecommons.org/ns#" xmlns:rdf="http://www.w3.org/1999/02/22-rdf-syntax-ns#">
   <cc:Work>
    <dc:type rdf:resource="http://purl.org/dc/dcmitype/StillImage"/>
    <dc:title>Ski Rose for Bear Canyon</dc:title>
    <dc:date>2025-03-08T16:20:44.376267</dc:date>
    <dc:description>A 32-bin stacked histogram of downhill ski run orientations colored by difficulty.</dc:description>
    <dc:format>image/svg+xml</dc:format>
    <dc:source>https://openskimap.org/?obj=e6bbeb2a58754e96db70dde5a18e4cb703511b6f</dc:source>
    <dc:creator>
     <cc:Agent>
      <dc:title>https://github.com/dhimmel/openskistats</dc:title>
     </cc:Agent>
    </dc:creator>
    <dc:rights>
     <cc:Agent>
      <dc:title>https://creativecommons.org/licenses/by/4.0/</dc:title>
     </cc:Agent>
    </dc:rights>
   </cc:Work>
  </rdf:RDF>
 </metadata>
 <defs>
  <style type="text/css">*{stroke-linejoin: round; stroke-linecap: butt}</style>
 </defs>
 <g id="figure_1">
  <g id="patch_1">
   <path d="M 0 249.158125 
L 248.410469 249.158125 
L 248.410469 0 
L 0 0 
z
" style="fill: #ffffff"/>
  </g>
  <g id="axes_1">
   <g id="patch_2">
    <path d="M 236.134844 124.579063 
C 236.134844 110.018434 233.266717 95.59939 227.694606 82.147124 
C 222.122495 68.694857 213.954763 56.470982 203.658844 46.175063 
C 193.362925 35.879144 181.139049 27.711411 167.686783 22.1393 
C 154.234516 16.567189 139.815472 13.699063 125.254844 13.699063 
C 110.694216 13.699063 96.275171 16.567189 82.822905 22.1393 
C 69.370638 27.711411 57.146763 35.879144 46.850844 46.175063 
C 36.554925 56.470982 28.387192 68.694857 22.815081 82.147124 
C 17.24297 95.59939 14.374844 110.018434 14.374844 124.579062 
C 14.374844 139.139691 17.24297 153.558735 22.815081 167.011001 
C 28.387192 180.463268 36.554925 192.687143 46.850844 202.983062 
C 57.146763 213.278981 69.370638 221.446714 82.822905 227.018825 
C 96.275171 232.590936 110.694216 235.459063 125.254844 235.459063 
C 139.815472 235.459063 154.234516 232.590936 167.686783 227.018825 
C 181.139049 221.446714 193.362925 213.278981 203.658844 202.983062 
C 213.954763 192.687143 222.122495 180.463268 227.694606 167.011001 
C 233.266717 153.558735 236.134844 139.139691 236.134844 124.579063 
M 125.254844 124.579063 
C 125.254844 124.579063 125.254844 124.579063 125.254844 124.579063 
C 125.254844 124.579063 125.254844 124.579063 125.254844 124.579063 
C 125.254844 124.579063 125.254844 124.579063 125.254844 124.579063 
C 125.254844 124.579063 125.254844 124.579063 125.254844 124.579063 
C 125.254844 124.579063 125.254844 124.579063 125.254844 124.579063 
C 125.254844 124.579063 125.254844 124.579063 125.254844 124.579063 
C 125.254844 124.579063 125.254844 124.579063 125.254844 124.579063 
C 125.254844 124.579063 125.254844 124.579063 125.254844 124.579063 
C 125.254844 124.579063 125.254844 124.579063 125.254844 124.579063 
C 125.254844 124.579063 125.254844 124.579063 125.254844 124.579063 
C 125.254844 124.579063 125.254844 124.579063 125.254844 124.579063 
C 125.254844 124.579063 125.254844 124.579063 125.254844 124.579063 
C 125.254844 124.579063 125.254844 124.579063 125.254844 124.579063 
C 125.254844 124.579063 125.254844 124.579063 125.254844 124.579063 
C 125.254844 124.579063 125.254844 124.579063 125.254844 124.579063 
C 125.254844 124.579063 125.254844 124.579063 125.254844 124.579063 
z
" style="fill: #ffffff"/>
   </g>
   <g id="PolyCollection_1">
    <defs>
     <path id="m42a0cc1b99" d="M 235.279106 -137.114744 
L 234.716713 -137.050667 
L 233.947957 -135.045019 
L 232.908377 -133.051579 
L 231.80424 -131.095903 
L 230.857388 -129.189769 
L 229.657107 -127.312932 
L 228.628714 -125.481193 
L 227.35174 -123.688076 
L 226.04077 -121.93989 
L 224.912013 -120.227937 
L 223.540528 -118.567653 
L 222.355021 -116.937113 
L 220.930841 -115.366512 
L 219.695237 -113.818939 
L 218.225458 -112.339249 
L 216.946012 -110.875726 
L 215.646389 -109.452706 
L 214.120163 -108.108849 
L 212.785611 -106.770727 
L 211.435083 -105.473363 
L 209.866677 -104.265559 
L 208.489949 -103.053001 
L 207.101384 -101.881008 
L 205.702306 -100.749439 
L 204.294034 -99.658101 
L 202.87788 -98.606758 
L 201.455147 -97.59512 
L 200.215718 -96.55234 
L 198.781121 -95.616292 
L 197.343678 -94.71889 
L 195.90465 -93.859652 
L 194.643168 -92.956981 
L 193.201669 -92.170089 
L 191.934211 -91.333956 
L 190.494668 -90.617359 
L 189.225202 -89.845992 
L 187.954644 -89.105222 
L 186.524276 -88.488609 
L 185.257327 -87.809494 
L 183.991888 -87.159438 
L 182.728764 -86.537904 
L 181.468739 -85.944322 
L 180.212577 -85.378092 
L 178.96102 -84.838583 
L 177.714786 -84.325133 
L 176.474568 -83.837054 
L 175.241036 -83.373625 
L 174.01483 -82.9341 
L 172.916816 -82.411312 
L 171.703155 -82.017027 
L 170.498527 -81.64441 
L 169.412381 -81.185572 
L 168.223341 -80.854002 
L 167.146195 -80.434789 
L 165.974474 -80.141384 
L 164.907873 -79.759466 
L 163.845302 -79.395441 
L 162.700247 -79.154155 
L 161.650153 -78.823887 
L 160.604946 -78.509913 
L 159.489086 -78.314139 
L 158.457814 -78.030214 
L 157.432062 -77.76092 
L 156.411998 -77.505738 
L 155.397768 -77.264149 
L 154.389496 -77.035631 
L 153.38728 -76.819664 
L 152.391195 -76.615724 
L 151.401293 -76.423293 
L 150.417601 -76.241855 
L 149.440123 -76.070897 
L 148.468838 -75.909911 
L 147.503702 -75.7584 
L 146.544646 -75.615869 
L 145.591581 -75.481836 
L 144.673014 -75.283164 
L 143.72898 -75.167742 
L 142.790622 -75.059552 
L 141.857766 -74.958158 
L 140.930214 -74.863139 
L 140.024849 -74.716362 
L 139.105163 -74.636425 
L 138.190188 -74.561796 
L 137.279654 -74.492123 
L 136.383116 -74.382671 
L 135.478988 -74.325788 
L 134.578521 -74.273004 
L 133.687073 -74.190048 
L 132.79171 -74.148716 
L 131.899116 -74.110805 
L 131.011563 -74.052986 
L 130.122597 -74.025517 
L 129.235425 -74.000988 
L 128.350389 -73.967339 
L 127.465243 -73.952596 
L 126.580861 -73.940518 
L 125.696847 -73.930495 
L 124.812845 -73.931061 
L 123.928804 -73.939637 
L 123.044716 -73.958811 
L 122.159885 -73.976931 
L 121.27401 -73.997776 
L 120.388552 -74.040688 
L 119.500231 -74.071474 
L 118.609849 -74.105319 
L 117.721553 -74.17264 
L 116.827156 -74.217189 
L 115.929746 -74.265338 
L 115.037284 -74.358152 
L 114.134429 -74.418114 
L 113.227702 -74.48241 
L 112.329944 -74.602182 
L 111.416531 -74.679718 
L 110.498503 -74.762492 
L 109.575606 -74.850875 
L 108.668851 -75.008757 
L 107.737913 -75.112775 
L 106.801557 -75.223506 
L 105.859607 -75.341385 
L 104.911903 -75.466859 
L 103.958311 -75.600389 
L 103.035226 -75.822561 
L 102.072458 -75.976179 
L 101.103606 -76.139173 
L 100.128623 -76.312042 
L 99.147485 -76.495289 
L 98.160192 -76.689427 
L 97.166767 -76.89497 
L 96.167258 -77.112437 
L 95.161738 -77.342349 
L 94.150302 -77.585225 
L 93.133068 -77.841589 
L 92.038346 -78.01125 
L 91.006512 -78.295099 
L 89.969359 -78.594123 
L 88.927102 -78.908832 
L 87.879979 -79.239726 
L 86.738411 -79.482114 
L 85.678847 -79.846535 
L 84.517846 -80.12243 
L 83.447068 -80.522859 
L 82.372955 -80.942136 
L 81.187451 -81.274156 
L 79.99193 -81.626161 
L 78.903245 -82.105648 
L 77.693109 -82.499994 
L 76.474485 -82.9167 
L 75.375415 -83.461634 
L 74.145371 -83.924752 
L 72.908624 -84.412395 
L 71.66584 -84.925286 
L 70.41771 -85.464115 
L 69.164951 -86.029548 
L 67.908303 -86.622215 
L 66.648528 -87.242721 
L 65.386407 -87.891637 
L 64.122745 -88.569504 
L 62.69609 -89.185022 
L 61.428748 -89.92432 
L 60.162461 -90.694113 
L 58.726512 -91.40926 
L 57.462155 -92.243609 
L 56.024164 -93.028824 
L 54.7657 -93.92951 
L 53.33009 -94.786854 
L 51.896018 -95.682253 
L 50.652896 -96.686537 
L 49.228155 -97.6566 
L 47.80865 -98.665929 
L 46.395675 -99.714862 
L 44.990533 -100.80369 
L 43.594534 -101.932654 
L 42.208996 -103.101946 
L 40.835245 -104.31171 
L 39.474609 -105.562042 
L 37.439102 -106.712748 
L 35.899134 -108.017961 
L 34.58259 -109.405731 
L 33.28493 -110.834067 
L 31.796972 -112.2751 
L 30.540401 -113.787715 
L 29.094954 -115.319918 
L 27.885646 -116.91594 
L 26.489665 -118.538325 
L 25.334104 -120.216429 
L 23.995095 -121.927483 
L 22.900439 -123.685829 
L 21.627166 -125.483408 
L 20.3915 -127.325006 
L 19.406592 -129.200497 
L 18.258054 -131.123266 
L 17.367373 -133.069991 
L 16.337472 -135.066613 
L 15.392317 -137.096316 
L 15.206882 -137.117444 
L 15.206882 -137.117444 
L 14.892801 -135.205719 
L 14.796185 -133.272347 
L 14.604078 -131.346753 
L 14.573545 -129.411512 
L 14.447751 -127.480648 
L 14.423342 -125.546274 
L 14.489667 -123.612429 
L 14.462422 -121.677861 
L 14.592855 -119.747456 
L 14.631364 -117.813041 
L 14.760255 -115.88295 
L 15.048777 -113.967425 
L 15.117755 -112.030526 
L 15.401377 -110.116579 
L 15.601542 -108.191267 
L 15.946053 -106.287044 
L 16.246961 -104.375646 
L 16.722355 -102.497878 
L 17.050441 -100.590724 
L 17.438548 -98.69466 
L 17.930214 -96.823026 
L 18.451318 -94.959823 
L 19.001941 -93.105519 
L 19.582186 -91.260601 
L 20.192184 -89.425588 
L 20.744099 -87.569867 
L 21.415892 -85.755269 
L 22.117855 -83.952322 
L 22.850288 -82.161707 
L 23.613591 -80.384188 
L 24.417511 -78.624842 
L 25.17755 -76.844642 
L 26.04294 -75.113832 
L 26.942975 -73.401143 
L 27.822289 -71.677502 
L 28.797988 -70.006399 
L 29.726072 -68.308315 
L 30.726564 -66.652058 
L 31.740974 -65.004157 
L 32.805044 -63.387875 
L 33.893995 -61.788491 
L 35.647388 -60.662686 
L 37.481285 -59.630046 
L 39.333882 -58.64959 
L 41.197194 -57.716589 
L 43.065765 -56.827615 
L 44.93545 -55.979819 
L 46.803502 -55.171178 
L 48.609788 -54.346809 
L 50.470268 -53.61115 
L 52.269456 -52.856521 
L 54.06427 -52.135009 
L 55.904739 -51.4993 
L 57.686411 -50.841057 
L 59.461283 -50.21297 
L 61.228713 -49.614095 
L 62.988122 -49.043489 
L 64.697188 -48.447655 
L 66.440875 -47.931207 
L 68.175129 -47.440255 
L 69.862904 -46.922427 
L 71.579019 -46.480253 
L 73.251819 -46.011063 
L 74.948653 -45.61416 
L 76.604864 -45.18951 
L 78.253767 -44.787067 
L 79.894558 -44.405029 
L 81.52776 -44.043792 
L 83.152606 -43.701415 
L 84.769715 -43.378455 
L 86.378367 -43.072834 
L 87.97927 -42.785281 
L 89.571757 -42.513581 
L 91.156611 -42.258646 
L 92.718708 -41.981269 
L 94.288873 -41.756811 
L 95.83936 -41.512298 
L 97.396021 -41.317818 
L 98.945096 -41.135203 
L 100.478483 -40.935469 
L 102.007176 -40.75068 
L 103.53843 -40.60792 
L 105.057311 -40.450284 
L 106.577121 -40.329299 
L 108.087157 -40.197187 
L 109.593524 -40.078145 
L 111.096457 -39.971877 
L 112.59878 -39.895365 
L 114.095064 -39.812119 
L 115.588754 -39.740879 
L 117.080133 -39.681448 
L 118.569495 -39.633652 
L 120.057544 -39.603959 
L 121.543581 -39.577177 
L 123.028585 -39.561662 
L 124.512871 -39.557351 
L 125.996803 -39.55897 
L 127.481157 -39.559599 
L 128.966241 -39.574085 
L 130.452395 -39.599843 
L 131.939932 -39.636966 
L 133.429157 -39.685572 
L 134.920372 -39.745808 
L 136.415681 -39.804089 
L 137.91225 -39.886382 
L 139.411718 -39.980917 
L 140.914347 -40.087942 
L 142.425018 -40.184959 
L 143.935481 -40.316153 
L 145.449863 -40.460752 
L 146.975037 -40.593307 
L 148.498753 -40.764233 
L 150.026994 -40.949684 
L 151.570163 -41.117533 
L 153.108974 -41.331841 
L 154.66457 -41.528557 
L 156.228357 -41.736637 
L 157.784685 -41.99725 
L 159.361791 -42.237608 
L 160.947676 -42.491168 
L 162.522341 -42.803004 
L 164.121922 -43.092538 
L 165.730597 -43.397261 
L 167.346311 -43.722106 
L 168.97119 -44.063568 
L 170.60293 -44.426591 
L 172.243769 -44.807697 
L 173.92146 -45.162363 
L 175.57809 -45.587389 
L 177.243474 -46.03281 
L 178.950177 -46.451868 
L 180.629979 -46.945987 
L 182.355413 -47.412073 
L 184.051297 -47.954033 
L 185.794174 -48.470694 
L 187.546063 -49.013771 
L 189.306496 -49.584214 
L 191.074946 -50.182971 
L 192.850832 -50.810986 
L 194.63351 -51.469202 
L 196.422266 -52.158568 
L 198.216303 -52.880036 
L 200.070019 -53.582112 
L 201.873459 -54.371037 
L 203.739577 -55.141637 
L 205.547378 -56.00276 
L 207.41546 -56.851077 
L 209.284495 -57.73886 
L 211.146481 -58.672091 
L 212.999919 -59.651122 
L 214.833069 -60.683535 
L 216.628899 -61.779414 
L 217.713293 -63.38215 
L 218.740394 -65.022198 
L 219.749384 -66.672734 
L 220.750834 -68.327625 
L 221.752314 -69.983421 
L 222.605961 -71.721718 
L 223.538309 -73.415929 
L 224.420835 -75.136723 
L 225.251243 -76.883227 
L 226.128751 -78.608174 
L 226.879752 -80.391295 
L 227.657216 -82.162611 
L 228.326435 -83.978083 
L 229.057272 -85.768925 
L 229.747194 -87.576381 
L 230.368591 -89.408495 
L 230.943514 -91.255553 
L 231.472234 -93.116038 
L 232.068636 -94.956976 
L 232.513266 -96.840148 
L 233.03661 -98.70295 
L 233.445851 -100.593694 
L 233.893905 -102.476196 
L 234.207367 -104.385906 
L 234.580691 -106.28419 
L 234.769758 -108.211949 
L 235.1011 -110.117528 
L 235.392931 -112.030413 
L 235.621161 -113.951995 
L 235.67466 -115.888834 
L 235.830974 -117.815937 
L 235.972523 -119.745024 
L 236.077557 -121.677068 
L 236.129264 -123.611476 
L 235.993901 -125.545468 
L 235.977102 -127.478427 
L 235.943473 -129.411832 
L 235.876675 -131.344984 
L 235.759374 -133.275958 
L 235.608774 -135.204937 
L 235.279106 -137.114744 
z
" style="stroke: #ffee9c"/>
    </defs>
    <g clip-path="url(#pd768c721e4)">
     <use xlink:href="#m42a0cc1b99" x="0" y="249.158125" style="fill: #ffee9c; stroke: #ffee9c"/>
    </g>
   </g>
   <g id="matplotlib.axis_1">
    <g id="xtick_1">
     <g id="line2d_1">
      <path d="M 125.254844 124.579063 
L 125.254844 13.699063 
" clip-path="url(#pd768c721e4)" style="fill: none; stroke: #b0b0b0; stroke-width: 0.8; stroke-linecap: square"/>
     </g>
     <g id="text_1">
      <!-- N -->
      <g transform="translate(121.070469 7.958438) scale(0.1 -0.1)">
       <defs>
        <path id="DejaVuSans-Bold-4e" d="M 588 4666 
L 1931 4666 
L 3628 1466 
L 3628 4666 
L 4769 4666 
L 4769 0 
L 3425 0 
L 1728 3200 
L 1728 0 
L 588 0 
L 588 4666 
z
" transform="scale(0.015625)"/>
       </defs>
       <use xlink:href="#DejaVuSans-Bold-4e"/>
      </g>
     </g>
    </g>
    <g id="xtick_2">
     <g id="line2d_2">
      <path d="M 125.254844 124.579063 
L 203.658844 46.175063 
" clip-path="url(#pd768c721e4)" style="fill: none; stroke: #b0b0b0; stroke-width: 0.8; stroke-linecap: square"/>
     </g>
    </g>
    <g id="xtick_3">
     <g id="line2d_3">
      <path d="M 125.254844 124.579063 
L 236.134844 124.579063 
" clip-path="url(#pd768c721e4)" style="fill: none; stroke: #b0b0b0; stroke-width: 0.8; stroke-linecap: square"/>
     </g>
     <g id="text_2">
      <!-- E -->
      <g transform="translate(241.219219 127.338438) scale(0.1 -0.1)">
       <defs>
        <path id="DejaVuSans-Bold-45" d="M 588 4666 
L 3834 4666 
L 3834 3756 
L 1791 3756 
L 1791 2888 
L 3713 2888 
L 3713 1978 
L 1791 1978 
L 1791 909 
L 3903 909 
L 3903 0 
L 588 0 
L 588 4666 
z
" transform="scale(0.015625)"/>
       </defs>
       <use xlink:href="#DejaVuSans-Bold-45"/>
      </g>
     </g>
    </g>
    <g id="xtick_4">
     <g id="line2d_4">
      <path d="M 125.254844 124.579063 
L 203.658844 202.983062 
" clip-path="url(#pd768c721e4)" style="fill: none; stroke: #b0b0b0; stroke-width: 0.8; stroke-linecap: square"/>
     </g>
    </g>
    <g id="xtick_5">
     <g id="line2d_5">
      <path d="M 125.254844 124.579063 
L 125.254844 235.459063 
" clip-path="url(#pd768c721e4)" style="fill: none; stroke: #b0b0b0; stroke-width: 0.8; stroke-linecap: square"/>
     </g>
     <g id="text_3">
      <!-- S -->
      <g transform="translate(121.654062 246.718438) scale(0.1 -0.1)">
       <defs>
        <path id="DejaVuSans-Bold-53" d="M 3834 4519 
L 3834 3531 
Q 3450 3703 3084 3790 
Q 2719 3878 2394 3878 
Q 1963 3878 1756 3759 
Q 1550 3641 1550 3391 
Q 1550 3203 1689 3098 
Q 1828 2994 2194 2919 
L 2706 2816 
Q 3484 2659 3812 2340 
Q 4141 2022 4141 1434 
Q 4141 663 3683 286 
Q 3225 -91 2284 -91 
Q 1841 -91 1394 -6 
Q 947 78 500 244 
L 500 1259 
Q 947 1022 1364 901 
Q 1781 781 2169 781 
Q 2563 781 2772 912 
Q 2981 1044 2981 1288 
Q 2981 1506 2839 1625 
Q 2697 1744 2272 1838 
L 1806 1941 
Q 1106 2091 782 2419 
Q 459 2747 459 3303 
Q 459 4000 909 4375 
Q 1359 4750 2203 4750 
Q 2588 4750 2994 4692 
Q 3400 4634 3834 4519 
z
" transform="scale(0.015625)"/>
       </defs>
       <use xlink:href="#DejaVuSans-Bold-53"/>
      </g>
     </g>
    </g>
    <g id="xtick_6">
     <g id="line2d_6">
      <path d="M 125.254844 124.579063 
L 46.850844 202.983062 
" clip-path="url(#pd768c721e4)" style="fill: none; stroke: #b0b0b0; stroke-width: 0.8; stroke-linecap: square"/>
     </g>
    </g>
    <g id="xtick_7">
     <g id="line2d_7">
      <path d="M 125.254844 124.579063 
L 14.374844 124.579063 
" clip-path="url(#pd768c721e4)" style="fill: none; stroke: #b0b0b0; stroke-width: 0.8; stroke-linecap: square"/>
     </g>
     <g id="text_4">
      <!-- W -->
      <g transform="translate(0.36 127.338438) scale(0.1 -0.1)">
       <defs>
        <path id="DejaVuSans-Bold-57" d="M 191 4666 
L 1344 4666 
L 2150 1275 
L 2950 4666 
L 4109 4666 
L 4909 1275 
L 5716 4666 
L 6859 4666 
L 5759 0 
L 4372 0 
L 3525 3547 
L 2688 0 
L 1300 0 
L 191 4666 
z
" transform="scale(0.015625)"/>
       </defs>
       <use xlink:href="#DejaVuSans-Bold-57"/>
      </g>
     </g>
    </g>
    <g id="xtick_8">
     <g id="line2d_8">
      <path d="M 125.254844 124.579063 
L 46.850844 46.175063 
" clip-path="url(#pd768c721e4)" style="fill: none; stroke: #b0b0b0; stroke-width: 0.8; stroke-linecap: square"/>
     </g>
    </g>
   </g>
   <g id="matplotlib.axis_2"/>
   <g id="patch_3">
    <path d="M 125.254844 124.579063 
C 125.254844 124.579063 125.254844 124.579063 125.254844 124.579063 
C 125.254844 124.579063 125.254844 124.579063 125.254844 124.579063 
L 125.254844 124.579063 
C 125.254844 124.579063 125.254844 124.579063 125.254844 124.579063 
C 125.254844 124.579063 125.254844 124.579063 125.254844 124.579063 
z
" clip-path="url(#pd768c721e4)" style="fill: #d9d9d9"/>
   </g>
   <g id="patch_4">
    <path d="M 125.254844 124.579063 
C 125.254844 124.579063 125.254844 124.579063 125.254844 124.579063 
C 125.254844 124.579063 125.254844 124.579063 125.254844 124.579063 
L 125.254844 124.579063 
C 125.254844 124.579063 125.254844 124.579063 125.254844 124.579063 
C 125.254844 124.579063 125.254844 124.579063 125.254844 124.579063 
z
" clip-path="url(#pd768c721e4)" style="fill: #d9d9d9"/>
   </g>
   <g id="patch_5">
    <path d="M 125.254844 124.579063 
C 125.254844 124.579063 125.254844 124.579063 125.254844 124.579063 
C 125.254844 124.579063 125.254844 124.579063 125.254844 124.579063 
L 125.254844 124.579063 
C 125.254844 124.579063 125.254844 124.579063 125.254844 124.579063 
C 125.254844 124.579063 125.254844 124.579063 125.254844 124.579063 
z
" clip-path="url(#pd768c721e4)" style="fill: #d9d9d9"/>
   </g>
   <g id="patch_6">
    <path d="M 125.254844 124.579063 
C 125.254844 124.579063 125.254844 124.579063 125.254844 124.579063 
C 125.254844 124.579063 125.254844 124.579063 125.254844 124.579063 
L 125.254844 124.579063 
C 125.254844 124.579063 125.254844 124.579063 125.254844 124.579063 
C 125.254844 124.579063 125.254844 124.579063 125.254844 124.579063 
z
" clip-path="url(#pd768c721e4)" style="fill: #d9d9d9"/>
   </g>
   <g id="patch_7">
    <path d="M 125.254844 124.579063 
C 125.254844 124.579063 125.254844 124.579063 125.254844 124.579063 
C 125.254844 124.579063 125.254844 124.579063 125.254844 124.579063 
L 125.254844 124.579063 
C 125.254844 124.579063 125.254844 124.579063 125.254844 124.579063 
C 125.254844 124.579063 125.254844 124.579063 125.254844 124.579063 
z
" clip-path="url(#pd768c721e4)" style="fill: #d9d9d9"/>
   </g>
   <g id="patch_8">
    <path d="M 125.254844 124.579063 
C 125.254844 124.579063 125.254844 124.579063 125.254844 124.579063 
C 125.254844 124.579063 125.254844 124.579063 125.254844 124.579063 
L 125.254844 124.579063 
C 125.254844 124.579063 125.254844 124.579063 125.254844 124.579063 
C 125.254844 124.579063 125.254844 124.579063 125.254844 124.579063 
z
" clip-path="url(#pd768c721e4)" style="fill: #d9d9d9"/>
   </g>
   <g id="patch_9">
    <path d="M 125.254844 124.579063 
C 125.254844 124.579063 125.254844 124.579063 125.254844 124.579063 
C 125.254844 124.579063 125.254844 124.579063 125.254844 124.579063 
L 125.254844 124.579063 
C 125.254844 124.579063 125.254844 124.579063 125.254844 124.579063 
C 125.254844 124.579063 125.254844 124.579063 125.254844 124.579063 
z
" clip-path="url(#pd768c721e4)" style="fill: #d9d9d9"/>
   </g>
   <g id="patch_10">
    <path d="M 125.254844 124.579063 
C 125.254844 124.579063 125.254844 124.579063 125.254844 124.579063 
C 125.254844 124.579063 125.254844 124.579063 125.254844 124.579063 
L 125.254844 124.579063 
C 125.254844 124.579063 125.254844 124.579063 125.254844 124.579063 
C 125.254844 124.579063 125.254844 124.579063 125.254844 124.579063 
z
" clip-path="url(#pd768c721e4)" style="fill: #d9d9d9"/>
   </g>
   <g id="patch_11">
    <path d="M 125.254844 124.579063 
C 125.254844 124.579063 125.254844 124.579063 125.254844 124.579063 
C 125.254844 124.579063 125.254844 124.579063 125.254844 124.579063 
L 125.254844 124.579063 
C 125.254844 124.579063 125.254844 124.579063 125.254844 124.579063 
C 125.254844 124.579063 125.254844 124.579063 125.254844 124.579063 
z
" clip-path="url(#pd768c721e4)" style="fill: #d9d9d9"/>
   </g>
   <g id="patch_12">
    <path d="M 125.254844 124.579063 
C 125.254844 124.579063 125.254844 124.579063 125.254844 124.579063 
C 125.254844 124.579063 125.254844 124.579063 125.254844 124.579063 
L 125.254844 124.579063 
C 125.254844 124.579063 125.254844 124.579063 125.254844 124.579063 
C 125.254844 124.579063 125.254844 124.579063 125.254844 124.579063 
z
" clip-path="url(#pd768c721e4)" style="fill: #d9d9d9"/>
   </g>
   <g id="patch_13">
    <path d="M 125.254844 124.579063 
C 125.254844 124.579063 125.254844 124.579063 125.254844 124.579063 
C 125.254844 124.579063 125.254844 124.579063 125.254844 124.579063 
L 125.254844 124.579063 
C 125.254844 124.579063 125.254844 124.579063 125.254844 124.579063 
C 125.254844 124.579063 125.254844 124.579063 125.254844 124.579063 
z
" clip-path="url(#pd768c721e4)" style="fill: #d9d9d9"/>
   </g>
   <g id="patch_14">
    <path d="M 125.254844 124.579063 
C 125.254844 124.579063 125.254844 124.579063 125.254844 124.579063 
C 125.254844 124.579063 125.254844 124.579063 125.254844 124.579063 
L 125.254844 124.579063 
C 125.254844 124.579063 125.254844 124.579063 125.254844 124.579063 
C 125.254844 124.579063 125.254844 124.579063 125.254844 124.579063 
z
" clip-path="url(#pd768c721e4)" style="fill: #d9d9d9"/>
   </g>
   <g id="patch_15">
    <path d="M 125.254844 124.579063 
C 125.254844 124.579063 125.254844 124.579063 125.254844 124.579063 
C 125.254844 124.579063 125.254844 124.579063 125.254844 124.579063 
L 125.254844 124.579063 
C 125.254844 124.579063 125.254844 124.579063 125.254844 124.579063 
C 125.254844 124.579063 125.254844 124.579063 125.254844 124.579063 
z
" clip-path="url(#pd768c721e4)" style="fill: #d9d9d9"/>
   </g>
   <g id="patch_16">
    <path d="M 125.254844 124.579063 
C 125.254844 124.579063 125.254844 124.579063 125.254844 124.579063 
C 125.254844 124.579063 125.254844 124.579063 125.254844 124.579063 
L 125.254844 124.579063 
C 125.254844 124.579063 125.254844 124.579063 125.254844 124.579063 
C 125.254844 124.579063 125.254844 124.579063 125.254844 124.579063 
z
" clip-path="url(#pd768c721e4)" style="fill: #d9d9d9"/>
   </g>
   <g id="patch_17">
    <path d="M 125.254844 124.579063 
C 125.254844 124.579063 125.254844 124.579063 125.254844 124.579063 
C 125.254844 124.579063 125.254844 124.579063 125.254844 124.579063 
L 125.254844 124.579063 
C 125.254844 124.579063 125.254844 124.579063 125.254844 124.579063 
C 125.254844 124.579063 125.254844 124.579063 125.254844 124.579063 
z
" clip-path="url(#pd768c721e4)" style="fill: #d9d9d9"/>
   </g>
   <g id="patch_18">
    <path d="M 125.254844 124.579063 
C 125.254844 124.579063 125.254844 124.579063 125.254844 124.579063 
C 125.254844 124.579063 125.254844 124.579063 125.254844 124.579063 
L 125.254844 124.579063 
C 125.254844 124.579063 125.254844 124.579063 125.254844 124.579063 
C 125.254844 124.579063 125.254844 124.579063 125.254844 124.579063 
z
" clip-path="url(#pd768c721e4)" style="fill: #d9d9d9"/>
   </g>
   <g id="patch_19">
    <path d="M 125.254844 124.579063 
C 125.254844 124.579063 125.254844 124.579063 125.254844 124.579063 
C 125.254844 124.579063 125.254844 124.579063 125.254844 124.579063 
L 125.254844 124.579063 
C 125.254844 124.579063 125.254844 124.579063 125.254844 124.579063 
C 125.254844 124.579063 125.254844 124.579063 125.254844 124.579063 
z
" clip-path="url(#pd768c721e4)" style="fill: #d9d9d9"/>
   </g>
   <g id="patch_20">
    <path d="M 125.254844 124.579063 
C 125.254844 124.579063 125.254844 124.579063 125.254844 124.579063 
C 125.254844 124.579063 125.254844 124.579063 125.254844 124.579063 
L 125.254844 124.579063 
C 125.254844 124.579063 125.254844 124.579063 125.254844 124.579063 
C 125.254844 124.579063 125.254844 124.579063 125.254844 124.579063 
z
" clip-path="url(#pd768c721e4)" style="fill: #d9d9d9"/>
   </g>
   <g id="patch_21">
    <path d="M 125.254844 124.579063 
C 125.254844 124.579063 125.254844 124.579063 125.254844 124.579063 
C 125.254844 124.579063 125.254844 124.579063 125.254844 124.579063 
L 125.254844 124.579063 
C 125.254844 124.579063 125.254844 124.579063 125.254844 124.579063 
C 125.254844 124.579063 125.254844 124.579063 125.254844 124.579063 
z
" clip-path="url(#pd768c721e4)" style="fill: #d9d9d9"/>
   </g>
   <g id="patch_22">
    <path d="M 125.254844 124.579063 
C 125.254844 124.579063 125.254844 124.579063 125.254844 124.579063 
C 125.254844 124.579063 125.254844 124.579063 125.254844 124.579063 
L 125.254844 124.579063 
C 125.254844 124.579063 125.254844 124.579063 125.254844 124.579063 
C 125.254844 124.579063 125.254844 124.579063 125.254844 124.579063 
z
" clip-path="url(#pd768c721e4)" style="fill: #d9d9d9"/>
   </g>
   <g id="patch_23">
    <path d="M 125.254844 124.579063 
C 125.254844 124.579063 125.254844 124.579063 125.254844 124.579063 
C 125.254844 124.579063 125.254844 124.579063 125.254844 124.579063 
L 125.254844 124.579063 
C 125.254844 124.579063 125.254844 124.579063 125.254844 124.579063 
C 125.254844 124.579063 125.254844 124.579063 125.254844 124.579063 
z
" clip-path="url(#pd768c721e4)" style="fill: #d9d9d9"/>
   </g>
   <g id="patch_24">
    <path d="M 125.254844 124.579063 
C 125.254844 124.579063 125.254844 124.579063 125.254844 124.579063 
C 125.254844 124.579063 125.254844 124.579063 125.254844 124.579063 
L 125.254844 124.579063 
C 125.254844 124.579063 125.254844 124.579063 125.254844 124.579063 
C 125.254844 124.579063 125.254844 124.579063 125.254844 124.579063 
z
" clip-path="url(#pd768c721e4)" style="fill: #d9d9d9"/>
   </g>
   <g id="patch_25">
    <path d="M 125.254844 124.579063 
C 125.254844 124.579063 125.254844 124.579063 125.254844 124.579063 
C 125.254844 124.579063 125.254844 124.579063 125.254844 124.579063 
L 125.254844 124.579063 
C 125.254844 124.579063 125.254844 124.579063 125.254844 124.579063 
C 125.254844 124.579063 125.254844 124.579063 125.254844 124.579063 
z
" clip-path="url(#pd768c721e4)" style="fill: #d9d9d9"/>
   </g>
   <g id="patch_26">
    <path d="M 125.254844 124.579063 
C 125.254844 124.579063 125.254844 124.579063 125.254844 124.579063 
C 125.254844 124.579063 125.254844 124.579063 125.254844 124.579063 
L 125.254844 124.579063 
C 125.254844 124.579063 125.254844 124.579063 125.254844 124.579063 
C 125.254844 124.579063 125.254844 124.579063 125.254844 124.579063 
z
" clip-path="url(#pd768c721e4)" style="fill: #d9d9d9"/>
   </g>
   <g id="patch_27">
    <path d="M 125.254844 124.579063 
C 125.254844 124.579063 125.254844 124.579063 125.254844 124.579063 
C 125.254844 124.579063 125.254844 124.579063 125.254844 124.579063 
L 125.254844 124.579063 
C 125.254844 124.579063 125.254844 124.579063 125.254844 124.579063 
C 125.254844 124.579063 125.254844 124.579063 125.254844 124.579063 
z
" clip-path="url(#pd768c721e4)" style="fill: #d9d9d9"/>
   </g>
   <g id="patch_28">
    <path d="M 125.254844 124.579063 
C 125.254844 124.579063 125.254844 124.579063 125.254844 124.579063 
C 125.254844 124.579063 125.254844 124.579063 125.254844 124.579063 
L 125.254844 124.579063 
C 125.254844 124.579063 125.254844 124.579063 125.254844 124.579063 
C 125.254844 124.579063 125.254844 124.579063 125.254844 124.579063 
z
" clip-path="url(#pd768c721e4)" style="fill: #d9d9d9"/>
   </g>
   <g id="patch_29">
    <path d="M 125.254844 124.579063 
C 125.254844 124.579063 125.254844 124.579063 125.254844 124.579063 
C 125.254844 124.579063 125.254844 124.579063 125.254844 124.579063 
L 125.254844 124.579063 
C 125.254844 124.579063 125.254844 124.579063 125.254844 124.579063 
C 125.254844 124.579063 125.254844 124.579063 125.254844 124.579063 
z
" clip-path="url(#pd768c721e4)" style="fill: #d9d9d9"/>
   </g>
   <g id="patch_30">
    <path d="M 125.254844 124.579063 
C 125.254844 124.579063 125.254844 124.579063 125.254844 124.579063 
C 125.254844 124.579063 125.254844 124.579063 125.254844 124.579063 
L 125.254844 124.579063 
C 125.254844 124.579063 125.254844 124.579063 125.254844 124.579063 
C 125.254844 124.579063 125.254844 124.579063 125.254844 124.579063 
z
" clip-path="url(#pd768c721e4)" style="fill: #d9d9d9"/>
   </g>
   <g id="patch_31">
    <path d="M 125.254844 124.579063 
C 125.254844 124.579063 125.254844 124.579063 125.254844 124.579063 
C 125.254844 124.579063 125.254844 124.579063 125.254844 124.579063 
L 125.254844 124.579063 
C 125.254844 124.579063 125.254844 124.579063 125.254844 124.579063 
C 125.254844 124.579063 125.254844 124.579063 125.254844 124.579063 
z
" clip-path="url(#pd768c721e4)" style="fill: #d9d9d9"/>
   </g>
   <g id="patch_32">
    <path d="M 125.254844 124.579063 
C 125.254844 124.579063 125.254844 124.579063 125.254844 124.579063 
C 125.254844 124.579063 125.254844 124.579063 125.254844 124.579063 
L 125.254844 124.579063 
C 125.254844 124.579063 125.254844 124.579063 125.254844 124.579063 
C 125.254844 124.579063 125.254844 124.579063 125.254844 124.579063 
z
" clip-path="url(#pd768c721e4)" style="fill: #d9d9d9"/>
   </g>
   <g id="patch_33">
    <path d="M 125.254844 124.579063 
C 125.254844 124.579063 125.254844 124.579063 125.254844 124.579063 
C 125.254844 124.579063 125.254844 124.579063 125.254844 124.579063 
L 125.254844 124.579063 
C 125.254844 124.579063 125.254844 124.579063 125.254844 124.579063 
C 125.254844 124.579063 125.254844 124.579063 125.254844 124.579063 
z
" clip-path="url(#pd768c721e4)" style="fill: #d9d9d9"/>
   </g>
   <g id="patch_34">
    <path d="M 125.254844 124.579063 
C 125.254844 124.579063 125.254844 124.579063 125.254844 124.579063 
C 125.254844 124.579063 125.254844 124.579063 125.254844 124.579063 
L 125.254844 124.579063 
C 125.254844 124.579063 125.254844 124.579063 125.254844 124.579063 
C 125.254844 124.579063 125.254844 124.579063 125.254844 124.579063 
z
" clip-path="url(#pd768c721e4)" style="fill: #d9d9d9"/>
   </g>
   <g id="patch_35">
    <path d="M 125.254844 124.579063 
C 125.254844 124.579063 125.254844 124.579063 125.254844 124.579063 
C 125.254844 124.579063 125.254844 124.579063 125.254844 124.579063 
L 127.346418 103.342949 
C 126.651329 103.274489 125.953297 103.240197 125.254844 103.240197 
C 124.556391 103.240197 123.858359 103.274489 123.163269 103.342949 
z
" clip-path="url(#pd768c721e4)" style="fill: #badbb8"/>
   </g>
   <g id="patch_36">
    <path d="M 125.254844 124.579063 
C 125.254844 124.579063 125.254844 124.579063 125.254844 124.579063 
C 125.254844 124.579063 125.254844 124.579063 125.254844 124.579063 
L 131.449189 104.159041 
C 130.780812 103.956291 130.102882 103.786479 129.41785 103.650217 
C 128.732818 103.513956 128.041508 103.41141 127.346418 103.342949 
z
" clip-path="url(#pd768c721e4)" style="fill: #badbb8"/>
   </g>
   <g id="patch_37">
    <path d="M 125.254844 124.579063 
C 125.254844 124.579063 125.254844 124.579063 125.254844 124.579063 
C 125.254844 124.579063 125.254844 124.579063 125.254844 124.579063 
L 139.918334 97.145601 
C 139.020396 96.665643 138.099435 96.230061 137.158776 95.840427 
C 136.218118 95.450794 135.258896 95.107579 134.284577 94.812022 
z
" clip-path="url(#pd768c721e4)" style="fill: #badbb8"/>
   </g>
   <g id="patch_38">
    <path d="M 125.254844 124.579063 
C 125.254844 124.579063 125.254844 124.579063 125.254844 124.579063 
C 125.254844 124.579063 125.254844 124.579063 125.254844 124.579063 
L 146.117121 99.158304 
C 145.285062 98.475451 144.419978 97.833861 143.524993 97.235851 
C 142.630009 96.637842 141.706204 96.084134 140.756914 95.576728 
z
" clip-path="url(#pd768c721e4)" style="fill: #badbb8"/>
   </g>
   <g id="patch_39">
    <path d="M 125.254844 124.579063 
C 125.254844 124.579063 125.254844 124.579063 125.254844 124.579063 
C 125.254844 124.579063 125.254844 124.579063 125.254844 124.579063 
L 151.980067 102.646238 
C 151.262173 101.771482 150.501764 100.932499 149.701586 100.132321 
C 148.901407 99.332142 148.062425 98.571733 147.187668 97.853839 
z
" clip-path="url(#pd768c721e4)" style="fill: #badbb8"/>
   </g>
   <g id="patch_40">
    <path d="M 125.254844 124.579063 
C 125.254844 124.579063 125.254844 124.579063 125.254844 124.579063 
C 125.254844 124.579063 125.254844 124.579063 125.254844 124.579063 
L 125.254844 124.579063 
C 125.254844 124.579063 125.254844 124.579063 125.254844 124.579063 
C 125.254844 124.579063 125.254844 124.579063 125.254844 124.579063 
z
" clip-path="url(#pd768c721e4)" style="fill: #badbb8"/>
   </g>
   <g id="patch_41">
    <path d="M 125.254844 124.579063 
C 125.254844 124.579063 125.254844 124.579063 125.254844 124.579063 
C 125.254844 124.579063 125.254844 124.579063 125.254844 124.579063 
L 125.254844 124.579063 
C 125.254844 124.579063 125.254844 124.579063 125.254844 124.579063 
C 125.254844 124.579063 125.254844 124.579063 125.254844 124.579063 
z
" clip-path="url(#pd768c721e4)" style="fill: #badbb8"/>
   </g>
   <g id="patch_42">
    <path d="M 125.254844 124.579063 
C 125.254844 124.579063 125.254844 124.579063 125.254844 124.579063 
C 125.254844 124.579063 125.254844 124.579063 125.254844 124.579063 
L 147.779143 122.360613 
C 147.70653 121.623359 147.597763 120.890114 147.453236 120.163528 
C 147.308709 119.436941 147.128596 118.717888 146.913547 118.008967 
z
" clip-path="url(#pd768c721e4)" style="fill: #badbb8"/>
   </g>
   <g id="patch_43">
    <path d="M 125.254844 124.579063 
C 125.254844 124.579063 125.254844 124.579063 125.254844 124.579063 
C 125.254844 124.579063 125.254844 124.579063 125.254844 124.579063 
L 125.254844 124.579063 
C 125.254844 124.579063 125.254844 124.579063 125.254844 124.579063 
C 125.254844 124.579063 125.254844 124.579063 125.254844 124.579063 
z
" clip-path="url(#pd768c721e4)" style="fill: #badbb8"/>
   </g>
   <g id="patch_44">
    <path d="M 125.254844 124.579063 
C 125.254844 124.579063 125.254844 124.579063 125.254844 124.579063 
C 125.254844 124.579063 125.254844 124.579063 125.254844 124.579063 
L 125.254844 124.579063 
C 125.254844 124.579063 125.254844 124.579063 125.254844 124.579063 
C 125.254844 124.579063 125.254844 124.579063 125.254844 124.579063 
z
" clip-path="url(#pd768c721e4)" style="fill: #badbb8"/>
   </g>
   <g id="patch_45">
    <path d="M 125.254844 124.579063 
C 125.254844 124.579063 125.254844 124.579063 125.254844 124.579063 
C 125.254844 124.579063 125.254844 124.579063 125.254844 124.579063 
L 125.254844 124.579063 
C 125.254844 124.579063 125.254844 124.579063 125.254844 124.579063 
C 125.254844 124.579063 125.254844 124.579063 125.254844 124.579063 
z
" clip-path="url(#pd768c721e4)" style="fill: #badbb8"/>
   </g>
   <g id="patch_46">
    <path d="M 125.254844 124.579063 
C 125.254844 124.579063 125.254844 124.579063 125.254844 124.579063 
C 125.254844 124.579063 125.254844 124.579063 125.254844 124.579063 
L 125.254844 124.579063 
C 125.254844 124.579063 125.254844 124.579063 125.254844 124.579063 
C 125.254844 124.579063 125.254844 124.579063 125.254844 124.579063 
z
" clip-path="url(#pd768c721e4)" style="fill: #badbb8"/>
   </g>
   <g id="patch_47">
    <path d="M 125.254844 124.579063 
C 125.254844 124.579063 125.254844 124.579063 125.254844 124.579063 
C 125.254844 124.579063 125.254844 124.579063 125.254844 124.579063 
L 125.254844 124.579063 
C 125.254844 124.579063 125.254844 124.579063 125.254844 124.579063 
C 125.254844 124.579063 125.254844 124.579063 125.254844 124.579063 
z
" clip-path="url(#pd768c721e4)" style="fill: #badbb8"/>
   </g>
   <g id="patch_48">
    <path d="M 125.254844 124.579063 
C 125.254844 124.579063 125.254844 124.579063 125.254844 124.579063 
C 125.254844 124.579063 125.254844 124.579063 125.254844 124.579063 
L 125.254844 124.579063 
C 125.254844 124.579063 125.254844 124.579063 125.254844 124.579063 
C 125.254844 124.579063 125.254844 124.579063 125.254844 124.579063 
z
" clip-path="url(#pd768c721e4)" style="fill: #badbb8"/>
   </g>
   <g id="patch_49">
    <path d="M 125.254844 124.579063 
C 125.254844 124.579063 125.254844 124.579063 125.254844 124.579063 
C 125.254844 124.579063 125.254844 124.579063 125.254844 124.579063 
L 125.254844 124.579063 
C 125.254844 124.579063 125.254844 124.579063 125.254844 124.579063 
C 125.254844 124.579063 125.254844 124.579063 125.254844 124.579063 
z
" clip-path="url(#pd768c721e4)" style="fill: #badbb8"/>
   </g>
   <g id="patch_50">
    <path d="M 125.254844 124.579063 
C 125.254844 124.579063 125.254844 124.579063 125.254844 124.579063 
C 125.254844 124.579063 125.254844 124.579063 125.254844 124.579063 
L 125.254844 124.579063 
C 125.254844 124.579063 125.254844 124.579063 125.254844 124.579063 
C 125.254844 124.579063 125.254844 124.579063 125.254844 124.579063 
z
" clip-path="url(#pd768c721e4)" style="fill: #badbb8"/>
   </g>
   <g id="patch_51">
    <path d="M 125.254844 124.579063 
C 125.254844 124.579063 125.254844 124.579063 125.254844 124.579063 
C 125.254844 124.579063 125.254844 124.579063 125.254844 124.579063 
L 125.254844 124.579063 
C 125.254844 124.579063 125.254844 124.579063 125.254844 124.579063 
C 125.254844 124.579063 125.254844 124.579063 125.254844 124.579063 
z
" clip-path="url(#pd768c721e4)" style="fill: #badbb8"/>
   </g>
   <g id="patch_52">
    <path d="M 125.254844 124.579063 
C 125.254844 124.579063 125.254844 124.579063 125.254844 124.579063 
C 125.254844 124.579063 125.254844 124.579063 125.254844 124.579063 
L 125.254844 124.579063 
C 125.254844 124.579063 125.254844 124.579063 125.254844 124.579063 
C 125.254844 124.579063 125.254844 124.579063 125.254844 124.579063 
z
" clip-path="url(#pd768c721e4)" style="fill: #badbb8"/>
   </g>
   <g id="patch_53">
    <path d="M 125.254844 124.579063 
C 125.254844 124.579063 125.254844 124.579063 125.254844 124.579063 
C 125.254844 124.579063 125.254844 124.579063 125.254844 124.579063 
L 125.254844 124.579063 
C 125.254844 124.579063 125.254844 124.579063 125.254844 124.579063 
C 125.254844 124.579063 125.254844 124.579063 125.254844 124.579063 
z
" clip-path="url(#pd768c721e4)" style="fill: #badbb8"/>
   </g>
   <g id="patch_54">
    <path d="M 125.254844 124.579063 
C 125.254844 124.579063 125.254844 124.579063 125.254844 124.579063 
C 125.254844 124.579063 125.254844 124.579063 125.254844 124.579063 
L 125.254844 124.579063 
C 125.254844 124.579063 125.254844 124.579063 125.254844 124.579063 
C 125.254844 124.579063 125.254844 124.579063 125.254844 124.579063 
z
" clip-path="url(#pd768c721e4)" style="fill: #badbb8"/>
   </g>
   <g id="patch_55">
    <path d="M 125.254844 124.579063 
C 125.254844 124.579063 125.254844 124.579063 125.254844 124.579063 
C 125.254844 124.579063 125.254844 124.579063 125.254844 124.579063 
L 125.254844 124.579063 
C 125.254844 124.579063 125.254844 124.579063 125.254844 124.579063 
C 125.254844 124.579063 125.254844 124.579063 125.254844 124.579063 
z
" clip-path="url(#pd768c721e4)" style="fill: #badbb8"/>
   </g>
   <g id="patch_56">
    <path d="M 125.254844 124.579063 
C 125.254844 124.579063 125.254844 124.579063 125.254844 124.579063 
C 125.254844 124.579063 125.254844 124.579063 125.254844 124.579063 
L 125.254844 124.579063 
C 125.254844 124.579063 125.254844 124.579063 125.254844 124.579063 
C 125.254844 124.579063 125.254844 124.579063 125.254844 124.579063 
z
" clip-path="url(#pd768c721e4)" style="fill: #badbb8"/>
   </g>
   <g id="patch_57">
    <path d="M 125.254844 124.579063 
C 125.254844 124.579063 125.254844 124.579063 125.254844 124.579063 
C 125.254844 124.579063 125.254844 124.579063 125.254844 124.579063 
L 125.254844 124.579063 
C 125.254844 124.579063 125.254844 124.579063 125.254844 124.579063 
C 125.254844 124.579063 125.254844 124.579063 125.254844 124.579063 
z
" clip-path="url(#pd768c721e4)" style="fill: #badbb8"/>
   </g>
   <g id="patch_58">
    <path d="M 125.254844 124.579063 
C 125.254844 124.579063 125.254844 124.579063 125.254844 124.579063 
C 125.254844 124.579063 125.254844 124.579063 125.254844 124.579063 
L 104.018731 126.670637 
C 104.087191 127.365727 104.189737 128.057036 104.325998 128.742069 
C 104.46226 129.427101 104.632072 130.10503 104.834823 130.773408 
z
" clip-path="url(#pd768c721e4)" style="fill: #badbb8"/>
   </g>
   <g id="patch_59">
    <path d="M 125.254844 124.579063 
C 125.254844 124.579063 125.254844 124.579063 125.254844 124.579063 
C 125.254844 124.579063 125.254844 124.579063 125.254844 124.579063 
L 125.254844 124.579063 
C 125.254844 124.579063 125.254844 124.579063 125.254844 124.579063 
C 125.254844 124.579063 125.254844 124.579063 125.254844 124.579063 
z
" clip-path="url(#pd768c721e4)" style="fill: #badbb8"/>
   </g>
   <g id="patch_60">
    <path d="M 125.254844 124.579063 
C 125.254844 124.579063 125.254844 124.579063 125.254844 124.579063 
C 125.254844 124.579063 125.254844 124.579063 125.254844 124.579063 
L 98.241695 116.384713 
C 97.973481 117.268894 97.748841 118.16571 97.568584 119.071923 
C 97.388327 119.978136 97.252671 120.892652 97.162107 121.812169 
z
" clip-path="url(#pd768c721e4)" style="fill: #badbb8"/>
   </g>
   <g id="patch_61">
    <path d="M 125.254844 124.579063 
C 125.254844 124.579063 125.254844 124.579063 125.254844 124.579063 
C 125.254844 124.579063 125.254844 124.579063 125.254844 124.579063 
L 97.026045 109.490455 
C 96.532172 110.414426 96.083961 111.362087 95.683032 112.330017 
C 95.282102 113.297947 94.928937 114.284977 94.624812 115.287544 
z
" clip-path="url(#pd768c721e4)" style="fill: #badbb8"/>
   </g>
   <g id="patch_62">
    <path d="M 125.254844 124.579063 
C 125.254844 124.579063 125.254844 124.579063 125.254844 124.579063 
C 125.254844 124.579063 125.254844 124.579063 125.254844 124.579063 
L 109.825029 111.91614 
C 109.410552 112.421181 109.021122 112.946268 108.658144 113.489502 
C 108.295166 114.032737 107.959078 114.593466 107.651095 115.169663 
z
" clip-path="url(#pd768c721e4)" style="fill: #badbb8"/>
   </g>
   <g id="patch_63">
    <path d="M 125.254844 124.579063 
C 125.254844 124.579063 125.254844 124.579063 125.254844 124.579063 
C 125.254844 124.579063 125.254844 124.579063 125.254844 124.579063 
L 107.346768 102.758009 
C 106.632532 103.344167 105.947506 103.965039 105.294163 104.618381 
C 104.64082 105.271724 104.019948 105.956751 103.43379 106.670986 
z
" clip-path="url(#pd768c721e4)" style="fill: #badbb8"/>
   </g>
   <g id="patch_64">
    <path d="M 125.254844 124.579063 
C 125.254844 124.579063 125.254844 124.579063 125.254844 124.579063 
C 125.254844 124.579063 125.254844 124.579063 125.254844 124.579063 
L 103.045015 83.027395 
C 101.684967 83.754356 100.36143 84.547654 99.079186 85.404422 
C 97.796941 86.26119 96.557535 87.180397 95.365442 88.158722 
z
" clip-path="url(#pd768c721e4)" style="fill: #badbb8"/>
   </g>
   <g id="patch_65">
    <path d="M 125.254844 124.579063 
C 125.254844 124.579063 125.254844 124.579063 125.254844 124.579063 
C 125.254844 124.579063 125.254844 124.579063 125.254844 124.579063 
L 120.87478 110.139927 
C 120.402165 110.283293 119.936875 110.449777 119.480588 110.638777 
C 119.024302 110.827777 118.57757 111.039065 118.142006 111.271879 
z
" clip-path="url(#pd768c721e4)" style="fill: #badbb8"/>
   </g>
   <g id="patch_66">
    <path d="M 125.254844 124.579063 
C 125.254844 124.579063 125.254844 124.579063 125.254844 124.579063 
C 125.254844 124.579063 125.254844 124.579063 125.254844 124.579063 
L 123.036394 102.054763 
C 122.29914 102.127376 121.565895 102.236143 120.839309 102.38067 
C 120.112722 102.525197 119.39367 102.70531 118.684748 102.920359 
z
" clip-path="url(#pd768c721e4)" style="fill: #badbb8"/>
   </g>
   <g id="patch_67">
    <path d="M 123.163269 103.342949 
C 123.858359 103.274489 124.556391 103.240197 125.254844 103.240197 
C 125.953297 103.240197 126.651329 103.274489 127.346418 103.342949 
L 135.203574 23.56791 
C 131.897328 23.242274 128.577087 23.079161 125.254844 23.079161 
C 121.9326 23.079161 118.612359 23.242274 115.306114 23.56791 
z
" clip-path="url(#pd768c721e4)" style="fill: #a1a1d8"/>
   </g>
   <g id="patch_68">
    <path d="M 127.346418 103.342949 
C 128.041508 103.41141 128.732818 103.513956 129.41785 103.650217 
C 130.102882 103.786479 130.780812 103.956291 131.449189 104.159041 
L 141.93363 69.596473 
C 140.133968 69.050551 138.308587 68.593317 136.464081 68.226422 
C 134.619575 67.859527 132.758167 67.583413 130.886581 67.399078 
z
" clip-path="url(#pd768c721e4)" style="fill: #a1a1d8"/>
   </g>
   <g id="patch_69">
    <path d="M 134.284577 94.812022 
C 135.258896 95.107579 136.218118 95.450794 137.158776 95.840427 
C 138.099435 96.230061 139.020396 96.665643 139.918334 97.145601 
L 145.684915 86.357088 
C 144.433853 85.688381 143.150713 85.081501 141.84013 84.53864 
C 140.529547 83.995779 139.193101 83.517591 137.835619 83.105803 
z
" clip-path="url(#pd768c721e4)" style="fill: #a1a1d8"/>
   </g>
   <g id="patch_70">
    <path d="M 140.756914 95.576728 
C 141.706204 96.084134 142.630009 96.637842 143.524993 97.235851 
C 144.419978 97.833861 145.285062 98.475451 146.117121 99.158304 
L 147.187668 97.853839 
C 146.312912 97.135945 145.403436 96.461431 144.462525 95.832735 
C 143.521615 95.204039 142.550405 94.621918 141.552402 94.088475 
z
" clip-path="url(#pd768c721e4)" style="fill: #a1a1d8"/>
   </g>
   <g id="patch_71">
    <path d="M 147.187668 97.853839 
C 148.062425 98.571733 148.901407 99.332142 149.701586 100.132321 
C 150.501764 100.932499 151.262173 101.771482 151.980067 102.646238 
L 151.980067 102.646238 
C 151.262173 101.771482 150.501764 100.932499 149.701586 100.132321 
C 148.901407 99.332142 148.062425 98.571733 147.187668 97.853839 
z
" clip-path="url(#pd768c721e4)" style="fill: #a1a1d8"/>
   </g>
   <g id="patch_72">
    <path d="M 125.254844 124.579063 
C 125.254844 124.579063 125.254844 124.579063 125.254844 124.579063 
C 125.254844 124.579063 125.254844 124.579063 125.254844 124.579063 
L 136.779203 118.419164 
C 136.57758 118.041955 136.357559 117.674872 136.119934 117.319241 
C 135.882309 116.963611 135.627367 116.619861 135.356029 116.289234 
z
" clip-path="url(#pd768c721e4)" style="fill: #a1a1d8"/>
   </g>
   <g id="patch_73">
    <path d="M 125.254844 124.579063 
C 125.254844 124.579063 125.254844 124.579063 125.254844 124.579063 
C 125.254844 124.579063 125.254844 124.579063 125.254844 124.579063 
L 125.254844 124.579063 
C 125.254844 124.579063 125.254844 124.579063 125.254844 124.579063 
C 125.254844 124.579063 125.254844 124.579063 125.254844 124.579063 
z
" clip-path="url(#pd768c721e4)" style="fill: #a1a1d8"/>
   </g>
   <g id="patch_74">
    <path d="M 146.913547 118.008967 
C 147.128596 118.717888 147.308709 119.436941 147.453236 120.163528 
C 147.597763 120.890114 147.70653 121.623359 147.779143 122.360613 
L 147.779143 122.360613 
C 147.70653 121.623359 147.597763 120.890114 147.453236 120.163528 
C 147.308709 119.436941 147.128596 118.717888 146.913547 118.008967 
z
" clip-path="url(#pd768c721e4)" style="fill: #a1a1d8"/>
   </g>
   <g id="patch_75">
    <path d="M 125.254844 124.579063 
C 125.254844 124.579063 125.254844 124.579063 125.254844 124.579063 
C 125.254844 124.579063 125.254844 124.579063 125.254844 124.579063 
L 125.254844 124.579063 
C 125.254844 124.579063 125.254844 124.579063 125.254844 124.579063 
C 125.254844 124.579063 125.254844 124.579063 125.254844 124.579063 
z
" clip-path="url(#pd768c721e4)" style="fill: #a1a1d8"/>
   </g>
   <g id="patch_76">
    <path d="M 125.254844 124.579063 
C 125.254844 124.579063 125.254844 124.579063 125.254844 124.579063 
C 125.254844 124.579063 125.254844 124.579063 125.254844 124.579063 
L 125.254844 124.579063 
C 125.254844 124.579063 125.254844 124.579063 125.254844 124.579063 
C 125.254844 124.579063 125.254844 124.579063 125.254844 124.579063 
z
" clip-path="url(#pd768c721e4)" style="fill: #a1a1d8"/>
   </g>
   <g id="patch_77">
    <path d="M 125.254844 124.579063 
C 125.254844 124.579063 125.254844 124.579063 125.254844 124.579063 
C 125.254844 124.579063 125.254844 124.579063 125.254844 124.579063 
L 125.254844 124.579063 
C 125.254844 124.579063 125.254844 124.579063 125.254844 124.579063 
C 125.254844 124.579063 125.254844 124.579063 125.254844 124.579063 
z
" clip-path="url(#pd768c721e4)" style="fill: #a1a1d8"/>
   </g>
   <g id="patch_78">
    <path d="M 125.254844 124.579063 
C 125.254844 124.579063 125.254844 124.579063 125.254844 124.579063 
C 125.254844 124.579063 125.254844 124.579063 125.254844 124.579063 
L 125.254844 124.579063 
C 125.254844 124.579063 125.254844 124.579063 125.254844 124.579063 
C 125.254844 124.579063 125.254844 124.579063 125.254844 124.579063 
z
" clip-path="url(#pd768c721e4)" style="fill: #a1a1d8"/>
   </g>
   <g id="patch_79">
    <path d="M 125.254844 124.579063 
C 125.254844 124.579063 125.254844 124.579063 125.254844 124.579063 
C 125.254844 124.579063 125.254844 124.579063 125.254844 124.579063 
L 125.254844 124.579063 
C 125.254844 124.579063 125.254844 124.579063 125.254844 124.579063 
C 125.254844 124.579063 125.254844 124.579063 125.254844 124.579063 
z
" clip-path="url(#pd768c721e4)" style="fill: #a1a1d8"/>
   </g>
   <g id="patch_80">
    <path d="M 125.254844 124.579063 
C 125.254844 124.579063 125.254844 124.579063 125.254844 124.579063 
C 125.254844 124.579063 125.254844 124.579063 125.254844 124.579063 
L 125.254844 124.579063 
C 125.254844 124.579063 125.254844 124.579063 125.254844 124.579063 
C 125.254844 124.579063 125.254844 124.579063 125.254844 124.579063 
z
" clip-path="url(#pd768c721e4)" style="fill: #a1a1d8"/>
   </g>
   <g id="patch_81">
    <path d="M 125.254844 124.579063 
C 125.254844 124.579063 125.254844 124.579063 125.254844 124.579063 
C 125.254844 124.579063 125.254844 124.579063 125.254844 124.579063 
L 125.254844 124.579063 
C 125.254844 124.579063 125.254844 124.579063 125.254844 124.579063 
C 125.254844 124.579063 125.254844 124.579063 125.254844 124.579063 
z
" clip-path="url(#pd768c721e4)" style="fill: #a1a1d8"/>
   </g>
   <g id="patch_82">
    <path d="M 125.254844 124.579063 
C 125.254844 124.579063 125.254844 124.579063 125.254844 124.579063 
C 125.254844 124.579063 125.254844 124.579063 125.254844 124.579063 
L 125.254844 124.579063 
C 125.254844 124.579063 125.254844 124.579063 125.254844 124.579063 
C 125.254844 124.579063 125.254844 124.579063 125.254844 124.579063 
z
" clip-path="url(#pd768c721e4)" style="fill: #a1a1d8"/>
   </g>
   <g id="patch_83">
    <path d="M 125.254844 124.579063 
C 125.254844 124.579063 125.254844 124.579063 125.254844 124.579063 
C 125.254844 124.579063 125.254844 124.579063 125.254844 124.579063 
L 125.254844 124.579063 
C 125.254844 124.579063 125.254844 124.579063 125.254844 124.579063 
C 125.254844 124.579063 125.254844 124.579063 125.254844 124.579063 
z
" clip-path="url(#pd768c721e4)" style="fill: #a1a1d8"/>
   </g>
   <g id="patch_84">
    <path d="M 125.254844 124.579063 
C 125.254844 124.579063 125.254844 124.579063 125.254844 124.579063 
C 125.254844 124.579063 125.254844 124.579063 125.254844 124.579063 
L 125.254844 124.579063 
C 125.254844 124.579063 125.254844 124.579063 125.254844 124.579063 
C 125.254844 124.579063 125.254844 124.579063 125.254844 124.579063 
z
" clip-path="url(#pd768c721e4)" style="fill: #a1a1d8"/>
   </g>
   <g id="patch_85">
    <path d="M 125.254844 124.579063 
C 125.254844 124.579063 125.254844 124.579063 125.254844 124.579063 
C 125.254844 124.579063 125.254844 124.579063 125.254844 124.579063 
L 125.254844 124.579063 
C 125.254844 124.579063 125.254844 124.579063 125.254844 124.579063 
C 125.254844 124.579063 125.254844 124.579063 125.254844 124.579063 
z
" clip-path="url(#pd768c721e4)" style="fill: #a1a1d8"/>
   </g>
   <g id="patch_86">
    <path d="M 125.254844 124.579063 
C 125.254844 124.579063 125.254844 124.579063 125.254844 124.579063 
C 125.254844 124.579063 125.254844 124.579063 125.254844 124.579063 
L 125.254844 124.579063 
C 125.254844 124.579063 125.254844 124.579063 125.254844 124.579063 
C 125.254844 124.579063 125.254844 124.579063 125.254844 124.579063 
z
" clip-path="url(#pd768c721e4)" style="fill: #a1a1d8"/>
   </g>
   <g id="patch_87">
    <path d="M 125.254844 124.579063 
C 125.254844 124.579063 125.254844 124.579063 125.254844 124.579063 
C 125.254844 124.579063 125.254844 124.579063 125.254844 124.579063 
L 125.254844 124.579063 
C 125.254844 124.579063 125.254844 124.579063 125.254844 124.579063 
C 125.254844 124.579063 125.254844 124.579063 125.254844 124.579063 
z
" clip-path="url(#pd768c721e4)" style="fill: #a1a1d8"/>
   </g>
   <g id="patch_88">
    <path d="M 125.254844 124.579063 
C 125.254844 124.579063 125.254844 124.579063 125.254844 124.579063 
C 125.254844 124.579063 125.254844 124.579063 125.254844 124.579063 
L 125.254844 124.579063 
C 125.254844 124.579063 125.254844 124.579063 125.254844 124.579063 
C 125.254844 124.579063 125.254844 124.579063 125.254844 124.579063 
z
" clip-path="url(#pd768c721e4)" style="fill: #a1a1d8"/>
   </g>
   <g id="patch_89">
    <path d="M 125.254844 124.579063 
C 125.254844 124.579063 125.254844 124.579063 125.254844 124.579063 
C 125.254844 124.579063 125.254844 124.579063 125.254844 124.579063 
L 125.254844 124.579063 
C 125.254844 124.579063 125.254844 124.579063 125.254844 124.579063 
C 125.254844 124.579063 125.254844 124.579063 125.254844 124.579063 
z
" clip-path="url(#pd768c721e4)" style="fill: #a1a1d8"/>
   </g>
   <g id="patch_90">
    <path d="M 104.834823 130.773408 
C 104.632072 130.10503 104.46226 129.427101 104.325998 128.742069 
C 104.189737 128.057036 104.087191 127.365727 104.018731 126.670637 
L 104.018731 126.670637 
C 104.087191 127.365727 104.189737 128.057036 104.325998 128.742069 
C 104.46226 129.427101 104.632072 130.10503 104.834823 130.773408 
z
" clip-path="url(#pd768c721e4)" style="fill: #a1a1d8"/>
   </g>
   <g id="patch_91">
    <path d="M 125.254844 124.579063 
C 125.254844 124.579063 125.254844 124.579063 125.254844 124.579063 
C 125.254844 124.579063 125.254844 124.579063 125.254844 124.579063 
L 125.254844 124.579063 
C 125.254844 124.579063 125.254844 124.579063 125.254844 124.579063 
C 125.254844 124.579063 125.254844 124.579063 125.254844 124.579063 
z
" clip-path="url(#pd768c721e4)" style="fill: #a1a1d8"/>
   </g>
   <g id="patch_92">
    <path d="M 97.162107 121.812169 
C 97.252671 120.892652 97.388327 119.978136 97.568584 119.071923 
C 97.748841 118.16571 97.973481 117.268894 98.241695 116.384713 
L 87.052482 112.990503 
C 86.673171 114.240923 86.355481 115.509213 86.100559 116.790791 
C 85.845638 118.072369 85.653792 119.365691 85.525714 120.666085 
z
" clip-path="url(#pd768c721e4)" style="fill: #a1a1d8"/>
   </g>
   <g id="patch_93">
    <path d="M 94.624812 115.287544 
C 94.928937 114.284977 95.282102 113.297947 95.683032 112.330017 
C 96.083961 111.362087 96.532172 110.414426 97.026045 109.490455 
L 88.209213 104.77776 
C 87.561087 105.990319 86.972884 107.233968 86.446731 108.504216 
C 85.920577 109.774463 85.457106 111.069778 85.057992 112.385481 
z
" clip-path="url(#pd768c721e4)" style="fill: #a1a1d8"/>
   </g>
   <g id="patch_94">
    <path d="M 107.651095 115.169663 
C 107.959078 114.593466 108.295166 114.032737 108.658144 113.489502 
C 109.021122 112.946268 109.410552 112.421181 109.825029 111.91614 
L 88.834503 94.689661 
C 87.856178 95.881753 86.936972 97.12116 86.080203 98.403405 
C 85.223435 99.685649 84.430137 101.009186 83.703177 102.369234 
z
" clip-path="url(#pd768c721e4)" style="fill: #a1a1d8"/>
   </g>
   <g id="patch_95">
    <path d="M 103.43379 106.670986 
C 104.019948 105.956751 104.64082 105.271724 105.294163 104.618381 
C 105.947506 103.965039 106.632532 103.344167 107.346768 102.758009 
L 102.301348 96.610147 
C 101.385884 97.36145 100.507858 98.157246 99.670443 98.994661 
C 98.833027 99.832077 98.037231 100.710103 97.285929 101.625567 
z
" clip-path="url(#pd768c721e4)" style="fill: #a1a1d8"/>
   </g>
   <g id="patch_96">
    <path d="M 95.365442 88.158722 
C 96.557535 87.180397 97.796941 86.26119 99.079186 85.404422 
C 100.36143 84.547654 101.684967 83.754356 103.045015 83.027395 
L 97.026644 71.767815 
C 95.298053 72.691766 93.615867 73.70003 91.986163 74.788963 
C 90.356459 75.877897 88.7812 77.046188 87.266078 78.289617 
z
" clip-path="url(#pd768c721e4)" style="fill: #a1a1d8"/>
   </g>
   <g id="patch_97">
    <path d="M 118.142006 111.271879 
C 118.57757 111.039065 119.024302 110.827777 119.480588 110.638777 
C 119.936875 110.449777 120.402165 110.283293 120.87478 110.139927 
L 117.060495 97.565914 
C 116.176314 97.834127 115.305835 98.145589 114.452201 98.499176 
C 113.598567 98.852763 112.762808 99.248047 111.947943 99.683602 
z
" clip-path="url(#pd768c721e4)" style="fill: #a1a1d8"/>
   </g>
   <g id="patch_98">
    <path d="M 118.684748 102.920359 
C 119.39367 102.70531 120.112722 102.525197 120.839309 102.38067 
C 121.565895 102.236143 122.29914 102.127376 123.036394 102.054763 
L 123.036394 102.054763 
C 122.29914 102.127376 121.565895 102.236143 120.839309 102.38067 
C 120.112722 102.525197 119.39367 102.70531 118.684748 102.920359 
z
" clip-path="url(#pd768c721e4)" style="fill: #a1a1d8"/>
   </g>
   <g id="patch_99">
    <path d="M 115.306114 23.56791 
C 118.612359 23.242274 121.9326 23.079161 125.254844 23.079161 
C 128.577087 23.079161 131.897328 23.242274 135.203574 23.56791 
L 136.122984 14.232982 
C 132.511192 13.877251 128.884112 13.699064 125.254844 13.699064 
C 121.625576 13.699064 117.998495 13.877251 114.386703 14.232982 
z
" clip-path="url(#pd768c721e4)" style="fill: #828282"/>
   </g>
   <g id="patch_100">
    <path d="M 130.886581 67.399078 
C 132.758167 67.583413 134.619575 67.859527 136.464081 68.226422 
C 138.308587 68.593317 140.133968 69.050551 141.93363 69.596473 
L 145.915564 56.469797 
C 143.686246 55.79354 141.425069 55.227145 139.140201 54.772657 
C 136.855333 54.318168 134.549528 53.976134 132.231115 53.747791 
z
" clip-path="url(#pd768c721e4)" style="fill: #828282"/>
   </g>
   <g id="patch_101">
    <path d="M 137.835619 83.105803 
C 139.193101 83.517591 140.529547 83.995779 141.84013 84.53864 
C 143.150713 85.081501 144.433853 85.688381 145.684915 86.357088 
L 145.684915 86.357088 
C 144.433853 85.688381 143.150713 85.081501 141.84013 84.53864 
C 140.529547 83.995779 139.193101 83.517591 137.835619 83.105803 
z
" clip-path="url(#pd768c721e4)" style="fill: #828282"/>
   </g>
   <g id="patch_102">
    <path d="M 141.552402 94.088475 
C 142.550405 94.621918 143.521615 95.204039 144.462525 95.832735 
C 145.403436 96.461431 146.312912 97.135945 147.187668 97.853839 
L 164.137585 77.200305 
C 162.586808 75.927615 160.97448 74.73183 159.306424 73.617271 
C 157.638369 72.502712 155.916597 71.470722 154.147327 70.525028 
z
" clip-path="url(#pd768c721e4)" style="fill: #828282"/>
   </g>
   <g id="patch_103">
    <path d="M 147.187668 97.853839 
C 148.062425 98.571733 148.901407 99.332142 149.701586 100.132321 
C 150.501764 100.932499 151.262173 101.771482 151.980067 102.646238 
L 151.980067 102.646238 
C 151.262173 101.771482 150.501764 100.932499 149.701586 100.132321 
C 148.901407 99.332142 148.062425 98.571733 147.187668 97.853839 
z
" clip-path="url(#pd768c721e4)" style="fill: #828282"/>
   </g>
   <g id="patch_104">
    <path d="M 135.356029 116.289234 
C 135.627367 116.619861 135.882309 116.963611 136.119934 117.319241 
C 136.357559 117.674872 136.57758 118.041955 136.779203 118.419164 
L 146.295348 113.332679 
C 145.927237 112.643991 145.525536 111.973793 145.091694 111.324503 
C 144.657853 110.675213 144.192394 110.047615 143.697 109.443976 
z
" clip-path="url(#pd768c721e4)" style="fill: #828282"/>
   </g>
   <g id="patch_105">
    <path d="M 125.254844 124.579063 
C 125.254844 124.579063 125.254844 124.579063 125.254844 124.579063 
C 125.254844 124.579063 125.254844 124.579063 125.254844 124.579063 
L 125.254844 124.579063 
C 125.254844 124.579063 125.254844 124.579063 125.254844 124.579063 
C 125.254844 124.579063 125.254844 124.579063 125.254844 124.579063 
z
" clip-path="url(#pd768c721e4)" style="fill: #828282"/>
   </g>
   <g id="patch_106">
    <path d="M 146.913547 118.008967 
C 147.128596 118.717888 147.308709 119.436941 147.453236 120.163528 
C 147.597763 120.890114 147.70653 121.623359 147.779143 122.360613 
L 147.779143 122.360613 
C 147.70653 121.623359 147.597763 120.890114 147.453236 120.163528 
C 147.308709 119.436941 147.128596 118.717888 146.913547 118.008967 
z
" clip-path="url(#pd768c721e4)" style="fill: #828282"/>
   </g>
   <g id="patch_107">
    <path d="M 125.254844 124.579063 
C 125.254844 124.579063 125.254844 124.579063 125.254844 124.579063 
C 125.254844 124.579063 125.254844 124.579063 125.254844 124.579063 
L 125.254844 124.579063 
C 125.254844 124.579063 125.254844 124.579063 125.254844 124.579063 
C 125.254844 124.579063 125.254844 124.579063 125.254844 124.579063 
z
" clip-path="url(#pd768c721e4)" style="fill: #828282"/>
   </g>
   <g id="patch_108">
    <path d="M 125.254844 124.579063 
C 125.254844 124.579063 125.254844 124.579063 125.254844 124.579063 
C 125.254844 124.579063 125.254844 124.579063 125.254844 124.579063 
L 125.254844 124.579063 
C 125.254844 124.579063 125.254844 124.579063 125.254844 124.579063 
C 125.254844 124.579063 125.254844 124.579063 125.254844 124.579063 
z
" clip-path="url(#pd768c721e4)" style="fill: #828282"/>
   </g>
   <g id="patch_109">
    <path d="M 125.254844 124.579063 
C 125.254844 124.579063 125.254844 124.579063 125.254844 124.579063 
C 125.254844 124.579063 125.254844 124.579063 125.254844 124.579063 
L 125.254844 124.579063 
C 125.254844 124.579063 125.254844 124.579063 125.254844 124.579063 
C 125.254844 124.579063 125.254844 124.579063 125.254844 124.579063 
z
" clip-path="url(#pd768c721e4)" style="fill: #828282"/>
   </g>
   <g id="patch_110">
    <path d="M 125.254844 124.579063 
C 125.254844 124.579063 125.254844 124.579063 125.254844 124.579063 
C 125.254844 124.579063 125.254844 124.579063 125.254844 124.579063 
L 125.254844 124.579063 
C 125.254844 124.579063 125.254844 124.579063 125.254844 124.579063 
C 125.254844 124.579063 125.254844 124.579063 125.254844 124.579063 
z
" clip-path="url(#pd768c721e4)" style="fill: #828282"/>
   </g>
   <g id="patch_111">
    <path d="M 125.254844 124.579063 
C 125.254844 124.579063 125.254844 124.579063 125.254844 124.579063 
C 125.254844 124.579063 125.254844 124.579063 125.254844 124.579063 
L 125.254844 124.579063 
C 125.254844 124.579063 125.254844 124.579063 125.254844 124.579063 
C 125.254844 124.579063 125.254844 124.579063 125.254844 124.579063 
z
" clip-path="url(#pd768c721e4)" style="fill: #828282"/>
   </g>
   <g id="patch_112">
    <path d="M 125.254844 124.579063 
C 125.254844 124.579063 125.254844 124.579063 125.254844 124.579063 
C 125.254844 124.579063 125.254844 124.579063 125.254844 124.579063 
L 125.254844 124.579063 
C 125.254844 124.579063 125.254844 124.579063 125.254844 124.579063 
C 125.254844 124.579063 125.254844 124.579063 125.254844 124.579063 
z
" clip-path="url(#pd768c721e4)" style="fill: #828282"/>
   </g>
   <g id="patch_113">
    <path d="M 125.254844 124.579063 
C 125.254844 124.579063 125.254844 124.579063 125.254844 124.579063 
C 125.254844 124.579063 125.254844 124.579063 125.254844 124.579063 
L 125.254844 124.579063 
C 125.254844 124.579063 125.254844 124.579063 125.254844 124.579063 
C 125.254844 124.579063 125.254844 124.579063 125.254844 124.579063 
z
" clip-path="url(#pd768c721e4)" style="fill: #828282"/>
   </g>
   <g id="patch_114">
    <path d="M 125.254844 124.579063 
C 125.254844 124.579063 125.254844 124.579063 125.254844 124.579063 
C 125.254844 124.579063 125.254844 124.579063 125.254844 124.579063 
L 125.254844 124.579063 
C 125.254844 124.579063 125.254844 124.579063 125.254844 124.579063 
C 125.254844 124.579063 125.254844 124.579063 125.254844 124.579063 
z
" clip-path="url(#pd768c721e4)" style="fill: #828282"/>
   </g>
   <g id="patch_115">
    <path d="M 125.254844 124.579063 
C 125.254844 124.579063 125.254844 124.579063 125.254844 124.579063 
C 125.254844 124.579063 125.254844 124.579063 125.254844 124.579063 
L 125.254844 124.579063 
C 125.254844 124.579063 125.254844 124.579063 125.254844 124.579063 
C 125.254844 124.579063 125.254844 124.579063 125.254844 124.579063 
z
" clip-path="url(#pd768c721e4)" style="fill: #828282"/>
   </g>
   <g id="patch_116">
    <path d="M 125.254844 124.579063 
C 125.254844 124.579063 125.254844 124.579063 125.254844 124.579063 
C 125.254844 124.579063 125.254844 124.579063 125.254844 124.579063 
L 125.254844 124.579063 
C 125.254844 124.579063 125.254844 124.579063 125.254844 124.579063 
C 125.254844 124.579063 125.254844 124.579063 125.254844 124.579063 
z
" clip-path="url(#pd768c721e4)" style="fill: #828282"/>
   </g>
   <g id="patch_117">
    <path d="M 125.254844 124.579063 
C 125.254844 124.579063 125.254844 124.579063 125.254844 124.579063 
C 125.254844 124.579063 125.254844 124.579063 125.254844 124.579063 
L 125.254844 124.579063 
C 125.254844 124.579063 125.254844 124.579063 125.254844 124.579063 
C 125.254844 124.579063 125.254844 124.579063 125.254844 124.579063 
z
" clip-path="url(#pd768c721e4)" style="fill: #828282"/>
   </g>
   <g id="patch_118">
    <path d="M 125.254844 124.579063 
C 125.254844 124.579063 125.254844 124.579063 125.254844 124.579063 
C 125.254844 124.579063 125.254844 124.579063 125.254844 124.579063 
L 125.254844 124.579063 
C 125.254844 124.579063 125.254844 124.579063 125.254844 124.579063 
C 125.254844 124.579063 125.254844 124.579063 125.254844 124.579063 
z
" clip-path="url(#pd768c721e4)" style="fill: #828282"/>
   </g>
   <g id="patch_119">
    <path d="M 125.254844 124.579063 
C 125.254844 124.579063 125.254844 124.579063 125.254844 124.579063 
C 125.254844 124.579063 125.254844 124.579063 125.254844 124.579063 
L 125.254844 124.579063 
C 125.254844 124.579063 125.254844 124.579063 125.254844 124.579063 
C 125.254844 124.579063 125.254844 124.579063 125.254844 124.579063 
z
" clip-path="url(#pd768c721e4)" style="fill: #828282"/>
   </g>
   <g id="patch_120">
    <path d="M 125.254844 124.579063 
C 125.254844 124.579063 125.254844 124.579063 125.254844 124.579063 
C 125.254844 124.579063 125.254844 124.579063 125.254844 124.579063 
L 125.254844 124.579063 
C 125.254844 124.579063 125.254844 124.579063 125.254844 124.579063 
C 125.254844 124.579063 125.254844 124.579063 125.254844 124.579063 
z
" clip-path="url(#pd768c721e4)" style="fill: #828282"/>
   </g>
   <g id="patch_121">
    <path d="M 125.254844 124.579063 
C 125.254844 124.579063 125.254844 124.579063 125.254844 124.579063 
C 125.254844 124.579063 125.254844 124.579063 125.254844 124.579063 
L 125.254844 124.579063 
C 125.254844 124.579063 125.254844 124.579063 125.254844 124.579063 
C 125.254844 124.579063 125.254844 124.579063 125.254844 124.579063 
z
" clip-path="url(#pd768c721e4)" style="fill: #828282"/>
   </g>
   <g id="patch_122">
    <path d="M 104.834823 130.773408 
C 104.632072 130.10503 104.46226 129.427101 104.325998 128.742069 
C 104.189737 128.057036 104.087191 127.365727 104.018731 126.670637 
L 104.018731 126.670637 
C 104.087191 127.365727 104.189737 128.057036 104.325998 128.742069 
C 104.46226 129.427101 104.632072 130.10503 104.834823 130.773408 
z
" clip-path="url(#pd768c721e4)" style="fill: #828282"/>
   </g>
   <g id="patch_123">
    <path d="M 125.254844 124.579063 
C 125.254844 124.579063 125.254844 124.579063 125.254844 124.579063 
C 125.254844 124.579063 125.254844 124.579063 125.254844 124.579063 
L 125.254844 124.579063 
C 125.254844 124.579063 125.254844 124.579063 125.254844 124.579063 
C 125.254844 124.579063 125.254844 124.579063 125.254844 124.579063 
z
" clip-path="url(#pd768c721e4)" style="fill: #828282"/>
   </g>
   <g id="patch_124">
    <path d="M 85.525714 120.666085 
C 85.653792 119.365691 85.845638 118.072369 86.100559 116.790791 
C 86.355481 115.509213 86.673171 114.240923 87.052482 112.990503 
L 87.052482 112.990503 
C 86.673171 114.240923 86.355481 115.509213 86.100559 116.790791 
C 85.845638 118.072369 85.653792 119.365691 85.525714 120.666085 
z
" clip-path="url(#pd768c721e4)" style="fill: #828282"/>
   </g>
   <g id="patch_125">
    <path d="M 85.057992 112.385481 
C 85.457106 111.069778 85.920577 109.774463 86.446731 108.504216 
C 86.972884 107.233968 87.561087 105.990319 88.209213 104.77776 
L 88.209213 104.77776 
C 87.561087 105.990319 86.972884 107.233968 86.446731 108.504216 
C 85.920577 109.774463 85.457106 111.069778 85.057992 112.385481 
z
" clip-path="url(#pd768c721e4)" style="fill: #828282"/>
   </g>
   <g id="patch_126">
    <path d="M 83.703177 102.369234 
C 84.430137 101.009186 85.223435 99.685649 86.080203 98.403405 
C 86.936972 97.12116 87.856178 95.881753 88.834503 94.689661 
L 88.834503 94.689661 
C 87.856178 95.881753 86.936972 97.12116 86.080203 98.403405 
C 85.223435 99.685649 84.430137 101.009186 83.703177 102.369234 
z
" clip-path="url(#pd768c721e4)" style="fill: #828282"/>
   </g>
   <g id="patch_127">
    <path d="M 97.285929 101.625567 
C 98.037231 100.710103 98.833027 99.832077 99.670443 98.994661 
C 100.507858 98.157246 101.385884 97.36145 102.301348 96.610147 
L 95.751128 88.628681 
C 94.574419 89.594382 93.445831 90.617274 92.369443 91.693662 
C 91.293055 92.77005 90.270163 93.898637 89.304462 95.075347 
z
" clip-path="url(#pd768c721e4)" style="fill: #828282"/>
   </g>
   <g id="patch_128">
    <path d="M 87.266078 78.289617 
C 88.7812 77.046188 90.356459 75.877897 91.986163 74.788963 
C 93.615867 73.70003 95.298053 72.691766 97.026644 71.767815 
L 90.22818 59.048784 
C 88.083276 60.195259 85.995954 61.446351 83.973752 62.797543 
C 81.951551 64.148735 79.996908 65.598397 78.116884 67.141293 
z
" clip-path="url(#pd768c721e4)" style="fill: #828282"/>
   </g>
   <g id="patch_129">
    <path d="M 111.947943 99.683602 
C 112.762808 99.248047 113.598567 98.852763 114.452201 98.499176 
C 115.305835 98.145589 116.176314 97.834127 117.060495 97.565914 
L 109.462299 72.518019 
C 107.758263 73.034933 106.080634 73.635198 104.43547 74.316647 
C 102.790306 74.998097 101.179591 75.759908 99.609142 76.59933 
z
" clip-path="url(#pd768c721e4)" style="fill: #828282"/>
   </g>
   <g id="patch_130">
    <path d="M 118.684748 102.920359 
C 119.39367 102.70531 120.112722 102.525197 120.839309 102.38067 
C 121.565895 102.236143 122.29914 102.127376 123.036394 102.054763 
L 120.880002 80.160545 
C 119.426117 80.30374 117.98014 80.518231 116.547292 80.803242 
C 115.114444 81.088253 113.696453 81.443441 112.29844 81.867524 
z
" clip-path="url(#pd768c721e4)" style="fill: #828282"/>
   </g>
   <g id="patch_131">
    <path d="M 125.254844 124.579063 
C 125.254844 124.579063 125.254844 124.579063 125.254844 124.579063 
C 125.254844 124.579063 125.254844 124.579063 125.254844 124.579063 
L 136.122984 14.232982 
C 132.511192 13.877251 128.884112 13.699064 125.254844 13.699064 
C 121.625576 13.699064 117.998495 13.877251 114.386703 14.232982 
L 125.254844 124.579063 
z
" clip-path="url(#pd768c721e4)" style="fill: none; stroke: #292929; stroke-width: 0.5; stroke-linejoin: miter"/>
   </g>
   <g id="patch_132">
    <path d="M 125.254844 124.579063 
C 125.254844 124.579063 125.254844 124.579063 125.254844 124.579063 
C 125.254844 124.579063 125.254844 124.579063 125.254844 124.579063 
L 145.915564 56.469797 
C 143.686246 55.79354 141.425069 55.227145 139.140201 54.772657 
C 136.855333 54.318168 134.549528 53.976134 132.231115 53.747791 
L 125.254844 124.579063 
z
" clip-path="url(#pd768c721e4)" style="fill: none; stroke: #292929; stroke-width: 0.5; stroke-linejoin: miter"/>
   </g>
   <g id="patch_133">
    <path d="M 125.254844 124.579063 
C 125.254844 124.579063 125.254844 124.579063 125.254844 124.579063 
C 125.254844 124.579063 125.254844 124.579063 125.254844 124.579063 
L 145.684915 86.357088 
C 144.433853 85.688381 143.150713 85.081501 141.84013 84.53864 
C 140.529547 83.995779 139.193101 83.517591 137.835619 83.105803 
L 125.254844 124.579063 
z
" clip-path="url(#pd768c721e4)" style="fill: none; stroke: #292929; stroke-width: 0.5; stroke-linejoin: miter"/>
   </g>
   <g id="patch_134">
    <path d="M 125.254844 124.579063 
C 125.254844 124.579063 125.254844 124.579063 125.254844 124.579063 
C 125.254844 124.579063 125.254844 124.579063 125.254844 124.579063 
L 164.137585 77.200305 
C 162.586808 75.927615 160.97448 74.73183 159.306424 73.617271 
C 157.638369 72.502712 155.916597 71.470722 154.147327 70.525028 
L 125.254844 124.579063 
z
" clip-path="url(#pd768c721e4)" style="fill: none; stroke: #292929; stroke-width: 0.5; stroke-linejoin: miter"/>
   </g>
   <g id="patch_135">
    <path d="M 125.254844 124.579063 
C 125.254844 124.579063 125.254844 124.579063 125.254844 124.579063 
C 125.254844 124.579063 125.254844 124.579063 125.254844 124.579063 
L 151.980067 102.646238 
C 151.262173 101.771482 150.501764 100.932499 149.701586 100.132321 
C 148.901407 99.332142 148.062425 98.571733 147.187668 97.853839 
L 125.254844 124.579063 
z
" clip-path="url(#pd768c721e4)" style="fill: none; stroke: #292929; stroke-width: 0.5; stroke-linejoin: miter"/>
   </g>
   <g id="patch_136">
    <path d="M 125.254844 124.579063 
C 125.254844 124.579063 125.254844 124.579063 125.254844 124.579063 
C 125.254844 124.579063 125.254844 124.579063 125.254844 124.579063 
L 146.295348 113.332679 
C 145.927237 112.643991 145.525536 111.973793 145.091694 111.324503 
C 144.657853 110.675213 144.192394 110.047615 143.697 109.443976 
L 125.254844 124.579063 
z
" clip-path="url(#pd768c721e4)" style="fill: none; stroke: #292929; stroke-width: 0.5; stroke-linejoin: miter"/>
   </g>
   <g id="patch_137">
    <path d="M 125.254844 124.579063 
C 125.254844 124.579063 125.254844 124.579063 125.254844 124.579063 
C 125.254844 124.579063 125.254844 124.579063 125.254844 124.579063 
L 125.254844 124.579063 
C 125.254844 124.579063 125.254844 124.579063 125.254844 124.579063 
C 125.254844 124.579063 125.254844 124.579063 125.254844 124.579063 
L 125.254844 124.579063 
z
" clip-path="url(#pd768c721e4)" style="fill: none; stroke: #292929; stroke-width: 0.5; stroke-linejoin: miter"/>
   </g>
   <g id="patch_138">
    <path d="M 125.254844 124.579063 
C 125.254844 124.579063 125.254844 124.579063 125.254844 124.579063 
C 125.254844 124.579063 125.254844 124.579063 125.254844 124.579063 
L 147.779143 122.360613 
C 147.70653 121.623359 147.597763 120.890114 147.453236 120.163528 
C 147.308709 119.436941 147.128596 118.717888 146.913547 118.008967 
L 125.254844 124.579063 
z
" clip-path="url(#pd768c721e4)" style="fill: none; stroke: #292929; stroke-width: 0.5; stroke-linejoin: miter"/>
   </g>
   <g id="patch_139">
    <path d="M 125.254844 124.579063 
C 125.254844 124.579063 125.254844 124.579063 125.254844 124.579063 
C 125.254844 124.579063 125.254844 124.579063 125.254844 124.579063 
L 125.254844 124.579063 
C 125.254844 124.579063 125.254844 124.579063 125.254844 124.579063 
C 125.254844 124.579063 125.254844 124.579063 125.254844 124.579063 
L 125.254844 124.579063 
z
" clip-path="url(#pd768c721e4)" style="fill: none; stroke: #292929; stroke-width: 0.5; stroke-linejoin: miter"/>
   </g>
   <g id="patch_140">
    <path d="M 125.254844 124.579063 
C 125.254844 124.579063 125.254844 124.579063 125.254844 124.579063 
C 125.254844 124.579063 125.254844 124.579063 125.254844 124.579063 
L 125.254844 124.579063 
C 125.254844 124.579063 125.254844 124.579063 125.254844 124.579063 
C 125.254844 124.579063 125.254844 124.579063 125.254844 124.579063 
L 125.254844 124.579063 
z
" clip-path="url(#pd768c721e4)" style="fill: none; stroke: #292929; stroke-width: 0.5; stroke-linejoin: miter"/>
   </g>
   <g id="patch_141">
    <path d="M 125.254844 124.579063 
C 125.254844 124.579063 125.254844 124.579063 125.254844 124.579063 
C 125.254844 124.579063 125.254844 124.579063 125.254844 124.579063 
L 125.254844 124.579063 
C 125.254844 124.579063 125.254844 124.579063 125.254844 124.579063 
C 125.254844 124.579063 125.254844 124.579063 125.254844 124.579063 
L 125.254844 124.579063 
z
" clip-path="url(#pd768c721e4)" style="fill: none; stroke: #292929; stroke-width: 0.5; stroke-linejoin: miter"/>
   </g>
   <g id="patch_142">
    <path d="M 125.254844 124.579063 
C 125.254844 124.579063 125.254844 124.579063 125.254844 124.579063 
C 125.254844 124.579063 125.254844 124.579063 125.254844 124.579063 
L 125.254844 124.579063 
C 125.254844 124.579063 125.254844 124.579063 125.254844 124.579063 
C 125.254844 124.579063 125.254844 124.579063 125.254844 124.579063 
L 125.254844 124.579063 
z
" clip-path="url(#pd768c721e4)" style="fill: none; stroke: #292929; stroke-width: 0.5; stroke-linejoin: miter"/>
   </g>
   <g id="patch_143">
    <path d="M 125.254844 124.579063 
C 125.254844 124.579063 125.254844 124.579063 125.254844 124.579063 
C 125.254844 124.579063 125.254844 124.579063 125.254844 124.579063 
L 125.254844 124.579063 
C 125.254844 124.579063 125.254844 124.579063 125.254844 124.579063 
C 125.254844 124.579063 125.254844 124.579063 125.254844 124.579063 
L 125.254844 124.579063 
z
" clip-path="url(#pd768c721e4)" style="fill: none; stroke: #292929; stroke-width: 0.5; stroke-linejoin: miter"/>
   </g>
   <g id="patch_144">
    <path d="M 125.254844 124.579063 
C 125.254844 124.579063 125.254844 124.579063 125.254844 124.579063 
C 125.254844 124.579063 125.254844 124.579063 125.254844 124.579063 
L 125.254844 124.579063 
C 125.254844 124.579063 125.254844 124.579063 125.254844 124.579063 
C 125.254844 124.579063 125.254844 124.579063 125.254844 124.579063 
L 125.254844 124.579063 
z
" clip-path="url(#pd768c721e4)" style="fill: none; stroke: #292929; stroke-width: 0.5; stroke-linejoin: miter"/>
   </g>
   <g id="patch_145">
    <path d="M 125.254844 124.579063 
C 125.254844 124.579063 125.254844 124.579063 125.254844 124.579063 
C 125.254844 124.579063 125.254844 124.579063 125.254844 124.579063 
L 125.254844 124.579063 
C 125.254844 124.579063 125.254844 124.579063 125.254844 124.579063 
C 125.254844 124.579063 125.254844 124.579063 125.254844 124.579063 
L 125.254844 124.579063 
z
" clip-path="url(#pd768c721e4)" style="fill: none; stroke: #292929; stroke-width: 0.5; stroke-linejoin: miter"/>
   </g>
   <g id="patch_146">
    <path d="M 125.254844 124.579063 
C 125.254844 124.579063 125.254844 124.579063 125.254844 124.579063 
C 125.254844 124.579063 125.254844 124.579063 125.254844 124.579063 
L 125.254844 124.579063 
C 125.254844 124.579063 125.254844 124.579063 125.254844 124.579063 
C 125.254844 124.579063 125.254844 124.579063 125.254844 124.579063 
L 125.254844 124.579063 
z
" clip-path="url(#pd768c721e4)" style="fill: none; stroke: #292929; stroke-width: 0.5; stroke-linejoin: miter"/>
   </g>
   <g id="patch_147">
    <path d="M 125.254844 124.579063 
C 125.254844 124.579063 125.254844 124.579063 125.254844 124.579063 
C 125.254844 124.579063 125.254844 124.579063 125.254844 124.579063 
L 125.254844 124.579063 
C 125.254844 124.579063 125.254844 124.579063 125.254844 124.579063 
C 125.254844 124.579063 125.254844 124.579063 125.254844 124.579063 
L 125.254844 124.579063 
z
" clip-path="url(#pd768c721e4)" style="fill: none; stroke: #292929; stroke-width: 0.5; stroke-linejoin: miter"/>
   </g>
   <g id="patch_148">
    <path d="M 125.254844 124.579063 
C 125.254844 124.579063 125.254844 124.579063 125.254844 124.579063 
C 125.254844 124.579063 125.254844 124.579063 125.254844 124.579063 
L 125.254844 124.579063 
C 125.254844 124.579063 125.254844 124.579063 125.254844 124.579063 
C 125.254844 124.579063 125.254844 124.579063 125.254844 124.579063 
L 125.254844 124.579063 
z
" clip-path="url(#pd768c721e4)" style="fill: none; stroke: #292929; stroke-width: 0.5; stroke-linejoin: miter"/>
   </g>
   <g id="patch_149">
    <path d="M 125.254844 124.579063 
C 125.254844 124.579063 125.254844 124.579063 125.254844 124.579063 
C 125.254844 124.579063 125.254844 124.579063 125.254844 124.579063 
L 125.254844 124.579063 
C 125.254844 124.579063 125.254844 124.579063 125.254844 124.579063 
C 125.254844 124.579063 125.254844 124.579063 125.254844 124.579063 
L 125.254844 124.579063 
z
" clip-path="url(#pd768c721e4)" style="fill: none; stroke: #292929; stroke-width: 0.5; stroke-linejoin: miter"/>
   </g>
   <g id="patch_150">
    <path d="M 125.254844 124.579063 
C 125.254844 124.579063 125.254844 124.579063 125.254844 124.579063 
C 125.254844 124.579063 125.254844 124.579063 125.254844 124.579063 
L 125.254844 124.579063 
C 125.254844 124.579063 125.254844 124.579063 125.254844 124.579063 
C 125.254844 124.579063 125.254844 124.579063 125.254844 124.579063 
L 125.254844 124.579063 
z
" clip-path="url(#pd768c721e4)" style="fill: none; stroke: #292929; stroke-width: 0.5; stroke-linejoin: miter"/>
   </g>
   <g id="patch_151">
    <path d="M 125.254844 124.579063 
C 125.254844 124.579063 125.254844 124.579063 125.254844 124.579063 
C 125.254844 124.579063 125.254844 124.579063 125.254844 124.579063 
L 125.254844 124.579063 
C 125.254844 124.579063 125.254844 124.579063 125.254844 124.579063 
C 125.254844 124.579063 125.254844 124.579063 125.254844 124.579063 
L 125.254844 124.579063 
z
" clip-path="url(#pd768c721e4)" style="fill: none; stroke: #292929; stroke-width: 0.5; stroke-linejoin: miter"/>
   </g>
   <g id="patch_152">
    <path d="M 125.254844 124.579063 
C 125.254844 124.579063 125.254844 124.579063 125.254844 124.579063 
C 125.254844 124.579063 125.254844 124.579063 125.254844 124.579063 
L 125.254844 124.579063 
C 125.254844 124.579063 125.254844 124.579063 125.254844 124.579063 
C 125.254844 124.579063 125.254844 124.579063 125.254844 124.579063 
L 125.254844 124.579063 
z
" clip-path="url(#pd768c721e4)" style="fill: none; stroke: #292929; stroke-width: 0.5; stroke-linejoin: miter"/>
   </g>
   <g id="patch_153">
    <path d="M 125.254844 124.579063 
C 125.254844 124.579063 125.254844 124.579063 125.254844 124.579063 
C 125.254844 124.579063 125.254844 124.579063 125.254844 124.579063 
L 125.254844 124.579063 
C 125.254844 124.579063 125.254844 124.579063 125.254844 124.579063 
C 125.254844 124.579063 125.254844 124.579063 125.254844 124.579063 
L 125.254844 124.579063 
z
" clip-path="url(#pd768c721e4)" style="fill: none; stroke: #292929; stroke-width: 0.5; stroke-linejoin: miter"/>
   </g>
   <g id="patch_154">
    <path d="M 125.254844 124.579063 
C 125.254844 124.579063 125.254844 124.579063 125.254844 124.579063 
C 125.254844 124.579063 125.254844 124.579063 125.254844 124.579063 
L 104.018731 126.670637 
C 104.087191 127.365727 104.189737 128.057036 104.325998 128.742069 
C 104.46226 129.427101 104.632072 130.10503 104.834823 130.773408 
L 125.254844 124.579063 
z
" clip-path="url(#pd768c721e4)" style="fill: none; stroke: #292929; stroke-width: 0.5; stroke-linejoin: miter"/>
   </g>
   <g id="patch_155">
    <path d="M 125.254844 124.579063 
C 125.254844 124.579063 125.254844 124.579063 125.254844 124.579063 
C 125.254844 124.579063 125.254844 124.579063 125.254844 124.579063 
L 125.254844 124.579063 
C 125.254844 124.579063 125.254844 124.579063 125.254844 124.579063 
C 125.254844 124.579063 125.254844 124.579063 125.254844 124.579063 
L 125.254844 124.579063 
z
" clip-path="url(#pd768c721e4)" style="fill: none; stroke: #292929; stroke-width: 0.5; stroke-linejoin: miter"/>
   </g>
   <g id="patch_156">
    <path d="M 125.254844 124.579063 
C 125.254844 124.579063 125.254844 124.579063 125.254844 124.579063 
C 125.254844 124.579063 125.254844 124.579063 125.254844 124.579063 
L 87.052482 112.990503 
C 86.673171 114.240923 86.355481 115.509213 86.100559 116.790791 
C 85.845638 118.072369 85.653792 119.365691 85.525714 120.666085 
L 125.254844 124.579063 
z
" clip-path="url(#pd768c721e4)" style="fill: none; stroke: #292929; stroke-width: 0.5; stroke-linejoin: miter"/>
   </g>
   <g id="patch_157">
    <path d="M 125.254844 124.579063 
C 125.254844 124.579063 125.254844 124.579063 125.254844 124.579063 
C 125.254844 124.579063 125.254844 124.579063 125.254844 124.579063 
L 88.209213 104.77776 
C 87.561087 105.990319 86.972884 107.233968 86.446731 108.504216 
C 85.920577 109.774463 85.457106 111.069778 85.057992 112.385481 
L 125.254844 124.579063 
z
" clip-path="url(#pd768c721e4)" style="fill: none; stroke: #292929; stroke-width: 0.5; stroke-linejoin: miter"/>
   </g>
   <g id="patch_158">
    <path d="M 125.254844 124.579063 
C 125.254844 124.579063 125.254844 124.579063 125.254844 124.579063 
C 125.254844 124.579063 125.254844 124.579063 125.254844 124.579063 
L 88.834503 94.689661 
C 87.856178 95.881753 86.936972 97.12116 86.080203 98.403405 
C 85.223435 99.685649 84.430137 101.009186 83.703177 102.369234 
L 125.254844 124.579063 
z
" clip-path="url(#pd768c721e4)" style="fill: none; stroke: #292929; stroke-width: 0.5; stroke-linejoin: miter"/>
   </g>
   <g id="patch_159">
    <path d="M 125.254844 124.579063 
C 125.254844 124.579063 125.254844 124.579063 125.254844 124.579063 
C 125.254844 124.579063 125.254844 124.579063 125.254844 124.579063 
L 95.751128 88.628681 
C 94.574419 89.594382 93.445831 90.617274 92.369443 91.693662 
C 91.293055 92.77005 90.270163 93.898637 89.304462 95.075347 
L 125.254844 124.579063 
z
" clip-path="url(#pd768c721e4)" style="fill: none; stroke: #292929; stroke-width: 0.5; stroke-linejoin: miter"/>
   </g>
   <g id="patch_160">
    <path d="M 125.254844 124.579063 
C 125.254844 124.579063 125.254844 124.579063 125.254844 124.579063 
C 125.254844 124.579063 125.254844 124.579063 125.254844 124.579063 
L 90.22818 59.048784 
C 88.083276 60.195259 85.995954 61.446351 83.973752 62.797543 
C 81.951551 64.148735 79.996908 65.598397 78.116884 67.141293 
L 125.254844 124.579063 
z
" clip-path="url(#pd768c721e4)" style="fill: none; stroke: #292929; stroke-width: 0.5; stroke-linejoin: miter"/>
   </g>
   <g id="patch_161">
    <path d="M 125.254844 124.579063 
C 125.254844 124.579063 125.254844 124.579063 125.254844 124.579063 
C 125.254844 124.579063 125.254844 124.579063 125.254844 124.579063 
L 109.462299 72.518019 
C 107.758263 73.034933 106.080634 73.635198 104.43547 74.316647 
C 102.790306 74.998097 101.179591 75.759908 99.609142 76.59933 
L 125.254844 124.579063 
z
" clip-path="url(#pd768c721e4)" style="fill: none; stroke: #292929; stroke-width: 0.5; stroke-linejoin: miter"/>
   </g>
   <g id="patch_162">
    <path d="M 125.254844 124.579063 
C 125.254844 124.579063 125.254844 124.579063 125.254844 124.579063 
C 125.254844 124.579063 125.254844 124.579063 125.254844 124.579063 
L 120.880002 80.160545 
C 119.426117 80.30374 117.98014 80.518231 116.547292 80.803242 
C 115.114444 81.088253 113.696453 81.443441 112.29844 81.867524 
L 125.254844 124.579063 
z
" clip-path="url(#pd768c721e4)" style="fill: none; stroke: #292929; stroke-width: 0.5; stroke-linejoin: miter"/>
   </g>
   <g id="PathCollection_1">
    <defs>
     <path id="m08832d350f" d="M 0.193618 7.414054 
L 0.193618 7.414054 
C 0.054922 7.414054 -0.078235 7.358899 -0.176308 7.260826 
C -0.274381 7.162753 -0.329536 7.029596 -0.329536 6.890901 
L -0.329536 5.365008 
L -1.528416 6.56393 
L -1.528416 6.56393 
C -1.577018 6.612704 -1.634775 6.651408 -1.698366 6.677814 
C -1.761958 6.704221 -1.830141 6.717815 -1.898997 6.717815 
C -1.967853 6.717815 -2.036037 6.704221 -2.099628 6.677814 
C -2.163219 6.651408 -2.220976 6.612704 -2.269578 6.56393 
L -2.269578 6.56393 
C -2.318353 6.515327 -2.357056 6.457571 -2.383463 6.393979 
C -2.409869 6.330388 -2.423463 6.262205 -2.423463 6.193348 
C -2.423463 6.124492 -2.409869 6.056309 -2.383463 5.992718 
C -2.357056 5.929126 -2.318353 5.87137 -2.269578 5.822767 
L -0.329536 3.884106 
L -0.329536 0.820937 
L -2.98067 2.351538 
L -3.691824 5.001416 
L -3.691824 5.001416 
C -3.727584 5.135411 -3.815199 5.249836 -3.93523 5.319305 
C -4.055261 5.388775 -4.198123 5.407741 -4.332122 5.371997 
L -4.332122 5.371997 
C -4.466126 5.336237 -4.580558 5.248616 -4.650029 5.128576 
C -4.719499 5.008535 -4.73846 4.865662 -4.702703 4.731657 
L -4.262647 3.092721 
L -5.585535 3.855668 
L -5.585535 3.855668 
C -5.645013 3.890144 -5.710708 3.912561 -5.778854 3.921634 
C -5.847001 3.930706 -5.916272 3.926258 -5.982698 3.908543 
C -6.049125 3.890828 -6.111412 3.860192 -6.165991 3.818391 
C -6.220571 3.77659 -6.266379 3.724437 -6.300791 3.664922 
L -6.300791 3.664922 
C -6.335212 3.605364 -6.35755 3.539597 -6.366524 3.471396 
C -6.375498 3.403194 -6.370933 3.333888 -6.35309 3.267452 
C -6.335248 3.201017 -6.304476 3.138749 -6.26254 3.08422 
C -6.220605 3.029692 -6.168323 2.983966 -6.108695 2.949666 
L -4.785807 2.186762 
L -6.424743 1.746706 
L -6.424743 1.746706 
C -6.558747 1.710946 -6.673179 1.623325 -6.74265 1.503284 
C -6.81212 1.383244 -6.831081 1.240371 -6.795324 1.106366 
L -6.795324 1.106366 
C -6.777471 1.039969 -6.746703 0.977739 -6.704784 0.923241 
C -6.662864 0.868744 -6.61061 0.823041 -6.551015 0.788752 
C -6.491421 0.754464 -6.425647 0.732257 -6.357465 0.723406 
C -6.289282 0.714554 -6.220019 0.71923 -6.153645 0.737166 
L -3.505232 1.44698 
L -0.852424 -0.08496 
L -3.503767 -1.615666 
L -6.153645 -0.905851 
L -6.153645 -0.905851 
C -6.22011 -0.887939 -6.289462 -0.883321 -6.357716 -0.892262 
C -6.42597 -0.901202 -6.491793 -0.923527 -6.551403 -0.957953 
C -6.611013 -0.992379 -6.663247 -1.038234 -6.705103 -1.092883 
C -6.746958 -1.147533 -6.777619 -1.209911 -6.795324 -1.276432 
L -6.795324 -1.276432 
C -6.831068 -1.410431 -6.812101 -1.553293 -6.742632 -1.673324 
C -6.673162 -1.793355 -6.558738 -1.88097 -6.424743 -1.91673 
L -4.785807 -2.355447 
L -6.108695 -3.119732 
L -6.108695 -3.119732 
C -6.228699 -3.188976 -6.316415 -3.303132 -6.352417 -3.436921 
C -6.388419 -3.57071 -6.369839 -3.713469 -6.300791 -3.833586 
L -6.300791 -3.833586 
C -6.266491 -3.893214 -6.220765 -3.945496 -6.166237 -3.987431 
C -6.111708 -4.029367 -6.04944 -4.060139 -5.983005 -4.077981 
C -5.91657 -4.095823 -5.847263 -4.100389 -5.779062 -4.091415 
C -5.71086 -4.082441 -5.645094 -4.060102 -5.585535 -4.025682 
L -4.262647 -3.261396 
L -4.702703 -4.900332 
L -4.702703 -4.900332 
C -4.73846 -5.034337 -4.719499 -5.17721 -4.650029 -5.29725 
C -4.580558 -5.417291 -4.466126 -5.504912 -4.332122 -5.540672 
L -4.332122 -5.540672 
C -4.19831 -5.576464 -4.055613 -5.557686 -3.935617 -5.488496 
C -3.81562 -5.419305 -3.727882 -5.305212 -3.691824 -5.171472 
L -2.982009 -2.521594 
L -0.329411 -0.990302 
L -0.329411 -4.051588 
L -2.269453 -5.991589 
L -2.269453 -5.991589 
C -2.318227 -6.040191 -2.356931 -6.097947 -2.383337 -6.161539 
C -2.409744 -6.22513 -2.423338 -6.293314 -2.423338 -6.36217 
C -2.423338 -6.431026 -2.409744 -6.499209 -2.383337 -6.5628 
C -2.356931 -6.626392 -2.318227 -6.684149 -2.269453 -6.732751 
L -2.269453 -6.732751 
C -2.22085 -6.781526 -2.163094 -6.820229 -2.099502 -6.846635 
C -2.035911 -6.873042 -1.967728 -6.886636 -1.898871 -6.886636 
C -1.830015 -6.886636 -1.761832 -6.873042 -1.698241 -6.846635 
C -1.634649 -6.820229 -1.576893 -6.781526 -1.52829 -6.732751 
L -0.329411 -5.533829 
L -0.329411 -7.059722 
L -0.329411 -7.059722 
C -0.329411 -7.198418 -0.274255 -7.331575 -0.176182 -7.429647 
C -0.07811 -7.52772 0.055047 -7.582875 0.193743 -7.582875 
L 0.193743 -7.582875 
C 0.332439 -7.582875 0.465596 -7.52772 0.563669 -7.429647 
C 0.661741 -7.331575 0.716897 -7.198418 0.716897 -7.059722 
L 0.716897 -5.533829 
L 1.915777 -6.732751 
L 1.915777 -6.732751 
C 1.964379 -6.781526 2.022136 -6.820229 2.085727 -6.846635 
C 2.149318 -6.873042 2.217502 -6.886636 2.286358 -6.886636 
C 2.355214 -6.886636 2.423397 -6.873042 2.486989 -6.846635 
C 2.55058 -6.820229 2.608337 -6.781526 2.656939 -6.732751 
L 2.656939 -6.732751 
C 2.705714 -6.684149 2.744417 -6.626392 2.770823 -6.5628 
C 2.79723 -6.499209 2.810824 -6.431026 2.810824 -6.36217 
C 2.810824 -6.293314 2.79723 -6.22513 2.770823 -6.161539 
C 2.744417 -6.097947 2.705714 -6.040191 2.656939 -5.991589 
L 0.716897 -4.051588 
L 0.716897 -0.991139 
L 3.369495 -2.522954 
L 4.07931 -5.171367 
L 4.07931 -5.171367 
C 4.115368 -5.305107 4.203106 -5.4192 4.323103 -5.488391 
C 4.4431 -5.557582 4.585797 -5.576359 4.719608 -5.540567 
L 4.719608 -5.540567 
C 4.853612 -5.504807 4.968045 -5.417186 5.037515 -5.297146 
C 5.106986 -5.177105 5.125946 -5.034232 5.090189 -4.900227 
L 4.650133 -3.262673 
L 5.973022 -4.025577 
L 5.973022 -4.025577 
C 6.03258 -4.059998 6.098346 -4.082336 6.166548 -4.09131 
C 6.234749 -4.100284 6.304056 -4.095719 6.370491 -4.077876 
C 6.436926 -4.060034 6.499194 -4.029262 6.553723 -3.987327 
C 6.608252 -3.945391 6.653978 -3.893109 6.688277 -3.833481 
L 6.688277 -3.833481 
C 6.757325 -3.713365 6.775905 -3.570605 6.739903 -3.436816 
C 6.703901 -3.303027 6.616186 -3.188871 6.496181 -3.119628 
L 5.173293 -2.355342 
L 6.812229 -1.916625 
L 6.812229 -1.916625 
C 6.946224 -1.880865 7.060649 -1.79325 7.130118 -1.67322 
C 7.199588 -1.553189 7.218554 -1.410326 7.18281 -1.276327 
L 7.18281 -1.276327 
C 7.165106 -1.209806 7.134445 -1.147429 7.092589 -1.092779 
C 7.050733 -1.038129 6.998499 -0.992274 6.938889 -0.957848 
C 6.879279 -0.923422 6.813456 -0.901098 6.745202 -0.892157 
C 6.676949 -0.883217 6.607597 -0.887835 6.541131 -0.905746 
L 3.891253 -1.615561 
L 1.239492 -0.084604 
L 3.892718 1.447085 
L 6.541131 0.73727 
L 6.541131 0.73727 
C 6.674948 0.701466 6.817656 0.720237 6.937662 0.789429 
C 7.057669 0.858621 7.145413 0.972721 7.181471 1.10647 
L 7.181471 1.10647 
C 7.217274 1.240293 7.198497 1.383006 7.129297 1.503014 
C 7.060096 1.623021 6.945986 1.710762 6.812229 1.74681 
L 5.173293 2.186866 
L 6.496181 2.949771 
L 6.496181 2.949771 
C 6.555697 2.984183 6.607849 3.029991 6.649651 3.08457 
C 6.691452 3.13915 6.722088 3.201437 6.739803 3.267863 
C 6.757517 3.33429 6.761966 3.403561 6.752893 3.471707 
C 6.743821 3.539854 6.721404 3.605549 6.686927 3.665026 
L 6.686927 3.665026 
C 6.617458 3.784813 6.503196 3.87225 6.369416 3.907994 
C 6.235636 3.943739 6.092989 3.924946 5.973032 3.855772 
L 4.650144 3.091487 
L 5.08886 4.731783 
L 5.08886 4.731783 
C 5.124664 4.865606 5.105887 5.008319 5.036686 5.128326 
C 4.967486 5.248334 4.853376 5.336074 4.719619 5.372123 
L 4.719619 5.372123 
C 4.585619 5.407867 4.442757 5.3889 4.322726 5.319431 
C 4.202695 5.249961 4.115081 5.135537 4.07932 5.001542 
L 3.368166 2.351664 
L 0.717033 0.821063 
L 0.717033 3.884232 
L 2.657075 5.822893 
L 2.657075 5.822893 
C 2.70585 5.871495 2.744553 5.929252 2.770959 5.992843 
C 2.797366 6.056435 2.81096 6.124618 2.81096 6.193474 
C 2.81096 6.26233 2.797366 6.330514 2.770959 6.394105 
C 2.744553 6.457696 2.70585 6.515453 2.657075 6.564055 
L 2.657075 6.564055 
C 2.608473 6.61283 2.550716 6.651533 2.487125 6.67794 
C 2.423533 6.704346 2.35535 6.71794 2.286494 6.71794 
C 2.217638 6.71794 2.149454 6.704346 2.085863 6.67794 
C 2.022272 6.651533 1.964515 6.61283 1.915913 6.564055 
L 0.717033 5.365133 
L 0.717033 6.891026 
L 0.717033 6.891026 
C 0.717033 7.029722 0.661877 7.162879 0.563805 7.260952 
C 0.465732 7.359024 0.332575 7.41418 0.193879 7.41418 
L 0.193618 7.414054 
z
"/>
    </defs>
    <g clip-path="url(#pd768c721e4)">
     <use xlink:href="#m08832d350f" x="109.895093" y="33.369449" style="fill: #9e2096; fill-opacity: 0.7"/>
    </g>
   </g>
   <g id="patch_163">
    <path d="M 125.254844 13.699063 
C 110.694216 13.699063 96.275171 16.567189 82.822905 22.1393 
C 69.370638 27.711411 57.146763 35.879144 46.850844 46.175063 
C 36.554925 56.470982 28.387192 68.694857 22.815081 82.147124 
C 17.24297 95.59939 14.374844 110.018434 14.374844 124.579063 
C 14.374844 139.139691 17.24297 153.558735 22.815081 167.011001 
C 28.387192 180.463268 36.554925 192.687143 46.850844 202.983062 
C 57.146763 213.278981 69.370638 221.446714 82.822905 227.018825 
C 96.275171 232.590936 110.694216 235.459063 125.254844 235.459063 
C 139.815472 235.459063 154.234516 232.590936 167.686783 227.018825 
C 181.139049 221.446714 193.362925 213.278981 203.658844 202.983062 
C 213.954763 192.687143 222.122495 180.463268 227.694606 167.011001 
C 233.266717 153.558735 236.134844 139.139691 236.134844 124.579063 
C 236.134844 110.018434 233.266717 95.59939 227.694606 82.147124 
C 222.122495 68.694857 213.954763 56.470982 203.658844 46.175063 
C 193.362925 35.879144 181.139049 27.711411 167.686783 22.1393 
C 154.234516 16.567189 139.815472 13.699063 125.254844 13.699063 
" style="fill: none; stroke: #000000; stroke-width: 0.8; stroke-linejoin: miter; stroke-linecap: square"/>
   </g>
  </g>
 </g>
 <defs>
  <clipPath id="pd768c721e4">
   <path d="M 236.134844 124.579063 
C 236.134844 110.018434 233.266717 95.59939 227.694606 82.147124 
C 222.122495 68.694857 213.954763 56.470982 203.658844 46.175063 
C 193.362925 35.879144 181.139049 27.711411 167.686783 22.1393 
C 154.234516 16.567189 139.815472 13.699063 125.254844 13.699063 
C 110.694216 13.699063 96.275171 16.567189 82.822905 22.1393 
C 69.370638 27.711411 57.146763 35.879144 46.850844 46.175063 
C 36.554925 56.470982 28.387192 68.694857 22.815081 82.147124 
C 17.24297 95.59939 14.374844 110.018434 14.374844 124.579062 
C 14.374844 139.139691 17.24297 153.558735 22.815081 167.011001 
C 28.387192 180.463268 36.554925 192.687143 46.850844 202.983062 
C 57.146763 213.278981 69.370638 221.446714 82.822905 227.018825 
C 96.275171 232.590936 110.694216 235.459063 125.254844 235.459063 
C 139.815472 235.459063 154.234516 232.590936 167.686783 227.018825 
C 181.139049 221.446714 193.362925 213.278981 203.658844 202.983062 
C 213.954763 192.687143 222.122495 180.463268 227.694606 167.011001 
C 233.266717 153.558735 236.134844 139.139691 236.134844 124.579063 
M 125.254844 124.579063 
C 125.254844 124.579063 125.254844 124.579063 125.254844 124.579063 
C 125.254844 124.579063 125.254844 124.579063 125.254844 124.579063 
C 125.254844 124.579063 125.254844 124.579063 125.254844 124.579063 
C 125.254844 124.579063 125.254844 124.579063 125.254844 124.579063 
C 125.254844 124.579063 125.254844 124.579063 125.254844 124.579063 
C 125.254844 124.579063 125.254844 124.579063 125.254844 124.579063 
C 125.254844 124.579063 125.254844 124.579063 125.254844 124.579063 
C 125.254844 124.579063 125.254844 124.579063 125.254844 124.579063 
C 125.254844 124.579063 125.254844 124.579063 125.254844 124.579063 
C 125.254844 124.579063 125.254844 124.579063 125.254844 124.579063 
C 125.254844 124.579063 125.254844 124.579063 125.254844 124.579063 
C 125.254844 124.579063 125.254844 124.579063 125.254844 124.579063 
C 125.254844 124.579063 125.254844 124.579063 125.254844 124.579063 
C 125.254844 124.579063 125.254844 124.579063 125.254844 124.579063 
C 125.254844 124.579063 125.254844 124.579063 125.254844 124.579063 
C 125.254844 124.579063 125.254844 124.579063 125.254844 124.579063 
z
"/>
  </clipPath>
 </defs>
</svg>
