<?xml version="1.0" encoding="utf-8" standalone="no"?>
<!DOCTYPE svg PUBLIC "-//W3C//DTD SVG 1.1//EN"
  "http://www.w3.org/Graphics/SVG/1.1/DTD/svg11.dtd">
<svg xmlns:xlink="http://www.w3.org/1999/xlink" width="248.410469pt" height="249.158125pt" viewBox="0 0 248.410469 249.158125" xmlns="http://www.w3.org/2000/svg" version="1.1">
 <title>Ski Rose for Rasos de Peguera</title>
 <metadata>
  <rdf:RDF xmlns:dc="http://purl.org/dc/elements/1.1/" xmlns:cc="http://creativecommons.org/ns#" xmlns:rdf="http://www.w3.org/1999/02/22-rdf-syntax-ns#">
   <cc:Work>
    <dc:type rdf:resource="http://purl.org/dc/dcmitype/StillImage"/>
    <dc:title>Ski Rose for Rasos de Peguera</dc:title>
    <dc:date>2026-05-30T11:13:46.084079</dc:date>
    <dc:description>A 32-bin stacked histogram of downhill ski run orientations colored by difficulty.</dc:description>
    <dc:format>image/svg+xml</dc:format>
    <dc:source>https://openskimap.org/?obj=e70324e7722d70438a015278587839023291ff32</dc:source>
    <dc:creator>
     <cc:Agent>
      <dc:title>https://github.com/dhimmel/openskistats</dc:title>
     </cc:Agent>
    </dc:creator>
    <dc:rights>
     <cc:Agent>
      <dc:title>https://creativecommons.org/licenses/by/4.0/</dc:title>
     </cc:Agent>
    </dc:rights>
   </cc:Work>
  </rdf:RDF>
 </metadata>
 <defs>
  <style type="text/css">*{stroke-linejoin: round; stroke-linecap: butt}</style>
 </defs>
 <g id="figure_1">
  <g id="patch_1">
   <path d="M 0 249.158125 
L 248.410469 249.158125 
L 248.410469 0 
L 0 0 
z
" style="fill: #ffffff"/>
  </g>
  <g id="axes_1">
   <g id="patch_2">
    <path d="M 236.134844 124.579063 
C 236.134844 110.018434 233.266717 95.59939 227.694606 82.147124 
C 222.122495 68.694857 213.954763 56.470982 203.658844 46.175063 
C 193.362925 35.879144 181.139049 27.711411 167.686783 22.1393 
C 154.234516 16.567189 139.815472 13.699063 125.254844 13.699063 
C 110.694216 13.699063 96.275171 16.567189 82.822905 22.1393 
C 69.370638 27.711411 57.146763 35.879144 46.850844 46.175063 
C 36.554925 56.470982 28.387192 68.694857 22.815081 82.147124 
C 17.24297 95.59939 14.374844 110.018434 14.374844 124.579062 
C 14.374844 139.139691 17.24297 153.558735 22.815081 167.011001 
C 28.387192 180.463268 36.554925 192.687143 46.850844 202.983062 
C 57.146763 213.278981 69.370638 221.446714 82.822905 227.018825 
C 96.275171 232.590936 110.694216 235.459063 125.254844 235.459063 
C 139.815472 235.459063 154.234516 232.590936 167.686783 227.018825 
C 181.139049 221.446714 193.362925 213.278981 203.658844 202.983062 
C 213.954763 192.687143 222.122495 180.463268 227.694606 167.011001 
C 233.266717 153.558735 236.134844 139.139691 236.134844 124.579063 
M 125.254844 124.579063 
C 125.254844 124.579063 125.254844 124.579063 125.254844 124.579063 
C 125.254844 124.579063 125.254844 124.579063 125.254844 124.579063 
C 125.254844 124.579063 125.254844 124.579063 125.254844 124.579063 
C 125.254844 124.579063 125.254844 124.579063 125.254844 124.579063 
C 125.254844 124.579063 125.254844 124.579063 125.254844 124.579063 
C 125.254844 124.579063 125.254844 124.579063 125.254844 124.579063 
C 125.254844 124.579063 125.254844 124.579063 125.254844 124.579063 
C 125.254844 124.579063 125.254844 124.579063 125.254844 124.579063 
C 125.254844 124.579063 125.254844 124.579063 125.254844 124.579063 
C 125.254844 124.579063 125.254844 124.579063 125.254844 124.579063 
C 125.254844 124.579063 125.254844 124.579063 125.254844 124.579063 
C 125.254844 124.579063 125.254844 124.579063 125.254844 124.579063 
C 125.254844 124.579063 125.254844 124.579063 125.254844 124.579063 
C 125.254844 124.579063 125.254844 124.579063 125.254844 124.579063 
C 125.254844 124.579063 125.254844 124.579063 125.254844 124.579063 
C 125.254844 124.579063 125.254844 124.579063 125.254844 124.579063 
z
" style="fill: #ffffff"/>
   </g>
   <g id="FillBetweenPolyCollection_1">
    <defs>
     <path id="m3b6e5aefd0" d="M 235.274548 -137.114224 
L 235.274548 -137.114224 
L 234.261301 -135.075191 
L 233.157178 -133.07116 
L 231.982341 -131.106796 
L 230.75163 -129.185152 
L 229.47414 -127.308141 
L 228.381168 -125.479032 
L 227.026646 -123.690913 
L 225.638176 -121.950432 
L 224.218491 -120.258216 
L 222.769981 -118.614781 
L 221.294829 -117.020552 
L 219.79509 -115.475872 
L 218.272733 -113.981013 
L 216.953479 -112.506708 
L 215.39053 -111.108194 
L 213.810452 -109.759936 
L 212.435331 -108.421114 
L 210.824972 -107.169623 
L 209.419997 -105.920097 
L 207.786027 -104.765078 
L 206.357274 -103.604548 
L 204.706315 -102.545219 
L 203.259823 -101.472935 
L 201.805617 -100.442696 
L 200.345061 -99.454227 
L 198.879514 -98.507199 
L 197.410325 -97.601233 
L 195.938839 -96.735896 
L 194.466388 -95.910702 
L 192.994295 -95.125111 
L 191.712445 -94.292589 
L 190.241804 -93.581873 
L 188.775291 -92.908936 
L 187.493192 -92.179829 
L 186.035189 -91.578028 
L 184.757166 -90.914268 
L 183.481009 -90.28123 
L 182.207602 -89.678367 
L 180.775892 -89.208254 
L 179.514168 -88.665599 
L 178.257816 -88.151129 
L 177.007642 -87.66415 
L 175.764425 -87.203939 
L 174.672051 -86.659906 
L 173.441014 -86.250052 
L 172.21906 -85.86475 
L 171.006865 -85.503145 
L 169.93247 -85.051638 
L 168.7375 -84.734549 
L 167.673588 -84.325177 
L 166.497989 -84.049537 
L 165.446445 -83.679792 
L 164.292133 -83.442343 
L 163.254634 -83.109568 
L 162.222825 -82.794361 
L 161.197031 -82.496168 
L 160.085593 -82.325985 
L 159.076512 -82.059398 
L 158.074279 -81.807942 
L 157.07912 -81.571021 
L 156.091236 -81.348034 
L 155.110802 -81.138374 
L 154.137963 -80.941429 
L 153.172842 -80.756583 
L 152.215532 -80.583218 
L 151.266097 -80.420717 
L 150.324576 -80.268461 
L 149.442537 -80.030873 
L 148.513432 -79.899729 
L 147.592252 -79.777152 
L 146.678927 -79.662539 
L 145.812274 -79.4699 
L 144.911223 -79.372485 
L 144.017738 -79.281428 
L 143.131643 -79.196165 
L 142.280286 -79.04245 
L 141.405606 -78.970718 
L 140.560421 -78.835513 
L 139.696577 -78.775736 
L 138.839088 -78.719423 
L 138.003573 -78.60863 
L 137.155664 -78.562004 
L 136.325369 -78.467008 
L 135.486113 -78.428789 
L 134.660516 -78.348706 
L 133.82887 -78.317757 
L 133.007367 -78.251808 
L 132.182184 -78.227147 
L 131.364098 -78.174673 
L 130.544142 -78.155484 
L 129.728733 -78.11595 
L 128.9127 -78.101592 
L 128.099179 -78.074596 
L 127.285708 -78.064613 
L 126.473253 -78.049891 
L 125.660949 -78.044018 
L 124.848734 -78.043543 
L 124.036487 -78.051904 
L 123.224125 -78.067965 
L 122.410836 -78.079951 
L 121.597513 -78.108274 
L 120.781789 -78.124615 
L 119.966681 -78.165456 
L 119.14716 -78.186598 
L 118.329477 -78.240351 
L 117.50485 -78.266924 
L 116.683849 -78.334116 
L 115.852878 -78.366926 
L 115.027879 -78.448208 
L 114.189413 -78.488228 
L 113.359808 -78.584372 
L 112.512799 -78.632732 
L 111.678062 -78.744616 
L 110.821576 -78.802587 
L 109.95879 -78.863977 
L 109.114512 -79.00017 
L 108.240984 -79.073429 
L 107.390609 -79.22806 
L 106.505755 -79.314757 
L 105.613556 -79.407194 
L 104.752512 -79.590801 
L 103.848307 -79.699324 
L 102.936385 -79.815159 
L 102.016647 -79.938901 
L 101.089019 -80.07115 
L 100.208221 -80.309307 
L 99.268237 -80.462559 
L 98.320369 -80.625994 
L 97.364653 -80.800232 
L 96.401151 -80.985889 
L 95.429957 -81.183582 
L 94.451187 -81.393928 
L 93.464988 -81.617538 
L 92.471533 -81.85502 
L 91.47102 -82.106975 
L 90.463673 -82.373998 
L 89.449742 -82.656675 
L 88.330252 -82.843403 
L 87.300212 -83.15885 
L 86.264492 -83.491804 
L 85.112271 -83.729684 
L 84.062519 -84.099477 
L 82.889023 -84.375399 
L 81.82691 -84.784693 
L 80.634047 -85.101916 
L 79.561452 -85.553219 
L 78.351365 -85.914819 
L 77.131516 -86.300039 
L 76.045403 -86.819331 
L 74.811999 -87.253321 
L 73.570875 -87.713246 
L 72.322788 -88.199868 
L 71.068517 -88.713915 
L 69.808866 -89.256079 
L 68.544659 -89.827017 
L 67.108177 -90.328058 
L 65.834067 -90.960404 
L 64.55808 -91.623409 
L 63.102413 -92.224555 
L 61.822329 -92.952777 
L 60.358132 -93.624919 
L 59.078057 -94.420563 
L 57.609929 -95.166217 
L 56.140122 -95.950807 
L 54.866735 -96.852449 
L 53.400215 -97.713718 
L 51.935858 -98.615448 
L 50.475005 -99.558079 
L 49.019009 -100.541996 
L 47.360202 -101.505619 
L 45.915931 -102.576435 
L 44.480733 -103.689457 
L 43.055984 -104.844862 
L 41.42638 -105.99474 
L 40.025125 -107.23888 
L 38.418826 -108.484958 
L 36.825986 -109.781147 
L 35.470807 -111.160748 
L 33.911439 -112.553475 
L 32.370888 -113.996273 
L 31.076044 -115.510675 
L 29.579353 -117.049238 
L 28.107039 -118.637248 
L 26.661125 -120.274368 
L 25.243749 -121.96018 
L 23.857228 -123.694179 
L 22.504174 -125.475754 
L 21.187695 -127.304157 
L 19.911771 -129.17844 
L 18.681971 -131.097339 
L 17.506846 -133.059014 
L 16.400324 -135.060561 
L 15.581035 -137.074815 
L 15.185343 -137.119898 
L 15.185343 -137.119898 
L 14.93661 -135.2015 
L 14.720295 -133.27832 
L 14.734244 -131.338792 
L 14.582887 -129.411104 
L 14.463816 -127.480228 
L 14.403683 -125.546446 
L 14.548213 -123.61294 
L 14.525533 -121.679513 
L 14.53434 -119.744901 
L 14.605315 -117.811447 
L 14.842384 -115.889413 
L 14.943075 -113.957247 
L 15.110161 -112.029661 
L 15.430306 -110.120388 
L 15.620731 -108.194135 
L 16.076141 -106.308813 
L 16.327331 -104.390541 
L 16.609144 -102.474845 
L 17.110718 -100.604087 
L 17.45251 -98.698012 
L 18.011341 -96.844007 
L 18.413731 -94.9494 
L 18.979049 -93.098738 
L 19.622306 -91.273251 
L 20.115452 -89.399914 
L 20.817036 -87.595695 
L 21.425774 -85.758964 
L 22.13412 -83.958729 
L 22.872394 -82.170863 
L 23.577012 -80.368283 
L 24.380527 -78.607988 
L 25.220066 -76.864921 
L 26.058387 -75.121534 
L 26.951659 -73.405664 
L 27.829739 -71.681547 
L 28.779907 -69.99617 
L 29.731488 -68.311506 
L 30.719998 -66.648035 
L 31.772426 -65.024194 
L 33.68024 -63.967154 
L 35.61901 -62.974061 
L 37.57656 -62.03875 
L 39.468934 -61.100828 
L 41.437558 -60.263797 
L 43.336262 -59.41808 
L 45.228587 -58.610507 
L 47.119795 -57.845426 
L 49.000867 -57.115243 
L 50.877797 -56.425056 
L 52.741995 -55.766938 
L 54.599808 -55.146553 
L 56.38861 -54.500274 
L 58.221844 -53.94102 
L 59.992097 -53.357272 
L 61.753009 -52.803295 
L 63.503982 -52.278093 
L 65.244469 -51.780657 
L 66.973974 -51.309968 
L 68.69205 -50.864995 
L 70.35936 -50.392073 
L 72.055338 -49.996106 
L 73.738827 -49.622793 
L 75.372855 -49.215598 
L 77.000954 -48.835628 
L 78.649371 -48.525843 
L 80.253285 -48.181577 
L 81.850598 -47.862317 
L 83.4349 -47.556307 
L 85.012312 -47.273879 
L 86.576767 -47.002842 
L 88.111311 -46.706027 
L 89.660345 -46.474063 
L 91.19677 -46.250856 
L 92.707859 -46.003689 
L 94.229062 -45.815526 
L 95.738351 -45.633617 
L 97.226779 -45.430249 
L 98.708778 -45.241234 
L 100.196123 -45.102955 
L 101.664558 -44.939591 
L 103.127113 -44.789044 
L 104.590464 -44.675834 
L 106.041044 -44.547826 
L 107.48651 -44.43129 
L 108.927141 -44.325838 
L 110.36323 -44.231106 
L 111.795092 -44.146757 
L 113.223054 -44.072479 
L 114.647461 -44.007989 
L 116.068668 -43.95303 
L 117.487044 -43.907377 
L 118.902968 -43.870831 
L 120.316828 -43.843226 
L 121.72902 -43.824425 
L 123.139945 -43.814324 
L 124.550008 -43.812847 
L 125.959663 -43.81476 
L 127.369636 -43.818421 
L 128.780474 -43.82886 
L 130.192576 -43.847848 
L 131.606341 -43.875637 
L 133.022163 -43.912363 
L 134.440431 -43.958194 
L 135.861524 -44.013326 
L 137.28581 -44.077985 
L 138.713647 -44.152428 
L 140.145377 -44.236937 
L 141.581329 -44.331824 
L 143.021817 -44.437426 
L 144.467136 -44.554107 
L 145.925911 -44.649975 
L 147.382766 -44.788354 
L 148.845279 -44.939089 
L 150.313664 -45.102637 
L 151.798582 -45.248192 
L 153.280406 -45.437315 
L 154.7843 -45.598945 
L 156.280456 -45.815956 
L 157.798769 -46.011077 
L 159.30967 -46.258325 
L 160.848906 -46.47502 
L 162.394731 -46.713671 
L 163.92908 -47.010545 
L 165.496627 -47.275316 
L 167.070536 -47.564138 
L 168.658104 -47.864061 
L 170.251733 -48.189504 
L 171.888072 -48.48055 
L 173.50735 -48.8378 
L 175.131522 -49.223622 
L 176.769202 -49.625206 
L 178.452538 -49.998646 
L 180.148361 -50.394732 
L 181.811464 -50.873039 
L 183.529322 -51.318002 
L 185.258611 -51.788673 
L 186.998883 -52.286081 
L 188.749643 -52.811248 
L 190.510344 -53.365181 
L 192.337132 -53.889081 
L 194.117805 -54.503604 
L 195.906441 -55.149931 
L 197.759619 -55.7746 
L 199.628102 -56.428527 
L 201.500355 -57.122732 
L 203.385764 -57.848953 
L 205.272276 -58.617781 
L 207.168975 -59.42162 
L 209.063003 -60.2708 
L 211.031515 -61.107664 
L 212.928281 -62.042207 
L 214.88576 -62.97744 
L 216.824526 -63.970412 
L 218.732383 -65.027302 
L 219.792883 -66.646078 
L 220.790857 -68.30405 
L 221.730143 -69.995964 
L 222.657839 -71.693551 
L 223.551993 -73.408806 
L 224.444952 -75.124699 
L 225.314713 -76.852953 
L 226.015109 -78.659964 
L 226.807128 -80.422873 
L 227.55777 -82.203803 
L 228.410527 -83.944958 
L 229.051785 -85.770976 
L 229.729646 -87.582595 
L 230.30825 -89.428684 
L 230.970731 -91.246971 
L 231.515404 -93.103251 
L 232.077978 -94.954386 
L 232.595145 -96.818973 
L 233.067299 -98.695582 
L 233.49488 -100.582824 
L 233.878366 -102.479357 
L 234.218257 -104.383888 
L 234.515075 -106.29517 
L 234.891799 -108.19371 
L 235.177782 -110.107433 
L 235.350337 -112.035266 
L 235.616778 -113.952417 
L 235.71274 -115.885838 
L 235.908254 -117.81121 
L 235.987166 -119.744385 
L 235.969197 -121.679905 
L 236.114026 -123.611609 
L 236.024675 -125.545736 
L 236.045409 -127.480216 
L 235.942478 -129.411789 
L 235.895907 -131.34616 
L 235.673261 -133.26918 
L 235.616706 -135.205701 
L 235.274548 -137.114224 
z
" style="stroke: #ffee9c"/>
    </defs>
    <g clip-path="url(#p8d2e68e96b)">
     <use xlink:href="#m3b6e5aefd0" x="0" y="249.158125" style="fill: #ffee9c; stroke: #ffee9c"/>
    </g>
   </g>
   <g id="matplotlib.axis_1">
    <g id="xtick_1">
     <g id="line2d_1">
      <path d="M 125.254844 124.579063 
L 125.254844 13.699063 
" clip-path="url(#p8d2e68e96b)" style="fill: none; stroke: #b0b0b0; stroke-width: 0.8; stroke-linecap: square"/>
     </g>
     <g id="text_1">
      <!-- N -->
      <g transform="translate(121.070469 7.958438) scale(0.1 -0.1)">
       <defs>
        <path id="DejaVuSans-Bold-4e" d="M 588 4666 
L 1931 4666 
L 3628 1466 
L 3628 4666 
L 4769 4666 
L 4769 0 
L 3425 0 
L 1728 3200 
L 1728 0 
L 588 0 
L 588 4666 
z
" transform="scale(0.015625)"/>
       </defs>
       <use xlink:href="#DejaVuSans-Bold-4e"/>
      </g>
     </g>
    </g>
    <g id="xtick_2">
     <g id="line2d_2">
      <path d="M 125.254844 124.579063 
L 203.658844 46.175063 
" clip-path="url(#p8d2e68e96b)" style="fill: none; stroke: #b0b0b0; stroke-width: 0.8; stroke-linecap: square"/>
     </g>
    </g>
    <g id="xtick_3">
     <g id="line2d_3">
      <path d="M 125.254844 124.579063 
L 236.134844 124.579063 
" clip-path="url(#p8d2e68e96b)" style="fill: none; stroke: #b0b0b0; stroke-width: 0.8; stroke-linecap: square"/>
     </g>
     <g id="text_2">
      <!-- E -->
      <g transform="translate(241.219219 127.338438) scale(0.1 -0.1)">
       <defs>
        <path id="DejaVuSans-Bold-45" d="M 588 4666 
L 3834 4666 
L 3834 3756 
L 1791 3756 
L 1791 2888 
L 3713 2888 
L 3713 1978 
L 1791 1978 
L 1791 909 
L 3903 909 
L 3903 0 
L 588 0 
L 588 4666 
z
" transform="scale(0.015625)"/>
       </defs>
       <use xlink:href="#DejaVuSans-Bold-45"/>
      </g>
     </g>
    </g>
    <g id="xtick_4">
     <g id="line2d_4">
      <path d="M 125.254844 124.579063 
L 203.658844 202.983062 
" clip-path="url(#p8d2e68e96b)" style="fill: none; stroke: #b0b0b0; stroke-width: 0.8; stroke-linecap: square"/>
     </g>
    </g>
    <g id="xtick_5">
     <g id="line2d_5">
      <path d="M 125.254844 124.579063 
L 125.254844 235.459063 
" clip-path="url(#p8d2e68e96b)" style="fill: none; stroke: #b0b0b0; stroke-width: 0.8; stroke-linecap: square"/>
     </g>
     <g id="text_3">
      <!-- S -->
      <g transform="translate(121.654062 246.718438) scale(0.1 -0.1)">
       <defs>
        <path id="DejaVuSans-Bold-53" d="M 3834 4519 
L 3834 3531 
Q 3450 3703 3084 3790 
Q 2719 3878 2394 3878 
Q 1963 3878 1756 3759 
Q 1550 3641 1550 3391 
Q 1550 3203 1689 3098 
Q 1828 2994 2194 2919 
L 2706 2816 
Q 3484 2659 3812 2340 
Q 4141 2022 4141 1434 
Q 4141 663 3683 286 
Q 3225 -91 2284 -91 
Q 1841 -91 1394 -6 
Q 947 78 500 244 
L 500 1259 
Q 947 1022 1364 901 
Q 1781 781 2169 781 
Q 2563 781 2772 912 
Q 2981 1044 2981 1288 
Q 2981 1506 2839 1625 
Q 2697 1744 2272 1838 
L 1806 1941 
Q 1106 2091 782 2419 
Q 459 2747 459 3303 
Q 459 4000 909 4375 
Q 1359 4750 2203 4750 
Q 2588 4750 2994 4692 
Q 3400 4634 3834 4519 
z
" transform="scale(0.015625)"/>
       </defs>
       <use xlink:href="#DejaVuSans-Bold-53"/>
      </g>
     </g>
    </g>
    <g id="xtick_6">
     <g id="line2d_6">
      <path d="M 125.254844 124.579063 
L 46.850844 202.983062 
" clip-path="url(#p8d2e68e96b)" style="fill: none; stroke: #b0b0b0; stroke-width: 0.8; stroke-linecap: square"/>
     </g>
    </g>
    <g id="xtick_7">
     <g id="line2d_7">
      <path d="M 125.254844 124.579063 
L 14.374844 124.579063 
" clip-path="url(#p8d2e68e96b)" style="fill: none; stroke: #b0b0b0; stroke-width: 0.8; stroke-linecap: square"/>
     </g>
     <g id="text_4">
      <!-- W -->
      <g transform="translate(0.36 127.338438) scale(0.1 -0.1)">
       <defs>
        <path id="DejaVuSans-Bold-57" d="M 191 4666 
L 1344 4666 
L 2150 1275 
L 2950 4666 
L 4109 4666 
L 4909 1275 
L 5716 4666 
L 6859 4666 
L 5759 0 
L 4372 0 
L 3525 3547 
L 2688 0 
L 1300 0 
L 191 4666 
z
" transform="scale(0.015625)"/>
       </defs>
       <use xlink:href="#DejaVuSans-Bold-57"/>
      </g>
     </g>
    </g>
    <g id="xtick_8">
     <g id="line2d_8">
      <path d="M 125.254844 124.579063 
L 46.850844 46.175063 
" clip-path="url(#p8d2e68e96b)" style="fill: none; stroke: #b0b0b0; stroke-width: 0.8; stroke-linecap: square"/>
     </g>
    </g>
   </g>
   <g id="matplotlib.axis_2"/>
   <g id="patch_3">
    <path d="M 125.254844 124.579063 
C 125.254844 124.579063 125.254844 124.579063 125.254844 124.579063 
C 125.254844 124.579063 125.254844 124.579063 125.254844 124.579063 
L 125.254844 124.579063 
C 125.254844 124.579063 125.254844 124.579063 125.254844 124.579063 
C 125.254844 124.579063 125.254844 124.579063 125.254844 124.579063 
z
" clip-path="url(#p8d2e68e96b)" style="fill: #d9d9d9"/>
   </g>
   <g id="patch_4">
    <path d="M 125.254844 124.579063 
C 125.254844 124.579063 125.254844 124.579063 125.254844 124.579063 
C 125.254844 124.579063 125.254844 124.579063 125.254844 124.579063 
L 125.254844 124.579063 
C 125.254844 124.579063 125.254844 124.579063 125.254844 124.579063 
C 125.254844 124.579063 125.254844 124.579063 125.254844 124.579063 
z
" clip-path="url(#p8d2e68e96b)" style="fill: #d9d9d9"/>
   </g>
   <g id="patch_5">
    <path d="M 125.254844 124.579063 
C 125.254844 124.579063 125.254844 124.579063 125.254844 124.579063 
C 125.254844 124.579063 125.254844 124.579063 125.254844 124.579063 
L 125.254844 124.579063 
C 125.254844 124.579063 125.254844 124.579063 125.254844 124.579063 
C 125.254844 124.579063 125.254844 124.579063 125.254844 124.579063 
z
" clip-path="url(#p8d2e68e96b)" style="fill: #d9d9d9"/>
   </g>
   <g id="patch_6">
    <path d="M 125.254844 124.579063 
C 125.254844 124.579063 125.254844 124.579063 125.254844 124.579063 
C 125.254844 124.579063 125.254844 124.579063 125.254844 124.579063 
L 125.254844 124.579063 
C 125.254844 124.579063 125.254844 124.579063 125.254844 124.579063 
C 125.254844 124.579063 125.254844 124.579063 125.254844 124.579063 
z
" clip-path="url(#p8d2e68e96b)" style="fill: #d9d9d9"/>
   </g>
   <g id="patch_7">
    <path d="M 125.254844 124.579063 
C 125.254844 124.579063 125.254844 124.579063 125.254844 124.579063 
C 125.254844 124.579063 125.254844 124.579063 125.254844 124.579063 
L 125.254844 124.579063 
C 125.254844 124.579063 125.254844 124.579063 125.254844 124.579063 
C 125.254844 124.579063 125.254844 124.579063 125.254844 124.579063 
z
" clip-path="url(#p8d2e68e96b)" style="fill: #d9d9d9"/>
   </g>
   <g id="patch_8">
    <path d="M 125.254844 124.579063 
C 125.254844 124.579063 125.254844 124.579063 125.254844 124.579063 
C 125.254844 124.579063 125.254844 124.579063 125.254844 124.579063 
L 125.254844 124.579063 
C 125.254844 124.579063 125.254844 124.579063 125.254844 124.579063 
C 125.254844 124.579063 125.254844 124.579063 125.254844 124.579063 
z
" clip-path="url(#p8d2e68e96b)" style="fill: #d9d9d9"/>
   </g>
   <g id="patch_9">
    <path d="M 125.254844 124.579063 
C 125.254844 124.579063 125.254844 124.579063 125.254844 124.579063 
C 125.254844 124.579063 125.254844 124.579063 125.254844 124.579063 
L 125.254844 124.579063 
C 125.254844 124.579063 125.254844 124.579063 125.254844 124.579063 
C 125.254844 124.579063 125.254844 124.579063 125.254844 124.579063 
z
" clip-path="url(#p8d2e68e96b)" style="fill: #d9d9d9"/>
   </g>
   <g id="patch_10">
    <path d="M 125.254844 124.579063 
C 125.254844 124.579063 125.254844 124.579063 125.254844 124.579063 
C 125.254844 124.579063 125.254844 124.579063 125.254844 124.579063 
L 125.254844 124.579063 
C 125.254844 124.579063 125.254844 124.579063 125.254844 124.579063 
C 125.254844 124.579063 125.254844 124.579063 125.254844 124.579063 
z
" clip-path="url(#p8d2e68e96b)" style="fill: #d9d9d9"/>
   </g>
   <g id="patch_11">
    <path d="M 125.254844 124.579063 
C 125.254844 124.579063 125.254844 124.579063 125.254844 124.579063 
C 125.254844 124.579063 125.254844 124.579063 125.254844 124.579063 
L 125.254844 124.579063 
C 125.254844 124.579063 125.254844 124.579063 125.254844 124.579063 
C 125.254844 124.579063 125.254844 124.579063 125.254844 124.579063 
z
" clip-path="url(#p8d2e68e96b)" style="fill: #d9d9d9"/>
   </g>
   <g id="patch_12">
    <path d="M 125.254844 124.579063 
C 125.254844 124.579063 125.254844 124.579063 125.254844 124.579063 
C 125.254844 124.579063 125.254844 124.579063 125.254844 124.579063 
L 125.254844 124.579063 
C 125.254844 124.579063 125.254844 124.579063 125.254844 124.579063 
C 125.254844 124.579063 125.254844 124.579063 125.254844 124.579063 
z
" clip-path="url(#p8d2e68e96b)" style="fill: #d9d9d9"/>
   </g>
   <g id="patch_13">
    <path d="M 125.254844 124.579063 
C 125.254844 124.579063 125.254844 124.579063 125.254844 124.579063 
C 125.254844 124.579063 125.254844 124.579063 125.254844 124.579063 
L 125.254844 124.579063 
C 125.254844 124.579063 125.254844 124.579063 125.254844 124.579063 
C 125.254844 124.579063 125.254844 124.579063 125.254844 124.579063 
z
" clip-path="url(#p8d2e68e96b)" style="fill: #d9d9d9"/>
   </g>
   <g id="patch_14">
    <path d="M 125.254844 124.579063 
C 125.254844 124.579063 125.254844 124.579063 125.254844 124.579063 
C 125.254844 124.579063 125.254844 124.579063 125.254844 124.579063 
L 125.254844 124.579063 
C 125.254844 124.579063 125.254844 124.579063 125.254844 124.579063 
C 125.254844 124.579063 125.254844 124.579063 125.254844 124.579063 
z
" clip-path="url(#p8d2e68e96b)" style="fill: #d9d9d9"/>
   </g>
   <g id="patch_15">
    <path d="M 125.254844 124.579063 
C 125.254844 124.579063 125.254844 124.579063 125.254844 124.579063 
C 125.254844 124.579063 125.254844 124.579063 125.254844 124.579063 
L 125.254844 124.579063 
C 125.254844 124.579063 125.254844 124.579063 125.254844 124.579063 
C 125.254844 124.579063 125.254844 124.579063 125.254844 124.579063 
z
" clip-path="url(#p8d2e68e96b)" style="fill: #d9d9d9"/>
   </g>
   <g id="patch_16">
    <path d="M 125.254844 124.579063 
C 125.254844 124.579063 125.254844 124.579063 125.254844 124.579063 
C 125.254844 124.579063 125.254844 124.579063 125.254844 124.579063 
L 125.254844 124.579063 
C 125.254844 124.579063 125.254844 124.579063 125.254844 124.579063 
C 125.254844 124.579063 125.254844 124.579063 125.254844 124.579063 
z
" clip-path="url(#p8d2e68e96b)" style="fill: #d9d9d9"/>
   </g>
   <g id="patch_17">
    <path d="M 125.254844 124.579063 
C 125.254844 124.579063 125.254844 124.579063 125.254844 124.579063 
C 125.254844 124.579063 125.254844 124.579063 125.254844 124.579063 
L 125.254844 124.579063 
C 125.254844 124.579063 125.254844 124.579063 125.254844 124.579063 
C 125.254844 124.579063 125.254844 124.579063 125.254844 124.579063 
z
" clip-path="url(#p8d2e68e96b)" style="fill: #d9d9d9"/>
   </g>
   <g id="patch_18">
    <path d="M 125.254844 124.579063 
C 125.254844 124.579063 125.254844 124.579063 125.254844 124.579063 
C 125.254844 124.579063 125.254844 124.579063 125.254844 124.579063 
L 125.254844 124.579063 
C 125.254844 124.579063 125.254844 124.579063 125.254844 124.579063 
C 125.254844 124.579063 125.254844 124.579063 125.254844 124.579063 
z
" clip-path="url(#p8d2e68e96b)" style="fill: #d9d9d9"/>
   </g>
   <g id="patch_19">
    <path d="M 125.254844 124.579063 
C 125.254844 124.579063 125.254844 124.579063 125.254844 124.579063 
C 125.254844 124.579063 125.254844 124.579063 125.254844 124.579063 
L 125.254844 124.579063 
C 125.254844 124.579063 125.254844 124.579063 125.254844 124.579063 
C 125.254844 124.579063 125.254844 124.579063 125.254844 124.579063 
z
" clip-path="url(#p8d2e68e96b)" style="fill: #d9d9d9"/>
   </g>
   <g id="patch_20">
    <path d="M 125.254844 124.579063 
C 125.254844 124.579063 125.254844 124.579063 125.254844 124.579063 
C 125.254844 124.579063 125.254844 124.579063 125.254844 124.579063 
L 125.254844 124.579063 
C 125.254844 124.579063 125.254844 124.579063 125.254844 124.579063 
C 125.254844 124.579063 125.254844 124.579063 125.254844 124.579063 
z
" clip-path="url(#p8d2e68e96b)" style="fill: #d9d9d9"/>
   </g>
   <g id="patch_21">
    <path d="M 125.254844 124.579063 
C 125.254844 124.579063 125.254844 124.579063 125.254844 124.579063 
C 125.254844 124.579063 125.254844 124.579063 125.254844 124.579063 
L 125.254844 124.579063 
C 125.254844 124.579063 125.254844 124.579063 125.254844 124.579063 
C 125.254844 124.579063 125.254844 124.579063 125.254844 124.579063 
z
" clip-path="url(#p8d2e68e96b)" style="fill: #d9d9d9"/>
   </g>
   <g id="patch_22">
    <path d="M 125.254844 124.579063 
C 125.254844 124.579063 125.254844 124.579063 125.254844 124.579063 
C 125.254844 124.579063 125.254844 124.579063 125.254844 124.579063 
L 125.254844 124.579063 
C 125.254844 124.579063 125.254844 124.579063 125.254844 124.579063 
C 125.254844 124.579063 125.254844 124.579063 125.254844 124.579063 
z
" clip-path="url(#p8d2e68e96b)" style="fill: #d9d9d9"/>
   </g>
   <g id="patch_23">
    <path d="M 125.254844 124.579063 
C 125.254844 124.579063 125.254844 124.579063 125.254844 124.579063 
C 125.254844 124.579063 125.254844 124.579063 125.254844 124.579063 
L 125.254844 124.579063 
C 125.254844 124.579063 125.254844 124.579063 125.254844 124.579063 
C 125.254844 124.579063 125.254844 124.579063 125.254844 124.579063 
z
" clip-path="url(#p8d2e68e96b)" style="fill: #d9d9d9"/>
   </g>
   <g id="patch_24">
    <path d="M 125.254844 124.579063 
C 125.254844 124.579063 125.254844 124.579063 125.254844 124.579063 
C 125.254844 124.579063 125.254844 124.579063 125.254844 124.579063 
L 125.254844 124.579063 
C 125.254844 124.579063 125.254844 124.579063 125.254844 124.579063 
C 125.254844 124.579063 125.254844 124.579063 125.254844 124.579063 
z
" clip-path="url(#p8d2e68e96b)" style="fill: #d9d9d9"/>
   </g>
   <g id="patch_25">
    <path d="M 125.254844 124.579063 
C 125.254844 124.579063 125.254844 124.579063 125.254844 124.579063 
C 125.254844 124.579063 125.254844 124.579063 125.254844 124.579063 
L 125.254844 124.579063 
C 125.254844 124.579063 125.254844 124.579063 125.254844 124.579063 
C 125.254844 124.579063 125.254844 124.579063 125.254844 124.579063 
z
" clip-path="url(#p8d2e68e96b)" style="fill: #d9d9d9"/>
   </g>
   <g id="patch_26">
    <path d="M 125.254844 124.579063 
C 125.254844 124.579063 125.254844 124.579063 125.254844 124.579063 
C 125.254844 124.579063 125.254844 124.579063 125.254844 124.579063 
L 125.254844 124.579063 
C 125.254844 124.579063 125.254844 124.579063 125.254844 124.579063 
C 125.254844 124.579063 125.254844 124.579063 125.254844 124.579063 
z
" clip-path="url(#p8d2e68e96b)" style="fill: #d9d9d9"/>
   </g>
   <g id="patch_27">
    <path d="M 125.254844 124.579063 
C 125.254844 124.579063 125.254844 124.579063 125.254844 124.579063 
C 125.254844 124.579063 125.254844 124.579063 125.254844 124.579063 
L 125.254844 124.579063 
C 125.254844 124.579063 125.254844 124.579063 125.254844 124.579063 
C 125.254844 124.579063 125.254844 124.579063 125.254844 124.579063 
z
" clip-path="url(#p8d2e68e96b)" style="fill: #d9d9d9"/>
   </g>
   <g id="patch_28">
    <path d="M 125.254844 124.579063 
C 125.254844 124.579063 125.254844 124.579063 125.254844 124.579063 
C 125.254844 124.579063 125.254844 124.579063 125.254844 124.579063 
L 125.254844 124.579063 
C 125.254844 124.579063 125.254844 124.579063 125.254844 124.579063 
C 125.254844 124.579063 125.254844 124.579063 125.254844 124.579063 
z
" clip-path="url(#p8d2e68e96b)" style="fill: #d9d9d9"/>
   </g>
   <g id="patch_29">
    <path d="M 125.254844 124.579063 
C 125.254844 124.579063 125.254844 124.579063 125.254844 124.579063 
C 125.254844 124.579063 125.254844 124.579063 125.254844 124.579063 
L 125.254844 124.579063 
C 125.254844 124.579063 125.254844 124.579063 125.254844 124.579063 
C 125.254844 124.579063 125.254844 124.579063 125.254844 124.579063 
z
" clip-path="url(#p8d2e68e96b)" style="fill: #d9d9d9"/>
   </g>
   <g id="patch_30">
    <path d="M 125.254844 124.579063 
C 125.254844 124.579063 125.254844 124.579063 125.254844 124.579063 
C 125.254844 124.579063 125.254844 124.579063 125.254844 124.579063 
L 125.254844 124.579063 
C 125.254844 124.579063 125.254844 124.579063 125.254844 124.579063 
C 125.254844 124.579063 125.254844 124.579063 125.254844 124.579063 
z
" clip-path="url(#p8d2e68e96b)" style="fill: #d9d9d9"/>
   </g>
   <g id="patch_31">
    <path d="M 125.254844 124.579063 
C 125.254844 124.579063 125.254844 124.579063 125.254844 124.579063 
C 125.254844 124.579063 125.254844 124.579063 125.254844 124.579063 
L 125.254844 124.579063 
C 125.254844 124.579063 125.254844 124.579063 125.254844 124.579063 
C 125.254844 124.579063 125.254844 124.579063 125.254844 124.579063 
z
" clip-path="url(#p8d2e68e96b)" style="fill: #d9d9d9"/>
   </g>
   <g id="patch_32">
    <path d="M 125.254844 124.579063 
C 125.254844 124.579063 125.254844 124.579063 125.254844 124.579063 
C 125.254844 124.579063 125.254844 124.579063 125.254844 124.579063 
L 125.254844 124.579063 
C 125.254844 124.579063 125.254844 124.579063 125.254844 124.579063 
C 125.254844 124.579063 125.254844 124.579063 125.254844 124.579063 
z
" clip-path="url(#p8d2e68e96b)" style="fill: #d9d9d9"/>
   </g>
   <g id="patch_33">
    <path d="M 125.254844 124.579063 
C 125.254844 124.579063 125.254844 124.579063 125.254844 124.579063 
C 125.254844 124.579063 125.254844 124.579063 125.254844 124.579063 
L 125.254844 124.579063 
C 125.254844 124.579063 125.254844 124.579063 125.254844 124.579063 
C 125.254844 124.579063 125.254844 124.579063 125.254844 124.579063 
z
" clip-path="url(#p8d2e68e96b)" style="fill: #d9d9d9"/>
   </g>
   <g id="patch_34">
    <path d="M 125.254844 124.579063 
C 125.254844 124.579063 125.254844 124.579063 125.254844 124.579063 
C 125.254844 124.579063 125.254844 124.579063 125.254844 124.579063 
L 125.254844 124.579063 
C 125.254844 124.579063 125.254844 124.579063 125.254844 124.579063 
C 125.254844 124.579063 125.254844 124.579063 125.254844 124.579063 
z
" clip-path="url(#p8d2e68e96b)" style="fill: #d9d9d9"/>
   </g>
   <g id="patch_35">
    <path d="M 125.254844 124.579063 
C 125.254844 124.579063 125.254844 124.579063 125.254844 124.579063 
C 125.254844 124.579063 125.254844 124.579063 125.254844 124.579063 
L 128.979086 86.7662 
C 127.741414 86.6443 126.498504 86.58324 125.254844 86.58324 
C 124.011184 86.58324 122.768273 86.6443 121.530602 86.7662 
z
" clip-path="url(#p8d2e68e96b)" style="fill: #a1a1d8"/>
   </g>
   <g id="patch_36">
    <path d="M 125.254844 124.579063 
C 125.254844 124.579063 125.254844 124.579063 125.254844 124.579063 
C 125.254844 124.579063 125.254844 124.579063 125.254844 124.579063 
L 133.554283 97.219478 
C 132.658763 96.947825 131.750445 96.720303 130.832611 96.537735 
C 129.914776 96.355166 128.988531 96.217771 128.057221 96.126045 
z
" clip-path="url(#p8d2e68e96b)" style="fill: #a1a1d8"/>
   </g>
   <g id="patch_37">
    <path d="M 125.254844 124.579063 
C 125.254844 124.579063 125.254844 124.579063 125.254844 124.579063 
C 125.254844 124.579063 125.254844 124.579063 125.254844 124.579063 
L 143.206797 90.99332 
C 142.107486 90.405726 140.979987 89.872459 139.828375 89.395445 
C 138.676763 88.918432 137.502425 88.498247 136.309602 88.136408 
z
" clip-path="url(#p8d2e68e96b)" style="fill: #a1a1d8"/>
   </g>
   <g id="patch_38">
    <path d="M 125.254844 124.579063 
C 125.254844 124.579063 125.254844 124.579063 125.254844 124.579063 
C 125.254844 124.579063 125.254844 124.579063 125.254844 124.579063 
L 154.663905 88.744017 
C 153.490971 87.781415 152.271482 86.87698 151.009844 86.033981 
C 149.748206 85.190981 148.445939 84.410433 147.107748 83.695154 
z
" clip-path="url(#p8d2e68e96b)" style="fill: #a1a1d8"/>
   </g>
   <g id="patch_39">
    <path d="M 125.254844 124.579063 
C 125.254844 124.579063 125.254844 124.579063 125.254844 124.579063 
C 125.254844 124.579063 125.254844 124.579063 125.254844 124.579063 
L 148.570021 105.444791 
C 147.943727 104.681651 147.280343 103.94972 146.582265 103.251641 
C 145.884187 102.553563 145.152255 101.890179 144.389115 101.263886 
z
" clip-path="url(#p8d2e68e96b)" style="fill: #a1a1d8"/>
   </g>
   <g id="patch_40">
    <path d="M 125.254844 124.579063 
C 125.254844 124.579063 125.254844 124.579063 125.254844 124.579063 
C 125.254844 124.579063 125.254844 124.579063 125.254844 124.579063 
L 146.616681 113.160922 
C 146.242948 112.461718 145.835112 111.781283 145.394645 111.122078 
C 144.954178 110.462872 144.481611 109.825689 143.978651 109.212831 
z
" clip-path="url(#p8d2e68e96b)" style="fill: #a1a1d8"/>
   </g>
   <g id="patch_41">
    <path d="M 125.254844 124.579063 
C 125.254844 124.579063 125.254844 124.579063 125.254844 124.579063 
C 125.254844 124.579063 125.254844 124.579063 125.254844 124.579063 
L 125.254844 124.579063 
C 125.254844 124.579063 125.254844 124.579063 125.254844 124.579063 
C 125.254844 124.579063 125.254844 124.579063 125.254844 124.579063 
z
" clip-path="url(#p8d2e68e96b)" style="fill: #a1a1d8"/>
   </g>
   <g id="patch_42">
    <path d="M 125.254844 124.579063 
C 125.254844 124.579063 125.254844 124.579063 125.254844 124.579063 
C 125.254844 124.579063 125.254844 124.579063 125.254844 124.579063 
L 152.774722 121.868591 
C 152.686004 120.967824 152.553114 120.071956 152.376533 119.184223 
C 152.199952 118.29649 151.979892 117.417961 151.717148 116.55181 
z
" clip-path="url(#p8d2e68e96b)" style="fill: #a1a1d8"/>
   </g>
   <g id="patch_43">
    <path d="M 125.254844 124.579063 
C 125.254844 124.579063 125.254844 124.579063 125.254844 124.579063 
C 125.254844 124.579063 125.254844 124.579063 125.254844 124.579063 
L 125.254844 124.579063 
C 125.254844 124.579063 125.254844 124.579063 125.254844 124.579063 
C 125.254844 124.579063 125.254844 124.579063 125.254844 124.579063 
z
" clip-path="url(#p8d2e68e96b)" style="fill: #a1a1d8"/>
   </g>
   <g id="patch_44">
    <path d="M 125.254844 124.579063 
C 125.254844 124.579063 125.254844 124.579063 125.254844 124.579063 
C 125.254844 124.579063 125.254844 124.579063 125.254844 124.579063 
L 145.215307 130.634003 
C 145.413495 129.980667 145.579485 129.317995 145.71268 128.648379 
C 145.845875 127.978764 145.946113 127.303012 146.013033 126.623566 
z
" clip-path="url(#p8d2e68e96b)" style="fill: #a1a1d8"/>
   </g>
   <g id="patch_45">
    <path d="M 125.254844 124.579063 
C 125.254844 124.579063 125.254844 124.579063 125.254844 124.579063 
C 125.254844 124.579063 125.254844 124.579063 125.254844 124.579063 
L 125.254844 124.579063 
C 125.254844 124.579063 125.254844 124.579063 125.254844 124.579063 
C 125.254844 124.579063 125.254844 124.579063 125.254844 124.579063 
z
" clip-path="url(#p8d2e68e96b)" style="fill: #a1a1d8"/>
   </g>
   <g id="patch_46">
    <path d="M 125.254844 124.579063 
C 125.254844 124.579063 125.254844 124.579063 125.254844 124.579063 
C 125.254844 124.579063 125.254844 124.579063 125.254844 124.579063 
L 125.254844 124.579063 
C 125.254844 124.579063 125.254844 124.579063 125.254844 124.579063 
C 125.254844 124.579063 125.254844 124.579063 125.254844 124.579063 
z
" clip-path="url(#p8d2e68e96b)" style="fill: #a1a1d8"/>
   </g>
   <g id="patch_47">
    <path d="M 125.254844 124.579063 
C 125.254844 124.579063 125.254844 124.579063 125.254844 124.579063 
C 125.254844 124.579063 125.254844 124.579063 125.254844 124.579063 
L 125.254844 124.579063 
C 125.254844 124.579063 125.254844 124.579063 125.254844 124.579063 
C 125.254844 124.579063 125.254844 124.579063 125.254844 124.579063 
z
" clip-path="url(#p8d2e68e96b)" style="fill: #a1a1d8"/>
   </g>
   <g id="patch_48">
    <path d="M 125.254844 124.579063 
C 125.254844 124.579063 125.254844 124.579063 125.254844 124.579063 
C 125.254844 124.579063 125.254844 124.579063 125.254844 124.579063 
L 125.254844 124.579063 
C 125.254844 124.579063 125.254844 124.579063 125.254844 124.579063 
C 125.254844 124.579063 125.254844 124.579063 125.254844 124.579063 
z
" clip-path="url(#p8d2e68e96b)" style="fill: #a1a1d8"/>
   </g>
   <g id="patch_49">
    <path d="M 125.254844 124.579063 
C 125.254844 124.579063 125.254844 124.579063 125.254844 124.579063 
C 125.254844 124.579063 125.254844 124.579063 125.254844 124.579063 
L 125.254844 124.579063 
C 125.254844 124.579063 125.254844 124.579063 125.254844 124.579063 
C 125.254844 124.579063 125.254844 124.579063 125.254844 124.579063 
z
" clip-path="url(#p8d2e68e96b)" style="fill: #a1a1d8"/>
   </g>
   <g id="patch_50">
    <path d="M 125.254844 124.579063 
C 125.254844 124.579063 125.254844 124.579063 125.254844 124.579063 
C 125.254844 124.579063 125.254844 124.579063 125.254844 124.579063 
L 125.254844 124.579063 
C 125.254844 124.579063 125.254844 124.579063 125.254844 124.579063 
C 125.254844 124.579063 125.254844 124.579063 125.254844 124.579063 
z
" clip-path="url(#p8d2e68e96b)" style="fill: #a1a1d8"/>
   </g>
   <g id="patch_51">
    <path d="M 125.254844 124.579063 
C 125.254844 124.579063 125.254844 124.579063 125.254844 124.579063 
C 125.254844 124.579063 125.254844 124.579063 125.254844 124.579063 
L 125.254844 124.579063 
C 125.254844 124.579063 125.254844 124.579063 125.254844 124.579063 
C 125.254844 124.579063 125.254844 124.579063 125.254844 124.579063 
z
" clip-path="url(#p8d2e68e96b)" style="fill: #a1a1d8"/>
   </g>
   <g id="patch_52">
    <path d="M 125.254844 124.579063 
C 125.254844 124.579063 125.254844 124.579063 125.254844 124.579063 
C 125.254844 124.579063 125.254844 124.579063 125.254844 124.579063 
L 125.254844 124.579063 
C 125.254844 124.579063 125.254844 124.579063 125.254844 124.579063 
C 125.254844 124.579063 125.254844 124.579063 125.254844 124.579063 
z
" clip-path="url(#p8d2e68e96b)" style="fill: #a1a1d8"/>
   </g>
   <g id="patch_53">
    <path d="M 125.254844 124.579063 
C 125.254844 124.579063 125.254844 124.579063 125.254844 124.579063 
C 125.254844 124.579063 125.254844 124.579063 125.254844 124.579063 
L 125.254844 124.579063 
C 125.254844 124.579063 125.254844 124.579063 125.254844 124.579063 
C 125.254844 124.579063 125.254844 124.579063 125.254844 124.579063 
z
" clip-path="url(#p8d2e68e96b)" style="fill: #a1a1d8"/>
   </g>
   <g id="patch_54">
    <path d="M 125.254844 124.579063 
C 125.254844 124.579063 125.254844 124.579063 125.254844 124.579063 
C 125.254844 124.579063 125.254844 124.579063 125.254844 124.579063 
L 125.254844 124.579063 
C 125.254844 124.579063 125.254844 124.579063 125.254844 124.579063 
C 125.254844 124.579063 125.254844 124.579063 125.254844 124.579063 
z
" clip-path="url(#p8d2e68e96b)" style="fill: #a1a1d8"/>
   </g>
   <g id="patch_55">
    <path d="M 125.254844 124.579063 
C 125.254844 124.579063 125.254844 124.579063 125.254844 124.579063 
C 125.254844 124.579063 125.254844 124.579063 125.254844 124.579063 
L 125.254844 124.579063 
C 125.254844 124.579063 125.254844 124.579063 125.254844 124.579063 
C 125.254844 124.579063 125.254844 124.579063 125.254844 124.579063 
z
" clip-path="url(#p8d2e68e96b)" style="fill: #a1a1d8"/>
   </g>
   <g id="patch_56">
    <path d="M 125.254844 124.579063 
C 125.254844 124.579063 125.254844 124.579063 125.254844 124.579063 
C 125.254844 124.579063 125.254844 124.579063 125.254844 124.579063 
L 125.254844 124.579063 
C 125.254844 124.579063 125.254844 124.579063 125.254844 124.579063 
C 125.254844 124.579063 125.254844 124.579063 125.254844 124.579063 
z
" clip-path="url(#p8d2e68e96b)" style="fill: #a1a1d8"/>
   </g>
   <g id="patch_57">
    <path d="M 125.254844 124.579063 
C 125.254844 124.579063 125.254844 124.579063 125.254844 124.579063 
C 125.254844 124.579063 125.254844 124.579063 125.254844 124.579063 
L 125.254844 124.579063 
C 125.254844 124.579063 125.254844 124.579063 125.254844 124.579063 
C 125.254844 124.579063 125.254844 124.579063 125.254844 124.579063 
z
" clip-path="url(#p8d2e68e96b)" style="fill: #a1a1d8"/>
   </g>
   <g id="patch_58">
    <path d="M 125.254844 124.579063 
C 125.254844 124.579063 125.254844 124.579063 125.254844 124.579063 
C 125.254844 124.579063 125.254844 124.579063 125.254844 124.579063 
L 125.254844 124.579063 
C 125.254844 124.579063 125.254844 124.579063 125.254844 124.579063 
C 125.254844 124.579063 125.254844 124.579063 125.254844 124.579063 
z
" clip-path="url(#p8d2e68e96b)" style="fill: #a1a1d8"/>
   </g>
   <g id="patch_59">
    <path d="M 125.254844 124.579063 
C 125.254844 124.579063 125.254844 124.579063 125.254844 124.579063 
C 125.254844 124.579063 125.254844 124.579063 125.254844 124.579063 
L 90.973822 121.202677 
C 90.863308 122.324746 90.807951 123.451564 90.807951 124.579062 
C 90.807951 125.706561 90.863308 126.833379 90.973822 127.955448 
z
" clip-path="url(#p8d2e68e96b)" style="fill: #a1a1d8"/>
   </g>
   <g id="patch_60">
    <path d="M 125.254844 124.579063 
C 125.254844 124.579063 125.254844 124.579063 125.254844 124.579063 
C 125.254844 124.579063 125.254844 124.579063 125.254844 124.579063 
L 89.31257 113.676093 
C 88.9557 114.852537 88.656805 116.045794 88.416964 117.251553 
C 88.177124 118.457312 87.996628 119.674119 87.876127 120.89758 
z
" clip-path="url(#p8d2e68e96b)" style="fill: #a1a1d8"/>
   </g>
   <g id="patch_61">
    <path d="M 125.254844 124.579063 
C 125.254844 124.579063 125.254844 124.579063 125.254844 124.579063 
C 125.254844 124.579063 125.254844 124.579063 125.254844 124.579063 
L 95.044643 108.431374 
C 94.516105 109.420199 94.036435 110.434378 93.607364 111.470247 
C 93.178292 112.506116 92.800338 113.562427 92.474866 114.635365 
z
" clip-path="url(#p8d2e68e96b)" style="fill: #a1a1d8"/>
   </g>
   <g id="patch_62">
    <path d="M 125.254844 124.579063 
C 125.254844 124.579063 125.254844 124.579063 125.254844 124.579063 
C 125.254844 124.579063 125.254844 124.579063 125.254844 124.579063 
L 125.254844 124.579063 
C 125.254844 124.579063 125.254844 124.579063 125.254844 124.579063 
C 125.254844 124.579063 125.254844 124.579063 125.254844 124.579063 
z
" clip-path="url(#p8d2e68e96b)" style="fill: #a1a1d8"/>
   </g>
   <g id="patch_63">
    <path d="M 125.254844 124.579063 
C 125.254844 124.579063 125.254844 124.579063 125.254844 124.579063 
C 125.254844 124.579063 125.254844 124.579063 125.254844 124.579063 
L 102.862308 97.293679 
C 101.969217 98.02662 101.112649 98.802968 100.295699 99.619918 
C 99.478749 100.436868 98.702401 101.293436 97.96946 102.186527 
z
" clip-path="url(#p8d2e68e96b)" style="fill: #a1a1d8"/>
   </g>
   <g id="patch_64">
    <path d="M 125.254844 124.579063 
C 125.254844 124.579063 125.254844 124.579063 125.254844 124.579063 
C 125.254844 124.579063 125.254844 124.579063 125.254844 124.579063 
L 110.186476 96.388129 
C 109.263744 96.881339 108.365784 97.419555 107.495839 98.000834 
C 106.625894 98.582113 105.785013 99.205753 104.976232 99.869502 
z
" clip-path="url(#p8d2e68e96b)" style="fill: #a1a1d8"/>
   </g>
   <g id="patch_65">
    <path d="M 125.254844 124.579063 
C 125.254844 124.579063 125.254844 124.579063 125.254844 124.579063 
C 125.254844 124.579063 125.254844 124.579063 125.254844 124.579063 
L 112.475411 82.450919 
C 111.096494 82.869209 109.738945 83.354948 108.407667 83.906381 
C 107.07639 84.457814 105.772988 85.074277 104.502171 85.753543 
z
" clip-path="url(#p8d2e68e96b)" style="fill: #a1a1d8"/>
   </g>
   <g id="patch_66">
    <path d="M 125.254844 124.579063 
C 125.254844 124.579063 125.254844 124.579063 125.254844 124.579063 
C 125.254844 124.579063 125.254844 124.579063 125.254844 124.579063 
L 122.330808 94.890827 
C 121.359068 94.986535 120.392612 95.129895 119.434932 95.32039 
C 118.477252 95.510884 117.529502 95.748283 116.595105 96.031729 
z
" clip-path="url(#p8d2e68e96b)" style="fill: #a1a1d8"/>
   </g>
   <g id="patch_67">
    <path d="M 121.530602 86.7662 
C 122.768273 86.6443 124.011184 86.58324 125.254844 86.58324 
C 126.498504 86.58324 127.741414 86.6443 128.979086 86.7662 
L 130.921408 67.045472 
C 129.038247 66.859997 127.147116 66.767092 125.254844 66.767092 
C 123.362572 66.767092 121.47144 66.859997 119.58828 67.045472 
z
" clip-path="url(#p8d2e68e96b)" style="fill: #ff8c8e"/>
   </g>
   <g id="patch_68">
    <path d="M 128.057221 96.126045 
C 128.988531 96.217771 129.914776 96.355166 130.832611 96.537735 
C 131.750445 96.720303 132.658763 96.947825 133.554283 97.219478 
L 139.764513 76.747093 
C 138.198901 76.27217 136.610916 75.8744 135.006292 75.555221 
C 133.401669 75.236041 131.782341 74.995837 130.15416 74.835475 
z
" clip-path="url(#p8d2e68e96b)" style="fill: #ff8c8e"/>
   </g>
   <g id="patch_69">
    <path d="M 136.309602 88.136408 
C 137.502425 88.498247 138.676763 88.918432 139.828375 89.395445 
C 140.979987 89.872459 142.107486 90.405726 143.206797 90.99332 
L 143.206797 90.99332 
C 142.107486 90.405726 140.979987 89.872459 139.828375 89.395445 
C 138.676763 88.918432 137.502425 88.498247 136.309602 88.136408 
z
" clip-path="url(#p8d2e68e96b)" style="fill: #ff8c8e"/>
   </g>
   <g id="patch_70">
    <path d="M 147.107748 83.695154 
C 148.445939 84.410433 149.748206 85.190981 151.009844 86.033981 
C 152.271482 86.87698 153.490971 87.781415 154.663905 88.744017 
L 154.663905 88.744017 
C 153.490971 87.781415 152.271482 86.87698 151.009844 86.033981 
C 149.748206 85.190981 148.445939 84.410433 147.107748 83.695154 
z
" clip-path="url(#p8d2e68e96b)" style="fill: #ff8c8e"/>
   </g>
   <g id="patch_71">
    <path d="M 144.389115 101.263886 
C 145.152255 101.890179 145.884187 102.553563 146.582265 103.251641 
C 147.280343 103.94972 147.943727 104.681651 148.570021 105.444791 
L 148.570021 105.444791 
C 147.943727 104.681651 147.280343 103.94972 146.582265 103.251641 
C 145.884187 102.553563 145.152255 101.890179 144.389115 101.263886 
z
" clip-path="url(#p8d2e68e96b)" style="fill: #ff8c8e"/>
   </g>
   <g id="patch_72">
    <path d="M 143.978651 109.212831 
C 144.481611 109.825689 144.954178 110.462872 145.394645 111.122078 
C 145.835112 111.781283 146.242948 112.461718 146.616681 113.160922 
L 146.616681 113.160922 
C 146.242948 112.461718 145.835112 111.781283 145.394645 111.122078 
C 144.954178 110.462872 144.481611 109.825689 143.978651 109.212831 
z
" clip-path="url(#p8d2e68e96b)" style="fill: #ff8c8e"/>
   </g>
   <g id="patch_73">
    <path d="M 125.254844 124.579063 
C 125.254844 124.579063 125.254844 124.579063 125.254844 124.579063 
C 125.254844 124.579063 125.254844 124.579063 125.254844 124.579063 
L 125.254844 124.579063 
C 125.254844 124.579063 125.254844 124.579063 125.254844 124.579063 
C 125.254844 124.579063 125.254844 124.579063 125.254844 124.579063 
z
" clip-path="url(#p8d2e68e96b)" style="fill: #ff8c8e"/>
   </g>
   <g id="patch_74">
    <path d="M 151.717148 116.55181 
C 151.979892 117.417961 152.199952 118.29649 152.376533 119.184223 
C 152.553114 120.071956 152.686004 120.967824 152.774722 121.868591 
L 152.774722 121.868591 
C 152.686004 120.967824 152.553114 120.071956 152.376533 119.184223 
C 152.199952 118.29649 151.979892 117.417961 151.717148 116.55181 
z
" clip-path="url(#p8d2e68e96b)" style="fill: #ff8c8e"/>
   </g>
   <g id="patch_75">
    <path d="M 125.254844 124.579063 
C 125.254844 124.579063 125.254844 124.579063 125.254844 124.579063 
C 125.254844 124.579063 125.254844 124.579063 125.254844 124.579063 
L 125.254844 124.579063 
C 125.254844 124.579063 125.254844 124.579063 125.254844 124.579063 
C 125.254844 124.579063 125.254844 124.579063 125.254844 124.579063 
z
" clip-path="url(#p8d2e68e96b)" style="fill: #ff8c8e"/>
   </g>
   <g id="patch_76">
    <path d="M 146.013033 126.623566 
C 145.946113 127.303012 145.845875 127.978764 145.71268 128.648379 
C 145.579485 129.317995 145.413495 129.980667 145.215307 130.634003 
L 145.215307 130.634003 
C 145.413495 129.980667 145.579485 129.317995 145.71268 128.648379 
C 145.845875 127.978764 145.946113 127.303012 146.013033 126.623566 
z
" clip-path="url(#p8d2e68e96b)" style="fill: #ff8c8e"/>
   </g>
   <g id="patch_77">
    <path d="M 125.254844 124.579063 
C 125.254844 124.579063 125.254844 124.579063 125.254844 124.579063 
C 125.254844 124.579063 125.254844 124.579063 125.254844 124.579063 
L 125.254844 124.579063 
C 125.254844 124.579063 125.254844 124.579063 125.254844 124.579063 
C 125.254844 124.579063 125.254844 124.579063 125.254844 124.579063 
z
" clip-path="url(#p8d2e68e96b)" style="fill: #ff8c8e"/>
   </g>
   <g id="patch_78">
    <path d="M 125.254844 124.579063 
C 125.254844 124.579063 125.254844 124.579063 125.254844 124.579063 
C 125.254844 124.579063 125.254844 124.579063 125.254844 124.579063 
L 125.254844 124.579063 
C 125.254844 124.579063 125.254844 124.579063 125.254844 124.579063 
C 125.254844 124.579063 125.254844 124.579063 125.254844 124.579063 
z
" clip-path="url(#p8d2e68e96b)" style="fill: #ff8c8e"/>
   </g>
   <g id="patch_79">
    <path d="M 125.254844 124.579063 
C 125.254844 124.579063 125.254844 124.579063 125.254844 124.579063 
C 125.254844 124.579063 125.254844 124.579063 125.254844 124.579063 
L 125.254844 124.579063 
C 125.254844 124.579063 125.254844 124.579063 125.254844 124.579063 
C 125.254844 124.579063 125.254844 124.579063 125.254844 124.579063 
z
" clip-path="url(#p8d2e68e96b)" style="fill: #ff8c8e"/>
   </g>
   <g id="patch_80">
    <path d="M 125.254844 124.579063 
C 125.254844 124.579063 125.254844 124.579063 125.254844 124.579063 
C 125.254844 124.579063 125.254844 124.579063 125.254844 124.579063 
L 125.254844 124.579063 
C 125.254844 124.579063 125.254844 124.579063 125.254844 124.579063 
C 125.254844 124.579063 125.254844 124.579063 125.254844 124.579063 
z
" clip-path="url(#p8d2e68e96b)" style="fill: #ff8c8e"/>
   </g>
   <g id="patch_81">
    <path d="M 125.254844 124.579063 
C 125.254844 124.579063 125.254844 124.579063 125.254844 124.579063 
C 125.254844 124.579063 125.254844 124.579063 125.254844 124.579063 
L 125.254844 124.579063 
C 125.254844 124.579063 125.254844 124.579063 125.254844 124.579063 
C 125.254844 124.579063 125.254844 124.579063 125.254844 124.579063 
z
" clip-path="url(#p8d2e68e96b)" style="fill: #ff8c8e"/>
   </g>
   <g id="patch_82">
    <path d="M 125.254844 124.579063 
C 125.254844 124.579063 125.254844 124.579063 125.254844 124.579063 
C 125.254844 124.579063 125.254844 124.579063 125.254844 124.579063 
L 125.254844 124.579063 
C 125.254844 124.579063 125.254844 124.579063 125.254844 124.579063 
C 125.254844 124.579063 125.254844 124.579063 125.254844 124.579063 
z
" clip-path="url(#p8d2e68e96b)" style="fill: #ff8c8e"/>
   </g>
   <g id="patch_83">
    <path d="M 125.254844 124.579063 
C 125.254844 124.579063 125.254844 124.579063 125.254844 124.579063 
C 125.254844 124.579063 125.254844 124.579063 125.254844 124.579063 
L 125.254844 124.579063 
C 125.254844 124.579063 125.254844 124.579063 125.254844 124.579063 
C 125.254844 124.579063 125.254844 124.579063 125.254844 124.579063 
z
" clip-path="url(#p8d2e68e96b)" style="fill: #ff8c8e"/>
   </g>
   <g id="patch_84">
    <path d="M 125.254844 124.579063 
C 125.254844 124.579063 125.254844 124.579063 125.254844 124.579063 
C 125.254844 124.579063 125.254844 124.579063 125.254844 124.579063 
L 125.254844 124.579063 
C 125.254844 124.579063 125.254844 124.579063 125.254844 124.579063 
C 125.254844 124.579063 125.254844 124.579063 125.254844 124.579063 
z
" clip-path="url(#p8d2e68e96b)" style="fill: #ff8c8e"/>
   </g>
   <g id="patch_85">
    <path d="M 125.254844 124.579063 
C 125.254844 124.579063 125.254844 124.579063 125.254844 124.579063 
C 125.254844 124.579063 125.254844 124.579063 125.254844 124.579063 
L 125.254844 124.579063 
C 125.254844 124.579063 125.254844 124.579063 125.254844 124.579063 
C 125.254844 124.579063 125.254844 124.579063 125.254844 124.579063 
z
" clip-path="url(#p8d2e68e96b)" style="fill: #ff8c8e"/>
   </g>
   <g id="patch_86">
    <path d="M 125.254844 124.579063 
C 125.254844 124.579063 125.254844 124.579063 125.254844 124.579063 
C 125.254844 124.579063 125.254844 124.579063 125.254844 124.579063 
L 125.254844 124.579063 
C 125.254844 124.579063 125.254844 124.579063 125.254844 124.579063 
C 125.254844 124.579063 125.254844 124.579063 125.254844 124.579063 
z
" clip-path="url(#p8d2e68e96b)" style="fill: #ff8c8e"/>
   </g>
   <g id="patch_87">
    <path d="M 125.254844 124.579063 
C 125.254844 124.579063 125.254844 124.579063 125.254844 124.579063 
C 125.254844 124.579063 125.254844 124.579063 125.254844 124.579063 
L 125.254844 124.579063 
C 125.254844 124.579063 125.254844 124.579063 125.254844 124.579063 
C 125.254844 124.579063 125.254844 124.579063 125.254844 124.579063 
z
" clip-path="url(#p8d2e68e96b)" style="fill: #ff8c8e"/>
   </g>
   <g id="patch_88">
    <path d="M 125.254844 124.579063 
C 125.254844 124.579063 125.254844 124.579063 125.254844 124.579063 
C 125.254844 124.579063 125.254844 124.579063 125.254844 124.579063 
L 107.862039 133.87571 
C 108.166332 134.445003 108.498393 134.999012 108.857021 135.535737 
C 109.215649 136.072463 109.600413 136.591257 110.009923 137.090246 
z
" clip-path="url(#p8d2e68e96b)" style="fill: #ff8c8e"/>
   </g>
   <g id="patch_89">
    <path d="M 125.254844 124.579063 
C 125.254844 124.579063 125.254844 124.579063 125.254844 124.579063 
C 125.254844 124.579063 125.254844 124.579063 125.254844 124.579063 
L 125.254844 124.579063 
C 125.254844 124.579063 125.254844 124.579063 125.254844 124.579063 
C 125.254844 124.579063 125.254844 124.579063 125.254844 124.579063 
z
" clip-path="url(#p8d2e68e96b)" style="fill: #ff8c8e"/>
   </g>
   <g id="patch_90">
    <path d="M 125.254844 124.579063 
C 125.254844 124.579063 125.254844 124.579063 125.254844 124.579063 
C 125.254844 124.579063 125.254844 124.579063 125.254844 124.579063 
L 111.028335 125.980251 
C 111.074198 126.445906 111.142896 126.909029 111.23418 127.367946 
C 111.325464 127.826863 111.439225 128.281022 111.575052 128.728782 
z
" clip-path="url(#p8d2e68e96b)" style="fill: #ff8c8e"/>
   </g>
   <g id="patch_91">
    <path d="M 90.973822 127.955448 
C 90.863308 126.833379 90.807951 125.706561 90.807951 124.579062 
C 90.807951 123.451564 90.863308 122.324746 90.973822 121.202677 
L 87.876127 120.89758 
C 87.755626 122.121041 87.695267 123.349681 87.695267 124.579062 
C 87.695267 125.808444 87.755626 127.037084 87.876127 128.260545 
z
" clip-path="url(#p8d2e68e96b)" style="fill: #ff8c8e"/>
   </g>
   <g id="patch_92">
    <path d="M 87.876127 120.89758 
C 87.996628 119.674119 88.177124 118.457312 88.416964 117.251553 
C 88.656805 116.045794 88.9557 114.852537 89.31257 113.676093 
L 73.250734 108.803788 
C 72.734386 110.505961 72.301921 112.232458 71.954901 113.977045 
C 71.607881 115.721631 71.346725 117.482204 71.172375 119.252404 
z
" clip-path="url(#p8d2e68e96b)" style="fill: #ff8c8e"/>
   </g>
   <g id="patch_93">
    <path d="M 92.474866 114.635365 
C 92.800338 113.562427 93.178292 112.506116 93.607364 111.470247 
C 94.036435 110.434378 94.516105 109.420199 95.044643 108.431374 
L 73.570086 96.952984 
C 72.665843 98.644703 71.845204 100.379799 71.111133 102.152003 
C 70.377062 103.924208 69.730444 105.731385 69.173614 107.567007 
z
" clip-path="url(#p8d2e68e96b)" style="fill: #ff8c8e"/>
   </g>
   <g id="patch_94">
    <path d="M 125.254844 124.579063 
C 125.254844 124.579063 125.254844 124.579063 125.254844 124.579063 
C 125.254844 124.579063 125.254844 124.579063 125.254844 124.579063 
L 65.088042 75.201445 
C 63.471839 77.170794 61.9533 79.218307 60.537909 81.336589 
C 59.122518 83.454871 57.811982 85.641368 56.611035 87.888182 
z
" clip-path="url(#p8d2e68e96b)" style="fill: #ff8c8e"/>
   </g>
   <g id="patch_95">
    <path d="M 97.96946 102.186527 
C 98.702401 101.293436 99.478749 100.436868 100.295699 99.619918 
C 101.112649 98.802968 101.969217 98.02662 102.862308 97.293679 
L 54.913315 38.867662 
C 52.107853 41.170045 49.417123 43.608781 46.850843 46.175061 
C 44.284563 48.741341 41.845827 51.432072 39.543443 54.237534 
z
" clip-path="url(#p8d2e68e96b)" style="fill: #ff8c8e"/>
   </g>
   <g id="patch_96">
    <path d="M 104.976232 99.869502 
C 105.785013 99.205753 106.625894 98.582113 107.495839 98.000834 
C 108.365784 97.419555 109.263744 96.881339 110.186476 96.388129 
L 81.683308 43.062452 
C 79.015147 44.488614 76.418616 46.044915 73.903092 47.725734 
C 71.387567 49.406554 68.956083 51.209866 66.617421 53.129156 
z
" clip-path="url(#p8d2e68e96b)" style="fill: #ff8c8e"/>
   </g>
   <g id="patch_97">
    <path d="M 104.502171 85.753543 
C 105.772988 85.074277 107.07639 84.457814 108.407667 83.906381 
C 109.738945 83.354948 111.096494 82.869209 112.475411 82.450919 
L 100.334225 42.426793 
C 97.645259 43.242482 94.997961 44.189701 92.401894 45.265027 
C 89.805828 46.340353 87.264121 47.54249 84.785955 48.867098 
z
" clip-path="url(#p8d2e68e96b)" style="fill: #ff8c8e"/>
   </g>
   <g id="patch_98">
    <path d="M 116.595105 96.031729 
C 117.529502 95.748283 118.477252 95.510884 119.434932 95.32039 
C 120.392612 95.129895 121.359068 94.986535 122.330808 94.890827 
L 116.923384 39.988332 
C 114.154603 40.261033 111.40088 40.669509 108.672161 41.212285 
C 105.943442 41.755061 103.243016 42.431483 100.580638 43.239106 
z
" clip-path="url(#p8d2e68e96b)" style="fill: #ff8c8e"/>
   </g>
   <g id="patch_99">
    <path d="M 119.58828 67.045472 
C 121.47144 66.859997 123.362572 66.767092 125.254844 66.767092 
C 127.147116 66.767092 129.038247 66.859997 130.921408 67.045472 
L 130.921408 67.045472 
C 129.038247 66.859997 127.147116 66.767092 125.254844 66.767092 
C 123.362572 66.767092 121.47144 66.859997 119.58828 67.045472 
z
" clip-path="url(#p8d2e68e96b)" style="fill: #828282"/>
   </g>
   <g id="patch_100">
    <path d="M 130.15416 74.835475 
C 131.782341 74.995837 133.401669 75.236041 135.006292 75.555221 
C 136.610916 75.8744 138.198901 76.27217 139.764513 76.747093 
L 139.764513 76.747093 
C 138.198901 76.27217 136.610916 75.8744 135.006292 75.555221 
C 133.401669 75.236041 131.782341 74.995837 130.15416 74.835475 
z
" clip-path="url(#p8d2e68e96b)" style="fill: #828282"/>
   </g>
   <g id="patch_101">
    <path d="M 136.309602 88.136408 
C 137.502425 88.498247 138.676763 88.918432 139.828375 89.395445 
C 140.979987 89.872459 142.107486 90.405726 143.206797 90.99332 
L 143.206797 90.99332 
C 142.107486 90.405726 140.979987 89.872459 139.828375 89.395445 
C 138.676763 88.918432 137.502425 88.498247 136.309602 88.136408 
z
" clip-path="url(#p8d2e68e96b)" style="fill: #828282"/>
   </g>
   <g id="patch_102">
    <path d="M 147.107748 83.695154 
C 148.445939 84.410433 149.748206 85.190981 151.009844 86.033981 
C 152.271482 86.87698 153.490971 87.781415 154.663905 88.744017 
L 154.663905 88.744017 
C 153.490971 87.781415 152.271482 86.87698 151.009844 86.033981 
C 149.748206 85.190981 148.445939 84.410433 147.107748 83.695154 
z
" clip-path="url(#p8d2e68e96b)" style="fill: #828282"/>
   </g>
   <g id="patch_103">
    <path d="M 144.389115 101.263886 
C 145.152255 101.890179 145.884187 102.553563 146.582265 103.251641 
C 147.280343 103.94972 147.943727 104.681651 148.570021 105.444791 
L 148.570021 105.444791 
C 147.943727 104.681651 147.280343 103.94972 146.582265 103.251641 
C 145.884187 102.553563 145.152255 101.890179 144.389115 101.263886 
z
" clip-path="url(#p8d2e68e96b)" style="fill: #828282"/>
   </g>
   <g id="patch_104">
    <path d="M 143.978651 109.212831 
C 144.481611 109.825689 144.954178 110.462872 145.394645 111.122078 
C 145.835112 111.781283 146.242948 112.461718 146.616681 113.160922 
L 146.616681 113.160922 
C 146.242948 112.461718 145.835112 111.781283 145.394645 111.122078 
C 144.954178 110.462872 144.481611 109.825689 143.978651 109.212831 
z
" clip-path="url(#p8d2e68e96b)" style="fill: #828282"/>
   </g>
   <g id="patch_105">
    <path d="M 125.254844 124.579063 
C 125.254844 124.579063 125.254844 124.579063 125.254844 124.579063 
C 125.254844 124.579063 125.254844 124.579063 125.254844 124.579063 
L 125.254844 124.579063 
C 125.254844 124.579063 125.254844 124.579063 125.254844 124.579063 
C 125.254844 124.579063 125.254844 124.579063 125.254844 124.579063 
z
" clip-path="url(#p8d2e68e96b)" style="fill: #828282"/>
   </g>
   <g id="patch_106">
    <path d="M 151.717148 116.55181 
C 151.979892 117.417961 152.199952 118.29649 152.376533 119.184223 
C 152.553114 120.071956 152.686004 120.967824 152.774722 121.868591 
L 152.774722 121.868591 
C 152.686004 120.967824 152.553114 120.071956 152.376533 119.184223 
C 152.199952 118.29649 151.979892 117.417961 151.717148 116.55181 
z
" clip-path="url(#p8d2e68e96b)" style="fill: #828282"/>
   </g>
   <g id="patch_107">
    <path d="M 125.254844 124.579063 
C 125.254844 124.579063 125.254844 124.579063 125.254844 124.579063 
C 125.254844 124.579063 125.254844 124.579063 125.254844 124.579063 
L 125.254844 124.579063 
C 125.254844 124.579063 125.254844 124.579063 125.254844 124.579063 
C 125.254844 124.579063 125.254844 124.579063 125.254844 124.579063 
z
" clip-path="url(#p8d2e68e96b)" style="fill: #828282"/>
   </g>
   <g id="patch_108">
    <path d="M 146.013033 126.623566 
C 145.946113 127.303012 145.845875 127.978764 145.71268 128.648379 
C 145.579485 129.317995 145.413495 129.980667 145.215307 130.634003 
L 145.215307 130.634003 
C 145.413495 129.980667 145.579485 129.317995 145.71268 128.648379 
C 145.845875 127.978764 145.946113 127.303012 146.013033 126.623566 
z
" clip-path="url(#p8d2e68e96b)" style="fill: #828282"/>
   </g>
   <g id="patch_109">
    <path d="M 125.254844 124.579063 
C 125.254844 124.579063 125.254844 124.579063 125.254844 124.579063 
C 125.254844 124.579063 125.254844 124.579063 125.254844 124.579063 
L 125.254844 124.579063 
C 125.254844 124.579063 125.254844 124.579063 125.254844 124.579063 
C 125.254844 124.579063 125.254844 124.579063 125.254844 124.579063 
z
" clip-path="url(#p8d2e68e96b)" style="fill: #828282"/>
   </g>
   <g id="patch_110">
    <path d="M 125.254844 124.579063 
C 125.254844 124.579063 125.254844 124.579063 125.254844 124.579063 
C 125.254844 124.579063 125.254844 124.579063 125.254844 124.579063 
L 125.254844 124.579063 
C 125.254844 124.579063 125.254844 124.579063 125.254844 124.579063 
C 125.254844 124.579063 125.254844 124.579063 125.254844 124.579063 
z
" clip-path="url(#p8d2e68e96b)" style="fill: #828282"/>
   </g>
   <g id="patch_111">
    <path d="M 125.254844 124.579063 
C 125.254844 124.579063 125.254844 124.579063 125.254844 124.579063 
C 125.254844 124.579063 125.254844 124.579063 125.254844 124.579063 
L 125.254844 124.579063 
C 125.254844 124.579063 125.254844 124.579063 125.254844 124.579063 
C 125.254844 124.579063 125.254844 124.579063 125.254844 124.579063 
z
" clip-path="url(#p8d2e68e96b)" style="fill: #828282"/>
   </g>
   <g id="patch_112">
    <path d="M 125.254844 124.579063 
C 125.254844 124.579063 125.254844 124.579063 125.254844 124.579063 
C 125.254844 124.579063 125.254844 124.579063 125.254844 124.579063 
L 125.254844 124.579063 
C 125.254844 124.579063 125.254844 124.579063 125.254844 124.579063 
C 125.254844 124.579063 125.254844 124.579063 125.254844 124.579063 
z
" clip-path="url(#p8d2e68e96b)" style="fill: #828282"/>
   </g>
   <g id="patch_113">
    <path d="M 125.254844 124.579063 
C 125.254844 124.579063 125.254844 124.579063 125.254844 124.579063 
C 125.254844 124.579063 125.254844 124.579063 125.254844 124.579063 
L 125.254844 124.579063 
C 125.254844 124.579063 125.254844 124.579063 125.254844 124.579063 
C 125.254844 124.579063 125.254844 124.579063 125.254844 124.579063 
z
" clip-path="url(#p8d2e68e96b)" style="fill: #828282"/>
   </g>
   <g id="patch_114">
    <path d="M 125.254844 124.579063 
C 125.254844 124.579063 125.254844 124.579063 125.254844 124.579063 
C 125.254844 124.579063 125.254844 124.579063 125.254844 124.579063 
L 125.254844 124.579063 
C 125.254844 124.579063 125.254844 124.579063 125.254844 124.579063 
C 125.254844 124.579063 125.254844 124.579063 125.254844 124.579063 
z
" clip-path="url(#p8d2e68e96b)" style="fill: #828282"/>
   </g>
   <g id="patch_115">
    <path d="M 125.254844 124.579063 
C 125.254844 124.579063 125.254844 124.579063 125.254844 124.579063 
C 125.254844 124.579063 125.254844 124.579063 125.254844 124.579063 
L 125.254844 124.579063 
C 125.254844 124.579063 125.254844 124.579063 125.254844 124.579063 
C 125.254844 124.579063 125.254844 124.579063 125.254844 124.579063 
z
" clip-path="url(#p8d2e68e96b)" style="fill: #828282"/>
   </g>
   <g id="patch_116">
    <path d="M 125.254844 124.579063 
C 125.254844 124.579063 125.254844 124.579063 125.254844 124.579063 
C 125.254844 124.579063 125.254844 124.579063 125.254844 124.579063 
L 125.254844 124.579063 
C 125.254844 124.579063 125.254844 124.579063 125.254844 124.579063 
C 125.254844 124.579063 125.254844 124.579063 125.254844 124.579063 
z
" clip-path="url(#p8d2e68e96b)" style="fill: #828282"/>
   </g>
   <g id="patch_117">
    <path d="M 125.254844 124.579063 
C 125.254844 124.579063 125.254844 124.579063 125.254844 124.579063 
C 125.254844 124.579063 125.254844 124.579063 125.254844 124.579063 
L 125.254844 124.579063 
C 125.254844 124.579063 125.254844 124.579063 125.254844 124.579063 
C 125.254844 124.579063 125.254844 124.579063 125.254844 124.579063 
z
" clip-path="url(#p8d2e68e96b)" style="fill: #828282"/>
   </g>
   <g id="patch_118">
    <path d="M 125.254844 124.579063 
C 125.254844 124.579063 125.254844 124.579063 125.254844 124.579063 
C 125.254844 124.579063 125.254844 124.579063 125.254844 124.579063 
L 125.254844 124.579063 
C 125.254844 124.579063 125.254844 124.579063 125.254844 124.579063 
C 125.254844 124.579063 125.254844 124.579063 125.254844 124.579063 
z
" clip-path="url(#p8d2e68e96b)" style="fill: #828282"/>
   </g>
   <g id="patch_119">
    <path d="M 125.254844 124.579063 
C 125.254844 124.579063 125.254844 124.579063 125.254844 124.579063 
C 125.254844 124.579063 125.254844 124.579063 125.254844 124.579063 
L 125.254844 124.579063 
C 125.254844 124.579063 125.254844 124.579063 125.254844 124.579063 
C 125.254844 124.579063 125.254844 124.579063 125.254844 124.579063 
z
" clip-path="url(#p8d2e68e96b)" style="fill: #828282"/>
   </g>
   <g id="patch_120">
    <path d="M 110.009923 137.090246 
C 109.600413 136.591257 109.215649 136.072463 108.857021 135.535737 
C 108.498393 134.999012 108.166332 134.445003 107.862039 133.87571 
L 107.862039 133.87571 
C 108.166332 134.445003 108.498393 134.999012 108.857021 135.535737 
C 109.215649 136.072463 109.600413 136.591257 110.009923 137.090246 
z
" clip-path="url(#p8d2e68e96b)" style="fill: #828282"/>
   </g>
   <g id="patch_121">
    <path d="M 125.254844 124.579063 
C 125.254844 124.579063 125.254844 124.579063 125.254844 124.579063 
C 125.254844 124.579063 125.254844 124.579063 125.254844 124.579063 
L 125.254844 124.579063 
C 125.254844 124.579063 125.254844 124.579063 125.254844 124.579063 
C 125.254844 124.579063 125.254844 124.579063 125.254844 124.579063 
z
" clip-path="url(#p8d2e68e96b)" style="fill: #828282"/>
   </g>
   <g id="patch_122">
    <path d="M 111.575052 128.728782 
C 111.439225 128.281022 111.325464 127.826863 111.23418 127.367946 
C 111.142896 126.909029 111.074198 126.445906 111.028335 125.980251 
L 111.028335 125.980251 
C 111.074198 126.445906 111.142896 126.909029 111.23418 127.367946 
C 111.325464 127.826863 111.439225 128.281022 111.575052 128.728782 
z
" clip-path="url(#p8d2e68e96b)" style="fill: #828282"/>
   </g>
   <g id="patch_123">
    <path d="M 87.876127 128.260545 
C 87.755626 127.037084 87.695267 125.808444 87.695267 124.579062 
C 87.695267 123.349681 87.755626 122.121041 87.876127 120.89758 
L 87.876127 120.89758 
C 87.755626 122.121041 87.695267 123.349681 87.695267 124.579062 
C 87.695267 125.808444 87.755626 127.037084 87.876127 128.260545 
z
" clip-path="url(#p8d2e68e96b)" style="fill: #828282"/>
   </g>
   <g id="patch_124">
    <path d="M 71.172375 119.252404 
C 71.346725 117.482204 71.607881 115.721631 71.954901 113.977045 
C 72.301921 112.232458 72.734386 110.505961 73.250734 108.803788 
L 73.250734 108.803788 
C 72.734386 110.505961 72.301921 112.232458 71.954901 113.977045 
C 71.607881 115.721631 71.346725 117.482204 71.172375 119.252404 
z
" clip-path="url(#p8d2e68e96b)" style="fill: #828282"/>
   </g>
   <g id="patch_125">
    <path d="M 69.173614 107.567007 
C 69.730444 105.731385 70.377062 103.924208 71.111133 102.152003 
C 71.845204 100.379799 72.665843 98.644703 73.570086 96.952984 
L 73.570086 96.952984 
C 72.665843 98.644703 71.845204 100.379799 71.111133 102.152003 
C 70.377062 103.924208 69.730444 105.731385 69.173614 107.567007 
z
" clip-path="url(#p8d2e68e96b)" style="fill: #828282"/>
   </g>
   <g id="patch_126">
    <path d="M 56.611035 87.888182 
C 57.811982 85.641368 59.122518 83.454871 60.537909 81.336589 
C 61.9533 79.218307 63.471839 77.170794 65.088042 75.201445 
L 65.088042 75.201445 
C 63.471839 77.170794 61.9533 79.218307 60.537909 81.336589 
C 59.122518 83.454871 57.811982 85.641368 56.611035 87.888182 
z
" clip-path="url(#p8d2e68e96b)" style="fill: #828282"/>
   </g>
   <g id="patch_127">
    <path d="M 39.543443 54.237534 
C 41.845827 51.432072 44.284563 48.741341 46.850843 46.175061 
C 49.417123 43.608781 52.107853 41.170045 54.913315 38.867662 
L 54.913315 38.867662 
C 52.107853 41.170045 49.417123 43.608781 46.850843 46.175061 
C 44.284563 48.741341 41.845827 51.432072 39.543443 54.237534 
z
" clip-path="url(#p8d2e68e96b)" style="fill: #828282"/>
   </g>
   <g id="patch_128">
    <path d="M 66.617421 53.129156 
C 68.956083 51.209866 71.387567 49.406554 73.903092 47.725734 
C 76.418616 46.044915 79.015147 44.488614 81.683308 43.062452 
L 81.683308 43.062452 
C 79.015147 44.488614 76.418616 46.044915 73.903092 47.725734 
C 71.387567 49.406554 68.956083 51.209866 66.617421 53.129156 
z
" clip-path="url(#p8d2e68e96b)" style="fill: #828282"/>
   </g>
   <g id="patch_129">
    <path d="M 84.785955 48.867098 
C 87.264121 47.54249 89.805828 46.340353 92.401894 45.265027 
C 94.997961 44.189701 97.645259 43.242482 100.334225 42.426793 
L 100.334225 42.426793 
C 97.645259 43.242482 94.997961 44.189701 92.401894 45.265027 
C 89.805828 46.340353 87.264121 47.54249 84.785955 48.867098 
z
" clip-path="url(#p8d2e68e96b)" style="fill: #828282"/>
   </g>
   <g id="patch_130">
    <path d="M 100.580638 43.239106 
C 103.243016 42.431483 105.943442 41.755061 108.672161 41.212285 
C 111.40088 40.669509 114.154603 40.261033 116.923384 39.988332 
L 116.923384 39.988332 
C 114.154603 40.261033 111.40088 40.669509 108.672161 41.212285 
C 105.943442 41.755061 103.243016 42.431483 100.580638 43.239106 
z
" clip-path="url(#p8d2e68e96b)" style="fill: #828282"/>
   </g>
   <g id="patch_131">
    <path d="M 125.254844 124.579063 
C 125.254844 124.579063 125.254844 124.579063 125.254844 124.579063 
C 125.254844 124.579063 125.254844 124.579063 125.254844 124.579063 
L 130.921408 67.045472 
C 129.038247 66.859997 127.147116 66.767092 125.254844 66.767092 
C 123.362572 66.767092 121.47144 66.859997 119.58828 67.045472 
L 125.254844 124.579063 
z
" clip-path="url(#p8d2e68e96b)" style="fill: none; stroke: #292929; stroke-width: 0.5; stroke-linejoin: miter"/>
   </g>
   <g id="patch_132">
    <path d="M 125.254844 124.579063 
C 125.254844 124.579063 125.254844 124.579063 125.254844 124.579063 
C 125.254844 124.579063 125.254844 124.579063 125.254844 124.579063 
L 139.764513 76.747093 
C 138.198901 76.27217 136.610916 75.8744 135.006292 75.555221 
C 133.401669 75.236041 131.782341 74.995837 130.15416 74.835475 
L 125.254844 124.579063 
z
" clip-path="url(#p8d2e68e96b)" style="fill: none; stroke: #292929; stroke-width: 0.5; stroke-linejoin: miter"/>
   </g>
   <g id="patch_133">
    <path d="M 125.254844 124.579063 
C 125.254844 124.579063 125.254844 124.579063 125.254844 124.579063 
C 125.254844 124.579063 125.254844 124.579063 125.254844 124.579063 
L 143.206797 90.99332 
C 142.107486 90.405726 140.979987 89.872459 139.828375 89.395445 
C 138.676763 88.918432 137.502425 88.498247 136.309602 88.136408 
L 125.254844 124.579063 
z
" clip-path="url(#p8d2e68e96b)" style="fill: none; stroke: #292929; stroke-width: 0.5; stroke-linejoin: miter"/>
   </g>
   <g id="patch_134">
    <path d="M 125.254844 124.579063 
C 125.254844 124.579063 125.254844 124.579063 125.254844 124.579063 
C 125.254844 124.579063 125.254844 124.579063 125.254844 124.579063 
L 154.663905 88.744017 
C 153.490971 87.781415 152.271482 86.87698 151.009844 86.033981 
C 149.748206 85.190981 148.445939 84.410433 147.107748 83.695154 
L 125.254844 124.579063 
z
" clip-path="url(#p8d2e68e96b)" style="fill: none; stroke: #292929; stroke-width: 0.5; stroke-linejoin: miter"/>
   </g>
   <g id="patch_135">
    <path d="M 125.254844 124.579063 
C 125.254844 124.579063 125.254844 124.579063 125.254844 124.579063 
C 125.254844 124.579063 125.254844 124.579063 125.254844 124.579063 
L 148.570021 105.444791 
C 147.943727 104.681651 147.280343 103.94972 146.582265 103.251641 
C 145.884187 102.553563 145.152255 101.890179 144.389115 101.263886 
L 125.254844 124.579063 
z
" clip-path="url(#p8d2e68e96b)" style="fill: none; stroke: #292929; stroke-width: 0.5; stroke-linejoin: miter"/>
   </g>
   <g id="patch_136">
    <path d="M 125.254844 124.579063 
C 125.254844 124.579063 125.254844 124.579063 125.254844 124.579063 
C 125.254844 124.579063 125.254844 124.579063 125.254844 124.579063 
L 146.616681 113.160922 
C 146.242948 112.461718 145.835112 111.781283 145.394645 111.122078 
C 144.954178 110.462872 144.481611 109.825689 143.978651 109.212831 
L 125.254844 124.579063 
z
" clip-path="url(#p8d2e68e96b)" style="fill: none; stroke: #292929; stroke-width: 0.5; stroke-linejoin: miter"/>
   </g>
   <g id="patch_137">
    <path d="M 125.254844 124.579063 
C 125.254844 124.579063 125.254844 124.579063 125.254844 124.579063 
C 125.254844 124.579063 125.254844 124.579063 125.254844 124.579063 
L 125.254844 124.579063 
C 125.254844 124.579063 125.254844 124.579063 125.254844 124.579063 
C 125.254844 124.579063 125.254844 124.579063 125.254844 124.579063 
L 125.254844 124.579063 
z
" clip-path="url(#p8d2e68e96b)" style="fill: none; stroke: #292929; stroke-width: 0.5; stroke-linejoin: miter"/>
   </g>
   <g id="patch_138">
    <path d="M 125.254844 124.579063 
C 125.254844 124.579063 125.254844 124.579063 125.254844 124.579063 
C 125.254844 124.579063 125.254844 124.579063 125.254844 124.579063 
L 152.774722 121.868591 
C 152.686004 120.967824 152.553114 120.071956 152.376533 119.184223 
C 152.199952 118.29649 151.979892 117.417961 151.717148 116.55181 
L 125.254844 124.579063 
z
" clip-path="url(#p8d2e68e96b)" style="fill: none; stroke: #292929; stroke-width: 0.5; stroke-linejoin: miter"/>
   </g>
   <g id="patch_139">
    <path d="M 125.254844 124.579063 
C 125.254844 124.579063 125.254844 124.579063 125.254844 124.579063 
C 125.254844 124.579063 125.254844 124.579063 125.254844 124.579063 
L 125.254844 124.579063 
C 125.254844 124.579063 125.254844 124.579063 125.254844 124.579063 
C 125.254844 124.579063 125.254844 124.579063 125.254844 124.579063 
L 125.254844 124.579063 
z
" clip-path="url(#p8d2e68e96b)" style="fill: none; stroke: #292929; stroke-width: 0.5; stroke-linejoin: miter"/>
   </g>
   <g id="patch_140">
    <path d="M 125.254844 124.579063 
C 125.254844 124.579063 125.254844 124.579063 125.254844 124.579063 
C 125.254844 124.579063 125.254844 124.579063 125.254844 124.579063 
L 145.215307 130.634003 
C 145.413495 129.980667 145.579485 129.317995 145.71268 128.648379 
C 145.845875 127.978764 145.946113 127.303012 146.013033 126.623566 
L 125.254844 124.579063 
z
" clip-path="url(#p8d2e68e96b)" style="fill: none; stroke: #292929; stroke-width: 0.5; stroke-linejoin: miter"/>
   </g>
   <g id="patch_141">
    <path d="M 125.254844 124.579063 
C 125.254844 124.579063 125.254844 124.579063 125.254844 124.579063 
C 125.254844 124.579063 125.254844 124.579063 125.254844 124.579063 
L 125.254844 124.579063 
C 125.254844 124.579063 125.254844 124.579063 125.254844 124.579063 
C 125.254844 124.579063 125.254844 124.579063 125.254844 124.579063 
L 125.254844 124.579063 
z
" clip-path="url(#p8d2e68e96b)" style="fill: none; stroke: #292929; stroke-width: 0.5; stroke-linejoin: miter"/>
   </g>
   <g id="patch_142">
    <path d="M 125.254844 124.579063 
C 125.254844 124.579063 125.254844 124.579063 125.254844 124.579063 
C 125.254844 124.579063 125.254844 124.579063 125.254844 124.579063 
L 125.254844 124.579063 
C 125.254844 124.579063 125.254844 124.579063 125.254844 124.579063 
C 125.254844 124.579063 125.254844 124.579063 125.254844 124.579063 
L 125.254844 124.579063 
z
" clip-path="url(#p8d2e68e96b)" style="fill: none; stroke: #292929; stroke-width: 0.5; stroke-linejoin: miter"/>
   </g>
   <g id="patch_143">
    <path d="M 125.254844 124.579063 
C 125.254844 124.579063 125.254844 124.579063 125.254844 124.579063 
C 125.254844 124.579063 125.254844 124.579063 125.254844 124.579063 
L 125.254844 124.579063 
C 125.254844 124.579063 125.254844 124.579063 125.254844 124.579063 
C 125.254844 124.579063 125.254844 124.579063 125.254844 124.579063 
L 125.254844 124.579063 
z
" clip-path="url(#p8d2e68e96b)" style="fill: none; stroke: #292929; stroke-width: 0.5; stroke-linejoin: miter"/>
   </g>
   <g id="patch_144">
    <path d="M 125.254844 124.579063 
C 125.254844 124.579063 125.254844 124.579063 125.254844 124.579063 
C 125.254844 124.579063 125.254844 124.579063 125.254844 124.579063 
L 125.254844 124.579063 
C 125.254844 124.579063 125.254844 124.579063 125.254844 124.579063 
C 125.254844 124.579063 125.254844 124.579063 125.254844 124.579063 
L 125.254844 124.579063 
z
" clip-path="url(#p8d2e68e96b)" style="fill: none; stroke: #292929; stroke-width: 0.5; stroke-linejoin: miter"/>
   </g>
   <g id="patch_145">
    <path d="M 125.254844 124.579063 
C 125.254844 124.579063 125.254844 124.579063 125.254844 124.579063 
C 125.254844 124.579063 125.254844 124.579063 125.254844 124.579063 
L 125.254844 124.579063 
C 125.254844 124.579063 125.254844 124.579063 125.254844 124.579063 
C 125.254844 124.579063 125.254844 124.579063 125.254844 124.579063 
L 125.254844 124.579063 
z
" clip-path="url(#p8d2e68e96b)" style="fill: none; stroke: #292929; stroke-width: 0.5; stroke-linejoin: miter"/>
   </g>
   <g id="patch_146">
    <path d="M 125.254844 124.579063 
C 125.254844 124.579063 125.254844 124.579063 125.254844 124.579063 
C 125.254844 124.579063 125.254844 124.579063 125.254844 124.579063 
L 125.254844 124.579063 
C 125.254844 124.579063 125.254844 124.579063 125.254844 124.579063 
C 125.254844 124.579063 125.254844 124.579063 125.254844 124.579063 
L 125.254844 124.579063 
z
" clip-path="url(#p8d2e68e96b)" style="fill: none; stroke: #292929; stroke-width: 0.5; stroke-linejoin: miter"/>
   </g>
   <g id="patch_147">
    <path d="M 125.254844 124.579063 
C 125.254844 124.579063 125.254844 124.579063 125.254844 124.579063 
C 125.254844 124.579063 125.254844 124.579063 125.254844 124.579063 
L 125.254844 124.579063 
C 125.254844 124.579063 125.254844 124.579063 125.254844 124.579063 
C 125.254844 124.579063 125.254844 124.579063 125.254844 124.579063 
L 125.254844 124.579063 
z
" clip-path="url(#p8d2e68e96b)" style="fill: none; stroke: #292929; stroke-width: 0.5; stroke-linejoin: miter"/>
   </g>
   <g id="patch_148">
    <path d="M 125.254844 124.579063 
C 125.254844 124.579063 125.254844 124.579063 125.254844 124.579063 
C 125.254844 124.579063 125.254844 124.579063 125.254844 124.579063 
L 125.254844 124.579063 
C 125.254844 124.579063 125.254844 124.579063 125.254844 124.579063 
C 125.254844 124.579063 125.254844 124.579063 125.254844 124.579063 
L 125.254844 124.579063 
z
" clip-path="url(#p8d2e68e96b)" style="fill: none; stroke: #292929; stroke-width: 0.5; stroke-linejoin: miter"/>
   </g>
   <g id="patch_149">
    <path d="M 125.254844 124.579063 
C 125.254844 124.579063 125.254844 124.579063 125.254844 124.579063 
C 125.254844 124.579063 125.254844 124.579063 125.254844 124.579063 
L 125.254844 124.579063 
C 125.254844 124.579063 125.254844 124.579063 125.254844 124.579063 
C 125.254844 124.579063 125.254844 124.579063 125.254844 124.579063 
L 125.254844 124.579063 
z
" clip-path="url(#p8d2e68e96b)" style="fill: none; stroke: #292929; stroke-width: 0.5; stroke-linejoin: miter"/>
   </g>
   <g id="patch_150">
    <path d="M 125.254844 124.579063 
C 125.254844 124.579063 125.254844 124.579063 125.254844 124.579063 
C 125.254844 124.579063 125.254844 124.579063 125.254844 124.579063 
L 125.254844 124.579063 
C 125.254844 124.579063 125.254844 124.579063 125.254844 124.579063 
C 125.254844 124.579063 125.254844 124.579063 125.254844 124.579063 
L 125.254844 124.579063 
z
" clip-path="url(#p8d2e68e96b)" style="fill: none; stroke: #292929; stroke-width: 0.5; stroke-linejoin: miter"/>
   </g>
   <g id="patch_151">
    <path d="M 125.254844 124.579063 
C 125.254844 124.579063 125.254844 124.579063 125.254844 124.579063 
C 125.254844 124.579063 125.254844 124.579063 125.254844 124.579063 
L 125.254844 124.579063 
C 125.254844 124.579063 125.254844 124.579063 125.254844 124.579063 
C 125.254844 124.579063 125.254844 124.579063 125.254844 124.579063 
L 125.254844 124.579063 
z
" clip-path="url(#p8d2e68e96b)" style="fill: none; stroke: #292929; stroke-width: 0.5; stroke-linejoin: miter"/>
   </g>
   <g id="patch_152">
    <path d="M 125.254844 124.579063 
C 125.254844 124.579063 125.254844 124.579063 125.254844 124.579063 
C 125.254844 124.579063 125.254844 124.579063 125.254844 124.579063 
L 107.862039 133.87571 
C 108.166332 134.445003 108.498393 134.999012 108.857021 135.535737 
C 109.215649 136.072463 109.600413 136.591257 110.009923 137.090246 
L 125.254844 124.579063 
z
" clip-path="url(#p8d2e68e96b)" style="fill: none; stroke: #292929; stroke-width: 0.5; stroke-linejoin: miter"/>
   </g>
   <g id="patch_153">
    <path d="M 125.254844 124.579063 
C 125.254844 124.579063 125.254844 124.579063 125.254844 124.579063 
C 125.254844 124.579063 125.254844 124.579063 125.254844 124.579063 
L 125.254844 124.579063 
C 125.254844 124.579063 125.254844 124.579063 125.254844 124.579063 
C 125.254844 124.579063 125.254844 124.579063 125.254844 124.579063 
L 125.254844 124.579063 
z
" clip-path="url(#p8d2e68e96b)" style="fill: none; stroke: #292929; stroke-width: 0.5; stroke-linejoin: miter"/>
   </g>
   <g id="patch_154">
    <path d="M 125.254844 124.579063 
C 125.254844 124.579063 125.254844 124.579063 125.254844 124.579063 
C 125.254844 124.579063 125.254844 124.579063 125.254844 124.579063 
L 111.028335 125.980251 
C 111.074198 126.445906 111.142896 126.909029 111.23418 127.367946 
C 111.325464 127.826863 111.439225 128.281022 111.575052 128.728782 
L 125.254844 124.579063 
z
" clip-path="url(#p8d2e68e96b)" style="fill: none; stroke: #292929; stroke-width: 0.5; stroke-linejoin: miter"/>
   </g>
   <g id="patch_155">
    <path d="M 125.254844 124.579063 
C 125.254844 124.579063 125.254844 124.579063 125.254844 124.579063 
C 125.254844 124.579063 125.254844 124.579063 125.254844 124.579063 
L 87.876127 120.89758 
C 87.755626 122.121041 87.695267 123.349681 87.695267 124.579062 
C 87.695267 125.808444 87.755626 127.037084 87.876127 128.260545 
L 125.254844 124.579063 
z
" clip-path="url(#p8d2e68e96b)" style="fill: none; stroke: #292929; stroke-width: 0.5; stroke-linejoin: miter"/>
   </g>
   <g id="patch_156">
    <path d="M 125.254844 124.579063 
C 125.254844 124.579063 125.254844 124.579063 125.254844 124.579063 
C 125.254844 124.579063 125.254844 124.579063 125.254844 124.579063 
L 73.250734 108.803788 
C 72.734386 110.505961 72.301921 112.232458 71.954901 113.977045 
C 71.607881 115.721631 71.346725 117.482204 71.172375 119.252404 
L 125.254844 124.579063 
z
" clip-path="url(#p8d2e68e96b)" style="fill: none; stroke: #292929; stroke-width: 0.5; stroke-linejoin: miter"/>
   </g>
   <g id="patch_157">
    <path d="M 125.254844 124.579063 
C 125.254844 124.579063 125.254844 124.579063 125.254844 124.579063 
C 125.254844 124.579063 125.254844 124.579063 125.254844 124.579063 
L 73.570086 96.952984 
C 72.665843 98.644703 71.845204 100.379799 71.111133 102.152003 
C 70.377062 103.924208 69.730444 105.731385 69.173614 107.567007 
L 125.254844 124.579063 
z
" clip-path="url(#p8d2e68e96b)" style="fill: none; stroke: #292929; stroke-width: 0.5; stroke-linejoin: miter"/>
   </g>
   <g id="patch_158">
    <path d="M 125.254844 124.579063 
C 125.254844 124.579063 125.254844 124.579063 125.254844 124.579063 
C 125.254844 124.579063 125.254844 124.579063 125.254844 124.579063 
L 65.088042 75.201445 
C 63.471839 77.170794 61.9533 79.218307 60.537909 81.336589 
C 59.122518 83.454871 57.811982 85.641368 56.611035 87.888182 
L 125.254844 124.579063 
z
" clip-path="url(#p8d2e68e96b)" style="fill: none; stroke: #292929; stroke-width: 0.5; stroke-linejoin: miter"/>
   </g>
   <g id="patch_159">
    <path d="M 125.254844 124.579063 
C 125.254844 124.579063 125.254844 124.579063 125.254844 124.579063 
C 125.254844 124.579063 125.254844 124.579063 125.254844 124.579063 
L 54.913315 38.867662 
C 52.107853 41.170045 49.417123 43.608781 46.850843 46.175061 
C 44.284563 48.741341 41.845827 51.432072 39.543443 54.237534 
L 125.254844 124.579063 
z
" clip-path="url(#p8d2e68e96b)" style="fill: none; stroke: #292929; stroke-width: 0.5; stroke-linejoin: miter"/>
   </g>
   <g id="patch_160">
    <path d="M 125.254844 124.579063 
C 125.254844 124.579063 125.254844 124.579063 125.254844 124.579063 
C 125.254844 124.579063 125.254844 124.579063 125.254844 124.579063 
L 81.683308 43.062452 
C 79.015147 44.488614 76.418616 46.044915 73.903092 47.725734 
C 71.387567 49.406554 68.956083 51.209866 66.617421 53.129156 
L 125.254844 124.579063 
z
" clip-path="url(#p8d2e68e96b)" style="fill: none; stroke: #292929; stroke-width: 0.5; stroke-linejoin: miter"/>
   </g>
   <g id="patch_161">
    <path d="M 125.254844 124.579063 
C 125.254844 124.579063 125.254844 124.579063 125.254844 124.579063 
C 125.254844 124.579063 125.254844 124.579063 125.254844 124.579063 
L 100.334225 42.426793 
C 97.645259 43.242482 94.997961 44.189701 92.401894 45.265027 
C 89.805828 46.340353 87.264121 47.54249 84.785955 48.867098 
L 125.254844 124.579063 
z
" clip-path="url(#p8d2e68e96b)" style="fill: none; stroke: #292929; stroke-width: 0.5; stroke-linejoin: miter"/>
   </g>
   <g id="patch_162">
    <path d="M 125.254844 124.579063 
C 125.254844 124.579063 125.254844 124.579063 125.254844 124.579063 
C 125.254844 124.579063 125.254844 124.579063 125.254844 124.579063 
L 116.923384 39.988332 
C 114.154603 40.261033 111.40088 40.669509 108.672161 41.212285 
C 105.943442 41.755061 103.243016 42.431483 100.580638 43.239106 
L 125.254844 124.579063 
z
" clip-path="url(#p8d2e68e96b)" style="fill: none; stroke: #292929; stroke-width: 0.5; stroke-linejoin: miter"/>
   </g>
   <g id="PathCollection_1">
    <defs>
     <path id="mac2dcb5760" d="M 0.193618 7.414054 
L 0.193618 7.414054 
C 0.054922 7.414054 -0.078235 7.358899 -0.176308 7.260826 
C -0.274381 7.162753 -0.329536 7.029596 -0.329536 6.890901 
L -0.329536 5.365008 
L -1.528416 6.56393 
L -1.528416 6.56393 
C -1.577018 6.612704 -1.634775 6.651408 -1.698366 6.677814 
C -1.761958 6.704221 -1.830141 6.717815 -1.898997 6.717815 
C -1.967853 6.717815 -2.036037 6.704221 -2.099628 6.677814 
C -2.163219 6.651408 -2.220976 6.612704 -2.269578 6.56393 
L -2.269578 6.56393 
C -2.318353 6.515327 -2.357056 6.457571 -2.383463 6.393979 
C -2.409869 6.330388 -2.423463 6.262205 -2.423463 6.193348 
C -2.423463 6.124492 -2.409869 6.056309 -2.383463 5.992718 
C -2.357056 5.929126 -2.318353 5.87137 -2.269578 5.822767 
L -0.329536 3.884106 
L -0.329536 0.820937 
L -2.98067 2.351538 
L -3.691824 5.001416 
L -3.691824 5.001416 
C -3.727584 5.135411 -3.815199 5.249836 -3.93523 5.319305 
C -4.055261 5.388775 -4.198123 5.407741 -4.332122 5.371997 
L -4.332122 5.371997 
C -4.466126 5.336237 -4.580558 5.248616 -4.650029 5.128576 
C -4.719499 5.008535 -4.73846 4.865662 -4.702703 4.731657 
L -4.262647 3.092721 
L -5.585535 3.855668 
L -5.585535 3.855668 
C -5.645013 3.890144 -5.710708 3.912561 -5.778854 3.921634 
C -5.847001 3.930706 -5.916272 3.926258 -5.982698 3.908543 
C -6.049125 3.890828 -6.111412 3.860192 -6.165991 3.818391 
C -6.220571 3.77659 -6.266379 3.724437 -6.300791 3.664922 
L -6.300791 3.664922 
C -6.335212 3.605364 -6.35755 3.539597 -6.366524 3.471396 
C -6.375498 3.403194 -6.370933 3.333888 -6.35309 3.267452 
C -6.335248 3.201017 -6.304476 3.138749 -6.26254 3.08422 
C -6.220605 3.029692 -6.168323 2.983966 -6.108695 2.949666 
L -4.785807 2.186762 
L -6.424743 1.746706 
L -6.424743 1.746706 
C -6.558747 1.710946 -6.673179 1.623325 -6.74265 1.503284 
C -6.81212 1.383244 -6.831081 1.240371 -6.795324 1.106366 
L -6.795324 1.106366 
C -6.777471 1.039969 -6.746703 0.977739 -6.704784 0.923241 
C -6.662864 0.868744 -6.61061 0.823041 -6.551015 0.788752 
C -6.491421 0.754464 -6.425647 0.732257 -6.357465 0.723406 
C -6.289282 0.714554 -6.220019 0.71923 -6.153645 0.737166 
L -3.505232 1.44698 
L -0.852424 -0.08496 
L -3.503767 -1.615666 
L -6.153645 -0.905851 
L -6.153645 -0.905851 
C -6.22011 -0.887939 -6.289462 -0.883321 -6.357716 -0.892262 
C -6.42597 -0.901202 -6.491793 -0.923527 -6.551403 -0.957953 
C -6.611013 -0.992379 -6.663247 -1.038234 -6.705103 -1.092883 
C -6.746958 -1.147533 -6.777619 -1.209911 -6.795324 -1.276432 
L -6.795324 -1.276432 
C -6.831068 -1.410431 -6.812101 -1.553293 -6.742632 -1.673324 
C -6.673162 -1.793355 -6.558738 -1.88097 -6.424743 -1.91673 
L -4.785807 -2.355447 
L -6.108695 -3.119732 
L -6.108695 -3.119732 
C -6.228699 -3.188976 -6.316415 -3.303132 -6.352417 -3.436921 
C -6.388419 -3.57071 -6.369839 -3.713469 -6.300791 -3.833586 
L -6.300791 -3.833586 
C -6.266491 -3.893214 -6.220765 -3.945496 -6.166237 -3.987431 
C -6.111708 -4.029367 -6.04944 -4.060139 -5.983005 -4.077981 
C -5.91657 -4.095823 -5.847263 -4.100389 -5.779062 -4.091415 
C -5.71086 -4.082441 -5.645094 -4.060102 -5.585535 -4.025682 
L -4.262647 -3.261396 
L -4.702703 -4.900332 
L -4.702703 -4.900332 
C -4.73846 -5.034337 -4.719499 -5.17721 -4.650029 -5.29725 
C -4.580558 -5.417291 -4.466126 -5.504912 -4.332122 -5.540672 
L -4.332122 -5.540672 
C -4.19831 -5.576464 -4.055613 -5.557686 -3.935617 -5.488496 
C -3.81562 -5.419305 -3.727882 -5.305212 -3.691824 -5.171472 
L -2.982009 -2.521594 
L -0.329411 -0.990302 
L -0.329411 -4.051588 
L -2.269453 -5.991589 
L -2.269453 -5.991589 
C -2.318227 -6.040191 -2.356931 -6.097947 -2.383337 -6.161539 
C -2.409744 -6.22513 -2.423338 -6.293314 -2.423338 -6.36217 
C -2.423338 -6.431026 -2.409744 -6.499209 -2.383337 -6.5628 
C -2.356931 -6.626392 -2.318227 -6.684149 -2.269453 -6.732751 
L -2.269453 -6.732751 
C -2.22085 -6.781526 -2.163094 -6.820229 -2.099502 -6.846635 
C -2.035911 -6.873042 -1.967728 -6.886636 -1.898871 -6.886636 
C -1.830015 -6.886636 -1.761832 -6.873042 -1.698241 -6.846635 
C -1.634649 -6.820229 -1.576893 -6.781526 -1.52829 -6.732751 
L -0.329411 -5.533829 
L -0.329411 -7.059722 
L -0.329411 -7.059722 
C -0.329411 -7.198418 -0.274255 -7.331575 -0.176182 -7.429647 
C -0.07811 -7.52772 0.055047 -7.582875 0.193743 -7.582875 
L 0.193743 -7.582875 
C 0.332439 -7.582875 0.465596 -7.52772 0.563669 -7.429647 
C 0.661741 -7.331575 0.716897 -7.198418 0.716897 -7.059722 
L 0.716897 -5.533829 
L 1.915777 -6.732751 
L 1.915777 -6.732751 
C 1.964379 -6.781526 2.022136 -6.820229 2.085727 -6.846635 
C 2.149318 -6.873042 2.217502 -6.886636 2.286358 -6.886636 
C 2.355214 -6.886636 2.423397 -6.873042 2.486989 -6.846635 
C 2.55058 -6.820229 2.608337 -6.781526 2.656939 -6.732751 
L 2.656939 -6.732751 
C 2.705714 -6.684149 2.744417 -6.626392 2.770823 -6.5628 
C 2.79723 -6.499209 2.810824 -6.431026 2.810824 -6.36217 
C 2.810824 -6.293314 2.79723 -6.22513 2.770823 -6.161539 
C 2.744417 -6.097947 2.705714 -6.040191 2.656939 -5.991589 
L 0.716897 -4.051588 
L 0.716897 -0.991139 
L 3.369495 -2.522954 
L 4.07931 -5.171367 
L 4.07931 -5.171367 
C 4.115368 -5.305107 4.203106 -5.4192 4.323103 -5.488391 
C 4.4431 -5.557582 4.585797 -5.576359 4.719608 -5.540567 
L 4.719608 -5.540567 
C 4.853612 -5.504807 4.968045 -5.417186 5.037515 -5.297146 
C 5.106986 -5.177105 5.125946 -5.034232 5.090189 -4.900227 
L 4.650133 -3.262673 
L 5.973022 -4.025577 
L 5.973022 -4.025577 
C 6.03258 -4.059998 6.098346 -4.082336 6.166548 -4.09131 
C 6.234749 -4.100284 6.304056 -4.095719 6.370491 -4.077876 
C 6.436926 -4.060034 6.499194 -4.029262 6.553723 -3.987327 
C 6.608252 -3.945391 6.653978 -3.893109 6.688277 -3.833481 
L 6.688277 -3.833481 
C 6.757325 -3.713365 6.775905 -3.570605 6.739903 -3.436816 
C 6.703901 -3.303027 6.616186 -3.188871 6.496181 -3.119628 
L 5.173293 -2.355342 
L 6.812229 -1.916625 
L 6.812229 -1.916625 
C 6.946224 -1.880865 7.060649 -1.79325 7.130118 -1.67322 
C 7.199588 -1.553189 7.218554 -1.410326 7.18281 -1.276327 
L 7.18281 -1.276327 
C 7.165106 -1.209806 7.134445 -1.147429 7.092589 -1.092779 
C 7.050733 -1.038129 6.998499 -0.992274 6.938889 -0.957848 
C 6.879279 -0.923422 6.813456 -0.901098 6.745202 -0.892157 
C 6.676949 -0.883217 6.607597 -0.887835 6.541131 -0.905746 
L 3.891253 -1.615561 
L 1.239492 -0.084604 
L 3.892718 1.447085 
L 6.541131 0.73727 
L 6.541131 0.73727 
C 6.674948 0.701466 6.817656 0.720237 6.937662 0.789429 
C 7.057669 0.858621 7.145413 0.972721 7.181471 1.10647 
L 7.181471 1.10647 
C 7.217274 1.240293 7.198497 1.383006 7.129297 1.503014 
C 7.060096 1.623021 6.945986 1.710762 6.812229 1.74681 
L 5.173293 2.186866 
L 6.496181 2.949771 
L 6.496181 2.949771 
C 6.555697 2.984183 6.607849 3.029991 6.649651 3.08457 
C 6.691452 3.13915 6.722088 3.201437 6.739803 3.267863 
C 6.757517 3.33429 6.761966 3.403561 6.752893 3.471707 
C 6.743821 3.539854 6.721404 3.605549 6.686927 3.665026 
L 6.686927 3.665026 
C 6.617458 3.784813 6.503196 3.87225 6.369416 3.907994 
C 6.235636 3.943739 6.092989 3.924946 5.973032 3.855772 
L 4.650144 3.091487 
L 5.08886 4.731783 
L 5.08886 4.731783 
C 5.124664 4.865606 5.105887 5.008319 5.036686 5.128326 
C 4.967486 5.248334 4.853376 5.336074 4.719619 5.372123 
L 4.719619 5.372123 
C 4.585619 5.407867 4.442757 5.3889 4.322726 5.319431 
C 4.202695 5.249961 4.115081 5.135537 4.07932 5.001542 
L 3.368166 2.351664 
L 0.717033 0.821063 
L 0.717033 3.884232 
L 2.657075 5.822893 
L 2.657075 5.822893 
C 2.70585 5.871495 2.744553 5.929252 2.770959 5.992843 
C 2.797366 6.056435 2.81096 6.124618 2.81096 6.193474 
C 2.81096 6.26233 2.797366 6.330514 2.770959 6.394105 
C 2.744553 6.457696 2.70585 6.515453 2.657075 6.564055 
L 2.657075 6.564055 
C 2.608473 6.61283 2.550716 6.651533 2.487125 6.67794 
C 2.423533 6.704346 2.35535 6.71794 2.286494 6.71794 
C 2.217638 6.71794 2.149454 6.704346 2.085863 6.67794 
C 2.022272 6.651533 1.964515 6.61283 1.915913 6.564055 
L 0.717033 5.365133 
L 0.717033 6.891026 
L 0.717033 6.891026 
C 0.717033 7.029722 0.661877 7.162879 0.563805 7.260952 
C 0.465732 7.359024 0.332575 7.41418 0.193879 7.41418 
L 0.193618 7.414054 
z
"/>
    </defs>
    <g clip-path="url(#p8d2e68e96b)">
     <use xlink:href="#mac2dcb5760" x="78.844148" y="44.449838" style="fill: #9e2096; fill-opacity: 0.7"/>
    </g>
   </g>
   <g id="patch_163">
    <path d="M 125.254844 13.699063 
C 110.694216 13.699063 96.275171 16.567189 82.822905 22.1393 
C 69.370638 27.711411 57.146763 35.879144 46.850844 46.175063 
C 36.554925 56.470982 28.387192 68.694857 22.815081 82.147124 
C 17.24297 95.59939 14.374844 110.018434 14.374844 124.579063 
C 14.374844 139.139691 17.24297 153.558735 22.815081 167.011001 
C 28.387192 180.463268 36.554925 192.687143 46.850844 202.983062 
C 57.146763 213.278981 69.370638 221.446714 82.822905 227.018825 
C 96.275171 232.590936 110.694216 235.459063 125.254844 235.459063 
C 139.815472 235.459063 154.234516 232.590936 167.686783 227.018825 
C 181.139049 221.446714 193.362925 213.278981 203.658844 202.983062 
C 213.954763 192.687143 222.122495 180.463268 227.694606 167.011001 
C 233.266717 153.558735 236.134844 139.139691 236.134844 124.579063 
C 236.134844 110.018434 233.266717 95.59939 227.694606 82.147124 
C 222.122495 68.694857 213.954763 56.470982 203.658844 46.175063 
C 193.362925 35.879144 181.139049 27.711411 167.686783 22.1393 
C 154.234516 16.567189 139.815472 13.699063 125.254844 13.699063 
" style="fill: none; stroke: #000000; stroke-width: 0.8; stroke-linejoin: miter; stroke-linecap: square"/>
   </g>
  </g>
 </g>
 <defs>
  <clipPath id="p8d2e68e96b">
   <path d="M 236.134844 124.579063 
C 236.134844 110.018434 233.266717 95.59939 227.694606 82.147124 
C 222.122495 68.694857 213.954763 56.470982 203.658844 46.175063 
C 193.362925 35.879144 181.139049 27.711411 167.686783 22.1393 
C 154.234516 16.567189 139.815472 13.699063 125.254844 13.699063 
C 110.694216 13.699063 96.275171 16.567189 82.822905 22.1393 
C 69.370638 27.711411 57.146763 35.879144 46.850844 46.175063 
C 36.554925 56.470982 28.387192 68.694857 22.815081 82.147124 
C 17.24297 95.59939 14.374844 110.018434 14.374844 124.579062 
C 14.374844 139.139691 17.24297 153.558735 22.815081 167.011001 
C 28.387192 180.463268 36.554925 192.687143 46.850844 202.983062 
C 57.146763 213.278981 69.370638 221.446714 82.822905 227.018825 
C 96.275171 232.590936 110.694216 235.459063 125.254844 235.459063 
C 139.815472 235.459063 154.234516 232.590936 167.686783 227.018825 
C 181.139049 221.446714 193.362925 213.278981 203.658844 202.983062 
C 213.954763 192.687143 222.122495 180.463268 227.694606 167.011001 
C 233.266717 153.558735 236.134844 139.139691 236.134844 124.579063 
M 125.254844 124.579063 
C 125.254844 124.579063 125.254844 124.579063 125.254844 124.579063 
C 125.254844 124.579063 125.254844 124.579063 125.254844 124.579063 
C 125.254844 124.579063 125.254844 124.579063 125.254844 124.579063 
C 125.254844 124.579063 125.254844 124.579063 125.254844 124.579063 
C 125.254844 124.579063 125.254844 124.579063 125.254844 124.579063 
C 125.254844 124.579063 125.254844 124.579063 125.254844 124.579063 
C 125.254844 124.579063 125.254844 124.579063 125.254844 124.579063 
C 125.254844 124.579063 125.254844 124.579063 125.254844 124.579063 
C 125.254844 124.579063 125.254844 124.579063 125.254844 124.579063 
C 125.254844 124.579063 125.254844 124.579063 125.254844 124.579063 
C 125.254844 124.579063 125.254844 124.579063 125.254844 124.579063 
C 125.254844 124.579063 125.254844 124.579063 125.254844 124.579063 
C 125.254844 124.579063 125.254844 124.579063 125.254844 124.579063 
C 125.254844 124.579063 125.254844 124.579063 125.254844 124.579063 
C 125.254844 124.579063 125.254844 124.579063 125.254844 124.579063 
C 125.254844 124.579063 125.254844 124.579063 125.254844 124.579063 
z
"/>
  </clipPath>
 </defs>
</svg>
