<?xml version="1.0" encoding="utf-8" standalone="no"?>
<!DOCTYPE svg PUBLIC "-//W3C//DTD SVG 1.1//EN"
  "http://www.w3.org/Graphics/SVG/1.1/DTD/svg11.dtd">
<svg xmlns:xlink="http://www.w3.org/1999/xlink" width="248.410469pt" height="249.158125pt" viewBox="0 0 248.410469 249.158125" xmlns="http://www.w3.org/2000/svg" version="1.1">
 <title>Ski Rose for ルスツリゾートスキー場, Rusutsu Resort Ski Area</title>
 <metadata>
  <rdf:RDF xmlns:dc="http://purl.org/dc/elements/1.1/" xmlns:cc="http://creativecommons.org/ns#" xmlns:rdf="http://www.w3.org/1999/02/22-rdf-syntax-ns#">
   <cc:Work>
    <dc:type rdf:resource="http://purl.org/dc/dcmitype/StillImage"/>
    <dc:title>Ski Rose for ルスツリゾートスキー場, Rusutsu Resort Ski Area</dc:title>
    <dc:date>2025-03-22T10:56:28.645639</dc:date>
    <dc:description>A 32-bin stacked histogram of downhill ski run orientations colored by difficulty.</dc:description>
    <dc:format>image/svg+xml</dc:format>
    <dc:source>https://openskimap.org/?obj=eddc850d601b2db3c793fab90c63a4c8d84355a7</dc:source>
    <dc:creator>
     <cc:Agent>
      <dc:title>https://github.com/dhimmel/openskistats</dc:title>
     </cc:Agent>
    </dc:creator>
    <dc:rights>
     <cc:Agent>
      <dc:title>https://creativecommons.org/licenses/by/4.0/</dc:title>
     </cc:Agent>
    </dc:rights>
   </cc:Work>
  </rdf:RDF>
 </metadata>
 <defs>
  <style type="text/css">*{stroke-linejoin: round; stroke-linecap: butt}</style>
 </defs>
 <g id="figure_1">
  <g id="patch_1">
   <path d="M 0 249.158125 
L 248.410469 249.158125 
L 248.410469 0 
L 0 0 
z
" style="fill: #ffffff"/>
  </g>
  <g id="axes_1">
   <g id="patch_2">
    <path d="M 236.134844 124.579063 
C 236.134844 110.018434 233.266717 95.59939 227.694606 82.147124 
C 222.122495 68.694857 213.954763 56.470982 203.658844 46.175063 
C 193.362925 35.879144 181.139049 27.711411 167.686783 22.1393 
C 154.234516 16.567189 139.815472 13.699063 125.254844 13.699063 
C 110.694216 13.699063 96.275171 16.567189 82.822905 22.1393 
C 69.370638 27.711411 57.146763 35.879144 46.850844 46.175063 
C 36.554925 56.470982 28.387192 68.694857 22.815081 82.147124 
C 17.24297 95.59939 14.374844 110.018434 14.374844 124.579062 
C 14.374844 139.139691 17.24297 153.558735 22.815081 167.011001 
C 28.387192 180.463268 36.554925 192.687143 46.850844 202.983062 
C 57.146763 213.278981 69.370638 221.446714 82.822905 227.018825 
C 96.275171 232.590936 110.694216 235.459063 125.254844 235.459063 
C 139.815472 235.459063 154.234516 232.590936 167.686783 227.018825 
C 181.139049 221.446714 193.362925 213.278981 203.658844 202.983062 
C 213.954763 192.687143 222.122495 180.463268 227.694606 167.011001 
C 233.266717 153.558735 236.134844 139.139691 236.134844 124.579063 
M 125.254844 124.579063 
C 125.254844 124.579063 125.254844 124.579063 125.254844 124.579063 
C 125.254844 124.579063 125.254844 124.579063 125.254844 124.579063 
C 125.254844 124.579063 125.254844 124.579063 125.254844 124.579063 
C 125.254844 124.579063 125.254844 124.579063 125.254844 124.579063 
C 125.254844 124.579063 125.254844 124.579063 125.254844 124.579063 
C 125.254844 124.579063 125.254844 124.579063 125.254844 124.579063 
C 125.254844 124.579063 125.254844 124.579063 125.254844 124.579063 
C 125.254844 124.579063 125.254844 124.579063 125.254844 124.579063 
C 125.254844 124.579063 125.254844 124.579063 125.254844 124.579063 
C 125.254844 124.579063 125.254844 124.579063 125.254844 124.579063 
C 125.254844 124.579063 125.254844 124.579063 125.254844 124.579063 
C 125.254844 124.579063 125.254844 124.579063 125.254844 124.579063 
C 125.254844 124.579063 125.254844 124.579063 125.254844 124.579063 
C 125.254844 124.579063 125.254844 124.579063 125.254844 124.579063 
C 125.254844 124.579063 125.254844 124.579063 125.254844 124.579063 
C 125.254844 124.579063 125.254844 124.579063 125.254844 124.579063 
z
" style="fill: #ffffff"/>
   </g>
   <g id="PolyCollection_1">
    <defs>
     <path id="m0a75be36c8" d="M 235.366183 -137.124665 
L 234.793542 -137.059421 
L 233.79527 -135.030317 
L 232.704867 -133.035563 
L 231.544408 -131.080011 
L 230.328321 -129.16667 
L 229.287263 -127.303247 
L 227.98455 -125.475571 
L 226.644458 -123.694249 
L 225.270321 -121.960065 
L 223.864894 -120.273655 
L 222.430593 -118.635539 
L 220.969621 -117.046146 
L 219.707211 -115.484334 
L 218.198297 -113.989494 
L 216.668515 -112.544224 
L 215.340339 -111.115695 
L 213.773257 -109.76616 
L 212.190742 -108.466446 
L 210.81124 -107.172417 
L 209.20167 -105.968499 
L 207.795255 -104.762863 
L 206.376759 -103.599509 
L 204.73798 -102.536438 
L 203.301484 -101.460594 
L 201.857143 -100.42645 
L 200.406314 -99.433732 
L 198.950349 -98.482116 
L 197.490591 -97.571223 
L 196.028375 -96.700627 
L 194.565028 -95.869844 
L 193.29157 -94.995852 
L 191.826846 -94.240453 
L 190.364774 -93.523219 
L 189.08718 -92.753434 
L 187.630824 -92.108182 
L 186.354794 -91.404497 
L 185.079447 -90.73193 
L 183.6382 -90.188638 
L 182.370288 -89.578673 
L 181.105778 -88.998093 
L 179.84551 -88.446288 
L 178.590304 -87.922616 
L 177.640763 -87.212549 
L 176.596249 -86.588421 
L 175.354077 -86.136569 
L 174.119814 -85.71011 
L 172.894159 -85.308242 
L 171.807928 -84.818972 
L 170.597369 -84.463385 
L 169.397284 -84.129968 
L 168.32651 -83.705577 
L 167.144845 -83.413873 
L 166.085584 -83.0294 
L 165.030866 -82.663881 
L 163.878159 -82.42911 
L 162.837364 -82.09975 
L 161.802181 -81.787629 
L 160.681815 -81.60271 
L 159.662485 -81.322729 
L 158.649605 -81.058162 
L 157.643405 -80.808434 
L 156.64409 -80.572962 
L 155.651839 -80.35116 
L 154.666806 -80.142435 
L 153.689119 -79.946191 
L 152.718878 -79.761832 
L 151.756158 -79.588759 
L 150.801005 -79.426375 
L 149.85344 -79.274083 
L 148.913456 -79.131292 
L 148.025676 -78.907838 
L 147.097502 -78.784976 
L 146.1768 -78.67002 
L 145.263457 -78.562403 
L 144.357335 -78.46157 
L 143.488202 -78.290987 
L 142.593222 -78.205464 
L 141.704995 -78.125267 
L 140.845661 -77.983022 
L 139.967744 -77.915706 
L 139.113905 -77.791656 
L 138.24563 -77.735799 
L 137.382945 -77.683173 
L 136.537541 -77.583247 
L 135.683134 -77.540083 
L 134.842147 -77.455963 
L 133.995044 -77.421163 
L 133.157927 -77.352099 
L 132.317053 -77.324715 
L 131.483191 -77.270069 
L 130.647388 -77.249308 
L 129.814107 -77.229303 
L 128.984145 -77.193801 
L 128.153924 -77.179516 
L 127.32532 -77.157351 
L 126.496858 -77.148442 
L 125.668843 -77.139429 
L 124.840847 -77.139778 
L 124.01276 -77.145793 
L 123.184534 -77.161181 
L 122.355332 -77.17247 
L 121.526116 -77.20109 
L 120.694483 -77.217909 
L 119.863519 -77.260013 
L 119.028173 -77.282801 
L 118.194735 -77.338774 
L 117.354445 -77.368144 
L 116.517856 -77.438497 
L 115.671461 -77.475229 
L 114.8311 -77.560594 
L 113.97752 -77.605629 
L 113.132839 -77.706747 
L 112.271094 -77.761174 
L 111.40382 -77.818789 
L 110.550845 -77.943935 
L 109.674033 -78.012929 
L 108.815646 -78.1562 
L 107.928624 -78.237983 
L 107.0349 -78.325041 
L 106.166835 -78.496533 
L 105.262057 -78.598802 
L 104.350104 -78.707797 
L 103.430834 -78.824074 
L 102.548531 -79.037244 
L 101.617597 -79.172334 
L 100.679156 -79.316276 
L 99.73317 -79.469657 
L 98.779629 -79.633067 
L 97.818551 -79.807102 
L 96.849981 -79.99236 
L 95.873992 -80.189437 
L 94.890681 -80.398932 
L 93.900175 -80.621438 
L 92.902626 -80.857549 
L 91.898211 -81.107852 
L 90.887133 -81.372928 
L 89.86962 -81.653354 
L 88.7514 -81.839021 
L 87.718061 -82.151447 
L 86.67912 -82.481047 
L 85.634905 -82.828359 
L 84.475748 -83.081953 
L 83.418363 -83.466468 
L 82.238899 -83.758455 
L 81.170009 -84.182754 
L 79.97213 -84.516301 
L 78.763777 -84.87194 
L 77.679431 -85.360918 
L 76.455979 -85.762693 
L 75.223915 -86.188981 
L 73.983937 -86.640587 
L 72.736769 -87.118284 
L 71.483161 -87.622809 
L 70.223887 -88.154867 
L 68.959745 -88.715129 
L 67.691552 -89.304232 
L 66.420146 -89.922777 
L 65.146386 -90.571334 
L 63.697458 -91.156129 
L 62.418503 -91.868534 
L 60.959753 -92.522713 
L 59.679608 -93.301279 
L 58.215526 -94.027485 
L 56.938322 -94.874193 
L 55.473524 -95.674693 
L 54.008731 -96.514472 
L 52.545256 -97.394062 
L 51.084422 -98.313939 
L 49.627563 -99.274528 
L 48.176021 -100.276203 
L 46.731147 -101.319284 
L 45.294297 -102.40404 
L 43.866834 -103.530692 
L 42.237264 -104.648305 
L 40.831032 -105.862754 
L 39.222252 -107.075534 
L 37.843296 -108.37829 
L 36.261949 -109.686759 
L 34.916366 -111.077887 
L 33.369169 -112.482084 
L 31.841164 -113.935918 
L 30.556934 -115.460691 
L 29.073595 -117.009434 
L 27.615129 -118.607162 
L 26.183647 -120.253521 
L 24.781415 -121.948073 
L 23.634025 -123.692231 
L 22.297417 -125.477558 
L 20.998562 -127.309109 
L 19.742023 -129.185852 
L 18.53437 -131.106366 
L 17.385924 -133.068531 
L 16.313594 -135.068912 
L 15.340285 -137.102245 
L 15.151405 -137.123765 
L 15.151405 -137.123765 
L 14.892971 -135.205702 
L 14.856295 -133.267617 
L 14.662913 -131.343155 
L 14.501972 -129.414637 
L 14.594654 -127.476802 
L 14.498822 -125.545616 
L 14.435099 -123.611953 
L 14.43632 -121.677177 
L 14.592968 -119.747461 
L 14.623498 -117.81256 
L 14.722154 -115.879951 
L 15.00472 -113.963183 
L 15.128432 -112.031743 
L 15.323898 -110.106379 
L 15.653556 -108.19904 
L 15.912369 -106.281408 
L 16.29655 -104.384836 
L 16.618658 -102.476781 
L 17.057726 -100.592339 
L 17.443243 -98.695787 
L 17.937946 -96.825026 
L 18.511295 -94.976456 
L 18.991313 -93.102371 
L 19.569948 -91.256743 
L 20.113549 -89.399277 
L 20.750182 -87.572021 
L 21.414949 -85.754917 
L 22.16401 -83.970503 
L 22.83425 -82.155064 
L 23.591824 -80.374724 
L 24.383627 -78.6094 
L 25.212467 -76.861297 
L 26.040154 -75.112443 
L 26.957135 -73.408514 
L 27.832326 -71.682951 
L 28.754488 -69.981788 
L 29.737258 -68.314905 
L 30.716233 -66.645727 
L 31.747434 -65.008272 
L 33.481513 -63.83562 
L 35.38944 -62.816282 
L 37.252055 -61.807283 
L 39.201821 -60.903175 
L 41.089965 -59.997079 
L 42.977075 -59.13237 
L 44.866822 -58.312291 
L 46.749678 -57.529317 
L 48.630661 -56.787712 
L 50.501302 -56.080062 
L 52.367089 -55.411166 
L 54.220156 -54.773469 
L 56.009015 -54.113995 
L 57.790449 -53.486424 
L 59.617013 -52.94794 
L 61.379507 -52.381128 
L 63.132534 -51.843183 
L 64.875534 -51.333103 
L 66.608002 -50.849877 
L 68.329482 -50.392487 
L 69.997946 -49.903651 
L 71.698224 -49.49545 
L 73.351217 -49.058817 
L 75.028953 -48.696019 
L 76.659993 -48.300427 
L 78.284405 -47.930272 
L 79.897078 -47.576856 
L 81.529235 -47.294311 
L 83.123538 -46.98285 
L 84.70603 -46.685516 
L 86.257196 -46.361883 
L 87.824109 -46.103895 
L 89.379423 -45.857637 
L 90.927113 -45.630687 
L 92.447613 -45.375402 
L 93.976241 -45.173705 
L 95.482502 -44.949317 
L 96.996054 -44.778703 
L 98.488494 -44.582875 
L 99.984662 -44.432284 
L 101.464078 -44.262785 
L 102.937819 -44.106471 
L 104.413939 -43.993262 
L 105.875988 -43.860318 
L 107.333087 -43.73924 
L 108.785499 -43.629649 
L 110.233508 -43.531189 
L 111.677412 -43.443529 
L 113.119798 -43.381573 
L 114.555931 -43.312755 
L 115.98901 -43.253881 
L 117.419387 -43.20473 
L 118.847427 -43.165112 
L 120.273503 -43.134864 
L 121.697996 -43.113855 
L 123.121291 -43.101982 
L 124.54378 -43.099176 
L 125.965903 -43.099688 
L 127.388414 -43.101315 
L 128.811782 -43.111785 
L 130.236396 -43.131397 
L 131.662643 -43.160255 
L 133.090901 -43.198493 
L 134.521545 -43.246273 
L 135.954936 -43.303791 
L 137.39143 -43.371267 
L 138.831368 -43.448953 
L 140.275079 -43.537125 
L 141.722878 -43.636088 
L 143.175064 -43.746172 
L 144.631919 -43.867733 
L 146.101435 -43.971277 
L 147.569409 -44.115338 
L 149.042842 -44.272125 
L 150.531867 -44.410588 
L 152.017922 -44.592654 
L 153.510026 -44.78889 
L 155.022993 -44.960531 
L 156.528872 -45.185317 
L 158.057338 -45.386836 
L 159.59634 -45.599027 
L 161.124421 -45.870459 
L 162.679603 -46.116423 
L 164.245725 -46.375453 
L 165.820129 -46.653875 
L 167.405577 -46.947069 
L 168.999233 -47.261117 
L 170.60388 -47.591676 
L 172.216518 -47.944575 
L 173.839936 -48.315744 
L 175.506465 -48.657145 
L 177.148191 -49.073773 
L 178.837733 -49.458622 
L 180.499807 -49.91978 
L 182.211272 -50.351999 
L 183.934134 -50.809085 
L 185.621246 -51.34876 
L 187.363708 -51.858926 
L 189.116197 -52.396934 
L 190.930629 -52.906519 
L 192.703337 -53.50318 
L 194.484215 -54.130742 
L 196.32918 -54.734507 
L 198.125941 -55.426973 
L 199.990258 -56.096672 
L 201.861337 -56.803362 
L 203.740828 -57.545699 
L 205.624227 -58.327655 
L 207.512495 -59.148372 
L 209.400294 -60.011987 
L 211.356589 -60.867122 
L 213.236668 -61.822237 
L 215.171548 -62.781024 
L 217.00877 -63.848464 
L 218.765871 -65.005968 
L 219.794344 -66.645182 
L 220.784977 -68.307514 
L 221.732721 -69.994506 
L 222.689725 -71.676239 
L 223.569145 -73.399877 
L 224.481041 -75.106706 
L 225.278241 -76.870349 
L 226.117518 -78.613294 
L 226.907982 -80.37902 
L 227.645506 -82.167461 
L 228.333622 -83.975252 
L 229.103577 -85.751612 
L 229.68311 -87.599074 
L 230.383552 -89.403489 
L 230.973642 -91.246053 
L 231.498259 -93.108329 
L 232.045668 -94.963346 
L 232.548119 -96.831135 
L 233.005997 -98.710299 
L 233.419734 -100.599484 
L 233.898678 -102.475225 
L 234.231217 -104.381486 
L 234.52074 -106.294222 
L 234.889857 -108.194 
L 235.16103 -110.109639 
L 235.326332 -112.038001 
L 235.585192 -113.955458 
L 235.726854 -115.884727 
L 235.913703 -117.810877 
L 235.925707 -119.747068 
L 236.091191 -121.676711 
L 236.029802 -123.612344 
L 236.123797 -125.546601 
L 235.992412 -127.478828 
L 236.017912 -129.415082 
L 235.820023 -131.341519 
L 235.732417 -133.273836 
L 235.611343 -135.205185 
L 235.366183 -137.124665 
z
" style="stroke: #ffee9c"/>
    </defs>
    <g clip-path="url(#p18885882ff)">
     <use xlink:href="#m0a75be36c8" x="0" y="249.158125" style="fill: #ffee9c; stroke: #ffee9c"/>
    </g>
   </g>
   <g id="matplotlib.axis_1">
    <g id="xtick_1">
     <g id="line2d_1">
      <path d="M 125.254844 124.579063 
L 125.254844 13.699063 
" clip-path="url(#p18885882ff)" style="fill: none; stroke: #b0b0b0; stroke-width: 0.8; stroke-linecap: square"/>
     </g>
     <g id="text_1">
      <!-- N -->
      <g transform="translate(121.070469 7.958438) scale(0.1 -0.1)">
       <defs>
        <path id="DejaVuSans-Bold-4e" d="M 588 4666 
L 1931 4666 
L 3628 1466 
L 3628 4666 
L 4769 4666 
L 4769 0 
L 3425 0 
L 1728 3200 
L 1728 0 
L 588 0 
L 588 4666 
z
" transform="scale(0.015625)"/>
       </defs>
       <use xlink:href="#DejaVuSans-Bold-4e"/>
      </g>
     </g>
    </g>
    <g id="xtick_2">
     <g id="line2d_2">
      <path d="M 125.254844 124.579063 
L 203.658844 46.175063 
" clip-path="url(#p18885882ff)" style="fill: none; stroke: #b0b0b0; stroke-width: 0.8; stroke-linecap: square"/>
     </g>
    </g>
    <g id="xtick_3">
     <g id="line2d_3">
      <path d="M 125.254844 124.579063 
L 236.134844 124.579063 
" clip-path="url(#p18885882ff)" style="fill: none; stroke: #b0b0b0; stroke-width: 0.8; stroke-linecap: square"/>
     </g>
     <g id="text_2">
      <!-- E -->
      <g transform="translate(241.219219 127.338438) scale(0.1 -0.1)">
       <defs>
        <path id="DejaVuSans-Bold-45" d="M 588 4666 
L 3834 4666 
L 3834 3756 
L 1791 3756 
L 1791 2888 
L 3713 2888 
L 3713 1978 
L 1791 1978 
L 1791 909 
L 3903 909 
L 3903 0 
L 588 0 
L 588 4666 
z
" transform="scale(0.015625)"/>
       </defs>
       <use xlink:href="#DejaVuSans-Bold-45"/>
      </g>
     </g>
    </g>
    <g id="xtick_4">
     <g id="line2d_4">
      <path d="M 125.254844 124.579063 
L 203.658844 202.983062 
" clip-path="url(#p18885882ff)" style="fill: none; stroke: #b0b0b0; stroke-width: 0.8; stroke-linecap: square"/>
     </g>
    </g>
    <g id="xtick_5">
     <g id="line2d_5">
      <path d="M 125.254844 124.579063 
L 125.254844 235.459063 
" clip-path="url(#p18885882ff)" style="fill: none; stroke: #b0b0b0; stroke-width: 0.8; stroke-linecap: square"/>
     </g>
     <g id="text_3">
      <!-- S -->
      <g transform="translate(121.654062 246.718438) scale(0.1 -0.1)">
       <defs>
        <path id="DejaVuSans-Bold-53" d="M 3834 4519 
L 3834 3531 
Q 3450 3703 3084 3790 
Q 2719 3878 2394 3878 
Q 1963 3878 1756 3759 
Q 1550 3641 1550 3391 
Q 1550 3203 1689 3098 
Q 1828 2994 2194 2919 
L 2706 2816 
Q 3484 2659 3812 2340 
Q 4141 2022 4141 1434 
Q 4141 663 3683 286 
Q 3225 -91 2284 -91 
Q 1841 -91 1394 -6 
Q 947 78 500 244 
L 500 1259 
Q 947 1022 1364 901 
Q 1781 781 2169 781 
Q 2563 781 2772 912 
Q 2981 1044 2981 1288 
Q 2981 1506 2839 1625 
Q 2697 1744 2272 1838 
L 1806 1941 
Q 1106 2091 782 2419 
Q 459 2747 459 3303 
Q 459 4000 909 4375 
Q 1359 4750 2203 4750 
Q 2588 4750 2994 4692 
Q 3400 4634 3834 4519 
z
" transform="scale(0.015625)"/>
       </defs>
       <use xlink:href="#DejaVuSans-Bold-53"/>
      </g>
     </g>
    </g>
    <g id="xtick_6">
     <g id="line2d_6">
      <path d="M 125.254844 124.579063 
L 46.850844 202.983062 
" clip-path="url(#p18885882ff)" style="fill: none; stroke: #b0b0b0; stroke-width: 0.8; stroke-linecap: square"/>
     </g>
    </g>
    <g id="xtick_7">
     <g id="line2d_7">
      <path d="M 125.254844 124.579063 
L 14.374844 124.579063 
" clip-path="url(#p18885882ff)" style="fill: none; stroke: #b0b0b0; stroke-width: 0.8; stroke-linecap: square"/>
     </g>
     <g id="text_4">
      <!-- W -->
      <g transform="translate(0.36 127.338438) scale(0.1 -0.1)">
       <defs>
        <path id="DejaVuSans-Bold-57" d="M 191 4666 
L 1344 4666 
L 2150 1275 
L 2950 4666 
L 4109 4666 
L 4909 1275 
L 5716 4666 
L 6859 4666 
L 5759 0 
L 4372 0 
L 3525 3547 
L 2688 0 
L 1300 0 
L 191 4666 
z
" transform="scale(0.015625)"/>
       </defs>
       <use xlink:href="#DejaVuSans-Bold-57"/>
      </g>
     </g>
    </g>
    <g id="xtick_8">
     <g id="line2d_8">
      <path d="M 125.254844 124.579063 
L 46.850844 46.175063 
" clip-path="url(#p18885882ff)" style="fill: none; stroke: #b0b0b0; stroke-width: 0.8; stroke-linecap: square"/>
     </g>
    </g>
   </g>
   <g id="matplotlib.axis_2"/>
   <g id="patch_3">
    <path d="M 125.254844 124.579063 
C 125.254844 124.579063 125.254844 124.579063 125.254844 124.579063 
C 125.254844 124.579063 125.254844 124.579063 125.254844 124.579063 
L 125.254844 124.579063 
C 125.254844 124.579063 125.254844 124.579063 125.254844 124.579063 
C 125.254844 124.579063 125.254844 124.579063 125.254844 124.579063 
z
" clip-path="url(#p18885882ff)" style="fill: #d9d9d9"/>
   </g>
   <g id="patch_4">
    <path d="M 125.254844 124.579063 
C 125.254844 124.579063 125.254844 124.579063 125.254844 124.579063 
C 125.254844 124.579063 125.254844 124.579063 125.254844 124.579063 
L 125.254844 124.579063 
C 125.254844 124.579063 125.254844 124.579063 125.254844 124.579063 
C 125.254844 124.579063 125.254844 124.579063 125.254844 124.579063 
z
" clip-path="url(#p18885882ff)" style="fill: #d9d9d9"/>
   </g>
   <g id="patch_5">
    <path d="M 125.254844 124.579063 
C 125.254844 124.579063 125.254844 124.579063 125.254844 124.579063 
C 125.254844 124.579063 125.254844 124.579063 125.254844 124.579063 
L 125.254844 124.579063 
C 125.254844 124.579063 125.254844 124.579063 125.254844 124.579063 
C 125.254844 124.579063 125.254844 124.579063 125.254844 124.579063 
z
" clip-path="url(#p18885882ff)" style="fill: #d9d9d9"/>
   </g>
   <g id="patch_6">
    <path d="M 125.254844 124.579063 
C 125.254844 124.579063 125.254844 124.579063 125.254844 124.579063 
C 125.254844 124.579063 125.254844 124.579063 125.254844 124.579063 
L 125.254844 124.579063 
C 125.254844 124.579063 125.254844 124.579063 125.254844 124.579063 
C 125.254844 124.579063 125.254844 124.579063 125.254844 124.579063 
z
" clip-path="url(#p18885882ff)" style="fill: #d9d9d9"/>
   </g>
   <g id="patch_7">
    <path d="M 125.254844 124.579063 
C 125.254844 124.579063 125.254844 124.579063 125.254844 124.579063 
C 125.254844 124.579063 125.254844 124.579063 125.254844 124.579063 
L 125.254844 124.579063 
C 125.254844 124.579063 125.254844 124.579063 125.254844 124.579063 
C 125.254844 124.579063 125.254844 124.579063 125.254844 124.579063 
z
" clip-path="url(#p18885882ff)" style="fill: #d9d9d9"/>
   </g>
   <g id="patch_8">
    <path d="M 125.254844 124.579063 
C 125.254844 124.579063 125.254844 124.579063 125.254844 124.579063 
C 125.254844 124.579063 125.254844 124.579063 125.254844 124.579063 
L 125.254844 124.579063 
C 125.254844 124.579063 125.254844 124.579063 125.254844 124.579063 
C 125.254844 124.579063 125.254844 124.579063 125.254844 124.579063 
z
" clip-path="url(#p18885882ff)" style="fill: #d9d9d9"/>
   </g>
   <g id="patch_9">
    <path d="M 125.254844 124.579063 
C 125.254844 124.579063 125.254844 124.579063 125.254844 124.579063 
C 125.254844 124.579063 125.254844 124.579063 125.254844 124.579063 
L 125.254844 124.579063 
C 125.254844 124.579063 125.254844 124.579063 125.254844 124.579063 
C 125.254844 124.579063 125.254844 124.579063 125.254844 124.579063 
z
" clip-path="url(#p18885882ff)" style="fill: #d9d9d9"/>
   </g>
   <g id="patch_10">
    <path d="M 125.254844 124.579063 
C 125.254844 124.579063 125.254844 124.579063 125.254844 124.579063 
C 125.254844 124.579063 125.254844 124.579063 125.254844 124.579063 
L 125.254844 124.579063 
C 125.254844 124.579063 125.254844 124.579063 125.254844 124.579063 
C 125.254844 124.579063 125.254844 124.579063 125.254844 124.579063 
z
" clip-path="url(#p18885882ff)" style="fill: #d9d9d9"/>
   </g>
   <g id="patch_11">
    <path d="M 125.254844 124.579063 
C 125.254844 124.579063 125.254844 124.579063 125.254844 124.579063 
C 125.254844 124.579063 125.254844 124.579063 125.254844 124.579063 
L 125.254844 124.579063 
C 125.254844 124.579063 125.254844 124.579063 125.254844 124.579063 
C 125.254844 124.579063 125.254844 124.579063 125.254844 124.579063 
z
" clip-path="url(#p18885882ff)" style="fill: #d9d9d9"/>
   </g>
   <g id="patch_12">
    <path d="M 125.254844 124.579063 
C 125.254844 124.579063 125.254844 124.579063 125.254844 124.579063 
C 125.254844 124.579063 125.254844 124.579063 125.254844 124.579063 
L 125.254844 124.579063 
C 125.254844 124.579063 125.254844 124.579063 125.254844 124.579063 
C 125.254844 124.579063 125.254844 124.579063 125.254844 124.579063 
z
" clip-path="url(#p18885882ff)" style="fill: #d9d9d9"/>
   </g>
   <g id="patch_13">
    <path d="M 125.254844 124.579063 
C 125.254844 124.579063 125.254844 124.579063 125.254844 124.579063 
C 125.254844 124.579063 125.254844 124.579063 125.254844 124.579063 
L 125.254844 124.579063 
C 125.254844 124.579063 125.254844 124.579063 125.254844 124.579063 
C 125.254844 124.579063 125.254844 124.579063 125.254844 124.579063 
z
" clip-path="url(#p18885882ff)" style="fill: #d9d9d9"/>
   </g>
   <g id="patch_14">
    <path d="M 125.254844 124.579063 
C 125.254844 124.579063 125.254844 124.579063 125.254844 124.579063 
C 125.254844 124.579063 125.254844 124.579063 125.254844 124.579063 
L 125.254844 124.579063 
C 125.254844 124.579063 125.254844 124.579063 125.254844 124.579063 
C 125.254844 124.579063 125.254844 124.579063 125.254844 124.579063 
z
" clip-path="url(#p18885882ff)" style="fill: #d9d9d9"/>
   </g>
   <g id="patch_15">
    <path d="M 125.254844 124.579063 
C 125.254844 124.579063 125.254844 124.579063 125.254844 124.579063 
C 125.254844 124.579063 125.254844 124.579063 125.254844 124.579063 
L 125.254844 124.579063 
C 125.254844 124.579063 125.254844 124.579063 125.254844 124.579063 
C 125.254844 124.579063 125.254844 124.579063 125.254844 124.579063 
z
" clip-path="url(#p18885882ff)" style="fill: #d9d9d9"/>
   </g>
   <g id="patch_16">
    <path d="M 125.254844 124.579063 
C 125.254844 124.579063 125.254844 124.579063 125.254844 124.579063 
C 125.254844 124.579063 125.254844 124.579063 125.254844 124.579063 
L 125.254844 124.579063 
C 125.254844 124.579063 125.254844 124.579063 125.254844 124.579063 
C 125.254844 124.579063 125.254844 124.579063 125.254844 124.579063 
z
" clip-path="url(#p18885882ff)" style="fill: #d9d9d9"/>
   </g>
   <g id="patch_17">
    <path d="M 125.254844 124.579063 
C 125.254844 124.579063 125.254844 124.579063 125.254844 124.579063 
C 125.254844 124.579063 125.254844 124.579063 125.254844 124.579063 
L 125.254844 124.579063 
C 125.254844 124.579063 125.254844 124.579063 125.254844 124.579063 
C 125.254844 124.579063 125.254844 124.579063 125.254844 124.579063 
z
" clip-path="url(#p18885882ff)" style="fill: #d9d9d9"/>
   </g>
   <g id="patch_18">
    <path d="M 125.254844 124.579063 
C 125.254844 124.579063 125.254844 124.579063 125.254844 124.579063 
C 125.254844 124.579063 125.254844 124.579063 125.254844 124.579063 
L 125.254844 124.579063 
C 125.254844 124.579063 125.254844 124.579063 125.254844 124.579063 
C 125.254844 124.579063 125.254844 124.579063 125.254844 124.579063 
z
" clip-path="url(#p18885882ff)" style="fill: #d9d9d9"/>
   </g>
   <g id="patch_19">
    <path d="M 125.254844 124.579063 
C 125.254844 124.579063 125.254844 124.579063 125.254844 124.579063 
C 125.254844 124.579063 125.254844 124.579063 125.254844 124.579063 
L 125.254844 124.579063 
C 125.254844 124.579063 125.254844 124.579063 125.254844 124.579063 
C 125.254844 124.579063 125.254844 124.579063 125.254844 124.579063 
z
" clip-path="url(#p18885882ff)" style="fill: #d9d9d9"/>
   </g>
   <g id="patch_20">
    <path d="M 125.254844 124.579063 
C 125.254844 124.579063 125.254844 124.579063 125.254844 124.579063 
C 125.254844 124.579063 125.254844 124.579063 125.254844 124.579063 
L 125.254844 124.579063 
C 125.254844 124.579063 125.254844 124.579063 125.254844 124.579063 
C 125.254844 124.579063 125.254844 124.579063 125.254844 124.579063 
z
" clip-path="url(#p18885882ff)" style="fill: #d9d9d9"/>
   </g>
   <g id="patch_21">
    <path d="M 125.254844 124.579063 
C 125.254844 124.579063 125.254844 124.579063 125.254844 124.579063 
C 125.254844 124.579063 125.254844 124.579063 125.254844 124.579063 
L 125.254844 124.579063 
C 125.254844 124.579063 125.254844 124.579063 125.254844 124.579063 
C 125.254844 124.579063 125.254844 124.579063 125.254844 124.579063 
z
" clip-path="url(#p18885882ff)" style="fill: #d9d9d9"/>
   </g>
   <g id="patch_22">
    <path d="M 125.254844 124.579063 
C 125.254844 124.579063 125.254844 124.579063 125.254844 124.579063 
C 125.254844 124.579063 125.254844 124.579063 125.254844 124.579063 
L 125.254844 124.579063 
C 125.254844 124.579063 125.254844 124.579063 125.254844 124.579063 
C 125.254844 124.579063 125.254844 124.579063 125.254844 124.579063 
z
" clip-path="url(#p18885882ff)" style="fill: #d9d9d9"/>
   </g>
   <g id="patch_23">
    <path d="M 125.254844 124.579063 
C 125.254844 124.579063 125.254844 124.579063 125.254844 124.579063 
C 125.254844 124.579063 125.254844 124.579063 125.254844 124.579063 
L 125.254844 124.579063 
C 125.254844 124.579063 125.254844 124.579063 125.254844 124.579063 
C 125.254844 124.579063 125.254844 124.579063 125.254844 124.579063 
z
" clip-path="url(#p18885882ff)" style="fill: #d9d9d9"/>
   </g>
   <g id="patch_24">
    <path d="M 125.254844 124.579063 
C 125.254844 124.579063 125.254844 124.579063 125.254844 124.579063 
C 125.254844 124.579063 125.254844 124.579063 125.254844 124.579063 
L 125.254844 124.579063 
C 125.254844 124.579063 125.254844 124.579063 125.254844 124.579063 
C 125.254844 124.579063 125.254844 124.579063 125.254844 124.579063 
z
" clip-path="url(#p18885882ff)" style="fill: #d9d9d9"/>
   </g>
   <g id="patch_25">
    <path d="M 125.254844 124.579063 
C 125.254844 124.579063 125.254844 124.579063 125.254844 124.579063 
C 125.254844 124.579063 125.254844 124.579063 125.254844 124.579063 
L 125.254844 124.579063 
C 125.254844 124.579063 125.254844 124.579063 125.254844 124.579063 
C 125.254844 124.579063 125.254844 124.579063 125.254844 124.579063 
z
" clip-path="url(#p18885882ff)" style="fill: #d9d9d9"/>
   </g>
   <g id="patch_26">
    <path d="M 125.254844 124.579063 
C 125.254844 124.579063 125.254844 124.579063 125.254844 124.579063 
C 125.254844 124.579063 125.254844 124.579063 125.254844 124.579063 
L 125.254844 124.579063 
C 125.254844 124.579063 125.254844 124.579063 125.254844 124.579063 
C 125.254844 124.579063 125.254844 124.579063 125.254844 124.579063 
z
" clip-path="url(#p18885882ff)" style="fill: #d9d9d9"/>
   </g>
   <g id="patch_27">
    <path d="M 125.254844 124.579063 
C 125.254844 124.579063 125.254844 124.579063 125.254844 124.579063 
C 125.254844 124.579063 125.254844 124.579063 125.254844 124.579063 
L 125.254844 124.579063 
C 125.254844 124.579063 125.254844 124.579063 125.254844 124.579063 
C 125.254844 124.579063 125.254844 124.579063 125.254844 124.579063 
z
" clip-path="url(#p18885882ff)" style="fill: #d9d9d9"/>
   </g>
   <g id="patch_28">
    <path d="M 125.254844 124.579063 
C 125.254844 124.579063 125.254844 124.579063 125.254844 124.579063 
C 125.254844 124.579063 125.254844 124.579063 125.254844 124.579063 
L 125.254844 124.579063 
C 125.254844 124.579063 125.254844 124.579063 125.254844 124.579063 
C 125.254844 124.579063 125.254844 124.579063 125.254844 124.579063 
z
" clip-path="url(#p18885882ff)" style="fill: #d9d9d9"/>
   </g>
   <g id="patch_29">
    <path d="M 125.254844 124.579063 
C 125.254844 124.579063 125.254844 124.579063 125.254844 124.579063 
C 125.254844 124.579063 125.254844 124.579063 125.254844 124.579063 
L 125.254844 124.579063 
C 125.254844 124.579063 125.254844 124.579063 125.254844 124.579063 
C 125.254844 124.579063 125.254844 124.579063 125.254844 124.579063 
z
" clip-path="url(#p18885882ff)" style="fill: #d9d9d9"/>
   </g>
   <g id="patch_30">
    <path d="M 125.254844 124.579063 
C 125.254844 124.579063 125.254844 124.579063 125.254844 124.579063 
C 125.254844 124.579063 125.254844 124.579063 125.254844 124.579063 
L 125.254844 124.579063 
C 125.254844 124.579063 125.254844 124.579063 125.254844 124.579063 
C 125.254844 124.579063 125.254844 124.579063 125.254844 124.579063 
z
" clip-path="url(#p18885882ff)" style="fill: #d9d9d9"/>
   </g>
   <g id="patch_31">
    <path d="M 125.254844 124.579063 
C 125.254844 124.579063 125.254844 124.579063 125.254844 124.579063 
C 125.254844 124.579063 125.254844 124.579063 125.254844 124.579063 
L 125.254844 124.579063 
C 125.254844 124.579063 125.254844 124.579063 125.254844 124.579063 
C 125.254844 124.579063 125.254844 124.579063 125.254844 124.579063 
z
" clip-path="url(#p18885882ff)" style="fill: #d9d9d9"/>
   </g>
   <g id="patch_32">
    <path d="M 125.254844 124.579063 
C 125.254844 124.579063 125.254844 124.579063 125.254844 124.579063 
C 125.254844 124.579063 125.254844 124.579063 125.254844 124.579063 
L 125.254844 124.579063 
C 125.254844 124.579063 125.254844 124.579063 125.254844 124.579063 
C 125.254844 124.579063 125.254844 124.579063 125.254844 124.579063 
z
" clip-path="url(#p18885882ff)" style="fill: #d9d9d9"/>
   </g>
   <g id="patch_33">
    <path d="M 125.254844 124.579063 
C 125.254844 124.579063 125.254844 124.579063 125.254844 124.579063 
C 125.254844 124.579063 125.254844 124.579063 125.254844 124.579063 
L 125.254844 124.579063 
C 125.254844 124.579063 125.254844 124.579063 125.254844 124.579063 
C 125.254844 124.579063 125.254844 124.579063 125.254844 124.579063 
z
" clip-path="url(#p18885882ff)" style="fill: #d9d9d9"/>
   </g>
   <g id="patch_34">
    <path d="M 125.254844 124.579063 
C 125.254844 124.579063 125.254844 124.579063 125.254844 124.579063 
C 125.254844 124.579063 125.254844 124.579063 125.254844 124.579063 
L 125.254844 124.579063 
C 125.254844 124.579063 125.254844 124.579063 125.254844 124.579063 
C 125.254844 124.579063 125.254844 124.579063 125.254844 124.579063 
z
" clip-path="url(#p18885882ff)" style="fill: #d9d9d9"/>
   </g>
   <g id="patch_35">
    <path d="M 125.254844 124.579063 
C 125.254844 124.579063 125.254844 124.579063 125.254844 124.579063 
C 125.254844 124.579063 125.254844 124.579063 125.254844 124.579063 
L 129.537333 81.098221 
C 128.11414 80.958049 126.684923 80.887836 125.254844 80.887836 
C 123.824765 80.887836 122.395548 80.958049 120.972355 81.098221 
z
" clip-path="url(#p18885882ff)" style="fill: #badbb8"/>
   </g>
   <g id="patch_36">
    <path d="M 125.254844 124.579063 
C 125.254844 124.579063 125.254844 124.579063 125.254844 124.579063 
C 125.254844 124.579063 125.254844 124.579063 125.254844 124.579063 
L 134.941564 92.646226 
C 133.896354 92.329165 132.836208 92.063612 131.764954 91.850527 
C 130.6937 91.637441 129.61263 91.47708 128.525649 91.370021 
z
" clip-path="url(#p18885882ff)" style="fill: #badbb8"/>
   </g>
   <g id="patch_37">
    <path d="M 125.254844 124.579063 
C 125.254844 124.579063 125.254844 124.579063 125.254844 124.579063 
C 125.254844 124.579063 125.254844 124.579063 125.254844 124.579063 
L 146.809201 84.253696 
C 145.489292 83.54819 144.135539 82.907912 142.752834 82.335177 
C 141.370129 81.762442 139.960137 81.257939 138.527952 80.82349 
z
" clip-path="url(#p18885882ff)" style="fill: #badbb8"/>
   </g>
   <g id="patch_38">
    <path d="M 125.254844 124.579063 
C 125.254844 124.579063 125.254844 124.579063 125.254844 124.579063 
C 125.254844 124.579063 125.254844 124.579063 125.254844 124.579063 
L 152.640307 91.209778 
C 151.548081 90.313411 150.412504 89.47121 149.237677 88.686216 
C 148.062851 87.901222 146.850191 87.174382 145.604079 86.508321 
z
" clip-path="url(#p18885882ff)" style="fill: #badbb8"/>
   </g>
   <g id="patch_39">
    <path d="M 125.254844 124.579063 
C 125.254844 124.579063 125.254844 124.579063 125.254844 124.579063 
C 125.254844 124.579063 125.254844 124.579063 125.254844 124.579063 
L 162.471731 94.035952 
C 161.47201 92.817788 160.413082 91.649441 159.298773 90.535133 
C 158.184465 89.420824 157.016118 88.361897 155.797954 87.362175 
z
" clip-path="url(#p18885882ff)" style="fill: #badbb8"/>
   </g>
   <g id="patch_40">
    <path d="M 125.254844 124.579063 
C 125.254844 124.579063 125.254844 124.579063 125.254844 124.579063 
C 125.254844 124.579063 125.254844 124.579063 125.254844 124.579063 
L 143.091797 115.045013 
C 142.779733 114.461182 142.439193 113.893026 142.071406 113.342595 
C 141.70362 112.792163 141.309031 112.260121 140.889064 111.74839 
z
" clip-path="url(#p18885882ff)" style="fill: #badbb8"/>
   </g>
   <g id="patch_41">
    <path d="M 125.254844 124.579063 
C 125.254844 124.579063 125.254844 124.579063 125.254844 124.579063 
C 125.254844 124.579063 125.254844 124.579063 125.254844 124.579063 
L 149.393799 117.25659 
C 149.154124 116.466486 148.875801 115.688626 148.559836 114.925819 
C 148.243871 114.163012 147.890644 113.416177 147.501432 112.688013 
z
" clip-path="url(#p18885882ff)" style="fill: #badbb8"/>
   </g>
   <g id="patch_42">
    <path d="M 125.254844 124.579063 
C 125.254844 124.579063 125.254844 124.579063 125.254844 124.579063 
C 125.254844 124.579063 125.254844 124.579063 125.254844 124.579063 
L 139.48729 123.177289 
C 139.441408 122.71144 139.372681 122.248124 139.281359 121.789015 
C 139.190037 121.329906 139.076228 120.875558 138.940345 120.427611 
z
" clip-path="url(#p18885882ff)" style="fill: #badbb8"/>
   </g>
   <g id="patch_43">
    <path d="M 125.254844 124.579063 
C 125.254844 124.579063 125.254844 124.579063 125.254844 124.579063 
C 125.254844 124.579063 125.254844 124.579063 125.254844 124.579063 
L 135.863083 125.623883 
C 135.897281 125.276659 135.914412 124.927966 135.914412 124.579063 
C 135.914412 124.230159 135.897281 123.881466 135.863083 123.534242 
z
" clip-path="url(#p18885882ff)" style="fill: #badbb8"/>
   </g>
   <g id="patch_44">
    <path d="M 125.254844 124.579063 
C 125.254844 124.579063 125.254844 124.579063 125.254844 124.579063 
C 125.254844 124.579063 125.254844 124.579063 125.254844 124.579063 
L 157.51188 134.364127 
C 157.83216 133.308306 158.100408 132.237397 158.315657 131.155267 
C 158.530906 130.073137 158.692896 128.981092 158.801041 127.883075 
z
" clip-path="url(#p18885882ff)" style="fill: #badbb8"/>
   </g>
   <g id="patch_45">
    <path d="M 125.254844 124.579063 
C 125.254844 124.579063 125.254844 124.579063 125.254844 124.579063 
C 125.254844 124.579063 125.254844 124.579063 125.254844 124.579063 
L 145.417527 135.356241 
C 145.77028 134.696287 146.090419 134.01941 146.376786 133.328058 
C 146.663154 132.636705 146.915406 131.931709 147.13263 131.215616 
z
" clip-path="url(#p18885882ff)" style="fill: #badbb8"/>
   </g>
   <g id="patch_46">
    <path d="M 125.254844 124.579063 
C 125.254844 124.579063 125.254844 124.579063 125.254844 124.579063 
C 125.254844 124.579063 125.254844 124.579063 125.254844 124.579063 
L 145.438535 141.14339 
C 145.98071 140.482747 146.490123 139.795884 146.964933 139.08528 
C 147.439743 138.374677 147.879378 137.641189 148.282251 136.887468 
z
" clip-path="url(#p18885882ff)" style="fill: #badbb8"/>
   </g>
   <g id="patch_47">
    <path d="M 125.254844 124.579063 
C 125.254844 124.579063 125.254844 124.579063 125.254844 124.579063 
C 125.254844 124.579063 125.254844 124.579063 125.254844 124.579063 
L 150.916189 155.847502 
C 151.939652 155.007568 152.921259 154.117891 153.857466 153.181685 
C 154.793672 152.245478 155.683349 151.263871 156.523284 150.240408 
z
" clip-path="url(#p18885882ff)" style="fill: #badbb8"/>
   </g>
   <g id="patch_48">
    <path d="M 125.254844 124.579063 
C 125.254844 124.579063 125.254844 124.579063 125.254844 124.579063 
C 125.254844 124.579063 125.254844 124.579063 125.254844 124.579063 
L 140.3295 152.781761 
C 141.252617 152.288345 142.150951 151.749904 143.02126 151.168383 
C 143.891568 150.586861 144.7328 149.962961 145.541919 149.298935 
z
" clip-path="url(#p18885882ff)" style="fill: #badbb8"/>
   </g>
   <g id="patch_49">
    <path d="M 125.254844 124.579063 
C 125.254844 124.579063 125.254844 124.579063 125.254844 124.579063 
C 125.254844 124.579063 125.254844 124.579063 125.254844 124.579063 
L 134.223004 154.143124 
C 135.19068 153.849583 136.14336 153.508709 137.077605 153.121732 
C 138.011849 152.734755 138.92653 152.302143 139.818346 151.825458 
z
" clip-path="url(#p18885882ff)" style="fill: #badbb8"/>
   </g>
   <g id="patch_50">
    <path d="M 125.254844 124.579063 
C 125.254844 124.579063 125.254844 124.579063 125.254844 124.579063 
C 125.254844 124.579063 125.254844 124.579063 125.254844 124.579063 
L 127.771104 150.127085 
C 128.607329 150.044724 129.439007 149.921357 130.263132 149.757428 
C 131.087258 149.593499 131.902838 149.389207 132.706927 149.145289 
z
" clip-path="url(#p18885882ff)" style="fill: #badbb8"/>
   </g>
   <g id="patch_51">
    <path d="M 125.254844 124.579063 
C 125.254844 124.579063 125.254844 124.579063 125.254844 124.579063 
C 125.254844 124.579063 125.254844 124.579063 125.254844 124.579063 
L 122.695567 150.563835 
C 123.546087 150.647604 124.400208 150.689565 125.254844 150.689565 
C 126.109479 150.689565 126.9636 150.647604 127.814121 150.563835 
z
" clip-path="url(#p18885882ff)" style="fill: #badbb8"/>
   </g>
   <g id="patch_52">
    <path d="M 125.254844 124.579063 
C 125.254844 124.579063 125.254844 124.579063 125.254844 124.579063 
C 125.254844 124.579063 125.254844 124.579063 125.254844 124.579063 
L 122.160535 134.779633 
C 122.494414 134.880914 122.833066 134.965742 123.175265 135.03381 
C 123.517465 135.101877 123.8628 135.153103 124.210023 135.187302 
z
" clip-path="url(#p18885882ff)" style="fill: #badbb8"/>
   </g>
   <g id="patch_53">
    <path d="M 125.254844 124.579063 
C 125.254844 124.579063 125.254844 124.579063 125.254844 124.579063 
C 125.254844 124.579063 125.254844 124.579063 125.254844 124.579063 
L 121.362584 131.860968 
C 121.600932 131.988367 121.845391 132.103988 122.095078 132.207412 
C 122.344765 132.310836 122.59938 132.401938 122.858002 132.48039 
z
" clip-path="url(#p18885882ff)" style="fill: #badbb8"/>
   </g>
   <g id="patch_54">
    <path d="M 125.254844 124.579063 
C 125.254844 124.579063 125.254844 124.579063 125.254844 124.579063 
C 125.254844 124.579063 125.254844 124.579063 125.254844 124.579063 
L 125.254844 124.579063 
C 125.254844 124.579063 125.254844 124.579063 125.254844 124.579063 
C 125.254844 124.579063 125.254844 124.579063 125.254844 124.579063 
z
" clip-path="url(#p18885882ff)" style="fill: #badbb8"/>
   </g>
   <g id="patch_55">
    <path d="M 125.254844 124.579063 
C 125.254844 124.579063 125.254844 124.579063 125.254844 124.579063 
C 125.254844 124.579063 125.254844 124.579063 125.254844 124.579063 
L 113.601784 134.142481 
C 113.914809 134.523903 114.246372 134.889727 114.595276 135.23863 
C 114.944179 135.587534 115.310003 135.919097 115.691425 136.232122 
z
" clip-path="url(#p18885882ff)" style="fill: #badbb8"/>
   </g>
   <g id="patch_56">
    <path d="M 125.254844 124.579063 
C 125.254844 124.579063 125.254844 124.579063 125.254844 124.579063 
C 125.254844 124.579063 125.254844 124.579063 125.254844 124.579063 
L 114.956674 130.083549 
C 115.136844 130.420623 115.333455 130.748649 115.545797 131.06644 
C 115.758138 131.384232 115.985955 131.691407 116.228423 131.986855 
z
" clip-path="url(#p18885882ff)" style="fill: #badbb8"/>
   </g>
   <g id="patch_57">
    <path d="M 125.254844 124.579063 
C 125.254844 124.579063 125.254844 124.579063 125.254844 124.579063 
C 125.254844 124.579063 125.254844 124.579063 125.254844 124.579063 
L 116.131176 127.346697 
C 116.221765 127.645328 116.326961 127.939332 116.446385 128.227646 
C 116.565808 128.51596 116.699315 128.798237 116.846424 129.073457 
z
" clip-path="url(#p18885882ff)" style="fill: #badbb8"/>
   </g>
   <g id="patch_58">
    <path d="M 125.254844 124.579063 
C 125.254844 124.579063 125.254844 124.579063 125.254844 124.579063 
C 125.254844 124.579063 125.254844 124.579063 125.254844 124.579063 
L 125.254844 124.579063 
C 125.254844 124.579063 125.254844 124.579063 125.254844 124.579063 
C 125.254844 124.579063 125.254844 124.579063 125.254844 124.579063 
z
" clip-path="url(#p18885882ff)" style="fill: #badbb8"/>
   </g>
   <g id="patch_59">
    <path d="M 125.254844 124.579063 
C 125.254844 124.579063 125.254844 124.579063 125.254844 124.579063 
C 125.254844 124.579063 125.254844 124.579063 125.254844 124.579063 
L 114.646605 123.534242 
C 114.612406 123.881466 114.595276 124.230159 114.595276 124.579063 
C 114.595276 124.927966 114.612406 125.276659 114.646605 125.623883 
z
" clip-path="url(#p18885882ff)" style="fill: #badbb8"/>
   </g>
   <g id="patch_60">
    <path d="M 125.254844 124.579063 
C 125.254844 124.579063 125.254844 124.579063 125.254844 124.579063 
C 125.254844 124.579063 125.254844 124.579063 125.254844 124.579063 
L 115.054273 121.484753 
C 114.952992 121.818633 114.868164 122.157284 114.800097 122.499484 
C 114.732029 122.841683 114.680803 123.187019 114.646605 123.534242 
z
" clip-path="url(#p18885882ff)" style="fill: #badbb8"/>
   </g>
   <g id="patch_61">
    <path d="M 125.254844 124.579063 
C 125.254844 124.579063 125.254844 124.579063 125.254844 124.579063 
C 125.254844 124.579063 125.254844 124.579063 125.254844 124.579063 
L 95.825373 108.848683 
C 95.310494 109.811953 94.84322 110.799922 94.425237 111.809021 
C 94.007255 112.81812 93.639068 113.847133 93.322007 114.892342 
z
" clip-path="url(#p18885882ff)" style="fill: #badbb8"/>
   </g>
   <g id="patch_62">
    <path d="M 125.254844 124.579063 
C 125.254844 124.579063 125.254844 124.579063 125.254844 124.579063 
C 125.254844 124.579063 125.254844 124.579063 125.254844 124.579063 
L 111.466758 113.263473 
C 111.096382 113.714777 110.748387 114.183995 110.424029 114.669429 
C 110.099672 115.154864 109.799344 115.655931 109.52413 116.170821 
z
" clip-path="url(#p18885882ff)" style="fill: #badbb8"/>
   </g>
   <g id="patch_63">
    <path d="M 125.254844 124.579063 
C 125.254844 124.579063 125.254844 124.579063 125.254844 124.579063 
C 125.254844 124.579063 125.254844 124.579063 125.254844 124.579063 
L 102.02538 96.273879 
C 101.098909 97.034214 100.210327 97.839578 99.362843 98.687062 
C 98.51536 99.534546 97.709996 100.423128 96.949661 101.349599 
z
" clip-path="url(#p18885882ff)" style="fill: #badbb8"/>
   </g>
   <g id="patch_64">
    <path d="M 125.254844 124.579063 
C 125.254844 124.579063 125.254844 124.579063 125.254844 124.579063 
C 125.254844 124.579063 125.254844 124.579063 125.254844 124.579063 
L 109.685805 95.451441 
C 108.732415 95.961038 107.804619 96.517138 106.905768 97.117731 
C 106.006918 97.718323 105.138097 98.362685 104.302443 99.048488 
z
" clip-path="url(#p18885882ff)" style="fill: #badbb8"/>
   </g>
   <g id="patch_65">
    <path d="M 125.254844 124.579063 
C 125.254844 124.579063 125.254844 124.579063 125.254844 124.579063 
C 125.254844 124.579063 125.254844 124.579063 125.254844 124.579063 
L 109.783298 73.57621 
C 108.113898 74.082617 106.470368 74.670682 104.858644 75.33828 
C 103.246919 76.005878 101.668944 76.752205 100.130416 77.574565 
z
" clip-path="url(#p18885882ff)" style="fill: #badbb8"/>
   </g>
   <g id="patch_66">
    <path d="M 125.254844 124.579063 
C 125.254844 124.579063 125.254844 124.579063 125.254844 124.579063 
C 125.254844 124.579063 125.254844 124.579063 125.254844 124.579063 
L 122.451297 96.11417 
C 121.519598 96.205934 120.592967 96.343387 119.674749 96.526032 
C 118.756531 96.708677 117.847835 96.936293 116.951941 97.20806 
z
" clip-path="url(#p18885882ff)" style="fill: #badbb8"/>
   </g>
   <g id="patch_67">
    <path d="M 120.972355 81.098221 
C 122.395548 80.958049 123.824765 80.887836 125.254844 80.887836 
C 126.684923 80.887836 128.11414 80.958049 129.537333 81.098221 
L 134.31531 32.586605 
C 131.304259 32.290042 128.280463 32.141493 125.254844 32.141493 
C 122.229224 32.141493 119.205428 32.290042 116.194378 32.586605 
z
" clip-path="url(#p18885882ff)" style="fill: #ff8c8e"/>
   </g>
   <g id="patch_68">
    <path d="M 128.525649 91.370021 
C 129.61263 91.47708 130.6937 91.637441 131.764954 91.850527 
C 132.836208 92.063612 133.896354 92.329165 134.941564 92.646226 
L 152.052348 36.239531 
C 149.160863 35.362409 146.228057 34.627779 143.264522 34.038295 
C 140.300988 33.448812 137.310297 33.005185 134.303253 32.709017 
z
" clip-path="url(#p18885882ff)" style="fill: #ff8c8e"/>
   </g>
   <g id="patch_69">
    <path d="M 138.527952 80.82349 
C 139.960137 81.257939 141.370129 81.762442 142.752834 82.335177 
C 144.135539 82.907912 145.489292 83.54819 146.809201 84.253696 
L 158.205222 62.933242 
C 156.187462 61.854726 154.117966 60.875928 152.004209 60.000381 
C 149.890453 59.124835 147.734983 58.353595 145.545586 57.689449 
z
" clip-path="url(#p18885882ff)" style="fill: #ff8c8e"/>
   </g>
   <g id="patch_70">
    <path d="M 145.604079 86.508321 
C 146.850191 87.174382 148.062851 87.901222 149.237677 88.686216 
C 150.412504 89.47121 151.548081 90.313411 152.640307 91.209778 
L 173.262825 66.081168 
C 171.348102 64.509795 169.357382 63.033377 167.297857 61.657246 
C 165.238332 60.281116 163.112484 59.006932 160.927992 57.839296 
z
" clip-path="url(#p18885882ff)" style="fill: #ff8c8e"/>
   </g>
   <g id="patch_71">
    <path d="M 155.797954 87.362175 
C 157.016118 88.361897 158.184465 89.420824 159.298773 90.535133 
C 160.413082 91.649441 161.47201 92.817788 162.471731 94.035952 
L 191.174503 70.480196 
C 189.403766 68.322548 187.528162 66.253137 185.554465 64.279441 
C 183.580769 62.305744 181.511359 60.43014 179.35371 58.659403 
z
" clip-path="url(#p18885882ff)" style="fill: #ff8c8e"/>
   </g>
   <g id="patch_72">
    <path d="M 140.889064 111.74839 
C 141.309031 112.260121 141.70362 112.792163 142.071406 113.342595 
C 142.439193 113.893026 142.779733 114.461182 143.091797 115.045013 
L 206.99403 80.888557 
C 205.563975 78.213112 204.003424 75.60949 202.318015 73.087098 
C 200.632606 70.564705 198.824371 68.126581 196.89984 65.781534 
z
" clip-path="url(#p18885882ff)" style="fill: #ff8c8e"/>
   </g>
   <g id="patch_73">
    <path d="M 147.501432 112.688013 
C 147.890644 113.416177 148.243871 114.163012 148.559836 114.925819 
C 148.875801 115.688626 149.154124 116.466486 149.393799 117.25659 
L 211.689256 98.35947 
C 210.831049 95.530343 209.834458 92.745056 208.703081 90.013671 
C 207.571704 87.282286 206.306906 84.608094 204.913254 82.000755 
z
" clip-path="url(#p18885882ff)" style="fill: #ff8c8e"/>
   </g>
   <g id="patch_74">
    <path d="M 138.940345 120.427611 
C 139.076228 120.875558 139.190037 121.329906 139.281359 121.789015 
C 139.372681 122.248124 139.441408 122.71144 139.48729 123.177289 
L 163.503394 120.811909 
C 163.380089 119.559977 163.195393 118.314853 162.949971 117.081035 
C 162.704549 115.847218 162.398699 114.626193 162.033524 113.422372 
z
" clip-path="url(#p18885882ff)" style="fill: #ff8c8e"/>
   </g>
   <g id="patch_75">
    <path d="M 135.863083 123.534242 
C 135.897281 123.881466 135.914412 124.230159 135.914412 124.579063 
C 135.914412 124.927966 135.897281 125.276659 135.863083 125.623883 
L 178.083449 129.782226 
C 178.253756 128.053067 178.339064 126.316588 178.339064 124.579063 
C 178.339064 122.841537 178.253756 121.105058 178.083449 119.375899 
z
" clip-path="url(#p18885882ff)" style="fill: #ff8c8e"/>
   </g>
   <g id="patch_76">
    <path d="M 158.801041 127.883075 
C 158.692896 128.981092 158.530906 130.073137 158.315657 131.155267 
C 158.100408 132.237397 157.83216 133.308306 157.51188 134.364127 
L 194.888214 145.702115 
C 195.579603 143.42291 196.158673 141.111135 196.623332 138.775137 
C 197.087991 136.43914 197.437678 134.081738 197.671132 131.711444 
z
" clip-path="url(#p18885882ff)" style="fill: #ff8c8e"/>
   </g>
   <g id="patch_77">
    <path d="M 147.13263 131.215616 
C 146.915406 131.931709 146.663154 132.636705 146.376786 133.328058 
C 146.090419 134.01941 145.77028 134.696287 145.417527 135.356241 
L 187.043861 157.60598 
C 188.124881 155.583533 189.105953 153.50923 189.983534 151.390564 
C 190.861114 149.271897 191.634145 147.111421 192.299834 144.916938 
z
" clip-path="url(#p18885882ff)" style="fill: #ff8c8e"/>
   </g>
   <g id="patch_78">
    <path d="M 148.282251 136.887468 
C 147.879378 137.641189 147.439743 138.374677 146.964933 139.08528 
C 146.490123 139.795884 145.98071 140.482747 145.438535 141.14339 
L 176.581247 166.701553 
C 177.959979 165.021563 179.255397 163.274894 180.462822 161.467854 
C 181.670247 159.660815 182.788224 157.795583 183.812714 155.878896 
z
" clip-path="url(#p18885882ff)" style="fill: #ff8c8e"/>
   </g>
   <g id="patch_79">
    <path d="M 156.523284 150.240408 
C 155.683349 151.263871 154.793672 152.245478 153.857466 153.181685 
C 152.921259 154.117891 151.939652 155.007568 150.916189 155.847502 
L 154.73128 160.496204 
C 155.906902 159.531396 157.034445 158.50945 158.109838 157.434057 
C 159.185231 156.358664 160.207178 155.23112 161.171985 154.055499 
z
" clip-path="url(#p18885882ff)" style="fill: #ff8c8e"/>
   </g>
   <g id="patch_80">
    <path d="M 145.541919 149.298935 
C 144.7328 149.962961 143.891568 150.586861 143.02126 151.168383 
C 142.150951 151.749904 141.252617 152.288345 140.3295 152.781761 
L 142.661558 157.144734 
C 143.727481 156.574986 144.764788 155.953248 145.769734 155.281765 
C 146.774679 154.610282 147.746051 153.889864 148.68034 153.123112 
z
" clip-path="url(#p18885882ff)" style="fill: #ff8c8e"/>
   </g>
   <g id="patch_81">
    <path d="M 139.818346 151.825458 
C 138.92653 152.302143 138.011849 152.734755 137.077605 153.121732 
C 136.14336 153.508709 135.19068 153.849583 134.223004 154.143124 
L 134.537771 155.180774 
C 135.539411 154.87693 136.525529 154.524091 137.492564 154.123532 
C 138.459598 153.722973 139.406384 153.275177 140.3295 152.781761 
z
" clip-path="url(#p18885882ff)" style="fill: #ff8c8e"/>
   </g>
   <g id="patch_82">
    <path d="M 132.706927 149.145289 
C 131.902838 149.389207 131.087258 149.593499 130.263132 149.757428 
C 129.439007 149.921357 128.607329 150.044724 127.771104 150.127085 
L 129.192029 164.553971 
C 130.500467 164.425101 131.80179 164.232068 133.091296 163.975569 
C 134.380803 163.71907 135.656938 163.399415 136.915094 163.017757 
z
" clip-path="url(#p18885882ff)" style="fill: #ff8c8e"/>
   </g>
   <g id="patch_83">
    <path d="M 127.814121 150.563835 
C 126.9636 150.647604 126.109479 150.689565 125.254844 150.689565 
C 124.400208 150.689565 123.546087 150.647604 122.695567 150.563835 
L 122.695567 150.563835 
C 123.546087 150.647604 124.400208 150.689565 125.254844 150.689565 
C 126.109479 150.689565 126.9636 150.647604 127.814121 150.563835 
z
" clip-path="url(#p18885882ff)" style="fill: #ff8c8e"/>
   </g>
   <g id="patch_84">
    <path d="M 124.210023 135.187302 
C 123.8628 135.153103 123.517465 135.101877 123.175265 135.03381 
C 122.833066 134.965742 122.494414 134.880914 122.160535 134.779633 
L 122.160535 134.779633 
C 122.494414 134.880914 122.833066 134.965742 123.175265 135.03381 
C 123.517465 135.101877 123.8628 135.153103 124.210023 135.187302 
z
" clip-path="url(#p18885882ff)" style="fill: #ff8c8e"/>
   </g>
   <g id="patch_85">
    <path d="M 122.858002 132.48039 
C 122.59938 132.401938 122.344765 132.310836 122.095078 132.207412 
C 121.845391 132.103988 121.600932 131.988367 121.362584 131.860968 
L 121.362584 131.860968 
C 121.600932 131.988367 121.845391 132.103988 122.095078 132.207412 
C 122.344765 132.310836 122.59938 132.401938 122.858002 132.48039 
z
" clip-path="url(#p18885882ff)" style="fill: #ff8c8e"/>
   </g>
   <g id="patch_86">
    <path d="M 125.254844 124.579063 
C 125.254844 124.579063 125.254844 124.579063 125.254844 124.579063 
C 125.254844 124.579063 125.254844 124.579063 125.254844 124.579063 
L 125.254844 124.579063 
C 125.254844 124.579063 125.254844 124.579063 125.254844 124.579063 
C 125.254844 124.579063 125.254844 124.579063 125.254844 124.579063 
z
" clip-path="url(#p18885882ff)" style="fill: #ff8c8e"/>
   </g>
   <g id="patch_87">
    <path d="M 115.691425 136.232122 
C 115.310003 135.919097 114.944179 135.587534 114.595276 135.23863 
C 114.246372 134.889727 113.914809 134.523903 113.601784 134.142481 
L 113.601784 134.142481 
C 113.914809 134.523903 114.246372 134.889727 114.595276 135.23863 
C 114.944179 135.587534 115.310003 135.919097 115.691425 136.232122 
z
" clip-path="url(#p18885882ff)" style="fill: #ff8c8e"/>
   </g>
   <g id="patch_88">
    <path d="M 116.228423 131.986855 
C 115.985955 131.691407 115.758138 131.384232 115.545797 131.06644 
C 115.333455 130.748649 115.136844 130.420623 114.956674 130.083549 
L 114.956674 130.083549 
C 115.136844 130.420623 115.333455 130.748649 115.545797 131.06644 
C 115.758138 131.384232 115.985955 131.691407 116.228423 131.986855 
z
" clip-path="url(#p18885882ff)" style="fill: #ff8c8e"/>
   </g>
   <g id="patch_89">
    <path d="M 116.846424 129.073457 
C 116.699315 128.798237 116.565808 128.51596 116.446385 128.227646 
C 116.326961 127.939332 116.221765 127.645328 116.131176 127.346697 
L 116.131176 127.346697 
C 116.221765 127.645328 116.326961 127.939332 116.446385 128.227646 
C 116.565808 128.51596 116.699315 128.798237 116.846424 129.073457 
z
" clip-path="url(#p18885882ff)" style="fill: #ff8c8e"/>
   </g>
   <g id="patch_90">
    <path d="M 125.254844 124.579063 
C 125.254844 124.579063 125.254844 124.579063 125.254844 124.579063 
C 125.254844 124.579063 125.254844 124.579063 125.254844 124.579063 
L 125.254844 124.579063 
C 125.254844 124.579063 125.254844 124.579063 125.254844 124.579063 
C 125.254844 124.579063 125.254844 124.579063 125.254844 124.579063 
z
" clip-path="url(#p18885882ff)" style="fill: #ff8c8e"/>
   </g>
   <g id="patch_91">
    <path d="M 114.646605 125.623883 
C 114.612406 125.276659 114.595276 124.927966 114.595276 124.579063 
C 114.595276 124.230159 114.612406 123.881466 114.646605 123.534242 
L 114.646605 123.534242 
C 114.612406 123.881466 114.595276 124.230159 114.595276 124.579063 
C 114.595276 124.927966 114.612406 125.276659 114.646605 125.623883 
z
" clip-path="url(#p18885882ff)" style="fill: #ff8c8e"/>
   </g>
   <g id="patch_92">
    <path d="M 114.646605 123.534242 
C 114.680803 123.187019 114.732029 122.841683 114.800097 122.499484 
C 114.868164 122.157284 114.952992 121.818633 115.054273 121.484753 
L 92.676834 114.696631 
C 92.353368 115.762958 92.082449 116.844524 91.865059 117.937421 
C 91.647668 119.030319 91.484066 120.133231 91.374845 121.242174 
z
" clip-path="url(#p18885882ff)" style="fill: #ff8c8e"/>
   </g>
   <g id="patch_93">
    <path d="M 93.322007 114.892342 
C 93.639068 113.847133 94.007255 112.81812 94.425237 111.809021 
C 94.84322 110.799922 95.310494 109.811953 95.825373 108.848683 
L 84.71091 102.907878 
C 84.00158 104.234942 83.357832 105.596032 82.781993 106.986231 
C 82.206153 108.376431 81.698915 109.794065 81.262112 111.234013 
z
" clip-path="url(#p18885882ff)" style="fill: #ff8c8e"/>
   </g>
   <g id="patch_94">
    <path d="M 109.52413 116.170821 
C 109.799344 115.655931 110.099672 115.154864 110.424029 114.669429 
C 110.748387 114.183995 111.096382 113.714777 111.466758 113.263473 
L 89.337702 95.102626 
C 88.372894 96.278248 87.466388 97.50053 86.621457 98.765059 
C 85.776526 100.029587 84.994189 101.334837 84.277273 102.676094 
z
" clip-path="url(#p18885882ff)" style="fill: #ff8c8e"/>
   </g>
   <g id="patch_95">
    <path d="M 96.949661 101.349599 
C 97.709996 100.423128 98.51536 99.534546 99.362843 98.687062 
C 100.210327 97.839578 101.098909 97.034214 102.02538 96.273879 
L 92.403421 84.549489 
C 91.093194 85.624765 89.836549 86.763721 88.638026 87.962244 
C 87.439503 89.160768 86.300546 90.417412 85.22527 91.72764 
z
" clip-path="url(#p18885882ff)" style="fill: #ff8c8e"/>
   </g>
   <g id="patch_96">
    <path d="M 104.302443 99.048488 
C 105.138097 98.362685 106.006918 97.718323 106.905768 97.117731 
C 107.804619 96.517138 108.732415 95.961038 109.685805 95.451441 
L 102.559265 82.118622 
C 101.169472 82.861482 99.816988 83.67213 98.5067 84.547636 
C 97.196412 85.423143 95.929898 86.362453 94.711734 87.362175 
z
" clip-path="url(#p18885882ff)" style="fill: #ff8c8e"/>
   </g>
   <g id="patch_97">
    <path d="M 100.130416 77.574565 
C 101.668944 76.752205 103.246919 76.005878 104.858644 75.33828 
C 106.470368 74.670682 108.113898 74.082617 109.783298 73.57621 
L 99.181731 38.627528 
C 96.368409 39.48094 93.598683 40.471964 90.882556 41.59702 
C 88.16643 42.722077 85.507178 43.979809 82.914406 45.365675 
z
" clip-path="url(#p18885882ff)" style="fill: #ff8c8e"/>
   </g>
   <g id="patch_98">
    <path d="M 116.951941 97.20806 
C 117.847835 96.936293 118.756531 96.708677 119.674749 96.526032 
C 120.592967 96.343387 121.519598 96.205934 122.451297 96.11417 
L 115.622076 26.77593 
C 112.420833 27.091225 109.237 27.563502 106.082077 28.191055 
C 102.927154 28.818609 99.804943 29.600682 96.726722 30.53445 
z
" clip-path="url(#p18885882ff)" style="fill: #ff8c8e"/>
   </g>
   <g id="patch_99">
    <path d="M 116.194378 32.586605 
C 119.205428 32.290042 122.229224 32.141493 125.254844 32.141493 
C 128.280463 32.141493 131.304259 32.290042 134.31531 32.586605 
L 134.31531 32.586605 
C 131.304259 32.290042 128.280463 32.141493 125.254844 32.141493 
C 122.229224 32.141493 119.205428 32.290042 116.194378 32.586605 
z
" clip-path="url(#p18885882ff)" style="fill: #828282"/>
   </g>
   <g id="patch_100">
    <path d="M 134.303253 32.709017 
C 137.310297 33.005185 140.300988 33.448812 143.264522 34.038295 
C 146.228057 34.627779 149.160863 35.362409 152.052348 36.239531 
L 153.343264 31.98395 
C 150.312488 31.064574 147.238399 30.294555 144.132103 29.676674 
C 141.025806 29.058793 137.891045 28.593795 134.739143 28.28336 
z
" clip-path="url(#p18885882ff)" style="fill: #828282"/>
   </g>
   <g id="patch_101">
    <path d="M 145.545586 57.689449 
C 147.734983 58.353595 149.890453 59.124835 152.004209 60.000381 
C 154.117966 60.875928 156.187462 61.854726 158.205222 62.933242 
L 158.9628 61.515911 
C 156.898649 60.412599 154.781573 59.411297 152.619218 58.51562 
C 150.456863 57.619943 148.251835 56.830972 146.012101 56.151556 
z
" clip-path="url(#p18885882ff)" style="fill: #828282"/>
   </g>
   <g id="patch_102">
    <path d="M 160.927992 57.839296 
C 163.112484 59.006932 165.238332 60.281116 167.297857 61.657246 
C 169.357382 63.033377 171.348102 64.509795 173.262825 66.081168 
L 176.75543 61.825417 
C 174.701409 60.139726 172.565864 58.555897 170.356508 57.079652 
C 168.147151 55.603408 165.866647 54.236526 163.523232 52.983944 
z
" clip-path="url(#p18885882ff)" style="fill: #828282"/>
   </g>
   <g id="patch_103">
    <path d="M 179.35371 58.659403 
C 181.511359 60.43014 183.580769 62.305744 185.554465 64.279441 
C 187.528162 66.253137 189.403766 68.322548 191.174503 70.480196 
L 198.214537 64.70259 
C 196.25469 62.31451 194.178777 60.024093 191.994295 57.839611 
C 189.809813 55.655129 187.519396 53.579216 185.131316 51.61937 
z
" clip-path="url(#p18885882ff)" style="fill: #828282"/>
   </g>
   <g id="patch_104">
    <path d="M 196.89984 65.781534 
C 198.824371 68.126581 200.632606 70.564705 202.318015 73.087098 
C 204.003424 75.60949 205.563975 78.213112 206.99403 80.888557 
L 217.364472 75.345441 
C 215.752982 72.330555 213.994441 69.396606 212.0952 66.554191 
C 210.195959 63.711777 208.158309 60.964323 205.989608 58.321754 
z
" clip-path="url(#p18885882ff)" style="fill: #828282"/>
   </g>
   <g id="patch_105">
    <path d="M 204.913254 82.000755 
C 206.306906 84.608094 207.571704 87.282286 208.703081 90.013671 
C 209.834458 92.745056 210.831049 95.530343 211.689256 98.35947 
L 231.360391 92.392297 
C 230.30687 88.919304 229.08347 85.500129 227.694609 82.147122 
C 226.305748 78.794116 224.753101 75.51132 223.042276 72.310591 
z
" clip-path="url(#p18885882ff)" style="fill: #828282"/>
   </g>
   <g id="patch_106">
    <path d="M 162.033524 113.422372 
C 162.398699 114.626193 162.704549 115.847218 162.949971 117.081035 
C 163.195393 118.314853 163.380089 119.559977 163.503394 120.811909 
L 184.319019 118.761749 
C 184.12861 116.82849 183.843398 114.905745 183.464413 113.000459 
C 183.085428 111.095173 182.613127 109.209643 182.049216 107.350678 
z
" clip-path="url(#p18885882ff)" style="fill: #828282"/>
   </g>
   <g id="patch_107">
    <path d="M 178.083449 119.375899 
C 178.253756 121.105058 178.339064 122.841537 178.339064 124.579063 
C 178.339064 126.316588 178.253756 128.053067 178.083449 129.782226 
L 184.887869 130.452403 
C 185.080112 128.500525 185.176408 126.540385 185.176408 124.579063 
C 185.176408 122.61774 185.080112 120.6576 184.887869 118.705722 
z
" clip-path="url(#p18885882ff)" style="fill: #828282"/>
   </g>
   <g id="patch_108">
    <path d="M 197.671132 131.711444 
C 197.437678 134.081738 197.087991 136.43914 196.623332 138.775137 
C 196.158673 141.111135 195.579603 143.42291 194.888214 145.702115 
L 204.399702 148.587393 
C 205.18553 145.996863 205.843697 143.369313 206.371826 140.714233 
C 206.899954 138.059153 207.297407 135.379744 207.562749 132.685684 
z
" clip-path="url(#p18885882ff)" style="fill: #828282"/>
   </g>
   <g id="patch_109">
    <path d="M 192.299834 144.916938 
C 191.634145 147.111421 190.861114 149.271897 189.983534 151.390564 
C 189.105953 153.50923 188.124881 155.583533 187.043861 157.60598 
L 193.694426 161.160781 
C 194.8918 158.920651 195.978468 156.623084 196.950506 154.276378 
C 197.922543 151.929672 198.778778 149.536656 199.516118 147.105974 
z
" clip-path="url(#p18885882ff)" style="fill: #828282"/>
   </g>
   <g id="patch_110">
    <path d="M 183.812714 155.878896 
C 182.788224 157.795583 181.670247 159.660815 180.462822 161.467854 
C 179.255397 163.274894 177.959979 165.021563 176.581247 166.701553 
L 184.674021 173.343121 
C 186.270142 171.398243 187.769812 169.376172 189.167615 167.284211 
C 190.565419 165.192251 191.85967 163.032923 193.045695 160.814027 
z
" clip-path="url(#p18885882ff)" style="fill: #828282"/>
   </g>
   <g id="patch_111">
    <path d="M 161.171985 154.055499 
C 160.207178 155.23112 159.185231 156.358664 158.109838 157.434057 
C 157.034445 158.50945 155.906902 159.531396 154.73128 160.496204 
L 163.027321 170.60496 
C 164.533818 169.36861 165.978705 168.059041 167.356763 166.680982 
C 168.734822 165.302923 170.044391 163.858036 171.280741 162.35154 
z
" clip-path="url(#p18885882ff)" style="fill: #828282"/>
   </g>
   <g id="patch_112">
    <path d="M 148.68034 153.123112 
C 147.746051 153.889864 146.774679 154.610282 145.769734 155.281765 
C 144.764788 155.953248 143.727481 156.574986 142.661558 157.144734 
L 150.97519 172.698446 
C 152.55021 171.856581 154.082946 170.937894 155.567864 169.945704 
C 157.052782 168.953513 158.488091 167.889015 159.868607 166.756055 
z
" clip-path="url(#p18885882ff)" style="fill: #828282"/>
   </g>
   <g id="patch_113">
    <path d="M 140.3295 152.781761 
C 139.406384 153.275177 138.459598 153.722973 137.492564 154.123532 
C 136.525529 154.524091 135.539411 154.87693 134.537771 155.180774 
L 136.151031 160.498978 
C 137.326743 160.142329 138.484237 159.728171 139.61933 159.258 
C 140.754424 158.787829 141.865749 158.262212 142.949292 157.683046 
z
" clip-path="url(#p18885882ff)" style="fill: #828282"/>
   </g>
   <g id="patch_114">
    <path d="M 136.915094 163.017757 
C 135.656938 163.399415 134.380803 163.71907 133.091296 163.975569 
C 131.80179 164.232068 130.500467 164.425101 129.192029 164.553971 
L 129.192029 164.553971 
C 130.500467 164.425101 131.80179 164.232068 133.091296 163.975569 
C 134.380803 163.71907 135.656938 163.399415 136.915094 163.017757 
z
" clip-path="url(#p18885882ff)" style="fill: #828282"/>
   </g>
   <g id="patch_115">
    <path d="M 127.814121 150.563835 
C 126.9636 150.647604 126.109479 150.689565 125.254844 150.689565 
C 124.400208 150.689565 123.546087 150.647604 122.695567 150.563835 
L 122.226667 155.32466 
C 123.233016 155.423777 124.243625 155.473425 125.254844 155.473425 
C 126.266062 155.473425 127.276672 155.423777 128.283021 155.32466 
z
" clip-path="url(#p18885882ff)" style="fill: #828282"/>
   </g>
   <g id="patch_116">
    <path d="M 124.210023 135.187302 
C 123.8628 135.153103 123.517465 135.101877 123.175265 135.03381 
C 122.833066 134.965742 122.494414 134.880914 122.160535 134.779633 
L 122.160535 134.779633 
C 122.494414 134.880914 122.833066 134.965742 123.175265 135.03381 
C 123.517465 135.101877 123.8628 135.153103 124.210023 135.187302 
z
" clip-path="url(#p18885882ff)" style="fill: #828282"/>
   </g>
   <g id="patch_117">
    <path d="M 122.858002 132.48039 
C 122.59938 132.401938 122.344765 132.310836 122.095078 132.207412 
C 121.845391 132.103988 121.600932 131.988367 121.362584 131.860968 
L 117.801734 138.52285 
C 118.258135 138.766801 118.726238 138.988198 119.204353 139.186239 
C 119.682468 139.384281 120.170018 139.558729 120.665241 139.708954 
z
" clip-path="url(#p18885882ff)" style="fill: #828282"/>
   </g>
   <g id="patch_118">
    <path d="M 125.254844 124.579063 
C 125.254844 124.579063 125.254844 124.579063 125.254844 124.579063 
C 125.254844 124.579063 125.254844 124.579063 125.254844 124.579063 
L 125.254844 124.579063 
C 125.254844 124.579063 125.254844 124.579063 125.254844 124.579063 
C 125.254844 124.579063 125.254844 124.579063 125.254844 124.579063 
z
" clip-path="url(#p18885882ff)" style="fill: #828282"/>
   </g>
   <g id="patch_119">
    <path d="M 115.691425 136.232122 
C 115.310003 135.919097 114.944179 135.587534 114.595276 135.23863 
C 114.246372 134.889727 113.914809 134.523903 113.601784 134.142481 
L 113.601784 134.142481 
C 113.914809 134.523903 114.246372 134.889727 114.595276 135.23863 
C 114.944179 135.587534 115.310003 135.919097 115.691425 136.232122 
z
" clip-path="url(#p18885882ff)" style="fill: #828282"/>
   </g>
   <g id="patch_120">
    <path d="M 116.228423 131.986855 
C 115.985955 131.691407 115.758138 131.384232 115.545797 131.06644 
C 115.333455 130.748649 115.136844 130.420623 114.956674 130.083549 
L 114.956674 130.083549 
C 115.136844 130.420623 115.333455 130.748649 115.545797 131.06644 
C 115.758138 131.384232 115.985955 131.691407 116.228423 131.986855 
z
" clip-path="url(#p18885882ff)" style="fill: #828282"/>
   </g>
   <g id="patch_121">
    <path d="M 116.846424 129.073457 
C 116.699315 128.798237 116.565808 128.51596 116.446385 128.227646 
C 116.326961 127.939332 116.221765 127.645328 116.131176 127.346697 
L 116.131176 127.346697 
C 116.221765 127.645328 116.326961 127.939332 116.446385 128.227646 
C 116.565808 128.51596 116.699315 128.798237 116.846424 129.073457 
z
" clip-path="url(#p18885882ff)" style="fill: #828282"/>
   </g>
   <g id="patch_122">
    <path d="M 125.254844 124.579063 
C 125.254844 124.579063 125.254844 124.579063 125.254844 124.579063 
C 125.254844 124.579063 125.254844 124.579063 125.254844 124.579063 
L 125.254844 124.579063 
C 125.254844 124.579063 125.254844 124.579063 125.254844 124.579063 
C 125.254844 124.579063 125.254844 124.579063 125.254844 124.579063 
z
" clip-path="url(#p18885882ff)" style="fill: #828282"/>
   </g>
   <g id="patch_123">
    <path d="M 114.646605 125.623883 
C 114.612406 125.276659 114.595276 124.927966 114.595276 124.579063 
C 114.595276 124.230159 114.612406 123.881466 114.646605 123.534242 
L 114.646605 123.534242 
C 114.612406 123.881466 114.595276 124.230159 114.595276 124.579063 
C 114.595276 124.927966 114.612406 125.276659 114.646605 125.623883 
z
" clip-path="url(#p18885882ff)" style="fill: #828282"/>
   </g>
   <g id="patch_124">
    <path d="M 91.374845 121.242174 
C 91.484066 120.133231 91.647668 119.030319 91.865059 117.937421 
C 92.082449 116.844524 92.353368 115.762958 92.676834 114.696631 
L 92.676834 114.696631 
C 92.353368 115.762958 92.082449 116.844524 91.865059 117.937421 
C 91.647668 119.030319 91.484066 120.133231 91.374845 121.242174 
z
" clip-path="url(#p18885882ff)" style="fill: #828282"/>
   </g>
   <g id="patch_125">
    <path d="M 81.262112 111.234013 
C 81.698915 109.794065 82.206153 108.376431 82.781993 106.986231 
C 83.357832 105.596032 84.00158 104.234942 84.71091 102.907878 
L 84.71091 102.907878 
C 84.00158 104.234942 83.357832 105.596032 82.781993 106.986231 
C 82.206153 108.376431 81.698915 109.794065 81.262112 111.234013 
z
" clip-path="url(#p18885882ff)" style="fill: #828282"/>
   </g>
   <g id="patch_126">
    <path d="M 84.277273 102.676094 
C 84.994189 101.334837 85.776526 100.029587 86.621457 98.765059 
C 87.466388 97.50053 88.372894 96.278248 89.337702 95.102626 
L 89.337702 95.102626 
C 88.372894 96.278248 87.466388 97.50053 86.621457 98.765059 
C 85.776526 100.029587 84.994189 101.334837 84.277273 102.676094 
z
" clip-path="url(#p18885882ff)" style="fill: #828282"/>
   </g>
   <g id="patch_127">
    <path d="M 85.22527 91.72764 
C 86.300546 90.417412 87.439503 89.160768 88.638026 87.962244 
C 89.836549 86.763721 91.093194 85.624765 92.403421 84.549489 
L 92.403421 84.549489 
C 91.093194 85.624765 89.836549 86.763721 88.638026 87.962244 
C 87.439503 89.160768 86.300546 90.417412 85.22527 91.72764 
z
" clip-path="url(#p18885882ff)" style="fill: #828282"/>
   </g>
   <g id="patch_128">
    <path d="M 94.711734 87.362175 
C 95.929898 86.362453 97.196412 85.423143 98.5067 84.547636 
C 99.816988 83.67213 101.169472 82.861482 102.559265 82.118622 
L 102.559265 82.118622 
C 101.169472 82.861482 99.816988 83.67213 98.5067 84.547636 
C 97.196412 85.423143 95.929898 86.362453 94.711734 87.362175 
z
" clip-path="url(#p18885882ff)" style="fill: #828282"/>
   </g>
   <g id="patch_129">
    <path d="M 82.914406 45.365675 
C 85.507178 43.979809 88.16643 42.722077 90.882556 41.59702 
C 93.598683 40.471964 96.368409 39.48094 99.181731 38.627528 
L 99.181731 38.627528 
C 96.368409 39.48094 93.598683 40.471964 90.882556 41.59702 
C 88.16643 42.722077 85.507178 43.979809 82.914406 45.365675 
z
" clip-path="url(#p18885882ff)" style="fill: #828282"/>
   </g>
   <g id="patch_130">
    <path d="M 96.726722 30.53445 
C 99.804943 29.600682 102.927154 28.818609 106.082077 28.191055 
C 109.237 27.563502 112.420833 27.091225 115.622076 26.77593 
L 115.622076 26.77593 
C 112.420833 27.091225 109.237 27.563502 106.082077 28.191055 
C 102.927154 28.818609 99.804943 29.600682 96.726722 30.53445 
z
" clip-path="url(#p18885882ff)" style="fill: #828282"/>
   </g>
   <g id="patch_131">
    <path d="M 125.254844 124.579063 
C 125.254844 124.579063 125.254844 124.579063 125.254844 124.579063 
C 125.254844 124.579063 125.254844 124.579063 125.254844 124.579063 
L 134.31531 32.586605 
C 131.304259 32.290042 128.280463 32.141493 125.254844 32.141493 
C 122.229224 32.141493 119.205428 32.290042 116.194378 32.586605 
L 125.254844 124.579063 
z
" clip-path="url(#p18885882ff)" style="fill: none; stroke: #292929; stroke-width: 0.5; stroke-linejoin: miter"/>
   </g>
   <g id="patch_132">
    <path d="M 125.254844 124.579063 
C 125.254844 124.579063 125.254844 124.579063 125.254844 124.579063 
C 125.254844 124.579063 125.254844 124.579063 125.254844 124.579063 
L 153.343264 31.98395 
C 150.312488 31.064574 147.238399 30.294555 144.132103 29.676674 
C 141.025806 29.058793 137.891045 28.593795 134.739143 28.28336 
L 125.254844 124.579063 
z
" clip-path="url(#p18885882ff)" style="fill: none; stroke: #292929; stroke-width: 0.5; stroke-linejoin: miter"/>
   </g>
   <g id="patch_133">
    <path d="M 125.254844 124.579063 
C 125.254844 124.579063 125.254844 124.579063 125.254844 124.579063 
C 125.254844 124.579063 125.254844 124.579063 125.254844 124.579063 
L 158.9628 61.515911 
C 156.898649 60.412599 154.781573 59.411297 152.619218 58.51562 
C 150.456863 57.619943 148.251835 56.830972 146.012101 56.151556 
L 125.254844 124.579063 
z
" clip-path="url(#p18885882ff)" style="fill: none; stroke: #292929; stroke-width: 0.5; stroke-linejoin: miter"/>
   </g>
   <g id="patch_134">
    <path d="M 125.254844 124.579063 
C 125.254844 124.579063 125.254844 124.579063 125.254844 124.579063 
C 125.254844 124.579063 125.254844 124.579063 125.254844 124.579063 
L 176.75543 61.825417 
C 174.701409 60.139726 172.565864 58.555897 170.356508 57.079652 
C 168.147151 55.603408 165.866647 54.236526 163.523232 52.983944 
L 125.254844 124.579063 
z
" clip-path="url(#p18885882ff)" style="fill: none; stroke: #292929; stroke-width: 0.5; stroke-linejoin: miter"/>
   </g>
   <g id="patch_135">
    <path d="M 125.254844 124.579063 
C 125.254844 124.579063 125.254844 124.579063 125.254844 124.579063 
C 125.254844 124.579063 125.254844 124.579063 125.254844 124.579063 
L 198.214537 64.70259 
C 196.25469 62.31451 194.178777 60.024093 191.994295 57.839611 
C 189.809813 55.655129 187.519396 53.579216 185.131316 51.61937 
L 125.254844 124.579063 
z
" clip-path="url(#p18885882ff)" style="fill: none; stroke: #292929; stroke-width: 0.5; stroke-linejoin: miter"/>
   </g>
   <g id="patch_136">
    <path d="M 125.254844 124.579063 
C 125.254844 124.579063 125.254844 124.579063 125.254844 124.579063 
C 125.254844 124.579063 125.254844 124.579063 125.254844 124.579063 
L 217.364472 75.345441 
C 215.752982 72.330555 213.994441 69.396606 212.0952 66.554191 
C 210.195959 63.711777 208.158309 60.964323 205.989608 58.321754 
L 125.254844 124.579063 
z
" clip-path="url(#p18885882ff)" style="fill: none; stroke: #292929; stroke-width: 0.5; stroke-linejoin: miter"/>
   </g>
   <g id="patch_137">
    <path d="M 125.254844 124.579063 
C 125.254844 124.579063 125.254844 124.579063 125.254844 124.579063 
C 125.254844 124.579063 125.254844 124.579063 125.254844 124.579063 
L 231.360391 92.392297 
C 230.30687 88.919304 229.08347 85.500129 227.694609 82.147122 
C 226.305748 78.794116 224.753101 75.51132 223.042276 72.310591 
L 125.254844 124.579063 
z
" clip-path="url(#p18885882ff)" style="fill: none; stroke: #292929; stroke-width: 0.5; stroke-linejoin: miter"/>
   </g>
   <g id="patch_138">
    <path d="M 125.254844 124.579063 
C 125.254844 124.579063 125.254844 124.579063 125.254844 124.579063 
C 125.254844 124.579063 125.254844 124.579063 125.254844 124.579063 
L 184.319019 118.761749 
C 184.12861 116.82849 183.843398 114.905745 183.464413 113.000459 
C 183.085428 111.095173 182.613127 109.209643 182.049216 107.350678 
L 125.254844 124.579063 
z
" clip-path="url(#p18885882ff)" style="fill: none; stroke: #292929; stroke-width: 0.5; stroke-linejoin: miter"/>
   </g>
   <g id="patch_139">
    <path d="M 125.254844 124.579063 
C 125.254844 124.579063 125.254844 124.579063 125.254844 124.579063 
C 125.254844 124.579063 125.254844 124.579063 125.254844 124.579063 
L 184.887869 130.452403 
C 185.080112 128.500525 185.176408 126.540385 185.176408 124.579063 
C 185.176408 122.61774 185.080112 120.6576 184.887869 118.705722 
L 125.254844 124.579063 
z
" clip-path="url(#p18885882ff)" style="fill: none; stroke: #292929; stroke-width: 0.5; stroke-linejoin: miter"/>
   </g>
   <g id="patch_140">
    <path d="M 125.254844 124.579063 
C 125.254844 124.579063 125.254844 124.579063 125.254844 124.579063 
C 125.254844 124.579063 125.254844 124.579063 125.254844 124.579063 
L 204.399702 148.587393 
C 205.18553 145.996863 205.843697 143.369313 206.371826 140.714233 
C 206.899954 138.059153 207.297407 135.379744 207.562749 132.685684 
L 125.254844 124.579063 
z
" clip-path="url(#p18885882ff)" style="fill: none; stroke: #292929; stroke-width: 0.5; stroke-linejoin: miter"/>
   </g>
   <g id="patch_141">
    <path d="M 125.254844 124.579063 
C 125.254844 124.579063 125.254844 124.579063 125.254844 124.579063 
C 125.254844 124.579063 125.254844 124.579063 125.254844 124.579063 
L 193.694426 161.160781 
C 194.8918 158.920651 195.978468 156.623084 196.950506 154.276378 
C 197.922543 151.929672 198.778778 149.536656 199.516118 147.105974 
L 125.254844 124.579063 
z
" clip-path="url(#p18885882ff)" style="fill: none; stroke: #292929; stroke-width: 0.5; stroke-linejoin: miter"/>
   </g>
   <g id="patch_142">
    <path d="M 125.254844 124.579063 
C 125.254844 124.579063 125.254844 124.579063 125.254844 124.579063 
C 125.254844 124.579063 125.254844 124.579063 125.254844 124.579063 
L 184.674021 173.343121 
C 186.270142 171.398243 187.769812 169.376172 189.167615 167.284211 
C 190.565419 165.192251 191.85967 163.032923 193.045695 160.814027 
L 125.254844 124.579063 
z
" clip-path="url(#p18885882ff)" style="fill: none; stroke: #292929; stroke-width: 0.5; stroke-linejoin: miter"/>
   </g>
   <g id="patch_143">
    <path d="M 125.254844 124.579063 
C 125.254844 124.579063 125.254844 124.579063 125.254844 124.579063 
C 125.254844 124.579063 125.254844 124.579063 125.254844 124.579063 
L 163.027321 170.60496 
C 164.533818 169.36861 165.978705 168.059041 167.356763 166.680982 
C 168.734822 165.302923 170.044391 163.858036 171.280741 162.35154 
L 125.254844 124.579063 
z
" clip-path="url(#p18885882ff)" style="fill: none; stroke: #292929; stroke-width: 0.5; stroke-linejoin: miter"/>
   </g>
   <g id="patch_144">
    <path d="M 125.254844 124.579063 
C 125.254844 124.579063 125.254844 124.579063 125.254844 124.579063 
C 125.254844 124.579063 125.254844 124.579063 125.254844 124.579063 
L 150.97519 172.698446 
C 152.55021 171.856581 154.082946 170.937894 155.567864 169.945704 
C 157.052782 168.953513 158.488091 167.889015 159.868607 166.756055 
L 125.254844 124.579063 
z
" clip-path="url(#p18885882ff)" style="fill: none; stroke: #292929; stroke-width: 0.5; stroke-linejoin: miter"/>
   </g>
   <g id="patch_145">
    <path d="M 125.254844 124.579063 
C 125.254844 124.579063 125.254844 124.579063 125.254844 124.579063 
C 125.254844 124.579063 125.254844 124.579063 125.254844 124.579063 
L 136.151031 160.498978 
C 137.326743 160.142329 138.484237 159.728171 139.61933 159.258 
C 140.754424 158.787829 141.865749 158.262212 142.949292 157.683046 
L 125.254844 124.579063 
z
" clip-path="url(#p18885882ff)" style="fill: none; stroke: #292929; stroke-width: 0.5; stroke-linejoin: miter"/>
   </g>
   <g id="patch_146">
    <path d="M 125.254844 124.579063 
C 125.254844 124.579063 125.254844 124.579063 125.254844 124.579063 
C 125.254844 124.579063 125.254844 124.579063 125.254844 124.579063 
L 129.192029 164.553971 
C 130.500467 164.425101 131.80179 164.232068 133.091296 163.975569 
C 134.380803 163.71907 135.656938 163.399415 136.915094 163.017757 
L 125.254844 124.579063 
z
" clip-path="url(#p18885882ff)" style="fill: none; stroke: #292929; stroke-width: 0.5; stroke-linejoin: miter"/>
   </g>
   <g id="patch_147">
    <path d="M 125.254844 124.579063 
C 125.254844 124.579063 125.254844 124.579063 125.254844 124.579063 
C 125.254844 124.579063 125.254844 124.579063 125.254844 124.579063 
L 122.226667 155.32466 
C 123.233016 155.423777 124.243625 155.473425 125.254844 155.473425 
C 126.266062 155.473425 127.276672 155.423777 128.283021 155.32466 
L 125.254844 124.579063 
z
" clip-path="url(#p18885882ff)" style="fill: none; stroke: #292929; stroke-width: 0.5; stroke-linejoin: miter"/>
   </g>
   <g id="patch_148">
    <path d="M 125.254844 124.579063 
C 125.254844 124.579063 125.254844 124.579063 125.254844 124.579063 
C 125.254844 124.579063 125.254844 124.579063 125.254844 124.579063 
L 122.160535 134.779633 
C 122.494414 134.880914 122.833066 134.965742 123.175265 135.03381 
C 123.517465 135.101877 123.8628 135.153103 124.210023 135.187302 
L 125.254844 124.579063 
z
" clip-path="url(#p18885882ff)" style="fill: none; stroke: #292929; stroke-width: 0.5; stroke-linejoin: miter"/>
   </g>
   <g id="patch_149">
    <path d="M 125.254844 124.579063 
C 125.254844 124.579063 125.254844 124.579063 125.254844 124.579063 
C 125.254844 124.579063 125.254844 124.579063 125.254844 124.579063 
L 117.801734 138.52285 
C 118.258135 138.766801 118.726238 138.988198 119.204353 139.186239 
C 119.682468 139.384281 120.170018 139.558729 120.665241 139.708954 
L 125.254844 124.579063 
z
" clip-path="url(#p18885882ff)" style="fill: none; stroke: #292929; stroke-width: 0.5; stroke-linejoin: miter"/>
   </g>
   <g id="patch_150">
    <path d="M 125.254844 124.579063 
C 125.254844 124.579063 125.254844 124.579063 125.254844 124.579063 
C 125.254844 124.579063 125.254844 124.579063 125.254844 124.579063 
L 125.254844 124.579063 
C 125.254844 124.579063 125.254844 124.579063 125.254844 124.579063 
C 125.254844 124.579063 125.254844 124.579063 125.254844 124.579063 
L 125.254844 124.579063 
z
" clip-path="url(#p18885882ff)" style="fill: none; stroke: #292929; stroke-width: 0.5; stroke-linejoin: miter"/>
   </g>
   <g id="patch_151">
    <path d="M 125.254844 124.579063 
C 125.254844 124.579063 125.254844 124.579063 125.254844 124.579063 
C 125.254844 124.579063 125.254844 124.579063 125.254844 124.579063 
L 113.601784 134.142481 
C 113.914809 134.523903 114.246372 134.889727 114.595276 135.23863 
C 114.944179 135.587534 115.310003 135.919097 115.691425 136.232122 
L 125.254844 124.579063 
z
" clip-path="url(#p18885882ff)" style="fill: none; stroke: #292929; stroke-width: 0.5; stroke-linejoin: miter"/>
   </g>
   <g id="patch_152">
    <path d="M 125.254844 124.579063 
C 125.254844 124.579063 125.254844 124.579063 125.254844 124.579063 
C 125.254844 124.579063 125.254844 124.579063 125.254844 124.579063 
L 114.956674 130.083549 
C 115.136844 130.420623 115.333455 130.748649 115.545797 131.06644 
C 115.758138 131.384232 115.985955 131.691407 116.228423 131.986855 
L 125.254844 124.579063 
z
" clip-path="url(#p18885882ff)" style="fill: none; stroke: #292929; stroke-width: 0.5; stroke-linejoin: miter"/>
   </g>
   <g id="patch_153">
    <path d="M 125.254844 124.579063 
C 125.254844 124.579063 125.254844 124.579063 125.254844 124.579063 
C 125.254844 124.579063 125.254844 124.579063 125.254844 124.579063 
L 116.131176 127.346697 
C 116.221765 127.645328 116.326961 127.939332 116.446385 128.227646 
C 116.565808 128.51596 116.699315 128.798237 116.846424 129.073457 
L 125.254844 124.579063 
z
" clip-path="url(#p18885882ff)" style="fill: none; stroke: #292929; stroke-width: 0.5; stroke-linejoin: miter"/>
   </g>
   <g id="patch_154">
    <path d="M 125.254844 124.579063 
C 125.254844 124.579063 125.254844 124.579063 125.254844 124.579063 
C 125.254844 124.579063 125.254844 124.579063 125.254844 124.579063 
L 125.254844 124.579063 
C 125.254844 124.579063 125.254844 124.579063 125.254844 124.579063 
C 125.254844 124.579063 125.254844 124.579063 125.254844 124.579063 
L 125.254844 124.579063 
z
" clip-path="url(#p18885882ff)" style="fill: none; stroke: #292929; stroke-width: 0.5; stroke-linejoin: miter"/>
   </g>
   <g id="patch_155">
    <path d="M 125.254844 124.579063 
C 125.254844 124.579063 125.254844 124.579063 125.254844 124.579063 
C 125.254844 124.579063 125.254844 124.579063 125.254844 124.579063 
L 114.646605 123.534242 
C 114.612406 123.881466 114.595276 124.230159 114.595276 124.579063 
C 114.595276 124.927966 114.612406 125.276659 114.646605 125.623883 
L 125.254844 124.579063 
z
" clip-path="url(#p18885882ff)" style="fill: none; stroke: #292929; stroke-width: 0.5; stroke-linejoin: miter"/>
   </g>
   <g id="patch_156">
    <path d="M 125.254844 124.579063 
C 125.254844 124.579063 125.254844 124.579063 125.254844 124.579063 
C 125.254844 124.579063 125.254844 124.579063 125.254844 124.579063 
L 92.676834 114.696631 
C 92.353368 115.762958 92.082449 116.844524 91.865059 117.937421 
C 91.647668 119.030319 91.484066 120.133231 91.374845 121.242174 
L 125.254844 124.579063 
z
" clip-path="url(#p18885882ff)" style="fill: none; stroke: #292929; stroke-width: 0.5; stroke-linejoin: miter"/>
   </g>
   <g id="patch_157">
    <path d="M 125.254844 124.579063 
C 125.254844 124.579063 125.254844 124.579063 125.254844 124.579063 
C 125.254844 124.579063 125.254844 124.579063 125.254844 124.579063 
L 84.71091 102.907878 
C 84.00158 104.234942 83.357832 105.596032 82.781993 106.986231 
C 82.206153 108.376431 81.698915 109.794065 81.262112 111.234013 
L 125.254844 124.579063 
z
" clip-path="url(#p18885882ff)" style="fill: none; stroke: #292929; stroke-width: 0.5; stroke-linejoin: miter"/>
   </g>
   <g id="patch_158">
    <path d="M 125.254844 124.579063 
C 125.254844 124.579063 125.254844 124.579063 125.254844 124.579063 
C 125.254844 124.579063 125.254844 124.579063 125.254844 124.579063 
L 89.337702 95.102626 
C 88.372894 96.278248 87.466388 97.50053 86.621457 98.765059 
C 85.776526 100.029587 84.994189 101.334837 84.277273 102.676094 
L 125.254844 124.579063 
z
" clip-path="url(#p18885882ff)" style="fill: none; stroke: #292929; stroke-width: 0.5; stroke-linejoin: miter"/>
   </g>
   <g id="patch_159">
    <path d="M 125.254844 124.579063 
C 125.254844 124.579063 125.254844 124.579063 125.254844 124.579063 
C 125.254844 124.579063 125.254844 124.579063 125.254844 124.579063 
L 92.403421 84.549489 
C 91.093194 85.624765 89.836549 86.763721 88.638026 87.962244 
C 87.439503 89.160768 86.300546 90.417412 85.22527 91.72764 
L 125.254844 124.579063 
z
" clip-path="url(#p18885882ff)" style="fill: none; stroke: #292929; stroke-width: 0.5; stroke-linejoin: miter"/>
   </g>
   <g id="patch_160">
    <path d="M 125.254844 124.579063 
C 125.254844 124.579063 125.254844 124.579063 125.254844 124.579063 
C 125.254844 124.579063 125.254844 124.579063 125.254844 124.579063 
L 102.559265 82.118622 
C 101.169472 82.861482 99.816988 83.67213 98.5067 84.547636 
C 97.196412 85.423143 95.929898 86.362453 94.711734 87.362175 
L 125.254844 124.579063 
z
" clip-path="url(#p18885882ff)" style="fill: none; stroke: #292929; stroke-width: 0.5; stroke-linejoin: miter"/>
   </g>
   <g id="patch_161">
    <path d="M 125.254844 124.579063 
C 125.254844 124.579063 125.254844 124.579063 125.254844 124.579063 
C 125.254844 124.579063 125.254844 124.579063 125.254844 124.579063 
L 99.181731 38.627528 
C 96.368409 39.48094 93.598683 40.471964 90.882556 41.59702 
C 88.16643 42.722077 85.507178 43.979809 82.914406 45.365675 
L 125.254844 124.579063 
z
" clip-path="url(#p18885882ff)" style="fill: none; stroke: #292929; stroke-width: 0.5; stroke-linejoin: miter"/>
   </g>
   <g id="patch_162">
    <path d="M 125.254844 124.579063 
C 125.254844 124.579063 125.254844 124.579063 125.254844 124.579063 
C 125.254844 124.579063 125.254844 124.579063 125.254844 124.579063 
L 115.622076 26.77593 
C 112.420833 27.091225 109.237 27.563502 106.082077 28.191055 
C 102.927154 28.818609 99.804943 29.600682 96.726722 30.53445 
L 125.254844 124.579063 
z
" clip-path="url(#p18885882ff)" style="fill: none; stroke: #292929; stroke-width: 0.5; stroke-linejoin: miter"/>
   </g>
   <g id="PathCollection_1">
    <defs>
     <path id="m58ed387474" d="M 0.193618 7.414054 
L 0.193618 7.414054 
C 0.054922 7.414054 -0.078235 7.358899 -0.176308 7.260826 
C -0.274381 7.162753 -0.329536 7.029596 -0.329536 6.890901 
L -0.329536 5.365008 
L -1.528416 6.56393 
L -1.528416 6.56393 
C -1.577018 6.612704 -1.634775 6.651408 -1.698366 6.677814 
C -1.761958 6.704221 -1.830141 6.717815 -1.898997 6.717815 
C -1.967853 6.717815 -2.036037 6.704221 -2.099628 6.677814 
C -2.163219 6.651408 -2.220976 6.612704 -2.269578 6.56393 
L -2.269578 6.56393 
C -2.318353 6.515327 -2.357056 6.457571 -2.383463 6.393979 
C -2.409869 6.330388 -2.423463 6.262205 -2.423463 6.193348 
C -2.423463 6.124492 -2.409869 6.056309 -2.383463 5.992718 
C -2.357056 5.929126 -2.318353 5.87137 -2.269578 5.822767 
L -0.329536 3.884106 
L -0.329536 0.820937 
L -2.98067 2.351538 
L -3.691824 5.001416 
L -3.691824 5.001416 
C -3.727584 5.135411 -3.815199 5.249836 -3.93523 5.319305 
C -4.055261 5.388775 -4.198123 5.407741 -4.332122 5.371997 
L -4.332122 5.371997 
C -4.466126 5.336237 -4.580558 5.248616 -4.650029 5.128576 
C -4.719499 5.008535 -4.73846 4.865662 -4.702703 4.731657 
L -4.262647 3.092721 
L -5.585535 3.855668 
L -5.585535 3.855668 
C -5.645013 3.890144 -5.710708 3.912561 -5.778854 3.921634 
C -5.847001 3.930706 -5.916272 3.926258 -5.982698 3.908543 
C -6.049125 3.890828 -6.111412 3.860192 -6.165991 3.818391 
C -6.220571 3.77659 -6.266379 3.724437 -6.300791 3.664922 
L -6.300791 3.664922 
C -6.335212 3.605364 -6.35755 3.539597 -6.366524 3.471396 
C -6.375498 3.403194 -6.370933 3.333888 -6.35309 3.267452 
C -6.335248 3.201017 -6.304476 3.138749 -6.26254 3.08422 
C -6.220605 3.029692 -6.168323 2.983966 -6.108695 2.949666 
L -4.785807 2.186762 
L -6.424743 1.746706 
L -6.424743 1.746706 
C -6.558747 1.710946 -6.673179 1.623325 -6.74265 1.503284 
C -6.81212 1.383244 -6.831081 1.240371 -6.795324 1.106366 
L -6.795324 1.106366 
C -6.777471 1.039969 -6.746703 0.977739 -6.704784 0.923241 
C -6.662864 0.868744 -6.61061 0.823041 -6.551015 0.788752 
C -6.491421 0.754464 -6.425647 0.732257 -6.357465 0.723406 
C -6.289282 0.714554 -6.220019 0.71923 -6.153645 0.737166 
L -3.505232 1.44698 
L -0.852424 -0.08496 
L -3.503767 -1.615666 
L -6.153645 -0.905851 
L -6.153645 -0.905851 
C -6.22011 -0.887939 -6.289462 -0.883321 -6.357716 -0.892262 
C -6.42597 -0.901202 -6.491793 -0.923527 -6.551403 -0.957953 
C -6.611013 -0.992379 -6.663247 -1.038234 -6.705103 -1.092883 
C -6.746958 -1.147533 -6.777619 -1.209911 -6.795324 -1.276432 
L -6.795324 -1.276432 
C -6.831068 -1.410431 -6.812101 -1.553293 -6.742632 -1.673324 
C -6.673162 -1.793355 -6.558738 -1.88097 -6.424743 -1.91673 
L -4.785807 -2.355447 
L -6.108695 -3.119732 
L -6.108695 -3.119732 
C -6.228699 -3.188976 -6.316415 -3.303132 -6.352417 -3.436921 
C -6.388419 -3.57071 -6.369839 -3.713469 -6.300791 -3.833586 
L -6.300791 -3.833586 
C -6.266491 -3.893214 -6.220765 -3.945496 -6.166237 -3.987431 
C -6.111708 -4.029367 -6.04944 -4.060139 -5.983005 -4.077981 
C -5.91657 -4.095823 -5.847263 -4.100389 -5.779062 -4.091415 
C -5.71086 -4.082441 -5.645094 -4.060102 -5.585535 -4.025682 
L -4.262647 -3.261396 
L -4.702703 -4.900332 
L -4.702703 -4.900332 
C -4.73846 -5.034337 -4.719499 -5.17721 -4.650029 -5.29725 
C -4.580558 -5.417291 -4.466126 -5.504912 -4.332122 -5.540672 
L -4.332122 -5.540672 
C -4.19831 -5.576464 -4.055613 -5.557686 -3.935617 -5.488496 
C -3.81562 -5.419305 -3.727882 -5.305212 -3.691824 -5.171472 
L -2.982009 -2.521594 
L -0.329411 -0.990302 
L -0.329411 -4.051588 
L -2.269453 -5.991589 
L -2.269453 -5.991589 
C -2.318227 -6.040191 -2.356931 -6.097947 -2.383337 -6.161539 
C -2.409744 -6.22513 -2.423338 -6.293314 -2.423338 -6.36217 
C -2.423338 -6.431026 -2.409744 -6.499209 -2.383337 -6.5628 
C -2.356931 -6.626392 -2.318227 -6.684149 -2.269453 -6.732751 
L -2.269453 -6.732751 
C -2.22085 -6.781526 -2.163094 -6.820229 -2.099502 -6.846635 
C -2.035911 -6.873042 -1.967728 -6.886636 -1.898871 -6.886636 
C -1.830015 -6.886636 -1.761832 -6.873042 -1.698241 -6.846635 
C -1.634649 -6.820229 -1.576893 -6.781526 -1.52829 -6.732751 
L -0.329411 -5.533829 
L -0.329411 -7.059722 
L -0.329411 -7.059722 
C -0.329411 -7.198418 -0.274255 -7.331575 -0.176182 -7.429647 
C -0.07811 -7.52772 0.055047 -7.582875 0.193743 -7.582875 
L 0.193743 -7.582875 
C 0.332439 -7.582875 0.465596 -7.52772 0.563669 -7.429647 
C 0.661741 -7.331575 0.716897 -7.198418 0.716897 -7.059722 
L 0.716897 -5.533829 
L 1.915777 -6.732751 
L 1.915777 -6.732751 
C 1.964379 -6.781526 2.022136 -6.820229 2.085727 -6.846635 
C 2.149318 -6.873042 2.217502 -6.886636 2.286358 -6.886636 
C 2.355214 -6.886636 2.423397 -6.873042 2.486989 -6.846635 
C 2.55058 -6.820229 2.608337 -6.781526 2.656939 -6.732751 
L 2.656939 -6.732751 
C 2.705714 -6.684149 2.744417 -6.626392 2.770823 -6.5628 
C 2.79723 -6.499209 2.810824 -6.431026 2.810824 -6.36217 
C 2.810824 -6.293314 2.79723 -6.22513 2.770823 -6.161539 
C 2.744417 -6.097947 2.705714 -6.040191 2.656939 -5.991589 
L 0.716897 -4.051588 
L 0.716897 -0.991139 
L 3.369495 -2.522954 
L 4.07931 -5.171367 
L 4.07931 -5.171367 
C 4.115368 -5.305107 4.203106 -5.4192 4.323103 -5.488391 
C 4.4431 -5.557582 4.585797 -5.576359 4.719608 -5.540567 
L 4.719608 -5.540567 
C 4.853612 -5.504807 4.968045 -5.417186 5.037515 -5.297146 
C 5.106986 -5.177105 5.125946 -5.034232 5.090189 -4.900227 
L 4.650133 -3.262673 
L 5.973022 -4.025577 
L 5.973022 -4.025577 
C 6.03258 -4.059998 6.098346 -4.082336 6.166548 -4.09131 
C 6.234749 -4.100284 6.304056 -4.095719 6.370491 -4.077876 
C 6.436926 -4.060034 6.499194 -4.029262 6.553723 -3.987327 
C 6.608252 -3.945391 6.653978 -3.893109 6.688277 -3.833481 
L 6.688277 -3.833481 
C 6.757325 -3.713365 6.775905 -3.570605 6.739903 -3.436816 
C 6.703901 -3.303027 6.616186 -3.188871 6.496181 -3.119628 
L 5.173293 -2.355342 
L 6.812229 -1.916625 
L 6.812229 -1.916625 
C 6.946224 -1.880865 7.060649 -1.79325 7.130118 -1.67322 
C 7.199588 -1.553189 7.218554 -1.410326 7.18281 -1.276327 
L 7.18281 -1.276327 
C 7.165106 -1.209806 7.134445 -1.147429 7.092589 -1.092779 
C 7.050733 -1.038129 6.998499 -0.992274 6.938889 -0.957848 
C 6.879279 -0.923422 6.813456 -0.901098 6.745202 -0.892157 
C 6.676949 -0.883217 6.607597 -0.887835 6.541131 -0.905746 
L 3.891253 -1.615561 
L 1.239492 -0.084604 
L 3.892718 1.447085 
L 6.541131 0.73727 
L 6.541131 0.73727 
C 6.674948 0.701466 6.817656 0.720237 6.937662 0.789429 
C 7.057669 0.858621 7.145413 0.972721 7.181471 1.10647 
L 7.181471 1.10647 
C 7.217274 1.240293 7.198497 1.383006 7.129297 1.503014 
C 7.060096 1.623021 6.945986 1.710762 6.812229 1.74681 
L 5.173293 2.186866 
L 6.496181 2.949771 
L 6.496181 2.949771 
C 6.555697 2.984183 6.607849 3.029991 6.649651 3.08457 
C 6.691452 3.13915 6.722088 3.201437 6.739803 3.267863 
C 6.757517 3.33429 6.761966 3.403561 6.752893 3.471707 
C 6.743821 3.539854 6.721404 3.605549 6.686927 3.665026 
L 6.686927 3.665026 
C 6.617458 3.784813 6.503196 3.87225 6.369416 3.907994 
C 6.235636 3.943739 6.092989 3.924946 5.973032 3.855772 
L 4.650144 3.091487 
L 5.08886 4.731783 
L 5.08886 4.731783 
C 5.124664 4.865606 5.105887 5.008319 5.036686 5.128326 
C 4.967486 5.248334 4.853376 5.336074 4.719619 5.372123 
L 4.719619 5.372123 
C 4.585619 5.407867 4.442757 5.3889 4.322726 5.319431 
C 4.202695 5.249961 4.115081 5.135537 4.07932 5.001542 
L 3.368166 2.351664 
L 0.717033 0.821063 
L 0.717033 3.884232 
L 2.657075 5.822893 
L 2.657075 5.822893 
C 2.70585 5.871495 2.744553 5.929252 2.770959 5.992843 
C 2.797366 6.056435 2.81096 6.124618 2.81096 6.193474 
C 2.81096 6.26233 2.797366 6.330514 2.770959 6.394105 
C 2.744553 6.457696 2.70585 6.515453 2.657075 6.564055 
L 2.657075 6.564055 
C 2.608473 6.61283 2.550716 6.651533 2.487125 6.67794 
C 2.423533 6.704346 2.35535 6.71794 2.286494 6.71794 
C 2.217638 6.71794 2.149454 6.704346 2.085863 6.67794 
C 2.022272 6.651533 1.964515 6.61283 1.915913 6.564055 
L 0.717033 5.365133 
L 0.717033 6.891026 
L 0.717033 6.891026 
C 0.717033 7.029722 0.661877 7.162879 0.563805 7.260952 
C 0.465732 7.359024 0.332575 7.41418 0.193879 7.41418 
L 0.193618 7.414054 
z
"/>
    </defs>
    <g clip-path="url(#p18885882ff)">
     <use xlink:href="#m58ed387474" x="168.972067" y="78.031017" style="fill: #9e2096; fill-opacity: 0.7"/>
    </g>
   </g>
   <g id="patch_163">
    <path d="M 125.254844 13.699063 
C 110.694216 13.699063 96.275171 16.567189 82.822905 22.1393 
C 69.370638 27.711411 57.146763 35.879144 46.850844 46.175063 
C 36.554925 56.470982 28.387192 68.694857 22.815081 82.147124 
C 17.24297 95.59939 14.374844 110.018434 14.374844 124.579063 
C 14.374844 139.139691 17.24297 153.558735 22.815081 167.011001 
C 28.387192 180.463268 36.554925 192.687143 46.850844 202.983062 
C 57.146763 213.278981 69.370638 221.446714 82.822905 227.018825 
C 96.275171 232.590936 110.694216 235.459063 125.254844 235.459063 
C 139.815472 235.459063 154.234516 232.590936 167.686783 227.018825 
C 181.139049 221.446714 193.362925 213.278981 203.658844 202.983062 
C 213.954763 192.687143 222.122495 180.463268 227.694606 167.011001 
C 233.266717 153.558735 236.134844 139.139691 236.134844 124.579063 
C 236.134844 110.018434 233.266717 95.59939 227.694606 82.147124 
C 222.122495 68.694857 213.954763 56.470982 203.658844 46.175063 
C 193.362925 35.879144 181.139049 27.711411 167.686783 22.1393 
C 154.234516 16.567189 139.815472 13.699063 125.254844 13.699063 
" style="fill: none; stroke: #000000; stroke-width: 0.8; stroke-linejoin: miter; stroke-linecap: square"/>
   </g>
  </g>
 </g>
 <defs>
  <clipPath id="p18885882ff">
   <path d="M 236.134844 124.579063 
C 236.134844 110.018434 233.266717 95.59939 227.694606 82.147124 
C 222.122495 68.694857 213.954763 56.470982 203.658844 46.175063 
C 193.362925 35.879144 181.139049 27.711411 167.686783 22.1393 
C 154.234516 16.567189 139.815472 13.699063 125.254844 13.699063 
C 110.694216 13.699063 96.275171 16.567189 82.822905 22.1393 
C 69.370638 27.711411 57.146763 35.879144 46.850844 46.175063 
C 36.554925 56.470982 28.387192 68.694857 22.815081 82.147124 
C 17.24297 95.59939 14.374844 110.018434 14.374844 124.579062 
C 14.374844 139.139691 17.24297 153.558735 22.815081 167.011001 
C 28.387192 180.463268 36.554925 192.687143 46.850844 202.983062 
C 57.146763 213.278981 69.370638 221.446714 82.822905 227.018825 
C 96.275171 232.590936 110.694216 235.459063 125.254844 235.459063 
C 139.815472 235.459063 154.234516 232.590936 167.686783 227.018825 
C 181.139049 221.446714 193.362925 213.278981 203.658844 202.983062 
C 213.954763 192.687143 222.122495 180.463268 227.694606 167.011001 
C 233.266717 153.558735 236.134844 139.139691 236.134844 124.579063 
M 125.254844 124.579063 
C 125.254844 124.579063 125.254844 124.579063 125.254844 124.579063 
C 125.254844 124.579063 125.254844 124.579063 125.254844 124.579063 
C 125.254844 124.579063 125.254844 124.579063 125.254844 124.579063 
C 125.254844 124.579063 125.254844 124.579063 125.254844 124.579063 
C 125.254844 124.579063 125.254844 124.579063 125.254844 124.579063 
C 125.254844 124.579063 125.254844 124.579063 125.254844 124.579063 
C 125.254844 124.579063 125.254844 124.579063 125.254844 124.579063 
C 125.254844 124.579063 125.254844 124.579063 125.254844 124.579063 
C 125.254844 124.579063 125.254844 124.579063 125.254844 124.579063 
C 125.254844 124.579063 125.254844 124.579063 125.254844 124.579063 
C 125.254844 124.579063 125.254844 124.579063 125.254844 124.579063 
C 125.254844 124.579063 125.254844 124.579063 125.254844 124.579063 
C 125.254844 124.579063 125.254844 124.579063 125.254844 124.579063 
C 125.254844 124.579063 125.254844 124.579063 125.254844 124.579063 
C 125.254844 124.579063 125.254844 124.579063 125.254844 124.579063 
C 125.254844 124.579063 125.254844 124.579063 125.254844 124.579063 
z
"/>
  </clipPath>
 </defs>
</svg>
