<?xml version="1.0" encoding="utf-8" standalone="no"?>
<!DOCTYPE svg PUBLIC "-//W3C//DTD SVG 1.1//EN"
  "http://www.w3.org/Graphics/SVG/1.1/DTD/svg11.dtd">
<svg xmlns:xlink="http://www.w3.org/1999/xlink" width="248.410469pt" height="249.158125pt" viewBox="0 0 248.410469 249.158125" xmlns="http://www.w3.org/2000/svg" version="1.1">
 <title>Ski Rose for La Plagne</title>
 <metadata>
  <rdf:RDF xmlns:dc="http://purl.org/dc/elements/1.1/" xmlns:cc="http://creativecommons.org/ns#" xmlns:rdf="http://www.w3.org/1999/02/22-rdf-syntax-ns#">
   <cc:Work>
    <dc:type rdf:resource="http://purl.org/dc/dcmitype/StillImage"/>
    <dc:title>Ski Rose for La Plagne</dc:title>
    <dc:date>2025-11-29T10:18:56.414217</dc:date>
    <dc:description>A 32-bin stacked histogram of downhill ski run orientations colored by difficulty.</dc:description>
    <dc:format>image/svg+xml</dc:format>
    <dc:source>https://openskimap.org/?obj=f47f7e05cc676b25b6a00f77f0b86a897f03018c</dc:source>
    <dc:creator>
     <cc:Agent>
      <dc:title>https://github.com/dhimmel/openskistats</dc:title>
     </cc:Agent>
    </dc:creator>
    <dc:rights>
     <cc:Agent>
      <dc:title>https://creativecommons.org/licenses/by/4.0/</dc:title>
     </cc:Agent>
    </dc:rights>
   </cc:Work>
  </rdf:RDF>
 </metadata>
 <defs>
  <style type="text/css">*{stroke-linejoin: round; stroke-linecap: butt}</style>
 </defs>
 <g id="figure_1">
  <g id="patch_1">
   <path d="M 0 249.158125 
L 248.410469 249.158125 
L 248.410469 0 
L 0 0 
z
" style="fill: #ffffff"/>
  </g>
  <g id="axes_1">
   <g id="patch_2">
    <path d="M 236.134844 124.579063 
C 236.134844 110.018434 233.266717 95.59939 227.694606 82.147124 
C 222.122495 68.694857 213.954763 56.470982 203.658844 46.175063 
C 193.362925 35.879144 181.139049 27.711411 167.686783 22.1393 
C 154.234516 16.567189 139.815472 13.699062 125.254844 13.699062 
C 110.694216 13.699062 96.275171 16.567189 82.822905 22.1393 
C 69.370638 27.711411 57.146763 35.879144 46.850844 46.175063 
C 36.554925 56.470982 28.387192 68.694857 22.815081 82.147124 
C 17.24297 95.59939 14.374844 110.018434 14.374844 124.579062 
C 14.374844 139.139691 17.24297 153.558735 22.815081 167.011001 
C 28.387192 180.463268 36.554925 192.687143 46.850844 202.983062 
C 57.146763 213.278981 69.370638 221.446714 82.822905 227.018825 
C 96.275171 232.590936 110.694216 235.459063 125.254844 235.459063 
C 139.815472 235.459063 154.234516 232.590936 167.686783 227.018825 
C 181.139049 221.446714 193.362925 213.278981 203.658844 202.983062 
C 213.954763 192.687143 222.122495 180.463268 227.694606 167.011001 
C 233.266717 153.558735 236.134844 139.139691 236.134844 124.579063 
M 125.254844 124.579063 
C 125.254844 124.579063 125.254844 124.579063 125.254844 124.579063 
C 125.254844 124.579063 125.254844 124.579063 125.254844 124.579063 
C 125.254844 124.579063 125.254844 124.579063 125.254844 124.579063 
C 125.254844 124.579063 125.254844 124.579063 125.254844 124.579063 
C 125.254844 124.579063 125.254844 124.579063 125.254844 124.579063 
C 125.254844 124.579063 125.254844 124.579063 125.254844 124.579063 
C 125.254844 124.579063 125.254844 124.579063 125.254844 124.579063 
C 125.254844 124.579063 125.254844 124.579063 125.254844 124.579063 
C 125.254844 124.579063 125.254844 124.579063 125.254844 124.579063 
C 125.254844 124.579063 125.254844 124.579063 125.254844 124.579063 
C 125.254844 124.579063 125.254844 124.579063 125.254844 124.579063 
C 125.254844 124.579063 125.254844 124.579063 125.254844 124.579063 
C 125.254844 124.579063 125.254844 124.579063 125.254844 124.579063 
C 125.254844 124.579063 125.254844 124.579063 125.254844 124.579063 
C 125.254844 124.579063 125.254844 124.579063 125.254844 124.579063 
C 125.254844 124.579063 125.254844 124.579063 125.254844 124.579063 
z
" style="fill: #ffffff"/>
   </g>
   <g id="FillBetweenPolyCollection_1">
    <defs>
     <path id="me07b955ae3" d="M 235.287715 -137.115725 
L 234.917305 -137.073522 
L 233.966301 -135.046785 
L 233.133198 -133.069273 
L 232.034965 -131.110014 
L 231.090853 -129.199962 
L 229.892169 -127.319087 
L 228.651685 -125.481393 
L 227.58699 -123.686023 
L 226.275204 -121.933751 
L 225.145412 -120.217746 
L 223.772405 -118.55347 
L 222.372038 -116.935774 
L 221.159209 -115.344522 
L 219.709544 -113.817309 
L 218.449626 -112.309737 
L 217.168031 -110.842545 
L 215.656812 -109.450961 
L 214.337206 -108.068622 
L 213.000176 -106.727073 
L 211.441868 -105.471859 
L 210.07564 -104.215391 
L 208.696156 -102.999672 
L 207.304752 -101.824609 
L 205.902755 -100.690063 
L 204.491487 -99.595845 
L 203.072261 -98.541719 
L 201.646383 -97.5274 
L 200.21515 -96.552552 
L 198.779847 -95.616793 
L 197.525479 -94.643585 
L 196.083041 -93.782086 
L 194.640205 -92.958332 
L 193.373481 -92.088139 
L 191.930395 -91.335859 
L 190.659684 -90.531458 
L 189.22072 -89.848426 
L 187.949932 -89.107888 
L 186.678949 -88.397499 
L 185.408614 -87.716785 
L 183.986678 -87.162758 
L 182.723486 -86.541398 
L 181.463432 -85.94797 
L 180.207278 -85.381872 
L 178.955766 -84.84247 
L 177.709614 -84.329101 
L 176.469516 -83.841073 
L 175.36406 -83.272213 
L 174.134212 -82.832138 
L 172.912289 -82.415316 
L 171.815683 -81.913914 
L 170.607379 -81.541113 
L 169.408627 -81.18926 
L 168.3253 -80.750248 
L 167.143054 -80.438099 
L 166.069543 -80.037634 
L 164.905422 -79.762237 
L 163.843174 -79.397933 
L 162.785276 -79.051008 
L 161.648802 -78.825586 
L 160.603946 -78.511216 
L 159.564222 -78.212599 
L 158.529848 -77.929227 
L 157.50102 -77.660584 
L 156.412563 -77.504883 
L 155.398697 -77.26269 
L 154.390785 -77.033527 
L 153.388924 -76.816872 
L 152.393187 -76.612202 
L 151.403625 -76.418999 
L 150.420261 -76.236745 
L 149.443099 -76.064928 
L 148.472115 -75.903042 
L 147.507262 -75.750586 
L 146.582402 -75.529037 
L 145.626818 -75.396767 
L 144.677175 -75.272603 
L 143.733339 -75.156081 
L 142.795155 -75.046753 
L 141.883897 -74.880062 
L 140.954168 -74.787167 
L 140.029604 -74.700307 
L 139.10997 -74.619092 
L 138.208318 -74.491693 
L 137.295919 -74.424376 
L 136.387757 -74.361734 
L 135.483532 -74.303452 
L 134.58988 -74.211714 
L 133.691216 -74.165292 
L 132.795629 -74.122491 
L 131.906291 -74.056305 
L 131.014838 -74.02424 
L 130.125511 -73.995247 
L 129.239161 -73.953514 
L 128.352399 -73.93448 
L 127.466746 -73.918175 
L 126.581916 -73.900206 
L 125.69717 -73.89345 
L 124.812517 -73.893491 
L 123.92789 -73.904734 
L 123.042962 -73.918632 
L 122.157332 -73.935186 
L 121.271828 -73.970048 
L 120.384284 -73.996368 
L 119.495005 -74.02561 
L 118.607124 -74.08462 
L 117.714325 -74.124273 
L 116.818812 -74.167322 
L 115.927169 -74.251432 
L 115.026651 -74.305891 
L 114.122525 -74.364419 
L 113.225916 -74.474974 
L 112.315476 -74.546239 
L 111.400642 -74.622425 
L 110.481143 -74.703884 
L 109.575859 -74.851676 
L 108.648574 -74.948153 
L 107.716025 -75.050965 
L 106.778013 -75.160533 
L 105.862815 -75.34953 
L 104.916039 -75.476843 
L 103.963419 -75.612139 
L 103.004842 -75.755889 
L 102.040212 -75.908576 
L 101.069462 -76.070691 
L 100.092544 -76.242734 
L 99.109436 -76.425212 
L 98.120141 -76.618638 
L 97.124683 -76.823526 
L 96.123112 -77.040397 
L 95.115502 -77.269773 
L 94.10195 -77.512175 
L 93.082578 -77.768125 
L 92.057529 -78.038143 
L 91.026971 -78.322747 
L 89.912023 -78.519402 
L 88.867546 -78.833959 
L 87.818188 -79.164768 
L 86.674057 -79.406765 
L 85.61223 -79.771239 
L 84.546376 -80.153565 
L 83.375578 -80.447524 
L 82.299178 -80.867059 
L 81.111053 -81.19908 
L 80.025648 -81.658159 
L 78.821923 -82.03113 
L 77.609155 -82.425718 
L 76.511867 -82.948627 
L 75.286536 -83.388368 
L 74.053867 -83.851967 
L 72.814501 -84.340172 
L 71.569105 -84.853705 
L 70.318372 -85.393258 
L 69.063021 -85.959493 
L 67.803794 -86.553042 
L 66.541453 -87.174508 
L 65.276784 -87.824461 
L 64.010591 -88.503441 
L 62.743696 -89.211957 
L 61.31125 -89.860524 
L 60.042495 -90.631663 
L 58.775691 -91.43378 
L 57.336986 -92.183906 
L 55.896264 -92.970537 
L 54.635438 -93.872871 
L 53.197158 -94.731792 
L 51.760448 -95.62885 
L 50.515061 -96.635003 
L 49.087753 -97.606881 
L 47.66572 -98.618105 
L 46.250257 -99.669012 
L 44.842669 -100.759891 
L 43.44427 -101.890982 
L 42.056379 -103.062477 
L 40.680324 -104.274517 
L 39.317438 -105.527198 
L 37.762846 -106.778614 
L 36.428977 -108.116161 
L 35.11244 -109.494397 
L 33.604643 -110.881848 
L 32.32592 -112.344738 
L 31.06877 -113.847915 
L 29.622191 -115.370685 
L 28.411893 -116.957357 
L 27.014329 -118.570415 
L 25.857316 -120.239273 
L 24.51618 -121.941128 
L 23.206521 -123.6885 
L 22.143294 -125.478903 
L 20.904054 -127.311584 
L 19.915362 -129.178284 
L 18.760912 -131.09251 
L 17.659789 -133.046977 
L 16.821491 -135.020007 
L 15.860139 -137.043015 
L 15.118431 -137.127522 
L 15.118431 -137.127522 
L 14.935811 -135.201577 
L 14.896247 -133.264472 
L 14.649841 -131.343954 
L 14.492404 -129.415055 
L 14.438877 -127.480881 
L 14.474339 -125.545829 
L 14.415712 -123.611784 
L 14.515846 -121.67926 
L 14.523161 -119.744413 
L 14.625032 -117.812653 
L 14.881622 -115.892502 
L 14.922555 -113.955271 
L 15.177492 -112.037332 
L 15.346961 -110.109415 
L 15.594584 -108.190227 
L 15.938268 -106.285742 
L 16.382761 -104.400815 
L 16.608324 -102.474678 
L 17.042098 -100.588874 
L 17.505165 -98.710653 
L 17.997594 -96.840452 
L 18.423099 -94.951998 
L 18.976705 -93.098044 
L 19.559838 -91.253555 
L 20.172609 -89.419039 
L 20.738925 -87.568034 
L 21.41167 -85.753691 
L 22.11487 -83.951146 
L 22.848887 -82.161126 
L 23.614187 -80.384447 
L 24.411322 -78.622022 
L 25.240906 -76.874861 
L 26.038264 -75.111501 
L 26.937992 -73.398549 
L 27.816406 -71.674307 
L 28.789795 -70.001764 
L 29.777579 -68.338656 
L 30.74064 -66.660684 
L 31.752668 -65.011607 
L 32.808969 -63.390473 
L 33.895469 -61.789504 
L 35.70177 -60.701476 
L 37.598146 -59.716518 
L 39.44732 -58.736634 
L 41.311052 -57.807156 
L 43.115582 -56.86868 
L 44.983233 -56.02063 
L 46.853187 -55.215136 
L 48.715575 -54.443744 
L 50.518165 -53.656603 
L 52.317421 -52.903657 
L 54.167075 -52.239624 
L 55.954904 -51.552163 
L 57.736621 -50.895852 
L 59.511507 -50.269739 
L 61.278915 -49.672874 
L 63.038259 -49.10431 
L 64.789013 -48.563096 
L 66.530705 -48.048275 
L 68.22275 -47.504611 
L 69.946942 -47.040244 
L 71.627887 -46.551357 
L 73.333202 -46.134019 
L 74.994739 -45.686501 
L 76.652221 -45.26679 
L 78.328371 -44.91372 
L 79.965379 -44.530205 
L 81.597668 -44.172547 
L 83.218742 -43.828462 
L 84.834799 -43.508995 
L 86.439705 -43.201432 
L 88.019186 -42.872868 
L 89.612197 -42.606586 
L 91.194392 -42.349859 
L 92.771325 -42.114846 
L 94.32566 -41.855203 
L 95.885865 -41.643624 
L 97.428756 -41.415653 
L 98.977715 -41.238657 
L 100.509578 -41.040447 
L 102.043631 -40.882132 
L 103.565281 -40.711745 
L 105.089485 -40.584299 
L 106.601691 -40.440128 
L 108.109965 -40.309292 
L 109.614528 -40.191472 
L 111.11806 -40.100977 
L 112.615398 -40.006558 
L 114.109834 -39.92431 
L 115.601643 -39.854008 
L 117.092554 -39.810444 
L 118.579571 -39.761676 
L 120.064905 -39.724318 
L 121.548868 -39.698252 
L 123.031762 -39.682986 
L 124.513918 -39.677391 
L 125.99577 -39.677322 
L 127.47793 -39.682838 
L 128.960827 -39.698097 
L 130.444795 -39.724112 
L 131.930137 -39.761419 
L 133.417163 -39.810136 
L 134.908108 -39.853452 
L 136.399936 -39.923678 
L 137.894395 -40.005852 
L 139.391758 -40.100196 
L 140.892288 -40.206961 
L 142.399847 -40.308679 
L 143.908143 -40.439469 
L 145.420371 -40.583595 
L 146.944704 -40.710596 
L 148.466394 -40.880917 
L 150.000359 -41.039602 
L 151.532252 -41.237772 
L 153.081406 -41.414235 
L 154.624346 -41.642148 
L 156.184405 -41.854193 
L 157.738774 -42.113801 
L 159.315981 -42.348204 
L 160.897978 -42.605465 
L 162.491307 -42.871101 
L 164.070847 -43.19962 
L 165.675495 -43.507777 
L 167.291939 -43.826554 
L 168.912713 -44.171271 
L 170.545436 -44.528211 
L 172.182098 -44.912393 
L 173.858297 -45.265436 
L 175.516291 -45.684394 
L 177.177408 -46.132626 
L 178.882771 -46.549944 
L 180.564309 -47.038052 
L 182.288579 -47.502393 
L 183.980098 -48.046821 
L 185.72184 -48.56163 
L 187.472644 -49.102836 
L 189.232038 -49.671393 
L 190.999495 -50.268253 
L 192.77443 -50.894364 
L 194.556196 -51.550675 
L 196.344072 -52.238138 
L 198.194603 -52.901361 
L 199.993932 -53.654316 
L 201.796593 -54.441471 
L 203.658141 -55.213685 
L 205.529072 -56.018395 
L 207.336187 -56.916425 
L 209.20044 -57.80572 
L 211.065125 -58.734518 
L 212.913415 -59.715132 
L 214.748324 -60.743984 
L 216.616925 -61.787644 
L 217.706629 -63.386561 
L 218.761989 -65.008441 
L 219.770919 -66.659537 
L 220.775247 -68.313245 
L 221.737165 -69.991992 
L 222.654604 -71.695307 
L 223.592411 -73.387765 
L 224.480052 -75.107198 
L 225.317072 -76.851828 
L 226.079648 -78.630552 
L 226.921916 -80.372961 
L 227.634964 -82.171828 
L 228.418514 -83.941812 
L 229.088845 -85.75712 
L 229.769111 -87.56862 
L 230.402529 -89.397139 
L 230.989305 -91.241115 
L 231.52969 -93.099019 
L 232.08601 -94.952158 
L 232.529279 -96.836007 
L 233.051484 -98.699379 
L 233.411761 -100.601251 
L 233.906102 -102.473714 
L 234.179946 -104.390988 
L 234.591433 -106.282392 
L 234.780926 -108.21028 
L 235.081572 -110.120099 
L 235.375906 -112.032352 
L 235.605344 -113.953518 
L 235.663915 -115.88968 
L 235.84305 -117.815198 
L 235.965121 -119.745347 
L 236.072252 -121.677207 
L 236.124962 -123.611514 
L 235.993966 -125.545468 
L 235.995777 -127.478916 
L 235.946048 -129.411945 
L 235.880734 -131.345232 
L 235.7828 -133.277801 
L 235.469166 -135.191495 
L 235.287715 -137.115725 
z
" style="stroke: #ffee9c"/>
    </defs>
    <g clip-path="url(#p93df6234df)">
     <use xlink:href="#me07b955ae3" x="0" y="249.158125" style="fill: #ffee9c; stroke: #ffee9c"/>
    </g>
   </g>
   <g id="matplotlib.axis_1">
    <g id="xtick_1">
     <g id="line2d_1">
      <path d="M 125.254844 124.579062 
L 125.254844 13.699062 
" clip-path="url(#p93df6234df)" style="fill: none; stroke: #b0b0b0; stroke-width: 0.8; stroke-linecap: square"/>
     </g>
     <g id="text_1">
      <!-- N -->
      <g transform="translate(121.070469 7.958437) scale(0.1 -0.1)">
       <defs>
        <path id="DejaVuSans-Bold-4e" d="M 588 4666 
L 1931 4666 
L 3628 1466 
L 3628 4666 
L 4769 4666 
L 4769 0 
L 3425 0 
L 1728 3200 
L 1728 0 
L 588 0 
L 588 4666 
z
" transform="scale(0.015625)"/>
       </defs>
       <use xlink:href="#DejaVuSans-Bold-4e"/>
      </g>
     </g>
    </g>
    <g id="xtick_2">
     <g id="line2d_2">
      <path d="M 125.254844 124.579062 
L 203.658844 46.175063 
" clip-path="url(#p93df6234df)" style="fill: none; stroke: #b0b0b0; stroke-width: 0.8; stroke-linecap: square"/>
     </g>
    </g>
    <g id="xtick_3">
     <g id="line2d_3">
      <path d="M 125.254844 124.579062 
L 236.134844 124.579062 
" clip-path="url(#p93df6234df)" style="fill: none; stroke: #b0b0b0; stroke-width: 0.8; stroke-linecap: square"/>
     </g>
     <g id="text_2">
      <!-- E -->
      <g transform="translate(241.219219 127.338437) scale(0.1 -0.1)">
       <defs>
        <path id="DejaVuSans-Bold-45" d="M 588 4666 
L 3834 4666 
L 3834 3756 
L 1791 3756 
L 1791 2888 
L 3713 2888 
L 3713 1978 
L 1791 1978 
L 1791 909 
L 3903 909 
L 3903 0 
L 588 0 
L 588 4666 
z
" transform="scale(0.015625)"/>
       </defs>
       <use xlink:href="#DejaVuSans-Bold-45"/>
      </g>
     </g>
    </g>
    <g id="xtick_4">
     <g id="line2d_4">
      <path d="M 125.254844 124.579062 
L 203.658844 202.983062 
" clip-path="url(#p93df6234df)" style="fill: none; stroke: #b0b0b0; stroke-width: 0.8; stroke-linecap: square"/>
     </g>
    </g>
    <g id="xtick_5">
     <g id="line2d_5">
      <path d="M 125.254844 124.579062 
L 125.254844 235.459063 
" clip-path="url(#p93df6234df)" style="fill: none; stroke: #b0b0b0; stroke-width: 0.8; stroke-linecap: square"/>
     </g>
     <g id="text_3">
      <!-- S -->
      <g transform="translate(121.654063 246.718438) scale(0.1 -0.1)">
       <defs>
        <path id="DejaVuSans-Bold-53" d="M 3834 4519 
L 3834 3531 
Q 3450 3703 3084 3790 
Q 2719 3878 2394 3878 
Q 1963 3878 1756 3759 
Q 1550 3641 1550 3391 
Q 1550 3203 1689 3098 
Q 1828 2994 2194 2919 
L 2706 2816 
Q 3484 2659 3812 2340 
Q 4141 2022 4141 1434 
Q 4141 663 3683 286 
Q 3225 -91 2284 -91 
Q 1841 -91 1394 -6 
Q 947 78 500 244 
L 500 1259 
Q 947 1022 1364 901 
Q 1781 781 2169 781 
Q 2563 781 2772 912 
Q 2981 1044 2981 1288 
Q 2981 1506 2839 1625 
Q 2697 1744 2272 1838 
L 1806 1941 
Q 1106 2091 782 2419 
Q 459 2747 459 3303 
Q 459 4000 909 4375 
Q 1359 4750 2203 4750 
Q 2588 4750 2994 4692 
Q 3400 4634 3834 4519 
z
" transform="scale(0.015625)"/>
       </defs>
       <use xlink:href="#DejaVuSans-Bold-53"/>
      </g>
     </g>
    </g>
    <g id="xtick_6">
     <g id="line2d_6">
      <path d="M 125.254844 124.579062 
L 46.850844 202.983062 
" clip-path="url(#p93df6234df)" style="fill: none; stroke: #b0b0b0; stroke-width: 0.8; stroke-linecap: square"/>
     </g>
    </g>
    <g id="xtick_7">
     <g id="line2d_7">
      <path d="M 125.254844 124.579062 
L 14.374844 124.579063 
" clip-path="url(#p93df6234df)" style="fill: none; stroke: #b0b0b0; stroke-width: 0.8; stroke-linecap: square"/>
     </g>
     <g id="text_4">
      <!-- W -->
      <g transform="translate(0.36 127.338438) scale(0.1 -0.1)">
       <defs>
        <path id="DejaVuSans-Bold-57" d="M 191 4666 
L 1344 4666 
L 2150 1275 
L 2950 4666 
L 4109 4666 
L 4909 1275 
L 5716 4666 
L 6859 4666 
L 5759 0 
L 4372 0 
L 3525 3547 
L 2688 0 
L 1300 0 
L 191 4666 
z
" transform="scale(0.015625)"/>
       </defs>
       <use xlink:href="#DejaVuSans-Bold-57"/>
      </g>
     </g>
    </g>
    <g id="xtick_8">
     <g id="line2d_8">
      <path d="M 125.254844 124.579062 
L 46.850844 46.175063 
" clip-path="url(#p93df6234df)" style="fill: none; stroke: #b0b0b0; stroke-width: 0.8; stroke-linecap: square"/>
     </g>
    </g>
   </g>
   <g id="matplotlib.axis_2"/>
   <g id="patch_3">
    <path d="M 125.254844 124.579062 
C 125.254844 124.579062 125.254844 124.579062 125.254844 124.579062 
C 125.254844 124.579062 125.254844 124.579062 125.254844 124.579062 
L 126.164808 115.340036 
C 125.862401 115.310252 125.558714 115.295333 125.254844 115.295333 
C 124.950973 115.295333 124.647286 115.310252 124.344879 115.340036 
z
" clip-path="url(#p93df6234df)" style="fill: #d9d9d9"/>
   </g>
   <g id="patch_4">
    <path d="M 125.254844 124.579062 
C 125.254844 124.579062 125.254844 124.579062 125.254844 124.579062 
C 125.254844 124.579062 125.254844 124.579062 125.254844 124.579062 
L 125.254844 124.579062 
C 125.254844 124.579062 125.254844 124.579062 125.254844 124.579062 
C 125.254844 124.579062 125.254844 124.579062 125.254844 124.579062 
z
" clip-path="url(#p93df6234df)" style="fill: #d9d9d9"/>
   </g>
   <g id="patch_5">
    <path d="M 125.254844 124.579062 
C 125.254844 124.579062 125.254844 124.579062 125.254844 124.579062 
C 125.254844 124.579062 125.254844 124.579062 125.254844 124.579062 
L 125.912114 123.349397 
C 125.871865 123.327883 125.830584 123.308359 125.788421 123.290894 
C 125.746257 123.273429 125.703261 123.258045 125.659589 123.244797 
z
" clip-path="url(#p93df6234df)" style="fill: #d9d9d9"/>
   </g>
   <g id="patch_6">
    <path d="M 125.254844 124.579062 
C 125.254844 124.579062 125.254844 124.579062 125.254844 124.579062 
C 125.254844 124.579062 125.254844 124.579062 125.254844 124.579062 
L 125.254844 124.579062 
C 125.254844 124.579062 125.254844 124.579062 125.254844 124.579062 
C 125.254844 124.579062 125.254844 124.579062 125.254844 124.579062 
z
" clip-path="url(#p93df6234df)" style="fill: #d9d9d9"/>
   </g>
   <g id="patch_7">
    <path d="M 125.254844 124.579062 
C 125.254844 124.579062 125.254844 124.579062 125.254844 124.579062 
C 125.254844 124.579062 125.254844 124.579062 125.254844 124.579062 
L 125.254844 124.579062 
C 125.254844 124.579062 125.254844 124.579062 125.254844 124.579062 
C 125.254844 124.579062 125.254844 124.579062 125.254844 124.579062 
z
" clip-path="url(#p93df6234df)" style="fill: #d9d9d9"/>
   </g>
   <g id="patch_8">
    <path d="M 125.254844 124.579062 
C 125.254844 124.579062 125.254844 124.579062 125.254844 124.579062 
C 125.254844 124.579062 125.254844 124.579062 125.254844 124.579062 
L 126.258862 124.042404 
C 126.241296 124.009541 126.222128 123.97756 126.201425 123.946577 
C 126.180723 123.915594 126.158512 123.885646 126.134873 123.856841 
z
" clip-path="url(#p93df6234df)" style="fill: #d9d9d9"/>
   </g>
   <g id="patch_9">
    <path d="M 125.254844 124.579062 
C 125.254844 124.579062 125.254844 124.579062 125.254844 124.579062 
C 125.254844 124.579062 125.254844 124.579062 125.254844 124.579062 
L 125.254844 124.579062 
C 125.254844 124.579062 125.254844 124.579062 125.254844 124.579062 
C 125.254844 124.579062 125.254844 124.579062 125.254844 124.579062 
z
" clip-path="url(#p93df6234df)" style="fill: #d9d9d9"/>
   </g>
   <g id="patch_10">
    <path d="M 125.254844 124.579062 
C 125.254844 124.579062 125.254844 124.579062 125.254844 124.579062 
C 125.254844 124.579062 125.254844 124.579062 125.254844 124.579062 
L 127.658219 124.342351 
C 127.650471 124.263685 127.638866 124.185446 127.623444 124.107919 
C 127.608023 124.030391 127.588805 123.953667 127.565859 123.878024 
z
" clip-path="url(#p93df6234df)" style="fill: #d9d9d9"/>
   </g>
   <g id="patch_11">
    <path d="M 125.254844 124.579062 
C 125.254844 124.579062 125.254844 124.579062 125.254844 124.579062 
C 125.254844 124.579062 125.254844 124.579062 125.254844 124.579062 
L 125.254844 124.579062 
C 125.254844 124.579062 125.254844 124.579062 125.254844 124.579062 
C 125.254844 124.579062 125.254844 124.579062 125.254844 124.579062 
z
" clip-path="url(#p93df6234df)" style="fill: #d9d9d9"/>
   </g>
   <g id="patch_12">
    <path d="M 125.254844 124.579062 
C 125.254844 124.579062 125.254844 124.579062 125.254844 124.579062 
C 125.254844 124.579062 125.254844 124.579062 125.254844 124.579062 
L 130.003528 126.01956 
C 130.050678 125.864129 130.090168 125.706476 130.121856 125.547171 
C 130.153543 125.387867 130.17739 125.227102 130.193311 125.065459 
z
" clip-path="url(#p93df6234df)" style="fill: #d9d9d9"/>
   </g>
   <g id="patch_13">
    <path d="M 125.254844 124.579062 
C 125.254844 124.579062 125.254844 124.579062 125.254844 124.579062 
C 125.254844 124.579062 125.254844 124.579062 125.254844 124.579062 
L 132.999461 128.718647 
C 133.134956 128.465154 133.257923 128.205161 133.367919 127.939608 
C 133.477914 127.674055 133.574806 127.403262 133.658243 127.128206 
z
" clip-path="url(#p93df6234df)" style="fill: #d9d9d9"/>
   </g>
   <g id="patch_14">
    <path d="M 125.254844 124.579062 
C 125.254844 124.579062 125.254844 124.579062 125.254844 124.579062 
C 125.254844 124.579062 125.254844 124.579062 125.254844 124.579062 
L 134.753452 132.374369 
C 135.008604 132.063465 135.248338 131.740222 135.471787 131.405806 
C 135.695237 131.07139 135.902133 130.726205 136.091728 130.371498 
z
" clip-path="url(#p93df6234df)" style="fill: #d9d9d9"/>
   </g>
   <g id="patch_15">
    <path d="M 125.254844 124.579062 
C 125.254844 124.579062 125.254844 124.579062 125.254844 124.579062 
C 125.254844 124.579062 125.254844 124.579062 125.254844 124.579062 
L 126.786906 126.445886 
C 126.84801 126.395739 126.906615 126.342623 126.96251 126.286728 
C 127.018404 126.230834 127.071521 126.172229 127.121667 126.111125 
z
" clip-path="url(#p93df6234df)" style="fill: #d9d9d9"/>
   </g>
   <g id="patch_16">
    <path d="M 125.254844 124.579062 
C 125.254844 124.579062 125.254844 124.579062 125.254844 124.579062 
C 125.254844 124.579062 125.254844 124.579062 125.254844 124.579062 
L 126.81946 127.506253 
C 126.915271 127.455041 127.00851 127.399155 127.09884 127.338798 
C 127.189171 127.278442 127.276483 127.213686 127.360462 127.144766 
z
" clip-path="url(#p93df6234df)" style="fill: #d9d9d9"/>
   </g>
   <g id="patch_17">
    <path d="M 125.254844 124.579062 
C 125.254844 124.579062 125.254844 124.579062 125.254844 124.579062 
C 125.254844 124.579062 125.254844 124.579062 125.254844 124.579062 
L 126.469079 128.581858 
C 126.600096 128.542114 126.729083 128.495962 126.855574 128.443568 
C 126.982065 128.391173 127.105908 128.3326 127.226654 128.26806 
z
" clip-path="url(#p93df6234df)" style="fill: #d9d9d9"/>
   </g>
   <g id="patch_18">
    <path d="M 125.254844 124.579062 
C 125.254844 124.579062 125.254844 124.579062 125.254844 124.579062 
C 125.254844 124.579062 125.254844 124.579062 125.254844 124.579062 
L 126.078625 132.943055 
C 126.352391 132.916091 126.624668 132.875703 126.894473 132.822035 
C 127.164278 132.768368 127.431285 132.701486 127.69453 132.621631 
z
" clip-path="url(#p93df6234df)" style="fill: #d9d9d9"/>
   </g>
   <g id="patch_19">
    <path d="M 125.254844 124.579062 
C 125.254844 124.579062 125.254844 124.579062 125.254844 124.579062 
C 125.254844 124.579062 125.254844 124.579062 125.254844 124.579062 
L 124.544708 131.789189 
C 124.780706 131.812433 125.017704 131.824076 125.254844 131.824076 
C 125.491984 131.824076 125.728981 131.812433 125.964979 131.789189 
z
" clip-path="url(#p93df6234df)" style="fill: #d9d9d9"/>
   </g>
   <g id="patch_20">
    <path d="M 125.254844 124.579062 
C 125.254844 124.579062 125.254844 124.579062 125.254844 124.579062 
C 125.254844 124.579062 125.254844 124.579062 125.254844 124.579062 
L 123.125921 131.597179 
C 123.355635 131.666862 123.588631 131.725224 123.824068 131.772056 
C 124.059506 131.818887 124.297101 131.854131 124.535995 131.87766 
z
" clip-path="url(#p93df6234df)" style="fill: #d9d9d9"/>
   </g>
   <g id="patch_21">
    <path d="M 125.254844 124.579062 
C 125.254844 124.579062 125.254844 124.579062 125.254844 124.579062 
C 125.254844 124.579062 125.254844 124.579062 125.254844 124.579062 
L 125.254844 124.579062 
C 125.254844 124.579062 125.254844 124.579062 125.254844 124.579062 
C 125.254844 124.579062 125.254844 124.579062 125.254844 124.579062 
z
" clip-path="url(#p93df6234df)" style="fill: #d9d9d9"/>
   </g>
   <g id="patch_22">
    <path d="M 125.254844 124.579062 
C 125.254844 124.579062 125.254844 124.579062 125.254844 124.579062 
C 125.254844 124.579062 125.254844 124.579062 125.254844 124.579062 
L 125.254844 124.579062 
C 125.254844 124.579062 125.254844 124.579062 125.254844 124.579062 
C 125.254844 124.579062 125.254844 124.579062 125.254844 124.579062 
z
" clip-path="url(#p93df6234df)" style="fill: #d9d9d9"/>
   </g>
   <g id="patch_23">
    <path d="M 125.254844 124.579062 
C 125.254844 124.579062 125.254844 124.579062 125.254844 124.579062 
C 125.254844 124.579062 125.254844 124.579062 125.254844 124.579062 
L 125.254844 124.579062 
C 125.254844 124.579062 125.254844 124.579062 125.254844 124.579062 
C 125.254844 124.579062 125.254844 124.579062 125.254844 124.579062 
z
" clip-path="url(#p93df6234df)" style="fill: #d9d9d9"/>
   </g>
   <g id="patch_24">
    <path d="M 125.254844 124.579062 
C 125.254844 124.579062 125.254844 124.579062 125.254844 124.579062 
C 125.254844 124.579062 125.254844 124.579062 125.254844 124.579062 
L 125.254844 124.579062 
C 125.254844 124.579062 125.254844 124.579062 125.254844 124.579062 
C 125.254844 124.579062 125.254844 124.579062 125.254844 124.579062 
z
" clip-path="url(#p93df6234df)" style="fill: #d9d9d9"/>
   </g>
   <g id="patch_25">
    <path d="M 125.254844 124.579062 
C 125.254844 124.579062 125.254844 124.579062 125.254844 124.579062 
C 125.254844 124.579062 125.254844 124.579062 125.254844 124.579062 
L 122.078657 125.542548 
C 122.110194 125.646509 122.146815 125.74886 122.18839 125.849229 
C 122.229964 125.949599 122.276441 126.047867 122.327654 126.143678 
z
" clip-path="url(#p93df6234df)" style="fill: #d9d9d9"/>
   </g>
   <g id="patch_26">
    <path d="M 125.254844 124.579062 
C 125.254844 124.579062 125.254844 124.579062 125.254844 124.579062 
C 125.254844 124.579062 125.254844 124.579062 125.254844 124.579062 
L 125.254844 124.579062 
C 125.254844 124.579062 125.254844 124.579062 125.254844 124.579062 
C 125.254844 124.579062 125.254844 124.579062 125.254844 124.579062 
z
" clip-path="url(#p93df6234df)" style="fill: #d9d9d9"/>
   </g>
   <g id="patch_27">
    <path d="M 125.254844 124.579062 
C 125.254844 124.579062 125.254844 124.579062 125.254844 124.579062 
C 125.254844 124.579062 125.254844 124.579062 125.254844 124.579062 
L 121.583627 124.217479 
C 121.571792 124.337644 121.565864 124.458317 121.565864 124.579062 
C 121.565864 124.699808 121.571792 124.820481 121.583627 124.940646 
z
" clip-path="url(#p93df6234df)" style="fill: #d9d9d9"/>
   </g>
   <g id="patch_28">
    <path d="M 125.254844 124.579062 
C 125.254844 124.579062 125.254844 124.579062 125.254844 124.579062 
C 125.254844 124.579062 125.254844 124.579062 125.254844 124.579062 
L 124.165421 124.24859 
C 124.154604 124.284248 124.145544 124.320416 124.138275 124.356963 
C 124.131005 124.39351 124.125534 124.430392 124.121882 124.467475 
z
" clip-path="url(#p93df6234df)" style="fill: #d9d9d9"/>
   </g>
   <g id="patch_29">
    <path d="M 125.254844 124.579062 
C 125.254844 124.579062 125.254844 124.579062 125.254844 124.579062 
C 125.254844 124.579062 125.254844 124.579062 125.254844 124.579062 
L 122.795512 123.264522 
C 122.752485 123.34502 122.713436 123.427581 122.678507 123.511909 
C 122.643577 123.596236 122.612809 123.682228 122.586313 123.769573 
z
" clip-path="url(#p93df6234df)" style="fill: #d9d9d9"/>
   </g>
   <g id="patch_30">
    <path d="M 125.254844 124.579062 
C 125.254844 124.579062 125.254844 124.579062 125.254844 124.579062 
C 125.254844 124.579062 125.254844 124.579062 125.254844 124.579062 
L 125.254844 124.579062 
C 125.254844 124.579062 125.254844 124.579062 125.254844 124.579062 
C 125.254844 124.579062 125.254844 124.579062 125.254844 124.579062 
z
" clip-path="url(#p93df6234df)" style="fill: #d9d9d9"/>
   </g>
   <g id="patch_31">
    <path d="M 125.254844 124.579062 
C 125.254844 124.579062 125.254844 124.579062 125.254844 124.579062 
C 125.254844 124.579062 125.254844 124.579062 125.254844 124.579062 
L 125.254844 124.579062 
C 125.254844 124.579062 125.254844 124.579062 125.254844 124.579062 
C 125.254844 124.579062 125.254844 124.579062 125.254844 124.579062 
z
" clip-path="url(#p93df6234df)" style="fill: #d9d9d9"/>
   </g>
   <g id="patch_32">
    <path d="M 125.254844 124.579062 
C 125.254844 124.579062 125.254844 124.579062 125.254844 124.579062 
C 125.254844 124.579062 125.254844 124.579062 125.254844 124.579062 
L 125.254844 124.579062 
C 125.254844 124.579062 125.254844 124.579062 125.254844 124.579062 
C 125.254844 124.579062 125.254844 124.579062 125.254844 124.579062 
z
" clip-path="url(#p93df6234df)" style="fill: #d9d9d9"/>
   </g>
   <g id="patch_33">
    <path d="M 125.254844 124.579062 
C 125.254844 124.579062 125.254844 124.579062 125.254844 124.579062 
C 125.254844 124.579062 125.254844 124.579062 125.254844 124.579062 
L 123.025683 117.230503 
C 122.785153 117.303467 122.548351 117.388196 122.316132 117.484384 
C 122.083912 117.580572 121.856555 117.688104 121.634882 117.806591 
z
" clip-path="url(#p93df6234df)" style="fill: #d9d9d9"/>
   </g>
   <g id="patch_34">
    <path d="M 125.254844 124.579062 
C 125.254844 124.579062 125.254844 124.579062 125.254844 124.579062 
C 125.254844 124.579062 125.254844 124.579062 125.254844 124.579062 
L 124.599418 117.924417 
C 124.381602 117.94587 124.16497 117.978005 123.950305 118.020704 
C 123.73564 118.063404 123.523201 118.116617 123.313755 118.180152 
z
" clip-path="url(#p93df6234df)" style="fill: #d9d9d9"/>
   </g>
   <g id="patch_35">
    <path d="M 124.344879 115.340036 
C 124.647286 115.310252 124.950973 115.295333 125.254844 115.295333 
C 125.558714 115.295333 125.862401 115.310252 126.164808 115.340036 
L 132.501989 50.997563 
C 130.093557 50.760353 127.674929 50.641534 125.254844 50.641534 
C 122.834758 50.641534 120.416131 50.760353 118.007699 50.997563 
z
" clip-path="url(#p93df6234df)" style="fill: #a1a1d8"/>
   </g>
   <g id="patch_36">
    <path d="M 125.254844 124.579062 
C 125.254844 124.579062 125.254844 124.579062 125.254844 124.579062 
C 125.254844 124.579062 125.254844 124.579062 125.254844 124.579062 
L 148.979941 46.3679 
C 146.419972 45.591342 143.82342 44.94094 141.199663 44.419042 
C 138.575906 43.897144 135.928107 43.50438 133.265829 43.242169 
z
" clip-path="url(#p93df6234df)" style="fill: #a1a1d8"/>
   </g>
   <g id="patch_37">
    <path d="M 125.659589 123.244797 
C 125.703261 123.258045 125.746257 123.273429 125.788421 123.290894 
C 125.830584 123.308359 125.871865 123.327883 125.912114 123.349397 
L 160.556223 58.534827 
C 158.394497 57.37936 156.177343 56.330724 153.91277 55.392708 
C 151.648198 54.454691 149.338936 53.628424 146.993326 52.916891 
z
" clip-path="url(#p93df6234df)" style="fill: #a1a1d8"/>
   </g>
   <g id="patch_38">
    <path d="M 125.254844 124.579062 
C 125.254844 124.579062 125.254844 124.579062 125.254844 124.579062 
C 125.254844 124.579062 125.254844 124.579062 125.254844 124.579062 
L 177.907693 60.421381 
C 175.807716 58.697974 173.62439 57.07871 171.365602 55.569436 
C 169.106814 54.060162 166.775286 52.662698 164.37944 51.382091 
z
" clip-path="url(#p93df6234df)" style="fill: #a1a1d8"/>
   </g>
   <g id="patch_39">
    <path d="M 125.254844 124.579062 
C 125.254844 124.579062 125.254844 124.579062 125.254844 124.579062 
C 125.254844 124.579062 125.254844 124.579062 125.254844 124.579062 
L 174.319919 84.312396 
C 173.001931 82.706423 171.605888 81.166127 170.136834 79.697072 
C 168.667779 78.228018 167.127484 76.831975 165.52151 75.513987 
z
" clip-path="url(#p93df6234df)" style="fill: #a1a1d8"/>
   </g>
   <g id="patch_40">
    <path d="M 126.134873 123.856841 
C 126.158512 123.885646 126.180723 123.915594 126.201425 123.946577 
C 126.222128 123.97756 126.241296 124.009541 126.258862 124.042404 
L 184.606653 92.854859 
C 183.568273 90.912186 182.435138 89.021665 181.211343 87.190125 
C 179.987547 85.358586 178.674565 83.588235 177.27714 81.885467 
z
" clip-path="url(#p93df6234df)" style="fill: #a1a1d8"/>
   </g>
   <g id="patch_41">
    <path d="M 125.254844 124.579062 
C 125.254844 124.579062 125.254844 124.579062 125.254844 124.579062 
C 125.254844 124.579062 125.254844 124.579062 125.254844 124.579062 
L 179.89459 108.004277 
C 179.352073 106.215836 178.722075 104.45511 178.006872 102.728457 
C 177.291669 101.001804 176.492123 99.311307 175.611122 97.663071 
z
" clip-path="url(#p93df6234df)" style="fill: #a1a1d8"/>
   </g>
   <g id="patch_42">
    <path d="M 127.565859 123.878024 
C 127.588805 123.953667 127.608023 124.030391 127.623444 124.107919 
C 127.638866 124.185446 127.650471 124.263685 127.658219 124.342351 
L 175.941446 119.586868 
C 175.778044 117.92782 175.533285 116.277794 175.208055 114.642751 
C 174.882825 113.007708 174.477514 111.389618 173.993588 109.794326 
z
" clip-path="url(#p93df6234df)" style="fill: #a1a1d8"/>
   </g>
   <g id="patch_43">
    <path d="M 125.254844 124.579062 
C 125.254844 124.579062 125.254844 124.579062 125.254844 124.579062 
C 125.254844 124.579062 125.254844 124.579062 125.254844 124.579062 
L 179.52479 129.924186 
C 179.699744 128.147849 179.787379 126.363994 179.787379 124.579062 
C 179.787379 122.794131 179.699744 121.010276 179.52479 119.233939 
z
" clip-path="url(#p93df6234df)" style="fill: #a1a1d8"/>
   </g>
   <g id="patch_44">
    <path d="M 130.193311 125.065459 
C 130.17739 125.227102 130.153543 125.387867 130.121856 125.547171 
C 130.090168 125.706476 130.050678 125.864129 130.003528 126.01956 
L 162.962099 136.017433 
C 163.336494 134.783219 163.650067 133.531366 163.901685 132.266397 
C 164.153303 131.001428 164.342662 129.724868 164.46908 128.441328 
z
" clip-path="url(#p93df6234df)" style="fill: #a1a1d8"/>
   </g>
   <g id="patch_45">
    <path d="M 133.658243 127.128206 
C 133.574806 127.403262 133.477914 127.674055 133.367919 127.939608 
C 133.257923 128.205161 133.134956 128.465154 132.999461 128.718647 
L 162.498361 144.486137 
C 163.149949 143.267101 163.741293 142.016809 164.270257 140.739776 
C 164.799222 139.462743 165.265168 138.160509 165.666414 136.837778 
z
" clip-path="url(#p93df6234df)" style="fill: #a1a1d8"/>
   </g>
   <g id="patch_46">
    <path d="M 136.091728 130.371498 
C 135.902133 130.726205 135.695237 131.07139 135.471787 131.405806 
C 135.248338 131.740222 135.008604 132.063465 134.753452 132.374369 
L 147.760201 143.048731 
C 148.36474 142.312098 148.932749 141.546226 149.462175 140.753884 
C 149.991601 139.961542 150.481806 139.143684 150.93102 138.303265 
z
" clip-path="url(#p93df6234df)" style="fill: #a1a1d8"/>
   </g>
   <g id="patch_47">
    <path d="M 127.121667 126.111125 
C 127.071521 126.172229 127.018404 126.230834 126.96251 126.286728 
C 126.906615 126.342623 126.84801 126.395739 126.786906 126.445886 
L 142.414249 145.487858 
C 143.098625 144.926205 143.755013 144.33129 144.381042 143.705261 
C 145.007071 143.079232 145.601986 142.422844 146.163639 141.738468 
z
" clip-path="url(#p93df6234df)" style="fill: #a1a1d8"/>
   </g>
   <g id="patch_48">
    <path d="M 127.360462 127.144766 
C 127.276483 127.213686 127.189171 127.278442 127.09884 127.338798 
C 127.00851 127.399155 126.915271 127.455041 126.81946 127.506253 
L 143.61532 158.929098 
C 144.739648 158.328133 145.833793 157.672328 146.893802 156.964052 
C 147.953811 156.255777 148.978407 155.495885 149.963889 154.687121 
z
" clip-path="url(#p93df6234df)" style="fill: #a1a1d8"/>
   </g>
   <g id="patch_49">
    <path d="M 127.226654 128.26806 
C 127.105908 128.3326 126.982065 128.391173 126.855574 128.443568 
C 126.729083 128.495962 126.600096 128.542114 126.469079 128.581858 
L 135.15525 157.216327 
C 136.223516 156.892272 137.275229 156.515964 138.306588 156.088761 
C 139.337947 155.661557 140.347711 155.183975 141.332231 154.657738 
z
" clip-path="url(#p93df6234df)" style="fill: #a1a1d8"/>
   </g>
   <g id="patch_50">
    <path d="M 127.69453 132.621631 
C 127.431285 132.701486 127.164278 132.768368 126.894473 132.822035 
C 126.624668 132.875703 126.352391 132.916091 126.078625 132.943055 
L 129.980524 172.559704 
C 131.551002 172.405025 133.11294 172.173334 134.660694 171.865466 
C 136.208449 171.557599 137.740155 171.173926 139.250281 170.715835 
z
" clip-path="url(#p93df6234df)" style="fill: #a1a1d8"/>
   </g>
   <g id="patch_51">
    <path d="M 125.964979 131.789189 
C 125.728981 131.812433 125.491984 131.824076 125.254844 131.824076 
C 125.017704 131.824076 124.780706 131.812433 124.544708 131.789189 
L 120.335514 174.525859 
C 121.970347 174.686876 123.6121 174.76753 125.254844 174.76753 
C 126.897587 174.76753 128.539341 174.686876 130.174174 174.525859 
z
" clip-path="url(#p93df6234df)" style="fill: #a1a1d8"/>
   </g>
   <g id="patch_52">
    <path d="M 124.535995 131.87766 
C 124.297101 131.854131 124.059506 131.818887 123.824068 131.772056 
C 123.588631 131.725224 123.355635 131.666862 123.125921 131.597179 
L 109.369788 176.945073 
C 111.083806 177.465015 112.822318 177.900489 114.579046 178.249924 
C 116.335773 178.599359 118.108598 178.862333 119.891117 179.037896 
z
" clip-path="url(#p93df6234df)" style="fill: #a1a1d8"/>
   </g>
   <g id="patch_53">
    <path d="M 125.254844 124.579062 
C 125.254844 124.579062 125.254844 124.579062 125.254844 124.579062 
C 125.254844 124.579062 125.254844 124.579062 125.254844 124.579062 
L 94.590066 181.948827 
C 96.467864 182.952531 98.393809 183.863436 100.360945 184.67825 
C 102.328081 185.493065 104.334037 186.210807 106.371567 186.828885 
z
" clip-path="url(#p93df6234df)" style="fill: #a1a1d8"/>
   </g>
   <g id="patch_54">
    <path d="M 125.254844 124.579062 
C 125.254844 124.579062 125.254844 124.579062 125.254844 124.579062 
C 125.254844 124.579062 125.254844 124.579062 125.254844 124.579062 
L 85.545811 172.964658 
C 87.129544 174.264394 88.776136 175.48559 90.479639 176.623834 
C 92.183142 177.762079 93.941503 178.816 95.748371 179.781791 
z
" clip-path="url(#p93df6234df)" style="fill: #a1a1d8"/>
   </g>
   <g id="patch_55">
    <path d="M 125.254844 124.579062 
C 125.254844 124.579062 125.254844 124.579062 125.254844 124.579062 
C 125.254844 124.579062 125.254844 124.579062 125.254844 124.579062 
L 79.764917 161.911681 
C 80.986869 163.400634 82.281188 164.828695 83.6432 166.190707 
C 85.005211 167.552718 86.433272 168.847037 87.922225 170.06899 
z
" clip-path="url(#p93df6234df)" style="fill: #a1a1d8"/>
   </g>
   <g id="patch_56">
    <path d="M 125.254844 124.579062 
C 125.254844 124.579062 125.254844 124.579062 125.254844 124.579062 
C 125.254844 124.579062 125.254844 124.579062 125.254844 124.579062 
L 76.242721 150.776588 
C 77.100205 152.380828 78.035936 153.942001 79.046534 155.454468 
C 80.057132 156.966935 81.141379 158.428873 82.295359 159.835001 
z
" clip-path="url(#p93df6234df)" style="fill: #a1a1d8"/>
   </g>
   <g id="patch_57">
    <path d="M 122.327654 126.143678 
C 122.276441 126.047867 122.229964 125.949599 122.18839 125.849229 
C 122.146815 125.74886 122.110194 125.646509 122.078657 125.542548 
L 76.638011 139.326818 
C 77.120727 140.918119 77.68128 142.484762 78.317647 144.021086 
C 78.954013 145.557411 79.665425 147.061565 80.449314 148.528117 
z
" clip-path="url(#p93df6234df)" style="fill: #a1a1d8"/>
   </g>
   <g id="patch_58">
    <path d="M 125.254844 124.579062 
C 125.254844 124.579062 125.254844 124.579062 125.254844 124.579062 
C 125.254844 124.579062 125.254844 124.579062 125.254844 124.579062 
L 71.849171 129.839062 
C 72.021339 131.58711 72.279227 133.32565 72.621904 135.048405 
C 72.964581 136.77116 73.391635 138.476052 73.901521 140.156923 
z
" clip-path="url(#p93df6234df)" style="fill: #a1a1d8"/>
   </g>
   <g id="patch_59">
    <path d="M 121.583627 124.940646 
C 121.571792 124.820481 121.565864 124.699808 121.565864 124.579062 
C 121.565864 124.458317 121.571792 124.337644 121.583627 124.217479 
L 66.362609 118.778684 
C 66.172754 120.706314 66.077655 122.642105 66.077655 124.579062 
C 66.077655 126.51602 66.172754 128.451811 66.362609 130.379441 
z
" clip-path="url(#p93df6234df)" style="fill: #a1a1d8"/>
   </g>
   <g id="patch_60">
    <path d="M 124.121882 124.467475 
C 124.125534 124.430392 124.131005 124.39351 124.138275 124.356963 
C 124.145544 124.320416 124.154604 124.284248 124.165421 124.24859 
L 62.847928 105.648132 
C 62.22829 107.690803 61.709316 109.762666 61.292879 111.856237 
C 60.876442 113.949807 60.563044 116.062562 60.353818 118.186869 
z
" clip-path="url(#p93df6234df)" style="fill: #a1a1d8"/>
   </g>
   <g id="patch_61">
    <path d="M 122.586313 123.769573 
C 122.612809 123.682228 122.643577 123.596236 122.678507 123.511909 
C 122.713436 123.427581 122.752485 123.34502 122.795512 123.264522 
L 67.705258 93.818168 
C 66.698408 95.701852 65.784649 97.633834 64.96728 99.607136 
C 64.149912 101.580438 63.42992 103.592681 62.809905 105.636597 
z
" clip-path="url(#p93df6234df)" style="fill: #a1a1d8"/>
   </g>
   <g id="patch_62">
    <path d="M 125.254844 124.579062 
C 125.254844 124.579062 125.254844 124.579062 125.254844 124.579062 
C 125.254844 124.579062 125.254844 124.579062 125.254844 124.579062 
L 68.120687 77.690272 
C 66.585947 79.560358 65.143948 81.504669 63.799899 83.516181 
C 62.455849 85.527693 61.21137 87.603982 60.070955 89.737548 
z
" clip-path="url(#p93df6234df)" style="fill: #a1a1d8"/>
   </g>
   <g id="patch_63">
    <path d="M 125.254844 124.579062 
C 125.254844 124.579062 125.254844 124.579062 125.254844 124.579062 
C 125.254844 124.579062 125.254844 124.579062 125.254844 124.579062 
L 77.282825 66.124988 
C 75.369536 67.695184 73.534492 69.358371 71.784322 71.108541 
C 70.034152 72.858711 68.370965 74.693754 66.800769 76.607043 
z
" clip-path="url(#p93df6234df)" style="fill: #a1a1d8"/>
   </g>
   <g id="patch_64">
    <path d="M 125.254844 124.579062 
C 125.254844 124.579062 125.254844 124.579062 125.254844 124.579062 
C 125.254844 124.579062 125.254844 124.579062 125.254844 124.579062 
L 85.681944 50.543375 
C 83.258646 51.838655 80.900403 53.252132 78.615732 54.7787 
C 76.331062 56.305268 74.12272 57.943086 71.998681 59.68624 
z
" clip-path="url(#p93df6234df)" style="fill: #a1a1d8"/>
   </g>
   <g id="patch_65">
    <path d="M 121.634882 117.806591 
C 121.856555 117.688104 122.083912 117.580572 122.316132 117.484384 
C 122.548351 117.388196 122.785153 117.303467 123.025683 117.230503 
L 103.330019 52.302601 
C 100.964302 53.020234 98.635246 53.853584 96.351261 54.799641 
C 94.067276 55.745698 91.831117 56.803323 89.65086 57.968694 
z
" clip-path="url(#p93df6234df)" style="fill: #a1a1d8"/>
   </g>
   <g id="patch_66">
    <path d="M 123.313755 118.180152 
C 123.523201 118.116617 123.73564 118.063404 123.950305 118.020704 
C 124.16497 117.978005 124.381602 117.94587 124.599418 117.924417 
L 118.573585 56.743108 
C 116.353213 56.961796 114.144917 57.289366 111.956671 57.724635 
C 109.768426 58.159904 107.60287 58.702347 105.467826 59.350006 
z
" clip-path="url(#p93df6234df)" style="fill: #a1a1d8"/>
   </g>
   <g id="patch_67">
    <path d="M 118.007699 50.997563 
C 120.416131 50.760353 122.834758 50.641534 125.254844 50.641534 
C 127.674929 50.641534 130.093557 50.760353 132.501989 50.997563 
L 134.381475 31.91482 
C 131.348436 31.616092 128.302558 31.466457 125.254844 31.466457 
C 122.207129 31.466457 119.161251 31.616092 116.128212 31.91482 
z
" clip-path="url(#p93df6234df)" style="fill: #ff8c8e"/>
   </g>
   <g id="patch_68">
    <path d="M 133.265829 43.242169 
C 135.928107 43.50438 138.575906 43.897144 141.199663 44.419042 
C 143.82342 44.94094 146.419972 45.591342 148.979941 46.3679 
L 154.985464 26.570342 
C 151.777492 25.597215 148.523676 24.782176 145.235768 24.128171 
C 141.947861 23.474165 138.629825 22.981981 135.293646 22.653396 
z
" clip-path="url(#p93df6234df)" style="fill: #ff8c8e"/>
   </g>
   <g id="patch_69">
    <path d="M 146.993326 52.916891 
C 149.338936 53.628424 151.648198 54.454691 153.91277 55.392708 
C 156.177343 56.330724 158.394497 57.37936 160.556223 58.534827 
L 171.360673 38.321122 
C 168.537322 36.81201 165.641579 35.442425 162.683905 34.217316 
C 159.72623 32.992207 156.710188 31.91305 153.646673 30.983743 
z
" clip-path="url(#p93df6234df)" style="fill: #ff8c8e"/>
   </g>
   <g id="patch_70">
    <path d="M 164.37944 51.382091 
C 166.775286 52.662698 169.106814 54.060162 171.365602 55.569436 
C 173.62439 57.07871 175.807716 58.697974 177.907693 60.421381 
L 186.311375 50.181464 
C 183.876231 48.182992 181.344435 46.305284 178.725132 44.555122 
C 176.105828 42.804959 173.402176 41.184452 170.62394 39.699454 
z
" clip-path="url(#p93df6234df)" style="fill: #ff8c8e"/>
   </g>
   <g id="patch_71">
    <path d="M 165.52151 75.513987 
C 167.127484 76.831975 168.667779 78.228018 170.136834 79.697072 
C 171.605888 81.166127 173.001931 82.706423 174.319919 84.312396 
L 189.349123 71.978247 
C 187.62742 69.880346 185.803753 67.868239 183.88471 65.949196 
C 181.965667 64.030153 179.953561 62.206487 177.855659 60.484783 
z
" clip-path="url(#p93df6234df)" style="fill: #ff8c8e"/>
   </g>
   <g id="patch_72">
    <path d="M 177.27714 81.885467 
C 178.674565 83.588235 179.987547 85.358586 181.211343 87.190125 
C 182.435138 89.021665 183.568273 90.912186 184.606653 92.854859 
L 193.631337 88.031066 
C 192.435066 85.793001 191.129634 83.615019 189.719755 81.504986 
C 188.309876 79.394953 186.79725 77.355413 185.187341 75.393733 
z
" clip-path="url(#p93df6234df)" style="fill: #ff8c8e"/>
   </g>
   <g id="patch_73">
    <path d="M 175.611122 97.663071 
C 176.492123 99.311307 177.291669 101.001804 178.006872 102.728457 
C 178.722075 104.45511 179.352073 106.215836 179.89459 108.004277 
L 205.062046 100.369812 
C 204.269641 97.757603 203.349462 95.185874 202.304831 92.663913 
C 201.260201 90.141952 200.092379 87.672799 198.805583 85.265373 
z
" clip-path="url(#p93df6234df)" style="fill: #ff8c8e"/>
   </g>
   <g id="patch_74">
    <path d="M 173.993588 109.794326 
C 174.477514 111.389618 174.882825 113.007708 175.208055 114.642751 
C 175.533285 116.277794 175.778044 117.92782 175.941446 119.586868 
L 200.811607 117.137371 
C 200.568029 114.664285 200.203177 112.204649 199.718367 109.767347 
C 199.233558 107.330044 198.629375 104.918014 197.908003 102.539968 
z
" clip-path="url(#p93df6234df)" style="fill: #ff8c8e"/>
   </g>
   <g id="patch_75">
    <path d="M 179.52479 119.233939 
C 179.699744 121.010276 179.787379 122.794131 179.787379 124.579062 
C 179.787379 126.363994 179.699744 128.147849 179.52479 129.924186 
L 192.272206 131.179697 
C 192.488255 128.986118 192.596475 126.783255 192.596475 124.579062 
C 192.596475 122.37487 192.488255 120.172007 192.272206 117.978428 
z
" clip-path="url(#p93df6234df)" style="fill: #ff8c8e"/>
   </g>
   <g id="patch_76">
    <path d="M 164.46908 128.441328 
C 164.342662 129.724868 164.153303 131.001428 163.901685 132.266397 
C 163.650067 133.531366 163.336494 134.783219 162.962099 136.017433 
L 179.780433 141.119219 
C 180.321817 139.334515 180.775251 137.524306 181.139096 135.695131 
C 181.502942 133.865956 181.776761 132.02002 181.959564 130.16399 
z
" clip-path="url(#p93df6234df)" style="fill: #ff8c8e"/>
   </g>
   <g id="patch_77">
    <path d="M 165.666414 136.837778 
C 165.265168 138.160509 164.799222 139.462743 164.270257 140.739776 
C 163.741293 142.016809 163.149949 143.267101 162.498361 144.486137 
L 187.402661 157.797763 
C 188.489959 155.763572 189.476728 153.677224 190.359404 151.546255 
C 191.242081 149.415285 192.019601 147.242263 192.689155 145.035037 
z
" clip-path="url(#p93df6234df)" style="fill: #ff8c8e"/>
   </g>
   <g id="patch_78">
    <path d="M 150.93102 138.303265 
C 150.481806 139.143684 149.991601 139.961542 149.462175 140.753884 
C 148.932749 141.546226 148.36474 142.312098 147.760201 143.048731 
L 173.536291 164.202622 
C 174.833229 162.622299 176.051797 160.979251 177.187591 159.279415 
C 178.323385 157.579578 179.375038 155.825002 180.33875 154.022024 
z
" clip-path="url(#p93df6234df)" style="fill: #ff8c8e"/>
   </g>
   <g id="patch_79">
    <path d="M 146.163639 141.738468 
C 145.601986 142.422844 145.007071 143.079232 144.381042 143.705261 
C 143.755013 144.33129 143.098625 144.926205 142.414249 145.487858 
L 156.623698 162.802123 
C 157.874796 161.775373 159.074729 160.687817 160.219164 159.543383 
C 161.363598 158.398948 162.451154 157.199015 163.477904 155.947917 
z
" clip-path="url(#p93df6234df)" style="fill: #ff8c8e"/>
   </g>
   <g id="patch_80">
    <path d="M 149.963889 154.687121 
C 148.978407 155.495885 147.953811 156.255777 146.893802 156.964052 
C 145.833793 157.672328 144.739648 158.328133 143.61532 158.929098 
L 151.394589 173.483086 
C 152.99529 172.627493 154.55302 171.693826 156.062151 170.685456 
C 157.571282 169.677087 159.029996 168.595232 160.433023 167.443797 
z
" clip-path="url(#p93df6234df)" style="fill: #ff8c8e"/>
   </g>
   <g id="patch_81">
    <path d="M 141.332231 154.657738 
C 140.347711 155.183975 139.337947 155.661557 138.306588 156.088761 
C 137.275229 156.515964 136.223516 156.892272 135.15525 157.216327 
L 142.635328 181.87484 
C 144.510704 181.305951 146.357019 180.645329 148.167604 179.89536 
C 149.978189 179.145391 151.750862 178.306979 153.479218 177.383153 
z
" clip-path="url(#p93df6234df)" style="fill: #ff8c8e"/>
   </g>
   <g id="patch_82">
    <path d="M 139.250281 170.715835 
C 137.740155 171.173926 136.208449 171.557599 134.660694 171.865466 
C 133.11294 172.173334 131.551002 172.405025 129.980524 172.559704 
L 131.166324 184.599324 
C 133.130876 184.405833 135.084745 184.116004 137.020873 183.730884 
C 138.957 183.345764 140.873052 182.865818 142.762108 182.292779 
z
" clip-path="url(#p93df6234df)" style="fill: #ff8c8e"/>
   </g>
   <g id="patch_83">
    <path d="M 130.174174 174.525859 
C 128.539341 174.686876 126.897587 174.76753 125.254844 174.76753 
C 123.6121 174.76753 121.970347 174.686876 120.335514 174.525859 
L 117.979832 198.443497 
C 120.397525 198.681619 122.825452 198.800895 125.254844 198.800895 
C 127.684235 198.800895 130.112162 198.681619 132.529856 198.443497 
z
" clip-path="url(#p93df6234df)" style="fill: #ff8c8e"/>
   </g>
   <g id="patch_84">
    <path d="M 119.891117 179.037896 
C 118.108598 178.862333 116.335773 178.599359 114.579046 178.249924 
C 112.822318 177.900489 111.083806 177.465015 109.369788 176.945073 
L 106.303732 187.052505 
C 108.348581 187.672803 110.422653 188.192331 112.518455 188.609212 
C 114.614258 189.026093 116.729264 189.339824 118.855837 189.549273 
z
" clip-path="url(#p93df6234df)" style="fill: #ff8c8e"/>
   </g>
   <g id="patch_85">
    <path d="M 106.371567 186.828885 
C 104.334037 186.210807 102.328081 185.493065 100.360945 184.67825 
C 98.393809 183.863436 96.467864 182.952531 94.590066 181.948827 
L 91.394269 187.927742 
C 93.467766 189.036049 95.594428 190.041885 97.766574 190.941617 
C 99.938719 191.841349 102.15373 192.633893 104.403605 193.316385 
z
" clip-path="url(#p93df6234df)" style="fill: #ff8c8e"/>
   </g>
   <g id="patch_86">
    <path d="M 95.748371 179.781791 
C 93.941503 178.816 92.183142 177.762079 90.479639 176.623834 
C 88.776136 175.48559 87.129544 174.264394 85.545811 172.964658 
L 79.706213 180.08023 
C 81.522849 181.571104 83.411588 182.971889 85.365608 184.277523 
C 87.319628 185.583157 89.336573 186.792067 91.409158 187.899887 
z
" clip-path="url(#p93df6234df)" style="fill: #ff8c8e"/>
   </g>
   <g id="patch_87">
    <path d="M 87.922225 170.06899 
C 86.433272 168.847037 85.005211 167.552718 83.6432 166.190707 
C 82.281188 164.828695 80.986869 163.400634 79.764917 161.911681 
L 73.729912 166.864482 
C 75.113977 168.550969 76.580009 170.168487 78.122714 171.711192 
C 79.665419 173.253897 81.282937 174.71993 82.969425 176.103995 
z
" clip-path="url(#p93df6234df)" style="fill: #ff8c8e"/>
   </g>
   <g id="patch_88">
    <path d="M 82.295359 159.835001 
C 81.141379 158.428873 80.057132 156.966935 79.046534 155.454468 
C 78.035936 153.942001 77.100205 152.380828 76.242721 150.776588 
L 68.166908 155.0932 
C 69.165681 156.961773 70.255594 158.780184 71.43271 160.541862 
C 72.609826 162.303541 73.872727 164.006365 75.216849 165.644183 
z
" clip-path="url(#p93df6234df)" style="fill: #ff8c8e"/>
   </g>
   <g id="patch_89">
    <path d="M 80.449314 148.528117 
C 79.665425 147.061565 78.954013 145.557411 78.317647 144.021086 
C 77.68128 142.484762 77.120727 140.918119 76.638011 139.326818 
L 63.459494 143.324477 
C 64.073059 145.347131 64.785561 147.338442 65.594427 149.291216 
C 66.403293 151.243991 67.307547 153.155875 68.303923 155.019964 
z
" clip-path="url(#p93df6234df)" style="fill: #ff8c8e"/>
   </g>
   <g id="patch_90">
    <path d="M 73.901521 140.156923 
C 73.391635 138.476052 72.964581 136.77116 72.621904 135.048405 
C 72.279227 133.32565 72.021339 131.58711 71.849171 129.839062 
L 47.479661 132.239249 
C 47.73039 134.784947 48.105955 137.316801 48.605 139.825664 
C 49.104044 142.334528 49.725965 144.817378 50.468518 147.265246 
z
" clip-path="url(#p93df6234df)" style="fill: #ff8c8e"/>
   </g>
   <g id="patch_91">
    <path d="M 66.362609 130.379441 
C 66.172754 128.451811 66.077655 126.51602 66.077655 124.579062 
C 66.077655 122.642105 66.172754 120.706314 66.362609 118.778684 
L 51.229841 117.288236 
C 50.991202 119.711185 50.871666 122.14439 50.871666 124.579062 
C 50.871666 127.013735 50.991202 129.44694 51.229841 131.869889 
z
" clip-path="url(#p93df6234df)" style="fill: #ff8c8e"/>
   </g>
   <g id="patch_92">
    <path d="M 60.353818 118.186869 
C 60.563044 116.062562 60.876442 113.949807 61.292879 111.856237 
C 61.709316 109.762666 62.22829 107.690803 62.847928 105.648132 
L 51.890478 102.324226 
C 51.162044 104.725551 50.551948 107.161193 50.062392 109.622354 
C 49.572837 112.083515 49.204413 114.567229 48.958451 117.064524 
z
" clip-path="url(#p93df6234df)" style="fill: #ff8c8e"/>
   </g>
   <g id="patch_93">
    <path d="M 62.809905 105.636597 
C 63.42992 103.592681 64.149912 101.580438 64.96728 99.607136 
C 65.784649 97.633834 66.698408 95.701852 67.705258 93.818168 
L 54.221019 86.610692 
C 52.978257 88.935735 51.850398 91.320393 50.841515 93.756052 
C 49.832632 96.191712 48.943941 98.675437 48.178652 101.198255 
z
" clip-path="url(#p93df6234df)" style="fill: #ff8c8e"/>
   </g>
   <g id="patch_94">
    <path d="M 60.070955 89.737548 
C 61.21137 87.603982 62.455849 85.527693 63.799899 83.516181 
C 65.143948 81.504669 66.585947 79.560358 68.120687 77.690272 
L 62.806873 73.329337 
C 61.129393 75.373353 59.553279 77.498496 58.084225 79.69709 
C 56.615171 81.895685 55.254948 84.165081 54.008468 86.497081 
z
" clip-path="url(#p93df6234df)" style="fill: #ff8c8e"/>
   </g>
   <g id="patch_95">
    <path d="M 66.800769 76.607043 
C 68.370965 74.693754 70.034152 72.858711 71.784322 71.108541 
C 73.534492 69.358371 75.369536 67.695184 77.282825 66.124988 
L 66.953651 53.538853 
C 64.628399 55.447138 62.398239 57.468437 60.271229 59.595447 
C 58.144218 61.722458 56.12292 63.952617 54.214634 66.277869 
z
" clip-path="url(#p93df6234df)" style="fill: #ff8c8e"/>
   </g>
   <g id="patch_96">
    <path d="M 71.998681 59.68624 
C 74.12272 57.943086 76.331062 56.305268 78.615732 54.7787 
C 80.900403 53.252132 83.258646 51.838655 85.681944 50.543375 
L 82.728234 45.017371 
C 80.124061 46.40933 77.589799 47.928309 75.134601 49.568819 
C 72.679404 51.209329 70.306231 52.969394 68.023654 54.842657 
z
" clip-path="url(#p93df6234df)" style="fill: #ff8c8e"/>
   </g>
   <g id="patch_97">
    <path d="M 89.65086 57.968694 
C 91.831117 56.803323 94.067276 55.745698 96.351261 54.799641 
C 98.635246 53.853584 100.964302 53.020234 103.330019 52.302601 
L 99.105691 38.376857 
C 96.284164 39.232758 93.50636 40.226672 90.782312 41.35501 
C 88.058265 42.483347 85.391257 43.744748 82.790923 45.134655 
z
" clip-path="url(#p93df6234df)" style="fill: #ff8c8e"/>
   </g>
   <g id="patch_98">
    <path d="M 105.467826 59.350006 
C 107.60287 58.702347 109.768426 58.159904 111.956671 57.724635 
C 114.144917 57.289366 116.353213 56.961796 118.573585 56.743108 
L 116.297248 33.631071 
C 113.320385 33.924266 110.359711 34.363441 107.42592 34.947008 
C 104.492129 35.530575 101.588757 36.257832 98.726293 37.126151 
z
" clip-path="url(#p93df6234df)" style="fill: #ff8c8e"/>
   </g>
   <g id="patch_99">
    <path d="M 116.128212 31.91482 
C 119.161251 31.616092 122.207129 31.466457 125.254844 31.466457 
C 128.302558 31.466457 131.348436 31.616092 134.381475 31.91482 
L 135.431922 21.249449 
C 132.04979 20.916338 128.653341 20.749481 125.254844 20.749481 
C 121.856347 20.749481 118.459898 20.916338 115.077765 21.249449 
z
" clip-path="url(#p93df6234df)" style="fill: #828282"/>
   </g>
   <g id="patch_100">
    <path d="M 135.293646 22.653396 
C 138.629825 22.981981 141.947861 23.474165 145.235768 24.128171 
C 148.523676 24.782176 151.777492 25.597215 154.985464 26.570342 
L 157.262977 19.062387 
C 153.809259 18.014713 150.306184 17.137238 146.766407 16.433133 
C 143.226629 15.729027 139.654415 15.199139 136.062668 14.845383 
z
" clip-path="url(#p93df6234df)" style="fill: #828282"/>
   </g>
   <g id="patch_101">
    <path d="M 153.646673 30.983743 
C 156.710188 31.91305 159.72623 32.992207 162.683905 34.217316 
C 165.641579 35.442425 168.537322 36.81201 171.360673 38.321122 
L 174.078997 33.235497 
C 171.089185 31.63741 168.022714 30.187077 164.89066 28.889738 
C 161.758605 27.592398 158.564743 26.449616 155.320609 25.465518 
z
" clip-path="url(#p93df6234df)" style="fill: #828282"/>
   </g>
   <g id="patch_102">
    <path d="M 170.62394 39.699454 
C 173.402176 41.184452 176.105828 42.804959 178.725132 44.555122 
C 181.344435 46.305284 183.876231 48.182992 186.311375 50.181464 
L 190.515033 45.059291 
C 187.912233 42.923228 185.206126 40.916242 182.406487 39.045584 
C 179.606849 37.174925 176.717054 35.442848 173.747539 33.85561 
z
" clip-path="url(#p93df6234df)" style="fill: #828282"/>
   </g>
   <g id="patch_103">
    <path d="M 177.855659 60.484783 
C 179.953561 62.206487 181.965667 64.030153 183.88471 65.949196 
C 185.803753 67.868239 187.62742 69.880346 189.349123 71.978247 
L 194.422557 67.814587 
C 192.564571 65.550625 190.59655 63.379249 188.525604 61.308302 
C 186.454658 59.237356 184.283282 57.269335 182.019319 55.411349 
z
" clip-path="url(#p93df6234df)" style="fill: #828282"/>
   </g>
   <g id="patch_104">
    <path d="M 185.187341 75.393733 
C 186.79725 77.355413 188.309876 79.394953 189.719755 81.504986 
C 191.129634 83.615019 192.435066 85.793001 193.631337 88.031066 
L 201.146244 84.014264 
C 199.818498 81.530225 198.369592 79.112872 196.804761 76.770936 
C 195.239929 74.429001 193.561059 72.165306 191.774213 69.988027 
z
" clip-path="url(#p93df6234df)" style="fill: #828282"/>
   </g>
   <g id="patch_105">
    <path d="M 198.805583 85.265373 
C 200.092379 87.672799 201.260201 90.141952 202.304831 92.663913 
C 203.349462 95.185874 204.269641 97.757603 205.062046 100.369812 
L 209.602497 98.992482 
C 208.76501 96.231657 207.792479 93.513615 206.688416 90.848172 
C 205.584354 88.18273 204.350091 85.5731 202.990086 83.02871 
z
" clip-path="url(#p93df6234df)" style="fill: #828282"/>
   </g>
   <g id="patch_106">
    <path d="M 197.908003 102.539968 
C 198.629375 104.918014 199.233558 107.330044 199.718367 109.767347 
C 200.203177 112.204649 200.568029 114.664285 200.811607 117.137371 
L 209.220251 116.309192 
C 208.949566 113.560879 208.544109 110.827512 208.005346 108.118964 
C 207.466582 105.410417 206.795161 102.729954 205.993508 100.087257 
z
" clip-path="url(#p93df6234df)" style="fill: #828282"/>
   </g>
   <g id="patch_107">
    <path d="M 192.272206 117.978428 
C 192.488255 120.172007 192.596475 122.37487 192.596475 124.579062 
C 192.596475 126.783255 192.488255 128.986118 192.272206 131.179697 
L 201.622705 132.10064 
C 201.868898 129.601006 201.992217 127.090791 201.992217 124.579062 
C 201.992217 122.067334 201.868898 119.557119 201.622705 117.057485 
z
" clip-path="url(#p93df6234df)" style="fill: #828282"/>
   </g>
   <g id="patch_108">
    <path d="M 181.959564 130.16399 
C 181.776761 132.02002 181.502942 133.865956 181.139096 135.695131 
C 180.775251 137.524306 180.321817 139.334515 179.780433 141.119219 
L 187.347172 143.414564 
C 187.963686 141.38219 188.480044 139.320771 188.894382 137.237754 
C 189.30872 135.154737 189.620538 133.052632 189.828709 130.939033 
z
" clip-path="url(#p93df6234df)" style="fill: #828282"/>
   </g>
   <g id="patch_109">
    <path d="M 192.689155 145.035037 
C 192.019601 147.242263 191.242081 149.415285 190.359404 151.546255 
C 189.476728 153.677224 188.489959 155.763572 187.402661 157.797763 
L 195.947261 162.364947 
C 197.18405 160.051078 198.306488 157.677882 199.310522 155.253929 
C 200.314556 152.829976 201.198976 150.358189 201.960586 147.847495 
z
" clip-path="url(#p93df6234df)" style="fill: #828282"/>
   </g>
   <g id="patch_110">
    <path d="M 180.33875 154.022024 
C 179.375038 155.825002 178.323385 157.579578 177.187591 159.279415 
C 176.051797 160.979251 174.833229 162.622299 173.536291 164.202622 
L 182.696548 171.720251 
C 184.239549 169.840098 185.68931 167.885321 187.040595 165.862981 
C 188.391879 163.840642 189.643058 161.753176 190.789611 159.608125 
z
" clip-path="url(#p93df6234df)" style="fill: #828282"/>
   </g>
   <g id="patch_111">
    <path d="M 163.477904 155.947917 
C 162.451154 157.199015 161.363598 158.398948 160.219164 159.543383 
C 159.074729 160.687817 157.874796 161.775373 156.623698 162.802123 
L 161.257409 168.448315 
C 162.693315 167.269898 164.070499 166.021691 165.383986 164.708204 
C 166.697472 163.394718 167.945679 162.017534 169.124097 160.581628 
z
" clip-path="url(#p93df6234df)" style="fill: #828282"/>
   </g>
   <g id="patch_112">
    <path d="M 160.433023 167.443797 
C 159.029996 168.595232 157.571282 169.677087 156.062151 170.685456 
C 154.55302 171.693826 152.99529 172.627493 151.394589 173.483086 
L 155.1853 180.575007 
C 157.018131 179.595339 158.801758 178.526274 160.529739 177.371674 
C 162.25772 176.217074 163.927972 174.978331 165.534461 173.659919 
z
" clip-path="url(#p93df6234df)" style="fill: #828282"/>
   </g>
   <g id="patch_113">
    <path d="M 153.479218 177.383153 
C 151.750862 178.306979 149.978189 179.145391 148.167604 179.89536 
C 146.357019 180.645329 144.510704 181.305951 142.635328 181.87484 
L 142.855432 182.600425 
C 144.754557 182.024332 146.624254 181.355343 148.457768 180.595877 
C 150.291282 179.836411 152.086403 178.987382 153.836648 178.051856 
z
" clip-path="url(#p93df6234df)" style="fill: #828282"/>
   </g>
   <g id="patch_114">
    <path d="M 142.762108 182.292779 
C 140.873052 182.865818 138.957 183.345764 137.020873 183.730884 
C 135.084745 184.116004 133.130876 184.405833 131.166324 184.599324 
L 131.608448 189.088294 
C 133.719932 188.880331 135.819932 188.568825 137.900865 188.154902 
C 139.981797 187.740979 142.041152 187.225137 144.071492 186.60924 
z
" clip-path="url(#p93df6234df)" style="fill: #828282"/>
   </g>
   <g id="patch_115">
    <path d="M 132.529856 198.443497 
C 130.112162 198.681619 127.684235 198.800895 125.254844 198.800895 
C 122.825452 198.800895 120.397525 198.681619 117.979832 198.443497 
L 117.571528 202.589074 
C 120.124912 202.840561 122.689105 202.966531 125.254844 202.966531 
C 127.820583 202.966531 130.384775 202.840561 132.938159 202.589074 
z
" clip-path="url(#p93df6234df)" style="fill: #828282"/>
   </g>
   <g id="patch_116">
    <path d="M 118.855837 189.549273 
C 116.729264 189.339824 114.614258 189.026093 112.518455 188.609212 
C 110.422653 188.192331 108.348581 187.672803 106.303732 187.052505 
L 106.287891 187.104726 
C 108.334449 187.725543 110.410255 188.245505 112.507809 188.662734 
C 114.605363 189.079964 116.722138 189.393958 118.850488 189.603582 
z
" clip-path="url(#p93df6234df)" style="fill: #828282"/>
   </g>
   <g id="patch_117">
    <path d="M 104.403605 193.316385 
C 102.15373 192.633893 99.938719 191.841349 97.766574 190.941617 
C 95.594428 190.041885 93.467766 189.036049 91.394269 187.927742 
L 91.121068 188.438866 
C 93.211294 189.556116 95.355115 190.570067 97.544786 191.477059 
C 99.734458 192.38405 101.96734 193.182988 104.235368 193.870987 
z
" clip-path="url(#p93df6234df)" style="fill: #828282"/>
   </g>
   <g id="patch_118">
    <path d="M 91.409158 187.899887 
C 89.336573 186.792067 87.319628 185.583157 85.365608 184.277523 
C 83.411588 182.971889 81.522849 181.571104 79.706213 180.08023 
L 78.327135 181.760641 
C 80.198774 183.296655 82.144698 184.73985 84.15788 186.085015 
C 86.171062 187.43018 88.249074 188.675693 90.384411 189.817054 
z
" clip-path="url(#p93df6234df)" style="fill: #828282"/>
   </g>
   <g id="patch_119">
    <path d="M 82.969425 176.103995 
C 81.282937 174.71993 79.665419 173.253897 78.122714 171.711192 
C 76.580009 170.168487 75.113977 168.550969 73.729912 166.864482 
L 69.64564 170.216357 
C 71.139417 172.036529 72.721658 173.782264 74.38665 175.447256 
C 76.051642 177.112248 77.797377 178.69449 79.61755 180.188266 
z
" clip-path="url(#p93df6234df)" style="fill: #828282"/>
   </g>
   <g id="patch_120">
    <path d="M 75.216849 165.644183 
C 73.872727 164.006365 72.609826 162.303541 71.43271 160.541862 
C 70.255594 158.780184 69.165681 156.961773 68.166908 155.0932 
L 65.729193 156.396186 
C 66.770615 158.344549 67.907068 160.240607 69.134449 162.077512 
C 70.361829 163.914416 71.678656 165.689952 73.080174 167.397707 
z
" clip-path="url(#p93df6234df)" style="fill: #828282"/>
   </g>
   <g id="patch_121">
    <path d="M 68.303923 155.019964 
C 67.307547 153.155875 66.403293 151.243991 65.594427 149.291216 
C 64.785561 147.338442 64.073059 145.347131 63.459494 143.324477 
L 54.237335 146.121988 
C 54.942467 148.446497 55.761302 150.734985 56.69088 152.979186 
C 57.620458 155.223387 58.659661 157.420596 59.804733 159.562875 
z
" clip-path="url(#p93df6234df)" style="fill: #828282"/>
   </g>
   <g id="patch_122">
    <path d="M 50.468518 147.265246 
C 49.725965 144.817378 49.104044 142.334528 48.605 139.825664 
C 48.105955 137.316801 47.73039 134.784947 47.479661 132.239249 
L 37.635042 133.20886 
C 37.917508 136.076787 38.340611 138.929117 38.902823 141.755547 
C 39.465035 144.581978 40.165679 147.379102 41.002222 150.136816 
z
" clip-path="url(#p93df6234df)" style="fill: #828282"/>
   </g>
   <g id="patch_123">
    <path d="M 51.229841 131.869889 
C 50.991202 129.44694 50.871666 127.013735 50.871666 124.579062 
C 50.871666 122.14439 50.991202 119.711185 51.229841 117.288236 
L 40.41119 116.222692 
C 40.137674 118.999751 40.000668 121.788566 40.000668 124.579062 
C 40.000668 127.369559 40.137674 130.158374 40.41119 132.935433 
z
" clip-path="url(#p93df6234df)" style="fill: #828282"/>
   </g>
   <g id="patch_124">
    <path d="M 48.958451 117.064524 
C 49.204413 114.567229 49.572837 112.083515 50.062392 109.622354 
C 50.551948 107.161193 51.162044 104.725551 51.890478 102.324226 
L 41.136153 99.061937 
C 40.300939 101.815267 39.60141 104.607944 39.040091 107.429882 
C 38.478773 110.25182 38.056343 113.099616 37.774325 115.962983 
z
" clip-path="url(#p93df6234df)" style="fill: #828282"/>
   </g>
   <g id="patch_125">
    <path d="M 48.178652 101.198255 
C 48.943941 98.675437 49.832632 96.191712 50.841515 93.756052 
C 51.850398 91.320393 52.978257 88.935735 54.221019 86.610692 
L 41.282682 79.695007 
C 39.81356 82.443541 38.480268 85.262549 37.287624 88.141847 
C 36.09498 91.021145 35.044419 93.957264 34.139739 96.939598 
z
" clip-path="url(#p93df6234df)" style="fill: #828282"/>
   </g>
   <g id="patch_126">
    <path d="M 54.008468 86.497081 
C 55.254948 84.165081 56.615171 81.895685 58.084225 79.69709 
C 59.553279 77.498496 61.129393 75.373353 62.806873 73.329337 
L 48.306376 61.429087 
C 46.239383 63.947725 44.297294 66.566329 42.487124 69.27544 
C 40.676954 71.984551 39.000884 74.780904 37.46497 77.654397 
z
" clip-path="url(#p93df6234df)" style="fill: #828282"/>
   </g>
   <g id="patch_127">
    <path d="M 54.214634 66.277869 
C 56.12292 63.952617 58.144218 61.722458 60.271229 59.595447 
C 62.398239 57.468437 64.628399 55.447138 66.953651 53.538853 
L 57.360287 41.849306 
C 54.652419 44.071596 52.055291 46.425496 49.578284 48.902503 
C 47.101277 51.379509 44.747377 53.976637 42.525087 56.684506 
z
" clip-path="url(#p93df6234df)" style="fill: #828282"/>
   </g>
   <g id="patch_128">
    <path d="M 68.023654 54.842657 
C 70.306231 52.969394 72.679404 51.209329 75.134601 49.568819 
C 77.589799 47.928309 80.124061 46.40933 82.728234 45.017371 
L 72.986373 26.791632 
C 69.785645 28.502457 66.670842 30.369398 63.653216 32.385711 
C 60.63559 34.402024 57.718778 36.56528 54.913316 38.867663 
z
" clip-path="url(#p93df6234df)" style="fill: #828282"/>
   </g>
   <g id="patch_129">
    <path d="M 82.790923 45.134655 
C 85.391257 43.744748 88.058265 42.483347 90.782312 41.35501 
C 93.50636 40.226672 96.284164 39.232758 99.105691 38.376857 
L 95.892931 27.785809 
C 92.724744 28.746869 89.605651 29.862898 86.546919 31.129866 
C 83.488187 32.396834 80.493504 33.813214 77.573685 35.37389 
z
" clip-path="url(#p93df6234df)" style="fill: #828282"/>
   </g>
   <g id="patch_130">
    <path d="M 98.726293 37.126151 
C 101.588757 36.257832 104.492129 35.530575 107.42592 34.947008 
C 110.359711 34.363441 113.320385 33.924266 116.297248 33.631071 
L 114.694089 17.353917 
C 111.18445 17.699586 107.693897 18.217361 104.235039 18.90537 
C 100.776182 19.59338 97.353188 20.450795 93.978422 21.474519 
z
" clip-path="url(#p93df6234df)" style="fill: #828282"/>
   </g>
   <g id="patch_131">
    <path d="M 125.254844 124.579062 
C 125.254844 124.579062 125.254844 124.579062 125.254844 124.579062 
C 125.254844 124.579062 125.254844 124.579062 125.254844 124.579062 
L 135.431922 21.249449 
C 132.04979 20.916338 128.653341 20.749481 125.254844 20.749481 
C 121.856347 20.749481 118.459898 20.916338 115.077765 21.249449 
L 125.254844 124.579062 
z
" clip-path="url(#p93df6234df)" style="fill: none; stroke: #292929; stroke-width: 0.5; stroke-linejoin: miter"/>
   </g>
   <g id="patch_132">
    <path d="M 125.254844 124.579062 
C 125.254844 124.579062 125.254844 124.579062 125.254844 124.579062 
C 125.254844 124.579062 125.254844 124.579062 125.254844 124.579062 
L 157.262977 19.062387 
C 153.809259 18.014713 150.306184 17.137238 146.766407 16.433133 
C 143.226629 15.729027 139.654415 15.199139 136.062668 14.845383 
L 125.254844 124.579062 
z
" clip-path="url(#p93df6234df)" style="fill: none; stroke: #292929; stroke-width: 0.5; stroke-linejoin: miter"/>
   </g>
   <g id="patch_133">
    <path d="M 125.254844 124.579062 
C 125.254844 124.579062 125.254844 124.579062 125.254844 124.579062 
C 125.254844 124.579062 125.254844 124.579062 125.254844 124.579062 
L 174.078997 33.235497 
C 171.089185 31.63741 168.022714 30.187077 164.89066 28.889738 
C 161.758605 27.592398 158.564743 26.449616 155.320609 25.465518 
L 125.254844 124.579062 
z
" clip-path="url(#p93df6234df)" style="fill: none; stroke: #292929; stroke-width: 0.5; stroke-linejoin: miter"/>
   </g>
   <g id="patch_134">
    <path d="M 125.254844 124.579062 
C 125.254844 124.579062 125.254844 124.579062 125.254844 124.579062 
C 125.254844 124.579062 125.254844 124.579062 125.254844 124.579062 
L 190.515033 45.059291 
C 187.912233 42.923228 185.206126 40.916242 182.406487 39.045584 
C 179.606849 37.174925 176.717054 35.442848 173.747539 33.85561 
L 125.254844 124.579062 
z
" clip-path="url(#p93df6234df)" style="fill: none; stroke: #292929; stroke-width: 0.5; stroke-linejoin: miter"/>
   </g>
   <g id="patch_135">
    <path d="M 125.254844 124.579062 
C 125.254844 124.579062 125.254844 124.579062 125.254844 124.579062 
C 125.254844 124.579062 125.254844 124.579062 125.254844 124.579062 
L 194.422557 67.814587 
C 192.564571 65.550625 190.59655 63.379249 188.525604 61.308302 
C 186.454658 59.237356 184.283282 57.269335 182.019319 55.411349 
L 125.254844 124.579062 
z
" clip-path="url(#p93df6234df)" style="fill: none; stroke: #292929; stroke-width: 0.5; stroke-linejoin: miter"/>
   </g>
   <g id="patch_136">
    <path d="M 125.254844 124.579062 
C 125.254844 124.579062 125.254844 124.579062 125.254844 124.579062 
C 125.254844 124.579062 125.254844 124.579062 125.254844 124.579062 
L 201.146244 84.014264 
C 199.818498 81.530225 198.369592 79.112872 196.804761 76.770936 
C 195.239929 74.429001 193.561059 72.165306 191.774213 69.988027 
L 125.254844 124.579062 
z
" clip-path="url(#p93df6234df)" style="fill: none; stroke: #292929; stroke-width: 0.5; stroke-linejoin: miter"/>
   </g>
   <g id="patch_137">
    <path d="M 125.254844 124.579062 
C 125.254844 124.579062 125.254844 124.579062 125.254844 124.579062 
C 125.254844 124.579062 125.254844 124.579062 125.254844 124.579062 
L 209.602497 98.992482 
C 208.76501 96.231657 207.792479 93.513615 206.688416 90.848172 
C 205.584354 88.18273 204.350091 85.5731 202.990086 83.02871 
L 125.254844 124.579062 
z
" clip-path="url(#p93df6234df)" style="fill: none; stroke: #292929; stroke-width: 0.5; stroke-linejoin: miter"/>
   </g>
   <g id="patch_138">
    <path d="M 125.254844 124.579062 
C 125.254844 124.579062 125.254844 124.579062 125.254844 124.579062 
C 125.254844 124.579062 125.254844 124.579062 125.254844 124.579062 
L 209.220251 116.309192 
C 208.949566 113.560879 208.544109 110.827512 208.005346 108.118964 
C 207.466582 105.410417 206.795161 102.729954 205.993508 100.087257 
L 125.254844 124.579062 
z
" clip-path="url(#p93df6234df)" style="fill: none; stroke: #292929; stroke-width: 0.5; stroke-linejoin: miter"/>
   </g>
   <g id="patch_139">
    <path d="M 125.254844 124.579062 
C 125.254844 124.579062 125.254844 124.579062 125.254844 124.579062 
C 125.254844 124.579062 125.254844 124.579062 125.254844 124.579062 
L 201.622705 132.10064 
C 201.868898 129.601006 201.992217 127.090791 201.992217 124.579062 
C 201.992217 122.067334 201.868898 119.557119 201.622705 117.057485 
L 125.254844 124.579062 
z
" clip-path="url(#p93df6234df)" style="fill: none; stroke: #292929; stroke-width: 0.5; stroke-linejoin: miter"/>
   </g>
   <g id="patch_140">
    <path d="M 125.254844 124.579062 
C 125.254844 124.579062 125.254844 124.579062 125.254844 124.579062 
C 125.254844 124.579062 125.254844 124.579062 125.254844 124.579062 
L 187.347172 143.414564 
C 187.963686 141.38219 188.480044 139.320771 188.894382 137.237754 
C 189.30872 135.154737 189.620538 133.052632 189.828709 130.939033 
L 125.254844 124.579062 
z
" clip-path="url(#p93df6234df)" style="fill: none; stroke: #292929; stroke-width: 0.5; stroke-linejoin: miter"/>
   </g>
   <g id="patch_141">
    <path d="M 125.254844 124.579062 
C 125.254844 124.579062 125.254844 124.579062 125.254844 124.579062 
C 125.254844 124.579062 125.254844 124.579062 125.254844 124.579062 
L 195.947261 162.364947 
C 197.18405 160.051078 198.306488 157.677882 199.310522 155.253929 
C 200.314556 152.829976 201.198976 150.358189 201.960586 147.847495 
L 125.254844 124.579062 
z
" clip-path="url(#p93df6234df)" style="fill: none; stroke: #292929; stroke-width: 0.5; stroke-linejoin: miter"/>
   </g>
   <g id="patch_142">
    <path d="M 125.254844 124.579062 
C 125.254844 124.579062 125.254844 124.579062 125.254844 124.579062 
C 125.254844 124.579062 125.254844 124.579062 125.254844 124.579062 
L 182.696548 171.720251 
C 184.239549 169.840098 185.68931 167.885321 187.040595 165.862981 
C 188.391879 163.840642 189.643058 161.753176 190.789611 159.608125 
L 125.254844 124.579062 
z
" clip-path="url(#p93df6234df)" style="fill: none; stroke: #292929; stroke-width: 0.5; stroke-linejoin: miter"/>
   </g>
   <g id="patch_143">
    <path d="M 125.254844 124.579062 
C 125.254844 124.579062 125.254844 124.579062 125.254844 124.579062 
C 125.254844 124.579062 125.254844 124.579062 125.254844 124.579062 
L 161.257409 168.448315 
C 162.693315 167.269898 164.070499 166.021691 165.383986 164.708204 
C 166.697472 163.394718 167.945679 162.017534 169.124097 160.581628 
L 125.254844 124.579062 
z
" clip-path="url(#p93df6234df)" style="fill: none; stroke: #292929; stroke-width: 0.5; stroke-linejoin: miter"/>
   </g>
   <g id="patch_144">
    <path d="M 125.254844 124.579062 
C 125.254844 124.579062 125.254844 124.579062 125.254844 124.579062 
C 125.254844 124.579062 125.254844 124.579062 125.254844 124.579062 
L 155.1853 180.575007 
C 157.018131 179.595339 158.801758 178.526274 160.529739 177.371674 
C 162.25772 176.217074 163.927972 174.978331 165.534461 173.659919 
L 125.254844 124.579062 
z
" clip-path="url(#p93df6234df)" style="fill: none; stroke: #292929; stroke-width: 0.5; stroke-linejoin: miter"/>
   </g>
   <g id="patch_145">
    <path d="M 125.254844 124.579062 
C 125.254844 124.579062 125.254844 124.579062 125.254844 124.579062 
C 125.254844 124.579062 125.254844 124.579062 125.254844 124.579062 
L 142.855432 182.600425 
C 144.754557 182.024332 146.624254 181.355343 148.457768 180.595877 
C 150.291282 179.836411 152.086403 178.987382 153.836648 178.051856 
L 125.254844 124.579062 
z
" clip-path="url(#p93df6234df)" style="fill: none; stroke: #292929; stroke-width: 0.5; stroke-linejoin: miter"/>
   </g>
   <g id="patch_146">
    <path d="M 125.254844 124.579062 
C 125.254844 124.579062 125.254844 124.579062 125.254844 124.579062 
C 125.254844 124.579062 125.254844 124.579062 125.254844 124.579062 
L 131.608448 189.088294 
C 133.719932 188.880331 135.819932 188.568825 137.900865 188.154902 
C 139.981797 187.740979 142.041152 187.225137 144.071492 186.60924 
L 125.254844 124.579062 
z
" clip-path="url(#p93df6234df)" style="fill: none; stroke: #292929; stroke-width: 0.5; stroke-linejoin: miter"/>
   </g>
   <g id="patch_147">
    <path d="M 125.254844 124.579062 
C 125.254844 124.579062 125.254844 124.579062 125.254844 124.579062 
C 125.254844 124.579062 125.254844 124.579062 125.254844 124.579062 
L 117.571528 202.589074 
C 120.124912 202.840561 122.689105 202.966531 125.254844 202.966531 
C 127.820583 202.966531 130.384775 202.840561 132.938159 202.589074 
L 125.254844 124.579062 
z
" clip-path="url(#p93df6234df)" style="fill: none; stroke: #292929; stroke-width: 0.5; stroke-linejoin: miter"/>
   </g>
   <g id="patch_148">
    <path d="M 125.254844 124.579062 
C 125.254844 124.579062 125.254844 124.579062 125.254844 124.579062 
C 125.254844 124.579062 125.254844 124.579062 125.254844 124.579062 
L 106.287891 187.104726 
C 108.334449 187.725543 110.410255 188.245505 112.507809 188.662734 
C 114.605363 189.079964 116.722138 189.393958 118.850488 189.603582 
L 125.254844 124.579062 
z
" clip-path="url(#p93df6234df)" style="fill: none; stroke: #292929; stroke-width: 0.5; stroke-linejoin: miter"/>
   </g>
   <g id="patch_149">
    <path d="M 125.254844 124.579062 
C 125.254844 124.579062 125.254844 124.579062 125.254844 124.579062 
C 125.254844 124.579062 125.254844 124.579062 125.254844 124.579062 
L 91.121068 188.438866 
C 93.211294 189.556116 95.355115 190.570067 97.544786 191.477059 
C 99.734458 192.38405 101.96734 193.182988 104.235368 193.870987 
L 125.254844 124.579062 
z
" clip-path="url(#p93df6234df)" style="fill: none; stroke: #292929; stroke-width: 0.5; stroke-linejoin: miter"/>
   </g>
   <g id="patch_150">
    <path d="M 125.254844 124.579062 
C 125.254844 124.579062 125.254844 124.579062 125.254844 124.579062 
C 125.254844 124.579062 125.254844 124.579062 125.254844 124.579062 
L 78.327135 181.760641 
C 80.198774 183.296655 82.144698 184.73985 84.15788 186.085015 
C 86.171062 187.43018 88.249074 188.675693 90.384411 189.817054 
L 125.254844 124.579062 
z
" clip-path="url(#p93df6234df)" style="fill: none; stroke: #292929; stroke-width: 0.5; stroke-linejoin: miter"/>
   </g>
   <g id="patch_151">
    <path d="M 125.254844 124.579062 
C 125.254844 124.579062 125.254844 124.579062 125.254844 124.579062 
C 125.254844 124.579062 125.254844 124.579062 125.254844 124.579062 
L 69.64564 170.216357 
C 71.139417 172.036529 72.721658 173.782264 74.38665 175.447256 
C 76.051642 177.112248 77.797377 178.69449 79.61755 180.188266 
L 125.254844 124.579062 
z
" clip-path="url(#p93df6234df)" style="fill: none; stroke: #292929; stroke-width: 0.5; stroke-linejoin: miter"/>
   </g>
   <g id="patch_152">
    <path d="M 125.254844 124.579062 
C 125.254844 124.579062 125.254844 124.579062 125.254844 124.579062 
C 125.254844 124.579062 125.254844 124.579062 125.254844 124.579062 
L 65.729193 156.396186 
C 66.770615 158.344549 67.907068 160.240607 69.134449 162.077512 
C 70.361829 163.914416 71.678656 165.689952 73.080174 167.397707 
L 125.254844 124.579062 
z
" clip-path="url(#p93df6234df)" style="fill: none; stroke: #292929; stroke-width: 0.5; stroke-linejoin: miter"/>
   </g>
   <g id="patch_153">
    <path d="M 125.254844 124.579062 
C 125.254844 124.579062 125.254844 124.579062 125.254844 124.579062 
C 125.254844 124.579062 125.254844 124.579062 125.254844 124.579062 
L 54.237335 146.121988 
C 54.942467 148.446497 55.761302 150.734985 56.69088 152.979186 
C 57.620458 155.223387 58.659661 157.420596 59.804733 159.562875 
L 125.254844 124.579062 
z
" clip-path="url(#p93df6234df)" style="fill: none; stroke: #292929; stroke-width: 0.5; stroke-linejoin: miter"/>
   </g>
   <g id="patch_154">
    <path d="M 125.254844 124.579062 
C 125.254844 124.579062 125.254844 124.579062 125.254844 124.579062 
C 125.254844 124.579062 125.254844 124.579062 125.254844 124.579062 
L 37.635042 133.20886 
C 37.917508 136.076787 38.340611 138.929117 38.902823 141.755547 
C 39.465035 144.581978 40.165679 147.379102 41.002222 150.136816 
L 125.254844 124.579062 
z
" clip-path="url(#p93df6234df)" style="fill: none; stroke: #292929; stroke-width: 0.5; stroke-linejoin: miter"/>
   </g>
   <g id="patch_155">
    <path d="M 125.254844 124.579062 
C 125.254844 124.579062 125.254844 124.579062 125.254844 124.579062 
C 125.254844 124.579062 125.254844 124.579062 125.254844 124.579062 
L 40.41119 116.222692 
C 40.137674 118.999751 40.000668 121.788566 40.000668 124.579062 
C 40.000668 127.369559 40.137674 130.158374 40.41119 132.935433 
L 125.254844 124.579062 
z
" clip-path="url(#p93df6234df)" style="fill: none; stroke: #292929; stroke-width: 0.5; stroke-linejoin: miter"/>
   </g>
   <g id="patch_156">
    <path d="M 125.254844 124.579062 
C 125.254844 124.579062 125.254844 124.579062 125.254844 124.579062 
C 125.254844 124.579062 125.254844 124.579062 125.254844 124.579062 
L 41.136153 99.061937 
C 40.300939 101.815267 39.60141 104.607944 39.040091 107.429882 
C 38.478773 110.25182 38.056343 113.099616 37.774325 115.962983 
L 125.254844 124.579062 
z
" clip-path="url(#p93df6234df)" style="fill: none; stroke: #292929; stroke-width: 0.5; stroke-linejoin: miter"/>
   </g>
   <g id="patch_157">
    <path d="M 125.254844 124.579062 
C 125.254844 124.579062 125.254844 124.579062 125.254844 124.579062 
C 125.254844 124.579062 125.254844 124.579062 125.254844 124.579062 
L 41.282682 79.695007 
C 39.81356 82.443541 38.480268 85.262549 37.287624 88.141847 
C 36.09498 91.021145 35.044419 93.957264 34.139739 96.939598 
L 125.254844 124.579062 
z
" clip-path="url(#p93df6234df)" style="fill: none; stroke: #292929; stroke-width: 0.5; stroke-linejoin: miter"/>
   </g>
   <g id="patch_158">
    <path d="M 125.254844 124.579062 
C 125.254844 124.579062 125.254844 124.579062 125.254844 124.579062 
C 125.254844 124.579062 125.254844 124.579062 125.254844 124.579062 
L 48.306376 61.429087 
C 46.239383 63.947725 44.297294 66.566329 42.487124 69.27544 
C 40.676954 71.984551 39.000884 74.780904 37.46497 77.654397 
L 125.254844 124.579062 
z
" clip-path="url(#p93df6234df)" style="fill: none; stroke: #292929; stroke-width: 0.5; stroke-linejoin: miter"/>
   </g>
   <g id="patch_159">
    <path d="M 125.254844 124.579062 
C 125.254844 124.579062 125.254844 124.579062 125.254844 124.579062 
C 125.254844 124.579062 125.254844 124.579062 125.254844 124.579062 
L 57.360287 41.849306 
C 54.652419 44.071596 52.055291 46.425496 49.578284 48.902503 
C 47.101277 51.379509 44.747377 53.976637 42.525087 56.684506 
L 125.254844 124.579062 
z
" clip-path="url(#p93df6234df)" style="fill: none; stroke: #292929; stroke-width: 0.5; stroke-linejoin: miter"/>
   </g>
   <g id="patch_160">
    <path d="M 125.254844 124.579062 
C 125.254844 124.579062 125.254844 124.579062 125.254844 124.579062 
C 125.254844 124.579062 125.254844 124.579062 125.254844 124.579062 
L 72.986373 26.791632 
C 69.785645 28.502457 66.670842 30.369398 63.653216 32.385711 
C 60.63559 34.402024 57.718778 36.56528 54.913316 38.867663 
L 125.254844 124.579062 
z
" clip-path="url(#p93df6234df)" style="fill: none; stroke: #292929; stroke-width: 0.5; stroke-linejoin: miter"/>
   </g>
   <g id="patch_161">
    <path d="M 125.254844 124.579062 
C 125.254844 124.579062 125.254844 124.579062 125.254844 124.579062 
C 125.254844 124.579062 125.254844 124.579062 125.254844 124.579062 
L 95.892931 27.785809 
C 92.724744 28.746869 89.605651 29.862898 86.546919 31.129866 
C 83.488187 32.396834 80.493504 33.813214 77.573685 35.37389 
L 125.254844 124.579062 
z
" clip-path="url(#p93df6234df)" style="fill: none; stroke: #292929; stroke-width: 0.5; stroke-linejoin: miter"/>
   </g>
   <g id="patch_162">
    <path d="M 125.254844 124.579062 
C 125.254844 124.579062 125.254844 124.579062 125.254844 124.579062 
C 125.254844 124.579062 125.254844 124.579062 125.254844 124.579062 
L 114.694089 17.353917 
C 111.18445 17.699586 107.693897 18.217361 104.235039 18.90537 
C 100.776182 19.59338 97.353188 20.450795 93.978422 21.474519 
L 125.254844 124.579062 
z
" clip-path="url(#p93df6234df)" style="fill: none; stroke: #292929; stroke-width: 0.5; stroke-linejoin: miter"/>
   </g>
   <g id="PathCollection_1">
    <defs>
     <path id="md3a9f24234" d="M 0.193618 7.414054 
L 0.193618 7.414054 
C 0.054922 7.414054 -0.078235 7.358899 -0.176308 7.260826 
C -0.274381 7.162753 -0.329536 7.029596 -0.329536 6.890901 
L -0.329536 5.365008 
L -1.528416 6.56393 
L -1.528416 6.56393 
C -1.577018 6.612704 -1.634775 6.651408 -1.698366 6.677814 
C -1.761958 6.704221 -1.830141 6.717815 -1.898997 6.717815 
C -1.967853 6.717815 -2.036037 6.704221 -2.099628 6.677814 
C -2.163219 6.651408 -2.220976 6.612704 -2.269578 6.56393 
L -2.269578 6.56393 
C -2.318353 6.515327 -2.357056 6.457571 -2.383463 6.393979 
C -2.409869 6.330388 -2.423463 6.262205 -2.423463 6.193348 
C -2.423463 6.124492 -2.409869 6.056309 -2.383463 5.992718 
C -2.357056 5.929126 -2.318353 5.87137 -2.269578 5.822767 
L -0.329536 3.884106 
L -0.329536 0.820937 
L -2.98067 2.351538 
L -3.691824 5.001416 
L -3.691824 5.001416 
C -3.727584 5.135411 -3.815199 5.249836 -3.93523 5.319305 
C -4.055261 5.388775 -4.198123 5.407741 -4.332122 5.371997 
L -4.332122 5.371997 
C -4.466126 5.336237 -4.580558 5.248616 -4.650029 5.128576 
C -4.719499 5.008535 -4.73846 4.865662 -4.702703 4.731657 
L -4.262647 3.092721 
L -5.585535 3.855668 
L -5.585535 3.855668 
C -5.645013 3.890144 -5.710708 3.912561 -5.778854 3.921634 
C -5.847001 3.930706 -5.916272 3.926258 -5.982698 3.908543 
C -6.049125 3.890828 -6.111412 3.860192 -6.165991 3.818391 
C -6.220571 3.77659 -6.266379 3.724437 -6.300791 3.664922 
L -6.300791 3.664922 
C -6.335212 3.605364 -6.35755 3.539597 -6.366524 3.471396 
C -6.375498 3.403194 -6.370933 3.333888 -6.35309 3.267452 
C -6.335248 3.201017 -6.304476 3.138749 -6.26254 3.08422 
C -6.220605 3.029692 -6.168323 2.983966 -6.108695 2.949666 
L -4.785807 2.186762 
L -6.424743 1.746706 
L -6.424743 1.746706 
C -6.558747 1.710946 -6.673179 1.623325 -6.74265 1.503284 
C -6.81212 1.383244 -6.831081 1.240371 -6.795324 1.106366 
L -6.795324 1.106366 
C -6.777471 1.039969 -6.746703 0.977739 -6.704784 0.923241 
C -6.662864 0.868744 -6.61061 0.823041 -6.551015 0.788752 
C -6.491421 0.754464 -6.425647 0.732257 -6.357465 0.723406 
C -6.289282 0.714554 -6.220019 0.71923 -6.153645 0.737166 
L -3.505232 1.44698 
L -0.852424 -0.08496 
L -3.503767 -1.615666 
L -6.153645 -0.905851 
L -6.153645 -0.905851 
C -6.22011 -0.887939 -6.289462 -0.883321 -6.357716 -0.892262 
C -6.42597 -0.901202 -6.491793 -0.923527 -6.551403 -0.957953 
C -6.611013 -0.992379 -6.663247 -1.038234 -6.705103 -1.092883 
C -6.746958 -1.147533 -6.777619 -1.209911 -6.795324 -1.276432 
L -6.795324 -1.276432 
C -6.831068 -1.410431 -6.812101 -1.553293 -6.742632 -1.673324 
C -6.673162 -1.793355 -6.558738 -1.88097 -6.424743 -1.91673 
L -4.785807 -2.355447 
L -6.108695 -3.119732 
L -6.108695 -3.119732 
C -6.228699 -3.188976 -6.316415 -3.303132 -6.352417 -3.436921 
C -6.388419 -3.57071 -6.369839 -3.713469 -6.300791 -3.833586 
L -6.300791 -3.833586 
C -6.266491 -3.893214 -6.220765 -3.945496 -6.166237 -3.987431 
C -6.111708 -4.029367 -6.04944 -4.060139 -5.983005 -4.077981 
C -5.91657 -4.095823 -5.847263 -4.100389 -5.779062 -4.091415 
C -5.71086 -4.082441 -5.645094 -4.060102 -5.585535 -4.025682 
L -4.262647 -3.261396 
L -4.702703 -4.900332 
L -4.702703 -4.900332 
C -4.73846 -5.034337 -4.719499 -5.17721 -4.650029 -5.29725 
C -4.580558 -5.417291 -4.466126 -5.504912 -4.332122 -5.540672 
L -4.332122 -5.540672 
C -4.19831 -5.576464 -4.055613 -5.557686 -3.935617 -5.488496 
C -3.81562 -5.419305 -3.727882 -5.305212 -3.691824 -5.171472 
L -2.982009 -2.521594 
L -0.329411 -0.990302 
L -0.329411 -4.051588 
L -2.269453 -5.991589 
L -2.269453 -5.991589 
C -2.318227 -6.040191 -2.356931 -6.097947 -2.383337 -6.161539 
C -2.409744 -6.22513 -2.423338 -6.293314 -2.423338 -6.36217 
C -2.423338 -6.431026 -2.409744 -6.499209 -2.383337 -6.5628 
C -2.356931 -6.626392 -2.318227 -6.684149 -2.269453 -6.732751 
L -2.269453 -6.732751 
C -2.22085 -6.781526 -2.163094 -6.820229 -2.099502 -6.846635 
C -2.035911 -6.873042 -1.967728 -6.886636 -1.898871 -6.886636 
C -1.830015 -6.886636 -1.761832 -6.873042 -1.698241 -6.846635 
C -1.634649 -6.820229 -1.576893 -6.781526 -1.52829 -6.732751 
L -0.329411 -5.533829 
L -0.329411 -7.059722 
L -0.329411 -7.059722 
C -0.329411 -7.198418 -0.274255 -7.331575 -0.176182 -7.429647 
C -0.07811 -7.52772 0.055047 -7.582875 0.193743 -7.582875 
L 0.193743 -7.582875 
C 0.332439 -7.582875 0.465596 -7.52772 0.563669 -7.429647 
C 0.661741 -7.331575 0.716897 -7.198418 0.716897 -7.059722 
L 0.716897 -5.533829 
L 1.915777 -6.732751 
L 1.915777 -6.732751 
C 1.964379 -6.781526 2.022136 -6.820229 2.085727 -6.846635 
C 2.149318 -6.873042 2.217502 -6.886636 2.286358 -6.886636 
C 2.355214 -6.886636 2.423397 -6.873042 2.486989 -6.846635 
C 2.55058 -6.820229 2.608337 -6.781526 2.656939 -6.732751 
L 2.656939 -6.732751 
C 2.705714 -6.684149 2.744417 -6.626392 2.770823 -6.5628 
C 2.79723 -6.499209 2.810824 -6.431026 2.810824 -6.36217 
C 2.810824 -6.293314 2.79723 -6.22513 2.770823 -6.161539 
C 2.744417 -6.097947 2.705714 -6.040191 2.656939 -5.991589 
L 0.716897 -4.051588 
L 0.716897 -0.991139 
L 3.369495 -2.522954 
L 4.07931 -5.171367 
L 4.07931 -5.171367 
C 4.115368 -5.305107 4.203106 -5.4192 4.323103 -5.488391 
C 4.4431 -5.557582 4.585797 -5.576359 4.719608 -5.540567 
L 4.719608 -5.540567 
C 4.853612 -5.504807 4.968045 -5.417186 5.037515 -5.297146 
C 5.106986 -5.177105 5.125946 -5.034232 5.090189 -4.900227 
L 4.650133 -3.262673 
L 5.973022 -4.025577 
L 5.973022 -4.025577 
C 6.03258 -4.059998 6.098346 -4.082336 6.166548 -4.09131 
C 6.234749 -4.100284 6.304056 -4.095719 6.370491 -4.077876 
C 6.436926 -4.060034 6.499194 -4.029262 6.553723 -3.987327 
C 6.608252 -3.945391 6.653978 -3.893109 6.688277 -3.833481 
L 6.688277 -3.833481 
C 6.757325 -3.713365 6.775905 -3.570605 6.739903 -3.436816 
C 6.703901 -3.303027 6.616186 -3.188871 6.496181 -3.119628 
L 5.173293 -2.355342 
L 6.812229 -1.916625 
L 6.812229 -1.916625 
C 6.946224 -1.880865 7.060649 -1.79325 7.130118 -1.67322 
C 7.199588 -1.553189 7.218554 -1.410326 7.18281 -1.276327 
L 7.18281 -1.276327 
C 7.165106 -1.209806 7.134445 -1.147429 7.092589 -1.092779 
C 7.050733 -1.038129 6.998499 -0.992274 6.938889 -0.957848 
C 6.879279 -0.923422 6.813456 -0.901098 6.745202 -0.892157 
C 6.676949 -0.883217 6.607597 -0.887835 6.541131 -0.905746 
L 3.891253 -1.615561 
L 1.239492 -0.084604 
L 3.892718 1.447085 
L 6.541131 0.73727 
L 6.541131 0.73727 
C 6.674948 0.701466 6.817656 0.720237 6.937662 0.789429 
C 7.057669 0.858621 7.145413 0.972721 7.181471 1.10647 
L 7.181471 1.10647 
C 7.217274 1.240293 7.198497 1.383006 7.129297 1.503014 
C 7.060096 1.623021 6.945986 1.710762 6.812229 1.74681 
L 5.173293 2.186866 
L 6.496181 2.949771 
L 6.496181 2.949771 
C 6.555697 2.984183 6.607849 3.029991 6.649651 3.08457 
C 6.691452 3.13915 6.722088 3.201437 6.739803 3.267863 
C 6.757517 3.33429 6.761966 3.403561 6.752893 3.471707 
C 6.743821 3.539854 6.721404 3.605549 6.686927 3.665026 
L 6.686927 3.665026 
C 6.617458 3.784813 6.503196 3.87225 6.369416 3.907994 
C 6.235636 3.943739 6.092989 3.924946 5.973032 3.855772 
L 4.650144 3.091487 
L 5.08886 4.731783 
L 5.08886 4.731783 
C 5.124664 4.865606 5.105887 5.008319 5.036686 5.128326 
C 4.967486 5.248334 4.853376 5.336074 4.719619 5.372123 
L 4.719619 5.372123 
C 4.585619 5.407867 4.442757 5.3889 4.322726 5.319431 
C 4.202695 5.249961 4.115081 5.135537 4.07932 5.001542 
L 3.368166 2.351664 
L 0.717033 0.821063 
L 0.717033 3.884232 
L 2.657075 5.822893 
L 2.657075 5.822893 
C 2.70585 5.871495 2.744553 5.929252 2.770959 5.992843 
C 2.797366 6.056435 2.81096 6.124618 2.81096 6.193474 
C 2.81096 6.26233 2.797366 6.330514 2.770959 6.394105 
C 2.744553 6.457696 2.70585 6.515453 2.657075 6.564055 
L 2.657075 6.564055 
C 2.608473 6.61283 2.550716 6.651533 2.487125 6.67794 
C 2.423533 6.704346 2.35535 6.71794 2.286494 6.71794 
C 2.217638 6.71794 2.149454 6.704346 2.085863 6.67794 
C 2.022272 6.651533 1.964515 6.61283 1.915913 6.564055 
L 0.717033 5.365133 
L 0.717033 6.891026 
L 0.717033 6.891026 
C 0.717033 7.029722 0.661877 7.162879 0.563805 7.260952 
C 0.465732 7.359024 0.332575 7.41418 0.193879 7.41418 
L 0.193618 7.414054 
z
"/>
    </defs>
    <g clip-path="url(#p93df6234df)">
     <use xlink:href="#md3a9f24234" x="119.198342" y="98.098846" style="fill: #9e2096; fill-opacity: 0.7"/>
    </g>
   </g>
   <g id="patch_163">
    <path d="M 125.254844 13.699062 
C 110.694216 13.699062 96.275171 16.567189 82.822905 22.1393 
C 69.370638 27.711411 57.146763 35.879144 46.850844 46.175063 
C 36.554925 56.470982 28.387192 68.694857 22.815081 82.147124 
C 17.24297 95.59939 14.374844 110.018434 14.374844 124.579063 
C 14.374844 139.139691 17.24297 153.558735 22.815081 167.011001 
C 28.387192 180.463268 36.554925 192.687143 46.850844 202.983062 
C 57.146763 213.278981 69.370638 221.446714 82.822905 227.018825 
C 96.275171 232.590936 110.694216 235.459063 125.254844 235.459063 
C 139.815472 235.459063 154.234516 232.590936 167.686783 227.018825 
C 181.139049 221.446714 193.362925 213.278981 203.658844 202.983062 
C 213.954763 192.687143 222.122495 180.463268 227.694606 167.011001 
C 233.266717 153.558735 236.134844 139.139691 236.134844 124.579062 
C 236.134844 110.018434 233.266717 95.59939 227.694606 82.147124 
C 222.122495 68.694857 213.954763 56.470982 203.658844 46.175063 
C 193.362925 35.879144 181.139049 27.711411 167.686783 22.1393 
C 154.234516 16.567189 139.815472 13.699062 125.254844 13.699062 
" style="fill: none; stroke: #000000; stroke-width: 0.8; stroke-linejoin: miter; stroke-linecap: square"/>
   </g>
  </g>
 </g>
 <defs>
  <clipPath id="p93df6234df">
   <path d="M 236.134844 124.579063 
C 236.134844 110.018434 233.266717 95.59939 227.694606 82.147124 
C 222.122495 68.694857 213.954763 56.470982 203.658844 46.175063 
C 193.362925 35.879144 181.139049 27.711411 167.686783 22.1393 
C 154.234516 16.567189 139.815472 13.699062 125.254844 13.699062 
C 110.694216 13.699062 96.275171 16.567189 82.822905 22.1393 
C 69.370638 27.711411 57.146763 35.879144 46.850844 46.175063 
C 36.554925 56.470982 28.387192 68.694857 22.815081 82.147124 
C 17.24297 95.59939 14.374844 110.018434 14.374844 124.579062 
C 14.374844 139.139691 17.24297 153.558735 22.815081 167.011001 
C 28.387192 180.463268 36.554925 192.687143 46.850844 202.983062 
C 57.146763 213.278981 69.370638 221.446714 82.822905 227.018825 
C 96.275171 232.590936 110.694216 235.459063 125.254844 235.459063 
C 139.815472 235.459063 154.234516 232.590936 167.686783 227.018825 
C 181.139049 221.446714 193.362925 213.278981 203.658844 202.983062 
C 213.954763 192.687143 222.122495 180.463268 227.694606 167.011001 
C 233.266717 153.558735 236.134844 139.139691 236.134844 124.579063 
M 125.254844 124.579063 
C 125.254844 124.579063 125.254844 124.579063 125.254844 124.579063 
C 125.254844 124.579063 125.254844 124.579063 125.254844 124.579063 
C 125.254844 124.579063 125.254844 124.579063 125.254844 124.579063 
C 125.254844 124.579063 125.254844 124.579063 125.254844 124.579063 
C 125.254844 124.579063 125.254844 124.579063 125.254844 124.579063 
C 125.254844 124.579063 125.254844 124.579063 125.254844 124.579063 
C 125.254844 124.579063 125.254844 124.579063 125.254844 124.579063 
C 125.254844 124.579063 125.254844 124.579063 125.254844 124.579063 
C 125.254844 124.579063 125.254844 124.579063 125.254844 124.579063 
C 125.254844 124.579063 125.254844 124.579063 125.254844 124.579063 
C 125.254844 124.579063 125.254844 124.579063 125.254844 124.579063 
C 125.254844 124.579063 125.254844 124.579063 125.254844 124.579063 
C 125.254844 124.579063 125.254844 124.579063 125.254844 124.579063 
C 125.254844 124.579063 125.254844 124.579063 125.254844 124.579063 
C 125.254844 124.579063 125.254844 124.579063 125.254844 124.579063 
C 125.254844 124.579063 125.254844 124.579063 125.254844 124.579063 
z
"/>
  </clipPath>
 </defs>
</svg>
