<?xml version="1.0" encoding="utf-8" standalone="no"?>
<!DOCTYPE svg PUBLIC "-//W3C//DTD SVG 1.1//EN"
  "http://www.w3.org/Graphics/SVG/1.1/DTD/svg11.dtd">
<svg xmlns:xlink="http://www.w3.org/1999/xlink" width="248.410469pt" height="249.158125pt" viewBox="0 0 248.410469 249.158125" xmlns="http://www.w3.org/2000/svg" version="1.1">
 <title>Ski Rose for Speikboden</title>
 <metadata>
  <rdf:RDF xmlns:dc="http://purl.org/dc/elements/1.1/" xmlns:cc="http://creativecommons.org/ns#" xmlns:rdf="http://www.w3.org/1999/02/22-rdf-syntax-ns#">
   <cc:Work>
    <dc:type rdf:resource="http://purl.org/dc/dcmitype/StillImage"/>
    <dc:title>Ski Rose for Speikboden</dc:title>
    <dc:date>2025-12-13T10:24:36.019418</dc:date>
    <dc:description>A 32-bin stacked histogram of downhill ski run orientations colored by difficulty.</dc:description>
    <dc:format>image/svg+xml</dc:format>
    <dc:source>https://openskimap.org/?obj=fd48ec780113d39caf601a3899e1bdcbcc729b45</dc:source>
    <dc:creator>
     <cc:Agent>
      <dc:title>https://github.com/dhimmel/openskistats</dc:title>
     </cc:Agent>
    </dc:creator>
    <dc:rights>
     <cc:Agent>
      <dc:title>https://creativecommons.org/licenses/by/4.0/</dc:title>
     </cc:Agent>
    </dc:rights>
   </cc:Work>
  </rdf:RDF>
 </metadata>
 <defs>
  <style type="text/css">*{stroke-linejoin: round; stroke-linecap: butt}</style>
 </defs>
 <g id="figure_1">
  <g id="patch_1">
   <path d="M 0 249.158125 
L 248.410469 249.158125 
L 248.410469 0 
L 0 0 
z
" style="fill: #ffffff"/>
  </g>
  <g id="axes_1">
   <g id="patch_2">
    <path d="M 236.134844 124.579063 
C 236.134844 110.018434 233.266717 95.59939 227.694606 82.147124 
C 222.122495 68.694857 213.954763 56.470982 203.658844 46.175063 
C 193.362925 35.879144 181.139049 27.711411 167.686783 22.1393 
C 154.234516 16.567189 139.815472 13.699063 125.254844 13.699063 
C 110.694216 13.699063 96.275171 16.567189 82.822905 22.1393 
C 69.370638 27.711411 57.146763 35.879144 46.850844 46.175063 
C 36.554925 56.470982 28.387192 68.694857 22.815081 82.147124 
C 17.24297 95.59939 14.374844 110.018434 14.374844 124.579062 
C 14.374844 139.139691 17.24297 153.558735 22.815081 167.011001 
C 28.387192 180.463268 36.554925 192.687143 46.850844 202.983062 
C 57.146763 213.278981 69.370638 221.446714 82.822905 227.018825 
C 96.275171 232.590936 110.694216 235.459063 125.254844 235.459063 
C 139.815472 235.459063 154.234516 232.590936 167.686783 227.018825 
C 181.139049 221.446714 193.362925 213.278981 203.658844 202.983062 
C 213.954763 192.687143 222.122495 180.463268 227.694606 167.011001 
C 233.266717 153.558735 236.134844 139.139691 236.134844 124.579063 
M 125.254844 124.579063 
C 125.254844 124.579063 125.254844 124.579063 125.254844 124.579063 
C 125.254844 124.579063 125.254844 124.579063 125.254844 124.579063 
C 125.254844 124.579063 125.254844 124.579063 125.254844 124.579063 
C 125.254844 124.579063 125.254844 124.579063 125.254844 124.579063 
C 125.254844 124.579063 125.254844 124.579063 125.254844 124.579063 
C 125.254844 124.579063 125.254844 124.579063 125.254844 124.579063 
C 125.254844 124.579063 125.254844 124.579063 125.254844 124.579063 
C 125.254844 124.579063 125.254844 124.579063 125.254844 124.579063 
C 125.254844 124.579063 125.254844 124.579063 125.254844 124.579063 
C 125.254844 124.579063 125.254844 124.579063 125.254844 124.579063 
C 125.254844 124.579063 125.254844 124.579063 125.254844 124.579063 
C 125.254844 124.579063 125.254844 124.579063 125.254844 124.579063 
C 125.254844 124.579063 125.254844 124.579063 125.254844 124.579063 
C 125.254844 124.579063 125.254844 124.579063 125.254844 124.579063 
C 125.254844 124.579063 125.254844 124.579063 125.254844 124.579063 
C 125.254844 124.579063 125.254844 124.579063 125.254844 124.579063 
z
" style="fill: #ffffff"/>
   </g>
   <g id="FillBetweenPolyCollection_1">
    <defs>
     <path id="mb869850602" d="M 235.309478 -137.118204 
L 234.769901 -137.056727 
L 233.846941 -135.035292 
L 233.039192 -133.061875 
L 231.972979 -131.106223 
L 231.056234 -129.198451 
L 230.096494 -127.324438 
L 228.890728 -125.483479 
L 227.854654 -123.683688 
L 226.576893 -121.925851 
L 225.47518 -120.203348 
L 224.135632 -118.531254 
L 222.976181 -116.888226 
L 221.582938 -115.303722 
L 220.372529 -113.741771 
L 219.138636 -112.219027 
L 217.6777 -110.766374 
L 216.402032 -109.326254 
L 215.107134 -107.925925 
L 213.794352 -106.565496 
L 212.465023 -105.245031 
L 210.922171 -104.012157 
L 209.565418 -102.774866 
L 208.196207 -101.577387 
L 206.815844 -100.419594 
L 205.425629 -99.301311 
L 204.21549 -98.1592 
L 202.807138 -97.116355 
L 201.39266 -96.112299 
L 199.973319 -95.146673 
L 198.550363 -94.219064 
L 197.301317 -93.252364 
L 195.871971 -92.396983 
L 194.613339 -91.496757 
L 193.181999 -90.711832 
L 191.917727 -89.876562 
L 190.488667 -89.159986 
L 189.22258 -88.387859 
L 187.955437 -87.645591 
L 186.688062 -86.932738 
L 185.272152 -86.34382 
L 184.010024 -85.689857 
L 182.750099 -85.063668 
L 181.493126 -84.464686 
L 180.239829 -83.892314 
L 178.990911 -83.345928 
L 177.74705 -82.824876 
L 176.633555 -82.225721 
L 175.398025 -81.75274 
L 174.169386 -81.303131 
L 172.948212 -80.876142 
L 171.84509 -80.36657 
L 170.636585 -79.98255 
L 169.53986 -79.514303 
L 168.345848 -79.170619 
L 167.161661 -78.845797 
L 166.079251 -78.435464 
L 165.000053 -78.043401 
L 163.839622 -77.771984 
L 162.771164 -77.414584 
L 161.706786 -77.073966 
L 160.572666 -76.849765 
L 159.520525 -76.540349 
L 158.473125 -76.246164 
L 157.430645 -75.966729 
L 156.332932 -75.796236 
L 155.303971 -75.543344 
L 154.2803 -75.303617 
L 153.262007 -75.076569 
L 152.249159 -74.861718 
L 151.2418 -74.658584 
L 150.23995 -74.466691 
L 149.24361 -74.285569 
L 148.252755 -74.114752 
L 147.267342 -73.953783 
L 146.287303 -73.802213 
L 145.312552 -73.659603 
L 144.342979 -73.525526 
L 143.401589 -73.334234 
L 142.439663 -73.219051 
L 141.48257 -73.111292 
L 140.530125 -73.010577 
L 139.582127 -72.916547 
L 138.638357 -72.828856 
L 137.709804 -72.700418 
L 136.77211 -72.628031 
L 135.83801 -72.561137 
L 134.907227 -72.499464 
L 133.985042 -72.409453 
L 133.058837 -72.361327 
L 132.135171 -72.317792 
L 131.213721 -72.278664 
L 130.295992 -72.224731 
L 129.377327 -72.197944 
L 128.460003 -72.175179 
L 127.543669 -72.156345 
L 126.628086 -72.137063 
L 125.71256 -72.129971 
L 124.79713 -72.13023 
L 123.881649 -72.138874 
L 122.966143 -72.159189 
L 122.049953 -72.179568 
L 121.132827 -72.203871 
L 120.214413 -72.232189 
L 119.296931 -72.28713 
L 118.37583 -72.327767 
L 117.452565 -72.372795 
L 116.532302 -72.455207 
L 115.605038 -72.513371 
L 114.6748 -72.576486 
L 113.741295 -72.644801 
L 112.804245 -72.718584 
L 111.876258 -72.847911 
L 110.933219 -72.936952 
L 109.985998 -73.032303 
L 109.034375 -73.134308 
L 108.078147 -73.243326 
L 107.140101 -73.424608 
L 106.17652 -73.551769 
L 105.207931 -73.687009 
L 104.234202 -73.830744 
L 103.255224 -73.983401 
L 102.270908 -74.145419 
L 101.281187 -74.317245 
L 100.286013 -74.499335 
L 99.285363 -74.692154 
L 98.279235 -74.896171 
L 97.267648 -75.111862 
L 96.250646 -75.339705 
L 95.228293 -75.580184 
L 94.200675 -75.833782 
L 93.167903 -76.100984 
L 92.063485 -76.285335 
L 91.017502 -76.58008 
L 89.966801 -76.890009 
L 88.911581 -77.2156 
L 87.771494 -77.456034 
L 86.704534 -77.813797 
L 85.633777 -78.188754 
L 84.46821 -78.47816 
L 83.387345 -78.888705 
L 82.204984 -79.213976 
L 81.115349 -79.662386 
L 79.917674 -80.02635 
L 78.820803 -80.514803 
L 77.609518 -80.920165 
L 76.390235 -81.347309 
L 75.163497 -81.797011 
L 74.054248 -82.372548 
L 72.818014 -82.868925 
L 71.576078 -83.389897 
L 70.329091 -83.936143 
L 69.07773 -84.508317 
L 67.822699 -85.107043 
L 66.56472 -85.732917 
L 65.304541 -86.386507 
L 64.042927 -87.068352 
L 62.780667 -87.77896 
L 61.360281 -88.429258 
L 60.096152 -89.200779 
L 58.833919 -90.002517 
L 57.407052 -90.751401 
L 56.148443 -91.617 
L 54.721321 -92.435084 
L 53.470219 -93.366219 
L 52.047174 -94.255453 
L 50.626508 -95.182179 
L 49.393052 -96.215501 
L 47.98328 -97.215767 
L 46.57952 -98.254667 
L 45.183042 -99.33252 
L 43.795128 -100.449595 
L 42.417069 -101.606114 
L 41.050163 -102.802251 
L 39.695715 -104.038133 
L 38.355039 -105.31384 
L 37.029455 -106.629404 
L 35.720289 -107.984814 
L 34.428874 -109.380008 
L 32.95209 -110.784323 
L 31.699299 -112.262241 
L 30.468453 -113.779517 
L 29.0541 -115.315984 
L 27.870841 -116.914775 
L 26.713905 -118.552041 
L 25.377043 -120.218304 
L 24.277353 -121.934874 
L 23.001602 -123.686712 
L 21.966793 -125.480444 
L 20.76186 -127.315308 
L 19.801951 -129.183235 
L 18.682254 -131.097321 
L 17.813773 -133.034858 
L 16.806978 -135.021404 
L 16.064015 -137.019786 
L 15.094101 -137.130294 
L 15.094101 -137.130294 
L 14.934129 -135.201739 
L 14.807158 -133.271484 
L 14.603487 -131.346789 
L 14.542317 -129.412876 
L 14.513787 -127.478919 
L 14.409362 -125.546396 
L 14.445965 -123.612048 
L 14.514419 -121.679222 
L 14.508905 -119.74379 
L 14.641279 -117.813647 
L 14.804515 -115.886433 
L 14.897192 -113.952829 
L 15.12299 -112.031123 
L 15.37874 -110.113599 
L 15.664206 -108.200632 
L 15.979264 -106.292602 
L 16.233251 -104.373105 
L 16.60984 -102.474987 
L 17.016103 -100.583111 
L 17.452154 -98.697927 
L 17.918125 -96.819899 
L 18.414141 -94.949513 
L 19.026649 -93.112838 
L 19.583257 -91.260939 
L 20.170138 -89.418212 
L 20.787464 -87.585223 
L 21.435433 -85.762575 
L 22.114279 -83.950914 
L 22.8243 -82.150942 
L 23.634053 -80.393085 
L 24.407315 -78.620196 
L 25.213587 -76.861831 
L 26.053501 -75.119097 
L 26.927698 -73.393191 
L 27.843487 -71.689011 
L 28.794803 -70.004597 
L 29.730094 -68.310685 
L 30.716751 -66.646045 
L 31.75681 -65.014246 
L 32.799774 -63.384387 
L 33.876535 -61.776491 
L 35.018768 -60.214295 
L 36.810331 -59.133566 
L 38.631389 -58.110548 
L 40.467556 -57.136209 
L 42.318862 -56.211915 
L 44.114928 -55.279028 
L 45.970804 -54.43447 
L 47.771418 -53.578584 
L 49.628451 -52.812295 
L 51.425607 -52.027274 
L 53.219825 -51.275695 
L 55.010081 -50.556528 
L 56.795486 -49.868783 
L 58.575257 -49.211499 
L 60.348698 -48.58373 
L 62.115191 -47.984538 
L 63.87418 -47.412992 
L 65.625171 -46.86816 
L 67.328515 -46.296122 
L 69.064033 -45.802451 
L 70.758318 -45.286125 
L 72.476924 -44.840324 
L 74.153505 -44.366029 
L 75.827044 -43.920224 
L 77.519311 -43.540208 
L 79.174008 -43.131461 
L 80.824946 -42.74937 
L 82.465367 -42.381243 
L 84.101691 -42.038607 
L 85.727533 -41.708331 
L 87.349058 -41.402407 
L 88.944768 -41.071606 
L 90.55009 -40.794376 
L 92.150943 -40.539914 
L 93.741982 -40.294085 
L 95.31546 -40.03285 
L 96.896385 -39.824563 
L 98.459701 -39.595726 
L 100.026264 -39.408806 
L 101.580033 -39.210453 
L 103.137446 -39.057432 
L 104.682233 -38.88797 
L 106.227507 -38.752293 
L 107.764268 -38.610134 
L 109.297686 -38.481944 
L 110.831615 -38.389249 
L 112.358339 -38.286537 
L 113.882428 -38.196992 
L 115.405105 -38.129016 
L 116.924337 -38.063438 
L 118.441746 -38.010448 
L 119.957601 -37.96991 
L 121.472589 -37.951182 
L 122.98593 -37.932749 
L 124.498629 -37.925422 
L 126.011067 -37.924496 
L 127.523809 -37.930765 
L 129.037234 -37.948093 
L 130.551652 -37.97702 
L 132.067325 -38.018278 
L 133.585971 -38.057003 
L 135.105433 -38.121553 
L 136.627013 -38.198864 
L 138.150961 -38.289125 
L 139.679801 -38.378919 
L 141.209752 -38.494082 
L 142.742819 -38.62292 
L 144.285199 -38.738678 
L 145.825963 -38.894184 
L 147.376161 -39.042277 
L 148.925385 -39.225847 
L 150.488585 -39.391381 
L 152.047174 -39.604647 
L 153.619552 -39.805886 
L 155.187957 -40.05056 
L 156.775494 -40.273253 
L 158.367054 -40.518819 
L 159.951619 -40.813638 
L 161.559466 -41.084148 
L 163.171221 -41.379166 
L 164.793877 -41.683756 
L 166.420248 -42.014035 
L 168.057788 -42.355371 
L 169.698729 -42.723609 
L 171.350966 -43.104441 
L 173.006165 -43.513406 
L 174.672644 -43.936542 
L 176.341517 -44.389048 
L 178.051401 -44.812166 
L 179.739434 -45.303491 
L 181.466826 -45.772769 
L 183.163532 -46.319962 
L 184.907109 -46.838717 
L 186.620873 -47.431391 
L 188.37916 -48.003144 
L 190.14495 -48.60251 
L 191.917691 -49.230421 
L 193.696764 -49.887813 
L 195.481478 -50.575631 
L 197.271053 -51.294836 
L 199.064603 -52.046414 
L 200.912917 -52.782231 
L 202.712719 -53.601997 
L 204.57311 -54.404188 
L 206.372845 -55.297745 
L 208.225708 -56.18316 
L 210.078195 -57.107522 
L 211.855471 -58.128064 
L 213.672281 -59.153601 
L 215.468429 -60.230338 
L 216.633548 -61.776219 
L 217.706321 -63.386764 
L 218.761367 -65.008837 
L 219.783294 -66.651954 
L 220.73685 -68.335863 
L 221.755404 -69.981672 
L 222.595606 -71.727341 
L 223.500053 -73.435844 
L 224.481185 -75.106634 
L 225.27812 -76.870407 
L 226.129142 -78.607996 
L 226.909268 -80.378461 
L 227.689922 -82.149064 
L 228.343517 -83.971354 
L 229.110105 -85.749171 
L 229.749844 -87.575442 
L 230.342897 -89.417092 
L 230.998354 -91.238262 
L 231.506579 -93.105865 
L 232.088964 -94.951339 
L 232.553821 -96.82966 
L 233.060537 -98.697205 
L 233.426956 -100.597883 
L 233.885714 -102.477862 
L 234.129483 -104.400341 
L 234.486353 -106.299977 
L 234.826005 -108.203543 
L 235.125844 -110.114271 
L 235.374698 -112.03249 
L 235.599179 -113.954112 
L 235.785355 -115.880123 
L 235.927572 -117.810028 
L 235.86601 -119.749675 
L 235.937587 -121.680733 
L 235.978127 -123.612795 
L 235.983614 -125.545378 
L 235.952368 -127.477779 
L 235.889833 -129.40949 
L 235.794148 -131.339936 
L 235.666058 -133.268614 
L 235.501646 -135.194622 
L 235.309478 -137.118204 
z
" style="stroke: #ffee9c"/>
    </defs>
    <g clip-path="url(#p4842a89afc)">
     <use xlink:href="#mb869850602" x="0" y="249.158125" style="fill: #ffee9c; stroke: #ffee9c"/>
    </g>
   </g>
   <g id="matplotlib.axis_1">
    <g id="xtick_1">
     <g id="line2d_1">
      <path d="M 125.254844 124.579063 
L 125.254844 13.699063 
" clip-path="url(#p4842a89afc)" style="fill: none; stroke: #b0b0b0; stroke-width: 0.8; stroke-linecap: square"/>
     </g>
     <g id="text_1">
      <!-- N -->
      <g transform="translate(121.070469 7.958438) scale(0.1 -0.1)">
       <defs>
        <path id="DejaVuSans-Bold-4e" d="M 588 4666 
L 1931 4666 
L 3628 1466 
L 3628 4666 
L 4769 4666 
L 4769 0 
L 3425 0 
L 1728 3200 
L 1728 0 
L 588 0 
L 588 4666 
z
" transform="scale(0.015625)"/>
       </defs>
       <use xlink:href="#DejaVuSans-Bold-4e"/>
      </g>
     </g>
    </g>
    <g id="xtick_2">
     <g id="line2d_2">
      <path d="M 125.254844 124.579063 
L 203.658844 46.175063 
" clip-path="url(#p4842a89afc)" style="fill: none; stroke: #b0b0b0; stroke-width: 0.8; stroke-linecap: square"/>
     </g>
    </g>
    <g id="xtick_3">
     <g id="line2d_3">
      <path d="M 125.254844 124.579063 
L 236.134844 124.579063 
" clip-path="url(#p4842a89afc)" style="fill: none; stroke: #b0b0b0; stroke-width: 0.8; stroke-linecap: square"/>
     </g>
     <g id="text_2">
      <!-- E -->
      <g transform="translate(241.219219 127.338438) scale(0.1 -0.1)">
       <defs>
        <path id="DejaVuSans-Bold-45" d="M 588 4666 
L 3834 4666 
L 3834 3756 
L 1791 3756 
L 1791 2888 
L 3713 2888 
L 3713 1978 
L 1791 1978 
L 1791 909 
L 3903 909 
L 3903 0 
L 588 0 
L 588 4666 
z
" transform="scale(0.015625)"/>
       </defs>
       <use xlink:href="#DejaVuSans-Bold-45"/>
      </g>
     </g>
    </g>
    <g id="xtick_4">
     <g id="line2d_4">
      <path d="M 125.254844 124.579063 
L 203.658844 202.983062 
" clip-path="url(#p4842a89afc)" style="fill: none; stroke: #b0b0b0; stroke-width: 0.8; stroke-linecap: square"/>
     </g>
    </g>
    <g id="xtick_5">
     <g id="line2d_5">
      <path d="M 125.254844 124.579063 
L 125.254844 235.459063 
" clip-path="url(#p4842a89afc)" style="fill: none; stroke: #b0b0b0; stroke-width: 0.8; stroke-linecap: square"/>
     </g>
     <g id="text_3">
      <!-- S -->
      <g transform="translate(121.654062 246.718438) scale(0.1 -0.1)">
       <defs>
        <path id="DejaVuSans-Bold-53" d="M 3834 4519 
L 3834 3531 
Q 3450 3703 3084 3790 
Q 2719 3878 2394 3878 
Q 1963 3878 1756 3759 
Q 1550 3641 1550 3391 
Q 1550 3203 1689 3098 
Q 1828 2994 2194 2919 
L 2706 2816 
Q 3484 2659 3812 2340 
Q 4141 2022 4141 1434 
Q 4141 663 3683 286 
Q 3225 -91 2284 -91 
Q 1841 -91 1394 -6 
Q 947 78 500 244 
L 500 1259 
Q 947 1022 1364 901 
Q 1781 781 2169 781 
Q 2563 781 2772 912 
Q 2981 1044 2981 1288 
Q 2981 1506 2839 1625 
Q 2697 1744 2272 1838 
L 1806 1941 
Q 1106 2091 782 2419 
Q 459 2747 459 3303 
Q 459 4000 909 4375 
Q 1359 4750 2203 4750 
Q 2588 4750 2994 4692 
Q 3400 4634 3834 4519 
z
" transform="scale(0.015625)"/>
       </defs>
       <use xlink:href="#DejaVuSans-Bold-53"/>
      </g>
     </g>
    </g>
    <g id="xtick_6">
     <g id="line2d_6">
      <path d="M 125.254844 124.579063 
L 46.850844 202.983062 
" clip-path="url(#p4842a89afc)" style="fill: none; stroke: #b0b0b0; stroke-width: 0.8; stroke-linecap: square"/>
     </g>
    </g>
    <g id="xtick_7">
     <g id="line2d_7">
      <path d="M 125.254844 124.579063 
L 14.374844 124.579063 
" clip-path="url(#p4842a89afc)" style="fill: none; stroke: #b0b0b0; stroke-width: 0.8; stroke-linecap: square"/>
     </g>
     <g id="text_4">
      <!-- W -->
      <g transform="translate(0.36 127.338438) scale(0.1 -0.1)">
       <defs>
        <path id="DejaVuSans-Bold-57" d="M 191 4666 
L 1344 4666 
L 2150 1275 
L 2950 4666 
L 4109 4666 
L 4909 1275 
L 5716 4666 
L 6859 4666 
L 5759 0 
L 4372 0 
L 3525 3547 
L 2688 0 
L 1300 0 
L 191 4666 
z
" transform="scale(0.015625)"/>
       </defs>
       <use xlink:href="#DejaVuSans-Bold-57"/>
      </g>
     </g>
    </g>
    <g id="xtick_8">
     <g id="line2d_8">
      <path d="M 125.254844 124.579063 
L 46.850844 46.175063 
" clip-path="url(#p4842a89afc)" style="fill: none; stroke: #b0b0b0; stroke-width: 0.8; stroke-linecap: square"/>
     </g>
    </g>
   </g>
   <g id="matplotlib.axis_2"/>
   <g id="patch_3">
    <path d="M 125.254844 124.579063 
C 125.254844 124.579063 125.254844 124.579063 125.254844 124.579063 
C 125.254844 124.579063 125.254844 124.579063 125.254844 124.579063 
L 125.254844 124.579063 
C 125.254844 124.579063 125.254844 124.579063 125.254844 124.579063 
C 125.254844 124.579063 125.254844 124.579063 125.254844 124.579063 
z
" clip-path="url(#p4842a89afc)" style="fill: #d9d9d9"/>
   </g>
   <g id="patch_4">
    <path d="M 125.254844 124.579063 
C 125.254844 124.579063 125.254844 124.579063 125.254844 124.579063 
C 125.254844 124.579063 125.254844 124.579063 125.254844 124.579063 
L 125.254844 124.579063 
C 125.254844 124.579063 125.254844 124.579063 125.254844 124.579063 
C 125.254844 124.579063 125.254844 124.579063 125.254844 124.579063 
z
" clip-path="url(#p4842a89afc)" style="fill: #d9d9d9"/>
   </g>
   <g id="patch_5">
    <path d="M 125.254844 124.579063 
C 125.254844 124.579063 125.254844 124.579063 125.254844 124.579063 
C 125.254844 124.579063 125.254844 124.579063 125.254844 124.579063 
L 125.254844 124.579063 
C 125.254844 124.579063 125.254844 124.579063 125.254844 124.579063 
C 125.254844 124.579063 125.254844 124.579063 125.254844 124.579063 
z
" clip-path="url(#p4842a89afc)" style="fill: #d9d9d9"/>
   </g>
   <g id="patch_6">
    <path d="M 125.254844 124.579063 
C 125.254844 124.579063 125.254844 124.579063 125.254844 124.579063 
C 125.254844 124.579063 125.254844 124.579063 125.254844 124.579063 
L 125.254844 124.579063 
C 125.254844 124.579063 125.254844 124.579063 125.254844 124.579063 
C 125.254844 124.579063 125.254844 124.579063 125.254844 124.579063 
z
" clip-path="url(#p4842a89afc)" style="fill: #d9d9d9"/>
   </g>
   <g id="patch_7">
    <path d="M 125.254844 124.579063 
C 125.254844 124.579063 125.254844 124.579063 125.254844 124.579063 
C 125.254844 124.579063 125.254844 124.579063 125.254844 124.579063 
L 125.254844 124.579063 
C 125.254844 124.579063 125.254844 124.579063 125.254844 124.579063 
C 125.254844 124.579063 125.254844 124.579063 125.254844 124.579063 
z
" clip-path="url(#p4842a89afc)" style="fill: #d9d9d9"/>
   </g>
   <g id="patch_8">
    <path d="M 125.254844 124.579063 
C 125.254844 124.579063 125.254844 124.579063 125.254844 124.579063 
C 125.254844 124.579063 125.254844 124.579063 125.254844 124.579063 
L 125.254844 124.579063 
C 125.254844 124.579063 125.254844 124.579063 125.254844 124.579063 
C 125.254844 124.579063 125.254844 124.579063 125.254844 124.579063 
z
" clip-path="url(#p4842a89afc)" style="fill: #d9d9d9"/>
   </g>
   <g id="patch_9">
    <path d="M 125.254844 124.579063 
C 125.254844 124.579063 125.254844 124.579063 125.254844 124.579063 
C 125.254844 124.579063 125.254844 124.579063 125.254844 124.579063 
L 125.254844 124.579063 
C 125.254844 124.579063 125.254844 124.579063 125.254844 124.579063 
C 125.254844 124.579063 125.254844 124.579063 125.254844 124.579063 
z
" clip-path="url(#p4842a89afc)" style="fill: #d9d9d9"/>
   </g>
   <g id="patch_10">
    <path d="M 125.254844 124.579063 
C 125.254844 124.579063 125.254844 124.579063 125.254844 124.579063 
C 125.254844 124.579063 125.254844 124.579063 125.254844 124.579063 
L 125.254844 124.579063 
C 125.254844 124.579063 125.254844 124.579063 125.254844 124.579063 
C 125.254844 124.579063 125.254844 124.579063 125.254844 124.579063 
z
" clip-path="url(#p4842a89afc)" style="fill: #d9d9d9"/>
   </g>
   <g id="patch_11">
    <path d="M 125.254844 124.579063 
C 125.254844 124.579063 125.254844 124.579063 125.254844 124.579063 
C 125.254844 124.579063 125.254844 124.579063 125.254844 124.579063 
L 125.254844 124.579063 
C 125.254844 124.579063 125.254844 124.579063 125.254844 124.579063 
C 125.254844 124.579063 125.254844 124.579063 125.254844 124.579063 
z
" clip-path="url(#p4842a89afc)" style="fill: #d9d9d9"/>
   </g>
   <g id="patch_12">
    <path d="M 125.254844 124.579063 
C 125.254844 124.579063 125.254844 124.579063 125.254844 124.579063 
C 125.254844 124.579063 125.254844 124.579063 125.254844 124.579063 
L 125.254844 124.579063 
C 125.254844 124.579063 125.254844 124.579063 125.254844 124.579063 
C 125.254844 124.579063 125.254844 124.579063 125.254844 124.579063 
z
" clip-path="url(#p4842a89afc)" style="fill: #d9d9d9"/>
   </g>
   <g id="patch_13">
    <path d="M 125.254844 124.579063 
C 125.254844 124.579063 125.254844 124.579063 125.254844 124.579063 
C 125.254844 124.579063 125.254844 124.579063 125.254844 124.579063 
L 125.254844 124.579063 
C 125.254844 124.579063 125.254844 124.579063 125.254844 124.579063 
C 125.254844 124.579063 125.254844 124.579063 125.254844 124.579063 
z
" clip-path="url(#p4842a89afc)" style="fill: #d9d9d9"/>
   </g>
   <g id="patch_14">
    <path d="M 125.254844 124.579063 
C 125.254844 124.579063 125.254844 124.579063 125.254844 124.579063 
C 125.254844 124.579063 125.254844 124.579063 125.254844 124.579063 
L 125.254844 124.579063 
C 125.254844 124.579063 125.254844 124.579063 125.254844 124.579063 
C 125.254844 124.579063 125.254844 124.579063 125.254844 124.579063 
z
" clip-path="url(#p4842a89afc)" style="fill: #d9d9d9"/>
   </g>
   <g id="patch_15">
    <path d="M 125.254844 124.579063 
C 125.254844 124.579063 125.254844 124.579063 125.254844 124.579063 
C 125.254844 124.579063 125.254844 124.579063 125.254844 124.579063 
L 125.254844 124.579063 
C 125.254844 124.579063 125.254844 124.579063 125.254844 124.579063 
C 125.254844 124.579063 125.254844 124.579063 125.254844 124.579063 
z
" clip-path="url(#p4842a89afc)" style="fill: #d9d9d9"/>
   </g>
   <g id="patch_16">
    <path d="M 125.254844 124.579063 
C 125.254844 124.579063 125.254844 124.579063 125.254844 124.579063 
C 125.254844 124.579063 125.254844 124.579063 125.254844 124.579063 
L 125.254844 124.579063 
C 125.254844 124.579063 125.254844 124.579063 125.254844 124.579063 
C 125.254844 124.579063 125.254844 124.579063 125.254844 124.579063 
z
" clip-path="url(#p4842a89afc)" style="fill: #d9d9d9"/>
   </g>
   <g id="patch_17">
    <path d="M 125.254844 124.579063 
C 125.254844 124.579063 125.254844 124.579063 125.254844 124.579063 
C 125.254844 124.579063 125.254844 124.579063 125.254844 124.579063 
L 125.254844 124.579063 
C 125.254844 124.579063 125.254844 124.579063 125.254844 124.579063 
C 125.254844 124.579063 125.254844 124.579063 125.254844 124.579063 
z
" clip-path="url(#p4842a89afc)" style="fill: #d9d9d9"/>
   </g>
   <g id="patch_18">
    <path d="M 125.254844 124.579063 
C 125.254844 124.579063 125.254844 124.579063 125.254844 124.579063 
C 125.254844 124.579063 125.254844 124.579063 125.254844 124.579063 
L 125.254844 124.579063 
C 125.254844 124.579063 125.254844 124.579063 125.254844 124.579063 
C 125.254844 124.579063 125.254844 124.579063 125.254844 124.579063 
z
" clip-path="url(#p4842a89afc)" style="fill: #d9d9d9"/>
   </g>
   <g id="patch_19">
    <path d="M 125.254844 124.579063 
C 125.254844 124.579063 125.254844 124.579063 125.254844 124.579063 
C 125.254844 124.579063 125.254844 124.579063 125.254844 124.579063 
L 125.254844 124.579063 
C 125.254844 124.579063 125.254844 124.579063 125.254844 124.579063 
C 125.254844 124.579063 125.254844 124.579063 125.254844 124.579063 
z
" clip-path="url(#p4842a89afc)" style="fill: #d9d9d9"/>
   </g>
   <g id="patch_20">
    <path d="M 125.254844 124.579063 
C 125.254844 124.579063 125.254844 124.579063 125.254844 124.579063 
C 125.254844 124.579063 125.254844 124.579063 125.254844 124.579063 
L 125.254844 124.579063 
C 125.254844 124.579063 125.254844 124.579063 125.254844 124.579063 
C 125.254844 124.579063 125.254844 124.579063 125.254844 124.579063 
z
" clip-path="url(#p4842a89afc)" style="fill: #d9d9d9"/>
   </g>
   <g id="patch_21">
    <path d="M 125.254844 124.579063 
C 125.254844 124.579063 125.254844 124.579063 125.254844 124.579063 
C 125.254844 124.579063 125.254844 124.579063 125.254844 124.579063 
L 125.254844 124.579063 
C 125.254844 124.579063 125.254844 124.579063 125.254844 124.579063 
C 125.254844 124.579063 125.254844 124.579063 125.254844 124.579063 
z
" clip-path="url(#p4842a89afc)" style="fill: #d9d9d9"/>
   </g>
   <g id="patch_22">
    <path d="M 125.254844 124.579063 
C 125.254844 124.579063 125.254844 124.579063 125.254844 124.579063 
C 125.254844 124.579063 125.254844 124.579063 125.254844 124.579063 
L 125.254844 124.579063 
C 125.254844 124.579063 125.254844 124.579063 125.254844 124.579063 
C 125.254844 124.579063 125.254844 124.579063 125.254844 124.579063 
z
" clip-path="url(#p4842a89afc)" style="fill: #d9d9d9"/>
   </g>
   <g id="patch_23">
    <path d="M 125.254844 124.579063 
C 125.254844 124.579063 125.254844 124.579063 125.254844 124.579063 
C 125.254844 124.579063 125.254844 124.579063 125.254844 124.579063 
L 125.254844 124.579063 
C 125.254844 124.579063 125.254844 124.579063 125.254844 124.579063 
C 125.254844 124.579063 125.254844 124.579063 125.254844 124.579063 
z
" clip-path="url(#p4842a89afc)" style="fill: #d9d9d9"/>
   </g>
   <g id="patch_24">
    <path d="M 125.254844 124.579063 
C 125.254844 124.579063 125.254844 124.579063 125.254844 124.579063 
C 125.254844 124.579063 125.254844 124.579063 125.254844 124.579063 
L 125.254844 124.579063 
C 125.254844 124.579063 125.254844 124.579063 125.254844 124.579063 
C 125.254844 124.579063 125.254844 124.579063 125.254844 124.579063 
z
" clip-path="url(#p4842a89afc)" style="fill: #d9d9d9"/>
   </g>
   <g id="patch_25">
    <path d="M 125.254844 124.579063 
C 125.254844 124.579063 125.254844 124.579063 125.254844 124.579063 
C 125.254844 124.579063 125.254844 124.579063 125.254844 124.579063 
L 125.254844 124.579063 
C 125.254844 124.579063 125.254844 124.579063 125.254844 124.579063 
C 125.254844 124.579063 125.254844 124.579063 125.254844 124.579063 
z
" clip-path="url(#p4842a89afc)" style="fill: #d9d9d9"/>
   </g>
   <g id="patch_26">
    <path d="M 125.254844 124.579063 
C 125.254844 124.579063 125.254844 124.579063 125.254844 124.579063 
C 125.254844 124.579063 125.254844 124.579063 125.254844 124.579063 
L 125.254844 124.579063 
C 125.254844 124.579063 125.254844 124.579063 125.254844 124.579063 
C 125.254844 124.579063 125.254844 124.579063 125.254844 124.579063 
z
" clip-path="url(#p4842a89afc)" style="fill: #d9d9d9"/>
   </g>
   <g id="patch_27">
    <path d="M 125.254844 124.579063 
C 125.254844 124.579063 125.254844 124.579063 125.254844 124.579063 
C 125.254844 124.579063 125.254844 124.579063 125.254844 124.579063 
L 125.254844 124.579063 
C 125.254844 124.579063 125.254844 124.579063 125.254844 124.579063 
C 125.254844 124.579063 125.254844 124.579063 125.254844 124.579063 
z
" clip-path="url(#p4842a89afc)" style="fill: #d9d9d9"/>
   </g>
   <g id="patch_28">
    <path d="M 125.254844 124.579063 
C 125.254844 124.579063 125.254844 124.579063 125.254844 124.579063 
C 125.254844 124.579063 125.254844 124.579063 125.254844 124.579063 
L 125.254844 124.579063 
C 125.254844 124.579063 125.254844 124.579063 125.254844 124.579063 
C 125.254844 124.579063 125.254844 124.579063 125.254844 124.579063 
z
" clip-path="url(#p4842a89afc)" style="fill: #d9d9d9"/>
   </g>
   <g id="patch_29">
    <path d="M 125.254844 124.579063 
C 125.254844 124.579063 125.254844 124.579063 125.254844 124.579063 
C 125.254844 124.579063 125.254844 124.579063 125.254844 124.579063 
L 125.254844 124.579063 
C 125.254844 124.579063 125.254844 124.579063 125.254844 124.579063 
C 125.254844 124.579063 125.254844 124.579063 125.254844 124.579063 
z
" clip-path="url(#p4842a89afc)" style="fill: #d9d9d9"/>
   </g>
   <g id="patch_30">
    <path d="M 125.254844 124.579063 
C 125.254844 124.579063 125.254844 124.579063 125.254844 124.579063 
C 125.254844 124.579063 125.254844 124.579063 125.254844 124.579063 
L 125.254844 124.579063 
C 125.254844 124.579063 125.254844 124.579063 125.254844 124.579063 
C 125.254844 124.579063 125.254844 124.579063 125.254844 124.579063 
z
" clip-path="url(#p4842a89afc)" style="fill: #d9d9d9"/>
   </g>
   <g id="patch_31">
    <path d="M 125.254844 124.579063 
C 125.254844 124.579063 125.254844 124.579063 125.254844 124.579063 
C 125.254844 124.579063 125.254844 124.579063 125.254844 124.579063 
L 125.254844 124.579063 
C 125.254844 124.579063 125.254844 124.579063 125.254844 124.579063 
C 125.254844 124.579063 125.254844 124.579063 125.254844 124.579063 
z
" clip-path="url(#p4842a89afc)" style="fill: #d9d9d9"/>
   </g>
   <g id="patch_32">
    <path d="M 125.254844 124.579063 
C 125.254844 124.579063 125.254844 124.579063 125.254844 124.579063 
C 125.254844 124.579063 125.254844 124.579063 125.254844 124.579063 
L 125.254844 124.579063 
C 125.254844 124.579063 125.254844 124.579063 125.254844 124.579063 
C 125.254844 124.579063 125.254844 124.579063 125.254844 124.579063 
z
" clip-path="url(#p4842a89afc)" style="fill: #d9d9d9"/>
   </g>
   <g id="patch_33">
    <path d="M 125.254844 124.579063 
C 125.254844 124.579063 125.254844 124.579063 125.254844 124.579063 
C 125.254844 124.579063 125.254844 124.579063 125.254844 124.579063 
L 125.254844 124.579063 
C 125.254844 124.579063 125.254844 124.579063 125.254844 124.579063 
C 125.254844 124.579063 125.254844 124.579063 125.254844 124.579063 
z
" clip-path="url(#p4842a89afc)" style="fill: #d9d9d9"/>
   </g>
   <g id="patch_34">
    <path d="M 125.254844 124.579063 
C 125.254844 124.579063 125.254844 124.579063 125.254844 124.579063 
C 125.254844 124.579063 125.254844 124.579063 125.254844 124.579063 
L 125.254844 124.579063 
C 125.254844 124.579063 125.254844 124.579063 125.254844 124.579063 
C 125.254844 124.579063 125.254844 124.579063 125.254844 124.579063 
z
" clip-path="url(#p4842a89afc)" style="fill: #d9d9d9"/>
   </g>
   <g id="patch_35">
    <path d="M 125.254844 124.579063 
C 125.254844 124.579063 125.254844 124.579063 125.254844 124.579063 
C 125.254844 124.579063 125.254844 124.579063 125.254844 124.579063 
L 130.09309 75.45552 
C 128.485203 75.297157 126.870511 75.217832 125.254844 75.217832 
C 123.639177 75.217832 122.024484 75.297157 120.416597 75.45552 
z
" clip-path="url(#p4842a89afc)" style="fill: #a1a1d8"/>
   </g>
   <g id="patch_36">
    <path d="M 125.254844 124.579063 
C 125.254844 124.579063 125.254844 124.579063 125.254844 124.579063 
C 125.254844 124.579063 125.254844 124.579063 125.254844 124.579063 
L 140.382624 74.709453 
C 138.750318 74.214298 137.094684 73.799583 135.421704 73.466807 
C 133.748723 73.13403 132.060413 72.883593 130.36287 72.7164 
z
" clip-path="url(#p4842a89afc)" style="fill: #a1a1d8"/>
   </g>
   <g id="patch_37">
    <path d="M 125.254844 124.579063 
C 125.254844 124.579063 125.254844 124.579063 125.254844 124.579063 
C 125.254844 124.579063 125.254844 124.579063 125.254844 124.579063 
L 155.464686 68.060424 
C 153.614746 67.07161 151.717374 66.17422 149.779422 65.371494 
C 147.84147 64.568768 145.865274 63.861674 143.857973 63.252766 
z
" clip-path="url(#p4842a89afc)" style="fill: #a1a1d8"/>
   </g>
   <g id="patch_38">
    <path d="M 125.254844 124.579063 
C 125.254844 124.579063 125.254844 124.579063 125.254844 124.579063 
C 125.254844 124.579063 125.254844 124.579063 125.254844 124.579063 
L 162.242963 79.508909 
C 160.76775 78.298232 159.233984 77.160715 157.647208 76.100464 
C 156.060431 75.040214 154.422555 74.058509 152.739496 73.158895 
z
" clip-path="url(#p4842a89afc)" style="fill: #a1a1d8"/>
   </g>
   <g id="patch_39">
    <path d="M 125.254844 124.579063 
C 125.254844 124.579063 125.254844 124.579063 125.254844 124.579063 
C 125.254844 124.579063 125.254844 124.579063 125.254844 124.579063 
L 164.742205 92.172623 
C 163.681493 90.880143 162.557964 89.640519 161.375676 88.458231 
C 160.193387 87.275942 158.953764 86.152413 157.661283 85.091702 
z
" clip-path="url(#p4842a89afc)" style="fill: #a1a1d8"/>
   </g>
   <g id="patch_40">
    <path d="M 125.254844 124.579063 
C 125.254844 124.579063 125.254844 124.579063 125.254844 124.579063 
C 125.254844 124.579063 125.254844 124.579063 125.254844 124.579063 
L 174.768755 98.113326 
C 173.902492 96.492662 172.95718 94.915505 171.936236 93.387554 
C 170.915291 91.859602 169.819944 90.382697 168.65415 88.962173 
z
" clip-path="url(#p4842a89afc)" style="fill: #a1a1d8"/>
   </g>
   <g id="patch_41">
    <path d="M 125.254844 124.579063 
C 125.254844 124.579063 125.254844 124.579063 125.254844 124.579063 
C 125.254844 124.579063 125.254844 124.579063 125.254844 124.579063 
L 168.815241 111.36516 
C 168.382731 109.939364 167.880478 108.535661 167.310297 107.159123 
C 166.740117 105.782586 166.102695 104.434872 165.400336 103.12085 
z
" clip-path="url(#p4842a89afc)" style="fill: #a1a1d8"/>
   </g>
   <g id="patch_42">
    <path d="M 125.254844 124.579063 
C 125.254844 124.579063 125.254844 124.579063 125.254844 124.579063 
C 125.254844 124.579063 125.254844 124.579063 125.254844 124.579063 
L 177.948975 119.389144 
C 177.779102 117.664386 177.524649 115.949008 177.186538 114.249206 
C 176.848426 112.549404 176.427063 110.867227 175.923969 109.208751 
z
" clip-path="url(#p4842a89afc)" style="fill: #a1a1d8"/>
   </g>
   <g id="patch_43">
    <path d="M 125.254844 124.579063 
C 125.254844 124.579063 125.254844 124.579063 125.254844 124.579063 
C 125.254844 124.579063 125.254844 124.579063 125.254844 124.579063 
L 165.309277 128.52408 
C 165.438404 127.213038 165.503084 125.896447 165.503084 124.579063 
C 165.503084 123.261678 165.438404 121.945087 165.309277 120.634045 
z
" clip-path="url(#p4842a89afc)" style="fill: #a1a1d8"/>
   </g>
   <g id="patch_44">
    <path d="M 125.254844 124.579063 
C 125.254844 124.579063 125.254844 124.579063 125.254844 124.579063 
C 125.254844 124.579063 125.254844 124.579063 125.254844 124.579063 
L 173.232498 139.132925 
C 173.708867 137.562544 174.107848 135.969722 174.428 134.360211 
C 174.748152 132.750701 174.989088 131.126441 175.149938 129.4933 
z
" clip-path="url(#p4842a89afc)" style="fill: #a1a1d8"/>
   </g>
   <g id="patch_45">
    <path d="M 125.254844 124.579063 
C 125.254844 124.579063 125.254844 124.579063 125.254844 124.579063 
C 125.254844 124.579063 125.254844 124.579063 125.254844 124.579063 
L 169.98303 148.486776 
C 170.765565 147.022756 171.475749 145.521197 172.111017 143.987525 
C 172.746285 142.453852 173.305871 140.889914 173.787754 139.30136 
z
" clip-path="url(#p4842a89afc)" style="fill: #a1a1d8"/>
   </g>
   <g id="patch_46">
    <path d="M 125.254844 124.579063 
C 125.254844 124.579063 125.254844 124.579063 125.254844 124.579063 
C 125.254844 124.579063 125.254844 124.579063 125.254844 124.579063 
L 163.244601 155.756451 
C 164.265084 154.512989 165.223901 153.220174 166.117589 151.882676 
C 167.011277 150.545177 167.838759 149.164607 168.597045 147.745952 
z
" clip-path="url(#p4842a89afc)" style="fill: #a1a1d8"/>
   </g>
   <g id="patch_47">
    <path d="M 125.254844 124.579063 
C 125.254844 124.579063 125.254844 124.579063 125.254844 124.579063 
C 125.254844 124.579063 125.254844 124.579063 125.254844 124.579063 
L 152.195717 157.406612 
C 153.270212 156.524797 154.300764 155.590759 155.283652 154.607871 
C 156.26654 153.624983 157.200578 152.594431 158.082393 151.519936 
z
" clip-path="url(#p4842a89afc)" style="fill: #a1a1d8"/>
   </g>
   <g id="patch_48">
    <path d="M 125.254844 124.579063 
C 125.254844 124.579063 125.254844 124.579063 125.254844 124.579063 
C 125.254844 124.579063 125.254844 124.579063 125.254844 124.579063 
L 136.658291 145.913412 
C 137.356596 145.54016 138.036155 145.132848 138.694512 144.692948 
C 139.35287 144.253047 139.989232 143.781088 140.601302 143.278776 
z
" clip-path="url(#p4842a89afc)" style="fill: #a1a1d8"/>
   </g>
   <g id="patch_49">
    <path d="M 125.254844 124.579063 
C 125.254844 124.579063 125.254844 124.579063 125.254844 124.579063 
C 125.254844 124.579063 125.254844 124.579063 125.254844 124.579063 
L 133.091623 150.413463 
C 133.937222 150.156953 134.769717 149.859082 135.586101 149.520924 
C 136.402485 149.182767 137.201775 148.804731 137.981083 148.388182 
z
" clip-path="url(#p4842a89afc)" style="fill: #a1a1d8"/>
   </g>
   <g id="patch_50">
    <path d="M 125.254844 124.579063 
C 125.254844 124.579063 125.254844 124.579063 125.254844 124.579063 
C 125.254844 124.579063 125.254844 124.579063 125.254844 124.579063 
L 127.604299 148.43348 
C 128.38509 148.356579 129.161634 148.24139 129.931127 148.088328 
C 130.700621 147.935266 131.462135 147.744517 132.212921 147.516768 
z
" clip-path="url(#p4842a89afc)" style="fill: #a1a1d8"/>
   </g>
   <g id="patch_51">
    <path d="M 125.254844 124.579063 
C 125.254844 124.579063 125.254844 124.579063 125.254844 124.579063 
C 125.254844 124.579063 125.254844 124.579063 125.254844 124.579063 
L 125.254844 124.579063 
C 125.254844 124.579063 125.254844 124.579063 125.254844 124.579063 
C 125.254844 124.579063 125.254844 124.579063 125.254844 124.579063 
z
" clip-path="url(#p4842a89afc)" style="fill: #a1a1d8"/>
   </g>
   <g id="patch_52">
    <path d="M 125.254844 124.579063 
C 125.254844 124.579063 125.254844 124.579063 125.254844 124.579063 
C 125.254844 124.579063 125.254844 124.579063 125.254844 124.579063 
L 121.237596 137.822153 
C 121.671062 137.953643 122.110723 138.063773 122.55499 138.152143 
C 122.999257 138.240513 123.447596 138.307018 123.898385 138.351417 
z
" clip-path="url(#p4842a89afc)" style="fill: #a1a1d8"/>
   </g>
   <g id="patch_53">
    <path d="M 125.254844 124.579063 
C 125.254844 124.579063 125.254844 124.579063 125.254844 124.579063 
C 125.254844 124.579063 125.254844 124.579063 125.254844 124.579063 
L 118.731187 136.783965 
C 119.130672 136.997494 119.5404 137.191281 119.95889 137.364625 
C 120.377381 137.53797 120.80413 137.690663 121.237596 137.822153 
z
" clip-path="url(#p4842a89afc)" style="fill: #a1a1d8"/>
   </g>
   <g id="patch_54">
    <path d="M 125.254844 124.579063 
C 125.254844 124.579063 125.254844 124.579063 125.254844 124.579063 
C 125.254844 124.579063 125.254844 124.579063 125.254844 124.579063 
L 119.587789 131.484389 
C 119.81381 131.66988 120.048803 131.844163 120.291917 132.006607 
C 120.535032 132.169051 120.785976 132.319461 121.043842 132.457293 
z
" clip-path="url(#p4842a89afc)" style="fill: #a1a1d8"/>
   </g>
   <g id="patch_55">
    <path d="M 125.254844 124.579063 
C 125.254844 124.579063 125.254844 124.579063 125.254844 124.579063 
C 125.254844 124.579063 125.254844 124.579063 125.254844 124.579063 
L 116.340105 131.895199 
C 116.579573 132.186992 116.833223 132.466852 117.100139 132.733767 
C 117.367055 133.000683 117.646914 133.254333 117.938707 133.493801 
z
" clip-path="url(#p4842a89afc)" style="fill: #a1a1d8"/>
   </g>
   <g id="patch_56">
    <path d="M 125.254844 124.579063 
C 125.254844 124.579063 125.254844 124.579063 125.254844 124.579063 
C 125.254844 124.579063 125.254844 124.579063 125.254844 124.579063 
L 108.419254 133.577873 
C 108.713798 134.128927 109.035221 134.665187 109.38236 135.184717 
C 109.729498 135.704247 110.101936 136.206421 110.498326 136.689424 
z
" clip-path="url(#p4842a89afc)" style="fill: #a1a1d8"/>
   </g>
   <g id="patch_57">
    <path d="M 125.254844 124.579063 
C 125.254844 124.579063 125.254844 124.579063 125.254844 124.579063 
C 125.254844 124.579063 125.254844 124.579063 125.254844 124.579063 
L 94.951275 133.77155 
C 95.252159 134.763431 95.60156 135.739941 95.998216 136.697555 
C 96.394872 137.655168 96.838306 138.592729 97.326915 139.506852 
z
" clip-path="url(#p4842a89afc)" style="fill: #a1a1d8"/>
   </g>
   <g id="patch_58">
    <path d="M 125.254844 124.579063 
C 125.254844 124.579063 125.254844 124.579063 125.254844 124.579063 
C 125.254844 124.579063 125.254844 124.579063 125.254844 124.579063 
L 95.636276 127.496237 
C 95.731759 128.465697 95.874783 129.429884 96.064831 130.385317 
C 96.254878 131.34075 96.49172 132.286276 96.774501 133.21848 
z
" clip-path="url(#p4842a89afc)" style="fill: #a1a1d8"/>
   </g>
   <g id="patch_59">
    <path d="M 125.254844 124.579063 
C 125.254844 124.579063 125.254844 124.579063 125.254844 124.579063 
C 125.254844 124.579063 125.254844 124.579063 125.254844 124.579063 
L 86.064758 120.719176 
C 85.938418 122.001926 85.875134 123.290106 85.875134 124.579062 
C 85.875134 125.868019 85.938418 127.156199 86.064758 128.438949 
z
" clip-path="url(#p4842a89afc)" style="fill: #a1a1d8"/>
   </g>
   <g id="patch_60">
    <path d="M 125.254844 124.579063 
C 125.254844 124.579063 125.254844 124.579063 125.254844 124.579063 
C 125.254844 124.579063 125.254844 124.579063 125.254844 124.579063 
L 95.193385 115.460019 
C 94.894905 116.443975 94.644915 117.441993 94.444317 118.450468 
C 94.243719 119.458942 94.092755 120.476658 93.991971 121.499938 
z
" clip-path="url(#p4842a89afc)" style="fill: #a1a1d8"/>
   </g>
   <g id="patch_61">
    <path d="M 125.254844 124.579063 
C 125.254844 124.579063 125.254844 124.579063 125.254844 124.579063 
C 125.254844 124.579063 125.254844 124.579063 125.254844 124.579063 
L 88.135083 104.738137 
C 87.48566 105.953122 86.896281 107.19926 86.369074 108.472049 
C 85.841868 109.744839 85.377469 111.042745 84.977557 112.361081 
z
" clip-path="url(#p4842a89afc)" style="fill: #a1a1d8"/>
   </g>
   <g id="patch_62">
    <path d="M 125.254844 124.579063 
C 125.254844 124.579063 125.254844 124.579063 125.254844 124.579063 
C 125.254844 124.579063 125.254844 124.579063 125.254844 124.579063 
L 88.628393 94.520511 
C 87.644532 95.71935 86.720123 96.96577 85.858506 98.255271 
C 84.996889 99.544772 84.199102 100.875799 83.468028 102.243544 
z
" clip-path="url(#p4842a89afc)" style="fill: #a1a1d8"/>
   </g>
   <g id="patch_63">
    <path d="M 125.254844 124.579063 
C 125.254844 124.579063 125.254844 124.579063 125.254844 124.579063 
C 125.254844 124.579063 125.254844 124.579063 125.254844 124.579063 
L 88.368162 79.632511 
C 86.896994 80.839867 85.485991 82.118725 84.140249 83.464468 
C 82.794507 84.81021 81.515648 86.221213 80.308292 87.692381 
z
" clip-path="url(#p4842a89afc)" style="fill: #a1a1d8"/>
   </g>
   <g id="patch_64">
    <path d="M 125.254844 124.579063 
C 125.254844 124.579063 125.254844 124.579063 125.254844 124.579063 
C 125.254844 124.579063 125.254844 124.579063 125.254844 124.579063 
L 102.011537 81.093894 
C 100.588202 81.854682 99.203078 82.684894 97.861168 83.581529 
C 96.519258 84.478165 95.222178 85.440145 93.974615 86.463994 
z
" clip-path="url(#p4842a89afc)" style="fill: #a1a1d8"/>
   </g>
   <g id="patch_65">
    <path d="M 125.254844 124.579063 
C 125.254844 124.579063 125.254844 124.579063 125.254844 124.579063 
C 125.254844 124.579063 125.254844 124.579063 125.254844 124.579063 
L 110.578292 76.196954 
C 108.994673 76.677339 107.435594 77.235187 105.906687 77.868481 
C 104.37778 78.501775 102.880888 79.209752 101.421416 79.989856 
z
" clip-path="url(#p4842a89afc)" style="fill: #a1a1d8"/>
   </g>
   <g id="patch_66">
    <path d="M 125.254844 124.579063 
C 125.254844 124.579063 125.254844 124.579063 125.254844 124.579063 
C 125.254844 124.579063 125.254844 124.579063 125.254844 124.579063 
L 121.381738 85.254763 
C 120.094595 85.381535 118.814452 85.571427 117.545933 85.823751 
C 116.277414 86.076075 115.022048 86.390528 113.784369 86.765974 
z
" clip-path="url(#p4842a89afc)" style="fill: #a1a1d8"/>
   </g>
   <g id="patch_67">
    <path d="M 120.416597 75.45552 
C 122.024484 75.297157 123.639177 75.217832 125.254844 75.217832 
C 126.870511 75.217832 128.485203 75.297157 130.09309 75.45552 
L 133.019178 45.746451 
C 130.438869 45.492313 127.847638 45.365013 125.254844 45.365013 
C 122.66205 45.365013 120.070818 45.492313 117.490509 45.746451 
z
" clip-path="url(#p4842a89afc)" style="fill: #ff8c8e"/>
   </g>
   <g id="patch_68">
    <path d="M 130.36287 72.7164 
C 132.060413 72.883593 133.748723 73.13403 135.421704 73.466807 
C 137.094684 73.799583 138.750318 74.214298 140.382624 74.709453 
L 146.648757 54.052783 
C 144.340326 53.352528 141.998907 52.766033 139.632955 52.295416 
C 137.267003 51.824799 134.879372 51.470627 132.478684 51.23418 
z
" clip-path="url(#p4842a89afc)" style="fill: #ff8c8e"/>
   </g>
   <g id="patch_69">
    <path d="M 143.857973 63.252766 
C 145.865274 63.861674 147.84147 64.568768 149.779422 65.371494 
C 151.717374 66.17422 153.614746 67.07161 155.464686 68.060424 
L 172.847239 35.539954 
C 169.932856 33.982184 166.943747 32.568441 163.89071 31.303831 
C 160.837672 30.039221 157.724386 28.92527 154.562096 27.966 
z
" clip-path="url(#p4842a89afc)" style="fill: #ff8c8e"/>
   </g>
   <g id="patch_70">
    <path d="M 152.739496 73.158895 
C 154.422555 74.058509 156.060431 75.040214 157.647208 76.100464 
C 159.233984 77.160715 160.76775 78.298232 162.242963 79.508909 
L 186.053658 50.495493 
C 183.628792 48.505457 181.107682 46.635675 178.499435 44.8929 
C 175.891188 43.150125 173.198948 41.536458 170.432438 40.057728 
z
" clip-path="url(#p4842a89afc)" style="fill: #ff8c8e"/>
   </g>
   <g id="patch_71">
    <path d="M 157.661283 85.091702 
C 158.953764 86.152413 160.193387 87.275942 161.375676 88.458231 
C 162.557964 89.640519 163.681493 90.880143 164.742205 92.172623 
L 175.225114 83.569522 
C 173.88281 81.93392 172.461013 80.365208 170.964856 78.869051 
C 169.468699 77.372894 167.899986 75.951096 166.264385 74.608792 
z
" clip-path="url(#p4842a89afc)" style="fill: #ff8c8e"/>
   </g>
   <g id="patch_72">
    <path d="M 168.65415 88.962173 
C 169.819944 90.382697 170.915291 91.859602 171.936236 93.387554 
C 172.95718 94.915505 173.902492 96.492662 174.768755 98.113326 
L 197.402691 86.015235 
C 196.14044 83.653728 194.763005 81.355617 193.275364 79.129204 
C 191.787722 76.902791 190.191666 74.750759 188.492961 72.680881 
z
" clip-path="url(#p4842a89afc)" style="fill: #ff8c8e"/>
   </g>
   <g id="patch_73">
    <path d="M 165.400336 103.12085 
C 166.102695 104.434872 166.740117 105.782586 167.310297 107.159123 
C 167.880478 108.535661 168.382731 109.939364 168.815241 111.36516 
L 210.353079 98.764795 
C 209.508139 95.979403 208.526954 93.237174 207.413067 90.548012 
C 206.29918 87.858851 205.053934 85.225999 203.681826 82.658967 
z
" clip-path="url(#p4842a89afc)" style="fill: #ff8c8e"/>
   </g>
   <g id="patch_74">
    <path d="M 175.923969 109.208751 
C 176.427063 110.867227 176.848426 112.549404 177.186538 114.249206 
C 177.524649 115.949008 177.779102 117.664386 177.948975 119.389144 
L 226.434535 114.613733 
C 226.108355 111.30197 225.619773 108.008219 224.970554 104.744375 
C 224.321335 101.48053 223.512261 98.250528 222.546256 95.066035 
z
" clip-path="url(#p4842a89afc)" style="fill: #ff8c8e"/>
   </g>
   <g id="patch_75">
    <path d="M 165.309277 120.634045 
C 165.438404 121.945087 165.503084 123.261678 165.503084 124.579063 
C 165.503084 125.896447 165.438404 127.213038 165.309277 128.52408 
L 197.550596 131.699573 
C 197.783661 129.333225 197.900404 126.95686 197.900404 124.579063 
C 197.900404 122.201265 197.783661 119.8249 197.550596 117.458552 
z
" clip-path="url(#p4842a89afc)" style="fill: #ff8c8e"/>
   </g>
   <g id="patch_76">
    <path d="M 175.149938 129.4933 
C 174.989088 131.126441 174.748152 132.750701 174.428 134.360211 
C 174.107848 135.969722 173.708867 137.562544 173.232498 139.132925 
L 194.103349 145.464028 
C 194.786945 143.210514 195.359488 140.924795 195.81891 138.615128 
C 196.278331 136.305461 196.624077 133.974629 196.854899 131.631052 
z
" clip-path="url(#p4842a89afc)" style="fill: #ff8c8e"/>
   </g>
   <g id="patch_77">
    <path d="M 173.787754 139.30136 
C 173.305871 140.889914 172.746285 142.453852 172.111017 143.987525 
C 171.475749 145.521197 170.765565 147.022756 169.98303 148.486776 
L 197.66031 163.280591 
C 198.927069 160.910652 200.076707 158.479947 201.105071 155.997255 
C 202.133435 153.514564 203.039287 150.98288 203.819353 148.411346 
z
" clip-path="url(#p4842a89afc)" style="fill: #ff8c8e"/>
   </g>
   <g id="patch_78">
    <path d="M 168.597045 147.745952 
C 167.838759 149.164607 167.011277 150.545177 166.117589 151.882676 
C 165.223901 153.220174 164.265084 154.512989 163.244601 155.756451 
L 180.064175 169.559918 
C 181.536465 167.765927 182.919788 165.900731 184.209148 163.971069 
C 185.498507 162.041407 186.692348 160.049603 187.786358 158.002853 
z
" clip-path="url(#p4842a89afc)" style="fill: #ff8c8e"/>
   </g>
   <g id="patch_79">
    <path d="M 158.082393 151.519936 
C 157.200578 152.594431 156.26654 153.624983 155.283652 154.607871 
C 154.300764 155.590759 153.270212 156.524797 152.195717 157.406612 
L 160.019968 166.94049 
C 161.406521 165.802575 162.73637 164.597271 164.004711 163.32893 
C 165.273052 162.060589 166.478356 160.73074 167.616271 159.344187 
z
" clip-path="url(#p4842a89afc)" style="fill: #ff8c8e"/>
   </g>
   <g id="patch_80">
    <path d="M 140.601302 143.278776 
C 139.989232 143.781088 139.35287 144.253047 138.694512 144.692948 
C 138.036155 145.132848 137.356596 145.54016 136.658291 145.913412 
L 145.65395 162.743107 
C 146.903116 162.075413 148.118748 161.346792 149.296454 160.559874 
C 150.474159 159.772956 151.61252 158.928691 152.707423 158.030127 
z
" clip-path="url(#p4842a89afc)" style="fill: #ff8c8e"/>
   </g>
   <g id="patch_81">
    <path d="M 137.981083 148.388182 
C 137.201775 148.804731 136.402485 149.182767 135.586101 149.520924 
C 134.769717 149.859082 133.937222 150.156953 133.091623 150.413463 
L 138.803752 169.243827 
C 140.265696 168.800351 141.704986 168.285365 143.116423 167.700729 
C 144.527859 167.116093 145.909741 166.462511 147.257077 165.742346 
z
" clip-path="url(#p4842a89afc)" style="fill: #ff8c8e"/>
   </g>
   <g id="patch_82">
    <path d="M 132.212921 147.516768 
C 131.462135 147.744517 130.700621 147.935266 129.931127 148.088328 
C 129.161634 148.24139 128.38509 148.356579 127.604299 148.43348 
L 127.857179 151.001014 
C 128.722009 150.915835 129.582135 150.788248 130.434452 150.618711 
C 131.286769 150.449175 132.130248 150.237894 132.961843 149.985633 
z
" clip-path="url(#p4842a89afc)" style="fill: #ff8c8e"/>
   </g>
   <g id="patch_83">
    <path d="M 125.254844 124.579063 
C 125.254844 124.579063 125.254844 124.579063 125.254844 124.579063 
C 125.254844 124.579063 125.254844 124.579063 125.254844 124.579063 
L 125.254844 124.579063 
C 125.254844 124.579063 125.254844 124.579063 125.254844 124.579063 
C 125.254844 124.579063 125.254844 124.579063 125.254844 124.579063 
z
" clip-path="url(#p4842a89afc)" style="fill: #ff8c8e"/>
   </g>
   <g id="patch_84">
    <path d="M 123.898385 138.351417 
C 123.447596 138.307018 122.999257 138.240513 122.55499 138.152143 
C 122.110723 138.063773 121.671062 137.953643 121.237596 137.822153 
L 121.237596 137.822153 
C 121.671062 137.953643 122.110723 138.063773 122.55499 138.152143 
C 122.999257 138.240513 123.447596 138.307018 123.898385 138.351417 
z
" clip-path="url(#p4842a89afc)" style="fill: #ff8c8e"/>
   </g>
   <g id="patch_85">
    <path d="M 121.237596 137.822153 
C 120.80413 137.690663 120.377381 137.53797 119.95889 137.364625 
C 119.5404 137.191281 119.130672 136.997494 118.731187 136.783965 
L 118.731187 136.783965 
C 119.130672 136.997494 119.5404 137.191281 119.95889 137.364625 
C 120.377381 137.53797 120.80413 137.690663 121.237596 137.822153 
z
" clip-path="url(#p4842a89afc)" style="fill: #ff8c8e"/>
   </g>
   <g id="patch_86">
    <path d="M 121.043842 132.457293 
C 120.785976 132.319461 120.535032 132.169051 120.291917 132.006607 
C 120.048803 131.844163 119.81381 131.66988 119.587789 131.484389 
L 119.587789 131.484389 
C 119.81381 131.66988 120.048803 131.844163 120.291917 132.006607 
C 120.535032 132.169051 120.785976 132.319461 121.043842 132.457293 
z
" clip-path="url(#p4842a89afc)" style="fill: #ff8c8e"/>
   </g>
   <g id="patch_87">
    <path d="M 117.938707 133.493801 
C 117.646914 133.254333 117.367055 133.000683 117.100139 132.733767 
C 116.833223 132.466852 116.579573 132.186992 116.340105 131.895199 
L 116.340105 131.895199 
C 116.579573 132.186992 116.833223 132.466852 117.100139 132.733767 
C 117.367055 133.000683 117.646914 133.254333 117.938707 133.493801 
z
" clip-path="url(#p4842a89afc)" style="fill: #ff8c8e"/>
   </g>
   <g id="patch_88">
    <path d="M 110.498326 136.689424 
C 110.101936 136.206421 109.729498 135.704247 109.38236 135.184717 
C 109.035221 134.665187 108.713798 134.128927 108.419254 133.577873 
L 108.419254 133.577873 
C 108.713798 134.128927 109.035221 134.665187 109.38236 135.184717 
C 109.729498 135.704247 110.101936 136.206421 110.498326 136.689424 
z
" clip-path="url(#p4842a89afc)" style="fill: #ff8c8e"/>
   </g>
   <g id="patch_89">
    <path d="M 97.326915 139.506852 
C 96.838306 138.592729 96.394872 137.655168 95.998216 136.697555 
C 95.60156 135.739941 95.252159 134.763431 94.951275 133.77155 
L 94.951275 133.77155 
C 95.252159 134.763431 95.60156 135.739941 95.998216 136.697555 
C 96.394872 137.655168 96.838306 138.592729 97.326915 139.506852 
z
" clip-path="url(#p4842a89afc)" style="fill: #ff8c8e"/>
   </g>
   <g id="patch_90">
    <path d="M 96.774501 133.21848 
C 96.49172 132.286276 96.254878 131.34075 96.064831 130.385317 
C 95.874783 129.429884 95.731759 128.465697 95.636276 127.496237 
L 95.636276 127.496237 
C 95.731759 128.465697 95.874783 129.429884 96.064831 130.385317 
C 96.254878 131.34075 96.49172 132.286276 96.774501 133.21848 
z
" clip-path="url(#p4842a89afc)" style="fill: #ff8c8e"/>
   </g>
   <g id="patch_91">
    <path d="M 86.064758 128.438949 
C 85.938418 127.156199 85.875134 125.868019 85.875134 124.579062 
C 85.875134 123.290106 85.938418 122.001926 86.064758 120.719176 
L 85.86361 120.699365 
C 85.736621 121.988698 85.673012 123.28349 85.673012 124.579062 
C 85.673012 125.874635 85.736621 127.169427 85.86361 128.45876 
z
" clip-path="url(#p4842a89afc)" style="fill: #ff8c8e"/>
   </g>
   <g id="patch_92">
    <path d="M 93.991971 121.499938 
C 94.092755 120.476658 94.243719 119.458942 94.444317 118.450468 
C 94.644915 117.441993 94.894905 116.443975 95.193385 115.460019 
L 93.042087 114.80743 
C 92.722247 115.861801 92.454366 116.931241 92.239413 118.011885 
C 92.024459 119.092529 91.862692 120.183076 91.754695 121.279586 
z
" clip-path="url(#p4842a89afc)" style="fill: #ff8c8e"/>
   </g>
   <g id="patch_93">
    <path d="M 84.977557 112.361081 
C 85.377469 111.042745 85.841868 109.744839 86.369074 108.472049 
C 86.896281 107.19926 87.48566 105.953122 88.135083 104.738137 
L 87.472178 104.383807 
C 86.811157 105.62049 86.211252 106.888882 85.674631 108.184401 
C 85.138009 109.479921 84.665317 110.801006 84.258262 112.142886 
z
" clip-path="url(#p4842a89afc)" style="fill: #ff8c8e"/>
   </g>
   <g id="patch_94">
    <path d="M 83.468028 102.243544 
C 84.199102 100.875799 84.996889 99.544772 85.858506 98.255271 
C 86.720123 96.96577 87.644532 95.71935 88.628393 94.520511 
L 82.612936 89.583753 
C 81.467488 90.979487 80.391256 92.430617 79.388129 93.931903 
C 78.385001 95.433189 77.456188 96.982821 76.605043 98.575202 
z
" clip-path="url(#p4842a89afc)" style="fill: #ff8c8e"/>
   </g>
   <g id="patch_95">
    <path d="M 80.308292 87.692381 
C 81.515648 86.221213 82.794507 84.81021 84.140249 83.464468 
C 85.485991 82.118725 86.896994 80.839867 88.368162 79.632511 
L 83.036233 73.135537 
C 81.35241 74.517415 79.737448 75.981131 78.19718 77.521399 
C 76.656912 79.061666 75.193196 80.676628 73.811318 82.360452 
z
" clip-path="url(#p4842a89afc)" style="fill: #ff8c8e"/>
   </g>
   <g id="patch_96">
    <path d="M 93.974615 86.463994 
C 95.222178 85.440145 96.519258 84.478165 97.861168 83.581529 
C 99.203078 82.684894 100.588202 81.854682 102.011537 81.093894 
L 95.597908 69.094837 
C 93.781826 70.065553 92.014499 71.124849 90.302309 72.268897 
C 88.590119 73.412946 86.935131 74.640369 85.343322 75.946732 
z
" clip-path="url(#p4842a89afc)" style="fill: #ff8c8e"/>
   </g>
   <g id="patch_97">
    <path d="M 101.421416 79.989856 
C 102.880888 79.209752 104.37778 78.501775 105.906687 77.868481 
C 107.435594 77.235187 108.994673 76.677339 110.578292 76.196954 
L 103.415069 52.582973 
C 101.058529 53.297821 98.738507 54.127939 96.463382 55.070326 
C 94.188258 56.012714 91.960773 57.066235 89.788974 58.227086 
z
" clip-path="url(#p4842a89afc)" style="fill: #ff8c8e"/>
   </g>
   <g id="patch_98">
    <path d="M 113.784369 86.765974 
C 115.022048 86.390528 116.277414 86.076075 117.545933 85.823751 
C 118.814452 85.571427 120.094595 85.381535 121.381738 85.254763 
L 119.593897 67.10251 
C 117.712604 67.287802 115.841542 67.565348 113.987469 67.934146 
C 112.133397 68.302944 110.298548 68.762549 108.489552 69.311302 
z
" clip-path="url(#p4842a89afc)" style="fill: #ff8c8e"/>
   </g>
   <g id="patch_99">
    <path d="M 117.490509 45.746451 
C 120.070818 45.492313 122.66205 45.365013 125.254844 45.365013 
C 127.847638 45.365013 130.438869 45.492313 133.019178 45.746451 
L 134.461735 31.099928 
C 131.402023 30.798573 128.32936 30.647623 125.254844 30.647623 
C 122.180327 30.647623 119.107664 30.798573 116.047953 31.099928 
z
" clip-path="url(#p4842a89afc)" style="fill: #828282"/>
   </g>
   <g id="patch_100">
    <path d="M 132.478684 51.23418 
C 134.879372 51.470627 137.267003 51.824799 139.632955 52.295416 
C 141.998907 52.766033 144.340326 53.352528 146.648757 54.052783 
L 151.336893 38.59807 
C 148.522606 37.744365 145.668102 37.029349 142.78369 36.455604 
C 139.899277 35.881859 136.988434 35.450076 134.061674 35.161815 
z
" clip-path="url(#p4842a89afc)" style="fill: #828282"/>
   </g>
   <g id="patch_101">
    <path d="M 154.562096 27.966 
C 157.724386 28.92527 160.837672 30.039221 163.89071 31.303831 
C 166.943747 32.568441 169.932856 33.982184 172.847239 35.539954 
L 176.971937 27.823187 
C 173.804972 26.130409 170.556806 24.594141 167.23917 23.219931 
C 163.921535 21.845722 160.538429 20.635227 157.102072 19.59282 
z
" clip-path="url(#p4842a89afc)" style="fill: #828282"/>
   </g>
   <g id="patch_102">
    <path d="M 170.432438 40.057728 
C 173.198948 41.536458 175.891188 43.150125 178.499435 44.8929 
C 181.107682 46.635675 183.628792 48.505457 186.053658 50.495493 
L 186.053658 50.495493 
C 183.628792 48.505457 181.107682 46.635675 178.499435 44.8929 
C 175.891188 43.150125 173.198948 41.536458 170.432438 40.057728 
z
" clip-path="url(#p4842a89afc)" style="fill: #828282"/>
   </g>
   <g id="patch_103">
    <path d="M 166.264385 74.608792 
C 167.899986 75.951096 169.468699 77.372894 170.964856 78.869051 
C 172.461013 80.365208 173.88281 81.93392 175.225114 83.569522 
L 179.55431 80.016642 
C 178.095716 78.239339 176.55074 76.534721 174.924962 74.908944 
C 173.299185 73.283167 171.594567 71.738191 169.817264 70.279596 
z
" clip-path="url(#p4842a89afc)" style="fill: #828282"/>
   </g>
   <g id="patch_104">
    <path d="M 188.492961 72.680881 
C 190.191666 74.750759 191.787722 76.902791 193.275364 79.129204 
C 194.763005 81.355617 196.14044 83.653728 197.402691 86.015235 
L 199.173193 85.068882 
C 197.879966 82.649424 196.46873 80.294918 194.944581 78.013869 
C 193.420433 75.732819 191.78521 73.527977 190.044819 71.407304 
z
" clip-path="url(#p4842a89afc)" style="fill: #828282"/>
   </g>
   <g id="patch_105">
    <path d="M 203.681826 82.658967 
C 205.053934 85.225999 206.29918 87.858851 207.413067 90.548012 
C 208.526954 93.237174 209.508139 95.979403 210.353079 98.764795 
L 228.380081 93.296364 
C 227.356151 89.920921 226.167114 86.597785 224.817264 83.338958 
C 223.467414 80.080131 221.958378 76.889543 220.295606 73.778717 
z
" clip-path="url(#p4842a89afc)" style="fill: #828282"/>
   </g>
   <g id="patch_106">
    <path d="M 222.546256 95.066035 
C 223.512261 98.250528 224.321335 101.48053 224.970554 104.744375 
C 225.619773 108.008219 226.108355 111.30197 226.434535 114.613733 
L 235.600926 113.710922 
C 235.245196 110.09913 234.712351 106.50698 234.004316 102.947448 
C 233.296281 99.387915 232.413909 95.86529 231.360388 92.392297 
z
" clip-path="url(#p4842a89afc)" style="fill: #828282"/>
   </g>
   <g id="patch_107">
    <path d="M 197.550596 117.458552 
C 197.783661 119.8249 197.900404 122.201265 197.900404 124.579063 
C 197.900404 126.95686 197.783661 129.333225 197.550596 131.699573 
L 201.901705 132.128119 
C 202.148797 129.619353 202.272566 127.099968 202.272566 124.579063 
C 202.272566 122.058157 202.148797 119.538772 201.901705 117.030006 
z
" clip-path="url(#p4842a89afc)" style="fill: #828282"/>
   </g>
   <g id="patch_108">
    <path d="M 196.854899 131.631052 
C 196.624077 133.974629 196.278331 136.305461 195.81891 138.615128 
C 195.359488 140.924795 194.786945 143.210514 194.103349 145.464028 
L 194.544182 145.597753 
C 195.232155 143.32981 195.808364 141.029456 196.270727 138.705 
C 196.73309 136.380544 197.08105 134.034788 197.31335 131.676206 
z
" clip-path="url(#p4842a89afc)" style="fill: #828282"/>
   </g>
   <g id="patch_109">
    <path d="M 203.819353 148.411346 
C 203.039287 150.98288 202.133435 153.514564 201.105071 155.997255 
C 200.076707 158.479947 198.927069 160.910652 197.66031 163.280591 
L 200.118762 164.59466 
C 201.428532 162.144253 202.617205 159.631016 203.680486 157.064027 
C 204.743768 154.497039 205.680376 151.879393 206.486929 149.220546 
z
" clip-path="url(#p4842a89afc)" style="fill: #828282"/>
   </g>
   <g id="patch_110">
    <path d="M 187.786358 158.002853 
C 186.692348 160.049603 185.498507 162.041407 184.209148 163.971069 
C 182.919788 165.900731 181.536465 167.765927 180.064175 169.559918 
L 180.064175 169.559918 
C 181.536465 167.765927 182.919788 165.900731 184.209148 163.971069 
C 185.498507 162.041407 186.692348 160.049603 187.786358 158.002853 
z
" clip-path="url(#p4842a89afc)" style="fill: #828282"/>
   </g>
   <g id="patch_111">
    <path d="M 167.616271 159.344187 
C 166.478356 160.73074 165.273052 162.060589 164.004711 163.32893 
C 162.73637 164.597271 161.406521 165.802575 160.019968 166.94049 
L 160.019968 166.94049 
C 161.406521 165.802575 162.73637 164.597271 164.004711 163.32893 
C 165.273052 162.060589 166.478356 160.73074 167.616271 159.344187 
z
" clip-path="url(#p4842a89afc)" style="fill: #828282"/>
   </g>
   <g id="patch_112">
    <path d="M 152.707423 158.030127 
C 151.61252 158.928691 150.474159 159.772956 149.296454 160.559874 
C 148.118748 161.346792 146.903116 162.075413 145.65395 162.743107 
L 146.393906 164.127466 
C 147.688384 163.435553 148.948111 162.680502 150.168537 161.865039 
C 151.388963 161.049577 152.568616 160.174686 153.703235 159.243528 
z
" clip-path="url(#p4842a89afc)" style="fill: #828282"/>
   </g>
   <g id="patch_113">
    <path d="M 147.257077 165.742346 
C 145.909741 166.462511 144.527859 167.116093 143.116423 167.700729 
C 141.704986 168.285365 140.265696 168.800351 138.803752 169.243827 
L 138.803752 169.243827 
C 140.265696 168.800351 141.704986 168.285365 143.116423 167.700729 
C 144.527859 167.116093 145.909741 166.462511 147.257077 165.742346 
z
" clip-path="url(#p4842a89afc)" style="fill: #828282"/>
   </g>
   <g id="patch_114">
    <path d="M 132.961843 149.985633 
C 132.130248 150.237894 131.286769 150.449175 130.434452 150.618711 
C 129.582135 150.788248 128.722009 150.915835 127.857179 151.001014 
L 127.925035 151.68997 
C 128.812416 151.60257 129.69497 151.471656 130.569511 151.297699 
C 131.444052 151.123742 132.309525 150.906952 133.162804 150.648113 
z
" clip-path="url(#p4842a89afc)" style="fill: #828282"/>
   </g>
   <g id="patch_115">
    <path d="M 125.254844 124.579063 
C 125.254844 124.579063 125.254844 124.579063 125.254844 124.579063 
C 125.254844 124.579063 125.254844 124.579063 125.254844 124.579063 
L 125.254844 124.579063 
C 125.254844 124.579063 125.254844 124.579063 125.254844 124.579063 
C 125.254844 124.579063 125.254844 124.579063 125.254844 124.579063 
z
" clip-path="url(#p4842a89afc)" style="fill: #828282"/>
   </g>
   <g id="patch_116">
    <path d="M 123.898385 138.351417 
C 123.447596 138.307018 122.999257 138.240513 122.55499 138.152143 
C 122.110723 138.063773 121.671062 137.953643 121.237596 137.822153 
L 121.237596 137.822153 
C 121.671062 137.953643 122.110723 138.063773 122.55499 138.152143 
C 122.999257 138.240513 123.447596 138.307018 123.898385 138.351417 
z
" clip-path="url(#p4842a89afc)" style="fill: #828282"/>
   </g>
   <g id="patch_117">
    <path d="M 121.237596 137.822153 
C 120.80413 137.690663 120.377381 137.53797 119.95889 137.364625 
C 119.5404 137.191281 119.130672 136.997494 118.731187 136.783965 
L 118.731187 136.783965 
C 119.130672 136.997494 119.5404 137.191281 119.95889 137.364625 
C 120.377381 137.53797 120.80413 137.690663 121.237596 137.822153 
z
" clip-path="url(#p4842a89afc)" style="fill: #828282"/>
   </g>
   <g id="patch_118">
    <path d="M 121.043842 132.457293 
C 120.785976 132.319461 120.535032 132.169051 120.291917 132.006607 
C 120.048803 131.844163 119.81381 131.66988 119.587789 131.484389 
L 119.587789 131.484389 
C 119.81381 131.66988 120.048803 131.844163 120.291917 132.006607 
C 120.535032 132.169051 120.785976 132.319461 121.043842 132.457293 
z
" clip-path="url(#p4842a89afc)" style="fill: #828282"/>
   </g>
   <g id="patch_119">
    <path d="M 117.938707 133.493801 
C 117.646914 133.254333 117.367055 133.000683 117.100139 132.733767 
C 116.833223 132.466852 116.579573 132.186992 116.340105 131.895199 
L 114.631707 133.297246 
C 114.917066 133.644957 115.219325 133.978448 115.537392 134.296515 
C 115.855458 134.614581 116.188949 134.91684 116.536661 135.202199 
z
" clip-path="url(#p4842a89afc)" style="fill: #828282"/>
   </g>
   <g id="patch_120">
    <path d="M 110.498326 136.689424 
C 110.101936 136.206421 109.729498 135.704247 109.38236 135.184717 
C 109.035221 134.665187 108.713798 134.128927 108.419254 133.577873 
L 103.679421 136.111366 
C 104.056891 136.817562 104.468805 137.504799 104.913676 138.170596 
C 105.358547 138.836393 105.835839 139.479947 106.343828 140.098932 
z
" clip-path="url(#p4842a89afc)" style="fill: #828282"/>
   </g>
   <g id="patch_121">
    <path d="M 97.326915 139.506852 
C 96.838306 138.592729 96.394872 137.655168 95.998216 136.697555 
C 95.60156 135.739941 95.252159 134.763431 94.951275 133.77155 
L 88.920046 135.601103 
C 89.280814 136.790395 89.699755 137.961258 90.175357 139.109462 
C 90.650958 140.257666 91.182647 141.381827 91.768502 142.477885 
z
" clip-path="url(#p4842a89afc)" style="fill: #828282"/>
   </g>
   <g id="patch_122">
    <path d="M 96.774501 133.21848 
C 96.49172 132.286276 96.254878 131.34075 96.064831 130.385317 
C 95.874783 129.429884 95.731759 128.465697 95.636276 127.496237 
L 95.636276 127.496237 
C 95.731759 128.465697 95.874783 129.429884 96.064831 130.385317 
C 96.254878 131.34075 96.49172 132.286276 96.774501 133.21848 
z
" clip-path="url(#p4842a89afc)" style="fill: #828282"/>
   </g>
   <g id="patch_123">
    <path d="M 85.86361 128.45876 
C 85.736621 127.169427 85.673012 125.874635 85.673012 124.579062 
C 85.673012 123.28349 85.736621 121.988698 85.86361 120.699365 
L 83.117041 120.428851 
C 82.981198 121.808084 82.913154 123.193156 82.913154 124.579062 
C 82.913154 125.964969 82.981198 127.350041 83.117041 128.729274 
z
" clip-path="url(#p4842a89afc)" style="fill: #828282"/>
   </g>
   <g id="patch_124">
    <path d="M 91.754695 121.279586 
C 91.862692 120.183076 92.024459 119.092529 92.239413 118.011885 
C 92.454366 116.931241 92.722247 115.861801 93.042087 114.80743 
L 91.963694 114.480303 
C 91.633147 115.569972 91.356298 116.675213 91.134149 117.792034 
C 90.911999 118.908856 90.744816 120.035911 90.633204 121.169129 
z
" clip-path="url(#p4842a89afc)" style="fill: #828282"/>
   </g>
   <g id="patch_125">
    <path d="M 84.258262 112.142886 
C 84.665317 110.801006 85.138009 109.479921 85.674631 108.184401 
C 86.211252 106.888882 86.811157 105.62049 87.472178 104.383807 
L 84.775763 102.942543 
C 84.067567 104.267484 83.42485 105.626396 82.849931 107.014373 
C 82.275013 108.402349 81.768586 109.817715 81.332482 111.25536 
z
" clip-path="url(#p4842a89afc)" style="fill: #828282"/>
   </g>
   <g id="patch_126">
    <path d="M 76.605043 98.575202 
C 77.456188 96.982821 78.385001 95.433189 79.388129 93.931903 
C 80.391256 92.430617 81.467488 90.979487 82.612936 89.583753 
L 82.44553 89.446367 
C 81.295585 90.84758 80.215128 92.304407 79.208062 93.811587 
C 78.200997 95.318767 77.268537 96.874482 76.41405 98.473114 
z
" clip-path="url(#p4842a89afc)" style="fill: #828282"/>
   </g>
   <g id="patch_127">
    <path d="M 73.811318 82.360452 
C 75.193196 80.676628 76.656912 79.061666 78.19718 77.521399 
C 79.737448 75.981131 81.35241 74.517415 83.036233 73.135537 
L 80.8127 70.426153 
C 79.040194 71.880811 77.340177 73.421617 75.718787 75.043006 
C 74.097398 76.664395 72.556592 78.364413 71.101935 80.136918 
z
" clip-path="url(#p4842a89afc)" style="fill: #828282"/>
   </g>
   <g id="patch_128">
    <path d="M 85.343322 75.946732 
C 86.935131 74.640369 88.590119 73.412946 90.302309 72.268897 
C 92.014499 71.124849 93.781826 70.065553 95.597908 69.094837 
L 95.597908 69.094837 
C 93.781826 70.065553 92.014499 71.124849 90.302309 72.268897 
C 88.590119 73.412946 86.935131 74.640369 85.343322 75.946732 
z
" clip-path="url(#p4842a89afc)" style="fill: #828282"/>
   </g>
   <g id="patch_129">
    <path d="M 89.788974 58.227086 
C 91.960773 57.066235 94.188258 56.012714 96.463382 55.070326 
C 98.738507 54.127939 101.058529 53.297821 103.415069 52.582973 
L 101.431967 46.045563 
C 98.861448 46.825321 96.330763 47.730815 93.849052 48.758774 
C 91.367341 49.786732 88.937595 50.935916 86.568591 52.202175 
z
" clip-path="url(#p4842a89afc)" style="fill: #828282"/>
   </g>
   <g id="patch_130">
    <path d="M 108.489552 69.311302 
C 110.298548 68.762549 112.133397 68.302944 113.987469 67.934146 
C 115.841542 67.565348 117.712604 67.287802 119.593897 67.10251 
L 117.944845 50.359404 
C 115.515525 50.598671 113.099416 50.957067 110.705246 51.433297 
C 108.311076 51.909527 105.941731 52.503017 103.605768 53.211623 
z
" clip-path="url(#p4842a89afc)" style="fill: #828282"/>
   </g>
   <g id="patch_131">
    <path d="M 125.254844 124.579063 
C 125.254844 124.579063 125.254844 124.579063 125.254844 124.579063 
C 125.254844 124.579063 125.254844 124.579063 125.254844 124.579063 
L 134.461735 31.099928 
C 131.402023 30.798573 128.32936 30.647623 125.254844 30.647623 
C 122.180327 30.647623 119.107664 30.798573 116.047953 31.099928 
L 125.254844 124.579063 
z
" clip-path="url(#p4842a89afc)" style="fill: none; stroke: #292929; stroke-width: 0.5; stroke-linejoin: miter"/>
   </g>
   <g id="patch_132">
    <path d="M 125.254844 124.579063 
C 125.254844 124.579063 125.254844 124.579063 125.254844 124.579063 
C 125.254844 124.579063 125.254844 124.579063 125.254844 124.579063 
L 151.336893 38.59807 
C 148.522606 37.744365 145.668102 37.029349 142.78369 36.455604 
C 139.899277 35.881859 136.988434 35.450076 134.061674 35.161815 
L 125.254844 124.579063 
z
" clip-path="url(#p4842a89afc)" style="fill: none; stroke: #292929; stroke-width: 0.5; stroke-linejoin: miter"/>
   </g>
   <g id="patch_133">
    <path d="M 125.254844 124.579063 
C 125.254844 124.579063 125.254844 124.579063 125.254844 124.579063 
C 125.254844 124.579063 125.254844 124.579063 125.254844 124.579063 
L 176.971937 27.823187 
C 173.804972 26.130409 170.556806 24.594141 167.23917 23.219931 
C 163.921535 21.845722 160.538429 20.635227 157.102072 19.59282 
L 125.254844 124.579063 
z
" clip-path="url(#p4842a89afc)" style="fill: none; stroke: #292929; stroke-width: 0.5; stroke-linejoin: miter"/>
   </g>
   <g id="patch_134">
    <path d="M 125.254844 124.579063 
C 125.254844 124.579063 125.254844 124.579063 125.254844 124.579063 
C 125.254844 124.579063 125.254844 124.579063 125.254844 124.579063 
L 186.053658 50.495493 
C 183.628792 48.505457 181.107682 46.635675 178.499435 44.8929 
C 175.891188 43.150125 173.198948 41.536458 170.432438 40.057728 
L 125.254844 124.579063 
z
" clip-path="url(#p4842a89afc)" style="fill: none; stroke: #292929; stroke-width: 0.5; stroke-linejoin: miter"/>
   </g>
   <g id="patch_135">
    <path d="M 125.254844 124.579063 
C 125.254844 124.579063 125.254844 124.579063 125.254844 124.579063 
C 125.254844 124.579063 125.254844 124.579063 125.254844 124.579063 
L 179.55431 80.016642 
C 178.095716 78.239339 176.55074 76.534721 174.924962 74.908944 
C 173.299185 73.283167 171.594567 71.738191 169.817264 70.279596 
L 125.254844 124.579063 
z
" clip-path="url(#p4842a89afc)" style="fill: none; stroke: #292929; stroke-width: 0.5; stroke-linejoin: miter"/>
   </g>
   <g id="patch_136">
    <path d="M 125.254844 124.579063 
C 125.254844 124.579063 125.254844 124.579063 125.254844 124.579063 
C 125.254844 124.579063 125.254844 124.579063 125.254844 124.579063 
L 199.173193 85.068882 
C 197.879966 82.649424 196.46873 80.294918 194.944581 78.013869 
C 193.420433 75.732819 191.78521 73.527977 190.044819 71.407304 
L 125.254844 124.579063 
z
" clip-path="url(#p4842a89afc)" style="fill: none; stroke: #292929; stroke-width: 0.5; stroke-linejoin: miter"/>
   </g>
   <g id="patch_137">
    <path d="M 125.254844 124.579063 
C 125.254844 124.579063 125.254844 124.579063 125.254844 124.579063 
C 125.254844 124.579063 125.254844 124.579063 125.254844 124.579063 
L 228.380081 93.296364 
C 227.356151 89.920921 226.167114 86.597785 224.817264 83.338958 
C 223.467414 80.080131 221.958378 76.889543 220.295606 73.778717 
L 125.254844 124.579063 
z
" clip-path="url(#p4842a89afc)" style="fill: none; stroke: #292929; stroke-width: 0.5; stroke-linejoin: miter"/>
   </g>
   <g id="patch_138">
    <path d="M 125.254844 124.579063 
C 125.254844 124.579063 125.254844 124.579063 125.254844 124.579063 
C 125.254844 124.579063 125.254844 124.579063 125.254844 124.579063 
L 235.600926 113.710922 
C 235.245196 110.09913 234.712351 106.50698 234.004316 102.947448 
C 233.296281 99.387915 232.413909 95.86529 231.360388 92.392297 
L 125.254844 124.579063 
z
" clip-path="url(#p4842a89afc)" style="fill: none; stroke: #292929; stroke-width: 0.5; stroke-linejoin: miter"/>
   </g>
   <g id="patch_139">
    <path d="M 125.254844 124.579063 
C 125.254844 124.579063 125.254844 124.579063 125.254844 124.579063 
C 125.254844 124.579063 125.254844 124.579063 125.254844 124.579063 
L 201.901705 132.128119 
C 202.148797 129.619353 202.272566 127.099968 202.272566 124.579063 
C 202.272566 122.058157 202.148797 119.538772 201.901705 117.030006 
L 125.254844 124.579063 
z
" clip-path="url(#p4842a89afc)" style="fill: none; stroke: #292929; stroke-width: 0.5; stroke-linejoin: miter"/>
   </g>
   <g id="patch_140">
    <path d="M 125.254844 124.579063 
C 125.254844 124.579063 125.254844 124.579063 125.254844 124.579063 
C 125.254844 124.579063 125.254844 124.579063 125.254844 124.579063 
L 194.544182 145.597753 
C 195.232155 143.32981 195.808364 141.029456 196.270727 138.705 
C 196.73309 136.380544 197.08105 134.034788 197.31335 131.676206 
L 125.254844 124.579063 
z
" clip-path="url(#p4842a89afc)" style="fill: none; stroke: #292929; stroke-width: 0.5; stroke-linejoin: miter"/>
   </g>
   <g id="patch_141">
    <path d="M 125.254844 124.579063 
C 125.254844 124.579063 125.254844 124.579063 125.254844 124.579063 
C 125.254844 124.579063 125.254844 124.579063 125.254844 124.579063 
L 200.118762 164.59466 
C 201.428532 162.144253 202.617205 159.631016 203.680486 157.064027 
C 204.743768 154.497039 205.680376 151.879393 206.486929 149.220546 
L 125.254844 124.579063 
z
" clip-path="url(#p4842a89afc)" style="fill: none; stroke: #292929; stroke-width: 0.5; stroke-linejoin: miter"/>
   </g>
   <g id="patch_142">
    <path d="M 125.254844 124.579063 
C 125.254844 124.579063 125.254844 124.579063 125.254844 124.579063 
C 125.254844 124.579063 125.254844 124.579063 125.254844 124.579063 
L 180.064175 169.559918 
C 181.536465 167.765927 182.919788 165.900731 184.209148 163.971069 
C 185.498507 162.041407 186.692348 160.049603 187.786358 158.002853 
L 125.254844 124.579063 
z
" clip-path="url(#p4842a89afc)" style="fill: none; stroke: #292929; stroke-width: 0.5; stroke-linejoin: miter"/>
   </g>
   <g id="patch_143">
    <path d="M 125.254844 124.579063 
C 125.254844 124.579063 125.254844 124.579063 125.254844 124.579063 
C 125.254844 124.579063 125.254844 124.579063 125.254844 124.579063 
L 160.019968 166.94049 
C 161.406521 165.802575 162.73637 164.597271 164.004711 163.32893 
C 165.273052 162.060589 166.478356 160.73074 167.616271 159.344187 
L 125.254844 124.579063 
z
" clip-path="url(#p4842a89afc)" style="fill: none; stroke: #292929; stroke-width: 0.5; stroke-linejoin: miter"/>
   </g>
   <g id="patch_144">
    <path d="M 125.254844 124.579063 
C 125.254844 124.579063 125.254844 124.579063 125.254844 124.579063 
C 125.254844 124.579063 125.254844 124.579063 125.254844 124.579063 
L 146.393906 164.127466 
C 147.688384 163.435553 148.948111 162.680502 150.168537 161.865039 
C 151.388963 161.049577 152.568616 160.174686 153.703235 159.243528 
L 125.254844 124.579063 
z
" clip-path="url(#p4842a89afc)" style="fill: none; stroke: #292929; stroke-width: 0.5; stroke-linejoin: miter"/>
   </g>
   <g id="patch_145">
    <path d="M 125.254844 124.579063 
C 125.254844 124.579063 125.254844 124.579063 125.254844 124.579063 
C 125.254844 124.579063 125.254844 124.579063 125.254844 124.579063 
L 138.803752 169.243827 
C 140.265696 168.800351 141.704986 168.285365 143.116423 167.700729 
C 144.527859 167.116093 145.909741 166.462511 147.257077 165.742346 
L 125.254844 124.579063 
z
" clip-path="url(#p4842a89afc)" style="fill: none; stroke: #292929; stroke-width: 0.5; stroke-linejoin: miter"/>
   </g>
   <g id="patch_146">
    <path d="M 125.254844 124.579063 
C 125.254844 124.579063 125.254844 124.579063 125.254844 124.579063 
C 125.254844 124.579063 125.254844 124.579063 125.254844 124.579063 
L 127.925035 151.68997 
C 128.812416 151.60257 129.69497 151.471656 130.569511 151.297699 
C 131.444052 151.123742 132.309525 150.906952 133.162804 150.648113 
L 125.254844 124.579063 
z
" clip-path="url(#p4842a89afc)" style="fill: none; stroke: #292929; stroke-width: 0.5; stroke-linejoin: miter"/>
   </g>
   <g id="patch_147">
    <path d="M 125.254844 124.579063 
C 125.254844 124.579063 125.254844 124.579063 125.254844 124.579063 
C 125.254844 124.579063 125.254844 124.579063 125.254844 124.579063 
L 125.254844 124.579063 
C 125.254844 124.579063 125.254844 124.579063 125.254844 124.579063 
C 125.254844 124.579063 125.254844 124.579063 125.254844 124.579063 
L 125.254844 124.579063 
z
" clip-path="url(#p4842a89afc)" style="fill: none; stroke: #292929; stroke-width: 0.5; stroke-linejoin: miter"/>
   </g>
   <g id="patch_148">
    <path d="M 125.254844 124.579063 
C 125.254844 124.579063 125.254844 124.579063 125.254844 124.579063 
C 125.254844 124.579063 125.254844 124.579063 125.254844 124.579063 
L 121.237596 137.822153 
C 121.671062 137.953643 122.110723 138.063773 122.55499 138.152143 
C 122.999257 138.240513 123.447596 138.307018 123.898385 138.351417 
L 125.254844 124.579063 
z
" clip-path="url(#p4842a89afc)" style="fill: none; stroke: #292929; stroke-width: 0.5; stroke-linejoin: miter"/>
   </g>
   <g id="patch_149">
    <path d="M 125.254844 124.579063 
C 125.254844 124.579063 125.254844 124.579063 125.254844 124.579063 
C 125.254844 124.579063 125.254844 124.579063 125.254844 124.579063 
L 118.731187 136.783965 
C 119.130672 136.997494 119.5404 137.191281 119.95889 137.364625 
C 120.377381 137.53797 120.80413 137.690663 121.237596 137.822153 
L 125.254844 124.579063 
z
" clip-path="url(#p4842a89afc)" style="fill: none; stroke: #292929; stroke-width: 0.5; stroke-linejoin: miter"/>
   </g>
   <g id="patch_150">
    <path d="M 125.254844 124.579063 
C 125.254844 124.579063 125.254844 124.579063 125.254844 124.579063 
C 125.254844 124.579063 125.254844 124.579063 125.254844 124.579063 
L 119.587789 131.484389 
C 119.81381 131.66988 120.048803 131.844163 120.291917 132.006607 
C 120.535032 132.169051 120.785976 132.319461 121.043842 132.457293 
L 125.254844 124.579063 
z
" clip-path="url(#p4842a89afc)" style="fill: none; stroke: #292929; stroke-width: 0.5; stroke-linejoin: miter"/>
   </g>
   <g id="patch_151">
    <path d="M 125.254844 124.579063 
C 125.254844 124.579063 125.254844 124.579063 125.254844 124.579063 
C 125.254844 124.579063 125.254844 124.579063 125.254844 124.579063 
L 114.631707 133.297246 
C 114.917066 133.644957 115.219325 133.978448 115.537392 134.296515 
C 115.855458 134.614581 116.188949 134.91684 116.536661 135.202199 
L 125.254844 124.579063 
z
" clip-path="url(#p4842a89afc)" style="fill: none; stroke: #292929; stroke-width: 0.5; stroke-linejoin: miter"/>
   </g>
   <g id="patch_152">
    <path d="M 125.254844 124.579063 
C 125.254844 124.579063 125.254844 124.579063 125.254844 124.579063 
C 125.254844 124.579063 125.254844 124.579063 125.254844 124.579063 
L 103.679421 136.111366 
C 104.056891 136.817562 104.468805 137.504799 104.913676 138.170596 
C 105.358547 138.836393 105.835839 139.479947 106.343828 140.098932 
L 125.254844 124.579063 
z
" clip-path="url(#p4842a89afc)" style="fill: none; stroke: #292929; stroke-width: 0.5; stroke-linejoin: miter"/>
   </g>
   <g id="patch_153">
    <path d="M 125.254844 124.579063 
C 125.254844 124.579063 125.254844 124.579063 125.254844 124.579063 
C 125.254844 124.579063 125.254844 124.579063 125.254844 124.579063 
L 88.920046 135.601103 
C 89.280814 136.790395 89.699755 137.961258 90.175357 139.109462 
C 90.650958 140.257666 91.182647 141.381827 91.768502 142.477885 
L 125.254844 124.579063 
z
" clip-path="url(#p4842a89afc)" style="fill: none; stroke: #292929; stroke-width: 0.5; stroke-linejoin: miter"/>
   </g>
   <g id="patch_154">
    <path d="M 125.254844 124.579063 
C 125.254844 124.579063 125.254844 124.579063 125.254844 124.579063 
C 125.254844 124.579063 125.254844 124.579063 125.254844 124.579063 
L 95.636276 127.496237 
C 95.731759 128.465697 95.874783 129.429884 96.064831 130.385317 
C 96.254878 131.34075 96.49172 132.286276 96.774501 133.21848 
L 125.254844 124.579063 
z
" clip-path="url(#p4842a89afc)" style="fill: none; stroke: #292929; stroke-width: 0.5; stroke-linejoin: miter"/>
   </g>
   <g id="patch_155">
    <path d="M 125.254844 124.579063 
C 125.254844 124.579063 125.254844 124.579063 125.254844 124.579063 
C 125.254844 124.579063 125.254844 124.579063 125.254844 124.579063 
L 83.117041 120.428851 
C 82.981198 121.808084 82.913154 123.193156 82.913154 124.579062 
C 82.913154 125.964969 82.981198 127.350041 83.117041 128.729274 
L 125.254844 124.579063 
z
" clip-path="url(#p4842a89afc)" style="fill: none; stroke: #292929; stroke-width: 0.5; stroke-linejoin: miter"/>
   </g>
   <g id="patch_156">
    <path d="M 125.254844 124.579063 
C 125.254844 124.579063 125.254844 124.579063 125.254844 124.579063 
C 125.254844 124.579063 125.254844 124.579063 125.254844 124.579063 
L 91.963694 114.480303 
C 91.633147 115.569972 91.356298 116.675213 91.134149 117.792034 
C 90.911999 118.908856 90.744816 120.035911 90.633204 121.169129 
L 125.254844 124.579063 
z
" clip-path="url(#p4842a89afc)" style="fill: none; stroke: #292929; stroke-width: 0.5; stroke-linejoin: miter"/>
   </g>
   <g id="patch_157">
    <path d="M 125.254844 124.579063 
C 125.254844 124.579063 125.254844 124.579063 125.254844 124.579063 
C 125.254844 124.579063 125.254844 124.579063 125.254844 124.579063 
L 84.775763 102.942543 
C 84.067567 104.267484 83.42485 105.626396 82.849931 107.014373 
C 82.275013 108.402349 81.768586 109.817715 81.332482 111.25536 
L 125.254844 124.579063 
z
" clip-path="url(#p4842a89afc)" style="fill: none; stroke: #292929; stroke-width: 0.5; stroke-linejoin: miter"/>
   </g>
   <g id="patch_158">
    <path d="M 125.254844 124.579063 
C 125.254844 124.579063 125.254844 124.579063 125.254844 124.579063 
C 125.254844 124.579063 125.254844 124.579063 125.254844 124.579063 
L 82.44553 89.446367 
C 81.295585 90.84758 80.215128 92.304407 79.208062 93.811587 
C 78.200997 95.318767 77.268537 96.874482 76.41405 98.473114 
L 125.254844 124.579063 
z
" clip-path="url(#p4842a89afc)" style="fill: none; stroke: #292929; stroke-width: 0.5; stroke-linejoin: miter"/>
   </g>
   <g id="patch_159">
    <path d="M 125.254844 124.579063 
C 125.254844 124.579063 125.254844 124.579063 125.254844 124.579063 
C 125.254844 124.579063 125.254844 124.579063 125.254844 124.579063 
L 80.8127 70.426153 
C 79.040194 71.880811 77.340177 73.421617 75.718787 75.043006 
C 74.097398 76.664395 72.556592 78.364413 71.101935 80.136918 
L 125.254844 124.579063 
z
" clip-path="url(#p4842a89afc)" style="fill: none; stroke: #292929; stroke-width: 0.5; stroke-linejoin: miter"/>
   </g>
   <g id="patch_160">
    <path d="M 125.254844 124.579063 
C 125.254844 124.579063 125.254844 124.579063 125.254844 124.579063 
C 125.254844 124.579063 125.254844 124.579063 125.254844 124.579063 
L 95.597908 69.094837 
C 93.781826 70.065553 92.014499 71.124849 90.302309 72.268897 
C 88.590119 73.412946 86.935131 74.640369 85.343322 75.946732 
L 125.254844 124.579063 
z
" clip-path="url(#p4842a89afc)" style="fill: none; stroke: #292929; stroke-width: 0.5; stroke-linejoin: miter"/>
   </g>
   <g id="patch_161">
    <path d="M 125.254844 124.579063 
C 125.254844 124.579063 125.254844 124.579063 125.254844 124.579063 
C 125.254844 124.579063 125.254844 124.579063 125.254844 124.579063 
L 101.431967 46.045563 
C 98.861448 46.825321 96.330763 47.730815 93.849052 48.758774 
C 91.367341 49.786732 88.937595 50.935916 86.568591 52.202175 
L 125.254844 124.579063 
z
" clip-path="url(#p4842a89afc)" style="fill: none; stroke: #292929; stroke-width: 0.5; stroke-linejoin: miter"/>
   </g>
   <g id="patch_162">
    <path d="M 125.254844 124.579063 
C 125.254844 124.579063 125.254844 124.579063 125.254844 124.579063 
C 125.254844 124.579063 125.254844 124.579063 125.254844 124.579063 
L 117.944845 50.359404 
C 115.515525 50.598671 113.099416 50.957067 110.705246 51.433297 
C 108.311076 51.909527 105.941731 52.503017 103.605768 53.211623 
L 125.254844 124.579063 
z
" clip-path="url(#p4842a89afc)" style="fill: none; stroke: #292929; stroke-width: 0.5; stroke-linejoin: miter"/>
   </g>
   <g id="PathCollection_1">
    <defs>
     <path id="m1055c0a12e" d="M 0.193618 7.414054 
L 0.193618 7.414054 
C 0.054922 7.414054 -0.078235 7.358899 -0.176308 7.260826 
C -0.274381 7.162753 -0.329536 7.029596 -0.329536 6.890901 
L -0.329536 5.365008 
L -1.528416 6.56393 
L -1.528416 6.56393 
C -1.577018 6.612704 -1.634775 6.651408 -1.698366 6.677814 
C -1.761958 6.704221 -1.830141 6.717815 -1.898997 6.717815 
C -1.967853 6.717815 -2.036037 6.704221 -2.099628 6.677814 
C -2.163219 6.651408 -2.220976 6.612704 -2.269578 6.56393 
L -2.269578 6.56393 
C -2.318353 6.515327 -2.357056 6.457571 -2.383463 6.393979 
C -2.409869 6.330388 -2.423463 6.262205 -2.423463 6.193348 
C -2.423463 6.124492 -2.409869 6.056309 -2.383463 5.992718 
C -2.357056 5.929126 -2.318353 5.87137 -2.269578 5.822767 
L -0.329536 3.884106 
L -0.329536 0.820937 
L -2.98067 2.351538 
L -3.691824 5.001416 
L -3.691824 5.001416 
C -3.727584 5.135411 -3.815199 5.249836 -3.93523 5.319305 
C -4.055261 5.388775 -4.198123 5.407741 -4.332122 5.371997 
L -4.332122 5.371997 
C -4.466126 5.336237 -4.580558 5.248616 -4.650029 5.128576 
C -4.719499 5.008535 -4.73846 4.865662 -4.702703 4.731657 
L -4.262647 3.092721 
L -5.585535 3.855668 
L -5.585535 3.855668 
C -5.645013 3.890144 -5.710708 3.912561 -5.778854 3.921634 
C -5.847001 3.930706 -5.916272 3.926258 -5.982698 3.908543 
C -6.049125 3.890828 -6.111412 3.860192 -6.165991 3.818391 
C -6.220571 3.77659 -6.266379 3.724437 -6.300791 3.664922 
L -6.300791 3.664922 
C -6.335212 3.605364 -6.35755 3.539597 -6.366524 3.471396 
C -6.375498 3.403194 -6.370933 3.333888 -6.35309 3.267452 
C -6.335248 3.201017 -6.304476 3.138749 -6.26254 3.08422 
C -6.220605 3.029692 -6.168323 2.983966 -6.108695 2.949666 
L -4.785807 2.186762 
L -6.424743 1.746706 
L -6.424743 1.746706 
C -6.558747 1.710946 -6.673179 1.623325 -6.74265 1.503284 
C -6.81212 1.383244 -6.831081 1.240371 -6.795324 1.106366 
L -6.795324 1.106366 
C -6.777471 1.039969 -6.746703 0.977739 -6.704784 0.923241 
C -6.662864 0.868744 -6.61061 0.823041 -6.551015 0.788752 
C -6.491421 0.754464 -6.425647 0.732257 -6.357465 0.723406 
C -6.289282 0.714554 -6.220019 0.71923 -6.153645 0.737166 
L -3.505232 1.44698 
L -0.852424 -0.08496 
L -3.503767 -1.615666 
L -6.153645 -0.905851 
L -6.153645 -0.905851 
C -6.22011 -0.887939 -6.289462 -0.883321 -6.357716 -0.892262 
C -6.42597 -0.901202 -6.491793 -0.923527 -6.551403 -0.957953 
C -6.611013 -0.992379 -6.663247 -1.038234 -6.705103 -1.092883 
C -6.746958 -1.147533 -6.777619 -1.209911 -6.795324 -1.276432 
L -6.795324 -1.276432 
C -6.831068 -1.410431 -6.812101 -1.553293 -6.742632 -1.673324 
C -6.673162 -1.793355 -6.558738 -1.88097 -6.424743 -1.91673 
L -4.785807 -2.355447 
L -6.108695 -3.119732 
L -6.108695 -3.119732 
C -6.228699 -3.188976 -6.316415 -3.303132 -6.352417 -3.436921 
C -6.388419 -3.57071 -6.369839 -3.713469 -6.300791 -3.833586 
L -6.300791 -3.833586 
C -6.266491 -3.893214 -6.220765 -3.945496 -6.166237 -3.987431 
C -6.111708 -4.029367 -6.04944 -4.060139 -5.983005 -4.077981 
C -5.91657 -4.095823 -5.847263 -4.100389 -5.779062 -4.091415 
C -5.71086 -4.082441 -5.645094 -4.060102 -5.585535 -4.025682 
L -4.262647 -3.261396 
L -4.702703 -4.900332 
L -4.702703 -4.900332 
C -4.73846 -5.034337 -4.719499 -5.17721 -4.650029 -5.29725 
C -4.580558 -5.417291 -4.466126 -5.504912 -4.332122 -5.540672 
L -4.332122 -5.540672 
C -4.19831 -5.576464 -4.055613 -5.557686 -3.935617 -5.488496 
C -3.81562 -5.419305 -3.727882 -5.305212 -3.691824 -5.171472 
L -2.982009 -2.521594 
L -0.329411 -0.990302 
L -0.329411 -4.051588 
L -2.269453 -5.991589 
L -2.269453 -5.991589 
C -2.318227 -6.040191 -2.356931 -6.097947 -2.383337 -6.161539 
C -2.409744 -6.22513 -2.423338 -6.293314 -2.423338 -6.36217 
C -2.423338 -6.431026 -2.409744 -6.499209 -2.383337 -6.5628 
C -2.356931 -6.626392 -2.318227 -6.684149 -2.269453 -6.732751 
L -2.269453 -6.732751 
C -2.22085 -6.781526 -2.163094 -6.820229 -2.099502 -6.846635 
C -2.035911 -6.873042 -1.967728 -6.886636 -1.898871 -6.886636 
C -1.830015 -6.886636 -1.761832 -6.873042 -1.698241 -6.846635 
C -1.634649 -6.820229 -1.576893 -6.781526 -1.52829 -6.732751 
L -0.329411 -5.533829 
L -0.329411 -7.059722 
L -0.329411 -7.059722 
C -0.329411 -7.198418 -0.274255 -7.331575 -0.176182 -7.429647 
C -0.07811 -7.52772 0.055047 -7.582875 0.193743 -7.582875 
L 0.193743 -7.582875 
C 0.332439 -7.582875 0.465596 -7.52772 0.563669 -7.429647 
C 0.661741 -7.331575 0.716897 -7.198418 0.716897 -7.059722 
L 0.716897 -5.533829 
L 1.915777 -6.732751 
L 1.915777 -6.732751 
C 1.964379 -6.781526 2.022136 -6.820229 2.085727 -6.846635 
C 2.149318 -6.873042 2.217502 -6.886636 2.286358 -6.886636 
C 2.355214 -6.886636 2.423397 -6.873042 2.486989 -6.846635 
C 2.55058 -6.820229 2.608337 -6.781526 2.656939 -6.732751 
L 2.656939 -6.732751 
C 2.705714 -6.684149 2.744417 -6.626392 2.770823 -6.5628 
C 2.79723 -6.499209 2.810824 -6.431026 2.810824 -6.36217 
C 2.810824 -6.293314 2.79723 -6.22513 2.770823 -6.161539 
C 2.744417 -6.097947 2.705714 -6.040191 2.656939 -5.991589 
L 0.716897 -4.051588 
L 0.716897 -0.991139 
L 3.369495 -2.522954 
L 4.07931 -5.171367 
L 4.07931 -5.171367 
C 4.115368 -5.305107 4.203106 -5.4192 4.323103 -5.488391 
C 4.4431 -5.557582 4.585797 -5.576359 4.719608 -5.540567 
L 4.719608 -5.540567 
C 4.853612 -5.504807 4.968045 -5.417186 5.037515 -5.297146 
C 5.106986 -5.177105 5.125946 -5.034232 5.090189 -4.900227 
L 4.650133 -3.262673 
L 5.973022 -4.025577 
L 5.973022 -4.025577 
C 6.03258 -4.059998 6.098346 -4.082336 6.166548 -4.09131 
C 6.234749 -4.100284 6.304056 -4.095719 6.370491 -4.077876 
C 6.436926 -4.060034 6.499194 -4.029262 6.553723 -3.987327 
C 6.608252 -3.945391 6.653978 -3.893109 6.688277 -3.833481 
L 6.688277 -3.833481 
C 6.757325 -3.713365 6.775905 -3.570605 6.739903 -3.436816 
C 6.703901 -3.303027 6.616186 -3.188871 6.496181 -3.119628 
L 5.173293 -2.355342 
L 6.812229 -1.916625 
L 6.812229 -1.916625 
C 6.946224 -1.880865 7.060649 -1.79325 7.130118 -1.67322 
C 7.199588 -1.553189 7.218554 -1.410326 7.18281 -1.276327 
L 7.18281 -1.276327 
C 7.165106 -1.209806 7.134445 -1.147429 7.092589 -1.092779 
C 7.050733 -1.038129 6.998499 -0.992274 6.938889 -0.957848 
C 6.879279 -0.923422 6.813456 -0.901098 6.745202 -0.892157 
C 6.676949 -0.883217 6.607597 -0.887835 6.541131 -0.905746 
L 3.891253 -1.615561 
L 1.239492 -0.084604 
L 3.892718 1.447085 
L 6.541131 0.73727 
L 6.541131 0.73727 
C 6.674948 0.701466 6.817656 0.720237 6.937662 0.789429 
C 7.057669 0.858621 7.145413 0.972721 7.181471 1.10647 
L 7.181471 1.10647 
C 7.217274 1.240293 7.198497 1.383006 7.129297 1.503014 
C 7.060096 1.623021 6.945986 1.710762 6.812229 1.74681 
L 5.173293 2.186866 
L 6.496181 2.949771 
L 6.496181 2.949771 
C 6.555697 2.984183 6.607849 3.029991 6.649651 3.08457 
C 6.691452 3.13915 6.722088 3.201437 6.739803 3.267863 
C 6.757517 3.33429 6.761966 3.403561 6.752893 3.471707 
C 6.743821 3.539854 6.721404 3.605549 6.686927 3.665026 
L 6.686927 3.665026 
C 6.617458 3.784813 6.503196 3.87225 6.369416 3.907994 
C 6.235636 3.943739 6.092989 3.924946 5.973032 3.855772 
L 4.650144 3.091487 
L 5.08886 4.731783 
L 5.08886 4.731783 
C 5.124664 4.865606 5.105887 5.008319 5.036686 5.128326 
C 4.967486 5.248334 4.853376 5.336074 4.719619 5.372123 
L 4.719619 5.372123 
C 4.585619 5.407867 4.442757 5.3889 4.322726 5.319431 
C 4.202695 5.249961 4.115081 5.135537 4.07932 5.001542 
L 3.368166 2.351664 
L 0.717033 0.821063 
L 0.717033 3.884232 
L 2.657075 5.822893 
L 2.657075 5.822893 
C 2.70585 5.871495 2.744553 5.929252 2.770959 5.992843 
C 2.797366 6.056435 2.81096 6.124618 2.81096 6.193474 
C 2.81096 6.26233 2.797366 6.330514 2.770959 6.394105 
C 2.744553 6.457696 2.70585 6.515453 2.657075 6.564055 
L 2.657075 6.564055 
C 2.608473 6.61283 2.550716 6.651533 2.487125 6.67794 
C 2.423533 6.704346 2.35535 6.71794 2.286494 6.71794 
C 2.217638 6.71794 2.149454 6.704346 2.085863 6.67794 
C 2.022272 6.651533 1.964515 6.61283 1.915913 6.564055 
L 0.717033 5.365133 
L 0.717033 6.891026 
L 0.717033 6.891026 
C 0.717033 7.029722 0.661877 7.162879 0.563805 7.260952 
C 0.465732 7.359024 0.332575 7.41418 0.193879 7.41418 
L 0.193618 7.414054 
z
"/>
    </defs>
    <g clip-path="url(#p4842a89afc)">
     <use xlink:href="#m1055c0a12e" x="165.303706" y="79.733322" style="fill: #9e2096; fill-opacity: 0.7"/>
    </g>
   </g>
   <g id="patch_163">
    <path d="M 125.254844 13.699063 
C 110.694216 13.699063 96.275171 16.567189 82.822905 22.1393 
C 69.370638 27.711411 57.146763 35.879144 46.850844 46.175063 
C 36.554925 56.470982 28.387192 68.694857 22.815081 82.147124 
C 17.24297 95.59939 14.374844 110.018434 14.374844 124.579063 
C 14.374844 139.139691 17.24297 153.558735 22.815081 167.011001 
C 28.387192 180.463268 36.554925 192.687143 46.850844 202.983062 
C 57.146763 213.278981 69.370638 221.446714 82.822905 227.018825 
C 96.275171 232.590936 110.694216 235.459063 125.254844 235.459063 
C 139.815472 235.459063 154.234516 232.590936 167.686783 227.018825 
C 181.139049 221.446714 193.362925 213.278981 203.658844 202.983062 
C 213.954763 192.687143 222.122495 180.463268 227.694606 167.011001 
C 233.266717 153.558735 236.134844 139.139691 236.134844 124.579063 
C 236.134844 110.018434 233.266717 95.59939 227.694606 82.147124 
C 222.122495 68.694857 213.954763 56.470982 203.658844 46.175063 
C 193.362925 35.879144 181.139049 27.711411 167.686783 22.1393 
C 154.234516 16.567189 139.815472 13.699063 125.254844 13.699063 
" style="fill: none; stroke: #000000; stroke-width: 0.8; stroke-linejoin: miter; stroke-linecap: square"/>
   </g>
  </g>
 </g>
 <defs>
  <clipPath id="p4842a89afc">
   <path d="M 236.134844 124.579063 
C 236.134844 110.018434 233.266717 95.59939 227.694606 82.147124 
C 222.122495 68.694857 213.954763 56.470982 203.658844 46.175063 
C 193.362925 35.879144 181.139049 27.711411 167.686783 22.1393 
C 154.234516 16.567189 139.815472 13.699063 125.254844 13.699063 
C 110.694216 13.699063 96.275171 16.567189 82.822905 22.1393 
C 69.370638 27.711411 57.146763 35.879144 46.850844 46.175063 
C 36.554925 56.470982 28.387192 68.694857 22.815081 82.147124 
C 17.24297 95.59939 14.374844 110.018434 14.374844 124.579062 
C 14.374844 139.139691 17.24297 153.558735 22.815081 167.011001 
C 28.387192 180.463268 36.554925 192.687143 46.850844 202.983062 
C 57.146763 213.278981 69.370638 221.446714 82.822905 227.018825 
C 96.275171 232.590936 110.694216 235.459063 125.254844 235.459063 
C 139.815472 235.459063 154.234516 232.590936 167.686783 227.018825 
C 181.139049 221.446714 193.362925 213.278981 203.658844 202.983062 
C 213.954763 192.687143 222.122495 180.463268 227.694606 167.011001 
C 233.266717 153.558735 236.134844 139.139691 236.134844 124.579063 
M 125.254844 124.579063 
C 125.254844 124.579063 125.254844 124.579063 125.254844 124.579063 
C 125.254844 124.579063 125.254844 124.579063 125.254844 124.579063 
C 125.254844 124.579063 125.254844 124.579063 125.254844 124.579063 
C 125.254844 124.579063 125.254844 124.579063 125.254844 124.579063 
C 125.254844 124.579063 125.254844 124.579063 125.254844 124.579063 
C 125.254844 124.579063 125.254844 124.579063 125.254844 124.579063 
C 125.254844 124.579063 125.254844 124.579063 125.254844 124.579063 
C 125.254844 124.579063 125.254844 124.579063 125.254844 124.579063 
C 125.254844 124.579063 125.254844 124.579063 125.254844 124.579063 
C 125.254844 124.579063 125.254844 124.579063 125.254844 124.579063 
C 125.254844 124.579063 125.254844 124.579063 125.254844 124.579063 
C 125.254844 124.579063 125.254844 124.579063 125.254844 124.579063 
C 125.254844 124.579063 125.254844 124.579063 125.254844 124.579063 
C 125.254844 124.579063 125.254844 124.579063 125.254844 124.579063 
C 125.254844 124.579063 125.254844 124.579063 125.254844 124.579063 
C 125.254844 124.579063 125.254844 124.579063 125.254844 124.579063 
z
"/>
  </clipPath>
 </defs>
</svg>
