<?xml version="1.0" encoding="utf-8" standalone="no"?>
<!DOCTYPE svg PUBLIC "-//W3C//DTD SVG 1.1//EN"
  "http://www.w3.org/Graphics/SVG/1.1/DTD/svg11.dtd">
<svg xmlns:xlink="http://www.w3.org/1999/xlink" width="58.32pt" height="58.32pt" viewBox="0 0 58.32 58.32" xmlns="http://www.w3.org/2000/svg" version="1.1">
 <title>Ski Rose for Zöblen - Schattwald (Tannheimer Tal)</title>
 <metadata>
  <rdf:RDF xmlns:dc="http://purl.org/dc/elements/1.1/" xmlns:cc="http://creativecommons.org/ns#" xmlns:rdf="http://www.w3.org/1999/02/22-rdf-syntax-ns#">
   <cc:Work>
    <dc:type rdf:resource="http://purl.org/dc/dcmitype/StillImage"/>
    <dc:title>Ski Rose for Zöblen - Schattwald (Tannheimer Tal)</dc:title>
    <dc:date>2025-11-22T10:29:37.852592</dc:date>
    <dc:description>An 8-bin histogram of downhill ski run orientations.</dc:description>
    <dc:format>image/svg+xml</dc:format>
    <dc:source>https://openskimap.org/?obj=4c221b02d90b646b2bdebe949abc34e28a542b17</dc:source>
    <dc:creator>
     <cc:Agent>
      <dc:title>https://github.com/dhimmel/openskistats</dc:title>
     </cc:Agent>
    </dc:creator>
    <dc:rights>
     <cc:Agent>
      <dc:title>https://creativecommons.org/licenses/by/4.0/</dc:title>
     </cc:Agent>
    </dc:rights>
   </cc:Work>
  </rdf:RDF>
 </metadata>
 <defs>
  <style type="text/css">*{stroke-linejoin: round; stroke-linecap: butt}</style>
 </defs>
 <g id="figure_1">
  <g id="patch_1">
   <path d="M 0 58.32 
L 58.32 58.32 
L 58.32 0 
L 0 0 
L 0 58.32 
z
" style="fill: none"/>
  </g>
  <g id="axes_1">
   <g id="patch_2">
    <path d="M 56.88 29.16 
C 56.88 25.519843 56.162968 21.915082 54.769941 18.552015 
C 53.376913 15.188949 51.33498 12.13298 48.761 9.559 
C 46.18702 6.98502 43.131051 4.943087 39.767985 3.550059 
C 36.404918 2.157032 32.800157 1.44 29.16 1.44 
C 25.519843 1.44 21.915082 2.157032 18.552015 3.550059 
C 15.188949 4.943087 12.13298 6.98502 9.559 9.559 
C 6.98502 12.13298 4.943087 15.188949 3.550059 18.552015 
C 2.157032 21.915082 1.44 25.519843 1.44 29.16 
C 1.44 32.800157 2.157032 36.404918 3.550059 39.767985 
C 4.943087 43.131051 6.98502 46.18702 9.559 48.761 
C 12.13298 51.33498 15.188949 53.376913 18.552015 54.769941 
C 21.915082 56.162968 25.519843 56.88 29.16 56.88 
C 32.800157 56.88 36.404918 56.162968 39.767985 54.769941 
C 43.131051 53.376913 46.18702 51.33498 48.761 48.761 
C 51.33498 46.18702 53.376913 43.131051 54.769941 39.767985 
C 56.162968 36.404918 56.88 32.800157 56.88 29.16 
M 29.16 29.16 
C 29.16 29.16 29.16 29.16 29.16 29.16 
C 29.16 29.16 29.16 29.16 29.16 29.16 
C 29.16 29.16 29.16 29.16 29.16 29.16 
C 29.16 29.16 29.16 29.16 29.16 29.16 
C 29.16 29.16 29.16 29.16 29.16 29.16 
C 29.16 29.16 29.16 29.16 29.16 29.16 
C 29.16 29.16 29.16 29.16 29.16 29.16 
C 29.16 29.16 29.16 29.16 29.16 29.16 
C 29.16 29.16 29.16 29.16 29.16 29.16 
C 29.16 29.16 29.16 29.16 29.16 29.16 
C 29.16 29.16 29.16 29.16 29.16 29.16 
C 29.16 29.16 29.16 29.16 29.16 29.16 
C 29.16 29.16 29.16 29.16 29.16 29.16 
C 29.16 29.16 29.16 29.16 29.16 29.16 
C 29.16 29.16 29.16 29.16 29.16 29.16 
C 29.16 29.16 29.16 29.16 29.16 29.16 
L 29.16 29.16 
z
" style="fill: none"/>
   </g>
   <g id="matplotlib.axis_1"/>
   <g id="matplotlib.axis_2"/>
   <g id="patch_3">
    <path d="M 29.16 29.16 
C 29.16 29.16 29.16 29.16 29.16 29.16 
C 29.16 29.16 29.16 29.16 29.16 29.16 
L 37.079951 10.039548 
C 34.569076 8.999509 31.877751 8.464172 29.16 8.464172 
C 26.442249 8.464172 23.750924 8.999509 21.240049 10.039548 
z
" clip-path="url(#pc194a989e5)" style="fill: #d4a0a7; stroke: #6b6b6b; stroke-width: 0.4; stroke-linejoin: miter"/>
   </g>
   <g id="patch_4">
    <path d="M 29.16 29.16 
C 29.16 29.16 29.16 29.16 29.16 29.16 
C 29.16 29.16 29.16 29.16 29.16 29.16 
L 54.769941 18.552015 
C 53.376913 15.188949 51.33498 12.13298 48.761 9.559 
C 46.18702 6.98502 43.131051 4.943087 39.767985 3.550059 
z
" clip-path="url(#pc194a989e5)" style="fill: #d4a0a7; stroke: #6b6b6b; stroke-width: 0.4; stroke-linejoin: miter"/>
   </g>
   <g id="patch_5">
    <path d="M 29.16 29.16 
C 29.16 29.16 29.16 29.16 29.16 29.16 
C 29.16 29.16 29.16 29.16 29.16 29.16 
L 46.22017 36.226554 
C 47.148141 33.986233 47.625795 31.584906 47.625795 29.16 
C 47.625795 26.735094 47.148141 24.333767 46.22017 22.093446 
z
" clip-path="url(#pc194a989e5)" style="fill: #d4a0a7; stroke: #6b6b6b; stroke-width: 0.4; stroke-linejoin: miter"/>
   </g>
   <g id="patch_6">
    <path d="M 29.16 29.16 
C 29.16 29.16 29.16 29.16 29.16 29.16 
C 29.16 29.16 29.16 29.16 29.16 29.16 
L 34.036817 40.933677 
C 35.582922 40.293259 36.987845 39.35452 38.171182 38.171182 
C 39.35452 36.987845 40.293259 35.582922 40.933677 34.036817 
z
" clip-path="url(#pc194a989e5)" style="fill: #d4a0a7; stroke: #6b6b6b; stroke-width: 0.4; stroke-linejoin: miter"/>
   </g>
   <g id="patch_7">
    <path d="M 29.16 29.16 
C 29.16 29.16 29.16 29.16 29.16 29.16 
C 29.16 29.16 29.16 29.16 29.16 29.16 
L 26.015147 36.752347 
C 27.012165 37.165326 28.080836 37.377897 29.16 37.377897 
C 30.239164 37.377897 31.307835 37.165326 32.304853 36.752347 
z
" clip-path="url(#pc194a989e5)" style="fill: #d4a0a7; stroke: #6b6b6b; stroke-width: 0.4; stroke-linejoin: miter"/>
   </g>
   <g id="patch_8">
    <path d="M 29.16 29.16 
C 29.16 29.16 29.16 29.16 29.16 29.16 
C 29.16 29.16 29.16 29.16 29.16 29.16 
L 26.032885 30.455293 
C 26.202981 30.865942 26.452313 31.239093 26.76661 31.55339 
C 27.080907 31.867687 27.454058 32.117019 27.864707 32.287115 
z
" clip-path="url(#pc194a989e5)" style="fill: #d4a0a7; stroke: #6b6b6b; stroke-width: 0.4; stroke-linejoin: miter"/>
   </g>
   <g id="patch_9">
    <path d="M 29.16 29.16 
C 29.16 29.16 29.16 29.16 29.16 29.16 
C 29.16 29.16 29.16 29.16 29.16 29.16 
L 24.410266 27.192596 
C 24.151909 27.816325 24.018925 28.48488 24.018925 29.16 
C 24.018925 29.83512 24.151909 30.503675 24.410266 31.127404 
z
" clip-path="url(#pc194a989e5)" style="fill: #d4a0a7; stroke: #6b6b6b; stroke-width: 0.4; stroke-linejoin: miter"/>
   </g>
   <g id="patch_10">
    <path d="M 29.16 29.16 
C 29.16 29.16 29.16 29.16 29.16 29.16 
C 29.16 29.16 29.16 29.16 29.16 29.16 
L 24.281675 17.382681 
C 22.735091 18.023297 21.329734 18.962327 20.14603 20.14603 
C 18.962327 21.329734 18.023297 22.735091 17.382681 24.281675 
z
" clip-path="url(#pc194a989e5)" style="fill: #d4a0a7; stroke: #6b6b6b; stroke-width: 0.4; stroke-linejoin: miter"/>
   </g>
   <g id="patch_11">
    <path d="M 29.16 1.44 
C 25.519843 1.44 21.915082 2.157032 18.552015 3.550059 
C 15.188949 4.943087 12.13298 6.98502 9.559 9.559 
C 6.98502 12.13298 4.943087 15.188949 3.550059 18.552015 
C 2.157032 21.915082 1.44 25.519843 1.44 29.16 
C 1.44 32.800157 2.157032 36.404918 3.550059 39.767985 
C 4.943087 43.131051 6.98502 46.18702 9.559 48.761 
C 12.13298 51.33498 15.188949 53.376913 18.552015 54.769941 
C 21.915082 56.162968 25.519843 56.88 29.16 56.88 
C 32.800157 56.88 36.404918 56.162968 39.767985 54.769941 
C 43.131051 53.376913 46.18702 51.33498 48.761 48.761 
C 51.33498 46.18702 53.376913 43.131051 54.769941 39.767985 
C 56.162968 36.404918 56.88 32.800157 56.88 29.16 
C 56.88 25.519843 56.162968 21.915082 54.769941 18.552015 
C 53.376913 15.188949 51.33498 12.13298 48.761 9.559 
C 46.18702 6.98502 43.131051 4.943087 39.767985 3.550059 
C 36.404918 2.157032 32.800157 1.44 29.16 1.44 
" style="fill: none; stroke: #6b6b6b; stroke-width: 0.4; stroke-linejoin: miter; stroke-linecap: square"/>
   </g>
  </g>
 </g>
 <defs>
  <clipPath id="pc194a989e5">
   <path d="M 56.88 29.16 
C 56.88 25.519843 56.162968 21.915082 54.769941 18.552015 
C 53.376913 15.188949 51.33498 12.13298 48.761 9.559 
C 46.18702 6.98502 43.131051 4.943087 39.767985 3.550059 
C 36.404918 2.157032 32.800157 1.44 29.16 1.44 
C 25.519843 1.44 21.915082 2.157032 18.552015 3.550059 
C 15.188949 4.943087 12.13298 6.98502 9.559 9.559 
C 6.98502 12.13298 4.943087 15.188949 3.550059 18.552015 
C 2.157032 21.915082 1.44 25.519843 1.44 29.16 
C 1.44 32.800157 2.157032 36.404918 3.550059 39.767985 
C 4.943087 43.131051 6.98502 46.18702 9.559 48.761 
C 12.13298 51.33498 15.188949 53.376913 18.552015 54.769941 
C 21.915082 56.162968 25.519843 56.88 29.16 56.88 
C 32.800157 56.88 36.404918 56.162968 39.767985 54.769941 
C 43.131051 53.376913 46.18702 51.33498 48.761 48.761 
C 51.33498 46.18702 53.376913 43.131051 54.769941 39.767985 
C 56.162968 36.404918 56.88 32.800157 56.88 29.16 
M 29.16 29.16 
C 29.16 29.16 29.16 29.16 29.16 29.16 
C 29.16 29.16 29.16 29.16 29.16 29.16 
C 29.16 29.16 29.16 29.16 29.16 29.16 
C 29.16 29.16 29.16 29.16 29.16 29.16 
C 29.16 29.16 29.16 29.16 29.16 29.16 
C 29.16 29.16 29.16 29.16 29.16 29.16 
C 29.16 29.16 29.16 29.16 29.16 29.16 
C 29.16 29.16 29.16 29.16 29.16 29.16 
C 29.16 29.16 29.16 29.16 29.16 29.16 
C 29.16 29.16 29.16 29.16 29.16 29.16 
C 29.16 29.16 29.16 29.16 29.16 29.16 
C 29.16 29.16 29.16 29.16 29.16 29.16 
C 29.16 29.16 29.16 29.16 29.16 29.16 
C 29.16 29.16 29.16 29.16 29.16 29.16 
C 29.16 29.16 29.16 29.16 29.16 29.16 
C 29.16 29.16 29.16 29.16 29.16 29.16 
z
"/>
  </clipPath>
 </defs>
</svg>
