<?xml version="1.0" encoding="utf-8" standalone="no"?>
<!DOCTYPE svg PUBLIC "-//W3C//DTD SVG 1.1//EN"
  "http://www.w3.org/Graphics/SVG/1.1/DTD/svg11.dtd">
<svg xmlns:xlink="http://www.w3.org/1999/xlink" width="248.410469pt" height="249.158125pt" viewBox="0 0 248.410469 249.158125" xmlns="http://www.w3.org/2000/svg" version="1.1">
 <title>Ski Rose for Little Ski Hill</title>
 <metadata>
  <rdf:RDF xmlns:dc="http://purl.org/dc/elements/1.1/" xmlns:cc="http://creativecommons.org/ns#" xmlns:rdf="http://www.w3.org/1999/02/22-rdf-syntax-ns#">
   <cc:Work>
    <dc:type rdf:resource="http://purl.org/dc/dcmitype/StillImage"/>
    <dc:title>Ski Rose for Little Ski Hill</dc:title>
    <dc:date>2025-03-08T16:19:35.744786</dc:date>
    <dc:description>A 32-bin stacked histogram of downhill ski run orientations colored by difficulty.</dc:description>
    <dc:format>image/svg+xml</dc:format>
    <dc:source>https://openskimap.org/?obj=0403533d0403420f32bb77ce38b8ec3ed0abd49c</dc:source>
    <dc:creator>
     <cc:Agent>
      <dc:title>https://github.com/dhimmel/openskistats</dc:title>
     </cc:Agent>
    </dc:creator>
    <dc:rights>
     <cc:Agent>
      <dc:title>https://creativecommons.org/licenses/by/4.0/</dc:title>
     </cc:Agent>
    </dc:rights>
   </cc:Work>
  </rdf:RDF>
 </metadata>
 <defs>
  <style type="text/css">*{stroke-linejoin: round; stroke-linecap: butt}</style>
 </defs>
 <g id="figure_1">
  <g id="patch_1">
   <path d="M 0 249.158125 
L 248.410469 249.158125 
L 248.410469 0 
L 0 0 
z
" style="fill: #ffffff"/>
  </g>
  <g id="axes_1">
   <g id="patch_2">
    <path d="M 236.134844 124.579063 
C 236.134844 110.018434 233.266717 95.59939 227.694606 82.147124 
C 222.122495 68.694857 213.954763 56.470982 203.658844 46.175063 
C 193.362925 35.879144 181.139049 27.711411 167.686783 22.1393 
C 154.234516 16.567189 139.815472 13.699063 125.254844 13.699063 
C 110.694216 13.699063 96.275171 16.567189 82.822905 22.1393 
C 69.370638 27.711411 57.146763 35.879144 46.850844 46.175063 
C 36.554925 56.470982 28.387192 68.694857 22.815081 82.147124 
C 17.24297 95.59939 14.374844 110.018434 14.374844 124.579062 
C 14.374844 139.139691 17.24297 153.558735 22.815081 167.011001 
C 28.387192 180.463268 36.554925 192.687143 46.850844 202.983062 
C 57.146763 213.278981 69.370638 221.446714 82.822905 227.018825 
C 96.275171 232.590936 110.694216 235.459063 125.254844 235.459063 
C 139.815472 235.459063 154.234516 232.590936 167.686783 227.018825 
C 181.139049 221.446714 193.362925 213.278981 203.658844 202.983062 
C 213.954763 192.687143 222.122495 180.463268 227.694606 167.011001 
C 233.266717 153.558735 236.134844 139.139691 236.134844 124.579063 
M 125.254844 124.579063 
C 125.254844 124.579063 125.254844 124.579063 125.254844 124.579063 
C 125.254844 124.579063 125.254844 124.579063 125.254844 124.579063 
C 125.254844 124.579063 125.254844 124.579063 125.254844 124.579063 
C 125.254844 124.579063 125.254844 124.579063 125.254844 124.579063 
C 125.254844 124.579063 125.254844 124.579063 125.254844 124.579063 
C 125.254844 124.579063 125.254844 124.579063 125.254844 124.579063 
C 125.254844 124.579063 125.254844 124.579063 125.254844 124.579063 
C 125.254844 124.579063 125.254844 124.579063 125.254844 124.579063 
C 125.254844 124.579063 125.254844 124.579063 125.254844 124.579063 
C 125.254844 124.579063 125.254844 124.579063 125.254844 124.579063 
C 125.254844 124.579063 125.254844 124.579063 125.254844 124.579063 
C 125.254844 124.579063 125.254844 124.579063 125.254844 124.579063 
C 125.254844 124.579063 125.254844 124.579063 125.254844 124.579063 
C 125.254844 124.579063 125.254844 124.579063 125.254844 124.579063 
C 125.254844 124.579063 125.254844 124.579063 125.254844 124.579063 
C 125.254844 124.579063 125.254844 124.579063 125.254844 124.579063 
z
" style="fill: #ffffff"/>
   </g>
   <g id="PolyCollection_1">
    <defs>
     <path id="m95ec78da89" d="M 235.341212 -137.12182 
L 234.774563 -137.057258 
L 233.997691 -135.049808 
L 232.946178 -133.054554 
L 231.828608 -131.097393 
L 230.657538 -129.181044 
L 229.654973 -127.312876 
L 228.399097 -125.479189 
L 227.106312 -123.690218 
L 225.99583 -121.941067 
L 224.638196 -120.239892 
L 223.467482 -118.57212 
L 222.053526 -116.960841 
L 220.614496 -115.396972 
L 219.366769 -113.856363 
L 217.882515 -112.384398 
L 216.591313 -110.928736 
L 215.280124 -109.513997 
L 213.740033 -108.179302 
L 212.394331 -106.850334 
L 211.032869 -105.562532 
L 209.451291 -104.365284 
L 208.064104 -103.163132 
L 206.665326 -102.001938 
L 205.256293 -100.881554 
L 203.838334 -99.801783 
L 202.412772 -98.762381 
L 200.980921 -97.763052 
L 199.544087 -96.803453 
L 198.103567 -95.883187 
L 196.846285 -94.924916 
L 195.399402 -94.079341 
L 193.952533 -93.271722 
L 192.684032 -92.416989 
L 191.237746 -91.681201 
L 189.966051 -90.89254 
L 188.524758 -90.226302 
L 187.253815 -89.501732 
L 185.983088 -88.807393 
L 184.555402 -88.239634 
L 183.290994 -87.605957 
L 182.029374 -87.000821 
L 180.771332 -86.423637 
L 179.51764 -85.873786 
L 178.269045 -85.350617 
L 177.026272 -84.853449 
L 175.79002 -84.381568 
L 174.690177 -83.827719 
L 173.46508 -83.403631 
L 172.24839 -83.002685 
L 171.158649 -82.515975 
L 169.956504 -82.158771 
L 168.764404 -81.822337 
L 167.68921 -81.397537 
L 166.514554 -81.100399 
L 165.450008 -80.713738 
L 164.389556 -80.345317 
L 163.241957 -80.101868 
L 162.194232 -79.768001 
L 161.151524 -79.450751 
L 160.114094 -79.149603 
L 159.005402 -78.967801 
L 157.982743 -78.69624 
L 156.965988 -78.439062 
L 155.955301 -78.195731 
L 154.950825 -77.965709 
L 153.952676 -77.748457 
L 152.960946 -77.543434 
L 151.975704 -77.350102 
L 150.996993 -77.167921 
L 150.024832 -76.996358 
L 149.059214 -76.834882 
L 148.100109 -76.682969 
L 147.14746 -76.540101 
L 146.201188 -76.405769 
L 145.292734 -76.203316 
L 144.356157 -76.087553 
L 143.425669 -75.978984 
L 142.501098 -75.877143 
L 141.603921 -75.716822 
L 140.688258 -75.630526 
L 139.777985 -75.549759 
L 138.87285 -75.47412 
L 137.98597 -75.351452 
L 137.088405 -75.288734 
L 136.195236 -75.230141 
L 135.314586 -75.133848 
L 134.427733 -75.086579 
L 133.544404 -75.042606 
L 132.668815 -74.971022 
L 131.790333 -74.937097 
L 130.917088 -74.882186 
L 130.042468 -74.857679 
L 129.169744 -74.835536 
L 128.299249 -74.803469 
L 127.428679 -74.790057 
L 126.558911 -74.778726 
L 125.68953 -74.76893 
L 124.820162 -74.769426 
L 123.950739 -74.777316 
L 123.081247 -74.795507 
L 122.210952 -74.811879 
L 121.339539 -74.830394 
L 120.4685 -74.870982 
L 119.594447 -74.898397 
L 118.721741 -74.955217 
L 117.844007 -74.991998 
L 116.963444 -75.031611 
L 116.086704 -75.112207 
L 115.200874 -75.16222 
L 114.311264 -75.215763 
L 113.429157 -75.321531 
L 112.532873 -75.386853 
L 111.631976 -75.456588 
L 110.743416 -75.589304 
L 109.834665 -75.672505 
L 108.920605 -75.761169 
L 108.024806 -75.922936 
L 107.101977 -76.027016 
L 106.173303 -76.137749 
L 105.23861 -76.2556 
L 104.297749 -76.381044 
L 103.387492 -76.59554 
L 102.436908 -76.740266 
L 101.479925 -76.893953 
L 100.516484 -77.057116 
L 99.546551 -77.230278 
L 98.570117 -77.413968 
L 97.587198 -77.60872 
L 96.597833 -77.815071 
L 95.602087 -78.033559 
L 94.600052 -78.264724 
L 93.591839 -78.509105 
L 92.577588 -78.76724 
L 91.557462 -79.039664 
L 90.451758 -79.222799 
L 89.416911 -79.524606 
L 88.376804 -79.842423 
L 87.331696 -80.176762 
L 86.187169 -80.421089 
L 85.129361 -80.789782 
L 83.965087 -81.068738 
L 82.895913 -81.474301 
L 81.713388 -81.790993 
L 80.634391 -82.235833 
L 79.435351 -82.593233 
L 78.348273 -83.079634 
L 77.134679 -83.480559 
L 75.912668 -83.904512 
L 74.815467 -84.45777 
L 73.58228 -84.92931 
L 72.342556 -85.426029 
L 71.096994 -85.948644 
L 69.846316 -86.497836 
L 68.591268 -87.07426 
L 67.332619 -87.678536 
L 66.07116 -88.311255 
L 64.646817 -88.878206 
L 63.378986 -89.571387 
L 62.110913 -90.294705 
L 60.672874 -90.959817 
L 59.40399 -91.747038 
L 57.960894 -92.481495 
L 56.695141 -93.334606 
L 55.251396 -94.140697 
L 53.992834 -95.061371 
L 52.552968 -95.941032 
L 51.115466 -96.859485 
L 49.681615 -97.817179 
L 48.25271 -98.814509 
L 46.830057 -99.851822 
L 45.414971 -100.929415 
L 43.532198 -101.915367 
L 41.931352 -103.030142 
L 40.543854 -104.241753 
L 39.169495 -105.4944 
L 37.809624 -106.788132 
L 36.255845 -108.084073 
L 34.927797 -109.463499 
L 33.618446 -110.883911 
L 32.116079 -112.317111 
L 30.847459 -113.8227 
L 29.387243 -115.348063 
L 28.165559 -116.93797 
L 26.754472 -118.554522 
L 25.370653 -120.218025 
L 24.231777 -121.93368 
L 22.908993 -123.685904 
L 21.835045 -125.481593 
L 20.583335 -127.319982 
L 19.373271 -129.201952 
L 18.419553 -131.113389 
L 17.309625 -133.074535 
L 16.268757 -135.073229 
L 15.503473 -137.083652 
L 15.128545 -137.126369 
L 15.128545 -137.126369 
L 15.014071 -135.194042 
L 14.74512 -133.276366 
L 14.747419 -131.337986 
L 14.543626 -129.412819 
L 14.424361 -127.481261 
L 14.421312 -125.546292 
L 14.502547 -123.612542 
L 14.42682 -121.676929 
L 14.627109 -119.748951 
L 14.615166 -117.81205 
L 14.821949 -115.887805 
L 14.931529 -113.956135 
L 15.200082 -112.039906 
L 15.374474 -110.113037 
L 15.640261 -108.197053 
L 15.996971 -106.295565 
L 16.266892 -104.37934 
L 16.616109 -102.476262 
L 17.060754 -100.59301 
L 17.604918 -98.734602 
L 17.931839 -96.823446 
L 18.466287 -94.963975 
L 19.029927 -93.113809 
L 19.523434 -91.242077 
L 20.147891 -89.410768 
L 20.801731 -87.590275 
L 21.412715 -85.754081 
L 22.126125 -83.95558 
L 22.869861 -82.169814 
L 23.574763 -80.367305 
L 24.382209 -78.608754 
L 25.222021 -76.865853 
L 26.033211 -75.108981 
L 26.943027 -73.40117 
L 27.835145 -71.684482 
L 28.77381 -69.99272 
L 29.726448 -68.308537 
L 30.715764 -66.64544 
L 31.761064 -65.016956 
L 32.798349 -63.383443 
L 34.172418 -61.979845 
L 35.996336 -60.911587 
L 37.910427 -59.947594 
L 39.77311 -58.986621 
L 41.643952 -58.071956 
L 43.517586 -57.200067 
L 45.328973 -56.31592 
L 47.201215 -55.523045 
L 49.06862 -54.76725 
L 50.872878 -53.993212 
L 52.728506 -53.307629 
L 54.522102 -52.600902 
L 56.309873 -51.926222 
L 58.140828 -51.336966 
L 59.912875 -50.723402 
L 61.676979 -50.138947 
L 63.432568 -49.582646 
L 65.136677 -49.000168 
L 66.875584 -48.49773 
L 68.604584 -48.020631 
L 70.286389 -47.516131 
L 71.996357 -47.087484 
L 73.661927 -46.630668 
L 75.351707 -46.246828 
L 77.000311 -45.834821 
L 78.640708 -45.443963 
L 80.27312 -45.074136 
L 81.897016 -44.723878 
L 83.512733 -44.393213 
L 85.119769 -44.080557 
L 86.71857 -43.786085 
L 88.308673 -43.50809 
L 89.890618 -43.246911 
L 91.447904 -42.961889 
L 93.014422 -42.731984 
L 94.573098 -42.517005 
L 96.11136 -42.280404 
L 97.655362 -42.092906 
L 99.181915 -41.886297 
L 100.712508 -41.725525 
L 102.228007 -41.546971 
L 103.738757 -41.382526 
L 105.250956 -41.256873 
L 106.751936 -41.117838 
L 108.248815 -40.991763 
L 109.745693 -40.899174 
L 111.234425 -40.796346 
L 112.719861 -40.705537 
L 114.202278 -40.626491 
L 115.681965 -40.55898 
L 117.160242 -40.51341 
L 118.635044 -40.46653 
L 120.108106 -40.430638 
L 121.579752 -40.405612 
L 123.050311 -40.391359 
L 124.520118 -40.387812 
L 125.989554 -40.389586 
L 127.459416 -40.389863 
L 128.930034 -40.403371 
L 130.401764 -40.427655 
L 131.874937 -40.462809 
L 133.349874 -40.508956 
L 134.826895 -40.566246 
L 136.306308 -40.634855 
L 137.790788 -40.699098 
L 139.276452 -40.789234 
L 140.765435 -40.891399 
L 142.258001 -41.005873 
L 143.759863 -41.108313 
L 145.261175 -41.246695 
L 146.766826 -41.3984 
L 148.28475 -41.535902 
L 149.800631 -41.713874 
L 151.32144 -41.906381 
L 152.858799 -42.079536 
L 154.391022 -42.301033 
L 155.941809 -42.503045 
L 157.501221 -42.716864 
L 159.052166 -42.98511 
L 160.625817 -43.231394 
L 162.208613 -43.491417 
L 163.798982 -43.769596 
L 165.37626 -44.107951 
L 166.982947 -44.420122 
L 168.597096 -44.752565 
L 170.220637 -45.102292 
L 171.880317 -45.424717 
L 173.520901 -45.816016 
L 175.170652 -46.226938 
L 176.827056 -46.661949 
L 178.526844 -47.067821 
L 180.201141 -47.547194 
L 181.920601 -47.999687 
L 183.60904 -48.530393 
L 185.346818 -49.033097 
L 187.094088 -49.56206 
L 188.850387 -50.118248 
L 190.615197 -50.702622 
L 192.387948 -51.316136 
L 194.168007 -51.959741 
L 195.954679 -52.634388 
L 197.80326 -53.285932 
L 199.602515 -54.025757 
L 201.463599 -54.746604 
L 203.271306 -55.555928 
L 205.143382 -56.347805 
L 207.016436 -57.180007 
L 208.891616 -58.05137 
L 210.761771 -58.967289 
L 212.625741 -59.927999 
L 214.472787 -60.940522 
L 216.362239 -61.962684 
L 217.713768 -63.381835 
L 218.768153 -65.004514 
L 219.794644 -66.644998 
L 220.766201 -68.318574 
L 221.710596 -70.007024 
L 222.6782 -71.682496 
L 223.528042 -73.421274 
L 224.419361 -75.137458 
L 225.266164 -76.87611 
L 226.0498 -78.644155 
L 226.915834 -80.375606 
L 227.635813 -82.171476 
L 228.385914 -83.954654 
L 229.065908 -85.765696 
L 229.753841 -87.574027 
L 230.395042 -89.399644 
L 230.989725 -91.240982 
L 231.53815 -93.096513 
L 232.040628 -94.964743 
L 232.497524 -96.84422 
L 233.028028 -98.70501 
L 233.45709 -100.591202 
L 233.781755 -102.499013 
L 234.199387 -104.387385 
L 234.582015 -106.283968 
L 234.829028 -108.203091 
L 235.175125 -110.107783 
L 235.295166 -112.041551 
L 235.562471 -113.957646 
L 235.761852 -115.881972 
L 235.926543 -117.810091 
L 235.923018 -119.747186 
L 236.042594 -121.677983 
L 236.10156 -123.611718 
L 236.126329 -125.546623 
L 235.976511 -127.478411 
L 235.957357 -129.412439 
L 235.904935 -131.346712 
L 235.632182 -133.265947 
L 235.489704 -135.193472 
L 235.341212 -137.12182 
z
" style="stroke: #ffee9c"/>
    </defs>
    <g clip-path="url(#p72f023a9cb)">
     <use xlink:href="#m95ec78da89" x="0" y="249.158125" style="fill: #ffee9c; stroke: #ffee9c"/>
    </g>
   </g>
   <g id="matplotlib.axis_1">
    <g id="xtick_1">
     <g id="line2d_1">
      <path d="M 125.254844 124.579063 
L 125.254844 13.699063 
" clip-path="url(#p72f023a9cb)" style="fill: none; stroke: #b0b0b0; stroke-width: 0.8; stroke-linecap: square"/>
     </g>
     <g id="text_1">
      <!-- N -->
      <g transform="translate(121.070469 7.958438) scale(0.1 -0.1)">
       <defs>
        <path id="DejaVuSans-Bold-4e" d="M 588 4666 
L 1931 4666 
L 3628 1466 
L 3628 4666 
L 4769 4666 
L 4769 0 
L 3425 0 
L 1728 3200 
L 1728 0 
L 588 0 
L 588 4666 
z
" transform="scale(0.015625)"/>
       </defs>
       <use xlink:href="#DejaVuSans-Bold-4e"/>
      </g>
     </g>
    </g>
    <g id="xtick_2">
     <g id="line2d_2">
      <path d="M 125.254844 124.579063 
L 203.658844 46.175063 
" clip-path="url(#p72f023a9cb)" style="fill: none; stroke: #b0b0b0; stroke-width: 0.8; stroke-linecap: square"/>
     </g>
    </g>
    <g id="xtick_3">
     <g id="line2d_3">
      <path d="M 125.254844 124.579063 
L 236.134844 124.579063 
" clip-path="url(#p72f023a9cb)" style="fill: none; stroke: #b0b0b0; stroke-width: 0.8; stroke-linecap: square"/>
     </g>
     <g id="text_2">
      <!-- E -->
      <g transform="translate(241.219219 127.338438) scale(0.1 -0.1)">
       <defs>
        <path id="DejaVuSans-Bold-45" d="M 588 4666 
L 3834 4666 
L 3834 3756 
L 1791 3756 
L 1791 2888 
L 3713 2888 
L 3713 1978 
L 1791 1978 
L 1791 909 
L 3903 909 
L 3903 0 
L 588 0 
L 588 4666 
z
" transform="scale(0.015625)"/>
       </defs>
       <use xlink:href="#DejaVuSans-Bold-45"/>
      </g>
     </g>
    </g>
    <g id="xtick_4">
     <g id="line2d_4">
      <path d="M 125.254844 124.579063 
L 203.658844 202.983062 
" clip-path="url(#p72f023a9cb)" style="fill: none; stroke: #b0b0b0; stroke-width: 0.8; stroke-linecap: square"/>
     </g>
    </g>
    <g id="xtick_5">
     <g id="line2d_5">
      <path d="M 125.254844 124.579063 
L 125.254844 235.459063 
" clip-path="url(#p72f023a9cb)" style="fill: none; stroke: #b0b0b0; stroke-width: 0.8; stroke-linecap: square"/>
     </g>
     <g id="text_3">
      <!-- S -->
      <g transform="translate(121.654062 246.718438) scale(0.1 -0.1)">
       <defs>
        <path id="DejaVuSans-Bold-53" d="M 3834 4519 
L 3834 3531 
Q 3450 3703 3084 3790 
Q 2719 3878 2394 3878 
Q 1963 3878 1756 3759 
Q 1550 3641 1550 3391 
Q 1550 3203 1689 3098 
Q 1828 2994 2194 2919 
L 2706 2816 
Q 3484 2659 3812 2340 
Q 4141 2022 4141 1434 
Q 4141 663 3683 286 
Q 3225 -91 2284 -91 
Q 1841 -91 1394 -6 
Q 947 78 500 244 
L 500 1259 
Q 947 1022 1364 901 
Q 1781 781 2169 781 
Q 2563 781 2772 912 
Q 2981 1044 2981 1288 
Q 2981 1506 2839 1625 
Q 2697 1744 2272 1838 
L 1806 1941 
Q 1106 2091 782 2419 
Q 459 2747 459 3303 
Q 459 4000 909 4375 
Q 1359 4750 2203 4750 
Q 2588 4750 2994 4692 
Q 3400 4634 3834 4519 
z
" transform="scale(0.015625)"/>
       </defs>
       <use xlink:href="#DejaVuSans-Bold-53"/>
      </g>
     </g>
    </g>
    <g id="xtick_6">
     <g id="line2d_6">
      <path d="M 125.254844 124.579063 
L 46.850844 202.983062 
" clip-path="url(#p72f023a9cb)" style="fill: none; stroke: #b0b0b0; stroke-width: 0.8; stroke-linecap: square"/>
     </g>
    </g>
    <g id="xtick_7">
     <g id="line2d_7">
      <path d="M 125.254844 124.579063 
L 14.374844 124.579063 
" clip-path="url(#p72f023a9cb)" style="fill: none; stroke: #b0b0b0; stroke-width: 0.8; stroke-linecap: square"/>
     </g>
     <g id="text_4">
      <!-- W -->
      <g transform="translate(0.36 127.338438) scale(0.1 -0.1)">
       <defs>
        <path id="DejaVuSans-Bold-57" d="M 191 4666 
L 1344 4666 
L 2150 1275 
L 2950 4666 
L 4109 4666 
L 4909 1275 
L 5716 4666 
L 6859 4666 
L 5759 0 
L 4372 0 
L 3525 3547 
L 2688 0 
L 1300 0 
L 191 4666 
z
" transform="scale(0.015625)"/>
       </defs>
       <use xlink:href="#DejaVuSans-Bold-57"/>
      </g>
     </g>
    </g>
    <g id="xtick_8">
     <g id="line2d_8">
      <path d="M 125.254844 124.579063 
L 46.850844 46.175063 
" clip-path="url(#p72f023a9cb)" style="fill: none; stroke: #b0b0b0; stroke-width: 0.8; stroke-linecap: square"/>
     </g>
    </g>
   </g>
   <g id="matplotlib.axis_2"/>
   <g id="patch_3">
    <path d="M 125.254844 124.579063 
C 125.254844 124.579063 125.254844 124.579063 125.254844 124.579063 
C 125.254844 124.579063 125.254844 124.579063 125.254844 124.579063 
L 125.254844 124.579063 
C 125.254844 124.579063 125.254844 124.579063 125.254844 124.579063 
C 125.254844 124.579063 125.254844 124.579063 125.254844 124.579063 
z
" clip-path="url(#p72f023a9cb)" style="fill: #d9d9d9"/>
   </g>
   <g id="patch_4">
    <path d="M 125.254844 124.579063 
C 125.254844 124.579063 125.254844 124.579063 125.254844 124.579063 
C 125.254844 124.579063 125.254844 124.579063 125.254844 124.579063 
L 125.254844 124.579063 
C 125.254844 124.579063 125.254844 124.579063 125.254844 124.579063 
C 125.254844 124.579063 125.254844 124.579063 125.254844 124.579063 
z
" clip-path="url(#p72f023a9cb)" style="fill: #d9d9d9"/>
   </g>
   <g id="patch_5">
    <path d="M 125.254844 124.579063 
C 125.254844 124.579063 125.254844 124.579063 125.254844 124.579063 
C 125.254844 124.579063 125.254844 124.579063 125.254844 124.579063 
L 125.254844 124.579063 
C 125.254844 124.579063 125.254844 124.579063 125.254844 124.579063 
C 125.254844 124.579063 125.254844 124.579063 125.254844 124.579063 
z
" clip-path="url(#p72f023a9cb)" style="fill: #d9d9d9"/>
   </g>
   <g id="patch_6">
    <path d="M 125.254844 124.579063 
C 125.254844 124.579063 125.254844 124.579063 125.254844 124.579063 
C 125.254844 124.579063 125.254844 124.579063 125.254844 124.579063 
L 125.254844 124.579063 
C 125.254844 124.579063 125.254844 124.579063 125.254844 124.579063 
C 125.254844 124.579063 125.254844 124.579063 125.254844 124.579063 
z
" clip-path="url(#p72f023a9cb)" style="fill: #d9d9d9"/>
   </g>
   <g id="patch_7">
    <path d="M 125.254844 124.579063 
C 125.254844 124.579063 125.254844 124.579063 125.254844 124.579063 
C 125.254844 124.579063 125.254844 124.579063 125.254844 124.579063 
L 125.254844 124.579063 
C 125.254844 124.579063 125.254844 124.579063 125.254844 124.579063 
C 125.254844 124.579063 125.254844 124.579063 125.254844 124.579063 
z
" clip-path="url(#p72f023a9cb)" style="fill: #d9d9d9"/>
   </g>
   <g id="patch_8">
    <path d="M 125.254844 124.579063 
C 125.254844 124.579063 125.254844 124.579063 125.254844 124.579063 
C 125.254844 124.579063 125.254844 124.579063 125.254844 124.579063 
L 125.254844 124.579063 
C 125.254844 124.579063 125.254844 124.579063 125.254844 124.579063 
C 125.254844 124.579063 125.254844 124.579063 125.254844 124.579063 
z
" clip-path="url(#p72f023a9cb)" style="fill: #d9d9d9"/>
   </g>
   <g id="patch_9">
    <path d="M 125.254844 124.579063 
C 125.254844 124.579063 125.254844 124.579063 125.254844 124.579063 
C 125.254844 124.579063 125.254844 124.579063 125.254844 124.579063 
L 125.254844 124.579063 
C 125.254844 124.579063 125.254844 124.579063 125.254844 124.579063 
C 125.254844 124.579063 125.254844 124.579063 125.254844 124.579063 
z
" clip-path="url(#p72f023a9cb)" style="fill: #d9d9d9"/>
   </g>
   <g id="patch_10">
    <path d="M 125.254844 124.579063 
C 125.254844 124.579063 125.254844 124.579063 125.254844 124.579063 
C 125.254844 124.579063 125.254844 124.579063 125.254844 124.579063 
L 125.254844 124.579063 
C 125.254844 124.579063 125.254844 124.579063 125.254844 124.579063 
C 125.254844 124.579063 125.254844 124.579063 125.254844 124.579063 
z
" clip-path="url(#p72f023a9cb)" style="fill: #d9d9d9"/>
   </g>
   <g id="patch_11">
    <path d="M 125.254844 124.579063 
C 125.254844 124.579063 125.254844 124.579063 125.254844 124.579063 
C 125.254844 124.579063 125.254844 124.579063 125.254844 124.579063 
L 125.254844 124.579063 
C 125.254844 124.579063 125.254844 124.579063 125.254844 124.579063 
C 125.254844 124.579063 125.254844 124.579063 125.254844 124.579063 
z
" clip-path="url(#p72f023a9cb)" style="fill: #d9d9d9"/>
   </g>
   <g id="patch_12">
    <path d="M 125.254844 124.579063 
C 125.254844 124.579063 125.254844 124.579063 125.254844 124.579063 
C 125.254844 124.579063 125.254844 124.579063 125.254844 124.579063 
L 125.254844 124.579063 
C 125.254844 124.579063 125.254844 124.579063 125.254844 124.579063 
C 125.254844 124.579063 125.254844 124.579063 125.254844 124.579063 
z
" clip-path="url(#p72f023a9cb)" style="fill: #d9d9d9"/>
   </g>
   <g id="patch_13">
    <path d="M 125.254844 124.579063 
C 125.254844 124.579063 125.254844 124.579063 125.254844 124.579063 
C 125.254844 124.579063 125.254844 124.579063 125.254844 124.579063 
L 125.254844 124.579063 
C 125.254844 124.579063 125.254844 124.579063 125.254844 124.579063 
C 125.254844 124.579063 125.254844 124.579063 125.254844 124.579063 
z
" clip-path="url(#p72f023a9cb)" style="fill: #d9d9d9"/>
   </g>
   <g id="patch_14">
    <path d="M 125.254844 124.579063 
C 125.254844 124.579063 125.254844 124.579063 125.254844 124.579063 
C 125.254844 124.579063 125.254844 124.579063 125.254844 124.579063 
L 125.254844 124.579063 
C 125.254844 124.579063 125.254844 124.579063 125.254844 124.579063 
C 125.254844 124.579063 125.254844 124.579063 125.254844 124.579063 
z
" clip-path="url(#p72f023a9cb)" style="fill: #d9d9d9"/>
   </g>
   <g id="patch_15">
    <path d="M 125.254844 124.579063 
C 125.254844 124.579063 125.254844 124.579063 125.254844 124.579063 
C 125.254844 124.579063 125.254844 124.579063 125.254844 124.579063 
L 125.254844 124.579063 
C 125.254844 124.579063 125.254844 124.579063 125.254844 124.579063 
C 125.254844 124.579063 125.254844 124.579063 125.254844 124.579063 
z
" clip-path="url(#p72f023a9cb)" style="fill: #d9d9d9"/>
   </g>
   <g id="patch_16">
    <path d="M 125.254844 124.579063 
C 125.254844 124.579063 125.254844 124.579063 125.254844 124.579063 
C 125.254844 124.579063 125.254844 124.579063 125.254844 124.579063 
L 125.254844 124.579063 
C 125.254844 124.579063 125.254844 124.579063 125.254844 124.579063 
C 125.254844 124.579063 125.254844 124.579063 125.254844 124.579063 
z
" clip-path="url(#p72f023a9cb)" style="fill: #d9d9d9"/>
   </g>
   <g id="patch_17">
    <path d="M 125.254844 124.579063 
C 125.254844 124.579063 125.254844 124.579063 125.254844 124.579063 
C 125.254844 124.579063 125.254844 124.579063 125.254844 124.579063 
L 125.254844 124.579063 
C 125.254844 124.579063 125.254844 124.579063 125.254844 124.579063 
C 125.254844 124.579063 125.254844 124.579063 125.254844 124.579063 
z
" clip-path="url(#p72f023a9cb)" style="fill: #d9d9d9"/>
   </g>
   <g id="patch_18">
    <path d="M 125.254844 124.579063 
C 125.254844 124.579063 125.254844 124.579063 125.254844 124.579063 
C 125.254844 124.579063 125.254844 124.579063 125.254844 124.579063 
L 125.254844 124.579063 
C 125.254844 124.579063 125.254844 124.579063 125.254844 124.579063 
C 125.254844 124.579063 125.254844 124.579063 125.254844 124.579063 
z
" clip-path="url(#p72f023a9cb)" style="fill: #d9d9d9"/>
   </g>
   <g id="patch_19">
    <path d="M 125.254844 124.579063 
C 125.254844 124.579063 125.254844 124.579063 125.254844 124.579063 
C 125.254844 124.579063 125.254844 124.579063 125.254844 124.579063 
L 125.254844 124.579063 
C 125.254844 124.579063 125.254844 124.579063 125.254844 124.579063 
C 125.254844 124.579063 125.254844 124.579063 125.254844 124.579063 
z
" clip-path="url(#p72f023a9cb)" style="fill: #d9d9d9"/>
   </g>
   <g id="patch_20">
    <path d="M 125.254844 124.579063 
C 125.254844 124.579063 125.254844 124.579063 125.254844 124.579063 
C 125.254844 124.579063 125.254844 124.579063 125.254844 124.579063 
L 125.254844 124.579063 
C 125.254844 124.579063 125.254844 124.579063 125.254844 124.579063 
C 125.254844 124.579063 125.254844 124.579063 125.254844 124.579063 
z
" clip-path="url(#p72f023a9cb)" style="fill: #d9d9d9"/>
   </g>
   <g id="patch_21">
    <path d="M 125.254844 124.579063 
C 125.254844 124.579063 125.254844 124.579063 125.254844 124.579063 
C 125.254844 124.579063 125.254844 124.579063 125.254844 124.579063 
L 125.254844 124.579063 
C 125.254844 124.579063 125.254844 124.579063 125.254844 124.579063 
C 125.254844 124.579063 125.254844 124.579063 125.254844 124.579063 
z
" clip-path="url(#p72f023a9cb)" style="fill: #d9d9d9"/>
   </g>
   <g id="patch_22">
    <path d="M 125.254844 124.579063 
C 125.254844 124.579063 125.254844 124.579063 125.254844 124.579063 
C 125.254844 124.579063 125.254844 124.579063 125.254844 124.579063 
L 125.254844 124.579063 
C 125.254844 124.579063 125.254844 124.579063 125.254844 124.579063 
C 125.254844 124.579063 125.254844 124.579063 125.254844 124.579063 
z
" clip-path="url(#p72f023a9cb)" style="fill: #d9d9d9"/>
   </g>
   <g id="patch_23">
    <path d="M 125.254844 124.579063 
C 125.254844 124.579063 125.254844 124.579063 125.254844 124.579063 
C 125.254844 124.579063 125.254844 124.579063 125.254844 124.579063 
L 125.254844 124.579063 
C 125.254844 124.579063 125.254844 124.579063 125.254844 124.579063 
C 125.254844 124.579063 125.254844 124.579063 125.254844 124.579063 
z
" clip-path="url(#p72f023a9cb)" style="fill: #d9d9d9"/>
   </g>
   <g id="patch_24">
    <path d="M 125.254844 124.579063 
C 125.254844 124.579063 125.254844 124.579063 125.254844 124.579063 
C 125.254844 124.579063 125.254844 124.579063 125.254844 124.579063 
L 125.254844 124.579063 
C 125.254844 124.579063 125.254844 124.579063 125.254844 124.579063 
C 125.254844 124.579063 125.254844 124.579063 125.254844 124.579063 
z
" clip-path="url(#p72f023a9cb)" style="fill: #d9d9d9"/>
   </g>
   <g id="patch_25">
    <path d="M 125.254844 124.579063 
C 125.254844 124.579063 125.254844 124.579063 125.254844 124.579063 
C 125.254844 124.579063 125.254844 124.579063 125.254844 124.579063 
L 125.254844 124.579063 
C 125.254844 124.579063 125.254844 124.579063 125.254844 124.579063 
C 125.254844 124.579063 125.254844 124.579063 125.254844 124.579063 
z
" clip-path="url(#p72f023a9cb)" style="fill: #d9d9d9"/>
   </g>
   <g id="patch_26">
    <path d="M 125.254844 124.579063 
C 125.254844 124.579063 125.254844 124.579063 125.254844 124.579063 
C 125.254844 124.579063 125.254844 124.579063 125.254844 124.579063 
L 125.254844 124.579063 
C 125.254844 124.579063 125.254844 124.579063 125.254844 124.579063 
C 125.254844 124.579063 125.254844 124.579063 125.254844 124.579063 
z
" clip-path="url(#p72f023a9cb)" style="fill: #d9d9d9"/>
   </g>
   <g id="patch_27">
    <path d="M 125.254844 124.579063 
C 125.254844 124.579063 125.254844 124.579063 125.254844 124.579063 
C 125.254844 124.579063 125.254844 124.579063 125.254844 124.579063 
L 125.254844 124.579063 
C 125.254844 124.579063 125.254844 124.579063 125.254844 124.579063 
C 125.254844 124.579063 125.254844 124.579063 125.254844 124.579063 
z
" clip-path="url(#p72f023a9cb)" style="fill: #d9d9d9"/>
   </g>
   <g id="patch_28">
    <path d="M 125.254844 124.579063 
C 125.254844 124.579063 125.254844 124.579063 125.254844 124.579063 
C 125.254844 124.579063 125.254844 124.579063 125.254844 124.579063 
L 125.254844 124.579063 
C 125.254844 124.579063 125.254844 124.579063 125.254844 124.579063 
C 125.254844 124.579063 125.254844 124.579063 125.254844 124.579063 
z
" clip-path="url(#p72f023a9cb)" style="fill: #d9d9d9"/>
   </g>
   <g id="patch_29">
    <path d="M 125.254844 124.579063 
C 125.254844 124.579063 125.254844 124.579063 125.254844 124.579063 
C 125.254844 124.579063 125.254844 124.579063 125.254844 124.579063 
L 125.254844 124.579063 
C 125.254844 124.579063 125.254844 124.579063 125.254844 124.579063 
C 125.254844 124.579063 125.254844 124.579063 125.254844 124.579063 
z
" clip-path="url(#p72f023a9cb)" style="fill: #d9d9d9"/>
   </g>
   <g id="patch_30">
    <path d="M 125.254844 124.579063 
C 125.254844 124.579063 125.254844 124.579063 125.254844 124.579063 
C 125.254844 124.579063 125.254844 124.579063 125.254844 124.579063 
L 125.254844 124.579063 
C 125.254844 124.579063 125.254844 124.579063 125.254844 124.579063 
C 125.254844 124.579063 125.254844 124.579063 125.254844 124.579063 
z
" clip-path="url(#p72f023a9cb)" style="fill: #d9d9d9"/>
   </g>
   <g id="patch_31">
    <path d="M 125.254844 124.579063 
C 125.254844 124.579063 125.254844 124.579063 125.254844 124.579063 
C 125.254844 124.579063 125.254844 124.579063 125.254844 124.579063 
L 125.254844 124.579063 
C 125.254844 124.579063 125.254844 124.579063 125.254844 124.579063 
C 125.254844 124.579063 125.254844 124.579063 125.254844 124.579063 
z
" clip-path="url(#p72f023a9cb)" style="fill: #d9d9d9"/>
   </g>
   <g id="patch_32">
    <path d="M 125.254844 124.579063 
C 125.254844 124.579063 125.254844 124.579063 125.254844 124.579063 
C 125.254844 124.579063 125.254844 124.579063 125.254844 124.579063 
L 125.254844 124.579063 
C 125.254844 124.579063 125.254844 124.579063 125.254844 124.579063 
C 125.254844 124.579063 125.254844 124.579063 125.254844 124.579063 
z
" clip-path="url(#p72f023a9cb)" style="fill: #d9d9d9"/>
   </g>
   <g id="patch_33">
    <path d="M 125.254844 124.579063 
C 125.254844 124.579063 125.254844 124.579063 125.254844 124.579063 
C 125.254844 124.579063 125.254844 124.579063 125.254844 124.579063 
L 125.254844 124.579063 
C 125.254844 124.579063 125.254844 124.579063 125.254844 124.579063 
C 125.254844 124.579063 125.254844 124.579063 125.254844 124.579063 
z
" clip-path="url(#p72f023a9cb)" style="fill: #d9d9d9"/>
   </g>
   <g id="patch_34">
    <path d="M 125.254844 124.579063 
C 125.254844 124.579063 125.254844 124.579063 125.254844 124.579063 
C 125.254844 124.579063 125.254844 124.579063 125.254844 124.579063 
L 125.254844 124.579063 
C 125.254844 124.579063 125.254844 124.579063 125.254844 124.579063 
C 125.254844 124.579063 125.254844 124.579063 125.254844 124.579063 
z
" clip-path="url(#p72f023a9cb)" style="fill: #d9d9d9"/>
   </g>
   <g id="patch_35">
    <path d="M 125.254844 124.579063 
C 125.254844 124.579063 125.254844 124.579063 125.254844 124.579063 
C 125.254844 124.579063 125.254844 124.579063 125.254844 124.579063 
L 127.677475 99.981674 
C 126.872366 99.902378 126.063849 99.862658 125.254844 99.862658 
C 124.445839 99.862658 123.637322 99.902378 122.832212 99.981674 
z
" clip-path="url(#p72f023a9cb)" style="fill: #badbb8"/>
   </g>
   <g id="patch_36">
    <path d="M 125.254844 124.579063 
C 125.254844 124.579063 125.254844 124.579063 125.254844 124.579063 
C 125.254844 124.579063 125.254844 124.579063 125.254844 124.579063 
L 129.64849 110.095153 
C 129.17441 109.951343 128.693555 109.830895 128.207662 109.734245 
C 127.721769 109.637595 127.231423 109.564859 126.738396 109.5163 
z
" clip-path="url(#p72f023a9cb)" style="fill: #badbb8"/>
   </g>
   <g id="patch_37">
    <path d="M 125.254844 124.579063 
C 125.254844 124.579063 125.254844 124.579063 125.254844 124.579063 
C 125.254844 124.579063 125.254844 124.579063 125.254844 124.579063 
L 131.08046 113.680101 
C 130.723721 113.48942 130.357835 113.316369 129.984123 113.161572 
C 129.610412 113.006776 129.229325 112.870421 128.842241 112.753 
z
" clip-path="url(#p72f023a9cb)" style="fill: #badbb8"/>
   </g>
   <g id="patch_38">
    <path d="M 125.254844 124.579063 
C 125.254844 124.579063 125.254844 124.579063 125.254844 124.579063 
C 125.254844 124.579063 125.254844 124.579063 125.254844 124.579063 
L 130.798533 117.824058 
C 130.577432 117.642604 130.347555 117.472116 130.109732 117.313208 
C 129.87191 117.1543 129.626429 117.007165 129.374176 116.872333 
z
" clip-path="url(#p72f023a9cb)" style="fill: #badbb8"/>
   </g>
   <g id="patch_39">
    <path d="M 125.254844 124.579063 
C 125.254844 124.579063 125.254844 124.579063 125.254844 124.579063 
C 125.254844 124.579063 125.254844 124.579063 125.254844 124.579063 
L 140.359494 112.182997 
C 139.953752 111.688599 139.523981 111.21442 139.071734 110.762172 
C 138.619486 110.309925 138.145307 109.880154 137.65091 109.474412 
z
" clip-path="url(#p72f023a9cb)" style="fill: #badbb8"/>
   </g>
   <g id="patch_40">
    <path d="M 125.254844 124.579063 
C 125.254844 124.579063 125.254844 124.579063 125.254844 124.579063 
C 125.254844 124.579063 125.254844 124.579063 125.254844 124.579063 
L 140.668303 116.340397 
C 140.398639 115.835892 140.104368 115.34493 139.786552 114.869285 
C 139.468737 114.393641 139.12776 113.933887 138.764854 113.491684 
z
" clip-path="url(#p72f023a9cb)" style="fill: #badbb8"/>
   </g>
   <g id="patch_41">
    <path d="M 125.254844 124.579063 
C 125.254844 124.579063 125.254844 124.579063 125.254844 124.579063 
C 125.254844 124.579063 125.254844 124.579063 125.254844 124.579063 
L 125.254844 124.579063 
C 125.254844 124.579063 125.254844 124.579063 125.254844 124.579063 
C 125.254844 124.579063 125.254844 124.579063 125.254844 124.579063 
z
" clip-path="url(#p72f023a9cb)" style="fill: #badbb8"/>
   </g>
   <g id="patch_42">
    <path d="M 125.254844 124.579063 
C 125.254844 124.579063 125.254844 124.579063 125.254844 124.579063 
C 125.254844 124.579063 125.254844 124.579063 125.254844 124.579063 
L 125.254844 124.579063 
C 125.254844 124.579063 125.254844 124.579063 125.254844 124.579063 
C 125.254844 124.579063 125.254844 124.579063 125.254844 124.579063 
z
" clip-path="url(#p72f023a9cb)" style="fill: #badbb8"/>
   </g>
   <g id="patch_43">
    <path d="M 125.254844 124.579063 
C 125.254844 124.579063 125.254844 124.579063 125.254844 124.579063 
C 125.254844 124.579063 125.254844 124.579063 125.254844 124.579063 
L 125.254844 124.579063 
C 125.254844 124.579063 125.254844 124.579063 125.254844 124.579063 
C 125.254844 124.579063 125.254844 124.579063 125.254844 124.579063 
z
" clip-path="url(#p72f023a9cb)" style="fill: #badbb8"/>
   </g>
   <g id="patch_44">
    <path d="M 125.254844 124.579063 
C 125.254844 124.579063 125.254844 124.579063 125.254844 124.579063 
C 125.254844 124.579063 125.254844 124.579063 125.254844 124.579063 
L 125.254844 124.579063 
C 125.254844 124.579063 125.254844 124.579063 125.254844 124.579063 
C 125.254844 124.579063 125.254844 124.579063 125.254844 124.579063 
z
" clip-path="url(#p72f023a9cb)" style="fill: #badbb8"/>
   </g>
   <g id="patch_45">
    <path d="M 125.254844 124.579063 
C 125.254844 124.579063 125.254844 124.579063 125.254844 124.579063 
C 125.254844 124.579063 125.254844 124.579063 125.254844 124.579063 
L 125.254844 124.579063 
C 125.254844 124.579063 125.254844 124.579063 125.254844 124.579063 
C 125.254844 124.579063 125.254844 124.579063 125.254844 124.579063 
z
" clip-path="url(#p72f023a9cb)" style="fill: #badbb8"/>
   </g>
   <g id="patch_46">
    <path d="M 125.254844 124.579063 
C 125.254844 124.579063 125.254844 124.579063 125.254844 124.579063 
C 125.254844 124.579063 125.254844 124.579063 125.254844 124.579063 
L 125.254844 124.579063 
C 125.254844 124.579063 125.254844 124.579063 125.254844 124.579063 
C 125.254844 124.579063 125.254844 124.579063 125.254844 124.579063 
z
" clip-path="url(#p72f023a9cb)" style="fill: #badbb8"/>
   </g>
   <g id="patch_47">
    <path d="M 125.254844 124.579063 
C 125.254844 124.579063 125.254844 124.579063 125.254844 124.579063 
C 125.254844 124.579063 125.254844 124.579063 125.254844 124.579063 
L 125.254844 124.579063 
C 125.254844 124.579063 125.254844 124.579063 125.254844 124.579063 
C 125.254844 124.579063 125.254844 124.579063 125.254844 124.579063 
z
" clip-path="url(#p72f023a9cb)" style="fill: #badbb8"/>
   </g>
   <g id="patch_48">
    <path d="M 125.254844 124.579063 
C 125.254844 124.579063 125.254844 124.579063 125.254844 124.579063 
C 125.254844 124.579063 125.254844 124.579063 125.254844 124.579063 
L 125.254844 124.579063 
C 125.254844 124.579063 125.254844 124.579063 125.254844 124.579063 
C 125.254844 124.579063 125.254844 124.579063 125.254844 124.579063 
z
" clip-path="url(#p72f023a9cb)" style="fill: #badbb8"/>
   </g>
   <g id="patch_49">
    <path d="M 125.254844 124.579063 
C 125.254844 124.579063 125.254844 124.579063 125.254844 124.579063 
C 125.254844 124.579063 125.254844 124.579063 125.254844 124.579063 
L 125.254844 124.579063 
C 125.254844 124.579063 125.254844 124.579063 125.254844 124.579063 
C 125.254844 124.579063 125.254844 124.579063 125.254844 124.579063 
z
" clip-path="url(#p72f023a9cb)" style="fill: #badbb8"/>
   </g>
   <g id="patch_50">
    <path d="M 125.254844 124.579063 
C 125.254844 124.579063 125.254844 124.579063 125.254844 124.579063 
C 125.254844 124.579063 125.254844 124.579063 125.254844 124.579063 
L 125.254844 124.579063 
C 125.254844 124.579063 125.254844 124.579063 125.254844 124.579063 
C 125.254844 124.579063 125.254844 124.579063 125.254844 124.579063 
z
" clip-path="url(#p72f023a9cb)" style="fill: #badbb8"/>
   </g>
   <g id="patch_51">
    <path d="M 125.254844 124.579063 
C 125.254844 124.579063 125.254844 124.579063 125.254844 124.579063 
C 125.254844 124.579063 125.254844 124.579063 125.254844 124.579063 
L 125.254844 124.579063 
C 125.254844 124.579063 125.254844 124.579063 125.254844 124.579063 
C 125.254844 124.579063 125.254844 124.579063 125.254844 124.579063 
z
" clip-path="url(#p72f023a9cb)" style="fill: #badbb8"/>
   </g>
   <g id="patch_52">
    <path d="M 125.254844 124.579063 
C 125.254844 124.579063 125.254844 124.579063 125.254844 124.579063 
C 125.254844 124.579063 125.254844 124.579063 125.254844 124.579063 
L 125.254844 124.579063 
C 125.254844 124.579063 125.254844 124.579063 125.254844 124.579063 
C 125.254844 124.579063 125.254844 124.579063 125.254844 124.579063 
z
" clip-path="url(#p72f023a9cb)" style="fill: #badbb8"/>
   </g>
   <g id="patch_53">
    <path d="M 125.254844 124.579063 
C 125.254844 124.579063 125.254844 124.579063 125.254844 124.579063 
C 125.254844 124.579063 125.254844 124.579063 125.254844 124.579063 
L 125.254844 124.579063 
C 125.254844 124.579063 125.254844 124.579063 125.254844 124.579063 
C 125.254844 124.579063 125.254844 124.579063 125.254844 124.579063 
z
" clip-path="url(#p72f023a9cb)" style="fill: #badbb8"/>
   </g>
   <g id="patch_54">
    <path d="M 125.254844 124.579063 
C 125.254844 124.579063 125.254844 124.579063 125.254844 124.579063 
C 125.254844 124.579063 125.254844 124.579063 125.254844 124.579063 
L 125.254844 124.579063 
C 125.254844 124.579063 125.254844 124.579063 125.254844 124.579063 
C 125.254844 124.579063 125.254844 124.579063 125.254844 124.579063 
z
" clip-path="url(#p72f023a9cb)" style="fill: #badbb8"/>
   </g>
   <g id="patch_55">
    <path d="M 125.254844 124.579063 
C 125.254844 124.579063 125.254844 124.579063 125.254844 124.579063 
C 125.254844 124.579063 125.254844 124.579063 125.254844 124.579063 
L 125.254844 124.579063 
C 125.254844 124.579063 125.254844 124.579063 125.254844 124.579063 
C 125.254844 124.579063 125.254844 124.579063 125.254844 124.579063 
z
" clip-path="url(#p72f023a9cb)" style="fill: #badbb8"/>
   </g>
   <g id="patch_56">
    <path d="M 125.254844 124.579063 
C 125.254844 124.579063 125.254844 124.579063 125.254844 124.579063 
C 125.254844 124.579063 125.254844 124.579063 125.254844 124.579063 
L 117.548114 128.698395 
C 117.682946 128.950648 117.830082 129.196129 117.988989 129.433951 
C 118.147897 129.671773 118.318386 129.90165 118.499839 130.122752 
z
" clip-path="url(#p72f023a9cb)" style="fill: #badbb8"/>
   </g>
   <g id="patch_57">
    <path d="M 125.254844 124.579063 
C 125.254844 124.579063 125.254844 124.579063 125.254844 124.579063 
C 125.254844 124.579063 125.254844 124.579063 125.254844 124.579063 
L 106.556198 130.251235 
C 106.741856 130.863269 106.957452 131.46582 107.202207 132.05671 
C 107.446961 132.647599 107.720579 133.226116 108.022073 133.790171 
z
" clip-path="url(#p72f023a9cb)" style="fill: #badbb8"/>
   </g>
   <g id="patch_58">
    <path d="M 125.254844 124.579063 
C 125.254844 124.579063 125.254844 124.579063 125.254844 124.579063 
C 125.254844 124.579063 125.254844 124.579063 125.254844 124.579063 
L 97.754128 127.287647 
C 97.842784 128.187786 97.975581 129.08303 98.152039 129.970146 
C 98.328497 130.857261 98.548404 131.735178 98.810965 132.600725 
z
" clip-path="url(#p72f023a9cb)" style="fill: #badbb8"/>
   </g>
   <g id="patch_59">
    <path d="M 125.254844 124.579063 
C 125.254844 124.579063 125.254844 124.579063 125.254844 124.579063 
C 125.254844 124.579063 125.254844 124.579063 125.254844 124.579063 
L 125.254844 124.579063 
C 125.254844 124.579063 125.254844 124.579063 125.254844 124.579063 
C 125.254844 124.579063 125.254844 124.579063 125.254844 124.579063 
z
" clip-path="url(#p72f023a9cb)" style="fill: #badbb8"/>
   </g>
   <g id="patch_60">
    <path d="M 125.254844 124.579063 
C 125.254844 124.579063 125.254844 124.579063 125.254844 124.579063 
C 125.254844 124.579063 125.254844 124.579063 125.254844 124.579063 
L 49.994245 101.749009 
C 49.246983 104.212401 48.621117 106.710997 48.118909 109.235771 
C 47.6167 111.760545 47.238753 114.308455 46.986434 116.870297 
z
" clip-path="url(#p72f023a9cb)" style="fill: #badbb8"/>
   </g>
   <g id="patch_61">
    <path d="M 125.254844 124.579063 
C 125.254844 124.579063 125.254844 124.579063 125.254844 124.579063 
C 125.254844 124.579063 125.254844 124.579063 125.254844 124.579063 
L 62.172544 90.860871 
C 61.068897 92.925649 60.067291 95.043368 59.171342 97.20638 
C 58.275393 99.369392 57.486182 101.575088 56.80656 103.815503 
z
" clip-path="url(#p72f023a9cb)" style="fill: #badbb8"/>
   </g>
   <g id="patch_62">
    <path d="M 125.254844 124.579063 
C 125.254844 124.579063 125.254844 124.579063 125.254844 124.579063 
C 125.254844 124.579063 125.254844 124.579063 125.254844 124.579063 
L 67.146095 76.890444 
C 65.585175 78.792431 64.118578 80.769907 62.751602 82.815732 
C 61.384626 84.861556 60.118918 86.973262 58.95905 89.143222 
z
" clip-path="url(#p72f023a9cb)" style="fill: #badbb8"/>
   </g>
   <g id="patch_63">
    <path d="M 125.254844 124.579063 
C 125.254844 124.579063 125.254844 124.579063 125.254844 124.579063 
C 125.254844 124.579063 125.254844 124.579063 125.254844 124.579063 
L 117.414883 115.026043 
C 117.102199 115.282657 116.802302 115.554467 116.516275 115.840494 
C 116.230249 116.12652 115.958438 116.426417 115.701824 116.739102 
z
" clip-path="url(#p72f023a9cb)" style="fill: #badbb8"/>
   </g>
   <g id="patch_64">
    <path d="M 125.254844 124.579063 
C 125.254844 124.579063 125.254844 124.579063 125.254844 124.579063 
C 125.254844 124.579063 125.254844 124.579063 125.254844 124.579063 
L 121.135511 116.872333 
C 120.883258 117.007165 120.637777 117.1543 120.399955 117.313208 
C 120.162133 117.472116 119.932256 117.642604 119.711155 117.824058 
z
" clip-path="url(#p72f023a9cb)" style="fill: #badbb8"/>
   </g>
   <g id="patch_65">
    <path d="M 125.254844 124.579063 
C 125.254844 124.579063 125.254844 124.579063 125.254844 124.579063 
C 125.254844 124.579063 125.254844 124.579063 125.254844 124.579063 
L 118.543439 102.454526 
C 117.81927 102.6742 117.106323 102.929297 116.407172 103.218894 
C 115.708022 103.508492 115.023512 103.832241 114.356114 104.188973 
z
" clip-path="url(#p72f023a9cb)" style="fill: #badbb8"/>
   </g>
   <g id="patch_66">
    <path d="M 125.254844 124.579063 
C 125.254844 124.579063 125.254844 124.579063 125.254844 124.579063 
C 125.254844 124.579063 125.254844 124.579063 125.254844 124.579063 
L 122.832212 99.981674 
C 122.027103 100.060971 121.226372 100.179748 120.432912 100.337577 
C 119.639452 100.495406 118.85422 100.692096 118.08005 100.926938 
z
" clip-path="url(#p72f023a9cb)" style="fill: #badbb8"/>
   </g>
   <g id="patch_67">
    <path d="M 122.832212 99.981674 
C 123.637322 99.902378 124.445839 99.862658 125.254844 99.862658 
C 126.063849 99.862658 126.872366 99.902378 127.677475 99.981674 
L 127.677475 99.981674 
C 126.872366 99.902378 126.063849 99.862658 125.254844 99.862658 
C 124.445839 99.862658 123.637322 99.902378 122.832212 99.981674 
z
" clip-path="url(#p72f023a9cb)" style="fill: #a1a1d8"/>
   </g>
   <g id="patch_68">
    <path d="M 126.738396 109.5163 
C 127.231423 109.564859 127.721769 109.637595 128.207662 109.734245 
C 128.693555 109.830895 129.17441 109.951343 129.64849 110.095153 
L 129.64849 110.095153 
C 129.17441 109.951343 128.693555 109.830895 128.207662 109.734245 
C 127.721769 109.637595 127.231423 109.564859 126.738396 109.5163 
z
" clip-path="url(#p72f023a9cb)" style="fill: #a1a1d8"/>
   </g>
   <g id="patch_69">
    <path d="M 128.842241 112.753 
C 129.229325 112.870421 129.610412 113.006776 129.984123 113.161572 
C 130.357835 113.316369 130.723721 113.48942 131.08046 113.680101 
L 131.08046 113.680101 
C 130.723721 113.48942 130.357835 113.316369 129.984123 113.161572 
C 129.610412 113.006776 129.229325 112.870421 128.842241 112.753 
z
" clip-path="url(#p72f023a9cb)" style="fill: #a1a1d8"/>
   </g>
   <g id="patch_70">
    <path d="M 129.374176 116.872333 
C 129.626429 117.007165 129.87191 117.1543 130.109732 117.313208 
C 130.347555 117.472116 130.577432 117.642604 130.798533 117.824058 
L 130.798533 117.824058 
C 130.577432 117.642604 130.347555 117.472116 130.109732 117.313208 
C 129.87191 117.1543 129.626429 117.007165 129.374176 116.872333 
z
" clip-path="url(#p72f023a9cb)" style="fill: #a1a1d8"/>
   </g>
   <g id="patch_71">
    <path d="M 137.65091 109.474412 
C 138.145307 109.880154 138.619486 110.309925 139.071734 110.762172 
C 139.523981 111.21442 139.953752 111.688599 140.359494 112.182997 
L 140.359494 112.182997 
C 139.953752 111.688599 139.523981 111.21442 139.071734 110.762172 
C 138.619486 110.309925 138.145307 109.880154 137.65091 109.474412 
z
" clip-path="url(#p72f023a9cb)" style="fill: #a1a1d8"/>
   </g>
   <g id="patch_72">
    <path d="M 138.764854 113.491684 
C 139.12776 113.933887 139.468737 114.393641 139.786552 114.869285 
C 140.104368 115.34493 140.398639 115.835892 140.668303 116.340397 
L 140.668303 116.340397 
C 140.398639 115.835892 140.104368 115.34493 139.786552 114.869285 
C 139.468737 114.393641 139.12776 113.933887 138.764854 113.491684 
z
" clip-path="url(#p72f023a9cb)" style="fill: #a1a1d8"/>
   </g>
   <g id="patch_73">
    <path d="M 125.254844 124.579063 
C 125.254844 124.579063 125.254844 124.579063 125.254844 124.579063 
C 125.254844 124.579063 125.254844 124.579063 125.254844 124.579063 
L 125.254844 124.579063 
C 125.254844 124.579063 125.254844 124.579063 125.254844 124.579063 
C 125.254844 124.579063 125.254844 124.579063 125.254844 124.579063 
z
" clip-path="url(#p72f023a9cb)" style="fill: #a1a1d8"/>
   </g>
   <g id="patch_74">
    <path d="M 125.254844 124.579063 
C 125.254844 124.579063 125.254844 124.579063 125.254844 124.579063 
C 125.254844 124.579063 125.254844 124.579063 125.254844 124.579063 
L 125.254844 124.579063 
C 125.254844 124.579063 125.254844 124.579063 125.254844 124.579063 
C 125.254844 124.579063 125.254844 124.579063 125.254844 124.579063 
z
" clip-path="url(#p72f023a9cb)" style="fill: #a1a1d8"/>
   </g>
   <g id="patch_75">
    <path d="M 125.254844 124.579063 
C 125.254844 124.579063 125.254844 124.579063 125.254844 124.579063 
C 125.254844 124.579063 125.254844 124.579063 125.254844 124.579063 
L 125.254844 124.579063 
C 125.254844 124.579063 125.254844 124.579063 125.254844 124.579063 
C 125.254844 124.579063 125.254844 124.579063 125.254844 124.579063 
z
" clip-path="url(#p72f023a9cb)" style="fill: #a1a1d8"/>
   </g>
   <g id="patch_76">
    <path d="M 125.254844 124.579063 
C 125.254844 124.579063 125.254844 124.579063 125.254844 124.579063 
C 125.254844 124.579063 125.254844 124.579063 125.254844 124.579063 
L 125.254844 124.579063 
C 125.254844 124.579063 125.254844 124.579063 125.254844 124.579063 
C 125.254844 124.579063 125.254844 124.579063 125.254844 124.579063 
z
" clip-path="url(#p72f023a9cb)" style="fill: #a1a1d8"/>
   </g>
   <g id="patch_77">
    <path d="M 125.254844 124.579063 
C 125.254844 124.579063 125.254844 124.579063 125.254844 124.579063 
C 125.254844 124.579063 125.254844 124.579063 125.254844 124.579063 
L 125.254844 124.579063 
C 125.254844 124.579063 125.254844 124.579063 125.254844 124.579063 
C 125.254844 124.579063 125.254844 124.579063 125.254844 124.579063 
z
" clip-path="url(#p72f023a9cb)" style="fill: #a1a1d8"/>
   </g>
   <g id="patch_78">
    <path d="M 125.254844 124.579063 
C 125.254844 124.579063 125.254844 124.579063 125.254844 124.579063 
C 125.254844 124.579063 125.254844 124.579063 125.254844 124.579063 
L 125.254844 124.579063 
C 125.254844 124.579063 125.254844 124.579063 125.254844 124.579063 
C 125.254844 124.579063 125.254844 124.579063 125.254844 124.579063 
z
" clip-path="url(#p72f023a9cb)" style="fill: #a1a1d8"/>
   </g>
   <g id="patch_79">
    <path d="M 125.254844 124.579063 
C 125.254844 124.579063 125.254844 124.579063 125.254844 124.579063 
C 125.254844 124.579063 125.254844 124.579063 125.254844 124.579063 
L 125.254844 124.579063 
C 125.254844 124.579063 125.254844 124.579063 125.254844 124.579063 
C 125.254844 124.579063 125.254844 124.579063 125.254844 124.579063 
z
" clip-path="url(#p72f023a9cb)" style="fill: #a1a1d8"/>
   </g>
   <g id="patch_80">
    <path d="M 125.254844 124.579063 
C 125.254844 124.579063 125.254844 124.579063 125.254844 124.579063 
C 125.254844 124.579063 125.254844 124.579063 125.254844 124.579063 
L 125.254844 124.579063 
C 125.254844 124.579063 125.254844 124.579063 125.254844 124.579063 
C 125.254844 124.579063 125.254844 124.579063 125.254844 124.579063 
z
" clip-path="url(#p72f023a9cb)" style="fill: #a1a1d8"/>
   </g>
   <g id="patch_81">
    <path d="M 125.254844 124.579063 
C 125.254844 124.579063 125.254844 124.579063 125.254844 124.579063 
C 125.254844 124.579063 125.254844 124.579063 125.254844 124.579063 
L 125.254844 124.579063 
C 125.254844 124.579063 125.254844 124.579063 125.254844 124.579063 
C 125.254844 124.579063 125.254844 124.579063 125.254844 124.579063 
z
" clip-path="url(#p72f023a9cb)" style="fill: #a1a1d8"/>
   </g>
   <g id="patch_82">
    <path d="M 125.254844 124.579063 
C 125.254844 124.579063 125.254844 124.579063 125.254844 124.579063 
C 125.254844 124.579063 125.254844 124.579063 125.254844 124.579063 
L 125.254844 124.579063 
C 125.254844 124.579063 125.254844 124.579063 125.254844 124.579063 
C 125.254844 124.579063 125.254844 124.579063 125.254844 124.579063 
z
" clip-path="url(#p72f023a9cb)" style="fill: #a1a1d8"/>
   </g>
   <g id="patch_83">
    <path d="M 125.254844 124.579063 
C 125.254844 124.579063 125.254844 124.579063 125.254844 124.579063 
C 125.254844 124.579063 125.254844 124.579063 125.254844 124.579063 
L 125.254844 124.579063 
C 125.254844 124.579063 125.254844 124.579063 125.254844 124.579063 
C 125.254844 124.579063 125.254844 124.579063 125.254844 124.579063 
z
" clip-path="url(#p72f023a9cb)" style="fill: #a1a1d8"/>
   </g>
   <g id="patch_84">
    <path d="M 125.254844 124.579063 
C 125.254844 124.579063 125.254844 124.579063 125.254844 124.579063 
C 125.254844 124.579063 125.254844 124.579063 125.254844 124.579063 
L 125.254844 124.579063 
C 125.254844 124.579063 125.254844 124.579063 125.254844 124.579063 
C 125.254844 124.579063 125.254844 124.579063 125.254844 124.579063 
z
" clip-path="url(#p72f023a9cb)" style="fill: #a1a1d8"/>
   </g>
   <g id="patch_85">
    <path d="M 125.254844 124.579063 
C 125.254844 124.579063 125.254844 124.579063 125.254844 124.579063 
C 125.254844 124.579063 125.254844 124.579063 125.254844 124.579063 
L 125.254844 124.579063 
C 125.254844 124.579063 125.254844 124.579063 125.254844 124.579063 
C 125.254844 124.579063 125.254844 124.579063 125.254844 124.579063 
z
" clip-path="url(#p72f023a9cb)" style="fill: #a1a1d8"/>
   </g>
   <g id="patch_86">
    <path d="M 125.254844 124.579063 
C 125.254844 124.579063 125.254844 124.579063 125.254844 124.579063 
C 125.254844 124.579063 125.254844 124.579063 125.254844 124.579063 
L 125.254844 124.579063 
C 125.254844 124.579063 125.254844 124.579063 125.254844 124.579063 
C 125.254844 124.579063 125.254844 124.579063 125.254844 124.579063 
z
" clip-path="url(#p72f023a9cb)" style="fill: #a1a1d8"/>
   </g>
   <g id="patch_87">
    <path d="M 125.254844 124.579063 
C 125.254844 124.579063 125.254844 124.579063 125.254844 124.579063 
C 125.254844 124.579063 125.254844 124.579063 125.254844 124.579063 
L 125.254844 124.579063 
C 125.254844 124.579063 125.254844 124.579063 125.254844 124.579063 
C 125.254844 124.579063 125.254844 124.579063 125.254844 124.579063 
z
" clip-path="url(#p72f023a9cb)" style="fill: #a1a1d8"/>
   </g>
   <g id="patch_88">
    <path d="M 118.499839 130.122752 
C 118.318386 129.90165 118.147897 129.671773 117.988989 129.433951 
C 117.830082 129.196129 117.682946 128.950648 117.548114 128.698395 
L 117.548114 128.698395 
C 117.682946 128.950648 117.830082 129.196129 117.988989 129.433951 
C 118.147897 129.671773 118.318386 129.90165 118.499839 130.122752 
z
" clip-path="url(#p72f023a9cb)" style="fill: #a1a1d8"/>
   </g>
   <g id="patch_89">
    <path d="M 108.022073 133.790171 
C 107.720579 133.226116 107.446961 132.647599 107.202207 132.05671 
C 106.957452 131.46582 106.741856 130.863269 106.556198 130.251235 
L 106.556198 130.251235 
C 106.741856 130.863269 106.957452 131.46582 107.202207 132.05671 
C 107.446961 132.647599 107.720579 133.226116 108.022073 133.790171 
z
" clip-path="url(#p72f023a9cb)" style="fill: #a1a1d8"/>
   </g>
   <g id="patch_90">
    <path d="M 98.810965 132.600725 
C 98.548404 131.735178 98.328497 130.857261 98.152039 129.970146 
C 97.975581 129.08303 97.842784 128.187786 97.754128 127.287647 
L 97.754128 127.287647 
C 97.842784 128.187786 97.975581 129.08303 98.152039 129.970146 
C 98.328497 130.857261 98.548404 131.735178 98.810965 132.600725 
z
" clip-path="url(#p72f023a9cb)" style="fill: #a1a1d8"/>
   </g>
   <g id="patch_91">
    <path d="M 125.254844 124.579063 
C 125.254844 124.579063 125.254844 124.579063 125.254844 124.579063 
C 125.254844 124.579063 125.254844 124.579063 125.254844 124.579063 
L 125.254844 124.579063 
C 125.254844 124.579063 125.254844 124.579063 125.254844 124.579063 
C 125.254844 124.579063 125.254844 124.579063 125.254844 124.579063 
z
" clip-path="url(#p72f023a9cb)" style="fill: #a1a1d8"/>
   </g>
   <g id="patch_92">
    <path d="M 46.986434 116.870297 
C 47.238753 114.308455 47.6167 111.760545 48.118909 109.235771 
C 48.621117 106.710997 49.246983 104.212401 49.994245 101.749009 
L 49.994245 101.749009 
C 49.246983 104.212401 48.621117 106.710997 48.118909 109.235771 
C 47.6167 111.760545 47.238753 114.308455 46.986434 116.870297 
z
" clip-path="url(#p72f023a9cb)" style="fill: #a1a1d8"/>
   </g>
   <g id="patch_93">
    <path d="M 56.80656 103.815503 
C 57.486182 101.575088 58.275393 99.369392 59.171342 97.20638 
C 60.067291 95.043368 61.068897 92.925649 62.172544 90.860871 
L 61.237941 90.361315 
C 60.117943 92.456684 59.101497 94.605778 58.192274 96.800837 
C 57.283051 98.995895 56.482148 101.23427 55.792456 103.507878 
z
" clip-path="url(#p72f023a9cb)" style="fill: #a1a1d8"/>
   </g>
   <g id="patch_94">
    <path d="M 58.95905 89.143222 
C 60.118918 86.973262 61.384626 84.861556 62.751602 82.815732 
C 64.118578 80.769907 65.585175 78.792431 67.146095 76.890444 
L 67.146095 76.890444 
C 65.585175 78.792431 64.118578 80.769907 62.751602 82.815732 
C 61.384626 84.861556 60.118918 86.973262 58.95905 89.143222 
z
" clip-path="url(#p72f023a9cb)" style="fill: #a1a1d8"/>
   </g>
   <g id="patch_95">
    <path d="M 115.701824 116.739102 
C 115.958438 116.426417 116.230249 116.12652 116.516275 115.840494 
C 116.802302 115.554467 117.102199 115.282657 117.414883 115.026043 
L 117.414883 115.026043 
C 117.102199 115.282657 116.802302 115.554467 116.516275 115.840494 
C 116.230249 116.12652 115.958438 116.426417 115.701824 116.739102 
z
" clip-path="url(#p72f023a9cb)" style="fill: #a1a1d8"/>
   </g>
   <g id="patch_96">
    <path d="M 119.711155 117.824058 
C 119.932256 117.642604 120.162133 117.472116 120.399955 117.313208 
C 120.637777 117.1543 120.883258 117.007165 121.135511 116.872333 
L 118.11995 111.230615 
C 117.683036 111.464151 117.25785 111.718997 116.84593 111.994234 
C 116.43401 112.26947 116.035851 112.564765 115.652892 112.879051 
z
" clip-path="url(#p72f023a9cb)" style="fill: #a1a1d8"/>
   </g>
   <g id="patch_97">
    <path d="M 114.356114 104.188973 
C 115.023512 103.832241 115.708022 103.508492 116.407172 103.218894 
C 117.106323 102.929297 117.81927 102.6742 118.543439 102.454526 
L 94.709261 23.883771 
C 91.413354 24.883574 88.168521 26.044594 84.986482 27.362637 
C 81.804443 28.680681 78.689035 30.154159 75.651509 31.777751 
z
" clip-path="url(#p72f023a9cb)" style="fill: #a1a1d8"/>
   </g>
   <g id="patch_98">
    <path d="M 118.08005 100.926938 
C 118.85422 100.692096 119.639452 100.495406 120.432912 100.337577 
C 121.226372 100.179748 122.027103 100.060971 122.832212 99.981674 
L 122.832212 99.981674 
C 122.027103 100.060971 121.226372 100.179748 120.432912 100.337577 
C 119.639452 100.495406 118.85422 100.692096 118.08005 100.926938 
z
" clip-path="url(#p72f023a9cb)" style="fill: #a1a1d8"/>
   </g>
   <g id="patch_99">
    <path d="M 122.832212 99.981674 
C 123.637322 99.902378 124.445839 99.862658 125.254844 99.862658 
C 126.063849 99.862658 126.872366 99.902378 127.677475 99.981674 
L 127.677475 99.981674 
C 126.872366 99.902378 126.063849 99.862658 125.254844 99.862658 
C 124.445839 99.862658 123.637322 99.902378 122.832212 99.981674 
z
" clip-path="url(#p72f023a9cb)" style="fill: #828282"/>
   </g>
   <g id="patch_100">
    <path d="M 126.738396 109.5163 
C 127.231423 109.564859 127.721769 109.637595 128.207662 109.734245 
C 128.693555 109.830895 129.17441 109.951343 129.64849 110.095153 
L 129.64849 110.095153 
C 129.17441 109.951343 128.693555 109.830895 128.207662 109.734245 
C 127.721769 109.637595 127.231423 109.564859 126.738396 109.5163 
z
" clip-path="url(#p72f023a9cb)" style="fill: #828282"/>
   </g>
   <g id="patch_101">
    <path d="M 128.842241 112.753 
C 129.229325 112.870421 129.610412 113.006776 129.984123 113.161572 
C 130.357835 113.316369 130.723721 113.48942 131.08046 113.680101 
L 131.08046 113.680101 
C 130.723721 113.48942 130.357835 113.316369 129.984123 113.161572 
C 129.610412 113.006776 129.229325 112.870421 128.842241 112.753 
z
" clip-path="url(#p72f023a9cb)" style="fill: #828282"/>
   </g>
   <g id="patch_102">
    <path d="M 129.374176 116.872333 
C 129.626429 117.007165 129.87191 117.1543 130.109732 117.313208 
C 130.347555 117.472116 130.577432 117.642604 130.798533 117.824058 
L 130.798533 117.824058 
C 130.577432 117.642604 130.347555 117.472116 130.109732 117.313208 
C 129.87191 117.1543 129.626429 117.007165 129.374176 116.872333 
z
" clip-path="url(#p72f023a9cb)" style="fill: #828282"/>
   </g>
   <g id="patch_103">
    <path d="M 137.65091 109.474412 
C 138.145307 109.880154 138.619486 110.309925 139.071734 110.762172 
C 139.523981 111.21442 139.953752 111.688599 140.359494 112.182997 
L 140.359494 112.182997 
C 139.953752 111.688599 139.523981 111.21442 139.071734 110.762172 
C 138.619486 110.309925 138.145307 109.880154 137.65091 109.474412 
z
" clip-path="url(#p72f023a9cb)" style="fill: #828282"/>
   </g>
   <g id="patch_104">
    <path d="M 138.764854 113.491684 
C 139.12776 113.933887 139.468737 114.393641 139.786552 114.869285 
C 140.104368 115.34493 140.398639 115.835892 140.668303 116.340397 
L 140.668303 116.340397 
C 140.398639 115.835892 140.104368 115.34493 139.786552 114.869285 
C 139.468737 114.393641 139.12776 113.933887 138.764854 113.491684 
z
" clip-path="url(#p72f023a9cb)" style="fill: #828282"/>
   </g>
   <g id="patch_105">
    <path d="M 125.254844 124.579063 
C 125.254844 124.579063 125.254844 124.579063 125.254844 124.579063 
C 125.254844 124.579063 125.254844 124.579063 125.254844 124.579063 
L 125.254844 124.579063 
C 125.254844 124.579063 125.254844 124.579063 125.254844 124.579063 
C 125.254844 124.579063 125.254844 124.579063 125.254844 124.579063 
z
" clip-path="url(#p72f023a9cb)" style="fill: #828282"/>
   </g>
   <g id="patch_106">
    <path d="M 125.254844 124.579063 
C 125.254844 124.579063 125.254844 124.579063 125.254844 124.579063 
C 125.254844 124.579063 125.254844 124.579063 125.254844 124.579063 
L 125.254844 124.579063 
C 125.254844 124.579063 125.254844 124.579063 125.254844 124.579063 
C 125.254844 124.579063 125.254844 124.579063 125.254844 124.579063 
z
" clip-path="url(#p72f023a9cb)" style="fill: #828282"/>
   </g>
   <g id="patch_107">
    <path d="M 125.254844 124.579063 
C 125.254844 124.579063 125.254844 124.579063 125.254844 124.579063 
C 125.254844 124.579063 125.254844 124.579063 125.254844 124.579063 
L 125.254844 124.579063 
C 125.254844 124.579063 125.254844 124.579063 125.254844 124.579063 
C 125.254844 124.579063 125.254844 124.579063 125.254844 124.579063 
z
" clip-path="url(#p72f023a9cb)" style="fill: #828282"/>
   </g>
   <g id="patch_108">
    <path d="M 125.254844 124.579063 
C 125.254844 124.579063 125.254844 124.579063 125.254844 124.579063 
C 125.254844 124.579063 125.254844 124.579063 125.254844 124.579063 
L 125.254844 124.579063 
C 125.254844 124.579063 125.254844 124.579063 125.254844 124.579063 
C 125.254844 124.579063 125.254844 124.579063 125.254844 124.579063 
z
" clip-path="url(#p72f023a9cb)" style="fill: #828282"/>
   </g>
   <g id="patch_109">
    <path d="M 125.254844 124.579063 
C 125.254844 124.579063 125.254844 124.579063 125.254844 124.579063 
C 125.254844 124.579063 125.254844 124.579063 125.254844 124.579063 
L 125.254844 124.579063 
C 125.254844 124.579063 125.254844 124.579063 125.254844 124.579063 
C 125.254844 124.579063 125.254844 124.579063 125.254844 124.579063 
z
" clip-path="url(#p72f023a9cb)" style="fill: #828282"/>
   </g>
   <g id="patch_110">
    <path d="M 125.254844 124.579063 
C 125.254844 124.579063 125.254844 124.579063 125.254844 124.579063 
C 125.254844 124.579063 125.254844 124.579063 125.254844 124.579063 
L 125.254844 124.579063 
C 125.254844 124.579063 125.254844 124.579063 125.254844 124.579063 
C 125.254844 124.579063 125.254844 124.579063 125.254844 124.579063 
z
" clip-path="url(#p72f023a9cb)" style="fill: #828282"/>
   </g>
   <g id="patch_111">
    <path d="M 125.254844 124.579063 
C 125.254844 124.579063 125.254844 124.579063 125.254844 124.579063 
C 125.254844 124.579063 125.254844 124.579063 125.254844 124.579063 
L 125.254844 124.579063 
C 125.254844 124.579063 125.254844 124.579063 125.254844 124.579063 
C 125.254844 124.579063 125.254844 124.579063 125.254844 124.579063 
z
" clip-path="url(#p72f023a9cb)" style="fill: #828282"/>
   </g>
   <g id="patch_112">
    <path d="M 125.254844 124.579063 
C 125.254844 124.579063 125.254844 124.579063 125.254844 124.579063 
C 125.254844 124.579063 125.254844 124.579063 125.254844 124.579063 
L 125.254844 124.579063 
C 125.254844 124.579063 125.254844 124.579063 125.254844 124.579063 
C 125.254844 124.579063 125.254844 124.579063 125.254844 124.579063 
z
" clip-path="url(#p72f023a9cb)" style="fill: #828282"/>
   </g>
   <g id="patch_113">
    <path d="M 125.254844 124.579063 
C 125.254844 124.579063 125.254844 124.579063 125.254844 124.579063 
C 125.254844 124.579063 125.254844 124.579063 125.254844 124.579063 
L 125.254844 124.579063 
C 125.254844 124.579063 125.254844 124.579063 125.254844 124.579063 
C 125.254844 124.579063 125.254844 124.579063 125.254844 124.579063 
z
" clip-path="url(#p72f023a9cb)" style="fill: #828282"/>
   </g>
   <g id="patch_114">
    <path d="M 125.254844 124.579063 
C 125.254844 124.579063 125.254844 124.579063 125.254844 124.579063 
C 125.254844 124.579063 125.254844 124.579063 125.254844 124.579063 
L 125.254844 124.579063 
C 125.254844 124.579063 125.254844 124.579063 125.254844 124.579063 
C 125.254844 124.579063 125.254844 124.579063 125.254844 124.579063 
z
" clip-path="url(#p72f023a9cb)" style="fill: #828282"/>
   </g>
   <g id="patch_115">
    <path d="M 125.254844 124.579063 
C 125.254844 124.579063 125.254844 124.579063 125.254844 124.579063 
C 125.254844 124.579063 125.254844 124.579063 125.254844 124.579063 
L 125.254844 124.579063 
C 125.254844 124.579063 125.254844 124.579063 125.254844 124.579063 
C 125.254844 124.579063 125.254844 124.579063 125.254844 124.579063 
z
" clip-path="url(#p72f023a9cb)" style="fill: #828282"/>
   </g>
   <g id="patch_116">
    <path d="M 125.254844 124.579063 
C 125.254844 124.579063 125.254844 124.579063 125.254844 124.579063 
C 125.254844 124.579063 125.254844 124.579063 125.254844 124.579063 
L 125.254844 124.579063 
C 125.254844 124.579063 125.254844 124.579063 125.254844 124.579063 
C 125.254844 124.579063 125.254844 124.579063 125.254844 124.579063 
z
" clip-path="url(#p72f023a9cb)" style="fill: #828282"/>
   </g>
   <g id="patch_117">
    <path d="M 125.254844 124.579063 
C 125.254844 124.579063 125.254844 124.579063 125.254844 124.579063 
C 125.254844 124.579063 125.254844 124.579063 125.254844 124.579063 
L 125.254844 124.579063 
C 125.254844 124.579063 125.254844 124.579063 125.254844 124.579063 
C 125.254844 124.579063 125.254844 124.579063 125.254844 124.579063 
z
" clip-path="url(#p72f023a9cb)" style="fill: #828282"/>
   </g>
   <g id="patch_118">
    <path d="M 125.254844 124.579063 
C 125.254844 124.579063 125.254844 124.579063 125.254844 124.579063 
C 125.254844 124.579063 125.254844 124.579063 125.254844 124.579063 
L 125.254844 124.579063 
C 125.254844 124.579063 125.254844 124.579063 125.254844 124.579063 
C 125.254844 124.579063 125.254844 124.579063 125.254844 124.579063 
z
" clip-path="url(#p72f023a9cb)" style="fill: #828282"/>
   </g>
   <g id="patch_119">
    <path d="M 125.254844 124.579063 
C 125.254844 124.579063 125.254844 124.579063 125.254844 124.579063 
C 125.254844 124.579063 125.254844 124.579063 125.254844 124.579063 
L 125.254844 124.579063 
C 125.254844 124.579063 125.254844 124.579063 125.254844 124.579063 
C 125.254844 124.579063 125.254844 124.579063 125.254844 124.579063 
z
" clip-path="url(#p72f023a9cb)" style="fill: #828282"/>
   </g>
   <g id="patch_120">
    <path d="M 118.499839 130.122752 
C 118.318386 129.90165 118.147897 129.671773 117.988989 129.433951 
C 117.830082 129.196129 117.682946 128.950648 117.548114 128.698395 
L 117.548114 128.698395 
C 117.682946 128.950648 117.830082 129.196129 117.988989 129.433951 
C 118.147897 129.671773 118.318386 129.90165 118.499839 130.122752 
z
" clip-path="url(#p72f023a9cb)" style="fill: #828282"/>
   </g>
   <g id="patch_121">
    <path d="M 108.022073 133.790171 
C 107.720579 133.226116 107.446961 132.647599 107.202207 132.05671 
C 106.957452 131.46582 106.741856 130.863269 106.556198 130.251235 
L 106.556198 130.251235 
C 106.741856 130.863269 106.957452 131.46582 107.202207 132.05671 
C 107.446961 132.647599 107.720579 133.226116 108.022073 133.790171 
z
" clip-path="url(#p72f023a9cb)" style="fill: #828282"/>
   </g>
   <g id="patch_122">
    <path d="M 98.810965 132.600725 
C 98.548404 131.735178 98.328497 130.857261 98.152039 129.970146 
C 97.975581 129.08303 97.842784 128.187786 97.754128 127.287647 
L 97.754128 127.287647 
C 97.842784 128.187786 97.975581 129.08303 98.152039 129.970146 
C 98.328497 130.857261 98.548404 131.735178 98.810965 132.600725 
z
" clip-path="url(#p72f023a9cb)" style="fill: #828282"/>
   </g>
   <g id="patch_123">
    <path d="M 125.254844 124.579063 
C 125.254844 124.579063 125.254844 124.579063 125.254844 124.579063 
C 125.254844 124.579063 125.254844 124.579063 125.254844 124.579063 
L 125.254844 124.579063 
C 125.254844 124.579063 125.254844 124.579063 125.254844 124.579063 
C 125.254844 124.579063 125.254844 124.579063 125.254844 124.579063 
z
" clip-path="url(#p72f023a9cb)" style="fill: #828282"/>
   </g>
   <g id="patch_124">
    <path d="M 46.986434 116.870297 
C 47.238753 114.308455 47.6167 111.760545 48.118909 109.235771 
C 48.621117 106.710997 49.246983 104.212401 49.994245 101.749009 
L 49.994245 101.749009 
C 49.246983 104.212401 48.621117 106.710997 48.118909 109.235771 
C 47.6167 111.760545 47.238753 114.308455 46.986434 116.870297 
z
" clip-path="url(#p72f023a9cb)" style="fill: #828282"/>
   </g>
   <g id="patch_125">
    <path d="M 55.792456 103.507878 
C 56.482148 101.23427 57.283051 98.995895 58.192274 96.800837 
C 59.101497 94.605778 60.117943 92.456684 61.237941 90.361315 
L 61.237941 90.361315 
C 60.117943 92.456684 59.101497 94.605778 58.192274 96.800837 
C 57.283051 98.995895 56.482148 101.23427 55.792456 103.507878 
z
" clip-path="url(#p72f023a9cb)" style="fill: #828282"/>
   </g>
   <g id="patch_126">
    <path d="M 58.95905 89.143222 
C 60.118918 86.973262 61.384626 84.861556 62.751602 82.815732 
C 64.118578 80.769907 65.585175 78.792431 67.146095 76.890444 
L 67.146095 76.890444 
C 65.585175 78.792431 64.118578 80.769907 62.751602 82.815732 
C 61.384626 84.861556 60.118918 86.973262 58.95905 89.143222 
z
" clip-path="url(#p72f023a9cb)" style="fill: #828282"/>
   </g>
   <g id="patch_127">
    <path d="M 115.701824 116.739102 
C 115.958438 116.426417 116.230249 116.12652 116.516275 115.840494 
C 116.802302 115.554467 117.102199 115.282657 117.414883 115.026043 
L 99.850468 93.623741 
C 98.837254 94.455264 97.865477 95.336032 96.938645 96.262864 
C 96.011814 97.189695 95.131046 98.161473 94.299523 99.174687 
z
" clip-path="url(#p72f023a9cb)" style="fill: #828282"/>
   </g>
   <g id="patch_128">
    <path d="M 115.652892 112.879051 
C 116.035851 112.564765 116.43401 112.26947 116.84593 111.994234 
C 117.25785 111.718997 117.683036 111.464151 118.11995 111.230615 
L 97.930282 73.458402 
C 96.257026 74.352776 94.62869 75.328763 93.051156 76.382838 
C 91.473622 77.436913 89.94879 78.567805 88.482169 79.771429 
z
" clip-path="url(#p72f023a9cb)" style="fill: #828282"/>
   </g>
   <g id="patch_129">
    <path d="M 75.651509 31.777751 
C 78.689035 30.154159 81.804443 28.680681 84.986482 27.362637 
C 88.168521 26.044594 91.413354 24.883574 94.709261 23.883771 
L 93.068077 18.473513 
C 89.595084 19.527034 86.175909 20.750434 82.822903 22.139295 
C 79.469896 23.528156 76.1871 25.080803 72.986371 26.791628 
z
" clip-path="url(#p72f023a9cb)" style="fill: #828282"/>
   </g>
   <g id="patch_130">
    <path d="M 118.08005 100.926938 
C 118.85422 100.692096 119.639452 100.495406 120.432912 100.337577 
C 121.226372 100.179748 122.027103 100.060971 122.832212 99.981674 
L 122.832212 99.981674 
C 122.027103 100.060971 121.226372 100.179748 120.432912 100.337577 
C 119.639452 100.495406 118.85422 100.692096 118.08005 100.926938 
z
" clip-path="url(#p72f023a9cb)" style="fill: #828282"/>
   </g>
   <g id="patch_131">
    <path d="M 125.254844 124.579063 
C 125.254844 124.579063 125.254844 124.579063 125.254844 124.579063 
C 125.254844 124.579063 125.254844 124.579063 125.254844 124.579063 
L 127.677475 99.981674 
C 126.872366 99.902378 126.063849 99.862658 125.254844 99.862658 
C 124.445839 99.862658 123.637322 99.902378 122.832212 99.981674 
L 125.254844 124.579063 
z
" clip-path="url(#p72f023a9cb)" style="fill: none; stroke: #292929; stroke-width: 0.5; stroke-linejoin: miter"/>
   </g>
   <g id="patch_132">
    <path d="M 125.254844 124.579063 
C 125.254844 124.579063 125.254844 124.579063 125.254844 124.579063 
C 125.254844 124.579063 125.254844 124.579063 125.254844 124.579063 
L 129.64849 110.095153 
C 129.17441 109.951343 128.693555 109.830895 128.207662 109.734245 
C 127.721769 109.637595 127.231423 109.564859 126.738396 109.5163 
L 125.254844 124.579063 
z
" clip-path="url(#p72f023a9cb)" style="fill: none; stroke: #292929; stroke-width: 0.5; stroke-linejoin: miter"/>
   </g>
   <g id="patch_133">
    <path d="M 125.254844 124.579063 
C 125.254844 124.579063 125.254844 124.579063 125.254844 124.579063 
C 125.254844 124.579063 125.254844 124.579063 125.254844 124.579063 
L 131.08046 113.680101 
C 130.723721 113.48942 130.357835 113.316369 129.984123 113.161572 
C 129.610412 113.006776 129.229325 112.870421 128.842241 112.753 
L 125.254844 124.579063 
z
" clip-path="url(#p72f023a9cb)" style="fill: none; stroke: #292929; stroke-width: 0.5; stroke-linejoin: miter"/>
   </g>
   <g id="patch_134">
    <path d="M 125.254844 124.579063 
C 125.254844 124.579063 125.254844 124.579063 125.254844 124.579063 
C 125.254844 124.579063 125.254844 124.579063 125.254844 124.579063 
L 130.798533 117.824058 
C 130.577432 117.642604 130.347555 117.472116 130.109732 117.313208 
C 129.87191 117.1543 129.626429 117.007165 129.374176 116.872333 
L 125.254844 124.579063 
z
" clip-path="url(#p72f023a9cb)" style="fill: none; stroke: #292929; stroke-width: 0.5; stroke-linejoin: miter"/>
   </g>
   <g id="patch_135">
    <path d="M 125.254844 124.579063 
C 125.254844 124.579063 125.254844 124.579063 125.254844 124.579063 
C 125.254844 124.579063 125.254844 124.579063 125.254844 124.579063 
L 140.359494 112.182997 
C 139.953752 111.688599 139.523981 111.21442 139.071734 110.762172 
C 138.619486 110.309925 138.145307 109.880154 137.65091 109.474412 
L 125.254844 124.579063 
z
" clip-path="url(#p72f023a9cb)" style="fill: none; stroke: #292929; stroke-width: 0.5; stroke-linejoin: miter"/>
   </g>
   <g id="patch_136">
    <path d="M 125.254844 124.579063 
C 125.254844 124.579063 125.254844 124.579063 125.254844 124.579063 
C 125.254844 124.579063 125.254844 124.579063 125.254844 124.579063 
L 140.668303 116.340397 
C 140.398639 115.835892 140.104368 115.34493 139.786552 114.869285 
C 139.468737 114.393641 139.12776 113.933887 138.764854 113.491684 
L 125.254844 124.579063 
z
" clip-path="url(#p72f023a9cb)" style="fill: none; stroke: #292929; stroke-width: 0.5; stroke-linejoin: miter"/>
   </g>
   <g id="patch_137">
    <path d="M 125.254844 124.579063 
C 125.254844 124.579063 125.254844 124.579063 125.254844 124.579063 
C 125.254844 124.579063 125.254844 124.579063 125.254844 124.579063 
L 125.254844 124.579063 
C 125.254844 124.579063 125.254844 124.579063 125.254844 124.579063 
C 125.254844 124.579063 125.254844 124.579063 125.254844 124.579063 
L 125.254844 124.579063 
z
" clip-path="url(#p72f023a9cb)" style="fill: none; stroke: #292929; stroke-width: 0.5; stroke-linejoin: miter"/>
   </g>
   <g id="patch_138">
    <path d="M 125.254844 124.579063 
C 125.254844 124.579063 125.254844 124.579063 125.254844 124.579063 
C 125.254844 124.579063 125.254844 124.579063 125.254844 124.579063 
L 125.254844 124.579063 
C 125.254844 124.579063 125.254844 124.579063 125.254844 124.579063 
C 125.254844 124.579063 125.254844 124.579063 125.254844 124.579063 
L 125.254844 124.579063 
z
" clip-path="url(#p72f023a9cb)" style="fill: none; stroke: #292929; stroke-width: 0.5; stroke-linejoin: miter"/>
   </g>
   <g id="patch_139">
    <path d="M 125.254844 124.579063 
C 125.254844 124.579063 125.254844 124.579063 125.254844 124.579063 
C 125.254844 124.579063 125.254844 124.579063 125.254844 124.579063 
L 125.254844 124.579063 
C 125.254844 124.579063 125.254844 124.579063 125.254844 124.579063 
C 125.254844 124.579063 125.254844 124.579063 125.254844 124.579063 
L 125.254844 124.579063 
z
" clip-path="url(#p72f023a9cb)" style="fill: none; stroke: #292929; stroke-width: 0.5; stroke-linejoin: miter"/>
   </g>
   <g id="patch_140">
    <path d="M 125.254844 124.579063 
C 125.254844 124.579063 125.254844 124.579063 125.254844 124.579063 
C 125.254844 124.579063 125.254844 124.579063 125.254844 124.579063 
L 125.254844 124.579063 
C 125.254844 124.579063 125.254844 124.579063 125.254844 124.579063 
C 125.254844 124.579063 125.254844 124.579063 125.254844 124.579063 
L 125.254844 124.579063 
z
" clip-path="url(#p72f023a9cb)" style="fill: none; stroke: #292929; stroke-width: 0.5; stroke-linejoin: miter"/>
   </g>
   <g id="patch_141">
    <path d="M 125.254844 124.579063 
C 125.254844 124.579063 125.254844 124.579063 125.254844 124.579063 
C 125.254844 124.579063 125.254844 124.579063 125.254844 124.579063 
L 125.254844 124.579063 
C 125.254844 124.579063 125.254844 124.579063 125.254844 124.579063 
C 125.254844 124.579063 125.254844 124.579063 125.254844 124.579063 
L 125.254844 124.579063 
z
" clip-path="url(#p72f023a9cb)" style="fill: none; stroke: #292929; stroke-width: 0.5; stroke-linejoin: miter"/>
   </g>
   <g id="patch_142">
    <path d="M 125.254844 124.579063 
C 125.254844 124.579063 125.254844 124.579063 125.254844 124.579063 
C 125.254844 124.579063 125.254844 124.579063 125.254844 124.579063 
L 125.254844 124.579063 
C 125.254844 124.579063 125.254844 124.579063 125.254844 124.579063 
C 125.254844 124.579063 125.254844 124.579063 125.254844 124.579063 
L 125.254844 124.579063 
z
" clip-path="url(#p72f023a9cb)" style="fill: none; stroke: #292929; stroke-width: 0.5; stroke-linejoin: miter"/>
   </g>
   <g id="patch_143">
    <path d="M 125.254844 124.579063 
C 125.254844 124.579063 125.254844 124.579063 125.254844 124.579063 
C 125.254844 124.579063 125.254844 124.579063 125.254844 124.579063 
L 125.254844 124.579063 
C 125.254844 124.579063 125.254844 124.579063 125.254844 124.579063 
C 125.254844 124.579063 125.254844 124.579063 125.254844 124.579063 
L 125.254844 124.579063 
z
" clip-path="url(#p72f023a9cb)" style="fill: none; stroke: #292929; stroke-width: 0.5; stroke-linejoin: miter"/>
   </g>
   <g id="patch_144">
    <path d="M 125.254844 124.579063 
C 125.254844 124.579063 125.254844 124.579063 125.254844 124.579063 
C 125.254844 124.579063 125.254844 124.579063 125.254844 124.579063 
L 125.254844 124.579063 
C 125.254844 124.579063 125.254844 124.579063 125.254844 124.579063 
C 125.254844 124.579063 125.254844 124.579063 125.254844 124.579063 
L 125.254844 124.579063 
z
" clip-path="url(#p72f023a9cb)" style="fill: none; stroke: #292929; stroke-width: 0.5; stroke-linejoin: miter"/>
   </g>
   <g id="patch_145">
    <path d="M 125.254844 124.579063 
C 125.254844 124.579063 125.254844 124.579063 125.254844 124.579063 
C 125.254844 124.579063 125.254844 124.579063 125.254844 124.579063 
L 125.254844 124.579063 
C 125.254844 124.579063 125.254844 124.579063 125.254844 124.579063 
C 125.254844 124.579063 125.254844 124.579063 125.254844 124.579063 
L 125.254844 124.579063 
z
" clip-path="url(#p72f023a9cb)" style="fill: none; stroke: #292929; stroke-width: 0.5; stroke-linejoin: miter"/>
   </g>
   <g id="patch_146">
    <path d="M 125.254844 124.579063 
C 125.254844 124.579063 125.254844 124.579063 125.254844 124.579063 
C 125.254844 124.579063 125.254844 124.579063 125.254844 124.579063 
L 125.254844 124.579063 
C 125.254844 124.579063 125.254844 124.579063 125.254844 124.579063 
C 125.254844 124.579063 125.254844 124.579063 125.254844 124.579063 
L 125.254844 124.579063 
z
" clip-path="url(#p72f023a9cb)" style="fill: none; stroke: #292929; stroke-width: 0.5; stroke-linejoin: miter"/>
   </g>
   <g id="patch_147">
    <path d="M 125.254844 124.579063 
C 125.254844 124.579063 125.254844 124.579063 125.254844 124.579063 
C 125.254844 124.579063 125.254844 124.579063 125.254844 124.579063 
L 125.254844 124.579063 
C 125.254844 124.579063 125.254844 124.579063 125.254844 124.579063 
C 125.254844 124.579063 125.254844 124.579063 125.254844 124.579063 
L 125.254844 124.579063 
z
" clip-path="url(#p72f023a9cb)" style="fill: none; stroke: #292929; stroke-width: 0.5; stroke-linejoin: miter"/>
   </g>
   <g id="patch_148">
    <path d="M 125.254844 124.579063 
C 125.254844 124.579063 125.254844 124.579063 125.254844 124.579063 
C 125.254844 124.579063 125.254844 124.579063 125.254844 124.579063 
L 125.254844 124.579063 
C 125.254844 124.579063 125.254844 124.579063 125.254844 124.579063 
C 125.254844 124.579063 125.254844 124.579063 125.254844 124.579063 
L 125.254844 124.579063 
z
" clip-path="url(#p72f023a9cb)" style="fill: none; stroke: #292929; stroke-width: 0.5; stroke-linejoin: miter"/>
   </g>
   <g id="patch_149">
    <path d="M 125.254844 124.579063 
C 125.254844 124.579063 125.254844 124.579063 125.254844 124.579063 
C 125.254844 124.579063 125.254844 124.579063 125.254844 124.579063 
L 125.254844 124.579063 
C 125.254844 124.579063 125.254844 124.579063 125.254844 124.579063 
C 125.254844 124.579063 125.254844 124.579063 125.254844 124.579063 
L 125.254844 124.579063 
z
" clip-path="url(#p72f023a9cb)" style="fill: none; stroke: #292929; stroke-width: 0.5; stroke-linejoin: miter"/>
   </g>
   <g id="patch_150">
    <path d="M 125.254844 124.579063 
C 125.254844 124.579063 125.254844 124.579063 125.254844 124.579063 
C 125.254844 124.579063 125.254844 124.579063 125.254844 124.579063 
L 125.254844 124.579063 
C 125.254844 124.579063 125.254844 124.579063 125.254844 124.579063 
C 125.254844 124.579063 125.254844 124.579063 125.254844 124.579063 
L 125.254844 124.579063 
z
" clip-path="url(#p72f023a9cb)" style="fill: none; stroke: #292929; stroke-width: 0.5; stroke-linejoin: miter"/>
   </g>
   <g id="patch_151">
    <path d="M 125.254844 124.579063 
C 125.254844 124.579063 125.254844 124.579063 125.254844 124.579063 
C 125.254844 124.579063 125.254844 124.579063 125.254844 124.579063 
L 125.254844 124.579063 
C 125.254844 124.579063 125.254844 124.579063 125.254844 124.579063 
C 125.254844 124.579063 125.254844 124.579063 125.254844 124.579063 
L 125.254844 124.579063 
z
" clip-path="url(#p72f023a9cb)" style="fill: none; stroke: #292929; stroke-width: 0.5; stroke-linejoin: miter"/>
   </g>
   <g id="patch_152">
    <path d="M 125.254844 124.579063 
C 125.254844 124.579063 125.254844 124.579063 125.254844 124.579063 
C 125.254844 124.579063 125.254844 124.579063 125.254844 124.579063 
L 117.548114 128.698395 
C 117.682946 128.950648 117.830082 129.196129 117.988989 129.433951 
C 118.147897 129.671773 118.318386 129.90165 118.499839 130.122752 
L 125.254844 124.579063 
z
" clip-path="url(#p72f023a9cb)" style="fill: none; stroke: #292929; stroke-width: 0.5; stroke-linejoin: miter"/>
   </g>
   <g id="patch_153">
    <path d="M 125.254844 124.579063 
C 125.254844 124.579063 125.254844 124.579063 125.254844 124.579063 
C 125.254844 124.579063 125.254844 124.579063 125.254844 124.579063 
L 106.556198 130.251235 
C 106.741856 130.863269 106.957452 131.46582 107.202207 132.05671 
C 107.446961 132.647599 107.720579 133.226116 108.022073 133.790171 
L 125.254844 124.579063 
z
" clip-path="url(#p72f023a9cb)" style="fill: none; stroke: #292929; stroke-width: 0.5; stroke-linejoin: miter"/>
   </g>
   <g id="patch_154">
    <path d="M 125.254844 124.579063 
C 125.254844 124.579063 125.254844 124.579063 125.254844 124.579063 
C 125.254844 124.579063 125.254844 124.579063 125.254844 124.579063 
L 97.754128 127.287647 
C 97.842784 128.187786 97.975581 129.08303 98.152039 129.970146 
C 98.328497 130.857261 98.548404 131.735178 98.810965 132.600725 
L 125.254844 124.579063 
z
" clip-path="url(#p72f023a9cb)" style="fill: none; stroke: #292929; stroke-width: 0.5; stroke-linejoin: miter"/>
   </g>
   <g id="patch_155">
    <path d="M 125.254844 124.579063 
C 125.254844 124.579063 125.254844 124.579063 125.254844 124.579063 
C 125.254844 124.579063 125.254844 124.579063 125.254844 124.579063 
L 125.254844 124.579063 
C 125.254844 124.579063 125.254844 124.579063 125.254844 124.579063 
C 125.254844 124.579063 125.254844 124.579063 125.254844 124.579063 
L 125.254844 124.579063 
z
" clip-path="url(#p72f023a9cb)" style="fill: none; stroke: #292929; stroke-width: 0.5; stroke-linejoin: miter"/>
   </g>
   <g id="patch_156">
    <path d="M 125.254844 124.579063 
C 125.254844 124.579063 125.254844 124.579063 125.254844 124.579063 
C 125.254844 124.579063 125.254844 124.579063 125.254844 124.579063 
L 49.994245 101.749009 
C 49.246983 104.212401 48.621117 106.710997 48.118909 109.235771 
C 47.6167 111.760545 47.238753 114.308455 46.986434 116.870297 
L 125.254844 124.579063 
z
" clip-path="url(#p72f023a9cb)" style="fill: none; stroke: #292929; stroke-width: 0.5; stroke-linejoin: miter"/>
   </g>
   <g id="patch_157">
    <path d="M 125.254844 124.579063 
C 125.254844 124.579063 125.254844 124.579063 125.254844 124.579063 
C 125.254844 124.579063 125.254844 124.579063 125.254844 124.579063 
L 61.237941 90.361315 
C 60.117943 92.456684 59.101497 94.605778 58.192274 96.800837 
C 57.283051 98.995895 56.482148 101.23427 55.792456 103.507878 
L 125.254844 124.579063 
z
" clip-path="url(#p72f023a9cb)" style="fill: none; stroke: #292929; stroke-width: 0.5; stroke-linejoin: miter"/>
   </g>
   <g id="patch_158">
    <path d="M 125.254844 124.579063 
C 125.254844 124.579063 125.254844 124.579063 125.254844 124.579063 
C 125.254844 124.579063 125.254844 124.579063 125.254844 124.579063 
L 67.146095 76.890444 
C 65.585175 78.792431 64.118578 80.769907 62.751602 82.815732 
C 61.384626 84.861556 60.118918 86.973262 58.95905 89.143222 
L 125.254844 124.579063 
z
" clip-path="url(#p72f023a9cb)" style="fill: none; stroke: #292929; stroke-width: 0.5; stroke-linejoin: miter"/>
   </g>
   <g id="patch_159">
    <path d="M 125.254844 124.579063 
C 125.254844 124.579063 125.254844 124.579063 125.254844 124.579063 
C 125.254844 124.579063 125.254844 124.579063 125.254844 124.579063 
L 99.850468 93.623741 
C 98.837254 94.455264 97.865477 95.336032 96.938645 96.262864 
C 96.011814 97.189695 95.131046 98.161473 94.299523 99.174687 
L 125.254844 124.579063 
z
" clip-path="url(#p72f023a9cb)" style="fill: none; stroke: #292929; stroke-width: 0.5; stroke-linejoin: miter"/>
   </g>
   <g id="patch_160">
    <path d="M 125.254844 124.579063 
C 125.254844 124.579063 125.254844 124.579063 125.254844 124.579063 
C 125.254844 124.579063 125.254844 124.579063 125.254844 124.579063 
L 97.930282 73.458402 
C 96.257026 74.352776 94.62869 75.328763 93.051156 76.382838 
C 91.473622 77.436913 89.94879 78.567805 88.482169 79.771429 
L 125.254844 124.579063 
z
" clip-path="url(#p72f023a9cb)" style="fill: none; stroke: #292929; stroke-width: 0.5; stroke-linejoin: miter"/>
   </g>
   <g id="patch_161">
    <path d="M 125.254844 124.579063 
C 125.254844 124.579063 125.254844 124.579063 125.254844 124.579063 
C 125.254844 124.579063 125.254844 124.579063 125.254844 124.579063 
L 93.068077 18.473513 
C 89.595084 19.527034 86.175909 20.750434 82.822903 22.139295 
C 79.469896 23.528156 76.1871 25.080803 72.986371 26.791628 
L 125.254844 124.579063 
z
" clip-path="url(#p72f023a9cb)" style="fill: none; stroke: #292929; stroke-width: 0.5; stroke-linejoin: miter"/>
   </g>
   <g id="patch_162">
    <path d="M 125.254844 124.579063 
C 125.254844 124.579063 125.254844 124.579063 125.254844 124.579063 
C 125.254844 124.579063 125.254844 124.579063 125.254844 124.579063 
L 122.832212 99.981674 
C 122.027103 100.060971 121.226372 100.179748 120.432912 100.337577 
C 119.639452 100.495406 118.85422 100.692096 118.08005 100.926938 
L 125.254844 124.579063 
z
" clip-path="url(#p72f023a9cb)" style="fill: none; stroke: #292929; stroke-width: 0.5; stroke-linejoin: miter"/>
   </g>
   <g id="PathCollection_1">
    <defs>
     <path id="m17be3efec8" d="M 0.193618 7.414054 
L 0.193618 7.414054 
C 0.054922 7.414054 -0.078235 7.358899 -0.176308 7.260826 
C -0.274381 7.162753 -0.329536 7.029596 -0.329536 6.890901 
L -0.329536 5.365008 
L -1.528416 6.56393 
L -1.528416 6.56393 
C -1.577018 6.612704 -1.634775 6.651408 -1.698366 6.677814 
C -1.761958 6.704221 -1.830141 6.717815 -1.898997 6.717815 
C -1.967853 6.717815 -2.036037 6.704221 -2.099628 6.677814 
C -2.163219 6.651408 -2.220976 6.612704 -2.269578 6.56393 
L -2.269578 6.56393 
C -2.318353 6.515327 -2.357056 6.457571 -2.383463 6.393979 
C -2.409869 6.330388 -2.423463 6.262205 -2.423463 6.193348 
C -2.423463 6.124492 -2.409869 6.056309 -2.383463 5.992718 
C -2.357056 5.929126 -2.318353 5.87137 -2.269578 5.822767 
L -0.329536 3.884106 
L -0.329536 0.820937 
L -2.98067 2.351538 
L -3.691824 5.001416 
L -3.691824 5.001416 
C -3.727584 5.135411 -3.815199 5.249836 -3.93523 5.319305 
C -4.055261 5.388775 -4.198123 5.407741 -4.332122 5.371997 
L -4.332122 5.371997 
C -4.466126 5.336237 -4.580558 5.248616 -4.650029 5.128576 
C -4.719499 5.008535 -4.73846 4.865662 -4.702703 4.731657 
L -4.262647 3.092721 
L -5.585535 3.855668 
L -5.585535 3.855668 
C -5.645013 3.890144 -5.710708 3.912561 -5.778854 3.921634 
C -5.847001 3.930706 -5.916272 3.926258 -5.982698 3.908543 
C -6.049125 3.890828 -6.111412 3.860192 -6.165991 3.818391 
C -6.220571 3.77659 -6.266379 3.724437 -6.300791 3.664922 
L -6.300791 3.664922 
C -6.335212 3.605364 -6.35755 3.539597 -6.366524 3.471396 
C -6.375498 3.403194 -6.370933 3.333888 -6.35309 3.267452 
C -6.335248 3.201017 -6.304476 3.138749 -6.26254 3.08422 
C -6.220605 3.029692 -6.168323 2.983966 -6.108695 2.949666 
L -4.785807 2.186762 
L -6.424743 1.746706 
L -6.424743 1.746706 
C -6.558747 1.710946 -6.673179 1.623325 -6.74265 1.503284 
C -6.81212 1.383244 -6.831081 1.240371 -6.795324 1.106366 
L -6.795324 1.106366 
C -6.777471 1.039969 -6.746703 0.977739 -6.704784 0.923241 
C -6.662864 0.868744 -6.61061 0.823041 -6.551015 0.788752 
C -6.491421 0.754464 -6.425647 0.732257 -6.357465 0.723406 
C -6.289282 0.714554 -6.220019 0.71923 -6.153645 0.737166 
L -3.505232 1.44698 
L -0.852424 -0.08496 
L -3.503767 -1.615666 
L -6.153645 -0.905851 
L -6.153645 -0.905851 
C -6.22011 -0.887939 -6.289462 -0.883321 -6.357716 -0.892262 
C -6.42597 -0.901202 -6.491793 -0.923527 -6.551403 -0.957953 
C -6.611013 -0.992379 -6.663247 -1.038234 -6.705103 -1.092883 
C -6.746958 -1.147533 -6.777619 -1.209911 -6.795324 -1.276432 
L -6.795324 -1.276432 
C -6.831068 -1.410431 -6.812101 -1.553293 -6.742632 -1.673324 
C -6.673162 -1.793355 -6.558738 -1.88097 -6.424743 -1.91673 
L -4.785807 -2.355447 
L -6.108695 -3.119732 
L -6.108695 -3.119732 
C -6.228699 -3.188976 -6.316415 -3.303132 -6.352417 -3.436921 
C -6.388419 -3.57071 -6.369839 -3.713469 -6.300791 -3.833586 
L -6.300791 -3.833586 
C -6.266491 -3.893214 -6.220765 -3.945496 -6.166237 -3.987431 
C -6.111708 -4.029367 -6.04944 -4.060139 -5.983005 -4.077981 
C -5.91657 -4.095823 -5.847263 -4.100389 -5.779062 -4.091415 
C -5.71086 -4.082441 -5.645094 -4.060102 -5.585535 -4.025682 
L -4.262647 -3.261396 
L -4.702703 -4.900332 
L -4.702703 -4.900332 
C -4.73846 -5.034337 -4.719499 -5.17721 -4.650029 -5.29725 
C -4.580558 -5.417291 -4.466126 -5.504912 -4.332122 -5.540672 
L -4.332122 -5.540672 
C -4.19831 -5.576464 -4.055613 -5.557686 -3.935617 -5.488496 
C -3.81562 -5.419305 -3.727882 -5.305212 -3.691824 -5.171472 
L -2.982009 -2.521594 
L -0.329411 -0.990302 
L -0.329411 -4.051588 
L -2.269453 -5.991589 
L -2.269453 -5.991589 
C -2.318227 -6.040191 -2.356931 -6.097947 -2.383337 -6.161539 
C -2.409744 -6.22513 -2.423338 -6.293314 -2.423338 -6.36217 
C -2.423338 -6.431026 -2.409744 -6.499209 -2.383337 -6.5628 
C -2.356931 -6.626392 -2.318227 -6.684149 -2.269453 -6.732751 
L -2.269453 -6.732751 
C -2.22085 -6.781526 -2.163094 -6.820229 -2.099502 -6.846635 
C -2.035911 -6.873042 -1.967728 -6.886636 -1.898871 -6.886636 
C -1.830015 -6.886636 -1.761832 -6.873042 -1.698241 -6.846635 
C -1.634649 -6.820229 -1.576893 -6.781526 -1.52829 -6.732751 
L -0.329411 -5.533829 
L -0.329411 -7.059722 
L -0.329411 -7.059722 
C -0.329411 -7.198418 -0.274255 -7.331575 -0.176182 -7.429647 
C -0.07811 -7.52772 0.055047 -7.582875 0.193743 -7.582875 
L 0.193743 -7.582875 
C 0.332439 -7.582875 0.465596 -7.52772 0.563669 -7.429647 
C 0.661741 -7.331575 0.716897 -7.198418 0.716897 -7.059722 
L 0.716897 -5.533829 
L 1.915777 -6.732751 
L 1.915777 -6.732751 
C 1.964379 -6.781526 2.022136 -6.820229 2.085727 -6.846635 
C 2.149318 -6.873042 2.217502 -6.886636 2.286358 -6.886636 
C 2.355214 -6.886636 2.423397 -6.873042 2.486989 -6.846635 
C 2.55058 -6.820229 2.608337 -6.781526 2.656939 -6.732751 
L 2.656939 -6.732751 
C 2.705714 -6.684149 2.744417 -6.626392 2.770823 -6.5628 
C 2.79723 -6.499209 2.810824 -6.431026 2.810824 -6.36217 
C 2.810824 -6.293314 2.79723 -6.22513 2.770823 -6.161539 
C 2.744417 -6.097947 2.705714 -6.040191 2.656939 -5.991589 
L 0.716897 -4.051588 
L 0.716897 -0.991139 
L 3.369495 -2.522954 
L 4.07931 -5.171367 
L 4.07931 -5.171367 
C 4.115368 -5.305107 4.203106 -5.4192 4.323103 -5.488391 
C 4.4431 -5.557582 4.585797 -5.576359 4.719608 -5.540567 
L 4.719608 -5.540567 
C 4.853612 -5.504807 4.968045 -5.417186 5.037515 -5.297146 
C 5.106986 -5.177105 5.125946 -5.034232 5.090189 -4.900227 
L 4.650133 -3.262673 
L 5.973022 -4.025577 
L 5.973022 -4.025577 
C 6.03258 -4.059998 6.098346 -4.082336 6.166548 -4.09131 
C 6.234749 -4.100284 6.304056 -4.095719 6.370491 -4.077876 
C 6.436926 -4.060034 6.499194 -4.029262 6.553723 -3.987327 
C 6.608252 -3.945391 6.653978 -3.893109 6.688277 -3.833481 
L 6.688277 -3.833481 
C 6.757325 -3.713365 6.775905 -3.570605 6.739903 -3.436816 
C 6.703901 -3.303027 6.616186 -3.188871 6.496181 -3.119628 
L 5.173293 -2.355342 
L 6.812229 -1.916625 
L 6.812229 -1.916625 
C 6.946224 -1.880865 7.060649 -1.79325 7.130118 -1.67322 
C 7.199588 -1.553189 7.218554 -1.410326 7.18281 -1.276327 
L 7.18281 -1.276327 
C 7.165106 -1.209806 7.134445 -1.147429 7.092589 -1.092779 
C 7.050733 -1.038129 6.998499 -0.992274 6.938889 -0.957848 
C 6.879279 -0.923422 6.813456 -0.901098 6.745202 -0.892157 
C 6.676949 -0.883217 6.607597 -0.887835 6.541131 -0.905746 
L 3.891253 -1.615561 
L 1.239492 -0.084604 
L 3.892718 1.447085 
L 6.541131 0.73727 
L 6.541131 0.73727 
C 6.674948 0.701466 6.817656 0.720237 6.937662 0.789429 
C 7.057669 0.858621 7.145413 0.972721 7.181471 1.10647 
L 7.181471 1.10647 
C 7.217274 1.240293 7.198497 1.383006 7.129297 1.503014 
C 7.060096 1.623021 6.945986 1.710762 6.812229 1.74681 
L 5.173293 2.186866 
L 6.496181 2.949771 
L 6.496181 2.949771 
C 6.555697 2.984183 6.607849 3.029991 6.649651 3.08457 
C 6.691452 3.13915 6.722088 3.201437 6.739803 3.267863 
C 6.757517 3.33429 6.761966 3.403561 6.752893 3.471707 
C 6.743821 3.539854 6.721404 3.605549 6.686927 3.665026 
L 6.686927 3.665026 
C 6.617458 3.784813 6.503196 3.87225 6.369416 3.907994 
C 6.235636 3.943739 6.092989 3.924946 5.973032 3.855772 
L 4.650144 3.091487 
L 5.08886 4.731783 
L 5.08886 4.731783 
C 5.124664 4.865606 5.105887 5.008319 5.036686 5.128326 
C 4.967486 5.248334 4.853376 5.336074 4.719619 5.372123 
L 4.719619 5.372123 
C 4.585619 5.407867 4.442757 5.3889 4.322726 5.319431 
C 4.202695 5.249961 4.115081 5.135537 4.07932 5.001542 
L 3.368166 2.351664 
L 0.717033 0.821063 
L 0.717033 3.884232 
L 2.657075 5.822893 
L 2.657075 5.822893 
C 2.70585 5.871495 2.744553 5.929252 2.770959 5.992843 
C 2.797366 6.056435 2.81096 6.124618 2.81096 6.193474 
C 2.81096 6.26233 2.797366 6.330514 2.770959 6.394105 
C 2.744553 6.457696 2.70585 6.515453 2.657075 6.564055 
L 2.657075 6.564055 
C 2.608473 6.61283 2.550716 6.651533 2.487125 6.67794 
C 2.423533 6.704346 2.35535 6.71794 2.286494 6.71794 
C 2.217638 6.71794 2.149454 6.704346 2.085863 6.67794 
C 2.022272 6.651533 1.964515 6.61283 1.915913 6.564055 
L 0.717033 5.365133 
L 0.717033 6.891026 
L 0.717033 6.891026 
C 0.717033 7.029722 0.661877 7.162879 0.563805 7.260952 
C 0.465732 7.359024 0.332575 7.41418 0.193879 7.41418 
L 0.193618 7.414054 
z
"/>
    </defs>
    <g clip-path="url(#p72f023a9cb)">
     <use xlink:href="#m17be3efec8" x="52.546842" y="59.591913" style="fill: #9e2096; fill-opacity: 0.7"/>
    </g>
   </g>
   <g id="patch_163">
    <path d="M 125.254844 13.699063 
C 110.694216 13.699063 96.275171 16.567189 82.822905 22.1393 
C 69.370638 27.711411 57.146763 35.879144 46.850844 46.175063 
C 36.554925 56.470982 28.387192 68.694857 22.815081 82.147124 
C 17.24297 95.59939 14.374844 110.018434 14.374844 124.579063 
C 14.374844 139.139691 17.24297 153.558735 22.815081 167.011001 
C 28.387192 180.463268 36.554925 192.687143 46.850844 202.983062 
C 57.146763 213.278981 69.370638 221.446714 82.822905 227.018825 
C 96.275171 232.590936 110.694216 235.459063 125.254844 235.459063 
C 139.815472 235.459063 154.234516 232.590936 167.686783 227.018825 
C 181.139049 221.446714 193.362925 213.278981 203.658844 202.983062 
C 213.954763 192.687143 222.122495 180.463268 227.694606 167.011001 
C 233.266717 153.558735 236.134844 139.139691 236.134844 124.579063 
C 236.134844 110.018434 233.266717 95.59939 227.694606 82.147124 
C 222.122495 68.694857 213.954763 56.470982 203.658844 46.175063 
C 193.362925 35.879144 181.139049 27.711411 167.686783 22.1393 
C 154.234516 16.567189 139.815472 13.699063 125.254844 13.699063 
" style="fill: none; stroke: #000000; stroke-width: 0.8; stroke-linejoin: miter; stroke-linecap: square"/>
   </g>
  </g>
 </g>
 <defs>
  <clipPath id="p72f023a9cb">
   <path d="M 236.134844 124.579063 
C 236.134844 110.018434 233.266717 95.59939 227.694606 82.147124 
C 222.122495 68.694857 213.954763 56.470982 203.658844 46.175063 
C 193.362925 35.879144 181.139049 27.711411 167.686783 22.1393 
C 154.234516 16.567189 139.815472 13.699063 125.254844 13.699063 
C 110.694216 13.699063 96.275171 16.567189 82.822905 22.1393 
C 69.370638 27.711411 57.146763 35.879144 46.850844 46.175063 
C 36.554925 56.470982 28.387192 68.694857 22.815081 82.147124 
C 17.24297 95.59939 14.374844 110.018434 14.374844 124.579062 
C 14.374844 139.139691 17.24297 153.558735 22.815081 167.011001 
C 28.387192 180.463268 36.554925 192.687143 46.850844 202.983062 
C 57.146763 213.278981 69.370638 221.446714 82.822905 227.018825 
C 96.275171 232.590936 110.694216 235.459063 125.254844 235.459063 
C 139.815472 235.459063 154.234516 232.590936 167.686783 227.018825 
C 181.139049 221.446714 193.362925 213.278981 203.658844 202.983062 
C 213.954763 192.687143 222.122495 180.463268 227.694606 167.011001 
C 233.266717 153.558735 236.134844 139.139691 236.134844 124.579063 
M 125.254844 124.579063 
C 125.254844 124.579063 125.254844 124.579063 125.254844 124.579063 
C 125.254844 124.579063 125.254844 124.579063 125.254844 124.579063 
C 125.254844 124.579063 125.254844 124.579063 125.254844 124.579063 
C 125.254844 124.579063 125.254844 124.579063 125.254844 124.579063 
C 125.254844 124.579063 125.254844 124.579063 125.254844 124.579063 
C 125.254844 124.579063 125.254844 124.579063 125.254844 124.579063 
C 125.254844 124.579063 125.254844 124.579063 125.254844 124.579063 
C 125.254844 124.579063 125.254844 124.579063 125.254844 124.579063 
C 125.254844 124.579063 125.254844 124.579063 125.254844 124.579063 
C 125.254844 124.579063 125.254844 124.579063 125.254844 124.579063 
C 125.254844 124.579063 125.254844 124.579063 125.254844 124.579063 
C 125.254844 124.579063 125.254844 124.579063 125.254844 124.579063 
C 125.254844 124.579063 125.254844 124.579063 125.254844 124.579063 
C 125.254844 124.579063 125.254844 124.579063 125.254844 124.579063 
C 125.254844 124.579063 125.254844 124.579063 125.254844 124.579063 
C 125.254844 124.579063 125.254844 124.579063 125.254844 124.579063 
z
"/>
  </clipPath>
 </defs>
</svg>
