<?xml version="1.0" encoding="utf-8" standalone="no"?>
<!DOCTYPE svg PUBLIC "-//W3C//DTD SVG 1.1//EN"
  "http://www.w3.org/Graphics/SVG/1.1/DTD/svg11.dtd">
<svg xmlns:xlink="http://www.w3.org/1999/xlink" width="248.410469pt" height="249.158125pt" viewBox="0 0 248.410469 249.158125" xmlns="http://www.w3.org/2000/svg" version="1.1">
 <title>Ski Rose for Le Champ du Feu</title>
 <metadata>
  <rdf:RDF xmlns:dc="http://purl.org/dc/elements/1.1/" xmlns:cc="http://creativecommons.org/ns#" xmlns:rdf="http://www.w3.org/1999/02/22-rdf-syntax-ns#">
   <cc:Work>
    <dc:type rdf:resource="http://purl.org/dc/dcmitype/StillImage"/>
    <dc:title>Ski Rose for Le Champ du Feu</dc:title>
    <dc:date>2026-02-28T10:15:59.172628</dc:date>
    <dc:description>A 32-bin stacked histogram of downhill ski run orientations colored by difficulty.</dc:description>
    <dc:format>image/svg+xml</dc:format>
    <dc:source>https://openskimap.org/?obj=072acf7d6df1a4c38de1b0d0d5c7e5147e80fe12</dc:source>
    <dc:creator>
     <cc:Agent>
      <dc:title>https://github.com/dhimmel/openskistats</dc:title>
     </cc:Agent>
    </dc:creator>
    <dc:rights>
     <cc:Agent>
      <dc:title>https://creativecommons.org/licenses/by/4.0/</dc:title>
     </cc:Agent>
    </dc:rights>
   </cc:Work>
  </rdf:RDF>
 </metadata>
 <defs>
  <style type="text/css">*{stroke-linejoin: round; stroke-linecap: butt}</style>
 </defs>
 <g id="figure_1">
  <g id="patch_1">
   <path d="M 0 249.158125 
L 248.410469 249.158125 
L 248.410469 0 
L 0 0 
z
" style="fill: #ffffff"/>
  </g>
  <g id="axes_1">
   <g id="patch_2">
    <path d="M 236.134844 124.579063 
C 236.134844 110.018434 233.266717 95.59939 227.694606 82.147124 
C 222.122495 68.694857 213.954763 56.470982 203.658844 46.175063 
C 193.362925 35.879144 181.139049 27.711411 167.686783 22.1393 
C 154.234516 16.567189 139.815472 13.699063 125.254844 13.699063 
C 110.694216 13.699063 96.275171 16.567189 82.822905 22.1393 
C 69.370638 27.711411 57.146763 35.879144 46.850844 46.175063 
C 36.554925 56.470982 28.387192 68.694857 22.815081 82.147124 
C 17.24297 95.59939 14.374844 110.018434 14.374844 124.579062 
C 14.374844 139.139691 17.24297 153.558735 22.815081 167.011001 
C 28.387192 180.463268 36.554925 192.687143 46.850844 202.983062 
C 57.146763 213.278981 69.370638 221.446714 82.822905 227.018825 
C 96.275171 232.590936 110.694216 235.459063 125.254844 235.459063 
C 139.815472 235.459063 154.234516 232.590936 167.686783 227.018825 
C 181.139049 221.446714 193.362925 213.278981 203.658844 202.983062 
C 213.954763 192.687143 222.122495 180.463268 227.694606 167.011001 
C 233.266717 153.558735 236.134844 139.139691 236.134844 124.579063 
M 125.254844 124.579063 
C 125.254844 124.579063 125.254844 124.579063 125.254844 124.579063 
C 125.254844 124.579063 125.254844 124.579063 125.254844 124.579063 
C 125.254844 124.579063 125.254844 124.579063 125.254844 124.579063 
C 125.254844 124.579063 125.254844 124.579063 125.254844 124.579063 
C 125.254844 124.579063 125.254844 124.579063 125.254844 124.579063 
C 125.254844 124.579063 125.254844 124.579063 125.254844 124.579063 
C 125.254844 124.579063 125.254844 124.579063 125.254844 124.579063 
C 125.254844 124.579063 125.254844 124.579063 125.254844 124.579063 
C 125.254844 124.579063 125.254844 124.579063 125.254844 124.579063 
C 125.254844 124.579063 125.254844 124.579063 125.254844 124.579063 
C 125.254844 124.579063 125.254844 124.579063 125.254844 124.579063 
C 125.254844 124.579063 125.254844 124.579063 125.254844 124.579063 
C 125.254844 124.579063 125.254844 124.579063 125.254844 124.579063 
C 125.254844 124.579063 125.254844 124.579063 125.254844 124.579063 
C 125.254844 124.579063 125.254844 124.579063 125.254844 124.579063 
C 125.254844 124.579063 125.254844 124.579063 125.254844 124.579063 
z
" style="fill: #ffffff"/>
   </g>
   <g id="FillBetweenPolyCollection_1">
    <defs>
     <path id="m7adf4a3c99" d="M 235.405074 -137.129096 
L 234.517945 -137.02802 
L 233.802781 -135.03104 
L 233.021771 -133.060504 
L 231.989216 -131.107216 
L 231.101213 -129.200415 
L 230.170539 -127.326377 
L 228.999862 -125.484432 
L 227.993106 -123.682479 
L 226.952621 -121.916012 
L 225.678118 -120.194488 
L 224.575808 -118.504332 
L 223.445196 -116.851314 
L 222.086346 -115.255249 
L 220.904163 -113.681199 
L 219.698175 -112.145362 
L 218.469758 -110.648 
L 217.220265 -109.189329 
L 215.754039 -107.806028 
L 214.467677 -106.428507 
L 213.164348 -105.089995 
L 211.845361 -103.790519 
L 210.512012 -102.53006 
L 209.165594 -101.308552 
L 207.807389 -100.125884 
L 206.624137 -98.923423 
L 205.244046 -97.81505 
L 203.855848 -96.744987 
L 202.460792 -95.712941 
L 201.060112 -94.718573 
L 199.828972 -93.689447 
L 198.418015 -92.76681 
L 197.173708 -91.803748 
L 195.756828 -90.951341 
L 194.503266 -90.053073 
L 193.084702 -89.269073 
L 191.825689 -88.434043 
L 190.563876 -87.62899 
L 189.148753 -86.942674 
L 187.886865 -86.198111 
L 186.624669 -85.482172 
L 185.362937 -84.794384 
L 184.10242 -84.134244 
L 182.843849 -83.501224 
L 181.587936 -82.894767 
L 180.335369 -82.314289 
L 179.086814 -81.75918 
L 177.84291 -81.228806 
L 176.604274 -80.722506 
L 175.371495 -80.239595 
L 174.255642 -79.678104 
L 173.032518 -79.239742 
L 171.816817 -78.822739 
L 170.708809 -78.324771 
L 169.505566 -77.948531 
L 168.403791 -77.490249 
L 167.214597 -77.152189 
L 166.120503 -76.731523 
L 164.946729 -76.428956 
L 163.861572 -76.043753 
L 162.77966 -75.67577 
L 161.629197 -75.421946 
L 160.557752 -75.086211 
L 159.490236 -74.766258 
L 158.364906 -74.555215 
L 157.308942 -74.264207 
L 156.257384 -73.987515 
L 155.210358 -73.724692 
L 154.167968 -73.475288 
L 153.130301 -73.238856 
L 152.054154 -73.098066 
L 151.028945 -72.884213 
L 150.008523 -72.681894 
L 148.992888 -72.490679 
L 147.982015 -72.310146 
L 146.975864 -72.139881 
L 145.974371 -71.979478 
L 144.977456 -71.82854 
L 143.985018 -71.686683 
L 142.996937 -71.553534 
L 142.031305 -71.370926 
L 141.049497 -71.257207 
L 140.071689 -71.151243 
L 139.097698 -71.052716 
L 138.127325 -70.96132 
L 137.160355 -70.876772 
L 136.196561 -70.798802 
L 135.242343 -70.691337 
L 134.282926 -70.62937 
L 133.326052 -70.573348 
L 132.371449 -70.523077 
L 131.418837 -70.478387 
L 130.467926 -70.439128 
L 129.519601 -70.390181 
L 128.570704 -70.365222 
L 127.622737 -70.345402 
L 126.675388 -70.330656 
L 125.728347 -70.320944 
L 124.781338 -70.320659 
L 123.834355 -70.33278 
L 122.887136 -70.349647 
L 121.939372 -70.371582 
L 120.990752 -70.398646 
L 120.04271 -70.448984 
L 119.09221 -70.490323 
L 118.140081 -70.537076 
L 117.186033 -70.589388 
L 116.229784 -70.647429 
L 115.271061 -70.71139 
L 114.317468 -70.820143 
L 113.354494 -70.900052 
L 112.388409 -70.986506 
L 111.418986 -71.079772 
L 110.44601 -71.180132 
L 109.469279 -71.287888 
L 108.488608 -71.403357 
L 107.523962 -71.587043 
L 106.537126 -71.721859 
L 105.545989 -71.865335 
L 104.550429 -72.017842 
L 103.550344 -72.179764 
L 102.545651 -72.351494 
L 101.536286 -72.533437 
L 100.522204 -72.726005 
L 99.503382 -72.929621 
L 98.479816 -73.144712 
L 97.451521 -73.371712 
L 96.369704 -73.524751 
L 95.329082 -73.7752 
L 94.283857 -74.039006 
L 93.234134 -74.316617 
L 92.180037 -74.60848 
L 91.056925 -74.820781 
L 89.991336 -75.141449 
L 88.921845 -75.477833 
L 87.848661 -75.830376 
L 86.693783 -76.101165 
L 85.610648 -76.486808 
L 84.439258 -76.790152 
L 83.347223 -77.211114 
L 82.160452 -77.549787 
L 81.060767 -78.008223 
L 79.859978 -78.384911 
L 78.754082 -78.882891 
L 77.540858 -79.30018 
L 76.320221 -79.738742 
L 75.206503 -80.300031 
L 73.976223 -80.782983 
L 72.740091 -81.289241 
L 71.498694 -81.819491 
L 70.252647 -82.374393 
L 69.002588 -82.954583 
L 67.749182 -83.560673 
L 66.493116 -84.193246 
L 65.235098 -84.852859 
L 63.97586 -85.540044 
L 62.716152 -86.255303 
L 61.456744 -86.99911 
L 60.198424 -87.771911 
L 58.785118 -88.488946 
L 57.528556 -89.322989 
L 56.275621 -90.187291 
L 54.861679 -91.003245 
L 53.61597 -91.931347 
L 52.205691 -92.816387 
L 50.971062 -93.809713 
L 49.568741 -94.765514 
L 48.170806 -95.758522 
L 46.778482 -96.789125 
L 45.575944 -97.918875 
L 44.200682 -99.022783 
L 42.834651 -100.165089 
L 41.479115 -101.345997 
L 40.135349 -102.565664 
L 38.804634 -103.824204 
L 37.488262 -105.12168 
L 36.187528 -106.458112 
L 34.903739 -107.833475 
L 33.638206 -109.247695 
L 32.392254 -110.700655 
L 31.167213 -112.192191 
L 29.764061 -113.699262 
L 28.584299 -115.270748 
L 27.429693 -116.880056 
L 26.301671 -118.526827 
L 24.999883 -120.201836 
L 23.929608 -121.925768 
L 22.890792 -123.685745 
L 21.684542 -125.482907 
L 20.715316 -127.316526 
L 19.784332 -129.184004 
L 18.698822 -131.096308 
L 17.858046 -133.031374 
L 17.0703 -134.996049 
L 16.163599 -137.00844 
L 15.517728 -139.026228 
L 15.346203 -139.04881 
L 15.346203 -139.04881 
L 15.120993 -137.12723 
L 15.010052 -135.194429 
L 14.759909 -133.275202 
L 14.633785 -131.344936 
L 14.540319 -129.412963 
L 14.479366 -127.47982 
L 14.450708 -125.546036 
L 14.539823 -123.612867 
L 14.487822 -121.678526 
L 14.556637 -119.745874 
L 14.656817 -117.814597 
L 14.78802 -115.885135 
L 14.949917 -113.957906 
L 15.233612 -112.043726 
L 15.377943 -110.113494 
L 15.633948 -108.19611 
L 15.919995 -106.282684 
L 16.236091 -104.373631 
L 16.677826 -102.488819 
L 17.055041 -100.591744 
L 17.46252 -98.700415 
L 17.997561 -96.840443 
L 18.466331 -94.963987 
L 18.965734 -93.094794 
L 19.556493 -91.252501 
L 20.116129 -89.400141 
L 20.804015 -87.591084 
L 21.425733 -85.758949 
L 22.174657 -83.974697 
L 22.818418 -82.148506 
L 23.62795 -80.390431 
L 24.375894 -78.605877 
L 25.210379 -76.8603 
L 26.02608 -75.105426 
L 26.958679 -73.409318 
L 27.820586 -71.676577 
L 28.817092 -70.017208 
L 29.771177 -68.334884 
L 30.717318 -66.646392 
L 31.764206 -65.018958 
L 32.80967 -63.390937 
L 33.875837 -61.776011 
L 34.98694 -60.191593 
L 36.135448 -58.634179 
L 37.861974 -57.520155 
L 39.611621 -56.455367 
L 41.438886 -55.486518 
L 43.274343 -54.5611 
L 45.062653 -53.631005 
L 46.855673 -52.739458 
L 48.705547 -51.936492 
L 50.499717 -51.117404 
L 52.292674 -50.332219 
L 54.083209 -49.579808 
L 55.870301 -48.859121 
L 57.653077 -48.169166 
L 59.430777 -47.508982 
L 61.20273 -46.877635 
L 62.926891 -46.222086 
L 64.687381 -45.646009 
L 66.440551 -45.096108 
L 68.153235 -44.525559 
L 69.892264 -44.026009 
L 71.589891 -43.500164 
L 73.285591 -43.003677 
L 75.001972 -42.573829 
L 76.681138 -42.117273 
L 78.357521 -41.688325 
L 80.024416 -41.274977 
L 81.688098 -40.888123 
L 83.34221 -40.515325 
L 84.992799 -40.167931 
L 86.633876 -39.833084 
L 88.271234 -39.522583 
L 89.899276 -39.223171 
L 91.508282 -38.908425 
L 93.127289 -38.650014 
L 94.737478 -38.400681 
L 96.332247 -38.138532 
L 97.933661 -37.927342 
L 99.527021 -37.723387 
L 101.10837 -37.509689 
L 102.693629 -37.341317 
L 104.266995 -37.158379 
L 105.841168 -37.009632 
L 107.407376 -36.855956 
L 108.970615 -36.717229 
L 110.534605 -36.614386 
L 112.091819 -36.503204 
L 113.648003 -36.416352 
L 115.200325 -36.33168 
L 116.750763 -36.260808 
L 118.300541 -36.216265 
L 119.847568 -36.170884 
L 121.393463 -36.1389 
L 122.938454 -36.119691 
L 124.482808 -36.112547 
L 126.026865 -36.114166 
L 127.571317 -36.116528 
L 129.11638 -36.135349 
L 130.662327 -36.167486 
L 132.20977 -36.208342 
L 133.758453 -36.265703 
L 135.30879 -36.336707 
L 136.86338 -36.403478 
L 138.418255 -36.500622 
L 139.975488 -36.611959 
L 141.538042 -36.722787 
L 143.101157 -36.861629 
L 144.667237 -37.015416 
L 146.243118 -37.156609 
L 147.816477 -37.339699 
L 149.399621 -37.51581 
L 150.980827 -37.7296 
L 152.576384 -37.926208 
L 154.175295 -38.144944 
L 155.769911 -38.407171 
L 157.382649 -38.649345 
L 158.998784 -38.91508 
L 160.60763 -39.229888 
L 162.238554 -39.522353 
L 163.872691 -39.839931 
L 165.516861 -40.167988 
L 167.16401 -40.522279 
L 168.821417 -40.888454 
L 170.481452 -41.282012 
L 172.151835 -41.688912 
L 173.824373 -42.124365 
L 175.533138 -42.532344 
L 177.22349 -43.004628 
L 178.915073 -43.5073 
L 180.647219 -43.982656 
L 182.355544 -44.526833 
L 184.102558 -45.050941 
L 185.816853 -45.653116 
L 187.57716 -46.229172 
L 189.305609 -46.879271 
L 191.077444 -47.5107 
L 192.855023 -48.170959 
L 194.637679 -48.860984 
L 196.424651 -49.581734 
L 198.215066 -50.334201 
L 200.007905 -51.119434 
L 201.801959 -51.938563 
L 203.646968 -52.745916 
L 205.439902 -53.637315 
L 207.287246 -54.516773 
L 209.068216 -55.48865 
L 210.890922 -56.46105 
L 212.64067 -57.52556 
L 214.384575 -58.626531 
L 215.51871 -60.194472 
L 216.621108 -61.784769 
L 217.668969 -63.411487 
L 218.765675 -65.006093 
L 219.783963 -66.651544 
L 220.742567 -68.332495 
L 221.711925 -70.006272 
L 222.625259 -71.71124 
L 223.599428 -73.384112 
L 224.44442 -75.124964 
L 225.302791 -76.858639 
L 226.08975 -78.625948 
L 226.882597 -80.390058 
L 227.628103 -82.17467 
L 228.416734 -83.942513 
L 229.076572 -85.761709 
L 229.736752 -87.580078 
L 230.295973 -89.432792 
L 230.932075 -91.259159 
L 231.566681 -93.088062 
L 231.996636 -94.976944 
L 232.544787 -96.831997 
L 233.050933 -98.699511 
L 233.501909 -100.581266 
L 233.761657 -102.503102 
L 234.146779 -104.397135 
L 234.491281 -106.299152 
L 234.795488 -108.208104 
L 235.0647 -110.122321 
L 235.296101 -112.041445 
L 235.488525 -113.964766 
L 235.642654 -115.891353 
L 235.768771 -117.819741 
L 236.024279 -119.742765 
L 236.080869 -121.676981 
L 236.090986 -123.61181 
L 236.065621 -125.546093 
L 236.005562 -127.479172 
L 235.924821 -129.411018 
L 235.797389 -131.340134 
L 235.637299 -133.26635 
L 235.618361 -135.205861 
L 235.405074 -137.129096 
z
" style="stroke: #ffee9c"/>
    </defs>
    <g clip-path="url(#pf2de427cd8)">
     <use xlink:href="#m7adf4a3c99" x="0" y="249.158125" style="fill: #ffee9c; stroke: #ffee9c"/>
    </g>
   </g>
   <g id="matplotlib.axis_1">
    <g id="xtick_1">
     <g id="line2d_1">
      <path d="M 125.254844 124.579063 
L 125.254844 13.699063 
" clip-path="url(#pf2de427cd8)" style="fill: none; stroke: #b0b0b0; stroke-width: 0.8; stroke-linecap: square"/>
     </g>
     <g id="text_1">
      <!-- N -->
      <g transform="translate(121.070469 7.958438) scale(0.1 -0.1)">
       <defs>
        <path id="DejaVuSans-Bold-4e" d="M 588 4666 
L 1931 4666 
L 3628 1466 
L 3628 4666 
L 4769 4666 
L 4769 0 
L 3425 0 
L 1728 3200 
L 1728 0 
L 588 0 
L 588 4666 
z
" transform="scale(0.015625)"/>
       </defs>
       <use xlink:href="#DejaVuSans-Bold-4e"/>
      </g>
     </g>
    </g>
    <g id="xtick_2">
     <g id="line2d_2">
      <path d="M 125.254844 124.579063 
L 203.658844 46.175063 
" clip-path="url(#pf2de427cd8)" style="fill: none; stroke: #b0b0b0; stroke-width: 0.8; stroke-linecap: square"/>
     </g>
    </g>
    <g id="xtick_3">
     <g id="line2d_3">
      <path d="M 125.254844 124.579063 
L 236.134844 124.579063 
" clip-path="url(#pf2de427cd8)" style="fill: none; stroke: #b0b0b0; stroke-width: 0.8; stroke-linecap: square"/>
     </g>
     <g id="text_2">
      <!-- E -->
      <g transform="translate(241.219219 127.338438) scale(0.1 -0.1)">
       <defs>
        <path id="DejaVuSans-Bold-45" d="M 588 4666 
L 3834 4666 
L 3834 3756 
L 1791 3756 
L 1791 2888 
L 3713 2888 
L 3713 1978 
L 1791 1978 
L 1791 909 
L 3903 909 
L 3903 0 
L 588 0 
L 588 4666 
z
" transform="scale(0.015625)"/>
       </defs>
       <use xlink:href="#DejaVuSans-Bold-45"/>
      </g>
     </g>
    </g>
    <g id="xtick_4">
     <g id="line2d_4">
      <path d="M 125.254844 124.579063 
L 203.658844 202.983062 
" clip-path="url(#pf2de427cd8)" style="fill: none; stroke: #b0b0b0; stroke-width: 0.8; stroke-linecap: square"/>
     </g>
    </g>
    <g id="xtick_5">
     <g id="line2d_5">
      <path d="M 125.254844 124.579063 
L 125.254844 235.459063 
" clip-path="url(#pf2de427cd8)" style="fill: none; stroke: #b0b0b0; stroke-width: 0.8; stroke-linecap: square"/>
     </g>
     <g id="text_3">
      <!-- S -->
      <g transform="translate(121.654063 246.718438) scale(0.1 -0.1)">
       <defs>
        <path id="DejaVuSans-Bold-53" d="M 3834 4519 
L 3834 3531 
Q 3450 3703 3084 3790 
Q 2719 3878 2394 3878 
Q 1963 3878 1756 3759 
Q 1550 3641 1550 3391 
Q 1550 3203 1689 3098 
Q 1828 2994 2194 2919 
L 2706 2816 
Q 3484 2659 3812 2340 
Q 4141 2022 4141 1434 
Q 4141 663 3683 286 
Q 3225 -91 2284 -91 
Q 1841 -91 1394 -6 
Q 947 78 500 244 
L 500 1259 
Q 947 1022 1364 901 
Q 1781 781 2169 781 
Q 2563 781 2772 912 
Q 2981 1044 2981 1288 
Q 2981 1506 2839 1625 
Q 2697 1744 2272 1838 
L 1806 1941 
Q 1106 2091 782 2419 
Q 459 2747 459 3303 
Q 459 4000 909 4375 
Q 1359 4750 2203 4750 
Q 2588 4750 2994 4692 
Q 3400 4634 3834 4519 
z
" transform="scale(0.015625)"/>
       </defs>
       <use xlink:href="#DejaVuSans-Bold-53"/>
      </g>
     </g>
    </g>
    <g id="xtick_6">
     <g id="line2d_6">
      <path d="M 125.254844 124.579063 
L 46.850844 202.983062 
" clip-path="url(#pf2de427cd8)" style="fill: none; stroke: #b0b0b0; stroke-width: 0.8; stroke-linecap: square"/>
     </g>
    </g>
    <g id="xtick_7">
     <g id="line2d_7">
      <path d="M 125.254844 124.579063 
L 14.374844 124.579063 
" clip-path="url(#pf2de427cd8)" style="fill: none; stroke: #b0b0b0; stroke-width: 0.8; stroke-linecap: square"/>
     </g>
     <g id="text_4">
      <!-- W -->
      <g transform="translate(0.36 127.338438) scale(0.1 -0.1)">
       <defs>
        <path id="DejaVuSans-Bold-57" d="M 191 4666 
L 1344 4666 
L 2150 1275 
L 2950 4666 
L 4109 4666 
L 4909 1275 
L 5716 4666 
L 6859 4666 
L 5759 0 
L 4372 0 
L 3525 3547 
L 2688 0 
L 1300 0 
L 191 4666 
z
" transform="scale(0.015625)"/>
       </defs>
       <use xlink:href="#DejaVuSans-Bold-57"/>
      </g>
     </g>
    </g>
    <g id="xtick_8">
     <g id="line2d_8">
      <path d="M 125.254844 124.579063 
L 46.850844 46.175063 
" clip-path="url(#pf2de427cd8)" style="fill: none; stroke: #b0b0b0; stroke-width: 0.8; stroke-linecap: square"/>
     </g>
    </g>
   </g>
   <g id="matplotlib.axis_2"/>
   <g id="patch_3">
    <path d="M 125.254844 124.579063 
C 125.254844 124.579063 125.254844 124.579063 125.254844 124.579063 
C 125.254844 124.579063 125.254844 124.579063 125.254844 124.579063 
L 125.254844 124.579063 
C 125.254844 124.579063 125.254844 124.579063 125.254844 124.579063 
C 125.254844 124.579063 125.254844 124.579063 125.254844 124.579063 
z
" clip-path="url(#pf2de427cd8)" style="fill: #d9d9d9"/>
   </g>
   <g id="patch_4">
    <path d="M 125.254844 124.579063 
C 125.254844 124.579063 125.254844 124.579063 125.254844 124.579063 
C 125.254844 124.579063 125.254844 124.579063 125.254844 124.579063 
L 125.254844 124.579063 
C 125.254844 124.579063 125.254844 124.579063 125.254844 124.579063 
C 125.254844 124.579063 125.254844 124.579063 125.254844 124.579063 
z
" clip-path="url(#pf2de427cd8)" style="fill: #d9d9d9"/>
   </g>
   <g id="patch_5">
    <path d="M 125.254844 124.579063 
C 125.254844 124.579063 125.254844 124.579063 125.254844 124.579063 
C 125.254844 124.579063 125.254844 124.579063 125.254844 124.579063 
L 125.254844 124.579063 
C 125.254844 124.579063 125.254844 124.579063 125.254844 124.579063 
C 125.254844 124.579063 125.254844 124.579063 125.254844 124.579063 
z
" clip-path="url(#pf2de427cd8)" style="fill: #d9d9d9"/>
   </g>
   <g id="patch_6">
    <path d="M 125.254844 124.579063 
C 125.254844 124.579063 125.254844 124.579063 125.254844 124.579063 
C 125.254844 124.579063 125.254844 124.579063 125.254844 124.579063 
L 125.254844 124.579063 
C 125.254844 124.579063 125.254844 124.579063 125.254844 124.579063 
C 125.254844 124.579063 125.254844 124.579063 125.254844 124.579063 
z
" clip-path="url(#pf2de427cd8)" style="fill: #d9d9d9"/>
   </g>
   <g id="patch_7">
    <path d="M 125.254844 124.579063 
C 125.254844 124.579063 125.254844 124.579063 125.254844 124.579063 
C 125.254844 124.579063 125.254844 124.579063 125.254844 124.579063 
L 125.254844 124.579063 
C 125.254844 124.579063 125.254844 124.579063 125.254844 124.579063 
C 125.254844 124.579063 125.254844 124.579063 125.254844 124.579063 
z
" clip-path="url(#pf2de427cd8)" style="fill: #d9d9d9"/>
   </g>
   <g id="patch_8">
    <path d="M 125.254844 124.579063 
C 125.254844 124.579063 125.254844 124.579063 125.254844 124.579063 
C 125.254844 124.579063 125.254844 124.579063 125.254844 124.579063 
L 125.254844 124.579063 
C 125.254844 124.579063 125.254844 124.579063 125.254844 124.579063 
C 125.254844 124.579063 125.254844 124.579063 125.254844 124.579063 
z
" clip-path="url(#pf2de427cd8)" style="fill: #d9d9d9"/>
   </g>
   <g id="patch_9">
    <path d="M 125.254844 124.579063 
C 125.254844 124.579063 125.254844 124.579063 125.254844 124.579063 
C 125.254844 124.579063 125.254844 124.579063 125.254844 124.579063 
L 125.254844 124.579063 
C 125.254844 124.579063 125.254844 124.579063 125.254844 124.579063 
C 125.254844 124.579063 125.254844 124.579063 125.254844 124.579063 
z
" clip-path="url(#pf2de427cd8)" style="fill: #d9d9d9"/>
   </g>
   <g id="patch_10">
    <path d="M 125.254844 124.579063 
C 125.254844 124.579063 125.254844 124.579063 125.254844 124.579063 
C 125.254844 124.579063 125.254844 124.579063 125.254844 124.579063 
L 125.254844 124.579063 
C 125.254844 124.579063 125.254844 124.579063 125.254844 124.579063 
C 125.254844 124.579063 125.254844 124.579063 125.254844 124.579063 
z
" clip-path="url(#pf2de427cd8)" style="fill: #d9d9d9"/>
   </g>
   <g id="patch_11">
    <path d="M 125.254844 124.579063 
C 125.254844 124.579063 125.254844 124.579063 125.254844 124.579063 
C 125.254844 124.579063 125.254844 124.579063 125.254844 124.579063 
L 125.254844 124.579063 
C 125.254844 124.579063 125.254844 124.579063 125.254844 124.579063 
C 125.254844 124.579063 125.254844 124.579063 125.254844 124.579063 
z
" clip-path="url(#pf2de427cd8)" style="fill: #d9d9d9"/>
   </g>
   <g id="patch_12">
    <path d="M 125.254844 124.579063 
C 125.254844 124.579063 125.254844 124.579063 125.254844 124.579063 
C 125.254844 124.579063 125.254844 124.579063 125.254844 124.579063 
L 125.254844 124.579063 
C 125.254844 124.579063 125.254844 124.579063 125.254844 124.579063 
C 125.254844 124.579063 125.254844 124.579063 125.254844 124.579063 
z
" clip-path="url(#pf2de427cd8)" style="fill: #d9d9d9"/>
   </g>
   <g id="patch_13">
    <path d="M 125.254844 124.579063 
C 125.254844 124.579063 125.254844 124.579063 125.254844 124.579063 
C 125.254844 124.579063 125.254844 124.579063 125.254844 124.579063 
L 125.254844 124.579063 
C 125.254844 124.579063 125.254844 124.579063 125.254844 124.579063 
C 125.254844 124.579063 125.254844 124.579063 125.254844 124.579063 
z
" clip-path="url(#pf2de427cd8)" style="fill: #d9d9d9"/>
   </g>
   <g id="patch_14">
    <path d="M 125.254844 124.579063 
C 125.254844 124.579063 125.254844 124.579063 125.254844 124.579063 
C 125.254844 124.579063 125.254844 124.579063 125.254844 124.579063 
L 125.254844 124.579063 
C 125.254844 124.579063 125.254844 124.579063 125.254844 124.579063 
C 125.254844 124.579063 125.254844 124.579063 125.254844 124.579063 
z
" clip-path="url(#pf2de427cd8)" style="fill: #d9d9d9"/>
   </g>
   <g id="patch_15">
    <path d="M 125.254844 124.579063 
C 125.254844 124.579063 125.254844 124.579063 125.254844 124.579063 
C 125.254844 124.579063 125.254844 124.579063 125.254844 124.579063 
L 125.254844 124.579063 
C 125.254844 124.579063 125.254844 124.579063 125.254844 124.579063 
C 125.254844 124.579063 125.254844 124.579063 125.254844 124.579063 
z
" clip-path="url(#pf2de427cd8)" style="fill: #d9d9d9"/>
   </g>
   <g id="patch_16">
    <path d="M 125.254844 124.579063 
C 125.254844 124.579063 125.254844 124.579063 125.254844 124.579063 
C 125.254844 124.579063 125.254844 124.579063 125.254844 124.579063 
L 125.254844 124.579063 
C 125.254844 124.579063 125.254844 124.579063 125.254844 124.579063 
C 125.254844 124.579063 125.254844 124.579063 125.254844 124.579063 
z
" clip-path="url(#pf2de427cd8)" style="fill: #d9d9d9"/>
   </g>
   <g id="patch_17">
    <path d="M 125.254844 124.579063 
C 125.254844 124.579063 125.254844 124.579063 125.254844 124.579063 
C 125.254844 124.579063 125.254844 124.579063 125.254844 124.579063 
L 125.254844 124.579063 
C 125.254844 124.579063 125.254844 124.579063 125.254844 124.579063 
C 125.254844 124.579063 125.254844 124.579063 125.254844 124.579063 
z
" clip-path="url(#pf2de427cd8)" style="fill: #d9d9d9"/>
   </g>
   <g id="patch_18">
    <path d="M 125.254844 124.579063 
C 125.254844 124.579063 125.254844 124.579063 125.254844 124.579063 
C 125.254844 124.579063 125.254844 124.579063 125.254844 124.579063 
L 125.254844 124.579063 
C 125.254844 124.579063 125.254844 124.579063 125.254844 124.579063 
C 125.254844 124.579063 125.254844 124.579063 125.254844 124.579063 
z
" clip-path="url(#pf2de427cd8)" style="fill: #d9d9d9"/>
   </g>
   <g id="patch_19">
    <path d="M 125.254844 124.579063 
C 125.254844 124.579063 125.254844 124.579063 125.254844 124.579063 
C 125.254844 124.579063 125.254844 124.579063 125.254844 124.579063 
L 125.254844 124.579063 
C 125.254844 124.579063 125.254844 124.579063 125.254844 124.579063 
C 125.254844 124.579063 125.254844 124.579063 125.254844 124.579063 
z
" clip-path="url(#pf2de427cd8)" style="fill: #d9d9d9"/>
   </g>
   <g id="patch_20">
    <path d="M 125.254844 124.579063 
C 125.254844 124.579063 125.254844 124.579063 125.254844 124.579063 
C 125.254844 124.579063 125.254844 124.579063 125.254844 124.579063 
L 125.254844 124.579063 
C 125.254844 124.579063 125.254844 124.579063 125.254844 124.579063 
C 125.254844 124.579063 125.254844 124.579063 125.254844 124.579063 
z
" clip-path="url(#pf2de427cd8)" style="fill: #d9d9d9"/>
   </g>
   <g id="patch_21">
    <path d="M 125.254844 124.579063 
C 125.254844 124.579063 125.254844 124.579063 125.254844 124.579063 
C 125.254844 124.579063 125.254844 124.579063 125.254844 124.579063 
L 125.254844 124.579063 
C 125.254844 124.579063 125.254844 124.579063 125.254844 124.579063 
C 125.254844 124.579063 125.254844 124.579063 125.254844 124.579063 
z
" clip-path="url(#pf2de427cd8)" style="fill: #d9d9d9"/>
   </g>
   <g id="patch_22">
    <path d="M 125.254844 124.579063 
C 125.254844 124.579063 125.254844 124.579063 125.254844 124.579063 
C 125.254844 124.579063 125.254844 124.579063 125.254844 124.579063 
L 125.254844 124.579063 
C 125.254844 124.579063 125.254844 124.579063 125.254844 124.579063 
C 125.254844 124.579063 125.254844 124.579063 125.254844 124.579063 
z
" clip-path="url(#pf2de427cd8)" style="fill: #d9d9d9"/>
   </g>
   <g id="patch_23">
    <path d="M 125.254844 124.579063 
C 125.254844 124.579063 125.254844 124.579063 125.254844 124.579063 
C 125.254844 124.579063 125.254844 124.579063 125.254844 124.579063 
L 125.254844 124.579063 
C 125.254844 124.579063 125.254844 124.579063 125.254844 124.579063 
C 125.254844 124.579063 125.254844 124.579063 125.254844 124.579063 
z
" clip-path="url(#pf2de427cd8)" style="fill: #d9d9d9"/>
   </g>
   <g id="patch_24">
    <path d="M 125.254844 124.579063 
C 125.254844 124.579063 125.254844 124.579063 125.254844 124.579063 
C 125.254844 124.579063 125.254844 124.579063 125.254844 124.579063 
L 125.254844 124.579063 
C 125.254844 124.579063 125.254844 124.579063 125.254844 124.579063 
C 125.254844 124.579063 125.254844 124.579063 125.254844 124.579063 
z
" clip-path="url(#pf2de427cd8)" style="fill: #d9d9d9"/>
   </g>
   <g id="patch_25">
    <path d="M 125.254844 124.579063 
C 125.254844 124.579063 125.254844 124.579063 125.254844 124.579063 
C 125.254844 124.579063 125.254844 124.579063 125.254844 124.579063 
L 123.091676 125.235252 
C 123.113154 125.306056 123.138095 125.375763 123.16641 125.44412 
C 123.194724 125.512478 123.226378 125.579404 123.261257 125.644657 
z
" clip-path="url(#pf2de427cd8)" style="fill: #d9d9d9"/>
   </g>
   <g id="patch_26">
    <path d="M 125.254844 124.579063 
C 125.254844 124.579063 125.254844 124.579063 125.254844 124.579063 
C 125.254844 124.579063 125.254844 124.579063 125.254844 124.579063 
L 125.254844 124.579063 
C 125.254844 124.579063 125.254844 124.579063 125.254844 124.579063 
C 125.254844 124.579063 125.254844 124.579063 125.254844 124.579063 
z
" clip-path="url(#pf2de427cd8)" style="fill: #d9d9d9"/>
   </g>
   <g id="patch_27">
    <path d="M 125.254844 124.579063 
C 125.254844 124.579063 125.254844 124.579063 125.254844 124.579063 
C 125.254844 124.579063 125.254844 124.579063 125.254844 124.579063 
L 125.254844 124.579063 
C 125.254844 124.579063 125.254844 124.579063 125.254844 124.579063 
C 125.254844 124.579063 125.254844 124.579063 125.254844 124.579063 
z
" clip-path="url(#pf2de427cd8)" style="fill: #d9d9d9"/>
   </g>
   <g id="patch_28">
    <path d="M 125.254844 124.579063 
C 125.254844 124.579063 125.254844 124.579063 125.254844 124.579063 
C 125.254844 124.579063 125.254844 124.579063 125.254844 124.579063 
L 122.195662 123.65107 
C 122.165288 123.751201 122.139847 123.852764 122.119434 123.955391 
C 122.09902 124.058017 122.083657 124.161584 122.073401 124.265718 
z
" clip-path="url(#pf2de427cd8)" style="fill: #d9d9d9"/>
   </g>
   <g id="patch_29">
    <path d="M 125.254844 124.579063 
C 125.254844 124.579063 125.254844 124.579063 125.254844 124.579063 
C 125.254844 124.579063 125.254844 124.579063 125.254844 124.579063 
L 125.254844 124.579063 
C 125.254844 124.579063 125.254844 124.579063 125.254844 124.579063 
C 125.254844 124.579063 125.254844 124.579063 125.254844 124.579063 
z
" clip-path="url(#pf2de427cd8)" style="fill: #d9d9d9"/>
   </g>
   <g id="patch_30">
    <path d="M 125.254844 124.579063 
C 125.254844 124.579063 125.254844 124.579063 125.254844 124.579063 
C 125.254844 124.579063 125.254844 124.579063 125.254844 124.579063 
L 125.254844 124.579063 
C 125.254844 124.579063 125.254844 124.579063 125.254844 124.579063 
C 125.254844 124.579063 125.254844 124.579063 125.254844 124.579063 
z
" clip-path="url(#pf2de427cd8)" style="fill: #d9d9d9"/>
   </g>
   <g id="patch_31">
    <path d="M 125.254844 124.579063 
C 125.254844 124.579063 125.254844 124.579063 125.254844 124.579063 
C 125.254844 124.579063 125.254844 124.579063 125.254844 124.579063 
L 125.254844 124.579063 
C 125.254844 124.579063 125.254844 124.579063 125.254844 124.579063 
C 125.254844 124.579063 125.254844 124.579063 125.254844 124.579063 
z
" clip-path="url(#pf2de427cd8)" style="fill: #d9d9d9"/>
   </g>
   <g id="patch_32">
    <path d="M 125.254844 124.579063 
C 125.254844 124.579063 125.254844 124.579063 125.254844 124.579063 
C 125.254844 124.579063 125.254844 124.579063 125.254844 124.579063 
L 125.254844 124.579063 
C 125.254844 124.579063 125.254844 124.579063 125.254844 124.579063 
C 125.254844 124.579063 125.254844 124.579063 125.254844 124.579063 
z
" clip-path="url(#pf2de427cd8)" style="fill: #d9d9d9"/>
   </g>
   <g id="patch_33">
    <path d="M 125.254844 124.579063 
C 125.254844 124.579063 125.254844 124.579063 125.254844 124.579063 
C 125.254844 124.579063 125.254844 124.579063 125.254844 124.579063 
L 125.254844 124.579063 
C 125.254844 124.579063 125.254844 124.579063 125.254844 124.579063 
C 125.254844 124.579063 125.254844 124.579063 125.254844 124.579063 
z
" clip-path="url(#pf2de427cd8)" style="fill: #d9d9d9"/>
   </g>
   <g id="patch_34">
    <path d="M 125.254844 124.579063 
C 125.254844 124.579063 125.254844 124.579063 125.254844 124.579063 
C 125.254844 124.579063 125.254844 124.579063 125.254844 124.579063 
L 125.254844 124.579063 
C 125.254844 124.579063 125.254844 124.579063 125.254844 124.579063 
C 125.254844 124.579063 125.254844 124.579063 125.254844 124.579063 
z
" clip-path="url(#pf2de427cd8)" style="fill: #d9d9d9"/>
   </g>
   <g id="patch_35">
    <path d="M 125.254844 124.579063 
C 125.254844 124.579063 125.254844 124.579063 125.254844 124.579063 
C 125.254844 124.579063 125.254844 124.579063 125.254844 124.579063 
L 130.558614 70.728975 
C 128.796021 70.555375 127.025966 70.468418 125.254844 70.468418 
C 123.483722 70.468418 121.713667 70.555375 119.951073 70.728975 
z
" clip-path="url(#pf2de427cd8)" style="fill: #a1a1d8"/>
   </g>
   <g id="patch_36">
    <path d="M 125.254844 124.579063 
C 125.254844 124.579063 125.254844 124.579063 125.254844 124.579063 
C 125.254844 124.579063 125.254844 124.579063 125.254844 124.579063 
L 134.67294 93.53176 
C 133.656715 93.223491 132.625968 92.965303 131.584422 92.758126 
C 130.542875 92.55095 129.491784 92.395035 128.434946 92.290946 
z
" clip-path="url(#pf2de427cd8)" style="fill: #a1a1d8"/>
   </g>
   <g id="patch_37">
    <path d="M 125.254844 124.579063 
C 125.254844 124.579063 125.254844 124.579063 125.254844 124.579063 
C 125.254844 124.579063 125.254844 124.579063 125.254844 124.579063 
L 135.307643 105.771599 
C 134.692046 105.442556 134.060666 105.143935 133.415782 104.876815 
C 132.770898 104.609696 132.113288 104.374399 131.445327 104.171775 
z
" clip-path="url(#pf2de427cd8)" style="fill: #a1a1d8"/>
   </g>
   <g id="patch_38">
    <path d="M 125.254844 124.579063 
C 125.254844 124.579063 125.254844 124.579063 125.254844 124.579063 
C 125.254844 124.579063 125.254844 124.579063 125.254844 124.579063 
L 140.226754 106.335737 
C 139.629623 105.845684 139.008791 105.385244 138.366502 104.95608 
C 137.724212 104.526916 137.061239 104.129545 136.379977 103.765403 
z
" clip-path="url(#pf2de427cd8)" style="fill: #a1a1d8"/>
   </g>
   <g id="patch_39">
    <path d="M 125.254844 124.579063 
C 125.254844 124.579063 125.254844 124.579063 125.254844 124.579063 
C 125.254844 124.579063 125.254844 124.579063 125.254844 124.579063 
L 131.050293 119.82286 
C 130.894615 119.633166 130.729718 119.45123 130.556197 119.277709 
C 130.382676 119.104188 130.20074 118.939291 130.011046 118.783613 
z
" clip-path="url(#pf2de427cd8)" style="fill: #a1a1d8"/>
   </g>
   <g id="patch_40">
    <path d="M 125.254844 124.579063 
C 125.254844 124.579063 125.254844 124.579063 125.254844 124.579063 
C 125.254844 124.579063 125.254844 124.579063 125.254844 124.579063 
L 128.074202 123.072084 
C 128.024876 122.979802 127.971049 122.889998 127.912916 122.802995 
C 127.854783 122.715993 127.792413 122.631897 127.726032 122.551011 
z
" clip-path="url(#pf2de427cd8)" style="fill: #a1a1d8"/>
   </g>
   <g id="patch_41">
    <path d="M 125.254844 124.579063 
C 125.254844 124.579063 125.254844 124.579063 125.254844 124.579063 
C 125.254844 124.579063 125.254844 124.579063 125.254844 124.579063 
L 125.254844 124.579063 
C 125.254844 124.579063 125.254844 124.579063 125.254844 124.579063 
C 125.254844 124.579063 125.254844 124.579063 125.254844 124.579063 
z
" clip-path="url(#pf2de427cd8)" style="fill: #a1a1d8"/>
   </g>
   <g id="patch_42">
    <path d="M 125.254844 124.579063 
C 125.254844 124.579063 125.254844 124.579063 125.254844 124.579063 
C 125.254844 124.579063 125.254844 124.579063 125.254844 124.579063 
L 127.504463 124.357494 
C 127.497211 124.283861 127.486348 124.210628 127.471913 124.13806 
C 127.457479 124.065492 127.43949 123.993676 127.418012 123.922873 
z
" clip-path="url(#pf2de427cd8)" style="fill: #a1a1d8"/>
   </g>
   <g id="patch_43">
    <path d="M 125.254844 124.579063 
C 125.254844 124.579063 125.254844 124.579063 125.254844 124.579063 
C 125.254844 124.579063 125.254844 124.579063 125.254844 124.579063 
L 125.254844 124.579063 
C 125.254844 124.579063 125.254844 124.579063 125.254844 124.579063 
C 125.254844 124.579063 125.254844 124.579063 125.254844 124.579063 
z
" clip-path="url(#pf2de427cd8)" style="fill: #a1a1d8"/>
   </g>
   <g id="patch_44">
    <path d="M 125.254844 124.579063 
C 125.254844 124.579063 125.254844 124.579063 125.254844 124.579063 
C 125.254844 124.579063 125.254844 124.579063 125.254844 124.579063 
L 125.254844 124.579063 
C 125.254844 124.579063 125.254844 124.579063 125.254844 124.579063 
C 125.254844 124.579063 125.254844 124.579063 125.254844 124.579063 
z
" clip-path="url(#pf2de427cd8)" style="fill: #a1a1d8"/>
   </g>
   <g id="patch_45">
    <path d="M 125.254844 124.579063 
C 125.254844 124.579063 125.254844 124.579063 125.254844 124.579063 
C 125.254844 124.579063 125.254844 124.579063 125.254844 124.579063 
L 125.254844 124.579063 
C 125.254844 124.579063 125.254844 124.579063 125.254844 124.579063 
C 125.254844 124.579063 125.254844 124.579063 125.254844 124.579063 
z
" clip-path="url(#pf2de427cd8)" style="fill: #a1a1d8"/>
   </g>
   <g id="patch_46">
    <path d="M 125.254844 124.579063 
C 125.254844 124.579063 125.254844 124.579063 125.254844 124.579063 
C 125.254844 124.579063 125.254844 124.579063 125.254844 124.579063 
L 125.254844 124.579063 
C 125.254844 124.579063 125.254844 124.579063 125.254844 124.579063 
C 125.254844 124.579063 125.254844 124.579063 125.254844 124.579063 
z
" clip-path="url(#pf2de427cd8)" style="fill: #a1a1d8"/>
   </g>
   <g id="patch_47">
    <path d="M 125.254844 124.579063 
C 125.254844 124.579063 125.254844 124.579063 125.254844 124.579063 
C 125.254844 124.579063 125.254844 124.579063 125.254844 124.579063 
L 125.254844 124.579063 
C 125.254844 124.579063 125.254844 124.579063 125.254844 124.579063 
C 125.254844 124.579063 125.254844 124.579063 125.254844 124.579063 
z
" clip-path="url(#pf2de427cd8)" style="fill: #a1a1d8"/>
   </g>
   <g id="patch_48">
    <path d="M 125.254844 124.579063 
C 125.254844 124.579063 125.254844 124.579063 125.254844 124.579063 
C 125.254844 124.579063 125.254844 124.579063 125.254844 124.579063 
L 125.254844 124.579063 
C 125.254844 124.579063 125.254844 124.579063 125.254844 124.579063 
C 125.254844 124.579063 125.254844 124.579063 125.254844 124.579063 
z
" clip-path="url(#pf2de427cd8)" style="fill: #a1a1d8"/>
   </g>
   <g id="patch_49">
    <path d="M 125.254844 124.579063 
C 125.254844 124.579063 125.254844 124.579063 125.254844 124.579063 
C 125.254844 124.579063 125.254844 124.579063 125.254844 124.579063 
L 125.254844 124.579063 
C 125.254844 124.579063 125.254844 124.579063 125.254844 124.579063 
C 125.254844 124.579063 125.254844 124.579063 125.254844 124.579063 
z
" clip-path="url(#pf2de427cd8)" style="fill: #a1a1d8"/>
   </g>
   <g id="patch_50">
    <path d="M 125.254844 124.579063 
C 125.254844 124.579063 125.254844 124.579063 125.254844 124.579063 
C 125.254844 124.579063 125.254844 124.579063 125.254844 124.579063 
L 125.254844 124.579063 
C 125.254844 124.579063 125.254844 124.579063 125.254844 124.579063 
C 125.254844 124.579063 125.254844 124.579063 125.254844 124.579063 
z
" clip-path="url(#pf2de427cd8)" style="fill: #a1a1d8"/>
   </g>
   <g id="patch_51">
    <path d="M 125.254844 124.579063 
C 125.254844 124.579063 125.254844 124.579063 125.254844 124.579063 
C 125.254844 124.579063 125.254844 124.579063 125.254844 124.579063 
L 125.254844 124.579063 
C 125.254844 124.579063 125.254844 124.579063 125.254844 124.579063 
C 125.254844 124.579063 125.254844 124.579063 125.254844 124.579063 
z
" clip-path="url(#pf2de427cd8)" style="fill: #a1a1d8"/>
   </g>
   <g id="patch_52">
    <path d="M 125.254844 124.579063 
C 125.254844 124.579063 125.254844 124.579063 125.254844 124.579063 
C 125.254844 124.579063 125.254844 124.579063 125.254844 124.579063 
L 125.254844 124.579063 
C 125.254844 124.579063 125.254844 124.579063 125.254844 124.579063 
C 125.254844 124.579063 125.254844 124.579063 125.254844 124.579063 
z
" clip-path="url(#pf2de427cd8)" style="fill: #a1a1d8"/>
   </g>
   <g id="patch_53">
    <path d="M 125.254844 124.579063 
C 125.254844 124.579063 125.254844 124.579063 125.254844 124.579063 
C 125.254844 124.579063 125.254844 124.579063 125.254844 124.579063 
L 125.254844 124.579063 
C 125.254844 124.579063 125.254844 124.579063 125.254844 124.579063 
C 125.254844 124.579063 125.254844 124.579063 125.254844 124.579063 
z
" clip-path="url(#pf2de427cd8)" style="fill: #a1a1d8"/>
   </g>
   <g id="patch_54">
    <path d="M 125.254844 124.579063 
C 125.254844 124.579063 125.254844 124.579063 125.254844 124.579063 
C 125.254844 124.579063 125.254844 124.579063 125.254844 124.579063 
L 123.820795 126.326456 
C 123.87799 126.373395 123.937454 126.417497 123.998975 126.458603 
C 124.060495 126.49971 124.123996 126.537771 124.189249 126.57265 
z
" clip-path="url(#pf2de427cd8)" style="fill: #a1a1d8"/>
   </g>
   <g id="patch_55">
    <path d="M 125.254844 124.579063 
C 125.254844 124.579063 125.254844 124.579063 125.254844 124.579063 
C 125.254844 124.579063 125.254844 124.579063 125.254844 124.579063 
L 125.254844 124.579063 
C 125.254844 124.579063 125.254844 124.579063 125.254844 124.579063 
C 125.254844 124.579063 125.254844 124.579063 125.254844 124.579063 
z
" clip-path="url(#pf2de427cd8)" style="fill: #a1a1d8"/>
   </g>
   <g id="patch_56">
    <path d="M 125.254844 124.579063 
C 125.254844 124.579063 125.254844 124.579063 125.254844 124.579063 
C 125.254844 124.579063 125.254844 124.579063 125.254844 124.579063 
L 125.254844 124.579063 
C 125.254844 124.579063 125.254844 124.579063 125.254844 124.579063 
C 125.254844 124.579063 125.254844 124.579063 125.254844 124.579063 
z
" clip-path="url(#pf2de427cd8)" style="fill: #a1a1d8"/>
   </g>
   <g id="patch_57">
    <path d="M 123.261257 125.644657 
C 123.226378 125.579404 123.194724 125.512478 123.16641 125.44412 
C 123.138095 125.375763 123.113154 125.306056 123.091676 125.235252 
L 109.21236 129.445497 
C 109.371646 129.970591 109.556616 130.487549 109.766603 130.994502 
C 109.97659 131.501455 110.21134 131.997793 110.470006 132.481723 
z
" clip-path="url(#pf2de427cd8)" style="fill: #a1a1d8"/>
   </g>
   <g id="patch_58">
    <path d="M 125.254844 124.579063 
C 125.254844 124.579063 125.254844 124.579063 125.254844 124.579063 
C 125.254844 124.579063 125.254844 124.579063 125.254844 124.579063 
L 96.621859 127.399165 
C 96.714165 128.336366 96.85243 129.268469 97.036153 130.192109 
C 97.219877 131.115749 97.448837 132.029812 97.722209 132.930996 
z
" clip-path="url(#pf2de427cd8)" style="fill: #a1a1d8"/>
   </g>
   <g id="patch_59">
    <path d="M 125.254844 124.579063 
C 125.254844 124.579063 125.254844 124.579063 125.254844 124.579063 
C 125.254844 124.579063 125.254844 124.579063 125.254844 124.579063 
L 105.643114 122.647476 
C 105.57989 123.289397 105.548221 123.934035 105.548221 124.579063 
C 105.548221 125.22409 105.57989 125.868728 105.643114 126.510649 
z
" clip-path="url(#pf2de427cd8)" style="fill: #a1a1d8"/>
   </g>
   <g id="patch_60">
    <path d="M 122.073401 124.265718 
C 122.083657 124.161584 122.09902 124.058017 122.119434 123.955391 
C 122.139847 123.852764 122.165288 123.751201 122.195662 123.65107 
L 116.335873 121.873522 
C 116.247317 122.165454 116.173147 122.461557 116.113631 122.760762 
C 116.054116 123.059968 116.009326 123.361915 115.979424 123.665513 
z
" clip-path="url(#pf2de427cd8)" style="fill: #a1a1d8"/>
   </g>
   <g id="patch_61">
    <path d="M 125.254844 124.579063 
C 125.254844 124.579063 125.254844 124.579063 125.254844 124.579063 
C 125.254844 124.579063 125.254844 124.579063 125.254844 124.579063 
L 86.90743 104.081943 
C 86.236529 105.337111 85.627657 106.624462 85.083014 107.939346 
C 84.538372 109.25423 84.058614 110.595062 83.645475 111.956999 
z
" clip-path="url(#pf2de427cd8)" style="fill: #a1a1d8"/>
   </g>
   <g id="patch_62">
    <path d="M 125.254844 124.579063 
C 125.254844 124.579063 125.254844 124.579063 125.254844 124.579063 
C 125.254844 124.579063 125.254844 124.579063 125.254844 124.579063 
L 90.968503 96.44099 
C 90.047502 97.563233 89.182155 98.730019 88.375588 99.937132 
C 87.569021 101.144245 86.822206 102.390231 86.13784 103.670589 
z
" clip-path="url(#pf2de427cd8)" style="fill: #a1a1d8"/>
   </g>
   <g id="patch_63">
    <path d="M 125.254844 124.579063 
C 125.254844 124.579063 125.254844 124.579063 125.254844 124.579063 
C 125.254844 124.579063 125.254844 124.579063 125.254844 124.579063 
L 93.96759 86.455433 
C 92.719747 87.479512 91.522935 88.564239 90.381477 89.705696 
C 89.24002 90.847154 88.155293 92.043965 87.131215 93.291809 
z
" clip-path="url(#pf2de427cd8)" style="fill: #a1a1d8"/>
   </g>
   <g id="patch_64">
    <path d="M 125.254844 124.579063 
C 125.254844 124.579063 125.254844 124.579063 125.254844 124.579063 
C 125.254844 124.579063 125.254844 124.579063 125.254844 124.579063 
L 95.743455 69.367138 
C 93.936286 70.33309 92.177632 71.387186 90.473846 72.52562 
C 88.770059 73.664054 87.123193 74.885453 85.539196 76.185406 
z
" clip-path="url(#pf2de427cd8)" style="fill: #a1a1d8"/>
   </g>
   <g id="patch_65">
    <path d="M 125.254844 124.579063 
C 125.254844 124.579063 125.254844 124.579063 125.254844 124.579063 
C 125.254844 124.579063 125.254844 124.579063 125.254844 124.579063 
L 106.202724 61.77264 
C 104.146976 62.396244 102.123084 63.120404 100.138359 63.942504 
C 98.153634 64.764604 96.210468 65.683654 94.31588 66.696332 
z
" clip-path="url(#pf2de427cd8)" style="fill: #a1a1d8"/>
   </g>
   <g id="patch_66">
    <path d="M 125.254844 124.579063 
C 125.254844 124.579063 125.254844 124.579063 125.254844 124.579063 
C 125.254844 124.579063 125.254844 124.579063 125.254844 124.579063 
L 117.634057 47.203917 
C 115.101453 47.453356 112.582622 47.82699 110.086663 48.323467 
C 107.590703 48.819944 105.120624 49.438667 102.685346 50.1774 
z
" clip-path="url(#pf2de427cd8)" style="fill: #a1a1d8"/>
   </g>
   <g id="patch_67">
    <path d="M 119.951073 70.728975 
C 121.713667 70.555375 123.483722 70.468418 125.254844 70.468418 
C 127.025966 70.468418 128.796021 70.555375 130.558614 70.728975 
L 131.191879 64.299329 
C 129.218834 64.105001 127.237436 64.007661 125.254844 64.007661 
C 123.272251 64.007661 121.290854 64.105001 119.317808 64.299329 
z
" clip-path="url(#pf2de427cd8)" style="fill: #ff8c8e"/>
   </g>
   <g id="patch_68">
    <path d="M 128.434946 92.290946 
C 129.491784 92.395035 130.542875 92.55095 131.584422 92.758126 
C 132.625968 92.965303 133.656715 93.223491 134.67294 93.53176 
L 136.467821 87.61483 
C 135.257927 87.247813 134.030742 86.940419 132.790699 86.693759 
C 131.550657 86.447099 130.299251 86.261471 129.041003 86.137544 
z
" clip-path="url(#pf2de427cd8)" style="fill: #ff8c8e"/>
   </g>
   <g id="patch_69">
    <path d="M 131.445327 104.171775 
C 132.113288 104.374399 132.770898 104.609696 133.415782 104.876815 
C 134.060666 105.143935 134.692046 105.442556 135.307643 105.771599 
L 137.863128 100.990621 
C 137.091043 100.577933 136.299162 100.203401 135.490344 99.868378 
C 134.681527 99.533355 133.856748 99.238244 133.018987 98.984112 
z
" clip-path="url(#pf2de427cd8)" style="fill: #ff8c8e"/>
   </g>
   <g id="patch_70">
    <path d="M 136.379977 103.765403 
C 137.061239 104.129545 137.724212 104.526916 138.366502 104.95608 
C 139.008791 105.385244 139.629623 105.845684 140.226754 106.335737 
L 141.287998 105.042607 
C 140.648541 104.517818 139.983703 104.024741 139.295887 103.565157 
C 138.60807 103.105572 137.898104 102.680035 137.168552 102.290081 
z
" clip-path="url(#pf2de427cd8)" style="fill: #ff8c8e"/>
   </g>
   <g id="patch_71">
    <path d="M 130.011046 118.783613 
C 130.20074 118.939291 130.382676 119.104188 130.556197 119.277709 
C 130.729718 119.45123 130.894615 119.633166 131.050293 119.82286 
L 131.050293 119.82286 
C 130.894615 119.633166 130.729718 119.45123 130.556197 119.277709 
C 130.382676 119.104188 130.20074 118.939291 130.011046 118.783613 
z
" clip-path="url(#pf2de427cd8)" style="fill: #ff8c8e"/>
   </g>
   <g id="patch_72">
    <path d="M 127.726032 122.551011 
C 127.792413 122.631897 127.854783 122.715993 127.912916 122.802995 
C 127.971049 122.889998 128.024876 122.979802 128.074202 123.072084 
L 128.074202 123.072084 
C 128.024876 122.979802 127.971049 122.889998 127.912916 122.802995 
C 127.854783 122.715993 127.792413 122.631897 127.726032 122.551011 
z
" clip-path="url(#pf2de427cd8)" style="fill: #ff8c8e"/>
   </g>
   <g id="patch_73">
    <path d="M 125.254844 124.579063 
C 125.254844 124.579063 125.254844 124.579063 125.254844 124.579063 
C 125.254844 124.579063 125.254844 124.579063 125.254844 124.579063 
L 125.254844 124.579063 
C 125.254844 124.579063 125.254844 124.579063 125.254844 124.579063 
C 125.254844 124.579063 125.254844 124.579063 125.254844 124.579063 
z
" clip-path="url(#pf2de427cd8)" style="fill: #ff8c8e"/>
   </g>
   <g id="patch_74">
    <path d="M 127.418012 123.922873 
C 127.43949 123.993676 127.457479 124.065492 127.471913 124.13806 
C 127.486348 124.210628 127.497211 124.283861 127.504463 124.357494 
L 127.504463 124.357494 
C 127.497211 124.283861 127.486348 124.210628 127.471913 124.13806 
C 127.457479 124.065492 127.43949 123.993676 127.418012 123.922873 
z
" clip-path="url(#pf2de427cd8)" style="fill: #ff8c8e"/>
   </g>
   <g id="patch_75">
    <path d="M 125.254844 124.579063 
C 125.254844 124.579063 125.254844 124.579063 125.254844 124.579063 
C 125.254844 124.579063 125.254844 124.579063 125.254844 124.579063 
L 125.254844 124.579063 
C 125.254844 124.579063 125.254844 124.579063 125.254844 124.579063 
C 125.254844 124.579063 125.254844 124.579063 125.254844 124.579063 
z
" clip-path="url(#pf2de427cd8)" style="fill: #ff8c8e"/>
   </g>
   <g id="patch_76">
    <path d="M 125.254844 124.579063 
C 125.254844 124.579063 125.254844 124.579063 125.254844 124.579063 
C 125.254844 124.579063 125.254844 124.579063 125.254844 124.579063 
L 125.254844 124.579063 
C 125.254844 124.579063 125.254844 124.579063 125.254844 124.579063 
C 125.254844 124.579063 125.254844 124.579063 125.254844 124.579063 
z
" clip-path="url(#pf2de427cd8)" style="fill: #ff8c8e"/>
   </g>
   <g id="patch_77">
    <path d="M 125.254844 124.579063 
C 125.254844 124.579063 125.254844 124.579063 125.254844 124.579063 
C 125.254844 124.579063 125.254844 124.579063 125.254844 124.579063 
L 125.254844 124.579063 
C 125.254844 124.579063 125.254844 124.579063 125.254844 124.579063 
C 125.254844 124.579063 125.254844 124.579063 125.254844 124.579063 
z
" clip-path="url(#pf2de427cd8)" style="fill: #ff8c8e"/>
   </g>
   <g id="patch_78">
    <path d="M 125.254844 124.579063 
C 125.254844 124.579063 125.254844 124.579063 125.254844 124.579063 
C 125.254844 124.579063 125.254844 124.579063 125.254844 124.579063 
L 125.254844 124.579063 
C 125.254844 124.579063 125.254844 124.579063 125.254844 124.579063 
C 125.254844 124.579063 125.254844 124.579063 125.254844 124.579063 
z
" clip-path="url(#pf2de427cd8)" style="fill: #ff8c8e"/>
   </g>
   <g id="patch_79">
    <path d="M 125.254844 124.579063 
C 125.254844 124.579063 125.254844 124.579063 125.254844 124.579063 
C 125.254844 124.579063 125.254844 124.579063 125.254844 124.579063 
L 125.254844 124.579063 
C 125.254844 124.579063 125.254844 124.579063 125.254844 124.579063 
C 125.254844 124.579063 125.254844 124.579063 125.254844 124.579063 
z
" clip-path="url(#pf2de427cd8)" style="fill: #ff8c8e"/>
   </g>
   <g id="patch_80">
    <path d="M 125.254844 124.579063 
C 125.254844 124.579063 125.254844 124.579063 125.254844 124.579063 
C 125.254844 124.579063 125.254844 124.579063 125.254844 124.579063 
L 125.254844 124.579063 
C 125.254844 124.579063 125.254844 124.579063 125.254844 124.579063 
C 125.254844 124.579063 125.254844 124.579063 125.254844 124.579063 
z
" clip-path="url(#pf2de427cd8)" style="fill: #ff8c8e"/>
   </g>
   <g id="patch_81">
    <path d="M 125.254844 124.579063 
C 125.254844 124.579063 125.254844 124.579063 125.254844 124.579063 
C 125.254844 124.579063 125.254844 124.579063 125.254844 124.579063 
L 125.254844 124.579063 
C 125.254844 124.579063 125.254844 124.579063 125.254844 124.579063 
C 125.254844 124.579063 125.254844 124.579063 125.254844 124.579063 
z
" clip-path="url(#pf2de427cd8)" style="fill: #ff8c8e"/>
   </g>
   <g id="patch_82">
    <path d="M 125.254844 124.579063 
C 125.254844 124.579063 125.254844 124.579063 125.254844 124.579063 
C 125.254844 124.579063 125.254844 124.579063 125.254844 124.579063 
L 125.254844 124.579063 
C 125.254844 124.579063 125.254844 124.579063 125.254844 124.579063 
C 125.254844 124.579063 125.254844 124.579063 125.254844 124.579063 
z
" clip-path="url(#pf2de427cd8)" style="fill: #ff8c8e"/>
   </g>
   <g id="patch_83">
    <path d="M 125.254844 124.579063 
C 125.254844 124.579063 125.254844 124.579063 125.254844 124.579063 
C 125.254844 124.579063 125.254844 124.579063 125.254844 124.579063 
L 125.254844 124.579063 
C 125.254844 124.579063 125.254844 124.579063 125.254844 124.579063 
C 125.254844 124.579063 125.254844 124.579063 125.254844 124.579063 
z
" clip-path="url(#pf2de427cd8)" style="fill: #ff8c8e"/>
   </g>
   <g id="patch_84">
    <path d="M 125.254844 124.579063 
C 125.254844 124.579063 125.254844 124.579063 125.254844 124.579063 
C 125.254844 124.579063 125.254844 124.579063 125.254844 124.579063 
L 125.254844 124.579063 
C 125.254844 124.579063 125.254844 124.579063 125.254844 124.579063 
C 125.254844 124.579063 125.254844 124.579063 125.254844 124.579063 
z
" clip-path="url(#pf2de427cd8)" style="fill: #ff8c8e"/>
   </g>
   <g id="patch_85">
    <path d="M 125.254844 124.579063 
C 125.254844 124.579063 125.254844 124.579063 125.254844 124.579063 
C 125.254844 124.579063 125.254844 124.579063 125.254844 124.579063 
L 125.254844 124.579063 
C 125.254844 124.579063 125.254844 124.579063 125.254844 124.579063 
C 125.254844 124.579063 125.254844 124.579063 125.254844 124.579063 
z
" clip-path="url(#pf2de427cd8)" style="fill: #ff8c8e"/>
   </g>
   <g id="patch_86">
    <path d="M 124.189249 126.57265 
C 124.123996 126.537771 124.060495 126.49971 123.998975 126.458603 
C 123.937454 126.417497 123.87799 126.373395 123.820795 126.326456 
L 123.820795 126.326456 
C 123.87799 126.373395 123.937454 126.417497 123.998975 126.458603 
C 124.060495 126.49971 124.123996 126.537771 124.189249 126.57265 
z
" clip-path="url(#pf2de427cd8)" style="fill: #ff8c8e"/>
   </g>
   <g id="patch_87">
    <path d="M 125.254844 124.579063 
C 125.254844 124.579063 125.254844 124.579063 125.254844 124.579063 
C 125.254844 124.579063 125.254844 124.579063 125.254844 124.579063 
L 125.254844 124.579063 
C 125.254844 124.579063 125.254844 124.579063 125.254844 124.579063 
C 125.254844 124.579063 125.254844 124.579063 125.254844 124.579063 
z
" clip-path="url(#pf2de427cd8)" style="fill: #ff8c8e"/>
   </g>
   <g id="patch_88">
    <path d="M 125.254844 124.579063 
C 125.254844 124.579063 125.254844 124.579063 125.254844 124.579063 
C 125.254844 124.579063 125.254844 124.579063 125.254844 124.579063 
L 125.254844 124.579063 
C 125.254844 124.579063 125.254844 124.579063 125.254844 124.579063 
C 125.254844 124.579063 125.254844 124.579063 125.254844 124.579063 
z
" clip-path="url(#pf2de427cd8)" style="fill: #ff8c8e"/>
   </g>
   <g id="patch_89">
    <path d="M 110.470006 132.481723 
C 110.21134 131.997793 109.97659 131.501455 109.766603 130.994502 
C 109.556616 130.487549 109.371646 129.970591 109.21236 129.445497 
L 107.156481 130.069141 
C 107.33618 130.661527 107.544854 131.244734 107.781752 131.816654 
C 108.018649 132.388575 108.283483 132.948519 108.575297 133.494466 
z
" clip-path="url(#pf2de427cd8)" style="fill: #ff8c8e"/>
   </g>
   <g id="patch_90">
    <path d="M 97.722209 132.930996 
C 97.448837 132.029812 97.219877 131.115749 97.036153 130.192109 
C 96.85243 129.268469 96.714165 128.336366 96.621859 127.399165 
L 96.357955 127.425158 
C 96.451112 128.370996 96.590651 129.31169 96.776068 130.243843 
C 96.961484 131.175996 97.192555 132.098484 97.468446 133.007974 
z
" clip-path="url(#pf2de427cd8)" style="fill: #ff8c8e"/>
   </g>
   <g id="patch_91">
    <path d="M 105.643114 126.510649 
C 105.57989 125.868728 105.548221 125.22409 105.548221 124.579063 
C 105.548221 123.934035 105.57989 123.289397 105.643114 122.647476 
L 97.794735 121.874478 
C 97.70621 122.773288 97.661868 123.675903 97.661868 124.579063 
C 97.661868 125.482222 97.70621 126.384837 97.794735 127.283647 
z
" clip-path="url(#pf2de427cd8)" style="fill: #ff8c8e"/>
   </g>
   <g id="patch_92">
    <path d="M 115.979424 123.665513 
C 116.009326 123.361915 116.054116 123.059968 116.113631 122.760762 
C 116.173147 122.461557 116.247317 122.165454 116.335873 121.873522 
L 101.459996 117.360974 
C 101.223737 118.139815 101.025859 118.929786 100.867078 119.728034 
C 100.708296 120.526282 100.588803 121.331845 100.509028 122.141812 
z
" clip-path="url(#pf2de427cd8)" style="fill: #ff8c8e"/>
   </g>
   <g id="patch_93">
    <path d="M 83.645475 111.956999 
C 84.058614 110.595062 84.538372 109.25423 85.083014 107.939346 
C 85.627657 106.624462 86.236529 105.337111 86.90743 104.081943 
L 79.4457 100.093565 
C 78.644253 101.592967 77.916905 103.130813 77.266285 104.701551 
C 76.615664 106.272288 76.042555 107.874022 75.549026 109.500968 
z
" clip-path="url(#pf2de427cd8)" style="fill: #ff8c8e"/>
   </g>
   <g id="patch_94">
    <path d="M 86.13784 103.670589 
C 86.822206 102.390231 87.569021 101.144245 88.375588 99.937132 
C 89.182155 98.730019 90.047502 97.563233 90.968503 96.44099 
L 71.538472 80.495175 
C 70.09554 82.253392 68.739802 84.081394 67.476154 85.972577 
C 66.212506 87.863759 65.042472 89.815844 63.970277 91.821779 
z
" clip-path="url(#pf2de427cd8)" style="fill: #ff8c8e"/>
   </g>
   <g id="patch_95">
    <path d="M 87.131215 93.291809 
C 88.155293 92.043965 89.24002 90.847154 90.381477 89.705696 
C 91.522935 88.564239 92.719747 87.479512 93.96759 86.455433 
L 56.360769 40.631389 
C 53.613036 42.886395 50.977674 45.274948 48.464201 47.78842 
C 45.950729 50.301893 43.562176 52.937255 41.30717 55.684987 
z
" clip-path="url(#pf2de427cd8)" style="fill: #ff8c8e"/>
   </g>
   <g id="patch_96">
    <path d="M 85.539196 76.185406 
C 87.123193 74.885453 88.770059 73.664054 90.473846 72.52562 
C 92.177632 71.387186 93.936286 70.33309 95.743455 69.367138 
L 72.986375 26.791636 
C 69.785647 28.502461 66.670844 30.369402 63.653218 32.385715 
C 60.635592 34.402028 57.718781 36.565283 54.913319 38.867666 
z
" clip-path="url(#pf2de427cd8)" style="fill: #ff8c8e"/>
   </g>
   <g id="patch_97">
    <path d="M 94.31588 66.696332 
C 96.210468 65.683654 98.153634 64.764604 100.138359 63.942504 
C 102.123084 63.120404 104.146976 62.396244 106.202724 61.77264 
L 99.806857 40.688292 
C 97.060987 41.521243 94.357667 42.488506 91.706662 43.586588 
C 89.055658 44.68467 86.460164 45.912248 83.929555 47.264886 
z
" clip-path="url(#pf2de427cd8)" style="fill: #ff8c8e"/>
   </g>
   <g id="patch_98">
    <path d="M 102.685346 50.1774 
C 105.120624 49.438667 107.590703 48.819944 110.086663 48.323467 
C 112.582622 47.82699 115.101453 47.453356 117.634057 47.203917 
L 116.22475 32.894985 
C 113.223793 33.190553 110.239157 33.633282 107.281621 34.221572 
C 104.324086 34.809863 101.397216 35.543005 98.511585 36.418352 
z
" clip-path="url(#pf2de427cd8)" style="fill: #ff8c8e"/>
   </g>
   <g id="patch_99">
    <path d="M 119.317808 64.299329 
C 121.290854 64.105001 123.272251 64.007661 125.254844 64.007661 
C 127.237436 64.007661 129.218834 64.105001 131.191879 64.299329 
L 131.191879 64.299329 
C 129.218834 64.105001 127.237436 64.007661 125.254844 64.007661 
C 123.272251 64.007661 121.290854 64.105001 119.317808 64.299329 
z
" clip-path="url(#pf2de427cd8)" style="fill: #828282"/>
   </g>
   <g id="patch_100">
    <path d="M 129.041003 86.137544 
C 130.299251 86.261471 131.550657 86.447099 132.790699 86.693759 
C 134.030742 86.940419 135.257927 87.247813 136.467821 87.61483 
L 136.467821 87.61483 
C 135.257927 87.247813 134.030742 86.940419 132.790699 86.693759 
C 131.550657 86.447099 130.299251 86.261471 129.041003 86.137544 
z
" clip-path="url(#pf2de427cd8)" style="fill: #828282"/>
   </g>
   <g id="patch_101">
    <path d="M 133.018987 98.984112 
C 133.856748 99.238244 134.681527 99.533355 135.490344 99.868378 
C 136.299162 100.203401 137.091043 100.577933 137.863128 100.990621 
L 137.863128 100.990621 
C 137.091043 100.577933 136.299162 100.203401 135.490344 99.868378 
C 134.681527 99.533355 133.856748 99.238244 133.018987 98.984112 
z
" clip-path="url(#pf2de427cd8)" style="fill: #828282"/>
   </g>
   <g id="patch_102">
    <path d="M 137.168552 102.290081 
C 137.898104 102.680035 138.60807 103.105572 139.295887 103.565157 
C 139.983703 104.024741 140.648541 104.517818 141.287998 105.042607 
L 141.287998 105.042607 
C 140.648541 104.517818 139.983703 104.024741 139.295887 103.565157 
C 138.60807 103.105572 137.898104 102.680035 137.168552 102.290081 
z
" clip-path="url(#pf2de427cd8)" style="fill: #828282"/>
   </g>
   <g id="patch_103">
    <path d="M 130.011046 118.783613 
C 130.20074 118.939291 130.382676 119.104188 130.556197 119.277709 
C 130.729718 119.45123 130.894615 119.633166 131.050293 119.82286 
L 131.050293 119.82286 
C 130.894615 119.633166 130.729718 119.45123 130.556197 119.277709 
C 130.382676 119.104188 130.20074 118.939291 130.011046 118.783613 
z
" clip-path="url(#pf2de427cd8)" style="fill: #828282"/>
   </g>
   <g id="patch_104">
    <path d="M 127.726032 122.551011 
C 127.792413 122.631897 127.854783 122.715993 127.912916 122.802995 
C 127.971049 122.889998 128.024876 122.979802 128.074202 123.072084 
L 128.074202 123.072084 
C 128.024876 122.979802 127.971049 122.889998 127.912916 122.802995 
C 127.854783 122.715993 127.792413 122.631897 127.726032 122.551011 
z
" clip-path="url(#pf2de427cd8)" style="fill: #828282"/>
   </g>
   <g id="patch_105">
    <path d="M 125.254844 124.579063 
C 125.254844 124.579063 125.254844 124.579063 125.254844 124.579063 
C 125.254844 124.579063 125.254844 124.579063 125.254844 124.579063 
L 125.254844 124.579063 
C 125.254844 124.579063 125.254844 124.579063 125.254844 124.579063 
C 125.254844 124.579063 125.254844 124.579063 125.254844 124.579063 
z
" clip-path="url(#pf2de427cd8)" style="fill: #828282"/>
   </g>
   <g id="patch_106">
    <path d="M 127.418012 123.922873 
C 127.43949 123.993676 127.457479 124.065492 127.471913 124.13806 
C 127.486348 124.210628 127.497211 124.283861 127.504463 124.357494 
L 127.504463 124.357494 
C 127.497211 124.283861 127.486348 124.210628 127.471913 124.13806 
C 127.457479 124.065492 127.43949 123.993676 127.418012 123.922873 
z
" clip-path="url(#pf2de427cd8)" style="fill: #828282"/>
   </g>
   <g id="patch_107">
    <path d="M 125.254844 124.579063 
C 125.254844 124.579063 125.254844 124.579063 125.254844 124.579063 
C 125.254844 124.579063 125.254844 124.579063 125.254844 124.579063 
L 125.254844 124.579063 
C 125.254844 124.579063 125.254844 124.579063 125.254844 124.579063 
C 125.254844 124.579063 125.254844 124.579063 125.254844 124.579063 
z
" clip-path="url(#pf2de427cd8)" style="fill: #828282"/>
   </g>
   <g id="patch_108">
    <path d="M 125.254844 124.579063 
C 125.254844 124.579063 125.254844 124.579063 125.254844 124.579063 
C 125.254844 124.579063 125.254844 124.579063 125.254844 124.579063 
L 125.254844 124.579063 
C 125.254844 124.579063 125.254844 124.579063 125.254844 124.579063 
C 125.254844 124.579063 125.254844 124.579063 125.254844 124.579063 
z
" clip-path="url(#pf2de427cd8)" style="fill: #828282"/>
   </g>
   <g id="patch_109">
    <path d="M 125.254844 124.579063 
C 125.254844 124.579063 125.254844 124.579063 125.254844 124.579063 
C 125.254844 124.579063 125.254844 124.579063 125.254844 124.579063 
L 125.254844 124.579063 
C 125.254844 124.579063 125.254844 124.579063 125.254844 124.579063 
C 125.254844 124.579063 125.254844 124.579063 125.254844 124.579063 
z
" clip-path="url(#pf2de427cd8)" style="fill: #828282"/>
   </g>
   <g id="patch_110">
    <path d="M 125.254844 124.579063 
C 125.254844 124.579063 125.254844 124.579063 125.254844 124.579063 
C 125.254844 124.579063 125.254844 124.579063 125.254844 124.579063 
L 125.254844 124.579063 
C 125.254844 124.579063 125.254844 124.579063 125.254844 124.579063 
C 125.254844 124.579063 125.254844 124.579063 125.254844 124.579063 
z
" clip-path="url(#pf2de427cd8)" style="fill: #828282"/>
   </g>
   <g id="patch_111">
    <path d="M 125.254844 124.579063 
C 125.254844 124.579063 125.254844 124.579063 125.254844 124.579063 
C 125.254844 124.579063 125.254844 124.579063 125.254844 124.579063 
L 125.254844 124.579063 
C 125.254844 124.579063 125.254844 124.579063 125.254844 124.579063 
C 125.254844 124.579063 125.254844 124.579063 125.254844 124.579063 
z
" clip-path="url(#pf2de427cd8)" style="fill: #828282"/>
   </g>
   <g id="patch_112">
    <path d="M 125.254844 124.579063 
C 125.254844 124.579063 125.254844 124.579063 125.254844 124.579063 
C 125.254844 124.579063 125.254844 124.579063 125.254844 124.579063 
L 125.254844 124.579063 
C 125.254844 124.579063 125.254844 124.579063 125.254844 124.579063 
C 125.254844 124.579063 125.254844 124.579063 125.254844 124.579063 
z
" clip-path="url(#pf2de427cd8)" style="fill: #828282"/>
   </g>
   <g id="patch_113">
    <path d="M 125.254844 124.579063 
C 125.254844 124.579063 125.254844 124.579063 125.254844 124.579063 
C 125.254844 124.579063 125.254844 124.579063 125.254844 124.579063 
L 125.254844 124.579063 
C 125.254844 124.579063 125.254844 124.579063 125.254844 124.579063 
C 125.254844 124.579063 125.254844 124.579063 125.254844 124.579063 
z
" clip-path="url(#pf2de427cd8)" style="fill: #828282"/>
   </g>
   <g id="patch_114">
    <path d="M 125.254844 124.579063 
C 125.254844 124.579063 125.254844 124.579063 125.254844 124.579063 
C 125.254844 124.579063 125.254844 124.579063 125.254844 124.579063 
L 125.254844 124.579063 
C 125.254844 124.579063 125.254844 124.579063 125.254844 124.579063 
C 125.254844 124.579063 125.254844 124.579063 125.254844 124.579063 
z
" clip-path="url(#pf2de427cd8)" style="fill: #828282"/>
   </g>
   <g id="patch_115">
    <path d="M 125.254844 124.579063 
C 125.254844 124.579063 125.254844 124.579063 125.254844 124.579063 
C 125.254844 124.579063 125.254844 124.579063 125.254844 124.579063 
L 125.254844 124.579063 
C 125.254844 124.579063 125.254844 124.579063 125.254844 124.579063 
C 125.254844 124.579063 125.254844 124.579063 125.254844 124.579063 
z
" clip-path="url(#pf2de427cd8)" style="fill: #828282"/>
   </g>
   <g id="patch_116">
    <path d="M 125.254844 124.579063 
C 125.254844 124.579063 125.254844 124.579063 125.254844 124.579063 
C 125.254844 124.579063 125.254844 124.579063 125.254844 124.579063 
L 125.254844 124.579063 
C 125.254844 124.579063 125.254844 124.579063 125.254844 124.579063 
C 125.254844 124.579063 125.254844 124.579063 125.254844 124.579063 
z
" clip-path="url(#pf2de427cd8)" style="fill: #828282"/>
   </g>
   <g id="patch_117">
    <path d="M 125.254844 124.579063 
C 125.254844 124.579063 125.254844 124.579063 125.254844 124.579063 
C 125.254844 124.579063 125.254844 124.579063 125.254844 124.579063 
L 125.254844 124.579063 
C 125.254844 124.579063 125.254844 124.579063 125.254844 124.579063 
C 125.254844 124.579063 125.254844 124.579063 125.254844 124.579063 
z
" clip-path="url(#pf2de427cd8)" style="fill: #828282"/>
   </g>
   <g id="patch_118">
    <path d="M 124.189249 126.57265 
C 124.123996 126.537771 124.060495 126.49971 123.998975 126.458603 
C 123.937454 126.417497 123.87799 126.373395 123.820795 126.326456 
L 123.820795 126.326456 
C 123.87799 126.373395 123.937454 126.417497 123.998975 126.458603 
C 124.060495 126.49971 124.123996 126.537771 124.189249 126.57265 
z
" clip-path="url(#pf2de427cd8)" style="fill: #828282"/>
   </g>
   <g id="patch_119">
    <path d="M 125.254844 124.579063 
C 125.254844 124.579063 125.254844 124.579063 125.254844 124.579063 
C 125.254844 124.579063 125.254844 124.579063 125.254844 124.579063 
L 125.254844 124.579063 
C 125.254844 124.579063 125.254844 124.579063 125.254844 124.579063 
C 125.254844 124.579063 125.254844 124.579063 125.254844 124.579063 
z
" clip-path="url(#pf2de427cd8)" style="fill: #828282"/>
   </g>
   <g id="patch_120">
    <path d="M 125.254844 124.579063 
C 125.254844 124.579063 125.254844 124.579063 125.254844 124.579063 
C 125.254844 124.579063 125.254844 124.579063 125.254844 124.579063 
L 125.254844 124.579063 
C 125.254844 124.579063 125.254844 124.579063 125.254844 124.579063 
C 125.254844 124.579063 125.254844 124.579063 125.254844 124.579063 
z
" clip-path="url(#pf2de427cd8)" style="fill: #828282"/>
   </g>
   <g id="patch_121">
    <path d="M 108.575297 133.494466 
C 108.283483 132.948519 108.018649 132.388575 107.781752 131.816654 
C 107.544854 131.244734 107.33618 130.661527 107.156481 130.069141 
L 107.156481 130.069141 
C 107.33618 130.661527 107.544854 131.244734 107.781752 131.816654 
C 108.018649 132.388575 108.283483 132.948519 108.575297 133.494466 
z
" clip-path="url(#pf2de427cd8)" style="fill: #828282"/>
   </g>
   <g id="patch_122">
    <path d="M 97.468446 133.007974 
C 97.192555 132.098484 96.961484 131.175996 96.776068 130.243843 
C 96.590651 129.31169 96.451112 128.370996 96.357955 127.425158 
L 96.357955 127.425158 
C 96.451112 128.370996 96.590651 129.31169 96.776068 130.243843 
C 96.961484 131.175996 97.192555 132.098484 97.468446 133.007974 
z
" clip-path="url(#pf2de427cd8)" style="fill: #828282"/>
   </g>
   <g id="patch_123">
    <path d="M 97.794735 127.283647 
C 97.70621 126.384837 97.661868 125.482222 97.661868 124.579063 
C 97.661868 123.675903 97.70621 122.773288 97.794735 121.874478 
L 97.794735 121.874478 
C 97.70621 122.773288 97.661868 123.675903 97.661868 124.579063 
C 97.661868 125.482222 97.70621 126.384837 97.794735 127.283647 
z
" clip-path="url(#pf2de427cd8)" style="fill: #828282"/>
   </g>
   <g id="patch_124">
    <path d="M 100.509028 122.141812 
C 100.588803 121.331845 100.708296 120.526282 100.867078 119.728034 
C 101.025859 118.929786 101.223737 118.139815 101.459996 117.360974 
L 101.459996 117.360974 
C 101.223737 118.139815 101.025859 118.929786 100.867078 119.728034 
C 100.708296 120.526282 100.588803 121.331845 100.509028 122.141812 
z
" clip-path="url(#pf2de427cd8)" style="fill: #828282"/>
   </g>
   <g id="patch_125">
    <path d="M 75.549026 109.500968 
C 76.042555 107.874022 76.615664 106.272288 77.266285 104.701551 
C 77.916905 103.130813 78.644253 101.592967 79.4457 100.093565 
L 79.4457 100.093565 
C 78.644253 101.592967 77.916905 103.130813 77.266285 104.701551 
C 76.615664 106.272288 76.042555 107.874022 75.549026 109.500968 
z
" clip-path="url(#pf2de427cd8)" style="fill: #828282"/>
   </g>
   <g id="patch_126">
    <path d="M 63.970277 91.821779 
C 65.042472 89.815844 66.212506 87.863759 67.476154 85.972577 
C 68.739802 84.081394 70.09554 82.253392 71.538472 80.495175 
L 71.538472 80.495175 
C 70.09554 82.253392 68.739802 84.081394 67.476154 85.972577 
C 66.212506 87.863759 65.042472 89.815844 63.970277 91.821779 
z
" clip-path="url(#pf2de427cd8)" style="fill: #828282"/>
   </g>
   <g id="patch_127">
    <path d="M 41.30717 55.684987 
C 43.562176 52.937255 45.950729 50.301893 48.464201 47.78842 
C 50.977674 45.274948 53.613036 42.886395 56.360769 40.631389 
L 56.360769 40.631389 
C 53.613036 42.886395 50.977674 45.274948 48.464201 47.78842 
C 45.950729 50.301893 43.562176 52.937255 41.30717 55.684987 
z
" clip-path="url(#pf2de427cd8)" style="fill: #828282"/>
   </g>
   <g id="patch_128">
    <path d="M 54.913319 38.867666 
C 57.718781 36.565283 60.635592 34.402028 63.653218 32.385715 
C 66.670844 30.369402 69.785647 28.502461 72.986375 26.791636 
L 72.986375 26.791636 
C 69.785647 28.502461 66.670844 30.369402 63.653218 32.385715 
C 60.635592 34.402028 57.718781 36.565283 54.913319 38.867666 
z
" clip-path="url(#pf2de427cd8)" style="fill: #828282"/>
   </g>
   <g id="patch_129">
    <path d="M 83.929555 47.264886 
C 86.460164 45.912248 89.055658 44.68467 91.706662 43.586588 
C 94.357667 42.488506 97.060987 41.521243 99.806857 40.688292 
L 99.806857 40.688292 
C 97.060987 41.521243 94.357667 42.488506 91.706662 43.586588 
C 89.055658 44.68467 86.460164 45.912248 83.929555 47.264886 
z
" clip-path="url(#pf2de427cd8)" style="fill: #828282"/>
   </g>
   <g id="patch_130">
    <path d="M 98.511585 36.418352 
C 101.397216 35.543005 104.324086 34.809863 107.281621 34.221572 
C 110.239157 33.633282 113.223793 33.190553 116.22475 32.894985 
L 116.22475 32.894985 
C 113.223793 33.190553 110.239157 33.633282 107.281621 34.221572 
C 104.324086 34.809863 101.397216 35.543005 98.511585 36.418352 
z
" clip-path="url(#pf2de427cd8)" style="fill: #828282"/>
   </g>
   <g id="patch_131">
    <path d="M 125.254844 124.579063 
C 125.254844 124.579063 125.254844 124.579063 125.254844 124.579063 
C 125.254844 124.579063 125.254844 124.579063 125.254844 124.579063 
L 131.191879 64.299329 
C 129.218834 64.105001 127.237436 64.007661 125.254844 64.007661 
C 123.272251 64.007661 121.290854 64.105001 119.317808 64.299329 
L 125.254844 124.579063 
z
" clip-path="url(#pf2de427cd8)" style="fill: none; stroke: #292929; stroke-width: 0.5; stroke-linejoin: miter"/>
   </g>
   <g id="patch_132">
    <path d="M 125.254844 124.579063 
C 125.254844 124.579063 125.254844 124.579063 125.254844 124.579063 
C 125.254844 124.579063 125.254844 124.579063 125.254844 124.579063 
L 136.467821 87.61483 
C 135.257927 87.247813 134.030742 86.940419 132.790699 86.693759 
C 131.550657 86.447099 130.299251 86.261471 129.041003 86.137544 
L 125.254844 124.579063 
z
" clip-path="url(#pf2de427cd8)" style="fill: none; stroke: #292929; stroke-width: 0.5; stroke-linejoin: miter"/>
   </g>
   <g id="patch_133">
    <path d="M 125.254844 124.579063 
C 125.254844 124.579063 125.254844 124.579063 125.254844 124.579063 
C 125.254844 124.579063 125.254844 124.579063 125.254844 124.579063 
L 137.863128 100.990621 
C 137.091043 100.577933 136.299162 100.203401 135.490344 99.868378 
C 134.681527 99.533355 133.856748 99.238244 133.018987 98.984112 
L 125.254844 124.579063 
z
" clip-path="url(#pf2de427cd8)" style="fill: none; stroke: #292929; stroke-width: 0.5; stroke-linejoin: miter"/>
   </g>
   <g id="patch_134">
    <path d="M 125.254844 124.579063 
C 125.254844 124.579063 125.254844 124.579063 125.254844 124.579063 
C 125.254844 124.579063 125.254844 124.579063 125.254844 124.579063 
L 141.287998 105.042607 
C 140.648541 104.517818 139.983703 104.024741 139.295887 103.565157 
C 138.60807 103.105572 137.898104 102.680035 137.168552 102.290081 
L 125.254844 124.579063 
z
" clip-path="url(#pf2de427cd8)" style="fill: none; stroke: #292929; stroke-width: 0.5; stroke-linejoin: miter"/>
   </g>
   <g id="patch_135">
    <path d="M 125.254844 124.579063 
C 125.254844 124.579063 125.254844 124.579063 125.254844 124.579063 
C 125.254844 124.579063 125.254844 124.579063 125.254844 124.579063 
L 131.050293 119.82286 
C 130.894615 119.633166 130.729718 119.45123 130.556197 119.277709 
C 130.382676 119.104188 130.20074 118.939291 130.011046 118.783613 
L 125.254844 124.579063 
z
" clip-path="url(#pf2de427cd8)" style="fill: none; stroke: #292929; stroke-width: 0.5; stroke-linejoin: miter"/>
   </g>
   <g id="patch_136">
    <path d="M 125.254844 124.579063 
C 125.254844 124.579063 125.254844 124.579063 125.254844 124.579063 
C 125.254844 124.579063 125.254844 124.579063 125.254844 124.579063 
L 128.074202 123.072084 
C 128.024876 122.979802 127.971049 122.889998 127.912916 122.802995 
C 127.854783 122.715993 127.792413 122.631897 127.726032 122.551011 
L 125.254844 124.579063 
z
" clip-path="url(#pf2de427cd8)" style="fill: none; stroke: #292929; stroke-width: 0.5; stroke-linejoin: miter"/>
   </g>
   <g id="patch_137">
    <path d="M 125.254844 124.579063 
C 125.254844 124.579063 125.254844 124.579063 125.254844 124.579063 
C 125.254844 124.579063 125.254844 124.579063 125.254844 124.579063 
L 125.254844 124.579063 
C 125.254844 124.579063 125.254844 124.579063 125.254844 124.579063 
C 125.254844 124.579063 125.254844 124.579063 125.254844 124.579063 
L 125.254844 124.579063 
z
" clip-path="url(#pf2de427cd8)" style="fill: none; stroke: #292929; stroke-width: 0.5; stroke-linejoin: miter"/>
   </g>
   <g id="patch_138">
    <path d="M 125.254844 124.579063 
C 125.254844 124.579063 125.254844 124.579063 125.254844 124.579063 
C 125.254844 124.579063 125.254844 124.579063 125.254844 124.579063 
L 127.504463 124.357494 
C 127.497211 124.283861 127.486348 124.210628 127.471913 124.13806 
C 127.457479 124.065492 127.43949 123.993676 127.418012 123.922873 
L 125.254844 124.579063 
z
" clip-path="url(#pf2de427cd8)" style="fill: none; stroke: #292929; stroke-width: 0.5; stroke-linejoin: miter"/>
   </g>
   <g id="patch_139">
    <path d="M 125.254844 124.579063 
C 125.254844 124.579063 125.254844 124.579063 125.254844 124.579063 
C 125.254844 124.579063 125.254844 124.579063 125.254844 124.579063 
L 125.254844 124.579063 
C 125.254844 124.579063 125.254844 124.579063 125.254844 124.579063 
C 125.254844 124.579063 125.254844 124.579063 125.254844 124.579063 
L 125.254844 124.579063 
z
" clip-path="url(#pf2de427cd8)" style="fill: none; stroke: #292929; stroke-width: 0.5; stroke-linejoin: miter"/>
   </g>
   <g id="patch_140">
    <path d="M 125.254844 124.579063 
C 125.254844 124.579063 125.254844 124.579063 125.254844 124.579063 
C 125.254844 124.579063 125.254844 124.579063 125.254844 124.579063 
L 125.254844 124.579063 
C 125.254844 124.579063 125.254844 124.579063 125.254844 124.579063 
C 125.254844 124.579063 125.254844 124.579063 125.254844 124.579063 
L 125.254844 124.579063 
z
" clip-path="url(#pf2de427cd8)" style="fill: none; stroke: #292929; stroke-width: 0.5; stroke-linejoin: miter"/>
   </g>
   <g id="patch_141">
    <path d="M 125.254844 124.579063 
C 125.254844 124.579063 125.254844 124.579063 125.254844 124.579063 
C 125.254844 124.579063 125.254844 124.579063 125.254844 124.579063 
L 125.254844 124.579063 
C 125.254844 124.579063 125.254844 124.579063 125.254844 124.579063 
C 125.254844 124.579063 125.254844 124.579063 125.254844 124.579063 
L 125.254844 124.579063 
z
" clip-path="url(#pf2de427cd8)" style="fill: none; stroke: #292929; stroke-width: 0.5; stroke-linejoin: miter"/>
   </g>
   <g id="patch_142">
    <path d="M 125.254844 124.579063 
C 125.254844 124.579063 125.254844 124.579063 125.254844 124.579063 
C 125.254844 124.579063 125.254844 124.579063 125.254844 124.579063 
L 125.254844 124.579063 
C 125.254844 124.579063 125.254844 124.579063 125.254844 124.579063 
C 125.254844 124.579063 125.254844 124.579063 125.254844 124.579063 
L 125.254844 124.579063 
z
" clip-path="url(#pf2de427cd8)" style="fill: none; stroke: #292929; stroke-width: 0.5; stroke-linejoin: miter"/>
   </g>
   <g id="patch_143">
    <path d="M 125.254844 124.579063 
C 125.254844 124.579063 125.254844 124.579063 125.254844 124.579063 
C 125.254844 124.579063 125.254844 124.579063 125.254844 124.579063 
L 125.254844 124.579063 
C 125.254844 124.579063 125.254844 124.579063 125.254844 124.579063 
C 125.254844 124.579063 125.254844 124.579063 125.254844 124.579063 
L 125.254844 124.579063 
z
" clip-path="url(#pf2de427cd8)" style="fill: none; stroke: #292929; stroke-width: 0.5; stroke-linejoin: miter"/>
   </g>
   <g id="patch_144">
    <path d="M 125.254844 124.579063 
C 125.254844 124.579063 125.254844 124.579063 125.254844 124.579063 
C 125.254844 124.579063 125.254844 124.579063 125.254844 124.579063 
L 125.254844 124.579063 
C 125.254844 124.579063 125.254844 124.579063 125.254844 124.579063 
C 125.254844 124.579063 125.254844 124.579063 125.254844 124.579063 
L 125.254844 124.579063 
z
" clip-path="url(#pf2de427cd8)" style="fill: none; stroke: #292929; stroke-width: 0.5; stroke-linejoin: miter"/>
   </g>
   <g id="patch_145">
    <path d="M 125.254844 124.579063 
C 125.254844 124.579063 125.254844 124.579063 125.254844 124.579063 
C 125.254844 124.579063 125.254844 124.579063 125.254844 124.579063 
L 125.254844 124.579063 
C 125.254844 124.579063 125.254844 124.579063 125.254844 124.579063 
C 125.254844 124.579063 125.254844 124.579063 125.254844 124.579063 
L 125.254844 124.579063 
z
" clip-path="url(#pf2de427cd8)" style="fill: none; stroke: #292929; stroke-width: 0.5; stroke-linejoin: miter"/>
   </g>
   <g id="patch_146">
    <path d="M 125.254844 124.579063 
C 125.254844 124.579063 125.254844 124.579063 125.254844 124.579063 
C 125.254844 124.579063 125.254844 124.579063 125.254844 124.579063 
L 125.254844 124.579063 
C 125.254844 124.579063 125.254844 124.579063 125.254844 124.579063 
C 125.254844 124.579063 125.254844 124.579063 125.254844 124.579063 
L 125.254844 124.579063 
z
" clip-path="url(#pf2de427cd8)" style="fill: none; stroke: #292929; stroke-width: 0.5; stroke-linejoin: miter"/>
   </g>
   <g id="patch_147">
    <path d="M 125.254844 124.579063 
C 125.254844 124.579063 125.254844 124.579063 125.254844 124.579063 
C 125.254844 124.579063 125.254844 124.579063 125.254844 124.579063 
L 125.254844 124.579063 
C 125.254844 124.579063 125.254844 124.579063 125.254844 124.579063 
C 125.254844 124.579063 125.254844 124.579063 125.254844 124.579063 
L 125.254844 124.579063 
z
" clip-path="url(#pf2de427cd8)" style="fill: none; stroke: #292929; stroke-width: 0.5; stroke-linejoin: miter"/>
   </g>
   <g id="patch_148">
    <path d="M 125.254844 124.579063 
C 125.254844 124.579063 125.254844 124.579063 125.254844 124.579063 
C 125.254844 124.579063 125.254844 124.579063 125.254844 124.579063 
L 125.254844 124.579063 
C 125.254844 124.579063 125.254844 124.579063 125.254844 124.579063 
C 125.254844 124.579063 125.254844 124.579063 125.254844 124.579063 
L 125.254844 124.579063 
z
" clip-path="url(#pf2de427cd8)" style="fill: none; stroke: #292929; stroke-width: 0.5; stroke-linejoin: miter"/>
   </g>
   <g id="patch_149">
    <path d="M 125.254844 124.579063 
C 125.254844 124.579063 125.254844 124.579063 125.254844 124.579063 
C 125.254844 124.579063 125.254844 124.579063 125.254844 124.579063 
L 125.254844 124.579063 
C 125.254844 124.579063 125.254844 124.579063 125.254844 124.579063 
C 125.254844 124.579063 125.254844 124.579063 125.254844 124.579063 
L 125.254844 124.579063 
z
" clip-path="url(#pf2de427cd8)" style="fill: none; stroke: #292929; stroke-width: 0.5; stroke-linejoin: miter"/>
   </g>
   <g id="patch_150">
    <path d="M 125.254844 124.579063 
C 125.254844 124.579063 125.254844 124.579063 125.254844 124.579063 
C 125.254844 124.579063 125.254844 124.579063 125.254844 124.579063 
L 123.820795 126.326456 
C 123.87799 126.373395 123.937454 126.417497 123.998975 126.458603 
C 124.060495 126.49971 124.123996 126.537771 124.189249 126.57265 
L 125.254844 124.579063 
z
" clip-path="url(#pf2de427cd8)" style="fill: none; stroke: #292929; stroke-width: 0.5; stroke-linejoin: miter"/>
   </g>
   <g id="patch_151">
    <path d="M 125.254844 124.579063 
C 125.254844 124.579063 125.254844 124.579063 125.254844 124.579063 
C 125.254844 124.579063 125.254844 124.579063 125.254844 124.579063 
L 125.254844 124.579063 
C 125.254844 124.579063 125.254844 124.579063 125.254844 124.579063 
C 125.254844 124.579063 125.254844 124.579063 125.254844 124.579063 
L 125.254844 124.579063 
z
" clip-path="url(#pf2de427cd8)" style="fill: none; stroke: #292929; stroke-width: 0.5; stroke-linejoin: miter"/>
   </g>
   <g id="patch_152">
    <path d="M 125.254844 124.579063 
C 125.254844 124.579063 125.254844 124.579063 125.254844 124.579063 
C 125.254844 124.579063 125.254844 124.579063 125.254844 124.579063 
L 125.254844 124.579063 
C 125.254844 124.579063 125.254844 124.579063 125.254844 124.579063 
C 125.254844 124.579063 125.254844 124.579063 125.254844 124.579063 
L 125.254844 124.579063 
z
" clip-path="url(#pf2de427cd8)" style="fill: none; stroke: #292929; stroke-width: 0.5; stroke-linejoin: miter"/>
   </g>
   <g id="patch_153">
    <path d="M 125.254844 124.579063 
C 125.254844 124.579063 125.254844 124.579063 125.254844 124.579063 
C 125.254844 124.579063 125.254844 124.579063 125.254844 124.579063 
L 107.156481 130.069141 
C 107.33618 130.661527 107.544854 131.244734 107.781752 131.816654 
C 108.018649 132.388575 108.283483 132.948519 108.575297 133.494466 
L 125.254844 124.579063 
z
" clip-path="url(#pf2de427cd8)" style="fill: none; stroke: #292929; stroke-width: 0.5; stroke-linejoin: miter"/>
   </g>
   <g id="patch_154">
    <path d="M 125.254844 124.579063 
C 125.254844 124.579063 125.254844 124.579063 125.254844 124.579063 
C 125.254844 124.579063 125.254844 124.579063 125.254844 124.579063 
L 96.357955 127.425158 
C 96.451112 128.370996 96.590651 129.31169 96.776068 130.243843 
C 96.961484 131.175996 97.192555 132.098484 97.468446 133.007974 
L 125.254844 124.579063 
z
" clip-path="url(#pf2de427cd8)" style="fill: none; stroke: #292929; stroke-width: 0.5; stroke-linejoin: miter"/>
   </g>
   <g id="patch_155">
    <path d="M 125.254844 124.579063 
C 125.254844 124.579063 125.254844 124.579063 125.254844 124.579063 
C 125.254844 124.579063 125.254844 124.579063 125.254844 124.579063 
L 97.794735 121.874478 
C 97.70621 122.773288 97.661868 123.675903 97.661868 124.579063 
C 97.661868 125.482222 97.70621 126.384837 97.794735 127.283647 
L 125.254844 124.579063 
z
" clip-path="url(#pf2de427cd8)" style="fill: none; stroke: #292929; stroke-width: 0.5; stroke-linejoin: miter"/>
   </g>
   <g id="patch_156">
    <path d="M 125.254844 124.579063 
C 125.254844 124.579063 125.254844 124.579063 125.254844 124.579063 
C 125.254844 124.579063 125.254844 124.579063 125.254844 124.579063 
L 101.459996 117.360974 
C 101.223737 118.139815 101.025859 118.929786 100.867078 119.728034 
C 100.708296 120.526282 100.588803 121.331845 100.509028 122.141812 
L 125.254844 124.579063 
z
" clip-path="url(#pf2de427cd8)" style="fill: none; stroke: #292929; stroke-width: 0.5; stroke-linejoin: miter"/>
   </g>
   <g id="patch_157">
    <path d="M 125.254844 124.579063 
C 125.254844 124.579063 125.254844 124.579063 125.254844 124.579063 
C 125.254844 124.579063 125.254844 124.579063 125.254844 124.579063 
L 79.4457 100.093565 
C 78.644253 101.592967 77.916905 103.130813 77.266285 104.701551 
C 76.615664 106.272288 76.042555 107.874022 75.549026 109.500968 
L 125.254844 124.579063 
z
" clip-path="url(#pf2de427cd8)" style="fill: none; stroke: #292929; stroke-width: 0.5; stroke-linejoin: miter"/>
   </g>
   <g id="patch_158">
    <path d="M 125.254844 124.579063 
C 125.254844 124.579063 125.254844 124.579063 125.254844 124.579063 
C 125.254844 124.579063 125.254844 124.579063 125.254844 124.579063 
L 71.538472 80.495175 
C 70.09554 82.253392 68.739802 84.081394 67.476154 85.972577 
C 66.212506 87.863759 65.042472 89.815844 63.970277 91.821779 
L 125.254844 124.579063 
z
" clip-path="url(#pf2de427cd8)" style="fill: none; stroke: #292929; stroke-width: 0.5; stroke-linejoin: miter"/>
   </g>
   <g id="patch_159">
    <path d="M 125.254844 124.579063 
C 125.254844 124.579063 125.254844 124.579063 125.254844 124.579063 
C 125.254844 124.579063 125.254844 124.579063 125.254844 124.579063 
L 56.360769 40.631389 
C 53.613036 42.886395 50.977674 45.274948 48.464201 47.78842 
C 45.950729 50.301893 43.562176 52.937255 41.30717 55.684987 
L 125.254844 124.579063 
z
" clip-path="url(#pf2de427cd8)" style="fill: none; stroke: #292929; stroke-width: 0.5; stroke-linejoin: miter"/>
   </g>
   <g id="patch_160">
    <path d="M 125.254844 124.579063 
C 125.254844 124.579063 125.254844 124.579063 125.254844 124.579063 
C 125.254844 124.579063 125.254844 124.579063 125.254844 124.579063 
L 72.986375 26.791636 
C 69.785647 28.502461 66.670844 30.369402 63.653218 32.385715 
C 60.635592 34.402028 57.718781 36.565283 54.913319 38.867666 
L 125.254844 124.579063 
z
" clip-path="url(#pf2de427cd8)" style="fill: none; stroke: #292929; stroke-width: 0.5; stroke-linejoin: miter"/>
   </g>
   <g id="patch_161">
    <path d="M 125.254844 124.579063 
C 125.254844 124.579063 125.254844 124.579063 125.254844 124.579063 
C 125.254844 124.579063 125.254844 124.579063 125.254844 124.579063 
L 99.806857 40.688292 
C 97.060987 41.521243 94.357667 42.488506 91.706662 43.586588 
C 89.055658 44.68467 86.460164 45.912248 83.929555 47.264886 
L 125.254844 124.579063 
z
" clip-path="url(#pf2de427cd8)" style="fill: none; stroke: #292929; stroke-width: 0.5; stroke-linejoin: miter"/>
   </g>
   <g id="patch_162">
    <path d="M 125.254844 124.579063 
C 125.254844 124.579063 125.254844 124.579063 125.254844 124.579063 
C 125.254844 124.579063 125.254844 124.579063 125.254844 124.579063 
L 116.22475 32.894985 
C 113.223793 33.190553 110.239157 33.633282 107.281621 34.221572 
C 104.324086 34.809863 101.397216 35.543005 98.511585 36.418352 
L 125.254844 124.579063 
z
" clip-path="url(#pf2de427cd8)" style="fill: none; stroke: #292929; stroke-width: 0.5; stroke-linejoin: miter"/>
   </g>
   <g id="PathCollection_1">
    <defs>
     <path id="mc370061fc7" d="M 0.193618 7.414054 
L 0.193618 7.414054 
C 0.054922 7.414054 -0.078235 7.358899 -0.176308 7.260826 
C -0.274381 7.162753 -0.329536 7.029596 -0.329536 6.890901 
L -0.329536 5.365008 
L -1.528416 6.56393 
L -1.528416 6.56393 
C -1.577018 6.612704 -1.634775 6.651408 -1.698366 6.677814 
C -1.761958 6.704221 -1.830141 6.717815 -1.898997 6.717815 
C -1.967853 6.717815 -2.036037 6.704221 -2.099628 6.677814 
C -2.163219 6.651408 -2.220976 6.612704 -2.269578 6.56393 
L -2.269578 6.56393 
C -2.318353 6.515327 -2.357056 6.457571 -2.383463 6.393979 
C -2.409869 6.330388 -2.423463 6.262205 -2.423463 6.193348 
C -2.423463 6.124492 -2.409869 6.056309 -2.383463 5.992718 
C -2.357056 5.929126 -2.318353 5.87137 -2.269578 5.822767 
L -0.329536 3.884106 
L -0.329536 0.820937 
L -2.98067 2.351538 
L -3.691824 5.001416 
L -3.691824 5.001416 
C -3.727584 5.135411 -3.815199 5.249836 -3.93523 5.319305 
C -4.055261 5.388775 -4.198123 5.407741 -4.332122 5.371997 
L -4.332122 5.371997 
C -4.466126 5.336237 -4.580558 5.248616 -4.650029 5.128576 
C -4.719499 5.008535 -4.73846 4.865662 -4.702703 4.731657 
L -4.262647 3.092721 
L -5.585535 3.855668 
L -5.585535 3.855668 
C -5.645013 3.890144 -5.710708 3.912561 -5.778854 3.921634 
C -5.847001 3.930706 -5.916272 3.926258 -5.982698 3.908543 
C -6.049125 3.890828 -6.111412 3.860192 -6.165991 3.818391 
C -6.220571 3.77659 -6.266379 3.724437 -6.300791 3.664922 
L -6.300791 3.664922 
C -6.335212 3.605364 -6.35755 3.539597 -6.366524 3.471396 
C -6.375498 3.403194 -6.370933 3.333888 -6.35309 3.267452 
C -6.335248 3.201017 -6.304476 3.138749 -6.26254 3.08422 
C -6.220605 3.029692 -6.168323 2.983966 -6.108695 2.949666 
L -4.785807 2.186762 
L -6.424743 1.746706 
L -6.424743 1.746706 
C -6.558747 1.710946 -6.673179 1.623325 -6.74265 1.503284 
C -6.81212 1.383244 -6.831081 1.240371 -6.795324 1.106366 
L -6.795324 1.106366 
C -6.777471 1.039969 -6.746703 0.977739 -6.704784 0.923241 
C -6.662864 0.868744 -6.61061 0.823041 -6.551015 0.788752 
C -6.491421 0.754464 -6.425647 0.732257 -6.357465 0.723406 
C -6.289282 0.714554 -6.220019 0.71923 -6.153645 0.737166 
L -3.505232 1.44698 
L -0.852424 -0.08496 
L -3.503767 -1.615666 
L -6.153645 -0.905851 
L -6.153645 -0.905851 
C -6.22011 -0.887939 -6.289462 -0.883321 -6.357716 -0.892262 
C -6.42597 -0.901202 -6.491793 -0.923527 -6.551403 -0.957953 
C -6.611013 -0.992379 -6.663247 -1.038234 -6.705103 -1.092883 
C -6.746958 -1.147533 -6.777619 -1.209911 -6.795324 -1.276432 
L -6.795324 -1.276432 
C -6.831068 -1.410431 -6.812101 -1.553293 -6.742632 -1.673324 
C -6.673162 -1.793355 -6.558738 -1.88097 -6.424743 -1.91673 
L -4.785807 -2.355447 
L -6.108695 -3.119732 
L -6.108695 -3.119732 
C -6.228699 -3.188976 -6.316415 -3.303132 -6.352417 -3.436921 
C -6.388419 -3.57071 -6.369839 -3.713469 -6.300791 -3.833586 
L -6.300791 -3.833586 
C -6.266491 -3.893214 -6.220765 -3.945496 -6.166237 -3.987431 
C -6.111708 -4.029367 -6.04944 -4.060139 -5.983005 -4.077981 
C -5.91657 -4.095823 -5.847263 -4.100389 -5.779062 -4.091415 
C -5.71086 -4.082441 -5.645094 -4.060102 -5.585535 -4.025682 
L -4.262647 -3.261396 
L -4.702703 -4.900332 
L -4.702703 -4.900332 
C -4.73846 -5.034337 -4.719499 -5.17721 -4.650029 -5.29725 
C -4.580558 -5.417291 -4.466126 -5.504912 -4.332122 -5.540672 
L -4.332122 -5.540672 
C -4.19831 -5.576464 -4.055613 -5.557686 -3.935617 -5.488496 
C -3.81562 -5.419305 -3.727882 -5.305212 -3.691824 -5.171472 
L -2.982009 -2.521594 
L -0.329411 -0.990302 
L -0.329411 -4.051588 
L -2.269453 -5.991589 
L -2.269453 -5.991589 
C -2.318227 -6.040191 -2.356931 -6.097947 -2.383337 -6.161539 
C -2.409744 -6.22513 -2.423338 -6.293314 -2.423338 -6.36217 
C -2.423338 -6.431026 -2.409744 -6.499209 -2.383337 -6.5628 
C -2.356931 -6.626392 -2.318227 -6.684149 -2.269453 -6.732751 
L -2.269453 -6.732751 
C -2.22085 -6.781526 -2.163094 -6.820229 -2.099502 -6.846635 
C -2.035911 -6.873042 -1.967728 -6.886636 -1.898871 -6.886636 
C -1.830015 -6.886636 -1.761832 -6.873042 -1.698241 -6.846635 
C -1.634649 -6.820229 -1.576893 -6.781526 -1.52829 -6.732751 
L -0.329411 -5.533829 
L -0.329411 -7.059722 
L -0.329411 -7.059722 
C -0.329411 -7.198418 -0.274255 -7.331575 -0.176182 -7.429647 
C -0.07811 -7.52772 0.055047 -7.582875 0.193743 -7.582875 
L 0.193743 -7.582875 
C 0.332439 -7.582875 0.465596 -7.52772 0.563669 -7.429647 
C 0.661741 -7.331575 0.716897 -7.198418 0.716897 -7.059722 
L 0.716897 -5.533829 
L 1.915777 -6.732751 
L 1.915777 -6.732751 
C 1.964379 -6.781526 2.022136 -6.820229 2.085727 -6.846635 
C 2.149318 -6.873042 2.217502 -6.886636 2.286358 -6.886636 
C 2.355214 -6.886636 2.423397 -6.873042 2.486989 -6.846635 
C 2.55058 -6.820229 2.608337 -6.781526 2.656939 -6.732751 
L 2.656939 -6.732751 
C 2.705714 -6.684149 2.744417 -6.626392 2.770823 -6.5628 
C 2.79723 -6.499209 2.810824 -6.431026 2.810824 -6.36217 
C 2.810824 -6.293314 2.79723 -6.22513 2.770823 -6.161539 
C 2.744417 -6.097947 2.705714 -6.040191 2.656939 -5.991589 
L 0.716897 -4.051588 
L 0.716897 -0.991139 
L 3.369495 -2.522954 
L 4.07931 -5.171367 
L 4.07931 -5.171367 
C 4.115368 -5.305107 4.203106 -5.4192 4.323103 -5.488391 
C 4.4431 -5.557582 4.585797 -5.576359 4.719608 -5.540567 
L 4.719608 -5.540567 
C 4.853612 -5.504807 4.968045 -5.417186 5.037515 -5.297146 
C 5.106986 -5.177105 5.125946 -5.034232 5.090189 -4.900227 
L 4.650133 -3.262673 
L 5.973022 -4.025577 
L 5.973022 -4.025577 
C 6.03258 -4.059998 6.098346 -4.082336 6.166548 -4.09131 
C 6.234749 -4.100284 6.304056 -4.095719 6.370491 -4.077876 
C 6.436926 -4.060034 6.499194 -4.029262 6.553723 -3.987327 
C 6.608252 -3.945391 6.653978 -3.893109 6.688277 -3.833481 
L 6.688277 -3.833481 
C 6.757325 -3.713365 6.775905 -3.570605 6.739903 -3.436816 
C 6.703901 -3.303027 6.616186 -3.188871 6.496181 -3.119628 
L 5.173293 -2.355342 
L 6.812229 -1.916625 
L 6.812229 -1.916625 
C 6.946224 -1.880865 7.060649 -1.79325 7.130118 -1.67322 
C 7.199588 -1.553189 7.218554 -1.410326 7.18281 -1.276327 
L 7.18281 -1.276327 
C 7.165106 -1.209806 7.134445 -1.147429 7.092589 -1.092779 
C 7.050733 -1.038129 6.998499 -0.992274 6.938889 -0.957848 
C 6.879279 -0.923422 6.813456 -0.901098 6.745202 -0.892157 
C 6.676949 -0.883217 6.607597 -0.887835 6.541131 -0.905746 
L 3.891253 -1.615561 
L 1.239492 -0.084604 
L 3.892718 1.447085 
L 6.541131 0.73727 
L 6.541131 0.73727 
C 6.674948 0.701466 6.817656 0.720237 6.937662 0.789429 
C 7.057669 0.858621 7.145413 0.972721 7.181471 1.10647 
L 7.181471 1.10647 
C 7.217274 1.240293 7.198497 1.383006 7.129297 1.503014 
C 7.060096 1.623021 6.945986 1.710762 6.812229 1.74681 
L 5.173293 2.186866 
L 6.496181 2.949771 
L 6.496181 2.949771 
C 6.555697 2.984183 6.607849 3.029991 6.649651 3.08457 
C 6.691452 3.13915 6.722088 3.201437 6.739803 3.267863 
C 6.757517 3.33429 6.761966 3.403561 6.752893 3.471707 
C 6.743821 3.539854 6.721404 3.605549 6.686927 3.665026 
L 6.686927 3.665026 
C 6.617458 3.784813 6.503196 3.87225 6.369416 3.907994 
C 6.235636 3.943739 6.092989 3.924946 5.973032 3.855772 
L 4.650144 3.091487 
L 5.08886 4.731783 
L 5.08886 4.731783 
C 5.124664 4.865606 5.105887 5.008319 5.036686 5.128326 
C 4.967486 5.248334 4.853376 5.336074 4.719619 5.372123 
L 4.719619 5.372123 
C 4.585619 5.407867 4.442757 5.3889 4.322726 5.319431 
C 4.202695 5.249961 4.115081 5.135537 4.07932 5.001542 
L 3.368166 2.351664 
L 0.717033 0.821063 
L 0.717033 3.884232 
L 2.657075 5.822893 
L 2.657075 5.822893 
C 2.70585 5.871495 2.744553 5.929252 2.770959 5.992843 
C 2.797366 6.056435 2.81096 6.124618 2.81096 6.193474 
C 2.81096 6.26233 2.797366 6.330514 2.770959 6.394105 
C 2.744553 6.457696 2.70585 6.515453 2.657075 6.564055 
L 2.657075 6.564055 
C 2.608473 6.61283 2.550716 6.651533 2.487125 6.67794 
C 2.423533 6.704346 2.35535 6.71794 2.286494 6.71794 
C 2.217638 6.71794 2.149454 6.704346 2.085863 6.67794 
C 2.022272 6.651533 1.964515 6.61283 1.915913 6.564055 
L 0.717033 5.365133 
L 0.717033 6.891026 
L 0.717033 6.891026 
C 0.717033 7.029722 0.661877 7.162879 0.563805 7.260952 
C 0.465732 7.359024 0.332575 7.41418 0.193879 7.41418 
L 0.193618 7.414054 
z
"/>
    </defs>
    <g clip-path="url(#pf2de427cd8)">
     <use xlink:href="#mc370061fc7" x="71.001655" y="38.950279" style="fill: #9e2096; fill-opacity: 0.7"/>
    </g>
   </g>
   <g id="patch_163">
    <path d="M 125.254844 13.699063 
C 110.694216 13.699063 96.275171 16.567189 82.822905 22.1393 
C 69.370638 27.711411 57.146763 35.879144 46.850844 46.175063 
C 36.554925 56.470982 28.387192 68.694857 22.815081 82.147124 
C 17.24297 95.59939 14.374844 110.018434 14.374844 124.579063 
C 14.374844 139.139691 17.24297 153.558735 22.815081 167.011001 
C 28.387192 180.463268 36.554925 192.687143 46.850844 202.983062 
C 57.146763 213.278981 69.370638 221.446714 82.822905 227.018825 
C 96.275171 232.590936 110.694216 235.459063 125.254844 235.459063 
C 139.815472 235.459063 154.234516 232.590936 167.686783 227.018825 
C 181.139049 221.446714 193.362925 213.278981 203.658844 202.983062 
C 213.954763 192.687143 222.122495 180.463268 227.694606 167.011001 
C 233.266717 153.558735 236.134844 139.139691 236.134844 124.579063 
C 236.134844 110.018434 233.266717 95.59939 227.694606 82.147124 
C 222.122495 68.694857 213.954763 56.470982 203.658844 46.175063 
C 193.362925 35.879144 181.139049 27.711411 167.686783 22.1393 
C 154.234516 16.567189 139.815472 13.699063 125.254844 13.699063 
" style="fill: none; stroke: #000000; stroke-width: 0.8; stroke-linejoin: miter; stroke-linecap: square"/>
   </g>
  </g>
 </g>
 <defs>
  <clipPath id="pf2de427cd8">
   <path d="M 236.134844 124.579063 
C 236.134844 110.018434 233.266717 95.59939 227.694606 82.147124 
C 222.122495 68.694857 213.954763 56.470982 203.658844 46.175063 
C 193.362925 35.879144 181.139049 27.711411 167.686783 22.1393 
C 154.234516 16.567189 139.815472 13.699063 125.254844 13.699063 
C 110.694216 13.699063 96.275171 16.567189 82.822905 22.1393 
C 69.370638 27.711411 57.146763 35.879144 46.850844 46.175063 
C 36.554925 56.470982 28.387192 68.694857 22.815081 82.147124 
C 17.24297 95.59939 14.374844 110.018434 14.374844 124.579062 
C 14.374844 139.139691 17.24297 153.558735 22.815081 167.011001 
C 28.387192 180.463268 36.554925 192.687143 46.850844 202.983062 
C 57.146763 213.278981 69.370638 221.446714 82.822905 227.018825 
C 96.275171 232.590936 110.694216 235.459063 125.254844 235.459063 
C 139.815472 235.459063 154.234516 232.590936 167.686783 227.018825 
C 181.139049 221.446714 193.362925 213.278981 203.658844 202.983062 
C 213.954763 192.687143 222.122495 180.463268 227.694606 167.011001 
C 233.266717 153.558735 236.134844 139.139691 236.134844 124.579063 
M 125.254844 124.579063 
C 125.254844 124.579063 125.254844 124.579063 125.254844 124.579063 
C 125.254844 124.579063 125.254844 124.579063 125.254844 124.579063 
C 125.254844 124.579063 125.254844 124.579063 125.254844 124.579063 
C 125.254844 124.579063 125.254844 124.579063 125.254844 124.579063 
C 125.254844 124.579063 125.254844 124.579063 125.254844 124.579063 
C 125.254844 124.579063 125.254844 124.579063 125.254844 124.579063 
C 125.254844 124.579063 125.254844 124.579063 125.254844 124.579063 
C 125.254844 124.579063 125.254844 124.579063 125.254844 124.579063 
C 125.254844 124.579063 125.254844 124.579063 125.254844 124.579063 
C 125.254844 124.579063 125.254844 124.579063 125.254844 124.579063 
C 125.254844 124.579063 125.254844 124.579063 125.254844 124.579063 
C 125.254844 124.579063 125.254844 124.579063 125.254844 124.579063 
C 125.254844 124.579063 125.254844 124.579063 125.254844 124.579063 
C 125.254844 124.579063 125.254844 124.579063 125.254844 124.579063 
C 125.254844 124.579063 125.254844 124.579063 125.254844 124.579063 
C 125.254844 124.579063 125.254844 124.579063 125.254844 124.579063 
z
"/>
  </clipPath>
 </defs>
</svg>
