<?xml version="1.0" encoding="utf-8" standalone="no"?>
<!DOCTYPE svg PUBLIC "-//W3C//DTD SVG 1.1//EN"
  "http://www.w3.org/Graphics/SVG/1.1/DTD/svg11.dtd">
<svg xmlns:xlink="http://www.w3.org/1999/xlink" width="248.410469pt" height="249.158125pt" viewBox="0 0 248.410469 249.158125" xmlns="http://www.w3.org/2000/svg" version="1.1">
 <title>Ski Rose for Ski Montcalm</title>
 <metadata>
  <rdf:RDF xmlns:dc="http://purl.org/dc/elements/1.1/" xmlns:cc="http://creativecommons.org/ns#" xmlns:rdf="http://www.w3.org/1999/02/22-rdf-syntax-ns#">
   <cc:Work>
    <dc:type rdf:resource="http://purl.org/dc/dcmitype/StillImage"/>
    <dc:title>Ski Rose for Ski Montcalm</dc:title>
    <dc:date>2025-11-22T10:35:22.476559</dc:date>
    <dc:description>A 32-bin stacked histogram of downhill ski run orientations colored by difficulty.</dc:description>
    <dc:format>image/svg+xml</dc:format>
    <dc:source>https://openskimap.org/?obj=0d47e99de1b7dd33daee0dd627c0ca33d615a9b0</dc:source>
    <dc:creator>
     <cc:Agent>
      <dc:title>https://github.com/dhimmel/openskistats</dc:title>
     </cc:Agent>
    </dc:creator>
    <dc:rights>
     <cc:Agent>
      <dc:title>https://creativecommons.org/licenses/by/4.0/</dc:title>
     </cc:Agent>
    </dc:rights>
   </cc:Work>
  </rdf:RDF>
 </metadata>
 <defs>
  <style type="text/css">*{stroke-linejoin: round; stroke-linecap: butt}</style>
 </defs>
 <g id="figure_1">
  <g id="patch_1">
   <path d="M 0 249.158125 
L 248.410469 249.158125 
L 248.410469 0 
L 0 0 
z
" style="fill: #ffffff"/>
  </g>
  <g id="axes_1">
   <g id="patch_2">
    <path d="M 236.134844 124.579062 
C 236.134844 110.018434 233.266717 95.59939 227.694606 82.147124 
C 222.122495 68.694857 213.954763 56.470982 203.658844 46.175063 
C 193.362925 35.879144 181.139049 27.711411 167.686783 22.1393 
C 154.234516 16.567189 139.815472 13.699062 125.254844 13.699062 
C 110.694216 13.699062 96.275171 16.567189 82.822905 22.1393 
C 69.370638 27.711411 57.146763 35.879144 46.850844 46.175063 
C 36.554925 56.470982 28.387192 68.694857 22.815081 82.147124 
C 17.24297 95.59939 14.374844 110.018434 14.374844 124.579062 
C 14.374844 139.139691 17.24297 153.558735 22.815081 167.011001 
C 28.387192 180.463268 36.554925 192.687143 46.850844 202.983062 
C 57.146763 213.278981 69.370638 221.446714 82.822905 227.018825 
C 96.275171 232.590936 110.694216 235.459062 125.254844 235.459062 
C 139.815472 235.459062 154.234516 232.590936 167.686783 227.018825 
C 181.139049 221.446714 193.362925 213.278981 203.658844 202.983062 
C 213.954763 192.687143 222.122495 180.463268 227.694606 167.011001 
C 233.266717 153.558735 236.134844 139.139691 236.134844 124.579063 
M 125.254844 124.579062 
C 125.254844 124.579062 125.254844 124.579062 125.254844 124.579062 
C 125.254844 124.579062 125.254844 124.579062 125.254844 124.579062 
C 125.254844 124.579062 125.254844 124.579062 125.254844 124.579062 
C 125.254844 124.579062 125.254844 124.579062 125.254844 124.579062 
C 125.254844 124.579062 125.254844 124.579062 125.254844 124.579062 
C 125.254844 124.579062 125.254844 124.579062 125.254844 124.579062 
C 125.254844 124.579062 125.254844 124.579062 125.254844 124.579062 
C 125.254844 124.579062 125.254844 124.579062 125.254844 124.579062 
C 125.254844 124.579062 125.254844 124.579062 125.254844 124.579062 
C 125.254844 124.579062 125.254844 124.579062 125.254844 124.579062 
C 125.254844 124.579062 125.254844 124.579062 125.254844 124.579062 
C 125.254844 124.579062 125.254844 124.579062 125.254844 124.579062 
C 125.254844 124.579062 125.254844 124.579062 125.254844 124.579062 
C 125.254844 124.579062 125.254844 124.579062 125.254844 124.579062 
C 125.254844 124.579062 125.254844 124.579062 125.254844 124.579062 
C 125.254844 124.579062 125.254844 124.579062 125.254844 124.579062 
z
" style="fill: #ffffff"/>
   </g>
   <g id="FillBetweenPolyCollection_1">
    <defs>
     <path id="m201b861658" d="M 235.272235 -137.113961 
L 234.731903 -137.052398 
L 233.802175 -135.030982 
L 232.984551 -133.057574 
L 231.903422 -131.101969 
L 230.765653 -129.185764 
L 229.789254 -127.316392 
L 228.56344 -125.480623 
L 227.510624 -123.68669 
L 226.212777 -121.935386 
L 225.094397 -120.219973 
L 223.734875 -118.555766 
L 222.558943 -116.921064 
L 221.145944 -115.3458 
L 219.91933 -113.793407 
L 218.460139 -112.308353 
L 217.189204 -110.83938 
L 215.897886 -109.410619 
L 214.381532 -108.060407 
L 213.054871 -106.715945 
L 211.712041 -105.411963 
L 210.354386 -104.14847 
L 208.983243 -102.925426 
L 207.599941 -101.742746 
L 206.205804 -100.600296 
L 204.802147 -99.497894 
L 203.390277 -98.435312 
L 201.971493 -97.412272 
L 200.547084 -96.428447 
L 199.11833 -95.483461 
L 197.686497 -94.576889 
L 196.432061 -93.630328 
L 194.994921 -92.796678 
L 193.731937 -91.917165 
L 192.293949 -91.154597 
L 191.026418 -90.340548 
L 189.59192 -89.64688 
L 188.323722 -88.896408 
L 187.05504 -88.175965 
L 185.631789 -87.580023 
L 184.367913 -86.919884 
L 183.106081 -86.288164 
L 181.84707 -85.684303 
L 180.591638 -85.107711 
L 179.340521 -84.557767 
L 178.094432 -84.033821 
L 176.854058 -83.535195 
L 175.746797 -82.956708 
L 174.516025 -82.506039 
L 173.292826 -82.078646 
L 172.077781 -81.673745 
L 170.983273 -81.184403 
L 169.782214 -80.822138 
L 168.695278 -80.373755 
L 167.510042 -80.051375 
L 166.432323 -79.64173 
L 165.264522 -79.356347 
L 164.197467 -78.983109 
L 163.134483 -78.627386 
L 161.993325 -78.392462 
L 160.942791 -78.069624 
L 159.897119 -77.762715 
L 158.784874 -77.571694 
L 157.752964 -77.294004 
L 156.726484 -77.030601 
L 155.705581 -76.780979 
L 154.690383 -76.544628 
L 153.680993 -76.321038 
L 152.67749 -76.1097 
L 151.67993 -75.910107 
L 150.688348 -75.721755 
L 149.702753 -75.544142 
L 148.723131 -75.376775 
L 147.749445 -75.219165 
L 146.781636 -75.07083 
L 145.81962 -74.9313 
L 144.863294 -74.800113 
L 143.938436 -74.607525 
L 142.990625 -74.494761 
L 142.048158 -74.389137 
L 141.110848 -74.290243 
L 140.178489 -74.197681 
L 139.26587 -74.056936 
L 138.340787 -73.979476 
L 137.420045 -73.907354 
L 136.503369 -73.840245 
L 135.598758 -73.737101 
L 134.687875 -73.682981 
L 133.780275 -73.633092 
L 132.880166 -73.556839 
L 131.977064 -73.518734 
L 131.076361 -73.484261 
L 130.179583 -73.433694 
L 129.281926 -73.410126 
L 128.385714 -73.389784 
L 127.490938 -73.364089 
L 126.596216 -73.354123 
L 125.701938 -73.347181 
L 124.807751 -73.347268 
L 123.913595 -73.358848 
L 123.019162 -73.37353 
L 122.124064 -73.391268 
L 121.229119 -73.427379 
L 120.332214 -73.455597 
L 119.433653 -73.487128 
L 118.533069 -73.522116 
L 117.634614 -73.590914 
L 116.73012 -73.637319 
L 115.822689 -73.687711 
L 114.920248 -73.782903 
L 114.00755 -73.845798 
L 113.091093 -73.913396 
L 112.183626 -74.036413 
L 111.260726 -74.117905 
L 110.333362 -74.204985 
L 109.401289 -74.298011 
L 108.464282 -74.397363 
L 107.545524 -74.569487 
L 106.600505 -74.685768 
L 105.65009 -74.809496 
L 104.69413 -74.941107 
L 103.732497 -75.081053 
L 102.765086 -75.229793 
L 101.791815 -75.387799 
L 100.854552 -75.639648 
L 99.872423 -75.819886 
L 98.884386 -76.010722 
L 97.890447 -76.212655 
L 96.890632 -76.426187 
L 95.827376 -76.5578 
L 94.8127 -76.794469 
L 93.792334 -77.044396 
L 92.766405 -77.30809 
L 91.735061 -77.58606 
L 90.698474 -77.878809 
L 89.656839 -78.186839 
L 88.528507 -78.40773 
L 87.473979 -78.747209 
L 86.41511 -79.103577 
L 85.259351 -79.372382 
L 84.189201 -79.763778 
L 83.015315 -80.067886 
L 81.93522 -80.496693 
L 80.744692 -80.839059 
L 79.65619 -81.307556 
L 78.45074 -81.691003 
L 77.236604 -82.096113 
L 76.137122 -82.628565 
L 74.911083 -83.078869 
L 73.678052 -83.55303 
L 72.438662 -84.051781 
L 71.193577 -84.57583 
L 69.943485 -85.125854 
L 68.689098 -85.702502 
L 67.431151 -86.306395 
L 66.170403 -86.938122 
L 64.907632 -87.598243 
L 63.643635 -88.287287 
L 62.37923 -89.005752 
L 60.951149 -89.665005 
L 59.685478 -90.445811 
L 58.422031 -91.257451 
L 56.988619 -92.017744 
L 55.729579 -92.894574 
L 54.296859 -93.725652 
L 52.864753 -94.594105 
L 51.618646 -95.572993 
L 50.194063 -96.514986 
L 48.773739 -97.495683 
L 47.358951 -98.515462 
L 45.95099 -99.574653 
L 44.551151 -100.67354 
L 43.160742 -101.812353 
L 41.781077 -102.991279 
L 40.413477 -104.210453 
L 39.059271 -105.469964 
L 37.719794 -106.769855 
L 36.396387 -108.110121 
L 34.883649 -109.456111 
L 33.595373 -110.880463 
L 32.327373 -112.344929 
L 30.871441 -113.825432 
L 29.647516 -115.373124 
L 28.237489 -116.943631 
L 27.06395 -118.57345 
L 25.707028 -120.232711 
L 24.590643 -121.943078 
L 23.294843 -123.689271 
L 22.243391 -125.47803 
L 21.018633 -127.308584 
L 20.042378 -129.172738 
L 18.903487 -131.08379 
L 18.019491 -133.018668 
L 16.99525 -135.003276 
L 16.053566 -137.020976 
L 15.386512 -139.043503 
L 15.386512 -139.043503 
L 15.386512 -139.043503 
L 15.09316 -137.130401 
L 14.951589 -135.200058 
L 14.724336 -133.278002 
L 14.589337 -131.347655 
L 14.60666 -129.410067 
L 14.418009 -127.481427 
L 14.440445 -125.546125 
L 14.49507 -123.612477 
L 14.465843 -121.67795 
L 14.584735 -119.747101 
L 14.621402 -117.812431 
L 14.737307 -115.881144 
L 14.948531 -113.957773 
L 15.259218 -112.046644 
L 15.35545 -110.110533 
L 15.65811 -108.199721 
L 15.990232 -106.294437 
L 16.252788 -104.376726 
L 16.646131 -102.48237 
L 17.068955 -100.594828 
L 17.521339 -98.714536 
L 17.912681 -96.818492 
L 18.426621 -94.952974 
L 18.970314 -93.096151 
L 19.543856 -91.248516 
L 20.147365 -89.410592 
L 20.780982 -87.582928 
L 21.44488 -85.766108 
L 22.139282 -83.960762 
L 22.864486 -82.167587 
L 23.620885 -80.38736 
L 24.408967 -78.620949 
L 25.23461 -76.871858 
L 26.025653 -75.105213 
L 26.920081 -73.389225 
L 27.849905 -71.692496 
L 28.764578 -69.987497 
L 29.728314 -68.309636 
L 30.743267 -66.662294 
L 31.743825 -65.005973 
L 32.799073 -63.383923 
L 33.886665 -61.783453 
L 35.50927 -60.564167 
L 37.316821 -59.508349 
L 39.150401 -58.5088 
L 40.998732 -57.558725 
L 42.856807 -56.655363 
L 44.717379 -55.793569 
L 46.519916 -54.920282 
L 48.38086 -54.137034 
L 50.181316 -53.336945 
L 52.032528 -52.623694 
L 53.825076 -51.891602 
L 55.612932 -51.1918 
L 57.395242 -50.523302 
L 59.171247 -49.885144 
L 60.940268 -49.27637 
L 62.701699 -48.69603 
L 64.454993 -48.143174 
L 66.199664 -47.616853 
L 67.897989 -47.065722 
L 69.625958 -46.590242 
L 71.309041 -46.087433 
L 73.018942 -45.659223 
L 74.688139 -45.205235 
L 76.348923 -44.771854 
L 78.003636 -44.362429 
L 79.676366 -44.019375 
L 81.313085 -43.64841 
L 82.943298 -43.29934 
L 84.564505 -42.966869 
L 86.179066 -42.654992 
L 87.766582 -42.31858 
L 89.365769 -42.039841 
L 90.958297 -41.779874 
L 92.542067 -41.532841 
L 94.105513 -41.266392 
L 95.676623 -41.052743 
L 97.229003 -40.818654 
L 98.786008 -40.63064 
L 100.327836 -40.426895 
L 101.873368 -40.268186 
L 103.405268 -40.09302 
L 104.938583 -39.955745 
L 106.461431 -39.807456 
L 107.980482 -39.672864 
L 109.499944 -39.573232 
L 111.011376 -39.463457 
L 112.519738 -39.366479 
L 114.026979 -39.294964 
L 115.529532 -39.221097 
L 117.029861 -39.159348 
L 118.528247 -39.109547 
L 120.02498 -39.071553 
L 121.520674 -39.052512 
L 123.01482 -39.036003 
L 124.508275 -39.030802 
L 126.001424 -39.029406 
L 127.494904 -39.034631 
L 128.989218 -39.047819 
L 130.484535 -39.074362 
L 131.981201 -39.112591 
L 133.479511 -39.162622 
L 134.979756 -39.2246 
L 136.484391 -39.282183 
L 137.989895 -39.366846 
L 139.498211 -39.464058 
L 141.009589 -39.574064 
L 142.52826 -39.677511 
L 144.047181 -39.812306 
L 145.569893 -39.960794 
L 147.103959 -40.094802 
L 148.635766 -40.27018 
L 150.180173 -40.43256 
L 151.721838 -40.63648 
L 153.279794 -40.821315 
L 154.832054 -41.055598 
L 156.401791 -41.272768 
L 157.965051 -41.539365 
L 159.549961 -41.783326 
L 161.140943 -42.046685 
L 162.741358 -42.322414 
L 164.347865 -42.61884 
L 165.941573 -42.974108 
L 167.564137 -43.303666 
L 169.192545 -43.655883 
L 170.855814 -43.97962 
L 172.503229 -44.367222 
L 174.156 -44.779629 
L 175.818333 -45.210283 
L 177.519454 -45.61585 
L 179.195155 -46.095423 
L 180.879889 -46.595625 
L 182.607638 -47.071209 
L 184.344829 -47.571494 
L 186.048214 -48.151322 
L 187.801255 -48.704198 
L 189.562435 -49.284548 
L 191.331207 -49.89332 
L 193.106965 -50.531466 
L 194.889032 -51.199939 
L 196.676649 -51.899706 
L 198.52438 -52.577289 
L 200.322094 -53.342902 
L 202.122346 -54.142974 
L 203.980916 -54.928117 
L 205.844979 -55.748584 
L 207.64585 -56.661158 
L 209.501647 -57.566129 
L 211.352053 -58.51435 
L 213.183574 -59.515225 
L 214.993285 -60.569255 
L 216.630101 -61.778588 
L 217.711242 -63.383508 
L 218.766542 -65.005541 
L 219.756387 -66.668442 
L 220.743923 -68.331696 
L 221.722804 -70.000117 
L 222.662774 -71.690872 
L 223.593271 -73.387317 
L 224.469102 -75.112658 
L 225.296994 -76.861405 
L 226.046547 -78.645637 
L 226.913192 -80.376755 
L 227.682019 -82.152337 
L 228.381337 -83.956456 
L 229.089497 -85.756876 
L 229.751138 -87.574984 
L 230.366423 -89.40922 
L 230.935557 -91.258062 
L 231.563905 -93.088884 
L 232.048958 -94.962433 
L 232.488497 -96.846554 
L 233.052821 -98.699058 
L 233.404478 -100.602866 
L 233.884629 -102.478083 
L 234.150218 -104.396498 
L 234.547916 -106.289675 
L 234.87882 -108.195649 
L 235.174758 -110.107831 
L 235.30439 -112.040501 
L 235.546685 -113.959166 
L 235.733577 -115.884198 
L 235.90211 -117.811586 
L 236.018809 -119.743003 
L 235.948974 -121.680435 
L 236.008026 -123.612534 
L 236.020155 -125.545697 
L 236.010061 -127.47929 
L 235.966014 -129.412817 
L 235.888733 -131.345721 
L 235.76616 -133.276492 
L 235.623482 -135.206354 
L 235.272235 -137.113961 
z
" style="stroke: #ffee9c"/>
    </defs>
    <g clip-path="url(#pf62bca249e)">
     <use xlink:href="#m201b861658" x="0" y="249.158125" style="fill: #ffee9c; stroke: #ffee9c"/>
    </g>
   </g>
   <g id="matplotlib.axis_1">
    <g id="xtick_1">
     <g id="line2d_1">
      <path d="M 125.254844 124.579062 
L 125.254844 13.699062 
" clip-path="url(#pf62bca249e)" style="fill: none; stroke: #b0b0b0; stroke-width: 0.8; stroke-linecap: square"/>
     </g>
     <g id="text_1">
      <!-- N -->
      <g transform="translate(121.070469 7.958437) scale(0.1 -0.1)">
       <defs>
        <path id="DejaVuSans-Bold-4e" d="M 588 4666 
L 1931 4666 
L 3628 1466 
L 3628 4666 
L 4769 4666 
L 4769 0 
L 3425 0 
L 1728 3200 
L 1728 0 
L 588 0 
L 588 4666 
z
" transform="scale(0.015625)"/>
       </defs>
       <use xlink:href="#DejaVuSans-Bold-4e"/>
      </g>
     </g>
    </g>
    <g id="xtick_2">
     <g id="line2d_2">
      <path d="M 125.254844 124.579062 
L 203.658844 46.175063 
" clip-path="url(#pf62bca249e)" style="fill: none; stroke: #b0b0b0; stroke-width: 0.8; stroke-linecap: square"/>
     </g>
    </g>
    <g id="xtick_3">
     <g id="line2d_3">
      <path d="M 125.254844 124.579062 
L 236.134844 124.579062 
" clip-path="url(#pf62bca249e)" style="fill: none; stroke: #b0b0b0; stroke-width: 0.8; stroke-linecap: square"/>
     </g>
     <g id="text_2">
      <!-- E -->
      <g transform="translate(241.219219 127.338437) scale(0.1 -0.1)">
       <defs>
        <path id="DejaVuSans-Bold-45" d="M 588 4666 
L 3834 4666 
L 3834 3756 
L 1791 3756 
L 1791 2888 
L 3713 2888 
L 3713 1978 
L 1791 1978 
L 1791 909 
L 3903 909 
L 3903 0 
L 588 0 
L 588 4666 
z
" transform="scale(0.015625)"/>
       </defs>
       <use xlink:href="#DejaVuSans-Bold-45"/>
      </g>
     </g>
    </g>
    <g id="xtick_4">
     <g id="line2d_4">
      <path d="M 125.254844 124.579062 
L 203.658844 202.983062 
" clip-path="url(#pf62bca249e)" style="fill: none; stroke: #b0b0b0; stroke-width: 0.8; stroke-linecap: square"/>
     </g>
    </g>
    <g id="xtick_5">
     <g id="line2d_5">
      <path d="M 125.254844 124.579062 
L 125.254844 235.459062 
" clip-path="url(#pf62bca249e)" style="fill: none; stroke: #b0b0b0; stroke-width: 0.8; stroke-linecap: square"/>
     </g>
     <g id="text_3">
      <!-- S -->
      <g transform="translate(121.654062 246.718437) scale(0.1 -0.1)">
       <defs>
        <path id="DejaVuSans-Bold-53" d="M 3834 4519 
L 3834 3531 
Q 3450 3703 3084 3790 
Q 2719 3878 2394 3878 
Q 1963 3878 1756 3759 
Q 1550 3641 1550 3391 
Q 1550 3203 1689 3098 
Q 1828 2994 2194 2919 
L 2706 2816 
Q 3484 2659 3812 2340 
Q 4141 2022 4141 1434 
Q 4141 663 3683 286 
Q 3225 -91 2284 -91 
Q 1841 -91 1394 -6 
Q 947 78 500 244 
L 500 1259 
Q 947 1022 1364 901 
Q 1781 781 2169 781 
Q 2563 781 2772 912 
Q 2981 1044 2981 1288 
Q 2981 1506 2839 1625 
Q 2697 1744 2272 1838 
L 1806 1941 
Q 1106 2091 782 2419 
Q 459 2747 459 3303 
Q 459 4000 909 4375 
Q 1359 4750 2203 4750 
Q 2588 4750 2994 4692 
Q 3400 4634 3834 4519 
z
" transform="scale(0.015625)"/>
       </defs>
       <use xlink:href="#DejaVuSans-Bold-53"/>
      </g>
     </g>
    </g>
    <g id="xtick_6">
     <g id="line2d_6">
      <path d="M 125.254844 124.579062 
L 46.850844 202.983062 
" clip-path="url(#pf62bca249e)" style="fill: none; stroke: #b0b0b0; stroke-width: 0.8; stroke-linecap: square"/>
     </g>
    </g>
    <g id="xtick_7">
     <g id="line2d_7">
      <path d="M 125.254844 124.579062 
L 14.374844 124.579062 
" clip-path="url(#pf62bca249e)" style="fill: none; stroke: #b0b0b0; stroke-width: 0.8; stroke-linecap: square"/>
     </g>
     <g id="text_4">
      <!-- W -->
      <g transform="translate(0.36 127.338437) scale(0.1 -0.1)">
       <defs>
        <path id="DejaVuSans-Bold-57" d="M 191 4666 
L 1344 4666 
L 2150 1275 
L 2950 4666 
L 4109 4666 
L 4909 1275 
L 5716 4666 
L 6859 4666 
L 5759 0 
L 4372 0 
L 3525 3547 
L 2688 0 
L 1300 0 
L 191 4666 
z
" transform="scale(0.015625)"/>
       </defs>
       <use xlink:href="#DejaVuSans-Bold-57"/>
      </g>
     </g>
    </g>
    <g id="xtick_8">
     <g id="line2d_8">
      <path d="M 125.254844 124.579062 
L 46.850844 46.175063 
" clip-path="url(#pf62bca249e)" style="fill: none; stroke: #b0b0b0; stroke-width: 0.8; stroke-linecap: square"/>
     </g>
    </g>
   </g>
   <g id="matplotlib.axis_2"/>
   <g id="patch_3">
    <path d="M 125.254844 124.579062 
C 125.254844 124.579062 125.254844 124.579062 125.254844 124.579062 
C 125.254844 124.579062 125.254844 124.579062 125.254844 124.579062 
L 128.656641 90.040038 
C 127.526127 89.928692 126.390828 89.872919 125.254844 89.872919 
C 124.11886 89.872919 122.983561 89.928692 121.853047 90.040038 
z
" clip-path="url(#pf62bca249e)" style="fill: #d9d9d9"/>
   </g>
   <g id="patch_4">
    <path d="M 125.254844 124.579062 
C 125.254844 124.579062 125.254844 124.579062 125.254844 124.579062 
C 125.254844 124.579062 125.254844 124.579062 125.254844 124.579062 
L 127.90058 115.85724 
C 127.615101 115.770642 127.325543 115.698111 127.032952 115.639911 
C 126.74036 115.581711 126.445087 115.537911 126.148199 115.50867 
z
" clip-path="url(#pf62bca249e)" style="fill: #d9d9d9"/>
   </g>
   <g id="patch_5">
    <path d="M 125.254844 124.579062 
C 125.254844 124.579062 125.254844 124.579062 125.254844 124.579062 
C 125.254844 124.579062 125.254844 124.579062 125.254844 124.579062 
L 135.778934 104.889875 
C 135.134477 104.545406 134.473497 104.232785 133.79838 103.953142 
C 133.123262 103.6735 132.434822 103.427172 131.735546 103.215049 
z
" clip-path="url(#pf62bca249e)" style="fill: #d9d9d9"/>
   </g>
   <g id="patch_6">
    <path d="M 125.254844 124.579062 
C 125.254844 124.579062 125.254844 124.579062 125.254844 124.579062 
C 125.254844 124.579062 125.254844 124.579062 125.254844 124.579062 
L 133.43188 114.615315 
C 133.105752 114.347668 132.766679 114.096195 132.415887 113.861803 
C 132.065096 113.627412 131.703007 113.410384 131.33093 113.211505 
z
" clip-path="url(#pf62bca249e)" style="fill: #d9d9d9"/>
   </g>
   <g id="patch_7">
    <path d="M 125.254844 124.579062 
C 125.254844 124.579062 125.254844 124.579062 125.254844 124.579062 
C 125.254844 124.579062 125.254844 124.579062 125.254844 124.579062 
L 141.008912 111.650033 
C 140.585726 111.134378 140.137477 110.639812 139.665786 110.168121 
C 139.194094 109.696429 138.699528 109.24818 138.183874 108.824994 
z
" clip-path="url(#pf62bca249e)" style="fill: #d9d9d9"/>
   </g>
   <g id="patch_8">
    <path d="M 125.254844 124.579062 
C 125.254844 124.579062 125.254844 124.579062 125.254844 124.579062 
C 125.254844 124.579062 125.254844 124.579062 125.254844 124.579062 
L 125.254844 124.579062 
C 125.254844 124.579062 125.254844 124.579062 125.254844 124.579062 
C 125.254844 124.579062 125.254844 124.579062 125.254844 124.579062 
z
" clip-path="url(#pf62bca249e)" style="fill: #d9d9d9"/>
   </g>
   <g id="patch_9">
    <path d="M 125.254844 124.579062 
C 125.254844 124.579062 125.254844 124.579062 125.254844 124.579062 
C 125.254844 124.579062 125.254844 124.579062 125.254844 124.579062 
L 125.254844 124.579062 
C 125.254844 124.579062 125.254844 124.579062 125.254844 124.579062 
C 125.254844 124.579062 125.254844 124.579062 125.254844 124.579062 
z
" clip-path="url(#pf62bca249e)" style="fill: #d9d9d9"/>
   </g>
   <g id="patch_10">
    <path d="M 125.254844 124.579062 
C 125.254844 124.579062 125.254844 124.579062 125.254844 124.579062 
C 125.254844 124.579062 125.254844 124.579062 125.254844 124.579062 
L 125.254844 124.579062 
C 125.254844 124.579062 125.254844 124.579062 125.254844 124.579062 
C 125.254844 124.579062 125.254844 124.579062 125.254844 124.579062 
z
" clip-path="url(#pf62bca249e)" style="fill: #d9d9d9"/>
   </g>
   <g id="patch_11">
    <path d="M 125.254844 124.579062 
C 125.254844 124.579062 125.254844 124.579062 125.254844 124.579062 
C 125.254844 124.579062 125.254844 124.579062 125.254844 124.579062 
L 138.082315 125.842458 
C 138.123668 125.422596 138.144382 125.000956 138.144382 124.579062 
C 138.144382 124.157169 138.123668 123.735529 138.082315 123.315667 
z
" clip-path="url(#pf62bca249e)" style="fill: #d9d9d9"/>
   </g>
   <g id="patch_12">
    <path d="M 125.254844 124.579062 
C 125.254844 124.579062 125.254844 124.579062 125.254844 124.579062 
C 125.254844 124.579062 125.254844 124.579062 125.254844 124.579062 
L 125.254844 124.579062 
C 125.254844 124.579062 125.254844 124.579062 125.254844 124.579062 
C 125.254844 124.579062 125.254844 124.579062 125.254844 124.579062 
z
" clip-path="url(#pf62bca249e)" style="fill: #d9d9d9"/>
   </g>
   <g id="patch_13">
    <path d="M 125.254844 124.579062 
C 125.254844 124.579062 125.254844 124.579062 125.254844 124.579062 
C 125.254844 124.579062 125.254844 124.579062 125.254844 124.579062 
L 125.254844 124.579062 
C 125.254844 124.579062 125.254844 124.579062 125.254844 124.579062 
C 125.254844 124.579062 125.254844 124.579062 125.254844 124.579062 
z
" clip-path="url(#pf62bca249e)" style="fill: #d9d9d9"/>
   </g>
   <g id="patch_14">
    <path d="M 125.254844 124.579062 
C 125.254844 124.579062 125.254844 124.579062 125.254844 124.579062 
C 125.254844 124.579062 125.254844 124.579062 125.254844 124.579062 
L 125.254844 124.579062 
C 125.254844 124.579062 125.254844 124.579062 125.254844 124.579062 
C 125.254844 124.579062 125.254844 124.579062 125.254844 124.579062 
z
" clip-path="url(#pf62bca249e)" style="fill: #d9d9d9"/>
   </g>
   <g id="patch_15">
    <path d="M 125.254844 124.579062 
C 125.254844 124.579062 125.254844 124.579062 125.254844 124.579062 
C 125.254844 124.579062 125.254844 124.579062 125.254844 124.579062 
L 125.254844 124.579062 
C 125.254844 124.579062 125.254844 124.579062 125.254844 124.579062 
C 125.254844 124.579062 125.254844 124.579062 125.254844 124.579062 
z
" clip-path="url(#pf62bca249e)" style="fill: #d9d9d9"/>
   </g>
   <g id="patch_16">
    <path d="M 125.254844 124.579062 
C 125.254844 124.579062 125.254844 124.579062 125.254844 124.579062 
C 125.254844 124.579062 125.254844 124.579062 125.254844 124.579062 
L 125.254844 124.579062 
C 125.254844 124.579062 125.254844 124.579062 125.254844 124.579062 
C 125.254844 124.579062 125.254844 124.579062 125.254844 124.579062 
z
" clip-path="url(#pf62bca249e)" style="fill: #d9d9d9"/>
   </g>
   <g id="patch_17">
    <path d="M 125.254844 124.579062 
C 125.254844 124.579062 125.254844 124.579062 125.254844 124.579062 
C 125.254844 124.579062 125.254844 124.579062 125.254844 124.579062 
L 125.254844 124.579062 
C 125.254844 124.579062 125.254844 124.579062 125.254844 124.579062 
C 125.254844 124.579062 125.254844 124.579062 125.254844 124.579062 
z
" clip-path="url(#pf62bca249e)" style="fill: #d9d9d9"/>
   </g>
   <g id="patch_18">
    <path d="M 125.254844 124.579062 
C 125.254844 124.579062 125.254844 124.579062 125.254844 124.579062 
C 125.254844 124.579062 125.254844 124.579062 125.254844 124.579062 
L 125.254844 124.579062 
C 125.254844 124.579062 125.254844 124.579062 125.254844 124.579062 
C 125.254844 124.579062 125.254844 124.579062 125.254844 124.579062 
z
" clip-path="url(#pf62bca249e)" style="fill: #d9d9d9"/>
   </g>
   <g id="patch_19">
    <path d="M 125.254844 124.579062 
C 125.254844 124.579062 125.254844 124.579062 125.254844 124.579062 
C 125.254844 124.579062 125.254844 124.579062 125.254844 124.579062 
L 125.254844 124.579062 
C 125.254844 124.579062 125.254844 124.579062 125.254844 124.579062 
C 125.254844 124.579062 125.254844 124.579062 125.254844 124.579062 
z
" clip-path="url(#pf62bca249e)" style="fill: #d9d9d9"/>
   </g>
   <g id="patch_20">
    <path d="M 125.254844 124.579062 
C 125.254844 124.579062 125.254844 124.579062 125.254844 124.579062 
C 125.254844 124.579062 125.254844 124.579062 125.254844 124.579062 
L 125.254844 124.579062 
C 125.254844 124.579062 125.254844 124.579062 125.254844 124.579062 
C 125.254844 124.579062 125.254844 124.579062 125.254844 124.579062 
z
" clip-path="url(#pf62bca249e)" style="fill: #d9d9d9"/>
   </g>
   <g id="patch_21">
    <path d="M 125.254844 124.579062 
C 125.254844 124.579062 125.254844 124.579062 125.254844 124.579062 
C 125.254844 124.579062 125.254844 124.579062 125.254844 124.579062 
L 125.254844 124.579062 
C 125.254844 124.579062 125.254844 124.579062 125.254844 124.579062 
C 125.254844 124.579062 125.254844 124.579062 125.254844 124.579062 
z
" clip-path="url(#pf62bca249e)" style="fill: #d9d9d9"/>
   </g>
   <g id="patch_22">
    <path d="M 125.254844 124.579062 
C 125.254844 124.579062 125.254844 124.579062 125.254844 124.579062 
C 125.254844 124.579062 125.254844 124.579062 125.254844 124.579062 
L 125.254844 124.579062 
C 125.254844 124.579062 125.254844 124.579062 125.254844 124.579062 
C 125.254844 124.579062 125.254844 124.579062 125.254844 124.579062 
z
" clip-path="url(#pf62bca249e)" style="fill: #d9d9d9"/>
   </g>
   <g id="patch_23">
    <path d="M 125.254844 124.579062 
C 125.254844 124.579062 125.254844 124.579062 125.254844 124.579062 
C 125.254844 124.579062 125.254844 124.579062 125.254844 124.579062 
L 125.254844 124.579062 
C 125.254844 124.579062 125.254844 124.579062 125.254844 124.579062 
C 125.254844 124.579062 125.254844 124.579062 125.254844 124.579062 
z
" clip-path="url(#pf62bca249e)" style="fill: #d9d9d9"/>
   </g>
   <g id="patch_24">
    <path d="M 125.254844 124.579062 
C 125.254844 124.579062 125.254844 124.579062 125.254844 124.579062 
C 125.254844 124.579062 125.254844 124.579062 125.254844 124.579062 
L 125.254844 124.579062 
C 125.254844 124.579062 125.254844 124.579062 125.254844 124.579062 
C 125.254844 124.579062 125.254844 124.579062 125.254844 124.579062 
z
" clip-path="url(#pf62bca249e)" style="fill: #d9d9d9"/>
   </g>
   <g id="patch_25">
    <path d="M 125.254844 124.579062 
C 125.254844 124.579062 125.254844 124.579062 125.254844 124.579062 
C 125.254844 124.579062 125.254844 124.579062 125.254844 124.579062 
L 125.254844 124.579062 
C 125.254844 124.579062 125.254844 124.579062 125.254844 124.579062 
C 125.254844 124.579062 125.254844 124.579062 125.254844 124.579062 
z
" clip-path="url(#pf62bca249e)" style="fill: #d9d9d9"/>
   </g>
   <g id="patch_26">
    <path d="M 125.254844 124.579062 
C 125.254844 124.579062 125.254844 124.579062 125.254844 124.579062 
C 125.254844 124.579062 125.254844 124.579062 125.254844 124.579062 
L 125.254844 124.579062 
C 125.254844 124.579062 125.254844 124.579062 125.254844 124.579062 
C 125.254844 124.579062 125.254844 124.579062 125.254844 124.579062 
z
" clip-path="url(#pf62bca249e)" style="fill: #d9d9d9"/>
   </g>
   <g id="patch_27">
    <path d="M 125.254844 124.579062 
C 125.254844 124.579062 125.254844 124.579062 125.254844 124.579062 
C 125.254844 124.579062 125.254844 124.579062 125.254844 124.579062 
L 125.254844 124.579062 
C 125.254844 124.579062 125.254844 124.579062 125.254844 124.579062 
C 125.254844 124.579062 125.254844 124.579062 125.254844 124.579062 
z
" clip-path="url(#pf62bca249e)" style="fill: #d9d9d9"/>
   </g>
   <g id="patch_28">
    <path d="M 125.254844 124.579062 
C 125.254844 124.579062 125.254844 124.579062 125.254844 124.579062 
C 125.254844 124.579062 125.254844 124.579062 125.254844 124.579062 
L 125.254844 124.579062 
C 125.254844 124.579062 125.254844 124.579062 125.254844 124.579062 
C 125.254844 124.579062 125.254844 124.579062 125.254844 124.579062 
z
" clip-path="url(#pf62bca249e)" style="fill: #d9d9d9"/>
   </g>
   <g id="patch_29">
    <path d="M 125.254844 124.579062 
C 125.254844 124.579062 125.254844 124.579062 125.254844 124.579062 
C 125.254844 124.579062 125.254844 124.579062 125.254844 124.579062 
L 125.254844 124.579062 
C 125.254844 124.579062 125.254844 124.579062 125.254844 124.579062 
C 125.254844 124.579062 125.254844 124.579062 125.254844 124.579062 
z
" clip-path="url(#pf62bca249e)" style="fill: #d9d9d9"/>
   </g>
   <g id="patch_30">
    <path d="M 125.254844 124.579062 
C 125.254844 124.579062 125.254844 124.579062 125.254844 124.579062 
C 125.254844 124.579062 125.254844 124.579062 125.254844 124.579062 
L 125.254844 124.579062 
C 125.254844 124.579062 125.254844 124.579062 125.254844 124.579062 
C 125.254844 124.579062 125.254844 124.579062 125.254844 124.579062 
z
" clip-path="url(#pf62bca249e)" style="fill: #d9d9d9"/>
   </g>
   <g id="patch_31">
    <path d="M 125.254844 124.579062 
C 125.254844 124.579062 125.254844 124.579062 125.254844 124.579062 
C 125.254844 124.579062 125.254844 124.579062 125.254844 124.579062 
L 125.254844 124.579062 
C 125.254844 124.579062 125.254844 124.579062 125.254844 124.579062 
C 125.254844 124.579062 125.254844 124.579062 125.254844 124.579062 
z
" clip-path="url(#pf62bca249e)" style="fill: #d9d9d9"/>
   </g>
   <g id="patch_32">
    <path d="M 125.254844 124.579062 
C 125.254844 124.579062 125.254844 124.579062 125.254844 124.579062 
C 125.254844 124.579062 125.254844 124.579062 125.254844 124.579062 
L 125.254844 124.579062 
C 125.254844 124.579062 125.254844 124.579062 125.254844 124.579062 
C 125.254844 124.579062 125.254844 124.579062 125.254844 124.579062 
z
" clip-path="url(#pf62bca249e)" style="fill: #d9d9d9"/>
   </g>
   <g id="patch_33">
    <path d="M 125.254844 124.579062 
C 125.254844 124.579062 125.254844 124.579062 125.254844 124.579062 
C 125.254844 124.579062 125.254844 124.579062 125.254844 124.579062 
L 119.642391 106.077284 
C 119.0368 106.260988 118.440593 106.474314 117.855925 106.716492 
C 117.271256 106.958669 116.69883 107.229407 116.140714 107.527726 
z
" clip-path="url(#pf62bca249e)" style="fill: #d9d9d9"/>
   </g>
   <g id="patch_34">
    <path d="M 125.254844 124.579062 
C 125.254844 124.579062 125.254844 124.579062 125.254844 124.579062 
C 125.254844 124.579062 125.254844 124.579062 125.254844 124.579062 
L 123.066578 102.36123 
C 122.339355 102.432855 121.616088 102.540142 120.899387 102.682703 
C 120.182686 102.825263 119.473417 103.002926 118.774141 103.215049 
z
" clip-path="url(#pf62bca249e)" style="fill: #d9d9d9"/>
   </g>
   <g id="patch_35">
    <path d="M 121.853047 90.040038 
C 122.983561 89.928692 124.11886 89.872919 125.254844 89.872919 
C 126.390828 89.872919 127.526127 89.928692 128.656641 90.040038 
L 130.50212 71.302572 
C 128.758301 71.130821 127.0071 71.04479 125.254844 71.04479 
C 123.502587 71.04479 121.751387 71.130821 120.007567 71.302572 
z
" clip-path="url(#pf62bca249e)" style="fill: #badbb8"/>
   </g>
   <g id="patch_36">
    <path d="M 126.148199 115.50867 
C 126.445087 115.537911 126.74036 115.581711 127.032952 115.639911 
C 127.325543 115.698111 127.615101 115.770642 127.90058 115.85724 
L 131.170889 105.076476 
C 130.53254 104.882835 129.885069 104.720651 129.230814 104.590512 
C 128.576559 104.460373 127.916308 104.362434 127.252448 104.297049 
z
" clip-path="url(#pf62bca249e)" style="fill: #badbb8"/>
   </g>
   <g id="patch_37">
    <path d="M 131.735546 103.215049 
C 132.434822 103.427172 133.123262 103.6735 133.79838 103.953142 
C 134.473497 104.232785 135.134477 104.545406 135.778934 104.889875 
L 166.799459 46.854555 
C 164.255419 45.494738 161.64615 44.260645 158.981076 43.156735 
C 156.316002 42.052825 153.598335 41.080429 150.837891 40.243057 
z
" clip-path="url(#pf62bca249e)" style="fill: #badbb8"/>
   </g>
   <g id="patch_38">
    <path d="M 131.33093 113.211505 
C 131.703007 113.410384 132.065096 113.627412 132.415887 113.861803 
C 132.766679 114.096195 133.105752 114.347668 133.43188 114.615315 
L 146.102278 99.17639 
C 145.270811 98.494023 144.406342 97.852889 143.511995 97.255305 
C 142.617647 96.657721 141.694499 96.104408 140.745885 95.597363 
z
" clip-path="url(#pf62bca249e)" style="fill: #badbb8"/>
   </g>
   <g id="patch_39">
    <path d="M 138.183874 108.824994 
C 138.699528 109.24818 139.194094 109.696429 139.665786 110.168121 
C 140.137477 110.639812 140.585726 111.134378 141.008912 111.650033 
L 141.008912 111.650033 
C 140.585726 111.134378 140.137477 110.639812 139.665786 110.168121 
C 139.194094 109.696429 138.699528 109.24818 138.183874 108.824994 
z
" clip-path="url(#pf62bca249e)" style="fill: #badbb8"/>
   </g>
   <g id="patch_40">
    <path d="M 125.254844 124.579062 
C 125.254844 124.579062 125.254844 124.579062 125.254844 124.579062 
C 125.254844 124.579062 125.254844 124.579062 125.254844 124.579062 
L 136.622402 118.502976 
C 136.423522 118.130899 136.206495 117.768811 135.972103 117.418019 
C 135.737711 117.067227 135.486238 116.728154 135.218592 116.402026 
z
" clip-path="url(#pf62bca249e)" style="fill: #badbb8"/>
   </g>
   <g id="patch_41">
    <path d="M 125.254844 124.579062 
C 125.254844 124.579062 125.254844 124.579062 125.254844 124.579062 
C 125.254844 124.579062 125.254844 124.579062 125.254844 124.579062 
L 133.976666 121.933327 
C 133.890067 121.647848 133.789504 121.366794 133.67534 121.091179 
C 133.561177 120.815563 133.43355 120.545719 133.292921 120.282621 
z
" clip-path="url(#pf62bca249e)" style="fill: #badbb8"/>
   </g>
   <g id="patch_42">
    <path d="M 125.254844 124.579062 
C 125.254844 124.579062 125.254844 124.579062 125.254844 124.579062 
C 125.254844 124.579062 125.254844 124.579062 125.254844 124.579062 
L 125.254844 124.579062 
C 125.254844 124.579062 125.254844 124.579062 125.254844 124.579062 
C 125.254844 124.579062 125.254844 124.579062 125.254844 124.579062 
z
" clip-path="url(#pf62bca249e)" style="fill: #badbb8"/>
   </g>
   <g id="patch_43">
    <path d="M 138.082315 123.315667 
C 138.123668 123.735529 138.144382 124.157169 138.144382 124.579062 
C 138.144382 125.000956 138.123668 125.422596 138.082315 125.842458 
L 156.675604 127.673737 
C 156.776897 126.645289 156.827635 125.612487 156.827635 124.579062 
C 156.827635 123.545638 156.776897 122.512836 156.675604 121.484388 
z
" clip-path="url(#pf62bca249e)" style="fill: #badbb8"/>
   </g>
   <g id="patch_44">
    <path d="M 125.254844 124.579062 
C 125.254844 124.579062 125.254844 124.579062 125.254844 124.579062 
C 125.254844 124.579062 125.254844 124.579062 125.254844 124.579062 
L 184.08675 142.425526 
C 184.670891 140.49987 185.160136 138.546695 185.552717 136.573055 
C 185.945299 134.599416 186.240743 132.607691 186.437984 130.605076 
z
" clip-path="url(#pf62bca249e)" style="fill: #badbb8"/>
   </g>
   <g id="patch_45">
    <path d="M 125.254844 124.579062 
C 125.254844 124.579062 125.254844 124.579062 125.254844 124.579062 
C 125.254844 124.579062 125.254844 124.579062 125.254844 124.579062 
L 130.938623 127.617106 
C 131.038062 127.431067 131.128308 127.240258 131.209034 127.045369 
C 131.28976 126.850479 131.360869 126.651744 131.422103 126.44988 
z
" clip-path="url(#pf62bca249e)" style="fill: #badbb8"/>
   </g>
   <g id="patch_46">
    <path d="M 125.254844 124.579062 
C 125.254844 124.579062 125.254844 124.579062 125.254844 124.579062 
C 125.254844 124.579062 125.254844 124.579062 125.254844 124.579062 
L 125.254844 124.579062 
C 125.254844 124.579062 125.254844 124.579062 125.254844 124.579062 
C 125.254844 124.579062 125.254844 124.579062 125.254844 124.579062 
z
" clip-path="url(#pf62bca249e)" style="fill: #badbb8"/>
   </g>
   <g id="patch_47">
    <path d="M 125.254844 124.579062 
C 125.254844 124.579062 125.254844 124.579062 125.254844 124.579062 
C 125.254844 124.579062 125.254844 124.579062 125.254844 124.579062 
L 132.336365 133.207921 
C 132.6188 132.976132 132.889685 132.730617 133.148042 132.47226 
C 133.406398 132.213904 133.651914 131.943019 133.883702 131.660584 
z
" clip-path="url(#pf62bca249e)" style="fill: #badbb8"/>
   </g>
   <g id="patch_48">
    <path d="M 125.254844 124.579062 
C 125.254844 124.579062 125.254844 124.579062 125.254844 124.579062 
C 125.254844 124.579062 125.254844 124.579062 125.254844 124.579062 
L 136.208664 145.072219 
C 136.879436 144.713684 137.5322 144.322432 138.164599 143.899876 
C 138.796998 143.477321 139.40827 143.023971 139.996206 142.541464 
z
" clip-path="url(#pf62bca249e)" style="fill: #badbb8"/>
   </g>
   <g id="patch_49">
    <path d="M 125.254844 124.579062 
C 125.254844 124.579062 125.254844 124.579062 125.254844 124.579062 
C 125.254844 124.579062 125.254844 124.579062 125.254844 124.579062 
L 128.996479 136.913581 
C 129.400206 136.791112 129.797677 136.648895 130.187456 136.487443 
C 130.577236 136.325991 130.958853 136.1455 131.33093 135.94662 
z
" clip-path="url(#pf62bca249e)" style="fill: #badbb8"/>
   </g>
   <g id="patch_50">
    <path d="M 125.254844 124.579062 
C 125.254844 124.579062 125.254844 124.579062 125.254844 124.579062 
C 125.254844 124.579062 125.254844 124.579062 125.254844 124.579062 
L 126.518239 137.406534 
C 126.938102 137.365181 127.355681 137.303239 127.769468 137.220932 
C 128.183255 137.138624 128.592752 137.036051 128.996479 136.913581 
z
" clip-path="url(#pf62bca249e)" style="fill: #badbb8"/>
   </g>
   <g id="patch_51">
    <path d="M 125.254844 124.579062 
C 125.254844 124.579062 125.254844 124.579062 125.254844 124.579062 
C 125.254844 124.579062 125.254844 124.579062 125.254844 124.579062 
L 125.254844 124.579062 
C 125.254844 124.579062 125.254844 124.579062 125.254844 124.579062 
C 125.254844 124.579062 125.254844 124.579062 125.254844 124.579062 
z
" clip-path="url(#pf62bca249e)" style="fill: #badbb8"/>
   </g>
   <g id="patch_52">
    <path d="M 125.254844 124.579062 
C 125.254844 124.579062 125.254844 124.579062 125.254844 124.579062 
C 125.254844 124.579062 125.254844 124.579062 125.254844 124.579062 
L 125.254844 124.579062 
C 125.254844 124.579062 125.254844 124.579062 125.254844 124.579062 
C 125.254844 124.579062 125.254844 124.579062 125.254844 124.579062 
z
" clip-path="url(#pf62bca249e)" style="fill: #badbb8"/>
   </g>
   <g id="patch_53">
    <path d="M 125.254844 124.579062 
C 125.254844 124.579062 125.254844 124.579062 125.254844 124.579062 
C 125.254844 124.579062 125.254844 124.579062 125.254844 124.579062 
L 114.730754 144.26825 
C 115.37521 144.612719 116.036191 144.92534 116.711308 145.204983 
C 117.386425 145.484625 118.074865 145.730953 118.774141 145.943076 
z
" clip-path="url(#pf62bca249e)" style="fill: #badbb8"/>
   </g>
   <g id="patch_54">
    <path d="M 125.254844 124.579062 
C 125.254844 124.579062 125.254844 124.579062 125.254844 124.579062 
C 125.254844 124.579062 125.254844 124.579062 125.254844 124.579062 
L 125.254844 124.579062 
C 125.254844 124.579062 125.254844 124.579062 125.254844 124.579062 
C 125.254844 124.579062 125.254844 124.579062 125.254844 124.579062 
z
" clip-path="url(#pf62bca249e)" style="fill: #badbb8"/>
   </g>
   <g id="patch_55">
    <path d="M 125.254844 124.579062 
C 125.254844 124.579062 125.254844 124.579062 125.254844 124.579062 
C 125.254844 124.579062 125.254844 124.579062 125.254844 124.579062 
L 109.500775 137.508092 
C 109.923962 138.023747 110.37221 138.518313 110.843902 138.990004 
C 111.315594 139.461696 111.81016 139.909945 112.325814 140.333131 
z
" clip-path="url(#pf62bca249e)" style="fill: #badbb8"/>
   </g>
   <g id="patch_56">
    <path d="M 125.254844 124.579062 
C 125.254844 124.579062 125.254844 124.579062 125.254844 124.579062 
C 125.254844 124.579062 125.254844 124.579062 125.254844 124.579062 
L 112.545528 131.372333 
C 112.767882 131.788328 113.010526 132.193156 113.272584 132.585353 
C 113.534641 132.97755 113.815797 133.356645 114.115035 133.721267 
z
" clip-path="url(#pf62bca249e)" style="fill: #badbb8"/>
   </g>
   <g id="patch_57">
    <path d="M 125.254844 124.579062 
C 125.254844 124.579062 125.254844 124.579062 125.254844 124.579062 
C 125.254844 124.579062 125.254844 124.579062 125.254844 124.579062 
L 125.254844 124.579062 
C 125.254844 124.579062 125.254844 124.579062 125.254844 124.579062 
C 125.254844 124.579062 125.254844 124.579062 125.254844 124.579062 
z
" clip-path="url(#pf62bca249e)" style="fill: #badbb8"/>
   </g>
   <g id="patch_58">
    <path d="M 125.254844 124.579062 
C 125.254844 124.579062 125.254844 124.579062 125.254844 124.579062 
C 125.254844 124.579062 125.254844 124.579062 125.254844 124.579062 
L 125.254844 124.579062 
C 125.254844 124.579062 125.254844 124.579062 125.254844 124.579062 
C 125.254844 124.579062 125.254844 124.579062 125.254844 124.579062 
z
" clip-path="url(#pf62bca249e)" style="fill: #badbb8"/>
   </g>
   <g id="patch_59">
    <path d="M 125.254844 124.579062 
C 125.254844 124.579062 125.254844 124.579062 125.254844 124.579062 
C 125.254844 124.579062 125.254844 124.579062 125.254844 124.579062 
L 110.913295 123.166543 
C 110.867061 123.635964 110.843902 124.107371 110.843902 124.579062 
C 110.843902 125.050754 110.867061 125.522161 110.913295 125.991582 
z
" clip-path="url(#pf62bca249e)" style="fill: #badbb8"/>
   </g>
   <g id="patch_60">
    <path d="M 125.254844 124.579062 
C 125.254844 124.579062 125.254844 124.579062 125.254844 124.579062 
C 125.254844 124.579062 125.254844 124.579062 125.254844 124.579062 
L 125.254844 124.579062 
C 125.254844 124.579062 125.254844 124.579062 125.254844 124.579062 
C 125.254844 124.579062 125.254844 124.579062 125.254844 124.579062 
z
" clip-path="url(#pf62bca249e)" style="fill: #badbb8"/>
   </g>
   <g id="patch_61">
    <path d="M 125.254844 124.579062 
C 125.254844 124.579062 125.254844 124.579062 125.254844 124.579062 
C 125.254844 124.579062 125.254844 124.579062 125.254844 124.579062 
L 125.254844 124.579062 
C 125.254844 124.579062 125.254844 124.579062 125.254844 124.579062 
C 125.254844 124.579062 125.254844 124.579062 125.254844 124.579062 
z
" clip-path="url(#pf62bca249e)" style="fill: #badbb8"/>
   </g>
   <g id="patch_62">
    <path d="M 125.254844 124.579062 
C 125.254844 124.579062 125.254844 124.579062 125.254844 124.579062 
C 125.254844 124.579062 125.254844 124.579062 125.254844 124.579062 
L 109.500775 111.650033 
C 109.077589 112.165687 108.679975 112.701807 108.309369 113.256458 
C 107.938763 113.811109 107.595613 114.383621 107.281157 114.971927 
z
" clip-path="url(#pf62bca249e)" style="fill: #badbb8"/>
   </g>
   <g id="patch_63">
    <path d="M 125.254844 124.579062 
C 125.254844 124.579062 125.254844 124.579062 125.254844 124.579062 
C 125.254844 124.579062 125.254844 124.579062 125.254844 124.579062 
L 98.134682 91.53305 
C 97.053037 92.420733 96.015626 93.360987 95.026197 94.350416 
C 94.036768 95.339845 93.096514 96.377255 92.208831 97.458901 
z
" clip-path="url(#pf62bca249e)" style="fill: #badbb8"/>
   </g>
   <g id="patch_64">
    <path d="M 125.254844 124.579062 
C 125.254844 124.579062 125.254844 124.579062 125.254844 124.579062 
C 125.254844 124.579062 125.254844 124.579062 125.254844 124.579062 
L 103.772635 84.388676 
C 102.457143 85.091821 101.176967 85.859129 99.936731 86.687829 
C 98.696494 87.516528 97.497692 88.405621 96.344654 89.351894 
z
" clip-path="url(#pf62bca249e)" style="fill: #badbb8"/>
   </g>
   <g id="patch_65">
    <path d="M 116.140714 107.527726 
C 116.69883 107.229407 117.271256 106.958669 117.855925 106.716492 
C 118.440593 106.474314 119.0368 106.260988 119.642391 106.077284 
L 113.875104 87.065088 
C 112.647215 87.437563 111.438355 87.870101 110.252888 88.361137 
C 109.067421 88.852174 107.906777 89.401117 106.775149 90.005985 
z
" clip-path="url(#pf62bca249e)" style="fill: #badbb8"/>
   </g>
   <g id="patch_66">
    <path d="M 118.774141 103.215049 
C 119.473417 103.002926 120.182686 102.825263 120.899387 102.682703 
C 121.616088 102.540142 122.339355 102.432855 123.066578 102.36123 
L 115.97082 30.316783 
C 112.885474 30.620663 109.816908 31.075841 106.776206 31.680675 
C 103.735503 32.285508 100.726328 33.039267 97.759551 33.939229 
z
" clip-path="url(#pf62bca249e)" style="fill: #badbb8"/>
   </g>
   <g id="patch_67">
    <path d="M 120.007567 71.302572 
C 121.751387 71.130821 123.502587 71.04479 125.254844 71.04479 
C 127.0071 71.04479 128.758301 71.130821 130.50212 71.302572 
L 131.411873 62.065699 
C 129.365717 61.86417 127.3109 61.763224 125.254844 61.763224 
C 123.198788 61.763224 121.143971 61.86417 119.097815 62.065699 
z
" clip-path="url(#pf62bca249e)" style="fill: #a1a1d8"/>
   </g>
   <g id="patch_68">
    <path d="M 127.252448 104.297049 
C 127.916308 104.362434 128.576559 104.460373 129.230814 104.590512 
C 129.885069 104.720651 130.53254 104.882835 131.170889 105.076476 
L 131.170889 105.076476 
C 130.53254 104.882835 129.885069 104.720651 129.230814 104.590512 
C 128.576559 104.460373 127.916308 104.362434 127.252448 104.297049 
z
" clip-path="url(#pf62bca249e)" style="fill: #a1a1d8"/>
   </g>
   <g id="patch_69">
    <path d="M 150.837891 40.243057 
C 153.598335 41.080429 156.316002 42.052825 158.981076 43.156735 
C 161.64615 44.260645 164.255419 45.494738 166.799459 46.854555 
L 166.799459 46.854555 
C 164.255419 45.494738 161.64615 44.260645 158.981076 43.156735 
C 156.316002 42.052825 153.598335 41.080429 150.837891 40.243057 
z
" clip-path="url(#pf62bca249e)" style="fill: #a1a1d8"/>
   </g>
   <g id="patch_70">
    <path d="M 140.745885 95.597363 
C 141.694499 96.104408 142.617647 96.657721 143.511995 97.255305 
C 144.406342 97.852889 145.270811 98.494023 146.102278 99.17639 
L 157.706451 85.036664 
C 156.412169 83.974475 155.066517 82.976471 153.674355 82.046258 
C 152.282193 81.116045 150.845199 80.254744 149.368563 79.465466 
z
" clip-path="url(#pf62bca249e)" style="fill: #a1a1d8"/>
   </g>
   <g id="patch_71">
    <path d="M 138.183874 108.824994 
C 138.699528 109.24818 139.194094 109.696429 139.665786 110.168121 
C 140.137477 110.639812 140.585726 111.134378 141.008912 111.650033 
L 141.008912 111.650033 
C 140.585726 111.134378 140.137477 110.639812 139.665786 110.168121 
C 139.194094 109.696429 138.699528 109.24818 138.183874 108.824994 
z
" clip-path="url(#pf62bca249e)" style="fill: #a1a1d8"/>
   </g>
   <g id="patch_72">
    <path d="M 135.218592 116.402026 
C 135.486238 116.728154 135.737711 117.067227 135.972103 117.418019 
C 136.206495 117.768811 136.423522 118.130899 136.622402 118.502976 
L 149.369075 111.689737 
C 148.947189 110.900442 148.486804 110.132337 147.989584 109.388195 
C 147.492364 108.644053 146.958909 107.924771 146.391145 107.232949 
z
" clip-path="url(#pf62bca249e)" style="fill: #a1a1d8"/>
   </g>
   <g id="patch_73">
    <path d="M 133.292921 120.282621 
C 133.43355 120.545719 133.561177 120.815563 133.67534 121.091179 
C 133.789504 121.366794 133.890067 121.647848 133.976666 121.933327 
L 133.976666 121.933327 
C 133.890067 121.647848 133.789504 121.366794 133.67534 121.091179 
C 133.561177 120.815563 133.43355 120.545719 133.292921 120.282621 
z
" clip-path="url(#pf62bca249e)" style="fill: #a1a1d8"/>
   </g>
   <g id="patch_74">
    <path d="M 125.254844 124.579062 
C 125.254844 124.579062 125.254844 124.579062 125.254844 124.579062 
C 125.254844 124.579062 125.254844 124.579062 125.254844 124.579062 
L 125.254844 124.579062 
C 125.254844 124.579062 125.254844 124.579062 125.254844 124.579062 
C 125.254844 124.579062 125.254844 124.579062 125.254844 124.579062 
z
" clip-path="url(#pf62bca249e)" style="fill: #a1a1d8"/>
   </g>
   <g id="patch_75">
    <path d="M 156.675604 121.484388 
C 156.776897 122.512836 156.827635 123.545638 156.827635 124.579062 
C 156.827635 125.612487 156.776897 126.645289 156.675604 127.673737 
L 156.675604 127.673737 
C 156.776897 126.645289 156.827635 125.612487 156.827635 124.579062 
C 156.827635 123.545638 156.776897 122.512836 156.675604 121.484388 
z
" clip-path="url(#pf62bca249e)" style="fill: #a1a1d8"/>
   </g>
   <g id="patch_76">
    <path d="M 186.437984 130.605076 
C 186.240743 132.607691 185.945299 134.599416 185.552717 136.573055 
C 185.160136 138.546695 184.670891 140.49987 184.08675 142.425526 
L 211.154829 150.636538 
C 212.007729 147.824903 212.722071 144.973088 213.295276 142.091393 
C 213.868481 139.209698 214.299857 136.301598 214.587846 133.377595 
z
" clip-path="url(#pf62bca249e)" style="fill: #a1a1d8"/>
   </g>
   <g id="patch_77">
    <path d="M 131.422103 126.44988 
C 131.360869 126.651744 131.28976 126.850479 131.209034 127.045369 
C 131.128308 127.240258 131.038062 127.431067 130.938623 127.617106 
L 130.938623 127.617106 
C 131.038062 127.431067 131.128308 127.240258 131.209034 127.045369 
C 131.28976 126.850479 131.360869 126.651744 131.422103 126.44988 
z
" clip-path="url(#pf62bca249e)" style="fill: #a1a1d8"/>
   </g>
   <g id="patch_78">
    <path d="M 125.254844 124.579062 
C 125.254844 124.579062 125.254844 124.579062 125.254844 124.579062 
C 125.254844 124.579062 125.254844 124.579062 125.254844 124.579062 
L 125.254844 124.579062 
C 125.254844 124.579062 125.254844 124.579062 125.254844 124.579062 
C 125.254844 124.579062 125.254844 124.579062 125.254844 124.579062 
z
" clip-path="url(#pf62bca249e)" style="fill: #a1a1d8"/>
   </g>
   <g id="patch_79">
    <path d="M 133.883702 131.660584 
C 133.651914 131.943019 133.406398 132.213904 133.148042 132.47226 
C 132.889685 132.730617 132.6188 132.976132 132.336365 133.207921 
L 132.336365 133.207921 
C 132.6188 132.976132 132.889685 132.730617 133.148042 132.47226 
C 133.406398 132.213904 133.651914 131.943019 133.883702 131.660584 
z
" clip-path="url(#pf62bca249e)" style="fill: #a1a1d8"/>
   </g>
   <g id="patch_80">
    <path d="M 139.996206 142.541464 
C 139.40827 143.023971 138.796998 143.477321 138.164599 143.899876 
C 137.5322 144.322432 136.879436 144.713684 136.208664 145.072219 
L 137.021134 146.592244 
C 137.741658 146.207115 138.44284 145.786843 139.122145 145.332946 
C 139.801451 144.879048 140.458062 144.392072 141.089607 143.873777 
z
" clip-path="url(#pf62bca249e)" style="fill: #a1a1d8"/>
   </g>
   <g id="patch_81">
    <path d="M 131.33093 135.94662 
C 130.958853 136.1455 130.577236 136.325991 130.187456 136.487443 
C 129.797677 136.648895 129.400206 136.791112 128.996479 136.913581 
L 128.996479 136.913581 
C 129.400206 136.791112 129.797677 136.648895 130.187456 136.487443 
C 130.577236 136.325991 130.958853 136.1455 131.33093 135.94662 
z
" clip-path="url(#pf62bca249e)" style="fill: #a1a1d8"/>
   </g>
   <g id="patch_82">
    <path d="M 128.996479 136.913581 
C 128.592752 137.036051 128.183255 137.138624 127.769468 137.220932 
C 127.355681 137.303239 126.938102 137.365181 126.518239 137.406534 
L 126.518239 137.406534 
C 126.938102 137.365181 127.355681 137.303239 127.769468 137.220932 
C 128.183255 137.138624 128.592752 137.036051 128.996479 136.913581 
z
" clip-path="url(#pf62bca249e)" style="fill: #a1a1d8"/>
   </g>
   <g id="patch_83">
    <path d="M 125.254844 124.579062 
C 125.254844 124.579062 125.254844 124.579062 125.254844 124.579062 
C 125.254844 124.579062 125.254844 124.579062 125.254844 124.579062 
L 125.254844 124.579062 
C 125.254844 124.579062 125.254844 124.579062 125.254844 124.579062 
C 125.254844 124.579062 125.254844 124.579062 125.254844 124.579062 
z
" clip-path="url(#pf62bca249e)" style="fill: #a1a1d8"/>
   </g>
   <g id="patch_84">
    <path d="M 125.254844 124.579062 
C 125.254844 124.579062 125.254844 124.579062 125.254844 124.579062 
C 125.254844 124.579062 125.254844 124.579062 125.254844 124.579062 
L 125.254844 124.579062 
C 125.254844 124.579062 125.254844 124.579062 125.254844 124.579062 
C 125.254844 124.579062 125.254844 124.579062 125.254844 124.579062 
z
" clip-path="url(#pf62bca249e)" style="fill: #a1a1d8"/>
   </g>
   <g id="patch_85">
    <path d="M 118.774141 145.943076 
C 118.074865 145.730953 117.386425 145.484625 116.711308 145.204983 
C 116.036191 144.92534 115.37521 144.612719 114.730754 144.26825 
L 114.730754 144.26825 
C 115.37521 144.612719 116.036191 144.92534 116.711308 145.204983 
C 117.386425 145.484625 118.074865 145.730953 118.774141 145.943076 
z
" clip-path="url(#pf62bca249e)" style="fill: #a1a1d8"/>
   </g>
   <g id="patch_86">
    <path d="M 125.254844 124.579062 
C 125.254844 124.579062 125.254844 124.579062 125.254844 124.579062 
C 125.254844 124.579062 125.254844 124.579062 125.254844 124.579062 
L 125.254844 124.579062 
C 125.254844 124.579062 125.254844 124.579062 125.254844 124.579062 
C 125.254844 124.579062 125.254844 124.579062 125.254844 124.579062 
z
" clip-path="url(#pf62bca249e)" style="fill: #a1a1d8"/>
   </g>
   <g id="patch_87">
    <path d="M 112.325814 140.333131 
C 111.81016 139.909945 111.315594 139.461696 110.843902 138.990004 
C 110.37221 138.518313 109.923962 138.023747 109.500775 137.508092 
L 109.500775 137.508092 
C 109.923962 138.023747 110.37221 138.518313 110.843902 138.990004 
C 111.315594 139.461696 111.81016 139.909945 112.325814 140.333131 
z
" clip-path="url(#pf62bca249e)" style="fill: #a1a1d8"/>
   </g>
   <g id="patch_88">
    <path d="M 114.115035 133.721267 
C 113.815797 133.356645 113.534641 132.97755 113.272584 132.585353 
C 113.010526 132.193156 112.767882 131.788328 112.545528 131.372333 
L 104.761687 135.532883 
C 105.120222 136.203654 105.511474 136.856419 105.93403 137.488818 
C 106.356585 138.121217 106.809935 138.732488 107.292442 139.320425 
z
" clip-path="url(#pf62bca249e)" style="fill: #a1a1d8"/>
   </g>
   <g id="patch_89">
    <path d="M 125.254844 124.579062 
C 125.254844 124.579062 125.254844 124.579062 125.254844 124.579062 
C 125.254844 124.579062 125.254844 124.579062 125.254844 124.579062 
L 125.254844 124.579062 
C 125.254844 124.579062 125.254844 124.579062 125.254844 124.579062 
C 125.254844 124.579062 125.254844 124.579062 125.254844 124.579062 
z
" clip-path="url(#pf62bca249e)" style="fill: #a1a1d8"/>
   </g>
   <g id="patch_90">
    <path d="M 125.254844 124.579062 
C 125.254844 124.579062 125.254844 124.579062 125.254844 124.579062 
C 125.254844 124.579062 125.254844 124.579062 125.254844 124.579062 
L 109.544464 126.1264 
C 109.59511 126.640624 109.670974 127.152052 109.771779 127.658836 
C 109.872585 128.165619 109.998211 128.667148 110.148205 129.161611 
z
" clip-path="url(#pf62bca249e)" style="fill: #a1a1d8"/>
   </g>
   <g id="patch_91">
    <path d="M 110.913295 125.991582 
C 110.867061 125.522161 110.843902 125.050754 110.843902 124.579062 
C 110.843902 124.107371 110.867061 123.635964 110.913295 123.166543 
L 98.810334 121.974506 
C 98.725083 122.840074 98.68238 123.709306 98.68238 124.579062 
C 98.68238 125.448819 98.725083 126.318051 98.810334 127.183619 
z
" clip-path="url(#pf62bca249e)" style="fill: #a1a1d8"/>
   </g>
   <g id="patch_92">
    <path d="M 125.254844 124.579062 
C 125.254844 124.579062 125.254844 124.579062 125.254844 124.579062 
C 125.254844 124.579062 125.254844 124.579062 125.254844 124.579062 
L 103.018473 117.833733 
C 102.797689 118.561563 102.612772 119.299794 102.46439 120.045759 
C 102.316008 120.791725 102.20434 121.544526 102.129791 122.301444 
z
" clip-path="url(#pf62bca249e)" style="fill: #a1a1d8"/>
   </g>
   <g id="patch_93">
    <path d="M 125.254844 124.579062 
C 125.254844 124.579062 125.254844 124.579062 125.254844 124.579062 
C 125.254844 124.579062 125.254844 124.579062 125.254844 124.579062 
L 94.123505 107.939015 
C 93.578851 108.95799 93.084555 110.003092 92.642401 111.070546 
C 92.200247 112.138 91.810768 113.226519 91.475372 114.332172 
z
" clip-path="url(#pf62bca249e)" style="fill: #a1a1d8"/>
   </g>
   <g id="patch_94">
    <path d="M 107.281157 114.971927 
C 107.595613 114.383621 107.938763 113.811109 108.309369 113.256458 
C 108.679975 112.701807 109.077589 112.165687 109.500775 111.650033 
L 93.355286 98.399772 
C 92.498399 99.443892 91.693292 100.529454 90.942872 101.652536 
C 90.192453 102.775618 89.497626 103.934867 88.860901 105.126095 
z
" clip-path="url(#pf62bca249e)" style="fill: #a1a1d8"/>
   </g>
   <g id="patch_95">
    <path d="M 92.208831 97.458901 
C 93.096514 96.377255 94.036768 95.339845 95.026197 94.350416 
C 96.015626 93.360987 97.053037 92.420733 98.134682 91.53305 
L 92.803236 85.036664 
C 91.508955 86.098854 90.267604 87.223949 89.083667 88.407886 
C 87.89973 89.591822 86.774635 90.833173 85.712446 92.127455 
z
" clip-path="url(#pf62bca249e)" style="fill: #a1a1d8"/>
   </g>
   <g id="patch_96">
    <path d="M 96.344654 89.351894 
C 97.497692 88.405621 98.696494 87.516528 99.936731 86.687829 
C 101.176967 85.859129 102.457143 85.091821 103.772635 84.388676 
L 79.684197 39.322379 
C 76.893618 40.813974 74.177955 42.44168 71.547016 44.199618 
C 68.916077 45.957555 66.373033 47.843605 63.92707 49.850954 
z
" clip-path="url(#pf62bca249e)" style="fill: #a1a1d8"/>
   </g>
   <g id="patch_97">
    <path d="M 106.775149 90.005985 
C 107.906777 89.401117 109.067421 88.852174 110.252888 88.361137 
C 111.438355 87.870101 112.647215 87.437563 113.875104 87.065088 
L 106.268118 61.988215 
C 104.219426 62.609678 102.202481 63.331353 100.224568 64.150631 
C 98.246655 64.96991 96.310159 65.885804 94.422074 66.895007 
z
" clip-path="url(#pf62bca249e)" style="fill: #a1a1d8"/>
   </g>
   <g id="patch_98">
    <path d="M 97.759551 33.939229 
C 100.726328 33.039267 103.735503 32.285508 106.776206 31.680675 
C 109.816908 31.075841 112.885474 30.620663 115.97082 30.316783 
L 115.306856 23.575451 
C 112.000857 23.901063 108.712837 24.388795 105.454673 25.036884 
C 102.196509 25.684973 98.972128 26.492638 95.793177 27.456963 
z
" clip-path="url(#pf62bca249e)" style="fill: #a1a1d8"/>
   </g>
   <g id="patch_99">
    <path d="M 119.097815 62.065699 
C 121.143971 61.86417 123.198788 61.763224 125.254844 61.763224 
C 127.3109 61.763224 129.365717 61.86417 131.411873 62.065699 
L 131.849963 57.617695 
C 129.658217 57.401827 127.457194 57.293698 125.254844 57.293698 
C 123.052493 57.293698 120.85147 57.401827 118.659725 57.617695 
z
" clip-path="url(#pf62bca249e)" style="fill: #828282"/>
   </g>
   <g id="patch_100">
    <path d="M 127.252448 104.297049 
C 127.916308 104.362434 128.576559 104.460373 129.230814 104.590512 
C 129.885069 104.720651 130.53254 104.882835 131.170889 105.076476 
L 143.869245 63.215605 
C 141.860727 62.606328 139.823507 62.096031 137.764941 61.686557 
C 135.706375 61.277083 133.628946 60.968925 131.540158 60.763197 
z
" clip-path="url(#pf62bca249e)" style="fill: #828282"/>
   </g>
   <g id="patch_101">
    <path d="M 150.837891 40.243057 
C 153.598335 41.080429 156.316002 42.052825 158.981076 43.156735 
C 161.64615 44.260645 164.255419 45.494738 166.799459 46.854555 
L 166.799459 46.854555 
C 164.255419 45.494738 161.64615 44.260645 158.981076 43.156735 
C 156.316002 42.052825 153.598335 41.080429 150.837891 40.243057 
z
" clip-path="url(#pf62bca249e)" style="fill: #828282"/>
   </g>
   <g id="patch_102">
    <path d="M 149.368563 79.465466 
C 150.845199 80.254744 152.282193 81.116045 153.674355 82.046258 
C 155.066517 82.976471 156.412169 83.974475 157.706451 85.036664 
L 160.425607 81.723363 
C 159.022876 80.572171 157.56447 79.490544 156.055657 78.482387 
C 154.546844 77.474231 152.989443 76.54076 151.389079 75.685348 
z
" clip-path="url(#pf62bca249e)" style="fill: #828282"/>
   </g>
   <g id="patch_103">
    <path d="M 138.183874 108.824994 
C 138.699528 109.24818 139.194094 109.696429 139.665786 110.168121 
C 140.137477 110.639812 140.585726 111.134378 141.008912 111.650033 
L 155.5584 99.709577 
C 154.744384 98.717696 153.882161 97.766379 152.974844 96.859062 
C 152.067527 95.951746 151.11621 95.089522 150.124329 94.275507 
z
" clip-path="url(#pf62bca249e)" style="fill: #828282"/>
   </g>
   <g id="patch_104">
    <path d="M 146.391145 107.232949 
C 146.958909 107.924771 147.492364 108.644053 147.989584 109.388195 
C 148.486804 110.132337 148.947189 110.900442 149.369075 111.689737 
L 149.369075 111.689737 
C 148.947189 110.900442 148.486804 110.132337 147.989584 109.388195 
C 147.492364 108.644053 146.958909 107.924771 146.391145 107.232949 
z
" clip-path="url(#pf62bca249e)" style="fill: #828282"/>
   </g>
   <g id="patch_105">
    <path d="M 133.292921 120.282621 
C 133.43355 120.545719 133.561177 120.815563 133.67534 121.091179 
C 133.789504 121.366794 133.890067 121.647848 133.976666 121.933327 
L 133.976666 121.933327 
C 133.890067 121.647848 133.789504 121.366794 133.67534 121.091179 
C 133.561177 120.815563 133.43355 120.545719 133.292921 120.282621 
z
" clip-path="url(#pf62bca249e)" style="fill: #828282"/>
   </g>
   <g id="patch_106">
    <path d="M 125.254844 124.579062 
C 125.254844 124.579062 125.254844 124.579062 125.254844 124.579062 
C 125.254844 124.579062 125.254844 124.579062 125.254844 124.579062 
L 125.254844 124.579062 
C 125.254844 124.579062 125.254844 124.579062 125.254844 124.579062 
C 125.254844 124.579062 125.254844 124.579062 125.254844 124.579062 
z
" clip-path="url(#pf62bca249e)" style="fill: #828282"/>
   </g>
   <g id="patch_107">
    <path d="M 156.675604 121.484388 
C 156.776897 122.512836 156.827635 123.545638 156.827635 124.579062 
C 156.827635 125.612487 156.776897 126.645289 156.675604 127.673737 
L 156.675604 127.673737 
C 156.776897 126.645289 156.827635 125.612487 156.827635 124.579062 
C 156.827635 123.545638 156.776897 122.512836 156.675604 121.484388 
z
" clip-path="url(#pf62bca249e)" style="fill: #828282"/>
   </g>
   <g id="patch_108">
    <path d="M 214.587846 133.377595 
C 214.299857 136.301598 213.868481 139.209698 213.295276 142.091393 
C 212.722071 144.973088 212.007729 147.824903 211.154829 150.636538 
L 211.154829 150.636538 
C 212.007729 147.824903 212.722071 144.973088 213.295276 142.091393 
C 213.868481 139.209698 214.299857 136.301598 214.587846 133.377595 
z
" clip-path="url(#pf62bca249e)" style="fill: #828282"/>
   </g>
   <g id="patch_109">
    <path d="M 131.422103 126.44988 
C 131.360869 126.651744 131.28976 126.850479 131.209034 127.045369 
C 131.128308 127.240258 131.038062 127.431067 130.938623 127.617106 
L 130.938623 127.617106 
C 131.038062 127.431067 131.128308 127.240258 131.209034 127.045369 
C 131.28976 126.850479 131.360869 126.651744 131.422103 126.44988 
z
" clip-path="url(#pf62bca249e)" style="fill: #828282"/>
   </g>
   <g id="patch_110">
    <path d="M 125.254844 124.579062 
C 125.254844 124.579062 125.254844 124.579062 125.254844 124.579062 
C 125.254844 124.579062 125.254844 124.579062 125.254844 124.579062 
L 125.254844 124.579062 
C 125.254844 124.579062 125.254844 124.579062 125.254844 124.579062 
C 125.254844 124.579062 125.254844 124.579062 125.254844 124.579062 
z
" clip-path="url(#pf62bca249e)" style="fill: #828282"/>
   </g>
   <g id="patch_111">
    <path d="M 133.883702 131.660584 
C 133.651914 131.943019 133.406398 132.213904 133.148042 132.47226 
C 132.889685 132.730617 132.6188 132.976132 132.336365 133.207921 
L 132.336365 133.207921 
C 132.6188 132.976132 132.889685 132.730617 133.148042 132.47226 
C 133.406398 132.213904 133.651914 131.943019 133.883702 131.660584 
z
" clip-path="url(#pf62bca249e)" style="fill: #828282"/>
   </g>
   <g id="patch_112">
    <path d="M 141.089607 143.873777 
C 140.458062 144.392072 139.801451 144.879048 139.122145 145.332946 
C 138.44284 145.786843 137.741658 146.207115 137.021134 146.592244 
L 137.021134 146.592244 
C 137.741658 146.207115 138.44284 145.786843 139.122145 145.332946 
C 139.801451 144.879048 140.458062 144.392072 141.089607 143.873777 
z
" clip-path="url(#pf62bca249e)" style="fill: #828282"/>
   </g>
   <g id="patch_113">
    <path d="M 131.33093 135.94662 
C 130.958853 136.1455 130.577236 136.325991 130.187456 136.487443 
C 129.797677 136.648895 129.400206 136.791112 128.996479 136.913581 
L 128.996479 136.913581 
C 129.400206 136.791112 129.797677 136.648895 130.187456 136.487443 
C 130.577236 136.325991 130.958853 136.1455 131.33093 135.94662 
z
" clip-path="url(#pf62bca249e)" style="fill: #828282"/>
   </g>
   <g id="patch_114">
    <path d="M 128.996479 136.913581 
C 128.592752 137.036051 128.183255 137.138624 127.769468 137.220932 
C 127.355681 137.303239 126.938102 137.365181 126.518239 137.406534 
L 126.518239 137.406534 
C 126.938102 137.365181 127.355681 137.303239 127.769468 137.220932 
C 128.183255 137.138624 128.592752 137.036051 128.996479 136.913581 
z
" clip-path="url(#pf62bca249e)" style="fill: #828282"/>
   </g>
   <g id="patch_115">
    <path d="M 125.254844 124.579062 
C 125.254844 124.579062 125.254844 124.579062 125.254844 124.579062 
C 125.254844 124.579062 125.254844 124.579062 125.254844 124.579062 
L 125.254844 124.579062 
C 125.254844 124.579062 125.254844 124.579062 125.254844 124.579062 
C 125.254844 124.579062 125.254844 124.579062 125.254844 124.579062 
z
" clip-path="url(#pf62bca249e)" style="fill: #828282"/>
   </g>
   <g id="patch_116">
    <path d="M 125.254844 124.579062 
C 125.254844 124.579062 125.254844 124.579062 125.254844 124.579062 
C 125.254844 124.579062 125.254844 124.579062 125.254844 124.579062 
L 125.254844 124.579062 
C 125.254844 124.579062 125.254844 124.579062 125.254844 124.579062 
C 125.254844 124.579062 125.254844 124.579062 125.254844 124.579062 
z
" clip-path="url(#pf62bca249e)" style="fill: #828282"/>
   </g>
   <g id="patch_117">
    <path d="M 118.774141 145.943076 
C 118.074865 145.730953 117.386425 145.484625 116.711308 145.204983 
C 116.036191 144.92534 115.37521 144.612719 114.730754 144.26825 
L 114.730754 144.26825 
C 115.37521 144.612719 116.036191 144.92534 116.711308 145.204983 
C 117.386425 145.484625 118.074865 145.730953 118.774141 145.943076 
z
" clip-path="url(#pf62bca249e)" style="fill: #828282"/>
   </g>
   <g id="patch_118">
    <path d="M 125.254844 124.579062 
C 125.254844 124.579062 125.254844 124.579062 125.254844 124.579062 
C 125.254844 124.579062 125.254844 124.579062 125.254844 124.579062 
L 125.254844 124.579062 
C 125.254844 124.579062 125.254844 124.579062 125.254844 124.579062 
C 125.254844 124.579062 125.254844 124.579062 125.254844 124.579062 
z
" clip-path="url(#pf62bca249e)" style="fill: #828282"/>
   </g>
   <g id="patch_119">
    <path d="M 112.325814 140.333131 
C 111.81016 139.909945 111.315594 139.461696 110.843902 138.990004 
C 110.37221 138.518313 109.923962 138.023747 109.500775 137.508092 
L 109.500775 137.508092 
C 109.923962 138.023747 110.37221 138.518313 110.843902 138.990004 
C 111.315594 139.461696 111.81016 139.909945 112.325814 140.333131 
z
" clip-path="url(#pf62bca249e)" style="fill: #828282"/>
   </g>
   <g id="patch_120">
    <path d="M 107.292442 139.320425 
C 106.809935 138.732488 106.356585 138.121217 105.93403 137.488818 
C 105.511474 136.856419 105.120222 136.203654 104.761687 135.532883 
L 104.761687 135.532883 
C 105.120222 136.203654 105.511474 136.856419 105.93403 137.488818 
C 106.356585 138.121217 106.809935 138.732488 107.292442 139.320425 
z
" clip-path="url(#pf62bca249e)" style="fill: #828282"/>
   </g>
   <g id="patch_121">
    <path d="M 125.254844 124.579062 
C 125.254844 124.579062 125.254844 124.579062 125.254844 124.579062 
C 125.254844 124.579062 125.254844 124.579062 125.254844 124.579062 
L 119.087584 126.44988 
C 119.148819 126.651744 119.219928 126.850479 119.300653 127.045369 
C 119.381379 127.240258 119.471625 127.431067 119.571065 127.617106 
z
" clip-path="url(#pf62bca249e)" style="fill: #828282"/>
   </g>
   <g id="patch_122">
    <path d="M 110.148205 129.161611 
C 109.998211 128.667148 109.872585 128.165619 109.771779 127.658836 
C 109.670974 127.152052 109.59511 126.640624 109.544464 126.1264 
L 109.544464 126.1264 
C 109.59511 126.640624 109.670974 127.152052 109.771779 127.658836 
C 109.872585 128.165619 109.998211 128.667148 110.148205 129.161611 
z
" clip-path="url(#pf62bca249e)" style="fill: #828282"/>
   </g>
   <g id="patch_123">
    <path d="M 98.810334 127.183619 
C 98.725083 126.318051 98.68238 125.448819 98.68238 124.579062 
C 98.68238 123.709306 98.725083 122.840074 98.810334 121.974506 
L 98.810334 121.974506 
C 98.725083 122.840074 98.68238 123.709306 98.68238 124.579062 
C 98.68238 125.448819 98.725083 126.318051 98.810334 127.183619 
z
" clip-path="url(#pf62bca249e)" style="fill: #828282"/>
   </g>
   <g id="patch_124">
    <path d="M 102.129791 122.301444 
C 102.20434 121.544526 102.316008 120.791725 102.46439 120.045759 
C 102.612772 119.299794 102.797689 118.561563 103.018473 117.833733 
L 103.018473 117.833733 
C 102.797689 118.561563 102.612772 119.299794 102.46439 120.045759 
C 102.316008 120.791725 102.20434 121.544526 102.129791 122.301444 
z
" clip-path="url(#pf62bca249e)" style="fill: #828282"/>
   </g>
   <g id="patch_125">
    <path d="M 91.475372 114.332172 
C 91.810768 113.226519 92.200247 112.138 92.642401 111.070546 
C 93.084555 110.003092 93.578851 108.95799 94.123505 107.939015 
L 91.15217 106.350804 
C 90.555532 107.467035 90.014058 108.611887 89.529702 109.781224 
C 89.045347 110.950562 88.618695 112.142975 88.251287 113.354156 
z
" clip-path="url(#pf62bca249e)" style="fill: #828282"/>
   </g>
   <g id="patch_126">
    <path d="M 88.860901 105.126095 
C 89.497626 103.934867 90.192453 102.775618 90.942872 101.652536 
C 91.693292 100.529454 92.498399 99.443892 93.355286 98.399772 
L 93.355286 98.399772 
C 92.498399 99.443892 91.693292 100.529454 90.942872 101.652536 
C 90.192453 102.775618 89.497626 103.934867 88.860901 105.126095 
z
" clip-path="url(#pf62bca249e)" style="fill: #828282"/>
   </g>
   <g id="patch_127">
    <path d="M 85.712446 92.127455 
C 86.774635 90.833173 87.89973 89.591822 89.083667 88.407886 
C 90.267604 87.223949 91.508955 86.098854 92.803236 85.036664 
L 77.750555 66.694919 
C 75.85592 68.249805 74.038768 69.896776 72.305663 71.629881 
C 70.572557 73.362987 68.925586 75.180139 67.3707 77.074773 
z
" clip-path="url(#pf62bca249e)" style="fill: #828282"/>
   </g>
   <g id="patch_128">
    <path d="M 63.92707 49.850954 
C 66.373033 47.843605 68.916077 45.957555 71.547016 44.199618 
C 74.177955 42.44168 76.893618 40.813974 79.684197 39.322379 
L 72.986374 26.791633 
C 69.785645 28.502458 66.670842 30.369399 63.653216 32.385712 
C 60.63559 34.402025 57.718778 36.56528 54.913316 38.867663 
z
" clip-path="url(#pf62bca249e)" style="fill: #828282"/>
   </g>
   <g id="patch_129">
    <path d="M 94.422074 66.895007 
C 96.310159 65.885804 98.246655 64.96991 100.224568 64.150631 
C 102.202481 63.331353 104.219426 62.609678 106.268118 61.988215 
L 102.3421 49.045868 
C 99.869785 49.795836 97.435783 50.666737 95.048883 51.655423 
C 92.661984 52.644109 90.325064 53.749389 88.046566 54.967272 
z
" clip-path="url(#pf62bca249e)" style="fill: #828282"/>
   </g>
   <g id="patch_130">
    <path d="M 95.793177 27.456963 
C 98.972128 26.492638 102.196509 25.684973 105.454673 25.036884 
C 108.712837 24.388795 112.000857 23.901063 115.306856 23.575451 
L 114.971548 20.171009 
C 111.554116 20.507596 108.15527 21.011767 104.787286 21.681701 
C 101.419302 22.351635 98.086239 23.186524 94.800138 24.183352 
z
" clip-path="url(#pf62bca249e)" style="fill: #828282"/>
   </g>
   <g id="patch_131">
    <path d="M 125.254844 124.579062 
C 125.254844 124.579062 125.254844 124.579062 125.254844 124.579062 
C 125.254844 124.579062 125.254844 124.579062 125.254844 124.579062 
L 131.849963 57.617695 
C 129.658217 57.401827 127.457194 57.293698 125.254844 57.293698 
C 123.052493 57.293698 120.85147 57.401827 118.659725 57.617695 
L 125.254844 124.579062 
z
" clip-path="url(#pf62bca249e)" style="fill: none; stroke: #292929; stroke-width: 0.5; stroke-linejoin: miter"/>
   </g>
   <g id="patch_132">
    <path d="M 125.254844 124.579062 
C 125.254844 124.579062 125.254844 124.579062 125.254844 124.579062 
C 125.254844 124.579062 125.254844 124.579062 125.254844 124.579062 
L 143.869245 63.215605 
C 141.860727 62.606328 139.823507 62.096031 137.764941 61.686557 
C 135.706375 61.277083 133.628946 60.968925 131.540158 60.763197 
L 125.254844 124.579062 
z
" clip-path="url(#pf62bca249e)" style="fill: none; stroke: #292929; stroke-width: 0.5; stroke-linejoin: miter"/>
   </g>
   <g id="patch_133">
    <path d="M 125.254844 124.579062 
C 125.254844 124.579062 125.254844 124.579062 125.254844 124.579062 
C 125.254844 124.579062 125.254844 124.579062 125.254844 124.579062 
L 166.799459 46.854555 
C 164.255419 45.494738 161.64615 44.260645 158.981076 43.156735 
C 156.316002 42.052825 153.598335 41.080429 150.837891 40.243057 
L 125.254844 124.579062 
z
" clip-path="url(#pf62bca249e)" style="fill: none; stroke: #292929; stroke-width: 0.5; stroke-linejoin: miter"/>
   </g>
   <g id="patch_134">
    <path d="M 125.254844 124.579062 
C 125.254844 124.579062 125.254844 124.579062 125.254844 124.579062 
C 125.254844 124.579062 125.254844 124.579062 125.254844 124.579062 
L 160.425607 81.723363 
C 159.022876 80.572171 157.56447 79.490544 156.055657 78.482387 
C 154.546844 77.474231 152.989443 76.54076 151.389079 75.685348 
L 125.254844 124.579062 
z
" clip-path="url(#pf62bca249e)" style="fill: none; stroke: #292929; stroke-width: 0.5; stroke-linejoin: miter"/>
   </g>
   <g id="patch_135">
    <path d="M 125.254844 124.579062 
C 125.254844 124.579062 125.254844 124.579062 125.254844 124.579062 
C 125.254844 124.579062 125.254844 124.579062 125.254844 124.579062 
L 155.5584 99.709577 
C 154.744384 98.717696 153.882161 97.766379 152.974844 96.859062 
C 152.067527 95.951746 151.11621 95.089522 150.124329 94.275507 
L 125.254844 124.579062 
z
" clip-path="url(#pf62bca249e)" style="fill: none; stroke: #292929; stroke-width: 0.5; stroke-linejoin: miter"/>
   </g>
   <g id="patch_136">
    <path d="M 125.254844 124.579062 
C 125.254844 124.579062 125.254844 124.579062 125.254844 124.579062 
C 125.254844 124.579062 125.254844 124.579062 125.254844 124.579062 
L 149.369075 111.689737 
C 148.947189 110.900442 148.486804 110.132337 147.989584 109.388195 
C 147.492364 108.644053 146.958909 107.924771 146.391145 107.232949 
L 125.254844 124.579062 
z
" clip-path="url(#pf62bca249e)" style="fill: none; stroke: #292929; stroke-width: 0.5; stroke-linejoin: miter"/>
   </g>
   <g id="patch_137">
    <path d="M 125.254844 124.579062 
C 125.254844 124.579062 125.254844 124.579062 125.254844 124.579062 
C 125.254844 124.579062 125.254844 124.579062 125.254844 124.579062 
L 133.976666 121.933327 
C 133.890067 121.647848 133.789504 121.366794 133.67534 121.091179 
C 133.561177 120.815563 133.43355 120.545719 133.292921 120.282621 
L 125.254844 124.579062 
z
" clip-path="url(#pf62bca249e)" style="fill: none; stroke: #292929; stroke-width: 0.5; stroke-linejoin: miter"/>
   </g>
   <g id="patch_138">
    <path d="M 125.254844 124.579062 
C 125.254844 124.579062 125.254844 124.579062 125.254844 124.579062 
C 125.254844 124.579062 125.254844 124.579062 125.254844 124.579062 
L 125.254844 124.579062 
C 125.254844 124.579062 125.254844 124.579062 125.254844 124.579062 
C 125.254844 124.579062 125.254844 124.579062 125.254844 124.579062 
L 125.254844 124.579062 
z
" clip-path="url(#pf62bca249e)" style="fill: none; stroke: #292929; stroke-width: 0.5; stroke-linejoin: miter"/>
   </g>
   <g id="patch_139">
    <path d="M 125.254844 124.579062 
C 125.254844 124.579062 125.254844 124.579062 125.254844 124.579062 
C 125.254844 124.579062 125.254844 124.579062 125.254844 124.579062 
L 156.675604 127.673737 
C 156.776897 126.645289 156.827635 125.612487 156.827635 124.579062 
C 156.827635 123.545638 156.776897 122.512836 156.675604 121.484388 
L 125.254844 124.579062 
z
" clip-path="url(#pf62bca249e)" style="fill: none; stroke: #292929; stroke-width: 0.5; stroke-linejoin: miter"/>
   </g>
   <g id="patch_140">
    <path d="M 125.254844 124.579062 
C 125.254844 124.579062 125.254844 124.579062 125.254844 124.579062 
C 125.254844 124.579062 125.254844 124.579062 125.254844 124.579062 
L 211.154829 150.636538 
C 212.007729 147.824903 212.722071 144.973088 213.295276 142.091393 
C 213.868481 139.209698 214.299857 136.301598 214.587846 133.377595 
L 125.254844 124.579062 
z
" clip-path="url(#pf62bca249e)" style="fill: none; stroke: #292929; stroke-width: 0.5; stroke-linejoin: miter"/>
   </g>
   <g id="patch_141">
    <path d="M 125.254844 124.579062 
C 125.254844 124.579062 125.254844 124.579062 125.254844 124.579062 
C 125.254844 124.579062 125.254844 124.579062 125.254844 124.579062 
L 130.938623 127.617106 
C 131.038062 127.431067 131.128308 127.240258 131.209034 127.045369 
C 131.28976 126.850479 131.360869 126.651744 131.422103 126.44988 
L 125.254844 124.579062 
z
" clip-path="url(#pf62bca249e)" style="fill: none; stroke: #292929; stroke-width: 0.5; stroke-linejoin: miter"/>
   </g>
   <g id="patch_142">
    <path d="M 125.254844 124.579062 
C 125.254844 124.579062 125.254844 124.579062 125.254844 124.579062 
C 125.254844 124.579062 125.254844 124.579062 125.254844 124.579062 
L 125.254844 124.579062 
C 125.254844 124.579062 125.254844 124.579062 125.254844 124.579062 
C 125.254844 124.579062 125.254844 124.579062 125.254844 124.579062 
L 125.254844 124.579062 
z
" clip-path="url(#pf62bca249e)" style="fill: none; stroke: #292929; stroke-width: 0.5; stroke-linejoin: miter"/>
   </g>
   <g id="patch_143">
    <path d="M 125.254844 124.579062 
C 125.254844 124.579062 125.254844 124.579062 125.254844 124.579062 
C 125.254844 124.579062 125.254844 124.579062 125.254844 124.579062 
L 132.336365 133.207921 
C 132.6188 132.976132 132.889685 132.730617 133.148042 132.47226 
C 133.406398 132.213904 133.651914 131.943019 133.883702 131.660584 
L 125.254844 124.579062 
z
" clip-path="url(#pf62bca249e)" style="fill: none; stroke: #292929; stroke-width: 0.5; stroke-linejoin: miter"/>
   </g>
   <g id="patch_144">
    <path d="M 125.254844 124.579062 
C 125.254844 124.579062 125.254844 124.579062 125.254844 124.579062 
C 125.254844 124.579062 125.254844 124.579062 125.254844 124.579062 
L 137.021134 146.592244 
C 137.741658 146.207115 138.44284 145.786843 139.122145 145.332946 
C 139.801451 144.879048 140.458062 144.392072 141.089607 143.873777 
L 125.254844 124.579062 
z
" clip-path="url(#pf62bca249e)" style="fill: none; stroke: #292929; stroke-width: 0.5; stroke-linejoin: miter"/>
   </g>
   <g id="patch_145">
    <path d="M 125.254844 124.579062 
C 125.254844 124.579062 125.254844 124.579062 125.254844 124.579062 
C 125.254844 124.579062 125.254844 124.579062 125.254844 124.579062 
L 128.996479 136.913581 
C 129.400206 136.791112 129.797677 136.648895 130.187456 136.487443 
C 130.577236 136.325991 130.958853 136.1455 131.33093 135.94662 
L 125.254844 124.579062 
z
" clip-path="url(#pf62bca249e)" style="fill: none; stroke: #292929; stroke-width: 0.5; stroke-linejoin: miter"/>
   </g>
   <g id="patch_146">
    <path d="M 125.254844 124.579062 
C 125.254844 124.579062 125.254844 124.579062 125.254844 124.579062 
C 125.254844 124.579062 125.254844 124.579062 125.254844 124.579062 
L 126.518239 137.406534 
C 126.938102 137.365181 127.355681 137.303239 127.769468 137.220932 
C 128.183255 137.138624 128.592752 137.036051 128.996479 136.913581 
L 125.254844 124.579062 
z
" clip-path="url(#pf62bca249e)" style="fill: none; stroke: #292929; stroke-width: 0.5; stroke-linejoin: miter"/>
   </g>
   <g id="patch_147">
    <path d="M 125.254844 124.579062 
C 125.254844 124.579062 125.254844 124.579062 125.254844 124.579062 
C 125.254844 124.579062 125.254844 124.579062 125.254844 124.579062 
L 125.254844 124.579062 
C 125.254844 124.579062 125.254844 124.579062 125.254844 124.579062 
C 125.254844 124.579062 125.254844 124.579062 125.254844 124.579062 
L 125.254844 124.579062 
z
" clip-path="url(#pf62bca249e)" style="fill: none; stroke: #292929; stroke-width: 0.5; stroke-linejoin: miter"/>
   </g>
   <g id="patch_148">
    <path d="M 125.254844 124.579062 
C 125.254844 124.579062 125.254844 124.579062 125.254844 124.579062 
C 125.254844 124.579062 125.254844 124.579062 125.254844 124.579062 
L 125.254844 124.579062 
C 125.254844 124.579062 125.254844 124.579062 125.254844 124.579062 
C 125.254844 124.579062 125.254844 124.579062 125.254844 124.579062 
L 125.254844 124.579062 
z
" clip-path="url(#pf62bca249e)" style="fill: none; stroke: #292929; stroke-width: 0.5; stroke-linejoin: miter"/>
   </g>
   <g id="patch_149">
    <path d="M 125.254844 124.579062 
C 125.254844 124.579062 125.254844 124.579062 125.254844 124.579062 
C 125.254844 124.579062 125.254844 124.579062 125.254844 124.579062 
L 114.730754 144.26825 
C 115.37521 144.612719 116.036191 144.92534 116.711308 145.204983 
C 117.386425 145.484625 118.074865 145.730953 118.774141 145.943076 
L 125.254844 124.579062 
z
" clip-path="url(#pf62bca249e)" style="fill: none; stroke: #292929; stroke-width: 0.5; stroke-linejoin: miter"/>
   </g>
   <g id="patch_150">
    <path d="M 125.254844 124.579062 
C 125.254844 124.579062 125.254844 124.579062 125.254844 124.579062 
C 125.254844 124.579062 125.254844 124.579062 125.254844 124.579062 
L 125.254844 124.579062 
C 125.254844 124.579062 125.254844 124.579062 125.254844 124.579062 
C 125.254844 124.579062 125.254844 124.579062 125.254844 124.579062 
L 125.254844 124.579062 
z
" clip-path="url(#pf62bca249e)" style="fill: none; stroke: #292929; stroke-width: 0.5; stroke-linejoin: miter"/>
   </g>
   <g id="patch_151">
    <path d="M 125.254844 124.579062 
C 125.254844 124.579062 125.254844 124.579062 125.254844 124.579062 
C 125.254844 124.579062 125.254844 124.579062 125.254844 124.579062 
L 109.500775 137.508092 
C 109.923962 138.023747 110.37221 138.518313 110.843902 138.990004 
C 111.315594 139.461696 111.81016 139.909945 112.325814 140.333131 
L 125.254844 124.579062 
z
" clip-path="url(#pf62bca249e)" style="fill: none; stroke: #292929; stroke-width: 0.5; stroke-linejoin: miter"/>
   </g>
   <g id="patch_152">
    <path d="M 125.254844 124.579062 
C 125.254844 124.579062 125.254844 124.579062 125.254844 124.579062 
C 125.254844 124.579062 125.254844 124.579062 125.254844 124.579062 
L 104.761687 135.532883 
C 105.120222 136.203654 105.511474 136.856419 105.93403 137.488818 
C 106.356585 138.121217 106.809935 138.732488 107.292442 139.320425 
L 125.254844 124.579062 
z
" clip-path="url(#pf62bca249e)" style="fill: none; stroke: #292929; stroke-width: 0.5; stroke-linejoin: miter"/>
   </g>
   <g id="patch_153">
    <path d="M 125.254844 124.579062 
C 125.254844 124.579062 125.254844 124.579062 125.254844 124.579062 
C 125.254844 124.579062 125.254844 124.579062 125.254844 124.579062 
L 119.087584 126.44988 
C 119.148819 126.651744 119.219928 126.850479 119.300653 127.045369 
C 119.381379 127.240258 119.471625 127.431067 119.571065 127.617106 
L 125.254844 124.579062 
z
" clip-path="url(#pf62bca249e)" style="fill: none; stroke: #292929; stroke-width: 0.5; stroke-linejoin: miter"/>
   </g>
   <g id="patch_154">
    <path d="M 125.254844 124.579062 
C 125.254844 124.579062 125.254844 124.579062 125.254844 124.579062 
C 125.254844 124.579062 125.254844 124.579062 125.254844 124.579062 
L 109.544464 126.1264 
C 109.59511 126.640624 109.670974 127.152052 109.771779 127.658836 
C 109.872585 128.165619 109.998211 128.667148 110.148205 129.161611 
L 125.254844 124.579062 
z
" clip-path="url(#pf62bca249e)" style="fill: none; stroke: #292929; stroke-width: 0.5; stroke-linejoin: miter"/>
   </g>
   <g id="patch_155">
    <path d="M 125.254844 124.579062 
C 125.254844 124.579062 125.254844 124.579062 125.254844 124.579062 
C 125.254844 124.579062 125.254844 124.579062 125.254844 124.579062 
L 98.810334 121.974506 
C 98.725083 122.840074 98.68238 123.709306 98.68238 124.579062 
C 98.68238 125.448819 98.725083 126.318051 98.810334 127.183619 
L 125.254844 124.579062 
z
" clip-path="url(#pf62bca249e)" style="fill: none; stroke: #292929; stroke-width: 0.5; stroke-linejoin: miter"/>
   </g>
   <g id="patch_156">
    <path d="M 125.254844 124.579062 
C 125.254844 124.579062 125.254844 124.579062 125.254844 124.579062 
C 125.254844 124.579062 125.254844 124.579062 125.254844 124.579062 
L 103.018473 117.833733 
C 102.797689 118.561563 102.612772 119.299794 102.46439 120.045759 
C 102.316008 120.791725 102.20434 121.544526 102.129791 122.301444 
L 125.254844 124.579062 
z
" clip-path="url(#pf62bca249e)" style="fill: none; stroke: #292929; stroke-width: 0.5; stroke-linejoin: miter"/>
   </g>
   <g id="patch_157">
    <path d="M 125.254844 124.579062 
C 125.254844 124.579062 125.254844 124.579062 125.254844 124.579062 
C 125.254844 124.579062 125.254844 124.579062 125.254844 124.579062 
L 91.15217 106.350804 
C 90.555532 107.467035 90.014058 108.611887 89.529702 109.781224 
C 89.045347 110.950562 88.618695 112.142975 88.251287 113.354156 
L 125.254844 124.579062 
z
" clip-path="url(#pf62bca249e)" style="fill: none; stroke: #292929; stroke-width: 0.5; stroke-linejoin: miter"/>
   </g>
   <g id="patch_158">
    <path d="M 125.254844 124.579062 
C 125.254844 124.579062 125.254844 124.579062 125.254844 124.579062 
C 125.254844 124.579062 125.254844 124.579062 125.254844 124.579062 
L 93.355286 98.399772 
C 92.498399 99.443892 91.693292 100.529454 90.942872 101.652536 
C 90.192453 102.775618 89.497626 103.934867 88.860901 105.126095 
L 125.254844 124.579062 
z
" clip-path="url(#pf62bca249e)" style="fill: none; stroke: #292929; stroke-width: 0.5; stroke-linejoin: miter"/>
   </g>
   <g id="patch_159">
    <path d="M 125.254844 124.579062 
C 125.254844 124.579062 125.254844 124.579062 125.254844 124.579062 
C 125.254844 124.579062 125.254844 124.579062 125.254844 124.579062 
L 77.750555 66.694919 
C 75.85592 68.249805 74.038768 69.896776 72.305663 71.629881 
C 70.572557 73.362987 68.925586 75.180139 67.3707 77.074773 
L 125.254844 124.579062 
z
" clip-path="url(#pf62bca249e)" style="fill: none; stroke: #292929; stroke-width: 0.5; stroke-linejoin: miter"/>
   </g>
   <g id="patch_160">
    <path d="M 125.254844 124.579062 
C 125.254844 124.579062 125.254844 124.579062 125.254844 124.579062 
C 125.254844 124.579062 125.254844 124.579062 125.254844 124.579062 
L 72.986374 26.791633 
C 69.785645 28.502458 66.670842 30.369399 63.653216 32.385712 
C 60.63559 34.402025 57.718778 36.56528 54.913316 38.867663 
L 125.254844 124.579062 
z
" clip-path="url(#pf62bca249e)" style="fill: none; stroke: #292929; stroke-width: 0.5; stroke-linejoin: miter"/>
   </g>
   <g id="patch_161">
    <path d="M 125.254844 124.579062 
C 125.254844 124.579062 125.254844 124.579062 125.254844 124.579062 
C 125.254844 124.579062 125.254844 124.579062 125.254844 124.579062 
L 102.3421 49.045868 
C 99.869785 49.795836 97.435783 50.666737 95.048883 51.655423 
C 92.661984 52.644109 90.325064 53.749389 88.046566 54.967272 
L 125.254844 124.579062 
z
" clip-path="url(#pf62bca249e)" style="fill: none; stroke: #292929; stroke-width: 0.5; stroke-linejoin: miter"/>
   </g>
   <g id="patch_162">
    <path d="M 125.254844 124.579062 
C 125.254844 124.579062 125.254844 124.579062 125.254844 124.579062 
C 125.254844 124.579062 125.254844 124.579062 125.254844 124.579062 
L 114.971548 20.171009 
C 111.554116 20.507596 108.15527 21.011767 104.787286 21.681701 
C 101.419302 22.351635 98.086239 23.186524 94.800138 24.183352 
L 125.254844 124.579062 
z
" clip-path="url(#pf62bca249e)" style="fill: none; stroke: #292929; stroke-width: 0.5; stroke-linejoin: miter"/>
   </g>
   <g id="PathCollection_1">
    <defs>
     <path id="ma0f43d7691" d="M 0.193618 7.414054 
L 0.193618 7.414054 
C 0.054922 7.414054 -0.078235 7.358899 -0.176308 7.260826 
C -0.274381 7.162753 -0.329536 7.029596 -0.329536 6.890901 
L -0.329536 5.365008 
L -1.528416 6.56393 
L -1.528416 6.56393 
C -1.577018 6.612704 -1.634775 6.651408 -1.698366 6.677814 
C -1.761958 6.704221 -1.830141 6.717815 -1.898997 6.717815 
C -1.967853 6.717815 -2.036037 6.704221 -2.099628 6.677814 
C -2.163219 6.651408 -2.220976 6.612704 -2.269578 6.56393 
L -2.269578 6.56393 
C -2.318353 6.515327 -2.357056 6.457571 -2.383463 6.393979 
C -2.409869 6.330388 -2.423463 6.262205 -2.423463 6.193348 
C -2.423463 6.124492 -2.409869 6.056309 -2.383463 5.992718 
C -2.357056 5.929126 -2.318353 5.87137 -2.269578 5.822767 
L -0.329536 3.884106 
L -0.329536 0.820937 
L -2.98067 2.351538 
L -3.691824 5.001416 
L -3.691824 5.001416 
C -3.727584 5.135411 -3.815199 5.249836 -3.93523 5.319305 
C -4.055261 5.388775 -4.198123 5.407741 -4.332122 5.371997 
L -4.332122 5.371997 
C -4.466126 5.336237 -4.580558 5.248616 -4.650029 5.128576 
C -4.719499 5.008535 -4.73846 4.865662 -4.702703 4.731657 
L -4.262647 3.092721 
L -5.585535 3.855668 
L -5.585535 3.855668 
C -5.645013 3.890144 -5.710708 3.912561 -5.778854 3.921634 
C -5.847001 3.930706 -5.916272 3.926258 -5.982698 3.908543 
C -6.049125 3.890828 -6.111412 3.860192 -6.165991 3.818391 
C -6.220571 3.77659 -6.266379 3.724437 -6.300791 3.664922 
L -6.300791 3.664922 
C -6.335212 3.605364 -6.35755 3.539597 -6.366524 3.471396 
C -6.375498 3.403194 -6.370933 3.333888 -6.35309 3.267452 
C -6.335248 3.201017 -6.304476 3.138749 -6.26254 3.08422 
C -6.220605 3.029692 -6.168323 2.983966 -6.108695 2.949666 
L -4.785807 2.186762 
L -6.424743 1.746706 
L -6.424743 1.746706 
C -6.558747 1.710946 -6.673179 1.623325 -6.74265 1.503284 
C -6.81212 1.383244 -6.831081 1.240371 -6.795324 1.106366 
L -6.795324 1.106366 
C -6.777471 1.039969 -6.746703 0.977739 -6.704784 0.923241 
C -6.662864 0.868744 -6.61061 0.823041 -6.551015 0.788752 
C -6.491421 0.754464 -6.425647 0.732257 -6.357465 0.723406 
C -6.289282 0.714554 -6.220019 0.71923 -6.153645 0.737166 
L -3.505232 1.44698 
L -0.852424 -0.08496 
L -3.503767 -1.615666 
L -6.153645 -0.905851 
L -6.153645 -0.905851 
C -6.22011 -0.887939 -6.289462 -0.883321 -6.357716 -0.892262 
C -6.42597 -0.901202 -6.491793 -0.923527 -6.551403 -0.957953 
C -6.611013 -0.992379 -6.663247 -1.038234 -6.705103 -1.092883 
C -6.746958 -1.147533 -6.777619 -1.209911 -6.795324 -1.276432 
L -6.795324 -1.276432 
C -6.831068 -1.410431 -6.812101 -1.553293 -6.742632 -1.673324 
C -6.673162 -1.793355 -6.558738 -1.88097 -6.424743 -1.91673 
L -4.785807 -2.355447 
L -6.108695 -3.119732 
L -6.108695 -3.119732 
C -6.228699 -3.188976 -6.316415 -3.303132 -6.352417 -3.436921 
C -6.388419 -3.57071 -6.369839 -3.713469 -6.300791 -3.833586 
L -6.300791 -3.833586 
C -6.266491 -3.893214 -6.220765 -3.945496 -6.166237 -3.987431 
C -6.111708 -4.029367 -6.04944 -4.060139 -5.983005 -4.077981 
C -5.91657 -4.095823 -5.847263 -4.100389 -5.779062 -4.091415 
C -5.71086 -4.082441 -5.645094 -4.060102 -5.585535 -4.025682 
L -4.262647 -3.261396 
L -4.702703 -4.900332 
L -4.702703 -4.900332 
C -4.73846 -5.034337 -4.719499 -5.17721 -4.650029 -5.29725 
C -4.580558 -5.417291 -4.466126 -5.504912 -4.332122 -5.540672 
L -4.332122 -5.540672 
C -4.19831 -5.576464 -4.055613 -5.557686 -3.935617 -5.488496 
C -3.81562 -5.419305 -3.727882 -5.305212 -3.691824 -5.171472 
L -2.982009 -2.521594 
L -0.329411 -0.990302 
L -0.329411 -4.051588 
L -2.269453 -5.991589 
L -2.269453 -5.991589 
C -2.318227 -6.040191 -2.356931 -6.097947 -2.383337 -6.161539 
C -2.409744 -6.22513 -2.423338 -6.293314 -2.423338 -6.36217 
C -2.423338 -6.431026 -2.409744 -6.499209 -2.383337 -6.5628 
C -2.356931 -6.626392 -2.318227 -6.684149 -2.269453 -6.732751 
L -2.269453 -6.732751 
C -2.22085 -6.781526 -2.163094 -6.820229 -2.099502 -6.846635 
C -2.035911 -6.873042 -1.967728 -6.886636 -1.898871 -6.886636 
C -1.830015 -6.886636 -1.761832 -6.873042 -1.698241 -6.846635 
C -1.634649 -6.820229 -1.576893 -6.781526 -1.52829 -6.732751 
L -0.329411 -5.533829 
L -0.329411 -7.059722 
L -0.329411 -7.059722 
C -0.329411 -7.198418 -0.274255 -7.331575 -0.176182 -7.429647 
C -0.07811 -7.52772 0.055047 -7.582875 0.193743 -7.582875 
L 0.193743 -7.582875 
C 0.332439 -7.582875 0.465596 -7.52772 0.563669 -7.429647 
C 0.661741 -7.331575 0.716897 -7.198418 0.716897 -7.059722 
L 0.716897 -5.533829 
L 1.915777 -6.732751 
L 1.915777 -6.732751 
C 1.964379 -6.781526 2.022136 -6.820229 2.085727 -6.846635 
C 2.149318 -6.873042 2.217502 -6.886636 2.286358 -6.886636 
C 2.355214 -6.886636 2.423397 -6.873042 2.486989 -6.846635 
C 2.55058 -6.820229 2.608337 -6.781526 2.656939 -6.732751 
L 2.656939 -6.732751 
C 2.705714 -6.684149 2.744417 -6.626392 2.770823 -6.5628 
C 2.79723 -6.499209 2.810824 -6.431026 2.810824 -6.36217 
C 2.810824 -6.293314 2.79723 -6.22513 2.770823 -6.161539 
C 2.744417 -6.097947 2.705714 -6.040191 2.656939 -5.991589 
L 0.716897 -4.051588 
L 0.716897 -0.991139 
L 3.369495 -2.522954 
L 4.07931 -5.171367 
L 4.07931 -5.171367 
C 4.115368 -5.305107 4.203106 -5.4192 4.323103 -5.488391 
C 4.4431 -5.557582 4.585797 -5.576359 4.719608 -5.540567 
L 4.719608 -5.540567 
C 4.853612 -5.504807 4.968045 -5.417186 5.037515 -5.297146 
C 5.106986 -5.177105 5.125946 -5.034232 5.090189 -4.900227 
L 4.650133 -3.262673 
L 5.973022 -4.025577 
L 5.973022 -4.025577 
C 6.03258 -4.059998 6.098346 -4.082336 6.166548 -4.09131 
C 6.234749 -4.100284 6.304056 -4.095719 6.370491 -4.077876 
C 6.436926 -4.060034 6.499194 -4.029262 6.553723 -3.987327 
C 6.608252 -3.945391 6.653978 -3.893109 6.688277 -3.833481 
L 6.688277 -3.833481 
C 6.757325 -3.713365 6.775905 -3.570605 6.739903 -3.436816 
C 6.703901 -3.303027 6.616186 -3.188871 6.496181 -3.119628 
L 5.173293 -2.355342 
L 6.812229 -1.916625 
L 6.812229 -1.916625 
C 6.946224 -1.880865 7.060649 -1.79325 7.130118 -1.67322 
C 7.199588 -1.553189 7.218554 -1.410326 7.18281 -1.276327 
L 7.18281 -1.276327 
C 7.165106 -1.209806 7.134445 -1.147429 7.092589 -1.092779 
C 7.050733 -1.038129 6.998499 -0.992274 6.938889 -0.957848 
C 6.879279 -0.923422 6.813456 -0.901098 6.745202 -0.892157 
C 6.676949 -0.883217 6.607597 -0.887835 6.541131 -0.905746 
L 3.891253 -1.615561 
L 1.239492 -0.084604 
L 3.892718 1.447085 
L 6.541131 0.73727 
L 6.541131 0.73727 
C 6.674948 0.701466 6.817656 0.720237 6.937662 0.789429 
C 7.057669 0.858621 7.145413 0.972721 7.181471 1.10647 
L 7.181471 1.10647 
C 7.217274 1.240293 7.198497 1.383006 7.129297 1.503014 
C 7.060096 1.623021 6.945986 1.710762 6.812229 1.74681 
L 5.173293 2.186866 
L 6.496181 2.949771 
L 6.496181 2.949771 
C 6.555697 2.984183 6.607849 3.029991 6.649651 3.08457 
C 6.691452 3.13915 6.722088 3.201437 6.739803 3.267863 
C 6.757517 3.33429 6.761966 3.403561 6.752893 3.471707 
C 6.743821 3.539854 6.721404 3.605549 6.686927 3.665026 
L 6.686927 3.665026 
C 6.617458 3.784813 6.503196 3.87225 6.369416 3.907994 
C 6.235636 3.943739 6.092989 3.924946 5.973032 3.855772 
L 4.650144 3.091487 
L 5.08886 4.731783 
L 5.08886 4.731783 
C 5.124664 4.865606 5.105887 5.008319 5.036686 5.128326 
C 4.967486 5.248334 4.853376 5.336074 4.719619 5.372123 
L 4.719619 5.372123 
C 4.585619 5.407867 4.442757 5.3889 4.322726 5.319431 
C 4.202695 5.249961 4.115081 5.135537 4.07932 5.001542 
L 3.368166 2.351664 
L 0.717033 0.821063 
L 0.717033 3.884232 
L 2.657075 5.822893 
L 2.657075 5.822893 
C 2.70585 5.871495 2.744553 5.929252 2.770959 5.992843 
C 2.797366 6.056435 2.81096 6.124618 2.81096 6.193474 
C 2.81096 6.26233 2.797366 6.330514 2.770959 6.394105 
C 2.744553 6.457696 2.70585 6.515453 2.657075 6.564055 
L 2.657075 6.564055 
C 2.608473 6.61283 2.550716 6.651533 2.487125 6.67794 
C 2.423533 6.704346 2.35535 6.71794 2.286494 6.71794 
C 2.217638 6.71794 2.149454 6.704346 2.085863 6.67794 
C 2.022272 6.651533 1.964515 6.61283 1.915913 6.564055 
L 0.717033 5.365133 
L 0.717033 6.891026 
L 0.717033 6.891026 
C 0.717033 7.029722 0.661877 7.162879 0.563805 7.260952 
C 0.465732 7.359024 0.332575 7.41418 0.193879 7.41418 
L 0.193618 7.414054 
z
"/>
    </defs>
    <g clip-path="url(#pf62bca249e)">
     <use xlink:href="#ma0f43d7691" x="119.054484" y="52.038895" style="fill: #9e2096; fill-opacity: 0.7"/>
    </g>
   </g>
   <g id="patch_163">
    <path d="M 125.254844 13.699062 
C 110.694216 13.699062 96.275171 16.567189 82.822905 22.1393 
C 69.370638 27.711411 57.146763 35.879144 46.850844 46.175063 
C 36.554925 56.470982 28.387192 68.694857 22.815081 82.147124 
C 17.24297 95.59939 14.374844 110.018434 14.374844 124.579062 
C 14.374844 139.139691 17.24297 153.558735 22.815081 167.011001 
C 28.387192 180.463268 36.554925 192.687143 46.850844 202.983062 
C 57.146763 213.278981 69.370638 221.446714 82.822905 227.018825 
C 96.275171 232.590936 110.694216 235.459062 125.254844 235.459062 
C 139.815472 235.459062 154.234516 232.590936 167.686783 227.018825 
C 181.139049 221.446714 193.362925 213.278981 203.658844 202.983062 
C 213.954763 192.687143 222.122495 180.463268 227.694606 167.011001 
C 233.266717 153.558735 236.134844 139.139691 236.134844 124.579062 
C 236.134844 110.018434 233.266717 95.59939 227.694606 82.147124 
C 222.122495 68.694857 213.954763 56.470982 203.658844 46.175063 
C 193.362925 35.879144 181.139049 27.711411 167.686783 22.1393 
C 154.234516 16.567189 139.815472 13.699062 125.254844 13.699062 
" style="fill: none; stroke: #000000; stroke-width: 0.8; stroke-linejoin: miter; stroke-linecap: square"/>
   </g>
  </g>
 </g>
 <defs>
  <clipPath id="pf62bca249e">
   <path d="M 236.134844 124.579062 
C 236.134844 110.018434 233.266717 95.59939 227.694606 82.147124 
C 222.122495 68.694857 213.954763 56.470982 203.658844 46.175063 
C 193.362925 35.879144 181.139049 27.711411 167.686783 22.1393 
C 154.234516 16.567189 139.815472 13.699062 125.254844 13.699062 
C 110.694216 13.699062 96.275171 16.567189 82.822905 22.1393 
C 69.370638 27.711411 57.146763 35.879144 46.850844 46.175063 
C 36.554925 56.470982 28.387192 68.694857 22.815081 82.147124 
C 17.24297 95.59939 14.374844 110.018434 14.374844 124.579062 
C 14.374844 139.139691 17.24297 153.558735 22.815081 167.011001 
C 28.387192 180.463268 36.554925 192.687143 46.850844 202.983062 
C 57.146763 213.278981 69.370638 221.446714 82.822905 227.018825 
C 96.275171 232.590936 110.694216 235.459062 125.254844 235.459062 
C 139.815472 235.459062 154.234516 232.590936 167.686783 227.018825 
C 181.139049 221.446714 193.362925 213.278981 203.658844 202.983062 
C 213.954763 192.687143 222.122495 180.463268 227.694606 167.011001 
C 233.266717 153.558735 236.134844 139.139691 236.134844 124.579063 
M 125.254844 124.579062 
C 125.254844 124.579062 125.254844 124.579062 125.254844 124.579062 
C 125.254844 124.579062 125.254844 124.579062 125.254844 124.579062 
C 125.254844 124.579062 125.254844 124.579062 125.254844 124.579062 
C 125.254844 124.579062 125.254844 124.579062 125.254844 124.579062 
C 125.254844 124.579062 125.254844 124.579062 125.254844 124.579062 
C 125.254844 124.579062 125.254844 124.579062 125.254844 124.579062 
C 125.254844 124.579062 125.254844 124.579062 125.254844 124.579062 
C 125.254844 124.579062 125.254844 124.579062 125.254844 124.579062 
C 125.254844 124.579062 125.254844 124.579062 125.254844 124.579062 
C 125.254844 124.579062 125.254844 124.579062 125.254844 124.579062 
C 125.254844 124.579062 125.254844 124.579062 125.254844 124.579062 
C 125.254844 124.579062 125.254844 124.579062 125.254844 124.579062 
C 125.254844 124.579062 125.254844 124.579062 125.254844 124.579062 
C 125.254844 124.579062 125.254844 124.579062 125.254844 124.579062 
C 125.254844 124.579062 125.254844 124.579062 125.254844 124.579062 
C 125.254844 124.579062 125.254844 124.579062 125.254844 124.579062 
z
"/>
  </clipPath>
 </defs>
</svg>
