<?xml version="1.0" encoding="utf-8" standalone="no"?>
<!DOCTYPE svg PUBLIC "-//W3C//DTD SVG 1.1//EN"
  "http://www.w3.org/Graphics/SVG/1.1/DTD/svg11.dtd">
<svg xmlns:xlink="http://www.w3.org/1999/xlink" width="248.410469pt" height="249.158125pt" viewBox="0 0 248.410469 249.158125" xmlns="http://www.w3.org/2000/svg" version="1.1">
 <title>Ski Rose for Les Contamines</title>
 <metadata>
  <rdf:RDF xmlns:dc="http://purl.org/dc/elements/1.1/" xmlns:cc="http://creativecommons.org/ns#" xmlns:rdf="http://www.w3.org/1999/02/22-rdf-syntax-ns#">
   <cc:Work>
    <dc:type rdf:resource="http://purl.org/dc/dcmitype/StillImage"/>
    <dc:title>Ski Rose for Les Contamines</dc:title>
    <dc:date>2025-03-22T10:27:52.930066</dc:date>
    <dc:description>A 32-bin stacked histogram of downhill ski run orientations colored by difficulty.</dc:description>
    <dc:format>image/svg+xml</dc:format>
    <dc:source>https://openskimap.org/?obj=10f2ef5a778b65fdea26f0662b08e83c8b979356</dc:source>
    <dc:creator>
     <cc:Agent>
      <dc:title>https://github.com/dhimmel/openskistats</dc:title>
     </cc:Agent>
    </dc:creator>
    <dc:rights>
     <cc:Agent>
      <dc:title>https://creativecommons.org/licenses/by/4.0/</dc:title>
     </cc:Agent>
    </dc:rights>
   </cc:Work>
  </rdf:RDF>
 </metadata>
 <defs>
  <style type="text/css">*{stroke-linejoin: round; stroke-linecap: butt}</style>
 </defs>
 <g id="figure_1">
  <g id="patch_1">
   <path d="M 0 249.158125 
L 248.410469 249.158125 
L 248.410469 0 
L 0 0 
z
" style="fill: #ffffff"/>
  </g>
  <g id="axes_1">
   <g id="patch_2">
    <path d="M 236.134844 124.579063 
C 236.134844 110.018434 233.266717 95.59939 227.694606 82.147124 
C 222.122495 68.694857 213.954763 56.470982 203.658844 46.175063 
C 193.362925 35.879144 181.139049 27.711411 167.686783 22.1393 
C 154.234516 16.567189 139.815472 13.699062 125.254844 13.699062 
C 110.694216 13.699062 96.275171 16.567189 82.822905 22.1393 
C 69.370638 27.711411 57.146763 35.879144 46.850844 46.175063 
C 36.554925 56.470982 28.387192 68.694857 22.815081 82.147124 
C 17.24297 95.59939 14.374844 110.018434 14.374844 124.579062 
C 14.374844 139.139691 17.24297 153.558735 22.815081 167.011001 
C 28.387192 180.463268 36.554925 192.687143 46.850844 202.983062 
C 57.146763 213.278981 69.370638 221.446714 82.822905 227.018825 
C 96.275171 232.590936 110.694216 235.459063 125.254844 235.459063 
C 139.815472 235.459063 154.234516 232.590936 167.686783 227.018825 
C 181.139049 221.446714 193.362925 213.278981 203.658844 202.983062 
C 213.954763 192.687143 222.122495 180.463268 227.694606 167.011001 
C 233.266717 153.558735 236.134844 139.139691 236.134844 124.579063 
M 125.254844 124.579063 
C 125.254844 124.579063 125.254844 124.579063 125.254844 124.579063 
C 125.254844 124.579063 125.254844 124.579063 125.254844 124.579063 
C 125.254844 124.579063 125.254844 124.579063 125.254844 124.579063 
C 125.254844 124.579063 125.254844 124.579063 125.254844 124.579063 
C 125.254844 124.579063 125.254844 124.579063 125.254844 124.579063 
C 125.254844 124.579063 125.254844 124.579063 125.254844 124.579063 
C 125.254844 124.579063 125.254844 124.579063 125.254844 124.579063 
C 125.254844 124.579063 125.254844 124.579063 125.254844 124.579063 
C 125.254844 124.579063 125.254844 124.579063 125.254844 124.579063 
C 125.254844 124.579063 125.254844 124.579063 125.254844 124.579063 
C 125.254844 124.579063 125.254844 124.579063 125.254844 124.579063 
C 125.254844 124.579063 125.254844 124.579063 125.254844 124.579063 
C 125.254844 124.579063 125.254844 124.579063 125.254844 124.579063 
C 125.254844 124.579063 125.254844 124.579063 125.254844 124.579063 
C 125.254844 124.579063 125.254844 124.579063 125.254844 124.579063 
C 125.254844 124.579063 125.254844 124.579063 125.254844 124.579063 
z
" style="fill: #ffffff"/>
   </g>
   <g id="PolyCollection_1">
    <defs>
     <path id="mc2b82428d0" d="M 235.421969 -137.131021 
L 234.888592 -137.07025 
L 233.943234 -135.044564 
L 233.115177 -133.067855 
L 232.02328 -131.1093 
L 231.084564 -129.199688 
L 229.892421 -127.319094 
L 228.658508 -125.481453 
L 227.599297 -123.685916 
L 226.294093 -121.933257 
L 225.169779 -120.216682 
L 223.803339 -118.551578 
L 222.621761 -116.91612 
L 221.202132 -115.340389 
L 219.970069 -113.787626 
L 218.504456 -112.302518 
L 217.228224 -110.833549 
L 215.931669 -109.404966 
L 214.409126 -108.055293 
L 213.077351 -106.711371 
L 211.729462 -105.408101 
L 210.366804 -104.145489 
L 208.789921 -102.975423 
L 207.403572 -101.797204 
L 206.006569 -100.659312 
L 204.60023 -99.561558 
L 203.185862 -98.503708 
L 201.95512 -97.41807 
L 200.526138 -96.436279 
L 199.092882 -95.493486 
L 197.656622 -94.589264 
L 196.218618 -93.723135 
L 194.957338 -92.813806 
L 193.516539 -92.019904 
L 192.248972 -91.177022 
L 190.809792 -90.453316 
L 189.539893 -89.675129 
L 188.26874 -88.927515 
L 186.838207 -88.303689 
L 185.570322 -87.61769 
L 184.303777 -86.960743 
L 183.039374 -86.332316 
L 181.777896 -85.731845 
L 180.520103 -85.158736 
L 179.266735 -84.612365 
L 178.018509 -84.092078 
L 176.776115 -83.597193 
L 175.54022 -83.126997 
L 174.311463 -82.680751 
L 173.210281 -82.151676 
L 171.993706 -81.750786 
L 170.785971 -81.371636 
L 169.696154 -80.906709 
L 168.503639 -80.568768 
L 167.422491 -80.143633 
L 166.246927 -79.844054 
L 165.175995 -79.45641 
L 164.108939 -79.086761 
L 162.959502 -78.839655 
L 161.9046 -78.504004 
L 160.854436 -78.184771 
L 159.733666 -77.983609 
L 158.697126 -77.694712 
L 157.665963 -77.420591 
L 156.64035 -77.160735 
L 155.620435 -76.914632 
L 154.606344 -76.681767 
L 153.598182 -76.461623 
L 152.596025 -76.253688 
L 151.599932 -76.057447 
L 150.609933 -75.87239 
L 149.626037 -75.698012 
L 148.648228 -75.533812 
L 147.67647 -75.379295 
L 146.710698 -75.233975 
L 145.750829 -75.097376 
L 144.796756 -74.969029 
L 143.848347 -74.848479 
L 142.929081 -74.668557 
L 141.98915 -74.565492 
L 141.054471 -74.469046 
L 140.124834 -74.378816 
L 139.200009 -74.29442 
L 138.292933 -74.16451 
L 137.375145 -74.094373 
L 136.461497 -74.029115 
L 135.560049 -73.927358 
L 134.652316 -73.87484 
L 133.747925 -73.82641 
L 132.846542 -73.781825 
L 131.951316 -73.714309 
L 131.053959 -73.680878 
L 130.158682 -73.650752 
L 129.266335 -73.60823 
L 128.373561 -73.588494 
L 127.481872 -73.571727 
L 126.590994 -73.553524 
L 125.700196 -73.546742 
L 124.809492 -73.546841 
L 123.918819 -73.558348 
L 123.027863 -73.572808 
L 122.136229 -73.590164 
L 121.244739 -73.625844 
L 120.35126 -73.653396 
L 119.456096 -73.684103 
L 118.562343 -73.744474 
L 117.663771 -73.786007 
L 116.762558 -73.831162 
L 115.858357 -73.880156 
L 114.95915 -73.974112 
L 114.049573 -74.035352 
L 113.136171 -74.101156 
L 112.231784 -74.222626 
L 111.311804 -74.302087 
L 110.38728 -74.387008 
L 109.457962 -74.477754 
L 108.544813 -74.638045 
L 107.607611 -74.744814 
L 106.665086 -74.858498 
L 105.717067 -74.979527 
L 104.7634 -75.108342 
L 103.803956 -75.245399 
L 102.874987 -75.470948 
L 101.906585 -75.62842 
L 100.932224 -75.795435 
L 99.951861 -75.972485 
L 98.965474 -76.160068 
L 97.973068 -76.358688 
L 96.97467 -76.568854 
L 95.970329 -76.791077 
L 94.96012 -77.025871 
L 93.944141 -77.27375 
L 92.854455 -77.436204 
L 91.823909 -77.710621 
L 90.788001 -77.999798 
L 89.746925 -78.304242 
L 88.700898 -78.624455 
L 87.564273 -78.856744 
L 86.50559 -79.209516 
L 85.442735 -79.57966 
L 84.279097 -79.861882 
L 83.205353 -80.268145 
L 82.024009 -80.587045 
L 80.940811 -81.031784 
L 79.743365 -81.390282 
L 78.536576 -81.769658 
L 77.440632 -82.276622 
L 76.220604 -82.699866 
L 74.992847 -83.14627 
L 73.888555 -83.720471 
L 72.650902 -84.214638 
L 71.407376 -84.734032 
L 70.158665 -85.27934 
L 68.905484 -85.85122 
L 67.648567 -86.4503 
L 66.388673 -87.077176 
L 64.971424 -87.637335 
L 63.704707 -88.323261 
L 62.437489 -89.038713 
L 61.170605 -89.78416 
L 59.736966 -90.472614 
L 58.470437 -91.281586 
L 57.032969 -92.038898 
L 55.770685 -92.913307 
L 54.333736 -93.741687 
L 53.079704 -94.683141 
L 51.647743 -95.584454 
L 50.218697 -96.524197 
L 48.793837 -97.5028 
L 47.374442 -98.520645 
L 45.961806 -99.578064 
L 44.557228 -100.67534 
L 43.162016 -101.812707 
L 41.777489 -102.990351 
L 40.404968 -104.20841 
L 39.045783 -105.466974 
L 37.701271 -106.766087 
L 36.372774 -108.105745 
L 34.853869 -109.451128 
L 33.560378 -110.875233 
L 32.287102 -112.339627 
L 30.824771 -113.820115 
L 29.595419 -115.368108 
L 28.178791 -116.939011 
L 26.999633 -118.569516 
L 25.635831 -120.229602 
L 24.513552 -121.941059 
L 23.210455 -123.688535 
L 22.152675 -125.478821 
L 20.919926 -127.311168 
L 19.728053 -129.186462 
L 18.78843 -131.090827 
L 17.693359 -133.044335 
L 16.859751 -135.016323 
L 15.903392 -137.038087 
L 15.108237 -137.128683 
L 15.108237 -137.128683 
L 14.973711 -135.197928 
L 14.747425 -133.276185 
L 14.679075 -131.342166 
L 14.519065 -129.413891 
L 14.456724 -127.480413 
L 14.485921 -125.545728 
L 14.424716 -123.611863 
L 14.518569 -121.679331 
L 14.523336 -119.74442 
L 14.616448 -117.812128 
L 14.869307 -115.891532 
L 14.905347 -113.953615 
L 15.154189 -112.034677 
L 15.432628 -110.120694 
L 15.631484 -108.195742 
L 15.898599 -106.279103 
L 16.339591 -104.392814 
L 16.634946 -102.480095 
L 17.06448 -100.593836 
L 17.447111 -98.696716 
L 17.934417 -96.824113 
L 18.451327 -94.959826 
L 18.99793 -93.104331 
L 19.652942 -91.282911 
L 20.171966 -89.418824 
L 20.810279 -87.593302 
L 21.400715 -85.749595 
L 22.099568 -83.945119 
L 22.829122 -82.15294 
L 23.589793 -80.37384 
L 24.382089 -78.6087 
L 25.21592 -76.862944 
L 26.076616 -75.130622 
L 26.910025 -73.38399 
L 27.844203 -71.6894 
L 28.763683 -69.986991 
L 29.73256 -68.312137 
L 30.722023 -66.649275 
L 31.757583 -65.014738 
L 32.808949 -63.39046 
L 33.892373 -61.787376 
L 35.565993 -60.604627 
L 37.388664 -59.56151 
L 39.297883 -58.621967 
L 41.092362 -57.633201 
L 42.959003 -56.739607 
L 44.823979 -55.884614 
L 46.691796 -55.072349 
L 48.496766 -54.243243 
L 50.354075 -53.500887 
L 52.152621 -52.741709 
L 53.947056 -52.015731 
L 55.789129 -51.377473 
L 57.570878 -50.714975 
L 59.346018 -50.082686 
L 61.113895 -49.479661 
L 62.873922 -48.904953 
L 64.581977 -48.302815 
L 66.326603 -47.782283 
L 68.061949 -47.287301 
L 69.753028 -46.768387 
L 71.47051 -46.322371 
L 73.143061 -45.846747 
L 74.841554 -45.446048 
L 76.501513 -45.020858 
L 78.150611 -44.611944 
L 79.795336 -44.229654 
L 81.429024 -43.861944 
L 83.057969 -43.519621 
L 84.675855 -43.190203 
L 86.288754 -42.884957 
L 87.890722 -42.590981 
L 89.487583 -42.319994 
L 91.073787 -42.058692 
L 92.638946 -41.778781 
L 94.213627 -41.555557 
L 95.767291 -41.308782 
L 97.325851 -41.108102 
L 98.879535 -40.92727 
L 100.41632 -40.725612 
L 101.948475 -40.539013 
L 103.482149 -40.390297 
L 105.004675 -40.231038 
L 106.529119 -40.112779 
L 108.042839 -39.979356 
L 109.552932 -39.85913 
L 111.05963 -39.751809 
L 112.565075 -39.669835 
L 114.065263 -39.585761 
L 115.562885 -39.513828 
L 117.058217 -39.45384 
L 118.552582 -39.41875 
L 120.043869 -39.380376 
L 121.533815 -39.353498 
L 123.022717 -39.337585 
L 124.5109 -39.331605 
L 125.99879 -39.331292 
L 127.486988 -39.336914 
L 128.975915 -39.352508 
L 130.465899 -39.379058 
L 131.957235 -39.417106 
L 133.450225 -39.466769 
L 134.94709 -39.511306 
L 136.444801 -39.582895 
L 137.945092 -39.66663 
L 139.44823 -39.762732 
L 140.957425 -39.855515 
L 142.467645 -39.97544 
L 143.981501 -40.108569 
L 145.506192 -40.226128 
L 147.028888 -40.385081 
L 148.555867 -40.558287 
L 150.094966 -40.720214 
L 151.631937 -40.921612 
L 153.18599 -41.101665 
L 154.733775 -41.333128 
L 156.298475 -41.549098 
L 157.873608 -41.771506 
L 159.439011 -42.051181 
L 161.025225 -42.312818 
L 162.62262 -42.582962 
L 164.224569 -42.877335 
L 165.83806 -43.181723 
L 167.434634 -43.552439 
L 169.085491 -43.853052 
L 170.719093 -44.221275 
L 172.364526 -44.602692 
L 174.013498 -45.012171 
L 175.674225 -45.436488 
L 177.373062 -45.837025 
L 179.045418 -46.313291 
L 180.729143 -46.806963 
L 182.455187 -47.277235 
L 184.190887 -47.772116 
L 185.891625 -48.348181 
L 187.643598 -48.895452 
L 189.40395 -49.470109 
L 191.172152 -50.073099 
L 192.947614 -50.705366 
L 194.729683 -51.367858 
L 196.517629 -52.061526 
L 198.367664 -52.731295 
L 200.166539 -53.490518 
L 202.023288 -54.233744 
L 203.828535 -55.062933 
L 205.697562 -55.874491 
L 207.561873 -56.730384 
L 209.363758 -57.675811 
L 211.224254 -58.612414 
L 213.066966 -59.60151 
L 214.894567 -60.639669 
L 216.629544 -61.778971 
L 217.698699 -63.391809 
L 218.7648 -65.006651 
L 219.775443 -66.656765 
L 220.756292 -68.32441 
L 221.726175 -69.998209 
L 222.636555 -71.705107 
L 223.575182 -73.396734 
L 224.453426 -75.120474 
L 225.286024 -76.866637 
L 226.041942 -78.647736 
L 226.916412 -80.375354 
L 227.694265 -82.147265 
L 228.401781 -83.948404 
L 229.027017 -85.780237 
L 229.701409 -87.592594 
L 230.328897 -89.421776 
L 230.979981 -91.244055 
L 231.508467 -93.105305 
L 231.991078 -94.978485 
L 232.601451 -96.817342 
L 232.995438 -98.712834 
L 233.476885 -100.586814 
L 233.788406 -102.49766 
L 234.234764 -104.380828 
L 234.60646 -106.279878 
L 234.825247 -108.203656 
L 235.12293 -110.114655 
L 235.41122 -112.028329 
L 235.477813 -113.965798 
L 235.68845 -115.887749 
L 235.861488 -117.81407 
L 235.98052 -119.744675 
L 236.081558 -121.676963 
L 235.962191 -123.612934 
L 235.992303 -125.545454 
L 235.973338 -127.478328 
L 235.935289 -129.411475 
L 235.863958 -131.344206 
L 235.760055 -133.276011 
L 235.607576 -135.204822 
L 235.421969 -137.131021 
z
" style="stroke: #ffee9c"/>
    </defs>
    <g clip-path="url(#pdc2b2c367a)">
     <use xlink:href="#mc2b82428d0" x="0" y="249.158125" style="fill: #ffee9c; stroke: #ffee9c"/>
    </g>
   </g>
   <g id="matplotlib.axis_1">
    <g id="xtick_1">
     <g id="line2d_1">
      <path d="M 125.254844 124.579062 
L 125.254844 13.699062 
" clip-path="url(#pdc2b2c367a)" style="fill: none; stroke: #b0b0b0; stroke-width: 0.8; stroke-linecap: square"/>
     </g>
     <g id="text_1">
      <!-- N -->
      <g transform="translate(121.070469 7.958438) scale(0.1 -0.1)">
       <defs>
        <path id="DejaVuSans-Bold-4e" d="M 588 4666 
L 1931 4666 
L 3628 1466 
L 3628 4666 
L 4769 4666 
L 4769 0 
L 3425 0 
L 1728 3200 
L 1728 0 
L 588 0 
L 588 4666 
z
" transform="scale(0.015625)"/>
       </defs>
       <use xlink:href="#DejaVuSans-Bold-4e"/>
      </g>
     </g>
    </g>
    <g id="xtick_2">
     <g id="line2d_2">
      <path d="M 125.254844 124.579062 
L 203.658844 46.175063 
" clip-path="url(#pdc2b2c367a)" style="fill: none; stroke: #b0b0b0; stroke-width: 0.8; stroke-linecap: square"/>
     </g>
    </g>
    <g id="xtick_3">
     <g id="line2d_3">
      <path d="M 125.254844 124.579062 
L 236.134844 124.579062 
" clip-path="url(#pdc2b2c367a)" style="fill: none; stroke: #b0b0b0; stroke-width: 0.8; stroke-linecap: square"/>
     </g>
     <g id="text_2">
      <!-- E -->
      <g transform="translate(241.219219 127.338437) scale(0.1 -0.1)">
       <defs>
        <path id="DejaVuSans-Bold-45" d="M 588 4666 
L 3834 4666 
L 3834 3756 
L 1791 3756 
L 1791 2888 
L 3713 2888 
L 3713 1978 
L 1791 1978 
L 1791 909 
L 3903 909 
L 3903 0 
L 588 0 
L 588 4666 
z
" transform="scale(0.015625)"/>
       </defs>
       <use xlink:href="#DejaVuSans-Bold-45"/>
      </g>
     </g>
    </g>
    <g id="xtick_4">
     <g id="line2d_4">
      <path d="M 125.254844 124.579062 
L 203.658844 202.983062 
" clip-path="url(#pdc2b2c367a)" style="fill: none; stroke: #b0b0b0; stroke-width: 0.8; stroke-linecap: square"/>
     </g>
    </g>
    <g id="xtick_5">
     <g id="line2d_5">
      <path d="M 125.254844 124.579062 
L 125.254844 235.459063 
" clip-path="url(#pdc2b2c367a)" style="fill: none; stroke: #b0b0b0; stroke-width: 0.8; stroke-linecap: square"/>
     </g>
     <g id="text_3">
      <!-- S -->
      <g transform="translate(121.654062 246.718437) scale(0.1 -0.1)">
       <defs>
        <path id="DejaVuSans-Bold-53" d="M 3834 4519 
L 3834 3531 
Q 3450 3703 3084 3790 
Q 2719 3878 2394 3878 
Q 1963 3878 1756 3759 
Q 1550 3641 1550 3391 
Q 1550 3203 1689 3098 
Q 1828 2994 2194 2919 
L 2706 2816 
Q 3484 2659 3812 2340 
Q 4141 2022 4141 1434 
Q 4141 663 3683 286 
Q 3225 -91 2284 -91 
Q 1841 -91 1394 -6 
Q 947 78 500 244 
L 500 1259 
Q 947 1022 1364 901 
Q 1781 781 2169 781 
Q 2563 781 2772 912 
Q 2981 1044 2981 1288 
Q 2981 1506 2839 1625 
Q 2697 1744 2272 1838 
L 1806 1941 
Q 1106 2091 782 2419 
Q 459 2747 459 3303 
Q 459 4000 909 4375 
Q 1359 4750 2203 4750 
Q 2588 4750 2994 4692 
Q 3400 4634 3834 4519 
z
" transform="scale(0.015625)"/>
       </defs>
       <use xlink:href="#DejaVuSans-Bold-53"/>
      </g>
     </g>
    </g>
    <g id="xtick_6">
     <g id="line2d_6">
      <path d="M 125.254844 124.579062 
L 46.850844 202.983062 
" clip-path="url(#pdc2b2c367a)" style="fill: none; stroke: #b0b0b0; stroke-width: 0.8; stroke-linecap: square"/>
     </g>
    </g>
    <g id="xtick_7">
     <g id="line2d_7">
      <path d="M 125.254844 124.579062 
L 14.374844 124.579063 
" clip-path="url(#pdc2b2c367a)" style="fill: none; stroke: #b0b0b0; stroke-width: 0.8; stroke-linecap: square"/>
     </g>
     <g id="text_4">
      <!-- W -->
      <g transform="translate(0.36 127.338438) scale(0.1 -0.1)">
       <defs>
        <path id="DejaVuSans-Bold-57" d="M 191 4666 
L 1344 4666 
L 2150 1275 
L 2950 4666 
L 4109 4666 
L 4909 1275 
L 5716 4666 
L 6859 4666 
L 5759 0 
L 4372 0 
L 3525 3547 
L 2688 0 
L 1300 0 
L 191 4666 
z
" transform="scale(0.015625)"/>
       </defs>
       <use xlink:href="#DejaVuSans-Bold-57"/>
      </g>
     </g>
    </g>
    <g id="xtick_8">
     <g id="line2d_8">
      <path d="M 125.254844 124.579062 
L 46.850844 46.175063 
" clip-path="url(#pdc2b2c367a)" style="fill: none; stroke: #b0b0b0; stroke-width: 0.8; stroke-linecap: square"/>
     </g>
    </g>
   </g>
   <g id="matplotlib.axis_2"/>
   <g id="patch_3">
    <path d="M 125.254844 124.579062 
C 125.254844 124.579062 125.254844 124.579062 125.254844 124.579062 
C 125.254844 124.579062 125.254844 124.579062 125.254844 124.579062 
L 126.208567 114.895749 
C 125.891618 114.864532 125.573327 114.848895 125.254844 114.848895 
C 124.936361 114.848895 124.61807 114.864532 124.301121 114.895749 
z
" clip-path="url(#pdc2b2c367a)" style="fill: #d9d9d9"/>
   </g>
   <g id="patch_4">
    <path d="M 125.254844 124.579062 
C 125.254844 124.579062 125.254844 124.579062 125.254844 124.579062 
C 125.254844 124.579062 125.254844 124.579062 125.254844 124.579062 
L 125.254844 124.579062 
C 125.254844 124.579062 125.254844 124.579062 125.254844 124.579062 
C 125.254844 124.579062 125.254844 124.579062 125.254844 124.579062 
z
" clip-path="url(#pdc2b2c367a)" style="fill: #d9d9d9"/>
   </g>
   <g id="patch_5">
    <path d="M 125.254844 124.579062 
C 125.254844 124.579062 125.254844 124.579062 125.254844 124.579062 
C 125.254844 124.579062 125.254844 124.579062 125.254844 124.579062 
L 125.254844 124.579062 
C 125.254844 124.579062 125.254844 124.579062 125.254844 124.579062 
C 125.254844 124.579062 125.254844 124.579062 125.254844 124.579062 
z
" clip-path="url(#pdc2b2c367a)" style="fill: #d9d9d9"/>
   </g>
   <g id="patch_6">
    <path d="M 125.254844 124.579062 
C 125.254844 124.579062 125.254844 124.579062 125.254844 124.579062 
C 125.254844 124.579062 125.254844 124.579062 125.254844 124.579062 
L 125.254844 124.579062 
C 125.254844 124.579062 125.254844 124.579062 125.254844 124.579062 
C 125.254844 124.579062 125.254844 124.579062 125.254844 124.579062 
z
" clip-path="url(#pdc2b2c367a)" style="fill: #d9d9d9"/>
   </g>
   <g id="patch_7">
    <path d="M 125.254844 124.579062 
C 125.254844 124.579062 125.254844 124.579062 125.254844 124.579062 
C 125.254844 124.579062 125.254844 124.579062 125.254844 124.579062 
L 125.254844 124.579062 
C 125.254844 124.579062 125.254844 124.579062 125.254844 124.579062 
C 125.254844 124.579062 125.254844 124.579062 125.254844 124.579062 
z
" clip-path="url(#pdc2b2c367a)" style="fill: #d9d9d9"/>
   </g>
   <g id="patch_8">
    <path d="M 125.254844 124.579062 
C 125.254844 124.579062 125.254844 124.579062 125.254844 124.579062 
C 125.254844 124.579062 125.254844 124.579062 125.254844 124.579062 
L 125.254844 124.579062 
C 125.254844 124.579062 125.254844 124.579062 125.254844 124.579062 
C 125.254844 124.579062 125.254844 124.579062 125.254844 124.579062 
z
" clip-path="url(#pdc2b2c367a)" style="fill: #d9d9d9"/>
   </g>
   <g id="patch_9">
    <path d="M 125.254844 124.579062 
C 125.254844 124.579062 125.254844 124.579062 125.254844 124.579062 
C 125.254844 124.579062 125.254844 124.579062 125.254844 124.579062 
L 125.254844 124.579062 
C 125.254844 124.579062 125.254844 124.579062 125.254844 124.579062 
C 125.254844 124.579062 125.254844 124.579062 125.254844 124.579062 
z
" clip-path="url(#pdc2b2c367a)" style="fill: #d9d9d9"/>
   </g>
   <g id="patch_10">
    <path d="M 125.254844 124.579062 
C 125.254844 124.579062 125.254844 124.579062 125.254844 124.579062 
C 125.254844 124.579062 125.254844 124.579062 125.254844 124.579062 
L 125.254844 124.579062 
C 125.254844 124.579062 125.254844 124.579062 125.254844 124.579062 
C 125.254844 124.579062 125.254844 124.579062 125.254844 124.579062 
z
" clip-path="url(#pdc2b2c367a)" style="fill: #d9d9d9"/>
   </g>
   <g id="patch_11">
    <path d="M 125.254844 124.579062 
C 125.254844 124.579062 125.254844 124.579062 125.254844 124.579062 
C 125.254844 124.579062 125.254844 124.579062 125.254844 124.579062 
L 125.254844 124.579062 
C 125.254844 124.579062 125.254844 124.579062 125.254844 124.579062 
C 125.254844 124.579062 125.254844 124.579062 125.254844 124.579062 
z
" clip-path="url(#pdc2b2c367a)" style="fill: #d9d9d9"/>
   </g>
   <g id="patch_12">
    <path d="M 125.254844 124.579062 
C 125.254844 124.579062 125.254844 124.579062 125.254844 124.579062 
C 125.254844 124.579062 125.254844 124.579062 125.254844 124.579062 
L 125.254844 124.579062 
C 125.254844 124.579062 125.254844 124.579062 125.254844 124.579062 
C 125.254844 124.579062 125.254844 124.579062 125.254844 124.579062 
z
" clip-path="url(#pdc2b2c367a)" style="fill: #d9d9d9"/>
   </g>
   <g id="patch_13">
    <path d="M 125.254844 124.579062 
C 125.254844 124.579062 125.254844 124.579062 125.254844 124.579062 
C 125.254844 124.579062 125.254844 124.579062 125.254844 124.579062 
L 130.872585 127.581808 
C 130.970869 127.397931 131.060066 127.209339 131.139854 127.016714 
C 131.219642 126.824089 131.289925 126.627662 131.350448 126.428144 
z
" clip-path="url(#pdc2b2c367a)" style="fill: #d9d9d9"/>
   </g>
   <g id="patch_14">
    <path d="M 125.254844 124.579062 
C 125.254844 124.579062 125.254844 124.579062 125.254844 124.579062 
C 125.254844 124.579062 125.254844 124.579062 125.254844 124.579062 
L 125.254844 124.579062 
C 125.254844 124.579062 125.254844 124.579062 125.254844 124.579062 
C 125.254844 124.579062 125.254844 124.579062 125.254844 124.579062 
z
" clip-path="url(#pdc2b2c367a)" style="fill: #d9d9d9"/>
   </g>
   <g id="patch_15">
    <path d="M 125.254844 124.579062 
C 125.254844 124.579062 125.254844 124.579062 125.254844 124.579062 
C 125.254844 124.579062 125.254844 124.579062 125.254844 124.579062 
L 125.254844 124.579062 
C 125.254844 124.579062 125.254844 124.579062 125.254844 124.579062 
C 125.254844 124.579062 125.254844 124.579062 125.254844 124.579062 
z
" clip-path="url(#pdc2b2c367a)" style="fill: #d9d9d9"/>
   </g>
   <g id="patch_16">
    <path d="M 125.254844 124.579062 
C 125.254844 124.579062 125.254844 124.579062 125.254844 124.579062 
C 125.254844 124.579062 125.254844 124.579062 125.254844 124.579062 
L 126.988479 127.822467 
C 127.094641 127.765722 127.197952 127.7038 127.298041 127.636923 
C 127.398129 127.570046 127.494874 127.498295 127.587925 127.42193 
z
" clip-path="url(#pdc2b2c367a)" style="fill: #d9d9d9"/>
   </g>
   <g id="patch_17">
    <path d="M 125.254844 124.579062 
C 125.254844 124.579062 125.254844 124.579062 125.254844 124.579062 
C 125.254844 124.579062 125.254844 124.579062 125.254844 124.579062 
L 125.254844 124.579062 
C 125.254844 124.579062 125.254844 124.579062 125.254844 124.579062 
C 125.254844 124.579062 125.254844 124.579062 125.254844 124.579062 
z
" clip-path="url(#pdc2b2c367a)" style="fill: #d9d9d9"/>
   </g>
   <g id="patch_18">
    <path d="M 125.254844 124.579062 
C 125.254844 124.579062 125.254844 124.579062 125.254844 124.579062 
C 125.254844 124.579062 125.254844 124.579062 125.254844 124.579062 
L 125.254844 124.579062 
C 125.254844 124.579062 125.254844 124.579062 125.254844 124.579062 
C 125.254844 124.579062 125.254844 124.579062 125.254844 124.579062 
z
" clip-path="url(#pdc2b2c367a)" style="fill: #d9d9d9"/>
   </g>
   <g id="patch_19">
    <path d="M 125.254844 124.579062 
C 125.254844 124.579062 125.254844 124.579062 125.254844 124.579062 
C 125.254844 124.579062 125.254844 124.579062 125.254844 124.579062 
L 125.254844 124.579062 
C 125.254844 124.579062 125.254844 124.579062 125.254844 124.579062 
C 125.254844 124.579062 125.254844 124.579062 125.254844 124.579062 
z
" clip-path="url(#pdc2b2c367a)" style="fill: #d9d9d9"/>
   </g>
   <g id="patch_20">
    <path d="M 125.254844 124.579062 
C 125.254844 124.579062 125.254844 124.579062 125.254844 124.579062 
C 125.254844 124.579062 125.254844 124.579062 125.254844 124.579062 
L 125.254844 124.579062 
C 125.254844 124.579062 125.254844 124.579062 125.254844 124.579062 
C 125.254844 124.579062 125.254844 124.579062 125.254844 124.579062 
z
" clip-path="url(#pdc2b2c367a)" style="fill: #d9d9d9"/>
   </g>
   <g id="patch_21">
    <path d="M 125.254844 124.579062 
C 125.254844 124.579062 125.254844 124.579062 125.254844 124.579062 
C 125.254844 124.579062 125.254844 124.579062 125.254844 124.579062 
L 125.254844 124.579062 
C 125.254844 124.579062 125.254844 124.579062 125.254844 124.579062 
C 125.254844 124.579062 125.254844 124.579062 125.254844 124.579062 
z
" clip-path="url(#pdc2b2c367a)" style="fill: #d9d9d9"/>
   </g>
   <g id="patch_22">
    <path d="M 125.254844 124.579062 
C 125.254844 124.579062 125.254844 124.579062 125.254844 124.579062 
C 125.254844 124.579062 125.254844 124.579062 125.254844 124.579062 
L 125.254844 124.579062 
C 125.254844 124.579062 125.254844 124.579062 125.254844 124.579062 
C 125.254844 124.579062 125.254844 124.579062 125.254844 124.579062 
z
" clip-path="url(#pdc2b2c367a)" style="fill: #d9d9d9"/>
   </g>
   <g id="patch_23">
    <path d="M 125.254844 124.579062 
C 125.254844 124.579062 125.254844 124.579062 125.254844 124.579062 
C 125.254844 124.579062 125.254844 124.579062 125.254844 124.579062 
L 125.254844 124.579062 
C 125.254844 124.579062 125.254844 124.579062 125.254844 124.579062 
C 125.254844 124.579062 125.254844 124.579062 125.254844 124.579062 
z
" clip-path="url(#pdc2b2c367a)" style="fill: #d9d9d9"/>
   </g>
   <g id="patch_24">
    <path d="M 125.254844 124.579062 
C 125.254844 124.579062 125.254844 124.579062 125.254844 124.579062 
C 125.254844 124.579062 125.254844 124.579062 125.254844 124.579062 
L 125.254844 124.579062 
C 125.254844 124.579062 125.254844 124.579062 125.254844 124.579062 
C 125.254844 124.579062 125.254844 124.579062 125.254844 124.579062 
z
" clip-path="url(#pdc2b2c367a)" style="fill: #d9d9d9"/>
   </g>
   <g id="patch_25">
    <path d="M 125.254844 124.579062 
C 125.254844 124.579062 125.254844 124.579062 125.254844 124.579062 
C 125.254844 124.579062 125.254844 124.579062 125.254844 124.579062 
L 125.254844 124.579062 
C 125.254844 124.579062 125.254844 124.579062 125.254844 124.579062 
C 125.254844 124.579062 125.254844 124.579062 125.254844 124.579062 
z
" clip-path="url(#pdc2b2c367a)" style="fill: #d9d9d9"/>
   </g>
   <g id="patch_26">
    <path d="M 125.254844 124.579062 
C 125.254844 124.579062 125.254844 124.579062 125.254844 124.579062 
C 125.254844 124.579062 125.254844 124.579062 125.254844 124.579062 
L 125.254844 124.579062 
C 125.254844 124.579062 125.254844 124.579062 125.254844 124.579062 
C 125.254844 124.579062 125.254844 124.579062 125.254844 124.579062 
z
" clip-path="url(#pdc2b2c367a)" style="fill: #d9d9d9"/>
   </g>
   <g id="patch_27">
    <path d="M 125.254844 124.579062 
C 125.254844 124.579062 125.254844 124.579062 125.254844 124.579062 
C 125.254844 124.579062 125.254844 124.579062 125.254844 124.579062 
L 125.254844 124.579062 
C 125.254844 124.579062 125.254844 124.579062 125.254844 124.579062 
C 125.254844 124.579062 125.254844 124.579062 125.254844 124.579062 
z
" clip-path="url(#pdc2b2c367a)" style="fill: #d9d9d9"/>
   </g>
   <g id="patch_28">
    <path d="M 125.254844 124.579062 
C 125.254844 124.579062 125.254844 124.579062 125.254844 124.579062 
C 125.254844 124.579062 125.254844 124.579062 125.254844 124.579062 
L 109.516061 119.804755 
C 109.359791 120.319909 109.228907 120.842425 109.123884 121.370415 
C 109.01886 121.898405 108.939822 122.431234 108.887056 122.966976 
z
" clip-path="url(#pdc2b2c367a)" style="fill: #d9d9d9"/>
   </g>
   <g id="patch_29">
    <path d="M 125.254844 124.579062 
C 125.254844 124.579062 125.254844 124.579062 125.254844 124.579062 
C 125.254844 124.579062 125.254844 124.579062 125.254844 124.579062 
L 118.002371 120.702535 
C 117.875487 120.939919 117.760333 121.18339 117.657328 121.432068 
C 117.554322 121.680746 117.463588 121.934332 117.385452 122.191909 
z
" clip-path="url(#pdc2b2c367a)" style="fill: #d9d9d9"/>
   </g>
   <g id="patch_30">
    <path d="M 125.254844 124.579062 
C 125.254844 124.579062 125.254844 124.579062 125.254844 124.579062 
C 125.254844 124.579062 125.254844 124.579062 125.254844 124.579062 
L 125.254844 124.579062 
C 125.254844 124.579062 125.254844 124.579062 125.254844 124.579062 
C 125.254844 124.579062 125.254844 124.579062 125.254844 124.579062 
z
" clip-path="url(#pdc2b2c367a)" style="fill: #d9d9d9"/>
   </g>
   <g id="patch_31">
    <path d="M 125.254844 124.579062 
C 125.254844 124.579062 125.254844 124.579062 125.254844 124.579062 
C 125.254844 124.579062 125.254844 124.579062 125.254844 124.579062 
L 125.254844 124.579062 
C 125.254844 124.579062 125.254844 124.579062 125.254844 124.579062 
C 125.254844 124.579062 125.254844 124.579062 125.254844 124.579062 
z
" clip-path="url(#pdc2b2c367a)" style="fill: #d9d9d9"/>
   </g>
   <g id="patch_32">
    <path d="M 125.254844 124.579062 
C 125.254844 124.579062 125.254844 124.579062 125.254844 124.579062 
C 125.254844 124.579062 125.254844 124.579062 125.254844 124.579062 
L 125.254844 124.579062 
C 125.254844 124.579062 125.254844 124.579062 125.254844 124.579062 
C 125.254844 124.579062 125.254844 124.579062 125.254844 124.579062 
z
" clip-path="url(#pdc2b2c367a)" style="fill: #d9d9d9"/>
   </g>
   <g id="patch_33">
    <path d="M 125.254844 124.579062 
C 125.254844 124.579062 125.254844 124.579062 125.254844 124.579062 
C 125.254844 124.579062 125.254844 124.579062 125.254844 124.579062 
L 125.254844 124.579062 
C 125.254844 124.579062 125.254844 124.579062 125.254844 124.579062 
C 125.254844 124.579062 125.254844 124.579062 125.254844 124.579062 
z
" clip-path="url(#pdc2b2c367a)" style="fill: #d9d9d9"/>
   </g>
   <g id="patch_34">
    <path d="M 125.254844 124.579062 
C 125.254844 124.579062 125.254844 124.579062 125.254844 124.579062 
C 125.254844 124.579062 125.254844 124.579062 125.254844 124.579062 
L 125.254844 124.579062 
C 125.254844 124.579062 125.254844 124.579062 125.254844 124.579062 
C 125.254844 124.579062 125.254844 124.579062 125.254844 124.579062 
z
" clip-path="url(#pdc2b2c367a)" style="fill: #d9d9d9"/>
   </g>
   <g id="patch_35">
    <path d="M 124.301121 114.895749 
C 124.61807 114.864532 124.936361 114.848895 125.254844 114.848895 
C 125.573327 114.848895 125.891618 114.864532 126.208567 114.895749 
L 129.610461 80.355736 
C 128.162966 80.21317 126.709343 80.141758 125.254844 80.141758 
C 123.800344 80.141758 122.346722 80.21317 120.899226 80.355736 
z
" clip-path="url(#pdc2b2c367a)" style="fill: #a1a1d8"/>
   </g>
   <g id="patch_36">
    <path d="M 125.254844 124.579062 
C 125.254844 124.579062 125.254844 124.579062 125.254844 124.579062 
C 125.254844 124.579062 125.254844 124.579062 125.254844 124.579062 
L 137.28572 84.918579 
C 135.987573 84.524791 134.670875 84.194975 133.340381 83.930323 
C 132.009887 83.665672 130.667201 83.466503 129.317173 83.333537 
z
" clip-path="url(#pdc2b2c367a)" style="fill: #a1a1d8"/>
   </g>
   <g id="patch_37">
    <path d="M 125.254844 124.579062 
C 125.254844 124.579062 125.254844 124.579062 125.254844 124.579062 
C 125.254844 124.579062 125.254844 124.579062 125.254844 124.579062 
L 147.320424 83.297265 
C 145.969209 82.575025 144.583349 81.919562 143.167849 81.333243 
C 141.752349 80.746923 140.308915 80.230455 138.842761 79.785702 
z
" clip-path="url(#pdc2b2c367a)" style="fill: #a1a1d8"/>
   </g>
   <g id="patch_38">
    <path d="M 125.254844 124.579062 
C 125.254844 124.579062 125.254844 124.579062 125.254844 124.579062 
C 125.254844 124.579062 125.254844 124.579062 125.254844 124.579062 
L 176.316819 62.359865 
C 174.280292 60.688531 172.162934 59.118191 169.972394 57.654519 
C 167.781854 56.190847 165.520772 54.835606 163.197315 53.593692 
z
" clip-path="url(#pdc2b2c367a)" style="fill: #a1a1d8"/>
   </g>
   <g id="patch_39">
    <path d="M 125.254844 124.579062 
C 125.254844 124.579062 125.254844 124.579062 125.254844 124.579062 
C 125.254844 124.579062 125.254844 124.579062 125.254844 124.579062 
L 172.65492 85.678825 
C 171.381658 84.12735 170.032989 82.639323 168.613786 81.22012 
C 167.194583 79.800917 165.706557 78.452249 164.155081 77.178986 
z
" clip-path="url(#pdc2b2c367a)" style="fill: #a1a1d8"/>
   </g>
   <g id="patch_40">
    <path d="M 125.254844 124.579062 
C 125.254844 124.579062 125.254844 124.579062 125.254844 124.579062 
C 125.254844 124.579062 125.254844 124.579062 125.254844 124.579062 
L 174.229175 98.401737 
C 173.372352 96.798734 172.437343 95.238765 171.427524 93.727464 
C 170.417705 92.216163 169.334294 90.755353 168.181204 89.350309 
z
" clip-path="url(#pdc2b2c367a)" style="fill: #a1a1d8"/>
   </g>
   <g id="patch_41">
    <path d="M 125.254844 124.579062 
C 125.254844 124.579062 125.254844 124.579062 125.254844 124.579062 
C 125.254844 124.579062 125.254844 124.579062 125.254844 124.579062 
L 173.380531 109.980295 
C 172.902691 108.405069 172.347801 106.854254 171.717863 105.33345 
C 171.087926 103.812646 170.3837 102.323687 169.607731 100.87195 
z
" clip-path="url(#pdc2b2c367a)" style="fill: #a1a1d8"/>
   </g>
   <g id="patch_42">
    <path d="M 125.254844 124.579062 
C 125.254844 124.579062 125.254844 124.579062 125.254844 124.579062 
C 125.254844 124.579062 125.254844 124.579062 125.254844 124.579062 
L 181.71778 119.017949 
C 181.535757 117.169832 181.263105 115.331767 180.900811 113.510391 
C 180.538517 111.689016 180.087017 109.886526 179.547941 108.109431 
z
" clip-path="url(#pdc2b2c367a)" style="fill: #a1a1d8"/>
   </g>
   <g id="patch_43">
    <path d="M 125.254844 124.579062 
C 125.254844 124.579062 125.254844 124.579062 125.254844 124.579062 
C 125.254844 124.579062 125.254844 124.579062 125.254844 124.579062 
L 183.354726 130.301401 
C 183.542027 128.399706 183.635847 126.48996 183.635847 124.579062 
C 183.635847 122.668165 183.542027 120.758419 183.354726 118.856724 
z
" clip-path="url(#pdc2b2c367a)" style="fill: #a1a1d8"/>
   </g>
   <g id="patch_44">
    <path d="M 125.254844 124.579062 
C 125.254844 124.579062 125.254844 124.579062 125.254844 124.579062 
C 125.254844 124.579062 125.254844 124.579062 125.254844 124.579062 
L 169.210872 137.912978 
C 169.647311 136.474231 170.012848 135.014924 170.306164 133.540327 
C 170.599479 132.06573 170.820219 130.577621 170.967587 129.081375 
z
" clip-path="url(#pdc2b2c367a)" style="fill: #a1a1d8"/>
   </g>
   <g id="patch_45">
    <path d="M 131.350448 126.428144 
C 131.289925 126.627662 131.219642 126.824089 131.139854 127.016714 
C 131.060066 127.209339 130.970869 127.397931 130.872585 127.581808 
L 145.509897 135.405614 
C 145.864267 134.742636 146.185872 134.062659 146.473551 133.368139 
C 146.761231 132.673619 147.014638 131.965393 147.232858 131.24602 
z
" clip-path="url(#pdc2b2c367a)" style="fill: #a1a1d8"/>
   </g>
   <g id="patch_46">
    <path d="M 125.254844 124.579062 
C 125.254844 124.579062 125.254844 124.579062 125.254844 124.579062 
C 125.254844 124.579062 125.254844 124.579062 125.254844 124.579062 
L 152.817469 147.199124 
C 153.557857 146.296958 154.253505 145.358985 154.901901 144.388593 
C 155.550296 143.4182 156.150657 142.416558 156.700816 141.387285 
z
" clip-path="url(#pdc2b2c367a)" style="fill: #a1a1d8"/>
   </g>
   <g id="patch_47">
    <path d="M 125.254844 124.579062 
C 125.254844 124.579062 125.254844 124.579062 125.254844 124.579062 
C 125.254844 124.579062 125.254844 124.579062 125.254844 124.579062 
L 141.418905 144.275028 
C 142.063583 143.745954 142.681897 143.185547 143.271612 142.595831 
C 143.861328 142.006115 144.421735 141.387802 144.950809 140.743123 
z
" clip-path="url(#pdc2b2c367a)" style="fill: #a1a1d8"/>
   </g>
   <g id="patch_48">
    <path d="M 127.587925 127.42193 
C 127.494874 127.498295 127.398129 127.570046 127.298041 127.636923 
C 127.197952 127.7038 127.094641 127.765722 126.988479 127.822467 
L 144.166577 159.960427 
C 145.324662 159.341417 146.451657 158.665923 147.543492 157.936382 
C 148.635327 157.206841 149.690685 156.424134 150.705755 155.591088 
z
" clip-path="url(#pdc2b2c367a)" style="fill: #a1a1d8"/>
   </g>
   <g id="patch_49">
    <path d="M 125.254844 124.579062 
C 125.254844 124.579062 125.254844 124.579062 125.254844 124.579062 
C 125.254844 124.579062 125.254844 124.579062 125.254844 124.579062 
L 134.376145 154.647965 
C 135.360346 154.349411 136.329294 154.002715 137.279492 153.609131 
C 138.229689 153.215546 139.15999 152.775546 140.067034 152.290721 
z
" clip-path="url(#pdc2b2c367a)" style="fill: #a1a1d8"/>
   </g>
   <g id="patch_50">
    <path d="M 125.254844 124.579062 
C 125.254844 124.579062 125.254844 124.579062 125.254844 124.579062 
C 125.254844 124.579062 125.254844 124.579062 125.254844 124.579062 
L 127.476951 147.140501 
C 128.215421 147.067768 128.949874 146.958822 129.677659 146.814057 
C 130.405444 146.669291 131.125682 146.488881 131.835773 146.273477 
z
" clip-path="url(#pdc2b2c367a)" style="fill: #a1a1d8"/>
   </g>
   <g id="patch_51">
    <path d="M 125.254844 124.579062 
C 125.254844 124.579062 125.254844 124.579062 125.254844 124.579062 
C 125.254844 124.579062 125.254844 124.579062 125.254844 124.579062 
L 121.224628 165.498531 
C 122.563983 165.630446 123.909008 165.696523 125.254844 165.696523 
C 126.60068 165.696523 127.945704 165.630446 129.28506 165.498531 
z
" clip-path="url(#pdc2b2c367a)" style="fill: #a1a1d8"/>
   </g>
   <g id="patch_52">
    <path d="M 125.254844 124.579062 
C 125.254844 124.579062 125.254844 124.579062 125.254844 124.579062 
C 125.254844 124.579062 125.254844 124.579062 125.254844 124.579062 
L 118.761083 145.986121 
C 119.461768 146.198672 120.172467 146.376692 120.890611 146.51954 
C 121.608756 146.662388 122.333481 146.769891 123.062169 146.84166 
z
" clip-path="url(#pdc2b2c367a)" style="fill: #a1a1d8"/>
   </g>
   <g id="patch_53">
    <path d="M 125.254844 124.579062 
C 125.254844 124.579062 125.254844 124.579062 125.254844 124.579062 
C 125.254844 124.579062 125.254844 124.579062 125.254844 124.579062 
L 116.415001 141.117245 
C 116.956321 141.406586 117.51152 141.669175 118.078593 141.904065 
C 118.645666 142.138954 119.22393 142.34586 119.811296 142.524036 
z
" clip-path="url(#pdc2b2c367a)" style="fill: #a1a1d8"/>
   </g>
   <g id="patch_54">
    <path d="M 125.254844 124.579062 
C 125.254844 124.579062 125.254844 124.579062 125.254844 124.579062 
C 125.254844 124.579062 125.254844 124.579062 125.254844 124.579062 
L 106.015763 148.02195 
C 106.783084 148.651674 107.58086 149.243345 108.406209 149.794826 
C 109.231559 150.346307 110.083487 150.856933 110.958917 151.32486 
z
" clip-path="url(#pdc2b2c367a)" style="fill: #a1a1d8"/>
   </g>
   <g id="patch_55">
    <path d="M 125.254844 124.579062 
C 125.254844 124.579062 125.254844 124.579062 125.254844 124.579062 
C 125.254844 124.579062 125.254844 124.579062 125.254844 124.579062 
L 93.598009 150.559155 
C 94.448376 151.595331 95.349104 152.589131 96.29694 153.536967 
C 97.244775 154.484802 98.238575 155.38553 99.274751 156.235897 
z
" clip-path="url(#pdc2b2c367a)" style="fill: #a1a1d8"/>
   </g>
   <g id="patch_56">
    <path d="M 125.254844 124.579062 
C 125.254844 124.579062 125.254844 124.579062 125.254844 124.579062 
C 125.254844 124.579062 125.254844 124.579062 125.254844 124.579062 
L 78.929764 149.340334 
C 79.740237 150.856623 80.624668 152.332206 81.579861 153.761753 
C 82.535054 155.191301 83.559858 156.573089 84.650572 157.902128 
z
" clip-path="url(#pdc2b2c367a)" style="fill: #a1a1d8"/>
   </g>
   <g id="patch_57">
    <path d="M 125.254844 124.579062 
C 125.254844 124.579062 125.254844 124.579062 125.254844 124.579062 
C 125.254844 124.579062 125.254844 124.579062 125.254844 124.579062 
L 74.255359 140.049587 
C 74.761732 141.718876 75.349758 143.362298 76.017312 144.973916 
C 76.684866 146.585534 77.431144 148.163405 78.253449 149.701831 
z
" clip-path="url(#pdc2b2c367a)" style="fill: #a1a1d8"/>
   </g>
   <g id="patch_58">
    <path d="M 125.254844 124.579062 
C 125.254844 124.579062 125.254844 124.579062 125.254844 124.579062 
C 125.254844 124.579062 125.254844 124.579062 125.254844 124.579062 
L 96.204903 127.440232 
C 96.298553 128.39108 96.438831 129.336757 96.62523 130.273847 
C 96.811628 131.210937 97.043923 132.13831 97.321276 133.052618 
z
" clip-path="url(#pdc2b2c367a)" style="fill: #a1a1d8"/>
   </g>
   <g id="patch_59">
    <path d="M 125.254844 124.579062 
C 125.254844 124.579062 125.254844 124.579062 125.254844 124.579062 
C 125.254844 124.579062 125.254844 124.579062 125.254844 124.579062 
L 68.201892 118.959837 
C 68.017966 120.827266 67.925837 122.702599 67.925837 124.579062 
C 67.925837 126.455526 68.017966 128.330859 68.201892 130.198288 
z
" clip-path="url(#pdc2b2c367a)" style="fill: #a1a1d8"/>
   </g>
   <g id="patch_60">
    <path d="M 108.887056 122.966976 
C 108.939822 122.431234 109.01886 121.898405 109.123884 121.370415 
C 109.228907 120.842425 109.359791 120.319909 109.516061 119.804755 
L 72.114597 108.459145 
C 71.586968 110.198505 71.145055 111.962721 70.790454 113.745422 
C 70.435853 115.528123 70.168991 117.327159 69.990832 119.136032 
z
" clip-path="url(#pdc2b2c367a)" style="fill: #a1a1d8"/>
   </g>
   <g id="patch_61">
    <path d="M 117.385452 122.191909 
C 117.463588 121.934332 117.554322 121.680746 117.657328 121.432068 
C 117.760333 121.18339 117.875487 120.939919 118.002371 120.702535 
L 79.847183 100.308162 
C 79.05276 101.794423 78.331787 103.318791 77.686869 104.875762 
C 77.041951 106.432733 76.473864 108.020429 75.984661 109.633116 
z
" clip-path="url(#pdc2b2c367a)" style="fill: #a1a1d8"/>
   </g>
   <g id="patch_62">
    <path d="M 125.254844 124.579062 
C 125.254844 124.579062 125.254844 124.579062 125.254844 124.579062 
C 125.254844 124.579062 125.254844 124.579062 125.254844 124.579062 
L 92.841165 97.977844 
C 91.970467 99.038792 91.152384 100.141849 90.38987 101.283032 
C 89.627357 102.424215 88.921331 103.602147 88.274344 104.812574 
z
" clip-path="url(#pdc2b2c367a)" style="fill: #a1a1d8"/>
   </g>
   <g id="patch_63">
    <path d="M 125.254844 124.579062 
C 125.254844 124.579062 125.254844 124.579062 125.254844 124.579062 
C 125.254844 124.579062 125.254844 124.579062 125.254844 124.579062 
L 101.576656 95.727107 
C 100.632288 96.502129 99.726541 97.32305 98.862686 98.186905 
C 97.998832 99.05076 97.17791 99.956507 96.402888 100.900874 
z
" clip-path="url(#pdc2b2c367a)" style="fill: #a1a1d8"/>
   </g>
   <g id="patch_64">
    <path d="M 125.254844 124.579062 
C 125.254844 124.579062 125.254844 124.579062 125.254844 124.579062 
C 125.254844 124.579062 125.254844 124.579062 125.254844 124.579062 
L 110.750207 97.442795 
C 109.861996 97.917553 108.99763 98.435634 108.160231 98.995166 
C 107.322832 99.554699 106.513409 100.155008 105.734886 100.793925 
z
" clip-path="url(#pdc2b2c367a)" style="fill: #a1a1d8"/>
   </g>
   <g id="patch_65">
    <path d="M 125.254844 124.579062 
C 125.254844 124.579062 125.254844 124.579062 125.254844 124.579062 
C 125.254844 124.579062 125.254844 124.579062 125.254844 124.579062 
L 116.647838 96.205569 
C 115.719132 96.487289 114.804816 96.814436 113.908195 97.185829 
C 113.011573 97.557221 112.133727 97.972412 111.277826 98.429901 
z
" clip-path="url(#pdc2b2c367a)" style="fill: #a1a1d8"/>
   </g>
   <g id="patch_66">
    <path d="M 125.254844 124.579062 
C 125.254844 124.579062 125.254844 124.579062 125.254844 124.579062 
C 125.254844 124.579062 125.254844 124.579062 125.254844 124.579062 
L 121.722939 88.719037 
C 120.549187 88.834641 119.381818 89.007804 118.225049 89.2379 
C 117.06828 89.467995 115.923506 89.754746 114.79486 90.097117 
z
" clip-path="url(#pdc2b2c367a)" style="fill: #a1a1d8"/>
   </g>
   <g id="patch_67">
    <path d="M 120.899226 80.355736 
C 122.346722 80.21317 123.800344 80.141758 125.254844 80.141758 
C 126.709343 80.141758 128.162966 80.21317 129.610461 80.355736 
L 130.339948 72.949134 
C 128.650023 72.782691 126.952945 72.699319 125.254844 72.699319 
C 123.556742 72.699319 121.859664 72.782691 120.16974 72.949134 
z
" clip-path="url(#pdc2b2c367a)" style="fill: #ff8c8e"/>
   </g>
   <g id="patch_68">
    <path d="M 129.317173 83.333537 
C 130.667201 83.466503 132.009887 83.665672 133.340381 83.930323 
C 134.670875 84.194975 135.987573 84.524791 137.28572 84.918579 
L 139.457907 77.757837 
C 137.925379 77.29295 136.370949 76.903585 134.800233 76.591151 
C 133.229517 76.278716 131.644408 76.043587 130.050631 75.886614 
z
" clip-path="url(#pdc2b2c367a)" style="fill: #ff8c8e"/>
   </g>
   <g id="patch_69">
    <path d="M 138.842761 79.785702 
C 140.308915 80.230455 141.752349 80.746923 143.167849 81.333243 
C 144.583349 81.919562 145.969209 82.575025 147.320424 83.297265 
L 157.734499 63.813902 
C 155.745564 62.750794 153.705633 61.785978 151.622073 60.92294 
C 149.538513 60.059901 147.413836 59.299679 145.255717 58.645021 
z
" clip-path="url(#pdc2b2c367a)" style="fill: #ff8c8e"/>
   </g>
   <g id="patch_70">
    <path d="M 163.197315 53.593692 
C 165.520772 54.835606 167.781854 56.190847 169.972394 57.654519 
C 172.162934 59.118191 174.280292 60.688531 176.316819 62.359865 
L 187.814493 48.34991 
C 185.319399 46.302239 182.725273 44.378305 180.041487 42.585056 
C 177.357701 40.791808 174.587489 39.131406 171.740856 37.60985 
z
" clip-path="url(#pdc2b2c367a)" style="fill: #ff8c8e"/>
   </g>
   <g id="patch_71">
    <path d="M 164.155081 77.178986 
C 165.706557 78.452249 167.194583 79.800917 168.613786 81.22012 
C 170.032989 82.639323 171.381658 84.12735 172.65492 85.678825 
L 198.400012 64.550375 
C 196.435183 62.156224 194.353993 59.859984 192.163957 57.669949 
C 189.973922 55.479914 187.677682 53.398723 185.283532 51.433895 
z
" clip-path="url(#pdc2b2c367a)" style="fill: #ff8c8e"/>
   </g>
   <g id="patch_72">
    <path d="M 168.181204 89.350309 
C 169.334294 90.755353 170.417705 92.216163 171.427524 93.727464 
C 172.437343 95.238765 173.372352 96.798734 174.229175 98.401737 
L 209.270912 79.671538 
C 207.801022 76.921567 206.197001 74.245421 204.464645 71.652766 
C 202.732288 69.060111 200.873683 66.554072 198.895544 64.143702 
z
" clip-path="url(#pdc2b2c367a)" style="fill: #ff8c8e"/>
   </g>
   <g id="patch_73">
    <path d="M 169.607731 100.87195 
C 170.3837 102.323687 171.087926 103.812646 171.717863 105.33345 
C 172.347801 106.854254 172.902691 108.405069 173.380531 109.980295 
L 207.789716 99.542383 
C 206.970228 96.840893 206.018599 94.181266 204.938265 91.573109 
C 203.85793 88.964952 202.650194 86.411408 201.319418 83.921701 
z
" clip-path="url(#pdc2b2c367a)" style="fill: #ff8c8e"/>
   </g>
   <g id="patch_74">
    <path d="M 179.547941 108.109431 
C 180.087017 109.886526 180.538517 111.689016 180.900811 113.510391 
C 181.263105 115.331767 181.535757 117.169832 181.71778 119.017949 
L 211.322019 116.102186 
C 211.044558 113.285079 210.628952 110.483292 210.076702 107.706946 
C 209.524453 104.9306 208.836225 102.183041 208.014505 99.474194 
z
" clip-path="url(#pdc2b2c367a)" style="fill: #ff8c8e"/>
   </g>
   <g id="patch_75">
    <path d="M 183.354726 118.856724 
C 183.542027 120.758419 183.635847 122.668165 183.635847 124.579062 
C 183.635847 126.48996 183.542027 128.399706 183.354726 130.301401 
L 202.894077 132.22586 
C 203.144368 129.684612 203.26974 127.132607 203.26974 124.579062 
C 203.26974 122.025518 203.144368 119.473513 202.894077 116.932265 
z
" clip-path="url(#pdc2b2c367a)" style="fill: #ff8c8e"/>
   </g>
   <g id="patch_76">
    <path d="M 170.967587 129.081375 
C 170.820219 130.577621 170.599479 132.06573 170.306164 133.540327 
C 170.012848 135.014924 169.647311 136.474231 169.210872 137.912978 
L 202.11749 147.895091 
C 202.880658 145.379262 203.519846 142.82748 204.032745 140.248961 
C 204.545645 137.670443 204.931637 135.068297 205.189327 132.451922 
z
" clip-path="url(#pdc2b2c367a)" style="fill: #ff8c8e"/>
   </g>
   <g id="patch_77">
    <path d="M 147.232858 131.24602 
C 147.014638 131.965393 146.761231 132.673619 146.473551 133.368139 
C 146.185872 134.062659 145.864267 134.742636 145.509897 135.405614 
L 189.634582 158.990749 
C 190.760928 156.883504 191.783135 154.722229 192.697511 152.51473 
C 193.611887 150.307231 194.41733 148.056169 195.11093 145.769675 
z
" clip-path="url(#pdc2b2c367a)" style="fill: #ff8c8e"/>
   </g>
   <g id="patch_78">
    <path d="M 156.700816 141.387285 
C 156.150657 142.416558 155.550296 143.4182 154.901901 144.388593 
C 154.253505 145.358985 153.557857 146.296958 152.817469 147.199124 
L 172.484109 163.339119 
C 173.752783 161.793234 174.944795 160.185993 176.055837 158.523201 
C 177.166879 156.860409 178.195613 155.144069 179.138324 153.380383 
z
" clip-path="url(#pdc2b2c367a)" style="fill: #ff8c8e"/>
   </g>
   <g id="patch_79">
    <path d="M 144.950809 140.743123 
C 144.421735 141.387802 143.861328 142.006115 143.271612 142.595831 
C 142.681897 143.185547 142.063583 143.745954 141.418905 144.275028 
L 154.858326 160.65101 
C 156.039014 159.682043 157.171418 158.655693 158.251446 157.575665 
C 159.331474 156.495637 160.357825 155.363233 161.326791 154.182544 
z
" clip-path="url(#pdc2b2c367a)" style="fill: #ff8c8e"/>
   </g>
   <g id="patch_80">
    <path d="M 150.705755 155.591088 
C 149.690685 156.424134 148.635327 157.206841 147.543492 157.936382 
C 146.451657 158.665923 145.324662 159.341417 144.166577 159.960427 
L 148.898483 168.8132 
C 150.346332 168.039309 151.755313 167.194798 153.120336 166.282719 
C 154.485359 165.37064 155.804779 164.392091 157.073829 163.350609 
z
" clip-path="url(#pdc2b2c367a)" style="fill: #ff8c8e"/>
   </g>
   <g id="patch_81">
    <path d="M 140.067034 152.290721 
C 139.15999 152.775546 138.229689 153.215546 137.279492 153.609131 
C 136.329294 154.002715 135.360346 154.349411 134.376145 154.647965 
L 140.725368 175.578547 
C 142.394658 175.072174 144.038079 174.484148 145.649697 173.816594 
C 147.261315 173.14904 148.839187 172.402763 150.377612 171.580457 
z
" clip-path="url(#pdc2b2c367a)" style="fill: #ff8c8e"/>
   </g>
   <g id="patch_82">
    <path d="M 131.835773 146.273477 
C 131.125682 146.488881 130.405444 146.669291 129.677659 146.814057 
C 128.949874 146.958822 128.215421 147.067768 127.476951 147.140501 
L 129.913188 171.876021 
C 131.461288 171.723547 133.000969 171.495157 134.526669 171.191676 
C 136.05237 170.888195 137.56225 170.50999 139.050858 170.058426 
z
" clip-path="url(#pdc2b2c367a)" style="fill: #ff8c8e"/>
   </g>
   <g id="patch_83">
    <path d="M 129.28506 165.498531 
C 127.945704 165.630446 126.60068 165.696523 125.254844 165.696523 
C 123.909008 165.696523 122.563983 165.630446 121.224628 165.498531 
L 120.974458 168.038544 
C 122.396952 168.178647 123.825467 168.248826 125.254844 168.248826 
C 126.68422 168.248826 128.112735 168.178647 129.535229 168.038544 
z
" clip-path="url(#pdc2b2c367a)" style="fill: #ff8c8e"/>
   </g>
   <g id="patch_84">
    <path d="M 123.062169 146.84166 
C 122.333481 146.769891 121.608756 146.662388 120.890611 146.51954 
C 120.172467 146.376692 119.461768 146.198672 118.761083 145.986121 
L 112.22352 167.537579 
C 113.629617 167.964114 115.055807 168.321356 116.496941 168.608015 
C 117.938074 168.894674 119.392413 169.110405 120.854704 169.254428 
z
" clip-path="url(#pdc2b2c367a)" style="fill: #ff8c8e"/>
   </g>
   <g id="patch_85">
    <path d="M 119.811296 142.524036 
C 119.22393 142.34586 118.645666 142.138954 118.078593 141.904065 
C 117.51152 141.669175 116.956321 141.406586 116.415001 141.117245 
L 106.027893 160.550157 
C 107.205281 161.179484 108.412857 161.750625 109.64626 162.261517 
C 110.879663 162.772409 112.137406 163.222437 113.414946 163.609974 
z
" clip-path="url(#pdc2b2c367a)" style="fill: #ff8c8e"/>
   </g>
   <g id="patch_86">
    <path d="M 110.958917 151.32486 
C 110.083487 150.856933 109.231559 150.346307 108.406209 149.794826 
C 107.58086 149.243345 106.783084 148.651674 106.015763 148.02195 
L 102.634782 152.141687 
C 103.536948 152.882076 104.474921 153.577724 105.445314 154.22612 
C 106.415706 154.874515 107.417348 155.474876 108.446622 156.025034 
z
" clip-path="url(#pdc2b2c367a)" style="fill: #ff8c8e"/>
   </g>
   <g id="patch_87">
    <path d="M 99.274751 156.235897 
C 98.238575 155.38553 97.244775 154.484802 96.29694 153.536967 
C 95.349104 152.589131 94.448376 151.595331 93.598009 150.559155 
L 83.764556 158.629262 
C 84.87907 159.987301 86.059588 161.289802 87.301846 162.53206 
C 88.544104 163.774318 89.846605 164.954837 91.204644 166.06935 
z
" clip-path="url(#pdc2b2c367a)" style="fill: #ff8c8e"/>
   </g>
   <g id="patch_88">
    <path d="M 84.650572 157.902128 
C 83.559858 156.573089 82.535054 155.191301 81.579861 153.761753 
C 80.624668 152.332206 79.740237 150.856623 78.929764 149.340334 
L 68.148817 155.102869 
C 69.147907 156.972035 70.238166 158.791021 71.415655 160.553258 
C 72.593144 162.315495 73.856444 164.018859 75.200993 165.657196 
z
" clip-path="url(#pdc2b2c367a)" style="fill: #ff8c8e"/>
   </g>
   <g id="patch_89">
    <path d="M 78.253449 149.701831 
C 77.431144 148.163405 76.684866 146.585534 76.017312 144.973916 
C 75.349758 143.362298 74.761732 141.718876 74.255359 140.049587 
L 56.290953 145.49903 
C 56.975695 147.756321 57.770851 149.978633 58.673549 152.157938 
C 59.576247 154.337243 60.585398 156.470915 61.697358 158.551246 
z
" clip-path="url(#pdc2b2c367a)" style="fill: #ff8c8e"/>
   </g>
   <g id="patch_90">
    <path d="M 97.321276 133.052618 
C 97.043923 132.13831 96.811628 131.210937 96.62523 130.273847 
C 96.438831 129.336757 96.298553 128.39108 96.204903 127.440232 
L 62.820798 130.728279 
C 63.022071 132.771839 63.323556 134.804285 63.724164 136.818276 
C 64.124772 138.832267 64.624019 140.825375 65.220104 142.790402 
z
" clip-path="url(#pdc2b2c367a)" style="fill: #ff8c8e"/>
   </g>
   <g id="patch_91">
    <path d="M 68.201892 130.198288 
C 68.017966 128.330859 67.925837 126.455526 67.925837 124.579062 
C 67.925837 122.702599 68.017966 120.827266 68.201892 118.959837 
L 46.928524 116.864593 
C 46.676018 119.428331 46.549536 122.00292 46.549536 124.579062 
C 46.549536 127.155205 46.676018 129.729794 46.928524 132.293532 
z
" clip-path="url(#pdc2b2c367a)" style="fill: #ff8c8e"/>
   </g>
   <g id="patch_92">
    <path d="M 69.990832 119.136032 
C 70.168991 117.327159 70.435853 115.528123 70.790454 113.745422 
C 71.145055 111.962721 71.586968 110.198505 72.114597 108.459145 
L 44.77132 100.164652 
C 43.972199 102.798998 43.3029 105.470991 42.765839 108.170979 
C 42.228778 110.870968 41.824603 113.595697 41.554773 116.335325 
z
" clip-path="url(#pdc2b2c367a)" style="fill: #ff8c8e"/>
   </g>
   <g id="patch_93">
    <path d="M 75.984661 109.633116 
C 76.473864 108.020429 77.041951 106.432733 77.686869 104.875762 
C 78.331787 103.318791 79.05276 101.794423 79.847183 100.308162 
L 75.323269 97.89008 
C 74.449698 99.524415 73.656896 101.200654 72.947725 102.912744 
C 72.238554 104.624835 71.613869 106.370711 71.075927 108.144068 
z
" clip-path="url(#pdc2b2c367a)" style="fill: #ff8c8e"/>
   </g>
   <g id="patch_94">
    <path d="M 88.274344 104.812574 
C 88.921331 103.602147 89.627357 102.424215 90.38987 101.283032 
C 91.152384 100.141849 91.970467 99.038792 92.841165 97.977844 
L 91.022184 96.485044 
C 90.102624 97.60553 89.238632 98.770489 88.433328 99.975712 
C 87.628024 101.180935 86.882378 102.42497 86.199084 103.703324 
z
" clip-path="url(#pdc2b2c367a)" style="fill: #ff8c8e"/>
   </g>
   <g id="patch_95">
    <path d="M 96.402888 100.900874 
C 97.17791 99.956507 97.998832 99.05076 98.862686 98.186905 
C 99.726541 97.32305 100.632288 96.502129 101.576656 95.727107 
L 100.785282 94.762815 
C 99.809351 95.56374 98.873332 96.412098 97.980606 97.304825 
C 97.087879 98.197551 96.239521 99.13357 95.438596 100.1095 
z
" clip-path="url(#pdc2b2c367a)" style="fill: #ff8c8e"/>
   </g>
   <g id="patch_96">
    <path d="M 105.734886 100.793925 
C 106.513409 100.155008 107.322832 99.554699 108.160231 98.995166 
C 108.99763 98.435634 109.861996 97.917553 110.750207 97.442795 
L 106.907768 90.254097 
C 105.78426 90.854625 104.690914 91.509951 103.631679 92.217709 
C 102.572443 92.925468 101.548595 93.684805 100.563833 94.492979 
z
" clip-path="url(#pdc2b2c367a)" style="fill: #ff8c8e"/>
   </g>
   <g id="patch_97">
    <path d="M 111.277826 98.429901 
C 112.133727 97.972412 113.011573 97.557221 113.908195 97.185829 
C 114.804816 96.814436 115.719132 96.487289 116.647838 96.205569 
L 112.759285 83.386726 
C 111.410998 83.795725 110.083605 84.270673 108.7819 84.809858 
C 107.480194 85.349042 106.205746 85.951811 104.963158 86.615988 
z
" clip-path="url(#pdc2b2c367a)" style="fill: #ff8c8e"/>
   </g>
   <g id="patch_98">
    <path d="M 114.79486 90.097117 
C 115.923506 89.754746 117.06828 89.467995 118.225049 89.2379 
C 119.381818 89.007804 120.549187 88.834641 121.722939 88.719037 
L 121.020239 81.584402 
C 119.61296 81.723007 118.213334 81.930622 116.826416 82.206497 
C 115.439499 82.482372 114.066962 82.826174 112.713764 83.236663 
z
" clip-path="url(#pdc2b2c367a)" style="fill: #ff8c8e"/>
   </g>
   <g id="patch_99">
    <path d="M 120.16974 72.949134 
C 121.859664 72.782691 123.556742 72.699319 125.254844 72.699319 
C 126.952945 72.699319 128.650023 72.782691 130.339948 72.949134 
L 130.988525 66.364017 
C 129.08306 66.176345 127.169529 66.082339 125.254844 66.082339 
C 123.340159 66.082339 121.426628 66.176345 119.521162 66.364017 
z
" clip-path="url(#pdc2b2c367a)" style="fill: #828282"/>
   </g>
   <g id="patch_100">
    <path d="M 130.050631 75.886614 
C 131.644408 76.043587 133.229517 76.278716 134.800233 76.591151 
C 136.370949 76.903585 137.925379 77.29295 139.457907 77.757837 
L 143.559815 64.235658 
C 141.584686 63.636509 139.58133 63.134695 137.556984 62.732027 
C 135.532638 62.32936 133.489743 62.026325 131.435676 61.824017 
z
" clip-path="url(#pdc2b2c367a)" style="fill: #828282"/>
   </g>
   <g id="patch_101">
    <path d="M 145.255717 58.645021 
C 147.413836 59.299679 149.538513 60.059901 151.622073 60.92294 
C 153.705633 61.785978 155.745564 62.750794 157.734499 63.813902 
L 165.278933 49.699259 
C 162.828005 48.38921 160.314235 47.200286 157.746702 46.136779 
C 155.179169 45.073272 152.560968 44.136464 149.901556 43.329741 
z
" clip-path="url(#pdc2b2c367a)" style="fill: #828282"/>
   </g>
   <g id="patch_102">
    <path d="M 171.740856 37.60985 
C 174.587489 39.131406 177.357701 40.791808 180.041487 42.585056 
C 182.725273 44.378305 185.319399 46.302239 187.814493 48.34991 
L 191.285576 44.120382 
C 188.652043 41.959098 185.913985 39.928415 183.08129 38.035669 
C 180.248596 36.142923 177.32468 34.390396 174.320104 32.784416 
z
" clip-path="url(#pdc2b2c367a)" style="fill: #828282"/>
   </g>
   <g id="patch_103">
    <path d="M 185.283532 51.433895 
C 187.677682 53.398723 189.973922 55.479914 192.163957 57.669949 
C 194.353993 59.859984 196.435183 62.156224 198.400012 64.550375 
L 210.966244 54.237534 
C 208.66386 51.432072 206.225124 48.741342 203.658844 46.175062 
C 201.092564 43.608782 198.401834 41.170046 195.596372 38.867663 
z
" clip-path="url(#pdc2b2c367a)" style="fill: #828282"/>
   </g>
   <g id="patch_104">
    <path d="M 198.895544 64.143702 
C 200.873683 66.554072 202.732288 69.060111 204.464645 71.652766 
C 206.197001 74.245421 207.801022 76.921567 209.270912 79.671538 
L 221.415082 73.180344 
C 219.732725 70.032876 217.896851 66.969904 215.914089 64.002492 
C 213.931327 61.035079 211.804069 58.166803 209.539998 55.408024 
z
" clip-path="url(#pdc2b2c367a)" style="fill: #828282"/>
   </g>
   <g id="patch_105">
    <path d="M 201.319418 83.921701 
C 202.650194 86.411408 203.85793 88.964952 204.938265 91.573109 
C 206.018599 94.181266 206.970228 96.840893 207.789716 99.542383 
L 216.281628 96.966389 
C 215.377824 93.986947 214.328282 91.053674 213.136794 88.177167 
C 211.945305 85.300659 210.613306 82.484385 209.145608 79.738515 
z
" clip-path="url(#pdc2b2c367a)" style="fill: #828282"/>
   </g>
   <g id="patch_106">
    <path d="M 208.014505 99.474194 
C 208.836225 102.183041 209.524453 104.9306 210.076702 107.706946 
C 210.628952 110.483292 211.044558 113.285079 211.322019 116.102186 
L 224.681575 114.786384 
C 224.361046 111.531999 223.880929 108.295312 223.242958 105.088015 
C 222.604987 101.880717 221.809931 98.706676 220.860662 95.577355 
z
" clip-path="url(#pdc2b2c367a)" style="fill: #828282"/>
   </g>
   <g id="patch_107">
    <path d="M 202.894077 116.932265 
C 203.144368 119.473513 203.26974 122.025518 203.26974 124.579062 
C 203.26974 127.132607 203.144368 129.684612 202.894077 132.22586 
L 224.883457 134.391624 
C 225.204637 131.130631 225.365517 127.855834 225.365517 124.579062 
C 225.365517 121.302291 225.204637 118.027494 224.883457 114.766501 
z
" clip-path="url(#pdc2b2c367a)" style="fill: #828282"/>
   </g>
   <g id="patch_108">
    <path d="M 205.189327 132.451922 
C 204.931637 135.068297 204.545645 137.670443 204.032745 140.248961 
C 203.519846 142.82748 202.880658 145.379262 202.11749 147.895091 
L 231.302009 156.748118 
C 232.35495 153.277036 233.236837 149.75635 233.944482 146.198776 
C 234.652128 142.641202 235.184679 139.051028 235.540214 135.441223 
z
" clip-path="url(#pdc2b2c367a)" style="fill: #828282"/>
   </g>
   <g id="patch_109">
    <path d="M 195.11093 145.769675 
C 194.41733 148.056169 193.611887 150.307231 192.697511 152.51473 
C 191.783135 154.722229 190.760928 156.883504 189.634582 158.990749 
L 208.009338 168.812261 
C 209.457157 166.103583 210.771114 163.325454 211.946464 160.487907 
C 213.121814 157.650361 214.15714 154.756819 215.048702 151.817732 
z
" clip-path="url(#pdc2b2c367a)" style="fill: #828282"/>
   </g>
   <g id="patch_110">
    <path d="M 179.138324 153.380383 
C 178.195613 155.144069 177.166879 156.860409 176.055837 158.523201 
C 174.944795 160.185993 173.752783 161.793234 172.484109 163.339119 
L 192.529372 179.789841 
C 194.336503 177.587845 196.034433 175.298451 197.617029 172.929929 
C 199.199625 170.561407 200.66498 168.116611 202.007799 165.604372 
z
" clip-path="url(#pdc2b2c367a)" style="fill: #828282"/>
   </g>
   <g id="patch_111">
    <path d="M 161.326791 154.182544 
C 160.357825 155.363233 159.331474 156.495637 158.251446 157.575665 
C 157.171418 158.655693 156.039014 159.682043 154.858326 160.65101 
L 168.464113 177.229709 
C 170.187447 175.815405 171.840304 174.317343 173.416714 172.740933 
C 174.993124 171.164523 176.491186 169.511666 177.90549 167.788331 
z
" clip-path="url(#pdc2b2c367a)" style="fill: #828282"/>
   </g>
   <g id="patch_112">
    <path d="M 157.073829 163.350609 
C 155.804779 164.392091 154.485359 165.37064 153.120336 166.282719 
C 151.755313 167.194798 150.346332 168.039309 148.898483 168.8132 
L 150.733982 172.247177 
C 152.29423 171.413206 153.812593 170.503135 155.283585 169.520249 
C 156.754577 168.537364 158.176425 167.482849 159.543995 166.360514 
z
" clip-path="url(#pdc2b2c367a)" style="fill: #828282"/>
   </g>
   <g id="patch_113">
    <path d="M 150.377612 171.580457 
C 148.839187 172.402763 147.261315 173.14904 145.649697 173.816594 
C 144.038079 174.484148 142.394658 175.072174 140.725368 175.578547 
L 141.620345 178.528891 
C 143.386204 177.993224 145.124698 177.371181 146.829549 176.665009 
C 148.5344 175.958836 150.203552 175.169386 151.830976 174.29951 
z
" clip-path="url(#pdc2b2c367a)" style="fill: #828282"/>
   </g>
   <g id="patch_114">
    <path d="M 139.050858 170.058426 
C 137.56225 170.50999 136.05237 170.888195 134.526669 171.191676 
C 133.000969 171.495157 131.461288 171.723547 129.913188 171.876021 
L 130.697874 179.843074 
C 132.506747 179.664915 134.305784 179.398054 136.088484 179.043452 
C 137.871185 178.688851 139.635402 178.246938 141.374761 177.719309 
z
" clip-path="url(#pdc2b2c367a)" style="fill: #828282"/>
   </g>
   <g id="patch_115">
    <path d="M 129.535229 168.038544 
C 128.112735 168.178647 126.68422 168.248826 125.254844 168.248826 
C 123.825467 168.248826 122.396952 168.178647 120.974458 168.038544 
L 120.652627 171.306158 
C 122.182074 171.456795 123.717996 171.53225 125.254844 171.53225 
C 126.791692 171.53225 128.327613 171.456795 129.857061 171.306158 
z
" clip-path="url(#pdc2b2c367a)" style="fill: #828282"/>
   </g>
   <g id="patch_116">
    <path d="M 120.854704 169.254428 
C 119.392413 169.110405 117.938074 168.894674 116.496941 168.608015 
C 115.055807 168.321356 113.629617 167.964114 112.22352 167.537579 
L 109.241329 177.368544 
C 110.969208 177.892691 112.721779 178.331687 114.492713 178.683947 
C 116.263647 179.036208 118.050808 179.301308 119.847742 179.478291 
z
" clip-path="url(#pdc2b2c367a)" style="fill: #828282"/>
   </g>
   <g id="patch_117">
    <path d="M 113.414946 163.609974 
C 112.137406 163.222437 110.879663 162.772409 109.64626 162.261517 
C 108.412857 161.750625 107.205281 161.179484 106.027893 160.550157 
L 103.881147 164.566437 
C 105.189993 165.26603 106.532399 165.90094 107.903515 166.468875 
C 109.274631 167.03681 110.672805 167.537085 112.092986 167.967892 
z
" clip-path="url(#pdc2b2c367a)" style="fill: #828282"/>
   </g>
   <g id="patch_118">
    <path d="M 108.446622 156.025034 
C 107.417348 155.474876 106.415706 154.874515 105.445314 154.22612 
C 104.474921 153.577724 103.536948 152.882076 102.634782 152.141687 
L 102.040979 152.865239 
C 102.966828 153.625063 103.929424 154.338973 104.92529 155.00439 
C 105.921156 155.669806 106.949093 156.285928 108.005386 156.850528 
z
" clip-path="url(#pdc2b2c367a)" style="fill: #828282"/>
   </g>
   <g id="patch_119">
    <path d="M 91.204644 166.06935 
C 89.846605 164.954837 88.544104 163.774318 87.301846 162.53206 
C 86.059588 161.289802 84.87907 159.987301 83.764556 158.629262 
L 78.025579 163.339119 
C 79.294253 164.885003 80.638062 166.367667 82.05215 167.781756 
C 83.466239 169.195845 84.948903 170.539653 86.494788 171.808328 
z
" clip-path="url(#pdc2b2c367a)" style="fill: #828282"/>
   </g>
   <g id="patch_120">
    <path d="M 75.200993 165.657196 
C 73.856444 164.018859 72.593144 162.315495 71.415655 160.553258 
C 70.238166 158.791021 69.147907 156.972035 68.148817 155.102869 
L 66.335478 156.07212 
C 67.366293 158.000638 68.491171 159.877385 69.70605 161.69558 
C 70.920929 163.513775 72.224344 165.271227 73.611588 166.961587 
z
" clip-path="url(#pdc2b2c367a)" style="fill: #828282"/>
   </g>
   <g id="patch_121">
    <path d="M 61.697358 158.551246 
C 60.585398 156.470915 59.576247 154.337243 58.673549 152.157938 
C 57.770851 149.978633 56.975695 147.756321 56.290953 145.49903 
L 48.796103 147.772568 
C 49.555261 150.275177 50.436833 152.739004 51.437634 155.155152 
C 52.438435 157.571299 53.557259 159.936854 54.790065 162.243271 
z
" clip-path="url(#pdc2b2c367a)" style="fill: #828282"/>
   </g>
   <g id="patch_122">
    <path d="M 65.220104 142.790402 
C 64.624019 140.825375 64.124772 138.832267 63.724164 136.818276 
C 63.323556 134.804285 63.022071 132.771839 62.820798 130.728279 
L 61.968417 130.812231 
C 62.172438 132.883691 62.478039 134.943885 62.884116 136.985372 
C 63.290193 139.026859 63.796256 141.047178 64.400479 143.039032 
z
" clip-path="url(#pdc2b2c367a)" style="fill: #828282"/>
   </g>
   <g id="patch_123">
    <path d="M 46.928524 132.293532 
C 46.676018 129.729794 46.549536 127.155205 46.549536 124.579062 
C 46.549536 122.00292 46.676018 119.428331 46.928524 116.864593 
L 46.928524 116.864593 
C 46.676018 119.428331 46.549536 122.00292 46.549536 124.579062 
C 46.549536 127.155205 46.676018 129.729794 46.928524 132.293532 
z
" clip-path="url(#pdc2b2c367a)" style="fill: #828282"/>
   </g>
   <g id="patch_124">
    <path d="M 41.554773 116.335325 
C 41.824603 113.595697 42.228778 110.870968 42.765839 108.170979 
C 43.3029 105.470991 43.972199 102.798998 44.77132 100.164652 
L 44.77132 100.164652 
C 43.972199 102.798998 43.3029 105.470991 42.765839 108.170979 
C 42.228778 110.870968 41.824603 113.595697 41.554773 116.335325 
z
" clip-path="url(#pdc2b2c367a)" style="fill: #828282"/>
   </g>
   <g id="patch_125">
    <path d="M 71.075927 108.144068 
C 71.613869 106.370711 72.238554 104.624835 72.947725 102.912744 
C 73.656896 101.200654 74.449698 99.524415 75.323269 97.89008 
L 75.323269 97.89008 
C 74.449698 99.524415 73.656896 101.200654 72.947725 102.912744 
C 72.238554 104.624835 71.613869 106.370711 71.075927 108.144068 
z
" clip-path="url(#pdc2b2c367a)" style="fill: #828282"/>
   </g>
   <g id="patch_126">
    <path d="M 86.199084 103.703324 
C 86.882378 102.42497 87.628024 101.180935 88.433328 99.975712 
C 89.238632 98.770489 90.102624 97.60553 91.022184 96.485044 
L 91.022184 96.485044 
C 90.102624 97.60553 89.238632 98.770489 88.433328 99.975712 
C 87.628024 101.180935 86.882378 102.42497 86.199084 103.703324 
z
" clip-path="url(#pdc2b2c367a)" style="fill: #828282"/>
   </g>
   <g id="patch_127">
    <path d="M 95.438596 100.1095 
C 96.239521 99.13357 97.087879 98.197551 97.980606 97.304825 
C 98.873332 96.412098 99.809351 95.56374 100.785282 94.762815 
L 100.785282 94.762815 
C 99.809351 95.56374 98.873332 96.412098 97.980606 97.304825 
C 97.087879 98.197551 96.239521 99.13357 95.438596 100.1095 
z
" clip-path="url(#pdc2b2c367a)" style="fill: #828282"/>
   </g>
   <g id="patch_128">
    <path d="M 100.563833 94.492979 
C 101.548595 93.684805 102.572443 92.925468 103.631679 92.217709 
C 104.690914 91.509951 105.78426 90.854625 106.907768 90.254097 
L 106.744679 89.948981 
C 105.611185 90.554846 104.50812 91.215997 103.439469 91.930047 
C 102.370818 92.644097 101.337869 93.410184 100.344353 94.225542 
z
" clip-path="url(#pdc2b2c367a)" style="fill: #828282"/>
   </g>
   <g id="patch_129">
    <path d="M 104.963158 86.615988 
C 106.205746 85.951811 107.480194 85.349042 108.7819 84.809858 
C 110.083605 84.270673 111.410998 83.795725 112.759285 83.386726 
L 109.858165 73.823013 
C 108.196843 74.32697 106.561266 74.912189 104.957341 75.576556 
C 103.353416 76.240924 101.783076 76.983639 100.251994 77.80202 
z
" clip-path="url(#pdc2b2c367a)" style="fill: #828282"/>
   </g>
   <g id="patch_130">
    <path d="M 112.713764 83.236663 
C 114.066962 82.826174 115.439499 82.482372 116.826416 82.206497 
C 118.213334 81.930622 119.61296 81.723007 121.020239 81.584402 
L 121.020239 81.584402 
C 119.61296 81.723007 118.213334 81.930622 116.826416 82.206497 
C 115.439499 82.482372 114.066962 82.826174 112.713764 83.236663 
z
" clip-path="url(#pdc2b2c367a)" style="fill: #828282"/>
   </g>
   <g id="patch_131">
    <path d="M 125.254844 124.579062 
C 125.254844 124.579062 125.254844 124.579062 125.254844 124.579062 
C 125.254844 124.579062 125.254844 124.579062 125.254844 124.579062 
L 130.988525 66.364017 
C 129.08306 66.176345 127.169529 66.082339 125.254844 66.082339 
C 123.340159 66.082339 121.426628 66.176345 119.521162 66.364017 
L 125.254844 124.579062 
z
" clip-path="url(#pdc2b2c367a)" style="fill: none; stroke: #292929; stroke-width: 0.5; stroke-linejoin: miter"/>
   </g>
   <g id="patch_132">
    <path d="M 125.254844 124.579062 
C 125.254844 124.579062 125.254844 124.579062 125.254844 124.579062 
C 125.254844 124.579062 125.254844 124.579062 125.254844 124.579062 
L 143.559815 64.235658 
C 141.584686 63.636509 139.58133 63.134695 137.556984 62.732027 
C 135.532638 62.32936 133.489743 62.026325 131.435676 61.824017 
L 125.254844 124.579062 
z
" clip-path="url(#pdc2b2c367a)" style="fill: none; stroke: #292929; stroke-width: 0.5; stroke-linejoin: miter"/>
   </g>
   <g id="patch_133">
    <path d="M 125.254844 124.579062 
C 125.254844 124.579062 125.254844 124.579062 125.254844 124.579062 
C 125.254844 124.579062 125.254844 124.579062 125.254844 124.579062 
L 165.278933 49.699259 
C 162.828005 48.38921 160.314235 47.200286 157.746702 46.136779 
C 155.179169 45.073272 152.560968 44.136464 149.901556 43.329741 
L 125.254844 124.579062 
z
" clip-path="url(#pdc2b2c367a)" style="fill: none; stroke: #292929; stroke-width: 0.5; stroke-linejoin: miter"/>
   </g>
   <g id="patch_134">
    <path d="M 125.254844 124.579062 
C 125.254844 124.579062 125.254844 124.579062 125.254844 124.579062 
C 125.254844 124.579062 125.254844 124.579062 125.254844 124.579062 
L 191.285576 44.120382 
C 188.652043 41.959098 185.913985 39.928415 183.08129 38.035669 
C 180.248596 36.142923 177.32468 34.390396 174.320104 32.784416 
L 125.254844 124.579062 
z
" clip-path="url(#pdc2b2c367a)" style="fill: none; stroke: #292929; stroke-width: 0.5; stroke-linejoin: miter"/>
   </g>
   <g id="patch_135">
    <path d="M 125.254844 124.579062 
C 125.254844 124.579062 125.254844 124.579062 125.254844 124.579062 
C 125.254844 124.579062 125.254844 124.579062 125.254844 124.579062 
L 210.966244 54.237534 
C 208.66386 51.432072 206.225124 48.741342 203.658844 46.175062 
C 201.092564 43.608782 198.401834 41.170046 195.596372 38.867663 
L 125.254844 124.579062 
z
" clip-path="url(#pdc2b2c367a)" style="fill: none; stroke: #292929; stroke-width: 0.5; stroke-linejoin: miter"/>
   </g>
   <g id="patch_136">
    <path d="M 125.254844 124.579062 
C 125.254844 124.579062 125.254844 124.579062 125.254844 124.579062 
C 125.254844 124.579062 125.254844 124.579062 125.254844 124.579062 
L 221.415082 73.180344 
C 219.732725 70.032876 217.896851 66.969904 215.914089 64.002492 
C 213.931327 61.035079 211.804069 58.166803 209.539998 55.408024 
L 125.254844 124.579062 
z
" clip-path="url(#pdc2b2c367a)" style="fill: none; stroke: #292929; stroke-width: 0.5; stroke-linejoin: miter"/>
   </g>
   <g id="patch_137">
    <path d="M 125.254844 124.579062 
C 125.254844 124.579062 125.254844 124.579062 125.254844 124.579062 
C 125.254844 124.579062 125.254844 124.579062 125.254844 124.579062 
L 216.281628 96.966389 
C 215.377824 93.986947 214.328282 91.053674 213.136794 88.177167 
C 211.945305 85.300659 210.613306 82.484385 209.145608 79.738515 
L 125.254844 124.579062 
z
" clip-path="url(#pdc2b2c367a)" style="fill: none; stroke: #292929; stroke-width: 0.5; stroke-linejoin: miter"/>
   </g>
   <g id="patch_138">
    <path d="M 125.254844 124.579062 
C 125.254844 124.579062 125.254844 124.579062 125.254844 124.579062 
C 125.254844 124.579062 125.254844 124.579062 125.254844 124.579062 
L 224.681575 114.786384 
C 224.361046 111.531999 223.880929 108.295312 223.242958 105.088015 
C 222.604987 101.880717 221.809931 98.706676 220.860662 95.577355 
L 125.254844 124.579062 
z
" clip-path="url(#pdc2b2c367a)" style="fill: none; stroke: #292929; stroke-width: 0.5; stroke-linejoin: miter"/>
   </g>
   <g id="patch_139">
    <path d="M 125.254844 124.579062 
C 125.254844 124.579062 125.254844 124.579062 125.254844 124.579062 
C 125.254844 124.579062 125.254844 124.579062 125.254844 124.579062 
L 224.883457 134.391624 
C 225.204637 131.130631 225.365517 127.855834 225.365517 124.579062 
C 225.365517 121.302291 225.204637 118.027494 224.883457 114.766501 
L 125.254844 124.579062 
z
" clip-path="url(#pdc2b2c367a)" style="fill: none; stroke: #292929; stroke-width: 0.5; stroke-linejoin: miter"/>
   </g>
   <g id="patch_140">
    <path d="M 125.254844 124.579062 
C 125.254844 124.579062 125.254844 124.579062 125.254844 124.579062 
C 125.254844 124.579062 125.254844 124.579062 125.254844 124.579062 
L 231.302009 156.748118 
C 232.35495 153.277036 233.236837 149.75635 233.944482 146.198776 
C 234.652128 142.641202 235.184679 139.051028 235.540214 135.441223 
L 125.254844 124.579062 
z
" clip-path="url(#pdc2b2c367a)" style="fill: none; stroke: #292929; stroke-width: 0.5; stroke-linejoin: miter"/>
   </g>
   <g id="patch_141">
    <path d="M 125.254844 124.579062 
C 125.254844 124.579062 125.254844 124.579062 125.254844 124.579062 
C 125.254844 124.579062 125.254844 124.579062 125.254844 124.579062 
L 208.009338 168.812261 
C 209.457157 166.103583 210.771114 163.325454 211.946464 160.487907 
C 213.121814 157.650361 214.15714 154.756819 215.048702 151.817732 
L 125.254844 124.579062 
z
" clip-path="url(#pdc2b2c367a)" style="fill: none; stroke: #292929; stroke-width: 0.5; stroke-linejoin: miter"/>
   </g>
   <g id="patch_142">
    <path d="M 125.254844 124.579062 
C 125.254844 124.579062 125.254844 124.579062 125.254844 124.579062 
C 125.254844 124.579062 125.254844 124.579062 125.254844 124.579062 
L 192.529372 179.789841 
C 194.336503 177.587845 196.034433 175.298451 197.617029 172.929929 
C 199.199625 170.561407 200.66498 168.116611 202.007799 165.604372 
L 125.254844 124.579062 
z
" clip-path="url(#pdc2b2c367a)" style="fill: none; stroke: #292929; stroke-width: 0.5; stroke-linejoin: miter"/>
   </g>
   <g id="patch_143">
    <path d="M 125.254844 124.579062 
C 125.254844 124.579062 125.254844 124.579062 125.254844 124.579062 
C 125.254844 124.579062 125.254844 124.579062 125.254844 124.579062 
L 168.464113 177.229709 
C 170.187447 175.815405 171.840304 174.317343 173.416714 172.740933 
C 174.993124 171.164523 176.491186 169.511666 177.90549 167.788331 
L 125.254844 124.579062 
z
" clip-path="url(#pdc2b2c367a)" style="fill: none; stroke: #292929; stroke-width: 0.5; stroke-linejoin: miter"/>
   </g>
   <g id="patch_144">
    <path d="M 125.254844 124.579062 
C 125.254844 124.579062 125.254844 124.579062 125.254844 124.579062 
C 125.254844 124.579062 125.254844 124.579062 125.254844 124.579062 
L 150.733982 172.247177 
C 152.29423 171.413206 153.812593 170.503135 155.283585 169.520249 
C 156.754577 168.537364 158.176425 167.482849 159.543995 166.360514 
L 125.254844 124.579062 
z
" clip-path="url(#pdc2b2c367a)" style="fill: none; stroke: #292929; stroke-width: 0.5; stroke-linejoin: miter"/>
   </g>
   <g id="patch_145">
    <path d="M 125.254844 124.579062 
C 125.254844 124.579062 125.254844 124.579062 125.254844 124.579062 
C 125.254844 124.579062 125.254844 124.579062 125.254844 124.579062 
L 141.620345 178.528891 
C 143.386204 177.993224 145.124698 177.371181 146.829549 176.665009 
C 148.5344 175.958836 150.203552 175.169386 151.830976 174.29951 
L 125.254844 124.579062 
z
" clip-path="url(#pdc2b2c367a)" style="fill: none; stroke: #292929; stroke-width: 0.5; stroke-linejoin: miter"/>
   </g>
   <g id="patch_146">
    <path d="M 125.254844 124.579062 
C 125.254844 124.579062 125.254844 124.579062 125.254844 124.579062 
C 125.254844 124.579062 125.254844 124.579062 125.254844 124.579062 
L 130.697874 179.843074 
C 132.506747 179.664915 134.305784 179.398054 136.088484 179.043452 
C 137.871185 178.688851 139.635402 178.246938 141.374761 177.719309 
L 125.254844 124.579062 
z
" clip-path="url(#pdc2b2c367a)" style="fill: none; stroke: #292929; stroke-width: 0.5; stroke-linejoin: miter"/>
   </g>
   <g id="patch_147">
    <path d="M 125.254844 124.579062 
C 125.254844 124.579062 125.254844 124.579062 125.254844 124.579062 
C 125.254844 124.579062 125.254844 124.579062 125.254844 124.579062 
L 120.652627 171.306158 
C 122.182074 171.456795 123.717996 171.53225 125.254844 171.53225 
C 126.791692 171.53225 128.327613 171.456795 129.857061 171.306158 
L 125.254844 124.579062 
z
" clip-path="url(#pdc2b2c367a)" style="fill: none; stroke: #292929; stroke-width: 0.5; stroke-linejoin: miter"/>
   </g>
   <g id="patch_148">
    <path d="M 125.254844 124.579062 
C 125.254844 124.579062 125.254844 124.579062 125.254844 124.579062 
C 125.254844 124.579062 125.254844 124.579062 125.254844 124.579062 
L 109.241329 177.368544 
C 110.969208 177.892691 112.721779 178.331687 114.492713 178.683947 
C 116.263647 179.036208 118.050808 179.301308 119.847742 179.478291 
L 125.254844 124.579062 
z
" clip-path="url(#pdc2b2c367a)" style="fill: none; stroke: #292929; stroke-width: 0.5; stroke-linejoin: miter"/>
   </g>
   <g id="patch_149">
    <path d="M 125.254844 124.579062 
C 125.254844 124.579062 125.254844 124.579062 125.254844 124.579062 
C 125.254844 124.579062 125.254844 124.579062 125.254844 124.579062 
L 103.881147 164.566437 
C 105.189993 165.26603 106.532399 165.90094 107.903515 166.468875 
C 109.274631 167.03681 110.672805 167.537085 112.092986 167.967892 
L 125.254844 124.579062 
z
" clip-path="url(#pdc2b2c367a)" style="fill: none; stroke: #292929; stroke-width: 0.5; stroke-linejoin: miter"/>
   </g>
   <g id="patch_150">
    <path d="M 125.254844 124.579062 
C 125.254844 124.579062 125.254844 124.579062 125.254844 124.579062 
C 125.254844 124.579062 125.254844 124.579062 125.254844 124.579062 
L 102.040979 152.865239 
C 102.966828 153.625063 103.929424 154.338973 104.92529 155.00439 
C 105.921156 155.669806 106.949093 156.285928 108.005386 156.850528 
L 125.254844 124.579062 
z
" clip-path="url(#pdc2b2c367a)" style="fill: none; stroke: #292929; stroke-width: 0.5; stroke-linejoin: miter"/>
   </g>
   <g id="patch_151">
    <path d="M 125.254844 124.579062 
C 125.254844 124.579062 125.254844 124.579062 125.254844 124.579062 
C 125.254844 124.579062 125.254844 124.579062 125.254844 124.579062 
L 78.025579 163.339119 
C 79.294253 164.885003 80.638062 166.367667 82.05215 167.781756 
C 83.466239 169.195845 84.948903 170.539653 86.494788 171.808328 
L 125.254844 124.579062 
z
" clip-path="url(#pdc2b2c367a)" style="fill: none; stroke: #292929; stroke-width: 0.5; stroke-linejoin: miter"/>
   </g>
   <g id="patch_152">
    <path d="M 125.254844 124.579062 
C 125.254844 124.579062 125.254844 124.579062 125.254844 124.579062 
C 125.254844 124.579062 125.254844 124.579062 125.254844 124.579062 
L 66.335478 156.07212 
C 67.366293 158.000638 68.491171 159.877385 69.70605 161.69558 
C 70.920929 163.513775 72.224344 165.271227 73.611588 166.961587 
L 125.254844 124.579062 
z
" clip-path="url(#pdc2b2c367a)" style="fill: none; stroke: #292929; stroke-width: 0.5; stroke-linejoin: miter"/>
   </g>
   <g id="patch_153">
    <path d="M 125.254844 124.579062 
C 125.254844 124.579062 125.254844 124.579062 125.254844 124.579062 
C 125.254844 124.579062 125.254844 124.579062 125.254844 124.579062 
L 48.796103 147.772568 
C 49.555261 150.275177 50.436833 152.739004 51.437634 155.155152 
C 52.438435 157.571299 53.557259 159.936854 54.790065 162.243271 
L 125.254844 124.579062 
z
" clip-path="url(#pdc2b2c367a)" style="fill: none; stroke: #292929; stroke-width: 0.5; stroke-linejoin: miter"/>
   </g>
   <g id="patch_154">
    <path d="M 125.254844 124.579062 
C 125.254844 124.579062 125.254844 124.579062 125.254844 124.579062 
C 125.254844 124.579062 125.254844 124.579062 125.254844 124.579062 
L 61.968417 130.812231 
C 62.172438 132.883691 62.478039 134.943885 62.884116 136.985372 
C 63.290193 139.026859 63.796256 141.047178 64.400479 143.039032 
L 125.254844 124.579062 
z
" clip-path="url(#pdc2b2c367a)" style="fill: none; stroke: #292929; stroke-width: 0.5; stroke-linejoin: miter"/>
   </g>
   <g id="patch_155">
    <path d="M 125.254844 124.579062 
C 125.254844 124.579062 125.254844 124.579062 125.254844 124.579062 
C 125.254844 124.579062 125.254844 124.579062 125.254844 124.579062 
L 46.928524 116.864593 
C 46.676018 119.428331 46.549536 122.00292 46.549536 124.579062 
C 46.549536 127.155205 46.676018 129.729794 46.928524 132.293532 
L 125.254844 124.579062 
z
" clip-path="url(#pdc2b2c367a)" style="fill: none; stroke: #292929; stroke-width: 0.5; stroke-linejoin: miter"/>
   </g>
   <g id="patch_156">
    <path d="M 125.254844 124.579062 
C 125.254844 124.579062 125.254844 124.579062 125.254844 124.579062 
C 125.254844 124.579062 125.254844 124.579062 125.254844 124.579062 
L 44.77132 100.164652 
C 43.972199 102.798998 43.3029 105.470991 42.765839 108.170979 
C 42.228778 110.870968 41.824603 113.595697 41.554773 116.335325 
L 125.254844 124.579062 
z
" clip-path="url(#pdc2b2c367a)" style="fill: none; stroke: #292929; stroke-width: 0.5; stroke-linejoin: miter"/>
   </g>
   <g id="patch_157">
    <path d="M 125.254844 124.579062 
C 125.254844 124.579062 125.254844 124.579062 125.254844 124.579062 
C 125.254844 124.579062 125.254844 124.579062 125.254844 124.579062 
L 75.323269 97.89008 
C 74.449698 99.524415 73.656896 101.200654 72.947725 102.912744 
C 72.238554 104.624835 71.613869 106.370711 71.075927 108.144068 
L 125.254844 124.579062 
z
" clip-path="url(#pdc2b2c367a)" style="fill: none; stroke: #292929; stroke-width: 0.5; stroke-linejoin: miter"/>
   </g>
   <g id="patch_158">
    <path d="M 125.254844 124.579062 
C 125.254844 124.579062 125.254844 124.579062 125.254844 124.579062 
C 125.254844 124.579062 125.254844 124.579062 125.254844 124.579062 
L 91.022184 96.485044 
C 90.102624 97.60553 89.238632 98.770489 88.433328 99.975712 
C 87.628024 101.180935 86.882378 102.42497 86.199084 103.703324 
L 125.254844 124.579062 
z
" clip-path="url(#pdc2b2c367a)" style="fill: none; stroke: #292929; stroke-width: 0.5; stroke-linejoin: miter"/>
   </g>
   <g id="patch_159">
    <path d="M 125.254844 124.579062 
C 125.254844 124.579062 125.254844 124.579062 125.254844 124.579062 
C 125.254844 124.579062 125.254844 124.579062 125.254844 124.579062 
L 100.785282 94.762815 
C 99.809351 95.56374 98.873332 96.412098 97.980606 97.304825 
C 97.087879 98.197551 96.239521 99.13357 95.438596 100.1095 
L 125.254844 124.579062 
z
" clip-path="url(#pdc2b2c367a)" style="fill: none; stroke: #292929; stroke-width: 0.5; stroke-linejoin: miter"/>
   </g>
   <g id="patch_160">
    <path d="M 125.254844 124.579062 
C 125.254844 124.579062 125.254844 124.579062 125.254844 124.579062 
C 125.254844 124.579062 125.254844 124.579062 125.254844 124.579062 
L 106.744679 89.948981 
C 105.611185 90.554846 104.50812 91.215997 103.439469 91.930047 
C 102.370818 92.644097 101.337869 93.410184 100.344353 94.225542 
L 125.254844 124.579062 
z
" clip-path="url(#pdc2b2c367a)" style="fill: none; stroke: #292929; stroke-width: 0.5; stroke-linejoin: miter"/>
   </g>
   <g id="patch_161">
    <path d="M 125.254844 124.579062 
C 125.254844 124.579062 125.254844 124.579062 125.254844 124.579062 
C 125.254844 124.579062 125.254844 124.579062 125.254844 124.579062 
L 109.858165 73.823013 
C 108.196843 74.32697 106.561266 74.912189 104.957341 75.576556 
C 103.353416 76.240924 101.783076 76.983639 100.251994 77.80202 
L 125.254844 124.579062 
z
" clip-path="url(#pdc2b2c367a)" style="fill: none; stroke: #292929; stroke-width: 0.5; stroke-linejoin: miter"/>
   </g>
   <g id="patch_162">
    <path d="M 125.254844 124.579062 
C 125.254844 124.579062 125.254844 124.579062 125.254844 124.579062 
C 125.254844 124.579062 125.254844 124.579062 125.254844 124.579062 
L 121.020239 81.584402 
C 119.61296 81.723007 118.213334 81.930622 116.826416 82.206497 
C 115.439499 82.482372 114.066962 82.826174 112.713764 83.236663 
L 125.254844 124.579062 
z
" clip-path="url(#pdc2b2c367a)" style="fill: none; stroke: #292929; stroke-width: 0.5; stroke-linejoin: miter"/>
   </g>
   <g id="PathCollection_1">
    <defs>
     <path id="mb7ae25d93d" d="M 0.193618 7.414054 
L 0.193618 7.414054 
C 0.054922 7.414054 -0.078235 7.358899 -0.176308 7.260826 
C -0.274381 7.162753 -0.329536 7.029596 -0.329536 6.890901 
L -0.329536 5.365008 
L -1.528416 6.56393 
L -1.528416 6.56393 
C -1.577018 6.612704 -1.634775 6.651408 -1.698366 6.677814 
C -1.761958 6.704221 -1.830141 6.717815 -1.898997 6.717815 
C -1.967853 6.717815 -2.036037 6.704221 -2.099628 6.677814 
C -2.163219 6.651408 -2.220976 6.612704 -2.269578 6.56393 
L -2.269578 6.56393 
C -2.318353 6.515327 -2.357056 6.457571 -2.383463 6.393979 
C -2.409869 6.330388 -2.423463 6.262205 -2.423463 6.193348 
C -2.423463 6.124492 -2.409869 6.056309 -2.383463 5.992718 
C -2.357056 5.929126 -2.318353 5.87137 -2.269578 5.822767 
L -0.329536 3.884106 
L -0.329536 0.820937 
L -2.98067 2.351538 
L -3.691824 5.001416 
L -3.691824 5.001416 
C -3.727584 5.135411 -3.815199 5.249836 -3.93523 5.319305 
C -4.055261 5.388775 -4.198123 5.407741 -4.332122 5.371997 
L -4.332122 5.371997 
C -4.466126 5.336237 -4.580558 5.248616 -4.650029 5.128576 
C -4.719499 5.008535 -4.73846 4.865662 -4.702703 4.731657 
L -4.262647 3.092721 
L -5.585535 3.855668 
L -5.585535 3.855668 
C -5.645013 3.890144 -5.710708 3.912561 -5.778854 3.921634 
C -5.847001 3.930706 -5.916272 3.926258 -5.982698 3.908543 
C -6.049125 3.890828 -6.111412 3.860192 -6.165991 3.818391 
C -6.220571 3.77659 -6.266379 3.724437 -6.300791 3.664922 
L -6.300791 3.664922 
C -6.335212 3.605364 -6.35755 3.539597 -6.366524 3.471396 
C -6.375498 3.403194 -6.370933 3.333888 -6.35309 3.267452 
C -6.335248 3.201017 -6.304476 3.138749 -6.26254 3.08422 
C -6.220605 3.029692 -6.168323 2.983966 -6.108695 2.949666 
L -4.785807 2.186762 
L -6.424743 1.746706 
L -6.424743 1.746706 
C -6.558747 1.710946 -6.673179 1.623325 -6.74265 1.503284 
C -6.81212 1.383244 -6.831081 1.240371 -6.795324 1.106366 
L -6.795324 1.106366 
C -6.777471 1.039969 -6.746703 0.977739 -6.704784 0.923241 
C -6.662864 0.868744 -6.61061 0.823041 -6.551015 0.788752 
C -6.491421 0.754464 -6.425647 0.732257 -6.357465 0.723406 
C -6.289282 0.714554 -6.220019 0.71923 -6.153645 0.737166 
L -3.505232 1.44698 
L -0.852424 -0.08496 
L -3.503767 -1.615666 
L -6.153645 -0.905851 
L -6.153645 -0.905851 
C -6.22011 -0.887939 -6.289462 -0.883321 -6.357716 -0.892262 
C -6.42597 -0.901202 -6.491793 -0.923527 -6.551403 -0.957953 
C -6.611013 -0.992379 -6.663247 -1.038234 -6.705103 -1.092883 
C -6.746958 -1.147533 -6.777619 -1.209911 -6.795324 -1.276432 
L -6.795324 -1.276432 
C -6.831068 -1.410431 -6.812101 -1.553293 -6.742632 -1.673324 
C -6.673162 -1.793355 -6.558738 -1.88097 -6.424743 -1.91673 
L -4.785807 -2.355447 
L -6.108695 -3.119732 
L -6.108695 -3.119732 
C -6.228699 -3.188976 -6.316415 -3.303132 -6.352417 -3.436921 
C -6.388419 -3.57071 -6.369839 -3.713469 -6.300791 -3.833586 
L -6.300791 -3.833586 
C -6.266491 -3.893214 -6.220765 -3.945496 -6.166237 -3.987431 
C -6.111708 -4.029367 -6.04944 -4.060139 -5.983005 -4.077981 
C -5.91657 -4.095823 -5.847263 -4.100389 -5.779062 -4.091415 
C -5.71086 -4.082441 -5.645094 -4.060102 -5.585535 -4.025682 
L -4.262647 -3.261396 
L -4.702703 -4.900332 
L -4.702703 -4.900332 
C -4.73846 -5.034337 -4.719499 -5.17721 -4.650029 -5.29725 
C -4.580558 -5.417291 -4.466126 -5.504912 -4.332122 -5.540672 
L -4.332122 -5.540672 
C -4.19831 -5.576464 -4.055613 -5.557686 -3.935617 -5.488496 
C -3.81562 -5.419305 -3.727882 -5.305212 -3.691824 -5.171472 
L -2.982009 -2.521594 
L -0.329411 -0.990302 
L -0.329411 -4.051588 
L -2.269453 -5.991589 
L -2.269453 -5.991589 
C -2.318227 -6.040191 -2.356931 -6.097947 -2.383337 -6.161539 
C -2.409744 -6.22513 -2.423338 -6.293314 -2.423338 -6.36217 
C -2.423338 -6.431026 -2.409744 -6.499209 -2.383337 -6.5628 
C -2.356931 -6.626392 -2.318227 -6.684149 -2.269453 -6.732751 
L -2.269453 -6.732751 
C -2.22085 -6.781526 -2.163094 -6.820229 -2.099502 -6.846635 
C -2.035911 -6.873042 -1.967728 -6.886636 -1.898871 -6.886636 
C -1.830015 -6.886636 -1.761832 -6.873042 -1.698241 -6.846635 
C -1.634649 -6.820229 -1.576893 -6.781526 -1.52829 -6.732751 
L -0.329411 -5.533829 
L -0.329411 -7.059722 
L -0.329411 -7.059722 
C -0.329411 -7.198418 -0.274255 -7.331575 -0.176182 -7.429647 
C -0.07811 -7.52772 0.055047 -7.582875 0.193743 -7.582875 
L 0.193743 -7.582875 
C 0.332439 -7.582875 0.465596 -7.52772 0.563669 -7.429647 
C 0.661741 -7.331575 0.716897 -7.198418 0.716897 -7.059722 
L 0.716897 -5.533829 
L 1.915777 -6.732751 
L 1.915777 -6.732751 
C 1.964379 -6.781526 2.022136 -6.820229 2.085727 -6.846635 
C 2.149318 -6.873042 2.217502 -6.886636 2.286358 -6.886636 
C 2.355214 -6.886636 2.423397 -6.873042 2.486989 -6.846635 
C 2.55058 -6.820229 2.608337 -6.781526 2.656939 -6.732751 
L 2.656939 -6.732751 
C 2.705714 -6.684149 2.744417 -6.626392 2.770823 -6.5628 
C 2.79723 -6.499209 2.810824 -6.431026 2.810824 -6.36217 
C 2.810824 -6.293314 2.79723 -6.22513 2.770823 -6.161539 
C 2.744417 -6.097947 2.705714 -6.040191 2.656939 -5.991589 
L 0.716897 -4.051588 
L 0.716897 -0.991139 
L 3.369495 -2.522954 
L 4.07931 -5.171367 
L 4.07931 -5.171367 
C 4.115368 -5.305107 4.203106 -5.4192 4.323103 -5.488391 
C 4.4431 -5.557582 4.585797 -5.576359 4.719608 -5.540567 
L 4.719608 -5.540567 
C 4.853612 -5.504807 4.968045 -5.417186 5.037515 -5.297146 
C 5.106986 -5.177105 5.125946 -5.034232 5.090189 -4.900227 
L 4.650133 -3.262673 
L 5.973022 -4.025577 
L 5.973022 -4.025577 
C 6.03258 -4.059998 6.098346 -4.082336 6.166548 -4.09131 
C 6.234749 -4.100284 6.304056 -4.095719 6.370491 -4.077876 
C 6.436926 -4.060034 6.499194 -4.029262 6.553723 -3.987327 
C 6.608252 -3.945391 6.653978 -3.893109 6.688277 -3.833481 
L 6.688277 -3.833481 
C 6.757325 -3.713365 6.775905 -3.570605 6.739903 -3.436816 
C 6.703901 -3.303027 6.616186 -3.188871 6.496181 -3.119628 
L 5.173293 -2.355342 
L 6.812229 -1.916625 
L 6.812229 -1.916625 
C 6.946224 -1.880865 7.060649 -1.79325 7.130118 -1.67322 
C 7.199588 -1.553189 7.218554 -1.410326 7.18281 -1.276327 
L 7.18281 -1.276327 
C 7.165106 -1.209806 7.134445 -1.147429 7.092589 -1.092779 
C 7.050733 -1.038129 6.998499 -0.992274 6.938889 -0.957848 
C 6.879279 -0.923422 6.813456 -0.901098 6.745202 -0.892157 
C 6.676949 -0.883217 6.607597 -0.887835 6.541131 -0.905746 
L 3.891253 -1.615561 
L 1.239492 -0.084604 
L 3.892718 1.447085 
L 6.541131 0.73727 
L 6.541131 0.73727 
C 6.674948 0.701466 6.817656 0.720237 6.937662 0.789429 
C 7.057669 0.858621 7.145413 0.972721 7.181471 1.10647 
L 7.181471 1.10647 
C 7.217274 1.240293 7.198497 1.383006 7.129297 1.503014 
C 7.060096 1.623021 6.945986 1.710762 6.812229 1.74681 
L 5.173293 2.186866 
L 6.496181 2.949771 
L 6.496181 2.949771 
C 6.555697 2.984183 6.607849 3.029991 6.649651 3.08457 
C 6.691452 3.13915 6.722088 3.201437 6.739803 3.267863 
C 6.757517 3.33429 6.761966 3.403561 6.752893 3.471707 
C 6.743821 3.539854 6.721404 3.605549 6.686927 3.665026 
L 6.686927 3.665026 
C 6.617458 3.784813 6.503196 3.87225 6.369416 3.907994 
C 6.235636 3.943739 6.092989 3.924946 5.973032 3.855772 
L 4.650144 3.091487 
L 5.08886 4.731783 
L 5.08886 4.731783 
C 5.124664 4.865606 5.105887 5.008319 5.036686 5.128326 
C 4.967486 5.248334 4.853376 5.336074 4.719619 5.372123 
L 4.719619 5.372123 
C 4.585619 5.407867 4.442757 5.3889 4.322726 5.319431 
C 4.202695 5.249961 4.115081 5.135537 4.07932 5.001542 
L 3.368166 2.351664 
L 0.717033 0.821063 
L 0.717033 3.884232 
L 2.657075 5.822893 
L 2.657075 5.822893 
C 2.70585 5.871495 2.744553 5.929252 2.770959 5.992843 
C 2.797366 6.056435 2.81096 6.124618 2.81096 6.193474 
C 2.81096 6.26233 2.797366 6.330514 2.770959 6.394105 
C 2.744553 6.457696 2.70585 6.515453 2.657075 6.564055 
L 2.657075 6.564055 
C 2.608473 6.61283 2.550716 6.651533 2.487125 6.67794 
C 2.423533 6.704346 2.35535 6.71794 2.286494 6.71794 
C 2.217638 6.71794 2.149454 6.704346 2.085863 6.67794 
C 2.022272 6.651533 1.964515 6.61283 1.915913 6.564055 
L 0.717033 5.365133 
L 0.717033 6.891026 
L 0.717033 6.891026 
C 0.717033 7.029722 0.661877 7.162879 0.563805 7.260952 
C 0.465732 7.359024 0.332575 7.41418 0.193879 7.41418 
L 0.193618 7.414054 
z
"/>
    </defs>
    <g clip-path="url(#pdc2b2c367a)">
     <use xlink:href="#mb7ae25d93d" x="156.97277" y="114.212813" style="fill: #9e2096; fill-opacity: 0.7"/>
    </g>
   </g>
   <g id="patch_163">
    <path d="M 125.254844 13.699062 
C 110.694216 13.699062 96.275171 16.567189 82.822905 22.1393 
C 69.370638 27.711411 57.146763 35.879144 46.850844 46.175063 
C 36.554925 56.470982 28.387192 68.694857 22.815081 82.147124 
C 17.24297 95.59939 14.374844 110.018434 14.374844 124.579063 
C 14.374844 139.139691 17.24297 153.558735 22.815081 167.011001 
C 28.387192 180.463268 36.554925 192.687143 46.850844 202.983062 
C 57.146763 213.278981 69.370638 221.446714 82.822905 227.018825 
C 96.275171 232.590936 110.694216 235.459063 125.254844 235.459063 
C 139.815472 235.459063 154.234516 232.590936 167.686783 227.018825 
C 181.139049 221.446714 193.362925 213.278981 203.658844 202.983062 
C 213.954763 192.687143 222.122495 180.463268 227.694606 167.011001 
C 233.266717 153.558735 236.134844 139.139691 236.134844 124.579062 
C 236.134844 110.018434 233.266717 95.59939 227.694606 82.147124 
C 222.122495 68.694857 213.954763 56.470982 203.658844 46.175063 
C 193.362925 35.879144 181.139049 27.711411 167.686783 22.1393 
C 154.234516 16.567189 139.815472 13.699062 125.254844 13.699062 
" style="fill: none; stroke: #000000; stroke-width: 0.8; stroke-linejoin: miter; stroke-linecap: square"/>
   </g>
  </g>
 </g>
 <defs>
  <clipPath id="pdc2b2c367a">
   <path d="M 236.134844 124.579063 
C 236.134844 110.018434 233.266717 95.59939 227.694606 82.147124 
C 222.122495 68.694857 213.954763 56.470982 203.658844 46.175063 
C 193.362925 35.879144 181.139049 27.711411 167.686783 22.1393 
C 154.234516 16.567189 139.815472 13.699062 125.254844 13.699062 
C 110.694216 13.699062 96.275171 16.567189 82.822905 22.1393 
C 69.370638 27.711411 57.146763 35.879144 46.850844 46.175063 
C 36.554925 56.470982 28.387192 68.694857 22.815081 82.147124 
C 17.24297 95.59939 14.374844 110.018434 14.374844 124.579062 
C 14.374844 139.139691 17.24297 153.558735 22.815081 167.011001 
C 28.387192 180.463268 36.554925 192.687143 46.850844 202.983062 
C 57.146763 213.278981 69.370638 221.446714 82.822905 227.018825 
C 96.275171 232.590936 110.694216 235.459063 125.254844 235.459063 
C 139.815472 235.459063 154.234516 232.590936 167.686783 227.018825 
C 181.139049 221.446714 193.362925 213.278981 203.658844 202.983062 
C 213.954763 192.687143 222.122495 180.463268 227.694606 167.011001 
C 233.266717 153.558735 236.134844 139.139691 236.134844 124.579063 
M 125.254844 124.579063 
C 125.254844 124.579063 125.254844 124.579063 125.254844 124.579063 
C 125.254844 124.579063 125.254844 124.579063 125.254844 124.579063 
C 125.254844 124.579063 125.254844 124.579063 125.254844 124.579063 
C 125.254844 124.579063 125.254844 124.579063 125.254844 124.579063 
C 125.254844 124.579063 125.254844 124.579063 125.254844 124.579063 
C 125.254844 124.579063 125.254844 124.579063 125.254844 124.579063 
C 125.254844 124.579063 125.254844 124.579063 125.254844 124.579063 
C 125.254844 124.579063 125.254844 124.579063 125.254844 124.579063 
C 125.254844 124.579063 125.254844 124.579063 125.254844 124.579063 
C 125.254844 124.579063 125.254844 124.579063 125.254844 124.579063 
C 125.254844 124.579063 125.254844 124.579063 125.254844 124.579063 
C 125.254844 124.579063 125.254844 124.579063 125.254844 124.579063 
C 125.254844 124.579063 125.254844 124.579063 125.254844 124.579063 
C 125.254844 124.579063 125.254844 124.579063 125.254844 124.579063 
C 125.254844 124.579063 125.254844 124.579063 125.254844 124.579063 
C 125.254844 124.579063 125.254844 124.579063 125.254844 124.579063 
z
"/>
  </clipPath>
 </defs>
</svg>
