<?xml version="1.0" encoding="utf-8" standalone="no"?>
<!DOCTYPE svg PUBLIC "-//W3C//DTD SVG 1.1//EN"
  "http://www.w3.org/Graphics/SVG/1.1/DTD/svg11.dtd">
<svg xmlns:xlink="http://www.w3.org/1999/xlink" width="248.410469pt" height="249.158125pt" viewBox="0 0 248.410469 249.158125" xmlns="http://www.w3.org/2000/svg" version="1.1">
 <title>Ski Rose for Ofterschwang/​Gunzesried</title>
 <metadata>
  <rdf:RDF xmlns:dc="http://purl.org/dc/elements/1.1/" xmlns:cc="http://creativecommons.org/ns#" xmlns:rdf="http://www.w3.org/1999/02/22-rdf-syntax-ns#">
   <cc:Work>
    <dc:type rdf:resource="http://purl.org/dc/dcmitype/StillImage"/>
    <dc:title>Ski Rose for Ofterschwang/​Gunzesried</dc:title>
    <dc:date>2026-02-28T10:19:03.153772</dc:date>
    <dc:description>A 32-bin stacked histogram of downhill ski run orientations colored by difficulty.</dc:description>
    <dc:format>image/svg+xml</dc:format>
    <dc:source>https://openskimap.org/?obj=1fa7b7da1b4f8d5d8f5002f23ee194e0bfc23742</dc:source>
    <dc:creator>
     <cc:Agent>
      <dc:title>https://github.com/dhimmel/openskistats</dc:title>
     </cc:Agent>
    </dc:creator>
    <dc:rights>
     <cc:Agent>
      <dc:title>https://creativecommons.org/licenses/by/4.0/</dc:title>
     </cc:Agent>
    </dc:rights>
   </cc:Work>
  </rdf:RDF>
 </metadata>
 <defs>
  <style type="text/css">*{stroke-linejoin: round; stroke-linecap: butt}</style>
 </defs>
 <g id="figure_1">
  <g id="patch_1">
   <path d="M 0 249.158125 
L 248.410469 249.158125 
L 248.410469 0 
L 0 0 
z
" style="fill: #ffffff"/>
  </g>
  <g id="axes_1">
   <g id="patch_2">
    <path d="M 236.134844 124.579063 
C 236.134844 110.018434 233.266717 95.59939 227.694606 82.147124 
C 222.122495 68.694857 213.954763 56.470982 203.658844 46.175063 
C 193.362925 35.879144 181.139049 27.711411 167.686783 22.1393 
C 154.234516 16.567189 139.815472 13.699063 125.254844 13.699063 
C 110.694216 13.699063 96.275171 16.567189 82.822905 22.1393 
C 69.370638 27.711411 57.146763 35.879144 46.850844 46.175063 
C 36.554925 56.470982 28.387192 68.694857 22.815081 82.147124 
C 17.24297 95.59939 14.374844 110.018434 14.374844 124.579062 
C 14.374844 139.139691 17.24297 153.558735 22.815081 167.011001 
C 28.387192 180.463268 36.554925 192.687143 46.850844 202.983062 
C 57.146763 213.278981 69.370638 221.446714 82.822905 227.018825 
C 96.275171 232.590936 110.694216 235.459063 125.254844 235.459063 
C 139.815472 235.459063 154.234516 232.590936 167.686783 227.018825 
C 181.139049 221.446714 193.362925 213.278981 203.658844 202.983062 
C 213.954763 192.687143 222.122495 180.463268 227.694606 167.011001 
C 233.266717 153.558735 236.134844 139.139691 236.134844 124.579063 
M 125.254844 124.579063 
C 125.254844 124.579063 125.254844 124.579063 125.254844 124.579063 
C 125.254844 124.579063 125.254844 124.579063 125.254844 124.579063 
C 125.254844 124.579063 125.254844 124.579063 125.254844 124.579063 
C 125.254844 124.579063 125.254844 124.579063 125.254844 124.579063 
C 125.254844 124.579063 125.254844 124.579063 125.254844 124.579063 
C 125.254844 124.579063 125.254844 124.579063 125.254844 124.579063 
C 125.254844 124.579063 125.254844 124.579063 125.254844 124.579063 
C 125.254844 124.579063 125.254844 124.579063 125.254844 124.579063 
C 125.254844 124.579063 125.254844 124.579063 125.254844 124.579063 
C 125.254844 124.579063 125.254844 124.579063 125.254844 124.579063 
C 125.254844 124.579063 125.254844 124.579063 125.254844 124.579063 
C 125.254844 124.579063 125.254844 124.579063 125.254844 124.579063 
C 125.254844 124.579063 125.254844 124.579063 125.254844 124.579063 
C 125.254844 124.579063 125.254844 124.579063 125.254844 124.579063 
C 125.254844 124.579063 125.254844 124.579063 125.254844 124.579063 
C 125.254844 124.579063 125.254844 124.579063 125.254844 124.579063 
z
" style="fill: #ffffff"/>
   </g>
   <g id="FillBetweenPolyCollection_1">
    <defs>
     <path id="m34d4bc6dc3" d="M 235.36831 -137.124907 
L 234.655691 -137.043715 
L 233.929851 -135.043275 
L 232.940623 -133.054117 
L 232.084884 -131.113068 
L 230.978909 -129.195075 
L 230.029644 -127.322687 
L 229.041396 -125.484794 
L 227.811681 -123.684063 
L 226.752949 -121.921241 
L 225.456678 -120.204156 
L 224.336384 -118.518976 
L 223.187927 -116.871562 
L 221.807768 -115.282073 
L 220.60806 -113.714936 
L 219.384721 -112.186629 
L 217.936387 -110.727713 
L 216.670954 -109.281252 
L 215.386128 -107.874216 
L 214.083245 -106.50672 
L 212.763637 -105.17883 
L 211.428623 -103.890568 
L 210.079518 -102.64191 
L 208.717627 -101.432784 
L 207.34425 -100.263073 
L 205.960676 -99.132611 
L 204.568189 -98.041188 
L 203.16806 -96.988545 
L 201.761554 -95.974376 
L 200.529554 -94.927566 
L 199.11142 -93.986667 
L 197.690514 -93.083137 
L 196.439801 -92.138208 
L 195.014034 -91.305635 
L 193.755076 -90.426106 
L 192.32875 -89.662597 
L 191.065402 -88.846845 
L 189.799781 -88.061294 
L 188.378671 -87.396287 
L 187.114115 -86.671652 
L 185.849815 -85.975808 
L 184.586551 -85.308262 
L 183.325087 -84.66849 
L 182.066163 -84.055942 
L 180.810502 -83.470038 
L 179.5588 -82.910171 
L 178.311734 -82.375707 
L 177.069951 -81.865984 
L 175.834077 -81.380316 
L 174.604707 -80.917992 
L 173.494875 -80.375218 
L 172.276402 -79.95727 
L 171.066015 -79.560549 
L 169.965726 -79.080938 
L 168.769061 -78.724645 
L 167.676121 -78.284362 
L 166.494774 -77.965801 
L 165.410629 -77.562679 
L 164.24597 -77.279044 
L 163.171868 -76.91083 
L 162.101523 -76.559535 
L 160.962012 -76.323594 
L 159.903213 -76.00384 
L 158.848836 -75.699501 
L 157.799065 -75.410108 
L 156.754062 -75.135193 
L 155.657533 -74.966382 
L 154.625603 -74.717408 
L 153.598754 -74.481371 
L 152.577059 -74.257803 
L 151.560568 -74.046236 
L 150.549311 -73.84621 
L 149.543294 -73.657268 
L 148.542503 -73.478957 
L 147.546903 -73.310835 
L 146.556438 -73.152465 
L 145.571029 -73.003421 
L 144.59058 -72.863286 
L 143.614973 -72.731657 
L 142.644071 -72.60814 
L 141.696251 -72.433582 
L 140.732207 -72.328361 
L 139.772454 -72.230253 
L 138.816786 -72.138922 
L 137.864983 -72.054051 
L 136.916808 -71.97534 
L 135.980076 -71.86286 
L 135.036997 -71.799289 
L 134.096876 -71.74116 
L 133.159429 -71.688249 
L 132.227785 -71.614312 
L 131.293883 -71.575098 
L 130.361866 -71.540608 
L 129.431414 -71.510708 
L 128.502921 -71.473472 
L 127.57423 -71.456384 
L 126.646244 -71.443639 
L 125.718623 -71.43519 
L 124.791064 -71.435124 
L 123.863537 -71.44721 
L 122.935769 -71.463521 
L 122.00742 -71.484162 
L 121.078155 -71.509195 
L 120.149416 -71.557171 
L 119.21809 -71.595152 
L 118.284998 -71.637826 
L 117.349825 -71.685348 
L 116.417692 -71.770328 
L 115.478717 -71.831801 
L 114.536896 -71.898666 
L 113.591953 -71.971161 
L 112.643623 -72.049547 
L 111.704342 -72.183162 
L 110.750351 -72.277552 
L 109.792377 -72.378648 
L 108.830211 -72.486782 
L 107.863663 -72.602302 
L 106.89256 -72.725572 
L 105.916746 -72.856971 
L 104.936086 -72.996891 
L 103.980397 -73.218004 
L 102.992328 -73.378782 
L 101.999203 -73.549216 
L 101.000961 -73.729739 
L 99.997563 -73.920794 
L 98.988991 -74.122828 
L 97.975248 -74.336298 
L 96.906616 -74.473739 
L 95.879555 -74.709718 
L 94.847417 -74.958652 
L 93.810297 -75.221011 
L 92.76831 -75.497264 
L 91.721596 -75.787884 
L 90.600957 -75.996105 
L 89.541989 -76.31591 
L 88.478815 -76.651609 
L 87.41166 -77.00366 
L 86.257588 -77.271608 
L 85.179879 -77.657308 
L 84.008564 -77.958623 
L 82.921443 -78.380262 
L 81.73413 -78.717799 
L 80.638939 -79.177588 
L 79.437109 -79.5541 
L 78.335384 -80.054158 
L 77.120737 -80.47228 
L 75.898508 -80.912265 
L 74.788636 -81.476849 
L 73.556562 -81.962287 
L 72.318564 -82.471644 
L 71.075264 -83.005609 
L 69.827309 -83.564844 
L 68.57537 -84.149987 
L 67.320143 -84.761646 
L 66.062347 -85.400404 
L 64.802722 -86.066813 
L 63.542027 -86.7614 
L 62.281043 -87.484659 
L 60.863967 -88.148457 
L 59.601841 -88.932391 
L 58.341947 -89.746413 
L 56.919524 -90.508329 
L 55.663933 -91.385901 
L 54.241973 -92.216633 
L 52.994535 -93.159386 
L 51.577334 -94.060839 
L 50.162852 -94.99954 
L 48.933978 -96.04386 
L 47.531015 -97.055611 
L 46.134375 -98.105724 
L 44.745317 -99.194506 
L 43.365116 -100.32222 
L 42.187272 -101.542386 
L 40.830436 -102.745426 
L 39.290497 -103.940849 
L 37.958611 -105.225954 
L 36.642064 -106.550589 
L 35.342178 -107.914735 
L 34.060277 -109.318326 
L 32.797697 -110.761249 
L 31.555785 -112.243347 
L 30.131935 -113.741176 
L 28.934829 -115.3045 
L 27.762667 -116.906262 
L 26.411523 -118.533546 
L 25.29348 -120.214655 
L 24.205034 -121.93298 
L 22.942815 -123.686199 
L 21.9193 -125.480858 
L 20.727922 -127.316196 
L 19.779292 -129.184225 
L 18.673047 -131.097884 
L 17.815629 -133.034712 
L 17.012237 -135.00164 
L 16.088882 -137.016953 
L 15.431069 -139.037637 
L 15.431069 -139.037637 
L 15.431069 -139.037637 
L 15.123387 -137.126957 
L 14.951159 -135.200099 
L 14.811809 -133.271118 
L 14.602991 -131.34682 
L 14.529349 -129.413442 
L 14.4883 -127.479587 
L 14.479579 -125.545784 
L 14.402897 -123.611672 
L 14.458904 -121.677769 
L 14.546425 -119.745429 
L 14.74511 -117.819998 
L 14.719645 -115.879754 
L 14.901327 -113.953227 
L 15.11327 -112.030015 
L 15.439658 -110.121619 
L 15.624466 -108.194693 
L 15.929659 -106.284301 
L 16.264593 -104.378913 
L 16.629308 -102.478947 
L 17.023905 -100.584841 
L 17.448526 -98.697056 
L 17.993351 -96.839354 
L 18.478825 -94.967452 
L 18.994593 -93.103342 
L 19.540809 -91.247555 
L 20.117644 -89.400647 
L 20.815431 -87.595127 
L 21.453479 -85.769322 
L 22.122545 -83.95417 
L 22.822903 -82.150363 
L 23.617414 -80.38585 
L 24.381073 -78.608237 
L 25.177723 -76.844724 
L 26.070983 -75.127814 
L 26.936582 -73.397815 
L 27.837496 -71.685758 
L 28.774292 -69.992993 
L 29.761259 -68.329042 
L 30.730406 -66.654413 
L 31.752893 -65.01175 
L 32.803942 -63.387145 
L 33.927607 -61.811592 
L 34.992806 -60.195776 
L 36.556117 -58.945457 
L 38.301972 -57.857778 
L 40.126738 -56.86511 
L 41.969612 -55.924016 
L 43.760546 -54.976356 
L 45.611934 -54.116968 
L 47.410088 -53.247486 
L 49.264803 -52.467207 
L 51.061185 -51.669157 
L 52.855269 -50.90472 
L 54.645968 -50.172833 
L 56.432346 -49.472486 
L 58.213589 -48.802708 
L 59.988977 -48.162551 
L 61.757873 -47.551078 
L 63.519709 -46.967362 
L 65.273981 -46.410481 
L 66.981484 -45.827137 
L 68.721103 -45.321682 
L 70.420266 -44.794256 
L 72.143771 -44.336984 
L 73.826022 -43.851982 
L 75.50554 -43.395578 
L 77.175148 -42.955937 
L 78.865283 -42.585791 
L 80.523253 -42.193721 
L 82.171081 -41.815925 
L 83.815096 -41.463788 
L 85.448988 -41.12435 
L 87.059252 -40.766485 
L 88.683379 -40.470451 
L 90.29764 -40.184906 
L 91.907681 -39.922358 
L 93.508218 -39.668854 
L 95.091571 -39.400607 
L 96.682466 -39.185228 
L 98.256115 -38.950033 
L 99.833139 -38.756824 
L 101.397652 -38.55281 
L 102.965914 -38.394166 
L 104.521813 -38.219774 
L 106.078321 -38.07936 
L 107.62651 -37.933035 
L 109.175792 -37.824261 
L 110.717073 -37.704773 
L 112.255599 -37.599082 
L 113.79294 -37.51726 
L 115.326235 -37.436778 
L 116.857513 -37.369453 
L 118.387023 -37.315127 
L 119.915701 -37.284844 
L 121.442167 -37.254409 
L 122.967685 -37.236012 
L 124.492552 -37.229056 
L 126.017131 -37.229637 
L 127.541969 -37.237256 
L 129.06743 -37.256482 
L 130.594504 -37.276394 
L 132.122398 -37.318512 
L 133.651786 -37.373488 
L 135.183866 -37.433154 
L 136.717363 -37.512586 
L 138.253149 -37.605368 
L 139.791453 -37.711708 
L 141.336835 -37.808404 
L 142.881561 -37.940981 
L 144.433584 -38.069356 
L 145.985573 -38.22936 
L 147.541141 -38.404344 
L 149.109154 -38.563199 
L 150.673312 -38.767752 
L 152.249784 -38.962051 
L 153.835044 -39.161848 
L 155.413657 -39.413201 
L 157.008053 -39.651246 
L 158.612171 -39.896554 
L 160.206209 -40.199003 
L 161.819697 -40.485658 
L 163.443581 -40.781527 
L 165.071017 -41.102719 
L 166.709168 -41.434551 
L 168.350603 -41.79288 
L 170.002935 -42.163331 
L 171.65816 -42.561478 
L 173.324327 -42.973274 
L 174.992871 -43.413979 
L 176.672255 -43.869894 
L 178.387529 -44.304332 
L 180.076201 -44.813493 
L 181.808088 -45.294338 
L 183.514255 -45.845987 
L 185.261624 -46.376704 
L 187.017005 -46.933384 
L 188.735218 -47.571211 
L 190.503424 -48.18279 
L 192.278126 -48.823023 
L 194.05869 -49.49284 
L 195.84442 -50.19317 
L 197.634483 -50.925006 
L 199.427949 -51.689355 
L 201.280385 -52.433517 
L 203.078685 -53.26665 
L 204.876327 -54.135925 
L 206.726442 -54.995744 
L 208.51703 -55.943013 
L 210.360519 -56.882951 
L 212.184527 -57.87557 
L 213.991899 -58.917095 
L 215.523898 -60.190772 
L 216.584395 -61.810001 
L 217.704701 -63.387837 
L 218.741565 -65.021452 
L 219.765387 -66.662927 
L 220.719193 -68.346263 
L 221.727557 -69.997428 
L 222.668947 -71.68752 
L 223.556711 -73.40635 
L 224.395319 -75.149445 
L 225.32667 -76.84725 
L 226.112866 -78.615414 
L 226.930865 -80.36907 
L 227.620827 -82.177684 
L 228.351327 -83.968278 
L 229.101623 -85.752343 
L 229.731042 -87.5821 
L 230.313621 -89.426887 
L 230.962713 -91.249499 
L 231.503066 -93.106905 
L 232.076419 -94.954818 
L 232.516199 -96.83939 
L 233.01404 -98.708368 
L 233.502436 -100.581149 
L 233.778837 -102.499607 
L 234.183733 -104.390286 
L 234.534689 -106.291888 
L 234.862312 -108.198117 
L 235.150086 -110.111079 
L 235.392915 -112.030414 
L 235.605279 -113.953524 
L 235.779325 -115.880597 
L 235.915737 -117.810752 
L 236.016465 -119.743106 
L 236.082739 -121.676932 
L 236.112225 -123.611625 
L 236.10621 -125.546448 
L 236.069024 -127.480834 
L 235.994318 -129.414052 
L 235.886052 -131.345557 
L 235.745004 -133.274827 
L 235.573926 -135.201582 
L 235.36831 -137.124907 
z
" style="stroke: #ffee9c"/>
    </defs>
    <g clip-path="url(#pfe99a93271)">
     <use xlink:href="#m34d4bc6dc3" x="0" y="249.158125" style="fill: #ffee9c; stroke: #ffee9c"/>
    </g>
   </g>
   <g id="matplotlib.axis_1">
    <g id="xtick_1">
     <g id="line2d_1">
      <path d="M 125.254844 124.579063 
L 125.254844 13.699063 
" clip-path="url(#pfe99a93271)" style="fill: none; stroke: #b0b0b0; stroke-width: 0.8; stroke-linecap: square"/>
     </g>
     <g id="text_1">
      <!-- N -->
      <g transform="translate(121.070469 7.958438) scale(0.1 -0.1)">
       <defs>
        <path id="DejaVuSans-Bold-4e" d="M 588 4666 
L 1931 4666 
L 3628 1466 
L 3628 4666 
L 4769 4666 
L 4769 0 
L 3425 0 
L 1728 3200 
L 1728 0 
L 588 0 
L 588 4666 
z
" transform="scale(0.015625)"/>
       </defs>
       <use xlink:href="#DejaVuSans-Bold-4e"/>
      </g>
     </g>
    </g>
    <g id="xtick_2">
     <g id="line2d_2">
      <path d="M 125.254844 124.579063 
L 203.658844 46.175063 
" clip-path="url(#pfe99a93271)" style="fill: none; stroke: #b0b0b0; stroke-width: 0.8; stroke-linecap: square"/>
     </g>
    </g>
    <g id="xtick_3">
     <g id="line2d_3">
      <path d="M 125.254844 124.579063 
L 236.134844 124.579063 
" clip-path="url(#pfe99a93271)" style="fill: none; stroke: #b0b0b0; stroke-width: 0.8; stroke-linecap: square"/>
     </g>
     <g id="text_2">
      <!-- E -->
      <g transform="translate(241.219219 127.338438) scale(0.1 -0.1)">
       <defs>
        <path id="DejaVuSans-Bold-45" d="M 588 4666 
L 3834 4666 
L 3834 3756 
L 1791 3756 
L 1791 2888 
L 3713 2888 
L 3713 1978 
L 1791 1978 
L 1791 909 
L 3903 909 
L 3903 0 
L 588 0 
L 588 4666 
z
" transform="scale(0.015625)"/>
       </defs>
       <use xlink:href="#DejaVuSans-Bold-45"/>
      </g>
     </g>
    </g>
    <g id="xtick_4">
     <g id="line2d_4">
      <path d="M 125.254844 124.579063 
L 203.658844 202.983062 
" clip-path="url(#pfe99a93271)" style="fill: none; stroke: #b0b0b0; stroke-width: 0.8; stroke-linecap: square"/>
     </g>
    </g>
    <g id="xtick_5">
     <g id="line2d_5">
      <path d="M 125.254844 124.579063 
L 125.254844 235.459063 
" clip-path="url(#pfe99a93271)" style="fill: none; stroke: #b0b0b0; stroke-width: 0.8; stroke-linecap: square"/>
     </g>
     <g id="text_3">
      <!-- S -->
      <g transform="translate(121.654062 246.718438) scale(0.1 -0.1)">
       <defs>
        <path id="DejaVuSans-Bold-53" d="M 3834 4519 
L 3834 3531 
Q 3450 3703 3084 3790 
Q 2719 3878 2394 3878 
Q 1963 3878 1756 3759 
Q 1550 3641 1550 3391 
Q 1550 3203 1689 3098 
Q 1828 2994 2194 2919 
L 2706 2816 
Q 3484 2659 3812 2340 
Q 4141 2022 4141 1434 
Q 4141 663 3683 286 
Q 3225 -91 2284 -91 
Q 1841 -91 1394 -6 
Q 947 78 500 244 
L 500 1259 
Q 947 1022 1364 901 
Q 1781 781 2169 781 
Q 2563 781 2772 912 
Q 2981 1044 2981 1288 
Q 2981 1506 2839 1625 
Q 2697 1744 2272 1838 
L 1806 1941 
Q 1106 2091 782 2419 
Q 459 2747 459 3303 
Q 459 4000 909 4375 
Q 1359 4750 2203 4750 
Q 2588 4750 2994 4692 
Q 3400 4634 3834 4519 
z
" transform="scale(0.015625)"/>
       </defs>
       <use xlink:href="#DejaVuSans-Bold-53"/>
      </g>
     </g>
    </g>
    <g id="xtick_6">
     <g id="line2d_6">
      <path d="M 125.254844 124.579063 
L 46.850844 202.983062 
" clip-path="url(#pfe99a93271)" style="fill: none; stroke: #b0b0b0; stroke-width: 0.8; stroke-linecap: square"/>
     </g>
    </g>
    <g id="xtick_7">
     <g id="line2d_7">
      <path d="M 125.254844 124.579063 
L 14.374844 124.579063 
" clip-path="url(#pfe99a93271)" style="fill: none; stroke: #b0b0b0; stroke-width: 0.8; stroke-linecap: square"/>
     </g>
     <g id="text_4">
      <!-- W -->
      <g transform="translate(0.36 127.338438) scale(0.1 -0.1)">
       <defs>
        <path id="DejaVuSans-Bold-57" d="M 191 4666 
L 1344 4666 
L 2150 1275 
L 2950 4666 
L 4109 4666 
L 4909 1275 
L 5716 4666 
L 6859 4666 
L 5759 0 
L 4372 0 
L 3525 3547 
L 2688 0 
L 1300 0 
L 191 4666 
z
" transform="scale(0.015625)"/>
       </defs>
       <use xlink:href="#DejaVuSans-Bold-57"/>
      </g>
     </g>
    </g>
    <g id="xtick_8">
     <g id="line2d_8">
      <path d="M 125.254844 124.579063 
L 46.850844 46.175063 
" clip-path="url(#pfe99a93271)" style="fill: none; stroke: #b0b0b0; stroke-width: 0.8; stroke-linecap: square"/>
     </g>
    </g>
   </g>
   <g id="matplotlib.axis_2"/>
   <g id="patch_3">
    <path d="M 125.254844 124.579063 
C 125.254844 124.579063 125.254844 124.579063 125.254844 124.579063 
C 125.254844 124.579063 125.254844 124.579063 125.254844 124.579063 
L 125.254844 124.579063 
C 125.254844 124.579063 125.254844 124.579063 125.254844 124.579063 
C 125.254844 124.579063 125.254844 124.579063 125.254844 124.579063 
z
" clip-path="url(#pfe99a93271)" style="fill: #d9d9d9"/>
   </g>
   <g id="patch_4">
    <path d="M 125.254844 124.579063 
C 125.254844 124.579063 125.254844 124.579063 125.254844 124.579063 
C 125.254844 124.579063 125.254844 124.579063 125.254844 124.579063 
L 125.254844 124.579063 
C 125.254844 124.579063 125.254844 124.579063 125.254844 124.579063 
C 125.254844 124.579063 125.254844 124.579063 125.254844 124.579063 
z
" clip-path="url(#pfe99a93271)" style="fill: #d9d9d9"/>
   </g>
   <g id="patch_5">
    <path d="M 125.254844 124.579063 
C 125.254844 124.579063 125.254844 124.579063 125.254844 124.579063 
C 125.254844 124.579063 125.254844 124.579063 125.254844 124.579063 
L 125.254844 124.579063 
C 125.254844 124.579063 125.254844 124.579063 125.254844 124.579063 
C 125.254844 124.579063 125.254844 124.579063 125.254844 124.579063 
z
" clip-path="url(#pfe99a93271)" style="fill: #d9d9d9"/>
   </g>
   <g id="patch_6">
    <path d="M 125.254844 124.579063 
C 125.254844 124.579063 125.254844 124.579063 125.254844 124.579063 
C 125.254844 124.579063 125.254844 124.579063 125.254844 124.579063 
L 125.254844 124.579063 
C 125.254844 124.579063 125.254844 124.579063 125.254844 124.579063 
C 125.254844 124.579063 125.254844 124.579063 125.254844 124.579063 
z
" clip-path="url(#pfe99a93271)" style="fill: #d9d9d9"/>
   </g>
   <g id="patch_7">
    <path d="M 125.254844 124.579063 
C 125.254844 124.579063 125.254844 124.579063 125.254844 124.579063 
C 125.254844 124.579063 125.254844 124.579063 125.254844 124.579063 
L 125.254844 124.579063 
C 125.254844 124.579063 125.254844 124.579063 125.254844 124.579063 
C 125.254844 124.579063 125.254844 124.579063 125.254844 124.579063 
z
" clip-path="url(#pfe99a93271)" style="fill: #d9d9d9"/>
   </g>
   <g id="patch_8">
    <path d="M 125.254844 124.579063 
C 125.254844 124.579063 125.254844 124.579063 125.254844 124.579063 
C 125.254844 124.579063 125.254844 124.579063 125.254844 124.579063 
L 125.254844 124.579063 
C 125.254844 124.579063 125.254844 124.579063 125.254844 124.579063 
C 125.254844 124.579063 125.254844 124.579063 125.254844 124.579063 
z
" clip-path="url(#pfe99a93271)" style="fill: #d9d9d9"/>
   </g>
   <g id="patch_9">
    <path d="M 125.254844 124.579063 
C 125.254844 124.579063 125.254844 124.579063 125.254844 124.579063 
C 125.254844 124.579063 125.254844 124.579063 125.254844 124.579063 
L 125.254844 124.579063 
C 125.254844 124.579063 125.254844 124.579063 125.254844 124.579063 
C 125.254844 124.579063 125.254844 124.579063 125.254844 124.579063 
z
" clip-path="url(#pfe99a93271)" style="fill: #d9d9d9"/>
   </g>
   <g id="patch_10">
    <path d="M 125.254844 124.579063 
C 125.254844 124.579063 125.254844 124.579063 125.254844 124.579063 
C 125.254844 124.579063 125.254844 124.579063 125.254844 124.579063 
L 125.254844 124.579063 
C 125.254844 124.579063 125.254844 124.579063 125.254844 124.579063 
C 125.254844 124.579063 125.254844 124.579063 125.254844 124.579063 
z
" clip-path="url(#pfe99a93271)" style="fill: #d9d9d9"/>
   </g>
   <g id="patch_11">
    <path d="M 125.254844 124.579063 
C 125.254844 124.579063 125.254844 124.579063 125.254844 124.579063 
C 125.254844 124.579063 125.254844 124.579063 125.254844 124.579063 
L 125.254844 124.579063 
C 125.254844 124.579063 125.254844 124.579063 125.254844 124.579063 
C 125.254844 124.579063 125.254844 124.579063 125.254844 124.579063 
z
" clip-path="url(#pfe99a93271)" style="fill: #d9d9d9"/>
   </g>
   <g id="patch_12">
    <path d="M 125.254844 124.579063 
C 125.254844 124.579063 125.254844 124.579063 125.254844 124.579063 
C 125.254844 124.579063 125.254844 124.579063 125.254844 124.579063 
L 125.254844 124.579063 
C 125.254844 124.579063 125.254844 124.579063 125.254844 124.579063 
C 125.254844 124.579063 125.254844 124.579063 125.254844 124.579063 
z
" clip-path="url(#pfe99a93271)" style="fill: #d9d9d9"/>
   </g>
   <g id="patch_13">
    <path d="M 125.254844 124.579063 
C 125.254844 124.579063 125.254844 124.579063 125.254844 124.579063 
C 125.254844 124.579063 125.254844 124.579063 125.254844 124.579063 
L 125.254844 124.579063 
C 125.254844 124.579063 125.254844 124.579063 125.254844 124.579063 
C 125.254844 124.579063 125.254844 124.579063 125.254844 124.579063 
z
" clip-path="url(#pfe99a93271)" style="fill: #d9d9d9"/>
   </g>
   <g id="patch_14">
    <path d="M 125.254844 124.579063 
C 125.254844 124.579063 125.254844 124.579063 125.254844 124.579063 
C 125.254844 124.579063 125.254844 124.579063 125.254844 124.579063 
L 125.254844 124.579063 
C 125.254844 124.579063 125.254844 124.579063 125.254844 124.579063 
C 125.254844 124.579063 125.254844 124.579063 125.254844 124.579063 
z
" clip-path="url(#pfe99a93271)" style="fill: #d9d9d9"/>
   </g>
   <g id="patch_15">
    <path d="M 125.254844 124.579063 
C 125.254844 124.579063 125.254844 124.579063 125.254844 124.579063 
C 125.254844 124.579063 125.254844 124.579063 125.254844 124.579063 
L 125.254844 124.579063 
C 125.254844 124.579063 125.254844 124.579063 125.254844 124.579063 
C 125.254844 124.579063 125.254844 124.579063 125.254844 124.579063 
z
" clip-path="url(#pfe99a93271)" style="fill: #d9d9d9"/>
   </g>
   <g id="patch_16">
    <path d="M 125.254844 124.579063 
C 125.254844 124.579063 125.254844 124.579063 125.254844 124.579063 
C 125.254844 124.579063 125.254844 124.579063 125.254844 124.579063 
L 125.254844 124.579063 
C 125.254844 124.579063 125.254844 124.579063 125.254844 124.579063 
C 125.254844 124.579063 125.254844 124.579063 125.254844 124.579063 
z
" clip-path="url(#pfe99a93271)" style="fill: #d9d9d9"/>
   </g>
   <g id="patch_17">
    <path d="M 125.254844 124.579063 
C 125.254844 124.579063 125.254844 124.579063 125.254844 124.579063 
C 125.254844 124.579063 125.254844 124.579063 125.254844 124.579063 
L 125.254844 124.579063 
C 125.254844 124.579063 125.254844 124.579063 125.254844 124.579063 
C 125.254844 124.579063 125.254844 124.579063 125.254844 124.579063 
z
" clip-path="url(#pfe99a93271)" style="fill: #d9d9d9"/>
   </g>
   <g id="patch_18">
    <path d="M 125.254844 124.579063 
C 125.254844 124.579063 125.254844 124.579063 125.254844 124.579063 
C 125.254844 124.579063 125.254844 124.579063 125.254844 124.579063 
L 125.254844 124.579063 
C 125.254844 124.579063 125.254844 124.579063 125.254844 124.579063 
C 125.254844 124.579063 125.254844 124.579063 125.254844 124.579063 
z
" clip-path="url(#pfe99a93271)" style="fill: #d9d9d9"/>
   </g>
   <g id="patch_19">
    <path d="M 125.254844 124.579063 
C 125.254844 124.579063 125.254844 124.579063 125.254844 124.579063 
C 125.254844 124.579063 125.254844 124.579063 125.254844 124.579063 
L 125.254844 124.579063 
C 125.254844 124.579063 125.254844 124.579063 125.254844 124.579063 
C 125.254844 124.579063 125.254844 124.579063 125.254844 124.579063 
z
" clip-path="url(#pfe99a93271)" style="fill: #d9d9d9"/>
   </g>
   <g id="patch_20">
    <path d="M 125.254844 124.579063 
C 125.254844 124.579063 125.254844 124.579063 125.254844 124.579063 
C 125.254844 124.579063 125.254844 124.579063 125.254844 124.579063 
L 125.254844 124.579063 
C 125.254844 124.579063 125.254844 124.579063 125.254844 124.579063 
C 125.254844 124.579063 125.254844 124.579063 125.254844 124.579063 
z
" clip-path="url(#pfe99a93271)" style="fill: #d9d9d9"/>
   </g>
   <g id="patch_21">
    <path d="M 125.254844 124.579063 
C 125.254844 124.579063 125.254844 124.579063 125.254844 124.579063 
C 125.254844 124.579063 125.254844 124.579063 125.254844 124.579063 
L 125.254844 124.579063 
C 125.254844 124.579063 125.254844 124.579063 125.254844 124.579063 
C 125.254844 124.579063 125.254844 124.579063 125.254844 124.579063 
z
" clip-path="url(#pfe99a93271)" style="fill: #d9d9d9"/>
   </g>
   <g id="patch_22">
    <path d="M 125.254844 124.579063 
C 125.254844 124.579063 125.254844 124.579063 125.254844 124.579063 
C 125.254844 124.579063 125.254844 124.579063 125.254844 124.579063 
L 125.254844 124.579063 
C 125.254844 124.579063 125.254844 124.579063 125.254844 124.579063 
C 125.254844 124.579063 125.254844 124.579063 125.254844 124.579063 
z
" clip-path="url(#pfe99a93271)" style="fill: #d9d9d9"/>
   </g>
   <g id="patch_23">
    <path d="M 125.254844 124.579063 
C 125.254844 124.579063 125.254844 124.579063 125.254844 124.579063 
C 125.254844 124.579063 125.254844 124.579063 125.254844 124.579063 
L 125.254844 124.579063 
C 125.254844 124.579063 125.254844 124.579063 125.254844 124.579063 
C 125.254844 124.579063 125.254844 124.579063 125.254844 124.579063 
z
" clip-path="url(#pfe99a93271)" style="fill: #d9d9d9"/>
   </g>
   <g id="patch_24">
    <path d="M 125.254844 124.579063 
C 125.254844 124.579063 125.254844 124.579063 125.254844 124.579063 
C 125.254844 124.579063 125.254844 124.579063 125.254844 124.579063 
L 125.254844 124.579063 
C 125.254844 124.579063 125.254844 124.579063 125.254844 124.579063 
C 125.254844 124.579063 125.254844 124.579063 125.254844 124.579063 
z
" clip-path="url(#pfe99a93271)" style="fill: #d9d9d9"/>
   </g>
   <g id="patch_25">
    <path d="M 125.254844 124.579063 
C 125.254844 124.579063 125.254844 124.579063 125.254844 124.579063 
C 125.254844 124.579063 125.254844 124.579063 125.254844 124.579063 
L 125.254844 124.579063 
C 125.254844 124.579063 125.254844 124.579063 125.254844 124.579063 
C 125.254844 124.579063 125.254844 124.579063 125.254844 124.579063 
z
" clip-path="url(#pfe99a93271)" style="fill: #d9d9d9"/>
   </g>
   <g id="patch_26">
    <path d="M 125.254844 124.579063 
C 125.254844 124.579063 125.254844 124.579063 125.254844 124.579063 
C 125.254844 124.579063 125.254844 124.579063 125.254844 124.579063 
L 125.254844 124.579063 
C 125.254844 124.579063 125.254844 124.579063 125.254844 124.579063 
C 125.254844 124.579063 125.254844 124.579063 125.254844 124.579063 
z
" clip-path="url(#pfe99a93271)" style="fill: #d9d9d9"/>
   </g>
   <g id="patch_27">
    <path d="M 125.254844 124.579063 
C 125.254844 124.579063 125.254844 124.579063 125.254844 124.579063 
C 125.254844 124.579063 125.254844 124.579063 125.254844 124.579063 
L 125.254844 124.579063 
C 125.254844 124.579063 125.254844 124.579063 125.254844 124.579063 
C 125.254844 124.579063 125.254844 124.579063 125.254844 124.579063 
z
" clip-path="url(#pfe99a93271)" style="fill: #d9d9d9"/>
   </g>
   <g id="patch_28">
    <path d="M 125.254844 124.579063 
C 125.254844 124.579063 125.254844 124.579063 125.254844 124.579063 
C 125.254844 124.579063 125.254844 124.579063 125.254844 124.579063 
L 125.254844 124.579063 
C 125.254844 124.579063 125.254844 124.579063 125.254844 124.579063 
C 125.254844 124.579063 125.254844 124.579063 125.254844 124.579063 
z
" clip-path="url(#pfe99a93271)" style="fill: #d9d9d9"/>
   </g>
   <g id="patch_29">
    <path d="M 125.254844 124.579063 
C 125.254844 124.579063 125.254844 124.579063 125.254844 124.579063 
C 125.254844 124.579063 125.254844 124.579063 125.254844 124.579063 
L 125.254844 124.579063 
C 125.254844 124.579063 125.254844 124.579063 125.254844 124.579063 
C 125.254844 124.579063 125.254844 124.579063 125.254844 124.579063 
z
" clip-path="url(#pfe99a93271)" style="fill: #d9d9d9"/>
   </g>
   <g id="patch_30">
    <path d="M 125.254844 124.579063 
C 125.254844 124.579063 125.254844 124.579063 125.254844 124.579063 
C 125.254844 124.579063 125.254844 124.579063 125.254844 124.579063 
L 125.254844 124.579063 
C 125.254844 124.579063 125.254844 124.579063 125.254844 124.579063 
C 125.254844 124.579063 125.254844 124.579063 125.254844 124.579063 
z
" clip-path="url(#pfe99a93271)" style="fill: #d9d9d9"/>
   </g>
   <g id="patch_31">
    <path d="M 125.254844 124.579063 
C 125.254844 124.579063 125.254844 124.579063 125.254844 124.579063 
C 125.254844 124.579063 125.254844 124.579063 125.254844 124.579063 
L 125.254844 124.579063 
C 125.254844 124.579063 125.254844 124.579063 125.254844 124.579063 
C 125.254844 124.579063 125.254844 124.579063 125.254844 124.579063 
z
" clip-path="url(#pfe99a93271)" style="fill: #d9d9d9"/>
   </g>
   <g id="patch_32">
    <path d="M 125.254844 124.579063 
C 125.254844 124.579063 125.254844 124.579063 125.254844 124.579063 
C 125.254844 124.579063 125.254844 124.579063 125.254844 124.579063 
L 125.254844 124.579063 
C 125.254844 124.579063 125.254844 124.579063 125.254844 124.579063 
C 125.254844 124.579063 125.254844 124.579063 125.254844 124.579063 
z
" clip-path="url(#pfe99a93271)" style="fill: #d9d9d9"/>
   </g>
   <g id="patch_33">
    <path d="M 125.254844 124.579063 
C 125.254844 124.579063 125.254844 124.579063 125.254844 124.579063 
C 125.254844 124.579063 125.254844 124.579063 125.254844 124.579063 
L 125.254844 124.579063 
C 125.254844 124.579063 125.254844 124.579063 125.254844 124.579063 
C 125.254844 124.579063 125.254844 124.579063 125.254844 124.579063 
z
" clip-path="url(#pfe99a93271)" style="fill: #d9d9d9"/>
   </g>
   <g id="patch_34">
    <path d="M 125.254844 124.579063 
C 125.254844 124.579063 125.254844 124.579063 125.254844 124.579063 
C 125.254844 124.579063 125.254844 124.579063 125.254844 124.579063 
L 125.254844 124.579063 
C 125.254844 124.579063 125.254844 124.579063 125.254844 124.579063 
C 125.254844 124.579063 125.254844 124.579063 125.254844 124.579063 
z
" clip-path="url(#pfe99a93271)" style="fill: #d9d9d9"/>
   </g>
   <g id="patch_35">
    <path d="M 125.254844 124.579063 
C 125.254844 124.579063 125.254844 124.579063 125.254844 124.579063 
C 125.254844 124.579063 125.254844 124.579063 125.254844 124.579063 
L 129.779319 78.641292 
C 128.275707 78.493199 126.765731 78.419018 125.254844 78.419018 
C 123.743957 78.419018 122.23398 78.493199 120.730368 78.641292 
z
" clip-path="url(#pfe99a93271)" style="fill: #a1a1d8"/>
   </g>
   <g id="patch_36">
    <path d="M 125.254844 124.579063 
C 125.254844 124.579063 125.254844 124.579063 125.254844 124.579063 
C 125.254844 124.579063 125.254844 124.579063 125.254844 124.579063 
L 135.101023 92.12056 
C 134.038608 91.79828 132.96101 91.528356 131.872121 91.311762 
C 130.783233 91.095169 129.684367 90.932168 128.579492 90.823347 
z
" clip-path="url(#pfe99a93271)" style="fill: #a1a1d8"/>
   </g>
   <g id="patch_37">
    <path d="M 125.254844 124.579063 
C 125.254844 124.579063 125.254844 124.579063 125.254844 124.579063 
C 125.254844 124.579063 125.254844 124.579063 125.254844 124.579063 
L 164.449798 51.25046 
C 162.049644 49.967551 159.587948 48.803256 157.073604 47.76178 
C 154.55926 46.720305 151.995297 45.802904 149.390978 45.012893 
z
" clip-path="url(#pfe99a93271)" style="fill: #a1a1d8"/>
   </g>
   <g id="patch_38">
    <path d="M 125.254844 124.579063 
C 125.254844 124.579063 125.254844 124.579063 125.254844 124.579063 
C 125.254844 124.579063 125.254844 124.579063 125.254844 124.579063 
L 171.85803 67.792916 
C 169.999335 66.267524 168.066867 64.834308 166.067607 63.498446 
C 164.068347 62.162583 162.004705 60.925684 159.884135 59.792215 
z
" clip-path="url(#pfe99a93271)" style="fill: #a1a1d8"/>
   </g>
   <g id="patch_39">
    <path d="M 125.254844 124.579063 
C 125.254844 124.579063 125.254844 124.579063 125.254844 124.579063 
C 125.254844 124.579063 125.254844 124.579063 125.254844 124.579063 
L 178.279025 81.063241 
C 176.854687 79.327681 175.345997 77.663097 173.758403 76.075503 
C 172.170809 74.487909 170.506225 72.979219 168.770665 71.554881 
z
" clip-path="url(#pfe99a93271)" style="fill: #a1a1d8"/>
   </g>
   <g id="patch_40">
    <path d="M 125.254844 124.579063 
C 125.254844 124.579063 125.254844 124.579063 125.254844 124.579063 
C 125.254844 124.579063 125.254844 124.579063 125.254844 124.579063 
L 174.158815 98.439345 
C 173.303224 96.838645 172.369557 95.280917 171.361189 93.771787 
C 170.352821 92.262658 169.270967 90.803946 168.119533 89.400921 
z
" clip-path="url(#pfe99a93271)" style="fill: #a1a1d8"/>
   </g>
   <g id="patch_41">
    <path d="M 125.254844 124.579063 
C 125.254844 124.579063 125.254844 124.579063 125.254844 124.579063 
C 125.254844 124.579063 125.254844 124.579063 125.254844 124.579063 
L 141.520443 119.644947 
C 141.358942 119.11255 141.171399 118.588402 140.958492 118.074399 
C 140.745584 117.560395 140.507569 117.057154 140.245306 116.566494 
z
" clip-path="url(#pfe99a93271)" style="fill: #a1a1d8"/>
   </g>
   <g id="patch_42">
    <path d="M 125.254844 124.579063 
C 125.254844 124.579063 125.254844 124.579063 125.254844 124.579063 
C 125.254844 124.579063 125.254844 124.579063 125.254844 124.579063 
L 130.791793 124.033721 
C 130.773943 123.852488 130.747206 123.672241 130.711678 123.493631 
C 130.67615 123.31502 130.631875 123.138262 130.579011 122.963994 
z
" clip-path="url(#pfe99a93271)" style="fill: #a1a1d8"/>
   </g>
   <g id="patch_43">
    <path d="M 125.254844 124.579063 
C 125.254844 124.579063 125.254844 124.579063 125.254844 124.579063 
C 125.254844 124.579063 125.254844 124.579063 125.254844 124.579063 
L 158.858847 127.888768 
C 158.967179 126.788859 159.021442 125.684294 159.021442 124.579063 
C 159.021442 123.473831 158.967179 122.369266 158.858847 121.269357 
z
" clip-path="url(#pfe99a93271)" style="fill: #a1a1d8"/>
   </g>
   <g id="patch_44">
    <path d="M 125.254844 124.579063 
C 125.254844 124.579063 125.254844 124.579063 125.254844 124.579063 
C 125.254844 124.579063 125.254844 124.579063 125.254844 124.579063 
L 125.254844 124.579063 
C 125.254844 124.579063 125.254844 124.579063 125.254844 124.579063 
C 125.254844 124.579063 125.254844 124.579063 125.254844 124.579063 
z
" clip-path="url(#pfe99a93271)" style="fill: #a1a1d8"/>
   </g>
   <g id="patch_45">
    <path d="M 125.254844 124.579063 
C 125.254844 124.579063 125.254844 124.579063 125.254844 124.579063 
C 125.254844 124.579063 125.254844 124.579063 125.254844 124.579063 
L 133.267583 128.861961 
C 133.407769 128.599692 133.534993 128.330698 133.648797 128.055952 
C 133.762601 127.781205 133.862846 127.501037 133.949172 127.216458 
z
" clip-path="url(#pfe99a93271)" style="fill: #a1a1d8"/>
   </g>
   <g id="patch_46">
    <path d="M 125.254844 124.579063 
C 125.254844 124.579063 125.254844 124.579063 125.254844 124.579063 
C 125.254844 124.579063 125.254844 124.579063 125.254844 124.579063 
L 125.254844 124.579063 
C 125.254844 124.579063 125.254844 124.579063 125.254844 124.579063 
C 125.254844 124.579063 125.254844 124.579063 125.254844 124.579063 
z
" clip-path="url(#pfe99a93271)" style="fill: #a1a1d8"/>
   </g>
   <g id="patch_47">
    <path d="M 125.254844 124.579063 
C 125.254844 124.579063 125.254844 124.579063 125.254844 124.579063 
C 125.254844 124.579063 125.254844 124.579063 125.254844 124.579063 
L 125.254844 124.579063 
C 125.254844 124.579063 125.254844 124.579063 125.254844 124.579063 
C 125.254844 124.579063 125.254844 124.579063 125.254844 124.579063 
z
" clip-path="url(#pfe99a93271)" style="fill: #a1a1d8"/>
   </g>
   <g id="patch_48">
    <path d="M 125.254844 124.579063 
C 125.254844 124.579063 125.254844 124.579063 125.254844 124.579063 
C 125.254844 124.579063 125.254844 124.579063 125.254844 124.579063 
L 125.254844 124.579063 
C 125.254844 124.579063 125.254844 124.579063 125.254844 124.579063 
C 125.254844 124.579063 125.254844 124.579063 125.254844 124.579063 
z
" clip-path="url(#pfe99a93271)" style="fill: #a1a1d8"/>
   </g>
   <g id="patch_49">
    <path d="M 125.254844 124.579063 
C 125.254844 124.579063 125.254844 124.579063 125.254844 124.579063 
C 125.254844 124.579063 125.254844 124.579063 125.254844 124.579063 
L 125.254844 124.579063 
C 125.254844 124.579063 125.254844 124.579063 125.254844 124.579063 
C 125.254844 124.579063 125.254844 124.579063 125.254844 124.579063 
z
" clip-path="url(#pfe99a93271)" style="fill: #a1a1d8"/>
   </g>
   <g id="patch_50">
    <path d="M 125.254844 124.579063 
C 125.254844 124.579063 125.254844 124.579063 125.254844 124.579063 
C 125.254844 124.579063 125.254844 124.579063 125.254844 124.579063 
L 125.254844 124.579063 
C 125.254844 124.579063 125.254844 124.579063 125.254844 124.579063 
C 125.254844 124.579063 125.254844 124.579063 125.254844 124.579063 
z
" clip-path="url(#pfe99a93271)" style="fill: #a1a1d8"/>
   </g>
   <g id="patch_51">
    <path d="M 125.254844 124.579063 
C 125.254844 124.579063 125.254844 124.579063 125.254844 124.579063 
C 125.254844 124.579063 125.254844 124.579063 125.254844 124.579063 
L 125.254844 124.579063 
C 125.254844 124.579063 125.254844 124.579063 125.254844 124.579063 
C 125.254844 124.579063 125.254844 124.579063 125.254844 124.579063 
z
" clip-path="url(#pfe99a93271)" style="fill: #a1a1d8"/>
   </g>
   <g id="patch_52">
    <path d="M 125.254844 124.579063 
C 125.254844 124.579063 125.254844 124.579063 125.254844 124.579063 
C 125.254844 124.579063 125.254844 124.579063 125.254844 124.579063 
L 125.254844 124.579063 
C 125.254844 124.579063 125.254844 124.579063 125.254844 124.579063 
C 125.254844 124.579063 125.254844 124.579063 125.254844 124.579063 
z
" clip-path="url(#pfe99a93271)" style="fill: #a1a1d8"/>
   </g>
   <g id="patch_53">
    <path d="M 125.254844 124.579063 
C 125.254844 124.579063 125.254844 124.579063 125.254844 124.579063 
C 125.254844 124.579063 125.254844 124.579063 125.254844 124.579063 
L 125.254844 124.579063 
C 125.254844 124.579063 125.254844 124.579063 125.254844 124.579063 
C 125.254844 124.579063 125.254844 124.579063 125.254844 124.579063 
z
" clip-path="url(#pfe99a93271)" style="fill: #a1a1d8"/>
   </g>
   <g id="patch_54">
    <path d="M 125.254844 124.579063 
C 125.254844 124.579063 125.254844 124.579063 125.254844 124.579063 
C 125.254844 124.579063 125.254844 124.579063 125.254844 124.579063 
L 125.254844 124.579063 
C 125.254844 124.579063 125.254844 124.579063 125.254844 124.579063 
C 125.254844 124.579063 125.254844 124.579063 125.254844 124.579063 
z
" clip-path="url(#pfe99a93271)" style="fill: #a1a1d8"/>
   </g>
   <g id="patch_55">
    <path d="M 125.254844 124.579063 
C 125.254844 124.579063 125.254844 124.579063 125.254844 124.579063 
C 125.254844 124.579063 125.254844 124.579063 125.254844 124.579063 
L 125.254844 124.579063 
C 125.254844 124.579063 125.254844 124.579063 125.254844 124.579063 
C 125.254844 124.579063 125.254844 124.579063 125.254844 124.579063 
z
" clip-path="url(#pfe99a93271)" style="fill: #a1a1d8"/>
   </g>
   <g id="patch_56">
    <path d="M 125.254844 124.579063 
C 125.254844 124.579063 125.254844 124.579063 125.254844 124.579063 
C 125.254844 124.579063 125.254844 124.579063 125.254844 124.579063 
L 110.398828 132.519768 
C 110.658739 133.006028 110.942368 133.479234 111.248689 133.937676 
C 111.55501 134.396118 111.883655 134.839245 112.233437 135.265455 
z
" clip-path="url(#pfe99a93271)" style="fill: #a1a1d8"/>
   </g>
   <g id="patch_57">
    <path d="M 125.254844 124.579063 
C 125.254844 124.579063 125.254844 124.579063 125.254844 124.579063 
C 125.254844 124.579063 125.254844 124.579063 125.254844 124.579063 
L 109.430927 129.379195 
C 109.588042 129.897136 109.770493 130.40705 109.977619 130.907096 
C 110.184745 131.407143 110.416297 131.896718 110.671438 132.374055 
z
" clip-path="url(#pfe99a93271)" style="fill: #a1a1d8"/>
   </g>
   <g id="patch_58">
    <path d="M 125.254844 124.579063 
C 125.254844 124.579063 125.254844 124.579063 125.254844 124.579063 
C 125.254844 124.579063 125.254844 124.579063 125.254844 124.579063 
L 90.455659 128.006483 
C 90.567843 129.145512 90.735883 130.278347 90.959172 131.400896 
C 91.182461 132.523444 91.460729 133.634353 91.792972 134.72961 
z
" clip-path="url(#pfe99a93271)" style="fill: #a1a1d8"/>
   </g>
   <g id="patch_59">
    <path d="M 125.254844 124.579063 
C 125.254844 124.579063 125.254844 124.579063 125.254844 124.579063 
C 125.254844 124.579063 125.254844 124.579063 125.254844 124.579063 
L 85.199568 120.633962 
C 85.070439 121.945031 85.005757 123.26165 85.005757 124.579062 
C 85.005757 125.896475 85.070439 127.213094 85.199568 128.524163 
z
" clip-path="url(#pfe99a93271)" style="fill: #a1a1d8"/>
   </g>
   <g id="patch_60">
    <path d="M 125.254844 124.579063 
C 125.254844 124.579063 125.254844 124.579063 125.254844 124.579063 
C 125.254844 124.579063 125.254844 124.579063 125.254844 124.579063 
L 103.410613 117.952688 
C 103.193722 118.667682 103.012066 119.392894 102.866301 120.125704 
C 102.720536 120.858515 102.610838 121.59804 102.537602 122.34161 
z
" clip-path="url(#pfe99a93271)" style="fill: #a1a1d8"/>
   </g>
   <g id="patch_61">
    <path d="M 125.254844 124.579063 
C 125.254844 124.579063 125.254844 124.579063 125.254844 124.579063 
C 125.254844 124.579063 125.254844 124.579063 125.254844 124.579063 
L 99.290602 110.700886 
C 98.836349 111.550735 98.424094 112.422373 98.055328 113.312654 
C 97.686562 114.202935 97.361728 115.110785 97.082 116.032924 
z
" clip-path="url(#pfe99a93271)" style="fill: #a1a1d8"/>
   </g>
   <g id="patch_62">
    <path d="M 125.254844 124.579063 
C 125.254844 124.579063 125.254844 124.579063 125.254844 124.579063 
C 125.254844 124.579063 125.254844 124.579063 125.254844 124.579063 
L 92.547799 97.737085 
C 91.669221 98.807635 90.843734 99.920676 90.074319 101.072187 
C 89.304904 102.223698 88.592488 103.412292 87.939646 104.633674 
z
" clip-path="url(#pfe99a93271)" style="fill: #a1a1d8"/>
   </g>
   <g id="patch_63">
    <path d="M 125.254844 124.579063 
C 125.254844 124.579063 125.254844 124.579063 125.254844 124.579063 
C 125.254844 124.579063 125.254844 124.579063 125.254844 124.579063 
L 106.41194 101.618918 
C 105.66042 102.235674 104.939634 102.888956 104.252186 103.576405 
C 103.564738 104.263853 102.911455 104.984639 102.294699 105.736159 
z
" clip-path="url(#pfe99a93271)" style="fill: #a1a1d8"/>
   </g>
   <g id="patch_64">
    <path d="M 125.254844 124.579063 
C 125.254844 124.579063 125.254844 124.579063 125.254844 124.579063 
C 125.254844 124.579063 125.254844 124.579063 125.254844 124.579063 
L 111.626745 99.082682 
C 110.79221 99.52875 109.980079 100.015523 109.193285 100.541242 
C 108.406492 101.066961 107.645983 101.630992 106.914508 102.231298 
z
" clip-path="url(#pfe99a93271)" style="fill: #a1a1d8"/>
   </g>
   <g id="patch_65">
    <path d="M 125.254844 124.579063 
C 125.254844 124.579063 125.254844 124.579063 125.254844 124.579063 
C 125.254844 124.579063 125.254844 124.579063 125.254844 124.579063 
L 119.898268 106.920798 
C 119.320286 107.096127 118.751262 107.299727 118.193249 107.530864 
C 117.635236 107.762 117.088907 108.020394 116.556236 108.305113 
z
" clip-path="url(#pfe99a93271)" style="fill: #a1a1d8"/>
   </g>
   <g id="patch_66">
    <path d="M 125.254844 124.579063 
C 125.254844 124.579063 125.254844 124.579063 125.254844 124.579063 
C 125.254844 124.579063 125.254844 124.579063 125.254844 124.579063 
L 120.417976 75.469519 
C 118.810547 75.627837 117.21186 75.86498 115.62769 76.180091 
C 114.043519 76.495202 112.475774 76.887901 110.930118 77.356771 
z
" clip-path="url(#pfe99a93271)" style="fill: #a1a1d8"/>
   </g>
   <g id="patch_67">
    <path d="M 120.730368 78.641292 
C 122.23398 78.493199 123.743957 78.419018 125.254844 78.419018 
C 126.765731 78.419018 128.275707 78.493199 129.779319 78.641292 
L 134.1156 34.614291 
C 131.170919 34.324265 128.213773 34.17899 125.254844 34.17899 
C 122.295914 34.17899 119.338768 34.324265 116.394087 34.614291 
z
" clip-path="url(#pfe99a93271)" style="fill: #ff8c8e"/>
   </g>
   <g id="patch_68">
    <path d="M 128.579492 90.823347 
C 129.684367 90.932168 130.783233 91.095169 131.872121 91.311762 
C 132.96101 91.528356 134.038608 91.79828 135.101023 92.12056 
L 148.09536 49.28397 
C 145.63084 48.536366 143.131099 47.910214 140.605167 47.407774 
C 138.079236 46.905335 135.530158 46.527216 132.967142 46.274781 
z
" clip-path="url(#pfe99a93271)" style="fill: #ff8c8e"/>
   </g>
   <g id="patch_69">
    <path d="M 149.390978 45.012893 
C 151.995297 45.802904 154.55926 46.720305 157.073604 47.76178 
C 159.587948 48.803256 162.049644 49.967551 164.449798 51.25046 
L 177.523314 26.791633 
C 174.322585 25.080808 171.039789 23.528161 167.686783 22.1393 
C 164.333776 20.750439 160.914602 19.527039 157.441609 18.473518 
z
" clip-path="url(#pfe99a93271)" style="fill: #ff8c8e"/>
   </g>
   <g id="patch_70">
    <path d="M 159.884135 59.792215 
C 162.004705 60.925684 164.068347 62.162583 166.067607 63.498446 
C 168.066867 64.834308 169.999335 66.267524 171.85803 67.792916 
L 184.491853 52.398558 
C 182.129277 50.459642 179.67293 48.637891 177.131684 46.939885 
C 174.590438 45.241878 171.967356 43.669663 169.271912 42.228919 
z
" clip-path="url(#pfe99a93271)" style="fill: #ff8c8e"/>
   </g>
   <g id="patch_71">
    <path d="M 168.770665 71.554881 
C 170.506225 72.979219 172.170809 74.487909 173.758403 76.075503 
C 175.345997 77.663097 176.854687 79.327681 178.279025 81.063241 
L 206.231586 58.123167 
C 204.056386 55.472678 201.752364 52.930582 199.327844 50.506062 
C 196.903324 48.081542 194.361229 45.777521 191.710739 43.60232 
z
" clip-path="url(#pfe99a93271)" style="fill: #ff8c8e"/>
   </g>
   <g id="patch_72">
    <path d="M 168.119533 89.400921 
C 169.270967 90.803946 170.352821 92.262658 171.361189 93.771787 
C 172.369557 95.280917 173.303224 96.838645 174.158815 98.439345 
L 216.482262 75.816991 
C 214.886207 72.830982 213.144509 69.925134 211.263458 67.109943 
C 209.382408 64.294753 207.364274 61.573614 205.216345 58.956355 
z
" clip-path="url(#pfe99a93271)" style="fill: #ff8c8e"/>
   </g>
   <g id="patch_73">
    <path d="M 140.245306 116.566494 
C 140.507569 117.057154 140.745584 117.560395 140.958492 118.074399 
C 141.171399 118.588402 141.358942 119.11255 141.520443 119.644947 
L 184.542261 106.594421 
C 183.953597 104.653855 183.270011 102.743361 182.493973 100.869839 
C 181.717934 98.996317 180.850379 97.162025 179.89444 95.37359 
z
" clip-path="url(#pfe99a93271)" style="fill: #ff8c8e"/>
   </g>
   <g id="patch_74">
    <path d="M 130.579011 122.963994 
C 130.631875 123.138262 130.67615 123.31502 130.711678 123.493631 
C 130.747206 123.672241 130.773943 123.852488 130.791793 124.033721 
L 176.850573 119.497327 
C 176.68424 117.808521 176.435092 116.128901 176.104029 114.464531 
C 175.772965 112.800161 175.360385 111.153049 174.867778 109.529143 
z
" clip-path="url(#pfe99a93271)" style="fill: #ff8c8e"/>
   </g>
   <g id="patch_75">
    <path d="M 158.858847 121.269357 
C 158.967179 122.369266 159.021442 123.473831 159.021442 124.579063 
C 159.021442 125.684294 158.967179 126.788859 158.858847 127.888768 
L 182.663153 130.233287 
C 182.848224 128.354228 182.940927 126.467214 182.940927 124.579063 
C 182.940927 122.690911 182.848224 120.803897 182.663153 118.924838 
z
" clip-path="url(#pfe99a93271)" style="fill: #ff8c8e"/>
   </g>
   <g id="patch_76">
    <path d="M 125.254844 124.579063 
C 125.254844 124.579063 125.254844 124.579063 125.254844 124.579063 
C 125.254844 124.579063 125.254844 124.579063 125.254844 124.579063 
L 177.691807 140.485641 
C 178.212453 138.769301 178.648518 137.028433 178.998426 135.269326 
C 179.348335 133.510218 179.611665 131.734991 179.787465 129.950057 
z
" clip-path="url(#pfe99a93271)" style="fill: #ff8c8e"/>
   </g>
   <g id="patch_77">
    <path d="M 133.949172 127.216458 
C 133.862846 127.501037 133.762601 127.781205 133.648797 128.055952 
C 133.534993 128.330698 133.407769 128.599692 133.267583 128.861961 
L 190.072653 159.224903 
C 191.206663 157.103319 192.235825 154.927338 193.156423 152.704818 
C 194.077021 150.482298 194.887945 148.215918 195.586265 145.913866 
z
" clip-path="url(#pfe99a93271)" style="fill: #ff8c8e"/>
   </g>
   <g id="patch_78">
    <path d="M 125.254844 124.579063 
C 125.254844 124.579063 125.254844 124.579063 125.254844 124.579063 
C 125.254844 124.579063 125.254844 124.579063 125.254844 124.579063 
L 162.501116 155.146288 
C 163.501627 153.927162 164.441679 152.659649 165.317877 151.348326 
C 166.194075 150.037003 167.005363 148.683451 167.74881 147.29256 
z
" clip-path="url(#pfe99a93271)" style="fill: #ff8c8e"/>
   </g>
   <g id="patch_79">
    <path d="M 125.254844 124.579063 
C 125.254844 124.579063 125.254844 124.579063 125.254844 124.579063 
C 125.254844 124.579063 125.254844 124.579063 125.254844 124.579063 
L 157.053902 163.326327 
C 158.322158 162.285496 159.538547 161.183025 160.698677 160.022895 
C 161.858806 158.862766 162.961277 157.646376 164.002108 156.37812 
z
" clip-path="url(#pfe99a93271)" style="fill: #ff8c8e"/>
   </g>
   <g id="patch_80">
    <path d="M 125.254844 124.579063 
C 125.254844 124.579063 125.254844 124.579063 125.254844 124.579063 
C 125.254844 124.579063 125.254844 124.579063 125.254844 124.579063 
L 136.330505 145.300167 
C 137.008737 144.937644 137.668762 144.54204 138.308196 144.114784 
C 138.947629 143.687529 139.5657 143.229136 140.160176 142.741262 
z
" clip-path="url(#pfe99a93271)" style="fill: #ff8c8e"/>
   </g>
   <g id="patch_81">
    <path d="M 125.254844 124.579063 
C 125.254844 124.579063 125.254844 124.579063 125.254844 124.579063 
C 125.254844 124.579063 125.254844 124.579063 125.254844 124.579063 
L 127.441657 131.788019 
C 127.677617 131.716441 127.90992 131.633322 128.137728 131.538961 
C 128.365536 131.4446 128.588574 131.339111 128.806035 131.222875 
z
" clip-path="url(#pfe99a93271)" style="fill: #ff8c8e"/>
   </g>
   <g id="patch_82">
    <path d="M 125.254844 124.579063 
C 125.254844 124.579063 125.254844 124.579063 125.254844 124.579063 
C 125.254844 124.579063 125.254844 124.579063 125.254844 124.579063 
L 130.53744 178.214162 
C 132.292997 178.041255 134.039006 177.782259 135.769162 177.438109 
C 137.499317 177.09396 139.211533 176.665072 140.899625 176.152995 
z
" clip-path="url(#pfe99a93271)" style="fill: #ff8c8e"/>
   </g>
   <g id="patch_83">
    <path d="M 125.254844 124.579063 
C 125.254844 124.579063 125.254844 124.579063 125.254844 124.579063 
C 125.254844 124.579063 125.254844 124.579063 125.254844 124.579063 
L 124.234603 134.937745 
C 124.573658 134.971139 124.914148 134.987867 125.254844 134.987867 
C 125.595539 134.987867 125.93603 134.971139 126.275085 134.937745 
z
" clip-path="url(#pfe99a93271)" style="fill: #ff8c8e"/>
   </g>
   <g id="patch_84">
    <path d="M 125.254844 124.579063 
C 125.254844 124.579063 125.254844 124.579063 125.254844 124.579063 
C 125.254844 124.579063 125.254844 124.579063 125.254844 124.579063 
L 121.643441 136.484262 
C 122.033116 136.602469 122.42836 136.701472 122.827744 136.780915 
C 123.227129 136.860357 123.630174 136.920143 124.035422 136.960057 
z
" clip-path="url(#pfe99a93271)" style="fill: #ff8c8e"/>
   </g>
   <g id="patch_85">
    <path d="M 125.254844 124.579063 
C 125.254844 124.579063 125.254844 124.579063 125.254844 124.579063 
C 125.254844 124.579063 125.254844 124.579063 125.254844 124.579063 
L 120.712144 133.077856 
C 120.990322 133.226545 121.275633 133.361487 121.567046 133.482194 
C 121.858459 133.602901 122.155622 133.709228 122.457463 133.80079 
z
" clip-path="url(#pfe99a93271)" style="fill: #ff8c8e"/>
   </g>
   <g id="patch_86">
    <path d="M 125.254844 124.579063 
C 125.254844 124.579063 125.254844 124.579063 125.254844 124.579063 
C 125.254844 124.579063 125.254844 124.579063 125.254844 124.579063 
L 125.254844 124.579063 
C 125.254844 124.579063 125.254844 124.579063 125.254844 124.579063 
C 125.254844 124.579063 125.254844 124.579063 125.254844 124.579063 
z
" clip-path="url(#pfe99a93271)" style="fill: #ff8c8e"/>
   </g>
   <g id="patch_87">
    <path d="M 125.254844 124.579063 
C 125.254844 124.579063 125.254844 124.579063 125.254844 124.579063 
C 125.254844 124.579063 125.254844 124.579063 125.254844 124.579063 
L 125.254844 124.579063 
C 125.254844 124.579063 125.254844 124.579063 125.254844 124.579063 
C 125.254844 124.579063 125.254844 124.579063 125.254844 124.579063 
z
" clip-path="url(#pfe99a93271)" style="fill: #ff8c8e"/>
   </g>
   <g id="patch_88">
    <path d="M 112.233437 135.265455 
C 111.883655 134.839245 111.55501 134.396118 111.248689 133.937676 
C 110.942368 133.479234 110.658739 133.006028 110.398828 132.519768 
L 109.104652 133.21152 
C 109.387205 133.74014 109.695542 134.254568 110.028548 134.752948 
C 110.361555 135.251327 110.71883 135.733057 111.099082 136.196396 
z
" clip-path="url(#pfe99a93271)" style="fill: #ff8c8e"/>
   </g>
   <g id="patch_89">
    <path d="M 110.671438 132.374055 
C 110.416297 131.896718 110.184745 131.407143 109.977619 130.907096 
C 109.770493 130.40705 109.588042 129.897136 109.430927 129.379195 
L 109.430927 129.379195 
C 109.588042 129.897136 109.770493 130.40705 109.977619 130.907096 
C 110.184745 131.407143 110.416297 131.896718 110.671438 132.374055 
z
" clip-path="url(#pfe99a93271)" style="fill: #ff8c8e"/>
   </g>
   <g id="patch_90">
    <path d="M 91.792972 134.72961 
C 91.460729 133.634353 91.182461 132.523444 90.959172 131.400896 
C 90.735883 130.278347 90.567843 129.145512 90.455659 128.006483 
L 87.633458 128.284446 
C 87.754741 129.51585 87.936409 130.740557 88.177807 131.954144 
C 88.419204 133.167731 88.72004 134.368734 89.079227 135.552816 
z
" clip-path="url(#pfe99a93271)" style="fill: #ff8c8e"/>
   </g>
   <g id="patch_91">
    <path d="M 85.199568 128.524163 
C 85.070439 127.213094 85.005757 125.896475 85.005757 124.579062 
C 85.005757 123.26165 85.070439 121.945031 85.199568 120.633962 
L 79.150529 120.038184 
C 79.0019 121.547247 78.92745 123.062698 78.92745 124.579062 
C 78.92745 126.095427 79.0019 127.610878 79.150529 129.119941 
z
" clip-path="url(#pfe99a93271)" style="fill: #ff8c8e"/>
   </g>
   <g id="patch_92">
    <path d="M 102.537602 122.34161 
C 102.610838 121.59804 102.720536 120.858515 102.866301 120.125704 
C 103.012066 119.392894 103.193722 118.667682 103.410613 117.952688 
L 93.60701 114.978797 
C 93.292779 116.014678 93.029596 117.065362 92.818412 118.127055 
C 92.607228 119.188748 92.448298 120.260169 92.342195 121.33745 
z
" clip-path="url(#pfe99a93271)" style="fill: #ff8c8e"/>
   </g>
   <g id="patch_93">
    <path d="M 97.082 116.032924 
C 97.361728 115.110785 97.686562 114.202935 98.055328 113.312654 
C 98.424094 112.422373 98.836349 111.550735 99.290602 110.700886 
L 95.27392 108.553925 
C 94.749393 109.535245 94.273363 110.541727 93.847548 111.569735 
C 93.421734 112.597742 93.046648 113.646037 92.723646 114.710832 
z
" clip-path="url(#pfe99a93271)" style="fill: #ff8c8e"/>
   </g>
   <g id="patch_94">
    <path d="M 87.939646 104.633674 
C 88.592488 103.412292 89.304904 102.223698 90.074319 101.072187 
C 90.843734 99.920676 91.669221 98.807635 92.547799 97.737085 
L 86.151184 92.487518 
C 85.10078 93.76744 84.113849 95.098161 83.193958 96.474877 
C 82.274066 97.851592 81.422321 99.272642 80.6418 100.732894 
z
" clip-path="url(#pfe99a93271)" style="fill: #ff8c8e"/>
   </g>
   <g id="patch_95">
    <path d="M 102.294699 105.736159 
C 102.911455 104.984639 103.564738 104.263853 104.252186 103.576405 
C 104.939634 102.888956 105.66042 102.235674 106.41194 101.618918 
L 105.602867 100.633059 
C 104.819078 101.276298 104.067344 101.957631 103.350378 102.674596 
C 102.633412 103.391562 101.952079 104.143297 101.308841 104.927086 
z
" clip-path="url(#pfe99a93271)" style="fill: #ff8c8e"/>
   </g>
   <g id="patch_96">
    <path d="M 106.914508 102.231298 
C 107.645983 101.630992 108.406492 101.066961 109.193285 100.541242 
C 109.980079 100.015523 110.79221 99.52875 111.626745 99.082682 
L 83.606548 46.660581 
C 81.056159 48.023792 78.574238 49.511398 76.169749 51.118026 
C 73.765259 52.724655 71.4411 54.448369 69.205666 56.282942 
z
" clip-path="url(#pfe99a93271)" style="fill: #ff8c8e"/>
   </g>
   <g id="patch_97">
    <path d="M 116.556236 108.305113 
C 117.088907 108.020394 117.635236 107.762 118.193249 107.530864 
C 118.751262 107.299727 119.320286 107.096127 119.898268 106.920798 
L 105.104209 58.151322 
C 102.92993 58.810882 100.789344 59.576796 98.690183 60.446297 
C 96.591021 61.315798 94.535816 62.287838 92.531988 63.358906 
z
" clip-path="url(#pfe99a93271)" style="fill: #ff8c8e"/>
   </g>
   <g id="patch_98">
    <path d="M 110.930118 77.356771 
C 112.475774 76.887901 114.043519 76.495202 115.62769 76.180091 
C 117.21186 75.86498 118.810547 75.627837 120.417976 75.469519 
L 118.353162 54.505113 
C 116.059537 54.731016 113.778386 55.069392 111.517948 55.519022 
C 109.257509 55.968651 107.020509 56.52899 104.815027 57.198016 
z
" clip-path="url(#pfe99a93271)" style="fill: #ff8c8e"/>
   </g>
   <g id="patch_99">
    <path d="M 116.394087 34.614291 
C 119.338768 34.324265 122.295914 34.17899 125.254844 34.17899 
C 128.213773 34.17899 131.170919 34.324265 134.1156 34.614291 
L 134.190799 33.850786 
C 131.221127 33.558298 128.238885 33.41179 125.254844 33.41179 
C 122.270803 33.41179 119.28856 33.558298 116.318888 33.850786 
z
" clip-path="url(#pfe99a93271)" style="fill: #828282"/>
   </g>
   <g id="patch_100">
    <path d="M 132.967142 46.274781 
C 135.530158 46.527216 138.079236 46.905335 140.605167 47.407774 
C 143.131099 47.910214 145.63084 48.536366 148.09536 49.28397 
L 148.640826 47.48581 
C 146.117449 46.720352 143.558011 46.079246 140.971756 45.564808 
C 138.385502 45.05037 135.775548 44.66322 133.151324 44.404756 
z
" clip-path="url(#pfe99a93271)" style="fill: #828282"/>
   </g>
   <g id="patch_101">
    <path d="M 157.441609 18.473518 
C 160.914602 19.527039 164.333776 20.750439 167.686783 22.1393 
C 171.039789 23.528161 174.322585 25.080808 177.523314 26.791633 
L 177.523314 26.791633 
C 174.322585 25.080808 171.039789 23.528161 167.686783 22.1393 
C 164.333776 20.750439 160.914602 19.527039 157.441609 18.473518 
z
" clip-path="url(#pfe99a93271)" style="fill: #828282"/>
   </g>
   <g id="patch_102">
    <path d="M 169.271912 42.228919 
C 171.967356 43.669663 174.590438 45.241878 177.131684 46.939885 
C 179.67293 48.637891 182.129277 50.459642 184.491853 52.398558 
L 185.309914 51.401748 
C 182.914711 49.436056 180.424442 47.589146 177.848101 45.86769 
C 175.271761 44.146234 172.612454 42.552307 169.879787 41.091666 
z
" clip-path="url(#pfe99a93271)" style="fill: #828282"/>
   </g>
   <g id="patch_103">
    <path d="M 191.710739 43.60232 
C 194.361229 45.777521 196.903324 48.081542 199.327844 50.506062 
C 201.752364 52.930582 204.056386 55.472678 206.231586 58.123167 
L 206.231586 58.123167 
C 204.056386 55.472678 201.752364 52.930582 199.327844 50.506062 
C 196.903324 48.081542 194.361229 45.777521 191.710739 43.60232 
z
" clip-path="url(#pfe99a93271)" style="fill: #828282"/>
   </g>
   <g id="patch_104">
    <path d="M 205.216345 58.956355 
C 207.364274 61.573614 209.382408 64.294753 211.263458 67.109943 
C 213.144509 69.925134 214.886207 72.830982 216.482262 75.816991 
L 218.268215 74.86238 
C 216.640914 71.817913 214.865119 68.855178 212.947243 65.984874 
C 211.029368 63.114571 208.971725 60.34016 206.781746 57.671663 
z
" clip-path="url(#pfe99a93271)" style="fill: #828282"/>
   </g>
   <g id="patch_105">
    <path d="M 179.89444 95.37359 
C 180.850379 97.162025 181.717934 98.996317 182.493973 100.869839 
C 183.270011 102.743361 183.953597 104.653855 184.542261 106.594421 
L 205.235579 100.317172 
C 204.441451 97.699283 203.51927 95.121961 202.472369 92.594516 
C 201.425467 90.067072 200.255105 87.59255 198.965511 85.17989 
z
" clip-path="url(#pfe99a93271)" style="fill: #828282"/>
   </g>
   <g id="patch_106">
    <path d="M 174.867778 109.529143 
C 175.360385 111.153049 175.772965 112.800161 176.104029 114.464531 
C 176.435092 116.128901 176.68424 117.808521 176.850573 119.497327 
L 218.015955 115.44289 
C 217.716915 112.406681 217.268985 109.386983 216.673784 106.394705 
C 216.078582 103.402426 215.336827 100.441174 214.451198 97.521644 
z
" clip-path="url(#pfe99a93271)" style="fill: #828282"/>
   </g>
   <g id="patch_107">
    <path d="M 182.663153 118.924838 
C 182.848224 120.803897 182.940927 122.690911 182.940927 124.579063 
C 182.940927 126.467214 182.848224 128.354228 182.663153 130.233287 
L 219.843263 133.895209 
C 220.148194 130.799188 220.300936 127.690063 220.300936 124.579063 
C 220.300936 121.468062 220.148194 118.358937 219.843263 115.262916 
z
" clip-path="url(#pfe99a93271)" style="fill: #828282"/>
   </g>
   <g id="patch_108">
    <path d="M 179.787465 129.950057 
C 179.611665 131.734991 179.348335 133.510218 178.998426 135.269326 
C 178.648518 137.028433 178.212453 138.769301 177.691807 140.485641 
L 210.247184 150.361207 
C 211.091072 147.579281 211.797867 144.757599 212.365015 141.906353 
C 212.932163 139.055107 213.358981 136.177734 213.643927 133.284627 
z
" clip-path="url(#pfe99a93271)" style="fill: #828282"/>
   </g>
   <g id="patch_109">
    <path d="M 195.586265 145.913866 
C 194.887945 148.215918 194.077021 150.482298 193.156423 152.704818 
C 192.235825 154.927338 191.206663 157.103319 190.072653 159.224903 
L 201.402217 165.280682 
C 202.734442 162.788264 203.943493 160.231941 205.025003 157.620944 
C 206.106513 155.009948 207.059179 152.347426 207.879559 149.642996 
z
" clip-path="url(#pfe99a93271)" style="fill: #828282"/>
   </g>
   <g id="patch_110">
    <path d="M 167.74881 147.29256 
C 167.005363 148.683451 166.194075 150.037003 165.317877 151.348326 
C 164.441679 152.659649 163.501627 153.927162 162.501116 155.146288 
L 182.338798 171.426653 
C 183.872189 169.55821 185.312921 167.615608 186.65579 165.605863 
C 187.998658 163.596118 189.242044 161.521654 190.381457 159.389963 
z
" clip-path="url(#pfe99a93271)" style="fill: #828282"/>
   </g>
   <g id="patch_111">
    <path d="M 164.002108 156.37812 
C 162.961277 157.646376 161.858806 158.862766 160.698677 160.022895 
C 159.538547 161.183025 158.322158 162.285496 157.053902 163.326327 
L 160.785364 167.873126 
C 162.202443 166.710159 163.56157 165.478319 164.857835 164.182054 
C 166.1541 162.885789 167.385941 161.526662 168.548908 160.109583 
z
" clip-path="url(#pfe99a93271)" style="fill: #828282"/>
   </g>
   <g id="patch_112">
    <path d="M 140.160176 142.741262 
C 139.5657 143.229136 138.947629 143.687529 138.308196 144.114784 
C 137.668762 144.54204 137.008737 144.937644 136.330505 145.300167 
L 139.419198 151.078706 
C 140.286571 150.615086 141.130659 150.109159 141.948412 149.562753 
C 142.766166 149.016348 143.556599 148.430123 144.316858 147.806194 
z
" clip-path="url(#pfe99a93271)" style="fill: #828282"/>
   </g>
   <g id="patch_113">
    <path d="M 128.806035 131.222875 
C 128.588574 131.339111 128.365536 131.4446 128.137728 131.538961 
C 127.90992 131.633322 127.677617 131.716441 127.441657 131.788019 
L 128.680921 135.873327 
C 129.050599 135.761186 129.414549 135.630963 129.771455 135.483127 
C 130.128362 135.335292 130.477795 135.170022 130.818492 134.987916 
z
" clip-path="url(#pfe99a93271)" style="fill: #828282"/>
   </g>
   <g id="patch_114">
    <path d="M 140.899625 176.152995 
C 139.211533 176.665072 137.499317 177.09396 135.769162 177.438109 
C 134.039006 177.782259 132.292997 178.041255 130.53744 178.214162 
L 130.825167 181.135502 
C 132.676344 180.953177 134.517453 180.680074 136.341845 180.31718 
C 138.166236 179.954286 139.971712 179.502038 141.751749 178.96207 
z
" clip-path="url(#pfe99a93271)" style="fill: #828282"/>
   </g>
   <g id="patch_115">
    <path d="M 126.275085 134.937745 
C 125.93603 134.971139 125.595539 134.987867 125.254844 134.987867 
C 124.914148 134.987867 124.573658 134.971139 124.234603 134.937745 
L 124.234603 134.937745 
C 124.573658 134.971139 124.914148 134.987867 125.254844 134.987867 
C 125.595539 134.987867 125.93603 134.971139 126.275085 134.937745 
z
" clip-path="url(#pfe99a93271)" style="fill: #828282"/>
   </g>
   <g id="patch_116">
    <path d="M 124.035422 136.960057 
C 123.630174 136.920143 123.227129 136.860357 122.827744 136.780915 
C 122.42836 136.701472 122.033116 136.602469 121.643441 136.484262 
L 121.643441 136.484262 
C 122.033116 136.602469 122.42836 136.701472 122.827744 136.780915 
C 123.227129 136.860357 123.630174 136.920143 124.035422 136.960057 
z
" clip-path="url(#pfe99a93271)" style="fill: #828282"/>
   </g>
   <g id="patch_117">
    <path d="M 122.457463 133.80079 
C 122.155622 133.709228 121.858459 133.602901 121.567046 133.482194 
C 121.275633 133.361487 120.990322 133.226545 120.712144 133.077856 
L 120.712144 133.077856 
C 120.990322 133.226545 121.275633 133.361487 121.567046 133.482194 
C 121.858459 133.602901 122.155622 133.709228 122.457463 133.80079 
z
" clip-path="url(#pfe99a93271)" style="fill: #828282"/>
   </g>
   <g id="patch_118">
    <path d="M 125.254844 124.579063 
C 125.254844 124.579063 125.254844 124.579063 125.254844 124.579063 
C 125.254844 124.579063 125.254844 124.579063 125.254844 124.579063 
L 125.254844 124.579063 
C 125.254844 124.579063 125.254844 124.579063 125.254844 124.579063 
C 125.254844 124.579063 125.254844 124.579063 125.254844 124.579063 
z
" clip-path="url(#pfe99a93271)" style="fill: #828282"/>
   </g>
   <g id="patch_119">
    <path d="M 125.254844 124.579063 
C 125.254844 124.579063 125.254844 124.579063 125.254844 124.579063 
C 125.254844 124.579063 125.254844 124.579063 125.254844 124.579063 
L 125.254844 124.579063 
C 125.254844 124.579063 125.254844 124.579063 125.254844 124.579063 
C 125.254844 124.579063 125.254844 124.579063 125.254844 124.579063 
z
" clip-path="url(#pfe99a93271)" style="fill: #828282"/>
   </g>
   <g id="patch_120">
    <path d="M 111.099082 136.196396 
C 110.71883 135.733057 110.361555 135.251327 110.028548 134.752948 
C 109.695542 134.254568 109.387205 133.74014 109.104652 133.21152 
L 109.104652 133.21152 
C 109.387205 133.74014 109.695542 134.254568 110.028548 134.752948 
C 110.361555 135.251327 110.71883 135.733057 111.099082 136.196396 
z
" clip-path="url(#pfe99a93271)" style="fill: #828282"/>
   </g>
   <g id="patch_121">
    <path d="M 110.671438 132.374055 
C 110.416297 131.896718 110.184745 131.407143 109.977619 130.907096 
C 109.770493 130.40705 109.588042 129.897136 109.430927 129.379195 
L 109.430927 129.379195 
C 109.588042 129.897136 109.770493 130.40705 109.977619 130.907096 
C 110.184745 131.407143 110.416297 131.896718 110.671438 132.374055 
z
" clip-path="url(#pfe99a93271)" style="fill: #828282"/>
   </g>
   <g id="patch_122">
    <path d="M 89.079227 135.552816 
C 88.72004 134.368734 88.419204 133.167731 88.177807 131.954144 
C 87.936409 130.740557 87.754741 129.51585 87.633458 128.284446 
L 87.633458 128.284446 
C 87.754741 129.51585 87.936409 130.740557 88.177807 131.954144 
C 88.419204 133.167731 88.72004 134.368734 89.079227 135.552816 
z
" clip-path="url(#pfe99a93271)" style="fill: #828282"/>
   </g>
   <g id="patch_123">
    <path d="M 79.150529 129.119941 
C 79.0019 127.610878 78.92745 126.095427 78.92745 124.579062 
C 78.92745 123.062698 79.0019 121.547247 79.150529 120.038184 
L 79.150529 120.038184 
C 79.0019 121.547247 78.92745 123.062698 78.92745 124.579062 
C 78.92745 126.095427 79.0019 127.610878 79.150529 129.119941 
z
" clip-path="url(#pfe99a93271)" style="fill: #828282"/>
   </g>
   <g id="patch_124">
    <path d="M 92.342195 121.33745 
C 92.448298 120.260169 92.607228 119.188748 92.818412 118.127055 
C 93.029596 117.065362 93.292779 116.014678 93.60701 114.978797 
L 88.240073 113.350755 
C 87.872554 114.562303 87.56474 115.791166 87.317743 117.032904 
C 87.070746 118.274642 86.884864 119.527758 86.760768 120.787727 
z
" clip-path="url(#pfe99a93271)" style="fill: #828282"/>
   </g>
   <g id="patch_125">
    <path d="M 92.723646 114.710832 
C 93.046648 113.646037 93.421734 112.597742 93.847548 111.569735 
C 94.273363 110.541727 94.749393 109.535245 95.27392 108.553925 
L 95.27392 108.553925 
C 94.749393 109.535245 94.273363 110.541727 93.847548 111.569735 
C 93.421734 112.597742 93.046648 113.646037 92.723646 114.710832 
z
" clip-path="url(#pfe99a93271)" style="fill: #828282"/>
   </g>
   <g id="patch_126">
    <path d="M 80.6418 100.732894 
C 81.422321 99.272642 82.274066 97.851592 83.193958 96.474877 
C 84.113849 95.098161 85.10078 93.76744 86.151184 92.487518 
L 86.151184 92.487518 
C 85.10078 93.76744 84.113849 95.098161 83.193958 96.474877 
C 82.274066 97.851592 81.422321 99.272642 80.6418 100.732894 
z
" clip-path="url(#pfe99a93271)" style="fill: #828282"/>
   </g>
   <g id="patch_127">
    <path d="M 101.308841 104.927086 
C 101.952079 104.143297 102.633412 103.391562 103.350378 102.674596 
C 104.067344 101.957631 104.819078 101.276298 105.602867 100.633059 
L 95.166865 87.916754 
C 93.966853 88.901579 92.815916 89.944727 91.718212 91.042431 
C 90.620508 92.140135 89.57736 93.291071 88.592535 94.491084 
z
" clip-path="url(#pfe99a93271)" style="fill: #828282"/>
   </g>
   <g id="patch_128">
    <path d="M 69.205666 56.282942 
C 71.4411 54.448369 73.765259 52.724655 76.169749 51.118026 
C 78.574238 49.511398 81.056159 48.023792 83.606548 46.660581 
L 81.840956 43.357391 
C 79.182449 44.778392 76.595312 46.329062 74.08889 48.003801 
C 71.582467 49.678539 69.15978 51.475326 66.829579 53.387672 
z
" clip-path="url(#pfe99a93271)" style="fill: #828282"/>
   </g>
   <g id="patch_129">
    <path d="M 92.531988 63.358906 
C 94.535816 62.287838 96.591021 61.315798 98.690183 60.446297 
C 100.789344 59.576796 102.92993 58.810882 105.104209 58.151322 
L 104.761923 57.022957 
C 102.550711 57.693721 100.373764 58.472645 98.238946 59.356915 
C 96.104128 60.241186 94.014011 61.229737 91.976146 62.318999 
z
" clip-path="url(#pfe99a93271)" style="fill: #828282"/>
   </g>
   <g id="patch_130">
    <path d="M 104.815027 57.198016 
C 107.020509 56.52899 109.257509 55.968651 111.517948 55.519022 
C 113.778386 55.069392 116.059537 54.731016 118.353162 54.505113 
L 118.353162 54.505113 
C 116.059537 54.731016 113.778386 55.069392 111.517948 55.519022 
C 109.257509 55.968651 107.020509 56.52899 104.815027 57.198016 
z
" clip-path="url(#pfe99a93271)" style="fill: #828282"/>
   </g>
   <g id="patch_131">
    <path d="M 125.254844 124.579063 
C 125.254844 124.579063 125.254844 124.579063 125.254844 124.579063 
C 125.254844 124.579063 125.254844 124.579063 125.254844 124.579063 
L 134.190799 33.850786 
C 131.221127 33.558298 128.238885 33.41179 125.254844 33.41179 
C 122.270803 33.41179 119.28856 33.558298 116.318888 33.850786 
L 125.254844 124.579063 
z
" clip-path="url(#pfe99a93271)" style="fill: none; stroke: #292929; stroke-width: 0.5; stroke-linejoin: miter"/>
   </g>
   <g id="patch_132">
    <path d="M 125.254844 124.579063 
C 125.254844 124.579063 125.254844 124.579063 125.254844 124.579063 
C 125.254844 124.579063 125.254844 124.579063 125.254844 124.579063 
L 148.640826 47.48581 
C 146.117449 46.720352 143.558011 46.079246 140.971756 45.564808 
C 138.385502 45.05037 135.775548 44.66322 133.151324 44.404756 
L 125.254844 124.579063 
z
" clip-path="url(#pfe99a93271)" style="fill: none; stroke: #292929; stroke-width: 0.5; stroke-linejoin: miter"/>
   </g>
   <g id="patch_133">
    <path d="M 125.254844 124.579063 
C 125.254844 124.579063 125.254844 124.579063 125.254844 124.579063 
C 125.254844 124.579063 125.254844 124.579063 125.254844 124.579063 
L 177.523314 26.791633 
C 174.322585 25.080808 171.039789 23.528161 167.686783 22.1393 
C 164.333776 20.750439 160.914602 19.527039 157.441609 18.473518 
L 125.254844 124.579063 
z
" clip-path="url(#pfe99a93271)" style="fill: none; stroke: #292929; stroke-width: 0.5; stroke-linejoin: miter"/>
   </g>
   <g id="patch_134">
    <path d="M 125.254844 124.579063 
C 125.254844 124.579063 125.254844 124.579063 125.254844 124.579063 
C 125.254844 124.579063 125.254844 124.579063 125.254844 124.579063 
L 185.309914 51.401748 
C 182.914711 49.436056 180.424442 47.589146 177.848101 45.86769 
C 175.271761 44.146234 172.612454 42.552307 169.879787 41.091666 
L 125.254844 124.579063 
z
" clip-path="url(#pfe99a93271)" style="fill: none; stroke: #292929; stroke-width: 0.5; stroke-linejoin: miter"/>
   </g>
   <g id="patch_135">
    <path d="M 125.254844 124.579063 
C 125.254844 124.579063 125.254844 124.579063 125.254844 124.579063 
C 125.254844 124.579063 125.254844 124.579063 125.254844 124.579063 
L 206.231586 58.123167 
C 204.056386 55.472678 201.752364 52.930582 199.327844 50.506062 
C 196.903324 48.081542 194.361229 45.777521 191.710739 43.60232 
L 125.254844 124.579063 
z
" clip-path="url(#pfe99a93271)" style="fill: none; stroke: #292929; stroke-width: 0.5; stroke-linejoin: miter"/>
   </g>
   <g id="patch_136">
    <path d="M 125.254844 124.579063 
C 125.254844 124.579063 125.254844 124.579063 125.254844 124.579063 
C 125.254844 124.579063 125.254844 124.579063 125.254844 124.579063 
L 218.268215 74.86238 
C 216.640914 71.817913 214.865119 68.855178 212.947243 65.984874 
C 211.029368 63.114571 208.971725 60.34016 206.781746 57.671663 
L 125.254844 124.579063 
z
" clip-path="url(#pfe99a93271)" style="fill: none; stroke: #292929; stroke-width: 0.5; stroke-linejoin: miter"/>
   </g>
   <g id="patch_137">
    <path d="M 125.254844 124.579063 
C 125.254844 124.579063 125.254844 124.579063 125.254844 124.579063 
C 125.254844 124.579063 125.254844 124.579063 125.254844 124.579063 
L 205.235579 100.317172 
C 204.441451 97.699283 203.51927 95.121961 202.472369 92.594516 
C 201.425467 90.067072 200.255105 87.59255 198.965511 85.17989 
L 125.254844 124.579063 
z
" clip-path="url(#pfe99a93271)" style="fill: none; stroke: #292929; stroke-width: 0.5; stroke-linejoin: miter"/>
   </g>
   <g id="patch_138">
    <path d="M 125.254844 124.579063 
C 125.254844 124.579063 125.254844 124.579063 125.254844 124.579063 
C 125.254844 124.579063 125.254844 124.579063 125.254844 124.579063 
L 218.015955 115.44289 
C 217.716915 112.406681 217.268985 109.386983 216.673784 106.394705 
C 216.078582 103.402426 215.336827 100.441174 214.451198 97.521644 
L 125.254844 124.579063 
z
" clip-path="url(#pfe99a93271)" style="fill: none; stroke: #292929; stroke-width: 0.5; stroke-linejoin: miter"/>
   </g>
   <g id="patch_139">
    <path d="M 125.254844 124.579063 
C 125.254844 124.579063 125.254844 124.579063 125.254844 124.579063 
C 125.254844 124.579063 125.254844 124.579063 125.254844 124.579063 
L 219.843263 133.895209 
C 220.148194 130.799188 220.300936 127.690063 220.300936 124.579063 
C 220.300936 121.468062 220.148194 118.358937 219.843263 115.262916 
L 125.254844 124.579063 
z
" clip-path="url(#pfe99a93271)" style="fill: none; stroke: #292929; stroke-width: 0.5; stroke-linejoin: miter"/>
   </g>
   <g id="patch_140">
    <path d="M 125.254844 124.579063 
C 125.254844 124.579063 125.254844 124.579063 125.254844 124.579063 
C 125.254844 124.579063 125.254844 124.579063 125.254844 124.579063 
L 210.247184 150.361207 
C 211.091072 147.579281 211.797867 144.757599 212.365015 141.906353 
C 212.932163 139.055107 213.358981 136.177734 213.643927 133.284627 
L 125.254844 124.579063 
z
" clip-path="url(#pfe99a93271)" style="fill: none; stroke: #292929; stroke-width: 0.5; stroke-linejoin: miter"/>
   </g>
   <g id="patch_141">
    <path d="M 125.254844 124.579063 
C 125.254844 124.579063 125.254844 124.579063 125.254844 124.579063 
C 125.254844 124.579063 125.254844 124.579063 125.254844 124.579063 
L 201.402217 165.280682 
C 202.734442 162.788264 203.943493 160.231941 205.025003 157.620944 
C 206.106513 155.009948 207.059179 152.347426 207.879559 149.642996 
L 125.254844 124.579063 
z
" clip-path="url(#pfe99a93271)" style="fill: none; stroke: #292929; stroke-width: 0.5; stroke-linejoin: miter"/>
   </g>
   <g id="patch_142">
    <path d="M 125.254844 124.579063 
C 125.254844 124.579063 125.254844 124.579063 125.254844 124.579063 
C 125.254844 124.579063 125.254844 124.579063 125.254844 124.579063 
L 182.338798 171.426653 
C 183.872189 169.55821 185.312921 167.615608 186.65579 165.605863 
C 187.998658 163.596118 189.242044 161.521654 190.381457 159.389963 
L 125.254844 124.579063 
z
" clip-path="url(#pfe99a93271)" style="fill: none; stroke: #292929; stroke-width: 0.5; stroke-linejoin: miter"/>
   </g>
   <g id="patch_143">
    <path d="M 125.254844 124.579063 
C 125.254844 124.579063 125.254844 124.579063 125.254844 124.579063 
C 125.254844 124.579063 125.254844 124.579063 125.254844 124.579063 
L 160.785364 167.873126 
C 162.202443 166.710159 163.56157 165.478319 164.857835 164.182054 
C 166.1541 162.885789 167.385941 161.526662 168.548908 160.109583 
L 125.254844 124.579063 
z
" clip-path="url(#pfe99a93271)" style="fill: none; stroke: #292929; stroke-width: 0.5; stroke-linejoin: miter"/>
   </g>
   <g id="patch_144">
    <path d="M 125.254844 124.579063 
C 125.254844 124.579063 125.254844 124.579063 125.254844 124.579063 
C 125.254844 124.579063 125.254844 124.579063 125.254844 124.579063 
L 139.419198 151.078706 
C 140.286571 150.615086 141.130659 150.109159 141.948412 149.562753 
C 142.766166 149.016348 143.556599 148.430123 144.316858 147.806194 
L 125.254844 124.579063 
z
" clip-path="url(#pfe99a93271)" style="fill: none; stroke: #292929; stroke-width: 0.5; stroke-linejoin: miter"/>
   </g>
   <g id="patch_145">
    <path d="M 125.254844 124.579063 
C 125.254844 124.579063 125.254844 124.579063 125.254844 124.579063 
C 125.254844 124.579063 125.254844 124.579063 125.254844 124.579063 
L 128.680921 135.873327 
C 129.050599 135.761186 129.414549 135.630963 129.771455 135.483127 
C 130.128362 135.335292 130.477795 135.170022 130.818492 134.987916 
L 125.254844 124.579063 
z
" clip-path="url(#pfe99a93271)" style="fill: none; stroke: #292929; stroke-width: 0.5; stroke-linejoin: miter"/>
   </g>
   <g id="patch_146">
    <path d="M 125.254844 124.579063 
C 125.254844 124.579063 125.254844 124.579063 125.254844 124.579063 
C 125.254844 124.579063 125.254844 124.579063 125.254844 124.579063 
L 130.825167 181.135502 
C 132.676344 180.953177 134.517453 180.680074 136.341845 180.31718 
C 138.166236 179.954286 139.971712 179.502038 141.751749 178.96207 
L 125.254844 124.579063 
z
" clip-path="url(#pfe99a93271)" style="fill: none; stroke: #292929; stroke-width: 0.5; stroke-linejoin: miter"/>
   </g>
   <g id="patch_147">
    <path d="M 125.254844 124.579063 
C 125.254844 124.579063 125.254844 124.579063 125.254844 124.579063 
C 125.254844 124.579063 125.254844 124.579063 125.254844 124.579063 
L 124.234603 134.937745 
C 124.573658 134.971139 124.914148 134.987867 125.254844 134.987867 
C 125.595539 134.987867 125.93603 134.971139 126.275085 134.937745 
L 125.254844 124.579063 
z
" clip-path="url(#pfe99a93271)" style="fill: none; stroke: #292929; stroke-width: 0.5; stroke-linejoin: miter"/>
   </g>
   <g id="patch_148">
    <path d="M 125.254844 124.579063 
C 125.254844 124.579063 125.254844 124.579063 125.254844 124.579063 
C 125.254844 124.579063 125.254844 124.579063 125.254844 124.579063 
L 121.643441 136.484262 
C 122.033116 136.602469 122.42836 136.701472 122.827744 136.780915 
C 123.227129 136.860357 123.630174 136.920143 124.035422 136.960057 
L 125.254844 124.579063 
z
" clip-path="url(#pfe99a93271)" style="fill: none; stroke: #292929; stroke-width: 0.5; stroke-linejoin: miter"/>
   </g>
   <g id="patch_149">
    <path d="M 125.254844 124.579063 
C 125.254844 124.579063 125.254844 124.579063 125.254844 124.579063 
C 125.254844 124.579063 125.254844 124.579063 125.254844 124.579063 
L 120.712144 133.077856 
C 120.990322 133.226545 121.275633 133.361487 121.567046 133.482194 
C 121.858459 133.602901 122.155622 133.709228 122.457463 133.80079 
L 125.254844 124.579063 
z
" clip-path="url(#pfe99a93271)" style="fill: none; stroke: #292929; stroke-width: 0.5; stroke-linejoin: miter"/>
   </g>
   <g id="patch_150">
    <path d="M 125.254844 124.579063 
C 125.254844 124.579063 125.254844 124.579063 125.254844 124.579063 
C 125.254844 124.579063 125.254844 124.579063 125.254844 124.579063 
L 125.254844 124.579063 
C 125.254844 124.579063 125.254844 124.579063 125.254844 124.579063 
C 125.254844 124.579063 125.254844 124.579063 125.254844 124.579063 
L 125.254844 124.579063 
z
" clip-path="url(#pfe99a93271)" style="fill: none; stroke: #292929; stroke-width: 0.5; stroke-linejoin: miter"/>
   </g>
   <g id="patch_151">
    <path d="M 125.254844 124.579063 
C 125.254844 124.579063 125.254844 124.579063 125.254844 124.579063 
C 125.254844 124.579063 125.254844 124.579063 125.254844 124.579063 
L 125.254844 124.579063 
C 125.254844 124.579063 125.254844 124.579063 125.254844 124.579063 
C 125.254844 124.579063 125.254844 124.579063 125.254844 124.579063 
L 125.254844 124.579063 
z
" clip-path="url(#pfe99a93271)" style="fill: none; stroke: #292929; stroke-width: 0.5; stroke-linejoin: miter"/>
   </g>
   <g id="patch_152">
    <path d="M 125.254844 124.579063 
C 125.254844 124.579063 125.254844 124.579063 125.254844 124.579063 
C 125.254844 124.579063 125.254844 124.579063 125.254844 124.579063 
L 109.104652 133.21152 
C 109.387205 133.74014 109.695542 134.254568 110.028548 134.752948 
C 110.361555 135.251327 110.71883 135.733057 111.099082 136.196396 
L 125.254844 124.579063 
z
" clip-path="url(#pfe99a93271)" style="fill: none; stroke: #292929; stroke-width: 0.5; stroke-linejoin: miter"/>
   </g>
   <g id="patch_153">
    <path d="M 125.254844 124.579063 
C 125.254844 124.579063 125.254844 124.579063 125.254844 124.579063 
C 125.254844 124.579063 125.254844 124.579063 125.254844 124.579063 
L 109.430927 129.379195 
C 109.588042 129.897136 109.770493 130.40705 109.977619 130.907096 
C 110.184745 131.407143 110.416297 131.896718 110.671438 132.374055 
L 125.254844 124.579063 
z
" clip-path="url(#pfe99a93271)" style="fill: none; stroke: #292929; stroke-width: 0.5; stroke-linejoin: miter"/>
   </g>
   <g id="patch_154">
    <path d="M 125.254844 124.579063 
C 125.254844 124.579063 125.254844 124.579063 125.254844 124.579063 
C 125.254844 124.579063 125.254844 124.579063 125.254844 124.579063 
L 87.633458 128.284446 
C 87.754741 129.51585 87.936409 130.740557 88.177807 131.954144 
C 88.419204 133.167731 88.72004 134.368734 89.079227 135.552816 
L 125.254844 124.579063 
z
" clip-path="url(#pfe99a93271)" style="fill: none; stroke: #292929; stroke-width: 0.5; stroke-linejoin: miter"/>
   </g>
   <g id="patch_155">
    <path d="M 125.254844 124.579063 
C 125.254844 124.579063 125.254844 124.579063 125.254844 124.579063 
C 125.254844 124.579063 125.254844 124.579063 125.254844 124.579063 
L 79.150529 120.038184 
C 79.0019 121.547247 78.92745 123.062698 78.92745 124.579062 
C 78.92745 126.095427 79.0019 127.610878 79.150529 129.119941 
L 125.254844 124.579063 
z
" clip-path="url(#pfe99a93271)" style="fill: none; stroke: #292929; stroke-width: 0.5; stroke-linejoin: miter"/>
   </g>
   <g id="patch_156">
    <path d="M 125.254844 124.579063 
C 125.254844 124.579063 125.254844 124.579063 125.254844 124.579063 
C 125.254844 124.579063 125.254844 124.579063 125.254844 124.579063 
L 88.240073 113.350755 
C 87.872554 114.562303 87.56474 115.791166 87.317743 117.032904 
C 87.070746 118.274642 86.884864 119.527758 86.760768 120.787727 
L 125.254844 124.579063 
z
" clip-path="url(#pfe99a93271)" style="fill: none; stroke: #292929; stroke-width: 0.5; stroke-linejoin: miter"/>
   </g>
   <g id="patch_157">
    <path d="M 125.254844 124.579063 
C 125.254844 124.579063 125.254844 124.579063 125.254844 124.579063 
C 125.254844 124.579063 125.254844 124.579063 125.254844 124.579063 
L 95.27392 108.553925 
C 94.749393 109.535245 94.273363 110.541727 93.847548 111.569735 
C 93.421734 112.597742 93.046648 113.646037 92.723646 114.710832 
L 125.254844 124.579063 
z
" clip-path="url(#pfe99a93271)" style="fill: none; stroke: #292929; stroke-width: 0.5; stroke-linejoin: miter"/>
   </g>
   <g id="patch_158">
    <path d="M 125.254844 124.579063 
C 125.254844 124.579063 125.254844 124.579063 125.254844 124.579063 
C 125.254844 124.579063 125.254844 124.579063 125.254844 124.579063 
L 86.151184 92.487518 
C 85.10078 93.76744 84.113849 95.098161 83.193958 96.474877 
C 82.274066 97.851592 81.422321 99.272642 80.6418 100.732894 
L 125.254844 124.579063 
z
" clip-path="url(#pfe99a93271)" style="fill: none; stroke: #292929; stroke-width: 0.5; stroke-linejoin: miter"/>
   </g>
   <g id="patch_159">
    <path d="M 125.254844 124.579063 
C 125.254844 124.579063 125.254844 124.579063 125.254844 124.579063 
C 125.254844 124.579063 125.254844 124.579063 125.254844 124.579063 
L 95.166865 87.916754 
C 93.966853 88.901579 92.815916 89.944727 91.718212 91.042431 
C 90.620508 92.140135 89.57736 93.291071 88.592535 94.491084 
L 125.254844 124.579063 
z
" clip-path="url(#pfe99a93271)" style="fill: none; stroke: #292929; stroke-width: 0.5; stroke-linejoin: miter"/>
   </g>
   <g id="patch_160">
    <path d="M 125.254844 124.579063 
C 125.254844 124.579063 125.254844 124.579063 125.254844 124.579063 
C 125.254844 124.579063 125.254844 124.579063 125.254844 124.579063 
L 81.840956 43.357391 
C 79.182449 44.778392 76.595312 46.329062 74.08889 48.003801 
C 71.582467 49.678539 69.15978 51.475326 66.829579 53.387672 
L 125.254844 124.579063 
z
" clip-path="url(#pfe99a93271)" style="fill: none; stroke: #292929; stroke-width: 0.5; stroke-linejoin: miter"/>
   </g>
   <g id="patch_161">
    <path d="M 125.254844 124.579063 
C 125.254844 124.579063 125.254844 124.579063 125.254844 124.579063 
C 125.254844 124.579063 125.254844 124.579063 125.254844 124.579063 
L 104.761923 57.022957 
C 102.550711 57.693721 100.373764 58.472645 98.238946 59.356915 
C 96.104128 60.241186 94.014011 61.229737 91.976146 62.318999 
L 125.254844 124.579063 
z
" clip-path="url(#pfe99a93271)" style="fill: none; stroke: #292929; stroke-width: 0.5; stroke-linejoin: miter"/>
   </g>
   <g id="patch_162">
    <path d="M 125.254844 124.579063 
C 125.254844 124.579063 125.254844 124.579063 125.254844 124.579063 
C 125.254844 124.579063 125.254844 124.579063 125.254844 124.579063 
L 118.353162 54.505113 
C 116.059537 54.731016 113.778386 55.069392 111.517948 55.519022 
C 109.257509 55.968651 107.020509 56.52899 104.815027 57.198016 
L 125.254844 124.579063 
z
" clip-path="url(#pfe99a93271)" style="fill: none; stroke: #292929; stroke-width: 0.5; stroke-linejoin: miter"/>
   </g>
   <g id="PathCollection_1">
    <defs>
     <path id="m077c24e0cc" d="M 0.193618 7.414054 
L 0.193618 7.414054 
C 0.054922 7.414054 -0.078235 7.358899 -0.176308 7.260826 
C -0.274381 7.162753 -0.329536 7.029596 -0.329536 6.890901 
L -0.329536 5.365008 
L -1.528416 6.56393 
L -1.528416 6.56393 
C -1.577018 6.612704 -1.634775 6.651408 -1.698366 6.677814 
C -1.761958 6.704221 -1.830141 6.717815 -1.898997 6.717815 
C -1.967853 6.717815 -2.036037 6.704221 -2.099628 6.677814 
C -2.163219 6.651408 -2.220976 6.612704 -2.269578 6.56393 
L -2.269578 6.56393 
C -2.318353 6.515327 -2.357056 6.457571 -2.383463 6.393979 
C -2.409869 6.330388 -2.423463 6.262205 -2.423463 6.193348 
C -2.423463 6.124492 -2.409869 6.056309 -2.383463 5.992718 
C -2.357056 5.929126 -2.318353 5.87137 -2.269578 5.822767 
L -0.329536 3.884106 
L -0.329536 0.820937 
L -2.98067 2.351538 
L -3.691824 5.001416 
L -3.691824 5.001416 
C -3.727584 5.135411 -3.815199 5.249836 -3.93523 5.319305 
C -4.055261 5.388775 -4.198123 5.407741 -4.332122 5.371997 
L -4.332122 5.371997 
C -4.466126 5.336237 -4.580558 5.248616 -4.650029 5.128576 
C -4.719499 5.008535 -4.73846 4.865662 -4.702703 4.731657 
L -4.262647 3.092721 
L -5.585535 3.855668 
L -5.585535 3.855668 
C -5.645013 3.890144 -5.710708 3.912561 -5.778854 3.921634 
C -5.847001 3.930706 -5.916272 3.926258 -5.982698 3.908543 
C -6.049125 3.890828 -6.111412 3.860192 -6.165991 3.818391 
C -6.220571 3.77659 -6.266379 3.724437 -6.300791 3.664922 
L -6.300791 3.664922 
C -6.335212 3.605364 -6.35755 3.539597 -6.366524 3.471396 
C -6.375498 3.403194 -6.370933 3.333888 -6.35309 3.267452 
C -6.335248 3.201017 -6.304476 3.138749 -6.26254 3.08422 
C -6.220605 3.029692 -6.168323 2.983966 -6.108695 2.949666 
L -4.785807 2.186762 
L -6.424743 1.746706 
L -6.424743 1.746706 
C -6.558747 1.710946 -6.673179 1.623325 -6.74265 1.503284 
C -6.81212 1.383244 -6.831081 1.240371 -6.795324 1.106366 
L -6.795324 1.106366 
C -6.777471 1.039969 -6.746703 0.977739 -6.704784 0.923241 
C -6.662864 0.868744 -6.61061 0.823041 -6.551015 0.788752 
C -6.491421 0.754464 -6.425647 0.732257 -6.357465 0.723406 
C -6.289282 0.714554 -6.220019 0.71923 -6.153645 0.737166 
L -3.505232 1.44698 
L -0.852424 -0.08496 
L -3.503767 -1.615666 
L -6.153645 -0.905851 
L -6.153645 -0.905851 
C -6.22011 -0.887939 -6.289462 -0.883321 -6.357716 -0.892262 
C -6.42597 -0.901202 -6.491793 -0.923527 -6.551403 -0.957953 
C -6.611013 -0.992379 -6.663247 -1.038234 -6.705103 -1.092883 
C -6.746958 -1.147533 -6.777619 -1.209911 -6.795324 -1.276432 
L -6.795324 -1.276432 
C -6.831068 -1.410431 -6.812101 -1.553293 -6.742632 -1.673324 
C -6.673162 -1.793355 -6.558738 -1.88097 -6.424743 -1.91673 
L -4.785807 -2.355447 
L -6.108695 -3.119732 
L -6.108695 -3.119732 
C -6.228699 -3.188976 -6.316415 -3.303132 -6.352417 -3.436921 
C -6.388419 -3.57071 -6.369839 -3.713469 -6.300791 -3.833586 
L -6.300791 -3.833586 
C -6.266491 -3.893214 -6.220765 -3.945496 -6.166237 -3.987431 
C -6.111708 -4.029367 -6.04944 -4.060139 -5.983005 -4.077981 
C -5.91657 -4.095823 -5.847263 -4.100389 -5.779062 -4.091415 
C -5.71086 -4.082441 -5.645094 -4.060102 -5.585535 -4.025682 
L -4.262647 -3.261396 
L -4.702703 -4.900332 
L -4.702703 -4.900332 
C -4.73846 -5.034337 -4.719499 -5.17721 -4.650029 -5.29725 
C -4.580558 -5.417291 -4.466126 -5.504912 -4.332122 -5.540672 
L -4.332122 -5.540672 
C -4.19831 -5.576464 -4.055613 -5.557686 -3.935617 -5.488496 
C -3.81562 -5.419305 -3.727882 -5.305212 -3.691824 -5.171472 
L -2.982009 -2.521594 
L -0.329411 -0.990302 
L -0.329411 -4.051588 
L -2.269453 -5.991589 
L -2.269453 -5.991589 
C -2.318227 -6.040191 -2.356931 -6.097947 -2.383337 -6.161539 
C -2.409744 -6.22513 -2.423338 -6.293314 -2.423338 -6.36217 
C -2.423338 -6.431026 -2.409744 -6.499209 -2.383337 -6.5628 
C -2.356931 -6.626392 -2.318227 -6.684149 -2.269453 -6.732751 
L -2.269453 -6.732751 
C -2.22085 -6.781526 -2.163094 -6.820229 -2.099502 -6.846635 
C -2.035911 -6.873042 -1.967728 -6.886636 -1.898871 -6.886636 
C -1.830015 -6.886636 -1.761832 -6.873042 -1.698241 -6.846635 
C -1.634649 -6.820229 -1.576893 -6.781526 -1.52829 -6.732751 
L -0.329411 -5.533829 
L -0.329411 -7.059722 
L -0.329411 -7.059722 
C -0.329411 -7.198418 -0.274255 -7.331575 -0.176182 -7.429647 
C -0.07811 -7.52772 0.055047 -7.582875 0.193743 -7.582875 
L 0.193743 -7.582875 
C 0.332439 -7.582875 0.465596 -7.52772 0.563669 -7.429647 
C 0.661741 -7.331575 0.716897 -7.198418 0.716897 -7.059722 
L 0.716897 -5.533829 
L 1.915777 -6.732751 
L 1.915777 -6.732751 
C 1.964379 -6.781526 2.022136 -6.820229 2.085727 -6.846635 
C 2.149318 -6.873042 2.217502 -6.886636 2.286358 -6.886636 
C 2.355214 -6.886636 2.423397 -6.873042 2.486989 -6.846635 
C 2.55058 -6.820229 2.608337 -6.781526 2.656939 -6.732751 
L 2.656939 -6.732751 
C 2.705714 -6.684149 2.744417 -6.626392 2.770823 -6.5628 
C 2.79723 -6.499209 2.810824 -6.431026 2.810824 -6.36217 
C 2.810824 -6.293314 2.79723 -6.22513 2.770823 -6.161539 
C 2.744417 -6.097947 2.705714 -6.040191 2.656939 -5.991589 
L 0.716897 -4.051588 
L 0.716897 -0.991139 
L 3.369495 -2.522954 
L 4.07931 -5.171367 
L 4.07931 -5.171367 
C 4.115368 -5.305107 4.203106 -5.4192 4.323103 -5.488391 
C 4.4431 -5.557582 4.585797 -5.576359 4.719608 -5.540567 
L 4.719608 -5.540567 
C 4.853612 -5.504807 4.968045 -5.417186 5.037515 -5.297146 
C 5.106986 -5.177105 5.125946 -5.034232 5.090189 -4.900227 
L 4.650133 -3.262673 
L 5.973022 -4.025577 
L 5.973022 -4.025577 
C 6.03258 -4.059998 6.098346 -4.082336 6.166548 -4.09131 
C 6.234749 -4.100284 6.304056 -4.095719 6.370491 -4.077876 
C 6.436926 -4.060034 6.499194 -4.029262 6.553723 -3.987327 
C 6.608252 -3.945391 6.653978 -3.893109 6.688277 -3.833481 
L 6.688277 -3.833481 
C 6.757325 -3.713365 6.775905 -3.570605 6.739903 -3.436816 
C 6.703901 -3.303027 6.616186 -3.188871 6.496181 -3.119628 
L 5.173293 -2.355342 
L 6.812229 -1.916625 
L 6.812229 -1.916625 
C 6.946224 -1.880865 7.060649 -1.79325 7.130118 -1.67322 
C 7.199588 -1.553189 7.218554 -1.410326 7.18281 -1.276327 
L 7.18281 -1.276327 
C 7.165106 -1.209806 7.134445 -1.147429 7.092589 -1.092779 
C 7.050733 -1.038129 6.998499 -0.992274 6.938889 -0.957848 
C 6.879279 -0.923422 6.813456 -0.901098 6.745202 -0.892157 
C 6.676949 -0.883217 6.607597 -0.887835 6.541131 -0.905746 
L 3.891253 -1.615561 
L 1.239492 -0.084604 
L 3.892718 1.447085 
L 6.541131 0.73727 
L 6.541131 0.73727 
C 6.674948 0.701466 6.817656 0.720237 6.937662 0.789429 
C 7.057669 0.858621 7.145413 0.972721 7.181471 1.10647 
L 7.181471 1.10647 
C 7.217274 1.240293 7.198497 1.383006 7.129297 1.503014 
C 7.060096 1.623021 6.945986 1.710762 6.812229 1.74681 
L 5.173293 2.186866 
L 6.496181 2.949771 
L 6.496181 2.949771 
C 6.555697 2.984183 6.607849 3.029991 6.649651 3.08457 
C 6.691452 3.13915 6.722088 3.201437 6.739803 3.267863 
C 6.757517 3.33429 6.761966 3.403561 6.752893 3.471707 
C 6.743821 3.539854 6.721404 3.605549 6.686927 3.665026 
L 6.686927 3.665026 
C 6.617458 3.784813 6.503196 3.87225 6.369416 3.907994 
C 6.235636 3.943739 6.092989 3.924946 5.973032 3.855772 
L 4.650144 3.091487 
L 5.08886 4.731783 
L 5.08886 4.731783 
C 5.124664 4.865606 5.105887 5.008319 5.036686 5.128326 
C 4.967486 5.248334 4.853376 5.336074 4.719619 5.372123 
L 4.719619 5.372123 
C 4.585619 5.407867 4.442757 5.3889 4.322726 5.319431 
C 4.202695 5.249961 4.115081 5.135537 4.07932 5.001542 
L 3.368166 2.351664 
L 0.717033 0.821063 
L 0.717033 3.884232 
L 2.657075 5.822893 
L 2.657075 5.822893 
C 2.70585 5.871495 2.744553 5.929252 2.770959 5.992843 
C 2.797366 6.056435 2.81096 6.124618 2.81096 6.193474 
C 2.81096 6.26233 2.797366 6.330514 2.770959 6.394105 
C 2.744553 6.457696 2.70585 6.515453 2.657075 6.564055 
L 2.657075 6.564055 
C 2.608473 6.61283 2.550716 6.651533 2.487125 6.67794 
C 2.423533 6.704346 2.35535 6.71794 2.286494 6.71794 
C 2.217638 6.71794 2.149454 6.704346 2.085863 6.67794 
C 2.022272 6.651533 1.964515 6.61283 1.915913 6.564055 
L 0.717033 5.365133 
L 0.717033 6.891026 
L 0.717033 6.891026 
C 0.717033 7.029722 0.661877 7.162879 0.563805 7.260952 
C 0.465732 7.359024 0.332575 7.41418 0.193879 7.41418 
L 0.193618 7.414054 
z
"/>
    </defs>
    <g clip-path="url(#pfe99a93271)">
     <use xlink:href="#m077c24e0cc" x="170.030318" y="79.295459" style="fill: #9e2096; fill-opacity: 0.7"/>
    </g>
   </g>
   <g id="patch_163">
    <path d="M 125.254844 13.699063 
C 110.694216 13.699063 96.275171 16.567189 82.822905 22.1393 
C 69.370638 27.711411 57.146763 35.879144 46.850844 46.175063 
C 36.554925 56.470982 28.387192 68.694857 22.815081 82.147124 
C 17.24297 95.59939 14.374844 110.018434 14.374844 124.579063 
C 14.374844 139.139691 17.24297 153.558735 22.815081 167.011001 
C 28.387192 180.463268 36.554925 192.687143 46.850844 202.983062 
C 57.146763 213.278981 69.370638 221.446714 82.822905 227.018825 
C 96.275171 232.590936 110.694216 235.459063 125.254844 235.459063 
C 139.815472 235.459063 154.234516 232.590936 167.686783 227.018825 
C 181.139049 221.446714 193.362925 213.278981 203.658844 202.983062 
C 213.954763 192.687143 222.122495 180.463268 227.694606 167.011001 
C 233.266717 153.558735 236.134844 139.139691 236.134844 124.579063 
C 236.134844 110.018434 233.266717 95.59939 227.694606 82.147124 
C 222.122495 68.694857 213.954763 56.470982 203.658844 46.175063 
C 193.362925 35.879144 181.139049 27.711411 167.686783 22.1393 
C 154.234516 16.567189 139.815472 13.699063 125.254844 13.699063 
" style="fill: none; stroke: #000000; stroke-width: 0.8; stroke-linejoin: miter; stroke-linecap: square"/>
   </g>
  </g>
 </g>
 <defs>
  <clipPath id="pfe99a93271">
   <path d="M 236.134844 124.579063 
C 236.134844 110.018434 233.266717 95.59939 227.694606 82.147124 
C 222.122495 68.694857 213.954763 56.470982 203.658844 46.175063 
C 193.362925 35.879144 181.139049 27.711411 167.686783 22.1393 
C 154.234516 16.567189 139.815472 13.699063 125.254844 13.699063 
C 110.694216 13.699063 96.275171 16.567189 82.822905 22.1393 
C 69.370638 27.711411 57.146763 35.879144 46.850844 46.175063 
C 36.554925 56.470982 28.387192 68.694857 22.815081 82.147124 
C 17.24297 95.59939 14.374844 110.018434 14.374844 124.579062 
C 14.374844 139.139691 17.24297 153.558735 22.815081 167.011001 
C 28.387192 180.463268 36.554925 192.687143 46.850844 202.983062 
C 57.146763 213.278981 69.370638 221.446714 82.822905 227.018825 
C 96.275171 232.590936 110.694216 235.459063 125.254844 235.459063 
C 139.815472 235.459063 154.234516 232.590936 167.686783 227.018825 
C 181.139049 221.446714 193.362925 213.278981 203.658844 202.983062 
C 213.954763 192.687143 222.122495 180.463268 227.694606 167.011001 
C 233.266717 153.558735 236.134844 139.139691 236.134844 124.579063 
M 125.254844 124.579063 
C 125.254844 124.579063 125.254844 124.579063 125.254844 124.579063 
C 125.254844 124.579063 125.254844 124.579063 125.254844 124.579063 
C 125.254844 124.579063 125.254844 124.579063 125.254844 124.579063 
C 125.254844 124.579063 125.254844 124.579063 125.254844 124.579063 
C 125.254844 124.579063 125.254844 124.579063 125.254844 124.579063 
C 125.254844 124.579063 125.254844 124.579063 125.254844 124.579063 
C 125.254844 124.579063 125.254844 124.579063 125.254844 124.579063 
C 125.254844 124.579063 125.254844 124.579063 125.254844 124.579063 
C 125.254844 124.579063 125.254844 124.579063 125.254844 124.579063 
C 125.254844 124.579063 125.254844 124.579063 125.254844 124.579063 
C 125.254844 124.579063 125.254844 124.579063 125.254844 124.579063 
C 125.254844 124.579063 125.254844 124.579063 125.254844 124.579063 
C 125.254844 124.579063 125.254844 124.579063 125.254844 124.579063 
C 125.254844 124.579063 125.254844 124.579063 125.254844 124.579063 
C 125.254844 124.579063 125.254844 124.579063 125.254844 124.579063 
C 125.254844 124.579063 125.254844 124.579063 125.254844 124.579063 
z
"/>
  </clipPath>
 </defs>
</svg>
