<?xml version="1.0" encoding="utf-8" standalone="no"?>
<!DOCTYPE svg PUBLIC "-//W3C//DTD SVG 1.1//EN"
  "http://www.w3.org/Graphics/SVG/1.1/DTD/svg11.dtd">
<svg xmlns:xlink="http://www.w3.org/1999/xlink" width="248.410469pt" height="249.158125pt" viewBox="0 0 248.410469 249.158125" xmlns="http://www.w3.org/2000/svg" version="1.1">
 <title>Ski Rose for Phoenix Mountain</title>
 <metadata>
  <rdf:RDF xmlns:dc="http://purl.org/dc/elements/1.1/" xmlns:cc="http://creativecommons.org/ns#" xmlns:rdf="http://www.w3.org/1999/02/22-rdf-syntax-ns#">
   <cc:Work>
    <dc:type rdf:resource="http://purl.org/dc/dcmitype/StillImage"/>
    <dc:title>Ski Rose for Phoenix Mountain</dc:title>
    <dc:date>2026-05-30T10:50:01.701370</dc:date>
    <dc:description>A 32-bin stacked histogram of downhill ski run orientations colored by difficulty.</dc:description>
    <dc:format>image/svg+xml</dc:format>
    <dc:source>https://openskimap.org/?obj=206531d25c87671bf4c2705b9c8f968a4d35ed94</dc:source>
    <dc:creator>
     <cc:Agent>
      <dc:title>https://github.com/dhimmel/openskistats</dc:title>
     </cc:Agent>
    </dc:creator>
    <dc:rights>
     <cc:Agent>
      <dc:title>https://creativecommons.org/licenses/by/4.0/</dc:title>
     </cc:Agent>
    </dc:rights>
   </cc:Work>
  </rdf:RDF>
 </metadata>
 <defs>
  <style type="text/css">*{stroke-linejoin: round; stroke-linecap: butt}</style>
 </defs>
 <g id="figure_1">
  <g id="patch_1">
   <path d="M 0 249.158125 
L 248.410469 249.158125 
L 248.410469 0 
L 0 0 
z
" style="fill: #ffffff"/>
  </g>
  <g id="axes_1">
   <g id="patch_2">
    <path d="M 236.134844 124.579063 
C 236.134844 110.018434 233.266717 95.59939 227.694606 82.147124 
C 222.122495 68.694857 213.954763 56.470982 203.658844 46.175063 
C 193.362925 35.879144 181.139049 27.711411 167.686783 22.1393 
C 154.234516 16.567189 139.815472 13.699063 125.254844 13.699063 
C 110.694216 13.699063 96.275171 16.567189 82.822905 22.1393 
C 69.370638 27.711411 57.146763 35.879144 46.850844 46.175063 
C 36.554925 56.470982 28.387192 68.694857 22.815081 82.147124 
C 17.24297 95.59939 14.374844 110.018434 14.374844 124.579062 
C 14.374844 139.139691 17.24297 153.558735 22.815081 167.011001 
C 28.387192 180.463268 36.554925 192.687143 46.850844 202.983062 
C 57.146763 213.278981 69.370638 221.446714 82.822905 227.018825 
C 96.275171 232.590936 110.694216 235.459063 125.254844 235.459063 
C 139.815472 235.459063 154.234516 232.590936 167.686783 227.018825 
C 181.139049 221.446714 193.362925 213.278981 203.658844 202.983062 
C 213.954763 192.687143 222.122495 180.463268 227.694606 167.011001 
C 233.266717 153.558735 236.134844 139.139691 236.134844 124.579063 
M 125.254844 124.579063 
C 125.254844 124.579063 125.254844 124.579063 125.254844 124.579063 
C 125.254844 124.579063 125.254844 124.579063 125.254844 124.579063 
C 125.254844 124.579063 125.254844 124.579063 125.254844 124.579063 
C 125.254844 124.579063 125.254844 124.579063 125.254844 124.579063 
C 125.254844 124.579063 125.254844 124.579063 125.254844 124.579063 
C 125.254844 124.579063 125.254844 124.579063 125.254844 124.579063 
C 125.254844 124.579063 125.254844 124.579063 125.254844 124.579063 
C 125.254844 124.579063 125.254844 124.579063 125.254844 124.579063 
C 125.254844 124.579063 125.254844 124.579063 125.254844 124.579063 
C 125.254844 124.579063 125.254844 124.579063 125.254844 124.579063 
C 125.254844 124.579063 125.254844 124.579063 125.254844 124.579063 
C 125.254844 124.579063 125.254844 124.579063 125.254844 124.579063 
C 125.254844 124.579063 125.254844 124.579063 125.254844 124.579063 
C 125.254844 124.579063 125.254844 124.579063 125.254844 124.579063 
C 125.254844 124.579063 125.254844 124.579063 125.254844 124.579063 
C 125.254844 124.579063 125.254844 124.579063 125.254844 124.579063 
z
" style="fill: #ffffff"/>
   </g>
   <g id="FillBetweenPolyCollection_1">
    <defs>
     <path id="m3c8f1026e4" d="M 235.03977 -139.032522 
L 235.03977 -139.032522 
L 234.399537 -137.01453 
L 233.502291 -135.002106 
L 232.723802 -133.037053 
L 231.893003 -131.101332 
L 230.820031 -129.188138 
L 229.899814 -127.319287 
L 228.941529 -125.483922 
L 227.947665 -123.682876 
L 226.720882 -121.922081 
L 225.661777 -120.195201 
L 224.572883 -118.504511 
L 223.455742 -116.850484 
L 222.113095 -115.252674 
L 220.944404 -113.676614 
L 219.75188 -112.138292 
L 218.536876 -110.637969 
L 217.300729 -109.175864 
L 216.044762 -107.752146 
L 214.770287 -106.36694 
L 213.478606 -105.020325 
L 212.171013 -103.712336 
L 210.848795 -102.442962 
L 209.51323 -101.212144 
L 208.16559 -100.019781 
L 206.807136 -98.865724 
L 205.439123 -97.749778 
L 204.062794 -96.671704 
L 202.855769 -95.565265 
L 201.464055 -94.559456 
L 200.067578 -93.590613 
L 198.83654 -92.58483 
L 197.431354 -91.686332 
L 196.188527 -90.745431 
L 194.778882 -89.915656 
L 193.528082 -89.038264 
L 192.273289 -88.191016 
L 190.86303 -87.459737 
L 189.605679 -86.673524 
L 188.34685 -85.916231 
L 187.087323 -85.187429 
L 185.827861 -84.486657 
L 184.569209 -83.813429 
L 183.312091 -83.167231 
L 182.057211 -82.547522 
L 180.80525 -81.953736 
L 179.556869 -81.385281 
L 178.312701 -80.84154 
L 177.073357 -80.321871 
L 175.83942 -79.82561 
L 174.720547 -79.252096 
L 173.495412 -78.800472 
L 172.277239 -78.370284 
L 171.165052 -77.860496 
L 169.958468 -77.471272 
L 168.760152 -77.10135 
L 167.658347 -76.650621 
L 166.473927 -76.317716 
L 165.379698 -75.903723 
L 164.288089 -75.507548 
L 163.124931 -75.225803 
L 162.042578 -74.863293 
L 160.896032 -74.61196 
L 159.823803 -74.280915 
L 158.755337 -73.965338 
L 157.690809 -73.664796 
L 156.575705 -73.468062 
L 155.522498 -73.194783 
L 154.473582 -72.935117 
L 153.429048 -72.688633 
L 152.388964 -72.454903 
L 151.353378 -72.233501 
L 150.32232 -72.024005 
L 149.2958 -71.825999 
L 148.273806 -71.639074 
L 147.256308 -71.462829 
L 146.243258 -71.296868 
L 145.234589 -71.140807 
L 144.230213 -70.994273 
L 143.230027 -70.856902 
L 142.23391 -70.728343 
L 141.241724 -70.60826 
L 140.253313 -70.496329 
L 139.268508 -70.392242 
L 138.287125 -70.295706 
L 137.308963 -70.206445 
L 136.33381 -70.124202 
L 135.361443 -70.048735 
L 134.396954 -69.947968 
L 133.428336 -69.88895 
L 132.461885 -69.83615 
L 131.497337 -69.789403 
L 130.53442 -69.748563 
L 129.572856 -69.713509 
L 128.613052 -69.672835 
L 127.652977 -69.652792 
L 126.693518 -69.638309 
L 125.734383 -69.629345 
L 124.775306 -69.629441 
L 123.816187 -69.638975 
L 122.857088 -69.661416 
L 121.897425 -69.685754 
L 120.937003 -69.715694 
L 119.975532 -69.751315 
L 119.012728 -69.792717 
L 118.048313 -69.840025 
L 117.086218 -69.921512 
L 116.118868 -69.984622 
L 115.149236 -70.054081 
L 114.177075 -70.130092 
L 113.20215 -70.212874 
L 112.224234 -70.302668 
L 111.243116 -70.399731 
L 110.258596 -70.504339 
L 109.28637 -70.6704 
L 108.296479 -70.794 
L 107.302773 -70.92598 
L 106.305113 -71.066674 
L 105.303372 -71.216428 
L 104.297443 -71.375601 
L 103.287235 -71.544565 
L 102.272678 -71.723699 
L 101.253717 -71.913396 
L 100.230319 -72.114055 
L 99.202468 -72.326081 
L 98.17017 -72.549889 
L 97.088228 -72.702609 
L 96.044229 -72.949476 
L 94.995866 -73.209513 
L 93.943229 -73.48315 
L 92.886424 -73.770822 
L 91.825583 -74.07296 
L 90.697051 -74.297163 
L 89.62546 -74.628508 
L 88.550313 -74.975736 
L 87.398008 -75.243073 
L 86.313199 -75.622706 
L 85.225519 -76.019609 
L 84.051256 -76.33586 
L 82.955437 -76.768281 
L 81.766664 -77.120042 
L 80.663951 -77.590066 
L 79.462022 -77.979948 
L 78.25224 -78.389733 
L 77.140333 -78.920096 
L 75.919849 -79.371868 
L 74.692895 -79.845629 
L 73.575671 -80.440879 
L 72.340938 -80.960205 
L 71.101359 -81.503436 
L 69.85754 -82.071216 
L 68.610113 -82.664167 
L 67.359734 -83.282882 
L 66.10708 -83.927931 
L 64.852854 -84.599857 
L 63.597775 -85.299178 
L 62.342587 -86.026382 
L 60.939298 -86.694311 
L 59.683227 -87.480427 
L 58.429453 -88.295836 
L 57.178788 -89.140911 
L 55.77159 -89.93599 
L 54.526997 -90.84361 
L 53.122139 -91.706295 
L 51.887372 -92.677978 
L 50.489043 -93.610054 
L 49.267968 -94.647036 
L 47.88047 -95.64997 
L 46.020846 -96.520832 
L 44.644139 -97.607098 
L 43.275918 -98.731207 
L 41.917426 -99.893395 
L 40.756166 -101.145505 
L 39.422656 -102.38135 
L 38.102541 -103.655646 
L 36.797099 -104.968453 
L 35.507616 -106.319783 
L 34.235385 -107.709603 
L 32.98171 -109.137836 
L 31.747903 -110.604357 
L 30.338467 -112.083084 
L 29.147649 -113.629031 
L 27.980863 -115.212643 
L 26.839499 -116.833607 
L 25.724986 -118.491556 
L 24.439854 -120.177385 
L 23.383674 -121.911472 
L 22.359276 -123.681106 
L 21.368539 -125.485665 
L 20.216906 -127.329578 
L 19.301877 -129.205069 
L 18.429175 -131.1128 
L 17.414203 -133.066305 
L 16.646772 -135.03683 
L 15.943472 -137.03352 
L 15.158938 -137.122906 
L 15.158938 -137.122906 
L 14.951583 -135.200059 
L 14.866216 -133.266836 
L 14.641882 -131.344441 
L 14.533332 -129.413268 
L 14.457272 -127.480399 
L 14.413531 -125.54636 
L 14.401876 -123.611663 
L 14.515603 -121.679253 
L 14.489572 -119.742946 
L 14.652277 -117.81432 
L 14.863738 -115.891094 
L 14.935857 -113.956552 
L 15.115221 -112.030238 
L 15.325043 -110.10653 
L 15.664857 -108.200729 
L 15.9363 -106.285412 
L 16.237972 -104.37398 
L 16.672129 -102.48766 
L 17.035231 -100.587352 
L 17.488661 -98.706691 
L 18.015264 -96.845022 
L 18.411961 -94.948909 
L 18.953322 -93.091117 
L 19.573013 -91.257709 
L 20.119827 -89.401378 
L 20.801158 -87.590072 
L 21.410345 -85.753195 
L 22.099741 -83.945187 
L 22.872218 -82.170791 
L 23.575361 -80.367565 
L 24.454846 -78.641857 
L 25.221615 -76.86566 
L 26.068953 -75.126802 
L 26.904993 -73.381371 
L 27.82673 -71.679913 
L 28.790288 -70.002043 
L 29.740087 -68.316571 
L 30.727857 -66.65285 
L 31.753971 -65.012437 
L 32.796251 -63.382055 
L 33.884036 -61.781646 
L 34.986446 -60.19124 
L 36.125335 -58.626695 
L 37.494118 -57.237889 
L 39.232887 -56.154108 
L 41.047554 -55.16393 
L 42.821267 -54.174137 
L 44.659067 -53.273942 
L 46.448064 -52.365953 
L 48.240419 -51.495102 
L 50.034052 -50.659796 
L 51.827332 -49.858683 
L 53.61894 -49.09057 
L 55.407784 -48.354373 
L 57.19294 -47.649074 
L 58.973609 -46.973707 
L 60.749097 -46.327334 
L 62.518794 -45.709038 
L 64.244825 -45.069258 
L 66.003066 -44.504881 
L 67.72001 -43.918201 
L 69.465126 -43.40452 
L 71.171484 -42.868019 
L 72.872905 -42.355889 
L 74.596778 -41.912612 
L 76.285871 -41.446243 
L 77.969382 -41.002292 
L 79.646943 -40.579759 
L 81.318644 -40.178409 
L 82.984125 -39.797118 
L 84.643592 -39.435802 
L 86.296699 -39.093216 
L 87.943757 -38.769438 
L 89.584444 -38.463101 
L 91.219164 -38.174455 
L 92.835157 -37.868673 
L 94.4588 -37.613716 
L 96.076752 -37.374937 
L 97.67958 -37.1215 
L 99.287073 -36.913337 
L 100.889368 -36.719996 
L 102.479934 -36.515022 
L 104.072812 -36.349551 
L 105.656234 -36.175445 
L 107.240929 -36.037841 
L 108.817916 -35.893339 
L 110.392295 -35.763973 
L 111.966478 -35.664534 
L 113.535675 -35.563135 
L 115.104291 -35.488804 
L 116.669278 -35.414554 
L 118.232714 -35.354439 
L 119.7952 -35.314672 
L 121.355996 -35.280779 
L 122.91596 -35.260701 
L 124.475339 -35.256672 
L 126.034357 -35.255705 
L 127.593729 -35.260623 
L 129.15371 -35.280353 
L 130.714535 -35.3139 
L 132.277166 -35.352004 
L 133.840677 -35.411779 
L 135.405751 -35.485692 
L 136.974306 -35.56091 
L 138.543591 -35.661975 
L 140.115094 -35.777709 
L 141.692605 -35.888839 
L 143.269738 -36.033028 
L 144.854325 -36.171514 
L 146.437893 -36.345312 
L 148.031252 -36.509227 
L 149.622006 -36.713914 
L 151.224156 -36.908133 
L 152.822638 -37.145189 
L 154.435268 -37.367968 
L 156.053047 -37.607621 
L 157.66444 -37.895661 
L 159.293585 -38.166683 
L 160.928103 -38.456196 
L 162.56953 -38.761159 
L 164.216368 -39.085799 
L 165.870265 -39.427062 
L 167.529492 -39.789235 
L 169.195808 -40.169255 
L 170.867252 -40.571457 
L 172.54569 -40.992774 
L 174.228925 -41.437571 
L 175.918934 -41.902782 
L 177.613276 -42.392787 
L 179.344266 -42.85886 
L 181.051589 -43.394294 
L 182.797056 -43.907856 
L 184.513667 -44.495359 
L 186.272252 -45.059628 
L 187.999299 -45.698471 
L 189.769349 -46.31671 
L 191.545188 -46.963042 
L 193.326204 -47.638386 
L 195.065239 -48.394384 
L 196.852788 -49.130572 
L 198.643136 -49.898594 
L 200.486409 -50.64921 
L 202.280336 -51.4846 
L 204.072959 -52.355566 
L 205.862187 -53.263709 
L 207.699428 -54.164735 
L 209.473248 -55.154767 
L 211.288623 -56.144704 
L 213.027325 -57.228869 
L 214.377329 -58.631893 
L 215.518217 -60.194824 
L 216.626808 -61.780851 
L 217.67994 -63.404226 
L 218.75233 -65.014595 
L 219.701648 -66.701986 
L 220.703804 -68.355328 
L 221.655872 -70.037985 
L 222.690735 -71.67569 
L 223.603947 -73.38176 
L 224.436994 -75.128666 
L 225.318911 -76.850951 
L 226.083269 -78.628902 
L 226.860329 -80.39974 
L 227.67866 -82.153729 
L 228.369662 -83.961055 
L 229.058527 -85.768456 
L 229.762676 -87.570898 
L 230.346472 -89.415895 
L 231.002169 -91.237059 
L 231.455199 -93.121084 
L 232.00734 -94.973975 
L 232.53889 -96.833522 
L 233.028366 -98.704929 
L 233.470925 -100.588135 
L 233.881535 -102.478712 
L 234.251818 -104.377667 
L 234.584245 -106.283595 
L 234.882388 -108.195116 
L 235.137563 -110.112728 
L 235.353097 -112.034951 
L 235.529662 -113.960805 
L 235.683596 -115.888131 
L 235.786187 -117.818676 
L 236.025022 -119.742732 
L 236.073799 -121.677166 
L 236.06837 -123.612008 
L 236.027588 -125.545762 
L 235.973109 -127.478322 
L 235.86398 -129.408362 
L 235.915375 -131.347351 
L 235.739694 -133.274409 
L 235.531899 -135.197535 
L 235.292782 -137.116302 
L 235.03977 -139.032522 
z
" style="stroke: #ffee9c"/>
    </defs>
    <g clip-path="url(#p816303f199)">
     <use xlink:href="#m3c8f1026e4" x="0" y="249.158125" style="fill: #ffee9c; stroke: #ffee9c"/>
    </g>
   </g>
   <g id="matplotlib.axis_1">
    <g id="xtick_1">
     <g id="line2d_1">
      <path d="M 125.254844 124.579063 
L 125.254844 13.699063 
" clip-path="url(#p816303f199)" style="fill: none; stroke: #b0b0b0; stroke-width: 0.8; stroke-linecap: square"/>
     </g>
     <g id="text_1">
      <!-- N -->
      <g transform="translate(121.070469 7.958438) scale(0.1 -0.1)">
       <defs>
        <path id="DejaVuSans-Bold-4e" d="M 588 4666 
L 1931 4666 
L 3628 1466 
L 3628 4666 
L 4769 4666 
L 4769 0 
L 3425 0 
L 1728 3200 
L 1728 0 
L 588 0 
L 588 4666 
z
" transform="scale(0.015625)"/>
       </defs>
       <use xlink:href="#DejaVuSans-Bold-4e"/>
      </g>
     </g>
    </g>
    <g id="xtick_2">
     <g id="line2d_2">
      <path d="M 125.254844 124.579063 
L 203.658844 46.175063 
" clip-path="url(#p816303f199)" style="fill: none; stroke: #b0b0b0; stroke-width: 0.8; stroke-linecap: square"/>
     </g>
    </g>
    <g id="xtick_3">
     <g id="line2d_3">
      <path d="M 125.254844 124.579063 
L 236.134844 124.579063 
" clip-path="url(#p816303f199)" style="fill: none; stroke: #b0b0b0; stroke-width: 0.8; stroke-linecap: square"/>
     </g>
     <g id="text_2">
      <!-- E -->
      <g transform="translate(241.219219 127.338438) scale(0.1 -0.1)">
       <defs>
        <path id="DejaVuSans-Bold-45" d="M 588 4666 
L 3834 4666 
L 3834 3756 
L 1791 3756 
L 1791 2888 
L 3713 2888 
L 3713 1978 
L 1791 1978 
L 1791 909 
L 3903 909 
L 3903 0 
L 588 0 
L 588 4666 
z
" transform="scale(0.015625)"/>
       </defs>
       <use xlink:href="#DejaVuSans-Bold-45"/>
      </g>
     </g>
    </g>
    <g id="xtick_4">
     <g id="line2d_4">
      <path d="M 125.254844 124.579063 
L 203.658844 202.983062 
" clip-path="url(#p816303f199)" style="fill: none; stroke: #b0b0b0; stroke-width: 0.8; stroke-linecap: square"/>
     </g>
    </g>
    <g id="xtick_5">
     <g id="line2d_5">
      <path d="M 125.254844 124.579063 
L 125.254844 235.459063 
" clip-path="url(#p816303f199)" style="fill: none; stroke: #b0b0b0; stroke-width: 0.8; stroke-linecap: square"/>
     </g>
     <g id="text_3">
      <!-- S -->
      <g transform="translate(121.654062 246.718438) scale(0.1 -0.1)">
       <defs>
        <path id="DejaVuSans-Bold-53" d="M 3834 4519 
L 3834 3531 
Q 3450 3703 3084 3790 
Q 2719 3878 2394 3878 
Q 1963 3878 1756 3759 
Q 1550 3641 1550 3391 
Q 1550 3203 1689 3098 
Q 1828 2994 2194 2919 
L 2706 2816 
Q 3484 2659 3812 2340 
Q 4141 2022 4141 1434 
Q 4141 663 3683 286 
Q 3225 -91 2284 -91 
Q 1841 -91 1394 -6 
Q 947 78 500 244 
L 500 1259 
Q 947 1022 1364 901 
Q 1781 781 2169 781 
Q 2563 781 2772 912 
Q 2981 1044 2981 1288 
Q 2981 1506 2839 1625 
Q 2697 1744 2272 1838 
L 1806 1941 
Q 1106 2091 782 2419 
Q 459 2747 459 3303 
Q 459 4000 909 4375 
Q 1359 4750 2203 4750 
Q 2588 4750 2994 4692 
Q 3400 4634 3834 4519 
z
" transform="scale(0.015625)"/>
       </defs>
       <use xlink:href="#DejaVuSans-Bold-53"/>
      </g>
     </g>
    </g>
    <g id="xtick_6">
     <g id="line2d_6">
      <path d="M 125.254844 124.579063 
L 46.850844 202.983062 
" clip-path="url(#p816303f199)" style="fill: none; stroke: #b0b0b0; stroke-width: 0.8; stroke-linecap: square"/>
     </g>
    </g>
    <g id="xtick_7">
     <g id="line2d_7">
      <path d="M 125.254844 124.579063 
L 14.374844 124.579063 
" clip-path="url(#p816303f199)" style="fill: none; stroke: #b0b0b0; stroke-width: 0.8; stroke-linecap: square"/>
     </g>
     <g id="text_4">
      <!-- W -->
      <g transform="translate(0.36 127.338438) scale(0.1 -0.1)">
       <defs>
        <path id="DejaVuSans-Bold-57" d="M 191 4666 
L 1344 4666 
L 2150 1275 
L 2950 4666 
L 4109 4666 
L 4909 1275 
L 5716 4666 
L 6859 4666 
L 5759 0 
L 4372 0 
L 3525 3547 
L 2688 0 
L 1300 0 
L 191 4666 
z
" transform="scale(0.015625)"/>
       </defs>
       <use xlink:href="#DejaVuSans-Bold-57"/>
      </g>
     </g>
    </g>
    <g id="xtick_8">
     <g id="line2d_8">
      <path d="M 125.254844 124.579063 
L 46.850844 46.175063 
" clip-path="url(#p816303f199)" style="fill: none; stroke: #b0b0b0; stroke-width: 0.8; stroke-linecap: square"/>
     </g>
    </g>
   </g>
   <g id="matplotlib.axis_2"/>
   <g id="patch_3">
    <path d="M 125.254844 124.579063 
C 125.254844 124.579063 125.254844 124.579063 125.254844 124.579063 
C 125.254844 124.579063 125.254844 124.579063 125.254844 124.579063 
L 125.254844 124.579063 
C 125.254844 124.579063 125.254844 124.579063 125.254844 124.579063 
C 125.254844 124.579063 125.254844 124.579063 125.254844 124.579063 
z
" clip-path="url(#p816303f199)" style="fill: #d9d9d9"/>
   </g>
   <g id="patch_4">
    <path d="M 125.254844 124.579063 
C 125.254844 124.579063 125.254844 124.579063 125.254844 124.579063 
C 125.254844 124.579063 125.254844 124.579063 125.254844 124.579063 
L 125.254844 124.579063 
C 125.254844 124.579063 125.254844 124.579063 125.254844 124.579063 
C 125.254844 124.579063 125.254844 124.579063 125.254844 124.579063 
z
" clip-path="url(#p816303f199)" style="fill: #d9d9d9"/>
   </g>
   <g id="patch_5">
    <path d="M 125.254844 124.579063 
C 125.254844 124.579063 125.254844 124.579063 125.254844 124.579063 
C 125.254844 124.579063 125.254844 124.579063 125.254844 124.579063 
L 125.254844 124.579063 
C 125.254844 124.579063 125.254844 124.579063 125.254844 124.579063 
C 125.254844 124.579063 125.254844 124.579063 125.254844 124.579063 
z
" clip-path="url(#p816303f199)" style="fill: #d9d9d9"/>
   </g>
   <g id="patch_6">
    <path d="M 125.254844 124.579063 
C 125.254844 124.579063 125.254844 124.579063 125.254844 124.579063 
C 125.254844 124.579063 125.254844 124.579063 125.254844 124.579063 
L 125.254844 124.579063 
C 125.254844 124.579063 125.254844 124.579063 125.254844 124.579063 
C 125.254844 124.579063 125.254844 124.579063 125.254844 124.579063 
z
" clip-path="url(#p816303f199)" style="fill: #d9d9d9"/>
   </g>
   <g id="patch_7">
    <path d="M 125.254844 124.579063 
C 125.254844 124.579063 125.254844 124.579063 125.254844 124.579063 
C 125.254844 124.579063 125.254844 124.579063 125.254844 124.579063 
L 125.254844 124.579063 
C 125.254844 124.579063 125.254844 124.579063 125.254844 124.579063 
C 125.254844 124.579063 125.254844 124.579063 125.254844 124.579063 
z
" clip-path="url(#p816303f199)" style="fill: #d9d9d9"/>
   </g>
   <g id="patch_8">
    <path d="M 125.254844 124.579063 
C 125.254844 124.579063 125.254844 124.579063 125.254844 124.579063 
C 125.254844 124.579063 125.254844 124.579063 125.254844 124.579063 
L 125.254844 124.579063 
C 125.254844 124.579063 125.254844 124.579063 125.254844 124.579063 
C 125.254844 124.579063 125.254844 124.579063 125.254844 124.579063 
z
" clip-path="url(#p816303f199)" style="fill: #d9d9d9"/>
   </g>
   <g id="patch_9">
    <path d="M 125.254844 124.579063 
C 125.254844 124.579063 125.254844 124.579063 125.254844 124.579063 
C 125.254844 124.579063 125.254844 124.579063 125.254844 124.579063 
L 125.254844 124.579063 
C 125.254844 124.579063 125.254844 124.579063 125.254844 124.579063 
C 125.254844 124.579063 125.254844 124.579063 125.254844 124.579063 
z
" clip-path="url(#p816303f199)" style="fill: #d9d9d9"/>
   </g>
   <g id="patch_10">
    <path d="M 125.254844 124.579063 
C 125.254844 124.579063 125.254844 124.579063 125.254844 124.579063 
C 125.254844 124.579063 125.254844 124.579063 125.254844 124.579063 
L 125.254844 124.579063 
C 125.254844 124.579063 125.254844 124.579063 125.254844 124.579063 
C 125.254844 124.579063 125.254844 124.579063 125.254844 124.579063 
z
" clip-path="url(#p816303f199)" style="fill: #d9d9d9"/>
   </g>
   <g id="patch_11">
    <path d="M 125.254844 124.579063 
C 125.254844 124.579063 125.254844 124.579063 125.254844 124.579063 
C 125.254844 124.579063 125.254844 124.579063 125.254844 124.579063 
L 125.254844 124.579063 
C 125.254844 124.579063 125.254844 124.579063 125.254844 124.579063 
C 125.254844 124.579063 125.254844 124.579063 125.254844 124.579063 
z
" clip-path="url(#p816303f199)" style="fill: #d9d9d9"/>
   </g>
   <g id="patch_12">
    <path d="M 125.254844 124.579063 
C 125.254844 124.579063 125.254844 124.579063 125.254844 124.579063 
C 125.254844 124.579063 125.254844 124.579063 125.254844 124.579063 
L 125.254844 124.579063 
C 125.254844 124.579063 125.254844 124.579063 125.254844 124.579063 
C 125.254844 124.579063 125.254844 124.579063 125.254844 124.579063 
z
" clip-path="url(#p816303f199)" style="fill: #d9d9d9"/>
   </g>
   <g id="patch_13">
    <path d="M 125.254844 124.579063 
C 125.254844 124.579063 125.254844 124.579063 125.254844 124.579063 
C 125.254844 124.579063 125.254844 124.579063 125.254844 124.579063 
L 125.254844 124.579063 
C 125.254844 124.579063 125.254844 124.579063 125.254844 124.579063 
C 125.254844 124.579063 125.254844 124.579063 125.254844 124.579063 
z
" clip-path="url(#p816303f199)" style="fill: #d9d9d9"/>
   </g>
   <g id="patch_14">
    <path d="M 125.254844 124.579063 
C 125.254844 124.579063 125.254844 124.579063 125.254844 124.579063 
C 125.254844 124.579063 125.254844 124.579063 125.254844 124.579063 
L 125.254844 124.579063 
C 125.254844 124.579063 125.254844 124.579063 125.254844 124.579063 
C 125.254844 124.579063 125.254844 124.579063 125.254844 124.579063 
z
" clip-path="url(#p816303f199)" style="fill: #d9d9d9"/>
   </g>
   <g id="patch_15">
    <path d="M 125.254844 124.579063 
C 125.254844 124.579063 125.254844 124.579063 125.254844 124.579063 
C 125.254844 124.579063 125.254844 124.579063 125.254844 124.579063 
L 125.254844 124.579063 
C 125.254844 124.579063 125.254844 124.579063 125.254844 124.579063 
C 125.254844 124.579063 125.254844 124.579063 125.254844 124.579063 
z
" clip-path="url(#p816303f199)" style="fill: #d9d9d9"/>
   </g>
   <g id="patch_16">
    <path d="M 125.254844 124.579063 
C 125.254844 124.579063 125.254844 124.579063 125.254844 124.579063 
C 125.254844 124.579063 125.254844 124.579063 125.254844 124.579063 
L 125.254844 124.579063 
C 125.254844 124.579063 125.254844 124.579063 125.254844 124.579063 
C 125.254844 124.579063 125.254844 124.579063 125.254844 124.579063 
z
" clip-path="url(#p816303f199)" style="fill: #d9d9d9"/>
   </g>
   <g id="patch_17">
    <path d="M 125.254844 124.579063 
C 125.254844 124.579063 125.254844 124.579063 125.254844 124.579063 
C 125.254844 124.579063 125.254844 124.579063 125.254844 124.579063 
L 125.254844 124.579063 
C 125.254844 124.579063 125.254844 124.579063 125.254844 124.579063 
C 125.254844 124.579063 125.254844 124.579063 125.254844 124.579063 
z
" clip-path="url(#p816303f199)" style="fill: #d9d9d9"/>
   </g>
   <g id="patch_18">
    <path d="M 125.254844 124.579063 
C 125.254844 124.579063 125.254844 124.579063 125.254844 124.579063 
C 125.254844 124.579063 125.254844 124.579063 125.254844 124.579063 
L 125.254844 124.579063 
C 125.254844 124.579063 125.254844 124.579063 125.254844 124.579063 
C 125.254844 124.579063 125.254844 124.579063 125.254844 124.579063 
z
" clip-path="url(#p816303f199)" style="fill: #d9d9d9"/>
   </g>
   <g id="patch_19">
    <path d="M 125.254844 124.579063 
C 125.254844 124.579063 125.254844 124.579063 125.254844 124.579063 
C 125.254844 124.579063 125.254844 124.579063 125.254844 124.579063 
L 125.254844 124.579063 
C 125.254844 124.579063 125.254844 124.579063 125.254844 124.579063 
C 125.254844 124.579063 125.254844 124.579063 125.254844 124.579063 
z
" clip-path="url(#p816303f199)" style="fill: #d9d9d9"/>
   </g>
   <g id="patch_20">
    <path d="M 125.254844 124.579063 
C 125.254844 124.579063 125.254844 124.579063 125.254844 124.579063 
C 125.254844 124.579063 125.254844 124.579063 125.254844 124.579063 
L 125.254844 124.579063 
C 125.254844 124.579063 125.254844 124.579063 125.254844 124.579063 
C 125.254844 124.579063 125.254844 124.579063 125.254844 124.579063 
z
" clip-path="url(#p816303f199)" style="fill: #d9d9d9"/>
   </g>
   <g id="patch_21">
    <path d="M 125.254844 124.579063 
C 125.254844 124.579063 125.254844 124.579063 125.254844 124.579063 
C 125.254844 124.579063 125.254844 124.579063 125.254844 124.579063 
L 125.254844 124.579063 
C 125.254844 124.579063 125.254844 124.579063 125.254844 124.579063 
C 125.254844 124.579063 125.254844 124.579063 125.254844 124.579063 
z
" clip-path="url(#p816303f199)" style="fill: #d9d9d9"/>
   </g>
   <g id="patch_22">
    <path d="M 125.254844 124.579063 
C 125.254844 124.579063 125.254844 124.579063 125.254844 124.579063 
C 125.254844 124.579063 125.254844 124.579063 125.254844 124.579063 
L 125.254844 124.579063 
C 125.254844 124.579063 125.254844 124.579063 125.254844 124.579063 
C 125.254844 124.579063 125.254844 124.579063 125.254844 124.579063 
z
" clip-path="url(#p816303f199)" style="fill: #d9d9d9"/>
   </g>
   <g id="patch_23">
    <path d="M 125.254844 124.579063 
C 125.254844 124.579063 125.254844 124.579063 125.254844 124.579063 
C 125.254844 124.579063 125.254844 124.579063 125.254844 124.579063 
L 125.254844 124.579063 
C 125.254844 124.579063 125.254844 124.579063 125.254844 124.579063 
C 125.254844 124.579063 125.254844 124.579063 125.254844 124.579063 
z
" clip-path="url(#p816303f199)" style="fill: #d9d9d9"/>
   </g>
   <g id="patch_24">
    <path d="M 125.254844 124.579063 
C 125.254844 124.579063 125.254844 124.579063 125.254844 124.579063 
C 125.254844 124.579063 125.254844 124.579063 125.254844 124.579063 
L 125.254844 124.579063 
C 125.254844 124.579063 125.254844 124.579063 125.254844 124.579063 
C 125.254844 124.579063 125.254844 124.579063 125.254844 124.579063 
z
" clip-path="url(#p816303f199)" style="fill: #d9d9d9"/>
   </g>
   <g id="patch_25">
    <path d="M 125.254844 124.579063 
C 125.254844 124.579063 125.254844 124.579063 125.254844 124.579063 
C 125.254844 124.579063 125.254844 124.579063 125.254844 124.579063 
L 125.254844 124.579063 
C 125.254844 124.579063 125.254844 124.579063 125.254844 124.579063 
C 125.254844 124.579063 125.254844 124.579063 125.254844 124.579063 
z
" clip-path="url(#p816303f199)" style="fill: #d9d9d9"/>
   </g>
   <g id="patch_26">
    <path d="M 125.254844 124.579063 
C 125.254844 124.579063 125.254844 124.579063 125.254844 124.579063 
C 125.254844 124.579063 125.254844 124.579063 125.254844 124.579063 
L 125.254844 124.579063 
C 125.254844 124.579063 125.254844 124.579063 125.254844 124.579063 
C 125.254844 124.579063 125.254844 124.579063 125.254844 124.579063 
z
" clip-path="url(#p816303f199)" style="fill: #d9d9d9"/>
   </g>
   <g id="patch_27">
    <path d="M 125.254844 124.579063 
C 125.254844 124.579063 125.254844 124.579063 125.254844 124.579063 
C 125.254844 124.579063 125.254844 124.579063 125.254844 124.579063 
L 125.254844 124.579063 
C 125.254844 124.579063 125.254844 124.579063 125.254844 124.579063 
C 125.254844 124.579063 125.254844 124.579063 125.254844 124.579063 
z
" clip-path="url(#p816303f199)" style="fill: #d9d9d9"/>
   </g>
   <g id="patch_28">
    <path d="M 125.254844 124.579063 
C 125.254844 124.579063 125.254844 124.579063 125.254844 124.579063 
C 125.254844 124.579063 125.254844 124.579063 125.254844 124.579063 
L 125.254844 124.579063 
C 125.254844 124.579063 125.254844 124.579063 125.254844 124.579063 
C 125.254844 124.579063 125.254844 124.579063 125.254844 124.579063 
z
" clip-path="url(#p816303f199)" style="fill: #d9d9d9"/>
   </g>
   <g id="patch_29">
    <path d="M 125.254844 124.579063 
C 125.254844 124.579063 125.254844 124.579063 125.254844 124.579063 
C 125.254844 124.579063 125.254844 124.579063 125.254844 124.579063 
L 125.254844 124.579063 
C 125.254844 124.579063 125.254844 124.579063 125.254844 124.579063 
C 125.254844 124.579063 125.254844 124.579063 125.254844 124.579063 
z
" clip-path="url(#p816303f199)" style="fill: #d9d9d9"/>
   </g>
   <g id="patch_30">
    <path d="M 125.254844 124.579063 
C 125.254844 124.579063 125.254844 124.579063 125.254844 124.579063 
C 125.254844 124.579063 125.254844 124.579063 125.254844 124.579063 
L 125.254844 124.579063 
C 125.254844 124.579063 125.254844 124.579063 125.254844 124.579063 
C 125.254844 124.579063 125.254844 124.579063 125.254844 124.579063 
z
" clip-path="url(#p816303f199)" style="fill: #d9d9d9"/>
   </g>
   <g id="patch_31">
    <path d="M 125.254844 124.579063 
C 125.254844 124.579063 125.254844 124.579063 125.254844 124.579063 
C 125.254844 124.579063 125.254844 124.579063 125.254844 124.579063 
L 125.254844 124.579063 
C 125.254844 124.579063 125.254844 124.579063 125.254844 124.579063 
C 125.254844 124.579063 125.254844 124.579063 125.254844 124.579063 
z
" clip-path="url(#p816303f199)" style="fill: #d9d9d9"/>
   </g>
   <g id="patch_32">
    <path d="M 125.254844 124.579063 
C 125.254844 124.579063 125.254844 124.579063 125.254844 124.579063 
C 125.254844 124.579063 125.254844 124.579063 125.254844 124.579063 
L 125.254844 124.579063 
C 125.254844 124.579063 125.254844 124.579063 125.254844 124.579063 
C 125.254844 124.579063 125.254844 124.579063 125.254844 124.579063 
z
" clip-path="url(#p816303f199)" style="fill: #d9d9d9"/>
   </g>
   <g id="patch_33">
    <path d="M 125.254844 124.579063 
C 125.254844 124.579063 125.254844 124.579063 125.254844 124.579063 
C 125.254844 124.579063 125.254844 124.579063 125.254844 124.579063 
L 125.254844 124.579063 
C 125.254844 124.579063 125.254844 124.579063 125.254844 124.579063 
C 125.254844 124.579063 125.254844 124.579063 125.254844 124.579063 
z
" clip-path="url(#p816303f199)" style="fill: #d9d9d9"/>
   </g>
   <g id="patch_34">
    <path d="M 125.254844 124.579063 
C 125.254844 124.579063 125.254844 124.579063 125.254844 124.579063 
C 125.254844 124.579063 125.254844 124.579063 125.254844 124.579063 
L 125.254844 124.579063 
C 125.254844 124.579063 125.254844 124.579063 125.254844 124.579063 
C 125.254844 124.579063 125.254844 124.579063 125.254844 124.579063 
z
" clip-path="url(#p816303f199)" style="fill: #d9d9d9"/>
   </g>
   <g id="patch_35">
    <path d="M 125.254844 124.579063 
C 125.254844 124.579063 125.254844 124.579063 125.254844 124.579063 
C 125.254844 124.579063 125.254844 124.579063 125.254844 124.579063 
L 128.690132 89.699996 
C 127.548488 89.587554 126.402012 89.531231 125.254844 89.531231 
C 124.107676 89.531231 122.961199 89.587554 121.819556 89.699996 
z
" clip-path="url(#p816303f199)" style="fill: #badbb8"/>
   </g>
   <g id="patch_36">
    <path d="M 125.254844 124.579063 
C 125.254844 124.579063 125.254844 124.579063 125.254844 124.579063 
C 125.254844 124.579063 125.254844 124.579063 125.254844 124.579063 
L 130.197159 108.286434 
C 129.663876 108.124665 129.122973 107.989176 128.576403 107.880456 
C 128.029833 107.771737 127.478254 107.689918 126.923659 107.635295 
z
" clip-path="url(#p816303f199)" style="fill: #badbb8"/>
   </g>
   <g id="patch_37">
    <path d="M 125.254844 124.579063 
C 125.254844 124.579063 125.254844 124.579063 125.254844 124.579063 
C 125.254844 124.579063 125.254844 124.579063 125.254844 124.579063 
L 142.018185 93.217057 
C 140.99166 92.668367 139.938814 92.170408 138.863451 91.724978 
C 137.788088 91.279548 136.691503 90.887184 135.577658 90.549303 
z
" clip-path="url(#p816303f199)" style="fill: #badbb8"/>
   </g>
   <g id="patch_38">
    <path d="M 125.254844 124.579063 
C 125.254844 124.579063 125.254844 124.579063 125.254844 124.579063 
C 125.254844 124.579063 125.254844 124.579063 125.254844 124.579063 
L 160.461869 81.679178 
C 159.057692 80.526799 157.597782 79.444057 156.087414 78.434861 
C 154.577045 77.425664 153.018038 76.491232 151.416024 75.634937 
z
" clip-path="url(#p816303f199)" style="fill: #badbb8"/>
   </g>
   <g id="patch_39">
    <path d="M 125.254844 124.579063 
C 125.254844 124.579063 125.254844 124.579063 125.254844 124.579063 
C 125.254844 124.579063 125.254844 124.579063 125.254844 124.579063 
L 134.561135 116.941586 
C 134.311149 116.636978 134.046359 116.344826 133.767719 116.066187 
C 133.48908 115.787548 133.196929 115.522757 132.89232 115.272771 
z
" clip-path="url(#p816303f199)" style="fill: #badbb8"/>
   </g>
   <g id="patch_40">
    <path d="M 125.254844 124.579063 
C 125.254844 124.579063 125.254844 124.579063 125.254844 124.579063 
C 125.254844 124.579063 125.254844 124.579063 125.254844 124.579063 
L 125.254844 124.579063 
C 125.254844 124.579063 125.254844 124.579063 125.254844 124.579063 
C 125.254844 124.579063 125.254844 124.579063 125.254844 124.579063 
z
" clip-path="url(#p816303f199)" style="fill: #badbb8"/>
   </g>
   <g id="patch_41">
    <path d="M 125.254844 124.579063 
C 125.254844 124.579063 125.254844 124.579063 125.254844 124.579063 
C 125.254844 124.579063 125.254844 124.579063 125.254844 124.579063 
L 125.254844 124.579063 
C 125.254844 124.579063 125.254844 124.579063 125.254844 124.579063 
C 125.254844 124.579063 125.254844 124.579063 125.254844 124.579063 
z
" clip-path="url(#p816303f199)" style="fill: #badbb8"/>
   </g>
   <g id="patch_42">
    <path d="M 125.254844 124.579063 
C 125.254844 124.579063 125.254844 124.579063 125.254844 124.579063 
C 125.254844 124.579063 125.254844 124.579063 125.254844 124.579063 
L 125.254844 124.579063 
C 125.254844 124.579063 125.254844 124.579063 125.254844 124.579063 
C 125.254844 124.579063 125.254844 124.579063 125.254844 124.579063 
z
" clip-path="url(#p816303f199)" style="fill: #badbb8"/>
   </g>
   <g id="patch_43">
    <path d="M 125.254844 124.579063 
C 125.254844 124.579063 125.254844 124.579063 125.254844 124.579063 
C 125.254844 124.579063 125.254844 124.579063 125.254844 124.579063 
L 125.254844 124.579063 
C 125.254844 124.579063 125.254844 124.579063 125.254844 124.579063 
C 125.254844 124.579063 125.254844 124.579063 125.254844 124.579063 
z
" clip-path="url(#p816303f199)" style="fill: #badbb8"/>
   </g>
   <g id="patch_44">
    <path d="M 125.254844 124.579063 
C 125.254844 124.579063 125.254844 124.579063 125.254844 124.579063 
C 125.254844 124.579063 125.254844 124.579063 125.254844 124.579063 
L 125.254844 124.579063 
C 125.254844 124.579063 125.254844 124.579063 125.254844 124.579063 
C 125.254844 124.579063 125.254844 124.579063 125.254844 124.579063 
z
" clip-path="url(#p816303f199)" style="fill: #badbb8"/>
   </g>
   <g id="patch_45">
    <path d="M 125.254844 124.579063 
C 125.254844 124.579063 125.254844 124.579063 125.254844 124.579063 
C 125.254844 124.579063 125.254844 124.579063 125.254844 124.579063 
L 125.254844 124.579063 
C 125.254844 124.579063 125.254844 124.579063 125.254844 124.579063 
C 125.254844 124.579063 125.254844 124.579063 125.254844 124.579063 
z
" clip-path="url(#p816303f199)" style="fill: #badbb8"/>
   </g>
   <g id="patch_46">
    <path d="M 125.254844 124.579063 
C 125.254844 124.579063 125.254844 124.579063 125.254844 124.579063 
C 125.254844 124.579063 125.254844 124.579063 125.254844 124.579063 
L 125.254844 124.579063 
C 125.254844 124.579063 125.254844 124.579063 125.254844 124.579063 
C 125.254844 124.579063 125.254844 124.579063 125.254844 124.579063 
z
" clip-path="url(#p816303f199)" style="fill: #badbb8"/>
   </g>
   <g id="patch_47">
    <path d="M 125.254844 124.579063 
C 125.254844 124.579063 125.254844 124.579063 125.254844 124.579063 
C 125.254844 124.579063 125.254844 124.579063 125.254844 124.579063 
L 125.254844 124.579063 
C 125.254844 124.579063 125.254844 124.579063 125.254844 124.579063 
C 125.254844 124.579063 125.254844 124.579063 125.254844 124.579063 
z
" clip-path="url(#p816303f199)" style="fill: #badbb8"/>
   </g>
   <g id="patch_48">
    <path d="M 125.254844 124.579063 
C 125.254844 124.579063 125.254844 124.579063 125.254844 124.579063 
C 125.254844 124.579063 125.254844 124.579063 125.254844 124.579063 
L 125.254844 124.579063 
C 125.254844 124.579063 125.254844 124.579063 125.254844 124.579063 
C 125.254844 124.579063 125.254844 124.579063 125.254844 124.579063 
z
" clip-path="url(#p816303f199)" style="fill: #badbb8"/>
   </g>
   <g id="patch_49">
    <path d="M 125.254844 124.579063 
C 125.254844 124.579063 125.254844 124.579063 125.254844 124.579063 
C 125.254844 124.579063 125.254844 124.579063 125.254844 124.579063 
L 125.254844 124.579063 
C 125.254844 124.579063 125.254844 124.579063 125.254844 124.579063 
C 125.254844 124.579063 125.254844 124.579063 125.254844 124.579063 
z
" clip-path="url(#p816303f199)" style="fill: #badbb8"/>
   </g>
   <g id="patch_50">
    <path d="M 125.254844 124.579063 
C 125.254844 124.579063 125.254844 124.579063 125.254844 124.579063 
C 125.254844 124.579063 125.254844 124.579063 125.254844 124.579063 
L 125.254844 124.579063 
C 125.254844 124.579063 125.254844 124.579063 125.254844 124.579063 
C 125.254844 124.579063 125.254844 124.579063 125.254844 124.579063 
z
" clip-path="url(#p816303f199)" style="fill: #badbb8"/>
   </g>
   <g id="patch_51">
    <path d="M 125.254844 124.579063 
C 125.254844 124.579063 125.254844 124.579063 125.254844 124.579063 
C 125.254844 124.579063 125.254844 124.579063 125.254844 124.579063 
L 125.254844 124.579063 
C 125.254844 124.579063 125.254844 124.579063 125.254844 124.579063 
C 125.254844 124.579063 125.254844 124.579063 125.254844 124.579063 
z
" clip-path="url(#p816303f199)" style="fill: #badbb8"/>
   </g>
   <g id="patch_52">
    <path d="M 125.254844 124.579063 
C 125.254844 124.579063 125.254844 124.579063 125.254844 124.579063 
C 125.254844 124.579063 125.254844 124.579063 125.254844 124.579063 
L 125.254844 124.579063 
C 125.254844 124.579063 125.254844 124.579063 125.254844 124.579063 
C 125.254844 124.579063 125.254844 124.579063 125.254844 124.579063 
z
" clip-path="url(#p816303f199)" style="fill: #badbb8"/>
   </g>
   <g id="patch_53">
    <path d="M 125.254844 124.579063 
C 125.254844 124.579063 125.254844 124.579063 125.254844 124.579063 
C 125.254844 124.579063 125.254844 124.579063 125.254844 124.579063 
L 125.254844 124.579063 
C 125.254844 124.579063 125.254844 124.579063 125.254844 124.579063 
C 125.254844 124.579063 125.254844 124.579063 125.254844 124.579063 
z
" clip-path="url(#p816303f199)" style="fill: #badbb8"/>
   </g>
   <g id="patch_54">
    <path d="M 125.254844 124.579063 
C 125.254844 124.579063 125.254844 124.579063 125.254844 124.579063 
C 125.254844 124.579063 125.254844 124.579063 125.254844 124.579063 
L 125.254844 124.579063 
C 125.254844 124.579063 125.254844 124.579063 125.254844 124.579063 
C 125.254844 124.579063 125.254844 124.579063 125.254844 124.579063 
z
" clip-path="url(#p816303f199)" style="fill: #badbb8"/>
   </g>
   <g id="patch_55">
    <path d="M 125.254844 124.579063 
C 125.254844 124.579063 125.254844 124.579063 125.254844 124.579063 
C 125.254844 124.579063 125.254844 124.579063 125.254844 124.579063 
L 115.060312 132.945499 
C 115.334158 133.279181 115.624222 133.599217 115.929455 133.904451 
C 116.234689 134.209685 116.554725 134.499748 116.888408 134.773594 
z
" clip-path="url(#p816303f199)" style="fill: #badbb8"/>
   </g>
   <g id="patch_56">
    <path d="M 125.254844 124.579063 
C 125.254844 124.579063 125.254844 124.579063 125.254844 124.579063 
C 125.254844 124.579063 125.254844 124.579063 125.254844 124.579063 
L 115.90785 129.575135 
C 116.071379 129.881076 116.24983 130.178804 116.442559 130.467243 
C 116.635288 130.755682 116.842062 131.034485 117.062135 131.302645 
z
" clip-path="url(#p816303f199)" style="fill: #badbb8"/>
   </g>
   <g id="patch_57">
    <path d="M 125.254844 124.579063 
C 125.254844 124.579063 125.254844 124.579063 125.254844 124.579063 
C 125.254844 124.579063 125.254844 124.579063 125.254844 124.579063 
L 117.526572 126.923408 
C 117.603306 127.176366 117.692413 127.425404 117.793571 127.669623 
C 117.89473 127.913841 118.007818 128.152946 118.132427 128.386073 
z
" clip-path="url(#p816303f199)" style="fill: #badbb8"/>
   </g>
   <g id="patch_58">
    <path d="M 125.254844 124.579063 
C 125.254844 124.579063 125.254844 124.579063 125.254844 124.579063 
C 125.254844 124.579063 125.254844 124.579063 125.254844 124.579063 
L 98.397502 127.22428 
C 98.484084 128.103361 98.613774 128.977661 98.786104 129.844022 
C 98.958434 130.710384 99.173196 131.567762 99.429614 132.41306 
z
" clip-path="url(#p816303f199)" style="fill: #badbb8"/>
   </g>
   <g id="patch_59">
    <path d="M 125.254844 124.579063 
C 125.254844 124.579063 125.254844 124.579063 125.254844 124.579063 
C 125.254844 124.579063 125.254844 124.579063 125.254844 124.579063 
L 90.170605 121.123567 
C 90.057502 122.271926 90.000848 123.425147 90.000848 124.579062 
C 90.000848 125.732978 90.057502 126.886199 90.170605 128.034558 
z
" clip-path="url(#p816303f199)" style="fill: #badbb8"/>
   </g>
   <g id="patch_60">
    <path d="M 125.254844 124.579063 
C 125.254844 124.579063 125.254844 124.579063 125.254844 124.579063 
C 125.254844 124.579063 125.254844 124.579063 125.254844 124.579063 
L 97.689469 116.217198 
C 97.415773 117.119453 97.18654 118.034603 97.002598 118.959341 
C 96.818656 119.88408 96.680227 120.817291 96.587812 121.755606 
z
" clip-path="url(#p816303f199)" style="fill: #badbb8"/>
   </g>
   <g id="patch_61">
    <path d="M 125.254844 124.579063 
C 125.254844 124.579063 125.254844 124.579063 125.254844 124.579063 
C 125.254844 124.579063 125.254844 124.579063 125.254844 124.579063 
L 84.929413 103.024671 
C 84.223905 104.344582 83.583627 105.698337 83.010891 107.081044 
C 82.438154 108.463752 81.933651 109.873746 81.499201 111.305933 
z
" clip-path="url(#p816303f199)" style="fill: #badbb8"/>
   </g>
   <g id="patch_62">
    <path d="M 125.254844 124.579063 
C 125.254844 124.579063 125.254844 124.579063 125.254844 124.579063 
C 125.254844 124.579063 125.254844 124.579063 125.254844 124.579063 
L 112.596919 114.190972 
C 112.256901 114.605285 111.93743 115.036042 111.639659 115.481687 
C 111.341889 115.927332 111.066177 116.387329 110.813522 116.860015 
z
" clip-path="url(#p816303f199)" style="fill: #badbb8"/>
   </g>
   <g id="patch_63">
    <path d="M 125.254844 124.579063 
C 125.254844 124.579063 125.254844 124.579063 125.254844 124.579063 
C 125.254844 124.579063 125.254844 124.579063 125.254844 124.579063 
L 116.21806 113.567709 
C 115.857642 113.863497 115.511963 114.176801 115.182273 114.506492 
C 114.852583 114.836182 114.539278 115.18186 114.243491 115.542279 
z
" clip-path="url(#p816303f199)" style="fill: #badbb8"/>
   </g>
   <g id="patch_64">
    <path d="M 125.254844 124.579063 
C 125.254844 124.579063 125.254844 124.579063 125.254844 124.579063 
C 125.254844 124.579063 125.254844 124.579063 125.254844 124.579063 
L 113.249506 102.118656 
C 112.514343 102.511608 111.798917 102.940418 111.10581 103.403537 
C 110.412704 103.866656 109.742753 104.363526 109.098377 104.892351 
z
" clip-path="url(#p816303f199)" style="fill: #badbb8"/>
   </g>
   <g id="patch_65">
    <path d="M 125.254844 124.579063 
C 125.254844 124.579063 125.254844 124.579063 125.254844 124.579063 
C 125.254844 124.579063 125.254844 124.579063 125.254844 124.579063 
L 115.748111 93.239566 
C 114.722323 93.550736 113.71243 93.912081 112.722081 94.322297 
C 111.731732 94.732513 110.76212 95.191105 109.816748 95.696417 
z
" clip-path="url(#p816303f199)" style="fill: #badbb8"/>
   </g>
   <g id="patch_66">
    <path d="M 125.254844 124.579063 
C 125.254844 124.579063 125.254844 124.579063 125.254844 124.579063 
C 125.254844 124.579063 125.254844 124.579063 125.254844 124.579063 
L 123.465239 106.408896 
C 122.870502 106.467472 122.279 106.555214 121.692868 106.671802 
C 121.106737 106.788391 120.526683 106.933687 119.954802 107.107165 
z
" clip-path="url(#p816303f199)" style="fill: #badbb8"/>
   </g>
   <g id="patch_67">
    <path d="M 121.819556 89.699996 
C 122.961199 89.587554 124.107676 89.531231 125.254844 89.531231 
C 126.402012 89.531231 127.548488 89.587554 128.690132 89.699996 
L 131.28629 63.34076 
C 129.281869 63.143342 127.268963 63.044454 125.254844 63.044454 
C 123.240724 63.044454 121.227818 63.143342 119.223397 63.34076 
z
" clip-path="url(#p816303f199)" style="fill: #a1a1d8"/>
   </g>
   <g id="patch_68">
    <path d="M 126.923659 107.635295 
C 127.478254 107.689918 128.029833 107.771737 128.576403 107.880456 
C 129.122973 107.989176 129.663876 108.124665 130.197159 108.286434 
L 142.43783 67.934349 
C 140.583764 67.371924 138.703202 66.900868 136.802936 66.522881 
C 134.902671 66.144895 132.984992 65.860434 131.056828 65.670527 
z
" clip-path="url(#p816303f199)" style="fill: #a1a1d8"/>
   </g>
   <g id="patch_69">
    <path d="M 135.577658 90.549303 
C 136.691503 90.887184 137.788088 91.279548 138.863451 91.724978 
C 139.938814 92.170408 140.99166 92.668367 142.018185 93.217057 
L 150.918854 76.565076 
C 149.347285 75.725054 147.73542 74.962699 146.089081 74.280763 
C 144.442743 73.598827 142.763916 72.998133 141.058663 72.480851 
z
" clip-path="url(#p816303f199)" style="fill: #a1a1d8"/>
   </g>
   <g id="patch_70">
    <path d="M 151.416024 75.634937 
C 153.018038 76.491232 154.577045 77.425664 156.087414 78.434861 
C 157.597782 79.444057 159.057692 80.526799 160.461869 81.679178 
L 176.016776 62.725469 
C 173.992215 61.063956 171.887299 59.502843 169.709631 58.047772 
C 167.531962 56.5927 165.284166 55.245423 162.974362 54.010807 
z
" clip-path="url(#p816303f199)" style="fill: #a1a1d8"/>
   </g>
   <g id="patch_71">
    <path d="M 132.89232 115.272771 
C 133.196929 115.522757 133.48908 115.787548 133.767719 116.066187 
C 134.046359 116.344826 134.311149 116.636978 134.561135 116.941586 
L 153.558825 101.350586 
C 152.798522 100.424154 151.993192 99.53561 151.145744 98.688162 
C 150.298297 97.840714 149.409752 97.035384 148.483321 96.275081 
z
" clip-path="url(#p816303f199)" style="fill: #a1a1d8"/>
   </g>
   <g id="patch_72">
    <path d="M 125.254844 124.579063 
C 125.254844 124.579063 125.254844 124.579063 125.254844 124.579063 
C 125.254844 124.579063 125.254844 124.579063 125.254844 124.579063 
L 152.634748 109.944199 
C 152.155727 109.048013 151.632995 108.175887 151.068439 107.330969 
C 150.503883 106.486052 149.898185 105.669362 149.253531 104.883849 
z
" clip-path="url(#p816303f199)" style="fill: #a1a1d8"/>
   </g>
   <g id="patch_73">
    <path d="M 125.254844 124.579063 
C 125.254844 124.579063 125.254844 124.579063 125.254844 124.579063 
C 125.254844 124.579063 125.254844 124.579063 125.254844 124.579063 
L 155.462185 115.415766 
C 155.162257 114.427034 154.813965 113.453625 154.418568 112.499052 
C 154.023172 111.54448 153.581146 110.609896 153.094089 109.698676 
z
" clip-path="url(#p816303f199)" style="fill: #a1a1d8"/>
   </g>
   <g id="patch_74">
    <path d="M 125.254844 124.579063 
C 125.254844 124.579063 125.254844 124.579063 125.254844 124.579063 
C 125.254844 124.579063 125.254844 124.579063 125.254844 124.579063 
L 125.254844 124.579063 
C 125.254844 124.579063 125.254844 124.579063 125.254844 124.579063 
C 125.254844 124.579063 125.254844 124.579063 125.254844 124.579063 
z
" clip-path="url(#p816303f199)" style="fill: #a1a1d8"/>
   </g>
   <g id="patch_75">
    <path d="M 125.254844 124.579063 
C 125.254844 124.579063 125.254844 124.579063 125.254844 124.579063 
C 125.254844 124.579063 125.254844 124.579063 125.254844 124.579063 
L 125.254844 124.579063 
C 125.254844 124.579063 125.254844 124.579063 125.254844 124.579063 
C 125.254844 124.579063 125.254844 124.579063 125.254844 124.579063 
z
" clip-path="url(#p816303f199)" style="fill: #a1a1d8"/>
   </g>
   <g id="patch_76">
    <path d="M 125.254844 124.579063 
C 125.254844 124.579063 125.254844 124.579063 125.254844 124.579063 
C 125.254844 124.579063 125.254844 124.579063 125.254844 124.579063 
L 125.254844 124.579063 
C 125.254844 124.579063 125.254844 124.579063 125.254844 124.579063 
C 125.254844 124.579063 125.254844 124.579063 125.254844 124.579063 
z
" clip-path="url(#p816303f199)" style="fill: #a1a1d8"/>
   </g>
   <g id="patch_77">
    <path d="M 125.254844 124.579063 
C 125.254844 124.579063 125.254844 124.579063 125.254844 124.579063 
C 125.254844 124.579063 125.254844 124.579063 125.254844 124.579063 
L 125.254844 124.579063 
C 125.254844 124.579063 125.254844 124.579063 125.254844 124.579063 
C 125.254844 124.579063 125.254844 124.579063 125.254844 124.579063 
z
" clip-path="url(#p816303f199)" style="fill: #a1a1d8"/>
   </g>
   <g id="patch_78">
    <path d="M 125.254844 124.579063 
C 125.254844 124.579063 125.254844 124.579063 125.254844 124.579063 
C 125.254844 124.579063 125.254844 124.579063 125.254844 124.579063 
L 125.254844 124.579063 
C 125.254844 124.579063 125.254844 124.579063 125.254844 124.579063 
C 125.254844 124.579063 125.254844 124.579063 125.254844 124.579063 
z
" clip-path="url(#p816303f199)" style="fill: #a1a1d8"/>
   </g>
   <g id="patch_79">
    <path d="M 125.254844 124.579063 
C 125.254844 124.579063 125.254844 124.579063 125.254844 124.579063 
C 125.254844 124.579063 125.254844 124.579063 125.254844 124.579063 
L 125.254844 124.579063 
C 125.254844 124.579063 125.254844 124.579063 125.254844 124.579063 
C 125.254844 124.579063 125.254844 124.579063 125.254844 124.579063 
z
" clip-path="url(#p816303f199)" style="fill: #a1a1d8"/>
   </g>
   <g id="patch_80">
    <path d="M 125.254844 124.579063 
C 125.254844 124.579063 125.254844 124.579063 125.254844 124.579063 
C 125.254844 124.579063 125.254844 124.579063 125.254844 124.579063 
L 125.254844 124.579063 
C 125.254844 124.579063 125.254844 124.579063 125.254844 124.579063 
C 125.254844 124.579063 125.254844 124.579063 125.254844 124.579063 
z
" clip-path="url(#p816303f199)" style="fill: #a1a1d8"/>
   </g>
   <g id="patch_81">
    <path d="M 125.254844 124.579063 
C 125.254844 124.579063 125.254844 124.579063 125.254844 124.579063 
C 125.254844 124.579063 125.254844 124.579063 125.254844 124.579063 
L 125.254844 124.579063 
C 125.254844 124.579063 125.254844 124.579063 125.254844 124.579063 
C 125.254844 124.579063 125.254844 124.579063 125.254844 124.579063 
z
" clip-path="url(#p816303f199)" style="fill: #a1a1d8"/>
   </g>
   <g id="patch_82">
    <path d="M 125.254844 124.579063 
C 125.254844 124.579063 125.254844 124.579063 125.254844 124.579063 
C 125.254844 124.579063 125.254844 124.579063 125.254844 124.579063 
L 125.254844 124.579063 
C 125.254844 124.579063 125.254844 124.579063 125.254844 124.579063 
C 125.254844 124.579063 125.254844 124.579063 125.254844 124.579063 
z
" clip-path="url(#p816303f199)" style="fill: #a1a1d8"/>
   </g>
   <g id="patch_83">
    <path d="M 125.254844 124.579063 
C 125.254844 124.579063 125.254844 124.579063 125.254844 124.579063 
C 125.254844 124.579063 125.254844 124.579063 125.254844 124.579063 
L 125.254844 124.579063 
C 125.254844 124.579063 125.254844 124.579063 125.254844 124.579063 
C 125.254844 124.579063 125.254844 124.579063 125.254844 124.579063 
z
" clip-path="url(#p816303f199)" style="fill: #a1a1d8"/>
   </g>
   <g id="patch_84">
    <path d="M 125.254844 124.579063 
C 125.254844 124.579063 125.254844 124.579063 125.254844 124.579063 
C 125.254844 124.579063 125.254844 124.579063 125.254844 124.579063 
L 125.254844 124.579063 
C 125.254844 124.579063 125.254844 124.579063 125.254844 124.579063 
C 125.254844 124.579063 125.254844 124.579063 125.254844 124.579063 
z
" clip-path="url(#p816303f199)" style="fill: #a1a1d8"/>
   </g>
   <g id="patch_85">
    <path d="M 125.254844 124.579063 
C 125.254844 124.579063 125.254844 124.579063 125.254844 124.579063 
C 125.254844 124.579063 125.254844 124.579063 125.254844 124.579063 
L 125.254844 124.579063 
C 125.254844 124.579063 125.254844 124.579063 125.254844 124.579063 
C 125.254844 124.579063 125.254844 124.579063 125.254844 124.579063 
z
" clip-path="url(#p816303f199)" style="fill: #a1a1d8"/>
   </g>
   <g id="patch_86">
    <path d="M 125.254844 124.579063 
C 125.254844 124.579063 125.254844 124.579063 125.254844 124.579063 
C 125.254844 124.579063 125.254844 124.579063 125.254844 124.579063 
L 125.254844 124.579063 
C 125.254844 124.579063 125.254844 124.579063 125.254844 124.579063 
C 125.254844 124.579063 125.254844 124.579063 125.254844 124.579063 
z
" clip-path="url(#p816303f199)" style="fill: #a1a1d8"/>
   </g>
   <g id="patch_87">
    <path d="M 116.888408 134.773594 
C 116.554725 134.499748 116.234689 134.209685 115.929455 133.904451 
C 115.624222 133.599217 115.334158 133.279181 115.060312 132.945499 
L 115.060312 132.945499 
C 115.334158 133.279181 115.624222 133.599217 115.929455 133.904451 
C 116.234689 134.209685 116.554725 134.499748 116.888408 134.773594 
z
" clip-path="url(#p816303f199)" style="fill: #a1a1d8"/>
   </g>
   <g id="patch_88">
    <path d="M 117.062135 131.302645 
C 116.842062 131.034485 116.635288 130.755682 116.442559 130.467243 
C 116.24983 130.178804 116.071379 129.881076 115.90785 129.575135 
L 115.90785 129.575135 
C 116.071379 129.881076 116.24983 130.178804 116.442559 130.467243 
C 116.635288 130.755682 116.842062 131.034485 117.062135 131.302645 
z
" clip-path="url(#p816303f199)" style="fill: #a1a1d8"/>
   </g>
   <g id="patch_89">
    <path d="M 118.132427 128.386073 
C 118.007818 128.152946 117.89473 127.913841 117.793571 127.669623 
C 117.692413 127.425404 117.603306 127.176366 117.526572 126.923408 
L 117.526572 126.923408 
C 117.603306 127.176366 117.692413 127.425404 117.793571 127.669623 
C 117.89473 127.913841 118.007818 128.152946 118.132427 128.386073 
z
" clip-path="url(#p816303f199)" style="fill: #a1a1d8"/>
   </g>
   <g id="patch_90">
    <path d="M 99.429614 132.41306 
C 99.173196 131.567762 98.958434 130.710384 98.786104 129.844022 
C 98.613774 128.977661 98.484084 128.103361 98.397502 127.22428 
L 98.397502 127.22428 
C 98.484084 128.103361 98.613774 128.977661 98.786104 129.844022 
C 98.958434 130.710384 99.173196 131.567762 99.429614 132.41306 
z
" clip-path="url(#p816303f199)" style="fill: #a1a1d8"/>
   </g>
   <g id="patch_91">
    <path d="M 90.170605 128.034558 
C 90.057502 126.886199 90.000848 125.732978 90.000848 124.579062 
C 90.000848 123.425147 90.057502 122.271926 90.170605 121.123567 
L 86.431795 120.755326 
C 86.306638 122.026062 86.243947 123.302178 86.243947 124.579062 
C 86.243947 125.855947 86.306638 127.132063 86.431795 128.402799 
z
" clip-path="url(#p816303f199)" style="fill: #a1a1d8"/>
   </g>
   <g id="patch_92">
    <path d="M 96.587812 121.755606 
C 96.680227 120.817291 96.818656 119.88408 97.002598 118.959341 
C 97.18654 118.034603 97.415773 117.119453 97.689469 116.217198 
L 73.991286 109.028432 
C 73.482291 110.706365 73.055984 112.408277 72.713906 114.12802 
C 72.371827 115.847763 72.11439 117.583265 71.942523 119.328257 
z
" clip-path="url(#p816303f199)" style="fill: #a1a1d8"/>
   </g>
   <g id="patch_93">
    <path d="M 81.499201 111.305933 
C 81.933651 109.873746 82.438154 108.463752 83.010891 107.081044 
C 83.583627 105.698337 84.223905 104.344582 84.929413 103.024671 
L 61.838223 90.682172 
C 60.728727 92.757893 59.721812 94.886836 58.821115 97.061311 
C 57.920418 99.235786 57.127024 101.453172 56.4438 103.705461 
z
" clip-path="url(#p816303f199)" style="fill: #a1a1d8"/>
   </g>
   <g id="patch_94">
    <path d="M 110.813522 116.860015 
C 111.066177 116.387329 111.341889 115.927332 111.639659 115.481687 
C 111.93743 115.036042 112.256901 114.605285 112.596919 114.190972 
L 93.833188 98.791976 
C 92.989138 99.820454 92.196092 100.889752 91.456915 101.996009 
C 90.717738 103.102265 90.033321 104.244147 89.406135 105.417529 
z
" clip-path="url(#p816303f199)" style="fill: #a1a1d8"/>
   </g>
   <g id="patch_95">
    <path d="M 114.243491 115.542279 
C 114.539278 115.18186 114.852583 114.836182 115.182273 114.506492 
C 115.511963 114.176801 115.857642 113.863497 116.21806 113.567709 
L 79.366385 68.663813 
C 77.536195 70.165811 75.780853 71.756761 74.106697 73.430916 
C 72.432542 75.105071 70.841592 76.860414 69.339595 78.690603 
z
" clip-path="url(#p816303f199)" style="fill: #a1a1d8"/>
   </g>
   <g id="patch_96">
    <path d="M 109.098377 104.892351 
C 109.742753 104.363526 110.412704 103.866656 111.10581 103.403537 
C 111.798917 102.940418 112.514343 102.511608 113.249506 102.118656 
L 93.051142 64.330173 
C 91.079106 65.384249 89.16001 66.53451 87.300787 67.776803 
C 85.441565 69.019096 83.644456 70.351923 81.915952 71.77047 
z
" clip-path="url(#p816303f199)" style="fill: #a1a1d8"/>
   </g>
   <g id="patch_97">
    <path d="M 109.816748 95.696417 
C 110.76212 95.191105 111.731732 94.732513 112.722081 94.322297 
C 113.71243 93.912081 114.722323 93.550736 115.748111 93.239566 
L 105.186672 58.423166 
C 103.021291 59.080027 100.889465 59.842807 98.798894 60.708749 
C 96.708323 61.574692 94.661528 62.542754 92.665901 63.609439 
z
" clip-path="url(#p816303f199)" style="fill: #a1a1d8"/>
   </g>
   <g id="patch_98">
    <path d="M 119.954802 107.107165 
C 120.526683 106.933687 121.106737 106.788391 121.692868 106.671802 
C 122.279 106.555214 122.870502 106.467472 123.465239 106.408896 
L 120.784723 79.193163 
C 119.299175 79.339477 117.821705 79.558639 116.357652 79.849857 
C 114.893598 80.141076 113.444725 80.503999 112.016265 80.937318 
z
" clip-path="url(#p816303f199)" style="fill: #a1a1d8"/>
   </g>
   <g id="patch_99">
    <path d="M 119.223397 63.34076 
C 121.227818 63.143342 123.240724 63.044454 125.254844 63.044454 
C 127.268963 63.044454 129.281869 63.143342 131.28629 63.34076 
L 132.386468 52.17047 
C 130.016426 51.937042 127.636353 51.820116 125.254844 51.820116 
C 122.873335 51.820116 120.493261 51.937042 118.12322 52.17047 
z
" clip-path="url(#p816303f199)" style="fill: #828282"/>
   </g>
   <g id="patch_100">
    <path d="M 131.056828 65.670527 
C 132.984992 65.860434 134.902671 66.144895 136.802936 66.522881 
C 138.703202 66.900868 140.583764 67.371924 142.43783 67.934349 
L 144.388369 61.504283 
C 142.323837 60.878014 140.229802 60.353485 138.113826 59.932592 
C 135.997851 59.511698 133.862486 59.194946 131.715445 58.983481 
z
" clip-path="url(#p816303f199)" style="fill: #828282"/>
   </g>
   <g id="patch_101">
    <path d="M 141.058663 72.480851 
C 142.763916 72.998133 144.442743 73.598827 146.089081 74.280763 
C 147.73542 74.962699 149.347285 75.725054 150.918854 76.565076 
L 150.918854 76.565076 
C 149.347285 75.725054 147.73542 74.962699 146.089081 74.280763 
C 144.442743 73.598827 142.763916 72.998133 141.058663 72.480851 
z
" clip-path="url(#p816303f199)" style="fill: #828282"/>
   </g>
   <g id="patch_102">
    <path d="M 162.974362 54.010807 
C 165.284166 55.245423 167.531962 56.5927 169.709631 58.047772 
C 171.887299 59.502843 173.992215 61.063956 176.016776 62.725469 
L 176.016776 62.725469 
C 173.992215 61.063956 171.887299 59.502843 169.709631 58.047772 
C 167.531962 56.5927 165.284166 55.245423 162.974362 54.010807 
z
" clip-path="url(#p816303f199)" style="fill: #828282"/>
   </g>
   <g id="patch_103">
    <path d="M 148.483321 96.275081 
C 149.409752 97.035384 150.298297 97.840714 151.145744 98.688162 
C 151.993192 99.53561 152.798522 100.424154 153.558825 101.350586 
L 153.558825 101.350586 
C 152.798522 100.424154 151.993192 99.53561 151.145744 98.688162 
C 150.298297 97.840714 149.409752 97.035384 148.483321 96.275081 
z
" clip-path="url(#p816303f199)" style="fill: #828282"/>
   </g>
   <g id="patch_104">
    <path d="M 149.253531 104.883849 
C 149.898185 105.669362 150.503883 106.486052 151.068439 107.330969 
C 151.632995 108.175887 152.155727 109.048013 152.634748 109.944199 
L 152.634748 109.944199 
C 152.155727 109.048013 151.632995 108.175887 151.068439 107.330969 
C 150.503883 106.486052 149.898185 105.669362 149.253531 104.883849 
z
" clip-path="url(#p816303f199)" style="fill: #828282"/>
   </g>
   <g id="patch_105">
    <path d="M 153.094089 109.698676 
C 153.581146 110.609896 154.023172 111.54448 154.418568 112.499052 
C 154.813965 113.453625 155.162257 114.427034 155.462185 115.415766 
L 155.462185 115.415766 
C 155.162257 114.427034 154.813965 113.453625 154.418568 112.499052 
C 154.023172 111.54448 153.581146 110.609896 153.094089 109.698676 
z
" clip-path="url(#p816303f199)" style="fill: #828282"/>
   </g>
   <g id="patch_106">
    <path d="M 125.254844 124.579063 
C 125.254844 124.579063 125.254844 124.579063 125.254844 124.579063 
C 125.254844 124.579063 125.254844 124.579063 125.254844 124.579063 
L 125.254844 124.579063 
C 125.254844 124.579063 125.254844 124.579063 125.254844 124.579063 
C 125.254844 124.579063 125.254844 124.579063 125.254844 124.579063 
z
" clip-path="url(#p816303f199)" style="fill: #828282"/>
   </g>
   <g id="patch_107">
    <path d="M 125.254844 124.579063 
C 125.254844 124.579063 125.254844 124.579063 125.254844 124.579063 
C 125.254844 124.579063 125.254844 124.579063 125.254844 124.579063 
L 125.254844 124.579063 
C 125.254844 124.579063 125.254844 124.579063 125.254844 124.579063 
C 125.254844 124.579063 125.254844 124.579063 125.254844 124.579063 
z
" clip-path="url(#p816303f199)" style="fill: #828282"/>
   </g>
   <g id="patch_108">
    <path d="M 125.254844 124.579063 
C 125.254844 124.579063 125.254844 124.579063 125.254844 124.579063 
C 125.254844 124.579063 125.254844 124.579063 125.254844 124.579063 
L 125.254844 124.579063 
C 125.254844 124.579063 125.254844 124.579063 125.254844 124.579063 
C 125.254844 124.579063 125.254844 124.579063 125.254844 124.579063 
z
" clip-path="url(#p816303f199)" style="fill: #828282"/>
   </g>
   <g id="patch_109">
    <path d="M 125.254844 124.579063 
C 125.254844 124.579063 125.254844 124.579063 125.254844 124.579063 
C 125.254844 124.579063 125.254844 124.579063 125.254844 124.579063 
L 125.254844 124.579063 
C 125.254844 124.579063 125.254844 124.579063 125.254844 124.579063 
C 125.254844 124.579063 125.254844 124.579063 125.254844 124.579063 
z
" clip-path="url(#p816303f199)" style="fill: #828282"/>
   </g>
   <g id="patch_110">
    <path d="M 125.254844 124.579063 
C 125.254844 124.579063 125.254844 124.579063 125.254844 124.579063 
C 125.254844 124.579063 125.254844 124.579063 125.254844 124.579063 
L 125.254844 124.579063 
C 125.254844 124.579063 125.254844 124.579063 125.254844 124.579063 
C 125.254844 124.579063 125.254844 124.579063 125.254844 124.579063 
z
" clip-path="url(#p816303f199)" style="fill: #828282"/>
   </g>
   <g id="patch_111">
    <path d="M 125.254844 124.579063 
C 125.254844 124.579063 125.254844 124.579063 125.254844 124.579063 
C 125.254844 124.579063 125.254844 124.579063 125.254844 124.579063 
L 125.254844 124.579063 
C 125.254844 124.579063 125.254844 124.579063 125.254844 124.579063 
C 125.254844 124.579063 125.254844 124.579063 125.254844 124.579063 
z
" clip-path="url(#p816303f199)" style="fill: #828282"/>
   </g>
   <g id="patch_112">
    <path d="M 125.254844 124.579063 
C 125.254844 124.579063 125.254844 124.579063 125.254844 124.579063 
C 125.254844 124.579063 125.254844 124.579063 125.254844 124.579063 
L 125.254844 124.579063 
C 125.254844 124.579063 125.254844 124.579063 125.254844 124.579063 
C 125.254844 124.579063 125.254844 124.579063 125.254844 124.579063 
z
" clip-path="url(#p816303f199)" style="fill: #828282"/>
   </g>
   <g id="patch_113">
    <path d="M 125.254844 124.579063 
C 125.254844 124.579063 125.254844 124.579063 125.254844 124.579063 
C 125.254844 124.579063 125.254844 124.579063 125.254844 124.579063 
L 125.254844 124.579063 
C 125.254844 124.579063 125.254844 124.579063 125.254844 124.579063 
C 125.254844 124.579063 125.254844 124.579063 125.254844 124.579063 
z
" clip-path="url(#p816303f199)" style="fill: #828282"/>
   </g>
   <g id="patch_114">
    <path d="M 125.254844 124.579063 
C 125.254844 124.579063 125.254844 124.579063 125.254844 124.579063 
C 125.254844 124.579063 125.254844 124.579063 125.254844 124.579063 
L 125.254844 124.579063 
C 125.254844 124.579063 125.254844 124.579063 125.254844 124.579063 
C 125.254844 124.579063 125.254844 124.579063 125.254844 124.579063 
z
" clip-path="url(#p816303f199)" style="fill: #828282"/>
   </g>
   <g id="patch_115">
    <path d="M 125.254844 124.579063 
C 125.254844 124.579063 125.254844 124.579063 125.254844 124.579063 
C 125.254844 124.579063 125.254844 124.579063 125.254844 124.579063 
L 125.254844 124.579063 
C 125.254844 124.579063 125.254844 124.579063 125.254844 124.579063 
C 125.254844 124.579063 125.254844 124.579063 125.254844 124.579063 
z
" clip-path="url(#p816303f199)" style="fill: #828282"/>
   </g>
   <g id="patch_116">
    <path d="M 125.254844 124.579063 
C 125.254844 124.579063 125.254844 124.579063 125.254844 124.579063 
C 125.254844 124.579063 125.254844 124.579063 125.254844 124.579063 
L 125.254844 124.579063 
C 125.254844 124.579063 125.254844 124.579063 125.254844 124.579063 
C 125.254844 124.579063 125.254844 124.579063 125.254844 124.579063 
z
" clip-path="url(#p816303f199)" style="fill: #828282"/>
   </g>
   <g id="patch_117">
    <path d="M 125.254844 124.579063 
C 125.254844 124.579063 125.254844 124.579063 125.254844 124.579063 
C 125.254844 124.579063 125.254844 124.579063 125.254844 124.579063 
L 125.254844 124.579063 
C 125.254844 124.579063 125.254844 124.579063 125.254844 124.579063 
C 125.254844 124.579063 125.254844 124.579063 125.254844 124.579063 
z
" clip-path="url(#p816303f199)" style="fill: #828282"/>
   </g>
   <g id="patch_118">
    <path d="M 125.254844 124.579063 
C 125.254844 124.579063 125.254844 124.579063 125.254844 124.579063 
C 125.254844 124.579063 125.254844 124.579063 125.254844 124.579063 
L 125.254844 124.579063 
C 125.254844 124.579063 125.254844 124.579063 125.254844 124.579063 
C 125.254844 124.579063 125.254844 124.579063 125.254844 124.579063 
z
" clip-path="url(#p816303f199)" style="fill: #828282"/>
   </g>
   <g id="patch_119">
    <path d="M 116.888408 134.773594 
C 116.554725 134.499748 116.234689 134.209685 115.929455 133.904451 
C 115.624222 133.599217 115.334158 133.279181 115.060312 132.945499 
L 115.060312 132.945499 
C 115.334158 133.279181 115.624222 133.599217 115.929455 133.904451 
C 116.234689 134.209685 116.554725 134.499748 116.888408 134.773594 
z
" clip-path="url(#p816303f199)" style="fill: #828282"/>
   </g>
   <g id="patch_120">
    <path d="M 117.062135 131.302645 
C 116.842062 131.034485 116.635288 130.755682 116.442559 130.467243 
C 116.24983 130.178804 116.071379 129.881076 115.90785 129.575135 
L 108.052574 133.773867 
C 108.353533 134.336923 108.681956 134.884864 109.036656 135.415709 
C 109.391356 135.946555 109.771904 136.459665 110.176928 136.953188 
z
" clip-path="url(#p816303f199)" style="fill: #828282"/>
   </g>
   <g id="patch_121">
    <path d="M 118.132427 128.386073 
C 118.007818 128.152946 117.89473 127.913841 117.793571 127.669623 
C 117.692413 127.425404 117.603306 127.176366 117.526572 126.923408 
L 103.856227 131.070262 
C 104.068694 131.770671 104.31542 132.460226 104.595516 133.136436 
C 104.875612 133.812647 105.188739 134.474698 105.533766 135.120198 
z
" clip-path="url(#p816303f199)" style="fill: #828282"/>
   </g>
   <g id="patch_122">
    <path d="M 99.429614 132.41306 
C 99.173196 131.567762 98.958434 130.710384 98.786104 129.844022 
C 98.613774 128.977661 98.484084 128.103361 98.397502 127.22428 
L 93.499402 127.706701 
C 93.601774 128.746104 93.755117 129.779854 93.958875 130.804218 
C 94.162634 131.828581 94.416563 132.842324 94.719746 133.841783 
z
" clip-path="url(#p816303f199)" style="fill: #828282"/>
   </g>
   <g id="patch_123">
    <path d="M 86.431795 128.402799 
C 86.306638 127.132063 86.243947 125.855947 86.243947 124.579062 
C 86.243947 123.302178 86.306638 122.026062 86.431795 120.755326 
L 83.36397 120.453172 
C 83.228923 121.824322 83.161278 123.201277 83.161278 124.579062 
C 83.161278 125.956848 83.228923 127.333803 83.36397 128.704953 
z
" clip-path="url(#p816303f199)" style="fill: #828282"/>
   </g>
   <g id="patch_124">
    <path d="M 71.942523 119.328257 
C 72.11439 117.583265 72.371827 115.847763 72.713906 114.12802 
C 73.055984 112.408277 73.482291 110.706365 73.991286 109.028432 
L 72.022561 108.431226 
C 71.494018 110.173598 71.05134 111.94087 70.696125 113.726658 
C 70.340909 115.512447 70.073585 117.314599 69.895118 119.126605 
z
" clip-path="url(#p816303f199)" style="fill: #828282"/>
   </g>
   <g id="patch_125">
    <path d="M 56.4438 103.705461 
C 57.127024 101.453172 57.920418 99.235786 58.821115 97.061311 
C 59.721812 94.886836 60.728727 92.757893 61.838223 90.682172 
L 52.040468 85.445163 
C 50.759557 87.841579 49.597075 90.29944 48.557222 92.809867 
C 47.517369 95.320295 46.601397 97.880264 45.812616 100.480526 
z
" clip-path="url(#p816303f199)" style="fill: #828282"/>
   </g>
   <g id="patch_126">
    <path d="M 89.406135 105.417529 
C 90.033321 104.244147 90.717738 103.102265 91.456915 101.996009 
C 92.196092 100.889752 92.989138 99.820454 93.833188 98.791976 
L 69.127026 78.516153 
C 67.619318 80.3533 66.202718 82.263365 64.882342 84.239447 
C 63.561966 86.215529 62.339407 88.255247 61.219079 90.351233 
z
" clip-path="url(#p816303f199)" style="fill: #828282"/>
   </g>
   <g id="patch_127">
    <path d="M 69.339595 78.690603 
C 70.841592 76.860414 72.432542 75.105071 74.106697 73.430916 
C 75.780853 71.756761 77.536195 70.165811 79.366385 68.663813 
L 67.014393 53.612868 
C 64.691563 55.519165 62.463728 57.538357 60.338933 59.663152 
C 58.214139 61.787947 56.194946 64.015782 54.288649 66.338612 
z
" clip-path="url(#p816303f199)" style="fill: #828282"/>
   </g>
   <g id="patch_128">
    <path d="M 81.915952 71.77047 
C 83.644456 70.351923 85.441565 69.019096 87.300787 67.776803 
C 89.16001 66.53451 91.079106 65.384249 93.051142 64.330173 
L 86.203331 51.518821 
C 83.811961 52.797036 81.484788 54.191889 79.230219 55.698344 
C 76.97565 57.204799 74.796403 58.821039 72.700349 60.541226 
z
" clip-path="url(#p816303f199)" style="fill: #828282"/>
   </g>
   <g id="patch_129">
    <path d="M 92.665901 63.609439 
C 94.661528 62.542754 96.708323 61.574692 98.798894 60.708749 
C 100.889465 59.842807 103.021291 59.080027 105.186672 58.423166 
L 93.068078 18.473517 
C 89.595085 19.527037 86.175911 20.750438 82.822904 22.139298 
C 79.469898 23.528159 76.187101 25.080806 72.986373 26.791631 
z
" clip-path="url(#p816303f199)" style="fill: #828282"/>
   </g>
   <g id="patch_130">
    <path d="M 112.016265 80.937318 
C 113.444725 80.503999 114.893598 80.141076 116.357652 79.849857 
C 117.821705 79.558639 119.299175 79.339477 120.784723 79.193163 
L 118.409648 55.078627 
C 116.134795 55.302681 113.872314 55.638288 111.630376 56.084237 
C 109.388438 56.530187 107.169746 57.08594 104.982315 57.74949 
z
" clip-path="url(#p816303f199)" style="fill: #828282"/>
   </g>
   <g id="patch_131">
    <path d="M 125.254844 124.579063 
C 125.254844 124.579063 125.254844 124.579063 125.254844 124.579063 
C 125.254844 124.579063 125.254844 124.579063 125.254844 124.579063 
L 132.386468 52.17047 
C 130.016426 51.937042 127.636353 51.820116 125.254844 51.820116 
C 122.873335 51.820116 120.493261 51.937042 118.12322 52.17047 
L 125.254844 124.579063 
z
" clip-path="url(#p816303f199)" style="fill: none; stroke: #292929; stroke-width: 0.5; stroke-linejoin: miter"/>
   </g>
   <g id="patch_132">
    <path d="M 125.254844 124.579063 
C 125.254844 124.579063 125.254844 124.579063 125.254844 124.579063 
C 125.254844 124.579063 125.254844 124.579063 125.254844 124.579063 
L 144.388369 61.504283 
C 142.323837 60.878014 140.229802 60.353485 138.113826 59.932592 
C 135.997851 59.511698 133.862486 59.194946 131.715445 58.983481 
L 125.254844 124.579063 
z
" clip-path="url(#p816303f199)" style="fill: none; stroke: #292929; stroke-width: 0.5; stroke-linejoin: miter"/>
   </g>
   <g id="patch_133">
    <path d="M 125.254844 124.579063 
C 125.254844 124.579063 125.254844 124.579063 125.254844 124.579063 
C 125.254844 124.579063 125.254844 124.579063 125.254844 124.579063 
L 150.918854 76.565076 
C 149.347285 75.725054 147.73542 74.962699 146.089081 74.280763 
C 144.442743 73.598827 142.763916 72.998133 141.058663 72.480851 
L 125.254844 124.579063 
z
" clip-path="url(#p816303f199)" style="fill: none; stroke: #292929; stroke-width: 0.5; stroke-linejoin: miter"/>
   </g>
   <g id="patch_134">
    <path d="M 125.254844 124.579063 
C 125.254844 124.579063 125.254844 124.579063 125.254844 124.579063 
C 125.254844 124.579063 125.254844 124.579063 125.254844 124.579063 
L 176.016776 62.725469 
C 173.992215 61.063956 171.887299 59.502843 169.709631 58.047772 
C 167.531962 56.5927 165.284166 55.245423 162.974362 54.010807 
L 125.254844 124.579063 
z
" clip-path="url(#p816303f199)" style="fill: none; stroke: #292929; stroke-width: 0.5; stroke-linejoin: miter"/>
   </g>
   <g id="patch_135">
    <path d="M 125.254844 124.579063 
C 125.254844 124.579063 125.254844 124.579063 125.254844 124.579063 
C 125.254844 124.579063 125.254844 124.579063 125.254844 124.579063 
L 153.558825 101.350586 
C 152.798522 100.424154 151.993192 99.53561 151.145744 98.688162 
C 150.298297 97.840714 149.409752 97.035384 148.483321 96.275081 
L 125.254844 124.579063 
z
" clip-path="url(#p816303f199)" style="fill: none; stroke: #292929; stroke-width: 0.5; stroke-linejoin: miter"/>
   </g>
   <g id="patch_136">
    <path d="M 125.254844 124.579063 
C 125.254844 124.579063 125.254844 124.579063 125.254844 124.579063 
C 125.254844 124.579063 125.254844 124.579063 125.254844 124.579063 
L 152.634748 109.944199 
C 152.155727 109.048013 151.632995 108.175887 151.068439 107.330969 
C 150.503883 106.486052 149.898185 105.669362 149.253531 104.883849 
L 125.254844 124.579063 
z
" clip-path="url(#p816303f199)" style="fill: none; stroke: #292929; stroke-width: 0.5; stroke-linejoin: miter"/>
   </g>
   <g id="patch_137">
    <path d="M 125.254844 124.579063 
C 125.254844 124.579063 125.254844 124.579063 125.254844 124.579063 
C 125.254844 124.579063 125.254844 124.579063 125.254844 124.579063 
L 155.462185 115.415766 
C 155.162257 114.427034 154.813965 113.453625 154.418568 112.499052 
C 154.023172 111.54448 153.581146 110.609896 153.094089 109.698676 
L 125.254844 124.579063 
z
" clip-path="url(#p816303f199)" style="fill: none; stroke: #292929; stroke-width: 0.5; stroke-linejoin: miter"/>
   </g>
   <g id="patch_138">
    <path d="M 125.254844 124.579063 
C 125.254844 124.579063 125.254844 124.579063 125.254844 124.579063 
C 125.254844 124.579063 125.254844 124.579063 125.254844 124.579063 
L 125.254844 124.579063 
C 125.254844 124.579063 125.254844 124.579063 125.254844 124.579063 
C 125.254844 124.579063 125.254844 124.579063 125.254844 124.579063 
L 125.254844 124.579063 
z
" clip-path="url(#p816303f199)" style="fill: none; stroke: #292929; stroke-width: 0.5; stroke-linejoin: miter"/>
   </g>
   <g id="patch_139">
    <path d="M 125.254844 124.579063 
C 125.254844 124.579063 125.254844 124.579063 125.254844 124.579063 
C 125.254844 124.579063 125.254844 124.579063 125.254844 124.579063 
L 125.254844 124.579063 
C 125.254844 124.579063 125.254844 124.579063 125.254844 124.579063 
C 125.254844 124.579063 125.254844 124.579063 125.254844 124.579063 
L 125.254844 124.579063 
z
" clip-path="url(#p816303f199)" style="fill: none; stroke: #292929; stroke-width: 0.5; stroke-linejoin: miter"/>
   </g>
   <g id="patch_140">
    <path d="M 125.254844 124.579063 
C 125.254844 124.579063 125.254844 124.579063 125.254844 124.579063 
C 125.254844 124.579063 125.254844 124.579063 125.254844 124.579063 
L 125.254844 124.579063 
C 125.254844 124.579063 125.254844 124.579063 125.254844 124.579063 
C 125.254844 124.579063 125.254844 124.579063 125.254844 124.579063 
L 125.254844 124.579063 
z
" clip-path="url(#p816303f199)" style="fill: none; stroke: #292929; stroke-width: 0.5; stroke-linejoin: miter"/>
   </g>
   <g id="patch_141">
    <path d="M 125.254844 124.579063 
C 125.254844 124.579063 125.254844 124.579063 125.254844 124.579063 
C 125.254844 124.579063 125.254844 124.579063 125.254844 124.579063 
L 125.254844 124.579063 
C 125.254844 124.579063 125.254844 124.579063 125.254844 124.579063 
C 125.254844 124.579063 125.254844 124.579063 125.254844 124.579063 
L 125.254844 124.579063 
z
" clip-path="url(#p816303f199)" style="fill: none; stroke: #292929; stroke-width: 0.5; stroke-linejoin: miter"/>
   </g>
   <g id="patch_142">
    <path d="M 125.254844 124.579063 
C 125.254844 124.579063 125.254844 124.579063 125.254844 124.579063 
C 125.254844 124.579063 125.254844 124.579063 125.254844 124.579063 
L 125.254844 124.579063 
C 125.254844 124.579063 125.254844 124.579063 125.254844 124.579063 
C 125.254844 124.579063 125.254844 124.579063 125.254844 124.579063 
L 125.254844 124.579063 
z
" clip-path="url(#p816303f199)" style="fill: none; stroke: #292929; stroke-width: 0.5; stroke-linejoin: miter"/>
   </g>
   <g id="patch_143">
    <path d="M 125.254844 124.579063 
C 125.254844 124.579063 125.254844 124.579063 125.254844 124.579063 
C 125.254844 124.579063 125.254844 124.579063 125.254844 124.579063 
L 125.254844 124.579063 
C 125.254844 124.579063 125.254844 124.579063 125.254844 124.579063 
C 125.254844 124.579063 125.254844 124.579063 125.254844 124.579063 
L 125.254844 124.579063 
z
" clip-path="url(#p816303f199)" style="fill: none; stroke: #292929; stroke-width: 0.5; stroke-linejoin: miter"/>
   </g>
   <g id="patch_144">
    <path d="M 125.254844 124.579063 
C 125.254844 124.579063 125.254844 124.579063 125.254844 124.579063 
C 125.254844 124.579063 125.254844 124.579063 125.254844 124.579063 
L 125.254844 124.579063 
C 125.254844 124.579063 125.254844 124.579063 125.254844 124.579063 
C 125.254844 124.579063 125.254844 124.579063 125.254844 124.579063 
L 125.254844 124.579063 
z
" clip-path="url(#p816303f199)" style="fill: none; stroke: #292929; stroke-width: 0.5; stroke-linejoin: miter"/>
   </g>
   <g id="patch_145">
    <path d="M 125.254844 124.579063 
C 125.254844 124.579063 125.254844 124.579063 125.254844 124.579063 
C 125.254844 124.579063 125.254844 124.579063 125.254844 124.579063 
L 125.254844 124.579063 
C 125.254844 124.579063 125.254844 124.579063 125.254844 124.579063 
C 125.254844 124.579063 125.254844 124.579063 125.254844 124.579063 
L 125.254844 124.579063 
z
" clip-path="url(#p816303f199)" style="fill: none; stroke: #292929; stroke-width: 0.5; stroke-linejoin: miter"/>
   </g>
   <g id="patch_146">
    <path d="M 125.254844 124.579063 
C 125.254844 124.579063 125.254844 124.579063 125.254844 124.579063 
C 125.254844 124.579063 125.254844 124.579063 125.254844 124.579063 
L 125.254844 124.579063 
C 125.254844 124.579063 125.254844 124.579063 125.254844 124.579063 
C 125.254844 124.579063 125.254844 124.579063 125.254844 124.579063 
L 125.254844 124.579063 
z
" clip-path="url(#p816303f199)" style="fill: none; stroke: #292929; stroke-width: 0.5; stroke-linejoin: miter"/>
   </g>
   <g id="patch_147">
    <path d="M 125.254844 124.579063 
C 125.254844 124.579063 125.254844 124.579063 125.254844 124.579063 
C 125.254844 124.579063 125.254844 124.579063 125.254844 124.579063 
L 125.254844 124.579063 
C 125.254844 124.579063 125.254844 124.579063 125.254844 124.579063 
C 125.254844 124.579063 125.254844 124.579063 125.254844 124.579063 
L 125.254844 124.579063 
z
" clip-path="url(#p816303f199)" style="fill: none; stroke: #292929; stroke-width: 0.5; stroke-linejoin: miter"/>
   </g>
   <g id="patch_148">
    <path d="M 125.254844 124.579063 
C 125.254844 124.579063 125.254844 124.579063 125.254844 124.579063 
C 125.254844 124.579063 125.254844 124.579063 125.254844 124.579063 
L 125.254844 124.579063 
C 125.254844 124.579063 125.254844 124.579063 125.254844 124.579063 
C 125.254844 124.579063 125.254844 124.579063 125.254844 124.579063 
L 125.254844 124.579063 
z
" clip-path="url(#p816303f199)" style="fill: none; stroke: #292929; stroke-width: 0.5; stroke-linejoin: miter"/>
   </g>
   <g id="patch_149">
    <path d="M 125.254844 124.579063 
C 125.254844 124.579063 125.254844 124.579063 125.254844 124.579063 
C 125.254844 124.579063 125.254844 124.579063 125.254844 124.579063 
L 125.254844 124.579063 
C 125.254844 124.579063 125.254844 124.579063 125.254844 124.579063 
C 125.254844 124.579063 125.254844 124.579063 125.254844 124.579063 
L 125.254844 124.579063 
z
" clip-path="url(#p816303f199)" style="fill: none; stroke: #292929; stroke-width: 0.5; stroke-linejoin: miter"/>
   </g>
   <g id="patch_150">
    <path d="M 125.254844 124.579063 
C 125.254844 124.579063 125.254844 124.579063 125.254844 124.579063 
C 125.254844 124.579063 125.254844 124.579063 125.254844 124.579063 
L 125.254844 124.579063 
C 125.254844 124.579063 125.254844 124.579063 125.254844 124.579063 
C 125.254844 124.579063 125.254844 124.579063 125.254844 124.579063 
L 125.254844 124.579063 
z
" clip-path="url(#p816303f199)" style="fill: none; stroke: #292929; stroke-width: 0.5; stroke-linejoin: miter"/>
   </g>
   <g id="patch_151">
    <path d="M 125.254844 124.579063 
C 125.254844 124.579063 125.254844 124.579063 125.254844 124.579063 
C 125.254844 124.579063 125.254844 124.579063 125.254844 124.579063 
L 115.060312 132.945499 
C 115.334158 133.279181 115.624222 133.599217 115.929455 133.904451 
C 116.234689 134.209685 116.554725 134.499748 116.888408 134.773594 
L 125.254844 124.579063 
z
" clip-path="url(#p816303f199)" style="fill: none; stroke: #292929; stroke-width: 0.5; stroke-linejoin: miter"/>
   </g>
   <g id="patch_152">
    <path d="M 125.254844 124.579063 
C 125.254844 124.579063 125.254844 124.579063 125.254844 124.579063 
C 125.254844 124.579063 125.254844 124.579063 125.254844 124.579063 
L 108.052574 133.773867 
C 108.353533 134.336923 108.681956 134.884864 109.036656 135.415709 
C 109.391356 135.946555 109.771904 136.459665 110.176928 136.953188 
L 125.254844 124.579063 
z
" clip-path="url(#p816303f199)" style="fill: none; stroke: #292929; stroke-width: 0.5; stroke-linejoin: miter"/>
   </g>
   <g id="patch_153">
    <path d="M 125.254844 124.579063 
C 125.254844 124.579063 125.254844 124.579063 125.254844 124.579063 
C 125.254844 124.579063 125.254844 124.579063 125.254844 124.579063 
L 103.856227 131.070262 
C 104.068694 131.770671 104.31542 132.460226 104.595516 133.136436 
C 104.875612 133.812647 105.188739 134.474698 105.533766 135.120198 
L 125.254844 124.579063 
z
" clip-path="url(#p816303f199)" style="fill: none; stroke: #292929; stroke-width: 0.5; stroke-linejoin: miter"/>
   </g>
   <g id="patch_154">
    <path d="M 125.254844 124.579063 
C 125.254844 124.579063 125.254844 124.579063 125.254844 124.579063 
C 125.254844 124.579063 125.254844 124.579063 125.254844 124.579063 
L 93.499402 127.706701 
C 93.601774 128.746104 93.755117 129.779854 93.958875 130.804218 
C 94.162634 131.828581 94.416563 132.842324 94.719746 133.841783 
L 125.254844 124.579063 
z
" clip-path="url(#p816303f199)" style="fill: none; stroke: #292929; stroke-width: 0.5; stroke-linejoin: miter"/>
   </g>
   <g id="patch_155">
    <path d="M 125.254844 124.579063 
C 125.254844 124.579063 125.254844 124.579063 125.254844 124.579063 
C 125.254844 124.579063 125.254844 124.579063 125.254844 124.579063 
L 83.36397 120.453172 
C 83.228923 121.824322 83.161278 123.201277 83.161278 124.579062 
C 83.161278 125.956848 83.228923 127.333803 83.36397 128.704953 
L 125.254844 124.579063 
z
" clip-path="url(#p816303f199)" style="fill: none; stroke: #292929; stroke-width: 0.5; stroke-linejoin: miter"/>
   </g>
   <g id="patch_156">
    <path d="M 125.254844 124.579063 
C 125.254844 124.579063 125.254844 124.579063 125.254844 124.579063 
C 125.254844 124.579063 125.254844 124.579063 125.254844 124.579063 
L 72.022561 108.431226 
C 71.494018 110.173598 71.05134 111.94087 70.696125 113.726658 
C 70.340909 115.512447 70.073585 117.314599 69.895118 119.126605 
L 125.254844 124.579063 
z
" clip-path="url(#p816303f199)" style="fill: none; stroke: #292929; stroke-width: 0.5; stroke-linejoin: miter"/>
   </g>
   <g id="patch_157">
    <path d="M 125.254844 124.579063 
C 125.254844 124.579063 125.254844 124.579063 125.254844 124.579063 
C 125.254844 124.579063 125.254844 124.579063 125.254844 124.579063 
L 52.040468 85.445163 
C 50.759557 87.841579 49.597075 90.29944 48.557222 92.809867 
C 47.517369 95.320295 46.601397 97.880264 45.812616 100.480526 
L 125.254844 124.579063 
z
" clip-path="url(#p816303f199)" style="fill: none; stroke: #292929; stroke-width: 0.5; stroke-linejoin: miter"/>
   </g>
   <g id="patch_158">
    <path d="M 125.254844 124.579063 
C 125.254844 124.579063 125.254844 124.579063 125.254844 124.579063 
C 125.254844 124.579063 125.254844 124.579063 125.254844 124.579063 
L 69.127026 78.516153 
C 67.619318 80.3533 66.202718 82.263365 64.882342 84.239447 
C 63.561966 86.215529 62.339407 88.255247 61.219079 90.351233 
L 125.254844 124.579063 
z
" clip-path="url(#p816303f199)" style="fill: none; stroke: #292929; stroke-width: 0.5; stroke-linejoin: miter"/>
   </g>
   <g id="patch_159">
    <path d="M 125.254844 124.579063 
C 125.254844 124.579063 125.254844 124.579063 125.254844 124.579063 
C 125.254844 124.579063 125.254844 124.579063 125.254844 124.579063 
L 67.014393 53.612868 
C 64.691563 55.519165 62.463728 57.538357 60.338933 59.663152 
C 58.214139 61.787947 56.194946 64.015782 54.288649 66.338612 
L 125.254844 124.579063 
z
" clip-path="url(#p816303f199)" style="fill: none; stroke: #292929; stroke-width: 0.5; stroke-linejoin: miter"/>
   </g>
   <g id="patch_160">
    <path d="M 125.254844 124.579063 
C 125.254844 124.579063 125.254844 124.579063 125.254844 124.579063 
C 125.254844 124.579063 125.254844 124.579063 125.254844 124.579063 
L 86.203331 51.518821 
C 83.811961 52.797036 81.484788 54.191889 79.230219 55.698344 
C 76.97565 57.204799 74.796403 58.821039 72.700349 60.541226 
L 125.254844 124.579063 
z
" clip-path="url(#p816303f199)" style="fill: none; stroke: #292929; stroke-width: 0.5; stroke-linejoin: miter"/>
   </g>
   <g id="patch_161">
    <path d="M 125.254844 124.579063 
C 125.254844 124.579063 125.254844 124.579063 125.254844 124.579063 
C 125.254844 124.579063 125.254844 124.579063 125.254844 124.579063 
L 93.068078 18.473517 
C 89.595085 19.527037 86.175911 20.750438 82.822904 22.139298 
C 79.469898 23.528159 76.187101 25.080806 72.986373 26.791631 
L 125.254844 124.579063 
z
" clip-path="url(#p816303f199)" style="fill: none; stroke: #292929; stroke-width: 0.5; stroke-linejoin: miter"/>
   </g>
   <g id="patch_162">
    <path d="M 125.254844 124.579063 
C 125.254844 124.579063 125.254844 124.579063 125.254844 124.579063 
C 125.254844 124.579063 125.254844 124.579063 125.254844 124.579063 
L 118.409648 55.078627 
C 116.134795 55.302681 113.872314 55.638288 111.630376 56.084237 
C 109.388438 56.530187 107.169746 57.08594 104.982315 57.74949 
L 125.254844 124.579063 
z
" clip-path="url(#p816303f199)" style="fill: none; stroke: #292929; stroke-width: 0.5; stroke-linejoin: miter"/>
   </g>
   <g id="PathCollection_1">
    <defs>
     <path id="m86bced6030" d="M 0.193618 7.414054 
L 0.193618 7.414054 
C 0.054922 7.414054 -0.078235 7.358899 -0.176308 7.260826 
C -0.274381 7.162753 -0.329536 7.029596 -0.329536 6.890901 
L -0.329536 5.365008 
L -1.528416 6.56393 
L -1.528416 6.56393 
C -1.577018 6.612704 -1.634775 6.651408 -1.698366 6.677814 
C -1.761958 6.704221 -1.830141 6.717815 -1.898997 6.717815 
C -1.967853 6.717815 -2.036037 6.704221 -2.099628 6.677814 
C -2.163219 6.651408 -2.220976 6.612704 -2.269578 6.56393 
L -2.269578 6.56393 
C -2.318353 6.515327 -2.357056 6.457571 -2.383463 6.393979 
C -2.409869 6.330388 -2.423463 6.262205 -2.423463 6.193348 
C -2.423463 6.124492 -2.409869 6.056309 -2.383463 5.992718 
C -2.357056 5.929126 -2.318353 5.87137 -2.269578 5.822767 
L -0.329536 3.884106 
L -0.329536 0.820937 
L -2.98067 2.351538 
L -3.691824 5.001416 
L -3.691824 5.001416 
C -3.727584 5.135411 -3.815199 5.249836 -3.93523 5.319305 
C -4.055261 5.388775 -4.198123 5.407741 -4.332122 5.371997 
L -4.332122 5.371997 
C -4.466126 5.336237 -4.580558 5.248616 -4.650029 5.128576 
C -4.719499 5.008535 -4.73846 4.865662 -4.702703 4.731657 
L -4.262647 3.092721 
L -5.585535 3.855668 
L -5.585535 3.855668 
C -5.645013 3.890144 -5.710708 3.912561 -5.778854 3.921634 
C -5.847001 3.930706 -5.916272 3.926258 -5.982698 3.908543 
C -6.049125 3.890828 -6.111412 3.860192 -6.165991 3.818391 
C -6.220571 3.77659 -6.266379 3.724437 -6.300791 3.664922 
L -6.300791 3.664922 
C -6.335212 3.605364 -6.35755 3.539597 -6.366524 3.471396 
C -6.375498 3.403194 -6.370933 3.333888 -6.35309 3.267452 
C -6.335248 3.201017 -6.304476 3.138749 -6.26254 3.08422 
C -6.220605 3.029692 -6.168323 2.983966 -6.108695 2.949666 
L -4.785807 2.186762 
L -6.424743 1.746706 
L -6.424743 1.746706 
C -6.558747 1.710946 -6.673179 1.623325 -6.74265 1.503284 
C -6.81212 1.383244 -6.831081 1.240371 -6.795324 1.106366 
L -6.795324 1.106366 
C -6.777471 1.039969 -6.746703 0.977739 -6.704784 0.923241 
C -6.662864 0.868744 -6.61061 0.823041 -6.551015 0.788752 
C -6.491421 0.754464 -6.425647 0.732257 -6.357465 0.723406 
C -6.289282 0.714554 -6.220019 0.71923 -6.153645 0.737166 
L -3.505232 1.44698 
L -0.852424 -0.08496 
L -3.503767 -1.615666 
L -6.153645 -0.905851 
L -6.153645 -0.905851 
C -6.22011 -0.887939 -6.289462 -0.883321 -6.357716 -0.892262 
C -6.42597 -0.901202 -6.491793 -0.923527 -6.551403 -0.957953 
C -6.611013 -0.992379 -6.663247 -1.038234 -6.705103 -1.092883 
C -6.746958 -1.147533 -6.777619 -1.209911 -6.795324 -1.276432 
L -6.795324 -1.276432 
C -6.831068 -1.410431 -6.812101 -1.553293 -6.742632 -1.673324 
C -6.673162 -1.793355 -6.558738 -1.88097 -6.424743 -1.91673 
L -4.785807 -2.355447 
L -6.108695 -3.119732 
L -6.108695 -3.119732 
C -6.228699 -3.188976 -6.316415 -3.303132 -6.352417 -3.436921 
C -6.388419 -3.57071 -6.369839 -3.713469 -6.300791 -3.833586 
L -6.300791 -3.833586 
C -6.266491 -3.893214 -6.220765 -3.945496 -6.166237 -3.987431 
C -6.111708 -4.029367 -6.04944 -4.060139 -5.983005 -4.077981 
C -5.91657 -4.095823 -5.847263 -4.100389 -5.779062 -4.091415 
C -5.71086 -4.082441 -5.645094 -4.060102 -5.585535 -4.025682 
L -4.262647 -3.261396 
L -4.702703 -4.900332 
L -4.702703 -4.900332 
C -4.73846 -5.034337 -4.719499 -5.17721 -4.650029 -5.29725 
C -4.580558 -5.417291 -4.466126 -5.504912 -4.332122 -5.540672 
L -4.332122 -5.540672 
C -4.19831 -5.576464 -4.055613 -5.557686 -3.935617 -5.488496 
C -3.81562 -5.419305 -3.727882 -5.305212 -3.691824 -5.171472 
L -2.982009 -2.521594 
L -0.329411 -0.990302 
L -0.329411 -4.051588 
L -2.269453 -5.991589 
L -2.269453 -5.991589 
C -2.318227 -6.040191 -2.356931 -6.097947 -2.383337 -6.161539 
C -2.409744 -6.22513 -2.423338 -6.293314 -2.423338 -6.36217 
C -2.423338 -6.431026 -2.409744 -6.499209 -2.383337 -6.5628 
C -2.356931 -6.626392 -2.318227 -6.684149 -2.269453 -6.732751 
L -2.269453 -6.732751 
C -2.22085 -6.781526 -2.163094 -6.820229 -2.099502 -6.846635 
C -2.035911 -6.873042 -1.967728 -6.886636 -1.898871 -6.886636 
C -1.830015 -6.886636 -1.761832 -6.873042 -1.698241 -6.846635 
C -1.634649 -6.820229 -1.576893 -6.781526 -1.52829 -6.732751 
L -0.329411 -5.533829 
L -0.329411 -7.059722 
L -0.329411 -7.059722 
C -0.329411 -7.198418 -0.274255 -7.331575 -0.176182 -7.429647 
C -0.07811 -7.52772 0.055047 -7.582875 0.193743 -7.582875 
L 0.193743 -7.582875 
C 0.332439 -7.582875 0.465596 -7.52772 0.563669 -7.429647 
C 0.661741 -7.331575 0.716897 -7.198418 0.716897 -7.059722 
L 0.716897 -5.533829 
L 1.915777 -6.732751 
L 1.915777 -6.732751 
C 1.964379 -6.781526 2.022136 -6.820229 2.085727 -6.846635 
C 2.149318 -6.873042 2.217502 -6.886636 2.286358 -6.886636 
C 2.355214 -6.886636 2.423397 -6.873042 2.486989 -6.846635 
C 2.55058 -6.820229 2.608337 -6.781526 2.656939 -6.732751 
L 2.656939 -6.732751 
C 2.705714 -6.684149 2.744417 -6.626392 2.770823 -6.5628 
C 2.79723 -6.499209 2.810824 -6.431026 2.810824 -6.36217 
C 2.810824 -6.293314 2.79723 -6.22513 2.770823 -6.161539 
C 2.744417 -6.097947 2.705714 -6.040191 2.656939 -5.991589 
L 0.716897 -4.051588 
L 0.716897 -0.991139 
L 3.369495 -2.522954 
L 4.07931 -5.171367 
L 4.07931 -5.171367 
C 4.115368 -5.305107 4.203106 -5.4192 4.323103 -5.488391 
C 4.4431 -5.557582 4.585797 -5.576359 4.719608 -5.540567 
L 4.719608 -5.540567 
C 4.853612 -5.504807 4.968045 -5.417186 5.037515 -5.297146 
C 5.106986 -5.177105 5.125946 -5.034232 5.090189 -4.900227 
L 4.650133 -3.262673 
L 5.973022 -4.025577 
L 5.973022 -4.025577 
C 6.03258 -4.059998 6.098346 -4.082336 6.166548 -4.09131 
C 6.234749 -4.100284 6.304056 -4.095719 6.370491 -4.077876 
C 6.436926 -4.060034 6.499194 -4.029262 6.553723 -3.987327 
C 6.608252 -3.945391 6.653978 -3.893109 6.688277 -3.833481 
L 6.688277 -3.833481 
C 6.757325 -3.713365 6.775905 -3.570605 6.739903 -3.436816 
C 6.703901 -3.303027 6.616186 -3.188871 6.496181 -3.119628 
L 5.173293 -2.355342 
L 6.812229 -1.916625 
L 6.812229 -1.916625 
C 6.946224 -1.880865 7.060649 -1.79325 7.130118 -1.67322 
C 7.199588 -1.553189 7.218554 -1.410326 7.18281 -1.276327 
L 7.18281 -1.276327 
C 7.165106 -1.209806 7.134445 -1.147429 7.092589 -1.092779 
C 7.050733 -1.038129 6.998499 -0.992274 6.938889 -0.957848 
C 6.879279 -0.923422 6.813456 -0.901098 6.745202 -0.892157 
C 6.676949 -0.883217 6.607597 -0.887835 6.541131 -0.905746 
L 3.891253 -1.615561 
L 1.239492 -0.084604 
L 3.892718 1.447085 
L 6.541131 0.73727 
L 6.541131 0.73727 
C 6.674948 0.701466 6.817656 0.720237 6.937662 0.789429 
C 7.057669 0.858621 7.145413 0.972721 7.181471 1.10647 
L 7.181471 1.10647 
C 7.217274 1.240293 7.198497 1.383006 7.129297 1.503014 
C 7.060096 1.623021 6.945986 1.710762 6.812229 1.74681 
L 5.173293 2.186866 
L 6.496181 2.949771 
L 6.496181 2.949771 
C 6.555697 2.984183 6.607849 3.029991 6.649651 3.08457 
C 6.691452 3.13915 6.722088 3.201437 6.739803 3.267863 
C 6.757517 3.33429 6.761966 3.403561 6.752893 3.471707 
C 6.743821 3.539854 6.721404 3.605549 6.686927 3.665026 
L 6.686927 3.665026 
C 6.617458 3.784813 6.503196 3.87225 6.369416 3.907994 
C 6.235636 3.943739 6.092989 3.924946 5.973032 3.855772 
L 4.650144 3.091487 
L 5.08886 4.731783 
L 5.08886 4.731783 
C 5.124664 4.865606 5.105887 5.008319 5.036686 5.128326 
C 4.967486 5.248334 4.853376 5.336074 4.719619 5.372123 
L 4.719619 5.372123 
C 4.585619 5.407867 4.442757 5.3889 4.322726 5.319431 
C 4.202695 5.249961 4.115081 5.135537 4.07932 5.001542 
L 3.368166 2.351664 
L 0.717033 0.821063 
L 0.717033 3.884232 
L 2.657075 5.822893 
L 2.657075 5.822893 
C 2.70585 5.871495 2.744553 5.929252 2.770959 5.992843 
C 2.797366 6.056435 2.81096 6.124618 2.81096 6.193474 
C 2.81096 6.26233 2.797366 6.330514 2.770959 6.394105 
C 2.744553 6.457696 2.70585 6.515453 2.657075 6.564055 
L 2.657075 6.564055 
C 2.608473 6.61283 2.550716 6.651533 2.487125 6.67794 
C 2.423533 6.704346 2.35535 6.71794 2.286494 6.71794 
C 2.217638 6.71794 2.149454 6.704346 2.085863 6.67794 
C 2.022272 6.651533 1.964515 6.61283 1.915913 6.564055 
L 0.717033 5.365133 
L 0.717033 6.891026 
L 0.717033 6.891026 
C 0.717033 7.029722 0.661877 7.162879 0.563805 7.260952 
C 0.465732 7.359024 0.332575 7.41418 0.193879 7.41418 
L 0.193618 7.414054 
z
"/>
    </defs>
    <g clip-path="url(#p816303f199)">
     <use xlink:href="#m86bced6030" x="88.565986" y="44.856414" style="fill: #9e2096; fill-opacity: 0.7"/>
    </g>
   </g>
   <g id="patch_163">
    <path d="M 125.254844 13.699063 
C 110.694216 13.699063 96.275171 16.567189 82.822905 22.1393 
C 69.370638 27.711411 57.146763 35.879144 46.850844 46.175063 
C 36.554925 56.470982 28.387192 68.694857 22.815081 82.147124 
C 17.24297 95.59939 14.374844 110.018434 14.374844 124.579063 
C 14.374844 139.139691 17.24297 153.558735 22.815081 167.011001 
C 28.387192 180.463268 36.554925 192.687143 46.850844 202.983062 
C 57.146763 213.278981 69.370638 221.446714 82.822905 227.018825 
C 96.275171 232.590936 110.694216 235.459063 125.254844 235.459063 
C 139.815472 235.459063 154.234516 232.590936 167.686783 227.018825 
C 181.139049 221.446714 193.362925 213.278981 203.658844 202.983062 
C 213.954763 192.687143 222.122495 180.463268 227.694606 167.011001 
C 233.266717 153.558735 236.134844 139.139691 236.134844 124.579063 
C 236.134844 110.018434 233.266717 95.59939 227.694606 82.147124 
C 222.122495 68.694857 213.954763 56.470982 203.658844 46.175063 
C 193.362925 35.879144 181.139049 27.711411 167.686783 22.1393 
C 154.234516 16.567189 139.815472 13.699063 125.254844 13.699063 
" style="fill: none; stroke: #000000; stroke-width: 0.8; stroke-linejoin: miter; stroke-linecap: square"/>
   </g>
  </g>
 </g>
 <defs>
  <clipPath id="p816303f199">
   <path d="M 236.134844 124.579063 
C 236.134844 110.018434 233.266717 95.59939 227.694606 82.147124 
C 222.122495 68.694857 213.954763 56.470982 203.658844 46.175063 
C 193.362925 35.879144 181.139049 27.711411 167.686783 22.1393 
C 154.234516 16.567189 139.815472 13.699063 125.254844 13.699063 
C 110.694216 13.699063 96.275171 16.567189 82.822905 22.1393 
C 69.370638 27.711411 57.146763 35.879144 46.850844 46.175063 
C 36.554925 56.470982 28.387192 68.694857 22.815081 82.147124 
C 17.24297 95.59939 14.374844 110.018434 14.374844 124.579062 
C 14.374844 139.139691 17.24297 153.558735 22.815081 167.011001 
C 28.387192 180.463268 36.554925 192.687143 46.850844 202.983062 
C 57.146763 213.278981 69.370638 221.446714 82.822905 227.018825 
C 96.275171 232.590936 110.694216 235.459063 125.254844 235.459063 
C 139.815472 235.459063 154.234516 232.590936 167.686783 227.018825 
C 181.139049 221.446714 193.362925 213.278981 203.658844 202.983062 
C 213.954763 192.687143 222.122495 180.463268 227.694606 167.011001 
C 233.266717 153.558735 236.134844 139.139691 236.134844 124.579063 
M 125.254844 124.579063 
C 125.254844 124.579063 125.254844 124.579063 125.254844 124.579063 
C 125.254844 124.579063 125.254844 124.579063 125.254844 124.579063 
C 125.254844 124.579063 125.254844 124.579063 125.254844 124.579063 
C 125.254844 124.579063 125.254844 124.579063 125.254844 124.579063 
C 125.254844 124.579063 125.254844 124.579063 125.254844 124.579063 
C 125.254844 124.579063 125.254844 124.579063 125.254844 124.579063 
C 125.254844 124.579063 125.254844 124.579063 125.254844 124.579063 
C 125.254844 124.579063 125.254844 124.579063 125.254844 124.579063 
C 125.254844 124.579063 125.254844 124.579063 125.254844 124.579063 
C 125.254844 124.579063 125.254844 124.579063 125.254844 124.579063 
C 125.254844 124.579063 125.254844 124.579063 125.254844 124.579063 
C 125.254844 124.579063 125.254844 124.579063 125.254844 124.579063 
C 125.254844 124.579063 125.254844 124.579063 125.254844 124.579063 
C 125.254844 124.579063 125.254844 124.579063 125.254844 124.579063 
C 125.254844 124.579063 125.254844 124.579063 125.254844 124.579063 
C 125.254844 124.579063 125.254844 124.579063 125.254844 124.579063 
z
"/>
  </clipPath>
 </defs>
</svg>
