<?xml version="1.0" encoding="utf-8" standalone="no"?>
<!DOCTYPE svg PUBLIC "-//W3C//DTD SVG 1.1//EN"
  "http://www.w3.org/Graphics/SVG/1.1/DTD/svg11.dtd">
<svg xmlns:xlink="http://www.w3.org/1999/xlink" width="248.410469pt" height="249.158125pt" viewBox="0 0 248.410469 249.158125" xmlns="http://www.w3.org/2000/svg" version="1.1">
 <title>Ski Rose for Whaleback Mountain</title>
 <metadata>
  <rdf:RDF xmlns:dc="http://purl.org/dc/elements/1.1/" xmlns:cc="http://creativecommons.org/ns#" xmlns:rdf="http://www.w3.org/1999/02/22-rdf-syntax-ns#">
   <cc:Work>
    <dc:type rdf:resource="http://purl.org/dc/dcmitype/StillImage"/>
    <dc:title>Ski Rose for Whaleback Mountain</dc:title>
    <dc:date>2025-03-02T00:04:59.527696</dc:date>
    <dc:description>A 32-bin stacked histogram of downhill ski run orientations colored by difficulty.</dc:description>
    <dc:format>image/svg+xml</dc:format>
    <dc:source>https://openskimap.org/?obj=28cb013693827a90d778603d8bb6bc0cfd3999c0</dc:source>
    <dc:creator>
     <cc:Agent>
      <dc:title>https://github.com/dhimmel/openskistats</dc:title>
     </cc:Agent>
    </dc:creator>
    <dc:rights>
     <cc:Agent>
      <dc:title>https://creativecommons.org/licenses/by/4.0/</dc:title>
     </cc:Agent>
    </dc:rights>
   </cc:Work>
  </rdf:RDF>
 </metadata>
 <defs>
  <style type="text/css">*{stroke-linejoin: round; stroke-linecap: butt}</style>
 </defs>
 <g id="figure_1">
  <g id="patch_1">
   <path d="M 0 249.158125 
L 248.410469 249.158125 
L 248.410469 0 
L 0 0 
z
" style="fill: #ffffff"/>
  </g>
  <g id="axes_1">
   <g id="patch_2">
    <path d="M 236.134844 124.579063 
C 236.134844 110.018434 233.266717 95.59939 227.694606 82.147124 
C 222.122495 68.694857 213.954763 56.470982 203.658844 46.175063 
C 193.362925 35.879144 181.139049 27.711411 167.686783 22.1393 
C 154.234516 16.567189 139.815472 13.699062 125.254844 13.699062 
C 110.694216 13.699062 96.275171 16.567189 82.822905 22.1393 
C 69.370638 27.711411 57.146763 35.879144 46.850844 46.175063 
C 36.554925 56.470982 28.387192 68.694857 22.815081 82.147124 
C 17.24297 95.59939 14.374844 110.018434 14.374844 124.579062 
C 14.374844 139.139691 17.24297 153.558735 22.815081 167.011001 
C 28.387192 180.463268 36.554925 192.687143 46.850844 202.983062 
C 57.146763 213.278981 69.370638 221.446714 82.822905 227.018825 
C 96.275171 232.590936 110.694216 235.459063 125.254844 235.459063 
C 139.815472 235.459063 154.234516 232.590936 167.686783 227.018825 
C 181.139049 221.446714 193.362925 213.278981 203.658844 202.983062 
C 213.954763 192.687143 222.122495 180.463268 227.694606 167.011001 
C 233.266717 153.558735 236.134844 139.139691 236.134844 124.579063 
M 125.254844 124.579063 
C 125.254844 124.579063 125.254844 124.579063 125.254844 124.579063 
C 125.254844 124.579063 125.254844 124.579063 125.254844 124.579063 
C 125.254844 124.579063 125.254844 124.579063 125.254844 124.579063 
C 125.254844 124.579063 125.254844 124.579063 125.254844 124.579063 
C 125.254844 124.579063 125.254844 124.579063 125.254844 124.579063 
C 125.254844 124.579063 125.254844 124.579063 125.254844 124.579063 
C 125.254844 124.579063 125.254844 124.579063 125.254844 124.579063 
C 125.254844 124.579063 125.254844 124.579063 125.254844 124.579063 
C 125.254844 124.579063 125.254844 124.579063 125.254844 124.579063 
C 125.254844 124.579063 125.254844 124.579063 125.254844 124.579063 
C 125.254844 124.579063 125.254844 124.579063 125.254844 124.579063 
C 125.254844 124.579063 125.254844 124.579063 125.254844 124.579063 
C 125.254844 124.579063 125.254844 124.579063 125.254844 124.579063 
C 125.254844 124.579063 125.254844 124.579063 125.254844 124.579063 
C 125.254844 124.579063 125.254844 124.579063 125.254844 124.579063 
C 125.254844 124.579063 125.254844 124.579063 125.254844 124.579063 
z
" style="fill: #ffffff"/>
   </g>
   <g id="PolyCollection_1">
    <defs>
     <path id="m7b4497629c" d="M 235.280725 -137.114928 
L 234.905304 -137.072154 
L 233.932454 -135.043526 
L 233.074316 -133.064639 
L 231.941154 -131.104277 
L 230.749451 -129.185057 
L 229.509181 -127.309058 
L 228.226752 -125.477685 
L 227.126967 -123.690038 
L 225.773018 -121.946901 
L 224.387309 -120.250846 
L 222.972331 -118.602405 
L 221.750771 -116.984668 
L 220.283337 -115.428859 
L 218.792795 -113.921759 
L 217.499491 -112.434824 
L 215.967477 -111.021969 
L 214.634165 -109.622094 
L 213.067496 -108.303949 
L 211.700319 -106.991532 
L 210.105675 -105.768086 
L 208.710692 -104.543086 
L 207.303179 -103.35992 
L 205.677883 -102.27578 
L 204.251412 -101.179213 
L 202.816608 -100.123932 
L 201.374816 -99.109676 
L 199.927374 -98.136133 
L 198.475611 -97.202939 
L 197.020848 -96.309682 
L 195.754253 -95.377251 
L 194.294518 -94.559758 
L 192.835555 -93.780758 
L 191.559806 -92.953218 
L 190.102955 -92.246987 
L 188.825472 -91.486288 
L 187.375237 -90.850441 
L 186.100046 -90.154503 
L 184.825839 -89.489064 
L 183.391785 -88.952699 
L 182.125557 -88.348423 
L 180.862938 -87.772868 
L 179.604736 -87.225416 
L 178.351738 -86.705416 
L 177.104709 -86.21218 
L 175.864389 -85.744993 
L 174.631492 -85.303103 
L 173.538896 -84.776761 
L 172.318899 -84.382562 
L 171.10825 -84.011396 
L 170.028174 -83.551864 
L 168.833875 -83.224106 
L 167.763489 -82.805934 
L 166.58754 -82.518606 
L 165.528608 -82.13937 
L 164.372776 -81.88933 
L 163.32686 -81.546476 
L 162.286131 -81.220996 
L 161.1611 -81.02129 
L 160.13531 -80.728306 
L 159.115547 -80.450935 
L 158.102042 -80.188622 
L 157.095003 -79.940805 
L 156.094614 -79.706918 
L 155.101033 -79.486389 
L 154.114393 -79.278645 
L 153.1348 -79.083109 
L 152.162336 -78.899205 
L 151.197057 -78.726355 
L 150.238991 -78.563987 
L 149.288141 -78.411528 
L 148.344482 -78.268412 
L 147.407964 -78.13408 
L 146.516486 -77.924647 
L 145.590998 -77.80911 
L 144.67243 -77.700863 
L 143.760633 -77.599381 
L 142.882453 -77.43188 
L 141.981024 -77.345786 
L 141.085878 -77.26509 
L 140.21667 -77.126212 
L 139.331036 -77.058634 
L 138.451012 -76.995217 
L 137.59002 -76.882476 
L 136.718341 -76.83016 
L 135.851435 -76.780929 
L 134.997544 -76.692159 
L 134.137541 -76.652315 
L 133.287224 -76.579448 
L 132.433122 -76.548082 
L 131.585822 -76.490507 
L 130.736537 -76.466861 
L 129.889666 -76.444593 
L 129.046023 -76.407558 
L 128.202082 -76.392142 
L 127.359725 -76.369362 
L 126.517492 -76.360464 
L 125.675717 -76.351761 
L 124.833976 -76.352451 
L 123.992183 -76.359994 
L 123.150294 -76.37694 
L 122.307529 -76.39089 
L 121.464799 -76.421976 
L 120.619827 -76.442573 
L 119.775563 -76.488033 
L 118.92718 -76.515686 
L 118.076085 -76.544869 
L 117.227771 -76.611169 
L 116.371419 -76.648391 
L 115.519891 -76.73024 
L 114.657232 -76.776327 
L 113.801963 -76.874382 
L 112.932038 -76.930308 
L 112.05712 -76.989608 
L 111.19452 -77.112204 
L 110.310969 -77.183147 
L 109.421635 -77.258589 
L 108.550689 -77.407985 
L 107.651643 -77.497163 
L 106.746194 -77.592117 
L 105.866259 -77.770877 
L 104.950339 -77.881898 
L 104.027583 -78.00009 
L 103.097864 -78.125989 
L 102.16108 -78.260138 
L 101.264072 -78.493218 
L 100.316239 -78.647867 
L 99.361254 -78.812297 
L 98.399114 -78.98708 
L 97.429843 -79.172788 
L 96.453493 -79.369997 
L 95.47014 -79.579283 
L 94.479886 -79.801222 
L 93.482862 -80.036387 
L 92.479221 -80.28535 
L 91.469141 -80.548678 
L 90.367283 -80.719387 
L 89.341293 -81.012442 
L 88.309544 -81.321675 
L 87.272315 -81.647624 
L 86.129089 -81.880793 
L 85.078169 -82.241681 
L 84.022753 -82.620983 
L 82.850892 -82.908816 
L 81.784014 -83.326786 
L 80.593783 -83.654741 
L 79.393058 -84.003982 
L 78.31058 -84.484874 
L 77.094593 -84.878815 
L 75.869864 -85.296476 
L 74.776491 -85.84566 
L 73.540095 -86.312161 
L 72.296955 -86.804568 
L 71.047809 -87.3236 
L 69.793419 -87.869946 
L 68.53457 -88.444263 
L 67.272067 -89.047172 
L 65.842199 -89.58234 
L 64.57162 -90.246146 
L 63.300007 -90.940331 
L 61.85379 -91.574563 
L 60.579778 -92.333264 
L 59.126825 -93.037615 
L 57.854434 -93.862926 
L 56.399245 -94.639796 
L 54.943219 -95.455034 
L 53.679807 -96.384906 
L 52.228624 -97.275678 
L 50.780375 -98.20627 
L 49.33638 -99.1771 
L 47.897968 -100.188533 
L 46.466476 -101.240885 
L 45.043248 -102.334418 
L 43.421562 -103.415537 
L 42.017152 -104.595461 
L 40.625203 -105.817123 
L 39.247084 -107.080586 
L 37.669659 -108.346108 
L 36.322081 -109.696822 
L 34.775648 -111.056856 
L 33.464695 -112.49466 
L 31.95597 -113.948999 
L 30.468313 -115.452158 
L 29.223692 -117.021247 
L 27.784354 -118.617512 
L 26.371883 -120.261739 
L 24.988492 -121.953496 
L 23.85662 -123.694174 
L 22.538279 -125.475456 
L 21.25713 -127.302338 
L 20.017371 -129.17383 
L 19.038475 -131.075534 
L 17.897762 -133.028248 
L 16.825133 -135.019656 
L 15.841397 -137.04515 
L 15.090342 -137.130722 
L 15.090342 -137.130722 
L 14.965513 -135.198717 
L 14.723586 -133.278061 
L 14.73824 -131.338548 
L 14.561717 -129.412029 
L 14.417639 -127.481437 
L 14.493087 -125.545666 
L 14.413116 -123.611761 
L 14.593733 -121.681299 
L 14.577802 -119.746799 
L 14.593512 -117.810725 
L 14.826602 -115.888171 
L 14.903863 -113.953472 
L 15.196784 -112.03953 
L 15.334688 -110.107799 
L 15.737449 -108.211578 
L 15.9371 -106.285546 
L 16.348883 -104.394536 
L 16.609283 -102.474873 
L 17.079432 -100.597151 
L 17.458124 -98.69936 
L 17.930226 -96.823029 
L 18.487941 -94.96998 
L 18.961812 -93.093632 
L 19.519379 -91.240799 
L 20.165338 -89.416606 
L 20.779253 -87.582316 
L 21.483502 -85.780548 
L 22.115893 -83.951549 
L 22.821866 -82.149934 
L 23.61879 -80.386449 
L 24.390921 -78.612725 
L 25.200648 -76.855659 
L 26.050801 -75.117751 
L 26.944089 -73.401723 
L 27.812218 -71.672033 
L 28.756553 -69.982956 
L 29.72678 -68.308732 
L 30.71567 -66.645382 
L 31.74392 -65.006034 
L 33.025062 -63.533502 
L 34.903976 -62.482631 
L 36.816685 -61.496737 
L 38.680704 -60.517569 
L 40.556969 -59.588098 
L 42.437171 -58.702911 
L 44.319586 -57.861184 
L 46.19881 -57.058831 
L 48.075129 -56.296219 
L 49.944239 -55.569608 
L 51.807296 -54.879942 
L 53.604608 -54.168571 
L 55.450045 -53.545184 
L 57.232868 -52.898856 
L 59.008168 -52.283502 
L 60.775257 -51.698147 
L 62.533508 -51.141814 
L 64.282354 -50.613517 
L 66.021278 -50.112265 
L 67.749821 -49.637057 
L 69.467569 -49.186888 
L 71.137039 -48.708698 
L 72.834027 -48.306301 
L 74.484401 -47.873291 
L 76.127742 -47.464959 
L 77.792519 -47.127587 
L 79.415397 -46.759125 
L 81.030658 -46.413078 
L 82.635566 -46.084118 
L 84.23263 -45.776124 
L 85.819266 -45.48353 
L 87.397972 -45.21048 
L 88.947473 -44.909809 
L 90.508248 -44.667364 
L 92.061178 -44.442465 
L 93.589427 -44.191719 
L 95.125023 -43.993197 
L 96.653143 -43.81035 
L 98.160999 -43.604095 
L 99.663131 -43.412521 
L 101.168457 -43.264782 
L 102.658585 -43.099585 
L 104.151122 -42.977026 
L 105.630156 -42.836354 
L 107.104493 -42.708119 
L 108.574378 -42.591955 
L 110.040075 -42.487515 
L 111.504749 -42.411734 
L 112.962337 -42.327977 
L 114.41668 -42.255035 
L 115.8681 -42.192668 
L 117.316929 -42.140662 
L 118.763509 -42.098832 
L 120.208191 -42.067019 
L 121.651333 -42.045096 
L 123.093298 -42.032963 
L 124.534454 -42.030549 
L 125.975211 -42.033105 
L 127.416289 -42.036784 
L 128.858144 -42.049912 
L 130.301141 -42.072825 
L 131.745644 -42.10562 
L 133.193302 -42.135021 
L 134.642335 -42.186107 
L 136.093991 -42.247563 
L 137.548602 -42.319606 
L 139.006488 -42.402475 
L 140.467958 -42.496441 
L 141.933307 -42.601797 
L 143.402813 -42.718863 
L 144.882509 -42.823954 
L 146.361975 -42.963843 
L 147.84639 -43.116577 
L 149.345745 -43.249543 
L 150.841767 -43.427709 
L 152.343347 -43.620061 
L 153.862562 -43.793357 
L 155.376839 -44.014127 
L 156.91303 -44.210075 
L 158.456405 -44.423402 
L 159.991424 -44.690398 
L 161.552879 -44.930293 
L 163.121674 -45.189601 
L 164.70144 -45.461431 
L 166.288507 -45.754129 
L 167.886709 -46.060935 
L 169.492031 -46.390098 
L 171.108504 -46.734994 
L 172.731773 -47.103755 
L 174.366056 -47.489901 
L 176.006665 -47.901424 
L 177.692789 -48.281379 
L 179.35404 -48.734787 
L 181.061553 -49.160624 
L 182.780225 -49.610527 
L 184.464963 -50.141741 
L 186.202896 -50.643163 
L 187.950751 -51.171587 
L 189.708016 -51.728004 
L 191.474124 -52.313399 
L 193.302711 -52.871573 
L 195.086437 -53.517917 
L 196.876917 -54.196247 
L 198.730141 -54.853608 
L 200.594945 -55.542579 
L 202.403634 -56.323579 
L 204.276885 -57.087863 
L 206.157504 -57.888056 
L 208.036995 -58.731166 
L 209.918791 -59.614131 
L 211.862543 -60.492736 
L 213.72563 -61.473464 
L 215.57162 -62.506062 
L 217.451353 -63.555524 
L 218.769028 -65.003957 
L 219.793098 -66.645946 
L 220.760842 -68.32173 
L 221.708964 -70.007947 
L 222.682749 -71.680026 
L 223.578404 -73.395057 
L 224.395031 -75.149589 
L 225.285374 -76.866947 
L 226.107204 -78.617994 
L 226.877606 -80.392228 
L 227.5979 -82.187181 
L 228.395493 -83.95088 
L 229.006797 -85.787797 
L 229.734127 -87.581008 
L 230.350416 -89.414576 
L 230.976903 -91.245025 
L 231.557533 -93.090771 
L 232.092587 -94.950334 
L 232.582398 -96.82227 
L 233.027349 -98.705173 
L 233.42787 -100.59768 
L 233.898507 -102.475259 
L 234.217423 -104.384042 
L 234.551043 -106.289151 
L 234.90977 -108.191024 
L 235.152913 -110.110707 
L 235.300666 -112.040925 
L 235.549401 -113.958905 
L 235.763353 -115.881854 
L 235.840876 -117.815331 
L 236.023707 -119.742789 
L 235.982383 -121.67956 
L 236.092836 -123.611794 
L 236.130556 -125.54666 
L 235.983968 -127.478607 
L 235.991156 -129.413914 
L 235.927257 -131.348077 
L 235.719343 -133.272807 
L 235.589511 -135.203083 
L 235.280725 -137.114928 
z
" style="stroke: #ffee9c"/>
    </defs>
    <g clip-path="url(#pe792cf2375)">
     <use xlink:href="#m7b4497629c" x="0" y="249.158125" style="fill: #ffee9c; stroke: #ffee9c"/>
    </g>
   </g>
   <g id="matplotlib.axis_1">
    <g id="xtick_1">
     <g id="line2d_1">
      <path d="M 125.254844 124.579062 
L 125.254844 13.699062 
" clip-path="url(#pe792cf2375)" style="fill: none; stroke: #b0b0b0; stroke-width: 0.8; stroke-linecap: square"/>
     </g>
     <g id="text_1">
      <!-- N -->
      <g transform="translate(121.070469 7.958437) scale(0.1 -0.1)">
       <defs>
        <path id="DejaVuSans-Bold-4e" d="M 588 4666 
L 1931 4666 
L 3628 1466 
L 3628 4666 
L 4769 4666 
L 4769 0 
L 3425 0 
L 1728 3200 
L 1728 0 
L 588 0 
L 588 4666 
z
" transform="scale(0.015625)"/>
       </defs>
       <use xlink:href="#DejaVuSans-Bold-4e"/>
      </g>
     </g>
    </g>
    <g id="xtick_2">
     <g id="line2d_2">
      <path d="M 125.254844 124.579062 
L 203.658844 46.175063 
" clip-path="url(#pe792cf2375)" style="fill: none; stroke: #b0b0b0; stroke-width: 0.8; stroke-linecap: square"/>
     </g>
    </g>
    <g id="xtick_3">
     <g id="line2d_3">
      <path d="M 125.254844 124.579062 
L 236.134844 124.579062 
" clip-path="url(#pe792cf2375)" style="fill: none; stroke: #b0b0b0; stroke-width: 0.8; stroke-linecap: square"/>
     </g>
     <g id="text_2">
      <!-- E -->
      <g transform="translate(241.219219 127.338437) scale(0.1 -0.1)">
       <defs>
        <path id="DejaVuSans-Bold-45" d="M 588 4666 
L 3834 4666 
L 3834 3756 
L 1791 3756 
L 1791 2888 
L 3713 2888 
L 3713 1978 
L 1791 1978 
L 1791 909 
L 3903 909 
L 3903 0 
L 588 0 
L 588 4666 
z
" transform="scale(0.015625)"/>
       </defs>
       <use xlink:href="#DejaVuSans-Bold-45"/>
      </g>
     </g>
    </g>
    <g id="xtick_4">
     <g id="line2d_4">
      <path d="M 125.254844 124.579062 
L 203.658844 202.983062 
" clip-path="url(#pe792cf2375)" style="fill: none; stroke: #b0b0b0; stroke-width: 0.8; stroke-linecap: square"/>
     </g>
    </g>
    <g id="xtick_5">
     <g id="line2d_5">
      <path d="M 125.254844 124.579062 
L 125.254844 235.459063 
" clip-path="url(#pe792cf2375)" style="fill: none; stroke: #b0b0b0; stroke-width: 0.8; stroke-linecap: square"/>
     </g>
     <g id="text_3">
      <!-- S -->
      <g transform="translate(121.654063 246.718438) scale(0.1 -0.1)">
       <defs>
        <path id="DejaVuSans-Bold-53" d="M 3834 4519 
L 3834 3531 
Q 3450 3703 3084 3790 
Q 2719 3878 2394 3878 
Q 1963 3878 1756 3759 
Q 1550 3641 1550 3391 
Q 1550 3203 1689 3098 
Q 1828 2994 2194 2919 
L 2706 2816 
Q 3484 2659 3812 2340 
Q 4141 2022 4141 1434 
Q 4141 663 3683 286 
Q 3225 -91 2284 -91 
Q 1841 -91 1394 -6 
Q 947 78 500 244 
L 500 1259 
Q 947 1022 1364 901 
Q 1781 781 2169 781 
Q 2563 781 2772 912 
Q 2981 1044 2981 1288 
Q 2981 1506 2839 1625 
Q 2697 1744 2272 1838 
L 1806 1941 
Q 1106 2091 782 2419 
Q 459 2747 459 3303 
Q 459 4000 909 4375 
Q 1359 4750 2203 4750 
Q 2588 4750 2994 4692 
Q 3400 4634 3834 4519 
z
" transform="scale(0.015625)"/>
       </defs>
       <use xlink:href="#DejaVuSans-Bold-53"/>
      </g>
     </g>
    </g>
    <g id="xtick_6">
     <g id="line2d_6">
      <path d="M 125.254844 124.579062 
L 46.850844 202.983062 
" clip-path="url(#pe792cf2375)" style="fill: none; stroke: #b0b0b0; stroke-width: 0.8; stroke-linecap: square"/>
     </g>
    </g>
    <g id="xtick_7">
     <g id="line2d_7">
      <path d="M 125.254844 124.579062 
L 14.374844 124.579063 
" clip-path="url(#pe792cf2375)" style="fill: none; stroke: #b0b0b0; stroke-width: 0.8; stroke-linecap: square"/>
     </g>
     <g id="text_4">
      <!-- W -->
      <g transform="translate(0.36 127.338438) scale(0.1 -0.1)">
       <defs>
        <path id="DejaVuSans-Bold-57" d="M 191 4666 
L 1344 4666 
L 2150 1275 
L 2950 4666 
L 4109 4666 
L 4909 1275 
L 5716 4666 
L 6859 4666 
L 5759 0 
L 4372 0 
L 3525 3547 
L 2688 0 
L 1300 0 
L 191 4666 
z
" transform="scale(0.015625)"/>
       </defs>
       <use xlink:href="#DejaVuSans-Bold-57"/>
      </g>
     </g>
    </g>
    <g id="xtick_8">
     <g id="line2d_8">
      <path d="M 125.254844 124.579062 
L 46.850844 46.175063 
" clip-path="url(#pe792cf2375)" style="fill: none; stroke: #b0b0b0; stroke-width: 0.8; stroke-linecap: square"/>
     </g>
    </g>
   </g>
   <g id="matplotlib.axis_2"/>
   <g id="patch_3">
    <path d="M 125.254844 124.579062 
C 125.254844 124.579062 125.254844 124.579062 125.254844 124.579062 
C 125.254844 124.579062 125.254844 124.579062 125.254844 124.579062 
L 125.254844 124.579062 
C 125.254844 124.579062 125.254844 124.579062 125.254844 124.579062 
C 125.254844 124.579062 125.254844 124.579062 125.254844 124.579062 
z
" clip-path="url(#pe792cf2375)" style="fill: #d9d9d9"/>
   </g>
   <g id="patch_4">
    <path d="M 125.254844 124.579062 
C 125.254844 124.579062 125.254844 124.579062 125.254844 124.579062 
C 125.254844 124.579062 125.254844 124.579062 125.254844 124.579062 
L 125.254844 124.579062 
C 125.254844 124.579062 125.254844 124.579062 125.254844 124.579062 
C 125.254844 124.579062 125.254844 124.579062 125.254844 124.579062 
z
" clip-path="url(#pe792cf2375)" style="fill: #d9d9d9"/>
   </g>
   <g id="patch_5">
    <path d="M 125.254844 124.579062 
C 125.254844 124.579062 125.254844 124.579062 125.254844 124.579062 
C 125.254844 124.579062 125.254844 124.579062 125.254844 124.579062 
L 125.254844 124.579062 
C 125.254844 124.579062 125.254844 124.579062 125.254844 124.579062 
C 125.254844 124.579062 125.254844 124.579062 125.254844 124.579062 
z
" clip-path="url(#pe792cf2375)" style="fill: #d9d9d9"/>
   </g>
   <g id="patch_6">
    <path d="M 125.254844 124.579062 
C 125.254844 124.579062 125.254844 124.579062 125.254844 124.579062 
C 125.254844 124.579062 125.254844 124.579062 125.254844 124.579062 
L 125.254844 124.579062 
C 125.254844 124.579062 125.254844 124.579062 125.254844 124.579062 
C 125.254844 124.579062 125.254844 124.579062 125.254844 124.579062 
z
" clip-path="url(#pe792cf2375)" style="fill: #d9d9d9"/>
   </g>
   <g id="patch_7">
    <path d="M 125.254844 124.579062 
C 125.254844 124.579062 125.254844 124.579062 125.254844 124.579062 
C 125.254844 124.579062 125.254844 124.579062 125.254844 124.579062 
L 125.254844 124.579062 
C 125.254844 124.579062 125.254844 124.579062 125.254844 124.579062 
C 125.254844 124.579062 125.254844 124.579062 125.254844 124.579062 
z
" clip-path="url(#pe792cf2375)" style="fill: #d9d9d9"/>
   </g>
   <g id="patch_8">
    <path d="M 125.254844 124.579062 
C 125.254844 124.579062 125.254844 124.579062 125.254844 124.579062 
C 125.254844 124.579062 125.254844 124.579062 125.254844 124.579062 
L 125.254844 124.579062 
C 125.254844 124.579062 125.254844 124.579062 125.254844 124.579062 
C 125.254844 124.579062 125.254844 124.579062 125.254844 124.579062 
z
" clip-path="url(#pe792cf2375)" style="fill: #d9d9d9"/>
   </g>
   <g id="patch_9">
    <path d="M 125.254844 124.579062 
C 125.254844 124.579062 125.254844 124.579062 125.254844 124.579062 
C 125.254844 124.579062 125.254844 124.579062 125.254844 124.579062 
L 125.254844 124.579062 
C 125.254844 124.579062 125.254844 124.579062 125.254844 124.579062 
C 125.254844 124.579062 125.254844 124.579062 125.254844 124.579062 
z
" clip-path="url(#pe792cf2375)" style="fill: #d9d9d9"/>
   </g>
   <g id="patch_10">
    <path d="M 125.254844 124.579062 
C 125.254844 124.579062 125.254844 124.579062 125.254844 124.579062 
C 125.254844 124.579062 125.254844 124.579062 125.254844 124.579062 
L 125.254844 124.579062 
C 125.254844 124.579062 125.254844 124.579062 125.254844 124.579062 
C 125.254844 124.579062 125.254844 124.579062 125.254844 124.579062 
z
" clip-path="url(#pe792cf2375)" style="fill: #d9d9d9"/>
   </g>
   <g id="patch_11">
    <path d="M 125.254844 124.579062 
C 125.254844 124.579062 125.254844 124.579062 125.254844 124.579062 
C 125.254844 124.579062 125.254844 124.579062 125.254844 124.579062 
L 125.254844 124.579062 
C 125.254844 124.579062 125.254844 124.579062 125.254844 124.579062 
C 125.254844 124.579062 125.254844 124.579062 125.254844 124.579062 
z
" clip-path="url(#pe792cf2375)" style="fill: #d9d9d9"/>
   </g>
   <g id="patch_12">
    <path d="M 125.254844 124.579062 
C 125.254844 124.579062 125.254844 124.579062 125.254844 124.579062 
C 125.254844 124.579062 125.254844 124.579062 125.254844 124.579062 
L 125.254844 124.579062 
C 125.254844 124.579062 125.254844 124.579062 125.254844 124.579062 
C 125.254844 124.579062 125.254844 124.579062 125.254844 124.579062 
z
" clip-path="url(#pe792cf2375)" style="fill: #d9d9d9"/>
   </g>
   <g id="patch_13">
    <path d="M 125.254844 124.579062 
C 125.254844 124.579062 125.254844 124.579062 125.254844 124.579062 
C 125.254844 124.579062 125.254844 124.579062 125.254844 124.579062 
L 125.254844 124.579062 
C 125.254844 124.579062 125.254844 124.579062 125.254844 124.579062 
C 125.254844 124.579062 125.254844 124.579062 125.254844 124.579062 
z
" clip-path="url(#pe792cf2375)" style="fill: #d9d9d9"/>
   </g>
   <g id="patch_14">
    <path d="M 125.254844 124.579062 
C 125.254844 124.579062 125.254844 124.579062 125.254844 124.579062 
C 125.254844 124.579062 125.254844 124.579062 125.254844 124.579062 
L 125.254844 124.579062 
C 125.254844 124.579062 125.254844 124.579062 125.254844 124.579062 
C 125.254844 124.579062 125.254844 124.579062 125.254844 124.579062 
z
" clip-path="url(#pe792cf2375)" style="fill: #d9d9d9"/>
   </g>
   <g id="patch_15">
    <path d="M 125.254844 124.579062 
C 125.254844 124.579062 125.254844 124.579062 125.254844 124.579062 
C 125.254844 124.579062 125.254844 124.579062 125.254844 124.579062 
L 125.254844 124.579062 
C 125.254844 124.579062 125.254844 124.579062 125.254844 124.579062 
C 125.254844 124.579062 125.254844 124.579062 125.254844 124.579062 
z
" clip-path="url(#pe792cf2375)" style="fill: #d9d9d9"/>
   </g>
   <g id="patch_16">
    <path d="M 125.254844 124.579062 
C 125.254844 124.579062 125.254844 124.579062 125.254844 124.579062 
C 125.254844 124.579062 125.254844 124.579062 125.254844 124.579062 
L 125.254844 124.579062 
C 125.254844 124.579062 125.254844 124.579062 125.254844 124.579062 
C 125.254844 124.579062 125.254844 124.579062 125.254844 124.579062 
z
" clip-path="url(#pe792cf2375)" style="fill: #d9d9d9"/>
   </g>
   <g id="patch_17">
    <path d="M 125.254844 124.579062 
C 125.254844 124.579062 125.254844 124.579062 125.254844 124.579062 
C 125.254844 124.579062 125.254844 124.579062 125.254844 124.579062 
L 125.254844 124.579062 
C 125.254844 124.579062 125.254844 124.579062 125.254844 124.579062 
C 125.254844 124.579062 125.254844 124.579062 125.254844 124.579062 
z
" clip-path="url(#pe792cf2375)" style="fill: #d9d9d9"/>
   </g>
   <g id="patch_18">
    <path d="M 125.254844 124.579062 
C 125.254844 124.579062 125.254844 124.579062 125.254844 124.579062 
C 125.254844 124.579062 125.254844 124.579062 125.254844 124.579062 
L 125.254844 124.579062 
C 125.254844 124.579062 125.254844 124.579062 125.254844 124.579062 
C 125.254844 124.579062 125.254844 124.579062 125.254844 124.579062 
z
" clip-path="url(#pe792cf2375)" style="fill: #d9d9d9"/>
   </g>
   <g id="patch_19">
    <path d="M 125.254844 124.579062 
C 125.254844 124.579062 125.254844 124.579062 125.254844 124.579062 
C 125.254844 124.579062 125.254844 124.579062 125.254844 124.579062 
L 125.254844 124.579062 
C 125.254844 124.579062 125.254844 124.579062 125.254844 124.579062 
C 125.254844 124.579062 125.254844 124.579062 125.254844 124.579062 
z
" clip-path="url(#pe792cf2375)" style="fill: #d9d9d9"/>
   </g>
   <g id="patch_20">
    <path d="M 125.254844 124.579062 
C 125.254844 124.579062 125.254844 124.579062 125.254844 124.579062 
C 125.254844 124.579062 125.254844 124.579062 125.254844 124.579062 
L 125.254844 124.579062 
C 125.254844 124.579062 125.254844 124.579062 125.254844 124.579062 
C 125.254844 124.579062 125.254844 124.579062 125.254844 124.579062 
z
" clip-path="url(#pe792cf2375)" style="fill: #d9d9d9"/>
   </g>
   <g id="patch_21">
    <path d="M 125.254844 124.579062 
C 125.254844 124.579062 125.254844 124.579062 125.254844 124.579062 
C 125.254844 124.579062 125.254844 124.579062 125.254844 124.579062 
L 125.254844 124.579062 
C 125.254844 124.579062 125.254844 124.579062 125.254844 124.579062 
C 125.254844 124.579062 125.254844 124.579062 125.254844 124.579062 
z
" clip-path="url(#pe792cf2375)" style="fill: #d9d9d9"/>
   </g>
   <g id="patch_22">
    <path d="M 125.254844 124.579062 
C 125.254844 124.579062 125.254844 124.579062 125.254844 124.579062 
C 125.254844 124.579062 125.254844 124.579062 125.254844 124.579062 
L 125.254844 124.579062 
C 125.254844 124.579062 125.254844 124.579062 125.254844 124.579062 
C 125.254844 124.579062 125.254844 124.579062 125.254844 124.579062 
z
" clip-path="url(#pe792cf2375)" style="fill: #d9d9d9"/>
   </g>
   <g id="patch_23">
    <path d="M 125.254844 124.579062 
C 125.254844 124.579062 125.254844 124.579062 125.254844 124.579062 
C 125.254844 124.579062 125.254844 124.579062 125.254844 124.579062 
L 125.254844 124.579062 
C 125.254844 124.579062 125.254844 124.579062 125.254844 124.579062 
C 125.254844 124.579062 125.254844 124.579062 125.254844 124.579062 
z
" clip-path="url(#pe792cf2375)" style="fill: #d9d9d9"/>
   </g>
   <g id="patch_24">
    <path d="M 125.254844 124.579062 
C 125.254844 124.579062 125.254844 124.579062 125.254844 124.579062 
C 125.254844 124.579062 125.254844 124.579062 125.254844 124.579062 
L 125.254844 124.579062 
C 125.254844 124.579062 125.254844 124.579062 125.254844 124.579062 
C 125.254844 124.579062 125.254844 124.579062 125.254844 124.579062 
z
" clip-path="url(#pe792cf2375)" style="fill: #d9d9d9"/>
   </g>
   <g id="patch_25">
    <path d="M 125.254844 124.579062 
C 125.254844 124.579062 125.254844 124.579062 125.254844 124.579062 
C 125.254844 124.579062 125.254844 124.579062 125.254844 124.579062 
L 125.254844 124.579062 
C 125.254844 124.579062 125.254844 124.579062 125.254844 124.579062 
C 125.254844 124.579062 125.254844 124.579062 125.254844 124.579062 
z
" clip-path="url(#pe792cf2375)" style="fill: #d9d9d9"/>
   </g>
   <g id="patch_26">
    <path d="M 125.254844 124.579062 
C 125.254844 124.579062 125.254844 124.579062 125.254844 124.579062 
C 125.254844 124.579062 125.254844 124.579062 125.254844 124.579062 
L 125.254844 124.579062 
C 125.254844 124.579062 125.254844 124.579062 125.254844 124.579062 
C 125.254844 124.579062 125.254844 124.579062 125.254844 124.579062 
z
" clip-path="url(#pe792cf2375)" style="fill: #d9d9d9"/>
   </g>
   <g id="patch_27">
    <path d="M 125.254844 124.579062 
C 125.254844 124.579062 125.254844 124.579062 125.254844 124.579062 
C 125.254844 124.579062 125.254844 124.579062 125.254844 124.579062 
L 125.254844 124.579062 
C 125.254844 124.579062 125.254844 124.579062 125.254844 124.579062 
C 125.254844 124.579062 125.254844 124.579062 125.254844 124.579062 
z
" clip-path="url(#pe792cf2375)" style="fill: #d9d9d9"/>
   </g>
   <g id="patch_28">
    <path d="M 125.254844 124.579062 
C 125.254844 124.579062 125.254844 124.579062 125.254844 124.579062 
C 125.254844 124.579062 125.254844 124.579062 125.254844 124.579062 
L 125.254844 124.579062 
C 125.254844 124.579062 125.254844 124.579062 125.254844 124.579062 
C 125.254844 124.579062 125.254844 124.579062 125.254844 124.579062 
z
" clip-path="url(#pe792cf2375)" style="fill: #d9d9d9"/>
   </g>
   <g id="patch_29">
    <path d="M 125.254844 124.579062 
C 125.254844 124.579062 125.254844 124.579062 125.254844 124.579062 
C 125.254844 124.579062 125.254844 124.579062 125.254844 124.579062 
L 125.254844 124.579062 
C 125.254844 124.579062 125.254844 124.579062 125.254844 124.579062 
C 125.254844 124.579062 125.254844 124.579062 125.254844 124.579062 
z
" clip-path="url(#pe792cf2375)" style="fill: #d9d9d9"/>
   </g>
   <g id="patch_30">
    <path d="M 125.254844 124.579062 
C 125.254844 124.579062 125.254844 124.579062 125.254844 124.579062 
C 125.254844 124.579062 125.254844 124.579062 125.254844 124.579062 
L 125.254844 124.579062 
C 125.254844 124.579062 125.254844 124.579062 125.254844 124.579062 
C 125.254844 124.579062 125.254844 124.579062 125.254844 124.579062 
z
" clip-path="url(#pe792cf2375)" style="fill: #d9d9d9"/>
   </g>
   <g id="patch_31">
    <path d="M 125.254844 124.579062 
C 125.254844 124.579062 125.254844 124.579062 125.254844 124.579062 
C 125.254844 124.579062 125.254844 124.579062 125.254844 124.579062 
L 125.254844 124.579062 
C 125.254844 124.579062 125.254844 124.579062 125.254844 124.579062 
C 125.254844 124.579062 125.254844 124.579062 125.254844 124.579062 
z
" clip-path="url(#pe792cf2375)" style="fill: #d9d9d9"/>
   </g>
   <g id="patch_32">
    <path d="M 125.254844 124.579062 
C 125.254844 124.579062 125.254844 124.579062 125.254844 124.579062 
C 125.254844 124.579062 125.254844 124.579062 125.254844 124.579062 
L 125.254844 124.579062 
C 125.254844 124.579062 125.254844 124.579062 125.254844 124.579062 
C 125.254844 124.579062 125.254844 124.579062 125.254844 124.579062 
z
" clip-path="url(#pe792cf2375)" style="fill: #d9d9d9"/>
   </g>
   <g id="patch_33">
    <path d="M 125.254844 124.579062 
C 125.254844 124.579062 125.254844 124.579062 125.254844 124.579062 
C 125.254844 124.579062 125.254844 124.579062 125.254844 124.579062 
L 125.254844 124.579062 
C 125.254844 124.579062 125.254844 124.579062 125.254844 124.579062 
C 125.254844 124.579062 125.254844 124.579062 125.254844 124.579062 
z
" clip-path="url(#pe792cf2375)" style="fill: #d9d9d9"/>
   </g>
   <g id="patch_34">
    <path d="M 125.254844 124.579062 
C 125.254844 124.579062 125.254844 124.579062 125.254844 124.579062 
C 125.254844 124.579062 125.254844 124.579062 125.254844 124.579062 
L 125.254844 124.579062 
C 125.254844 124.579062 125.254844 124.579062 125.254844 124.579062 
C 125.254844 124.579062 125.254844 124.579062 125.254844 124.579062 
z
" clip-path="url(#pe792cf2375)" style="fill: #d9d9d9"/>
   </g>
   <g id="patch_35">
    <path d="M 125.254844 124.579062 
C 125.254844 124.579062 125.254844 124.579062 125.254844 124.579062 
C 125.254844 124.579062 125.254844 124.579062 125.254844 124.579062 
L 127.231819 104.506501 
C 126.574814 104.441792 125.915028 104.409378 125.254844 104.409378 
C 124.59466 104.409378 123.934874 104.441792 123.277869 104.506501 
z
" clip-path="url(#pe792cf2375)" style="fill: #badbb8"/>
   </g>
   <g id="patch_36">
    <path d="M 125.254844 124.579062 
C 125.254844 124.579062 125.254844 124.579062 125.254844 124.579062 
C 125.254844 124.579062 125.254844 124.579062 125.254844 124.579062 
L 135.209688 91.76234 
C 134.135547 91.436503 133.046057 91.1636 131.945151 90.944616 
C 130.844245 90.725632 129.733252 90.560832 128.616183 90.45081 
z
" clip-path="url(#pe792cf2375)" style="fill: #badbb8"/>
   </g>
   <g id="patch_37">
    <path d="M 125.254844 124.579062 
C 125.254844 124.579062 125.254844 124.579062 125.254844 124.579062 
C 125.254844 124.579062 125.254844 124.579062 125.254844 124.579062 
L 149.822949 78.61537 
C 148.318489 77.811219 146.775454 77.081418 145.199417 76.428602 
C 143.623381 75.775787 142.016243 75.200744 140.383808 74.70555 
z
" clip-path="url(#pe792cf2375)" style="fill: #badbb8"/>
   </g>
   <g id="patch_38">
    <path d="M 125.254844 124.579062 
C 125.254844 124.579062 125.254844 124.579062 125.254844 124.579062 
C 125.254844 124.579062 125.254844 124.579062 125.254844 124.579062 
L 157.609749 85.154496 
C 156.319324 84.095472 154.977682 83.100442 153.589668 82.173001 
C 152.201655 81.24556 150.768943 80.386825 149.296707 79.599899 
z
" clip-path="url(#pe792cf2375)" style="fill: #badbb8"/>
   </g>
   <g id="patch_39">
    <path d="M 125.254844 124.579062 
C 125.254844 124.579062 125.254844 124.579062 125.254844 124.579062 
C 125.254844 124.579062 125.254844 124.579062 125.254844 124.579062 
L 151.554936 102.995134 
C 150.848462 102.134293 150.100149 101.308656 149.312699 100.521207 
C 148.52525 99.733757 147.699613 98.985444 146.838772 98.27897 
z
" clip-path="url(#pe792cf2375)" style="fill: #badbb8"/>
   </g>
   <g id="patch_40">
    <path d="M 125.254844 124.579062 
C 125.254844 124.579062 125.254844 124.579062 125.254844 124.579062 
C 125.254844 124.579062 125.254844 124.579062 125.254844 124.579062 
L 143.243744 114.963795 
C 142.929022 114.374992 142.585581 113.801995 142.214661 113.246875 
C 141.843742 112.691755 141.445791 112.15518 141.022246 111.63909 
z
" clip-path="url(#pe792cf2375)" style="fill: #badbb8"/>
   </g>
   <g id="patch_41">
    <path d="M 125.254844 124.579062 
C 125.254844 124.579062 125.254844 124.579062 125.254844 124.579062 
C 125.254844 124.579062 125.254844 124.579062 125.254844 124.579062 
L 163.802388 112.885793 
C 163.41965 111.624074 162.975195 110.381907 162.47063 109.163779 
C 161.966065 107.945651 161.401997 106.753029 160.780464 105.590223 
z
" clip-path="url(#pe792cf2375)" style="fill: #badbb8"/>
   </g>
   <g id="patch_42">
    <path d="M 125.254844 124.579062 
C 125.254844 124.579062 125.254844 124.579062 125.254844 124.579062 
C 125.254844 124.579062 125.254844 124.579062 125.254844 124.579062 
L 167.787633 120.389948 
C 167.650517 118.997787 167.445132 117.613196 167.172221 116.241178 
C 166.899309 114.869159 166.5592 113.511367 166.153122 112.172706 
z
" clip-path="url(#pe792cf2375)" style="fill: #badbb8"/>
   </g>
   <g id="patch_43">
    <path d="M 125.254844 124.579062 
C 125.254844 124.579062 125.254844 124.579062 125.254844 124.579062 
C 125.254844 124.579062 125.254844 124.579062 125.254844 124.579062 
L 133.409975 125.382273 
C 133.436265 125.115343 133.449434 124.847284 133.449434 124.579062 
C 133.449434 124.310841 133.436265 124.042782 133.409975 123.775852 
z
" clip-path="url(#pe792cf2375)" style="fill: #badbb8"/>
   </g>
   <g id="patch_44">
    <path d="M 125.254844 124.579062 
C 125.254844 124.579062 125.254844 124.579062 125.254844 124.579062 
C 125.254844 124.579062 125.254844 124.579062 125.254844 124.579062 
L 143.729185 130.183193 
C 143.912616 129.5785 144.066249 128.965166 144.189527 128.345405 
C 144.312805 127.725645 144.40558 127.100205 144.467517 126.471346 
z
" clip-path="url(#pe792cf2375)" style="fill: #badbb8"/>
   </g>
   <g id="patch_45">
    <path d="M 125.254844 124.579062 
C 125.254844 124.579062 125.254844 124.579062 125.254844 124.579062 
C 125.254844 124.579062 125.254844 124.579062 125.254844 124.579062 
L 141.173663 133.087848 
C 141.452168 132.566802 141.704923 132.032395 141.931016 131.486559 
C 142.157109 130.940723 142.356266 130.384116 142.527769 129.818747 
z
" clip-path="url(#pe792cf2375)" style="fill: #badbb8"/>
   </g>
   <g id="patch_46">
    <path d="M 125.254844 124.579062 
C 125.254844 124.579062 125.254844 124.579062 125.254844 124.579062 
C 125.254844 124.579062 125.254844 124.579062 125.254844 124.579062 
L 137.349439 134.50484 
C 137.674325 134.108966 137.979578 133.69738 138.264097 133.271567 
C 138.548615 132.845755 138.812056 132.406231 139.053468 131.954581 
z
" clip-path="url(#pe792cf2375)" style="fill: #badbb8"/>
   </g>
   <g id="patch_47">
    <path d="M 125.254844 124.579062 
C 125.254844 124.579062 125.254844 124.579062 125.254844 124.579062 
C 125.254844 124.579062 125.254844 124.579062 125.254844 124.579062 
L 129.036264 129.186736 
C 129.18708 129.062965 129.331728 128.931863 129.469686 128.793905 
C 129.607644 128.655947 129.738746 128.511299 129.862518 128.360483 
z
" clip-path="url(#pe792cf2375)" style="fill: #badbb8"/>
   </g>
   <g id="patch_48">
    <path d="M 125.254844 124.579062 
C 125.254844 124.579062 125.254844 124.579062 125.254844 124.579062 
C 125.254844 124.579062 125.254844 124.579062 125.254844 124.579062 
L 132.085724 137.35874 
C 132.504022 137.135155 132.91109 136.891168 133.305459 136.627659 
C 133.699827 136.364151 134.081021 136.081439 134.447662 135.780544 
z
" clip-path="url(#pe792cf2375)" style="fill: #badbb8"/>
   </g>
   <g id="patch_49">
    <path d="M 125.254844 124.579062 
C 125.254844 124.579062 125.254844 124.579062 125.254844 124.579062 
C 125.254844 124.579062 125.254844 124.579062 125.254844 124.579062 
L 127.250319 131.157262 
C 127.465633 131.091947 127.677611 131.0161 127.885486 130.929996 
C 128.093362 130.843891 128.296885 130.747632 128.495319 130.641566 
z
" clip-path="url(#pe792cf2375)" style="fill: #badbb8"/>
   </g>
   <g id="patch_50">
    <path d="M 125.254844 124.579062 
C 125.254844 124.579062 125.254844 124.579062 125.254844 124.579062 
C 125.254844 124.579062 125.254844 124.579062 125.254844 124.579062 
L 125.254844 124.579062 
C 125.254844 124.579062 125.254844 124.579062 125.254844 124.579062 
C 125.254844 124.579062 125.254844 124.579062 125.254844 124.579062 
z
" clip-path="url(#pe792cf2375)" style="fill: #badbb8"/>
   </g>
   <g id="patch_51">
    <path d="M 125.254844 124.579062 
C 125.254844 124.579062 125.254844 124.579062 125.254844 124.579062 
C 125.254844 124.579062 125.254844 124.579062 125.254844 124.579062 
L 125.137994 125.76546 
C 125.176826 125.769284 125.215823 125.7712 125.254844 125.7712 
C 125.293864 125.7712 125.332861 125.769284 125.371694 125.76546 
z
" clip-path="url(#pe792cf2375)" style="fill: #badbb8"/>
   </g>
   <g id="patch_52">
    <path d="M 125.254844 124.579062 
C 125.254844 124.579062 125.254844 124.579062 125.254844 124.579062 
C 125.254844 124.579062 125.254844 124.579062 125.254844 124.579062 
L 125.254844 124.579062 
C 125.254844 124.579062 125.254844 124.579062 125.254844 124.579062 
C 125.254844 124.579062 125.254844 124.579062 125.254844 124.579062 
z
" clip-path="url(#pe792cf2375)" style="fill: #badbb8"/>
   </g>
   <g id="patch_53">
    <path d="M 125.254844 124.579062 
C 125.254844 124.579062 125.254844 124.579062 125.254844 124.579062 
C 125.254844 124.579062 125.254844 124.579062 125.254844 124.579062 
L 125.254844 124.579062 
C 125.254844 124.579062 125.254844 124.579062 125.254844 124.579062 
C 125.254844 124.579062 125.254844 124.579062 125.254844 124.579062 
z
" clip-path="url(#pe792cf2375)" style="fill: #badbb8"/>
   </g>
   <g id="patch_54">
    <path d="M 125.254844 124.579062 
C 125.254844 124.579062 125.254844 124.579062 125.254844 124.579062 
C 125.254844 124.579062 125.254844 124.579062 125.254844 124.579062 
L 115.710971 136.208305 
C 116.091613 136.520691 116.487364 136.814199 116.896792 137.08777 
C 117.306221 137.361342 117.728835 137.614647 118.163106 137.84677 
z
" clip-path="url(#pe792cf2375)" style="fill: #badbb8"/>
   </g>
   <g id="patch_55">
    <path d="M 125.254844 124.579062 
C 125.254844 124.579062 125.254844 124.579062 125.254844 124.579062 
C 125.254844 124.579062 125.254844 124.579062 125.254844 124.579062 
L 124.333309 125.335347 
C 124.358063 125.36551 124.384284 125.394439 124.411875 125.422031 
C 124.439467 125.449623 124.468397 125.475843 124.49856 125.500597 
z
" clip-path="url(#pe792cf2375)" style="fill: #badbb8"/>
   </g>
   <g id="patch_56">
    <path d="M 125.254844 124.579062 
C 125.254844 124.579062 125.254844 124.579062 125.254844 124.579062 
C 125.254844 124.579062 125.254844 124.579062 125.254844 124.579062 
L 107.560228 134.037031 
C 107.869802 134.616203 108.207624 135.179826 108.572476 135.725864 
C 108.937327 136.271903 109.328768 136.7997 109.745384 137.307347 
z
" clip-path="url(#pe792cf2375)" style="fill: #badbb8"/>
   </g>
   <g id="patch_57">
    <path d="M 125.254844 124.579062 
C 125.254844 124.579062 125.254844 124.579062 125.254844 124.579062 
C 125.254844 124.579062 125.254844 124.579062 125.254844 124.579062 
L 105.380602 130.607848 
C 105.577933 131.258361 105.807084 131.898795 106.067226 132.526834 
C 106.327369 133.154873 106.618189 133.769762 106.938638 134.369279 
z
" clip-path="url(#pe792cf2375)" style="fill: #badbb8"/>
   </g>
   <g id="patch_58">
    <path d="M 125.254844 124.579062 
C 125.254844 124.579062 125.254844 124.579062 125.254844 124.579062 
C 125.254844 124.579062 125.254844 124.579062 125.254844 124.579062 
L 114.980344 125.591012 
C 115.013467 125.927312 115.063081 126.261783 115.129007 126.593217 
C 115.194933 126.92465 115.277092 127.252648 115.375187 127.576024 
z
" clip-path="url(#pe792cf2375)" style="fill: #badbb8"/>
   </g>
   <g id="patch_59">
    <path d="M 125.254844 124.579062 
C 125.254844 124.579062 125.254844 124.579062 125.254844 124.579062 
C 125.254844 124.579062 125.254844 124.579062 125.254844 124.579062 
L 110.724507 123.147949 
C 110.677664 123.623549 110.654201 124.101162 110.654201 124.579062 
C 110.654201 125.056963 110.677664 125.534576 110.724507 126.010176 
z
" clip-path="url(#pe792cf2375)" style="fill: #badbb8"/>
   </g>
   <g id="patch_60">
    <path d="M 125.254844 124.579062 
C 125.254844 124.579062 125.254844 124.579062 125.254844 124.579062 
C 125.254844 124.579062 125.254844 124.579062 125.254844 124.579062 
L 104.437116 118.264074 
C 104.230417 118.945469 104.057297 119.636602 103.918382 120.334976 
C 103.779467 121.033351 103.674923 121.738124 103.60513 122.446752 
z
" clip-path="url(#pe792cf2375)" style="fill: #badbb8"/>
   </g>
   <g id="patch_61">
    <path d="M 125.254844 124.579062 
C 125.254844 124.579062 125.254844 124.579062 125.254844 124.579062 
C 125.254844 124.579062 125.254844 124.579062 125.254844 124.579062 
L 112.335375 117.673463 
C 112.109345 118.096336 111.904212 118.530052 111.720719 118.973045 
C 111.537226 119.416037 111.375593 119.867771 111.236404 120.326615 
z
" clip-path="url(#pe792cf2375)" style="fill: #badbb8"/>
   </g>
   <g id="patch_62">
    <path d="M 125.254844 124.579062 
C 125.254844 124.579062 125.254844 124.579062 125.254844 124.579062 
C 125.254844 124.579062 125.254844 124.579062 125.254844 124.579062 
L 113.98722 115.331963 
C 113.684549 115.700769 113.400168 116.084213 113.135103 116.480911 
C 112.870038 116.877608 112.62461 117.28708 112.399705 117.707848 
z
" clip-path="url(#pe792cf2375)" style="fill: #badbb8"/>
   </g>
   <g id="patch_63">
    <path d="M 125.254844 124.579062 
C 125.254844 124.579062 125.254844 124.579062 125.254844 124.579062 
C 125.254844 124.579062 125.254844 124.579062 125.254844 124.579062 
L 125.254844 124.579062 
C 125.254844 124.579062 125.254844 124.579062 125.254844 124.579062 
C 125.254844 124.579062 125.254844 124.579062 125.254844 124.579062 
z
" clip-path="url(#pe792cf2375)" style="fill: #badbb8"/>
   </g>
   <g id="patch_64">
    <path d="M 125.254844 124.579062 
C 125.254844 124.579062 125.254844 124.579062 125.254844 124.579062 
C 125.254844 124.579062 125.254844 124.579062 125.254844 124.579062 
L 115.817767 106.923534 
C 115.239875 107.232424 114.677498 107.5695 114.132665 107.933546 
C 113.587832 108.297591 113.061202 108.688167 112.554675 109.103863 
z
" clip-path="url(#pe792cf2375)" style="fill: #badbb8"/>
   </g>
   <g id="patch_65">
    <path d="M 125.254844 124.579062 
C 125.254844 124.579062 125.254844 124.579062 125.254844 124.579062 
C 125.254844 124.579062 125.254844 124.579062 125.254844 124.579062 
L 113.00635 84.201191 
C 111.684722 84.602102 110.383574 85.06766 109.107607 85.596184 
C 107.831639 86.124707 106.582389 86.715558 105.36437 87.366603 
z
" clip-path="url(#pe792cf2375)" style="fill: #badbb8"/>
   </g>
   <g id="patch_66">
    <path d="M 125.254844 124.579062 
C 125.254844 124.579062 125.254844 124.579062 125.254844 124.579062 
C 125.254844 124.579062 125.254844 124.579062 125.254844 124.579062 
L 122.330093 94.883566 
C 121.358115 94.979298 120.391423 95.122693 119.433508 95.313234 
C 118.475594 95.503775 117.527612 95.741232 116.592987 96.024747 
z
" clip-path="url(#pe792cf2375)" style="fill: #badbb8"/>
   </g>
   <g id="patch_67">
    <path d="M 123.277869 104.506501 
C 123.934874 104.441792 124.59466 104.409378 125.254844 104.409378 
C 125.915028 104.409378 126.574814 104.441792 127.231819 104.506501 
L 129.160149 84.927835 
C 127.862305 84.800008 126.558967 84.735979 125.254844 84.735979 
C 123.95072 84.735979 122.647383 84.800008 121.349539 84.927835 
z
" clip-path="url(#pe792cf2375)" style="fill: #a1a1d8"/>
   </g>
   <g id="patch_68">
    <path d="M 128.616183 90.45081 
C 129.733252 90.560832 130.844245 90.725632 131.945151 90.944616 
C 133.046057 91.1636 134.135547 91.436503 135.209688 91.76234 
L 145.365025 58.284681 
C 143.19511 57.626445 140.994187 57.075142 138.770203 56.632764 
C 136.546219 56.190386 134.301856 55.857466 132.045221 55.635207 
z
" clip-path="url(#pe792cf2375)" style="fill: #a1a1d8"/>
   </g>
   <g id="patch_69">
    <path d="M 140.383808 74.70555 
C 142.016243 75.200744 143.623381 75.775787 145.199417 76.428602 
C 146.775454 77.081418 148.318489 77.811219 149.822949 78.61537 
L 157.100484 65.000061 
C 155.150374 63.957705 153.150263 63.011723 151.107375 62.165531 
C 149.064487 61.31934 146.981284 60.573958 144.865292 59.932078 
z
" clip-path="url(#pe792cf2375)" style="fill: #a1a1d8"/>
   </g>
   <g id="patch_70">
    <path d="M 149.296707 79.599899 
C 150.768943 80.386825 152.201655 81.24556 153.589668 82.173001 
C 154.977682 83.100442 156.319324 84.095472 157.609749 85.154496 
L 167.983218 72.514387 
C 166.279064 71.115824 164.507271 69.801773 162.674239 68.57698 
C 160.841207 67.352187 158.949146 66.21813 157.00489 65.178903 
z
" clip-path="url(#pe792cf2375)" style="fill: #a1a1d8"/>
   </g>
   <g id="patch_71">
    <path d="M 146.838772 98.27897 
C 147.699613 98.985444 148.52525 99.733757 149.312699 100.521207 
C 150.100149 101.308656 150.848462 102.134293 151.554936 102.995134 
L 159.079689 96.819729 
C 158.171085 95.712591 157.208671 94.650731 156.195923 93.637983 
C 155.183175 92.625236 154.121315 91.662821 153.014177 90.754217 
z
" clip-path="url(#pe792cf2375)" style="fill: #a1a1d8"/>
   </g>
   <g id="patch_72">
    <path d="M 141.022246 111.63909 
C 141.445791 112.15518 141.843742 112.691755 142.214661 113.246875 
C 142.585581 113.801995 142.929022 114.374992 143.243744 114.963795 
L 161.796618 105.047077 
C 161.157307 103.85101 160.459658 102.687053 159.70619 101.559409 
C 158.952723 100.431765 158.144345 99.341793 157.283977 98.293432 
z
" clip-path="url(#pe792cf2375)" style="fill: #a1a1d8"/>
   </g>
   <g id="patch_73">
    <path d="M 160.780464 105.590223 
C 161.401997 106.753029 161.966065 107.945651 162.47063 109.163779 
C 162.975195 110.381907 163.41965 111.624074 163.802388 112.885793 
L 184.254952 106.681575 
C 183.669141 104.750414 182.988867 102.849178 182.21659 100.984735 
C 181.444312 99.120292 180.580961 97.294889 179.629655 95.51512 
z
" clip-path="url(#pe792cf2375)" style="fill: #a1a1d8"/>
   </g>
   <g id="patch_74">
    <path d="M 166.153122 112.172706 
C 166.5592 113.511367 166.899309 114.869159 167.172221 116.241178 
C 167.445132 117.613196 167.650517 118.997787 167.787633 120.389948 
L 185.676708 118.628028 
C 185.481922 116.65033 185.190153 114.683388 184.802457 112.734306 
C 184.41476 110.785223 183.931603 108.856351 183.35473 106.954655 
z
" clip-path="url(#pe792cf2375)" style="fill: #a1a1d8"/>
   </g>
   <g id="patch_75">
    <path d="M 133.409975 123.775852 
C 133.436265 124.042782 133.449434 124.310841 133.449434 124.579062 
C 133.449434 124.847284 133.436265 125.115343 133.409975 125.382273 
L 142.033031 126.23157 
C 142.08712 125.682395 142.114214 125.130895 142.114214 124.579062 
C 142.114214 124.02723 142.08712 123.47573 142.033031 122.926555 
z
" clip-path="url(#pe792cf2375)" style="fill: #a1a1d8"/>
   </g>
   <g id="patch_76">
    <path d="M 144.467517 126.471346 
C 144.40558 127.100205 144.312805 127.725645 144.189527 128.345405 
C 144.066249 128.965166 143.912616 129.5785 143.729185 130.183193 
L 145.542248 130.733179 
C 145.743681 130.069142 145.912391 129.395616 146.047767 128.715032 
C 146.183144 128.034449 146.285024 127.347629 146.35304 126.657053 
z
" clip-path="url(#pe792cf2375)" style="fill: #a1a1d8"/>
   </g>
   <g id="patch_77">
    <path d="M 142.527769 129.818747 
C 142.356266 130.384116 142.157109 130.940723 141.931016 131.486559 
C 141.704923 132.032395 141.452168 132.566802 141.173663 133.087848 
L 156.127413 141.080794 
C 156.667539 140.070289 157.157727 139.033874 157.596205 137.975293 
C 158.034684 136.916712 158.420925 135.837241 158.753533 134.740779 
z
" clip-path="url(#pe792cf2375)" style="fill: #a1a1d8"/>
   </g>
   <g id="patch_78">
    <path d="M 139.053468 131.954581 
C 138.812056 132.406231 138.548615 132.845755 138.264097 133.271567 
C 137.979578 133.69738 137.674325 134.108966 137.349439 134.50484 
L 137.349439 134.50484 
C 137.674325 134.108966 137.979578 133.69738 138.264097 133.271567 
C 138.548615 132.845755 138.812056 132.406231 139.053468 131.954581 
z
" clip-path="url(#pe792cf2375)" style="fill: #a1a1d8"/>
   </g>
   <g id="patch_79">
    <path d="M 129.862518 128.360483 
C 129.738746 128.511299 129.607644 128.655947 129.469686 128.793905 
C 129.331728 128.931863 129.18708 129.062965 129.036264 129.186736 
L 129.036264 129.186736 
C 129.18708 129.062965 129.331728 128.931863 129.469686 128.793905 
C 129.607644 128.655947 129.738746 128.511299 129.862518 128.360483 
z
" clip-path="url(#pe792cf2375)" style="fill: #a1a1d8"/>
   </g>
   <g id="patch_80">
    <path d="M 134.447662 135.780544 
C 134.081021 136.081439 133.699827 136.364151 133.305459 136.627659 
C 132.91109 136.891168 132.504022 137.135155 132.085724 137.35874 
L 132.085724 137.35874 
C 132.504022 137.135155 132.91109 136.891168 133.305459 136.627659 
C 133.699827 136.364151 134.081021 136.081439 134.447662 135.780544 
z
" clip-path="url(#pe792cf2375)" style="fill: #a1a1d8"/>
   </g>
   <g id="patch_81">
    <path d="M 128.495319 130.641566 
C 128.296885 130.747632 128.093362 130.843891 127.885486 130.929996 
C 127.677611 131.0161 127.465633 131.091947 127.250319 131.157262 
L 127.250319 131.157262 
C 127.465633 131.091947 127.677611 131.0161 127.885486 130.929996 
C 128.093362 130.843891 128.296885 130.747632 128.495319 130.641566 
z
" clip-path="url(#pe792cf2375)" style="fill: #a1a1d8"/>
   </g>
   <g id="patch_82">
    <path d="M 125.254844 124.579062 
C 125.254844 124.579062 125.254844 124.579062 125.254844 124.579062 
C 125.254844 124.579062 125.254844 124.579062 125.254844 124.579062 
L 125.254844 124.579062 
C 125.254844 124.579062 125.254844 124.579062 125.254844 124.579062 
C 125.254844 124.579062 125.254844 124.579062 125.254844 124.579062 
z
" clip-path="url(#pe792cf2375)" style="fill: #a1a1d8"/>
   </g>
   <g id="patch_83">
    <path d="M 125.371694 125.76546 
C 125.332861 125.769284 125.293864 125.7712 125.254844 125.7712 
C 125.215823 125.7712 125.176826 125.769284 125.137994 125.76546 
L 125.137994 125.76546 
C 125.176826 125.769284 125.215823 125.7712 125.254844 125.7712 
C 125.293864 125.7712 125.332861 125.769284 125.371694 125.76546 
z
" clip-path="url(#pe792cf2375)" style="fill: #a1a1d8"/>
   </g>
   <g id="patch_84">
    <path d="M 125.254844 124.579062 
C 125.254844 124.579062 125.254844 124.579062 125.254844 124.579062 
C 125.254844 124.579062 125.254844 124.579062 125.254844 124.579062 
L 124.680969 126.470873 
C 124.742891 126.489656 124.805698 126.505389 124.869163 126.518013 
C 124.932627 126.530637 124.996674 126.540137 125.06107 126.546479 
z
" clip-path="url(#pe792cf2375)" style="fill: #a1a1d8"/>
   </g>
   <g id="patch_85">
    <path d="M 125.254844 124.579062 
C 125.254844 124.579062 125.254844 124.579062 125.254844 124.579062 
C 125.254844 124.579062 125.254844 124.579062 125.254844 124.579062 
L 125.254844 124.579062 
C 125.254844 124.579062 125.254844 124.579062 125.254844 124.579062 
C 125.254844 124.579062 125.254844 124.579062 125.254844 124.579062 
z
" clip-path="url(#pe792cf2375)" style="fill: #a1a1d8"/>
   </g>
   <g id="patch_86">
    <path d="M 118.163106 137.84677 
C 117.728835 137.614647 117.306221 137.361342 116.896792 137.08777 
C 116.487364 136.814199 116.091613 136.520691 115.710971 136.208305 
L 115.710971 136.208305 
C 116.091613 136.520691 116.487364 136.814199 116.896792 137.08777 
C 117.306221 137.361342 117.728835 137.614647 118.163106 137.84677 
z
" clip-path="url(#pe792cf2375)" style="fill: #a1a1d8"/>
   </g>
   <g id="patch_87">
    <path d="M 124.49856 125.500597 
C 124.468397 125.475843 124.439467 125.449623 124.411875 125.422031 
C 124.384284 125.394439 124.358063 125.36551 124.333309 125.335347 
L 120.693479 128.322477 
C 120.816007 128.471778 120.945791 128.614972 121.082362 128.751544 
C 121.218934 128.888115 121.362129 129.017899 121.511429 129.140427 
z
" clip-path="url(#pe792cf2375)" style="fill: #a1a1d8"/>
   </g>
   <g id="patch_88">
    <path d="M 109.745384 137.307347 
C 109.328768 136.7997 108.937327 136.271903 108.572476 135.725864 
C 108.207624 135.179826 107.869802 134.616203 107.560228 134.037031 
L 107.560228 134.037031 
C 107.869802 134.616203 108.207624 135.179826 108.572476 135.725864 
C 108.937327 136.271903 109.328768 136.7997 109.745384 137.307347 
z
" clip-path="url(#pe792cf2375)" style="fill: #a1a1d8"/>
   </g>
   <g id="patch_89">
    <path d="M 106.938638 134.369279 
C 106.618189 133.769762 106.327369 133.154873 106.067226 132.526834 
C 105.807084 131.898795 105.577933 131.258361 105.380602 130.607848 
L 105.380602 130.607848 
C 105.577933 131.258361 105.807084 131.898795 106.067226 132.526834 
C 106.327369 133.154873 106.618189 133.769762 106.938638 134.369279 
z
" clip-path="url(#pe792cf2375)" style="fill: #a1a1d8"/>
   </g>
   <g id="patch_90">
    <path d="M 115.375187 127.576024 
C 115.277092 127.252648 115.194933 126.92465 115.129007 126.593217 
C 115.063081 126.261783 115.013467 125.927312 114.980344 125.591012 
L 110.676153 126.014938 
C 110.723151 126.492121 110.79355 126.966708 110.887094 127.436986 
C 110.980638 127.907264 111.097215 128.372665 111.236404 128.83151 
z
" clip-path="url(#pe792cf2375)" style="fill: #a1a1d8"/>
   </g>
   <g id="patch_91">
    <path d="M 110.724507 126.010176 
C 110.677664 125.534576 110.654201 125.056963 110.654201 124.579062 
C 110.654201 124.101162 110.677664 123.623549 110.724507 123.147949 
L 106.732226 122.754744 
C 106.672513 123.361017 106.642603 123.969856 106.642603 124.579062 
C 106.642603 125.188269 106.672513 125.797108 106.732226 126.403381 
z
" clip-path="url(#pe792cf2375)" style="fill: #a1a1d8"/>
   </g>
   <g id="patch_92">
    <path d="M 103.60513 122.446752 
C 103.674923 121.738124 103.779467 121.033351 103.918382 120.334976 
C 104.057297 119.636602 104.230417 118.945469 104.437116 118.264074 
L 104.437116 118.264074 
C 104.230417 118.945469 104.057297 119.636602 103.918382 120.334976 
C 103.779467 121.033351 103.674923 121.738124 103.60513 122.446752 
z
" clip-path="url(#pe792cf2375)" style="fill: #a1a1d8"/>
   </g>
   <g id="patch_93">
    <path d="M 111.236404 120.326615 
C 111.375593 119.867771 111.537226 119.416037 111.720719 118.973045 
C 111.904212 118.530052 112.109345 118.096336 112.335375 117.673463 
L 112.335375 117.673463 
C 112.109345 118.096336 111.904212 118.530052 111.720719 118.973045 
C 111.537226 119.416037 111.375593 119.867771 111.236404 120.326615 
z
" clip-path="url(#pe792cf2375)" style="fill: #a1a1d8"/>
   </g>
   <g id="patch_94">
    <path d="M 112.399705 117.707848 
C 112.62461 117.28708 112.870038 116.877608 113.135103 116.480911 
C 113.400168 116.084213 113.684549 115.700769 113.98722 115.331963 
L 113.98722 115.331963 
C 113.684549 115.700769 113.400168 116.084213 113.135103 116.480911 
C 112.870038 116.877608 112.62461 117.28708 112.399705 117.707848 
z
" clip-path="url(#pe792cf2375)" style="fill: #a1a1d8"/>
   </g>
   <g id="patch_95">
    <path d="M 125.254844 124.579062 
C 125.254844 124.579062 125.254844 124.579062 125.254844 124.579062 
C 125.254844 124.579062 125.254844 124.579062 125.254844 124.579062 
L 125.254844 124.579062 
C 125.254844 124.579062 125.254844 124.579062 125.254844 124.579062 
C 125.254844 124.579062 125.254844 124.579062 125.254844 124.579062 
z
" clip-path="url(#pe792cf2375)" style="fill: #a1a1d8"/>
   </g>
   <g id="patch_96">
    <path d="M 112.554675 109.103863 
C 113.061202 108.688167 113.587832 108.297591 114.132665 107.933546 
C 114.677498 107.5695 115.239875 107.232424 115.817767 106.923534 
L 112.913881 101.490745 
C 112.158166 101.894683 111.422738 102.335481 110.710255 102.811547 
C 109.997772 103.287614 109.309092 103.798374 108.646702 104.341983 
z
" clip-path="url(#pe792cf2375)" style="fill: #a1a1d8"/>
   </g>
   <g id="patch_97">
    <path d="M 105.36437 87.366603 
C 106.582389 86.715558 107.831639 86.124707 109.107607 85.596184 
C 110.383574 85.06766 111.684722 84.602102 113.00635 84.201191 
L 106.64551 63.232309 
C 104.637539 63.84142 102.660684 64.54875 100.722085 65.351744 
C 98.783487 66.154738 96.885481 67.052428 95.034925 68.041571 
z
" clip-path="url(#pe792cf2375)" style="fill: #a1a1d8"/>
   </g>
   <g id="patch_98">
    <path d="M 116.592987 96.024747 
C 117.527612 95.741232 118.475594 95.503775 119.433508 95.313234 
C 120.391423 95.122693 121.358115 94.979298 122.330093 94.883566 
L 120.272939 73.99693 
C 118.61731 74.159995 116.970685 74.404249 115.339012 74.728809 
C 113.707339 75.053369 112.092584 75.457844 110.50058 75.940773 
z
" clip-path="url(#pe792cf2375)" style="fill: #a1a1d8"/>
   </g>
   <g id="patch_99">
    <path d="M 121.349539 84.927835 
C 122.647383 84.800008 123.95072 84.735979 125.254844 84.735979 
C 126.558967 84.735979 127.862305 84.800008 129.160149 84.927835 
L 129.535444 81.117402 
C 128.112879 80.977292 126.684292 80.90711 125.254844 80.90711 
C 123.825396 80.90711 122.396809 80.977292 120.974244 81.117402 
z
" clip-path="url(#pe792cf2375)" style="fill: #828282"/>
   </g>
   <g id="patch_100">
    <path d="M 132.045221 55.635207 
C 134.301856 55.857466 136.546219 56.190386 138.770203 56.632764 
C 140.994187 57.075142 143.19511 57.626445 145.365025 58.284681 
L 157.441609 18.473516 
C 153.968616 17.419995 150.445992 16.537624 146.886459 15.829589 
C 143.326926 15.121554 139.734777 14.588709 136.122984 14.232978 
z
" clip-path="url(#pe792cf2375)" style="fill: #828282"/>
   </g>
   <g id="patch_101">
    <path d="M 144.865292 59.932078 
C 146.981284 60.573958 149.064487 61.31934 151.107375 62.165531 
C 153.150263 63.011723 155.150374 63.957705 157.100484 65.000061 
L 166.55484 47.312205 
C 164.02578 45.960394 161.431875 44.733568 158.782492 43.636158 
C 156.13311 42.538748 153.431445 41.572077 150.687256 40.739636 
z
" clip-path="url(#pe792cf2375)" style="fill: #828282"/>
   </g>
   <g id="patch_102">
    <path d="M 157.00489 65.178903 
C 158.949146 66.21813 160.841207 67.352187 162.674239 68.57698 
C 164.507271 69.801773 166.279064 71.115824 167.983218 72.514387 
L 169.973235 70.089545 
C 168.189712 68.625845 166.3354 67.250594 164.416997 65.968758 
C 162.498594 64.686922 160.518413 63.500048 158.483606 62.412421 
z
" clip-path="url(#pe792cf2375)" style="fill: #828282"/>
   </g>
   <g id="patch_103">
    <path d="M 153.014177 90.754217 
C 154.121315 91.662821 155.183175 92.625236 156.195923 93.637983 
C 157.208671 94.650731 158.171085 95.712591 159.079689 96.819729 
L 161.795179 94.591184 
C 160.813631 93.395165 159.773953 92.248057 158.679901 91.154005 
C 157.585849 90.059953 156.438742 89.020275 155.242722 88.038727 
z
" clip-path="url(#pe792cf2375)" style="fill: #828282"/>
   </g>
   <g id="patch_104">
    <path d="M 157.283977 98.293432 
C 158.144345 99.341793 158.952723 100.431765 159.70619 101.559409 
C 160.459658 102.687053 161.157307 103.85101 161.796618 105.047077 
L 163.027475 104.389171 
C 162.366629 103.152816 161.645481 101.949652 160.866634 100.784025 
C 160.087786 99.618398 159.25218 98.491713 158.362832 97.408039 
z
" clip-path="url(#pe792cf2375)" style="fill: #828282"/>
   </g>
   <g id="patch_105">
    <path d="M 179.629655 95.51512 
C 180.580961 97.294889 181.444312 99.120292 182.21659 100.984735 
C 182.988867 102.849178 183.669141 104.750414 184.254952 106.681575 
L 184.254952 106.681575 
C 183.669141 104.750414 182.988867 102.849178 182.21659 100.984735 
C 181.444312 99.120292 180.580961 97.294889 179.629655 95.51512 
z
" clip-path="url(#pe792cf2375)" style="fill: #828282"/>
   </g>
   <g id="patch_106">
    <path d="M 183.35473 106.954655 
C 183.931603 108.856351 184.41476 110.785223 184.802457 112.734306 
C 185.190153 114.683388 185.481922 116.65033 185.676708 118.628028 
L 185.676708 118.628028 
C 185.481922 116.65033 185.190153 114.683388 184.802457 112.734306 
C 184.41476 110.785223 183.931603 108.856351 183.35473 106.954655 
z
" clip-path="url(#pe792cf2375)" style="fill: #828282"/>
   </g>
   <g id="patch_107">
    <path d="M 142.033031 122.926555 
C 142.08712 123.47573 142.114214 124.02723 142.114214 124.579062 
C 142.114214 125.130895 142.08712 125.682395 142.033031 126.23157 
L 144.911119 126.515037 
C 144.974486 125.871657 145.006227 125.225555 145.006227 124.579062 
C 145.006227 123.93257 144.974486 123.286468 144.911119 122.643088 
z
" clip-path="url(#pe792cf2375)" style="fill: #828282"/>
   </g>
   <g id="patch_108">
    <path d="M 146.35304 126.657053 
C 146.285024 127.347629 146.183144 128.034449 146.047767 128.715032 
C 145.912391 129.395616 145.743681 130.069142 145.542248 130.733179 
L 145.542248 130.733179 
C 145.743681 130.069142 145.912391 129.395616 146.047767 128.715032 
C 146.183144 128.034449 146.285024 127.347629 146.35304 126.657053 
z
" clip-path="url(#pe792cf2375)" style="fill: #828282"/>
   </g>
   <g id="patch_109">
    <path d="M 158.753533 134.740779 
C 158.420925 135.837241 158.034684 136.916712 157.596205 137.975293 
C 157.157727 139.033874 156.667539 140.070289 156.127413 141.080794 
L 156.127413 141.080794 
C 156.667539 140.070289 157.157727 139.033874 157.596205 137.975293 
C 158.034684 136.916712 158.420925 135.837241 158.753533 134.740779 
z
" clip-path="url(#pe792cf2375)" style="fill: #828282"/>
   </g>
   <g id="patch_110">
    <path d="M 139.053468 131.954581 
C 138.812056 132.406231 138.548615 132.845755 138.264097 133.271567 
C 137.979578 133.69738 137.674325 134.108966 137.349439 134.50484 
L 137.349439 134.50484 
C 137.674325 134.108966 137.979578 133.69738 138.264097 133.271567 
C 138.548615 132.845755 138.812056 132.406231 139.053468 131.954581 
z
" clip-path="url(#pe792cf2375)" style="fill: #828282"/>
   </g>
   <g id="patch_111">
    <path d="M 129.862518 128.360483 
C 129.738746 128.511299 129.607644 128.655947 129.469686 128.793905 
C 129.331728 128.931863 129.18708 129.062965 129.036264 129.186736 
L 129.036264 129.186736 
C 129.18708 129.062965 129.331728 128.931863 129.469686 128.793905 
C 129.607644 128.655947 129.738746 128.511299 129.862518 128.360483 
z
" clip-path="url(#pe792cf2375)" style="fill: #828282"/>
   </g>
   <g id="patch_112">
    <path d="M 134.447662 135.780544 
C 134.081021 136.081439 133.699827 136.364151 133.305459 136.627659 
C 132.91109 136.891168 132.504022 137.135155 132.085724 137.35874 
L 132.085724 137.35874 
C 132.504022 137.135155 132.91109 136.891168 133.305459 136.627659 
C 133.699827 136.364151 134.081021 136.081439 134.447662 135.780544 
z
" clip-path="url(#pe792cf2375)" style="fill: #828282"/>
   </g>
   <g id="patch_113">
    <path d="M 128.495319 130.641566 
C 128.296885 130.747632 128.093362 130.843891 127.885486 130.929996 
C 127.677611 131.0161 127.465633 131.091947 127.250319 131.157262 
L 127.250319 131.157262 
C 127.465633 131.091947 127.677611 131.0161 127.885486 130.929996 
C 128.093362 130.843891 128.296885 130.747632 128.495319 130.641566 
z
" clip-path="url(#pe792cf2375)" style="fill: #828282"/>
   </g>
   <g id="patch_114">
    <path d="M 125.254844 124.579062 
C 125.254844 124.579062 125.254844 124.579062 125.254844 124.579062 
C 125.254844 124.579062 125.254844 124.579062 125.254844 124.579062 
L 125.254844 124.579062 
C 125.254844 124.579062 125.254844 124.579062 125.254844 124.579062 
C 125.254844 124.579062 125.254844 124.579062 125.254844 124.579062 
z
" clip-path="url(#pe792cf2375)" style="fill: #828282"/>
   </g>
   <g id="patch_115">
    <path d="M 125.371694 125.76546 
C 125.332861 125.769284 125.293864 125.7712 125.254844 125.7712 
C 125.215823 125.7712 125.176826 125.769284 125.137994 125.76546 
L 125.137994 125.76546 
C 125.176826 125.769284 125.215823 125.7712 125.254844 125.7712 
C 125.293864 125.7712 125.332861 125.769284 125.371694 125.76546 
z
" clip-path="url(#pe792cf2375)" style="fill: #828282"/>
   </g>
   <g id="patch_116">
    <path d="M 125.06107 126.546479 
C 124.996674 126.540137 124.932627 126.530637 124.869163 126.518013 
C 124.805698 126.505389 124.742891 126.489656 124.680969 126.470873 
L 124.680969 126.470873 
C 124.742891 126.489656 124.805698 126.505389 124.869163 126.518013 
C 124.932627 126.530637 124.996674 126.540137 125.06107 126.546479 
z
" clip-path="url(#pe792cf2375)" style="fill: #828282"/>
   </g>
   <g id="patch_117">
    <path d="M 125.254844 124.579062 
C 125.254844 124.579062 125.254844 124.579062 125.254844 124.579062 
C 125.254844 124.579062 125.254844 124.579062 125.254844 124.579062 
L 125.254844 124.579062 
C 125.254844 124.579062 125.254844 124.579062 125.254844 124.579062 
C 125.254844 124.579062 125.254844 124.579062 125.254844 124.579062 
z
" clip-path="url(#pe792cf2375)" style="fill: #828282"/>
   </g>
   <g id="patch_118">
    <path d="M 118.163106 137.84677 
C 117.728835 137.614647 117.306221 137.361342 116.896792 137.08777 
C 116.487364 136.814199 116.091613 136.520691 115.710971 136.208305 
L 115.710971 136.208305 
C 116.091613 136.520691 116.487364 136.814199 116.896792 137.08777 
C 117.306221 137.361342 117.728835 137.614647 118.163106 137.84677 
z
" clip-path="url(#pe792cf2375)" style="fill: #828282"/>
   </g>
   <g id="patch_119">
    <path d="M 121.511429 129.140427 
C 121.362129 129.017899 121.218934 128.888115 121.082362 128.751544 
C 120.945791 128.614972 120.816007 128.471778 120.693479 128.322477 
L 120.693479 128.322477 
C 120.816007 128.471778 120.945791 128.614972 121.082362 128.751544 
C 121.218934 128.888115 121.362129 129.017899 121.511429 129.140427 
z
" clip-path="url(#pe792cf2375)" style="fill: #828282"/>
   </g>
   <g id="patch_120">
    <path d="M 109.745384 137.307347 
C 109.328768 136.7997 108.937327 136.271903 108.572476 135.725864 
C 108.207624 135.179826 107.869802 134.616203 107.560228 134.037031 
L 107.560228 134.037031 
C 107.869802 134.616203 108.207624 135.179826 108.572476 135.725864 
C 108.937327 136.271903 109.328768 136.7997 109.745384 137.307347 
z
" clip-path="url(#pe792cf2375)" style="fill: #828282"/>
   </g>
   <g id="patch_121">
    <path d="M 106.938638 134.369279 
C 106.618189 133.769762 106.327369 133.154873 106.067226 132.526834 
C 105.807084 131.898795 105.577933 131.258361 105.380602 130.607848 
L 105.380602 130.607848 
C 105.577933 131.258361 105.807084 131.898795 106.067226 132.526834 
C 106.327369 133.154873 106.618189 133.769762 106.938638 134.369279 
z
" clip-path="url(#pe792cf2375)" style="fill: #828282"/>
   </g>
   <g id="patch_122">
    <path d="M 111.236404 128.83151 
C 111.097215 128.372665 110.980638 127.907264 110.887094 127.436986 
C 110.79355 126.966708 110.723151 126.492121 110.676153 126.014938 
L 110.676153 126.014938 
C 110.723151 126.492121 110.79355 126.966708 110.887094 127.436986 
C 110.980638 127.907264 111.097215 128.372665 111.236404 128.83151 
z
" clip-path="url(#pe792cf2375)" style="fill: #828282"/>
   </g>
   <g id="patch_123">
    <path d="M 106.732226 126.403381 
C 106.672513 125.797108 106.642603 125.188269 106.642603 124.579062 
C 106.642603 123.969856 106.672513 123.361017 106.732226 122.754744 
L 106.732226 122.754744 
C 106.672513 123.361017 106.642603 123.969856 106.642603 124.579062 
C 106.642603 125.188269 106.672513 125.797108 106.732226 126.403381 
z
" clip-path="url(#pe792cf2375)" style="fill: #828282"/>
   </g>
   <g id="patch_124">
    <path d="M 103.60513 122.446752 
C 103.674923 121.738124 103.779467 121.033351 103.918382 120.334976 
C 104.057297 119.636602 104.230417 118.945469 104.437116 118.264074 
L 104.437116 118.264074 
C 104.230417 118.945469 104.057297 119.636602 103.918382 120.334976 
C 103.779467 121.033351 103.674923 121.738124 103.60513 122.446752 
z
" clip-path="url(#pe792cf2375)" style="fill: #828282"/>
   </g>
   <g id="patch_125">
    <path d="M 111.236404 120.326615 
C 111.375593 119.867771 111.537226 119.416037 111.720719 118.973045 
C 111.904212 118.530052 112.109345 118.096336 112.335375 117.673463 
L 112.335375 117.673463 
C 112.109345 118.096336 111.904212 118.530052 111.720719 118.973045 
C 111.537226 119.416037 111.375593 119.867771 111.236404 120.326615 
z
" clip-path="url(#pe792cf2375)" style="fill: #828282"/>
   </g>
   <g id="patch_126">
    <path d="M 112.399705 117.707848 
C 112.62461 117.28708 112.870038 116.877608 113.135103 116.480911 
C 113.400168 116.084213 113.684549 115.700769 113.98722 115.331963 
L 113.98722 115.331963 
C 113.684549 115.700769 113.400168 116.084213 113.135103 116.480911 
C 112.870038 116.877608 112.62461 117.28708 112.399705 117.707848 
z
" clip-path="url(#pe792cf2375)" style="fill: #828282"/>
   </g>
   <g id="patch_127">
    <path d="M 125.254844 124.579062 
C 125.254844 124.579062 125.254844 124.579062 125.254844 124.579062 
C 125.254844 124.579062 125.254844 124.579062 125.254844 124.579062 
L 115.984578 113.283211 
C 115.614848 113.586641 115.260238 113.90804 114.92203 114.246249 
C 114.583821 114.584457 114.262422 114.939067 113.958992 115.308797 
z
" clip-path="url(#pe792cf2375)" style="fill: #828282"/>
   </g>
   <g id="patch_128">
    <path d="M 108.646702 104.341983 
C 109.309092 103.798374 109.997772 103.287614 110.710255 102.811547 
C 111.422738 102.335481 112.158166 101.894683 112.913881 101.490745 
L 112.913881 101.490745 
C 112.158166 101.894683 111.422738 102.335481 110.710255 102.811547 
C 109.997772 103.287614 109.309092 103.798374 108.646702 104.341983 
z
" clip-path="url(#pe792cf2375)" style="fill: #828282"/>
   </g>
   <g id="patch_129">
    <path d="M 95.034925 68.041571 
C 96.885481 67.052428 98.783487 66.154738 100.722085 65.351744 
C 102.660684 64.54875 104.637539 63.84142 106.64551 63.232309 
L 106.64551 63.232309 
C 104.637539 63.84142 102.660684 64.54875 100.722085 65.351744 
C 98.783487 66.154738 96.885481 67.052428 95.034925 68.041571 
z
" clip-path="url(#pe792cf2375)" style="fill: #828282"/>
   </g>
   <g id="patch_130">
    <path d="M 110.50058 75.940773 
C 112.092584 75.457844 113.707339 75.053369 115.339012 74.728809 
C 116.970685 74.404249 118.61731 74.159995 120.272939 73.99693 
L 120.150763 72.756457 
C 118.454531 72.923521 116.767525 73.173765 115.095837 73.506284 
C 113.424148 73.838804 111.769793 74.253198 110.138747 74.747971 
z
" clip-path="url(#pe792cf2375)" style="fill: #828282"/>
   </g>
   <g id="patch_131">
    <path d="M 125.254844 124.579062 
C 125.254844 124.579062 125.254844 124.579062 125.254844 124.579062 
C 125.254844 124.579062 125.254844 124.579062 125.254844 124.579062 
L 129.535444 81.117402 
C 128.112879 80.977292 126.684292 80.90711 125.254844 80.90711 
C 123.825396 80.90711 122.396809 80.977292 120.974244 81.117402 
L 125.254844 124.579062 
z
" clip-path="url(#pe792cf2375)" style="fill: none; stroke: #292929; stroke-width: 0.5; stroke-linejoin: miter"/>
   </g>
   <g id="patch_132">
    <path d="M 125.254844 124.579062 
C 125.254844 124.579062 125.254844 124.579062 125.254844 124.579062 
C 125.254844 124.579062 125.254844 124.579062 125.254844 124.579062 
L 157.441609 18.473516 
C 153.968616 17.419995 150.445992 16.537624 146.886459 15.829589 
C 143.326926 15.121554 139.734777 14.588709 136.122984 14.232978 
L 125.254844 124.579062 
z
" clip-path="url(#pe792cf2375)" style="fill: none; stroke: #292929; stroke-width: 0.5; stroke-linejoin: miter"/>
   </g>
   <g id="patch_133">
    <path d="M 125.254844 124.579062 
C 125.254844 124.579062 125.254844 124.579062 125.254844 124.579062 
C 125.254844 124.579062 125.254844 124.579062 125.254844 124.579062 
L 166.55484 47.312205 
C 164.02578 45.960394 161.431875 44.733568 158.782492 43.636158 
C 156.13311 42.538748 153.431445 41.572077 150.687256 40.739636 
L 125.254844 124.579062 
z
" clip-path="url(#pe792cf2375)" style="fill: none; stroke: #292929; stroke-width: 0.5; stroke-linejoin: miter"/>
   </g>
   <g id="patch_134">
    <path d="M 125.254844 124.579062 
C 125.254844 124.579062 125.254844 124.579062 125.254844 124.579062 
C 125.254844 124.579062 125.254844 124.579062 125.254844 124.579062 
L 169.973235 70.089545 
C 168.189712 68.625845 166.3354 67.250594 164.416997 65.968758 
C 162.498594 64.686922 160.518413 63.500048 158.483606 62.412421 
L 125.254844 124.579062 
z
" clip-path="url(#pe792cf2375)" style="fill: none; stroke: #292929; stroke-width: 0.5; stroke-linejoin: miter"/>
   </g>
   <g id="patch_135">
    <path d="M 125.254844 124.579062 
C 125.254844 124.579062 125.254844 124.579062 125.254844 124.579062 
C 125.254844 124.579062 125.254844 124.579062 125.254844 124.579062 
L 161.795179 94.591184 
C 160.813631 93.395165 159.773953 92.248057 158.679901 91.154005 
C 157.585849 90.059953 156.438742 89.020275 155.242722 88.038727 
L 125.254844 124.579062 
z
" clip-path="url(#pe792cf2375)" style="fill: none; stroke: #292929; stroke-width: 0.5; stroke-linejoin: miter"/>
   </g>
   <g id="patch_136">
    <path d="M 125.254844 124.579062 
C 125.254844 124.579062 125.254844 124.579062 125.254844 124.579062 
C 125.254844 124.579062 125.254844 124.579062 125.254844 124.579062 
L 163.027475 104.389171 
C 162.366629 103.152816 161.645481 101.949652 160.866634 100.784025 
C 160.087786 99.618398 159.25218 98.491713 158.362832 97.408039 
L 125.254844 124.579062 
z
" clip-path="url(#pe792cf2375)" style="fill: none; stroke: #292929; stroke-width: 0.5; stroke-linejoin: miter"/>
   </g>
   <g id="patch_137">
    <path d="M 125.254844 124.579062 
C 125.254844 124.579062 125.254844 124.579062 125.254844 124.579062 
C 125.254844 124.579062 125.254844 124.579062 125.254844 124.579062 
L 184.254952 106.681575 
C 183.669141 104.750414 182.988867 102.849178 182.21659 100.984735 
C 181.444312 99.120292 180.580961 97.294889 179.629655 95.51512 
L 125.254844 124.579062 
z
" clip-path="url(#pe792cf2375)" style="fill: none; stroke: #292929; stroke-width: 0.5; stroke-linejoin: miter"/>
   </g>
   <g id="patch_138">
    <path d="M 125.254844 124.579062 
C 125.254844 124.579062 125.254844 124.579062 125.254844 124.579062 
C 125.254844 124.579062 125.254844 124.579062 125.254844 124.579062 
L 185.676708 118.628028 
C 185.481922 116.65033 185.190153 114.683388 184.802457 112.734306 
C 184.41476 110.785223 183.931603 108.856351 183.35473 106.954655 
L 125.254844 124.579062 
z
" clip-path="url(#pe792cf2375)" style="fill: none; stroke: #292929; stroke-width: 0.5; stroke-linejoin: miter"/>
   </g>
   <g id="patch_139">
    <path d="M 125.254844 124.579062 
C 125.254844 124.579062 125.254844 124.579062 125.254844 124.579062 
C 125.254844 124.579062 125.254844 124.579062 125.254844 124.579062 
L 144.911119 126.515037 
C 144.974486 125.871657 145.006227 125.225555 145.006227 124.579062 
C 145.006227 123.93257 144.974486 123.286468 144.911119 122.643088 
L 125.254844 124.579062 
z
" clip-path="url(#pe792cf2375)" style="fill: none; stroke: #292929; stroke-width: 0.5; stroke-linejoin: miter"/>
   </g>
   <g id="patch_140">
    <path d="M 125.254844 124.579062 
C 125.254844 124.579062 125.254844 124.579062 125.254844 124.579062 
C 125.254844 124.579062 125.254844 124.579062 125.254844 124.579062 
L 145.542248 130.733179 
C 145.743681 130.069142 145.912391 129.395616 146.047767 128.715032 
C 146.183144 128.034449 146.285024 127.347629 146.35304 126.657053 
L 125.254844 124.579062 
z
" clip-path="url(#pe792cf2375)" style="fill: none; stroke: #292929; stroke-width: 0.5; stroke-linejoin: miter"/>
   </g>
   <g id="patch_141">
    <path d="M 125.254844 124.579062 
C 125.254844 124.579062 125.254844 124.579062 125.254844 124.579062 
C 125.254844 124.579062 125.254844 124.579062 125.254844 124.579062 
L 156.127413 141.080794 
C 156.667539 140.070289 157.157727 139.033874 157.596205 137.975293 
C 158.034684 136.916712 158.420925 135.837241 158.753533 134.740779 
L 125.254844 124.579062 
z
" clip-path="url(#pe792cf2375)" style="fill: none; stroke: #292929; stroke-width: 0.5; stroke-linejoin: miter"/>
   </g>
   <g id="patch_142">
    <path d="M 125.254844 124.579062 
C 125.254844 124.579062 125.254844 124.579062 125.254844 124.579062 
C 125.254844 124.579062 125.254844 124.579062 125.254844 124.579062 
L 137.349439 134.50484 
C 137.674325 134.108966 137.979578 133.69738 138.264097 133.271567 
C 138.548615 132.845755 138.812056 132.406231 139.053468 131.954581 
L 125.254844 124.579062 
z
" clip-path="url(#pe792cf2375)" style="fill: none; stroke: #292929; stroke-width: 0.5; stroke-linejoin: miter"/>
   </g>
   <g id="patch_143">
    <path d="M 125.254844 124.579062 
C 125.254844 124.579062 125.254844 124.579062 125.254844 124.579062 
C 125.254844 124.579062 125.254844 124.579062 125.254844 124.579062 
L 129.036264 129.186736 
C 129.18708 129.062965 129.331728 128.931863 129.469686 128.793905 
C 129.607644 128.655947 129.738746 128.511299 129.862518 128.360483 
L 125.254844 124.579062 
z
" clip-path="url(#pe792cf2375)" style="fill: none; stroke: #292929; stroke-width: 0.5; stroke-linejoin: miter"/>
   </g>
   <g id="patch_144">
    <path d="M 125.254844 124.579062 
C 125.254844 124.579062 125.254844 124.579062 125.254844 124.579062 
C 125.254844 124.579062 125.254844 124.579062 125.254844 124.579062 
L 132.085724 137.35874 
C 132.504022 137.135155 132.91109 136.891168 133.305459 136.627659 
C 133.699827 136.364151 134.081021 136.081439 134.447662 135.780544 
L 125.254844 124.579062 
z
" clip-path="url(#pe792cf2375)" style="fill: none; stroke: #292929; stroke-width: 0.5; stroke-linejoin: miter"/>
   </g>
   <g id="patch_145">
    <path d="M 125.254844 124.579062 
C 125.254844 124.579062 125.254844 124.579062 125.254844 124.579062 
C 125.254844 124.579062 125.254844 124.579062 125.254844 124.579062 
L 127.250319 131.157262 
C 127.465633 131.091947 127.677611 131.0161 127.885486 130.929996 
C 128.093362 130.843891 128.296885 130.747632 128.495319 130.641566 
L 125.254844 124.579062 
z
" clip-path="url(#pe792cf2375)" style="fill: none; stroke: #292929; stroke-width: 0.5; stroke-linejoin: miter"/>
   </g>
   <g id="patch_146">
    <path d="M 125.254844 124.579062 
C 125.254844 124.579062 125.254844 124.579062 125.254844 124.579062 
C 125.254844 124.579062 125.254844 124.579062 125.254844 124.579062 
L 125.254844 124.579062 
C 125.254844 124.579062 125.254844 124.579062 125.254844 124.579062 
C 125.254844 124.579062 125.254844 124.579062 125.254844 124.579062 
L 125.254844 124.579062 
z
" clip-path="url(#pe792cf2375)" style="fill: none; stroke: #292929; stroke-width: 0.5; stroke-linejoin: miter"/>
   </g>
   <g id="patch_147">
    <path d="M 125.254844 124.579062 
C 125.254844 124.579062 125.254844 124.579062 125.254844 124.579062 
C 125.254844 124.579062 125.254844 124.579062 125.254844 124.579062 
L 125.137994 125.76546 
C 125.176826 125.769284 125.215823 125.7712 125.254844 125.7712 
C 125.293864 125.7712 125.332861 125.769284 125.371694 125.76546 
L 125.254844 124.579062 
z
" clip-path="url(#pe792cf2375)" style="fill: none; stroke: #292929; stroke-width: 0.5; stroke-linejoin: miter"/>
   </g>
   <g id="patch_148">
    <path d="M 125.254844 124.579062 
C 125.254844 124.579062 125.254844 124.579062 125.254844 124.579062 
C 125.254844 124.579062 125.254844 124.579062 125.254844 124.579062 
L 124.680969 126.470873 
C 124.742891 126.489656 124.805698 126.505389 124.869163 126.518013 
C 124.932627 126.530637 124.996674 126.540137 125.06107 126.546479 
L 125.254844 124.579062 
z
" clip-path="url(#pe792cf2375)" style="fill: none; stroke: #292929; stroke-width: 0.5; stroke-linejoin: miter"/>
   </g>
   <g id="patch_149">
    <path d="M 125.254844 124.579062 
C 125.254844 124.579062 125.254844 124.579062 125.254844 124.579062 
C 125.254844 124.579062 125.254844 124.579062 125.254844 124.579062 
L 125.254844 124.579062 
C 125.254844 124.579062 125.254844 124.579062 125.254844 124.579062 
C 125.254844 124.579062 125.254844 124.579062 125.254844 124.579062 
L 125.254844 124.579062 
z
" clip-path="url(#pe792cf2375)" style="fill: none; stroke: #292929; stroke-width: 0.5; stroke-linejoin: miter"/>
   </g>
   <g id="patch_150">
    <path d="M 125.254844 124.579062 
C 125.254844 124.579062 125.254844 124.579062 125.254844 124.579062 
C 125.254844 124.579062 125.254844 124.579062 125.254844 124.579062 
L 115.710971 136.208305 
C 116.091613 136.520691 116.487364 136.814199 116.896792 137.08777 
C 117.306221 137.361342 117.728835 137.614647 118.163106 137.84677 
L 125.254844 124.579062 
z
" clip-path="url(#pe792cf2375)" style="fill: none; stroke: #292929; stroke-width: 0.5; stroke-linejoin: miter"/>
   </g>
   <g id="patch_151">
    <path d="M 125.254844 124.579062 
C 125.254844 124.579062 125.254844 124.579062 125.254844 124.579062 
C 125.254844 124.579062 125.254844 124.579062 125.254844 124.579062 
L 120.693479 128.322477 
C 120.816007 128.471778 120.945791 128.614972 121.082362 128.751544 
C 121.218934 128.888115 121.362129 129.017899 121.511429 129.140427 
L 125.254844 124.579062 
z
" clip-path="url(#pe792cf2375)" style="fill: none; stroke: #292929; stroke-width: 0.5; stroke-linejoin: miter"/>
   </g>
   <g id="patch_152">
    <path d="M 125.254844 124.579062 
C 125.254844 124.579062 125.254844 124.579062 125.254844 124.579062 
C 125.254844 124.579062 125.254844 124.579062 125.254844 124.579062 
L 107.560228 134.037031 
C 107.869802 134.616203 108.207624 135.179826 108.572476 135.725864 
C 108.937327 136.271903 109.328768 136.7997 109.745384 137.307347 
L 125.254844 124.579062 
z
" clip-path="url(#pe792cf2375)" style="fill: none; stroke: #292929; stroke-width: 0.5; stroke-linejoin: miter"/>
   </g>
   <g id="patch_153">
    <path d="M 125.254844 124.579062 
C 125.254844 124.579062 125.254844 124.579062 125.254844 124.579062 
C 125.254844 124.579062 125.254844 124.579062 125.254844 124.579062 
L 105.380602 130.607848 
C 105.577933 131.258361 105.807084 131.898795 106.067226 132.526834 
C 106.327369 133.154873 106.618189 133.769762 106.938638 134.369279 
L 125.254844 124.579062 
z
" clip-path="url(#pe792cf2375)" style="fill: none; stroke: #292929; stroke-width: 0.5; stroke-linejoin: miter"/>
   </g>
   <g id="patch_154">
    <path d="M 125.254844 124.579062 
C 125.254844 124.579062 125.254844 124.579062 125.254844 124.579062 
C 125.254844 124.579062 125.254844 124.579062 125.254844 124.579062 
L 110.676153 126.014938 
C 110.723151 126.492121 110.79355 126.966708 110.887094 127.436986 
C 110.980638 127.907264 111.097215 128.372665 111.236404 128.83151 
L 125.254844 124.579062 
z
" clip-path="url(#pe792cf2375)" style="fill: none; stroke: #292929; stroke-width: 0.5; stroke-linejoin: miter"/>
   </g>
   <g id="patch_155">
    <path d="M 125.254844 124.579062 
C 125.254844 124.579062 125.254844 124.579062 125.254844 124.579062 
C 125.254844 124.579062 125.254844 124.579062 125.254844 124.579062 
L 106.732226 122.754744 
C 106.672513 123.361017 106.642603 123.969856 106.642603 124.579062 
C 106.642603 125.188269 106.672513 125.797108 106.732226 126.403381 
L 125.254844 124.579062 
z
" clip-path="url(#pe792cf2375)" style="fill: none; stroke: #292929; stroke-width: 0.5; stroke-linejoin: miter"/>
   </g>
   <g id="patch_156">
    <path d="M 125.254844 124.579062 
C 125.254844 124.579062 125.254844 124.579062 125.254844 124.579062 
C 125.254844 124.579062 125.254844 124.579062 125.254844 124.579062 
L 104.437116 118.264074 
C 104.230417 118.945469 104.057297 119.636602 103.918382 120.334976 
C 103.779467 121.033351 103.674923 121.738124 103.60513 122.446752 
L 125.254844 124.579062 
z
" clip-path="url(#pe792cf2375)" style="fill: none; stroke: #292929; stroke-width: 0.5; stroke-linejoin: miter"/>
   </g>
   <g id="patch_157">
    <path d="M 125.254844 124.579062 
C 125.254844 124.579062 125.254844 124.579062 125.254844 124.579062 
C 125.254844 124.579062 125.254844 124.579062 125.254844 124.579062 
L 112.335375 117.673463 
C 112.109345 118.096336 111.904212 118.530052 111.720719 118.973045 
C 111.537226 119.416037 111.375593 119.867771 111.236404 120.326615 
L 125.254844 124.579062 
z
" clip-path="url(#pe792cf2375)" style="fill: none; stroke: #292929; stroke-width: 0.5; stroke-linejoin: miter"/>
   </g>
   <g id="patch_158">
    <path d="M 125.254844 124.579062 
C 125.254844 124.579062 125.254844 124.579062 125.254844 124.579062 
C 125.254844 124.579062 125.254844 124.579062 125.254844 124.579062 
L 113.98722 115.331963 
C 113.684549 115.700769 113.400168 116.084213 113.135103 116.480911 
C 112.870038 116.877608 112.62461 117.28708 112.399705 117.707848 
L 125.254844 124.579062 
z
" clip-path="url(#pe792cf2375)" style="fill: none; stroke: #292929; stroke-width: 0.5; stroke-linejoin: miter"/>
   </g>
   <g id="patch_159">
    <path d="M 125.254844 124.579062 
C 125.254844 124.579062 125.254844 124.579062 125.254844 124.579062 
C 125.254844 124.579062 125.254844 124.579062 125.254844 124.579062 
L 115.984578 113.283211 
C 115.614848 113.586641 115.260238 113.90804 114.92203 114.246249 
C 114.583821 114.584457 114.262422 114.939067 113.958992 115.308797 
L 125.254844 124.579062 
z
" clip-path="url(#pe792cf2375)" style="fill: none; stroke: #292929; stroke-width: 0.5; stroke-linejoin: miter"/>
   </g>
   <g id="patch_160">
    <path d="M 125.254844 124.579062 
C 125.254844 124.579062 125.254844 124.579062 125.254844 124.579062 
C 125.254844 124.579062 125.254844 124.579062 125.254844 124.579062 
L 112.913881 101.490745 
C 112.158166 101.894683 111.422738 102.335481 110.710255 102.811547 
C 109.997772 103.287614 109.309092 103.798374 108.646702 104.341983 
L 125.254844 124.579062 
z
" clip-path="url(#pe792cf2375)" style="fill: none; stroke: #292929; stroke-width: 0.5; stroke-linejoin: miter"/>
   </g>
   <g id="patch_161">
    <path d="M 125.254844 124.579062 
C 125.254844 124.579062 125.254844 124.579062 125.254844 124.579062 
C 125.254844 124.579062 125.254844 124.579062 125.254844 124.579062 
L 106.64551 63.232309 
C 104.637539 63.84142 102.660684 64.54875 100.722085 65.351744 
C 98.783487 66.154738 96.885481 67.052428 95.034925 68.041571 
L 125.254844 124.579062 
z
" clip-path="url(#pe792cf2375)" style="fill: none; stroke: #292929; stroke-width: 0.5; stroke-linejoin: miter"/>
   </g>
   <g id="patch_162">
    <path d="M 125.254844 124.579062 
C 125.254844 124.579062 125.254844 124.579062 125.254844 124.579062 
C 125.254844 124.579062 125.254844 124.579062 125.254844 124.579062 
L 120.150763 72.756457 
C 118.454531 72.923521 116.767525 73.173765 115.095837 73.506284 
C 113.424148 73.838804 111.769793 74.253198 110.138747 74.747971 
L 125.254844 124.579062 
z
" clip-path="url(#pe792cf2375)" style="fill: none; stroke: #292929; stroke-width: 0.5; stroke-linejoin: miter"/>
   </g>
   <g id="PathCollection_1">
    <defs>
     <path id="mf7514f7dc9" d="M 0.193618 7.414054 
L 0.193618 7.414054 
C 0.054922 7.414054 -0.078235 7.358899 -0.176308 7.260826 
C -0.274381 7.162753 -0.329536 7.029596 -0.329536 6.890901 
L -0.329536 5.365008 
L -1.528416 6.56393 
L -1.528416 6.56393 
C -1.577018 6.612704 -1.634775 6.651408 -1.698366 6.677814 
C -1.761958 6.704221 -1.830141 6.717815 -1.898997 6.717815 
C -1.967853 6.717815 -2.036037 6.704221 -2.099628 6.677814 
C -2.163219 6.651408 -2.220976 6.612704 -2.269578 6.56393 
L -2.269578 6.56393 
C -2.318353 6.515327 -2.357056 6.457571 -2.383463 6.393979 
C -2.409869 6.330388 -2.423463 6.262205 -2.423463 6.193348 
C -2.423463 6.124492 -2.409869 6.056309 -2.383463 5.992718 
C -2.357056 5.929126 -2.318353 5.87137 -2.269578 5.822767 
L -0.329536 3.884106 
L -0.329536 0.820937 
L -2.98067 2.351538 
L -3.691824 5.001416 
L -3.691824 5.001416 
C -3.727584 5.135411 -3.815199 5.249836 -3.93523 5.319305 
C -4.055261 5.388775 -4.198123 5.407741 -4.332122 5.371997 
L -4.332122 5.371997 
C -4.466126 5.336237 -4.580558 5.248616 -4.650029 5.128576 
C -4.719499 5.008535 -4.73846 4.865662 -4.702703 4.731657 
L -4.262647 3.092721 
L -5.585535 3.855668 
L -5.585535 3.855668 
C -5.645013 3.890144 -5.710708 3.912561 -5.778854 3.921634 
C -5.847001 3.930706 -5.916272 3.926258 -5.982698 3.908543 
C -6.049125 3.890828 -6.111412 3.860192 -6.165991 3.818391 
C -6.220571 3.77659 -6.266379 3.724437 -6.300791 3.664922 
L -6.300791 3.664922 
C -6.335212 3.605364 -6.35755 3.539597 -6.366524 3.471396 
C -6.375498 3.403194 -6.370933 3.333888 -6.35309 3.267452 
C -6.335248 3.201017 -6.304476 3.138749 -6.26254 3.08422 
C -6.220605 3.029692 -6.168323 2.983966 -6.108695 2.949666 
L -4.785807 2.186762 
L -6.424743 1.746706 
L -6.424743 1.746706 
C -6.558747 1.710946 -6.673179 1.623325 -6.74265 1.503284 
C -6.81212 1.383244 -6.831081 1.240371 -6.795324 1.106366 
L -6.795324 1.106366 
C -6.777471 1.039969 -6.746703 0.977739 -6.704784 0.923241 
C -6.662864 0.868744 -6.61061 0.823041 -6.551015 0.788752 
C -6.491421 0.754464 -6.425647 0.732257 -6.357465 0.723406 
C -6.289282 0.714554 -6.220019 0.71923 -6.153645 0.737166 
L -3.505232 1.44698 
L -0.852424 -0.08496 
L -3.503767 -1.615666 
L -6.153645 -0.905851 
L -6.153645 -0.905851 
C -6.22011 -0.887939 -6.289462 -0.883321 -6.357716 -0.892262 
C -6.42597 -0.901202 -6.491793 -0.923527 -6.551403 -0.957953 
C -6.611013 -0.992379 -6.663247 -1.038234 -6.705103 -1.092883 
C -6.746958 -1.147533 -6.777619 -1.209911 -6.795324 -1.276432 
L -6.795324 -1.276432 
C -6.831068 -1.410431 -6.812101 -1.553293 -6.742632 -1.673324 
C -6.673162 -1.793355 -6.558738 -1.88097 -6.424743 -1.91673 
L -4.785807 -2.355447 
L -6.108695 -3.119732 
L -6.108695 -3.119732 
C -6.228699 -3.188976 -6.316415 -3.303132 -6.352417 -3.436921 
C -6.388419 -3.57071 -6.369839 -3.713469 -6.300791 -3.833586 
L -6.300791 -3.833586 
C -6.266491 -3.893214 -6.220765 -3.945496 -6.166237 -3.987431 
C -6.111708 -4.029367 -6.04944 -4.060139 -5.983005 -4.077981 
C -5.91657 -4.095823 -5.847263 -4.100389 -5.779062 -4.091415 
C -5.71086 -4.082441 -5.645094 -4.060102 -5.585535 -4.025682 
L -4.262647 -3.261396 
L -4.702703 -4.900332 
L -4.702703 -4.900332 
C -4.73846 -5.034337 -4.719499 -5.17721 -4.650029 -5.29725 
C -4.580558 -5.417291 -4.466126 -5.504912 -4.332122 -5.540672 
L -4.332122 -5.540672 
C -4.19831 -5.576464 -4.055613 -5.557686 -3.935617 -5.488496 
C -3.81562 -5.419305 -3.727882 -5.305212 -3.691824 -5.171472 
L -2.982009 -2.521594 
L -0.329411 -0.990302 
L -0.329411 -4.051588 
L -2.269453 -5.991589 
L -2.269453 -5.991589 
C -2.318227 -6.040191 -2.356931 -6.097947 -2.383337 -6.161539 
C -2.409744 -6.22513 -2.423338 -6.293314 -2.423338 -6.36217 
C -2.423338 -6.431026 -2.409744 -6.499209 -2.383337 -6.5628 
C -2.356931 -6.626392 -2.318227 -6.684149 -2.269453 -6.732751 
L -2.269453 -6.732751 
C -2.22085 -6.781526 -2.163094 -6.820229 -2.099502 -6.846635 
C -2.035911 -6.873042 -1.967728 -6.886636 -1.898871 -6.886636 
C -1.830015 -6.886636 -1.761832 -6.873042 -1.698241 -6.846635 
C -1.634649 -6.820229 -1.576893 -6.781526 -1.52829 -6.732751 
L -0.329411 -5.533829 
L -0.329411 -7.059722 
L -0.329411 -7.059722 
C -0.329411 -7.198418 -0.274255 -7.331575 -0.176182 -7.429647 
C -0.07811 -7.52772 0.055047 -7.582875 0.193743 -7.582875 
L 0.193743 -7.582875 
C 0.332439 -7.582875 0.465596 -7.52772 0.563669 -7.429647 
C 0.661741 -7.331575 0.716897 -7.198418 0.716897 -7.059722 
L 0.716897 -5.533829 
L 1.915777 -6.732751 
L 1.915777 -6.732751 
C 1.964379 -6.781526 2.022136 -6.820229 2.085727 -6.846635 
C 2.149318 -6.873042 2.217502 -6.886636 2.286358 -6.886636 
C 2.355214 -6.886636 2.423397 -6.873042 2.486989 -6.846635 
C 2.55058 -6.820229 2.608337 -6.781526 2.656939 -6.732751 
L 2.656939 -6.732751 
C 2.705714 -6.684149 2.744417 -6.626392 2.770823 -6.5628 
C 2.79723 -6.499209 2.810824 -6.431026 2.810824 -6.36217 
C 2.810824 -6.293314 2.79723 -6.22513 2.770823 -6.161539 
C 2.744417 -6.097947 2.705714 -6.040191 2.656939 -5.991589 
L 0.716897 -4.051588 
L 0.716897 -0.991139 
L 3.369495 -2.522954 
L 4.07931 -5.171367 
L 4.07931 -5.171367 
C 4.115368 -5.305107 4.203106 -5.4192 4.323103 -5.488391 
C 4.4431 -5.557582 4.585797 -5.576359 4.719608 -5.540567 
L 4.719608 -5.540567 
C 4.853612 -5.504807 4.968045 -5.417186 5.037515 -5.297146 
C 5.106986 -5.177105 5.125946 -5.034232 5.090189 -4.900227 
L 4.650133 -3.262673 
L 5.973022 -4.025577 
L 5.973022 -4.025577 
C 6.03258 -4.059998 6.098346 -4.082336 6.166548 -4.09131 
C 6.234749 -4.100284 6.304056 -4.095719 6.370491 -4.077876 
C 6.436926 -4.060034 6.499194 -4.029262 6.553723 -3.987327 
C 6.608252 -3.945391 6.653978 -3.893109 6.688277 -3.833481 
L 6.688277 -3.833481 
C 6.757325 -3.713365 6.775905 -3.570605 6.739903 -3.436816 
C 6.703901 -3.303027 6.616186 -3.188871 6.496181 -3.119628 
L 5.173293 -2.355342 
L 6.812229 -1.916625 
L 6.812229 -1.916625 
C 6.946224 -1.880865 7.060649 -1.79325 7.130118 -1.67322 
C 7.199588 -1.553189 7.218554 -1.410326 7.18281 -1.276327 
L 7.18281 -1.276327 
C 7.165106 -1.209806 7.134445 -1.147429 7.092589 -1.092779 
C 7.050733 -1.038129 6.998499 -0.992274 6.938889 -0.957848 
C 6.879279 -0.923422 6.813456 -0.901098 6.745202 -0.892157 
C 6.676949 -0.883217 6.607597 -0.887835 6.541131 -0.905746 
L 3.891253 -1.615561 
L 1.239492 -0.084604 
L 3.892718 1.447085 
L 6.541131 0.73727 
L 6.541131 0.73727 
C 6.674948 0.701466 6.817656 0.720237 6.937662 0.789429 
C 7.057669 0.858621 7.145413 0.972721 7.181471 1.10647 
L 7.181471 1.10647 
C 7.217274 1.240293 7.198497 1.383006 7.129297 1.503014 
C 7.060096 1.623021 6.945986 1.710762 6.812229 1.74681 
L 5.173293 2.186866 
L 6.496181 2.949771 
L 6.496181 2.949771 
C 6.555697 2.984183 6.607849 3.029991 6.649651 3.08457 
C 6.691452 3.13915 6.722088 3.201437 6.739803 3.267863 
C 6.757517 3.33429 6.761966 3.403561 6.752893 3.471707 
C 6.743821 3.539854 6.721404 3.605549 6.686927 3.665026 
L 6.686927 3.665026 
C 6.617458 3.784813 6.503196 3.87225 6.369416 3.907994 
C 6.235636 3.943739 6.092989 3.924946 5.973032 3.855772 
L 4.650144 3.091487 
L 5.08886 4.731783 
L 5.08886 4.731783 
C 5.124664 4.865606 5.105887 5.008319 5.036686 5.128326 
C 4.967486 5.248334 4.853376 5.336074 4.719619 5.372123 
L 4.719619 5.372123 
C 4.585619 5.407867 4.442757 5.3889 4.322726 5.319431 
C 4.202695 5.249961 4.115081 5.135537 4.07932 5.001542 
L 3.368166 2.351664 
L 0.717033 0.821063 
L 0.717033 3.884232 
L 2.657075 5.822893 
L 2.657075 5.822893 
C 2.70585 5.871495 2.744553 5.929252 2.770959 5.992843 
C 2.797366 6.056435 2.81096 6.124618 2.81096 6.193474 
C 2.81096 6.26233 2.797366 6.330514 2.770959 6.394105 
C 2.744553 6.457696 2.70585 6.515453 2.657075 6.564055 
L 2.657075 6.564055 
C 2.608473 6.61283 2.550716 6.651533 2.487125 6.67794 
C 2.423533 6.704346 2.35535 6.71794 2.286494 6.71794 
C 2.217638 6.71794 2.149454 6.704346 2.085863 6.67794 
C 2.022272 6.651533 1.964515 6.61283 1.915913 6.564055 
L 0.717033 5.365133 
L 0.717033 6.891026 
L 0.717033 6.891026 
C 0.717033 7.029722 0.661877 7.162879 0.563805 7.260952 
C 0.465732 7.359024 0.332575 7.41418 0.193879 7.41418 
L 0.193618 7.414054 
z
"/>
    </defs>
    <g clip-path="url(#pe792cf2375)">
     <use xlink:href="#mf7514f7dc9" x="158.909402" y="46.87539" style="fill: #9e2096; fill-opacity: 0.7"/>
    </g>
   </g>
   <g id="patch_163">
    <path d="M 125.254844 13.699062 
C 110.694216 13.699062 96.275171 16.567189 82.822905 22.1393 
C 69.370638 27.711411 57.146763 35.879144 46.850844 46.175063 
C 36.554925 56.470982 28.387192 68.694857 22.815081 82.147124 
C 17.24297 95.59939 14.374844 110.018434 14.374844 124.579063 
C 14.374844 139.139691 17.24297 153.558735 22.815081 167.011001 
C 28.387192 180.463268 36.554925 192.687143 46.850844 202.983062 
C 57.146763 213.278981 69.370638 221.446714 82.822905 227.018825 
C 96.275171 232.590936 110.694216 235.459063 125.254844 235.459063 
C 139.815472 235.459063 154.234516 232.590936 167.686783 227.018825 
C 181.139049 221.446714 193.362925 213.278981 203.658844 202.983062 
C 213.954763 192.687143 222.122495 180.463268 227.694606 167.011001 
C 233.266717 153.558735 236.134844 139.139691 236.134844 124.579062 
C 236.134844 110.018434 233.266717 95.59939 227.694606 82.147124 
C 222.122495 68.694857 213.954763 56.470982 203.658844 46.175063 
C 193.362925 35.879144 181.139049 27.711411 167.686783 22.1393 
C 154.234516 16.567189 139.815472 13.699062 125.254844 13.699062 
" style="fill: none; stroke: #000000; stroke-width: 0.8; stroke-linejoin: miter; stroke-linecap: square"/>
   </g>
  </g>
 </g>
 <defs>
  <clipPath id="pe792cf2375">
   <path d="M 236.134844 124.579063 
C 236.134844 110.018434 233.266717 95.59939 227.694606 82.147124 
C 222.122495 68.694857 213.954763 56.470982 203.658844 46.175063 
C 193.362925 35.879144 181.139049 27.711411 167.686783 22.1393 
C 154.234516 16.567189 139.815472 13.699062 125.254844 13.699062 
C 110.694216 13.699062 96.275171 16.567189 82.822905 22.1393 
C 69.370638 27.711411 57.146763 35.879144 46.850844 46.175063 
C 36.554925 56.470982 28.387192 68.694857 22.815081 82.147124 
C 17.24297 95.59939 14.374844 110.018434 14.374844 124.579062 
C 14.374844 139.139691 17.24297 153.558735 22.815081 167.011001 
C 28.387192 180.463268 36.554925 192.687143 46.850844 202.983062 
C 57.146763 213.278981 69.370638 221.446714 82.822905 227.018825 
C 96.275171 232.590936 110.694216 235.459063 125.254844 235.459063 
C 139.815472 235.459063 154.234516 232.590936 167.686783 227.018825 
C 181.139049 221.446714 193.362925 213.278981 203.658844 202.983062 
C 213.954763 192.687143 222.122495 180.463268 227.694606 167.011001 
C 233.266717 153.558735 236.134844 139.139691 236.134844 124.579063 
M 125.254844 124.579063 
C 125.254844 124.579063 125.254844 124.579063 125.254844 124.579063 
C 125.254844 124.579063 125.254844 124.579063 125.254844 124.579063 
C 125.254844 124.579063 125.254844 124.579063 125.254844 124.579063 
C 125.254844 124.579063 125.254844 124.579063 125.254844 124.579063 
C 125.254844 124.579063 125.254844 124.579063 125.254844 124.579063 
C 125.254844 124.579063 125.254844 124.579063 125.254844 124.579063 
C 125.254844 124.579063 125.254844 124.579063 125.254844 124.579063 
C 125.254844 124.579063 125.254844 124.579063 125.254844 124.579063 
C 125.254844 124.579063 125.254844 124.579063 125.254844 124.579063 
C 125.254844 124.579063 125.254844 124.579063 125.254844 124.579063 
C 125.254844 124.579063 125.254844 124.579063 125.254844 124.579063 
C 125.254844 124.579063 125.254844 124.579063 125.254844 124.579063 
C 125.254844 124.579063 125.254844 124.579063 125.254844 124.579063 
C 125.254844 124.579063 125.254844 124.579063 125.254844 124.579063 
C 125.254844 124.579063 125.254844 124.579063 125.254844 124.579063 
C 125.254844 124.579063 125.254844 124.579063 125.254844 124.579063 
z
"/>
  </clipPath>
 </defs>
</svg>
