<?xml version="1.0" encoding="utf-8" standalone="no"?>
<!DOCTYPE svg PUBLIC "-//W3C//DTD SVG 1.1//EN"
  "http://www.w3.org/Graphics/SVG/1.1/DTD/svg11.dtd">
<svg xmlns:xlink="http://www.w3.org/1999/xlink" width="248.410469pt" height="249.158125pt" viewBox="0 0 248.410469 249.158125" xmlns="http://www.w3.org/2000/svg" version="1.1">
 <title>Ski Rose for Ober Mountain</title>
 <metadata>
  <rdf:RDF xmlns:dc="http://purl.org/dc/elements/1.1/" xmlns:cc="http://creativecommons.org/ns#" xmlns:rdf="http://www.w3.org/1999/02/22-rdf-syntax-ns#">
   <cc:Work>
    <dc:type rdf:resource="http://purl.org/dc/dcmitype/StillImage"/>
    <dc:title>Ski Rose for Ober Mountain</dc:title>
    <dc:date>2026-05-30T10:51:40.258061</dc:date>
    <dc:description>A 32-bin stacked histogram of downhill ski run orientations colored by difficulty.</dc:description>
    <dc:format>image/svg+xml</dc:format>
    <dc:source>https://openskimap.org/?obj=2c873c1b73ad56441ffa1549713ef1156256241c</dc:source>
    <dc:creator>
     <cc:Agent>
      <dc:title>https://github.com/dhimmel/openskistats</dc:title>
     </cc:Agent>
    </dc:creator>
    <dc:rights>
     <cc:Agent>
      <dc:title>https://creativecommons.org/licenses/by/4.0/</dc:title>
     </cc:Agent>
    </dc:rights>
   </cc:Work>
  </rdf:RDF>
 </metadata>
 <defs>
  <style type="text/css">*{stroke-linejoin: round; stroke-linecap: butt}</style>
 </defs>
 <g id="figure_1">
  <g id="patch_1">
   <path d="M 0 249.158125 
L 248.410469 249.158125 
L 248.410469 0 
L 0 0 
z
" style="fill: #ffffff"/>
  </g>
  <g id="axes_1">
   <g id="patch_2">
    <path d="M 236.134844 124.579062 
C 236.134844 110.018434 233.266717 95.59939 227.694606 82.147124 
C 222.122495 68.694857 213.954763 56.470982 203.658844 46.175063 
C 193.362925 35.879144 181.139049 27.711411 167.686783 22.1393 
C 154.234516 16.567189 139.815472 13.699062 125.254844 13.699062 
C 110.694216 13.699062 96.275171 16.567189 82.822905 22.1393 
C 69.370638 27.711411 57.146763 35.879144 46.850844 46.175063 
C 36.554925 56.470982 28.387192 68.694857 22.815081 82.147124 
C 17.24297 95.59939 14.374844 110.018434 14.374844 124.579062 
C 14.374844 139.139691 17.24297 153.558735 22.815081 167.011001 
C 28.387192 180.463268 36.554925 192.687143 46.850844 202.983062 
C 57.146763 213.278981 69.370638 221.446714 82.822905 227.018825 
C 96.275171 232.590936 110.694216 235.459062 125.254844 235.459062 
C 139.815472 235.459062 154.234516 232.590936 167.686783 227.018825 
C 181.139049 221.446714 193.362925 213.278981 203.658844 202.983062 
C 213.954763 192.687143 222.122495 180.463268 227.694606 167.011001 
C 233.266717 153.558735 236.134844 139.139691 236.134844 124.579062 
M 125.254844 124.579062 
C 125.254844 124.579062 125.254844 124.579062 125.254844 124.579062 
C 125.254844 124.579062 125.254844 124.579062 125.254844 124.579062 
C 125.254844 124.579062 125.254844 124.579062 125.254844 124.579062 
C 125.254844 124.579062 125.254844 124.579062 125.254844 124.579062 
C 125.254844 124.579062 125.254844 124.579062 125.254844 124.579062 
C 125.254844 124.579062 125.254844 124.579062 125.254844 124.579062 
C 125.254844 124.579062 125.254844 124.579062 125.254844 124.579062 
C 125.254844 124.579062 125.254844 124.579062 125.254844 124.579062 
C 125.254844 124.579062 125.254844 124.579062 125.254844 124.579062 
C 125.254844 124.579062 125.254844 124.579062 125.254844 124.579062 
C 125.254844 124.579062 125.254844 124.579062 125.254844 124.579062 
C 125.254844 124.579062 125.254844 124.579062 125.254844 124.579062 
C 125.254844 124.579062 125.254844 124.579062 125.254844 124.579062 
C 125.254844 124.579062 125.254844 124.579062 125.254844 124.579062 
C 125.254844 124.579062 125.254844 124.579062 125.254844 124.579062 
C 125.254844 124.579062 125.254844 124.579062 125.254844 124.579062 
z
" style="fill: #ffffff"/>
   </g>
   <g id="FillBetweenPolyCollection_1">
    <defs>
     <path id="me86b361f5e" d="M 235.557738 -135.200023 
L 234.604886 -135.108274 
L 233.176863 -133.07271 
L 231.646822 -131.086275 
L 230.290847 -129.165033 
L 228.640218 -127.286304 
L 226.944961 -125.466499 
L 225.211353 -123.706755 
L 223.44387 -122.007892 
L 221.646068 -120.370531 
L 220.069128 -118.779972 
L 218.219131 -117.262614 
L 216.347053 -115.80788 
L 214.701625 -114.387889 
L 212.79186 -113.054596 
L 211.111275 -111.747733 
L 209.415557 -110.495389 
L 207.46528 -109.342259 
L 205.746549 -108.20284 
L 204.018494 -107.117582 
L 202.283 -106.086238 
L 200.541957 -105.108491 
L 199.029013 -104.119675 
L 197.280162 -103.244191 
L 195.53129 -102.420984 
L 194.008628 -101.574368 
L 192.484269 -100.771874 
L 190.740706 -100.094902 
L 189.220195 -99.38244 
L 187.702472 -98.712408 
L 186.188977 -98.084147 
L 184.88769 -97.402809 
L 183.383489 -96.853121 
L 181.887654 -96.342985 
L 180.59773 -95.769379 
L 179.11897 -95.333228 
L 177.841301 -94.827077 
L 176.569578 -94.352374 
L 175.304777 -93.908424 
L 174.047855 -93.494486 
L 172.799752 -93.109774 
L 171.56139 -92.753455 
L 170.333668 -92.424649 
L 169.117463 -92.122431 
L 168.070438 -91.725501 
L 166.875308 -91.472651 
L 165.694076 -91.243532 
L 164.671224 -90.914294 
L 163.654955 -90.605514 
L 162.510283 -90.440742 
L 161.512861 -90.171489 
L 160.52352 -89.920631 
L 159.542694 -89.687492 
L 158.570794 -89.471376 
L 157.608204 -89.271566 
L 156.655278 -89.087328 
L 155.712347 -88.917909 
L 154.779707 -88.76254 
L 153.857627 -88.620436 
L 152.946344 -88.490797 
L 152.134046 -88.253906 
L 151.240563 -88.148428 
L 150.358402 -88.053158 
L 149.563387 -87.852859 
L 148.699863 -87.777755 
L 147.847906 -87.710535 
L 147.071263 -87.542132 
L 146.238259 -87.491002 
L 145.473032 -87.341791 
L 144.658931 -87.304158 
L 143.905197 -87.17224 
L 143.155608 -87.04933 
L 142.367375 -87.029039 
L 141.629134 -86.920773 
L 140.894986 -86.820419 
L 140.131518 -86.812424 
L 139.408205 -86.724178 
L 138.688776 -86.642809 
L 137.973158 -86.568027 
L 137.238828 -86.570721 
L 136.532886 -86.505029 
L 135.830354 -86.445005 
L 135.131103 -86.390403 
L 134.434995 -86.340982 
L 133.730337 -86.348584 
L 133.041759 -86.305149 
L 132.355716 -86.266183 
L 131.672024 -86.231507 
L 130.990491 -86.200953 
L 130.310918 -86.174369 
L 129.633098 -86.151619 
L 128.956819 -86.132583 
L 128.281861 -86.117156 
L 127.608003 -86.105249 
L 126.934569 -86.107034 
L 126.262511 -86.097791 
L 125.590716 -86.091897 
L 124.918969 -86.091667 
L 124.247146 -86.09664 
L 123.575028 -86.104964 
L 122.902383 -86.11667 
L 122.228979 -86.13181 
L 121.554589 -86.150448 
L 120.878988 -86.172668 
L 120.201956 -86.198569 
L 119.523279 -86.228267 
L 118.836199 -86.222755 
L 118.152193 -86.25659 
L 117.465808 -86.294729 
L 116.776862 -86.337356 
L 116.085181 -86.384667 
L 115.390602 -86.436871 
L 114.692974 -86.49419 
L 113.972459 -86.490371 
L 113.266018 -86.555366 
L 112.556032 -86.626316 
L 111.8424 -86.703489 
L 111.094881 -86.706522 
L 110.370983 -86.794182 
L 109.643127 -86.889044 
L 108.911269 -86.991414 
L 108.133127 -87.008885 
L 107.390133 -87.124917 
L 106.643027 -87.249532 
L 105.839436 -87.282411 
L 105.080911 -87.423301 
L 104.258578 -87.468289 
L 103.488615 -87.627339 
L 102.647369 -87.687017 
L 101.866128 -87.866133 
L 101.006027 -87.943097 
L 100.134429 -88.028632 
L 99.335166 -88.241015 
L 98.44519 -88.347894 
L 97.54405 -88.465653 
L 96.728047 -88.715963 
L 95.809515 -88.859023 
L 94.880428 -89.015191 
L 93.941049 -89.185256 
L 92.991672 -89.369989 
L 92.032622 -89.570145 
L 91.064251 -89.786462 
L 90.086939 -90.019659 
L 89.101093 -90.270434 
L 87.972228 -90.415839 
L 86.966493 -90.704392 
L 85.95364 -91.012664 
L 84.786364 -91.219422 
L 83.756841 -91.57006 
L 82.565556 -91.82242 
L 81.5218 -92.218312 
L 80.309341 -92.519747 
L 79.085307 -92.847619 
L 77.850575 -93.202861 
L 76.606041 -93.586357 
L 75.352628 -93.998945 
L 74.091273 -94.441416 
L 72.822934 -94.914515 
L 71.548586 -95.418944 
L 70.073522 -95.853485 
L 68.786785 -96.425127 
L 67.294494 -96.933394 
L 65.793758 -97.481084 
L 64.495452 -98.160127 
L 62.985274 -98.786162 
L 61.470791 -99.453856 
L 59.953445 -100.16387 
L 58.213351 -100.838425 
L 56.692005 -101.638258 
L 55.172285 -102.482117 
L 53.426648 -103.302581 
L 51.912349 -104.239389 
L 50.170735 -105.160992 
L 48.432704 -106.135698 
L 46.70015 -107.163906 
L 44.974965 -108.245936 
L 43.259034 -109.382038 
L 41.554244 -110.572386 
L 39.61878 -111.780667 
L 37.940791 -113.083949 
L 36.279758 -114.441632 
L 34.390919 -115.829862 
L 32.521556 -117.280794 
L 30.921969 -118.809417 
L 29.099428 -120.380826 
L 27.304008 -122.01413 
L 25.78646 -123.711015 
L 24.054087 -125.462228 
L 22.359066 -127.273483 
L 20.707005 -129.14372 
L 19.106524 -131.071372 
L 17.572819 -133.053822 
L 16.135157 -135.086093 
L 15.05061 -135.190523 
L 15.05061 -135.190523 
L 14.744546 -133.276412 
L 14.682539 -131.341954 
L 14.512786 -129.414165 
L 14.480474 -127.479791 
L 14.516237 -125.545464 
L 14.404311 -123.611685 
L 14.47053 -121.678073 
L 14.601018 -119.747812 
L 14.762217 -117.821044 
L 14.741649 -115.881485 
L 14.96278 -113.959145 
L 15.213144 -112.041394 
L 15.492338 -110.128555 
L 15.609311 -108.192428 
L 15.9285 -106.284107 
L 16.306756 -104.386728 
L 16.698089 -102.492941 
L 17.117818 -100.605661 
L 17.565934 -98.725243 
L 18.042432 -96.852048 
L 18.547931 -94.986617 
L 19.077388 -93.127867 
L 19.630874 -91.275953 
L 20.216463 -89.433712 
L 20.823387 -87.597944 
L 21.458229 -85.771098 
L 22.123385 -83.9545 
L 22.821585 -82.149817 
L 23.734046 -80.436563 
L 24.504008 -78.664261 
L 25.315232 -76.910313 
L 26.165959 -75.175167 
L 26.915298 -73.386735 
L 27.813573 -71.672769 
L 28.911804 -70.070793 
L 30.949876 -69.029191 
L 33.122707 -68.120416 
L 35.234462 -67.229754 
L 37.355265 -66.3996 
L 39.474306 -65.623733 
L 41.587734 -64.899893 
L 43.610104 -64.165133 
L 45.701034 -63.535278 
L 47.700774 -62.88977 
L 49.687451 -62.286111 
L 51.587791 -61.661456 
L 53.546229 -61.136639 
L 55.419007 -60.586308 
L 57.279055 -60.072447 
L 59.12328 -59.591756 
L 60.952997 -59.145028 
L 62.765188 -58.728705 
L 64.561337 -58.343723 
L 66.283903 -57.924539 
L 67.992346 -57.533292 
L 69.686121 -57.168812 
L 71.364734 -56.829909 
L 73.027739 -56.515375 
L 74.674745 -56.223982 
L 76.262319 -55.894077 
L 77.878473 -55.646015 
L 79.439902 -55.360236 
L 80.987201 -55.092783 
L 82.522449 -54.846131 
L 84.043267 -54.615689 
L 85.551784 -54.404141 
L 87.045758 -54.206681 
L 88.527356 -54.026216 
L 89.969773 -53.808159 
L 91.425372 -53.6541 
L 92.846444 -53.46532 
L 94.278484 -53.338312 
L 95.678572 -53.175626 
L 97.069164 -53.025546 
L 98.465602 -52.92798 
L 99.836324 -52.799377 
L 101.198181 -52.681275 
L 102.55143 -52.573034 
L 103.896361 -52.474033 
L 105.224496 -52.351961 
L 106.554869 -52.271626 
L 107.877898 -52.198874 
L 109.19398 -52.133186 
L 110.503538 -52.074076 
L 111.802452 -51.996454 
L 113.101123 -51.951291 
L 114.391952 -51.893756 
L 115.681351 -51.861163 
L 116.966508 -51.833274 
L 118.246588 -51.79554 
L 119.525316 -51.778513 
L 120.80095 -51.758536 
L 122.07513 -51.751644 
L 123.347558 -51.742761 
L 124.619235 -51.745499 
L 125.890463 -51.744308 
L 127.162042 -51.746114 
L 128.434718 -51.74797 
L 129.708614 -51.760558 
L 130.984864 -51.772253 
L 132.262429 -51.802506 
L 133.544159 -51.824675 
L 134.827598 -51.866775 
L 136.116757 -51.900303 
L 137.410647 -51.938844 
L 138.705137 -52.007777 
L 140.009105 -52.059554 
L 141.31919 -52.117478 
L 142.629202 -52.209652 
L 143.951813 -52.283246 
L 145.281742 -52.364401 
L 146.61936 -52.453663 
L 147.965015 -52.551602 
L 149.319021 -52.658817 
L 150.681668 -52.775926 
L 152.053211 -52.903574 
L 153.433876 -53.042422 
L 154.823857 -53.193151 
L 156.242824 -53.311586 
L 157.653452 -53.486806 
L 159.073818 -53.676109 
L 160.529938 -53.828169 
L 161.997868 -53.99637 
L 163.45114 -54.230236 
L 164.945696 -54.425719 
L 166.452011 -54.640152 
L 167.97345 -54.868633 
L 169.506416 -55.118008 
L 171.054375 -55.383519 
L 172.654885 -55.611575 
L 174.22871 -55.920235 
L 175.860596 -56.189314 
L 177.463123 -56.539909 
L 179.125242 -56.85469 
L 180.802968 -57.193799 
L 182.495857 -57.558447 
L 184.203415 -57.949823 
L 185.981339 -58.307722 
L 187.718644 -58.755952 
L 189.531603 -59.170557 
L 191.358714 -59.61897 
L 193.203742 -60.097966 
L 195.061193 -60.613328 
L 197.003867 -61.100889 
L 198.892351 -61.68669 
L 200.865715 -62.25027 
L 202.853577 -62.854243 
L 204.854462 -63.500127 
L 206.866698 -64.189467 
L 208.96916 -64.866221 
L 210.999378 -65.648477 
L 213.119517 -66.422704 
L 215.238295 -67.253282 
L 217.436441 -68.090107 
L 219.525098 -69.049639 
L 221.645344 -70.043941 
L 222.691923 -71.675045 
L 223.566 -73.401514 
L 224.480933 -75.106759 
L 225.29094 -76.864292 
L 226.105982 -78.618551 
L 226.889298 -80.387144 
L 227.690421 -82.148857 
L 228.414618 -83.943347 
L 229.098355 -85.753565 
L 229.653953 -87.609399 
L 230.325314 -89.422975 
L 230.929385 -91.260008 
L 231.491777 -93.110249 
L 232.006532 -94.974199 
L 232.449969 -96.856518 
L 233.061953 -98.696865 
L 233.427073 -100.597857 
L 233.902961 -102.474353 
L 234.170094 -104.392814 
L 234.598865 -106.281149 
L 234.777049 -108.210859 
L 235.120522 -110.114972 
L 235.347602 -112.035577 
L 235.604874 -113.953563 
L 235.692967 -115.887394 
L 235.873843 -117.813315 
L 236.01602 -119.743125 
L 236.031124 -121.678284 
L 236.096967 -123.611758 
L 236.126983 -125.546629 
L 236.029985 -127.479812 
L 235.991158 -129.413914 
L 235.919407 -131.347597 
L 235.693916 -133.270806 
L 235.557738 -135.200023 
z
" style="stroke: #ffee9c"/>
    </defs>
    <g clip-path="url(#pdaaf38f6fa)">
     <use xlink:href="#me86b361f5e" x="0" y="249.158125" style="fill: #ffee9c; stroke: #ffee9c"/>
    </g>
   </g>
   <g id="matplotlib.axis_1">
    <g id="xtick_1">
     <g id="line2d_1">
      <path d="M 125.254844 124.579062 
L 125.254844 13.699062 
" clip-path="url(#pdaaf38f6fa)" style="fill: none; stroke: #b0b0b0; stroke-width: 0.8; stroke-linecap: square"/>
     </g>
     <g id="text_1">
      <!-- N -->
      <g transform="translate(121.070469 7.958437) scale(0.1 -0.1)">
       <defs>
        <path id="DejaVuSans-Bold-4e" d="M 588 4666 
L 1931 4666 
L 3628 1466 
L 3628 4666 
L 4769 4666 
L 4769 0 
L 3425 0 
L 1728 3200 
L 1728 0 
L 588 0 
L 588 4666 
z
" transform="scale(0.015625)"/>
       </defs>
       <use xlink:href="#DejaVuSans-Bold-4e"/>
      </g>
     </g>
    </g>
    <g id="xtick_2">
     <g id="line2d_2">
      <path d="M 125.254844 124.579062 
L 203.658844 46.175063 
" clip-path="url(#pdaaf38f6fa)" style="fill: none; stroke: #b0b0b0; stroke-width: 0.8; stroke-linecap: square"/>
     </g>
    </g>
    <g id="xtick_3">
     <g id="line2d_3">
      <path d="M 125.254844 124.579062 
L 236.134844 124.579062 
" clip-path="url(#pdaaf38f6fa)" style="fill: none; stroke: #b0b0b0; stroke-width: 0.8; stroke-linecap: square"/>
     </g>
     <g id="text_2">
      <!-- E -->
      <g transform="translate(241.219219 127.338437) scale(0.1 -0.1)">
       <defs>
        <path id="DejaVuSans-Bold-45" d="M 588 4666 
L 3834 4666 
L 3834 3756 
L 1791 3756 
L 1791 2888 
L 3713 2888 
L 3713 1978 
L 1791 1978 
L 1791 909 
L 3903 909 
L 3903 0 
L 588 0 
L 588 4666 
z
" transform="scale(0.015625)"/>
       </defs>
       <use xlink:href="#DejaVuSans-Bold-45"/>
      </g>
     </g>
    </g>
    <g id="xtick_4">
     <g id="line2d_4">
      <path d="M 125.254844 124.579062 
L 203.658844 202.983062 
" clip-path="url(#pdaaf38f6fa)" style="fill: none; stroke: #b0b0b0; stroke-width: 0.8; stroke-linecap: square"/>
     </g>
    </g>
    <g id="xtick_5">
     <g id="line2d_5">
      <path d="M 125.254844 124.579062 
L 125.254844 235.459062 
" clip-path="url(#pdaaf38f6fa)" style="fill: none; stroke: #b0b0b0; stroke-width: 0.8; stroke-linecap: square"/>
     </g>
     <g id="text_3">
      <!-- S -->
      <g transform="translate(121.654062 246.718437) scale(0.1 -0.1)">
       <defs>
        <path id="DejaVuSans-Bold-53" d="M 3834 4519 
L 3834 3531 
Q 3450 3703 3084 3790 
Q 2719 3878 2394 3878 
Q 1963 3878 1756 3759 
Q 1550 3641 1550 3391 
Q 1550 3203 1689 3098 
Q 1828 2994 2194 2919 
L 2706 2816 
Q 3484 2659 3812 2340 
Q 4141 2022 4141 1434 
Q 4141 663 3683 286 
Q 3225 -91 2284 -91 
Q 1841 -91 1394 -6 
Q 947 78 500 244 
L 500 1259 
Q 947 1022 1364 901 
Q 1781 781 2169 781 
Q 2563 781 2772 912 
Q 2981 1044 2981 1288 
Q 2981 1506 2839 1625 
Q 2697 1744 2272 1838 
L 1806 1941 
Q 1106 2091 782 2419 
Q 459 2747 459 3303 
Q 459 4000 909 4375 
Q 1359 4750 2203 4750 
Q 2588 4750 2994 4692 
Q 3400 4634 3834 4519 
z
" transform="scale(0.015625)"/>
       </defs>
       <use xlink:href="#DejaVuSans-Bold-53"/>
      </g>
     </g>
    </g>
    <g id="xtick_6">
     <g id="line2d_6">
      <path d="M 125.254844 124.579062 
L 46.850844 202.983062 
" clip-path="url(#pdaaf38f6fa)" style="fill: none; stroke: #b0b0b0; stroke-width: 0.8; stroke-linecap: square"/>
     </g>
    </g>
    <g id="xtick_7">
     <g id="line2d_7">
      <path d="M 125.254844 124.579062 
L 14.374844 124.579062 
" clip-path="url(#pdaaf38f6fa)" style="fill: none; stroke: #b0b0b0; stroke-width: 0.8; stroke-linecap: square"/>
     </g>
     <g id="text_4">
      <!-- W -->
      <g transform="translate(0.36 127.338437) scale(0.1 -0.1)">
       <defs>
        <path id="DejaVuSans-Bold-57" d="M 191 4666 
L 1344 4666 
L 2150 1275 
L 2950 4666 
L 4109 4666 
L 4909 1275 
L 5716 4666 
L 6859 4666 
L 5759 0 
L 4372 0 
L 3525 3547 
L 2688 0 
L 1300 0 
L 191 4666 
z
" transform="scale(0.015625)"/>
       </defs>
       <use xlink:href="#DejaVuSans-Bold-57"/>
      </g>
     </g>
    </g>
    <g id="xtick_8">
     <g id="line2d_8">
      <path d="M 125.254844 124.579062 
L 46.850844 46.175063 
" clip-path="url(#pdaaf38f6fa)" style="fill: none; stroke: #b0b0b0; stroke-width: 0.8; stroke-linecap: square"/>
     </g>
    </g>
   </g>
   <g id="matplotlib.axis_2"/>
   <g id="patch_3">
    <path d="M 125.254844 124.579062 
C 125.254844 124.579062 125.254844 124.579062 125.254844 124.579062 
C 125.254844 124.579062 125.254844 124.579062 125.254844 124.579062 
L 125.254844 124.579062 
C 125.254844 124.579062 125.254844 124.579062 125.254844 124.579062 
C 125.254844 124.579062 125.254844 124.579062 125.254844 124.579062 
z
" clip-path="url(#pdaaf38f6fa)" style="fill: #d9d9d9"/>
   </g>
   <g id="patch_4">
    <path d="M 125.254844 124.579062 
C 125.254844 124.579062 125.254844 124.579062 125.254844 124.579062 
C 125.254844 124.579062 125.254844 124.579062 125.254844 124.579062 
L 125.254844 124.579062 
C 125.254844 124.579062 125.254844 124.579062 125.254844 124.579062 
C 125.254844 124.579062 125.254844 124.579062 125.254844 124.579062 
z
" clip-path="url(#pdaaf38f6fa)" style="fill: #d9d9d9"/>
   </g>
   <g id="patch_5">
    <path d="M 125.254844 124.579062 
C 125.254844 124.579062 125.254844 124.579062 125.254844 124.579062 
C 125.254844 124.579062 125.254844 124.579062 125.254844 124.579062 
L 125.254844 124.579062 
C 125.254844 124.579062 125.254844 124.579062 125.254844 124.579062 
C 125.254844 124.579062 125.254844 124.579062 125.254844 124.579062 
z
" clip-path="url(#pdaaf38f6fa)" style="fill: #d9d9d9"/>
   </g>
   <g id="patch_6">
    <path d="M 125.254844 124.579062 
C 125.254844 124.579062 125.254844 124.579062 125.254844 124.579062 
C 125.254844 124.579062 125.254844 124.579062 125.254844 124.579062 
L 125.254844 124.579062 
C 125.254844 124.579062 125.254844 124.579062 125.254844 124.579062 
C 125.254844 124.579062 125.254844 124.579062 125.254844 124.579062 
z
" clip-path="url(#pdaaf38f6fa)" style="fill: #d9d9d9"/>
   </g>
   <g id="patch_7">
    <path d="M 125.254844 124.579062 
C 125.254844 124.579062 125.254844 124.579062 125.254844 124.579062 
C 125.254844 124.579062 125.254844 124.579062 125.254844 124.579062 
L 125.254844 124.579062 
C 125.254844 124.579062 125.254844 124.579062 125.254844 124.579062 
C 125.254844 124.579062 125.254844 124.579062 125.254844 124.579062 
z
" clip-path="url(#pdaaf38f6fa)" style="fill: #d9d9d9"/>
   </g>
   <g id="patch_8">
    <path d="M 125.254844 124.579062 
C 125.254844 124.579062 125.254844 124.579062 125.254844 124.579062 
C 125.254844 124.579062 125.254844 124.579062 125.254844 124.579062 
L 125.254844 124.579062 
C 125.254844 124.579062 125.254844 124.579062 125.254844 124.579062 
C 125.254844 124.579062 125.254844 124.579062 125.254844 124.579062 
z
" clip-path="url(#pdaaf38f6fa)" style="fill: #d9d9d9"/>
   </g>
   <g id="patch_9">
    <path d="M 125.254844 124.579062 
C 125.254844 124.579062 125.254844 124.579062 125.254844 124.579062 
C 125.254844 124.579062 125.254844 124.579062 125.254844 124.579062 
L 125.254844 124.579062 
C 125.254844 124.579062 125.254844 124.579062 125.254844 124.579062 
C 125.254844 124.579062 125.254844 124.579062 125.254844 124.579062 
z
" clip-path="url(#pdaaf38f6fa)" style="fill: #d9d9d9"/>
   </g>
   <g id="patch_10">
    <path d="M 125.254844 124.579062 
C 125.254844 124.579062 125.254844 124.579062 125.254844 124.579062 
C 125.254844 124.579062 125.254844 124.579062 125.254844 124.579062 
L 125.254844 124.579062 
C 125.254844 124.579062 125.254844 124.579062 125.254844 124.579062 
C 125.254844 124.579062 125.254844 124.579062 125.254844 124.579062 
z
" clip-path="url(#pdaaf38f6fa)" style="fill: #d9d9d9"/>
   </g>
   <g id="patch_11">
    <path d="M 125.254844 124.579062 
C 125.254844 124.579062 125.254844 124.579062 125.254844 124.579062 
C 125.254844 124.579062 125.254844 124.579062 125.254844 124.579062 
L 125.254844 124.579062 
C 125.254844 124.579062 125.254844 124.579062 125.254844 124.579062 
C 125.254844 124.579062 125.254844 124.579062 125.254844 124.579062 
z
" clip-path="url(#pdaaf38f6fa)" style="fill: #d9d9d9"/>
   </g>
   <g id="patch_12">
    <path d="M 125.254844 124.579062 
C 125.254844 124.579062 125.254844 124.579062 125.254844 124.579062 
C 125.254844 124.579062 125.254844 124.579062 125.254844 124.579062 
L 125.254844 124.579062 
C 125.254844 124.579062 125.254844 124.579062 125.254844 124.579062 
C 125.254844 124.579062 125.254844 124.579062 125.254844 124.579062 
z
" clip-path="url(#pdaaf38f6fa)" style="fill: #d9d9d9"/>
   </g>
   <g id="patch_13">
    <path d="M 125.254844 124.579062 
C 125.254844 124.579062 125.254844 124.579062 125.254844 124.579062 
C 125.254844 124.579062 125.254844 124.579062 125.254844 124.579062 
L 125.254844 124.579062 
C 125.254844 124.579062 125.254844 124.579062 125.254844 124.579062 
C 125.254844 124.579062 125.254844 124.579062 125.254844 124.579062 
z
" clip-path="url(#pdaaf38f6fa)" style="fill: #d9d9d9"/>
   </g>
   <g id="patch_14">
    <path d="M 125.254844 124.579062 
C 125.254844 124.579062 125.254844 124.579062 125.254844 124.579062 
C 125.254844 124.579062 125.254844 124.579062 125.254844 124.579062 
L 125.254844 124.579062 
C 125.254844 124.579062 125.254844 124.579062 125.254844 124.579062 
C 125.254844 124.579062 125.254844 124.579062 125.254844 124.579062 
z
" clip-path="url(#pdaaf38f6fa)" style="fill: #d9d9d9"/>
   </g>
   <g id="patch_15">
    <path d="M 125.254844 124.579062 
C 125.254844 124.579062 125.254844 124.579062 125.254844 124.579062 
C 125.254844 124.579062 125.254844 124.579062 125.254844 124.579062 
L 125.254844 124.579062 
C 125.254844 124.579062 125.254844 124.579062 125.254844 124.579062 
C 125.254844 124.579062 125.254844 124.579062 125.254844 124.579062 
z
" clip-path="url(#pdaaf38f6fa)" style="fill: #d9d9d9"/>
   </g>
   <g id="patch_16">
    <path d="M 125.254844 124.579062 
C 125.254844 124.579062 125.254844 124.579062 125.254844 124.579062 
C 125.254844 124.579062 125.254844 124.579062 125.254844 124.579062 
L 125.254844 124.579062 
C 125.254844 124.579062 125.254844 124.579062 125.254844 124.579062 
C 125.254844 124.579062 125.254844 124.579062 125.254844 124.579062 
z
" clip-path="url(#pdaaf38f6fa)" style="fill: #d9d9d9"/>
   </g>
   <g id="patch_17">
    <path d="M 125.254844 124.579062 
C 125.254844 124.579062 125.254844 124.579062 125.254844 124.579062 
C 125.254844 124.579062 125.254844 124.579062 125.254844 124.579062 
L 125.254844 124.579062 
C 125.254844 124.579062 125.254844 124.579062 125.254844 124.579062 
C 125.254844 124.579062 125.254844 124.579062 125.254844 124.579062 
z
" clip-path="url(#pdaaf38f6fa)" style="fill: #d9d9d9"/>
   </g>
   <g id="patch_18">
    <path d="M 125.254844 124.579062 
C 125.254844 124.579062 125.254844 124.579062 125.254844 124.579062 
C 125.254844 124.579062 125.254844 124.579062 125.254844 124.579062 
L 125.254844 124.579062 
C 125.254844 124.579062 125.254844 124.579062 125.254844 124.579062 
C 125.254844 124.579062 125.254844 124.579062 125.254844 124.579062 
z
" clip-path="url(#pdaaf38f6fa)" style="fill: #d9d9d9"/>
   </g>
   <g id="patch_19">
    <path d="M 125.254844 124.579062 
C 125.254844 124.579062 125.254844 124.579062 125.254844 124.579062 
C 125.254844 124.579062 125.254844 124.579062 125.254844 124.579062 
L 125.254844 124.579062 
C 125.254844 124.579062 125.254844 124.579062 125.254844 124.579062 
C 125.254844 124.579062 125.254844 124.579062 125.254844 124.579062 
z
" clip-path="url(#pdaaf38f6fa)" style="fill: #d9d9d9"/>
   </g>
   <g id="patch_20">
    <path d="M 125.254844 124.579062 
C 125.254844 124.579062 125.254844 124.579062 125.254844 124.579062 
C 125.254844 124.579062 125.254844 124.579062 125.254844 124.579062 
L 125.254844 124.579062 
C 125.254844 124.579062 125.254844 124.579062 125.254844 124.579062 
C 125.254844 124.579062 125.254844 124.579062 125.254844 124.579062 
z
" clip-path="url(#pdaaf38f6fa)" style="fill: #d9d9d9"/>
   </g>
   <g id="patch_21">
    <path d="M 125.254844 124.579062 
C 125.254844 124.579062 125.254844 124.579062 125.254844 124.579062 
C 125.254844 124.579062 125.254844 124.579062 125.254844 124.579062 
L 125.254844 124.579062 
C 125.254844 124.579062 125.254844 124.579062 125.254844 124.579062 
C 125.254844 124.579062 125.254844 124.579062 125.254844 124.579062 
z
" clip-path="url(#pdaaf38f6fa)" style="fill: #d9d9d9"/>
   </g>
   <g id="patch_22">
    <path d="M 125.254844 124.579062 
C 125.254844 124.579062 125.254844 124.579062 125.254844 124.579062 
C 125.254844 124.579062 125.254844 124.579062 125.254844 124.579062 
L 125.254844 124.579062 
C 125.254844 124.579062 125.254844 124.579062 125.254844 124.579062 
C 125.254844 124.579062 125.254844 124.579062 125.254844 124.579062 
z
" clip-path="url(#pdaaf38f6fa)" style="fill: #d9d9d9"/>
   </g>
   <g id="patch_23">
    <path d="M 125.254844 124.579062 
C 125.254844 124.579062 125.254844 124.579062 125.254844 124.579062 
C 125.254844 124.579062 125.254844 124.579062 125.254844 124.579062 
L 125.254844 124.579062 
C 125.254844 124.579062 125.254844 124.579062 125.254844 124.579062 
C 125.254844 124.579062 125.254844 124.579062 125.254844 124.579062 
z
" clip-path="url(#pdaaf38f6fa)" style="fill: #d9d9d9"/>
   </g>
   <g id="patch_24">
    <path d="M 125.254844 124.579062 
C 125.254844 124.579062 125.254844 124.579062 125.254844 124.579062 
C 125.254844 124.579062 125.254844 124.579062 125.254844 124.579062 
L 125.254844 124.579062 
C 125.254844 124.579062 125.254844 124.579062 125.254844 124.579062 
C 125.254844 124.579062 125.254844 124.579062 125.254844 124.579062 
z
" clip-path="url(#pdaaf38f6fa)" style="fill: #d9d9d9"/>
   </g>
   <g id="patch_25">
    <path d="M 125.254844 124.579062 
C 125.254844 124.579062 125.254844 124.579062 125.254844 124.579062 
C 125.254844 124.579062 125.254844 124.579062 125.254844 124.579062 
L 125.254844 124.579062 
C 125.254844 124.579062 125.254844 124.579062 125.254844 124.579062 
C 125.254844 124.579062 125.254844 124.579062 125.254844 124.579062 
z
" clip-path="url(#pdaaf38f6fa)" style="fill: #d9d9d9"/>
   </g>
   <g id="patch_26">
    <path d="M 125.254844 124.579062 
C 125.254844 124.579062 125.254844 124.579062 125.254844 124.579062 
C 125.254844 124.579062 125.254844 124.579062 125.254844 124.579062 
L 125.254844 124.579062 
C 125.254844 124.579062 125.254844 124.579062 125.254844 124.579062 
C 125.254844 124.579062 125.254844 124.579062 125.254844 124.579062 
z
" clip-path="url(#pdaaf38f6fa)" style="fill: #d9d9d9"/>
   </g>
   <g id="patch_27">
    <path d="M 125.254844 124.579062 
C 125.254844 124.579062 125.254844 124.579062 125.254844 124.579062 
C 125.254844 124.579062 125.254844 124.579062 125.254844 124.579062 
L 125.254844 124.579062 
C 125.254844 124.579062 125.254844 124.579062 125.254844 124.579062 
C 125.254844 124.579062 125.254844 124.579062 125.254844 124.579062 
z
" clip-path="url(#pdaaf38f6fa)" style="fill: #d9d9d9"/>
   </g>
   <g id="patch_28">
    <path d="M 125.254844 124.579062 
C 125.254844 124.579062 125.254844 124.579062 125.254844 124.579062 
C 125.254844 124.579062 125.254844 124.579062 125.254844 124.579062 
L 125.254844 124.579062 
C 125.254844 124.579062 125.254844 124.579062 125.254844 124.579062 
C 125.254844 124.579062 125.254844 124.579062 125.254844 124.579062 
z
" clip-path="url(#pdaaf38f6fa)" style="fill: #d9d9d9"/>
   </g>
   <g id="patch_29">
    <path d="M 125.254844 124.579062 
C 125.254844 124.579062 125.254844 124.579062 125.254844 124.579062 
C 125.254844 124.579062 125.254844 124.579062 125.254844 124.579062 
L 125.254844 124.579062 
C 125.254844 124.579062 125.254844 124.579062 125.254844 124.579062 
C 125.254844 124.579062 125.254844 124.579062 125.254844 124.579062 
z
" clip-path="url(#pdaaf38f6fa)" style="fill: #d9d9d9"/>
   </g>
   <g id="patch_30">
    <path d="M 125.254844 124.579062 
C 125.254844 124.579062 125.254844 124.579062 125.254844 124.579062 
C 125.254844 124.579062 125.254844 124.579062 125.254844 124.579062 
L 125.254844 124.579062 
C 125.254844 124.579062 125.254844 124.579062 125.254844 124.579062 
C 125.254844 124.579062 125.254844 124.579062 125.254844 124.579062 
z
" clip-path="url(#pdaaf38f6fa)" style="fill: #d9d9d9"/>
   </g>
   <g id="patch_31">
    <path d="M 125.254844 124.579062 
C 125.254844 124.579062 125.254844 124.579062 125.254844 124.579062 
C 125.254844 124.579062 125.254844 124.579062 125.254844 124.579062 
L 125.254844 124.579062 
C 125.254844 124.579062 125.254844 124.579062 125.254844 124.579062 
C 125.254844 124.579062 125.254844 124.579062 125.254844 124.579062 
z
" clip-path="url(#pdaaf38f6fa)" style="fill: #d9d9d9"/>
   </g>
   <g id="patch_32">
    <path d="M 125.254844 124.579062 
C 125.254844 124.579062 125.254844 124.579062 125.254844 124.579062 
C 125.254844 124.579062 125.254844 124.579062 125.254844 124.579062 
L 125.254844 124.579062 
C 125.254844 124.579062 125.254844 124.579062 125.254844 124.579062 
C 125.254844 124.579062 125.254844 124.579062 125.254844 124.579062 
z
" clip-path="url(#pdaaf38f6fa)" style="fill: #d9d9d9"/>
   </g>
   <g id="patch_33">
    <path d="M 125.254844 124.579062 
C 125.254844 124.579062 125.254844 124.579062 125.254844 124.579062 
C 125.254844 124.579062 125.254844 124.579062 125.254844 124.579062 
L 125.254844 124.579062 
C 125.254844 124.579062 125.254844 124.579062 125.254844 124.579062 
C 125.254844 124.579062 125.254844 124.579062 125.254844 124.579062 
z
" clip-path="url(#pdaaf38f6fa)" style="fill: #d9d9d9"/>
   </g>
   <g id="patch_34">
    <path d="M 125.254844 124.579062 
C 125.254844 124.579062 125.254844 124.579062 125.254844 124.579062 
C 125.254844 124.579062 125.254844 124.579062 125.254844 124.579062 
L 125.254844 124.579062 
C 125.254844 124.579062 125.254844 124.579062 125.254844 124.579062 
C 125.254844 124.579062 125.254844 124.579062 125.254844 124.579062 
z
" clip-path="url(#pdaaf38f6fa)" style="fill: #d9d9d9"/>
   </g>
   <g id="patch_35">
    <path d="M 125.254844 124.579062 
C 125.254844 124.579062 125.254844 124.579062 125.254844 124.579062 
C 125.254844 124.579062 125.254844 124.579062 125.254844 124.579062 
L 128.891587 87.654585 
C 127.682994 87.535549 126.469285 87.475924 125.254844 87.475924 
C 124.040403 87.475924 122.826693 87.535549 121.6181 87.654585 
z
" clip-path="url(#pdaaf38f6fa)" style="fill: #badbb8"/>
   </g>
   <g id="patch_36">
    <path d="M 125.254844 124.579062 
C 125.254844 124.579062 125.254844 124.579062 125.254844 124.579062 
C 125.254844 124.579062 125.254844 124.579062 125.254844 124.579062 
L 139.391565 77.976539 
C 137.866195 77.513823 136.319026 77.126277 134.755646 76.815302 
C 133.192267 76.504326 131.614562 76.270296 130.02823 76.114056 
z
" clip-path="url(#pdaaf38f6fa)" style="fill: #badbb8"/>
   </g>
   <g id="patch_37">
    <path d="M 125.254844 124.579062 
C 125.254844 124.579062 125.254844 124.579062 125.254844 124.579062 
C 125.254844 124.579062 125.254844 124.579062 125.254844 124.579062 
L 132.216243 111.555201 
C 131.789952 111.327344 131.352732 111.120554 130.90616 110.935578 
C 130.459588 110.750602 130.004204 110.587663 129.541652 110.447349 
z
" clip-path="url(#pdaaf38f6fa)" style="fill: #badbb8"/>
   </g>
   <g id="patch_38">
    <path d="M 125.254844 124.579062 
C 125.254844 124.579062 125.254844 124.579062 125.254844 124.579062 
C 125.254844 124.579062 125.254844 124.579062 125.254844 124.579062 
L 125.254844 124.579062 
C 125.254844 124.579062 125.254844 124.579062 125.254844 124.579062 
C 125.254844 124.579062 125.254844 124.579062 125.254844 124.579062 
z
" clip-path="url(#pdaaf38f6fa)" style="fill: #badbb8"/>
   </g>
   <g id="patch_39">
    <path d="M 125.254844 124.579062 
C 125.254844 124.579062 125.254844 124.579062 125.254844 124.579062 
C 125.254844 124.579062 125.254844 124.579062 125.254844 124.579062 
L 125.254844 124.579062 
C 125.254844 124.579062 125.254844 124.579062 125.254844 124.579062 
C 125.254844 124.579062 125.254844 124.579062 125.254844 124.579062 
z
" clip-path="url(#pdaaf38f6fa)" style="fill: #badbb8"/>
   </g>
   <g id="patch_40">
    <path d="M 125.254844 124.579062 
C 125.254844 124.579062 125.254844 124.579062 125.254844 124.579062 
C 125.254844 124.579062 125.254844 124.579062 125.254844 124.579062 
L 125.254844 124.579062 
C 125.254844 124.579062 125.254844 124.579062 125.254844 124.579062 
C 125.254844 124.579062 125.254844 124.579062 125.254844 124.579062 
z
" clip-path="url(#pdaaf38f6fa)" style="fill: #badbb8"/>
   </g>
   <g id="patch_41">
    <path d="M 125.254844 124.579062 
C 125.254844 124.579062 125.254844 124.579062 125.254844 124.579062 
C 125.254844 124.579062 125.254844 124.579062 125.254844 124.579062 
L 141.825746 119.552334 
C 141.661214 119.009944 141.470151 118.475958 141.253247 117.952307 
C 141.036344 117.428655 140.793861 116.915968 140.526675 116.416099 
z
" clip-path="url(#pdaaf38f6fa)" style="fill: #badbb8"/>
   </g>
   <g id="patch_42">
    <path d="M 125.254844 124.579062 
C 125.254844 124.579062 125.254844 124.579062 125.254844 124.579062 
C 125.254844 124.579062 125.254844 124.579062 125.254844 124.579062 
L 125.254844 124.579062 
C 125.254844 124.579062 125.254844 124.579062 125.254844 124.579062 
C 125.254844 124.579062 125.254844 124.579062 125.254844 124.579062 
z
" clip-path="url(#pdaaf38f6fa)" style="fill: #badbb8"/>
   </g>
   <g id="patch_43">
    <path d="M 125.254844 124.579062 
C 125.254844 124.579062 125.254844 124.579062 125.254844 124.579062 
C 125.254844 124.579062 125.254844 124.579062 125.254844 124.579062 
L 125.254844 124.579062 
C 125.254844 124.579062 125.254844 124.579062 125.254844 124.579062 
C 125.254844 124.579062 125.254844 124.579062 125.254844 124.579062 
z
" clip-path="url(#pdaaf38f6fa)" style="fill: #badbb8"/>
   </g>
   <g id="patch_44">
    <path d="M 125.254844 124.579062 
C 125.254844 124.579062 125.254844 124.579062 125.254844 124.579062 
C 125.254844 124.579062 125.254844 124.579062 125.254844 124.579062 
L 158.771144 134.746121 
C 159.103927 133.649082 159.382648 132.536366 159.6063 131.411992 
C 159.829952 130.287617 159.998265 129.15294 160.110632 128.012058 
z
" clip-path="url(#pdaaf38f6fa)" style="fill: #badbb8"/>
   </g>
   <g id="patch_45">
    <path d="M 125.254844 124.579062 
C 125.254844 124.579062 125.254844 124.579062 125.254844 124.579062 
C 125.254844 124.579062 125.254844 124.579062 125.254844 124.579062 
L 125.254844 124.579062 
C 125.254844 124.579062 125.254844 124.579062 125.254844 124.579062 
C 125.254844 124.579062 125.254844 124.579062 125.254844 124.579062 
z
" clip-path="url(#pdaaf38f6fa)" style="fill: #badbb8"/>
   </g>
   <g id="patch_46">
    <path d="M 125.254844 124.579062 
C 125.254844 124.579062 125.254844 124.579062 125.254844 124.579062 
C 125.254844 124.579062 125.254844 124.579062 125.254844 124.579062 
L 125.254844 124.579062 
C 125.254844 124.579062 125.254844 124.579062 125.254844 124.579062 
C 125.254844 124.579062 125.254844 124.579062 125.254844 124.579062 
z
" clip-path="url(#pdaaf38f6fa)" style="fill: #badbb8"/>
   </g>
   <g id="patch_47">
    <path d="M 125.254844 124.579062 
C 125.254844 124.579062 125.254844 124.579062 125.254844 124.579062 
C 125.254844 124.579062 125.254844 124.579062 125.254844 124.579062 
L 125.254844 124.579062 
C 125.254844 124.579062 125.254844 124.579062 125.254844 124.579062 
C 125.254844 124.579062 125.254844 124.579062 125.254844 124.579062 
z
" clip-path="url(#pdaaf38f6fa)" style="fill: #badbb8"/>
   </g>
   <g id="patch_48">
    <path d="M 125.254844 124.579062 
C 125.254844 124.579062 125.254844 124.579062 125.254844 124.579062 
C 125.254844 124.579062 125.254844 124.579062 125.254844 124.579062 
L 125.254844 124.579062 
C 125.254844 124.579062 125.254844 124.579062 125.254844 124.579062 
C 125.254844 124.579062 125.254844 124.579062 125.254844 124.579062 
z
" clip-path="url(#pdaaf38f6fa)" style="fill: #badbb8"/>
   </g>
   <g id="patch_49">
    <path d="M 125.254844 124.579062 
C 125.254844 124.579062 125.254844 124.579062 125.254844 124.579062 
C 125.254844 124.579062 125.254844 124.579062 125.254844 124.579062 
L 129.673585 139.145699 
C 130.150372 139.001067 130.619772 138.833113 131.080087 138.642444 
C 131.540403 138.451775 131.991079 138.238621 132.43049 138.003752 
z
" clip-path="url(#pdaaf38f6fa)" style="fill: #badbb8"/>
   </g>
   <g id="patch_50">
    <path d="M 125.254844 124.579062 
C 125.254844 124.579062 125.254844 124.579062 125.254844 124.579062 
C 125.254844 124.579062 125.254844 124.579062 125.254844 124.579062 
L 127.600026 148.390099 
C 128.379397 148.313337 129.154529 148.198357 129.922623 148.045574 
C 130.690717 147.89279 131.450847 147.702388 132.200267 147.475054 
z
" clip-path="url(#pdaaf38f6fa)" style="fill: #badbb8"/>
   </g>
   <g id="patch_51">
    <path d="M 125.254844 124.579062 
C 125.254844 124.579062 125.254844 124.579062 125.254844 124.579062 
C 125.254844 124.579062 125.254844 124.579062 125.254844 124.579062 
L 125.254844 124.579062 
C 125.254844 124.579062 125.254844 124.579062 125.254844 124.579062 
C 125.254844 124.579062 125.254844 124.579062 125.254844 124.579062 
z
" clip-path="url(#pdaaf38f6fa)" style="fill: #badbb8"/>
   </g>
   <g id="patch_52">
    <path d="M 125.254844 124.579062 
C 125.254844 124.579062 125.254844 124.579062 125.254844 124.579062 
C 125.254844 124.579062 125.254844 124.579062 125.254844 124.579062 
L 125.254844 124.579062 
C 125.254844 124.579062 125.254844 124.579062 125.254844 124.579062 
C 125.254844 124.579062 125.254844 124.579062 125.254844 124.579062 
z
" clip-path="url(#pdaaf38f6fa)" style="fill: #badbb8"/>
   </g>
   <g id="patch_53">
    <path d="M 125.254844 124.579062 
C 125.254844 124.579062 125.254844 124.579062 125.254844 124.579062 
C 125.254844 124.579062 125.254844 124.579062 125.254844 124.579062 
L 125.254844 124.579062 
C 125.254844 124.579062 125.254844 124.579062 125.254844 124.579062 
C 125.254844 124.579062 125.254844 124.579062 125.254844 124.579062 
z
" clip-path="url(#pdaaf38f6fa)" style="fill: #badbb8"/>
   </g>
   <g id="patch_54">
    <path d="M 125.254844 124.579062 
C 125.254844 124.579062 125.254844 124.579062 125.254844 124.579062 
C 125.254844 124.579062 125.254844 124.579062 125.254844 124.579062 
L 125.254844 124.579062 
C 125.254844 124.579062 125.254844 124.579062 125.254844 124.579062 
C 125.254844 124.579062 125.254844 124.579062 125.254844 124.579062 
z
" clip-path="url(#pdaaf38f6fa)" style="fill: #badbb8"/>
   </g>
   <g id="patch_55">
    <path d="M 125.254844 124.579062 
C 125.254844 124.579062 125.254844 124.579062 125.254844 124.579062 
C 125.254844 124.579062 125.254844 124.579062 125.254844 124.579062 
L 125.254844 124.579062 
C 125.254844 124.579062 125.254844 124.579062 125.254844 124.579062 
C 125.254844 124.579062 125.254844 124.579062 125.254844 124.579062 
z
" clip-path="url(#pdaaf38f6fa)" style="fill: #badbb8"/>
   </g>
   <g id="patch_56">
    <path d="M 125.254844 124.579062 
C 125.254844 124.579062 125.254844 124.579062 125.254844 124.579062 
C 125.254844 124.579062 125.254844 124.579062 125.254844 124.579062 
L 125.254844 124.579062 
C 125.254844 124.579062 125.254844 124.579062 125.254844 124.579062 
C 125.254844 124.579062 125.254844 124.579062 125.254844 124.579062 
z
" clip-path="url(#pdaaf38f6fa)" style="fill: #badbb8"/>
   </g>
   <g id="patch_57">
    <path d="M 125.254844 124.579062 
C 125.254844 124.579062 125.254844 124.579062 125.254844 124.579062 
C 125.254844 124.579062 125.254844 124.579062 125.254844 124.579062 
L 125.254844 124.579062 
C 125.254844 124.579062 125.254844 124.579062 125.254844 124.579062 
C 125.254844 124.579062 125.254844 124.579062 125.254844 124.579062 
z
" clip-path="url(#pdaaf38f6fa)" style="fill: #badbb8"/>
   </g>
   <g id="patch_58">
    <path d="M 125.254844 124.579062 
C 125.254844 124.579062 125.254844 124.579062 125.254844 124.579062 
C 125.254844 124.579062 125.254844 124.579062 125.254844 124.579062 
L 125.254844 124.579062 
C 125.254844 124.579062 125.254844 124.579062 125.254844 124.579062 
C 125.254844 124.579062 125.254844 124.579062 125.254844 124.579062 
z
" clip-path="url(#pdaaf38f6fa)" style="fill: #badbb8"/>
   </g>
   <g id="patch_59">
    <path d="M 125.254844 124.579062 
C 125.254844 124.579062 125.254844 124.579062 125.254844 124.579062 
C 125.254844 124.579062 125.254844 124.579062 125.254844 124.579062 
L 125.254844 124.579062 
C 125.254844 124.579062 125.254844 124.579062 125.254844 124.579062 
C 125.254844 124.579062 125.254844 124.579062 125.254844 124.579062 
z
" clip-path="url(#pdaaf38f6fa)" style="fill: #badbb8"/>
   </g>
   <g id="patch_60">
    <path d="M 125.254844 124.579062 
C 125.254844 124.579062 125.254844 124.579062 125.254844 124.579062 
C 125.254844 124.579062 125.254844 124.579062 125.254844 124.579062 
L 125.254844 124.579062 
C 125.254844 124.579062 125.254844 124.579062 125.254844 124.579062 
C 125.254844 124.579062 125.254844 124.579062 125.254844 124.579062 
z
" clip-path="url(#pdaaf38f6fa)" style="fill: #badbb8"/>
   </g>
   <g id="patch_61">
    <path d="M 125.254844 124.579062 
C 125.254844 124.579062 125.254844 124.579062 125.254844 124.579062 
C 125.254844 124.579062 125.254844 124.579062 125.254844 124.579062 
L 125.254844 124.579062 
C 125.254844 124.579062 125.254844 124.579062 125.254844 124.579062 
C 125.254844 124.579062 125.254844 124.579062 125.254844 124.579062 
z
" clip-path="url(#pdaaf38f6fa)" style="fill: #badbb8"/>
   </g>
   <g id="patch_62">
    <path d="M 125.254844 124.579062 
C 125.254844 124.579062 125.254844 124.579062 125.254844 124.579062 
C 125.254844 124.579062 125.254844 124.579062 125.254844 124.579062 
L 125.254844 124.579062 
C 125.254844 124.579062 125.254844 124.579062 125.254844 124.579062 
C 125.254844 124.579062 125.254844 124.579062 125.254844 124.579062 
z
" clip-path="url(#pdaaf38f6fa)" style="fill: #badbb8"/>
   </g>
   <g id="patch_63">
    <path d="M 125.254844 124.579062 
C 125.254844 124.579062 125.254844 124.579062 125.254844 124.579062 
C 125.254844 124.579062 125.254844 124.579062 125.254844 124.579062 
L 125.254844 124.579062 
C 125.254844 124.579062 125.254844 124.579062 125.254844 124.579062 
C 125.254844 124.579062 125.254844 124.579062 125.254844 124.579062 
z
" clip-path="url(#pdaaf38f6fa)" style="fill: #badbb8"/>
   </g>
   <g id="patch_64">
    <path d="M 125.254844 124.579062 
C 125.254844 124.579062 125.254844 124.579062 125.254844 124.579062 
C 125.254844 124.579062 125.254844 124.579062 125.254844 124.579062 
L 125.254844 124.579062 
C 125.254844 124.579062 125.254844 124.579062 125.254844 124.579062 
C 125.254844 124.579062 125.254844 124.579062 125.254844 124.579062 
z
" clip-path="url(#pdaaf38f6fa)" style="fill: #badbb8"/>
   </g>
   <g id="patch_65">
    <path d="M 125.254844 124.579062 
C 125.254844 124.579062 125.254844 124.579062 125.254844 124.579062 
C 125.254844 124.579062 125.254844 124.579062 125.254844 124.579062 
L 125.254844 124.579062 
C 125.254844 124.579062 125.254844 124.579062 125.254844 124.579062 
C 125.254844 124.579062 125.254844 124.579062 125.254844 124.579062 
z
" clip-path="url(#pdaaf38f6fa)" style="fill: #badbb8"/>
   </g>
   <g id="patch_66">
    <path d="M 125.254844 124.579062 
C 125.254844 124.579062 125.254844 124.579062 125.254844 124.579062 
C 125.254844 124.579062 125.254844 124.579062 125.254844 124.579062 
L 125.254844 124.579062 
C 125.254844 124.579062 125.254844 124.579062 125.254844 124.579062 
C 125.254844 124.579062 125.254844 124.579062 125.254844 124.579062 
z
" clip-path="url(#pdaaf38f6fa)" style="fill: #badbb8"/>
   </g>
   <g id="patch_67">
    <path d="M 121.6181 87.654585 
C 122.826693 87.535549 124.040403 87.475924 125.254844 87.475924 
C 126.469285 87.475924 127.682994 87.535549 128.891587 87.654585 
L 130.096328 75.42265 
C 128.487365 75.264181 126.871592 75.184803 125.254844 75.184803 
C 123.638096 75.184803 122.022322 75.264181 120.41336 75.42265 
z
" clip-path="url(#pdaaf38f6fa)" style="fill: #a1a1d8"/>
   </g>
   <g id="patch_68">
    <path d="M 130.02823 76.114056 
C 131.614562 76.270296 133.192267 76.504326 134.755646 76.815302 
C 136.319026 77.126277 137.866195 77.513823 139.391565 77.976539 
L 139.391565 77.976539 
C 137.866195 77.513823 136.319026 77.126277 134.755646 76.815302 
C 133.192267 76.504326 131.614562 76.270296 130.02823 76.114056 
z
" clip-path="url(#pdaaf38f6fa)" style="fill: #a1a1d8"/>
   </g>
   <g id="patch_69">
    <path d="M 129.541652 110.447349 
C 130.004204 110.587663 130.459588 110.750602 130.90616 110.935578 
C 131.352732 111.120554 131.789952 111.327344 132.216243 111.555201 
L 140.124398 96.760083 
C 139.213841 96.27338 138.279938 95.831677 137.32606 95.436568 
C 136.372183 95.041459 135.399482 94.693421 134.41147 94.393711 
z
" clip-path="url(#pdaaf38f6fa)" style="fill: #a1a1d8"/>
   </g>
   <g id="patch_70">
    <path d="M 125.254844 124.579062 
C 125.254844 124.579062 125.254844 124.579062 125.254844 124.579062 
C 125.254844 124.579062 125.254844 124.579062 125.254844 124.579062 
L 169.75506 70.355392 
C 167.980239 68.898833 166.134974 67.530291 164.22593 66.25471 
C 162.316887 64.979128 160.346367 63.798043 158.321488 62.715723 
z
" clip-path="url(#pdaaf38f6fa)" style="fill: #a1a1d8"/>
   </g>
   <g id="patch_71">
    <path d="M 125.254844 124.579062 
C 125.254844 124.579062 125.254844 124.579062 125.254844 124.579062 
C 125.254844 124.579062 125.254844 124.579062 125.254844 124.579062 
L 151.411062 103.113209 
C 150.708453 102.257077 149.964233 101.435957 149.181091 100.652815 
C 148.397949 99.869673 147.57683 99.125453 146.720697 98.422844 
z
" clip-path="url(#pdaaf38f6fa)" style="fill: #a1a1d8"/>
   </g>
   <g id="patch_72">
    <path d="M 125.254844 124.579062 
C 125.254844 124.579062 125.254844 124.579062 125.254844 124.579062 
C 125.254844 124.579062 125.254844 124.579062 125.254844 124.579062 
L 199.287792 85.007627 
C 197.99256 82.584418 196.579135 80.226262 195.052624 77.941677 
C 193.526113 75.657091 191.888355 73.44883 190.145266 71.32487 
z
" clip-path="url(#pdaaf38f6fa)" style="fill: #a1a1d8"/>
   </g>
   <g id="patch_73">
    <path d="M 140.526675 116.416099 
C 140.793861 116.915968 141.036344 117.428655 141.253247 117.952307 
C 141.470151 118.475958 141.661214 119.009944 141.825746 119.552334 
L 154.601549 115.676837 
C 154.310166 114.716275 153.971798 113.770599 153.587666 112.843223 
C 153.203535 111.915848 152.774103 111.007891 152.300923 110.122632 
z
" clip-path="url(#pdaaf38f6fa)" style="fill: #a1a1d8"/>
   </g>
   <g id="patch_74">
    <path d="M 125.254844 124.579062 
C 125.254844 124.579062 125.254844 124.579062 125.254844 124.579062 
C 125.254844 124.579062 125.254844 124.579062 125.254844 124.579062 
L 125.254844 124.579062 
C 125.254844 124.579062 125.254844 124.579062 125.254844 124.579062 
C 125.254844 124.579062 125.254844 124.579062 125.254844 124.579062 
z
" clip-path="url(#pdaaf38f6fa)" style="fill: #a1a1d8"/>
   </g>
   <g id="patch_75">
    <path d="M 125.254844 124.579062 
C 125.254844 124.579062 125.254844 124.579062 125.254844 124.579062 
C 125.254844 124.579062 125.254844 124.579062 125.254844 124.579062 
L 167.785888 128.768005 
C 167.922999 127.3759 167.991678 125.977903 167.991678 124.579062 
C 167.991678 123.180222 167.922999 121.782225 167.785888 120.39012 
z
" clip-path="url(#pdaaf38f6fa)" style="fill: #a1a1d8"/>
   </g>
   <g id="patch_76">
    <path d="M 160.110632 128.012058 
C 159.998265 129.15294 159.829952 130.287617 159.6063 131.411992 
C 159.382648 132.536366 159.103927 133.649082 158.771144 134.746121 
L 158.771144 134.746121 
C 159.103927 133.649082 159.382648 132.536366 159.6063 131.411992 
C 159.829952 130.287617 159.998265 129.15294 160.110632 128.012058 
z
" clip-path="url(#pdaaf38f6fa)" style="fill: #a1a1d8"/>
   </g>
   <g id="patch_77">
    <path d="M 125.254844 124.579062 
C 125.254844 124.579062 125.254844 124.579062 125.254844 124.579062 
C 125.254844 124.579062 125.254844 124.579062 125.254844 124.579062 
L 174.526539 150.915332 
C 175.388565 149.302596 176.17089 147.648509 176.870688 145.959045 
C 177.570487 144.269582 178.186916 142.546778 178.717749 140.796857 
z
" clip-path="url(#pdaaf38f6fa)" style="fill: #a1a1d8"/>
   </g>
   <g id="patch_78">
    <path d="M 125.254844 124.579062 
C 125.254844 124.579062 125.254844 124.579062 125.254844 124.579062 
C 125.254844 124.579062 125.254844 124.579062 125.254844 124.579062 
L 125.254844 124.579062 
C 125.254844 124.579062 125.254844 124.579062 125.254844 124.579062 
C 125.254844 124.579062 125.254844 124.579062 125.254844 124.579062 
z
" clip-path="url(#pdaaf38f6fa)" style="fill: #a1a1d8"/>
   </g>
   <g id="patch_79">
    <path d="M 125.254844 124.579062 
C 125.254844 124.579062 125.254844 124.579062 125.254844 124.579062 
C 125.254844 124.579062 125.254844 124.579062 125.254844 124.579062 
L 125.254844 124.579062 
C 125.254844 124.579062 125.254844 124.579062 125.254844 124.579062 
C 125.254844 124.579062 125.254844 124.579062 125.254844 124.579062 
z
" clip-path="url(#pdaaf38f6fa)" style="fill: #a1a1d8"/>
   </g>
   <g id="patch_80">
    <path d="M 125.254844 124.579062 
C 125.254844 124.579062 125.254844 124.579062 125.254844 124.579062 
C 125.254844 124.579062 125.254844 124.579062 125.254844 124.579062 
L 125.254844 124.579062 
C 125.254844 124.579062 125.254844 124.579062 125.254844 124.579062 
C 125.254844 124.579062 125.254844 124.579062 125.254844 124.579062 
z
" clip-path="url(#pdaaf38f6fa)" style="fill: #a1a1d8"/>
   </g>
   <g id="patch_81">
    <path d="M 132.43049 138.003752 
C 131.991079 138.238621 131.540403 138.451775 131.080087 138.642444 
C 130.619772 138.833113 130.150372 139.001067 129.673585 139.145699 
L 129.673585 139.145699 
C 130.150372 139.001067 130.619772 138.833113 131.080087 138.642444 
C 131.540403 138.451775 131.991079 138.238621 132.43049 138.003752 
z
" clip-path="url(#pdaaf38f6fa)" style="fill: #a1a1d8"/>
   </g>
   <g id="patch_82">
    <path d="M 132.200267 147.475054 
C 131.450847 147.702388 130.690717 147.89279 129.922623 148.045574 
C 129.154529 148.198357 128.379397 148.313337 127.600026 148.390099 
L 127.600026 148.390099 
C 128.379397 148.313337 129.154529 148.198357 129.922623 148.045574 
C 130.690717 147.89279 131.450847 147.702388 132.200267 147.475054 
z
" clip-path="url(#pdaaf38f6fa)" style="fill: #a1a1d8"/>
   </g>
   <g id="patch_83">
    <path d="M 125.254844 124.579062 
C 125.254844 124.579062 125.254844 124.579062 125.254844 124.579062 
C 125.254844 124.579062 125.254844 124.579062 125.254844 124.579062 
L 125.254844 124.579062 
C 125.254844 124.579062 125.254844 124.579062 125.254844 124.579062 
C 125.254844 124.579062 125.254844 124.579062 125.254844 124.579062 
z
" clip-path="url(#pdaaf38f6fa)" style="fill: #a1a1d8"/>
   </g>
   <g id="patch_84">
    <path d="M 125.254844 124.579062 
C 125.254844 124.579062 125.254844 124.579062 125.254844 124.579062 
C 125.254844 124.579062 125.254844 124.579062 125.254844 124.579062 
L 125.254844 124.579062 
C 125.254844 124.579062 125.254844 124.579062 125.254844 124.579062 
C 125.254844 124.579062 125.254844 124.579062 125.254844 124.579062 
z
" clip-path="url(#pdaaf38f6fa)" style="fill: #a1a1d8"/>
   </g>
   <g id="patch_85">
    <path d="M 125.254844 124.579062 
C 125.254844 124.579062 125.254844 124.579062 125.254844 124.579062 
C 125.254844 124.579062 125.254844 124.579062 125.254844 124.579062 
L 125.254844 124.579062 
C 125.254844 124.579062 125.254844 124.579062 125.254844 124.579062 
C 125.254844 124.579062 125.254844 124.579062 125.254844 124.579062 
z
" clip-path="url(#pdaaf38f6fa)" style="fill: #a1a1d8"/>
   </g>
   <g id="patch_86">
    <path d="M 125.254844 124.579062 
C 125.254844 124.579062 125.254844 124.579062 125.254844 124.579062 
C 125.254844 124.579062 125.254844 124.579062 125.254844 124.579062 
L 125.254844 124.579062 
C 125.254844 124.579062 125.254844 124.579062 125.254844 124.579062 
C 125.254844 124.579062 125.254844 124.579062 125.254844 124.579062 
z
" clip-path="url(#pdaaf38f6fa)" style="fill: #a1a1d8"/>
   </g>
   <g id="patch_87">
    <path d="M 125.254844 124.579062 
C 125.254844 124.579062 125.254844 124.579062 125.254844 124.579062 
C 125.254844 124.579062 125.254844 124.579062 125.254844 124.579062 
L 125.254844 124.579062 
C 125.254844 124.579062 125.254844 124.579062 125.254844 124.579062 
C 125.254844 124.579062 125.254844 124.579062 125.254844 124.579062 
z
" clip-path="url(#pdaaf38f6fa)" style="fill: #a1a1d8"/>
   </g>
   <g id="patch_88">
    <path d="M 125.254844 124.579062 
C 125.254844 124.579062 125.254844 124.579062 125.254844 124.579062 
C 125.254844 124.579062 125.254844 124.579062 125.254844 124.579062 
L 125.254844 124.579062 
C 125.254844 124.579062 125.254844 124.579062 125.254844 124.579062 
C 125.254844 124.579062 125.254844 124.579062 125.254844 124.579062 
z
" clip-path="url(#pdaaf38f6fa)" style="fill: #a1a1d8"/>
   </g>
   <g id="patch_89">
    <path d="M 125.254844 124.579062 
C 125.254844 124.579062 125.254844 124.579062 125.254844 124.579062 
C 125.254844 124.579062 125.254844 124.579062 125.254844 124.579062 
L 125.254844 124.579062 
C 125.254844 124.579062 125.254844 124.579062 125.254844 124.579062 
C 125.254844 124.579062 125.254844 124.579062 125.254844 124.579062 
z
" clip-path="url(#pdaaf38f6fa)" style="fill: #a1a1d8"/>
   </g>
   <g id="patch_90">
    <path d="M 125.254844 124.579062 
C 125.254844 124.579062 125.254844 124.579062 125.254844 124.579062 
C 125.254844 124.579062 125.254844 124.579062 125.254844 124.579062 
L 91.182431 127.934902 
C 91.292272 129.050143 91.456803 130.159319 91.675428 131.258424 
C 91.894054 132.357528 92.166511 133.445236 92.491814 134.517619 
z
" clip-path="url(#pdaaf38f6fa)" style="fill: #a1a1d8"/>
   </g>
   <g id="patch_91">
    <path d="M 125.254844 124.579062 
C 125.254844 124.579062 125.254844 124.579062 125.254844 124.579062 
C 125.254844 124.579062 125.254844 124.579062 125.254844 124.579062 
L 82.723799 120.39012 
C 82.586689 121.782225 82.518009 123.180222 82.518009 124.579062 
C 82.518009 125.977903 82.586689 127.3759 82.723799 128.768005 
z
" clip-path="url(#pdaaf38f6fa)" style="fill: #a1a1d8"/>
   </g>
   <g id="patch_92">
    <path d="M 125.254844 124.579062 
C 125.254844 124.579062 125.254844 124.579062 125.254844 124.579062 
C 125.254844 124.579062 125.254844 124.579062 125.254844 124.579062 
L 88.369991 113.390165 
C 88.003761 114.597461 87.697028 115.82201 87.450898 117.05939 
C 87.204767 118.29677 87.019538 119.545488 86.895877 120.801034 
z
" clip-path="url(#pdaaf38f6fa)" style="fill: #a1a1d8"/>
   </g>
   <g id="patch_93">
    <path d="M 125.254844 124.579062 
C 125.254844 124.579062 125.254844 124.579062 125.254844 124.579062 
C 125.254844 124.579062 125.254844 124.579062 125.254844 124.579062 
L 125.254844 124.579062 
C 125.254844 124.579062 125.254844 124.579062 125.254844 124.579062 
C 125.254844 124.579062 125.254844 124.579062 125.254844 124.579062 
z
" clip-path="url(#pdaaf38f6fa)" style="fill: #a1a1d8"/>
   </g>
   <g id="patch_94">
    <path d="M 125.254844 124.579062 
C 125.254844 124.579062 125.254844 124.579062 125.254844 124.579062 
C 125.254844 124.579062 125.254844 124.579062 125.254844 124.579062 
L 95.187378 99.903331 
C 94.379705 100.887484 93.620837 101.910699 92.913517 102.969279 
C 92.206196 104.027859 91.551276 105.120528 90.95112 106.24334 
z
" clip-path="url(#pdaaf38f6fa)" style="fill: #a1a1d8"/>
   </g>
   <g id="patch_95">
    <path d="M 125.254844 124.579062 
C 125.254844 124.579062 125.254844 124.579062 125.254844 124.579062 
C 125.254844 124.579062 125.254844 124.579062 125.254844 124.579062 
L 107.728047 103.222599 
C 107.029018 103.796277 106.358577 104.40393 105.719144 105.043363 
C 105.079712 105.682796 104.472059 106.353237 103.898381 107.052266 
z
" clip-path="url(#pdaaf38f6fa)" style="fill: #a1a1d8"/>
   </g>
   <g id="patch_96">
    <path d="M 125.254844 124.579062 
C 125.254844 124.579062 125.254844 124.579062 125.254844 124.579062 
C 125.254844 124.579062 125.254844 124.579062 125.254844 124.579062 
L 98.181355 73.928128 
C 96.523475 74.814284 94.910101 75.781303 93.347062 76.825692 
C 91.784023 77.870082 90.273202 78.990582 88.820058 80.183147 
z
" clip-path="url(#pdaaf38f6fa)" style="fill: #a1a1d8"/>
   </g>
   <g id="patch_97">
    <path d="M 125.254844 124.579062 
C 125.254844 124.579062 125.254844 124.579062 125.254844 124.579062 
C 125.254844 124.579062 125.254844 124.579062 125.254844 124.579062 
L 104.529112 56.255481 
C 102.292779 56.933865 100.091101 57.721638 97.93203 58.615954 
C 95.772959 59.510271 93.659097 60.510053 91.598081 61.611689 
z
" clip-path="url(#pdaaf38f6fa)" style="fill: #a1a1d8"/>
   </g>
   <g id="patch_98">
    <path d="M 125.254844 124.579062 
C 125.254844 124.579062 125.254844 124.579062 125.254844 124.579062 
C 125.254844 124.579062 125.254844 124.579062 125.254844 124.579062 
L 118.071939 51.649807 
C 115.684856 51.884915 113.310754 52.237079 110.95821 52.70503 
C 108.605665 53.17298 106.277514 53.756151 103.982165 54.452438 
z
" clip-path="url(#pdaaf38f6fa)" style="fill: #a1a1d8"/>
   </g>
   <g id="patch_99">
    <path d="M 120.41336 75.42265 
C 122.022322 75.264181 123.638096 75.184803 125.254844 75.184803 
C 126.871592 75.184803 128.487365 75.264181 130.096328 75.42265 
L 130.096328 75.42265 
C 128.487365 75.264181 126.871592 75.184803 125.254844 75.184803 
C 123.638096 75.184803 122.022322 75.264181 120.41336 75.42265 
z
" clip-path="url(#pdaaf38f6fa)" style="fill: #828282"/>
   </g>
   <g id="patch_100">
    <path d="M 130.02823 76.114056 
C 131.614562 76.270296 133.192267 76.504326 134.755646 76.815302 
C 136.319026 77.126277 137.866195 77.513823 139.391565 77.976539 
L 144.184876 62.175108 
C 142.142302 61.5555 140.070537 61.03655 137.977066 60.620132 
C 135.883595 60.203715 133.77094 59.890332 131.646734 59.681116 
z
" clip-path="url(#pdaaf38f6fa)" style="fill: #828282"/>
   </g>
   <g id="patch_101">
    <path d="M 134.41147 94.393711 
C 135.399482 94.693421 136.372183 95.041459 137.32606 95.436568 
C 138.279938 95.831677 139.213841 96.27338 140.124398 96.760083 
L 140.124398 96.760083 
C 139.213841 96.27338 138.279938 95.831677 137.32606 95.436568 
C 136.372183 95.041459 135.399482 94.693421 134.41147 94.393711 
z
" clip-path="url(#pdaaf38f6fa)" style="fill: #828282"/>
   </g>
   <g id="patch_102">
    <path d="M 158.321488 62.715723 
C 160.346367 63.798043 162.316887 64.979128 164.22593 66.25471 
C 166.134974 67.530291 167.980239 68.898833 169.75506 70.355392 
L 176.192516 62.511329 
C 174.160946 60.844063 172.048743 59.277546 169.863536 57.817437 
C 167.678328 56.357328 165.42275 55.005387 163.104949 53.766496 
z
" clip-path="url(#pdaaf38f6fa)" style="fill: #828282"/>
   </g>
   <g id="patch_103">
    <path d="M 146.720697 98.422844 
C 147.57683 99.125453 148.397949 99.869673 149.181091 100.652815 
C 149.964233 101.435957 150.708453 102.257077 151.411062 103.113209 
L 151.411062 103.113209 
C 150.708453 102.257077 149.964233 101.435957 149.181091 100.652815 
C 148.397949 99.869673 147.57683 99.125453 146.720697 98.422844 
z
" clip-path="url(#pdaaf38f6fa)" style="fill: #828282"/>
   </g>
   <g id="patch_104">
    <path d="M 190.145266 71.32487 
C 191.888355 73.44883 193.526113 75.657091 195.052624 77.941677 
C 196.579135 80.226262 197.99256 82.584418 199.287792 85.007627 
L 199.287792 85.007627 
C 197.99256 82.584418 196.579135 80.226262 195.052624 77.941677 
C 193.526113 75.657091 191.888355 73.44883 190.145266 71.32487 
z
" clip-path="url(#pdaaf38f6fa)" style="fill: #828282"/>
   </g>
   <g id="patch_105">
    <path d="M 152.300923 110.122632 
C 152.774103 111.007891 153.203535 111.915848 153.587666 112.843223 
C 153.971798 113.770599 154.310166 114.716275 154.601549 115.676837 
L 177.417904 108.755571 
C 176.899977 107.048196 176.298535 105.367279 175.615751 103.718892 
C 174.932966 102.070504 174.169662 100.456633 173.328595 98.883107 
z
" clip-path="url(#pdaaf38f6fa)" style="fill: #828282"/>
   </g>
   <g id="patch_106">
    <path d="M 125.254844 124.579062 
C 125.254844 124.579062 125.254844 124.579062 125.254844 124.579062 
C 125.254844 124.579062 125.254844 124.579062 125.254844 124.579062 
L 125.254844 124.579062 
C 125.254844 124.579062 125.254844 124.579062 125.254844 124.579062 
C 125.254844 124.579062 125.254844 124.579062 125.254844 124.579062 
z
" clip-path="url(#pdaaf38f6fa)" style="fill: #828282"/>
   </g>
   <g id="patch_107">
    <path d="M 167.785888 120.39012 
C 167.922999 121.782225 167.991678 123.180222 167.991678 124.579062 
C 167.991678 125.977903 167.922999 127.3759 167.785888 128.768005 
L 167.785888 128.768005 
C 167.922999 127.3759 167.991678 125.977903 167.991678 124.579062 
C 167.991678 123.180222 167.922999 121.782225 167.785888 120.39012 
z
" clip-path="url(#pdaaf38f6fa)" style="fill: #828282"/>
   </g>
   <g id="patch_108">
    <path d="M 160.110632 128.012058 
C 159.998265 129.15294 159.829952 130.287617 159.6063 131.411992 
C 159.382648 132.536366 159.103927 133.649082 158.771144 134.746121 
L 158.771144 134.746121 
C 159.103927 133.649082 159.382648 132.536366 159.6063 131.411992 
C 159.829952 130.287617 159.998265 129.15294 160.110632 128.012058 
z
" clip-path="url(#pdaaf38f6fa)" style="fill: #828282"/>
   </g>
   <g id="patch_109">
    <path d="M 178.717749 140.796857 
C 178.186916 142.546778 177.570487 144.269582 176.870688 145.959045 
C 176.17089 147.648509 175.388565 149.302596 174.526539 150.915332 
L 174.526539 150.915332 
C 175.388565 149.302596 176.17089 147.648509 176.870688 145.959045 
C 177.570487 144.269582 178.186916 142.546778 178.717749 140.796857 
z
" clip-path="url(#pdaaf38f6fa)" style="fill: #828282"/>
   </g>
   <g id="patch_110">
    <path d="M 125.254844 124.579062 
C 125.254844 124.579062 125.254844 124.579062 125.254844 124.579062 
C 125.254844 124.579062 125.254844 124.579062 125.254844 124.579062 
L 125.254844 124.579062 
C 125.254844 124.579062 125.254844 124.579062 125.254844 124.579062 
C 125.254844 124.579062 125.254844 124.579062 125.254844 124.579062 
z
" clip-path="url(#pdaaf38f6fa)" style="fill: #828282"/>
   </g>
   <g id="patch_111">
    <path d="M 125.254844 124.579062 
C 125.254844 124.579062 125.254844 124.579062 125.254844 124.579062 
C 125.254844 124.579062 125.254844 124.579062 125.254844 124.579062 
L 125.254844 124.579062 
C 125.254844 124.579062 125.254844 124.579062 125.254844 124.579062 
C 125.254844 124.579062 125.254844 124.579062 125.254844 124.579062 
z
" clip-path="url(#pdaaf38f6fa)" style="fill: #828282"/>
   </g>
   <g id="patch_112">
    <path d="M 125.254844 124.579062 
C 125.254844 124.579062 125.254844 124.579062 125.254844 124.579062 
C 125.254844 124.579062 125.254844 124.579062 125.254844 124.579062 
L 125.254844 124.579062 
C 125.254844 124.579062 125.254844 124.579062 125.254844 124.579062 
C 125.254844 124.579062 125.254844 124.579062 125.254844 124.579062 
z
" clip-path="url(#pdaaf38f6fa)" style="fill: #828282"/>
   </g>
   <g id="patch_113">
    <path d="M 132.43049 138.003752 
C 131.991079 138.238621 131.540403 138.451775 131.080087 138.642444 
C 130.619772 138.833113 130.150372 139.001067 129.673585 139.145699 
L 129.673585 139.145699 
C 130.150372 139.001067 130.619772 138.833113 131.080087 138.642444 
C 131.540403 138.451775 131.991079 138.238621 132.43049 138.003752 
z
" clip-path="url(#pdaaf38f6fa)" style="fill: #828282"/>
   </g>
   <g id="patch_114">
    <path d="M 132.200267 147.475054 
C 131.450847 147.702388 130.690717 147.89279 129.922623 148.045574 
C 129.154529 148.198357 128.379397 148.313337 127.600026 148.390099 
L 127.600026 148.390099 
C 128.379397 148.313337 129.154529 148.198357 129.922623 148.045574 
C 130.690717 147.89279 131.450847 147.702388 132.200267 147.475054 
z
" clip-path="url(#pdaaf38f6fa)" style="fill: #828282"/>
   </g>
   <g id="patch_115">
    <path d="M 125.254844 124.579062 
C 125.254844 124.579062 125.254844 124.579062 125.254844 124.579062 
C 125.254844 124.579062 125.254844 124.579062 125.254844 124.579062 
L 125.254844 124.579062 
C 125.254844 124.579062 125.254844 124.579062 125.254844 124.579062 
C 125.254844 124.579062 125.254844 124.579062 125.254844 124.579062 
z
" clip-path="url(#pdaaf38f6fa)" style="fill: #828282"/>
   </g>
   <g id="patch_116">
    <path d="M 125.254844 124.579062 
C 125.254844 124.579062 125.254844 124.579062 125.254844 124.579062 
C 125.254844 124.579062 125.254844 124.579062 125.254844 124.579062 
L 125.254844 124.579062 
C 125.254844 124.579062 125.254844 124.579062 125.254844 124.579062 
C 125.254844 124.579062 125.254844 124.579062 125.254844 124.579062 
z
" clip-path="url(#pdaaf38f6fa)" style="fill: #828282"/>
   </g>
   <g id="patch_117">
    <path d="M 125.254844 124.579062 
C 125.254844 124.579062 125.254844 124.579062 125.254844 124.579062 
C 125.254844 124.579062 125.254844 124.579062 125.254844 124.579062 
L 125.254844 124.579062 
C 125.254844 124.579062 125.254844 124.579062 125.254844 124.579062 
C 125.254844 124.579062 125.254844 124.579062 125.254844 124.579062 
z
" clip-path="url(#pdaaf38f6fa)" style="fill: #828282"/>
   </g>
   <g id="patch_118">
    <path d="M 125.254844 124.579062 
C 125.254844 124.579062 125.254844 124.579062 125.254844 124.579062 
C 125.254844 124.579062 125.254844 124.579062 125.254844 124.579062 
L 125.254844 124.579062 
C 125.254844 124.579062 125.254844 124.579062 125.254844 124.579062 
C 125.254844 124.579062 125.254844 124.579062 125.254844 124.579062 
z
" clip-path="url(#pdaaf38f6fa)" style="fill: #828282"/>
   </g>
   <g id="patch_119">
    <path d="M 125.254844 124.579062 
C 125.254844 124.579062 125.254844 124.579062 125.254844 124.579062 
C 125.254844 124.579062 125.254844 124.579062 125.254844 124.579062 
L 125.254844 124.579062 
C 125.254844 124.579062 125.254844 124.579062 125.254844 124.579062 
C 125.254844 124.579062 125.254844 124.579062 125.254844 124.579062 
z
" clip-path="url(#pdaaf38f6fa)" style="fill: #828282"/>
   </g>
   <g id="patch_120">
    <path d="M 125.254844 124.579062 
C 125.254844 124.579062 125.254844 124.579062 125.254844 124.579062 
C 125.254844 124.579062 125.254844 124.579062 125.254844 124.579062 
L 125.254844 124.579062 
C 125.254844 124.579062 125.254844 124.579062 125.254844 124.579062 
C 125.254844 124.579062 125.254844 124.579062 125.254844 124.579062 
z
" clip-path="url(#pdaaf38f6fa)" style="fill: #828282"/>
   </g>
   <g id="patch_121">
    <path d="M 125.254844 124.579062 
C 125.254844 124.579062 125.254844 124.579062 125.254844 124.579062 
C 125.254844 124.579062 125.254844 124.579062 125.254844 124.579062 
L 125.254844 124.579062 
C 125.254844 124.579062 125.254844 124.579062 125.254844 124.579062 
C 125.254844 124.579062 125.254844 124.579062 125.254844 124.579062 
z
" clip-path="url(#pdaaf38f6fa)" style="fill: #828282"/>
   </g>
   <g id="patch_122">
    <path d="M 92.491814 134.517619 
C 92.166511 133.445236 91.894054 132.357528 91.675428 131.258424 
C 91.456803 130.159319 91.292272 129.050143 91.182431 127.934902 
L 91.182431 127.934902 
C 91.292272 129.050143 91.456803 130.159319 91.675428 131.258424 
C 91.894054 132.357528 92.166511 133.445236 92.491814 134.517619 
z
" clip-path="url(#pdaaf38f6fa)" style="fill: #828282"/>
   </g>
   <g id="patch_123">
    <path d="M 82.723799 128.768005 
C 82.586689 127.3759 82.518009 125.977903 82.518009 124.579062 
C 82.518009 123.180222 82.586689 121.782225 82.723799 120.39012 
L 82.723799 120.39012 
C 82.586689 121.782225 82.518009 123.180222 82.518009 124.579062 
C 82.518009 125.977903 82.586689 127.3759 82.723799 128.768005 
z
" clip-path="url(#pdaaf38f6fa)" style="fill: #828282"/>
   </g>
   <g id="patch_124">
    <path d="M 86.895877 120.801034 
C 87.019538 119.545488 87.204767 118.29677 87.450898 117.05939 
C 87.697028 115.82201 88.003761 114.597461 88.369991 113.390165 
L 88.369991 113.390165 
C 88.003761 114.597461 87.697028 115.82201 87.450898 117.05939 
C 87.204767 118.29677 87.019538 119.545488 86.895877 120.801034 
z
" clip-path="url(#pdaaf38f6fa)" style="fill: #828282"/>
   </g>
   <g id="patch_125">
    <path d="M 125.254844 124.579062 
C 125.254844 124.579062 125.254844 124.579062 125.254844 124.579062 
C 125.254844 124.579062 125.254844 124.579062 125.254844 124.579062 
L 125.254844 124.579062 
C 125.254844 124.579062 125.254844 124.579062 125.254844 124.579062 
C 125.254844 124.579062 125.254844 124.579062 125.254844 124.579062 
z
" clip-path="url(#pdaaf38f6fa)" style="fill: #828282"/>
   </g>
   <g id="patch_126">
    <path d="M 90.95112 106.24334 
C 91.551276 105.120528 92.206196 104.027859 92.913517 102.969279 
C 93.620837 101.910699 94.379705 100.887484 95.187378 99.903331 
L 95.187378 99.903331 
C 94.379705 100.887484 93.620837 101.910699 92.913517 102.969279 
C 92.206196 104.027859 91.551276 105.120528 90.95112 106.24334 
z
" clip-path="url(#pdaaf38f6fa)" style="fill: #828282"/>
   </g>
   <g id="patch_127">
    <path d="M 103.898381 107.052266 
C 104.472059 106.353237 105.079712 105.682796 105.719144 105.043363 
C 106.358577 104.40393 107.029018 103.796277 107.728047 103.222599 
L 79.061082 68.291801 
C 77.218716 69.803792 75.451695 71.405327 73.766401 73.09062 
C 72.081108 74.775914 70.479573 76.542935 68.967582 78.385301 
z
" clip-path="url(#pdaaf38f6fa)" style="fill: #828282"/>
   </g>
   <g id="patch_128">
    <path d="M 88.820058 80.183147 
C 90.273202 78.990582 91.784023 77.870082 93.347062 76.825692 
C 94.910101 75.781303 96.523475 74.814284 98.181355 73.928128 
L 84.181115 47.735521 
C 81.665911 49.079926 79.21823 50.547009 76.846912 52.131473 
C 74.475595 53.715937 72.183499 55.415871 69.978904 57.225135 
z
" clip-path="url(#pdaaf38f6fa)" style="fill: #828282"/>
   </g>
   <g id="patch_129">
    <path d="M 91.598081 61.611689 
C 93.659097 60.510053 95.772959 59.510271 97.93203 58.615954 
C 100.091101 57.721638 102.292779 56.933865 104.529112 56.255481 
L 104.529112 56.255481 
C 102.292779 56.933865 100.091101 57.721638 97.93203 58.615954 
C 95.772959 59.510271 93.659097 60.510053 91.598081 61.611689 
z
" clip-path="url(#pdaaf38f6fa)" style="fill: #828282"/>
   </g>
   <g id="patch_130">
    <path d="M 103.982165 54.452438 
C 106.277514 53.756151 108.605665 53.17298 110.95821 52.70503 
C 113.310754 52.237079 115.684856 51.884915 118.071939 51.649807 
L 114.386703 14.232978 
C 110.774911 14.588708 107.182761 15.121553 103.623228 15.829588 
C 100.063696 16.537623 96.541071 17.419995 93.068078 18.473516 
z
" clip-path="url(#pdaaf38f6fa)" style="fill: #828282"/>
   </g>
   <g id="patch_131">
    <path d="M 125.254844 124.579062 
C 125.254844 124.579062 125.254844 124.579062 125.254844 124.579062 
C 125.254844 124.579062 125.254844 124.579062 125.254844 124.579062 
L 130.096328 75.42265 
C 128.487365 75.264181 126.871592 75.184803 125.254844 75.184803 
C 123.638096 75.184803 122.022322 75.264181 120.41336 75.42265 
L 125.254844 124.579062 
z
" clip-path="url(#pdaaf38f6fa)" style="fill: none; stroke: #292929; stroke-width: 0.5; stroke-linejoin: miter"/>
   </g>
   <g id="patch_132">
    <path d="M 125.254844 124.579062 
C 125.254844 124.579062 125.254844 124.579062 125.254844 124.579062 
C 125.254844 124.579062 125.254844 124.579062 125.254844 124.579062 
L 144.184876 62.175108 
C 142.142302 61.5555 140.070537 61.03655 137.977066 60.620132 
C 135.883595 60.203715 133.77094 59.890332 131.646734 59.681116 
L 125.254844 124.579062 
z
" clip-path="url(#pdaaf38f6fa)" style="fill: none; stroke: #292929; stroke-width: 0.5; stroke-linejoin: miter"/>
   </g>
   <g id="patch_133">
    <path d="M 125.254844 124.579062 
C 125.254844 124.579062 125.254844 124.579062 125.254844 124.579062 
C 125.254844 124.579062 125.254844 124.579062 125.254844 124.579062 
L 140.124398 96.760083 
C 139.213841 96.27338 138.279938 95.831677 137.32606 95.436568 
C 136.372183 95.041459 135.399482 94.693421 134.41147 94.393711 
L 125.254844 124.579062 
z
" clip-path="url(#pdaaf38f6fa)" style="fill: none; stroke: #292929; stroke-width: 0.5; stroke-linejoin: miter"/>
   </g>
   <g id="patch_134">
    <path d="M 125.254844 124.579062 
C 125.254844 124.579062 125.254844 124.579062 125.254844 124.579062 
C 125.254844 124.579062 125.254844 124.579062 125.254844 124.579062 
L 176.192516 62.511329 
C 174.160946 60.844063 172.048743 59.277546 169.863536 57.817437 
C 167.678328 56.357328 165.42275 55.005387 163.104949 53.766496 
L 125.254844 124.579062 
z
" clip-path="url(#pdaaf38f6fa)" style="fill: none; stroke: #292929; stroke-width: 0.5; stroke-linejoin: miter"/>
   </g>
   <g id="patch_135">
    <path d="M 125.254844 124.579062 
C 125.254844 124.579062 125.254844 124.579062 125.254844 124.579062 
C 125.254844 124.579062 125.254844 124.579062 125.254844 124.579062 
L 151.411062 103.113209 
C 150.708453 102.257077 149.964233 101.435957 149.181091 100.652815 
C 148.397949 99.869673 147.57683 99.125453 146.720697 98.422844 
L 125.254844 124.579062 
z
" clip-path="url(#pdaaf38f6fa)" style="fill: none; stroke: #292929; stroke-width: 0.5; stroke-linejoin: miter"/>
   </g>
   <g id="patch_136">
    <path d="M 125.254844 124.579062 
C 125.254844 124.579062 125.254844 124.579062 125.254844 124.579062 
C 125.254844 124.579062 125.254844 124.579062 125.254844 124.579062 
L 199.287792 85.007627 
C 197.99256 82.584418 196.579135 80.226262 195.052624 77.941677 
C 193.526113 75.657091 191.888355 73.44883 190.145266 71.32487 
L 125.254844 124.579062 
z
" clip-path="url(#pdaaf38f6fa)" style="fill: none; stroke: #292929; stroke-width: 0.5; stroke-linejoin: miter"/>
   </g>
   <g id="patch_137">
    <path d="M 125.254844 124.579062 
C 125.254844 124.579062 125.254844 124.579062 125.254844 124.579062 
C 125.254844 124.579062 125.254844 124.579062 125.254844 124.579062 
L 177.417904 108.755571 
C 176.899977 107.048196 176.298535 105.367279 175.615751 103.718892 
C 174.932966 102.070504 174.169662 100.456633 173.328595 98.883107 
L 125.254844 124.579062 
z
" clip-path="url(#pdaaf38f6fa)" style="fill: none; stroke: #292929; stroke-width: 0.5; stroke-linejoin: miter"/>
   </g>
   <g id="patch_138">
    <path d="M 125.254844 124.579062 
C 125.254844 124.579062 125.254844 124.579062 125.254844 124.579062 
C 125.254844 124.579062 125.254844 124.579062 125.254844 124.579062 
L 125.254844 124.579062 
C 125.254844 124.579062 125.254844 124.579062 125.254844 124.579062 
C 125.254844 124.579062 125.254844 124.579062 125.254844 124.579062 
L 125.254844 124.579062 
z
" clip-path="url(#pdaaf38f6fa)" style="fill: none; stroke: #292929; stroke-width: 0.5; stroke-linejoin: miter"/>
   </g>
   <g id="patch_139">
    <path d="M 125.254844 124.579062 
C 125.254844 124.579062 125.254844 124.579062 125.254844 124.579062 
C 125.254844 124.579062 125.254844 124.579062 125.254844 124.579062 
L 167.785888 128.768005 
C 167.922999 127.3759 167.991678 125.977903 167.991678 124.579062 
C 167.991678 123.180222 167.922999 121.782225 167.785888 120.39012 
L 125.254844 124.579062 
z
" clip-path="url(#pdaaf38f6fa)" style="fill: none; stroke: #292929; stroke-width: 0.5; stroke-linejoin: miter"/>
   </g>
   <g id="patch_140">
    <path d="M 125.254844 124.579062 
C 125.254844 124.579062 125.254844 124.579062 125.254844 124.579062 
C 125.254844 124.579062 125.254844 124.579062 125.254844 124.579062 
L 158.771144 134.746121 
C 159.103927 133.649082 159.382648 132.536366 159.6063 131.411992 
C 159.829952 130.287617 159.998265 129.15294 160.110632 128.012058 
L 125.254844 124.579062 
z
" clip-path="url(#pdaaf38f6fa)" style="fill: none; stroke: #292929; stroke-width: 0.5; stroke-linejoin: miter"/>
   </g>
   <g id="patch_141">
    <path d="M 125.254844 124.579062 
C 125.254844 124.579062 125.254844 124.579062 125.254844 124.579062 
C 125.254844 124.579062 125.254844 124.579062 125.254844 124.579062 
L 174.526539 150.915332 
C 175.388565 149.302596 176.17089 147.648509 176.870688 145.959045 
C 177.570487 144.269582 178.186916 142.546778 178.717749 140.796857 
L 125.254844 124.579062 
z
" clip-path="url(#pdaaf38f6fa)" style="fill: none; stroke: #292929; stroke-width: 0.5; stroke-linejoin: miter"/>
   </g>
   <g id="patch_142">
    <path d="M 125.254844 124.579062 
C 125.254844 124.579062 125.254844 124.579062 125.254844 124.579062 
C 125.254844 124.579062 125.254844 124.579062 125.254844 124.579062 
L 125.254844 124.579062 
C 125.254844 124.579062 125.254844 124.579062 125.254844 124.579062 
C 125.254844 124.579062 125.254844 124.579062 125.254844 124.579062 
L 125.254844 124.579062 
z
" clip-path="url(#pdaaf38f6fa)" style="fill: none; stroke: #292929; stroke-width: 0.5; stroke-linejoin: miter"/>
   </g>
   <g id="patch_143">
    <path d="M 125.254844 124.579062 
C 125.254844 124.579062 125.254844 124.579062 125.254844 124.579062 
C 125.254844 124.579062 125.254844 124.579062 125.254844 124.579062 
L 125.254844 124.579062 
C 125.254844 124.579062 125.254844 124.579062 125.254844 124.579062 
C 125.254844 124.579062 125.254844 124.579062 125.254844 124.579062 
L 125.254844 124.579062 
z
" clip-path="url(#pdaaf38f6fa)" style="fill: none; stroke: #292929; stroke-width: 0.5; stroke-linejoin: miter"/>
   </g>
   <g id="patch_144">
    <path d="M 125.254844 124.579062 
C 125.254844 124.579062 125.254844 124.579062 125.254844 124.579062 
C 125.254844 124.579062 125.254844 124.579062 125.254844 124.579062 
L 125.254844 124.579062 
C 125.254844 124.579062 125.254844 124.579062 125.254844 124.579062 
C 125.254844 124.579062 125.254844 124.579062 125.254844 124.579062 
L 125.254844 124.579062 
z
" clip-path="url(#pdaaf38f6fa)" style="fill: none; stroke: #292929; stroke-width: 0.5; stroke-linejoin: miter"/>
   </g>
   <g id="patch_145">
    <path d="M 125.254844 124.579062 
C 125.254844 124.579062 125.254844 124.579062 125.254844 124.579062 
C 125.254844 124.579062 125.254844 124.579062 125.254844 124.579062 
L 129.673585 139.145699 
C 130.150372 139.001067 130.619772 138.833113 131.080087 138.642444 
C 131.540403 138.451775 131.991079 138.238621 132.43049 138.003752 
L 125.254844 124.579062 
z
" clip-path="url(#pdaaf38f6fa)" style="fill: none; stroke: #292929; stroke-width: 0.5; stroke-linejoin: miter"/>
   </g>
   <g id="patch_146">
    <path d="M 125.254844 124.579062 
C 125.254844 124.579062 125.254844 124.579062 125.254844 124.579062 
C 125.254844 124.579062 125.254844 124.579062 125.254844 124.579062 
L 127.600026 148.390099 
C 128.379397 148.313337 129.154529 148.198357 129.922623 148.045574 
C 130.690717 147.89279 131.450847 147.702388 132.200267 147.475054 
L 125.254844 124.579062 
z
" clip-path="url(#pdaaf38f6fa)" style="fill: none; stroke: #292929; stroke-width: 0.5; stroke-linejoin: miter"/>
   </g>
   <g id="patch_147">
    <path d="M 125.254844 124.579062 
C 125.254844 124.579062 125.254844 124.579062 125.254844 124.579062 
C 125.254844 124.579062 125.254844 124.579062 125.254844 124.579062 
L 125.254844 124.579062 
C 125.254844 124.579062 125.254844 124.579062 125.254844 124.579062 
C 125.254844 124.579062 125.254844 124.579062 125.254844 124.579062 
L 125.254844 124.579062 
z
" clip-path="url(#pdaaf38f6fa)" style="fill: none; stroke: #292929; stroke-width: 0.5; stroke-linejoin: miter"/>
   </g>
   <g id="patch_148">
    <path d="M 125.254844 124.579062 
C 125.254844 124.579062 125.254844 124.579062 125.254844 124.579062 
C 125.254844 124.579062 125.254844 124.579062 125.254844 124.579062 
L 125.254844 124.579062 
C 125.254844 124.579062 125.254844 124.579062 125.254844 124.579062 
C 125.254844 124.579062 125.254844 124.579062 125.254844 124.579062 
L 125.254844 124.579062 
z
" clip-path="url(#pdaaf38f6fa)" style="fill: none; stroke: #292929; stroke-width: 0.5; stroke-linejoin: miter"/>
   </g>
   <g id="patch_149">
    <path d="M 125.254844 124.579062 
C 125.254844 124.579062 125.254844 124.579062 125.254844 124.579062 
C 125.254844 124.579062 125.254844 124.579062 125.254844 124.579062 
L 125.254844 124.579062 
C 125.254844 124.579062 125.254844 124.579062 125.254844 124.579062 
C 125.254844 124.579062 125.254844 124.579062 125.254844 124.579062 
L 125.254844 124.579062 
z
" clip-path="url(#pdaaf38f6fa)" style="fill: none; stroke: #292929; stroke-width: 0.5; stroke-linejoin: miter"/>
   </g>
   <g id="patch_150">
    <path d="M 125.254844 124.579062 
C 125.254844 124.579062 125.254844 124.579062 125.254844 124.579062 
C 125.254844 124.579062 125.254844 124.579062 125.254844 124.579062 
L 125.254844 124.579062 
C 125.254844 124.579062 125.254844 124.579062 125.254844 124.579062 
C 125.254844 124.579062 125.254844 124.579062 125.254844 124.579062 
L 125.254844 124.579062 
z
" clip-path="url(#pdaaf38f6fa)" style="fill: none; stroke: #292929; stroke-width: 0.5; stroke-linejoin: miter"/>
   </g>
   <g id="patch_151">
    <path d="M 125.254844 124.579062 
C 125.254844 124.579062 125.254844 124.579062 125.254844 124.579062 
C 125.254844 124.579062 125.254844 124.579062 125.254844 124.579062 
L 125.254844 124.579062 
C 125.254844 124.579062 125.254844 124.579062 125.254844 124.579062 
C 125.254844 124.579062 125.254844 124.579062 125.254844 124.579062 
L 125.254844 124.579062 
z
" clip-path="url(#pdaaf38f6fa)" style="fill: none; stroke: #292929; stroke-width: 0.5; stroke-linejoin: miter"/>
   </g>
   <g id="patch_152">
    <path d="M 125.254844 124.579062 
C 125.254844 124.579062 125.254844 124.579062 125.254844 124.579062 
C 125.254844 124.579062 125.254844 124.579062 125.254844 124.579062 
L 125.254844 124.579062 
C 125.254844 124.579062 125.254844 124.579062 125.254844 124.579062 
C 125.254844 124.579062 125.254844 124.579062 125.254844 124.579062 
L 125.254844 124.579062 
z
" clip-path="url(#pdaaf38f6fa)" style="fill: none; stroke: #292929; stroke-width: 0.5; stroke-linejoin: miter"/>
   </g>
   <g id="patch_153">
    <path d="M 125.254844 124.579062 
C 125.254844 124.579062 125.254844 124.579062 125.254844 124.579062 
C 125.254844 124.579062 125.254844 124.579062 125.254844 124.579062 
L 125.254844 124.579062 
C 125.254844 124.579062 125.254844 124.579062 125.254844 124.579062 
C 125.254844 124.579062 125.254844 124.579062 125.254844 124.579062 
L 125.254844 124.579062 
z
" clip-path="url(#pdaaf38f6fa)" style="fill: none; stroke: #292929; stroke-width: 0.5; stroke-linejoin: miter"/>
   </g>
   <g id="patch_154">
    <path d="M 125.254844 124.579062 
C 125.254844 124.579062 125.254844 124.579062 125.254844 124.579062 
C 125.254844 124.579062 125.254844 124.579062 125.254844 124.579062 
L 91.182431 127.934902 
C 91.292272 129.050143 91.456803 130.159319 91.675428 131.258424 
C 91.894054 132.357528 92.166511 133.445236 92.491814 134.517619 
L 125.254844 124.579062 
z
" clip-path="url(#pdaaf38f6fa)" style="fill: none; stroke: #292929; stroke-width: 0.5; stroke-linejoin: miter"/>
   </g>
   <g id="patch_155">
    <path d="M 125.254844 124.579062 
C 125.254844 124.579062 125.254844 124.579062 125.254844 124.579062 
C 125.254844 124.579062 125.254844 124.579062 125.254844 124.579062 
L 82.723799 120.39012 
C 82.586689 121.782225 82.518009 123.180222 82.518009 124.579062 
C 82.518009 125.977903 82.586689 127.3759 82.723799 128.768005 
L 125.254844 124.579062 
z
" clip-path="url(#pdaaf38f6fa)" style="fill: none; stroke: #292929; stroke-width: 0.5; stroke-linejoin: miter"/>
   </g>
   <g id="patch_156">
    <path d="M 125.254844 124.579062 
C 125.254844 124.579062 125.254844 124.579062 125.254844 124.579062 
C 125.254844 124.579062 125.254844 124.579062 125.254844 124.579062 
L 88.369991 113.390165 
C 88.003761 114.597461 87.697028 115.82201 87.450898 117.05939 
C 87.204767 118.29677 87.019538 119.545488 86.895877 120.801034 
L 125.254844 124.579062 
z
" clip-path="url(#pdaaf38f6fa)" style="fill: none; stroke: #292929; stroke-width: 0.5; stroke-linejoin: miter"/>
   </g>
   <g id="patch_157">
    <path d="M 125.254844 124.579062 
C 125.254844 124.579062 125.254844 124.579062 125.254844 124.579062 
C 125.254844 124.579062 125.254844 124.579062 125.254844 124.579062 
L 125.254844 124.579062 
C 125.254844 124.579062 125.254844 124.579062 125.254844 124.579062 
C 125.254844 124.579062 125.254844 124.579062 125.254844 124.579062 
L 125.254844 124.579062 
z
" clip-path="url(#pdaaf38f6fa)" style="fill: none; stroke: #292929; stroke-width: 0.5; stroke-linejoin: miter"/>
   </g>
   <g id="patch_158">
    <path d="M 125.254844 124.579062 
C 125.254844 124.579062 125.254844 124.579062 125.254844 124.579062 
C 125.254844 124.579062 125.254844 124.579062 125.254844 124.579062 
L 95.187378 99.903331 
C 94.379705 100.887484 93.620837 101.910699 92.913517 102.969279 
C 92.206196 104.027859 91.551276 105.120528 90.95112 106.24334 
L 125.254844 124.579062 
z
" clip-path="url(#pdaaf38f6fa)" style="fill: none; stroke: #292929; stroke-width: 0.5; stroke-linejoin: miter"/>
   </g>
   <g id="patch_159">
    <path d="M 125.254844 124.579062 
C 125.254844 124.579062 125.254844 124.579062 125.254844 124.579062 
C 125.254844 124.579062 125.254844 124.579062 125.254844 124.579062 
L 79.061082 68.291801 
C 77.218716 69.803792 75.451695 71.405327 73.766401 73.09062 
C 72.081108 74.775914 70.479573 76.542935 68.967582 78.385301 
L 125.254844 124.579062 
z
" clip-path="url(#pdaaf38f6fa)" style="fill: none; stroke: #292929; stroke-width: 0.5; stroke-linejoin: miter"/>
   </g>
   <g id="patch_160">
    <path d="M 125.254844 124.579062 
C 125.254844 124.579062 125.254844 124.579062 125.254844 124.579062 
C 125.254844 124.579062 125.254844 124.579062 125.254844 124.579062 
L 84.181115 47.735521 
C 81.665911 49.079926 79.21823 50.547009 76.846912 52.131473 
C 74.475595 53.715937 72.183499 55.415871 69.978904 57.225135 
L 125.254844 124.579062 
z
" clip-path="url(#pdaaf38f6fa)" style="fill: none; stroke: #292929; stroke-width: 0.5; stroke-linejoin: miter"/>
   </g>
   <g id="patch_161">
    <path d="M 125.254844 124.579062 
C 125.254844 124.579062 125.254844 124.579062 125.254844 124.579062 
C 125.254844 124.579062 125.254844 124.579062 125.254844 124.579062 
L 104.529112 56.255481 
C 102.292779 56.933865 100.091101 57.721638 97.93203 58.615954 
C 95.772959 59.510271 93.659097 60.510053 91.598081 61.611689 
L 125.254844 124.579062 
z
" clip-path="url(#pdaaf38f6fa)" style="fill: none; stroke: #292929; stroke-width: 0.5; stroke-linejoin: miter"/>
   </g>
   <g id="patch_162">
    <path d="M 125.254844 124.579062 
C 125.254844 124.579062 125.254844 124.579062 125.254844 124.579062 
C 125.254844 124.579062 125.254844 124.579062 125.254844 124.579062 
L 114.386703 14.232978 
C 110.774911 14.588708 107.182761 15.121553 103.623228 15.829588 
C 100.063696 16.537623 96.541071 17.419995 93.068078 18.473516 
L 125.254844 124.579062 
z
" clip-path="url(#pdaaf38f6fa)" style="fill: none; stroke: #292929; stroke-width: 0.5; stroke-linejoin: miter"/>
   </g>
   <g id="PathCollection_1">
    <defs>
     <path id="me2173d8739" d="M 0.193618 7.414054 
L 0.193618 7.414054 
C 0.054922 7.414054 -0.078235 7.358899 -0.176308 7.260826 
C -0.274381 7.162753 -0.329536 7.029596 -0.329536 6.890901 
L -0.329536 5.365008 
L -1.528416 6.56393 
L -1.528416 6.56393 
C -1.577018 6.612704 -1.634775 6.651408 -1.698366 6.677814 
C -1.761958 6.704221 -1.830141 6.717815 -1.898997 6.717815 
C -1.967853 6.717815 -2.036037 6.704221 -2.099628 6.677814 
C -2.163219 6.651408 -2.220976 6.612704 -2.269578 6.56393 
L -2.269578 6.56393 
C -2.318353 6.515327 -2.357056 6.457571 -2.383463 6.393979 
C -2.409869 6.330388 -2.423463 6.262205 -2.423463 6.193348 
C -2.423463 6.124492 -2.409869 6.056309 -2.383463 5.992718 
C -2.357056 5.929126 -2.318353 5.87137 -2.269578 5.822767 
L -0.329536 3.884106 
L -0.329536 0.820937 
L -2.98067 2.351538 
L -3.691824 5.001416 
L -3.691824 5.001416 
C -3.727584 5.135411 -3.815199 5.249836 -3.93523 5.319305 
C -4.055261 5.388775 -4.198123 5.407741 -4.332122 5.371997 
L -4.332122 5.371997 
C -4.466126 5.336237 -4.580558 5.248616 -4.650029 5.128576 
C -4.719499 5.008535 -4.73846 4.865662 -4.702703 4.731657 
L -4.262647 3.092721 
L -5.585535 3.855668 
L -5.585535 3.855668 
C -5.645013 3.890144 -5.710708 3.912561 -5.778854 3.921634 
C -5.847001 3.930706 -5.916272 3.926258 -5.982698 3.908543 
C -6.049125 3.890828 -6.111412 3.860192 -6.165991 3.818391 
C -6.220571 3.77659 -6.266379 3.724437 -6.300791 3.664922 
L -6.300791 3.664922 
C -6.335212 3.605364 -6.35755 3.539597 -6.366524 3.471396 
C -6.375498 3.403194 -6.370933 3.333888 -6.35309 3.267452 
C -6.335248 3.201017 -6.304476 3.138749 -6.26254 3.08422 
C -6.220605 3.029692 -6.168323 2.983966 -6.108695 2.949666 
L -4.785807 2.186762 
L -6.424743 1.746706 
L -6.424743 1.746706 
C -6.558747 1.710946 -6.673179 1.623325 -6.74265 1.503284 
C -6.81212 1.383244 -6.831081 1.240371 -6.795324 1.106366 
L -6.795324 1.106366 
C -6.777471 1.039969 -6.746703 0.977739 -6.704784 0.923241 
C -6.662864 0.868744 -6.61061 0.823041 -6.551015 0.788752 
C -6.491421 0.754464 -6.425647 0.732257 -6.357465 0.723406 
C -6.289282 0.714554 -6.220019 0.71923 -6.153645 0.737166 
L -3.505232 1.44698 
L -0.852424 -0.08496 
L -3.503767 -1.615666 
L -6.153645 -0.905851 
L -6.153645 -0.905851 
C -6.22011 -0.887939 -6.289462 -0.883321 -6.357716 -0.892262 
C -6.42597 -0.901202 -6.491793 -0.923527 -6.551403 -0.957953 
C -6.611013 -0.992379 -6.663247 -1.038234 -6.705103 -1.092883 
C -6.746958 -1.147533 -6.777619 -1.209911 -6.795324 -1.276432 
L -6.795324 -1.276432 
C -6.831068 -1.410431 -6.812101 -1.553293 -6.742632 -1.673324 
C -6.673162 -1.793355 -6.558738 -1.88097 -6.424743 -1.91673 
L -4.785807 -2.355447 
L -6.108695 -3.119732 
L -6.108695 -3.119732 
C -6.228699 -3.188976 -6.316415 -3.303132 -6.352417 -3.436921 
C -6.388419 -3.57071 -6.369839 -3.713469 -6.300791 -3.833586 
L -6.300791 -3.833586 
C -6.266491 -3.893214 -6.220765 -3.945496 -6.166237 -3.987431 
C -6.111708 -4.029367 -6.04944 -4.060139 -5.983005 -4.077981 
C -5.91657 -4.095823 -5.847263 -4.100389 -5.779062 -4.091415 
C -5.71086 -4.082441 -5.645094 -4.060102 -5.585535 -4.025682 
L -4.262647 -3.261396 
L -4.702703 -4.900332 
L -4.702703 -4.900332 
C -4.73846 -5.034337 -4.719499 -5.17721 -4.650029 -5.29725 
C -4.580558 -5.417291 -4.466126 -5.504912 -4.332122 -5.540672 
L -4.332122 -5.540672 
C -4.19831 -5.576464 -4.055613 -5.557686 -3.935617 -5.488496 
C -3.81562 -5.419305 -3.727882 -5.305212 -3.691824 -5.171472 
L -2.982009 -2.521594 
L -0.329411 -0.990302 
L -0.329411 -4.051588 
L -2.269453 -5.991589 
L -2.269453 -5.991589 
C -2.318227 -6.040191 -2.356931 -6.097947 -2.383337 -6.161539 
C -2.409744 -6.22513 -2.423338 -6.293314 -2.423338 -6.36217 
C -2.423338 -6.431026 -2.409744 -6.499209 -2.383337 -6.5628 
C -2.356931 -6.626392 -2.318227 -6.684149 -2.269453 -6.732751 
L -2.269453 -6.732751 
C -2.22085 -6.781526 -2.163094 -6.820229 -2.099502 -6.846635 
C -2.035911 -6.873042 -1.967728 -6.886636 -1.898871 -6.886636 
C -1.830015 -6.886636 -1.761832 -6.873042 -1.698241 -6.846635 
C -1.634649 -6.820229 -1.576893 -6.781526 -1.52829 -6.732751 
L -0.329411 -5.533829 
L -0.329411 -7.059722 
L -0.329411 -7.059722 
C -0.329411 -7.198418 -0.274255 -7.331575 -0.176182 -7.429647 
C -0.07811 -7.52772 0.055047 -7.582875 0.193743 -7.582875 
L 0.193743 -7.582875 
C 0.332439 -7.582875 0.465596 -7.52772 0.563669 -7.429647 
C 0.661741 -7.331575 0.716897 -7.198418 0.716897 -7.059722 
L 0.716897 -5.533829 
L 1.915777 -6.732751 
L 1.915777 -6.732751 
C 1.964379 -6.781526 2.022136 -6.820229 2.085727 -6.846635 
C 2.149318 -6.873042 2.217502 -6.886636 2.286358 -6.886636 
C 2.355214 -6.886636 2.423397 -6.873042 2.486989 -6.846635 
C 2.55058 -6.820229 2.608337 -6.781526 2.656939 -6.732751 
L 2.656939 -6.732751 
C 2.705714 -6.684149 2.744417 -6.626392 2.770823 -6.5628 
C 2.79723 -6.499209 2.810824 -6.431026 2.810824 -6.36217 
C 2.810824 -6.293314 2.79723 -6.22513 2.770823 -6.161539 
C 2.744417 -6.097947 2.705714 -6.040191 2.656939 -5.991589 
L 0.716897 -4.051588 
L 0.716897 -0.991139 
L 3.369495 -2.522954 
L 4.07931 -5.171367 
L 4.07931 -5.171367 
C 4.115368 -5.305107 4.203106 -5.4192 4.323103 -5.488391 
C 4.4431 -5.557582 4.585797 -5.576359 4.719608 -5.540567 
L 4.719608 -5.540567 
C 4.853612 -5.504807 4.968045 -5.417186 5.037515 -5.297146 
C 5.106986 -5.177105 5.125946 -5.034232 5.090189 -4.900227 
L 4.650133 -3.262673 
L 5.973022 -4.025577 
L 5.973022 -4.025577 
C 6.03258 -4.059998 6.098346 -4.082336 6.166548 -4.09131 
C 6.234749 -4.100284 6.304056 -4.095719 6.370491 -4.077876 
C 6.436926 -4.060034 6.499194 -4.029262 6.553723 -3.987327 
C 6.608252 -3.945391 6.653978 -3.893109 6.688277 -3.833481 
L 6.688277 -3.833481 
C 6.757325 -3.713365 6.775905 -3.570605 6.739903 -3.436816 
C 6.703901 -3.303027 6.616186 -3.188871 6.496181 -3.119628 
L 5.173293 -2.355342 
L 6.812229 -1.916625 
L 6.812229 -1.916625 
C 6.946224 -1.880865 7.060649 -1.79325 7.130118 -1.67322 
C 7.199588 -1.553189 7.218554 -1.410326 7.18281 -1.276327 
L 7.18281 -1.276327 
C 7.165106 -1.209806 7.134445 -1.147429 7.092589 -1.092779 
C 7.050733 -1.038129 6.998499 -0.992274 6.938889 -0.957848 
C 6.879279 -0.923422 6.813456 -0.901098 6.745202 -0.892157 
C 6.676949 -0.883217 6.607597 -0.887835 6.541131 -0.905746 
L 3.891253 -1.615561 
L 1.239492 -0.084604 
L 3.892718 1.447085 
L 6.541131 0.73727 
L 6.541131 0.73727 
C 6.674948 0.701466 6.817656 0.720237 6.937662 0.789429 
C 7.057669 0.858621 7.145413 0.972721 7.181471 1.10647 
L 7.181471 1.10647 
C 7.217274 1.240293 7.198497 1.383006 7.129297 1.503014 
C 7.060096 1.623021 6.945986 1.710762 6.812229 1.74681 
L 5.173293 2.186866 
L 6.496181 2.949771 
L 6.496181 2.949771 
C 6.555697 2.984183 6.607849 3.029991 6.649651 3.08457 
C 6.691452 3.13915 6.722088 3.201437 6.739803 3.267863 
C 6.757517 3.33429 6.761966 3.403561 6.752893 3.471707 
C 6.743821 3.539854 6.721404 3.605549 6.686927 3.665026 
L 6.686927 3.665026 
C 6.617458 3.784813 6.503196 3.87225 6.369416 3.907994 
C 6.235636 3.943739 6.092989 3.924946 5.973032 3.855772 
L 4.650144 3.091487 
L 5.08886 4.731783 
L 5.08886 4.731783 
C 5.124664 4.865606 5.105887 5.008319 5.036686 5.128326 
C 4.967486 5.248334 4.853376 5.336074 4.719619 5.372123 
L 4.719619 5.372123 
C 4.585619 5.407867 4.442757 5.3889 4.322726 5.319431 
C 4.202695 5.249961 4.115081 5.135537 4.07932 5.001542 
L 3.368166 2.351664 
L 0.717033 0.821063 
L 0.717033 3.884232 
L 2.657075 5.822893 
L 2.657075 5.822893 
C 2.70585 5.871495 2.744553 5.929252 2.770959 5.992843 
C 2.797366 6.056435 2.81096 6.124618 2.81096 6.193474 
C 2.81096 6.26233 2.797366 6.330514 2.770959 6.394105 
C 2.744553 6.457696 2.70585 6.515453 2.657075 6.564055 
L 2.657075 6.564055 
C 2.608473 6.61283 2.550716 6.651533 2.487125 6.67794 
C 2.423533 6.704346 2.35535 6.71794 2.286494 6.71794 
C 2.217638 6.71794 2.149454 6.704346 2.085863 6.67794 
C 2.022272 6.651533 1.964515 6.61283 1.915913 6.564055 
L 0.717033 5.365133 
L 0.717033 6.891026 
L 0.717033 6.891026 
C 0.717033 7.029722 0.661877 7.162879 0.563805 7.260952 
C 0.465732 7.359024 0.332575 7.41418 0.193879 7.41418 
L 0.193618 7.414054 
z
"/>
    </defs>
    <g clip-path="url(#pdaaf38f6fa)">
     <use xlink:href="#me2173d8739" x="130.238675" y="52.119199" style="fill: #9e2096; fill-opacity: 0.7"/>
    </g>
   </g>
   <g id="patch_163">
    <path d="M 125.254844 13.699062 
C 110.694216 13.699062 96.275171 16.567189 82.822905 22.1393 
C 69.370638 27.711411 57.146763 35.879144 46.850844 46.175063 
C 36.554925 56.470982 28.387192 68.694857 22.815081 82.147124 
C 17.24297 95.59939 14.374844 110.018434 14.374844 124.579062 
C 14.374844 139.139691 17.24297 153.558735 22.815081 167.011001 
C 28.387192 180.463268 36.554925 192.687143 46.850844 202.983062 
C 57.146763 213.278981 69.370638 221.446714 82.822905 227.018825 
C 96.275171 232.590936 110.694216 235.459062 125.254844 235.459062 
C 139.815472 235.459062 154.234516 232.590936 167.686783 227.018825 
C 181.139049 221.446714 193.362925 213.278981 203.658844 202.983062 
C 213.954763 192.687143 222.122495 180.463268 227.694606 167.011001 
C 233.266717 153.558735 236.134844 139.139691 236.134844 124.579062 
C 236.134844 110.018434 233.266717 95.59939 227.694606 82.147124 
C 222.122495 68.694857 213.954763 56.470982 203.658844 46.175063 
C 193.362925 35.879144 181.139049 27.711411 167.686783 22.1393 
C 154.234516 16.567189 139.815472 13.699062 125.254844 13.699062 
" style="fill: none; stroke: #000000; stroke-width: 0.8; stroke-linejoin: miter; stroke-linecap: square"/>
   </g>
  </g>
 </g>
 <defs>
  <clipPath id="pdaaf38f6fa">
   <path d="M 236.134844 124.579062 
C 236.134844 110.018434 233.266717 95.59939 227.694606 82.147124 
C 222.122495 68.694857 213.954763 56.470982 203.658844 46.175063 
C 193.362925 35.879144 181.139049 27.711411 167.686783 22.1393 
C 154.234516 16.567189 139.815472 13.699062 125.254844 13.699062 
C 110.694216 13.699062 96.275171 16.567189 82.822905 22.1393 
C 69.370638 27.711411 57.146763 35.879144 46.850844 46.175063 
C 36.554925 56.470982 28.387192 68.694857 22.815081 82.147124 
C 17.24297 95.59939 14.374844 110.018434 14.374844 124.579062 
C 14.374844 139.139691 17.24297 153.558735 22.815081 167.011001 
C 28.387192 180.463268 36.554925 192.687143 46.850844 202.983062 
C 57.146763 213.278981 69.370638 221.446714 82.822905 227.018825 
C 96.275171 232.590936 110.694216 235.459062 125.254844 235.459062 
C 139.815472 235.459062 154.234516 232.590936 167.686783 227.018825 
C 181.139049 221.446714 193.362925 213.278981 203.658844 202.983062 
C 213.954763 192.687143 222.122495 180.463268 227.694606 167.011001 
C 233.266717 153.558735 236.134844 139.139691 236.134844 124.579062 
M 125.254844 124.579062 
C 125.254844 124.579062 125.254844 124.579062 125.254844 124.579062 
C 125.254844 124.579062 125.254844 124.579062 125.254844 124.579062 
C 125.254844 124.579062 125.254844 124.579062 125.254844 124.579062 
C 125.254844 124.579062 125.254844 124.579062 125.254844 124.579062 
C 125.254844 124.579062 125.254844 124.579062 125.254844 124.579062 
C 125.254844 124.579062 125.254844 124.579062 125.254844 124.579062 
C 125.254844 124.579062 125.254844 124.579062 125.254844 124.579062 
C 125.254844 124.579062 125.254844 124.579062 125.254844 124.579062 
C 125.254844 124.579062 125.254844 124.579062 125.254844 124.579062 
C 125.254844 124.579062 125.254844 124.579062 125.254844 124.579062 
C 125.254844 124.579062 125.254844 124.579062 125.254844 124.579062 
C 125.254844 124.579062 125.254844 124.579062 125.254844 124.579062 
C 125.254844 124.579062 125.254844 124.579062 125.254844 124.579062 
C 125.254844 124.579062 125.254844 124.579062 125.254844 124.579062 
C 125.254844 124.579062 125.254844 124.579062 125.254844 124.579062 
C 125.254844 124.579062 125.254844 124.579062 125.254844 124.579062 
z
"/>
  </clipPath>
 </defs>
</svg>
