<?xml version="1.0" encoding="utf-8" standalone="no"?>
<!DOCTYPE svg PUBLIC "-//W3C//DTD SVG 1.1//EN"
  "http://www.w3.org/Graphics/SVG/1.1/DTD/svg11.dtd">
<svg xmlns:xlink="http://www.w3.org/1999/xlink" width="248.410469pt" height="249.158125pt" viewBox="0 0 248.410469 249.158125" xmlns="http://www.w3.org/2000/svg" version="1.1">
 <title>Ski Rose for Savognin</title>
 <metadata>
  <rdf:RDF xmlns:dc="http://purl.org/dc/elements/1.1/" xmlns:cc="http://creativecommons.org/ns#" xmlns:rdf="http://www.w3.org/1999/02/22-rdf-syntax-ns#">
   <cc:Work>
    <dc:type rdf:resource="http://purl.org/dc/dcmitype/StillImage"/>
    <dc:title>Ski Rose for Savognin</dc:title>
    <dc:date>2025-02-24T20:34:47.412273</dc:date>
    <dc:description>A 32-bin stacked histogram of downhill ski run orientations colored by difficulty.</dc:description>
    <dc:format>image/svg+xml</dc:format>
    <dc:source>https://openskimap.org/?obj=2cbe407409b5340a8a35266314043918b4f7526f</dc:source>
    <dc:creator>
     <cc:Agent>
      <dc:title>https://github.com/dhimmel/openskistats</dc:title>
     </cc:Agent>
    </dc:creator>
    <dc:rights>
     <cc:Agent>
      <dc:title>https://creativecommons.org/licenses/by/4.0/</dc:title>
     </cc:Agent>
    </dc:rights>
   </cc:Work>
  </rdf:RDF>
 </metadata>
 <defs>
  <style type="text/css">*{stroke-linejoin: round; stroke-linecap: butt}</style>
 </defs>
 <g id="figure_1">
  <g id="patch_1">
   <path d="M 0 249.158125 
L 248.410469 249.158125 
L 248.410469 0 
L 0 0 
z
" style="fill: #ffffff"/>
  </g>
  <g id="axes_1">
   <g id="patch_2">
    <path d="M 236.134844 124.579063 
C 236.134844 110.018434 233.266717 95.59939 227.694606 82.147124 
C 222.122495 68.694857 213.954763 56.470982 203.658844 46.175063 
C 193.362925 35.879144 181.139049 27.711411 167.686783 22.1393 
C 154.234516 16.567189 139.815472 13.699062 125.254844 13.699062 
C 110.694216 13.699062 96.275171 16.567189 82.822905 22.1393 
C 69.370638 27.711411 57.146763 35.879144 46.850844 46.175063 
C 36.554925 56.470982 28.387192 68.694857 22.815081 82.147124 
C 17.24297 95.59939 14.374844 110.018434 14.374844 124.579062 
C 14.374844 139.139691 17.24297 153.558735 22.815081 167.011001 
C 28.387192 180.463268 36.554925 192.687143 46.850844 202.983062 
C 57.146763 213.278981 69.370638 221.446714 82.822905 227.018825 
C 96.275171 232.590936 110.694216 235.459063 125.254844 235.459063 
C 139.815472 235.459063 154.234516 232.590936 167.686783 227.018825 
C 181.139049 221.446714 193.362925 213.278981 203.658844 202.983062 
C 213.954763 192.687143 222.122495 180.463268 227.694606 167.011001 
C 233.266717 153.558735 236.134844 139.139691 236.134844 124.579063 
M 125.254844 124.579063 
C 125.254844 124.579063 125.254844 124.579063 125.254844 124.579063 
C 125.254844 124.579063 125.254844 124.579063 125.254844 124.579063 
C 125.254844 124.579063 125.254844 124.579063 125.254844 124.579063 
C 125.254844 124.579063 125.254844 124.579063 125.254844 124.579063 
C 125.254844 124.579063 125.254844 124.579063 125.254844 124.579063 
C 125.254844 124.579063 125.254844 124.579063 125.254844 124.579063 
C 125.254844 124.579063 125.254844 124.579063 125.254844 124.579063 
C 125.254844 124.579063 125.254844 124.579063 125.254844 124.579063 
C 125.254844 124.579063 125.254844 124.579063 125.254844 124.579063 
C 125.254844 124.579063 125.254844 124.579063 125.254844 124.579063 
C 125.254844 124.579063 125.254844 124.579063 125.254844 124.579063 
C 125.254844 124.579063 125.254844 124.579063 125.254844 124.579063 
C 125.254844 124.579063 125.254844 124.579063 125.254844 124.579063 
C 125.254844 124.579063 125.254844 124.579063 125.254844 124.579063 
C 125.254844 124.579063 125.254844 124.579063 125.254844 124.579063 
C 125.254844 124.579063 125.254844 124.579063 125.254844 124.579063 
z
" style="fill: #ffffff"/>
   </g>
   <g id="PolyCollection_1">
    <defs>
     <path id="md00eec1550" d="M 235.265153 -137.113154 
L 234.901993 -137.071777 
L 233.973898 -135.047517 
L 232.962213 -133.055816 
L 232.087593 -131.113233 
L 230.958955 -129.194204 
L 229.990861 -127.321672 
L 228.775523 -125.482474 
L 227.731745 -123.68476 
L 226.444994 -121.929305 
L 225.335976 -120.209426 
L 223.987824 -118.540295 
L 222.821368 -116.900411 
L 221.628526 -115.299332 
L 220.202674 -113.761124 
L 218.962155 -112.242261 
L 217.699664 -110.763092 
L 216.211289 -109.358174 
L 214.910141 -107.962435 
L 213.591235 -106.606821 
L 212.255913 -105.29139 
L 210.705863 -104.064088 
L 209.343398 -102.832284 
L 207.968619 -101.640502 
L 206.582837 -100.488613 
L 205.187355 -99.376438 
L 203.783472 -98.303751 
L 202.560094 -97.203838 
L 201.140834 -96.206453 
L 199.716886 -95.247684 
L 198.289507 -94.327114 
L 197.037457 -93.367094 
L 195.604059 -92.519078 
L 194.342779 -91.625808 
L 192.907782 -90.848552 
L 191.641238 -90.020493 
L 190.208941 -89.311865 
L 188.940983 -88.547179 
L 187.672168 -87.812449 
L 186.249878 -87.201257 
L 184.985074 -86.526709 
L 183.721921 -85.880548 
L 182.46119 -85.26223 
L 181.203635 -84.671178 
L 179.949984 -84.106788 
L 178.700944 -83.568427 
L 177.457199 -83.055435 
L 176.219405 -82.56712 
L 175.110029 -81.998712 
L 173.882214 -81.5572 
L 172.662115 -81.138302 
L 171.561141 -80.636028 
L 170.354194 -80.260054 
L 169.156484 -79.904429 
L 168.06809 -79.463315 
L 166.886218 -79.146389 
L 165.80706 -78.74312 
L 164.731321 -78.358047 
L 163.573941 -78.094281 
L 162.50938 -77.743691 
L 161.371115 -77.511422 
L 160.318771 -77.192884 
L 159.271167 -76.889936 
L 158.228503 -76.60209 
L 157.190958 -76.328857 
L 156.097976 -76.165042 
L 155.074365 -75.918027 
L 154.056232 -75.684009 
L 153.043661 -75.462495 
L 152.036714 -75.252993 
L 151.035431 -75.055014 
L 150.039828 -74.868075 
L 149.049898 -74.691694 
L 148.065613 -74.525398 
L 147.086921 -74.368723 
L 146.113749 -74.22121 
L 145.174135 -74.010997 
L 144.209183 -73.883379 
L 143.249498 -73.763728 
L 142.294925 -73.651628 
L 141.345292 -73.54668 
L 140.400406 -73.4485 
L 139.474946 -73.303029 
L 138.537 -73.220777 
L 137.603231 -73.144329 
L 136.673381 -73.07337 
L 135.747176 -73.007602 
L 134.831154 -72.909918 
L 133.910054 -72.857563 
L 132.991826 -72.809702 
L 132.079638 -72.739604 
L 131.16525 -72.704094 
L 130.252872 -72.672558 
L 129.342155 -72.644853 
L 128.433464 -72.60908 
L 127.524613 -72.592798 
L 126.616485 -72.58009 
L 125.708719 -72.570059 
L 124.800975 -72.570911 
L 123.893229 -72.581086 
L 122.985161 -72.594789 
L 122.077106 -72.623512 
L 121.167819 -72.648493 
L 120.257261 -72.677182 
L 119.345076 -72.709696 
L 118.434363 -72.772368 
L 117.518938 -72.81691 
L 116.600999 -72.865724 
L 115.686988 -72.955533 
L 114.764488 -73.017316 
L 113.838664 -73.084004 
L 112.909228 -73.15587 
L 111.988809 -73.283113 
L 111.053236 -73.369719 
L 110.113386 -73.462359 
L 109.169031 -73.561383 
L 108.219958 -73.667157 
L 107.265975 -73.780064 
L 106.332413 -73.968723 
L 105.370615 -74.100008 
L 104.403536 -74.239552 
L 103.431057 -74.387789 
L 102.453083 -74.545166 
L 101.469541 -74.712139 
L 100.480379 -74.889174 
L 99.485567 -75.076742 
L 98.485098 -75.275324 
L 97.478987 -75.485402 
L 96.467274 -75.707467 
L 95.450019 -75.942009 
L 94.427306 -76.18952 
L 93.399241 -76.450496 
L 92.365953 -76.72543 
L 91.257093 -76.915974 
L 90.210464 -77.219302 
L 89.159112 -77.538189 
L 88.103258 -77.873119 
L 86.958501 -78.121883 
L 85.890964 -78.489881 
L 84.727666 -78.771422 
L 83.64958 -79.174884 
L 82.568419 -79.596957 
L 81.381694 -79.933421 
L 80.185297 -80.289342 
L 79.090334 -80.770579 
L 77.879846 -81.167875 
L 76.778942 -81.691208 
L 75.556289 -82.132487 
L 74.326466 -82.596948 
L 73.090076 -83.085332 
L 71.847748 -83.598356 
L 70.600139 -84.136709 
L 69.347933 -84.701051 
L 68.091836 -85.292016 
L 66.832577 -85.910207 
L 65.570907 -86.556201 
L 64.307598 -87.230542 
L 63.043442 -87.933746 
L 61.779247 -88.666298 
L 60.353351 -89.340427 
L 59.088639 -90.135117 
L 57.8265 -90.96053 
L 56.396428 -91.735283 
L 55.139394 -92.625611 
L 53.710744 -93.470803 
L 52.283071 -94.353165 
L 51.039964 -95.345044 
L 49.620484 -96.300534 
L 48.205594 -97.294492 
L 46.796559 -98.327288 
L 45.394659 -99.399243 
L 44.00118 -100.510631 
L 42.617418 -101.661676 
L 41.244678 -102.852556 
L 39.88427 -104.083401 
L 38.537512 -105.354293 
L 37.205728 -106.665268 
L 35.890251 -108.016314 
L 34.592416 -109.407375 
L 33.107708 -110.807581 
L 31.848282 -112.281855 
L 30.610701 -113.795725 
L 29.188092 -115.328886 
L 27.997891 -116.924774 
L 26.624848 -118.546594 
L 25.488441 -120.223167 
L 24.381474 -121.9376 
L 23.096819 -123.687543 
L 22.054433 -125.479679 
L 20.840168 -127.313257 
L 19.872214 -129.180167 
L 18.742435 -131.093641 
L 17.86502 -133.030825 
L 16.846603 -135.017589 
L 15.906862 -137.037691 
L 15.114569 -137.127962 
L 15.114569 -137.127962 
L 14.962778 -135.198981 
L 14.729125 -133.277625 
L 14.643308 -131.344354 
L 14.590368 -129.410778 
L 14.455933 -127.480434 
L 14.400365 -125.546475 
L 14.513231 -123.612635 
L 14.477824 -121.678264 
L 14.516249 -119.744111 
L 14.655209 -117.814499 
L 14.717759 -115.879605 
L 14.919481 -113.954975 
L 15.151258 -112.034343 
L 15.412778 -110.11808 
L 15.604647 -108.191731 
L 15.927562 -106.28395 
L 16.27995 -104.38176 
L 16.66184 -102.485566 
L 17.073318 -100.595796 
L 17.597712 -98.732872 
L 17.982334 -96.836505 
L 18.486 -94.969442 
L 19.019468 -93.110711 
L 19.582857 -91.260813 
L 20.176305 -89.420275 
L 20.799974 -87.589653 
L 21.454052 -85.769537 
L 22.138765 -83.960559 
L 22.854405 -82.163412 
L 23.601354 -80.378867 
L 24.373437 -78.604757 
L 25.186943 -76.849122 
L 26.034312 -75.10953 
L 26.916196 -73.387203 
L 27.833208 -71.68343 
L 28.753337 -69.981137 
L 29.755414 -68.3256 
L 30.717712 -66.646633 
L 31.757122 -65.014445 
L 32.806028 -63.388526 
L 33.881513 -61.779912 
L 35.171915 -60.323534 
L 36.978621 -59.258094 
L 38.806109 -58.244615 
L 40.653884 -57.28442 
L 42.507259 -56.367217 
L 44.368755 -55.495816 
L 46.170773 -54.611387 
L 48.028455 -53.814115 
L 49.829146 -53.002748 
L 51.627651 -52.225822 
L 53.476488 -51.536877 
L 55.26561 -50.825799 
L 57.04952 -50.146013 
L 58.827461 -49.496565 
L 60.598759 -48.876514 
L 62.362807 -48.284922 
L 64.076053 -47.666782 
L 65.825841 -47.129679 
L 67.566921 -46.618309 
L 69.264876 -46.084022 
L 70.989182 -45.622035 
L 72.669555 -45.131357 
L 74.375938 -44.715179 
L 76.044794 -44.275559 
L 77.703191 -43.852375 
L 79.357754 -43.456231 
L 81.001673 -43.074861 
L 82.641368 -42.719337 
L 84.270382 -42.376948 
L 85.894904 -42.059232 
L 87.508856 -41.753052 
L 89.118169 -41.470401 
L 90.717169 -41.197739 
L 92.295738 -40.907498 
L 93.884003 -40.673937 
L 95.462551 -40.448224 
L 97.024519 -40.207517 
L 98.592788 -40.017826 
L 100.144556 -39.808153 
L 101.698713 -39.638399 
L 103.241014 -39.457899 
L 104.786102 -39.320618 
L 106.319612 -39.167751 
L 107.849473 -39.028932 
L 109.378835 -38.919785 
L 110.901434 -38.806467 
L 112.421076 -38.706316 
L 113.940419 -38.637475 
L 115.454353 -38.561262 
L 116.966137 -38.497549 
L 118.476038 -38.446171 
L 119.984532 -38.410225 
L 121.491369 -38.381316 
L 122.997233 -38.36439 
L 124.502416 -38.359386 
L 126.007277 -38.358761 
L 127.512487 -38.363142 
L 129.0184 -38.379445 
L 130.525308 -38.407734 
L 132.033498 -38.448098 
L 133.5439 -38.493921 
L 135.055814 -38.557054 
L 136.569898 -38.632694 
L 138.086413 -38.72103 
L 139.609301 -38.80021 
L 141.132119 -38.912951 
L 142.65814 -39.03913 
L 144.191777 -39.160077 
L 145.725553 -39.312422 
L 147.263177 -39.479152 
L 148.813665 -39.628699 
L 150.360491 -39.823817 
L 151.920144 -40.007536 
L 153.476741 -40.232704 
L 155.051306 -40.43645 
L 156.630073 -40.662199 
L 158.202974 -40.935361 
L 159.797981 -41.184551 
L 161.397185 -41.457368 
L 163.007246 -41.738976 
L 164.603323 -42.08326 
L 166.223522 -42.408606 
L 167.855007 -42.744911 
L 169.490132 -43.107796 
L 171.136681 -43.48319 
L 172.816059 -43.836142 
L 174.474559 -44.259787 
L 176.144434 -44.698406 
L 177.816671 -45.166804 
L 179.531835 -45.60555 
L 181.223225 -46.114285 
L 182.955831 -46.600653 
L 184.655676 -47.166391 
L 186.404249 -47.703724 
L 188.161099 -48.267673 
L 189.925738 -48.859174 
L 191.697624 -49.479161 
L 193.476149 -50.128572 
L 195.260636 -50.80835 
L 197.050335 -51.51944 
L 198.844395 -52.262812 
L 200.699674 -52.984592 
L 202.500911 -53.796083 
L 204.358293 -54.594243 
L 206.160778 -55.478867 
L 208.023518 -56.349833 
L 209.876366 -57.268064 
L 211.660468 -58.277695 
L 213.492622 -59.286541 
L 215.295495 -60.35369 
L 216.62765 -61.780273 
L 217.702118 -63.389547 
L 218.769352 -65.003751 
L 219.755103 -66.669229 
L 220.791709 -68.303548 
L 221.688142 -70.019727 
L 222.650498 -71.697537 
L 223.563264 -73.402938 
L 224.424491 -75.1349 
L 225.326404 -76.847377 
L 226.108412 -78.617444 
L 226.910402 -80.377968 
L 227.610902 -82.181795 
L 228.36624 -83.962403 
L 229.074177 -85.762604 
L 229.734827 -87.58076 
L 230.317448 -89.425607 
L 230.9768 -91.245058 
L 231.490831 -93.110529 
L 232.077165 -94.954611 
L 232.551894 -96.830158 
L 233.062601 -98.69671 
L 233.438934 -100.595227 
L 233.874434 -102.480157 
L 234.274913 -104.373387 
L 234.516356 -106.294956 
L 234.863979 -108.197868 
L 235.171761 -110.108226 
L 235.260548 -112.045496 
L 235.476835 -113.965892 
L 235.670433 -115.889167 
L 235.826451 -117.816213 
L 235.936966 -119.746577 
L 236.021047 -121.678547 
L 236.069273 -123.612 
L 236.082374 -125.54624 
L 236.054885 -127.480464 
L 235.99982 -129.414293 
L 235.911506 -131.347114 
L 235.79068 -133.278422 
L 235.457968 -135.190416 
L 235.265153 -137.113154 
z
" style="stroke: #ffee9c"/>
    </defs>
    <g clip-path="url(#p4c026e7006)">
     <use xlink:href="#md00eec1550" x="0" y="249.158125" style="fill: #ffee9c; stroke: #ffee9c"/>
    </g>
   </g>
   <g id="matplotlib.axis_1">
    <g id="xtick_1">
     <g id="line2d_1">
      <path d="M 125.254844 124.579062 
L 125.254844 13.699062 
" clip-path="url(#p4c026e7006)" style="fill: none; stroke: #b0b0b0; stroke-width: 0.8; stroke-linecap: square"/>
     </g>
     <g id="text_1">
      <!-- N -->
      <g transform="translate(121.070469 7.958437) scale(0.1 -0.1)">
       <defs>
        <path id="DejaVuSans-Bold-4e" d="M 588 4666 
L 1931 4666 
L 3628 1466 
L 3628 4666 
L 4769 4666 
L 4769 0 
L 3425 0 
L 1728 3200 
L 1728 0 
L 588 0 
L 588 4666 
z
" transform="scale(0.015625)"/>
       </defs>
       <use xlink:href="#DejaVuSans-Bold-4e"/>
      </g>
     </g>
    </g>
    <g id="xtick_2">
     <g id="line2d_2">
      <path d="M 125.254844 124.579062 
L 203.658844 46.175063 
" clip-path="url(#p4c026e7006)" style="fill: none; stroke: #b0b0b0; stroke-width: 0.8; stroke-linecap: square"/>
     </g>
    </g>
    <g id="xtick_3">
     <g id="line2d_3">
      <path d="M 125.254844 124.579062 
L 236.134844 124.579062 
" clip-path="url(#p4c026e7006)" style="fill: none; stroke: #b0b0b0; stroke-width: 0.8; stroke-linecap: square"/>
     </g>
     <g id="text_2">
      <!-- E -->
      <g transform="translate(241.219219 127.338437) scale(0.1 -0.1)">
       <defs>
        <path id="DejaVuSans-Bold-45" d="M 588 4666 
L 3834 4666 
L 3834 3756 
L 1791 3756 
L 1791 2888 
L 3713 2888 
L 3713 1978 
L 1791 1978 
L 1791 909 
L 3903 909 
L 3903 0 
L 588 0 
L 588 4666 
z
" transform="scale(0.015625)"/>
       </defs>
       <use xlink:href="#DejaVuSans-Bold-45"/>
      </g>
     </g>
    </g>
    <g id="xtick_4">
     <g id="line2d_4">
      <path d="M 125.254844 124.579062 
L 203.658844 202.983062 
" clip-path="url(#p4c026e7006)" style="fill: none; stroke: #b0b0b0; stroke-width: 0.8; stroke-linecap: square"/>
     </g>
    </g>
    <g id="xtick_5">
     <g id="line2d_5">
      <path d="M 125.254844 124.579062 
L 125.254844 235.459063 
" clip-path="url(#p4c026e7006)" style="fill: none; stroke: #b0b0b0; stroke-width: 0.8; stroke-linecap: square"/>
     </g>
     <g id="text_3">
      <!-- S -->
      <g transform="translate(121.654063 246.718438) scale(0.1 -0.1)">
       <defs>
        <path id="DejaVuSans-Bold-53" d="M 3834 4519 
L 3834 3531 
Q 3450 3703 3084 3790 
Q 2719 3878 2394 3878 
Q 1963 3878 1756 3759 
Q 1550 3641 1550 3391 
Q 1550 3203 1689 3098 
Q 1828 2994 2194 2919 
L 2706 2816 
Q 3484 2659 3812 2340 
Q 4141 2022 4141 1434 
Q 4141 663 3683 286 
Q 3225 -91 2284 -91 
Q 1841 -91 1394 -6 
Q 947 78 500 244 
L 500 1259 
Q 947 1022 1364 901 
Q 1781 781 2169 781 
Q 2563 781 2772 912 
Q 2981 1044 2981 1288 
Q 2981 1506 2839 1625 
Q 2697 1744 2272 1838 
L 1806 1941 
Q 1106 2091 782 2419 
Q 459 2747 459 3303 
Q 459 4000 909 4375 
Q 1359 4750 2203 4750 
Q 2588 4750 2994 4692 
Q 3400 4634 3834 4519 
z
" transform="scale(0.015625)"/>
       </defs>
       <use xlink:href="#DejaVuSans-Bold-53"/>
      </g>
     </g>
    </g>
    <g id="xtick_6">
     <g id="line2d_6">
      <path d="M 125.254844 124.579062 
L 46.850844 202.983062 
" clip-path="url(#p4c026e7006)" style="fill: none; stroke: #b0b0b0; stroke-width: 0.8; stroke-linecap: square"/>
     </g>
    </g>
    <g id="xtick_7">
     <g id="line2d_7">
      <path d="M 125.254844 124.579062 
L 14.374844 124.579063 
" clip-path="url(#p4c026e7006)" style="fill: none; stroke: #b0b0b0; stroke-width: 0.8; stroke-linecap: square"/>
     </g>
     <g id="text_4">
      <!-- W -->
      <g transform="translate(0.36 127.338438) scale(0.1 -0.1)">
       <defs>
        <path id="DejaVuSans-Bold-57" d="M 191 4666 
L 1344 4666 
L 2150 1275 
L 2950 4666 
L 4109 4666 
L 4909 1275 
L 5716 4666 
L 6859 4666 
L 5759 0 
L 4372 0 
L 3525 3547 
L 2688 0 
L 1300 0 
L 191 4666 
z
" transform="scale(0.015625)"/>
       </defs>
       <use xlink:href="#DejaVuSans-Bold-57"/>
      </g>
     </g>
    </g>
    <g id="xtick_8">
     <g id="line2d_8">
      <path d="M 125.254844 124.579062 
L 46.850844 46.175063 
" clip-path="url(#p4c026e7006)" style="fill: none; stroke: #b0b0b0; stroke-width: 0.8; stroke-linecap: square"/>
     </g>
    </g>
   </g>
   <g id="matplotlib.axis_2"/>
   <g id="patch_3">
    <path d="M 125.254844 124.579062 
C 125.254844 124.579062 125.254844 124.579062 125.254844 124.579062 
C 125.254844 124.579062 125.254844 124.579062 125.254844 124.579062 
L 126.082721 116.173487 
C 125.807594 116.146389 125.531302 116.132816 125.254844 116.132816 
C 124.978385 116.132816 124.702094 116.146389 124.426967 116.173487 
z
" clip-path="url(#p4c026e7006)" style="fill: #d9d9d9"/>
   </g>
   <g id="patch_4">
    <path d="M 125.254844 124.579062 
C 125.254844 124.579062 125.254844 124.579062 125.254844 124.579062 
C 125.254844 124.579062 125.254844 124.579062 125.254844 124.579062 
L 129.386048 110.960306 
C 128.940286 110.825086 128.488154 110.711832 128.031284 110.620955 
C 127.574414 110.530078 127.113358 110.461687 126.649781 110.416029 
z
" clip-path="url(#p4c026e7006)" style="fill: #d9d9d9"/>
   </g>
   <g id="patch_5">
    <path d="M 125.254844 124.579062 
C 125.254844 124.579062 125.254844 124.579062 125.254844 124.579062 
C 125.254844 124.579062 125.254844 124.579062 125.254844 124.579062 
L 129.812516 116.052257 
C 129.533421 115.903078 129.24717 115.767691 128.954797 115.646586 
C 128.662423 115.525481 128.36428 115.418804 128.061445 115.326939 
z
" clip-path="url(#p4c026e7006)" style="fill: #d9d9d9"/>
   </g>
   <g id="patch_6">
    <path d="M 125.254844 124.579062 
C 125.254844 124.579062 125.254844 124.579062 125.254844 124.579062 
C 125.254844 124.579062 125.254844 124.579062 125.254844 124.579062 
L 132.064119 116.281937 
C 131.792541 116.059059 131.510185 115.84965 131.21807 115.654464 
C 130.925954 115.459279 130.624432 115.278554 130.314591 115.11294 
z
" clip-path="url(#p4c026e7006)" style="fill: #d9d9d9"/>
   </g>
   <g id="patch_7">
    <path d="M 125.254844 124.579062 
C 125.254844 124.579062 125.254844 124.579062 125.254844 124.579062 
C 125.254844 124.579062 125.254844 124.579062 125.254844 124.579062 
L 125.254844 124.579062 
C 125.254844 124.579062 125.254844 124.579062 125.254844 124.579062 
C 125.254844 124.579062 125.254844 124.579062 125.254844 124.579062 
z
" clip-path="url(#p4c026e7006)" style="fill: #d9d9d9"/>
   </g>
   <g id="patch_8">
    <path d="M 125.254844 124.579062 
C 125.254844 124.579062 125.254844 124.579062 125.254844 124.579062 
C 125.254844 124.579062 125.254844 124.579062 125.254844 124.579062 
L 125.254844 124.579062 
C 125.254844 124.579062 125.254844 124.579062 125.254844 124.579062 
C 125.254844 124.579062 125.254844 124.579062 125.254844 124.579062 
z
" clip-path="url(#p4c026e7006)" style="fill: #d9d9d9"/>
   </g>
   <g id="patch_9">
    <path d="M 125.254844 124.579062 
C 125.254844 124.579062 125.254844 124.579062 125.254844 124.579062 
C 125.254844 124.579062 125.254844 124.579062 125.254844 124.579062 
L 125.254844 124.579062 
C 125.254844 124.579062 125.254844 124.579062 125.254844 124.579062 
C 125.254844 124.579062 125.254844 124.579062 125.254844 124.579062 
z
" clip-path="url(#p4c026e7006)" style="fill: #d9d9d9"/>
   </g>
   <g id="patch_10">
    <path d="M 125.254844 124.579062 
C 125.254844 124.579062 125.254844 124.579062 125.254844 124.579062 
C 125.254844 124.579062 125.254844 124.579062 125.254844 124.579062 
L 125.254844 124.579062 
C 125.254844 124.579062 125.254844 124.579062 125.254844 124.579062 
C 125.254844 124.579062 125.254844 124.579062 125.254844 124.579062 
z
" clip-path="url(#p4c026e7006)" style="fill: #d9d9d9"/>
   </g>
   <g id="patch_11">
    <path d="M 125.254844 124.579062 
C 125.254844 124.579062 125.254844 124.579062 125.254844 124.579062 
C 125.254844 124.579062 125.254844 124.579062 125.254844 124.579062 
L 125.254844 124.579062 
C 125.254844 124.579062 125.254844 124.579062 125.254844 124.579062 
C 125.254844 124.579062 125.254844 124.579062 125.254844 124.579062 
z
" clip-path="url(#p4c026e7006)" style="fill: #d9d9d9"/>
   </g>
   <g id="patch_12">
    <path d="M 125.254844 124.579062 
C 125.254844 124.579062 125.254844 124.579062 125.254844 124.579062 
C 125.254844 124.579062 125.254844 124.579062 125.254844 124.579062 
L 125.254844 124.579062 
C 125.254844 124.579062 125.254844 124.579062 125.254844 124.579062 
C 125.254844 124.579062 125.254844 124.579062 125.254844 124.579062 
z
" clip-path="url(#p4c026e7006)" style="fill: #d9d9d9"/>
   </g>
   <g id="patch_13">
    <path d="M 125.254844 124.579062 
C 125.254844 124.579062 125.254844 124.579062 125.254844 124.579062 
C 125.254844 124.579062 125.254844 124.579062 125.254844 124.579062 
L 125.254844 124.579062 
C 125.254844 124.579062 125.254844 124.579062 125.254844 124.579062 
C 125.254844 124.579062 125.254844 124.579062 125.254844 124.579062 
z
" clip-path="url(#p4c026e7006)" style="fill: #d9d9d9"/>
   </g>
   <g id="patch_14">
    <path d="M 125.254844 124.579062 
C 125.254844 124.579062 125.254844 124.579062 125.254844 124.579062 
C 125.254844 124.579062 125.254844 124.579062 125.254844 124.579062 
L 125.254844 124.579062 
C 125.254844 124.579062 125.254844 124.579062 125.254844 124.579062 
C 125.254844 124.579062 125.254844 124.579062 125.254844 124.579062 
z
" clip-path="url(#p4c026e7006)" style="fill: #d9d9d9"/>
   </g>
   <g id="patch_15">
    <path d="M 125.254844 124.579062 
C 125.254844 124.579062 125.254844 124.579062 125.254844 124.579062 
C 125.254844 124.579062 125.254844 124.579062 125.254844 124.579062 
L 125.254844 124.579062 
C 125.254844 124.579062 125.254844 124.579062 125.254844 124.579062 
C 125.254844 124.579062 125.254844 124.579062 125.254844 124.579062 
z
" clip-path="url(#p4c026e7006)" style="fill: #d9d9d9"/>
   </g>
   <g id="patch_16">
    <path d="M 125.254844 124.579062 
C 125.254844 124.579062 125.254844 124.579062 125.254844 124.579062 
C 125.254844 124.579062 125.254844 124.579062 125.254844 124.579062 
L 125.254844 124.579062 
C 125.254844 124.579062 125.254844 124.579062 125.254844 124.579062 
C 125.254844 124.579062 125.254844 124.579062 125.254844 124.579062 
z
" clip-path="url(#p4c026e7006)" style="fill: #d9d9d9"/>
   </g>
   <g id="patch_17">
    <path d="M 125.254844 124.579062 
C 125.254844 124.579062 125.254844 124.579062 125.254844 124.579062 
C 125.254844 124.579062 125.254844 124.579062 125.254844 124.579062 
L 125.254844 124.579062 
C 125.254844 124.579062 125.254844 124.579062 125.254844 124.579062 
C 125.254844 124.579062 125.254844 124.579062 125.254844 124.579062 
z
" clip-path="url(#p4c026e7006)" style="fill: #d9d9d9"/>
   </g>
   <g id="patch_18">
    <path d="M 125.254844 124.579062 
C 125.254844 124.579062 125.254844 124.579062 125.254844 124.579062 
C 125.254844 124.579062 125.254844 124.579062 125.254844 124.579062 
L 125.254844 124.579062 
C 125.254844 124.579062 125.254844 124.579062 125.254844 124.579062 
C 125.254844 124.579062 125.254844 124.579062 125.254844 124.579062 
z
" clip-path="url(#p4c026e7006)" style="fill: #d9d9d9"/>
   </g>
   <g id="patch_19">
    <path d="M 125.254844 124.579062 
C 125.254844 124.579062 125.254844 124.579062 125.254844 124.579062 
C 125.254844 124.579062 125.254844 124.579062 125.254844 124.579062 
L 125.254844 124.579062 
C 125.254844 124.579062 125.254844 124.579062 125.254844 124.579062 
C 125.254844 124.579062 125.254844 124.579062 125.254844 124.579062 
z
" clip-path="url(#p4c026e7006)" style="fill: #d9d9d9"/>
   </g>
   <g id="patch_20">
    <path d="M 125.254844 124.579062 
C 125.254844 124.579062 125.254844 124.579062 125.254844 124.579062 
C 125.254844 124.579062 125.254844 124.579062 125.254844 124.579062 
L 125.254844 124.579062 
C 125.254844 124.579062 125.254844 124.579062 125.254844 124.579062 
C 125.254844 124.579062 125.254844 124.579062 125.254844 124.579062 
z
" clip-path="url(#p4c026e7006)" style="fill: #d9d9d9"/>
   </g>
   <g id="patch_21">
    <path d="M 125.254844 124.579062 
C 125.254844 124.579062 125.254844 124.579062 125.254844 124.579062 
C 125.254844 124.579062 125.254844 124.579062 125.254844 124.579062 
L 125.254844 124.579062 
C 125.254844 124.579062 125.254844 124.579062 125.254844 124.579062 
C 125.254844 124.579062 125.254844 124.579062 125.254844 124.579062 
z
" clip-path="url(#p4c026e7006)" style="fill: #d9d9d9"/>
   </g>
   <g id="patch_22">
    <path d="M 125.254844 124.579062 
C 125.254844 124.579062 125.254844 124.579062 125.254844 124.579062 
C 125.254844 124.579062 125.254844 124.579062 125.254844 124.579062 
L 125.254844 124.579062 
C 125.254844 124.579062 125.254844 124.579062 125.254844 124.579062 
C 125.254844 124.579062 125.254844 124.579062 125.254844 124.579062 
z
" clip-path="url(#p4c026e7006)" style="fill: #d9d9d9"/>
   </g>
   <g id="patch_23">
    <path d="M 125.254844 124.579062 
C 125.254844 124.579062 125.254844 124.579062 125.254844 124.579062 
C 125.254844 124.579062 125.254844 124.579062 125.254844 124.579062 
L 125.254844 124.579062 
C 125.254844 124.579062 125.254844 124.579062 125.254844 124.579062 
C 125.254844 124.579062 125.254844 124.579062 125.254844 124.579062 
z
" clip-path="url(#p4c026e7006)" style="fill: #d9d9d9"/>
   </g>
   <g id="patch_24">
    <path d="M 125.254844 124.579062 
C 125.254844 124.579062 125.254844 124.579062 125.254844 124.579062 
C 125.254844 124.579062 125.254844 124.579062 125.254844 124.579062 
L 125.254844 124.579062 
C 125.254844 124.579062 125.254844 124.579062 125.254844 124.579062 
C 125.254844 124.579062 125.254844 124.579062 125.254844 124.579062 
z
" clip-path="url(#p4c026e7006)" style="fill: #d9d9d9"/>
   </g>
   <g id="patch_25">
    <path d="M 125.254844 124.579062 
C 125.254844 124.579062 125.254844 124.579062 125.254844 124.579062 
C 125.254844 124.579062 125.254844 124.579062 125.254844 124.579062 
L 125.254844 124.579062 
C 125.254844 124.579062 125.254844 124.579062 125.254844 124.579062 
C 125.254844 124.579062 125.254844 124.579062 125.254844 124.579062 
z
" clip-path="url(#p4c026e7006)" style="fill: #d9d9d9"/>
   </g>
   <g id="patch_26">
    <path d="M 125.254844 124.579062 
C 125.254844 124.579062 125.254844 124.579062 125.254844 124.579062 
C 125.254844 124.579062 125.254844 124.579062 125.254844 124.579062 
L 125.254844 124.579062 
C 125.254844 124.579062 125.254844 124.579062 125.254844 124.579062 
C 125.254844 124.579062 125.254844 124.579062 125.254844 124.579062 
z
" clip-path="url(#p4c026e7006)" style="fill: #d9d9d9"/>
   </g>
   <g id="patch_27">
    <path d="M 125.254844 124.579062 
C 125.254844 124.579062 125.254844 124.579062 125.254844 124.579062 
C 125.254844 124.579062 125.254844 124.579062 125.254844 124.579062 
L 125.254844 124.579062 
C 125.254844 124.579062 125.254844 124.579062 125.254844 124.579062 
C 125.254844 124.579062 125.254844 124.579062 125.254844 124.579062 
z
" clip-path="url(#p4c026e7006)" style="fill: #d9d9d9"/>
   </g>
   <g id="patch_28">
    <path d="M 125.254844 124.579062 
C 125.254844 124.579062 125.254844 124.579062 125.254844 124.579062 
C 125.254844 124.579062 125.254844 124.579062 125.254844 124.579062 
L 125.254844 124.579062 
C 125.254844 124.579062 125.254844 124.579062 125.254844 124.579062 
C 125.254844 124.579062 125.254844 124.579062 125.254844 124.579062 
z
" clip-path="url(#p4c026e7006)" style="fill: #d9d9d9"/>
   </g>
   <g id="patch_29">
    <path d="M 125.254844 124.579062 
C 125.254844 124.579062 125.254844 124.579062 125.254844 124.579062 
C 125.254844 124.579062 125.254844 124.579062 125.254844 124.579062 
L 125.254844 124.579062 
C 125.254844 124.579062 125.254844 124.579062 125.254844 124.579062 
C 125.254844 124.579062 125.254844 124.579062 125.254844 124.579062 
z
" clip-path="url(#p4c026e7006)" style="fill: #d9d9d9"/>
   </g>
   <g id="patch_30">
    <path d="M 125.254844 124.579062 
C 125.254844 124.579062 125.254844 124.579062 125.254844 124.579062 
C 125.254844 124.579062 125.254844 124.579062 125.254844 124.579062 
L 125.254844 124.579062 
C 125.254844 124.579062 125.254844 124.579062 125.254844 124.579062 
C 125.254844 124.579062 125.254844 124.579062 125.254844 124.579062 
z
" clip-path="url(#p4c026e7006)" style="fill: #d9d9d9"/>
   </g>
   <g id="patch_31">
    <path d="M 125.254844 124.579062 
C 125.254844 124.579062 125.254844 124.579062 125.254844 124.579062 
C 125.254844 124.579062 125.254844 124.579062 125.254844 124.579062 
L 125.254844 124.579062 
C 125.254844 124.579062 125.254844 124.579062 125.254844 124.579062 
C 125.254844 124.579062 125.254844 124.579062 125.254844 124.579062 
z
" clip-path="url(#p4c026e7006)" style="fill: #d9d9d9"/>
   </g>
   <g id="patch_32">
    <path d="M 125.254844 124.579062 
C 125.254844 124.579062 125.254844 124.579062 125.254844 124.579062 
C 125.254844 124.579062 125.254844 124.579062 125.254844 124.579062 
L 125.254844 124.579062 
C 125.254844 124.579062 125.254844 124.579062 125.254844 124.579062 
C 125.254844 124.579062 125.254844 124.579062 125.254844 124.579062 
z
" clip-path="url(#p4c026e7006)" style="fill: #d9d9d9"/>
   </g>
   <g id="patch_33">
    <path d="M 125.254844 124.579062 
C 125.254844 124.579062 125.254844 124.579062 125.254844 124.579062 
C 125.254844 124.579062 125.254844 124.579062 125.254844 124.579062 
L 125.254844 124.579062 
C 125.254844 124.579062 125.254844 124.579062 125.254844 124.579062 
C 125.254844 124.579062 125.254844 124.579062 125.254844 124.579062 
z
" clip-path="url(#p4c026e7006)" style="fill: #d9d9d9"/>
   </g>
   <g id="patch_34">
    <path d="M 125.254844 124.579062 
C 125.254844 124.579062 125.254844 124.579062 125.254844 124.579062 
C 125.254844 124.579062 125.254844 124.579062 125.254844 124.579062 
L 125.006428 122.056853 
C 124.923872 122.064984 124.841765 122.077164 124.760404 122.093347 
C 124.679043 122.109531 124.598526 122.1297 124.519142 122.15378 
z
" clip-path="url(#p4c026e7006)" style="fill: #d9d9d9"/>
   </g>
   <g id="patch_35">
    <path d="M 124.426967 116.173487 
C 124.702094 116.146389 124.978385 116.132816 125.254844 116.132816 
C 125.531302 116.132816 125.807594 116.146389 126.082721 116.173487 
L 128.932849 87.235647 
C 127.710543 87.11526 126.483064 87.054958 125.254844 87.054958 
C 124.026624 87.054958 122.799144 87.11526 121.576838 87.235647 
z
" clip-path="url(#p4c026e7006)" style="fill: #a1a1d8"/>
   </g>
   <g id="patch_36">
    <path d="M 126.649781 110.416029 
C 127.113358 110.461687 127.574414 110.530078 128.031284 110.620955 
C 128.488154 110.711832 128.940286 110.825086 129.386048 110.960306 
L 137.403991 84.528692 
C 136.093082 84.131032 134.76344 83.797974 133.419867 83.530721 
C 132.076293 83.263467 130.720408 83.062341 129.357109 82.928067 
z
" clip-path="url(#p4c026e7006)" style="fill: #a1a1d8"/>
   </g>
   <g id="patch_37">
    <path d="M 128.061445 115.326939 
C 128.36428 115.418804 128.662423 115.525481 128.954797 115.646586 
C 129.24717 115.767691 129.533421 115.903078 129.812516 116.052257 
L 157.69753 63.883066 
C 155.710859 62.821168 153.67325 61.857451 151.592061 60.995394 
C 149.510873 60.133338 147.388614 59.373982 145.232951 58.720068 
z
" clip-path="url(#p4c026e7006)" style="fill: #a1a1d8"/>
   </g>
   <g id="patch_38">
    <path d="M 130.314591 115.11294 
C 130.624432 115.278554 130.925954 115.459279 131.21807 115.654464 
C 131.510185 115.84965 131.792541 116.059059 132.064119 116.281937 
L 168.588482 71.776871 
C 166.860188 70.358497 165.063296 69.025831 163.204299 67.783689 
C 161.345302 66.541547 159.426439 65.391425 157.454642 64.337477 
z
" clip-path="url(#p4c026e7006)" style="fill: #a1a1d8"/>
   </g>
   <g id="patch_39">
    <path d="M 125.254844 124.579062 
C 125.254844 124.579062 125.254844 124.579062 125.254844 124.579062 
C 125.254844 124.579062 125.254844 124.579062 125.254844 124.579062 
L 180.405882 79.317775 
C 178.924412 77.5126 177.355206 75.781248 175.703932 74.129974 
C 174.052658 72.4787 172.321307 70.909494 170.516131 69.428025 
z
" clip-path="url(#p4c026e7006)" style="fill: #a1a1d8"/>
   </g>
   <g id="patch_40">
    <path d="M 125.254844 124.579062 
C 125.254844 124.579062 125.254844 124.579062 125.254844 124.579062 
C 125.254844 124.579062 125.254844 124.579062 125.254844 124.579062 
L 185.00122 92.643959 
C 183.955936 90.688371 182.815269 88.785282 181.583337 86.941566 
C 180.351406 85.097851 179.029695 83.315731 177.62298 81.601643 
z
" clip-path="url(#p4c026e7006)" style="fill: #a1a1d8"/>
   </g>
   <g id="patch_41">
    <path d="M 125.254844 124.579062 
C 125.254844 124.579062 125.254844 124.579062 125.254844 124.579062 
C 125.254844 124.579062 125.254844 124.579062 125.254844 124.579062 
L 183.40031 106.940828 
C 182.822984 105.03764 182.152565 103.163945 181.391474 101.326509 
C 180.630384 99.489073 179.779538 97.690112 178.842012 95.936124 
z
" clip-path="url(#p4c026e7006)" style="fill: #a1a1d8"/>
   </g>
   <g id="patch_42">
    <path d="M 125.254844 124.579062 
C 125.254844 124.579062 125.254844 124.579062 125.254844 124.579062 
C 125.254844 124.579062 125.254844 124.579062 125.254844 124.579062 
L 175.181198 119.661746 
C 175.020246 118.027582 174.779159 116.402305 174.458807 114.791786 
C 174.138455 113.181266 173.739224 111.587446 173.262556 110.016082 
z
" clip-path="url(#p4c026e7006)" style="fill: #a1a1d8"/>
   </g>
   <g id="patch_43">
    <path d="M 125.254844 124.579062 
C 125.254844 124.579062 125.254844 124.579062 125.254844 124.579062 
C 125.254844 124.579062 125.254844 124.579062 125.254844 124.579062 
L 170.654611 129.050549 
C 170.800969 127.564547 170.874281 126.072255 170.874281 124.579062 
C 170.874281 123.08587 170.800969 121.593578 170.654611 120.107576 
z
" clip-path="url(#p4c026e7006)" style="fill: #a1a1d8"/>
   </g>
   <g id="patch_44">
    <path d="M 125.254844 124.579062 
C 125.254844 124.579062 125.254844 124.579062 125.254844 124.579062 
C 125.254844 124.579062 125.254844 124.579062 125.254844 124.579062 
L 154.619366 133.486693 
C 154.910926 132.525548 155.155121 131.550668 155.351069 130.565574 
C 155.547016 129.580479 155.69448 128.586358 155.792928 127.586801 
z
" clip-path="url(#p4c026e7006)" style="fill: #a1a1d8"/>
   </g>
   <g id="patch_45">
    <path d="M 125.254844 124.579062 
C 125.254844 124.579062 125.254844 124.579062 125.254844 124.579062 
C 125.254844 124.579062 125.254844 124.579062 125.254844 124.579062 
L 187.938402 158.084122 
C 189.035072 156.032396 190.030348 153.928062 190.920633 151.778723 
C 191.810919 149.629384 192.595141 147.437629 193.270467 145.211376 
z
" clip-path="url(#p4c026e7006)" style="fill: #a1a1d8"/>
   </g>
   <g id="patch_46">
    <path d="M 125.254844 124.579062 
C 125.254844 124.579062 125.254844 124.579062 125.254844 124.579062 
C 125.254844 124.579062 125.254844 124.579062 125.254844 124.579062 
L 158.320087 151.715006 
C 159.208287 150.632731 160.042814 149.507501 160.820656 148.343379 
C 161.598498 147.179256 162.318715 145.977646 162.978707 144.742888 
z
" clip-path="url(#p4c026e7006)" style="fill: #a1a1d8"/>
   </g>
   <g id="patch_47">
    <path d="M 125.254844 124.579062 
C 125.254844 124.579062 125.254844 124.579062 125.254844 124.579062 
C 125.254844 124.579062 125.254844 124.579062 125.254844 124.579062 
L 162.40079 169.841529 
C 163.882298 168.625687 165.303219 167.337839 166.65842 165.982639 
C 168.013621 164.627438 169.301468 163.206517 170.51731 161.725009 
z
" clip-path="url(#p4c026e7006)" style="fill: #a1a1d8"/>
   </g>
   <g id="patch_48">
    <path d="M 125.254844 124.579062 
C 125.254844 124.579062 125.254844 124.579062 125.254844 124.579062 
C 125.254844 124.579062 125.254844 124.579062 125.254844 124.579062 
L 151.834983 174.307006 
C 153.462653 173.436998 155.046627 172.487601 156.581183 171.462243 
C 158.11574 170.436885 159.599029 169.336803 161.025694 168.165969 
z
" clip-path="url(#p4c026e7006)" style="fill: #a1a1d8"/>
   </g>
   <g id="patch_49">
    <path d="M 125.254844 124.579062 
C 125.254844 124.579062 125.254844 124.579062 125.254844 124.579062 
C 125.254844 124.579062 125.254844 124.579062 125.254844 124.579062 
L 136.1417 160.468218 
C 137.316406 160.111875 138.472908 159.698072 139.607029 159.228303 
C 140.741151 158.758535 141.851524 158.233367 142.934139 157.654697 
z
" clip-path="url(#p4c026e7006)" style="fill: #a1a1d8"/>
   </g>
   <g id="patch_50">
    <path d="M 125.254844 124.579062 
C 125.254844 124.579062 125.254844 124.579062 125.254844 124.579062 
C 125.254844 124.579062 125.254844 124.579062 125.254844 124.579062 
L 128.695852 159.516201 
C 129.839396 159.403571 130.976722 159.234865 132.10372 159.010691 
C 133.230719 158.786517 134.346032 158.507146 135.445631 158.173586 
z
" clip-path="url(#p4c026e7006)" style="fill: #a1a1d8"/>
   </g>
   <g id="patch_51">
    <path d="M 125.254844 124.579062 
C 125.254844 124.579062 125.254844 124.579062 125.254844 124.579062 
C 125.254844 124.579062 125.254844 124.579062 125.254844 124.579062 
L 122.207208 155.522226 
C 123.220024 155.62198 124.237127 155.671947 125.254844 155.671947 
C 126.27256 155.671947 127.289663 155.62198 128.302479 155.522226 
z
" clip-path="url(#p4c026e7006)" style="fill: #a1a1d8"/>
   </g>
   <g id="patch_52">
    <path d="M 125.254844 124.579062 
C 125.254844 124.579062 125.254844 124.579062 125.254844 124.579062 
C 125.254844 124.579062 125.254844 124.579062 125.254844 124.579062 
L 118.596243 146.529527 
C 119.314715 146.747473 120.043454 146.930013 120.779828 147.076487 
C 121.516202 147.222961 122.259324 147.333192 123.006509 147.406784 
z
" clip-path="url(#p4c026e7006)" style="fill: #a1a1d8"/>
   </g>
   <g id="patch_53">
    <path d="M 125.254844 124.579062 
C 125.254844 124.579062 125.254844 124.579062 125.254844 124.579062 
C 125.254844 124.579062 125.254844 124.579062 125.254844 124.579062 
L 117.666723 138.775438 
C 118.131391 139.023809 118.607974 139.249216 119.09475 139.450845 
C 119.581526 139.652474 120.077907 139.830082 120.582102 139.983028 
z
" clip-path="url(#p4c026e7006)" style="fill: #a1a1d8"/>
   </g>
   <g id="patch_54">
    <path d="M 125.254844 124.579062 
C 125.254844 124.579062 125.254844 124.579062 125.254844 124.579062 
C 125.254844 124.579062 125.254844 124.579062 125.254844 124.579062 
L 117.371213 134.185295 
C 117.685639 134.443338 118.012545 134.685788 118.35075 134.911769 
C 118.688955 135.13775 119.038051 135.346991 119.396777 135.538734 
z
" clip-path="url(#p4c026e7006)" style="fill: #a1a1d8"/>
   </g>
   <g id="patch_55">
    <path d="M 125.254844 124.579062 
C 125.254844 124.579062 125.254844 124.579062 125.254844 124.579062 
C 125.254844 124.579062 125.254844 124.579062 125.254844 124.579062 
L 119.53948 129.26954 
C 119.693007 129.456612 119.855625 129.636034 120.026749 129.807158 
C 120.197872 129.978281 120.377294 130.1409 120.564366 130.294426 
z
" clip-path="url(#p4c026e7006)" style="fill: #a1a1d8"/>
   </g>
   <g id="patch_56">
    <path d="M 125.254844 124.579062 
C 125.254844 124.579062 125.254844 124.579062 125.254844 124.579062 
C 125.254844 124.579062 125.254844 124.579062 125.254844 124.579062 
L 125.254844 124.579062 
C 125.254844 124.579062 125.254844 124.579062 125.254844 124.579062 
C 125.254844 124.579062 125.254844 124.579062 125.254844 124.579062 
z
" clip-path="url(#p4c026e7006)" style="fill: #a1a1d8"/>
   </g>
   <g id="patch_57">
    <path d="M 125.254844 124.579062 
C 125.254844 124.579062 125.254844 124.579062 125.254844 124.579062 
C 125.254844 124.579062 125.254844 124.579062 125.254844 124.579062 
L 125.254844 124.579062 
C 125.254844 124.579062 125.254844 124.579062 125.254844 124.579062 
C 125.254844 124.579062 125.254844 124.579062 125.254844 124.579062 
z
" clip-path="url(#p4c026e7006)" style="fill: #a1a1d8"/>
   </g>
   <g id="patch_58">
    <path d="M 125.254844 124.579062 
C 125.254844 124.579062 125.254844 124.579062 125.254844 124.579062 
C 125.254844 124.579062 125.254844 124.579062 125.254844 124.579062 
L 125.254844 124.579062 
C 125.254844 124.579062 125.254844 124.579062 125.254844 124.579062 
C 125.254844 124.579062 125.254844 124.579062 125.254844 124.579062 
z
" clip-path="url(#p4c026e7006)" style="fill: #a1a1d8"/>
   </g>
   <g id="patch_59">
    <path d="M 125.254844 124.579062 
C 125.254844 124.579062 125.254844 124.579062 125.254844 124.579062 
C 125.254844 124.579062 125.254844 124.579062 125.254844 124.579062 
L 118.72523 123.935952 
C 118.70418 124.149676 118.693636 124.364304 118.693636 124.579062 
C 118.693636 124.793821 118.70418 125.008449 118.72523 125.222173 
z
" clip-path="url(#p4c026e7006)" style="fill: #a1a1d8"/>
   </g>
   <g id="patch_60">
    <path d="M 125.254844 124.579062 
C 125.254844 124.579062 125.254844 124.579062 125.254844 124.579062 
C 125.254844 124.579062 125.254844 124.579062 125.254844 124.579062 
L 114.886487 121.433856 
C 114.78354 121.773228 114.697317 122.117449 114.628129 122.465278 
C 114.558942 122.813106 114.506874 123.164121 114.472113 123.517056 
z
" clip-path="url(#p4c026e7006)" style="fill: #a1a1d8"/>
   </g>
   <g id="patch_61">
    <path d="M 125.254844 124.579062 
C 125.254844 124.579062 125.254844 124.579062 125.254844 124.579062 
C 125.254844 124.579062 125.254844 124.579062 125.254844 124.579062 
L 107.370649 115.019761 
C 107.057758 115.605137 106.773797 116.205523 106.519791 116.818749 
C 106.265784 117.431976 106.042038 118.057303 105.849361 118.692474 
z
" clip-path="url(#p4c026e7006)" style="fill: #a1a1d8"/>
   </g>
   <g id="patch_62">
    <path d="M 125.254844 124.579062 
C 125.254844 124.579062 125.254844 124.579062 125.254844 124.579062 
C 125.254844 124.579062 125.254844 124.579062 125.254844 124.579062 
L 117.808403 118.467926 
C 117.608376 118.71166 117.420437 118.965067 117.245263 119.227232 
C 117.07009 119.489398 116.907894 119.760006 116.759261 120.038079 
z
" clip-path="url(#p4c026e7006)" style="fill: #a1a1d8"/>
   </g>
   <g id="patch_63">
    <path d="M 125.254844 124.579062 
C 125.254844 124.579062 125.254844 124.579062 125.254844 124.579062 
C 125.254844 124.579062 125.254844 124.579062 125.254844 124.579062 
L 116.831551 114.31525 
C 116.495601 114.590957 116.17339 114.882992 115.866082 115.1903 
C 115.558773 115.497608 115.266738 115.819819 114.991031 116.155769 
z
" clip-path="url(#p4c026e7006)" style="fill: #a1a1d8"/>
   </g>
   <g id="patch_64">
    <path d="M 125.254844 124.579062 
C 125.254844 124.579062 125.254844 124.579062 125.254844 124.579062 
C 125.254844 124.579062 125.254844 124.579062 125.254844 124.579062 
L 115.956431 107.182956 
C 115.387031 107.487307 114.832916 107.819431 114.296089 108.178127 
C 113.759262 108.536824 113.24037 108.921661 112.741286 109.331248 
z
" clip-path="url(#p4c026e7006)" style="fill: #a1a1d8"/>
   </g>
   <g id="patch_65">
    <path d="M 125.254844 124.579062 
C 125.254844 124.579062 125.254844 124.579062 125.254844 124.579062 
C 125.254844 124.579062 125.254844 124.579062 125.254844 124.579062 
L 119.378045 105.205852 
C 118.743931 105.398208 118.119643 105.621582 117.507436 105.875166 
C 116.89523 106.128751 116.295843 106.41224 115.71144 106.724609 
z
" clip-path="url(#p4c026e7006)" style="fill: #a1a1d8"/>
   </g>
   <g id="patch_66">
    <path d="M 124.519142 122.15378 
C 124.598526 122.1297 124.679043 122.109531 124.760404 122.093347 
C 124.841765 122.077164 124.923872 122.064984 125.006428 122.056853 
L 121.878937 90.302911 
C 120.757028 90.413409 119.64122 90.578923 118.535543 90.798856 
C 117.429866 91.018789 116.335654 91.292875 115.256859 91.620124 
z
" clip-path="url(#p4c026e7006)" style="fill: #a1a1d8"/>
   </g>
   <g id="patch_67">
    <path d="M 121.576838 87.235647 
C 122.799144 87.11526 124.026624 87.054958 125.254844 87.054958 
C 126.483064 87.054958 127.710543 87.11526 128.932849 87.235647 
L 130.065398 75.73669 
C 128.466714 75.579233 126.861263 75.500362 125.254844 75.500362 
C 123.648425 75.500362 122.042974 75.579233 120.44429 75.73669 
z
" clip-path="url(#p4c026e7006)" style="fill: #ff8c8e"/>
   </g>
   <g id="patch_68">
    <path d="M 129.357109 82.928067 
C 130.720408 83.062341 132.076293 83.263467 133.419867 83.530721 
C 134.76344 83.797974 136.093082 84.131032 137.403991 84.528692 
L 141.280462 71.749681 
C 139.551277 71.225138 137.797381 70.78581 136.025109 70.433283 
C 134.252837 70.080756 132.464325 69.815456 130.666033 69.638339 
z
" clip-path="url(#p4c026e7006)" style="fill: #ff8c8e"/>
   </g>
   <g id="patch_69">
    <path d="M 145.232951 58.720068 
C 147.388614 59.373982 149.510873 60.133338 151.592061 60.995394 
C 153.67325 61.857451 155.710859 62.821168 157.69753 63.883066 
L 170.613489 39.719005 
C 167.835893 38.234349 164.987078 36.88696 162.077335 35.681705 
C 159.167592 34.47645 156.200428 33.414781 153.18656 32.500535 
z
" clip-path="url(#p4c026e7006)" style="fill: #ff8c8e"/>
   </g>
   <g id="patch_70">
    <path d="M 157.454642 64.337477 
C 159.426439 65.391425 161.345302 66.541547 163.204299 67.783689 
C 165.063296 69.025831 166.860188 70.358497 168.588482 71.776871 
L 179.808744 58.104942 
C 177.632947 56.319312 175.370792 54.641583 173.030449 53.077816 
C 170.690107 51.514049 168.274398 50.066129 165.792049 48.739286 
z
" clip-path="url(#p4c026e7006)" style="fill: #ff8c8e"/>
   </g>
   <g id="patch_71">
    <path d="M 170.516131 69.428025 
C 172.321307 70.909494 174.052658 72.4787 175.703932 74.129974 
C 177.355206 75.781248 178.924412 77.5126 180.405882 79.317775 
L 195.39507 67.016467 
C 193.51096 64.720672 191.515269 62.518766 189.415204 60.418702 
C 187.31514 58.318637 185.113234 56.322946 182.81744 54.438836 
z
" clip-path="url(#p4c026e7006)" style="fill: #ff8c8e"/>
   </g>
   <g id="patch_72">
    <path d="M 177.62298 81.601643 
C 179.029695 83.315731 180.351406 85.097851 181.583337 86.941566 
C 182.815269 88.785282 183.955936 90.688371 185.00122 92.643959 
L 218.651643 74.657433 
C 217.017633 71.600417 215.234518 68.625468 213.308736 65.743332 
C 211.382955 62.861197 209.31683 60.075349 207.117823 57.395852 
z
" clip-path="url(#p4c026e7006)" style="fill: #ff8c8e"/>
   </g>
   <g id="patch_73">
    <path d="M 178.842012 95.936124 
C 179.779538 97.690112 180.630384 99.489073 181.391474 101.326509 
C 182.152565 103.163945 182.822984 105.03764 183.40031 106.940828 
L 231.020747 92.495327 
C 229.970598 89.033451 228.751114 85.625221 227.366699 82.282947 
C 225.982284 78.940674 224.434607 75.668386 222.729258 72.477902 
z
" clip-path="url(#p4c026e7006)" style="fill: #ff8c8e"/>
   </g>
   <g id="patch_74">
    <path d="M 173.262556 110.016082 
C 173.739224 111.587446 174.138455 113.181266 174.458807 114.791786 
C 174.779159 116.402305 175.020246 118.027582 175.181198 119.661746 
L 226.980922 114.559918 
C 226.65298 111.230272 226.16176 107.918733 225.509035 104.637264 
C 224.85631 101.355795 224.042868 98.10835 223.071646 94.90666 
z
" clip-path="url(#p4c026e7006)" style="fill: #ff8c8e"/>
   </g>
   <g id="patch_75">
    <path d="M 170.654611 120.107576 
C 170.800969 121.593578 170.874281 123.08587 170.874281 124.579062 
C 170.874281 126.072255 170.800969 127.564547 170.654611 129.050549 
L 220.512347 133.961108 
C 220.819435 130.843187 220.973257 127.712069 220.973257 124.579062 
C 220.973257 121.446056 220.819435 118.314938 220.512347 115.197017 
z
" clip-path="url(#p4c026e7006)" style="fill: #ff8c8e"/>
   </g>
   <g id="patch_76">
    <path d="M 155.792928 127.586801 
C 155.69448 128.586358 155.547016 129.580479 155.351069 130.565574 
C 155.155121 131.550668 154.910926 132.525548 154.619366 133.486693 
L 213.340598 151.299584 
C 214.215201 148.416406 214.94772 145.492025 215.535511 142.537004 
C 216.123301 139.581983 216.565653 136.599884 216.86097 133.601478 
z
" clip-path="url(#p4c026e7006)" style="fill: #ff8c8e"/>
   </g>
   <g id="patch_77">
    <path d="M 193.270467 145.211376 
C 192.595141 147.437629 191.810919 149.629384 190.920633 151.778723 
C 190.030348 153.928062 189.035072 156.032396 187.938402 158.084122 
L 219.1273 174.754936 
C 220.769632 171.68235 222.260118 168.530983 223.593375 165.312216 
C 224.926631 162.093449 226.101052 158.811163 227.112395 155.477213 
z
" clip-path="url(#p4c026e7006)" style="fill: #ff8c8e"/>
   </g>
   <g id="patch_78">
    <path d="M 162.978707 144.742888 
C 162.318715 145.977646 161.598498 147.179256 160.820656 148.343379 
C 160.042814 149.507501 159.208287 150.632731 158.320087 151.715006 
L 175.329549 165.674311 
C 176.674658 164.035291 177.938484 162.331218 179.116464 160.568247 
C 180.294444 158.805275 181.385157 156.985531 182.384663 155.115587 
z
" clip-path="url(#p4c026e7006)" style="fill: #ff8c8e"/>
   </g>
   <g id="patch_79">
    <path d="M 170.51731 161.725009 
C 169.301468 163.206517 168.013621 164.627438 166.65842 165.982639 
C 165.303219 167.337839 163.882298 168.625687 162.40079 169.841529 
L 175.327751 185.593076 
C 177.32483 183.954115 179.240238 182.218091 181.067055 180.391274 
C 182.893872 178.564457 184.629896 176.649049 186.268857 174.651969 
z
" clip-path="url(#p4c026e7006)" style="fill: #ff8c8e"/>
   </g>
   <g id="patch_80">
    <path d="M 161.025694 168.165969 
C 159.599029 169.336803 158.11574 170.436885 156.581183 171.462243 
C 155.046627 172.487601 153.462653 173.436998 151.834983 174.307006 
L 157.641317 185.169892 
C 159.624545 184.109835 161.554532 182.953045 163.424307 181.703701 
C 165.294082 180.454358 167.10139 179.113967 168.839705 177.687369 
z
" clip-path="url(#p4c026e7006)" style="fill: #ff8c8e"/>
   </g>
   <g id="patch_81">
    <path d="M 142.934139 157.654697 
C 141.851524 158.233367 140.741151 158.758535 139.607029 159.228303 
C 138.472908 159.698072 137.316406 160.111875 136.1417 160.468218 
L 137.363638 164.496409 
C 138.670193 164.10007 139.956501 163.639822 141.217915 163.117327 
C 142.47933 162.594832 143.714332 162.010719 144.918459 161.3671 
z
" clip-path="url(#p4c026e7006)" style="fill: #ff8c8e"/>
   </g>
   <g id="patch_82">
    <path d="M 135.445631 158.173586 
C 134.346032 158.507146 133.230719 158.786517 132.10372 159.010691 
C 130.976722 159.234865 129.839396 159.403571 128.695852 159.516201 
L 128.77451 160.314834 
C 129.944195 160.19963 131.107519 160.027067 132.26028 159.797769 
C 133.413041 159.568471 134.553849 159.282713 135.678584 158.941528 
z
" clip-path="url(#p4c026e7006)" style="fill: #ff8c8e"/>
   </g>
   <g id="patch_83">
    <path d="M 128.302479 155.522226 
C 127.289663 155.62198 126.27256 155.671947 125.254844 155.671947 
C 124.237127 155.671947 123.220024 155.62198 122.207208 155.522226 
L 121.493184 162.77183 
C 122.743291 162.894955 123.998689 162.956628 125.254844 162.956628 
C 126.510999 162.956628 127.766397 162.894955 129.016503 162.77183 
z
" clip-path="url(#p4c026e7006)" style="fill: #ff8c8e"/>
   </g>
   <g id="patch_84">
    <path d="M 123.006509 147.406784 
C 122.259324 147.333192 121.516202 147.222961 120.779828 147.076487 
C 120.043454 146.930013 119.314715 146.747473 118.596243 146.529527 
L 117.750598 149.317244 
C 118.560316 149.56287 119.381605 149.768592 120.211499 149.933668 
C 121.041393 150.098744 121.878892 150.222975 122.72097 150.305913 
z
" clip-path="url(#p4c026e7006)" style="fill: #ff8c8e"/>
   </g>
   <g id="patch_85">
    <path d="M 120.582102 139.983028 
C 120.077907 139.830082 119.581526 139.652474 119.09475 139.450845 
C 118.607974 139.249216 118.131391 139.023809 117.666723 138.775438 
L 117.666723 138.775438 
C 118.131391 139.023809 118.607974 139.249216 119.09475 139.450845 
C 119.581526 139.652474 120.077907 139.830082 120.582102 139.983028 
z
" clip-path="url(#p4c026e7006)" style="fill: #ff8c8e"/>
   </g>
   <g id="patch_86">
    <path d="M 119.396777 135.538734 
C 119.038051 135.346991 118.688955 135.13775 118.35075 134.911769 
C 118.012545 134.685788 117.685639 134.443338 117.371213 134.185295 
L 117.371213 134.185295 
C 117.685639 134.443338 118.012545 134.685788 118.35075 134.911769 
C 118.688955 135.13775 119.038051 135.346991 119.396777 135.538734 
z
" clip-path="url(#p4c026e7006)" style="fill: #ff8c8e"/>
   </g>
   <g id="patch_87">
    <path d="M 120.564366 130.294426 
C 120.377294 130.1409 120.197872 129.978281 120.026749 129.807158 
C 119.855625 129.636034 119.693007 129.456612 119.53948 129.26954 
L 118.254982 130.323701 
C 118.443012 130.552817 118.642178 130.772563 118.851761 130.982145 
C 119.061343 131.191728 119.281089 131.390894 119.510205 131.578925 
z
" clip-path="url(#p4c026e7006)" style="fill: #ff8c8e"/>
   </g>
   <g id="patch_88">
    <path d="M 125.254844 124.579062 
C 125.254844 124.579062 125.254844 124.579062 125.254844 124.579062 
C 125.254844 124.579062 125.254844 124.579062 125.254844 124.579062 
L 125.254844 124.579062 
C 125.254844 124.579062 125.254844 124.579062 125.254844 124.579062 
C 125.254844 124.579062 125.254844 124.579062 125.254844 124.579062 
z
" clip-path="url(#p4c026e7006)" style="fill: #ff8c8e"/>
   </g>
   <g id="patch_89">
    <path d="M 125.254844 124.579062 
C 125.254844 124.579062 125.254844 124.579062 125.254844 124.579062 
C 125.254844 124.579062 125.254844 124.579062 125.254844 124.579062 
L 122.424734 125.437567 
C 122.452834 125.530201 122.485465 125.621399 122.52251 125.710832 
C 122.559554 125.800266 122.600967 125.887826 122.646599 125.973198 
z
" clip-path="url(#p4c026e7006)" style="fill: #ff8c8e"/>
   </g>
   <g id="patch_90">
    <path d="M 125.254844 124.579062 
C 125.254844 124.579062 125.254844 124.579062 125.254844 124.579062 
C 125.254844 124.579062 125.254844 124.579062 125.254844 124.579062 
L 115.362451 125.553378 
C 115.394342 125.877171 115.442111 126.199203 115.505585 126.518311 
C 115.56906 126.837418 115.648163 127.153217 115.74261 127.464567 
z
" clip-path="url(#p4c026e7006)" style="fill: #ff8c8e"/>
   </g>
   <g id="patch_91">
    <path d="M 118.72523 125.222173 
C 118.70418 125.008449 118.693636 124.793821 118.693636 124.579062 
C 118.693636 124.364304 118.70418 124.149676 118.72523 123.935952 
L 115.417333 123.610152 
C 115.385619 123.932149 115.369734 124.255508 115.369734 124.579062 
C 115.369734 124.902617 115.385619 125.225976 115.417333 125.547973 
z
" clip-path="url(#p4c026e7006)" style="fill: #ff8c8e"/>
   </g>
   <g id="patch_92">
    <path d="M 114.472113 123.517056 
C 114.506874 123.164121 114.558942 122.813106 114.628129 122.465278 
C 114.697317 122.117449 114.78354 121.773228 114.886487 121.433856 
L 111.498936 120.406254 
C 111.362354 120.856505 111.24796 121.313191 111.156168 121.774662 
C 111.064376 122.236132 110.995296 122.701832 110.949178 123.170077 
z
" clip-path="url(#p4c026e7006)" style="fill: #ff8c8e"/>
   </g>
   <g id="patch_93">
    <path d="M 105.849361 118.692474 
C 106.042038 118.057303 106.265784 117.431976 106.519791 116.818749 
C 106.773797 116.205523 107.057758 115.605137 107.370649 115.019761 
L 107.370649 115.019761 
C 107.057758 115.605137 106.773797 116.205523 106.519791 116.818749 
C 106.265784 117.431976 106.042038 118.057303 105.849361 118.692474 
z
" clip-path="url(#p4c026e7006)" style="fill: #ff8c8e"/>
   </g>
   <g id="patch_94">
    <path d="M 116.759261 120.038079 
C 116.907894 119.760006 117.07009 119.489398 117.245263 119.227232 
C 117.420437 118.965067 117.608376 118.71166 117.808403 118.467926 
L 113.269603 114.743029 
C 112.947654 115.135324 112.645161 115.543189 112.363215 115.965151 
C 112.081269 116.387114 111.82021 116.822664 111.580981 117.27023 
z
" clip-path="url(#p4c026e7006)" style="fill: #ff8c8e"/>
   </g>
   <g id="patch_95">
    <path d="M 114.991031 116.155769 
C 115.266738 115.819819 115.558773 115.497608 115.866082 115.1903 
C 116.17339 114.882992 116.495601 114.590957 116.831551 114.31525 
L 114.39054 111.34087 
C 113.957234 111.696474 113.541648 112.073139 113.145284 112.469503 
C 112.74892 112.865867 112.372256 113.281452 112.016651 113.714758 
z
" clip-path="url(#p4c026e7006)" style="fill: #ff8c8e"/>
   </g>
   <g id="patch_96">
    <path d="M 112.741286 109.331248 
C 113.24037 108.921661 113.759262 108.536824 114.296089 108.178127 
C 114.832916 107.819431 115.387031 107.487307 115.956431 107.182956 
L 108.396823 93.039924 
C 107.3645 93.591712 106.35989 94.193852 105.386623 94.844168 
C 104.413355 95.494485 103.472603 96.192194 102.567764 96.934776 
z
" clip-path="url(#p4c026e7006)" style="fill: #ff8c8e"/>
   </g>
   <g id="patch_97">
    <path d="M 115.71144 106.724609 
C 116.295843 106.41224 116.89523 106.128751 117.507436 105.875166 
C 118.119643 105.621582 118.743931 105.398208 119.378045 105.205852 
L 112.57963 82.794484 
C 111.211959 83.209362 109.865481 83.69114 108.54506 84.238076 
C 107.224639 84.785012 105.931867 85.396448 104.671414 86.070174 
z
" clip-path="url(#p4c026e7006)" style="fill: #ff8c8e"/>
   </g>
   <g id="patch_98">
    <path d="M 115.256859 91.620124 
C 116.335654 91.292875 117.429866 91.018789 118.535543 90.798856 
C 119.64122 90.578923 120.757028 90.413409 121.878937 90.302911 
L 120.143884 72.686613 
C 118.445366 72.853903 116.756086 73.104484 115.082145 73.437451 
C 113.408204 73.770419 111.751619 74.185372 110.118375 74.680811 
z
" clip-path="url(#p4c026e7006)" style="fill: #ff8c8e"/>
   </g>
   <g id="patch_99">
    <path d="M 120.44429 75.73669 
C 122.042974 75.579233 123.648425 75.500362 125.254844 75.500362 
C 126.861263 75.500362 128.466714 75.579233 130.065398 75.73669 
L 130.065398 75.73669 
C 128.466714 75.579233 126.861263 75.500362 125.254844 75.500362 
C 123.648425 75.500362 122.042974 75.579233 120.44429 75.73669 
z
" clip-path="url(#p4c026e7006)" style="fill: #828282"/>
   </g>
   <g id="patch_100">
    <path d="M 130.666033 69.638339 
C 132.464325 69.815456 134.252837 70.080756 136.025109 70.433283 
C 137.797381 70.78581 139.551277 71.225138 141.280462 71.749681 
L 141.280462 71.749681 
C 139.551277 71.225138 137.797381 70.78581 136.025109 70.433283 
C 134.252837 70.080756 132.464325 69.815456 130.666033 69.638339 
z
" clip-path="url(#p4c026e7006)" style="fill: #828282"/>
   </g>
   <g id="patch_101">
    <path d="M 153.18656 32.500535 
C 156.200428 33.414781 159.167592 34.47645 162.077335 35.681705 
C 164.987078 36.88696 167.835893 38.234349 170.613489 39.719005 
L 170.613489 39.719005 
C 167.835893 38.234349 164.987078 36.88696 162.077335 35.681705 
C 159.167592 34.47645 156.200428 33.414781 153.18656 32.500535 
z
" clip-path="url(#p4c026e7006)" style="fill: #828282"/>
   </g>
   <g id="patch_102">
    <path d="M 165.792049 48.739286 
C 168.274398 50.066129 170.690107 51.514049 173.030449 53.077816 
C 175.370792 54.641583 177.632947 56.319312 179.808744 58.104942 
L 179.808744 58.104942 
C 177.632947 56.319312 175.370792 54.641583 173.030449 53.077816 
C 170.690107 51.514049 168.274398 50.066129 165.792049 48.739286 
z
" clip-path="url(#p4c026e7006)" style="fill: #828282"/>
   </g>
   <g id="patch_103">
    <path d="M 182.81744 54.438836 
C 185.113234 56.322946 187.31514 58.318637 189.415204 60.418702 
C 191.515269 62.518766 193.51096 64.720672 195.39507 67.016467 
L 195.39507 67.016467 
C 193.51096 64.720672 191.515269 62.518766 189.415204 60.418702 
C 187.31514 58.318637 185.113234 56.322946 182.81744 54.438836 
z
" clip-path="url(#p4c026e7006)" style="fill: #828282"/>
   </g>
   <g id="patch_104">
    <path d="M 207.117823 57.395852 
C 209.31683 60.075349 211.382955 62.861197 213.308736 65.743332 
C 215.234518 68.625468 217.017633 71.600417 218.651643 74.657433 
L 218.651643 74.657433 
C 217.017633 71.600417 215.234518 68.625468 213.308736 65.743332 
C 211.382955 62.861197 209.31683 60.075349 207.117823 57.395852 
z
" clip-path="url(#p4c026e7006)" style="fill: #828282"/>
   </g>
   <g id="patch_105">
    <path d="M 222.729258 72.477902 
C 224.434607 75.668386 225.982284 78.940674 227.366699 82.282947 
C 228.751114 85.625221 229.970598 89.033451 231.020747 92.495327 
L 231.020747 92.495327 
C 229.970598 89.033451 228.751114 85.625221 227.366699 82.282947 
C 225.982284 78.940674 224.434607 75.668386 222.729258 72.477902 
z
" clip-path="url(#p4c026e7006)" style="fill: #828282"/>
   </g>
   <g id="patch_106">
    <path d="M 223.071646 94.90666 
C 224.042868 98.10835 224.85631 101.355795 225.509035 104.637264 
C 226.16176 107.918733 226.65298 111.230272 226.980922 114.559918 
L 227.436945 114.515004 
C 227.107533 111.170431 226.61411 107.844048 225.95846 104.547868 
C 225.302809 101.251688 224.48572 97.989686 223.510144 94.773643 
z
" clip-path="url(#p4c026e7006)" style="fill: #828282"/>
   </g>
   <g id="patch_107">
    <path d="M 220.512347 115.197017 
C 220.819435 118.314938 220.973257 121.446056 220.973257 124.579062 
C 220.973257 127.712069 220.819435 130.843187 220.512347 133.961108 
L 222.938204 134.200034 
C 223.253112 131.002711 223.410852 127.791855 223.410852 124.579062 
C 223.410852 121.36627 223.253112 118.155414 222.938204 114.958091 
z
" clip-path="url(#p4c026e7006)" style="fill: #828282"/>
   </g>
   <g id="patch_108">
    <path d="M 216.86097 133.601478 
C 216.565653 136.599884 216.123301 139.581983 215.535511 142.537004 
C 214.94772 145.492025 214.215201 148.416406 213.340598 151.299584 
L 215.308394 151.896508 
C 216.202535 148.948921 216.951419 145.959211 217.55234 142.938176 
C 218.153261 139.917141 218.605496 136.868424 218.90741 133.803035 
z
" clip-path="url(#p4c026e7006)" style="fill: #828282"/>
   </g>
   <g id="patch_109">
    <path d="M 227.112395 155.477213 
C 226.101052 158.811163 224.926631 162.093449 223.593375 165.312216 
C 222.260118 168.530983 220.769632 171.68235 219.1273 174.754936 
L 223.042272 176.847532 
C 224.753097 173.646803 226.305744 170.364007 227.694605 167.011001 
C 229.083465 163.657994 230.306865 160.23882 231.360386 156.765827 
z
" clip-path="url(#p4c026e7006)" style="fill: #828282"/>
   </g>
   <g id="patch_110">
    <path d="M 182.384663 155.115587 
C 181.385157 156.985531 180.294444 158.805275 179.116464 160.568247 
C 177.938484 162.331218 176.674658 164.035291 175.329549 165.674311 
L 186.068432 174.487485 
C 187.702009 172.496965 189.236873 170.427441 190.667479 168.286388 
C 192.098085 166.145335 193.422709 163.935333 194.636566 161.664366 
z
" clip-path="url(#p4c026e7006)" style="fill: #828282"/>
   </g>
   <g id="patch_111">
    <path d="M 186.268857 174.651969 
C 184.629896 176.649049 182.893872 178.564457 181.067055 180.391274 
C 179.240238 182.218091 177.32483 183.954115 175.327751 185.593076 
L 178.640844 189.630092 
C 180.770061 187.882689 182.812203 186.0318 184.759892 184.08411 
C 186.707581 182.136421 188.55847 180.09428 190.305873 177.965063 
z
" clip-path="url(#p4c026e7006)" style="fill: #828282"/>
   </g>
   <g id="patch_112">
    <path d="M 168.839705 177.687369 
C 167.10139 179.113967 165.294082 180.454358 163.424307 181.703701 
C 161.554532 182.953045 159.624545 184.109835 157.641317 185.169892 
L 158.835957 187.404906 
C 160.89234 186.305746 162.893519 185.106286 164.832264 183.810858 
C 166.771009 182.515429 168.644984 181.125595 170.447419 179.646375 
z
" clip-path="url(#p4c026e7006)" style="fill: #828282"/>
   </g>
   <g id="patch_113">
    <path d="M 144.918459 161.3671 
C 143.714332 162.010719 142.47933 162.594832 141.217915 163.117327 
C 139.956501 163.639822 138.670193 164.10007 137.363638 164.496409 
L 138.110035 166.95695 
C 139.497127 166.53618 140.862724 166.047562 142.201893 165.49286 
C 143.541063 164.938157 144.852191 164.31804 146.130542 163.634747 
z
" clip-path="url(#p4c026e7006)" style="fill: #828282"/>
   </g>
   <g id="patch_114">
    <path d="M 135.678584 158.941528 
C 134.553849 159.282713 133.413041 159.568471 132.26028 159.797769 
C 131.107519 160.027067 129.944195 160.19963 128.77451 160.314834 
L 128.77451 160.314834 
C 129.944195 160.19963 131.107519 160.027067 132.26028 159.797769 
C 133.413041 159.568471 134.553849 159.282713 135.678584 158.941528 
z
" clip-path="url(#p4c026e7006)" style="fill: #828282"/>
   </g>
   <g id="patch_115">
    <path d="M 129.016503 162.77183 
C 127.766397 162.894955 126.510999 162.956628 125.254844 162.956628 
C 123.998689 162.956628 122.743291 162.894955 121.493184 162.77183 
L 121.279528 164.941118 
C 122.600639 165.071236 123.927341 165.136413 125.254844 165.136413 
C 126.582346 165.136413 127.909049 165.071236 129.230159 164.941118 
z
" clip-path="url(#p4c026e7006)" style="fill: #828282"/>
   </g>
   <g id="patch_116">
    <path d="M 122.72097 150.305913 
C 121.878892 150.222975 121.041393 150.098744 120.211499 149.933668 
C 119.381605 149.768592 118.560316 149.56287 117.750598 149.317244 
L 117.487424 150.184815 
C 118.325538 150.439055 119.17563 150.651992 120.034628 150.822857 
C 120.893627 150.993722 121.760497 151.12231 122.632107 151.208156 
z
" clip-path="url(#p4c026e7006)" style="fill: #828282"/>
   </g>
   <g id="patch_117">
    <path d="M 120.582102 139.983028 
C 120.077907 139.830082 119.581526 139.652474 119.09475 139.450845 
C 118.607974 139.249216 118.131391 139.023809 117.666723 138.775438 
L 116.441 141.068604 
C 116.980727 141.357094 117.534294 141.618912 118.099699 141.85311 
C 118.665104 142.087309 119.241667 142.293606 119.827306 142.471258 
z
" clip-path="url(#p4c026e7006)" style="fill: #828282"/>
   </g>
   <g id="patch_118">
    <path d="M 119.396777 135.538734 
C 119.038051 135.346991 118.688955 135.13775 118.35075 134.911769 
C 118.012545 134.685788 117.685639 134.443338 117.371213 134.185295 
L 117.371213 134.185295 
C 117.685639 134.443338 118.012545 134.685788 118.35075 134.911769 
C 118.688955 135.13775 119.038051 135.346991 119.396777 135.538734 
z
" clip-path="url(#p4c026e7006)" style="fill: #828282"/>
   </g>
   <g id="patch_119">
    <path d="M 119.510205 131.578925 
C 119.281089 131.390894 119.061343 131.191728 118.851761 130.982145 
C 118.642178 130.772563 118.443012 130.552817 118.254982 130.323701 
L 118.254982 130.323701 
C 118.443012 130.552817 118.642178 130.772563 118.851761 130.982145 
C 119.061343 131.191728 119.281089 131.390894 119.510205 131.578925 
z
" clip-path="url(#p4c026e7006)" style="fill: #828282"/>
   </g>
   <g id="patch_120">
    <path d="M 125.254844 124.579062 
C 125.254844 124.579062 125.254844 124.579062 125.254844 124.579062 
C 125.254844 124.579062 125.254844 124.579062 125.254844 124.579062 
L 117.315481 128.82274 
C 117.454383 129.082607 117.60596 129.335498 117.769664 129.580499 
C 117.933369 129.825501 118.109004 130.062317 118.295934 130.290092 
z
" clip-path="url(#p4c026e7006)" style="fill: #828282"/>
   </g>
   <g id="patch_121">
    <path d="M 122.646599 125.973198 
C 122.600967 125.887826 122.559554 125.800266 122.52251 125.710832 
C 122.485465 125.621399 122.452834 125.530201 122.424734 125.437567 
L 122.424734 125.437567 
C 122.452834 125.530201 122.485465 125.621399 122.52251 125.710832 
C 122.559554 125.800266 122.600967 125.887826 122.646599 125.973198 
z
" clip-path="url(#p4c026e7006)" style="fill: #828282"/>
   </g>
   <g id="patch_122">
    <path d="M 115.74261 127.464567 
C 115.648163 127.153217 115.56906 126.837418 115.505585 126.518311 
C 115.442111 126.199203 115.394342 125.877171 115.362451 125.553378 
L 115.362451 125.553378 
C 115.394342 125.877171 115.442111 126.199203 115.505585 126.518311 
C 115.56906 126.837418 115.648163 127.153217 115.74261 127.464567 
z
" clip-path="url(#p4c026e7006)" style="fill: #828282"/>
   </g>
   <g id="patch_123">
    <path d="M 115.417333 125.547973 
C 115.385619 125.225976 115.369734 124.902617 115.369734 124.579062 
C 115.369734 124.255508 115.385619 123.932149 115.417333 123.610152 
L 115.417333 123.610152 
C 115.385619 123.932149 115.369734 124.255508 115.369734 124.579062 
C 115.369734 124.902617 115.385619 125.225976 115.417333 125.547973 
z
" clip-path="url(#p4c026e7006)" style="fill: #828282"/>
   </g>
   <g id="patch_124">
    <path d="M 110.949178 123.170077 
C 110.995296 122.701832 111.064376 122.236132 111.156168 121.774662 
C 111.24796 121.313191 111.362354 120.856505 111.498936 120.406254 
L 111.498936 120.406254 
C 111.362354 120.856505 111.24796 121.313191 111.156168 121.774662 
C 111.064376 122.236132 110.995296 122.701832 110.949178 123.170077 
z
" clip-path="url(#p4c026e7006)" style="fill: #828282"/>
   </g>
   <g id="patch_125">
    <path d="M 105.849361 118.692474 
C 106.042038 118.057303 106.265784 117.431976 106.519791 116.818749 
C 106.773797 116.205523 107.057758 115.605137 107.370649 115.019761 
L 107.370649 115.019761 
C 107.057758 115.605137 106.773797 116.205523 106.519791 116.818749 
C 106.265784 117.431976 106.042038 118.057303 105.849361 118.692474 
z
" clip-path="url(#p4c026e7006)" style="fill: #828282"/>
   </g>
   <g id="patch_126">
    <path d="M 111.580981 117.27023 
C 111.82021 116.822664 112.081269 116.387114 112.363215 115.965151 
C 112.645161 115.543189 112.947654 115.135324 113.269603 114.743029 
L 113.269603 114.743029 
C 112.947654 115.135324 112.645161 115.543189 112.363215 115.965151 
C 112.081269 116.387114 111.82021 116.822664 111.580981 117.27023 
z
" clip-path="url(#p4c026e7006)" style="fill: #828282"/>
   </g>
   <g id="patch_127">
    <path d="M 112.016651 113.714758 
C 112.372256 113.281452 112.74892 112.865867 113.145284 112.469503 
C 113.541648 112.073139 113.957234 111.696474 114.39054 111.34087 
L 114.39054 111.34087 
C 113.957234 111.696474 113.541648 112.073139 113.145284 112.469503 
C 112.74892 112.865867 112.372256 113.281452 112.016651 113.714758 
z
" clip-path="url(#p4c026e7006)" style="fill: #828282"/>
   </g>
   <g id="patch_128">
    <path d="M 102.567764 96.934776 
C 103.472603 96.192194 104.413355 95.494485 105.386623 94.844168 
C 106.35989 94.193852 107.3645 93.591712 108.396823 93.039924 
L 108.396823 93.039924 
C 107.3645 93.591712 106.35989 94.193852 105.386623 94.844168 
C 104.413355 95.494485 103.472603 96.192194 102.567764 96.934776 
z
" clip-path="url(#p4c026e7006)" style="fill: #828282"/>
   </g>
   <g id="patch_129">
    <path d="M 104.671414 86.070174 
C 105.931867 85.396448 107.224639 84.785012 108.54506 84.238076 
C 109.865481 83.69114 111.211959 83.209362 112.57963 82.794484 
L 112.57963 82.794484 
C 111.211959 83.209362 109.865481 83.69114 108.54506 84.238076 
C 107.224639 84.785012 105.931867 85.396448 104.671414 86.070174 
z
" clip-path="url(#p4c026e7006)" style="fill: #828282"/>
   </g>
   <g id="patch_130">
    <path d="M 110.118375 74.680811 
C 111.751619 74.185372 113.408204 73.770419 115.082145 73.437451 
C 116.756086 73.104484 118.445366 72.853903 120.143884 72.686613 
L 120.143884 72.686613 
C 118.445366 72.853903 116.756086 73.104484 115.082145 73.437451 
C 113.408204 73.770419 111.751619 74.185372 110.118375 74.680811 
z
" clip-path="url(#p4c026e7006)" style="fill: #828282"/>
   </g>
   <g id="patch_131">
    <path d="M 125.254844 124.579062 
C 125.254844 124.579062 125.254844 124.579062 125.254844 124.579062 
C 125.254844 124.579062 125.254844 124.579062 125.254844 124.579062 
L 130.065398 75.73669 
C 128.466714 75.579233 126.861263 75.500362 125.254844 75.500362 
C 123.648425 75.500362 122.042974 75.579233 120.44429 75.73669 
L 125.254844 124.579062 
z
" clip-path="url(#p4c026e7006)" style="fill: none; stroke: #292929; stroke-width: 0.5; stroke-linejoin: miter"/>
   </g>
   <g id="patch_132">
    <path d="M 125.254844 124.579062 
C 125.254844 124.579062 125.254844 124.579062 125.254844 124.579062 
C 125.254844 124.579062 125.254844 124.579062 125.254844 124.579062 
L 141.280462 71.749681 
C 139.551277 71.225138 137.797381 70.78581 136.025109 70.433283 
C 134.252837 70.080756 132.464325 69.815456 130.666033 69.638339 
L 125.254844 124.579062 
z
" clip-path="url(#p4c026e7006)" style="fill: none; stroke: #292929; stroke-width: 0.5; stroke-linejoin: miter"/>
   </g>
   <g id="patch_133">
    <path d="M 125.254844 124.579062 
C 125.254844 124.579062 125.254844 124.579062 125.254844 124.579062 
C 125.254844 124.579062 125.254844 124.579062 125.254844 124.579062 
L 170.613489 39.719005 
C 167.835893 38.234349 164.987078 36.88696 162.077335 35.681705 
C 159.167592 34.47645 156.200428 33.414781 153.18656 32.500535 
L 125.254844 124.579062 
z
" clip-path="url(#p4c026e7006)" style="fill: none; stroke: #292929; stroke-width: 0.5; stroke-linejoin: miter"/>
   </g>
   <g id="patch_134">
    <path d="M 125.254844 124.579062 
C 125.254844 124.579062 125.254844 124.579062 125.254844 124.579062 
C 125.254844 124.579062 125.254844 124.579062 125.254844 124.579062 
L 179.808744 58.104942 
C 177.632947 56.319312 175.370792 54.641583 173.030449 53.077816 
C 170.690107 51.514049 168.274398 50.066129 165.792049 48.739286 
L 125.254844 124.579062 
z
" clip-path="url(#p4c026e7006)" style="fill: none; stroke: #292929; stroke-width: 0.5; stroke-linejoin: miter"/>
   </g>
   <g id="patch_135">
    <path d="M 125.254844 124.579062 
C 125.254844 124.579062 125.254844 124.579062 125.254844 124.579062 
C 125.254844 124.579062 125.254844 124.579062 125.254844 124.579062 
L 195.39507 67.016467 
C 193.51096 64.720672 191.515269 62.518766 189.415204 60.418702 
C 187.31514 58.318637 185.113234 56.322946 182.81744 54.438836 
L 125.254844 124.579062 
z
" clip-path="url(#p4c026e7006)" style="fill: none; stroke: #292929; stroke-width: 0.5; stroke-linejoin: miter"/>
   </g>
   <g id="patch_136">
    <path d="M 125.254844 124.579062 
C 125.254844 124.579062 125.254844 124.579062 125.254844 124.579062 
C 125.254844 124.579062 125.254844 124.579062 125.254844 124.579062 
L 218.651643 74.657433 
C 217.017633 71.600417 215.234518 68.625468 213.308736 65.743332 
C 211.382955 62.861197 209.31683 60.075349 207.117823 57.395852 
L 125.254844 124.579062 
z
" clip-path="url(#p4c026e7006)" style="fill: none; stroke: #292929; stroke-width: 0.5; stroke-linejoin: miter"/>
   </g>
   <g id="patch_137">
    <path d="M 125.254844 124.579062 
C 125.254844 124.579062 125.254844 124.579062 125.254844 124.579062 
C 125.254844 124.579062 125.254844 124.579062 125.254844 124.579062 
L 231.020747 92.495327 
C 229.970598 89.033451 228.751114 85.625221 227.366699 82.282947 
C 225.982284 78.940674 224.434607 75.668386 222.729258 72.477902 
L 125.254844 124.579062 
z
" clip-path="url(#p4c026e7006)" style="fill: none; stroke: #292929; stroke-width: 0.5; stroke-linejoin: miter"/>
   </g>
   <g id="patch_138">
    <path d="M 125.254844 124.579062 
C 125.254844 124.579062 125.254844 124.579062 125.254844 124.579062 
C 125.254844 124.579062 125.254844 124.579062 125.254844 124.579062 
L 227.436945 114.515004 
C 227.107533 111.170431 226.61411 107.844048 225.95846 104.547868 
C 225.302809 101.251688 224.48572 97.989686 223.510144 94.773643 
L 125.254844 124.579062 
z
" clip-path="url(#p4c026e7006)" style="fill: none; stroke: #292929; stroke-width: 0.5; stroke-linejoin: miter"/>
   </g>
   <g id="patch_139">
    <path d="M 125.254844 124.579062 
C 125.254844 124.579062 125.254844 124.579062 125.254844 124.579062 
C 125.254844 124.579062 125.254844 124.579062 125.254844 124.579062 
L 222.938204 134.200034 
C 223.253112 131.002711 223.410852 127.791855 223.410852 124.579062 
C 223.410852 121.36627 223.253112 118.155414 222.938204 114.958091 
L 125.254844 124.579062 
z
" clip-path="url(#p4c026e7006)" style="fill: none; stroke: #292929; stroke-width: 0.5; stroke-linejoin: miter"/>
   </g>
   <g id="patch_140">
    <path d="M 125.254844 124.579062 
C 125.254844 124.579062 125.254844 124.579062 125.254844 124.579062 
C 125.254844 124.579062 125.254844 124.579062 125.254844 124.579062 
L 215.308394 151.896508 
C 216.202535 148.948921 216.951419 145.959211 217.55234 142.938176 
C 218.153261 139.917141 218.605496 136.868424 218.90741 133.803035 
L 125.254844 124.579062 
z
" clip-path="url(#p4c026e7006)" style="fill: none; stroke: #292929; stroke-width: 0.5; stroke-linejoin: miter"/>
   </g>
   <g id="patch_141">
    <path d="M 125.254844 124.579062 
C 125.254844 124.579062 125.254844 124.579062 125.254844 124.579062 
C 125.254844 124.579062 125.254844 124.579062 125.254844 124.579062 
L 223.042272 176.847532 
C 224.753097 173.646803 226.305744 170.364007 227.694605 167.011001 
C 229.083465 163.657994 230.306865 160.23882 231.360386 156.765827 
L 125.254844 124.579062 
z
" clip-path="url(#p4c026e7006)" style="fill: none; stroke: #292929; stroke-width: 0.5; stroke-linejoin: miter"/>
   </g>
   <g id="patch_142">
    <path d="M 125.254844 124.579062 
C 125.254844 124.579062 125.254844 124.579062 125.254844 124.579062 
C 125.254844 124.579062 125.254844 124.579062 125.254844 124.579062 
L 186.068432 174.487485 
C 187.702009 172.496965 189.236873 170.427441 190.667479 168.286388 
C 192.098085 166.145335 193.422709 163.935333 194.636566 161.664366 
L 125.254844 124.579062 
z
" clip-path="url(#p4c026e7006)" style="fill: none; stroke: #292929; stroke-width: 0.5; stroke-linejoin: miter"/>
   </g>
   <g id="patch_143">
    <path d="M 125.254844 124.579062 
C 125.254844 124.579062 125.254844 124.579062 125.254844 124.579062 
C 125.254844 124.579062 125.254844 124.579062 125.254844 124.579062 
L 178.640844 189.630092 
C 180.770061 187.882689 182.812203 186.0318 184.759892 184.08411 
C 186.707581 182.136421 188.55847 180.09428 190.305873 177.965063 
L 125.254844 124.579062 
z
" clip-path="url(#p4c026e7006)" style="fill: none; stroke: #292929; stroke-width: 0.5; stroke-linejoin: miter"/>
   </g>
   <g id="patch_144">
    <path d="M 125.254844 124.579062 
C 125.254844 124.579062 125.254844 124.579062 125.254844 124.579062 
C 125.254844 124.579062 125.254844 124.579062 125.254844 124.579062 
L 158.835957 187.404906 
C 160.89234 186.305746 162.893519 185.106286 164.832264 183.810858 
C 166.771009 182.515429 168.644984 181.125595 170.447419 179.646375 
L 125.254844 124.579062 
z
" clip-path="url(#p4c026e7006)" style="fill: none; stroke: #292929; stroke-width: 0.5; stroke-linejoin: miter"/>
   </g>
   <g id="patch_145">
    <path d="M 125.254844 124.579062 
C 125.254844 124.579062 125.254844 124.579062 125.254844 124.579062 
C 125.254844 124.579062 125.254844 124.579062 125.254844 124.579062 
L 138.110035 166.95695 
C 139.497127 166.53618 140.862724 166.047562 142.201893 165.49286 
C 143.541063 164.938157 144.852191 164.31804 146.130542 163.634747 
L 125.254844 124.579062 
z
" clip-path="url(#p4c026e7006)" style="fill: none; stroke: #292929; stroke-width: 0.5; stroke-linejoin: miter"/>
   </g>
   <g id="patch_146">
    <path d="M 125.254844 124.579062 
C 125.254844 124.579062 125.254844 124.579062 125.254844 124.579062 
C 125.254844 124.579062 125.254844 124.579062 125.254844 124.579062 
L 128.77451 160.314834 
C 129.944195 160.19963 131.107519 160.027067 132.26028 159.797769 
C 133.413041 159.568471 134.553849 159.282713 135.678584 158.941528 
L 125.254844 124.579062 
z
" clip-path="url(#p4c026e7006)" style="fill: none; stroke: #292929; stroke-width: 0.5; stroke-linejoin: miter"/>
   </g>
   <g id="patch_147">
    <path d="M 125.254844 124.579062 
C 125.254844 124.579062 125.254844 124.579062 125.254844 124.579062 
C 125.254844 124.579062 125.254844 124.579062 125.254844 124.579062 
L 121.279528 164.941118 
C 122.600639 165.071236 123.927341 165.136413 125.254844 165.136413 
C 126.582346 165.136413 127.909049 165.071236 129.230159 164.941118 
L 125.254844 124.579062 
z
" clip-path="url(#p4c026e7006)" style="fill: none; stroke: #292929; stroke-width: 0.5; stroke-linejoin: miter"/>
   </g>
   <g id="patch_148">
    <path d="M 125.254844 124.579062 
C 125.254844 124.579062 125.254844 124.579062 125.254844 124.579062 
C 125.254844 124.579062 125.254844 124.579062 125.254844 124.579062 
L 117.487424 150.184815 
C 118.325538 150.439055 119.17563 150.651992 120.034628 150.822857 
C 120.893627 150.993722 121.760497 151.12231 122.632107 151.208156 
L 125.254844 124.579062 
z
" clip-path="url(#p4c026e7006)" style="fill: none; stroke: #292929; stroke-width: 0.5; stroke-linejoin: miter"/>
   </g>
   <g id="patch_149">
    <path d="M 125.254844 124.579062 
C 125.254844 124.579062 125.254844 124.579062 125.254844 124.579062 
C 125.254844 124.579062 125.254844 124.579062 125.254844 124.579062 
L 116.441 141.068604 
C 116.980727 141.357094 117.534294 141.618912 118.099699 141.85311 
C 118.665104 142.087309 119.241667 142.293606 119.827306 142.471258 
L 125.254844 124.579062 
z
" clip-path="url(#p4c026e7006)" style="fill: none; stroke: #292929; stroke-width: 0.5; stroke-linejoin: miter"/>
   </g>
   <g id="patch_150">
    <path d="M 125.254844 124.579062 
C 125.254844 124.579062 125.254844 124.579062 125.254844 124.579062 
C 125.254844 124.579062 125.254844 124.579062 125.254844 124.579062 
L 117.371213 134.185295 
C 117.685639 134.443338 118.012545 134.685788 118.35075 134.911769 
C 118.688955 135.13775 119.038051 135.346991 119.396777 135.538734 
L 125.254844 124.579062 
z
" clip-path="url(#p4c026e7006)" style="fill: none; stroke: #292929; stroke-width: 0.5; stroke-linejoin: miter"/>
   </g>
   <g id="patch_151">
    <path d="M 125.254844 124.579062 
C 125.254844 124.579062 125.254844 124.579062 125.254844 124.579062 
C 125.254844 124.579062 125.254844 124.579062 125.254844 124.579062 
L 118.254982 130.323701 
C 118.443012 130.552817 118.642178 130.772563 118.851761 130.982145 
C 119.061343 131.191728 119.281089 131.390894 119.510205 131.578925 
L 125.254844 124.579062 
z
" clip-path="url(#p4c026e7006)" style="fill: none; stroke: #292929; stroke-width: 0.5; stroke-linejoin: miter"/>
   </g>
   <g id="patch_152">
    <path d="M 125.254844 124.579062 
C 125.254844 124.579062 125.254844 124.579062 125.254844 124.579062 
C 125.254844 124.579062 125.254844 124.579062 125.254844 124.579062 
L 117.315481 128.82274 
C 117.454383 129.082607 117.60596 129.335498 117.769664 129.580499 
C 117.933369 129.825501 118.109004 130.062317 118.295934 130.290092 
L 125.254844 124.579062 
z
" clip-path="url(#p4c026e7006)" style="fill: none; stroke: #292929; stroke-width: 0.5; stroke-linejoin: miter"/>
   </g>
   <g id="patch_153">
    <path d="M 125.254844 124.579062 
C 125.254844 124.579062 125.254844 124.579062 125.254844 124.579062 
C 125.254844 124.579062 125.254844 124.579062 125.254844 124.579062 
L 122.424734 125.437567 
C 122.452834 125.530201 122.485465 125.621399 122.52251 125.710832 
C 122.559554 125.800266 122.600967 125.887826 122.646599 125.973198 
L 125.254844 124.579062 
z
" clip-path="url(#p4c026e7006)" style="fill: none; stroke: #292929; stroke-width: 0.5; stroke-linejoin: miter"/>
   </g>
   <g id="patch_154">
    <path d="M 125.254844 124.579062 
C 125.254844 124.579062 125.254844 124.579062 125.254844 124.579062 
C 125.254844 124.579062 125.254844 124.579062 125.254844 124.579062 
L 115.362451 125.553378 
C 115.394342 125.877171 115.442111 126.199203 115.505585 126.518311 
C 115.56906 126.837418 115.648163 127.153217 115.74261 127.464567 
L 125.254844 124.579062 
z
" clip-path="url(#p4c026e7006)" style="fill: none; stroke: #292929; stroke-width: 0.5; stroke-linejoin: miter"/>
   </g>
   <g id="patch_155">
    <path d="M 125.254844 124.579062 
C 125.254844 124.579062 125.254844 124.579062 125.254844 124.579062 
C 125.254844 124.579062 125.254844 124.579062 125.254844 124.579062 
L 115.417333 123.610152 
C 115.385619 123.932149 115.369734 124.255508 115.369734 124.579062 
C 115.369734 124.902617 115.385619 125.225976 115.417333 125.547973 
L 125.254844 124.579062 
z
" clip-path="url(#p4c026e7006)" style="fill: none; stroke: #292929; stroke-width: 0.5; stroke-linejoin: miter"/>
   </g>
   <g id="patch_156">
    <path d="M 125.254844 124.579062 
C 125.254844 124.579062 125.254844 124.579062 125.254844 124.579062 
C 125.254844 124.579062 125.254844 124.579062 125.254844 124.579062 
L 111.498936 120.406254 
C 111.362354 120.856505 111.24796 121.313191 111.156168 121.774662 
C 111.064376 122.236132 110.995296 122.701832 110.949178 123.170077 
L 125.254844 124.579062 
z
" clip-path="url(#p4c026e7006)" style="fill: none; stroke: #292929; stroke-width: 0.5; stroke-linejoin: miter"/>
   </g>
   <g id="patch_157">
    <path d="M 125.254844 124.579062 
C 125.254844 124.579062 125.254844 124.579062 125.254844 124.579062 
C 125.254844 124.579062 125.254844 124.579062 125.254844 124.579062 
L 107.370649 115.019761 
C 107.057758 115.605137 106.773797 116.205523 106.519791 116.818749 
C 106.265784 117.431976 106.042038 118.057303 105.849361 118.692474 
L 125.254844 124.579062 
z
" clip-path="url(#p4c026e7006)" style="fill: none; stroke: #292929; stroke-width: 0.5; stroke-linejoin: miter"/>
   </g>
   <g id="patch_158">
    <path d="M 125.254844 124.579062 
C 125.254844 124.579062 125.254844 124.579062 125.254844 124.579062 
C 125.254844 124.579062 125.254844 124.579062 125.254844 124.579062 
L 113.269603 114.743029 
C 112.947654 115.135324 112.645161 115.543189 112.363215 115.965151 
C 112.081269 116.387114 111.82021 116.822664 111.580981 117.27023 
L 125.254844 124.579062 
z
" clip-path="url(#p4c026e7006)" style="fill: none; stroke: #292929; stroke-width: 0.5; stroke-linejoin: miter"/>
   </g>
   <g id="patch_159">
    <path d="M 125.254844 124.579062 
C 125.254844 124.579062 125.254844 124.579062 125.254844 124.579062 
C 125.254844 124.579062 125.254844 124.579062 125.254844 124.579062 
L 114.39054 111.34087 
C 113.957234 111.696474 113.541648 112.073139 113.145284 112.469503 
C 112.74892 112.865867 112.372256 113.281452 112.016651 113.714758 
L 125.254844 124.579062 
z
" clip-path="url(#p4c026e7006)" style="fill: none; stroke: #292929; stroke-width: 0.5; stroke-linejoin: miter"/>
   </g>
   <g id="patch_160">
    <path d="M 125.254844 124.579062 
C 125.254844 124.579062 125.254844 124.579062 125.254844 124.579062 
C 125.254844 124.579062 125.254844 124.579062 125.254844 124.579062 
L 108.396823 93.039924 
C 107.3645 93.591712 106.35989 94.193852 105.386623 94.844168 
C 104.413355 95.494485 103.472603 96.192194 102.567764 96.934776 
L 125.254844 124.579062 
z
" clip-path="url(#p4c026e7006)" style="fill: none; stroke: #292929; stroke-width: 0.5; stroke-linejoin: miter"/>
   </g>
   <g id="patch_161">
    <path d="M 125.254844 124.579062 
C 125.254844 124.579062 125.254844 124.579062 125.254844 124.579062 
C 125.254844 124.579062 125.254844 124.579062 125.254844 124.579062 
L 112.57963 82.794484 
C 111.211959 83.209362 109.865481 83.69114 108.54506 84.238076 
C 107.224639 84.785012 105.931867 85.396448 104.671414 86.070174 
L 125.254844 124.579062 
z
" clip-path="url(#p4c026e7006)" style="fill: none; stroke: #292929; stroke-width: 0.5; stroke-linejoin: miter"/>
   </g>
   <g id="patch_162">
    <path d="M 125.254844 124.579062 
C 125.254844 124.579062 125.254844 124.579062 125.254844 124.579062 
C 125.254844 124.579062 125.254844 124.579062 125.254844 124.579062 
L 120.143884 72.686613 
C 118.445366 72.853903 116.756086 73.104484 115.082145 73.437451 
C 113.408204 73.770419 111.751619 74.185372 110.118375 74.680811 
L 125.254844 124.579062 
z
" clip-path="url(#p4c026e7006)" style="fill: none; stroke: #292929; stroke-width: 0.5; stroke-linejoin: miter"/>
   </g>
   <g id="PathCollection_1">
    <defs>
     <path id="m120381aa05" d="M 0.193618 7.414054 
L 0.193618 7.414054 
C 0.054922 7.414054 -0.078235 7.358899 -0.176308 7.260826 
C -0.274381 7.162753 -0.329536 7.029596 -0.329536 6.890901 
L -0.329536 5.365008 
L -1.528416 6.56393 
L -1.528416 6.56393 
C -1.577018 6.612704 -1.634775 6.651408 -1.698366 6.677814 
C -1.761958 6.704221 -1.830141 6.717815 -1.898997 6.717815 
C -1.967853 6.717815 -2.036037 6.704221 -2.099628 6.677814 
C -2.163219 6.651408 -2.220976 6.612704 -2.269578 6.56393 
L -2.269578 6.56393 
C -2.318353 6.515327 -2.357056 6.457571 -2.383463 6.393979 
C -2.409869 6.330388 -2.423463 6.262205 -2.423463 6.193348 
C -2.423463 6.124492 -2.409869 6.056309 -2.383463 5.992718 
C -2.357056 5.929126 -2.318353 5.87137 -2.269578 5.822767 
L -0.329536 3.884106 
L -0.329536 0.820937 
L -2.98067 2.351538 
L -3.691824 5.001416 
L -3.691824 5.001416 
C -3.727584 5.135411 -3.815199 5.249836 -3.93523 5.319305 
C -4.055261 5.388775 -4.198123 5.407741 -4.332122 5.371997 
L -4.332122 5.371997 
C -4.466126 5.336237 -4.580558 5.248616 -4.650029 5.128576 
C -4.719499 5.008535 -4.73846 4.865662 -4.702703 4.731657 
L -4.262647 3.092721 
L -5.585535 3.855668 
L -5.585535 3.855668 
C -5.645013 3.890144 -5.710708 3.912561 -5.778854 3.921634 
C -5.847001 3.930706 -5.916272 3.926258 -5.982698 3.908543 
C -6.049125 3.890828 -6.111412 3.860192 -6.165991 3.818391 
C -6.220571 3.77659 -6.266379 3.724437 -6.300791 3.664922 
L -6.300791 3.664922 
C -6.335212 3.605364 -6.35755 3.539597 -6.366524 3.471396 
C -6.375498 3.403194 -6.370933 3.333888 -6.35309 3.267452 
C -6.335248 3.201017 -6.304476 3.138749 -6.26254 3.08422 
C -6.220605 3.029692 -6.168323 2.983966 -6.108695 2.949666 
L -4.785807 2.186762 
L -6.424743 1.746706 
L -6.424743 1.746706 
C -6.558747 1.710946 -6.673179 1.623325 -6.74265 1.503284 
C -6.81212 1.383244 -6.831081 1.240371 -6.795324 1.106366 
L -6.795324 1.106366 
C -6.777471 1.039969 -6.746703 0.977739 -6.704784 0.923241 
C -6.662864 0.868744 -6.61061 0.823041 -6.551015 0.788752 
C -6.491421 0.754464 -6.425647 0.732257 -6.357465 0.723406 
C -6.289282 0.714554 -6.220019 0.71923 -6.153645 0.737166 
L -3.505232 1.44698 
L -0.852424 -0.08496 
L -3.503767 -1.615666 
L -6.153645 -0.905851 
L -6.153645 -0.905851 
C -6.22011 -0.887939 -6.289462 -0.883321 -6.357716 -0.892262 
C -6.42597 -0.901202 -6.491793 -0.923527 -6.551403 -0.957953 
C -6.611013 -0.992379 -6.663247 -1.038234 -6.705103 -1.092883 
C -6.746958 -1.147533 -6.777619 -1.209911 -6.795324 -1.276432 
L -6.795324 -1.276432 
C -6.831068 -1.410431 -6.812101 -1.553293 -6.742632 -1.673324 
C -6.673162 -1.793355 -6.558738 -1.88097 -6.424743 -1.91673 
L -4.785807 -2.355447 
L -6.108695 -3.119732 
L -6.108695 -3.119732 
C -6.228699 -3.188976 -6.316415 -3.303132 -6.352417 -3.436921 
C -6.388419 -3.57071 -6.369839 -3.713469 -6.300791 -3.833586 
L -6.300791 -3.833586 
C -6.266491 -3.893214 -6.220765 -3.945496 -6.166237 -3.987431 
C -6.111708 -4.029367 -6.04944 -4.060139 -5.983005 -4.077981 
C -5.91657 -4.095823 -5.847263 -4.100389 -5.779062 -4.091415 
C -5.71086 -4.082441 -5.645094 -4.060102 -5.585535 -4.025682 
L -4.262647 -3.261396 
L -4.702703 -4.900332 
L -4.702703 -4.900332 
C -4.73846 -5.034337 -4.719499 -5.17721 -4.650029 -5.29725 
C -4.580558 -5.417291 -4.466126 -5.504912 -4.332122 -5.540672 
L -4.332122 -5.540672 
C -4.19831 -5.576464 -4.055613 -5.557686 -3.935617 -5.488496 
C -3.81562 -5.419305 -3.727882 -5.305212 -3.691824 -5.171472 
L -2.982009 -2.521594 
L -0.329411 -0.990302 
L -0.329411 -4.051588 
L -2.269453 -5.991589 
L -2.269453 -5.991589 
C -2.318227 -6.040191 -2.356931 -6.097947 -2.383337 -6.161539 
C -2.409744 -6.22513 -2.423338 -6.293314 -2.423338 -6.36217 
C -2.423338 -6.431026 -2.409744 -6.499209 -2.383337 -6.5628 
C -2.356931 -6.626392 -2.318227 -6.684149 -2.269453 -6.732751 
L -2.269453 -6.732751 
C -2.22085 -6.781526 -2.163094 -6.820229 -2.099502 -6.846635 
C -2.035911 -6.873042 -1.967728 -6.886636 -1.898871 -6.886636 
C -1.830015 -6.886636 -1.761832 -6.873042 -1.698241 -6.846635 
C -1.634649 -6.820229 -1.576893 -6.781526 -1.52829 -6.732751 
L -0.329411 -5.533829 
L -0.329411 -7.059722 
L -0.329411 -7.059722 
C -0.329411 -7.198418 -0.274255 -7.331575 -0.176182 -7.429647 
C -0.07811 -7.52772 0.055047 -7.582875 0.193743 -7.582875 
L 0.193743 -7.582875 
C 0.332439 -7.582875 0.465596 -7.52772 0.563669 -7.429647 
C 0.661741 -7.331575 0.716897 -7.198418 0.716897 -7.059722 
L 0.716897 -5.533829 
L 1.915777 -6.732751 
L 1.915777 -6.732751 
C 1.964379 -6.781526 2.022136 -6.820229 2.085727 -6.846635 
C 2.149318 -6.873042 2.217502 -6.886636 2.286358 -6.886636 
C 2.355214 -6.886636 2.423397 -6.873042 2.486989 -6.846635 
C 2.55058 -6.820229 2.608337 -6.781526 2.656939 -6.732751 
L 2.656939 -6.732751 
C 2.705714 -6.684149 2.744417 -6.626392 2.770823 -6.5628 
C 2.79723 -6.499209 2.810824 -6.431026 2.810824 -6.36217 
C 2.810824 -6.293314 2.79723 -6.22513 2.770823 -6.161539 
C 2.744417 -6.097947 2.705714 -6.040191 2.656939 -5.991589 
L 0.716897 -4.051588 
L 0.716897 -0.991139 
L 3.369495 -2.522954 
L 4.07931 -5.171367 
L 4.07931 -5.171367 
C 4.115368 -5.305107 4.203106 -5.4192 4.323103 -5.488391 
C 4.4431 -5.557582 4.585797 -5.576359 4.719608 -5.540567 
L 4.719608 -5.540567 
C 4.853612 -5.504807 4.968045 -5.417186 5.037515 -5.297146 
C 5.106986 -5.177105 5.125946 -5.034232 5.090189 -4.900227 
L 4.650133 -3.262673 
L 5.973022 -4.025577 
L 5.973022 -4.025577 
C 6.03258 -4.059998 6.098346 -4.082336 6.166548 -4.09131 
C 6.234749 -4.100284 6.304056 -4.095719 6.370491 -4.077876 
C 6.436926 -4.060034 6.499194 -4.029262 6.553723 -3.987327 
C 6.608252 -3.945391 6.653978 -3.893109 6.688277 -3.833481 
L 6.688277 -3.833481 
C 6.757325 -3.713365 6.775905 -3.570605 6.739903 -3.436816 
C 6.703901 -3.303027 6.616186 -3.188871 6.496181 -3.119628 
L 5.173293 -2.355342 
L 6.812229 -1.916625 
L 6.812229 -1.916625 
C 6.946224 -1.880865 7.060649 -1.79325 7.130118 -1.67322 
C 7.199588 -1.553189 7.218554 -1.410326 7.18281 -1.276327 
L 7.18281 -1.276327 
C 7.165106 -1.209806 7.134445 -1.147429 7.092589 -1.092779 
C 7.050733 -1.038129 6.998499 -0.992274 6.938889 -0.957848 
C 6.879279 -0.923422 6.813456 -0.901098 6.745202 -0.892157 
C 6.676949 -0.883217 6.607597 -0.887835 6.541131 -0.905746 
L 3.891253 -1.615561 
L 1.239492 -0.084604 
L 3.892718 1.447085 
L 6.541131 0.73727 
L 6.541131 0.73727 
C 6.674948 0.701466 6.817656 0.720237 6.937662 0.789429 
C 7.057669 0.858621 7.145413 0.972721 7.181471 1.10647 
L 7.181471 1.10647 
C 7.217274 1.240293 7.198497 1.383006 7.129297 1.503014 
C 7.060096 1.623021 6.945986 1.710762 6.812229 1.74681 
L 5.173293 2.186866 
L 6.496181 2.949771 
L 6.496181 2.949771 
C 6.555697 2.984183 6.607849 3.029991 6.649651 3.08457 
C 6.691452 3.13915 6.722088 3.201437 6.739803 3.267863 
C 6.757517 3.33429 6.761966 3.403561 6.752893 3.471707 
C 6.743821 3.539854 6.721404 3.605549 6.686927 3.665026 
L 6.686927 3.665026 
C 6.617458 3.784813 6.503196 3.87225 6.369416 3.907994 
C 6.235636 3.943739 6.092989 3.924946 5.973032 3.855772 
L 4.650144 3.091487 
L 5.08886 4.731783 
L 5.08886 4.731783 
C 5.124664 4.865606 5.105887 5.008319 5.036686 5.128326 
C 4.967486 5.248334 4.853376 5.336074 4.719619 5.372123 
L 4.719619 5.372123 
C 4.585619 5.407867 4.442757 5.3889 4.322726 5.319431 
C 4.202695 5.249961 4.115081 5.135537 4.07932 5.001542 
L 3.368166 2.351664 
L 0.717033 0.821063 
L 0.717033 3.884232 
L 2.657075 5.822893 
L 2.657075 5.822893 
C 2.70585 5.871495 2.744553 5.929252 2.770959 5.992843 
C 2.797366 6.056435 2.81096 6.124618 2.81096 6.193474 
C 2.81096 6.26233 2.797366 6.330514 2.770959 6.394105 
C 2.744553 6.457696 2.70585 6.515453 2.657075 6.564055 
L 2.657075 6.564055 
C 2.608473 6.61283 2.550716 6.651533 2.487125 6.67794 
C 2.423533 6.704346 2.35535 6.71794 2.286494 6.71794 
C 2.217638 6.71794 2.149454 6.704346 2.085863 6.67794 
C 2.022272 6.651533 1.964515 6.61283 1.915913 6.564055 
L 0.717033 5.365133 
L 0.717033 6.891026 
L 0.717033 6.891026 
C 0.717033 7.029722 0.661877 7.162879 0.563805 7.260952 
C 0.465732 7.359024 0.332575 7.41418 0.193879 7.41418 
L 0.193618 7.414054 
z
"/>
    </defs>
    <g clip-path="url(#p4c026e7006)">
     <use xlink:href="#m120381aa05" x="199.522519" y="107.394276" style="fill: #9e2096; fill-opacity: 0.7"/>
    </g>
   </g>
   <g id="patch_163">
    <path d="M 125.254844 13.699062 
C 110.694216 13.699062 96.275171 16.567189 82.822905 22.1393 
C 69.370638 27.711411 57.146763 35.879144 46.850844 46.175063 
C 36.554925 56.470982 28.387192 68.694857 22.815081 82.147124 
C 17.24297 95.59939 14.374844 110.018434 14.374844 124.579063 
C 14.374844 139.139691 17.24297 153.558735 22.815081 167.011001 
C 28.387192 180.463268 36.554925 192.687143 46.850844 202.983062 
C 57.146763 213.278981 69.370638 221.446714 82.822905 227.018825 
C 96.275171 232.590936 110.694216 235.459063 125.254844 235.459063 
C 139.815472 235.459063 154.234516 232.590936 167.686783 227.018825 
C 181.139049 221.446714 193.362925 213.278981 203.658844 202.983062 
C 213.954763 192.687143 222.122495 180.463268 227.694606 167.011001 
C 233.266717 153.558735 236.134844 139.139691 236.134844 124.579062 
C 236.134844 110.018434 233.266717 95.59939 227.694606 82.147124 
C 222.122495 68.694857 213.954763 56.470982 203.658844 46.175063 
C 193.362925 35.879144 181.139049 27.711411 167.686783 22.1393 
C 154.234516 16.567189 139.815472 13.699062 125.254844 13.699062 
" style="fill: none; stroke: #000000; stroke-width: 0.8; stroke-linejoin: miter; stroke-linecap: square"/>
   </g>
  </g>
 </g>
 <defs>
  <clipPath id="p4c026e7006">
   <path d="M 236.134844 124.579063 
C 236.134844 110.018434 233.266717 95.59939 227.694606 82.147124 
C 222.122495 68.694857 213.954763 56.470982 203.658844 46.175063 
C 193.362925 35.879144 181.139049 27.711411 167.686783 22.1393 
C 154.234516 16.567189 139.815472 13.699062 125.254844 13.699062 
C 110.694216 13.699062 96.275171 16.567189 82.822905 22.1393 
C 69.370638 27.711411 57.146763 35.879144 46.850844 46.175063 
C 36.554925 56.470982 28.387192 68.694857 22.815081 82.147124 
C 17.24297 95.59939 14.374844 110.018434 14.374844 124.579062 
C 14.374844 139.139691 17.24297 153.558735 22.815081 167.011001 
C 28.387192 180.463268 36.554925 192.687143 46.850844 202.983062 
C 57.146763 213.278981 69.370638 221.446714 82.822905 227.018825 
C 96.275171 232.590936 110.694216 235.459063 125.254844 235.459063 
C 139.815472 235.459063 154.234516 232.590936 167.686783 227.018825 
C 181.139049 221.446714 193.362925 213.278981 203.658844 202.983062 
C 213.954763 192.687143 222.122495 180.463268 227.694606 167.011001 
C 233.266717 153.558735 236.134844 139.139691 236.134844 124.579063 
M 125.254844 124.579063 
C 125.254844 124.579063 125.254844 124.579063 125.254844 124.579063 
C 125.254844 124.579063 125.254844 124.579063 125.254844 124.579063 
C 125.254844 124.579063 125.254844 124.579063 125.254844 124.579063 
C 125.254844 124.579063 125.254844 124.579063 125.254844 124.579063 
C 125.254844 124.579063 125.254844 124.579063 125.254844 124.579063 
C 125.254844 124.579063 125.254844 124.579063 125.254844 124.579063 
C 125.254844 124.579063 125.254844 124.579063 125.254844 124.579063 
C 125.254844 124.579063 125.254844 124.579063 125.254844 124.579063 
C 125.254844 124.579063 125.254844 124.579063 125.254844 124.579063 
C 125.254844 124.579063 125.254844 124.579063 125.254844 124.579063 
C 125.254844 124.579063 125.254844 124.579063 125.254844 124.579063 
C 125.254844 124.579063 125.254844 124.579063 125.254844 124.579063 
C 125.254844 124.579063 125.254844 124.579063 125.254844 124.579063 
C 125.254844 124.579063 125.254844 124.579063 125.254844 124.579063 
C 125.254844 124.579063 125.254844 124.579063 125.254844 124.579063 
C 125.254844 124.579063 125.254844 124.579063 125.254844 124.579063 
z
"/>
  </clipPath>
 </defs>
</svg>
