<?xml version="1.0" encoding="utf-8" standalone="no"?>
<!DOCTYPE svg PUBLIC "-//W3C//DTD SVG 1.1//EN"
  "http://www.w3.org/Graphics/SVG/1.1/DTD/svg11.dtd">
<svg xmlns:xlink="http://www.w3.org/1999/xlink" width="248.410469pt" height="249.158125pt" viewBox="0 0 248.410469 249.158125" xmlns="http://www.w3.org/2000/svg" version="1.1">
 <title>Ski Rose for Czorsztyn-Ski Kluszkowce</title>
 <metadata>
  <rdf:RDF xmlns:dc="http://purl.org/dc/elements/1.1/" xmlns:cc="http://creativecommons.org/ns#" xmlns:rdf="http://www.w3.org/1999/02/22-rdf-syntax-ns#">
   <cc:Work>
    <dc:type rdf:resource="http://purl.org/dc/dcmitype/StillImage"/>
    <dc:title>Ski Rose for Czorsztyn-Ski Kluszkowce</dc:title>
    <dc:date>2025-10-18T10:28:21.559510</dc:date>
    <dc:description>A 32-bin stacked histogram of downhill ski run orientations colored by difficulty.</dc:description>
    <dc:format>image/svg+xml</dc:format>
    <dc:source>https://openskimap.org/?obj=422222b4845dfd8777f77fb0d540386ce0683eec</dc:source>
    <dc:creator>
     <cc:Agent>
      <dc:title>https://github.com/dhimmel/openskistats</dc:title>
     </cc:Agent>
    </dc:creator>
    <dc:rights>
     <cc:Agent>
      <dc:title>https://creativecommons.org/licenses/by/4.0/</dc:title>
     </cc:Agent>
    </dc:rights>
   </cc:Work>
  </rdf:RDF>
 </metadata>
 <defs>
  <style type="text/css">*{stroke-linejoin: round; stroke-linecap: butt}</style>
 </defs>
 <g id="figure_1">
  <g id="patch_1">
   <path d="M 0 249.158125 
L 248.410469 249.158125 
L 248.410469 0 
L 0 0 
z
" style="fill: #ffffff"/>
  </g>
  <g id="axes_1">
   <g id="patch_2">
    <path d="M 236.134844 124.579063 
C 236.134844 110.018434 233.266717 95.59939 227.694606 82.147124 
C 222.122495 68.694857 213.954763 56.470982 203.658844 46.175063 
C 193.362925 35.879144 181.139049 27.711411 167.686783 22.1393 
C 154.234516 16.567189 139.815472 13.699062 125.254844 13.699062 
C 110.694216 13.699062 96.275171 16.567189 82.822905 22.1393 
C 69.370638 27.711411 57.146763 35.879144 46.850844 46.175063 
C 36.554925 56.470982 28.387192 68.694857 22.815081 82.147124 
C 17.24297 95.59939 14.374844 110.018434 14.374844 124.579062 
C 14.374844 139.139691 17.24297 153.558735 22.815081 167.011001 
C 28.387192 180.463268 36.554925 192.687143 46.850844 202.983062 
C 57.146763 213.278981 69.370638 221.446714 82.822905 227.018825 
C 96.275171 232.590936 110.694216 235.459063 125.254844 235.459063 
C 139.815472 235.459063 154.234516 232.590936 167.686783 227.018825 
C 181.139049 221.446714 193.362925 213.278981 203.658844 202.983062 
C 213.954763 192.687143 222.122495 180.463268 227.694606 167.011001 
C 233.266717 153.558735 236.134844 139.139691 236.134844 124.579063 
M 125.254844 124.579063 
C 125.254844 124.579063 125.254844 124.579063 125.254844 124.579063 
C 125.254844 124.579063 125.254844 124.579063 125.254844 124.579063 
C 125.254844 124.579063 125.254844 124.579063 125.254844 124.579063 
C 125.254844 124.579063 125.254844 124.579063 125.254844 124.579063 
C 125.254844 124.579063 125.254844 124.579063 125.254844 124.579063 
C 125.254844 124.579063 125.254844 124.579063 125.254844 124.579063 
C 125.254844 124.579063 125.254844 124.579063 125.254844 124.579063 
C 125.254844 124.579063 125.254844 124.579063 125.254844 124.579063 
C 125.254844 124.579063 125.254844 124.579063 125.254844 124.579063 
C 125.254844 124.579063 125.254844 124.579063 125.254844 124.579063 
C 125.254844 124.579063 125.254844 124.579063 125.254844 124.579063 
C 125.254844 124.579063 125.254844 124.579063 125.254844 124.579063 
C 125.254844 124.579063 125.254844 124.579063 125.254844 124.579063 
C 125.254844 124.579063 125.254844 124.579063 125.254844 124.579063 
C 125.254844 124.579063 125.254844 124.579063 125.254844 124.579063 
C 125.254844 124.579063 125.254844 124.579063 125.254844 124.579063 
z
" style="fill: #ffffff"/>
   </g>
   <g id="PolyCollection_1">
    <defs>
     <path id="m604b5a4d76" d="M 235.149323 -139.046945 
L 235.149323 -139.046945 
L 234.53209 -137.029632 
L 233.658663 -135.017163 
L 232.896293 -133.050628 
L 232.079128 -131.112716 
L 231.214058 -129.205342 
L 230.110624 -127.324808 
L 229.162112 -125.485847 
L 228.177437 -123.680871 
L 227.158825 -121.910613 
L 225.91035 -120.184348 
L 224.829507 -118.488815 
L 223.720172 -116.829673 
L 222.583841 -115.207346 
L 221.421952 -113.622204 
L 220.040053 -112.100353 
L 218.832069 -110.593853 
L 217.602774 -109.125319 
L 216.353493 -107.694926 
L 215.085539 -106.302801 
L 213.800214 -104.949026 
L 212.49881 -103.633639 
L 211.182611 -102.356631 
L 209.852892 -101.117947 
L 208.510919 -99.91749 
L 207.339521 -98.697863 
L 205.974712 -97.570572 
L 204.601279 -96.481016 
L 203.22045 -95.428917 
L 202.006215 -94.345894 
L 200.6117 -93.365231 
L 199.381173 -92.348017 
L 197.97731 -91.437525 
L 196.734392 -90.485067 
L 195.325412 -89.643166 
L 194.073903 -88.754128 
L 192.663911 -87.978925 
L 191.407491 -87.151695 
L 190.148485 -86.353786 
L 188.887688 -85.584806 
L 187.483926 -84.934765 
L 186.225003 -84.223795 
L 184.966629 -83.54029 
L 183.709524 -82.883744 
L 182.454387 -82.253627 
L 181.201895 -81.64938 
L 179.9527 -81.070423 
L 178.707434 -80.516147 
L 177.581923 -79.887515 
L 176.342747 -79.380304 
L 175.1092 -78.895962 
L 173.881809 -78.433795 
L 172.762357 -77.89356 
L 171.545079 -77.473777 
L 170.335345 -77.074126 
L 169.22429 -76.594832 
L 168.027136 -76.23378 
L 166.922468 -75.792543 
L 165.739262 -75.467536 
L 164.642242 -75.062317 
L 163.547869 -74.67462 
L 162.385831 -74.399413 
L 161.300661 -74.04469 
L 160.155027 -73.798981 
L 159.079842 -73.475065 
L 158.008352 -73.166353 
L 156.940714 -72.872421 
L 155.825877 -72.679747 
L 154.769263 -72.412503 
L 153.716804 -72.158653 
L 152.668573 -71.917779 
L 151.624625 -71.689464 
L 150.584994 -71.473298 
L 149.549697 -71.268873 
L 148.518728 -71.075791 
L 147.492066 -70.893658 
L 146.469669 -70.72209 
L 145.451478 -70.560711 
L 144.437414 -70.409155 
L 143.427383 -70.267068 
L 142.421272 -70.134107 
L 141.418954 -70.009942 
L 140.420283 -69.894257 
L 139.425099 -69.78675 
L 138.43323 -69.687135 
L 137.444486 -69.595142 
L 136.458666 -69.510517 
L 135.475558 -69.433025 
L 134.494936 -69.362449 
L 133.516566 -69.298591 
L 132.543487 -69.216321 
L 131.568029 -69.168946 
L 130.594188 -69.127848 
L 129.621699 -69.092905 
L 128.65029 -69.064015 
L 127.679684 -69.041098 
L 126.709717 -69.019705 
L 125.739768 -69.01227 
L 124.769926 -69.012977 
L 123.8001 -69.02465 
L 122.830052 -69.042202 
L 121.859499 -69.065669 
L 120.888162 -69.095108 
L 119.915764 -69.130599 
L 118.94445 -69.193445 
L 117.969966 -69.244926 
L 116.993749 -69.302784 
L 116.015543 -69.367177 
L 115.035105 -69.438284 
L 114.052199 -69.516303 
L 113.0666 -69.601449 
L 112.078096 -69.693959 
L 111.09869 -69.841277 
L 110.105532 -69.952408 
L 109.109008 -70.071634 
L 108.108955 -70.199251 
L 107.105225 -70.335571 
L 106.097687 -70.480921 
L 105.086224 -70.635638 
L 104.070737 -70.800075 
L 103.051145 -70.974592 
L 102.027385 -71.159564 
L 100.99941 -71.35537 
L 99.967194 -71.562401 
L 98.930729 -71.781056 
L 97.848016 -71.931036 
L 96.800292 -72.172297 
L 95.748356 -72.426523 
L 94.692283 -72.69413 
L 93.632165 -72.97554 
L 92.568115 -73.271176 
L 91.440147 -73.490628 
L 90.365571 -73.814855 
L 89.287491 -74.154694 
L 88.136151 -74.416028 
L 87.048511 -74.7876 
L 85.957995 -75.176153 
L 84.784876 -75.485066 
L 83.686196 -75.908429 
L 82.498573 -76.25189 
L 81.392888 -76.712138 
L 80.192011 -77.092745 
L 79.080668 -77.59188 
L 77.868002 -78.012143 
L 76.648235 -78.453113 
L 75.529743 -79.014403 
L 74.300795 -79.498728 
L 73.066205 -80.005754 
L 71.826525 -80.536156 
L 70.582334 -81.090585 
L 69.334237 -81.669672 
L 68.082864 -82.274023 
L 66.828868 -82.904219 
L 65.572928 -83.560818 
L 64.31574 -84.24435 
L 63.058024 -84.955318 
L 61.80052 -85.694203 
L 60.543984 -86.461453 
L 59.289191 -87.257492 
L 57.883327 -87.999313 
L 56.631625 -88.856076 
L 55.384165 -89.742827 
L 53.979741 -90.582582 
L 52.74075 -91.532486 
L 51.341307 -92.440542 
L 50.114577 -93.454945 
L 48.724339 -94.432895 
L 47.33911 -95.447564 
L 46.137062 -96.561987 
L 44.767676 -97.648433 
L 43.406833 -98.772484 
L 42.055771 -99.934374 
L 40.900629 -101.185568 
L 39.574626 -102.420652 
L 38.262056 -103.693942 
L 36.96419 -105.005496 
L 35.682311 -106.355325 
L 34.417707 -107.743394 
L 33.171676 -109.169625 
L 31.945528 -110.633892 
L 30.740581 -112.136024 
L 29.362065 -113.65346 
L 28.202963 -115.234029 
L 27.069279 -116.851691 
L 25.962435 -118.506079 
L 24.883904 -120.196773 
L 23.637896 -121.918129 
L 22.621084 -123.683391 
L 21.637863 -125.483314 
L 20.690345 -127.31718 
L 19.587286 -129.192608 
L 18.721438 -131.094925 
L 17.902008 -133.027914 
L 17.135149 -134.989805 
L 16.252426 -136.998319 
L 15.625574 -139.01203 
L 15.457994 -139.034092 
L 15.457994 -139.034092 
L 15.132976 -137.125864 
L 14.918141 -135.203279 
L 14.735915 -133.277091 
L 14.586298 -131.347841 
L 14.561694 -129.41203 
L 14.477812 -127.479861 
L 14.42623 -125.546249 
L 14.501402 -123.612532 
L 14.440499 -121.677287 
L 14.486606 -119.742817 
L 14.732969 -117.819255 
L 14.770613 -115.883765 
L 14.911611 -113.954218 
L 15.250629 -112.045665 
L 15.386102 -110.114568 
L 15.62004 -108.194031 
L 16.049108 -106.30429 
L 16.282023 -104.382144 
L 16.608127 -102.474638 
L 17.126105 -100.607498 
L 17.456621 -98.698999 
L 17.928889 -96.822683 
L 18.482103 -94.968361 
L 18.961302 -93.093481 
L 19.576715 -91.258877 
L 20.118368 -89.40089 
L 20.737957 -87.567692 
L 21.445196 -85.766226 
L 22.124283 -83.954854 
L 22.8922 -82.179067 
L 23.590172 -80.374005 
L 24.363714 -78.600326 
L 25.223684 -76.866647 
L 26.063336 -75.124001 
L 26.984805 -73.422918 
L 27.849125 -71.692072 
L 28.797135 -70.005917 
L 29.736579 -68.314505 
L 30.768421 -66.677708 
L 31.786759 -65.033325 
L 32.810682 -63.391607 
L 33.877535 -61.777178 
L 34.986538 -60.191306 
L 36.127172 -58.628055 
L 37.318675 -57.103267 
L 39.09902 -56.047626 
L 40.845967 -54.997754 
L 42.662629 -54.038648 
L 44.439157 -53.079383 
L 46.223592 -52.160263 
L 48.066002 -51.329587 
L 49.856165 -50.484988 
L 51.646708 -49.674879 
L 53.43619 -48.897993 
L 55.223433 -48.153189 
L 57.007449 -47.439416 
L 58.743335 -46.704091 
L 60.520157 -46.049608 
L 62.291559 -45.423366 
L 64.05698 -44.824454 
L 65.782528 -44.206841 
L 67.536209 -43.66052 
L 69.248485 -43.089305 
L 70.96025 -42.548879 
L 72.694394 -42.075682 
L 74.391089 -41.576958 
L 76.086251 -41.107356 
L 77.772334 -40.65401 
L 79.456349 -40.228727 
L 81.154359 -39.862819 
L 82.821878 -39.471701 
L 84.486782 -39.107044 
L 86.126635 -38.720044 
L 87.777699 -38.387531 
L 89.425779 -38.080048 
L 91.064945 -37.782949 
L 92.701035 -37.509945 
L 94.31855 -37.217664 
L 95.941563 -36.970902 
L 97.561494 -36.74698 
L 99.166512 -36.50633 
L 100.77443 -36.305542 
L 102.371998 -36.097664 
L 103.972996 -35.933785 
L 105.563538 -35.757322 
L 107.154507 -35.613067 
L 108.738835 -35.466656 
L 110.324158 -35.356805 
L 111.902942 -35.2394 
L 113.480815 -35.146432 
L 115.055097 -35.057036 
L 116.627645 -34.982181 
L 118.199672 -34.934611 
L 119.769029 -34.886792 
L 121.337325 -34.853126 
L 122.904751 -34.832656 
L 124.471575 -34.825394 
L 126.038111 -34.825469 
L 127.604932 -34.832805 
L 129.172349 -34.85345 
L 130.740632 -34.887219 
L 132.309973 -34.93514 
L 133.881998 -34.982644 
L 135.454529 -35.057571 
L 137.028793 -35.147038 
L 138.606603 -35.240356 
L 140.185353 -35.357858 
L 141.770698 -35.46749 
L 143.354997 -35.613969 
L 144.945848 -35.758683 
L 146.536343 -35.935237 
L 148.137401 -36.098778 
L 149.734932 -36.306717 
L 151.342661 -36.508066 
L 152.94762 -36.748798 
L 154.567666 -36.972271 
L 156.19043 -37.219662 
L 157.807878 -37.512018 
L 159.444134 -37.784493 
L 161.082983 -38.082283 
L 162.731269 -38.389186 
L 164.381966 -38.722429 
L 166.042438 -39.066093 
L 167.686913 -39.473497 
L 169.377609 -39.820019 
L 171.051934 -40.231315 
L 172.736263 -40.655939 
L 174.421881 -41.109997 
L 176.117374 -41.578957 
L 177.813586 -42.078363 
L 179.54765 -42.551581 
L 181.259767 -43.091393 
L 182.971536 -43.663245 
L 184.725135 -44.209576 
L 186.485647 -44.781527 
L 188.216405 -45.425532 
L 189.987733 -46.051788 
L 191.764481 -46.706282 
L 193.499823 -47.442146 
L 195.283763 -48.155908 
L 197.070932 -48.900696 
L 198.860343 -49.677562 
L 200.650819 -50.487644 
L 202.44092 -51.332211 
L 204.283766 -52.162397 
L 206.068158 -53.081482 
L 207.844655 -54.0407 
L 209.660833 -55.000134 
L 211.407801 -56.049906 
L 213.188628 -57.105096 
L 214.384572 -58.626533 
L 215.517405 -60.195403 
L 216.628006 -61.780028 
L 217.689488 -63.397906 
L 218.740626 -65.022051 
L 219.793039 -66.645982 
L 220.791789 -68.303501 
L 221.749674 -69.984914 
L 222.627365 -71.710097 
L 223.601796 -73.382879 
L 224.479549 -75.10745 
L 225.285885 -76.866703 
L 226.099746 -78.621393 
L 226.86622 -80.397179 
L 227.67782 -82.154077 
L 228.404315 -83.947405 
L 229.031033 -85.778735 
L 229.728711 -87.582926 
L 230.391927 -89.400687 
L 230.918748 -91.263361 
L 231.52496 -93.10042 
L 232.088648 -94.951426 
L 232.600992 -96.817461 
L 232.924574 -98.729847 
L 233.365622 -100.61148 
L 233.76742 -102.501929 
L 234.13012 -104.400223 
L 234.459804 -106.30442 
L 234.911071 -108.19083 
L 235.169622 -110.108507 
L 235.379313 -112.031964 
L 235.549912 -113.958855 
L 235.68211 -115.888248 
L 235.797242 -117.818 
L 236.025883 -119.742694 
L 236.071471 -121.677227 
L 236.059555 -123.612084 
L 236.012137 -125.545627 
L 235.930022 -127.477194 
L 236.008014 -129.41465 
L 235.858588 -131.343877 
L 235.699914 -133.271278 
L 235.484966 -135.193016 
L 235.406382 -137.129245 
L 235.149323 -139.046945 
z
" style="stroke: #ffee9c"/>
    </defs>
    <g clip-path="url(#pa5f1698b38)">
     <use xlink:href="#m604b5a4d76" x="0" y="249.158125" style="fill: #ffee9c; stroke: #ffee9c"/>
    </g>
   </g>
   <g id="matplotlib.axis_1">
    <g id="xtick_1">
     <g id="line2d_1">
      <path d="M 125.254844 124.579062 
L 125.254844 13.699062 
" clip-path="url(#pa5f1698b38)" style="fill: none; stroke: #b0b0b0; stroke-width: 0.8; stroke-linecap: square"/>
     </g>
     <g id="text_1">
      <!-- N -->
      <g transform="translate(121.070469 7.958437) scale(0.1 -0.1)">
       <defs>
        <path id="DejaVuSans-Bold-4e" d="M 588 4666 
L 1931 4666 
L 3628 1466 
L 3628 4666 
L 4769 4666 
L 4769 0 
L 3425 0 
L 1728 3200 
L 1728 0 
L 588 0 
L 588 4666 
z
" transform="scale(0.015625)"/>
       </defs>
       <use xlink:href="#DejaVuSans-Bold-4e"/>
      </g>
     </g>
    </g>
    <g id="xtick_2">
     <g id="line2d_2">
      <path d="M 125.254844 124.579062 
L 203.658844 46.175063 
" clip-path="url(#pa5f1698b38)" style="fill: none; stroke: #b0b0b0; stroke-width: 0.8; stroke-linecap: square"/>
     </g>
    </g>
    <g id="xtick_3">
     <g id="line2d_3">
      <path d="M 125.254844 124.579062 
L 236.134844 124.579062 
" clip-path="url(#pa5f1698b38)" style="fill: none; stroke: #b0b0b0; stroke-width: 0.8; stroke-linecap: square"/>
     </g>
     <g id="text_2">
      <!-- E -->
      <g transform="translate(241.219219 127.338437) scale(0.1 -0.1)">
       <defs>
        <path id="DejaVuSans-Bold-45" d="M 588 4666 
L 3834 4666 
L 3834 3756 
L 1791 3756 
L 1791 2888 
L 3713 2888 
L 3713 1978 
L 1791 1978 
L 1791 909 
L 3903 909 
L 3903 0 
L 588 0 
L 588 4666 
z
" transform="scale(0.015625)"/>
       </defs>
       <use xlink:href="#DejaVuSans-Bold-45"/>
      </g>
     </g>
    </g>
    <g id="xtick_4">
     <g id="line2d_4">
      <path d="M 125.254844 124.579062 
L 203.658844 202.983062 
" clip-path="url(#pa5f1698b38)" style="fill: none; stroke: #b0b0b0; stroke-width: 0.8; stroke-linecap: square"/>
     </g>
    </g>
    <g id="xtick_5">
     <g id="line2d_5">
      <path d="M 125.254844 124.579062 
L 125.254844 235.459063 
" clip-path="url(#pa5f1698b38)" style="fill: none; stroke: #b0b0b0; stroke-width: 0.8; stroke-linecap: square"/>
     </g>
     <g id="text_3">
      <!-- S -->
      <g transform="translate(121.654063 246.718438) scale(0.1 -0.1)">
       <defs>
        <path id="DejaVuSans-Bold-53" d="M 3834 4519 
L 3834 3531 
Q 3450 3703 3084 3790 
Q 2719 3878 2394 3878 
Q 1963 3878 1756 3759 
Q 1550 3641 1550 3391 
Q 1550 3203 1689 3098 
Q 1828 2994 2194 2919 
L 2706 2816 
Q 3484 2659 3812 2340 
Q 4141 2022 4141 1434 
Q 4141 663 3683 286 
Q 3225 -91 2284 -91 
Q 1841 -91 1394 -6 
Q 947 78 500 244 
L 500 1259 
Q 947 1022 1364 901 
Q 1781 781 2169 781 
Q 2563 781 2772 912 
Q 2981 1044 2981 1288 
Q 2981 1506 2839 1625 
Q 2697 1744 2272 1838 
L 1806 1941 
Q 1106 2091 782 2419 
Q 459 2747 459 3303 
Q 459 4000 909 4375 
Q 1359 4750 2203 4750 
Q 2588 4750 2994 4692 
Q 3400 4634 3834 4519 
z
" transform="scale(0.015625)"/>
       </defs>
       <use xlink:href="#DejaVuSans-Bold-53"/>
      </g>
     </g>
    </g>
    <g id="xtick_6">
     <g id="line2d_6">
      <path d="M 125.254844 124.579062 
L 46.850844 202.983062 
" clip-path="url(#pa5f1698b38)" style="fill: none; stroke: #b0b0b0; stroke-width: 0.8; stroke-linecap: square"/>
     </g>
    </g>
    <g id="xtick_7">
     <g id="line2d_7">
      <path d="M 125.254844 124.579062 
L 14.374844 124.579063 
" clip-path="url(#pa5f1698b38)" style="fill: none; stroke: #b0b0b0; stroke-width: 0.8; stroke-linecap: square"/>
     </g>
     <g id="text_4">
      <!-- W -->
      <g transform="translate(0.36 127.338438) scale(0.1 -0.1)">
       <defs>
        <path id="DejaVuSans-Bold-57" d="M 191 4666 
L 1344 4666 
L 2150 1275 
L 2950 4666 
L 4109 4666 
L 4909 1275 
L 5716 4666 
L 6859 4666 
L 5759 0 
L 4372 0 
L 3525 3547 
L 2688 0 
L 1300 0 
L 191 4666 
z
" transform="scale(0.015625)"/>
       </defs>
       <use xlink:href="#DejaVuSans-Bold-57"/>
      </g>
     </g>
    </g>
    <g id="xtick_8">
     <g id="line2d_8">
      <path d="M 125.254844 124.579062 
L 46.850844 46.175063 
" clip-path="url(#pa5f1698b38)" style="fill: none; stroke: #b0b0b0; stroke-width: 0.8; stroke-linecap: square"/>
     </g>
    </g>
   </g>
   <g id="matplotlib.axis_2"/>
   <g id="patch_3">
    <path d="M 125.254844 124.579062 
C 125.254844 124.579062 125.254844 124.579062 125.254844 124.579062 
C 125.254844 124.579062 125.254844 124.579062 125.254844 124.579062 
L 125.254844 124.579062 
C 125.254844 124.579062 125.254844 124.579062 125.254844 124.579062 
C 125.254844 124.579062 125.254844 124.579062 125.254844 124.579062 
z
" clip-path="url(#pa5f1698b38)" style="fill: #d9d9d9"/>
   </g>
   <g id="patch_4">
    <path d="M 125.254844 124.579062 
C 125.254844 124.579062 125.254844 124.579062 125.254844 124.579062 
C 125.254844 124.579062 125.254844 124.579062 125.254844 124.579062 
L 125.254844 124.579062 
C 125.254844 124.579062 125.254844 124.579062 125.254844 124.579062 
C 125.254844 124.579062 125.254844 124.579062 125.254844 124.579062 
z
" clip-path="url(#pa5f1698b38)" style="fill: #d9d9d9"/>
   </g>
   <g id="patch_5">
    <path d="M 125.254844 124.579062 
C 125.254844 124.579062 125.254844 124.579062 125.254844 124.579062 
C 125.254844 124.579062 125.254844 124.579062 125.254844 124.579062 
L 125.254844 124.579062 
C 125.254844 124.579062 125.254844 124.579062 125.254844 124.579062 
C 125.254844 124.579062 125.254844 124.579062 125.254844 124.579062 
z
" clip-path="url(#pa5f1698b38)" style="fill: #d9d9d9"/>
   </g>
   <g id="patch_6">
    <path d="M 125.254844 124.579062 
C 125.254844 124.579062 125.254844 124.579062 125.254844 124.579062 
C 125.254844 124.579062 125.254844 124.579062 125.254844 124.579062 
L 125.254844 124.579062 
C 125.254844 124.579062 125.254844 124.579062 125.254844 124.579062 
C 125.254844 124.579062 125.254844 124.579062 125.254844 124.579062 
z
" clip-path="url(#pa5f1698b38)" style="fill: #d9d9d9"/>
   </g>
   <g id="patch_7">
    <path d="M 125.254844 124.579062 
C 125.254844 124.579062 125.254844 124.579062 125.254844 124.579062 
C 125.254844 124.579062 125.254844 124.579062 125.254844 124.579062 
L 125.254844 124.579062 
C 125.254844 124.579062 125.254844 124.579062 125.254844 124.579062 
C 125.254844 124.579062 125.254844 124.579062 125.254844 124.579062 
z
" clip-path="url(#pa5f1698b38)" style="fill: #d9d9d9"/>
   </g>
   <g id="patch_8">
    <path d="M 125.254844 124.579062 
C 125.254844 124.579062 125.254844 124.579062 125.254844 124.579062 
C 125.254844 124.579062 125.254844 124.579062 125.254844 124.579062 
L 125.254844 124.579062 
C 125.254844 124.579062 125.254844 124.579062 125.254844 124.579062 
C 125.254844 124.579062 125.254844 124.579062 125.254844 124.579062 
z
" clip-path="url(#pa5f1698b38)" style="fill: #d9d9d9"/>
   </g>
   <g id="patch_9">
    <path d="M 125.254844 124.579062 
C 125.254844 124.579062 125.254844 124.579062 125.254844 124.579062 
C 125.254844 124.579062 125.254844 124.579062 125.254844 124.579062 
L 125.254844 124.579062 
C 125.254844 124.579062 125.254844 124.579062 125.254844 124.579062 
C 125.254844 124.579062 125.254844 124.579062 125.254844 124.579062 
z
" clip-path="url(#pa5f1698b38)" style="fill: #d9d9d9"/>
   </g>
   <g id="patch_10">
    <path d="M 125.254844 124.579062 
C 125.254844 124.579062 125.254844 124.579062 125.254844 124.579062 
C 125.254844 124.579062 125.254844 124.579062 125.254844 124.579062 
L 125.254844 124.579062 
C 125.254844 124.579062 125.254844 124.579062 125.254844 124.579062 
C 125.254844 124.579062 125.254844 124.579062 125.254844 124.579062 
z
" clip-path="url(#pa5f1698b38)" style="fill: #d9d9d9"/>
   </g>
   <g id="patch_11">
    <path d="M 125.254844 124.579062 
C 125.254844 124.579062 125.254844 124.579062 125.254844 124.579062 
C 125.254844 124.579062 125.254844 124.579062 125.254844 124.579062 
L 125.254844 124.579062 
C 125.254844 124.579062 125.254844 124.579062 125.254844 124.579062 
C 125.254844 124.579062 125.254844 124.579062 125.254844 124.579062 
z
" clip-path="url(#pa5f1698b38)" style="fill: #d9d9d9"/>
   </g>
   <g id="patch_12">
    <path d="M 125.254844 124.579062 
C 125.254844 124.579062 125.254844 124.579062 125.254844 124.579062 
C 125.254844 124.579062 125.254844 124.579062 125.254844 124.579062 
L 125.254844 124.579062 
C 125.254844 124.579062 125.254844 124.579062 125.254844 124.579062 
C 125.254844 124.579062 125.254844 124.579062 125.254844 124.579062 
z
" clip-path="url(#pa5f1698b38)" style="fill: #d9d9d9"/>
   </g>
   <g id="patch_13">
    <path d="M 125.254844 124.579062 
C 125.254844 124.579062 125.254844 124.579062 125.254844 124.579062 
C 125.254844 124.579062 125.254844 124.579062 125.254844 124.579062 
L 125.254844 124.579062 
C 125.254844 124.579062 125.254844 124.579062 125.254844 124.579062 
C 125.254844 124.579062 125.254844 124.579062 125.254844 124.579062 
z
" clip-path="url(#pa5f1698b38)" style="fill: #d9d9d9"/>
   </g>
   <g id="patch_14">
    <path d="M 125.254844 124.579062 
C 125.254844 124.579062 125.254844 124.579062 125.254844 124.579062 
C 125.254844 124.579062 125.254844 124.579062 125.254844 124.579062 
L 125.254844 124.579062 
C 125.254844 124.579062 125.254844 124.579062 125.254844 124.579062 
C 125.254844 124.579062 125.254844 124.579062 125.254844 124.579062 
z
" clip-path="url(#pa5f1698b38)" style="fill: #d9d9d9"/>
   </g>
   <g id="patch_15">
    <path d="M 125.254844 124.579062 
C 125.254844 124.579062 125.254844 124.579062 125.254844 124.579062 
C 125.254844 124.579062 125.254844 124.579062 125.254844 124.579062 
L 125.254844 124.579062 
C 125.254844 124.579062 125.254844 124.579062 125.254844 124.579062 
C 125.254844 124.579062 125.254844 124.579062 125.254844 124.579062 
z
" clip-path="url(#pa5f1698b38)" style="fill: #d9d9d9"/>
   </g>
   <g id="patch_16">
    <path d="M 125.254844 124.579062 
C 125.254844 124.579062 125.254844 124.579062 125.254844 124.579062 
C 125.254844 124.579062 125.254844 124.579062 125.254844 124.579062 
L 125.254844 124.579062 
C 125.254844 124.579062 125.254844 124.579062 125.254844 124.579062 
C 125.254844 124.579062 125.254844 124.579062 125.254844 124.579062 
z
" clip-path="url(#pa5f1698b38)" style="fill: #d9d9d9"/>
   </g>
   <g id="patch_17">
    <path d="M 125.254844 124.579062 
C 125.254844 124.579062 125.254844 124.579062 125.254844 124.579062 
C 125.254844 124.579062 125.254844 124.579062 125.254844 124.579062 
L 125.254844 124.579062 
C 125.254844 124.579062 125.254844 124.579062 125.254844 124.579062 
C 125.254844 124.579062 125.254844 124.579062 125.254844 124.579062 
z
" clip-path="url(#pa5f1698b38)" style="fill: #d9d9d9"/>
   </g>
   <g id="patch_18">
    <path d="M 125.254844 124.579062 
C 125.254844 124.579062 125.254844 124.579062 125.254844 124.579062 
C 125.254844 124.579062 125.254844 124.579062 125.254844 124.579062 
L 125.254844 124.579062 
C 125.254844 124.579062 125.254844 124.579062 125.254844 124.579062 
C 125.254844 124.579062 125.254844 124.579062 125.254844 124.579062 
z
" clip-path="url(#pa5f1698b38)" style="fill: #d9d9d9"/>
   </g>
   <g id="patch_19">
    <path d="M 125.254844 124.579062 
C 125.254844 124.579062 125.254844 124.579062 125.254844 124.579062 
C 125.254844 124.579062 125.254844 124.579062 125.254844 124.579062 
L 125.254844 124.579062 
C 125.254844 124.579062 125.254844 124.579062 125.254844 124.579062 
C 125.254844 124.579062 125.254844 124.579062 125.254844 124.579062 
z
" clip-path="url(#pa5f1698b38)" style="fill: #d9d9d9"/>
   </g>
   <g id="patch_20">
    <path d="M 125.254844 124.579062 
C 125.254844 124.579062 125.254844 124.579062 125.254844 124.579062 
C 125.254844 124.579062 125.254844 124.579062 125.254844 124.579062 
L 125.254844 124.579062 
C 125.254844 124.579062 125.254844 124.579062 125.254844 124.579062 
C 125.254844 124.579062 125.254844 124.579062 125.254844 124.579062 
z
" clip-path="url(#pa5f1698b38)" style="fill: #d9d9d9"/>
   </g>
   <g id="patch_21">
    <path d="M 125.254844 124.579062 
C 125.254844 124.579062 125.254844 124.579062 125.254844 124.579062 
C 125.254844 124.579062 125.254844 124.579062 125.254844 124.579062 
L 125.254844 124.579062 
C 125.254844 124.579062 125.254844 124.579062 125.254844 124.579062 
C 125.254844 124.579062 125.254844 124.579062 125.254844 124.579062 
z
" clip-path="url(#pa5f1698b38)" style="fill: #d9d9d9"/>
   </g>
   <g id="patch_22">
    <path d="M 125.254844 124.579062 
C 125.254844 124.579062 125.254844 124.579062 125.254844 124.579062 
C 125.254844 124.579062 125.254844 124.579062 125.254844 124.579062 
L 125.254844 124.579062 
C 125.254844 124.579062 125.254844 124.579062 125.254844 124.579062 
C 125.254844 124.579062 125.254844 124.579062 125.254844 124.579062 
z
" clip-path="url(#pa5f1698b38)" style="fill: #d9d9d9"/>
   </g>
   <g id="patch_23">
    <path d="M 125.254844 124.579062 
C 125.254844 124.579062 125.254844 124.579062 125.254844 124.579062 
C 125.254844 124.579062 125.254844 124.579062 125.254844 124.579062 
L 125.254844 124.579062 
C 125.254844 124.579062 125.254844 124.579062 125.254844 124.579062 
C 125.254844 124.579062 125.254844 124.579062 125.254844 124.579062 
z
" clip-path="url(#pa5f1698b38)" style="fill: #d9d9d9"/>
   </g>
   <g id="patch_24">
    <path d="M 125.254844 124.579062 
C 125.254844 124.579062 125.254844 124.579062 125.254844 124.579062 
C 125.254844 124.579062 125.254844 124.579062 125.254844 124.579062 
L 125.254844 124.579062 
C 125.254844 124.579062 125.254844 124.579062 125.254844 124.579062 
C 125.254844 124.579062 125.254844 124.579062 125.254844 124.579062 
z
" clip-path="url(#pa5f1698b38)" style="fill: #d9d9d9"/>
   </g>
   <g id="patch_25">
    <path d="M 125.254844 124.579062 
C 125.254844 124.579062 125.254844 124.579062 125.254844 124.579062 
C 125.254844 124.579062 125.254844 124.579062 125.254844 124.579062 
L 125.254844 124.579062 
C 125.254844 124.579062 125.254844 124.579062 125.254844 124.579062 
C 125.254844 124.579062 125.254844 124.579062 125.254844 124.579062 
z
" clip-path="url(#pa5f1698b38)" style="fill: #d9d9d9"/>
   </g>
   <g id="patch_26">
    <path d="M 125.254844 124.579062 
C 125.254844 124.579062 125.254844 124.579062 125.254844 124.579062 
C 125.254844 124.579062 125.254844 124.579062 125.254844 124.579062 
L 125.254844 124.579062 
C 125.254844 124.579062 125.254844 124.579062 125.254844 124.579062 
C 125.254844 124.579062 125.254844 124.579062 125.254844 124.579062 
z
" clip-path="url(#pa5f1698b38)" style="fill: #d9d9d9"/>
   </g>
   <g id="patch_27">
    <path d="M 125.254844 124.579062 
C 125.254844 124.579062 125.254844 124.579062 125.254844 124.579062 
C 125.254844 124.579062 125.254844 124.579062 125.254844 124.579062 
L 125.254844 124.579062 
C 125.254844 124.579062 125.254844 124.579062 125.254844 124.579062 
C 125.254844 124.579062 125.254844 124.579062 125.254844 124.579062 
z
" clip-path="url(#pa5f1698b38)" style="fill: #d9d9d9"/>
   </g>
   <g id="patch_28">
    <path d="M 125.254844 124.579062 
C 125.254844 124.579062 125.254844 124.579062 125.254844 124.579062 
C 125.254844 124.579062 125.254844 124.579062 125.254844 124.579062 
L 125.254844 124.579062 
C 125.254844 124.579062 125.254844 124.579062 125.254844 124.579062 
C 125.254844 124.579062 125.254844 124.579062 125.254844 124.579062 
z
" clip-path="url(#pa5f1698b38)" style="fill: #d9d9d9"/>
   </g>
   <g id="patch_29">
    <path d="M 125.254844 124.579062 
C 125.254844 124.579062 125.254844 124.579062 125.254844 124.579062 
C 125.254844 124.579062 125.254844 124.579062 125.254844 124.579062 
L 125.254844 124.579062 
C 125.254844 124.579062 125.254844 124.579062 125.254844 124.579062 
C 125.254844 124.579062 125.254844 124.579062 125.254844 124.579062 
z
" clip-path="url(#pa5f1698b38)" style="fill: #d9d9d9"/>
   </g>
   <g id="patch_30">
    <path d="M 125.254844 124.579062 
C 125.254844 124.579062 125.254844 124.579062 125.254844 124.579062 
C 125.254844 124.579062 125.254844 124.579062 125.254844 124.579062 
L 125.254844 124.579062 
C 125.254844 124.579062 125.254844 124.579062 125.254844 124.579062 
C 125.254844 124.579062 125.254844 124.579062 125.254844 124.579062 
z
" clip-path="url(#pa5f1698b38)" style="fill: #d9d9d9"/>
   </g>
   <g id="patch_31">
    <path d="M 125.254844 124.579062 
C 125.254844 124.579062 125.254844 124.579062 125.254844 124.579062 
C 125.254844 124.579062 125.254844 124.579062 125.254844 124.579062 
L 125.254844 124.579062 
C 125.254844 124.579062 125.254844 124.579062 125.254844 124.579062 
C 125.254844 124.579062 125.254844 124.579062 125.254844 124.579062 
z
" clip-path="url(#pa5f1698b38)" style="fill: #d9d9d9"/>
   </g>
   <g id="patch_32">
    <path d="M 125.254844 124.579062 
C 125.254844 124.579062 125.254844 124.579062 125.254844 124.579062 
C 125.254844 124.579062 125.254844 124.579062 125.254844 124.579062 
L 125.254844 124.579062 
C 125.254844 124.579062 125.254844 124.579062 125.254844 124.579062 
C 125.254844 124.579062 125.254844 124.579062 125.254844 124.579062 
z
" clip-path="url(#pa5f1698b38)" style="fill: #d9d9d9"/>
   </g>
   <g id="patch_33">
    <path d="M 125.254844 124.579062 
C 125.254844 124.579062 125.254844 124.579062 125.254844 124.579062 
C 125.254844 124.579062 125.254844 124.579062 125.254844 124.579062 
L 125.254844 124.579062 
C 125.254844 124.579062 125.254844 124.579062 125.254844 124.579062 
C 125.254844 124.579062 125.254844 124.579062 125.254844 124.579062 
z
" clip-path="url(#pa5f1698b38)" style="fill: #d9d9d9"/>
   </g>
   <g id="patch_34">
    <path d="M 125.254844 124.579062 
C 125.254844 124.579062 125.254844 124.579062 125.254844 124.579062 
C 125.254844 124.579062 125.254844 124.579062 125.254844 124.579062 
L 125.254844 124.579062 
C 125.254844 124.579062 125.254844 124.579062 125.254844 124.579062 
C 125.254844 124.579062 125.254844 124.579062 125.254844 124.579062 
z
" clip-path="url(#pa5f1698b38)" style="fill: #d9d9d9"/>
   </g>
   <g id="patch_35">
    <path d="M 125.254844 124.579062 
C 125.254844 124.579062 125.254844 124.579062 125.254844 124.579062 
C 125.254844 124.579062 125.254844 124.579062 125.254844 124.579062 
L 125.254844 124.579062 
C 125.254844 124.579062 125.254844 124.579062 125.254844 124.579062 
C 125.254844 124.579062 125.254844 124.579062 125.254844 124.579062 
z
" clip-path="url(#pa5f1698b38)" style="fill: #a1a1d8"/>
   </g>
   <g id="patch_36">
    <path d="M 125.254844 124.579062 
C 125.254844 124.579062 125.254844 124.579062 125.254844 124.579062 
C 125.254844 124.579062 125.254844 124.579062 125.254844 124.579062 
L 125.254844 124.579062 
C 125.254844 124.579062 125.254844 124.579062 125.254844 124.579062 
C 125.254844 124.579062 125.254844 124.579062 125.254844 124.579062 
z
" clip-path="url(#pa5f1698b38)" style="fill: #a1a1d8"/>
   </g>
   <g id="patch_37">
    <path d="M 125.254844 124.579062 
C 125.254844 124.579062 125.254844 124.579062 125.254844 124.579062 
C 125.254844 124.579062 125.254844 124.579062 125.254844 124.579062 
L 125.254844 124.579062 
C 125.254844 124.579062 125.254844 124.579062 125.254844 124.579062 
C 125.254844 124.579062 125.254844 124.579062 125.254844 124.579062 
z
" clip-path="url(#pa5f1698b38)" style="fill: #a1a1d8"/>
   </g>
   <g id="patch_38">
    <path d="M 125.254844 124.579062 
C 125.254844 124.579062 125.254844 124.579062 125.254844 124.579062 
C 125.254844 124.579062 125.254844 124.579062 125.254844 124.579062 
L 125.254844 124.579062 
C 125.254844 124.579062 125.254844 124.579062 125.254844 124.579062 
C 125.254844 124.579062 125.254844 124.579062 125.254844 124.579062 
z
" clip-path="url(#pa5f1698b38)" style="fill: #a1a1d8"/>
   </g>
   <g id="patch_39">
    <path d="M 125.254844 124.579062 
C 125.254844 124.579062 125.254844 124.579062 125.254844 124.579062 
C 125.254844 124.579062 125.254844 124.579062 125.254844 124.579062 
L 125.254844 124.579062 
C 125.254844 124.579062 125.254844 124.579062 125.254844 124.579062 
C 125.254844 124.579062 125.254844 124.579062 125.254844 124.579062 
z
" clip-path="url(#pa5f1698b38)" style="fill: #a1a1d8"/>
   </g>
   <g id="patch_40">
    <path d="M 125.254844 124.579062 
C 125.254844 124.579062 125.254844 124.579062 125.254844 124.579062 
C 125.254844 124.579062 125.254844 124.579062 125.254844 124.579062 
L 125.254844 124.579062 
C 125.254844 124.579062 125.254844 124.579062 125.254844 124.579062 
C 125.254844 124.579062 125.254844 124.579062 125.254844 124.579062 
z
" clip-path="url(#pa5f1698b38)" style="fill: #a1a1d8"/>
   </g>
   <g id="patch_41">
    <path d="M 125.254844 124.579062 
C 125.254844 124.579062 125.254844 124.579062 125.254844 124.579062 
C 125.254844 124.579062 125.254844 124.579062 125.254844 124.579062 
L 125.254844 124.579062 
C 125.254844 124.579062 125.254844 124.579062 125.254844 124.579062 
C 125.254844 124.579062 125.254844 124.579062 125.254844 124.579062 
z
" clip-path="url(#pa5f1698b38)" style="fill: #a1a1d8"/>
   </g>
   <g id="patch_42">
    <path d="M 125.254844 124.579062 
C 125.254844 124.579062 125.254844 124.579062 125.254844 124.579062 
C 125.254844 124.579062 125.254844 124.579062 125.254844 124.579062 
L 125.254844 124.579062 
C 125.254844 124.579062 125.254844 124.579062 125.254844 124.579062 
C 125.254844 124.579062 125.254844 124.579062 125.254844 124.579062 
z
" clip-path="url(#pa5f1698b38)" style="fill: #a1a1d8"/>
   </g>
   <g id="patch_43">
    <path d="M 125.254844 124.579062 
C 125.254844 124.579062 125.254844 124.579062 125.254844 124.579062 
C 125.254844 124.579062 125.254844 124.579062 125.254844 124.579062 
L 125.254844 124.579062 
C 125.254844 124.579062 125.254844 124.579062 125.254844 124.579062 
C 125.254844 124.579062 125.254844 124.579062 125.254844 124.579062 
z
" clip-path="url(#pa5f1698b38)" style="fill: #a1a1d8"/>
   </g>
   <g id="patch_44">
    <path d="M 125.254844 124.579062 
C 125.254844 124.579062 125.254844 124.579062 125.254844 124.579062 
C 125.254844 124.579062 125.254844 124.579062 125.254844 124.579062 
L 125.254844 124.579062 
C 125.254844 124.579062 125.254844 124.579062 125.254844 124.579062 
C 125.254844 124.579062 125.254844 124.579062 125.254844 124.579062 
z
" clip-path="url(#pa5f1698b38)" style="fill: #a1a1d8"/>
   </g>
   <g id="patch_45">
    <path d="M 125.254844 124.579062 
C 125.254844 124.579062 125.254844 124.579062 125.254844 124.579062 
C 125.254844 124.579062 125.254844 124.579062 125.254844 124.579062 
L 125.254844 124.579062 
C 125.254844 124.579062 125.254844 124.579062 125.254844 124.579062 
C 125.254844 124.579062 125.254844 124.579062 125.254844 124.579062 
z
" clip-path="url(#pa5f1698b38)" style="fill: #a1a1d8"/>
   </g>
   <g id="patch_46">
    <path d="M 125.254844 124.579062 
C 125.254844 124.579062 125.254844 124.579062 125.254844 124.579062 
C 125.254844 124.579062 125.254844 124.579062 125.254844 124.579062 
L 125.254844 124.579062 
C 125.254844 124.579062 125.254844 124.579062 125.254844 124.579062 
C 125.254844 124.579062 125.254844 124.579062 125.254844 124.579062 
z
" clip-path="url(#pa5f1698b38)" style="fill: #a1a1d8"/>
   </g>
   <g id="patch_47">
    <path d="M 125.254844 124.579062 
C 125.254844 124.579062 125.254844 124.579062 125.254844 124.579062 
C 125.254844 124.579062 125.254844 124.579062 125.254844 124.579062 
L 125.254844 124.579062 
C 125.254844 124.579062 125.254844 124.579062 125.254844 124.579062 
C 125.254844 124.579062 125.254844 124.579062 125.254844 124.579062 
z
" clip-path="url(#pa5f1698b38)" style="fill: #a1a1d8"/>
   </g>
   <g id="patch_48">
    <path d="M 125.254844 124.579062 
C 125.254844 124.579062 125.254844 124.579062 125.254844 124.579062 
C 125.254844 124.579062 125.254844 124.579062 125.254844 124.579062 
L 125.254844 124.579062 
C 125.254844 124.579062 125.254844 124.579062 125.254844 124.579062 
C 125.254844 124.579062 125.254844 124.579062 125.254844 124.579062 
z
" clip-path="url(#pa5f1698b38)" style="fill: #a1a1d8"/>
   </g>
   <g id="patch_49">
    <path d="M 125.254844 124.579062 
C 125.254844 124.579062 125.254844 124.579062 125.254844 124.579062 
C 125.254844 124.579062 125.254844 124.579062 125.254844 124.579062 
L 125.254844 124.579062 
C 125.254844 124.579062 125.254844 124.579062 125.254844 124.579062 
C 125.254844 124.579062 125.254844 124.579062 125.254844 124.579062 
z
" clip-path="url(#pa5f1698b38)" style="fill: #a1a1d8"/>
   </g>
   <g id="patch_50">
    <path d="M 125.254844 124.579062 
C 125.254844 124.579062 125.254844 124.579062 125.254844 124.579062 
C 125.254844 124.579062 125.254844 124.579062 125.254844 124.579062 
L 125.254844 124.579062 
C 125.254844 124.579062 125.254844 124.579062 125.254844 124.579062 
C 125.254844 124.579062 125.254844 124.579062 125.254844 124.579062 
z
" clip-path="url(#pa5f1698b38)" style="fill: #a1a1d8"/>
   </g>
   <g id="patch_51">
    <path d="M 125.254844 124.579062 
C 125.254844 124.579062 125.254844 124.579062 125.254844 124.579062 
C 125.254844 124.579062 125.254844 124.579062 125.254844 124.579062 
L 125.254844 124.579062 
C 125.254844 124.579062 125.254844 124.579062 125.254844 124.579062 
C 125.254844 124.579062 125.254844 124.579062 125.254844 124.579062 
z
" clip-path="url(#pa5f1698b38)" style="fill: #a1a1d8"/>
   </g>
   <g id="patch_52">
    <path d="M 125.254844 124.579062 
C 125.254844 124.579062 125.254844 124.579062 125.254844 124.579062 
C 125.254844 124.579062 125.254844 124.579062 125.254844 124.579062 
L 125.254844 124.579062 
C 125.254844 124.579062 125.254844 124.579062 125.254844 124.579062 
C 125.254844 124.579062 125.254844 124.579062 125.254844 124.579062 
z
" clip-path="url(#pa5f1698b38)" style="fill: #a1a1d8"/>
   </g>
   <g id="patch_53">
    <path d="M 125.254844 124.579062 
C 125.254844 124.579062 125.254844 124.579062 125.254844 124.579062 
C 125.254844 124.579062 125.254844 124.579062 125.254844 124.579062 
L 125.254844 124.579062 
C 125.254844 124.579062 125.254844 124.579062 125.254844 124.579062 
C 125.254844 124.579062 125.254844 124.579062 125.254844 124.579062 
z
" clip-path="url(#pa5f1698b38)" style="fill: #a1a1d8"/>
   </g>
   <g id="patch_54">
    <path d="M 125.254844 124.579062 
C 125.254844 124.579062 125.254844 124.579062 125.254844 124.579062 
C 125.254844 124.579062 125.254844 124.579062 125.254844 124.579062 
L 125.254844 124.579062 
C 125.254844 124.579062 125.254844 124.579062 125.254844 124.579062 
C 125.254844 124.579062 125.254844 124.579062 125.254844 124.579062 
z
" clip-path="url(#pa5f1698b38)" style="fill: #a1a1d8"/>
   </g>
   <g id="patch_55">
    <path d="M 125.254844 124.579062 
C 125.254844 124.579062 125.254844 124.579062 125.254844 124.579062 
C 125.254844 124.579062 125.254844 124.579062 125.254844 124.579062 
L 125.254844 124.579062 
C 125.254844 124.579062 125.254844 124.579062 125.254844 124.579062 
C 125.254844 124.579062 125.254844 124.579062 125.254844 124.579062 
z
" clip-path="url(#pa5f1698b38)" style="fill: #a1a1d8"/>
   </g>
   <g id="patch_56">
    <path d="M 125.254844 124.579062 
C 125.254844 124.579062 125.254844 124.579062 125.254844 124.579062 
C 125.254844 124.579062 125.254844 124.579062 125.254844 124.579062 
L 125.254844 124.579062 
C 125.254844 124.579062 125.254844 124.579062 125.254844 124.579062 
C 125.254844 124.579062 125.254844 124.579062 125.254844 124.579062 
z
" clip-path="url(#pa5f1698b38)" style="fill: #a1a1d8"/>
   </g>
   <g id="patch_57">
    <path d="M 125.254844 124.579062 
C 125.254844 124.579062 125.254844 124.579062 125.254844 124.579062 
C 125.254844 124.579062 125.254844 124.579062 125.254844 124.579062 
L 125.254844 124.579062 
C 125.254844 124.579062 125.254844 124.579062 125.254844 124.579062 
C 125.254844 124.579062 125.254844 124.579062 125.254844 124.579062 
z
" clip-path="url(#pa5f1698b38)" style="fill: #a1a1d8"/>
   </g>
   <g id="patch_58">
    <path d="M 125.254844 124.579062 
C 125.254844 124.579062 125.254844 124.579062 125.254844 124.579062 
C 125.254844 124.579062 125.254844 124.579062 125.254844 124.579062 
L 125.254844 124.579062 
C 125.254844 124.579062 125.254844 124.579062 125.254844 124.579062 
C 125.254844 124.579062 125.254844 124.579062 125.254844 124.579062 
z
" clip-path="url(#pa5f1698b38)" style="fill: #a1a1d8"/>
   </g>
   <g id="patch_59">
    <path d="M 125.254844 124.579062 
C 125.254844 124.579062 125.254844 124.579062 125.254844 124.579062 
C 125.254844 124.579062 125.254844 124.579062 125.254844 124.579062 
L 125.254844 124.579062 
C 125.254844 124.579062 125.254844 124.579062 125.254844 124.579062 
C 125.254844 124.579062 125.254844 124.579062 125.254844 124.579062 
z
" clip-path="url(#pa5f1698b38)" style="fill: #a1a1d8"/>
   </g>
   <g id="patch_60">
    <path d="M 125.254844 124.579062 
C 125.254844 124.579062 125.254844 124.579062 125.254844 124.579062 
C 125.254844 124.579062 125.254844 124.579062 125.254844 124.579062 
L 125.254844 124.579062 
C 125.254844 124.579062 125.254844 124.579062 125.254844 124.579062 
C 125.254844 124.579062 125.254844 124.579062 125.254844 124.579062 
z
" clip-path="url(#pa5f1698b38)" style="fill: #a1a1d8"/>
   </g>
   <g id="patch_61">
    <path d="M 125.254844 124.579062 
C 125.254844 124.579062 125.254844 124.579062 125.254844 124.579062 
C 125.254844 124.579062 125.254844 124.579062 125.254844 124.579062 
L 125.254844 124.579062 
C 125.254844 124.579062 125.254844 124.579062 125.254844 124.579062 
C 125.254844 124.579062 125.254844 124.579062 125.254844 124.579062 
z
" clip-path="url(#pa5f1698b38)" style="fill: #a1a1d8"/>
   </g>
   <g id="patch_62">
    <path d="M 125.254844 124.579062 
C 125.254844 124.579062 125.254844 124.579062 125.254844 124.579062 
C 125.254844 124.579062 125.254844 124.579062 125.254844 124.579062 
L 125.254844 124.579062 
C 125.254844 124.579062 125.254844 124.579062 125.254844 124.579062 
C 125.254844 124.579062 125.254844 124.579062 125.254844 124.579062 
z
" clip-path="url(#pa5f1698b38)" style="fill: #a1a1d8"/>
   </g>
   <g id="patch_63">
    <path d="M 125.254844 124.579062 
C 125.254844 124.579062 125.254844 124.579062 125.254844 124.579062 
C 125.254844 124.579062 125.254844 124.579062 125.254844 124.579062 
L 125.254844 124.579062 
C 125.254844 124.579062 125.254844 124.579062 125.254844 124.579062 
C 125.254844 124.579062 125.254844 124.579062 125.254844 124.579062 
z
" clip-path="url(#pa5f1698b38)" style="fill: #a1a1d8"/>
   </g>
   <g id="patch_64">
    <path d="M 125.254844 124.579062 
C 125.254844 124.579062 125.254844 124.579062 125.254844 124.579062 
C 125.254844 124.579062 125.254844 124.579062 125.254844 124.579062 
L 125.254844 124.579062 
C 125.254844 124.579062 125.254844 124.579062 125.254844 124.579062 
C 125.254844 124.579062 125.254844 124.579062 125.254844 124.579062 
z
" clip-path="url(#pa5f1698b38)" style="fill: #a1a1d8"/>
   </g>
   <g id="patch_65">
    <path d="M 125.254844 124.579062 
C 125.254844 124.579062 125.254844 124.579062 125.254844 124.579062 
C 125.254844 124.579062 125.254844 124.579062 125.254844 124.579062 
L 125.254844 124.579062 
C 125.254844 124.579062 125.254844 124.579062 125.254844 124.579062 
C 125.254844 124.579062 125.254844 124.579062 125.254844 124.579062 
z
" clip-path="url(#pa5f1698b38)" style="fill: #a1a1d8"/>
   </g>
   <g id="patch_66">
    <path d="M 125.254844 124.579062 
C 125.254844 124.579062 125.254844 124.579062 125.254844 124.579062 
C 125.254844 124.579062 125.254844 124.579062 125.254844 124.579062 
L 125.254844 124.579062 
C 125.254844 124.579062 125.254844 124.579062 125.254844 124.579062 
C 125.254844 124.579062 125.254844 124.579062 125.254844 124.579062 
z
" clip-path="url(#pa5f1698b38)" style="fill: #a1a1d8"/>
   </g>
   <g id="patch_67">
    <path d="M 125.254844 124.579062 
C 125.254844 124.579062 125.254844 124.579062 125.254844 124.579062 
C 125.254844 124.579062 125.254844 124.579062 125.254844 124.579062 
L 132.053336 55.552814 
C 129.794004 55.330289 127.525108 55.218825 125.254844 55.218825 
C 122.98458 55.218825 120.715684 55.330289 118.456352 55.552814 
z
" clip-path="url(#pa5f1698b38)" style="fill: #ff8c8e"/>
   </g>
   <g id="patch_68">
    <path d="M 125.254844 124.579062 
C 125.254844 124.579062 125.254844 124.579062 125.254844 124.579062 
C 125.254844 124.579062 125.254844 124.579062 125.254844 124.579062 
L 134.746203 93.290243 
C 133.722074 92.979577 132.683308 92.71938 131.633659 92.510592 
C 130.58401 92.301803 129.524743 92.144676 128.459684 92.039777 
z
" clip-path="url(#pa5f1698b38)" style="fill: #ff8c8e"/>
   </g>
   <g id="patch_69">
    <path d="M 125.254844 124.579062 
C 125.254844 124.579062 125.254844 124.579062 125.254844 124.579062 
C 125.254844 124.579062 125.254844 124.579062 125.254844 124.579062 
L 162.214235 55.432905 
C 159.950978 54.223169 157.62969 53.125282 155.258757 52.143209 
C 152.887823 51.161136 150.470101 50.296062 148.014324 49.55111 
z
" clip-path="url(#pa5f1698b38)" style="fill: #ff8c8e"/>
   </g>
   <g id="patch_70">
    <path d="M 125.254844 124.579062 
C 125.254844 124.579062 125.254844 124.579062 125.254844 124.579062 
C 125.254844 124.579062 125.254844 124.579062 125.254844 124.579062 
L 159.65253 82.66536 
C 158.280632 81.539472 156.854283 80.48162 155.378635 79.495623 
C 153.902987 78.509626 152.379818 77.596674 150.814631 76.760064 
z
" clip-path="url(#pa5f1698b38)" style="fill: #ff8c8e"/>
   </g>
   <g id="patch_71">
    <path d="M 125.254844 124.579062 
C 125.254844 124.579062 125.254844 124.579062 125.254844 124.579062 
C 125.254844 124.579062 125.254844 124.579062 125.254844 124.579062 
L 153.513056 101.388147 
C 152.753983 100.463213 151.949955 99.576106 151.103878 98.730028 
C 150.2578 97.883951 149.370693 97.079923 148.445759 96.32085 
z
" clip-path="url(#pa5f1698b38)" style="fill: #ff8c8e"/>
   </g>
   <g id="patch_72">
    <path d="M 125.254844 124.579062 
C 125.254844 124.579062 125.254844 124.579062 125.254844 124.579062 
C 125.254844 124.579062 125.254844 124.579062 125.254844 124.579062 
L 212.955934 77.701853 
C 211.421573 74.831265 209.747199 72.037741 207.938859 69.33137 
C 206.13052 66.624998 204.190395 64.009043 202.125492 61.492952 
z
" clip-path="url(#pa5f1698b38)" style="fill: #ff8c8e"/>
   </g>
   <g id="patch_73">
    <path d="M 125.254844 124.579062 
C 125.254844 124.579062 125.254844 124.579062 125.254844 124.579062 
C 125.254844 124.579062 125.254844 124.579062 125.254844 124.579062 
L 179.448668 108.139546 
C 178.910578 106.365701 178.285722 104.619344 177.576356 102.906783 
C 176.86699 101.194221 176.073969 99.51752 175.200158 97.882736 
z
" clip-path="url(#pa5f1698b38)" style="fill: #ff8c8e"/>
   </g>
   <g id="patch_74">
    <path d="M 125.254844 124.579062 
C 125.254844 124.579062 125.254844 124.579062 125.254844 124.579062 
C 125.254844 124.579062 125.254844 124.579062 125.254844 124.579062 
L 141.524487 122.976643 
C 141.472037 122.444113 141.393473 121.914479 141.289079 121.389655 
C 141.184685 120.86483 141.054587 120.345448 140.899253 119.833383 
z
" clip-path="url(#pa5f1698b38)" style="fill: #ff8c8e"/>
   </g>
   <g id="patch_75">
    <path d="M 125.254844 124.579062 
C 125.254844 124.579062 125.254844 124.579062 125.254844 124.579062 
C 125.254844 124.579062 125.254844 124.579062 125.254844 124.579062 
L 161.634871 128.162182 
C 161.752152 126.97141 161.810898 125.775597 161.810898 124.579062 
C 161.810898 123.382528 161.752152 122.186715 161.634871 120.995943 
z
" clip-path="url(#pa5f1698b38)" style="fill: #ff8c8e"/>
   </g>
   <g id="patch_76">
    <path d="M 125.254844 124.579062 
C 125.254844 124.579062 125.254844 124.579062 125.254844 124.579062 
C 125.254844 124.579062 125.254844 124.579062 125.254844 124.579062 
L 125.254844 124.579062 
C 125.254844 124.579062 125.254844 124.579062 125.254844 124.579062 
C 125.254844 124.579062 125.254844 124.579062 125.254844 124.579062 
z
" clip-path="url(#pa5f1698b38)" style="fill: #ff8c8e"/>
   </g>
   <g id="patch_77">
    <path d="M 125.254844 124.579062 
C 125.254844 124.579062 125.254844 124.579062 125.254844 124.579062 
C 125.254844 124.579062 125.254844 124.579062 125.254844 124.579062 
L 139.672814 132.285628 
C 139.925062 131.813707 140.153987 131.329685 140.358763 130.835311 
C 140.56354 130.340937 140.74392 129.836807 140.899253 129.324742 
z
" clip-path="url(#pa5f1698b38)" style="fill: #ff8c8e"/>
   </g>
   <g id="patch_78">
    <path d="M 125.254844 124.579062 
C 125.254844 124.579062 125.254844 124.579062 125.254844 124.579062 
C 125.254844 124.579062 125.254844 124.579062 125.254844 124.579062 
L 125.254844 124.579062 
C 125.254844 124.579062 125.254844 124.579062 125.254844 124.579062 
C 125.254844 124.579062 125.254844 124.579062 125.254844 124.579062 
z
" clip-path="url(#pa5f1698b38)" style="fill: #ff8c8e"/>
   </g>
   <g id="patch_79">
    <path d="M 125.254844 124.579062 
C 125.254844 124.579062 125.254844 124.579062 125.254844 124.579062 
C 125.254844 124.579062 125.254844 124.579062 125.254844 124.579062 
L 125.254844 124.579062 
C 125.254844 124.579062 125.254844 124.579062 125.254844 124.579062 
C 125.254844 124.579062 125.254844 124.579062 125.254844 124.579062 
z
" clip-path="url(#pa5f1698b38)" style="fill: #ff8c8e"/>
   </g>
   <g id="patch_80">
    <path d="M 125.254844 124.579062 
C 125.254844 124.579062 125.254844 124.579062 125.254844 124.579062 
C 125.254844 124.579062 125.254844 124.579062 125.254844 124.579062 
L 125.254844 124.579062 
C 125.254844 124.579062 125.254844 124.579062 125.254844 124.579062 
C 125.254844 124.579062 125.254844 124.579062 125.254844 124.579062 
z
" clip-path="url(#pa5f1698b38)" style="fill: #ff8c8e"/>
   </g>
   <g id="patch_81">
    <path d="M 125.254844 124.579062 
C 125.254844 124.579062 125.254844 124.579062 125.254844 124.579062 
C 125.254844 124.579062 125.254844 124.579062 125.254844 124.579062 
L 125.254844 124.579062 
C 125.254844 124.579062 125.254844 124.579062 125.254844 124.579062 
C 125.254844 124.579062 125.254844 124.579062 125.254844 124.579062 
z
" clip-path="url(#pa5f1698b38)" style="fill: #ff8c8e"/>
   </g>
   <g id="patch_82">
    <path d="M 125.254844 124.579062 
C 125.254844 124.579062 125.254844 124.579062 125.254844 124.579062 
C 125.254844 124.579062 125.254844 124.579062 125.254844 124.579062 
L 125.254844 124.579062 
C 125.254844 124.579062 125.254844 124.579062 125.254844 124.579062 
C 125.254844 124.579062 125.254844 124.579062 125.254844 124.579062 
z
" clip-path="url(#pa5f1698b38)" style="fill: #ff8c8e"/>
   </g>
   <g id="patch_83">
    <path d="M 125.254844 124.579062 
C 125.254844 124.579062 125.254844 124.579062 125.254844 124.579062 
C 125.254844 124.579062 125.254844 124.579062 125.254844 124.579062 
L 125.254844 124.579062 
C 125.254844 124.579062 125.254844 124.579062 125.254844 124.579062 
C 125.254844 124.579062 125.254844 124.579062 125.254844 124.579062 
z
" clip-path="url(#pa5f1698b38)" style="fill: #ff8c8e"/>
   </g>
   <g id="patch_84">
    <path d="M 125.254844 124.579062 
C 125.254844 124.579062 125.254844 124.579062 125.254844 124.579062 
C 125.254844 124.579062 125.254844 124.579062 125.254844 124.579062 
L 125.254844 124.579062 
C 125.254844 124.579062 125.254844 124.579062 125.254844 124.579062 
C 125.254844 124.579062 125.254844 124.579062 125.254844 124.579062 
z
" clip-path="url(#pa5f1698b38)" style="fill: #ff8c8e"/>
   </g>
   <g id="patch_85">
    <path d="M 125.254844 124.579062 
C 125.254844 124.579062 125.254844 124.579062 125.254844 124.579062 
C 125.254844 124.579062 125.254844 124.579062 125.254844 124.579062 
L 114.356114 144.969152 
C 115.023512 145.325884 115.708022 145.649633 116.407173 145.93923 
C 117.106323 146.228828 117.81927 146.483924 118.543439 146.703599 
z
" clip-path="url(#pa5f1698b38)" style="fill: #ff8c8e"/>
   </g>
   <g id="patch_86">
    <path d="M 125.254844 124.579062 
C 125.254844 124.579062 125.254844 124.579062 125.254844 124.579062 
C 125.254844 124.579062 125.254844 124.579062 125.254844 124.579062 
L 104.512258 149.853976 
C 105.339544 150.532912 106.199665 151.170821 107.089514 151.765399 
C 107.979364 152.359978 108.897869 152.910509 109.841712 153.415003 
z
" clip-path="url(#pa5f1698b38)" style="fill: #ff8c8e"/>
   </g>
   <g id="patch_87">
    <path d="M 125.254844 124.579062 
C 125.254844 124.579062 125.254844 124.579062 125.254844 124.579062 
C 125.254844 124.579062 125.254844 124.579062 125.254844 124.579062 
L 76.310184 164.746907 
C 77.624938 166.348938 79.017554 167.885454 80.483003 169.350903 
C 81.948452 170.816352 83.484968 172.208969 85.087 173.523722 
z
" clip-path="url(#pa5f1698b38)" style="fill: #ff8c8e"/>
   </g>
   <g id="patch_88">
    <path d="M 125.254844 124.579062 
C 125.254844 124.579062 125.254844 124.579062 125.254844 124.579062 
C 125.254844 124.579062 125.254844 124.579062 125.254844 124.579062 
L 82.000932 147.69876 
C 82.757675 149.114525 83.583471 150.492283 84.475338 151.827057 
C 85.367206 153.161831 86.32407 154.452012 87.342473 155.692941 
z
" clip-path="url(#pa5f1698b38)" style="fill: #ff8c8e"/>
   </g>
   <g id="patch_89">
    <path d="M 125.254844 124.579062 
C 125.254844 124.579062 125.254844 124.579062 125.254844 124.579062 
C 125.254844 124.579062 125.254844 124.579062 125.254844 124.579062 
L 36.756699 151.424681 
C 37.635396 154.321358 38.655783 157.173147 39.814172 159.969747 
C 40.972562 162.766348 42.26756 165.504389 43.694486 168.173982 
z
" clip-path="url(#pa5f1698b38)" style="fill: #ff8c8e"/>
   </g>
   <g id="patch_90">
    <path d="M 125.254844 124.579062 
C 125.254844 124.579062 125.254844 124.579062 125.254844 124.579062 
C 125.254844 124.579062 125.254844 124.579062 125.254844 124.579062 
L 42.295617 132.749833 
C 42.563059 135.465212 42.963657 138.165825 43.495964 140.841915 
C 44.028272 143.518005 44.691647 146.166347 45.483694 148.777376 
z
" clip-path="url(#pa5f1698b38)" style="fill: #ff8c8e"/>
   </g>
   <g id="patch_91">
    <path d="M 125.254844 124.579062 
C 125.254844 124.579062 125.254844 124.579062 125.254844 124.579062 
C 125.254844 124.579062 125.254844 124.579062 125.254844 124.579062 
L 21.078299 114.318568 
C 20.742458 117.728422 20.574234 121.15271 20.574234 124.579062 
C 20.574234 128.005415 20.742458 131.429703 21.078299 134.839557 
z
" clip-path="url(#pa5f1698b38)" style="fill: #ff8c8e"/>
   </g>
   <g id="patch_92">
    <path d="M 125.254844 124.579062 
C 125.254844 124.579062 125.254844 124.579062 125.254844 124.579062 
C 125.254844 124.579062 125.254844 124.579062 125.254844 124.579062 
L 43.964107 99.919787 
C 43.156972 102.580554 42.48096 105.279346 41.938512 108.006414 
C 41.396065 110.733482 40.987836 113.485539 40.7153 116.252644 
z
" clip-path="url(#pa5f1698b38)" style="fill: #ff8c8e"/>
   </g>
   <g id="patch_93">
    <path d="M 125.254844 124.579062 
C 125.254844 124.579062 125.254844 124.579062 125.254844 124.579062 
C 125.254844 124.579062 125.254844 124.579062 125.254844 124.579062 
L 56.108687 87.619671 
C 54.898951 89.882928 53.801063 92.204216 52.81899 94.57515 
C 51.836918 96.946083 50.971843 99.363805 50.226891 101.819582 
z
" clip-path="url(#pa5f1698b38)" style="fill: #ff8c8e"/>
   </g>
   <g id="patch_94">
    <path d="M 125.254844 124.579062 
C 125.254844 124.579062 125.254844 124.579062 125.254844 124.579062 
C 125.254844 124.579062 125.254844 124.579062 125.254844 124.579062 
L 39.543442 54.237533 
C 37.241058 57.042995 35.077803 59.959807 33.06149 62.977433 
C 31.045177 65.995059 29.178236 69.109862 27.467411 72.31059 
z
" clip-path="url(#pa5f1698b38)" style="fill: #ff8c8e"/>
   </g>
   <g id="patch_95">
    <path d="M 125.254844 124.579062 
C 125.254844 124.579062 125.254844 124.579062 125.254844 124.579062 
C 125.254844 124.579062 125.254844 124.579062 125.254844 124.579062 
L 85.087 75.634403 
C 83.484968 76.949156 81.948452 78.341773 80.483003 79.807222 
C 79.017554 81.272671 77.624938 82.809187 76.310184 84.411218 
z
" clip-path="url(#pa5f1698b38)" style="fill: #ff8c8e"/>
   </g>
   <g id="patch_96">
    <path d="M 125.254844 124.579062 
C 125.254844 124.579062 125.254844 124.579062 125.254844 124.579062 
C 125.254844 124.579062 125.254844 124.579062 125.254844 124.579062 
L 86.722015 52.48921 
C 84.362406 53.750447 82.066143 55.126774 79.84152 56.61322 
C 77.616896 58.099666 75.466594 59.694439 73.39838 61.391779 
z
" clip-path="url(#pa5f1698b38)" style="fill: #ff8c8e"/>
   </g>
   <g id="patch_97">
    <path d="M 125.254844 124.579062 
C 125.254844 124.579062 125.254844 124.579062 125.254844 124.579062 
C 125.254844 124.579062 125.254844 124.579062 125.254844 124.579062 
L 106.874905 63.988525 
C 104.891686 64.590128 102.9392 65.288738 101.024498 66.081834 
C 99.109797 66.874929 97.235188 67.761553 95.407443 68.738503 
z
" clip-path="url(#pa5f1698b38)" style="fill: #ff8c8e"/>
   </g>
   <g id="patch_98">
    <path d="M 125.254844 124.579062 
C 125.254844 124.579062 125.254844 124.579062 125.254844 124.579062 
C 125.254844 124.579062 125.254844 124.579062 125.254844 124.579062 
L 116.478028 35.466559 
C 113.561243 35.753837 110.66032 36.184148 107.785738 36.755938 
C 104.911156 37.327728 102.06638 38.040307 99.261685 38.891102 
z
" clip-path="url(#pa5f1698b38)" style="fill: #ff8c8e"/>
   </g>
   <g id="patch_99">
    <path d="M 118.456352 55.552814 
C 120.715684 55.330289 122.98458 55.218825 125.254844 55.218825 
C 127.525108 55.218825 129.794004 55.330289 132.053336 55.552814 
L 132.053336 55.552814 
C 129.794004 55.330289 127.525108 55.218825 125.254844 55.218825 
C 122.98458 55.218825 120.715684 55.330289 118.456352 55.552814 
z
" clip-path="url(#pa5f1698b38)" style="fill: #828282"/>
   </g>
   <g id="patch_100">
    <path d="M 128.459684 92.039777 
C 129.524743 92.144676 130.58401 92.301803 131.633659 92.510592 
C 132.683308 92.71938 133.722074 92.979577 134.746203 93.290243 
L 134.746203 93.290243 
C 133.722074 92.979577 132.683308 92.71938 131.633659 92.510592 
C 130.58401 92.301803 129.524743 92.144676 128.459684 92.039777 
z
" clip-path="url(#pa5f1698b38)" style="fill: #828282"/>
   </g>
   <g id="patch_101">
    <path d="M 148.014324 49.55111 
C 150.470101 50.296062 152.887823 51.161136 155.258757 52.143209 
C 157.62969 53.125282 159.950978 54.223169 162.214235 55.432905 
L 162.214235 55.432905 
C 159.950978 54.223169 157.62969 53.125282 155.258757 52.143209 
C 152.887823 51.161136 150.470101 50.296062 148.014324 49.55111 
z
" clip-path="url(#pa5f1698b38)" style="fill: #828282"/>
   </g>
   <g id="patch_102">
    <path d="M 150.814631 76.760064 
C 152.379818 77.596674 153.902987 78.509626 155.378635 79.495623 
C 156.854283 80.48162 158.280632 81.539472 159.65253 82.66536 
L 159.65253 82.66536 
C 158.280632 81.539472 156.854283 80.48162 155.378635 79.495623 
C 153.902987 78.509626 152.379818 77.596674 150.814631 76.760064 
z
" clip-path="url(#pa5f1698b38)" style="fill: #828282"/>
   </g>
   <g id="patch_103">
    <path d="M 148.445759 96.32085 
C 149.370693 97.079923 150.2578 97.883951 151.103878 98.730028 
C 151.949955 99.576106 152.753983 100.463213 153.513056 101.388147 
L 153.513056 101.388147 
C 152.753983 100.463213 151.949955 99.576106 151.103878 98.730028 
C 150.2578 97.883951 149.370693 97.079923 148.445759 96.32085 
z
" clip-path="url(#pa5f1698b38)" style="fill: #828282"/>
   </g>
   <g id="patch_104">
    <path d="M 202.125492 61.492952 
C 204.190395 64.009043 206.13052 66.624998 207.938859 69.33137 
C 209.747199 72.037741 211.421573 74.831265 212.955934 77.701853 
L 212.955934 77.701853 
C 211.421573 74.831265 209.747199 72.037741 207.938859 69.33137 
C 206.13052 66.624998 204.190395 64.009043 202.125492 61.492952 
z
" clip-path="url(#pa5f1698b38)" style="fill: #828282"/>
   </g>
   <g id="patch_105">
    <path d="M 175.200158 97.882736 
C 176.073969 99.51752 176.86699 101.194221 177.576356 102.906783 
C 178.285722 104.619344 178.910578 106.365701 179.448668 108.139546 
L 179.448668 108.139546 
C 178.910578 106.365701 178.285722 104.619344 177.576356 102.906783 
C 176.86699 101.194221 176.073969 99.51752 175.200158 97.882736 
z
" clip-path="url(#pa5f1698b38)" style="fill: #828282"/>
   </g>
   <g id="patch_106">
    <path d="M 140.899253 119.833383 
C 141.054587 120.345448 141.184685 120.86483 141.289079 121.389655 
C 141.393473 121.914479 141.472037 122.444113 141.524487 122.976643 
L 141.524487 122.976643 
C 141.472037 122.444113 141.393473 121.914479 141.289079 121.389655 
C 141.184685 120.86483 141.054587 120.345448 140.899253 119.833383 
z
" clip-path="url(#pa5f1698b38)" style="fill: #828282"/>
   </g>
   <g id="patch_107">
    <path d="M 161.634871 120.995943 
C 161.752152 122.186715 161.810898 123.382528 161.810898 124.579062 
C 161.810898 125.775597 161.752152 126.97141 161.634871 128.162182 
L 161.634871 128.162182 
C 161.752152 126.97141 161.810898 125.775597 161.810898 124.579062 
C 161.810898 123.382528 161.752152 122.186715 161.634871 120.995943 
z
" clip-path="url(#pa5f1698b38)" style="fill: #828282"/>
   </g>
   <g id="patch_108">
    <path d="M 125.254844 124.579062 
C 125.254844 124.579062 125.254844 124.579062 125.254844 124.579062 
C 125.254844 124.579062 125.254844 124.579062 125.254844 124.579062 
L 125.254844 124.579062 
C 125.254844 124.579062 125.254844 124.579062 125.254844 124.579062 
C 125.254844 124.579062 125.254844 124.579062 125.254844 124.579062 
z
" clip-path="url(#pa5f1698b38)" style="fill: #828282"/>
   </g>
   <g id="patch_109">
    <path d="M 140.899253 129.324742 
C 140.74392 129.836807 140.56354 130.340937 140.358763 130.835311 
C 140.153987 131.329685 139.925062 131.813707 139.672814 132.285628 
L 139.672814 132.285628 
C 139.925062 131.813707 140.153987 131.329685 140.358763 130.835311 
C 140.56354 130.340937 140.74392 129.836807 140.899253 129.324742 
z
" clip-path="url(#pa5f1698b38)" style="fill: #828282"/>
   </g>
   <g id="patch_110">
    <path d="M 125.254844 124.579062 
C 125.254844 124.579062 125.254844 124.579062 125.254844 124.579062 
C 125.254844 124.579062 125.254844 124.579062 125.254844 124.579062 
L 125.254844 124.579062 
C 125.254844 124.579062 125.254844 124.579062 125.254844 124.579062 
C 125.254844 124.579062 125.254844 124.579062 125.254844 124.579062 
z
" clip-path="url(#pa5f1698b38)" style="fill: #828282"/>
   </g>
   <g id="patch_111">
    <path d="M 125.254844 124.579062 
C 125.254844 124.579062 125.254844 124.579062 125.254844 124.579062 
C 125.254844 124.579062 125.254844 124.579062 125.254844 124.579062 
L 125.254844 124.579062 
C 125.254844 124.579062 125.254844 124.579062 125.254844 124.579062 
C 125.254844 124.579062 125.254844 124.579062 125.254844 124.579062 
z
" clip-path="url(#pa5f1698b38)" style="fill: #828282"/>
   </g>
   <g id="patch_112">
    <path d="M 125.254844 124.579062 
C 125.254844 124.579062 125.254844 124.579062 125.254844 124.579062 
C 125.254844 124.579062 125.254844 124.579062 125.254844 124.579062 
L 125.254844 124.579062 
C 125.254844 124.579062 125.254844 124.579062 125.254844 124.579062 
C 125.254844 124.579062 125.254844 124.579062 125.254844 124.579062 
z
" clip-path="url(#pa5f1698b38)" style="fill: #828282"/>
   </g>
   <g id="patch_113">
    <path d="M 125.254844 124.579062 
C 125.254844 124.579062 125.254844 124.579062 125.254844 124.579062 
C 125.254844 124.579062 125.254844 124.579062 125.254844 124.579062 
L 125.254844 124.579062 
C 125.254844 124.579062 125.254844 124.579062 125.254844 124.579062 
C 125.254844 124.579062 125.254844 124.579062 125.254844 124.579062 
z
" clip-path="url(#pa5f1698b38)" style="fill: #828282"/>
   </g>
   <g id="patch_114">
    <path d="M 125.254844 124.579062 
C 125.254844 124.579062 125.254844 124.579062 125.254844 124.579062 
C 125.254844 124.579062 125.254844 124.579062 125.254844 124.579062 
L 125.254844 124.579062 
C 125.254844 124.579062 125.254844 124.579062 125.254844 124.579062 
C 125.254844 124.579062 125.254844 124.579062 125.254844 124.579062 
z
" clip-path="url(#pa5f1698b38)" style="fill: #828282"/>
   </g>
   <g id="patch_115">
    <path d="M 125.254844 124.579062 
C 125.254844 124.579062 125.254844 124.579062 125.254844 124.579062 
C 125.254844 124.579062 125.254844 124.579062 125.254844 124.579062 
L 125.254844 124.579062 
C 125.254844 124.579062 125.254844 124.579062 125.254844 124.579062 
C 125.254844 124.579062 125.254844 124.579062 125.254844 124.579062 
z
" clip-path="url(#pa5f1698b38)" style="fill: #828282"/>
   </g>
   <g id="patch_116">
    <path d="M 125.254844 124.579062 
C 125.254844 124.579062 125.254844 124.579062 125.254844 124.579062 
C 125.254844 124.579062 125.254844 124.579062 125.254844 124.579062 
L 125.254844 124.579062 
C 125.254844 124.579062 125.254844 124.579062 125.254844 124.579062 
C 125.254844 124.579062 125.254844 124.579062 125.254844 124.579062 
z
" clip-path="url(#pa5f1698b38)" style="fill: #828282"/>
   </g>
   <g id="patch_117">
    <path d="M 118.543439 146.703599 
C 117.81927 146.483924 117.106323 146.228828 116.407173 145.93923 
C 115.708022 145.649633 115.023512 145.325884 114.356114 144.969152 
L 114.356114 144.969152 
C 115.023512 145.325884 115.708022 145.649633 116.407173 145.93923 
C 117.106323 146.228828 117.81927 146.483924 118.543439 146.703599 
z
" clip-path="url(#pa5f1698b38)" style="fill: #828282"/>
   </g>
   <g id="patch_118">
    <path d="M 109.841712 153.415003 
C 108.897869 152.910509 107.979364 152.359978 107.089514 151.765399 
C 106.199665 151.170821 105.339544 150.532912 104.512258 149.853976 
L 104.512258 149.853976 
C 105.339544 150.532912 106.199665 151.170821 107.089514 151.765399 
C 107.979364 152.359978 108.897869 152.910509 109.841712 153.415003 
z
" clip-path="url(#pa5f1698b38)" style="fill: #828282"/>
   </g>
   <g id="patch_119">
    <path d="M 85.087 173.523722 
C 83.484968 172.208969 81.948452 170.816352 80.483003 169.350903 
C 79.017554 167.885454 77.624938 166.348938 76.310184 164.746907 
L 76.310184 164.746907 
C 77.624938 166.348938 79.017554 167.885454 80.483003 169.350903 
C 81.948452 170.816352 83.484968 172.208969 85.087 173.523722 
z
" clip-path="url(#pa5f1698b38)" style="fill: #828282"/>
   </g>
   <g id="patch_120">
    <path d="M 87.342473 155.692941 
C 86.32407 154.452012 85.367206 153.161831 84.475338 151.827057 
C 83.583471 150.492283 82.757675 149.114525 82.000932 147.69876 
L 82.000932 147.69876 
C 82.757675 149.114525 83.583471 150.492283 84.475338 151.827057 
C 85.367206 153.161831 86.32407 154.452012 87.342473 155.692941 
z
" clip-path="url(#pa5f1698b38)" style="fill: #828282"/>
   </g>
   <g id="patch_121">
    <path d="M 43.694486 168.173982 
C 42.26756 165.504389 40.972562 162.766348 39.814172 159.969747 
C 38.655783 157.173147 37.635396 154.321358 36.756699 151.424681 
L 36.756699 151.424681 
C 37.635396 154.321358 38.655783 157.173147 39.814172 159.969747 
C 40.972562 162.766348 42.26756 165.504389 43.694486 168.173982 
z
" clip-path="url(#pa5f1698b38)" style="fill: #828282"/>
   </g>
   <g id="patch_122">
    <path d="M 45.483694 148.777376 
C 44.691647 146.166347 44.028272 143.518005 43.495964 140.841915 
C 42.963657 138.165825 42.563059 135.465212 42.295617 132.749833 
L 42.295617 132.749833 
C 42.563059 135.465212 42.963657 138.165825 43.495964 140.841915 
C 44.028272 143.518005 44.691647 146.166347 45.483694 148.777376 
z
" clip-path="url(#pa5f1698b38)" style="fill: #828282"/>
   </g>
   <g id="patch_123">
    <path d="M 21.078299 134.839557 
C 20.742458 131.429703 20.574234 128.005415 20.574234 124.579062 
C 20.574234 121.15271 20.742458 117.728422 21.078299 114.318568 
L 21.078299 114.318568 
C 20.742458 117.728422 20.574234 121.15271 20.574234 124.579062 
C 20.574234 128.005415 20.742458 131.429703 21.078299 134.839557 
z
" clip-path="url(#pa5f1698b38)" style="fill: #828282"/>
   </g>
   <g id="patch_124">
    <path d="M 40.7153 116.252644 
C 40.987836 113.485539 41.396065 110.733482 41.938512 108.006414 
C 42.48096 105.279346 43.156972 102.580554 43.964107 99.919787 
L 43.964107 99.919787 
C 43.156972 102.580554 42.48096 105.279346 41.938512 108.006414 
C 41.396065 110.733482 40.987836 113.485539 40.7153 116.252644 
z
" clip-path="url(#pa5f1698b38)" style="fill: #828282"/>
   </g>
   <g id="patch_125">
    <path d="M 50.226891 101.819582 
C 50.971843 99.363805 51.836918 96.946083 52.81899 94.57515 
C 53.801063 92.204216 54.898951 89.882928 56.108687 87.619671 
L 56.108687 87.619671 
C 54.898951 89.882928 53.801063 92.204216 52.81899 94.57515 
C 51.836918 96.946083 50.971843 99.363805 50.226891 101.819582 
z
" clip-path="url(#pa5f1698b38)" style="fill: #828282"/>
   </g>
   <g id="patch_126">
    <path d="M 27.467411 72.31059 
C 29.178236 69.109862 31.045177 65.995059 33.06149 62.977433 
C 35.077803 59.959807 37.241058 57.042995 39.543442 54.237533 
L 39.543442 54.237533 
C 37.241058 57.042995 35.077803 59.959807 33.06149 62.977433 
C 31.045177 65.995059 29.178236 69.109862 27.467411 72.31059 
z
" clip-path="url(#pa5f1698b38)" style="fill: #828282"/>
   </g>
   <g id="patch_127">
    <path d="M 76.310184 84.411218 
C 77.624938 82.809187 79.017554 81.272671 80.483003 79.807222 
C 81.948452 78.341773 83.484968 76.949156 85.087 75.634403 
L 85.087 75.634403 
C 83.484968 76.949156 81.948452 78.341773 80.483003 79.807222 
C 79.017554 81.272671 77.624938 82.809187 76.310184 84.411218 
z
" clip-path="url(#pa5f1698b38)" style="fill: #828282"/>
   </g>
   <g id="patch_128">
    <path d="M 73.39838 61.391779 
C 75.466594 59.694439 77.616896 58.099666 79.84152 56.61322 
C 82.066143 55.126774 84.362406 53.750447 86.722015 52.48921 
L 86.722015 52.48921 
C 84.362406 53.750447 82.066143 55.126774 79.84152 56.61322 
C 77.616896 58.099666 75.466594 59.694439 73.39838 61.391779 
z
" clip-path="url(#pa5f1698b38)" style="fill: #828282"/>
   </g>
   <g id="patch_129">
    <path d="M 95.407443 68.738503 
C 97.235188 67.761553 99.109797 66.874929 101.024498 66.081834 
C 102.9392 65.288738 104.891686 64.590128 106.874905 63.988525 
L 106.874905 63.988525 
C 104.891686 64.590128 102.9392 65.288738 101.024498 66.081834 
C 99.109797 66.874929 97.235188 67.761553 95.407443 68.738503 
z
" clip-path="url(#pa5f1698b38)" style="fill: #828282"/>
   </g>
   <g id="patch_130">
    <path d="M 99.261685 38.891102 
C 102.06638 38.040307 104.911156 37.327728 107.785738 36.755938 
C 110.66032 36.184148 113.561243 35.753837 116.478028 35.466559 
L 116.478028 35.466559 
C 113.561243 35.753837 110.66032 36.184148 107.785738 36.755938 
C 104.911156 37.327728 102.06638 38.040307 99.261685 38.891102 
z
" clip-path="url(#pa5f1698b38)" style="fill: #828282"/>
   </g>
   <g id="patch_131">
    <path d="M 125.254844 124.579062 
C 125.254844 124.579062 125.254844 124.579062 125.254844 124.579062 
C 125.254844 124.579062 125.254844 124.579062 125.254844 124.579062 
L 132.053336 55.552814 
C 129.794004 55.330289 127.525108 55.218825 125.254844 55.218825 
C 122.98458 55.218825 120.715684 55.330289 118.456352 55.552814 
L 125.254844 124.579062 
z
" clip-path="url(#pa5f1698b38)" style="fill: none; stroke: #292929; stroke-width: 0.5; stroke-linejoin: miter"/>
   </g>
   <g id="patch_132">
    <path d="M 125.254844 124.579062 
C 125.254844 124.579062 125.254844 124.579062 125.254844 124.579062 
C 125.254844 124.579062 125.254844 124.579062 125.254844 124.579062 
L 134.746203 93.290243 
C 133.722074 92.979577 132.683308 92.71938 131.633659 92.510592 
C 130.58401 92.301803 129.524743 92.144676 128.459684 92.039777 
L 125.254844 124.579062 
z
" clip-path="url(#pa5f1698b38)" style="fill: none; stroke: #292929; stroke-width: 0.5; stroke-linejoin: miter"/>
   </g>
   <g id="patch_133">
    <path d="M 125.254844 124.579062 
C 125.254844 124.579062 125.254844 124.579062 125.254844 124.579062 
C 125.254844 124.579062 125.254844 124.579062 125.254844 124.579062 
L 162.214235 55.432905 
C 159.950978 54.223169 157.62969 53.125282 155.258757 52.143209 
C 152.887823 51.161136 150.470101 50.296062 148.014324 49.55111 
L 125.254844 124.579062 
z
" clip-path="url(#pa5f1698b38)" style="fill: none; stroke: #292929; stroke-width: 0.5; stroke-linejoin: miter"/>
   </g>
   <g id="patch_134">
    <path d="M 125.254844 124.579062 
C 125.254844 124.579062 125.254844 124.579062 125.254844 124.579062 
C 125.254844 124.579062 125.254844 124.579062 125.254844 124.579062 
L 159.65253 82.66536 
C 158.280632 81.539472 156.854283 80.48162 155.378635 79.495623 
C 153.902987 78.509626 152.379818 77.596674 150.814631 76.760064 
L 125.254844 124.579062 
z
" clip-path="url(#pa5f1698b38)" style="fill: none; stroke: #292929; stroke-width: 0.5; stroke-linejoin: miter"/>
   </g>
   <g id="patch_135">
    <path d="M 125.254844 124.579062 
C 125.254844 124.579062 125.254844 124.579062 125.254844 124.579062 
C 125.254844 124.579062 125.254844 124.579062 125.254844 124.579062 
L 153.513056 101.388147 
C 152.753983 100.463213 151.949955 99.576106 151.103878 98.730028 
C 150.2578 97.883951 149.370693 97.079923 148.445759 96.32085 
L 125.254844 124.579062 
z
" clip-path="url(#pa5f1698b38)" style="fill: none; stroke: #292929; stroke-width: 0.5; stroke-linejoin: miter"/>
   </g>
   <g id="patch_136">
    <path d="M 125.254844 124.579062 
C 125.254844 124.579062 125.254844 124.579062 125.254844 124.579062 
C 125.254844 124.579062 125.254844 124.579062 125.254844 124.579062 
L 212.955934 77.701853 
C 211.421573 74.831265 209.747199 72.037741 207.938859 69.33137 
C 206.13052 66.624998 204.190395 64.009043 202.125492 61.492952 
L 125.254844 124.579062 
z
" clip-path="url(#pa5f1698b38)" style="fill: none; stroke: #292929; stroke-width: 0.5; stroke-linejoin: miter"/>
   </g>
   <g id="patch_137">
    <path d="M 125.254844 124.579062 
C 125.254844 124.579062 125.254844 124.579062 125.254844 124.579062 
C 125.254844 124.579062 125.254844 124.579062 125.254844 124.579062 
L 179.448668 108.139546 
C 178.910578 106.365701 178.285722 104.619344 177.576356 102.906783 
C 176.86699 101.194221 176.073969 99.51752 175.200158 97.882736 
L 125.254844 124.579062 
z
" clip-path="url(#pa5f1698b38)" style="fill: none; stroke: #292929; stroke-width: 0.5; stroke-linejoin: miter"/>
   </g>
   <g id="patch_138">
    <path d="M 125.254844 124.579062 
C 125.254844 124.579062 125.254844 124.579062 125.254844 124.579062 
C 125.254844 124.579062 125.254844 124.579062 125.254844 124.579062 
L 141.524487 122.976643 
C 141.472037 122.444113 141.393473 121.914479 141.289079 121.389655 
C 141.184685 120.86483 141.054587 120.345448 140.899253 119.833383 
L 125.254844 124.579062 
z
" clip-path="url(#pa5f1698b38)" style="fill: none; stroke: #292929; stroke-width: 0.5; stroke-linejoin: miter"/>
   </g>
   <g id="patch_139">
    <path d="M 125.254844 124.579062 
C 125.254844 124.579062 125.254844 124.579062 125.254844 124.579062 
C 125.254844 124.579062 125.254844 124.579062 125.254844 124.579062 
L 161.634871 128.162182 
C 161.752152 126.97141 161.810898 125.775597 161.810898 124.579062 
C 161.810898 123.382528 161.752152 122.186715 161.634871 120.995943 
L 125.254844 124.579062 
z
" clip-path="url(#pa5f1698b38)" style="fill: none; stroke: #292929; stroke-width: 0.5; stroke-linejoin: miter"/>
   </g>
   <g id="patch_140">
    <path d="M 125.254844 124.579062 
C 125.254844 124.579062 125.254844 124.579062 125.254844 124.579062 
C 125.254844 124.579062 125.254844 124.579062 125.254844 124.579062 
L 125.254844 124.579062 
C 125.254844 124.579062 125.254844 124.579062 125.254844 124.579062 
C 125.254844 124.579062 125.254844 124.579062 125.254844 124.579062 
L 125.254844 124.579062 
z
" clip-path="url(#pa5f1698b38)" style="fill: none; stroke: #292929; stroke-width: 0.5; stroke-linejoin: miter"/>
   </g>
   <g id="patch_141">
    <path d="M 125.254844 124.579062 
C 125.254844 124.579062 125.254844 124.579062 125.254844 124.579062 
C 125.254844 124.579062 125.254844 124.579062 125.254844 124.579062 
L 139.672814 132.285628 
C 139.925062 131.813707 140.153987 131.329685 140.358763 130.835311 
C 140.56354 130.340937 140.74392 129.836807 140.899253 129.324742 
L 125.254844 124.579062 
z
" clip-path="url(#pa5f1698b38)" style="fill: none; stroke: #292929; stroke-width: 0.5; stroke-linejoin: miter"/>
   </g>
   <g id="patch_142">
    <path d="M 125.254844 124.579062 
C 125.254844 124.579062 125.254844 124.579062 125.254844 124.579062 
C 125.254844 124.579062 125.254844 124.579062 125.254844 124.579062 
L 125.254844 124.579062 
C 125.254844 124.579062 125.254844 124.579062 125.254844 124.579062 
C 125.254844 124.579062 125.254844 124.579062 125.254844 124.579062 
L 125.254844 124.579062 
z
" clip-path="url(#pa5f1698b38)" style="fill: none; stroke: #292929; stroke-width: 0.5; stroke-linejoin: miter"/>
   </g>
   <g id="patch_143">
    <path d="M 125.254844 124.579062 
C 125.254844 124.579062 125.254844 124.579062 125.254844 124.579062 
C 125.254844 124.579062 125.254844 124.579062 125.254844 124.579062 
L 125.254844 124.579062 
C 125.254844 124.579062 125.254844 124.579062 125.254844 124.579062 
C 125.254844 124.579062 125.254844 124.579062 125.254844 124.579062 
L 125.254844 124.579062 
z
" clip-path="url(#pa5f1698b38)" style="fill: none; stroke: #292929; stroke-width: 0.5; stroke-linejoin: miter"/>
   </g>
   <g id="patch_144">
    <path d="M 125.254844 124.579062 
C 125.254844 124.579062 125.254844 124.579062 125.254844 124.579062 
C 125.254844 124.579062 125.254844 124.579062 125.254844 124.579062 
L 125.254844 124.579062 
C 125.254844 124.579062 125.254844 124.579062 125.254844 124.579062 
C 125.254844 124.579062 125.254844 124.579062 125.254844 124.579062 
L 125.254844 124.579062 
z
" clip-path="url(#pa5f1698b38)" style="fill: none; stroke: #292929; stroke-width: 0.5; stroke-linejoin: miter"/>
   </g>
   <g id="patch_145">
    <path d="M 125.254844 124.579062 
C 125.254844 124.579062 125.254844 124.579062 125.254844 124.579062 
C 125.254844 124.579062 125.254844 124.579062 125.254844 124.579062 
L 125.254844 124.579062 
C 125.254844 124.579062 125.254844 124.579062 125.254844 124.579062 
C 125.254844 124.579062 125.254844 124.579062 125.254844 124.579062 
L 125.254844 124.579062 
z
" clip-path="url(#pa5f1698b38)" style="fill: none; stroke: #292929; stroke-width: 0.5; stroke-linejoin: miter"/>
   </g>
   <g id="patch_146">
    <path d="M 125.254844 124.579062 
C 125.254844 124.579062 125.254844 124.579062 125.254844 124.579062 
C 125.254844 124.579062 125.254844 124.579062 125.254844 124.579062 
L 125.254844 124.579062 
C 125.254844 124.579062 125.254844 124.579062 125.254844 124.579062 
C 125.254844 124.579062 125.254844 124.579062 125.254844 124.579062 
L 125.254844 124.579062 
z
" clip-path="url(#pa5f1698b38)" style="fill: none; stroke: #292929; stroke-width: 0.5; stroke-linejoin: miter"/>
   </g>
   <g id="patch_147">
    <path d="M 125.254844 124.579062 
C 125.254844 124.579062 125.254844 124.579062 125.254844 124.579062 
C 125.254844 124.579062 125.254844 124.579062 125.254844 124.579062 
L 125.254844 124.579062 
C 125.254844 124.579062 125.254844 124.579062 125.254844 124.579062 
C 125.254844 124.579062 125.254844 124.579062 125.254844 124.579062 
L 125.254844 124.579062 
z
" clip-path="url(#pa5f1698b38)" style="fill: none; stroke: #292929; stroke-width: 0.5; stroke-linejoin: miter"/>
   </g>
   <g id="patch_148">
    <path d="M 125.254844 124.579062 
C 125.254844 124.579062 125.254844 124.579062 125.254844 124.579062 
C 125.254844 124.579062 125.254844 124.579062 125.254844 124.579062 
L 125.254844 124.579062 
C 125.254844 124.579062 125.254844 124.579062 125.254844 124.579062 
C 125.254844 124.579062 125.254844 124.579062 125.254844 124.579062 
L 125.254844 124.579062 
z
" clip-path="url(#pa5f1698b38)" style="fill: none; stroke: #292929; stroke-width: 0.5; stroke-linejoin: miter"/>
   </g>
   <g id="patch_149">
    <path d="M 125.254844 124.579062 
C 125.254844 124.579062 125.254844 124.579062 125.254844 124.579062 
C 125.254844 124.579062 125.254844 124.579062 125.254844 124.579062 
L 114.356114 144.969152 
C 115.023512 145.325884 115.708022 145.649633 116.407173 145.93923 
C 117.106323 146.228828 117.81927 146.483924 118.543439 146.703599 
L 125.254844 124.579062 
z
" clip-path="url(#pa5f1698b38)" style="fill: none; stroke: #292929; stroke-width: 0.5; stroke-linejoin: miter"/>
   </g>
   <g id="patch_150">
    <path d="M 125.254844 124.579062 
C 125.254844 124.579062 125.254844 124.579062 125.254844 124.579062 
C 125.254844 124.579062 125.254844 124.579062 125.254844 124.579062 
L 104.512258 149.853976 
C 105.339544 150.532912 106.199665 151.170821 107.089514 151.765399 
C 107.979364 152.359978 108.897869 152.910509 109.841712 153.415003 
L 125.254844 124.579062 
z
" clip-path="url(#pa5f1698b38)" style="fill: none; stroke: #292929; stroke-width: 0.5; stroke-linejoin: miter"/>
   </g>
   <g id="patch_151">
    <path d="M 125.254844 124.579062 
C 125.254844 124.579062 125.254844 124.579062 125.254844 124.579062 
C 125.254844 124.579062 125.254844 124.579062 125.254844 124.579062 
L 76.310184 164.746907 
C 77.624938 166.348938 79.017554 167.885454 80.483003 169.350903 
C 81.948452 170.816352 83.484968 172.208969 85.087 173.523722 
L 125.254844 124.579062 
z
" clip-path="url(#pa5f1698b38)" style="fill: none; stroke: #292929; stroke-width: 0.5; stroke-linejoin: miter"/>
   </g>
   <g id="patch_152">
    <path d="M 125.254844 124.579062 
C 125.254844 124.579062 125.254844 124.579062 125.254844 124.579062 
C 125.254844 124.579062 125.254844 124.579062 125.254844 124.579062 
L 82.000932 147.69876 
C 82.757675 149.114525 83.583471 150.492283 84.475338 151.827057 
C 85.367206 153.161831 86.32407 154.452012 87.342473 155.692941 
L 125.254844 124.579062 
z
" clip-path="url(#pa5f1698b38)" style="fill: none; stroke: #292929; stroke-width: 0.5; stroke-linejoin: miter"/>
   </g>
   <g id="patch_153">
    <path d="M 125.254844 124.579062 
C 125.254844 124.579062 125.254844 124.579062 125.254844 124.579062 
C 125.254844 124.579062 125.254844 124.579062 125.254844 124.579062 
L 36.756699 151.424681 
C 37.635396 154.321358 38.655783 157.173147 39.814172 159.969747 
C 40.972562 162.766348 42.26756 165.504389 43.694486 168.173982 
L 125.254844 124.579062 
z
" clip-path="url(#pa5f1698b38)" style="fill: none; stroke: #292929; stroke-width: 0.5; stroke-linejoin: miter"/>
   </g>
   <g id="patch_154">
    <path d="M 125.254844 124.579062 
C 125.254844 124.579062 125.254844 124.579062 125.254844 124.579062 
C 125.254844 124.579062 125.254844 124.579062 125.254844 124.579062 
L 42.295617 132.749833 
C 42.563059 135.465212 42.963657 138.165825 43.495964 140.841915 
C 44.028272 143.518005 44.691647 146.166347 45.483694 148.777376 
L 125.254844 124.579062 
z
" clip-path="url(#pa5f1698b38)" style="fill: none; stroke: #292929; stroke-width: 0.5; stroke-linejoin: miter"/>
   </g>
   <g id="patch_155">
    <path d="M 125.254844 124.579062 
C 125.254844 124.579062 125.254844 124.579062 125.254844 124.579062 
C 125.254844 124.579062 125.254844 124.579062 125.254844 124.579062 
L 21.078299 114.318568 
C 20.742458 117.728422 20.574234 121.15271 20.574234 124.579062 
C 20.574234 128.005415 20.742458 131.429703 21.078299 134.839557 
L 125.254844 124.579062 
z
" clip-path="url(#pa5f1698b38)" style="fill: none; stroke: #292929; stroke-width: 0.5; stroke-linejoin: miter"/>
   </g>
   <g id="patch_156">
    <path d="M 125.254844 124.579062 
C 125.254844 124.579062 125.254844 124.579062 125.254844 124.579062 
C 125.254844 124.579062 125.254844 124.579062 125.254844 124.579062 
L 43.964107 99.919787 
C 43.156972 102.580554 42.48096 105.279346 41.938512 108.006414 
C 41.396065 110.733482 40.987836 113.485539 40.7153 116.252644 
L 125.254844 124.579062 
z
" clip-path="url(#pa5f1698b38)" style="fill: none; stroke: #292929; stroke-width: 0.5; stroke-linejoin: miter"/>
   </g>
   <g id="patch_157">
    <path d="M 125.254844 124.579062 
C 125.254844 124.579062 125.254844 124.579062 125.254844 124.579062 
C 125.254844 124.579062 125.254844 124.579062 125.254844 124.579062 
L 56.108687 87.619671 
C 54.898951 89.882928 53.801063 92.204216 52.81899 94.57515 
C 51.836918 96.946083 50.971843 99.363805 50.226891 101.819582 
L 125.254844 124.579062 
z
" clip-path="url(#pa5f1698b38)" style="fill: none; stroke: #292929; stroke-width: 0.5; stroke-linejoin: miter"/>
   </g>
   <g id="patch_158">
    <path d="M 125.254844 124.579062 
C 125.254844 124.579062 125.254844 124.579062 125.254844 124.579062 
C 125.254844 124.579062 125.254844 124.579062 125.254844 124.579062 
L 39.543442 54.237533 
C 37.241058 57.042995 35.077803 59.959807 33.06149 62.977433 
C 31.045177 65.995059 29.178236 69.109862 27.467411 72.31059 
L 125.254844 124.579062 
z
" clip-path="url(#pa5f1698b38)" style="fill: none; stroke: #292929; stroke-width: 0.5; stroke-linejoin: miter"/>
   </g>
   <g id="patch_159">
    <path d="M 125.254844 124.579062 
C 125.254844 124.579062 125.254844 124.579062 125.254844 124.579062 
C 125.254844 124.579062 125.254844 124.579062 125.254844 124.579062 
L 85.087 75.634403 
C 83.484968 76.949156 81.948452 78.341773 80.483003 79.807222 
C 79.017554 81.272671 77.624938 82.809187 76.310184 84.411218 
L 125.254844 124.579062 
z
" clip-path="url(#pa5f1698b38)" style="fill: none; stroke: #292929; stroke-width: 0.5; stroke-linejoin: miter"/>
   </g>
   <g id="patch_160">
    <path d="M 125.254844 124.579062 
C 125.254844 124.579062 125.254844 124.579062 125.254844 124.579062 
C 125.254844 124.579062 125.254844 124.579062 125.254844 124.579062 
L 86.722015 52.48921 
C 84.362406 53.750447 82.066143 55.126774 79.84152 56.61322 
C 77.616896 58.099666 75.466594 59.694439 73.39838 61.391779 
L 125.254844 124.579062 
z
" clip-path="url(#pa5f1698b38)" style="fill: none; stroke: #292929; stroke-width: 0.5; stroke-linejoin: miter"/>
   </g>
   <g id="patch_161">
    <path d="M 125.254844 124.579062 
C 125.254844 124.579062 125.254844 124.579062 125.254844 124.579062 
C 125.254844 124.579062 125.254844 124.579062 125.254844 124.579062 
L 106.874905 63.988525 
C 104.891686 64.590128 102.9392 65.288738 101.024498 66.081834 
C 99.109797 66.874929 97.235188 67.761553 95.407443 68.738503 
L 125.254844 124.579062 
z
" clip-path="url(#pa5f1698b38)" style="fill: none; stroke: #292929; stroke-width: 0.5; stroke-linejoin: miter"/>
   </g>
   <g id="patch_162">
    <path d="M 125.254844 124.579062 
C 125.254844 124.579062 125.254844 124.579062 125.254844 124.579062 
C 125.254844 124.579062 125.254844 124.579062 125.254844 124.579062 
L 116.478028 35.466559 
C 113.561243 35.753837 110.66032 36.184148 107.785738 36.755938 
C 104.911156 37.327728 102.06638 38.040307 99.261685 38.891102 
L 125.254844 124.579062 
z
" clip-path="url(#pa5f1698b38)" style="fill: none; stroke: #292929; stroke-width: 0.5; stroke-linejoin: miter"/>
   </g>
   <g id="PathCollection_1">
    <defs>
     <path id="me73b906396" d="M 0.193618 7.414054 
L 0.193618 7.414054 
C 0.054922 7.414054 -0.078235 7.358899 -0.176308 7.260826 
C -0.274381 7.162753 -0.329536 7.029596 -0.329536 6.890901 
L -0.329536 5.365008 
L -1.528416 6.56393 
L -1.528416 6.56393 
C -1.577018 6.612704 -1.634775 6.651408 -1.698366 6.677814 
C -1.761958 6.704221 -1.830141 6.717815 -1.898997 6.717815 
C -1.967853 6.717815 -2.036037 6.704221 -2.099628 6.677814 
C -2.163219 6.651408 -2.220976 6.612704 -2.269578 6.56393 
L -2.269578 6.56393 
C -2.318353 6.515327 -2.357056 6.457571 -2.383463 6.393979 
C -2.409869 6.330388 -2.423463 6.262205 -2.423463 6.193348 
C -2.423463 6.124492 -2.409869 6.056309 -2.383463 5.992718 
C -2.357056 5.929126 -2.318353 5.87137 -2.269578 5.822767 
L -0.329536 3.884106 
L -0.329536 0.820937 
L -2.98067 2.351538 
L -3.691824 5.001416 
L -3.691824 5.001416 
C -3.727584 5.135411 -3.815199 5.249836 -3.93523 5.319305 
C -4.055261 5.388775 -4.198123 5.407741 -4.332122 5.371997 
L -4.332122 5.371997 
C -4.466126 5.336237 -4.580558 5.248616 -4.650029 5.128576 
C -4.719499 5.008535 -4.73846 4.865662 -4.702703 4.731657 
L -4.262647 3.092721 
L -5.585535 3.855668 
L -5.585535 3.855668 
C -5.645013 3.890144 -5.710708 3.912561 -5.778854 3.921634 
C -5.847001 3.930706 -5.916272 3.926258 -5.982698 3.908543 
C -6.049125 3.890828 -6.111412 3.860192 -6.165991 3.818391 
C -6.220571 3.77659 -6.266379 3.724437 -6.300791 3.664922 
L -6.300791 3.664922 
C -6.335212 3.605364 -6.35755 3.539597 -6.366524 3.471396 
C -6.375498 3.403194 -6.370933 3.333888 -6.35309 3.267452 
C -6.335248 3.201017 -6.304476 3.138749 -6.26254 3.08422 
C -6.220605 3.029692 -6.168323 2.983966 -6.108695 2.949666 
L -4.785807 2.186762 
L -6.424743 1.746706 
L -6.424743 1.746706 
C -6.558747 1.710946 -6.673179 1.623325 -6.74265 1.503284 
C -6.81212 1.383244 -6.831081 1.240371 -6.795324 1.106366 
L -6.795324 1.106366 
C -6.777471 1.039969 -6.746703 0.977739 -6.704784 0.923241 
C -6.662864 0.868744 -6.61061 0.823041 -6.551015 0.788752 
C -6.491421 0.754464 -6.425647 0.732257 -6.357465 0.723406 
C -6.289282 0.714554 -6.220019 0.71923 -6.153645 0.737166 
L -3.505232 1.44698 
L -0.852424 -0.08496 
L -3.503767 -1.615666 
L -6.153645 -0.905851 
L -6.153645 -0.905851 
C -6.22011 -0.887939 -6.289462 -0.883321 -6.357716 -0.892262 
C -6.42597 -0.901202 -6.491793 -0.923527 -6.551403 -0.957953 
C -6.611013 -0.992379 -6.663247 -1.038234 -6.705103 -1.092883 
C -6.746958 -1.147533 -6.777619 -1.209911 -6.795324 -1.276432 
L -6.795324 -1.276432 
C -6.831068 -1.410431 -6.812101 -1.553293 -6.742632 -1.673324 
C -6.673162 -1.793355 -6.558738 -1.88097 -6.424743 -1.91673 
L -4.785807 -2.355447 
L -6.108695 -3.119732 
L -6.108695 -3.119732 
C -6.228699 -3.188976 -6.316415 -3.303132 -6.352417 -3.436921 
C -6.388419 -3.57071 -6.369839 -3.713469 -6.300791 -3.833586 
L -6.300791 -3.833586 
C -6.266491 -3.893214 -6.220765 -3.945496 -6.166237 -3.987431 
C -6.111708 -4.029367 -6.04944 -4.060139 -5.983005 -4.077981 
C -5.91657 -4.095823 -5.847263 -4.100389 -5.779062 -4.091415 
C -5.71086 -4.082441 -5.645094 -4.060102 -5.585535 -4.025682 
L -4.262647 -3.261396 
L -4.702703 -4.900332 
L -4.702703 -4.900332 
C -4.73846 -5.034337 -4.719499 -5.17721 -4.650029 -5.29725 
C -4.580558 -5.417291 -4.466126 -5.504912 -4.332122 -5.540672 
L -4.332122 -5.540672 
C -4.19831 -5.576464 -4.055613 -5.557686 -3.935617 -5.488496 
C -3.81562 -5.419305 -3.727882 -5.305212 -3.691824 -5.171472 
L -2.982009 -2.521594 
L -0.329411 -0.990302 
L -0.329411 -4.051588 
L -2.269453 -5.991589 
L -2.269453 -5.991589 
C -2.318227 -6.040191 -2.356931 -6.097947 -2.383337 -6.161539 
C -2.409744 -6.22513 -2.423338 -6.293314 -2.423338 -6.36217 
C -2.423338 -6.431026 -2.409744 -6.499209 -2.383337 -6.5628 
C -2.356931 -6.626392 -2.318227 -6.684149 -2.269453 -6.732751 
L -2.269453 -6.732751 
C -2.22085 -6.781526 -2.163094 -6.820229 -2.099502 -6.846635 
C -2.035911 -6.873042 -1.967728 -6.886636 -1.898871 -6.886636 
C -1.830015 -6.886636 -1.761832 -6.873042 -1.698241 -6.846635 
C -1.634649 -6.820229 -1.576893 -6.781526 -1.52829 -6.732751 
L -0.329411 -5.533829 
L -0.329411 -7.059722 
L -0.329411 -7.059722 
C -0.329411 -7.198418 -0.274255 -7.331575 -0.176182 -7.429647 
C -0.07811 -7.52772 0.055047 -7.582875 0.193743 -7.582875 
L 0.193743 -7.582875 
C 0.332439 -7.582875 0.465596 -7.52772 0.563669 -7.429647 
C 0.661741 -7.331575 0.716897 -7.198418 0.716897 -7.059722 
L 0.716897 -5.533829 
L 1.915777 -6.732751 
L 1.915777 -6.732751 
C 1.964379 -6.781526 2.022136 -6.820229 2.085727 -6.846635 
C 2.149318 -6.873042 2.217502 -6.886636 2.286358 -6.886636 
C 2.355214 -6.886636 2.423397 -6.873042 2.486989 -6.846635 
C 2.55058 -6.820229 2.608337 -6.781526 2.656939 -6.732751 
L 2.656939 -6.732751 
C 2.705714 -6.684149 2.744417 -6.626392 2.770823 -6.5628 
C 2.79723 -6.499209 2.810824 -6.431026 2.810824 -6.36217 
C 2.810824 -6.293314 2.79723 -6.22513 2.770823 -6.161539 
C 2.744417 -6.097947 2.705714 -6.040191 2.656939 -5.991589 
L 0.716897 -4.051588 
L 0.716897 -0.991139 
L 3.369495 -2.522954 
L 4.07931 -5.171367 
L 4.07931 -5.171367 
C 4.115368 -5.305107 4.203106 -5.4192 4.323103 -5.488391 
C 4.4431 -5.557582 4.585797 -5.576359 4.719608 -5.540567 
L 4.719608 -5.540567 
C 4.853612 -5.504807 4.968045 -5.417186 5.037515 -5.297146 
C 5.106986 -5.177105 5.125946 -5.034232 5.090189 -4.900227 
L 4.650133 -3.262673 
L 5.973022 -4.025577 
L 5.973022 -4.025577 
C 6.03258 -4.059998 6.098346 -4.082336 6.166548 -4.09131 
C 6.234749 -4.100284 6.304056 -4.095719 6.370491 -4.077876 
C 6.436926 -4.060034 6.499194 -4.029262 6.553723 -3.987327 
C 6.608252 -3.945391 6.653978 -3.893109 6.688277 -3.833481 
L 6.688277 -3.833481 
C 6.757325 -3.713365 6.775905 -3.570605 6.739903 -3.436816 
C 6.703901 -3.303027 6.616186 -3.188871 6.496181 -3.119628 
L 5.173293 -2.355342 
L 6.812229 -1.916625 
L 6.812229 -1.916625 
C 6.946224 -1.880865 7.060649 -1.79325 7.130118 -1.67322 
C 7.199588 -1.553189 7.218554 -1.410326 7.18281 -1.276327 
L 7.18281 -1.276327 
C 7.165106 -1.209806 7.134445 -1.147429 7.092589 -1.092779 
C 7.050733 -1.038129 6.998499 -0.992274 6.938889 -0.957848 
C 6.879279 -0.923422 6.813456 -0.901098 6.745202 -0.892157 
C 6.676949 -0.883217 6.607597 -0.887835 6.541131 -0.905746 
L 3.891253 -1.615561 
L 1.239492 -0.084604 
L 3.892718 1.447085 
L 6.541131 0.73727 
L 6.541131 0.73727 
C 6.674948 0.701466 6.817656 0.720237 6.937662 0.789429 
C 7.057669 0.858621 7.145413 0.972721 7.181471 1.10647 
L 7.181471 1.10647 
C 7.217274 1.240293 7.198497 1.383006 7.129297 1.503014 
C 7.060096 1.623021 6.945986 1.710762 6.812229 1.74681 
L 5.173293 2.186866 
L 6.496181 2.949771 
L 6.496181 2.949771 
C 6.555697 2.984183 6.607849 3.029991 6.649651 3.08457 
C 6.691452 3.13915 6.722088 3.201437 6.739803 3.267863 
C 6.757517 3.33429 6.761966 3.403561 6.752893 3.471707 
C 6.743821 3.539854 6.721404 3.605549 6.686927 3.665026 
L 6.686927 3.665026 
C 6.617458 3.784813 6.503196 3.87225 6.369416 3.907994 
C 6.235636 3.943739 6.092989 3.924946 5.973032 3.855772 
L 4.650144 3.091487 
L 5.08886 4.731783 
L 5.08886 4.731783 
C 5.124664 4.865606 5.105887 5.008319 5.036686 5.128326 
C 4.967486 5.248334 4.853376 5.336074 4.719619 5.372123 
L 4.719619 5.372123 
C 4.585619 5.407867 4.442757 5.3889 4.322726 5.319431 
C 4.202695 5.249961 4.115081 5.135537 4.07932 5.001542 
L 3.368166 2.351664 
L 0.717033 0.821063 
L 0.717033 3.884232 
L 2.657075 5.822893 
L 2.657075 5.822893 
C 2.70585 5.871495 2.744553 5.929252 2.770959 5.992843 
C 2.797366 6.056435 2.81096 6.124618 2.81096 6.193474 
C 2.81096 6.26233 2.797366 6.330514 2.770959 6.394105 
C 2.744553 6.457696 2.70585 6.515453 2.657075 6.564055 
L 2.657075 6.564055 
C 2.608473 6.61283 2.550716 6.651533 2.487125 6.67794 
C 2.423533 6.704346 2.35535 6.71794 2.286494 6.71794 
C 2.217638 6.71794 2.149454 6.704346 2.085863 6.67794 
C 2.022272 6.651533 1.964515 6.61283 1.915913 6.564055 
L 0.717033 5.365133 
L 0.717033 6.891026 
L 0.717033 6.891026 
C 0.717033 7.029722 0.661877 7.162879 0.563805 7.260952 
C 0.465732 7.359024 0.332575 7.41418 0.193879 7.41418 
L 0.193618 7.414054 
z
"/>
    </defs>
    <g clip-path="url(#pa5f1698b38)">
     <use xlink:href="#me73b906396" x="80.41043" y="83.827059" style="fill: #9e2096; fill-opacity: 0.7"/>
    </g>
   </g>
   <g id="patch_163">
    <path d="M 125.254844 13.699062 
C 110.694216 13.699062 96.275171 16.567189 82.822905 22.1393 
C 69.370638 27.711411 57.146763 35.879144 46.850844 46.175063 
C 36.554925 56.470982 28.387192 68.694857 22.815081 82.147124 
C 17.24297 95.59939 14.374844 110.018434 14.374844 124.579063 
C 14.374844 139.139691 17.24297 153.558735 22.815081 167.011001 
C 28.387192 180.463268 36.554925 192.687143 46.850844 202.983062 
C 57.146763 213.278981 69.370638 221.446714 82.822905 227.018825 
C 96.275171 232.590936 110.694216 235.459063 125.254844 235.459063 
C 139.815472 235.459063 154.234516 232.590936 167.686783 227.018825 
C 181.139049 221.446714 193.362925 213.278981 203.658844 202.983062 
C 213.954763 192.687143 222.122495 180.463268 227.694606 167.011001 
C 233.266717 153.558735 236.134844 139.139691 236.134844 124.579062 
C 236.134844 110.018434 233.266717 95.59939 227.694606 82.147124 
C 222.122495 68.694857 213.954763 56.470982 203.658844 46.175063 
C 193.362925 35.879144 181.139049 27.711411 167.686783 22.1393 
C 154.234516 16.567189 139.815472 13.699062 125.254844 13.699062 
" style="fill: none; stroke: #000000; stroke-width: 0.8; stroke-linejoin: miter; stroke-linecap: square"/>
   </g>
  </g>
 </g>
 <defs>
  <clipPath id="pa5f1698b38">
   <path d="M 236.134844 124.579063 
C 236.134844 110.018434 233.266717 95.59939 227.694606 82.147124 
C 222.122495 68.694857 213.954763 56.470982 203.658844 46.175063 
C 193.362925 35.879144 181.139049 27.711411 167.686783 22.1393 
C 154.234516 16.567189 139.815472 13.699062 125.254844 13.699062 
C 110.694216 13.699062 96.275171 16.567189 82.822905 22.1393 
C 69.370638 27.711411 57.146763 35.879144 46.850844 46.175063 
C 36.554925 56.470982 28.387192 68.694857 22.815081 82.147124 
C 17.24297 95.59939 14.374844 110.018434 14.374844 124.579062 
C 14.374844 139.139691 17.24297 153.558735 22.815081 167.011001 
C 28.387192 180.463268 36.554925 192.687143 46.850844 202.983062 
C 57.146763 213.278981 69.370638 221.446714 82.822905 227.018825 
C 96.275171 232.590936 110.694216 235.459063 125.254844 235.459063 
C 139.815472 235.459063 154.234516 232.590936 167.686783 227.018825 
C 181.139049 221.446714 193.362925 213.278981 203.658844 202.983062 
C 213.954763 192.687143 222.122495 180.463268 227.694606 167.011001 
C 233.266717 153.558735 236.134844 139.139691 236.134844 124.579063 
M 125.254844 124.579063 
C 125.254844 124.579063 125.254844 124.579063 125.254844 124.579063 
C 125.254844 124.579063 125.254844 124.579063 125.254844 124.579063 
C 125.254844 124.579063 125.254844 124.579063 125.254844 124.579063 
C 125.254844 124.579063 125.254844 124.579063 125.254844 124.579063 
C 125.254844 124.579063 125.254844 124.579063 125.254844 124.579063 
C 125.254844 124.579063 125.254844 124.579063 125.254844 124.579063 
C 125.254844 124.579063 125.254844 124.579063 125.254844 124.579063 
C 125.254844 124.579063 125.254844 124.579063 125.254844 124.579063 
C 125.254844 124.579063 125.254844 124.579063 125.254844 124.579063 
C 125.254844 124.579063 125.254844 124.579063 125.254844 124.579063 
C 125.254844 124.579063 125.254844 124.579063 125.254844 124.579063 
C 125.254844 124.579063 125.254844 124.579063 125.254844 124.579063 
C 125.254844 124.579063 125.254844 124.579063 125.254844 124.579063 
C 125.254844 124.579063 125.254844 124.579063 125.254844 124.579063 
C 125.254844 124.579063 125.254844 124.579063 125.254844 124.579063 
C 125.254844 124.579063 125.254844 124.579063 125.254844 124.579063 
z
"/>
  </clipPath>
 </defs>
</svg>
