<?xml version="1.0" encoding="utf-8" standalone="no"?>
<!DOCTYPE svg PUBLIC "-//W3C//DTD SVG 1.1//EN"
  "http://www.w3.org/Graphics/SVG/1.1/DTD/svg11.dtd">
<svg xmlns:xlink="http://www.w3.org/1999/xlink" width="248.410469pt" height="249.158125pt" viewBox="0 0 248.410469 249.158125" xmlns="http://www.w3.org/2000/svg" version="1.1">
 <title>Ski Rose for Jahorina olimpijski centar, Olympic Center Jahorina, Јахорина олимпијски центар</title>
 <metadata>
  <rdf:RDF xmlns:dc="http://purl.org/dc/elements/1.1/" xmlns:cc="http://creativecommons.org/ns#" xmlns:rdf="http://www.w3.org/1999/02/22-rdf-syntax-ns#">
   <cc:Work>
    <dc:type rdf:resource="http://purl.org/dc/dcmitype/StillImage"/>
    <dc:title>Ski Rose for Jahorina olimpijski centar, Olympic Center Jahorina, Јахорина олимпијски центар</dc:title>
    <dc:date>2025-10-18T10:25:36.960531</dc:date>
    <dc:description>A 32-bin stacked histogram of downhill ski run orientations colored by difficulty.</dc:description>
    <dc:format>image/svg+xml</dc:format>
    <dc:source>https://openskimap.org/?obj=516bab490035b2ec5b8cf843a4c2929e4028642d</dc:source>
    <dc:creator>
     <cc:Agent>
      <dc:title>https://github.com/dhimmel/openskistats</dc:title>
     </cc:Agent>
    </dc:creator>
    <dc:rights>
     <cc:Agent>
      <dc:title>https://creativecommons.org/licenses/by/4.0/</dc:title>
     </cc:Agent>
    </dc:rights>
   </cc:Work>
  </rdf:RDF>
 </metadata>
 <defs>
  <style type="text/css">*{stroke-linejoin: round; stroke-linecap: butt}</style>
 </defs>
 <g id="figure_1">
  <g id="patch_1">
   <path d="M 0 249.158125 
L 248.410469 249.158125 
L 248.410469 0 
L 0 0 
z
" style="fill: #ffffff"/>
  </g>
  <g id="axes_1">
   <g id="patch_2">
    <path d="M 236.134844 124.579063 
C 236.134844 110.018434 233.266717 95.59939 227.694606 82.147124 
C 222.122495 68.694857 213.954763 56.470982 203.658844 46.175063 
C 193.362925 35.879144 181.139049 27.711411 167.686783 22.1393 
C 154.234516 16.567189 139.815472 13.699062 125.254844 13.699062 
C 110.694216 13.699062 96.275171 16.567189 82.822905 22.1393 
C 69.370638 27.711411 57.146763 35.879144 46.850844 46.175063 
C 36.554925 56.470982 28.387192 68.694857 22.815081 82.147124 
C 17.24297 95.59939 14.374844 110.018434 14.374844 124.579062 
C 14.374844 139.139691 17.24297 153.558735 22.815081 167.011001 
C 28.387192 180.463268 36.554925 192.687143 46.850844 202.983062 
C 57.146763 213.278981 69.370638 221.446714 82.822905 227.018825 
C 96.275171 232.590936 110.694216 235.459063 125.254844 235.459063 
C 139.815472 235.459063 154.234516 232.590936 167.686783 227.018825 
C 181.139049 221.446714 193.362925 213.278981 203.658844 202.983062 
C 213.954763 192.687143 222.122495 180.463268 227.694606 167.011001 
C 233.266717 153.558735 236.134844 139.139691 236.134844 124.579063 
M 125.254844 124.579063 
C 125.254844 124.579063 125.254844 124.579063 125.254844 124.579063 
C 125.254844 124.579063 125.254844 124.579063 125.254844 124.579063 
C 125.254844 124.579063 125.254844 124.579063 125.254844 124.579063 
C 125.254844 124.579063 125.254844 124.579063 125.254844 124.579063 
C 125.254844 124.579063 125.254844 124.579063 125.254844 124.579063 
C 125.254844 124.579063 125.254844 124.579063 125.254844 124.579063 
C 125.254844 124.579063 125.254844 124.579063 125.254844 124.579063 
C 125.254844 124.579063 125.254844 124.579063 125.254844 124.579063 
C 125.254844 124.579063 125.254844 124.579063 125.254844 124.579063 
C 125.254844 124.579063 125.254844 124.579063 125.254844 124.579063 
C 125.254844 124.579063 125.254844 124.579063 125.254844 124.579063 
C 125.254844 124.579063 125.254844 124.579063 125.254844 124.579063 
C 125.254844 124.579063 125.254844 124.579063 125.254844 124.579063 
C 125.254844 124.579063 125.254844 124.579063 125.254844 124.579063 
C 125.254844 124.579063 125.254844 124.579063 125.254844 124.579063 
C 125.254844 124.579063 125.254844 124.579063 125.254844 124.579063 
z
" style="fill: #ffffff"/>
   </g>
   <g id="PolyCollection_1">
    <defs>
     <path id="mbccf6308ff" d="M 235.418515 -137.130627 
L 235.228918 -137.109026 
L 234.256187 -135.074698 
L 233.191654 -133.073874 
L 232.055343 -131.111261 
L 230.862274 -129.189982 
L 229.839935 -127.317719 
L 228.559231 -125.480586 
L 227.240868 -123.689044 
L 225.888242 -121.943884 
L 224.504136 -120.245745 
L 223.311391 -118.581667 
L 221.871021 -116.975204 
L 220.405659 -115.417081 
L 219.136148 -113.882639 
L 217.625805 -112.418195 
L 216.313102 -110.970315 
L 214.764654 -109.600257 
L 213.414933 -108.239556 
L 211.835083 -106.964114 
L 210.454413 -105.690773 
L 208.849767 -104.509697 
L 207.444154 -103.323462 
L 206.027357 -102.178862 
L 204.600729 -101.075741 
L 203.165619 -100.013889 
L 201.723368 -98.993052 
L 200.27531 -98.012922 
L 198.822771 -97.073141 
L 197.367068 -96.173302 
L 195.909507 -95.312943 
L 194.451384 -94.49155 
L 193.177706 -93.624831 
L 191.719174 -92.877203 
L 190.441486 -92.078202 
L 188.987098 -91.402151 
L 187.709474 -90.668965 
L 186.263655 -90.061938 
L 184.990046 -89.392339 
L 183.718209 -88.752666 
L 182.44899 -88.142373 
L 181.183215 -87.560881 
L 179.921693 -87.007578 
L 178.665209 -86.481819 
L 177.414528 -85.982926 
L 176.17039 -85.51019 
L 174.93351 -85.062867 
L 173.704575 -84.640186 
L 172.484247 -84.241342 
L 171.397343 -83.755628 
L 170.192019 -83.401728 
L 169.11361 -82.958647 
L 167.925398 -82.646825 
L 166.857346 -82.244049 
L 165.68813 -81.971269 
L 164.632101 -81.606327 
L 163.483525 -81.369398 
L 162.440973 -81.039699 
L 161.403803 -80.726868 
L 160.372298 -80.430372 
L 159.264646 -80.256625 
L 158.24886 -79.990209 
L 157.239427 -79.73833 
L 156.236531 -79.500428 
L 155.240329 -79.275936 
L 154.250955 -79.064284 
L 153.268516 -78.864904 
L 152.293094 -78.677222 
L 151.324745 -78.500668 
L 150.363499 -78.334673 
L 149.409358 -78.178672 
L 148.462301 -78.032104 
L 147.563123 -77.808783 
L 146.626998 -77.682151 
L 145.697814 -77.563449 
L 144.775451 -77.452148 
L 143.859761 -77.347728 
L 142.977458 -77.177779 
L 142.071966 -77.088976 
L 141.172668 -77.005702 
L 140.299125 -76.864697 
L 139.409188 -76.794795 
L 138.524785 -76.7292 
L 137.659276 -76.614682 
L 136.783089 -76.560464 
L 135.911612 -76.509489 
L 135.053055 -76.419317 
L 134.188378 -76.378024 
L 133.333317 -76.304011 
L 132.474457 -76.271503 
L 131.622351 -76.213046 
L 130.768244 -76.188572 
L 129.916525 -76.165652 
L 129.068013 -76.128148 
L 128.219192 -76.112403 
L 127.371947 -76.089428 
L 126.524823 -76.080527 
L 125.678159 -76.071903 
L 124.831535 -76.07269 
L 123.984869 -76.080674 
L 123.138118 -76.098078 
L 122.29052 -76.112793 
L 121.442969 -76.144607 
L 120.593224 -76.166286 
L 119.741533 -76.189354 
L 118.891121 -76.241789 
L 118.035384 -76.272532 
L 117.182431 -76.340223 
L 116.321546 -76.379302 
L 115.465477 -76.462788 
L 114.598415 -76.511017 
L 113.727002 -76.562145 
L 112.864532 -76.669283 
L 111.985439 -76.731135 
L 111.101119 -76.796887 
L 110.231053 -76.929686 
L 109.337806 -77.008052 
L 108.438611 -77.091485 
L 107.56009 -77.252293 
L 106.651018 -77.350499 
L 105.735452 -77.455082 
L 104.81322 -77.566547 
L 103.921929 -77.768253 
L 102.989013 -77.897777 
L 102.049145 -78.035632 
L 101.102253 -78.182367 
L 100.148286 -78.338535 
L 99.187222 -78.504698 
L 98.219066 -78.681419 
L 97.303871 -78.967221 
L 96.325127 -79.168504 
L 95.339499 -79.381907 
L 94.276503 -79.505297 
L 93.273852 -79.743366 
L 92.264676 -79.99541 
L 91.249158 -80.26199 
L 90.227506 -80.543664 
L 89.199951 -80.84098 
L 88.073776 -81.045626 
L 87.031543 -81.375481 
L 85.984245 -81.722725 
L 84.827696 -81.977737 
L 83.767637 -82.361374 
L 82.703573 -82.764045 
L 81.519986 -83.076232 
L 80.325523 -83.408925 
L 79.244809 -83.872822 
L 78.034259 -84.248873 
L 76.814494 -84.64792 
L 75.721614 -85.178552 
L 74.489198 -85.625212 
L 73.249483 -86.09712 
L 72.003182 -86.595021 
L 70.751031 -87.11963 
L 69.493792 -87.671628 
L 68.23225 -88.251664 
L 66.967208 -88.860353 
L 65.699493 -89.49828 
L 64.262364 -90.071178 
L 62.988679 -90.771293 
L 61.714991 -91.502309 
L 60.265007 -92.176325 
L 58.99112 -92.972887 
L 57.536842 -93.718191 
L 56.080615 -94.501252 
L 54.812803 -95.401014 
L 53.359259 -96.258639 
L 51.907492 -97.155611 
L 50.458806 -98.092396 
L 49.014519 -99.069407 
L 47.575955 -100.087003 
L 46.144449 -101.145496 
L 44.721341 -102.245146 
L 43.307979 -103.386162 
L 41.905715 -104.568707 
L 40.304784 -105.746088 
L 38.927286 -107.015522 
L 37.350962 -108.287041 
L 36.004231 -109.643632 
L 34.459113 -111.00955 
L 33.149208 -112.453126 
L 31.641985 -113.913224 
L 30.375059 -115.443178 
L 28.912574 -116.996761 
L 27.474933 -118.598587 
L 26.284367 -120.257918 
L 24.902624 -121.951247 
L 23.552089 -123.691516 
L 22.235442 -125.478099 
L 21.17391 -127.304518 
L 19.933862 -129.177476 
L 18.739935 -131.093793 
L 17.600477 -133.051645 
L 16.528911 -135.048179 
L 15.737804 -137.056953 
L 15.126285 -137.126627 
L 15.126285 -137.126627 
L 14.886071 -135.206367 
L 14.830408 -133.269654 
L 14.617327 -131.345943 
L 14.6276 -129.409152 
L 14.479102 -127.479827 
L 14.4043 -125.546441 
L 14.512179 -123.612626 
L 14.460359 -121.677807 
L 14.484377 -119.742719 
L 14.641896 -117.813685 
L 14.730696 -115.880623 
L 14.945897 -113.957519 
L 15.098827 -112.02837 
L 15.421766 -110.119264 
L 15.639046 -108.196872 
L 15.967734 -106.290672 
L 16.248595 -104.375948 
L 16.632458 -102.479588 
L 17.10066 -100.601857 
L 17.476507 -98.703773 
L 17.943851 -96.826553 
L 18.499522 -94.973191 
L 18.970628 -93.096244 
L 19.5235 -91.242098 
L 20.16747 -89.417319 
L 20.840584 -87.604034 
L 21.4385 -85.763722 
L 22.109321 -83.948961 
L 22.873293 -82.171236 
L 23.607021 -80.381331 
L 24.37609 -78.605966 
L 25.183376 -76.847421 
L 26.08129 -75.132953 
L 26.910275 -73.38412 
L 27.832392 -71.682987 
L 28.766494 -69.988581 
L 29.727131 -68.308939 
L 30.728024 -66.652953 
L 31.742213 -65.004946 
L 32.955294 -63.487323 
L 34.77852 -62.396408 
L 36.697281 -61.411567 
L 38.563807 -60.431069 
L 40.444526 -59.501817 
L 42.394261 -58.668779 
L 44.274426 -57.823958 
L 46.156415 -57.022623 
L 47.969951 -56.203165 
L 49.838877 -55.473061 
L 51.704608 -54.782495 
L 53.503132 -54.068852 
L 55.34828 -53.441627 
L 57.132325 -52.792906 
L 58.908868 -52.175135 
L 60.677231 -51.587349 
L 62.436795 -51.028578 
L 64.187 -50.497844 
L 65.927334 -49.994161 
L 67.657341 -49.516536 
L 69.376613 -49.063968 
L 71.048994 -48.585264 
L 72.747605 -48.180557 
L 74.398495 -47.743502 
L 76.044856 -47.334854 
L 77.711444 -46.995286 
L 79.335101 -46.622809 
L 80.953486 -46.276677 
L 82.55935 -45.943745 
L 84.1596 -45.635834 
L 85.74737 -45.339328 
L 87.329317 -45.066542 
L 88.898981 -44.803404 
L 90.443288 -44.517966 
L 91.999523 -44.293615 
L 93.544023 -44.076455 
L 95.067464 -43.839248 
L 96.598929 -43.657255 
L 98.109362 -43.44977 
L 99.623213 -43.285915 
L 101.1214 -43.105921 
L 102.614251 -42.939723 
L 104.110138 -42.818552 
L 105.591916 -42.677073 
L 107.069022 -42.54812 
L 108.541698 -42.431326 
L 110.013297 -42.343035 
L 111.477306 -42.247743 
L 112.937774 -42.163627 
L 114.395008 -42.090422 
L 115.849325 -42.027888 
L 117.301055 -41.97581 
L 118.750537 -41.934005 
L 120.198117 -41.902314 
L 121.644151 -41.880608 
L 123.088999 -41.868789 
L 124.533025 -41.866784 
L 125.976662 -41.866892 
L 127.420683 -41.869003 
L 128.865522 -41.880929 
L 130.311544 -41.902741 
L 131.759109 -41.934538 
L 133.208571 -41.976449 
L 134.660277 -42.02863 
L 136.114568 -42.091268 
L 137.571772 -42.164574 
L 139.032206 -42.24879 
L 140.496178 -42.344181 
L 141.967673 -42.432882 
L 143.440295 -42.549794 
L 144.917342 -42.678863 
L 146.399057 -42.820456 
L 147.894982 -42.94136 
L 149.387777 -43.107644 
L 150.885905 -43.287723 
L 152.399537 -43.452126 
L 153.90989 -43.659709 
L 155.44145 -43.841315 
L 156.964821 -44.078595 
L 158.509024 -44.296369 
L 160.0654 -44.520264 
L 161.609629 -44.805766 
L 163.178932 -45.069559 
L 164.761071 -45.341828 
L 166.348432 -45.639013 
L 167.948914 -45.946367 
L 169.554322 -46.279999 
L 171.172979 -46.625539 
L 172.796131 -46.998732 
L 174.462595 -47.338365 
L 176.109293 -47.746371 
L 177.759622 -48.184136 
L 179.458122 -48.588869 
L 181.130876 -49.066939 
L 182.850043 -49.519537 
L 184.579946 -49.997188 
L 186.320175 -50.500892 
L 188.070275 -51.031642 
L 189.829735 -51.590425 
L 191.597994 -52.178219 
L 193.374434 -52.795993 
L 195.158376 -53.444712 
L 197.002895 -54.072449 
L 198.801317 -54.786065 
L 200.667473 -55.47612 
L 202.535771 -56.206674 
L 204.415422 -56.969541 
L 206.231647 -57.826938 
L 208.180413 -58.617087 
L 210.060872 -59.505108 
L 211.942071 -60.433888 
L 213.808068 -61.414661 
L 215.72688 -62.399355 
L 217.550665 -63.489791 
L 218.765578 -65.006155 
L 219.784637 -66.651131 
L 220.789688 -68.304739 
L 221.70132 -70.012272 
L 222.677317 -71.682975 
L 223.573983 -73.397358 
L 224.41012 -75.142066 
L 225.28676 -76.866286 
L 226.103793 -78.619548 
L 226.874577 -80.393545 
L 227.5688 -82.199234 
L 228.39295 -83.951882 
L 229.002344 -85.789462 
L 229.730462 -87.582306 
L 230.345525 -89.416212 
L 230.971755 -91.246649 
L 231.551734 -93.092489 
L 232.085753 -94.952229 
L 232.574153 -96.824402 
L 233.017327 -98.707579 
L 233.484689 -100.585084 
L 233.834264 -102.48833 
L 234.265666 -104.375101 
L 234.534293 -106.291954 
L 234.893254 -108.193492 
L 235.133055 -110.113322 
L 235.418295 -112.027523 
L 235.570881 -113.956836 
L 235.78351 -115.880268 
L 235.812508 -117.817066 
L 235.994824 -119.744051 
L 235.948808 -121.680439 
L 236.058542 -123.612093 
L 236.095875 -125.546358 
L 235.981264 -127.478536 
L 235.950673 -129.412147 
L 235.923404 -131.347842 
L 235.672942 -133.269155 
L 235.581487 -135.20231 
L 235.418515 -137.130627 
z
" style="stroke: #ffee9c"/>
    </defs>
    <g clip-path="url(#p5d20a0e136)">
     <use xlink:href="#mbccf6308ff" x="0" y="249.158125" style="fill: #ffee9c; stroke: #ffee9c"/>
    </g>
   </g>
   <g id="matplotlib.axis_1">
    <g id="xtick_1">
     <g id="line2d_1">
      <path d="M 125.254844 124.579062 
L 125.254844 13.699062 
" clip-path="url(#p5d20a0e136)" style="fill: none; stroke: #b0b0b0; stroke-width: 0.8; stroke-linecap: square"/>
     </g>
     <g id="text_1">
      <!-- N -->
      <g transform="translate(121.070469 7.958437) scale(0.1 -0.1)">
       <defs>
        <path id="DejaVuSans-Bold-4e" d="M 588 4666 
L 1931 4666 
L 3628 1466 
L 3628 4666 
L 4769 4666 
L 4769 0 
L 3425 0 
L 1728 3200 
L 1728 0 
L 588 0 
L 588 4666 
z
" transform="scale(0.015625)"/>
       </defs>
       <use xlink:href="#DejaVuSans-Bold-4e"/>
      </g>
     </g>
    </g>
    <g id="xtick_2">
     <g id="line2d_2">
      <path d="M 125.254844 124.579062 
L 203.658844 46.175063 
" clip-path="url(#p5d20a0e136)" style="fill: none; stroke: #b0b0b0; stroke-width: 0.8; stroke-linecap: square"/>
     </g>
    </g>
    <g id="xtick_3">
     <g id="line2d_3">
      <path d="M 125.254844 124.579062 
L 236.134844 124.579062 
" clip-path="url(#p5d20a0e136)" style="fill: none; stroke: #b0b0b0; stroke-width: 0.8; stroke-linecap: square"/>
     </g>
     <g id="text_2">
      <!-- E -->
      <g transform="translate(241.219219 127.338437) scale(0.1 -0.1)">
       <defs>
        <path id="DejaVuSans-Bold-45" d="M 588 4666 
L 3834 4666 
L 3834 3756 
L 1791 3756 
L 1791 2888 
L 3713 2888 
L 3713 1978 
L 1791 1978 
L 1791 909 
L 3903 909 
L 3903 0 
L 588 0 
L 588 4666 
z
" transform="scale(0.015625)"/>
       </defs>
       <use xlink:href="#DejaVuSans-Bold-45"/>
      </g>
     </g>
    </g>
    <g id="xtick_4">
     <g id="line2d_4">
      <path d="M 125.254844 124.579062 
L 203.658844 202.983062 
" clip-path="url(#p5d20a0e136)" style="fill: none; stroke: #b0b0b0; stroke-width: 0.8; stroke-linecap: square"/>
     </g>
    </g>
    <g id="xtick_5">
     <g id="line2d_5">
      <path d="M 125.254844 124.579062 
L 125.254844 235.459063 
" clip-path="url(#p5d20a0e136)" style="fill: none; stroke: #b0b0b0; stroke-width: 0.8; stroke-linecap: square"/>
     </g>
     <g id="text_3">
      <!-- S -->
      <g transform="translate(121.654062 246.718437) scale(0.1 -0.1)">
       <defs>
        <path id="DejaVuSans-Bold-53" d="M 3834 4519 
L 3834 3531 
Q 3450 3703 3084 3790 
Q 2719 3878 2394 3878 
Q 1963 3878 1756 3759 
Q 1550 3641 1550 3391 
Q 1550 3203 1689 3098 
Q 1828 2994 2194 2919 
L 2706 2816 
Q 3484 2659 3812 2340 
Q 4141 2022 4141 1434 
Q 4141 663 3683 286 
Q 3225 -91 2284 -91 
Q 1841 -91 1394 -6 
Q 947 78 500 244 
L 500 1259 
Q 947 1022 1364 901 
Q 1781 781 2169 781 
Q 2563 781 2772 912 
Q 2981 1044 2981 1288 
Q 2981 1506 2839 1625 
Q 2697 1744 2272 1838 
L 1806 1941 
Q 1106 2091 782 2419 
Q 459 2747 459 3303 
Q 459 4000 909 4375 
Q 1359 4750 2203 4750 
Q 2588 4750 2994 4692 
Q 3400 4634 3834 4519 
z
" transform="scale(0.015625)"/>
       </defs>
       <use xlink:href="#DejaVuSans-Bold-53"/>
      </g>
     </g>
    </g>
    <g id="xtick_6">
     <g id="line2d_6">
      <path d="M 125.254844 124.579062 
L 46.850844 202.983062 
" clip-path="url(#p5d20a0e136)" style="fill: none; stroke: #b0b0b0; stroke-width: 0.8; stroke-linecap: square"/>
     </g>
    </g>
    <g id="xtick_7">
     <g id="line2d_7">
      <path d="M 125.254844 124.579062 
L 14.374844 124.579063 
" clip-path="url(#p5d20a0e136)" style="fill: none; stroke: #b0b0b0; stroke-width: 0.8; stroke-linecap: square"/>
     </g>
     <g id="text_4">
      <!-- W -->
      <g transform="translate(0.36 127.338438) scale(0.1 -0.1)">
       <defs>
        <path id="DejaVuSans-Bold-57" d="M 191 4666 
L 1344 4666 
L 2150 1275 
L 2950 4666 
L 4109 4666 
L 4909 1275 
L 5716 4666 
L 6859 4666 
L 5759 0 
L 4372 0 
L 3525 3547 
L 2688 0 
L 1300 0 
L 191 4666 
z
" transform="scale(0.015625)"/>
       </defs>
       <use xlink:href="#DejaVuSans-Bold-57"/>
      </g>
     </g>
    </g>
    <g id="xtick_8">
     <g id="line2d_8">
      <path d="M 125.254844 124.579062 
L 46.850844 46.175063 
" clip-path="url(#p5d20a0e136)" style="fill: none; stroke: #b0b0b0; stroke-width: 0.8; stroke-linecap: square"/>
     </g>
    </g>
   </g>
   <g id="matplotlib.axis_2"/>
   <g id="patch_3">
    <path d="M 125.254844 124.579062 
C 125.254844 124.579062 125.254844 124.579062 125.254844 124.579062 
C 125.254844 124.579062 125.254844 124.579062 125.254844 124.579062 
L 125.254844 124.579062 
C 125.254844 124.579062 125.254844 124.579062 125.254844 124.579062 
C 125.254844 124.579062 125.254844 124.579062 125.254844 124.579062 
z
" clip-path="url(#p5d20a0e136)" style="fill: #d9d9d9"/>
   </g>
   <g id="patch_4">
    <path d="M 125.254844 124.579062 
C 125.254844 124.579062 125.254844 124.579062 125.254844 124.579062 
C 125.254844 124.579062 125.254844 124.579062 125.254844 124.579062 
L 125.254844 124.579062 
C 125.254844 124.579062 125.254844 124.579062 125.254844 124.579062 
C 125.254844 124.579062 125.254844 124.579062 125.254844 124.579062 
z
" clip-path="url(#p5d20a0e136)" style="fill: #d9d9d9"/>
   </g>
   <g id="patch_5">
    <path d="M 125.254844 124.579062 
C 125.254844 124.579062 125.254844 124.579062 125.254844 124.579062 
C 125.254844 124.579062 125.254844 124.579062 125.254844 124.579062 
L 125.254844 124.579062 
C 125.254844 124.579062 125.254844 124.579062 125.254844 124.579062 
C 125.254844 124.579062 125.254844 124.579062 125.254844 124.579062 
z
" clip-path="url(#p5d20a0e136)" style="fill: #d9d9d9"/>
   </g>
   <g id="patch_6">
    <path d="M 125.254844 124.579062 
C 125.254844 124.579062 125.254844 124.579062 125.254844 124.579062 
C 125.254844 124.579062 125.254844 124.579062 125.254844 124.579062 
L 125.254844 124.579062 
C 125.254844 124.579062 125.254844 124.579062 125.254844 124.579062 
C 125.254844 124.579062 125.254844 124.579062 125.254844 124.579062 
z
" clip-path="url(#p5d20a0e136)" style="fill: #d9d9d9"/>
   </g>
   <g id="patch_7">
    <path d="M 125.254844 124.579062 
C 125.254844 124.579062 125.254844 124.579062 125.254844 124.579062 
C 125.254844 124.579062 125.254844 124.579062 125.254844 124.579062 
L 125.254844 124.579062 
C 125.254844 124.579062 125.254844 124.579062 125.254844 124.579062 
C 125.254844 124.579062 125.254844 124.579062 125.254844 124.579062 
z
" clip-path="url(#p5d20a0e136)" style="fill: #d9d9d9"/>
   </g>
   <g id="patch_8">
    <path d="M 125.254844 124.579062 
C 125.254844 124.579062 125.254844 124.579062 125.254844 124.579062 
C 125.254844 124.579062 125.254844 124.579062 125.254844 124.579062 
L 125.254844 124.579062 
C 125.254844 124.579062 125.254844 124.579062 125.254844 124.579062 
C 125.254844 124.579062 125.254844 124.579062 125.254844 124.579062 
z
" clip-path="url(#p5d20a0e136)" style="fill: #d9d9d9"/>
   </g>
   <g id="patch_9">
    <path d="M 125.254844 124.579062 
C 125.254844 124.579062 125.254844 124.579062 125.254844 124.579062 
C 125.254844 124.579062 125.254844 124.579062 125.254844 124.579062 
L 125.254844 124.579062 
C 125.254844 124.579062 125.254844 124.579062 125.254844 124.579062 
C 125.254844 124.579062 125.254844 124.579062 125.254844 124.579062 
z
" clip-path="url(#p5d20a0e136)" style="fill: #d9d9d9"/>
   </g>
   <g id="patch_10">
    <path d="M 125.254844 124.579062 
C 125.254844 124.579062 125.254844 124.579062 125.254844 124.579062 
C 125.254844 124.579062 125.254844 124.579062 125.254844 124.579062 
L 125.254844 124.579062 
C 125.254844 124.579062 125.254844 124.579062 125.254844 124.579062 
C 125.254844 124.579062 125.254844 124.579062 125.254844 124.579062 
z
" clip-path="url(#p5d20a0e136)" style="fill: #d9d9d9"/>
   </g>
   <g id="patch_11">
    <path d="M 125.254844 124.579062 
C 125.254844 124.579062 125.254844 124.579062 125.254844 124.579062 
C 125.254844 124.579062 125.254844 124.579062 125.254844 124.579062 
L 125.254844 124.579062 
C 125.254844 124.579062 125.254844 124.579062 125.254844 124.579062 
C 125.254844 124.579062 125.254844 124.579062 125.254844 124.579062 
z
" clip-path="url(#p5d20a0e136)" style="fill: #d9d9d9"/>
   </g>
   <g id="patch_12">
    <path d="M 125.254844 124.579062 
C 125.254844 124.579062 125.254844 124.579062 125.254844 124.579062 
C 125.254844 124.579062 125.254844 124.579062 125.254844 124.579062 
L 125.254844 124.579062 
C 125.254844 124.579062 125.254844 124.579062 125.254844 124.579062 
C 125.254844 124.579062 125.254844 124.579062 125.254844 124.579062 
z
" clip-path="url(#p5d20a0e136)" style="fill: #d9d9d9"/>
   </g>
   <g id="patch_13">
    <path d="M 125.254844 124.579062 
C 125.254844 124.579062 125.254844 124.579062 125.254844 124.579062 
C 125.254844 124.579062 125.254844 124.579062 125.254844 124.579062 
L 125.254844 124.579062 
C 125.254844 124.579062 125.254844 124.579062 125.254844 124.579062 
C 125.254844 124.579062 125.254844 124.579062 125.254844 124.579062 
z
" clip-path="url(#p5d20a0e136)" style="fill: #d9d9d9"/>
   </g>
   <g id="patch_14">
    <path d="M 125.254844 124.579062 
C 125.254844 124.579062 125.254844 124.579062 125.254844 124.579062 
C 125.254844 124.579062 125.254844 124.579062 125.254844 124.579062 
L 125.254844 124.579062 
C 125.254844 124.579062 125.254844 124.579062 125.254844 124.579062 
C 125.254844 124.579062 125.254844 124.579062 125.254844 124.579062 
z
" clip-path="url(#p5d20a0e136)" style="fill: #d9d9d9"/>
   </g>
   <g id="patch_15">
    <path d="M 125.254844 124.579062 
C 125.254844 124.579062 125.254844 124.579062 125.254844 124.579062 
C 125.254844 124.579062 125.254844 124.579062 125.254844 124.579062 
L 125.254844 124.579062 
C 125.254844 124.579062 125.254844 124.579062 125.254844 124.579062 
C 125.254844 124.579062 125.254844 124.579062 125.254844 124.579062 
z
" clip-path="url(#p5d20a0e136)" style="fill: #d9d9d9"/>
   </g>
   <g id="patch_16">
    <path d="M 125.254844 124.579062 
C 125.254844 124.579062 125.254844 124.579062 125.254844 124.579062 
C 125.254844 124.579062 125.254844 124.579062 125.254844 124.579062 
L 125.254844 124.579062 
C 125.254844 124.579062 125.254844 124.579062 125.254844 124.579062 
C 125.254844 124.579062 125.254844 124.579062 125.254844 124.579062 
z
" clip-path="url(#p5d20a0e136)" style="fill: #d9d9d9"/>
   </g>
   <g id="patch_17">
    <path d="M 125.254844 124.579062 
C 125.254844 124.579062 125.254844 124.579062 125.254844 124.579062 
C 125.254844 124.579062 125.254844 124.579062 125.254844 124.579062 
L 125.254844 124.579062 
C 125.254844 124.579062 125.254844 124.579062 125.254844 124.579062 
C 125.254844 124.579062 125.254844 124.579062 125.254844 124.579062 
z
" clip-path="url(#p5d20a0e136)" style="fill: #d9d9d9"/>
   </g>
   <g id="patch_18">
    <path d="M 125.254844 124.579062 
C 125.254844 124.579062 125.254844 124.579062 125.254844 124.579062 
C 125.254844 124.579062 125.254844 124.579062 125.254844 124.579062 
L 125.254844 124.579062 
C 125.254844 124.579062 125.254844 124.579062 125.254844 124.579062 
C 125.254844 124.579062 125.254844 124.579062 125.254844 124.579062 
z
" clip-path="url(#p5d20a0e136)" style="fill: #d9d9d9"/>
   </g>
   <g id="patch_19">
    <path d="M 125.254844 124.579062 
C 125.254844 124.579062 125.254844 124.579062 125.254844 124.579062 
C 125.254844 124.579062 125.254844 124.579062 125.254844 124.579062 
L 125.254844 124.579062 
C 125.254844 124.579062 125.254844 124.579062 125.254844 124.579062 
C 125.254844 124.579062 125.254844 124.579062 125.254844 124.579062 
z
" clip-path="url(#p5d20a0e136)" style="fill: #d9d9d9"/>
   </g>
   <g id="patch_20">
    <path d="M 125.254844 124.579062 
C 125.254844 124.579062 125.254844 124.579062 125.254844 124.579062 
C 125.254844 124.579062 125.254844 124.579062 125.254844 124.579062 
L 125.254844 124.579062 
C 125.254844 124.579062 125.254844 124.579062 125.254844 124.579062 
C 125.254844 124.579062 125.254844 124.579062 125.254844 124.579062 
z
" clip-path="url(#p5d20a0e136)" style="fill: #d9d9d9"/>
   </g>
   <g id="patch_21">
    <path d="M 125.254844 124.579062 
C 125.254844 124.579062 125.254844 124.579062 125.254844 124.579062 
C 125.254844 124.579062 125.254844 124.579062 125.254844 124.579062 
L 125.254844 124.579062 
C 125.254844 124.579062 125.254844 124.579062 125.254844 124.579062 
C 125.254844 124.579062 125.254844 124.579062 125.254844 124.579062 
z
" clip-path="url(#p5d20a0e136)" style="fill: #d9d9d9"/>
   </g>
   <g id="patch_22">
    <path d="M 125.254844 124.579062 
C 125.254844 124.579062 125.254844 124.579062 125.254844 124.579062 
C 125.254844 124.579062 125.254844 124.579062 125.254844 124.579062 
L 125.254844 124.579062 
C 125.254844 124.579062 125.254844 124.579062 125.254844 124.579062 
C 125.254844 124.579062 125.254844 124.579062 125.254844 124.579062 
z
" clip-path="url(#p5d20a0e136)" style="fill: #d9d9d9"/>
   </g>
   <g id="patch_23">
    <path d="M 125.254844 124.579062 
C 125.254844 124.579062 125.254844 124.579062 125.254844 124.579062 
C 125.254844 124.579062 125.254844 124.579062 125.254844 124.579062 
L 125.254844 124.579062 
C 125.254844 124.579062 125.254844 124.579062 125.254844 124.579062 
C 125.254844 124.579062 125.254844 124.579062 125.254844 124.579062 
z
" clip-path="url(#p5d20a0e136)" style="fill: #d9d9d9"/>
   </g>
   <g id="patch_24">
    <path d="M 125.254844 124.579062 
C 125.254844 124.579062 125.254844 124.579062 125.254844 124.579062 
C 125.254844 124.579062 125.254844 124.579062 125.254844 124.579062 
L 125.254844 124.579062 
C 125.254844 124.579062 125.254844 124.579062 125.254844 124.579062 
C 125.254844 124.579062 125.254844 124.579062 125.254844 124.579062 
z
" clip-path="url(#p5d20a0e136)" style="fill: #d9d9d9"/>
   </g>
   <g id="patch_25">
    <path d="M 125.254844 124.579062 
C 125.254844 124.579062 125.254844 124.579062 125.254844 124.579062 
C 125.254844 124.579062 125.254844 124.579062 125.254844 124.579062 
L 125.254844 124.579062 
C 125.254844 124.579062 125.254844 124.579062 125.254844 124.579062 
C 125.254844 124.579062 125.254844 124.579062 125.254844 124.579062 
z
" clip-path="url(#p5d20a0e136)" style="fill: #d9d9d9"/>
   </g>
   <g id="patch_26">
    <path d="M 125.254844 124.579062 
C 125.254844 124.579062 125.254844 124.579062 125.254844 124.579062 
C 125.254844 124.579062 125.254844 124.579062 125.254844 124.579062 
L 125.254844 124.579062 
C 125.254844 124.579062 125.254844 124.579062 125.254844 124.579062 
C 125.254844 124.579062 125.254844 124.579062 125.254844 124.579062 
z
" clip-path="url(#p5d20a0e136)" style="fill: #d9d9d9"/>
   </g>
   <g id="patch_27">
    <path d="M 125.254844 124.579062 
C 125.254844 124.579062 125.254844 124.579062 125.254844 124.579062 
C 125.254844 124.579062 125.254844 124.579062 125.254844 124.579062 
L 125.254844 124.579062 
C 125.254844 124.579062 125.254844 124.579062 125.254844 124.579062 
C 125.254844 124.579062 125.254844 124.579062 125.254844 124.579062 
z
" clip-path="url(#p5d20a0e136)" style="fill: #d9d9d9"/>
   </g>
   <g id="patch_28">
    <path d="M 125.254844 124.579062 
C 125.254844 124.579062 125.254844 124.579062 125.254844 124.579062 
C 125.254844 124.579062 125.254844 124.579062 125.254844 124.579062 
L 125.254844 124.579062 
C 125.254844 124.579062 125.254844 124.579062 125.254844 124.579062 
C 125.254844 124.579062 125.254844 124.579062 125.254844 124.579062 
z
" clip-path="url(#p5d20a0e136)" style="fill: #d9d9d9"/>
   </g>
   <g id="patch_29">
    <path d="M 125.254844 124.579062 
C 125.254844 124.579062 125.254844 124.579062 125.254844 124.579062 
C 125.254844 124.579062 125.254844 124.579062 125.254844 124.579062 
L 125.254844 124.579062 
C 125.254844 124.579062 125.254844 124.579062 125.254844 124.579062 
C 125.254844 124.579062 125.254844 124.579062 125.254844 124.579062 
z
" clip-path="url(#p5d20a0e136)" style="fill: #d9d9d9"/>
   </g>
   <g id="patch_30">
    <path d="M 125.254844 124.579062 
C 125.254844 124.579062 125.254844 124.579062 125.254844 124.579062 
C 125.254844 124.579062 125.254844 124.579062 125.254844 124.579062 
L 125.254844 124.579062 
C 125.254844 124.579062 125.254844 124.579062 125.254844 124.579062 
C 125.254844 124.579062 125.254844 124.579062 125.254844 124.579062 
z
" clip-path="url(#p5d20a0e136)" style="fill: #d9d9d9"/>
   </g>
   <g id="patch_31">
    <path d="M 125.254844 124.579062 
C 125.254844 124.579062 125.254844 124.579062 125.254844 124.579062 
C 125.254844 124.579062 125.254844 124.579062 125.254844 124.579062 
L 125.254844 124.579062 
C 125.254844 124.579062 125.254844 124.579062 125.254844 124.579062 
C 125.254844 124.579062 125.254844 124.579062 125.254844 124.579062 
z
" clip-path="url(#p5d20a0e136)" style="fill: #d9d9d9"/>
   </g>
   <g id="patch_32">
    <path d="M 125.254844 124.579062 
C 125.254844 124.579062 125.254844 124.579062 125.254844 124.579062 
C 125.254844 124.579062 125.254844 124.579062 125.254844 124.579062 
L 125.254844 124.579062 
C 125.254844 124.579062 125.254844 124.579062 125.254844 124.579062 
C 125.254844 124.579062 125.254844 124.579062 125.254844 124.579062 
z
" clip-path="url(#p5d20a0e136)" style="fill: #d9d9d9"/>
   </g>
   <g id="patch_33">
    <path d="M 125.254844 124.579062 
C 125.254844 124.579062 125.254844 124.579062 125.254844 124.579062 
C 125.254844 124.579062 125.254844 124.579062 125.254844 124.579062 
L 125.254844 124.579062 
C 125.254844 124.579062 125.254844 124.579062 125.254844 124.579062 
C 125.254844 124.579062 125.254844 124.579062 125.254844 124.579062 
z
" clip-path="url(#p5d20a0e136)" style="fill: #d9d9d9"/>
   </g>
   <g id="patch_34">
    <path d="M 125.254844 124.579062 
C 125.254844 124.579062 125.254844 124.579062 125.254844 124.579062 
C 125.254844 124.579062 125.254844 124.579062 125.254844 124.579062 
L 125.254844 124.579062 
C 125.254844 124.579062 125.254844 124.579062 125.254844 124.579062 
C 125.254844 124.579062 125.254844 124.579062 125.254844 124.579062 
z
" clip-path="url(#p5d20a0e136)" style="fill: #d9d9d9"/>
   </g>
   <g id="patch_35">
    <path d="M 125.254844 124.579062 
C 125.254844 124.579062 125.254844 124.579062 125.254844 124.579062 
C 125.254844 124.579062 125.254844 124.579062 125.254844 124.579062 
L 130.313652 73.216122 
C 128.632466 73.050539 126.944164 72.967598 125.254844 72.967598 
C 123.565523 72.967598 121.877221 73.050539 120.196036 73.216122 
z
" clip-path="url(#p5d20a0e136)" style="fill: #a1a1d8"/>
   </g>
   <g id="patch_36">
    <path d="M 125.254844 124.579062 
C 125.254844 124.579062 125.254844 124.579062 125.254844 124.579062 
C 125.254844 124.579062 125.254844 124.579062 125.254844 124.579062 
L 138.316601 81.520218 
C 136.907221 81.092688 135.4777 80.734611 134.033201 80.447282 
C 132.588702 80.159954 131.130966 79.943719 129.66526 79.799359 
z
" clip-path="url(#p5d20a0e136)" style="fill: #a1a1d8"/>
   </g>
   <g id="patch_37">
    <path d="M 125.254844 124.579062 
C 125.254844 124.579062 125.254844 124.579062 125.254844 124.579062 
C 125.254844 124.579062 125.254844 124.579062 125.254844 124.579062 
L 145.117646 87.418373 
C 143.901321 86.768234 142.65381 86.178205 141.379617 85.650417 
C 140.105424 85.122629 138.806086 84.657718 137.486297 84.257365 
z
" clip-path="url(#p5d20a0e136)" style="fill: #a1a1d8"/>
   </g>
   <g id="patch_38">
    <path d="M 125.254844 124.579062 
C 125.254844 124.579062 125.254844 124.579062 125.254844 124.579062 
C 125.254844 124.579062 125.254844 124.579062 125.254844 124.579062 
L 155.816355 87.339753 
C 154.597457 86.339429 153.33018 85.399553 152.019103 84.523518 
C 150.708025 83.647484 149.354726 82.836348 147.964096 82.093041 
z
" clip-path="url(#p5d20a0e136)" style="fill: #a1a1d8"/>
   </g>
   <g id="patch_39">
    <path d="M 125.254844 124.579062 
C 125.254844 124.579062 125.254844 124.579062 125.254844 124.579062 
C 125.254844 124.579062 125.254844 124.579062 125.254844 124.579062 
L 162.448261 94.055214 
C 161.44917 92.837818 160.39091 91.670208 159.277304 90.556602 
C 158.163698 89.442996 156.996089 88.384736 155.778693 87.385645 
z
" clip-path="url(#p5d20a0e136)" style="fill: #a1a1d8"/>
   </g>
   <g id="patch_40">
    <path d="M 125.254844 124.579062 
C 125.254844 124.579062 125.254844 124.579062 125.254844 124.579062 
C 125.254844 124.579062 125.254844 124.579062 125.254844 124.579062 
L 165.966707 102.818118 
C 165.254439 101.485558 164.477175 100.188772 163.637723 98.932443 
C 162.798271 97.676114 161.897642 96.461757 160.93909 95.293758 
z
" clip-path="url(#p5d20a0e136)" style="fill: #a1a1d8"/>
   </g>
   <g id="patch_41">
    <path d="M 125.254844 124.579062 
C 125.254844 124.579062 125.254844 124.579062 125.254844 124.579062 
C 125.254844 124.579062 125.254844 124.579062 125.254844 124.579062 
L 166.715832 112.002009 
C 166.304167 110.644929 165.82612 109.308879 165.283419 107.998684 
C 164.740719 106.688489 164.134018 105.405728 163.46551 104.155036 
z
" clip-path="url(#p5d20a0e136)" style="fill: #a1a1d8"/>
   </g>
   <g id="patch_42">
    <path d="M 125.254844 124.579062 
C 125.254844 124.579062 125.254844 124.579062 125.254844 124.579062 
C 125.254844 124.579062 125.254844 124.579062 125.254844 124.579062 
L 154.122453 121.735851 
C 154.029391 120.790971 153.889993 119.85123 153.704764 118.920021 
C 153.519536 117.988813 153.288699 117.06726 153.013087 116.158691 
z
" clip-path="url(#p5d20a0e136)" style="fill: #a1a1d8"/>
   </g>
   <g id="patch_43">
    <path d="M 125.254844 124.579062 
C 125.254844 124.579062 125.254844 124.579062 125.254844 124.579062 
C 125.254844 124.579062 125.254844 124.579062 125.254844 124.579062 
L 165.926985 128.584919 
C 166.058103 127.253659 166.12378 125.916764 166.12378 124.579062 
C 166.12378 123.241361 166.058103 121.904466 165.926985 120.573206 
z
" clip-path="url(#p5d20a0e136)" style="fill: #a1a1d8"/>
   </g>
   <g id="patch_44">
    <path d="M 125.254844 124.579062 
C 125.254844 124.579062 125.254844 124.579062 125.254844 124.579062 
C 125.254844 124.579062 125.254844 124.579062 125.254844 124.579062 
L 156.052465 133.921419 
C 156.358254 132.913367 156.614367 131.890909 156.819877 130.857738 
C 157.025388 129.824567 157.180048 128.781929 157.283301 127.73359 
z
" clip-path="url(#p5d20a0e136)" style="fill: #a1a1d8"/>
   </g>
   <g id="patch_45">
    <path d="M 125.254844 124.579062 
C 125.254844 124.579062 125.254844 124.579062 125.254844 124.579062 
C 125.254844 124.579062 125.254844 124.579062 125.254844 124.579062 
L 155.267382 140.621099 
C 155.792462 139.638743 156.268994 138.6312 156.695258 137.602109 
C 157.121522 136.573017 157.497003 135.523617 157.820346 134.4577 
z
" clip-path="url(#p5d20a0e136)" style="fill: #a1a1d8"/>
   </g>
   <g id="patch_46">
    <path d="M 125.254844 124.579062 
C 125.254844 124.579062 125.254844 124.579062 125.254844 124.579062 
C 125.254844 124.579062 125.254844 124.579062 125.254844 124.579062 
L 158.572947 151.922523 
C 159.467939 150.831972 160.308849 149.698136 161.092639 148.525112 
C 161.876429 147.352087 162.602154 146.141288 163.267193 144.897087 
z
" clip-path="url(#p5d20a0e136)" style="fill: #a1a1d8"/>
   </g>
   <g id="patch_47">
    <path d="M 125.254844 124.579062 
C 125.254844 124.579062 125.254844 124.579062 125.254844 124.579062 
C 125.254844 124.579062 125.254844 124.579062 125.254844 124.579062 
L 142.955948 146.147921 
C 143.661929 145.568537 144.339039 144.954841 144.984831 144.309049 
C 145.630623 143.663257 146.244319 142.986148 146.823702 142.280167 
z
" clip-path="url(#p5d20a0e136)" style="fill: #a1a1d8"/>
   </g>
   <g id="patch_48">
    <path d="M 125.254844 124.579062 
C 125.254844 124.579062 125.254844 124.579062 125.254844 124.579062 
C 125.254844 124.579062 125.254844 124.579062 125.254844 124.579062 
L 131.709553 136.654975 
C 132.104816 136.443703 132.489468 136.213151 132.862119 135.964154 
C 133.23477 135.715156 133.594971 135.448013 133.941422 135.163688 
z
" clip-path="url(#p5d20a0e136)" style="fill: #a1a1d8"/>
   </g>
   <g id="patch_49">
    <path d="M 125.254844 124.579062 
C 125.254844 124.579062 125.254844 124.579062 125.254844 124.579062 
C 125.254844 124.579062 125.254844 124.579062 125.254844 124.579062 
L 127.63891 132.438276 
C 127.896154 132.360242 128.149411 132.269625 128.397768 132.166752 
C 128.646124 132.06388 128.88928 131.948876 129.126357 131.822155 
z
" clip-path="url(#p5d20a0e136)" style="fill: #a1a1d8"/>
   </g>
   <g id="patch_50">
    <path d="M 125.254844 124.579062 
C 125.254844 124.579062 125.254844 124.579062 125.254844 124.579062 
C 125.254844 124.579062 125.254844 124.579062 125.254844 124.579062 
L 125.711666 129.217255 
C 125.863481 129.202302 126.01447 129.179905 126.164088 129.150144 
C 126.313707 129.120383 126.461774 129.083294 126.607754 129.039011 
z
" clip-path="url(#p5d20a0e136)" style="fill: #a1a1d8"/>
   </g>
   <g id="patch_51">
    <path d="M 125.254844 124.579062 
C 125.254844 124.579062 125.254844 124.579062 125.254844 124.579062 
C 125.254844 124.579062 125.254844 124.579062 125.254844 124.579062 
L 124.409902 133.157903 
C 124.6907 133.185559 124.972687 133.199412 125.254844 133.199412 
C 125.537001 133.199412 125.818988 133.185559 126.099786 133.157903 
z
" clip-path="url(#p5d20a0e136)" style="fill: #a1a1d8"/>
   </g>
   <g id="patch_52">
    <path d="M 125.254844 124.579062 
C 125.254844 124.579062 125.254844 124.579062 125.254844 124.579062 
C 125.254844 124.579062 125.254844 124.579062 125.254844 124.579062 
L 123.526727 130.275901 
C 123.713193 130.332465 123.902323 130.37984 124.093436 130.417854 
C 124.284548 130.455869 124.477412 130.484478 124.67133 130.503577 
z
" clip-path="url(#p5d20a0e136)" style="fill: #a1a1d8"/>
   </g>
   <g id="patch_53">
    <path d="M 125.254844 124.579062 
C 125.254844 124.579062 125.254844 124.579062 125.254844 124.579062 
C 125.254844 124.579062 125.254844 124.579062 125.254844 124.579062 
L 121.655363 131.313218 
C 121.875782 131.431034 122.101852 131.537958 122.332758 131.633602 
C 122.563663 131.729246 122.799126 131.813496 123.038294 131.886047 
z
" clip-path="url(#p5d20a0e136)" style="fill: #a1a1d8"/>
   </g>
   <g id="patch_54">
    <path d="M 125.254844 124.579062 
C 125.254844 124.579062 125.254844 124.579062 125.254844 124.579062 
C 125.254844 124.579062 125.254844 124.579062 125.254844 124.579062 
L 117.315455 134.253236 
C 117.632105 134.513104 117.961323 134.757269 118.30192 134.984848 
C 118.642517 135.212428 118.994082 135.423148 119.355346 135.616247 
z
" clip-path="url(#p5d20a0e136)" style="fill: #a1a1d8"/>
   </g>
   <g id="patch_55">
    <path d="M 125.254844 124.579062 
C 125.254844 124.579062 125.254844 124.579062 125.254844 124.579062 
C 125.254844 124.579062 125.254844 124.579062 125.254844 124.579062 
L 119.29472 129.470409 
C 119.454821 129.665493 119.624404 129.852599 119.802856 130.03105 
C 119.981308 130.209502 120.168413 130.379085 120.363497 130.539186 
z
" clip-path="url(#p5d20a0e136)" style="fill: #a1a1d8"/>
   </g>
   <g id="patch_56">
    <path d="M 125.254844 124.579062 
C 125.254844 124.579062 125.254844 124.579062 125.254844 124.579062 
C 125.254844 124.579062 125.254844 124.579062 125.254844 124.579062 
L 118.859308 127.997548 
C 118.9712 128.206883 119.093302 128.410599 119.225174 128.607959 
C 119.357046 128.805319 119.498528 128.996086 119.64911 129.17957 
z
" clip-path="url(#p5d20a0e136)" style="fill: #a1a1d8"/>
   </g>
   <g id="patch_57">
    <path d="M 125.254844 124.579062 
C 125.254844 124.579062 125.254844 124.579062 125.254844 124.579062 
C 125.254844 124.579062 125.254844 124.579062 125.254844 124.579062 
L 111.603888 128.720035 
C 111.739428 129.166851 111.896824 129.606743 112.075507 130.038123 
C 112.25419 130.469502 112.453945 130.891848 112.674051 131.303637 
z
" clip-path="url(#p5d20a0e136)" style="fill: #a1a1d8"/>
   </g>
   <g id="patch_58">
    <path d="M 125.254844 124.579062 
C 125.254844 124.579062 125.254844 124.579062 125.254844 124.579062 
C 125.254844 124.579062 125.254844 124.579062 125.254844 124.579062 
L 117.22126 125.370301 
C 117.247158 125.633253 117.285951 125.894774 117.337499 126.15392 
C 117.389046 126.413067 117.453286 126.669526 117.529986 126.922373 
z
" clip-path="url(#p5d20a0e136)" style="fill: #a1a1d8"/>
   </g>
   <g id="patch_59">
    <path d="M 125.254844 124.579062 
C 125.254844 124.579062 125.254844 124.579062 125.254844 124.579062 
C 125.254844 124.579062 125.254844 124.579062 125.254844 124.579062 
L 111.503974 123.22472 
C 111.459644 123.674807 111.437439 124.126798 111.437439 124.579062 
C 111.437439 125.031327 111.459644 125.483318 111.503974 125.933405 
z
" clip-path="url(#p5d20a0e136)" style="fill: #a1a1d8"/>
   </g>
   <g id="patch_60">
    <path d="M 125.254844 124.579062 
C 125.254844 124.579062 125.254844 124.579062 125.254844 124.579062 
C 125.254844 124.579062 125.254844 124.579062 125.254844 124.579062 
L 104.411033 118.256162 
C 104.204075 118.938411 104.030738 119.63041 103.891649 120.329659 
C 103.752559 121.028908 103.647885 121.734565 103.578004 122.44408 
z
" clip-path="url(#p5d20a0e136)" style="fill: #a1a1d8"/>
   </g>
   <g id="patch_61">
    <path d="M 125.254844 124.579062 
C 125.254844 124.579062 125.254844 124.579062 125.254844 124.579062 
C 125.254844 124.579062 125.254844 124.579062 125.254844 124.579062 
L 106.584983 114.599814 
C 106.258348 115.210907 105.961912 115.837668 105.696746 116.477833 
C 105.431581 117.117999 105.198006 117.770798 104.996865 118.433872 
z
" clip-path="url(#p5d20a0e136)" style="fill: #a1a1d8"/>
   </g>
   <g id="patch_62">
    <path d="M 125.254844 124.579062 
C 125.254844 124.579062 125.254844 124.579062 125.254844 124.579062 
C 125.254844 124.579062 125.254844 124.579062 125.254844 124.579062 
L 99.473235 103.420643 
C 98.780688 104.264514 98.129991 105.141878 97.523493 106.049566 
C 96.916995 106.957255 96.355427 107.894174 95.840819 108.856938 
z
" clip-path="url(#p5d20a0e136)" style="fill: #a1a1d8"/>
   </g>
   <g id="patch_63">
    <path d="M 125.254844 124.579062 
C 125.254844 124.579062 125.254844 124.579062 125.254844 124.579062 
C 125.254844 124.579062 125.254844 124.579062 125.254844 124.579062 
L 104.139961 98.850504 
C 103.297827 99.541625 102.490133 100.273677 101.719795 101.044014 
C 100.949458 101.814351 100.217407 102.622046 99.526285 103.46418 
z
" clip-path="url(#p5d20a0e136)" style="fill: #a1a1d8"/>
   </g>
   <g id="patch_64">
    <path d="M 125.254844 124.579062 
C 125.254844 124.579062 125.254844 124.579062 125.254844 124.579062 
C 125.254844 124.579062 125.254844 124.579062 125.254844 124.579062 
L 99.847625 77.045499 
C 98.29178 77.877116 96.777704 78.784618 95.310864 79.764729 
C 93.844024 80.744841 92.426188 81.796379 91.062479 82.915546 
z
" clip-path="url(#p5d20a0e136)" style="fill: #a1a1d8"/>
   </g>
   <g id="patch_65">
    <path d="M 125.254844 124.579062 
C 125.254844 124.579062 125.254844 124.579062 125.254844 124.579062 
C 125.254844 124.579062 125.254844 124.579062 125.254844 124.579062 
L 113.567107 86.049757 
C 112.305985 86.432314 111.064406 86.876559 109.846854 87.380885 
C 108.629302 87.885212 107.437245 88.449013 106.274989 89.070252 
z
" clip-path="url(#p5d20a0e136)" style="fill: #a1a1d8"/>
   </g>
   <g id="patch_66">
    <path d="M 125.254844 124.579062 
C 125.254844 124.579062 125.254844 124.579062 125.254844 124.579062 
C 125.254844 124.579062 125.254844 124.579062 125.254844 124.579062 
L 121.32651 84.69402 
C 120.021013 84.8226 118.722616 85.015199 117.436008 85.271121 
C 116.149401 85.527044 114.876133 85.84598 113.620806 86.22678 
z
" clip-path="url(#p5d20a0e136)" style="fill: #a1a1d8"/>
   </g>
   <g id="patch_67">
    <path d="M 120.196036 73.216122 
C 121.877221 73.050539 123.565523 72.967598 125.254844 72.967598 
C 126.944164 72.967598 128.632466 73.050539 130.313652 73.216122 
L 131.223969 63.97352 
C 129.240259 63.778141 127.248152 63.680275 125.254844 63.680275 
C 123.261536 63.680275 121.269429 63.778141 119.285719 63.97352 
z
" clip-path="url(#p5d20a0e136)" style="fill: #ff8c8e"/>
   </g>
   <g id="patch_68">
    <path d="M 129.66526 79.799359 
C 131.130966 79.943719 132.588702 80.159954 134.033201 80.447282 
C 135.4777 80.734611 136.907221 81.092688 138.316601 81.520218 
L 145.742209 57.041269 
C 143.531597 56.370687 141.289392 55.809044 139.023696 55.358369 
C 136.757999 54.907694 134.471541 54.56853 132.172581 54.342102 
z
" clip-path="url(#p5d20a0e136)" style="fill: #ff8c8e"/>
   </g>
   <g id="patch_69">
    <path d="M 137.486297 84.257365 
C 138.806086 84.657718 140.105424 85.122629 141.379617 85.650417 
C 142.65381 86.178205 143.901321 86.768234 145.117646 87.418373 
L 162.559738 54.786513 
C 160.275324 53.565469 157.932337 52.457318 155.539239 51.466065 
C 153.146141 50.474811 150.705818 49.60165 148.227084 48.849734 
z
" clip-path="url(#p5d20a0e136)" style="fill: #ff8c8e"/>
   </g>
   <g id="patch_70">
    <path d="M 147.964096 82.093041 
C 149.354726 82.836348 150.708025 83.647484 152.019103 84.523518 
C 153.33018 85.399553 154.597457 86.339429 155.816355 87.339753 
L 190.0785 45.591208 
C 187.49311 43.469433 184.805105 41.475873 182.024193 39.617727 
C 179.243282 37.759581 176.372817 36.039091 173.423166 34.46247 
z
" clip-path="url(#p5d20a0e136)" style="fill: #ff8c8e"/>
   </g>
   <g id="patch_71">
    <path d="M 155.778693 87.385645 
C 156.996089 88.384736 158.163698 89.442996 159.277304 90.556602 
C 160.39091 91.670208 161.44917 92.837818 162.448261 94.055214 
L 203.856892 60.072028 
C 201.745481 57.499266 199.509026 55.031719 197.155607 52.678299 
C 194.802188 50.32488 192.33464 48.088426 189.761878 45.977014 
z
" clip-path="url(#p5d20a0e136)" style="fill: #ff8c8e"/>
   </g>
   <g id="patch_72">
    <path d="M 160.93909 95.293758 
C 161.897642 96.461757 162.798271 97.676114 163.637723 98.932443 
C 164.477175 100.188772 165.254439 101.485558 165.966707 102.818118 
L 200.562698 84.326176 
C 199.245161 81.861237 197.807397 79.462472 196.254598 77.138544 
C 194.701799 74.814616 193.035837 72.568327 191.26273 70.40779 
z
" clip-path="url(#p5d20a0e136)" style="fill: #ff8c8e"/>
   </g>
   <g id="patch_73">
    <path d="M 163.46551 104.155036 
C 164.134018 105.405728 164.740719 106.688489 165.283419 107.998684 
C 165.82612 109.308879 166.304167 110.644929 166.715832 112.002009 
L 192.1619 104.283029 
C 191.497581 102.093061 190.72614 99.937029 189.850365 97.822721 
C 188.97459 95.708414 187.995536 93.638378 186.91674 91.620092 
z
" clip-path="url(#p5d20a0e136)" style="fill: #ff8c8e"/>
   </g>
   <g id="patch_74">
    <path d="M 153.013087 116.158691 
C 153.288699 117.06726 153.519536 117.988813 153.704764 118.920021 
C 153.889993 119.85123 154.029391 120.790971 154.122453 121.735851 
L 196.738141 117.538572 
C 196.507696 115.198817 196.162513 112.871787 195.703841 110.565886 
C 195.245169 108.259985 194.67356 105.977993 193.991078 103.728154 
z
" clip-path="url(#p5d20a0e136)" style="fill: #ff8c8e"/>
   </g>
   <g id="patch_75">
    <path d="M 165.926985 120.573206 
C 166.058103 121.904466 166.12378 123.241361 166.12378 124.579062 
C 166.12378 125.916764 166.058103 127.253659 165.926985 128.584919 
L 189.134757 130.870685 
C 189.340691 128.7798 189.443845 126.680064 189.443845 124.579062 
C 189.443845 122.478061 189.340691 120.378325 189.134757 118.28744 
z
" clip-path="url(#p5d20a0e136)" style="fill: #ff8c8e"/>
   </g>
   <g id="patch_76">
    <path d="M 157.283301 127.73359 
C 157.180048 128.781929 157.025388 129.824567 156.819877 130.857738 
C 156.614367 131.890909 156.358254 132.913367 156.052465 133.921419 
L 169.736811 138.07252 
C 170.178472 136.616558 170.548383 135.13979 170.845208 133.64755 
C 171.142033 132.155309 171.365414 130.649394 171.514545 129.135245 
z
" clip-path="url(#p5d20a0e136)" style="fill: #ff8c8e"/>
   </g>
   <g id="patch_77">
    <path d="M 157.820346 134.4577 
C 157.497003 135.523617 157.121522 136.573017 156.695258 137.602109 
C 156.268994 138.6312 155.792462 139.638743 155.267382 140.621099 
L 171.738595 149.425145 
C 172.551845 147.903663 173.289903 146.343169 173.950105 144.7493 
C 174.610307 143.155432 175.191857 141.53011 175.692653 139.879205 
z
" clip-path="url(#p5d20a0e136)" style="fill: #ff8c8e"/>
   </g>
   <g id="patch_78">
    <path d="M 163.267193 144.897087 
C 162.602154 146.141288 161.876429 147.352087 161.092639 148.525112 
C 160.308849 149.698136 159.467939 150.831972 158.572947 151.922523 
L 160.321135 153.357224 
C 161.263087 152.209452 162.148119 151.016125 162.973035 149.781552 
C 163.79795 148.546979 164.561753 147.27265 165.261687 145.963166 
z
" clip-path="url(#p5d20a0e136)" style="fill: #ff8c8e"/>
   </g>
   <g id="patch_79">
    <path d="M 146.823702 142.280167 
C 146.244319 142.986148 145.630623 143.663257 144.984831 144.309049 
C 144.339039 144.954841 143.661929 145.568537 142.955948 146.147921 
L 143.162684 146.399829 
C 143.87691 145.813678 144.561927 145.192815 145.215262 144.53948 
C 145.868596 143.886146 146.48946 143.201129 147.07561 142.486902 
z
" clip-path="url(#p5d20a0e136)" style="fill: #ff8c8e"/>
   </g>
   <g id="patch_80">
    <path d="M 133.941422 135.163688 
C 133.594971 135.448013 133.23477 135.715156 132.862119 135.964154 
C 132.489468 136.213151 132.104816 136.443703 131.709553 136.654975 
L 131.709553 136.654975 
C 132.104816 136.443703 132.489468 136.213151 132.862119 135.964154 
C 133.23477 135.715156 133.594971 135.448013 133.941422 135.163688 
z
" clip-path="url(#p5d20a0e136)" style="fill: #ff8c8e"/>
   </g>
   <g id="patch_81">
    <path d="M 129.126357 131.822155 
C 128.88928 131.948876 128.646124 132.06388 128.397768 132.166752 
C 128.149411 132.269625 127.896154 132.360242 127.63891 132.438276 
L 127.69877 132.635609 
C 127.962473 132.555616 128.22209 132.462724 128.476682 132.357268 
C 128.731274 132.251812 128.980535 132.133921 129.223565 132.004018 
z
" clip-path="url(#p5d20a0e136)" style="fill: #ff8c8e"/>
   </g>
   <g id="patch_82">
    <path d="M 126.607754 129.039011 
C 126.461774 129.083294 126.313707 129.120383 126.164088 129.150144 
C 126.01447 129.179905 125.863481 129.202302 125.711666 129.217255 
L 125.711666 129.217255 
C 125.863481 129.202302 126.01447 129.179905 126.164088 129.150144 
C 126.313707 129.120383 126.461774 129.083294 126.607754 129.039011 
z
" clip-path="url(#p5d20a0e136)" style="fill: #ff8c8e"/>
   </g>
   <g id="patch_83">
    <path d="M 126.099786 133.157903 
C 125.818988 133.185559 125.537001 133.199412 125.254844 133.199412 
C 124.972687 133.199412 124.6907 133.185559 124.409902 133.157903 
L 124.409902 133.157903 
C 124.6907 133.185559 124.972687 133.199412 125.254844 133.199412 
C 125.537001 133.199412 125.818988 133.185559 126.099786 133.157903 
z
" clip-path="url(#p5d20a0e136)" style="fill: #ff8c8e"/>
   </g>
   <g id="patch_84">
    <path d="M 124.67133 130.503577 
C 124.477412 130.484478 124.284548 130.455869 124.093436 130.417854 
C 123.902323 130.37984 123.713193 130.332465 123.526727 130.275901 
L 123.526727 130.275901 
C 123.713193 130.332465 123.902323 130.37984 124.093436 130.417854 
C 124.284548 130.455869 124.477412 130.484478 124.67133 130.503577 
z
" clip-path="url(#p5d20a0e136)" style="fill: #ff8c8e"/>
   </g>
   <g id="patch_85">
    <path d="M 123.038294 131.886047 
C 122.799126 131.813496 122.563663 131.729246 122.332758 131.633602 
C 122.101852 131.537958 121.875782 131.431034 121.655363 131.313218 
L 121.655363 131.313218 
C 121.875782 131.431034 122.101852 131.537958 122.332758 131.633602 
C 122.563663 131.729246 122.799126 131.813496 123.038294 131.886047 
z
" clip-path="url(#p5d20a0e136)" style="fill: #ff8c8e"/>
   </g>
   <g id="patch_86">
    <path d="M 119.355346 135.616247 
C 118.994082 135.423148 118.642517 135.212428 118.30192 134.984848 
C 117.961323 134.757269 117.632105 134.513104 117.315455 134.253236 
L 117.315455 134.253236 
C 117.632105 134.513104 117.961323 134.757269 118.30192 134.984848 
C 118.642517 135.212428 118.994082 135.423148 119.355346 135.616247 
z
" clip-path="url(#p5d20a0e136)" style="fill: #ff8c8e"/>
   </g>
   <g id="patch_87">
    <path d="M 120.363497 130.539186 
C 120.168413 130.379085 119.981308 130.209502 119.802856 130.03105 
C 119.624404 129.852599 119.454821 129.665493 119.29472 129.470409 
L 118.241586 130.334695 
C 118.429976 130.564249 118.629523 130.784416 118.839507 130.994399 
C 119.04949 131.204383 119.269657 131.40393 119.499211 131.592321 
z
" clip-path="url(#p5d20a0e136)" style="fill: #ff8c8e"/>
   </g>
   <g id="patch_88">
    <path d="M 119.64911 129.17957 
C 119.498528 128.996086 119.357046 128.805319 119.225174 128.607959 
C 119.093302 128.410599 118.9712 128.206883 118.859308 127.997548 
L 118.859308 127.997548 
C 118.9712 128.206883 119.093302 128.410599 119.225174 128.607959 
C 119.357046 128.805319 119.498528 128.996086 119.64911 129.17957 
z
" clip-path="url(#p5d20a0e136)" style="fill: #ff8c8e"/>
   </g>
   <g id="patch_89">
    <path d="M 112.674051 131.303637 
C 112.453945 130.891848 112.25419 130.469502 112.075507 130.038123 
C 111.896824 129.606743 111.739428 129.166851 111.603888 128.720035 
L 110.712689 128.990377 
C 110.857078 129.466363 111.02475 129.934974 111.215098 130.394516 
C 111.405446 130.854057 111.618242 131.303977 111.852717 131.742648 
z
" clip-path="url(#p5d20a0e136)" style="fill: #ff8c8e"/>
   </g>
   <g id="patch_90">
    <path d="M 117.529986 126.922373 
C 117.453286 126.669526 117.389046 126.413067 117.337499 126.15392 
C 117.285951 125.894774 117.247158 125.633253 117.22126 125.370301 
L 114.508221 125.637512 
C 114.542866 125.989265 114.59476 126.339106 114.663715 126.685769 
C 114.732671 127.032432 114.818605 127.375501 114.921208 127.713737 
z
" clip-path="url(#p5d20a0e136)" style="fill: #ff8c8e"/>
   </g>
   <g id="patch_91">
    <path d="M 111.503974 125.933405 
C 111.459644 125.483318 111.437439 125.031327 111.437439 124.579062 
C 111.437439 124.126798 111.459644 123.674807 111.503974 123.22472 
L 107.835198 122.863377 
C 107.779041 123.433548 107.750911 124.006133 107.750911 124.579062 
C 107.750911 125.151992 107.779041 125.724577 107.835198 126.294748 
z
" clip-path="url(#p5d20a0e136)" style="fill: #ff8c8e"/>
   </g>
   <g id="patch_92">
    <path d="M 103.578004 122.44408 
C 103.647885 121.734565 103.752559 121.028908 103.891649 120.329659 
C 104.030738 119.63041 104.204075 118.938411 104.411033 118.256162 
L 104.136596 118.172912 
C 103.926913 118.864144 103.751294 119.565254 103.610374 120.27371 
C 103.469453 120.982166 103.363401 121.697113 103.292599 122.41597 
z
" clip-path="url(#p5d20a0e136)" style="fill: #ff8c8e"/>
   </g>
   <g id="patch_93">
    <path d="M 104.996865 118.433872 
C 105.198006 117.770798 105.431581 117.117999 105.696746 116.477833 
C 105.961912 115.837668 106.258348 115.210907 106.584983 114.599814 
L 106.584983 114.599814 
C 106.258348 115.210907 105.961912 115.837668 105.696746 116.477833 
C 105.431581 117.117999 105.198006 117.770798 104.996865 118.433872 
z
" clip-path="url(#p5d20a0e136)" style="fill: #ff8c8e"/>
   </g>
   <g id="patch_94">
    <path d="M 95.840819 108.856938 
C 96.355427 107.894174 96.916995 106.957255 97.523493 106.049566 
C 98.129991 105.141878 98.780688 104.264514 99.473235 103.420643 
L 97.680755 101.949593 
C 96.940058 102.852134 96.244121 103.790497 95.595456 104.761293 
C 94.94679 105.732089 94.34618 106.734148 93.795793 107.763849 
z
" clip-path="url(#p5d20a0e136)" style="fill: #ff8c8e"/>
   </g>
   <g id="patch_95">
    <path d="M 99.526285 103.46418 
C 100.217407 102.622046 100.949458 101.814351 101.719795 101.044014 
C 102.490133 100.273677 103.297827 99.541625 104.139961 98.850504 
L 100.694857 94.652632 
C 99.71532 95.456517 98.775843 96.30801 97.879817 97.204036 
C 96.983792 98.100061 96.132298 99.039539 95.328413 100.019076 
z
" clip-path="url(#p5d20a0e136)" style="fill: #ff8c8e"/>
   </g>
   <g id="patch_96">
    <path d="M 91.062479 82.915546 
C 92.426188 81.796379 93.844024 80.744841 95.310864 79.764729 
C 96.777704 78.784618 98.29178 77.877116 99.847625 77.045499 
L 97.879108 73.362663 
C 96.202718 74.258711 94.571333 75.236526 92.990844 76.292575 
C 91.410356 77.348624 89.882668 78.481634 88.413301 79.687513 
z
" clip-path="url(#p5d20a0e136)" style="fill: #ff8c8e"/>
   </g>
   <g id="patch_97">
    <path d="M 106.274989 89.070252 
C 107.437245 88.449013 108.629302 87.885212 109.846854 87.380885 
C 111.064406 86.876559 112.305985 86.432314 113.567107 86.049757 
L 112.3601 82.07079 
C 110.968741 82.492854 109.598942 82.982976 108.255653 83.539385 
C 106.912363 84.095793 105.5972 84.717819 104.314916 85.403214 
z
" clip-path="url(#p5d20a0e136)" style="fill: #ff8c8e"/>
   </g>
   <g id="patch_98">
    <path d="M 113.620806 86.22678 
C 114.876133 85.84598 116.149401 85.527044 117.436008 85.271121 
C 118.722616 85.015199 120.021013 84.8226 121.32651 84.69402 
L 120.202554 73.282299 
C 118.523534 73.447668 116.853645 73.695373 115.19892 74.024518 
C 113.544194 74.353664 111.906626 74.763853 110.29213 75.253605 
z
" clip-path="url(#p5d20a0e136)" style="fill: #ff8c8e"/>
   </g>
   <g id="patch_99">
    <path d="M 119.285719 63.97352 
C 121.269429 63.778141 123.261536 63.680275 125.254844 63.680275 
C 127.248152 63.680275 129.240259 63.778141 131.223969 63.97352 
L 131.505307 61.117048 
C 129.4281 60.912461 127.342101 60.809982 125.254844 60.809982 
C 123.167587 60.809982 121.081587 60.912461 119.004381 61.117048 
z
" clip-path="url(#p5d20a0e136)" style="fill: #828282"/>
   </g>
   <g id="patch_100">
    <path d="M 132.172581 54.342102 
C 134.471541 54.56853 136.757999 54.907694 139.023696 55.358369 
C 141.289392 55.809044 143.531597 56.370687 145.742209 57.041269 
L 145.936429 56.401013 
C 143.70486 55.724074 141.441399 55.157107 139.154224 54.702159 
C 136.867049 54.247212 134.558915 53.904833 132.23816 53.676258 
z
" clip-path="url(#p5d20a0e136)" style="fill: #828282"/>
   </g>
   <g id="patch_101">
    <path d="M 148.227084 48.849734 
C 150.705818 49.60165 153.146141 50.474811 155.539239 51.466065 
C 157.932337 52.457318 160.275324 53.565469 162.559738 54.786513 
L 164.150015 51.811316 
C 161.768218 50.538219 159.325351 49.382828 156.830237 48.349319 
C 154.335124 47.315809 151.790772 46.405425 149.206372 45.621456 
z
" clip-path="url(#p5d20a0e136)" style="fill: #828282"/>
   </g>
   <g id="patch_102">
    <path d="M 173.423166 34.46247 
C 176.372817 36.039091 179.243282 37.759581 182.024193 39.617727 
C 184.805105 41.475873 187.49311 43.469433 190.0785 45.591208 
L 195.596374 38.86766 
C 192.790912 36.565276 189.8741 34.402021 186.856474 32.385708 
C 183.838848 30.369394 180.724045 28.502453 177.523316 26.791628 
z
" clip-path="url(#p5d20a0e136)" style="fill: #828282"/>
   </g>
   <g id="patch_103">
    <path d="M 189.761878 45.977014 
C 192.33464 48.088426 194.802188 50.32488 197.155607 52.678299 
C 199.509026 55.031719 201.745481 57.499266 203.856892 60.072028 
L 205.555035 58.678398 
C 203.398008 56.050053 201.113237 53.529196 198.708973 51.124933 
C 196.30471 48.72067 193.783853 46.435898 191.155508 44.278871 
z
" clip-path="url(#p5d20a0e136)" style="fill: #828282"/>
   </g>
   <g id="patch_104">
    <path d="M 191.26273 70.40779 
C 193.035837 72.568327 194.701799 74.814616 196.254598 77.138544 
C 197.807397 79.462472 199.245161 81.861237 200.562698 84.326176 
L 205.871912 81.488342 
C 204.461488 78.849625 202.922361 76.281746 201.26009 73.793981 
C 199.597818 71.306216 197.814406 68.901563 195.916295 66.588708 
z
" clip-path="url(#p5d20a0e136)" style="fill: #828282"/>
   </g>
   <g id="patch_105">
    <path d="M 186.91674 91.620092 
C 187.995536 93.638378 188.97459 95.708414 189.850365 97.822721 
C 190.72614 99.937029 191.497581 102.093061 192.1619 104.283029 
L 194.64291 103.530423 
C 193.953956 101.259248 193.15391 99.023267 192.24566 96.830558 
C 191.33741 94.637849 190.322051 92.491053 189.203251 90.397926 
z
" clip-path="url(#p5d20a0e136)" style="fill: #828282"/>
   </g>
   <g id="patch_106">
    <path d="M 193.991078 103.728154 
C 194.67356 105.977993 195.245169 108.259985 195.703841 110.565886 
C 196.162513 112.871787 196.507696 115.198817 196.738141 117.538572 
L 198.929977 117.322695 
C 198.692465 114.911198 198.336698 112.512816 197.863962 110.136211 
C 197.391226 107.759606 196.80209 105.407644 196.098682 103.088819 
z
" clip-path="url(#p5d20a0e136)" style="fill: #828282"/>
   </g>
   <g id="patch_107">
    <path d="M 189.134757 118.28744 
C 189.340691 120.378325 189.443845 122.478061 189.443845 124.579062 
C 189.443845 126.680064 189.340691 128.7798 189.134757 130.870685 
L 196.261371 131.572595 
C 196.49028 129.248445 196.604941 126.914458 196.604941 124.579062 
C 196.604941 122.243667 196.49028 119.90968 196.261371 117.58553 
z
" clip-path="url(#p5d20a0e136)" style="fill: #828282"/>
   </g>
   <g id="patch_108">
    <path d="M 171.514545 129.135245 
C 171.365414 130.649394 171.142033 132.155309 170.845208 133.64755 
C 170.548383 135.13979 170.178472 136.616558 169.736811 138.07252 
L 170.703037 138.365621 
C 171.154292 136.878034 171.532238 135.369188 171.835511 133.844533 
C 172.138783 132.319878 172.367017 130.781253 172.519387 129.234214 
z
" clip-path="url(#p5d20a0e136)" style="fill: #828282"/>
   </g>
   <g id="patch_109">
    <path d="M 175.692653 139.879205 
C 175.191857 141.53011 174.610307 143.155432 173.950105 144.7493 
C 173.289903 146.343169 172.551845 147.903663 171.738595 149.425145 
L 173.29083 150.254832 
C 174.131237 148.682543 174.893941 147.069939 175.576189 145.422846 
C 176.258438 143.775754 176.859407 142.096157 177.376926 140.390123 
z
" clip-path="url(#p5d20a0e136)" style="fill: #828282"/>
   </g>
   <g id="patch_110">
    <path d="M 165.261687 145.963166 
C 164.561753 147.27265 163.79795 148.546979 162.973035 149.781552 
C 162.148119 151.016125 161.263087 152.209452 160.321135 153.357224 
L 160.321135 153.357224 
C 161.263087 152.209452 162.148119 151.016125 162.973035 149.781552 
C 163.79795 148.546979 164.561753 147.27265 165.261687 145.963166 
z
" clip-path="url(#p5d20a0e136)" style="fill: #828282"/>
   </g>
   <g id="patch_111">
    <path d="M 147.07561 142.486902 
C 146.48946 143.201129 145.868596 143.886146 145.215262 144.53948 
C 144.561927 145.192815 143.87691 145.813678 143.162684 146.399829 
L 143.162684 146.399829 
C 143.87691 145.813678 144.561927 145.192815 145.215262 144.53948 
C 145.868596 143.886146 146.48946 143.201129 147.07561 142.486902 
z
" clip-path="url(#p5d20a0e136)" style="fill: #828282"/>
   </g>
   <g id="patch_112">
    <path d="M 133.941422 135.163688 
C 133.594971 135.448013 133.23477 135.715156 132.862119 135.964154 
C 132.489468 136.213151 132.104816 136.443703 131.709553 136.654975 
L 131.709553 136.654975 
C 132.104816 136.443703 132.489468 136.213151 132.862119 135.964154 
C 133.23477 135.715156 133.594971 135.448013 133.941422 135.163688 
z
" clip-path="url(#p5d20a0e136)" style="fill: #828282"/>
   </g>
   <g id="patch_113">
    <path d="M 129.223565 132.004018 
C 128.980535 132.133921 128.731274 132.251812 128.476682 132.357268 
C 128.22209 132.462724 127.962473 132.555616 127.69877 132.635609 
L 127.69877 132.635609 
C 127.962473 132.555616 128.22209 132.462724 128.476682 132.357268 
C 128.731274 132.251812 128.980535 132.133921 129.223565 132.004018 
z
" clip-path="url(#p5d20a0e136)" style="fill: #828282"/>
   </g>
   <g id="patch_114">
    <path d="M 126.607754 129.039011 
C 126.461774 129.083294 126.313707 129.120383 126.164088 129.150144 
C 126.01447 129.179905 125.863481 129.202302 125.711666 129.217255 
L 125.711666 129.217255 
C 125.863481 129.202302 126.01447 129.179905 126.164088 129.150144 
C 126.313707 129.120383 126.461774 129.083294 126.607754 129.039011 
z
" clip-path="url(#p5d20a0e136)" style="fill: #828282"/>
   </g>
   <g id="patch_115">
    <path d="M 126.099786 133.157903 
C 125.818988 133.185559 125.537001 133.199412 125.254844 133.199412 
C 124.972687 133.199412 124.6907 133.185559 124.409902 133.157903 
L 124.409902 133.157903 
C 124.6907 133.185559 124.972687 133.199412 125.254844 133.199412 
C 125.537001 133.199412 125.818988 133.185559 126.099786 133.157903 
z
" clip-path="url(#p5d20a0e136)" style="fill: #828282"/>
   </g>
   <g id="patch_116">
    <path d="M 124.67133 130.503577 
C 124.477412 130.484478 124.284548 130.455869 124.093436 130.417854 
C 123.902323 130.37984 123.713193 130.332465 123.526727 130.275901 
L 123.526727 130.275901 
C 123.713193 130.332465 123.902323 130.37984 124.093436 130.417854 
C 124.284548 130.455869 124.477412 130.484478 124.67133 130.503577 
z
" clip-path="url(#p5d20a0e136)" style="fill: #828282"/>
   </g>
   <g id="patch_117">
    <path d="M 123.038294 131.886047 
C 122.799126 131.813496 122.563663 131.729246 122.332758 131.633602 
C 122.101852 131.537958 121.875782 131.431034 121.655363 131.313218 
L 121.655363 131.313218 
C 121.875782 131.431034 122.101852 131.537958 122.332758 131.633602 
C 122.563663 131.729246 122.799126 131.813496 123.038294 131.886047 
z
" clip-path="url(#p5d20a0e136)" style="fill: #828282"/>
   </g>
   <g id="patch_118">
    <path d="M 119.355346 135.616247 
C 118.994082 135.423148 118.642517 135.212428 118.30192 134.984848 
C 117.961323 134.757269 117.632105 134.513104 117.315455 134.253236 
L 117.315455 134.253236 
C 117.632105 134.513104 117.961323 134.757269 118.30192 134.984848 
C 118.642517 135.212428 118.994082 135.423148 119.355346 135.616247 
z
" clip-path="url(#p5d20a0e136)" style="fill: #828282"/>
   </g>
   <g id="patch_119">
    <path d="M 119.499211 131.592321 
C 119.269657 131.40393 119.04949 131.204383 118.839507 130.994399 
C 118.629523 130.784416 118.429976 130.564249 118.241586 130.334695 
L 118.241586 130.334695 
C 118.429976 130.564249 118.629523 130.784416 118.839507 130.994399 
C 119.04949 131.204383 119.269657 131.40393 119.499211 131.592321 
z
" clip-path="url(#p5d20a0e136)" style="fill: #828282"/>
   </g>
   <g id="patch_120">
    <path d="M 119.64911 129.17957 
C 119.498528 128.996086 119.357046 128.805319 119.225174 128.607959 
C 119.093302 128.410599 118.9712 128.206883 118.859308 127.997548 
L 118.859308 127.997548 
C 118.9712 128.206883 119.093302 128.410599 119.225174 128.607959 
C 119.357046 128.805319 119.498528 128.996086 119.64911 129.17957 
z
" clip-path="url(#p5d20a0e136)" style="fill: #828282"/>
   </g>
   <g id="patch_121">
    <path d="M 111.852717 131.742648 
C 111.618242 131.303977 111.405446 130.854057 111.215098 130.394516 
C 111.02475 129.934974 110.857078 129.466363 110.712689 128.990377 
L 110.712689 128.990377 
C 110.857078 129.466363 111.02475 129.934974 111.215098 130.394516 
C 111.405446 130.854057 111.618242 131.303977 111.852717 131.742648 
z
" clip-path="url(#p5d20a0e136)" style="fill: #828282"/>
   </g>
   <g id="patch_122">
    <path d="M 114.921208 127.713737 
C 114.818605 127.375501 114.732671 127.032432 114.663715 126.685769 
C 114.59476 126.339106 114.542866 125.989265 114.508221 125.637512 
L 113.696039 125.717505 
C 113.733302 126.095842 113.789118 126.472122 113.863285 126.844984 
C 113.937452 127.217847 114.029881 127.586844 114.140238 127.950641 
z
" clip-path="url(#p5d20a0e136)" style="fill: #828282"/>
   </g>
   <g id="patch_123">
    <path d="M 107.835198 126.294748 
C 107.779041 125.724577 107.750911 125.151992 107.750911 124.579062 
C 107.750911 124.006133 107.779041 123.433548 107.835198 122.863377 
L 107.835198 122.863377 
C 107.779041 123.433548 107.750911 124.006133 107.750911 124.579062 
C 107.750911 125.151992 107.779041 125.724577 107.835198 126.294748 
z
" clip-path="url(#p5d20a0e136)" style="fill: #828282"/>
   </g>
   <g id="patch_124">
    <path d="M 103.292599 122.41597 
C 103.363401 121.697113 103.469453 120.982166 103.610374 120.27371 
C 103.751294 119.565254 103.926913 118.864144 104.136596 118.172912 
L 104.136596 118.172912 
C 103.926913 118.864144 103.751294 119.565254 103.610374 120.27371 
C 103.469453 120.982166 103.363401 121.697113 103.292599 122.41597 
z
" clip-path="url(#p5d20a0e136)" style="fill: #828282"/>
   </g>
   <g id="patch_125">
    <path d="M 104.996865 118.433872 
C 105.198006 117.770798 105.431581 117.117999 105.696746 116.477833 
C 105.961912 115.837668 106.258348 115.210907 106.584983 114.599814 
L 106.045077 114.311228 
C 105.708996 114.939993 105.403987 115.584879 105.131154 116.243557 
C 104.85832 116.902236 104.61799 117.573912 104.411032 118.256161 
z
" clip-path="url(#p5d20a0e136)" style="fill: #828282"/>
   </g>
   <g id="patch_126">
    <path d="M 93.795793 107.763849 
C 94.34618 106.734148 94.94679 105.732089 95.595456 104.761293 
C 96.244121 103.790497 96.940058 102.852134 97.680755 101.949593 
L 97.446392 101.757256 
C 96.699401 102.667468 95.997548 103.613807 95.34337 104.592854 
C 94.689191 105.571902 94.083475 106.582477 93.528411 107.620931 
z
" clip-path="url(#p5d20a0e136)" style="fill: #828282"/>
   </g>
   <g id="patch_127">
    <path d="M 95.328413 100.019076 
C 96.132298 99.039539 96.983792 98.100061 97.879817 97.204036 
C 98.775843 96.30801 99.71532 95.456517 100.694857 94.652632 
L 100.554753 94.481915 
C 99.569629 95.290386 98.624792 96.146737 97.723655 97.047873 
C 96.822518 97.94901 95.966167 98.893848 95.157697 99.878972 
z
" clip-path="url(#p5d20a0e136)" style="fill: #828282"/>
   </g>
   <g id="patch_128">
    <path d="M 88.413301 79.687513 
C 89.882668 78.481634 91.410356 77.348624 92.990844 76.292575 
C 94.571333 75.236526 96.202718 74.258711 97.879108 73.362663 
L 97.560801 72.767153 
C 95.86492 73.673621 94.214566 74.662805 92.615701 75.731133 
C 91.016835 76.799461 89.471385 77.945644 87.984933 79.165544 
z
" clip-path="url(#p5d20a0e136)" style="fill: #828282"/>
   </g>
   <g id="patch_129">
    <path d="M 104.314916 85.403214 
C 105.5972 84.717819 106.912363 84.095793 108.255653 83.539385 
C 109.598942 82.982976 110.968741 82.492854 112.3601 82.07079 
L 112.255929 81.727382 
C 110.853329 82.152856 109.472465 82.646937 108.118323 83.207841 
C 106.764181 83.768745 105.438394 84.395795 104.145751 85.086728 
z
" clip-path="url(#p5d20a0e136)" style="fill: #828282"/>
   </g>
   <g id="patch_130">
    <path d="M 110.29213 75.253605 
C 111.906626 74.763853 113.544194 74.353664 115.19892 74.024518 
C 116.853645 73.695373 118.523534 73.447668 120.202554 73.282299 
L 119.850669 69.709554 
C 118.054708 69.88644 116.268514 70.151397 114.498539 70.503467 
C 112.728564 70.855537 110.976942 71.294296 109.249998 71.818158 
z
" clip-path="url(#p5d20a0e136)" style="fill: #828282"/>
   </g>
   <g id="patch_131">
    <path d="M 125.254844 124.579062 
C 125.254844 124.579062 125.254844 124.579062 125.254844 124.579062 
C 125.254844 124.579062 125.254844 124.579062 125.254844 124.579062 
L 131.505307 61.117048 
C 129.4281 60.912461 127.342101 60.809982 125.254844 60.809982 
C 123.167587 60.809982 121.081587 60.912461 119.004381 61.117048 
L 125.254844 124.579062 
z
" clip-path="url(#p5d20a0e136)" style="fill: none; stroke: #292929; stroke-width: 0.5; stroke-linejoin: miter"/>
   </g>
   <g id="patch_132">
    <path d="M 125.254844 124.579062 
C 125.254844 124.579062 125.254844 124.579062 125.254844 124.579062 
C 125.254844 124.579062 125.254844 124.579062 125.254844 124.579062 
L 145.936429 56.401013 
C 143.70486 55.724074 141.441399 55.157107 139.154224 54.702159 
C 136.867049 54.247212 134.558915 53.904833 132.23816 53.676258 
L 125.254844 124.579062 
z
" clip-path="url(#p5d20a0e136)" style="fill: none; stroke: #292929; stroke-width: 0.5; stroke-linejoin: miter"/>
   </g>
   <g id="patch_133">
    <path d="M 125.254844 124.579062 
C 125.254844 124.579062 125.254844 124.579062 125.254844 124.579062 
C 125.254844 124.579062 125.254844 124.579062 125.254844 124.579062 
L 164.150015 51.811316 
C 161.768218 50.538219 159.325351 49.382828 156.830237 48.349319 
C 154.335124 47.315809 151.790772 46.405425 149.206372 45.621456 
L 125.254844 124.579062 
z
" clip-path="url(#p5d20a0e136)" style="fill: none; stroke: #292929; stroke-width: 0.5; stroke-linejoin: miter"/>
   </g>
   <g id="patch_134">
    <path d="M 125.254844 124.579062 
C 125.254844 124.579062 125.254844 124.579062 125.254844 124.579062 
C 125.254844 124.579062 125.254844 124.579062 125.254844 124.579062 
L 195.596374 38.86766 
C 192.790912 36.565276 189.8741 34.402021 186.856474 32.385708 
C 183.838848 30.369394 180.724045 28.502453 177.523316 26.791628 
L 125.254844 124.579062 
z
" clip-path="url(#p5d20a0e136)" style="fill: none; stroke: #292929; stroke-width: 0.5; stroke-linejoin: miter"/>
   </g>
   <g id="patch_135">
    <path d="M 125.254844 124.579062 
C 125.254844 124.579062 125.254844 124.579062 125.254844 124.579062 
C 125.254844 124.579062 125.254844 124.579062 125.254844 124.579062 
L 205.555035 58.678398 
C 203.398008 56.050053 201.113237 53.529196 198.708973 51.124933 
C 196.30471 48.72067 193.783853 46.435898 191.155508 44.278871 
L 125.254844 124.579062 
z
" clip-path="url(#p5d20a0e136)" style="fill: none; stroke: #292929; stroke-width: 0.5; stroke-linejoin: miter"/>
   </g>
   <g id="patch_136">
    <path d="M 125.254844 124.579062 
C 125.254844 124.579062 125.254844 124.579062 125.254844 124.579062 
C 125.254844 124.579062 125.254844 124.579062 125.254844 124.579062 
L 205.871912 81.488342 
C 204.461488 78.849625 202.922361 76.281746 201.26009 73.793981 
C 199.597818 71.306216 197.814406 68.901563 195.916295 66.588708 
L 125.254844 124.579062 
z
" clip-path="url(#p5d20a0e136)" style="fill: none; stroke: #292929; stroke-width: 0.5; stroke-linejoin: miter"/>
   </g>
   <g id="patch_137">
    <path d="M 125.254844 124.579062 
C 125.254844 124.579062 125.254844 124.579062 125.254844 124.579062 
C 125.254844 124.579062 125.254844 124.579062 125.254844 124.579062 
L 194.64291 103.530423 
C 193.953956 101.259248 193.15391 99.023267 192.24566 96.830558 
C 191.33741 94.637849 190.322051 92.491053 189.203251 90.397926 
L 125.254844 124.579062 
z
" clip-path="url(#p5d20a0e136)" style="fill: none; stroke: #292929; stroke-width: 0.5; stroke-linejoin: miter"/>
   </g>
   <g id="patch_138">
    <path d="M 125.254844 124.579062 
C 125.254844 124.579062 125.254844 124.579062 125.254844 124.579062 
C 125.254844 124.579062 125.254844 124.579062 125.254844 124.579062 
L 198.929977 117.322695 
C 198.692465 114.911198 198.336698 112.512816 197.863962 110.136211 
C 197.391226 107.759606 196.80209 105.407644 196.098682 103.088819 
L 125.254844 124.579062 
z
" clip-path="url(#p5d20a0e136)" style="fill: none; stroke: #292929; stroke-width: 0.5; stroke-linejoin: miter"/>
   </g>
   <g id="patch_139">
    <path d="M 125.254844 124.579062 
C 125.254844 124.579062 125.254844 124.579062 125.254844 124.579062 
C 125.254844 124.579062 125.254844 124.579062 125.254844 124.579062 
L 196.261371 131.572595 
C 196.49028 129.248445 196.604941 126.914458 196.604941 124.579062 
C 196.604941 122.243667 196.49028 119.90968 196.261371 117.58553 
L 125.254844 124.579062 
z
" clip-path="url(#p5d20a0e136)" style="fill: none; stroke: #292929; stroke-width: 0.5; stroke-linejoin: miter"/>
   </g>
   <g id="patch_140">
    <path d="M 125.254844 124.579062 
C 125.254844 124.579062 125.254844 124.579062 125.254844 124.579062 
C 125.254844 124.579062 125.254844 124.579062 125.254844 124.579062 
L 170.703037 138.365621 
C 171.154292 136.878034 171.532238 135.369188 171.835511 133.844533 
C 172.138783 132.319878 172.367017 130.781253 172.519387 129.234214 
L 125.254844 124.579062 
z
" clip-path="url(#p5d20a0e136)" style="fill: none; stroke: #292929; stroke-width: 0.5; stroke-linejoin: miter"/>
   </g>
   <g id="patch_141">
    <path d="M 125.254844 124.579062 
C 125.254844 124.579062 125.254844 124.579062 125.254844 124.579062 
C 125.254844 124.579062 125.254844 124.579062 125.254844 124.579062 
L 173.29083 150.254832 
C 174.131237 148.682543 174.893941 147.069939 175.576189 145.422846 
C 176.258438 143.775754 176.859407 142.096157 177.376926 140.390123 
L 125.254844 124.579062 
z
" clip-path="url(#p5d20a0e136)" style="fill: none; stroke: #292929; stroke-width: 0.5; stroke-linejoin: miter"/>
   </g>
   <g id="patch_142">
    <path d="M 125.254844 124.579062 
C 125.254844 124.579062 125.254844 124.579062 125.254844 124.579062 
C 125.254844 124.579062 125.254844 124.579062 125.254844 124.579062 
L 160.321135 153.357224 
C 161.263087 152.209452 162.148119 151.016125 162.973035 149.781552 
C 163.79795 148.546979 164.561753 147.27265 165.261687 145.963166 
L 125.254844 124.579062 
z
" clip-path="url(#p5d20a0e136)" style="fill: none; stroke: #292929; stroke-width: 0.5; stroke-linejoin: miter"/>
   </g>
   <g id="patch_143">
    <path d="M 125.254844 124.579062 
C 125.254844 124.579062 125.254844 124.579062 125.254844 124.579062 
C 125.254844 124.579062 125.254844 124.579062 125.254844 124.579062 
L 143.162684 146.399829 
C 143.87691 145.813678 144.561927 145.192815 145.215262 144.53948 
C 145.868596 143.886146 146.48946 143.201129 147.07561 142.486902 
L 125.254844 124.579062 
z
" clip-path="url(#p5d20a0e136)" style="fill: none; stroke: #292929; stroke-width: 0.5; stroke-linejoin: miter"/>
   </g>
   <g id="patch_144">
    <path d="M 125.254844 124.579062 
C 125.254844 124.579062 125.254844 124.579062 125.254844 124.579062 
C 125.254844 124.579062 125.254844 124.579062 125.254844 124.579062 
L 131.709553 136.654975 
C 132.104816 136.443703 132.489468 136.213151 132.862119 135.964154 
C 133.23477 135.715156 133.594971 135.448013 133.941422 135.163688 
L 125.254844 124.579062 
z
" clip-path="url(#p5d20a0e136)" style="fill: none; stroke: #292929; stroke-width: 0.5; stroke-linejoin: miter"/>
   </g>
   <g id="patch_145">
    <path d="M 125.254844 124.579062 
C 125.254844 124.579062 125.254844 124.579062 125.254844 124.579062 
C 125.254844 124.579062 125.254844 124.579062 125.254844 124.579062 
L 127.69877 132.635609 
C 127.962473 132.555616 128.22209 132.462724 128.476682 132.357268 
C 128.731274 132.251812 128.980535 132.133921 129.223565 132.004018 
L 125.254844 124.579062 
z
" clip-path="url(#p5d20a0e136)" style="fill: none; stroke: #292929; stroke-width: 0.5; stroke-linejoin: miter"/>
   </g>
   <g id="patch_146">
    <path d="M 125.254844 124.579062 
C 125.254844 124.579062 125.254844 124.579062 125.254844 124.579062 
C 125.254844 124.579062 125.254844 124.579062 125.254844 124.579062 
L 125.711666 129.217255 
C 125.863481 129.202302 126.01447 129.179905 126.164088 129.150144 
C 126.313707 129.120383 126.461774 129.083294 126.607754 129.039011 
L 125.254844 124.579062 
z
" clip-path="url(#p5d20a0e136)" style="fill: none; stroke: #292929; stroke-width: 0.5; stroke-linejoin: miter"/>
   </g>
   <g id="patch_147">
    <path d="M 125.254844 124.579062 
C 125.254844 124.579062 125.254844 124.579062 125.254844 124.579062 
C 125.254844 124.579062 125.254844 124.579062 125.254844 124.579062 
L 124.409902 133.157903 
C 124.6907 133.185559 124.972687 133.199412 125.254844 133.199412 
C 125.537001 133.199412 125.818988 133.185559 126.099786 133.157903 
L 125.254844 124.579062 
z
" clip-path="url(#p5d20a0e136)" style="fill: none; stroke: #292929; stroke-width: 0.5; stroke-linejoin: miter"/>
   </g>
   <g id="patch_148">
    <path d="M 125.254844 124.579062 
C 125.254844 124.579062 125.254844 124.579062 125.254844 124.579062 
C 125.254844 124.579062 125.254844 124.579062 125.254844 124.579062 
L 123.526727 130.275901 
C 123.713193 130.332465 123.902323 130.37984 124.093436 130.417854 
C 124.284548 130.455869 124.477412 130.484478 124.67133 130.503577 
L 125.254844 124.579062 
z
" clip-path="url(#p5d20a0e136)" style="fill: none; stroke: #292929; stroke-width: 0.5; stroke-linejoin: miter"/>
   </g>
   <g id="patch_149">
    <path d="M 125.254844 124.579062 
C 125.254844 124.579062 125.254844 124.579062 125.254844 124.579062 
C 125.254844 124.579062 125.254844 124.579062 125.254844 124.579062 
L 121.655363 131.313218 
C 121.875782 131.431034 122.101852 131.537958 122.332758 131.633602 
C 122.563663 131.729246 122.799126 131.813496 123.038294 131.886047 
L 125.254844 124.579062 
z
" clip-path="url(#p5d20a0e136)" style="fill: none; stroke: #292929; stroke-width: 0.5; stroke-linejoin: miter"/>
   </g>
   <g id="patch_150">
    <path d="M 125.254844 124.579062 
C 125.254844 124.579062 125.254844 124.579062 125.254844 124.579062 
C 125.254844 124.579062 125.254844 124.579062 125.254844 124.579062 
L 117.315455 134.253236 
C 117.632105 134.513104 117.961323 134.757269 118.30192 134.984848 
C 118.642517 135.212428 118.994082 135.423148 119.355346 135.616247 
L 125.254844 124.579062 
z
" clip-path="url(#p5d20a0e136)" style="fill: none; stroke: #292929; stroke-width: 0.5; stroke-linejoin: miter"/>
   </g>
   <g id="patch_151">
    <path d="M 125.254844 124.579062 
C 125.254844 124.579062 125.254844 124.579062 125.254844 124.579062 
C 125.254844 124.579062 125.254844 124.579062 125.254844 124.579062 
L 118.241586 130.334695 
C 118.429976 130.564249 118.629523 130.784416 118.839507 130.994399 
C 119.04949 131.204383 119.269657 131.40393 119.499211 131.592321 
L 125.254844 124.579062 
z
" clip-path="url(#p5d20a0e136)" style="fill: none; stroke: #292929; stroke-width: 0.5; stroke-linejoin: miter"/>
   </g>
   <g id="patch_152">
    <path d="M 125.254844 124.579062 
C 125.254844 124.579062 125.254844 124.579062 125.254844 124.579062 
C 125.254844 124.579062 125.254844 124.579062 125.254844 124.579062 
L 118.859308 127.997548 
C 118.9712 128.206883 119.093302 128.410599 119.225174 128.607959 
C 119.357046 128.805319 119.498528 128.996086 119.64911 129.17957 
L 125.254844 124.579062 
z
" clip-path="url(#p5d20a0e136)" style="fill: none; stroke: #292929; stroke-width: 0.5; stroke-linejoin: miter"/>
   </g>
   <g id="patch_153">
    <path d="M 125.254844 124.579062 
C 125.254844 124.579062 125.254844 124.579062 125.254844 124.579062 
C 125.254844 124.579062 125.254844 124.579062 125.254844 124.579062 
L 110.712689 128.990377 
C 110.857078 129.466363 111.02475 129.934974 111.215098 130.394516 
C 111.405446 130.854057 111.618242 131.303977 111.852717 131.742648 
L 125.254844 124.579062 
z
" clip-path="url(#p5d20a0e136)" style="fill: none; stroke: #292929; stroke-width: 0.5; stroke-linejoin: miter"/>
   </g>
   <g id="patch_154">
    <path d="M 125.254844 124.579062 
C 125.254844 124.579062 125.254844 124.579062 125.254844 124.579062 
C 125.254844 124.579062 125.254844 124.579062 125.254844 124.579062 
L 113.696039 125.717505 
C 113.733302 126.095842 113.789118 126.472122 113.863285 126.844984 
C 113.937452 127.217847 114.029881 127.586844 114.140238 127.950641 
L 125.254844 124.579062 
z
" clip-path="url(#p5d20a0e136)" style="fill: none; stroke: #292929; stroke-width: 0.5; stroke-linejoin: miter"/>
   </g>
   <g id="patch_155">
    <path d="M 125.254844 124.579062 
C 125.254844 124.579062 125.254844 124.579062 125.254844 124.579062 
C 125.254844 124.579062 125.254844 124.579062 125.254844 124.579062 
L 107.835198 122.863377 
C 107.779041 123.433548 107.750911 124.006133 107.750911 124.579062 
C 107.750911 125.151992 107.779041 125.724577 107.835198 126.294748 
L 125.254844 124.579062 
z
" clip-path="url(#p5d20a0e136)" style="fill: none; stroke: #292929; stroke-width: 0.5; stroke-linejoin: miter"/>
   </g>
   <g id="patch_156">
    <path d="M 125.254844 124.579062 
C 125.254844 124.579062 125.254844 124.579062 125.254844 124.579062 
C 125.254844 124.579062 125.254844 124.579062 125.254844 124.579062 
L 104.136596 118.172912 
C 103.926913 118.864144 103.751294 119.565254 103.610374 120.27371 
C 103.469453 120.982166 103.363401 121.697113 103.292599 122.41597 
L 125.254844 124.579062 
z
" clip-path="url(#p5d20a0e136)" style="fill: none; stroke: #292929; stroke-width: 0.5; stroke-linejoin: miter"/>
   </g>
   <g id="patch_157">
    <path d="M 125.254844 124.579062 
C 125.254844 124.579062 125.254844 124.579062 125.254844 124.579062 
C 125.254844 124.579062 125.254844 124.579062 125.254844 124.579062 
L 106.045077 114.311228 
C 105.708996 114.939993 105.403987 115.584879 105.131154 116.243557 
C 104.85832 116.902236 104.61799 117.573912 104.411032 118.256161 
L 125.254844 124.579062 
z
" clip-path="url(#p5d20a0e136)" style="fill: none; stroke: #292929; stroke-width: 0.5; stroke-linejoin: miter"/>
   </g>
   <g id="patch_158">
    <path d="M 125.254844 124.579062 
C 125.254844 124.579062 125.254844 124.579062 125.254844 124.579062 
C 125.254844 124.579062 125.254844 124.579062 125.254844 124.579062 
L 97.446392 101.757256 
C 96.699401 102.667468 95.997548 103.613807 95.34337 104.592854 
C 94.689191 105.571902 94.083475 106.582477 93.528411 107.620931 
L 125.254844 124.579062 
z
" clip-path="url(#p5d20a0e136)" style="fill: none; stroke: #292929; stroke-width: 0.5; stroke-linejoin: miter"/>
   </g>
   <g id="patch_159">
    <path d="M 125.254844 124.579062 
C 125.254844 124.579062 125.254844 124.579062 125.254844 124.579062 
C 125.254844 124.579062 125.254844 124.579062 125.254844 124.579062 
L 100.554753 94.481915 
C 99.569629 95.290386 98.624792 96.146737 97.723655 97.047873 
C 96.822518 97.94901 95.966167 98.893848 95.157697 99.878972 
L 125.254844 124.579062 
z
" clip-path="url(#p5d20a0e136)" style="fill: none; stroke: #292929; stroke-width: 0.5; stroke-linejoin: miter"/>
   </g>
   <g id="patch_160">
    <path d="M 125.254844 124.579062 
C 125.254844 124.579062 125.254844 124.579062 125.254844 124.579062 
C 125.254844 124.579062 125.254844 124.579062 125.254844 124.579062 
L 97.560801 72.767153 
C 95.86492 73.673621 94.214566 74.662805 92.615701 75.731133 
C 91.016835 76.799461 89.471385 77.945644 87.984933 79.165544 
L 125.254844 124.579062 
z
" clip-path="url(#p5d20a0e136)" style="fill: none; stroke: #292929; stroke-width: 0.5; stroke-linejoin: miter"/>
   </g>
   <g id="patch_161">
    <path d="M 125.254844 124.579062 
C 125.254844 124.579062 125.254844 124.579062 125.254844 124.579062 
C 125.254844 124.579062 125.254844 124.579062 125.254844 124.579062 
L 112.255929 81.727382 
C 110.853329 82.152856 109.472465 82.646937 108.118323 83.207841 
C 106.764181 83.768745 105.438394 84.395795 104.145751 85.086728 
L 125.254844 124.579062 
z
" clip-path="url(#p5d20a0e136)" style="fill: none; stroke: #292929; stroke-width: 0.5; stroke-linejoin: miter"/>
   </g>
   <g id="patch_162">
    <path d="M 125.254844 124.579062 
C 125.254844 124.579062 125.254844 124.579062 125.254844 124.579062 
C 125.254844 124.579062 125.254844 124.579062 125.254844 124.579062 
L 119.850669 69.709554 
C 118.054708 69.88644 116.268514 70.151397 114.498539 70.503467 
C 112.728564 70.855537 110.976942 71.294296 109.249998 71.818158 
L 125.254844 124.579062 
z
" clip-path="url(#p5d20a0e136)" style="fill: none; stroke: #292929; stroke-width: 0.5; stroke-linejoin: miter"/>
   </g>
   <g id="PathCollection_1">
    <defs>
     <path id="ma2f47a6868" d="M 0.193618 7.414054 
L 0.193618 7.414054 
C 0.054922 7.414054 -0.078235 7.358899 -0.176308 7.260826 
C -0.274381 7.162753 -0.329536 7.029596 -0.329536 6.890901 
L -0.329536 5.365008 
L -1.528416 6.56393 
L -1.528416 6.56393 
C -1.577018 6.612704 -1.634775 6.651408 -1.698366 6.677814 
C -1.761958 6.704221 -1.830141 6.717815 -1.898997 6.717815 
C -1.967853 6.717815 -2.036037 6.704221 -2.099628 6.677814 
C -2.163219 6.651408 -2.220976 6.612704 -2.269578 6.56393 
L -2.269578 6.56393 
C -2.318353 6.515327 -2.357056 6.457571 -2.383463 6.393979 
C -2.409869 6.330388 -2.423463 6.262205 -2.423463 6.193348 
C -2.423463 6.124492 -2.409869 6.056309 -2.383463 5.992718 
C -2.357056 5.929126 -2.318353 5.87137 -2.269578 5.822767 
L -0.329536 3.884106 
L -0.329536 0.820937 
L -2.98067 2.351538 
L -3.691824 5.001416 
L -3.691824 5.001416 
C -3.727584 5.135411 -3.815199 5.249836 -3.93523 5.319305 
C -4.055261 5.388775 -4.198123 5.407741 -4.332122 5.371997 
L -4.332122 5.371997 
C -4.466126 5.336237 -4.580558 5.248616 -4.650029 5.128576 
C -4.719499 5.008535 -4.73846 4.865662 -4.702703 4.731657 
L -4.262647 3.092721 
L -5.585535 3.855668 
L -5.585535 3.855668 
C -5.645013 3.890144 -5.710708 3.912561 -5.778854 3.921634 
C -5.847001 3.930706 -5.916272 3.926258 -5.982698 3.908543 
C -6.049125 3.890828 -6.111412 3.860192 -6.165991 3.818391 
C -6.220571 3.77659 -6.266379 3.724437 -6.300791 3.664922 
L -6.300791 3.664922 
C -6.335212 3.605364 -6.35755 3.539597 -6.366524 3.471396 
C -6.375498 3.403194 -6.370933 3.333888 -6.35309 3.267452 
C -6.335248 3.201017 -6.304476 3.138749 -6.26254 3.08422 
C -6.220605 3.029692 -6.168323 2.983966 -6.108695 2.949666 
L -4.785807 2.186762 
L -6.424743 1.746706 
L -6.424743 1.746706 
C -6.558747 1.710946 -6.673179 1.623325 -6.74265 1.503284 
C -6.81212 1.383244 -6.831081 1.240371 -6.795324 1.106366 
L -6.795324 1.106366 
C -6.777471 1.039969 -6.746703 0.977739 -6.704784 0.923241 
C -6.662864 0.868744 -6.61061 0.823041 -6.551015 0.788752 
C -6.491421 0.754464 -6.425647 0.732257 -6.357465 0.723406 
C -6.289282 0.714554 -6.220019 0.71923 -6.153645 0.737166 
L -3.505232 1.44698 
L -0.852424 -0.08496 
L -3.503767 -1.615666 
L -6.153645 -0.905851 
L -6.153645 -0.905851 
C -6.22011 -0.887939 -6.289462 -0.883321 -6.357716 -0.892262 
C -6.42597 -0.901202 -6.491793 -0.923527 -6.551403 -0.957953 
C -6.611013 -0.992379 -6.663247 -1.038234 -6.705103 -1.092883 
C -6.746958 -1.147533 -6.777619 -1.209911 -6.795324 -1.276432 
L -6.795324 -1.276432 
C -6.831068 -1.410431 -6.812101 -1.553293 -6.742632 -1.673324 
C -6.673162 -1.793355 -6.558738 -1.88097 -6.424743 -1.91673 
L -4.785807 -2.355447 
L -6.108695 -3.119732 
L -6.108695 -3.119732 
C -6.228699 -3.188976 -6.316415 -3.303132 -6.352417 -3.436921 
C -6.388419 -3.57071 -6.369839 -3.713469 -6.300791 -3.833586 
L -6.300791 -3.833586 
C -6.266491 -3.893214 -6.220765 -3.945496 -6.166237 -3.987431 
C -6.111708 -4.029367 -6.04944 -4.060139 -5.983005 -4.077981 
C -5.91657 -4.095823 -5.847263 -4.100389 -5.779062 -4.091415 
C -5.71086 -4.082441 -5.645094 -4.060102 -5.585535 -4.025682 
L -4.262647 -3.261396 
L -4.702703 -4.900332 
L -4.702703 -4.900332 
C -4.73846 -5.034337 -4.719499 -5.17721 -4.650029 -5.29725 
C -4.580558 -5.417291 -4.466126 -5.504912 -4.332122 -5.540672 
L -4.332122 -5.540672 
C -4.19831 -5.576464 -4.055613 -5.557686 -3.935617 -5.488496 
C -3.81562 -5.419305 -3.727882 -5.305212 -3.691824 -5.171472 
L -2.982009 -2.521594 
L -0.329411 -0.990302 
L -0.329411 -4.051588 
L -2.269453 -5.991589 
L -2.269453 -5.991589 
C -2.318227 -6.040191 -2.356931 -6.097947 -2.383337 -6.161539 
C -2.409744 -6.22513 -2.423338 -6.293314 -2.423338 -6.36217 
C -2.423338 -6.431026 -2.409744 -6.499209 -2.383337 -6.5628 
C -2.356931 -6.626392 -2.318227 -6.684149 -2.269453 -6.732751 
L -2.269453 -6.732751 
C -2.22085 -6.781526 -2.163094 -6.820229 -2.099502 -6.846635 
C -2.035911 -6.873042 -1.967728 -6.886636 -1.898871 -6.886636 
C -1.830015 -6.886636 -1.761832 -6.873042 -1.698241 -6.846635 
C -1.634649 -6.820229 -1.576893 -6.781526 -1.52829 -6.732751 
L -0.329411 -5.533829 
L -0.329411 -7.059722 
L -0.329411 -7.059722 
C -0.329411 -7.198418 -0.274255 -7.331575 -0.176182 -7.429647 
C -0.07811 -7.52772 0.055047 -7.582875 0.193743 -7.582875 
L 0.193743 -7.582875 
C 0.332439 -7.582875 0.465596 -7.52772 0.563669 -7.429647 
C 0.661741 -7.331575 0.716897 -7.198418 0.716897 -7.059722 
L 0.716897 -5.533829 
L 1.915777 -6.732751 
L 1.915777 -6.732751 
C 1.964379 -6.781526 2.022136 -6.820229 2.085727 -6.846635 
C 2.149318 -6.873042 2.217502 -6.886636 2.286358 -6.886636 
C 2.355214 -6.886636 2.423397 -6.873042 2.486989 -6.846635 
C 2.55058 -6.820229 2.608337 -6.781526 2.656939 -6.732751 
L 2.656939 -6.732751 
C 2.705714 -6.684149 2.744417 -6.626392 2.770823 -6.5628 
C 2.79723 -6.499209 2.810824 -6.431026 2.810824 -6.36217 
C 2.810824 -6.293314 2.79723 -6.22513 2.770823 -6.161539 
C 2.744417 -6.097947 2.705714 -6.040191 2.656939 -5.991589 
L 0.716897 -4.051588 
L 0.716897 -0.991139 
L 3.369495 -2.522954 
L 4.07931 -5.171367 
L 4.07931 -5.171367 
C 4.115368 -5.305107 4.203106 -5.4192 4.323103 -5.488391 
C 4.4431 -5.557582 4.585797 -5.576359 4.719608 -5.540567 
L 4.719608 -5.540567 
C 4.853612 -5.504807 4.968045 -5.417186 5.037515 -5.297146 
C 5.106986 -5.177105 5.125946 -5.034232 5.090189 -4.900227 
L 4.650133 -3.262673 
L 5.973022 -4.025577 
L 5.973022 -4.025577 
C 6.03258 -4.059998 6.098346 -4.082336 6.166548 -4.09131 
C 6.234749 -4.100284 6.304056 -4.095719 6.370491 -4.077876 
C 6.436926 -4.060034 6.499194 -4.029262 6.553723 -3.987327 
C 6.608252 -3.945391 6.653978 -3.893109 6.688277 -3.833481 
L 6.688277 -3.833481 
C 6.757325 -3.713365 6.775905 -3.570605 6.739903 -3.436816 
C 6.703901 -3.303027 6.616186 -3.188871 6.496181 -3.119628 
L 5.173293 -2.355342 
L 6.812229 -1.916625 
L 6.812229 -1.916625 
C 6.946224 -1.880865 7.060649 -1.79325 7.130118 -1.67322 
C 7.199588 -1.553189 7.218554 -1.410326 7.18281 -1.276327 
L 7.18281 -1.276327 
C 7.165106 -1.209806 7.134445 -1.147429 7.092589 -1.092779 
C 7.050733 -1.038129 6.998499 -0.992274 6.938889 -0.957848 
C 6.879279 -0.923422 6.813456 -0.901098 6.745202 -0.892157 
C 6.676949 -0.883217 6.607597 -0.887835 6.541131 -0.905746 
L 3.891253 -1.615561 
L 1.239492 -0.084604 
L 3.892718 1.447085 
L 6.541131 0.73727 
L 6.541131 0.73727 
C 6.674948 0.701466 6.817656 0.720237 6.937662 0.789429 
C 7.057669 0.858621 7.145413 0.972721 7.181471 1.10647 
L 7.181471 1.10647 
C 7.217274 1.240293 7.198497 1.383006 7.129297 1.503014 
C 7.060096 1.623021 6.945986 1.710762 6.812229 1.74681 
L 5.173293 2.186866 
L 6.496181 2.949771 
L 6.496181 2.949771 
C 6.555697 2.984183 6.607849 3.029991 6.649651 3.08457 
C 6.691452 3.13915 6.722088 3.201437 6.739803 3.267863 
C 6.757517 3.33429 6.761966 3.403561 6.752893 3.471707 
C 6.743821 3.539854 6.721404 3.605549 6.686927 3.665026 
L 6.686927 3.665026 
C 6.617458 3.784813 6.503196 3.87225 6.369416 3.907994 
C 6.235636 3.943739 6.092989 3.924946 5.973032 3.855772 
L 4.650144 3.091487 
L 5.08886 4.731783 
L 5.08886 4.731783 
C 5.124664 4.865606 5.105887 5.008319 5.036686 5.128326 
C 4.967486 5.248334 4.853376 5.336074 4.719619 5.372123 
L 4.719619 5.372123 
C 4.585619 5.407867 4.442757 5.3889 4.322726 5.319431 
C 4.202695 5.249961 4.115081 5.135537 4.07932 5.001542 
L 3.368166 2.351664 
L 0.717033 0.821063 
L 0.717033 3.884232 
L 2.657075 5.822893 
L 2.657075 5.822893 
C 2.70585 5.871495 2.744553 5.929252 2.770959 5.992843 
C 2.797366 6.056435 2.81096 6.124618 2.81096 6.193474 
C 2.81096 6.26233 2.797366 6.330514 2.770959 6.394105 
C 2.744553 6.457696 2.70585 6.515453 2.657075 6.564055 
L 2.657075 6.564055 
C 2.608473 6.61283 2.550716 6.651533 2.487125 6.67794 
C 2.423533 6.704346 2.35535 6.71794 2.286494 6.71794 
C 2.217638 6.71794 2.149454 6.704346 2.085863 6.67794 
C 2.022272 6.651533 1.964515 6.61283 1.915913 6.564055 
L 0.717033 5.365133 
L 0.717033 6.891026 
L 0.717033 6.891026 
C 0.717033 7.029722 0.661877 7.162879 0.563805 7.260952 
C 0.465732 7.359024 0.332575 7.41418 0.193879 7.41418 
L 0.193618 7.414054 
z
"/>
    </defs>
    <g clip-path="url(#p5d20a0e136)">
     <use xlink:href="#ma2f47a6868" x="177.842902" y="63.223138" style="fill: #9e2096; fill-opacity: 0.7"/>
    </g>
   </g>
   <g id="patch_163">
    <path d="M 125.254844 13.699062 
C 110.694216 13.699062 96.275171 16.567189 82.822905 22.1393 
C 69.370638 27.711411 57.146763 35.879144 46.850844 46.175063 
C 36.554925 56.470982 28.387192 68.694857 22.815081 82.147124 
C 17.24297 95.59939 14.374844 110.018434 14.374844 124.579063 
C 14.374844 139.139691 17.24297 153.558735 22.815081 167.011001 
C 28.387192 180.463268 36.554925 192.687143 46.850844 202.983062 
C 57.146763 213.278981 69.370638 221.446714 82.822905 227.018825 
C 96.275171 232.590936 110.694216 235.459063 125.254844 235.459063 
C 139.815472 235.459063 154.234516 232.590936 167.686783 227.018825 
C 181.139049 221.446714 193.362925 213.278981 203.658844 202.983062 
C 213.954763 192.687143 222.122495 180.463268 227.694606 167.011001 
C 233.266717 153.558735 236.134844 139.139691 236.134844 124.579062 
C 236.134844 110.018434 233.266717 95.59939 227.694606 82.147124 
C 222.122495 68.694857 213.954763 56.470982 203.658844 46.175063 
C 193.362925 35.879144 181.139049 27.711411 167.686783 22.1393 
C 154.234516 16.567189 139.815472 13.699062 125.254844 13.699062 
" style="fill: none; stroke: #000000; stroke-width: 0.8; stroke-linejoin: miter; stroke-linecap: square"/>
   </g>
  </g>
 </g>
 <defs>
  <clipPath id="p5d20a0e136">
   <path d="M 236.134844 124.579063 
C 236.134844 110.018434 233.266717 95.59939 227.694606 82.147124 
C 222.122495 68.694857 213.954763 56.470982 203.658844 46.175063 
C 193.362925 35.879144 181.139049 27.711411 167.686783 22.1393 
C 154.234516 16.567189 139.815472 13.699062 125.254844 13.699062 
C 110.694216 13.699062 96.275171 16.567189 82.822905 22.1393 
C 69.370638 27.711411 57.146763 35.879144 46.850844 46.175063 
C 36.554925 56.470982 28.387192 68.694857 22.815081 82.147124 
C 17.24297 95.59939 14.374844 110.018434 14.374844 124.579062 
C 14.374844 139.139691 17.24297 153.558735 22.815081 167.011001 
C 28.387192 180.463268 36.554925 192.687143 46.850844 202.983062 
C 57.146763 213.278981 69.370638 221.446714 82.822905 227.018825 
C 96.275171 232.590936 110.694216 235.459063 125.254844 235.459063 
C 139.815472 235.459063 154.234516 232.590936 167.686783 227.018825 
C 181.139049 221.446714 193.362925 213.278981 203.658844 202.983062 
C 213.954763 192.687143 222.122495 180.463268 227.694606 167.011001 
C 233.266717 153.558735 236.134844 139.139691 236.134844 124.579063 
M 125.254844 124.579063 
C 125.254844 124.579063 125.254844 124.579063 125.254844 124.579063 
C 125.254844 124.579063 125.254844 124.579063 125.254844 124.579063 
C 125.254844 124.579063 125.254844 124.579063 125.254844 124.579063 
C 125.254844 124.579063 125.254844 124.579063 125.254844 124.579063 
C 125.254844 124.579063 125.254844 124.579063 125.254844 124.579063 
C 125.254844 124.579063 125.254844 124.579063 125.254844 124.579063 
C 125.254844 124.579063 125.254844 124.579063 125.254844 124.579063 
C 125.254844 124.579063 125.254844 124.579063 125.254844 124.579063 
C 125.254844 124.579063 125.254844 124.579063 125.254844 124.579063 
C 125.254844 124.579063 125.254844 124.579063 125.254844 124.579063 
C 125.254844 124.579063 125.254844 124.579063 125.254844 124.579063 
C 125.254844 124.579063 125.254844 124.579063 125.254844 124.579063 
C 125.254844 124.579063 125.254844 124.579063 125.254844 124.579063 
C 125.254844 124.579063 125.254844 124.579063 125.254844 124.579063 
C 125.254844 124.579063 125.254844 124.579063 125.254844 124.579063 
C 125.254844 124.579063 125.254844 124.579063 125.254844 124.579063 
z
"/>
  </clipPath>
 </defs>
</svg>
