<?xml version="1.0" encoding="utf-8" standalone="no"?>
<!DOCTYPE svg PUBLIC "-//W3C//DTD SVG 1.1//EN"
  "http://www.w3.org/Graphics/SVG/1.1/DTD/svg11.dtd">
<svg xmlns:xlink="http://www.w3.org/1999/xlink" width="248.410469pt" height="249.158125pt" viewBox="0 0 248.410469 249.158125" xmlns="http://www.w3.org/2000/svg" version="1.1">
 <title>Ski Rose for Zauchensee-Flachauwinkl</title>
 <metadata>
  <rdf:RDF xmlns:dc="http://purl.org/dc/elements/1.1/" xmlns:cc="http://creativecommons.org/ns#" xmlns:rdf="http://www.w3.org/1999/02/22-rdf-syntax-ns#">
   <cc:Work>
    <dc:type rdf:resource="http://purl.org/dc/dcmitype/StillImage"/>
    <dc:title>Ski Rose for Zauchensee-Flachauwinkl</dc:title>
    <dc:date>2026-05-30T10:57:44.426591</dc:date>
    <dc:description>A 32-bin stacked histogram of downhill ski run orientations colored by difficulty.</dc:description>
    <dc:format>image/svg+xml</dc:format>
    <dc:source>https://openskimap.org/?obj=6071fe4a9ab2ea3859cfdda2fa3e1f5d556889dc</dc:source>
    <dc:creator>
     <cc:Agent>
      <dc:title>https://github.com/dhimmel/openskistats</dc:title>
     </cc:Agent>
    </dc:creator>
    <dc:rights>
     <cc:Agent>
      <dc:title>https://creativecommons.org/licenses/by/4.0/</dc:title>
     </cc:Agent>
    </dc:rights>
   </cc:Work>
  </rdf:RDF>
 </metadata>
 <defs>
  <style type="text/css">*{stroke-linejoin: round; stroke-linecap: butt}</style>
 </defs>
 <g id="figure_1">
  <g id="patch_1">
   <path d="M 0 249.158125 
L 248.410469 249.158125 
L 248.410469 0 
L 0 0 
z
" style="fill: #ffffff"/>
  </g>
  <g id="axes_1">
   <g id="patch_2">
    <path d="M 236.134844 124.579063 
C 236.134844 110.018434 233.266717 95.59939 227.694606 82.147124 
C 222.122495 68.694857 213.954763 56.470982 203.658844 46.175063 
C 193.362925 35.879144 181.139049 27.711411 167.686783 22.1393 
C 154.234516 16.567189 139.815472 13.699063 125.254844 13.699063 
C 110.694216 13.699063 96.275171 16.567189 82.822905 22.1393 
C 69.370638 27.711411 57.146763 35.879144 46.850844 46.175063 
C 36.554925 56.470982 28.387192 68.694857 22.815081 82.147124 
C 17.24297 95.59939 14.374844 110.018434 14.374844 124.579062 
C 14.374844 139.139691 17.24297 153.558735 22.815081 167.011001 
C 28.387192 180.463268 36.554925 192.687143 46.850844 202.983062 
C 57.146763 213.278981 69.370638 221.446714 82.822905 227.018825 
C 96.275171 232.590936 110.694216 235.459063 125.254844 235.459063 
C 139.815472 235.459063 154.234516 232.590936 167.686783 227.018825 
C 181.139049 221.446714 193.362925 213.278981 203.658844 202.983062 
C 213.954763 192.687143 222.122495 180.463268 227.694606 167.011001 
C 233.266717 153.558735 236.134844 139.139691 236.134844 124.579063 
M 125.254844 124.579063 
C 125.254844 124.579063 125.254844 124.579063 125.254844 124.579063 
C 125.254844 124.579063 125.254844 124.579063 125.254844 124.579063 
C 125.254844 124.579063 125.254844 124.579063 125.254844 124.579063 
C 125.254844 124.579063 125.254844 124.579063 125.254844 124.579063 
C 125.254844 124.579063 125.254844 124.579063 125.254844 124.579063 
C 125.254844 124.579063 125.254844 124.579063 125.254844 124.579063 
C 125.254844 124.579063 125.254844 124.579063 125.254844 124.579063 
C 125.254844 124.579063 125.254844 124.579063 125.254844 124.579063 
C 125.254844 124.579063 125.254844 124.579063 125.254844 124.579063 
C 125.254844 124.579063 125.254844 124.579063 125.254844 124.579063 
C 125.254844 124.579063 125.254844 124.579063 125.254844 124.579063 
C 125.254844 124.579063 125.254844 124.579063 125.254844 124.579063 
C 125.254844 124.579063 125.254844 124.579063 125.254844 124.579063 
C 125.254844 124.579063 125.254844 124.579063 125.254844 124.579063 
C 125.254844 124.579063 125.254844 124.579063 125.254844 124.579063 
C 125.254844 124.579063 125.254844 124.579063 125.254844 124.579063 
z
" style="fill: #ffffff"/>
   </g>
   <g id="FillBetweenPolyCollection_1">
    <defs>
     <path id="madde644239" d="M 235.421418 -137.130958 
L 234.706382 -137.04949 
L 233.976905 -135.047806 
L 232.982985 -133.057451 
L 232.123135 -131.115407 
L 231.012083 -129.196523 
L 230.058534 -127.323444 
L 228.860511 -125.483215 
L 227.831064 -123.683893 
L 226.767996 -121.920847 
L 225.466519 -120.203726 
L 224.341886 -118.518639 
L 222.982733 -116.887711 
L 221.803736 -115.282462 
L 220.599704 -113.715888 
L 219.167539 -112.215222 
L 217.918548 -110.730379 
L 216.648829 -109.284955 
L 215.359734 -107.879108 
L 213.852592 -106.553647 
L 212.530189 -105.230584 
L 211.192533 -103.947249 
L 209.840939 -102.703611 
L 208.476717 -101.499594 
L 207.101167 -100.335077 
L 205.715582 -99.209889 
L 204.321247 -98.123814 
L 203.10458 -97.011025 
L 201.694165 -95.999571 
L 200.27868 -95.026387 
L 198.85937 -94.09107 
L 197.612612 -93.117009 
L 196.186485 -92.253651 
L 194.929738 -91.345843 
L 193.501168 -90.5527 
L 192.238356 -89.709653 
L 190.811594 -88.984651 
L 189.546524 -88.20458 
L 188.280178 -87.454304 
L 187.013377 -86.733384 
L 185.598774 -86.135739 
L 184.336737 -85.47361 
L 183.076668 -84.839224 
L 181.81931 -84.232021 
L 180.565383 -83.651416 
L 179.315588 -83.096794 
L 178.0706 -82.567513 
L 176.95494 -81.960792 
L 175.7178 -81.479626 
L 174.487293 -81.021871 
L 173.263989 -80.586786 
L 172.157806 -80.069813 
L 170.946674 -79.677826 
L 169.744251 -79.306313 
L 168.649307 -78.850839 
L 167.461726 -78.518333 
L 166.375139 -78.101024 
L 165.203885 -77.804745 
L 164.127001 -77.423365 
L 163.053726 -77.059354 
L 161.907288 -76.812667 
L 160.845368 -76.481229 
L 159.787791 -76.165655 
L 158.734764 -75.865476 
L 157.623174 -75.67585 
L 156.583008 -75.403695 
L 155.547843 -75.145381 
L 154.517794 -74.900432 
L 153.492954 -74.668372 
L 152.473395 -74.448727 
L 151.459168 -74.241025 
L 150.450298 -74.044798 
L 149.446794 -73.859585 
L 148.448638 -73.684926 
L 147.455793 -73.520374 
L 146.468202 -73.365486 
L 145.485784 -73.219829 
L 144.508439 -73.082983 
L 143.536047 -72.954537 
L 142.568468 -72.834094 
L 141.605543 -72.721269 
L 140.647095 -72.615695 
L 139.707574 -72.4642 
L 138.755611 -72.37547 
L 137.807601 -72.293065 
L 136.863304 -72.21668 
L 135.922464 -72.146032 
L 134.991558 -72.044454 
L 134.05553 -71.988234 
L 133.122241 -71.937078 
L 132.191387 -71.890783 
L 131.26522 -71.82667 
L 130.337517 -71.793482 
L 129.411423 -71.764718 
L 128.486603 -71.740261 
L 127.56307 -71.711983 
L 126.639533 -71.699895 
L 125.716383 -71.691932 
L 124.793305 -71.691981 
L 123.870163 -71.700235 
L 122.946992 -71.720559 
L 122.023135 -71.741087 
L 121.098352 -71.765833 
L 120.174087 -71.813384 
L 119.247213 -71.850766 
L 118.318549 -71.892671 
L 117.387772 -71.939255 
L 116.460021 -72.023275 
L 115.525368 -72.083509 
L 114.587821 -72.148971 
L 113.647098 -72.219905 
L 112.702929 -72.296574 
L 111.767816 -72.428594 
L 110.817863 -72.520991 
L 109.863853 -72.619948 
L 108.905573 -72.725801 
L 107.942828 -72.838902 
L 106.975441 -72.959621 
L 106.028363 -73.155504 
L 105.053691 -73.29545 
L 104.074046 -73.444094 
L 103.089324 -73.601856 
L 102.099439 -73.769165 
L 101.10433 -73.946458 
L 100.103956 -74.134185 
L 99.098295 -74.332799 
L 98.087349 -74.542761 
L 97.071141 -74.764537 
L 96.049717 -74.998597 
L 94.966856 -75.153558 
L 93.932038 -75.412107 
L 92.892233 -75.684491 
L 91.847577 -75.971188 
L 90.79823 -76.272672 
L 89.671281 -76.490637 
L 88.609777 -76.822282 
L 87.54417 -77.170248 
L 86.474707 -77.534994 
L 85.314607 -77.815053 
L 84.234878 -78.214426 
L 83.057831 -78.529104 
L 81.969076 -78.965381 
L 80.776444 -79.317514 
L 79.6801 -79.792886 
L 78.473472 -80.185198 
L 77.25861 -80.598617 
L 76.152346 -81.136842 
L 74.926308 -81.594432 
L 73.693616 -82.075266 
L 72.454868 -82.580065 
L 71.210687 -83.109523 
L 69.961725 -83.664307 
L 68.846171 -84.343147 
L 67.593111 -84.949252 
L 66.193014 -85.48689 
L 64.931908 -86.149114 
L 63.669622 -86.83959 
L 62.406941 -87.558818 
L 61.144664 -88.307268 
L 59.723262 -88.998317 
L 58.461364 -89.808578 
L 57.202455 -90.649393 
L 55.778271 -91.440437 
L 54.525304 -92.345754 
L 53.103427 -93.206734 
L 51.682968 -94.104594 
L 50.44512 -95.110728 
L 49.033668 -96.081132 
L 47.627209 -97.089675 
L 46.226999 -98.136715 
L 45.023388 -99.282182 
L 43.64153 -100.404097 
L 42.269625 -101.565224 
L 40.908966 -102.765735 
L 39.560853 -104.005755 
L 38.226592 -105.285364 
L 36.907498 -106.604592 
L 35.404045 -107.926201 
L 34.118074 -109.327998 
L 32.851383 -110.769273 
L 31.605321 -112.249869 
L 30.176426 -113.746245 
L 28.975097 -115.308377 
L 27.798679 -116.909096 
L 26.442379 -118.535433 
L 25.320012 -120.215813 
L 24.227207 -121.933561 
L 22.959713 -123.686346 
L 21.93176 -125.480749 
L 20.734999 -127.316011 
L 19.781823 -129.184114 
L 18.670035 -131.098069 
L 17.80791 -133.03532 
L 16.808227 -135.021284 
L 16.07046 -137.019052 
L 15.407507 -139.040739 
L 15.407507 -139.040739 
L 15.407507 -139.040739 
L 15.101547 -137.129445 
L 14.933957 -135.201756 
L 14.79929 -133.272103 
L 14.592228 -131.347478 
L 14.523307 -129.413706 
L 14.486998 -127.479621 
L 14.379217 -125.546659 
L 14.408064 -123.611717 
L 14.468781 -121.678027 
L 14.560984 -119.746064 
L 14.584769 -117.810191 
L 14.740445 -115.881391 
L 14.926659 -113.955667 
L 15.14306 -112.033409 
L 15.472326 -110.12592 
L 15.658543 -108.199786 
L 15.967985 -106.290714 
L 16.307058 -104.386784 
L 16.675792 -102.488405 
L 17.07428 -100.596009 
L 17.502656 -98.710051 
L 17.961072 -96.831006 
L 18.449674 -94.959367 
L 18.968607 -93.095645 
L 19.518031 -91.240373 
L 20.187383 -89.423982 
L 20.797917 -87.588925 
L 21.439308 -85.764024 
L 22.111803 -83.949938 
L 22.815712 -82.147385 
L 23.616189 -80.385317 
L 24.38394 -78.609543 
L 25.184966 -76.848179 
L 26.097695 -75.141132 
L 26.956573 -73.408222 
L 27.863014 -71.699614 
L 28.805646 -70.010732 
L 29.72791 -68.309398 
L 30.741831 -66.661414 
L 31.75517 -65.013201 
L 32.797302 -63.38275 
L 33.912145 -61.800965 
L 34.997612 -60.199205 
L 36.667472 -59.027856 
L 38.419259 -57.947775 
L 40.24924 -56.962552 
L 42.096063 -56.028253 
L 43.889442 -55.086444 
L 45.742913 -54.232848 
L 47.542316 -53.368651 
L 49.398235 -52.593829 
L 51.195133 -51.800787 
L 52.989462 -51.041275 
L 54.780165 -50.314247 
L 56.566329 -49.618703 
L 58.347156 -48.953678 
L 60.121937 -48.318227 
L 61.890045 -47.711415 
L 63.650918 -47.132313 
L 65.404056 -46.579998 
L 67.110047 -46.00088 
L 68.848215 -45.499885 
L 70.545662 -44.976709 
L 72.267406 -44.523777 
L 73.947566 -44.042769 
L 75.624943 -43.590426 
L 77.292191 -43.154636 
L 78.979989 -42.788534 
L 80.635413 -42.400295 
L 82.280491 -42.026098 
L 83.921706 -41.677614 
L 85.552603 -41.341584 
L 87.179409 -41.030147 
L 88.780687 -40.694246 
L 90.391618 -40.41179 
L 91.998285 -40.15237 
L 93.595281 -39.901715 
L 95.174972 -39.636126 
L 96.762193 -39.423507 
L 98.332005 -39.190727 
L 99.905125 -38.999847 
L 101.465646 -38.797988 
L 103.029893 -38.641556 
L 104.581658 -38.469046 
L 106.133971 -38.33038 
L 107.677906 -38.185651 
L 109.222909 -38.078485 
L 110.759834 -37.960298 
L 112.293959 -37.85576 
L 113.825508 -37.764639 
L 115.355685 -37.695258 
L 116.882469 -37.628625 
L 118.407463 -37.574837 
L 119.931614 -37.545027 
L 121.453536 -37.514812 
L 122.974503 -37.496375 
L 124.494823 -37.489317 
L 126.014864 -37.489399 
L 127.53518 -37.496549 
L 129.056135 -37.515175 
L 130.578044 -37.545511 
L 132.102187 -37.575312 
L 133.627164 -37.629191 
L 135.153928 -37.695915 
L 136.68405 -37.765625 
L 138.215564 -37.856861 
L 139.749651 -37.961513 
L 141.290916 -38.056161 
L 142.831555 -38.186766 
L 144.375451 -38.331578 
L 145.927626 -38.470726 
L 147.479333 -38.64334 
L 149.043637 -38.799446 
L 150.604108 -39.001381 
L 152.177018 -39.192833 
L 153.746758 -39.425706 
L 155.334089 -39.637893 
L 156.913721 -39.903549 
L 158.510424 -40.154855 
L 160.11725 -40.413767 
L 161.727841 -40.696912 
L 163.349015 -40.989034 
L 164.956053 -41.343747 
L 166.586536 -41.680512 
L 168.228012 -42.028375 
L 169.872624 -42.403335 
L 171.528353 -42.790912 
L 173.216064 -43.157067 
L 174.882765 -43.593656 
L 176.560522 -44.04528 
L 178.240078 -44.527106 
L 179.961703 -44.980088 
L 181.65961 -45.502497 
L 183.397685 -46.003522 
L 185.102956 -46.583484 
L 186.855979 -47.135821 
L 188.616751 -47.714923 
L 190.384758 -48.32173 
L 192.15944 -48.957172 
L 193.940169 -49.622183 
L 195.726237 -50.317709 
L 197.516846 -51.044715 
L 199.311084 -51.804198 
L 201.107895 -52.597205 
L 202.964439 -53.371338 
L 204.763769 -54.235507 
L 206.616465 -55.089673 
L 208.409796 -56.03141 
L 210.257293 -56.965061 
L 212.086588 -57.950722 
L 213.900415 -58.98479 
L 215.50896 -60.201427 
L 216.618789 -61.786362 
L 217.711137 -63.383577 
L 218.770038 -65.003313 
L 219.77538 -66.656803 
L 220.775506 -68.313092 
L 221.653767 -70.039176 
L 222.595689 -71.727296 
L 223.48642 -73.44294 
L 224.469663 -75.112378 
L 225.261222 -76.878467 
L 226.148537 -78.599157 
L 226.93355 -80.367903 
L 227.647611 -82.16659 
L 228.374249 -83.959249 
L 229.053765 -85.770236 
L 229.686287 -87.597949 
L 230.375957 -89.40603 
L 230.974195 -91.245879 
L 231.46911 -93.116963 
L 232.044657 -94.963626 
L 232.585369 -96.821501 
L 232.99007 -98.714123 
L 233.483051 -100.585447 
L 233.762733 -102.502883 
L 234.172242 -104.392416 
L 234.525491 -106.293427 
L 234.857733 -108.198801 
L 235.150121 -110.111075 
L 235.395257 -112.030148 
L 235.612228 -113.952855 
L 235.790871 -115.879689 
L 235.753531 -117.820673 
L 235.857262 -119.750057 
L 235.925036 -121.681062 
L 235.958581 -123.612966 
L 235.957058 -125.545146 
L 235.920888 -127.476955 
L 235.852126 -129.407844 
L 235.926951 -131.348059 
L 235.790284 -133.27839 
L 235.621538 -135.206166 
L 235.421418 -137.130958 
z
" style="stroke: #ffee9c"/>
    </defs>
    <g clip-path="url(#p8bf465d3db)">
     <use xlink:href="#madde644239" x="0" y="249.158125" style="fill: #ffee9c; stroke: #ffee9c"/>
    </g>
   </g>
   <g id="matplotlib.axis_1">
    <g id="xtick_1">
     <g id="line2d_1">
      <path d="M 125.254844 124.579063 
L 125.254844 13.699063 
" clip-path="url(#p8bf465d3db)" style="fill: none; stroke: #b0b0b0; stroke-width: 0.8; stroke-linecap: square"/>
     </g>
     <g id="text_1">
      <!-- N -->
      <g transform="translate(121.070469 7.958438) scale(0.1 -0.1)">
       <defs>
        <path id="DejaVuSans-Bold-4e" d="M 588 4666 
L 1931 4666 
L 3628 1466 
L 3628 4666 
L 4769 4666 
L 4769 0 
L 3425 0 
L 1728 3200 
L 1728 0 
L 588 0 
L 588 4666 
z
" transform="scale(0.015625)"/>
       </defs>
       <use xlink:href="#DejaVuSans-Bold-4e"/>
      </g>
     </g>
    </g>
    <g id="xtick_2">
     <g id="line2d_2">
      <path d="M 125.254844 124.579063 
L 203.658844 46.175063 
" clip-path="url(#p8bf465d3db)" style="fill: none; stroke: #b0b0b0; stroke-width: 0.8; stroke-linecap: square"/>
     </g>
    </g>
    <g id="xtick_3">
     <g id="line2d_3">
      <path d="M 125.254844 124.579063 
L 236.134844 124.579063 
" clip-path="url(#p8bf465d3db)" style="fill: none; stroke: #b0b0b0; stroke-width: 0.8; stroke-linecap: square"/>
     </g>
     <g id="text_2">
      <!-- E -->
      <g transform="translate(241.219219 127.338438) scale(0.1 -0.1)">
       <defs>
        <path id="DejaVuSans-Bold-45" d="M 588 4666 
L 3834 4666 
L 3834 3756 
L 1791 3756 
L 1791 2888 
L 3713 2888 
L 3713 1978 
L 1791 1978 
L 1791 909 
L 3903 909 
L 3903 0 
L 588 0 
L 588 4666 
z
" transform="scale(0.015625)"/>
       </defs>
       <use xlink:href="#DejaVuSans-Bold-45"/>
      </g>
     </g>
    </g>
    <g id="xtick_4">
     <g id="line2d_4">
      <path d="M 125.254844 124.579063 
L 203.658844 202.983062 
" clip-path="url(#p8bf465d3db)" style="fill: none; stroke: #b0b0b0; stroke-width: 0.8; stroke-linecap: square"/>
     </g>
    </g>
    <g id="xtick_5">
     <g id="line2d_5">
      <path d="M 125.254844 124.579063 
L 125.254844 235.459063 
" clip-path="url(#p8bf465d3db)" style="fill: none; stroke: #b0b0b0; stroke-width: 0.8; stroke-linecap: square"/>
     </g>
     <g id="text_3">
      <!-- S -->
      <g transform="translate(121.654062 246.718438) scale(0.1 -0.1)">
       <defs>
        <path id="DejaVuSans-Bold-53" d="M 3834 4519 
L 3834 3531 
Q 3450 3703 3084 3790 
Q 2719 3878 2394 3878 
Q 1963 3878 1756 3759 
Q 1550 3641 1550 3391 
Q 1550 3203 1689 3098 
Q 1828 2994 2194 2919 
L 2706 2816 
Q 3484 2659 3812 2340 
Q 4141 2022 4141 1434 
Q 4141 663 3683 286 
Q 3225 -91 2284 -91 
Q 1841 -91 1394 -6 
Q 947 78 500 244 
L 500 1259 
Q 947 1022 1364 901 
Q 1781 781 2169 781 
Q 2563 781 2772 912 
Q 2981 1044 2981 1288 
Q 2981 1506 2839 1625 
Q 2697 1744 2272 1838 
L 1806 1941 
Q 1106 2091 782 2419 
Q 459 2747 459 3303 
Q 459 4000 909 4375 
Q 1359 4750 2203 4750 
Q 2588 4750 2994 4692 
Q 3400 4634 3834 4519 
z
" transform="scale(0.015625)"/>
       </defs>
       <use xlink:href="#DejaVuSans-Bold-53"/>
      </g>
     </g>
    </g>
    <g id="xtick_6">
     <g id="line2d_6">
      <path d="M 125.254844 124.579063 
L 46.850844 202.983062 
" clip-path="url(#p8bf465d3db)" style="fill: none; stroke: #b0b0b0; stroke-width: 0.8; stroke-linecap: square"/>
     </g>
    </g>
    <g id="xtick_7">
     <g id="line2d_7">
      <path d="M 125.254844 124.579063 
L 14.374844 124.579063 
" clip-path="url(#p8bf465d3db)" style="fill: none; stroke: #b0b0b0; stroke-width: 0.8; stroke-linecap: square"/>
     </g>
     <g id="text_4">
      <!-- W -->
      <g transform="translate(0.36 127.338438) scale(0.1 -0.1)">
       <defs>
        <path id="DejaVuSans-Bold-57" d="M 191 4666 
L 1344 4666 
L 2150 1275 
L 2950 4666 
L 4109 4666 
L 4909 1275 
L 5716 4666 
L 6859 4666 
L 5759 0 
L 4372 0 
L 3525 3547 
L 2688 0 
L 1300 0 
L 191 4666 
z
" transform="scale(0.015625)"/>
       </defs>
       <use xlink:href="#DejaVuSans-Bold-57"/>
      </g>
     </g>
    </g>
    <g id="xtick_8">
     <g id="line2d_8">
      <path d="M 125.254844 124.579063 
L 46.850844 46.175063 
" clip-path="url(#p8bf465d3db)" style="fill: none; stroke: #b0b0b0; stroke-width: 0.8; stroke-linecap: square"/>
     </g>
    </g>
   </g>
   <g id="matplotlib.axis_2"/>
   <g id="patch_3">
    <path d="M 125.254844 124.579063 
C 125.254844 124.579063 125.254844 124.579063 125.254844 124.579063 
C 125.254844 124.579063 125.254844 124.579063 125.254844 124.579063 
L 125.254844 124.579063 
C 125.254844 124.579063 125.254844 124.579063 125.254844 124.579063 
C 125.254844 124.579063 125.254844 124.579063 125.254844 124.579063 
z
" clip-path="url(#p8bf465d3db)" style="fill: #d9d9d9"/>
   </g>
   <g id="patch_4">
    <path d="M 125.254844 124.579063 
C 125.254844 124.579063 125.254844 124.579063 125.254844 124.579063 
C 125.254844 124.579063 125.254844 124.579063 125.254844 124.579063 
L 125.254844 124.579063 
C 125.254844 124.579063 125.254844 124.579063 125.254844 124.579063 
C 125.254844 124.579063 125.254844 124.579063 125.254844 124.579063 
z
" clip-path="url(#p8bf465d3db)" style="fill: #d9d9d9"/>
   </g>
   <g id="patch_5">
    <path d="M 125.254844 124.579063 
C 125.254844 124.579063 125.254844 124.579063 125.254844 124.579063 
C 125.254844 124.579063 125.254844 124.579063 125.254844 124.579063 
L 125.254844 124.579063 
C 125.254844 124.579063 125.254844 124.579063 125.254844 124.579063 
C 125.254844 124.579063 125.254844 124.579063 125.254844 124.579063 
z
" clip-path="url(#p8bf465d3db)" style="fill: #d9d9d9"/>
   </g>
   <g id="patch_6">
    <path d="M 125.254844 124.579063 
C 125.254844 124.579063 125.254844 124.579063 125.254844 124.579063 
C 125.254844 124.579063 125.254844 124.579063 125.254844 124.579063 
L 125.254844 124.579063 
C 125.254844 124.579063 125.254844 124.579063 125.254844 124.579063 
C 125.254844 124.579063 125.254844 124.579063 125.254844 124.579063 
z
" clip-path="url(#p8bf465d3db)" style="fill: #d9d9d9"/>
   </g>
   <g id="patch_7">
    <path d="M 125.254844 124.579063 
C 125.254844 124.579063 125.254844 124.579063 125.254844 124.579063 
C 125.254844 124.579063 125.254844 124.579063 125.254844 124.579063 
L 125.254844 124.579063 
C 125.254844 124.579063 125.254844 124.579063 125.254844 124.579063 
C 125.254844 124.579063 125.254844 124.579063 125.254844 124.579063 
z
" clip-path="url(#p8bf465d3db)" style="fill: #d9d9d9"/>
   </g>
   <g id="patch_8">
    <path d="M 125.254844 124.579063 
C 125.254844 124.579063 125.254844 124.579063 125.254844 124.579063 
C 125.254844 124.579063 125.254844 124.579063 125.254844 124.579063 
L 125.254844 124.579063 
C 125.254844 124.579063 125.254844 124.579063 125.254844 124.579063 
C 125.254844 124.579063 125.254844 124.579063 125.254844 124.579063 
z
" clip-path="url(#p8bf465d3db)" style="fill: #d9d9d9"/>
   </g>
   <g id="patch_9">
    <path d="M 125.254844 124.579063 
C 125.254844 124.579063 125.254844 124.579063 125.254844 124.579063 
C 125.254844 124.579063 125.254844 124.579063 125.254844 124.579063 
L 128.38291 123.630174 
C 128.351851 123.527788 128.315784 123.426988 128.27484 123.328139 
C 128.233895 123.22929 128.188122 123.132511 128.137686 123.038151 
z
" clip-path="url(#p8bf465d3db)" style="fill: #d9d9d9"/>
   </g>
   <g id="patch_10">
    <path d="M 125.254844 124.579063 
C 125.254844 124.579063 125.254844 124.579063 125.254844 124.579063 
C 125.254844 124.579063 125.254844 124.579063 125.254844 124.579063 
L 128.164487 124.292488 
C 128.155107 124.197251 128.141057 124.102532 128.122387 124.008673 
C 128.103717 123.914814 128.080451 123.821928 128.052671 123.730351 
z
" clip-path="url(#p8bf465d3db)" style="fill: #d9d9d9"/>
   </g>
   <g id="patch_11">
    <path d="M 125.254844 124.579063 
C 125.254844 124.579063 125.254844 124.579063 125.254844 124.579063 
C 125.254844 124.579063 125.254844 124.579063 125.254844 124.579063 
L 125.254844 124.579063 
C 125.254844 124.579063 125.254844 124.579063 125.254844 124.579063 
C 125.254844 124.579063 125.254844 124.579063 125.254844 124.579063 
z
" clip-path="url(#p8bf465d3db)" style="fill: #d9d9d9"/>
   </g>
   <g id="patch_12">
    <path d="M 125.254844 124.579063 
C 125.254844 124.579063 125.254844 124.579063 125.254844 124.579063 
C 125.254844 124.579063 125.254844 124.579063 125.254844 124.579063 
L 125.254844 124.579063 
C 125.254844 124.579063 125.254844 124.579063 125.254844 124.579063 
C 125.254844 124.579063 125.254844 124.579063 125.254844 124.579063 
z
" clip-path="url(#p8bf465d3db)" style="fill: #d9d9d9"/>
   </g>
   <g id="patch_13">
    <path d="M 125.254844 124.579063 
C 125.254844 124.579063 125.254844 124.579063 125.254844 124.579063 
C 125.254844 124.579063 125.254844 124.579063 125.254844 124.579063 
L 127.487884 125.772647 
C 127.526951 125.699556 127.562407 125.624592 127.594123 125.548024 
C 127.625838 125.471455 127.653775 125.393376 127.677833 125.314068 
z
" clip-path="url(#p8bf465d3db)" style="fill: #d9d9d9"/>
   </g>
   <g id="patch_14">
    <path d="M 125.254844 124.579063 
C 125.254844 124.579063 125.254844 124.579063 125.254844 124.579063 
C 125.254844 124.579063 125.254844 124.579063 125.254844 124.579063 
L 125.254844 124.579063 
C 125.254844 124.579063 125.254844 124.579063 125.254844 124.579063 
C 125.254844 124.579063 125.254844 124.579063 125.254844 124.579063 
z
" clip-path="url(#p8bf465d3db)" style="fill: #d9d9d9"/>
   </g>
   <g id="patch_15">
    <path d="M 125.254844 124.579063 
C 125.254844 124.579063 125.254844 124.579063 125.254844 124.579063 
C 125.254844 124.579063 125.254844 124.579063 125.254844 124.579063 
L 135.328929 136.854371 
C 135.730718 136.524631 136.116076 136.175363 136.48361 135.807829 
C 136.851144 135.440295 137.200412 135.054937 137.530152 134.653148 
z
" clip-path="url(#p8bf465d3db)" style="fill: #d9d9d9"/>
   </g>
   <g id="patch_16">
    <path d="M 125.254844 124.579063 
C 125.254844 124.579063 125.254844 124.579063 125.254844 124.579063 
C 125.254844 124.579063 125.254844 124.579063 125.254844 124.579063 
L 129.773682 133.033215 
C 130.0504 132.885307 130.319688 132.723902 130.580575 132.549582 
C 130.841462 132.375263 131.093633 132.18824 131.336178 131.989189 
z
" clip-path="url(#p8bf465d3db)" style="fill: #d9d9d9"/>
   </g>
   <g id="patch_17">
    <path d="M 125.254844 124.579063 
C 125.254844 124.579063 125.254844 124.579063 125.254844 124.579063 
C 125.254844 124.579063 125.254844 124.579063 125.254844 124.579063 
L 127.055233 130.51415 
C 127.249497 130.455221 127.440751 130.386789 127.628304 130.309102 
C 127.815857 130.231415 127.999482 130.144567 128.178517 130.048871 
z
" clip-path="url(#p8bf465d3db)" style="fill: #d9d9d9"/>
   </g>
   <g id="patch_18">
    <path d="M 125.254844 124.579063 
C 125.254844 124.579063 125.254844 124.579063 125.254844 124.579063 
C 125.254844 124.579063 125.254844 124.579063 125.254844 124.579063 
L 125.254844 124.579063 
C 125.254844 124.579063 125.254844 124.579063 125.254844 124.579063 
C 125.254844 124.579063 125.254844 124.579063 125.254844 124.579063 
z
" clip-path="url(#p8bf465d3db)" style="fill: #d9d9d9"/>
   </g>
   <g id="patch_19">
    <path d="M 125.254844 124.579063 
C 125.254844 124.579063 125.254844 124.579063 125.254844 124.579063 
C 125.254844 124.579063 125.254844 124.579063 125.254844 124.579063 
L 125.254844 124.579063 
C 125.254844 124.579063 125.254844 124.579063 125.254844 124.579063 
C 125.254844 124.579063 125.254844 124.579063 125.254844 124.579063 
z
" clip-path="url(#p8bf465d3db)" style="fill: #d9d9d9"/>
   </g>
   <g id="patch_20">
    <path d="M 125.254844 124.579063 
C 125.254844 124.579063 125.254844 124.579063 125.254844 124.579063 
C 125.254844 124.579063 125.254844 124.579063 125.254844 124.579063 
L 125.254844 124.579063 
C 125.254844 124.579063 125.254844 124.579063 125.254844 124.579063 
C 125.254844 124.579063 125.254844 124.579063 125.254844 124.579063 
z
" clip-path="url(#p8bf465d3db)" style="fill: #d9d9d9"/>
   </g>
   <g id="patch_21">
    <path d="M 125.254844 124.579063 
C 125.254844 124.579063 125.254844 124.579063 125.254844 124.579063 
C 125.254844 124.579063 125.254844 124.579063 125.254844 124.579063 
L 125.254844 124.579063 
C 125.254844 124.579063 125.254844 124.579063 125.254844 124.579063 
C 125.254844 124.579063 125.254844 124.579063 125.254844 124.579063 
z
" clip-path="url(#p8bf465d3db)" style="fill: #d9d9d9"/>
   </g>
   <g id="patch_22">
    <path d="M 125.254844 124.579063 
C 125.254844 124.579063 125.254844 124.579063 125.254844 124.579063 
C 125.254844 124.579063 125.254844 124.579063 125.254844 124.579063 
L 125.254844 124.579063 
C 125.254844 124.579063 125.254844 124.579063 125.254844 124.579063 
C 125.254844 124.579063 125.254844 124.579063 125.254844 124.579063 
z
" clip-path="url(#p8bf465d3db)" style="fill: #d9d9d9"/>
   </g>
   <g id="patch_23">
    <path d="M 125.254844 124.579063 
C 125.254844 124.579063 125.254844 124.579063 125.254844 124.579063 
C 125.254844 124.579063 125.254844 124.579063 125.254844 124.579063 
L 125.254844 124.579063 
C 125.254844 124.579063 125.254844 124.579063 125.254844 124.579063 
C 125.254844 124.579063 125.254844 124.579063 125.254844 124.579063 
z
" clip-path="url(#p8bf465d3db)" style="fill: #d9d9d9"/>
   </g>
   <g id="patch_24">
    <path d="M 125.254844 124.579063 
C 125.254844 124.579063 125.254844 124.579063 125.254844 124.579063 
C 125.254844 124.579063 125.254844 124.579063 125.254844 124.579063 
L 125.254844 124.579063 
C 125.254844 124.579063 125.254844 124.579063 125.254844 124.579063 
C 125.254844 124.579063 125.254844 124.579063 125.254844 124.579063 
z
" clip-path="url(#p8bf465d3db)" style="fill: #d9d9d9"/>
   </g>
   <g id="patch_25">
    <path d="M 125.254844 124.579063 
C 125.254844 124.579063 125.254844 124.579063 125.254844 124.579063 
C 125.254844 124.579063 125.254844 124.579063 125.254844 124.579063 
L 125.254844 124.579063 
C 125.254844 124.579063 125.254844 124.579063 125.254844 124.579063 
C 125.254844 124.579063 125.254844 124.579063 125.254844 124.579063 
z
" clip-path="url(#p8bf465d3db)" style="fill: #d9d9d9"/>
   </g>
   <g id="patch_26">
    <path d="M 125.254844 124.579063 
C 125.254844 124.579063 125.254844 124.579063 125.254844 124.579063 
C 125.254844 124.579063 125.254844 124.579063 125.254844 124.579063 
L 125.254844 124.579063 
C 125.254844 124.579063 125.254844 124.579063 125.254844 124.579063 
C 125.254844 124.579063 125.254844 124.579063 125.254844 124.579063 
z
" clip-path="url(#p8bf465d3db)" style="fill: #d9d9d9"/>
   </g>
   <g id="patch_27">
    <path d="M 125.254844 124.579063 
C 125.254844 124.579063 125.254844 124.579063 125.254844 124.579063 
C 125.254844 124.579063 125.254844 124.579063 125.254844 124.579063 
L 125.254844 124.579063 
C 125.254844 124.579063 125.254844 124.579063 125.254844 124.579063 
C 125.254844 124.579063 125.254844 124.579063 125.254844 124.579063 
z
" clip-path="url(#p8bf465d3db)" style="fill: #d9d9d9"/>
   </g>
   <g id="patch_28">
    <path d="M 125.254844 124.579063 
C 125.254844 124.579063 125.254844 124.579063 125.254844 124.579063 
C 125.254844 124.579063 125.254844 124.579063 125.254844 124.579063 
L 125.254844 124.579063 
C 125.254844 124.579063 125.254844 124.579063 125.254844 124.579063 
C 125.254844 124.579063 125.254844 124.579063 125.254844 124.579063 
z
" clip-path="url(#p8bf465d3db)" style="fill: #d9d9d9"/>
   </g>
   <g id="patch_29">
    <path d="M 125.254844 124.579063 
C 125.254844 124.579063 125.254844 124.579063 125.254844 124.579063 
C 125.254844 124.579063 125.254844 124.579063 125.254844 124.579063 
L 125.254844 124.579063 
C 125.254844 124.579063 125.254844 124.579063 125.254844 124.579063 
C 125.254844 124.579063 125.254844 124.579063 125.254844 124.579063 
z
" clip-path="url(#p8bf465d3db)" style="fill: #d9d9d9"/>
   </g>
   <g id="patch_30">
    <path d="M 125.254844 124.579063 
C 125.254844 124.579063 125.254844 124.579063 125.254844 124.579063 
C 125.254844 124.579063 125.254844 124.579063 125.254844 124.579063 
L 125.254844 124.579063 
C 125.254844 124.579063 125.254844 124.579063 125.254844 124.579063 
C 125.254844 124.579063 125.254844 124.579063 125.254844 124.579063 
z
" clip-path="url(#p8bf465d3db)" style="fill: #d9d9d9"/>
   </g>
   <g id="patch_31">
    <path d="M 125.254844 124.579063 
C 125.254844 124.579063 125.254844 124.579063 125.254844 124.579063 
C 125.254844 124.579063 125.254844 124.579063 125.254844 124.579063 
L 125.254844 124.579063 
C 125.254844 124.579063 125.254844 124.579063 125.254844 124.579063 
C 125.254844 124.579063 125.254844 124.579063 125.254844 124.579063 
z
" clip-path="url(#p8bf465d3db)" style="fill: #d9d9d9"/>
   </g>
   <g id="patch_32">
    <path d="M 125.254844 124.579063 
C 125.254844 124.579063 125.254844 124.579063 125.254844 124.579063 
C 125.254844 124.579063 125.254844 124.579063 125.254844 124.579063 
L 125.254844 124.579063 
C 125.254844 124.579063 125.254844 124.579063 125.254844 124.579063 
C 125.254844 124.579063 125.254844 124.579063 125.254844 124.579063 
z
" clip-path="url(#p8bf465d3db)" style="fill: #d9d9d9"/>
   </g>
   <g id="patch_33">
    <path d="M 125.254844 124.579063 
C 125.254844 124.579063 125.254844 124.579063 125.254844 124.579063 
C 125.254844 124.579063 125.254844 124.579063 125.254844 124.579063 
L 125.254844 124.579063 
C 125.254844 124.579063 125.254844 124.579063 125.254844 124.579063 
C 125.254844 124.579063 125.254844 124.579063 125.254844 124.579063 
z
" clip-path="url(#p8bf465d3db)" style="fill: #d9d9d9"/>
   </g>
   <g id="patch_34">
    <path d="M 125.254844 124.579063 
C 125.254844 124.579063 125.254844 124.579063 125.254844 124.579063 
C 125.254844 124.579063 125.254844 124.579063 125.254844 124.579063 
L 125.254844 124.579063 
C 125.254844 124.579063 125.254844 124.579063 125.254844 124.579063 
C 125.254844 124.579063 125.254844 124.579063 125.254844 124.579063 
z
" clip-path="url(#p8bf465d3db)" style="fill: #d9d9d9"/>
   </g>
   <g id="patch_35">
    <path d="M 125.254844 124.579063 
C 125.254844 124.579063 125.254844 124.579063 125.254844 124.579063 
C 125.254844 124.579063 125.254844 124.579063 125.254844 124.579063 
L 129.758721 78.85043 
C 128.261955 78.703011 126.758852 78.629169 125.254844 78.629169 
C 123.750835 78.629169 122.247733 78.703011 120.750967 78.85043 
z
" clip-path="url(#p8bf465d3db)" style="fill: #a1a1d8"/>
   </g>
   <g id="patch_36">
    <path d="M 125.254844 124.579063 
C 125.254844 124.579063 125.254844 124.579063 125.254844 124.579063 
C 125.254844 124.579063 125.254844 124.579063 125.254844 124.579063 
L 139.064349 79.055223 
C 137.574286 78.603218 136.062929 78.224642 134.535736 77.920865 
C 133.008544 77.617087 131.467357 77.388474 129.917743 77.23585 
z
" clip-path="url(#p8bf465d3db)" style="fill: #a1a1d8"/>
   </g>
   <g id="patch_37">
    <path d="M 125.254844 124.579063 
C 125.254844 124.579063 125.254844 124.579063 125.254844 124.579063 
C 125.254844 124.579063 125.254844 124.579063 125.254844 124.579063 
L 148.491457 81.106416 
C 147.068533 80.345847 145.609124 79.655598 144.118502 79.038163 
C 142.62788 78.420727 141.107843 77.876849 139.56388 77.408493 
z
" clip-path="url(#p8bf465d3db)" style="fill: #a1a1d8"/>
   </g>
   <g id="patch_38">
    <path d="M 125.254844 124.579063 
C 125.254844 124.579063 125.254844 124.579063 125.254844 124.579063 
C 125.254844 124.579063 125.254844 124.579063 125.254844 124.579063 
L 163.390957 78.110075 
C 161.869957 76.861823 160.288589 75.689 158.652563 74.595843 
C 157.016538 73.502686 155.327828 72.490512 153.592532 71.562977 
z
" clip-path="url(#p8bf465d3db)" style="fill: #a1a1d8"/>
   </g>
   <g id="patch_39">
    <path d="M 125.254844 124.579063 
C 125.254844 124.579063 125.254844 124.579063 125.254844 124.579063 
C 125.254844 124.579063 125.254844 124.579063 125.254844 124.579063 
L 154.395694 100.663784 
C 153.612912 99.709961 152.783771 98.795145 151.911266 97.92264 
C 151.038762 97.050136 150.123945 96.220995 149.170122 95.438212 
z
" clip-path="url(#p8bf465d3db)" style="fill: #a1a1d8"/>
   </g>
   <g id="patch_40">
    <path d="M 125.254844 124.579063 
C 125.254844 124.579063 125.254844 124.579063 125.254844 124.579063 
C 125.254844 124.579063 125.254844 124.579063 125.254844 124.579063 
L 172.519388 99.315637 
C 171.692478 97.768598 170.790112 96.263091 169.815547 94.804552 
C 168.840983 93.346014 167.795396 91.936203 166.682563 90.580212 
z
" clip-path="url(#p8bf465d3db)" style="fill: #a1a1d8"/>
   </g>
   <g id="patch_41">
    <path d="M 128.137686 123.038151 
C 128.188122 123.132511 128.233895 123.22929 128.27484 123.328139 
C 128.315784 123.426988 128.351851 123.527788 128.38291 123.630174 
L 194.327753 103.626025 
C 193.641929 101.365165 192.845516 99.13934 191.941391 96.95659 
C 191.037267 94.77384 190.02652 92.636795 188.912802 90.553175 
z
" clip-path="url(#p8bf465d3db)" style="fill: #a1a1d8"/>
   </g>
   <g id="patch_42">
    <path d="M 128.052671 123.730351 
C 128.080451 123.821928 128.103717 123.914814 128.122387 124.008673 
C 128.141057 124.102532 128.155107 124.197251 128.164487 124.292488 
L 211.396992 116.094801 
C 211.11929 113.27524 210.703322 110.471013 210.150591 107.692248 
C 209.597861 104.913484 208.909034 102.163532 208.086598 99.452325 
z
" clip-path="url(#p8bf465d3db)" style="fill: #a1a1d8"/>
   </g>
   <g id="patch_43">
    <path d="M 125.254844 124.579063 
C 125.254844 124.579063 125.254844 124.579063 125.254844 124.579063 
C 125.254844 124.579063 125.254844 124.579063 125.254844 124.579063 
L 198.820497 131.824647 
C 199.057656 129.416733 199.17645 126.998627 199.17645 124.579063 
C 199.17645 122.159498 199.057656 119.741392 198.820497 117.333478 
z
" clip-path="url(#p8bf465d3db)" style="fill: #a1a1d8"/>
   </g>
   <g id="patch_44">
    <path d="M 125.254844 124.579063 
C 125.254844 124.579063 125.254844 124.579063 125.254844 124.579063 
C 125.254844 124.579063 125.254844 124.579063 125.254844 124.579063 
L 213.718848 151.414325 
C 214.597206 148.518766 215.332871 145.581827 215.923186 142.614117 
C 216.5135 139.646407 216.957752 136.651503 217.254337 133.640222 
z
" clip-path="url(#p8bf465d3db)" style="fill: #a1a1d8"/>
   </g>
   <g id="patch_45">
    <path d="M 127.677833 125.314068 
C 127.653775 125.393376 127.625838 125.471455 127.594123 125.548024 
C 127.562407 125.624592 127.526951 125.699556 127.487884 125.772647 
L 183.299563 155.604611 
C 184.315076 153.704721 185.236697 151.756117 186.061098 149.765838 
C 186.885498 147.775558 187.611685 145.746002 188.237035 143.684501 
z
" clip-path="url(#p8bf465d3db)" style="fill: #a1a1d8"/>
   </g>
   <g id="patch_46">
    <path d="M 125.254844 124.579063 
C 125.254844 124.579063 125.254844 124.579063 125.254844 124.579063 
C 125.254844 124.579063 125.254844 124.579063 125.254844 124.579063 
L 167.73269 159.43973 
C 168.873732 158.049367 169.945823 156.603819 170.94509 155.108309 
C 171.944358 153.612799 172.869598 152.069129 173.717469 150.482875 
z
" clip-path="url(#p8bf465d3db)" style="fill: #a1a1d8"/>
   </g>
   <g id="patch_47">
    <path d="M 137.530152 134.653148 
C 137.200412 135.054937 136.851144 135.440295 136.48361 135.807829 
C 136.116076 136.175363 135.730718 136.524631 135.328929 136.854371 
L 163.42477 171.089252 
C 164.947118 169.839894 166.407208 168.516545 167.799767 167.123986 
C 169.192326 165.731427 170.515675 164.271337 171.765034 162.748989 
z
" clip-path="url(#p8bf465d3db)" style="fill: #a1a1d8"/>
   </g>
   <g id="patch_48">
    <path d="M 131.336178 131.989189 
C 131.093633 132.18824 130.841462 132.375263 130.580575 132.549582 
C 130.319688 132.723902 130.0504 132.885307 129.773682 133.033215 
L 146.506015 164.337208 
C 147.807359 163.641625 149.073766 162.882569 150.300665 162.062782 
C 151.527563 161.242995 152.713472 160.363465 153.854109 159.427368 
z
" clip-path="url(#p8bf465d3db)" style="fill: #a1a1d8"/>
   </g>
   <g id="patch_49">
    <path d="M 128.178517 130.048871 
C 127.999482 130.144567 127.815857 130.231415 127.628304 130.309102 
C 127.440751 130.386789 127.249497 130.455221 127.055233 130.51415 
L 136.514275 161.696435 
C 137.729182 161.327897 138.925263 160.899932 140.098197 160.414087 
C 141.271131 159.928242 142.419504 159.385102 143.539169 158.786629 
z
" clip-path="url(#p8bf465d3db)" style="fill: #a1a1d8"/>
   </g>
   <g id="patch_50">
    <path d="M 125.254844 124.579063 
C 125.254844 124.579063 125.254844 124.579063 125.254844 124.579063 
C 125.254844 124.579063 125.254844 124.579063 125.254844 124.579063 
L 129.330357 165.958445 
C 130.684766 165.825047 132.031809 165.625232 133.366621 165.359721 
C 134.701433 165.094211 136.022405 164.763325 137.324764 164.368258 
z
" clip-path="url(#p8bf465d3db)" style="fill: #a1a1d8"/>
   </g>
   <g id="patch_51">
    <path d="M 125.254844 124.579063 
C 125.254844 124.579063 125.254844 124.579063 125.254844 124.579063 
C 125.254844 124.579063 125.254844 124.579063 125.254844 124.579063 
L 120.318181 174.701836 
C 121.958775 174.86342 123.606312 174.944358 125.254844 174.944358 
C 126.903375 174.944358 128.550913 174.86342 130.191506 174.701836 
z
" clip-path="url(#p8bf465d3db)" style="fill: #a1a1d8"/>
   </g>
   <g id="patch_52">
    <path d="M 125.254844 124.579063 
C 125.254844 124.579063 125.254844 124.579063 125.254844 124.579063 
C 125.254844 124.579063 125.254844 124.579063 125.254844 124.579063 
L 114.164615 161.138647 
C 115.361265 161.501647 116.575016 161.805676 117.801483 162.049636 
C 119.027951 162.293595 120.265657 162.477192 121.510132 162.599762 
z
" clip-path="url(#p8bf465d3db)" style="fill: #a1a1d8"/>
   </g>
   <g id="patch_53">
    <path d="M 125.254844 124.579063 
C 125.254844 124.579063 125.254844 124.579063 125.254844 124.579063 
C 125.254844 124.579063 125.254844 124.579063 125.254844 124.579063 
L 105.666474 161.226325 
C 106.865994 161.867481 108.096269 162.449359 109.352857 162.969854 
C 110.609445 163.49035 111.890831 163.948837 113.192385 164.343659 
z
" clip-path="url(#p8bf465d3db)" style="fill: #a1a1d8"/>
   </g>
   <g id="patch_54">
    <path d="M 125.254844 124.579063 
C 125.254844 124.579063 125.254844 124.579063 125.254844 124.579063 
C 125.254844 124.579063 125.254844 124.579063 125.254844 124.579063 
L 98.698301 156.938304 
C 99.757467 157.807539 100.858672 158.624248 101.997938 159.385481 
C 103.137204 160.146715 104.313158 160.851554 105.521552 161.497454 
z
" clip-path="url(#p8bf465d3db)" style="fill: #a1a1d8"/>
   </g>
   <g id="patch_55">
    <path d="M 125.254844 124.579063 
C 125.254844 124.579063 125.254844 124.579063 125.254844 124.579063 
C 125.254844 124.579063 125.254844 124.579063 125.254844 124.579063 
L 102.767457 143.033984 
C 103.371514 143.770029 104.011345 144.475974 104.684639 145.149268 
C 105.357932 145.822561 106.063877 146.462392 106.799923 147.066449 
z
" clip-path="url(#p8bf465d3db)" style="fill: #a1a1d8"/>
   </g>
   <g id="patch_56">
    <path d="M 125.254844 124.579063 
C 125.254844 124.579063 125.254844 124.579063 125.254844 124.579063 
C 125.254844 124.579063 125.254844 124.579063 125.254844 124.579063 
L 104.109634 135.881413 
C 104.479577 136.573527 104.883277 137.247061 105.319278 137.899582 
C 105.755278 138.552103 106.223053 139.182824 106.720912 139.789467 
z
" clip-path="url(#p8bf465d3db)" style="fill: #a1a1d8"/>
   </g>
   <g id="patch_57">
    <path d="M 125.254844 124.579063 
C 125.254844 124.579063 125.254844 124.579063 125.254844 124.579063 
C 125.254844 124.579063 125.254844 124.579063 125.254844 124.579063 
L 108.82133 129.564115 
C 108.984498 130.102008 109.173977 130.631566 109.389082 131.150876 
C 109.604187 131.670186 109.84466 132.178622 110.10963 132.674348 
z
" clip-path="url(#p8bf465d3db)" style="fill: #a1a1d8"/>
   </g>
   <g id="patch_58">
    <path d="M 125.254844 124.579063 
C 125.254844 124.579063 125.254844 124.579063 125.254844 124.579063 
C 125.254844 124.579063 125.254844 124.579063 125.254844 124.579063 
L 78.564363 129.177674 
C 78.714882 130.705923 78.940344 132.225861 79.239933 133.731997 
C 79.539522 135.238134 79.912878 136.728654 80.358652 138.198173 
z
" clip-path="url(#p8bf465d3db)" style="fill: #a1a1d8"/>
   </g>
   <g id="patch_59">
    <path d="M 125.254844 124.579063 
C 125.254844 124.579063 125.254844 124.579063 125.254844 124.579063 
C 125.254844 124.579063 125.254844 124.579063 125.254844 124.579063 
L 86.626659 120.774518 
C 86.502131 122.038877 86.439754 123.308587 86.439754 124.579062 
C 86.439754 125.849538 86.502131 127.119248 86.626659 128.383607 
z
" clip-path="url(#p8bf465d3db)" style="fill: #a1a1d8"/>
   </g>
   <g id="patch_60">
    <path d="M 125.254844 124.579063 
C 125.254844 124.579063 125.254844 124.579063 125.254844 124.579063 
C 125.254844 124.579063 125.254844 124.579063 125.254844 124.579063 
L 97.311567 116.102562 
C 97.034119 117.017187 96.801743 117.944883 96.615279 118.882299 
C 96.428816 119.819715 96.288489 120.76572 96.194806 121.716899 
z
" clip-path="url(#p8bf465d3db)" style="fill: #a1a1d8"/>
   </g>
   <g id="patch_61">
    <path d="M 125.254844 124.579063 
C 125.254844 124.579063 125.254844 124.579063 125.254844 124.579063 
C 125.254844 124.579063 125.254844 124.579063 125.254844 124.579063 
L 81.610481 101.250665 
C 80.846908 102.67921 80.153932 104.144383 79.534058 105.640893 
C 78.914183 107.137402 78.368157 108.663444 77.897951 110.213506 
z
" clip-path="url(#p8bf465d3db)" style="fill: #a1a1d8"/>
   </g>
   <g id="patch_62">
    <path d="M 125.254844 124.579063 
C 125.254844 124.579063 125.254844 124.579063 125.254844 124.579063 
C 125.254844 124.579063 125.254844 124.579063 125.254844 124.579063 
L 93.755471 98.728196 
C 92.909334 99.759217 92.114327 100.83116 91.373321 101.940153 
C 90.632316 103.049146 89.946206 104.193851 89.317469 105.370135 
z
" clip-path="url(#p8bf465d3db)" style="fill: #a1a1d8"/>
   </g>
   <g id="patch_63">
    <path d="M 125.254844 124.579063 
C 125.254844 124.579063 125.254844 124.579063 125.254844 124.579063 
C 125.254844 124.579063 125.254844 124.579063 125.254844 124.579063 
L 97.556932 90.829059 
C 96.452244 91.735653 95.392733 92.695938 94.382226 93.706445 
C 93.371719 94.716952 92.411434 95.776462 91.50484 96.88115 
z
" clip-path="url(#p8bf465d3db)" style="fill: #a1a1d8"/>
   </g>
   <g id="patch_64">
    <path d="M 125.254844 124.579063 
C 125.254844 124.579063 125.254844 124.579063 125.254844 124.579063 
C 125.254844 124.579063 125.254844 124.579063 125.254844 124.579063 
L 106.534199 89.5552 
C 105.387816 90.167955 104.272208 90.836624 103.191405 91.558794 
C 102.110603 92.280963 101.065908 93.055761 100.061095 93.88039 
z
" clip-path="url(#p8bf465d3db)" style="fill: #a1a1d8"/>
   </g>
   <g id="patch_65">
    <path d="M 125.254844 124.579063 
C 125.254844 124.579063 125.254844 124.579063 125.254844 124.579063 
C 125.254844 124.579063 125.254844 124.579063 125.254844 124.579063 
L 105.112466 58.17854 
C 102.939077 58.83783 100.799368 59.603431 98.701067 60.472575 
C 96.602766 61.34172 94.548403 62.313362 92.545396 63.383991 
z
" clip-path="url(#p8bf465d3db)" style="fill: #a1a1d8"/>
   </g>
   <g id="patch_66">
    <path d="M 125.254844 124.579063 
C 125.254844 124.579063 125.254844 124.579063 125.254844 124.579063 
C 125.254844 124.579063 125.254844 124.579063 125.254844 124.579063 
L 118.671414 57.736382 
C 116.483554 57.951867 114.307591 58.274641 112.151387 58.703536 
C 109.995183 59.132432 107.861335 59.666933 105.757553 60.305108 
z
" clip-path="url(#p8bf465d3db)" style="fill: #a1a1d8"/>
   </g>
   <g id="patch_67">
    <path d="M 120.750967 78.85043 
C 122.247733 78.703011 123.750835 78.629169 125.254844 78.629169 
C 126.758852 78.629169 128.261955 78.703011 129.758721 78.85043 
L 131.404529 62.140261 
C 129.360814 61.938973 127.308448 61.838147 125.254844 61.838147 
C 123.20124 61.838147 121.148874 61.938973 119.105159 62.140261 
z
" clip-path="url(#p8bf465d3db)" style="fill: #ff8c8e"/>
   </g>
   <g id="patch_68">
    <path d="M 129.917743 77.23585 
C 131.467357 77.388474 133.008544 77.617087 134.535736 77.920865 
C 136.062929 78.224642 137.574286 78.603218 139.064349 79.055223 
L 145.267168 58.607269 
C 143.107813 57.952236 140.917599 57.403616 138.704437 56.963391 
C 136.491275 56.523165 134.257833 56.191866 132.012179 55.970688 
z
" clip-path="url(#p8bf465d3db)" style="fill: #ff8c8e"/>
   </g>
   <g id="patch_69">
    <path d="M 139.56388 77.408493 
C 141.107843 77.876849 142.62788 78.420727 144.118502 79.038163 
C 145.609124 79.655598 147.068533 80.345847 148.491457 81.106416 
L 162.120963 55.607405 
C 159.863417 54.400722 157.547988 53.305606 155.183038 52.326011 
C 152.818087 51.346417 150.406467 50.483525 147.956888 49.740453 
z
" clip-path="url(#p8bf465d3db)" style="fill: #ff8c8e"/>
   </g>
   <g id="patch_70">
    <path d="M 153.592532 71.562977 
C 155.327828 72.490512 157.016538 73.502686 158.652563 74.595843 
C 160.288589 75.689 161.869957 76.861823 163.390957 78.110075 
L 179.123626 58.939762 
C 176.975153 57.176556 174.741408 55.519897 172.430456 53.975769 
C 170.119505 52.431641 167.734134 51.001904 165.28296 49.691724 
z
" clip-path="url(#p8bf465d3db)" style="fill: #ff8c8e"/>
   </g>
   <g id="patch_71">
    <path d="M 149.170122 95.438212 
C 150.123945 96.220995 151.038762 97.050136 151.911266 97.92264 
C 152.783771 98.795145 153.612912 99.709961 154.395694 100.663784 
L 178.701974 80.716136 
C 177.266275 78.966732 175.74555 77.288871 174.145293 75.688613 
C 172.545035 74.088356 170.867174 72.567631 169.11777 71.131932 
z
" clip-path="url(#p8bf465d3db)" style="fill: #ff8c8e"/>
   </g>
   <g id="patch_72">
    <path d="M 166.682563 90.580212 
C 167.795396 91.936203 168.840983 93.346014 169.815547 94.804552 
C 170.790112 96.263091 171.692478 97.768598 172.519388 99.315637 
L 200.330604 84.450233 
C 199.017127 81.992891 197.583794 79.601518 196.03578 77.284753 
C 194.487767 74.967987 192.82694 72.728621 191.059298 70.574743 
z
" clip-path="url(#p8bf465d3db)" style="fill: #ff8c8e"/>
   </g>
   <g id="patch_73">
    <path d="M 188.912802 90.553175 
C 190.02652 92.636795 191.037267 94.77384 191.941391 96.95659 
C 192.845516 99.13934 193.641929 101.365165 194.327753 103.626025 
L 211.432918 98.437229 
C 210.577257 95.616492 209.583621 92.839466 208.455599 90.116181 
C 207.327578 87.392896 206.06653 84.726635 204.677012 82.127029 
z
" clip-path="url(#p8bf465d3db)" style="fill: #ff8c8e"/>
   </g>
   <g id="patch_74">
    <path d="M 208.086598 99.452325 
C 208.909034 102.163532 209.597861 104.913484 210.150591 107.692248 
C 210.703322 110.471013 211.11929 113.27524 211.396992 116.094801 
L 235.600928 113.710922 
C 235.245198 110.09913 234.712353 106.50698 234.004318 102.947447 
C 233.296283 99.387915 232.413911 95.86529 231.36039 92.392297 
z
" clip-path="url(#p8bf465d3db)" style="fill: #ff8c8e"/>
   </g>
   <g id="patch_75">
    <path d="M 198.820497 117.333478 
C 199.057656 119.741392 199.17645 122.159498 199.17645 124.579063 
C 199.17645 126.998627 199.057656 129.416733 198.820497 131.824647 
L 213.520681 133.272489 
C 213.80523 130.383416 213.947762 127.482114 213.947762 124.579063 
C 213.947762 121.676011 213.80523 118.774709 213.520681 115.885636 
z
" clip-path="url(#p8bf465d3db)" style="fill: #ff8c8e"/>
   </g>
   <g id="patch_76">
    <path d="M 217.254337 133.640222 
C 216.957752 136.651503 216.5135 139.646407 215.923186 142.614117 
C 215.332871 145.581827 214.597206 148.518766 213.718848 151.414325 
L 226.991551 155.440555 
C 228.001694 152.110561 228.847734 148.732978 229.526616 145.320008 
C 230.205498 141.907037 230.716404 138.462792 231.057487 134.999713 
z
" clip-path="url(#p8bf465d3db)" style="fill: #ff8c8e"/>
   </g>
   <g id="patch_77">
    <path d="M 188.237035 143.684501 
C 187.611685 145.746002 186.885498 147.775558 186.061098 149.765838 
C 185.236697 151.756117 184.315076 153.704721 183.299563 155.604611 
L 213.443429 171.716843 
C 214.986319 168.830299 216.386557 165.869743 217.639087 162.845869 
C 218.891617 159.821995 219.994928 156.738447 220.945035 153.606365 
z
" clip-path="url(#p8bf465d3db)" style="fill: #ff8c8e"/>
   </g>
   <g id="patch_78">
    <path d="M 173.717469 150.482875 
C 172.869598 152.069129 171.944358 153.612799 170.94509 155.108309 
C 169.945823 156.603819 168.873732 158.049367 167.73269 159.43973 
L 182.441697 171.5111 
C 183.977852 169.639289 185.421181 167.693185 186.76647 165.679817 
C 188.111759 163.66645 189.357387 161.588246 190.498853 159.452712 
z
" clip-path="url(#p8bf465d3db)" style="fill: #ff8c8e"/>
   </g>
   <g id="patch_79">
    <path d="M 171.765034 162.748989 
C 170.515675 164.271337 169.192326 165.731427 167.799767 167.123986 
C 166.407208 168.516545 164.947118 169.839894 163.42477 171.089252 
L 175.419954 185.705427 
C 177.420712 184.063448 179.339646 182.324227 181.169827 180.494046 
C 183.000008 178.663865 184.739229 176.74493 186.381208 174.744173 
z
" clip-path="url(#p8bf465d3db)" style="fill: #ff8c8e"/>
   </g>
   <g id="patch_80">
    <path d="M 153.854109 159.427368 
C 152.713472 160.363465 151.527563 161.242995 150.300665 162.062782 
C 149.073766 162.882569 147.807359 163.641625 146.506015 164.337208 
L 147.231069 165.693687 
C 148.576812 164.974373 149.886427 164.189419 151.155185 163.341663 
C 152.423943 162.493906 153.650313 161.584367 154.829867 160.616333 
z
" clip-path="url(#p8bf465d3db)" style="fill: #ff8c8e"/>
   </g>
   <g id="patch_81">
    <path d="M 143.539169 158.786629 
C 142.419504 159.385102 141.271131 159.928242 140.098197 160.414087 
C 138.925263 160.899932 137.729182 161.327897 136.514275 161.696435 
L 139.6204 171.935956 
C 141.170462 171.46575 142.696504 170.919723 144.193013 170.299849 
C 145.689523 169.679974 147.154696 168.986999 148.583242 168.223425 
z
" clip-path="url(#p8bf465d3db)" style="fill: #ff8c8e"/>
   </g>
   <g id="patch_82">
    <path d="M 137.324764 164.368258 
C 136.022405 164.763325 134.701433 165.094211 133.366621 165.359721 
C 132.031809 165.625232 130.684766 165.825047 129.330357 165.958445 
L 130.575806 178.603701 
C 132.344113 178.429538 134.102804 178.168661 135.845525 177.822012 
C 137.588246 177.475364 139.312898 177.043361 141.01325 176.527565 
z
" clip-path="url(#p8bf465d3db)" style="fill: #ff8c8e"/>
   </g>
   <g id="patch_83">
    <path d="M 130.191506 174.701836 
C 128.550913 174.86342 126.903375 174.944358 125.254844 174.944358 
C 123.606312 174.944358 121.958775 174.86342 120.318181 174.701836 
L 119.716456 180.811257 
C 121.55702 180.992537 123.405374 181.083341 125.254844 181.083341 
C 127.104313 181.083341 128.952668 180.992537 130.793231 180.811257 
z
" clip-path="url(#p8bf465d3db)" style="fill: #ff8c8e"/>
   </g>
   <g id="patch_84">
    <path d="M 121.510132 162.599762 
C 120.265657 162.477192 119.027951 162.293595 117.801483 162.049636 
C 116.575016 161.805676 115.361265 161.501647 114.164615 161.138647 
L 111.257533 170.722012 
C 112.767861 171.180165 114.299772 171.563888 115.847734 171.871797 
C 117.395696 172.179706 118.957842 172.411428 120.52853 172.566128 
z
" clip-path="url(#p8bf465d3db)" style="fill: #ff8c8e"/>
   </g>
   <g id="patch_85">
    <path d="M 113.192385 164.343659 
C 111.890831 163.948837 110.609445 163.49035 109.352857 162.969854 
C 108.096269 162.449359 106.865994 161.867481 105.666474 161.226325 
L 101.442904 169.128068 
C 102.90106 169.907469 104.396603 170.614808 105.924131 171.247531 
C 107.45166 171.880254 109.009333 172.437598 110.591524 172.917551 
z
" clip-path="url(#p8bf465d3db)" style="fill: #ff8c8e"/>
   </g>
   <g id="patch_86">
    <path d="M 105.521552 161.497454 
C 104.313158 160.851554 103.137204 160.146715 101.997938 159.385481 
C 100.858672 158.624248 99.757467 157.807539 98.698301 156.938304 
L 92.597906 164.371656 
C 93.900377 165.440566 95.254544 166.444885 96.655515 167.380983 
C 98.056485 168.317082 99.502572 169.183833 100.98855 169.978105 
z
" clip-path="url(#p8bf465d3db)" style="fill: #ff8c8e"/>
   </g>
   <g id="patch_87">
    <path d="M 106.799923 147.066449 
C 106.063877 146.462392 105.357932 145.822561 104.684639 145.149268 
C 104.011345 144.475974 103.371514 143.770029 102.767457 143.033984 
L 98.040028 146.913684 
C 98.771074 147.804466 99.545414 148.658818 100.360251 149.473655 
C 101.175088 150.288492 102.02944 151.062832 102.920222 151.793878 
z
" clip-path="url(#p8bf465d3db)" style="fill: #ff8c8e"/>
   </g>
   <g id="patch_88">
    <path d="M 106.720912 139.789467 
C 106.223053 139.182824 105.755278 138.552103 105.319278 137.899582 
C 104.883277 137.247061 104.479577 136.573527 104.109634 135.881413 
L 90.46908 143.172441 
C 91.077669 144.311031 91.741793 145.419055 92.459052 146.49251 
C 93.176312 147.565965 93.945843 148.603558 94.764866 149.60154 
z
" clip-path="url(#p8bf465d3db)" style="fill: #ff8c8e"/>
   </g>
   <g id="patch_89">
    <path d="M 110.10963 132.674348 
C 109.84466 132.178622 109.604187 131.670186 109.389082 131.150876 
C 109.173977 130.631566 108.984498 130.102008 108.82133 129.564115 
L 81.061571 137.984945 
C 81.500365 139.431457 82.009915 140.855553 82.58838 142.252091 
C 83.166844 143.648628 83.813526 145.015922 84.52609 146.349035 
z
" clip-path="url(#p8bf465d3db)" style="fill: #ff8c8e"/>
   </g>
   <g id="patch_90">
    <path d="M 80.358652 138.198173 
C 79.912878 136.728654 79.539522 135.238134 79.239933 133.731997 
C 78.940344 132.225861 78.714882 130.705923 78.564363 129.177674 
L 60.503025 130.95656 
C 60.71177 133.075984 61.024447 135.183881 61.439927 137.272639 
C 61.855406 139.361396 62.373188 141.428496 62.991401 143.466471 
z
" clip-path="url(#p8bf465d3db)" style="fill: #ff8c8e"/>
   </g>
   <g id="patch_91">
    <path d="M 86.626659 128.383607 
C 86.502131 127.119248 86.439754 125.849538 86.439754 124.579062 
C 86.439754 123.308587 86.502131 122.038877 86.626659 120.774518 
L 58.31724 117.986284 
C 58.101448 120.177252 57.993357 122.377494 57.993357 124.579062 
C 57.993357 126.780631 58.101448 128.980873 58.31724 131.171841 
z
" clip-path="url(#p8bf465d3db)" style="fill: #ff8c8e"/>
   </g>
   <g id="patch_92">
    <path d="M 96.194806 121.716899 
C 96.288489 120.76572 96.428816 119.819715 96.615279 118.882299 
C 96.801743 117.944883 97.034119 117.017187 97.311567 116.102562 
L 71.310442 108.215207 
C 70.774829 109.980888 70.326228 111.771802 69.966261 113.58148 
C 69.606293 115.391157 69.335393 117.217418 69.154539 119.053665 
z
" clip-path="url(#p8bf465d3db)" style="fill: #ff8c8e"/>
   </g>
   <g id="patch_93">
    <path d="M 77.897951 110.213506 
C 78.368157 108.663444 78.914183 107.137402 79.534058 105.640893 
C 80.153932 104.144383 80.846908 102.67921 81.610481 101.250665 
L 60.125577 89.766744 
C 58.986118 91.898522 57.95201 94.08496 57.026988 96.31816 
C 56.101967 98.551359 55.287147 100.828629 54.585471 103.141743 
z
" clip-path="url(#p8bf465d3db)" style="fill: #ff8c8e"/>
   </g>
   <g id="patch_94">
    <path d="M 89.317469 105.370135 
C 89.946206 104.193851 90.632316 103.049146 91.373321 101.940153 
C 92.114327 100.83116 92.909334 99.759217 93.755471 98.728196 
L 81.810963 88.925591 
C 80.643972 90.347574 79.547499 91.825996 78.525506 93.355517 
C 77.503513 94.885038 76.557231 96.463814 75.690078 98.086143 
z
" clip-path="url(#p8bf465d3db)" style="fill: #ff8c8e"/>
   </g>
   <g id="patch_95">
    <path d="M 91.50484 96.88115 
C 92.411434 95.776462 93.371719 94.716952 94.382226 93.706445 
C 95.392733 92.695938 96.452244 91.735653 97.556932 90.829059 
L 89.637575 81.179295 
C 88.217036 82.345101 86.85459 83.579949 85.555161 84.879379 
C 84.255731 86.178809 83.020882 87.541254 81.855076 88.961794 
z
" clip-path="url(#p8bf465d3db)" style="fill: #ff8c8e"/>
   </g>
   <g id="patch_96">
    <path d="M 100.061095 93.88039 
C 101.065908 93.055761 102.110603 92.280963 103.191405 91.558794 
C 104.272208 90.836624 105.387816 90.167955 106.534199 89.5552 
L 100.552158 78.363588 
C 99.039456 79.172143 97.567364 80.054481 96.141199 81.007414 
C 94.715034 81.960348 93.336515 82.982727 92.010621 84.07086 
z
" clip-path="url(#p8bf465d3db)" style="fill: #ff8c8e"/>
   </g>
   <g id="patch_97">
    <path d="M 92.545396 63.383991 
C 94.548403 62.313362 96.602766 61.34172 98.701067 60.472575 
C 100.799368 59.603431 102.939077 58.83783 105.112466 58.17854 
L 101.715525 46.980327 
C 99.175602 47.750804 96.675039 48.645519 94.222867 49.661242 
C 91.770694 50.676965 89.36987 51.812471 87.029064 53.063658 
z
" clip-path="url(#p8bf465d3db)" style="fill: #ff8c8e"/>
   </g>
   <g id="patch_98">
    <path d="M 105.757553 60.305108 
C 107.861335 59.666933 109.995183 59.132432 112.151387 58.703536 
C 114.307591 58.274641 116.483554 57.951867 118.671414 57.736382 
L 118.366607 54.641625 
C 116.077451 54.867087 113.800743 55.204805 111.544709 55.653558 
C 109.288674 56.102311 107.056031 56.661559 104.854846 57.329282 
z
" clip-path="url(#p8bf465d3db)" style="fill: #ff8c8e"/>
   </g>
   <g id="patch_99">
    <path d="M 119.105159 62.140261 
C 121.148874 61.938973 123.20124 61.838147 125.254844 61.838147 
C 127.308448 61.838147 129.360814 61.938973 131.404529 62.140261 
L 131.866281 57.452011 
C 129.669113 57.235609 127.462644 57.127212 125.254844 57.127212 
C 123.047044 57.127212 120.840575 57.235609 118.643406 57.452011 
z
" clip-path="url(#p8bf465d3db)" style="fill: #828282"/>
   </g>
   <g id="patch_100">
    <path d="M 132.012179 55.970688 
C 134.257833 56.191866 136.491275 56.523165 138.704437 56.963391 
C 140.917599 57.403616 143.107813 57.952236 145.267168 58.607269 
L 145.267168 58.607269 
C 143.107813 57.952236 140.917599 57.403616 138.704437 56.963391 
C 136.491275 56.523165 134.257833 56.191866 132.012179 55.970688 
z
" clip-path="url(#p8bf465d3db)" style="fill: #828282"/>
   </g>
   <g id="patch_101">
    <path d="M 147.956888 49.740453 
C 150.406467 50.483525 152.818087 51.346417 155.183038 52.326011 
C 157.547988 53.305606 159.863417 54.400722 162.120963 55.607405 
L 162.120963 55.607405 
C 159.863417 54.400722 157.547988 53.305606 155.183038 52.326011 
C 152.818087 51.346417 150.406467 50.483525 147.956888 49.740453 
z
" clip-path="url(#p8bf465d3db)" style="fill: #828282"/>
   </g>
   <g id="patch_102">
    <path d="M 165.28296 49.691724 
C 167.734134 51.001904 170.119505 52.431641 172.430456 53.975769 
C 174.741408 55.519897 176.975153 57.176556 179.123626 58.939762 
L 179.251202 58.78431 
C 177.097641 57.016929 174.858605 55.356346 172.542181 53.808561 
C 170.225757 52.260776 167.834737 50.827654 165.377757 49.514371 
z
" clip-path="url(#p8bf465d3db)" style="fill: #828282"/>
   </g>
   <g id="patch_103">
    <path d="M 169.11777 71.131932 
C 170.867174 72.567631 172.545035 74.088356 174.145293 75.688613 
C 175.74555 77.288871 177.266275 78.966732 178.701974 80.716136 
L 178.701974 80.716136 
C 177.266275 78.966732 175.74555 77.288871 174.145293 75.688613 
C 172.545035 74.088356 170.867174 72.567631 169.11777 71.131932 
z
" clip-path="url(#p8bf465d3db)" style="fill: #828282"/>
   </g>
   <g id="patch_104">
    <path d="M 191.059298 70.574743 
C 192.82694 72.728621 194.487767 74.967987 196.03578 77.284753 
C 197.583794 79.601518 199.017127 81.992891 200.330604 84.450233 
L 200.330604 84.450233 
C 199.017127 81.992891 197.583794 79.601518 196.03578 77.284753 
C 194.487767 74.967987 192.82694 72.728621 191.059298 70.574743 
z
" clip-path="url(#p8bf465d3db)" style="fill: #828282"/>
   </g>
   <g id="patch_105">
    <path d="M 204.677012 82.127029 
C 206.06653 84.726635 207.327578 87.392896 208.455599 90.116181 
C 209.583621 92.839466 210.577257 95.616492 211.432918 98.437229 
L 211.432918 98.437229 
C 210.577257 95.616492 209.583621 92.839466 208.455599 90.116181 
C 207.327578 87.392896 206.06653 84.726635 204.677012 82.127029 
z
" clip-path="url(#p8bf465d3db)" style="fill: #828282"/>
   </g>
   <g id="patch_106">
    <path d="M 231.36039 92.392297 
C 232.413911 95.86529 233.296283 99.387915 234.004318 102.947447 
C 234.712353 106.50698 235.245198 110.09913 235.600928 113.710922 
L 235.600928 113.710922 
C 235.245198 110.09913 234.712353 106.50698 234.004318 102.947447 
C 233.296283 99.387915 232.413911 95.86529 231.36039 92.392297 
z
" clip-path="url(#p8bf465d3db)" style="fill: #828282"/>
   </g>
   <g id="patch_107">
    <path d="M 213.520681 115.885636 
C 213.80523 118.774709 213.947762 121.676011 213.947762 124.579063 
C 213.947762 127.482114 213.80523 130.383416 213.520681 133.272489 
L 213.520681 133.272489 
C 213.80523 130.383416 213.947762 127.482114 213.947762 124.579063 
C 213.947762 121.676011 213.80523 118.774709 213.520681 115.885636 
z
" clip-path="url(#p8bf465d3db)" style="fill: #828282"/>
   </g>
   <g id="patch_108">
    <path d="M 231.057487 134.999713 
C 230.716404 138.462792 230.205498 141.907037 229.526616 145.320008 
C 228.847734 148.732978 228.001694 152.110561 226.991551 155.440555 
L 226.991551 155.440555 
C 228.001694 152.110561 228.847734 148.732978 229.526616 145.320008 
C 230.205498 141.907037 230.716404 138.462792 231.057487 134.999713 
z
" clip-path="url(#p8bf465d3db)" style="fill: #828282"/>
   </g>
   <g id="patch_109">
    <path d="M 220.945035 153.606365 
C 219.994928 156.738447 218.891617 159.821995 217.639087 162.845869 
C 216.386557 165.869743 214.986319 168.830299 213.443429 171.716843 
L 213.443429 171.716843 
C 214.986319 168.830299 216.386557 165.869743 217.639087 162.845869 
C 218.891617 159.821995 219.994928 156.738447 220.945035 153.606365 
z
" clip-path="url(#p8bf465d3db)" style="fill: #828282"/>
   </g>
   <g id="patch_110">
    <path d="M 190.498853 159.452712 
C 189.357387 161.588246 188.111759 163.66645 186.76647 165.679817 
C 185.421181 167.693185 183.977852 169.639289 182.441697 171.5111 
L 182.441697 171.5111 
C 183.977852 169.639289 185.421181 167.693185 186.76647 165.679817 
C 188.111759 163.66645 189.357387 161.588246 190.498853 159.452712 
z
" clip-path="url(#p8bf465d3db)" style="fill: #828282"/>
   </g>
   <g id="patch_111">
    <path d="M 186.381208 174.744173 
C 184.739229 176.74493 183.000008 178.663865 181.169827 180.494046 
C 179.339646 182.324227 177.420712 184.063448 175.419954 185.705427 
L 175.419954 185.705427 
C 177.420712 184.063448 179.339646 182.324227 181.169827 180.494046 
C 183.000008 178.663865 184.739229 176.74493 186.381208 174.744173 
z
" clip-path="url(#p8bf465d3db)" style="fill: #828282"/>
   </g>
   <g id="patch_112">
    <path d="M 154.829867 160.616333 
C 153.650313 161.584367 152.423943 162.493906 151.155185 163.341663 
C 149.886427 164.189419 148.576812 164.974373 147.231069 165.693687 
L 147.231069 165.693687 
C 148.576812 164.974373 149.886427 164.189419 151.155185 163.341663 
C 152.423943 162.493906 153.650313 161.584367 154.829867 160.616333 
z
" clip-path="url(#p8bf465d3db)" style="fill: #828282"/>
   </g>
   <g id="patch_113">
    <path d="M 148.583242 168.223425 
C 147.154696 168.986999 145.689523 169.679974 144.193013 170.299849 
C 142.696504 170.919723 141.170462 171.46575 139.6204 171.935956 
L 139.6204 171.935956 
C 141.170462 171.46575 142.696504 170.919723 144.193013 170.299849 
C 145.689523 169.679974 147.154696 168.986999 148.583242 168.223425 
z
" clip-path="url(#p8bf465d3db)" style="fill: #828282"/>
   </g>
   <g id="patch_114">
    <path d="M 141.01325 176.527565 
C 139.312898 177.043361 137.588246 177.475364 135.845525 177.822012 
C 134.102804 178.168661 132.344113 178.429538 130.575806 178.603701 
L 130.575806 178.603701 
C 132.344113 178.429538 134.102804 178.168661 135.845525 177.822012 
C 137.588246 177.475364 139.312898 177.043361 141.01325 176.527565 
z
" clip-path="url(#p8bf465d3db)" style="fill: #828282"/>
   </g>
   <g id="patch_115">
    <path d="M 130.793231 180.811257 
C 128.952668 180.992537 127.104313 181.083341 125.254844 181.083341 
C 123.405374 181.083341 121.55702 180.992537 119.716456 180.811257 
L 119.716456 180.811257 
C 121.55702 180.992537 123.405374 181.083341 125.254844 181.083341 
C 127.104313 181.083341 128.952668 180.992537 130.793231 180.811257 
z
" clip-path="url(#p8bf465d3db)" style="fill: #828282"/>
   </g>
   <g id="patch_116">
    <path d="M 120.52853 172.566128 
C 118.957842 172.411428 117.395696 172.179706 115.847734 171.871797 
C 114.299772 171.563888 112.767861 171.180165 111.257533 170.722012 
L 111.257533 170.722012 
C 112.767861 171.180165 114.299772 171.563888 115.847734 171.871797 
C 117.395696 172.179706 118.957842 172.411428 120.52853 172.566128 
z
" clip-path="url(#p8bf465d3db)" style="fill: #828282"/>
   </g>
   <g id="patch_117">
    <path d="M 110.591524 172.917551 
C 109.009333 172.437598 107.45166 171.880254 105.924131 171.247531 
C 104.396603 170.614808 102.90106 169.907469 101.442904 169.128068 
L 101.442904 169.128068 
C 102.90106 169.907469 104.396603 170.614808 105.924131 171.247531 
C 107.45166 171.880254 109.009333 172.437598 110.591524 172.917551 
z
" clip-path="url(#p8bf465d3db)" style="fill: #828282"/>
   </g>
   <g id="patch_118">
    <path d="M 100.98855 169.978105 
C 99.502572 169.183833 98.056485 168.317082 96.655515 167.380983 
C 95.254544 166.444885 93.900377 165.440566 92.597906 164.371656 
L 87.618155 170.439501 
C 89.119235 171.671406 90.679894 172.82887 92.294495 173.907711 
C 93.909095 174.986552 95.57569 175.985471 97.288261 176.900859 
z
" clip-path="url(#p8bf465d3db)" style="fill: #828282"/>
   </g>
   <g id="patch_119">
    <path d="M 102.920222 151.793878 
C 102.02944 151.062832 101.175088 150.288492 100.360251 149.473655 
C 99.545414 148.658818 98.771074 147.804466 98.040028 146.913684 
L 96.048336 148.548224 
C 96.832883 149.504196 97.663892 150.421074 98.538362 151.295544 
C 99.412833 152.170014 100.32971 153.001024 101.285682 153.78557 
z
" clip-path="url(#p8bf465d3db)" style="fill: #828282"/>
   </g>
   <g id="patch_120">
    <path d="M 94.764866 149.60154 
C 93.945843 148.603558 93.176312 147.565965 92.459052 146.49251 
C 91.741793 145.419055 91.077669 144.311031 90.46908 143.172441 
L 81.992998 147.703001 
C 82.749879 149.119026 83.575826 150.497036 84.467858 151.832055 
C 85.359889 153.167074 86.316928 154.457492 87.335518 155.698649 
z
" clip-path="url(#p8bf465d3db)" style="fill: #828282"/>
   </g>
   <g id="patch_121">
    <path d="M 84.52609 146.349035 
C 83.813526 145.015922 83.166844 143.648628 82.58838 142.252091 
C 82.009915 140.855553 81.500365 139.431457 81.061571 137.984945 
L 73.72239 140.211261 
C 74.234055 141.897996 74.828226 143.558592 75.502756 145.187052 
C 76.177287 146.815512 76.931363 148.409873 77.762262 149.964376 
z
" clip-path="url(#p8bf465d3db)" style="fill: #828282"/>
   </g>
   <g id="patch_122">
    <path d="M 62.991401 143.466471 
C 62.373188 141.428496 61.855406 139.361396 61.439927 137.272639 
C 61.024447 135.183881 60.71177 133.075984 60.503025 130.95656 
L 52.601106 131.734831 
C 52.835325 134.112896 53.18616 136.478029 53.652342 138.821686 
C 54.118524 141.165342 54.699493 143.484698 55.393149 145.771376 
z
" clip-path="url(#p8bf465d3db)" style="fill: #828282"/>
   </g>
   <g id="patch_123">
    <path d="M 58.31724 131.171841 
C 58.101448 128.980873 57.993357 126.780631 57.993357 124.579062 
C 57.993357 122.377494 58.101448 120.177252 58.31724 117.986284 
L 38.989936 116.082711 
C 38.711837 118.90629 38.572537 121.741821 38.572537 124.579062 
C 38.572537 127.416304 38.711837 130.251835 38.989936 133.075414 
z
" clip-path="url(#p8bf465d3db)" style="fill: #828282"/>
   </g>
   <g id="patch_124">
    <path d="M 69.154539 119.053665 
C 69.335393 117.217418 69.606293 115.391157 69.966261 113.58148 
C 70.326228 111.771802 70.774829 109.980888 71.310442 108.215207 
L 63.306501 105.787238 
C 62.691416 107.8149 62.176255 109.871538 61.762878 111.949725 
C 61.349501 114.027912 61.038406 116.125142 60.830718 118.23384 
z
" clip-path="url(#p8bf465d3db)" style="fill: #828282"/>
   </g>
   <g id="patch_125">
    <path d="M 54.585471 103.141743 
C 55.287147 100.828629 56.101967 98.551359 57.026988 96.31816 
C 57.95201 94.08496 58.986118 91.898522 60.125577 89.766744 
L 53.114636 86.019318 
C 51.852518 88.380575 50.707092 90.802375 49.682495 93.275971 
C 48.657898 95.749567 47.755366 98.271976 46.978157 100.834089 
z
" clip-path="url(#p8bf465d3db)" style="fill: #828282"/>
   </g>
   <g id="patch_126">
    <path d="M 75.690078 98.086143 
C 76.557231 96.463814 77.503513 94.885038 78.525506 93.355517 
C 79.547499 91.825996 80.643972 90.347574 81.810963 88.925591 
L 74.692938 83.083979 
C 73.334742 84.738946 72.058619 86.459599 70.869178 88.239723 
C 69.679738 90.019847 68.578413 91.857296 67.569182 93.745434 
z
" clip-path="url(#p8bf465d3db)" style="fill: #828282"/>
   </g>
   <g id="patch_127">
    <path d="M 81.855076 88.961794 
C 83.020882 87.541254 84.255731 86.178809 85.555161 84.879379 
C 86.85459 83.579949 88.217036 82.345101 89.637575 81.179295 
L 89.062679 80.478782 
C 87.619211 81.663406 86.234775 82.918186 84.914371 84.23859 
C 83.593967 85.558994 82.339187 86.94343 81.154564 88.386898 
z
" clip-path="url(#p8bf465d3db)" style="fill: #828282"/>
   </g>
   <g id="patch_128">
    <path d="M 92.010621 84.07086 
C 93.336515 82.982727 94.715034 81.960348 96.141199 81.007414 
C 97.567364 80.054481 99.039456 79.172143 100.552158 78.363588 
L 100.552158 78.363588 
C 99.039456 79.172143 97.567364 80.054481 96.141199 81.007414 
C 94.715034 81.960348 93.336515 82.982727 92.010621 84.07086 
z
" clip-path="url(#p8bf465d3db)" style="fill: #828282"/>
   </g>
   <g id="patch_129">
    <path d="M 87.029064 53.063658 
C 89.36987 51.812471 91.770694 50.676965 94.222867 49.661242 
C 96.675039 48.645519 99.175602 47.750804 101.715525 46.980327 
L 101.366212 45.828799 
C 98.788599 46.610709 96.250928 47.518702 93.762367 48.549498 
C 91.273806 49.580294 88.837354 50.73265 86.461811 52.002404 
z
" clip-path="url(#p8bf465d3db)" style="fill: #828282"/>
   </g>
   <g id="patch_130">
    <path d="M 104.854846 57.329282 
C 107.056031 56.661559 109.288674 56.102311 111.544709 55.653558 
C 113.800743 55.204805 116.077451 54.867087 118.366607 54.641625 
L 118.366607 54.641625 
C 116.077451 54.867087 113.800743 55.204805 111.544709 55.653558 
C 109.288674 56.102311 107.056031 56.661559 104.854846 57.329282 
z
" clip-path="url(#p8bf465d3db)" style="fill: #828282"/>
   </g>
   <g id="patch_131">
    <path d="M 125.254844 124.579063 
C 125.254844 124.579063 125.254844 124.579063 125.254844 124.579063 
C 125.254844 124.579063 125.254844 124.579063 125.254844 124.579063 
L 131.866281 57.452011 
C 129.669113 57.235609 127.462644 57.127212 125.254844 57.127212 
C 123.047044 57.127212 120.840575 57.235609 118.643406 57.452011 
L 125.254844 124.579063 
z
" clip-path="url(#p8bf465d3db)" style="fill: none; stroke: #292929; stroke-width: 0.5; stroke-linejoin: miter"/>
   </g>
   <g id="patch_132">
    <path d="M 125.254844 124.579063 
C 125.254844 124.579063 125.254844 124.579063 125.254844 124.579063 
C 125.254844 124.579063 125.254844 124.579063 125.254844 124.579063 
L 145.267168 58.607269 
C 143.107813 57.952236 140.917599 57.403616 138.704437 56.963391 
C 136.491275 56.523165 134.257833 56.191866 132.012179 55.970688 
L 125.254844 124.579063 
z
" clip-path="url(#p8bf465d3db)" style="fill: none; stroke: #292929; stroke-width: 0.5; stroke-linejoin: miter"/>
   </g>
   <g id="patch_133">
    <path d="M 125.254844 124.579063 
C 125.254844 124.579063 125.254844 124.579063 125.254844 124.579063 
C 125.254844 124.579063 125.254844 124.579063 125.254844 124.579063 
L 162.120963 55.607405 
C 159.863417 54.400722 157.547988 53.305606 155.183038 52.326011 
C 152.818087 51.346417 150.406467 50.483525 147.956888 49.740453 
L 125.254844 124.579063 
z
" clip-path="url(#p8bf465d3db)" style="fill: none; stroke: #292929; stroke-width: 0.5; stroke-linejoin: miter"/>
   </g>
   <g id="patch_134">
    <path d="M 125.254844 124.579063 
C 125.254844 124.579063 125.254844 124.579063 125.254844 124.579063 
C 125.254844 124.579063 125.254844 124.579063 125.254844 124.579063 
L 179.251202 58.78431 
C 177.097641 57.016929 174.858605 55.356346 172.542181 53.808561 
C 170.225757 52.260776 167.834737 50.827654 165.377757 49.514371 
L 125.254844 124.579063 
z
" clip-path="url(#p8bf465d3db)" style="fill: none; stroke: #292929; stroke-width: 0.5; stroke-linejoin: miter"/>
   </g>
   <g id="patch_135">
    <path d="M 125.254844 124.579063 
C 125.254844 124.579063 125.254844 124.579063 125.254844 124.579063 
C 125.254844 124.579063 125.254844 124.579063 125.254844 124.579063 
L 178.701974 80.716136 
C 177.266275 78.966732 175.74555 77.288871 174.145293 75.688613 
C 172.545035 74.088356 170.867174 72.567631 169.11777 71.131932 
L 125.254844 124.579063 
z
" clip-path="url(#p8bf465d3db)" style="fill: none; stroke: #292929; stroke-width: 0.5; stroke-linejoin: miter"/>
   </g>
   <g id="patch_136">
    <path d="M 125.254844 124.579063 
C 125.254844 124.579063 125.254844 124.579063 125.254844 124.579063 
C 125.254844 124.579063 125.254844 124.579063 125.254844 124.579063 
L 200.330604 84.450233 
C 199.017127 81.992891 197.583794 79.601518 196.03578 77.284753 
C 194.487767 74.967987 192.82694 72.728621 191.059298 70.574743 
L 125.254844 124.579063 
z
" clip-path="url(#p8bf465d3db)" style="fill: none; stroke: #292929; stroke-width: 0.5; stroke-linejoin: miter"/>
   </g>
   <g id="patch_137">
    <path d="M 125.254844 124.579063 
C 125.254844 124.579063 125.254844 124.579063 125.254844 124.579063 
C 125.254844 124.579063 125.254844 124.579063 125.254844 124.579063 
L 211.432918 98.437229 
C 210.577257 95.616492 209.583621 92.839466 208.455599 90.116181 
C 207.327578 87.392896 206.06653 84.726635 204.677012 82.127029 
L 125.254844 124.579063 
z
" clip-path="url(#p8bf465d3db)" style="fill: none; stroke: #292929; stroke-width: 0.5; stroke-linejoin: miter"/>
   </g>
   <g id="patch_138">
    <path d="M 125.254844 124.579063 
C 125.254844 124.579063 125.254844 124.579063 125.254844 124.579063 
C 125.254844 124.579063 125.254844 124.579063 125.254844 124.579063 
L 235.600928 113.710922 
C 235.245198 110.09913 234.712353 106.50698 234.004318 102.947447 
C 233.296283 99.387915 232.413911 95.86529 231.36039 92.392297 
L 125.254844 124.579063 
z
" clip-path="url(#p8bf465d3db)" style="fill: none; stroke: #292929; stroke-width: 0.5; stroke-linejoin: miter"/>
   </g>
   <g id="patch_139">
    <path d="M 125.254844 124.579063 
C 125.254844 124.579063 125.254844 124.579063 125.254844 124.579063 
C 125.254844 124.579063 125.254844 124.579063 125.254844 124.579063 
L 213.520681 133.272489 
C 213.80523 130.383416 213.947762 127.482114 213.947762 124.579063 
C 213.947762 121.676011 213.80523 118.774709 213.520681 115.885636 
L 125.254844 124.579063 
z
" clip-path="url(#p8bf465d3db)" style="fill: none; stroke: #292929; stroke-width: 0.5; stroke-linejoin: miter"/>
   </g>
   <g id="patch_140">
    <path d="M 125.254844 124.579063 
C 125.254844 124.579063 125.254844 124.579063 125.254844 124.579063 
C 125.254844 124.579063 125.254844 124.579063 125.254844 124.579063 
L 226.991551 155.440555 
C 228.001694 152.110561 228.847734 148.732978 229.526616 145.320008 
C 230.205498 141.907037 230.716404 138.462792 231.057487 134.999713 
L 125.254844 124.579063 
z
" clip-path="url(#p8bf465d3db)" style="fill: none; stroke: #292929; stroke-width: 0.5; stroke-linejoin: miter"/>
   </g>
   <g id="patch_141">
    <path d="M 125.254844 124.579063 
C 125.254844 124.579063 125.254844 124.579063 125.254844 124.579063 
C 125.254844 124.579063 125.254844 124.579063 125.254844 124.579063 
L 213.443429 171.716843 
C 214.986319 168.830299 216.386557 165.869743 217.639087 162.845869 
C 218.891617 159.821995 219.994928 156.738447 220.945035 153.606365 
L 125.254844 124.579063 
z
" clip-path="url(#p8bf465d3db)" style="fill: none; stroke: #292929; stroke-width: 0.5; stroke-linejoin: miter"/>
   </g>
   <g id="patch_142">
    <path d="M 125.254844 124.579063 
C 125.254844 124.579063 125.254844 124.579063 125.254844 124.579063 
C 125.254844 124.579063 125.254844 124.579063 125.254844 124.579063 
L 182.441697 171.5111 
C 183.977852 169.639289 185.421181 167.693185 186.76647 165.679817 
C 188.111759 163.66645 189.357387 161.588246 190.498853 159.452712 
L 125.254844 124.579063 
z
" clip-path="url(#p8bf465d3db)" style="fill: none; stroke: #292929; stroke-width: 0.5; stroke-linejoin: miter"/>
   </g>
   <g id="patch_143">
    <path d="M 125.254844 124.579063 
C 125.254844 124.579063 125.254844 124.579063 125.254844 124.579063 
C 125.254844 124.579063 125.254844 124.579063 125.254844 124.579063 
L 175.419954 185.705427 
C 177.420712 184.063448 179.339646 182.324227 181.169827 180.494046 
C 183.000008 178.663865 184.739229 176.74493 186.381208 174.744173 
L 125.254844 124.579063 
z
" clip-path="url(#p8bf465d3db)" style="fill: none; stroke: #292929; stroke-width: 0.5; stroke-linejoin: miter"/>
   </g>
   <g id="patch_144">
    <path d="M 125.254844 124.579063 
C 125.254844 124.579063 125.254844 124.579063 125.254844 124.579063 
C 125.254844 124.579063 125.254844 124.579063 125.254844 124.579063 
L 147.231069 165.693687 
C 148.576812 164.974373 149.886427 164.189419 151.155185 163.341663 
C 152.423943 162.493906 153.650313 161.584367 154.829867 160.616333 
L 125.254844 124.579063 
z
" clip-path="url(#p8bf465d3db)" style="fill: none; stroke: #292929; stroke-width: 0.5; stroke-linejoin: miter"/>
   </g>
   <g id="patch_145">
    <path d="M 125.254844 124.579063 
C 125.254844 124.579063 125.254844 124.579063 125.254844 124.579063 
C 125.254844 124.579063 125.254844 124.579063 125.254844 124.579063 
L 139.6204 171.935956 
C 141.170462 171.46575 142.696504 170.919723 144.193013 170.299849 
C 145.689523 169.679974 147.154696 168.986999 148.583242 168.223425 
L 125.254844 124.579063 
z
" clip-path="url(#p8bf465d3db)" style="fill: none; stroke: #292929; stroke-width: 0.5; stroke-linejoin: miter"/>
   </g>
   <g id="patch_146">
    <path d="M 125.254844 124.579063 
C 125.254844 124.579063 125.254844 124.579063 125.254844 124.579063 
C 125.254844 124.579063 125.254844 124.579063 125.254844 124.579063 
L 130.575806 178.603701 
C 132.344113 178.429538 134.102804 178.168661 135.845525 177.822012 
C 137.588246 177.475364 139.312898 177.043361 141.01325 176.527565 
L 125.254844 124.579063 
z
" clip-path="url(#p8bf465d3db)" style="fill: none; stroke: #292929; stroke-width: 0.5; stroke-linejoin: miter"/>
   </g>
   <g id="patch_147">
    <path d="M 125.254844 124.579063 
C 125.254844 124.579063 125.254844 124.579063 125.254844 124.579063 
C 125.254844 124.579063 125.254844 124.579063 125.254844 124.579063 
L 119.716456 180.811257 
C 121.55702 180.992537 123.405374 181.083341 125.254844 181.083341 
C 127.104313 181.083341 128.952668 180.992537 130.793231 180.811257 
L 125.254844 124.579063 
z
" clip-path="url(#p8bf465d3db)" style="fill: none; stroke: #292929; stroke-width: 0.5; stroke-linejoin: miter"/>
   </g>
   <g id="patch_148">
    <path d="M 125.254844 124.579063 
C 125.254844 124.579063 125.254844 124.579063 125.254844 124.579063 
C 125.254844 124.579063 125.254844 124.579063 125.254844 124.579063 
L 111.257533 170.722012 
C 112.767861 171.180165 114.299772 171.563888 115.847734 171.871797 
C 117.395696 172.179706 118.957842 172.411428 120.52853 172.566128 
L 125.254844 124.579063 
z
" clip-path="url(#p8bf465d3db)" style="fill: none; stroke: #292929; stroke-width: 0.5; stroke-linejoin: miter"/>
   </g>
   <g id="patch_149">
    <path d="M 125.254844 124.579063 
C 125.254844 124.579063 125.254844 124.579063 125.254844 124.579063 
C 125.254844 124.579063 125.254844 124.579063 125.254844 124.579063 
L 101.442904 169.128068 
C 102.90106 169.907469 104.396603 170.614808 105.924131 171.247531 
C 107.45166 171.880254 109.009333 172.437598 110.591524 172.917551 
L 125.254844 124.579063 
z
" clip-path="url(#p8bf465d3db)" style="fill: none; stroke: #292929; stroke-width: 0.5; stroke-linejoin: miter"/>
   </g>
   <g id="patch_150">
    <path d="M 125.254844 124.579063 
C 125.254844 124.579063 125.254844 124.579063 125.254844 124.579063 
C 125.254844 124.579063 125.254844 124.579063 125.254844 124.579063 
L 87.618155 170.439501 
C 89.119235 171.671406 90.679894 172.82887 92.294495 173.907711 
C 93.909095 174.986552 95.57569 175.985471 97.288261 176.900859 
L 125.254844 124.579063 
z
" clip-path="url(#p8bf465d3db)" style="fill: none; stroke: #292929; stroke-width: 0.5; stroke-linejoin: miter"/>
   </g>
   <g id="patch_151">
    <path d="M 125.254844 124.579063 
C 125.254844 124.579063 125.254844 124.579063 125.254844 124.579063 
C 125.254844 124.579063 125.254844 124.579063 125.254844 124.579063 
L 96.048336 148.548224 
C 96.832883 149.504196 97.663892 150.421074 98.538362 151.295544 
C 99.412833 152.170014 100.32971 153.001024 101.285682 153.78557 
L 125.254844 124.579063 
z
" clip-path="url(#p8bf465d3db)" style="fill: none; stroke: #292929; stroke-width: 0.5; stroke-linejoin: miter"/>
   </g>
   <g id="patch_152">
    <path d="M 125.254844 124.579063 
C 125.254844 124.579063 125.254844 124.579063 125.254844 124.579063 
C 125.254844 124.579063 125.254844 124.579063 125.254844 124.579063 
L 81.992998 147.703001 
C 82.749879 149.119026 83.575826 150.497036 84.467858 151.832055 
C 85.359889 153.167074 86.316928 154.457492 87.335518 155.698649 
L 125.254844 124.579063 
z
" clip-path="url(#p8bf465d3db)" style="fill: none; stroke: #292929; stroke-width: 0.5; stroke-linejoin: miter"/>
   </g>
   <g id="patch_153">
    <path d="M 125.254844 124.579063 
C 125.254844 124.579063 125.254844 124.579063 125.254844 124.579063 
C 125.254844 124.579063 125.254844 124.579063 125.254844 124.579063 
L 73.72239 140.211261 
C 74.234055 141.897996 74.828226 143.558592 75.502756 145.187052 
C 76.177287 146.815512 76.931363 148.409873 77.762262 149.964376 
L 125.254844 124.579063 
z
" clip-path="url(#p8bf465d3db)" style="fill: none; stroke: #292929; stroke-width: 0.5; stroke-linejoin: miter"/>
   </g>
   <g id="patch_154">
    <path d="M 125.254844 124.579063 
C 125.254844 124.579063 125.254844 124.579063 125.254844 124.579063 
C 125.254844 124.579063 125.254844 124.579063 125.254844 124.579063 
L 52.601106 131.734831 
C 52.835325 134.112896 53.18616 136.478029 53.652342 138.821686 
C 54.118524 141.165342 54.699493 143.484698 55.393149 145.771376 
L 125.254844 124.579063 
z
" clip-path="url(#p8bf465d3db)" style="fill: none; stroke: #292929; stroke-width: 0.5; stroke-linejoin: miter"/>
   </g>
   <g id="patch_155">
    <path d="M 125.254844 124.579063 
C 125.254844 124.579063 125.254844 124.579063 125.254844 124.579063 
C 125.254844 124.579063 125.254844 124.579063 125.254844 124.579063 
L 38.989936 116.082711 
C 38.711837 118.90629 38.572537 121.741821 38.572537 124.579062 
C 38.572537 127.416304 38.711837 130.251835 38.989936 133.075414 
L 125.254844 124.579063 
z
" clip-path="url(#p8bf465d3db)" style="fill: none; stroke: #292929; stroke-width: 0.5; stroke-linejoin: miter"/>
   </g>
   <g id="patch_156">
    <path d="M 125.254844 124.579063 
C 125.254844 124.579063 125.254844 124.579063 125.254844 124.579063 
C 125.254844 124.579063 125.254844 124.579063 125.254844 124.579063 
L 63.306501 105.787238 
C 62.691416 107.8149 62.176255 109.871538 61.762878 111.949725 
C 61.349501 114.027912 61.038406 116.125142 60.830718 118.23384 
L 125.254844 124.579063 
z
" clip-path="url(#p8bf465d3db)" style="fill: none; stroke: #292929; stroke-width: 0.5; stroke-linejoin: miter"/>
   </g>
   <g id="patch_157">
    <path d="M 125.254844 124.579063 
C 125.254844 124.579063 125.254844 124.579063 125.254844 124.579063 
C 125.254844 124.579063 125.254844 124.579063 125.254844 124.579063 
L 53.114636 86.019318 
C 51.852518 88.380575 50.707092 90.802375 49.682495 93.275971 
C 48.657898 95.749567 47.755366 98.271976 46.978157 100.834089 
L 125.254844 124.579063 
z
" clip-path="url(#p8bf465d3db)" style="fill: none; stroke: #292929; stroke-width: 0.5; stroke-linejoin: miter"/>
   </g>
   <g id="patch_158">
    <path d="M 125.254844 124.579063 
C 125.254844 124.579063 125.254844 124.579063 125.254844 124.579063 
C 125.254844 124.579063 125.254844 124.579063 125.254844 124.579063 
L 74.692938 83.083979 
C 73.334742 84.738946 72.058619 86.459599 70.869178 88.239723 
C 69.679738 90.019847 68.578413 91.857296 67.569182 93.745434 
L 125.254844 124.579063 
z
" clip-path="url(#p8bf465d3db)" style="fill: none; stroke: #292929; stroke-width: 0.5; stroke-linejoin: miter"/>
   </g>
   <g id="patch_159">
    <path d="M 125.254844 124.579063 
C 125.254844 124.579063 125.254844 124.579063 125.254844 124.579063 
C 125.254844 124.579063 125.254844 124.579063 125.254844 124.579063 
L 89.062679 80.478782 
C 87.619211 81.663406 86.234775 82.918186 84.914371 84.23859 
C 83.593967 85.558994 82.339187 86.94343 81.154564 88.386898 
L 125.254844 124.579063 
z
" clip-path="url(#p8bf465d3db)" style="fill: none; stroke: #292929; stroke-width: 0.5; stroke-linejoin: miter"/>
   </g>
   <g id="patch_160">
    <path d="M 125.254844 124.579063 
C 125.254844 124.579063 125.254844 124.579063 125.254844 124.579063 
C 125.254844 124.579063 125.254844 124.579063 125.254844 124.579063 
L 100.552158 78.363588 
C 99.039456 79.172143 97.567364 80.054481 96.141199 81.007414 
C 94.715034 81.960348 93.336515 82.982727 92.010621 84.07086 
L 125.254844 124.579063 
z
" clip-path="url(#p8bf465d3db)" style="fill: none; stroke: #292929; stroke-width: 0.5; stroke-linejoin: miter"/>
   </g>
   <g id="patch_161">
    <path d="M 125.254844 124.579063 
C 125.254844 124.579063 125.254844 124.579063 125.254844 124.579063 
C 125.254844 124.579063 125.254844 124.579063 125.254844 124.579063 
L 101.366212 45.828799 
C 98.788599 46.610709 96.250928 47.518702 93.762367 48.549498 
C 91.273806 49.580294 88.837354 50.73265 86.461811 52.002404 
L 125.254844 124.579063 
z
" clip-path="url(#p8bf465d3db)" style="fill: none; stroke: #292929; stroke-width: 0.5; stroke-linejoin: miter"/>
   </g>
   <g id="patch_162">
    <path d="M 125.254844 124.579063 
C 125.254844 124.579063 125.254844 124.579063 125.254844 124.579063 
C 125.254844 124.579063 125.254844 124.579063 125.254844 124.579063 
L 118.366607 54.641625 
C 116.077451 54.867087 113.800743 55.204805 111.544709 55.653558 
C 109.288674 56.102311 107.056031 56.661559 104.854846 57.329282 
L 125.254844 124.579063 
z
" clip-path="url(#p8bf465d3db)" style="fill: none; stroke: #292929; stroke-width: 0.5; stroke-linejoin: miter"/>
   </g>
   <g id="PathCollection_1">
    <defs>
     <path id="m0e8684701d" d="M 0.193618 7.414054 
L 0.193618 7.414054 
C 0.054922 7.414054 -0.078235 7.358899 -0.176308 7.260826 
C -0.274381 7.162753 -0.329536 7.029596 -0.329536 6.890901 
L -0.329536 5.365008 
L -1.528416 6.56393 
L -1.528416 6.56393 
C -1.577018 6.612704 -1.634775 6.651408 -1.698366 6.677814 
C -1.761958 6.704221 -1.830141 6.717815 -1.898997 6.717815 
C -1.967853 6.717815 -2.036037 6.704221 -2.099628 6.677814 
C -2.163219 6.651408 -2.220976 6.612704 -2.269578 6.56393 
L -2.269578 6.56393 
C -2.318353 6.515327 -2.357056 6.457571 -2.383463 6.393979 
C -2.409869 6.330388 -2.423463 6.262205 -2.423463 6.193348 
C -2.423463 6.124492 -2.409869 6.056309 -2.383463 5.992718 
C -2.357056 5.929126 -2.318353 5.87137 -2.269578 5.822767 
L -0.329536 3.884106 
L -0.329536 0.820937 
L -2.98067 2.351538 
L -3.691824 5.001416 
L -3.691824 5.001416 
C -3.727584 5.135411 -3.815199 5.249836 -3.93523 5.319305 
C -4.055261 5.388775 -4.198123 5.407741 -4.332122 5.371997 
L -4.332122 5.371997 
C -4.466126 5.336237 -4.580558 5.248616 -4.650029 5.128576 
C -4.719499 5.008535 -4.73846 4.865662 -4.702703 4.731657 
L -4.262647 3.092721 
L -5.585535 3.855668 
L -5.585535 3.855668 
C -5.645013 3.890144 -5.710708 3.912561 -5.778854 3.921634 
C -5.847001 3.930706 -5.916272 3.926258 -5.982698 3.908543 
C -6.049125 3.890828 -6.111412 3.860192 -6.165991 3.818391 
C -6.220571 3.77659 -6.266379 3.724437 -6.300791 3.664922 
L -6.300791 3.664922 
C -6.335212 3.605364 -6.35755 3.539597 -6.366524 3.471396 
C -6.375498 3.403194 -6.370933 3.333888 -6.35309 3.267452 
C -6.335248 3.201017 -6.304476 3.138749 -6.26254 3.08422 
C -6.220605 3.029692 -6.168323 2.983966 -6.108695 2.949666 
L -4.785807 2.186762 
L -6.424743 1.746706 
L -6.424743 1.746706 
C -6.558747 1.710946 -6.673179 1.623325 -6.74265 1.503284 
C -6.81212 1.383244 -6.831081 1.240371 -6.795324 1.106366 
L -6.795324 1.106366 
C -6.777471 1.039969 -6.746703 0.977739 -6.704784 0.923241 
C -6.662864 0.868744 -6.61061 0.823041 -6.551015 0.788752 
C -6.491421 0.754464 -6.425647 0.732257 -6.357465 0.723406 
C -6.289282 0.714554 -6.220019 0.71923 -6.153645 0.737166 
L -3.505232 1.44698 
L -0.852424 -0.08496 
L -3.503767 -1.615666 
L -6.153645 -0.905851 
L -6.153645 -0.905851 
C -6.22011 -0.887939 -6.289462 -0.883321 -6.357716 -0.892262 
C -6.42597 -0.901202 -6.491793 -0.923527 -6.551403 -0.957953 
C -6.611013 -0.992379 -6.663247 -1.038234 -6.705103 -1.092883 
C -6.746958 -1.147533 -6.777619 -1.209911 -6.795324 -1.276432 
L -6.795324 -1.276432 
C -6.831068 -1.410431 -6.812101 -1.553293 -6.742632 -1.673324 
C -6.673162 -1.793355 -6.558738 -1.88097 -6.424743 -1.91673 
L -4.785807 -2.355447 
L -6.108695 -3.119732 
L -6.108695 -3.119732 
C -6.228699 -3.188976 -6.316415 -3.303132 -6.352417 -3.436921 
C -6.388419 -3.57071 -6.369839 -3.713469 -6.300791 -3.833586 
L -6.300791 -3.833586 
C -6.266491 -3.893214 -6.220765 -3.945496 -6.166237 -3.987431 
C -6.111708 -4.029367 -6.04944 -4.060139 -5.983005 -4.077981 
C -5.91657 -4.095823 -5.847263 -4.100389 -5.779062 -4.091415 
C -5.71086 -4.082441 -5.645094 -4.060102 -5.585535 -4.025682 
L -4.262647 -3.261396 
L -4.702703 -4.900332 
L -4.702703 -4.900332 
C -4.73846 -5.034337 -4.719499 -5.17721 -4.650029 -5.29725 
C -4.580558 -5.417291 -4.466126 -5.504912 -4.332122 -5.540672 
L -4.332122 -5.540672 
C -4.19831 -5.576464 -4.055613 -5.557686 -3.935617 -5.488496 
C -3.81562 -5.419305 -3.727882 -5.305212 -3.691824 -5.171472 
L -2.982009 -2.521594 
L -0.329411 -0.990302 
L -0.329411 -4.051588 
L -2.269453 -5.991589 
L -2.269453 -5.991589 
C -2.318227 -6.040191 -2.356931 -6.097947 -2.383337 -6.161539 
C -2.409744 -6.22513 -2.423338 -6.293314 -2.423338 -6.36217 
C -2.423338 -6.431026 -2.409744 -6.499209 -2.383337 -6.5628 
C -2.356931 -6.626392 -2.318227 -6.684149 -2.269453 -6.732751 
L -2.269453 -6.732751 
C -2.22085 -6.781526 -2.163094 -6.820229 -2.099502 -6.846635 
C -2.035911 -6.873042 -1.967728 -6.886636 -1.898871 -6.886636 
C -1.830015 -6.886636 -1.761832 -6.873042 -1.698241 -6.846635 
C -1.634649 -6.820229 -1.576893 -6.781526 -1.52829 -6.732751 
L -0.329411 -5.533829 
L -0.329411 -7.059722 
L -0.329411 -7.059722 
C -0.329411 -7.198418 -0.274255 -7.331575 -0.176182 -7.429647 
C -0.07811 -7.52772 0.055047 -7.582875 0.193743 -7.582875 
L 0.193743 -7.582875 
C 0.332439 -7.582875 0.465596 -7.52772 0.563669 -7.429647 
C 0.661741 -7.331575 0.716897 -7.198418 0.716897 -7.059722 
L 0.716897 -5.533829 
L 1.915777 -6.732751 
L 1.915777 -6.732751 
C 1.964379 -6.781526 2.022136 -6.820229 2.085727 -6.846635 
C 2.149318 -6.873042 2.217502 -6.886636 2.286358 -6.886636 
C 2.355214 -6.886636 2.423397 -6.873042 2.486989 -6.846635 
C 2.55058 -6.820229 2.608337 -6.781526 2.656939 -6.732751 
L 2.656939 -6.732751 
C 2.705714 -6.684149 2.744417 -6.626392 2.770823 -6.5628 
C 2.79723 -6.499209 2.810824 -6.431026 2.810824 -6.36217 
C 2.810824 -6.293314 2.79723 -6.22513 2.770823 -6.161539 
C 2.744417 -6.097947 2.705714 -6.040191 2.656939 -5.991589 
L 0.716897 -4.051588 
L 0.716897 -0.991139 
L 3.369495 -2.522954 
L 4.07931 -5.171367 
L 4.07931 -5.171367 
C 4.115368 -5.305107 4.203106 -5.4192 4.323103 -5.488391 
C 4.4431 -5.557582 4.585797 -5.576359 4.719608 -5.540567 
L 4.719608 -5.540567 
C 4.853612 -5.504807 4.968045 -5.417186 5.037515 -5.297146 
C 5.106986 -5.177105 5.125946 -5.034232 5.090189 -4.900227 
L 4.650133 -3.262673 
L 5.973022 -4.025577 
L 5.973022 -4.025577 
C 6.03258 -4.059998 6.098346 -4.082336 6.166548 -4.09131 
C 6.234749 -4.100284 6.304056 -4.095719 6.370491 -4.077876 
C 6.436926 -4.060034 6.499194 -4.029262 6.553723 -3.987327 
C 6.608252 -3.945391 6.653978 -3.893109 6.688277 -3.833481 
L 6.688277 -3.833481 
C 6.757325 -3.713365 6.775905 -3.570605 6.739903 -3.436816 
C 6.703901 -3.303027 6.616186 -3.188871 6.496181 -3.119628 
L 5.173293 -2.355342 
L 6.812229 -1.916625 
L 6.812229 -1.916625 
C 6.946224 -1.880865 7.060649 -1.79325 7.130118 -1.67322 
C 7.199588 -1.553189 7.218554 -1.410326 7.18281 -1.276327 
L 7.18281 -1.276327 
C 7.165106 -1.209806 7.134445 -1.147429 7.092589 -1.092779 
C 7.050733 -1.038129 6.998499 -0.992274 6.938889 -0.957848 
C 6.879279 -0.923422 6.813456 -0.901098 6.745202 -0.892157 
C 6.676949 -0.883217 6.607597 -0.887835 6.541131 -0.905746 
L 3.891253 -1.615561 
L 1.239492 -0.084604 
L 3.892718 1.447085 
L 6.541131 0.73727 
L 6.541131 0.73727 
C 6.674948 0.701466 6.817656 0.720237 6.937662 0.789429 
C 7.057669 0.858621 7.145413 0.972721 7.181471 1.10647 
L 7.181471 1.10647 
C 7.217274 1.240293 7.198497 1.383006 7.129297 1.503014 
C 7.060096 1.623021 6.945986 1.710762 6.812229 1.74681 
L 5.173293 2.186866 
L 6.496181 2.949771 
L 6.496181 2.949771 
C 6.555697 2.984183 6.607849 3.029991 6.649651 3.08457 
C 6.691452 3.13915 6.722088 3.201437 6.739803 3.267863 
C 6.757517 3.33429 6.761966 3.403561 6.752893 3.471707 
C 6.743821 3.539854 6.721404 3.605549 6.686927 3.665026 
L 6.686927 3.665026 
C 6.617458 3.784813 6.503196 3.87225 6.369416 3.907994 
C 6.235636 3.943739 6.092989 3.924946 5.973032 3.855772 
L 4.650144 3.091487 
L 5.08886 4.731783 
L 5.08886 4.731783 
C 5.124664 4.865606 5.105887 5.008319 5.036686 5.128326 
C 4.967486 5.248334 4.853376 5.336074 4.719619 5.372123 
L 4.719619 5.372123 
C 4.585619 5.407867 4.442757 5.3889 4.322726 5.319431 
C 4.202695 5.249961 4.115081 5.135537 4.07932 5.001542 
L 3.368166 2.351664 
L 0.717033 0.821063 
L 0.717033 3.884232 
L 2.657075 5.822893 
L 2.657075 5.822893 
C 2.70585 5.871495 2.744553 5.929252 2.770959 5.992843 
C 2.797366 6.056435 2.81096 6.124618 2.81096 6.193474 
C 2.81096 6.26233 2.797366 6.330514 2.770959 6.394105 
C 2.744553 6.457696 2.70585 6.515453 2.657075 6.564055 
L 2.657075 6.564055 
C 2.608473 6.61283 2.550716 6.651533 2.487125 6.67794 
C 2.423533 6.704346 2.35535 6.71794 2.286494 6.71794 
C 2.217638 6.71794 2.149454 6.704346 2.085863 6.67794 
C 2.022272 6.651533 1.964515 6.61283 1.915913 6.564055 
L 0.717033 5.365133 
L 0.717033 6.891026 
L 0.717033 6.891026 
C 0.717033 7.029722 0.661877 7.162879 0.563805 7.260952 
C 0.465732 7.359024 0.332575 7.41418 0.193879 7.41418 
L 0.193618 7.414054 
z
"/>
    </defs>
    <g clip-path="url(#p8bf465d3db)">
     <use xlink:href="#m0e8684701d" x="147.001317" y="111.810164" style="fill: #9e2096; fill-opacity: 0.7"/>
    </g>
   </g>
   <g id="patch_163">
    <path d="M 125.254844 13.699063 
C 110.694216 13.699063 96.275171 16.567189 82.822905 22.1393 
C 69.370638 27.711411 57.146763 35.879144 46.850844 46.175063 
C 36.554925 56.470982 28.387192 68.694857 22.815081 82.147124 
C 17.24297 95.59939 14.374844 110.018434 14.374844 124.579063 
C 14.374844 139.139691 17.24297 153.558735 22.815081 167.011001 
C 28.387192 180.463268 36.554925 192.687143 46.850844 202.983062 
C 57.146763 213.278981 69.370638 221.446714 82.822905 227.018825 
C 96.275171 232.590936 110.694216 235.459063 125.254844 235.459063 
C 139.815472 235.459063 154.234516 232.590936 167.686783 227.018825 
C 181.139049 221.446714 193.362925 213.278981 203.658844 202.983062 
C 213.954763 192.687143 222.122495 180.463268 227.694606 167.011001 
C 233.266717 153.558735 236.134844 139.139691 236.134844 124.579063 
C 236.134844 110.018434 233.266717 95.59939 227.694606 82.147124 
C 222.122495 68.694857 213.954763 56.470982 203.658844 46.175063 
C 193.362925 35.879144 181.139049 27.711411 167.686783 22.1393 
C 154.234516 16.567189 139.815472 13.699063 125.254844 13.699063 
" style="fill: none; stroke: #000000; stroke-width: 0.8; stroke-linejoin: miter; stroke-linecap: square"/>
   </g>
  </g>
 </g>
 <defs>
  <clipPath id="p8bf465d3db">
   <path d="M 236.134844 124.579063 
C 236.134844 110.018434 233.266717 95.59939 227.694606 82.147124 
C 222.122495 68.694857 213.954763 56.470982 203.658844 46.175063 
C 193.362925 35.879144 181.139049 27.711411 167.686783 22.1393 
C 154.234516 16.567189 139.815472 13.699063 125.254844 13.699063 
C 110.694216 13.699063 96.275171 16.567189 82.822905 22.1393 
C 69.370638 27.711411 57.146763 35.879144 46.850844 46.175063 
C 36.554925 56.470982 28.387192 68.694857 22.815081 82.147124 
C 17.24297 95.59939 14.374844 110.018434 14.374844 124.579062 
C 14.374844 139.139691 17.24297 153.558735 22.815081 167.011001 
C 28.387192 180.463268 36.554925 192.687143 46.850844 202.983062 
C 57.146763 213.278981 69.370638 221.446714 82.822905 227.018825 
C 96.275171 232.590936 110.694216 235.459063 125.254844 235.459063 
C 139.815472 235.459063 154.234516 232.590936 167.686783 227.018825 
C 181.139049 221.446714 193.362925 213.278981 203.658844 202.983062 
C 213.954763 192.687143 222.122495 180.463268 227.694606 167.011001 
C 233.266717 153.558735 236.134844 139.139691 236.134844 124.579063 
M 125.254844 124.579063 
C 125.254844 124.579063 125.254844 124.579063 125.254844 124.579063 
C 125.254844 124.579063 125.254844 124.579063 125.254844 124.579063 
C 125.254844 124.579063 125.254844 124.579063 125.254844 124.579063 
C 125.254844 124.579063 125.254844 124.579063 125.254844 124.579063 
C 125.254844 124.579063 125.254844 124.579063 125.254844 124.579063 
C 125.254844 124.579063 125.254844 124.579063 125.254844 124.579063 
C 125.254844 124.579063 125.254844 124.579063 125.254844 124.579063 
C 125.254844 124.579063 125.254844 124.579063 125.254844 124.579063 
C 125.254844 124.579063 125.254844 124.579063 125.254844 124.579063 
C 125.254844 124.579063 125.254844 124.579063 125.254844 124.579063 
C 125.254844 124.579063 125.254844 124.579063 125.254844 124.579063 
C 125.254844 124.579063 125.254844 124.579063 125.254844 124.579063 
C 125.254844 124.579063 125.254844 124.579063 125.254844 124.579063 
C 125.254844 124.579063 125.254844 124.579063 125.254844 124.579063 
C 125.254844 124.579063 125.254844 124.579063 125.254844 124.579063 
C 125.254844 124.579063 125.254844 124.579063 125.254844 124.579063 
z
"/>
  </clipPath>
 </defs>
</svg>
