<?xml version="1.0" encoding="utf-8" standalone="no"?>
<!DOCTYPE svg PUBLIC "-//W3C//DTD SVG 1.1//EN"
  "http://www.w3.org/Graphics/SVG/1.1/DTD/svg11.dtd">
<svg xmlns:xlink="http://www.w3.org/1999/xlink" width="248.410469pt" height="249.158125pt" viewBox="0 0 248.410469 249.158125" xmlns="http://www.w3.org/2000/svg" version="1.1">
 <title>Ski Rose for Le Lioran</title>
 <metadata>
  <rdf:RDF xmlns:dc="http://purl.org/dc/elements/1.1/" xmlns:cc="http://creativecommons.org/ns#" xmlns:rdf="http://www.w3.org/1999/02/22-rdf-syntax-ns#">
   <cc:Work>
    <dc:type rdf:resource="http://purl.org/dc/dcmitype/StillImage"/>
    <dc:title>Ski Rose for Le Lioran</dc:title>
    <dc:date>2025-11-29T10:31:04.665989</dc:date>
    <dc:description>A 32-bin stacked histogram of downhill ski run orientations colored by difficulty.</dc:description>
    <dc:format>image/svg+xml</dc:format>
    <dc:source>https://openskimap.org/?obj=6208d6a6c26a9334502b7ae9b86530535e38163a</dc:source>
    <dc:creator>
     <cc:Agent>
      <dc:title>https://github.com/dhimmel/openskistats</dc:title>
     </cc:Agent>
    </dc:creator>
    <dc:rights>
     <cc:Agent>
      <dc:title>https://creativecommons.org/licenses/by/4.0/</dc:title>
     </cc:Agent>
    </dc:rights>
   </cc:Work>
  </rdf:RDF>
 </metadata>
 <defs>
  <style type="text/css">*{stroke-linejoin: round; stroke-linecap: butt}</style>
 </defs>
 <g id="figure_1">
  <g id="patch_1">
   <path d="M 0 249.158125 
L 248.410469 249.158125 
L 248.410469 0 
L 0 0 
z
" style="fill: #ffffff"/>
  </g>
  <g id="axes_1">
   <g id="patch_2">
    <path d="M 236.134844 124.579063 
C 236.134844 110.018434 233.266717 95.59939 227.694606 82.147124 
C 222.122495 68.694857 213.954763 56.470982 203.658844 46.175063 
C 193.362925 35.879144 181.139049 27.711411 167.686783 22.1393 
C 154.234516 16.567189 139.815472 13.699063 125.254844 13.699063 
C 110.694216 13.699063 96.275171 16.567189 82.822905 22.1393 
C 69.370638 27.711411 57.146763 35.879144 46.850844 46.175063 
C 36.554925 56.470982 28.387192 68.694857 22.815081 82.147124 
C 17.24297 95.59939 14.374844 110.018434 14.374844 124.579062 
C 14.374844 139.139691 17.24297 153.558735 22.815081 167.011001 
C 28.387192 180.463268 36.554925 192.687143 46.850844 202.983062 
C 57.146763 213.278981 69.370638 221.446714 82.822905 227.018825 
C 96.275171 232.590936 110.694216 235.459063 125.254844 235.459063 
C 139.815472 235.459063 154.234516 232.590936 167.686783 227.018825 
C 181.139049 221.446714 193.362925 213.278981 203.658844 202.983062 
C 213.954763 192.687143 222.122495 180.463268 227.694606 167.011001 
C 233.266717 153.558735 236.134844 139.139691 236.134844 124.579063 
M 125.254844 124.579063 
C 125.254844 124.579063 125.254844 124.579063 125.254844 124.579063 
C 125.254844 124.579063 125.254844 124.579063 125.254844 124.579063 
C 125.254844 124.579063 125.254844 124.579063 125.254844 124.579063 
C 125.254844 124.579063 125.254844 124.579063 125.254844 124.579063 
C 125.254844 124.579063 125.254844 124.579063 125.254844 124.579063 
C 125.254844 124.579063 125.254844 124.579063 125.254844 124.579063 
C 125.254844 124.579063 125.254844 124.579063 125.254844 124.579063 
C 125.254844 124.579063 125.254844 124.579063 125.254844 124.579063 
C 125.254844 124.579063 125.254844 124.579063 125.254844 124.579063 
C 125.254844 124.579063 125.254844 124.579063 125.254844 124.579063 
C 125.254844 124.579063 125.254844 124.579063 125.254844 124.579063 
C 125.254844 124.579063 125.254844 124.579063 125.254844 124.579063 
C 125.254844 124.579063 125.254844 124.579063 125.254844 124.579063 
C 125.254844 124.579063 125.254844 124.579063 125.254844 124.579063 
C 125.254844 124.579063 125.254844 124.579063 125.254844 124.579063 
C 125.254844 124.579063 125.254844 124.579063 125.254844 124.579063 
z
" style="fill: #ffffff"/>
   </g>
   <g id="FillBetweenPolyCollection_1">
    <defs>
     <path id="m01574b296a" d="M 235.284924 -137.115407 
L 234.912016 -137.072919 
L 234.150052 -135.064478 
L 233.111956 -133.067601 
L 232.004169 -131.108131 
L 231.051921 -129.198263 
L 229.843385 -127.31781 
L 228.592999 -125.480881 
L 227.52004 -123.686608 
L 226.198342 -121.935764 
L 224.84489 -120.230867 
L 223.677431 -118.559279 
L 222.267224 -116.944023 
L 221.046256 -115.355399 
L 219.58684 -113.831289 
L 218.318886 -112.326949 
L 216.817256 -110.894968 
L 215.508528 -109.475775 
L 213.971411 -108.136419 
L 212.627968 -106.802799 
L 211.268669 -105.510256 
L 209.894868 -104.25879 
L 208.304538 -103.100951 
L 206.907628 -101.934741 
L 205.500362 -100.809257 
L 204.08407 -99.724303 
L 202.660071 -98.679636 
L 201.229678 -97.674963 
L 199.794194 -96.709941 
L 198.542687 -95.710213 
L 197.09818 -94.820578 
L 195.65231 -93.969373 
L 194.385928 -93.074212 
L 192.938041 -92.295833 
L 191.492405 -91.554233 
L 190.220677 -90.75999 
L 188.947211 -89.996929 
L 187.50855 -89.35761 
L 186.237412 -88.657584 
L 184.967212 -87.987276 
L 183.698777 -87.34617 
L 182.282191 -86.833485 
L 181.023199 -86.250534 
L 179.768416 -85.69491 
L 178.518588 -85.165965 
L 177.410779 -84.558406 
L 176.169246 -84.079918 
L 174.934702 -83.626148 
L 173.707793 -83.196335 
L 172.489138 -82.789689 
L 171.396871 -82.297684 
L 170.192463 -81.934854 
L 169.108001 -81.484684 
L 167.919806 -81.162881 
L 166.844898 -80.75229 
L 165.674659 -80.468575 
L 164.610857 -80.095182 
L 163.460077 -79.846481 
L 162.408726 -79.507799 
L 161.362263 -79.185816 
L 160.320949 -78.880025 
L 159.208479 -78.693358 
L 158.181666 -78.417361 
L 157.160632 -78.155853 
L 156.145543 -77.908306 
L 155.136544 -77.674188 
L 154.133753 -77.452965 
L 153.137266 -77.244102 
L 152.147154 -77.047065 
L 151.163462 -76.861324 
L 150.186213 -76.686348 
L 149.215404 -76.521613 
L 148.251008 -76.366601 
L 147.292974 -76.220798 
L 146.341226 -76.083703 
L 145.427188 -75.878717 
L 144.48498 -75.760518 
L 143.548784 -75.649698 
L 142.618435 -75.545794 
L 141.693747 -75.448361 
L 140.793875 -75.29555 
L 139.877655 -75.21328 
L 138.966524 -75.13634 
L 138.060219 -75.06435 
L 137.170023 -74.948768 
L 136.270762 -74.889467 
L 135.375554 -74.834181 
L 134.491073 -74.744828 
L 133.60161 -74.700757 
L 132.715306 -74.659942 
L 131.835331 -74.595298 
L 130.953278 -74.564549 
L 130.075304 -74.516667 
L 129.19651 -74.495438 
L 128.319238 -74.476659 
L 127.443444 -74.451869 
L 126.567727 -74.442056 
L 125.692449 -74.434486 
L 124.817236 -74.434153 
L 123.942022 -74.444412 
L 123.066449 -74.456576 
L 122.190833 -74.482928 
L 121.313854 -74.504042 
L 120.435435 -74.527591 
L 119.557829 -74.577003 
L 118.676297 -74.610037 
L 117.792286 -74.645924 
L 116.911169 -74.719231 
L 116.022448 -74.765512 
L 115.130286 -74.81527 
L 114.244304 -74.913725 
L 113.345994 -74.975133 
L 112.443387 -75.040835 
L 111.55141 -75.166076 
L 110.641428 -75.244999 
L 109.726423 -75.329202 
L 108.8276 -75.483206 
L 107.904243 -75.582477 
L 106.975285 -75.688163 
L 106.040539 -75.800707 
L 105.099836 -75.920569 
L 104.18708 -76.126523 
L 103.236934 -76.26517 
L 102.280552 -76.412458 
L 101.317855 -76.56889 
L 100.34879 -76.734978 
L 99.373327 -76.911238 
L 98.391461 -77.098194 
L 97.403212 -77.296375 
L 96.408624 -77.506311 
L 95.407766 -77.728536 
L 94.400731 -77.963583 
L 93.387635 -78.211985 
L 92.368619 -78.474276 
L 91.343849 -78.750983 
L 90.233796 -78.938745 
L 89.19457 -79.245086 
L 88.150212 -79.567545 
L 87.100983 -79.906631 
L 85.9527 -80.15607 
L 84.891048 -80.529709 
L 83.723331 -80.81398 
L 82.650591 -81.22466 
L 81.464937 -81.546841 
L 80.382655 -81.996946 
L 79.180797 -82.359977 
L 78.090716 -82.851767 
L 76.874613 -83.258442 
L 75.650254 -83.688194 
L 74.418257 -84.141815 
L 73.31524 -84.724403 
L 72.073626 -85.227032 
L 70.826328 -85.755579 
L 69.574064 -86.310723 
L 68.317581 -86.893111 
L 67.057645 -87.503358 
L 65.637909 -88.045758 
L 64.37018 -88.715255 
L 63.1015 -89.414392 
L 61.832714 -90.143656 
L 60.394605 -90.81496 
L 59.125286 -91.608081 
L 57.682407 -92.348663 
L 56.416485 -93.207615 
L 54.973231 -94.019748 
L 53.530063 -94.869686 
L 52.275644 -95.831791 
L 50.839027 -96.756129 
L 49.406188 -97.719645 
L 47.978419 -98.722733 
L 46.557025 -99.765736 
L 45.143317 -100.848947 
L 43.738616 -101.972612 
L 42.344249 -103.136925 
L 40.96155 -104.342033 
L 39.591858 -105.588036 
L 38.028707 -106.832704 
L 36.687719 -108.164116 
L 35.363921 -109.536481 
L 33.847105 -110.918084 
L 32.560844 -112.375666 
L 31.082641 -113.849495 
L 29.840018 -115.39166 
L 28.407233 -116.95699 
L 27.214545 -118.582661 
L 25.834325 -120.238269 
L 24.698277 -121.945896 
L 23.378506 -123.690001 
L 22.092732 -125.479345 
L 21.057011 -127.307579 
L 19.847992 -129.181225 
L 18.685102 -131.097147 
L 17.78119 -133.037422 
L 16.733304 -135.028498 
L 15.768284 -137.05348 
L 15.158327 -137.122976 
L 15.158327 -137.122976 
L 14.905756 -135.204471 
L 14.820289 -133.27045 
L 14.582262 -131.348088 
L 14.562308 -129.412003 
L 14.442024 -127.480798 
L 14.433764 -125.546183 
L 14.379364 -123.611467 
L 14.488938 -121.678555 
L 14.50047 -119.743422 
L 14.615957 -117.812098 
L 14.877853 -115.892205 
L 14.926995 -113.955699 
L 15.191267 -112.038902 
L 15.364703 -110.111751 
L 15.625395 -108.194832 
L 15.978063 -106.292401 
L 16.247223 -104.375694 
L 16.660474 -102.485288 
L 17.102778 -100.602327 
L 17.468114 -98.701758 
L 17.971064 -96.83359 
L 18.431354 -94.954287 
L 18.991947 -93.102558 
L 19.58198 -91.260536 
L 20.106982 -89.39708 
L 20.758237 -87.574873 
L 21.43921 -85.763987 
L 22.15011 -83.965028 
L 22.819884 -82.149113 
L 23.592736 -80.37512 
L 24.397127 -78.615553 
L 25.233659 -76.871405 
L 26.040238 -75.112485 
L 26.946141 -73.402791 
L 27.832647 -71.683125 
L 28.765084 -69.987783 
L 29.781265 -68.340827 
L 30.723806 -66.650368 
L 31.743173 -65.005558 
L 32.804642 -63.387609 
L 34.145714 -61.961493 
L 35.959506 -60.885317 
L 37.802592 -59.8678 
L 39.659136 -58.899166 
L 41.528671 -57.980257 
L 43.398659 -57.102031 
L 45.272705 -56.267863 
L 47.140736 -55.469538 
L 48.94775 -54.656494 
L 50.810942 -53.934438 
L 52.609991 -53.191164 
L 54.455707 -52.533337 
L 56.242572 -51.855302 
L 58.022983 -51.208361 
L 59.796231 -50.59156 
L 61.561677 -50.003946 
L 63.318742 -49.444563 
L 65.066905 -48.912453 
L 66.805697 -48.406651 
L 68.497795 -47.876313 
L 70.218452 -47.420887 
L 71.891806 -46.935361 
L 73.593047 -46.526601 
L 75.253337 -46.092419 
L 76.902572 -45.675326 
L 78.573809 -45.330391 
L 80.208601 -44.960097 
L 81.832048 -44.604221 
L 83.45027 -44.273224 
L 85.057139 -43.954941 
L 86.658565 -43.660281 
L 88.231212 -43.338116 
L 89.814594 -43.072067 
L 91.392396 -42.827883 
L 92.959444 -42.592413 
L 94.506233 -42.338168 
L 96.061168 -42.138664 
L 97.596063 -41.91568 
L 99.134778 -41.736797 
L 100.658428 -41.542955 
L 102.186123 -41.395942 
L 103.699166 -41.229441 
L 105.207708 -41.076732 
L 106.716419 -40.957631 
L 108.215848 -40.829723 
L 109.711472 -40.714532 
L 111.203536 -40.611756 
L 112.695351 -40.541532 
L 114.180495 -40.461029 
L 115.662957 -40.392156 
L 117.143035 -40.334709 
L 118.621034 -40.288513 
L 120.097266 -40.253418 
L 121.57213 -40.231039 
L 123.045717 -40.21593 
L 124.51858 -40.211633 
L 125.991094 -40.213169 
L 127.463884 -40.219219 
L 128.937401 -40.23464 
L 130.411986 -40.260525 
L 131.888997 -40.284147 
L 133.367081 -40.330257 
L 134.847247 -40.387621 
L 136.3298 -40.456414 
L 137.815038 -40.536839 
L 139.303246 -40.629123 
L 140.797711 -40.717255 
L 142.293308 -40.832337 
L 143.792713 -40.960136 
L 145.303193 -41.071679 
L 146.811843 -41.224331 
L 148.324997 -41.390778 
L 149.850654 -41.545 
L 151.374299 -41.738735 
L 152.915405 -41.910359 
L 154.450418 -42.133305 
L 156.002857 -42.339765 
L 157.549655 -42.593907 
L 159.119556 -42.822415 
L 160.694542 -43.073337 
L 162.280993 -43.332593 
L 163.853764 -43.654744 
L 165.45207 -43.955899 
L 167.062315 -44.267658 
L 168.67723 -44.604975 
L 170.304242 -44.954521 
L 171.935549 -45.330951 
L 173.606835 -45.675783 
L 175.259896 -46.086854 
L 176.916456 -46.526881 
L 178.617754 -46.935547 
L 180.295167 -47.415375 
L 182.015954 -47.870825 
L 183.704034 -48.406595 
L 185.442891 -48.912317 
L 187.19112 -49.444351 
L 188.948253 -50.003662 
L 190.713769 -50.591207 
L 192.487087 -51.207944 
L 194.267569 -51.854824 
L 196.054506 -52.532803 
L 197.904844 -53.186106 
L 199.703999 -53.929452 
L 201.562692 -54.655802 
L 203.369779 -55.468806 
L 205.242519 -56.263134 
L 207.112006 -57.101225 
L 208.98668 -57.975753 
L 210.851663 -58.898313 
L 212.712767 -59.863604 
L 214.551388 -60.884456 
L 216.369441 -61.957735 
L 217.709003 -63.38499 
L 218.758612 -65.010593 
L 219.781061 -66.653322 
L 220.73897 -68.334614 
L 221.737425 -69.991844 
L 222.687315 -71.677547 
L 223.510332 -73.430493 
L 224.402785 -75.145722 
L 225.244768 -76.886315 
L 226.035865 -78.650505 
L 226.932217 -80.368482 
L 227.582956 -82.193371 
L 228.373606 -83.959502 
L 229.054234 -85.770061 
L 229.7419 -87.578255 
L 230.38285 -89.403724 
L 230.977292 -91.244903 
L 231.525476 -93.100267 
L 232.027704 -94.968328 
L 232.595136 -96.818975 
L 233.013584 -98.708478 
L 233.441114 -100.594744 
L 233.895178 -102.475937 
L 234.227154 -104.382239 
L 234.606552 -106.279862 
L 234.846217 -108.200522 
L 235.151686 -110.110869 
L 235.271068 -112.044297 
L 235.535527 -113.960241 
L 235.761679 -115.881986 
L 235.923876 -117.810255 
L 235.890625 -119.7486 
L 236.007055 -121.678914 
L 236.087557 -123.61184 
L 236.110331 -125.546484 
L 235.957074 -127.477902 
L 235.912036 -129.41046 
L 235.856055 -131.343722 
L 235.767407 -133.27659 
L 235.622501 -135.206259 
L 235.284924 -137.115407 
z
" style="stroke: #ffee9c"/>
    </defs>
    <g clip-path="url(#p33d2a35572)">
     <use xlink:href="#m01574b296a" x="0" y="249.158125" style="fill: #ffee9c; stroke: #ffee9c"/>
    </g>
   </g>
   <g id="matplotlib.axis_1">
    <g id="xtick_1">
     <g id="line2d_1">
      <path d="M 125.254844 124.579063 
L 125.254844 13.699063 
" clip-path="url(#p33d2a35572)" style="fill: none; stroke: #b0b0b0; stroke-width: 0.8; stroke-linecap: square"/>
     </g>
     <g id="text_1">
      <!-- N -->
      <g transform="translate(121.070469 7.958438) scale(0.1 -0.1)">
       <defs>
        <path id="DejaVuSans-Bold-4e" d="M 588 4666 
L 1931 4666 
L 3628 1466 
L 3628 4666 
L 4769 4666 
L 4769 0 
L 3425 0 
L 1728 3200 
L 1728 0 
L 588 0 
L 588 4666 
z
" transform="scale(0.015625)"/>
       </defs>
       <use xlink:href="#DejaVuSans-Bold-4e"/>
      </g>
     </g>
    </g>
    <g id="xtick_2">
     <g id="line2d_2">
      <path d="M 125.254844 124.579063 
L 203.658844 46.175063 
" clip-path="url(#p33d2a35572)" style="fill: none; stroke: #b0b0b0; stroke-width: 0.8; stroke-linecap: square"/>
     </g>
    </g>
    <g id="xtick_3">
     <g id="line2d_3">
      <path d="M 125.254844 124.579063 
L 236.134844 124.579063 
" clip-path="url(#p33d2a35572)" style="fill: none; stroke: #b0b0b0; stroke-width: 0.8; stroke-linecap: square"/>
     </g>
     <g id="text_2">
      <!-- E -->
      <g transform="translate(241.219219 127.338438) scale(0.1 -0.1)">
       <defs>
        <path id="DejaVuSans-Bold-45" d="M 588 4666 
L 3834 4666 
L 3834 3756 
L 1791 3756 
L 1791 2888 
L 3713 2888 
L 3713 1978 
L 1791 1978 
L 1791 909 
L 3903 909 
L 3903 0 
L 588 0 
L 588 4666 
z
" transform="scale(0.015625)"/>
       </defs>
       <use xlink:href="#DejaVuSans-Bold-45"/>
      </g>
     </g>
    </g>
    <g id="xtick_4">
     <g id="line2d_4">
      <path d="M 125.254844 124.579063 
L 203.658844 202.983062 
" clip-path="url(#p33d2a35572)" style="fill: none; stroke: #b0b0b0; stroke-width: 0.8; stroke-linecap: square"/>
     </g>
    </g>
    <g id="xtick_5">
     <g id="line2d_5">
      <path d="M 125.254844 124.579063 
L 125.254844 235.459063 
" clip-path="url(#p33d2a35572)" style="fill: none; stroke: #b0b0b0; stroke-width: 0.8; stroke-linecap: square"/>
     </g>
     <g id="text_3">
      <!-- S -->
      <g transform="translate(121.654062 246.718438) scale(0.1 -0.1)">
       <defs>
        <path id="DejaVuSans-Bold-53" d="M 3834 4519 
L 3834 3531 
Q 3450 3703 3084 3790 
Q 2719 3878 2394 3878 
Q 1963 3878 1756 3759 
Q 1550 3641 1550 3391 
Q 1550 3203 1689 3098 
Q 1828 2994 2194 2919 
L 2706 2816 
Q 3484 2659 3812 2340 
Q 4141 2022 4141 1434 
Q 4141 663 3683 286 
Q 3225 -91 2284 -91 
Q 1841 -91 1394 -6 
Q 947 78 500 244 
L 500 1259 
Q 947 1022 1364 901 
Q 1781 781 2169 781 
Q 2563 781 2772 912 
Q 2981 1044 2981 1288 
Q 2981 1506 2839 1625 
Q 2697 1744 2272 1838 
L 1806 1941 
Q 1106 2091 782 2419 
Q 459 2747 459 3303 
Q 459 4000 909 4375 
Q 1359 4750 2203 4750 
Q 2588 4750 2994 4692 
Q 3400 4634 3834 4519 
z
" transform="scale(0.015625)"/>
       </defs>
       <use xlink:href="#DejaVuSans-Bold-53"/>
      </g>
     </g>
    </g>
    <g id="xtick_6">
     <g id="line2d_6">
      <path d="M 125.254844 124.579063 
L 46.850844 202.983062 
" clip-path="url(#p33d2a35572)" style="fill: none; stroke: #b0b0b0; stroke-width: 0.8; stroke-linecap: square"/>
     </g>
    </g>
    <g id="xtick_7">
     <g id="line2d_7">
      <path d="M 125.254844 124.579063 
L 14.374844 124.579063 
" clip-path="url(#p33d2a35572)" style="fill: none; stroke: #b0b0b0; stroke-width: 0.8; stroke-linecap: square"/>
     </g>
     <g id="text_4">
      <!-- W -->
      <g transform="translate(0.36 127.338438) scale(0.1 -0.1)">
       <defs>
        <path id="DejaVuSans-Bold-57" d="M 191 4666 
L 1344 4666 
L 2150 1275 
L 2950 4666 
L 4109 4666 
L 4909 1275 
L 5716 4666 
L 6859 4666 
L 5759 0 
L 4372 0 
L 3525 3547 
L 2688 0 
L 1300 0 
L 191 4666 
z
" transform="scale(0.015625)"/>
       </defs>
       <use xlink:href="#DejaVuSans-Bold-57"/>
      </g>
     </g>
    </g>
    <g id="xtick_8">
     <g id="line2d_8">
      <path d="M 125.254844 124.579063 
L 46.850844 46.175063 
" clip-path="url(#p33d2a35572)" style="fill: none; stroke: #b0b0b0; stroke-width: 0.8; stroke-linecap: square"/>
     </g>
    </g>
   </g>
   <g id="matplotlib.axis_2"/>
   <g id="patch_3">
    <path d="M 125.254844 124.579063 
C 125.254844 124.579063 125.254844 124.579063 125.254844 124.579063 
C 125.254844 124.579063 125.254844 124.579063 125.254844 124.579063 
L 125.254844 124.579063 
C 125.254844 124.579063 125.254844 124.579063 125.254844 124.579063 
C 125.254844 124.579063 125.254844 124.579063 125.254844 124.579063 
z
" clip-path="url(#p33d2a35572)" style="fill: #d9d9d9"/>
   </g>
   <g id="patch_4">
    <path d="M 125.254844 124.579063 
C 125.254844 124.579063 125.254844 124.579063 125.254844 124.579063 
C 125.254844 124.579063 125.254844 124.579063 125.254844 124.579063 
L 125.254844 124.579063 
C 125.254844 124.579063 125.254844 124.579063 125.254844 124.579063 
C 125.254844 124.579063 125.254844 124.579063 125.254844 124.579063 
z
" clip-path="url(#p33d2a35572)" style="fill: #d9d9d9"/>
   </g>
   <g id="patch_5">
    <path d="M 125.254844 124.579063 
C 125.254844 124.579063 125.254844 124.579063 125.254844 124.579063 
C 125.254844 124.579063 125.254844 124.579063 125.254844 124.579063 
L 125.254844 124.579063 
C 125.254844 124.579063 125.254844 124.579063 125.254844 124.579063 
C 125.254844 124.579063 125.254844 124.579063 125.254844 124.579063 
z
" clip-path="url(#p33d2a35572)" style="fill: #d9d9d9"/>
   </g>
   <g id="patch_6">
    <path d="M 125.254844 124.579063 
C 125.254844 124.579063 125.254844 124.579063 125.254844 124.579063 
C 125.254844 124.579063 125.254844 124.579063 125.254844 124.579063 
L 125.254844 124.579063 
C 125.254844 124.579063 125.254844 124.579063 125.254844 124.579063 
C 125.254844 124.579063 125.254844 124.579063 125.254844 124.579063 
z
" clip-path="url(#p33d2a35572)" style="fill: #d9d9d9"/>
   </g>
   <g id="patch_7">
    <path d="M 125.254844 124.579063 
C 125.254844 124.579063 125.254844 124.579063 125.254844 124.579063 
C 125.254844 124.579063 125.254844 124.579063 125.254844 124.579063 
L 125.254844 124.579063 
C 125.254844 124.579063 125.254844 124.579063 125.254844 124.579063 
C 125.254844 124.579063 125.254844 124.579063 125.254844 124.579063 
z
" clip-path="url(#p33d2a35572)" style="fill: #d9d9d9"/>
   </g>
   <g id="patch_8">
    <path d="M 125.254844 124.579063 
C 125.254844 124.579063 125.254844 124.579063 125.254844 124.579063 
C 125.254844 124.579063 125.254844 124.579063 125.254844 124.579063 
L 125.254844 124.579063 
C 125.254844 124.579063 125.254844 124.579063 125.254844 124.579063 
C 125.254844 124.579063 125.254844 124.579063 125.254844 124.579063 
z
" clip-path="url(#p33d2a35572)" style="fill: #d9d9d9"/>
   </g>
   <g id="patch_9">
    <path d="M 125.254844 124.579063 
C 125.254844 124.579063 125.254844 124.579063 125.254844 124.579063 
C 125.254844 124.579063 125.254844 124.579063 125.254844 124.579063 
L 125.254844 124.579063 
C 125.254844 124.579063 125.254844 124.579063 125.254844 124.579063 
C 125.254844 124.579063 125.254844 124.579063 125.254844 124.579063 
z
" clip-path="url(#p33d2a35572)" style="fill: #d9d9d9"/>
   </g>
   <g id="patch_10">
    <path d="M 125.254844 124.579063 
C 125.254844 124.579063 125.254844 124.579063 125.254844 124.579063 
C 125.254844 124.579063 125.254844 124.579063 125.254844 124.579063 
L 125.254844 124.579063 
C 125.254844 124.579063 125.254844 124.579063 125.254844 124.579063 
C 125.254844 124.579063 125.254844 124.579063 125.254844 124.579063 
z
" clip-path="url(#p33d2a35572)" style="fill: #d9d9d9"/>
   </g>
   <g id="patch_11">
    <path d="M 125.254844 124.579063 
C 125.254844 124.579063 125.254844 124.579063 125.254844 124.579063 
C 125.254844 124.579063 125.254844 124.579063 125.254844 124.579063 
L 125.254844 124.579063 
C 125.254844 124.579063 125.254844 124.579063 125.254844 124.579063 
C 125.254844 124.579063 125.254844 124.579063 125.254844 124.579063 
z
" clip-path="url(#p33d2a35572)" style="fill: #d9d9d9"/>
   </g>
   <g id="patch_12">
    <path d="M 125.254844 124.579063 
C 125.254844 124.579063 125.254844 124.579063 125.254844 124.579063 
C 125.254844 124.579063 125.254844 124.579063 125.254844 124.579063 
L 125.254844 124.579063 
C 125.254844 124.579063 125.254844 124.579063 125.254844 124.579063 
C 125.254844 124.579063 125.254844 124.579063 125.254844 124.579063 
z
" clip-path="url(#p33d2a35572)" style="fill: #d9d9d9"/>
   </g>
   <g id="patch_13">
    <path d="M 125.254844 124.579063 
C 125.254844 124.579063 125.254844 124.579063 125.254844 124.579063 
C 125.254844 124.579063 125.254844 124.579063 125.254844 124.579063 
L 125.254844 124.579063 
C 125.254844 124.579063 125.254844 124.579063 125.254844 124.579063 
C 125.254844 124.579063 125.254844 124.579063 125.254844 124.579063 
z
" clip-path="url(#p33d2a35572)" style="fill: #d9d9d9"/>
   </g>
   <g id="patch_14">
    <path d="M 125.254844 124.579063 
C 125.254844 124.579063 125.254844 124.579063 125.254844 124.579063 
C 125.254844 124.579063 125.254844 124.579063 125.254844 124.579063 
L 125.254844 124.579063 
C 125.254844 124.579063 125.254844 124.579063 125.254844 124.579063 
C 125.254844 124.579063 125.254844 124.579063 125.254844 124.579063 
z
" clip-path="url(#p33d2a35572)" style="fill: #d9d9d9"/>
   </g>
   <g id="patch_15">
    <path d="M 125.254844 124.579063 
C 125.254844 124.579063 125.254844 124.579063 125.254844 124.579063 
C 125.254844 124.579063 125.254844 124.579063 125.254844 124.579063 
L 125.254844 124.579063 
C 125.254844 124.579063 125.254844 124.579063 125.254844 124.579063 
C 125.254844 124.579063 125.254844 124.579063 125.254844 124.579063 
z
" clip-path="url(#p33d2a35572)" style="fill: #d9d9d9"/>
   </g>
   <g id="patch_16">
    <path d="M 125.254844 124.579063 
C 125.254844 124.579063 125.254844 124.579063 125.254844 124.579063 
C 125.254844 124.579063 125.254844 124.579063 125.254844 124.579063 
L 125.254844 124.579063 
C 125.254844 124.579063 125.254844 124.579063 125.254844 124.579063 
C 125.254844 124.579063 125.254844 124.579063 125.254844 124.579063 
z
" clip-path="url(#p33d2a35572)" style="fill: #d9d9d9"/>
   </g>
   <g id="patch_17">
    <path d="M 125.254844 124.579063 
C 125.254844 124.579063 125.254844 124.579063 125.254844 124.579063 
C 125.254844 124.579063 125.254844 124.579063 125.254844 124.579063 
L 125.254844 124.579063 
C 125.254844 124.579063 125.254844 124.579063 125.254844 124.579063 
C 125.254844 124.579063 125.254844 124.579063 125.254844 124.579063 
z
" clip-path="url(#p33d2a35572)" style="fill: #d9d9d9"/>
   </g>
   <g id="patch_18">
    <path d="M 125.254844 124.579063 
C 125.254844 124.579063 125.254844 124.579063 125.254844 124.579063 
C 125.254844 124.579063 125.254844 124.579063 125.254844 124.579063 
L 125.518319 127.254168 
C 125.605879 127.245544 125.692963 127.232626 125.779256 127.215461 
C 125.865549 127.198297 125.950948 127.176905 126.035143 127.151365 
z
" clip-path="url(#p33d2a35572)" style="fill: #d9d9d9"/>
   </g>
   <g id="patch_19">
    <path d="M 125.254844 124.579063 
C 125.254844 124.579063 125.254844 124.579063 125.254844 124.579063 
C 125.254844 124.579063 125.254844 124.579063 125.254844 124.579063 
L 125.254844 124.579063 
C 125.254844 124.579063 125.254844 124.579063 125.254844 124.579063 
C 125.254844 124.579063 125.254844 124.579063 125.254844 124.579063 
z
" clip-path="url(#p33d2a35572)" style="fill: #d9d9d9"/>
   </g>
   <g id="patch_20">
    <path d="M 125.254844 124.579063 
C 125.254844 124.579063 125.254844 124.579063 125.254844 124.579063 
C 125.254844 124.579063 125.254844 124.579063 125.254844 124.579063 
L 124.474544 127.151365 
C 124.55874 127.176905 124.644138 127.198297 124.730431 127.215461 
C 124.816725 127.232626 124.903809 127.245544 124.991369 127.254168 
z
" clip-path="url(#p33d2a35572)" style="fill: #d9d9d9"/>
   </g>
   <g id="patch_21">
    <path d="M 125.254844 124.579063 
C 125.254844 124.579063 125.254844 124.579063 125.254844 124.579063 
C 125.254844 124.579063 125.254844 124.579063 125.254844 124.579063 
L 125.254844 124.579063 
C 125.254844 124.579063 125.254844 124.579063 125.254844 124.579063 
C 125.254844 124.579063 125.254844 124.579063 125.254844 124.579063 
z
" clip-path="url(#p33d2a35572)" style="fill: #d9d9d9"/>
   </g>
   <g id="patch_22">
    <path d="M 125.254844 124.579063 
C 125.254844 124.579063 125.254844 124.579063 125.254844 124.579063 
C 125.254844 124.579063 125.254844 124.579063 125.254844 124.579063 
L 123.778028 126.378568 
C 123.836928 126.426906 123.898166 126.472324 123.961521 126.514656 
C 124.024876 126.556989 124.090271 126.596185 124.15747 126.632104 
z
" clip-path="url(#p33d2a35572)" style="fill: #d9d9d9"/>
   </g>
   <g id="patch_23">
    <path d="M 125.254844 124.579063 
C 125.254844 124.579063 125.254844 124.579063 125.254844 124.579063 
C 125.254844 124.579063 125.254844 124.579063 125.254844 124.579063 
L 125.254844 124.579063 
C 125.254844 124.579063 125.254844 124.579063 125.254844 124.579063 
C 125.254844 124.579063 125.254844 124.579063 125.254844 124.579063 
z
" clip-path="url(#p33d2a35572)" style="fill: #d9d9d9"/>
   </g>
   <g id="patch_24">
    <path d="M 125.254844 124.579063 
C 125.254844 124.579063 125.254844 124.579063 125.254844 124.579063 
C 125.254844 124.579063 125.254844 124.579063 125.254844 124.579063 
L 125.254844 124.579063 
C 125.254844 124.579063 125.254844 124.579063 125.254844 124.579063 
C 125.254844 124.579063 125.254844 124.579063 125.254844 124.579063 
z
" clip-path="url(#p33d2a35572)" style="fill: #d9d9d9"/>
   </g>
   <g id="patch_25">
    <path d="M 125.254844 124.579063 
C 125.254844 124.579063 125.254844 124.579063 125.254844 124.579063 
C 125.254844 124.579063 125.254844 124.579063 125.254844 124.579063 
L 125.254844 124.579063 
C 125.254844 124.579063 125.254844 124.579063 125.254844 124.579063 
C 125.254844 124.579063 125.254844 124.579063 125.254844 124.579063 
z
" clip-path="url(#p33d2a35572)" style="fill: #d9d9d9"/>
   </g>
   <g id="patch_26">
    <path d="M 125.254844 124.579063 
C 125.254844 124.579063 125.254844 124.579063 125.254844 124.579063 
C 125.254844 124.579063 125.254844 124.579063 125.254844 124.579063 
L 116.18312 125.472549 
C 116.212365 125.76948 116.256171 126.064797 116.31438 126.357431 
C 116.372589 126.650066 116.44513 126.939666 116.531741 127.225187 
z
" clip-path="url(#p33d2a35572)" style="fill: #d9d9d9"/>
   </g>
   <g id="patch_27">
    <path d="M 125.254844 124.579063 
C 125.254844 124.579063 125.254844 124.579063 125.254844 124.579063 
C 125.254844 124.579063 125.254844 124.579063 125.254844 124.579063 
L 125.254844 124.579063 
C 125.254844 124.579063 125.254844 124.579063 125.254844 124.579063 
C 125.254844 124.579063 125.254844 124.579063 125.254844 124.579063 
z
" clip-path="url(#p33d2a35572)" style="fill: #d9d9d9"/>
   </g>
   <g id="patch_28">
    <path d="M 125.254844 124.579063 
C 125.254844 124.579063 125.254844 124.579063 125.254844 124.579063 
C 125.254844 124.579063 125.254844 124.579063 125.254844 124.579063 
L 118.449171 122.514584 
C 118.381597 122.737344 118.325002 122.963287 118.279588 123.191598 
C 118.234174 123.419908 118.199997 123.650311 118.17718 123.881973 
z
" clip-path="url(#p33d2a35572)" style="fill: #d9d9d9"/>
   </g>
   <g id="patch_29">
    <path d="M 125.254844 124.579063 
C 125.254844 124.579063 125.254844 124.579063 125.254844 124.579063 
C 125.254844 124.579063 125.254844 124.579063 125.254844 124.579063 
L 125.254844 124.579063 
C 125.254844 124.579063 125.254844 124.579063 125.254844 124.579063 
C 125.254844 124.579063 125.254844 124.579063 125.254844 124.579063 
z
" clip-path="url(#p33d2a35572)" style="fill: #d9d9d9"/>
   </g>
   <g id="patch_30">
    <path d="M 125.254844 124.579063 
C 125.254844 124.579063 125.254844 124.579063 125.254844 124.579063 
C 125.254844 124.579063 125.254844 124.579063 125.254844 124.579063 
L 123.176954 122.873782 
C 123.121137 122.941795 123.068694 123.012507 123.019813 123.085662 
C 122.970931 123.158818 122.925671 123.23433 122.884196 123.311925 
z
" clip-path="url(#p33d2a35572)" style="fill: #d9d9d9"/>
   </g>
   <g id="patch_31">
    <path d="M 125.254844 124.579063 
C 125.254844 124.579063 125.254844 124.579063 125.254844 124.579063 
C 125.254844 124.579063 125.254844 124.579063 125.254844 124.579063 
L 125.254844 124.579063 
C 125.254844 124.579063 125.254844 124.579063 125.254844 124.579063 
C 125.254844 124.579063 125.254844 124.579063 125.254844 124.579063 
z
" clip-path="url(#p33d2a35572)" style="fill: #d9d9d9"/>
   </g>
   <g id="patch_32">
    <path d="M 125.254844 124.579063 
C 125.254844 124.579063 125.254844 124.579063 125.254844 124.579063 
C 125.254844 124.579063 125.254844 124.579063 125.254844 124.579063 
L 121.842971 118.195898 
C 121.634041 118.307574 121.430719 118.42944 121.233741 118.561057 
C 121.036763 118.692674 120.846365 118.833882 120.663236 118.984172 
z
" clip-path="url(#p33d2a35572)" style="fill: #d9d9d9"/>
   </g>
   <g id="patch_33">
    <path d="M 125.254844 124.579063 
C 125.254844 124.579063 125.254844 124.579063 125.254844 124.579063 
C 125.254844 124.579063 125.254844 124.579063 125.254844 124.579063 
L 125.254844 124.579063 
C 125.254844 124.579063 125.254844 124.579063 125.254844 124.579063 
C 125.254844 124.579063 125.254844 124.579063 125.254844 124.579063 
z
" clip-path="url(#p33d2a35572)" style="fill: #d9d9d9"/>
   </g>
   <g id="patch_34">
    <path d="M 125.254844 124.579063 
C 125.254844 124.579063 125.254844 124.579063 125.254844 124.579063 
C 125.254844 124.579063 125.254844 124.579063 125.254844 124.579063 
L 125.254844 124.579063 
C 125.254844 124.579063 125.254844 124.579063 125.254844 124.579063 
C 125.254844 124.579063 125.254844 124.579063 125.254844 124.579063 
z
" clip-path="url(#p33d2a35572)" style="fill: #d9d9d9"/>
   </g>
   <g id="patch_35">
    <path d="M 125.254844 124.579063 
C 125.254844 124.579063 125.254844 124.579063 125.254844 124.579063 
C 125.254844 124.579063 125.254844 124.579063 125.254844 124.579063 
L 130.688115 69.414131 
C 128.882485 69.236292 127.069211 69.147212 125.254844 69.147212 
C 123.440477 69.147212 121.627203 69.236292 119.821572 69.414131 
z
" clip-path="url(#p33d2a35572)" style="fill: #a1a1d8"/>
   </g>
   <g id="patch_36">
    <path d="M 125.254844 124.579063 
C 125.254844 124.579063 125.254844 124.579063 125.254844 124.579063 
C 125.254844 124.579063 125.254844 124.579063 125.254844 124.579063 
L 139.557969 77.427976 
C 138.014644 76.959813 136.449263 76.567706 134.867481 76.25307 
C 133.285699 75.938434 131.689423 75.701649 130.084418 75.54357 
z
" clip-path="url(#p33d2a35572)" style="fill: #a1a1d8"/>
   </g>
   <g id="patch_37">
    <path d="M 125.254844 124.579063 
C 125.254844 124.579063 125.254844 124.579063 125.254844 124.579063 
C 125.254844 124.579063 125.254844 124.579063 125.254844 124.579063 
L 148.447269 81.189087 
C 147.02705 80.429964 145.570417 79.741028 144.08263 79.124766 
C 142.594843 78.508505 141.077696 77.965661 139.536669 77.498195 
z
" clip-path="url(#p33d2a35572)" style="fill: #a1a1d8"/>
   </g>
   <g id="patch_38">
    <path d="M 125.254844 124.579063 
C 125.254844 124.579063 125.254844 124.579063 125.254844 124.579063 
C 125.254844 124.579063 125.254844 124.579063 125.254844 124.579063 
L 155.532573 87.685543 
C 154.324993 86.694508 153.069484 85.763358 151.77058 84.895459 
C 150.471676 84.027559 149.130944 83.223955 147.753226 82.48755 
z
" clip-path="url(#p33d2a35572)" style="fill: #a1a1d8"/>
   </g>
   <g id="patch_39">
    <path d="M 125.254844 124.579063 
C 125.254844 124.579063 125.254844 124.579063 125.254844 124.579063 
C 125.254844 124.579063 125.254844 124.579063 125.254844 124.579063 
L 168.841034 88.8088 
C 167.67022 87.382159 166.430068 86.013862 165.125056 84.70885 
C 163.820045 83.403839 162.451747 82.163686 161.025106 80.992872 
z
" clip-path="url(#p33d2a35572)" style="fill: #a1a1d8"/>
   </g>
   <g id="patch_40">
    <path d="M 125.254844 124.579063 
C 125.254844 124.579063 125.254844 124.579063 125.254844 124.579063 
C 125.254844 124.579063 125.254844 124.579063 125.254844 124.579063 
L 177.23369 96.79579 
C 176.324302 95.094445 175.331931 93.438774 174.260161 91.834756 
C 173.188391 90.230739 172.038514 88.68031 170.814684 87.189068 
z
" clip-path="url(#p33d2a35572)" style="fill: #a1a1d8"/>
   </g>
   <g id="patch_41">
    <path d="M 125.254844 124.579063 
C 125.254844 124.579063 125.254844 124.579063 125.254844 124.579063 
C 125.254844 124.579063 125.254844 124.579063 125.254844 124.579063 
L 177.924269 108.601967 
C 177.401315 106.878018 176.794035 105.180784 176.104622 103.516395 
C 175.41521 101.852005 174.644496 100.222468 173.795264 98.633667 
z
" clip-path="url(#p33d2a35572)" style="fill: #a1a1d8"/>
   </g>
   <g id="patch_42">
    <path d="M 125.254844 124.579063 
C 125.254844 124.579063 125.254844 124.579063 125.254844 124.579063 
C 125.254844 124.579063 125.254844 124.579063 125.254844 124.579063 
L 172.996293 119.87694 
C 172.842386 118.314291 172.611849 116.760141 172.305516 115.220102 
C 171.999184 113.680063 171.617424 112.155993 171.161616 110.653395 
z
" clip-path="url(#p33d2a35572)" style="fill: #a1a1d8"/>
   </g>
   <g id="patch_43">
    <path d="M 125.254844 124.579063 
C 125.254844 124.579063 125.254844 124.579063 125.254844 124.579063 
C 125.254844 124.579063 125.254844 124.579063 125.254844 124.579063 
L 172.126477 129.195515 
C 172.27758 127.661337 172.353269 126.120664 172.353269 124.579063 
C 172.353269 123.037461 172.27758 121.496788 172.126477 119.96261 
z
" clip-path="url(#p33d2a35572)" style="fill: #a1a1d8"/>
   </g>
   <g id="patch_44">
    <path d="M 125.254844 124.579063 
C 125.254844 124.579063 125.254844 124.579063 125.254844 124.579063 
C 125.254844 124.579063 125.254844 124.579063 125.254844 124.579063 
L 182.902548 142.066302 
C 183.474931 140.179407 183.954329 138.265546 184.339008 136.331633 
C 184.723687 134.397721 185.013185 132.446087 185.206455 130.483781 
z
" clip-path="url(#p33d2a35572)" style="fill: #a1a1d8"/>
   </g>
   <g id="patch_45">
    <path d="M 125.254844 124.579063 
C 125.254844 124.579063 125.254844 124.579063 125.254844 124.579063 
C 125.254844 124.579063 125.254844 124.579063 125.254844 124.579063 
L 181.040672 154.397209 
C 182.016665 152.571256 182.90242 150.698484 183.694738 148.785659 
C 184.487056 146.872834 185.184982 144.922262 185.785995 142.940987 
z
" clip-path="url(#p33d2a35572)" style="fill: #a1a1d8"/>
   </g>
   <g id="patch_46">
    <path d="M 125.254844 124.579063 
C 125.254844 124.579063 125.254844 124.579063 125.254844 124.579063 
C 125.254844 124.579063 125.254844 124.579063 125.254844 124.579063 
L 170.230483 161.489616 
C 171.438621 160.017496 172.573753 158.486947 173.63178 156.903498 
C 174.689807 155.320049 175.669454 153.685607 176.567181 152.006078 
z
" clip-path="url(#p33d2a35572)" style="fill: #a1a1d8"/>
   </g>
   <g id="patch_47">
    <path d="M 125.254844 124.579063 
C 125.254844 124.579063 125.254844 124.579063 125.254844 124.579063 
C 125.254844 124.579063 125.254844 124.579063 125.254844 124.579063 
L 155.400225 161.311316 
C 156.602526 160.324612 157.755659 159.279474 158.855457 158.179676 
C 159.955255 157.079877 161.000393 155.926745 161.987097 154.724444 
z
" clip-path="url(#p33d2a35572)" style="fill: #a1a1d8"/>
   </g>
   <g id="patch_48">
    <path d="M 125.254844 124.579063 
C 125.254844 124.579063 125.254844 124.579063 125.254844 124.579063 
C 125.254844 124.579063 125.254844 124.579063 125.254844 124.579063 
L 145.370029 162.211927 
C 146.601809 161.553527 147.800521 160.835047 148.961835 160.059082 
C 150.123149 159.283117 151.245665 158.450602 152.325329 157.564544 
z
" clip-path="url(#p33d2a35572)" style="fill: #a1a1d8"/>
   </g>
   <g id="patch_49">
    <path d="M 125.254844 124.579063 
C 125.254844 124.579063 125.254844 124.579063 125.254844 124.579063 
C 125.254844 124.579063 125.254844 124.579063 125.254844 124.579063 
L 135.665337 158.897858 
C 136.788642 158.557107 137.894541 158.161411 138.979038 157.712197 
C 140.063535 157.262984 141.125323 156.760796 142.160567 156.207446 
z
" clip-path="url(#p33d2a35572)" style="fill: #a1a1d8"/>
   </g>
   <g id="patch_50">
    <path d="M 126.035143 127.151365 
C 125.950948 127.176905 125.865549 127.198297 125.779256 127.215461 
C 125.692963 127.232626 125.605879 127.245544 125.518319 127.254168 
L 130.379074 176.60625 
C 132.082002 176.438527 133.775668 176.187295 135.453956 175.853463 
C 137.132244 175.519631 138.79313 175.1036 140.430615 174.606875 
z
" clip-path="url(#p33d2a35572)" style="fill: #a1a1d8"/>
   </g>
   <g id="patch_51">
    <path d="M 125.254844 124.579063 
C 125.254844 124.579063 125.254844 124.579063 125.254844 124.579063 
C 125.254844 124.579063 125.254844 124.579063 125.254844 124.579063 
L 122.207748 155.516746 
C 123.220384 155.616482 124.237307 155.66644 125.254844 155.66644 
C 126.27238 155.66644 127.289303 155.616482 128.30194 155.516746 
z
" clip-path="url(#p33d2a35572)" style="fill: #a1a1d8"/>
   </g>
   <g id="patch_52">
    <path d="M 124.991369 127.254168 
C 124.903809 127.245544 124.816725 127.232626 124.730431 127.215461 
C 124.644138 127.198297 124.55874 127.176905 124.474544 127.151365 
L 116.832669 152.343252 
C 117.741432 152.618922 118.663183 152.849809 119.59459 153.035077 
C 120.525998 153.220346 121.465941 153.359773 122.411023 153.452856 
z
" clip-path="url(#p33d2a35572)" style="fill: #a1a1d8"/>
   </g>
   <g id="patch_53">
    <path d="M 125.254844 124.579063 
C 125.254844 124.579063 125.254844 124.579063 125.254844 124.579063 
C 125.254844 124.579063 125.254844 124.579063 125.254844 124.579063 
L 113.317493 146.912274 
C 114.048493 147.303002 114.798235 147.657603 115.564012 147.974799 
C 116.32979 148.291994 117.110679 148.571401 117.90386 148.812009 
z
" clip-path="url(#p33d2a35572)" style="fill: #a1a1d8"/>
   </g>
   <g id="patch_54">
    <path d="M 124.15747 126.632104 
C 124.090271 126.596185 124.024876 126.556989 123.961521 126.514656 
C 123.898166 126.472324 123.836928 126.426906 123.778028 126.378568 
L 110.146022 142.989216 
C 110.748613 143.48375 111.375122 143.948401 112.023285 144.381489 
C 112.671448 144.814578 113.340484 145.215583 114.027976 145.583055 
z
" clip-path="url(#p33d2a35572)" style="fill: #a1a1d8"/>
   </g>
   <g id="patch_55">
    <path d="M 125.254844 124.579063 
C 125.254844 124.579063 125.254844 124.579063 125.254844 124.579063 
C 125.254844 124.579063 125.254844 124.579063 125.254844 124.579063 
L 114.608825 133.316024 
C 114.894799 133.664484 115.197709 133.998694 115.516461 134.317445 
C 115.835213 134.636197 116.169422 134.939107 116.517882 135.225081 
z
" clip-path="url(#p33d2a35572)" style="fill: #a1a1d8"/>
   </g>
   <g id="patch_56">
    <path d="M 125.254844 124.579063 
C 125.254844 124.579063 125.254844 124.579063 125.254844 124.579063 
C 125.254844 124.579063 125.254844 124.579063 125.254844 124.579063 
L 109.937084 132.766576 
C 110.205074 133.267949 110.497518 133.755862 110.81336 134.228554 
C 111.129202 134.701245 111.468062 135.158144 111.828715 135.597602 
z
" clip-path="url(#p33d2a35572)" style="fill: #a1a1d8"/>
   </g>
   <g id="patch_57">
    <path d="M 125.254844 124.579063 
C 125.254844 124.579063 125.254844 124.579063 125.254844 124.579063 
C 125.254844 124.579063 125.254844 124.579063 125.254844 124.579063 
L 91.963643 134.677838 
C 92.294191 135.767508 92.67804 136.840293 93.113803 137.892318 
C 93.549565 138.944342 94.036717 139.974337 94.573498 140.978584 
z
" clip-path="url(#p33d2a35572)" style="fill: #a1a1d8"/>
   </g>
   <g id="patch_58">
    <path d="M 116.531741 127.225187 
C 116.44513 126.939666 116.372589 126.650066 116.31438 126.357431 
C 116.256171 126.064797 116.212365 125.76948 116.18312 125.472549 
L 106.104004 126.465256 
C 106.165741 127.092091 106.258218 127.715518 106.381099 128.333284 
C 106.503981 128.95105 106.657118 129.56241 106.83996 130.165157 
z
" clip-path="url(#p33d2a35572)" style="fill: #a1a1d8"/>
   </g>
   <g id="patch_59">
    <path d="M 125.254844 124.579063 
C 125.254844 124.579063 125.254844 124.579063 125.254844 124.579063 
C 125.254844 124.579063 125.254844 124.579063 125.254844 124.579063 
L 101.290617 122.218792 
C 101.213361 123.003177 101.174664 123.790882 101.174664 124.579063 
C 101.174664 125.367243 101.213361 126.154948 101.290617 126.939333 
z
" clip-path="url(#p33d2a35572)" style="fill: #a1a1d8"/>
   </g>
   <g id="patch_60">
    <path d="M 118.17718 123.881973 
C 118.199997 123.650311 118.234174 123.419908 118.279588 123.191598 
C 118.325002 122.963287 118.381597 122.737344 118.449171 122.514584 
L 84.138219 112.106471 
C 83.729972 113.452279 83.388047 114.81732 83.113679 116.196664 
C 82.83931 117.576007 82.632829 118.96799 82.494981 120.367584 
z
" clip-path="url(#p33d2a35572)" style="fill: #a1a1d8"/>
   </g>
   <g id="patch_61">
    <path d="M 125.254844 124.579063 
C 125.254844 124.579063 125.254844 124.579063 125.254844 124.579063 
C 125.254844 124.579063 125.254844 124.579063 125.254844 124.579063 
L 83.98923 102.522132 
C 83.267273 103.872817 82.612067 105.258135 82.025978 106.67308 
C 81.439888 108.088025 80.923622 109.530893 80.479043 110.996472 
z
" clip-path="url(#p33d2a35572)" style="fill: #a1a1d8"/>
   </g>
   <g id="patch_62">
    <path d="M 122.884196 123.311925 
C 122.925671 123.23433 122.970931 123.158818 123.019813 123.085662 
C 123.068694 123.012507 123.121137 122.941795 123.176954 122.873782 
L 89.46021 95.203166 
C 88.498693 96.374777 87.595278 97.592891 86.753229 98.853106 
C 85.91118 100.113322 85.131512 101.41412 84.41704 102.750802 
z
" clip-path="url(#p33d2a35572)" style="fill: #a1a1d8"/>
   </g>
   <g id="patch_63">
    <path d="M 125.254844 124.579063 
C 125.254844 124.579063 125.254844 124.579063 125.254844 124.579063 
C 125.254844 124.579063 125.254844 124.579063 125.254844 124.579063 
L 82.588746 72.590271 
C 80.887075 73.986797 79.254995 75.466027 77.698402 77.022621 
C 76.141809 78.579214 74.662578 80.211294 73.266053 81.912964 
z
" clip-path="url(#p33d2a35572)" style="fill: #a1a1d8"/>
   </g>
   <g id="patch_64">
    <path d="M 120.663236 118.984172 
C 120.846365 118.833882 121.036763 118.692674 121.233741 118.561057 
C 121.430719 118.42944 121.634041 118.307574 121.842971 118.195898 
L 95.382899 68.692585 
C 93.553652 69.670339 91.773511 70.737314 90.048908 71.889657 
C 88.324305 73.041999 86.657319 74.278321 85.05397 75.594156 
z
" clip-path="url(#p33d2a35572)" style="fill: #a1a1d8"/>
   </g>
   <g id="patch_65">
    <path d="M 125.254844 124.579063 
C 125.254844 124.579063 125.254844 124.579063 125.254844 124.579063 
C 125.254844 124.579063 125.254844 124.579063 125.254844 124.579063 
L 103.483232 52.807676 
C 101.134047 53.520294 98.821266 54.34782 96.553242 55.287266 
C 94.285218 56.226713 92.064685 57.276946 89.899664 58.434174 
z
" clip-path="url(#p33d2a35572)" style="fill: #a1a1d8"/>
   </g>
   <g id="patch_66">
    <path d="M 125.254844 124.579063 
C 125.254844 124.579063 125.254844 124.579063 125.254844 124.579063 
C 125.254844 124.579063 125.254844 124.579063 125.254844 124.579063 
L 119.555011 66.707688 
C 117.660794 66.894252 115.776879 67.173704 113.91007 67.545036 
C 112.043262 67.916367 110.195809 68.37913 108.374386 68.931652 
z
" clip-path="url(#p33d2a35572)" style="fill: #a1a1d8"/>
   </g>
   <g id="patch_67">
    <path d="M 119.821572 69.414131 
C 121.627203 69.236292 123.440477 69.147212 125.254844 69.147212 
C 127.069211 69.147212 128.882485 69.236292 130.688115 69.414131 
L 131.650558 59.642289 
C 129.52508 59.432948 127.390606 59.328088 125.254844 59.328088 
C 123.119082 59.328088 120.984607 59.432948 118.85913 59.642289 
z
" clip-path="url(#p33d2a35572)" style="fill: #ff8c8e"/>
   </g>
   <g id="patch_68">
    <path d="M 130.084418 75.54357 
C 131.689423 75.701649 133.285699 75.938434 134.867481 76.25307 
C 136.449263 76.567706 138.014644 76.959813 139.557969 77.427976 
L 143.810556 63.409078 
C 141.808371 62.801722 139.777573 62.293034 137.725498 61.884851 
C 135.673423 61.476668 133.602544 61.169482 131.520341 60.964403 
z
" clip-path="url(#p33d2a35572)" style="fill: #ff8c8e"/>
   </g>
   <g id="patch_69">
    <path d="M 139.536669 77.498195 
C 141.077696 77.965661 142.594843 78.508505 144.08263 79.124766 
C 145.570417 79.741028 147.02705 80.429964 148.447269 81.189087 
L 162.197934 55.463401 
C 159.935676 54.254199 157.615412 53.156796 155.245524 52.175156 
C 152.875636 51.193516 150.45898 50.328823 148.004287 49.5842 
z
" clip-path="url(#p33d2a35572)" style="fill: #ff8c8e"/>
   </g>
   <g id="patch_70">
    <path d="M 147.753226 82.48755 
C 149.130944 83.223955 150.471676 84.027559 151.77058 84.895459 
C 153.069484 85.763358 154.324993 86.694508 155.532573 87.685543 
L 164.448475 76.821484 
C 162.885299 75.538618 161.260079 74.333273 159.578686 73.209802 
C 157.897294 72.086332 156.161755 71.04609 154.378339 70.092834 
z
" clip-path="url(#p33d2a35572)" style="fill: #ff8c8e"/>
   </g>
   <g id="patch_71">
    <path d="M 161.025106 80.992872 
C 162.451747 82.163686 163.820045 83.403839 165.125056 84.70885 
C 166.430068 86.013862 167.67022 87.382159 168.841034 88.8088 
L 174.404742 84.242784 
C 173.084475 82.634034 171.686019 81.091076 170.214425 79.619481 
C 168.742831 78.147887 167.199872 76.749431 165.591123 75.429165 
z
" clip-path="url(#p33d2a35572)" style="fill: #ff8c8e"/>
   </g>
   <g id="patch_72">
    <path d="M 170.814684 87.189068 
C 172.038514 88.68031 173.188391 90.230739 174.260161 91.834756 
C 175.331931 93.438774 176.324302 95.094445 177.23369 96.79579 
L 197.520721 85.952146 
C 196.256404 83.586776 194.876716 81.284906 193.386641 79.054851 
C 191.896566 76.824796 190.297899 74.669243 188.596415 72.595979 
z
" clip-path="url(#p33d2a35572)" style="fill: #ff8c8e"/>
   </g>
   <g id="patch_73">
    <path d="M 173.795264 98.633667 
C 174.644496 100.222468 175.41521 101.852005 176.104622 103.516395 
C 176.794035 105.180784 177.401315 106.878018 177.924269 108.601967 
L 215.652157 97.157337 
C 214.754603 94.198498 213.712319 91.28551 212.52907 88.428894 
C 211.345821 85.572279 210.023033 82.775479 208.565485 80.048597 
z
" clip-path="url(#p33d2a35572)" style="fill: #ff8c8e"/>
   </g>
   <g id="patch_74">
    <path d="M 171.161616 110.653395 
C 171.617424 112.155993 171.999184 113.680063 172.305516 115.220102 
C 172.611849 116.760141 172.842386 118.314291 172.996293 119.87694 
L 192.718433 117.934479 
C 192.500946 115.726295 192.175174 113.53012 191.742295 111.353886 
C 191.309415 109.177653 190.769949 107.023984 190.125845 104.900659 
z
" clip-path="url(#p33d2a35572)" style="fill: #ff8c8e"/>
   </g>
   <g id="patch_75">
    <path d="M 172.126477 119.96261 
C 172.27758 121.496788 172.353269 123.037461 172.353269 124.579063 
C 172.353269 126.120664 172.27758 127.661337 172.126477 129.195515 
L 213.279631 133.248747 
C 213.563403 130.367565 213.705545 127.474186 213.705545 124.579063 
C 213.705545 121.683939 213.563403 118.79056 213.279631 115.909378 
z
" clip-path="url(#p33d2a35572)" style="fill: #ff8c8e"/>
   </g>
   <g id="patch_76">
    <path d="M 185.206455 130.483781 
C 185.013185 132.446087 184.723687 134.397721 184.339008 136.331633 
C 183.954329 138.265546 183.474931 140.179407 182.902548 142.066302 
L 218.569526 152.885762 
C 219.496046 149.831433 220.272049 146.733455 220.894732 143.603019 
C 221.517414 140.472583 221.986026 137.313461 222.298873 134.137065 
z
" clip-path="url(#p33d2a35572)" style="fill: #ff8c8e"/>
   </g>
   <g id="patch_77">
    <path d="M 185.785995 142.940987 
C 185.184982 144.922262 184.487056 146.872834 183.694738 148.785659 
C 182.90242 150.698484 182.016665 152.571256 181.040672 154.397209 
L 195.779122 162.275074 
C 197.012969 159.96671 198.132737 157.599157 199.134383 155.18097 
C 200.13603 152.762782 201.018346 150.296874 201.778145 147.792152 
z
" clip-path="url(#p33d2a35572)" style="fill: #ff8c8e"/>
   </g>
   <g id="patch_78">
    <path d="M 176.567181 152.006078 
C 175.669454 153.685607 174.689807 155.320049 173.63178 156.903498 
C 172.573753 158.486947 171.438621 160.017496 170.230483 161.489616 
L 175.544504 165.85072 
C 176.895387 164.204664 178.164639 162.493276 179.347675 160.722737 
C 180.530712 158.952198 181.626107 157.124642 182.629903 155.246671 
z
" clip-path="url(#p33d2a35572)" style="fill: #ff8c8e"/>
   </g>
   <g id="patch_79">
    <path d="M 161.987097 154.724444 
C 161.000393 155.926745 159.955255 157.079877 158.855457 158.179676 
C 157.755659 159.279474 156.602526 160.324612 155.400225 161.311316 
L 160.140227 167.087025 
C 161.531576 165.945174 162.866025 164.735701 164.138753 163.462972 
C 165.411482 162.190244 166.620956 160.855795 167.762806 159.464446 
z
" clip-path="url(#p33d2a35572)" style="fill: #ff8c8e"/>
   </g>
   <g id="patch_80">
    <path d="M 152.325329 157.564544 
C 151.245665 158.450602 150.123149 159.283117 148.961835 160.059082 
C 147.800521 160.835047 146.601809 161.553527 145.370029 162.211927 
L 151.060623 172.858279 
C 152.640873 172.013617 154.178701 171.091879 155.668551 170.096393 
C 157.158402 169.100907 158.598478 168.032873 159.98358 166.89615 
z
" clip-path="url(#p33d2a35572)" style="fill: #ff8c8e"/>
   </g>
   <g id="patch_81">
    <path d="M 142.160567 156.207446 
C 141.125323 156.760796 140.063535 157.262984 138.979038 157.712197 
C 137.894541 158.161411 136.788642 158.557107 135.665337 158.897858 
L 135.687246 158.970083 
C 136.812915 158.628615 137.921141 158.232086 139.00792 157.781927 
C 140.0947 157.331768 141.158723 156.828523 142.196145 156.274009 
z
" clip-path="url(#p33d2a35572)" style="fill: #ff8c8e"/>
   </g>
   <g id="patch_82">
    <path d="M 140.430615 174.606875 
C 138.79313 175.1036 137.132244 175.519631 135.453956 175.853463 
C 133.775668 176.187295 132.082002 176.438527 130.379074 176.60625 
L 130.511151 177.947246 
C 132.257971 177.775199 133.995292 177.517492 135.716837 177.175055 
C 137.438383 176.832619 139.142078 176.405865 140.821769 175.896337 
z
" clip-path="url(#p33d2a35572)" style="fill: #ff8c8e"/>
   </g>
   <g id="patch_83">
    <path d="M 128.30194 155.516746 
C 127.289303 155.616482 126.27238 155.66644 125.254844 155.66644 
C 124.237307 155.66644 123.220384 155.616482 122.207748 155.516746 
L 122.207748 155.516746 
C 123.220384 155.616482 124.237307 155.66644 125.254844 155.66644 
C 126.27238 155.66644 127.289303 155.616482 128.30194 155.516746 
z
" clip-path="url(#p33d2a35572)" style="fill: #ff8c8e"/>
   </g>
   <g id="patch_84">
    <path d="M 122.411023 153.452856 
C 121.465941 153.359773 120.525998 153.220346 119.59459 153.035077 
C 118.663183 152.849809 117.741432 152.618922 116.832669 152.343252 
L 116.832669 152.343252 
C 117.741432 152.618922 118.663183 152.849809 119.59459 153.035077 
C 120.525998 153.220346 121.465941 153.359773 122.411023 153.452856 
z
" clip-path="url(#p33d2a35572)" style="fill: #ff8c8e"/>
   </g>
   <g id="patch_85">
    <path d="M 117.90386 148.812009 
C 117.110679 148.571401 116.32979 148.291994 115.564012 147.974799 
C 114.798235 147.657603 114.048493 147.303002 113.317493 146.912274 
L 112.286014 148.842036 
C 113.080178 149.266525 113.894704 149.651767 114.72665 149.996371 
C 115.558596 150.340974 116.406961 150.644524 117.268678 150.905923 
z
" clip-path="url(#p33d2a35572)" style="fill: #ff8c8e"/>
   </g>
   <g id="patch_86">
    <path d="M 114.027976 145.583055 
C 113.340484 145.215583 112.671448 144.814578 112.023285 144.381489 
C 111.375122 143.948401 110.748613 143.48375 110.146022 142.989216 
L 108.244726 145.305951 
C 108.923148 145.862717 109.628497 146.38584 110.358225 146.873428 
C 111.087953 147.361017 111.84118 147.812484 112.615186 148.226199 
z
" clip-path="url(#p33d2a35572)" style="fill: #ff8c8e"/>
   </g>
   <g id="patch_87">
    <path d="M 116.517882 135.225081 
C 116.169422 134.939107 115.835213 134.636197 115.516461 134.317445 
C 115.197709 133.998694 114.894799 133.664484 114.608825 133.316024 
L 111.200256 136.113364 
C 111.577791 136.573392 111.977684 137.014607 112.398492 137.435414 
C 112.8193 137.856222 113.260514 138.256115 113.720542 138.63365 
z
" clip-path="url(#p33d2a35572)" style="fill: #ff8c8e"/>
   </g>
   <g id="patch_88">
    <path d="M 111.828715 135.597602 
C 111.468062 135.158144 111.129202 134.701245 110.81336 134.228554 
C 110.497518 133.755862 110.205074 133.267949 109.937084 132.766576 
L 100.306663 137.914143 
C 100.74314 138.730734 101.219446 139.525404 101.733862 140.29528 
C 102.248277 141.065157 102.800181 141.809314 103.38758 142.525062 
z
" clip-path="url(#p33d2a35572)" style="fill: #ff8c8e"/>
   </g>
   <g id="patch_89">
    <path d="M 94.573498 140.978584 
C 94.036717 139.974337 93.549565 138.944342 93.113803 137.892318 
C 92.67804 136.840293 92.294191 135.767508 91.963643 134.677838 
L 83.95757 137.106454 
C 84.36761 138.458175 84.843769 139.78895 85.384327 141.093971 
C 85.924884 142.398993 86.529189 143.676688 87.195058 144.922442 
z
" clip-path="url(#p33d2a35572)" style="fill: #ff8c8e"/>
   </g>
   <g id="patch_90">
    <path d="M 106.83996 130.165157 
C 106.657118 129.56241 106.503981 128.95105 106.381099 128.333284 
C 106.258218 127.715518 106.165741 127.092091 106.104004 126.465256 
L 98.806451 127.184002 
C 98.891715 128.049697 99.01943 128.910685 99.189136 129.763854 
C 99.358842 130.617024 99.570334 131.461347 99.822848 132.293774 
z
" clip-path="url(#p33d2a35572)" style="fill: #ff8c8e"/>
   </g>
   <g id="patch_91">
    <path d="M 101.290617 126.939333 
C 101.213361 126.154948 101.174664 125.367243 101.174664 124.579063 
C 101.174664 123.790882 101.213361 123.003177 101.290617 122.218792 
L 98.738894 121.967469 
C 98.653413 122.835376 98.610595 123.706956 98.610595 124.579063 
C 98.610595 125.451169 98.653413 126.322749 98.738894 127.190656 
z
" clip-path="url(#p33d2a35572)" style="fill: #ff8c8e"/>
   </g>
   <g id="patch_92">
    <path d="M 82.494981 120.367584 
C 82.632829 118.96799 82.83931 117.576007 83.113679 116.196664 
C 83.388047 114.81732 83.729972 113.452279 84.138219 112.106471 
L 83.440094 111.894697 
C 83.024916 113.263356 82.677185 114.651574 82.398158 116.054338 
C 82.119131 117.457101 81.909144 118.872718 81.768955 120.296076 
z
" clip-path="url(#p33d2a35572)" style="fill: #ff8c8e"/>
   </g>
   <g id="patch_93">
    <path d="M 80.479043 110.996472 
C 80.923622 109.530893 81.439888 108.088025 82.025978 106.67308 
C 82.612067 105.258135 83.267273 103.872817 83.98923 102.522132 
L 73.956199 97.159366 
C 73.058711 98.838447 72.244203 100.56058 71.515616 102.319545 
C 70.787028 104.078511 70.145241 105.872187 69.592571 107.694097 
z
" clip-path="url(#p33d2a35572)" style="fill: #ff8c8e"/>
   </g>
   <g id="patch_94">
    <path d="M 84.41704 102.750802 
C 85.131512 101.41412 85.91118 100.113322 86.753229 98.853106 
C 87.595278 97.592891 88.498693 96.374777 89.46021 95.203166 
L 74.103285 82.600063 
C 72.729249 84.27433 71.438244 86.015049 70.234932 87.815933 
C 69.03162 89.616817 67.917451 91.475694 66.896451 93.385852 
z
" clip-path="url(#p33d2a35572)" style="fill: #ff8c8e"/>
   </g>
   <g id="patch_95">
    <path d="M 73.266053 81.912964 
C 74.662578 80.211294 76.141809 78.579214 77.698402 77.022621 
C 79.254995 75.466027 80.887075 73.986797 82.588746 72.590271 
L 77.007164 65.789095 
C 75.082881 67.368313 73.237292 69.041057 71.477065 70.801284 
C 69.716838 72.561511 68.044094 74.407099 66.464876 76.331383 
z
" clip-path="url(#p33d2a35572)" style="fill: #ff8c8e"/>
   </g>
   <g id="patch_96">
    <path d="M 85.05397 75.594156 
C 86.657319 74.278321 88.324305 73.041999 90.048908 71.889657 
C 91.773511 70.737314 93.553652 69.670339 95.382899 68.692585 
L 91.024536 60.53866 
C 88.928398 61.659069 86.888532 62.881718 84.912307 64.202189 
C 82.936082 65.522661 81.025879 66.939364 79.188599 68.447181 
z
" clip-path="url(#p33d2a35572)" style="fill: #ff8c8e"/>
   </g>
   <g id="patch_97">
    <path d="M 89.899664 58.434174 
C 92.064685 57.276946 94.285218 56.226713 96.553242 55.287266 
C 98.821266 54.34782 101.134047 53.520294 103.483232 52.807676 
L 98.624447 36.790408 
C 95.750993 37.662061 92.922067 38.674267 90.147886 39.82337 
C 87.373706 40.972473 84.657615 42.257088 82.009425 43.672575 
z
" clip-path="url(#p33d2a35572)" style="fill: #ff8c8e"/>
   </g>
   <g id="patch_98">
    <path d="M 108.374386 68.931652 
C 110.195809 68.37913 112.043262 67.916367 113.91007 67.545036 
C 115.776879 67.173704 117.660794 66.894252 119.555011 66.707688 
L 118.950688 60.571893 
C 116.855638 60.778237 114.771981 61.087319 112.707244 61.49802 
C 110.642508 61.908722 108.59918 62.420549 106.584641 63.031653 
z
" clip-path="url(#p33d2a35572)" style="fill: #ff8c8e"/>
   </g>
   <g id="patch_99">
    <path d="M 118.85913 59.642289 
C 120.984607 59.432948 123.119082 59.328088 125.254844 59.328088 
C 127.390606 59.328088 129.52508 59.432948 131.650558 59.642289 
L 132.429396 51.73461 
C 130.045088 51.499776 127.650688 51.382147 125.254844 51.382147 
C 122.858999 51.382147 120.464599 51.499776 118.080291 51.73461 
z
" clip-path="url(#p33d2a35572)" style="fill: #828282"/>
   </g>
   <g id="patch_100">
    <path d="M 131.520341 60.964403 
C 133.602544 61.169482 135.673423 61.476668 137.725498 61.884851 
C 139.777573 62.293034 141.808371 62.801722 143.810556 63.409078 
L 150.659553 40.830959 
C 147.918353 39.999424 145.137979 39.302977 142.328473 38.744132 
C 139.518968 38.185286 136.683718 37.764717 133.832964 37.483942 
z
" clip-path="url(#p33d2a35572)" style="fill: #828282"/>
   </g>
   <g id="patch_101">
    <path d="M 148.004287 49.5842 
C 150.45898 50.328823 152.875636 51.193516 155.245524 52.175156 
C 157.615412 53.156796 159.935676 54.254199 162.197934 55.463401 
L 167.826706 44.93271 
C 165.219762 43.53927 162.545975 42.274663 159.815003 41.143457 
C 157.084031 40.012252 154.299166 39.015811 151.470467 38.157734 
z
" clip-path="url(#p33d2a35572)" style="fill: #828282"/>
   </g>
   <g id="patch_102">
    <path d="M 154.378339 70.092834 
C 156.161755 71.04609 157.897294 72.086332 159.578686 73.209802 
C 161.260079 74.333273 162.885299 75.538618 164.448475 76.821484 
L 166.172686 74.720527 
C 164.540742 73.381225 162.844025 72.122854 161.088665 70.949959 
C 159.333304 69.777065 157.521416 68.691061 155.659544 67.69587 
z
" clip-path="url(#p33d2a35572)" style="fill: #828282"/>
   </g>
   <g id="patch_103">
    <path d="M 165.591123 75.429165 
C 167.199872 76.749431 168.742831 78.147887 170.214425 79.619481 
C 171.686019 81.091076 173.084475 82.634034 174.404742 84.242784 
L 175.189098 83.599079 
C 173.847762 81.964656 172.426989 80.397075 170.93191 78.901996 
C 169.436832 77.406918 167.86925 75.986144 166.234827 74.644808 
z
" clip-path="url(#p33d2a35572)" style="fill: #828282"/>
   </g>
   <g id="patch_104">
    <path d="M 188.596415 72.595979 
C 190.297899 74.669243 191.896566 76.824796 193.386641 79.054851 
C 194.876716 81.284906 196.256404 83.586776 197.520721 85.952146 
L 197.520721 85.952146 
C 196.256404 83.586776 194.876716 81.284906 193.386641 79.054851 
C 191.896566 76.824796 190.297899 74.669243 188.596415 72.595979 
z
" clip-path="url(#p33d2a35572)" style="fill: #828282"/>
   </g>
   <g id="patch_105">
    <path d="M 208.565485 80.048597 
C 210.023033 82.775479 211.345821 85.572279 212.52907 88.428894 
C 213.712319 91.28551 214.754603 94.198498 215.652157 97.157337 
L 215.652157 97.157337 
C 214.754603 94.198498 213.712319 91.28551 212.52907 88.428894 
C 211.345821 85.572279 210.023033 82.775479 208.565485 80.048597 
z
" clip-path="url(#p33d2a35572)" style="fill: #828282"/>
   </g>
   <g id="patch_106">
    <path d="M 190.125845 104.900659 
C 190.769949 107.023984 191.309415 109.177653 191.742295 111.353886 
C 192.175174 113.53012 192.500946 115.726295 192.718433 117.934479 
L 192.718433 117.934479 
C 192.500946 115.726295 192.175174 113.53012 191.742295 111.353886 
C 191.309415 109.177653 190.769949 107.023984 190.125845 104.900659 
z
" clip-path="url(#p33d2a35572)" style="fill: #828282"/>
   </g>
   <g id="patch_107">
    <path d="M 213.279631 115.909378 
C 213.563403 118.79056 213.705545 121.683939 213.705545 124.579063 
C 213.705545 127.474186 213.563403 130.367565 213.279631 133.248747 
L 213.279631 133.248747 
C 213.563403 130.367565 213.705545 127.474186 213.705545 124.579063 
C 213.705545 121.683939 213.563403 118.79056 213.279631 115.909378 
z
" clip-path="url(#p33d2a35572)" style="fill: #828282"/>
   </g>
   <g id="patch_108">
    <path d="M 222.298873 134.137065 
C 221.986026 137.313461 221.517414 140.472583 220.894732 143.603019 
C 220.272049 146.733455 219.496046 149.831433 218.569526 152.885762 
L 218.569526 152.885762 
C 219.496046 149.831433 220.272049 146.733455 220.894732 143.603019 
C 221.517414 140.472583 221.986026 137.313461 222.298873 134.137065 
z
" clip-path="url(#p33d2a35572)" style="fill: #828282"/>
   </g>
   <g id="patch_109">
    <path d="M 201.778145 147.792152 
C 201.018346 150.296874 200.13603 152.762782 199.134383 155.18097 
C 198.132737 157.599157 197.012969 159.96671 195.779122 162.275074 
L 195.779122 162.275074 
C 197.012969 159.96671 198.132737 157.599157 199.134383 155.18097 
C 200.13603 152.762782 201.018346 150.296874 201.778145 147.792152 
z
" clip-path="url(#p33d2a35572)" style="fill: #828282"/>
   </g>
   <g id="patch_110">
    <path d="M 182.629903 155.246671 
C 181.626107 157.124642 180.530712 158.952198 179.347675 160.722737 
C 178.164639 162.493276 176.895387 164.204664 175.544504 165.85072 
L 175.544504 165.85072 
C 176.895387 164.204664 178.164639 162.493276 179.347675 160.722737 
C 180.530712 158.952198 181.626107 157.124642 182.629903 155.246671 
z
" clip-path="url(#p33d2a35572)" style="fill: #828282"/>
   </g>
   <g id="patch_111">
    <path d="M 167.762806 159.464446 
C 166.620956 160.855795 165.411482 162.190244 164.138753 163.462972 
C 162.866025 164.735701 161.531576 165.945174 160.140227 167.087025 
L 160.140227 167.087025 
C 161.531576 165.945174 162.866025 164.735701 164.138753 163.462972 
C 165.411482 162.190244 166.620956 160.855795 167.762806 159.464446 
z
" clip-path="url(#p33d2a35572)" style="fill: #828282"/>
   </g>
   <g id="patch_112">
    <path d="M 159.98358 166.89615 
C 158.598478 168.032873 157.158402 169.100907 155.668551 170.096393 
C 154.178701 171.091879 152.640873 172.013617 151.060623 172.858279 
L 151.060623 172.858279 
C 152.640873 172.013617 154.178701 171.091879 155.668551 170.096393 
C 157.158402 169.100907 158.598478 168.032873 159.98358 166.89615 
z
" clip-path="url(#p33d2a35572)" style="fill: #828282"/>
   </g>
   <g id="patch_113">
    <path d="M 142.196145 156.274009 
C 141.158723 156.828523 140.0947 157.331768 139.00792 157.781927 
C 137.921141 158.232086 136.812915 158.628615 135.687246 158.970083 
L 135.687246 158.970083 
C 136.812915 158.628615 137.921141 158.232086 139.00792 157.781927 
C 140.0947 157.331768 141.158723 156.828523 142.196145 156.274009 
z
" clip-path="url(#p33d2a35572)" style="fill: #828282"/>
   </g>
   <g id="patch_114">
    <path d="M 140.821769 175.896337 
C 139.142078 176.405865 137.438383 176.832619 135.716837 177.175055 
C 133.995292 177.517492 132.257971 177.775199 130.511151 177.947246 
L 130.511151 177.947246 
C 132.257971 177.775199 133.995292 177.517492 135.716837 177.175055 
C 137.438383 176.832619 139.142078 176.405865 140.821769 175.896337 
z
" clip-path="url(#p33d2a35572)" style="fill: #828282"/>
   </g>
   <g id="patch_115">
    <path d="M 128.30194 155.516746 
C 127.289303 155.616482 126.27238 155.66644 125.254844 155.66644 
C 124.237307 155.66644 123.220384 155.616482 122.207748 155.516746 
L 122.207748 155.516746 
C 123.220384 155.616482 124.237307 155.66644 125.254844 155.66644 
C 126.27238 155.66644 127.289303 155.616482 128.30194 155.516746 
z
" clip-path="url(#p33d2a35572)" style="fill: #828282"/>
   </g>
   <g id="patch_116">
    <path d="M 122.411023 153.452856 
C 121.465941 153.359773 120.525998 153.220346 119.59459 153.035077 
C 118.663183 152.849809 117.741432 152.618922 116.832669 152.343252 
L 116.832669 152.343252 
C 117.741432 152.618922 118.663183 152.849809 119.59459 153.035077 
C 120.525998 153.220346 121.465941 153.359773 122.411023 153.452856 
z
" clip-path="url(#p33d2a35572)" style="fill: #828282"/>
   </g>
   <g id="patch_117">
    <path d="M 117.268678 150.905923 
C 116.406961 150.644524 115.558596 150.340974 114.72665 149.996371 
C 113.894704 149.651767 113.080178 149.266525 112.286014 148.842036 
L 112.286014 148.842036 
C 113.080178 149.266525 113.894704 149.651767 114.72665 149.996371 
C 115.558596 150.340974 116.406961 150.644524 117.268678 150.905923 
z
" clip-path="url(#p33d2a35572)" style="fill: #828282"/>
   </g>
   <g id="patch_118">
    <path d="M 112.615186 148.226199 
C 111.84118 147.812484 111.087953 147.361017 110.358225 146.873428 
C 109.628497 146.38584 108.923148 145.862717 108.244726 145.305951 
L 108.244726 145.305951 
C 108.923148 145.862717 109.628497 146.38584 110.358225 146.873428 
C 111.087953 147.361017 111.84118 147.812484 112.615186 148.226199 
z
" clip-path="url(#p33d2a35572)" style="fill: #828282"/>
   </g>
   <g id="patch_119">
    <path d="M 113.720542 138.63365 
C 113.260514 138.256115 112.8193 137.856222 112.398492 137.435414 
C 111.977684 137.014607 111.577791 136.573392 111.200256 136.113364 
L 111.200256 136.113364 
C 111.577791 136.573392 111.977684 137.014607 112.398492 137.435414 
C 112.8193 137.856222 113.260514 138.256115 113.720542 138.63365 
z
" clip-path="url(#p33d2a35572)" style="fill: #828282"/>
   </g>
   <g id="patch_120">
    <path d="M 103.38758 142.525062 
C 102.800181 141.809314 102.248277 141.065157 101.733862 140.29528 
C 101.219446 139.525404 100.74314 138.730734 100.306663 137.914143 
L 100.306663 137.914143 
C 100.74314 138.730734 101.219446 139.525404 101.733862 140.29528 
C 102.248277 141.065157 102.800181 141.809314 103.38758 142.525062 
z
" clip-path="url(#p33d2a35572)" style="fill: #828282"/>
   </g>
   <g id="patch_121">
    <path d="M 87.195058 144.922442 
C 86.529189 143.676688 85.924884 142.398993 85.384327 141.093971 
C 84.843769 139.78895 84.36761 138.458175 83.95757 137.106454 
L 83.698024 137.185186 
C 84.110642 138.545403 84.589793 139.884541 85.133748 141.197765 
C 85.677703 142.510988 86.285806 143.796713 86.95586 145.050296 
z
" clip-path="url(#p33d2a35572)" style="fill: #828282"/>
   </g>
   <g id="patch_122">
    <path d="M 99.822848 132.293774 
C 99.570334 131.461347 99.358842 130.617024 99.189136 129.763854 
C 99.01943 128.910685 98.891715 128.049697 98.806451 127.184002 
L 91.311562 127.922184 
C 91.420987 129.033198 91.584894 130.13817 91.802691 131.233109 
C 92.020488 132.328048 92.291912 133.411634 92.615983 134.479953 
z
" clip-path="url(#p33d2a35572)" style="fill: #828282"/>
   </g>
   <g id="patch_123">
    <path d="M 98.738894 127.190656 
C 98.653413 126.322749 98.610595 125.451169 98.610595 124.579063 
C 98.610595 123.706956 98.653413 122.835376 98.738894 121.967469 
L 78.040938 119.928899 
C 77.888731 121.47428 77.81249 123.026203 77.81249 124.579062 
C 77.81249 126.131922 77.888731 127.683845 78.040938 129.229226 
z
" clip-path="url(#p33d2a35572)" style="fill: #828282"/>
   </g>
   <g id="patch_124">
    <path d="M 81.768955 120.296076 
C 81.909144 118.872718 82.119131 117.457101 82.398158 116.054338 
C 82.677185 114.651574 83.024916 113.263356 83.440094 111.894697 
L 80.34993 110.957306 
C 79.904069 112.427111 79.530641 113.91792 79.230993 115.424349 
C 78.931346 116.930779 78.705841 118.451012 78.555292 119.979558 
z
" clip-path="url(#p33d2a35572)" style="fill: #828282"/>
   </g>
   <g id="patch_125">
    <path d="M 69.592571 107.694097 
C 70.145241 105.872187 70.787028 104.078511 71.515616 102.319545 
C 72.244203 100.56058 73.058711 98.838447 73.956199 97.159366 
L 67.355689 93.63132 
C 66.342723 95.526445 65.423413 97.470163 64.60108 99.455451 
C 63.778747 101.440739 63.054381 103.465205 62.4306 105.521536 
z
" clip-path="url(#p33d2a35572)" style="fill: #828282"/>
   </g>
   <g id="patch_126">
    <path d="M 66.896451 93.385852 
C 67.917451 91.475694 69.03162 89.616817 70.234932 87.815933 
C 71.438244 86.015049 72.729249 84.27433 74.103285 82.600063 
L 63.833947 74.172235 
C 62.184056 76.182633 60.633865 78.272824 59.188972 80.435258 
C 57.744079 82.597693 56.406227 84.829764 55.180248 87.123411 
z
" clip-path="url(#p33d2a35572)" style="fill: #828282"/>
   </g>
   <g id="patch_127">
    <path d="M 66.464876 76.331383 
C 68.044094 74.407099 69.716838 72.561511 71.477065 70.801284 
C 73.237292 69.041057 75.082881 67.368313 77.007164 65.789095 
L 54.913323 38.867672 
C 52.107862 41.170055 49.417131 43.608791 46.850852 46.175071 
C 44.284572 48.74135 41.845836 51.43208 39.543453 54.237542 
z
" clip-path="url(#p33d2a35572)" style="fill: #828282"/>
   </g>
   <g id="patch_128">
    <path d="M 79.188599 68.447181 
C 81.025879 66.939364 82.936082 65.522661 84.912307 64.202189 
C 86.888532 62.881718 88.928398 61.659069 91.024536 60.53866 
L 79.519252 39.013788 
C 76.718573 40.510782 73.99308 42.14438 71.352618 43.90868 
C 68.712156 45.672981 66.159907 47.565857 63.705091 49.580472 
z
" clip-path="url(#p33d2a35572)" style="fill: #828282"/>
   </g>
   <g id="patch_129">
    <path d="M 82.009425 43.672575 
C 84.657615 42.257088 87.373706 40.972473 90.147886 39.82337 
C 92.922067 38.674267 95.750993 37.662061 98.624447 36.790408 
L 94.477496 23.119744 
C 91.156581 24.127133 87.887128 25.296962 84.680945 26.625006 
C 81.474763 27.95305 78.335716 29.437709 75.275143 31.073619 
z
" clip-path="url(#p33d2a35572)" style="fill: #828282"/>
   </g>
   <g id="patch_130">
    <path d="M 106.584641 63.031653 
C 108.59918 62.420549 110.642508 61.908722 112.707244 61.49802 
C 114.771981 61.087319 116.855638 60.778237 118.950688 60.571893 
L 118.005693 50.977197 
C 115.596594 51.214472 113.200596 51.569885 110.826355 52.042151 
C 108.452114 52.514417 106.10249 53.102967 103.785971 53.805675 
z
" clip-path="url(#p33d2a35572)" style="fill: #828282"/>
   </g>
   <g id="patch_131">
    <path d="M 125.254844 124.579063 
C 125.254844 124.579063 125.254844 124.579063 125.254844 124.579063 
C 125.254844 124.579063 125.254844 124.579063 125.254844 124.579063 
L 132.429396 51.73461 
C 130.045088 51.499776 127.650688 51.382147 125.254844 51.382147 
C 122.858999 51.382147 120.464599 51.499776 118.080291 51.73461 
L 125.254844 124.579063 
z
" clip-path="url(#p33d2a35572)" style="fill: none; stroke: #292929; stroke-width: 0.5; stroke-linejoin: miter"/>
   </g>
   <g id="patch_132">
    <path d="M 125.254844 124.579063 
C 125.254844 124.579063 125.254844 124.579063 125.254844 124.579063 
C 125.254844 124.579063 125.254844 124.579063 125.254844 124.579063 
L 150.659553 40.830959 
C 147.918353 39.999424 145.137979 39.302977 142.328473 38.744132 
C 139.518968 38.185286 136.683718 37.764717 133.832964 37.483942 
L 125.254844 124.579063 
z
" clip-path="url(#p33d2a35572)" style="fill: none; stroke: #292929; stroke-width: 0.5; stroke-linejoin: miter"/>
   </g>
   <g id="patch_133">
    <path d="M 125.254844 124.579063 
C 125.254844 124.579063 125.254844 124.579063 125.254844 124.579063 
C 125.254844 124.579063 125.254844 124.579063 125.254844 124.579063 
L 167.826706 44.93271 
C 165.219762 43.53927 162.545975 42.274663 159.815003 41.143457 
C 157.084031 40.012252 154.299166 39.015811 151.470467 38.157734 
L 125.254844 124.579063 
z
" clip-path="url(#p33d2a35572)" style="fill: none; stroke: #292929; stroke-width: 0.5; stroke-linejoin: miter"/>
   </g>
   <g id="patch_134">
    <path d="M 125.254844 124.579063 
C 125.254844 124.579063 125.254844 124.579063 125.254844 124.579063 
C 125.254844 124.579063 125.254844 124.579063 125.254844 124.579063 
L 166.172686 74.720527 
C 164.540742 73.381225 162.844025 72.122854 161.088665 70.949959 
C 159.333304 69.777065 157.521416 68.691061 155.659544 67.69587 
L 125.254844 124.579063 
z
" clip-path="url(#p33d2a35572)" style="fill: none; stroke: #292929; stroke-width: 0.5; stroke-linejoin: miter"/>
   </g>
   <g id="patch_135">
    <path d="M 125.254844 124.579063 
C 125.254844 124.579063 125.254844 124.579063 125.254844 124.579063 
C 125.254844 124.579063 125.254844 124.579063 125.254844 124.579063 
L 175.189098 83.599079 
C 173.847762 81.964656 172.426989 80.397075 170.93191 78.901996 
C 169.436832 77.406918 167.86925 75.986144 166.234827 74.644808 
L 125.254844 124.579063 
z
" clip-path="url(#p33d2a35572)" style="fill: none; stroke: #292929; stroke-width: 0.5; stroke-linejoin: miter"/>
   </g>
   <g id="patch_136">
    <path d="M 125.254844 124.579063 
C 125.254844 124.579063 125.254844 124.579063 125.254844 124.579063 
C 125.254844 124.579063 125.254844 124.579063 125.254844 124.579063 
L 197.520721 85.952146 
C 196.256404 83.586776 194.876716 81.284906 193.386641 79.054851 
C 191.896566 76.824796 190.297899 74.669243 188.596415 72.595979 
L 125.254844 124.579063 
z
" clip-path="url(#p33d2a35572)" style="fill: none; stroke: #292929; stroke-width: 0.5; stroke-linejoin: miter"/>
   </g>
   <g id="patch_137">
    <path d="M 125.254844 124.579063 
C 125.254844 124.579063 125.254844 124.579063 125.254844 124.579063 
C 125.254844 124.579063 125.254844 124.579063 125.254844 124.579063 
L 215.652157 97.157337 
C 214.754603 94.198498 213.712319 91.28551 212.52907 88.428894 
C 211.345821 85.572279 210.023033 82.775479 208.565485 80.048597 
L 125.254844 124.579063 
z
" clip-path="url(#p33d2a35572)" style="fill: none; stroke: #292929; stroke-width: 0.5; stroke-linejoin: miter"/>
   </g>
   <g id="patch_138">
    <path d="M 125.254844 124.579063 
C 125.254844 124.579063 125.254844 124.579063 125.254844 124.579063 
C 125.254844 124.579063 125.254844 124.579063 125.254844 124.579063 
L 192.718433 117.934479 
C 192.500946 115.726295 192.175174 113.53012 191.742295 111.353886 
C 191.309415 109.177653 190.769949 107.023984 190.125845 104.900659 
L 125.254844 124.579063 
z
" clip-path="url(#p33d2a35572)" style="fill: none; stroke: #292929; stroke-width: 0.5; stroke-linejoin: miter"/>
   </g>
   <g id="patch_139">
    <path d="M 125.254844 124.579063 
C 125.254844 124.579063 125.254844 124.579063 125.254844 124.579063 
C 125.254844 124.579063 125.254844 124.579063 125.254844 124.579063 
L 213.279631 133.248747 
C 213.563403 130.367565 213.705545 127.474186 213.705545 124.579063 
C 213.705545 121.683939 213.563403 118.79056 213.279631 115.909378 
L 125.254844 124.579063 
z
" clip-path="url(#p33d2a35572)" style="fill: none; stroke: #292929; stroke-width: 0.5; stroke-linejoin: miter"/>
   </g>
   <g id="patch_140">
    <path d="M 125.254844 124.579063 
C 125.254844 124.579063 125.254844 124.579063 125.254844 124.579063 
C 125.254844 124.579063 125.254844 124.579063 125.254844 124.579063 
L 218.569526 152.885762 
C 219.496046 149.831433 220.272049 146.733455 220.894732 143.603019 
C 221.517414 140.472583 221.986026 137.313461 222.298873 134.137065 
L 125.254844 124.579063 
z
" clip-path="url(#p33d2a35572)" style="fill: none; stroke: #292929; stroke-width: 0.5; stroke-linejoin: miter"/>
   </g>
   <g id="patch_141">
    <path d="M 125.254844 124.579063 
C 125.254844 124.579063 125.254844 124.579063 125.254844 124.579063 
C 125.254844 124.579063 125.254844 124.579063 125.254844 124.579063 
L 195.779122 162.275074 
C 197.012969 159.96671 198.132737 157.599157 199.134383 155.18097 
C 200.13603 152.762782 201.018346 150.296874 201.778145 147.792152 
L 125.254844 124.579063 
z
" clip-path="url(#p33d2a35572)" style="fill: none; stroke: #292929; stroke-width: 0.5; stroke-linejoin: miter"/>
   </g>
   <g id="patch_142">
    <path d="M 125.254844 124.579063 
C 125.254844 124.579063 125.254844 124.579063 125.254844 124.579063 
C 125.254844 124.579063 125.254844 124.579063 125.254844 124.579063 
L 175.544504 165.85072 
C 176.895387 164.204664 178.164639 162.493276 179.347675 160.722737 
C 180.530712 158.952198 181.626107 157.124642 182.629903 155.246671 
L 125.254844 124.579063 
z
" clip-path="url(#p33d2a35572)" style="fill: none; stroke: #292929; stroke-width: 0.5; stroke-linejoin: miter"/>
   </g>
   <g id="patch_143">
    <path d="M 125.254844 124.579063 
C 125.254844 124.579063 125.254844 124.579063 125.254844 124.579063 
C 125.254844 124.579063 125.254844 124.579063 125.254844 124.579063 
L 160.140227 167.087025 
C 161.531576 165.945174 162.866025 164.735701 164.138753 163.462972 
C 165.411482 162.190244 166.620956 160.855795 167.762806 159.464446 
L 125.254844 124.579063 
z
" clip-path="url(#p33d2a35572)" style="fill: none; stroke: #292929; stroke-width: 0.5; stroke-linejoin: miter"/>
   </g>
   <g id="patch_144">
    <path d="M 125.254844 124.579063 
C 125.254844 124.579063 125.254844 124.579063 125.254844 124.579063 
C 125.254844 124.579063 125.254844 124.579063 125.254844 124.579063 
L 151.060623 172.858279 
C 152.640873 172.013617 154.178701 171.091879 155.668551 170.096393 
C 157.158402 169.100907 158.598478 168.032873 159.98358 166.89615 
L 125.254844 124.579063 
z
" clip-path="url(#p33d2a35572)" style="fill: none; stroke: #292929; stroke-width: 0.5; stroke-linejoin: miter"/>
   </g>
   <g id="patch_145">
    <path d="M 125.254844 124.579063 
C 125.254844 124.579063 125.254844 124.579063 125.254844 124.579063 
C 125.254844 124.579063 125.254844 124.579063 125.254844 124.579063 
L 135.687246 158.970083 
C 136.812915 158.628615 137.921141 158.232086 139.00792 157.781927 
C 140.0947 157.331768 141.158723 156.828523 142.196145 156.274009 
L 125.254844 124.579063 
z
" clip-path="url(#p33d2a35572)" style="fill: none; stroke: #292929; stroke-width: 0.5; stroke-linejoin: miter"/>
   </g>
   <g id="patch_146">
    <path d="M 125.254844 124.579063 
C 125.254844 124.579063 125.254844 124.579063 125.254844 124.579063 
C 125.254844 124.579063 125.254844 124.579063 125.254844 124.579063 
L 130.511151 177.947246 
C 132.257971 177.775199 133.995292 177.517492 135.716837 177.175055 
C 137.438383 176.832619 139.142078 176.405865 140.821769 175.896337 
L 125.254844 124.579063 
z
" clip-path="url(#p33d2a35572)" style="fill: none; stroke: #292929; stroke-width: 0.5; stroke-linejoin: miter"/>
   </g>
   <g id="patch_147">
    <path d="M 125.254844 124.579063 
C 125.254844 124.579063 125.254844 124.579063 125.254844 124.579063 
C 125.254844 124.579063 125.254844 124.579063 125.254844 124.579063 
L 122.207748 155.516746 
C 123.220384 155.616482 124.237307 155.66644 125.254844 155.66644 
C 126.27238 155.66644 127.289303 155.616482 128.30194 155.516746 
L 125.254844 124.579063 
z
" clip-path="url(#p33d2a35572)" style="fill: none; stroke: #292929; stroke-width: 0.5; stroke-linejoin: miter"/>
   </g>
   <g id="patch_148">
    <path d="M 125.254844 124.579063 
C 125.254844 124.579063 125.254844 124.579063 125.254844 124.579063 
C 125.254844 124.579063 125.254844 124.579063 125.254844 124.579063 
L 116.832669 152.343252 
C 117.741432 152.618922 118.663183 152.849809 119.59459 153.035077 
C 120.525998 153.220346 121.465941 153.359773 122.411023 153.452856 
L 125.254844 124.579063 
z
" clip-path="url(#p33d2a35572)" style="fill: none; stroke: #292929; stroke-width: 0.5; stroke-linejoin: miter"/>
   </g>
   <g id="patch_149">
    <path d="M 125.254844 124.579063 
C 125.254844 124.579063 125.254844 124.579063 125.254844 124.579063 
C 125.254844 124.579063 125.254844 124.579063 125.254844 124.579063 
L 112.286014 148.842036 
C 113.080178 149.266525 113.894704 149.651767 114.72665 149.996371 
C 115.558596 150.340974 116.406961 150.644524 117.268678 150.905923 
L 125.254844 124.579063 
z
" clip-path="url(#p33d2a35572)" style="fill: none; stroke: #292929; stroke-width: 0.5; stroke-linejoin: miter"/>
   </g>
   <g id="patch_150">
    <path d="M 125.254844 124.579063 
C 125.254844 124.579063 125.254844 124.579063 125.254844 124.579063 
C 125.254844 124.579063 125.254844 124.579063 125.254844 124.579063 
L 108.244726 145.305951 
C 108.923148 145.862717 109.628497 146.38584 110.358225 146.873428 
C 111.087953 147.361017 111.84118 147.812484 112.615186 148.226199 
L 125.254844 124.579063 
z
" clip-path="url(#p33d2a35572)" style="fill: none; stroke: #292929; stroke-width: 0.5; stroke-linejoin: miter"/>
   </g>
   <g id="patch_151">
    <path d="M 125.254844 124.579063 
C 125.254844 124.579063 125.254844 124.579063 125.254844 124.579063 
C 125.254844 124.579063 125.254844 124.579063 125.254844 124.579063 
L 111.200256 136.113364 
C 111.577791 136.573392 111.977684 137.014607 112.398492 137.435414 
C 112.8193 137.856222 113.260514 138.256115 113.720542 138.63365 
L 125.254844 124.579063 
z
" clip-path="url(#p33d2a35572)" style="fill: none; stroke: #292929; stroke-width: 0.5; stroke-linejoin: miter"/>
   </g>
   <g id="patch_152">
    <path d="M 125.254844 124.579063 
C 125.254844 124.579063 125.254844 124.579063 125.254844 124.579063 
C 125.254844 124.579063 125.254844 124.579063 125.254844 124.579063 
L 100.306663 137.914143 
C 100.74314 138.730734 101.219446 139.525404 101.733862 140.29528 
C 102.248277 141.065157 102.800181 141.809314 103.38758 142.525062 
L 125.254844 124.579063 
z
" clip-path="url(#p33d2a35572)" style="fill: none; stroke: #292929; stroke-width: 0.5; stroke-linejoin: miter"/>
   </g>
   <g id="patch_153">
    <path d="M 125.254844 124.579063 
C 125.254844 124.579063 125.254844 124.579063 125.254844 124.579063 
C 125.254844 124.579063 125.254844 124.579063 125.254844 124.579063 
L 83.698024 137.185186 
C 84.110642 138.545403 84.589793 139.884541 85.133748 141.197765 
C 85.677703 142.510988 86.285806 143.796713 86.95586 145.050296 
L 125.254844 124.579063 
z
" clip-path="url(#p33d2a35572)" style="fill: none; stroke: #292929; stroke-width: 0.5; stroke-linejoin: miter"/>
   </g>
   <g id="patch_154">
    <path d="M 125.254844 124.579063 
C 125.254844 124.579063 125.254844 124.579063 125.254844 124.579063 
C 125.254844 124.579063 125.254844 124.579063 125.254844 124.579063 
L 91.311562 127.922184 
C 91.420987 129.033198 91.584894 130.13817 91.802691 131.233109 
C 92.020488 132.328048 92.291912 133.411634 92.615983 134.479953 
L 125.254844 124.579063 
z
" clip-path="url(#p33d2a35572)" style="fill: none; stroke: #292929; stroke-width: 0.5; stroke-linejoin: miter"/>
   </g>
   <g id="patch_155">
    <path d="M 125.254844 124.579063 
C 125.254844 124.579063 125.254844 124.579063 125.254844 124.579063 
C 125.254844 124.579063 125.254844 124.579063 125.254844 124.579063 
L 78.040938 119.928899 
C 77.888731 121.47428 77.81249 123.026203 77.81249 124.579062 
C 77.81249 126.131922 77.888731 127.683845 78.040938 129.229226 
L 125.254844 124.579063 
z
" clip-path="url(#p33d2a35572)" style="fill: none; stroke: #292929; stroke-width: 0.5; stroke-linejoin: miter"/>
   </g>
   <g id="patch_156">
    <path d="M 125.254844 124.579063 
C 125.254844 124.579063 125.254844 124.579063 125.254844 124.579063 
C 125.254844 124.579063 125.254844 124.579063 125.254844 124.579063 
L 80.34993 110.957306 
C 79.904069 112.427111 79.530641 113.91792 79.230993 115.424349 
C 78.931346 116.930779 78.705841 118.451012 78.555292 119.979558 
L 125.254844 124.579063 
z
" clip-path="url(#p33d2a35572)" style="fill: none; stroke: #292929; stroke-width: 0.5; stroke-linejoin: miter"/>
   </g>
   <g id="patch_157">
    <path d="M 125.254844 124.579063 
C 125.254844 124.579063 125.254844 124.579063 125.254844 124.579063 
C 125.254844 124.579063 125.254844 124.579063 125.254844 124.579063 
L 67.355689 93.63132 
C 66.342723 95.526445 65.423413 97.470163 64.60108 99.455451 
C 63.778747 101.440739 63.054381 103.465205 62.4306 105.521536 
L 125.254844 124.579063 
z
" clip-path="url(#p33d2a35572)" style="fill: none; stroke: #292929; stroke-width: 0.5; stroke-linejoin: miter"/>
   </g>
   <g id="patch_158">
    <path d="M 125.254844 124.579063 
C 125.254844 124.579063 125.254844 124.579063 125.254844 124.579063 
C 125.254844 124.579063 125.254844 124.579063 125.254844 124.579063 
L 63.833947 74.172235 
C 62.184056 76.182633 60.633865 78.272824 59.188972 80.435258 
C 57.744079 82.597693 56.406227 84.829764 55.180248 87.123411 
L 125.254844 124.579063 
z
" clip-path="url(#p33d2a35572)" style="fill: none; stroke: #292929; stroke-width: 0.5; stroke-linejoin: miter"/>
   </g>
   <g id="patch_159">
    <path d="M 125.254844 124.579063 
C 125.254844 124.579063 125.254844 124.579063 125.254844 124.579063 
C 125.254844 124.579063 125.254844 124.579063 125.254844 124.579063 
L 54.913323 38.867672 
C 52.107862 41.170055 49.417131 43.608791 46.850852 46.175071 
C 44.284572 48.74135 41.845836 51.43208 39.543453 54.237542 
L 125.254844 124.579063 
z
" clip-path="url(#p33d2a35572)" style="fill: none; stroke: #292929; stroke-width: 0.5; stroke-linejoin: miter"/>
   </g>
   <g id="patch_160">
    <path d="M 125.254844 124.579063 
C 125.254844 124.579063 125.254844 124.579063 125.254844 124.579063 
C 125.254844 124.579063 125.254844 124.579063 125.254844 124.579063 
L 79.519252 39.013788 
C 76.718573 40.510782 73.99308 42.14438 71.352618 43.90868 
C 68.712156 45.672981 66.159907 47.565857 63.705091 49.580472 
L 125.254844 124.579063 
z
" clip-path="url(#p33d2a35572)" style="fill: none; stroke: #292929; stroke-width: 0.5; stroke-linejoin: miter"/>
   </g>
   <g id="patch_161">
    <path d="M 125.254844 124.579063 
C 125.254844 124.579063 125.254844 124.579063 125.254844 124.579063 
C 125.254844 124.579063 125.254844 124.579063 125.254844 124.579063 
L 94.477496 23.119744 
C 91.156581 24.127133 87.887128 25.296962 84.680945 26.625006 
C 81.474763 27.95305 78.335716 29.437709 75.275143 31.073619 
L 125.254844 124.579063 
z
" clip-path="url(#p33d2a35572)" style="fill: none; stroke: #292929; stroke-width: 0.5; stroke-linejoin: miter"/>
   </g>
   <g id="patch_162">
    <path d="M 125.254844 124.579063 
C 125.254844 124.579063 125.254844 124.579063 125.254844 124.579063 
C 125.254844 124.579063 125.254844 124.579063 125.254844 124.579063 
L 118.005693 50.977197 
C 115.596594 51.214472 113.200596 51.569885 110.826355 52.042151 
C 108.452114 52.514417 106.10249 53.102967 103.785971 53.805675 
L 125.254844 124.579063 
z
" clip-path="url(#p33d2a35572)" style="fill: none; stroke: #292929; stroke-width: 0.5; stroke-linejoin: miter"/>
   </g>
   <g id="PathCollection_1">
    <defs>
     <path id="m2f1441d45f" d="M 0.193618 7.414054 
L 0.193618 7.414054 
C 0.054922 7.414054 -0.078235 7.358899 -0.176308 7.260826 
C -0.274381 7.162753 -0.329536 7.029596 -0.329536 6.890901 
L -0.329536 5.365008 
L -1.528416 6.56393 
L -1.528416 6.56393 
C -1.577018 6.612704 -1.634775 6.651408 -1.698366 6.677814 
C -1.761958 6.704221 -1.830141 6.717815 -1.898997 6.717815 
C -1.967853 6.717815 -2.036037 6.704221 -2.099628 6.677814 
C -2.163219 6.651408 -2.220976 6.612704 -2.269578 6.56393 
L -2.269578 6.56393 
C -2.318353 6.515327 -2.357056 6.457571 -2.383463 6.393979 
C -2.409869 6.330388 -2.423463 6.262205 -2.423463 6.193348 
C -2.423463 6.124492 -2.409869 6.056309 -2.383463 5.992718 
C -2.357056 5.929126 -2.318353 5.87137 -2.269578 5.822767 
L -0.329536 3.884106 
L -0.329536 0.820937 
L -2.98067 2.351538 
L -3.691824 5.001416 
L -3.691824 5.001416 
C -3.727584 5.135411 -3.815199 5.249836 -3.93523 5.319305 
C -4.055261 5.388775 -4.198123 5.407741 -4.332122 5.371997 
L -4.332122 5.371997 
C -4.466126 5.336237 -4.580558 5.248616 -4.650029 5.128576 
C -4.719499 5.008535 -4.73846 4.865662 -4.702703 4.731657 
L -4.262647 3.092721 
L -5.585535 3.855668 
L -5.585535 3.855668 
C -5.645013 3.890144 -5.710708 3.912561 -5.778854 3.921634 
C -5.847001 3.930706 -5.916272 3.926258 -5.982698 3.908543 
C -6.049125 3.890828 -6.111412 3.860192 -6.165991 3.818391 
C -6.220571 3.77659 -6.266379 3.724437 -6.300791 3.664922 
L -6.300791 3.664922 
C -6.335212 3.605364 -6.35755 3.539597 -6.366524 3.471396 
C -6.375498 3.403194 -6.370933 3.333888 -6.35309 3.267452 
C -6.335248 3.201017 -6.304476 3.138749 -6.26254 3.08422 
C -6.220605 3.029692 -6.168323 2.983966 -6.108695 2.949666 
L -4.785807 2.186762 
L -6.424743 1.746706 
L -6.424743 1.746706 
C -6.558747 1.710946 -6.673179 1.623325 -6.74265 1.503284 
C -6.81212 1.383244 -6.831081 1.240371 -6.795324 1.106366 
L -6.795324 1.106366 
C -6.777471 1.039969 -6.746703 0.977739 -6.704784 0.923241 
C -6.662864 0.868744 -6.61061 0.823041 -6.551015 0.788752 
C -6.491421 0.754464 -6.425647 0.732257 -6.357465 0.723406 
C -6.289282 0.714554 -6.220019 0.71923 -6.153645 0.737166 
L -3.505232 1.44698 
L -0.852424 -0.08496 
L -3.503767 -1.615666 
L -6.153645 -0.905851 
L -6.153645 -0.905851 
C -6.22011 -0.887939 -6.289462 -0.883321 -6.357716 -0.892262 
C -6.42597 -0.901202 -6.491793 -0.923527 -6.551403 -0.957953 
C -6.611013 -0.992379 -6.663247 -1.038234 -6.705103 -1.092883 
C -6.746958 -1.147533 -6.777619 -1.209911 -6.795324 -1.276432 
L -6.795324 -1.276432 
C -6.831068 -1.410431 -6.812101 -1.553293 -6.742632 -1.673324 
C -6.673162 -1.793355 -6.558738 -1.88097 -6.424743 -1.91673 
L -4.785807 -2.355447 
L -6.108695 -3.119732 
L -6.108695 -3.119732 
C -6.228699 -3.188976 -6.316415 -3.303132 -6.352417 -3.436921 
C -6.388419 -3.57071 -6.369839 -3.713469 -6.300791 -3.833586 
L -6.300791 -3.833586 
C -6.266491 -3.893214 -6.220765 -3.945496 -6.166237 -3.987431 
C -6.111708 -4.029367 -6.04944 -4.060139 -5.983005 -4.077981 
C -5.91657 -4.095823 -5.847263 -4.100389 -5.779062 -4.091415 
C -5.71086 -4.082441 -5.645094 -4.060102 -5.585535 -4.025682 
L -4.262647 -3.261396 
L -4.702703 -4.900332 
L -4.702703 -4.900332 
C -4.73846 -5.034337 -4.719499 -5.17721 -4.650029 -5.29725 
C -4.580558 -5.417291 -4.466126 -5.504912 -4.332122 -5.540672 
L -4.332122 -5.540672 
C -4.19831 -5.576464 -4.055613 -5.557686 -3.935617 -5.488496 
C -3.81562 -5.419305 -3.727882 -5.305212 -3.691824 -5.171472 
L -2.982009 -2.521594 
L -0.329411 -0.990302 
L -0.329411 -4.051588 
L -2.269453 -5.991589 
L -2.269453 -5.991589 
C -2.318227 -6.040191 -2.356931 -6.097947 -2.383337 -6.161539 
C -2.409744 -6.22513 -2.423338 -6.293314 -2.423338 -6.36217 
C -2.423338 -6.431026 -2.409744 -6.499209 -2.383337 -6.5628 
C -2.356931 -6.626392 -2.318227 -6.684149 -2.269453 -6.732751 
L -2.269453 -6.732751 
C -2.22085 -6.781526 -2.163094 -6.820229 -2.099502 -6.846635 
C -2.035911 -6.873042 -1.967728 -6.886636 -1.898871 -6.886636 
C -1.830015 -6.886636 -1.761832 -6.873042 -1.698241 -6.846635 
C -1.634649 -6.820229 -1.576893 -6.781526 -1.52829 -6.732751 
L -0.329411 -5.533829 
L -0.329411 -7.059722 
L -0.329411 -7.059722 
C -0.329411 -7.198418 -0.274255 -7.331575 -0.176182 -7.429647 
C -0.07811 -7.52772 0.055047 -7.582875 0.193743 -7.582875 
L 0.193743 -7.582875 
C 0.332439 -7.582875 0.465596 -7.52772 0.563669 -7.429647 
C 0.661741 -7.331575 0.716897 -7.198418 0.716897 -7.059722 
L 0.716897 -5.533829 
L 1.915777 -6.732751 
L 1.915777 -6.732751 
C 1.964379 -6.781526 2.022136 -6.820229 2.085727 -6.846635 
C 2.149318 -6.873042 2.217502 -6.886636 2.286358 -6.886636 
C 2.355214 -6.886636 2.423397 -6.873042 2.486989 -6.846635 
C 2.55058 -6.820229 2.608337 -6.781526 2.656939 -6.732751 
L 2.656939 -6.732751 
C 2.705714 -6.684149 2.744417 -6.626392 2.770823 -6.5628 
C 2.79723 -6.499209 2.810824 -6.431026 2.810824 -6.36217 
C 2.810824 -6.293314 2.79723 -6.22513 2.770823 -6.161539 
C 2.744417 -6.097947 2.705714 -6.040191 2.656939 -5.991589 
L 0.716897 -4.051588 
L 0.716897 -0.991139 
L 3.369495 -2.522954 
L 4.07931 -5.171367 
L 4.07931 -5.171367 
C 4.115368 -5.305107 4.203106 -5.4192 4.323103 -5.488391 
C 4.4431 -5.557582 4.585797 -5.576359 4.719608 -5.540567 
L 4.719608 -5.540567 
C 4.853612 -5.504807 4.968045 -5.417186 5.037515 -5.297146 
C 5.106986 -5.177105 5.125946 -5.034232 5.090189 -4.900227 
L 4.650133 -3.262673 
L 5.973022 -4.025577 
L 5.973022 -4.025577 
C 6.03258 -4.059998 6.098346 -4.082336 6.166548 -4.09131 
C 6.234749 -4.100284 6.304056 -4.095719 6.370491 -4.077876 
C 6.436926 -4.060034 6.499194 -4.029262 6.553723 -3.987327 
C 6.608252 -3.945391 6.653978 -3.893109 6.688277 -3.833481 
L 6.688277 -3.833481 
C 6.757325 -3.713365 6.775905 -3.570605 6.739903 -3.436816 
C 6.703901 -3.303027 6.616186 -3.188871 6.496181 -3.119628 
L 5.173293 -2.355342 
L 6.812229 -1.916625 
L 6.812229 -1.916625 
C 6.946224 -1.880865 7.060649 -1.79325 7.130118 -1.67322 
C 7.199588 -1.553189 7.218554 -1.410326 7.18281 -1.276327 
L 7.18281 -1.276327 
C 7.165106 -1.209806 7.134445 -1.147429 7.092589 -1.092779 
C 7.050733 -1.038129 6.998499 -0.992274 6.938889 -0.957848 
C 6.879279 -0.923422 6.813456 -0.901098 6.745202 -0.892157 
C 6.676949 -0.883217 6.607597 -0.887835 6.541131 -0.905746 
L 3.891253 -1.615561 
L 1.239492 -0.084604 
L 3.892718 1.447085 
L 6.541131 0.73727 
L 6.541131 0.73727 
C 6.674948 0.701466 6.817656 0.720237 6.937662 0.789429 
C 7.057669 0.858621 7.145413 0.972721 7.181471 1.10647 
L 7.181471 1.10647 
C 7.217274 1.240293 7.198497 1.383006 7.129297 1.503014 
C 7.060096 1.623021 6.945986 1.710762 6.812229 1.74681 
L 5.173293 2.186866 
L 6.496181 2.949771 
L 6.496181 2.949771 
C 6.555697 2.984183 6.607849 3.029991 6.649651 3.08457 
C 6.691452 3.13915 6.722088 3.201437 6.739803 3.267863 
C 6.757517 3.33429 6.761966 3.403561 6.752893 3.471707 
C 6.743821 3.539854 6.721404 3.605549 6.686927 3.665026 
L 6.686927 3.665026 
C 6.617458 3.784813 6.503196 3.87225 6.369416 3.907994 
C 6.235636 3.943739 6.092989 3.924946 5.973032 3.855772 
L 4.650144 3.091487 
L 5.08886 4.731783 
L 5.08886 4.731783 
C 5.124664 4.865606 5.105887 5.008319 5.036686 5.128326 
C 4.967486 5.248334 4.853376 5.336074 4.719619 5.372123 
L 4.719619 5.372123 
C 4.585619 5.407867 4.442757 5.3889 4.322726 5.319431 
C 4.202695 5.249961 4.115081 5.135537 4.07932 5.001542 
L 3.368166 2.351664 
L 0.717033 0.821063 
L 0.717033 3.884232 
L 2.657075 5.822893 
L 2.657075 5.822893 
C 2.70585 5.871495 2.744553 5.929252 2.770959 5.992843 
C 2.797366 6.056435 2.81096 6.124618 2.81096 6.193474 
C 2.81096 6.26233 2.797366 6.330514 2.770959 6.394105 
C 2.744553 6.457696 2.70585 6.515453 2.657075 6.564055 
L 2.657075 6.564055 
C 2.608473 6.61283 2.550716 6.651533 2.487125 6.67794 
C 2.423533 6.704346 2.35535 6.71794 2.286494 6.71794 
C 2.217638 6.71794 2.149454 6.704346 2.085863 6.67794 
C 2.022272 6.651533 1.964515 6.61283 1.915913 6.564055 
L 0.717033 5.365133 
L 0.717033 6.891026 
L 0.717033 6.891026 
C 0.717033 7.029722 0.661877 7.162879 0.563805 7.260952 
C 0.465732 7.359024 0.332575 7.41418 0.193879 7.41418 
L 0.193618 7.414054 
z
"/>
    </defs>
    <g clip-path="url(#p33d2a35572)">
     <use xlink:href="#m2f1441d45f" x="141.593442" y="85.155866" style="fill: #9e2096; fill-opacity: 0.7"/>
    </g>
   </g>
   <g id="patch_163">
    <path d="M 125.254844 13.699063 
C 110.694216 13.699063 96.275171 16.567189 82.822905 22.1393 
C 69.370638 27.711411 57.146763 35.879144 46.850844 46.175063 
C 36.554925 56.470982 28.387192 68.694857 22.815081 82.147124 
C 17.24297 95.59939 14.374844 110.018434 14.374844 124.579063 
C 14.374844 139.139691 17.24297 153.558735 22.815081 167.011001 
C 28.387192 180.463268 36.554925 192.687143 46.850844 202.983062 
C 57.146763 213.278981 69.370638 221.446714 82.822905 227.018825 
C 96.275171 232.590936 110.694216 235.459063 125.254844 235.459063 
C 139.815472 235.459063 154.234516 232.590936 167.686783 227.018825 
C 181.139049 221.446714 193.362925 213.278981 203.658844 202.983062 
C 213.954763 192.687143 222.122495 180.463268 227.694606 167.011001 
C 233.266717 153.558735 236.134844 139.139691 236.134844 124.579063 
C 236.134844 110.018434 233.266717 95.59939 227.694606 82.147124 
C 222.122495 68.694857 213.954763 56.470982 203.658844 46.175063 
C 193.362925 35.879144 181.139049 27.711411 167.686783 22.1393 
C 154.234516 16.567189 139.815472 13.699063 125.254844 13.699063 
" style="fill: none; stroke: #000000; stroke-width: 0.8; stroke-linejoin: miter; stroke-linecap: square"/>
   </g>
  </g>
 </g>
 <defs>
  <clipPath id="p33d2a35572">
   <path d="M 236.134844 124.579063 
C 236.134844 110.018434 233.266717 95.59939 227.694606 82.147124 
C 222.122495 68.694857 213.954763 56.470982 203.658844 46.175063 
C 193.362925 35.879144 181.139049 27.711411 167.686783 22.1393 
C 154.234516 16.567189 139.815472 13.699063 125.254844 13.699063 
C 110.694216 13.699063 96.275171 16.567189 82.822905 22.1393 
C 69.370638 27.711411 57.146763 35.879144 46.850844 46.175063 
C 36.554925 56.470982 28.387192 68.694857 22.815081 82.147124 
C 17.24297 95.59939 14.374844 110.018434 14.374844 124.579062 
C 14.374844 139.139691 17.24297 153.558735 22.815081 167.011001 
C 28.387192 180.463268 36.554925 192.687143 46.850844 202.983062 
C 57.146763 213.278981 69.370638 221.446714 82.822905 227.018825 
C 96.275171 232.590936 110.694216 235.459063 125.254844 235.459063 
C 139.815472 235.459063 154.234516 232.590936 167.686783 227.018825 
C 181.139049 221.446714 193.362925 213.278981 203.658844 202.983062 
C 213.954763 192.687143 222.122495 180.463268 227.694606 167.011001 
C 233.266717 153.558735 236.134844 139.139691 236.134844 124.579063 
M 125.254844 124.579063 
C 125.254844 124.579063 125.254844 124.579063 125.254844 124.579063 
C 125.254844 124.579063 125.254844 124.579063 125.254844 124.579063 
C 125.254844 124.579063 125.254844 124.579063 125.254844 124.579063 
C 125.254844 124.579063 125.254844 124.579063 125.254844 124.579063 
C 125.254844 124.579063 125.254844 124.579063 125.254844 124.579063 
C 125.254844 124.579063 125.254844 124.579063 125.254844 124.579063 
C 125.254844 124.579063 125.254844 124.579063 125.254844 124.579063 
C 125.254844 124.579063 125.254844 124.579063 125.254844 124.579063 
C 125.254844 124.579063 125.254844 124.579063 125.254844 124.579063 
C 125.254844 124.579063 125.254844 124.579063 125.254844 124.579063 
C 125.254844 124.579063 125.254844 124.579063 125.254844 124.579063 
C 125.254844 124.579063 125.254844 124.579063 125.254844 124.579063 
C 125.254844 124.579063 125.254844 124.579063 125.254844 124.579063 
C 125.254844 124.579063 125.254844 124.579063 125.254844 124.579063 
C 125.254844 124.579063 125.254844 124.579063 125.254844 124.579063 
C 125.254844 124.579063 125.254844 124.579063 125.254844 124.579063 
z
"/>
  </clipPath>
 </defs>
</svg>
