<?xml version="1.0" encoding="utf-8" standalone="no"?>
<!DOCTYPE svg PUBLIC "-//W3C//DTD SVG 1.1//EN"
  "http://www.w3.org/Graphics/SVG/1.1/DTD/svg11.dtd">
<svg xmlns:xlink="http://www.w3.org/1999/xlink" width="248.410469pt" height="249.158125pt" viewBox="0 0 248.410469 249.158125" xmlns="http://www.w3.org/2000/svg" version="1.1">
 <title>Ski Rose for Villars/Gryon/Les Diablerets</title>
 <metadata>
  <rdf:RDF xmlns:dc="http://purl.org/dc/elements/1.1/" xmlns:cc="http://creativecommons.org/ns#" xmlns:rdf="http://www.w3.org/1999/02/22-rdf-syntax-ns#">
   <cc:Work>
    <dc:type rdf:resource="http://purl.org/dc/dcmitype/StillImage"/>
    <dc:title>Ski Rose for Villars/Gryon/Les Diablerets</dc:title>
    <dc:date>2025-08-09T10:31:11.057453</dc:date>
    <dc:description>A 32-bin stacked histogram of downhill ski run orientations colored by difficulty.</dc:description>
    <dc:format>image/svg+xml</dc:format>
    <dc:source>https://openskimap.org/?obj=669b5ff8d29a5a73f293dec2f318ed7554c32511</dc:source>
    <dc:creator>
     <cc:Agent>
      <dc:title>https://github.com/dhimmel/openskistats</dc:title>
     </cc:Agent>
    </dc:creator>
    <dc:rights>
     <cc:Agent>
      <dc:title>https://creativecommons.org/licenses/by/4.0/</dc:title>
     </cc:Agent>
    </dc:rights>
   </cc:Work>
  </rdf:RDF>
 </metadata>
 <defs>
  <style type="text/css">*{stroke-linejoin: round; stroke-linecap: butt}</style>
 </defs>
 <g id="figure_1">
  <g id="patch_1">
   <path d="M 0 249.158125 
L 248.410469 249.158125 
L 248.410469 0 
L 0 0 
z
" style="fill: #ffffff"/>
  </g>
  <g id="axes_1">
   <g id="patch_2">
    <path d="M 236.134844 124.579062 
C 236.134844 110.018434 233.266717 95.59939 227.694606 82.147124 
C 222.122495 68.694857 213.954763 56.470982 203.658844 46.175063 
C 193.362925 35.879144 181.139049 27.711411 167.686783 22.1393 
C 154.234516 16.567189 139.815472 13.699062 125.254844 13.699062 
C 110.694216 13.699062 96.275171 16.567189 82.822905 22.1393 
C 69.370638 27.711411 57.146763 35.879144 46.850844 46.175063 
C 36.554925 56.470982 28.387192 68.694857 22.815081 82.147124 
C 17.24297 95.59939 14.374844 110.018434 14.374844 124.579062 
C 14.374844 139.139691 17.24297 153.558735 22.815081 167.011001 
C 28.387192 180.463268 36.554925 192.687143 46.850844 202.983062 
C 57.146763 213.278981 69.370638 221.446714 82.822905 227.018825 
C 96.275171 232.590936 110.694216 235.459062 125.254844 235.459062 
C 139.815472 235.459062 154.234516 232.590936 167.686783 227.018825 
C 181.139049 221.446714 193.362925 213.278981 203.658844 202.983062 
C 213.954763 192.687143 222.122495 180.463268 227.694606 167.011001 
C 233.266717 153.558735 236.134844 139.139691 236.134844 124.579063 
M 125.254844 124.579062 
C 125.254844 124.579062 125.254844 124.579062 125.254844 124.579062 
C 125.254844 124.579062 125.254844 124.579062 125.254844 124.579062 
C 125.254844 124.579062 125.254844 124.579062 125.254844 124.579062 
C 125.254844 124.579062 125.254844 124.579062 125.254844 124.579062 
C 125.254844 124.579062 125.254844 124.579062 125.254844 124.579062 
C 125.254844 124.579062 125.254844 124.579062 125.254844 124.579062 
C 125.254844 124.579062 125.254844 124.579062 125.254844 124.579062 
C 125.254844 124.579062 125.254844 124.579062 125.254844 124.579062 
C 125.254844 124.579062 125.254844 124.579062 125.254844 124.579062 
C 125.254844 124.579062 125.254844 124.579062 125.254844 124.579062 
C 125.254844 124.579062 125.254844 124.579062 125.254844 124.579062 
C 125.254844 124.579062 125.254844 124.579062 125.254844 124.579062 
C 125.254844 124.579062 125.254844 124.579062 125.254844 124.579062 
C 125.254844 124.579062 125.254844 124.579062 125.254844 124.579062 
C 125.254844 124.579062 125.254844 124.579062 125.254844 124.579062 
C 125.254844 124.579062 125.254844 124.579062 125.254844 124.579062 
z
" style="fill: #ffffff"/>
   </g>
   <g id="PolyCollection_1">
    <defs>
     <path id="m40fa88c594" d="M 235.258641 -137.112412 
L 234.893899 -137.070855 
L 233.960521 -135.046229 
L 233.142822 -133.070031 
L 232.063472 -131.111758 
L 230.928776 -129.192886 
L 229.955594 -127.320748 
L 228.734141 -125.482113 
L 227.685266 -123.685166 
L 226.392407 -121.930682 
L 225.278318 -120.211943 
L 223.924096 -118.544193 
L 222.752615 -116.905821 
L 221.345061 -115.326627 
L 220.122948 -113.770207 
L 218.877509 -112.253405 
L 217.402788 -110.80746 
L 216.115914 -109.374134 
L 214.809985 -107.980998 
L 213.486353 -106.628159 
L 211.944132 -105.36051 
L 210.590697 -104.091737 
L 209.223696 -102.863241 
L 207.844452 -101.674937 
L 206.454281 -100.526694 
L 205.054491 -99.41833 
L 203.646384 -98.34962 
L 202.231252 -97.320287 
L 200.810377 -96.330006 
L 199.568669 -95.306068 
L 198.13745 -94.390098 
L 196.704154 -93.512018 
L 195.445621 -92.591282 
L 194.008864 -91.785077 
L 192.743415 -90.930502 
L 191.307577 -90.194186 
L 190.039136 -89.404062 
L 188.608465 -88.735308 
L 187.340828 -88.007623 
L 186.073372 -87.30942 
L 184.806913 -86.64021 
L 183.542244 -85.999474 
L 182.280144 -85.38666 
L 181.021366 -84.801189 
L 179.766646 -84.242451 
L 178.516694 -83.709807 
L 177.272198 -83.202591 
L 176.033818 -82.720107 
L 174.802189 -82.261632 
L 173.696723 -81.721308 
L 172.476538 -81.308352 
L 171.264797 -80.917247 
L 170.169688 -80.441368 
L 168.972417 -80.091737 
L 167.885315 -79.655919 
L 166.704242 -79.344981 
L 165.626698 -78.946983 
L 164.46332 -78.671835 
L 163.396681 -78.309314 
L 162.334214 -77.963905 
L 161.197661 -77.737471 
L 160.147741 -77.424019 
L 159.102714 -77.126098 
L 158.062781 -76.843217 
L 156.963678 -76.672239 
L 155.937755 -76.416539 
L 154.917354 -76.174245 
L 153.902581 -75.944856 
L 152.893518 -75.727871 
L 151.890225 -75.522792 
L 150.89274 -75.329123 
L 149.901074 -75.146371 
L 148.91522 -74.974051 
L 147.935146 -74.811682 
L 146.960795 -74.658792 
L 145.992092 -74.514916 
L 145.028937 -74.379602 
L 144.096988 -74.183459 
L 143.142107 -74.066989 
L 142.192448 -73.9579 
L 141.247832 -73.855784 
L 140.308061 -73.760253 
L 139.372917 -73.670934 
L 138.455218 -73.537003 
L 137.526807 -73.462658 
L 136.602388 -73.393599 
L 135.68168 -73.329525 
L 134.771236 -73.233207 
L 133.855735 -73.182161 
L 132.943152 -73.135393 
L 132.036646 -73.066158 
L 131.127965 -73.031342 
L 130.221316 -73.000278 
L 129.317583 -72.957071 
L 128.413395 -72.937212 
L 127.510293 -72.920772 
L 126.607907 -72.90768 
L 125.705864 -72.897292 
L 124.803829 -72.897894 
L 123.901767 -72.907139 
L 122.999347 -72.919691 
L 122.096917 -72.947416 
L 121.193189 -72.970849 
L 120.288131 -72.997778 
L 119.383964 -73.051012 
L 118.476091 -73.089324 
L 117.565957 -73.13152 
L 116.658785 -73.211042 
L 115.744431 -73.265466 
L 114.826955 -73.324354 
L 113.90605 -73.387962 
L 112.99271 -73.503601 
L 112.065874 -73.581101 
L 111.134885 -73.664138 
L 110.199492 -73.753048 
L 109.278272 -73.90785 
L 108.33562 -74.012834 
L 107.38802 -74.124709 
L 106.435288 -74.243875 
L 105.477264 -74.370751 
L 104.513805 -74.505766 
L 103.544792 -74.649363 
L 102.606136 -74.881009 
L 101.6286 -75.045613 
L 100.645356 -75.220065 
L 99.656366 -75.404844 
L 98.661618 -75.600433 
L 97.661122 -75.807324 
L 96.654911 -76.026011 
L 95.64304 -76.256991 
L 94.564958 -76.405591 
L 93.538725 -76.661234 
L 92.507104 -76.930806 
L 91.470248 -77.214806 
L 90.428331 -77.513731 
L 89.381549 -77.828074 
L 88.248685 -78.055945 
L 87.189408 -78.401996 
L 86.125978 -78.765047 
L 84.966355 -79.04121 
L 83.892048 -79.439492 
L 82.714754 -79.751161 
L 81.630907 -80.187022 
L 80.437424 -80.537107 
L 79.345572 -81.012791 
L 78.137615 -81.404077 
L 76.921205 -81.817071 
L 75.81898 -82.356846 
L 74.591103 -82.815098 
L 73.356458 -83.297222 
L 72.115676 -83.803945 
L 70.869417 -84.335964 
L 69.618364 -84.893947 
L 68.363227 -85.478538 
L 67.104737 -86.090347 
L 65.843648 -86.729956 
L 64.580734 -87.39792 
L 63.316788 -88.09476 
L 61.892461 -88.730351 
L 60.625873 -89.488394 
L 59.360821 -90.276806 
L 57.92881 -91.011541 
L 56.666663 -91.864178 
L 55.233635 -92.668559 
L 53.978311 -93.587144 
L 52.548642 -94.463168 
L 51.120997 -95.376964 
L 49.882349 -96.398441 
L 48.464941 -97.386332 
L 47.053219 -98.413165 
L 45.648465 -99.479268 
L 44.251972 -100.584919 
L 42.865039 -101.730347 
L 41.488974 -102.915735 
L 40.125091 -104.141217 
L 38.774713 -105.406879 
L 37.439168 -106.712761 
L 35.915226 -108.020943 
L 34.612159 -109.410679 
L 33.328078 -110.840515 
L 32.064343 -112.3103 
L 30.613711 -113.796067 
L 29.394154 -115.348728 
L 27.989482 -116.924112 
L 26.820353 -118.558551 
L 25.468756 -120.222308 
L 24.356735 -121.936953 
L 23.066101 -123.687275 
L 22.018827 -125.47999 
L 20.798855 -127.314339 
L 19.826341 -129.18217 
L 18.691438 -131.09676 
L 17.810235 -133.035137 
L 16.788199 -135.023213 
L 16.032699 -137.023354 
L 15.117171 -137.127665 
L 15.117171 -137.127665 
L 14.909297 -135.20413 
L 14.796019 -133.272361 
L 14.597823 -131.347136 
L 14.550468 -129.41252 
L 14.418603 -127.481412 
L 14.436825 -125.546157 
L 14.487285 -123.612409 
L 14.454471 -121.677653 
L 14.501196 -119.743454 
L 14.645891 -117.813929 
L 14.892111 -115.893327 
L 14.918386 -113.95487 
L 15.155821 -112.034863 
L 15.42295 -110.119419 
L 15.617187 -108.193605 
L 15.94558 -106.286965 
L 16.303357 -104.386098 
L 16.690535 -102.491404 
L 17.013476 -100.582529 
L 17.462019 -98.700295 
L 17.940185 -96.825605 
L 18.448076 -94.958924 
L 18.985794 -93.100736 
L 19.553458 -91.251544 
L 20.151211 -89.411879 
L 20.779219 -87.582303 
L 21.437682 -85.763416 
L 22.126849 -83.955865 
L 22.847055 -82.160367 
L 23.598727 -80.377725 
L 24.382386 -78.608835 
L 25.19862 -76.854692 
L 26.048057 -75.116383 
L 26.940927 -73.400077 
L 27.864204 -71.700259 
L 28.767928 -69.989392 
L 29.720871 -68.305252 
L 30.72526 -66.651259 
L 31.742971 -65.005429 
L 32.811379 -63.392068 
L 33.879606 -61.778602 
L 35.34638 -60.447978 
L 37.156207 -59.389501 
L 38.992777 -58.387851 
L 40.840587 -57.432931 
L 42.63725 -56.474374 
L 44.501535 -55.609221 
L 46.36213 -54.780685 
L 48.165269 -53.939482 
L 50.024615 -53.188241 
L 51.822567 -52.417365 
L 53.616907 -51.679768 
L 55.406674 -50.974449 
L 57.237565 -50.351228 
L 59.01398 -49.707386 
L 60.74054 -49.042518 
L 62.504434 -48.456729 
L 64.260344 -47.898467 
L 66.007785 -47.366792 
L 67.706715 -46.807231 
L 69.437787 -46.326435 
L 71.126686 -45.822104 
L 72.839979 -45.388841 
L 74.510491 -44.926384 
L 76.205037 -44.537053 
L 77.863151 -44.123934 
L 79.510608 -43.726399 
L 81.153817 -43.355075 
L 82.786261 -42.997674 
L 84.414139 -42.665281 
L 86.031295 -42.345183 
L 87.643691 -42.048919 
L 89.245553 -41.763364 
L 90.825438 -41.459124 
L 92.416218 -41.213355 
L 93.996973 -40.97609 
L 95.559688 -40.722531 
L 97.129692 -40.521846 
L 98.681747 -40.299968 
L 100.23696 -40.120102 
L 101.779013 -39.92795 
L 103.324553 -39.780918 
L 104.857223 -39.616856 
L 106.390286 -39.486539 
L 107.91458 -39.348943 
L 109.435384 -39.224897 
L 110.956572 -39.135961 
L 112.470424 -39.03651 
L 113.981536 -38.949791 
L 115.490166 -38.875585 
L 116.997256 -38.820737 
L 118.501462 -38.769208 
L 120.004071 -38.729679 
L 121.505372 -38.702033 
L 123.00566 -38.686182 
L 124.50526 -38.685312 
L 126.00445 -38.682725 
L 127.503993 -38.687509 
L 129.004229 -38.704022 
L 130.505455 -38.732326 
L 132.008361 -38.767494 
L 133.512704 -38.817903 
L 135.018966 -38.880459 
L 136.527422 -38.95533 
L 138.041379 -39.022358 
L 139.555658 -39.120765 
L 141.072957 -39.23216 
L 142.593507 -39.356808 
L 144.12176 -39.475905 
L 145.650186 -39.626349 
L 147.190406 -39.760538 
L 148.727816 -39.938259 
L 150.269515 -40.130949 
L 151.824182 -40.311888 
L 153.388067 -40.497722 
L 154.945569 -40.735041 
L 156.519666 -40.957497 
L 158.087926 -41.227427 
L 159.678446 -41.473134 
L 161.27334 -41.742193 
L 162.879168 -42.020018 
L 164.488937 -42.323074 
L 166.087367 -42.68169 
L 167.715024 -43.013816 
L 169.346528 -43.372283 
L 170.98954 -43.743261 
L 172.665696 -44.091407 
L 174.321041 -44.510306 
L 175.987849 -44.944196 
L 177.657249 -45.407664 
L 179.369869 -45.841213 
L 181.058683 -46.344965 
L 182.789101 -46.825977 
L 184.528798 -47.331741 
L 186.233544 -47.91833 
L 187.988764 -48.476731 
L 189.751971 -49.062629 
L 191.522625 -49.676962 
L 193.300124 -50.32067 
L 195.083799 -50.994697 
L 196.872902 -51.699997 
L 198.66659 -52.43754 
L 200.522066 -53.153136 
L 202.323524 -53.958628 
L 204.181777 -54.750411 
L 205.985267 -55.628768 
L 207.850019 -56.492854 
L 209.705629 -57.403875 
L 211.558364 -58.356042 
L 213.390344 -59.362223 
L 215.204055 -60.418913 
L 216.633377 -61.776337 
L 217.702549 -63.389261 
L 218.758424 -65.010712 
L 219.73564 -66.681156 
L 220.776131 -68.312724 
L 221.737458 -69.991826 
L 222.646881 -71.699501 
L 223.562761 -73.4032 
L 224.428187 -75.133058 
L 225.2427 -76.887301 
L 226.122578 -78.610988 
L 226.931385 -80.368844 
L 227.634101 -82.172185 
L 228.394434 -83.951297 
L 229.107455 -85.750162 
L 229.77328 -87.567143 
L 230.392069 -89.400639 
L 230.964027 -91.249085 
L 231.54817 -93.093545 
L 232.021649 -94.970007 
L 232.572795 -96.824753 
L 233.0054 -98.710443 
L 233.481179 -100.585862 
L 233.783115 -102.498736 
L 234.217995 -104.383936 
L 234.612039 -106.278944 
L 234.787125 -108.209353 
L 235.100253 -110.11764 
L 235.355736 -112.03465 
L 235.593537 -113.954655 
L 235.793032 -115.879518 
L 235.77293 -117.819487 
L 235.88621 -119.748793 
L 235.97589 -121.67973 
L 236.029737 -123.612345 
L 236.048474 -125.545944 
L 236.023812 -127.47965 
L 235.974395 -129.413183 
L 235.891724 -131.345904 
L 235.776526 -133.277308 
L 235.618413 -135.205866 
L 235.258641 -137.112412 
z
" style="stroke: #ffee9c"/>
    </defs>
    <g clip-path="url(#p9aa753d3e6)">
     <use xlink:href="#m40fa88c594" x="0" y="249.158125" style="fill: #ffee9c; stroke: #ffee9c"/>
    </g>
   </g>
   <g id="matplotlib.axis_1">
    <g id="xtick_1">
     <g id="line2d_1">
      <path d="M 125.254844 124.579062 
L 125.254844 13.699062 
" clip-path="url(#p9aa753d3e6)" style="fill: none; stroke: #b0b0b0; stroke-width: 0.8; stroke-linecap: square"/>
     </g>
     <g id="text_1">
      <!-- N -->
      <g transform="translate(121.070469 7.958437) scale(0.1 -0.1)">
       <defs>
        <path id="DejaVuSans-Bold-4e" d="M 588 4666 
L 1931 4666 
L 3628 1466 
L 3628 4666 
L 4769 4666 
L 4769 0 
L 3425 0 
L 1728 3200 
L 1728 0 
L 588 0 
L 588 4666 
z
" transform="scale(0.015625)"/>
       </defs>
       <use xlink:href="#DejaVuSans-Bold-4e"/>
      </g>
     </g>
    </g>
    <g id="xtick_2">
     <g id="line2d_2">
      <path d="M 125.254844 124.579062 
L 203.658844 46.175063 
" clip-path="url(#p9aa753d3e6)" style="fill: none; stroke: #b0b0b0; stroke-width: 0.8; stroke-linecap: square"/>
     </g>
    </g>
    <g id="xtick_3">
     <g id="line2d_3">
      <path d="M 125.254844 124.579062 
L 236.134844 124.579062 
" clip-path="url(#p9aa753d3e6)" style="fill: none; stroke: #b0b0b0; stroke-width: 0.8; stroke-linecap: square"/>
     </g>
     <g id="text_2">
      <!-- E -->
      <g transform="translate(241.219219 127.338437) scale(0.1 -0.1)">
       <defs>
        <path id="DejaVuSans-Bold-45" d="M 588 4666 
L 3834 4666 
L 3834 3756 
L 1791 3756 
L 1791 2888 
L 3713 2888 
L 3713 1978 
L 1791 1978 
L 1791 909 
L 3903 909 
L 3903 0 
L 588 0 
L 588 4666 
z
" transform="scale(0.015625)"/>
       </defs>
       <use xlink:href="#DejaVuSans-Bold-45"/>
      </g>
     </g>
    </g>
    <g id="xtick_4">
     <g id="line2d_4">
      <path d="M 125.254844 124.579062 
L 203.658844 202.983062 
" clip-path="url(#p9aa753d3e6)" style="fill: none; stroke: #b0b0b0; stroke-width: 0.8; stroke-linecap: square"/>
     </g>
    </g>
    <g id="xtick_5">
     <g id="line2d_5">
      <path d="M 125.254844 124.579062 
L 125.254844 235.459062 
" clip-path="url(#p9aa753d3e6)" style="fill: none; stroke: #b0b0b0; stroke-width: 0.8; stroke-linecap: square"/>
     </g>
     <g id="text_3">
      <!-- S -->
      <g transform="translate(121.654063 246.718437) scale(0.1 -0.1)">
       <defs>
        <path id="DejaVuSans-Bold-53" d="M 3834 4519 
L 3834 3531 
Q 3450 3703 3084 3790 
Q 2719 3878 2394 3878 
Q 1963 3878 1756 3759 
Q 1550 3641 1550 3391 
Q 1550 3203 1689 3098 
Q 1828 2994 2194 2919 
L 2706 2816 
Q 3484 2659 3812 2340 
Q 4141 2022 4141 1434 
Q 4141 663 3683 286 
Q 3225 -91 2284 -91 
Q 1841 -91 1394 -6 
Q 947 78 500 244 
L 500 1259 
Q 947 1022 1364 901 
Q 1781 781 2169 781 
Q 2563 781 2772 912 
Q 2981 1044 2981 1288 
Q 2981 1506 2839 1625 
Q 2697 1744 2272 1838 
L 1806 1941 
Q 1106 2091 782 2419 
Q 459 2747 459 3303 
Q 459 4000 909 4375 
Q 1359 4750 2203 4750 
Q 2588 4750 2994 4692 
Q 3400 4634 3834 4519 
z
" transform="scale(0.015625)"/>
       </defs>
       <use xlink:href="#DejaVuSans-Bold-53"/>
      </g>
     </g>
    </g>
    <g id="xtick_6">
     <g id="line2d_6">
      <path d="M 125.254844 124.579062 
L 46.850844 202.983062 
" clip-path="url(#p9aa753d3e6)" style="fill: none; stroke: #b0b0b0; stroke-width: 0.8; stroke-linecap: square"/>
     </g>
    </g>
    <g id="xtick_7">
     <g id="line2d_7">
      <path d="M 125.254844 124.579062 
L 14.374844 124.579062 
" clip-path="url(#p9aa753d3e6)" style="fill: none; stroke: #b0b0b0; stroke-width: 0.8; stroke-linecap: square"/>
     </g>
     <g id="text_4">
      <!-- W -->
      <g transform="translate(0.36 127.338437) scale(0.1 -0.1)">
       <defs>
        <path id="DejaVuSans-Bold-57" d="M 191 4666 
L 1344 4666 
L 2150 1275 
L 2950 4666 
L 4109 4666 
L 4909 1275 
L 5716 4666 
L 6859 4666 
L 5759 0 
L 4372 0 
L 3525 3547 
L 2688 0 
L 1300 0 
L 191 4666 
z
" transform="scale(0.015625)"/>
       </defs>
       <use xlink:href="#DejaVuSans-Bold-57"/>
      </g>
     </g>
    </g>
    <g id="xtick_8">
     <g id="line2d_8">
      <path d="M 125.254844 124.579062 
L 46.850844 46.175063 
" clip-path="url(#p9aa753d3e6)" style="fill: none; stroke: #b0b0b0; stroke-width: 0.8; stroke-linecap: square"/>
     </g>
    </g>
   </g>
   <g id="matplotlib.axis_2"/>
   <g id="patch_3">
    <path d="M 125.254844 124.579062 
C 125.254844 124.579062 125.254844 124.579062 125.254844 124.579062 
C 125.254844 124.579062 125.254844 124.579062 125.254844 124.579062 
L 125.254844 124.579062 
C 125.254844 124.579062 125.254844 124.579062 125.254844 124.579062 
C 125.254844 124.579062 125.254844 124.579062 125.254844 124.579062 
z
" clip-path="url(#p9aa753d3e6)" style="fill: #d9d9d9"/>
   </g>
   <g id="patch_4">
    <path d="M 125.254844 124.579062 
C 125.254844 124.579062 125.254844 124.579062 125.254844 124.579062 
C 125.254844 124.579062 125.254844 124.579062 125.254844 124.579062 
L 125.254844 124.579062 
C 125.254844 124.579062 125.254844 124.579062 125.254844 124.579062 
C 125.254844 124.579062 125.254844 124.579062 125.254844 124.579062 
z
" clip-path="url(#p9aa753d3e6)" style="fill: #d9d9d9"/>
   </g>
   <g id="patch_5">
    <path d="M 125.254844 124.579062 
C 125.254844 124.579062 125.254844 124.579062 125.254844 124.579062 
C 125.254844 124.579062 125.254844 124.579062 125.254844 124.579062 
L 125.254844 124.579062 
C 125.254844 124.579062 125.254844 124.579062 125.254844 124.579062 
C 125.254844 124.579062 125.254844 124.579062 125.254844 124.579062 
z
" clip-path="url(#p9aa753d3e6)" style="fill: #d9d9d9"/>
   </g>
   <g id="patch_6">
    <path d="M 125.254844 124.579062 
C 125.254844 124.579062 125.254844 124.579062 125.254844 124.579062 
C 125.254844 124.579062 125.254844 124.579062 125.254844 124.579062 
L 125.254844 124.579062 
C 125.254844 124.579062 125.254844 124.579062 125.254844 124.579062 
C 125.254844 124.579062 125.254844 124.579062 125.254844 124.579062 
z
" clip-path="url(#p9aa753d3e6)" style="fill: #d9d9d9"/>
   </g>
   <g id="patch_7">
    <path d="M 125.254844 124.579062 
C 125.254844 124.579062 125.254844 124.579062 125.254844 124.579062 
C 125.254844 124.579062 125.254844 124.579062 125.254844 124.579062 
L 125.254844 124.579062 
C 125.254844 124.579062 125.254844 124.579062 125.254844 124.579062 
C 125.254844 124.579062 125.254844 124.579062 125.254844 124.579062 
z
" clip-path="url(#p9aa753d3e6)" style="fill: #d9d9d9"/>
   </g>
   <g id="patch_8">
    <path d="M 125.254844 124.579062 
C 125.254844 124.579062 125.254844 124.579062 125.254844 124.579062 
C 125.254844 124.579062 125.254844 124.579062 125.254844 124.579062 
L 125.254844 124.579062 
C 125.254844 124.579062 125.254844 124.579062 125.254844 124.579062 
C 125.254844 124.579062 125.254844 124.579062 125.254844 124.579062 
z
" clip-path="url(#p9aa753d3e6)" style="fill: #d9d9d9"/>
   </g>
   <g id="patch_9">
    <path d="M 125.254844 124.579062 
C 125.254844 124.579062 125.254844 124.579062 125.254844 124.579062 
C 125.254844 124.579062 125.254844 124.579062 125.254844 124.579062 
L 125.254844 124.579062 
C 125.254844 124.579062 125.254844 124.579062 125.254844 124.579062 
C 125.254844 124.579062 125.254844 124.579062 125.254844 124.579062 
z
" clip-path="url(#p9aa753d3e6)" style="fill: #d9d9d9"/>
   </g>
   <g id="patch_10">
    <path d="M 125.254844 124.579062 
C 125.254844 124.579062 125.254844 124.579062 125.254844 124.579062 
C 125.254844 124.579062 125.254844 124.579062 125.254844 124.579062 
L 125.254844 124.579062 
C 125.254844 124.579062 125.254844 124.579062 125.254844 124.579062 
C 125.254844 124.579062 125.254844 124.579062 125.254844 124.579062 
z
" clip-path="url(#p9aa753d3e6)" style="fill: #d9d9d9"/>
   </g>
   <g id="patch_11">
    <path d="M 125.254844 124.579062 
C 125.254844 124.579062 125.254844 124.579062 125.254844 124.579062 
C 125.254844 124.579062 125.254844 124.579062 125.254844 124.579062 
L 125.254844 124.579062 
C 125.254844 124.579062 125.254844 124.579062 125.254844 124.579062 
C 125.254844 124.579062 125.254844 124.579062 125.254844 124.579062 
z
" clip-path="url(#p9aa753d3e6)" style="fill: #d9d9d9"/>
   </g>
   <g id="patch_12">
    <path d="M 125.254844 124.579062 
C 125.254844 124.579062 125.254844 124.579062 125.254844 124.579062 
C 125.254844 124.579062 125.254844 124.579062 125.254844 124.579062 
L 125.254844 124.579062 
C 125.254844 124.579062 125.254844 124.579062 125.254844 124.579062 
C 125.254844 124.579062 125.254844 124.579062 125.254844 124.579062 
z
" clip-path="url(#p9aa753d3e6)" style="fill: #d9d9d9"/>
   </g>
   <g id="patch_13">
    <path d="M 125.254844 124.579062 
C 125.254844 124.579062 125.254844 124.579062 125.254844 124.579062 
C 125.254844 124.579062 125.254844 124.579062 125.254844 124.579062 
L 125.254844 124.579062 
C 125.254844 124.579062 125.254844 124.579062 125.254844 124.579062 
C 125.254844 124.579062 125.254844 124.579062 125.254844 124.579062 
z
" clip-path="url(#p9aa753d3e6)" style="fill: #d9d9d9"/>
   </g>
   <g id="patch_14">
    <path d="M 125.254844 124.579062 
C 125.254844 124.579062 125.254844 124.579062 125.254844 124.579062 
C 125.254844 124.579062 125.254844 124.579062 125.254844 124.579062 
L 125.254844 124.579062 
C 125.254844 124.579062 125.254844 124.579062 125.254844 124.579062 
C 125.254844 124.579062 125.254844 124.579062 125.254844 124.579062 
z
" clip-path="url(#p9aa753d3e6)" style="fill: #d9d9d9"/>
   </g>
   <g id="patch_15">
    <path d="M 125.254844 124.579062 
C 125.254844 124.579062 125.254844 124.579062 125.254844 124.579062 
C 125.254844 124.579062 125.254844 124.579062 125.254844 124.579062 
L 125.254844 124.579062 
C 125.254844 124.579062 125.254844 124.579062 125.254844 124.579062 
C 125.254844 124.579062 125.254844 124.579062 125.254844 124.579062 
z
" clip-path="url(#p9aa753d3e6)" style="fill: #d9d9d9"/>
   </g>
   <g id="patch_16">
    <path d="M 125.254844 124.579062 
C 125.254844 124.579062 125.254844 124.579062 125.254844 124.579062 
C 125.254844 124.579062 125.254844 124.579062 125.254844 124.579062 
L 125.254844 124.579062 
C 125.254844 124.579062 125.254844 124.579062 125.254844 124.579062 
C 125.254844 124.579062 125.254844 124.579062 125.254844 124.579062 
z
" clip-path="url(#p9aa753d3e6)" style="fill: #d9d9d9"/>
   </g>
   <g id="patch_17">
    <path d="M 125.254844 124.579062 
C 125.254844 124.579062 125.254844 124.579062 125.254844 124.579062 
C 125.254844 124.579062 125.254844 124.579062 125.254844 124.579062 
L 125.254844 124.579062 
C 125.254844 124.579062 125.254844 124.579062 125.254844 124.579062 
C 125.254844 124.579062 125.254844 124.579062 125.254844 124.579062 
z
" clip-path="url(#p9aa753d3e6)" style="fill: #d9d9d9"/>
   </g>
   <g id="patch_18">
    <path d="M 125.254844 124.579062 
C 125.254844 124.579062 125.254844 124.579062 125.254844 124.579062 
C 125.254844 124.579062 125.254844 124.579062 125.254844 124.579062 
L 125.254844 124.579062 
C 125.254844 124.579062 125.254844 124.579062 125.254844 124.579062 
C 125.254844 124.579062 125.254844 124.579062 125.254844 124.579062 
z
" clip-path="url(#p9aa753d3e6)" style="fill: #d9d9d9"/>
   </g>
   <g id="patch_19">
    <path d="M 125.254844 124.579062 
C 125.254844 124.579062 125.254844 124.579062 125.254844 124.579062 
C 125.254844 124.579062 125.254844 124.579062 125.254844 124.579062 
L 125.254844 124.579062 
C 125.254844 124.579062 125.254844 124.579062 125.254844 124.579062 
C 125.254844 124.579062 125.254844 124.579062 125.254844 124.579062 
z
" clip-path="url(#p9aa753d3e6)" style="fill: #d9d9d9"/>
   </g>
   <g id="patch_20">
    <path d="M 125.254844 124.579062 
C 125.254844 124.579062 125.254844 124.579062 125.254844 124.579062 
C 125.254844 124.579062 125.254844 124.579062 125.254844 124.579062 
L 125.254844 124.579062 
C 125.254844 124.579062 125.254844 124.579062 125.254844 124.579062 
C 125.254844 124.579062 125.254844 124.579062 125.254844 124.579062 
z
" clip-path="url(#p9aa753d3e6)" style="fill: #d9d9d9"/>
   </g>
   <g id="patch_21">
    <path d="M 125.254844 124.579062 
C 125.254844 124.579062 125.254844 124.579062 125.254844 124.579062 
C 125.254844 124.579062 125.254844 124.579062 125.254844 124.579062 
L 125.254844 124.579062 
C 125.254844 124.579062 125.254844 124.579062 125.254844 124.579062 
C 125.254844 124.579062 125.254844 124.579062 125.254844 124.579062 
z
" clip-path="url(#p9aa753d3e6)" style="fill: #d9d9d9"/>
   </g>
   <g id="patch_22">
    <path d="M 125.254844 124.579062 
C 125.254844 124.579062 125.254844 124.579062 125.254844 124.579062 
C 125.254844 124.579062 125.254844 124.579062 125.254844 124.579062 
L 125.254844 124.579062 
C 125.254844 124.579062 125.254844 124.579062 125.254844 124.579062 
C 125.254844 124.579062 125.254844 124.579062 125.254844 124.579062 
z
" clip-path="url(#p9aa753d3e6)" style="fill: #d9d9d9"/>
   </g>
   <g id="patch_23">
    <path d="M 125.254844 124.579062 
C 125.254844 124.579062 125.254844 124.579062 125.254844 124.579062 
C 125.254844 124.579062 125.254844 124.579062 125.254844 124.579062 
L 125.254844 124.579062 
C 125.254844 124.579062 125.254844 124.579062 125.254844 124.579062 
C 125.254844 124.579062 125.254844 124.579062 125.254844 124.579062 
z
" clip-path="url(#p9aa753d3e6)" style="fill: #d9d9d9"/>
   </g>
   <g id="patch_24">
    <path d="M 125.254844 124.579062 
C 125.254844 124.579062 125.254844 124.579062 125.254844 124.579062 
C 125.254844 124.579062 125.254844 124.579062 125.254844 124.579062 
L 125.254844 124.579062 
C 125.254844 124.579062 125.254844 124.579062 125.254844 124.579062 
C 125.254844 124.579062 125.254844 124.579062 125.254844 124.579062 
z
" clip-path="url(#p9aa753d3e6)" style="fill: #d9d9d9"/>
   </g>
   <g id="patch_25">
    <path d="M 125.254844 124.579062 
C 125.254844 124.579062 125.254844 124.579062 125.254844 124.579062 
C 125.254844 124.579062 125.254844 124.579062 125.254844 124.579062 
L 125.254844 124.579062 
C 125.254844 124.579062 125.254844 124.579062 125.254844 124.579062 
C 125.254844 124.579062 125.254844 124.579062 125.254844 124.579062 
z
" clip-path="url(#p9aa753d3e6)" style="fill: #d9d9d9"/>
   </g>
   <g id="patch_26">
    <path d="M 125.254844 124.579062 
C 125.254844 124.579062 125.254844 124.579062 125.254844 124.579062 
C 125.254844 124.579062 125.254844 124.579062 125.254844 124.579062 
L 125.254844 124.579062 
C 125.254844 124.579062 125.254844 124.579062 125.254844 124.579062 
C 125.254844 124.579062 125.254844 124.579062 125.254844 124.579062 
z
" clip-path="url(#p9aa753d3e6)" style="fill: #d9d9d9"/>
   </g>
   <g id="patch_27">
    <path d="M 125.254844 124.579062 
C 125.254844 124.579062 125.254844 124.579062 125.254844 124.579062 
C 125.254844 124.579062 125.254844 124.579062 125.254844 124.579062 
L 125.254844 124.579062 
C 125.254844 124.579062 125.254844 124.579062 125.254844 124.579062 
C 125.254844 124.579062 125.254844 124.579062 125.254844 124.579062 
z
" clip-path="url(#p9aa753d3e6)" style="fill: #d9d9d9"/>
   </g>
   <g id="patch_28">
    <path d="M 125.254844 124.579062 
C 125.254844 124.579062 125.254844 124.579062 125.254844 124.579062 
C 125.254844 124.579062 125.254844 124.579062 125.254844 124.579062 
L 125.254844 124.579062 
C 125.254844 124.579062 125.254844 124.579062 125.254844 124.579062 
C 125.254844 124.579062 125.254844 124.579062 125.254844 124.579062 
z
" clip-path="url(#p9aa753d3e6)" style="fill: #d9d9d9"/>
   </g>
   <g id="patch_29">
    <path d="M 125.254844 124.579062 
C 125.254844 124.579062 125.254844 124.579062 125.254844 124.579062 
C 125.254844 124.579062 125.254844 124.579062 125.254844 124.579062 
L 125.254844 124.579062 
C 125.254844 124.579062 125.254844 124.579062 125.254844 124.579062 
C 125.254844 124.579062 125.254844 124.579062 125.254844 124.579062 
z
" clip-path="url(#p9aa753d3e6)" style="fill: #d9d9d9"/>
   </g>
   <g id="patch_30">
    <path d="M 125.254844 124.579062 
C 125.254844 124.579062 125.254844 124.579062 125.254844 124.579062 
C 125.254844 124.579062 125.254844 124.579062 125.254844 124.579062 
L 125.254844 124.579062 
C 125.254844 124.579062 125.254844 124.579062 125.254844 124.579062 
C 125.254844 124.579062 125.254844 124.579062 125.254844 124.579062 
z
" clip-path="url(#p9aa753d3e6)" style="fill: #d9d9d9"/>
   </g>
   <g id="patch_31">
    <path d="M 125.254844 124.579062 
C 125.254844 124.579062 125.254844 124.579062 125.254844 124.579062 
C 125.254844 124.579062 125.254844 124.579062 125.254844 124.579062 
L 125.254844 124.579062 
C 125.254844 124.579062 125.254844 124.579062 125.254844 124.579062 
C 125.254844 124.579062 125.254844 124.579062 125.254844 124.579062 
z
" clip-path="url(#p9aa753d3e6)" style="fill: #d9d9d9"/>
   </g>
   <g id="patch_32">
    <path d="M 125.254844 124.579062 
C 125.254844 124.579062 125.254844 124.579062 125.254844 124.579062 
C 125.254844 124.579062 125.254844 124.579062 125.254844 124.579062 
L 125.254844 124.579062 
C 125.254844 124.579062 125.254844 124.579062 125.254844 124.579062 
C 125.254844 124.579062 125.254844 124.579062 125.254844 124.579062 
z
" clip-path="url(#p9aa753d3e6)" style="fill: #d9d9d9"/>
   </g>
   <g id="patch_33">
    <path d="M 125.254844 124.579062 
C 125.254844 124.579062 125.254844 124.579062 125.254844 124.579062 
C 125.254844 124.579062 125.254844 124.579062 125.254844 124.579062 
L 125.254844 124.579062 
C 125.254844 124.579062 125.254844 124.579062 125.254844 124.579062 
C 125.254844 124.579062 125.254844 124.579062 125.254844 124.579062 
z
" clip-path="url(#p9aa753d3e6)" style="fill: #d9d9d9"/>
   </g>
   <g id="patch_34">
    <path d="M 125.254844 124.579062 
C 125.254844 124.579062 125.254844 124.579062 125.254844 124.579062 
C 125.254844 124.579062 125.254844 124.579062 125.254844 124.579062 
L 125.254844 124.579062 
C 125.254844 124.579062 125.254844 124.579062 125.254844 124.579062 
C 125.254844 124.579062 125.254844 124.579062 125.254844 124.579062 
z
" clip-path="url(#p9aa753d3e6)" style="fill: #d9d9d9"/>
   </g>
   <g id="patch_35">
    <path d="M 125.254844 124.579062 
C 125.254844 124.579062 125.254844 124.579062 125.254844 124.579062 
C 125.254844 124.579062 125.254844 124.579062 125.254844 124.579062 
L 131.050392 65.735874 
C 129.124367 65.546177 127.190188 65.451157 125.254844 65.451157 
C 123.319499 65.451157 121.385321 65.546177 119.459296 65.735874 
z
" clip-path="url(#p9aa753d3e6)" style="fill: #a1a1d8"/>
   </g>
   <g id="patch_36">
    <path d="M 125.254844 124.579062 
C 125.254844 124.579062 125.254844 124.579062 125.254844 124.579062 
C 125.254844 124.579062 125.254844 124.579062 125.254844 124.579062 
L 148.469862 48.049403 
C 145.964932 47.289541 143.424205 46.653122 140.856857 46.142445 
C 138.289509 45.631767 135.698636 45.247448 133.093596 44.990874 
z
" clip-path="url(#p9aa753d3e6)" style="fill: #a1a1d8"/>
   </g>
   <g id="patch_37">
    <path d="M 125.254844 124.579062 
C 125.254844 124.579062 125.254844 124.579062 125.254844 124.579062 
C 125.254844 124.579062 125.254844 124.579062 125.254844 124.579062 
L 162.511898 54.876016 
C 160.230413 53.656537 157.890431 52.549808 155.500402 51.559826 
C 153.110373 50.569843 150.67318 49.697802 148.197625 48.94685 
z
" clip-path="url(#p9aa753d3e6)" style="fill: #a1a1d8"/>
   </g>
   <g id="patch_38">
    <path d="M 125.254844 124.579062 
C 125.254844 124.579062 125.254844 124.579062 125.254844 124.579062 
C 125.254844 124.579062 125.254844 124.579062 125.254844 124.579062 
L 157.816644 84.902394 
C 156.517967 83.836598 155.167746 82.835205 153.770856 81.901834 
C 152.373967 80.968462 150.932094 80.104236 149.450444 79.312278 
z
" clip-path="url(#p9aa753d3e6)" style="fill: #a1a1d8"/>
   </g>
   <g id="patch_39">
    <path d="M 125.254844 124.579062 
C 125.254844 124.579062 125.254844 124.579062 125.254844 124.579062 
C 125.254844 124.579062 125.254844 124.579062 125.254844 124.579062 
L 156.24491 99.146173 
C 155.412453 98.131821 154.530697 97.158953 153.602825 96.231081 
C 152.674953 95.303209 151.702085 94.421453 150.687734 93.588996 
z
" clip-path="url(#p9aa753d3e6)" style="fill: #a1a1d8"/>
   </g>
   <g id="patch_40">
    <path d="M 125.254844 124.579062 
C 125.254844 124.579062 125.254844 124.579062 125.254844 124.579062 
C 125.254844 124.579062 125.254844 124.579062 125.254844 124.579062 
L 171.087485 100.081005 
C 170.285627 98.580835 169.410598 97.120937 168.465559 95.706586 
C 167.520519 94.292235 166.506609 92.925135 165.42749 91.610224 
z
" clip-path="url(#p9aa753d3e6)" style="fill: #a1a1d8"/>
   </g>
   <g id="patch_41">
    <path d="M 125.254844 124.579062 
C 125.254844 124.579062 125.254844 124.579062 125.254844 124.579062 
C 125.254844 124.579062 125.254844 124.579062 125.254844 124.579062 
L 170.847659 110.748633 
C 170.394969 109.256312 169.869282 107.787117 169.272498 106.346353 
C 168.675714 104.905589 168.008553 103.494995 167.273423 102.119664 
z
" clip-path="url(#p9aa753d3e6)" style="fill: #a1a1d8"/>
   </g>
   <g id="patch_42">
    <path d="M 125.254844 124.579062 
C 125.254844 124.579062 125.254844 124.579062 125.254844 124.579062 
C 125.254844 124.579062 125.254844 124.579062 125.254844 124.579062 
L 153.026635 121.84378 
C 152.937106 120.934768 152.803 120.030699 152.624802 119.134839 
C 152.446605 118.23898 152.22453 117.352409 151.959381 116.47833 
z
" clip-path="url(#p9aa753d3e6)" style="fill: #a1a1d8"/>
   </g>
   <g id="patch_43">
    <path d="M 125.254844 124.579062 
C 125.254844 124.579062 125.254844 124.579062 125.254844 124.579062 
C 125.254844 124.579062 125.254844 124.579062 125.254844 124.579062 
L 177.760926 129.75046 
C 177.930193 128.031858 178.01498 126.305981 178.01498 124.579062 
C 178.01498 122.852144 177.930193 121.126267 177.760926 119.407665 
z
" clip-path="url(#p9aa753d3e6)" style="fill: #a1a1d8"/>
   </g>
   <g id="patch_44">
    <path d="M 125.254844 124.579062 
C 125.254844 124.579062 125.254844 124.579062 125.254844 124.579062 
C 125.254844 124.579062 125.254844 124.579062 125.254844 124.579062 
L 179.509497 141.037032 
C 180.048191 139.261196 180.499372 137.459982 180.861409 135.639896 
C 181.223447 133.81981 181.495905 131.983046 181.6778 130.136239 
z
" clip-path="url(#p9aa753d3e6)" style="fill: #a1a1d8"/>
   </g>
   <g id="patch_45">
    <path d="M 125.254844 124.579062 
C 125.254844 124.579062 125.254844 124.579062 125.254844 124.579062 
C 125.254844 124.579062 125.254844 124.579062 125.254844 124.579062 
L 147.959299 136.714846 
C 148.356521 135.971696 148.717017 135.20949 149.039485 134.430984 
C 149.361953 133.652477 149.646005 132.858607 149.890613 132.052241 
z
" clip-path="url(#p9aa753d3e6)" style="fill: #a1a1d8"/>
   </g>
   <g id="patch_46">
    <path d="M 125.254844 124.579062 
C 125.254844 124.579062 125.254844 124.579062 125.254844 124.579062 
C 125.254844 124.579062 125.254844 124.579062 125.254844 124.579062 
L 169.753985 161.098564 
C 170.949323 159.642041 172.072429 158.127708 173.119247 156.561034 
C 174.166065 154.994361 175.135332 153.377236 176.023548 151.7155 
z
" clip-path="url(#p9aa753d3e6)" style="fill: #a1a1d8"/>
   </g>
   <g id="patch_47">
    <path d="M 125.254844 124.579062 
C 125.254844 124.579062 125.254844 124.579062 125.254844 124.579062 
C 125.254844 124.579062 125.254844 124.579062 125.254844 124.579062 
L 176.901218 187.510352 
C 178.961053 185.819889 180.93665 184.029313 182.820872 182.145091 
C 184.705094 180.260869 186.49567 178.285272 188.186133 176.225437 
z
" clip-path="url(#p9aa753d3e6)" style="fill: #a1a1d8"/>
   </g>
   <g id="patch_48">
    <path d="M 125.254844 124.579062 
C 125.254844 124.579062 125.254844 124.579062 125.254844 124.579062 
C 125.254844 124.579062 125.254844 124.579062 125.254844 124.579062 
L 147.796062 166.750716 
C 149.176403 166.012908 150.519688 165.207774 151.821065 164.338222 
C 153.122441 163.46867 154.380341 162.535748 155.59022 161.542826 
z
" clip-path="url(#p9aa753d3e6)" style="fill: #a1a1d8"/>
   </g>
   <g id="patch_49">
    <path d="M 125.254844 124.579062 
C 125.254844 124.579062 125.254844 124.579062 125.254844 124.579062 
C 125.254844 124.579062 125.254844 124.579062 125.254844 124.579062 
L 138.359569 167.779554 
C 139.773586 167.350616 141.165691 166.852513 142.530855 166.287044 
C 143.89602 165.721574 145.232598 165.089419 146.535764 164.392863 
z
" clip-path="url(#p9aa753d3e6)" style="fill: #a1a1d8"/>
   </g>
   <g id="patch_50">
    <path d="M 125.254844 124.579062 
C 125.254844 124.579062 125.254844 124.579062 125.254844 124.579062 
C 125.254844 124.579062 125.254844 124.579062 125.254844 124.579062 
L 129.164053 164.26993 
C 130.463194 164.141975 131.75527 163.950314 133.035614 163.695638 
C 134.315958 163.440961 135.583027 163.123577 136.832243 162.744632 
z
" clip-path="url(#p9aa753d3e6)" style="fill: #a1a1d8"/>
   </g>
   <g id="patch_51">
    <path d="M 125.254844 124.579062 
C 125.254844 124.579062 125.254844 124.579062 125.254844 124.579062 
C 125.254844 124.579062 125.254844 124.579062 125.254844 124.579062 
L 121.089349 166.872036 
C 122.473662 167.008379 123.863833 167.076674 125.254844 167.076674 
C 126.645854 167.076674 128.036026 167.008379 129.420338 166.872036 
z
" clip-path="url(#p9aa753d3e6)" style="fill: #a1a1d8"/>
   </g>
   <g id="patch_52">
    <path d="M 125.254844 124.579062 
C 125.254844 124.579062 125.254844 124.579062 125.254844 124.579062 
C 125.254844 124.579062 125.254844 124.579062 125.254844 124.579062 
L 112.638666 166.169027 
C 113.999967 166.581974 115.380723 166.927835 116.775946 167.205362 
C 118.171168 167.482889 119.579175 167.691747 120.994882 167.831182 
z
" clip-path="url(#p9aa753d3e6)" style="fill: #a1a1d8"/>
   </g>
   <g id="patch_53">
    <path d="M 125.254844 124.579062 
C 125.254844 124.579062 125.254844 124.579062 125.254844 124.579062 
C 125.254844 124.579062 125.254844 124.579062 125.254844 124.579062 
L 91.853868 187.067893 
C 93.899221 188.161157 95.997017 189.15334 98.139679 190.04086 
C 100.282342 190.92838 102.467287 191.710166 104.686624 192.383395 
z
" clip-path="url(#p9aa753d3e6)" style="fill: #a1a1d8"/>
   </g>
   <g id="patch_54">
    <path d="M 125.254844 124.579062 
C 125.254844 124.579062 125.254844 124.579062 125.254844 124.579062 
C 125.254844 124.579062 125.254844 124.579062 125.254844 124.579062 
L 79.788431 179.980047 
C 81.601788 181.468231 83.487117 182.866486 85.43761 184.169764 
C 87.388103 185.473041 89.401407 186.67977 91.470251 187.78559 
z
" clip-path="url(#p9aa753d3e6)" style="fill: #a1a1d8"/>
   </g>
   <g id="patch_55">
    <path d="M 125.254844 124.579062 
C 125.254844 124.579062 125.254844 124.579062 125.254844 124.579062 
C 125.254844 124.579062 125.254844 124.579062 125.254844 124.579062 
L 82.111325 159.986033 
C 83.270248 161.398185 84.497806 162.752586 85.789563 164.044343 
C 87.081321 165.336101 88.435721 166.563658 89.847873 167.722581 
z
" clip-path="url(#p9aa753d3e6)" style="fill: #a1a1d8"/>
   </g>
   <g id="patch_56">
    <path d="M 125.254844 124.579062 
C 125.254844 124.579062 125.254844 124.579062 125.254844 124.579062 
C 125.254844 124.579062 125.254844 124.579062 125.254844 124.579062 
L 68.607343 154.857783 
C 69.59841 156.71194 70.679915 158.516321 71.84795 160.264408 
C 73.015984 162.012496 74.269141 163.702182 75.602894 165.327365 
z
" clip-path="url(#p9aa753d3e6)" style="fill: #a1a1d8"/>
   </g>
   <g id="patch_57">
    <path d="M 125.254844 124.579062 
C 125.254844 124.579062 125.254844 124.579062 125.254844 124.579062 
C 125.254844 124.579062 125.254844 124.579062 125.254844 124.579062 
L 49.924156 147.430377 
C 50.672114 149.896063 51.540679 152.32354 52.526715 154.70404 
C 53.51275 157.08454 54.615067 159.415194 55.829685 161.687583 
z
" clip-path="url(#p9aa753d3e6)" style="fill: #a1a1d8"/>
   </g>
   <g id="patch_58">
    <path d="M 125.254844 124.579062 
C 125.254844 124.579062 125.254844 124.579062 125.254844 124.579062 
C 125.254844 124.579062 125.254844 124.579062 125.254844 124.579062 
L 58.32246 131.171327 
C 58.538234 133.362124 58.861441 135.541006 59.290912 137.700104 
C 59.720384 139.859202 60.255602 141.995913 60.894634 144.102519 
z
" clip-path="url(#p9aa753d3e6)" style="fill: #a1a1d8"/>
   </g>
   <g id="patch_59">
    <path d="M 125.254844 124.579062 
C 125.254844 124.579062 125.254844 124.579062 125.254844 124.579062 
C 125.254844 124.579062 125.254844 124.579062 125.254844 124.579062 
L 65.718543 118.715249 
C 65.526612 120.663961 65.430472 122.620921 65.430472 124.579062 
C 65.430472 126.537204 65.526612 128.494164 65.718543 130.442876 
z
" clip-path="url(#p9aa753d3e6)" style="fill: #a1a1d8"/>
   </g>
   <g id="patch_60">
    <path d="M 125.254844 124.579062 
C 125.254844 124.579062 125.254844 124.579062 125.254844 124.579062 
C 125.254844 124.579062 125.254844 124.579062 125.254844 124.579062 
L 95.082312 115.426325 
C 94.782729 116.413917 94.531815 117.415623 94.330476 118.427823 
C 94.129137 119.440024 93.977615 120.4615 93.876458 121.488561 
z
" clip-path="url(#p9aa753d3e6)" style="fill: #a1a1d8"/>
   </g>
   <g id="patch_61">
    <path d="M 125.254844 124.579062 
C 125.254844 124.579062 125.254844 124.579062 125.254844 124.579062 
C 125.254844 124.579062 125.254844 124.579062 125.254844 124.579062 
L 87.093795 104.181557 
C 86.426154 105.430625 85.820241 106.71172 85.278246 108.020213 
C 84.73625 109.328707 84.258824 110.663023 83.847693 112.018341 
z
" clip-path="url(#p9aa753d3e6)" style="fill: #a1a1d8"/>
   </g>
   <g id="patch_62">
    <path d="M 125.254844 124.579062 
C 125.254844 124.579062 125.254844 124.579062 125.254844 124.579062 
C 125.254844 124.579062 125.254844 124.579062 125.254844 124.579062 
L 83.039251 89.933621 
C 81.905254 91.315401 80.839782 92.752023 79.846684 94.2383 
C 78.853585 95.724577 77.934058 97.258716 77.091422 98.835177 
z
" clip-path="url(#p9aa753d3e6)" style="fill: #a1a1d8"/>
   </g>
   <g id="patch_63">
    <path d="M 125.254844 124.579062 
C 125.254844 124.579062 125.254844 124.579062 125.254844 124.579062 
C 125.254844 124.579062 125.254844 124.579062 125.254844 124.579062 
L 90.036712 81.665644 
C 88.632092 82.818387 87.284914 84.039397 86.000046 85.324265 
C 84.715178 86.609133 83.494168 87.95631 82.341426 89.360931 
z
" clip-path="url(#p9aa753d3e6)" style="fill: #a1a1d8"/>
   </g>
   <g id="patch_64">
    <path d="M 125.254844 124.579062 
C 125.254844 124.579062 125.254844 124.579062 125.254844 124.579062 
C 125.254844 124.579062 125.254844 124.579062 125.254844 124.579062 
L 105.970781 88.501119 
C 104.789896 89.132316 103.640713 89.821109 102.527383 90.565013 
C 101.414052 91.308917 100.337916 92.107034 99.302862 92.956481 
z
" clip-path="url(#p9aa753d3e6)" style="fill: #a1a1d8"/>
   </g>
   <g id="patch_65">
    <path d="M 125.254844 124.579062 
C 125.254844 124.579062 125.254844 124.579062 125.254844 124.579062 
C 125.254844 124.579062 125.254844 124.579062 125.254844 124.579062 
L 105.132694 58.245224 
C 102.961488 58.903852 100.823928 59.668683 98.727734 60.536955 
C 96.631541 61.405227 94.57924 62.375893 92.578245 63.445447 
z
" clip-path="url(#p9aa753d3e6)" style="fill: #a1a1d8"/>
   </g>
   <g id="patch_66">
    <path d="M 125.254844 124.579062 
C 125.254844 124.579062 125.254844 124.579062 125.254844 124.579062 
C 125.254844 124.579062 125.254844 124.579062 125.254844 124.579062 
L 120.450464 75.79938 
C 118.853832 75.956634 117.265884 76.192184 115.692354 76.505179 
C 114.118824 76.818173 112.561609 77.208235 111.026335 77.673956 
z
" clip-path="url(#p9aa753d3e6)" style="fill: #a1a1d8"/>
   </g>
   <g id="patch_67">
    <path d="M 119.459296 65.735874 
C 121.385321 65.546177 123.319499 65.451157 125.254844 65.451157 
C 127.190188 65.451157 129.124367 65.546177 131.050392 65.735874 
L 131.34504 62.744267 
C 129.321094 62.544926 127.288582 62.445075 125.254844 62.445075 
C 123.221106 62.445075 121.188593 62.544926 119.164648 62.744267 
z
" clip-path="url(#p9aa753d3e6)" style="fill: #ff8c8e"/>
   </g>
   <g id="patch_68">
    <path d="M 133.093596 44.990874 
C 135.698636 45.247448 138.289509 45.631767 140.856857 46.142445 
C 143.424205 46.653122 145.964932 47.289541 148.469862 48.049403 
L 154.029009 29.723353 
C 150.92424 28.781532 147.775101 27.992714 144.592968 27.359748 
C 141.410834 26.726782 138.199542 26.250432 134.97069 25.932418 
z
" clip-path="url(#p9aa753d3e6)" style="fill: #ff8c8e"/>
   </g>
   <g id="patch_69">
    <path d="M 148.197625 48.94685 
C 150.67318 49.697802 153.110373 50.569843 155.500402 51.559826 
C 157.890431 52.549808 160.230413 53.656537 162.511898 54.876016 
L 166.898446 46.669362 
C 164.348346 45.306305 161.732859 44.069272 159.061435 42.962732 
C 156.390011 41.856191 153.665868 40.881478 150.898848 40.042111 
z
" clip-path="url(#p9aa753d3e6)" style="fill: #ff8c8e"/>
   </g>
   <g id="patch_70">
    <path d="M 149.450444 79.312278 
C 150.932094 80.104236 152.373967 80.968462 153.770856 81.901834 
C 155.167746 82.835205 156.517967 83.836598 157.816644 84.902394 
L 166.329138 74.529891 
C 164.690953 73.185468 162.987749 71.922285 161.225677 70.744906 
C 159.463605 69.567527 157.644788 68.477371 155.775797 67.478374 
z
" clip-path="url(#p9aa753d3e6)" style="fill: #ff8c8e"/>
   </g>
   <g id="patch_71">
    <path d="M 150.687734 93.588996 
C 151.702085 94.421453 152.674953 95.303209 153.602825 96.231081 
C 154.530697 97.158953 155.412453 98.131821 156.24491 99.146173 
L 162.352292 94.133974 
C 161.355779 92.919719 160.300249 91.755122 159.189517 90.644389 
C 158.078784 89.533657 156.914187 88.478128 155.699933 87.481614 
z
" clip-path="url(#p9aa753d3e6)" style="fill: #ff8c8e"/>
   </g>
   <g id="patch_72">
    <path d="M 165.42749 91.610224 
C 166.506609 92.925135 167.520519 94.292235 168.465559 95.706586 
C 169.410598 97.120937 170.285627 98.580835 171.087485 100.081005 
L 174.08262 98.480072 
C 173.228361 96.881866 172.29615 95.326565 171.289353 93.819787 
C 170.282556 92.313009 169.202387 90.85657 168.052748 89.45573 
z
" clip-path="url(#p9aa753d3e6)" style="fill: #ff8c8e"/>
   </g>
   <g id="patch_73">
    <path d="M 167.273423 102.119664 
C 168.008553 103.494995 168.675714 104.905589 169.272498 106.346353 
C 169.869282 107.787117 170.394969 109.256312 170.847659 110.748633 
L 173.906589 109.820717 
C 173.423527 108.228273 172.862571 106.660505 172.225747 105.123077 
C 171.588924 103.585649 170.877001 102.080415 170.092549 100.61281 
z
" clip-path="url(#p9aa753d3e6)" style="fill: #ff8c8e"/>
   </g>
   <g id="patch_74">
    <path d="M 151.959381 116.47833 
C 152.22453 117.352409 152.446605 118.23898 152.624802 119.134839 
C 152.803 120.030699 152.937106 120.934768 153.026635 121.84378 
L 168.12588 120.356634 
C 167.987674 118.953401 167.780656 117.557799 167.505574 116.17487 
C 167.230492 114.79194 166.887678 113.42335 166.47837 112.074042 
z
" clip-path="url(#p9aa753d3e6)" style="fill: #ff8c8e"/>
   </g>
   <g id="patch_75">
    <path d="M 177.760926 119.407665 
C 177.930193 121.126267 178.01498 122.852144 178.01498 124.579062 
C 178.01498 126.305981 177.930193 128.031858 177.760926 129.75046 
L 197.83326 131.727413 
C 198.067236 129.351813 198.184436 126.966157 198.184436 124.579062 
C 198.184436 122.191968 198.067236 119.806312 197.83326 117.430712 
z
" clip-path="url(#p9aa753d3e6)" style="fill: #ff8c8e"/>
   </g>
   <g id="patch_76">
    <path d="M 181.6778 130.136239 
C 181.495905 131.983046 181.223447 133.81981 180.861409 135.639896 
C 180.499372 137.459982 180.048191 139.261196 179.509497 141.037032 
L 191.817026 144.77048 
C 192.477922 142.5918 193.031451 140.381986 193.475616 138.149018 
C 193.919781 135.91605 194.254046 133.662621 194.477203 131.39687 
z
" clip-path="url(#p9aa753d3e6)" style="fill: #ff8c8e"/>
   </g>
   <g id="patch_77">
    <path d="M 149.890613 132.052241 
C 149.646005 132.858607 149.361953 133.652477 149.039485 134.430984 
C 148.717017 135.20949 148.356521 135.971696 147.959299 136.714846 
L 160.973793 143.671239 
C 161.598709 142.502104 162.165846 141.302993 162.673157 140.078236 
C 163.180468 138.853478 163.627342 137.604552 164.012163 136.335967 
z
" clip-path="url(#p9aa753d3e6)" style="fill: #ff8c8e"/>
   </g>
   <g id="patch_78">
    <path d="M 176.023548 151.7155 
C 175.135332 153.377236 174.166065 154.994361 173.119247 156.561034 
C 172.072429 158.127708 170.949323 159.642041 169.753985 161.098564 
L 191.92935 179.297415 
C 193.720363 177.115059 195.403149 174.846085 196.97163 172.498687 
C 198.540111 170.15129 199.992396 167.728299 201.323239 165.238467 
z
" clip-path="url(#p9aa753d3e6)" style="fill: #ff8c8e"/>
   </g>
   <g id="patch_79">
    <path d="M 188.186133 176.225437 
C 186.49567 178.285272 184.705094 180.260869 182.820872 182.145091 
C 180.93665 184.029313 178.961053 185.819889 176.901218 187.510352 
L 182.475204 194.302274 
C 184.757349 192.429366 186.946164 190.44554 189.033743 188.357961 
C 191.121321 186.270383 193.105147 184.081568 194.978055 181.799423 
z
" clip-path="url(#p9aa753d3e6)" style="fill: #ff8c8e"/>
   </g>
   <g id="patch_80">
    <path d="M 155.59022 161.542826 
C 154.380341 162.535748 153.122441 163.46867 151.821065 164.338222 
C 150.519688 165.207774 149.176403 166.012908 147.796062 166.750716 
L 157.705304 185.289603 
C 159.69245 184.227451 161.626251 183.068376 163.499719 181.816564 
C 165.373188 180.564752 167.184067 179.221712 168.925816 177.792296 
z
" clip-path="url(#p9aa753d3e6)" style="fill: #ff8c8e"/>
   </g>
   <g id="patch_81">
    <path d="M 146.535764 164.392863 
C 145.232598 165.089419 143.89602 165.721574 142.530855 166.287044 
C 141.165691 166.852513 139.773586 167.350616 138.359569 167.779554 
L 147.010652 196.298352 
C 149.358132 195.586252 151.669234 194.759326 153.935612 193.820562 
C 156.201989 192.881797 158.42091 191.832326 160.58436 190.675938 
z
" clip-path="url(#p9aa753d3e6)" style="fill: #ff8c8e"/>
   </g>
   <g id="patch_82">
    <path d="M 136.832243 162.744632 
C 135.583027 163.123577 134.315958 163.440961 133.035614 163.695638 
C 131.75527 163.950314 130.463194 164.141975 129.164053 164.26993 
L 129.975662 172.510338 
C 131.544525 172.355819 133.104855 172.124366 134.651017 171.816815 
C 136.197179 171.509264 137.727309 171.125986 139.235881 170.668366 
z
" clip-path="url(#p9aa753d3e6)" style="fill: #ff8c8e"/>
   </g>
   <g id="patch_83">
    <path d="M 129.420338 166.872036 
C 128.036026 167.008379 126.645854 167.076674 125.254844 167.076674 
C 123.863833 167.076674 122.473662 167.008379 121.089349 166.872036 
L 120.384648 174.026991 
C 122.003152 174.1864 123.628508 174.266249 125.254844 174.266249 
C 126.88118 174.266249 128.506535 174.1864 130.12504 174.026991 
z
" clip-path="url(#p9aa753d3e6)" style="fill: #ff8c8e"/>
   </g>
   <g id="patch_84">
    <path d="M 120.994882 167.831182 
C 119.579175 167.691747 118.171168 167.482889 116.775946 167.205362 
C 115.380723 166.927835 113.999967 166.581974 112.638666 166.169027 
L 108.967428 178.271476 
C 110.724861 178.804588 112.507409 179.251093 114.308633 179.609379 
C 116.109858 179.967664 117.927587 180.237299 119.755257 180.417309 
z
" clip-path="url(#p9aa753d3e6)" style="fill: #ff8c8e"/>
   </g>
   <g id="patch_85">
    <path d="M 104.686624 192.383395 
C 102.467287 191.710166 100.282342 190.92838 98.139679 190.04086 
C 95.997017 189.15334 93.899221 188.161157 91.853868 187.067893 
L 86.974187 196.197133 
C 89.318354 197.450116 91.722625 198.587252 94.178318 199.604433 
C 96.63401 200.621614 99.138163 201.517615 101.681732 202.289198 
z
" clip-path="url(#p9aa753d3e6)" style="fill: #ff8c8e"/>
   </g>
   <g id="patch_86">
    <path d="M 91.470251 187.78559 
C 89.401407 186.67977 87.388103 185.473041 85.43761 184.169764 
C 83.487117 182.866486 81.601788 181.468231 79.788431 179.980047 
L 71.334446 190.281258 
C 73.484977 192.046153 75.720863 193.704399 78.034028 195.250007 
C 80.347194 196.795615 82.73485 198.226721 85.188373 199.538156 
z
" clip-path="url(#p9aa753d3e6)" style="fill: #ff8c8e"/>
   </g>
   <g id="patch_87">
    <path d="M 89.847873 167.722581 
C 88.435721 166.563658 87.081321 165.336101 85.789563 164.044343 
C 84.497806 162.752586 83.270248 161.398185 82.111325 159.986033 
L 59.102114 178.869205 
C 60.879111 181.034482 62.761347 183.111209 64.742022 185.091884 
C 66.722697 187.072559 68.799424 188.954795 70.964702 190.731792 
z
" clip-path="url(#p9aa753d3e6)" style="fill: #ff8c8e"/>
   </g>
   <g id="patch_88">
    <path d="M 75.602894 165.327365 
C 74.269141 163.702182 73.015984 162.012496 71.84795 160.264408 
C 70.679915 158.516321 69.59841 156.71194 68.607343 154.857783 
L 46.032887 166.92408 
C 47.418903 169.517133 48.931395 172.040574 50.5649 174.485287 
C 52.198406 176.930001 53.950955 179.29304 55.816218 181.56587 
z
" clip-path="url(#p9aa753d3e6)" style="fill: #ff8c8e"/>
   </g>
   <g id="patch_89">
    <path d="M 55.829685 161.687583 
C 54.615067 159.415194 53.51275 157.08454 52.526715 154.70404 
C 51.540679 152.32354 50.672114 149.896063 49.924156 147.430377 
L 23.978159 155.301009 
C 24.983734 158.615946 26.151457 161.879514 27.477111 165.079925 
C 28.802765 168.280337 30.284751 171.413733 31.917716 174.468796 
z
" clip-path="url(#p9aa753d3e6)" style="fill: #ff8c8e"/>
   </g>
   <g id="patch_90">
    <path d="M 60.894634 144.102519 
C 60.255602 141.995913 59.720384 139.859202 59.290912 137.700104 
C 58.861441 135.541006 58.538234 133.362124 58.32246 131.171327 
L 42.631715 132.71673 
C 42.898073 135.421109 43.297048 138.11078 43.827199 140.776028 
C 44.35735 143.441276 45.018038 146.078889 45.806876 148.67934 
z
" clip-path="url(#p9aa753d3e6)" style="fill: #ff8c8e"/>
   </g>
   <g id="patch_91">
    <path d="M 65.718543 130.442876 
C 65.526612 128.494164 65.430472 126.537204 65.430472 124.579062 
C 65.430472 122.620921 65.526612 120.663961 65.718543 118.715249 
L 23.335452 114.540879 
C 23.006887 117.876852 22.842307 121.226947 22.842307 124.579062 
C 22.842307 127.931178 23.006887 131.281273 23.335452 134.617246 
z
" clip-path="url(#p9aa753d3e6)" style="fill: #ff8c8e"/>
   </g>
   <g id="patch_92">
    <path d="M 93.876458 121.488561 
C 93.977615 120.4615 94.129137 119.440024 94.330476 118.427823 
C 94.531815 117.415623 94.782729 116.413917 95.082312 115.426325 
L 55.248501 103.342871 
C 54.553409 105.634283 53.971237 107.958441 53.50409 110.30695 
C 53.036942 112.655459 52.685382 115.025489 52.450678 117.408478 
z
" clip-path="url(#p9aa753d3e6)" style="fill: #ff8c8e"/>
   </g>
   <g id="patch_93">
    <path d="M 83.847693 112.018341 
C 84.258824 110.663023 84.73625 109.328707 85.278246 108.020213 
C 85.820241 106.71172 86.426154 105.430625 87.093795 104.181557 
L 48.427853 83.514181 
C 47.083738 86.028843 45.863897 88.607981 44.772734 91.242281 
C 43.681571 93.876581 42.720403 96.562866 41.892701 99.291433 
z
" clip-path="url(#p9aa753d3e6)" style="fill: #ff8c8e"/>
   </g>
   <g id="patch_94">
    <path d="M 77.091422 98.835177 
C 77.934058 97.258716 78.853585 95.724577 79.846684 94.2383 
C 80.839782 92.752023 81.905254 91.315401 83.039251 89.933621 
L 70.754748 79.85199 
C 69.290765 81.63586 67.915246 83.490532 66.633162 85.409307 
C 65.351077 87.328082 64.163972 89.308647 63.076133 91.343849 
z
" clip-path="url(#p9aa753d3e6)" style="fill: #ff8c8e"/>
   </g>
   <g id="patch_95">
    <path d="M 82.341426 89.360931 
C 83.494168 87.95631 84.715178 86.609133 86.000046 85.324265 
C 87.284914 84.039397 88.632092 82.818387 90.036712 81.665644 
L 81.660286 71.45894 
C 79.921585 72.885855 78.25399 74.397276 76.663523 75.987742 
C 75.073057 77.578209 73.561637 79.245804 72.134722 80.984505 
z
" clip-path="url(#p9aa753d3e6)" style="fill: #ff8c8e"/>
   </g>
   <g id="patch_96">
    <path d="M 99.302862 92.956481 
C 100.337916 92.107034 101.414052 91.308917 102.527383 90.565013 
C 103.640713 89.821109 104.789896 89.132316 105.970781 88.501119 
L 99.65438 76.683963 
C 98.086701 77.521904 96.561109 78.436309 95.083112 79.423875 
C 93.605115 80.411441 92.176496 81.470977 90.802415 82.598656 
z
" clip-path="url(#p9aa753d3e6)" style="fill: #ff8c8e"/>
   </g>
   <g id="patch_97">
    <path d="M 92.578245 63.445447 
C 94.57924 62.375893 96.631541 61.405227 98.727734 60.536955 
C 100.823928 59.668683 102.961488 58.903852 105.132694 58.245224 
L 102.618389 49.956671 
C 100.175887 50.697596 97.771234 51.557995 95.413116 52.534759 
C 93.054999 53.511523 90.746259 54.603476 88.495236 55.806673 
z
" clip-path="url(#p9aa753d3e6)" style="fill: #ff8c8e"/>
   </g>
   <g id="patch_98">
    <path d="M 111.026335 77.673956 
C 112.561609 77.208235 114.118824 76.818173 115.692354 76.505179 
C 117.265884 76.192184 118.853832 75.956634 120.450464 75.79938 
L 117.010288 40.870688 
C 114.270388 41.140545 111.545389 41.54476 108.845133 42.081875 
C 106.144877 42.618989 103.472619 43.288355 100.838012 44.087554 
z
" clip-path="url(#p9aa753d3e6)" style="fill: #ff8c8e"/>
   </g>
   <g id="patch_99">
    <path d="M 119.164648 62.744267 
C 121.188593 62.544926 123.221106 62.445075 125.254844 62.445075 
C 127.288582 62.445075 129.321094 62.544926 131.34504 62.744267 
L 131.34504 62.744267 
C 129.321094 62.544926 127.288582 62.445075 125.254844 62.445075 
C 123.221106 62.445075 121.188593 62.544926 119.164648 62.744267 
z
" clip-path="url(#p9aa753d3e6)" style="fill: #828282"/>
   </g>
   <g id="patch_100">
    <path d="M 134.97069 25.932418 
C 138.199542 26.250432 141.410834 26.726782 144.592968 27.359748 
C 147.775101 27.992714 150.92424 28.781532 154.029009 29.723353 
L 154.029009 29.723353 
C 150.92424 28.781532 147.775101 27.992714 144.592968 27.359748 
C 141.410834 26.726782 138.199542 26.250432 134.97069 25.932418 
z
" clip-path="url(#p9aa753d3e6)" style="fill: #828282"/>
   </g>
   <g id="patch_101">
    <path d="M 150.898848 40.042111 
C 153.665868 40.881478 156.390011 41.856191 159.061435 42.962732 
C 161.732859 44.069272 164.348346 45.306305 166.898446 46.669362 
L 166.898446 46.669362 
C 164.348346 45.306305 161.732859 44.069272 159.061435 42.962732 
C 156.390011 41.856191 153.665868 40.881478 150.898848 40.042111 
z
" clip-path="url(#p9aa753d3e6)" style="fill: #828282"/>
   </g>
   <g id="patch_102">
    <path d="M 155.775797 67.478374 
C 157.644788 68.477371 159.463605 69.567527 161.225677 70.744906 
C 162.987749 71.922285 164.690953 73.185468 166.329138 74.529891 
L 166.329138 74.529891 
C 164.690953 73.185468 162.987749 71.922285 161.225677 70.744906 
C 159.463605 69.567527 157.644788 68.477371 155.775797 67.478374 
z
" clip-path="url(#p9aa753d3e6)" style="fill: #828282"/>
   </g>
   <g id="patch_103">
    <path d="M 155.699933 87.481614 
C 156.914187 88.478128 158.078784 89.533657 159.189517 90.644389 
C 160.300249 91.755122 161.355779 92.919719 162.352292 94.133974 
L 162.352292 94.133974 
C 161.355779 92.919719 160.300249 91.755122 159.189517 90.644389 
C 158.078784 89.533657 156.914187 88.478128 155.699933 87.481614 
z
" clip-path="url(#p9aa753d3e6)" style="fill: #828282"/>
   </g>
   <g id="patch_104">
    <path d="M 168.052748 89.45573 
C 169.202387 90.85657 170.282556 92.313009 171.289353 93.819787 
C 172.29615 95.326565 173.228361 96.881866 174.08262 98.480072 
L 174.08262 98.480072 
C 173.228361 96.881866 172.29615 95.326565 171.289353 93.819787 
C 170.282556 92.313009 169.202387 90.85657 168.052748 89.45573 
z
" clip-path="url(#p9aa753d3e6)" style="fill: #828282"/>
   </g>
   <g id="patch_105">
    <path d="M 170.092549 100.61281 
C 170.877001 102.080415 171.588924 103.585649 172.225747 105.123077 
C 172.862571 106.660505 173.423527 108.228273 173.906589 109.820717 
L 173.906589 109.820717 
C 173.423527 108.228273 172.862571 106.660505 172.225747 105.123077 
C 171.588924 103.585649 170.877001 102.080415 170.092549 100.61281 
z
" clip-path="url(#p9aa753d3e6)" style="fill: #828282"/>
   </g>
   <g id="patch_106">
    <path d="M 166.47837 112.074042 
C 166.887678 113.42335 167.230492 114.79194 167.505574 116.17487 
C 167.780656 117.557799 167.987674 118.953401 168.12588 120.356634 
L 168.12588 120.356634 
C 167.987674 118.953401 167.780656 117.557799 167.505574 116.17487 
C 167.230492 114.79194 166.887678 113.42335 166.47837 112.074042 
z
" clip-path="url(#p9aa753d3e6)" style="fill: #828282"/>
   </g>
   <g id="patch_107">
    <path d="M 197.83326 117.430712 
C 198.067236 119.806312 198.184436 122.191968 198.184436 124.579062 
C 198.184436 126.966157 198.067236 129.351813 197.83326 131.727413 
L 197.83326 131.727413 
C 198.067236 129.351813 198.184436 126.966157 198.184436 124.579062 
C 198.184436 122.191968 198.067236 119.806312 197.83326 117.430712 
z
" clip-path="url(#p9aa753d3e6)" style="fill: #828282"/>
   </g>
   <g id="patch_108">
    <path d="M 194.477203 131.39687 
C 194.254046 133.662621 193.919781 135.91605 193.475616 138.149018 
C 193.031451 140.381986 192.477922 142.5918 191.817026 144.77048 
L 191.817026 144.77048 
C 192.477922 142.5918 193.031451 140.381986 193.475616 138.149018 
C 193.919781 135.91605 194.254046 133.662621 194.477203 131.39687 
z
" clip-path="url(#p9aa753d3e6)" style="fill: #828282"/>
   </g>
   <g id="patch_109">
    <path d="M 164.012163 136.335967 
C 163.627342 137.604552 163.180468 138.853478 162.673157 140.078236 
C 162.165846 141.302993 161.598709 142.502104 160.973793 143.671239 
L 160.973793 143.671239 
C 161.598709 142.502104 162.165846 141.302993 162.673157 140.078236 
C 163.180468 138.853478 163.627342 137.604552 164.012163 136.335967 
z
" clip-path="url(#p9aa753d3e6)" style="fill: #828282"/>
   </g>
   <g id="patch_110">
    <path d="M 201.323239 165.238467 
C 199.992396 167.728299 198.540111 170.15129 196.97163 172.498687 
C 195.403149 174.846085 193.720363 177.115059 191.92935 179.297415 
L 191.92935 179.297415 
C 193.720363 177.115059 195.403149 174.846085 196.97163 172.498687 
C 198.540111 170.15129 199.992396 167.728299 201.323239 165.238467 
z
" clip-path="url(#p9aa753d3e6)" style="fill: #828282"/>
   </g>
   <g id="patch_111">
    <path d="M 194.978055 181.799423 
C 193.105147 184.081568 191.121321 186.270383 189.033743 188.357961 
C 186.946164 190.44554 184.757349 192.429366 182.475204 194.302274 
L 182.881645 194.797523 
C 185.18 192.911312 187.384362 190.913395 189.486769 188.810988 
C 191.589176 186.708581 193.587093 184.504219 195.473305 182.205864 
z
" clip-path="url(#p9aa753d3e6)" style="fill: #828282"/>
   </g>
   <g id="patch_112">
    <path d="M 168.925816 177.792296 
C 167.184067 179.221712 165.373188 180.564752 163.499719 181.816564 
C 161.626251 183.068376 159.69245 184.227451 157.705304 185.289603 
L 159.526349 188.696539 
C 161.62501 187.574782 163.667331 186.350662 165.645934 185.028601 
C 167.624538 183.706541 169.537039 182.288133 171.376531 180.778501 
z
" clip-path="url(#p9aa753d3e6)" style="fill: #828282"/>
   </g>
   <g id="patch_113">
    <path d="M 160.58436 190.675938 
C 158.42091 191.832326 156.201989 192.881797 153.935612 193.820562 
C 151.669234 194.759326 149.358132 195.586252 147.010652 196.298352 
L 147.922117 199.30305 
C 150.367945 198.561116 152.775872 197.699546 155.1372 196.721452 
C 157.498528 195.743358 159.810411 194.649919 162.064499 193.445084 
z
" clip-path="url(#p9aa753d3e6)" style="fill: #828282"/>
   </g>
   <g id="patch_114">
    <path d="M 139.235881 170.668366 
C 137.727309 171.125986 136.197179 171.509264 134.651017 171.816815 
C 133.104855 172.124366 131.544525 172.355819 129.975662 172.510338 
L 130.189978 174.686326 
C 131.830064 174.524792 133.46123 174.282831 135.077585 173.961318 
C 136.69394 173.639805 138.293535 173.239127 139.870593 172.760732 
z
" clip-path="url(#p9aa753d3e6)" style="fill: #828282"/>
   </g>
   <g id="patch_115">
    <path d="M 130.12504 174.026991 
C 128.506535 174.1864 126.88118 174.266249 125.254844 174.266249 
C 123.628508 174.266249 122.003152 174.1864 120.384648 174.026991 
L 120.368332 174.192646 
C 121.992259 174.352589 123.62306 174.432705 125.254844 174.432705 
C 126.886628 174.432705 128.517429 174.352589 130.141355 174.192646 
z
" clip-path="url(#p9aa753d3e6)" style="fill: #828282"/>
   </g>
   <g id="patch_116">
    <path d="M 119.755257 180.417309 
C 117.927587 180.237299 116.109858 179.967664 114.308633 179.609379 
C 112.507409 179.251093 110.724861 178.804588 108.967428 178.271476 
L 108.967428 178.271476 
C 110.724861 178.804588 112.507409 179.251093 114.308633 179.609379 
C 116.109858 179.967664 117.927587 180.237299 119.755257 180.417309 
z
" clip-path="url(#p9aa753d3e6)" style="fill: #828282"/>
   </g>
   <g id="patch_117">
    <path d="M 101.681732 202.289198 
C 99.138163 201.517615 96.63401 200.621614 94.178318 199.604433 
C 91.722625 198.587252 89.318354 197.450116 86.974187 196.197133 
L 86.974187 196.197133 
C 89.318354 197.450116 91.722625 198.587252 94.178318 199.604433 
C 96.63401 200.621614 99.138163 201.517615 101.681732 202.289198 
z
" clip-path="url(#p9aa753d3e6)" style="fill: #828282"/>
   </g>
   <g id="patch_118">
    <path d="M 85.188373 199.538156 
C 82.73485 198.226721 80.347194 196.795615 78.034028 195.250007 
C 75.720863 193.704399 73.484977 192.046153 71.334446 190.281258 
L 71.334446 190.281258 
C 73.484977 192.046153 75.720863 193.704399 78.034028 195.250007 
C 80.347194 196.795615 82.73485 198.226721 85.188373 199.538156 
z
" clip-path="url(#p9aa753d3e6)" style="fill: #828282"/>
   </g>
   <g id="patch_119">
    <path d="M 70.964702 190.731792 
C 68.799424 188.954795 66.722697 187.072559 64.742022 185.091884 
C 62.761347 183.111209 60.879111 181.034482 59.102114 178.869205 
L 59.102114 178.869205 
C 60.879111 181.034482 62.761347 183.111209 64.742022 185.091884 
C 66.722697 187.072559 68.799424 188.954795 70.964702 190.731792 
z
" clip-path="url(#p9aa753d3e6)" style="fill: #828282"/>
   </g>
   <g id="patch_120">
    <path d="M 55.816218 181.56587 
C 53.950955 179.29304 52.198406 176.930001 50.5649 174.485287 
C 48.931395 172.040574 47.418903 169.517133 46.032887 166.92408 
L 46.032887 166.92408 
C 47.418903 169.517133 48.931395 172.040574 50.5649 174.485287 
C 52.198406 176.930001 53.950955 179.29304 55.816218 181.56587 
z
" clip-path="url(#p9aa753d3e6)" style="fill: #828282"/>
   </g>
   <g id="patch_121">
    <path d="M 31.917716 174.468796 
C 30.284751 171.413733 28.802765 168.280337 27.477111 165.079925 
C 26.151457 161.879514 24.983734 158.615946 23.978159 155.301009 
L 23.753681 155.369103 
C 24.761485 158.691388 25.931797 161.96219 27.260389 165.169695 
C 28.588981 168.3772 30.074252 171.517541 31.710837 174.579376 
z
" clip-path="url(#p9aa753d3e6)" style="fill: #828282"/>
   </g>
   <g id="patch_122">
    <path d="M 45.806876 148.67934 
C 45.018038 146.078889 44.35735 143.441276 43.827199 140.776028 
C 43.297048 138.11078 42.898073 135.421109 42.631715 132.71673 
L 42.631715 132.71673 
C 42.898073 135.421109 43.297048 138.11078 43.827199 140.776028 
C 44.35735 143.441276 45.018038 146.078889 45.806876 148.67934 
z
" clip-path="url(#p9aa753d3e6)" style="fill: #828282"/>
   </g>
   <g id="patch_123">
    <path d="M 23.335452 134.617246 
C 23.006887 131.281273 22.842307 127.931178 22.842307 124.579062 
C 22.842307 121.226947 23.006887 117.876852 23.335452 114.540879 
L 14.90876 113.710922 
C 14.55303 117.322714 14.374843 120.949795 14.374843 124.579062 
C 14.374843 128.20833 14.55303 131.835411 14.90876 135.447203 
z
" clip-path="url(#p9aa753d3e6)" style="fill: #828282"/>
   </g>
   <g id="patch_124">
    <path d="M 52.450678 117.408478 
C 52.685382 115.025489 53.036942 112.655459 53.50409 110.30695 
C 53.971237 107.958441 54.553409 105.634283 55.248501 103.342871 
L 55.248501 103.342871 
C 54.553409 105.634283 53.971237 107.958441 53.50409 110.30695 
C 53.036942 112.655459 52.685382 115.025489 52.450678 117.408478 
z
" clip-path="url(#p9aa753d3e6)" style="fill: #828282"/>
   </g>
   <g id="patch_125">
    <path d="M 41.892701 99.291433 
C 42.720403 96.562866 43.681571 93.876581 44.772734 91.242281 
C 45.863897 88.607981 47.083738 86.028843 48.427853 83.514181 
L 47.26248 82.891276 
C 45.897977 85.444082 44.659631 88.062343 43.551917 90.736602 
C 42.444203 93.410861 41.468455 96.137894 40.628198 98.90785 
z
" clip-path="url(#p9aa753d3e6)" style="fill: #828282"/>
   </g>
   <g id="patch_126">
    <path d="M 63.076133 91.343849 
C 64.163972 89.308647 65.351077 87.328082 66.633162 85.409307 
C 67.915246 83.490532 69.290765 81.63586 70.754748 79.85199 
L 68.442143 77.954084 
C 66.916038 79.813649 65.482152 81.74702 64.145665 83.747214 
C 62.809177 85.747409 61.5717 87.812016 60.437701 89.933578 
z
" clip-path="url(#p9aa753d3e6)" style="fill: #828282"/>
   </g>
   <g id="patch_127">
    <path d="M 72.134722 80.984505 
C 73.561637 79.245804 75.073057 77.578209 76.663523 75.987742 
C 78.25399 74.397276 79.921585 72.885855 81.660286 71.45894 
L 79.496039 68.821798 
C 77.671021 70.319552 75.920638 71.906007 74.251213 73.575432 
C 72.581788 75.244857 70.995333 76.99524 69.497579 78.820258 
z
" clip-path="url(#p9aa753d3e6)" style="fill: #828282"/>
   </g>
   <g id="patch_128">
    <path d="M 90.802415 82.598656 
C 92.176496 81.470977 93.605115 80.411441 95.083112 79.423875 
C 96.561109 78.436309 98.086701 77.521904 99.65438 76.683963 
L 98.805516 75.09585 
C 97.185856 75.961576 95.609678 76.906301 94.082674 77.926613 
C 92.555669 78.946925 91.07968 80.041593 89.660037 81.206664 
z
" clip-path="url(#p9aa753d3e6)" style="fill: #828282"/>
   </g>
   <g id="patch_129">
    <path d="M 88.495236 55.806673 
C 90.746259 54.603476 93.054999 53.511523 95.413116 52.534759 
C 97.771234 51.557995 100.175887 50.697596 102.618389 49.956671 
L 102.618389 49.956671 
C 100.175887 50.697596 97.771234 51.557995 95.413116 52.534759 
C 93.054999 53.511523 90.746259 54.603476 88.495236 55.806673 
z
" clip-path="url(#p9aa753d3e6)" style="fill: #828282"/>
   </g>
   <g id="patch_130">
    <path d="M 100.838012 44.087554 
C 103.472619 43.288355 106.144877 42.618989 108.845133 42.081875 
C 111.545389 41.54476 114.270388 41.140545 117.010288 40.870688 
L 117.010288 40.870688 
C 114.270388 41.140545 111.545389 41.54476 108.845133 42.081875 
C 106.144877 42.618989 103.472619 43.288355 100.838012 44.087554 
z
" clip-path="url(#p9aa753d3e6)" style="fill: #828282"/>
   </g>
   <g id="patch_131">
    <path d="M 125.254844 124.579062 
C 125.254844 124.579062 125.254844 124.579062 125.254844 124.579062 
C 125.254844 124.579062 125.254844 124.579062 125.254844 124.579062 
L 131.34504 62.744267 
C 129.321094 62.544926 127.288582 62.445075 125.254844 62.445075 
C 123.221106 62.445075 121.188593 62.544926 119.164648 62.744267 
L 125.254844 124.579062 
z
" clip-path="url(#p9aa753d3e6)" style="fill: none; stroke: #292929; stroke-width: 0.5; stroke-linejoin: miter"/>
   </g>
   <g id="patch_132">
    <path d="M 125.254844 124.579062 
C 125.254844 124.579062 125.254844 124.579062 125.254844 124.579062 
C 125.254844 124.579062 125.254844 124.579062 125.254844 124.579062 
L 154.029009 29.723353 
C 150.92424 28.781532 147.775101 27.992714 144.592968 27.359748 
C 141.410834 26.726782 138.199542 26.250432 134.97069 25.932418 
L 125.254844 124.579062 
z
" clip-path="url(#p9aa753d3e6)" style="fill: none; stroke: #292929; stroke-width: 0.5; stroke-linejoin: miter"/>
   </g>
   <g id="patch_133">
    <path d="M 125.254844 124.579062 
C 125.254844 124.579062 125.254844 124.579062 125.254844 124.579062 
C 125.254844 124.579062 125.254844 124.579062 125.254844 124.579062 
L 166.898446 46.669362 
C 164.348346 45.306305 161.732859 44.069272 159.061435 42.962732 
C 156.390011 41.856191 153.665868 40.881478 150.898848 40.042111 
L 125.254844 124.579062 
z
" clip-path="url(#p9aa753d3e6)" style="fill: none; stroke: #292929; stroke-width: 0.5; stroke-linejoin: miter"/>
   </g>
   <g id="patch_134">
    <path d="M 125.254844 124.579062 
C 125.254844 124.579062 125.254844 124.579062 125.254844 124.579062 
C 125.254844 124.579062 125.254844 124.579062 125.254844 124.579062 
L 166.329138 74.529891 
C 164.690953 73.185468 162.987749 71.922285 161.225677 70.744906 
C 159.463605 69.567527 157.644788 68.477371 155.775797 67.478374 
L 125.254844 124.579062 
z
" clip-path="url(#p9aa753d3e6)" style="fill: none; stroke: #292929; stroke-width: 0.5; stroke-linejoin: miter"/>
   </g>
   <g id="patch_135">
    <path d="M 125.254844 124.579062 
C 125.254844 124.579062 125.254844 124.579062 125.254844 124.579062 
C 125.254844 124.579062 125.254844 124.579062 125.254844 124.579062 
L 162.352292 94.133974 
C 161.355779 92.919719 160.300249 91.755122 159.189517 90.644389 
C 158.078784 89.533657 156.914187 88.478128 155.699933 87.481614 
L 125.254844 124.579062 
z
" clip-path="url(#p9aa753d3e6)" style="fill: none; stroke: #292929; stroke-width: 0.5; stroke-linejoin: miter"/>
   </g>
   <g id="patch_136">
    <path d="M 125.254844 124.579062 
C 125.254844 124.579062 125.254844 124.579062 125.254844 124.579062 
C 125.254844 124.579062 125.254844 124.579062 125.254844 124.579062 
L 174.08262 98.480072 
C 173.228361 96.881866 172.29615 95.326565 171.289353 93.819787 
C 170.282556 92.313009 169.202387 90.85657 168.052748 89.45573 
L 125.254844 124.579062 
z
" clip-path="url(#p9aa753d3e6)" style="fill: none; stroke: #292929; stroke-width: 0.5; stroke-linejoin: miter"/>
   </g>
   <g id="patch_137">
    <path d="M 125.254844 124.579062 
C 125.254844 124.579062 125.254844 124.579062 125.254844 124.579062 
C 125.254844 124.579062 125.254844 124.579062 125.254844 124.579062 
L 173.906589 109.820717 
C 173.423527 108.228273 172.862571 106.660505 172.225747 105.123077 
C 171.588924 103.585649 170.877001 102.080415 170.092549 100.61281 
L 125.254844 124.579062 
z
" clip-path="url(#p9aa753d3e6)" style="fill: none; stroke: #292929; stroke-width: 0.5; stroke-linejoin: miter"/>
   </g>
   <g id="patch_138">
    <path d="M 125.254844 124.579062 
C 125.254844 124.579062 125.254844 124.579062 125.254844 124.579062 
C 125.254844 124.579062 125.254844 124.579062 125.254844 124.579062 
L 168.12588 120.356634 
C 167.987674 118.953401 167.780656 117.557799 167.505574 116.17487 
C 167.230492 114.79194 166.887678 113.42335 166.47837 112.074042 
L 125.254844 124.579062 
z
" clip-path="url(#p9aa753d3e6)" style="fill: none; stroke: #292929; stroke-width: 0.5; stroke-linejoin: miter"/>
   </g>
   <g id="patch_139">
    <path d="M 125.254844 124.579062 
C 125.254844 124.579062 125.254844 124.579062 125.254844 124.579062 
C 125.254844 124.579062 125.254844 124.579062 125.254844 124.579062 
L 197.83326 131.727413 
C 198.067236 129.351813 198.184436 126.966157 198.184436 124.579062 
C 198.184436 122.191968 198.067236 119.806312 197.83326 117.430712 
L 125.254844 124.579062 
z
" clip-path="url(#p9aa753d3e6)" style="fill: none; stroke: #292929; stroke-width: 0.5; stroke-linejoin: miter"/>
   </g>
   <g id="patch_140">
    <path d="M 125.254844 124.579062 
C 125.254844 124.579062 125.254844 124.579062 125.254844 124.579062 
C 125.254844 124.579062 125.254844 124.579062 125.254844 124.579062 
L 191.817026 144.77048 
C 192.477922 142.5918 193.031451 140.381986 193.475616 138.149018 
C 193.919781 135.91605 194.254046 133.662621 194.477203 131.39687 
L 125.254844 124.579062 
z
" clip-path="url(#p9aa753d3e6)" style="fill: none; stroke: #292929; stroke-width: 0.5; stroke-linejoin: miter"/>
   </g>
   <g id="patch_141">
    <path d="M 125.254844 124.579062 
C 125.254844 124.579062 125.254844 124.579062 125.254844 124.579062 
C 125.254844 124.579062 125.254844 124.579062 125.254844 124.579062 
L 160.973793 143.671239 
C 161.598709 142.502104 162.165846 141.302993 162.673157 140.078236 
C 163.180468 138.853478 163.627342 137.604552 164.012163 136.335967 
L 125.254844 124.579062 
z
" clip-path="url(#p9aa753d3e6)" style="fill: none; stroke: #292929; stroke-width: 0.5; stroke-linejoin: miter"/>
   </g>
   <g id="patch_142">
    <path d="M 125.254844 124.579062 
C 125.254844 124.579062 125.254844 124.579062 125.254844 124.579062 
C 125.254844 124.579062 125.254844 124.579062 125.254844 124.579062 
L 191.92935 179.297415 
C 193.720363 177.115059 195.403149 174.846085 196.97163 172.498687 
C 198.540111 170.15129 199.992396 167.728299 201.323239 165.238467 
L 125.254844 124.579062 
z
" clip-path="url(#p9aa753d3e6)" style="fill: none; stroke: #292929; stroke-width: 0.5; stroke-linejoin: miter"/>
   </g>
   <g id="patch_143">
    <path d="M 125.254844 124.579062 
C 125.254844 124.579062 125.254844 124.579062 125.254844 124.579062 
C 125.254844 124.579062 125.254844 124.579062 125.254844 124.579062 
L 182.881645 194.797523 
C 185.18 192.911312 187.384362 190.913395 189.486769 188.810988 
C 191.589176 186.708581 193.587093 184.504219 195.473305 182.205864 
L 125.254844 124.579062 
z
" clip-path="url(#p9aa753d3e6)" style="fill: none; stroke: #292929; stroke-width: 0.5; stroke-linejoin: miter"/>
   </g>
   <g id="patch_144">
    <path d="M 125.254844 124.579062 
C 125.254844 124.579062 125.254844 124.579062 125.254844 124.579062 
C 125.254844 124.579062 125.254844 124.579062 125.254844 124.579062 
L 159.526349 188.696539 
C 161.62501 187.574782 163.667331 186.350662 165.645934 185.028601 
C 167.624538 183.706541 169.537039 182.288133 171.376531 180.778501 
L 125.254844 124.579062 
z
" clip-path="url(#p9aa753d3e6)" style="fill: none; stroke: #292929; stroke-width: 0.5; stroke-linejoin: miter"/>
   </g>
   <g id="patch_145">
    <path d="M 125.254844 124.579062 
C 125.254844 124.579062 125.254844 124.579062 125.254844 124.579062 
C 125.254844 124.579062 125.254844 124.579062 125.254844 124.579062 
L 147.922117 199.30305 
C 150.367945 198.561116 152.775872 197.699546 155.1372 196.721452 
C 157.498528 195.743358 159.810411 194.649919 162.064499 193.445084 
L 125.254844 124.579062 
z
" clip-path="url(#p9aa753d3e6)" style="fill: none; stroke: #292929; stroke-width: 0.5; stroke-linejoin: miter"/>
   </g>
   <g id="patch_146">
    <path d="M 125.254844 124.579062 
C 125.254844 124.579062 125.254844 124.579062 125.254844 124.579062 
C 125.254844 124.579062 125.254844 124.579062 125.254844 124.579062 
L 130.189978 174.686326 
C 131.830064 174.524792 133.46123 174.282831 135.077585 173.961318 
C 136.69394 173.639805 138.293535 173.239127 139.870593 172.760732 
L 125.254844 124.579062 
z
" clip-path="url(#p9aa753d3e6)" style="fill: none; stroke: #292929; stroke-width: 0.5; stroke-linejoin: miter"/>
   </g>
   <g id="patch_147">
    <path d="M 125.254844 124.579062 
C 125.254844 124.579062 125.254844 124.579062 125.254844 124.579062 
C 125.254844 124.579062 125.254844 124.579062 125.254844 124.579062 
L 120.368332 174.192646 
C 121.992259 174.352589 123.62306 174.432705 125.254844 174.432705 
C 126.886628 174.432705 128.517429 174.352589 130.141355 174.192646 
L 125.254844 124.579062 
z
" clip-path="url(#p9aa753d3e6)" style="fill: none; stroke: #292929; stroke-width: 0.5; stroke-linejoin: miter"/>
   </g>
   <g id="patch_148">
    <path d="M 125.254844 124.579062 
C 125.254844 124.579062 125.254844 124.579062 125.254844 124.579062 
C 125.254844 124.579062 125.254844 124.579062 125.254844 124.579062 
L 108.967428 178.271476 
C 110.724861 178.804588 112.507409 179.251093 114.308633 179.609379 
C 116.109858 179.967664 117.927587 180.237299 119.755257 180.417309 
L 125.254844 124.579062 
z
" clip-path="url(#p9aa753d3e6)" style="fill: none; stroke: #292929; stroke-width: 0.5; stroke-linejoin: miter"/>
   </g>
   <g id="patch_149">
    <path d="M 125.254844 124.579062 
C 125.254844 124.579062 125.254844 124.579062 125.254844 124.579062 
C 125.254844 124.579062 125.254844 124.579062 125.254844 124.579062 
L 86.974187 196.197133 
C 89.318354 197.450116 91.722625 198.587252 94.178318 199.604433 
C 96.63401 200.621614 99.138163 201.517615 101.681732 202.289198 
L 125.254844 124.579062 
z
" clip-path="url(#p9aa753d3e6)" style="fill: none; stroke: #292929; stroke-width: 0.5; stroke-linejoin: miter"/>
   </g>
   <g id="patch_150">
    <path d="M 125.254844 124.579062 
C 125.254844 124.579062 125.254844 124.579062 125.254844 124.579062 
C 125.254844 124.579062 125.254844 124.579062 125.254844 124.579062 
L 71.334446 190.281258 
C 73.484977 192.046153 75.720863 193.704399 78.034028 195.250007 
C 80.347194 196.795615 82.73485 198.226721 85.188373 199.538156 
L 125.254844 124.579062 
z
" clip-path="url(#p9aa753d3e6)" style="fill: none; stroke: #292929; stroke-width: 0.5; stroke-linejoin: miter"/>
   </g>
   <g id="patch_151">
    <path d="M 125.254844 124.579062 
C 125.254844 124.579062 125.254844 124.579062 125.254844 124.579062 
C 125.254844 124.579062 125.254844 124.579062 125.254844 124.579062 
L 59.102114 178.869205 
C 60.879111 181.034482 62.761347 183.111209 64.742022 185.091884 
C 66.722697 187.072559 68.799424 188.954795 70.964702 190.731792 
L 125.254844 124.579062 
z
" clip-path="url(#p9aa753d3e6)" style="fill: none; stroke: #292929; stroke-width: 0.5; stroke-linejoin: miter"/>
   </g>
   <g id="patch_152">
    <path d="M 125.254844 124.579062 
C 125.254844 124.579062 125.254844 124.579062 125.254844 124.579062 
C 125.254844 124.579062 125.254844 124.579062 125.254844 124.579062 
L 46.032887 166.92408 
C 47.418903 169.517133 48.931395 172.040574 50.5649 174.485287 
C 52.198406 176.930001 53.950955 179.29304 55.816218 181.56587 
L 125.254844 124.579062 
z
" clip-path="url(#p9aa753d3e6)" style="fill: none; stroke: #292929; stroke-width: 0.5; stroke-linejoin: miter"/>
   </g>
   <g id="patch_153">
    <path d="M 125.254844 124.579062 
C 125.254844 124.579062 125.254844 124.579062 125.254844 124.579062 
C 125.254844 124.579062 125.254844 124.579062 125.254844 124.579062 
L 23.753681 155.369103 
C 24.761485 158.691388 25.931797 161.96219 27.260389 165.169695 
C 28.588981 168.3772 30.074252 171.517541 31.710837 174.579376 
L 125.254844 124.579062 
z
" clip-path="url(#p9aa753d3e6)" style="fill: none; stroke: #292929; stroke-width: 0.5; stroke-linejoin: miter"/>
   </g>
   <g id="patch_154">
    <path d="M 125.254844 124.579062 
C 125.254844 124.579062 125.254844 124.579062 125.254844 124.579062 
C 125.254844 124.579062 125.254844 124.579062 125.254844 124.579062 
L 42.631715 132.71673 
C 42.898073 135.421109 43.297048 138.11078 43.827199 140.776028 
C 44.35735 143.441276 45.018038 146.078889 45.806876 148.67934 
L 125.254844 124.579062 
z
" clip-path="url(#p9aa753d3e6)" style="fill: none; stroke: #292929; stroke-width: 0.5; stroke-linejoin: miter"/>
   </g>
   <g id="patch_155">
    <path d="M 125.254844 124.579062 
C 125.254844 124.579062 125.254844 124.579062 125.254844 124.579062 
C 125.254844 124.579062 125.254844 124.579062 125.254844 124.579062 
L 14.90876 113.710922 
C 14.55303 117.322714 14.374843 120.949795 14.374843 124.579062 
C 14.374843 128.20833 14.55303 131.835411 14.90876 135.447203 
L 125.254844 124.579062 
z
" clip-path="url(#p9aa753d3e6)" style="fill: none; stroke: #292929; stroke-width: 0.5; stroke-linejoin: miter"/>
   </g>
   <g id="patch_156">
    <path d="M 125.254844 124.579062 
C 125.254844 124.579062 125.254844 124.579062 125.254844 124.579062 
C 125.254844 124.579062 125.254844 124.579062 125.254844 124.579062 
L 55.248501 103.342871 
C 54.553409 105.634283 53.971237 107.958441 53.50409 110.30695 
C 53.036942 112.655459 52.685382 115.025489 52.450678 117.408478 
L 125.254844 124.579062 
z
" clip-path="url(#p9aa753d3e6)" style="fill: none; stroke: #292929; stroke-width: 0.5; stroke-linejoin: miter"/>
   </g>
   <g id="patch_157">
    <path d="M 125.254844 124.579062 
C 125.254844 124.579062 125.254844 124.579062 125.254844 124.579062 
C 125.254844 124.579062 125.254844 124.579062 125.254844 124.579062 
L 47.26248 82.891276 
C 45.897977 85.444082 44.659631 88.062343 43.551917 90.736602 
C 42.444203 93.410861 41.468455 96.137894 40.628198 98.90785 
L 125.254844 124.579062 
z
" clip-path="url(#p9aa753d3e6)" style="fill: none; stroke: #292929; stroke-width: 0.5; stroke-linejoin: miter"/>
   </g>
   <g id="patch_158">
    <path d="M 125.254844 124.579062 
C 125.254844 124.579062 125.254844 124.579062 125.254844 124.579062 
C 125.254844 124.579062 125.254844 124.579062 125.254844 124.579062 
L 68.442143 77.954084 
C 66.916038 79.813649 65.482152 81.74702 64.145665 83.747214 
C 62.809177 85.747409 61.5717 87.812016 60.437701 89.933578 
L 125.254844 124.579062 
z
" clip-path="url(#p9aa753d3e6)" style="fill: none; stroke: #292929; stroke-width: 0.5; stroke-linejoin: miter"/>
   </g>
   <g id="patch_159">
    <path d="M 125.254844 124.579062 
C 125.254844 124.579062 125.254844 124.579062 125.254844 124.579062 
C 125.254844 124.579062 125.254844 124.579062 125.254844 124.579062 
L 79.496039 68.821798 
C 77.671021 70.319552 75.920638 71.906007 74.251213 73.575432 
C 72.581788 75.244857 70.995333 76.99524 69.497579 78.820258 
L 125.254844 124.579062 
z
" clip-path="url(#p9aa753d3e6)" style="fill: none; stroke: #292929; stroke-width: 0.5; stroke-linejoin: miter"/>
   </g>
   <g id="patch_160">
    <path d="M 125.254844 124.579062 
C 125.254844 124.579062 125.254844 124.579062 125.254844 124.579062 
C 125.254844 124.579062 125.254844 124.579062 125.254844 124.579062 
L 98.805516 75.09585 
C 97.185856 75.961576 95.609678 76.906301 94.082674 77.926613 
C 92.555669 78.946925 91.07968 80.041593 89.660037 81.206664 
L 125.254844 124.579062 
z
" clip-path="url(#p9aa753d3e6)" style="fill: none; stroke: #292929; stroke-width: 0.5; stroke-linejoin: miter"/>
   </g>
   <g id="patch_161">
    <path d="M 125.254844 124.579062 
C 125.254844 124.579062 125.254844 124.579062 125.254844 124.579062 
C 125.254844 124.579062 125.254844 124.579062 125.254844 124.579062 
L 102.618389 49.956671 
C 100.175887 50.697596 97.771234 51.557995 95.413116 52.534759 
C 93.054999 53.511523 90.746259 54.603476 88.495236 55.806673 
L 125.254844 124.579062 
z
" clip-path="url(#p9aa753d3e6)" style="fill: none; stroke: #292929; stroke-width: 0.5; stroke-linejoin: miter"/>
   </g>
   <g id="patch_162">
    <path d="M 125.254844 124.579062 
C 125.254844 124.579062 125.254844 124.579062 125.254844 124.579062 
C 125.254844 124.579062 125.254844 124.579062 125.254844 124.579062 
L 117.010288 40.870688 
C 114.270388 41.140545 111.545389 41.54476 108.845133 42.081875 
C 106.144877 42.618989 103.472619 43.288355 100.838012 44.087554 
L 125.254844 124.579062 
z
" clip-path="url(#p9aa753d3e6)" style="fill: none; stroke: #292929; stroke-width: 0.5; stroke-linejoin: miter"/>
   </g>
   <g id="PathCollection_1">
    <defs>
     <path id="m068864ad68" d="M 0.193618 7.414054 
L 0.193618 7.414054 
C 0.054922 7.414054 -0.078235 7.358899 -0.176308 7.260826 
C -0.274381 7.162753 -0.329536 7.029596 -0.329536 6.890901 
L -0.329536 5.365008 
L -1.528416 6.56393 
L -1.528416 6.56393 
C -1.577018 6.612704 -1.634775 6.651408 -1.698366 6.677814 
C -1.761958 6.704221 -1.830141 6.717815 -1.898997 6.717815 
C -1.967853 6.717815 -2.036037 6.704221 -2.099628 6.677814 
C -2.163219 6.651408 -2.220976 6.612704 -2.269578 6.56393 
L -2.269578 6.56393 
C -2.318353 6.515327 -2.357056 6.457571 -2.383463 6.393979 
C -2.409869 6.330388 -2.423463 6.262205 -2.423463 6.193348 
C -2.423463 6.124492 -2.409869 6.056309 -2.383463 5.992718 
C -2.357056 5.929126 -2.318353 5.87137 -2.269578 5.822767 
L -0.329536 3.884106 
L -0.329536 0.820937 
L -2.98067 2.351538 
L -3.691824 5.001416 
L -3.691824 5.001416 
C -3.727584 5.135411 -3.815199 5.249836 -3.93523 5.319305 
C -4.055261 5.388775 -4.198123 5.407741 -4.332122 5.371997 
L -4.332122 5.371997 
C -4.466126 5.336237 -4.580558 5.248616 -4.650029 5.128576 
C -4.719499 5.008535 -4.73846 4.865662 -4.702703 4.731657 
L -4.262647 3.092721 
L -5.585535 3.855668 
L -5.585535 3.855668 
C -5.645013 3.890144 -5.710708 3.912561 -5.778854 3.921634 
C -5.847001 3.930706 -5.916272 3.926258 -5.982698 3.908543 
C -6.049125 3.890828 -6.111412 3.860192 -6.165991 3.818391 
C -6.220571 3.77659 -6.266379 3.724437 -6.300791 3.664922 
L -6.300791 3.664922 
C -6.335212 3.605364 -6.35755 3.539597 -6.366524 3.471396 
C -6.375498 3.403194 -6.370933 3.333888 -6.35309 3.267452 
C -6.335248 3.201017 -6.304476 3.138749 -6.26254 3.08422 
C -6.220605 3.029692 -6.168323 2.983966 -6.108695 2.949666 
L -4.785807 2.186762 
L -6.424743 1.746706 
L -6.424743 1.746706 
C -6.558747 1.710946 -6.673179 1.623325 -6.74265 1.503284 
C -6.81212 1.383244 -6.831081 1.240371 -6.795324 1.106366 
L -6.795324 1.106366 
C -6.777471 1.039969 -6.746703 0.977739 -6.704784 0.923241 
C -6.662864 0.868744 -6.61061 0.823041 -6.551015 0.788752 
C -6.491421 0.754464 -6.425647 0.732257 -6.357465 0.723406 
C -6.289282 0.714554 -6.220019 0.71923 -6.153645 0.737166 
L -3.505232 1.44698 
L -0.852424 -0.08496 
L -3.503767 -1.615666 
L -6.153645 -0.905851 
L -6.153645 -0.905851 
C -6.22011 -0.887939 -6.289462 -0.883321 -6.357716 -0.892262 
C -6.42597 -0.901202 -6.491793 -0.923527 -6.551403 -0.957953 
C -6.611013 -0.992379 -6.663247 -1.038234 -6.705103 -1.092883 
C -6.746958 -1.147533 -6.777619 -1.209911 -6.795324 -1.276432 
L -6.795324 -1.276432 
C -6.831068 -1.410431 -6.812101 -1.553293 -6.742632 -1.673324 
C -6.673162 -1.793355 -6.558738 -1.88097 -6.424743 -1.91673 
L -4.785807 -2.355447 
L -6.108695 -3.119732 
L -6.108695 -3.119732 
C -6.228699 -3.188976 -6.316415 -3.303132 -6.352417 -3.436921 
C -6.388419 -3.57071 -6.369839 -3.713469 -6.300791 -3.833586 
L -6.300791 -3.833586 
C -6.266491 -3.893214 -6.220765 -3.945496 -6.166237 -3.987431 
C -6.111708 -4.029367 -6.04944 -4.060139 -5.983005 -4.077981 
C -5.91657 -4.095823 -5.847263 -4.100389 -5.779062 -4.091415 
C -5.71086 -4.082441 -5.645094 -4.060102 -5.585535 -4.025682 
L -4.262647 -3.261396 
L -4.702703 -4.900332 
L -4.702703 -4.900332 
C -4.73846 -5.034337 -4.719499 -5.17721 -4.650029 -5.29725 
C -4.580558 -5.417291 -4.466126 -5.504912 -4.332122 -5.540672 
L -4.332122 -5.540672 
C -4.19831 -5.576464 -4.055613 -5.557686 -3.935617 -5.488496 
C -3.81562 -5.419305 -3.727882 -5.305212 -3.691824 -5.171472 
L -2.982009 -2.521594 
L -0.329411 -0.990302 
L -0.329411 -4.051588 
L -2.269453 -5.991589 
L -2.269453 -5.991589 
C -2.318227 -6.040191 -2.356931 -6.097947 -2.383337 -6.161539 
C -2.409744 -6.22513 -2.423338 -6.293314 -2.423338 -6.36217 
C -2.423338 -6.431026 -2.409744 -6.499209 -2.383337 -6.5628 
C -2.356931 -6.626392 -2.318227 -6.684149 -2.269453 -6.732751 
L -2.269453 -6.732751 
C -2.22085 -6.781526 -2.163094 -6.820229 -2.099502 -6.846635 
C -2.035911 -6.873042 -1.967728 -6.886636 -1.898871 -6.886636 
C -1.830015 -6.886636 -1.761832 -6.873042 -1.698241 -6.846635 
C -1.634649 -6.820229 -1.576893 -6.781526 -1.52829 -6.732751 
L -0.329411 -5.533829 
L -0.329411 -7.059722 
L -0.329411 -7.059722 
C -0.329411 -7.198418 -0.274255 -7.331575 -0.176182 -7.429647 
C -0.07811 -7.52772 0.055047 -7.582875 0.193743 -7.582875 
L 0.193743 -7.582875 
C 0.332439 -7.582875 0.465596 -7.52772 0.563669 -7.429647 
C 0.661741 -7.331575 0.716897 -7.198418 0.716897 -7.059722 
L 0.716897 -5.533829 
L 1.915777 -6.732751 
L 1.915777 -6.732751 
C 1.964379 -6.781526 2.022136 -6.820229 2.085727 -6.846635 
C 2.149318 -6.873042 2.217502 -6.886636 2.286358 -6.886636 
C 2.355214 -6.886636 2.423397 -6.873042 2.486989 -6.846635 
C 2.55058 -6.820229 2.608337 -6.781526 2.656939 -6.732751 
L 2.656939 -6.732751 
C 2.705714 -6.684149 2.744417 -6.626392 2.770823 -6.5628 
C 2.79723 -6.499209 2.810824 -6.431026 2.810824 -6.36217 
C 2.810824 -6.293314 2.79723 -6.22513 2.770823 -6.161539 
C 2.744417 -6.097947 2.705714 -6.040191 2.656939 -5.991589 
L 0.716897 -4.051588 
L 0.716897 -0.991139 
L 3.369495 -2.522954 
L 4.07931 -5.171367 
L 4.07931 -5.171367 
C 4.115368 -5.305107 4.203106 -5.4192 4.323103 -5.488391 
C 4.4431 -5.557582 4.585797 -5.576359 4.719608 -5.540567 
L 4.719608 -5.540567 
C 4.853612 -5.504807 4.968045 -5.417186 5.037515 -5.297146 
C 5.106986 -5.177105 5.125946 -5.034232 5.090189 -4.900227 
L 4.650133 -3.262673 
L 5.973022 -4.025577 
L 5.973022 -4.025577 
C 6.03258 -4.059998 6.098346 -4.082336 6.166548 -4.09131 
C 6.234749 -4.100284 6.304056 -4.095719 6.370491 -4.077876 
C 6.436926 -4.060034 6.499194 -4.029262 6.553723 -3.987327 
C 6.608252 -3.945391 6.653978 -3.893109 6.688277 -3.833481 
L 6.688277 -3.833481 
C 6.757325 -3.713365 6.775905 -3.570605 6.739903 -3.436816 
C 6.703901 -3.303027 6.616186 -3.188871 6.496181 -3.119628 
L 5.173293 -2.355342 
L 6.812229 -1.916625 
L 6.812229 -1.916625 
C 6.946224 -1.880865 7.060649 -1.79325 7.130118 -1.67322 
C 7.199588 -1.553189 7.218554 -1.410326 7.18281 -1.276327 
L 7.18281 -1.276327 
C 7.165106 -1.209806 7.134445 -1.147429 7.092589 -1.092779 
C 7.050733 -1.038129 6.998499 -0.992274 6.938889 -0.957848 
C 6.879279 -0.923422 6.813456 -0.901098 6.745202 -0.892157 
C 6.676949 -0.883217 6.607597 -0.887835 6.541131 -0.905746 
L 3.891253 -1.615561 
L 1.239492 -0.084604 
L 3.892718 1.447085 
L 6.541131 0.73727 
L 6.541131 0.73727 
C 6.674948 0.701466 6.817656 0.720237 6.937662 0.789429 
C 7.057669 0.858621 7.145413 0.972721 7.181471 1.10647 
L 7.181471 1.10647 
C 7.217274 1.240293 7.198497 1.383006 7.129297 1.503014 
C 7.060096 1.623021 6.945986 1.710762 6.812229 1.74681 
L 5.173293 2.186866 
L 6.496181 2.949771 
L 6.496181 2.949771 
C 6.555697 2.984183 6.607849 3.029991 6.649651 3.08457 
C 6.691452 3.13915 6.722088 3.201437 6.739803 3.267863 
C 6.757517 3.33429 6.761966 3.403561 6.752893 3.471707 
C 6.743821 3.539854 6.721404 3.605549 6.686927 3.665026 
L 6.686927 3.665026 
C 6.617458 3.784813 6.503196 3.87225 6.369416 3.907994 
C 6.235636 3.943739 6.092989 3.924946 5.973032 3.855772 
L 4.650144 3.091487 
L 5.08886 4.731783 
L 5.08886 4.731783 
C 5.124664 4.865606 5.105887 5.008319 5.036686 5.128326 
C 4.967486 5.248334 4.853376 5.336074 4.719619 5.372123 
L 4.719619 5.372123 
C 4.585619 5.407867 4.442757 5.3889 4.322726 5.319431 
C 4.202695 5.249961 4.115081 5.135537 4.07932 5.001542 
L 3.368166 2.351664 
L 0.717033 0.821063 
L 0.717033 3.884232 
L 2.657075 5.822893 
L 2.657075 5.822893 
C 2.70585 5.871495 2.744553 5.929252 2.770959 5.992843 
C 2.797366 6.056435 2.81096 6.124618 2.81096 6.193474 
C 2.81096 6.26233 2.797366 6.330514 2.770959 6.394105 
C 2.744553 6.457696 2.70585 6.515453 2.657075 6.564055 
L 2.657075 6.564055 
C 2.608473 6.61283 2.550716 6.651533 2.487125 6.67794 
C 2.423533 6.704346 2.35535 6.71794 2.286494 6.71794 
C 2.217638 6.71794 2.149454 6.704346 2.085863 6.67794 
C 2.022272 6.651533 1.964515 6.61283 1.915913 6.564055 
L 0.717033 5.365133 
L 0.717033 6.891026 
L 0.717033 6.891026 
C 0.717033 7.029722 0.661877 7.162879 0.563805 7.260952 
C 0.465732 7.359024 0.332575 7.41418 0.193879 7.41418 
L 0.193618 7.414054 
z
"/>
    </defs>
    <g clip-path="url(#p9aa753d3e6)">
     <use xlink:href="#m068864ad68" x="106.991751" y="125.843134" style="fill: #9e2096; fill-opacity: 0.7"/>
    </g>
   </g>
   <g id="patch_163">
    <path d="M 125.254844 13.699062 
C 110.694216 13.699062 96.275171 16.567189 82.822905 22.1393 
C 69.370638 27.711411 57.146763 35.879144 46.850844 46.175063 
C 36.554925 56.470982 28.387192 68.694857 22.815081 82.147124 
C 17.24297 95.59939 14.374844 110.018434 14.374844 124.579062 
C 14.374844 139.139691 17.24297 153.558735 22.815081 167.011001 
C 28.387192 180.463268 36.554925 192.687143 46.850844 202.983062 
C 57.146763 213.278981 69.370638 221.446714 82.822905 227.018825 
C 96.275171 232.590936 110.694216 235.459062 125.254844 235.459062 
C 139.815472 235.459062 154.234516 232.590936 167.686783 227.018825 
C 181.139049 221.446714 193.362925 213.278981 203.658844 202.983062 
C 213.954763 192.687143 222.122495 180.463268 227.694606 167.011001 
C 233.266717 153.558735 236.134844 139.139691 236.134844 124.579062 
C 236.134844 110.018434 233.266717 95.59939 227.694606 82.147124 
C 222.122495 68.694857 213.954763 56.470982 203.658844 46.175063 
C 193.362925 35.879144 181.139049 27.711411 167.686783 22.1393 
C 154.234516 16.567189 139.815472 13.699062 125.254844 13.699062 
" style="fill: none; stroke: #000000; stroke-width: 0.8; stroke-linejoin: miter; stroke-linecap: square"/>
   </g>
  </g>
 </g>
 <defs>
  <clipPath id="p9aa753d3e6">
   <path d="M 236.134844 124.579062 
C 236.134844 110.018434 233.266717 95.59939 227.694606 82.147124 
C 222.122495 68.694857 213.954763 56.470982 203.658844 46.175063 
C 193.362925 35.879144 181.139049 27.711411 167.686783 22.1393 
C 154.234516 16.567189 139.815472 13.699062 125.254844 13.699062 
C 110.694216 13.699062 96.275171 16.567189 82.822905 22.1393 
C 69.370638 27.711411 57.146763 35.879144 46.850844 46.175063 
C 36.554925 56.470982 28.387192 68.694857 22.815081 82.147124 
C 17.24297 95.59939 14.374844 110.018434 14.374844 124.579062 
C 14.374844 139.139691 17.24297 153.558735 22.815081 167.011001 
C 28.387192 180.463268 36.554925 192.687143 46.850844 202.983062 
C 57.146763 213.278981 69.370638 221.446714 82.822905 227.018825 
C 96.275171 232.590936 110.694216 235.459062 125.254844 235.459062 
C 139.815472 235.459062 154.234516 232.590936 167.686783 227.018825 
C 181.139049 221.446714 193.362925 213.278981 203.658844 202.983062 
C 213.954763 192.687143 222.122495 180.463268 227.694606 167.011001 
C 233.266717 153.558735 236.134844 139.139691 236.134844 124.579063 
M 125.254844 124.579062 
C 125.254844 124.579062 125.254844 124.579062 125.254844 124.579062 
C 125.254844 124.579062 125.254844 124.579062 125.254844 124.579062 
C 125.254844 124.579062 125.254844 124.579062 125.254844 124.579062 
C 125.254844 124.579062 125.254844 124.579062 125.254844 124.579062 
C 125.254844 124.579062 125.254844 124.579062 125.254844 124.579062 
C 125.254844 124.579062 125.254844 124.579062 125.254844 124.579062 
C 125.254844 124.579062 125.254844 124.579062 125.254844 124.579062 
C 125.254844 124.579062 125.254844 124.579062 125.254844 124.579062 
C 125.254844 124.579062 125.254844 124.579062 125.254844 124.579062 
C 125.254844 124.579062 125.254844 124.579062 125.254844 124.579062 
C 125.254844 124.579062 125.254844 124.579062 125.254844 124.579062 
C 125.254844 124.579062 125.254844 124.579062 125.254844 124.579062 
C 125.254844 124.579062 125.254844 124.579062 125.254844 124.579062 
C 125.254844 124.579062 125.254844 124.579062 125.254844 124.579062 
C 125.254844 124.579062 125.254844 124.579062 125.254844 124.579062 
C 125.254844 124.579062 125.254844 124.579062 125.254844 124.579062 
z
"/>
  </clipPath>
 </defs>
</svg>
