<?xml version="1.0" encoding="utf-8" standalone="no"?>
<!DOCTYPE svg PUBLIC "-//W3C//DTD SVG 1.1//EN"
  "http://www.w3.org/Graphics/SVG/1.1/DTD/svg11.dtd">
<svg xmlns:xlink="http://www.w3.org/1999/xlink" width="248.410469pt" height="249.158125pt" viewBox="0 0 248.410469 249.158125" xmlns="http://www.w3.org/2000/svg" version="1.1">
 <title>Ski Rose for Skiarena Steibis</title>
 <metadata>
  <rdf:RDF xmlns:dc="http://purl.org/dc/elements/1.1/" xmlns:cc="http://creativecommons.org/ns#" xmlns:rdf="http://www.w3.org/1999/02/22-rdf-syntax-ns#">
   <cc:Work>
    <dc:type rdf:resource="http://purl.org/dc/dcmitype/StillImage"/>
    <dc:title>Ski Rose for Skiarena Steibis</dc:title>
    <dc:date>2025-11-29T10:20:32.545904</dc:date>
    <dc:description>A 32-bin stacked histogram of downhill ski run orientations colored by difficulty.</dc:description>
    <dc:format>image/svg+xml</dc:format>
    <dc:source>https://openskimap.org/?obj=71adb82590d35e6b256c14d2cb266024f2723c27</dc:source>
    <dc:creator>
     <cc:Agent>
      <dc:title>https://github.com/dhimmel/openskistats</dc:title>
     </cc:Agent>
    </dc:creator>
    <dc:rights>
     <cc:Agent>
      <dc:title>https://creativecommons.org/licenses/by/4.0/</dc:title>
     </cc:Agent>
    </dc:rights>
   </cc:Work>
  </rdf:RDF>
 </metadata>
 <defs>
  <style type="text/css">*{stroke-linejoin: round; stroke-linecap: butt}</style>
 </defs>
 <g id="figure_1">
  <g id="patch_1">
   <path d="M 0 249.158125 
L 248.410469 249.158125 
L 248.410469 0 
L 0 0 
z
" style="fill: #ffffff"/>
  </g>
  <g id="axes_1">
   <g id="patch_2">
    <path d="M 236.134844 124.579063 
C 236.134844 110.018434 233.266717 95.59939 227.694606 82.147124 
C 222.122495 68.694857 213.954763 56.470982 203.658844 46.175063 
C 193.362925 35.879144 181.139049 27.711411 167.686783 22.1393 
C 154.234516 16.567189 139.815472 13.699063 125.254844 13.699063 
C 110.694216 13.699063 96.275171 16.567189 82.822905 22.1393 
C 69.370638 27.711411 57.146763 35.879144 46.850844 46.175063 
C 36.554925 56.470982 28.387192 68.694857 22.815081 82.147124 
C 17.24297 95.59939 14.374844 110.018434 14.374844 124.579062 
C 14.374844 139.139691 17.24297 153.558735 22.815081 167.011001 
C 28.387192 180.463268 36.554925 192.687143 46.850844 202.983062 
C 57.146763 213.278981 69.370638 221.446714 82.822905 227.018825 
C 96.275171 232.590936 110.694216 235.459063 125.254844 235.459063 
C 139.815472 235.459063 154.234516 232.590936 167.686783 227.018825 
C 181.139049 221.446714 193.362925 213.278981 203.658844 202.983062 
C 213.954763 192.687143 222.122495 180.463268 227.694606 167.011001 
C 233.266717 153.558735 236.134844 139.139691 236.134844 124.579063 
M 125.254844 124.579063 
C 125.254844 124.579063 125.254844 124.579063 125.254844 124.579063 
C 125.254844 124.579063 125.254844 124.579063 125.254844 124.579063 
C 125.254844 124.579063 125.254844 124.579063 125.254844 124.579063 
C 125.254844 124.579063 125.254844 124.579063 125.254844 124.579063 
C 125.254844 124.579063 125.254844 124.579063 125.254844 124.579063 
C 125.254844 124.579063 125.254844 124.579063 125.254844 124.579063 
C 125.254844 124.579063 125.254844 124.579063 125.254844 124.579063 
C 125.254844 124.579063 125.254844 124.579063 125.254844 124.579063 
C 125.254844 124.579063 125.254844 124.579063 125.254844 124.579063 
C 125.254844 124.579063 125.254844 124.579063 125.254844 124.579063 
C 125.254844 124.579063 125.254844 124.579063 125.254844 124.579063 
C 125.254844 124.579063 125.254844 124.579063 125.254844 124.579063 
C 125.254844 124.579063 125.254844 124.579063 125.254844 124.579063 
C 125.254844 124.579063 125.254844 124.579063 125.254844 124.579063 
C 125.254844 124.579063 125.254844 124.579063 125.254844 124.579063 
C 125.254844 124.579063 125.254844 124.579063 125.254844 124.579063 
z
" style="fill: #ffffff"/>
   </g>
   <g id="FillBetweenPolyCollection_1">
    <defs>
     <path id="m2b730f6eed" d="M 235.334468 -137.121051 
L 234.620924 -137.039753 
L 233.894019 -135.039825 
L 233.099107 -133.06659 
L 232.047954 -131.110809 
L 231.143522 -129.202262 
L 229.992616 -127.321718 
L 229.004484 -125.484472 
L 227.77499 -123.684383 
L 226.716496 -121.922196 
L 225.626353 -120.196748 
L 224.30058 -118.521166 
L 223.15247 -116.874352 
L 221.772751 -115.285445 
L 220.573445 -113.71888 
L 219.350533 -112.19113 
L 218.105399 -110.702454 
L 216.637765 -109.286806 
L 215.353434 -107.880276 
L 214.051067 -106.513267 
L 212.731995 -105.185845 
L 211.397537 -103.898032 
L 210.049007 -102.649801 
L 208.687709 -101.441081 
L 207.314944 -100.271753 
L 205.932 -99.141653 
L 204.54016 -98.050567 
L 203.140695 -96.998236 
L 201.73487 -95.984353 
L 200.503461 -94.937844 
L 199.086038 -93.99718 
L 197.665857 -93.093858 
L 196.415773 -92.149159 
L 194.990758 -91.316738 
L 193.73245 -90.437388 
L 192.306899 -89.673972 
L 191.04422 -88.858346 
L 189.779277 -88.072895 
L 188.512903 -87.317218 
L 187.09511 -86.683299 
L 185.831508 -85.987472 
L 184.568948 -85.319914 
L 183.308191 -84.680102 
L 182.04998 -84.067485 
L 180.795034 -83.481484 
L 179.54405 -82.921489 
L 178.297702 -82.386868 
L 177.056639 -81.876958 
L 175.821484 -81.391072 
L 174.708915 -80.825796 
L 173.483581 -80.385567 
L 172.26582 -79.967312 
L 171.161375 -79.46684 
L 169.95642 -79.090408 
L 168.858504 -78.630391 
L 167.668067 -78.293151 
L 166.578225 -77.871477 
L 165.403795 -77.57068 
L 164.32338 -77.185138 
L 163.166215 -76.917937 
L 162.096379 -76.566239 
L 161.030539 -76.230985 
L 159.899178 -76.009497 
L 158.845271 -75.704687 
L 157.795957 -75.414803 
L 156.751397 -75.139377 
L 155.711732 -74.877937 
L 154.623892 -74.720312 
L 153.597435 -74.483702 
L 152.576114 -74.259543 
L 151.559979 -74.047368 
L 150.549058 -73.846718 
L 149.543358 -73.657134 
L 148.542863 -73.478168 
L 147.547538 -73.309375 
L 146.557326 -73.150322 
L 145.572148 -73.000581 
L 144.591907 -72.859738 
L 143.639374 -72.662751 
L 142.666366 -72.541506 
L 141.697984 -72.428085 
L 140.734055 -72.32212 
L 139.774392 -72.223262 
L 138.81879 -72.131175 
L 137.867026 -72.045543 
L 136.928392 -71.923089 
L 135.982069 -71.853066 
L 135.038954 -71.788729 
L 134.098772 -71.729832 
L 133.161236 -71.676156 
L 132.229446 -71.6017 
L 131.295406 -71.561725 
L 130.363226 -71.52648 
L 129.432585 -71.49583 
L 128.503861 -71.458092 
L 127.574934 -71.440269 
L 126.646685 -71.426796 
L 125.718777 -71.417631 
L 124.790908 -71.41733 
L 123.863059 -71.428952 
L 122.934942 -71.444577 
L 122.006221 -71.464546 
L 121.076559 -71.488922 
L 120.147424 -71.536481 
L 119.215661 -71.573836 
L 118.282111 -71.615902 
L 117.346461 -71.662835 
L 116.413865 -71.747456 
L 115.474375 -71.808377 
L 114.532022 -71.874711 
L 113.586529 -71.946697 
L 112.648631 -72.070408 
L 111.697819 -72.157939 
L 110.743234 -72.251887 
L 109.78465 -72.352565 
L 108.821863 -72.460306 
L 107.854681 -72.575458 
L 106.882933 -72.698386 
L 105.931484 -72.896388 
L 104.952603 -73.038823 
L 103.968839 -73.190102 
L 102.980092 -73.35064 
L 101.986281 -73.520861 
L 100.987347 -73.701198 
L 99.983253 -73.892093 
L 98.973981 -74.093995 
L 97.959537 -74.30736 
L 96.939945 -74.532649 
L 95.915255 -74.770324 
L 94.829525 -74.929455 
L 93.7917 -75.19182 
L 92.749012 -75.468107 
L 91.701598 -75.758786 
L 90.649618 -76.064326 
L 89.520541 -76.286924 
L 88.45668 -76.622761 
L 87.388844 -76.974977 
L 86.23404 -77.243042 
L 85.155665 -77.628957 
L 84.074115 -78.032716 
L 82.895868 -78.352352 
L 81.805568 -78.793079 
L 80.612046 -79.150222 
L 79.409551 -79.527019 
L 78.30722 -80.027431 
L 77.091936 -80.445888 
L 75.869086 -80.886235 
L 74.758646 -81.451236 
L 73.525982 -81.937079 
L 72.287411 -82.446864 
L 71.043556 -82.981279 
L 69.795064 -83.540984 
L 68.542606 -84.126616 
L 67.286879 -84.738784 
L 66.028603 -85.378069 
L 64.768516 -86.045022 
L 63.507379 -86.740168 
L 62.245973 -87.464001 
L 60.828485 -88.128382 
L 59.565979 -88.912919 
L 58.305726 -89.727558 
L 56.88296 -90.490099 
L 55.627053 -91.36831 
L 54.204799 -92.199692 
L 52.957089 -93.143104 
L 51.539642 -94.045226 
L 50.304089 -95.055175 
L 48.895859 -96.029608 
L 47.492726 -97.042052 
L 46.095939 -98.092863 
L 44.706761 -99.18235 
L 43.516738 -100.367132 
L 42.148523 -101.53164 
L 40.791639 -102.735392 
L 39.44738 -103.978513 
L 38.117052 -105.261079 
L 36.603309 -106.542704 
L 35.303476 -107.907562 
L 34.021655 -109.311863 
L 32.75918 -110.755493 
L 31.517398 -112.238294 
L 30.093754 -113.736826 
L 28.896835 -115.300842 
L 27.724888 -116.903289 
L 26.37405 -118.531254 
L 25.256288 -120.213031 
L 24.168158 -121.932014 
L 22.906374 -123.685881 
L 21.883272 -125.481173 
L 20.69247 -127.317125 
L 19.744413 -129.185747 
L 18.838252 -131.08778 
L 17.782492 -133.03732 
L 16.980272 -135.004718 
L 16.058798 -137.02038 
L 15.402758 -139.041364 
L 15.402758 -139.041364 
L 15.402758 -139.041364 
L 15.09494 -137.130198 
L 14.922244 -135.202884 
L 14.782443 -133.273429 
L 14.749985 -131.337829 
L 14.499473 -129.414746 
L 14.458032 -127.480379 
L 14.448943 -125.546051 
L 14.549355 -123.61295 
L 14.427909 -121.676957 
L 14.515132 -119.744062 
L 14.633509 -117.813172 
L 14.864004 -115.891115 
L 14.951217 -113.958031 
L 15.164348 -112.035835 
L 15.407526 -110.117389 
L 15.680547 -108.203074 
L 15.897511 -106.278921 
L 16.232355 -104.372938 
L 16.767099 -102.506981 
L 17.080293 -100.597342 
L 17.505629 -98.710765 
L 17.960982 -96.830983 
L 18.446507 -94.958489 
L 18.962353 -93.093792 
L 19.508672 -91.237423 
L 20.176075 -89.420198 
L 20.783479 -87.583812 
L 21.421699 -85.757441 
L 22.090959 -83.941728 
L 22.854703 -82.163535 
L 23.586176 -80.372267 
L 24.412145 -78.622397 
L 25.209277 -76.859775 
L 26.040468 -75.112599 
L 26.906361 -73.382083 
L 27.874341 -71.705763 
L 28.750584 -69.979579 
L 29.731959 -68.311784 
L 30.750965 -66.667011 
L 31.764544 -65.019173 
L 32.802382 -63.386113 
L 33.899762 -61.792455 
L 34.986898 -60.191562 
L 36.528382 -58.924934 
L 38.331062 -57.880099 
L 40.159215 -56.890943 
L 41.940732 -55.900209 
L 43.787768 -54.999607 
L 45.58345 -54.091768 
L 47.439301 -53.274255 
L 49.237129 -52.440945 
L 51.034008 -51.64245 
L 52.877299 -50.927138 
L 54.66691 -50.194901 
L 56.452198 -49.49415 
L 58.232351 -48.823915 
L 60.006654 -48.183248 
L 61.73431 -47.522494 
L 63.496814 -46.938579 
L 65.251766 -46.38153 
L 66.959944 -45.798027 
L 68.700262 -45.292463 
L 70.400107 -44.764925 
L 72.124324 -44.307603 
L 73.807275 -43.822555 
L 75.514372 -43.40999 
L 77.186519 -42.975241 
L 78.84866 -42.55641 
L 80.50733 -42.164394 
L 82.155864 -41.786692 
L 83.800576 -41.434663 
L 85.435167 -41.095374 
L 87.065705 -40.780645 
L 88.68628 -40.477125 
L 90.285862 -40.156473 
L 91.896577 -39.894168 
L 93.497784 -39.640947 
L 95.094803 -39.409735 
L 96.67332 -39.157892 
L 98.256089 -38.949954 
L 99.825243 -38.730169 
L 101.398988 -38.557627 
L 102.959218 -38.368274 
L 104.520642 -38.214895 
L 106.072773 -38.054333 
L 107.626556 -37.933259 
L 109.171327 -37.800174 
L 110.713121 -37.681156 
L 112.253947 -37.58803 
L 113.789972 -37.494714 
L 115.323725 -37.414755 
L 116.856856 -37.362626 
L 118.386396 -37.307159 
L 119.91446 -37.264556 
L 121.441307 -37.234706 
L 122.967187 -37.216991 
L 124.492391 -37.210646 
L 126.017282 -37.21232 
L 127.542584 -37.213793 
L 129.068536 -37.231149 
L 130.595435 -37.261174 
L 132.123544 -37.303954 
L 133.653751 -37.353075 
L 135.185363 -37.420013 
L 136.719004 -37.500122 
L 138.25491 -37.593586 
L 139.796947 -37.678882 
L 141.338749 -37.798077 
L 142.886959 -37.914448 
L 144.435553 -38.060473 
L 145.987542 -38.22116 
L 147.550821 -38.366915 
L 149.111028 -38.556439 
L 150.682476 -38.736814 
L 152.25147 -38.956702 
L 153.836585 -39.157242 
L 155.425442 -39.379922 
L 157.009264 -39.648006 
L 158.613165 -39.894029 
L 160.220824 -40.163718 
L 161.820227 -40.484438 
L 163.443827 -40.780986 
L 165.070962 -41.102834 
L 166.708787 -41.435315 
L 168.349879 -41.79427 
L 170.001845 -42.165339 
L 171.656689 -42.564079 
L 173.322451 -42.976458 
L 175.021364 -43.367482 
L 176.697469 -43.830316 
L 178.384304 -44.309204 
L 180.108393 -44.766653 
L 181.803872 -45.300248 
L 183.543983 -45.805812 
L 185.256356 -46.38357 
L 187.011171 -46.940719 
L 188.773536 -47.524727 
L 190.496471 -48.190931 
L 192.270577 -48.831556 
L 194.050535 -49.50174 
L 195.835649 -50.202413 
L 197.625098 -50.934557 
L 199.472992 -51.645091 
L 201.269734 -52.443626 
L 203.067429 -53.276965 
L 204.918398 -54.098703 
L 206.713989 -55.00638 
L 208.565637 -55.902944 
L 210.347074 -56.893647 
L 212.170714 -57.886169 
L 213.977846 -58.927494 
L 215.520609 -60.193118 
L 216.626021 -61.781392 
L 217.712223 -63.382858 
L 218.725428 -65.031733 
L 219.791842 -66.646716 
L 220.779508 -68.310735 
L 221.709313 -70.00775 
L 222.650357 -71.697613 
L 223.537423 -73.41639 
L 224.375491 -75.159331 
L 225.306292 -76.85697 
L 226.143196 -78.601592 
L 226.908962 -80.378594 
L 227.67916 -82.153521 
L 228.402143 -83.948261 
L 229.07799 -85.761179 
L 229.706827 -87.590675 
L 230.394023 -89.399985 
L 230.985961 -91.242169 
L 231.477133 -93.114587 
L 232.087527 -94.951737 
L 232.489147 -96.846386 
L 232.986668 -98.71494 
L 233.47455 -100.587331 
L 233.899962 -102.474963 
L 234.154785 -104.395651 
L 234.505456 -106.29678 
L 234.83261 -108.202556 
L 235.11993 -110.115049 
L 235.368016 -112.033251 
L 235.574444 -113.956493 
L 235.748082 -115.883056 
L 235.884104 -117.812687 
L 235.984631 -119.744496 
L 236.050716 -121.67777 
L 236.079864 -123.611907 
L 236.073531 -125.546163 
L 236.032482 -127.479877 
L 235.961217 -129.412607 
L 235.852698 -131.343517 
L 235.711422 -133.272184 
L 235.540267 -135.198341 
L 235.334468 -137.121051 
z
" style="stroke: #ffee9c"/>
    </defs>
    <g clip-path="url(#p167d99ab18)">
     <use xlink:href="#m2b730f6eed" x="0" y="249.158125" style="fill: #ffee9c; stroke: #ffee9c"/>
    </g>
   </g>
   <g id="matplotlib.axis_1">
    <g id="xtick_1">
     <g id="line2d_1">
      <path d="M 125.254844 124.579063 
L 125.254844 13.699063 
" clip-path="url(#p167d99ab18)" style="fill: none; stroke: #b0b0b0; stroke-width: 0.8; stroke-linecap: square"/>
     </g>
     <g id="text_1">
      <!-- N -->
      <g transform="translate(121.070469 7.958438) scale(0.1 -0.1)">
       <defs>
        <path id="DejaVuSans-Bold-4e" d="M 588 4666 
L 1931 4666 
L 3628 1466 
L 3628 4666 
L 4769 4666 
L 4769 0 
L 3425 0 
L 1728 3200 
L 1728 0 
L 588 0 
L 588 4666 
z
" transform="scale(0.015625)"/>
       </defs>
       <use xlink:href="#DejaVuSans-Bold-4e"/>
      </g>
     </g>
    </g>
    <g id="xtick_2">
     <g id="line2d_2">
      <path d="M 125.254844 124.579063 
L 203.658844 46.175063 
" clip-path="url(#p167d99ab18)" style="fill: none; stroke: #b0b0b0; stroke-width: 0.8; stroke-linecap: square"/>
     </g>
    </g>
    <g id="xtick_3">
     <g id="line2d_3">
      <path d="M 125.254844 124.579063 
L 236.134844 124.579063 
" clip-path="url(#p167d99ab18)" style="fill: none; stroke: #b0b0b0; stroke-width: 0.8; stroke-linecap: square"/>
     </g>
     <g id="text_2">
      <!-- E -->
      <g transform="translate(241.219219 127.338438) scale(0.1 -0.1)">
       <defs>
        <path id="DejaVuSans-Bold-45" d="M 588 4666 
L 3834 4666 
L 3834 3756 
L 1791 3756 
L 1791 2888 
L 3713 2888 
L 3713 1978 
L 1791 1978 
L 1791 909 
L 3903 909 
L 3903 0 
L 588 0 
L 588 4666 
z
" transform="scale(0.015625)"/>
       </defs>
       <use xlink:href="#DejaVuSans-Bold-45"/>
      </g>
     </g>
    </g>
    <g id="xtick_4">
     <g id="line2d_4">
      <path d="M 125.254844 124.579063 
L 203.658844 202.983062 
" clip-path="url(#p167d99ab18)" style="fill: none; stroke: #b0b0b0; stroke-width: 0.8; stroke-linecap: square"/>
     </g>
    </g>
    <g id="xtick_5">
     <g id="line2d_5">
      <path d="M 125.254844 124.579063 
L 125.254844 235.459063 
" clip-path="url(#p167d99ab18)" style="fill: none; stroke: #b0b0b0; stroke-width: 0.8; stroke-linecap: square"/>
     </g>
     <g id="text_3">
      <!-- S -->
      <g transform="translate(121.654062 246.718438) scale(0.1 -0.1)">
       <defs>
        <path id="DejaVuSans-Bold-53" d="M 3834 4519 
L 3834 3531 
Q 3450 3703 3084 3790 
Q 2719 3878 2394 3878 
Q 1963 3878 1756 3759 
Q 1550 3641 1550 3391 
Q 1550 3203 1689 3098 
Q 1828 2994 2194 2919 
L 2706 2816 
Q 3484 2659 3812 2340 
Q 4141 2022 4141 1434 
Q 4141 663 3683 286 
Q 3225 -91 2284 -91 
Q 1841 -91 1394 -6 
Q 947 78 500 244 
L 500 1259 
Q 947 1022 1364 901 
Q 1781 781 2169 781 
Q 2563 781 2772 912 
Q 2981 1044 2981 1288 
Q 2981 1506 2839 1625 
Q 2697 1744 2272 1838 
L 1806 1941 
Q 1106 2091 782 2419 
Q 459 2747 459 3303 
Q 459 4000 909 4375 
Q 1359 4750 2203 4750 
Q 2588 4750 2994 4692 
Q 3400 4634 3834 4519 
z
" transform="scale(0.015625)"/>
       </defs>
       <use xlink:href="#DejaVuSans-Bold-53"/>
      </g>
     </g>
    </g>
    <g id="xtick_6">
     <g id="line2d_6">
      <path d="M 125.254844 124.579063 
L 46.850844 202.983062 
" clip-path="url(#p167d99ab18)" style="fill: none; stroke: #b0b0b0; stroke-width: 0.8; stroke-linecap: square"/>
     </g>
    </g>
    <g id="xtick_7">
     <g id="line2d_7">
      <path d="M 125.254844 124.579063 
L 14.374844 124.579063 
" clip-path="url(#p167d99ab18)" style="fill: none; stroke: #b0b0b0; stroke-width: 0.8; stroke-linecap: square"/>
     </g>
     <g id="text_4">
      <!-- W -->
      <g transform="translate(0.36 127.338438) scale(0.1 -0.1)">
       <defs>
        <path id="DejaVuSans-Bold-57" d="M 191 4666 
L 1344 4666 
L 2150 1275 
L 2950 4666 
L 4109 4666 
L 4909 1275 
L 5716 4666 
L 6859 4666 
L 5759 0 
L 4372 0 
L 3525 3547 
L 2688 0 
L 1300 0 
L 191 4666 
z
" transform="scale(0.015625)"/>
       </defs>
       <use xlink:href="#DejaVuSans-Bold-57"/>
      </g>
     </g>
    </g>
    <g id="xtick_8">
     <g id="line2d_8">
      <path d="M 125.254844 124.579063 
L 46.850844 46.175063 
" clip-path="url(#p167d99ab18)" style="fill: none; stroke: #b0b0b0; stroke-width: 0.8; stroke-linecap: square"/>
     </g>
    </g>
   </g>
   <g id="matplotlib.axis_2"/>
   <g id="patch_3">
    <path d="M 125.254844 124.579063 
C 125.254844 124.579063 125.254844 124.579063 125.254844 124.579063 
C 125.254844 124.579063 125.254844 124.579063 125.254844 124.579063 
L 125.254844 124.579063 
C 125.254844 124.579063 125.254844 124.579063 125.254844 124.579063 
C 125.254844 124.579063 125.254844 124.579063 125.254844 124.579063 
z
" clip-path="url(#p167d99ab18)" style="fill: #d9d9d9"/>
   </g>
   <g id="patch_4">
    <path d="M 125.254844 124.579063 
C 125.254844 124.579063 125.254844 124.579063 125.254844 124.579063 
C 125.254844 124.579063 125.254844 124.579063 125.254844 124.579063 
L 125.254844 124.579063 
C 125.254844 124.579063 125.254844 124.579063 125.254844 124.579063 
C 125.254844 124.579063 125.254844 124.579063 125.254844 124.579063 
z
" clip-path="url(#p167d99ab18)" style="fill: #d9d9d9"/>
   </g>
   <g id="patch_5">
    <path d="M 125.254844 124.579063 
C 125.254844 124.579063 125.254844 124.579063 125.254844 124.579063 
C 125.254844 124.579063 125.254844 124.579063 125.254844 124.579063 
L 125.254844 124.579063 
C 125.254844 124.579063 125.254844 124.579063 125.254844 124.579063 
C 125.254844 124.579063 125.254844 124.579063 125.254844 124.579063 
z
" clip-path="url(#p167d99ab18)" style="fill: #d9d9d9"/>
   </g>
   <g id="patch_6">
    <path d="M 125.254844 124.579063 
C 125.254844 124.579063 125.254844 124.579063 125.254844 124.579063 
C 125.254844 124.579063 125.254844 124.579063 125.254844 124.579063 
L 125.254844 124.579063 
C 125.254844 124.579063 125.254844 124.579063 125.254844 124.579063 
C 125.254844 124.579063 125.254844 124.579063 125.254844 124.579063 
z
" clip-path="url(#p167d99ab18)" style="fill: #d9d9d9"/>
   </g>
   <g id="patch_7">
    <path d="M 125.254844 124.579063 
C 125.254844 124.579063 125.254844 124.579063 125.254844 124.579063 
C 125.254844 124.579063 125.254844 124.579063 125.254844 124.579063 
L 125.254844 124.579063 
C 125.254844 124.579063 125.254844 124.579063 125.254844 124.579063 
C 125.254844 124.579063 125.254844 124.579063 125.254844 124.579063 
z
" clip-path="url(#p167d99ab18)" style="fill: #d9d9d9"/>
   </g>
   <g id="patch_8">
    <path d="M 125.254844 124.579063 
C 125.254844 124.579063 125.254844 124.579063 125.254844 124.579063 
C 125.254844 124.579063 125.254844 124.579063 125.254844 124.579063 
L 125.254844 124.579063 
C 125.254844 124.579063 125.254844 124.579063 125.254844 124.579063 
C 125.254844 124.579063 125.254844 124.579063 125.254844 124.579063 
z
" clip-path="url(#p167d99ab18)" style="fill: #d9d9d9"/>
   </g>
   <g id="patch_9">
    <path d="M 125.254844 124.579063 
C 125.254844 124.579063 125.254844 124.579063 125.254844 124.579063 
C 125.254844 124.579063 125.254844 124.579063 125.254844 124.579063 
L 125.254844 124.579063 
C 125.254844 124.579063 125.254844 124.579063 125.254844 124.579063 
C 125.254844 124.579063 125.254844 124.579063 125.254844 124.579063 
z
" clip-path="url(#p167d99ab18)" style="fill: #d9d9d9"/>
   </g>
   <g id="patch_10">
    <path d="M 125.254844 124.579063 
C 125.254844 124.579063 125.254844 124.579063 125.254844 124.579063 
C 125.254844 124.579063 125.254844 124.579063 125.254844 124.579063 
L 125.254844 124.579063 
C 125.254844 124.579063 125.254844 124.579063 125.254844 124.579063 
C 125.254844 124.579063 125.254844 124.579063 125.254844 124.579063 
z
" clip-path="url(#p167d99ab18)" style="fill: #d9d9d9"/>
   </g>
   <g id="patch_11">
    <path d="M 125.254844 124.579063 
C 125.254844 124.579063 125.254844 124.579063 125.254844 124.579063 
C 125.254844 124.579063 125.254844 124.579063 125.254844 124.579063 
L 125.254844 124.579063 
C 125.254844 124.579063 125.254844 124.579063 125.254844 124.579063 
C 125.254844 124.579063 125.254844 124.579063 125.254844 124.579063 
z
" clip-path="url(#p167d99ab18)" style="fill: #d9d9d9"/>
   </g>
   <g id="patch_12">
    <path d="M 125.254844 124.579063 
C 125.254844 124.579063 125.254844 124.579063 125.254844 124.579063 
C 125.254844 124.579063 125.254844 124.579063 125.254844 124.579063 
L 125.254844 124.579063 
C 125.254844 124.579063 125.254844 124.579063 125.254844 124.579063 
C 125.254844 124.579063 125.254844 124.579063 125.254844 124.579063 
z
" clip-path="url(#p167d99ab18)" style="fill: #d9d9d9"/>
   </g>
   <g id="patch_13">
    <path d="M 125.254844 124.579063 
C 125.254844 124.579063 125.254844 124.579063 125.254844 124.579063 
C 125.254844 124.579063 125.254844 124.579063 125.254844 124.579063 
L 125.254844 124.579063 
C 125.254844 124.579063 125.254844 124.579063 125.254844 124.579063 
C 125.254844 124.579063 125.254844 124.579063 125.254844 124.579063 
z
" clip-path="url(#p167d99ab18)" style="fill: #d9d9d9"/>
   </g>
   <g id="patch_14">
    <path d="M 125.254844 124.579063 
C 125.254844 124.579063 125.254844 124.579063 125.254844 124.579063 
C 125.254844 124.579063 125.254844 124.579063 125.254844 124.579063 
L 125.254844 124.579063 
C 125.254844 124.579063 125.254844 124.579063 125.254844 124.579063 
C 125.254844 124.579063 125.254844 124.579063 125.254844 124.579063 
z
" clip-path="url(#p167d99ab18)" style="fill: #d9d9d9"/>
   </g>
   <g id="patch_15">
    <path d="M 125.254844 124.579063 
C 125.254844 124.579063 125.254844 124.579063 125.254844 124.579063 
C 125.254844 124.579063 125.254844 124.579063 125.254844 124.579063 
L 125.254844 124.579063 
C 125.254844 124.579063 125.254844 124.579063 125.254844 124.579063 
C 125.254844 124.579063 125.254844 124.579063 125.254844 124.579063 
z
" clip-path="url(#p167d99ab18)" style="fill: #d9d9d9"/>
   </g>
   <g id="patch_16">
    <path d="M 125.254844 124.579063 
C 125.254844 124.579063 125.254844 124.579063 125.254844 124.579063 
C 125.254844 124.579063 125.254844 124.579063 125.254844 124.579063 
L 125.254844 124.579063 
C 125.254844 124.579063 125.254844 124.579063 125.254844 124.579063 
C 125.254844 124.579063 125.254844 124.579063 125.254844 124.579063 
z
" clip-path="url(#p167d99ab18)" style="fill: #d9d9d9"/>
   </g>
   <g id="patch_17">
    <path d="M 125.254844 124.579063 
C 125.254844 124.579063 125.254844 124.579063 125.254844 124.579063 
C 125.254844 124.579063 125.254844 124.579063 125.254844 124.579063 
L 125.254844 124.579063 
C 125.254844 124.579063 125.254844 124.579063 125.254844 124.579063 
C 125.254844 124.579063 125.254844 124.579063 125.254844 124.579063 
z
" clip-path="url(#p167d99ab18)" style="fill: #d9d9d9"/>
   </g>
   <g id="patch_18">
    <path d="M 125.254844 124.579063 
C 125.254844 124.579063 125.254844 124.579063 125.254844 124.579063 
C 125.254844 124.579063 125.254844 124.579063 125.254844 124.579063 
L 125.254844 124.579063 
C 125.254844 124.579063 125.254844 124.579063 125.254844 124.579063 
C 125.254844 124.579063 125.254844 124.579063 125.254844 124.579063 
z
" clip-path="url(#p167d99ab18)" style="fill: #d9d9d9"/>
   </g>
   <g id="patch_19">
    <path d="M 125.254844 124.579063 
C 125.254844 124.579063 125.254844 124.579063 125.254844 124.579063 
C 125.254844 124.579063 125.254844 124.579063 125.254844 124.579063 
L 125.254844 124.579063 
C 125.254844 124.579063 125.254844 124.579063 125.254844 124.579063 
C 125.254844 124.579063 125.254844 124.579063 125.254844 124.579063 
z
" clip-path="url(#p167d99ab18)" style="fill: #d9d9d9"/>
   </g>
   <g id="patch_20">
    <path d="M 125.254844 124.579063 
C 125.254844 124.579063 125.254844 124.579063 125.254844 124.579063 
C 125.254844 124.579063 125.254844 124.579063 125.254844 124.579063 
L 125.254844 124.579063 
C 125.254844 124.579063 125.254844 124.579063 125.254844 124.579063 
C 125.254844 124.579063 125.254844 124.579063 125.254844 124.579063 
z
" clip-path="url(#p167d99ab18)" style="fill: #d9d9d9"/>
   </g>
   <g id="patch_21">
    <path d="M 125.254844 124.579063 
C 125.254844 124.579063 125.254844 124.579063 125.254844 124.579063 
C 125.254844 124.579063 125.254844 124.579063 125.254844 124.579063 
L 125.254844 124.579063 
C 125.254844 124.579063 125.254844 124.579063 125.254844 124.579063 
C 125.254844 124.579063 125.254844 124.579063 125.254844 124.579063 
z
" clip-path="url(#p167d99ab18)" style="fill: #d9d9d9"/>
   </g>
   <g id="patch_22">
    <path d="M 125.254844 124.579063 
C 125.254844 124.579063 125.254844 124.579063 125.254844 124.579063 
C 125.254844 124.579063 125.254844 124.579063 125.254844 124.579063 
L 125.254844 124.579063 
C 125.254844 124.579063 125.254844 124.579063 125.254844 124.579063 
C 125.254844 124.579063 125.254844 124.579063 125.254844 124.579063 
z
" clip-path="url(#p167d99ab18)" style="fill: #d9d9d9"/>
   </g>
   <g id="patch_23">
    <path d="M 125.254844 124.579063 
C 125.254844 124.579063 125.254844 124.579063 125.254844 124.579063 
C 125.254844 124.579063 125.254844 124.579063 125.254844 124.579063 
L 125.254844 124.579063 
C 125.254844 124.579063 125.254844 124.579063 125.254844 124.579063 
C 125.254844 124.579063 125.254844 124.579063 125.254844 124.579063 
z
" clip-path="url(#p167d99ab18)" style="fill: #d9d9d9"/>
   </g>
   <g id="patch_24">
    <path d="M 125.254844 124.579063 
C 125.254844 124.579063 125.254844 124.579063 125.254844 124.579063 
C 125.254844 124.579063 125.254844 124.579063 125.254844 124.579063 
L 125.254844 124.579063 
C 125.254844 124.579063 125.254844 124.579063 125.254844 124.579063 
C 125.254844 124.579063 125.254844 124.579063 125.254844 124.579063 
z
" clip-path="url(#p167d99ab18)" style="fill: #d9d9d9"/>
   </g>
   <g id="patch_25">
    <path d="M 125.254844 124.579063 
C 125.254844 124.579063 125.254844 124.579063 125.254844 124.579063 
C 125.254844 124.579063 125.254844 124.579063 125.254844 124.579063 
L 125.254844 124.579063 
C 125.254844 124.579063 125.254844 124.579063 125.254844 124.579063 
C 125.254844 124.579063 125.254844 124.579063 125.254844 124.579063 
z
" clip-path="url(#p167d99ab18)" style="fill: #d9d9d9"/>
   </g>
   <g id="patch_26">
    <path d="M 125.254844 124.579063 
C 125.254844 124.579063 125.254844 124.579063 125.254844 124.579063 
C 125.254844 124.579063 125.254844 124.579063 125.254844 124.579063 
L 125.254844 124.579063 
C 125.254844 124.579063 125.254844 124.579063 125.254844 124.579063 
C 125.254844 124.579063 125.254844 124.579063 125.254844 124.579063 
z
" clip-path="url(#p167d99ab18)" style="fill: #d9d9d9"/>
   </g>
   <g id="patch_27">
    <path d="M 125.254844 124.579063 
C 125.254844 124.579063 125.254844 124.579063 125.254844 124.579063 
C 125.254844 124.579063 125.254844 124.579063 125.254844 124.579063 
L 125.254844 124.579063 
C 125.254844 124.579063 125.254844 124.579063 125.254844 124.579063 
C 125.254844 124.579063 125.254844 124.579063 125.254844 124.579063 
z
" clip-path="url(#p167d99ab18)" style="fill: #d9d9d9"/>
   </g>
   <g id="patch_28">
    <path d="M 125.254844 124.579063 
C 125.254844 124.579063 125.254844 124.579063 125.254844 124.579063 
C 125.254844 124.579063 125.254844 124.579063 125.254844 124.579063 
L 125.254844 124.579063 
C 125.254844 124.579063 125.254844 124.579063 125.254844 124.579063 
C 125.254844 124.579063 125.254844 124.579063 125.254844 124.579063 
z
" clip-path="url(#p167d99ab18)" style="fill: #d9d9d9"/>
   </g>
   <g id="patch_29">
    <path d="M 125.254844 124.579063 
C 125.254844 124.579063 125.254844 124.579063 125.254844 124.579063 
C 125.254844 124.579063 125.254844 124.579063 125.254844 124.579063 
L 125.254844 124.579063 
C 125.254844 124.579063 125.254844 124.579063 125.254844 124.579063 
C 125.254844 124.579063 125.254844 124.579063 125.254844 124.579063 
z
" clip-path="url(#p167d99ab18)" style="fill: #d9d9d9"/>
   </g>
   <g id="patch_30">
    <path d="M 125.254844 124.579063 
C 125.254844 124.579063 125.254844 124.579063 125.254844 124.579063 
C 125.254844 124.579063 125.254844 124.579063 125.254844 124.579063 
L 125.254844 124.579063 
C 125.254844 124.579063 125.254844 124.579063 125.254844 124.579063 
C 125.254844 124.579063 125.254844 124.579063 125.254844 124.579063 
z
" clip-path="url(#p167d99ab18)" style="fill: #d9d9d9"/>
   </g>
   <g id="patch_31">
    <path d="M 125.254844 124.579063 
C 125.254844 124.579063 125.254844 124.579063 125.254844 124.579063 
C 125.254844 124.579063 125.254844 124.579063 125.254844 124.579063 
L 125.254844 124.579063 
C 125.254844 124.579063 125.254844 124.579063 125.254844 124.579063 
C 125.254844 124.579063 125.254844 124.579063 125.254844 124.579063 
z
" clip-path="url(#p167d99ab18)" style="fill: #d9d9d9"/>
   </g>
   <g id="patch_32">
    <path d="M 125.254844 124.579063 
C 125.254844 124.579063 125.254844 124.579063 125.254844 124.579063 
C 125.254844 124.579063 125.254844 124.579063 125.254844 124.579063 
L 125.254844 124.579063 
C 125.254844 124.579063 125.254844 124.579063 125.254844 124.579063 
C 125.254844 124.579063 125.254844 124.579063 125.254844 124.579063 
z
" clip-path="url(#p167d99ab18)" style="fill: #d9d9d9"/>
   </g>
   <g id="patch_33">
    <path d="M 125.254844 124.579063 
C 125.254844 124.579063 125.254844 124.579063 125.254844 124.579063 
C 125.254844 124.579063 125.254844 124.579063 125.254844 124.579063 
L 125.254844 124.579063 
C 125.254844 124.579063 125.254844 124.579063 125.254844 124.579063 
C 125.254844 124.579063 125.254844 124.579063 125.254844 124.579063 
z
" clip-path="url(#p167d99ab18)" style="fill: #d9d9d9"/>
   </g>
   <g id="patch_34">
    <path d="M 125.254844 124.579063 
C 125.254844 124.579063 125.254844 124.579063 125.254844 124.579063 
C 125.254844 124.579063 125.254844 124.579063 125.254844 124.579063 
L 125.254844 124.579063 
C 125.254844 124.579063 125.254844 124.579063 125.254844 124.579063 
C 125.254844 124.579063 125.254844 124.579063 125.254844 124.579063 
z
" clip-path="url(#p167d99ab18)" style="fill: #d9d9d9"/>
   </g>
   <g id="patch_35">
    <path d="M 125.254844 124.579063 
C 125.254844 124.579063 125.254844 124.579063 125.254844 124.579063 
C 125.254844 124.579063 125.254844 124.579063 125.254844 124.579063 
L 131.030301 65.939856 
C 129.110953 65.750817 127.183479 65.656126 125.254844 65.656126 
C 123.326208 65.656126 121.398735 65.750817 119.479386 65.939856 
z
" clip-path="url(#p167d99ab18)" style="fill: #a1a1d8"/>
   </g>
   <g id="patch_36">
    <path d="M 125.254844 124.579063 
C 125.254844 124.579063 125.254844 124.579063 125.254844 124.579063 
C 125.254844 124.579063 125.254844 124.579063 125.254844 124.579063 
L 139.172638 78.698243 
C 137.670891 78.242692 136.147682 77.861149 134.608514 77.554989 
C 133.069345 77.248829 131.516073 77.018423 129.954308 76.864603 
z
" clip-path="url(#p167d99ab18)" style="fill: #a1a1d8"/>
   </g>
   <g id="patch_37">
    <path d="M 125.254844 124.579063 
C 125.254844 124.579063 125.254844 124.579063 125.254844 124.579063 
C 125.254844 124.579063 125.254844 124.579063 125.254844 124.579063 
L 156.535504 66.057063 
C 154.619992 65.033201 152.655365 64.104002 150.64872 63.272822 
C 148.642075 62.441643 146.595831 61.709485 144.517379 61.078993 
z
" clip-path="url(#p167d99ab18)" style="fill: #a1a1d8"/>
   </g>
   <g id="patch_38">
    <path d="M 125.254844 124.579063 
C 125.254844 124.579063 125.254844 124.579063 125.254844 124.579063 
C 125.254844 124.579063 125.254844 124.579063 125.254844 124.579063 
L 158.717425 83.80479 
C 157.382822 82.709509 155.995248 81.680415 154.559716 80.721222 
C 153.124183 79.76203 151.642422 78.873897 150.119785 78.06003 
z
" clip-path="url(#p167d99ab18)" style="fill: #a1a1d8"/>
   </g>
   <g id="patch_39">
    <path d="M 125.254844 124.579063 
C 125.254844 124.579063 125.254844 124.579063 125.254844 124.579063 
C 125.254844 124.579063 125.254844 124.579063 125.254844 124.579063 
L 154.250427 100.783002 
C 153.471547 99.833933 152.646539 98.923677 151.778384 98.055522 
C 150.910229 97.187367 149.999973 96.362359 149.050904 95.583479 
z
" clip-path="url(#p167d99ab18)" style="fill: #a1a1d8"/>
   </g>
   <g id="patch_40">
    <path d="M 125.254844 124.579063 
C 125.254844 124.579063 125.254844 124.579063 125.254844 124.579063 
C 125.254844 124.579063 125.254844 124.579063 125.254844 124.579063 
L 162.041846 104.916 
C 161.398244 103.711907 160.695913 102.540138 159.937389 101.404927 
C 159.178865 100.269715 158.365062 99.172429 157.498921 98.117033 
z
" clip-path="url(#p167d99ab18)" style="fill: #a1a1d8"/>
   </g>
   <g id="patch_41">
    <path d="M 125.254844 124.579063 
C 125.254844 124.579063 125.254844 124.579063 125.254844 124.579063 
C 125.254844 124.579063 125.254844 124.579063 125.254844 124.579063 
L 155.855238 115.296534 
C 155.551407 114.294938 155.198583 113.308862 154.798042 112.341869 
C 154.3975 111.374876 153.949723 110.428132 153.456328 109.505055 
z
" clip-path="url(#p167d99ab18)" style="fill: #a1a1d8"/>
   </g>
   <g id="patch_42">
    <path d="M 125.254844 124.579063 
C 125.254844 124.579063 125.254844 124.579063 125.254844 124.579063 
C 125.254844 124.579063 125.254844 124.579063 125.254844 124.579063 
L 141.592527 122.969941 
C 141.539858 122.435184 141.460966 121.903336 141.356135 121.376316 
C 141.251305 120.849297 141.120662 120.327742 140.964679 119.813536 
z
" clip-path="url(#p167d99ab18)" style="fill: #a1a1d8"/>
   </g>
   <g id="patch_43">
    <path d="M 125.254844 124.579063 
C 125.254844 124.579063 125.254844 124.579063 125.254844 124.579063 
C 125.254844 124.579063 125.254844 124.579063 125.254844 124.579063 
L 173.906168 129.3708 
C 174.063009 127.778369 174.141571 126.179198 174.141571 124.579063 
C 174.141571 122.978927 174.063009 121.379756 173.906168 119.787325 
z
" clip-path="url(#p167d99ab18)" style="fill: #a1a1d8"/>
   </g>
   <g id="patch_44">
    <path d="M 125.254844 124.579063 
C 125.254844 124.579063 125.254844 124.579063 125.254844 124.579063 
C 125.254844 124.579063 125.254844 124.579063 125.254844 124.579063 
L 153.894737 133.266879 
C 154.179102 132.329453 154.417271 131.37863 154.608383 130.417845 
C 154.799495 129.457059 154.94332 128.48747 155.039339 127.512579 
z
" clip-path="url(#p167d99ab18)" style="fill: #a1a1d8"/>
   </g>
   <g id="patch_45">
    <path d="M 125.254844 124.579063 
C 125.254844 124.579063 125.254844 124.579063 125.254844 124.579063 
C 125.254844 124.579063 125.254844 124.579063 125.254844 124.579063 
L 158.335667 142.261131 
C 158.914427 141.178346 159.439677 140.067798 159.909519 138.933499 
C 160.379361 137.7992 160.793229 136.642516 161.149628 135.467626 
z
" clip-path="url(#p167d99ab18)" style="fill: #a1a1d8"/>
   </g>
   <g id="patch_46">
    <path d="M 125.254844 124.579063 
C 125.254844 124.579063 125.254844 124.579063 125.254844 124.579063 
C 125.254844 124.579063 125.254844 124.579063 125.254844 124.579063 
L 140.948869 137.458816 
C 141.370442 136.945127 141.766541 136.41105 142.135734 135.858513 
C 142.504928 135.305976 142.84677 134.735646 143.160028 134.149583 
z
" clip-path="url(#p167d99ab18)" style="fill: #a1a1d8"/>
   </g>
   <g id="patch_47">
    <path d="M 125.254844 124.579063 
C 125.254844 124.579063 125.254844 124.579063 125.254844 124.579063 
C 125.254844 124.579063 125.254844 124.579063 125.254844 124.579063 
L 139.874706 142.393416 
C 140.457796 141.914886 141.017041 141.408017 141.550419 140.874638 
C 142.083798 140.34126 142.590668 139.782015 143.069197 139.198925 
z
" clip-path="url(#p167d99ab18)" style="fill: #a1a1d8"/>
   </g>
   <g id="patch_48">
    <path d="M 125.254844 124.579063 
C 125.254844 124.579063 125.254844 124.579063 125.254844 124.579063 
C 125.254844 124.579063 125.254844 124.579063 125.254844 124.579063 
L 129.008711 131.602054 
C 129.238584 131.479184 129.462286 131.345102 129.679008 131.200293 
C 129.895731 131.055483 130.105213 130.90012 130.306699 130.734766 
z
" clip-path="url(#p167d99ab18)" style="fill: #a1a1d8"/>
   </g>
   <g id="patch_49">
    <path d="M 125.254844 124.579063 
C 125.254844 124.579063 125.254844 124.579063 125.254844 124.579063 
C 125.254844 124.579063 125.254844 124.579063 125.254844 124.579063 
L 130.676073 142.45046 
C 131.26103 142.273015 131.836923 142.066957 132.401671 141.833031 
C 132.96642 141.599105 133.519342 141.337592 134.058442 141.049437 
z
" clip-path="url(#p167d99ab18)" style="fill: #a1a1d8"/>
   </g>
   <g id="patch_50">
    <path d="M 125.254844 124.579063 
C 125.254844 124.579063 125.254844 124.579063 125.254844 124.579063 
C 125.254844 124.579063 125.254844 124.579063 125.254844 124.579063 
L 126.392664 136.131549 
C 126.770794 136.094306 127.146868 136.038521 127.519527 135.964395 
C 127.892186 135.890268 128.260981 135.79789 128.62458 135.687593 
z
" clip-path="url(#p167d99ab18)" style="fill: #a1a1d8"/>
   </g>
   <g id="patch_51">
    <path d="M 125.254844 124.579063 
C 125.254844 124.579063 125.254844 124.579063 125.254844 124.579063 
C 125.254844 124.579063 125.254844 124.579063 125.254844 124.579063 
L 123.960467 137.721089 
C 124.390625 137.763456 124.822604 137.784677 125.254844 137.784677 
C 125.687083 137.784677 126.119062 137.763456 126.54922 137.721089 
z
" clip-path="url(#p167d99ab18)" style="fill: #a1a1d8"/>
   </g>
   <g id="patch_52">
    <path d="M 125.254844 124.579063 
C 125.254844 124.579063 125.254844 124.579063 125.254844 124.579063 
C 125.254844 124.579063 125.254844 124.579063 125.254844 124.579063 
L 121.008127 138.578612 
C 121.466353 138.717613 121.931128 138.834033 122.400772 138.927451 
C 122.870416 139.020869 123.344364 139.091173 123.820903 139.138108 
z
" clip-path="url(#p167d99ab18)" style="fill: #a1a1d8"/>
   </g>
   <g id="patch_53">
    <path d="M 125.254844 124.579063 
C 125.254844 124.579063 125.254844 124.579063 125.254844 124.579063 
C 125.254844 124.579063 125.254844 124.579063 125.254844 124.579063 
L 114.150756 145.35335 
C 114.830729 145.716804 115.528137 146.046653 116.240461 146.341707 
C 116.952785 146.636762 117.679166 146.896665 118.41698 147.120478 
z
" clip-path="url(#p167d99ab18)" style="fill: #a1a1d8"/>
   </g>
   <g id="patch_54">
    <path d="M 125.254844 124.579063 
C 125.254844 124.579063 125.254844 124.579063 125.254844 124.579063 
C 125.254844 124.579063 125.254844 124.579063 125.254844 124.579063 
L 108.933755 144.466367 
C 109.584696 145.000581 110.261473 145.502513 110.961642 145.970351 
C 111.661811 146.438189 112.384527 146.871368 113.127181 147.268325 
z
" clip-path="url(#p167d99ab18)" style="fill: #a1a1d8"/>
   </g>
   <g id="patch_55">
    <path d="M 125.254844 124.579063 
C 125.254844 124.579063 125.254844 124.579063 125.254844 124.579063 
C 125.254844 124.579063 125.254844 124.579063 125.254844 124.579063 
L 112.847627 134.761402 
C 113.180911 135.167509 113.533932 135.557007 113.905415 135.928491 
C 114.276899 136.299975 114.666398 136.652996 115.072504 136.986279 
z
" clip-path="url(#p167d99ab18)" style="fill: #a1a1d8"/>
   </g>
   <g id="patch_56">
    <path d="M 125.254844 124.579063 
C 125.254844 124.579063 125.254844 124.579063 125.254844 124.579063 
C 125.254844 124.579063 125.254844 124.579063 125.254844 124.579063 
L 125.254844 124.579063 
C 125.254844 124.579063 125.254844 124.579063 125.254844 124.579063 
C 125.254844 124.579063 125.254844 124.579063 125.254844 124.579063 
z
" clip-path="url(#p167d99ab18)" style="fill: #a1a1d8"/>
   </g>
   <g id="patch_57">
    <path d="M 125.254844 124.579063 
C 125.254844 124.579063 125.254844 124.579063 125.254844 124.579063 
C 125.254844 124.579063 125.254844 124.579063 125.254844 124.579063 
L 111.783771 128.665468 
C 111.917525 129.106396 112.072847 129.540492 112.249176 129.966187 
C 112.425504 130.391881 112.622627 130.808663 112.839832 131.215024 
z
" clip-path="url(#p167d99ab18)" style="fill: #a1a1d8"/>
   </g>
   <g id="patch_58">
    <path d="M 125.254844 124.579063 
C 125.254844 124.579063 125.254844 124.579063 125.254844 124.579063 
C 125.254844 124.579063 125.254844 124.579063 125.254844 124.579063 
L 111.67218 125.916838 
C 111.715968 126.361419 111.781557 126.803582 111.86871 127.24173 
C 111.955863 127.679878 112.064475 128.113483 112.194155 128.540979 
z
" clip-path="url(#p167d99ab18)" style="fill: #a1a1d8"/>
   </g>
   <g id="patch_59">
    <path d="M 125.254844 124.579063 
C 125.254844 124.579063 125.254844 124.579063 125.254844 124.579063 
C 125.254844 124.579063 125.254844 124.579063 125.254844 124.579063 
L 92.941878 121.396513 
C 92.837708 122.454165 92.785529 123.516293 92.785529 124.579062 
C 92.785529 125.641832 92.837708 126.70396 92.941878 127.761612 
z
" clip-path="url(#p167d99ab18)" style="fill: #a1a1d8"/>
   </g>
   <g id="patch_60">
    <path d="M 125.254844 124.579063 
C 125.254844 124.579063 125.254844 124.579063 125.254844 124.579063 
C 125.254844 124.579063 125.254844 124.579063 125.254844 124.579063 
L 94.892587 115.368773 
C 94.591121 116.362575 94.338629 117.370579 94.136024 118.389144 
C 93.933418 119.40771 93.780944 120.435609 93.679151 121.469128 
z
" clip-path="url(#p167d99ab18)" style="fill: #a1a1d8"/>
   </g>
   <g id="patch_61">
    <path d="M 125.254844 124.579063 
C 125.254844 124.579063 125.254844 124.579063 125.254844 124.579063 
C 125.254844 124.579063 125.254844 124.579063 125.254844 124.579063 
L 85.25615 103.199315 
C 84.556359 104.508532 83.921268 105.851318 83.353173 107.222822 
C 82.785077 108.594326 82.284661 109.992896 81.853732 111.413479 
z
" clip-path="url(#p167d99ab18)" style="fill: #a1a1d8"/>
   </g>
   <g id="patch_62">
    <path d="M 125.254844 124.579063 
C 125.254844 124.579063 125.254844 124.579063 125.254844 124.579063 
C 125.254844 124.579063 125.254844 124.579063 125.254844 124.579063 
L 104.154157 107.262176 
C 103.587349 107.952833 103.054793 108.670903 102.558411 109.413791 
C 102.062029 110.156679 101.60242 110.92349 101.181244 111.711455 
z
" clip-path="url(#p167d99ab18)" style="fill: #a1a1d8"/>
   </g>
   <g id="patch_63">
    <path d="M 125.254844 124.579063 
C 125.254844 124.579063 125.254844 124.579063 125.254844 124.579063 
C 125.254844 124.579063 125.254844 124.579063 125.254844 124.579063 
L 96.538036 89.587531 
C 95.392711 90.527475 94.294225 91.523085 93.246545 92.570764 
C 92.198866 93.618443 91.203256 94.716929 90.263312 95.862255 
z
" clip-path="url(#p167d99ab18)" style="fill: #a1a1d8"/>
   </g>
   <g id="patch_64">
    <path d="M 125.254844 124.579063 
C 125.254844 124.579063 125.254844 124.579063 125.254844 124.579063 
C 125.254844 124.579063 125.254844 124.579063 125.254844 124.579063 
L 96.268524 70.349473 
C 94.493509 71.298239 92.766145 72.333581 91.092672 73.451759 
C 89.419199 74.569938 87.801634 75.769606 86.24582 77.04643 
z
" clip-path="url(#p167d99ab18)" style="fill: #a1a1d8"/>
   </g>
   <g id="patch_65">
    <path d="M 125.254844 124.579063 
C 125.254844 124.579063 125.254844 124.579063 125.254844 124.579063 
C 125.254844 124.579063 125.254844 124.579063 125.254844 124.579063 
L 107.792931 67.01485 
C 105.908768 67.586404 104.053803 68.250122 102.234735 69.003604 
C 100.415667 69.757087 98.63469 70.599426 96.898236 71.52758 
z
" clip-path="url(#p167d99ab18)" style="fill: #a1a1d8"/>
   </g>
   <g id="patch_66">
    <path d="M 125.254844 124.579063 
C 125.254844 124.579063 125.254844 124.579063 125.254844 124.579063 
C 125.254844 124.579063 125.254844 124.579063 125.254844 124.579063 
L 119.025799 61.334512 
C 116.955711 61.538398 114.89688 61.843797 112.856744 62.249605 
C 110.816608 62.655413 108.797625 63.161142 106.807089 63.764965 
z
" clip-path="url(#p167d99ab18)" style="fill: #a1a1d8"/>
   </g>
   <g id="patch_67">
    <path d="M 119.479386 65.939856 
C 121.398735 65.750817 123.326208 65.656126 125.254844 65.656126 
C 127.183479 65.656126 129.110953 65.750817 131.030301 65.939856 
L 131.938027 56.723566 
C 129.717015 56.504815 127.486602 56.395242 125.254844 56.395242 
C 123.023086 56.395242 120.792672 56.504815 118.571661 56.723566 
z
" clip-path="url(#p167d99ab18)" style="fill: #ff8c8e"/>
   </g>
   <g id="patch_68">
    <path d="M 129.954308 76.864603 
C 131.516073 77.018423 133.069345 77.248829 134.608514 77.554989 
C 136.147682 77.861149 137.670891 78.242692 139.172638 78.698243 
L 141.651465 70.526646 
C 139.882249 69.98996 138.087749 69.540462 136.274447 69.179773 
C 134.461146 68.819085 132.631229 68.547643 130.791305 68.366426 
z
" clip-path="url(#p167d99ab18)" style="fill: #ff8c8e"/>
   </g>
   <g id="patch_69">
    <path d="M 144.517379 61.078993 
C 146.595831 61.709485 148.642075 62.441643 150.64872 63.272822 
C 152.655365 64.104002 154.619992 65.033201 156.535504 66.057063 
L 167.475418 45.589923 
C 164.889986 44.207981 162.238262 42.953809 159.529825 41.831937 
C 156.821388 40.710066 154.059503 39.721848 151.254145 38.870852 
z
" clip-path="url(#p167d99ab18)" style="fill: #ff8c8e"/>
   </g>
   <g id="patch_70">
    <path d="M 150.119785 78.06003 
C 151.642422 78.873897 153.124183 79.76203 154.559716 80.721222 
C 155.995248 81.680415 157.382822 82.709509 158.717425 83.80479 
L 164.50844 76.748417 
C 162.942871 75.463589 161.315165 74.256399 159.6312 73.13121 
C 157.947235 72.00602 156.209041 70.964187 154.422897 70.009473 
z
" clip-path="url(#p167d99ab18)" style="fill: #ff8c8e"/>
   </g>
   <g id="patch_71">
    <path d="M 149.050904 95.583479 
C 149.999973 96.362359 150.910229 97.187367 151.778384 98.055522 
C 152.646539 98.923677 153.471547 99.833933 154.250427 100.783002 
L 166.231903 90.950059 
C 165.131176 89.608819 163.96526 88.322429 162.738369 87.095538 
C 161.511477 85.868646 160.225088 84.702731 158.883847 83.602003 
z
" clip-path="url(#p167d99ab18)" style="fill: #ff8c8e"/>
   </g>
   <g id="patch_72">
    <path d="M 157.498921 98.117033 
C 158.365062 99.172429 159.178865 100.269715 159.937389 101.404927 
C 160.695913 102.540138 161.398244 103.711907 162.041846 104.916 
L 181.053381 94.754123 
C 180.077166 92.927754 179.01187 91.150414 177.86134 89.428525 
C 176.710811 87.706636 175.476435 86.042273 174.162671 84.441446 
z
" clip-path="url(#p167d99ab18)" style="fill: #ff8c8e"/>
   </g>
   <g id="patch_73">
    <path d="M 153.456328 109.505055 
C 153.949723 110.428132 154.3975 111.374876 154.798042 112.341869 
C 155.198583 113.308862 155.551407 114.294938 155.855238 115.296534 
L 185.979356 106.158483 
C 185.376422 104.170879 184.676267 102.214076 183.881418 100.29514 
C 183.086569 98.376205 182.197984 96.497451 181.218874 94.665665 
z
" clip-path="url(#p167d99ab18)" style="fill: #ff8c8e"/>
   </g>
   <g id="patch_74">
    <path d="M 140.964679 119.813536 
C 141.120662 120.327742 141.251305 120.849297 141.356135 121.376316 
C 141.460966 121.903336 141.539858 122.435184 141.592527 122.969941 
L 172.055626 119.969588 
C 171.904751 118.437728 171.678757 116.9142 171.37846 115.404505 
C 171.078163 113.89481 170.703925 112.400769 170.257098 110.927778 
z
" clip-path="url(#p167d99ab18)" style="fill: #ff8c8e"/>
   </g>
   <g id="patch_75">
    <path d="M 173.906168 119.787325 
C 174.063009 121.379756 174.141571 122.978927 174.141571 124.579063 
C 174.141571 126.179198 174.063009 127.778369 173.906168 129.3708 
L 199.306405 131.872505 
C 199.54513 129.448687 199.664709 127.014608 199.664709 124.579063 
C 199.664709 122.143517 199.54513 119.709438 199.306405 117.28562 
z
" clip-path="url(#p167d99ab18)" style="fill: #ff8c8e"/>
   </g>
   <g id="patch_76">
    <path d="M 155.039339 127.512579 
C 154.94332 128.48747 154.799495 129.457059 154.608383 130.417845 
C 154.417271 131.37863 154.179102 132.329453 153.894737 133.266879 
L 169.402161 137.971005 
C 169.840499 136.525997 170.207628 135.060339 170.50222 133.579325 
C 170.796812 132.098311 171.018512 130.603726 171.166521 129.100968 
z
" clip-path="url(#p167d99ab18)" style="fill: #ff8c8e"/>
   </g>
   <g id="patch_77">
    <path d="M 161.149628 135.467626 
C 160.793229 136.642516 160.379361 137.7992 159.909519 138.933499 
C 159.439677 140.067798 158.914427 141.178346 158.335667 142.261131 
L 164.710368 145.668479 
C 165.400656 144.377041 166.027122 143.05249 166.587503 141.699611 
C 167.147884 140.346731 167.641505 138.967153 168.066582 137.565861 
z
" clip-path="url(#p167d99ab18)" style="fill: #ff8c8e"/>
   </g>
   <g id="patch_78">
    <path d="M 143.160028 134.149583 
C 142.84677 134.735646 142.504928 135.305976 142.135734 135.858513 
C 141.766541 136.41105 141.370442 136.945127 140.948869 137.458816 
L 140.948869 137.458816 
C 141.370442 136.945127 141.766541 136.41105 142.135734 135.858513 
C 142.504928 135.305976 142.84677 134.735646 143.160028 134.149583 
z
" clip-path="url(#p167d99ab18)" style="fill: #ff8c8e"/>
   </g>
   <g id="patch_79">
    <path d="M 143.069197 139.198925 
C 142.590668 139.782015 142.083798 140.34126 141.550419 140.874638 
C 141.017041 141.408017 140.457796 141.914886 139.874706 142.393416 
L 140.927812 143.676629 
C 141.552904 143.163629 142.152432 142.620249 142.724231 142.04845 
C 143.29603 141.476651 143.839411 140.877122 144.35241 140.25203 
z
" clip-path="url(#p167d99ab18)" style="fill: #ff8c8e"/>
   </g>
   <g id="patch_80">
    <path d="M 130.306699 130.734766 
C 130.105213 130.90012 129.895731 131.055483 129.679008 131.200293 
C 129.462286 131.345102 129.238584 131.479184 129.008711 131.602054 
L 129.008711 131.602054 
C 129.238584 131.479184 129.462286 131.345102 129.679008 131.200293 
C 129.895731 131.055483 130.105213 130.90012 130.306699 130.734766 
z
" clip-path="url(#p167d99ab18)" style="fill: #ff8c8e"/>
   </g>
   <g id="patch_81">
    <path d="M 134.058442 141.049437 
C 133.519342 141.337592 132.96642 141.599105 132.401671 141.833031 
C 131.836923 142.066957 131.26103 142.273015 130.676073 142.45046 
L 130.676073 142.45046 
C 131.26103 142.273015 131.836923 142.066957 132.401671 141.833031 
C 132.96642 141.599105 133.519342 141.337592 134.058442 141.049437 
z
" clip-path="url(#p167d99ab18)" style="fill: #ff8c8e"/>
   </g>
   <g id="patch_82">
    <path d="M 128.62458 135.687593 
C 128.260981 135.79789 127.892186 135.890268 127.519527 135.964395 
C 127.146868 136.038521 126.770794 136.094306 126.392664 136.131549 
L 126.392664 136.131549 
C 126.770794 136.094306 127.146868 136.038521 127.519527 135.964395 
C 127.892186 135.890268 128.260981 135.79789 128.62458 135.687593 
z
" clip-path="url(#p167d99ab18)" style="fill: #ff8c8e"/>
   </g>
   <g id="patch_83">
    <path d="M 126.54922 137.721089 
C 126.119062 137.763456 125.687083 137.784677 125.254844 137.784677 
C 124.822604 137.784677 124.390625 137.763456 123.960467 137.721089 
L 123.960467 137.721089 
C 124.390625 137.763456 124.822604 137.784677 125.254844 137.784677 
C 125.687083 137.784677 126.119062 137.763456 126.54922 137.721089 
z
" clip-path="url(#p167d99ab18)" style="fill: #ff8c8e"/>
   </g>
   <g id="patch_84">
    <path d="M 123.820903 139.138108 
C 123.344364 139.091173 122.870416 139.020869 122.400772 138.927451 
C 121.931128 138.834033 121.466353 138.717613 121.008127 138.578612 
L 121.008127 138.578612 
C 121.466353 138.717613 121.931128 138.834033 122.400772 138.927451 
C 122.870416 139.020869 123.344364 139.091173 123.820903 139.138108 
z
" clip-path="url(#p167d99ab18)" style="fill: #ff8c8e"/>
   </g>
   <g id="patch_85">
    <path d="M 118.41698 147.120478 
C 117.679166 146.896665 116.952785 146.636762 116.240461 146.341707 
C 115.528137 146.046653 114.830729 145.716804 114.150756 145.35335 
L 114.150756 145.35335 
C 114.830729 145.716804 115.528137 146.046653 116.240461 146.341707 
C 116.952785 146.636762 117.679166 146.896665 118.41698 147.120478 
z
" clip-path="url(#p167d99ab18)" style="fill: #ff8c8e"/>
   </g>
   <g id="patch_86">
    <path d="M 113.127181 147.268325 
C 112.384527 146.871368 111.661811 146.438189 110.961642 145.970351 
C 110.261473 145.502513 109.584696 145.000581 108.933755 144.466367 
L 108.933755 144.466367 
C 109.584696 145.000581 110.261473 145.502513 110.961642 145.970351 
C 111.661811 146.438189 112.384527 146.871368 113.127181 147.268325 
z
" clip-path="url(#p167d99ab18)" style="fill: #ff8c8e"/>
   </g>
   <g id="patch_87">
    <path d="M 115.072504 136.986279 
C 114.666398 136.652996 114.276899 136.299975 113.905415 135.928491 
C 113.533932 135.557007 113.180911 135.167509 112.847627 134.761402 
L 112.847627 134.761402 
C 113.180911 135.167509 113.533932 135.557007 113.905415 135.928491 
C 114.276899 136.299975 114.666398 136.652996 115.072504 136.986279 
z
" clip-path="url(#p167d99ab18)" style="fill: #ff8c8e"/>
   </g>
   <g id="patch_88">
    <path d="M 125.254844 124.579063 
C 125.254844 124.579063 125.254844 124.579063 125.254844 124.579063 
C 125.254844 124.579063 125.254844 124.579063 125.254844 124.579063 
L 125.254844 124.579063 
C 125.254844 124.579063 125.254844 124.579063 125.254844 124.579063 
C 125.254844 124.579063 125.254844 124.579063 125.254844 124.579063 
z
" clip-path="url(#p167d99ab18)" style="fill: #ff8c8e"/>
   </g>
   <g id="patch_89">
    <path d="M 112.839832 131.215024 
C 112.622627 130.808663 112.425504 130.391881 112.249176 129.966187 
C 112.072847 129.540492 111.917525 129.106396 111.783771 128.665468 
L 111.783771 128.665468 
C 111.917525 129.106396 112.072847 129.540492 112.249176 129.966187 
C 112.425504 130.391881 112.622627 130.808663 112.839832 131.215024 
z
" clip-path="url(#p167d99ab18)" style="fill: #ff8c8e"/>
   </g>
   <g id="patch_90">
    <path d="M 112.194155 128.540979 
C 112.064475 128.113483 111.955863 127.679878 111.86871 127.24173 
C 111.781557 126.803582 111.715968 126.361419 111.67218 125.916838 
L 102.065082 126.863055 
C 102.13984 127.62209 102.25182 128.376998 102.400617 129.125051 
C 102.549414 129.873104 102.734849 130.6134 102.956251 131.343267 
z
" clip-path="url(#p167d99ab18)" style="fill: #ff8c8e"/>
   </g>
   <g id="patch_91">
    <path d="M 92.941878 127.761612 
C 92.837708 126.70396 92.785529 125.641832 92.785529 124.579062 
C 92.785529 123.516293 92.837708 122.454165 92.941878 121.396513 
L 92.941878 121.396513 
C 92.837708 122.454165 92.785529 123.516293 92.785529 124.579062 
C 92.785529 125.641832 92.837708 126.70396 92.941878 127.761612 
z
" clip-path="url(#p167d99ab18)" style="fill: #ff8c8e"/>
   </g>
   <g id="patch_92">
    <path d="M 93.679151 121.469128 
C 93.780944 120.435609 93.933418 119.40771 94.136024 118.389144 
C 94.338629 117.370579 94.591121 116.362575 94.892587 115.368773 
L 90.490079 114.033286 
C 90.1449 115.171189 89.855797 116.325353 89.623814 117.49161 
C 89.391831 118.657867 89.217248 119.83481 89.100695 121.01819 
z
" clip-path="url(#p167d99ab18)" style="fill: #ff8c8e"/>
   </g>
   <g id="patch_93">
    <path d="M 81.853732 111.413479 
C 82.284661 109.992896 82.785077 108.594326 83.353173 107.222822 
C 83.921268 105.851318 84.556359 104.508532 85.25615 103.199315 
L 71.167552 95.668803 
C 70.221276 97.439161 69.36249 99.254911 68.594296 101.109495 
C 67.826102 102.96408 67.149426 104.855262 66.566712 106.776212 
z
" clip-path="url(#p167d99ab18)" style="fill: #ff8c8e"/>
   </g>
   <g id="patch_94">
    <path d="M 101.181244 111.711455 
C 101.60242 110.92349 102.062029 110.156679 102.558411 109.413791 
C 103.054793 108.670903 103.587349 107.952833 104.154157 107.262176 
L 74.423679 82.863004 
C 73.05825 84.526784 71.775332 86.2566 70.579556 88.046204 
C 69.383781 89.835807 68.276592 91.683042 67.261987 93.581235 
z
" clip-path="url(#p167d99ab18)" style="fill: #ff8c8e"/>
   </g>
   <g id="patch_95">
    <path d="M 90.263312 95.862255 
C 91.203256 94.716929 92.198866 93.618443 93.246545 92.570764 
C 94.294225 91.523085 95.392711 90.527475 96.538036 89.587531 
L 94.917413 87.612796 
C 93.707452 88.605786 92.546973 89.657582 91.440168 90.764387 
C 90.333363 91.871192 89.281567 93.031671 88.288577 94.241632 
z
" clip-path="url(#p167d99ab18)" style="fill: #ff8c8e"/>
   </g>
   <g id="patch_96">
    <path d="M 86.24582 77.04643 
C 87.801634 75.769606 89.419199 74.569938 91.092672 73.451759 
C 92.766145 72.333581 94.493509 71.298239 96.268524 70.349473 
L 87.22667 53.433354 
C 84.897965 54.678073 82.631776 56.036375 80.436287 57.503353 
C 78.240799 58.970331 76.118659 60.544218 74.077532 62.219327 
z
" clip-path="url(#p167d99ab18)" style="fill: #ff8c8e"/>
   </g>
   <g id="patch_97">
    <path d="M 96.898236 71.52758 
C 98.63469 70.599426 100.415667 69.757087 102.234735 69.003604 
C 104.053803 68.250122 105.908768 67.586404 107.792931 67.01485 
L 105.21062 58.502112 
C 103.047823 59.158189 100.918541 59.920059 98.830465 60.784968 
C 96.742389 61.649877 94.698036 62.616784 92.704791 63.682196 
z
" clip-path="url(#p167d99ab18)" style="fill: #ff8c8e"/>
   </g>
   <g id="patch_98">
    <path d="M 106.807089 63.764965 
C 108.797625 63.161142 110.816608 62.655413 112.856744 62.249605 
C 114.89688 61.843797 116.955711 61.538398 119.025799 61.334512 
L 118.227288 53.227087 
C 115.891831 53.457109 113.569075 53.801657 111.267411 54.259487 
C 108.965746 54.717317 106.687947 55.287876 104.44224 55.969103 
z
" clip-path="url(#p167d99ab18)" style="fill: #ff8c8e"/>
   </g>
   <g id="patch_99">
    <path d="M 118.571661 56.723566 
C 120.792672 56.504815 123.023086 56.395242 125.254844 56.395242 
C 127.486602 56.395242 129.717015 56.504815 131.938027 56.723566 
L 136.122984 14.232979 
C 132.511192 13.877249 128.884112 13.699062 125.254844 13.699062 
C 121.625576 13.699062 117.998495 13.877249 114.386703 14.232979 
z
" clip-path="url(#p167d99ab18)" style="fill: #828282"/>
   </g>
   <g id="patch_100">
    <path d="M 130.791305 68.366426 
C 132.631229 68.547643 134.461146 68.819085 136.274447 69.179773 
C 138.087749 69.540462 139.882249 69.98996 141.651465 70.526646 
L 147.532312 51.140093 
C 145.128545 50.410918 142.690426 49.800201 140.226762 49.310148 
C 137.763098 48.820095 135.276858 48.451296 132.777024 48.205084 
z
" clip-path="url(#p167d99ab18)" style="fill: #828282"/>
   </g>
   <g id="patch_101">
    <path d="M 151.254145 38.870852 
C 154.059503 39.721848 156.821388 40.710066 159.529825 41.831937 
C 162.238262 42.953809 164.889986 44.207981 167.475418 45.589923 
L 167.475418 45.589923 
C 164.889986 44.207981 162.238262 42.953809 159.529825 41.831937 
C 156.821388 40.710066 154.059503 39.721848 151.254145 38.870852 
z
" clip-path="url(#p167d99ab18)" style="fill: #828282"/>
   </g>
   <g id="patch_102">
    <path d="M 154.422897 70.009473 
C 156.209041 70.964187 157.947235 72.00602 159.6312 73.13121 
C 161.315165 74.256399 162.942871 75.463589 164.50844 76.748417 
L 164.50844 76.748417 
C 162.942871 75.463589 161.315165 74.256399 159.6312 73.13121 
C 157.947235 72.00602 156.209041 70.964187 154.422897 70.009473 
z
" clip-path="url(#p167d99ab18)" style="fill: #828282"/>
   </g>
   <g id="patch_103">
    <path d="M 158.883847 83.602003 
C 160.225088 84.702731 161.511477 85.868646 162.738369 87.095538 
C 163.96526 88.322429 165.131176 89.608819 166.231903 90.950059 
L 166.577222 90.666663 
C 165.467218 89.31412 164.291478 88.01689 163.054247 86.77966 
C 161.817016 85.542429 160.519786 84.366688 159.167243 83.256685 
z
" clip-path="url(#p167d99ab18)" style="fill: #828282"/>
   </g>
   <g id="patch_104">
    <path d="M 174.162671 84.441446 
C 175.476435 86.042273 176.710811 87.706636 177.86134 89.428525 
C 179.01187 91.150414 180.077166 92.927754 181.053381 94.754123 
L 182.820884 93.809373 
C 181.813746 91.92515 180.714705 90.091511 179.527731 88.315079 
C 178.340757 86.538646 177.06728 84.821561 175.7119 83.170026 
z
" clip-path="url(#p167d99ab18)" style="fill: #828282"/>
   </g>
   <g id="patch_105">
    <path d="M 181.218874 94.665665 
C 182.197984 96.497451 183.086569 98.376205 183.881418 100.29514 
C 184.676267 102.214076 185.376422 104.170879 185.979356 106.158483 
L 185.979356 106.158483 
C 185.376422 104.170879 184.676267 102.214076 183.881418 100.29514 
C 183.086569 98.376205 182.197984 96.497451 181.218874 94.665665 
z
" clip-path="url(#p167d99ab18)" style="fill: #828282"/>
   </g>
   <g id="patch_106">
    <path d="M 170.257098 110.927778 
C 170.703925 112.400769 171.078163 113.89481 171.37846 115.404505 
C 171.678757 116.9142 171.904751 118.437728 172.055626 119.969588 
L 172.055626 119.969588 
C 171.904751 118.437728 171.678757 116.9142 171.37846 115.404505 
C 171.078163 113.89481 170.703925 112.400769 170.257098 110.927778 
z
" clip-path="url(#p167d99ab18)" style="fill: #828282"/>
   </g>
   <g id="patch_107">
    <path d="M 199.306405 117.28562 
C 199.54513 119.709438 199.664709 122.143517 199.664709 124.579063 
C 199.664709 127.014608 199.54513 129.448687 199.306405 131.872505 
L 199.518132 131.893358 
C 199.75754 129.46261 199.877461 127.021572 199.877461 124.579063 
C 199.877461 122.136553 199.75754 119.695515 199.518132 117.264767 
z
" clip-path="url(#p167d99ab18)" style="fill: #828282"/>
   </g>
   <g id="patch_108">
    <path d="M 171.166521 129.100968 
C 171.018512 130.603726 170.796812 132.098311 170.50222 133.579325 
C 170.207628 135.060339 169.840499 136.525997 169.402161 137.971005 
L 221.136334 153.664394 
C 222.08834 150.52605 222.885688 147.342856 223.525499 144.126311 
C 224.16531 140.909766 224.646811 137.663746 224.968264 134.399977 
z
" clip-path="url(#p167d99ab18)" style="fill: #828282"/>
   </g>
   <g id="patch_109">
    <path d="M 168.066582 137.565861 
C 167.641505 138.967153 167.147884 140.346731 166.587503 141.699611 
C 166.027122 143.05249 165.400656 144.377041 164.710368 145.668479 
L 164.710368 145.668479 
C 165.400656 144.377041 166.027122 143.05249 166.587503 141.699611 
C 167.147884 140.346731 167.641505 138.967153 168.066582 137.565861 
z
" clip-path="url(#p167d99ab18)" style="fill: #828282"/>
   </g>
   <g id="patch_110">
    <path d="M 143.160028 134.149583 
C 142.84677 134.735646 142.504928 135.305976 142.135734 135.858513 
C 141.766541 136.41105 141.370442 136.945127 140.948869 137.458816 
L 142.460557 138.699426 
C 142.922737 138.136258 143.356989 137.550737 143.761744 136.944978 
C 144.166499 136.33922 144.541269 135.713954 144.8847 135.071439 
z
" clip-path="url(#p167d99ab18)" style="fill: #828282"/>
   </g>
   <g id="patch_111">
    <path d="M 144.35241 140.25203 
C 143.839411 140.877122 143.29603 141.476651 142.724231 142.04845 
C 142.152432 142.620249 141.552904 143.163629 140.927812 143.676629 
L 168.084028 176.766575 
C 169.792203 175.364712 171.430522 173.879827 172.993065 172.317284 
C 174.555608 170.75474 176.040493 169.116422 177.442356 167.408247 
z
" clip-path="url(#p167d99ab18)" style="fill: #828282"/>
   </g>
   <g id="patch_112">
    <path d="M 130.306699 130.734766 
C 130.105213 130.90012 129.895731 131.055483 129.679008 131.200293 
C 129.462286 131.345102 129.238584 131.479184 129.008711 131.602054 
L 145.426421 162.31743 
C 146.661654 161.657184 147.863727 160.936689 149.028296 160.158549 
C 150.192866 159.380408 151.318529 158.54556 152.40122 157.657018 
z
" clip-path="url(#p167d99ab18)" style="fill: #828282"/>
   </g>
   <g id="patch_113">
    <path d="M 134.058442 141.049437 
C 133.519342 141.337592 132.96642 141.599105 132.401671 141.833031 
C 131.836923 142.066957 131.26103 142.273015 130.676073 142.45046 
L 131.315962 144.559892 
C 131.969965 144.361503 132.613832 144.131123 133.24524 143.869586 
C 133.876648 143.608048 134.494834 143.315668 135.097566 142.993501 
z
" clip-path="url(#p167d99ab18)" style="fill: #828282"/>
   </g>
   <g id="patch_114">
    <path d="M 128.62458 135.687593 
C 128.260981 135.79789 127.892186 135.890268 127.519527 135.964395 
C 127.146868 136.038521 126.770794 136.094306 126.392664 136.131549 
L 128.041924 152.87676 
C 128.96815 152.785534 129.889338 152.648889 130.802162 152.467317 
C 131.714987 152.285745 132.618346 152.059465 133.508978 151.789295 
z
" clip-path="url(#p167d99ab18)" style="fill: #828282"/>
   </g>
   <g id="patch_115">
    <path d="M 126.54922 137.721089 
C 126.119062 137.763456 125.687083 137.784677 125.254844 137.784677 
C 124.822604 137.784677 124.390625 137.763456 123.960467 137.721089 
L 123.960467 137.721089 
C 124.390625 137.763456 124.822604 137.784677 125.254844 137.784677 
C 125.687083 137.784677 126.119062 137.763456 126.54922 137.721089 
z
" clip-path="url(#p167d99ab18)" style="fill: #828282"/>
   </g>
   <g id="patch_116">
    <path d="M 123.820903 139.138108 
C 123.344364 139.091173 122.870416 139.020869 122.400772 138.927451 
C 121.931128 138.834033 121.466353 138.717613 121.008127 138.578612 
L 121.008127 138.578612 
C 121.466353 138.717613 121.931128 138.834033 122.400772 138.927451 
C 122.870416 139.020869 123.344364 139.091173 123.820903 139.138108 
z
" clip-path="url(#p167d99ab18)" style="fill: #828282"/>
   </g>
   <g id="patch_117">
    <path d="M 118.41698 147.120478 
C 117.679166 146.896665 116.952785 146.636762 116.240461 146.341707 
C 115.528137 146.046653 114.830729 145.716804 114.150756 145.35335 
L 114.150756 145.35335 
C 114.830729 145.716804 115.528137 146.046653 116.240461 146.341707 
C 116.952785 146.636762 117.679166 146.896665 118.41698 147.120478 
z
" clip-path="url(#p167d99ab18)" style="fill: #828282"/>
   </g>
   <g id="patch_118">
    <path d="M 113.127181 147.268325 
C 112.384527 146.871368 111.661811 146.438189 110.961642 145.970351 
C 110.261473 145.502513 109.584696 145.000581 108.933755 144.466367 
L 108.933755 144.466367 
C 109.584696 145.000581 110.261473 145.502513 110.961642 145.970351 
C 111.661811 146.438189 112.384527 146.871368 113.127181 147.268325 
z
" clip-path="url(#p167d99ab18)" style="fill: #828282"/>
   </g>
   <g id="patch_119">
    <path d="M 115.072504 136.986279 
C 114.666398 136.652996 114.276899 136.299975 113.905415 135.928491 
C 113.533932 135.557007 113.180911 135.167509 112.847627 134.761402 
L 112.847627 134.761402 
C 113.180911 135.167509 113.533932 135.557007 113.905415 135.928491 
C 114.276899 136.299975 114.666398 136.652996 115.072504 136.986279 
z
" clip-path="url(#p167d99ab18)" style="fill: #828282"/>
   </g>
   <g id="patch_120">
    <path d="M 125.254844 124.579063 
C 125.254844 124.579063 125.254844 124.579063 125.254844 124.579063 
C 125.254844 124.579063 125.254844 124.579063 125.254844 124.579063 
L 125.254844 124.579063 
C 125.254844 124.579063 125.254844 124.579063 125.254844 124.579063 
C 125.254844 124.579063 125.254844 124.579063 125.254844 124.579063 
z
" clip-path="url(#p167d99ab18)" style="fill: #828282"/>
   </g>
   <g id="patch_121">
    <path d="M 112.839832 131.215024 
C 112.622627 130.808663 112.425504 130.391881 112.249176 129.966187 
C 112.072847 129.540492 111.917525 129.106396 111.783771 128.665468 
L 111.783771 128.665468 
C 111.917525 129.106396 112.072847 129.540492 112.249176 129.966187 
C 112.425504 130.391881 112.622627 130.808663 112.839832 131.215024 
z
" clip-path="url(#p167d99ab18)" style="fill: #828282"/>
   </g>
   <g id="patch_122">
    <path d="M 102.956251 131.343267 
C 102.734849 130.6134 102.549414 129.873104 102.400617 129.125051 
C 102.25182 128.376998 102.13984 127.62209 102.065082 126.863055 
L 102.065082 126.863055 
C 102.13984 127.62209 102.25182 128.376998 102.400617 129.125051 
C 102.549414 129.873104 102.734849 130.6134 102.956251 131.343267 
z
" clip-path="url(#p167d99ab18)" style="fill: #828282"/>
   </g>
   <g id="patch_123">
    <path d="M 92.941878 127.761612 
C 92.837708 126.70396 92.785529 125.641832 92.785529 124.579062 
C 92.785529 123.516293 92.837708 122.454165 92.941878 121.396513 
L 92.941878 121.396513 
C 92.837708 122.454165 92.785529 123.516293 92.785529 124.579062 
C 92.785529 125.641832 92.837708 126.70396 92.941878 127.761612 
z
" clip-path="url(#p167d99ab18)" style="fill: #828282"/>
   </g>
   <g id="patch_124">
    <path d="M 89.100695 121.01819 
C 89.217248 119.83481 89.391831 118.657867 89.623814 117.49161 
C 89.855797 116.325353 90.1449 115.171189 90.490079 114.033286 
L 90.490079 114.033286 
C 90.1449 115.171189 89.855797 116.325353 89.623814 117.49161 
C 89.391831 118.657867 89.217248 119.83481 89.100695 121.01819 
z
" clip-path="url(#p167d99ab18)" style="fill: #828282"/>
   </g>
   <g id="patch_125">
    <path d="M 66.566712 106.776212 
C 67.149426 104.855262 67.826102 102.96408 68.594296 101.109495 
C 69.36249 99.254911 70.221276 97.439161 71.167552 95.668803 
L 71.167552 95.668803 
C 70.221276 97.439161 69.36249 99.254911 68.594296 101.109495 
C 67.826102 102.96408 67.149426 104.855262 66.566712 106.776212 
z
" clip-path="url(#p167d99ab18)" style="fill: #828282"/>
   </g>
   <g id="patch_126">
    <path d="M 67.261987 93.581235 
C 68.276592 91.683042 69.383781 89.835807 70.579556 88.046204 
C 71.775332 86.2566 73.05825 84.526784 74.423679 82.863004 
L 72.18979 81.029698 
C 70.764354 82.766597 69.425054 84.572433 68.176728 86.440685 
C 66.928402 88.308937 65.772555 90.237352 64.71336 92.218965 
z
" clip-path="url(#p167d99ab18)" style="fill: #828282"/>
   </g>
   <g id="patch_127">
    <path d="M 88.288577 94.241632 
C 89.281567 93.031671 90.333363 91.871192 91.440168 90.764387 
C 92.546973 89.657582 93.707452 88.605786 94.917413 87.612796 
L 94.917413 87.612796 
C 93.707452 88.605786 92.546973 89.657582 91.440168 90.764387 
C 90.333363 91.871192 89.281567 93.031671 88.288577 94.241632 
z
" clip-path="url(#p167d99ab18)" style="fill: #828282"/>
   </g>
   <g id="patch_128">
    <path d="M 74.077532 62.219327 
C 76.118659 60.544218 78.240799 58.970331 80.436287 57.503353 
C 82.631776 56.036375 84.897965 54.678073 87.22667 53.433354 
L 87.22667 53.433354 
C 84.897965 54.678073 82.631776 56.036375 80.436287 57.503353 
C 78.240799 58.970331 76.118659 60.544218 74.077532 62.219327 
z
" clip-path="url(#p167d99ab18)" style="fill: #828282"/>
   </g>
   <g id="patch_129">
    <path d="M 92.704791 63.682196 
C 94.698036 62.616784 96.742389 61.649877 98.830465 60.784968 
C 100.918541 59.920059 103.047823 59.158189 105.21062 58.502112 
L 103.934928 54.296718 
C 101.634482 54.994551 99.369684 55.804908 97.148714 56.724864 
C 94.927745 57.644819 92.753282 58.673264 90.633179 59.806483 
z
" clip-path="url(#p167d99ab18)" style="fill: #828282"/>
   </g>
   <g id="patch_130">
    <path d="M 104.44224 55.969103 
C 106.687947 55.287876 108.965746 54.717317 111.267411 54.259487 
C 113.569075 53.801657 115.891831 53.457109 118.227288 53.227087 
L 116.460786 35.291498 
C 113.538271 35.57934 110.631649 36.010497 107.75142 36.58341 
C 104.871191 37.156323 102.020826 37.870302 99.210622 38.722769 
z
" clip-path="url(#p167d99ab18)" style="fill: #828282"/>
   </g>
   <g id="patch_131">
    <path d="M 125.254844 124.579063 
C 125.254844 124.579063 125.254844 124.579063 125.254844 124.579063 
C 125.254844 124.579063 125.254844 124.579063 125.254844 124.579063 
L 136.122984 14.232979 
C 132.511192 13.877249 128.884112 13.699062 125.254844 13.699062 
C 121.625576 13.699062 117.998495 13.877249 114.386703 14.232979 
L 125.254844 124.579063 
z
" clip-path="url(#p167d99ab18)" style="fill: none; stroke: #292929; stroke-width: 0.5; stroke-linejoin: miter"/>
   </g>
   <g id="patch_132">
    <path d="M 125.254844 124.579063 
C 125.254844 124.579063 125.254844 124.579063 125.254844 124.579063 
C 125.254844 124.579063 125.254844 124.579063 125.254844 124.579063 
L 147.532312 51.140093 
C 145.128545 50.410918 142.690426 49.800201 140.226762 49.310148 
C 137.763098 48.820095 135.276858 48.451296 132.777024 48.205084 
L 125.254844 124.579063 
z
" clip-path="url(#p167d99ab18)" style="fill: none; stroke: #292929; stroke-width: 0.5; stroke-linejoin: miter"/>
   </g>
   <g id="patch_133">
    <path d="M 125.254844 124.579063 
C 125.254844 124.579063 125.254844 124.579063 125.254844 124.579063 
C 125.254844 124.579063 125.254844 124.579063 125.254844 124.579063 
L 167.475418 45.589923 
C 164.889986 44.207981 162.238262 42.953809 159.529825 41.831937 
C 156.821388 40.710066 154.059503 39.721848 151.254145 38.870852 
L 125.254844 124.579063 
z
" clip-path="url(#p167d99ab18)" style="fill: none; stroke: #292929; stroke-width: 0.5; stroke-linejoin: miter"/>
   </g>
   <g id="patch_134">
    <path d="M 125.254844 124.579063 
C 125.254844 124.579063 125.254844 124.579063 125.254844 124.579063 
C 125.254844 124.579063 125.254844 124.579063 125.254844 124.579063 
L 164.50844 76.748417 
C 162.942871 75.463589 161.315165 74.256399 159.6312 73.13121 
C 157.947235 72.00602 156.209041 70.964187 154.422897 70.009473 
L 125.254844 124.579063 
z
" clip-path="url(#p167d99ab18)" style="fill: none; stroke: #292929; stroke-width: 0.5; stroke-linejoin: miter"/>
   </g>
   <g id="patch_135">
    <path d="M 125.254844 124.579063 
C 125.254844 124.579063 125.254844 124.579063 125.254844 124.579063 
C 125.254844 124.579063 125.254844 124.579063 125.254844 124.579063 
L 166.577222 90.666663 
C 165.467218 89.31412 164.291478 88.01689 163.054247 86.77966 
C 161.817016 85.542429 160.519786 84.366688 159.167243 83.256685 
L 125.254844 124.579063 
z
" clip-path="url(#p167d99ab18)" style="fill: none; stroke: #292929; stroke-width: 0.5; stroke-linejoin: miter"/>
   </g>
   <g id="patch_136">
    <path d="M 125.254844 124.579063 
C 125.254844 124.579063 125.254844 124.579063 125.254844 124.579063 
C 125.254844 124.579063 125.254844 124.579063 125.254844 124.579063 
L 182.820884 93.809373 
C 181.813746 91.92515 180.714705 90.091511 179.527731 88.315079 
C 178.340757 86.538646 177.06728 84.821561 175.7119 83.170026 
L 125.254844 124.579063 
z
" clip-path="url(#p167d99ab18)" style="fill: none; stroke: #292929; stroke-width: 0.5; stroke-linejoin: miter"/>
   </g>
   <g id="patch_137">
    <path d="M 125.254844 124.579063 
C 125.254844 124.579063 125.254844 124.579063 125.254844 124.579063 
C 125.254844 124.579063 125.254844 124.579063 125.254844 124.579063 
L 185.979356 106.158483 
C 185.376422 104.170879 184.676267 102.214076 183.881418 100.29514 
C 183.086569 98.376205 182.197984 96.497451 181.218874 94.665665 
L 125.254844 124.579063 
z
" clip-path="url(#p167d99ab18)" style="fill: none; stroke: #292929; stroke-width: 0.5; stroke-linejoin: miter"/>
   </g>
   <g id="patch_138">
    <path d="M 125.254844 124.579063 
C 125.254844 124.579063 125.254844 124.579063 125.254844 124.579063 
C 125.254844 124.579063 125.254844 124.579063 125.254844 124.579063 
L 172.055626 119.969588 
C 171.904751 118.437728 171.678757 116.9142 171.37846 115.404505 
C 171.078163 113.89481 170.703925 112.400769 170.257098 110.927778 
L 125.254844 124.579063 
z
" clip-path="url(#p167d99ab18)" style="fill: none; stroke: #292929; stroke-width: 0.5; stroke-linejoin: miter"/>
   </g>
   <g id="patch_139">
    <path d="M 125.254844 124.579063 
C 125.254844 124.579063 125.254844 124.579063 125.254844 124.579063 
C 125.254844 124.579063 125.254844 124.579063 125.254844 124.579063 
L 199.518132 131.893358 
C 199.75754 129.46261 199.877461 127.021572 199.877461 124.579063 
C 199.877461 122.136553 199.75754 119.695515 199.518132 117.264767 
L 125.254844 124.579063 
z
" clip-path="url(#p167d99ab18)" style="fill: none; stroke: #292929; stroke-width: 0.5; stroke-linejoin: miter"/>
   </g>
   <g id="patch_140">
    <path d="M 125.254844 124.579063 
C 125.254844 124.579063 125.254844 124.579063 125.254844 124.579063 
C 125.254844 124.579063 125.254844 124.579063 125.254844 124.579063 
L 221.136334 153.664394 
C 222.08834 150.52605 222.885688 147.342856 223.525499 144.126311 
C 224.16531 140.909766 224.646811 137.663746 224.968264 134.399977 
L 125.254844 124.579063 
z
" clip-path="url(#p167d99ab18)" style="fill: none; stroke: #292929; stroke-width: 0.5; stroke-linejoin: miter"/>
   </g>
   <g id="patch_141">
    <path d="M 125.254844 124.579063 
C 125.254844 124.579063 125.254844 124.579063 125.254844 124.579063 
C 125.254844 124.579063 125.254844 124.579063 125.254844 124.579063 
L 164.710368 145.668479 
C 165.400656 144.377041 166.027122 143.05249 166.587503 141.699611 
C 167.147884 140.346731 167.641505 138.967153 168.066582 137.565861 
L 125.254844 124.579063 
z
" clip-path="url(#p167d99ab18)" style="fill: none; stroke: #292929; stroke-width: 0.5; stroke-linejoin: miter"/>
   </g>
   <g id="patch_142">
    <path d="M 125.254844 124.579063 
C 125.254844 124.579063 125.254844 124.579063 125.254844 124.579063 
C 125.254844 124.579063 125.254844 124.579063 125.254844 124.579063 
L 142.460557 138.699426 
C 142.922737 138.136258 143.356989 137.550737 143.761744 136.944978 
C 144.166499 136.33922 144.541269 135.713954 144.8847 135.071439 
L 125.254844 124.579063 
z
" clip-path="url(#p167d99ab18)" style="fill: none; stroke: #292929; stroke-width: 0.5; stroke-linejoin: miter"/>
   </g>
   <g id="patch_143">
    <path d="M 125.254844 124.579063 
C 125.254844 124.579063 125.254844 124.579063 125.254844 124.579063 
C 125.254844 124.579063 125.254844 124.579063 125.254844 124.579063 
L 168.084028 176.766575 
C 169.792203 175.364712 171.430522 173.879827 172.993065 172.317284 
C 174.555608 170.75474 176.040493 169.116422 177.442356 167.408247 
L 125.254844 124.579063 
z
" clip-path="url(#p167d99ab18)" style="fill: none; stroke: #292929; stroke-width: 0.5; stroke-linejoin: miter"/>
   </g>
   <g id="patch_144">
    <path d="M 125.254844 124.579063 
C 125.254844 124.579063 125.254844 124.579063 125.254844 124.579063 
C 125.254844 124.579063 125.254844 124.579063 125.254844 124.579063 
L 145.426421 162.31743 
C 146.661654 161.657184 147.863727 160.936689 149.028296 160.158549 
C 150.192866 159.380408 151.318529 158.54556 152.40122 157.657018 
L 125.254844 124.579063 
z
" clip-path="url(#p167d99ab18)" style="fill: none; stroke: #292929; stroke-width: 0.5; stroke-linejoin: miter"/>
   </g>
   <g id="patch_145">
    <path d="M 125.254844 124.579063 
C 125.254844 124.579063 125.254844 124.579063 125.254844 124.579063 
C 125.254844 124.579063 125.254844 124.579063 125.254844 124.579063 
L 131.315962 144.559892 
C 131.969965 144.361503 132.613832 144.131123 133.24524 143.869586 
C 133.876648 143.608048 134.494834 143.315668 135.097566 142.993501 
L 125.254844 124.579063 
z
" clip-path="url(#p167d99ab18)" style="fill: none; stroke: #292929; stroke-width: 0.5; stroke-linejoin: miter"/>
   </g>
   <g id="patch_146">
    <path d="M 125.254844 124.579063 
C 125.254844 124.579063 125.254844 124.579063 125.254844 124.579063 
C 125.254844 124.579063 125.254844 124.579063 125.254844 124.579063 
L 128.041924 152.87676 
C 128.96815 152.785534 129.889338 152.648889 130.802162 152.467317 
C 131.714987 152.285745 132.618346 152.059465 133.508978 151.789295 
L 125.254844 124.579063 
z
" clip-path="url(#p167d99ab18)" style="fill: none; stroke: #292929; stroke-width: 0.5; stroke-linejoin: miter"/>
   </g>
   <g id="patch_147">
    <path d="M 125.254844 124.579063 
C 125.254844 124.579063 125.254844 124.579063 125.254844 124.579063 
C 125.254844 124.579063 125.254844 124.579063 125.254844 124.579063 
L 123.960467 137.721089 
C 124.390625 137.763456 124.822604 137.784677 125.254844 137.784677 
C 125.687083 137.784677 126.119062 137.763456 126.54922 137.721089 
L 125.254844 124.579063 
z
" clip-path="url(#p167d99ab18)" style="fill: none; stroke: #292929; stroke-width: 0.5; stroke-linejoin: miter"/>
   </g>
   <g id="patch_148">
    <path d="M 125.254844 124.579063 
C 125.254844 124.579063 125.254844 124.579063 125.254844 124.579063 
C 125.254844 124.579063 125.254844 124.579063 125.254844 124.579063 
L 121.008127 138.578612 
C 121.466353 138.717613 121.931128 138.834033 122.400772 138.927451 
C 122.870416 139.020869 123.344364 139.091173 123.820903 139.138108 
L 125.254844 124.579063 
z
" clip-path="url(#p167d99ab18)" style="fill: none; stroke: #292929; stroke-width: 0.5; stroke-linejoin: miter"/>
   </g>
   <g id="patch_149">
    <path d="M 125.254844 124.579063 
C 125.254844 124.579063 125.254844 124.579063 125.254844 124.579063 
C 125.254844 124.579063 125.254844 124.579063 125.254844 124.579063 
L 114.150756 145.35335 
C 114.830729 145.716804 115.528137 146.046653 116.240461 146.341707 
C 116.952785 146.636762 117.679166 146.896665 118.41698 147.120478 
L 125.254844 124.579063 
z
" clip-path="url(#p167d99ab18)" style="fill: none; stroke: #292929; stroke-width: 0.5; stroke-linejoin: miter"/>
   </g>
   <g id="patch_150">
    <path d="M 125.254844 124.579063 
C 125.254844 124.579063 125.254844 124.579063 125.254844 124.579063 
C 125.254844 124.579063 125.254844 124.579063 125.254844 124.579063 
L 108.933755 144.466367 
C 109.584696 145.000581 110.261473 145.502513 110.961642 145.970351 
C 111.661811 146.438189 112.384527 146.871368 113.127181 147.268325 
L 125.254844 124.579063 
z
" clip-path="url(#p167d99ab18)" style="fill: none; stroke: #292929; stroke-width: 0.5; stroke-linejoin: miter"/>
   </g>
   <g id="patch_151">
    <path d="M 125.254844 124.579063 
C 125.254844 124.579063 125.254844 124.579063 125.254844 124.579063 
C 125.254844 124.579063 125.254844 124.579063 125.254844 124.579063 
L 112.847627 134.761402 
C 113.180911 135.167509 113.533932 135.557007 113.905415 135.928491 
C 114.276899 136.299975 114.666398 136.652996 115.072504 136.986279 
L 125.254844 124.579063 
z
" clip-path="url(#p167d99ab18)" style="fill: none; stroke: #292929; stroke-width: 0.5; stroke-linejoin: miter"/>
   </g>
   <g id="patch_152">
    <path d="M 125.254844 124.579063 
C 125.254844 124.579063 125.254844 124.579063 125.254844 124.579063 
C 125.254844 124.579063 125.254844 124.579063 125.254844 124.579063 
L 125.254844 124.579063 
C 125.254844 124.579063 125.254844 124.579063 125.254844 124.579063 
C 125.254844 124.579063 125.254844 124.579063 125.254844 124.579063 
L 125.254844 124.579063 
z
" clip-path="url(#p167d99ab18)" style="fill: none; stroke: #292929; stroke-width: 0.5; stroke-linejoin: miter"/>
   </g>
   <g id="patch_153">
    <path d="M 125.254844 124.579063 
C 125.254844 124.579063 125.254844 124.579063 125.254844 124.579063 
C 125.254844 124.579063 125.254844 124.579063 125.254844 124.579063 
L 111.783771 128.665468 
C 111.917525 129.106396 112.072847 129.540492 112.249176 129.966187 
C 112.425504 130.391881 112.622627 130.808663 112.839832 131.215024 
L 125.254844 124.579063 
z
" clip-path="url(#p167d99ab18)" style="fill: none; stroke: #292929; stroke-width: 0.5; stroke-linejoin: miter"/>
   </g>
   <g id="patch_154">
    <path d="M 125.254844 124.579063 
C 125.254844 124.579063 125.254844 124.579063 125.254844 124.579063 
C 125.254844 124.579063 125.254844 124.579063 125.254844 124.579063 
L 102.065082 126.863055 
C 102.13984 127.62209 102.25182 128.376998 102.400617 129.125051 
C 102.549414 129.873104 102.734849 130.6134 102.956251 131.343267 
L 125.254844 124.579063 
z
" clip-path="url(#p167d99ab18)" style="fill: none; stroke: #292929; stroke-width: 0.5; stroke-linejoin: miter"/>
   </g>
   <g id="patch_155">
    <path d="M 125.254844 124.579063 
C 125.254844 124.579063 125.254844 124.579063 125.254844 124.579063 
C 125.254844 124.579063 125.254844 124.579063 125.254844 124.579063 
L 92.941878 121.396513 
C 92.837708 122.454165 92.785529 123.516293 92.785529 124.579062 
C 92.785529 125.641832 92.837708 126.70396 92.941878 127.761612 
L 125.254844 124.579063 
z
" clip-path="url(#p167d99ab18)" style="fill: none; stroke: #292929; stroke-width: 0.5; stroke-linejoin: miter"/>
   </g>
   <g id="patch_156">
    <path d="M 125.254844 124.579063 
C 125.254844 124.579063 125.254844 124.579063 125.254844 124.579063 
C 125.254844 124.579063 125.254844 124.579063 125.254844 124.579063 
L 90.490079 114.033286 
C 90.1449 115.171189 89.855797 116.325353 89.623814 117.49161 
C 89.391831 118.657867 89.217248 119.83481 89.100695 121.01819 
L 125.254844 124.579063 
z
" clip-path="url(#p167d99ab18)" style="fill: none; stroke: #292929; stroke-width: 0.5; stroke-linejoin: miter"/>
   </g>
   <g id="patch_157">
    <path d="M 125.254844 124.579063 
C 125.254844 124.579063 125.254844 124.579063 125.254844 124.579063 
C 125.254844 124.579063 125.254844 124.579063 125.254844 124.579063 
L 71.167552 95.668803 
C 70.221276 97.439161 69.36249 99.254911 68.594296 101.109495 
C 67.826102 102.96408 67.149426 104.855262 66.566712 106.776212 
L 125.254844 124.579063 
z
" clip-path="url(#p167d99ab18)" style="fill: none; stroke: #292929; stroke-width: 0.5; stroke-linejoin: miter"/>
   </g>
   <g id="patch_158">
    <path d="M 125.254844 124.579063 
C 125.254844 124.579063 125.254844 124.579063 125.254844 124.579063 
C 125.254844 124.579063 125.254844 124.579063 125.254844 124.579063 
L 72.18979 81.029698 
C 70.764354 82.766597 69.425054 84.572433 68.176728 86.440685 
C 66.928402 88.308937 65.772555 90.237352 64.71336 92.218965 
L 125.254844 124.579063 
z
" clip-path="url(#p167d99ab18)" style="fill: none; stroke: #292929; stroke-width: 0.5; stroke-linejoin: miter"/>
   </g>
   <g id="patch_159">
    <path d="M 125.254844 124.579063 
C 125.254844 124.579063 125.254844 124.579063 125.254844 124.579063 
C 125.254844 124.579063 125.254844 124.579063 125.254844 124.579063 
L 94.917413 87.612796 
C 93.707452 88.605786 92.546973 89.657582 91.440168 90.764387 
C 90.333363 91.871192 89.281567 93.031671 88.288577 94.241632 
L 125.254844 124.579063 
z
" clip-path="url(#p167d99ab18)" style="fill: none; stroke: #292929; stroke-width: 0.5; stroke-linejoin: miter"/>
   </g>
   <g id="patch_160">
    <path d="M 125.254844 124.579063 
C 125.254844 124.579063 125.254844 124.579063 125.254844 124.579063 
C 125.254844 124.579063 125.254844 124.579063 125.254844 124.579063 
L 87.22667 53.433354 
C 84.897965 54.678073 82.631776 56.036375 80.436287 57.503353 
C 78.240799 58.970331 76.118659 60.544218 74.077532 62.219327 
L 125.254844 124.579063 
z
" clip-path="url(#p167d99ab18)" style="fill: none; stroke: #292929; stroke-width: 0.5; stroke-linejoin: miter"/>
   </g>
   <g id="patch_161">
    <path d="M 125.254844 124.579063 
C 125.254844 124.579063 125.254844 124.579063 125.254844 124.579063 
C 125.254844 124.579063 125.254844 124.579063 125.254844 124.579063 
L 103.934928 54.296718 
C 101.634482 54.994551 99.369684 55.804908 97.148714 56.724864 
C 94.927745 57.644819 92.753282 58.673264 90.633179 59.806483 
L 125.254844 124.579063 
z
" clip-path="url(#p167d99ab18)" style="fill: none; stroke: #292929; stroke-width: 0.5; stroke-linejoin: miter"/>
   </g>
   <g id="patch_162">
    <path d="M 125.254844 124.579063 
C 125.254844 124.579063 125.254844 124.579063 125.254844 124.579063 
C 125.254844 124.579063 125.254844 124.579063 125.254844 124.579063 
L 116.460786 35.291498 
C 113.538271 35.57934 110.631649 36.010497 107.75142 36.58341 
C 104.871191 37.156323 102.020826 37.870302 99.210622 38.722769 
L 125.254844 124.579063 
z
" clip-path="url(#p167d99ab18)" style="fill: none; stroke: #292929; stroke-width: 0.5; stroke-linejoin: miter"/>
   </g>
   <g id="PathCollection_1">
    <defs>
     <path id="m48258696d9" d="M 0.193618 7.414054 
L 0.193618 7.414054 
C 0.054922 7.414054 -0.078235 7.358899 -0.176308 7.260826 
C -0.274381 7.162753 -0.329536 7.029596 -0.329536 6.890901 
L -0.329536 5.365008 
L -1.528416 6.56393 
L -1.528416 6.56393 
C -1.577018 6.612704 -1.634775 6.651408 -1.698366 6.677814 
C -1.761958 6.704221 -1.830141 6.717815 -1.898997 6.717815 
C -1.967853 6.717815 -2.036037 6.704221 -2.099628 6.677814 
C -2.163219 6.651408 -2.220976 6.612704 -2.269578 6.56393 
L -2.269578 6.56393 
C -2.318353 6.515327 -2.357056 6.457571 -2.383463 6.393979 
C -2.409869 6.330388 -2.423463 6.262205 -2.423463 6.193348 
C -2.423463 6.124492 -2.409869 6.056309 -2.383463 5.992718 
C -2.357056 5.929126 -2.318353 5.87137 -2.269578 5.822767 
L -0.329536 3.884106 
L -0.329536 0.820937 
L -2.98067 2.351538 
L -3.691824 5.001416 
L -3.691824 5.001416 
C -3.727584 5.135411 -3.815199 5.249836 -3.93523 5.319305 
C -4.055261 5.388775 -4.198123 5.407741 -4.332122 5.371997 
L -4.332122 5.371997 
C -4.466126 5.336237 -4.580558 5.248616 -4.650029 5.128576 
C -4.719499 5.008535 -4.73846 4.865662 -4.702703 4.731657 
L -4.262647 3.092721 
L -5.585535 3.855668 
L -5.585535 3.855668 
C -5.645013 3.890144 -5.710708 3.912561 -5.778854 3.921634 
C -5.847001 3.930706 -5.916272 3.926258 -5.982698 3.908543 
C -6.049125 3.890828 -6.111412 3.860192 -6.165991 3.818391 
C -6.220571 3.77659 -6.266379 3.724437 -6.300791 3.664922 
L -6.300791 3.664922 
C -6.335212 3.605364 -6.35755 3.539597 -6.366524 3.471396 
C -6.375498 3.403194 -6.370933 3.333888 -6.35309 3.267452 
C -6.335248 3.201017 -6.304476 3.138749 -6.26254 3.08422 
C -6.220605 3.029692 -6.168323 2.983966 -6.108695 2.949666 
L -4.785807 2.186762 
L -6.424743 1.746706 
L -6.424743 1.746706 
C -6.558747 1.710946 -6.673179 1.623325 -6.74265 1.503284 
C -6.81212 1.383244 -6.831081 1.240371 -6.795324 1.106366 
L -6.795324 1.106366 
C -6.777471 1.039969 -6.746703 0.977739 -6.704784 0.923241 
C -6.662864 0.868744 -6.61061 0.823041 -6.551015 0.788752 
C -6.491421 0.754464 -6.425647 0.732257 -6.357465 0.723406 
C -6.289282 0.714554 -6.220019 0.71923 -6.153645 0.737166 
L -3.505232 1.44698 
L -0.852424 -0.08496 
L -3.503767 -1.615666 
L -6.153645 -0.905851 
L -6.153645 -0.905851 
C -6.22011 -0.887939 -6.289462 -0.883321 -6.357716 -0.892262 
C -6.42597 -0.901202 -6.491793 -0.923527 -6.551403 -0.957953 
C -6.611013 -0.992379 -6.663247 -1.038234 -6.705103 -1.092883 
C -6.746958 -1.147533 -6.777619 -1.209911 -6.795324 -1.276432 
L -6.795324 -1.276432 
C -6.831068 -1.410431 -6.812101 -1.553293 -6.742632 -1.673324 
C -6.673162 -1.793355 -6.558738 -1.88097 -6.424743 -1.91673 
L -4.785807 -2.355447 
L -6.108695 -3.119732 
L -6.108695 -3.119732 
C -6.228699 -3.188976 -6.316415 -3.303132 -6.352417 -3.436921 
C -6.388419 -3.57071 -6.369839 -3.713469 -6.300791 -3.833586 
L -6.300791 -3.833586 
C -6.266491 -3.893214 -6.220765 -3.945496 -6.166237 -3.987431 
C -6.111708 -4.029367 -6.04944 -4.060139 -5.983005 -4.077981 
C -5.91657 -4.095823 -5.847263 -4.100389 -5.779062 -4.091415 
C -5.71086 -4.082441 -5.645094 -4.060102 -5.585535 -4.025682 
L -4.262647 -3.261396 
L -4.702703 -4.900332 
L -4.702703 -4.900332 
C -4.73846 -5.034337 -4.719499 -5.17721 -4.650029 -5.29725 
C -4.580558 -5.417291 -4.466126 -5.504912 -4.332122 -5.540672 
L -4.332122 -5.540672 
C -4.19831 -5.576464 -4.055613 -5.557686 -3.935617 -5.488496 
C -3.81562 -5.419305 -3.727882 -5.305212 -3.691824 -5.171472 
L -2.982009 -2.521594 
L -0.329411 -0.990302 
L -0.329411 -4.051588 
L -2.269453 -5.991589 
L -2.269453 -5.991589 
C -2.318227 -6.040191 -2.356931 -6.097947 -2.383337 -6.161539 
C -2.409744 -6.22513 -2.423338 -6.293314 -2.423338 -6.36217 
C -2.423338 -6.431026 -2.409744 -6.499209 -2.383337 -6.5628 
C -2.356931 -6.626392 -2.318227 -6.684149 -2.269453 -6.732751 
L -2.269453 -6.732751 
C -2.22085 -6.781526 -2.163094 -6.820229 -2.099502 -6.846635 
C -2.035911 -6.873042 -1.967728 -6.886636 -1.898871 -6.886636 
C -1.830015 -6.886636 -1.761832 -6.873042 -1.698241 -6.846635 
C -1.634649 -6.820229 -1.576893 -6.781526 -1.52829 -6.732751 
L -0.329411 -5.533829 
L -0.329411 -7.059722 
L -0.329411 -7.059722 
C -0.329411 -7.198418 -0.274255 -7.331575 -0.176182 -7.429647 
C -0.07811 -7.52772 0.055047 -7.582875 0.193743 -7.582875 
L 0.193743 -7.582875 
C 0.332439 -7.582875 0.465596 -7.52772 0.563669 -7.429647 
C 0.661741 -7.331575 0.716897 -7.198418 0.716897 -7.059722 
L 0.716897 -5.533829 
L 1.915777 -6.732751 
L 1.915777 -6.732751 
C 1.964379 -6.781526 2.022136 -6.820229 2.085727 -6.846635 
C 2.149318 -6.873042 2.217502 -6.886636 2.286358 -6.886636 
C 2.355214 -6.886636 2.423397 -6.873042 2.486989 -6.846635 
C 2.55058 -6.820229 2.608337 -6.781526 2.656939 -6.732751 
L 2.656939 -6.732751 
C 2.705714 -6.684149 2.744417 -6.626392 2.770823 -6.5628 
C 2.79723 -6.499209 2.810824 -6.431026 2.810824 -6.36217 
C 2.810824 -6.293314 2.79723 -6.22513 2.770823 -6.161539 
C 2.744417 -6.097947 2.705714 -6.040191 2.656939 -5.991589 
L 0.716897 -4.051588 
L 0.716897 -0.991139 
L 3.369495 -2.522954 
L 4.07931 -5.171367 
L 4.07931 -5.171367 
C 4.115368 -5.305107 4.203106 -5.4192 4.323103 -5.488391 
C 4.4431 -5.557582 4.585797 -5.576359 4.719608 -5.540567 
L 4.719608 -5.540567 
C 4.853612 -5.504807 4.968045 -5.417186 5.037515 -5.297146 
C 5.106986 -5.177105 5.125946 -5.034232 5.090189 -4.900227 
L 4.650133 -3.262673 
L 5.973022 -4.025577 
L 5.973022 -4.025577 
C 6.03258 -4.059998 6.098346 -4.082336 6.166548 -4.09131 
C 6.234749 -4.100284 6.304056 -4.095719 6.370491 -4.077876 
C 6.436926 -4.060034 6.499194 -4.029262 6.553723 -3.987327 
C 6.608252 -3.945391 6.653978 -3.893109 6.688277 -3.833481 
L 6.688277 -3.833481 
C 6.757325 -3.713365 6.775905 -3.570605 6.739903 -3.436816 
C 6.703901 -3.303027 6.616186 -3.188871 6.496181 -3.119628 
L 5.173293 -2.355342 
L 6.812229 -1.916625 
L 6.812229 -1.916625 
C 6.946224 -1.880865 7.060649 -1.79325 7.130118 -1.67322 
C 7.199588 -1.553189 7.218554 -1.410326 7.18281 -1.276327 
L 7.18281 -1.276327 
C 7.165106 -1.209806 7.134445 -1.147429 7.092589 -1.092779 
C 7.050733 -1.038129 6.998499 -0.992274 6.938889 -0.957848 
C 6.879279 -0.923422 6.813456 -0.901098 6.745202 -0.892157 
C 6.676949 -0.883217 6.607597 -0.887835 6.541131 -0.905746 
L 3.891253 -1.615561 
L 1.239492 -0.084604 
L 3.892718 1.447085 
L 6.541131 0.73727 
L 6.541131 0.73727 
C 6.674948 0.701466 6.817656 0.720237 6.937662 0.789429 
C 7.057669 0.858621 7.145413 0.972721 7.181471 1.10647 
L 7.181471 1.10647 
C 7.217274 1.240293 7.198497 1.383006 7.129297 1.503014 
C 7.060096 1.623021 6.945986 1.710762 6.812229 1.74681 
L 5.173293 2.186866 
L 6.496181 2.949771 
L 6.496181 2.949771 
C 6.555697 2.984183 6.607849 3.029991 6.649651 3.08457 
C 6.691452 3.13915 6.722088 3.201437 6.739803 3.267863 
C 6.757517 3.33429 6.761966 3.403561 6.752893 3.471707 
C 6.743821 3.539854 6.721404 3.605549 6.686927 3.665026 
L 6.686927 3.665026 
C 6.617458 3.784813 6.503196 3.87225 6.369416 3.907994 
C 6.235636 3.943739 6.092989 3.924946 5.973032 3.855772 
L 4.650144 3.091487 
L 5.08886 4.731783 
L 5.08886 4.731783 
C 5.124664 4.865606 5.105887 5.008319 5.036686 5.128326 
C 4.967486 5.248334 4.853376 5.336074 4.719619 5.372123 
L 4.719619 5.372123 
C 4.585619 5.407867 4.442757 5.3889 4.322726 5.319431 
C 4.202695 5.249961 4.115081 5.135537 4.07932 5.001542 
L 3.368166 2.351664 
L 0.717033 0.821063 
L 0.717033 3.884232 
L 2.657075 5.822893 
L 2.657075 5.822893 
C 2.70585 5.871495 2.744553 5.929252 2.770959 5.992843 
C 2.797366 6.056435 2.81096 6.124618 2.81096 6.193474 
C 2.81096 6.26233 2.797366 6.330514 2.770959 6.394105 
C 2.744553 6.457696 2.70585 6.515453 2.657075 6.564055 
L 2.657075 6.564055 
C 2.608473 6.61283 2.550716 6.651533 2.487125 6.67794 
C 2.423533 6.704346 2.35535 6.71794 2.286494 6.71794 
C 2.217638 6.71794 2.149454 6.704346 2.085863 6.67794 
C 2.022272 6.651533 1.964515 6.61283 1.915913 6.564055 
L 0.717033 5.365133 
L 0.717033 6.891026 
L 0.717033 6.891026 
C 0.717033 7.029722 0.661877 7.162879 0.563805 7.260952 
C 0.465732 7.359024 0.332575 7.41418 0.193879 7.41418 
L 0.193618 7.414054 
z
"/>
    </defs>
    <g clip-path="url(#p167d99ab18)">
     <use xlink:href="#m48258696d9" x="146.038444" y="73.060603" style="fill: #9e2096; fill-opacity: 0.7"/>
    </g>
   </g>
   <g id="patch_163">
    <path d="M 125.254844 13.699063 
C 110.694216 13.699063 96.275171 16.567189 82.822905 22.1393 
C 69.370638 27.711411 57.146763 35.879144 46.850844 46.175063 
C 36.554925 56.470982 28.387192 68.694857 22.815081 82.147124 
C 17.24297 95.59939 14.374844 110.018434 14.374844 124.579063 
C 14.374844 139.139691 17.24297 153.558735 22.815081 167.011001 
C 28.387192 180.463268 36.554925 192.687143 46.850844 202.983062 
C 57.146763 213.278981 69.370638 221.446714 82.822905 227.018825 
C 96.275171 232.590936 110.694216 235.459063 125.254844 235.459063 
C 139.815472 235.459063 154.234516 232.590936 167.686783 227.018825 
C 181.139049 221.446714 193.362925 213.278981 203.658844 202.983062 
C 213.954763 192.687143 222.122495 180.463268 227.694606 167.011001 
C 233.266717 153.558735 236.134844 139.139691 236.134844 124.579063 
C 236.134844 110.018434 233.266717 95.59939 227.694606 82.147124 
C 222.122495 68.694857 213.954763 56.470982 203.658844 46.175063 
C 193.362925 35.879144 181.139049 27.711411 167.686783 22.1393 
C 154.234516 16.567189 139.815472 13.699063 125.254844 13.699063 
" style="fill: none; stroke: #000000; stroke-width: 0.8; stroke-linejoin: miter; stroke-linecap: square"/>
   </g>
  </g>
 </g>
 <defs>
  <clipPath id="p167d99ab18">
   <path d="M 236.134844 124.579063 
C 236.134844 110.018434 233.266717 95.59939 227.694606 82.147124 
C 222.122495 68.694857 213.954763 56.470982 203.658844 46.175063 
C 193.362925 35.879144 181.139049 27.711411 167.686783 22.1393 
C 154.234516 16.567189 139.815472 13.699063 125.254844 13.699063 
C 110.694216 13.699063 96.275171 16.567189 82.822905 22.1393 
C 69.370638 27.711411 57.146763 35.879144 46.850844 46.175063 
C 36.554925 56.470982 28.387192 68.694857 22.815081 82.147124 
C 17.24297 95.59939 14.374844 110.018434 14.374844 124.579062 
C 14.374844 139.139691 17.24297 153.558735 22.815081 167.011001 
C 28.387192 180.463268 36.554925 192.687143 46.850844 202.983062 
C 57.146763 213.278981 69.370638 221.446714 82.822905 227.018825 
C 96.275171 232.590936 110.694216 235.459063 125.254844 235.459063 
C 139.815472 235.459063 154.234516 232.590936 167.686783 227.018825 
C 181.139049 221.446714 193.362925 213.278981 203.658844 202.983062 
C 213.954763 192.687143 222.122495 180.463268 227.694606 167.011001 
C 233.266717 153.558735 236.134844 139.139691 236.134844 124.579063 
M 125.254844 124.579063 
C 125.254844 124.579063 125.254844 124.579063 125.254844 124.579063 
C 125.254844 124.579063 125.254844 124.579063 125.254844 124.579063 
C 125.254844 124.579063 125.254844 124.579063 125.254844 124.579063 
C 125.254844 124.579063 125.254844 124.579063 125.254844 124.579063 
C 125.254844 124.579063 125.254844 124.579063 125.254844 124.579063 
C 125.254844 124.579063 125.254844 124.579063 125.254844 124.579063 
C 125.254844 124.579063 125.254844 124.579063 125.254844 124.579063 
C 125.254844 124.579063 125.254844 124.579063 125.254844 124.579063 
C 125.254844 124.579063 125.254844 124.579063 125.254844 124.579063 
C 125.254844 124.579063 125.254844 124.579063 125.254844 124.579063 
C 125.254844 124.579063 125.254844 124.579063 125.254844 124.579063 
C 125.254844 124.579063 125.254844 124.579063 125.254844 124.579063 
C 125.254844 124.579063 125.254844 124.579063 125.254844 124.579063 
C 125.254844 124.579063 125.254844 124.579063 125.254844 124.579063 
C 125.254844 124.579063 125.254844 124.579063 125.254844 124.579063 
C 125.254844 124.579063 125.254844 124.579063 125.254844 124.579063 
z
"/>
  </clipPath>
 </defs>
</svg>
