<?xml version="1.0" encoding="utf-8" standalone="no"?>
<!DOCTYPE svg PUBLIC "-//W3C//DTD SVG 1.1//EN"
  "http://www.w3.org/Graphics/SVG/1.1/DTD/svg11.dtd">
<svg xmlns:xlink="http://www.w3.org/1999/xlink" width="248.410469pt" height="249.158125pt" viewBox="0 0 248.410469 249.158125" xmlns="http://www.w3.org/2000/svg" version="1.1">
 <title>Ski Rose for Cypress Mountain</title>
 <metadata>
  <rdf:RDF xmlns:dc="http://purl.org/dc/elements/1.1/" xmlns:cc="http://creativecommons.org/ns#" xmlns:rdf="http://www.w3.org/1999/02/22-rdf-syntax-ns#">
   <cc:Work>
    <dc:type rdf:resource="http://purl.org/dc/dcmitype/StillImage"/>
    <dc:title>Ski Rose for Cypress Mountain</dc:title>
    <dc:date>2025-11-22T10:32:53.630545</dc:date>
    <dc:description>A 32-bin stacked histogram of downhill ski run orientations colored by difficulty.</dc:description>
    <dc:format>image/svg+xml</dc:format>
    <dc:source>https://openskimap.org/?obj=75311bff4753a9759c392f4ff6b3451dfa4e9aa9</dc:source>
    <dc:creator>
     <cc:Agent>
      <dc:title>https://github.com/dhimmel/openskistats</dc:title>
     </cc:Agent>
    </dc:creator>
    <dc:rights>
     <cc:Agent>
      <dc:title>https://creativecommons.org/licenses/by/4.0/</dc:title>
     </cc:Agent>
    </dc:rights>
   </cc:Work>
  </rdf:RDF>
 </metadata>
 <defs>
  <style type="text/css">*{stroke-linejoin: round; stroke-linecap: butt}</style>
 </defs>
 <g id="figure_1">
  <g id="patch_1">
   <path d="M 0 249.158125 
L 248.410469 249.158125 
L 248.410469 0 
L 0 0 
z
" style="fill: #ffffff"/>
  </g>
  <g id="axes_1">
   <g id="patch_2">
    <path d="M 236.134844 124.579063 
C 236.134844 110.018434 233.266717 95.59939 227.694606 82.147124 
C 222.122495 68.694857 213.954763 56.470982 203.658844 46.175063 
C 193.362925 35.879144 181.139049 27.711411 167.686783 22.1393 
C 154.234516 16.567189 139.815472 13.699063 125.254844 13.699063 
C 110.694216 13.699063 96.275171 16.567189 82.822905 22.1393 
C 69.370638 27.711411 57.146763 35.879144 46.850844 46.175063 
C 36.554925 56.470982 28.387192 68.694857 22.815081 82.147124 
C 17.24297 95.59939 14.374844 110.018434 14.374844 124.579062 
C 14.374844 139.139691 17.24297 153.558735 22.815081 167.011001 
C 28.387192 180.463268 36.554925 192.687143 46.850844 202.983062 
C 57.146763 213.278981 69.370638 221.446714 82.822905 227.018825 
C 96.275171 232.590936 110.694216 235.459063 125.254844 235.459063 
C 139.815472 235.459063 154.234516 232.590936 167.686783 227.018825 
C 181.139049 221.446714 193.362925 213.278981 203.658844 202.983062 
C 213.954763 192.687143 222.122495 180.463268 227.694606 167.011001 
C 233.266717 153.558735 236.134844 139.139691 236.134844 124.579063 
M 125.254844 124.579063 
C 125.254844 124.579063 125.254844 124.579063 125.254844 124.579063 
C 125.254844 124.579063 125.254844 124.579063 125.254844 124.579063 
C 125.254844 124.579063 125.254844 124.579063 125.254844 124.579063 
C 125.254844 124.579063 125.254844 124.579063 125.254844 124.579063 
C 125.254844 124.579063 125.254844 124.579063 125.254844 124.579063 
C 125.254844 124.579063 125.254844 124.579063 125.254844 124.579063 
C 125.254844 124.579063 125.254844 124.579063 125.254844 124.579063 
C 125.254844 124.579063 125.254844 124.579063 125.254844 124.579063 
C 125.254844 124.579063 125.254844 124.579063 125.254844 124.579063 
C 125.254844 124.579063 125.254844 124.579063 125.254844 124.579063 
C 125.254844 124.579063 125.254844 124.579063 125.254844 124.579063 
C 125.254844 124.579063 125.254844 124.579063 125.254844 124.579063 
C 125.254844 124.579063 125.254844 124.579063 125.254844 124.579063 
C 125.254844 124.579063 125.254844 124.579063 125.254844 124.579063 
C 125.254844 124.579063 125.254844 124.579063 125.254844 124.579063 
C 125.254844 124.579063 125.254844 124.579063 125.254844 124.579063 
z
" style="fill: #ffffff"/>
   </g>
   <g id="FillBetweenPolyCollection_1">
    <defs>
     <path id="mc11cdb493f" d="M 235.044576 -139.033155 
L 234.875428 -139.010886 
L 234.240943 -136.99646 
L 233.534796 -135.005236 
L 232.766453 -133.04041 
L 231.752481 -131.092737 
L 230.881629 -129.190828 
L 229.969079 -127.321101 
L 229.01808 -125.484591 
L 227.833471 -123.683872 
L 226.812514 -121.919681 
L 225.759938 -120.190915 
L 224.677411 -118.498118 
L 223.368581 -116.857344 
L 222.231171 -115.241304 
L 221.068424 -113.662484 
L 219.881724 -112.121197 
L 218.672427 -110.617711 
L 217.44187 -109.152245 
L 216.191377 -107.724972 
L 214.730401 -106.375055 
L 213.445341 -105.0277 
L 212.333331 -103.673367 
L 211.016101 -102.399693 
L 209.685396 -101.164398 
L 208.342483 -99.967383 
L 206.98862 -98.808502 
L 205.625058 -97.687565 
L 204.430671 -96.541432 
L 203.049098 -95.492983 
L 201.661398 -94.48172 
L 200.439388 -93.436605 
L 199.040399 -92.49619 
L 197.638749 -91.591816 
L 196.398279 -90.645385 
L 195.151883 -89.729684 
L 193.74307 -88.926348 
L 192.490155 -88.073267 
L 191.233912 -87.249901 
L 189.826742 -86.543308 
L 188.569276 -85.779929 
L 187.310937 -85.044971 
L 186.052486 -84.337981 
L 184.794663 -83.658478 
L 183.53819 -83.005956 
L 182.283766 -82.37988 
L 181.03207 -81.779691 
L 179.783759 -81.204805 
L 178.539464 -80.654611 
L 177.299792 -80.128478 
L 176.065323 -79.625747 
L 174.945022 -79.046404 
L 173.718966 -78.588328 
L 172.499661 -78.15171 
L 171.385511 -77.636154 
L 170.177398 -77.240568 
L 168.977339 -76.864332 
L 167.873029 -76.407967 
L 166.686463 -76.068869 
L 165.589374 -75.649365 
L 164.494742 -75.24775 
L 163.328847 -74.960056 
L 162.24312 -74.592276 
L 161.093438 -74.335206 
L 160.017491 -73.999096 
L 158.945151 -73.678561 
L 157.876592 -73.373175 
L 156.757607 -73.171224 
L 155.700045 -72.893367 
L 154.646628 -72.62926 
L 153.597449 -72.378477 
L 152.552581 -72.140596 
L 151.512077 -71.915199 
L 150.47597 -71.701871 
L 149.410127 -71.575131 
L 148.385404 -71.382415 
L 147.364987 -71.200454 
L 146.348829 -71.028862 
L 145.336863 -70.867262 
L 144.329006 -70.71529 
L 143.325156 -70.572591 
L 142.343078 -70.382108 
L 141.344909 -70.259914 
L 140.350443 -70.146088 
L 139.35952 -70.040327 
L 138.37196 -69.94234 
L 137.387574 -69.851855 
L 136.406155 -69.768617 
L 135.427487 -69.692389 
L 134.451343 -69.622951 
L 133.477482 -69.560103 
L 132.508952 -69.47864 
L 131.538054 -69.432034 
L 130.568795 -69.391572 
L 129.600904 -69.357133 
L 128.634106 -69.328614 
L 127.668121 -69.305935 
L 126.702778 -69.284671 
L 125.737456 -69.277222 
L 124.772238 -69.277886 
L 123.807031 -69.289313 
L 122.841591 -69.306486 
L 121.875632 -69.329441 
L 120.90887 -69.358235 
L 119.942733 -69.410685 
L 118.974254 -69.455036 
L 118.004271 -69.505498 
L 117.03252 -69.56221 
L 116.058743 -69.625332 
L 115.082692 -69.695044 
L 114.104128 -69.771545 
L 113.131907 -69.896028 
L 112.149184 -69.990061 
L 111.163409 -70.091526 
L 110.174387 -70.200691 
L 109.181938 -70.317842 
L 108.185896 -70.443278 
L 107.186111 -70.577314 
L 106.182448 -70.72028 
L 105.174789 -70.872516 
L 104.163032 -71.034379 
L 103.147094 -71.206233 
L 102.126909 -71.388454 
L 101.10243 -71.581428 
L 100.073629 -71.785547 
L 99.040495 -72.001214 
L 98.00304 -72.228834 
L 96.961292 -72.468822 
L 95.867392 -72.636917 
L 94.814296 -72.901267 
L 93.757068 -73.179364 
L 92.695819 -73.471632 
L 91.630684 -73.778498 
L 90.498342 -74.008038 
L 89.422786 -74.34437 
L 88.343833 -74.696694 
L 87.188287 -74.96976 
L 86.100017 -75.354699 
L 85.009038 -75.756996 
L 83.832121 -76.079286 
L 82.733356 -76.517263 
L 81.542333 -76.875228 
L 80.43703 -77.350941 
L 79.233255 -77.747154 
L 78.021844 -78.163323 
L 76.907889 -78.699516 
L 75.686176 -79.157747 
L 74.458205 -79.637993 
L 73.224501 -80.140951 
L 72.104112 -80.764981 
L 70.864112 -81.314721 
L 69.620075 -81.889003 
L 68.372629 -82.488437 
L 67.122426 -83.113612 
L 65.870144 -83.765089 
L 64.616479 -84.443404 
L 63.362149 -85.149067 
L 62.107893 -85.882562 
L 60.706619 -86.557252 
L 59.451855 -87.349523 
L 58.199561 -88.171014 
L 56.950546 -89.022095 
L 55.54613 -89.82358 
L 54.303528 -90.737021 
L 52.901817 -91.605889 
L 51.033774 -92.306823 
L 49.803726 -93.326186 
L 48.410008 -94.309077 
L 47.196301 -95.394169 
L 45.816309 -96.448402 
L 44.44373 -97.540042 
L 43.079791 -98.669368 
L 41.909009 -99.890902 
L 40.567943 -101.093306 
L 39.239146 -102.33389 
L 37.923883 -103.612754 
L 36.62343 -104.929951 
L 35.33907 -106.285492 
L 34.072095 -107.679339 
L 32.823805 -109.111411 
L 31.595513 -110.581582 
L 30.388543 -112.089677 
L 29.007905 -113.613109 
L 27.847047 -115.199758 
L 26.711754 -116.823553 
L 25.603464 -118.484123 
L 24.523671 -120.181045 
L 23.276464 -121.908665 
L 22.2589 -123.680231 
L 21.275269 -125.486479 
L 20.327795 -127.326674 
L 19.225584 -129.2084 
L 18.361529 -131.116938 
L 17.545369 -133.055982 
L 16.783982 -135.023619 
L 15.911519 -137.037161 
L 15.136693 -137.125441 
L 15.136693 -137.125441 
L 14.922901 -135.20282 
L 14.741692 -133.276636 
L 14.6849 -131.34181 
L 14.491784 -129.415082 
L 14.579743 -127.477192 
L 14.452734 -125.546018 
L 14.43568 -123.611958 
L 14.450613 -121.677552 
L 14.497268 -119.743282 
L 14.672096 -117.815532 
L 14.782379 -115.884691 
L 14.923606 -113.955373 
L 15.095534 -112.027994 
L 15.398718 -110.116229 
L 15.632646 -108.195915 
L 15.896964 -106.27883 
L 16.294996 -104.384548 
L 16.621041 -102.477266 
L 17.082044 -100.59773 
L 17.469884 -98.702183 
L 17.993502 -96.839393 
L 18.443301 -94.9576 
L 18.975462 -93.097675 
L 19.591263 -91.263463 
L 20.133036 -89.405798 
L 20.810638 -87.59343 
L 21.415081 -85.754966 
L 22.09647 -83.943898 
L 22.865563 -82.168034 
L 23.607906 -80.381716 
L 24.437607 -78.634001 
L 25.200627 -76.855649 
L 26.041336 -75.113032 
L 26.919544 -73.388945 
L 27.873829 -71.705486 
L 28.776048 -69.993986 
L 29.76692 -68.332377 
L 30.738621 -66.659447 
L 31.766081 -65.020152 
L 32.832637 -63.406138 
L 33.882566 -61.780636 
L 34.992792 -60.195767 
L 36.127491 -58.628291 
L 37.368061 -57.141162 
L 39.096235 -56.04541 
L 40.900323 -55.042562 
L 42.667166 -54.042522 
L 44.499513 -53.132781 
L 46.284685 -52.216244 
L 48.074172 -51.33734 
L 49.865682 -50.49434 
L 51.657438 -49.685799 
L 53.448021 -48.91046 
L 55.236268 -48.167195 
L 57.021201 -47.454959 
L 58.801987 -46.772764 
L 60.577903 -46.11966 
L 62.309452 -45.44586 
L 64.075501 -44.848591 
L 65.83501 -44.277765 
L 67.553786 -43.685164 
L 69.30063 -43.165176 
L 71.009147 -42.622755 
L 72.712989 -42.10487 
L 74.411714 -41.610615 
L 76.131193 -41.183653 
L 77.817676 -40.734152 
L 79.498494 -40.306349 
L 81.17351 -39.899609 
L 82.842645 -39.513352 
L 84.505759 -39.14683 
L 86.162896 -38.799612 
L 87.813921 -38.470834 
L 89.45899 -38.160227 
L 91.084368 -37.832255 
L 92.718624 -37.55699 
L 94.347121 -37.298346 
L 95.969763 -37.055183 
L 97.57764 -36.798188 
L 99.1904 -36.586975 
L 100.790506 -36.36351 
L 102.393727 -36.181682 
L 103.986538 -35.990195 
L 105.58123 -35.837125 
L 107.167369 -35.676282 
L 108.75418 -35.549445 
L 110.3344 -35.418008 
L 111.914603 -35.31743 
L 113.489763 -35.214405 
L 115.064283 -35.137654 
L 116.635347 -35.062164 
L 118.204899 -35.001015 
L 119.773593 -34.961406 
L 121.340548 -34.926944 
L 122.906685 -34.906508 
L 124.472237 -34.901209 
L 126.037447 -34.9016 
L 127.603023 -34.905718 
L 129.16918 -34.926021 
L 130.736159 -34.960351 
L 132.304803 -35.000841 
L 133.87437 -35.061858 
L 135.445455 -35.137217 
L 137.020135 -35.212803 
L 138.595342 -35.315704 
L 140.17543 -35.417152 
L 141.75569 -35.548464 
L 143.338489 -35.695109 
L 144.928953 -35.834889 
L 146.518034 -36.011502 
L 148.116348 -36.180186 
L 149.719902 -36.360913 
L 151.320088 -36.584273 
L 152.932634 -36.796325 
L 154.540583 -37.053214 
L 156.163637 -37.295322 
L 157.791886 -37.55479 
L 159.426592 -37.829027 
L 161.052069 -38.156916 
L 162.696857 -38.468327 
L 164.348383 -38.796121 
L 166.005216 -39.144129 
L 167.668863 -39.5097 
L 169.337675 -39.896732 
L 171.013254 -40.302555 
L 172.693729 -40.731117 
L 174.380801 -41.179736 
L 176.072371 -41.652395 
L 177.798767 -42.101624 
L 179.503236 -42.618682 
L 181.211364 -43.16182 
L 182.958335 -43.681752 
L 184.677771 -44.273586 
L 186.437416 -44.844381 
L 188.203602 -45.441627 
L 189.934721 -46.116098 
L 191.710766 -46.769175 
L 193.49168 -47.45135 
L 195.276739 -48.163573 
L 197.065109 -48.906832 
L 198.855812 -49.682173 
L 200.647683 -50.490726 
L 202.439301 -51.333747 
L 204.228886 -52.212686 
L 206.014141 -53.129272 
L 207.847131 -54.038585 
L 209.613996 -55.038744 
L 211.4175 -56.042191 
L 213.145657 -57.138069 
L 214.381682 -58.628671 
L 215.518821 -60.194393 
L 216.62489 -61.78217 
L 217.686394 -63.399954 
L 218.693597 -65.052011 
L 219.74573 -66.674973 
L 220.740665 -68.333615 
L 221.689571 -70.018919 
L 222.692282 -71.67485 
L 223.531513 -73.419467 
L 224.455534 -75.119423 
L 225.332326 -76.844552 
L 226.09034 -78.625679 
L 226.862491 -80.3988 
L 227.677162 -82.154349 
L 228.412021 -83.94437 
L 229.043897 -85.773925 
L 229.744424 -87.577361 
L 230.320111 -89.424716 
L 230.968802 -91.24758 
L 231.55593 -93.091246 
L 231.96587 -94.985476 
L 232.490531 -96.846028 
L 232.973173 -98.71818 
L 233.412219 -100.60115 
L 233.816188 -102.492007 
L 234.182889 -104.390443 
L 234.508652 -106.296245 
L 234.793983 -108.208328 
L 235.051988 -110.123994 
L 235.261019 -112.045442 
L 235.616943 -113.952401 
L 235.751866 -115.882758 
L 235.848841 -117.814844 
L 235.908598 -119.747815 
L 235.954266 -121.680296 
L 236.113783 -123.611611 
L 236.090686 -125.546312 
L 236.009927 -127.479286 
L 235.895028 -129.409717 
L 235.917176 -131.347461 
L 235.759093 -133.275936 
L 235.545482 -135.198843 
L 235.321629 -137.119589 
L 235.044576 -139.033155 
z
" style="stroke: #ffee9c"/>
    </defs>
    <g clip-path="url(#p2d90a8d635)">
     <use xlink:href="#mc11cdb493f" x="0" y="249.158125" style="fill: #ffee9c; stroke: #ffee9c"/>
    </g>
   </g>
   <g id="matplotlib.axis_1">
    <g id="xtick_1">
     <g id="line2d_1">
      <path d="M 125.254844 124.579063 
L 125.254844 13.699063 
" clip-path="url(#p2d90a8d635)" style="fill: none; stroke: #b0b0b0; stroke-width: 0.8; stroke-linecap: square"/>
     </g>
     <g id="text_1">
      <!-- N -->
      <g transform="translate(121.070469 7.958438) scale(0.1 -0.1)">
       <defs>
        <path id="DejaVuSans-Bold-4e" d="M 588 4666 
L 1931 4666 
L 3628 1466 
L 3628 4666 
L 4769 4666 
L 4769 0 
L 3425 0 
L 1728 3200 
L 1728 0 
L 588 0 
L 588 4666 
z
" transform="scale(0.015625)"/>
       </defs>
       <use xlink:href="#DejaVuSans-Bold-4e"/>
      </g>
     </g>
    </g>
    <g id="xtick_2">
     <g id="line2d_2">
      <path d="M 125.254844 124.579063 
L 203.658844 46.175063 
" clip-path="url(#p2d90a8d635)" style="fill: none; stroke: #b0b0b0; stroke-width: 0.8; stroke-linecap: square"/>
     </g>
    </g>
    <g id="xtick_3">
     <g id="line2d_3">
      <path d="M 125.254844 124.579063 
L 236.134844 124.579063 
" clip-path="url(#p2d90a8d635)" style="fill: none; stroke: #b0b0b0; stroke-width: 0.8; stroke-linecap: square"/>
     </g>
     <g id="text_2">
      <!-- E -->
      <g transform="translate(241.219219 127.338438) scale(0.1 -0.1)">
       <defs>
        <path id="DejaVuSans-Bold-45" d="M 588 4666 
L 3834 4666 
L 3834 3756 
L 1791 3756 
L 1791 2888 
L 3713 2888 
L 3713 1978 
L 1791 1978 
L 1791 909 
L 3903 909 
L 3903 0 
L 588 0 
L 588 4666 
z
" transform="scale(0.015625)"/>
       </defs>
       <use xlink:href="#DejaVuSans-Bold-45"/>
      </g>
     </g>
    </g>
    <g id="xtick_4">
     <g id="line2d_4">
      <path d="M 125.254844 124.579063 
L 203.658844 202.983062 
" clip-path="url(#p2d90a8d635)" style="fill: none; stroke: #b0b0b0; stroke-width: 0.8; stroke-linecap: square"/>
     </g>
    </g>
    <g id="xtick_5">
     <g id="line2d_5">
      <path d="M 125.254844 124.579063 
L 125.254844 235.459063 
" clip-path="url(#p2d90a8d635)" style="fill: none; stroke: #b0b0b0; stroke-width: 0.8; stroke-linecap: square"/>
     </g>
     <g id="text_3">
      <!-- S -->
      <g transform="translate(121.654062 246.718438) scale(0.1 -0.1)">
       <defs>
        <path id="DejaVuSans-Bold-53" d="M 3834 4519 
L 3834 3531 
Q 3450 3703 3084 3790 
Q 2719 3878 2394 3878 
Q 1963 3878 1756 3759 
Q 1550 3641 1550 3391 
Q 1550 3203 1689 3098 
Q 1828 2994 2194 2919 
L 2706 2816 
Q 3484 2659 3812 2340 
Q 4141 2022 4141 1434 
Q 4141 663 3683 286 
Q 3225 -91 2284 -91 
Q 1841 -91 1394 -6 
Q 947 78 500 244 
L 500 1259 
Q 947 1022 1364 901 
Q 1781 781 2169 781 
Q 2563 781 2772 912 
Q 2981 1044 2981 1288 
Q 2981 1506 2839 1625 
Q 2697 1744 2272 1838 
L 1806 1941 
Q 1106 2091 782 2419 
Q 459 2747 459 3303 
Q 459 4000 909 4375 
Q 1359 4750 2203 4750 
Q 2588 4750 2994 4692 
Q 3400 4634 3834 4519 
z
" transform="scale(0.015625)"/>
       </defs>
       <use xlink:href="#DejaVuSans-Bold-53"/>
      </g>
     </g>
    </g>
    <g id="xtick_6">
     <g id="line2d_6">
      <path d="M 125.254844 124.579063 
L 46.850844 202.983062 
" clip-path="url(#p2d90a8d635)" style="fill: none; stroke: #b0b0b0; stroke-width: 0.8; stroke-linecap: square"/>
     </g>
    </g>
    <g id="xtick_7">
     <g id="line2d_7">
      <path d="M 125.254844 124.579063 
L 14.374844 124.579063 
" clip-path="url(#p2d90a8d635)" style="fill: none; stroke: #b0b0b0; stroke-width: 0.8; stroke-linecap: square"/>
     </g>
     <g id="text_4">
      <!-- W -->
      <g transform="translate(0.36 127.338438) scale(0.1 -0.1)">
       <defs>
        <path id="DejaVuSans-Bold-57" d="M 191 4666 
L 1344 4666 
L 2150 1275 
L 2950 4666 
L 4109 4666 
L 4909 1275 
L 5716 4666 
L 6859 4666 
L 5759 0 
L 4372 0 
L 3525 3547 
L 2688 0 
L 1300 0 
L 191 4666 
z
" transform="scale(0.015625)"/>
       </defs>
       <use xlink:href="#DejaVuSans-Bold-57"/>
      </g>
     </g>
    </g>
    <g id="xtick_8">
     <g id="line2d_8">
      <path d="M 125.254844 124.579063 
L 46.850844 46.175063 
" clip-path="url(#p2d90a8d635)" style="fill: none; stroke: #b0b0b0; stroke-width: 0.8; stroke-linecap: square"/>
     </g>
    </g>
   </g>
   <g id="matplotlib.axis_2"/>
   <g id="patch_3">
    <path d="M 125.254844 124.579063 
C 125.254844 124.579063 125.254844 124.579063 125.254844 124.579063 
C 125.254844 124.579063 125.254844 124.579063 125.254844 124.579063 
L 125.254844 124.579063 
C 125.254844 124.579063 125.254844 124.579063 125.254844 124.579063 
C 125.254844 124.579063 125.254844 124.579063 125.254844 124.579063 
z
" clip-path="url(#p2d90a8d635)" style="fill: #d9d9d9"/>
   </g>
   <g id="patch_4">
    <path d="M 125.254844 124.579063 
C 125.254844 124.579063 125.254844 124.579063 125.254844 124.579063 
C 125.254844 124.579063 125.254844 124.579063 125.254844 124.579063 
L 125.254844 124.579063 
C 125.254844 124.579063 125.254844 124.579063 125.254844 124.579063 
C 125.254844 124.579063 125.254844 124.579063 125.254844 124.579063 
z
" clip-path="url(#p2d90a8d635)" style="fill: #d9d9d9"/>
   </g>
   <g id="patch_5">
    <path d="M 125.254844 124.579063 
C 125.254844 124.579063 125.254844 124.579063 125.254844 124.579063 
C 125.254844 124.579063 125.254844 124.579063 125.254844 124.579063 
L 125.254844 124.579063 
C 125.254844 124.579063 125.254844 124.579063 125.254844 124.579063 
C 125.254844 124.579063 125.254844 124.579063 125.254844 124.579063 
z
" clip-path="url(#p2d90a8d635)" style="fill: #d9d9d9"/>
   </g>
   <g id="patch_6">
    <path d="M 125.254844 124.579063 
C 125.254844 124.579063 125.254844 124.579063 125.254844 124.579063 
C 125.254844 124.579063 125.254844 124.579063 125.254844 124.579063 
L 125.254844 124.579063 
C 125.254844 124.579063 125.254844 124.579063 125.254844 124.579063 
C 125.254844 124.579063 125.254844 124.579063 125.254844 124.579063 
z
" clip-path="url(#p2d90a8d635)" style="fill: #d9d9d9"/>
   </g>
   <g id="patch_7">
    <path d="M 125.254844 124.579063 
C 125.254844 124.579063 125.254844 124.579063 125.254844 124.579063 
C 125.254844 124.579063 125.254844 124.579063 125.254844 124.579063 
L 125.254844 124.579063 
C 125.254844 124.579063 125.254844 124.579063 125.254844 124.579063 
C 125.254844 124.579063 125.254844 124.579063 125.254844 124.579063 
z
" clip-path="url(#p2d90a8d635)" style="fill: #d9d9d9"/>
   </g>
   <g id="patch_8">
    <path d="M 125.254844 124.579063 
C 125.254844 124.579063 125.254844 124.579063 125.254844 124.579063 
C 125.254844 124.579063 125.254844 124.579063 125.254844 124.579063 
L 125.254844 124.579063 
C 125.254844 124.579063 125.254844 124.579063 125.254844 124.579063 
C 125.254844 124.579063 125.254844 124.579063 125.254844 124.579063 
z
" clip-path="url(#p2d90a8d635)" style="fill: #d9d9d9"/>
   </g>
   <g id="patch_9">
    <path d="M 125.254844 124.579063 
C 125.254844 124.579063 125.254844 124.579063 125.254844 124.579063 
C 125.254844 124.579063 125.254844 124.579063 125.254844 124.579063 
L 137.759502 120.785816 
C 137.635343 120.37652 137.491164 119.973566 137.327486 119.578411 
C 137.163807 119.183255 136.980826 118.796374 136.779203 118.419164 
z
" clip-path="url(#p2d90a8d635)" style="fill: #d9d9d9"/>
   </g>
   <g id="patch_10">
    <path d="M 125.254844 124.579063 
C 125.254844 124.579063 125.254844 124.579063 125.254844 124.579063 
C 125.254844 124.579063 125.254844 124.579063 125.254844 124.579063 
L 125.254844 124.579063 
C 125.254844 124.579063 125.254844 124.579063 125.254844 124.579063 
C 125.254844 124.579063 125.254844 124.579063 125.254844 124.579063 
z
" clip-path="url(#p2d90a8d635)" style="fill: #d9d9d9"/>
   </g>
   <g id="patch_11">
    <path d="M 125.254844 124.579063 
C 125.254844 124.579063 125.254844 124.579063 125.254844 124.579063 
C 125.254844 124.579063 125.254844 124.579063 125.254844 124.579063 
L 138.962696 125.929168 
C 139.006887 125.48049 139.029022 125.029912 139.029022 124.579063 
C 139.029022 124.128213 139.006887 123.677635 138.962696 123.228957 
z
" clip-path="url(#p2d90a8d635)" style="fill: #d9d9d9"/>
   </g>
   <g id="patch_12">
    <path d="M 125.254844 124.579063 
C 125.254844 124.579063 125.254844 124.579063 125.254844 124.579063 
C 125.254844 124.579063 125.254844 124.579063 125.254844 124.579063 
L 133.591283 127.107894 
C 133.674055 126.835029 133.743381 126.558266 133.799009 126.278603 
C 133.854638 125.998939 133.896502 125.716713 133.924451 125.432944 
z
" clip-path="url(#p2d90a8d635)" style="fill: #d9d9d9"/>
   </g>
   <g id="patch_13">
    <path d="M 125.254844 124.579063 
C 125.254844 124.579063 125.254844 124.579063 125.254844 124.579063 
C 125.254844 124.579063 125.254844 124.579063 125.254844 124.579063 
L 136.120114 130.38667 
C 136.310205 130.031034 136.482722 129.666279 136.63704 129.293722 
C 136.791357 128.921166 136.927291 128.541258 137.044349 128.15537 
z
" clip-path="url(#p2d90a8d635)" style="fill: #d9d9d9"/>
   </g>
   <g id="patch_14">
    <path d="M 125.254844 124.579063 
C 125.254844 124.579063 125.254844 124.579063 125.254844 124.579063 
C 125.254844 124.579063 125.254844 124.579063 125.254844 124.579063 
L 128.621906 127.342339 
C 128.712352 127.23213 128.797332 127.117547 128.876541 126.999003 
C 128.955749 126.880459 129.029089 126.758098 129.096297 126.632362 
z
" clip-path="url(#p2d90a8d635)" style="fill: #d9d9d9"/>
   </g>
   <g id="patch_15">
    <path d="M 125.254844 124.579063 
C 125.254844 124.579063 125.254844 124.579063 125.254844 124.579063 
C 125.254844 124.579063 125.254844 124.579063 125.254844 124.579063 
L 125.254844 124.579063 
C 125.254844 124.579063 125.254844 124.579063 125.254844 124.579063 
C 125.254844 124.579063 125.254844 124.579063 125.254844 124.579063 
z
" clip-path="url(#p2d90a8d635)" style="fill: #d9d9d9"/>
   </g>
   <g id="patch_16">
    <path d="M 125.254844 124.579063 
C 125.254844 124.579063 125.254844 124.579063 125.254844 124.579063 
C 125.254844 124.579063 125.254844 124.579063 125.254844 124.579063 
L 125.254844 124.579063 
C 125.254844 124.579063 125.254844 124.579063 125.254844 124.579063 
C 125.254844 124.579063 125.254844 124.579063 125.254844 124.579063 
z
" clip-path="url(#p2d90a8d635)" style="fill: #d9d9d9"/>
   </g>
   <g id="patch_17">
    <path d="M 125.254844 124.579063 
C 125.254844 124.579063 125.254844 124.579063 125.254844 124.579063 
C 125.254844 124.579063 125.254844 124.579063 125.254844 124.579063 
L 125.254844 124.579063 
C 125.254844 124.579063 125.254844 124.579063 125.254844 124.579063 
C 125.254844 124.579063 125.254844 124.579063 125.254844 124.579063 
z
" clip-path="url(#p2d90a8d635)" style="fill: #d9d9d9"/>
   </g>
   <g id="patch_18">
    <path d="M 125.254844 124.579063 
C 125.254844 124.579063 125.254844 124.579063 125.254844 124.579063 
C 125.254844 124.579063 125.254844 124.579063 125.254844 124.579063 
L 125.254844 124.579063 
C 125.254844 124.579063 125.254844 124.579063 125.254844 124.579063 
C 125.254844 124.579063 125.254844 124.579063 125.254844 124.579063 
z
" clip-path="url(#p2d90a8d635)" style="fill: #d9d9d9"/>
   </g>
   <g id="patch_19">
    <path d="M 125.254844 124.579063 
C 125.254844 124.579063 125.254844 124.579063 125.254844 124.579063 
C 125.254844 124.579063 125.254844 124.579063 125.254844 124.579063 
L 125.254844 124.579063 
C 125.254844 124.579063 125.254844 124.579063 125.254844 124.579063 
C 125.254844 124.579063 125.254844 124.579063 125.254844 124.579063 
z
" clip-path="url(#p2d90a8d635)" style="fill: #d9d9d9"/>
   </g>
   <g id="patch_20">
    <path d="M 125.254844 124.579063 
C 125.254844 124.579063 125.254844 124.579063 125.254844 124.579063 
C 125.254844 124.579063 125.254844 124.579063 125.254844 124.579063 
L 122.157671 134.789073 
C 122.49186 134.890448 122.830824 134.975355 123.173341 135.043485 
C 123.515857 135.111616 123.861512 135.162889 124.209056 135.197119 
z
" clip-path="url(#p2d90a8d635)" style="fill: #d9d9d9"/>
   </g>
   <g id="patch_21">
    <path d="M 125.254844 124.579063 
C 125.254844 124.579063 125.254844 124.579063 125.254844 124.579063 
C 125.254844 124.579063 125.254844 124.579063 125.254844 124.579063 
L 125.254844 124.579063 
C 125.254844 124.579063 125.254844 124.579063 125.254844 124.579063 
C 125.254844 124.579063 125.254844 124.579063 125.254844 124.579063 
z
" clip-path="url(#p2d90a8d635)" style="fill: #d9d9d9"/>
   </g>
   <g id="patch_22">
    <path d="M 125.254844 124.579063 
C 125.254844 124.579063 125.254844 124.579063 125.254844 124.579063 
C 125.254844 124.579063 125.254844 124.579063 125.254844 124.579063 
L 125.254844 124.579063 
C 125.254844 124.579063 125.254844 124.579063 125.254844 124.579063 
C 125.254844 124.579063 125.254844 124.579063 125.254844 124.579063 
z
" clip-path="url(#p2d90a8d635)" style="fill: #d9d9d9"/>
   </g>
   <g id="patch_23">
    <path d="M 125.254844 124.579063 
C 125.254844 124.579063 125.254844 124.579063 125.254844 124.579063 
C 125.254844 124.579063 125.254844 124.579063 125.254844 124.579063 
L 125.254844 124.579063 
C 125.254844 124.579063 125.254844 124.579063 125.254844 124.579063 
C 125.254844 124.579063 125.254844 124.579063 125.254844 124.579063 
z
" clip-path="url(#p2d90a8d635)" style="fill: #d9d9d9"/>
   </g>
   <g id="patch_24">
    <path d="M 125.254844 124.579063 
C 125.254844 124.579063 125.254844 124.579063 125.254844 124.579063 
C 125.254844 124.579063 125.254844 124.579063 125.254844 124.579063 
L 114.389574 130.38667 
C 114.579665 130.742307 114.787103 131.088396 115.011138 131.423688 
C 115.235173 131.75898 115.475535 132.08307 115.731355 132.394788 
z
" clip-path="url(#p2d90a8d635)" style="fill: #d9d9d9"/>
   </g>
   <g id="patch_25">
    <path d="M 125.254844 124.579063 
C 125.254844 124.579063 125.254844 124.579063 125.254844 124.579063 
C 125.254844 124.579063 125.254844 124.579063 125.254844 124.579063 
L 115.934422 127.406382 
C 116.026964 127.711453 116.134429 128.011797 116.256428 128.306328 
C 116.378427 128.60086 116.514813 128.889224 116.665094 129.17038 
z
" clip-path="url(#p2d90a8d635)" style="fill: #d9d9d9"/>
   </g>
   <g id="patch_26">
    <path d="M 125.254844 124.579063 
C 125.254844 124.579063 125.254844 124.579063 125.254844 124.579063 
C 125.254844 124.579063 125.254844 124.579063 125.254844 124.579063 
L 125.254844 124.579063 
C 125.254844 124.579063 125.254844 124.579063 125.254844 124.579063 
C 125.254844 124.579063 125.254844 124.579063 125.254844 124.579063 
z
" clip-path="url(#p2d90a8d635)" style="fill: #d9d9d9"/>
   </g>
   <g id="patch_27">
    <path d="M 125.254844 124.579063 
C 125.254844 124.579063 125.254844 124.579063 125.254844 124.579063 
C 125.254844 124.579063 125.254844 124.579063 125.254844 124.579063 
L 125.254844 124.579063 
C 125.254844 124.579063 125.254844 124.579063 125.254844 124.579063 
C 125.254844 124.579063 125.254844 124.579063 125.254844 124.579063 
z
" clip-path="url(#p2d90a8d635)" style="fill: #d9d9d9"/>
   </g>
   <g id="patch_28">
    <path d="M 125.254844 124.579063 
C 125.254844 124.579063 125.254844 124.579063 125.254844 124.579063 
C 125.254844 124.579063 125.254844 124.579063 125.254844 124.579063 
L 125.254844 124.579063 
C 125.254844 124.579063 125.254844 124.579063 125.254844 124.579063 
C 125.254844 124.579063 125.254844 124.579063 125.254844 124.579063 
z
" clip-path="url(#p2d90a8d635)" style="fill: #d9d9d9"/>
   </g>
   <g id="patch_29">
    <path d="M 125.254844 124.579063 
C 125.254844 124.579063 125.254844 124.579063 125.254844 124.579063 
C 125.254844 124.579063 125.254844 124.579063 125.254844 124.579063 
L 125.254844 124.579063 
C 125.254844 124.579063 125.254844 124.579063 125.254844 124.579063 
C 125.254844 124.579063 125.254844 124.579063 125.254844 124.579063 
z
" clip-path="url(#p2d90a8d635)" style="fill: #d9d9d9"/>
   </g>
   <g id="patch_30">
    <path d="M 125.254844 124.579063 
C 125.254844 124.579063 125.254844 124.579063 125.254844 124.579063 
C 125.254844 124.579063 125.254844 124.579063 125.254844 124.579063 
L 125.254844 124.579063 
C 125.254844 124.579063 125.254844 124.579063 125.254844 124.579063 
C 125.254844 124.579063 125.254844 124.579063 125.254844 124.579063 
z
" clip-path="url(#p2d90a8d635)" style="fill: #d9d9d9"/>
   </g>
   <g id="patch_31">
    <path d="M 125.254844 124.579063 
C 125.254844 124.579063 125.254844 124.579063 125.254844 124.579063 
C 125.254844 124.579063 125.254844 124.579063 125.254844 124.579063 
L 125.254844 124.579063 
C 125.254844 124.579063 125.254844 124.579063 125.254844 124.579063 
C 125.254844 124.579063 125.254844 124.579063 125.254844 124.579063 
z
" clip-path="url(#p2d90a8d635)" style="fill: #d9d9d9"/>
   </g>
   <g id="patch_32">
    <path d="M 125.254844 124.579063 
C 125.254844 124.579063 125.254844 124.579063 125.254844 124.579063 
C 125.254844 124.579063 125.254844 124.579063 125.254844 124.579063 
L 125.254844 124.579063 
C 125.254844 124.579063 125.254844 124.579063 125.254844 124.579063 
C 125.254844 124.579063 125.254844 124.579063 125.254844 124.579063 
z
" clip-path="url(#p2d90a8d635)" style="fill: #d9d9d9"/>
   </g>
   <g id="patch_33">
    <path d="M 125.254844 124.579063 
C 125.254844 124.579063 125.254844 124.579063 125.254844 124.579063 
C 125.254844 124.579063 125.254844 124.579063 125.254844 124.579063 
L 125.254844 124.579063 
C 125.254844 124.579063 125.254844 124.579063 125.254844 124.579063 
C 125.254844 124.579063 125.254844 124.579063 125.254844 124.579063 
z
" clip-path="url(#p2d90a8d635)" style="fill: #d9d9d9"/>
   </g>
   <g id="patch_34">
    <path d="M 125.254844 124.579063 
C 125.254844 124.579063 125.254844 124.579063 125.254844 124.579063 
C 125.254844 124.579063 125.254844 124.579063 125.254844 124.579063 
L 125.254844 124.579063 
C 125.254844 124.579063 125.254844 124.579063 125.254844 124.579063 
C 125.254844 124.579063 125.254844 124.579063 125.254844 124.579063 
z
" clip-path="url(#p2d90a8d635)" style="fill: #d9d9d9"/>
   </g>
   <g id="patch_35">
    <path d="M 125.254844 124.579063 
C 125.254844 124.579063 125.254844 124.579063 125.254844 124.579063 
C 125.254844 124.579063 125.254844 124.579063 125.254844 124.579063 
L 128.478177 91.852014 
C 127.406972 91.746509 126.331232 91.693661 125.254844 91.693661 
C 124.178455 91.693661 123.102716 91.746509 122.031511 91.852014 
z
" clip-path="url(#p2d90a8d635)" style="fill: #badbb8"/>
   </g>
   <g id="patch_36">
    <path d="M 125.254844 124.579063 
C 125.254844 124.579063 125.254844 124.579063 125.254844 124.579063 
C 125.254844 124.579063 125.254844 124.579063 125.254844 124.579063 
L 135.448888 90.973803 
C 134.348937 90.640137 133.233268 90.360676 132.105909 90.13643 
C 130.97855 89.912185 129.840861 89.743425 128.696951 89.630759 
z
" clip-path="url(#p2d90a8d635)" style="fill: #badbb8"/>
   </g>
   <g id="patch_37">
    <path d="M 125.254844 124.579063 
C 125.254844 124.579063 125.254844 124.579063 125.254844 124.579063 
C 125.254844 124.579063 125.254844 124.579063 125.254844 124.579063 
L 135.313916 105.759863 
C 134.697935 105.430614 134.066161 105.131807 133.420874 104.864521 
C 132.775588 104.597235 132.117567 104.361791 131.44919 104.159041 
z
" clip-path="url(#p2d90a8d635)" style="fill: #badbb8"/>
   </g>
   <g id="patch_38">
    <path d="M 125.254844 124.579063 
C 125.254844 124.579063 125.254844 124.579063 125.254844 124.579063 
C 125.254844 124.579063 125.254844 124.579063 125.254844 124.579063 
L 140.886294 105.532085 
C 140.262858 105.020444 139.614678 104.539721 138.944094 104.091651 
C 138.273511 103.643582 137.581332 103.228706 136.870059 102.848523 
z
" clip-path="url(#p2d90a8d635)" style="fill: #badbb8"/>
   </g>
   <g id="patch_39">
    <path d="M 125.254844 124.579063 
C 125.254844 124.579063 125.254844 124.579063 125.254844 124.579063 
C 125.254844 124.579063 125.254844 124.579063 125.254844 124.579063 
L 143.697 109.443976 
C 143.201606 108.840336 142.676874 108.261383 142.124699 107.709208 
C 141.572523 107.157032 140.99357 106.6323 140.389931 106.136906 
z
" clip-path="url(#p2d90a8d635)" style="fill: #badbb8"/>
   </g>
   <g id="patch_40">
    <path d="M 125.254844 124.579063 
C 125.254844 124.579063 125.254844 124.579063 125.254844 124.579063 
C 125.254844 124.579063 125.254844 124.579063 125.254844 124.579063 
L 145.941701 113.521707 
C 145.579778 112.844595 145.184828 112.185661 144.758278 111.547284 
C 144.331729 110.908908 143.874094 110.291858 143.387026 109.698365 
z
" clip-path="url(#p2d90a8d635)" style="fill: #badbb8"/>
   </g>
   <g id="patch_41">
    <path d="M 136.779203 118.419164 
C 136.980826 118.796374 137.163807 119.183255 137.327486 119.578411 
C 137.491164 119.973566 137.635343 120.37652 137.759502 120.785816 
L 144.805526 118.648428 
C 144.611407 118.008505 144.385987 117.378498 144.13008 116.760684 
C 143.874173 116.142869 143.588087 115.537991 143.272856 114.948235 
z
" clip-path="url(#p2d90a8d635)" style="fill: #badbb8"/>
   </g>
   <g id="patch_42">
    <path d="M 125.254844 124.579063 
C 125.254844 124.579063 125.254844 124.579063 125.254844 124.579063 
C 125.254844 124.579063 125.254844 124.579063 125.254844 124.579063 
L 139.631761 123.16306 
C 139.585413 122.692482 139.515989 122.224463 139.423739 121.760694 
C 139.33149 121.296925 139.216526 120.837964 139.079264 120.385471 
z
" clip-path="url(#p2d90a8d635)" style="fill: #badbb8"/>
   </g>
   <g id="patch_43">
    <path d="M 138.962696 123.228957 
C 139.006887 123.677635 139.029022 124.128213 139.029022 124.579063 
C 139.029022 125.029912 139.006887 125.48049 138.962696 125.929168 
L 151.622424 127.176042 
C 151.707427 126.312992 151.750006 125.446289 151.750006 124.579063 
C 151.750006 123.711836 151.707427 122.845133 151.622424 121.982083 
z
" clip-path="url(#p2d90a8d635)" style="fill: #badbb8"/>
   </g>
   <g id="patch_44">
    <path d="M 133.924451 125.432944 
C 133.896502 125.716713 133.854638 125.998939 133.799009 126.278603 
C 133.743381 126.558266 133.674055 126.835029 133.591283 127.107894 
L 145.674865 130.773408 
C 145.877615 130.105031 146.047428 129.427101 146.183689 128.742069 
C 146.319951 128.057036 146.422497 127.365727 146.490957 126.670637 
z
" clip-path="url(#p2d90a8d635)" style="fill: #badbb8"/>
   </g>
   <g id="patch_45">
    <path d="M 137.044349 128.15537 
C 136.927291 128.541258 136.791357 128.921166 136.63704 129.293722 
C 136.482722 129.666279 136.310205 130.031034 136.120114 130.38667 
L 152.688306 139.242553 
C 153.168264 138.344615 153.603846 137.423654 153.99348 136.482995 
C 154.383113 135.542337 154.726328 134.583115 155.021885 133.608796 
z
" clip-path="url(#p2d90a8d635)" style="fill: #badbb8"/>
   </g>
   <g id="patch_46">
    <path d="M 129.096297 126.632362 
C 129.029089 126.758098 128.955749 126.880459 128.876541 126.999003 
C 128.797332 127.117547 128.712352 127.23213 128.621906 127.342339 
L 145.17465 140.926825 
C 145.709736 140.27482 146.212489 139.596936 146.681091 138.895623 
C 147.149694 138.19431 147.583581 137.470413 147.981186 136.726546 
z
" clip-path="url(#p2d90a8d635)" style="fill: #badbb8"/>
   </g>
   <g id="patch_47">
    <path d="M 125.254844 124.579063 
C 125.254844 124.579063 125.254844 124.579063 125.254844 124.579063 
C 125.254844 124.579063 125.254844 124.579063 125.254844 124.579063 
L 143.791464 147.165999 
C 144.530768 146.559268 145.239838 145.916605 145.916112 145.240331 
C 146.592386 144.564056 147.235049 143.854987 147.841781 143.115683 
z
" clip-path="url(#p2d90a8d635)" style="fill: #badbb8"/>
   </g>
   <g id="patch_48">
    <path d="M 125.254844 124.579063 
C 125.254844 124.579063 125.254844 124.579063 125.254844 124.579063 
C 125.254844 124.579063 125.254844 124.579063 125.254844 124.579063 
L 142.556252 156.947721 
C 143.615727 156.38142 144.646759 155.763443 145.645625 155.096023 
C 146.64449 154.428602 147.609985 153.712542 148.538623 152.950429 
z
" clip-path="url(#p2d90a8d635)" style="fill: #badbb8"/>
   </g>
   <g id="patch_49">
    <path d="M 125.254844 124.579063 
C 125.254844 124.579063 125.254844 124.579063 125.254844 124.579063 
C 125.254844 124.579063 125.254844 124.579063 125.254844 124.579063 
L 134.884346 156.323276 
C 135.923381 156.008088 136.946316 155.642076 137.949454 155.226563 
C 138.952592 154.811049 139.934726 154.346535 140.892306 153.834697 
z
" clip-path="url(#p2d90a8d635)" style="fill: #badbb8"/>
   </g>
   <g id="patch_50">
    <path d="M 125.254844 124.579063 
C 125.254844 124.579063 125.254844 124.579063 125.254844 124.579063 
C 125.254844 124.579063 125.254844 124.579063 125.254844 124.579063 
L 127.988599 152.335348 
C 128.897104 152.245868 129.800668 152.111837 130.696027 151.933739 
C 131.591387 151.755641 132.477462 151.53369 133.351054 151.268689 
z
" clip-path="url(#p2d90a8d635)" style="fill: #badbb8"/>
   </g>
   <g id="patch_51">
    <path d="M 125.254844 124.579063 
C 125.254844 124.579063 125.254844 124.579063 125.254844 124.579063 
C 125.254844 124.579063 125.254844 124.579063 125.254844 124.579063 
L 123.904738 138.286915 
C 124.353417 138.331106 124.803994 138.353241 125.254844 138.353241 
C 125.705693 138.353241 126.156271 138.331106 126.604949 138.286915 
z
" clip-path="url(#p2d90a8d635)" style="fill: #badbb8"/>
   </g>
   <g id="patch_52">
    <path d="M 124.209056 135.197119 
C 123.861512 135.162889 123.515857 135.111616 123.173341 135.043485 
C 122.830824 134.975355 122.49186 134.890448 122.157671 134.789073 
L 119.060498 144.999084 
C 119.728876 145.201834 120.406805 145.371647 121.091838 145.507908 
C 121.77687 145.64417 122.468179 145.746716 123.163269 145.815176 
z
" clip-path="url(#p2d90a8d635)" style="fill: #badbb8"/>
   </g>
   <g id="patch_53">
    <path d="M 125.254844 124.579063 
C 125.254844 124.579063 125.254844 124.579063 125.254844 124.579063 
C 125.254844 124.579063 125.254844 124.579063 125.254844 124.579063 
L 118.44482 137.319721 
C 118.861841 137.542623 119.289554 137.744916 119.726415 137.92587 
C 120.163276 138.106824 120.608758 138.26622 121.061252 138.403482 
z
" clip-path="url(#p2d90a8d635)" style="fill: #badbb8"/>
   </g>
   <g id="patch_54">
    <path d="M 125.254844 124.579063 
C 125.254844 124.579063 125.254844 124.579063 125.254844 124.579063 
C 125.254844 124.579063 125.254844 124.579063 125.254844 124.579063 
L 112.002637 140.726923 
C 112.53118 141.160688 113.080702 141.568241 113.649217 141.94811 
C 114.217732 142.32798 114.804555 142.679708 115.407566 143.002024 
z
" clip-path="url(#p2d90a8d635)" style="fill: #badbb8"/>
   </g>
   <g id="patch_55">
    <path d="M 125.254844 124.579063 
C 125.254844 124.579063 125.254844 124.579063 125.254844 124.579063 
C 125.254844 124.579063 125.254844 124.579063 125.254844 124.579063 
L 103.43379 142.487139 
C 104.019948 143.201374 104.640819 143.886401 105.294162 144.539744 
C 105.947505 145.193087 106.632532 145.813959 107.346767 146.400117 
z
" clip-path="url(#p2d90a8d635)" style="fill: #badbb8"/>
   </g>
   <g id="patch_56">
    <path d="M 115.731355 132.394788 
C 115.475535 132.08307 115.235173 131.75898 115.011138 131.423688 
C 114.787103 131.088396 114.579665 130.742307 114.389574 130.38667 
L 91.765833 142.479312 
C 92.351734 143.575457 92.991101 144.642176 93.681623 145.675614 
C 94.372144 146.709053 95.112989 147.707966 95.90148 148.668746 
z
" clip-path="url(#p2d90a8d635)" style="fill: #badbb8"/>
   </g>
   <g id="patch_57">
    <path d="M 116.665094 129.17038 
C 116.514813 128.889224 116.378427 128.60086 116.256428 128.306328 
C 116.134429 128.011797 116.026964 127.711453 115.934422 127.406382 
L 107.570586 129.943523 
C 107.746173 130.522355 107.950073 131.092218 108.18155 131.651052 
C 108.413027 132.209887 108.671801 132.757019 108.956939 133.290474 
z
" clip-path="url(#p2d90a8d635)" style="fill: #badbb8"/>
   </g>
   <g id="patch_58">
    <path d="M 125.254844 124.579063 
C 125.254844 124.579063 125.254844 124.579063 125.254844 124.579063 
C 125.254844 124.579063 125.254844 124.579063 125.254844 124.579063 
L 88.987276 128.151106 
C 89.104194 129.338198 89.279325 130.518834 89.512035 131.688749 
C 89.744746 132.858665 90.034756 134.01645 90.381018 135.157922 
z
" clip-path="url(#p2d90a8d635)" style="fill: #badbb8"/>
   </g>
   <g id="patch_59">
    <path d="M 125.254844 124.579063 
C 125.254844 124.579063 125.254844 124.579063 125.254844 124.579063 
C 125.254844 124.579063 125.254844 124.579063 125.254844 124.579063 
L 97.498558 121.845307 
C 97.409078 122.753812 97.364258 123.666162 97.364258 124.579062 
C 97.364258 125.491963 97.409078 126.404313 97.498558 127.312818 
z
" clip-path="url(#p2d90a8d635)" style="fill: #badbb8"/>
   </g>
   <g id="patch_60">
    <path d="M 125.254844 124.579063 
C 125.254844 124.579063 125.254844 124.579063 125.254844 124.579063 
C 125.254844 124.579063 125.254844 124.579063 125.254844 124.579063 
L 115.044833 121.48189 
C 114.943458 121.816078 114.858552 122.155043 114.790421 122.497559 
C 114.72229 122.840076 114.671017 123.18573 114.636787 123.533275 
z
" clip-path="url(#p2d90a8d635)" style="fill: #badbb8"/>
   </g>
   <g id="patch_61">
    <path d="M 125.254844 124.579063 
C 125.254844 124.579063 125.254844 124.579063 125.254844 124.579063 
C 125.254844 124.579063 125.254844 124.579063 125.254844 124.579063 
L 115.091314 119.146543 
C 114.9135 119.47921 114.752126 119.820408 114.607774 120.168902 
C 114.463423 120.517396 114.336269 120.872768 114.226772 121.233733 
z
" clip-path="url(#p2d90a8d635)" style="fill: #badbb8"/>
   </g>
   <g id="patch_62">
    <path d="M 125.254844 124.579063 
C 125.254844 124.579063 125.254844 124.579063 125.254844 124.579063 
C 125.254844 124.579063 125.254844 124.579063 125.254844 124.579063 
L 117.725865 118.400189 
C 117.523621 118.646624 117.333598 118.90284 117.156483 119.167911 
C 116.979368 119.432983 116.815374 119.70659 116.665094 119.987745 
z
" clip-path="url(#p2d90a8d635)" style="fill: #badbb8"/>
   </g>
   <g id="patch_63">
    <path d="M 125.254844 124.579063 
C 125.254844 124.579063 125.254844 124.579063 125.254844 124.579063 
C 125.254844 124.579063 125.254844 124.579063 125.254844 124.579063 
L 118.486227 116.331479 
C 118.216271 116.553026 117.957356 116.787694 117.710415 117.034634 
C 117.463475 117.281574 117.228807 117.54049 117.007261 117.810446 
z
" clip-path="url(#p2d90a8d635)" style="fill: #badbb8"/>
   </g>
   <g id="patch_64">
    <path d="M 125.254844 124.579063 
C 125.254844 124.579063 125.254844 124.579063 125.254844 124.579063 
C 125.254844 124.579063 125.254844 124.579063 125.254844 124.579063 
L 118.44482 111.838404 
C 118.027799 112.061306 117.621974 112.304549 117.228809 112.567253 
C 116.835645 112.829957 116.455615 113.111806 116.090094 113.411782 
z
" clip-path="url(#p2d90a8d635)" style="fill: #badbb8"/>
   </g>
   <g id="patch_65">
    <path d="M 125.254844 124.579063 
C 125.254844 124.579063 125.254844 124.579063 125.254844 124.579063 
C 125.254844 124.579063 125.254844 124.579063 125.254844 124.579063 
L 119.460564 105.477881 
C 118.835354 105.667537 118.219832 105.887774 117.616222 106.137798 
C 117.012612 106.387821 116.421641 106.667329 115.845444 106.975313 
z
" clip-path="url(#p2d90a8d635)" style="fill: #badbb8"/>
   </g>
   <g id="patch_66">
    <path d="M 125.254844 124.579063 
C 125.254844 124.579063 125.254844 124.579063 125.254844 124.579063 
C 125.254844 124.579063 125.254844 124.579063 125.254844 124.579063 
L 122.003359 91.566182 
C 120.922798 91.672608 119.848114 91.832023 118.783188 92.04385 
C 117.718261 92.255677 116.664377 92.519661 115.625342 92.834849 
z
" clip-path="url(#p2d90a8d635)" style="fill: #badbb8"/>
   </g>
   <g id="patch_67">
    <path d="M 122.031511 91.852014 
C 123.102716 91.746509 124.178455 91.693661 125.254844 91.693661 
C 126.331232 91.693661 127.406972 91.746509 128.478177 91.852014 
L 128.589359 90.723165 
C 127.481205 90.614021 126.36836 90.559351 125.254844 90.559351 
C 124.141328 90.559351 123.028483 90.614021 121.920329 90.723165 
z
" clip-path="url(#p2d90a8d635)" style="fill: #a1a1d8"/>
   </g>
   <g id="patch_68">
    <path d="M 128.696951 89.630759 
C 129.840861 89.743425 130.97855 89.912185 132.105909 90.13643 
C 133.233268 90.360676 134.348937 90.640137 135.448888 90.973803 
L 139.163415 78.728649 
C 137.662662 78.2734 136.140463 77.892109 134.602315 77.586153 
C 133.064167 77.280196 131.511924 77.049942 129.951193 76.896224 
z
" clip-path="url(#p2d90a8d635)" style="fill: #a1a1d8"/>
   </g>
   <g id="patch_69">
    <path d="M 131.44919 104.159041 
C 132.117567 104.361791 132.775588 104.597235 133.420874 104.864521 
C 134.066161 105.131807 134.697935 105.430614 135.313916 105.759863 
L 141.42254 94.331431 
C 140.432489 93.802238 139.417054 93.321973 138.379901 92.89237 
C 137.342749 92.462768 136.285129 92.084345 135.210862 91.75847 
z
" clip-path="url(#p2d90a8d635)" style="fill: #a1a1d8"/>
   </g>
   <g id="patch_70">
    <path d="M 136.870059 102.848523 
C 137.581332 103.228706 138.273511 103.643582 138.944094 104.091651 
C 139.614678 104.539721 140.262858 105.020444 140.886294 105.532085 
L 153.838395 89.749905 
C 152.698384 88.814323 151.513127 87.935276 150.286903 87.115939 
C 149.060679 86.296602 147.794967 85.537964 146.494338 84.842763 
z
" clip-path="url(#p2d90a8d635)" style="fill: #a1a1d8"/>
   </g>
   <g id="patch_71">
    <path d="M 140.389931 106.136906 
C 140.99357 106.6323 141.572523 107.157032 142.124699 107.709208 
C 142.676874 108.261383 143.201606 108.840336 143.697 109.443976 
L 165.659585 91.419749 
C 164.574231 90.097241 163.4246 88.828818 162.214844 87.619063 
C 161.005088 86.409307 159.736665 85.259675 158.414158 84.174321 
z
" clip-path="url(#p2d90a8d635)" style="fill: #a1a1d8"/>
   </g>
   <g id="patch_72">
    <path d="M 143.387026 109.698365 
C 143.874094 110.291858 144.331729 110.908908 144.758278 111.547284 
C 145.184828 112.185661 145.579778 112.844595 145.941701 113.521707 
L 185.260258 92.5055 
C 184.210443 90.541433 183.06483 88.630093 181.827557 86.778384 
C 180.590284 84.926675 179.262844 83.136828 177.85003 81.415309 
z
" clip-path="url(#p2d90a8d635)" style="fill: #a1a1d8"/>
   </g>
   <g id="patch_73">
    <path d="M 143.272856 114.948235 
C 143.588087 115.537991 143.874173 116.142869 144.13008 116.760684 
C 144.385987 117.378498 144.611407 118.008505 144.805526 118.648428 
L 189.288246 105.154742 
C 188.652459 103.058833 187.914152 100.995403 187.075991 98.971905 
C 186.237831 96.948406 185.300827 94.967279 184.268365 93.035678 
z
" clip-path="url(#p2d90a8d635)" style="fill: #a1a1d8"/>
   </g>
   <g id="patch_74">
    <path d="M 139.079264 120.385471 
C 139.216526 120.837964 139.33149 121.296925 139.423739 121.760694 
C 139.515989 122.224463 139.585413 122.692482 139.631761 123.16306 
L 175.620709 119.618458 
C 175.458341 117.969908 175.215132 116.330323 174.891959 114.705626 
C 174.568787 113.080929 174.166042 111.473079 173.685177 109.887881 
z
" clip-path="url(#p2d90a8d635)" style="fill: #a1a1d8"/>
   </g>
   <g id="patch_75">
    <path d="M 151.622424 121.982083 
C 151.707427 122.845133 151.750006 123.711836 151.750006 124.579063 
C 151.750006 125.446289 151.707427 126.312992 151.622424 127.176042 
L 178.873402 129.86003 
C 179.046256 128.105014 179.132839 126.34257 179.132839 124.579063 
C 179.132839 122.815555 179.046256 121.053111 178.873402 119.298095 
z
" clip-path="url(#p2d90a8d635)" style="fill: #a1a1d8"/>
   </g>
   <g id="patch_76">
    <path d="M 146.490957 126.670637 
C 146.422497 127.365727 146.319951 128.057036 146.183689 128.742069 
C 146.047428 129.427101 145.877615 130.105031 145.674865 130.773408 
L 189.828622 144.167304 
C 190.469774 142.053708 191.006768 139.909907 191.437665 137.743644 
C 191.868561 135.577382 192.19284 133.391269 192.409331 131.193202 
z
" clip-path="url(#p2d90a8d635)" style="fill: #a1a1d8"/>
   </g>
   <g id="patch_77">
    <path d="M 155.021885 133.608796 
C 154.726328 134.583115 154.383113 135.542337 153.99348 136.482995 
C 153.603846 137.423654 153.168264 138.344615 152.688306 139.242553 
L 172.615458 149.893838 
C 173.444048 148.343654 174.196029 146.753724 174.868685 145.129788 
C 175.541341 143.505853 176.133861 141.849872 176.644104 140.167824 
z
" clip-path="url(#p2d90a8d635)" style="fill: #a1a1d8"/>
   </g>
   <g id="patch_78">
    <path d="M 147.981186 136.726546 
C 147.583581 137.470413 147.149694 138.19431 146.681091 138.895623 
C 146.212489 139.596936 145.709736 140.27482 145.17465 140.926825 
L 165.939206 157.967855 
C 167.032071 156.636196 168.058896 155.251682 169.015973 153.819314 
C 169.97305 152.386947 170.859225 150.908454 171.671297 149.389174 
z
" clip-path="url(#p2d90a8d635)" style="fill: #a1a1d8"/>
   </g>
   <g id="patch_79">
    <path d="M 147.841781 143.115683 
C 147.235049 143.854987 146.592386 144.564056 145.916112 145.240331 
C 145.239838 145.916605 144.530768 146.559268 143.791464 147.165999 
L 157.715989 164.133082 
C 159.010651 163.07058 160.252367 161.945155 161.436651 160.76087 
C 162.620936 159.576585 163.746362 158.33487 164.808863 157.040207 
z
" clip-path="url(#p2d90a8d635)" style="fill: #a1a1d8"/>
   </g>
   <g id="patch_80">
    <path d="M 148.538623 152.950429 
C 147.609985 153.712542 146.64449 154.428602 145.645625 155.096023 
C 144.646759 155.763443 143.615727 156.38142 142.556252 156.947721 
L 151.064417 172.865378 
C 152.644901 172.020593 154.182955 171.098719 155.673024 170.103086 
C 157.163093 169.107454 158.603381 168.039263 159.988687 166.902372 
z
" clip-path="url(#p2d90a8d635)" style="fill: #a1a1d8"/>
   </g>
   <g id="patch_81">
    <path d="M 140.892306 153.834697 
C 139.934726 154.346535 138.952592 154.811049 137.949454 155.226563 
C 136.946316 155.642076 135.923381 156.008088 134.884346 156.323276 
L 142.637684 181.882606 
C 144.513314 181.31364 146.359879 180.652928 148.17071 179.902857 
C 149.98154 179.152787 151.754453 178.314262 153.483044 177.390311 
z
" clip-path="url(#p2d90a8d635)" style="fill: #a1a1d8"/>
   </g>
   <g id="patch_82">
    <path d="M 133.351054 151.268689 
C 132.477462 151.53369 131.591387 151.755641 130.696027 151.933739 
C 129.800668 152.111837 128.897104 152.245868 127.988599 152.335348 
L 131.030393 183.219197 
C 132.949772 183.030155 134.858713 182.746991 136.75032 182.370726 
C 138.641928 181.994462 140.513922 181.525552 142.35954 180.96569 
z
" clip-path="url(#p2d90a8d635)" style="fill: #a1a1d8"/>
   </g>
   <g id="patch_83">
    <path d="M 126.604949 138.286915 
C 126.156271 138.331106 125.705693 138.353241 125.254844 138.353241 
C 124.803994 138.353241 124.353417 138.331106 123.904738 138.286915 
L 120.900884 168.785558 
C 122.347829 168.928069 123.800898 168.999454 125.254844 168.999454 
C 126.708789 168.999454 128.161859 168.928069 129.608804 168.785558 
z
" clip-path="url(#p2d90a8d635)" style="fill: #a1a1d8"/>
   </g>
   <g id="patch_84">
    <path d="M 123.163269 145.815176 
C 122.468179 145.746716 121.77687 145.64417 121.091838 145.507908 
C 120.406805 145.371647 119.728876 145.201834 119.060498 144.999084 
L 107.195378 184.113144 
C 109.144017 184.704257 111.120504 185.199342 113.117699 185.596609 
C 115.114895 185.993875 117.130391 186.292846 119.156908 186.492441 
z
" clip-path="url(#p2d90a8d635)" style="fill: #a1a1d8"/>
   </g>
   <g id="patch_85">
    <path d="M 121.061252 138.403482 
C 120.608758 138.26622 120.163276 138.106824 119.726415 137.92587 
C 119.289554 137.744916 118.861841 137.542623 118.44482 137.319721 
L 102.390269 167.355673 
C 103.790411 168.104065 105.226454 168.783262 106.693209 169.390812 
C 108.159965 169.998362 109.655665 170.533533 111.174908 170.99439 
z
" clip-path="url(#p2d90a8d635)" style="fill: #a1a1d8"/>
   </g>
   <g id="patch_86">
    <path d="M 115.407566 143.002024 
C 114.804555 142.679708 114.217732 142.32798 113.649217 141.94811 
C 113.080702 141.568241 112.53118 141.160688 112.002637 140.726923 
L 76.602346 183.862302 
C 78.542775 185.454771 80.560221 186.95101 82.647395 188.345616 
C 84.73457 189.740221 86.888957 191.031512 89.102777 192.214823 
z
" clip-path="url(#p2d90a8d635)" style="fill: #a1a1d8"/>
   </g>
   <g id="patch_87">
    <path d="M 107.346767 146.400117 
C 106.632532 145.813959 105.947505 145.193087 105.294162 144.539744 
C 104.640819 143.886401 104.019948 143.201374 103.43379 142.487139 
L 70.339728 169.646733 
C 71.814861 171.444187 73.377354 173.168132 75.021564 174.812342 
C 76.665774 176.456553 78.38972 178.019046 80.187173 179.494178 
z
" clip-path="url(#p2d90a8d635)" style="fill: #a1a1d8"/>
   </g>
   <g id="patch_88">
    <path d="M 95.90148 148.668746 
C 95.112989 147.707966 94.372144 146.709053 93.681623 145.675614 
C 92.991101 144.642176 92.351734 143.575457 91.765833 142.479312 
L 65.619456 156.454842 
C 66.662798 158.406797 67.801346 160.30635 69.030989 162.146641 
C 70.260632 163.986932 71.579887 165.765741 72.983989 167.476644 
z
" clip-path="url(#p2d90a8d635)" style="fill: #a1a1d8"/>
   </g>
   <g id="patch_89">
    <path d="M 108.956939 133.290474 
C 108.671801 132.757019 108.413027 132.209887 108.18155 131.651052 
C 107.950073 131.092218 107.746173 130.522355 107.570586 129.943523 
L 78.839516 138.658998 
C 79.300374 140.178241 79.835544 141.673942 80.443094 143.140697 
C 81.050644 144.607453 81.729841 146.043495 82.478233 147.443637 
z
" clip-path="url(#p2d90a8d635)" style="fill: #a1a1d8"/>
   </g>
   <g id="patch_90">
    <path d="M 90.381018 135.157922 
C 90.034756 134.01645 89.744746 132.858665 89.512035 131.688749 
C 89.279325 130.518834 89.104194 129.338198 88.987276 128.151106 
L 77.96772 129.236438 
C 78.120163 130.784216 78.348506 132.323577 78.651923 133.84896 
C 78.955341 135.374343 79.333468 136.88391 79.784938 138.372208 
z
" clip-path="url(#p2d90a8d635)" style="fill: #a1a1d8"/>
   </g>
   <g id="patch_91">
    <path d="M 97.498558 127.312818 
C 97.409078 126.404313 97.364258 125.491963 97.364258 124.579062 
C 97.364258 123.666162 97.409078 122.753812 97.498558 121.845307 
L 89.247261 121.032625 
C 89.131181 122.211207 89.073036 123.394778 89.073036 124.579062 
C 89.073036 125.763347 89.131181 126.946918 89.247261 128.1255 
z
" clip-path="url(#p2d90a8d635)" style="fill: #a1a1d8"/>
   </g>
   <g id="patch_92">
    <path d="M 114.636787 123.533275 
C 114.671017 123.18573 114.72229 122.840076 114.790421 122.497559 
C 114.858552 122.155043 114.943458 121.816078 115.044833 121.48189 
L 96.376572 115.818935 
C 96.08984 116.764164 95.849689 117.722901 95.656986 118.691683 
C 95.464284 119.660465 95.319262 120.638124 95.222444 121.621129 
z
" clip-path="url(#p2d90a8d635)" style="fill: #a1a1d8"/>
   </g>
   <g id="patch_93">
    <path d="M 114.226772 121.233733 
C 114.336269 120.872768 114.463423 120.517396 114.607774 120.168902 
C 114.752126 119.820408 114.9135 119.47921 115.091314 119.146543 
L 115.091314 119.146543 
C 114.9135 119.47921 114.752126 119.820408 114.607774 120.168902 
C 114.463423 120.517396 114.336269 120.872768 114.226772 121.233733 
z
" clip-path="url(#p2d90a8d635)" style="fill: #a1a1d8"/>
   </g>
   <g id="patch_94">
    <path d="M 116.665094 119.987745 
C 116.815374 119.70659 116.979368 119.432983 117.156483 119.167911 
C 117.333598 118.90284 117.523621 118.646624 117.725865 118.400189 
L 117.725865 118.400189 
C 117.523621 118.646624 117.333598 118.90284 117.156483 119.167911 
C 116.979368 119.432983 116.815374 119.70659 116.665094 119.987745 
z
" clip-path="url(#p2d90a8d635)" style="fill: #a1a1d8"/>
   </g>
   <g id="patch_95">
    <path d="M 117.007261 117.810446 
C 117.228807 117.54049 117.463475 117.281574 117.710415 117.034634 
C 117.957356 116.787694 118.216271 116.553026 118.486227 116.331479 
L 113.531256 110.293829 
C 113.063679 110.67756 112.615224 111.084016 112.18751 111.511729 
C 111.759797 111.939443 111.353341 112.387898 110.969611 112.855475 
z
" clip-path="url(#p2d90a8d635)" style="fill: #a1a1d8"/>
   </g>
   <g id="patch_96">
    <path d="M 116.090094 113.411782 
C 116.455615 113.111806 116.835645 112.829957 117.228809 112.567253 
C 117.621974 112.304549 118.027799 112.061306 118.44482 111.838404 
L 113.282154 102.179735 
C 112.54899 102.571619 111.835509 102.999263 111.144287 103.461122 
C 110.453066 103.922982 109.784936 104.4185 109.142313 104.945887 
z
" clip-path="url(#p2d90a8d635)" style="fill: #a1a1d8"/>
   </g>
   <g id="patch_97">
    <path d="M 115.845444 106.975313 
C 116.421641 106.667329 117.012612 106.387821 117.616222 106.137798 
C 118.219832 105.887774 118.835354 105.667537 119.460564 105.477881 
L 118.564186 102.522918 
C 117.842255 102.741914 117.131512 102.996222 116.434523 103.284924 
C 115.737534 103.573626 115.055139 103.896375 114.389804 104.252004 
z
" clip-path="url(#p2d90a8d635)" style="fill: #a1a1d8"/>
   </g>
   <g id="patch_98">
    <path d="M 115.625342 92.834849 
C 116.664377 92.519661 117.718261 92.255677 118.783188 92.04385 
C 119.848114 91.832023 120.922798 91.672608 122.003359 91.566182 
L 121.295557 84.379748 
C 119.979773 84.509342 118.671145 84.703458 117.3744 84.961397 
C 116.077655 85.219336 114.794355 85.540786 113.529136 85.924586 
z
" clip-path="url(#p2d90a8d635)" style="fill: #a1a1d8"/>
   </g>
   <g id="patch_99">
    <path d="M 121.920329 90.723165 
C 123.028483 90.614021 124.141328 90.559351 125.254844 90.559351 
C 126.36836 90.559351 127.481205 90.614021 128.589359 90.723165 
L 128.670371 89.900634 
C 127.535294 89.788839 126.395413 89.73284 125.254844 89.73284 
C 124.114275 89.73284 122.974393 89.788839 121.839317 89.900634 
z
" clip-path="url(#p2d90a8d635)" style="fill: #828282"/>
   </g>
   <g id="patch_100">
    <path d="M 129.951193 76.896224 
C 131.511924 77.049942 133.064167 77.280196 134.602315 77.586153 
C 136.140463 77.892109 137.662662 78.2734 139.163415 78.728649 
L 140.054448 75.791305 
C 138.457552 75.306892 136.837835 74.901174 135.201148 74.575616 
C 133.56446 74.250059 131.912775 74.005055 130.252059 73.841488 
z
" clip-path="url(#p2d90a8d635)" style="fill: #828282"/>
   </g>
   <g id="patch_101">
    <path d="M 135.210862 91.75847 
C 136.285129 92.084345 137.342749 92.462768 138.379901 92.89237 
C 139.417054 93.321973 140.432489 93.802238 141.42254 94.331431 
L 146.093557 85.592572 
C 144.817471 84.91049 143.508666 84.291471 142.171869 83.737752 
C 140.835072 83.184032 139.471894 82.696279 138.08726 82.276255 
z
" clip-path="url(#p2d90a8d635)" style="fill: #828282"/>
   </g>
   <g id="patch_102">
    <path d="M 146.494338 84.842763 
C 147.794967 85.537964 149.060679 86.296602 150.286903 87.115939 
C 151.513127 87.935276 152.698384 88.814323 153.838395 89.749905 
L 163.643503 77.802346 
C 162.112431 76.545828 160.520591 75.365238 158.873731 74.264842 
C 157.226872 73.164445 155.526978 72.145569 153.780191 71.211891 
z
" clip-path="url(#p2d90a8d635)" style="fill: #828282"/>
   </g>
   <g id="patch_103">
    <path d="M 158.414158 84.174321 
C 159.736665 85.259675 161.005088 86.409307 162.214844 87.619063 
C 163.4246 88.828818 164.574231 90.097241 165.659585 91.419749 
L 179.859409 79.766254 
C 178.392619 77.978965 176.838962 76.264768 175.20405 74.629856 
C 173.569138 72.994944 171.854941 71.441287 170.067653 69.974497 
z
" clip-path="url(#p2d90a8d635)" style="fill: #828282"/>
   </g>
   <g id="patch_104">
    <path d="M 177.85003 81.415309 
C 179.262844 83.136828 180.590284 84.926675 181.827557 86.778384 
C 183.06483 88.630093 184.210443 90.541433 185.260258 92.5055 
L 213.357378 77.487277 
C 211.815993 74.603549 210.133955 71.797238 208.317338 69.078478 
C 206.500721 66.359719 204.551715 63.731789 202.477361 61.204181 
z
" clip-path="url(#p2d90a8d635)" style="fill: #828282"/>
   </g>
   <g id="patch_105">
    <path d="M 184.268365 93.035678 
C 185.300827 94.967279 186.237831 96.948406 187.075991 98.971905 
C 187.914152 100.995403 188.652459 103.058833 189.288246 105.154742 
L 205.106441 100.356345 
C 204.313595 97.742683 203.392904 95.169523 202.347692 92.646159 
C 201.302481 90.122795 200.134009 87.652269 198.846497 85.243504 
z
" clip-path="url(#p2d90a8d635)" style="fill: #828282"/>
   </g>
   <g id="patch_106">
    <path d="M 173.685177 109.887881 
C 174.166042 111.473079 174.568787 113.080929 174.891959 114.705626 
C 175.215132 116.330323 175.458341 117.969908 175.620709 119.618458 
L 190.852324 118.118275 
C 190.640853 115.971171 190.324092 113.835744 189.903186 111.719708 
C 189.48228 109.603671 188.957737 107.509575 188.33145 105.444983 
z
" clip-path="url(#p2d90a8d635)" style="fill: #828282"/>
   </g>
   <g id="patch_107">
    <path d="M 178.873402 119.298095 
C 179.046256 121.053111 179.132839 122.815555 179.132839 124.579063 
C 179.132839 126.34257 179.046256 128.105014 178.873402 129.86003 
L 191.138153 131.068002 
C 191.350546 128.911543 191.456934 126.745956 191.456934 124.579063 
C 191.456934 122.412169 191.350546 120.246582 191.138153 118.090123 
z
" clip-path="url(#p2d90a8d635)" style="fill: #828282"/>
   </g>
   <g id="patch_108">
    <path d="M 192.409331 131.193202 
C 192.19284 133.391269 191.868561 135.577382 191.437665 137.743644 
C 191.006768 139.909907 190.469774 142.053708 189.828622 144.167304 
L 213.872405 151.460906 
C 214.752288 148.560321 215.489229 145.618284 216.080568 142.645422 
C 216.671907 139.672561 217.11693 136.672458 217.414031 133.65595 
z
" clip-path="url(#p2d90a8d635)" style="fill: #828282"/>
   </g>
   <g id="patch_109">
    <path d="M 176.644104 140.167824 
C 176.133861 141.849872 175.541341 143.505853 174.868685 145.129788 
C 174.196029 146.753724 173.444048 148.343654 172.615458 149.893838 
L 176.649983 152.050337 
C 177.549158 150.368097 178.365199 148.642724 179.095157 146.88045 
C 179.825114 145.118176 180.468109 143.321126 181.021819 141.49579 
z
" clip-path="url(#p2d90a8d635)" style="fill: #828282"/>
   </g>
   <g id="patch_110">
    <path d="M 171.671297 149.389174 
C 170.859225 150.908454 169.97305 152.386947 169.015973 153.819314 
C 168.058896 155.251682 167.032071 156.636196 165.939206 157.967855 
L 174.048204 164.622738 
C 175.358893 163.025659 176.590381 161.365191 177.738217 159.647332 
C 178.886054 157.929472 179.948857 156.156293 180.922787 154.334198 
z
" clip-path="url(#p2d90a8d635)" style="fill: #828282"/>
   </g>
   <g id="patch_111">
    <path d="M 164.808863 157.040207 
C 163.746362 158.33487 162.620936 159.576585 161.436651 160.76087 
C 160.252367 161.945155 159.010651 163.07058 157.715989 164.133082 
L 163.742827 171.476806 
C 165.27786 170.217037 166.750117 168.882661 168.15428 167.478498 
C 169.558442 166.074336 170.892818 164.602079 172.152587 163.067046 
z
" clip-path="url(#p2d90a8d635)" style="fill: #828282"/>
   </g>
   <g id="patch_112">
    <path d="M 159.988687 166.902372 
C 158.603381 168.039263 157.163093 169.107454 155.673024 170.103086 
C 154.182955 171.098719 152.644901 172.020593 151.064417 172.865378 
L 154.796678 179.847947 
C 156.605711 178.880999 158.36618 177.825815 160.071724 176.686206 
C 161.777269 175.546598 163.425834 174.323939 165.011465 173.022645 
z
" clip-path="url(#p2d90a8d635)" style="fill: #828282"/>
   </g>
   <g id="patch_113">
    <path d="M 153.483044 177.390311 
C 151.754453 178.314262 149.98154 179.152787 148.17071 179.902857 
C 146.359879 180.652928 144.513314 181.31364 142.637684 181.882606 
L 145.760218 192.176222 
C 147.972774 191.505051 150.151044 190.725653 152.287159 189.840845 
C 154.423275 188.956037 156.514661 187.966885 158.553765 186.876962 
z
" clip-path="url(#p2d90a8d635)" style="fill: #828282"/>
   </g>
   <g id="patch_114">
    <path d="M 142.35954 180.96569 
C 140.513922 181.525552 138.641928 181.994462 136.75032 182.370726 
C 134.858713 182.746991 132.949772 183.030155 131.030393 183.219197 
L 133.599327 209.302018 
C 136.372435 209.028891 139.130463 208.619776 141.863447 208.076152 
C 144.596432 207.532527 147.301079 206.855048 149.967618 206.046162 
z
" clip-path="url(#p2d90a8d635)" style="fill: #828282"/>
   </g>
   <g id="patch_115">
    <path d="M 129.608804 168.785558 
C 128.161859 168.928069 126.708789 168.999454 125.254844 168.999454 
C 123.800898 168.999454 122.347829 168.928069 120.900884 168.785558 
L 118.463933 193.528333 
C 120.720746 193.75061 122.987111 193.861949 125.254844 193.861949 
C 127.522576 193.861949 129.788942 193.75061 132.045754 193.528333 
z
" clip-path="url(#p2d90a8d635)" style="fill: #828282"/>
   </g>
   <g id="patch_116">
    <path d="M 119.156908 186.492441 
C 117.130391 186.292846 115.114895 185.993875 113.117699 185.596609 
C 111.120504 185.199342 109.144017 184.704257 107.195378 184.113144 
L 103.464301 196.412856 
C 105.815528 197.126093 108.200356 197.723461 110.610171 198.202803 
C 113.019986 198.682145 115.451883 199.042883 117.897078 199.283713 
z
" clip-path="url(#p2d90a8d635)" style="fill: #828282"/>
   </g>
   <g id="patch_117">
    <path d="M 111.174908 170.99439 
C 109.655665 170.533533 108.159965 169.998362 106.693209 169.390812 
C 105.226454 168.783262 103.790411 168.104065 102.390269 167.355673 
L 89.988268 190.558185 
C 92.147863 191.712513 94.362831 192.760115 96.625171 193.697207 
C 98.887511 194.634299 101.194496 195.459751 103.537794 196.170582 
z
" clip-path="url(#p2d90a8d635)" style="fill: #828282"/>
   </g>
   <g id="patch_118">
    <path d="M 89.102777 192.214823 
C 86.888957 191.031512 84.73457 189.740221 82.647395 188.345616 
C 80.560221 186.95101 78.542775 185.454771 76.602346 183.862302 
L 54.913316 210.290462 
C 57.718778 212.592845 60.63559 214.7561 63.653216 216.772413 
C 66.670842 218.788726 69.785645 220.655667 72.986374 222.366492 
z
" clip-path="url(#p2d90a8d635)" style="fill: #828282"/>
   </g>
   <g id="patch_119">
    <path d="M 80.187173 179.494178 
C 78.38972 178.019046 76.665774 176.456553 75.021564 174.812342 
C 73.377354 173.168132 71.814861 171.444187 70.339728 169.646733 
L 57.913609 179.844586 
C 59.722532 182.048765 61.638584 184.162803 63.654844 186.179063 
C 65.671104 188.195322 67.785141 190.111374 69.98932 191.920298 
z
" clip-path="url(#p2d90a8d635)" style="fill: #828282"/>
   </g>
   <g id="patch_120">
    <path d="M 72.983989 167.476644 
C 71.579887 165.765741 70.260632 163.986932 69.030989 162.146641 
C 67.801346 160.30635 66.662798 158.406797 65.619456 156.454842 
L 61.435833 158.691035 
C 62.552369 160.779926 63.77079 162.81274 65.086697 164.782133 
C 66.402603 166.751526 67.814408 168.655125 69.317013 170.486054 
z
" clip-path="url(#p2d90a8d635)" style="fill: #828282"/>
   </g>
   <g id="patch_121">
    <path d="M 82.478233 147.443637 
C 81.729841 146.043495 81.050644 144.607453 80.443094 143.140697 
C 79.835544 141.673942 79.300374 140.178241 78.839516 138.658998 
L 78.281396 138.828302 
C 78.747795 140.365813 79.2894 141.879499 79.904256 143.363891 
C 80.519111 144.848283 81.206476 146.301594 81.963867 147.718572 
z
" clip-path="url(#p2d90a8d635)" style="fill: #828282"/>
   </g>
   <g id="patch_122">
    <path d="M 79.784938 138.372208 
C 79.333468 136.88391 78.955341 135.374343 78.651923 133.84896 
C 78.348506 132.323577 78.120163 130.784216 77.96772 129.236438 
L 74.702782 129.558006 
C 74.865751 131.21265 75.109859 132.858296 75.434226 134.489 
C 75.758593 136.119703 76.162828 137.733498 76.64547 139.324555 
z
" clip-path="url(#p2d90a8d635)" style="fill: #828282"/>
   </g>
   <g id="patch_123">
    <path d="M 89.247261 128.1255 
C 89.131181 126.946918 89.073036 125.763347 89.073036 124.579062 
C 89.073036 123.394778 89.131181 122.211207 89.247261 121.032625 
L 89.247261 121.032625 
C 89.131181 122.211207 89.073036 123.394778 89.073036 124.579062 
C 89.073036 125.763347 89.131181 126.946918 89.247261 128.1255 
z
" clip-path="url(#p2d90a8d635)" style="fill: #828282"/>
   </g>
   <g id="patch_124">
    <path d="M 95.222444 121.621129 
C 95.319262 120.638124 95.464284 119.660465 95.656986 118.691683 
C 95.849689 117.722901 96.08984 116.764164 96.376572 115.818935 
L 96.376572 115.818935 
C 96.08984 116.764164 95.849689 117.722901 95.656986 118.691683 
C 95.464284 119.660465 95.319262 120.638124 95.222444 121.621129 
z
" clip-path="url(#p2d90a8d635)" style="fill: #828282"/>
   </g>
   <g id="patch_125">
    <path d="M 114.226772 121.233733 
C 114.336269 120.872768 114.463423 120.517396 114.607774 120.168902 
C 114.752126 119.820408 114.9135 119.47921 115.091314 119.146543 
L 115.091314 119.146543 
C 114.9135 119.47921 114.752126 119.820408 114.607774 120.168902 
C 114.463423 120.517396 114.336269 120.872768 114.226772 121.233733 
z
" clip-path="url(#p2d90a8d635)" style="fill: #828282"/>
   </g>
   <g id="patch_126">
    <path d="M 116.665094 119.987745 
C 116.815374 119.70659 116.979368 119.432983 117.156483 119.167911 
C 117.333598 118.90284 117.523621 118.646624 117.725865 118.400189 
L 117.725865 118.400189 
C 117.523621 118.646624 117.333598 118.90284 117.156483 119.167911 
C 116.979368 119.432983 116.815374 119.70659 116.665094 119.987745 
z
" clip-path="url(#p2d90a8d635)" style="fill: #828282"/>
   </g>
   <g id="patch_127">
    <path d="M 110.969611 112.855475 
C 111.353341 112.387898 111.759797 111.939443 112.18751 111.511729 
C 112.615224 111.084016 113.063679 110.67756 113.531256 110.293829 
L 113.210002 109.902381 
C 112.729612 110.296626 112.268869 110.71422 111.829435 111.153654 
C 111.390001 111.593087 110.972407 112.053831 110.578162 112.534221 
z
" clip-path="url(#p2d90a8d635)" style="fill: #828282"/>
   </g>
   <g id="patch_128">
    <path d="M 109.142313 104.945887 
C 109.784936 104.4185 110.453066 103.922982 111.144287 103.461122 
C 111.835509 102.999263 112.54899 102.571619 113.282154 102.179735 
L 113.107361 101.85272 
C 112.363493 102.250325 111.639596 102.684213 110.938283 103.152815 
C 110.23697 103.621417 109.559086 104.12417 108.907081 104.659257 
z
" clip-path="url(#p2d90a8d635)" style="fill: #828282"/>
   </g>
   <g id="patch_129">
    <path d="M 114.389804 104.252004 
C 115.055139 103.896375 115.737534 103.573626 116.434523 103.284924 
C 117.131512 102.996222 117.842255 102.741914 118.564186 102.522918 
L 118.564186 102.522918 
C 117.842255 102.741914 117.131512 102.996222 116.434523 103.284924 
C 115.737534 103.573626 115.055139 103.896375 114.389804 104.252004 
z
" clip-path="url(#p2d90a8d635)" style="fill: #828282"/>
   </g>
   <g id="patch_130">
    <path d="M 113.529136 85.924586 
C 114.794355 85.540786 116.077655 85.219336 117.3744 84.961397 
C 118.671145 84.703458 119.979773 84.509342 121.295557 84.379748 
L 120.756742 78.909074 
C 119.261896 79.056303 117.775178 79.276837 116.30196 79.569878 
C 114.828743 79.862919 113.3708 80.228115 111.933399 80.664146 
z
" clip-path="url(#p2d90a8d635)" style="fill: #828282"/>
   </g>
   <g id="patch_131">
    <path d="M 125.254844 124.579063 
C 125.254844 124.579063 125.254844 124.579063 125.254844 124.579063 
C 125.254844 124.579063 125.254844 124.579063 125.254844 124.579063 
L 128.670371 89.900634 
C 127.535294 89.788839 126.395413 89.73284 125.254844 89.73284 
C 124.114275 89.73284 122.974393 89.788839 121.839317 89.900634 
L 125.254844 124.579063 
z
" clip-path="url(#p2d90a8d635)" style="fill: none; stroke: #292929; stroke-width: 0.5; stroke-linejoin: miter"/>
   </g>
   <g id="patch_132">
    <path d="M 125.254844 124.579063 
C 125.254844 124.579063 125.254844 124.579063 125.254844 124.579063 
C 125.254844 124.579063 125.254844 124.579063 125.254844 124.579063 
L 140.054448 75.791305 
C 138.457552 75.306892 136.837835 74.901174 135.201148 74.575616 
C 133.56446 74.250059 131.912775 74.005055 130.252059 73.841488 
L 125.254844 124.579063 
z
" clip-path="url(#p2d90a8d635)" style="fill: none; stroke: #292929; stroke-width: 0.5; stroke-linejoin: miter"/>
   </g>
   <g id="patch_133">
    <path d="M 125.254844 124.579063 
C 125.254844 124.579063 125.254844 124.579063 125.254844 124.579063 
C 125.254844 124.579063 125.254844 124.579063 125.254844 124.579063 
L 146.093557 85.592572 
C 144.817471 84.91049 143.508666 84.291471 142.171869 83.737752 
C 140.835072 83.184032 139.471894 82.696279 138.08726 82.276255 
L 125.254844 124.579063 
z
" clip-path="url(#p2d90a8d635)" style="fill: none; stroke: #292929; stroke-width: 0.5; stroke-linejoin: miter"/>
   </g>
   <g id="patch_134">
    <path d="M 125.254844 124.579063 
C 125.254844 124.579063 125.254844 124.579063 125.254844 124.579063 
C 125.254844 124.579063 125.254844 124.579063 125.254844 124.579063 
L 163.643503 77.802346 
C 162.112431 76.545828 160.520591 75.365238 158.873731 74.264842 
C 157.226872 73.164445 155.526978 72.145569 153.780191 71.211891 
L 125.254844 124.579063 
z
" clip-path="url(#p2d90a8d635)" style="fill: none; stroke: #292929; stroke-width: 0.5; stroke-linejoin: miter"/>
   </g>
   <g id="patch_135">
    <path d="M 125.254844 124.579063 
C 125.254844 124.579063 125.254844 124.579063 125.254844 124.579063 
C 125.254844 124.579063 125.254844 124.579063 125.254844 124.579063 
L 179.859409 79.766254 
C 178.392619 77.978965 176.838962 76.264768 175.20405 74.629856 
C 173.569138 72.994944 171.854941 71.441287 170.067653 69.974497 
L 125.254844 124.579063 
z
" clip-path="url(#p2d90a8d635)" style="fill: none; stroke: #292929; stroke-width: 0.5; stroke-linejoin: miter"/>
   </g>
   <g id="patch_136">
    <path d="M 125.254844 124.579063 
C 125.254844 124.579063 125.254844 124.579063 125.254844 124.579063 
C 125.254844 124.579063 125.254844 124.579063 125.254844 124.579063 
L 213.357378 77.487277 
C 211.815993 74.603549 210.133955 71.797238 208.317338 69.078478 
C 206.500721 66.359719 204.551715 63.731789 202.477361 61.204181 
L 125.254844 124.579063 
z
" clip-path="url(#p2d90a8d635)" style="fill: none; stroke: #292929; stroke-width: 0.5; stroke-linejoin: miter"/>
   </g>
   <g id="patch_137">
    <path d="M 125.254844 124.579063 
C 125.254844 124.579063 125.254844 124.579063 125.254844 124.579063 
C 125.254844 124.579063 125.254844 124.579063 125.254844 124.579063 
L 205.106441 100.356345 
C 204.313595 97.742683 203.392904 95.169523 202.347692 92.646159 
C 201.302481 90.122795 200.134009 87.652269 198.846497 85.243504 
L 125.254844 124.579063 
z
" clip-path="url(#p2d90a8d635)" style="fill: none; stroke: #292929; stroke-width: 0.5; stroke-linejoin: miter"/>
   </g>
   <g id="patch_138">
    <path d="M 125.254844 124.579063 
C 125.254844 124.579063 125.254844 124.579063 125.254844 124.579063 
C 125.254844 124.579063 125.254844 124.579063 125.254844 124.579063 
L 190.852324 118.118275 
C 190.640853 115.971171 190.324092 113.835744 189.903186 111.719708 
C 189.48228 109.603671 188.957737 107.509575 188.33145 105.444983 
L 125.254844 124.579063 
z
" clip-path="url(#p2d90a8d635)" style="fill: none; stroke: #292929; stroke-width: 0.5; stroke-linejoin: miter"/>
   </g>
   <g id="patch_139">
    <path d="M 125.254844 124.579063 
C 125.254844 124.579063 125.254844 124.579063 125.254844 124.579063 
C 125.254844 124.579063 125.254844 124.579063 125.254844 124.579063 
L 191.138153 131.068002 
C 191.350546 128.911543 191.456934 126.745956 191.456934 124.579063 
C 191.456934 122.412169 191.350546 120.246582 191.138153 118.090123 
L 125.254844 124.579063 
z
" clip-path="url(#p2d90a8d635)" style="fill: none; stroke: #292929; stroke-width: 0.5; stroke-linejoin: miter"/>
   </g>
   <g id="patch_140">
    <path d="M 125.254844 124.579063 
C 125.254844 124.579063 125.254844 124.579063 125.254844 124.579063 
C 125.254844 124.579063 125.254844 124.579063 125.254844 124.579063 
L 213.872405 151.460906 
C 214.752288 148.560321 215.489229 145.618284 216.080568 142.645422 
C 216.671907 139.672561 217.11693 136.672458 217.414031 133.65595 
L 125.254844 124.579063 
z
" clip-path="url(#p2d90a8d635)" style="fill: none; stroke: #292929; stroke-width: 0.5; stroke-linejoin: miter"/>
   </g>
   <g id="patch_141">
    <path d="M 125.254844 124.579063 
C 125.254844 124.579063 125.254844 124.579063 125.254844 124.579063 
C 125.254844 124.579063 125.254844 124.579063 125.254844 124.579063 
L 176.649983 152.050337 
C 177.549158 150.368097 178.365199 148.642724 179.095157 146.88045 
C 179.825114 145.118176 180.468109 143.321126 181.021819 141.49579 
L 125.254844 124.579063 
z
" clip-path="url(#p2d90a8d635)" style="fill: none; stroke: #292929; stroke-width: 0.5; stroke-linejoin: miter"/>
   </g>
   <g id="patch_142">
    <path d="M 125.254844 124.579063 
C 125.254844 124.579063 125.254844 124.579063 125.254844 124.579063 
C 125.254844 124.579063 125.254844 124.579063 125.254844 124.579063 
L 174.048204 164.622738 
C 175.358893 163.025659 176.590381 161.365191 177.738217 159.647332 
C 178.886054 157.929472 179.948857 156.156293 180.922787 154.334198 
L 125.254844 124.579063 
z
" clip-path="url(#p2d90a8d635)" style="fill: none; stroke: #292929; stroke-width: 0.5; stroke-linejoin: miter"/>
   </g>
   <g id="patch_143">
    <path d="M 125.254844 124.579063 
C 125.254844 124.579063 125.254844 124.579063 125.254844 124.579063 
C 125.254844 124.579063 125.254844 124.579063 125.254844 124.579063 
L 163.742827 171.476806 
C 165.27786 170.217037 166.750117 168.882661 168.15428 167.478498 
C 169.558442 166.074336 170.892818 164.602079 172.152587 163.067046 
L 125.254844 124.579063 
z
" clip-path="url(#p2d90a8d635)" style="fill: none; stroke: #292929; stroke-width: 0.5; stroke-linejoin: miter"/>
   </g>
   <g id="patch_144">
    <path d="M 125.254844 124.579063 
C 125.254844 124.579063 125.254844 124.579063 125.254844 124.579063 
C 125.254844 124.579063 125.254844 124.579063 125.254844 124.579063 
L 154.796678 179.847947 
C 156.605711 178.880999 158.36618 177.825815 160.071724 176.686206 
C 161.777269 175.546598 163.425834 174.323939 165.011465 173.022645 
L 125.254844 124.579063 
z
" clip-path="url(#p2d90a8d635)" style="fill: none; stroke: #292929; stroke-width: 0.5; stroke-linejoin: miter"/>
   </g>
   <g id="patch_145">
    <path d="M 125.254844 124.579063 
C 125.254844 124.579063 125.254844 124.579063 125.254844 124.579063 
C 125.254844 124.579063 125.254844 124.579063 125.254844 124.579063 
L 145.760218 192.176222 
C 147.972774 191.505051 150.151044 190.725653 152.287159 189.840845 
C 154.423275 188.956037 156.514661 187.966885 158.553765 186.876962 
L 125.254844 124.579063 
z
" clip-path="url(#p2d90a8d635)" style="fill: none; stroke: #292929; stroke-width: 0.5; stroke-linejoin: miter"/>
   </g>
   <g id="patch_146">
    <path d="M 125.254844 124.579063 
C 125.254844 124.579063 125.254844 124.579063 125.254844 124.579063 
C 125.254844 124.579063 125.254844 124.579063 125.254844 124.579063 
L 133.599327 209.302018 
C 136.372435 209.028891 139.130463 208.619776 141.863447 208.076152 
C 144.596432 207.532527 147.301079 206.855048 149.967618 206.046162 
L 125.254844 124.579063 
z
" clip-path="url(#p2d90a8d635)" style="fill: none; stroke: #292929; stroke-width: 0.5; stroke-linejoin: miter"/>
   </g>
   <g id="patch_147">
    <path d="M 125.254844 124.579063 
C 125.254844 124.579063 125.254844 124.579063 125.254844 124.579063 
C 125.254844 124.579063 125.254844 124.579063 125.254844 124.579063 
L 118.463933 193.528333 
C 120.720746 193.75061 122.987111 193.861949 125.254844 193.861949 
C 127.522576 193.861949 129.788942 193.75061 132.045754 193.528333 
L 125.254844 124.579063 
z
" clip-path="url(#p2d90a8d635)" style="fill: none; stroke: #292929; stroke-width: 0.5; stroke-linejoin: miter"/>
   </g>
   <g id="patch_148">
    <path d="M 125.254844 124.579063 
C 125.254844 124.579063 125.254844 124.579063 125.254844 124.579063 
C 125.254844 124.579063 125.254844 124.579063 125.254844 124.579063 
L 103.464301 196.412856 
C 105.815528 197.126093 108.200356 197.723461 110.610171 198.202803 
C 113.019986 198.682145 115.451883 199.042883 117.897078 199.283713 
L 125.254844 124.579063 
z
" clip-path="url(#p2d90a8d635)" style="fill: none; stroke: #292929; stroke-width: 0.5; stroke-linejoin: miter"/>
   </g>
   <g id="patch_149">
    <path d="M 125.254844 124.579063 
C 125.254844 124.579063 125.254844 124.579063 125.254844 124.579063 
C 125.254844 124.579063 125.254844 124.579063 125.254844 124.579063 
L 89.988268 190.558185 
C 92.147863 191.712513 94.362831 192.760115 96.625171 193.697207 
C 98.887511 194.634299 101.194496 195.459751 103.537794 196.170582 
L 125.254844 124.579063 
z
" clip-path="url(#p2d90a8d635)" style="fill: none; stroke: #292929; stroke-width: 0.5; stroke-linejoin: miter"/>
   </g>
   <g id="patch_150">
    <path d="M 125.254844 124.579063 
C 125.254844 124.579063 125.254844 124.579063 125.254844 124.579063 
C 125.254844 124.579063 125.254844 124.579063 125.254844 124.579063 
L 54.913316 210.290462 
C 57.718778 212.592845 60.63559 214.7561 63.653216 216.772413 
C 66.670842 218.788726 69.785645 220.655667 72.986374 222.366492 
L 125.254844 124.579063 
z
" clip-path="url(#p2d90a8d635)" style="fill: none; stroke: #292929; stroke-width: 0.5; stroke-linejoin: miter"/>
   </g>
   <g id="patch_151">
    <path d="M 125.254844 124.579063 
C 125.254844 124.579063 125.254844 124.579063 125.254844 124.579063 
C 125.254844 124.579063 125.254844 124.579063 125.254844 124.579063 
L 57.913609 179.844586 
C 59.722532 182.048765 61.638584 184.162803 63.654844 186.179063 
C 65.671104 188.195322 67.785141 190.111374 69.98932 191.920298 
L 125.254844 124.579063 
z
" clip-path="url(#p2d90a8d635)" style="fill: none; stroke: #292929; stroke-width: 0.5; stroke-linejoin: miter"/>
   </g>
   <g id="patch_152">
    <path d="M 125.254844 124.579063 
C 125.254844 124.579063 125.254844 124.579063 125.254844 124.579063 
C 125.254844 124.579063 125.254844 124.579063 125.254844 124.579063 
L 61.435833 158.691035 
C 62.552369 160.779926 63.77079 162.81274 65.086697 164.782133 
C 66.402603 166.751526 67.814408 168.655125 69.317013 170.486054 
L 125.254844 124.579063 
z
" clip-path="url(#p2d90a8d635)" style="fill: none; stroke: #292929; stroke-width: 0.5; stroke-linejoin: miter"/>
   </g>
   <g id="patch_153">
    <path d="M 125.254844 124.579063 
C 125.254844 124.579063 125.254844 124.579063 125.254844 124.579063 
C 125.254844 124.579063 125.254844 124.579063 125.254844 124.579063 
L 78.281396 138.828302 
C 78.747795 140.365813 79.2894 141.879499 79.904256 143.363891 
C 80.519111 144.848283 81.206476 146.301594 81.963867 147.718572 
L 125.254844 124.579063 
z
" clip-path="url(#p2d90a8d635)" style="fill: none; stroke: #292929; stroke-width: 0.5; stroke-linejoin: miter"/>
   </g>
   <g id="patch_154">
    <path d="M 125.254844 124.579063 
C 125.254844 124.579063 125.254844 124.579063 125.254844 124.579063 
C 125.254844 124.579063 125.254844 124.579063 125.254844 124.579063 
L 74.702782 129.558006 
C 74.865751 131.21265 75.109859 132.858296 75.434226 134.489 
C 75.758593 136.119703 76.162828 137.733498 76.64547 139.324555 
L 125.254844 124.579063 
z
" clip-path="url(#p2d90a8d635)" style="fill: none; stroke: #292929; stroke-width: 0.5; stroke-linejoin: miter"/>
   </g>
   <g id="patch_155">
    <path d="M 125.254844 124.579063 
C 125.254844 124.579063 125.254844 124.579063 125.254844 124.579063 
C 125.254844 124.579063 125.254844 124.579063 125.254844 124.579063 
L 89.247261 121.032625 
C 89.131181 122.211207 89.073036 123.394778 89.073036 124.579062 
C 89.073036 125.763347 89.131181 126.946918 89.247261 128.1255 
L 125.254844 124.579063 
z
" clip-path="url(#p2d90a8d635)" style="fill: none; stroke: #292929; stroke-width: 0.5; stroke-linejoin: miter"/>
   </g>
   <g id="patch_156">
    <path d="M 125.254844 124.579063 
C 125.254844 124.579063 125.254844 124.579063 125.254844 124.579063 
C 125.254844 124.579063 125.254844 124.579063 125.254844 124.579063 
L 96.376572 115.818935 
C 96.08984 116.764164 95.849689 117.722901 95.656986 118.691683 
C 95.464284 119.660465 95.319262 120.638124 95.222444 121.621129 
L 125.254844 124.579063 
z
" clip-path="url(#p2d90a8d635)" style="fill: none; stroke: #292929; stroke-width: 0.5; stroke-linejoin: miter"/>
   </g>
   <g id="patch_157">
    <path d="M 125.254844 124.579063 
C 125.254844 124.579063 125.254844 124.579063 125.254844 124.579063 
C 125.254844 124.579063 125.254844 124.579063 125.254844 124.579063 
L 115.091314 119.146543 
C 114.9135 119.47921 114.752126 119.820408 114.607774 120.168902 
C 114.463423 120.517396 114.336269 120.872768 114.226772 121.233733 
L 125.254844 124.579063 
z
" clip-path="url(#p2d90a8d635)" style="fill: none; stroke: #292929; stroke-width: 0.5; stroke-linejoin: miter"/>
   </g>
   <g id="patch_158">
    <path d="M 125.254844 124.579063 
C 125.254844 124.579063 125.254844 124.579063 125.254844 124.579063 
C 125.254844 124.579063 125.254844 124.579063 125.254844 124.579063 
L 117.725865 118.400189 
C 117.523621 118.646624 117.333598 118.90284 117.156483 119.167911 
C 116.979368 119.432983 116.815374 119.70659 116.665094 119.987745 
L 125.254844 124.579063 
z
" clip-path="url(#p2d90a8d635)" style="fill: none; stroke: #292929; stroke-width: 0.5; stroke-linejoin: miter"/>
   </g>
   <g id="patch_159">
    <path d="M 125.254844 124.579063 
C 125.254844 124.579063 125.254844 124.579063 125.254844 124.579063 
C 125.254844 124.579063 125.254844 124.579063 125.254844 124.579063 
L 113.210002 109.902381 
C 112.729612 110.296626 112.268869 110.71422 111.829435 111.153654 
C 111.390001 111.593087 110.972407 112.053831 110.578162 112.534221 
L 125.254844 124.579063 
z
" clip-path="url(#p2d90a8d635)" style="fill: none; stroke: #292929; stroke-width: 0.5; stroke-linejoin: miter"/>
   </g>
   <g id="patch_160">
    <path d="M 125.254844 124.579063 
C 125.254844 124.579063 125.254844 124.579063 125.254844 124.579063 
C 125.254844 124.579063 125.254844 124.579063 125.254844 124.579063 
L 113.107361 101.85272 
C 112.363493 102.250325 111.639596 102.684213 110.938283 103.152815 
C 110.23697 103.621417 109.559086 104.12417 108.907081 104.659257 
L 125.254844 124.579063 
z
" clip-path="url(#p2d90a8d635)" style="fill: none; stroke: #292929; stroke-width: 0.5; stroke-linejoin: miter"/>
   </g>
   <g id="patch_161">
    <path d="M 125.254844 124.579063 
C 125.254844 124.579063 125.254844 124.579063 125.254844 124.579063 
C 125.254844 124.579063 125.254844 124.579063 125.254844 124.579063 
L 118.564186 102.522918 
C 117.842255 102.741914 117.131512 102.996222 116.434523 103.284924 
C 115.737534 103.573626 115.055139 103.896375 114.389804 104.252004 
L 125.254844 124.579063 
z
" clip-path="url(#p2d90a8d635)" style="fill: none; stroke: #292929; stroke-width: 0.5; stroke-linejoin: miter"/>
   </g>
   <g id="patch_162">
    <path d="M 125.254844 124.579063 
C 125.254844 124.579063 125.254844 124.579063 125.254844 124.579063 
C 125.254844 124.579063 125.254844 124.579063 125.254844 124.579063 
L 120.756742 78.909074 
C 119.261896 79.056303 117.775178 79.276837 116.30196 79.569878 
C 114.828743 79.862919 113.3708 80.228115 111.933399 80.664146 
L 125.254844 124.579063 
z
" clip-path="url(#p2d90a8d635)" style="fill: none; stroke: #292929; stroke-width: 0.5; stroke-linejoin: miter"/>
   </g>
   <g id="PathCollection_1">
    <defs>
     <path id="m00530b283f" d="M 0.193618 7.414054 
L 0.193618 7.414054 
C 0.054922 7.414054 -0.078235 7.358899 -0.176308 7.260826 
C -0.274381 7.162753 -0.329536 7.029596 -0.329536 6.890901 
L -0.329536 5.365008 
L -1.528416 6.56393 
L -1.528416 6.56393 
C -1.577018 6.612704 -1.634775 6.651408 -1.698366 6.677814 
C -1.761958 6.704221 -1.830141 6.717815 -1.898997 6.717815 
C -1.967853 6.717815 -2.036037 6.704221 -2.099628 6.677814 
C -2.163219 6.651408 -2.220976 6.612704 -2.269578 6.56393 
L -2.269578 6.56393 
C -2.318353 6.515327 -2.357056 6.457571 -2.383463 6.393979 
C -2.409869 6.330388 -2.423463 6.262205 -2.423463 6.193348 
C -2.423463 6.124492 -2.409869 6.056309 -2.383463 5.992718 
C -2.357056 5.929126 -2.318353 5.87137 -2.269578 5.822767 
L -0.329536 3.884106 
L -0.329536 0.820937 
L -2.98067 2.351538 
L -3.691824 5.001416 
L -3.691824 5.001416 
C -3.727584 5.135411 -3.815199 5.249836 -3.93523 5.319305 
C -4.055261 5.388775 -4.198123 5.407741 -4.332122 5.371997 
L -4.332122 5.371997 
C -4.466126 5.336237 -4.580558 5.248616 -4.650029 5.128576 
C -4.719499 5.008535 -4.73846 4.865662 -4.702703 4.731657 
L -4.262647 3.092721 
L -5.585535 3.855668 
L -5.585535 3.855668 
C -5.645013 3.890144 -5.710708 3.912561 -5.778854 3.921634 
C -5.847001 3.930706 -5.916272 3.926258 -5.982698 3.908543 
C -6.049125 3.890828 -6.111412 3.860192 -6.165991 3.818391 
C -6.220571 3.77659 -6.266379 3.724437 -6.300791 3.664922 
L -6.300791 3.664922 
C -6.335212 3.605364 -6.35755 3.539597 -6.366524 3.471396 
C -6.375498 3.403194 -6.370933 3.333888 -6.35309 3.267452 
C -6.335248 3.201017 -6.304476 3.138749 -6.26254 3.08422 
C -6.220605 3.029692 -6.168323 2.983966 -6.108695 2.949666 
L -4.785807 2.186762 
L -6.424743 1.746706 
L -6.424743 1.746706 
C -6.558747 1.710946 -6.673179 1.623325 -6.74265 1.503284 
C -6.81212 1.383244 -6.831081 1.240371 -6.795324 1.106366 
L -6.795324 1.106366 
C -6.777471 1.039969 -6.746703 0.977739 -6.704784 0.923241 
C -6.662864 0.868744 -6.61061 0.823041 -6.551015 0.788752 
C -6.491421 0.754464 -6.425647 0.732257 -6.357465 0.723406 
C -6.289282 0.714554 -6.220019 0.71923 -6.153645 0.737166 
L -3.505232 1.44698 
L -0.852424 -0.08496 
L -3.503767 -1.615666 
L -6.153645 -0.905851 
L -6.153645 -0.905851 
C -6.22011 -0.887939 -6.289462 -0.883321 -6.357716 -0.892262 
C -6.42597 -0.901202 -6.491793 -0.923527 -6.551403 -0.957953 
C -6.611013 -0.992379 -6.663247 -1.038234 -6.705103 -1.092883 
C -6.746958 -1.147533 -6.777619 -1.209911 -6.795324 -1.276432 
L -6.795324 -1.276432 
C -6.831068 -1.410431 -6.812101 -1.553293 -6.742632 -1.673324 
C -6.673162 -1.793355 -6.558738 -1.88097 -6.424743 -1.91673 
L -4.785807 -2.355447 
L -6.108695 -3.119732 
L -6.108695 -3.119732 
C -6.228699 -3.188976 -6.316415 -3.303132 -6.352417 -3.436921 
C -6.388419 -3.57071 -6.369839 -3.713469 -6.300791 -3.833586 
L -6.300791 -3.833586 
C -6.266491 -3.893214 -6.220765 -3.945496 -6.166237 -3.987431 
C -6.111708 -4.029367 -6.04944 -4.060139 -5.983005 -4.077981 
C -5.91657 -4.095823 -5.847263 -4.100389 -5.779062 -4.091415 
C -5.71086 -4.082441 -5.645094 -4.060102 -5.585535 -4.025682 
L -4.262647 -3.261396 
L -4.702703 -4.900332 
L -4.702703 -4.900332 
C -4.73846 -5.034337 -4.719499 -5.17721 -4.650029 -5.29725 
C -4.580558 -5.417291 -4.466126 -5.504912 -4.332122 -5.540672 
L -4.332122 -5.540672 
C -4.19831 -5.576464 -4.055613 -5.557686 -3.935617 -5.488496 
C -3.81562 -5.419305 -3.727882 -5.305212 -3.691824 -5.171472 
L -2.982009 -2.521594 
L -0.329411 -0.990302 
L -0.329411 -4.051588 
L -2.269453 -5.991589 
L -2.269453 -5.991589 
C -2.318227 -6.040191 -2.356931 -6.097947 -2.383337 -6.161539 
C -2.409744 -6.22513 -2.423338 -6.293314 -2.423338 -6.36217 
C -2.423338 -6.431026 -2.409744 -6.499209 -2.383337 -6.5628 
C -2.356931 -6.626392 -2.318227 -6.684149 -2.269453 -6.732751 
L -2.269453 -6.732751 
C -2.22085 -6.781526 -2.163094 -6.820229 -2.099502 -6.846635 
C -2.035911 -6.873042 -1.967728 -6.886636 -1.898871 -6.886636 
C -1.830015 -6.886636 -1.761832 -6.873042 -1.698241 -6.846635 
C -1.634649 -6.820229 -1.576893 -6.781526 -1.52829 -6.732751 
L -0.329411 -5.533829 
L -0.329411 -7.059722 
L -0.329411 -7.059722 
C -0.329411 -7.198418 -0.274255 -7.331575 -0.176182 -7.429647 
C -0.07811 -7.52772 0.055047 -7.582875 0.193743 -7.582875 
L 0.193743 -7.582875 
C 0.332439 -7.582875 0.465596 -7.52772 0.563669 -7.429647 
C 0.661741 -7.331575 0.716897 -7.198418 0.716897 -7.059722 
L 0.716897 -5.533829 
L 1.915777 -6.732751 
L 1.915777 -6.732751 
C 1.964379 -6.781526 2.022136 -6.820229 2.085727 -6.846635 
C 2.149318 -6.873042 2.217502 -6.886636 2.286358 -6.886636 
C 2.355214 -6.886636 2.423397 -6.873042 2.486989 -6.846635 
C 2.55058 -6.820229 2.608337 -6.781526 2.656939 -6.732751 
L 2.656939 -6.732751 
C 2.705714 -6.684149 2.744417 -6.626392 2.770823 -6.5628 
C 2.79723 -6.499209 2.810824 -6.431026 2.810824 -6.36217 
C 2.810824 -6.293314 2.79723 -6.22513 2.770823 -6.161539 
C 2.744417 -6.097947 2.705714 -6.040191 2.656939 -5.991589 
L 0.716897 -4.051588 
L 0.716897 -0.991139 
L 3.369495 -2.522954 
L 4.07931 -5.171367 
L 4.07931 -5.171367 
C 4.115368 -5.305107 4.203106 -5.4192 4.323103 -5.488391 
C 4.4431 -5.557582 4.585797 -5.576359 4.719608 -5.540567 
L 4.719608 -5.540567 
C 4.853612 -5.504807 4.968045 -5.417186 5.037515 -5.297146 
C 5.106986 -5.177105 5.125946 -5.034232 5.090189 -4.900227 
L 4.650133 -3.262673 
L 5.973022 -4.025577 
L 5.973022 -4.025577 
C 6.03258 -4.059998 6.098346 -4.082336 6.166548 -4.09131 
C 6.234749 -4.100284 6.304056 -4.095719 6.370491 -4.077876 
C 6.436926 -4.060034 6.499194 -4.029262 6.553723 -3.987327 
C 6.608252 -3.945391 6.653978 -3.893109 6.688277 -3.833481 
L 6.688277 -3.833481 
C 6.757325 -3.713365 6.775905 -3.570605 6.739903 -3.436816 
C 6.703901 -3.303027 6.616186 -3.188871 6.496181 -3.119628 
L 5.173293 -2.355342 
L 6.812229 -1.916625 
L 6.812229 -1.916625 
C 6.946224 -1.880865 7.060649 -1.79325 7.130118 -1.67322 
C 7.199588 -1.553189 7.218554 -1.410326 7.18281 -1.276327 
L 7.18281 -1.276327 
C 7.165106 -1.209806 7.134445 -1.147429 7.092589 -1.092779 
C 7.050733 -1.038129 6.998499 -0.992274 6.938889 -0.957848 
C 6.879279 -0.923422 6.813456 -0.901098 6.745202 -0.892157 
C 6.676949 -0.883217 6.607597 -0.887835 6.541131 -0.905746 
L 3.891253 -1.615561 
L 1.239492 -0.084604 
L 3.892718 1.447085 
L 6.541131 0.73727 
L 6.541131 0.73727 
C 6.674948 0.701466 6.817656 0.720237 6.937662 0.789429 
C 7.057669 0.858621 7.145413 0.972721 7.181471 1.10647 
L 7.181471 1.10647 
C 7.217274 1.240293 7.198497 1.383006 7.129297 1.503014 
C 7.060096 1.623021 6.945986 1.710762 6.812229 1.74681 
L 5.173293 2.186866 
L 6.496181 2.949771 
L 6.496181 2.949771 
C 6.555697 2.984183 6.607849 3.029991 6.649651 3.08457 
C 6.691452 3.13915 6.722088 3.201437 6.739803 3.267863 
C 6.757517 3.33429 6.761966 3.403561 6.752893 3.471707 
C 6.743821 3.539854 6.721404 3.605549 6.686927 3.665026 
L 6.686927 3.665026 
C 6.617458 3.784813 6.503196 3.87225 6.369416 3.907994 
C 6.235636 3.943739 6.092989 3.924946 5.973032 3.855772 
L 4.650144 3.091487 
L 5.08886 4.731783 
L 5.08886 4.731783 
C 5.124664 4.865606 5.105887 5.008319 5.036686 5.128326 
C 4.967486 5.248334 4.853376 5.336074 4.719619 5.372123 
L 4.719619 5.372123 
C 4.585619 5.407867 4.442757 5.3889 4.322726 5.319431 
C 4.202695 5.249961 4.115081 5.135537 4.07932 5.001542 
L 3.368166 2.351664 
L 0.717033 0.821063 
L 0.717033 3.884232 
L 2.657075 5.822893 
L 2.657075 5.822893 
C 2.70585 5.871495 2.744553 5.929252 2.770959 5.992843 
C 2.797366 6.056435 2.81096 6.124618 2.81096 6.193474 
C 2.81096 6.26233 2.797366 6.330514 2.770959 6.394105 
C 2.744553 6.457696 2.70585 6.515453 2.657075 6.564055 
L 2.657075 6.564055 
C 2.608473 6.61283 2.550716 6.651533 2.487125 6.67794 
C 2.423533 6.704346 2.35535 6.71794 2.286494 6.71794 
C 2.217638 6.71794 2.149454 6.704346 2.085863 6.67794 
C 2.022272 6.651533 1.964515 6.61283 1.915913 6.564055 
L 0.717033 5.365133 
L 0.717033 6.891026 
L 0.717033 6.891026 
C 0.717033 7.029722 0.661877 7.162879 0.563805 7.260952 
C 0.465732 7.359024 0.332575 7.41418 0.193879 7.41418 
L 0.193618 7.414054 
z
"/>
    </defs>
    <g clip-path="url(#p2d90a8d635)">
     <use xlink:href="#m00530b283f" x="146.975389" y="153.373967" style="fill: #9e2096; fill-opacity: 0.7"/>
    </g>
   </g>
   <g id="patch_163">
    <path d="M 125.254844 13.699063 
C 110.694216 13.699063 96.275171 16.567189 82.822905 22.1393 
C 69.370638 27.711411 57.146763 35.879144 46.850844 46.175063 
C 36.554925 56.470982 28.387192 68.694857 22.815081 82.147124 
C 17.24297 95.59939 14.374844 110.018434 14.374844 124.579063 
C 14.374844 139.139691 17.24297 153.558735 22.815081 167.011001 
C 28.387192 180.463268 36.554925 192.687143 46.850844 202.983062 
C 57.146763 213.278981 69.370638 221.446714 82.822905 227.018825 
C 96.275171 232.590936 110.694216 235.459063 125.254844 235.459063 
C 139.815472 235.459063 154.234516 232.590936 167.686783 227.018825 
C 181.139049 221.446714 193.362925 213.278981 203.658844 202.983062 
C 213.954763 192.687143 222.122495 180.463268 227.694606 167.011001 
C 233.266717 153.558735 236.134844 139.139691 236.134844 124.579063 
C 236.134844 110.018434 233.266717 95.59939 227.694606 82.147124 
C 222.122495 68.694857 213.954763 56.470982 203.658844 46.175063 
C 193.362925 35.879144 181.139049 27.711411 167.686783 22.1393 
C 154.234516 16.567189 139.815472 13.699063 125.254844 13.699063 
" style="fill: none; stroke: #000000; stroke-width: 0.8; stroke-linejoin: miter; stroke-linecap: square"/>
   </g>
  </g>
 </g>
 <defs>
  <clipPath id="p2d90a8d635">
   <path d="M 236.134844 124.579063 
C 236.134844 110.018434 233.266717 95.59939 227.694606 82.147124 
C 222.122495 68.694857 213.954763 56.470982 203.658844 46.175063 
C 193.362925 35.879144 181.139049 27.711411 167.686783 22.1393 
C 154.234516 16.567189 139.815472 13.699063 125.254844 13.699063 
C 110.694216 13.699063 96.275171 16.567189 82.822905 22.1393 
C 69.370638 27.711411 57.146763 35.879144 46.850844 46.175063 
C 36.554925 56.470982 28.387192 68.694857 22.815081 82.147124 
C 17.24297 95.59939 14.374844 110.018434 14.374844 124.579062 
C 14.374844 139.139691 17.24297 153.558735 22.815081 167.011001 
C 28.387192 180.463268 36.554925 192.687143 46.850844 202.983062 
C 57.146763 213.278981 69.370638 221.446714 82.822905 227.018825 
C 96.275171 232.590936 110.694216 235.459063 125.254844 235.459063 
C 139.815472 235.459063 154.234516 232.590936 167.686783 227.018825 
C 181.139049 221.446714 193.362925 213.278981 203.658844 202.983062 
C 213.954763 192.687143 222.122495 180.463268 227.694606 167.011001 
C 233.266717 153.558735 236.134844 139.139691 236.134844 124.579063 
M 125.254844 124.579063 
C 125.254844 124.579063 125.254844 124.579063 125.254844 124.579063 
C 125.254844 124.579063 125.254844 124.579063 125.254844 124.579063 
C 125.254844 124.579063 125.254844 124.579063 125.254844 124.579063 
C 125.254844 124.579063 125.254844 124.579063 125.254844 124.579063 
C 125.254844 124.579063 125.254844 124.579063 125.254844 124.579063 
C 125.254844 124.579063 125.254844 124.579063 125.254844 124.579063 
C 125.254844 124.579063 125.254844 124.579063 125.254844 124.579063 
C 125.254844 124.579063 125.254844 124.579063 125.254844 124.579063 
C 125.254844 124.579063 125.254844 124.579063 125.254844 124.579063 
C 125.254844 124.579063 125.254844 124.579063 125.254844 124.579063 
C 125.254844 124.579063 125.254844 124.579063 125.254844 124.579063 
C 125.254844 124.579063 125.254844 124.579063 125.254844 124.579063 
C 125.254844 124.579063 125.254844 124.579063 125.254844 124.579063 
C 125.254844 124.579063 125.254844 124.579063 125.254844 124.579063 
C 125.254844 124.579063 125.254844 124.579063 125.254844 124.579063 
C 125.254844 124.579063 125.254844 124.579063 125.254844 124.579063 
z
"/>
  </clipPath>
 </defs>
</svg>
