<?xml version="1.0" encoding="utf-8" standalone="no"?>
<!DOCTYPE svg PUBLIC "-//W3C//DTD SVG 1.1//EN"
  "http://www.w3.org/Graphics/SVG/1.1/DTD/svg11.dtd">
<svg xmlns:xlink="http://www.w3.org/1999/xlink" width="248.410469pt" height="249.158125pt" viewBox="0 0 248.410469 249.158125" xmlns="http://www.w3.org/2000/svg" version="1.1">
 <title>Ski Rose for Sölden</title>
 <metadata>
  <rdf:RDF xmlns:dc="http://purl.org/dc/elements/1.1/" xmlns:cc="http://creativecommons.org/ns#" xmlns:rdf="http://www.w3.org/1999/02/22-rdf-syntax-ns#">
   <cc:Work>
    <dc:type rdf:resource="http://purl.org/dc/dcmitype/StillImage"/>
    <dc:title>Ski Rose for Sölden</dc:title>
    <dc:date>2026-01-03T10:15:40.169392</dc:date>
    <dc:description>A 32-bin stacked histogram of downhill ski run orientations colored by difficulty.</dc:description>
    <dc:format>image/svg+xml</dc:format>
    <dc:source>https://openskimap.org/?obj=78e5f98d8527df7216b08962f372659abcd4f711</dc:source>
    <dc:creator>
     <cc:Agent>
      <dc:title>https://github.com/dhimmel/openskistats</dc:title>
     </cc:Agent>
    </dc:creator>
    <dc:rights>
     <cc:Agent>
      <dc:title>https://creativecommons.org/licenses/by/4.0/</dc:title>
     </cc:Agent>
    </dc:rights>
   </cc:Work>
  </rdf:RDF>
 </metadata>
 <defs>
  <style type="text/css">*{stroke-linejoin: round; stroke-linecap: butt}</style>
 </defs>
 <g id="figure_1">
  <g id="patch_1">
   <path d="M 0 249.158125 
L 248.410469 249.158125 
L 248.410469 0 
L 0 0 
z
" style="fill: #ffffff"/>
  </g>
  <g id="axes_1">
   <g id="patch_2">
    <path d="M 236.134844 124.579063 
C 236.134844 110.018434 233.266717 95.59939 227.694606 82.147124 
C 222.122495 68.694857 213.954763 56.470982 203.658844 46.175063 
C 193.362925 35.879144 181.139049 27.711411 167.686783 22.1393 
C 154.234516 16.567189 139.815472 13.699063 125.254844 13.699063 
C 110.694216 13.699063 96.275171 16.567189 82.822905 22.1393 
C 69.370638 27.711411 57.146763 35.879144 46.850844 46.175063 
C 36.554925 56.470982 28.387192 68.694857 22.815081 82.147124 
C 17.24297 95.59939 14.374844 110.018434 14.374844 124.579062 
C 14.374844 139.139691 17.24297 153.558735 22.815081 167.011001 
C 28.387192 180.463268 36.554925 192.687143 46.850844 202.983062 
C 57.146763 213.278981 69.370638 221.446714 82.822905 227.018825 
C 96.275171 232.590936 110.694216 235.459063 125.254844 235.459063 
C 139.815472 235.459063 154.234516 232.590936 167.686783 227.018825 
C 181.139049 221.446714 193.362925 213.278981 203.658844 202.983062 
C 213.954763 192.687143 222.122495 180.463268 227.694606 167.011001 
C 233.266717 153.558735 236.134844 139.139691 236.134844 124.579063 
M 125.254844 124.579063 
C 125.254844 124.579063 125.254844 124.579063 125.254844 124.579063 
C 125.254844 124.579063 125.254844 124.579063 125.254844 124.579063 
C 125.254844 124.579063 125.254844 124.579063 125.254844 124.579063 
C 125.254844 124.579063 125.254844 124.579063 125.254844 124.579063 
C 125.254844 124.579063 125.254844 124.579063 125.254844 124.579063 
C 125.254844 124.579063 125.254844 124.579063 125.254844 124.579063 
C 125.254844 124.579063 125.254844 124.579063 125.254844 124.579063 
C 125.254844 124.579063 125.254844 124.579063 125.254844 124.579063 
C 125.254844 124.579063 125.254844 124.579063 125.254844 124.579063 
C 125.254844 124.579063 125.254844 124.579063 125.254844 124.579063 
C 125.254844 124.579063 125.254844 124.579063 125.254844 124.579063 
C 125.254844 124.579063 125.254844 124.579063 125.254844 124.579063 
C 125.254844 124.579063 125.254844 124.579063 125.254844 124.579063 
C 125.254844 124.579063 125.254844 124.579063 125.254844 124.579063 
C 125.254844 124.579063 125.254844 124.579063 125.254844 124.579063 
C 125.254844 124.579063 125.254844 124.579063 125.254844 124.579063 
z
" style="fill: #ffffff"/>
   </g>
   <g id="FillBetweenPolyCollection_1">
    <defs>
     <path id="md6c127d3f7" d="M 235.286743 -137.115614 
L 234.742019 -137.05355 
L 234.002947 -135.050314 
L 232.998441 -133.058667 
L 232.130327 -131.115847 
L 231.009823 -129.196425 
L 230.048678 -127.323186 
L 228.841785 -125.483052 
L 227.805098 -123.68412 
L 226.526889 -121.927161 
L 225.42499 -120.205539 
L 224.085383 -118.534328 
L 222.926011 -116.892175 
L 221.740218 -115.288578 
L 220.322818 -113.747435 
L 219.089257 -112.225528 
L 217.833665 -110.743065 
L 216.353568 -109.334364 
L 215.059183 -107.934812 
L 213.746961 -106.575138 
L 212.418239 -105.255403 
L 211.074341 -103.975624 
L 209.716588 -102.73577 
L 208.346293 -101.535764 
L 206.964762 -100.375482 
L 205.573293 -99.254753 
L 204.173177 -98.173358 
L 202.765694 -97.131031 
L 201.352117 -96.127458 
L 199.933707 -95.162276 
L 198.690607 -94.160973 
L 197.263513 -93.268802 
L 196.008765 -92.334643 
L 194.577437 -91.513882 
L 193.315037 -90.645502 
L 191.883811 -89.894217 
L 190.617648 -89.089955 
L 189.19073 -88.405879 
L 187.924563 -87.663777 
L 186.658178 -86.951051 
L 185.392382 -86.267225 
L 184.127962 -85.611795 
L 182.865689 -84.984225 
L 181.60631 -84.383952 
L 180.350553 -83.810382 
L 179.099122 -83.262895 
L 177.852697 -82.740841 
L 176.611934 -82.243544 
L 175.377462 -81.770302 
L 174.149883 -81.320386 
L 173.043452 -80.788871 
L 171.827513 -80.38325 
L 170.620061 -79.998788 
L 169.524193 -79.530245 
L 168.331223 -79.18603 
L 167.243379 -78.756617 
L 166.066494 -78.449884 
L 164.988119 -78.057375 
L 163.913257 -77.682657 
L 162.761028 -77.427326 
L 161.697435 -77.086153 
L 160.638156 -76.76126 
L 159.512879 -76.551068 
L 158.466211 -76.256223 
L 157.424446 -75.976095 
L 156.387741 -75.710202 
L 155.356233 -75.45806 
L 154.330036 -75.219181 
L 153.258621 -75.082555 
L 152.246371 -74.866853 
L 151.239584 -74.662841 
L 150.23828 -74.470042 
L 149.242456 -74.287988 
L 148.252088 -74.116215 
L 147.267132 -73.954266 
L 146.317987 -73.728136 
L 145.341052 -73.587252 
L 144.369351 -73.45499 
L 143.402758 -73.330933 
L 142.441127 -73.214675 
L 141.484294 -73.105824 
L 140.532072 -73.004004 
L 139.59905 -72.855526 
L 138.653544 -72.770132 
L 137.712107 -72.690825 
L 136.77449 -72.617294 
L 135.840429 -72.54925 
L 134.916448 -72.44971 
L 133.987356 -72.395626 
L 133.061076 -72.346342 
L 132.137295 -72.301651 
L 131.21827 -72.238738 
L 130.297733 -72.20666 
L 129.378839 -72.178728 
L 128.461247 -72.154828 
L 127.544956 -72.126878 
L 126.628668 -72.114838 
L 125.712764 -72.106644 
L 124.796923 -72.10654 
L 123.881109 -72.118262 
L 122.965031 -72.133718 
L 122.048332 -72.153054 
L 121.13066 -72.176335 
L 120.213483 -72.222534 
L 119.293607 -72.257958 
L 118.371864 -72.29764 
L 117.452304 -72.371048 
L 116.527009 -72.423579 
L 115.599014 -72.480867 
L 114.668015 -72.543136 
L 113.743253 -72.653632 
L 112.807037 -72.730218 
L 111.867105 -72.812518 
L 110.923204 -72.900841 
L 109.975099 -72.995509 
L 109.041143 -73.155774 
L 108.086185 -73.26735 
L 107.12652 -73.386255 
L 106.161979 -73.512876 
L 105.192414 -73.647617 
L 104.217695 -73.790892 
L 103.237713 -73.943129 
L 102.252382 -74.104767 
L 101.261635 -74.276253 
L 100.265426 -74.458045 
L 99.263734 -74.650605 
L 98.256557 -74.854405 
L 97.243918 -75.069919 
L 96.225859 -75.297626 
L 95.202447 -75.538009 
L 94.173771 -75.791551 
L 93.13994 -76.058736 
L 92.101088 -76.340049 
L 90.987323 -76.537771 
L 89.935573 -76.847807 
L 88.879309 -77.173543 
L 87.818756 -77.51545 
L 86.670097 -77.772022 
L 85.598321 -78.14724 
L 84.431651 -78.436837 
L 83.349788 -78.847719 
L 82.166353 -79.173267 
L 81.075747 -79.622087 
L 79.87703 -79.986409 
L 78.779218 -80.475341 
L 77.566929 -80.88114 
L 76.346664 -81.30876 
L 75.239692 -81.862088 
L 74.008847 -82.335122 
L 72.771696 -82.832082 
L 71.528866 -83.35367 
L 70.281011 -83.900566 
L 69.028808 -84.473421 
L 67.772959 -85.072858 
L 66.51419 -85.699472 
L 65.253247 -86.35383 
L 63.990897 -87.036468 
L 62.727927 -87.747894 
L 61.46514 -88.488585 
L 60.042044 -89.171401 
L 58.779187 -89.974026 
L 57.3517 -90.723804 
L 56.092526 -91.590329 
L 54.664848 -92.409348 
L 53.41324 -93.341444 
L 51.989704 -94.231648 
L 50.749655 -95.230688 
L 49.334706 -96.193686 
L 47.92454 -97.194966 
L 46.520417 -98.234892 
L 45.123608 -99.313781 
L 43.735393 -100.431901 
L 42.357062 -101.589473 
L 40.989914 -102.78667 
L 39.635251 -104.023617 
L 38.294387 -105.300393 
L 36.968639 -106.617031 
L 35.659332 -107.973516 
L 34.367799 -109.369787 
L 33.095379 -110.805738 
L 31.638053 -112.254178 
L 30.407136 -113.772531 
L 29.199554 -115.32999 
L 27.809407 -116.90994 
L 26.652405 -118.548279 
L 25.315454 -120.215615 
L 24.215654 -121.933258 
L 22.939718 -123.686172 
L 21.904683 -125.480986 
L 20.905019 -127.311559 
L 19.738956 -129.185986 
L 18.820198 -131.088884 
L 17.748857 -133.039967 
L 16.933158 -135.009255 
L 15.99466 -137.027688 
L 15.198095 -137.118445 
L 15.198095 -137.118445 
L 14.927831 -135.202346 
L 14.732126 -133.277389 
L 14.707706 -131.340415 
L 14.536492 -129.41313 
L 14.437469 -127.480918 
L 14.441067 -125.54612 
L 14.54974 -123.612954 
L 14.437079 -121.677197 
L 14.536854 -119.745011 
L 14.743501 -117.819899 
L 14.726407 -115.880286 
L 14.920046 -113.95503 
L 15.143781 -112.033492 
L 15.477918 -110.126656 
L 15.666469 -108.20097 
L 15.900704 -106.279455 
L 16.245407 -104.375358 
L 16.61975 -102.477003 
L 17.109519 -100.603821 
L 17.459079 -98.699589 
L 17.925888 -96.821907 
L 18.422586 -94.951855 
L 18.949299 -93.089926 
L 19.582937 -91.260838 
L 20.168264 -89.417585 
L 20.784211 -87.584071 
L 21.431002 -85.760919 
L 22.108913 -83.9488 
L 22.818296 -82.148455 
L 23.642978 -80.396966 
L 24.414803 -78.623609 
L 25.208857 -76.859575 
L 26.050121 -75.117412 
L 26.926196 -73.392409 
L 27.8377 -71.685869 
L 28.785195 -69.999161 
L 29.743223 -68.318418 
L 30.736857 -66.658366 
L 31.743426 -65.00572 
L 32.804022 -63.387199 
L 33.882664 -61.780703 
L 35.01147 -60.209089 
L 36.811574 -59.134485 
L 38.632444 -58.111358 
L 40.41192 -57.091954 
L 42.26538 -56.167828 
L 44.120281 -55.2836 
L 45.920914 -54.390331 
L 47.78128 -53.587621 
L 49.58164 -52.767874 
L 51.431194 -52.032764 
L 53.225116 -51.281079 
L 55.015007 -50.561719 
L 56.799996 -49.873705 
L 58.579313 -49.216084 
L 60.352273 -48.587916 
L 62.118265 -47.988268 
L 63.83783 -47.367294 
L 65.590058 -46.8224 
L 67.333843 -46.303323 
L 69.031345 -45.756625 
L 70.758915 -45.286993 
L 72.446612 -44.794528 
L 74.156708 -44.371055 
L 75.826278 -43.918973 
L 77.492518 -43.494723 
L 79.148373 -43.086152 
L 80.800437 -42.704231 
L 82.442 -42.336355 
L 84.079432 -41.993963 
L 85.706394 -41.664014 
L 87.329007 -41.358409 
L 88.941326 -41.063689 
L 90.549193 -40.79221 
L 92.134071 -40.497082 
L 93.72616 -40.251767 
L 95.313807 -40.028184 
L 96.882552 -39.78322 
L 98.455431 -39.582185 
L 100.014361 -39.368622 
L 101.577777 -39.202319 
L 103.127375 -39.018491 
L 104.678048 -38.870539 
L 106.219188 -38.71477 
L 107.761877 -38.598383 
L 109.295348 -38.469327 
L 110.82571 -38.353957 
L 112.355005 -38.264226 
L 113.879369 -38.173755 
L 115.401371 -38.096245 
L 116.921262 -38.031507 
L 118.440328 -37.992427 
L 119.956447 -37.951035 
L 121.471314 -37.921986 
L 122.985193 -37.904616 
L 124.498392 -37.898224 
L 126.01129 -37.898963 
L 127.524453 -37.906198 
L 129.038259 -37.9246 
L 130.55372 -37.943196 
L 132.070048 -37.983686 
L 133.587931 -38.036641 
L 135.107638 -38.102198 
L 136.630765 -38.170361 
L 138.155323 -38.259939 
L 139.682515 -38.362699 
L 141.216964 -38.455169 
L 142.750857 -38.583408 
L 144.288091 -38.72563 
L 145.833752 -38.861742 
L 147.378995 -39.031318 
L 148.936976 -39.184052 
L 150.491209 -39.382521 
L 152.058089 -39.57003 
L 153.621846 -39.79903 
L 155.203387 -40.006985 
L 156.777315 -40.268385 
L 158.368582 -40.514941 
L 159.970092 -40.769038 
L 161.575592 -41.047061 
L 163.171713 -41.378087 
L 164.793943 -41.683617 
L 166.419881 -42.014771 
L 168.056944 -42.356992 
L 169.697405 -42.726048 
L 171.34912 -43.107705 
L 173.003797 -43.517425 
L 174.696433 -43.897722 
L 176.370814 -44.343061 
L 178.047285 -44.818385 
L 179.766251 -45.264473 
L 181.461454 -45.780302 
L 183.19736 -46.274246 
L 184.900481 -46.847355 
L 186.651839 -47.392461 
L 188.411202 -47.964273 
L 190.178081 -48.563718 
L 191.951918 -49.191734 
L 193.732136 -49.849211 
L 195.518018 -50.537126 
L 197.308791 -51.256433 
L 199.103579 -52.008112 
L 200.901374 -52.793185 
L 202.759959 -53.558709 
L 204.561445 -54.414509 
L 206.417667 -55.259463 
L 208.215041 -56.191953 
L 210.068929 -57.114893 
L 211.906758 -58.088711 
L 213.731915 -59.109474 
L 215.506412 -60.203244 
L 216.629085 -61.779287 
L 217.706829 -63.386429 
L 218.760937 -65.009111 
L 219.782455 -66.652468 
L 220.734584 -68.337197 
L 221.753095 -69.982979 
L 222.591442 -71.729602 
L 223.495561 -73.438182 
L 224.476744 -75.108848 
L 225.272634 -76.873024 
L 226.123043 -78.610776 
L 226.902175 -80.381545 
L 227.682396 -82.152181 
L 228.415398 -83.94304 
L 229.101266 -85.752476 
L 229.740134 -87.578881 
L 230.332177 -89.420679 
L 230.987788 -91.241593 
L 231.494813 -93.10935 
L 232.07728 -94.954579 
L 232.540833 -96.833019 
L 233.047546 -98.700324 
L 233.412375 -100.601115 
L 233.871018 -102.480852 
L 234.265386 -104.375153 
L 234.469721 -106.30276 
L 234.809117 -108.206067 
L 235.108661 -110.116533 
L 235.357336 -112.034468 
L 235.581478 -113.955816 
L 235.767293 -115.881544 
L 235.915461 -117.810769 
L 236.022065 -119.742861 
L 236.094211 -121.676632 
L 235.957012 -123.612979 
L 235.962138 -125.54519 
L 235.932989 -127.477272 
L 235.867869 -129.408531 
L 235.771899 -131.338575 
L 235.643568 -133.266844 
L 235.479072 -135.192449 
L 235.286743 -137.115614 
z
" style="stroke: #ffee9c"/>
    </defs>
    <g clip-path="url(#p0227716e34)">
     <use xlink:href="#md6c127d3f7" x="0" y="249.158125" style="fill: #ffee9c; stroke: #ffee9c"/>
    </g>
   </g>
   <g id="matplotlib.axis_1">
    <g id="xtick_1">
     <g id="line2d_1">
      <path d="M 125.254844 124.579063 
L 125.254844 13.699063 
" clip-path="url(#p0227716e34)" style="fill: none; stroke: #b0b0b0; stroke-width: 0.8; stroke-linecap: square"/>
     </g>
     <g id="text_1">
      <!-- N -->
      <g transform="translate(121.070469 7.958438) scale(0.1 -0.1)">
       <defs>
        <path id="DejaVuSans-Bold-4e" d="M 588 4666 
L 1931 4666 
L 3628 1466 
L 3628 4666 
L 4769 4666 
L 4769 0 
L 3425 0 
L 1728 3200 
L 1728 0 
L 588 0 
L 588 4666 
z
" transform="scale(0.015625)"/>
       </defs>
       <use xlink:href="#DejaVuSans-Bold-4e"/>
      </g>
     </g>
    </g>
    <g id="xtick_2">
     <g id="line2d_2">
      <path d="M 125.254844 124.579063 
L 203.658844 46.175063 
" clip-path="url(#p0227716e34)" style="fill: none; stroke: #b0b0b0; stroke-width: 0.8; stroke-linecap: square"/>
     </g>
    </g>
    <g id="xtick_3">
     <g id="line2d_3">
      <path d="M 125.254844 124.579063 
L 236.134844 124.579063 
" clip-path="url(#p0227716e34)" style="fill: none; stroke: #b0b0b0; stroke-width: 0.8; stroke-linecap: square"/>
     </g>
     <g id="text_2">
      <!-- E -->
      <g transform="translate(241.219219 127.338438) scale(0.1 -0.1)">
       <defs>
        <path id="DejaVuSans-Bold-45" d="M 588 4666 
L 3834 4666 
L 3834 3756 
L 1791 3756 
L 1791 2888 
L 3713 2888 
L 3713 1978 
L 1791 1978 
L 1791 909 
L 3903 909 
L 3903 0 
L 588 0 
L 588 4666 
z
" transform="scale(0.015625)"/>
       </defs>
       <use xlink:href="#DejaVuSans-Bold-45"/>
      </g>
     </g>
    </g>
    <g id="xtick_4">
     <g id="line2d_4">
      <path d="M 125.254844 124.579063 
L 203.658844 202.983062 
" clip-path="url(#p0227716e34)" style="fill: none; stroke: #b0b0b0; stroke-width: 0.8; stroke-linecap: square"/>
     </g>
    </g>
    <g id="xtick_5">
     <g id="line2d_5">
      <path d="M 125.254844 124.579063 
L 125.254844 235.459063 
" clip-path="url(#p0227716e34)" style="fill: none; stroke: #b0b0b0; stroke-width: 0.8; stroke-linecap: square"/>
     </g>
     <g id="text_3">
      <!-- S -->
      <g transform="translate(121.654062 246.718438) scale(0.1 -0.1)">
       <defs>
        <path id="DejaVuSans-Bold-53" d="M 3834 4519 
L 3834 3531 
Q 3450 3703 3084 3790 
Q 2719 3878 2394 3878 
Q 1963 3878 1756 3759 
Q 1550 3641 1550 3391 
Q 1550 3203 1689 3098 
Q 1828 2994 2194 2919 
L 2706 2816 
Q 3484 2659 3812 2340 
Q 4141 2022 4141 1434 
Q 4141 663 3683 286 
Q 3225 -91 2284 -91 
Q 1841 -91 1394 -6 
Q 947 78 500 244 
L 500 1259 
Q 947 1022 1364 901 
Q 1781 781 2169 781 
Q 2563 781 2772 912 
Q 2981 1044 2981 1288 
Q 2981 1506 2839 1625 
Q 2697 1744 2272 1838 
L 1806 1941 
Q 1106 2091 782 2419 
Q 459 2747 459 3303 
Q 459 4000 909 4375 
Q 1359 4750 2203 4750 
Q 2588 4750 2994 4692 
Q 3400 4634 3834 4519 
z
" transform="scale(0.015625)"/>
       </defs>
       <use xlink:href="#DejaVuSans-Bold-53"/>
      </g>
     </g>
    </g>
    <g id="xtick_6">
     <g id="line2d_6">
      <path d="M 125.254844 124.579063 
L 46.850844 202.983062 
" clip-path="url(#p0227716e34)" style="fill: none; stroke: #b0b0b0; stroke-width: 0.8; stroke-linecap: square"/>
     </g>
    </g>
    <g id="xtick_7">
     <g id="line2d_7">
      <path d="M 125.254844 124.579063 
L 14.374844 124.579063 
" clip-path="url(#p0227716e34)" style="fill: none; stroke: #b0b0b0; stroke-width: 0.8; stroke-linecap: square"/>
     </g>
     <g id="text_4">
      <!-- W -->
      <g transform="translate(0.36 127.338438) scale(0.1 -0.1)">
       <defs>
        <path id="DejaVuSans-Bold-57" d="M 191 4666 
L 1344 4666 
L 2150 1275 
L 2950 4666 
L 4109 4666 
L 4909 1275 
L 5716 4666 
L 6859 4666 
L 5759 0 
L 4372 0 
L 3525 3547 
L 2688 0 
L 1300 0 
L 191 4666 
z
" transform="scale(0.015625)"/>
       </defs>
       <use xlink:href="#DejaVuSans-Bold-57"/>
      </g>
     </g>
    </g>
    <g id="xtick_8">
     <g id="line2d_8">
      <path d="M 125.254844 124.579063 
L 46.850844 46.175063 
" clip-path="url(#p0227716e34)" style="fill: none; stroke: #b0b0b0; stroke-width: 0.8; stroke-linecap: square"/>
     </g>
    </g>
   </g>
   <g id="matplotlib.axis_2"/>
   <g id="patch_3">
    <path d="M 125.254844 124.579063 
C 125.254844 124.579063 125.254844 124.579063 125.254844 124.579063 
C 125.254844 124.579063 125.254844 124.579063 125.254844 124.579063 
L 125.254844 124.579063 
C 125.254844 124.579063 125.254844 124.579063 125.254844 124.579063 
C 125.254844 124.579063 125.254844 124.579063 125.254844 124.579063 
z
" clip-path="url(#p0227716e34)" style="fill: #d9d9d9"/>
   </g>
   <g id="patch_4">
    <path d="M 125.254844 124.579063 
C 125.254844 124.579063 125.254844 124.579063 125.254844 124.579063 
C 125.254844 124.579063 125.254844 124.579063 125.254844 124.579063 
L 125.254844 124.579063 
C 125.254844 124.579063 125.254844 124.579063 125.254844 124.579063 
C 125.254844 124.579063 125.254844 124.579063 125.254844 124.579063 
z
" clip-path="url(#p0227716e34)" style="fill: #d9d9d9"/>
   </g>
   <g id="patch_5">
    <path d="M 125.254844 124.579063 
C 125.254844 124.579063 125.254844 124.579063 125.254844 124.579063 
C 125.254844 124.579063 125.254844 124.579063 125.254844 124.579063 
L 125.254844 124.579063 
C 125.254844 124.579063 125.254844 124.579063 125.254844 124.579063 
C 125.254844 124.579063 125.254844 124.579063 125.254844 124.579063 
z
" clip-path="url(#p0227716e34)" style="fill: #d9d9d9"/>
   </g>
   <g id="patch_6">
    <path d="M 125.254844 124.579063 
C 125.254844 124.579063 125.254844 124.579063 125.254844 124.579063 
C 125.254844 124.579063 125.254844 124.579063 125.254844 124.579063 
L 125.254844 124.579063 
C 125.254844 124.579063 125.254844 124.579063 125.254844 124.579063 
C 125.254844 124.579063 125.254844 124.579063 125.254844 124.579063 
z
" clip-path="url(#p0227716e34)" style="fill: #d9d9d9"/>
   </g>
   <g id="patch_7">
    <path d="M 125.254844 124.579063 
C 125.254844 124.579063 125.254844 124.579063 125.254844 124.579063 
C 125.254844 124.579063 125.254844 124.579063 125.254844 124.579063 
L 125.254844 124.579063 
C 125.254844 124.579063 125.254844 124.579063 125.254844 124.579063 
C 125.254844 124.579063 125.254844 124.579063 125.254844 124.579063 
z
" clip-path="url(#p0227716e34)" style="fill: #d9d9d9"/>
   </g>
   <g id="patch_8">
    <path d="M 125.254844 124.579063 
C 125.254844 124.579063 125.254844 124.579063 125.254844 124.579063 
C 125.254844 124.579063 125.254844 124.579063 125.254844 124.579063 
L 128.896979 122.632301 
C 128.833259 122.513088 128.763724 122.397076 128.688625 122.284683 
C 128.613527 122.17229 128.532955 122.063652 128.447202 121.959162 
z
" clip-path="url(#p0227716e34)" style="fill: #d9d9d9"/>
   </g>
   <g id="patch_9">
    <path d="M 125.254844 124.579063 
C 125.254844 124.579063 125.254844 124.579063 125.254844 124.579063 
C 125.254844 124.579063 125.254844 124.579063 125.254844 124.579063 
L 125.254844 124.579063 
C 125.254844 124.579063 125.254844 124.579063 125.254844 124.579063 
C 125.254844 124.579063 125.254844 124.579063 125.254844 124.579063 
z
" clip-path="url(#p0227716e34)" style="fill: #d9d9d9"/>
   </g>
   <g id="patch_10">
    <path d="M 125.254844 124.579063 
C 125.254844 124.579063 125.254844 124.579063 125.254844 124.579063 
C 125.254844 124.579063 125.254844 124.579063 125.254844 124.579063 
L 125.254844 124.579063 
C 125.254844 124.579063 125.254844 124.579063 125.254844 124.579063 
C 125.254844 124.579063 125.254844 124.579063 125.254844 124.579063 
z
" clip-path="url(#p0227716e34)" style="fill: #d9d9d9"/>
   </g>
   <g id="patch_11">
    <path d="M 125.254844 124.579063 
C 125.254844 124.579063 125.254844 124.579063 125.254844 124.579063 
C 125.254844 124.579063 125.254844 124.579063 125.254844 124.579063 
L 129.4199 124.989285 
C 129.433328 124.852956 129.440053 124.716051 129.440053 124.579063 
C 129.440053 124.442074 129.433328 124.305169 129.4199 124.16884 
z
" clip-path="url(#p0227716e34)" style="fill: #d9d9d9"/>
   </g>
   <g id="patch_12">
    <path d="M 125.254844 124.579063 
C 125.254844 124.579063 125.254844 124.579063 125.254844 124.579063 
C 125.254844 124.579063 125.254844 124.579063 125.254844 124.579063 
L 125.254844 124.579063 
C 125.254844 124.579063 125.254844 124.579063 125.254844 124.579063 
C 125.254844 124.579063 125.254844 124.579063 125.254844 124.579063 
z
" clip-path="url(#p0227716e34)" style="fill: #d9d9d9"/>
   </g>
   <g id="patch_13">
    <path d="M 125.254844 124.579063 
C 125.254844 124.579063 125.254844 124.579063 125.254844 124.579063 
C 125.254844 124.579063 125.254844 124.579063 125.254844 124.579063 
L 133.97297 129.238998 
C 134.125497 128.953641 134.263921 128.660967 134.387744 128.362033 
C 134.511566 128.0631 134.620637 127.758267 134.714562 127.448637 
z
" clip-path="url(#p0227716e34)" style="fill: #d9d9d9"/>
   </g>
   <g id="patch_14">
    <path d="M 125.254844 124.579063 
C 125.254844 124.579063 125.254844 124.579063 125.254844 124.579063 
C 125.254844 124.579063 125.254844 124.579063 125.254844 124.579063 
L 125.254844 124.579063 
C 125.254844 124.579063 125.254844 124.579063 125.254844 124.579063 
C 125.254844 124.579063 125.254844 124.579063 125.254844 124.579063 
z
" clip-path="url(#p0227716e34)" style="fill: #d9d9d9"/>
   </g>
   <g id="patch_15">
    <path d="M 125.254844 124.579063 
C 125.254844 124.579063 125.254844 124.579063 125.254844 124.579063 
C 125.254844 124.579063 125.254844 124.579063 125.254844 124.579063 
L 125.254844 124.579063 
C 125.254844 124.579063 125.254844 124.579063 125.254844 124.579063 
C 125.254844 124.579063 125.254844 124.579063 125.254844 124.579063 
z
" clip-path="url(#p0227716e34)" style="fill: #d9d9d9"/>
   </g>
   <g id="patch_16">
    <path d="M 125.254844 124.579063 
C 125.254844 124.579063 125.254844 124.579063 125.254844 124.579063 
C 125.254844 124.579063 125.254844 124.579063 125.254844 124.579063 
L 125.254844 124.579063 
C 125.254844 124.579063 125.254844 124.579063 125.254844 124.579063 
C 125.254844 124.579063 125.254844 124.579063 125.254844 124.579063 
z
" clip-path="url(#p0227716e34)" style="fill: #d9d9d9"/>
   </g>
   <g id="patch_17">
    <path d="M 125.254844 124.579063 
C 125.254844 124.579063 125.254844 124.579063 125.254844 124.579063 
C 125.254844 124.579063 125.254844 124.579063 125.254844 124.579063 
L 125.254844 124.579063 
C 125.254844 124.579063 125.254844 124.579063 125.254844 124.579063 
C 125.254844 124.579063 125.254844 124.579063 125.254844 124.579063 
z
" clip-path="url(#p0227716e34)" style="fill: #d9d9d9"/>
   </g>
   <g id="patch_18">
    <path d="M 125.254844 124.579063 
C 125.254844 124.579063 125.254844 124.579063 125.254844 124.579063 
C 125.254844 124.579063 125.254844 124.579063 125.254844 124.579063 
L 125.254844 124.579063 
C 125.254844 124.579063 125.254844 124.579063 125.254844 124.579063 
C 125.254844 124.579063 125.254844 124.579063 125.254844 124.579063 
z
" clip-path="url(#p0227716e34)" style="fill: #d9d9d9"/>
   </g>
   <g id="patch_19">
    <path d="M 125.254844 124.579063 
C 125.254844 124.579063 125.254844 124.579063 125.254844 124.579063 
C 125.254844 124.579063 125.254844 124.579063 125.254844 124.579063 
L 125.254844 124.579063 
C 125.254844 124.579063 125.254844 124.579063 125.254844 124.579063 
C 125.254844 124.579063 125.254844 124.579063 125.254844 124.579063 
z
" clip-path="url(#p0227716e34)" style="fill: #d9d9d9"/>
   </g>
   <g id="patch_20">
    <path d="M 125.254844 124.579063 
C 125.254844 124.579063 125.254844 124.579063 125.254844 124.579063 
C 125.254844 124.579063 125.254844 124.579063 125.254844 124.579063 
L 125.254844 124.579063 
C 125.254844 124.579063 125.254844 124.579063 125.254844 124.579063 
C 125.254844 124.579063 125.254844 124.579063 125.254844 124.579063 
z
" clip-path="url(#p0227716e34)" style="fill: #d9d9d9"/>
   </g>
   <g id="patch_21">
    <path d="M 125.254844 124.579063 
C 125.254844 124.579063 125.254844 124.579063 125.254844 124.579063 
C 125.254844 124.579063 125.254844 124.579063 125.254844 124.579063 
L 125.254844 124.579063 
C 125.254844 124.579063 125.254844 124.579063 125.254844 124.579063 
C 125.254844 124.579063 125.254844 124.579063 125.254844 124.579063 
z
" clip-path="url(#p0227716e34)" style="fill: #d9d9d9"/>
   </g>
   <g id="patch_22">
    <path d="M 125.254844 124.579063 
C 125.254844 124.579063 125.254844 124.579063 125.254844 124.579063 
C 125.254844 124.579063 125.254844 124.579063 125.254844 124.579063 
L 125.254844 124.579063 
C 125.254844 124.579063 125.254844 124.579063 125.254844 124.579063 
C 125.254844 124.579063 125.254844 124.579063 125.254844 124.579063 
z
" clip-path="url(#p0227716e34)" style="fill: #d9d9d9"/>
   </g>
   <g id="patch_23">
    <path d="M 125.254844 124.579063 
C 125.254844 124.579063 125.254844 124.579063 125.254844 124.579063 
C 125.254844 124.579063 125.254844 124.579063 125.254844 124.579063 
L 125.254844 124.579063 
C 125.254844 124.579063 125.254844 124.579063 125.254844 124.579063 
C 125.254844 124.579063 125.254844 124.579063 125.254844 124.579063 
z
" clip-path="url(#p0227716e34)" style="fill: #d9d9d9"/>
   </g>
   <g id="patch_24">
    <path d="M 125.254844 124.579063 
C 125.254844 124.579063 125.254844 124.579063 125.254844 124.579063 
C 125.254844 124.579063 125.254844 124.579063 125.254844 124.579063 
L 125.254844 124.579063 
C 125.254844 124.579063 125.254844 124.579063 125.254844 124.579063 
C 125.254844 124.579063 125.254844 124.579063 125.254844 124.579063 
z
" clip-path="url(#p0227716e34)" style="fill: #d9d9d9"/>
   </g>
   <g id="patch_25">
    <path d="M 125.254844 124.579063 
C 125.254844 124.579063 125.254844 124.579063 125.254844 124.579063 
C 125.254844 124.579063 125.254844 124.579063 125.254844 124.579063 
L 125.254844 124.579063 
C 125.254844 124.579063 125.254844 124.579063 125.254844 124.579063 
C 125.254844 124.579063 125.254844 124.579063 125.254844 124.579063 
z
" clip-path="url(#p0227716e34)" style="fill: #d9d9d9"/>
   </g>
   <g id="patch_26">
    <path d="M 125.254844 124.579063 
C 125.254844 124.579063 125.254844 124.579063 125.254844 124.579063 
C 125.254844 124.579063 125.254844 124.579063 125.254844 124.579063 
L 125.254844 124.579063 
C 125.254844 124.579063 125.254844 124.579063 125.254844 124.579063 
C 125.254844 124.579063 125.254844 124.579063 125.254844 124.579063 
z
" clip-path="url(#p0227716e34)" style="fill: #d9d9d9"/>
   </g>
   <g id="patch_27">
    <path d="M 125.254844 124.579063 
C 125.254844 124.579063 125.254844 124.579063 125.254844 124.579063 
C 125.254844 124.579063 125.254844 124.579063 125.254844 124.579063 
L 125.254844 124.579063 
C 125.254844 124.579063 125.254844 124.579063 125.254844 124.579063 
C 125.254844 124.579063 125.254844 124.579063 125.254844 124.579063 
z
" clip-path="url(#p0227716e34)" style="fill: #d9d9d9"/>
   </g>
   <g id="patch_28">
    <path d="M 125.254844 124.579063 
C 125.254844 124.579063 125.254844 124.579063 125.254844 124.579063 
C 125.254844 124.579063 125.254844 124.579063 125.254844 124.579063 
L 125.254844 124.579063 
C 125.254844 124.579063 125.254844 124.579063 125.254844 124.579063 
C 125.254844 124.579063 125.254844 124.579063 125.254844 124.579063 
z
" clip-path="url(#p0227716e34)" style="fill: #d9d9d9"/>
   </g>
   <g id="patch_29">
    <path d="M 125.254844 124.579063 
C 125.254844 124.579063 125.254844 124.579063 125.254844 124.579063 
C 125.254844 124.579063 125.254844 124.579063 125.254844 124.579063 
L 125.254844 124.579063 
C 125.254844 124.579063 125.254844 124.579063 125.254844 124.579063 
C 125.254844 124.579063 125.254844 124.579063 125.254844 124.579063 
z
" clip-path="url(#p0227716e34)" style="fill: #d9d9d9"/>
   </g>
   <g id="patch_30">
    <path d="M 125.254844 124.579063 
C 125.254844 124.579063 125.254844 124.579063 125.254844 124.579063 
C 125.254844 124.579063 125.254844 124.579063 125.254844 124.579063 
L 125.254844 124.579063 
C 125.254844 124.579063 125.254844 124.579063 125.254844 124.579063 
C 125.254844 124.579063 125.254844 124.579063 125.254844 124.579063 
z
" clip-path="url(#p0227716e34)" style="fill: #d9d9d9"/>
   </g>
   <g id="patch_31">
    <path d="M 125.254844 124.579063 
C 125.254844 124.579063 125.254844 124.579063 125.254844 124.579063 
C 125.254844 124.579063 125.254844 124.579063 125.254844 124.579063 
L 125.254844 124.579063 
C 125.254844 124.579063 125.254844 124.579063 125.254844 124.579063 
C 125.254844 124.579063 125.254844 124.579063 125.254844 124.579063 
z
" clip-path="url(#p0227716e34)" style="fill: #d9d9d9"/>
   </g>
   <g id="patch_32">
    <path d="M 125.254844 124.579063 
C 125.254844 124.579063 125.254844 124.579063 125.254844 124.579063 
C 125.254844 124.579063 125.254844 124.579063 125.254844 124.579063 
L 125.254844 124.579063 
C 125.254844 124.579063 125.254844 124.579063 125.254844 124.579063 
C 125.254844 124.579063 125.254844 124.579063 125.254844 124.579063 
z
" clip-path="url(#p0227716e34)" style="fill: #d9d9d9"/>
   </g>
   <g id="patch_33">
    <path d="M 125.254844 124.579063 
C 125.254844 124.579063 125.254844 124.579063 125.254844 124.579063 
C 125.254844 124.579063 125.254844 124.579063 125.254844 124.579063 
L 125.254844 124.579063 
C 125.254844 124.579063 125.254844 124.579063 125.254844 124.579063 
C 125.254844 124.579063 125.254844 124.579063 125.254844 124.579063 
z
" clip-path="url(#p0227716e34)" style="fill: #d9d9d9"/>
   </g>
   <g id="patch_34">
    <path d="M 125.254844 124.579063 
C 125.254844 124.579063 125.254844 124.579063 125.254844 124.579063 
C 125.254844 124.579063 125.254844 124.579063 125.254844 124.579063 
L 125.254844 124.579063 
C 125.254844 124.579063 125.254844 124.579063 125.254844 124.579063 
C 125.254844 124.579063 125.254844 124.579063 125.254844 124.579063 
z
" clip-path="url(#p0227716e34)" style="fill: #d9d9d9"/>
   </g>
   <g id="patch_35">
    <path d="M 125.254844 124.579063 
C 125.254844 124.579063 125.254844 124.579063 125.254844 124.579063 
C 125.254844 124.579063 125.254844 124.579063 125.254844 124.579063 
L 130.637327 69.92979 
C 128.848575 69.753613 127.052251 69.665365 125.254844 69.665365 
C 123.457436 69.665365 121.661112 69.753613 119.87236 69.92979 
z
" clip-path="url(#p0227716e34)" style="fill: #a1a1d8"/>
   </g>
   <g id="patch_36">
    <path d="M 125.254844 124.579063 
C 125.254844 124.579063 125.254844 124.579063 125.254844 124.579063 
C 125.254844 124.579063 125.254844 124.579063 125.254844 124.579063 
L 142.403345 68.048029 
C 140.553 67.486733 138.676212 67.016622 136.77976 66.639395 
C 134.883308 66.262167 132.969479 65.978277 131.045184 65.788751 
z
" clip-path="url(#p0227716e34)" style="fill: #a1a1d8"/>
   </g>
   <g id="patch_37">
    <path d="M 125.254844 124.579063 
C 125.254844 124.579063 125.254844 124.579063 125.254844 124.579063 
C 125.254844 124.579063 125.254844 124.579063 125.254844 124.579063 
L 143.875342 89.74256 
C 142.735091 89.133084 141.565604 88.579958 140.371105 88.08518 
C 139.176606 87.590402 137.958534 87.154569 136.72129 86.779255 
z
" clip-path="url(#p0227716e34)" style="fill: #a1a1d8"/>
   </g>
   <g id="patch_38">
    <path d="M 125.254844 124.579063 
C 125.254844 124.579063 125.254844 124.579063 125.254844 124.579063 
C 125.254844 124.579063 125.254844 124.579063 125.254844 124.579063 
L 150.891983 93.340118 
C 149.869485 92.500977 148.806405 91.712542 147.706581 90.977663 
C 146.606757 90.242785 145.471515 89.562347 144.304957 88.938808 
z
" clip-path="url(#p0227716e34)" style="fill: #a1a1d8"/>
   </g>
   <g id="patch_39">
    <path d="M 125.254844 124.579063 
C 125.254844 124.579063 125.254844 124.579063 125.254844 124.579063 
C 125.254844 124.579063 125.254844 124.579063 125.254844 124.579063 
L 160.76468 95.436893 
C 159.810813 94.274603 158.800456 93.159846 157.737258 92.096648 
C 156.67406 91.03345 155.559303 90.023093 154.397013 89.069227 
z
" clip-path="url(#p0227716e34)" style="fill: #a1a1d8"/>
   </g>
   <g id="patch_40">
    <path d="M 128.447202 121.959162 
C 128.532955 122.063652 128.613527 122.17229 128.688625 122.284683 
C 128.763724 122.397076 128.833259 122.513088 128.896979 122.632301 
L 181.199981 94.675764 
C 180.221201 92.844596 179.153106 91.062587 177.999554 89.336174 
C 176.846002 87.609761 175.608382 85.941024 174.291167 84.335992 
z
" clip-path="url(#p0227716e34)" style="fill: #a1a1d8"/>
   </g>
   <g id="patch_41">
    <path d="M 125.254844 124.579063 
C 125.254844 124.579063 125.254844 124.579063 125.254844 124.579063 
C 125.254844 124.579063 125.254844 124.579063 125.254844 124.579063 
L 191.901757 104.361942 
C 191.240021 102.180489 190.47158 100.032841 189.59921 97.926753 
C 188.72684 95.820666 187.751593 93.758679 186.676991 91.748241 
z
" clip-path="url(#p0227716e34)" style="fill: #a1a1d8"/>
   </g>
   <g id="patch_42">
    <path d="M 125.254844 124.579063 
C 125.254844 124.579063 125.254844 124.579063 125.254844 124.579063 
C 125.254844 124.579063 125.254844 124.579063 125.254844 124.579063 
L 190.630104 118.140161 
C 190.41935 116.000331 190.103662 113.872139 189.684182 111.76327 
C 189.264702 109.654402 188.741935 107.5674 188.11777 105.509802 
z
" clip-path="url(#p0227716e34)" style="fill: #a1a1d8"/>
   </g>
   <g id="patch_43">
    <path d="M 129.4199 124.16884 
C 129.433328 124.305169 129.440053 124.442074 129.440053 124.579063 
C 129.440053 124.716051 129.433328 124.852956 129.4199 124.989285 
L 174.122498 129.392106 
C 174.280036 127.792595 174.358948 126.186313 174.358948 124.579063 
C 174.358948 122.971812 174.280036 121.36553 174.122498 119.766019 
z
" clip-path="url(#p0227716e34)" style="fill: #a1a1d8"/>
   </g>
   <g id="patch_44">
    <path d="M 125.254844 124.579063 
C 125.254844 124.579063 125.254844 124.579063 125.254844 124.579063 
C 125.254844 124.579063 125.254844 124.579063 125.254844 124.579063 
L 171.666069 138.657754 
C 172.126886 137.138645 172.512841 135.597827 172.82254 134.040866 
C 173.132239 132.483904 173.365308 130.912675 173.520907 129.332855 
z
" clip-path="url(#p0227716e34)" style="fill: #a1a1d8"/>
   </g>
   <g id="patch_45">
    <path d="M 134.714562 127.448637 
C 134.620637 127.758267 134.511566 128.0631 134.387744 128.362033 
C 134.263921 128.660967 134.125497 128.953641 133.97297 129.238998 
L 170.823844 148.936201 
C 171.62109 147.444659 172.344624 145.914874 172.991834 144.352371 
C 173.639044 142.789868 174.209149 141.196531 174.70009 139.578114 
z
" clip-path="url(#p0227716e34)" style="fill: #a1a1d8"/>
   </g>
   <g id="patch_46">
    <path d="M 125.254844 124.579063 
C 125.254844 124.579063 125.254844 124.579063 125.254844 124.579063 
C 125.254844 124.579063 125.254844 124.579063 125.254844 124.579063 
L 151.631969 146.226209 
C 152.340512 145.362847 153.00624 144.465217 153.626747 143.536562 
C 154.247254 142.607907 154.821793 141.649347 155.348288 140.664344 
z
" clip-path="url(#p0227716e34)" style="fill: #a1a1d8"/>
   </g>
   <g id="patch_47">
    <path d="M 125.254844 124.579063 
C 125.254844 124.579063 125.254844 124.579063 125.254844 124.579063 
C 125.254844 124.579063 125.254844 124.579063 125.254844 124.579063 
L 149.324505 153.908029 
C 150.284485 153.120193 151.205207 152.2857 152.083344 151.407563 
C 152.961481 150.529426 153.795974 149.608704 154.58381 148.648723 
z
" clip-path="url(#p0227716e34)" style="fill: #a1a1d8"/>
   </g>
   <g id="patch_48">
    <path d="M 125.254844 124.579063 
C 125.254844 124.579063 125.254844 124.579063 125.254844 124.579063 
C 125.254844 124.579063 125.254844 124.579063 125.254844 124.579063 
L 144.318394 160.244456 
C 145.485775 159.620478 146.621818 158.93956 147.722418 158.204163 
C 148.823017 157.468766 149.886848 156.679775 150.910066 155.840042 
z
" clip-path="url(#p0227716e34)" style="fill: #a1a1d8"/>
   </g>
   <g id="patch_49">
    <path d="M 125.254844 124.579063 
C 125.254844 124.579063 125.254844 124.579063 125.254844 124.579063 
C 125.254844 124.579063 125.254844 124.579063 125.254844 124.579063 
L 132.477343 148.388452 
C 133.25666 148.152049 134.0239 147.877526 134.776293 147.565874 
C 135.528686 147.254223 136.265324 146.905819 136.983546 146.521921 
z
" clip-path="url(#p0227716e34)" style="fill: #a1a1d8"/>
   </g>
   <g id="patch_50">
    <path d="M 125.254844 124.579063 
C 125.254844 124.579063 125.254844 124.579063 125.254844 124.579063 
C 125.254844 124.579063 125.254844 124.579063 125.254844 124.579063 
L 127.769575 150.111555 
C 128.605291 150.029245 129.436463 149.905952 130.260088 149.742123 
C 131.083712 149.578294 131.898797 149.374126 132.702397 149.130356 
z
" clip-path="url(#p0227716e34)" style="fill: #a1a1d8"/>
   </g>
   <g id="patch_51">
    <path d="M 125.254844 124.579063 
C 125.254844 124.579063 125.254844 124.579063 125.254844 124.579063 
C 125.254844 124.579063 125.254844 124.579063 125.254844 124.579063 
L 123.020812 147.261571 
C 123.763244 147.334694 124.508819 147.371322 125.254844 147.371322 
C 126.000868 147.371322 126.746443 147.334694 127.488876 147.261571 
z
" clip-path="url(#p0227716e34)" style="fill: #a1a1d8"/>
   </g>
   <g id="patch_52">
    <path d="M 125.254844 124.579063 
C 125.254844 124.579063 125.254844 124.579063 125.254844 124.579063 
C 125.254844 124.579063 125.254844 124.579063 125.254844 124.579063 
L 119.411735 143.84121 
C 120.042214 144.032463 120.681703 144.192647 121.327892 144.321182 
C 121.974081 144.449717 122.626191 144.546448 123.281867 144.611027 
z
" clip-path="url(#p0227716e34)" style="fill: #a1a1d8"/>
   </g>
   <g id="patch_53">
    <path d="M 125.254844 124.579063 
C 125.254844 124.579063 125.254844 124.579063 125.254844 124.579063 
C 125.254844 124.579063 125.254844 124.579063 125.254844 124.579063 
L 117.87295 138.389615 
C 118.32499 138.631235 118.78862 138.850516 119.262166 139.046665 
C 119.735713 139.242815 120.218604 139.415596 120.709096 139.564385 
z
" clip-path="url(#p0227716e34)" style="fill: #a1a1d8"/>
   </g>
   <g id="patch_54">
    <path d="M 125.254844 124.579063 
C 125.254844 124.579063 125.254844 124.579063 125.254844 124.579063 
C 125.254844 124.579063 125.254844 124.579063 125.254844 124.579063 
L 120.086335 130.876908 
C 120.292473 131.046081 120.506793 131.205031 120.72852 131.353185 
C 120.950247 131.501338 121.179115 131.638516 121.414296 131.764223 
z
" clip-path="url(#p0227716e34)" style="fill: #a1a1d8"/>
   </g>
   <g id="patch_55">
    <path d="M 125.254844 124.579063 
C 125.254844 124.579063 125.254844 124.579063 125.254844 124.579063 
C 125.254844 124.579063 125.254844 124.579063 125.254844 124.579063 
L 114.89047 133.084885 
C 115.168878 133.424126 115.463774 133.749494 115.774093 134.059813 
C 116.084412 134.370132 116.40978 134.665028 116.749022 134.943437 
z
" clip-path="url(#p0227716e34)" style="fill: #a1a1d8"/>
   </g>
   <g id="patch_56">
    <path d="M 125.254844 124.579063 
C 125.254844 124.579063 125.254844 124.579063 125.254844 124.579063 
C 125.254844 124.579063 125.254844 124.579063 125.254844 124.579063 
L 112.329319 131.487899 
C 112.555456 131.910971 112.802228 132.322685 113.068744 132.721554 
C 113.33526 133.120424 113.621198 133.505967 113.925527 133.876793 
z
" clip-path="url(#p0227716e34)" style="fill: #a1a1d8"/>
   </g>
   <g id="patch_57">
    <path d="M 125.254844 124.579063 
C 125.254844 124.579063 125.254844 124.579063 125.254844 124.579063 
C 125.254844 124.579063 125.254844 124.579063 125.254844 124.579063 
L 117.93314 126.800077 
C 118.005837 127.039727 118.090257 127.275664 118.186094 127.507035 
C 118.281931 127.738405 118.389069 127.964931 118.507123 128.185794 
z
" clip-path="url(#p0227716e34)" style="fill: #a1a1d8"/>
   </g>
   <g id="patch_58">
    <path d="M 125.254844 124.579063 
C 125.254844 124.579063 125.254844 124.579063 125.254844 124.579063 
C 125.254844 124.579063 125.254844 124.579063 125.254844 124.579063 
L 112.869765 125.798886 
C 112.909692 126.204268 112.969498 126.607446 113.048966 127.006962 
C 113.128435 127.406479 113.227471 127.801853 113.345717 128.191657 
z
" clip-path="url(#p0227716e34)" style="fill: #a1a1d8"/>
   </g>
   <g id="patch_59">
    <path d="M 125.254844 124.579063 
C 125.254844 124.579063 125.254844 124.579063 125.254844 124.579063 
C 125.254844 124.579063 125.254844 124.579063 125.254844 124.579063 
L 115.892604 123.656962 
C 115.862423 123.963402 115.847305 124.27114 115.847305 124.579063 
C 115.847305 124.886985 115.862423 125.194723 115.892604 125.501163 
z
" clip-path="url(#p0227716e34)" style="fill: #a1a1d8"/>
   </g>
   <g id="patch_60">
    <path d="M 125.254844 124.579063 
C 125.254844 124.579063 125.254844 124.579063 125.254844 124.579063 
C 125.254844 124.579063 125.254844 124.579063 125.254844 124.579063 
L 110.625856 120.141408 
C 110.480605 120.620236 110.358951 121.105908 110.261333 121.596668 
C 110.163714 122.087428 110.09025 122.582685 110.041205 123.08065 
z
" clip-path="url(#p0227716e34)" style="fill: #a1a1d8"/>
   </g>
   <g id="patch_61">
    <path d="M 125.254844 124.579063 
C 125.254844 124.579063 125.254844 124.579063 125.254844 124.579063 
C 125.254844 124.579063 125.254844 124.579063 125.254844 124.579063 
L 113.87834 118.498195 
C 113.679304 118.870564 113.49867 119.252482 113.337092 119.642568 
C 113.175513 120.032654 113.033183 120.430438 112.910618 120.834482 
z
" clip-path="url(#p0227716e34)" style="fill: #a1a1d8"/>
   </g>
   <g id="patch_62">
    <path d="M 125.254844 124.579063 
C 125.254844 124.579063 125.254844 124.579063 125.254844 124.579063 
C 125.254844 124.579063 125.254844 124.579063 125.254844 124.579063 
L 113.414354 114.861823 
C 113.096294 115.24938 112.797454 115.65232 112.518913 116.069186 
C 112.240372 116.486052 111.982466 116.916342 111.746126 117.358503 
z
" clip-path="url(#p0227716e34)" style="fill: #a1a1d8"/>
   </g>
   <g id="patch_63">
    <path d="M 125.254844 124.579063 
C 125.254844 124.579063 125.254844 124.579063 125.254844 124.579063 
C 125.254844 124.579063 125.254844 124.579063 125.254844 124.579063 
L 113.279893 109.987543 
C 112.802291 110.379501 112.34422 110.794671 111.907336 111.231555 
C 111.470453 111.668439 111.055282 112.126509 110.663324 112.604112 
z
" clip-path="url(#p0227716e34)" style="fill: #a1a1d8"/>
   </g>
   <g id="patch_64">
    <path d="M 125.254844 124.579063 
C 125.254844 124.579063 125.254844 124.579063 125.254844 124.579063 
C 125.254844 124.579063 125.254844 124.579063 125.254844 124.579063 
L 115.129051 105.635037 
C 114.508985 105.96647 113.905565 106.328146 113.320971 106.718759 
C 112.736376 107.109373 112.171312 107.528453 111.62782 107.974486 
z
" clip-path="url(#p0227716e34)" style="fill: #a1a1d8"/>
   </g>
   <g id="patch_65">
    <path d="M 125.254844 124.579063 
C 125.254844 124.579063 125.254844 124.579063 125.254844 124.579063 
C 125.254844 124.579063 125.254844 124.579063 125.254844 124.579063 
L 118.143445 101.135924 
C 117.376116 101.36869 116.620678 101.638991 115.879859 101.945848 
C 115.13904 102.252705 114.413734 102.59575 113.706559 102.973742 
z
" clip-path="url(#p0227716e34)" style="fill: #a1a1d8"/>
   </g>
   <g id="patch_66">
    <path d="M 125.254844 124.579063 
C 125.254844 124.579063 125.254844 124.579063 125.254844 124.579063 
C 125.254844 124.579063 125.254844 124.579063 125.254844 124.579063 
L 121.607494 87.546898 
C 120.395376 87.666281 119.18985 87.845104 117.99527 88.082721 
C 116.80069 88.320338 115.618497 88.616462 114.45296 88.970024 
z
" clip-path="url(#p0227716e34)" style="fill: #a1a1d8"/>
   </g>
   <g id="patch_67">
    <path d="M 119.87236 69.92979 
C 121.661112 69.753613 123.457436 69.665365 125.254844 69.665365 
C 127.052251 69.665365 128.848575 69.753613 130.637327 69.92979 
L 131.179382 64.42622 
C 129.210489 64.232301 127.233263 64.135166 125.254844 64.135166 
C 123.276425 64.135166 121.299198 64.232301 119.330306 64.42622 
z
" clip-path="url(#p0227716e34)" style="fill: #ff8c8e"/>
   </g>
   <g id="patch_68">
    <path d="M 131.045184 65.788751 
C 132.969479 65.978277 134.883308 66.262167 136.77976 66.639395 
C 138.676212 67.016622 140.553 67.486733 142.403345 68.048029 
L 145.92604 56.43526 
C 143.695592 55.75866 141.433269 55.191978 139.147242 54.737259 
C 136.861216 54.28254 134.554242 53.940333 132.234653 53.711873 
z
" clip-path="url(#p0227716e34)" style="fill: #ff8c8e"/>
   </g>
   <g id="patch_69">
    <path d="M 136.72129 86.779255 
C 137.958534 87.154569 139.176606 87.590402 140.371105 88.08518 
C 141.565604 88.579958 142.735091 89.133084 143.875342 89.74256 
L 150.798419 76.790394 
C 149.234225 75.954315 147.629924 75.195537 145.991311 74.516801 
C 144.352699 73.838066 142.68175 73.240191 140.9845 72.725336 
z
" clip-path="url(#p0227716e34)" style="fill: #ff8c8e"/>
   </g>
   <g id="patch_70">
    <path d="M 144.304957 88.938808 
C 145.471515 89.562347 146.606757 90.242785 147.706581 90.977663 
C 148.806405 91.712542 149.869485 92.500977 150.891983 93.340118 
L 162.433292 79.276992 
C 160.950488 78.060086 159.40883 76.916715 157.813888 75.851009 
C 156.218946 74.785303 154.572643 73.798546 152.880923 72.894303 
z
" clip-path="url(#p0227716e34)" style="fill: #ff8c8e"/>
   </g>
   <g id="patch_71">
    <path d="M 154.397013 89.069227 
C 155.559303 90.023093 156.67406 91.03345 157.737258 92.096648 
C 158.800456 93.159846 159.810813 94.274603 160.76468 95.436893 
L 172.773563 85.581457 
C 171.497114 84.026098 170.145069 82.534347 168.722314 81.111592 
C 167.299559 79.688837 165.807808 78.336793 164.252449 77.060343 
z
" clip-path="url(#p0227716e34)" style="fill: #ff8c8e"/>
   </g>
   <g id="patch_72">
    <path d="M 174.291167 84.335992 
C 175.608382 85.941024 176.846002 87.609761 177.999554 89.336174 
C 179.153106 91.062587 180.221201 92.844596 181.199981 94.675764 
L 194.858349 87.375214 
C 193.640611 85.096987 192.311753 82.879921 190.876574 80.732024 
C 189.441395 78.584127 187.901625 76.507988 186.262826 74.511105 
z
" clip-path="url(#p0227716e34)" style="fill: #ff8c8e"/>
   </g>
   <g id="patch_73">
    <path d="M 186.676991 91.748241 
C 187.751593 93.758679 188.72684 95.820666 189.59921 97.926753 
C 190.47158 100.032841 191.240021 102.180489 191.901757 104.361942 
L 211.630224 98.377377 
C 210.772604 95.550182 209.776693 92.766798 208.646089 90.037278 
C 207.515485 87.307758 206.25155 84.635392 204.858851 82.029834 
z
" clip-path="url(#p0227716e34)" style="fill: #ff8c8e"/>
   </g>
   <g id="patch_74">
    <path d="M 188.11777 105.509802 
C 188.741935 107.5674 189.264702 109.654402 189.684182 111.76327 
C 190.103662 113.872139 190.41935 116.000331 190.630104 118.140161 
L 216.694078 115.573084 
C 216.399299 112.580141 215.957752 109.603475 215.371033 106.653838 
C 214.784314 103.704201 214.053129 100.785147 213.18012 97.907222 
z
" clip-path="url(#p0227716e34)" style="fill: #ff8c8e"/>
   </g>
   <g id="patch_75">
    <path d="M 174.122498 119.766019 
C 174.280036 121.36553 174.358948 122.971812 174.358948 124.579063 
C 174.358948 126.186313 174.280036 127.792595 174.122498 129.392106 
L 198.345048 131.777819 
C 198.580674 129.385468 198.6987 126.98299 198.6987 124.579063 
C 198.6987 122.175135 198.580674 119.772657 198.345048 117.380306 
z
" clip-path="url(#p0227716e34)" style="fill: #ff8c8e"/>
   </g>
   <g id="patch_76">
    <path d="M 173.520907 129.332855 
C 173.365308 130.912675 173.132239 132.483904 172.82254 134.040866 
C 172.512841 135.597827 172.126886 137.138645 171.666069 138.657754 
L 194.091978 145.460579 
C 194.775461 143.207437 195.347909 140.922095 195.807254 138.61281 
C 196.2666 136.303524 196.612289 133.973077 196.843073 131.629888 
z
" clip-path="url(#p0227716e34)" style="fill: #ff8c8e"/>
   </g>
   <g id="patch_77">
    <path d="M 174.70009 139.578114 
C 174.209149 141.196531 173.639044 142.789868 172.991834 144.352371 
C 172.344624 145.914874 171.62109 147.444659 170.823844 148.936201 
L 185.44471 156.751216 
C 186.497753 154.781112 187.453434 152.760494 188.308302 150.69666 
C 189.16317 148.632826 189.916194 146.528265 190.564655 144.390577 
z
" clip-path="url(#p0227716e34)" style="fill: #ff8c8e"/>
   </g>
   <g id="patch_78">
    <path d="M 155.348288 140.664344 
C 154.821793 141.649347 154.247254 142.607907 153.626747 143.536562 
C 153.00624 144.465217 152.340512 145.362847 151.631969 146.226209 
L 164.013468 156.387443 
C 165.054604 155.118816 166.032826 153.799836 166.944601 152.435268 
C 167.856376 151.0707 168.700606 149.662189 169.474239 148.214822 
z
" clip-path="url(#p0227716e34)" style="fill: #ff8c8e"/>
   </g>
   <g id="patch_79">
    <path d="M 154.58381 148.648723 
C 153.795974 149.608704 152.961481 150.529426 152.083344 151.407563 
C 151.205207 152.2857 150.284485 153.120193 149.324505 153.908029 
L 158.517183 165.10934 
C 159.8438 164.020614 161.116163 162.867411 162.329678 161.653897 
C 163.543193 160.440382 164.696396 159.168018 165.785122 157.841402 
z
" clip-path="url(#p0227716e34)" style="fill: #ff8c8e"/>
   </g>
   <g id="patch_80">
    <path d="M 150.910066 155.840042 
C 149.886848 156.679775 148.823017 157.468766 147.722418 158.204163 
C 146.621818 158.93956 145.485775 159.620478 144.318394 160.244456 
L 151.543436 173.761559 
C 153.153253 172.901095 154.719852 171.962111 156.237577 170.948 
C 157.755302 169.933888 159.222321 168.845873 160.633337 167.687882 
z
" clip-path="url(#p0227716e34)" style="fill: #ff8c8e"/>
   </g>
   <g id="patch_81">
    <path d="M 136.983546 146.521921 
C 136.265324 146.905819 135.528686 147.254223 134.776293 147.565874 
C 134.0239 147.877526 133.25666 148.152049 132.477343 148.388452 
L 137.619358 165.339403 
C 138.953505 164.934694 140.266977 164.464726 141.555031 163.931196 
C 142.843085 163.397667 144.104168 162.801219 145.333725 162.144007 
z
" clip-path="url(#p0227716e34)" style="fill: #ff8c8e"/>
   </g>
   <g id="patch_82">
    <path d="M 132.702397 149.130356 
C 131.898797 149.374126 131.083712 149.578294 130.260088 149.742123 
C 129.436463 149.905952 128.605291 150.029245 127.769575 150.111555 
L 129.264809 165.292919 
C 130.597434 165.161667 131.922812 164.965065 133.236155 164.703825 
C 134.549499 164.442585 135.849224 164.117021 137.130638 163.728308 
z
" clip-path="url(#p0227716e34)" style="fill: #ff8c8e"/>
   </g>
   <g id="patch_83">
    <path d="M 127.488876 147.261571 
C 126.746443 147.334694 126.000868 147.371322 125.254844 147.371322 
C 124.508819 147.371322 123.763244 147.334694 123.020812 147.261571 
L 122.026807 157.353865 
C 123.099576 157.459524 124.176885 157.512448 125.254844 157.512448 
C 126.332803 157.512448 127.410112 157.459524 128.48288 157.353865 
z
" clip-path="url(#p0227716e34)" style="fill: #ff8c8e"/>
   </g>
   <g id="patch_84">
    <path d="M 123.281867 144.611027 
C 122.626191 144.546448 121.974081 144.449717 121.327892 144.321182 
C 120.681703 144.192647 120.042214 144.032463 119.411735 143.84121 
L 116.585425 153.158307 
C 117.520866 153.44207 118.469676 153.679735 119.428426 153.870442 
C 120.387177 154.061149 121.354713 154.20467 122.327539 154.300485 
z
" clip-path="url(#p0227716e34)" style="fill: #ff8c8e"/>
   </g>
   <g id="patch_85">
    <path d="M 120.709096 139.564385 
C 120.218604 139.415596 119.735713 139.242815 119.262166 139.046665 
C 118.78862 138.850516 118.32499 138.631235 117.87295 138.389615 
L 114.698186 144.329179 
C 115.344637 144.674715 116.007663 144.988303 116.68487 145.268811 
C 117.362076 145.549319 118.052646 145.796409 118.754086 146.009188 
z
" clip-path="url(#p0227716e34)" style="fill: #ff8c8e"/>
   </g>
   <g id="patch_86">
    <path d="M 121.414296 131.764223 
C 121.179115 131.638516 120.950247 131.501338 120.72852 131.353185 
C 120.506793 131.205031 120.292473 131.046081 120.086335 130.876908 
L 114.240139 138.000519 
C 114.679443 138.361047 115.136184 138.699789 115.608711 139.015521 
C 116.081237 139.331253 116.568981 139.623596 117.07018 139.891492 
z
" clip-path="url(#p0227716e34)" style="fill: #ff8c8e"/>
   </g>
   <g id="patch_87">
    <path d="M 116.749022 134.943437 
C 116.40978 134.665028 116.084412 134.370132 115.774093 134.059813 
C 115.463774 133.749494 115.168878 133.424126 114.89047 133.084885 
L 105.408578 140.866472 
C 105.94169 141.51607 106.506373 142.139102 107.100589 142.733317 
C 107.694805 143.327533 108.317837 143.892217 108.967435 144.425328 
z
" clip-path="url(#p0227716e34)" style="fill: #ff8c8e"/>
   </g>
   <g id="patch_88">
    <path d="M 113.925527 133.876793 
C 113.621198 133.505967 113.33526 133.120424 113.068744 132.721554 
C 112.802228 132.322685 112.555456 131.910971 112.329319 131.487899 
L 108.098419 133.749363 
C 108.398576 134.310918 108.726124 134.857398 109.079878 135.386829 
C 109.433632 135.91626 109.813167 136.428003 110.217111 136.920211 
z
" clip-path="url(#p0227716e34)" style="fill: #ff8c8e"/>
   </g>
   <g id="patch_89">
    <path d="M 118.507123 128.185794 
C 118.389069 127.964931 118.281931 127.738405 118.186094 127.507035 
C 118.090257 127.275664 118.005837 127.039727 117.93314 126.800077 
L 110.669202 129.003569 
C 110.814023 129.480978 110.982195 129.95099 111.173113 130.411906 
C 111.364031 130.872822 111.577463 131.324087 111.812639 131.764071 
z
" clip-path="url(#p0227716e34)" style="fill: #ff8c8e"/>
   </g>
   <g id="patch_90">
    <path d="M 113.345717 128.191657 
C 113.227471 127.801853 113.128435 127.406479 113.048966 127.006962 
C 112.969498 126.607446 112.909692 126.204268 112.869765 125.798886 
L 111.640643 125.919944 
C 111.684532 126.365557 111.750273 126.808747 111.837629 127.247912 
C 111.924984 127.687078 112.033849 128.12169 112.163829 128.550178 
z
" clip-path="url(#p0227716e34)" style="fill: #ff8c8e"/>
   </g>
   <g id="patch_91">
    <path d="M 115.892604 125.501163 
C 115.862423 125.194723 115.847305 124.886985 115.847305 124.579063 
C 115.847305 124.27114 115.862423 123.963402 115.892604 123.656962 
L 114.831247 123.552428 
C 114.797644 123.893608 114.780812 124.236232 114.780812 124.579063 
C 114.780812 124.921893 114.797644 125.264517 114.831247 125.605697 
z
" clip-path="url(#p0227716e34)" style="fill: #ff8c8e"/>
   </g>
   <g id="patch_92">
    <path d="M 110.041205 123.08065 
C 110.09025 122.582685 110.163714 122.087428 110.261333 121.596668 
C 110.358951 121.105908 110.480605 120.620236 110.625856 120.141408 
L 107.52159 119.199739 
C 107.345517 119.780175 107.198048 120.368906 107.079715 120.963805 
C 106.961382 121.558704 106.872329 122.159054 106.812876 122.762687 
z
" clip-path="url(#p0227716e34)" style="fill: #ff8c8e"/>
   </g>
   <g id="patch_93">
    <path d="M 112.910618 120.834482 
C 113.033183 120.430438 113.175513 120.032654 113.337092 119.642568 
C 113.49867 119.252482 113.679304 118.870564 113.87834 118.498195 
L 112.896507 117.973394 
C 112.680294 118.377901 112.484071 118.792779 112.308547 119.216531 
C 112.133024 119.640283 111.978411 120.072396 111.845267 120.511312 
z
" clip-path="url(#p0227716e34)" style="fill: #ff8c8e"/>
   </g>
   <g id="patch_94">
    <path d="M 111.746126 117.358503 
C 111.982466 116.916342 112.240372 116.486052 112.518913 116.069186 
C 112.797454 115.65232 113.096294 115.24938 113.414354 114.861823 
L 112.388711 114.0201 
C 112.043101 114.441228 111.718375 114.879071 111.415706 115.332046 
C 111.113037 115.785022 110.832791 116.252585 110.575979 116.733046 
z
" clip-path="url(#p0227716e34)" style="fill: #ff8c8e"/>
   </g>
   <g id="patch_95">
    <path d="M 110.663324 112.604112 
C 111.055282 112.126509 111.470453 111.668439 111.907336 111.231555 
C 112.34422 110.794671 112.802291 110.379501 113.279893 109.987543 
L 112.616634 109.179359 
C 112.112578 109.593026 111.629137 110.031192 111.168055 110.492274 
C 110.706974 110.953356 110.268808 111.436797 109.85514 111.940852 
z
" clip-path="url(#p0227716e34)" style="fill: #ff8c8e"/>
   </g>
   <g id="patch_96">
    <path d="M 111.62782 107.974486 
C 112.171312 107.528453 112.736376 107.109373 113.320971 106.718759 
C 113.905565 106.328146 114.508985 105.96647 115.129051 105.635037 
L 114.548849 104.549555 
C 113.893253 104.899978 113.255258 105.282378 112.637166 105.695374 
C 112.019075 106.108369 111.421633 106.551462 110.846999 107.023053 
z
" clip-path="url(#p0227716e34)" style="fill: #ff8c8e"/>
   </g>
   <g id="patch_97">
    <path d="M 113.706559 102.973742 
C 114.413734 102.59575 115.13904 102.252705 115.879859 101.945848 
C 116.620678 101.638991 117.376116 101.36869 118.143445 101.135924 
L 116.294601 95.041102 
C 115.32778 95.334384 114.37594 95.674958 113.442521 96.061593 
C 112.509102 96.448228 111.595228 96.880458 110.7042 97.356722 
z
" clip-path="url(#p0227716e34)" style="fill: #ff8c8e"/>
   </g>
   <g id="patch_98">
    <path d="M 114.45296 88.970024 
C 115.618497 88.616462 116.80069 88.320338 117.99527 88.082721 
C 119.18985 87.845104 120.395376 87.666281 121.607494 87.546898 
L 121.057642 81.964158 
C 119.662793 82.101539 118.275529 82.30732 116.900862 82.580758 
C 115.526194 82.854197 114.165781 83.194963 112.824535 83.601825 
z
" clip-path="url(#p0227716e34)" style="fill: #ff8c8e"/>
   </g>
   <g id="patch_99">
    <path d="M 119.330306 64.42622 
C 121.299198 64.232301 123.276425 64.135166 125.254844 64.135166 
C 127.233263 64.135166 129.210489 64.232301 131.179382 64.42622 
L 131.467625 61.499637 
C 129.402941 61.296284 127.329518 61.194423 125.254844 61.194423 
C 123.18017 61.194423 121.106746 61.296284 119.042063 61.499637 
z
" clip-path="url(#p0227716e34)" style="fill: #828282"/>
   </g>
   <g id="patch_100">
    <path d="M 132.234653 53.711873 
C 134.554242 53.940333 136.861216 54.28254 139.147242 54.737259 
C 141.433269 55.191978 143.695592 55.75866 145.92604 56.43526 
L 147.330798 51.804395 
C 144.948774 51.081816 142.53271 50.476623 140.091331 49.991003 
C 137.649953 49.505382 135.186203 49.139919 132.708981 48.895934 
z
" clip-path="url(#p0227716e34)" style="fill: #828282"/>
   </g>
   <g id="patch_101">
    <path d="M 140.9845 72.725336 
C 142.68175 73.240191 144.352699 73.838066 145.991311 74.516801 
C 147.629924 75.195537 149.234225 75.954315 150.798419 76.790394 
L 154.400095 70.052133 
C 152.615347 69.098165 150.784838 68.232399 148.915179 67.45796 
C 147.04552 66.683522 145.138965 66.001346 143.202401 65.413896 
z
" clip-path="url(#p0227716e34)" style="fill: #828282"/>
   </g>
   <g id="patch_102">
    <path d="M 152.880923 72.894303 
C 154.572643 73.798546 156.218946 74.785303 157.813888 75.851009 
C 159.40883 76.916715 160.950488 78.060086 162.433292 79.276992 
L 173.890648 65.316163 
C 171.950885 63.724241 169.934132 62.228515 167.847674 60.834388 
C 165.761215 59.440261 163.607567 58.149413 161.394507 56.966508 
z
" clip-path="url(#p0227716e34)" style="fill: #828282"/>
   </g>
   <g id="patch_103">
    <path d="M 164.252449 77.060343 
C 165.807808 78.336793 167.299559 79.688837 168.722314 81.111592 
C 170.145069 82.534347 171.497114 84.026098 172.773563 85.581457 
L 182.202098 77.843658 
C 180.672379 75.97969 179.052065 74.19195 177.347011 72.486895 
C 175.641957 70.781841 173.854216 69.161527 171.990248 67.631808 
z
" clip-path="url(#p0227716e34)" style="fill: #828282"/>
   </g>
   <g id="patch_104">
    <path d="M 186.262826 74.511105 
C 187.901625 76.507988 189.441395 78.584127 190.876574 80.732024 
C 192.311753 82.879921 193.640611 85.096987 194.858349 87.375214 
L 204.212186 82.375484 
C 202.8308 79.791092 201.32336 77.27608 199.695311 74.839533 
C 198.067262 72.402985 196.320566 70.047839 194.461533 67.7826 
z
" clip-path="url(#p0227716e34)" style="fill: #828282"/>
   </g>
   <g id="patch_105">
    <path d="M 204.858851 82.029834 
C 206.25155 84.635392 207.515485 87.307758 208.646089 90.037278 
C 209.776693 92.766798 210.772604 95.550182 211.630224 98.377377 
L 218.648518 96.248401 
C 217.721213 93.191487 216.644381 90.181943 215.421911 87.23064 
C 214.199442 84.279337 212.832808 81.389833 211.326947 78.572565 
z
" clip-path="url(#p0227716e34)" style="fill: #828282"/>
   </g>
   <g id="patch_106">
    <path d="M 213.18012 97.907222 
C 214.053129 100.785147 214.784314 103.704201 215.371033 106.653838 
C 215.957752 109.603475 216.399299 112.580141 216.694078 115.573084 
L 235.600925 113.710922 
C 235.245195 110.09913 234.712349 106.50698 234.004314 102.947448 
C 233.296279 99.387915 232.413908 95.865291 231.360387 92.392298 
z
" clip-path="url(#p0227716e34)" style="fill: #828282"/>
   </g>
   <g id="patch_107">
    <path d="M 198.345048 117.380306 
C 198.580674 119.772657 198.6987 122.175135 198.6987 124.579063 
C 198.6987 126.98299 198.580674 129.385468 198.345048 131.777819 
L 213.578032 133.278137 
C 213.862766 130.387187 214.00539 127.484 214.00539 124.579063 
C 214.00539 121.674125 213.862766 118.770938 213.578032 115.879988 
z
" clip-path="url(#p0227716e34)" style="fill: #828282"/>
   </g>
   <g id="patch_108">
    <path d="M 196.843073 131.629888 
C 196.612289 133.973077 196.2666 136.303524 195.807254 138.61281 
C 195.347909 140.922095 194.775461 143.207437 194.091978 145.460579 
L 206.990125 149.373189 
C 207.801674 146.697871 208.481383 143.984321 209.026797 141.24234 
C 209.572211 138.500359 209.982672 135.733252 210.256699 132.951014 
z
" clip-path="url(#p0227716e34)" style="fill: #828282"/>
   </g>
   <g id="patch_109">
    <path d="M 190.564655 144.390577 
C 189.916194 146.528265 189.16317 148.632826 188.308302 150.69666 
C 187.453434 152.760494 186.497753 154.781112 185.44471 156.751216 
L 193.353484 160.978544 
C 194.544893 158.749574 195.626148 156.463452 196.593343 154.128437 
C 197.560538 151.793421 198.412508 149.412326 199.146174 146.993752 
z
" clip-path="url(#p0227716e34)" style="fill: #828282"/>
   </g>
   <g id="patch_110">
    <path d="M 169.474239 148.214822 
C 168.700606 149.662189 167.856376 151.0707 166.944601 152.435268 
C 166.032826 153.799836 165.054604 155.118816 164.013468 156.387443 
L 169.264727 160.69704 
C 170.446922 159.256531 171.55768 157.758848 172.592988 156.209399 
C 173.628296 154.659951 174.586907 153.060606 175.465357 151.417141 
z
" clip-path="url(#p0227716e34)" style="fill: #828282"/>
   </g>
   <g id="patch_111">
    <path d="M 165.785122 157.841402 
C 164.696396 159.168018 163.543193 160.440382 162.329678 161.653897 
C 161.116163 162.867411 159.8438 164.020614 158.517183 165.10934 
L 161.321421 168.526314 
C 162.75988 167.345801 164.139512 166.095375 165.455335 164.779553 
C 166.771157 163.463731 168.021582 162.084099 169.202095 160.64564 
z
" clip-path="url(#p0227716e34)" style="fill: #828282"/>
   </g>
   <g id="patch_112">
    <path d="M 160.633337 167.687882 
C 159.222321 168.845873 157.755302 169.933888 156.237577 170.948 
C 154.719852 171.962111 153.153253 172.901095 151.543436 173.761559 
L 154.236213 178.799391 
C 156.010925 177.850787 157.737994 176.815622 159.411181 175.697634 
C 161.084368 174.579646 162.701657 173.380183 164.257205 172.103578 
z
" clip-path="url(#p0227716e34)" style="fill: #828282"/>
   </g>
   <g id="patch_113">
    <path d="M 145.333725 162.144007 
C 144.104168 162.801219 142.843085 163.397667 141.555031 163.931196 
C 140.266977 164.464726 138.953505 164.934694 137.619358 165.339403 
L 138.416694 167.967868 
C 139.836874 167.53706 141.235047 167.036786 142.606163 166.468852 
C 143.977278 165.900917 145.319683 165.266007 146.628529 164.566414 
z
" clip-path="url(#p0227716e34)" style="fill: #828282"/>
   </g>
   <g id="patch_114">
    <path d="M 137.130638 163.728308 
C 135.849224 164.117021 134.549499 164.442585 133.236155 164.703825 
C 131.922812 164.965065 130.597434 165.161667 129.264809 165.292919 
L 129.544406 168.131717 
C 130.969949 167.991313 132.38774 167.781004 133.792657 167.501548 
C 135.197574 167.222093 136.587924 166.873829 137.958684 166.458013 
z
" clip-path="url(#p0227716e34)" style="fill: #828282"/>
   </g>
   <g id="patch_115">
    <path d="M 128.48288 157.353865 
C 127.410112 157.459524 126.332803 157.512448 125.254844 157.512448 
C 124.176885 157.512448 123.099576 157.459524 122.026807 157.353865 
L 121.996766 157.658883 
C 123.079518 157.765524 124.166853 157.818942 125.254844 157.818942 
C 126.342835 157.818942 127.43017 157.765524 128.512922 157.658883 
z
" clip-path="url(#p0227716e34)" style="fill: #828282"/>
   </g>
   <g id="patch_116">
    <path d="M 122.327539 154.300485 
C 121.354713 154.20467 120.387177 154.061149 119.428426 153.870442 
C 118.469676 153.679735 117.520866 153.44207 116.585425 153.158307 
L 116.574231 153.195207 
C 117.51088 153.479337 118.460915 153.717308 119.420903 153.908262 
C 120.380892 154.099215 121.349677 154.242921 122.32376 154.33886 
z
" clip-path="url(#p0227716e34)" style="fill: #828282"/>
   </g>
   <g id="patch_117">
    <path d="M 118.754086 146.009188 
C 118.052646 145.796409 117.362076 145.549319 116.68487 145.268811 
C 116.007663 144.988303 115.344637 144.674715 114.698186 144.329179 
L 114.616032 144.482879 
C 115.267514 144.831103 115.9357 145.147132 116.618176 145.429823 
C 117.300653 145.712514 117.996597 145.961527 118.703496 146.175962 
z
" clip-path="url(#p0227716e34)" style="fill: #828282"/>
   </g>
   <g id="patch_118">
    <path d="M 117.07018 139.891492 
C 116.568981 139.623596 116.081237 139.331253 115.608711 139.015521 
C 115.136184 138.699789 114.679443 138.361047 114.240139 138.000519 
L 114.240139 138.000519 
C 114.679443 138.361047 115.136184 138.699789 115.608711 139.015521 
C 116.081237 139.331253 116.568981 139.623596 117.07018 139.891492 
z
" clip-path="url(#p0227716e34)" style="fill: #828282"/>
   </g>
   <g id="patch_119">
    <path d="M 108.967435 144.425328 
C 108.317837 143.892217 107.694805 143.327533 107.100589 142.733317 
C 106.506373 142.139102 105.94169 141.51607 105.408578 140.866472 
L 105.408578 140.866472 
C 105.94169 141.51607 106.506373 142.139102 107.100589 142.733317 
C 107.694805 143.327533 108.317837 143.892217 108.967435 144.425328 
z
" clip-path="url(#p0227716e34)" style="fill: #828282"/>
   </g>
   <g id="patch_120">
    <path d="M 110.217111 136.920211 
C 109.813167 136.428003 109.433632 135.91626 109.079878 135.386829 
C 108.726124 134.857398 108.398576 134.310918 108.098419 133.749363 
L 108.004639 133.799489 
C 108.306437 134.364114 108.635775 134.913581 108.991463 135.445906 
C 109.347151 135.978231 109.72876 136.492772 110.134912 136.987669 
z
" clip-path="url(#p0227716e34)" style="fill: #828282"/>
   </g>
   <g id="patch_121">
    <path d="M 111.812639 131.764071 
C 111.577463 131.324087 111.364031 130.872822 111.173113 130.411906 
C 110.982195 129.95099 110.814023 129.480978 110.669202 129.003569 
L 110.640291 129.012339 
C 110.785399 129.490695 110.953905 129.961638 111.145201 130.423468 
C 111.336497 130.885298 111.550352 131.337457 111.785995 131.778312 
z
" clip-path="url(#p0227716e34)" style="fill: #828282"/>
   </g>
   <g id="patch_122">
    <path d="M 112.163829 128.550178 
C 112.033849 128.12169 111.924984 127.687078 111.837629 127.247912 
C 111.750273 126.808747 111.684532 126.365557 111.640643 125.919944 
L 111.640643 125.919944 
C 111.684532 126.365557 111.750273 126.808747 111.837629 127.247912 
C 111.924984 127.687078 112.033849 128.12169 112.163829 128.550178 
z
" clip-path="url(#p0227716e34)" style="fill: #828282"/>
   </g>
   <g id="patch_123">
    <path d="M 114.831247 125.605697 
C 114.797644 125.264517 114.780812 124.921893 114.780812 124.579063 
C 114.780812 124.236232 114.797644 123.893608 114.831247 123.552428 
L 114.831247 123.552428 
C 114.797644 123.893608 114.780812 124.236232 114.780812 124.579063 
C 114.780812 124.921893 114.797644 125.264517 114.831247 125.605697 
z
" clip-path="url(#p0227716e34)" style="fill: #828282"/>
   </g>
   <g id="patch_124">
    <path d="M 106.812876 122.762687 
C 106.872329 122.159054 106.961382 121.558704 107.079715 120.963805 
C 107.198048 120.368906 107.345517 119.780175 107.52159 119.199739 
L 107.426633 119.170934 
C 107.249616 119.754478 107.101357 120.346361 106.982391 120.944446 
C 106.863425 121.54253 106.773894 122.146095 106.714123 122.752961 
z
" clip-path="url(#p0227716e34)" style="fill: #828282"/>
   </g>
   <g id="patch_125">
    <path d="M 111.845267 120.511312 
C 111.978411 120.072396 112.133024 119.640283 112.308547 119.216531 
C 112.484071 118.792779 112.680294 118.377901 112.896507 117.973394 
L 112.896507 117.973394 
C 112.680294 118.377901 112.484071 118.792779 112.308547 119.216531 
C 112.133024 119.640283 111.978411 120.072396 111.845267 120.511312 
z
" clip-path="url(#p0227716e34)" style="fill: #828282"/>
   </g>
   <g id="patch_126">
    <path d="M 110.575979 116.733046 
C 110.832791 116.252585 111.113037 115.785022 111.415706 115.332046 
C 111.718375 114.879071 112.043101 114.441228 112.388711 114.0201 
L 112.388711 114.0201 
C 112.043101 114.441228 111.718375 114.879071 111.415706 115.332046 
C 111.113037 115.785022 110.832791 116.252585 110.575979 116.733046 
z
" clip-path="url(#p0227716e34)" style="fill: #828282"/>
   </g>
   <g id="patch_127">
    <path d="M 109.85514 111.940852 
C 110.268808 111.436797 110.706974 110.953356 111.168055 110.492274 
C 111.629137 110.031192 112.112578 109.593026 112.616634 109.179359 
L 112.594635 109.152554 
C 112.089702 109.566941 111.605419 110.00587 111.143535 110.467754 
C 110.681651 110.929638 110.242722 111.413921 109.828335 111.918854 
z
" clip-path="url(#p0227716e34)" style="fill: #828282"/>
   </g>
   <g id="patch_128">
    <path d="M 110.846999 107.023053 
C 111.421633 106.551462 112.019075 106.108369 112.637166 105.695374 
C 113.255258 105.282378 113.893253 104.899978 114.548849 104.549555 
L 114.548849 104.549555 
C 113.893253 104.899978 113.255258 105.282378 112.637166 105.695374 
C 112.019075 106.108369 111.421633 106.551462 110.846999 107.023053 
z
" clip-path="url(#p0227716e34)" style="fill: #828282"/>
   </g>
   <g id="patch_129">
    <path d="M 110.7042 97.356722 
C 111.595228 96.880458 112.509102 96.448228 113.442521 96.061593 
C 114.37594 95.674958 115.32778 95.334384 116.294601 95.041102 
L 115.968901 93.967411 
C 114.966936 94.271354 113.980497 94.624307 113.013149 95.024996 
C 112.0458 95.425685 111.098707 95.873627 110.175291 96.367203 
z
" clip-path="url(#p0227716e34)" style="fill: #828282"/>
   </g>
   <g id="patch_130">
    <path d="M 112.824535 83.601825 
C 114.165781 83.194963 115.526194 82.854197 116.900862 82.580758 
C 118.275529 82.30732 119.662793 82.101539 121.057642 81.964158 
L 120.919073 80.557245 
C 119.478173 80.699161 118.04511 80.911736 116.625058 81.194202 
C 115.205007 81.476667 113.79968 81.828683 112.414153 82.248978 
z
" clip-path="url(#p0227716e34)" style="fill: #828282"/>
   </g>
   <g id="patch_131">
    <path d="M 125.254844 124.579063 
C 125.254844 124.579063 125.254844 124.579063 125.254844 124.579063 
C 125.254844 124.579063 125.254844 124.579063 125.254844 124.579063 
L 131.467625 61.499637 
C 129.402941 61.296284 127.329518 61.194423 125.254844 61.194423 
C 123.18017 61.194423 121.106746 61.296284 119.042063 61.499637 
L 125.254844 124.579063 
z
" clip-path="url(#p0227716e34)" style="fill: none; stroke: #292929; stroke-width: 0.5; stroke-linejoin: miter"/>
   </g>
   <g id="patch_132">
    <path d="M 125.254844 124.579063 
C 125.254844 124.579063 125.254844 124.579063 125.254844 124.579063 
C 125.254844 124.579063 125.254844 124.579063 125.254844 124.579063 
L 147.330798 51.804395 
C 144.948774 51.081816 142.53271 50.476623 140.091331 49.991003 
C 137.649953 49.505382 135.186203 49.139919 132.708981 48.895934 
L 125.254844 124.579063 
z
" clip-path="url(#p0227716e34)" style="fill: none; stroke: #292929; stroke-width: 0.5; stroke-linejoin: miter"/>
   </g>
   <g id="patch_133">
    <path d="M 125.254844 124.579063 
C 125.254844 124.579063 125.254844 124.579063 125.254844 124.579063 
C 125.254844 124.579063 125.254844 124.579063 125.254844 124.579063 
L 154.400095 70.052133 
C 152.615347 69.098165 150.784838 68.232399 148.915179 67.45796 
C 147.04552 66.683522 145.138965 66.001346 143.202401 65.413896 
L 125.254844 124.579063 
z
" clip-path="url(#p0227716e34)" style="fill: none; stroke: #292929; stroke-width: 0.5; stroke-linejoin: miter"/>
   </g>
   <g id="patch_134">
    <path d="M 125.254844 124.579063 
C 125.254844 124.579063 125.254844 124.579063 125.254844 124.579063 
C 125.254844 124.579063 125.254844 124.579063 125.254844 124.579063 
L 173.890648 65.316163 
C 171.950885 63.724241 169.934132 62.228515 167.847674 60.834388 
C 165.761215 59.440261 163.607567 58.149413 161.394507 56.966508 
L 125.254844 124.579063 
z
" clip-path="url(#p0227716e34)" style="fill: none; stroke: #292929; stroke-width: 0.5; stroke-linejoin: miter"/>
   </g>
   <g id="patch_135">
    <path d="M 125.254844 124.579063 
C 125.254844 124.579063 125.254844 124.579063 125.254844 124.579063 
C 125.254844 124.579063 125.254844 124.579063 125.254844 124.579063 
L 182.202098 77.843658 
C 180.672379 75.97969 179.052065 74.19195 177.347011 72.486895 
C 175.641957 70.781841 173.854216 69.161527 171.990248 67.631808 
L 125.254844 124.579063 
z
" clip-path="url(#p0227716e34)" style="fill: none; stroke: #292929; stroke-width: 0.5; stroke-linejoin: miter"/>
   </g>
   <g id="patch_136">
    <path d="M 125.254844 124.579063 
C 125.254844 124.579063 125.254844 124.579063 125.254844 124.579063 
C 125.254844 124.579063 125.254844 124.579063 125.254844 124.579063 
L 204.212186 82.375484 
C 202.8308 79.791092 201.32336 77.27608 199.695311 74.839533 
C 198.067262 72.402985 196.320566 70.047839 194.461533 67.7826 
L 125.254844 124.579063 
z
" clip-path="url(#p0227716e34)" style="fill: none; stroke: #292929; stroke-width: 0.5; stroke-linejoin: miter"/>
   </g>
   <g id="patch_137">
    <path d="M 125.254844 124.579063 
C 125.254844 124.579063 125.254844 124.579063 125.254844 124.579063 
C 125.254844 124.579063 125.254844 124.579063 125.254844 124.579063 
L 218.648518 96.248401 
C 217.721213 93.191487 216.644381 90.181943 215.421911 87.23064 
C 214.199442 84.279337 212.832808 81.389833 211.326947 78.572565 
L 125.254844 124.579063 
z
" clip-path="url(#p0227716e34)" style="fill: none; stroke: #292929; stroke-width: 0.5; stroke-linejoin: miter"/>
   </g>
   <g id="patch_138">
    <path d="M 125.254844 124.579063 
C 125.254844 124.579063 125.254844 124.579063 125.254844 124.579063 
C 125.254844 124.579063 125.254844 124.579063 125.254844 124.579063 
L 235.600925 113.710922 
C 235.245195 110.09913 234.712349 106.50698 234.004314 102.947448 
C 233.296279 99.387915 232.413908 95.865291 231.360387 92.392298 
L 125.254844 124.579063 
z
" clip-path="url(#p0227716e34)" style="fill: none; stroke: #292929; stroke-width: 0.5; stroke-linejoin: miter"/>
   </g>
   <g id="patch_139">
    <path d="M 125.254844 124.579063 
C 125.254844 124.579063 125.254844 124.579063 125.254844 124.579063 
C 125.254844 124.579063 125.254844 124.579063 125.254844 124.579063 
L 213.578032 133.278137 
C 213.862766 130.387187 214.00539 127.484 214.00539 124.579063 
C 214.00539 121.674125 213.862766 118.770938 213.578032 115.879988 
L 125.254844 124.579063 
z
" clip-path="url(#p0227716e34)" style="fill: none; stroke: #292929; stroke-width: 0.5; stroke-linejoin: miter"/>
   </g>
   <g id="patch_140">
    <path d="M 125.254844 124.579063 
C 125.254844 124.579063 125.254844 124.579063 125.254844 124.579063 
C 125.254844 124.579063 125.254844 124.579063 125.254844 124.579063 
L 206.990125 149.373189 
C 207.801674 146.697871 208.481383 143.984321 209.026797 141.24234 
C 209.572211 138.500359 209.982672 135.733252 210.256699 132.951014 
L 125.254844 124.579063 
z
" clip-path="url(#p0227716e34)" style="fill: none; stroke: #292929; stroke-width: 0.5; stroke-linejoin: miter"/>
   </g>
   <g id="patch_141">
    <path d="M 125.254844 124.579063 
C 125.254844 124.579063 125.254844 124.579063 125.254844 124.579063 
C 125.254844 124.579063 125.254844 124.579063 125.254844 124.579063 
L 193.353484 160.978544 
C 194.544893 158.749574 195.626148 156.463452 196.593343 154.128437 
C 197.560538 151.793421 198.412508 149.412326 199.146174 146.993752 
L 125.254844 124.579063 
z
" clip-path="url(#p0227716e34)" style="fill: none; stroke: #292929; stroke-width: 0.5; stroke-linejoin: miter"/>
   </g>
   <g id="patch_142">
    <path d="M 125.254844 124.579063 
C 125.254844 124.579063 125.254844 124.579063 125.254844 124.579063 
C 125.254844 124.579063 125.254844 124.579063 125.254844 124.579063 
L 169.264727 160.69704 
C 170.446922 159.256531 171.55768 157.758848 172.592988 156.209399 
C 173.628296 154.659951 174.586907 153.060606 175.465357 151.417141 
L 125.254844 124.579063 
z
" clip-path="url(#p0227716e34)" style="fill: none; stroke: #292929; stroke-width: 0.5; stroke-linejoin: miter"/>
   </g>
   <g id="patch_143">
    <path d="M 125.254844 124.579063 
C 125.254844 124.579063 125.254844 124.579063 125.254844 124.579063 
C 125.254844 124.579063 125.254844 124.579063 125.254844 124.579063 
L 161.321421 168.526314 
C 162.75988 167.345801 164.139512 166.095375 165.455335 164.779553 
C 166.771157 163.463731 168.021582 162.084099 169.202095 160.64564 
L 125.254844 124.579063 
z
" clip-path="url(#p0227716e34)" style="fill: none; stroke: #292929; stroke-width: 0.5; stroke-linejoin: miter"/>
   </g>
   <g id="patch_144">
    <path d="M 125.254844 124.579063 
C 125.254844 124.579063 125.254844 124.579063 125.254844 124.579063 
C 125.254844 124.579063 125.254844 124.579063 125.254844 124.579063 
L 154.236213 178.799391 
C 156.010925 177.850787 157.737994 176.815622 159.411181 175.697634 
C 161.084368 174.579646 162.701657 173.380183 164.257205 172.103578 
L 125.254844 124.579063 
z
" clip-path="url(#p0227716e34)" style="fill: none; stroke: #292929; stroke-width: 0.5; stroke-linejoin: miter"/>
   </g>
   <g id="patch_145">
    <path d="M 125.254844 124.579063 
C 125.254844 124.579063 125.254844 124.579063 125.254844 124.579063 
C 125.254844 124.579063 125.254844 124.579063 125.254844 124.579063 
L 138.416694 167.967868 
C 139.836874 167.53706 141.235047 167.036786 142.606163 166.468852 
C 143.977278 165.900917 145.319683 165.266007 146.628529 164.566414 
L 125.254844 124.579063 
z
" clip-path="url(#p0227716e34)" style="fill: none; stroke: #292929; stroke-width: 0.5; stroke-linejoin: miter"/>
   </g>
   <g id="patch_146">
    <path d="M 125.254844 124.579063 
C 125.254844 124.579063 125.254844 124.579063 125.254844 124.579063 
C 125.254844 124.579063 125.254844 124.579063 125.254844 124.579063 
L 129.544406 168.131717 
C 130.969949 167.991313 132.38774 167.781004 133.792657 167.501548 
C 135.197574 167.222093 136.587924 166.873829 137.958684 166.458013 
L 125.254844 124.579063 
z
" clip-path="url(#p0227716e34)" style="fill: none; stroke: #292929; stroke-width: 0.5; stroke-linejoin: miter"/>
   </g>
   <g id="patch_147">
    <path d="M 125.254844 124.579063 
C 125.254844 124.579063 125.254844 124.579063 125.254844 124.579063 
C 125.254844 124.579063 125.254844 124.579063 125.254844 124.579063 
L 121.996766 157.658883 
C 123.079518 157.765524 124.166853 157.818942 125.254844 157.818942 
C 126.342835 157.818942 127.43017 157.765524 128.512922 157.658883 
L 125.254844 124.579063 
z
" clip-path="url(#p0227716e34)" style="fill: none; stroke: #292929; stroke-width: 0.5; stroke-linejoin: miter"/>
   </g>
   <g id="patch_148">
    <path d="M 125.254844 124.579063 
C 125.254844 124.579063 125.254844 124.579063 125.254844 124.579063 
C 125.254844 124.579063 125.254844 124.579063 125.254844 124.579063 
L 116.574231 153.195207 
C 117.51088 153.479337 118.460915 153.717308 119.420903 153.908262 
C 120.380892 154.099215 121.349677 154.242921 122.32376 154.33886 
L 125.254844 124.579063 
z
" clip-path="url(#p0227716e34)" style="fill: none; stroke: #292929; stroke-width: 0.5; stroke-linejoin: miter"/>
   </g>
   <g id="patch_149">
    <path d="M 125.254844 124.579063 
C 125.254844 124.579063 125.254844 124.579063 125.254844 124.579063 
C 125.254844 124.579063 125.254844 124.579063 125.254844 124.579063 
L 114.616032 144.482879 
C 115.267514 144.831103 115.9357 145.147132 116.618176 145.429823 
C 117.300653 145.712514 117.996597 145.961527 118.703496 146.175962 
L 125.254844 124.579063 
z
" clip-path="url(#p0227716e34)" style="fill: none; stroke: #292929; stroke-width: 0.5; stroke-linejoin: miter"/>
   </g>
   <g id="patch_150">
    <path d="M 125.254844 124.579063 
C 125.254844 124.579063 125.254844 124.579063 125.254844 124.579063 
C 125.254844 124.579063 125.254844 124.579063 125.254844 124.579063 
L 114.240139 138.000519 
C 114.679443 138.361047 115.136184 138.699789 115.608711 139.015521 
C 116.081237 139.331253 116.568981 139.623596 117.07018 139.891492 
L 125.254844 124.579063 
z
" clip-path="url(#p0227716e34)" style="fill: none; stroke: #292929; stroke-width: 0.5; stroke-linejoin: miter"/>
   </g>
   <g id="patch_151">
    <path d="M 125.254844 124.579063 
C 125.254844 124.579063 125.254844 124.579063 125.254844 124.579063 
C 125.254844 124.579063 125.254844 124.579063 125.254844 124.579063 
L 105.408578 140.866472 
C 105.94169 141.51607 106.506373 142.139102 107.100589 142.733317 
C 107.694805 143.327533 108.317837 143.892217 108.967435 144.425328 
L 125.254844 124.579063 
z
" clip-path="url(#p0227716e34)" style="fill: none; stroke: #292929; stroke-width: 0.5; stroke-linejoin: miter"/>
   </g>
   <g id="patch_152">
    <path d="M 125.254844 124.579063 
C 125.254844 124.579063 125.254844 124.579063 125.254844 124.579063 
C 125.254844 124.579063 125.254844 124.579063 125.254844 124.579063 
L 108.004639 133.799489 
C 108.306437 134.364114 108.635775 134.913581 108.991463 135.445906 
C 109.347151 135.978231 109.72876 136.492772 110.134912 136.987669 
L 125.254844 124.579063 
z
" clip-path="url(#p0227716e34)" style="fill: none; stroke: #292929; stroke-width: 0.5; stroke-linejoin: miter"/>
   </g>
   <g id="patch_153">
    <path d="M 125.254844 124.579063 
C 125.254844 124.579063 125.254844 124.579063 125.254844 124.579063 
C 125.254844 124.579063 125.254844 124.579063 125.254844 124.579063 
L 110.640291 129.012339 
C 110.785399 129.490695 110.953905 129.961638 111.145201 130.423468 
C 111.336497 130.885298 111.550352 131.337457 111.785995 131.778312 
L 125.254844 124.579063 
z
" clip-path="url(#p0227716e34)" style="fill: none; stroke: #292929; stroke-width: 0.5; stroke-linejoin: miter"/>
   </g>
   <g id="patch_154">
    <path d="M 125.254844 124.579063 
C 125.254844 124.579063 125.254844 124.579063 125.254844 124.579063 
C 125.254844 124.579063 125.254844 124.579063 125.254844 124.579063 
L 111.640643 125.919944 
C 111.684532 126.365557 111.750273 126.808747 111.837629 127.247912 
C 111.924984 127.687078 112.033849 128.12169 112.163829 128.550178 
L 125.254844 124.579063 
z
" clip-path="url(#p0227716e34)" style="fill: none; stroke: #292929; stroke-width: 0.5; stroke-linejoin: miter"/>
   </g>
   <g id="patch_155">
    <path d="M 125.254844 124.579063 
C 125.254844 124.579063 125.254844 124.579063 125.254844 124.579063 
C 125.254844 124.579063 125.254844 124.579063 125.254844 124.579063 
L 114.831247 123.552428 
C 114.797644 123.893608 114.780812 124.236232 114.780812 124.579063 
C 114.780812 124.921893 114.797644 125.264517 114.831247 125.605697 
L 125.254844 124.579063 
z
" clip-path="url(#p0227716e34)" style="fill: none; stroke: #292929; stroke-width: 0.5; stroke-linejoin: miter"/>
   </g>
   <g id="patch_156">
    <path d="M 125.254844 124.579063 
C 125.254844 124.579063 125.254844 124.579063 125.254844 124.579063 
C 125.254844 124.579063 125.254844 124.579063 125.254844 124.579063 
L 107.426633 119.170934 
C 107.249616 119.754478 107.101357 120.346361 106.982391 120.944446 
C 106.863425 121.54253 106.773894 122.146095 106.714123 122.752961 
L 125.254844 124.579063 
z
" clip-path="url(#p0227716e34)" style="fill: none; stroke: #292929; stroke-width: 0.5; stroke-linejoin: miter"/>
   </g>
   <g id="patch_157">
    <path d="M 125.254844 124.579063 
C 125.254844 124.579063 125.254844 124.579063 125.254844 124.579063 
C 125.254844 124.579063 125.254844 124.579063 125.254844 124.579063 
L 112.896507 117.973394 
C 112.680294 118.377901 112.484071 118.792779 112.308547 119.216531 
C 112.133024 119.640283 111.978411 120.072396 111.845267 120.511312 
L 125.254844 124.579063 
z
" clip-path="url(#p0227716e34)" style="fill: none; stroke: #292929; stroke-width: 0.5; stroke-linejoin: miter"/>
   </g>
   <g id="patch_158">
    <path d="M 125.254844 124.579063 
C 125.254844 124.579063 125.254844 124.579063 125.254844 124.579063 
C 125.254844 124.579063 125.254844 124.579063 125.254844 124.579063 
L 112.388711 114.0201 
C 112.043101 114.441228 111.718375 114.879071 111.415706 115.332046 
C 111.113037 115.785022 110.832791 116.252585 110.575979 116.733046 
L 125.254844 124.579063 
z
" clip-path="url(#p0227716e34)" style="fill: none; stroke: #292929; stroke-width: 0.5; stroke-linejoin: miter"/>
   </g>
   <g id="patch_159">
    <path d="M 125.254844 124.579063 
C 125.254844 124.579063 125.254844 124.579063 125.254844 124.579063 
C 125.254844 124.579063 125.254844 124.579063 125.254844 124.579063 
L 112.594635 109.152554 
C 112.089702 109.566941 111.605419 110.00587 111.143535 110.467754 
C 110.681651 110.929638 110.242722 111.413921 109.828335 111.918854 
L 125.254844 124.579063 
z
" clip-path="url(#p0227716e34)" style="fill: none; stroke: #292929; stroke-width: 0.5; stroke-linejoin: miter"/>
   </g>
   <g id="patch_160">
    <path d="M 125.254844 124.579063 
C 125.254844 124.579063 125.254844 124.579063 125.254844 124.579063 
C 125.254844 124.579063 125.254844 124.579063 125.254844 124.579063 
L 114.548849 104.549555 
C 113.893253 104.899978 113.255258 105.282378 112.637166 105.695374 
C 112.019075 106.108369 111.421633 106.551462 110.846999 107.023053 
L 125.254844 124.579063 
z
" clip-path="url(#p0227716e34)" style="fill: none; stroke: #292929; stroke-width: 0.5; stroke-linejoin: miter"/>
   </g>
   <g id="patch_161">
    <path d="M 125.254844 124.579063 
C 125.254844 124.579063 125.254844 124.579063 125.254844 124.579063 
C 125.254844 124.579063 125.254844 124.579063 125.254844 124.579063 
L 115.968901 93.967411 
C 114.966936 94.271354 113.980497 94.624307 113.013149 95.024996 
C 112.0458 95.425685 111.098707 95.873627 110.175291 96.367203 
L 125.254844 124.579063 
z
" clip-path="url(#p0227716e34)" style="fill: none; stroke: #292929; stroke-width: 0.5; stroke-linejoin: miter"/>
   </g>
   <g id="patch_162">
    <path d="M 125.254844 124.579063 
C 125.254844 124.579063 125.254844 124.579063 125.254844 124.579063 
C 125.254844 124.579063 125.254844 124.579063 125.254844 124.579063 
L 120.919073 80.557245 
C 119.478173 80.699161 118.04511 80.911736 116.625058 81.194202 
C 115.205007 81.476667 113.79968 81.828683 112.414153 82.248978 
L 125.254844 124.579063 
z
" clip-path="url(#p0227716e34)" style="fill: none; stroke: #292929; stroke-width: 0.5; stroke-linejoin: miter"/>
   </g>
   <g id="PathCollection_1">
    <defs>
     <path id="m1853cd05a5" d="M 0.193618 7.414054 
L 0.193618 7.414054 
C 0.054922 7.414054 -0.078235 7.358899 -0.176308 7.260826 
C -0.274381 7.162753 -0.329536 7.029596 -0.329536 6.890901 
L -0.329536 5.365008 
L -1.528416 6.56393 
L -1.528416 6.56393 
C -1.577018 6.612704 -1.634775 6.651408 -1.698366 6.677814 
C -1.761958 6.704221 -1.830141 6.717815 -1.898997 6.717815 
C -1.967853 6.717815 -2.036037 6.704221 -2.099628 6.677814 
C -2.163219 6.651408 -2.220976 6.612704 -2.269578 6.56393 
L -2.269578 6.56393 
C -2.318353 6.515327 -2.357056 6.457571 -2.383463 6.393979 
C -2.409869 6.330388 -2.423463 6.262205 -2.423463 6.193348 
C -2.423463 6.124492 -2.409869 6.056309 -2.383463 5.992718 
C -2.357056 5.929126 -2.318353 5.87137 -2.269578 5.822767 
L -0.329536 3.884106 
L -0.329536 0.820937 
L -2.98067 2.351538 
L -3.691824 5.001416 
L -3.691824 5.001416 
C -3.727584 5.135411 -3.815199 5.249836 -3.93523 5.319305 
C -4.055261 5.388775 -4.198123 5.407741 -4.332122 5.371997 
L -4.332122 5.371997 
C -4.466126 5.336237 -4.580558 5.248616 -4.650029 5.128576 
C -4.719499 5.008535 -4.73846 4.865662 -4.702703 4.731657 
L -4.262647 3.092721 
L -5.585535 3.855668 
L -5.585535 3.855668 
C -5.645013 3.890144 -5.710708 3.912561 -5.778854 3.921634 
C -5.847001 3.930706 -5.916272 3.926258 -5.982698 3.908543 
C -6.049125 3.890828 -6.111412 3.860192 -6.165991 3.818391 
C -6.220571 3.77659 -6.266379 3.724437 -6.300791 3.664922 
L -6.300791 3.664922 
C -6.335212 3.605364 -6.35755 3.539597 -6.366524 3.471396 
C -6.375498 3.403194 -6.370933 3.333888 -6.35309 3.267452 
C -6.335248 3.201017 -6.304476 3.138749 -6.26254 3.08422 
C -6.220605 3.029692 -6.168323 2.983966 -6.108695 2.949666 
L -4.785807 2.186762 
L -6.424743 1.746706 
L -6.424743 1.746706 
C -6.558747 1.710946 -6.673179 1.623325 -6.74265 1.503284 
C -6.81212 1.383244 -6.831081 1.240371 -6.795324 1.106366 
L -6.795324 1.106366 
C -6.777471 1.039969 -6.746703 0.977739 -6.704784 0.923241 
C -6.662864 0.868744 -6.61061 0.823041 -6.551015 0.788752 
C -6.491421 0.754464 -6.425647 0.732257 -6.357465 0.723406 
C -6.289282 0.714554 -6.220019 0.71923 -6.153645 0.737166 
L -3.505232 1.44698 
L -0.852424 -0.08496 
L -3.503767 -1.615666 
L -6.153645 -0.905851 
L -6.153645 -0.905851 
C -6.22011 -0.887939 -6.289462 -0.883321 -6.357716 -0.892262 
C -6.42597 -0.901202 -6.491793 -0.923527 -6.551403 -0.957953 
C -6.611013 -0.992379 -6.663247 -1.038234 -6.705103 -1.092883 
C -6.746958 -1.147533 -6.777619 -1.209911 -6.795324 -1.276432 
L -6.795324 -1.276432 
C -6.831068 -1.410431 -6.812101 -1.553293 -6.742632 -1.673324 
C -6.673162 -1.793355 -6.558738 -1.88097 -6.424743 -1.91673 
L -4.785807 -2.355447 
L -6.108695 -3.119732 
L -6.108695 -3.119732 
C -6.228699 -3.188976 -6.316415 -3.303132 -6.352417 -3.436921 
C -6.388419 -3.57071 -6.369839 -3.713469 -6.300791 -3.833586 
L -6.300791 -3.833586 
C -6.266491 -3.893214 -6.220765 -3.945496 -6.166237 -3.987431 
C -6.111708 -4.029367 -6.04944 -4.060139 -5.983005 -4.077981 
C -5.91657 -4.095823 -5.847263 -4.100389 -5.779062 -4.091415 
C -5.71086 -4.082441 -5.645094 -4.060102 -5.585535 -4.025682 
L -4.262647 -3.261396 
L -4.702703 -4.900332 
L -4.702703 -4.900332 
C -4.73846 -5.034337 -4.719499 -5.17721 -4.650029 -5.29725 
C -4.580558 -5.417291 -4.466126 -5.504912 -4.332122 -5.540672 
L -4.332122 -5.540672 
C -4.19831 -5.576464 -4.055613 -5.557686 -3.935617 -5.488496 
C -3.81562 -5.419305 -3.727882 -5.305212 -3.691824 -5.171472 
L -2.982009 -2.521594 
L -0.329411 -0.990302 
L -0.329411 -4.051588 
L -2.269453 -5.991589 
L -2.269453 -5.991589 
C -2.318227 -6.040191 -2.356931 -6.097947 -2.383337 -6.161539 
C -2.409744 -6.22513 -2.423338 -6.293314 -2.423338 -6.36217 
C -2.423338 -6.431026 -2.409744 -6.499209 -2.383337 -6.5628 
C -2.356931 -6.626392 -2.318227 -6.684149 -2.269453 -6.732751 
L -2.269453 -6.732751 
C -2.22085 -6.781526 -2.163094 -6.820229 -2.099502 -6.846635 
C -2.035911 -6.873042 -1.967728 -6.886636 -1.898871 -6.886636 
C -1.830015 -6.886636 -1.761832 -6.873042 -1.698241 -6.846635 
C -1.634649 -6.820229 -1.576893 -6.781526 -1.52829 -6.732751 
L -0.329411 -5.533829 
L -0.329411 -7.059722 
L -0.329411 -7.059722 
C -0.329411 -7.198418 -0.274255 -7.331575 -0.176182 -7.429647 
C -0.07811 -7.52772 0.055047 -7.582875 0.193743 -7.582875 
L 0.193743 -7.582875 
C 0.332439 -7.582875 0.465596 -7.52772 0.563669 -7.429647 
C 0.661741 -7.331575 0.716897 -7.198418 0.716897 -7.059722 
L 0.716897 -5.533829 
L 1.915777 -6.732751 
L 1.915777 -6.732751 
C 1.964379 -6.781526 2.022136 -6.820229 2.085727 -6.846635 
C 2.149318 -6.873042 2.217502 -6.886636 2.286358 -6.886636 
C 2.355214 -6.886636 2.423397 -6.873042 2.486989 -6.846635 
C 2.55058 -6.820229 2.608337 -6.781526 2.656939 -6.732751 
L 2.656939 -6.732751 
C 2.705714 -6.684149 2.744417 -6.626392 2.770823 -6.5628 
C 2.79723 -6.499209 2.810824 -6.431026 2.810824 -6.36217 
C 2.810824 -6.293314 2.79723 -6.22513 2.770823 -6.161539 
C 2.744417 -6.097947 2.705714 -6.040191 2.656939 -5.991589 
L 0.716897 -4.051588 
L 0.716897 -0.991139 
L 3.369495 -2.522954 
L 4.07931 -5.171367 
L 4.07931 -5.171367 
C 4.115368 -5.305107 4.203106 -5.4192 4.323103 -5.488391 
C 4.4431 -5.557582 4.585797 -5.576359 4.719608 -5.540567 
L 4.719608 -5.540567 
C 4.853612 -5.504807 4.968045 -5.417186 5.037515 -5.297146 
C 5.106986 -5.177105 5.125946 -5.034232 5.090189 -4.900227 
L 4.650133 -3.262673 
L 5.973022 -4.025577 
L 5.973022 -4.025577 
C 6.03258 -4.059998 6.098346 -4.082336 6.166548 -4.09131 
C 6.234749 -4.100284 6.304056 -4.095719 6.370491 -4.077876 
C 6.436926 -4.060034 6.499194 -4.029262 6.553723 -3.987327 
C 6.608252 -3.945391 6.653978 -3.893109 6.688277 -3.833481 
L 6.688277 -3.833481 
C 6.757325 -3.713365 6.775905 -3.570605 6.739903 -3.436816 
C 6.703901 -3.303027 6.616186 -3.188871 6.496181 -3.119628 
L 5.173293 -2.355342 
L 6.812229 -1.916625 
L 6.812229 -1.916625 
C 6.946224 -1.880865 7.060649 -1.79325 7.130118 -1.67322 
C 7.199588 -1.553189 7.218554 -1.410326 7.18281 -1.276327 
L 7.18281 -1.276327 
C 7.165106 -1.209806 7.134445 -1.147429 7.092589 -1.092779 
C 7.050733 -1.038129 6.998499 -0.992274 6.938889 -0.957848 
C 6.879279 -0.923422 6.813456 -0.901098 6.745202 -0.892157 
C 6.676949 -0.883217 6.607597 -0.887835 6.541131 -0.905746 
L 3.891253 -1.615561 
L 1.239492 -0.084604 
L 3.892718 1.447085 
L 6.541131 0.73727 
L 6.541131 0.73727 
C 6.674948 0.701466 6.817656 0.720237 6.937662 0.789429 
C 7.057669 0.858621 7.145413 0.972721 7.181471 1.10647 
L 7.181471 1.10647 
C 7.217274 1.240293 7.198497 1.383006 7.129297 1.503014 
C 7.060096 1.623021 6.945986 1.710762 6.812229 1.74681 
L 5.173293 2.186866 
L 6.496181 2.949771 
L 6.496181 2.949771 
C 6.555697 2.984183 6.607849 3.029991 6.649651 3.08457 
C 6.691452 3.13915 6.722088 3.201437 6.739803 3.267863 
C 6.757517 3.33429 6.761966 3.403561 6.752893 3.471707 
C 6.743821 3.539854 6.721404 3.605549 6.686927 3.665026 
L 6.686927 3.665026 
C 6.617458 3.784813 6.503196 3.87225 6.369416 3.907994 
C 6.235636 3.943739 6.092989 3.924946 5.973032 3.855772 
L 4.650144 3.091487 
L 5.08886 4.731783 
L 5.08886 4.731783 
C 5.124664 4.865606 5.105887 5.008319 5.036686 5.128326 
C 4.967486 5.248334 4.853376 5.336074 4.719619 5.372123 
L 4.719619 5.372123 
C 4.585619 5.407867 4.442757 5.3889 4.322726 5.319431 
C 4.202695 5.249961 4.115081 5.135537 4.07932 5.001542 
L 3.368166 2.351664 
L 0.717033 0.821063 
L 0.717033 3.884232 
L 2.657075 5.822893 
L 2.657075 5.822893 
C 2.70585 5.871495 2.744553 5.929252 2.770959 5.992843 
C 2.797366 6.056435 2.81096 6.124618 2.81096 6.193474 
C 2.81096 6.26233 2.797366 6.330514 2.770959 6.394105 
C 2.744553 6.457696 2.70585 6.515453 2.657075 6.564055 
L 2.657075 6.564055 
C 2.608473 6.61283 2.550716 6.651533 2.487125 6.67794 
C 2.423533 6.704346 2.35535 6.71794 2.286494 6.71794 
C 2.217638 6.71794 2.149454 6.704346 2.085863 6.67794 
C 2.022272 6.651533 1.964515 6.61283 1.915913 6.564055 
L 0.717033 5.365133 
L 0.717033 6.891026 
L 0.717033 6.891026 
C 0.717033 7.029722 0.661877 7.162879 0.563805 7.260952 
C 0.465732 7.359024 0.332575 7.41418 0.193879 7.41418 
L 0.193618 7.414054 
z
"/>
    </defs>
    <g clip-path="url(#p0227716e34)">
     <use xlink:href="#m1853cd05a5" x="194.939774" y="104.621839" style="fill: #9e2096; fill-opacity: 0.7"/>
    </g>
   </g>
   <g id="patch_163">
    <path d="M 125.254844 13.699063 
C 110.694216 13.699063 96.275171 16.567189 82.822905 22.1393 
C 69.370638 27.711411 57.146763 35.879144 46.850844 46.175063 
C 36.554925 56.470982 28.387192 68.694857 22.815081 82.147124 
C 17.24297 95.59939 14.374844 110.018434 14.374844 124.579063 
C 14.374844 139.139691 17.24297 153.558735 22.815081 167.011001 
C 28.387192 180.463268 36.554925 192.687143 46.850844 202.983062 
C 57.146763 213.278981 69.370638 221.446714 82.822905 227.018825 
C 96.275171 232.590936 110.694216 235.459063 125.254844 235.459063 
C 139.815472 235.459063 154.234516 232.590936 167.686783 227.018825 
C 181.139049 221.446714 193.362925 213.278981 203.658844 202.983062 
C 213.954763 192.687143 222.122495 180.463268 227.694606 167.011001 
C 233.266717 153.558735 236.134844 139.139691 236.134844 124.579063 
C 236.134844 110.018434 233.266717 95.59939 227.694606 82.147124 
C 222.122495 68.694857 213.954763 56.470982 203.658844 46.175063 
C 193.362925 35.879144 181.139049 27.711411 167.686783 22.1393 
C 154.234516 16.567189 139.815472 13.699063 125.254844 13.699063 
" style="fill: none; stroke: #000000; stroke-width: 0.8; stroke-linejoin: miter; stroke-linecap: square"/>
   </g>
  </g>
 </g>
 <defs>
  <clipPath id="p0227716e34">
   <path d="M 236.134844 124.579063 
C 236.134844 110.018434 233.266717 95.59939 227.694606 82.147124 
C 222.122495 68.694857 213.954763 56.470982 203.658844 46.175063 
C 193.362925 35.879144 181.139049 27.711411 167.686783 22.1393 
C 154.234516 16.567189 139.815472 13.699063 125.254844 13.699063 
C 110.694216 13.699063 96.275171 16.567189 82.822905 22.1393 
C 69.370638 27.711411 57.146763 35.879144 46.850844 46.175063 
C 36.554925 56.470982 28.387192 68.694857 22.815081 82.147124 
C 17.24297 95.59939 14.374844 110.018434 14.374844 124.579062 
C 14.374844 139.139691 17.24297 153.558735 22.815081 167.011001 
C 28.387192 180.463268 36.554925 192.687143 46.850844 202.983062 
C 57.146763 213.278981 69.370638 221.446714 82.822905 227.018825 
C 96.275171 232.590936 110.694216 235.459063 125.254844 235.459063 
C 139.815472 235.459063 154.234516 232.590936 167.686783 227.018825 
C 181.139049 221.446714 193.362925 213.278981 203.658844 202.983062 
C 213.954763 192.687143 222.122495 180.463268 227.694606 167.011001 
C 233.266717 153.558735 236.134844 139.139691 236.134844 124.579063 
M 125.254844 124.579063 
C 125.254844 124.579063 125.254844 124.579063 125.254844 124.579063 
C 125.254844 124.579063 125.254844 124.579063 125.254844 124.579063 
C 125.254844 124.579063 125.254844 124.579063 125.254844 124.579063 
C 125.254844 124.579063 125.254844 124.579063 125.254844 124.579063 
C 125.254844 124.579063 125.254844 124.579063 125.254844 124.579063 
C 125.254844 124.579063 125.254844 124.579063 125.254844 124.579063 
C 125.254844 124.579063 125.254844 124.579063 125.254844 124.579063 
C 125.254844 124.579063 125.254844 124.579063 125.254844 124.579063 
C 125.254844 124.579063 125.254844 124.579063 125.254844 124.579063 
C 125.254844 124.579063 125.254844 124.579063 125.254844 124.579063 
C 125.254844 124.579063 125.254844 124.579063 125.254844 124.579063 
C 125.254844 124.579063 125.254844 124.579063 125.254844 124.579063 
C 125.254844 124.579063 125.254844 124.579063 125.254844 124.579063 
C 125.254844 124.579063 125.254844 124.579063 125.254844 124.579063 
C 125.254844 124.579063 125.254844 124.579063 125.254844 124.579063 
C 125.254844 124.579063 125.254844 124.579063 125.254844 124.579063 
z
"/>
  </clipPath>
 </defs>
</svg>
