<?xml version="1.0" encoding="utf-8" standalone="no"?>
<!DOCTYPE svg PUBLIC "-//W3C//DTD SVG 1.1//EN"
  "http://www.w3.org/Graphics/SVG/1.1/DTD/svg11.dtd">
<svg xmlns:xlink="http://www.w3.org/1999/xlink" width="248.410469pt" height="249.158125pt" viewBox="0 0 248.410469 249.158125" xmlns="http://www.w3.org/2000/svg" version="1.1">
 <title>Ski Rose for Домбай, Dombay</title>
 <metadata>
  <rdf:RDF xmlns:dc="http://purl.org/dc/elements/1.1/" xmlns:cc="http://creativecommons.org/ns#" xmlns:rdf="http://www.w3.org/1999/02/22-rdf-syntax-ns#">
   <cc:Work>
    <dc:type rdf:resource="http://purl.org/dc/dcmitype/StillImage"/>
    <dc:title>Ski Rose for Домбай, Dombay</dc:title>
    <dc:date>2025-03-22T10:28:20.298741</dc:date>
    <dc:description>A 32-bin stacked histogram of downhill ski run orientations colored by difficulty.</dc:description>
    <dc:format>image/svg+xml</dc:format>
    <dc:source>https://openskimap.org/?obj=7e1c3bbe5dc96f84472363c502e595691f2862c0</dc:source>
    <dc:creator>
     <cc:Agent>
      <dc:title>https://github.com/dhimmel/openskistats</dc:title>
     </cc:Agent>
    </dc:creator>
    <dc:rights>
     <cc:Agent>
      <dc:title>https://creativecommons.org/licenses/by/4.0/</dc:title>
     </cc:Agent>
    </dc:rights>
   </cc:Work>
  </rdf:RDF>
 </metadata>
 <defs>
  <style type="text/css">*{stroke-linejoin: round; stroke-linecap: butt}</style>
 </defs>
 <g id="figure_1">
  <g id="patch_1">
   <path d="M 0 249.158125 
L 248.410469 249.158125 
L 248.410469 0 
L 0 0 
z
" style="fill: #ffffff"/>
  </g>
  <g id="axes_1">
   <g id="patch_2">
    <path d="M 236.134844 124.579063 
C 236.134844 110.018434 233.266717 95.59939 227.694606 82.147124 
C 222.122495 68.694857 213.954763 56.470982 203.658844 46.175063 
C 193.362925 35.879144 181.139049 27.711411 167.686783 22.1393 
C 154.234516 16.567189 139.815472 13.699063 125.254844 13.699063 
C 110.694216 13.699063 96.275171 16.567189 82.822905 22.1393 
C 69.370638 27.711411 57.146763 35.879144 46.850844 46.175063 
C 36.554925 56.470982 28.387192 68.694857 22.815081 82.147124 
C 17.24297 95.59939 14.374844 110.018434 14.374844 124.579062 
C 14.374844 139.139691 17.24297 153.558735 22.815081 167.011001 
C 28.387192 180.463268 36.554925 192.687143 46.850844 202.983062 
C 57.146763 213.278981 69.370638 221.446714 82.822905 227.018825 
C 96.275171 232.590936 110.694216 235.459063 125.254844 235.459063 
C 139.815472 235.459063 154.234516 232.590936 167.686783 227.018825 
C 181.139049 221.446714 193.362925 213.278981 203.658844 202.983062 
C 213.954763 192.687143 222.122495 180.463268 227.694606 167.011001 
C 233.266717 153.558735 236.134844 139.139691 236.134844 124.579063 
M 125.254844 124.579063 
C 125.254844 124.579063 125.254844 124.579063 125.254844 124.579063 
C 125.254844 124.579063 125.254844 124.579063 125.254844 124.579063 
C 125.254844 124.579063 125.254844 124.579063 125.254844 124.579063 
C 125.254844 124.579063 125.254844 124.579063 125.254844 124.579063 
C 125.254844 124.579063 125.254844 124.579063 125.254844 124.579063 
C 125.254844 124.579063 125.254844 124.579063 125.254844 124.579063 
C 125.254844 124.579063 125.254844 124.579063 125.254844 124.579063 
C 125.254844 124.579063 125.254844 124.579063 125.254844 124.579063 
C 125.254844 124.579063 125.254844 124.579063 125.254844 124.579063 
C 125.254844 124.579063 125.254844 124.579063 125.254844 124.579063 
C 125.254844 124.579063 125.254844 124.579063 125.254844 124.579063 
C 125.254844 124.579063 125.254844 124.579063 125.254844 124.579063 
C 125.254844 124.579063 125.254844 124.579063 125.254844 124.579063 
C 125.254844 124.579063 125.254844 124.579063 125.254844 124.579063 
C 125.254844 124.579063 125.254844 124.579063 125.254844 124.579063 
C 125.254844 124.579063 125.254844 124.579063 125.254844 124.579063 
z
" style="fill: #ffffff"/>
   </g>
   <g id="PolyCollection_1">
    <defs>
     <path id="mc1559548ef" d="M 235.253768 -137.111857 
L 235.253768 -137.111857 
L 234.267116 -135.07575 
L 233.189839 -133.073731 
L 232.256734 -131.123578 
L 231.055414 -129.198415 
L 229.805951 -127.31683 
L 228.514662 -125.480197 
L 227.185939 -123.689523 
L 225.823129 -121.945589 
L 224.651206 -120.239324 
L 223.227974 -118.586769 
L 221.777777 -116.982543 
L 220.302688 -115.426996 
L 219.025181 -113.895282 
L 217.505294 -112.43406 
L 215.966122 -111.022171 
L 214.626957 -109.6233 
L 213.053388 -108.306564 
L 211.680572 -106.995549 
L 210.079265 -105.773941 
L 208.678846 -104.550732 
L 207.26599 -103.369538 
L 205.842062 -102.230249 
L 204.202759 -101.193625 
L 202.762916 -100.140861 
L 201.316187 -99.129293 
L 199.863912 -98.158606 
L 198.407424 -97.228433 
L 196.948045 -96.338359 
L 195.677951 -95.408856 
L 194.213823 -94.594845 
L 192.750588 -93.81948 
L 191.471658 -92.995262 
L 190.010779 -92.292944 
L 188.554459 -91.627369 
L 187.276341 -90.904137 
L 185.998442 -90.211988 
L 184.555701 -89.648188 
L 183.284242 -89.018602 
L 182.015693 -88.418414 
L 180.750885 -87.847034 
L 179.49063 -87.303839 
L 178.235719 -86.788171 
L 176.98692 -86.299339 
L 175.744978 -85.83662 
L 174.510609 -85.399257 
L 173.284508 -84.986463 
L 172.196271 -84.487296 
L 170.984604 -84.120789 
L 169.904365 -83.665314 
L 168.709359 -83.342268 
L 167.525539 -83.039766 
L 166.462747 -82.645595 
L 165.40421 -82.270458 
L 164.248318 -82.025153 
L 163.203084 -81.68638 
L 162.163171 -81.364964 
L 161.038573 -81.169928 
L 160.013893 -80.880949 
L 158.995376 -80.607545 
L 157.983253 -80.349156 
L 156.977732 -80.105213 
L 155.978996 -79.875143 
L 154.987203 -79.658368 
L 154.002483 -79.454308 
L 153.024944 -79.262378 
L 152.054664 -79.081996 
L 151.091697 -78.912579 
L 150.13607 -78.753545 
L 149.187782 -78.604316 
L 148.246807 -78.464318 
L 147.313091 -78.332986 
L 146.424714 -78.126021 
L 145.502233 -78.013255 
L 144.586779 -77.907642 
L 143.678199 -77.808651 
L 142.803447 -77.643192 
L 141.905409 -77.559317 
L 141.013742 -77.480681 
L 140.148163 -77.343487 
L 139.266155 -77.27767 
L 138.389828 -77.21584 
L 137.532627 -77.104395 
L 136.664759 -77.053343 
L 135.81202 -76.958717 
L 134.951738 -76.917305 
L 134.095676 -76.878198 
L 133.249323 -76.805939 
L 132.399215 -76.774961 
L 131.55591 -76.717714 
L 130.710646 -76.694101 
L 129.869756 -76.651364 
L 129.028162 -76.634514 
L 128.189007 -76.60591 
L 127.349856 -76.595391 
L 126.511726 -76.580667 
L 125.673758 -76.576221 
L 124.835932 -76.576513 
L 123.998129 -76.587067 
L 123.159971 -76.598596 
L 122.320983 -76.610857 
L 121.482006 -76.640614 
L 120.640685 -76.659188 
L 119.800062 -76.703061 
L 118.955181 -76.728372 
L 118.112232 -76.786732 
L 117.262613 -76.819374 
L 116.416702 -76.892715 
L 115.561233 -76.933443 
L 114.71178 -77.022374 
L 113.849431 -77.072099 
L 112.982309 -77.124692 
L 112.125759 -77.237112 
L 111.250273 -77.300423 
L 110.369153 -77.367684 
L 109.504341 -77.505771 
L 108.61365 -77.585781 
L 107.716634 -77.670989 
L 106.842753 -77.837248 
L 105.935273 -77.937493 
L 105.02096 -78.044316 
L 104.137607 -78.241515 
L 103.21228 -78.365867 
L 102.279811 -78.498275 
L 101.340116 -78.639298 
L 100.393142 -78.789503 
L 99.438858 -78.949462 
L 98.477264 -79.119753 
L 97.568841 -79.399612 
L 96.596246 -79.594075 
L 95.616536 -79.800464 
L 94.629809 -80.01936 
L 93.561438 -80.146547 
L 92.557431 -80.391045 
L 91.546839 -80.649935 
L 90.529869 -80.923786 
L 89.506751 -81.213159 
L 88.47774 -81.518607 
L 87.345681 -81.730548 
L 86.302048 -82.069545 
L 85.253432 -82.426369 
L 84.091129 -82.690562 
L 83.029965 -83.08479 
L 81.848062 -83.387565 
L 80.776009 -83.821719 
L 79.576386 -84.166177 
L 78.366652 -84.532764 
L 77.280065 -85.031707 
L 76.055902 -85.444457 
L 74.823474 -85.881711 
L 73.583472 -86.344258 
L 72.336613 -86.832855 
L 71.083642 -87.348227 
L 69.825325 -87.891064 
L 68.562452 -88.462026 
L 67.295835 -89.061736 
L 66.026305 -89.690787 
L 64.754712 -90.349735 
L 63.309806 -90.945651 
L 62.033604 -91.668168 
L 60.579496 -92.333124 
L 59.302656 -93.121483 
L 57.843798 -93.858079 
L 56.570418 -94.714224 
L 55.111387 -95.524691 
L 53.652627 -96.374199 
L 52.195441 -97.263271 
L 50.741143 -98.192377 
L 49.291055 -99.161934 
L 47.846511 -100.172309 
L 46.408851 -101.223815 
L 44.979421 -102.316718 
L 43.559576 -103.45123 
L 42.150672 -104.627516 
L 40.541394 -105.798543 
L 39.156951 -107.062248 
L 37.571966 -108.328002 
L 36.218003 -109.679405 
L 34.663926 -111.040159 
L 33.346516 -112.479102 
L 31.830042 -113.934651 
L 30.33456 -115.439279 
L 29.083313 -117.010199 
L 27.635964 -118.608436 
L 26.215335 -120.254904 
L 24.823593 -121.949178 
L 23.684566 -123.692672 
L 22.357351 -125.477035 
L 21.066879 -127.30732 
L 19.817171 -129.182571 
L 18.613854 -131.101505 
L 17.676767 -133.045641 
L 16.59038 -135.04226 
L 15.589285 -137.073875 
L 15.202494 -137.117944 
L 15.202494 -137.117944 
L 14.932316 -135.201914 
L 14.729233 -133.277617 
L 14.681982 -131.341988 
L 14.508976 -129.414332 
L 14.599049 -127.476686 
L 14.491065 -125.545683 
L 14.415207 -123.61178 
L 14.56505 -121.680548 
L 14.552135 -119.745678 
L 14.612324 -117.811876 
L 14.812673 -115.887075 
L 14.892332 -113.952361 
L 15.240517 -112.044513 
L 15.381866 -110.114011 
L 15.60289 -108.191468 
L 15.944799 -106.286834 
L 16.36425 -104.397384 
L 16.625851 -102.478244 
L 17.103209 -100.602422 
L 17.482272 -98.705157 
L 17.96154 -96.831127 
L 18.525743 -94.980463 
L 18.999627 -93.104833 
L 19.563381 -91.254672 
L 20.215119 -89.433262 
L 20.784013 -87.584001 
L 21.435014 -85.762419 
L 22.115542 -83.951411 
L 22.886742 -82.176807 
L 23.583665 -80.371176 
L 24.360858 -78.599024 
L 25.227955 -76.868684 
L 26.028096 -75.106431 
L 26.923886 -73.391206 
L 27.829822 -71.681592 
L 28.801311 -70.008279 
L 29.723123 -68.306578 
L 30.7293 -66.653735 
L 31.75554 -65.013437 
L 33.09986 -63.583009 
L 35.005036 -62.552088 
L 36.937022 -61.582572 
L 38.816653 -60.618166 
L 40.699323 -59.697329 
L 42.65465 -58.875902 
L 44.543122 -58.045453 
L 46.4234 -57.250649 
L 48.303539 -56.498299 
L 50.113876 -55.725051 
L 51.97622 -55.040245 
L 53.834489 -54.394476 
L 55.625198 -53.72342 
L 57.408798 -53.084248 
L 59.233379 -52.529277 
L 60.99875 -51.95076 
L 62.754992 -51.401138 
L 64.501551 -50.879425 
L 66.237925 -50.384626 
L 67.924236 -49.864359 
L 69.640803 -49.421 
L 71.345968 -49.001606 
L 73.000977 -48.549215 
L 74.684358 -48.175394 
L 76.325135 -47.774804 
L 77.952755 -47.38907 
L 79.575653 -47.031185 
L 81.185226 -46.686277 
L 82.789646 -46.367898 
L 84.380737 -46.060634 
L 85.966378 -45.778592 
L 87.538849 -45.505835 
L 89.105705 -45.257018 
L 90.659711 -45.015704 
L 92.189715 -44.752781 
L 93.730413 -44.549633 
L 95.246563 -44.31827 
L 96.767851 -44.134277 
L 98.270733 -43.932056 
L 99.77951 -43.781627 
L 101.269672 -43.60648 
L 102.75434 -43.444867 
L 104.239779 -43.319835 
L 105.713208 -43.182292 
L 107.181836 -43.056993 
L 108.645914 -42.943566 
L 110.110451 -42.867232 
L 111.565499 -42.774766 
L 113.016915 -42.693168 
L 114.465014 -42.622169 
L 115.910123 -42.561503 
L 117.352585 -42.510966 
L 118.79275 -42.47038 
L 120.230978 -42.439582 
L 121.667634 -42.418444 
L 123.103062 -42.405837 
L 124.537694 -42.40181 
L 125.972 -42.401057 
L 127.406668 -42.404225 
L 128.842122 -42.416879 
L 130.27874 -42.43909 
L 131.716892 -42.470955 
L 133.156945 -42.512605 
L 134.600268 -42.555326 
L 136.045598 -42.615143 
L 137.493945 -42.685324 
L 138.945636 -42.766114 
L 140.400987 -42.857786 
L 141.8603 -42.960637 
L 143.323862 -43.07499 
L 144.799262 -43.170702 
L 146.273096 -43.307513 
L 147.751988 -43.456981 
L 149.236152 -43.619522 
L 150.734832 -43.766866 
L 152.231161 -43.955348 
L 153.74746 -44.118395 
L 155.256864 -44.335015 
L 156.786139 -44.532206 
L 158.309071 -44.779099 
L 159.857956 -44.997352 
L 161.412734 -45.237814 
L 162.957347 -45.53412 
L 164.532587 -45.800098 
L 166.113606 -46.090111 
L 167.707616 -46.390782 
L 169.307198 -46.71679 
L 170.919833 -47.055295 
L 172.537697 -47.420458 
L 174.199119 -47.75194 
L 175.840512 -48.152455 
L 177.486392 -48.581688 
L 179.180679 -48.97783 
L 180.886681 -49.396949 
L 182.564446 -49.891735 
L 184.291022 -50.360414 
L 186.028237 -50.855041 
L 187.775637 -51.376619 
L 189.532717 -51.926143 
L 191.298924 -52.504596 
L 193.073647 -53.112956 
L 194.908999 -53.69848 
L 196.700524 -54.369588 
L 198.559426 -55.015611 
L 200.364432 -55.753805 
L 202.233902 -56.473745 
L 204.114596 -57.226471 
L 205.995813 -58.021343 
L 207.884736 -58.852278 
L 209.769789 -59.728464 
L 211.656569 -60.645149 
L 213.603618 -61.560494 
L 215.463508 -62.580365 
L 217.369431 -63.609747 
L 218.767156 -65.005149 
L 219.79411 -66.645326 
L 220.759361 -68.322602 
L 221.694474 -70.016145 
L 222.696024 -71.672818 
L 223.54863 -73.410556 
L 224.460512 -75.116941 
L 225.234658 -76.891137 
L 226.062466 -78.638382 
L 226.839452 -80.408818 
L 227.682527 -82.152127 
L 228.375944 -83.958581 
L 228.991545 -85.793499 
L 229.728352 -87.583053 
L 230.355179 -89.412982 
L 230.99005 -91.24088 
L 231.495487 -93.10915 
L 232.030646 -94.967512 
L 232.520487 -96.838281 
L 233.070116 -98.694906 
L 233.477114 -100.586763 
L 233.839806 -102.487202 
L 234.158699 -104.394926 
L 234.560029 -106.287648 
L 234.857962 -108.198767 
L 235.185108 -110.106469 
L 235.393611 -112.030335 
L 235.505344 -113.963147 
L 235.770927 -115.881258 
L 235.805165 -117.817515 
L 235.951514 -119.745942 
L 236.063389 -121.677439 
L 236.032419 -123.612321 
L 236.116713 -125.546539 
L 235.97227 -127.4783 
L 235.98846 -129.413797 
L 235.777842 -131.338939 
L 235.685836 -133.27017 
L 235.604035 -135.204481 
L 235.253768 -137.111857 
z
" style="stroke: #ffee9c"/>
    </defs>
    <g clip-path="url(#pe9dcd5277a)">
     <use xlink:href="#mc1559548ef" x="0" y="249.158125" style="fill: #ffee9c; stroke: #ffee9c"/>
    </g>
   </g>
   <g id="matplotlib.axis_1">
    <g id="xtick_1">
     <g id="line2d_1">
      <path d="M 125.254844 124.579063 
L 125.254844 13.699063 
" clip-path="url(#pe9dcd5277a)" style="fill: none; stroke: #b0b0b0; stroke-width: 0.8; stroke-linecap: square"/>
     </g>
     <g id="text_1">
      <!-- N -->
      <g transform="translate(121.070469 7.958438) scale(0.1 -0.1)">
       <defs>
        <path id="DejaVuSans-Bold-4e" d="M 588 4666 
L 1931 4666 
L 3628 1466 
L 3628 4666 
L 4769 4666 
L 4769 0 
L 3425 0 
L 1728 3200 
L 1728 0 
L 588 0 
L 588 4666 
z
" transform="scale(0.015625)"/>
       </defs>
       <use xlink:href="#DejaVuSans-Bold-4e"/>
      </g>
     </g>
    </g>
    <g id="xtick_2">
     <g id="line2d_2">
      <path d="M 125.254844 124.579063 
L 203.658844 46.175063 
" clip-path="url(#pe9dcd5277a)" style="fill: none; stroke: #b0b0b0; stroke-width: 0.8; stroke-linecap: square"/>
     </g>
    </g>
    <g id="xtick_3">
     <g id="line2d_3">
      <path d="M 125.254844 124.579063 
L 236.134844 124.579063 
" clip-path="url(#pe9dcd5277a)" style="fill: none; stroke: #b0b0b0; stroke-width: 0.8; stroke-linecap: square"/>
     </g>
     <g id="text_2">
      <!-- E -->
      <g transform="translate(241.219219 127.338438) scale(0.1 -0.1)">
       <defs>
        <path id="DejaVuSans-Bold-45" d="M 588 4666 
L 3834 4666 
L 3834 3756 
L 1791 3756 
L 1791 2888 
L 3713 2888 
L 3713 1978 
L 1791 1978 
L 1791 909 
L 3903 909 
L 3903 0 
L 588 0 
L 588 4666 
z
" transform="scale(0.015625)"/>
       </defs>
       <use xlink:href="#DejaVuSans-Bold-45"/>
      </g>
     </g>
    </g>
    <g id="xtick_4">
     <g id="line2d_4">
      <path d="M 125.254844 124.579063 
L 203.658844 202.983062 
" clip-path="url(#pe9dcd5277a)" style="fill: none; stroke: #b0b0b0; stroke-width: 0.8; stroke-linecap: square"/>
     </g>
    </g>
    <g id="xtick_5">
     <g id="line2d_5">
      <path d="M 125.254844 124.579063 
L 125.254844 235.459063 
" clip-path="url(#pe9dcd5277a)" style="fill: none; stroke: #b0b0b0; stroke-width: 0.8; stroke-linecap: square"/>
     </g>
     <g id="text_3">
      <!-- S -->
      <g transform="translate(121.654062 246.718438) scale(0.1 -0.1)">
       <defs>
        <path id="DejaVuSans-Bold-53" d="M 3834 4519 
L 3834 3531 
Q 3450 3703 3084 3790 
Q 2719 3878 2394 3878 
Q 1963 3878 1756 3759 
Q 1550 3641 1550 3391 
Q 1550 3203 1689 3098 
Q 1828 2994 2194 2919 
L 2706 2816 
Q 3484 2659 3812 2340 
Q 4141 2022 4141 1434 
Q 4141 663 3683 286 
Q 3225 -91 2284 -91 
Q 1841 -91 1394 -6 
Q 947 78 500 244 
L 500 1259 
Q 947 1022 1364 901 
Q 1781 781 2169 781 
Q 2563 781 2772 912 
Q 2981 1044 2981 1288 
Q 2981 1506 2839 1625 
Q 2697 1744 2272 1838 
L 1806 1941 
Q 1106 2091 782 2419 
Q 459 2747 459 3303 
Q 459 4000 909 4375 
Q 1359 4750 2203 4750 
Q 2588 4750 2994 4692 
Q 3400 4634 3834 4519 
z
" transform="scale(0.015625)"/>
       </defs>
       <use xlink:href="#DejaVuSans-Bold-53"/>
      </g>
     </g>
    </g>
    <g id="xtick_6">
     <g id="line2d_6">
      <path d="M 125.254844 124.579063 
L 46.850844 202.983062 
" clip-path="url(#pe9dcd5277a)" style="fill: none; stroke: #b0b0b0; stroke-width: 0.8; stroke-linecap: square"/>
     </g>
    </g>
    <g id="xtick_7">
     <g id="line2d_7">
      <path d="M 125.254844 124.579063 
L 14.374844 124.579063 
" clip-path="url(#pe9dcd5277a)" style="fill: none; stroke: #b0b0b0; stroke-width: 0.8; stroke-linecap: square"/>
     </g>
     <g id="text_4">
      <!-- W -->
      <g transform="translate(0.36 127.338438) scale(0.1 -0.1)">
       <defs>
        <path id="DejaVuSans-Bold-57" d="M 191 4666 
L 1344 4666 
L 2150 1275 
L 2950 4666 
L 4109 4666 
L 4909 1275 
L 5716 4666 
L 6859 4666 
L 5759 0 
L 4372 0 
L 3525 3547 
L 2688 0 
L 1300 0 
L 191 4666 
z
" transform="scale(0.015625)"/>
       </defs>
       <use xlink:href="#DejaVuSans-Bold-57"/>
      </g>
     </g>
    </g>
    <g id="xtick_8">
     <g id="line2d_8">
      <path d="M 125.254844 124.579063 
L 46.850844 46.175063 
" clip-path="url(#pe9dcd5277a)" style="fill: none; stroke: #b0b0b0; stroke-width: 0.8; stroke-linecap: square"/>
     </g>
    </g>
   </g>
   <g id="matplotlib.axis_2"/>
   <g id="patch_3">
    <path d="M 125.254844 124.579063 
C 125.254844 124.579063 125.254844 124.579063 125.254844 124.579063 
C 125.254844 124.579063 125.254844 124.579063 125.254844 124.579063 
L 125.254844 124.579063 
C 125.254844 124.579063 125.254844 124.579063 125.254844 124.579063 
C 125.254844 124.579063 125.254844 124.579063 125.254844 124.579063 
z
" clip-path="url(#pe9dcd5277a)" style="fill: #d9d9d9"/>
   </g>
   <g id="patch_4">
    <path d="M 125.254844 124.579063 
C 125.254844 124.579063 125.254844 124.579063 125.254844 124.579063 
C 125.254844 124.579063 125.254844 124.579063 125.254844 124.579063 
L 125.254844 124.579063 
C 125.254844 124.579063 125.254844 124.579063 125.254844 124.579063 
C 125.254844 124.579063 125.254844 124.579063 125.254844 124.579063 
z
" clip-path="url(#pe9dcd5277a)" style="fill: #d9d9d9"/>
   </g>
   <g id="patch_5">
    <path d="M 125.254844 124.579063 
C 125.254844 124.579063 125.254844 124.579063 125.254844 124.579063 
C 125.254844 124.579063 125.254844 124.579063 125.254844 124.579063 
L 125.254844 124.579063 
C 125.254844 124.579063 125.254844 124.579063 125.254844 124.579063 
C 125.254844 124.579063 125.254844 124.579063 125.254844 124.579063 
z
" clip-path="url(#pe9dcd5277a)" style="fill: #d9d9d9"/>
   </g>
   <g id="patch_6">
    <path d="M 125.254844 124.579063 
C 125.254844 124.579063 125.254844 124.579063 125.254844 124.579063 
C 125.254844 124.579063 125.254844 124.579063 125.254844 124.579063 
L 125.254844 124.579063 
C 125.254844 124.579063 125.254844 124.579063 125.254844 124.579063 
C 125.254844 124.579063 125.254844 124.579063 125.254844 124.579063 
z
" clip-path="url(#pe9dcd5277a)" style="fill: #d9d9d9"/>
   </g>
   <g id="patch_7">
    <path d="M 125.254844 124.579063 
C 125.254844 124.579063 125.254844 124.579063 125.254844 124.579063 
C 125.254844 124.579063 125.254844 124.579063 125.254844 124.579063 
L 125.254844 124.579063 
C 125.254844 124.579063 125.254844 124.579063 125.254844 124.579063 
C 125.254844 124.579063 125.254844 124.579063 125.254844 124.579063 
z
" clip-path="url(#pe9dcd5277a)" style="fill: #d9d9d9"/>
   </g>
   <g id="patch_8">
    <path d="M 125.254844 124.579063 
C 125.254844 124.579063 125.254844 124.579063 125.254844 124.579063 
C 125.254844 124.579063 125.254844 124.579063 125.254844 124.579063 
L 125.254844 124.579063 
C 125.254844 124.579063 125.254844 124.579063 125.254844 124.579063 
C 125.254844 124.579063 125.254844 124.579063 125.254844 124.579063 
z
" clip-path="url(#pe9dcd5277a)" style="fill: #d9d9d9"/>
   </g>
   <g id="patch_9">
    <path d="M 125.254844 124.579063 
C 125.254844 124.579063 125.254844 124.579063 125.254844 124.579063 
C 125.254844 124.579063 125.254844 124.579063 125.254844 124.579063 
L 125.254844 124.579063 
C 125.254844 124.579063 125.254844 124.579063 125.254844 124.579063 
C 125.254844 124.579063 125.254844 124.579063 125.254844 124.579063 
z
" clip-path="url(#pe9dcd5277a)" style="fill: #d9d9d9"/>
   </g>
   <g id="patch_10">
    <path d="M 125.254844 124.579063 
C 125.254844 124.579063 125.254844 124.579063 125.254844 124.579063 
C 125.254844 124.579063 125.254844 124.579063 125.254844 124.579063 
L 125.254844 124.579063 
C 125.254844 124.579063 125.254844 124.579063 125.254844 124.579063 
C 125.254844 124.579063 125.254844 124.579063 125.254844 124.579063 
z
" clip-path="url(#pe9dcd5277a)" style="fill: #d9d9d9"/>
   </g>
   <g id="patch_11">
    <path d="M 125.254844 124.579063 
C 125.254844 124.579063 125.254844 124.579063 125.254844 124.579063 
C 125.254844 124.579063 125.254844 124.579063 125.254844 124.579063 
L 125.254844 124.579063 
C 125.254844 124.579063 125.254844 124.579063 125.254844 124.579063 
C 125.254844 124.579063 125.254844 124.579063 125.254844 124.579063 
z
" clip-path="url(#pe9dcd5277a)" style="fill: #d9d9d9"/>
   </g>
   <g id="patch_12">
    <path d="M 125.254844 124.579063 
C 125.254844 124.579063 125.254844 124.579063 125.254844 124.579063 
C 125.254844 124.579063 125.254844 124.579063 125.254844 124.579063 
L 125.254844 124.579063 
C 125.254844 124.579063 125.254844 124.579063 125.254844 124.579063 
C 125.254844 124.579063 125.254844 124.579063 125.254844 124.579063 
z
" clip-path="url(#pe9dcd5277a)" style="fill: #d9d9d9"/>
   </g>
   <g id="patch_13">
    <path d="M 125.254844 124.579063 
C 125.254844 124.579063 125.254844 124.579063 125.254844 124.579063 
C 125.254844 124.579063 125.254844 124.579063 125.254844 124.579063 
L 125.254844 124.579063 
C 125.254844 124.579063 125.254844 124.579063 125.254844 124.579063 
C 125.254844 124.579063 125.254844 124.579063 125.254844 124.579063 
z
" clip-path="url(#pe9dcd5277a)" style="fill: #d9d9d9"/>
   </g>
   <g id="patch_14">
    <path d="M 125.254844 124.579063 
C 125.254844 124.579063 125.254844 124.579063 125.254844 124.579063 
C 125.254844 124.579063 125.254844 124.579063 125.254844 124.579063 
L 125.254844 124.579063 
C 125.254844 124.579063 125.254844 124.579063 125.254844 124.579063 
C 125.254844 124.579063 125.254844 124.579063 125.254844 124.579063 
z
" clip-path="url(#pe9dcd5277a)" style="fill: #d9d9d9"/>
   </g>
   <g id="patch_15">
    <path d="M 125.254844 124.579063 
C 125.254844 124.579063 125.254844 124.579063 125.254844 124.579063 
C 125.254844 124.579063 125.254844 124.579063 125.254844 124.579063 
L 125.254844 124.579063 
C 125.254844 124.579063 125.254844 124.579063 125.254844 124.579063 
C 125.254844 124.579063 125.254844 124.579063 125.254844 124.579063 
z
" clip-path="url(#pe9dcd5277a)" style="fill: #d9d9d9"/>
   </g>
   <g id="patch_16">
    <path d="M 125.254844 124.579063 
C 125.254844 124.579063 125.254844 124.579063 125.254844 124.579063 
C 125.254844 124.579063 125.254844 124.579063 125.254844 124.579063 
L 125.254844 124.579063 
C 125.254844 124.579063 125.254844 124.579063 125.254844 124.579063 
C 125.254844 124.579063 125.254844 124.579063 125.254844 124.579063 
z
" clip-path="url(#pe9dcd5277a)" style="fill: #d9d9d9"/>
   </g>
   <g id="patch_17">
    <path d="M 125.254844 124.579063 
C 125.254844 124.579063 125.254844 124.579063 125.254844 124.579063 
C 125.254844 124.579063 125.254844 124.579063 125.254844 124.579063 
L 125.254844 124.579063 
C 125.254844 124.579063 125.254844 124.579063 125.254844 124.579063 
C 125.254844 124.579063 125.254844 124.579063 125.254844 124.579063 
z
" clip-path="url(#pe9dcd5277a)" style="fill: #d9d9d9"/>
   </g>
   <g id="patch_18">
    <path d="M 125.254844 124.579063 
C 125.254844 124.579063 125.254844 124.579063 125.254844 124.579063 
C 125.254844 124.579063 125.254844 124.579063 125.254844 124.579063 
L 125.254844 124.579063 
C 125.254844 124.579063 125.254844 124.579063 125.254844 124.579063 
C 125.254844 124.579063 125.254844 124.579063 125.254844 124.579063 
z
" clip-path="url(#pe9dcd5277a)" style="fill: #d9d9d9"/>
   </g>
   <g id="patch_19">
    <path d="M 125.254844 124.579063 
C 125.254844 124.579063 125.254844 124.579063 125.254844 124.579063 
C 125.254844 124.579063 125.254844 124.579063 125.254844 124.579063 
L 125.254844 124.579063 
C 125.254844 124.579063 125.254844 124.579063 125.254844 124.579063 
C 125.254844 124.579063 125.254844 124.579063 125.254844 124.579063 
z
" clip-path="url(#pe9dcd5277a)" style="fill: #d9d9d9"/>
   </g>
   <g id="patch_20">
    <path d="M 125.254844 124.579063 
C 125.254844 124.579063 125.254844 124.579063 125.254844 124.579063 
C 125.254844 124.579063 125.254844 124.579063 125.254844 124.579063 
L 125.254844 124.579063 
C 125.254844 124.579063 125.254844 124.579063 125.254844 124.579063 
C 125.254844 124.579063 125.254844 124.579063 125.254844 124.579063 
z
" clip-path="url(#pe9dcd5277a)" style="fill: #d9d9d9"/>
   </g>
   <g id="patch_21">
    <path d="M 125.254844 124.579063 
C 125.254844 124.579063 125.254844 124.579063 125.254844 124.579063 
C 125.254844 124.579063 125.254844 124.579063 125.254844 124.579063 
L 125.254844 124.579063 
C 125.254844 124.579063 125.254844 124.579063 125.254844 124.579063 
C 125.254844 124.579063 125.254844 124.579063 125.254844 124.579063 
z
" clip-path="url(#pe9dcd5277a)" style="fill: #d9d9d9"/>
   </g>
   <g id="patch_22">
    <path d="M 125.254844 124.579063 
C 125.254844 124.579063 125.254844 124.579063 125.254844 124.579063 
C 125.254844 124.579063 125.254844 124.579063 125.254844 124.579063 
L 125.254844 124.579063 
C 125.254844 124.579063 125.254844 124.579063 125.254844 124.579063 
C 125.254844 124.579063 125.254844 124.579063 125.254844 124.579063 
z
" clip-path="url(#pe9dcd5277a)" style="fill: #d9d9d9"/>
   </g>
   <g id="patch_23">
    <path d="M 125.254844 124.579063 
C 125.254844 124.579063 125.254844 124.579063 125.254844 124.579063 
C 125.254844 124.579063 125.254844 124.579063 125.254844 124.579063 
L 125.254844 124.579063 
C 125.254844 124.579063 125.254844 124.579063 125.254844 124.579063 
C 125.254844 124.579063 125.254844 124.579063 125.254844 124.579063 
z
" clip-path="url(#pe9dcd5277a)" style="fill: #d9d9d9"/>
   </g>
   <g id="patch_24">
    <path d="M 125.254844 124.579063 
C 125.254844 124.579063 125.254844 124.579063 125.254844 124.579063 
C 125.254844 124.579063 125.254844 124.579063 125.254844 124.579063 
L 125.254844 124.579063 
C 125.254844 124.579063 125.254844 124.579063 125.254844 124.579063 
C 125.254844 124.579063 125.254844 124.579063 125.254844 124.579063 
z
" clip-path="url(#pe9dcd5277a)" style="fill: #d9d9d9"/>
   </g>
   <g id="patch_25">
    <path d="M 125.254844 124.579063 
C 125.254844 124.579063 125.254844 124.579063 125.254844 124.579063 
C 125.254844 124.579063 125.254844 124.579063 125.254844 124.579063 
L 125.254844 124.579063 
C 125.254844 124.579063 125.254844 124.579063 125.254844 124.579063 
C 125.254844 124.579063 125.254844 124.579063 125.254844 124.579063 
z
" clip-path="url(#pe9dcd5277a)" style="fill: #d9d9d9"/>
   </g>
   <g id="patch_26">
    <path d="M 125.254844 124.579063 
C 125.254844 124.579063 125.254844 124.579063 125.254844 124.579063 
C 125.254844 124.579063 125.254844 124.579063 125.254844 124.579063 
L 125.254844 124.579063 
C 125.254844 124.579063 125.254844 124.579063 125.254844 124.579063 
C 125.254844 124.579063 125.254844 124.579063 125.254844 124.579063 
z
" clip-path="url(#pe9dcd5277a)" style="fill: #d9d9d9"/>
   </g>
   <g id="patch_27">
    <path d="M 125.254844 124.579063 
C 125.254844 124.579063 125.254844 124.579063 125.254844 124.579063 
C 125.254844 124.579063 125.254844 124.579063 125.254844 124.579063 
L 125.254844 124.579063 
C 125.254844 124.579063 125.254844 124.579063 125.254844 124.579063 
C 125.254844 124.579063 125.254844 124.579063 125.254844 124.579063 
z
" clip-path="url(#pe9dcd5277a)" style="fill: #d9d9d9"/>
   </g>
   <g id="patch_28">
    <path d="M 125.254844 124.579063 
C 125.254844 124.579063 125.254844 124.579063 125.254844 124.579063 
C 125.254844 124.579063 125.254844 124.579063 125.254844 124.579063 
L 125.254844 124.579063 
C 125.254844 124.579063 125.254844 124.579063 125.254844 124.579063 
C 125.254844 124.579063 125.254844 124.579063 125.254844 124.579063 
z
" clip-path="url(#pe9dcd5277a)" style="fill: #d9d9d9"/>
   </g>
   <g id="patch_29">
    <path d="M 125.254844 124.579063 
C 125.254844 124.579063 125.254844 124.579063 125.254844 124.579063 
C 125.254844 124.579063 125.254844 124.579063 125.254844 124.579063 
L 125.254844 124.579063 
C 125.254844 124.579063 125.254844 124.579063 125.254844 124.579063 
C 125.254844 124.579063 125.254844 124.579063 125.254844 124.579063 
z
" clip-path="url(#pe9dcd5277a)" style="fill: #d9d9d9"/>
   </g>
   <g id="patch_30">
    <path d="M 125.254844 124.579063 
C 125.254844 124.579063 125.254844 124.579063 125.254844 124.579063 
C 125.254844 124.579063 125.254844 124.579063 125.254844 124.579063 
L 125.254844 124.579063 
C 125.254844 124.579063 125.254844 124.579063 125.254844 124.579063 
C 125.254844 124.579063 125.254844 124.579063 125.254844 124.579063 
z
" clip-path="url(#pe9dcd5277a)" style="fill: #d9d9d9"/>
   </g>
   <g id="patch_31">
    <path d="M 125.254844 124.579063 
C 125.254844 124.579063 125.254844 124.579063 125.254844 124.579063 
C 125.254844 124.579063 125.254844 124.579063 125.254844 124.579063 
L 125.254844 124.579063 
C 125.254844 124.579063 125.254844 124.579063 125.254844 124.579063 
C 125.254844 124.579063 125.254844 124.579063 125.254844 124.579063 
z
" clip-path="url(#pe9dcd5277a)" style="fill: #d9d9d9"/>
   </g>
   <g id="patch_32">
    <path d="M 125.254844 124.579063 
C 125.254844 124.579063 125.254844 124.579063 125.254844 124.579063 
C 125.254844 124.579063 125.254844 124.579063 125.254844 124.579063 
L 125.254844 124.579063 
C 125.254844 124.579063 125.254844 124.579063 125.254844 124.579063 
C 125.254844 124.579063 125.254844 124.579063 125.254844 124.579063 
z
" clip-path="url(#pe9dcd5277a)" style="fill: #d9d9d9"/>
   </g>
   <g id="patch_33">
    <path d="M 125.254844 124.579063 
C 125.254844 124.579063 125.254844 124.579063 125.254844 124.579063 
C 125.254844 124.579063 125.254844 124.579063 125.254844 124.579063 
L 125.254844 124.579063 
C 125.254844 124.579063 125.254844 124.579063 125.254844 124.579063 
C 125.254844 124.579063 125.254844 124.579063 125.254844 124.579063 
z
" clip-path="url(#pe9dcd5277a)" style="fill: #d9d9d9"/>
   </g>
   <g id="patch_34">
    <path d="M 125.254844 124.579063 
C 125.254844 124.579063 125.254844 124.579063 125.254844 124.579063 
C 125.254844 124.579063 125.254844 124.579063 125.254844 124.579063 
L 125.254844 124.579063 
C 125.254844 124.579063 125.254844 124.579063 125.254844 124.579063 
C 125.254844 124.579063 125.254844 124.579063 125.254844 124.579063 
z
" clip-path="url(#pe9dcd5277a)" style="fill: #d9d9d9"/>
   </g>
   <g id="patch_35">
    <path d="M 125.254844 124.579063 
C 125.254844 124.579063 125.254844 124.579063 125.254844 124.579063 
C 125.254844 124.579063 125.254844 124.579063 125.254844 124.579063 
L 127.568187 101.091296 
C 126.799397 101.015577 126.027353 100.977649 125.254844 100.977649 
C 124.482334 100.977649 123.71029 101.015577 122.941501 101.091296 
z
" clip-path="url(#pe9dcd5277a)" style="fill: #a1a1d8"/>
   </g>
   <g id="patch_36">
    <path d="M 125.254844 124.579063 
C 125.254844 124.579063 125.254844 124.579063 125.254844 124.579063 
C 125.254844 124.579063 125.254844 124.579063 125.254844 124.579063 
L 126.549585 120.310871 
C 126.409881 120.268492 126.26818 120.232998 126.124995 120.204517 
C 125.98181 120.176036 125.837312 120.154601 125.692025 120.140292 
z
" clip-path="url(#pe9dcd5277a)" style="fill: #a1a1d8"/>
   </g>
   <g id="patch_37">
    <path d="M 125.254844 124.579063 
C 125.254844 124.579063 125.254844 124.579063 125.254844 124.579063 
C 125.254844 124.579063 125.254844 124.579063 125.254844 124.579063 
L 125.254844 124.579063 
C 125.254844 124.579063 125.254844 124.579063 125.254844 124.579063 
C 125.254844 124.579063 125.254844 124.579063 125.254844 124.579063 
z
" clip-path="url(#pe9dcd5277a)" style="fill: #a1a1d8"/>
   </g>
   <g id="patch_38">
    <path d="M 125.254844 124.579063 
C 125.254844 124.579063 125.254844 124.579063 125.254844 124.579063 
C 125.254844 124.579063 125.254844 124.579063 125.254844 124.579063 
L 125.254844 124.579063 
C 125.254844 124.579063 125.254844 124.579063 125.254844 124.579063 
C 125.254844 124.579063 125.254844 124.579063 125.254844 124.579063 
z
" clip-path="url(#pe9dcd5277a)" style="fill: #a1a1d8"/>
   </g>
   <g id="patch_39">
    <path d="M 125.254844 124.579063 
C 125.254844 124.579063 125.254844 124.579063 125.254844 124.579063 
C 125.254844 124.579063 125.254844 124.579063 125.254844 124.579063 
L 125.254844 124.579063 
C 125.254844 124.579063 125.254844 124.579063 125.254844 124.579063 
C 125.254844 124.579063 125.254844 124.579063 125.254844 124.579063 
z
" clip-path="url(#pe9dcd5277a)" style="fill: #a1a1d8"/>
   </g>
   <g id="patch_40">
    <path d="M 125.254844 124.579063 
C 125.254844 124.579063 125.254844 124.579063 125.254844 124.579063 
C 125.254844 124.579063 125.254844 124.579063 125.254844 124.579063 
L 125.254844 124.579063 
C 125.254844 124.579063 125.254844 124.579063 125.254844 124.579063 
C 125.254844 124.579063 125.254844 124.579063 125.254844 124.579063 
z
" clip-path="url(#pe9dcd5277a)" style="fill: #a1a1d8"/>
   </g>
   <g id="patch_41">
    <path d="M 125.254844 124.579063 
C 125.254844 124.579063 125.254844 124.579063 125.254844 124.579063 
C 125.254844 124.579063 125.254844 124.579063 125.254844 124.579063 
L 125.254844 124.579063 
C 125.254844 124.579063 125.254844 124.579063 125.254844 124.579063 
C 125.254844 124.579063 125.254844 124.579063 125.254844 124.579063 
z
" clip-path="url(#pe9dcd5277a)" style="fill: #a1a1d8"/>
   </g>
   <g id="patch_42">
    <path d="M 125.254844 124.579063 
C 125.254844 124.579063 125.254844 124.579063 125.254844 124.579063 
C 125.254844 124.579063 125.254844 124.579063 125.254844 124.579063 
L 136.127567 123.508193 
C 136.092516 123.152312 136.040013 122.798367 135.970248 122.447636 
C 135.900483 122.096905 135.813541 121.74981 135.709734 121.407606 
z
" clip-path="url(#pe9dcd5277a)" style="fill: #a1a1d8"/>
   </g>
   <g id="patch_43">
    <path d="M 125.254844 124.579063 
C 125.254844 124.579063 125.254844 124.579063 125.254844 124.579063 
C 125.254844 124.579063 125.254844 124.579063 125.254844 124.579063 
L 138.571156 125.890605 
C 138.614085 125.454742 138.635588 125.017034 138.635588 124.579063 
C 138.635588 124.141091 138.614085 123.703383 138.571156 123.26752 
z
" clip-path="url(#pe9dcd5277a)" style="fill: #a1a1d8"/>
   </g>
   <g id="patch_44">
    <path d="M 125.254844 124.579063 
C 125.254844 124.579063 125.254844 124.579063 125.254844 124.579063 
C 125.254844 124.579063 125.254844 124.579063 125.254844 124.579063 
L 135.709734 127.750519 
C 135.813541 127.408315 135.900483 127.06122 135.970248 126.710489 
C 136.040013 126.359758 136.092516 126.005813 136.127567 125.649932 
z
" clip-path="url(#pe9dcd5277a)" style="fill: #a1a1d8"/>
   </g>
   <g id="patch_45">
    <path d="M 125.254844 124.579063 
C 125.254844 124.579063 125.254844 124.579063 125.254844 124.579063 
C 125.254844 124.579063 125.254844 124.579063 125.254844 124.579063 
L 149.82009 137.70946 
C 150.249868 136.905403 150.639909 136.08073 150.988806 135.238419 
C 151.337702 134.396108 151.645034 133.537174 151.909689 132.664721 
z
" clip-path="url(#pe9dcd5277a)" style="fill: #a1a1d8"/>
   </g>
   <g id="patch_46">
    <path d="M 125.254844 124.579063 
C 125.254844 124.579063 125.254844 124.579063 125.254844 124.579063 
C 125.254844 124.579063 125.254844 124.579063 125.254844 124.579063 
L 136.689963 133.963623 
C 136.997134 133.589334 137.285743 133.20019 137.554748 132.797596 
C 137.823753 132.395002 138.072829 131.979443 138.301078 131.55242 
z
" clip-path="url(#pe9dcd5277a)" style="fill: #a1a1d8"/>
   </g>
   <g id="patch_47">
    <path d="M 125.254844 124.579063 
C 125.254844 124.579063 125.254844 124.579063 125.254844 124.579063 
C 125.254844 124.579063 125.254844 124.579063 125.254844 124.579063 
L 150.563121 155.417287 
C 151.572502 154.588909 152.540603 153.711473 153.463929 152.788148 
C 154.387254 151.864822 155.264691 150.89672 156.093068 149.887339 
z
" clip-path="url(#pe9dcd5277a)" style="fill: #a1a1d8"/>
   </g>
   <g id="patch_48">
    <path d="M 125.254844 124.579063 
C 125.254844 124.579063 125.254844 124.579063 125.254844 124.579063 
C 125.254844 124.579063 125.254844 124.579063 125.254844 124.579063 
L 138.385241 149.144309 
C 139.189299 148.714531 139.97177 148.245536 140.72983 147.739016 
C 141.48789 147.232497 142.220624 146.689064 142.925386 146.110681 
z
" clip-path="url(#pe9dcd5277a)" style="fill: #a1a1d8"/>
   </g>
   <g id="patch_49">
    <path d="M 125.254844 124.579063 
C 125.254844 124.579063 125.254844 124.579063 125.254844 124.579063 
C 125.254844 124.579063 125.254844 124.579063 125.254844 124.579063 
L 134.769213 155.943734 
C 135.795825 155.632315 136.806529 155.270679 137.797674 154.860134 
C 138.788819 154.449588 139.759209 153.990627 140.705341 153.48491 
z
" clip-path="url(#pe9dcd5277a)" style="fill: #a1a1d8"/>
   </g>
   <g id="patch_50">
    <path d="M 125.254844 124.579063 
C 125.254844 124.579063 125.254844 124.579063 125.254844 124.579063 
C 125.254844 124.579063 125.254844 124.579063 125.254844 124.579063 
L 129.448134 167.154255 
C 130.841684 167.017002 132.227655 166.811413 133.601041 166.53823 
C 134.974427 166.265046 136.333573 165.924598 137.673569 165.518114 
z
" clip-path="url(#pe9dcd5277a)" style="fill: #a1a1d8"/>
   </g>
   <g id="patch_51">
    <path d="M 125.254844 124.579063 
C 125.254844 124.579063 125.254844 124.579063 125.254844 124.579063 
C 125.254844 124.579063 125.254844 124.579063 125.254844 124.579063 
L 119.276487 185.278339 
C 121.263265 185.474019 123.258453 185.572036 125.254844 185.572036 
C 127.251235 185.572036 129.246423 185.474019 131.233201 185.278339 
z
" clip-path="url(#pe9dcd5277a)" style="fill: #a1a1d8"/>
   </g>
   <g id="patch_52">
    <path d="M 125.254844 124.579063 
C 125.254844 124.579063 125.254844 124.579063 125.254844 124.579063 
C 125.254844 124.579063 125.254844 124.579063 125.254844 124.579063 
L 110.100281 174.53696 
C 111.735478 175.032991 113.394043 175.44844 115.069985 175.781806 
C 116.745927 176.115171 118.437227 176.366052 120.137774 176.533541 
z
" clip-path="url(#pe9dcd5277a)" style="fill: #a1a1d8"/>
   </g>
   <g id="patch_53">
    <path d="M 125.254844 124.579063 
C 125.254844 124.579063 125.254844 124.579063 125.254844 124.579063 
C 125.254844 124.579063 125.254844 124.579063 125.254844 124.579063 
L 103.505935 165.268408 
C 104.837758 165.980283 106.20373 166.626339 107.598915 167.204244 
C 108.994101 167.782149 110.41682 168.291206 111.861932 168.729576 
z
" clip-path="url(#pe9dcd5277a)" style="fill: #a1a1d8"/>
   </g>
   <g id="patch_54">
    <path d="M 125.254844 124.579063 
C 125.254844 124.579063 125.254844 124.579063 125.254844 124.579063 
C 125.254844 124.579063 125.254844 124.579063 125.254844 124.579063 
L 100.264923 155.029369 
C 101.261607 155.847327 102.297849 156.615857 103.369908 157.332183 
C 104.441967 158.04851 105.548549 158.71177 106.685657 159.319567 
z
" clip-path="url(#pe9dcd5277a)" style="fill: #a1a1d8"/>
   </g>
   <g id="patch_55">
    <path d="M 125.254844 124.579063 
C 125.254844 124.579063 125.254844 124.579063 125.254844 124.579063 
C 125.254844 124.579063 125.254844 124.579063 125.254844 124.579063 
L 87.328842 155.704128 
C 88.347612 156.945502 89.426716 158.13611 90.562256 159.27165 
C 91.697796 160.40719 92.888404 161.486294 94.129779 162.505064 
z
" clip-path="url(#pe9dcd5277a)" style="fill: #a1a1d8"/>
   </g>
   <g id="patch_56">
    <path d="M 125.254844 124.579063 
C 125.254844 124.579063 125.254844 124.579063 125.254844 124.579063 
C 125.254844 124.579063 125.254844 124.579063 125.254844 124.579063 
L 91.416844 142.66585 
C 92.008852 143.773418 92.654881 144.851253 93.352599 145.895461 
C 94.050316 146.939669 94.798881 147.948992 95.595589 148.919784 
z
" clip-path="url(#pe9dcd5277a)" style="fill: #a1a1d8"/>
   </g>
   <g id="patch_57">
    <path d="M 125.254844 124.579063 
C 125.254844 124.579063 125.254844 124.579063 125.254844 124.579063 
C 125.254844 124.579063 125.254844 124.579063 125.254844 124.579063 
L 82.572932 137.526479 
C 82.99672 138.923522 83.488844 140.298916 84.047525 141.647693 
C 84.606207 142.99647 85.230773 144.317004 85.918968 145.604526 
z
" clip-path="url(#pe9dcd5277a)" style="fill: #a1a1d8"/>
   </g>
   <g id="patch_58">
    <path d="M 125.254844 124.579063 
C 125.254844 124.579063 125.254844 124.579063 125.254844 124.579063 
C 125.254844 124.579063 125.254844 124.579063 125.254844 124.579063 
L 77.861742 129.246876 
C 78.014526 130.798123 78.243381 132.340933 78.547478 133.869735 
C 78.851576 135.398537 79.23055 136.911487 79.683032 138.40312 
z
" clip-path="url(#pe9dcd5277a)" style="fill: #a1a1d8"/>
   </g>
   <g id="patch_59">
    <path d="M 125.254844 124.579063 
C 125.254844 124.579063 125.254844 124.579063 125.254844 124.579063 
C 125.254844 124.579063 125.254844 124.579063 125.254844 124.579063 
L 51.112756 117.276704 
C 50.873739 119.703485 50.754014 122.140539 50.754014 124.579062 
C 50.754014 127.017586 50.873739 129.45464 51.112756 131.881421 
z
" clip-path="url(#pe9dcd5277a)" style="fill: #a1a1d8"/>
   </g>
   <g id="patch_60">
    <path d="M 125.254844 124.579063 
C 125.254844 124.579063 125.254844 124.579063 125.254844 124.579063 
C 125.254844 124.579063 125.254844 124.579063 125.254844 124.579063 
L 62.380461 105.506327 
C 61.756182 107.564299 61.23332 109.651682 60.813763 111.760935 
C 60.394207 113.870187 60.078462 115.998768 59.867669 118.138988 
z
" clip-path="url(#pe9dcd5277a)" style="fill: #a1a1d8"/>
   </g>
   <g id="patch_61">
    <path d="M 125.254844 124.579063 
C 125.254844 124.579063 125.254844 124.579063 125.254844 124.579063 
C 125.254844 124.579063 125.254844 124.579063 125.254844 124.579063 
L 38.537303 78.227571 
C 37.020149 81.065966 35.643267 83.977138 34.411631 86.950572 
C 33.179994 89.924006 32.095087 92.956117 31.160829 96.035955 
z
" clip-path="url(#pe9dcd5277a)" style="fill: #a1a1d8"/>
   </g>
   <g id="patch_62">
    <path d="M 125.254844 124.579063 
C 125.254844 124.579063 125.254844 124.579063 125.254844 124.579063 
C 125.254844 124.579063 125.254844 124.579063 125.254844 124.579063 
L 69.340627 78.691451 
C 67.838657 80.521606 66.427448 82.424402 65.112097 84.392964 
C 63.796746 86.361526 62.578838 88.393481 61.462774 90.481491 
z
" clip-path="url(#pe9dcd5277a)" style="fill: #a1a1d8"/>
   </g>
   <g id="patch_63">
    <path d="M 125.254844 124.579063 
C 125.254844 124.579063 125.254844 124.579063 125.254844 124.579063 
C 125.254844 124.579063 125.254844 124.579063 125.254844 124.579063 
L 89.463535 80.967227 
C 88.036055 82.13873 86.666952 83.379612 85.361173 84.685392 
C 84.055394 85.991171 82.814511 87.360274 81.643008 88.787754 
z
" clip-path="url(#pe9dcd5277a)" style="fill: #a1a1d8"/>
   </g>
   <g id="patch_64">
    <path d="M 125.254844 124.579063 
C 125.254844 124.579063 125.254844 124.579063 125.254844 124.579063 
C 125.254844 124.579063 125.254844 124.579063 125.254844 124.579063 
L 108.566399 93.357179 
C 107.544461 93.903417 106.549956 94.4995 105.586479 95.143275 
C 104.623002 95.78705 103.691713 96.477741 102.795976 97.212853 
z
" clip-path="url(#pe9dcd5277a)" style="fill: #a1a1d8"/>
   </g>
   <g id="patch_65">
    <path d="M 125.254844 124.579063 
C 125.254844 124.579063 125.254844 124.579063 125.254844 124.579063 
C 125.254844 124.579063 125.254844 124.579063 125.254844 124.579063 
L 117.27352 98.268165 
C 116.412325 98.529405 115.564476 98.832771 114.733034 99.177166 
C 113.901591 99.52156 113.087559 99.906569 112.293878 100.3308 
z
" clip-path="url(#pe9dcd5277a)" style="fill: #a1a1d8"/>
   </g>
   <g id="patch_66">
    <path d="M 125.254844 124.579063 
C 125.254844 124.579063 125.254844 124.579063 125.254844 124.579063 
C 125.254844 124.579063 125.254844 124.579063 125.254844 124.579063 
L 123.452301 106.277542 
C 122.853265 106.336542 122.257487 106.424917 121.667118 106.542349 
C 121.07675 106.659781 120.492503 106.806127 119.916487 106.980859 
z
" clip-path="url(#pe9dcd5277a)" style="fill: #a1a1d8"/>
   </g>
   <g id="patch_67">
    <path d="M 122.941501 101.091296 
C 123.71029 101.015577 124.482334 100.977649 125.254844 100.977649 
C 126.027353 100.977649 126.799397 101.015577 127.568187 101.091296 
L 127.609134 100.675551 
C 126.826737 100.598491 126.041027 100.559892 125.254844 100.559892 
C 124.46866 100.559892 123.682951 100.598491 122.900553 100.675551 
z
" clip-path="url(#pe9dcd5277a)" style="fill: #ff8c8e"/>
   </g>
   <g id="patch_68">
    <path d="M 125.692025 120.140292 
C 125.837312 120.154601 125.98181 120.176036 126.124995 120.204517 
C 126.26818 120.232998 126.409881 120.268492 126.549585 120.310871 
L 126.549585 120.310871 
C 126.409881 120.268492 126.26818 120.232998 126.124995 120.204517 
C 125.98181 120.176036 125.837312 120.154601 125.692025 120.140292 
z
" clip-path="url(#pe9dcd5277a)" style="fill: #ff8c8e"/>
   </g>
   <g id="patch_69">
    <path d="M 125.254844 124.579063 
C 125.254844 124.579063 125.254844 124.579063 125.254844 124.579063 
C 125.254844 124.579063 125.254844 124.579063 125.254844 124.579063 
L 125.254844 124.579063 
C 125.254844 124.579063 125.254844 124.579063 125.254844 124.579063 
C 125.254844 124.579063 125.254844 124.579063 125.254844 124.579063 
z
" clip-path="url(#pe9dcd5277a)" style="fill: #ff8c8e"/>
   </g>
   <g id="patch_70">
    <path d="M 125.254844 124.579063 
C 125.254844 124.579063 125.254844 124.579063 125.254844 124.579063 
C 125.254844 124.579063 125.254844 124.579063 125.254844 124.579063 
L 125.254844 124.579063 
C 125.254844 124.579063 125.254844 124.579063 125.254844 124.579063 
C 125.254844 124.579063 125.254844 124.579063 125.254844 124.579063 
z
" clip-path="url(#pe9dcd5277a)" style="fill: #ff8c8e"/>
   </g>
   <g id="patch_71">
    <path d="M 125.254844 124.579063 
C 125.254844 124.579063 125.254844 124.579063 125.254844 124.579063 
C 125.254844 124.579063 125.254844 124.579063 125.254844 124.579063 
L 125.254844 124.579063 
C 125.254844 124.579063 125.254844 124.579063 125.254844 124.579063 
C 125.254844 124.579063 125.254844 124.579063 125.254844 124.579063 
z
" clip-path="url(#pe9dcd5277a)" style="fill: #ff8c8e"/>
   </g>
   <g id="patch_72">
    <path d="M 125.254844 124.579063 
C 125.254844 124.579063 125.254844 124.579063 125.254844 124.579063 
C 125.254844 124.579063 125.254844 124.579063 125.254844 124.579063 
L 125.254844 124.579063 
C 125.254844 124.579063 125.254844 124.579063 125.254844 124.579063 
C 125.254844 124.579063 125.254844 124.579063 125.254844 124.579063 
z
" clip-path="url(#pe9dcd5277a)" style="fill: #ff8c8e"/>
   </g>
   <g id="patch_73">
    <path d="M 125.254844 124.579063 
C 125.254844 124.579063 125.254844 124.579063 125.254844 124.579063 
C 125.254844 124.579063 125.254844 124.579063 125.254844 124.579063 
L 125.254844 124.579063 
C 125.254844 124.579063 125.254844 124.579063 125.254844 124.579063 
C 125.254844 124.579063 125.254844 124.579063 125.254844 124.579063 
z
" clip-path="url(#pe9dcd5277a)" style="fill: #ff8c8e"/>
   </g>
   <g id="patch_74">
    <path d="M 135.709734 121.407606 
C 135.813541 121.74981 135.900483 122.096905 135.970248 122.447636 
C 136.040013 122.798367 136.092516 123.152312 136.127567 123.508193 
L 136.127567 123.508193 
C 136.092516 123.152312 136.040013 122.798367 135.970248 122.447636 
C 135.900483 122.096905 135.813541 121.74981 135.709734 121.407606 
z
" clip-path="url(#pe9dcd5277a)" style="fill: #ff8c8e"/>
   </g>
   <g id="patch_75">
    <path d="M 138.571156 123.26752 
C 138.614085 123.703383 138.635588 124.141091 138.635588 124.579063 
C 138.635588 125.017034 138.614085 125.454742 138.571156 125.890605 
L 138.571156 125.890605 
C 138.614085 125.454742 138.635588 125.017034 138.635588 124.579063 
C 138.635588 124.141091 138.614085 123.703383 138.571156 123.26752 
z
" clip-path="url(#pe9dcd5277a)" style="fill: #ff8c8e"/>
   </g>
   <g id="patch_76">
    <path d="M 136.127567 125.649932 
C 136.092516 126.005813 136.040013 126.359758 135.970248 126.710489 
C 135.900483 127.06122 135.813541 127.408315 135.709734 127.750519 
L 135.709734 127.750519 
C 135.813541 127.408315 135.900483 127.06122 135.970248 126.710489 
C 136.040013 126.359758 136.092516 126.005813 136.127567 125.649932 
z
" clip-path="url(#pe9dcd5277a)" style="fill: #ff8c8e"/>
   </g>
   <g id="patch_77">
    <path d="M 151.909689 132.664721 
C 151.645034 133.537174 151.337702 134.396108 150.988806 135.238419 
C 150.639909 136.08073 150.249868 136.905403 149.82009 137.70946 
L 149.82009 137.70946 
C 150.249868 136.905403 150.639909 136.08073 150.988806 135.238419 
C 151.337702 134.396108 151.645034 133.537174 151.909689 132.664721 
z
" clip-path="url(#pe9dcd5277a)" style="fill: #ff8c8e"/>
   </g>
   <g id="patch_78">
    <path d="M 138.301078 131.55242 
C 138.072829 131.979443 137.823753 132.395002 137.554748 132.797596 
C 137.285743 133.20019 136.997134 133.589334 136.689963 133.963623 
L 136.689963 133.963623 
C 136.997134 133.589334 137.285743 133.20019 137.554748 132.797596 
C 137.823753 132.395002 138.072829 131.979443 138.301078 131.55242 
z
" clip-path="url(#pe9dcd5277a)" style="fill: #ff8c8e"/>
   </g>
   <g id="patch_79">
    <path d="M 156.093068 149.887339 
C 155.264691 150.89672 154.387254 151.864822 153.463929 152.788148 
C 152.540603 153.711473 151.572502 154.588909 150.563121 155.417287 
L 150.563121 155.417287 
C 151.572502 154.588909 152.540603 153.711473 153.463929 152.788148 
C 154.387254 151.864822 155.264691 150.89672 156.093068 149.887339 
z
" clip-path="url(#pe9dcd5277a)" style="fill: #ff8c8e"/>
   </g>
   <g id="patch_80">
    <path d="M 142.925386 146.110681 
C 142.220624 146.689064 141.48789 147.232497 140.72983 147.739016 
C 139.97177 148.245536 139.189299 148.714531 138.385241 149.144309 
L 138.552514 149.457255 
C 139.366815 149.022002 140.159255 148.547032 140.926972 148.03406 
C 141.694689 147.521087 142.436758 146.970732 143.150498 146.38498 
z
" clip-path="url(#pe9dcd5277a)" style="fill: #ff8c8e"/>
   </g>
   <g id="patch_81">
    <path d="M 140.705341 153.48491 
C 139.759209 153.990627 138.788819 154.449588 137.797674 154.860134 
C 136.806529 155.270679 135.795825 155.632315 134.769213 155.943734 
L 136.689692 162.274707 
C 137.923527 161.900427 139.138242 161.465795 140.32945 160.972381 
C 141.520657 160.478966 142.686922 159.927364 143.82403 159.319567 
z
" clip-path="url(#pe9dcd5277a)" style="fill: #ff8c8e"/>
   </g>
   <g id="patch_82">
    <path d="M 137.673569 165.518114 
C 136.333573 165.924598 134.974427 166.265046 133.601041 166.53823 
C 132.227655 166.811413 130.841684 167.017002 129.448134 167.154255 
L 130.258606 175.383115 
C 131.921499 175.219334 133.575348 174.974009 135.21418 174.648025 
C 136.853012 174.322041 138.474851 173.915792 140.073839 173.430744 
z
" clip-path="url(#pe9dcd5277a)" style="fill: #ff8c8e"/>
   </g>
   <g id="patch_83">
    <path d="M 131.233201 185.278339 
C 129.246423 185.474019 127.251235 185.572036 125.254844 185.572036 
C 123.258453 185.572036 121.263265 185.474019 119.276487 185.278339 
L 118.904426 189.055931 
C 121.014851 189.26379 123.134208 189.367907 125.254844 189.367907 
C 127.375479 189.367907 129.494837 189.26379 131.605261 189.055931 
z
" clip-path="url(#pe9dcd5277a)" style="fill: #ff8c8e"/>
   </g>
   <g id="patch_84">
    <path d="M 120.137774 176.533541 
C 118.437227 176.366052 116.745927 176.115171 115.069985 175.781806 
C 113.394043 175.44844 111.735478 175.032991 110.100281 174.53696 
L 109.66409 175.974891 
C 111.346352 176.485199 113.052655 176.912606 114.776836 177.255567 
C 116.501016 177.598528 118.240996 177.856629 119.99049 178.028939 
z
" clip-path="url(#pe9dcd5277a)" style="fill: #ff8c8e"/>
   </g>
   <g id="patch_85">
    <path d="M 111.861932 168.729576 
C 110.41682 168.291206 108.994101 167.782149 107.598915 167.204244 
C 106.20373 166.626339 104.837758 165.980283 103.505935 165.268408 
L 103.303615 165.646922 
C 104.647828 166.365419 106.026506 167.017485 107.434671 167.600766 
C 108.842835 168.184047 110.278789 168.697839 111.737344 169.140287 
z
" clip-path="url(#pe9dcd5277a)" style="fill: #ff8c8e"/>
   </g>
   <g id="patch_86">
    <path d="M 106.685657 159.319567 
C 105.548549 158.71177 104.441967 158.04851 103.369908 157.332183 
C 102.297849 156.615857 101.261607 155.847327 100.264923 155.029369 
L 98.411363 157.287939 
C 99.481973 158.166566 100.595076 158.9921 101.746652 159.761558 
C 102.898227 160.531016 104.086887 161.243472 105.308338 161.896351 
z
" clip-path="url(#pe9dcd5277a)" style="fill: #ff8c8e"/>
   </g>
   <g id="patch_87">
    <path d="M 94.129779 162.505064 
C 92.888404 161.486294 91.697796 160.40719 90.562256 159.27165 
C 89.426716 158.13611 88.347612 156.945502 87.328842 155.704128 
L 75.17239 165.68067 
C 76.517707 167.319944 77.942697 168.892178 79.442213 170.391694 
C 80.941728 171.89121 82.513962 173.316199 84.153236 174.661516 
z
" clip-path="url(#pe9dcd5277a)" style="fill: #ff8c8e"/>
   </g>
   <g id="patch_88">
    <path d="M 95.595589 148.919784 
C 94.798881 147.948992 94.050316 146.939669 93.352599 145.895461 
C 92.654881 144.851253 92.008852 143.773418 91.416844 142.66585 
L 77.562629 150.071082 
C 78.397021 151.63212 79.307553 153.15125 80.290935 154.622986 
C 81.274318 156.094721 82.329366 157.517289 83.452268 158.88555 
z
" clip-path="url(#pe9dcd5277a)" style="fill: #ff8c8e"/>
   </g>
   <g id="patch_89">
    <path d="M 85.918968 145.604526 
C 85.230773 144.317004 84.606207 142.99647 84.047525 141.647693 
C 83.488844 140.298916 82.99672 138.923522 82.572932 137.526479 
L 69.441001 141.510006 
C 69.995176 143.336877 70.638712 145.135438 71.369283 146.899193 
C 72.099854 148.662947 72.91658 150.38977 73.816512 152.073424 
z
" clip-path="url(#pe9dcd5277a)" style="fill: #ff8c8e"/>
   </g>
   <g id="patch_90">
    <path d="M 79.683032 138.40312 
C 79.23055 136.911487 78.851576 135.398537 78.547478 133.869735 
C 78.243381 132.340933 78.014526 130.798123 77.861742 129.246876 
L 58.37802 131.165855 
C 58.593616 133.354833 58.916554 135.531907 59.345669 137.689212 
C 59.774784 139.846518 60.309558 141.981455 60.948059 144.086312 
z
" clip-path="url(#pe9dcd5277a)" style="fill: #ff8c8e"/>
   </g>
   <g id="patch_91">
    <path d="M 51.112756 131.881421 
C 50.873739 129.45464 50.754014 127.017586 50.754014 124.579062 
C 50.754014 122.140539 50.873739 119.703485 51.112756 117.276704 
L 14.908755 113.710921 
C 14.553024 117.322714 14.374837 120.949794 14.374837 124.579062 
C 14.374837 128.208331 14.553024 131.835411 14.908755 135.447204 
z
" clip-path="url(#pe9dcd5277a)" style="fill: #ff8c8e"/>
   </g>
   <g id="patch_92">
    <path d="M 59.867669 118.138988 
C 60.078462 115.998768 60.394207 113.870187 60.813763 111.760935 
C 61.23332 109.651682 61.756182 107.564299 62.380461 105.506327 
L 42.271722 99.406408 
C 41.447784 102.122569 40.757698 104.877547 40.203957 107.661389 
C 39.650216 110.445232 39.233488 113.254584 38.955278 116.079297 
z
" clip-path="url(#pe9dcd5277a)" style="fill: #ff8c8e"/>
   </g>
   <g id="patch_93">
    <path d="M 31.160829 96.035955 
C 32.095087 92.956117 33.179994 89.924006 34.411631 86.950572 
C 35.643267 83.977138 37.020149 81.065966 38.537303 78.227571 
L 29.30433 73.292445 
C 27.625643 76.433048 26.102162 79.654178 24.739391 82.944199 
C 23.376619 86.234219 22.1762 89.589166 21.14247 92.996919 
z
" clip-path="url(#pe9dcd5277a)" style="fill: #ff8c8e"/>
   </g>
   <g id="patch_94">
    <path d="M 61.462774 90.481491 
C 62.578838 88.393481 63.796746 86.361526 65.112097 84.392964 
C 66.427448 82.424402 67.838657 80.521606 69.340627 78.691451 
L 62.432604 73.022183 
C 60.745071 75.078449 59.159511 77.216328 57.681653 79.4281 
C 56.203794 81.639871 54.835418 83.922868 53.581468 86.268845 
z
" clip-path="url(#pe9dcd5277a)" style="fill: #ff8c8e"/>
   </g>
   <g id="patch_95">
    <path d="M 81.643008 88.787754 
C 82.814511 87.360274 84.055394 85.991171 85.361173 84.685392 
C 86.666952 83.379612 88.036055 82.13873 89.463535 80.967227 
L 88.470676 79.757424 
C 87.003597 80.961425 85.596515 82.23673 84.254513 83.578732 
C 82.912511 84.920734 81.637206 86.327816 80.433206 87.794895 
z
" clip-path="url(#pe9dcd5277a)" style="fill: #ff8c8e"/>
   </g>
   <g id="patch_96">
    <path d="M 102.795976 97.212853 
C 103.691713 96.477741 104.623002 95.78705 105.586479 95.143275 
C 106.549956 94.4995 107.544461 93.903417 108.566399 93.357179 
L 105.531211 87.67874 
C 104.323408 88.324324 103.14803 89.028819 102.009321 89.78968 
C 100.870613 90.55054 99.769947 91.36685 98.711299 92.23566 
z
" clip-path="url(#pe9dcd5277a)" style="fill: #ff8c8e"/>
   </g>
   <g id="patch_97">
    <path d="M 112.293878 100.3308 
C 113.087559 99.906569 113.901591 99.52156 114.733034 99.177166 
C 115.564476 98.832771 116.412325 98.529405 117.27352 98.268165 
L 117.27352 98.268165 
C 116.412325 98.529405 115.564476 98.832771 114.733034 99.177166 
C 113.901591 99.52156 113.087559 99.906569 112.293878 100.3308 
z
" clip-path="url(#pe9dcd5277a)" style="fill: #ff8c8e"/>
   </g>
   <g id="patch_98">
    <path d="M 119.916487 106.980859 
C 120.492503 106.806127 121.07675 106.659781 121.667118 106.542349 
C 122.257487 106.424917 122.853265 106.336542 123.452301 106.277542 
L 122.455521 96.157062 
C 121.525227 96.248688 120.599991 96.385934 119.683157 96.568304 
C 118.766323 96.750673 117.858996 96.977947 116.964452 97.249304 
z
" clip-path="url(#pe9dcd5277a)" style="fill: #ff8c8e"/>
   </g>
   <g id="patch_99">
    <path d="M 122.900553 100.675551 
C 123.682951 100.598491 124.46866 100.559892 125.254844 100.559892 
C 126.041027 100.559892 126.826737 100.598491 127.609134 100.675551 
L 127.609134 100.675551 
C 126.826737 100.598491 126.041027 100.559892 125.254844 100.559892 
C 124.46866 100.559892 123.682951 100.598491 122.900553 100.675551 
z
" clip-path="url(#pe9dcd5277a)" style="fill: #828282"/>
   </g>
   <g id="patch_100">
    <path d="M 125.692025 120.140292 
C 125.837312 120.154601 125.98181 120.176036 126.124995 120.204517 
C 126.26818 120.232998 126.409881 120.268492 126.549585 120.310871 
L 126.549585 120.310871 
C 126.409881 120.268492 126.26818 120.232998 126.124995 120.204517 
C 125.98181 120.176036 125.837312 120.154601 125.692025 120.140292 
z
" clip-path="url(#pe9dcd5277a)" style="fill: #828282"/>
   </g>
   <g id="patch_101">
    <path d="M 125.254844 124.579063 
C 125.254844 124.579063 125.254844 124.579063 125.254844 124.579063 
C 125.254844 124.579063 125.254844 124.579063 125.254844 124.579063 
L 125.254844 124.579063 
C 125.254844 124.579063 125.254844 124.579063 125.254844 124.579063 
C 125.254844 124.579063 125.254844 124.579063 125.254844 124.579063 
z
" clip-path="url(#pe9dcd5277a)" style="fill: #828282"/>
   </g>
   <g id="patch_102">
    <path d="M 125.254844 124.579063 
C 125.254844 124.579063 125.254844 124.579063 125.254844 124.579063 
C 125.254844 124.579063 125.254844 124.579063 125.254844 124.579063 
L 125.254844 124.579063 
C 125.254844 124.579063 125.254844 124.579063 125.254844 124.579063 
C 125.254844 124.579063 125.254844 124.579063 125.254844 124.579063 
z
" clip-path="url(#pe9dcd5277a)" style="fill: #828282"/>
   </g>
   <g id="patch_103">
    <path d="M 125.254844 124.579063 
C 125.254844 124.579063 125.254844 124.579063 125.254844 124.579063 
C 125.254844 124.579063 125.254844 124.579063 125.254844 124.579063 
L 125.254844 124.579063 
C 125.254844 124.579063 125.254844 124.579063 125.254844 124.579063 
C 125.254844 124.579063 125.254844 124.579063 125.254844 124.579063 
z
" clip-path="url(#pe9dcd5277a)" style="fill: #828282"/>
   </g>
   <g id="patch_104">
    <path d="M 125.254844 124.579063 
C 125.254844 124.579063 125.254844 124.579063 125.254844 124.579063 
C 125.254844 124.579063 125.254844 124.579063 125.254844 124.579063 
L 125.254844 124.579063 
C 125.254844 124.579063 125.254844 124.579063 125.254844 124.579063 
C 125.254844 124.579063 125.254844 124.579063 125.254844 124.579063 
z
" clip-path="url(#pe9dcd5277a)" style="fill: #828282"/>
   </g>
   <g id="patch_105">
    <path d="M 125.254844 124.579063 
C 125.254844 124.579063 125.254844 124.579063 125.254844 124.579063 
C 125.254844 124.579063 125.254844 124.579063 125.254844 124.579063 
L 125.254844 124.579063 
C 125.254844 124.579063 125.254844 124.579063 125.254844 124.579063 
C 125.254844 124.579063 125.254844 124.579063 125.254844 124.579063 
z
" clip-path="url(#pe9dcd5277a)" style="fill: #828282"/>
   </g>
   <g id="patch_106">
    <path d="M 135.709734 121.407606 
C 135.813541 121.74981 135.900483 122.096905 135.970248 122.447636 
C 136.040013 122.798367 136.092516 123.152312 136.127567 123.508193 
L 136.127567 123.508193 
C 136.092516 123.152312 136.040013 122.798367 135.970248 122.447636 
C 135.900483 122.096905 135.813541 121.74981 135.709734 121.407606 
z
" clip-path="url(#pe9dcd5277a)" style="fill: #828282"/>
   </g>
   <g id="patch_107">
    <path d="M 138.571156 123.26752 
C 138.614085 123.703383 138.635588 124.141091 138.635588 124.579063 
C 138.635588 125.017034 138.614085 125.454742 138.571156 125.890605 
L 138.571156 125.890605 
C 138.614085 125.454742 138.635588 125.017034 138.635588 124.579063 
C 138.635588 124.141091 138.614085 123.703383 138.571156 123.26752 
z
" clip-path="url(#pe9dcd5277a)" style="fill: #828282"/>
   </g>
   <g id="patch_108">
    <path d="M 136.127567 125.649932 
C 136.092516 126.005813 136.040013 126.359758 135.970248 126.710489 
C 135.900483 127.06122 135.813541 127.408315 135.709734 127.750519 
L 135.709734 127.750519 
C 135.813541 127.408315 135.900483 127.06122 135.970248 126.710489 
C 136.040013 126.359758 136.092516 126.005813 136.127567 125.649932 
z
" clip-path="url(#pe9dcd5277a)" style="fill: #828282"/>
   </g>
   <g id="patch_109">
    <path d="M 151.909689 132.664721 
C 151.645034 133.537174 151.337702 134.396108 150.988806 135.238419 
C 150.639909 136.08073 150.249868 136.905403 149.82009 137.70946 
L 149.82009 137.70946 
C 150.249868 136.905403 150.639909 136.08073 150.988806 135.238419 
C 151.337702 134.396108 151.645034 133.537174 151.909689 132.664721 
z
" clip-path="url(#pe9dcd5277a)" style="fill: #828282"/>
   </g>
   <g id="patch_110">
    <path d="M 138.301078 131.55242 
C 138.072829 131.979443 137.823753 132.395002 137.554748 132.797596 
C 137.285743 133.20019 136.997134 133.589334 136.689963 133.963623 
L 136.689963 133.963623 
C 136.997134 133.589334 137.285743 133.20019 137.554748 132.797596 
C 137.823753 132.395002 138.072829 131.979443 138.301078 131.55242 
z
" clip-path="url(#pe9dcd5277a)" style="fill: #828282"/>
   </g>
   <g id="patch_111">
    <path d="M 156.093068 149.887339 
C 155.264691 150.89672 154.387254 151.864822 153.463929 152.788148 
C 152.540603 153.711473 151.572502 154.588909 150.563121 155.417287 
L 150.563121 155.417287 
C 151.572502 154.588909 152.540603 153.711473 153.463929 152.788148 
C 154.387254 151.864822 155.264691 150.89672 156.093068 149.887339 
z
" clip-path="url(#pe9dcd5277a)" style="fill: #828282"/>
   </g>
   <g id="patch_112">
    <path d="M 143.150498 146.38498 
C 142.436758 146.970732 141.694689 147.521087 140.926972 148.03406 
C 140.159255 148.547032 139.366815 149.022002 138.552514 149.457255 
L 138.552514 149.457255 
C 139.366815 149.022002 140.159255 148.547032 140.926972 148.03406 
C 141.694689 147.521087 142.436758 146.970732 143.150498 146.38498 
z
" clip-path="url(#pe9dcd5277a)" style="fill: #828282"/>
   </g>
   <g id="patch_113">
    <path d="M 143.82403 159.319567 
C 142.686922 159.927364 141.520657 160.478966 140.32945 160.972381 
C 139.138242 161.465795 137.923527 161.900427 136.689692 162.274707 
L 136.689692 162.274707 
C 137.923527 161.900427 139.138242 161.465795 140.32945 160.972381 
C 141.520657 160.478966 142.686922 159.927364 143.82403 159.319567 
z
" clip-path="url(#pe9dcd5277a)" style="fill: #828282"/>
   </g>
   <g id="patch_114">
    <path d="M 140.073839 173.430744 
C 138.474851 173.915792 136.853012 174.322041 135.21418 174.648025 
C 133.575348 174.974009 131.921499 175.219334 130.258606 175.383115 
L 130.258606 175.383115 
C 131.921499 175.219334 133.575348 174.974009 135.21418 174.648025 
C 136.853012 174.322041 138.474851 173.915792 140.073839 173.430744 
z
" clip-path="url(#pe9dcd5277a)" style="fill: #828282"/>
   </g>
   <g id="patch_115">
    <path d="M 131.605261 189.055931 
C 129.494837 189.26379 127.375479 189.367907 125.254844 189.367907 
C 123.134208 189.367907 121.014851 189.26379 118.904426 189.055931 
L 118.904426 189.055931 
C 121.014851 189.26379 123.134208 189.367907 125.254844 189.367907 
C 127.375479 189.367907 129.494837 189.26379 131.605261 189.055931 
z
" clip-path="url(#pe9dcd5277a)" style="fill: #828282"/>
   </g>
   <g id="patch_116">
    <path d="M 119.99049 178.028939 
C 118.240996 177.856629 116.501016 177.598528 114.776836 177.255567 
C 113.052655 176.912606 111.346352 176.485199 109.66409 175.974891 
L 109.66409 175.974891 
C 111.346352 176.485199 113.052655 176.912606 114.776836 177.255567 
C 116.501016 177.598528 118.240996 177.856629 119.99049 178.028939 
z
" clip-path="url(#pe9dcd5277a)" style="fill: #828282"/>
   </g>
   <g id="patch_117">
    <path d="M 111.737344 169.140287 
C 110.278789 168.697839 108.842835 168.184047 107.434671 167.600766 
C 106.026506 167.017485 104.647828 166.365419 103.303615 165.646922 
L 103.303615 165.646922 
C 104.647828 166.365419 106.026506 167.017485 107.434671 167.600766 
C 108.842835 168.184047 110.278789 168.697839 111.737344 169.140287 
z
" clip-path="url(#pe9dcd5277a)" style="fill: #828282"/>
   </g>
   <g id="patch_118">
    <path d="M 105.308338 161.896351 
C 104.086887 161.243472 102.898227 160.531016 101.746652 159.761558 
C 100.595076 158.9921 99.481973 158.166566 98.411363 157.287939 
L 98.411363 157.287939 
C 99.481973 158.166566 100.595076 158.9921 101.746652 159.761558 
C 102.898227 160.531016 104.086887 161.243472 105.308338 161.896351 
z
" clip-path="url(#pe9dcd5277a)" style="fill: #828282"/>
   </g>
   <g id="patch_119">
    <path d="M 84.153236 174.661516 
C 82.513962 173.316199 80.941728 171.89121 79.442213 170.391694 
C 77.942697 168.892178 76.517707 167.319944 75.17239 165.68067 
L 75.17239 165.68067 
C 76.517707 167.319944 77.942697 168.892178 79.442213 170.391694 
C 80.941728 171.89121 82.513962 173.316199 84.153236 174.661516 
z
" clip-path="url(#pe9dcd5277a)" style="fill: #828282"/>
   </g>
   <g id="patch_120">
    <path d="M 83.452268 158.88555 
C 82.329366 157.517289 81.274318 156.094721 80.290935 154.622986 
C 79.307553 153.15125 78.397021 151.63212 77.562629 150.071082 
L 77.562629 150.071082 
C 78.397021 151.63212 79.307553 153.15125 80.290935 154.622986 
C 81.274318 156.094721 82.329366 157.517289 83.452268 158.88555 
z
" clip-path="url(#pe9dcd5277a)" style="fill: #828282"/>
   </g>
   <g id="patch_121">
    <path d="M 73.816512 152.073424 
C 72.91658 150.38977 72.099854 148.662947 71.369283 146.899193 
C 70.638712 145.135438 69.995176 143.336877 69.441001 141.510006 
L 69.441001 141.510006 
C 69.995176 143.336877 70.638712 145.135438 71.369283 146.899193 
C 72.099854 148.662947 72.91658 150.38977 73.816512 152.073424 
z
" clip-path="url(#pe9dcd5277a)" style="fill: #828282"/>
   </g>
   <g id="patch_122">
    <path d="M 60.948059 144.086312 
C 60.309558 141.981455 59.774784 139.846518 59.345669 137.689212 
C 58.916554 135.531907 58.593616 133.354833 58.37802 131.165855 
L 58.37802 131.165855 
C 58.593616 133.354833 58.916554 135.531907 59.345669 137.689212 
C 59.774784 139.846518 60.309558 141.981455 60.948059 144.086312 
z
" clip-path="url(#pe9dcd5277a)" style="fill: #828282"/>
   </g>
   <g id="patch_123">
    <path d="M 14.908755 135.447204 
C 14.553024 131.835411 14.374837 128.208331 14.374837 124.579062 
C 14.374837 120.949794 14.553024 117.322714 14.908755 113.710921 
L 14.908755 113.710921 
C 14.553024 117.322714 14.374837 120.949794 14.374837 124.579062 
C 14.374837 128.208331 14.553024 131.835411 14.908755 135.447204 
z
" clip-path="url(#pe9dcd5277a)" style="fill: #828282"/>
   </g>
   <g id="patch_124">
    <path d="M 38.955278 116.079297 
C 39.233488 113.254584 39.650216 110.445232 40.203957 107.661389 
C 40.757698 104.877547 41.447784 102.122569 42.271722 99.406408 
L 42.271722 99.406408 
C 41.447784 102.122569 40.757698 104.877547 40.203957 107.661389 
C 39.650216 110.445232 39.233488 113.254584 38.955278 116.079297 
z
" clip-path="url(#pe9dcd5277a)" style="fill: #828282"/>
   </g>
   <g id="patch_125">
    <path d="M 21.14247 92.996919 
C 22.1762 89.589166 23.376619 86.234219 24.739391 82.944199 
C 26.102162 79.654178 27.625643 76.433048 29.30433 73.292445 
L 29.30433 73.292445 
C 27.625643 76.433048 26.102162 79.654178 24.739391 82.944199 
C 23.376619 86.234219 22.1762 89.589166 21.14247 92.996919 
z
" clip-path="url(#pe9dcd5277a)" style="fill: #828282"/>
   </g>
   <g id="patch_126">
    <path d="M 53.581468 86.268845 
C 54.835418 83.922868 56.203794 81.639871 57.681653 79.4281 
C 59.159511 77.216328 60.745071 75.078449 62.432604 73.022183 
L 62.432604 73.022183 
C 60.745071 75.078449 59.159511 77.216328 57.681653 79.4281 
C 56.203794 81.639871 54.835418 83.922868 53.581468 86.268845 
z
" clip-path="url(#pe9dcd5277a)" style="fill: #828282"/>
   </g>
   <g id="patch_127">
    <path d="M 80.433206 87.794895 
C 81.637206 86.327816 82.912511 84.920734 84.254513 83.578732 
C 85.596515 82.23673 87.003597 80.961425 88.470676 79.757424 
L 88.470676 79.757424 
C 87.003597 80.961425 85.596515 82.23673 84.254513 83.578732 
C 82.912511 84.920734 81.637206 86.327816 80.433206 87.794895 
z
" clip-path="url(#pe9dcd5277a)" style="fill: #828282"/>
   </g>
   <g id="patch_128">
    <path d="M 98.711299 92.23566 
C 99.769947 91.36685 100.870613 90.55054 102.009321 89.78968 
C 103.14803 89.028819 104.323408 88.324324 105.531211 87.67874 
L 105.531211 87.67874 
C 104.323408 88.324324 103.14803 89.028819 102.009321 89.78968 
C 100.870613 90.55054 99.769947 91.36685 98.711299 92.23566 
z
" clip-path="url(#pe9dcd5277a)" style="fill: #828282"/>
   </g>
   <g id="patch_129">
    <path d="M 112.293878 100.3308 
C 113.087559 99.906569 113.901591 99.52156 114.733034 99.177166 
C 115.564476 98.832771 116.412325 98.529405 117.27352 98.268165 
L 117.27352 98.268165 
C 116.412325 98.529405 115.564476 98.832771 114.733034 99.177166 
C 113.901591 99.52156 113.087559 99.906569 112.293878 100.3308 
z
" clip-path="url(#pe9dcd5277a)" style="fill: #828282"/>
   </g>
   <g id="patch_130">
    <path d="M 116.964452 97.249304 
C 117.858996 96.977947 118.766323 96.750673 119.683157 96.568304 
C 120.599991 96.385934 121.525227 96.248688 122.455521 96.157062 
L 122.455521 96.157062 
C 121.525227 96.248688 120.599991 96.385934 119.683157 96.568304 
C 118.766323 96.750673 117.858996 96.977947 116.964452 97.249304 
z
" clip-path="url(#pe9dcd5277a)" style="fill: #828282"/>
   </g>
   <g id="patch_131">
    <path d="M 125.254844 124.579063 
C 125.254844 124.579063 125.254844 124.579063 125.254844 124.579063 
C 125.254844 124.579063 125.254844 124.579063 125.254844 124.579063 
L 127.609134 100.675551 
C 126.826737 100.598491 126.041027 100.559892 125.254844 100.559892 
C 124.46866 100.559892 123.682951 100.598491 122.900553 100.675551 
L 125.254844 124.579063 
z
" clip-path="url(#pe9dcd5277a)" style="fill: none; stroke: #292929; stroke-width: 0.5; stroke-linejoin: miter"/>
   </g>
   <g id="patch_132">
    <path d="M 125.254844 124.579063 
C 125.254844 124.579063 125.254844 124.579063 125.254844 124.579063 
C 125.254844 124.579063 125.254844 124.579063 125.254844 124.579063 
L 126.549585 120.310871 
C 126.409881 120.268492 126.26818 120.232998 126.124995 120.204517 
C 125.98181 120.176036 125.837312 120.154601 125.692025 120.140292 
L 125.254844 124.579063 
z
" clip-path="url(#pe9dcd5277a)" style="fill: none; stroke: #292929; stroke-width: 0.5; stroke-linejoin: miter"/>
   </g>
   <g id="patch_133">
    <path d="M 125.254844 124.579063 
C 125.254844 124.579063 125.254844 124.579063 125.254844 124.579063 
C 125.254844 124.579063 125.254844 124.579063 125.254844 124.579063 
L 125.254844 124.579063 
C 125.254844 124.579063 125.254844 124.579063 125.254844 124.579063 
C 125.254844 124.579063 125.254844 124.579063 125.254844 124.579063 
L 125.254844 124.579063 
z
" clip-path="url(#pe9dcd5277a)" style="fill: none; stroke: #292929; stroke-width: 0.5; stroke-linejoin: miter"/>
   </g>
   <g id="patch_134">
    <path d="M 125.254844 124.579063 
C 125.254844 124.579063 125.254844 124.579063 125.254844 124.579063 
C 125.254844 124.579063 125.254844 124.579063 125.254844 124.579063 
L 125.254844 124.579063 
C 125.254844 124.579063 125.254844 124.579063 125.254844 124.579063 
C 125.254844 124.579063 125.254844 124.579063 125.254844 124.579063 
L 125.254844 124.579063 
z
" clip-path="url(#pe9dcd5277a)" style="fill: none; stroke: #292929; stroke-width: 0.5; stroke-linejoin: miter"/>
   </g>
   <g id="patch_135">
    <path d="M 125.254844 124.579063 
C 125.254844 124.579063 125.254844 124.579063 125.254844 124.579063 
C 125.254844 124.579063 125.254844 124.579063 125.254844 124.579063 
L 125.254844 124.579063 
C 125.254844 124.579063 125.254844 124.579063 125.254844 124.579063 
C 125.254844 124.579063 125.254844 124.579063 125.254844 124.579063 
L 125.254844 124.579063 
z
" clip-path="url(#pe9dcd5277a)" style="fill: none; stroke: #292929; stroke-width: 0.5; stroke-linejoin: miter"/>
   </g>
   <g id="patch_136">
    <path d="M 125.254844 124.579063 
C 125.254844 124.579063 125.254844 124.579063 125.254844 124.579063 
C 125.254844 124.579063 125.254844 124.579063 125.254844 124.579063 
L 125.254844 124.579063 
C 125.254844 124.579063 125.254844 124.579063 125.254844 124.579063 
C 125.254844 124.579063 125.254844 124.579063 125.254844 124.579063 
L 125.254844 124.579063 
z
" clip-path="url(#pe9dcd5277a)" style="fill: none; stroke: #292929; stroke-width: 0.5; stroke-linejoin: miter"/>
   </g>
   <g id="patch_137">
    <path d="M 125.254844 124.579063 
C 125.254844 124.579063 125.254844 124.579063 125.254844 124.579063 
C 125.254844 124.579063 125.254844 124.579063 125.254844 124.579063 
L 125.254844 124.579063 
C 125.254844 124.579063 125.254844 124.579063 125.254844 124.579063 
C 125.254844 124.579063 125.254844 124.579063 125.254844 124.579063 
L 125.254844 124.579063 
z
" clip-path="url(#pe9dcd5277a)" style="fill: none; stroke: #292929; stroke-width: 0.5; stroke-linejoin: miter"/>
   </g>
   <g id="patch_138">
    <path d="M 125.254844 124.579063 
C 125.254844 124.579063 125.254844 124.579063 125.254844 124.579063 
C 125.254844 124.579063 125.254844 124.579063 125.254844 124.579063 
L 136.127567 123.508193 
C 136.092516 123.152312 136.040013 122.798367 135.970248 122.447636 
C 135.900483 122.096905 135.813541 121.74981 135.709734 121.407606 
L 125.254844 124.579063 
z
" clip-path="url(#pe9dcd5277a)" style="fill: none; stroke: #292929; stroke-width: 0.5; stroke-linejoin: miter"/>
   </g>
   <g id="patch_139">
    <path d="M 125.254844 124.579063 
C 125.254844 124.579063 125.254844 124.579063 125.254844 124.579063 
C 125.254844 124.579063 125.254844 124.579063 125.254844 124.579063 
L 138.571156 125.890605 
C 138.614085 125.454742 138.635588 125.017034 138.635588 124.579063 
C 138.635588 124.141091 138.614085 123.703383 138.571156 123.26752 
L 125.254844 124.579063 
z
" clip-path="url(#pe9dcd5277a)" style="fill: none; stroke: #292929; stroke-width: 0.5; stroke-linejoin: miter"/>
   </g>
   <g id="patch_140">
    <path d="M 125.254844 124.579063 
C 125.254844 124.579063 125.254844 124.579063 125.254844 124.579063 
C 125.254844 124.579063 125.254844 124.579063 125.254844 124.579063 
L 135.709734 127.750519 
C 135.813541 127.408315 135.900483 127.06122 135.970248 126.710489 
C 136.040013 126.359758 136.092516 126.005813 136.127567 125.649932 
L 125.254844 124.579063 
z
" clip-path="url(#pe9dcd5277a)" style="fill: none; stroke: #292929; stroke-width: 0.5; stroke-linejoin: miter"/>
   </g>
   <g id="patch_141">
    <path d="M 125.254844 124.579063 
C 125.254844 124.579063 125.254844 124.579063 125.254844 124.579063 
C 125.254844 124.579063 125.254844 124.579063 125.254844 124.579063 
L 149.82009 137.70946 
C 150.249868 136.905403 150.639909 136.08073 150.988806 135.238419 
C 151.337702 134.396108 151.645034 133.537174 151.909689 132.664721 
L 125.254844 124.579063 
z
" clip-path="url(#pe9dcd5277a)" style="fill: none; stroke: #292929; stroke-width: 0.5; stroke-linejoin: miter"/>
   </g>
   <g id="patch_142">
    <path d="M 125.254844 124.579063 
C 125.254844 124.579063 125.254844 124.579063 125.254844 124.579063 
C 125.254844 124.579063 125.254844 124.579063 125.254844 124.579063 
L 136.689963 133.963623 
C 136.997134 133.589334 137.285743 133.20019 137.554748 132.797596 
C 137.823753 132.395002 138.072829 131.979443 138.301078 131.55242 
L 125.254844 124.579063 
z
" clip-path="url(#pe9dcd5277a)" style="fill: none; stroke: #292929; stroke-width: 0.5; stroke-linejoin: miter"/>
   </g>
   <g id="patch_143">
    <path d="M 125.254844 124.579063 
C 125.254844 124.579063 125.254844 124.579063 125.254844 124.579063 
C 125.254844 124.579063 125.254844 124.579063 125.254844 124.579063 
L 150.563121 155.417287 
C 151.572502 154.588909 152.540603 153.711473 153.463929 152.788148 
C 154.387254 151.864822 155.264691 150.89672 156.093068 149.887339 
L 125.254844 124.579063 
z
" clip-path="url(#pe9dcd5277a)" style="fill: none; stroke: #292929; stroke-width: 0.5; stroke-linejoin: miter"/>
   </g>
   <g id="patch_144">
    <path d="M 125.254844 124.579063 
C 125.254844 124.579063 125.254844 124.579063 125.254844 124.579063 
C 125.254844 124.579063 125.254844 124.579063 125.254844 124.579063 
L 138.552514 149.457255 
C 139.366815 149.022002 140.159255 148.547032 140.926972 148.03406 
C 141.694689 147.521087 142.436758 146.970732 143.150498 146.38498 
L 125.254844 124.579063 
z
" clip-path="url(#pe9dcd5277a)" style="fill: none; stroke: #292929; stroke-width: 0.5; stroke-linejoin: miter"/>
   </g>
   <g id="patch_145">
    <path d="M 125.254844 124.579063 
C 125.254844 124.579063 125.254844 124.579063 125.254844 124.579063 
C 125.254844 124.579063 125.254844 124.579063 125.254844 124.579063 
L 136.689692 162.274707 
C 137.923527 161.900427 139.138242 161.465795 140.32945 160.972381 
C 141.520657 160.478966 142.686922 159.927364 143.82403 159.319567 
L 125.254844 124.579063 
z
" clip-path="url(#pe9dcd5277a)" style="fill: none; stroke: #292929; stroke-width: 0.5; stroke-linejoin: miter"/>
   </g>
   <g id="patch_146">
    <path d="M 125.254844 124.579063 
C 125.254844 124.579063 125.254844 124.579063 125.254844 124.579063 
C 125.254844 124.579063 125.254844 124.579063 125.254844 124.579063 
L 130.258606 175.383115 
C 131.921499 175.219334 133.575348 174.974009 135.21418 174.648025 
C 136.853012 174.322041 138.474851 173.915792 140.073839 173.430744 
L 125.254844 124.579063 
z
" clip-path="url(#pe9dcd5277a)" style="fill: none; stroke: #292929; stroke-width: 0.5; stroke-linejoin: miter"/>
   </g>
   <g id="patch_147">
    <path d="M 125.254844 124.579063 
C 125.254844 124.579063 125.254844 124.579063 125.254844 124.579063 
C 125.254844 124.579063 125.254844 124.579063 125.254844 124.579063 
L 118.904426 189.055931 
C 121.014851 189.26379 123.134208 189.367907 125.254844 189.367907 
C 127.375479 189.367907 129.494837 189.26379 131.605261 189.055931 
L 125.254844 124.579063 
z
" clip-path="url(#pe9dcd5277a)" style="fill: none; stroke: #292929; stroke-width: 0.5; stroke-linejoin: miter"/>
   </g>
   <g id="patch_148">
    <path d="M 125.254844 124.579063 
C 125.254844 124.579063 125.254844 124.579063 125.254844 124.579063 
C 125.254844 124.579063 125.254844 124.579063 125.254844 124.579063 
L 109.66409 175.974891 
C 111.346352 176.485199 113.052655 176.912606 114.776836 177.255567 
C 116.501016 177.598528 118.240996 177.856629 119.99049 178.028939 
L 125.254844 124.579063 
z
" clip-path="url(#pe9dcd5277a)" style="fill: none; stroke: #292929; stroke-width: 0.5; stroke-linejoin: miter"/>
   </g>
   <g id="patch_149">
    <path d="M 125.254844 124.579063 
C 125.254844 124.579063 125.254844 124.579063 125.254844 124.579063 
C 125.254844 124.579063 125.254844 124.579063 125.254844 124.579063 
L 103.303615 165.646922 
C 104.647828 166.365419 106.026506 167.017485 107.434671 167.600766 
C 108.842835 168.184047 110.278789 168.697839 111.737344 169.140287 
L 125.254844 124.579063 
z
" clip-path="url(#pe9dcd5277a)" style="fill: none; stroke: #292929; stroke-width: 0.5; stroke-linejoin: miter"/>
   </g>
   <g id="patch_150">
    <path d="M 125.254844 124.579063 
C 125.254844 124.579063 125.254844 124.579063 125.254844 124.579063 
C 125.254844 124.579063 125.254844 124.579063 125.254844 124.579063 
L 98.411363 157.287939 
C 99.481973 158.166566 100.595076 158.9921 101.746652 159.761558 
C 102.898227 160.531016 104.086887 161.243472 105.308338 161.896351 
L 125.254844 124.579063 
z
" clip-path="url(#pe9dcd5277a)" style="fill: none; stroke: #292929; stroke-width: 0.5; stroke-linejoin: miter"/>
   </g>
   <g id="patch_151">
    <path d="M 125.254844 124.579063 
C 125.254844 124.579063 125.254844 124.579063 125.254844 124.579063 
C 125.254844 124.579063 125.254844 124.579063 125.254844 124.579063 
L 75.17239 165.68067 
C 76.517707 167.319944 77.942697 168.892178 79.442213 170.391694 
C 80.941728 171.89121 82.513962 173.316199 84.153236 174.661516 
L 125.254844 124.579063 
z
" clip-path="url(#pe9dcd5277a)" style="fill: none; stroke: #292929; stroke-width: 0.5; stroke-linejoin: miter"/>
   </g>
   <g id="patch_152">
    <path d="M 125.254844 124.579063 
C 125.254844 124.579063 125.254844 124.579063 125.254844 124.579063 
C 125.254844 124.579063 125.254844 124.579063 125.254844 124.579063 
L 77.562629 150.071082 
C 78.397021 151.63212 79.307553 153.15125 80.290935 154.622986 
C 81.274318 156.094721 82.329366 157.517289 83.452268 158.88555 
L 125.254844 124.579063 
z
" clip-path="url(#pe9dcd5277a)" style="fill: none; stroke: #292929; stroke-width: 0.5; stroke-linejoin: miter"/>
   </g>
   <g id="patch_153">
    <path d="M 125.254844 124.579063 
C 125.254844 124.579063 125.254844 124.579063 125.254844 124.579063 
C 125.254844 124.579063 125.254844 124.579063 125.254844 124.579063 
L 69.441001 141.510006 
C 69.995176 143.336877 70.638712 145.135438 71.369283 146.899193 
C 72.099854 148.662947 72.91658 150.38977 73.816512 152.073424 
L 125.254844 124.579063 
z
" clip-path="url(#pe9dcd5277a)" style="fill: none; stroke: #292929; stroke-width: 0.5; stroke-linejoin: miter"/>
   </g>
   <g id="patch_154">
    <path d="M 125.254844 124.579063 
C 125.254844 124.579063 125.254844 124.579063 125.254844 124.579063 
C 125.254844 124.579063 125.254844 124.579063 125.254844 124.579063 
L 58.37802 131.165855 
C 58.593616 133.354833 58.916554 135.531907 59.345669 137.689212 
C 59.774784 139.846518 60.309558 141.981455 60.948059 144.086312 
L 125.254844 124.579063 
z
" clip-path="url(#pe9dcd5277a)" style="fill: none; stroke: #292929; stroke-width: 0.5; stroke-linejoin: miter"/>
   </g>
   <g id="patch_155">
    <path d="M 125.254844 124.579063 
C 125.254844 124.579063 125.254844 124.579063 125.254844 124.579063 
C 125.254844 124.579063 125.254844 124.579063 125.254844 124.579063 
L 14.908755 113.710921 
C 14.553024 117.322714 14.374837 120.949794 14.374837 124.579062 
C 14.374837 128.208331 14.553024 131.835411 14.908755 135.447204 
L 125.254844 124.579063 
z
" clip-path="url(#pe9dcd5277a)" style="fill: none; stroke: #292929; stroke-width: 0.5; stroke-linejoin: miter"/>
   </g>
   <g id="patch_156">
    <path d="M 125.254844 124.579063 
C 125.254844 124.579063 125.254844 124.579063 125.254844 124.579063 
C 125.254844 124.579063 125.254844 124.579063 125.254844 124.579063 
L 42.271722 99.406408 
C 41.447784 102.122569 40.757698 104.877547 40.203957 107.661389 
C 39.650216 110.445232 39.233488 113.254584 38.955278 116.079297 
L 125.254844 124.579063 
z
" clip-path="url(#pe9dcd5277a)" style="fill: none; stroke: #292929; stroke-width: 0.5; stroke-linejoin: miter"/>
   </g>
   <g id="patch_157">
    <path d="M 125.254844 124.579063 
C 125.254844 124.579063 125.254844 124.579063 125.254844 124.579063 
C 125.254844 124.579063 125.254844 124.579063 125.254844 124.579063 
L 29.30433 73.292445 
C 27.625643 76.433048 26.102162 79.654178 24.739391 82.944199 
C 23.376619 86.234219 22.1762 89.589166 21.14247 92.996919 
L 125.254844 124.579063 
z
" clip-path="url(#pe9dcd5277a)" style="fill: none; stroke: #292929; stroke-width: 0.5; stroke-linejoin: miter"/>
   </g>
   <g id="patch_158">
    <path d="M 125.254844 124.579063 
C 125.254844 124.579063 125.254844 124.579063 125.254844 124.579063 
C 125.254844 124.579063 125.254844 124.579063 125.254844 124.579063 
L 62.432604 73.022183 
C 60.745071 75.078449 59.159511 77.216328 57.681653 79.4281 
C 56.203794 81.639871 54.835418 83.922868 53.581468 86.268845 
L 125.254844 124.579063 
z
" clip-path="url(#pe9dcd5277a)" style="fill: none; stroke: #292929; stroke-width: 0.5; stroke-linejoin: miter"/>
   </g>
   <g id="patch_159">
    <path d="M 125.254844 124.579063 
C 125.254844 124.579063 125.254844 124.579063 125.254844 124.579063 
C 125.254844 124.579063 125.254844 124.579063 125.254844 124.579063 
L 88.470676 79.757424 
C 87.003597 80.961425 85.596515 82.23673 84.254513 83.578732 
C 82.912511 84.920734 81.637206 86.327816 80.433206 87.794895 
L 125.254844 124.579063 
z
" clip-path="url(#pe9dcd5277a)" style="fill: none; stroke: #292929; stroke-width: 0.5; stroke-linejoin: miter"/>
   </g>
   <g id="patch_160">
    <path d="M 125.254844 124.579063 
C 125.254844 124.579063 125.254844 124.579063 125.254844 124.579063 
C 125.254844 124.579063 125.254844 124.579063 125.254844 124.579063 
L 105.531211 87.67874 
C 104.323408 88.324324 103.14803 89.028819 102.009321 89.78968 
C 100.870613 90.55054 99.769947 91.36685 98.711299 92.23566 
L 125.254844 124.579063 
z
" clip-path="url(#pe9dcd5277a)" style="fill: none; stroke: #292929; stroke-width: 0.5; stroke-linejoin: miter"/>
   </g>
   <g id="patch_161">
    <path d="M 125.254844 124.579063 
C 125.254844 124.579063 125.254844 124.579063 125.254844 124.579063 
C 125.254844 124.579063 125.254844 124.579063 125.254844 124.579063 
L 117.27352 98.268165 
C 116.412325 98.529405 115.564476 98.832771 114.733034 99.177166 
C 113.901591 99.52156 113.087559 99.906569 112.293878 100.3308 
L 125.254844 124.579063 
z
" clip-path="url(#pe9dcd5277a)" style="fill: none; stroke: #292929; stroke-width: 0.5; stroke-linejoin: miter"/>
   </g>
   <g id="patch_162">
    <path d="M 125.254844 124.579063 
C 125.254844 124.579063 125.254844 124.579063 125.254844 124.579063 
C 125.254844 124.579063 125.254844 124.579063 125.254844 124.579063 
L 122.455521 96.157062 
C 121.525227 96.248688 120.599991 96.385934 119.683157 96.568304 
C 118.766323 96.750673 117.858996 96.977947 116.964452 97.249304 
L 125.254844 124.579063 
z
" clip-path="url(#pe9dcd5277a)" style="fill: none; stroke: #292929; stroke-width: 0.5; stroke-linejoin: miter"/>
   </g>
   <g id="PathCollection_1">
    <defs>
     <path id="m319d39f187" d="M 0.193618 7.414054 
L 0.193618 7.414054 
C 0.054922 7.414054 -0.078235 7.358899 -0.176308 7.260826 
C -0.274381 7.162753 -0.329536 7.029596 -0.329536 6.890901 
L -0.329536 5.365008 
L -1.528416 6.56393 
L -1.528416 6.56393 
C -1.577018 6.612704 -1.634775 6.651408 -1.698366 6.677814 
C -1.761958 6.704221 -1.830141 6.717815 -1.898997 6.717815 
C -1.967853 6.717815 -2.036037 6.704221 -2.099628 6.677814 
C -2.163219 6.651408 -2.220976 6.612704 -2.269578 6.56393 
L -2.269578 6.56393 
C -2.318353 6.515327 -2.357056 6.457571 -2.383463 6.393979 
C -2.409869 6.330388 -2.423463 6.262205 -2.423463 6.193348 
C -2.423463 6.124492 -2.409869 6.056309 -2.383463 5.992718 
C -2.357056 5.929126 -2.318353 5.87137 -2.269578 5.822767 
L -0.329536 3.884106 
L -0.329536 0.820937 
L -2.98067 2.351538 
L -3.691824 5.001416 
L -3.691824 5.001416 
C -3.727584 5.135411 -3.815199 5.249836 -3.93523 5.319305 
C -4.055261 5.388775 -4.198123 5.407741 -4.332122 5.371997 
L -4.332122 5.371997 
C -4.466126 5.336237 -4.580558 5.248616 -4.650029 5.128576 
C -4.719499 5.008535 -4.73846 4.865662 -4.702703 4.731657 
L -4.262647 3.092721 
L -5.585535 3.855668 
L -5.585535 3.855668 
C -5.645013 3.890144 -5.710708 3.912561 -5.778854 3.921634 
C -5.847001 3.930706 -5.916272 3.926258 -5.982698 3.908543 
C -6.049125 3.890828 -6.111412 3.860192 -6.165991 3.818391 
C -6.220571 3.77659 -6.266379 3.724437 -6.300791 3.664922 
L -6.300791 3.664922 
C -6.335212 3.605364 -6.35755 3.539597 -6.366524 3.471396 
C -6.375498 3.403194 -6.370933 3.333888 -6.35309 3.267452 
C -6.335248 3.201017 -6.304476 3.138749 -6.26254 3.08422 
C -6.220605 3.029692 -6.168323 2.983966 -6.108695 2.949666 
L -4.785807 2.186762 
L -6.424743 1.746706 
L -6.424743 1.746706 
C -6.558747 1.710946 -6.673179 1.623325 -6.74265 1.503284 
C -6.81212 1.383244 -6.831081 1.240371 -6.795324 1.106366 
L -6.795324 1.106366 
C -6.777471 1.039969 -6.746703 0.977739 -6.704784 0.923241 
C -6.662864 0.868744 -6.61061 0.823041 -6.551015 0.788752 
C -6.491421 0.754464 -6.425647 0.732257 -6.357465 0.723406 
C -6.289282 0.714554 -6.220019 0.71923 -6.153645 0.737166 
L -3.505232 1.44698 
L -0.852424 -0.08496 
L -3.503767 -1.615666 
L -6.153645 -0.905851 
L -6.153645 -0.905851 
C -6.22011 -0.887939 -6.289462 -0.883321 -6.357716 -0.892262 
C -6.42597 -0.901202 -6.491793 -0.923527 -6.551403 -0.957953 
C -6.611013 -0.992379 -6.663247 -1.038234 -6.705103 -1.092883 
C -6.746958 -1.147533 -6.777619 -1.209911 -6.795324 -1.276432 
L -6.795324 -1.276432 
C -6.831068 -1.410431 -6.812101 -1.553293 -6.742632 -1.673324 
C -6.673162 -1.793355 -6.558738 -1.88097 -6.424743 -1.91673 
L -4.785807 -2.355447 
L -6.108695 -3.119732 
L -6.108695 -3.119732 
C -6.228699 -3.188976 -6.316415 -3.303132 -6.352417 -3.436921 
C -6.388419 -3.57071 -6.369839 -3.713469 -6.300791 -3.833586 
L -6.300791 -3.833586 
C -6.266491 -3.893214 -6.220765 -3.945496 -6.166237 -3.987431 
C -6.111708 -4.029367 -6.04944 -4.060139 -5.983005 -4.077981 
C -5.91657 -4.095823 -5.847263 -4.100389 -5.779062 -4.091415 
C -5.71086 -4.082441 -5.645094 -4.060102 -5.585535 -4.025682 
L -4.262647 -3.261396 
L -4.702703 -4.900332 
L -4.702703 -4.900332 
C -4.73846 -5.034337 -4.719499 -5.17721 -4.650029 -5.29725 
C -4.580558 -5.417291 -4.466126 -5.504912 -4.332122 -5.540672 
L -4.332122 -5.540672 
C -4.19831 -5.576464 -4.055613 -5.557686 -3.935617 -5.488496 
C -3.81562 -5.419305 -3.727882 -5.305212 -3.691824 -5.171472 
L -2.982009 -2.521594 
L -0.329411 -0.990302 
L -0.329411 -4.051588 
L -2.269453 -5.991589 
L -2.269453 -5.991589 
C -2.318227 -6.040191 -2.356931 -6.097947 -2.383337 -6.161539 
C -2.409744 -6.22513 -2.423338 -6.293314 -2.423338 -6.36217 
C -2.423338 -6.431026 -2.409744 -6.499209 -2.383337 -6.5628 
C -2.356931 -6.626392 -2.318227 -6.684149 -2.269453 -6.732751 
L -2.269453 -6.732751 
C -2.22085 -6.781526 -2.163094 -6.820229 -2.099502 -6.846635 
C -2.035911 -6.873042 -1.967728 -6.886636 -1.898871 -6.886636 
C -1.830015 -6.886636 -1.761832 -6.873042 -1.698241 -6.846635 
C -1.634649 -6.820229 -1.576893 -6.781526 -1.52829 -6.732751 
L -0.329411 -5.533829 
L -0.329411 -7.059722 
L -0.329411 -7.059722 
C -0.329411 -7.198418 -0.274255 -7.331575 -0.176182 -7.429647 
C -0.07811 -7.52772 0.055047 -7.582875 0.193743 -7.582875 
L 0.193743 -7.582875 
C 0.332439 -7.582875 0.465596 -7.52772 0.563669 -7.429647 
C 0.661741 -7.331575 0.716897 -7.198418 0.716897 -7.059722 
L 0.716897 -5.533829 
L 1.915777 -6.732751 
L 1.915777 -6.732751 
C 1.964379 -6.781526 2.022136 -6.820229 2.085727 -6.846635 
C 2.149318 -6.873042 2.217502 -6.886636 2.286358 -6.886636 
C 2.355214 -6.886636 2.423397 -6.873042 2.486989 -6.846635 
C 2.55058 -6.820229 2.608337 -6.781526 2.656939 -6.732751 
L 2.656939 -6.732751 
C 2.705714 -6.684149 2.744417 -6.626392 2.770823 -6.5628 
C 2.79723 -6.499209 2.810824 -6.431026 2.810824 -6.36217 
C 2.810824 -6.293314 2.79723 -6.22513 2.770823 -6.161539 
C 2.744417 -6.097947 2.705714 -6.040191 2.656939 -5.991589 
L 0.716897 -4.051588 
L 0.716897 -0.991139 
L 3.369495 -2.522954 
L 4.07931 -5.171367 
L 4.07931 -5.171367 
C 4.115368 -5.305107 4.203106 -5.4192 4.323103 -5.488391 
C 4.4431 -5.557582 4.585797 -5.576359 4.719608 -5.540567 
L 4.719608 -5.540567 
C 4.853612 -5.504807 4.968045 -5.417186 5.037515 -5.297146 
C 5.106986 -5.177105 5.125946 -5.034232 5.090189 -4.900227 
L 4.650133 -3.262673 
L 5.973022 -4.025577 
L 5.973022 -4.025577 
C 6.03258 -4.059998 6.098346 -4.082336 6.166548 -4.09131 
C 6.234749 -4.100284 6.304056 -4.095719 6.370491 -4.077876 
C 6.436926 -4.060034 6.499194 -4.029262 6.553723 -3.987327 
C 6.608252 -3.945391 6.653978 -3.893109 6.688277 -3.833481 
L 6.688277 -3.833481 
C 6.757325 -3.713365 6.775905 -3.570605 6.739903 -3.436816 
C 6.703901 -3.303027 6.616186 -3.188871 6.496181 -3.119628 
L 5.173293 -2.355342 
L 6.812229 -1.916625 
L 6.812229 -1.916625 
C 6.946224 -1.880865 7.060649 -1.79325 7.130118 -1.67322 
C 7.199588 -1.553189 7.218554 -1.410326 7.18281 -1.276327 
L 7.18281 -1.276327 
C 7.165106 -1.209806 7.134445 -1.147429 7.092589 -1.092779 
C 7.050733 -1.038129 6.998499 -0.992274 6.938889 -0.957848 
C 6.879279 -0.923422 6.813456 -0.901098 6.745202 -0.892157 
C 6.676949 -0.883217 6.607597 -0.887835 6.541131 -0.905746 
L 3.891253 -1.615561 
L 1.239492 -0.084604 
L 3.892718 1.447085 
L 6.541131 0.73727 
L 6.541131 0.73727 
C 6.674948 0.701466 6.817656 0.720237 6.937662 0.789429 
C 7.057669 0.858621 7.145413 0.972721 7.181471 1.10647 
L 7.181471 1.10647 
C 7.217274 1.240293 7.198497 1.383006 7.129297 1.503014 
C 7.060096 1.623021 6.945986 1.710762 6.812229 1.74681 
L 5.173293 2.186866 
L 6.496181 2.949771 
L 6.496181 2.949771 
C 6.555697 2.984183 6.607849 3.029991 6.649651 3.08457 
C 6.691452 3.13915 6.722088 3.201437 6.739803 3.267863 
C 6.757517 3.33429 6.761966 3.403561 6.752893 3.471707 
C 6.743821 3.539854 6.721404 3.605549 6.686927 3.665026 
L 6.686927 3.665026 
C 6.617458 3.784813 6.503196 3.87225 6.369416 3.907994 
C 6.235636 3.943739 6.092989 3.924946 5.973032 3.855772 
L 4.650144 3.091487 
L 5.08886 4.731783 
L 5.08886 4.731783 
C 5.124664 4.865606 5.105887 5.008319 5.036686 5.128326 
C 4.967486 5.248334 4.853376 5.336074 4.719619 5.372123 
L 4.719619 5.372123 
C 4.585619 5.407867 4.442757 5.3889 4.322726 5.319431 
C 4.202695 5.249961 4.115081 5.135537 4.07932 5.001542 
L 3.368166 2.351664 
L 0.717033 0.821063 
L 0.717033 3.884232 
L 2.657075 5.822893 
L 2.657075 5.822893 
C 2.70585 5.871495 2.744553 5.929252 2.770959 5.992843 
C 2.797366 6.056435 2.81096 6.124618 2.81096 6.193474 
C 2.81096 6.26233 2.797366 6.330514 2.770959 6.394105 
C 2.744553 6.457696 2.70585 6.515453 2.657075 6.564055 
L 2.657075 6.564055 
C 2.608473 6.61283 2.550716 6.651533 2.487125 6.67794 
C 2.423533 6.704346 2.35535 6.71794 2.286494 6.71794 
C 2.217638 6.71794 2.149454 6.704346 2.085863 6.67794 
C 2.022272 6.651533 1.964515 6.61283 1.915913 6.564055 
L 0.717033 5.365133 
L 0.717033 6.891026 
L 0.717033 6.891026 
C 0.717033 7.029722 0.661877 7.162879 0.563805 7.260952 
C 0.465732 7.359024 0.332575 7.41418 0.193879 7.41418 
L 0.193618 7.414054 
z
"/>
    </defs>
    <g clip-path="url(#pe9dcd5277a)">
     <use xlink:href="#m319d39f187" x="53.788379" y="135.633469" style="fill: #9e2096; fill-opacity: 0.7"/>
    </g>
   </g>
   <g id="patch_163">
    <path d="M 125.254844 13.699063 
C 110.694216 13.699063 96.275171 16.567189 82.822905 22.1393 
C 69.370638 27.711411 57.146763 35.879144 46.850844 46.175063 
C 36.554925 56.470982 28.387192 68.694857 22.815081 82.147124 
C 17.24297 95.59939 14.374844 110.018434 14.374844 124.579063 
C 14.374844 139.139691 17.24297 153.558735 22.815081 167.011001 
C 28.387192 180.463268 36.554925 192.687143 46.850844 202.983062 
C 57.146763 213.278981 69.370638 221.446714 82.822905 227.018825 
C 96.275171 232.590936 110.694216 235.459063 125.254844 235.459063 
C 139.815472 235.459063 154.234516 232.590936 167.686783 227.018825 
C 181.139049 221.446714 193.362925 213.278981 203.658844 202.983062 
C 213.954763 192.687143 222.122495 180.463268 227.694606 167.011001 
C 233.266717 153.558735 236.134844 139.139691 236.134844 124.579063 
C 236.134844 110.018434 233.266717 95.59939 227.694606 82.147124 
C 222.122495 68.694857 213.954763 56.470982 203.658844 46.175063 
C 193.362925 35.879144 181.139049 27.711411 167.686783 22.1393 
C 154.234516 16.567189 139.815472 13.699063 125.254844 13.699063 
" style="fill: none; stroke: #000000; stroke-width: 0.8; stroke-linejoin: miter; stroke-linecap: square"/>
   </g>
  </g>
 </g>
 <defs>
  <clipPath id="pe9dcd5277a">
   <path d="M 236.134844 124.579063 
C 236.134844 110.018434 233.266717 95.59939 227.694606 82.147124 
C 222.122495 68.694857 213.954763 56.470982 203.658844 46.175063 
C 193.362925 35.879144 181.139049 27.711411 167.686783 22.1393 
C 154.234516 16.567189 139.815472 13.699063 125.254844 13.699063 
C 110.694216 13.699063 96.275171 16.567189 82.822905 22.1393 
C 69.370638 27.711411 57.146763 35.879144 46.850844 46.175063 
C 36.554925 56.470982 28.387192 68.694857 22.815081 82.147124 
C 17.24297 95.59939 14.374844 110.018434 14.374844 124.579062 
C 14.374844 139.139691 17.24297 153.558735 22.815081 167.011001 
C 28.387192 180.463268 36.554925 192.687143 46.850844 202.983062 
C 57.146763 213.278981 69.370638 221.446714 82.822905 227.018825 
C 96.275171 232.590936 110.694216 235.459063 125.254844 235.459063 
C 139.815472 235.459063 154.234516 232.590936 167.686783 227.018825 
C 181.139049 221.446714 193.362925 213.278981 203.658844 202.983062 
C 213.954763 192.687143 222.122495 180.463268 227.694606 167.011001 
C 233.266717 153.558735 236.134844 139.139691 236.134844 124.579063 
M 125.254844 124.579063 
C 125.254844 124.579063 125.254844 124.579063 125.254844 124.579063 
C 125.254844 124.579063 125.254844 124.579063 125.254844 124.579063 
C 125.254844 124.579063 125.254844 124.579063 125.254844 124.579063 
C 125.254844 124.579063 125.254844 124.579063 125.254844 124.579063 
C 125.254844 124.579063 125.254844 124.579063 125.254844 124.579063 
C 125.254844 124.579063 125.254844 124.579063 125.254844 124.579063 
C 125.254844 124.579063 125.254844 124.579063 125.254844 124.579063 
C 125.254844 124.579063 125.254844 124.579063 125.254844 124.579063 
C 125.254844 124.579063 125.254844 124.579063 125.254844 124.579063 
C 125.254844 124.579063 125.254844 124.579063 125.254844 124.579063 
C 125.254844 124.579063 125.254844 124.579063 125.254844 124.579063 
C 125.254844 124.579063 125.254844 124.579063 125.254844 124.579063 
C 125.254844 124.579063 125.254844 124.579063 125.254844 124.579063 
C 125.254844 124.579063 125.254844 124.579063 125.254844 124.579063 
C 125.254844 124.579063 125.254844 124.579063 125.254844 124.579063 
C 125.254844 124.579063 125.254844 124.579063 125.254844 124.579063 
z
"/>
  </clipPath>
 </defs>
</svg>
