<?xml version="1.0" encoding="utf-8" standalone="no"?>
<!DOCTYPE svg PUBLIC "-//W3C//DTD SVG 1.1//EN"
  "http://www.w3.org/Graphics/SVG/1.1/DTD/svg11.dtd">
<svg xmlns:xlink="http://www.w3.org/1999/xlink" width="248.410469pt" height="249.158125pt" viewBox="0 0 248.410469 249.158125" xmlns="http://www.w3.org/2000/svg" version="1.1">
 <title>Ski Rose for Queyras - Arvieux</title>
 <metadata>
  <rdf:RDF xmlns:dc="http://purl.org/dc/elements/1.1/" xmlns:cc="http://creativecommons.org/ns#" xmlns:rdf="http://www.w3.org/1999/02/22-rdf-syntax-ns#">
   <cc:Work>
    <dc:type rdf:resource="http://purl.org/dc/dcmitype/StillImage"/>
    <dc:title>Ski Rose for Queyras - Arvieux</dc:title>
    <dc:date>2025-02-24T20:34:46.393560</dc:date>
    <dc:description>A 32-bin stacked histogram of downhill ski run orientations colored by difficulty.</dc:description>
    <dc:format>image/svg+xml</dc:format>
    <dc:source>https://openskimap.org/?obj=99713653576c6e645d010ccfb24c164d181019fa</dc:source>
    <dc:creator>
     <cc:Agent>
      <dc:title>https://github.com/dhimmel/openskistats</dc:title>
     </cc:Agent>
    </dc:creator>
    <dc:rights>
     <cc:Agent>
      <dc:title>https://creativecommons.org/licenses/by/4.0/</dc:title>
     </cc:Agent>
    </dc:rights>
   </cc:Work>
  </rdf:RDF>
 </metadata>
 <defs>
  <style type="text/css">*{stroke-linejoin: round; stroke-linecap: butt}</style>
 </defs>
 <g id="figure_1">
  <g id="patch_1">
   <path d="M 0 249.158125 
L 248.410469 249.158125 
L 248.410469 0 
L 0 0 
z
" style="fill: #ffffff"/>
  </g>
  <g id="axes_1">
   <g id="patch_2">
    <path d="M 236.134844 124.579063 
C 236.134844 110.018434 233.266717 95.59939 227.694606 82.147124 
C 222.122495 68.694857 213.954763 56.470982 203.658844 46.175063 
C 193.362925 35.879144 181.139049 27.711411 167.686783 22.1393 
C 154.234516 16.567189 139.815472 13.699062 125.254844 13.699062 
C 110.694216 13.699062 96.275171 16.567189 82.822905 22.1393 
C 69.370638 27.711411 57.146763 35.879144 46.850844 46.175063 
C 36.554925 56.470982 28.387192 68.694857 22.815081 82.147124 
C 17.24297 95.59939 14.374844 110.018434 14.374844 124.579062 
C 14.374844 139.139691 17.24297 153.558735 22.815081 167.011001 
C 28.387192 180.463268 36.554925 192.687143 46.850844 202.983062 
C 57.146763 213.278981 69.370638 221.446714 82.822905 227.018825 
C 96.275171 232.590936 110.694216 235.459063 125.254844 235.459063 
C 139.815472 235.459063 154.234516 232.590936 167.686783 227.018825 
C 181.139049 221.446714 193.362925 213.278981 203.658844 202.983062 
C 213.954763 192.687143 222.122495 180.463268 227.694606 167.011001 
C 233.266717 153.558735 236.134844 139.139691 236.134844 124.579063 
M 125.254844 124.579063 
C 125.254844 124.579063 125.254844 124.579063 125.254844 124.579063 
C 125.254844 124.579063 125.254844 124.579063 125.254844 124.579063 
C 125.254844 124.579063 125.254844 124.579063 125.254844 124.579063 
C 125.254844 124.579063 125.254844 124.579063 125.254844 124.579063 
C 125.254844 124.579063 125.254844 124.579063 125.254844 124.579063 
C 125.254844 124.579063 125.254844 124.579063 125.254844 124.579063 
C 125.254844 124.579063 125.254844 124.579063 125.254844 124.579063 
C 125.254844 124.579063 125.254844 124.579063 125.254844 124.579063 
C 125.254844 124.579063 125.254844 124.579063 125.254844 124.579063 
C 125.254844 124.579063 125.254844 124.579063 125.254844 124.579063 
C 125.254844 124.579063 125.254844 124.579063 125.254844 124.579063 
C 125.254844 124.579063 125.254844 124.579063 125.254844 124.579063 
C 125.254844 124.579063 125.254844 124.579063 125.254844 124.579063 
C 125.254844 124.579063 125.254844 124.579063 125.254844 124.579063 
C 125.254844 124.579063 125.254844 124.579063 125.254844 124.579063 
C 125.254844 124.579063 125.254844 124.579063 125.254844 124.579063 
z
" style="fill: #ffffff"/>
   </g>
   <g id="PolyCollection_1">
    <defs>
     <path id="mc3fd3c1314" d="M 235.365632 -137.124602 
L 234.987885 -137.081563 
L 234.215526 -135.070783 
L 233.166709 -133.07191 
L 232.04938 -131.110896 
L 231.089777 -129.199915 
L 229.872883 -127.318582 
L 228.614504 -125.481069 
L 227.318864 -123.688363 
L 226.205802 -121.935569 
L 224.844912 -120.230866 
L 223.671341 -118.559652 
L 222.253882 -116.945073 
L 220.811251 -115.378027 
L 219.560395 -113.834302 
L 218.072383 -112.359402 
L 216.777915 -110.900848 
L 215.251333 -109.518815 
L 213.919365 -108.146065 
L 212.570227 -106.814547 
L 210.997389 -105.570398 
L 209.619601 -104.324876 
L 208.228836 -103.120529 
L 206.826437 -101.957258 
L 205.413743 -100.834915 
L 203.992084 -99.753306 
L 202.562787 -98.712187 
L 201.127167 -97.711264 
L 199.686533 -96.750194 
L 198.242183 -95.828585 
L 196.795406 -94.945991 
L 195.530859 -94.022181 
L 194.080087 -93.213592 
L 192.630558 -92.442495 
L 191.358017 -91.621236 
L 189.911367 -90.921007 
L 188.637687 -90.164987 
L 187.363348 -89.439762 
L 185.927334 -88.840234 
L 184.657543 -88.177042 
L 183.389725 -87.543058 
L 182.124695 -86.937729 
L 180.863248 -86.360465 
L 179.606155 -85.810649 
L 178.354169 -85.287629 
L 177.108016 -84.790724 
L 175.868399 -84.319223 
L 174.635996 -83.872382 
L 173.411454 -83.449432 
L 172.317352 -82.941672 
L 171.106382 -82.563869 
L 170.019489 -82.099 
L 168.824172 -81.763603 
L 167.639433 -81.448191 
L 166.568535 -81.043515 
L 165.501415 -80.657638 
L 164.342762 -80.398208 
L 163.287809 -80.048182 
L 162.237628 -79.715357 
L 161.108138 -79.505294 
L 160.071902 -79.204589 
L 159.041216 -78.919401 
L 158.016296 -78.649201 
L 156.997332 -78.393456 
L 155.918304 -78.251627 
L 154.915169 -78.021677 
L 153.918382 -77.80442 
L 152.928032 -77.599312 
L 151.944184 -77.405814 
L 150.966879 -77.223385 
L 149.996132 -77.05149 
L 149.075063 -76.803094 
L 148.114325 -76.653164 
L 147.160118 -76.512325 
L 146.212364 -76.380067 
L 145.270959 -76.255885 
L 144.335779 -76.139287 
L 143.433158 -75.958953 
L 142.507409 -75.859322 
L 141.587468 -75.765994 
L 140.673122 -75.67853 
L 139.78149 -75.537928 
L 138.875495 -75.464579 
L 137.974453 -75.395985 
L 137.089775 -75.283026 
L 136.195989 -75.226748 
L 135.306363 -75.174268 
L 134.427648 -75.087039 
L 133.543941 -75.045371 
L 132.663479 -75.006728 
L 131.789466 -74.943676 
L 130.913386 -74.914671 
L 130.039537 -74.88812 
L 129.168756 -74.848094 
L 128.297604 -74.830371 
L 127.427972 -74.806242 
L 126.558432 -74.797032 
L 125.689348 -74.789812 
L 124.820337 -74.789528 
L 123.951326 -74.799728 
L 123.081951 -74.811627 
L 122.212522 -74.837543 
L 121.341706 -74.857936 
L 120.469418 -74.880514 
L 119.597924 -74.928914 
L 118.72244 -74.960532 
L 117.848984 -75.025295 
L 116.969282 -75.066496 
L 116.086423 -75.110689 
L 115.208468 -75.199549 
L 114.319847 -75.254479 
L 113.427148 -75.313163 
L 112.543424 -75.42765 
L 111.643616 -75.49856 
L 110.738933 -75.574168 
L 109.848435 -75.716177 
L 108.935537 -75.805795 
L 108.017114 -75.901215 
L 107.09295 -76.002872 
L 106.191686 -76.184417 
L 105.25821 -76.302917 
L 104.31857 -76.42893 
L 103.372639 -76.562947 
L 102.42031 -76.705468 
L 101.461503 -76.857004 
L 100.496161 -77.018076 
L 99.573342 -77.279621 
L 98.598103 -77.463433 
L 97.616363 -77.658233 
L 96.62816 -77.86456 
L 95.633556 -78.082954 
L 94.566832 -78.214535 
L 93.556245 -78.457316 
L 92.539563 -78.71393 
L 91.51695 -78.984916 
L 90.488595 -79.270805 
L 89.45471 -79.572126 
L 88.327989 -79.783206 
L 87.280197 -80.116464 
L 86.227646 -80.46684 
L 85.07181 -80.726977 
L 84.007113 -81.113024 
L 82.938646 -81.517787 
L 81.756748 -81.833603 
L 80.564275 -82.169296 
L 79.479823 -82.633984 
L 78.271697 -83.011885 
L 77.180031 -83.519294 
L 75.958325 -83.942148 
L 74.728748 -84.388792 
L 73.49195 -84.859997 
L 72.248604 -85.356508 
L 70.999411 -85.879039 
L 69.745098 -86.428271 
L 68.486414 -87.004858 
L 67.22413 -87.609421 
L 65.95904 -88.242547 
L 64.691957 -88.904796 
L 63.423711 -89.596691 
L 61.987348 -90.227615 
L 60.71631 -90.982428 
L 59.272666 -91.681562 
L 58.002718 -92.501444 
L 56.556143 -93.271261 
L 55.291295 -94.158046 
L 53.846266 -95.000661 
L 52.402362 -95.881707 
L 50.960858 -96.801679 
L 49.716413 -97.829501 
L 48.285948 -98.82563 
L 46.861654 -99.861785 
L 45.444848 -100.938265 
L 44.036852 -102.05532 
L 42.435021 -103.1604 
L 41.046896 -104.362523 
L 39.671717 -105.60574 
L 38.310832 -106.890103 
L 36.755261 -108.176634 
L 35.425804 -109.546837 
L 34.114849 -110.958099 
L 32.610071 -112.382147 
L 31.339434 -113.878753 
L 29.876355 -115.395159 
L 28.652201 -116.97627 
L 27.237727 -118.584079 
L 25.850192 -120.238962 
L 24.707958 -121.94615 
L 23.380621 -123.69002 
L 22.087084 -125.479394 
L 21.04469 -127.307901 
L 19.827323 -129.182127 
L 18.655552 -131.098954 
L 17.743645 -133.040377 
L 16.68506 -135.033144 
L 15.707468 -137.060409 
L 15.092331 -137.130495 
L 15.092331 -137.130495 
L 15.029539 -135.192552 
L 14.763568 -133.274914 
L 14.718666 -131.339745 
L 14.517297 -129.413968 
L 14.537556 -127.478297 
L 14.400517 -125.546474 
L 14.537805 -123.61285 
L 14.465215 -121.677934 
L 14.613561 -119.74836 
L 14.603768 -117.811353 
L 14.870792 -115.891649 
L 14.924006 -113.955411 
L 15.195308 -112.039362 
L 15.370653 -110.112534 
L 15.639995 -108.197014 
L 15.999288 -106.295953 
L 16.270079 -104.37993 
L 16.68969 -102.491232 
L 17.02495 -100.585073 
L 17.504861 -98.71058 
L 17.944109 -96.826619 
L 18.480925 -94.968034 
L 18.943617 -93.088242 
L 19.541091 -91.247644 
L 20.167793 -89.417427 
L 20.752162 -87.572722 
L 21.437737 -85.763437 
L 22.153287 -83.966279 
L 22.829142 -82.152948 
L 23.607036 -80.381338 
L 24.416709 -78.624477 
L 25.195249 -76.853084 
L 26.073307 -75.128972 
L 26.930205 -73.394495 
L 27.832228 -71.682898 
L 28.781942 -69.997321 
L 29.72329 -68.306677 
L 30.725185 -66.651213 
L 31.783105 -65.030997 
L 32.794044 -63.380594 
L 34.268273 -62.045725 
L 36.095439 -60.982277 
L 37.949043 -59.976169 
L 39.813228 -59.017405 
L 41.688616 -58.107484 
L 43.562953 -57.237465 
L 45.440514 -56.411185 
L 47.311186 -55.62034 
L 49.18079 -54.870035 
L 50.984856 -54.099475 
L 52.838296 -53.415519 
L 54.63139 -52.712113 
L 56.418521 -52.040713 
L 58.198922 -51.400365 
L 59.971899 -50.790117 
L 61.736824 -50.209017 
L 63.493126 -49.656108 
L 65.240289 -49.130427 
L 66.977851 -48.631007 
L 68.705398 -48.156872 
L 70.38729 -47.65759 
L 72.095572 -47.231843 
L 73.757619 -46.775242 
L 75.415448 -46.346882 
L 77.093737 -45.987279 
L 78.73045 -45.596314 
L 80.3622 -45.231583 
L 81.982323 -44.880994 
L 83.597137 -44.555352 
L 85.200326 -44.242128 
L 86.797988 -43.952588 
L 88.384181 -43.673778 
L 89.945733 -43.373667 
L 91.519276 -43.134198 
L 93.081826 -42.903098 
L 94.623913 -42.652918 
L 96.174131 -42.457662 
L 97.714139 -42.268572 
L 99.237709 -42.063252 
L 100.75614 -41.872824 
L 102.278585 -41.729349 
L 103.786181 -41.565904 
L 105.294437 -41.437984 
L 106.792256 -41.29971 
L 108.28595 -41.174286 
L 109.775757 -41.061385 
L 111.265671 -40.98306 
L 112.747815 -40.892578 
L 114.226931 -40.813745 
L 115.703311 -40.746333 
L 117.177259 -40.690137 
L 118.649088 -40.644978 
L 120.119119 -40.610705 
L 121.587752 -40.588852 
L 123.055097 -40.574117 
L 124.521708 -40.569976 
L 125.987968 -40.571331 
L 127.454515 -40.577019 
L 128.921802 -40.591914 
L 130.390184 -40.616987 
L 131.859983 -40.652814 
L 133.332995 -40.684253 
L 134.807081 -40.740152 
L 136.283609 -40.807273 
L 137.762883 -40.885819 
L 139.245195 -40.976021 
L 140.730826 -41.078135 
L 142.223713 -41.174407 
L 143.717473 -41.299524 
L 145.215368 -41.437496 
L 146.725681 -41.557494 
L 148.233501 -41.720703 
L 149.746113 -41.897924 
L 151.272522 -42.06153 
L 152.796217 -42.266575 
L 154.338945 -42.448094 
L 155.874531 -42.682989 
L 157.428986 -42.900245 
L 158.994623 -43.124029 
L 160.54942 -43.407093 
L 162.127164 -43.67014 
L 163.716789 -43.941917 
L 165.311424 -44.237991 
L 166.918258 -44.544387 
L 168.52986 -44.876397 
L 170.15383 -45.220373 
L 171.782192 -45.591299 
L 173.42294 -45.975873 
L 175.067572 -46.388741 
L 176.755768 -46.769654 
L 178.422105 -47.220217 
L 180.130733 -47.645904 
L 181.808772 -48.150815 
L 183.536598 -48.624802 
L 185.274441 -49.124088 
L 186.980009 -49.70045 
L 188.734783 -50.253603 
L 190.498185 -50.83488 
L 192.269647 -51.445238 
L 194.097633 -52.033899 
L 195.885047 -52.705245 
L 197.678423 -53.40861 
L 199.536854 -54.088067 
L 201.341222 -54.858742 
L 203.206376 -55.613372 
L 205.082076 -56.400165 
L 206.894258 -57.280723 
L 208.766599 -58.150813 
L 210.642068 -59.059141 
L 212.574228 -59.966117 
L 214.423323 -60.975804 
L 216.254732 -62.036572 
L 217.70776 -63.385812 
L 218.756581 -65.011887 
L 219.749797 -66.672481 
L 220.780702 -68.310032 
L 221.730724 -69.995636 
L 222.671527 -71.686119 
L 223.571645 -73.398575 
L 224.469303 -75.112558 
L 225.319511 -76.850664 
L 226.112513 -78.615575 
L 226.85727 -80.40107 
L 227.673774 -82.155753 
L 228.41951 -83.94142 
L 229.056008 -85.769397 
L 229.757273 -87.572811 
L 230.332615 -89.420532 
L 230.93175 -91.259262 
L 231.484546 -93.112391 
L 232.09401 -94.949939 
L 232.562477 -96.827422 
L 233.048171 -98.700174 
L 233.421078 -100.599186 
L 233.878824 -102.479264 
L 234.218779 -104.383791 
L 234.601822 -106.280654 
L 234.849302 -108.200061 
L 235.158374 -110.109988 
L 235.281891 -112.043064 
L 235.553456 -113.958514 
L 235.786654 -115.88002 
L 235.792981 -117.81826 
L 235.923153 -119.74718 
L 236.046499 -121.677881 
L 236.107297 -123.611668 
L 235.996191 -125.545488 
L 236.014137 -127.479397 
L 235.972435 -129.413097 
L 235.923108 -131.347824 
L 235.652477 -133.267545 
L 235.539302 -135.198248 
L 235.365632 -137.124602 
z
" style="stroke: #ffee9c"/>
    </defs>
    <g clip-path="url(#pfa23a4d85b)">
     <use xlink:href="#mc3fd3c1314" x="0" y="249.158125" style="fill: #ffee9c; stroke: #ffee9c"/>
    </g>
   </g>
   <g id="matplotlib.axis_1">
    <g id="xtick_1">
     <g id="line2d_1">
      <path d="M 125.254844 124.579062 
L 125.254844 13.699062 
" clip-path="url(#pfa23a4d85b)" style="fill: none; stroke: #b0b0b0; stroke-width: 0.8; stroke-linecap: square"/>
     </g>
     <g id="text_1">
      <!-- N -->
      <g transform="translate(121.070469 7.958438) scale(0.1 -0.1)">
       <defs>
        <path id="DejaVuSans-Bold-4e" d="M 588 4666 
L 1931 4666 
L 3628 1466 
L 3628 4666 
L 4769 4666 
L 4769 0 
L 3425 0 
L 1728 3200 
L 1728 0 
L 588 0 
L 588 4666 
z
" transform="scale(0.015625)"/>
       </defs>
       <use xlink:href="#DejaVuSans-Bold-4e"/>
      </g>
     </g>
    </g>
    <g id="xtick_2">
     <g id="line2d_2">
      <path d="M 125.254844 124.579062 
L 203.658844 46.175063 
" clip-path="url(#pfa23a4d85b)" style="fill: none; stroke: #b0b0b0; stroke-width: 0.8; stroke-linecap: square"/>
     </g>
    </g>
    <g id="xtick_3">
     <g id="line2d_3">
      <path d="M 125.254844 124.579062 
L 236.134844 124.579062 
" clip-path="url(#pfa23a4d85b)" style="fill: none; stroke: #b0b0b0; stroke-width: 0.8; stroke-linecap: square"/>
     </g>
     <g id="text_2">
      <!-- E -->
      <g transform="translate(241.219219 127.338437) scale(0.1 -0.1)">
       <defs>
        <path id="DejaVuSans-Bold-45" d="M 588 4666 
L 3834 4666 
L 3834 3756 
L 1791 3756 
L 1791 2888 
L 3713 2888 
L 3713 1978 
L 1791 1978 
L 1791 909 
L 3903 909 
L 3903 0 
L 588 0 
L 588 4666 
z
" transform="scale(0.015625)"/>
       </defs>
       <use xlink:href="#DejaVuSans-Bold-45"/>
      </g>
     </g>
    </g>
    <g id="xtick_4">
     <g id="line2d_4">
      <path d="M 125.254844 124.579062 
L 203.658844 202.983062 
" clip-path="url(#pfa23a4d85b)" style="fill: none; stroke: #b0b0b0; stroke-width: 0.8; stroke-linecap: square"/>
     </g>
    </g>
    <g id="xtick_5">
     <g id="line2d_5">
      <path d="M 125.254844 124.579062 
L 125.254844 235.459063 
" clip-path="url(#pfa23a4d85b)" style="fill: none; stroke: #b0b0b0; stroke-width: 0.8; stroke-linecap: square"/>
     </g>
     <g id="text_3">
      <!-- S -->
      <g transform="translate(121.654062 246.718437) scale(0.1 -0.1)">
       <defs>
        <path id="DejaVuSans-Bold-53" d="M 3834 4519 
L 3834 3531 
Q 3450 3703 3084 3790 
Q 2719 3878 2394 3878 
Q 1963 3878 1756 3759 
Q 1550 3641 1550 3391 
Q 1550 3203 1689 3098 
Q 1828 2994 2194 2919 
L 2706 2816 
Q 3484 2659 3812 2340 
Q 4141 2022 4141 1434 
Q 4141 663 3683 286 
Q 3225 -91 2284 -91 
Q 1841 -91 1394 -6 
Q 947 78 500 244 
L 500 1259 
Q 947 1022 1364 901 
Q 1781 781 2169 781 
Q 2563 781 2772 912 
Q 2981 1044 2981 1288 
Q 2981 1506 2839 1625 
Q 2697 1744 2272 1838 
L 1806 1941 
Q 1106 2091 782 2419 
Q 459 2747 459 3303 
Q 459 4000 909 4375 
Q 1359 4750 2203 4750 
Q 2588 4750 2994 4692 
Q 3400 4634 3834 4519 
z
" transform="scale(0.015625)"/>
       </defs>
       <use xlink:href="#DejaVuSans-Bold-53"/>
      </g>
     </g>
    </g>
    <g id="xtick_6">
     <g id="line2d_6">
      <path d="M 125.254844 124.579062 
L 46.850844 202.983062 
" clip-path="url(#pfa23a4d85b)" style="fill: none; stroke: #b0b0b0; stroke-width: 0.8; stroke-linecap: square"/>
     </g>
    </g>
    <g id="xtick_7">
     <g id="line2d_7">
      <path d="M 125.254844 124.579062 
L 14.374844 124.579063 
" clip-path="url(#pfa23a4d85b)" style="fill: none; stroke: #b0b0b0; stroke-width: 0.8; stroke-linecap: square"/>
     </g>
     <g id="text_4">
      <!-- W -->
      <g transform="translate(0.36 127.338438) scale(0.1 -0.1)">
       <defs>
        <path id="DejaVuSans-Bold-57" d="M 191 4666 
L 1344 4666 
L 2150 1275 
L 2950 4666 
L 4109 4666 
L 4909 1275 
L 5716 4666 
L 6859 4666 
L 5759 0 
L 4372 0 
L 3525 3547 
L 2688 0 
L 1300 0 
L 191 4666 
z
" transform="scale(0.015625)"/>
       </defs>
       <use xlink:href="#DejaVuSans-Bold-57"/>
      </g>
     </g>
    </g>
    <g id="xtick_8">
     <g id="line2d_8">
      <path d="M 125.254844 124.579062 
L 46.850844 46.175063 
" clip-path="url(#pfa23a4d85b)" style="fill: none; stroke: #b0b0b0; stroke-width: 0.8; stroke-linecap: square"/>
     </g>
    </g>
   </g>
   <g id="matplotlib.axis_2"/>
   <g id="patch_3">
    <path d="M 125.254844 124.579062 
C 125.254844 124.579062 125.254844 124.579062 125.254844 124.579062 
C 125.254844 124.579062 125.254844 124.579062 125.254844 124.579062 
L 125.254844 124.579062 
C 125.254844 124.579062 125.254844 124.579062 125.254844 124.579062 
C 125.254844 124.579062 125.254844 124.579062 125.254844 124.579062 
z
" clip-path="url(#pfa23a4d85b)" style="fill: #d9d9d9"/>
   </g>
   <g id="patch_4">
    <path d="M 125.254844 124.579062 
C 125.254844 124.579062 125.254844 124.579062 125.254844 124.579062 
C 125.254844 124.579062 125.254844 124.579062 125.254844 124.579062 
L 125.254844 124.579062 
C 125.254844 124.579062 125.254844 124.579062 125.254844 124.579062 
C 125.254844 124.579062 125.254844 124.579062 125.254844 124.579062 
z
" clip-path="url(#pfa23a4d85b)" style="fill: #d9d9d9"/>
   </g>
   <g id="patch_5">
    <path d="M 125.254844 124.579062 
C 125.254844 124.579062 125.254844 124.579062 125.254844 124.579062 
C 125.254844 124.579062 125.254844 124.579062 125.254844 124.579062 
L 125.254844 124.579062 
C 125.254844 124.579062 125.254844 124.579062 125.254844 124.579062 
C 125.254844 124.579062 125.254844 124.579062 125.254844 124.579062 
z
" clip-path="url(#pfa23a4d85b)" style="fill: #d9d9d9"/>
   </g>
   <g id="patch_6">
    <path d="M 125.254844 124.579062 
C 125.254844 124.579062 125.254844 124.579062 125.254844 124.579062 
C 125.254844 124.579062 125.254844 124.579062 125.254844 124.579062 
L 125.254844 124.579062 
C 125.254844 124.579062 125.254844 124.579062 125.254844 124.579062 
C 125.254844 124.579062 125.254844 124.579062 125.254844 124.579062 
z
" clip-path="url(#pfa23a4d85b)" style="fill: #d9d9d9"/>
   </g>
   <g id="patch_7">
    <path d="M 125.254844 124.579062 
C 125.254844 124.579062 125.254844 124.579062 125.254844 124.579062 
C 125.254844 124.579062 125.254844 124.579062 125.254844 124.579062 
L 125.254844 124.579062 
C 125.254844 124.579062 125.254844 124.579062 125.254844 124.579062 
C 125.254844 124.579062 125.254844 124.579062 125.254844 124.579062 
z
" clip-path="url(#pfa23a4d85b)" style="fill: #d9d9d9"/>
   </g>
   <g id="patch_8">
    <path d="M 125.254844 124.579062 
C 125.254844 124.579062 125.254844 124.579062 125.254844 124.579062 
C 125.254844 124.579062 125.254844 124.579062 125.254844 124.579062 
L 125.254844 124.579062 
C 125.254844 124.579062 125.254844 124.579062 125.254844 124.579062 
C 125.254844 124.579062 125.254844 124.579062 125.254844 124.579062 
z
" clip-path="url(#pfa23a4d85b)" style="fill: #d9d9d9"/>
   </g>
   <g id="patch_9">
    <path d="M 125.254844 124.579062 
C 125.254844 124.579062 125.254844 124.579062 125.254844 124.579062 
C 125.254844 124.579062 125.254844 124.579062 125.254844 124.579062 
L 125.254844 124.579062 
C 125.254844 124.579062 125.254844 124.579062 125.254844 124.579062 
C 125.254844 124.579062 125.254844 124.579062 125.254844 124.579062 
z
" clip-path="url(#pfa23a4d85b)" style="fill: #d9d9d9"/>
   </g>
   <g id="patch_10">
    <path d="M 125.254844 124.579062 
C 125.254844 124.579062 125.254844 124.579062 125.254844 124.579062 
C 125.254844 124.579062 125.254844 124.579062 125.254844 124.579062 
L 125.254844 124.579062 
C 125.254844 124.579062 125.254844 124.579062 125.254844 124.579062 
C 125.254844 124.579062 125.254844 124.579062 125.254844 124.579062 
z
" clip-path="url(#pfa23a4d85b)" style="fill: #d9d9d9"/>
   </g>
   <g id="patch_11">
    <path d="M 125.254844 124.579062 
C 125.254844 124.579062 125.254844 124.579062 125.254844 124.579062 
C 125.254844 124.579062 125.254844 124.579062 125.254844 124.579062 
L 125.254844 124.579062 
C 125.254844 124.579062 125.254844 124.579062 125.254844 124.579062 
C 125.254844 124.579062 125.254844 124.579062 125.254844 124.579062 
z
" clip-path="url(#pfa23a4d85b)" style="fill: #d9d9d9"/>
   </g>
   <g id="patch_12">
    <path d="M 125.254844 124.579062 
C 125.254844 124.579062 125.254844 124.579062 125.254844 124.579062 
C 125.254844 124.579062 125.254844 124.579062 125.254844 124.579062 
L 125.254844 124.579062 
C 125.254844 124.579062 125.254844 124.579062 125.254844 124.579062 
C 125.254844 124.579062 125.254844 124.579062 125.254844 124.579062 
z
" clip-path="url(#pfa23a4d85b)" style="fill: #d9d9d9"/>
   </g>
   <g id="patch_13">
    <path d="M 125.254844 124.579062 
C 125.254844 124.579062 125.254844 124.579062 125.254844 124.579062 
C 125.254844 124.579062 125.254844 124.579062 125.254844 124.579062 
L 125.254844 124.579062 
C 125.254844 124.579062 125.254844 124.579062 125.254844 124.579062 
C 125.254844 124.579062 125.254844 124.579062 125.254844 124.579062 
z
" clip-path="url(#pfa23a4d85b)" style="fill: #d9d9d9"/>
   </g>
   <g id="patch_14">
    <path d="M 125.254844 124.579062 
C 125.254844 124.579062 125.254844 124.579062 125.254844 124.579062 
C 125.254844 124.579062 125.254844 124.579062 125.254844 124.579062 
L 125.254844 124.579062 
C 125.254844 124.579062 125.254844 124.579062 125.254844 124.579062 
C 125.254844 124.579062 125.254844 124.579062 125.254844 124.579062 
z
" clip-path="url(#pfa23a4d85b)" style="fill: #d9d9d9"/>
   </g>
   <g id="patch_15">
    <path d="M 125.254844 124.579062 
C 125.254844 124.579062 125.254844 124.579062 125.254844 124.579062 
C 125.254844 124.579062 125.254844 124.579062 125.254844 124.579062 
L 125.254844 124.579062 
C 125.254844 124.579062 125.254844 124.579062 125.254844 124.579062 
C 125.254844 124.579062 125.254844 124.579062 125.254844 124.579062 
z
" clip-path="url(#pfa23a4d85b)" style="fill: #d9d9d9"/>
   </g>
   <g id="patch_16">
    <path d="M 125.254844 124.579062 
C 125.254844 124.579062 125.254844 124.579062 125.254844 124.579062 
C 125.254844 124.579062 125.254844 124.579062 125.254844 124.579062 
L 125.254844 124.579062 
C 125.254844 124.579062 125.254844 124.579062 125.254844 124.579062 
C 125.254844 124.579062 125.254844 124.579062 125.254844 124.579062 
z
" clip-path="url(#pfa23a4d85b)" style="fill: #d9d9d9"/>
   </g>
   <g id="patch_17">
    <path d="M 125.254844 124.579062 
C 125.254844 124.579062 125.254844 124.579062 125.254844 124.579062 
C 125.254844 124.579062 125.254844 124.579062 125.254844 124.579062 
L 125.254844 124.579062 
C 125.254844 124.579062 125.254844 124.579062 125.254844 124.579062 
C 125.254844 124.579062 125.254844 124.579062 125.254844 124.579062 
z
" clip-path="url(#pfa23a4d85b)" style="fill: #d9d9d9"/>
   </g>
   <g id="patch_18">
    <path d="M 125.254844 124.579062 
C 125.254844 124.579062 125.254844 124.579062 125.254844 124.579062 
C 125.254844 124.579062 125.254844 124.579062 125.254844 124.579062 
L 125.254844 124.579062 
C 125.254844 124.579062 125.254844 124.579062 125.254844 124.579062 
C 125.254844 124.579062 125.254844 124.579062 125.254844 124.579062 
z
" clip-path="url(#pfa23a4d85b)" style="fill: #d9d9d9"/>
   </g>
   <g id="patch_19">
    <path d="M 125.254844 124.579062 
C 125.254844 124.579062 125.254844 124.579062 125.254844 124.579062 
C 125.254844 124.579062 125.254844 124.579062 125.254844 124.579062 
L 125.254844 124.579062 
C 125.254844 124.579062 125.254844 124.579062 125.254844 124.579062 
C 125.254844 124.579062 125.254844 124.579062 125.254844 124.579062 
z
" clip-path="url(#pfa23a4d85b)" style="fill: #d9d9d9"/>
   </g>
   <g id="patch_20">
    <path d="M 125.254844 124.579062 
C 125.254844 124.579062 125.254844 124.579062 125.254844 124.579062 
C 125.254844 124.579062 125.254844 124.579062 125.254844 124.579062 
L 125.254844 124.579062 
C 125.254844 124.579062 125.254844 124.579062 125.254844 124.579062 
C 125.254844 124.579062 125.254844 124.579062 125.254844 124.579062 
z
" clip-path="url(#pfa23a4d85b)" style="fill: #d9d9d9"/>
   </g>
   <g id="patch_21">
    <path d="M 125.254844 124.579062 
C 125.254844 124.579062 125.254844 124.579062 125.254844 124.579062 
C 125.254844 124.579062 125.254844 124.579062 125.254844 124.579062 
L 125.254844 124.579062 
C 125.254844 124.579062 125.254844 124.579062 125.254844 124.579062 
C 125.254844 124.579062 125.254844 124.579062 125.254844 124.579062 
z
" clip-path="url(#pfa23a4d85b)" style="fill: #d9d9d9"/>
   </g>
   <g id="patch_22">
    <path d="M 125.254844 124.579062 
C 125.254844 124.579062 125.254844 124.579062 125.254844 124.579062 
C 125.254844 124.579062 125.254844 124.579062 125.254844 124.579062 
L 125.254844 124.579062 
C 125.254844 124.579062 125.254844 124.579062 125.254844 124.579062 
C 125.254844 124.579062 125.254844 124.579062 125.254844 124.579062 
z
" clip-path="url(#pfa23a4d85b)" style="fill: #d9d9d9"/>
   </g>
   <g id="patch_23">
    <path d="M 125.254844 124.579062 
C 125.254844 124.579062 125.254844 124.579062 125.254844 124.579062 
C 125.254844 124.579062 125.254844 124.579062 125.254844 124.579062 
L 125.254844 124.579062 
C 125.254844 124.579062 125.254844 124.579062 125.254844 124.579062 
C 125.254844 124.579062 125.254844 124.579062 125.254844 124.579062 
z
" clip-path="url(#pfa23a4d85b)" style="fill: #d9d9d9"/>
   </g>
   <g id="patch_24">
    <path d="M 125.254844 124.579062 
C 125.254844 124.579062 125.254844 124.579062 125.254844 124.579062 
C 125.254844 124.579062 125.254844 124.579062 125.254844 124.579062 
L 125.254844 124.579062 
C 125.254844 124.579062 125.254844 124.579062 125.254844 124.579062 
C 125.254844 124.579062 125.254844 124.579062 125.254844 124.579062 
z
" clip-path="url(#pfa23a4d85b)" style="fill: #d9d9d9"/>
   </g>
   <g id="patch_25">
    <path d="M 125.254844 124.579062 
C 125.254844 124.579062 125.254844 124.579062 125.254844 124.579062 
C 125.254844 124.579062 125.254844 124.579062 125.254844 124.579062 
L 125.254844 124.579062 
C 125.254844 124.579062 125.254844 124.579062 125.254844 124.579062 
C 125.254844 124.579062 125.254844 124.579062 125.254844 124.579062 
z
" clip-path="url(#pfa23a4d85b)" style="fill: #d9d9d9"/>
   </g>
   <g id="patch_26">
    <path d="M 125.254844 124.579062 
C 125.254844 124.579062 125.254844 124.579062 125.254844 124.579062 
C 125.254844 124.579062 125.254844 124.579062 125.254844 124.579062 
L 125.254844 124.579062 
C 125.254844 124.579062 125.254844 124.579062 125.254844 124.579062 
C 125.254844 124.579062 125.254844 124.579062 125.254844 124.579062 
z
" clip-path="url(#pfa23a4d85b)" style="fill: #d9d9d9"/>
   </g>
   <g id="patch_27">
    <path d="M 125.254844 124.579062 
C 125.254844 124.579062 125.254844 124.579062 125.254844 124.579062 
C 125.254844 124.579062 125.254844 124.579062 125.254844 124.579062 
L 125.254844 124.579062 
C 125.254844 124.579062 125.254844 124.579062 125.254844 124.579062 
C 125.254844 124.579062 125.254844 124.579062 125.254844 124.579062 
z
" clip-path="url(#pfa23a4d85b)" style="fill: #d9d9d9"/>
   </g>
   <g id="patch_28">
    <path d="M 125.254844 124.579062 
C 125.254844 124.579062 125.254844 124.579062 125.254844 124.579062 
C 125.254844 124.579062 125.254844 124.579062 125.254844 124.579062 
L 125.254844 124.579062 
C 125.254844 124.579062 125.254844 124.579062 125.254844 124.579062 
C 125.254844 124.579062 125.254844 124.579062 125.254844 124.579062 
z
" clip-path="url(#pfa23a4d85b)" style="fill: #d9d9d9"/>
   </g>
   <g id="patch_29">
    <path d="M 125.254844 124.579062 
C 125.254844 124.579062 125.254844 124.579062 125.254844 124.579062 
C 125.254844 124.579062 125.254844 124.579062 125.254844 124.579062 
L 125.254844 124.579062 
C 125.254844 124.579062 125.254844 124.579062 125.254844 124.579062 
C 125.254844 124.579062 125.254844 124.579062 125.254844 124.579062 
z
" clip-path="url(#pfa23a4d85b)" style="fill: #d9d9d9"/>
   </g>
   <g id="patch_30">
    <path d="M 125.254844 124.579062 
C 125.254844 124.579062 125.254844 124.579062 125.254844 124.579062 
C 125.254844 124.579062 125.254844 124.579062 125.254844 124.579062 
L 125.254844 124.579062 
C 125.254844 124.579062 125.254844 124.579062 125.254844 124.579062 
C 125.254844 124.579062 125.254844 124.579062 125.254844 124.579062 
z
" clip-path="url(#pfa23a4d85b)" style="fill: #d9d9d9"/>
   </g>
   <g id="patch_31">
    <path d="M 125.254844 124.579062 
C 125.254844 124.579062 125.254844 124.579062 125.254844 124.579062 
C 125.254844 124.579062 125.254844 124.579062 125.254844 124.579062 
L 125.254844 124.579062 
C 125.254844 124.579062 125.254844 124.579062 125.254844 124.579062 
C 125.254844 124.579062 125.254844 124.579062 125.254844 124.579062 
z
" clip-path="url(#pfa23a4d85b)" style="fill: #d9d9d9"/>
   </g>
   <g id="patch_32">
    <path d="M 125.254844 124.579062 
C 125.254844 124.579062 125.254844 124.579062 125.254844 124.579062 
C 125.254844 124.579062 125.254844 124.579062 125.254844 124.579062 
L 125.254844 124.579062 
C 125.254844 124.579062 125.254844 124.579062 125.254844 124.579062 
C 125.254844 124.579062 125.254844 124.579062 125.254844 124.579062 
z
" clip-path="url(#pfa23a4d85b)" style="fill: #d9d9d9"/>
   </g>
   <g id="patch_33">
    <path d="M 125.254844 124.579062 
C 125.254844 124.579062 125.254844 124.579062 125.254844 124.579062 
C 125.254844 124.579062 125.254844 124.579062 125.254844 124.579062 
L 125.254844 124.579062 
C 125.254844 124.579062 125.254844 124.579062 125.254844 124.579062 
C 125.254844 124.579062 125.254844 124.579062 125.254844 124.579062 
z
" clip-path="url(#pfa23a4d85b)" style="fill: #d9d9d9"/>
   </g>
   <g id="patch_34">
    <path d="M 125.254844 124.579062 
C 125.254844 124.579062 125.254844 124.579062 125.254844 124.579062 
C 125.254844 124.579062 125.254844 124.579062 125.254844 124.579062 
L 125.254844 124.579062 
C 125.254844 124.579062 125.254844 124.579062 125.254844 124.579062 
C 125.254844 124.579062 125.254844 124.579062 125.254844 124.579062 
z
" clip-path="url(#pfa23a4d85b)" style="fill: #d9d9d9"/>
   </g>
   <g id="patch_35">
    <path d="M 125.254844 124.579062 
C 125.254844 124.579062 125.254844 124.579062 125.254844 124.579062 
C 125.254844 124.579062 125.254844 124.579062 125.254844 124.579062 
L 127.80171 98.720301 
C 126.955314 98.636938 126.105335 98.595181 125.254844 98.595181 
C 124.404353 98.595181 123.554374 98.636938 122.707978 98.720301 
z
" clip-path="url(#pfa23a4d85b)" style="fill: #a1a1d8"/>
   </g>
   <g id="patch_36">
    <path d="M 125.254844 124.579062 
C 125.254844 124.579062 125.254844 124.579062 125.254844 124.579062 
C 125.254844 124.579062 125.254844 124.579062 125.254844 124.579062 
L 131.190633 105.011387 
C 130.550154 104.8171 129.900522 104.654376 129.244083 104.523802 
C 128.587644 104.393228 127.925191 104.294963 127.259115 104.22936 
z
" clip-path="url(#pfa23a4d85b)" style="fill: #a1a1d8"/>
   </g>
   <g id="patch_37">
    <path d="M 125.254844 124.579062 
C 125.254844 124.579062 125.254844 124.579062 125.254844 124.579062 
C 125.254844 124.579062 125.254844 124.579062 125.254844 124.579062 
L 127.481515 120.413253 
C 127.345162 120.340371 127.205313 120.274227 127.062472 120.215061 
C 126.919632 120.155894 126.773973 120.103777 126.626021 120.058896 
z
" clip-path="url(#pfa23a4d85b)" style="fill: #a1a1d8"/>
   </g>
   <g id="patch_38">
    <path d="M 125.254844 124.579062 
C 125.254844 124.579062 125.254844 124.579062 125.254844 124.579062 
C 125.254844 124.579062 125.254844 124.579062 125.254844 124.579062 
L 130.4451 118.254717 
C 130.238094 118.084832 130.022873 117.925213 129.800213 117.776437 
C 129.577553 117.62766 129.347722 117.489905 129.111552 117.363669 
z
" clip-path="url(#pfa23a4d85b)" style="fill: #a1a1d8"/>
   </g>
   <g id="patch_39">
    <path d="M 125.254844 124.579062 
C 125.254844 124.579062 125.254844 124.579062 125.254844 124.579062 
C 125.254844 124.579062 125.254844 124.579062 125.254844 124.579062 
L 138.720403 113.528163 
C 138.358691 113.087416 137.975557 112.664692 137.572385 112.261521 
C 137.169214 111.858349 136.746491 111.475215 136.305743 111.113503 
z
" clip-path="url(#pfa23a4d85b)" style="fill: #a1a1d8"/>
   </g>
   <g id="patch_40">
    <path d="M 125.254844 124.579062 
C 125.254844 124.579062 125.254844 124.579062 125.254844 124.579062 
C 125.254844 124.579062 125.254844 124.579062 125.254844 124.579062 
L 125.254844 124.579062 
C 125.254844 124.579062 125.254844 124.579062 125.254844 124.579062 
C 125.254844 124.579062 125.254844 124.579062 125.254844 124.579062 
z
" clip-path="url(#pfa23a4d85b)" style="fill: #a1a1d8"/>
   </g>
   <g id="patch_41">
    <path d="M 125.254844 124.579062 
C 125.254844 124.579062 125.254844 124.579062 125.254844 124.579062 
C 125.254844 124.579062 125.254844 124.579062 125.254844 124.579062 
L 125.254844 124.579062 
C 125.254844 124.579062 125.254844 124.579062 125.254844 124.579062 
C 125.254844 124.579062 125.254844 124.579062 125.254844 124.579062 
z
" clip-path="url(#pfa23a4d85b)" style="fill: #a1a1d8"/>
   </g>
   <g id="patch_42">
    <path d="M 125.254844 124.579062 
C 125.254844 124.579062 125.254844 124.579062 125.254844 124.579062 
C 125.254844 124.579062 125.254844 124.579062 125.254844 124.579062 
L 125.254844 124.579062 
C 125.254844 124.579062 125.254844 124.579062 125.254844 124.579062 
C 125.254844 124.579062 125.254844 124.579062 125.254844 124.579062 
z
" clip-path="url(#pfa23a4d85b)" style="fill: #a1a1d8"/>
   </g>
   <g id="patch_43">
    <path d="M 125.254844 124.579062 
C 125.254844 124.579062 125.254844 124.579062 125.254844 124.579062 
C 125.254844 124.579062 125.254844 124.579062 125.254844 124.579062 
L 125.254844 124.579062 
C 125.254844 124.579062 125.254844 124.579062 125.254844 124.579062 
C 125.254844 124.579062 125.254844 124.579062 125.254844 124.579062 
z
" clip-path="url(#pfa23a4d85b)" style="fill: #a1a1d8"/>
   </g>
   <g id="patch_44">
    <path d="M 125.254844 124.579062 
C 125.254844 124.579062 125.254844 124.579062 125.254844 124.579062 
C 125.254844 124.579062 125.254844 124.579062 125.254844 124.579062 
L 125.254844 124.579062 
C 125.254844 124.579062 125.254844 124.579062 125.254844 124.579062 
C 125.254844 124.579062 125.254844 124.579062 125.254844 124.579062 
z
" clip-path="url(#pfa23a4d85b)" style="fill: #a1a1d8"/>
   </g>
   <g id="patch_45">
    <path d="M 125.254844 124.579062 
C 125.254844 124.579062 125.254844 124.579062 125.254844 124.579062 
C 125.254844 124.579062 125.254844 124.579062 125.254844 124.579062 
L 125.254844 124.579062 
C 125.254844 124.579062 125.254844 124.579062 125.254844 124.579062 
C 125.254844 124.579062 125.254844 124.579062 125.254844 124.579062 
z
" clip-path="url(#pfa23a4d85b)" style="fill: #a1a1d8"/>
   </g>
   <g id="patch_46">
    <path d="M 125.254844 124.579062 
C 125.254844 124.579062 125.254844 124.579062 125.254844 124.579062 
C 125.254844 124.579062 125.254844 124.579062 125.254844 124.579062 
L 125.254844 124.579062 
C 125.254844 124.579062 125.254844 124.579062 125.254844 124.579062 
C 125.254844 124.579062 125.254844 124.579062 125.254844 124.579062 
z
" clip-path="url(#pfa23a4d85b)" style="fill: #a1a1d8"/>
   </g>
   <g id="patch_47">
    <path d="M 125.254844 124.579062 
C 125.254844 124.579062 125.254844 124.579062 125.254844 124.579062 
C 125.254844 124.579062 125.254844 124.579062 125.254844 124.579062 
L 125.254844 124.579062 
C 125.254844 124.579062 125.254844 124.579062 125.254844 124.579062 
C 125.254844 124.579062 125.254844 124.579062 125.254844 124.579062 
z
" clip-path="url(#pfa23a4d85b)" style="fill: #a1a1d8"/>
   </g>
   <g id="patch_48">
    <path d="M 125.254844 124.579062 
C 125.254844 124.579062 125.254844 124.579062 125.254844 124.579062 
C 125.254844 124.579062 125.254844 124.579062 125.254844 124.579062 
L 125.254844 124.579062 
C 125.254844 124.579062 125.254844 124.579062 125.254844 124.579062 
C 125.254844 124.579062 125.254844 124.579062 125.254844 124.579062 
z
" clip-path="url(#pfa23a4d85b)" style="fill: #a1a1d8"/>
   </g>
   <g id="patch_49">
    <path d="M 125.254844 124.579062 
C 125.254844 124.579062 125.254844 124.579062 125.254844 124.579062 
C 125.254844 124.579062 125.254844 124.579062 125.254844 124.579062 
L 128.348361 134.777023 
C 128.682156 134.675768 129.010778 134.558185 129.33304 134.424699 
C 129.655303 134.291214 129.970817 134.141987 130.278444 133.977557 
z
" clip-path="url(#pfa23a4d85b)" style="fill: #a1a1d8"/>
   </g>
   <g id="patch_50">
    <path d="M 125.254844 124.579062 
C 125.254844 124.579062 125.254844 124.579062 125.254844 124.579062 
C 125.254844 124.579062 125.254844 124.579062 125.254844 124.579062 
L 129.122127 163.844248 
C 130.407335 163.717666 131.685554 163.52806 132.952166 163.276115 
C 134.218778 163.02417 135.472258 162.71019 136.708076 162.335309 
z
" clip-path="url(#pfa23a4d85b)" style="fill: #a1a1d8"/>
   </g>
   <g id="patch_51">
    <path d="M 125.254844 124.579062 
C 125.254844 124.579062 125.254844 124.579062 125.254844 124.579062 
C 125.254844 124.579062 125.254844 124.579062 125.254844 124.579062 
L 120.397419 173.897326 
C 122.011679 174.056317 123.632773 174.135956 125.254844 174.135956 
C 126.876915 174.135956 128.498008 174.056317 130.112269 173.897326 
z
" clip-path="url(#pfa23a4d85b)" style="fill: #a1a1d8"/>
   </g>
   <g id="patch_52">
    <path d="M 125.254844 124.579062 
C 125.254844 124.579062 125.254844 124.579062 125.254844 124.579062 
C 125.254844 124.579062 125.254844 124.579062 125.254844 124.579062 
L 113.951982 161.839606 
C 115.171575 162.209565 116.408597 162.519423 117.65858 162.76806 
C 118.908563 163.016697 120.17 163.203814 121.438334 163.328734 
z
" clip-path="url(#pfa23a4d85b)" style="fill: #a1a1d8"/>
   </g>
   <g id="patch_53">
    <path d="M 125.254844 124.579062 
C 125.254844 124.579062 125.254844 124.579062 125.254844 124.579062 
C 125.254844 124.579062 125.254844 124.579062 125.254844 124.579062 
L 110.903605 151.428341 
C 111.782422 151.898079 112.683772 152.324385 113.6044 152.705722 
C 114.525028 153.087058 115.463823 153.422965 116.417395 153.712227 
z
" clip-path="url(#pfa23a4d85b)" style="fill: #a1a1d8"/>
   </g>
   <g id="patch_54">
    <path d="M 125.254844 124.579062 
C 125.254844 124.579062 125.254844 124.579062 125.254844 124.579062 
C 125.254844 124.579062 125.254844 124.579062 125.254844 124.579062 
L 108.918587 144.484849 
C 109.570133 145.019559 110.247539 145.521958 110.948359 145.99023 
C 111.649178 146.458503 112.372566 146.892085 113.11591 147.28941 
z
" clip-path="url(#pfa23a4d85b)" style="fill: #a1a1d8"/>
   </g>
   <g id="patch_55">
    <path d="M 125.254844 124.579062 
C 125.254844 124.579062 125.254844 124.579062 125.254844 124.579062 
C 125.254844 124.579062 125.254844 124.579062 125.254844 124.579062 
L 105.033416 141.174359 
C 105.576605 141.836237 106.151963 142.471046 106.757411 143.076495 
C 107.36286 143.681944 107.997669 144.257301 108.659547 144.80049 
z
" clip-path="url(#pfa23a4d85b)" style="fill: #a1a1d8"/>
   </g>
   <g id="patch_56">
    <path d="M 125.254844 124.579062 
C 125.254844 124.579062 125.254844 124.579062 125.254844 124.579062 
C 125.254844 124.579062 125.254844 124.579062 125.254844 124.579062 
L 89.620734 143.625891 
C 90.244165 144.792249 90.924486 145.927294 91.659238 147.026929 
C 92.39399 148.126563 93.182288 149.18946 94.021285 150.211781 
z
" clip-path="url(#pfa23a4d85b)" style="fill: #a1a1d8"/>
   </g>
   <g id="patch_57">
    <path d="M 125.254844 124.579062 
C 125.254844 124.579062 125.254844 124.579062 125.254844 124.579062 
C 125.254844 124.579062 125.254844 124.579062 125.254844 124.579062 
L 86.671575 136.283169 
C 87.054668 137.546057 87.499534 138.789375 88.004567 140.008632 
C 88.5096 141.22789 89.07419 142.421616 89.696299 143.5855 
z
" clip-path="url(#pfa23a4d85b)" style="fill: #a1a1d8"/>
   </g>
   <g id="patch_58">
    <path d="M 125.254844 124.579062 
C 125.254844 124.579062 125.254844 124.579062 125.254844 124.579062 
C 125.254844 124.579062 125.254844 124.579062 125.254844 124.579062 
L 88.510214 128.198093 
C 88.62867 129.400799 88.806105 130.596965 89.041876 131.78227 
C 89.277648 132.967574 89.571473 134.140588 89.922289 135.297076 
z
" clip-path="url(#pfa23a4d85b)" style="fill: #a1a1d8"/>
   </g>
   <g id="patch_59">
    <path d="M 125.254844 124.579062 
C 125.254844 124.579062 125.254844 124.579062 125.254844 124.579062 
C 125.254844 124.579062 125.254844 124.579062 125.254844 124.579062 
L 74.910004 119.620529 
C 74.747703 121.26839 74.666406 122.923227 74.666406 124.579062 
C 74.666406 126.234898 74.747703 127.889735 74.910004 129.537596 
z
" clip-path="url(#pfa23a4d85b)" style="fill: #a1a1d8"/>
   </g>
   <g id="patch_60">
    <path d="M 125.254844 124.579062 
C 125.254844 124.579062 125.254844 124.579062 125.254844 124.579062 
C 125.254844 124.579062 125.254844 124.579062 125.254844 124.579062 
L 87.331212 113.075055 
C 86.954669 114.316352 86.639297 115.575388 86.386235 116.847616 
C 86.133173 118.119843 85.942727 119.403729 85.815584 120.694634 
z
" clip-path="url(#pfa23a4d85b)" style="fill: #a1a1d8"/>
   </g>
   <g id="patch_61">
    <path d="M 125.254844 124.579062 
C 125.254844 124.579062 125.254844 124.579062 125.254844 124.579062 
C 125.254844 124.579062 125.254844 124.579062 125.254844 124.579062 
L 96.939596 109.444247 
C 96.444211 110.371048 95.994628 111.321611 95.592471 112.292505 
C 95.190313 113.263399 94.836066 114.253452 94.53101 115.259089 
z
" clip-path="url(#pfa23a4d85b)" style="fill: #a1a1d8"/>
   </g>
   <g id="patch_62">
    <path d="M 125.254844 124.579062 
C 125.254844 124.579062 125.254844 124.579062 125.254844 124.579062 
C 125.254844 124.579062 125.254844 124.579062 125.254844 124.579062 
L 100.166503 103.989593 
C 99.492579 104.810772 98.859379 105.664544 98.269189 106.547825 
C 97.679 107.431105 97.132533 108.342831 96.631762 109.279707 
z
" clip-path="url(#pfa23a4d85b)" style="fill: #a1a1d8"/>
   </g>
   <g id="patch_63">
    <path d="M 125.254844 124.579062 
C 125.254844 124.579062 125.254844 124.579062 125.254844 124.579062 
C 125.254844 124.579062 125.254844 124.579062 125.254844 124.579062 
L 100.827534 94.8143 
C 99.853289 95.613842 98.918886 96.460735 98.027701 97.35192 
C 97.136516 98.243105 96.289623 99.177508 95.490081 100.151753 
z
" clip-path="url(#pfa23a4d85b)" style="fill: #a1a1d8"/>
   </g>
   <g id="patch_64">
    <path d="M 125.254844 124.579062 
C 125.254844 124.579062 125.254844 124.579062 125.254844 124.579062 
C 125.254844 124.579062 125.254844 124.579062 125.254844 124.579062 
L 116.210061 107.657465 
C 115.656192 107.953514 115.117192 108.276578 114.595008 108.625491 
C 114.072824 108.974403 113.568085 109.348743 113.082614 109.747158 
z
" clip-path="url(#pfa23a4d85b)" style="fill: #a1a1d8"/>
   </g>
   <g id="patch_65">
    <path d="M 125.254844 124.579062 
C 125.254844 124.579062 125.254844 124.579062 125.254844 124.579062 
C 125.254844 124.579062 125.254844 124.579062 125.254844 124.579062 
L 114.846532 90.267455 
C 113.723461 90.608135 112.617795 91.003749 111.533525 91.452868 
C 110.449255 91.901987 109.387689 92.404071 108.352662 92.957304 
z
" clip-path="url(#pfa23a4d85b)" style="fill: #a1a1d8"/>
   </g>
   <g id="patch_66">
    <path d="M 125.254844 124.579062 
C 125.254844 124.579062 125.254844 124.579062 125.254844 124.579062 
C 125.254844 124.579062 125.254844 124.579062 125.254844 124.579062 
L 122.878663 100.453294 
C 122.08899 100.531069 121.303613 100.647569 120.525366 100.802372 
C 119.747119 100.957175 118.976942 101.150094 118.217617 101.380433 
z
" clip-path="url(#pfa23a4d85b)" style="fill: #a1a1d8"/>
   </g>
   <g id="patch_67">
    <path d="M 122.707978 98.720301 
C 123.554374 98.636938 124.404353 98.595181 125.254844 98.595181 
C 126.105335 98.595181 126.955314 98.636938 127.80171 98.720301 
L 128.790887 88.677012 
C 127.615759 88.561272 126.435657 88.503297 125.254844 88.503297 
C 124.07403 88.503297 122.893928 88.561272 121.7188 88.677012 
z
" clip-path="url(#pfa23a4d85b)" style="fill: #ff8c8e"/>
   </g>
   <g id="patch_68">
    <path d="M 127.259115 104.22936 
C 127.925191 104.294963 128.587644 104.393228 129.244083 104.523802 
C 129.900522 104.654376 130.550154 104.8171 131.190633 105.011387 
L 131.190633 105.011387 
C 130.550154 104.8171 129.900522 104.654376 129.244083 104.523802 
C 128.587644 104.393228 127.925191 104.294963 127.259115 104.22936 
z
" clip-path="url(#pfa23a4d85b)" style="fill: #ff8c8e"/>
   </g>
   <g id="patch_69">
    <path d="M 126.626021 120.058896 
C 126.773973 120.103777 126.919632 120.155894 127.062472 120.215061 
C 127.205313 120.274227 127.345162 120.340371 127.481515 120.413253 
L 132.497518 111.028971 
C 132.054004 110.791908 131.599117 110.576762 131.134502 110.384312 
C 130.669886 110.191862 130.196102 110.02234 129.714861 109.876357 
z
" clip-path="url(#pfa23a4d85b)" style="fill: #ff8c8e"/>
   </g>
   <g id="patch_70">
    <path d="M 129.111552 117.363669 
C 129.347722 117.489905 129.577553 117.62766 129.800213 117.776437 
C 130.022873 117.925213 130.238094 118.084832 130.4451 118.254717 
L 133.103408 115.01556 
C 132.79038 114.758664 132.464928 114.517293 132.128228 114.292317 
C 131.791527 114.06734 131.443984 113.859031 131.086853 113.668141 
z
" clip-path="url(#pfa23a4d85b)" style="fill: #ff8c8e"/>
   </g>
   <g id="patch_71">
    <path d="M 136.305743 111.113503 
C 136.746491 111.475215 137.169214 111.858349 137.572385 112.261521 
C 137.975557 112.664692 138.358691 113.087416 138.720403 113.528163 
L 142.287579 110.600658 
C 141.830045 110.043151 141.345414 109.508444 140.835438 108.998468 
C 140.325462 108.488492 139.790755 108.003862 139.233248 107.546327 
z
" clip-path="url(#pfa23a4d85b)" style="fill: #ff8c8e"/>
   </g>
   <g id="patch_72">
    <path d="M 125.254844 124.579062 
C 125.254844 124.579062 125.254844 124.579062 125.254844 124.579062 
C 125.254844 124.579062 125.254844 124.579062 125.254844 124.579062 
L 125.254844 124.579062 
C 125.254844 124.579062 125.254844 124.579062 125.254844 124.579062 
C 125.254844 124.579062 125.254844 124.579062 125.254844 124.579062 
z
" clip-path="url(#pfa23a4d85b)" style="fill: #ff8c8e"/>
   </g>
   <g id="patch_73">
    <path d="M 125.254844 124.579062 
C 125.254844 124.579062 125.254844 124.579062 125.254844 124.579062 
C 125.254844 124.579062 125.254844 124.579062 125.254844 124.579062 
L 125.254844 124.579062 
C 125.254844 124.579062 125.254844 124.579062 125.254844 124.579062 
C 125.254844 124.579062 125.254844 124.579062 125.254844 124.579062 
z
" clip-path="url(#pfa23a4d85b)" style="fill: #ff8c8e"/>
   </g>
   <g id="patch_74">
    <path d="M 125.254844 124.579062 
C 125.254844 124.579062 125.254844 124.579062 125.254844 124.579062 
C 125.254844 124.579062 125.254844 124.579062 125.254844 124.579062 
L 125.254844 124.579062 
C 125.254844 124.579062 125.254844 124.579062 125.254844 124.579062 
C 125.254844 124.579062 125.254844 124.579062 125.254844 124.579062 
z
" clip-path="url(#pfa23a4d85b)" style="fill: #ff8c8e"/>
   </g>
   <g id="patch_75">
    <path d="M 125.254844 124.579062 
C 125.254844 124.579062 125.254844 124.579062 125.254844 124.579062 
C 125.254844 124.579062 125.254844 124.579062 125.254844 124.579062 
L 125.254844 124.579062 
C 125.254844 124.579062 125.254844 124.579062 125.254844 124.579062 
C 125.254844 124.579062 125.254844 124.579062 125.254844 124.579062 
z
" clip-path="url(#pfa23a4d85b)" style="fill: #ff8c8e"/>
   </g>
   <g id="patch_76">
    <path d="M 125.254844 124.579062 
C 125.254844 124.579062 125.254844 124.579062 125.254844 124.579062 
C 125.254844 124.579062 125.254844 124.579062 125.254844 124.579062 
L 125.254844 124.579062 
C 125.254844 124.579062 125.254844 124.579062 125.254844 124.579062 
C 125.254844 124.579062 125.254844 124.579062 125.254844 124.579062 
z
" clip-path="url(#pfa23a4d85b)" style="fill: #ff8c8e"/>
   </g>
   <g id="patch_77">
    <path d="M 125.254844 124.579062 
C 125.254844 124.579062 125.254844 124.579062 125.254844 124.579062 
C 125.254844 124.579062 125.254844 124.579062 125.254844 124.579062 
L 125.254844 124.579062 
C 125.254844 124.579062 125.254844 124.579062 125.254844 124.579062 
C 125.254844 124.579062 125.254844 124.579062 125.254844 124.579062 
z
" clip-path="url(#pfa23a4d85b)" style="fill: #ff8c8e"/>
   </g>
   <g id="patch_78">
    <path d="M 125.254844 124.579062 
C 125.254844 124.579062 125.254844 124.579062 125.254844 124.579062 
C 125.254844 124.579062 125.254844 124.579062 125.254844 124.579062 
L 125.254844 124.579062 
C 125.254844 124.579062 125.254844 124.579062 125.254844 124.579062 
C 125.254844 124.579062 125.254844 124.579062 125.254844 124.579062 
z
" clip-path="url(#pfa23a4d85b)" style="fill: #ff8c8e"/>
   </g>
   <g id="patch_79">
    <path d="M 125.254844 124.579062 
C 125.254844 124.579062 125.254844 124.579062 125.254844 124.579062 
C 125.254844 124.579062 125.254844 124.579062 125.254844 124.579062 
L 125.254844 124.579062 
C 125.254844 124.579062 125.254844 124.579062 125.254844 124.579062 
C 125.254844 124.579062 125.254844 124.579062 125.254844 124.579062 
z
" clip-path="url(#pfa23a4d85b)" style="fill: #ff8c8e"/>
   </g>
   <g id="patch_80">
    <path d="M 125.254844 124.579062 
C 125.254844 124.579062 125.254844 124.579062 125.254844 124.579062 
C 125.254844 124.579062 125.254844 124.579062 125.254844 124.579062 
L 125.254844 124.579062 
C 125.254844 124.579062 125.254844 124.579062 125.254844 124.579062 
C 125.254844 124.579062 125.254844 124.579062 125.254844 124.579062 
z
" clip-path="url(#pfa23a4d85b)" style="fill: #ff8c8e"/>
   </g>
   <g id="patch_81">
    <path d="M 130.278444 133.977557 
C 129.970817 134.141987 129.655303 134.291214 129.33304 134.424699 
C 129.010778 134.558185 128.682156 134.675768 128.348361 134.777023 
L 128.348361 134.777023 
C 128.682156 134.675768 129.010778 134.558185 129.33304 134.424699 
C 129.655303 134.291214 129.970817 134.141987 130.278444 133.977557 
z
" clip-path="url(#pfa23a4d85b)" style="fill: #ff8c8e"/>
   </g>
   <g id="patch_82">
    <path d="M 136.708076 162.335309 
C 135.472258 162.71019 134.218778 163.02417 132.952166 163.276115 
C 131.685554 163.52806 130.407335 163.717666 129.122127 163.844248 
L 129.122127 163.844248 
C 130.407335 163.717666 131.685554 163.52806 132.952166 163.276115 
C 134.218778 163.02417 135.472258 162.71019 136.708076 162.335309 
z
" clip-path="url(#pfa23a4d85b)" style="fill: #ff8c8e"/>
   </g>
   <g id="patch_83">
    <path d="M 130.112269 173.897326 
C 128.498008 174.056317 126.876915 174.135956 125.254844 174.135956 
C 123.632773 174.135956 122.011679 174.056317 120.397419 173.897326 
L 120.397419 173.897326 
C 122.011679 174.056317 123.632773 174.135956 125.254844 174.135956 
C 126.876915 174.135956 128.498008 174.056317 130.112269 173.897326 
z
" clip-path="url(#pfa23a4d85b)" style="fill: #ff8c8e"/>
   </g>
   <g id="patch_84">
    <path d="M 121.438334 163.328734 
C 120.17 163.203814 118.908563 163.016697 117.65858 162.76806 
C 116.408597 162.519423 115.171575 162.209565 113.951982 161.839606 
L 113.951982 161.839606 
C 115.171575 162.209565 116.408597 162.519423 117.65858 162.76806 
C 118.908563 163.016697 120.17 163.203814 121.438334 163.328734 
z
" clip-path="url(#pfa23a4d85b)" style="fill: #ff8c8e"/>
   </g>
   <g id="patch_85">
    <path d="M 116.417395 153.712227 
C 115.463823 153.422965 114.525028 153.087058 113.6044 152.705722 
C 112.683772 152.324385 111.782422 151.898079 110.903605 151.428341 
L 110.851877 151.525119 
C 111.733861 151.996549 112.63846 152.424393 113.562406 152.807104 
C 114.486352 153.189815 115.428531 153.526932 116.38554 153.817237 
z
" clip-path="url(#pfa23a4d85b)" style="fill: #ff8c8e"/>
   </g>
   <g id="patch_86">
    <path d="M 113.11591 147.28941 
C 112.372566 146.892085 111.649178 146.458503 110.948359 145.99023 
C 110.247539 145.521958 109.570133 145.019559 108.918587 144.484849 
L 108.613617 144.856456 
C 109.277327 145.401148 109.967379 145.912925 110.681281 146.38994 
C 111.395184 146.866954 112.132076 147.308631 112.889297 147.713374 
z
" clip-path="url(#pfa23a4d85b)" style="fill: #ff8c8e"/>
   </g>
   <g id="patch_87">
    <path d="M 108.659547 144.80049 
C 107.997669 144.257301 107.36286 143.681944 106.757411 143.076495 
C 106.151963 142.471046 105.576605 141.836237 105.033416 141.174359 
L 104.384505 141.706907 
C 104.945125 142.390024 105.538946 143.045205 106.163824 143.670083 
C 106.788701 144.29496 107.443882 144.888781 108.126999 145.449401 
z
" clip-path="url(#pfa23a4d85b)" style="fill: #ff8c8e"/>
   </g>
   <g id="patch_88">
    <path d="M 94.021285 150.211781 
C 93.182288 149.18946 92.39399 148.126563 91.659238 147.026929 
C 90.924486 145.927294 90.244165 144.792249 89.620734 143.625891 
L 87.295656 144.868671 
C 87.959766 146.111132 88.684476 147.320238 89.46717 148.491622 
C 90.249863 149.663006 91.089597 150.795256 91.983338 151.884282 
z
" clip-path="url(#pfa23a4d85b)" style="fill: #ff8c8e"/>
   </g>
   <g id="patch_89">
    <path d="M 89.696299 143.5855 
C 89.07419 142.421616 88.5096 141.22789 88.004567 140.008632 
C 87.499534 138.789375 87.054668 137.546057 86.671575 136.283169 
L 81.870663 137.73951 
C 82.301424 139.159539 82.801645 140.557563 83.369519 141.928532 
C 83.937393 143.299501 84.572235 144.641763 85.271754 145.950469 
z
" clip-path="url(#pfa23a4d85b)" style="fill: #ff8c8e"/>
   </g>
   <g id="patch_90">
    <path d="M 89.922289 135.297076 
C 89.571473 134.140588 89.277648 132.967574 89.041876 131.78227 
C 88.806105 130.596965 88.62867 129.400799 88.510214 128.198093 
L 83.901017 128.652059 
C 84.034333 130.005631 84.234024 131.351843 84.499371 132.68583 
C 84.764717 134.019818 85.095399 135.339973 85.490222 136.641529 
z
" clip-path="url(#pfa23a4d85b)" style="fill: #ff8c8e"/>
   </g>
   <g id="patch_91">
    <path d="M 74.910004 129.537596 
C 74.747703 127.889735 74.666406 126.234898 74.666406 124.579062 
C 74.666406 122.923227 74.747703 121.26839 74.910004 119.620529 
L 59.202103 118.073435 
C 58.989164 120.23544 58.882502 122.406597 58.882502 124.579062 
C 58.882502 126.751528 58.989164 128.922685 59.202103 131.08469 
z
" clip-path="url(#pfa23a4d85b)" style="fill: #ff8c8e"/>
   </g>
   <g id="patch_92">
    <path d="M 85.815584 120.694634 
C 85.942727 119.403729 86.133173 118.119843 86.386235 116.847616 
C 86.639297 115.575388 86.954669 114.316352 87.331212 113.075055 
L 63.025757 105.702075 
C 62.407885 107.738926 61.89039 109.804885 61.475139 111.89249 
C 61.059889 113.980095 60.747384 116.08683 60.538754 118.205084 
z
" clip-path="url(#pfa23a4d85b)" style="fill: #ff8c8e"/>
   </g>
   <g id="patch_93">
    <path d="M 94.53101 115.259089 
C 94.836066 114.253452 95.190313 113.263399 95.592471 112.292505 
C 95.994628 111.321611 96.444211 110.371048 96.939596 109.444247 
L 66.141437 92.982288 
C 65.107227 94.917158 64.168637 96.901639 63.329058 98.928562 
C 62.489479 100.955486 61.749922 103.022408 61.113059 105.121865 
z
" clip-path="url(#pfa23a4d85b)" style="fill: #ff8c8e"/>
   </g>
   <g id="patch_94">
    <path d="M 96.631762 109.279707 
C 97.132533 108.342831 97.679 107.431105 98.269189 106.547825 
C 98.859379 105.664544 99.492579 104.810772 100.166503 103.989593 
L 39.543439 54.237531 
C 37.241056 57.042993 35.077801 59.959805 33.061487 62.977431 
C 31.045174 65.995057 29.178233 69.10986 27.467408 72.310589 
z
" clip-path="url(#pfa23a4d85b)" style="fill: #ff8c8e"/>
   </g>
   <g id="patch_95">
    <path d="M 95.490081 100.151753 
C 96.289623 99.177508 97.136516 98.243105 98.027701 97.35192 
C 98.918886 96.460735 99.853289 95.613842 100.827534 94.8143 
L 76.176498 64.776925 
C 74.219085 66.383333 72.341722 68.084876 70.551189 69.875408 
C 68.760657 71.66594 67.059114 73.543304 65.452707 75.500717 
z
" clip-path="url(#pfa23a4d85b)" style="fill: #ff8c8e"/>
   </g>
   <g id="patch_96">
    <path d="M 113.082614 109.747158 
C 113.568085 109.348743 114.072824 108.974403 114.595008 108.625491 
C 115.117192 108.276578 115.656192 107.953514 116.210061 107.657465 
L 105.277989 87.204997 
C 104.05468 87.858869 102.864212 88.572408 101.710884 89.343037 
C 100.557556 90.113666 99.44276 90.940456 98.37052 91.82042 
z
" clip-path="url(#pfa23a4d85b)" style="fill: #ff8c8e"/>
   </g>
   <g id="patch_97">
    <path d="M 108.352662 92.957304 
C 109.387689 92.404071 110.449255 91.901987 111.533525 91.452868 
C 112.617795 91.003749 113.723461 90.608135 114.846532 90.267455 
L 110.646171 76.420724 
C 109.069877 76.898888 107.518009 77.454155 105.996174 78.08452 
C 104.474338 78.714885 102.984368 79.419588 101.531647 80.196084 
z
" clip-path="url(#pfa23a4d85b)" style="fill: #ff8c8e"/>
   </g>
   <g id="patch_98">
    <path d="M 118.217617 101.380433 
C 118.976942 101.150094 119.747119 100.957175 120.525366 100.802372 
C 121.303613 100.647569 122.08899 100.531069 122.878663 100.453294 
L 122.15696 93.125718 
C 121.127445 93.227117 120.103529 93.379 119.08891 93.58082 
C 118.074291 93.782641 117.070193 94.034154 116.080242 94.334453 
z
" clip-path="url(#pfa23a4d85b)" style="fill: #ff8c8e"/>
   </g>
   <g id="patch_99">
    <path d="M 121.7188 88.677012 
C 122.893928 88.561272 124.07403 88.503297 125.254844 88.503297 
C 126.435657 88.503297 127.615759 88.561272 128.790887 88.677012 
L 129.651299 79.941106 
C 128.190232 79.797203 126.72298 79.725122 125.254844 79.725122 
C 123.786707 79.725122 122.319456 79.797203 120.858389 79.941106 
z
" clip-path="url(#pfa23a4d85b)" style="fill: #828282"/>
   </g>
   <g id="patch_100">
    <path d="M 127.259115 104.22936 
C 127.925191 104.294963 128.587644 104.393228 129.244083 104.523802 
C 129.900522 104.654376 130.550154 104.8171 131.190633 105.011387 
L 131.190633 105.011387 
C 130.550154 104.8171 129.900522 104.654376 129.244083 104.523802 
C 128.587644 104.393228 127.925191 104.294963 127.259115 104.22936 
z
" clip-path="url(#pfa23a4d85b)" style="fill: #828282"/>
   </g>
   <g id="patch_101">
    <path d="M 129.714861 109.876357 
C 130.196102 110.02234 130.669886 110.191862 131.134502 110.384312 
C 131.599117 110.576762 132.054004 110.791908 132.497518 111.028971 
L 132.497518 111.028971 
C 132.054004 110.791908 131.599117 110.576762 131.134502 110.384312 
C 130.669886 110.191862 130.196102 110.02234 129.714861 109.876357 
z
" clip-path="url(#pfa23a4d85b)" style="fill: #828282"/>
   </g>
   <g id="patch_102">
    <path d="M 131.086853 113.668141 
C 131.443984 113.859031 131.791527 114.06734 132.128228 114.292317 
C 132.464928 114.517293 132.79038 114.758664 133.103408 115.01556 
L 133.103408 115.01556 
C 132.79038 114.758664 132.464928 114.517293 132.128228 114.292317 
C 131.791527 114.06734 131.443984 113.859031 131.086853 113.668141 
z
" clip-path="url(#pfa23a4d85b)" style="fill: #828282"/>
   </g>
   <g id="patch_103">
    <path d="M 139.233248 107.546327 
C 139.790755 108.003862 140.325462 108.488492 140.835438 108.998468 
C 141.345414 109.508444 141.830045 110.043151 142.287579 110.600658 
L 142.287579 110.600658 
C 141.830045 110.043151 141.345414 109.508444 140.835438 108.998468 
C 140.325462 108.488492 139.790755 108.003862 139.233248 107.546327 
z
" clip-path="url(#pfa23a4d85b)" style="fill: #828282"/>
   </g>
   <g id="patch_104">
    <path d="M 125.254844 124.579062 
C 125.254844 124.579062 125.254844 124.579062 125.254844 124.579062 
C 125.254844 124.579062 125.254844 124.579062 125.254844 124.579062 
L 125.254844 124.579062 
C 125.254844 124.579062 125.254844 124.579062 125.254844 124.579062 
C 125.254844 124.579062 125.254844 124.579062 125.254844 124.579062 
z
" clip-path="url(#pfa23a4d85b)" style="fill: #828282"/>
   </g>
   <g id="patch_105">
    <path d="M 125.254844 124.579062 
C 125.254844 124.579062 125.254844 124.579062 125.254844 124.579062 
C 125.254844 124.579062 125.254844 124.579062 125.254844 124.579062 
L 125.254844 124.579062 
C 125.254844 124.579062 125.254844 124.579062 125.254844 124.579062 
C 125.254844 124.579062 125.254844 124.579062 125.254844 124.579062 
z
" clip-path="url(#pfa23a4d85b)" style="fill: #828282"/>
   </g>
   <g id="patch_106">
    <path d="M 125.254844 124.579062 
C 125.254844 124.579062 125.254844 124.579062 125.254844 124.579062 
C 125.254844 124.579062 125.254844 124.579062 125.254844 124.579062 
L 125.254844 124.579062 
C 125.254844 124.579062 125.254844 124.579062 125.254844 124.579062 
C 125.254844 124.579062 125.254844 124.579062 125.254844 124.579062 
z
" clip-path="url(#pfa23a4d85b)" style="fill: #828282"/>
   </g>
   <g id="patch_107">
    <path d="M 125.254844 124.579062 
C 125.254844 124.579062 125.254844 124.579062 125.254844 124.579062 
C 125.254844 124.579062 125.254844 124.579062 125.254844 124.579062 
L 125.254844 124.579062 
C 125.254844 124.579062 125.254844 124.579062 125.254844 124.579062 
C 125.254844 124.579062 125.254844 124.579062 125.254844 124.579062 
z
" clip-path="url(#pfa23a4d85b)" style="fill: #828282"/>
   </g>
   <g id="patch_108">
    <path d="M 125.254844 124.579062 
C 125.254844 124.579062 125.254844 124.579062 125.254844 124.579062 
C 125.254844 124.579062 125.254844 124.579062 125.254844 124.579062 
L 125.254844 124.579062 
C 125.254844 124.579062 125.254844 124.579062 125.254844 124.579062 
C 125.254844 124.579062 125.254844 124.579062 125.254844 124.579062 
z
" clip-path="url(#pfa23a4d85b)" style="fill: #828282"/>
   </g>
   <g id="patch_109">
    <path d="M 125.254844 124.579062 
C 125.254844 124.579062 125.254844 124.579062 125.254844 124.579062 
C 125.254844 124.579062 125.254844 124.579062 125.254844 124.579062 
L 125.254844 124.579062 
C 125.254844 124.579062 125.254844 124.579062 125.254844 124.579062 
C 125.254844 124.579062 125.254844 124.579062 125.254844 124.579062 
z
" clip-path="url(#pfa23a4d85b)" style="fill: #828282"/>
   </g>
   <g id="patch_110">
    <path d="M 125.254844 124.579062 
C 125.254844 124.579062 125.254844 124.579062 125.254844 124.579062 
C 125.254844 124.579062 125.254844 124.579062 125.254844 124.579062 
L 125.254844 124.579062 
C 125.254844 124.579062 125.254844 124.579062 125.254844 124.579062 
C 125.254844 124.579062 125.254844 124.579062 125.254844 124.579062 
z
" clip-path="url(#pfa23a4d85b)" style="fill: #828282"/>
   </g>
   <g id="patch_111">
    <path d="M 125.254844 124.579062 
C 125.254844 124.579062 125.254844 124.579062 125.254844 124.579062 
C 125.254844 124.579062 125.254844 124.579062 125.254844 124.579062 
L 125.254844 124.579062 
C 125.254844 124.579062 125.254844 124.579062 125.254844 124.579062 
C 125.254844 124.579062 125.254844 124.579062 125.254844 124.579062 
z
" clip-path="url(#pfa23a4d85b)" style="fill: #828282"/>
   </g>
   <g id="patch_112">
    <path d="M 125.254844 124.579062 
C 125.254844 124.579062 125.254844 124.579062 125.254844 124.579062 
C 125.254844 124.579062 125.254844 124.579062 125.254844 124.579062 
L 125.254844 124.579062 
C 125.254844 124.579062 125.254844 124.579062 125.254844 124.579062 
C 125.254844 124.579062 125.254844 124.579062 125.254844 124.579062 
z
" clip-path="url(#pfa23a4d85b)" style="fill: #828282"/>
   </g>
   <g id="patch_113">
    <path d="M 130.278444 133.977557 
C 129.970817 134.141987 129.655303 134.291214 129.33304 134.424699 
C 129.010778 134.558185 128.682156 134.675768 128.348361 134.777023 
L 128.348361 134.777023 
C 128.682156 134.675768 129.010778 134.558185 129.33304 134.424699 
C 129.655303 134.291214 129.970817 134.141987 130.278444 133.977557 
z
" clip-path="url(#pfa23a4d85b)" style="fill: #828282"/>
   </g>
   <g id="patch_114">
    <path d="M 136.708076 162.335309 
C 135.472258 162.71019 134.218778 163.02417 132.952166 163.276115 
C 131.685554 163.52806 130.407335 163.717666 129.122127 163.844248 
L 129.122127 163.844248 
C 130.407335 163.717666 131.685554 163.52806 132.952166 163.276115 
C 134.218778 163.02417 135.472258 162.71019 136.708076 162.335309 
z
" clip-path="url(#pfa23a4d85b)" style="fill: #828282"/>
   </g>
   <g id="patch_115">
    <path d="M 130.112269 173.897326 
C 128.498008 174.056317 126.876915 174.135956 125.254844 174.135956 
C 123.632773 174.135956 122.011679 174.056317 120.397419 173.897326 
L 120.397419 173.897326 
C 122.011679 174.056317 123.632773 174.135956 125.254844 174.135956 
C 126.876915 174.135956 128.498008 174.056317 130.112269 173.897326 
z
" clip-path="url(#pfa23a4d85b)" style="fill: #828282"/>
   </g>
   <g id="patch_116">
    <path d="M 121.438334 163.328734 
C 120.17 163.203814 118.908563 163.016697 117.65858 162.76806 
C 116.408597 162.519423 115.171575 162.209565 113.951982 161.839606 
L 113.951982 161.839606 
C 115.171575 162.209565 116.408597 162.519423 117.65858 162.76806 
C 118.908563 163.016697 120.17 163.203814 121.438334 163.328734 
z
" clip-path="url(#pfa23a4d85b)" style="fill: #828282"/>
   </g>
   <g id="patch_117">
    <path d="M 116.38554 153.817237 
C 115.428531 153.526932 114.486352 153.189815 113.562406 152.807104 
C 112.63846 152.424393 111.733861 151.996549 110.851877 151.525119 
L 110.851877 151.525119 
C 111.733861 151.996549 112.63846 152.424393 113.562406 152.807104 
C 114.486352 153.189815 115.428531 153.526932 116.38554 153.817237 
z
" clip-path="url(#pfa23a4d85b)" style="fill: #828282"/>
   </g>
   <g id="patch_118">
    <path d="M 112.889297 147.713374 
C 112.132076 147.308631 111.395184 146.866954 110.681281 146.38994 
C 109.967379 145.912925 109.277327 145.401148 108.613617 144.856456 
L 108.613617 144.856456 
C 109.277327 145.401148 109.967379 145.912925 110.681281 146.38994 
C 111.395184 146.866954 112.132076 147.308631 112.889297 147.713374 
z
" clip-path="url(#pfa23a4d85b)" style="fill: #828282"/>
   </g>
   <g id="patch_119">
    <path d="M 108.126999 145.449401 
C 107.443882 144.888781 106.788701 144.29496 106.163824 143.670083 
C 105.538946 143.045205 104.945125 142.390024 104.384505 141.706907 
L 104.384505 141.706907 
C 104.945125 142.390024 105.538946 143.045205 106.163824 143.670083 
C 106.788701 144.29496 107.443882 144.888781 108.126999 145.449401 
z
" clip-path="url(#pfa23a4d85b)" style="fill: #828282"/>
   </g>
   <g id="patch_120">
    <path d="M 91.983338 151.884282 
C 91.089597 150.795256 90.249863 149.663006 89.46717 148.491622 
C 88.684476 147.320238 87.959766 146.111132 87.295656 144.868671 
L 87.295656 144.868671 
C 87.959766 146.111132 88.684476 147.320238 89.46717 148.491622 
C 90.249863 149.663006 91.089597 150.795256 91.983338 151.884282 
z
" clip-path="url(#pfa23a4d85b)" style="fill: #828282"/>
   </g>
   <g id="patch_121">
    <path d="M 85.271754 145.950469 
C 84.572235 144.641763 83.937393 143.299501 83.369519 141.928532 
C 82.801645 140.557563 82.301424 139.159539 81.870663 137.73951 
L 81.870663 137.73951 
C 82.301424 139.159539 82.801645 140.557563 83.369519 141.928532 
C 83.937393 143.299501 84.572235 144.641763 85.271754 145.950469 
z
" clip-path="url(#pfa23a4d85b)" style="fill: #828282"/>
   </g>
   <g id="patch_122">
    <path d="M 85.490222 136.641529 
C 85.095399 135.339973 84.764717 134.019818 84.499371 132.68583 
C 84.234024 131.351843 84.034333 130.005631 83.901017 128.652059 
L 83.901017 128.652059 
C 84.034333 130.005631 84.234024 131.351843 84.499371 132.68583 
C 84.764717 134.019818 85.095399 135.339973 85.490222 136.641529 
z
" clip-path="url(#pfa23a4d85b)" style="fill: #828282"/>
   </g>
   <g id="patch_123">
    <path d="M 59.202103 131.08469 
C 58.989164 128.922685 58.882502 126.751528 58.882502 124.579062 
C 58.882502 122.406597 58.989164 120.23544 59.202103 118.073435 
L 59.202103 118.073435 
C 58.989164 120.23544 58.882502 122.406597 58.882502 124.579062 
C 58.882502 126.751528 58.989164 128.922685 59.202103 131.08469 
z
" clip-path="url(#pfa23a4d85b)" style="fill: #828282"/>
   </g>
   <g id="patch_124">
    <path d="M 60.538754 118.205084 
C 60.747384 116.08683 61.059889 113.980095 61.475139 111.89249 
C 61.89039 109.804885 62.407885 107.738926 63.025757 105.702075 
L 63.025757 105.702075 
C 62.407885 107.738926 61.89039 109.804885 61.475139 111.89249 
C 61.059889 113.980095 60.747384 116.08683 60.538754 118.205084 
z
" clip-path="url(#pfa23a4d85b)" style="fill: #828282"/>
   </g>
   <g id="patch_125">
    <path d="M 61.113059 105.121865 
C 61.749922 103.022408 62.489479 100.955486 63.329058 98.928562 
C 64.168637 96.901639 65.107227 94.917158 66.141437 92.982288 
L 66.141437 92.982288 
C 65.107227 94.917158 64.168637 96.901639 63.329058 98.928562 
C 62.489479 100.955486 61.749922 103.022408 61.113059 105.121865 
z
" clip-path="url(#pfa23a4d85b)" style="fill: #828282"/>
   </g>
   <g id="patch_126">
    <path d="M 27.467408 72.310589 
C 29.178233 69.10986 31.045174 65.995057 33.061487 62.977431 
C 35.077801 59.959805 37.241056 57.042993 39.543439 54.237531 
L 39.543439 54.237531 
C 37.241056 57.042993 35.077801 59.959805 33.061487 62.977431 
C 31.045174 65.995057 29.178233 69.10986 27.467408 72.310589 
z
" clip-path="url(#pfa23a4d85b)" style="fill: #828282"/>
   </g>
   <g id="patch_127">
    <path d="M 65.452707 75.500717 
C 67.059114 73.543304 68.760657 71.66594 70.551189 69.875408 
C 72.341722 68.084876 74.219085 66.383333 76.176498 64.776925 
L 76.176498 64.776925 
C 74.219085 66.383333 72.341722 68.084876 70.551189 69.875408 
C 68.760657 71.66594 67.059114 73.543304 65.452707 75.500717 
z
" clip-path="url(#pfa23a4d85b)" style="fill: #828282"/>
   </g>
   <g id="patch_128">
    <path d="M 98.37052 91.82042 
C 99.44276 90.940456 100.557556 90.113666 101.710884 89.343037 
C 102.864212 88.572408 104.05468 87.858869 105.277989 87.204997 
L 105.277989 87.204997 
C 104.05468 87.858869 102.864212 88.572408 101.710884 89.343037 
C 100.557556 90.113666 99.44276 90.940456 98.37052 91.82042 
z
" clip-path="url(#pfa23a4d85b)" style="fill: #828282"/>
   </g>
   <g id="patch_129">
    <path d="M 101.531647 80.196084 
C 102.984368 79.419588 104.474338 78.714885 105.996174 78.08452 
C 107.518009 77.454155 109.069877 76.898888 110.646171 76.420724 
L 110.646171 76.420724 
C 109.069877 76.898888 107.518009 77.454155 105.996174 78.08452 
C 104.474338 78.714885 102.984368 79.419588 101.531647 80.196084 
z
" clip-path="url(#pfa23a4d85b)" style="fill: #828282"/>
   </g>
   <g id="patch_130">
    <path d="M 116.080242 94.334453 
C 117.070193 94.034154 118.074291 93.782641 119.08891 93.58082 
C 120.103529 93.379 121.127445 93.227117 122.15696 93.125718 
L 121.624282 87.717349 
C 120.417743 87.836182 119.217766 88.014182 118.028684 88.250705 
C 116.839603 88.487228 115.662851 88.781989 114.502678 89.133924 
z
" clip-path="url(#pfa23a4d85b)" style="fill: #828282"/>
   </g>
   <g id="patch_131">
    <path d="M 125.254844 124.579062 
C 125.254844 124.579062 125.254844 124.579062 125.254844 124.579062 
C 125.254844 124.579062 125.254844 124.579062 125.254844 124.579062 
L 129.651299 79.941106 
C 128.190232 79.797203 126.72298 79.725122 125.254844 79.725122 
C 123.786707 79.725122 122.319456 79.797203 120.858389 79.941106 
L 125.254844 124.579062 
z
" clip-path="url(#pfa23a4d85b)" style="fill: none; stroke: #292929; stroke-width: 0.5; stroke-linejoin: miter"/>
   </g>
   <g id="patch_132">
    <path d="M 125.254844 124.579062 
C 125.254844 124.579062 125.254844 124.579062 125.254844 124.579062 
C 125.254844 124.579062 125.254844 124.579062 125.254844 124.579062 
L 131.190633 105.011387 
C 130.550154 104.8171 129.900522 104.654376 129.244083 104.523802 
C 128.587644 104.393228 127.925191 104.294963 127.259115 104.22936 
L 125.254844 124.579062 
z
" clip-path="url(#pfa23a4d85b)" style="fill: none; stroke: #292929; stroke-width: 0.5; stroke-linejoin: miter"/>
   </g>
   <g id="patch_133">
    <path d="M 125.254844 124.579062 
C 125.254844 124.579062 125.254844 124.579062 125.254844 124.579062 
C 125.254844 124.579062 125.254844 124.579062 125.254844 124.579062 
L 132.497518 111.028971 
C 132.054004 110.791908 131.599117 110.576762 131.134502 110.384312 
C 130.669886 110.191862 130.196102 110.02234 129.714861 109.876357 
L 125.254844 124.579062 
z
" clip-path="url(#pfa23a4d85b)" style="fill: none; stroke: #292929; stroke-width: 0.5; stroke-linejoin: miter"/>
   </g>
   <g id="patch_134">
    <path d="M 125.254844 124.579062 
C 125.254844 124.579062 125.254844 124.579062 125.254844 124.579062 
C 125.254844 124.579062 125.254844 124.579062 125.254844 124.579062 
L 133.103408 115.01556 
C 132.79038 114.758664 132.464928 114.517293 132.128228 114.292317 
C 131.791527 114.06734 131.443984 113.859031 131.086853 113.668141 
L 125.254844 124.579062 
z
" clip-path="url(#pfa23a4d85b)" style="fill: none; stroke: #292929; stroke-width: 0.5; stroke-linejoin: miter"/>
   </g>
   <g id="patch_135">
    <path d="M 125.254844 124.579062 
C 125.254844 124.579062 125.254844 124.579062 125.254844 124.579062 
C 125.254844 124.579062 125.254844 124.579062 125.254844 124.579062 
L 142.287579 110.600658 
C 141.830045 110.043151 141.345414 109.508444 140.835438 108.998468 
C 140.325462 108.488492 139.790755 108.003862 139.233248 107.546327 
L 125.254844 124.579062 
z
" clip-path="url(#pfa23a4d85b)" style="fill: none; stroke: #292929; stroke-width: 0.5; stroke-linejoin: miter"/>
   </g>
   <g id="patch_136">
    <path d="M 125.254844 124.579062 
C 125.254844 124.579062 125.254844 124.579062 125.254844 124.579062 
C 125.254844 124.579062 125.254844 124.579062 125.254844 124.579062 
L 125.254844 124.579062 
C 125.254844 124.579062 125.254844 124.579062 125.254844 124.579062 
C 125.254844 124.579062 125.254844 124.579062 125.254844 124.579062 
L 125.254844 124.579062 
z
" clip-path="url(#pfa23a4d85b)" style="fill: none; stroke: #292929; stroke-width: 0.5; stroke-linejoin: miter"/>
   </g>
   <g id="patch_137">
    <path d="M 125.254844 124.579062 
C 125.254844 124.579062 125.254844 124.579062 125.254844 124.579062 
C 125.254844 124.579062 125.254844 124.579062 125.254844 124.579062 
L 125.254844 124.579062 
C 125.254844 124.579062 125.254844 124.579062 125.254844 124.579062 
C 125.254844 124.579062 125.254844 124.579062 125.254844 124.579062 
L 125.254844 124.579062 
z
" clip-path="url(#pfa23a4d85b)" style="fill: none; stroke: #292929; stroke-width: 0.5; stroke-linejoin: miter"/>
   </g>
   <g id="patch_138">
    <path d="M 125.254844 124.579062 
C 125.254844 124.579062 125.254844 124.579062 125.254844 124.579062 
C 125.254844 124.579062 125.254844 124.579062 125.254844 124.579062 
L 125.254844 124.579062 
C 125.254844 124.579062 125.254844 124.579062 125.254844 124.579062 
C 125.254844 124.579062 125.254844 124.579062 125.254844 124.579062 
L 125.254844 124.579062 
z
" clip-path="url(#pfa23a4d85b)" style="fill: none; stroke: #292929; stroke-width: 0.5; stroke-linejoin: miter"/>
   </g>
   <g id="patch_139">
    <path d="M 125.254844 124.579062 
C 125.254844 124.579062 125.254844 124.579062 125.254844 124.579062 
C 125.254844 124.579062 125.254844 124.579062 125.254844 124.579062 
L 125.254844 124.579062 
C 125.254844 124.579062 125.254844 124.579062 125.254844 124.579062 
C 125.254844 124.579062 125.254844 124.579062 125.254844 124.579062 
L 125.254844 124.579062 
z
" clip-path="url(#pfa23a4d85b)" style="fill: none; stroke: #292929; stroke-width: 0.5; stroke-linejoin: miter"/>
   </g>
   <g id="patch_140">
    <path d="M 125.254844 124.579062 
C 125.254844 124.579062 125.254844 124.579062 125.254844 124.579062 
C 125.254844 124.579062 125.254844 124.579062 125.254844 124.579062 
L 125.254844 124.579062 
C 125.254844 124.579062 125.254844 124.579062 125.254844 124.579062 
C 125.254844 124.579062 125.254844 124.579062 125.254844 124.579062 
L 125.254844 124.579062 
z
" clip-path="url(#pfa23a4d85b)" style="fill: none; stroke: #292929; stroke-width: 0.5; stroke-linejoin: miter"/>
   </g>
   <g id="patch_141">
    <path d="M 125.254844 124.579062 
C 125.254844 124.579062 125.254844 124.579062 125.254844 124.579062 
C 125.254844 124.579062 125.254844 124.579062 125.254844 124.579062 
L 125.254844 124.579062 
C 125.254844 124.579062 125.254844 124.579062 125.254844 124.579062 
C 125.254844 124.579062 125.254844 124.579062 125.254844 124.579062 
L 125.254844 124.579062 
z
" clip-path="url(#pfa23a4d85b)" style="fill: none; stroke: #292929; stroke-width: 0.5; stroke-linejoin: miter"/>
   </g>
   <g id="patch_142">
    <path d="M 125.254844 124.579062 
C 125.254844 124.579062 125.254844 124.579062 125.254844 124.579062 
C 125.254844 124.579062 125.254844 124.579062 125.254844 124.579062 
L 125.254844 124.579062 
C 125.254844 124.579062 125.254844 124.579062 125.254844 124.579062 
C 125.254844 124.579062 125.254844 124.579062 125.254844 124.579062 
L 125.254844 124.579062 
z
" clip-path="url(#pfa23a4d85b)" style="fill: none; stroke: #292929; stroke-width: 0.5; stroke-linejoin: miter"/>
   </g>
   <g id="patch_143">
    <path d="M 125.254844 124.579062 
C 125.254844 124.579062 125.254844 124.579062 125.254844 124.579062 
C 125.254844 124.579062 125.254844 124.579062 125.254844 124.579062 
L 125.254844 124.579062 
C 125.254844 124.579062 125.254844 124.579062 125.254844 124.579062 
C 125.254844 124.579062 125.254844 124.579062 125.254844 124.579062 
L 125.254844 124.579062 
z
" clip-path="url(#pfa23a4d85b)" style="fill: none; stroke: #292929; stroke-width: 0.5; stroke-linejoin: miter"/>
   </g>
   <g id="patch_144">
    <path d="M 125.254844 124.579062 
C 125.254844 124.579062 125.254844 124.579062 125.254844 124.579062 
C 125.254844 124.579062 125.254844 124.579062 125.254844 124.579062 
L 125.254844 124.579062 
C 125.254844 124.579062 125.254844 124.579062 125.254844 124.579062 
C 125.254844 124.579062 125.254844 124.579062 125.254844 124.579062 
L 125.254844 124.579062 
z
" clip-path="url(#pfa23a4d85b)" style="fill: none; stroke: #292929; stroke-width: 0.5; stroke-linejoin: miter"/>
   </g>
   <g id="patch_145">
    <path d="M 125.254844 124.579062 
C 125.254844 124.579062 125.254844 124.579062 125.254844 124.579062 
C 125.254844 124.579062 125.254844 124.579062 125.254844 124.579062 
L 128.348361 134.777023 
C 128.682156 134.675768 129.010778 134.558185 129.33304 134.424699 
C 129.655303 134.291214 129.970817 134.141987 130.278444 133.977557 
L 125.254844 124.579062 
z
" clip-path="url(#pfa23a4d85b)" style="fill: none; stroke: #292929; stroke-width: 0.5; stroke-linejoin: miter"/>
   </g>
   <g id="patch_146">
    <path d="M 125.254844 124.579062 
C 125.254844 124.579062 125.254844 124.579062 125.254844 124.579062 
C 125.254844 124.579062 125.254844 124.579062 125.254844 124.579062 
L 129.122127 163.844248 
C 130.407335 163.717666 131.685554 163.52806 132.952166 163.276115 
C 134.218778 163.02417 135.472258 162.71019 136.708076 162.335309 
L 125.254844 124.579062 
z
" clip-path="url(#pfa23a4d85b)" style="fill: none; stroke: #292929; stroke-width: 0.5; stroke-linejoin: miter"/>
   </g>
   <g id="patch_147">
    <path d="M 125.254844 124.579062 
C 125.254844 124.579062 125.254844 124.579062 125.254844 124.579062 
C 125.254844 124.579062 125.254844 124.579062 125.254844 124.579062 
L 120.397419 173.897326 
C 122.011679 174.056317 123.632773 174.135956 125.254844 174.135956 
C 126.876915 174.135956 128.498008 174.056317 130.112269 173.897326 
L 125.254844 124.579062 
z
" clip-path="url(#pfa23a4d85b)" style="fill: none; stroke: #292929; stroke-width: 0.5; stroke-linejoin: miter"/>
   </g>
   <g id="patch_148">
    <path d="M 125.254844 124.579062 
C 125.254844 124.579062 125.254844 124.579062 125.254844 124.579062 
C 125.254844 124.579062 125.254844 124.579062 125.254844 124.579062 
L 113.951982 161.839606 
C 115.171575 162.209565 116.408597 162.519423 117.65858 162.76806 
C 118.908563 163.016697 120.17 163.203814 121.438334 163.328734 
L 125.254844 124.579062 
z
" clip-path="url(#pfa23a4d85b)" style="fill: none; stroke: #292929; stroke-width: 0.5; stroke-linejoin: miter"/>
   </g>
   <g id="patch_149">
    <path d="M 125.254844 124.579062 
C 125.254844 124.579062 125.254844 124.579062 125.254844 124.579062 
C 125.254844 124.579062 125.254844 124.579062 125.254844 124.579062 
L 110.851877 151.525119 
C 111.733861 151.996549 112.63846 152.424393 113.562406 152.807104 
C 114.486352 153.189815 115.428531 153.526932 116.38554 153.817237 
L 125.254844 124.579062 
z
" clip-path="url(#pfa23a4d85b)" style="fill: none; stroke: #292929; stroke-width: 0.5; stroke-linejoin: miter"/>
   </g>
   <g id="patch_150">
    <path d="M 125.254844 124.579062 
C 125.254844 124.579062 125.254844 124.579062 125.254844 124.579062 
C 125.254844 124.579062 125.254844 124.579062 125.254844 124.579062 
L 108.613617 144.856456 
C 109.277327 145.401148 109.967379 145.912925 110.681281 146.38994 
C 111.395184 146.866954 112.132076 147.308631 112.889297 147.713374 
L 125.254844 124.579062 
z
" clip-path="url(#pfa23a4d85b)" style="fill: none; stroke: #292929; stroke-width: 0.5; stroke-linejoin: miter"/>
   </g>
   <g id="patch_151">
    <path d="M 125.254844 124.579062 
C 125.254844 124.579062 125.254844 124.579062 125.254844 124.579062 
C 125.254844 124.579062 125.254844 124.579062 125.254844 124.579062 
L 104.384505 141.706907 
C 104.945125 142.390024 105.538946 143.045205 106.163824 143.670083 
C 106.788701 144.29496 107.443882 144.888781 108.126999 145.449401 
L 125.254844 124.579062 
z
" clip-path="url(#pfa23a4d85b)" style="fill: none; stroke: #292929; stroke-width: 0.5; stroke-linejoin: miter"/>
   </g>
   <g id="patch_152">
    <path d="M 125.254844 124.579062 
C 125.254844 124.579062 125.254844 124.579062 125.254844 124.579062 
C 125.254844 124.579062 125.254844 124.579062 125.254844 124.579062 
L 87.295656 144.868671 
C 87.959766 146.111132 88.684476 147.320238 89.46717 148.491622 
C 90.249863 149.663006 91.089597 150.795256 91.983338 151.884282 
L 125.254844 124.579062 
z
" clip-path="url(#pfa23a4d85b)" style="fill: none; stroke: #292929; stroke-width: 0.5; stroke-linejoin: miter"/>
   </g>
   <g id="patch_153">
    <path d="M 125.254844 124.579062 
C 125.254844 124.579062 125.254844 124.579062 125.254844 124.579062 
C 125.254844 124.579062 125.254844 124.579062 125.254844 124.579062 
L 81.870663 137.73951 
C 82.301424 139.159539 82.801645 140.557563 83.369519 141.928532 
C 83.937393 143.299501 84.572235 144.641763 85.271754 145.950469 
L 125.254844 124.579062 
z
" clip-path="url(#pfa23a4d85b)" style="fill: none; stroke: #292929; stroke-width: 0.5; stroke-linejoin: miter"/>
   </g>
   <g id="patch_154">
    <path d="M 125.254844 124.579062 
C 125.254844 124.579062 125.254844 124.579062 125.254844 124.579062 
C 125.254844 124.579062 125.254844 124.579062 125.254844 124.579062 
L 83.901017 128.652059 
C 84.034333 130.005631 84.234024 131.351843 84.499371 132.68583 
C 84.764717 134.019818 85.095399 135.339973 85.490222 136.641529 
L 125.254844 124.579062 
z
" clip-path="url(#pfa23a4d85b)" style="fill: none; stroke: #292929; stroke-width: 0.5; stroke-linejoin: miter"/>
   </g>
   <g id="patch_155">
    <path d="M 125.254844 124.579062 
C 125.254844 124.579062 125.254844 124.579062 125.254844 124.579062 
C 125.254844 124.579062 125.254844 124.579062 125.254844 124.579062 
L 59.202103 118.073435 
C 58.989164 120.23544 58.882502 122.406597 58.882502 124.579062 
C 58.882502 126.751528 58.989164 128.922685 59.202103 131.08469 
L 125.254844 124.579062 
z
" clip-path="url(#pfa23a4d85b)" style="fill: none; stroke: #292929; stroke-width: 0.5; stroke-linejoin: miter"/>
   </g>
   <g id="patch_156">
    <path d="M 125.254844 124.579062 
C 125.254844 124.579062 125.254844 124.579062 125.254844 124.579062 
C 125.254844 124.579062 125.254844 124.579062 125.254844 124.579062 
L 63.025757 105.702075 
C 62.407885 107.738926 61.89039 109.804885 61.475139 111.89249 
C 61.059889 113.980095 60.747384 116.08683 60.538754 118.205084 
L 125.254844 124.579062 
z
" clip-path="url(#pfa23a4d85b)" style="fill: none; stroke: #292929; stroke-width: 0.5; stroke-linejoin: miter"/>
   </g>
   <g id="patch_157">
    <path d="M 125.254844 124.579062 
C 125.254844 124.579062 125.254844 124.579062 125.254844 124.579062 
C 125.254844 124.579062 125.254844 124.579062 125.254844 124.579062 
L 66.141437 92.982288 
C 65.107227 94.917158 64.168637 96.901639 63.329058 98.928562 
C 62.489479 100.955486 61.749922 103.022408 61.113059 105.121865 
L 125.254844 124.579062 
z
" clip-path="url(#pfa23a4d85b)" style="fill: none; stroke: #292929; stroke-width: 0.5; stroke-linejoin: miter"/>
   </g>
   <g id="patch_158">
    <path d="M 125.254844 124.579062 
C 125.254844 124.579062 125.254844 124.579062 125.254844 124.579062 
C 125.254844 124.579062 125.254844 124.579062 125.254844 124.579062 
L 39.543439 54.237531 
C 37.241056 57.042993 35.077801 59.959805 33.061487 62.977431 
C 31.045174 65.995057 29.178233 69.10986 27.467408 72.310589 
L 125.254844 124.579062 
z
" clip-path="url(#pfa23a4d85b)" style="fill: none; stroke: #292929; stroke-width: 0.5; stroke-linejoin: miter"/>
   </g>
   <g id="patch_159">
    <path d="M 125.254844 124.579062 
C 125.254844 124.579062 125.254844 124.579062 125.254844 124.579062 
C 125.254844 124.579062 125.254844 124.579062 125.254844 124.579062 
L 76.176498 64.776925 
C 74.219085 66.383333 72.341722 68.084876 70.551189 69.875408 
C 68.760657 71.66594 67.059114 73.543304 65.452707 75.500717 
L 125.254844 124.579062 
z
" clip-path="url(#pfa23a4d85b)" style="fill: none; stroke: #292929; stroke-width: 0.5; stroke-linejoin: miter"/>
   </g>
   <g id="patch_160">
    <path d="M 125.254844 124.579062 
C 125.254844 124.579062 125.254844 124.579062 125.254844 124.579062 
C 125.254844 124.579062 125.254844 124.579062 125.254844 124.579062 
L 105.277989 87.204997 
C 104.05468 87.858869 102.864212 88.572408 101.710884 89.343037 
C 100.557556 90.113666 99.44276 90.940456 98.37052 91.82042 
L 125.254844 124.579062 
z
" clip-path="url(#pfa23a4d85b)" style="fill: none; stroke: #292929; stroke-width: 0.5; stroke-linejoin: miter"/>
   </g>
   <g id="patch_161">
    <path d="M 125.254844 124.579062 
C 125.254844 124.579062 125.254844 124.579062 125.254844 124.579062 
C 125.254844 124.579062 125.254844 124.579062 125.254844 124.579062 
L 110.646171 76.420724 
C 109.069877 76.898888 107.518009 77.454155 105.996174 78.08452 
C 104.474338 78.714885 102.984368 79.419588 101.531647 80.196084 
L 125.254844 124.579062 
z
" clip-path="url(#pfa23a4d85b)" style="fill: none; stroke: #292929; stroke-width: 0.5; stroke-linejoin: miter"/>
   </g>
   <g id="patch_162">
    <path d="M 125.254844 124.579062 
C 125.254844 124.579062 125.254844 124.579062 125.254844 124.579062 
C 125.254844 124.579062 125.254844 124.579062 125.254844 124.579062 
L 121.624282 87.717349 
C 120.417743 87.836182 119.217766 88.014182 118.028684 88.250705 
C 116.839603 88.487228 115.662851 88.781989 114.502678 89.133924 
L 125.254844 124.579062 
z
" clip-path="url(#pfa23a4d85b)" style="fill: none; stroke: #292929; stroke-width: 0.5; stroke-linejoin: miter"/>
   </g>
   <g id="PathCollection_1">
    <defs>
     <path id="m5400b195f3" d="M 0.193618 7.414054 
L 0.193618 7.414054 
C 0.054922 7.414054 -0.078235 7.358899 -0.176308 7.260826 
C -0.274381 7.162753 -0.329536 7.029596 -0.329536 6.890901 
L -0.329536 5.365008 
L -1.528416 6.56393 
L -1.528416 6.56393 
C -1.577018 6.612704 -1.634775 6.651408 -1.698366 6.677814 
C -1.761958 6.704221 -1.830141 6.717815 -1.898997 6.717815 
C -1.967853 6.717815 -2.036037 6.704221 -2.099628 6.677814 
C -2.163219 6.651408 -2.220976 6.612704 -2.269578 6.56393 
L -2.269578 6.56393 
C -2.318353 6.515327 -2.357056 6.457571 -2.383463 6.393979 
C -2.409869 6.330388 -2.423463 6.262205 -2.423463 6.193348 
C -2.423463 6.124492 -2.409869 6.056309 -2.383463 5.992718 
C -2.357056 5.929126 -2.318353 5.87137 -2.269578 5.822767 
L -0.329536 3.884106 
L -0.329536 0.820937 
L -2.98067 2.351538 
L -3.691824 5.001416 
L -3.691824 5.001416 
C -3.727584 5.135411 -3.815199 5.249836 -3.93523 5.319305 
C -4.055261 5.388775 -4.198123 5.407741 -4.332122 5.371997 
L -4.332122 5.371997 
C -4.466126 5.336237 -4.580558 5.248616 -4.650029 5.128576 
C -4.719499 5.008535 -4.73846 4.865662 -4.702703 4.731657 
L -4.262647 3.092721 
L -5.585535 3.855668 
L -5.585535 3.855668 
C -5.645013 3.890144 -5.710708 3.912561 -5.778854 3.921634 
C -5.847001 3.930706 -5.916272 3.926258 -5.982698 3.908543 
C -6.049125 3.890828 -6.111412 3.860192 -6.165991 3.818391 
C -6.220571 3.77659 -6.266379 3.724437 -6.300791 3.664922 
L -6.300791 3.664922 
C -6.335212 3.605364 -6.35755 3.539597 -6.366524 3.471396 
C -6.375498 3.403194 -6.370933 3.333888 -6.35309 3.267452 
C -6.335248 3.201017 -6.304476 3.138749 -6.26254 3.08422 
C -6.220605 3.029692 -6.168323 2.983966 -6.108695 2.949666 
L -4.785807 2.186762 
L -6.424743 1.746706 
L -6.424743 1.746706 
C -6.558747 1.710946 -6.673179 1.623325 -6.74265 1.503284 
C -6.81212 1.383244 -6.831081 1.240371 -6.795324 1.106366 
L -6.795324 1.106366 
C -6.777471 1.039969 -6.746703 0.977739 -6.704784 0.923241 
C -6.662864 0.868744 -6.61061 0.823041 -6.551015 0.788752 
C -6.491421 0.754464 -6.425647 0.732257 -6.357465 0.723406 
C -6.289282 0.714554 -6.220019 0.71923 -6.153645 0.737166 
L -3.505232 1.44698 
L -0.852424 -0.08496 
L -3.503767 -1.615666 
L -6.153645 -0.905851 
L -6.153645 -0.905851 
C -6.22011 -0.887939 -6.289462 -0.883321 -6.357716 -0.892262 
C -6.42597 -0.901202 -6.491793 -0.923527 -6.551403 -0.957953 
C -6.611013 -0.992379 -6.663247 -1.038234 -6.705103 -1.092883 
C -6.746958 -1.147533 -6.777619 -1.209911 -6.795324 -1.276432 
L -6.795324 -1.276432 
C -6.831068 -1.410431 -6.812101 -1.553293 -6.742632 -1.673324 
C -6.673162 -1.793355 -6.558738 -1.88097 -6.424743 -1.91673 
L -4.785807 -2.355447 
L -6.108695 -3.119732 
L -6.108695 -3.119732 
C -6.228699 -3.188976 -6.316415 -3.303132 -6.352417 -3.436921 
C -6.388419 -3.57071 -6.369839 -3.713469 -6.300791 -3.833586 
L -6.300791 -3.833586 
C -6.266491 -3.893214 -6.220765 -3.945496 -6.166237 -3.987431 
C -6.111708 -4.029367 -6.04944 -4.060139 -5.983005 -4.077981 
C -5.91657 -4.095823 -5.847263 -4.100389 -5.779062 -4.091415 
C -5.71086 -4.082441 -5.645094 -4.060102 -5.585535 -4.025682 
L -4.262647 -3.261396 
L -4.702703 -4.900332 
L -4.702703 -4.900332 
C -4.73846 -5.034337 -4.719499 -5.17721 -4.650029 -5.29725 
C -4.580558 -5.417291 -4.466126 -5.504912 -4.332122 -5.540672 
L -4.332122 -5.540672 
C -4.19831 -5.576464 -4.055613 -5.557686 -3.935617 -5.488496 
C -3.81562 -5.419305 -3.727882 -5.305212 -3.691824 -5.171472 
L -2.982009 -2.521594 
L -0.329411 -0.990302 
L -0.329411 -4.051588 
L -2.269453 -5.991589 
L -2.269453 -5.991589 
C -2.318227 -6.040191 -2.356931 -6.097947 -2.383337 -6.161539 
C -2.409744 -6.22513 -2.423338 -6.293314 -2.423338 -6.36217 
C -2.423338 -6.431026 -2.409744 -6.499209 -2.383337 -6.5628 
C -2.356931 -6.626392 -2.318227 -6.684149 -2.269453 -6.732751 
L -2.269453 -6.732751 
C -2.22085 -6.781526 -2.163094 -6.820229 -2.099502 -6.846635 
C -2.035911 -6.873042 -1.967728 -6.886636 -1.898871 -6.886636 
C -1.830015 -6.886636 -1.761832 -6.873042 -1.698241 -6.846635 
C -1.634649 -6.820229 -1.576893 -6.781526 -1.52829 -6.732751 
L -0.329411 -5.533829 
L -0.329411 -7.059722 
L -0.329411 -7.059722 
C -0.329411 -7.198418 -0.274255 -7.331575 -0.176182 -7.429647 
C -0.07811 -7.52772 0.055047 -7.582875 0.193743 -7.582875 
L 0.193743 -7.582875 
C 0.332439 -7.582875 0.465596 -7.52772 0.563669 -7.429647 
C 0.661741 -7.331575 0.716897 -7.198418 0.716897 -7.059722 
L 0.716897 -5.533829 
L 1.915777 -6.732751 
L 1.915777 -6.732751 
C 1.964379 -6.781526 2.022136 -6.820229 2.085727 -6.846635 
C 2.149318 -6.873042 2.217502 -6.886636 2.286358 -6.886636 
C 2.355214 -6.886636 2.423397 -6.873042 2.486989 -6.846635 
C 2.55058 -6.820229 2.608337 -6.781526 2.656939 -6.732751 
L 2.656939 -6.732751 
C 2.705714 -6.684149 2.744417 -6.626392 2.770823 -6.5628 
C 2.79723 -6.499209 2.810824 -6.431026 2.810824 -6.36217 
C 2.810824 -6.293314 2.79723 -6.22513 2.770823 -6.161539 
C 2.744417 -6.097947 2.705714 -6.040191 2.656939 -5.991589 
L 0.716897 -4.051588 
L 0.716897 -0.991139 
L 3.369495 -2.522954 
L 4.07931 -5.171367 
L 4.07931 -5.171367 
C 4.115368 -5.305107 4.203106 -5.4192 4.323103 -5.488391 
C 4.4431 -5.557582 4.585797 -5.576359 4.719608 -5.540567 
L 4.719608 -5.540567 
C 4.853612 -5.504807 4.968045 -5.417186 5.037515 -5.297146 
C 5.106986 -5.177105 5.125946 -5.034232 5.090189 -4.900227 
L 4.650133 -3.262673 
L 5.973022 -4.025577 
L 5.973022 -4.025577 
C 6.03258 -4.059998 6.098346 -4.082336 6.166548 -4.09131 
C 6.234749 -4.100284 6.304056 -4.095719 6.370491 -4.077876 
C 6.436926 -4.060034 6.499194 -4.029262 6.553723 -3.987327 
C 6.608252 -3.945391 6.653978 -3.893109 6.688277 -3.833481 
L 6.688277 -3.833481 
C 6.757325 -3.713365 6.775905 -3.570605 6.739903 -3.436816 
C 6.703901 -3.303027 6.616186 -3.188871 6.496181 -3.119628 
L 5.173293 -2.355342 
L 6.812229 -1.916625 
L 6.812229 -1.916625 
C 6.946224 -1.880865 7.060649 -1.79325 7.130118 -1.67322 
C 7.199588 -1.553189 7.218554 -1.410326 7.18281 -1.276327 
L 7.18281 -1.276327 
C 7.165106 -1.209806 7.134445 -1.147429 7.092589 -1.092779 
C 7.050733 -1.038129 6.998499 -0.992274 6.938889 -0.957848 
C 6.879279 -0.923422 6.813456 -0.901098 6.745202 -0.892157 
C 6.676949 -0.883217 6.607597 -0.887835 6.541131 -0.905746 
L 3.891253 -1.615561 
L 1.239492 -0.084604 
L 3.892718 1.447085 
L 6.541131 0.73727 
L 6.541131 0.73727 
C 6.674948 0.701466 6.817656 0.720237 6.937662 0.789429 
C 7.057669 0.858621 7.145413 0.972721 7.181471 1.10647 
L 7.181471 1.10647 
C 7.217274 1.240293 7.198497 1.383006 7.129297 1.503014 
C 7.060096 1.623021 6.945986 1.710762 6.812229 1.74681 
L 5.173293 2.186866 
L 6.496181 2.949771 
L 6.496181 2.949771 
C 6.555697 2.984183 6.607849 3.029991 6.649651 3.08457 
C 6.691452 3.13915 6.722088 3.201437 6.739803 3.267863 
C 6.757517 3.33429 6.761966 3.403561 6.752893 3.471707 
C 6.743821 3.539854 6.721404 3.605549 6.686927 3.665026 
L 6.686927 3.665026 
C 6.617458 3.784813 6.503196 3.87225 6.369416 3.907994 
C 6.235636 3.943739 6.092989 3.924946 5.973032 3.855772 
L 4.650144 3.091487 
L 5.08886 4.731783 
L 5.08886 4.731783 
C 5.124664 4.865606 5.105887 5.008319 5.036686 5.128326 
C 4.967486 5.248334 4.853376 5.336074 4.719619 5.372123 
L 4.719619 5.372123 
C 4.585619 5.407867 4.442757 5.3889 4.322726 5.319431 
C 4.202695 5.249961 4.115081 5.135537 4.07932 5.001542 
L 3.368166 2.351664 
L 0.717033 0.821063 
L 0.717033 3.884232 
L 2.657075 5.822893 
L 2.657075 5.822893 
C 2.70585 5.871495 2.744553 5.929252 2.770959 5.992843 
C 2.797366 6.056435 2.81096 6.124618 2.81096 6.193474 
C 2.81096 6.26233 2.797366 6.330514 2.770959 6.394105 
C 2.744553 6.457696 2.70585 6.515453 2.657075 6.564055 
L 2.657075 6.564055 
C 2.608473 6.61283 2.550716 6.651533 2.487125 6.67794 
C 2.423533 6.704346 2.35535 6.71794 2.286494 6.71794 
C 2.217638 6.71794 2.149454 6.704346 2.085863 6.67794 
C 2.022272 6.651533 1.964515 6.61283 1.915913 6.564055 
L 0.717033 5.365133 
L 0.717033 6.891026 
L 0.717033 6.891026 
C 0.717033 7.029722 0.661877 7.162879 0.563805 7.260952 
C 0.465732 7.359024 0.332575 7.41418 0.193879 7.41418 
L 0.193618 7.414054 
z
"/>
    </defs>
    <g clip-path="url(#pfa23a4d85b)">
     <use xlink:href="#m5400b195f3" x="53.214594" y="99.001943" style="fill: #9e2096; fill-opacity: 0.7"/>
    </g>
   </g>
   <g id="patch_163">
    <path d="M 125.254844 13.699062 
C 110.694216 13.699062 96.275171 16.567189 82.822905 22.1393 
C 69.370638 27.711411 57.146763 35.879144 46.850844 46.175063 
C 36.554925 56.470982 28.387192 68.694857 22.815081 82.147124 
C 17.24297 95.59939 14.374844 110.018434 14.374844 124.579063 
C 14.374844 139.139691 17.24297 153.558735 22.815081 167.011001 
C 28.387192 180.463268 36.554925 192.687143 46.850844 202.983062 
C 57.146763 213.278981 69.370638 221.446714 82.822905 227.018825 
C 96.275171 232.590936 110.694216 235.459063 125.254844 235.459063 
C 139.815472 235.459063 154.234516 232.590936 167.686783 227.018825 
C 181.139049 221.446714 193.362925 213.278981 203.658844 202.983062 
C 213.954763 192.687143 222.122495 180.463268 227.694606 167.011001 
C 233.266717 153.558735 236.134844 139.139691 236.134844 124.579062 
C 236.134844 110.018434 233.266717 95.59939 227.694606 82.147124 
C 222.122495 68.694857 213.954763 56.470982 203.658844 46.175063 
C 193.362925 35.879144 181.139049 27.711411 167.686783 22.1393 
C 154.234516 16.567189 139.815472 13.699062 125.254844 13.699062 
" style="fill: none; stroke: #000000; stroke-width: 0.8; stroke-linejoin: miter; stroke-linecap: square"/>
   </g>
  </g>
 </g>
 <defs>
  <clipPath id="pfa23a4d85b">
   <path d="M 236.134844 124.579063 
C 236.134844 110.018434 233.266717 95.59939 227.694606 82.147124 
C 222.122495 68.694857 213.954763 56.470982 203.658844 46.175063 
C 193.362925 35.879144 181.139049 27.711411 167.686783 22.1393 
C 154.234516 16.567189 139.815472 13.699062 125.254844 13.699062 
C 110.694216 13.699062 96.275171 16.567189 82.822905 22.1393 
C 69.370638 27.711411 57.146763 35.879144 46.850844 46.175063 
C 36.554925 56.470982 28.387192 68.694857 22.815081 82.147124 
C 17.24297 95.59939 14.374844 110.018434 14.374844 124.579062 
C 14.374844 139.139691 17.24297 153.558735 22.815081 167.011001 
C 28.387192 180.463268 36.554925 192.687143 46.850844 202.983062 
C 57.146763 213.278981 69.370638 221.446714 82.822905 227.018825 
C 96.275171 232.590936 110.694216 235.459063 125.254844 235.459063 
C 139.815472 235.459063 154.234516 232.590936 167.686783 227.018825 
C 181.139049 221.446714 193.362925 213.278981 203.658844 202.983062 
C 213.954763 192.687143 222.122495 180.463268 227.694606 167.011001 
C 233.266717 153.558735 236.134844 139.139691 236.134844 124.579063 
M 125.254844 124.579063 
C 125.254844 124.579063 125.254844 124.579063 125.254844 124.579063 
C 125.254844 124.579063 125.254844 124.579063 125.254844 124.579063 
C 125.254844 124.579063 125.254844 124.579063 125.254844 124.579063 
C 125.254844 124.579063 125.254844 124.579063 125.254844 124.579063 
C 125.254844 124.579063 125.254844 124.579063 125.254844 124.579063 
C 125.254844 124.579063 125.254844 124.579063 125.254844 124.579063 
C 125.254844 124.579063 125.254844 124.579063 125.254844 124.579063 
C 125.254844 124.579063 125.254844 124.579063 125.254844 124.579063 
C 125.254844 124.579063 125.254844 124.579063 125.254844 124.579063 
C 125.254844 124.579063 125.254844 124.579063 125.254844 124.579063 
C 125.254844 124.579063 125.254844 124.579063 125.254844 124.579063 
C 125.254844 124.579063 125.254844 124.579063 125.254844 124.579063 
C 125.254844 124.579063 125.254844 124.579063 125.254844 124.579063 
C 125.254844 124.579063 125.254844 124.579063 125.254844 124.579063 
C 125.254844 124.579063 125.254844 124.579063 125.254844 124.579063 
C 125.254844 124.579063 125.254844 124.579063 125.254844 124.579063 
z
"/>
  </clipPath>
 </defs>
</svg>
