<?xml version="1.0" encoding="utf-8" standalone="no"?>
<!DOCTYPE svg PUBLIC "-//W3C//DTD SVG 1.1//EN"
  "http://www.w3.org/Graphics/SVG/1.1/DTD/svg11.dtd">
<svg xmlns:xlink="http://www.w3.org/1999/xlink" width="248.410469pt" height="249.158125pt" viewBox="0 0 248.410469 249.158125" xmlns="http://www.w3.org/2000/svg" version="1.1">
 <title>Ski Rose for さっぽろばんけいスキー場, Sapporo Bankei Ski Area</title>
 <metadata>
  <rdf:RDF xmlns:dc="http://purl.org/dc/elements/1.1/" xmlns:cc="http://creativecommons.org/ns#" xmlns:rdf="http://www.w3.org/1999/02/22-rdf-syntax-ns#">
   <cc:Work>
    <dc:type rdf:resource="http://purl.org/dc/dcmitype/StillImage"/>
    <dc:title>Ski Rose for さっぽろばんけいスキー場, Sapporo Bankei Ski Area</dc:title>
    <dc:date>2025-08-09T10:44:17.974421</dc:date>
    <dc:description>A 32-bin stacked histogram of downhill ski run orientations colored by difficulty.</dc:description>
    <dc:format>image/svg+xml</dc:format>
    <dc:source>https://openskimap.org/?obj=9ade9d864d990e2d6af84fdb027b9cefbba2f778</dc:source>
    <dc:creator>
     <cc:Agent>
      <dc:title>https://github.com/dhimmel/openskistats</dc:title>
     </cc:Agent>
    </dc:creator>
    <dc:rights>
     <cc:Agent>
      <dc:title>https://creativecommons.org/licenses/by/4.0/</dc:title>
     </cc:Agent>
    </dc:rights>
   </cc:Work>
  </rdf:RDF>
 </metadata>
 <defs>
  <style type="text/css">*{stroke-linejoin: round; stroke-linecap: butt}</style>
 </defs>
 <g id="figure_1">
  <g id="patch_1">
   <path d="M 0 249.158125 
L 248.410469 249.158125 
L 248.410469 0 
L 0 0 
z
" style="fill: #ffffff"/>
  </g>
  <g id="axes_1">
   <g id="patch_2">
    <path d="M 236.134844 124.579063 
C 236.134844 110.018434 233.266717 95.59939 227.694606 82.147124 
C 222.122495 68.694857 213.954763 56.470982 203.658844 46.175063 
C 193.362925 35.879144 181.139049 27.711411 167.686783 22.1393 
C 154.234516 16.567189 139.815472 13.699063 125.254844 13.699063 
C 110.694216 13.699063 96.275171 16.567189 82.822905 22.1393 
C 69.370638 27.711411 57.146763 35.879144 46.850844 46.175063 
C 36.554925 56.470982 28.387192 68.694857 22.815081 82.147124 
C 17.24297 95.59939 14.374844 110.018434 14.374844 124.579062 
C 14.374844 139.139691 17.24297 153.558735 22.815081 167.011001 
C 28.387192 180.463268 36.554925 192.687143 46.850844 202.983062 
C 57.146763 213.278981 69.370638 221.446714 82.822905 227.018825 
C 96.275171 232.590936 110.694216 235.459063 125.254844 235.459063 
C 139.815472 235.459063 154.234516 232.590936 167.686783 227.018825 
C 181.139049 221.446714 193.362925 213.278981 203.658844 202.983062 
C 213.954763 192.687143 222.122495 180.463268 227.694606 167.011001 
C 233.266717 153.558735 236.134844 139.139691 236.134844 124.579063 
M 125.254844 124.579063 
C 125.254844 124.579063 125.254844 124.579063 125.254844 124.579063 
C 125.254844 124.579063 125.254844 124.579063 125.254844 124.579063 
C 125.254844 124.579063 125.254844 124.579063 125.254844 124.579063 
C 125.254844 124.579063 125.254844 124.579063 125.254844 124.579063 
C 125.254844 124.579063 125.254844 124.579063 125.254844 124.579063 
C 125.254844 124.579063 125.254844 124.579063 125.254844 124.579063 
C 125.254844 124.579063 125.254844 124.579063 125.254844 124.579063 
C 125.254844 124.579063 125.254844 124.579063 125.254844 124.579063 
C 125.254844 124.579063 125.254844 124.579063 125.254844 124.579063 
C 125.254844 124.579063 125.254844 124.579063 125.254844 124.579063 
C 125.254844 124.579063 125.254844 124.579063 125.254844 124.579063 
C 125.254844 124.579063 125.254844 124.579063 125.254844 124.579063 
C 125.254844 124.579063 125.254844 124.579063 125.254844 124.579063 
C 125.254844 124.579063 125.254844 124.579063 125.254844 124.579063 
C 125.254844 124.579063 125.254844 124.579063 125.254844 124.579063 
C 125.254844 124.579063 125.254844 124.579063 125.254844 124.579063 
z
" style="fill: #ffffff"/>
   </g>
   <g id="PolyCollection_1">
    <defs>
     <path id="m9b08f2c09d" d="M 235.416871 -137.13044 
L 234.851822 -137.066061 
L 233.868185 -135.037338 
L 232.789834 -133.04225 
L 231.639514 -131.085828 
L 230.432389 -129.171213 
L 229.17773 -127.300379 
L 227.881555 -125.474672 
L 226.548133 -123.695089 
L 225.403686 -121.956573 
L 224.00521 -120.267528 
L 222.577683 -118.626543 
L 221.12333 -117.034049 
L 219.644236 -115.490398 
L 218.363733 -113.970645 
L 216.840187 -112.521623 
L 215.297543 -111.122091 
L 213.95596 -109.735586 
L 212.379329 -108.431494 
L 211.004524 -107.133093 
L 209.4006 -105.924397 
L 207.998654 -104.714031 
L 206.584511 -103.54578 
L 205.159543 -102.419528 
L 203.518615 -101.396277 
L 202.078252 -100.356735 
L 200.631271 -99.358463 
L 199.179018 -98.401139 
L 197.722833 -97.484392 
L 196.264046 -96.607794 
L 194.995619 -95.691487 
L 193.532667 -94.89102 
L 192.070916 -94.129224 
L 190.794524 -93.318239 
L 189.335752 -92.6295 
L 188.058455 -91.885572 
L 186.607208 -91.267447 
L 185.333069 -90.588438 
L 184.060344 -89.939976 
L 182.626702 -89.421542 
L 181.362874 -88.834305 
L 180.103108 -88.275788 
L 178.84822 -87.745356 
L 177.599003 -87.242336 
L 176.854089 -86.39763 
L 175.611644 -85.938931 
L 174.376909 -85.505607 
L 173.284041 -84.986848 
L 172.062759 -84.601326 
L 170.851129 -84.238877 
L 169.771544 -83.787022 
L 168.576847 -83.468017 
L 167.507465 -83.057527 
L 166.331716 -82.778933 
L 165.274316 -82.407338 
L 164.119295 -82.165956 
L 163.075443 -81.830651 
L 162.037027 -81.512659 
L 160.913719 -81.321388 
L 159.890782 -81.035721 
L 158.87412 -80.765569 
L 157.863965 -80.510365 
L 156.860523 -80.269535 
L 155.863975 -80.0425 
L 154.874478 -79.828677 
L 153.892161 -79.627479 
L 152.917128 -79.438317 
L 151.949457 -79.260602 
L 150.989199 -79.093744 
L 150.036376 -78.937158 
L 149.090986 -78.790259 
L 148.152999 -78.652468 
L 147.263688 -78.436562 
L 146.337192 -78.318071 
L 145.417931 -78.207137 
L 144.505771 -78.103213 
L 143.630451 -77.929865 
L 142.729235 -77.841681 
L 141.834673 -77.759069 
L 140.968923 -77.614631 
L 140.084513 -77.545361 
L 139.206118 -77.48035 
L 138.349245 -77.362177 
L 137.479881 -77.30835 
L 136.615716 -77.257624 
L 135.766647 -77.163383 
L 134.910097 -77.121978 
L 134.065037 -77.043515 
L 133.215103 -77.010426 
L 132.373494 -76.94706 
L 131.52909 -76.921432 
L 130.690309 -76.872593 
L 129.850271 -76.85373 
L 129.012325 -76.835736 
L 128.176748 -76.806346 
L 127.341169 -76.794366 
L 126.506543 -76.778604 
L 125.672046 -76.772387 
L 124.837638 -76.772044 
L 124.003214 -76.781233 
L 123.168354 -76.790597 
L 122.333367 -76.813341 
L 121.496798 -76.82857 
L 120.660507 -76.865049 
L 119.820961 -76.886482 
L 118.982648 -76.937008 
L 118.138898 -76.965159 
L 117.297888 -77.030171 
L 116.448767 -77.065722 
L 115.604433 -77.145777 
L 114.748847 -77.189572 
L 113.888727 -77.235779 
L 113.037571 -77.338375 
L 112.169394 -77.394456 
L 111.31355 -77.514044 
L 110.436477 -77.581209 
L 109.55346 -77.652573 
L 108.688904 -77.798293 
L 107.795858 -77.882884 
L 106.89622 -77.972981 
L 106.022244 -78.14746 
L 105.111773 -78.25317 
L 104.194255 -78.365818 
L 103.269556 -78.485949 
L 102.381763 -78.70276 
L 101.445663 -78.842053 
L 100.502206 -78.990375 
L 99.551358 -79.148305 
L 98.593113 -79.316426 
L 97.627493 -79.495324 
L 96.654546 -79.685587 
L 95.674345 -79.887804 
L 94.686993 -80.102564 
L 93.692618 -80.330453 
L 92.691371 -80.572055 
L 91.683433 -80.827949 
L 90.669008 -81.098707 
L 89.648323 -81.384899 
L 88.527666 -81.577063 
L 87.491531 -81.895402 
L 86.44997 -82.230974 
L 85.297634 -82.472949 
L 84.242538 -82.844637 
L 83.183077 -83.235252 
L 82.002412 -83.534037 
L 80.81041 -83.853242 
L 79.733132 -84.304854 
L 78.52419 -84.667314 
L 77.438669 -85.16245 
L 76.215012 -85.571019 
L 74.98294 -86.004074 
L 73.743146 -86.462411 
L 72.49635 -86.946795 
L 71.243297 -87.457955 
L 69.984758 -87.996591 
L 68.721524 -88.563366 
L 67.45441 -89.158911 
L 66.18425 -89.783824 
L 64.742374 -90.342754 
L 63.465493 -91.030182 
L 62.188265 -91.748679 
L 60.732372 -92.409345 
L 59.454254 -93.193791 
L 57.993341 -93.92623 
L 56.530119 -94.696702 
L 55.257107 -95.585051 
L 53.795914 -96.430642 
L 52.336175 -97.315889 
L 50.879208 -98.241268 
L 49.426342 -99.207201 
L 47.978915 -100.214056 
L 46.538272 -101.262152 
L 45.105766 -102.351756 
L 43.472746 -103.428774 
L 42.058819 -104.605464 
L 40.657253 -105.824228 
L 39.054321 -107.041368 
L 37.68023 -108.348067 
L 36.104937 -109.660484 
L 34.764411 -111.055177 
L 33.223469 -112.462902 
L 31.701822 -113.920042 
L 30.422937 -115.447788 
L 28.94617 -116.999405 
L 27.494398 -118.599777 
L 26.069748 -120.248548 
L 24.896832 -121.951095 
L 23.533089 -123.69135 
L 22.203879 -125.478375 
L 20.91275 -127.311356 
L 19.664406 -129.189241 
L 18.465666 -131.110568 
L 17.536387 -133.056689 
L 16.467166 -135.054124 
L 15.495639 -137.084544 
L 15.120832 -137.127248 
L 15.120832 -137.127248 
L 14.888037 -135.206177 
L 14.813063 -133.271019 
L 14.614536 -131.346114 
L 14.481026 -129.415552 
L 14.536166 -127.478333 
L 14.43532 -125.54617 
L 14.401196 -123.611657 
L 14.517957 -121.679315 
L 14.51239 -119.743943 
L 14.725897 -117.818823 
L 14.782089 -115.884668 
L 14.910331 -113.954094 
L 15.21567 -112.041682 
L 15.364657 -110.111745 
L 15.728541 -108.210247 
L 15.937589 -106.285628 
L 16.359516 -104.396506 
L 16.628991 -102.478883 
L 17.109029 -100.603713 
L 17.439636 -98.694921 
L 17.978058 -96.835399 
L 18.424726 -94.952449 
L 18.967609 -93.095349 
L 19.593464 -91.264157 
L 20.13498 -89.406448 
L 20.76406 -87.576935 
L 21.421644 -85.75742 
L 22.165501 -83.97109 
L 22.834145 -82.15502 
L 23.585349 -80.371908 
L 24.371159 -78.603719 
L 25.194371 -76.852665 
L 26.057791 -75.121237 
L 26.964104 -73.412142 
L 27.836021 -71.684957 
L 28.750915 -69.979767 
L 29.734015 -68.312995 
L 30.7296 -66.653919 
L 31.756583 -65.014101 
L 33.355101 -63.75195 
L 35.183314 -62.674615 
L 37.10894 -61.7052 
L 38.980594 -60.739476 
L 40.931848 -59.875753 
L 42.818773 -59.006451 
L 44.701974 -58.176401 
L 46.585807 -57.389358 
L 48.461265 -56.637843 
L 50.333598 -55.926389 
L 52.194626 -55.247505 
L 53.991177 -54.548452 
L 55.838252 -53.940225 
L 57.619406 -53.306183 
L 59.392624 -52.703062 
L 61.157223 -52.129882 
L 62.912584 -51.585655 
L 64.65814 -51.069383 
L 66.393382 -50.580063 
L 68.117849 -50.116681 
L 69.831133 -49.678216 
L 71.493341 -49.208215 
L 73.185147 -48.817184 
L 74.831583 -48.397826 
L 76.466723 -47.997053 
L 78.125224 -47.670513 
L 79.743009 -47.315299 
L 81.349175 -46.976055 
L 82.948244 -46.659999 
L 84.535661 -46.358241 
L 86.11573 -46.078145 
L 87.684266 -45.810708 
L 89.224762 -45.518263 
L 90.777935 -45.2876 
L 92.319993 -45.067298 
L 93.83845 -44.8239 
L 95.365473 -44.636308 
L 96.870083 -44.422971 
L 98.37947 -44.257036 
L 99.8709 -44.07148 
L 101.366495 -43.93335 
L 102.84547 -43.77347 
L 104.319088 -43.626501 
L 105.793367 -43.516176 
L 107.256122 -43.392077 
L 108.714292 -43.279656 
L 110.168152 -43.17856 
L 111.617994 -43.088464 
L 113.064126 -43.009066 
L 114.506869 -42.940093 
L 115.946559 -42.881296 
L 117.383541 -42.832455 
L 118.818171 -42.79338 
L 120.251414 -42.773711 
L 121.682186 -42.751753 
L 123.11179 -42.739153 
L 124.540605 -42.735384 
L 125.969112 -42.732071 
L 127.398044 -42.733546 
L 128.827826 -42.744315 
L 130.25884 -42.764452 
L 131.691463 -42.794058 
L 133.126069 -42.833266 
L 134.563021 -42.882239 
L 136.002677 -42.941167 
L 137.445382 -43.01027 
L 138.89147 -43.089795 
L 140.341265 -43.180016 
L 141.795074 -43.281235 
L 143.253188 -43.393778 
L 144.721777 -43.493448 
L 146.190207 -43.628019 
L 147.663772 -43.775077 
L 149.142691 -43.935042 
L 150.638063 -44.073776 
L 152.129415 -44.259436 
L 153.638911 -44.424928 
L 155.143455 -44.63834 
L 156.670167 -44.826618 
L 158.188532 -45.070105 
L 159.73077 -45.28986 
L 161.283559 -45.521262 
L 162.823955 -45.813784 
L 164.392732 -46.080604 
L 165.972339 -46.361482 
L 167.560043 -46.662578 
L 169.158597 -46.979442 
L 170.765097 -47.317983 
L 172.382311 -47.674026 
L 174.040684 -48.000632 
L 175.676237 -48.400647 
L 177.322015 -48.820859 
L 179.01369 -49.211939 
L 180.676394 -49.681136 
L 182.389576 -50.11963 
L 184.11394 -50.583037 
L 185.849079 -51.072377 
L 187.594533 -51.588664 
L 189.349792 -52.132902 
L 191.11429 -52.706089 
L 192.887407 -53.309212 
L 194.724457 -53.886271 
L 196.51454 -54.552354 
L 198.36919 -55.196138 
L 200.172818 -55.929387 
L 202.044072 -56.641692 
L 203.920422 -57.392312 
L 205.803131 -58.180179 
L 207.687294 -59.009331 
L 209.573066 -59.879415 
L 211.524256 -60.743055 
L 213.396996 -61.707876 
L 215.322654 -62.677171 
L 217.149863 -63.755076 
L 218.75362 -65.013773 
L 219.78469 -66.651098 
L 220.77553 -68.313079 
L 221.746075 -69.986951 
L 222.666607 -71.688791 
L 223.563782 -73.402668 
L 224.48344 -75.105509 
L 225.31107 -76.85469 
L 226.146613 -78.600034 
L 226.935325 -80.367131 
L 227.667206 -82.158473 
L 228.32446 -83.978861 
L 229.073684 -85.762789 
L 229.690094 -87.596601 
L 230.385006 -89.403002 
L 230.967812 -91.247892 
L 231.562605 -93.089269 
L 232.027157 -94.968479 
L 232.524168 -96.837329 
L 232.976614 -98.717354 
L 233.489557 -100.584004 
L 233.860204 -102.483052 
L 234.187337 -104.389618 
L 234.590162 -106.282605 
L 234.898165 -108.192758 
L 235.099335 -110.117761 
L 235.391214 -112.030608 
L 235.56658 -113.95725 
L 235.785858 -115.880083 
L 235.878625 -117.813022 
L 236.026535 -119.742666 
L 235.99668 -121.679185 
L 236.119261 -123.611563 
L 236.017678 -125.545675 
L 236.070323 -127.480868 
L 235.900481 -129.409955 
L 235.886214 -131.345567 
L 235.651594 -133.267475 
L 235.52798 -135.197158 
L 235.416871 -137.13044 
z
" style="stroke: #ffee9c"/>
    </defs>
    <g clip-path="url(#p1b65943d37)">
     <use xlink:href="#m9b08f2c09d" x="0" y="249.158125" style="fill: #ffee9c; stroke: #ffee9c"/>
    </g>
   </g>
   <g id="matplotlib.axis_1">
    <g id="xtick_1">
     <g id="line2d_1">
      <path d="M 125.254844 124.579063 
L 125.254844 13.699063 
" clip-path="url(#p1b65943d37)" style="fill: none; stroke: #b0b0b0; stroke-width: 0.8; stroke-linecap: square"/>
     </g>
     <g id="text_1">
      <!-- N -->
      <g transform="translate(121.070469 7.958438) scale(0.1 -0.1)">
       <defs>
        <path id="DejaVuSans-Bold-4e" d="M 588 4666 
L 1931 4666 
L 3628 1466 
L 3628 4666 
L 4769 4666 
L 4769 0 
L 3425 0 
L 1728 3200 
L 1728 0 
L 588 0 
L 588 4666 
z
" transform="scale(0.015625)"/>
       </defs>
       <use xlink:href="#DejaVuSans-Bold-4e"/>
      </g>
     </g>
    </g>
    <g id="xtick_2">
     <g id="line2d_2">
      <path d="M 125.254844 124.579063 
L 203.658844 46.175063 
" clip-path="url(#p1b65943d37)" style="fill: none; stroke: #b0b0b0; stroke-width: 0.8; stroke-linecap: square"/>
     </g>
    </g>
    <g id="xtick_3">
     <g id="line2d_3">
      <path d="M 125.254844 124.579063 
L 236.134844 124.579063 
" clip-path="url(#p1b65943d37)" style="fill: none; stroke: #b0b0b0; stroke-width: 0.8; stroke-linecap: square"/>
     </g>
     <g id="text_2">
      <!-- E -->
      <g transform="translate(241.219219 127.338438) scale(0.1 -0.1)">
       <defs>
        <path id="DejaVuSans-Bold-45" d="M 588 4666 
L 3834 4666 
L 3834 3756 
L 1791 3756 
L 1791 2888 
L 3713 2888 
L 3713 1978 
L 1791 1978 
L 1791 909 
L 3903 909 
L 3903 0 
L 588 0 
L 588 4666 
z
" transform="scale(0.015625)"/>
       </defs>
       <use xlink:href="#DejaVuSans-Bold-45"/>
      </g>
     </g>
    </g>
    <g id="xtick_4">
     <g id="line2d_4">
      <path d="M 125.254844 124.579063 
L 203.658844 202.983062 
" clip-path="url(#p1b65943d37)" style="fill: none; stroke: #b0b0b0; stroke-width: 0.8; stroke-linecap: square"/>
     </g>
    </g>
    <g id="xtick_5">
     <g id="line2d_5">
      <path d="M 125.254844 124.579063 
L 125.254844 235.459063 
" clip-path="url(#p1b65943d37)" style="fill: none; stroke: #b0b0b0; stroke-width: 0.8; stroke-linecap: square"/>
     </g>
     <g id="text_3">
      <!-- S -->
      <g transform="translate(121.654062 246.718438) scale(0.1 -0.1)">
       <defs>
        <path id="DejaVuSans-Bold-53" d="M 3834 4519 
L 3834 3531 
Q 3450 3703 3084 3790 
Q 2719 3878 2394 3878 
Q 1963 3878 1756 3759 
Q 1550 3641 1550 3391 
Q 1550 3203 1689 3098 
Q 1828 2994 2194 2919 
L 2706 2816 
Q 3484 2659 3812 2340 
Q 4141 2022 4141 1434 
Q 4141 663 3683 286 
Q 3225 -91 2284 -91 
Q 1841 -91 1394 -6 
Q 947 78 500 244 
L 500 1259 
Q 947 1022 1364 901 
Q 1781 781 2169 781 
Q 2563 781 2772 912 
Q 2981 1044 2981 1288 
Q 2981 1506 2839 1625 
Q 2697 1744 2272 1838 
L 1806 1941 
Q 1106 2091 782 2419 
Q 459 2747 459 3303 
Q 459 4000 909 4375 
Q 1359 4750 2203 4750 
Q 2588 4750 2994 4692 
Q 3400 4634 3834 4519 
z
" transform="scale(0.015625)"/>
       </defs>
       <use xlink:href="#DejaVuSans-Bold-53"/>
      </g>
     </g>
    </g>
    <g id="xtick_6">
     <g id="line2d_6">
      <path d="M 125.254844 124.579063 
L 46.850844 202.983062 
" clip-path="url(#p1b65943d37)" style="fill: none; stroke: #b0b0b0; stroke-width: 0.8; stroke-linecap: square"/>
     </g>
    </g>
    <g id="xtick_7">
     <g id="line2d_7">
      <path d="M 125.254844 124.579063 
L 14.374844 124.579063 
" clip-path="url(#p1b65943d37)" style="fill: none; stroke: #b0b0b0; stroke-width: 0.8; stroke-linecap: square"/>
     </g>
     <g id="text_4">
      <!-- W -->
      <g transform="translate(0.36 127.338438) scale(0.1 -0.1)">
       <defs>
        <path id="DejaVuSans-Bold-57" d="M 191 4666 
L 1344 4666 
L 2150 1275 
L 2950 4666 
L 4109 4666 
L 4909 1275 
L 5716 4666 
L 6859 4666 
L 5759 0 
L 4372 0 
L 3525 3547 
L 2688 0 
L 1300 0 
L 191 4666 
z
" transform="scale(0.015625)"/>
       </defs>
       <use xlink:href="#DejaVuSans-Bold-57"/>
      </g>
     </g>
    </g>
    <g id="xtick_8">
     <g id="line2d_8">
      <path d="M 125.254844 124.579063 
L 46.850844 46.175063 
" clip-path="url(#p1b65943d37)" style="fill: none; stroke: #b0b0b0; stroke-width: 0.8; stroke-linecap: square"/>
     </g>
    </g>
   </g>
   <g id="matplotlib.axis_2"/>
   <g id="patch_3">
    <path d="M 125.254844 124.579063 
C 125.254844 124.579063 125.254844 124.579063 125.254844 124.579063 
C 125.254844 124.579063 125.254844 124.579063 125.254844 124.579063 
L 125.794886 119.095922 
C 125.615415 119.078245 125.435184 119.069391 125.254844 119.069391 
C 125.074504 119.069391 124.894273 119.078245 124.714802 119.095922 
z
" clip-path="url(#p1b65943d37)" style="fill: #d9d9d9"/>
   </g>
   <g id="patch_4">
    <path d="M 125.254844 124.579063 
C 125.254844 124.579063 125.254844 124.579063 125.254844 124.579063 
C 125.254844 124.579063 125.254844 124.579063 125.254844 124.579063 
L 125.254844 124.579063 
C 125.254844 124.579063 125.254844 124.579063 125.254844 124.579063 
C 125.254844 124.579063 125.254844 124.579063 125.254844 124.579063 
z
" clip-path="url(#p1b65943d37)" style="fill: #d9d9d9"/>
   </g>
   <g id="patch_5">
    <path d="M 125.254844 124.579063 
C 125.254844 124.579063 125.254844 124.579063 125.254844 124.579063 
C 125.254844 124.579063 125.254844 124.579063 125.254844 124.579063 
L 125.254844 124.579063 
C 125.254844 124.579063 125.254844 124.579063 125.254844 124.579063 
C 125.254844 124.579063 125.254844 124.579063 125.254844 124.579063 
z
" clip-path="url(#p1b65943d37)" style="fill: #d9d9d9"/>
   </g>
   <g id="patch_6">
    <path d="M 125.254844 124.579063 
C 125.254844 124.579063 125.254844 124.579063 125.254844 124.579063 
C 125.254844 124.579063 125.254844 124.579063 125.254844 124.579063 
L 125.254844 124.579063 
C 125.254844 124.579063 125.254844 124.579063 125.254844 124.579063 
C 125.254844 124.579063 125.254844 124.579063 125.254844 124.579063 
z
" clip-path="url(#p1b65943d37)" style="fill: #d9d9d9"/>
   </g>
   <g id="patch_7">
    <path d="M 125.254844 124.579063 
C 125.254844 124.579063 125.254844 124.579063 125.254844 124.579063 
C 125.254844 124.579063 125.254844 124.579063 125.254844 124.579063 
L 125.254844 124.579063 
C 125.254844 124.579063 125.254844 124.579063 125.254844 124.579063 
C 125.254844 124.579063 125.254844 124.579063 125.254844 124.579063 
z
" clip-path="url(#p1b65943d37)" style="fill: #d9d9d9"/>
   </g>
   <g id="patch_8">
    <path d="M 125.254844 124.579063 
C 125.254844 124.579063 125.254844 124.579063 125.254844 124.579063 
C 125.254844 124.579063 125.254844 124.579063 125.254844 124.579063 
L 125.254844 124.579063 
C 125.254844 124.579063 125.254844 124.579063 125.254844 124.579063 
C 125.254844 124.579063 125.254844 124.579063 125.254844 124.579063 
z
" clip-path="url(#p1b65943d37)" style="fill: #d9d9d9"/>
   </g>
   <g id="patch_9">
    <path d="M 125.254844 124.579063 
C 125.254844 124.579063 125.254844 124.579063 125.254844 124.579063 
C 125.254844 124.579063 125.254844 124.579063 125.254844 124.579063 
L 125.254844 124.579063 
C 125.254844 124.579063 125.254844 124.579063 125.254844 124.579063 
C 125.254844 124.579063 125.254844 124.579063 125.254844 124.579063 
z
" clip-path="url(#p1b65943d37)" style="fill: #d9d9d9"/>
   </g>
   <g id="patch_10">
    <path d="M 125.254844 124.579063 
C 125.254844 124.579063 125.254844 124.579063 125.254844 124.579063 
C 125.254844 124.579063 125.254844 124.579063 125.254844 124.579063 
L 125.254844 124.579063 
C 125.254844 124.579063 125.254844 124.579063 125.254844 124.579063 
C 125.254844 124.579063 125.254844 124.579063 125.254844 124.579063 
z
" clip-path="url(#p1b65943d37)" style="fill: #d9d9d9"/>
   </g>
   <g id="patch_11">
    <path d="M 125.254844 124.579063 
C 125.254844 124.579063 125.254844 124.579063 125.254844 124.579063 
C 125.254844 124.579063 125.254844 124.579063 125.254844 124.579063 
L 125.254844 124.579063 
C 125.254844 124.579063 125.254844 124.579063 125.254844 124.579063 
C 125.254844 124.579063 125.254844 124.579063 125.254844 124.579063 
z
" clip-path="url(#p1b65943d37)" style="fill: #d9d9d9"/>
   </g>
   <g id="patch_12">
    <path d="M 125.254844 124.579063 
C 125.254844 124.579063 125.254844 124.579063 125.254844 124.579063 
C 125.254844 124.579063 125.254844 124.579063 125.254844 124.579063 
L 125.254844 124.579063 
C 125.254844 124.579063 125.254844 124.579063 125.254844 124.579063 
C 125.254844 124.579063 125.254844 124.579063 125.254844 124.579063 
z
" clip-path="url(#p1b65943d37)" style="fill: #d9d9d9"/>
   </g>
   <g id="patch_13">
    <path d="M 125.254844 124.579063 
C 125.254844 124.579063 125.254844 124.579063 125.254844 124.579063 
C 125.254844 124.579063 125.254844 124.579063 125.254844 124.579063 
L 125.254844 124.579063 
C 125.254844 124.579063 125.254844 124.579063 125.254844 124.579063 
C 125.254844 124.579063 125.254844 124.579063 125.254844 124.579063 
z
" clip-path="url(#p1b65943d37)" style="fill: #d9d9d9"/>
   </g>
   <g id="patch_14">
    <path d="M 125.254844 124.579063 
C 125.254844 124.579063 125.254844 124.579063 125.254844 124.579063 
C 125.254844 124.579063 125.254844 124.579063 125.254844 124.579063 
L 125.254844 124.579063 
C 125.254844 124.579063 125.254844 124.579063 125.254844 124.579063 
C 125.254844 124.579063 125.254844 124.579063 125.254844 124.579063 
z
" clip-path="url(#p1b65943d37)" style="fill: #d9d9d9"/>
   </g>
   <g id="patch_15">
    <path d="M 125.254844 124.579063 
C 125.254844 124.579063 125.254844 124.579063 125.254844 124.579063 
C 125.254844 124.579063 125.254844 124.579063 125.254844 124.579063 
L 125.254844 124.579063 
C 125.254844 124.579063 125.254844 124.579063 125.254844 124.579063 
C 125.254844 124.579063 125.254844 124.579063 125.254844 124.579063 
z
" clip-path="url(#p1b65943d37)" style="fill: #d9d9d9"/>
   </g>
   <g id="patch_16">
    <path d="M 125.254844 124.579063 
C 125.254844 124.579063 125.254844 124.579063 125.254844 124.579063 
C 125.254844 124.579063 125.254844 124.579063 125.254844 124.579063 
L 125.254844 124.579063 
C 125.254844 124.579063 125.254844 124.579063 125.254844 124.579063 
C 125.254844 124.579063 125.254844 124.579063 125.254844 124.579063 
z
" clip-path="url(#p1b65943d37)" style="fill: #d9d9d9"/>
   </g>
   <g id="patch_17">
    <path d="M 125.254844 124.579063 
C 125.254844 124.579063 125.254844 124.579063 125.254844 124.579063 
C 125.254844 124.579063 125.254844 124.579063 125.254844 124.579063 
L 125.254844 124.579063 
C 125.254844 124.579063 125.254844 124.579063 125.254844 124.579063 
C 125.254844 124.579063 125.254844 124.579063 125.254844 124.579063 
z
" clip-path="url(#p1b65943d37)" style="fill: #d9d9d9"/>
   </g>
   <g id="patch_18">
    <path d="M 125.254844 124.579063 
C 125.254844 124.579063 125.254844 124.579063 125.254844 124.579063 
C 125.254844 124.579063 125.254844 124.579063 125.254844 124.579063 
L 125.254844 124.579063 
C 125.254844 124.579063 125.254844 124.579063 125.254844 124.579063 
C 125.254844 124.579063 125.254844 124.579063 125.254844 124.579063 
z
" clip-path="url(#p1b65943d37)" style="fill: #d9d9d9"/>
   </g>
   <g id="patch_19">
    <path d="M 125.254844 124.579063 
C 125.254844 124.579063 125.254844 124.579063 125.254844 124.579063 
C 125.254844 124.579063 125.254844 124.579063 125.254844 124.579063 
L 125.254844 124.579063 
C 125.254844 124.579063 125.254844 124.579063 125.254844 124.579063 
C 125.254844 124.579063 125.254844 124.579063 125.254844 124.579063 
z
" clip-path="url(#p1b65943d37)" style="fill: #d9d9d9"/>
   </g>
   <g id="patch_20">
    <path d="M 125.254844 124.579063 
C 125.254844 124.579063 125.254844 124.579063 125.254844 124.579063 
C 125.254844 124.579063 125.254844 124.579063 125.254844 124.579063 
L 125.254844 124.579063 
C 125.254844 124.579063 125.254844 124.579063 125.254844 124.579063 
C 125.254844 124.579063 125.254844 124.579063 125.254844 124.579063 
z
" clip-path="url(#p1b65943d37)" style="fill: #d9d9d9"/>
   </g>
   <g id="patch_21">
    <path d="M 125.254844 124.579063 
C 125.254844 124.579063 125.254844 124.579063 125.254844 124.579063 
C 125.254844 124.579063 125.254844 124.579063 125.254844 124.579063 
L 125.254844 124.579063 
C 125.254844 124.579063 125.254844 124.579063 125.254844 124.579063 
C 125.254844 124.579063 125.254844 124.579063 125.254844 124.579063 
z
" clip-path="url(#p1b65943d37)" style="fill: #d9d9d9"/>
   </g>
   <g id="patch_22">
    <path d="M 125.254844 124.579063 
C 125.254844 124.579063 125.254844 124.579063 125.254844 124.579063 
C 125.254844 124.579063 125.254844 124.579063 125.254844 124.579063 
L 125.254844 124.579063 
C 125.254844 124.579063 125.254844 124.579063 125.254844 124.579063 
C 125.254844 124.579063 125.254844 124.579063 125.254844 124.579063 
z
" clip-path="url(#p1b65943d37)" style="fill: #d9d9d9"/>
   </g>
   <g id="patch_23">
    <path d="M 125.254844 124.579063 
C 125.254844 124.579063 125.254844 124.579063 125.254844 124.579063 
C 125.254844 124.579063 125.254844 124.579063 125.254844 124.579063 
L 125.254844 124.579063 
C 125.254844 124.579063 125.254844 124.579063 125.254844 124.579063 
C 125.254844 124.579063 125.254844 124.579063 125.254844 124.579063 
z
" clip-path="url(#p1b65943d37)" style="fill: #d9d9d9"/>
   </g>
   <g id="patch_24">
    <path d="M 125.254844 124.579063 
C 125.254844 124.579063 125.254844 124.579063 125.254844 124.579063 
C 125.254844 124.579063 125.254844 124.579063 125.254844 124.579063 
L 125.254844 124.579063 
C 125.254844 124.579063 125.254844 124.579063 125.254844 124.579063 
C 125.254844 124.579063 125.254844 124.579063 125.254844 124.579063 
z
" clip-path="url(#p1b65943d37)" style="fill: #d9d9d9"/>
   </g>
   <g id="patch_25">
    <path d="M 125.254844 124.579063 
C 125.254844 124.579063 125.254844 124.579063 125.254844 124.579063 
C 125.254844 124.579063 125.254844 124.579063 125.254844 124.579063 
L 125.254844 124.579063 
C 125.254844 124.579063 125.254844 124.579063 125.254844 124.579063 
C 125.254844 124.579063 125.254844 124.579063 125.254844 124.579063 
z
" clip-path="url(#p1b65943d37)" style="fill: #d9d9d9"/>
   </g>
   <g id="patch_26">
    <path d="M 125.254844 124.579063 
C 125.254844 124.579063 125.254844 124.579063 125.254844 124.579063 
C 125.254844 124.579063 125.254844 124.579063 125.254844 124.579063 
L 125.254844 124.579063 
C 125.254844 124.579063 125.254844 124.579063 125.254844 124.579063 
C 125.254844 124.579063 125.254844 124.579063 125.254844 124.579063 
z
" clip-path="url(#p1b65943d37)" style="fill: #d9d9d9"/>
   </g>
   <g id="patch_27">
    <path d="M 125.254844 124.579063 
C 125.254844 124.579063 125.254844 124.579063 125.254844 124.579063 
C 125.254844 124.579063 125.254844 124.579063 125.254844 124.579063 
L 119.771703 124.03902 
C 119.754027 124.218492 119.745172 124.398723 119.745172 124.579063 
C 119.745172 124.759402 119.754027 124.939633 119.771703 125.119105 
z
" clip-path="url(#p1b65943d37)" style="fill: #d9d9d9"/>
   </g>
   <g id="patch_28">
    <path d="M 125.254844 124.579063 
C 125.254844 124.579063 125.254844 124.579063 125.254844 124.579063 
C 125.254844 124.579063 125.254844 124.579063 125.254844 124.579063 
L 125.254844 124.579063 
C 125.254844 124.579063 125.254844 124.579063 125.254844 124.579063 
C 125.254844 124.579063 125.254844 124.579063 125.254844 124.579063 
z
" clip-path="url(#p1b65943d37)" style="fill: #d9d9d9"/>
   </g>
   <g id="patch_29">
    <path d="M 125.254844 124.579063 
C 125.254844 124.579063 125.254844 124.579063 125.254844 124.579063 
C 125.254844 124.579063 125.254844 124.579063 125.254844 124.579063 
L 120.395747 121.981821 
C 120.310736 122.140867 120.233584 122.30399 120.164571 122.470603 
C 120.095558 122.637215 120.034767 122.807115 119.982417 122.979689 
z
" clip-path="url(#p1b65943d37)" style="fill: #d9d9d9"/>
   </g>
   <g id="patch_30">
    <path d="M 125.254844 124.579063 
C 125.254844 124.579063 125.254844 124.579063 125.254844 124.579063 
C 125.254844 124.579063 125.254844 124.579063 125.254844 124.579063 
L 117.877981 118.525028 
C 117.679824 118.766484 117.49364 119.017523 117.320104 119.277239 
C 117.146567 119.536955 116.985886 119.805034 116.838642 120.080509 
z
" clip-path="url(#p1b65943d37)" style="fill: #d9d9d9"/>
   </g>
   <g id="patch_31">
    <path d="M 125.254844 124.579063 
C 125.254844 124.579063 125.254844 124.579063 125.254844 124.579063 
C 125.254844 124.579063 125.254844 124.579063 125.254844 124.579063 
L 125.254844 124.579063 
C 125.254844 124.579063 125.254844 124.579063 125.254844 124.579063 
C 125.254844 124.579063 125.254844 124.579063 125.254844 124.579063 
z
" clip-path="url(#p1b65943d37)" style="fill: #d9d9d9"/>
   </g>
   <g id="patch_32">
    <path d="M 125.254844 124.579063 
C 125.254844 124.579063 125.254844 124.579063 125.254844 124.579063 
C 125.254844 124.579063 125.254844 124.579063 125.254844 124.579063 
L 114.235683 103.963663 
C 113.56091 104.324336 112.904252 104.717922 112.268081 105.142998 
C 111.631909 105.568074 111.016991 106.024128 110.425548 106.509513 
z
" clip-path="url(#p1b65943d37)" style="fill: #d9d9d9"/>
   </g>
   <g id="patch_33">
    <path d="M 125.254844 124.579063 
C 125.254844 124.579063 125.254844 124.579063 125.254844 124.579063 
C 125.254844 124.579063 125.254844 124.579063 125.254844 124.579063 
L 123.655471 119.306636 
C 123.482896 119.358986 123.312996 119.419777 123.146384 119.48879 
C 122.979772 119.557803 122.816648 119.634955 122.657603 119.719966 
z
" clip-path="url(#p1b65943d37)" style="fill: #d9d9d9"/>
   </g>
   <g id="patch_34">
    <path d="M 125.254844 124.579063 
C 125.254844 124.579063 125.254844 124.579063 125.254844 124.579063 
C 125.254844 124.579063 125.254844 124.579063 125.254844 124.579063 
L 124.174759 113.612781 
C 123.815817 113.648134 123.458826 113.701088 123.105077 113.771453 
C 122.751327 113.841818 122.401246 113.929509 122.056097 114.034209 
z
" clip-path="url(#p1b65943d37)" style="fill: #d9d9d9"/>
   </g>
   <g id="patch_35">
    <path d="M 124.714802 119.095922 
C 124.894273 119.078245 125.074504 119.069391 125.254844 119.069391 
C 125.435184 119.069391 125.615415 119.078245 125.794886 119.095922 
L 131.459457 61.582571 
C 129.397487 61.379485 127.32679 61.277758 125.254844 61.277758 
C 123.182898 61.277758 121.1122 61.379485 119.050231 61.582571 
z
" clip-path="url(#p1b65943d37)" style="fill: #badbb8"/>
   </g>
   <g id="patch_36">
    <path d="M 125.254844 124.579063 
C 125.254844 124.579063 125.254844 124.579063 125.254844 124.579063 
C 125.254844 124.579063 125.254844 124.579063 125.254844 124.579063 
L 144.513847 61.090637 
C 142.435776 60.460261 140.328008 59.932293 138.198156 59.508639 
C 136.068304 59.084985 133.918935 58.766156 131.757813 58.553304 
z
" clip-path="url(#p1b65943d37)" style="fill: #badbb8"/>
   </g>
   <g id="patch_37">
    <path d="M 125.254844 124.579063 
C 125.254844 124.579063 125.254844 124.579063 125.254844 124.579063 
C 125.254844 124.579063 125.254844 124.579063 125.254844 124.579063 
L 142.08689 93.088519 
C 141.056157 92.537581 139.998997 92.037581 138.919226 91.590326 
C 137.839455 91.14307 136.738376 90.749098 135.619967 90.409832 
z
" clip-path="url(#p1b65943d37)" style="fill: #badbb8"/>
   </g>
   <g id="patch_38">
    <path d="M 125.254844 124.579063 
C 125.254844 124.579063 125.254844 124.579063 125.254844 124.579063 
C 125.254844 124.579063 125.254844 124.579063 125.254844 124.579063 
L 161.579051 80.317887 
C 160.130317 79.128942 158.624082 78.011842 157.065787 76.970622 
C 155.507491 75.929403 153.899014 74.965318 152.246165 74.081852 
z
" clip-path="url(#p1b65943d37)" style="fill: #badbb8"/>
   </g>
   <g id="patch_39">
    <path d="M 125.254844 124.579063 
C 125.254844 124.579063 125.254844 124.579063 125.254844 124.579063 
C 125.254844 124.579063 125.254844 124.579063 125.254844 124.579063 
L 147.791531 106.083681 
C 147.18615 105.346022 146.544916 104.63853 145.870146 103.96376 
C 145.195377 103.28899 144.487884 102.647757 143.750225 102.042375 
z
" clip-path="url(#p1b65943d37)" style="fill: #badbb8"/>
   </g>
   <g id="patch_40">
    <path d="M 125.254844 124.579063 
C 125.254844 124.579063 125.254844 124.579063 125.254844 124.579063 
C 125.254844 124.579063 125.254844 124.579063 125.254844 124.579063 
L 154.811573 108.780662 
C 154.294468 107.813226 153.730176 106.871761 153.120735 105.959669 
C 152.511294 105.047577 151.85744 104.165956 151.161533 103.317992 
z
" clip-path="url(#p1b65943d37)" style="fill: #badbb8"/>
   </g>
   <g id="patch_41">
    <path d="M 125.254844 124.579063 
C 125.254844 124.579063 125.254844 124.579063 125.254844 124.579063 
C 125.254844 124.579063 125.254844 124.579063 125.254844 124.579063 
L 159.828458 114.091271 
C 159.485177 112.959625 159.086542 111.845515 158.633993 110.752966 
C 158.181445 109.660417 157.675527 108.590745 157.118069 107.547814 
z
" clip-path="url(#p1b65943d37)" style="fill: #badbb8"/>
   </g>
   <g id="patch_42">
    <path d="M 125.254844 124.579063 
C 125.254844 124.579063 125.254844 124.579063 125.254844 124.579063 
C 125.254844 124.579063 125.254844 124.579063 125.254844 124.579063 
L 133.009176 123.815327 
C 132.984178 123.561517 132.946733 123.309086 132.896977 123.058948 
C 132.847222 122.808809 132.785215 122.561264 132.711181 122.317207 
z
" clip-path="url(#p1b65943d37)" style="fill: #badbb8"/>
   </g>
   <g id="patch_43">
    <path d="M 125.254844 124.579063 
C 125.254844 124.579063 125.254844 124.579063 125.254844 124.579063 
C 125.254844 124.579063 125.254844 124.579063 125.254844 124.579063 
L 130.737985 125.119105 
C 130.755661 124.939633 130.764515 124.759402 130.764515 124.579063 
C 130.764515 124.398723 130.755661 124.218492 130.737985 124.03902 
z
" clip-path="url(#p1b65943d37)" style="fill: #badbb8"/>
   </g>
   <g id="patch_44">
    <path d="M 125.254844 124.579063 
C 125.254844 124.579063 125.254844 124.579063 125.254844 124.579063 
C 125.254844 124.579063 125.254844 124.579063 125.254844 124.579063 
L 143.519066 130.119454 
C 143.700411 129.521638 143.852296 128.91528 143.974172 128.302568 
C 144.096048 127.689857 144.187768 127.071531 144.249001 126.449824 
z
" clip-path="url(#p1b65943d37)" style="fill: #badbb8"/>
   </g>
   <g id="patch_45">
    <path d="M 125.254844 124.579063 
C 125.254844 124.579063 125.254844 124.579063 125.254844 124.579063 
C 125.254844 124.579063 125.254844 124.579063 125.254844 124.579063 
L 144.691229 134.968027 
C 145.031275 134.331845 145.339882 133.679351 145.615934 133.012902 
C 145.891986 132.346453 146.135151 131.666853 146.344551 130.976555 
z
" clip-path="url(#p1b65943d37)" style="fill: #badbb8"/>
   </g>
   <g id="patch_46">
    <path d="M 125.254844 124.579063 
C 125.254844 124.579063 125.254844 124.579063 125.254844 124.579063 
C 125.254844 124.579063 125.254844 124.579063 125.254844 124.579063 
L 125.254844 124.579063 
C 125.254844 124.579063 125.254844 124.579063 125.254844 124.579063 
C 125.254844 124.579063 125.254844 124.579063 125.254844 124.579063 
z
" clip-path="url(#p1b65943d37)" style="fill: #badbb8"/>
   </g>
   <g id="patch_47">
    <path d="M 125.254844 124.579063 
C 125.254844 124.579063 125.254844 124.579063 125.254844 124.579063 
C 125.254844 124.579063 125.254844 124.579063 125.254844 124.579063 
L 125.254844 124.579063 
C 125.254844 124.579063 125.254844 124.579063 125.254844 124.579063 
C 125.254844 124.579063 125.254844 124.579063 125.254844 124.579063 
z
" clip-path="url(#p1b65943d37)" style="fill: #badbb8"/>
   </g>
   <g id="patch_48">
    <path d="M 125.254844 124.579063 
C 125.254844 124.579063 125.254844 124.579063 125.254844 124.579063 
C 125.254844 124.579063 125.254844 124.579063 125.254844 124.579063 
L 125.254844 124.579063 
C 125.254844 124.579063 125.254844 124.579063 125.254844 124.579063 
C 125.254844 124.579063 125.254844 124.579063 125.254844 124.579063 
z
" clip-path="url(#p1b65943d37)" style="fill: #badbb8"/>
   </g>
   <g id="patch_49">
    <path d="M 125.254844 124.579063 
C 125.254844 124.579063 125.254844 124.579063 125.254844 124.579063 
C 125.254844 124.579063 125.254844 124.579063 125.254844 124.579063 
L 125.254844 124.579063 
C 125.254844 124.579063 125.254844 124.579063 125.254844 124.579063 
C 125.254844 124.579063 125.254844 124.579063 125.254844 124.579063 
z
" clip-path="url(#p1b65943d37)" style="fill: #badbb8"/>
   </g>
   <g id="patch_50">
    <path d="M 125.254844 124.579063 
C 125.254844 124.579063 125.254844 124.579063 125.254844 124.579063 
C 125.254844 124.579063 125.254844 124.579063 125.254844 124.579063 
L 125.254844 124.579063 
C 125.254844 124.579063 125.254844 124.579063 125.254844 124.579063 
C 125.254844 124.579063 125.254844 124.579063 125.254844 124.579063 
z
" clip-path="url(#p1b65943d37)" style="fill: #badbb8"/>
   </g>
   <g id="patch_51">
    <path d="M 125.254844 124.579063 
C 125.254844 124.579063 125.254844 124.579063 125.254844 124.579063 
C 125.254844 124.579063 125.254844 124.579063 125.254844 124.579063 
L 123.727374 140.087727 
C 124.234995 140.137723 124.744766 140.162766 125.254844 140.162766 
C 125.764922 140.162766 126.274692 140.137723 126.782314 140.087727 
z
" clip-path="url(#p1b65943d37)" style="fill: #badbb8"/>
   </g>
   <g id="patch_52">
    <path d="M 125.254844 124.579063 
C 125.254844 124.579063 125.254844 124.579063 125.254844 124.579063 
C 125.254844 124.579063 125.254844 124.579063 125.254844 124.579063 
L 121.337196 137.493818 
C 121.759915 137.622048 122.188675 137.729447 122.621927 137.815626 
C 123.05518 137.901806 123.492403 137.966661 123.932016 138.00996 
z
" clip-path="url(#p1b65943d37)" style="fill: #badbb8"/>
   </g>
   <g id="patch_53">
    <path d="M 125.254844 124.579063 
C 125.254844 124.579063 125.254844 124.579063 125.254844 124.579063 
C 125.254844 124.579063 125.254844 124.579063 125.254844 124.579063 
L 122.657603 129.438159 
C 122.816648 129.52317 122.979772 129.600322 123.146384 129.669335 
C 123.312996 129.738348 123.482896 129.799139 123.655471 129.851489 
z
" clip-path="url(#p1b65943d37)" style="fill: #badbb8"/>
   </g>
   <g id="patch_54">
    <path d="M 125.254844 124.579063 
C 125.254844 124.579063 125.254844 124.579063 125.254844 124.579063 
C 125.254844 124.579063 125.254844 124.579063 125.254844 124.579063 
L 112.176634 140.514907 
C 112.698238 140.942976 113.240545 141.345178 113.801595 141.72006 
C 114.362646 142.094942 114.941764 142.442052 115.536857 142.760136 
z
" clip-path="url(#p1b65943d37)" style="fill: #badbb8"/>
   </g>
   <g id="patch_55">
    <path d="M 125.254844 124.579063 
C 125.254844 124.579063 125.254844 124.579063 125.254844 124.579063 
C 125.254844 124.579063 125.254844 124.579063 125.254844 124.579063 
L 125.254844 124.579063 
C 125.254844 124.579063 125.254844 124.579063 125.254844 124.579063 
C 125.254844 124.579063 125.254844 124.579063 125.254844 124.579063 
z
" clip-path="url(#p1b65943d37)" style="fill: #badbb8"/>
   </g>
   <g id="patch_56">
    <path d="M 125.254844 124.579063 
C 125.254844 124.579063 125.254844 124.579063 125.254844 124.579063 
C 125.254844 124.579063 125.254844 124.579063 125.254844 124.579063 
L 114.389574 130.38667 
C 114.579666 130.742307 114.787104 131.088396 115.011138 131.423688 
C 115.235173 131.758979 115.475535 132.08307 115.731355 132.394788 
z
" clip-path="url(#p1b65943d37)" style="fill: #badbb8"/>
   </g>
   <g id="patch_57">
    <path d="M 125.254844 124.579063 
C 125.254844 124.579063 125.254844 124.579063 125.254844 124.579063 
C 125.254844 124.579063 125.254844 124.579063 125.254844 124.579063 
L 102.272868 131.550569 
C 102.501056 132.302803 102.766039 133.04338 103.06686 133.769626 
C 103.367681 134.495872 103.703977 135.206911 104.074534 135.900174 
z
" clip-path="url(#p1b65943d37)" style="fill: #badbb8"/>
   </g>
   <g id="patch_58">
    <path d="M 125.254844 124.579063 
C 125.254844 124.579063 125.254844 124.579063 125.254844 124.579063 
C 125.254844 124.579063 125.254844 124.579063 125.254844 124.579063 
L 109.74618 126.106533 
C 109.796176 126.614154 109.871065 127.119015 109.970576 127.619292 
C 110.070088 128.119569 110.194101 128.614659 110.342169 129.102773 
z
" clip-path="url(#p1b65943d37)" style="fill: #badbb8"/>
   </g>
   <g id="patch_59">
    <path d="M 119.771703 125.119105 
C 119.754027 124.939633 119.745172 124.759402 119.745172 124.579063 
C 119.745172 124.398723 119.754027 124.218492 119.771703 124.03902 
L 104.73881 122.55841 
C 104.672671 123.22993 104.639541 123.904293 104.639541 124.579063 
C 104.639541 125.253832 104.672671 125.928195 104.73881 126.599715 
z
" clip-path="url(#p1b65943d37)" style="fill: #badbb8"/>
   </g>
   <g id="patch_60">
    <path d="M 125.254844 124.579063 
C 125.254844 124.579063 125.254844 124.579063 125.254844 124.579063 
C 125.254844 124.579063 125.254844 124.579063 125.254844 124.579063 
L 92.328549 114.59098 
C 92.001624 115.668707 91.72781 116.761835 91.508095 117.866417 
C 91.28838 118.970998 91.12303 120.085701 91.012641 121.2065 
z
" clip-path="url(#p1b65943d37)" style="fill: #badbb8"/>
   </g>
   <g id="patch_61">
    <path d="M 119.982417 122.979689 
C 120.034767 122.807115 120.095558 122.637215 120.164571 122.470603 
C 120.233584 122.30399 120.310736 122.140867 120.395747 121.981821 
L 95.301362 108.568593 
C 94.777316 109.549015 94.301721 110.554576 93.876296 111.581642 
C 93.450871 112.608709 93.076129 113.656044 92.753422 114.719864 
z
" clip-path="url(#p1b65943d37)" style="fill: #badbb8"/>
   </g>
   <g id="patch_62">
    <path d="M 116.838642 120.080509 
C 116.985886 119.805034 117.146567 119.536955 117.320104 119.277239 
C 117.49364 119.017523 117.679824 118.766484 117.877981 118.525028 
L 95.747394 100.362924 
C 94.954763 101.328747 94.21003 102.332904 93.515884 103.371767 
C 92.821737 104.410631 92.179014 105.482949 91.590037 106.584848 
z
" clip-path="url(#p1b65943d37)" style="fill: #badbb8"/>
   </g>
   <g id="patch_63">
    <path d="M 125.254844 124.579063 
C 125.254844 124.579063 125.254844 124.579063 125.254844 124.579063 
C 125.254844 124.579063 125.254844 124.579063 125.254844 124.579063 
L 108.131448 103.714145 
C 107.448508 104.274619 106.793498 104.868286 106.168782 105.493001 
C 105.544067 106.117716 104.9504 106.772727 104.389926 107.455667 
z
" clip-path="url(#p1b65943d37)" style="fill: #badbb8"/>
   </g>
   <g id="patch_64">
    <path d="M 110.425548 106.509513 
C 111.016991 106.024128 111.631909 105.568074 112.268081 105.142998 
C 112.904252 104.717922 113.56091 104.324336 114.235683 103.963663 
L 105.818871 88.216915 
C 104.628684 88.853084 103.470448 89.547303 102.348347 90.297067 
C 101.226246 91.046831 100.141633 91.851235 99.098425 92.707374 
z
" clip-path="url(#p1b65943d37)" style="fill: #badbb8"/>
   </g>
   <g id="patch_65">
    <path d="M 122.657603 119.719966 
C 122.816648 119.634955 122.979772 119.557803 123.146384 119.48879 
C 123.312996 119.419777 123.482896 119.358986 123.655471 119.306636 
L 117.925595 100.417768 
C 117.13476 100.657665 116.35618 100.936246 115.592666 101.252503 
C 114.829153 101.568761 114.081628 101.922314 113.35279 102.311886 
z
" clip-path="url(#p1b65943d37)" style="fill: #badbb8"/>
   </g>
   <g id="patch_66">
    <path d="M 122.056097 114.034209 
C 122.401246 113.929509 122.751327 113.841818 123.105077 113.771453 
C 123.458826 113.701088 123.815817 113.648134 124.174759 113.612781 
L 120.736526 78.703815 
C 119.234961 78.851707 117.741562 79.073232 116.261723 79.36759 
C 114.781884 79.661948 113.317389 80.028785 111.873528 80.466775 
z
" clip-path="url(#p1b65943d37)" style="fill: #badbb8"/>
   </g>
   <g id="patch_67">
    <path d="M 119.050231 61.582571 
C 121.1122 61.379485 123.182898 61.277758 125.254844 61.277758 
C 127.32679 61.277758 129.397487 61.379485 131.459457 61.582571 
L 133.690573 38.929665 
C 130.88714 38.653551 128.071841 38.515245 125.254844 38.515245 
C 122.437846 38.515245 119.622547 38.653551 116.819114 38.929665 
z
" clip-path="url(#p1b65943d37)" style="fill: #ff8c8e"/>
   </g>
   <g id="patch_68">
    <path d="M 131.757813 58.553304 
C 133.918935 58.766156 136.068304 59.084985 138.198156 59.508639 
C 140.328008 59.932293 142.435776 60.460261 144.513847 61.090637 
L 151.873718 36.828393 
C 149.001508 35.957117 146.088251 35.227384 143.144472 34.64183 
C 140.200692 34.056276 137.229937 33.615606 134.242938 33.321412 
z
" clip-path="url(#p1b65943d37)" style="fill: #ff8c8e"/>
   </g>
   <g id="patch_69">
    <path d="M 135.619967 90.409832 
C 136.738376 90.749098 137.839455 91.14307 138.919226 91.590326 
C 139.998997 92.037581 141.056157 92.537581 142.08689 93.088519 
L 154.408803 70.035842 
C 152.623522 69.081589 150.792465 68.215564 148.922248 67.440894 
C 147.05203 66.666225 145.144906 65.983845 143.207763 65.396219 
z
" clip-path="url(#p1b65943d37)" style="fill: #ff8c8e"/>
   </g>
   <g id="patch_70">
    <path d="M 152.246165 74.081852 
C 153.899014 74.965318 155.507491 75.929403 157.065787 76.970622 
C 158.624082 78.011842 160.130317 79.128942 161.579051 80.317887 
L 164.644857 76.582192 
C 163.073848 75.292898 161.440485 74.081513 159.750668 72.952414 
C 158.06085 71.823314 156.316616 70.77786 154.524264 69.819828 
z
" clip-path="url(#p1b65943d37)" style="fill: #ff8c8e"/>
   </g>
   <g id="patch_71">
    <path d="M 143.750225 102.042375 
C 144.487884 102.647757 145.195377 103.28899 145.870146 103.96376 
C 146.544916 104.63853 147.18615 105.346022 147.791531 106.083681 
L 157.690677 97.959662 
C 156.819384 96.897989 155.896491 95.879734 154.925332 94.908574 
C 153.954173 93.937415 152.935917 93.014522 151.874244 92.143229 
z
" clip-path="url(#p1b65943d37)" style="fill: #ff8c8e"/>
   </g>
   <g id="patch_72">
    <path d="M 151.161533 103.317992 
C 151.85744 104.165956 152.511294 105.047577 153.120735 105.959669 
C 153.730176 106.871761 154.294468 107.813226 154.811573 108.780662 
L 154.811573 108.780662 
C 154.294468 107.813226 153.730176 106.871761 153.120735 105.959669 
C 152.511294 105.047577 151.85744 104.165956 151.161533 103.317992 
z
" clip-path="url(#p1b65943d37)" style="fill: #ff8c8e"/>
   </g>
   <g id="patch_73">
    <path d="M 157.118069 107.547814 
C 157.675527 108.590745 158.181445 109.660417 158.633993 110.752966 
C 159.086542 111.845515 159.485177 112.959625 159.828458 114.091271 
L 163.63869 112.93545 
C 163.257577 111.679089 162.81501 110.442198 162.312588 109.229242 
C 161.810165 108.016287 161.248493 106.82873 160.629599 105.670862 
z
" clip-path="url(#p1b65943d37)" style="fill: #ff8c8e"/>
   </g>
   <g id="patch_74">
    <path d="M 132.711181 122.317207 
C 132.785215 122.561264 132.847222 122.808809 132.896977 123.058948 
C 132.946733 123.309086 132.984178 123.561517 133.009176 123.815327 
L 133.009176 123.815327 
C 132.984178 123.561517 132.946733 123.309086 132.896977 123.058948 
C 132.847222 122.808809 132.785215 122.561264 132.711181 122.317207 
z
" clip-path="url(#p1b65943d37)" style="fill: #ff8c8e"/>
   </g>
   <g id="patch_75">
    <path d="M 130.737985 124.03902 
C 130.755661 124.218492 130.764515 124.398723 130.764515 124.579063 
C 130.764515 124.759402 130.755661 124.939633 130.737985 125.119105 
L 139.761871 126.00788 
C 139.808638 125.533043 139.832064 125.056197 139.832064 124.579063 
C 139.832064 124.101928 139.808638 123.625082 139.761871 123.150245 
z
" clip-path="url(#p1b65943d37)" style="fill: #ff8c8e"/>
   </g>
   <g id="patch_76">
    <path d="M 144.249001 126.449824 
C 144.187768 127.071531 144.096048 127.689857 143.974172 128.302568 
C 143.852296 128.91528 143.700411 129.521638 143.519066 130.119454 
L 143.519066 130.119454 
C 143.700411 129.521638 143.852296 128.91528 143.974172 128.302568 
C 144.096048 127.689857 144.187768 127.071531 144.249001 126.449824 
z
" clip-path="url(#p1b65943d37)" style="fill: #ff8c8e"/>
   </g>
   <g id="patch_77">
    <path d="M 146.344551 130.976555 
C 146.135151 131.666853 145.891986 132.346453 145.615934 133.012902 
C 145.339882 133.679351 145.031275 134.331845 144.691229 134.968027 
L 144.691229 134.968027 
C 145.031275 134.331845 145.339882 133.679351 145.615934 133.012902 
C 145.891986 132.346453 146.135151 131.666853 146.344551 130.976555 
z
" clip-path="url(#p1b65943d37)" style="fill: #ff8c8e"/>
   </g>
   <g id="patch_78">
    <path d="M 125.254844 124.579063 
C 125.254844 124.579063 125.254844 124.579063 125.254844 124.579063 
C 125.254844 124.579063 125.254844 124.579063 125.254844 124.579063 
L 133.772911 131.56966 
C 134.001724 131.29085 134.21671 131.000975 134.417092 130.701081 
C 134.617475 130.401187 134.803013 130.091636 134.973036 129.773545 
z
" clip-path="url(#p1b65943d37)" style="fill: #ff8c8e"/>
   </g>
   <g id="patch_79">
    <path d="M 125.254844 124.579063 
C 125.254844 124.579063 125.254844 124.579063 125.254844 124.579063 
C 125.254844 124.579063 125.254844 124.579063 125.254844 124.579063 
L 125.254844 124.579063 
C 125.254844 124.579063 125.254844 124.579063 125.254844 124.579063 
C 125.254844 124.579063 125.254844 124.579063 125.254844 124.579063 
z
" clip-path="url(#p1b65943d37)" style="fill: #ff8c8e"/>
   </g>
   <g id="patch_80">
    <path d="M 125.254844 124.579063 
C 125.254844 124.579063 125.254844 124.579063 125.254844 124.579063 
C 125.254844 124.579063 125.254844 124.579063 125.254844 124.579063 
L 125.254844 124.579063 
C 125.254844 124.579063 125.254844 124.579063 125.254844 124.579063 
C 125.254844 124.579063 125.254844 124.579063 125.254844 124.579063 
z
" clip-path="url(#p1b65943d37)" style="fill: #ff8c8e"/>
   </g>
   <g id="patch_81">
    <path d="M 125.254844 124.579063 
C 125.254844 124.579063 125.254844 124.579063 125.254844 124.579063 
C 125.254844 124.579063 125.254844 124.579063 125.254844 124.579063 
L 125.254844 124.579063 
C 125.254844 124.579063 125.254844 124.579063 125.254844 124.579063 
C 125.254844 124.579063 125.254844 124.579063 125.254844 124.579063 
z
" clip-path="url(#p1b65943d37)" style="fill: #ff8c8e"/>
   </g>
   <g id="patch_82">
    <path d="M 125.254844 124.579063 
C 125.254844 124.579063 125.254844 124.579063 125.254844 124.579063 
C 125.254844 124.579063 125.254844 124.579063 125.254844 124.579063 
L 125.254844 124.579063 
C 125.254844 124.579063 125.254844 124.579063 125.254844 124.579063 
C 125.254844 124.579063 125.254844 124.579063 125.254844 124.579063 
z
" clip-path="url(#p1b65943d37)" style="fill: #ff8c8e"/>
   </g>
   <g id="patch_83">
    <path d="M 126.782314 140.087727 
C 126.274692 140.137723 125.764922 140.162766 125.254844 140.162766 
C 124.744766 140.162766 124.234995 140.137723 123.727374 140.087727 
L 123.727374 140.087727 
C 124.234995 140.137723 124.744766 140.162766 125.254844 140.162766 
C 125.764922 140.162766 126.274692 140.137723 126.782314 140.087727 
z
" clip-path="url(#p1b65943d37)" style="fill: #ff8c8e"/>
   </g>
   <g id="patch_84">
    <path d="M 123.932016 138.00996 
C 123.492403 137.966661 123.05518 137.901806 122.621927 137.815626 
C 122.188675 137.729447 121.759915 137.622048 121.337196 137.493818 
L 121.337196 137.493818 
C 121.759915 137.622048 122.188675 137.729447 122.621927 137.815626 
C 123.05518 137.901806 123.492403 137.966661 123.932016 138.00996 
z
" clip-path="url(#p1b65943d37)" style="fill: #ff8c8e"/>
   </g>
   <g id="patch_85">
    <path d="M 123.655471 129.851489 
C 123.482896 129.799139 123.312996 129.738348 123.146384 129.669335 
C 122.979772 129.600322 122.816648 129.52317 122.657603 129.438159 
L 122.657603 129.438159 
C 122.816648 129.52317 122.979772 129.600322 123.146384 129.669335 
C 123.312996 129.738348 123.482896 129.799139 123.655471 129.851489 
z
" clip-path="url(#p1b65943d37)" style="fill: #ff8c8e"/>
   </g>
   <g id="patch_86">
    <path d="M 115.536857 142.760136 
C 114.941764 142.442052 114.362646 142.094942 113.801595 141.72006 
C 113.240545 141.345178 112.698238 140.942976 112.176634 140.514907 
L 112.176634 140.514907 
C 112.698238 140.942976 113.240545 141.345178 113.801595 141.72006 
C 114.362646 142.094942 114.941764 142.442052 115.536857 142.760136 
z
" clip-path="url(#p1b65943d37)" style="fill: #ff8c8e"/>
   </g>
   <g id="patch_87">
    <path d="M 125.254844 124.579063 
C 125.254844 124.579063 125.254844 124.579063 125.254844 124.579063 
C 125.254844 124.579063 125.254844 124.579063 125.254844 124.579063 
L 125.254844 124.579063 
C 125.254844 124.579063 125.254844 124.579063 125.254844 124.579063 
C 125.254844 124.579063 125.254844 124.579063 125.254844 124.579063 
z
" clip-path="url(#p1b65943d37)" style="fill: #ff8c8e"/>
   </g>
   <g id="patch_88">
    <path d="M 115.731355 132.394788 
C 115.475535 132.08307 115.235173 131.758979 115.011138 131.423688 
C 114.787104 131.088396 114.579666 130.742307 114.389574 130.38667 
L 114.389574 130.38667 
C 114.579666 130.742307 114.787104 131.088396 115.011138 131.423688 
C 115.235173 131.758979 115.475535 132.08307 115.731355 132.394788 
z
" clip-path="url(#p1b65943d37)" style="fill: #ff8c8e"/>
   </g>
   <g id="patch_89">
    <path d="M 104.074534 135.900174 
C 103.703977 135.206911 103.367681 134.495872 103.06686 133.769626 
C 102.766039 133.04338 102.501056 132.302803 102.272868 131.550569 
L 102.272868 131.550569 
C 102.501056 132.302803 102.766039 133.04338 103.06686 133.769626 
C 103.367681 134.495872 103.703977 135.206911 104.074534 135.900174 
z
" clip-path="url(#p1b65943d37)" style="fill: #ff8c8e"/>
   </g>
   <g id="patch_90">
    <path d="M 110.342169 129.102773 
C 110.194101 128.614659 110.070088 128.119569 109.970576 127.619292 
C 109.871065 127.119015 109.796176 126.614154 109.74618 126.106533 
L 109.74618 126.106533 
C 109.796176 126.614154 109.871065 127.119015 109.970576 127.619292 
C 110.070088 128.119569 110.194101 128.614659 110.342169 129.102773 
z
" clip-path="url(#p1b65943d37)" style="fill: #ff8c8e"/>
   </g>
   <g id="patch_91">
    <path d="M 104.73881 126.599715 
C 104.672671 125.928195 104.639541 125.253832 104.639541 124.579063 
C 104.639541 123.904293 104.672671 123.22993 104.73881 122.55841 
L 104.73881 122.55841 
C 104.672671 123.22993 104.639541 123.904293 104.639541 124.579063 
C 104.639541 125.253832 104.672671 125.928195 104.73881 126.599715 
z
" clip-path="url(#p1b65943d37)" style="fill: #ff8c8e"/>
   </g>
   <g id="patch_92">
    <path d="M 91.012641 121.2065 
C 91.12303 120.085701 91.28838 118.970998 91.508095 117.866417 
C 91.72781 116.761835 92.001624 115.668707 92.328549 114.59098 
L 92.328549 114.59098 
C 92.001624 115.668707 91.72781 116.761835 91.508095 117.866417 
C 91.28838 118.970998 91.12303 120.085701 91.012641 121.2065 
z
" clip-path="url(#p1b65943d37)" style="fill: #ff8c8e"/>
   </g>
   <g id="patch_93">
    <path d="M 92.753422 114.719864 
C 93.076129 113.656044 93.450871 112.608709 93.876296 111.581642 
C 94.301721 110.554576 94.777316 109.549015 95.301362 108.568593 
L 95.301362 108.568593 
C 94.777316 109.549015 94.301721 110.554576 93.876296 111.581642 
C 93.450871 112.608709 93.076129 113.656044 92.753422 114.719864 
z
" clip-path="url(#p1b65943d37)" style="fill: #ff8c8e"/>
   </g>
   <g id="patch_94">
    <path d="M 91.590037 106.584848 
C 92.179014 105.482949 92.821737 104.410631 93.515884 103.371767 
C 94.21003 102.332904 94.954763 101.328747 95.747394 100.362924 
L 90.654292 96.183123 
C 89.72485 97.315651 88.851573 98.493129 88.037614 99.711305 
C 87.223655 100.92948 86.469996 102.186885 85.779359 103.478976 
z
" clip-path="url(#p1b65943d37)" style="fill: #ff8c8e"/>
   </g>
   <g id="patch_95">
    <path d="M 104.389926 107.455667 
C 104.9504 106.772727 105.544067 106.117716 106.168782 105.493001 
C 106.793498 104.868286 107.448508 104.274619 108.131448 103.714145 
L 100.29342 94.163479 
C 99.297872 94.980504 98.343038 95.845915 97.432367 96.756586 
C 96.521696 97.667257 95.656285 98.622091 94.83926 99.617638 
z
" clip-path="url(#p1b65943d37)" style="fill: #ff8c8e"/>
   </g>
   <g id="patch_96">
    <path d="M 99.098425 92.707374 
C 100.141633 91.851235 101.226246 91.046831 102.348347 90.297067 
C 103.470448 89.547303 104.628684 88.853084 105.818871 88.216915 
L 101.309464 79.780408 
C 99.843137 80.564176 98.416175 81.419464 97.033732 82.343183 
C 95.651288 83.266902 94.31503 84.257939 93.029784 85.312713 
z
" clip-path="url(#p1b65943d37)" style="fill: #ff8c8e"/>
   </g>
   <g id="patch_97">
    <path d="M 113.35279 102.311886 
C 114.081628 101.922314 114.829153 101.568761 115.592666 101.252503 
C 116.35618 100.936246 117.13476 100.657665 117.925595 100.417768 
L 113.945568 87.297375 
C 112.725282 87.667545 111.523907 88.097404 110.345781 88.5854 
C 109.167654 89.073396 108.014197 89.61894 106.889576 90.220063 
z
" clip-path="url(#p1b65943d37)" style="fill: #ff8c8e"/>
   </g>
   <g id="patch_98">
    <path d="M 111.873528 80.466775 
C 113.317389 80.028785 114.781884 79.661948 116.261723 79.36759 
C 117.741562 79.073232 119.234961 78.851707 120.736526 78.703815 
L 118.234295 53.298232 
C 115.901167 53.528025 113.580727 53.87223 111.281357 54.329603 
C 108.981988 54.786976 106.70646 55.356966 104.462993 56.037515 
z
" clip-path="url(#p1b65943d37)" style="fill: #ff8c8e"/>
   </g>
   <g id="patch_99">
    <path d="M 116.819114 38.929665 
C 119.622547 38.653551 122.437846 38.515245 125.254844 38.515245 
C 128.071841 38.515245 130.88714 38.653551 133.690573 38.929665 
L 136.122984 14.232983 
C 132.511192 13.877252 128.884112 13.699065 125.254844 13.699065 
C 121.625576 13.699065 117.998495 13.877252 114.386704 14.232983 
z
" clip-path="url(#p1b65943d37)" style="fill: #828282"/>
   </g>
   <g id="patch_100">
    <path d="M 134.242938 33.321412 
C 137.229937 33.615606 140.200692 34.056276 143.144472 34.64183 
C 146.088251 35.227384 149.001508 35.957117 151.873718 36.828393 
L 156.102436 22.888178 
C 152.773942 21.87849 149.397881 21.032831 145.986447 20.354255 
C 142.575013 19.675678 139.13232 19.165003 135.670801 18.824073 
z
" clip-path="url(#p1b65943d37)" style="fill: #828282"/>
   </g>
   <g id="patch_101">
    <path d="M 143.207763 65.396219 
C 145.144906 65.983845 147.05203 66.666225 148.922248 67.440894 
C 150.792465 68.215564 152.623522 69.081589 154.408803 70.035842 
L 158.515759 62.352268 
C 156.478983 61.263588 154.389983 60.275565 152.256306 59.391767 
C 150.122628 58.507969 147.946845 57.729461 145.736814 57.059055 
z
" clip-path="url(#p1b65943d37)" style="fill: #828282"/>
   </g>
   <g id="patch_102">
    <path d="M 154.524264 69.819828 
C 156.316616 70.77786 158.06085 71.823314 159.750668 72.952414 
C 161.440485 74.081513 163.073848 75.292898 164.644857 76.582192 
L 165.564593 75.461491 
C 163.956901 74.142093 162.2854 72.902423 160.556126 71.74696 
C 158.826853 70.591496 157.041891 69.521631 155.207689 68.54123 
z
" clip-path="url(#p1b65943d37)" style="fill: #828282"/>
   </g>
   <g id="patch_103">
    <path d="M 151.874244 92.143229 
C 152.935917 93.014522 153.954173 93.937415 154.925332 94.908574 
C 155.896491 95.879734 156.819384 96.897989 157.690677 97.959662 
L 157.690677 97.959662 
C 156.819384 96.897989 155.896491 95.879734 154.925332 94.908574 
C 153.954173 93.937415 152.935917 93.014522 151.874244 92.143229 
z
" clip-path="url(#p1b65943d37)" style="fill: #828282"/>
   </g>
   <g id="patch_104">
    <path d="M 151.161533 103.317992 
C 151.85744 104.165956 152.511294 105.047577 153.120735 105.959669 
C 153.730176 106.871761 154.294468 107.813226 154.811573 108.780662 
L 154.811573 108.780662 
C 154.294468 107.813226 153.730176 106.871761 153.120735 105.959669 
C 152.511294 105.047577 151.85744 104.165956 151.161533 103.317992 
z
" clip-path="url(#p1b65943d37)" style="fill: #828282"/>
   </g>
   <g id="patch_105">
    <path d="M 160.629599 105.670862 
C 161.248493 106.82873 161.810165 108.016287 162.312588 109.229242 
C 162.81501 110.442198 163.257577 111.679089 163.63869 112.93545 
L 163.63869 112.93545 
C 163.257577 111.679089 162.81501 110.442198 162.312588 109.229242 
C 161.810165 108.016287 161.248493 106.82873 160.629599 105.670862 
z
" clip-path="url(#p1b65943d37)" style="fill: #828282"/>
   </g>
   <g id="patch_106">
    <path d="M 132.711181 122.317207 
C 132.785215 122.561264 132.847222 122.808809 132.896977 123.058948 
C 132.946733 123.309086 132.984178 123.561517 133.009176 123.815327 
L 134.751922 123.643682 
C 134.721306 123.332828 134.675446 123.023665 134.614508 122.71731 
C 134.55357 122.410954 134.477627 122.107775 134.386955 121.808867 
z
" clip-path="url(#p1b65943d37)" style="fill: #828282"/>
   </g>
   <g id="patch_107">
    <path d="M 139.761871 123.150245 
C 139.808638 123.625082 139.832064 124.101928 139.832064 124.579063 
C 139.832064 125.056197 139.808638 125.533043 139.761871 126.00788 
L 139.761871 126.00788 
C 139.808638 125.533043 139.832064 125.056197 139.832064 124.579063 
C 139.832064 124.101928 139.808638 123.625082 139.761871 123.150245 
z
" clip-path="url(#p1b65943d37)" style="fill: #828282"/>
   </g>
   <g id="patch_108">
    <path d="M 144.249001 126.449824 
C 144.187768 127.071531 144.096048 127.689857 143.974172 128.302568 
C 143.852296 128.91528 143.700411 129.521638 143.519066 130.119454 
L 143.519066 130.119454 
C 143.700411 129.521638 143.852296 128.91528 143.974172 128.302568 
C 144.096048 127.689857 144.187768 127.071531 144.249001 126.449824 
z
" clip-path="url(#p1b65943d37)" style="fill: #828282"/>
   </g>
   <g id="patch_109">
    <path d="M 146.344551 130.976555 
C 146.135151 131.666853 145.891986 132.346453 145.615934 133.012902 
C 145.339882 133.679351 145.031275 134.331845 144.691229 134.968027 
L 144.691229 134.968027 
C 145.031275 134.331845 145.339882 133.679351 145.615934 133.012902 
C 145.891986 132.346453 146.135151 131.666853 146.344551 130.976555 
z
" clip-path="url(#p1b65943d37)" style="fill: #828282"/>
   </g>
   <g id="patch_110">
    <path d="M 134.973036 129.773545 
C 134.803013 130.091636 134.617475 130.401187 134.417092 130.701081 
C 134.21671 131.000975 134.001724 131.29085 133.772911 131.56966 
L 133.772911 131.56966 
C 134.001724 131.29085 134.21671 131.000975 134.417092 130.701081 
C 134.617475 130.401187 134.803013 130.091636 134.973036 129.773545 
z
" clip-path="url(#p1b65943d37)" style="fill: #828282"/>
   </g>
   <g id="patch_111">
    <path d="M 125.254844 124.579063 
C 125.254844 124.579063 125.254844 124.579063 125.254844 124.579063 
C 125.254844 124.579063 125.254844 124.579063 125.254844 124.579063 
L 125.254844 124.579063 
C 125.254844 124.579063 125.254844 124.579063 125.254844 124.579063 
C 125.254844 124.579063 125.254844 124.579063 125.254844 124.579063 
z
" clip-path="url(#p1b65943d37)" style="fill: #828282"/>
   </g>
   <g id="patch_112">
    <path d="M 125.254844 124.579063 
C 125.254844 124.579063 125.254844 124.579063 125.254844 124.579063 
C 125.254844 124.579063 125.254844 124.579063 125.254844 124.579063 
L 125.254844 124.579063 
C 125.254844 124.579063 125.254844 124.579063 125.254844 124.579063 
C 125.254844 124.579063 125.254844 124.579063 125.254844 124.579063 
z
" clip-path="url(#p1b65943d37)" style="fill: #828282"/>
   </g>
   <g id="patch_113">
    <path d="M 125.254844 124.579063 
C 125.254844 124.579063 125.254844 124.579063 125.254844 124.579063 
C 125.254844 124.579063 125.254844 124.579063 125.254844 124.579063 
L 125.254844 124.579063 
C 125.254844 124.579063 125.254844 124.579063 125.254844 124.579063 
C 125.254844 124.579063 125.254844 124.579063 125.254844 124.579063 
z
" clip-path="url(#p1b65943d37)" style="fill: #828282"/>
   </g>
   <g id="patch_114">
    <path d="M 125.254844 124.579063 
C 125.254844 124.579063 125.254844 124.579063 125.254844 124.579063 
C 125.254844 124.579063 125.254844 124.579063 125.254844 124.579063 
L 125.254844 124.579063 
C 125.254844 124.579063 125.254844 124.579063 125.254844 124.579063 
C 125.254844 124.579063 125.254844 124.579063 125.254844 124.579063 
z
" clip-path="url(#p1b65943d37)" style="fill: #828282"/>
   </g>
   <g id="patch_115">
    <path d="M 126.782314 140.087727 
C 126.274692 140.137723 125.764922 140.162766 125.254844 140.162766 
C 124.744766 140.162766 124.234995 140.137723 123.727374 140.087727 
L 123.727374 140.087727 
C 124.234995 140.137723 124.744766 140.162766 125.254844 140.162766 
C 125.764922 140.162766 126.274692 140.137723 126.782314 140.087727 
z
" clip-path="url(#p1b65943d37)" style="fill: #828282"/>
   </g>
   <g id="patch_116">
    <path d="M 123.932016 138.00996 
C 123.492403 137.966661 123.05518 137.901806 122.621927 137.815626 
C 122.188675 137.729447 121.759915 137.622048 121.337196 137.493818 
L 121.337196 137.493818 
C 121.759915 137.622048 122.188675 137.729447 122.621927 137.815626 
C 123.05518 137.901806 123.492403 137.966661 123.932016 138.00996 
z
" clip-path="url(#p1b65943d37)" style="fill: #828282"/>
   </g>
   <g id="patch_117">
    <path d="M 123.655471 129.851489 
C 123.482896 129.799139 123.312996 129.738348 123.146384 129.669335 
C 122.979772 129.600322 122.816648 129.52317 122.657603 129.438159 
L 122.657603 129.438159 
C 122.816648 129.52317 122.979772 129.600322 123.146384 129.669335 
C 123.312996 129.738348 123.482896 129.799139 123.655471 129.851489 
z
" clip-path="url(#p1b65943d37)" style="fill: #828282"/>
   </g>
   <g id="patch_118">
    <path d="M 115.536857 142.760136 
C 114.941764 142.442052 114.362646 142.094942 113.801595 141.72006 
C 113.240545 141.345178 112.698238 140.942976 112.176634 140.514907 
L 112.176634 140.514907 
C 112.698238 140.942976 113.240545 141.345178 113.801595 141.72006 
C 114.362646 142.094942 114.941764 142.442052 115.536857 142.760136 
z
" clip-path="url(#p1b65943d37)" style="fill: #828282"/>
   </g>
   <g id="patch_119">
    <path d="M 125.254844 124.579063 
C 125.254844 124.579063 125.254844 124.579063 125.254844 124.579063 
C 125.254844 124.579063 125.254844 124.579063 125.254844 124.579063 
L 125.254844 124.579063 
C 125.254844 124.579063 125.254844 124.579063 125.254844 124.579063 
C 125.254844 124.579063 125.254844 124.579063 125.254844 124.579063 
z
" clip-path="url(#p1b65943d37)" style="fill: #828282"/>
   </g>
   <g id="patch_120">
    <path d="M 115.731355 132.394788 
C 115.475535 132.08307 115.235173 131.758979 115.011138 131.423688 
C 114.787104 131.088396 114.579666 130.742307 114.389574 130.38667 
L 114.389574 130.38667 
C 114.579666 130.742307 114.787104 131.088396 115.011138 131.423688 
C 115.235173 131.758979 115.475535 132.08307 115.731355 132.394788 
z
" clip-path="url(#p1b65943d37)" style="fill: #828282"/>
   </g>
   <g id="patch_121">
    <path d="M 104.074534 135.900174 
C 103.703977 135.206911 103.367681 134.495872 103.06686 133.769626 
C 102.766039 133.04338 102.501056 132.302803 102.272868 131.550569 
L 102.272868 131.550569 
C 102.501056 132.302803 102.766039 133.04338 103.06686 133.769626 
C 103.367681 134.495872 103.703977 135.206911 104.074534 135.900174 
z
" clip-path="url(#p1b65943d37)" style="fill: #828282"/>
   </g>
   <g id="patch_122">
    <path d="M 110.342169 129.102773 
C 110.194101 128.614659 110.070088 128.119569 109.970576 127.619292 
C 109.871065 127.119015 109.796176 126.614154 109.74618 126.106533 
L 109.74618 126.106533 
C 109.796176 126.614154 109.871065 127.119015 109.970576 127.619292 
C 110.070088 128.119569 110.194101 128.614659 110.342169 129.102773 
z
" clip-path="url(#p1b65943d37)" style="fill: #828282"/>
   </g>
   <g id="patch_123">
    <path d="M 104.73881 126.599715 
C 104.672671 125.928195 104.639541 125.253832 104.639541 124.579063 
C 104.639541 123.904293 104.672671 123.22993 104.73881 122.55841 
L 104.73881 122.55841 
C 104.672671 123.22993 104.639541 123.904293 104.639541 124.579063 
C 104.639541 125.253832 104.672671 125.928195 104.73881 126.599715 
z
" clip-path="url(#p1b65943d37)" style="fill: #828282"/>
   </g>
   <g id="patch_124">
    <path d="M 91.012641 121.2065 
C 91.12303 120.085701 91.28838 118.970998 91.508095 117.866417 
C 91.72781 116.761835 92.001624 115.668707 92.328549 114.59098 
L 86.510578 112.826118 
C 86.125887 114.094276 85.80369 115.380556 85.545152 116.680314 
C 85.286614 117.980071 85.092047 119.291739 84.962152 120.610579 
z
" clip-path="url(#p1b65943d37)" style="fill: #828282"/>
   </g>
   <g id="patch_125">
    <path d="M 92.753422 114.719864 
C 93.076129 113.656044 93.450871 112.608709 93.876296 111.581642 
C 94.301721 110.554576 94.777316 109.549015 95.301362 108.568593 
L 93.023245 107.350914 
C 92.459342 108.405902 91.947576 109.487941 91.489795 110.593121 
C 91.032014 111.698302 90.628771 112.825292 90.281521 113.970021 
z
" clip-path="url(#p1b65943d37)" style="fill: #828282"/>
   </g>
   <g id="patch_126">
    <path d="M 85.779359 103.478976 
C 86.469996 102.186885 87.223655 100.92948 88.037614 99.711305 
C 88.851573 98.493129 89.72485 97.315651 90.654292 96.183123 
L 85.529223 91.977088 
C 84.462112 93.277367 83.459484 94.629255 82.524961 96.027868 
C 81.590438 97.42648 80.725146 98.870133 79.93221 100.35361 
z
" clip-path="url(#p1b65943d37)" style="fill: #828282"/>
   </g>
   <g id="patch_127">
    <path d="M 94.83926 99.617638 
C 95.656285 98.622091 96.521696 97.667257 97.432367 96.756586 
C 98.343038 95.845915 99.297872 94.980504 100.29342 94.163479 
L 98.865919 92.424064 
C 97.813438 93.287813 96.803999 94.202715 95.841248 95.165466 
C 94.878497 96.128217 93.963595 97.137656 93.099846 98.190137 
z
" clip-path="url(#p1b65943d37)" style="fill: #828282"/>
   </g>
   <g id="patch_128">
    <path d="M 93.029784 85.312713 
C 94.31503 84.257939 95.651288 83.266902 97.033732 82.343183 
C 98.416175 81.419464 99.843137 80.564176 101.309464 79.780408 
L 99.412621 76.231664 
C 97.830139 77.077519 96.290139 78.000559 94.798185 78.997451 
C 93.306231 79.994343 91.86412 81.063885 90.477063 82.202214 
z
" clip-path="url(#p1b65943d37)" style="fill: #828282"/>
   </g>
   <g id="patch_129">
    <path d="M 106.889576 90.220063 
C 108.014197 89.61894 109.167654 89.073396 110.345781 88.5854 
C 111.523907 88.097404 112.725282 87.667545 113.945568 87.297375 
L 113.945568 87.297375 
C 112.725282 87.667545 111.523907 88.097404 110.345781 88.5854 
C 109.167654 89.073396 108.014197 89.61894 106.889576 90.220063 
z
" clip-path="url(#p1b65943d37)" style="fill: #828282"/>
   </g>
   <g id="patch_130">
    <path d="M 104.462993 56.037515 
C 106.70646 55.356966 108.981988 54.786976 111.281357 54.329603 
C 113.580727 53.87223 115.901167 53.528025 118.234295 53.298232 
L 117.752337 48.404836 
C 115.259041 48.650405 112.779304 49.018239 110.322084 49.50701 
C 107.864864 49.995782 105.433122 50.604901 103.035642 51.332169 
z
" clip-path="url(#p1b65943d37)" style="fill: #828282"/>
   </g>
   <g id="patch_131">
    <path d="M 125.254844 124.579063 
C 125.254844 124.579063 125.254844 124.579063 125.254844 124.579063 
C 125.254844 124.579063 125.254844 124.579063 125.254844 124.579063 
L 136.122984 14.232983 
C 132.511192 13.877252 128.884112 13.699065 125.254844 13.699065 
C 121.625576 13.699065 117.998495 13.877252 114.386704 14.232983 
L 125.254844 124.579063 
z
" clip-path="url(#p1b65943d37)" style="fill: none; stroke: #292929; stroke-width: 0.5; stroke-linejoin: miter"/>
   </g>
   <g id="patch_132">
    <path d="M 125.254844 124.579063 
C 125.254844 124.579063 125.254844 124.579063 125.254844 124.579063 
C 125.254844 124.579063 125.254844 124.579063 125.254844 124.579063 
L 156.102436 22.888178 
C 152.773942 21.87849 149.397881 21.032831 145.986447 20.354255 
C 142.575013 19.675678 139.13232 19.165003 135.670801 18.824073 
L 125.254844 124.579063 
z
" clip-path="url(#p1b65943d37)" style="fill: none; stroke: #292929; stroke-width: 0.5; stroke-linejoin: miter"/>
   </g>
   <g id="patch_133">
    <path d="M 125.254844 124.579063 
C 125.254844 124.579063 125.254844 124.579063 125.254844 124.579063 
C 125.254844 124.579063 125.254844 124.579063 125.254844 124.579063 
L 158.515759 62.352268 
C 156.478983 61.263588 154.389983 60.275565 152.256306 59.391767 
C 150.122628 58.507969 147.946845 57.729461 145.736814 57.059055 
L 125.254844 124.579063 
z
" clip-path="url(#p1b65943d37)" style="fill: none; stroke: #292929; stroke-width: 0.5; stroke-linejoin: miter"/>
   </g>
   <g id="patch_134">
    <path d="M 125.254844 124.579063 
C 125.254844 124.579063 125.254844 124.579063 125.254844 124.579063 
C 125.254844 124.579063 125.254844 124.579063 125.254844 124.579063 
L 165.564593 75.461491 
C 163.956901 74.142093 162.2854 72.902423 160.556126 71.74696 
C 158.826853 70.591496 157.041891 69.521631 155.207689 68.54123 
L 125.254844 124.579063 
z
" clip-path="url(#p1b65943d37)" style="fill: none; stroke: #292929; stroke-width: 0.5; stroke-linejoin: miter"/>
   </g>
   <g id="patch_135">
    <path d="M 125.254844 124.579063 
C 125.254844 124.579063 125.254844 124.579063 125.254844 124.579063 
C 125.254844 124.579063 125.254844 124.579063 125.254844 124.579063 
L 157.690677 97.959662 
C 156.819384 96.897989 155.896491 95.879734 154.925332 94.908574 
C 153.954173 93.937415 152.935917 93.014522 151.874244 92.143229 
L 125.254844 124.579063 
z
" clip-path="url(#p1b65943d37)" style="fill: none; stroke: #292929; stroke-width: 0.5; stroke-linejoin: miter"/>
   </g>
   <g id="patch_136">
    <path d="M 125.254844 124.579063 
C 125.254844 124.579063 125.254844 124.579063 125.254844 124.579063 
C 125.254844 124.579063 125.254844 124.579063 125.254844 124.579063 
L 154.811573 108.780662 
C 154.294468 107.813226 153.730176 106.871761 153.120735 105.959669 
C 152.511294 105.047577 151.85744 104.165956 151.161533 103.317992 
L 125.254844 124.579063 
z
" clip-path="url(#p1b65943d37)" style="fill: none; stroke: #292929; stroke-width: 0.5; stroke-linejoin: miter"/>
   </g>
   <g id="patch_137">
    <path d="M 125.254844 124.579063 
C 125.254844 124.579063 125.254844 124.579063 125.254844 124.579063 
C 125.254844 124.579063 125.254844 124.579063 125.254844 124.579063 
L 163.63869 112.93545 
C 163.257577 111.679089 162.81501 110.442198 162.312588 109.229242 
C 161.810165 108.016287 161.248493 106.82873 160.629599 105.670862 
L 125.254844 124.579063 
z
" clip-path="url(#p1b65943d37)" style="fill: none; stroke: #292929; stroke-width: 0.5; stroke-linejoin: miter"/>
   </g>
   <g id="patch_138">
    <path d="M 125.254844 124.579063 
C 125.254844 124.579063 125.254844 124.579063 125.254844 124.579063 
C 125.254844 124.579063 125.254844 124.579063 125.254844 124.579063 
L 134.751922 123.643682 
C 134.721306 123.332828 134.675446 123.023665 134.614508 122.71731 
C 134.55357 122.410954 134.477627 122.107775 134.386955 121.808867 
L 125.254844 124.579063 
z
" clip-path="url(#p1b65943d37)" style="fill: none; stroke: #292929; stroke-width: 0.5; stroke-linejoin: miter"/>
   </g>
   <g id="patch_139">
    <path d="M 125.254844 124.579063 
C 125.254844 124.579063 125.254844 124.579063 125.254844 124.579063 
C 125.254844 124.579063 125.254844 124.579063 125.254844 124.579063 
L 139.761871 126.00788 
C 139.808638 125.533043 139.832064 125.056197 139.832064 124.579063 
C 139.832064 124.101928 139.808638 123.625082 139.761871 123.150245 
L 125.254844 124.579063 
z
" clip-path="url(#p1b65943d37)" style="fill: none; stroke: #292929; stroke-width: 0.5; stroke-linejoin: miter"/>
   </g>
   <g id="patch_140">
    <path d="M 125.254844 124.579063 
C 125.254844 124.579063 125.254844 124.579063 125.254844 124.579063 
C 125.254844 124.579063 125.254844 124.579063 125.254844 124.579063 
L 143.519066 130.119454 
C 143.700411 129.521638 143.852296 128.91528 143.974172 128.302568 
C 144.096048 127.689857 144.187768 127.071531 144.249001 126.449824 
L 125.254844 124.579063 
z
" clip-path="url(#p1b65943d37)" style="fill: none; stroke: #292929; stroke-width: 0.5; stroke-linejoin: miter"/>
   </g>
   <g id="patch_141">
    <path d="M 125.254844 124.579063 
C 125.254844 124.579063 125.254844 124.579063 125.254844 124.579063 
C 125.254844 124.579063 125.254844 124.579063 125.254844 124.579063 
L 144.691229 134.968027 
C 145.031275 134.331845 145.339882 133.679351 145.615934 133.012902 
C 145.891986 132.346453 146.135151 131.666853 146.344551 130.976555 
L 125.254844 124.579063 
z
" clip-path="url(#p1b65943d37)" style="fill: none; stroke: #292929; stroke-width: 0.5; stroke-linejoin: miter"/>
   </g>
   <g id="patch_142">
    <path d="M 125.254844 124.579063 
C 125.254844 124.579063 125.254844 124.579063 125.254844 124.579063 
C 125.254844 124.579063 125.254844 124.579063 125.254844 124.579063 
L 133.772911 131.56966 
C 134.001724 131.29085 134.21671 131.000975 134.417092 130.701081 
C 134.617475 130.401187 134.803013 130.091636 134.973036 129.773545 
L 125.254844 124.579063 
z
" clip-path="url(#p1b65943d37)" style="fill: none; stroke: #292929; stroke-width: 0.5; stroke-linejoin: miter"/>
   </g>
   <g id="patch_143">
    <path d="M 125.254844 124.579063 
C 125.254844 124.579063 125.254844 124.579063 125.254844 124.579063 
C 125.254844 124.579063 125.254844 124.579063 125.254844 124.579063 
L 125.254844 124.579063 
C 125.254844 124.579063 125.254844 124.579063 125.254844 124.579063 
C 125.254844 124.579063 125.254844 124.579063 125.254844 124.579063 
L 125.254844 124.579063 
z
" clip-path="url(#p1b65943d37)" style="fill: none; stroke: #292929; stroke-width: 0.5; stroke-linejoin: miter"/>
   </g>
   <g id="patch_144">
    <path d="M 125.254844 124.579063 
C 125.254844 124.579063 125.254844 124.579063 125.254844 124.579063 
C 125.254844 124.579063 125.254844 124.579063 125.254844 124.579063 
L 125.254844 124.579063 
C 125.254844 124.579063 125.254844 124.579063 125.254844 124.579063 
C 125.254844 124.579063 125.254844 124.579063 125.254844 124.579063 
L 125.254844 124.579063 
z
" clip-path="url(#p1b65943d37)" style="fill: none; stroke: #292929; stroke-width: 0.5; stroke-linejoin: miter"/>
   </g>
   <g id="patch_145">
    <path d="M 125.254844 124.579063 
C 125.254844 124.579063 125.254844 124.579063 125.254844 124.579063 
C 125.254844 124.579063 125.254844 124.579063 125.254844 124.579063 
L 125.254844 124.579063 
C 125.254844 124.579063 125.254844 124.579063 125.254844 124.579063 
C 125.254844 124.579063 125.254844 124.579063 125.254844 124.579063 
L 125.254844 124.579063 
z
" clip-path="url(#p1b65943d37)" style="fill: none; stroke: #292929; stroke-width: 0.5; stroke-linejoin: miter"/>
   </g>
   <g id="patch_146">
    <path d="M 125.254844 124.579063 
C 125.254844 124.579063 125.254844 124.579063 125.254844 124.579063 
C 125.254844 124.579063 125.254844 124.579063 125.254844 124.579063 
L 125.254844 124.579063 
C 125.254844 124.579063 125.254844 124.579063 125.254844 124.579063 
C 125.254844 124.579063 125.254844 124.579063 125.254844 124.579063 
L 125.254844 124.579063 
z
" clip-path="url(#p1b65943d37)" style="fill: none; stroke: #292929; stroke-width: 0.5; stroke-linejoin: miter"/>
   </g>
   <g id="patch_147">
    <path d="M 125.254844 124.579063 
C 125.254844 124.579063 125.254844 124.579063 125.254844 124.579063 
C 125.254844 124.579063 125.254844 124.579063 125.254844 124.579063 
L 123.727374 140.087727 
C 124.234995 140.137723 124.744766 140.162766 125.254844 140.162766 
C 125.764922 140.162766 126.274692 140.137723 126.782314 140.087727 
L 125.254844 124.579063 
z
" clip-path="url(#p1b65943d37)" style="fill: none; stroke: #292929; stroke-width: 0.5; stroke-linejoin: miter"/>
   </g>
   <g id="patch_148">
    <path d="M 125.254844 124.579063 
C 125.254844 124.579063 125.254844 124.579063 125.254844 124.579063 
C 125.254844 124.579063 125.254844 124.579063 125.254844 124.579063 
L 121.337196 137.493818 
C 121.759915 137.622048 122.188675 137.729447 122.621927 137.815626 
C 123.05518 137.901806 123.492403 137.966661 123.932016 138.00996 
L 125.254844 124.579063 
z
" clip-path="url(#p1b65943d37)" style="fill: none; stroke: #292929; stroke-width: 0.5; stroke-linejoin: miter"/>
   </g>
   <g id="patch_149">
    <path d="M 125.254844 124.579063 
C 125.254844 124.579063 125.254844 124.579063 125.254844 124.579063 
C 125.254844 124.579063 125.254844 124.579063 125.254844 124.579063 
L 122.657603 129.438159 
C 122.816648 129.52317 122.979772 129.600322 123.146384 129.669335 
C 123.312996 129.738348 123.482896 129.799139 123.655471 129.851489 
L 125.254844 124.579063 
z
" clip-path="url(#p1b65943d37)" style="fill: none; stroke: #292929; stroke-width: 0.5; stroke-linejoin: miter"/>
   </g>
   <g id="patch_150">
    <path d="M 125.254844 124.579063 
C 125.254844 124.579063 125.254844 124.579063 125.254844 124.579063 
C 125.254844 124.579063 125.254844 124.579063 125.254844 124.579063 
L 112.176634 140.514907 
C 112.698238 140.942976 113.240545 141.345178 113.801595 141.72006 
C 114.362646 142.094942 114.941764 142.442052 115.536857 142.760136 
L 125.254844 124.579063 
z
" clip-path="url(#p1b65943d37)" style="fill: none; stroke: #292929; stroke-width: 0.5; stroke-linejoin: miter"/>
   </g>
   <g id="patch_151">
    <path d="M 125.254844 124.579063 
C 125.254844 124.579063 125.254844 124.579063 125.254844 124.579063 
C 125.254844 124.579063 125.254844 124.579063 125.254844 124.579063 
L 125.254844 124.579063 
C 125.254844 124.579063 125.254844 124.579063 125.254844 124.579063 
C 125.254844 124.579063 125.254844 124.579063 125.254844 124.579063 
L 125.254844 124.579063 
z
" clip-path="url(#p1b65943d37)" style="fill: none; stroke: #292929; stroke-width: 0.5; stroke-linejoin: miter"/>
   </g>
   <g id="patch_152">
    <path d="M 125.254844 124.579063 
C 125.254844 124.579063 125.254844 124.579063 125.254844 124.579063 
C 125.254844 124.579063 125.254844 124.579063 125.254844 124.579063 
L 114.389574 130.38667 
C 114.579666 130.742307 114.787104 131.088396 115.011138 131.423688 
C 115.235173 131.758979 115.475535 132.08307 115.731355 132.394788 
L 125.254844 124.579063 
z
" clip-path="url(#p1b65943d37)" style="fill: none; stroke: #292929; stroke-width: 0.5; stroke-linejoin: miter"/>
   </g>
   <g id="patch_153">
    <path d="M 125.254844 124.579063 
C 125.254844 124.579063 125.254844 124.579063 125.254844 124.579063 
C 125.254844 124.579063 125.254844 124.579063 125.254844 124.579063 
L 102.272868 131.550569 
C 102.501056 132.302803 102.766039 133.04338 103.06686 133.769626 
C 103.367681 134.495872 103.703977 135.206911 104.074534 135.900174 
L 125.254844 124.579063 
z
" clip-path="url(#p1b65943d37)" style="fill: none; stroke: #292929; stroke-width: 0.5; stroke-linejoin: miter"/>
   </g>
   <g id="patch_154">
    <path d="M 125.254844 124.579063 
C 125.254844 124.579063 125.254844 124.579063 125.254844 124.579063 
C 125.254844 124.579063 125.254844 124.579063 125.254844 124.579063 
L 109.74618 126.106533 
C 109.796176 126.614154 109.871065 127.119015 109.970576 127.619292 
C 110.070088 128.119569 110.194101 128.614659 110.342169 129.102773 
L 125.254844 124.579063 
z
" clip-path="url(#p1b65943d37)" style="fill: none; stroke: #292929; stroke-width: 0.5; stroke-linejoin: miter"/>
   </g>
   <g id="patch_155">
    <path d="M 125.254844 124.579063 
C 125.254844 124.579063 125.254844 124.579063 125.254844 124.579063 
C 125.254844 124.579063 125.254844 124.579063 125.254844 124.579063 
L 104.73881 122.55841 
C 104.672671 123.22993 104.639541 123.904293 104.639541 124.579063 
C 104.639541 125.253832 104.672671 125.928195 104.73881 126.599715 
L 125.254844 124.579063 
z
" clip-path="url(#p1b65943d37)" style="fill: none; stroke: #292929; stroke-width: 0.5; stroke-linejoin: miter"/>
   </g>
   <g id="patch_156">
    <path d="M 125.254844 124.579063 
C 125.254844 124.579063 125.254844 124.579063 125.254844 124.579063 
C 125.254844 124.579063 125.254844 124.579063 125.254844 124.579063 
L 86.510578 112.826118 
C 86.125887 114.094276 85.80369 115.380556 85.545152 116.680314 
C 85.286614 117.980071 85.092047 119.291739 84.962152 120.610579 
L 125.254844 124.579063 
z
" clip-path="url(#p1b65943d37)" style="fill: none; stroke: #292929; stroke-width: 0.5; stroke-linejoin: miter"/>
   </g>
   <g id="patch_157">
    <path d="M 125.254844 124.579063 
C 125.254844 124.579063 125.254844 124.579063 125.254844 124.579063 
C 125.254844 124.579063 125.254844 124.579063 125.254844 124.579063 
L 93.023245 107.350914 
C 92.459342 108.405902 91.947576 109.487941 91.489795 110.593121 
C 91.032014 111.698302 90.628771 112.825292 90.281521 113.970021 
L 125.254844 124.579063 
z
" clip-path="url(#p1b65943d37)" style="fill: none; stroke: #292929; stroke-width: 0.5; stroke-linejoin: miter"/>
   </g>
   <g id="patch_158">
    <path d="M 125.254844 124.579063 
C 125.254844 124.579063 125.254844 124.579063 125.254844 124.579063 
C 125.254844 124.579063 125.254844 124.579063 125.254844 124.579063 
L 85.529223 91.977088 
C 84.462112 93.277367 83.459484 94.629255 82.524961 96.027868 
C 81.590438 97.42648 80.725146 98.870133 79.93221 100.35361 
L 125.254844 124.579063 
z
" clip-path="url(#p1b65943d37)" style="fill: none; stroke: #292929; stroke-width: 0.5; stroke-linejoin: miter"/>
   </g>
   <g id="patch_159">
    <path d="M 125.254844 124.579063 
C 125.254844 124.579063 125.254844 124.579063 125.254844 124.579063 
C 125.254844 124.579063 125.254844 124.579063 125.254844 124.579063 
L 98.865919 92.424064 
C 97.813438 93.287813 96.803999 94.202715 95.841248 95.165466 
C 94.878497 96.128217 93.963595 97.137656 93.099846 98.190137 
L 125.254844 124.579063 
z
" clip-path="url(#p1b65943d37)" style="fill: none; stroke: #292929; stroke-width: 0.5; stroke-linejoin: miter"/>
   </g>
   <g id="patch_160">
    <path d="M 125.254844 124.579063 
C 125.254844 124.579063 125.254844 124.579063 125.254844 124.579063 
C 125.254844 124.579063 125.254844 124.579063 125.254844 124.579063 
L 99.412621 76.231664 
C 97.830139 77.077519 96.290139 78.000559 94.798185 78.997451 
C 93.306231 79.994343 91.86412 81.063885 90.477063 82.202214 
L 125.254844 124.579063 
z
" clip-path="url(#p1b65943d37)" style="fill: none; stroke: #292929; stroke-width: 0.5; stroke-linejoin: miter"/>
   </g>
   <g id="patch_161">
    <path d="M 125.254844 124.579063 
C 125.254844 124.579063 125.254844 124.579063 125.254844 124.579063 
C 125.254844 124.579063 125.254844 124.579063 125.254844 124.579063 
L 113.945568 87.297375 
C 112.725282 87.667545 111.523907 88.097404 110.345781 88.5854 
C 109.167654 89.073396 108.014197 89.61894 106.889576 90.220063 
L 125.254844 124.579063 
z
" clip-path="url(#p1b65943d37)" style="fill: none; stroke: #292929; stroke-width: 0.5; stroke-linejoin: miter"/>
   </g>
   <g id="patch_162">
    <path d="M 125.254844 124.579063 
C 125.254844 124.579063 125.254844 124.579063 125.254844 124.579063 
C 125.254844 124.579063 125.254844 124.579063 125.254844 124.579063 
L 117.752337 48.404836 
C 115.259041 48.650405 112.779304 49.018239 110.322084 49.50701 
C 107.864864 49.995782 105.433122 50.604901 103.035642 51.332169 
L 125.254844 124.579063 
z
" clip-path="url(#p1b65943d37)" style="fill: none; stroke: #292929; stroke-width: 0.5; stroke-linejoin: miter"/>
   </g>
   <g id="PathCollection_1">
    <defs>
     <path id="mf124cbd690" d="M 0.193618 7.414054 
L 0.193618 7.414054 
C 0.054922 7.414054 -0.078235 7.358899 -0.176308 7.260826 
C -0.274381 7.162753 -0.329536 7.029596 -0.329536 6.890901 
L -0.329536 5.365008 
L -1.528416 6.56393 
L -1.528416 6.56393 
C -1.577018 6.612704 -1.634775 6.651408 -1.698366 6.677814 
C -1.761958 6.704221 -1.830141 6.717815 -1.898997 6.717815 
C -1.967853 6.717815 -2.036037 6.704221 -2.099628 6.677814 
C -2.163219 6.651408 -2.220976 6.612704 -2.269578 6.56393 
L -2.269578 6.56393 
C -2.318353 6.515327 -2.357056 6.457571 -2.383463 6.393979 
C -2.409869 6.330388 -2.423463 6.262205 -2.423463 6.193348 
C -2.423463 6.124492 -2.409869 6.056309 -2.383463 5.992718 
C -2.357056 5.929126 -2.318353 5.87137 -2.269578 5.822767 
L -0.329536 3.884106 
L -0.329536 0.820937 
L -2.98067 2.351538 
L -3.691824 5.001416 
L -3.691824 5.001416 
C -3.727584 5.135411 -3.815199 5.249836 -3.93523 5.319305 
C -4.055261 5.388775 -4.198123 5.407741 -4.332122 5.371997 
L -4.332122 5.371997 
C -4.466126 5.336237 -4.580558 5.248616 -4.650029 5.128576 
C -4.719499 5.008535 -4.73846 4.865662 -4.702703 4.731657 
L -4.262647 3.092721 
L -5.585535 3.855668 
L -5.585535 3.855668 
C -5.645013 3.890144 -5.710708 3.912561 -5.778854 3.921634 
C -5.847001 3.930706 -5.916272 3.926258 -5.982698 3.908543 
C -6.049125 3.890828 -6.111412 3.860192 -6.165991 3.818391 
C -6.220571 3.77659 -6.266379 3.724437 -6.300791 3.664922 
L -6.300791 3.664922 
C -6.335212 3.605364 -6.35755 3.539597 -6.366524 3.471396 
C -6.375498 3.403194 -6.370933 3.333888 -6.35309 3.267452 
C -6.335248 3.201017 -6.304476 3.138749 -6.26254 3.08422 
C -6.220605 3.029692 -6.168323 2.983966 -6.108695 2.949666 
L -4.785807 2.186762 
L -6.424743 1.746706 
L -6.424743 1.746706 
C -6.558747 1.710946 -6.673179 1.623325 -6.74265 1.503284 
C -6.81212 1.383244 -6.831081 1.240371 -6.795324 1.106366 
L -6.795324 1.106366 
C -6.777471 1.039969 -6.746703 0.977739 -6.704784 0.923241 
C -6.662864 0.868744 -6.61061 0.823041 -6.551015 0.788752 
C -6.491421 0.754464 -6.425647 0.732257 -6.357465 0.723406 
C -6.289282 0.714554 -6.220019 0.71923 -6.153645 0.737166 
L -3.505232 1.44698 
L -0.852424 -0.08496 
L -3.503767 -1.615666 
L -6.153645 -0.905851 
L -6.153645 -0.905851 
C -6.22011 -0.887939 -6.289462 -0.883321 -6.357716 -0.892262 
C -6.42597 -0.901202 -6.491793 -0.923527 -6.551403 -0.957953 
C -6.611013 -0.992379 -6.663247 -1.038234 -6.705103 -1.092883 
C -6.746958 -1.147533 -6.777619 -1.209911 -6.795324 -1.276432 
L -6.795324 -1.276432 
C -6.831068 -1.410431 -6.812101 -1.553293 -6.742632 -1.673324 
C -6.673162 -1.793355 -6.558738 -1.88097 -6.424743 -1.91673 
L -4.785807 -2.355447 
L -6.108695 -3.119732 
L -6.108695 -3.119732 
C -6.228699 -3.188976 -6.316415 -3.303132 -6.352417 -3.436921 
C -6.388419 -3.57071 -6.369839 -3.713469 -6.300791 -3.833586 
L -6.300791 -3.833586 
C -6.266491 -3.893214 -6.220765 -3.945496 -6.166237 -3.987431 
C -6.111708 -4.029367 -6.04944 -4.060139 -5.983005 -4.077981 
C -5.91657 -4.095823 -5.847263 -4.100389 -5.779062 -4.091415 
C -5.71086 -4.082441 -5.645094 -4.060102 -5.585535 -4.025682 
L -4.262647 -3.261396 
L -4.702703 -4.900332 
L -4.702703 -4.900332 
C -4.73846 -5.034337 -4.719499 -5.17721 -4.650029 -5.29725 
C -4.580558 -5.417291 -4.466126 -5.504912 -4.332122 -5.540672 
L -4.332122 -5.540672 
C -4.19831 -5.576464 -4.055613 -5.557686 -3.935617 -5.488496 
C -3.81562 -5.419305 -3.727882 -5.305212 -3.691824 -5.171472 
L -2.982009 -2.521594 
L -0.329411 -0.990302 
L -0.329411 -4.051588 
L -2.269453 -5.991589 
L -2.269453 -5.991589 
C -2.318227 -6.040191 -2.356931 -6.097947 -2.383337 -6.161539 
C -2.409744 -6.22513 -2.423338 -6.293314 -2.423338 -6.36217 
C -2.423338 -6.431026 -2.409744 -6.499209 -2.383337 -6.5628 
C -2.356931 -6.626392 -2.318227 -6.684149 -2.269453 -6.732751 
L -2.269453 -6.732751 
C -2.22085 -6.781526 -2.163094 -6.820229 -2.099502 -6.846635 
C -2.035911 -6.873042 -1.967728 -6.886636 -1.898871 -6.886636 
C -1.830015 -6.886636 -1.761832 -6.873042 -1.698241 -6.846635 
C -1.634649 -6.820229 -1.576893 -6.781526 -1.52829 -6.732751 
L -0.329411 -5.533829 
L -0.329411 -7.059722 
L -0.329411 -7.059722 
C -0.329411 -7.198418 -0.274255 -7.331575 -0.176182 -7.429647 
C -0.07811 -7.52772 0.055047 -7.582875 0.193743 -7.582875 
L 0.193743 -7.582875 
C 0.332439 -7.582875 0.465596 -7.52772 0.563669 -7.429647 
C 0.661741 -7.331575 0.716897 -7.198418 0.716897 -7.059722 
L 0.716897 -5.533829 
L 1.915777 -6.732751 
L 1.915777 -6.732751 
C 1.964379 -6.781526 2.022136 -6.820229 2.085727 -6.846635 
C 2.149318 -6.873042 2.217502 -6.886636 2.286358 -6.886636 
C 2.355214 -6.886636 2.423397 -6.873042 2.486989 -6.846635 
C 2.55058 -6.820229 2.608337 -6.781526 2.656939 -6.732751 
L 2.656939 -6.732751 
C 2.705714 -6.684149 2.744417 -6.626392 2.770823 -6.5628 
C 2.79723 -6.499209 2.810824 -6.431026 2.810824 -6.36217 
C 2.810824 -6.293314 2.79723 -6.22513 2.770823 -6.161539 
C 2.744417 -6.097947 2.705714 -6.040191 2.656939 -5.991589 
L 0.716897 -4.051588 
L 0.716897 -0.991139 
L 3.369495 -2.522954 
L 4.07931 -5.171367 
L 4.07931 -5.171367 
C 4.115368 -5.305107 4.203106 -5.4192 4.323103 -5.488391 
C 4.4431 -5.557582 4.585797 -5.576359 4.719608 -5.540567 
L 4.719608 -5.540567 
C 4.853612 -5.504807 4.968045 -5.417186 5.037515 -5.297146 
C 5.106986 -5.177105 5.125946 -5.034232 5.090189 -4.900227 
L 4.650133 -3.262673 
L 5.973022 -4.025577 
L 5.973022 -4.025577 
C 6.03258 -4.059998 6.098346 -4.082336 6.166548 -4.09131 
C 6.234749 -4.100284 6.304056 -4.095719 6.370491 -4.077876 
C 6.436926 -4.060034 6.499194 -4.029262 6.553723 -3.987327 
C 6.608252 -3.945391 6.653978 -3.893109 6.688277 -3.833481 
L 6.688277 -3.833481 
C 6.757325 -3.713365 6.775905 -3.570605 6.739903 -3.436816 
C 6.703901 -3.303027 6.616186 -3.188871 6.496181 -3.119628 
L 5.173293 -2.355342 
L 6.812229 -1.916625 
L 6.812229 -1.916625 
C 6.946224 -1.880865 7.060649 -1.79325 7.130118 -1.67322 
C 7.199588 -1.553189 7.218554 -1.410326 7.18281 -1.276327 
L 7.18281 -1.276327 
C 7.165106 -1.209806 7.134445 -1.147429 7.092589 -1.092779 
C 7.050733 -1.038129 6.998499 -0.992274 6.938889 -0.957848 
C 6.879279 -0.923422 6.813456 -0.901098 6.745202 -0.892157 
C 6.676949 -0.883217 6.607597 -0.887835 6.541131 -0.905746 
L 3.891253 -1.615561 
L 1.239492 -0.084604 
L 3.892718 1.447085 
L 6.541131 0.73727 
L 6.541131 0.73727 
C 6.674948 0.701466 6.817656 0.720237 6.937662 0.789429 
C 7.057669 0.858621 7.145413 0.972721 7.181471 1.10647 
L 7.181471 1.10647 
C 7.217274 1.240293 7.198497 1.383006 7.129297 1.503014 
C 7.060096 1.623021 6.945986 1.710762 6.812229 1.74681 
L 5.173293 2.186866 
L 6.496181 2.949771 
L 6.496181 2.949771 
C 6.555697 2.984183 6.607849 3.029991 6.649651 3.08457 
C 6.691452 3.13915 6.722088 3.201437 6.739803 3.267863 
C 6.757517 3.33429 6.761966 3.403561 6.752893 3.471707 
C 6.743821 3.539854 6.721404 3.605549 6.686927 3.665026 
L 6.686927 3.665026 
C 6.617458 3.784813 6.503196 3.87225 6.369416 3.907994 
C 6.235636 3.943739 6.092989 3.924946 5.973032 3.855772 
L 4.650144 3.091487 
L 5.08886 4.731783 
L 5.08886 4.731783 
C 5.124664 4.865606 5.105887 5.008319 5.036686 5.128326 
C 4.967486 5.248334 4.853376 5.336074 4.719619 5.372123 
L 4.719619 5.372123 
C 4.585619 5.407867 4.442757 5.3889 4.322726 5.319431 
C 4.202695 5.249961 4.115081 5.135537 4.07932 5.001542 
L 3.368166 2.351664 
L 0.717033 0.821063 
L 0.717033 3.884232 
L 2.657075 5.822893 
L 2.657075 5.822893 
C 2.70585 5.871495 2.744553 5.929252 2.770959 5.992843 
C 2.797366 6.056435 2.81096 6.124618 2.81096 6.193474 
C 2.81096 6.26233 2.797366 6.330514 2.770959 6.394105 
C 2.744553 6.457696 2.70585 6.515453 2.657075 6.564055 
L 2.657075 6.564055 
C 2.608473 6.61283 2.550716 6.651533 2.487125 6.67794 
C 2.423533 6.704346 2.35535 6.71794 2.286494 6.71794 
C 2.217638 6.71794 2.149454 6.704346 2.085863 6.67794 
C 2.022272 6.651533 1.964515 6.61283 1.915913 6.564055 
L 0.717033 5.365133 
L 0.717033 6.891026 
L 0.717033 6.891026 
C 0.717033 7.029722 0.661877 7.162879 0.563805 7.260952 
C 0.465732 7.359024 0.332575 7.41418 0.193879 7.41418 
L 0.193618 7.414054 
z
"/>
    </defs>
    <g clip-path="url(#p1b65943d37)">
     <use xlink:href="#mf124cbd690" x="125.399195" y="37.70937" style="fill: #9e2096; fill-opacity: 0.7"/>
    </g>
   </g>
   <g id="patch_163">
    <path d="M 125.254844 13.699063 
C 110.694216 13.699063 96.275171 16.567189 82.822905 22.1393 
C 69.370638 27.711411 57.146763 35.879144 46.850844 46.175063 
C 36.554925 56.470982 28.387192 68.694857 22.815081 82.147124 
C 17.24297 95.59939 14.374844 110.018434 14.374844 124.579063 
C 14.374844 139.139691 17.24297 153.558735 22.815081 167.011001 
C 28.387192 180.463268 36.554925 192.687143 46.850844 202.983062 
C 57.146763 213.278981 69.370638 221.446714 82.822905 227.018825 
C 96.275171 232.590936 110.694216 235.459063 125.254844 235.459063 
C 139.815472 235.459063 154.234516 232.590936 167.686783 227.018825 
C 181.139049 221.446714 193.362925 213.278981 203.658844 202.983062 
C 213.954763 192.687143 222.122495 180.463268 227.694606 167.011001 
C 233.266717 153.558735 236.134844 139.139691 236.134844 124.579063 
C 236.134844 110.018434 233.266717 95.59939 227.694606 82.147124 
C 222.122495 68.694857 213.954763 56.470982 203.658844 46.175063 
C 193.362925 35.879144 181.139049 27.711411 167.686783 22.1393 
C 154.234516 16.567189 139.815472 13.699063 125.254844 13.699063 
" style="fill: none; stroke: #000000; stroke-width: 0.8; stroke-linejoin: miter; stroke-linecap: square"/>
   </g>
  </g>
 </g>
 <defs>
  <clipPath id="p1b65943d37">
   <path d="M 236.134844 124.579063 
C 236.134844 110.018434 233.266717 95.59939 227.694606 82.147124 
C 222.122495 68.694857 213.954763 56.470982 203.658844 46.175063 
C 193.362925 35.879144 181.139049 27.711411 167.686783 22.1393 
C 154.234516 16.567189 139.815472 13.699063 125.254844 13.699063 
C 110.694216 13.699063 96.275171 16.567189 82.822905 22.1393 
C 69.370638 27.711411 57.146763 35.879144 46.850844 46.175063 
C 36.554925 56.470982 28.387192 68.694857 22.815081 82.147124 
C 17.24297 95.59939 14.374844 110.018434 14.374844 124.579062 
C 14.374844 139.139691 17.24297 153.558735 22.815081 167.011001 
C 28.387192 180.463268 36.554925 192.687143 46.850844 202.983062 
C 57.146763 213.278981 69.370638 221.446714 82.822905 227.018825 
C 96.275171 232.590936 110.694216 235.459063 125.254844 235.459063 
C 139.815472 235.459063 154.234516 232.590936 167.686783 227.018825 
C 181.139049 221.446714 193.362925 213.278981 203.658844 202.983062 
C 213.954763 192.687143 222.122495 180.463268 227.694606 167.011001 
C 233.266717 153.558735 236.134844 139.139691 236.134844 124.579063 
M 125.254844 124.579063 
C 125.254844 124.579063 125.254844 124.579063 125.254844 124.579063 
C 125.254844 124.579063 125.254844 124.579063 125.254844 124.579063 
C 125.254844 124.579063 125.254844 124.579063 125.254844 124.579063 
C 125.254844 124.579063 125.254844 124.579063 125.254844 124.579063 
C 125.254844 124.579063 125.254844 124.579063 125.254844 124.579063 
C 125.254844 124.579063 125.254844 124.579063 125.254844 124.579063 
C 125.254844 124.579063 125.254844 124.579063 125.254844 124.579063 
C 125.254844 124.579063 125.254844 124.579063 125.254844 124.579063 
C 125.254844 124.579063 125.254844 124.579063 125.254844 124.579063 
C 125.254844 124.579063 125.254844 124.579063 125.254844 124.579063 
C 125.254844 124.579063 125.254844 124.579063 125.254844 124.579063 
C 125.254844 124.579063 125.254844 124.579063 125.254844 124.579063 
C 125.254844 124.579063 125.254844 124.579063 125.254844 124.579063 
C 125.254844 124.579063 125.254844 124.579063 125.254844 124.579063 
C 125.254844 124.579063 125.254844 124.579063 125.254844 124.579063 
C 125.254844 124.579063 125.254844 124.579063 125.254844 124.579063 
z
"/>
  </clipPath>
 </defs>
</svg>
