<?xml version="1.0" encoding="utf-8" standalone="no"?>
<!DOCTYPE svg PUBLIC "-//W3C//DTD SVG 1.1//EN"
  "http://www.w3.org/Graphics/SVG/1.1/DTD/svg11.dtd">
<svg xmlns:xlink="http://www.w3.org/1999/xlink" width="248.410469pt" height="249.158125pt" viewBox="0 0 248.410469 249.158125" xmlns="http://www.w3.org/2000/svg" version="1.1">
 <title>Ski Rose for Saint-Urcize</title>
 <metadata>
  <rdf:RDF xmlns:dc="http://purl.org/dc/elements/1.1/" xmlns:cc="http://creativecommons.org/ns#" xmlns:rdf="http://www.w3.org/1999/02/22-rdf-syntax-ns#">
   <cc:Work>
    <dc:type rdf:resource="http://purl.org/dc/dcmitype/StillImage"/>
    <dc:title>Ski Rose for Saint-Urcize</dc:title>
    <dc:date>2025-03-01T23:59:45.910983</dc:date>
    <dc:description>A 32-bin stacked histogram of downhill ski run orientations colored by difficulty.</dc:description>
    <dc:format>image/svg+xml</dc:format>
    <dc:source>https://openskimap.org/?obj=9ff6f1d8750ad91d423dc6b98fd7162c2bf77d7c</dc:source>
    <dc:creator>
     <cc:Agent>
      <dc:title>https://github.com/dhimmel/openskistats</dc:title>
     </cc:Agent>
    </dc:creator>
    <dc:rights>
     <cc:Agent>
      <dc:title>https://creativecommons.org/licenses/by/4.0/</dc:title>
     </cc:Agent>
    </dc:rights>
   </cc:Work>
  </rdf:RDF>
 </metadata>
 <defs>
  <style type="text/css">*{stroke-linejoin: round; stroke-linecap: butt}</style>
 </defs>
 <g id="figure_1">
  <g id="patch_1">
   <path d="M 0 249.158125 
L 248.410469 249.158125 
L 248.410469 0 
L 0 0 
z
" style="fill: #ffffff"/>
  </g>
  <g id="axes_1">
   <g id="patch_2">
    <path d="M 236.134844 124.579063 
C 236.134844 110.018434 233.266717 95.59939 227.694606 82.147124 
C 222.122495 68.694857 213.954763 56.470982 203.658844 46.175063 
C 193.362925 35.879144 181.139049 27.711411 167.686783 22.1393 
C 154.234516 16.567189 139.815472 13.699062 125.254844 13.699062 
C 110.694216 13.699062 96.275171 16.567189 82.822905 22.1393 
C 69.370638 27.711411 57.146763 35.879144 46.850844 46.175063 
C 36.554925 56.470982 28.387192 68.694857 22.815081 82.147124 
C 17.24297 95.59939 14.374844 110.018434 14.374844 124.579062 
C 14.374844 139.139691 17.24297 153.558735 22.815081 167.011001 
C 28.387192 180.463268 36.554925 192.687143 46.850844 202.983062 
C 57.146763 213.278981 69.370638 221.446714 82.822905 227.018825 
C 96.275171 232.590936 110.694216 235.459063 125.254844 235.459063 
C 139.815472 235.459063 154.234516 232.590936 167.686783 227.018825 
C 181.139049 221.446714 193.362925 213.278981 203.658844 202.983062 
C 213.954763 192.687143 222.122495 180.463268 227.694606 167.011001 
C 233.266717 153.558735 236.134844 139.139691 236.134844 124.579063 
M 125.254844 124.579063 
C 125.254844 124.579063 125.254844 124.579063 125.254844 124.579063 
C 125.254844 124.579063 125.254844 124.579063 125.254844 124.579063 
C 125.254844 124.579063 125.254844 124.579063 125.254844 124.579063 
C 125.254844 124.579063 125.254844 124.579063 125.254844 124.579063 
C 125.254844 124.579063 125.254844 124.579063 125.254844 124.579063 
C 125.254844 124.579063 125.254844 124.579063 125.254844 124.579063 
C 125.254844 124.579063 125.254844 124.579063 125.254844 124.579063 
C 125.254844 124.579063 125.254844 124.579063 125.254844 124.579063 
C 125.254844 124.579063 125.254844 124.579063 125.254844 124.579063 
C 125.254844 124.579063 125.254844 124.579063 125.254844 124.579063 
C 125.254844 124.579063 125.254844 124.579063 125.254844 124.579063 
C 125.254844 124.579063 125.254844 124.579063 125.254844 124.579063 
C 125.254844 124.579063 125.254844 124.579063 125.254844 124.579063 
C 125.254844 124.579063 125.254844 124.579063 125.254844 124.579063 
C 125.254844 124.579063 125.254844 124.579063 125.254844 124.579063 
C 125.254844 124.579063 125.254844 124.579063 125.254844 124.579063 
z
" style="fill: #ffffff"/>
   </g>
   <g id="PolyCollection_1">
    <defs>
     <path id="mb2fe0f7f4f" d="M 235.355886 -137.123492 
L 234.980941 -137.080772 
L 234.214015 -135.070637 
L 233.168793 -133.072075 
L 232.052917 -131.111112 
L 230.880804 -129.190792 
L 229.876115 -127.318667 
L 228.616686 -125.481088 
L 227.319635 -123.688357 
L 226.205201 -121.935584 
L 224.842494 -120.230972 
L 223.450442 -118.573162 
L 222.247792 -116.945552 
L 220.803025 -115.378819 
L 219.550341 -113.835448 
L 218.060081 -112.361021 
L 216.763713 -110.90297 
L 215.234811 -109.52158 
L 213.900898 -108.149487 
L 212.340019 -106.861383 
L 210.974588 -105.575453 
L 209.594825 -104.330824 
L 208.202084 -103.127448 
L 206.594796 -102.021497 
L 205.182128 -100.903522 
L 203.760628 -99.826284 
L 202.331621 -98.789533 
L 200.896428 -97.792973 
L 199.456357 -96.836254 
L 198.201805 -95.84449 
L 196.753141 -94.963498 
L 195.303349 -94.121105 
L 194.03456 -93.23434 
L 192.583221 -92.465074 
L 191.13439 -91.732733 
L 189.860945 -90.947255 
L 188.585994 -90.193054 
L 187.144905 -89.563351 
L 185.872778 -88.87237 
L 184.601835 -88.21118 
L 183.332909 -87.579254 
L 181.915005 -87.07652 
L 180.656064 -86.502859 
L 179.4016 -85.956556 
L 178.152364 -85.436957 
L 177.046395 -84.838007 
L 175.805981 -84.368872 
L 174.57284 -83.924444 
L 173.347622 -83.503949 
L 172.130951 -83.106586 
L 171.041783 -82.623063 
L 169.839919 -82.269406 
L 168.759056 -81.827593 
L 167.573973 -81.514804 
L 166.503167 -81.112399 
L 165.336614 -80.837486 
L 164.277419 -80.472064 
L 163.222755 -80.12435 
L 162.084661 -79.900922 
L 161.043541 -79.586504 
L 160.007801 -79.288127 
L 158.97768 -79.005264 
L 157.879943 -78.840361 
L 156.865193 -78.585719 
L 155.856608 -78.34484 
L 154.854327 -78.117181 
L 153.858463 -77.902197 
L 152.869108 -77.699344 
L 151.886327 -77.508076 
L 150.910158 -77.327851 
L 149.940619 -77.15813 
L 148.977699 -76.998377 
L 148.021363 -76.848063 
L 147.10882 -76.624888 
L 146.162539 -76.494655 
L 145.222676 -76.372451 
L 144.289102 -76.257782 
L 143.361667 -76.150165 
L 142.464263 -75.981163 
L 141.546109 -75.889602 
L 140.633612 -75.803842 
L 139.726533 -75.723459 
L 138.839939 -75.592792 
L 137.940904 -75.525706 
L 137.046584 -75.462931 
L 136.166672 -75.358988 
L 135.279196 -75.307799 
L 134.395587 -75.260023 
L 133.521244 -75.181001 
L 132.643051 -75.14341 
L 131.771372 -75.081117 
L 130.897626 -75.053 
L 130.026141 -75.027246 
L 129.157764 -74.987764 
L 128.289023 -74.970666 
L 127.421829 -74.946937 
L 126.554736 -74.938176 
L 125.688113 -74.931306 
L 124.821573 -74.931113 
L 123.955037 -74.941431 
L 123.088142 -74.953439 
L 122.221194 -74.979324 
L 121.352859 -74.999646 
L 120.483047 -75.022054 
L 119.614021 -75.070195 
L 118.740994 -75.101464 
L 117.869985 -75.165821 
L 116.99271 -75.206498 
L 116.112256 -75.250072 
L 115.236699 -75.338306 
L 114.350434 -75.392449 
L 113.460061 -75.450255 
L 112.578662 -75.563906 
L 111.681115 -75.633779 
L 110.778654 -75.708267 
L 109.89039 -75.849241 
L 108.979635 -75.93759 
L 108.063308 -76.031664 
L 107.141192 -76.131901 
L 106.242009 -76.312169 
L 105.310484 -76.429119 
L 104.372742 -76.553517 
L 103.428651 -76.685855 
L 102.478105 -76.826637 
L 101.521021 -76.976378 
L 100.603386 -77.224054 
L 99.63627 -77.395519 
L 98.662577 -77.57739 
L 97.682319 -77.770205 
L 96.695534 -77.974504 
L 95.702282 -78.190833 
L 94.702651 -78.419735 
L 93.696752 -78.661754 
L 92.611731 -78.815107 
L 91.590196 -79.083902 
L 90.562852 -79.367579 
L 89.529912 -79.666668 
L 88.49161 -79.981694 
L 87.356825 -80.206184 
L 86.305012 -80.554286 
L 85.248679 -80.919995 
L 84.085471 -81.195596 
L 83.017541 -81.598071 
L 81.835811 -81.911298 
L 80.757826 -82.35297 
L 79.559311 -82.706822 
L 78.351133 -83.082165 
L 77.259678 -83.587318 
L 76.037782 -84.007647 
L 74.807947 -84.451789 
L 73.570822 -84.920518 
L 72.467665 -85.518605 
L 71.22168 -86.037582 
L 69.970445 -86.583148 
L 68.714708 -87.155963 
L 67.300428 -87.658028 
L 66.034648 -88.28888 
L 64.766821 -88.948894 
L 63.49778 -89.638597 
L 62.060179 -90.267159 
L 60.788245 -91.019875 
L 59.517783 -91.803773 
L 58.072326 -92.534645 
L 56.80476 -93.384562 
L 55.358399 -94.187223 
L 53.911859 -95.02783 
L 52.466404 -95.906933 
L 51.214599 -96.896549 
L 49.777651 -97.851187 
L 48.345536 -98.845568 
L 46.919564 -99.880044 
L 45.501053 -100.954913 
L 44.091329 -102.070428 
L 42.691726 -103.226789 
L 41.097462 -104.374663 
L 39.720504 -105.616556 
L 38.357828 -106.899665 
L 37.010792 -108.223994 
L 35.468811 -109.554034 
L 34.156055 -110.964257 
L 32.649103 -112.387285 
L 31.376684 -113.882997 
L 29.911477 -115.39854 
L 28.685589 -116.978897 
L 27.269075 -118.585996 
L 25.879577 -120.240245 
L 24.735787 -121.946878 
L 23.40671 -123.690247 
L 22.111626 -125.47918 
L 21.068151 -127.307287 
L 19.849856 -129.181144 
L 18.677763 -131.097596 
L 17.76631 -133.038594 
L 16.709692 -135.030772 
L 15.736558 -137.057095 
L 15.126361 -137.126618 
L 15.126361 -137.126618 
L 15.063809 -135.189252 
L 14.800806 -133.271984 
L 14.618184 -131.34589 
L 14.559231 -129.412137 
L 14.442662 -127.480782 
L 14.447152 -125.546067 
L 14.396432 -123.611616 
L 14.515052 -121.679239 
L 14.530199 -119.74472 
L 14.658242 -117.814685 
L 14.738345 -115.881225 
L 14.98158 -113.960955 
L 15.126674 -112.031542 
L 15.371755 -110.112679 
L 15.703696 -108.206534 
L 15.944319 -106.286754 
L 16.272558 -104.38039 
L 16.757811 -102.505092 
L 17.028397 -100.585837 
L 17.508506 -98.711455 
L 17.909223 -96.817597 
L 18.449809 -94.959405 
L 18.950242 -93.090205 
L 19.548332 -91.249927 
L 20.175771 -89.420097 
L 20.735636 -87.56687 
L 21.424097 -85.758337 
L 22.165959 -83.971271 
L 22.821647 -82.149843 
L 23.60111 -80.378761 
L 24.411841 -78.622258 
L 25.191222 -76.851163 
L 26.068892 -75.126771 
L 26.924383 -73.391464 
L 27.82365 -71.67824 
L 28.769266 -69.990149 
L 29.730943 -68.311185 
L 30.722879 -66.6498 
L 31.739655 -65.003317 
L 32.814508 -63.394139 
L 34.355628 -62.105763 
L 36.180753 -61.043131 
L 38.032991 -60.038286 
L 39.896313 -59.081158 
L 41.77092 -58.172951 
L 43.644735 -57.304881 
L 45.521722 -56.480543 
L 47.39199 -55.691829 
L 49.261077 -54.943605 
L 51.064608 -54.175158 
L 52.917632 -53.493483 
L 54.710139 -52.79225 
L 56.496644 -52.123039 
L 58.276376 -51.484891 
L 60.048635 -50.876851 
L 61.812789 -50.29796 
L 63.568264 -49.747258 
L 65.314543 -49.223777 
L 67.05116 -48.726545 
L 68.7777 -48.254584 
L 70.458406 -47.757291 
L 72.165559 -47.333673 
L 73.826403 -46.879165 
L 75.482869 -46.452712 
L 77.15984 -46.095149 
L 78.795167 -45.706182 
L 80.425377 -45.343249 
L 82.043995 -44.99458 
L 83.657156 -44.670647 
L 85.258723 -44.359254 
L 86.854621 -44.071322 
L 88.43908 -43.794241 
L 89.998771 -43.495646 
L 91.570398 -43.257616 
L 93.131055 -43.028074 
L 94.671142 -42.779236 
L 96.219304 -42.585227 
L 97.747143 -42.367212 
L 99.278722 -42.193329 
L 100.794991 -42.003983 
L 102.315225 -41.861468 
L 103.820593 -41.698963 
L 105.321328 -41.549996 
L 106.822151 -41.434558 
L 108.313531 -41.309851 
L 109.801001 -41.197589 
L 111.284816 -41.097467 
L 112.768314 -41.029742 
L 114.245041 -40.951311 
L 115.719021 -40.884221 
L 117.190559 -40.828265 
L 118.659972 -40.783266 
L 120.127582 -40.749072 
L 121.593721 -40.725559 
L 123.05872 -40.712473 
L 124.522913 -40.708162 
L 125.986766 -40.70905 
L 127.450918 -40.714376 
L 128.915831 -40.72868 
L 130.381852 -40.753226 
L 131.849308 -40.788448 
L 133.318531 -40.834467 
L 134.791788 -40.874378 
L 136.266048 -40.940659 
L 137.743085 -41.018292 
L 139.223191 -41.107509 
L 140.706652 -41.208567 
L 142.197443 -41.303529 
L 143.689112 -41.427451 
L 145.184958 -41.564163 
L 146.685201 -41.714018 
L 148.199125 -41.844658 
L 149.709824 -42.020432 
L 151.234433 -42.182333 
L 152.756318 -42.38582 
L 154.297296 -42.565709 
L 155.831178 -42.798942 
L 157.384066 -43.01428 
L 158.930291 -43.279342 
L 160.501393 -43.517549 
L 162.077759 -43.778549 
L 163.665991 -44.048417 
L 165.259381 -44.342373 
L 166.839485 -44.695709 
L 168.452128 -45.019561 
L 170.098275 -45.318566 
L 171.725661 -45.68727 
L 173.365402 -46.069767 
L 175.009191 -46.480382 
L 176.665194 -46.906497 
L 178.362168 -47.307426 
L 180.030744 -47.786082 
L 181.747647 -48.23342 
L 183.474996 -48.705083 
L 185.172203 -49.252618 
L 186.917482 -49.776301 
L 188.671958 -50.327162 
L 190.435116 -50.906167 
L 192.206384 -51.514278 
L 193.985131 -52.152452 
L 195.821691 -52.769717 
L 197.614988 -53.470947 
L 199.413414 -54.205207 
L 201.277716 -54.916935 
L 203.142969 -55.669471 
L 204.953512 -56.50997 
L 206.830615 -57.333186 
L 208.702773 -58.201582 
L 210.577805 -59.108451 
L 212.439838 -60.06556 
L 214.356908 -61.023178 
L 216.185979 -62.083825 
L 217.700143 -63.390854 
L 218.766042 -65.005859 
L 219.793448 -66.645732 
L 220.780682 -68.310044 
L 221.743515 -69.988399 
L 222.641582 -71.702378 
L 223.583417 -73.392447 
L 224.403003 -75.145614 
L 225.253239 -76.882275 
L 226.047759 -78.645085 
L 226.924573 -80.371806 
L 227.648475 -82.166232 
L 228.409824 -83.945235 
L 229.101325 -85.752454 
L 229.698492 -87.593627 
L 230.353909 -89.413407 
L 230.962643 -91.249522 
L 231.524938 -93.100426 
L 232.041086 -94.964617 
L 232.579953 -96.822902 
L 232.999751 -98.711799 
L 233.495869 -100.582605 
L 233.887209 -102.477558 
L 234.176263 -104.391671 
L 234.559926 -106.287665 
L 234.908581 -108.191202 
L 235.120684 -110.11495 
L 235.395571 -112.030112 
L 235.520323 -113.961704 
L 235.755249 -115.882492 
L 235.921822 -117.81038 
L 235.895752 -119.748376 
L 236.020941 -121.67855 
L 236.110158 -123.611643 
L 235.975753 -125.545309 
L 235.995587 -127.478911 
L 235.95483 -129.412328 
L 235.907367 -131.346861 
L 235.640014 -133.266564 
L 235.528657 -135.197223 
L 235.355886 -137.123492 
z
" style="stroke: #ffee9c"/>
    </defs>
    <g clip-path="url(#pfac31ca494)">
     <use xlink:href="#mb2fe0f7f4f" x="0" y="249.158125" style="fill: #ffee9c; stroke: #ffee9c"/>
    </g>
   </g>
   <g id="matplotlib.axis_1">
    <g id="xtick_1">
     <g id="line2d_1">
      <path d="M 125.254844 124.579062 
L 125.254844 13.699062 
" clip-path="url(#pfac31ca494)" style="fill: none; stroke: #b0b0b0; stroke-width: 0.8; stroke-linecap: square"/>
     </g>
     <g id="text_1">
      <!-- N -->
      <g transform="translate(121.070469 7.958437) scale(0.1 -0.1)">
       <defs>
        <path id="DejaVuSans-Bold-4e" d="M 588 4666 
L 1931 4666 
L 3628 1466 
L 3628 4666 
L 4769 4666 
L 4769 0 
L 3425 0 
L 1728 3200 
L 1728 0 
L 588 0 
L 588 4666 
z
" transform="scale(0.015625)"/>
       </defs>
       <use xlink:href="#DejaVuSans-Bold-4e"/>
      </g>
     </g>
    </g>
    <g id="xtick_2">
     <g id="line2d_2">
      <path d="M 125.254844 124.579062 
L 203.658844 46.175063 
" clip-path="url(#pfac31ca494)" style="fill: none; stroke: #b0b0b0; stroke-width: 0.8; stroke-linecap: square"/>
     </g>
    </g>
    <g id="xtick_3">
     <g id="line2d_3">
      <path d="M 125.254844 124.579062 
L 236.134844 124.579062 
" clip-path="url(#pfac31ca494)" style="fill: none; stroke: #b0b0b0; stroke-width: 0.8; stroke-linecap: square"/>
     </g>
     <g id="text_2">
      <!-- E -->
      <g transform="translate(241.219219 127.338437) scale(0.1 -0.1)">
       <defs>
        <path id="DejaVuSans-Bold-45" d="M 588 4666 
L 3834 4666 
L 3834 3756 
L 1791 3756 
L 1791 2888 
L 3713 2888 
L 3713 1978 
L 1791 1978 
L 1791 909 
L 3903 909 
L 3903 0 
L 588 0 
L 588 4666 
z
" transform="scale(0.015625)"/>
       </defs>
       <use xlink:href="#DejaVuSans-Bold-45"/>
      </g>
     </g>
    </g>
    <g id="xtick_4">
     <g id="line2d_4">
      <path d="M 125.254844 124.579062 
L 203.658844 202.983062 
" clip-path="url(#pfac31ca494)" style="fill: none; stroke: #b0b0b0; stroke-width: 0.8; stroke-linecap: square"/>
     </g>
    </g>
    <g id="xtick_5">
     <g id="line2d_5">
      <path d="M 125.254844 124.579062 
L 125.254844 235.459063 
" clip-path="url(#pfac31ca494)" style="fill: none; stroke: #b0b0b0; stroke-width: 0.8; stroke-linecap: square"/>
     </g>
     <g id="text_3">
      <!-- S -->
      <g transform="translate(121.654063 246.718438) scale(0.1 -0.1)">
       <defs>
        <path id="DejaVuSans-Bold-53" d="M 3834 4519 
L 3834 3531 
Q 3450 3703 3084 3790 
Q 2719 3878 2394 3878 
Q 1963 3878 1756 3759 
Q 1550 3641 1550 3391 
Q 1550 3203 1689 3098 
Q 1828 2994 2194 2919 
L 2706 2816 
Q 3484 2659 3812 2340 
Q 4141 2022 4141 1434 
Q 4141 663 3683 286 
Q 3225 -91 2284 -91 
Q 1841 -91 1394 -6 
Q 947 78 500 244 
L 500 1259 
Q 947 1022 1364 901 
Q 1781 781 2169 781 
Q 2563 781 2772 912 
Q 2981 1044 2981 1288 
Q 2981 1506 2839 1625 
Q 2697 1744 2272 1838 
L 1806 1941 
Q 1106 2091 782 2419 
Q 459 2747 459 3303 
Q 459 4000 909 4375 
Q 1359 4750 2203 4750 
Q 2588 4750 2994 4692 
Q 3400 4634 3834 4519 
z
" transform="scale(0.015625)"/>
       </defs>
       <use xlink:href="#DejaVuSans-Bold-53"/>
      </g>
     </g>
    </g>
    <g id="xtick_6">
     <g id="line2d_6">
      <path d="M 125.254844 124.579062 
L 46.850844 202.983062 
" clip-path="url(#pfac31ca494)" style="fill: none; stroke: #b0b0b0; stroke-width: 0.8; stroke-linecap: square"/>
     </g>
    </g>
    <g id="xtick_7">
     <g id="line2d_7">
      <path d="M 125.254844 124.579062 
L 14.374844 124.579063 
" clip-path="url(#pfac31ca494)" style="fill: none; stroke: #b0b0b0; stroke-width: 0.8; stroke-linecap: square"/>
     </g>
     <g id="text_4">
      <!-- W -->
      <g transform="translate(0.36 127.338438) scale(0.1 -0.1)">
       <defs>
        <path id="DejaVuSans-Bold-57" d="M 191 4666 
L 1344 4666 
L 2150 1275 
L 2950 4666 
L 4109 4666 
L 4909 1275 
L 5716 4666 
L 6859 4666 
L 5759 0 
L 4372 0 
L 3525 3547 
L 2688 0 
L 1300 0 
L 191 4666 
z
" transform="scale(0.015625)"/>
       </defs>
       <use xlink:href="#DejaVuSans-Bold-57"/>
      </g>
     </g>
    </g>
    <g id="xtick_8">
     <g id="line2d_8">
      <path d="M 125.254844 124.579062 
L 46.850844 46.175063 
" clip-path="url(#pfac31ca494)" style="fill: none; stroke: #b0b0b0; stroke-width: 0.8; stroke-linecap: square"/>
     </g>
    </g>
   </g>
   <g id="matplotlib.axis_2"/>
   <g id="patch_3">
    <path d="M 125.254844 124.579062 
C 125.254844 124.579062 125.254844 124.579062 125.254844 124.579062 
C 125.254844 124.579062 125.254844 124.579062 125.254844 124.579062 
L 125.783462 119.211913 
C 125.607787 119.194611 125.431369 119.185944 125.254844 119.185944 
C 125.078319 119.185944 124.9019 119.194611 124.726226 119.211913 
z
" clip-path="url(#pfac31ca494)" style="fill: #d9d9d9"/>
   </g>
   <g id="patch_4">
    <path d="M 125.254844 124.579062 
C 125.254844 124.579062 125.254844 124.579062 125.254844 124.579062 
C 125.254844 124.579062 125.254844 124.579062 125.254844 124.579062 
L 125.254844 124.579062 
C 125.254844 124.579062 125.254844 124.579062 125.254844 124.579062 
C 125.254844 124.579062 125.254844 124.579062 125.254844 124.579062 
z
" clip-path="url(#pfac31ca494)" style="fill: #d9d9d9"/>
   </g>
   <g id="patch_5">
    <path d="M 125.254844 124.579062 
C 125.254844 124.579062 125.254844 124.579062 125.254844 124.579062 
C 125.254844 124.579062 125.254844 124.579062 125.254844 124.579062 
L 131.247099 113.368342 
C 130.880155 113.172207 130.503803 112.994205 130.119402 112.834981 
C 129.735 112.675757 129.343013 112.535502 128.944856 112.414722 
z
" clip-path="url(#pfac31ca494)" style="fill: #d9d9d9"/>
   </g>
   <g id="patch_6">
    <path d="M 125.254844 124.579062 
C 125.254844 124.579062 125.254844 124.579062 125.254844 124.579062 
C 125.254844 124.579062 125.254844 124.579062 125.254844 124.579062 
L 133.319062 114.752784 
C 132.997433 114.48883 132.663039 114.240826 132.317087 114.009668 
C 131.971135 113.778511 131.614042 113.564478 131.247099 113.368342 
z
" clip-path="url(#pfac31ca494)" style="fill: #d9d9d9"/>
   </g>
   <g id="patch_7">
    <path d="M 125.254844 124.579062 
C 125.254844 124.579062 125.254844 124.579062 125.254844 124.579062 
C 125.254844 124.579062 125.254844 124.579062 125.254844 124.579062 
L 134.832315 116.719035 
C 134.575045 116.40555 134.302538 116.104885 134.01578 115.818126 
C 133.729021 115.531368 133.428357 115.258861 133.114872 115.001591 
z
" clip-path="url(#pfac31ca494)" style="fill: #d9d9d9"/>
   </g>
   <g id="patch_8">
    <path d="M 125.254844 124.579062 
C 125.254844 124.579062 125.254844 124.579062 125.254844 124.579062 
C 125.254844 124.579062 125.254844 124.579062 125.254844 124.579062 
L 138.985116 117.240079 
C 138.7449 116.790667 138.482764 116.353319 138.199655 115.929616 
C 137.916546 115.505913 137.612804 115.096366 137.289528 114.702452 
z
" clip-path="url(#pfac31ca494)" style="fill: #d9d9d9"/>
   </g>
   <g id="patch_9">
    <path d="M 125.254844 124.579062 
C 125.254844 124.579062 125.254844 124.579062 125.254844 124.579062 
C 125.254844 124.579062 125.254844 124.579062 125.254844 124.579062 
L 125.254844 124.579062 
C 125.254844 124.579062 125.254844 124.579062 125.254844 124.579062 
C 125.254844 124.579062 125.254844 124.579062 125.254844 124.579062 
z
" clip-path="url(#pfac31ca494)" style="fill: #d9d9d9"/>
   </g>
   <g id="patch_10">
    <path d="M 125.254844 124.579062 
C 125.254844 124.579062 125.254844 124.579062 125.254844 124.579062 
C 125.254844 124.579062 125.254844 124.579062 125.254844 124.579062 
L 125.254844 124.579062 
C 125.254844 124.579062 125.254844 124.579062 125.254844 124.579062 
C 125.254844 124.579062 125.254844 124.579062 125.254844 124.579062 
z
" clip-path="url(#pfac31ca494)" style="fill: #d9d9d9"/>
   </g>
   <g id="patch_11">
    <path d="M 125.254844 124.579062 
C 125.254844 124.579062 125.254844 124.579062 125.254844 124.579062 
C 125.254844 124.579062 125.254844 124.579062 125.254844 124.579062 
L 125.254844 124.579062 
C 125.254844 124.579062 125.254844 124.579062 125.254844 124.579062 
C 125.254844 124.579062 125.254844 124.579062 125.254844 124.579062 
z
" clip-path="url(#pfac31ca494)" style="fill: #d9d9d9"/>
   </g>
   <g id="patch_12">
    <path d="M 125.254844 124.579062 
C 125.254844 124.579062 125.254844 124.579062 125.254844 124.579062 
C 125.254844 124.579062 125.254844 124.579062 125.254844 124.579062 
L 125.254844 124.579062 
C 125.254844 124.579062 125.254844 124.579062 125.254844 124.579062 
C 125.254844 124.579062 125.254844 124.579062 125.254844 124.579062 
z
" clip-path="url(#pfac31ca494)" style="fill: #d9d9d9"/>
   </g>
   <g id="patch_13">
    <path d="M 125.254844 124.579062 
C 125.254844 124.579062 125.254844 124.579062 125.254844 124.579062 
C 125.254844 124.579062 125.254844 124.579062 125.254844 124.579062 
L 125.254844 124.579062 
C 125.254844 124.579062 125.254844 124.579062 125.254844 124.579062 
C 125.254844 124.579062 125.254844 124.579062 125.254844 124.579062 
z
" clip-path="url(#pfac31ca494)" style="fill: #d9d9d9"/>
   </g>
   <g id="patch_14">
    <path d="M 125.254844 124.579062 
C 125.254844 124.579062 125.254844 124.579062 125.254844 124.579062 
C 125.254844 124.579062 125.254844 124.579062 125.254844 124.579062 
L 125.254844 124.579062 
C 125.254844 124.579062 125.254844 124.579062 125.254844 124.579062 
C 125.254844 124.579062 125.254844 124.579062 125.254844 124.579062 
z
" clip-path="url(#pfac31ca494)" style="fill: #d9d9d9"/>
   </g>
   <g id="patch_15">
    <path d="M 125.254844 124.579062 
C 125.254844 124.579062 125.254844 124.579062 125.254844 124.579062 
C 125.254844 124.579062 125.254844 124.579062 125.254844 124.579062 
L 125.254844 124.579062 
C 125.254844 124.579062 125.254844 124.579062 125.254844 124.579062 
C 125.254844 124.579062 125.254844 124.579062 125.254844 124.579062 
z
" clip-path="url(#pfac31ca494)" style="fill: #d9d9d9"/>
   </g>
   <g id="patch_16">
    <path d="M 125.254844 124.579062 
C 125.254844 124.579062 125.254844 124.579062 125.254844 124.579062 
C 125.254844 124.579062 125.254844 124.579062 125.254844 124.579062 
L 125.254844 124.579062 
C 125.254844 124.579062 125.254844 124.579062 125.254844 124.579062 
C 125.254844 124.579062 125.254844 124.579062 125.254844 124.579062 
z
" clip-path="url(#pfac31ca494)" style="fill: #d9d9d9"/>
   </g>
   <g id="patch_17">
    <path d="M 125.254844 124.579062 
C 125.254844 124.579062 125.254844 124.579062 125.254844 124.579062 
C 125.254844 124.579062 125.254844 124.579062 125.254844 124.579062 
L 125.254844 124.579062 
C 125.254844 124.579062 125.254844 124.579062 125.254844 124.579062 
C 125.254844 124.579062 125.254844 124.579062 125.254844 124.579062 
z
" clip-path="url(#pfac31ca494)" style="fill: #d9d9d9"/>
   </g>
   <g id="patch_18">
    <path d="M 125.254844 124.579062 
C 125.254844 124.579062 125.254844 124.579062 125.254844 124.579062 
C 125.254844 124.579062 125.254844 124.579062 125.254844 124.579062 
L 125.254844 124.579062 
C 125.254844 124.579062 125.254844 124.579062 125.254844 124.579062 
C 125.254844 124.579062 125.254844 124.579062 125.254844 124.579062 
z
" clip-path="url(#pfac31ca494)" style="fill: #d9d9d9"/>
   </g>
   <g id="patch_19">
    <path d="M 125.254844 124.579062 
C 125.254844 124.579062 125.254844 124.579062 125.254844 124.579062 
C 125.254844 124.579062 125.254844 124.579062 125.254844 124.579062 
L 125.254844 124.579062 
C 125.254844 124.579062 125.254844 124.579062 125.254844 124.579062 
C 125.254844 124.579062 125.254844 124.579062 125.254844 124.579062 
z
" clip-path="url(#pfac31ca494)" style="fill: #d9d9d9"/>
   </g>
   <g id="patch_20">
    <path d="M 125.254844 124.579062 
C 125.254844 124.579062 125.254844 124.579062 125.254844 124.579062 
C 125.254844 124.579062 125.254844 124.579062 125.254844 124.579062 
L 125.254844 124.579062 
C 125.254844 124.579062 125.254844 124.579062 125.254844 124.579062 
C 125.254844 124.579062 125.254844 124.579062 125.254844 124.579062 
z
" clip-path="url(#pfac31ca494)" style="fill: #d9d9d9"/>
   </g>
   <g id="patch_21">
    <path d="M 125.254844 124.579062 
C 125.254844 124.579062 125.254844 124.579062 125.254844 124.579062 
C 125.254844 124.579062 125.254844 124.579062 125.254844 124.579062 
L 125.254844 124.579062 
C 125.254844 124.579062 125.254844 124.579062 125.254844 124.579062 
C 125.254844 124.579062 125.254844 124.579062 125.254844 124.579062 
z
" clip-path="url(#pfac31ca494)" style="fill: #d9d9d9"/>
   </g>
   <g id="patch_22">
    <path d="M 125.254844 124.579062 
C 125.254844 124.579062 125.254844 124.579062 125.254844 124.579062 
C 125.254844 124.579062 125.254844 124.579062 125.254844 124.579062 
L 125.254844 124.579062 
C 125.254844 124.579062 125.254844 124.579062 125.254844 124.579062 
C 125.254844 124.579062 125.254844 124.579062 125.254844 124.579062 
z
" clip-path="url(#pfac31ca494)" style="fill: #d9d9d9"/>
   </g>
   <g id="patch_23">
    <path d="M 125.254844 124.579062 
C 125.254844 124.579062 125.254844 124.579062 125.254844 124.579062 
C 125.254844 124.579062 125.254844 124.579062 125.254844 124.579062 
L 125.254844 124.579062 
C 125.254844 124.579062 125.254844 124.579062 125.254844 124.579062 
C 125.254844 124.579062 125.254844 124.579062 125.254844 124.579062 
z
" clip-path="url(#pfac31ca494)" style="fill: #d9d9d9"/>
   </g>
   <g id="patch_24">
    <path d="M 125.254844 124.579062 
C 125.254844 124.579062 125.254844 124.579062 125.254844 124.579062 
C 125.254844 124.579062 125.254844 124.579062 125.254844 124.579062 
L 125.254844 124.579062 
C 125.254844 124.579062 125.254844 124.579062 125.254844 124.579062 
C 125.254844 124.579062 125.254844 124.579062 125.254844 124.579062 
z
" clip-path="url(#pfac31ca494)" style="fill: #d9d9d9"/>
   </g>
   <g id="patch_25">
    <path d="M 125.254844 124.579062 
C 125.254844 124.579062 125.254844 124.579062 125.254844 124.579062 
C 125.254844 124.579062 125.254844 124.579062 125.254844 124.579062 
L 125.254844 124.579062 
C 125.254844 124.579062 125.254844 124.579062 125.254844 124.579062 
C 125.254844 124.579062 125.254844 124.579062 125.254844 124.579062 
z
" clip-path="url(#pfac31ca494)" style="fill: #d9d9d9"/>
   </g>
   <g id="patch_26">
    <path d="M 125.254844 124.579062 
C 125.254844 124.579062 125.254844 124.579062 125.254844 124.579062 
C 125.254844 124.579062 125.254844 124.579062 125.254844 124.579062 
L 125.254844 124.579062 
C 125.254844 124.579062 125.254844 124.579062 125.254844 124.579062 
C 125.254844 124.579062 125.254844 124.579062 125.254844 124.579062 
z
" clip-path="url(#pfac31ca494)" style="fill: #d9d9d9"/>
   </g>
   <g id="patch_27">
    <path d="M 125.254844 124.579062 
C 125.254844 124.579062 125.254844 124.579062 125.254844 124.579062 
C 125.254844 124.579062 125.254844 124.579062 125.254844 124.579062 
L 125.254844 124.579062 
C 125.254844 124.579062 125.254844 124.579062 125.254844 124.579062 
C 125.254844 124.579062 125.254844 124.579062 125.254844 124.579062 
z
" clip-path="url(#pfac31ca494)" style="fill: #d9d9d9"/>
   </g>
   <g id="patch_28">
    <path d="M 125.254844 124.579062 
C 125.254844 124.579062 125.254844 124.579062 125.254844 124.579062 
C 125.254844 124.579062 125.254844 124.579062 125.254844 124.579062 
L 125.254844 124.579062 
C 125.254844 124.579062 125.254844 124.579062 125.254844 124.579062 
C 125.254844 124.579062 125.254844 124.579062 125.254844 124.579062 
z
" clip-path="url(#pfac31ca494)" style="fill: #d9d9d9"/>
   </g>
   <g id="patch_29">
    <path d="M 125.254844 124.579062 
C 125.254844 124.579062 125.254844 124.579062 125.254844 124.579062 
C 125.254844 124.579062 125.254844 124.579062 125.254844 124.579062 
L 125.254844 124.579062 
C 125.254844 124.579062 125.254844 124.579062 125.254844 124.579062 
C 125.254844 124.579062 125.254844 124.579062 125.254844 124.579062 
z
" clip-path="url(#pfac31ca494)" style="fill: #d9d9d9"/>
   </g>
   <g id="patch_30">
    <path d="M 125.254844 124.579062 
C 125.254844 124.579062 125.254844 124.579062 125.254844 124.579062 
C 125.254844 124.579062 125.254844 124.579062 125.254844 124.579062 
L 125.254844 124.579062 
C 125.254844 124.579062 125.254844 124.579062 125.254844 124.579062 
C 125.254844 124.579062 125.254844 124.579062 125.254844 124.579062 
z
" clip-path="url(#pfac31ca494)" style="fill: #d9d9d9"/>
   </g>
   <g id="patch_31">
    <path d="M 125.254844 124.579062 
C 125.254844 124.579062 125.254844 124.579062 125.254844 124.579062 
C 125.254844 124.579062 125.254844 124.579062 125.254844 124.579062 
L 125.254844 124.579062 
C 125.254844 124.579062 125.254844 124.579062 125.254844 124.579062 
C 125.254844 124.579062 125.254844 124.579062 125.254844 124.579062 
z
" clip-path="url(#pfac31ca494)" style="fill: #d9d9d9"/>
   </g>
   <g id="patch_32">
    <path d="M 125.254844 124.579062 
C 125.254844 124.579062 125.254844 124.579062 125.254844 124.579062 
C 125.254844 124.579062 125.254844 124.579062 125.254844 124.579062 
L 125.254844 124.579062 
C 125.254844 124.579062 125.254844 124.579062 125.254844 124.579062 
C 125.254844 124.579062 125.254844 124.579062 125.254844 124.579062 
z
" clip-path="url(#pfac31ca494)" style="fill: #d9d9d9"/>
   </g>
   <g id="patch_33">
    <path d="M 125.254844 124.579062 
C 125.254844 124.579062 125.254844 124.579062 125.254844 124.579062 
C 125.254844 124.579062 125.254844 124.579062 125.254844 124.579062 
L 125.254844 124.579062 
C 125.254844 124.579062 125.254844 124.579062 125.254844 124.579062 
C 125.254844 124.579062 125.254844 124.579062 125.254844 124.579062 
z
" clip-path="url(#pfac31ca494)" style="fill: #d9d9d9"/>
   </g>
   <g id="patch_34">
    <path d="M 125.254844 124.579062 
C 125.254844 124.579062 125.254844 124.579062 125.254844 124.579062 
C 125.254844 124.579062 125.254844 124.579062 125.254844 124.579062 
L 125.254844 124.579062 
C 125.254844 124.579062 125.254844 124.579062 125.254844 124.579062 
C 125.254844 124.579062 125.254844 124.579062 125.254844 124.579062 
z
" clip-path="url(#pfac31ca494)" style="fill: #d9d9d9"/>
   </g>
   <g id="patch_35">
    <path d="M 124.726226 119.211913 
C 124.9019 119.194611 125.078319 119.185944 125.254844 119.185944 
C 125.431369 119.185944 125.607787 119.194611 125.783462 119.211913 
L 135.129458 24.320426 
C 131.847843 23.997215 128.552337 23.835317 125.254844 23.835317 
C 121.957351 23.835317 118.661845 23.997215 115.38023 24.320426 
z
" clip-path="url(#pfac31ca494)" style="fill: #a1a1d8"/>
   </g>
   <g id="patch_36">
    <path d="M 125.254844 124.579062 
C 125.254844 124.579062 125.254844 124.579062 125.254844 124.579062 
C 125.254844 124.579062 125.254844 124.579062 125.254844 124.579062 
L 149.000295 46.300799 
C 146.438131 45.523575 143.839351 44.872615 141.213343 44.350269 
C 138.587335 43.827924 135.937264 43.434823 133.272702 43.172386 
z
" clip-path="url(#pfac31ca494)" style="fill: #a1a1d8"/>
   </g>
   <g id="patch_37">
    <path d="M 128.944856 112.414722 
C 129.343013 112.535502 129.735 112.675757 130.119402 112.834981 
C 130.503803 112.994205 130.880155 113.172207 131.247099 113.368342 
L 150.393764 77.547451 
C 148.854349 76.724617 147.275463 75.977859 145.662809 75.309876 
C 144.050155 74.641893 142.405677 74.053489 140.735314 73.54679 
z
" clip-path="url(#pfac31ca494)" style="fill: #a1a1d8"/>
   </g>
   <g id="patch_38">
    <path d="M 131.247099 113.368342 
C 131.614042 113.564478 131.971135 113.778511 132.317087 114.009668 
C 132.663039 114.240826 132.997433 114.48883 133.319062 114.752784 
L 144.826156 100.73135 
C 144.045585 100.090751 143.234032 99.488863 142.39443 98.927859 
C 141.554828 98.366855 140.688188 97.847411 139.797641 97.371403 
z
" clip-path="url(#pfac31ca494)" style="fill: #a1a1d8"/>
   </g>
   <g id="patch_39">
    <path d="M 133.114872 115.001591 
C 133.428357 115.258861 133.729021 115.531368 134.01578 115.818126 
C 134.302538 116.104885 134.575045 116.40555 134.832315 116.719035 
L 161.651888 94.70878 
C 160.674189 93.51745 159.638589 92.374841 158.548827 91.285079 
C 157.459065 90.195317 156.316456 89.159717 155.125126 88.182018 
z
" clip-path="url(#pfac31ca494)" style="fill: #a1a1d8"/>
   </g>
   <g id="patch_40">
    <path d="M 137.289528 114.702452 
C 137.612804 115.096366 137.916546 115.505913 138.199655 115.929616 
C 138.482764 116.353319 138.7449 116.790667 138.985116 117.240079 
L 161.521135 105.194326 
C 160.886643 104.007276 160.194253 102.852094 159.446466 101.732951 
C 158.698679 100.613808 157.896395 99.532054 157.042514 98.491596 
z
" clip-path="url(#pfac31ca494)" style="fill: #a1a1d8"/>
   </g>
   <g id="patch_41">
    <path d="M 125.254844 124.579062 
C 125.254844 124.579062 125.254844 124.579062 125.254844 124.579062 
C 125.254844 124.579062 125.254844 124.579062 125.254844 124.579062 
L 155.883871 115.287849 
C 155.579756 114.285315 155.226602 113.298317 154.825685 112.330419 
C 154.424769 111.362521 153.976573 110.41489 153.482717 109.49095 
z
" clip-path="url(#pfac31ca494)" style="fill: #a1a1d8"/>
   </g>
   <g id="patch_42">
    <path d="M 125.254844 124.579062 
C 125.254844 124.579062 125.254844 124.579062 125.254844 124.579062 
C 125.254844 124.579062 125.254844 124.579062 125.254844 124.579062 
L 147.760634 122.362436 
C 147.68808 121.625788 147.579403 120.893146 147.434995 120.167156 
C 147.290587 119.441167 147.110621 118.722705 146.895749 118.014366 
z
" clip-path="url(#pfac31ca494)" style="fill: #a1a1d8"/>
   </g>
   <g id="patch_43">
    <path d="M 125.254844 124.579062 
C 125.254844 124.579062 125.254844 124.579062 125.254844 124.579062 
C 125.254844 124.579062 125.254844 124.579062 125.254844 124.579062 
L 125.254844 124.579062 
C 125.254844 124.579062 125.254844 124.579062 125.254844 124.579062 
C 125.254844 124.579062 125.254844 124.579062 125.254844 124.579062 
z
" clip-path="url(#pfac31ca494)" style="fill: #a1a1d8"/>
   </g>
   <g id="patch_44">
    <path d="M 125.254844 124.579062 
C 125.254844 124.579062 125.254844 124.579062 125.254844 124.579062 
C 125.254844 124.579062 125.254844 124.579062 125.254844 124.579062 
L 125.254844 124.579062 
C 125.254844 124.579062 125.254844 124.579062 125.254844 124.579062 
C 125.254844 124.579062 125.254844 124.579062 125.254844 124.579062 
z
" clip-path="url(#pfac31ca494)" style="fill: #a1a1d8"/>
   </g>
   <g id="patch_45">
    <path d="M 125.254844 124.579062 
C 125.254844 124.579062 125.254844 124.579062 125.254844 124.579062 
C 125.254844 124.579062 125.254844 124.579062 125.254844 124.579062 
L 125.254844 124.579062 
C 125.254844 124.579062 125.254844 124.579062 125.254844 124.579062 
C 125.254844 124.579062 125.254844 124.579062 125.254844 124.579062 
z
" clip-path="url(#pfac31ca494)" style="fill: #a1a1d8"/>
   </g>
   <g id="patch_46">
    <path d="M 125.254844 124.579062 
C 125.254844 124.579062 125.254844 124.579062 125.254844 124.579062 
C 125.254844 124.579062 125.254844 124.579062 125.254844 124.579062 
L 125.254844 124.579062 
C 125.254844 124.579062 125.254844 124.579062 125.254844 124.579062 
C 125.254844 124.579062 125.254844 124.579062 125.254844 124.579062 
z
" clip-path="url(#pfac31ca494)" style="fill: #a1a1d8"/>
   </g>
   <g id="patch_47">
    <path d="M 125.254844 124.579062 
C 125.254844 124.579062 125.254844 124.579062 125.254844 124.579062 
C 125.254844 124.579062 125.254844 124.579062 125.254844 124.579062 
L 125.254844 124.579062 
C 125.254844 124.579062 125.254844 124.579062 125.254844 124.579062 
C 125.254844 124.579062 125.254844 124.579062 125.254844 124.579062 
z
" clip-path="url(#pfac31ca494)" style="fill: #a1a1d8"/>
   </g>
   <g id="patch_48">
    <path d="M 125.254844 124.579062 
C 125.254844 124.579062 125.254844 124.579062 125.254844 124.579062 
C 125.254844 124.579062 125.254844 124.579062 125.254844 124.579062 
L 125.254844 124.579062 
C 125.254844 124.579062 125.254844 124.579062 125.254844 124.579062 
C 125.254844 124.579062 125.254844 124.579062 125.254844 124.579062 
z
" clip-path="url(#pfac31ca494)" style="fill: #a1a1d8"/>
   </g>
   <g id="patch_49">
    <path d="M 125.254844 124.579062 
C 125.254844 124.579062 125.254844 124.579062 125.254844 124.579062 
C 125.254844 124.579062 125.254844 124.579062 125.254844 124.579062 
L 125.254844 124.579062 
C 125.254844 124.579062 125.254844 124.579062 125.254844 124.579062 
C 125.254844 124.579062 125.254844 124.579062 125.254844 124.579062 
z
" clip-path="url(#pfac31ca494)" style="fill: #a1a1d8"/>
   </g>
   <g id="patch_50">
    <path d="M 125.254844 124.579062 
C 125.254844 124.579062 125.254844 124.579062 125.254844 124.579062 
C 125.254844 124.579062 125.254844 124.579062 125.254844 124.579062 
L 125.254844 124.579062 
C 125.254844 124.579062 125.254844 124.579062 125.254844 124.579062 
C 125.254844 124.579062 125.254844 124.579062 125.254844 124.579062 
z
" clip-path="url(#pfac31ca494)" style="fill: #a1a1d8"/>
   </g>
   <g id="patch_51">
    <path d="M 125.254844 124.579062 
C 125.254844 124.579062 125.254844 124.579062 125.254844 124.579062 
C 125.254844 124.579062 125.254844 124.579062 125.254844 124.579062 
L 125.254844 124.579062 
C 125.254844 124.579062 125.254844 124.579062 125.254844 124.579062 
C 125.254844 124.579062 125.254844 124.579062 125.254844 124.579062 
z
" clip-path="url(#pfac31ca494)" style="fill: #a1a1d8"/>
   </g>
   <g id="patch_52">
    <path d="M 125.254844 124.579062 
C 125.254844 124.579062 125.254844 124.579062 125.254844 124.579062 
C 125.254844 124.579062 125.254844 124.579062 125.254844 124.579062 
L 125.254844 124.579062 
C 125.254844 124.579062 125.254844 124.579062 125.254844 124.579062 
C 125.254844 124.579062 125.254844 124.579062 125.254844 124.579062 
z
" clip-path="url(#pfac31ca494)" style="fill: #a1a1d8"/>
   </g>
   <g id="patch_53">
    <path d="M 125.254844 124.579062 
C 125.254844 124.579062 125.254844 124.579062 125.254844 124.579062 
C 125.254844 124.579062 125.254844 124.579062 125.254844 124.579062 
L 125.254844 124.579062 
C 125.254844 124.579062 125.254844 124.579062 125.254844 124.579062 
C 125.254844 124.579062 125.254844 124.579062 125.254844 124.579062 
z
" clip-path="url(#pfac31ca494)" style="fill: #a1a1d8"/>
   </g>
   <g id="patch_54">
    <path d="M 125.254844 124.579062 
C 125.254844 124.579062 125.254844 124.579062 125.254844 124.579062 
C 125.254844 124.579062 125.254844 124.579062 125.254844 124.579062 
L 125.254844 124.579062 
C 125.254844 124.579062 125.254844 124.579062 125.254844 124.579062 
C 125.254844 124.579062 125.254844 124.579062 125.254844 124.579062 
z
" clip-path="url(#pfac31ca494)" style="fill: #a1a1d8"/>
   </g>
   <g id="patch_55">
    <path d="M 125.254844 124.579062 
C 125.254844 124.579062 125.254844 124.579062 125.254844 124.579062 
C 125.254844 124.579062 125.254844 124.579062 125.254844 124.579062 
L 125.254844 124.579062 
C 125.254844 124.579062 125.254844 124.579062 125.254844 124.579062 
C 125.254844 124.579062 125.254844 124.579062 125.254844 124.579062 
z
" clip-path="url(#pfac31ca494)" style="fill: #a1a1d8"/>
   </g>
   <g id="patch_56">
    <path d="M 125.254844 124.579062 
C 125.254844 124.579062 125.254844 124.579062 125.254844 124.579062 
C 125.254844 124.579062 125.254844 124.579062 125.254844 124.579062 
L 125.254844 124.579062 
C 125.254844 124.579062 125.254844 124.579062 125.254844 124.579062 
C 125.254844 124.579062 125.254844 124.579062 125.254844 124.579062 
z
" clip-path="url(#pfac31ca494)" style="fill: #a1a1d8"/>
   </g>
   <g id="patch_57">
    <path d="M 125.254844 124.579062 
C 125.254844 124.579062 125.254844 124.579062 125.254844 124.579062 
C 125.254844 124.579062 125.254844 124.579062 125.254844 124.579062 
L 125.254844 124.579062 
C 125.254844 124.579062 125.254844 124.579062 125.254844 124.579062 
C 125.254844 124.579062 125.254844 124.579062 125.254844 124.579062 
z
" clip-path="url(#pfac31ca494)" style="fill: #a1a1d8"/>
   </g>
   <g id="patch_58">
    <path d="M 125.254844 124.579062 
C 125.254844 124.579062 125.254844 124.579062 125.254844 124.579062 
C 125.254844 124.579062 125.254844 124.579062 125.254844 124.579062 
L 125.254844 124.579062 
C 125.254844 124.579062 125.254844 124.579062 125.254844 124.579062 
C 125.254844 124.579062 125.254844 124.579062 125.254844 124.579062 
z
" clip-path="url(#pfac31ca494)" style="fill: #a1a1d8"/>
   </g>
   <g id="patch_59">
    <path d="M 125.254844 124.579062 
C 125.254844 124.579062 125.254844 124.579062 125.254844 124.579062 
C 125.254844 124.579062 125.254844 124.579062 125.254844 124.579062 
L 125.254844 124.579062 
C 125.254844 124.579062 125.254844 124.579062 125.254844 124.579062 
C 125.254844 124.579062 125.254844 124.579062 125.254844 124.579062 
z
" clip-path="url(#pfac31ca494)" style="fill: #a1a1d8"/>
   </g>
   <g id="patch_60">
    <path d="M 125.254844 124.579062 
C 125.254844 124.579062 125.254844 124.579062 125.254844 124.579062 
C 125.254844 124.579062 125.254844 124.579062 125.254844 124.579062 
L 116.653356 121.96983 
C 116.567952 122.251369 116.496422 122.536932 116.439025 122.825487 
C 116.381628 123.114042 116.338433 123.405241 116.309595 123.698032 
z
" clip-path="url(#pfac31ca494)" style="fill: #a1a1d8"/>
   </g>
   <g id="patch_61">
    <path d="M 125.254844 124.579062 
C 125.254844 124.579062 125.254844 124.579062 125.254844 124.579062 
C 125.254844 124.579062 125.254844 124.579062 125.254844 124.579062 
L 105.028889 113.768065 
C 104.675029 114.43009 104.353886 115.109091 104.06662 115.802613 
C 103.779353 116.496135 103.52631 117.203343 103.308404 117.921683 
z
" clip-path="url(#pfac31ca494)" style="fill: #a1a1d8"/>
   </g>
   <g id="patch_62">
    <path d="M 125.254844 124.579062 
C 125.254844 124.579062 125.254844 124.579062 125.254844 124.579062 
C 125.254844 124.579062 125.254844 124.579062 125.254844 124.579062 
L 108.915423 111.169647 
C 108.476513 111.70446 108.064125 112.260501 107.679749 112.83576 
C 107.295374 113.411019 106.939473 114.004803 106.613333 114.614968 
z
" clip-path="url(#pfac31ca494)" style="fill: #a1a1d8"/>
   </g>
   <g id="patch_63">
    <path d="M 125.254844 124.579062 
C 125.254844 124.579062 125.254844 124.579062 125.254844 124.579062 
C 125.254844 124.579062 125.254844 124.579062 125.254844 124.579062 
L 104.74254 99.584748 
C 103.924439 100.256147 103.139795 100.967307 102.391441 101.71566 
C 101.643088 102.464014 100.931928 103.248658 100.26053 104.066759 
z
" clip-path="url(#pfac31ca494)" style="fill: #a1a1d8"/>
   </g>
   <g id="patch_64">
    <path d="M 125.254844 124.579062 
C 125.254844 124.579062 125.254844 124.579062 125.254844 124.579062 
C 125.254844 124.579062 125.254844 124.579062 125.254844 124.579062 
L 100.588143 78.430912 
C 99.077645 79.23829 97.607698 80.119342 96.18361 81.070887 
C 94.759523 82.022432 93.383012 83.043322 92.059049 84.12987 
z
" clip-path="url(#pfac31ca494)" style="fill: #a1a1d8"/>
   </g>
   <g id="patch_65">
    <path d="M 125.254844 124.579062 
C 125.254844 124.579062 125.254844 124.579062 125.254844 124.579062 
C 125.254844 124.579062 125.254844 124.579062 125.254844 124.579062 
L 115.64663 92.905025 
C 114.609891 93.219517 113.589218 93.584719 112.588297 93.999314 
C 111.587376 94.413909 110.607414 94.877397 109.651951 95.388103 
z
" clip-path="url(#pfac31ca494)" style="fill: #a1a1d8"/>
   </g>
   <g id="patch_66">
    <path d="M 125.254844 124.579062 
C 125.254844 124.579062 125.254844 124.579062 125.254844 124.579062 
C 125.254844 124.579062 125.254844 124.579062 125.254844 124.579062 
L 122.701376 98.65327 
C 121.852786 98.736849 121.008811 98.86204 120.1725 99.028393 
C 119.336188 99.194746 118.508548 99.402059 117.692569 99.649583 
z
" clip-path="url(#pfac31ca494)" style="fill: #a1a1d8"/>
   </g>
   <g id="patch_67">
    <path d="M 115.38023 24.320426 
C 118.661845 23.997215 121.957351 23.835317 125.254844 23.835317 
C 128.552337 23.835317 131.847843 23.997215 135.129458 24.320426 
L 136.122984 14.232979 
C 132.511192 13.877248 128.884112 13.699061 125.254844 13.699061 
C 121.625576 13.699061 117.998495 13.877248 114.386703 14.232979 
z
" clip-path="url(#pfac31ca494)" style="fill: #ff8c8e"/>
   </g>
   <g id="patch_68">
    <path d="M 133.272702 43.172386 
C 135.937264 43.434823 138.587335 43.827924 141.213343 44.350269 
C 143.839351 44.872615 146.438131 45.523575 149.000295 46.300799 
L 151.099422 39.380905 
C 148.310759 38.534973 145.482244 37.826467 142.624094 37.257945 
C 139.765943 36.689424 136.881603 36.261572 133.98149 35.975936 
z
" clip-path="url(#pfac31ca494)" style="fill: #ff8c8e"/>
   </g>
   <g id="patch_69">
    <path d="M 140.735314 73.54679 
C 142.405677 74.053489 144.050155 74.641893 145.662809 75.309876 
C 147.275463 75.977859 148.854349 76.724617 150.393764 77.547451 
L 150.74835 76.884067 
C 149.187222 76.049626 147.586065 75.292336 145.950665 74.614931 
C 144.315264 73.937526 142.64759 73.340822 140.953667 72.826977 
z
" clip-path="url(#pfac31ca494)" style="fill: #ff8c8e"/>
   </g>
   <g id="patch_70">
    <path d="M 139.797641 97.371403 
C 140.688188 97.847411 141.554828 98.366855 142.39443 98.927859 
C 143.234032 99.488863 144.045585 100.090751 144.826156 100.73135 
L 155.065196 88.255043 
C 153.876257 87.279306 152.640128 86.36253 151.361275 85.508028 
C 150.082421 84.653525 148.762385 83.862326 147.405934 83.137288 
z
" clip-path="url(#pfac31ca494)" style="fill: #ff8c8e"/>
   </g>
   <g id="patch_71">
    <path d="M 155.125126 88.182018 
C 156.316456 89.159717 157.459065 90.195317 158.548827 91.285079 
C 159.638589 92.374841 160.674189 93.51745 161.651888 94.70878 
L 164.829258 92.10118 
C 163.766208 90.805851 162.640202 89.563495 161.455307 88.378599 
C 160.270412 87.193704 159.028056 86.067698 157.732726 85.004649 
z
" clip-path="url(#pfac31ca494)" style="fill: #ff8c8e"/>
   </g>
   <g id="patch_72">
    <path d="M 157.042514 98.491596 
C 157.896395 99.532054 158.698679 100.613808 159.446466 101.732951 
C 160.194253 102.852094 160.886643 104.007276 161.521135 105.194326 
L 169.943312 100.692579 
C 169.161472 99.229858 168.308287 97.806406 167.38684 96.427363 
C 166.465393 95.04832 165.476794 93.715348 164.424614 92.433263 
z
" clip-path="url(#pfac31ca494)" style="fill: #ff8c8e"/>
   </g>
   <g id="patch_73">
    <path d="M 153.482717 109.49095 
C 153.976573 110.41489 154.424769 111.362521 154.825685 112.330419 
C 155.226602 113.298317 155.579756 114.285315 155.883871 115.287849 
L 155.883871 115.287849 
C 155.579756 114.285315 155.226602 113.298317 154.825685 112.330419 
C 154.424769 111.362521 153.976573 110.41489 153.482717 109.49095 
z
" clip-path="url(#pfac31ca494)" style="fill: #ff8c8e"/>
   </g>
   <g id="patch_74">
    <path d="M 146.895749 118.014366 
C 147.110621 118.722705 147.290587 119.441167 147.434995 120.167156 
C 147.579403 120.893146 147.68808 121.625788 147.760634 122.362436 
L 155.151251 121.634523 
C 155.054872 120.655969 154.910506 119.682737 154.718676 118.718342 
C 154.526846 117.753947 154.287782 116.799551 154.002349 115.858602 
z
" clip-path="url(#pfac31ca494)" style="fill: #ff8c8e"/>
   </g>
   <g id="patch_75">
    <path d="M 125.254844 124.579062 
C 125.254844 124.579062 125.254844 124.579062 125.254844 124.579062 
C 125.254844 124.579062 125.254844 124.579062 125.254844 124.579062 
L 125.254844 124.579062 
C 125.254844 124.579062 125.254844 124.579062 125.254844 124.579062 
C 125.254844 124.579062 125.254844 124.579062 125.254844 124.579062 
z
" clip-path="url(#pfac31ca494)" style="fill: #ff8c8e"/>
   </g>
   <g id="patch_76">
    <path d="M 125.254844 124.579062 
C 125.254844 124.579062 125.254844 124.579062 125.254844 124.579062 
C 125.254844 124.579062 125.254844 124.579062 125.254844 124.579062 
L 125.254844 124.579062 
C 125.254844 124.579062 125.254844 124.579062 125.254844 124.579062 
C 125.254844 124.579062 125.254844 124.579062 125.254844 124.579062 
z
" clip-path="url(#pfac31ca494)" style="fill: #ff8c8e"/>
   </g>
   <g id="patch_77">
    <path d="M 125.254844 124.579062 
C 125.254844 124.579062 125.254844 124.579062 125.254844 124.579062 
C 125.254844 124.579062 125.254844 124.579062 125.254844 124.579062 
L 125.254844 124.579062 
C 125.254844 124.579062 125.254844 124.579062 125.254844 124.579062 
C 125.254844 124.579062 125.254844 124.579062 125.254844 124.579062 
z
" clip-path="url(#pfac31ca494)" style="fill: #ff8c8e"/>
   </g>
   <g id="patch_78">
    <path d="M 125.254844 124.579062 
C 125.254844 124.579062 125.254844 124.579062 125.254844 124.579062 
C 125.254844 124.579062 125.254844 124.579062 125.254844 124.579062 
L 125.254844 124.579062 
C 125.254844 124.579062 125.254844 124.579062 125.254844 124.579062 
C 125.254844 124.579062 125.254844 124.579062 125.254844 124.579062 
z
" clip-path="url(#pfac31ca494)" style="fill: #ff8c8e"/>
   </g>
   <g id="patch_79">
    <path d="M 125.254844 124.579062 
C 125.254844 124.579062 125.254844 124.579062 125.254844 124.579062 
C 125.254844 124.579062 125.254844 124.579062 125.254844 124.579062 
L 125.254844 124.579062 
C 125.254844 124.579062 125.254844 124.579062 125.254844 124.579062 
C 125.254844 124.579062 125.254844 124.579062 125.254844 124.579062 
z
" clip-path="url(#pfac31ca494)" style="fill: #ff8c8e"/>
   </g>
   <g id="patch_80">
    <path d="M 125.254844 124.579062 
C 125.254844 124.579062 125.254844 124.579062 125.254844 124.579062 
C 125.254844 124.579062 125.254844 124.579062 125.254844 124.579062 
L 125.254844 124.579062 
C 125.254844 124.579062 125.254844 124.579062 125.254844 124.579062 
C 125.254844 124.579062 125.254844 124.579062 125.254844 124.579062 
z
" clip-path="url(#pfac31ca494)" style="fill: #ff8c8e"/>
   </g>
   <g id="patch_81">
    <path d="M 125.254844 124.579062 
C 125.254844 124.579062 125.254844 124.579062 125.254844 124.579062 
C 125.254844 124.579062 125.254844 124.579062 125.254844 124.579062 
L 125.254844 124.579062 
C 125.254844 124.579062 125.254844 124.579062 125.254844 124.579062 
C 125.254844 124.579062 125.254844 124.579062 125.254844 124.579062 
z
" clip-path="url(#pfac31ca494)" style="fill: #ff8c8e"/>
   </g>
   <g id="patch_82">
    <path d="M 125.254844 124.579062 
C 125.254844 124.579062 125.254844 124.579062 125.254844 124.579062 
C 125.254844 124.579062 125.254844 124.579062 125.254844 124.579062 
L 125.254844 124.579062 
C 125.254844 124.579062 125.254844 124.579062 125.254844 124.579062 
C 125.254844 124.579062 125.254844 124.579062 125.254844 124.579062 
z
" clip-path="url(#pfac31ca494)" style="fill: #ff8c8e"/>
   </g>
   <g id="patch_83">
    <path d="M 125.254844 124.579062 
C 125.254844 124.579062 125.254844 124.579062 125.254844 124.579062 
C 125.254844 124.579062 125.254844 124.579062 125.254844 124.579062 
L 125.254844 124.579062 
C 125.254844 124.579062 125.254844 124.579062 125.254844 124.579062 
C 125.254844 124.579062 125.254844 124.579062 125.254844 124.579062 
z
" clip-path="url(#pfac31ca494)" style="fill: #ff8c8e"/>
   </g>
   <g id="patch_84">
    <path d="M 125.254844 124.579062 
C 125.254844 124.579062 125.254844 124.579062 125.254844 124.579062 
C 125.254844 124.579062 125.254844 124.579062 125.254844 124.579062 
L 125.254844 124.579062 
C 125.254844 124.579062 125.254844 124.579062 125.254844 124.579062 
C 125.254844 124.579062 125.254844 124.579062 125.254844 124.579062 
z
" clip-path="url(#pfac31ca494)" style="fill: #ff8c8e"/>
   </g>
   <g id="patch_85">
    <path d="M 125.254844 124.579062 
C 125.254844 124.579062 125.254844 124.579062 125.254844 124.579062 
C 125.254844 124.579062 125.254844 124.579062 125.254844 124.579062 
L 125.254844 124.579062 
C 125.254844 124.579062 125.254844 124.579062 125.254844 124.579062 
C 125.254844 124.579062 125.254844 124.579062 125.254844 124.579062 
z
" clip-path="url(#pfac31ca494)" style="fill: #ff8c8e"/>
   </g>
   <g id="patch_86">
    <path d="M 125.254844 124.579062 
C 125.254844 124.579062 125.254844 124.579062 125.254844 124.579062 
C 125.254844 124.579062 125.254844 124.579062 125.254844 124.579062 
L 125.254844 124.579062 
C 125.254844 124.579062 125.254844 124.579062 125.254844 124.579062 
C 125.254844 124.579062 125.254844 124.579062 125.254844 124.579062 
z
" clip-path="url(#pfac31ca494)" style="fill: #ff8c8e"/>
   </g>
   <g id="patch_87">
    <path d="M 125.254844 124.579062 
C 125.254844 124.579062 125.254844 124.579062 125.254844 124.579062 
C 125.254844 124.579062 125.254844 124.579062 125.254844 124.579062 
L 125.254844 124.579062 
C 125.254844 124.579062 125.254844 124.579062 125.254844 124.579062 
C 125.254844 124.579062 125.254844 124.579062 125.254844 124.579062 
z
" clip-path="url(#pfac31ca494)" style="fill: #ff8c8e"/>
   </g>
   <g id="patch_88">
    <path d="M 125.254844 124.579062 
C 125.254844 124.579062 125.254844 124.579062 125.254844 124.579062 
C 125.254844 124.579062 125.254844 124.579062 125.254844 124.579062 
L 125.254844 124.579062 
C 125.254844 124.579062 125.254844 124.579062 125.254844 124.579062 
C 125.254844 124.579062 125.254844 124.579062 125.254844 124.579062 
z
" clip-path="url(#pfac31ca494)" style="fill: #ff8c8e"/>
   </g>
   <g id="patch_89">
    <path d="M 125.254844 124.579062 
C 125.254844 124.579062 125.254844 124.579062 125.254844 124.579062 
C 125.254844 124.579062 125.254844 124.579062 125.254844 124.579062 
L 125.254844 124.579062 
C 125.254844 124.579062 125.254844 124.579062 125.254844 124.579062 
C 125.254844 124.579062 125.254844 124.579062 125.254844 124.579062 
z
" clip-path="url(#pfac31ca494)" style="fill: #ff8c8e"/>
   </g>
   <g id="patch_90">
    <path d="M 125.254844 124.579062 
C 125.254844 124.579062 125.254844 124.579062 125.254844 124.579062 
C 125.254844 124.579062 125.254844 124.579062 125.254844 124.579062 
L 125.254844 124.579062 
C 125.254844 124.579062 125.254844 124.579062 125.254844 124.579062 
C 125.254844 124.579062 125.254844 124.579062 125.254844 124.579062 
z
" clip-path="url(#pfac31ca494)" style="fill: #ff8c8e"/>
   </g>
   <g id="patch_91">
    <path d="M 125.254844 124.579062 
C 125.254844 124.579062 125.254844 124.579062 125.254844 124.579062 
C 125.254844 124.579062 125.254844 124.579062 125.254844 124.579062 
L 125.254844 124.579062 
C 125.254844 124.579062 125.254844 124.579062 125.254844 124.579062 
C 125.254844 124.579062 125.254844 124.579062 125.254844 124.579062 
z
" clip-path="url(#pfac31ca494)" style="fill: #ff8c8e"/>
   </g>
   <g id="patch_92">
    <path d="M 116.309595 123.698032 
C 116.338433 123.405241 116.381628 123.114042 116.439025 122.825487 
C 116.496422 122.536932 116.567952 122.251369 116.653356 121.96983 
L 116.653356 121.96983 
C 116.567952 122.251369 116.496422 122.536932 116.439025 122.825487 
C 116.381628 123.114042 116.338433 123.405241 116.309595 123.698032 
z
" clip-path="url(#pfac31ca494)" style="fill: #ff8c8e"/>
   </g>
   <g id="patch_93">
    <path d="M 103.308404 117.921683 
C 103.52631 117.203343 103.779353 116.496135 104.06662 115.802613 
C 104.353886 115.109091 104.675029 114.43009 105.028889 113.768065 
L 105.028889 113.768065 
C 104.675029 114.43009 104.353886 115.109091 104.06662 115.802613 
C 103.779353 116.496135 103.52631 117.203343 103.308404 117.921683 
z
" clip-path="url(#pfac31ca494)" style="fill: #ff8c8e"/>
   </g>
   <g id="patch_94">
    <path d="M 106.613333 114.614968 
C 106.939473 114.004803 107.295374 113.411019 107.679749 112.83576 
C 108.064125 112.260501 108.476513 111.70446 108.915423 111.169647 
L 108.915423 111.169647 
C 108.476513 111.70446 108.064125 112.260501 107.679749 112.83576 
C 107.295374 113.411019 106.939473 114.004803 106.613333 114.614968 
z
" clip-path="url(#pfac31ca494)" style="fill: #ff8c8e"/>
   </g>
   <g id="patch_95">
    <path d="M 100.26053 104.066759 
C 100.931928 103.248658 101.643088 102.464014 102.391441 101.71566 
C 103.139795 100.967307 103.924439 100.256147 104.74254 99.584748 
L 104.74254 99.584748 
C 103.924439 100.256147 103.139795 100.967307 102.391441 101.71566 
C 101.643088 102.464014 100.931928 103.248658 100.26053 104.066759 
z
" clip-path="url(#pfac31ca494)" style="fill: #ff8c8e"/>
   </g>
   <g id="patch_96">
    <path d="M 92.059049 84.12987 
C 93.383012 83.043322 94.759523 82.022432 96.18361 81.070887 
C 97.607698 80.119342 99.077645 79.23829 100.588143 78.430912 
L 100.588143 78.430912 
C 99.077645 79.23829 97.607698 80.119342 96.18361 81.070887 
C 94.759523 82.022432 93.383012 83.043322 92.059049 84.12987 
z
" clip-path="url(#pfac31ca494)" style="fill: #ff8c8e"/>
   </g>
   <g id="patch_97">
    <path d="M 109.651951 95.388103 
C 110.607414 94.877397 111.587376 94.413909 112.588297 93.999314 
C 113.589218 93.584719 114.609891 93.219517 115.64663 92.905025 
L 115.64663 92.905025 
C 114.609891 93.219517 113.589218 93.584719 112.588297 93.999314 
C 111.587376 94.413909 110.607414 94.877397 109.651951 95.388103 
z
" clip-path="url(#pfac31ca494)" style="fill: #ff8c8e"/>
   </g>
   <g id="patch_98">
    <path d="M 117.692569 99.649583 
C 118.508548 99.402059 119.336188 99.194746 120.1725 99.028393 
C 121.008811 98.86204 121.852786 98.736849 122.701376 98.65327 
L 119.61006 67.266609 
C 117.734138 67.451372 115.868417 67.728125 114.019638 68.09587 
C 112.170859 68.463615 110.341249 68.921909 108.537418 69.469095 
z
" clip-path="url(#pfac31ca494)" style="fill: #ff8c8e"/>
   </g>
   <g id="patch_99">
    <path d="M 114.386703 14.232979 
C 117.998495 13.877248 121.625576 13.699061 125.254844 13.699061 
C 128.884112 13.699061 132.511192 13.877248 136.122984 14.232979 
L 136.122984 14.232979 
C 132.511192 13.877248 128.884112 13.699061 125.254844 13.699061 
C 121.625576 13.699061 117.998495 13.877248 114.386703 14.232979 
z
" clip-path="url(#pfac31ca494)" style="fill: #828282"/>
   </g>
   <g id="patch_100">
    <path d="M 133.98149 35.975936 
C 136.881603 36.261572 139.765943 36.689424 142.624094 37.257945 
C 145.482244 37.826467 148.310759 38.534973 151.099422 39.380905 
L 151.099422 39.380905 
C 148.310759 38.534973 145.482244 37.826467 142.624094 37.257945 
C 139.765943 36.689424 136.881603 36.261572 133.98149 35.975936 
z
" clip-path="url(#pfac31ca494)" style="fill: #828282"/>
   </g>
   <g id="patch_101">
    <path d="M 140.953667 72.826977 
C 142.64759 73.340822 144.315264 73.937526 145.950665 74.614931 
C 147.586065 75.292336 149.187222 76.049626 150.74835 76.884067 
L 150.74835 76.884067 
C 149.187222 76.049626 147.586065 75.292336 145.950665 74.614931 
C 144.315264 73.937526 142.64759 73.340822 140.953667 72.826977 
z
" clip-path="url(#pfac31ca494)" style="fill: #828282"/>
   </g>
   <g id="patch_102">
    <path d="M 147.405934 83.137288 
C 148.762385 83.862326 150.082421 84.653525 151.361275 85.508028 
C 152.640128 86.36253 153.876257 87.279306 155.065196 88.255043 
L 155.065196 88.255043 
C 153.876257 87.279306 152.640128 86.36253 151.361275 85.508028 
C 150.082421 84.653525 148.762385 83.862326 147.405934 83.137288 
z
" clip-path="url(#pfac31ca494)" style="fill: #828282"/>
   </g>
   <g id="patch_103">
    <path d="M 157.732726 85.004649 
C 159.028056 86.067698 160.270412 87.193704 161.455307 88.378599 
C 162.640202 89.563495 163.766208 90.805851 164.829258 92.10118 
L 164.829258 92.10118 
C 163.766208 90.805851 162.640202 89.563495 161.455307 88.378599 
C 160.270412 87.193704 159.028056 86.067698 157.732726 85.004649 
z
" clip-path="url(#pfac31ca494)" style="fill: #828282"/>
   </g>
   <g id="patch_104">
    <path d="M 164.424614 92.433263 
C 165.476794 93.715348 166.465393 95.04832 167.38684 96.427363 
C 168.308287 97.806406 169.161472 99.229858 169.943312 100.692579 
L 169.943312 100.692579 
C 169.161472 99.229858 168.308287 97.806406 167.38684 96.427363 
C 166.465393 95.04832 165.476794 93.715348 164.424614 92.433263 
z
" clip-path="url(#pfac31ca494)" style="fill: #828282"/>
   </g>
   <g id="patch_105">
    <path d="M 153.482717 109.49095 
C 153.976573 110.41489 154.424769 111.362521 154.825685 112.330419 
C 155.226602 113.298317 155.579756 114.285315 155.883871 115.287849 
L 155.883871 115.287849 
C 155.579756 114.285315 155.226602 113.298317 154.825685 112.330419 
C 154.424769 111.362521 153.976573 110.41489 153.482717 109.49095 
z
" clip-path="url(#pfac31ca494)" style="fill: #828282"/>
   </g>
   <g id="patch_106">
    <path d="M 154.002349 115.858602 
C 154.287782 116.799551 154.526846 117.753947 154.718676 118.718342 
C 154.910506 119.682737 155.054872 120.655969 155.151251 121.634523 
L 155.151251 121.634523 
C 155.054872 120.655969 154.910506 119.682737 154.718676 118.718342 
C 154.526846 117.753947 154.287782 116.799551 154.002349 115.858602 
z
" clip-path="url(#pfac31ca494)" style="fill: #828282"/>
   </g>
   <g id="patch_107">
    <path d="M 125.254844 124.579062 
C 125.254844 124.579062 125.254844 124.579062 125.254844 124.579062 
C 125.254844 124.579062 125.254844 124.579062 125.254844 124.579062 
L 125.254844 124.579062 
C 125.254844 124.579062 125.254844 124.579062 125.254844 124.579062 
C 125.254844 124.579062 125.254844 124.579062 125.254844 124.579062 
z
" clip-path="url(#pfac31ca494)" style="fill: #828282"/>
   </g>
   <g id="patch_108">
    <path d="M 125.254844 124.579062 
C 125.254844 124.579062 125.254844 124.579062 125.254844 124.579062 
C 125.254844 124.579062 125.254844 124.579062 125.254844 124.579062 
L 125.254844 124.579062 
C 125.254844 124.579062 125.254844 124.579062 125.254844 124.579062 
C 125.254844 124.579062 125.254844 124.579062 125.254844 124.579062 
z
" clip-path="url(#pfac31ca494)" style="fill: #828282"/>
   </g>
   <g id="patch_109">
    <path d="M 125.254844 124.579062 
C 125.254844 124.579062 125.254844 124.579062 125.254844 124.579062 
C 125.254844 124.579062 125.254844 124.579062 125.254844 124.579062 
L 125.254844 124.579062 
C 125.254844 124.579062 125.254844 124.579062 125.254844 124.579062 
C 125.254844 124.579062 125.254844 124.579062 125.254844 124.579062 
z
" clip-path="url(#pfac31ca494)" style="fill: #828282"/>
   </g>
   <g id="patch_110">
    <path d="M 125.254844 124.579062 
C 125.254844 124.579062 125.254844 124.579062 125.254844 124.579062 
C 125.254844 124.579062 125.254844 124.579062 125.254844 124.579062 
L 125.254844 124.579062 
C 125.254844 124.579062 125.254844 124.579062 125.254844 124.579062 
C 125.254844 124.579062 125.254844 124.579062 125.254844 124.579062 
z
" clip-path="url(#pfac31ca494)" style="fill: #828282"/>
   </g>
   <g id="patch_111">
    <path d="M 125.254844 124.579062 
C 125.254844 124.579062 125.254844 124.579062 125.254844 124.579062 
C 125.254844 124.579062 125.254844 124.579062 125.254844 124.579062 
L 125.254844 124.579062 
C 125.254844 124.579062 125.254844 124.579062 125.254844 124.579062 
C 125.254844 124.579062 125.254844 124.579062 125.254844 124.579062 
z
" clip-path="url(#pfac31ca494)" style="fill: #828282"/>
   </g>
   <g id="patch_112">
    <path d="M 125.254844 124.579062 
C 125.254844 124.579062 125.254844 124.579062 125.254844 124.579062 
C 125.254844 124.579062 125.254844 124.579062 125.254844 124.579062 
L 125.254844 124.579062 
C 125.254844 124.579062 125.254844 124.579062 125.254844 124.579062 
C 125.254844 124.579062 125.254844 124.579062 125.254844 124.579062 
z
" clip-path="url(#pfac31ca494)" style="fill: #828282"/>
   </g>
   <g id="patch_113">
    <path d="M 125.254844 124.579062 
C 125.254844 124.579062 125.254844 124.579062 125.254844 124.579062 
C 125.254844 124.579062 125.254844 124.579062 125.254844 124.579062 
L 125.254844 124.579062 
C 125.254844 124.579062 125.254844 124.579062 125.254844 124.579062 
C 125.254844 124.579062 125.254844 124.579062 125.254844 124.579062 
z
" clip-path="url(#pfac31ca494)" style="fill: #828282"/>
   </g>
   <g id="patch_114">
    <path d="M 125.254844 124.579062 
C 125.254844 124.579062 125.254844 124.579062 125.254844 124.579062 
C 125.254844 124.579062 125.254844 124.579062 125.254844 124.579062 
L 125.254844 124.579062 
C 125.254844 124.579062 125.254844 124.579062 125.254844 124.579062 
C 125.254844 124.579062 125.254844 124.579062 125.254844 124.579062 
z
" clip-path="url(#pfac31ca494)" style="fill: #828282"/>
   </g>
   <g id="patch_115">
    <path d="M 125.254844 124.579062 
C 125.254844 124.579062 125.254844 124.579062 125.254844 124.579062 
C 125.254844 124.579062 125.254844 124.579062 125.254844 124.579062 
L 125.254844 124.579062 
C 125.254844 124.579062 125.254844 124.579062 125.254844 124.579062 
C 125.254844 124.579062 125.254844 124.579062 125.254844 124.579062 
z
" clip-path="url(#pfac31ca494)" style="fill: #828282"/>
   </g>
   <g id="patch_116">
    <path d="M 125.254844 124.579062 
C 125.254844 124.579062 125.254844 124.579062 125.254844 124.579062 
C 125.254844 124.579062 125.254844 124.579062 125.254844 124.579062 
L 125.254844 124.579062 
C 125.254844 124.579062 125.254844 124.579062 125.254844 124.579062 
C 125.254844 124.579062 125.254844 124.579062 125.254844 124.579062 
z
" clip-path="url(#pfac31ca494)" style="fill: #828282"/>
   </g>
   <g id="patch_117">
    <path d="M 125.254844 124.579062 
C 125.254844 124.579062 125.254844 124.579062 125.254844 124.579062 
C 125.254844 124.579062 125.254844 124.579062 125.254844 124.579062 
L 125.254844 124.579062 
C 125.254844 124.579062 125.254844 124.579062 125.254844 124.579062 
C 125.254844 124.579062 125.254844 124.579062 125.254844 124.579062 
z
" clip-path="url(#pfac31ca494)" style="fill: #828282"/>
   </g>
   <g id="patch_118">
    <path d="M 125.254844 124.579062 
C 125.254844 124.579062 125.254844 124.579062 125.254844 124.579062 
C 125.254844 124.579062 125.254844 124.579062 125.254844 124.579062 
L 125.254844 124.579062 
C 125.254844 124.579062 125.254844 124.579062 125.254844 124.579062 
C 125.254844 124.579062 125.254844 124.579062 125.254844 124.579062 
z
" clip-path="url(#pfac31ca494)" style="fill: #828282"/>
   </g>
   <g id="patch_119">
    <path d="M 125.254844 124.579062 
C 125.254844 124.579062 125.254844 124.579062 125.254844 124.579062 
C 125.254844 124.579062 125.254844 124.579062 125.254844 124.579062 
L 125.254844 124.579062 
C 125.254844 124.579062 125.254844 124.579062 125.254844 124.579062 
C 125.254844 124.579062 125.254844 124.579062 125.254844 124.579062 
z
" clip-path="url(#pfac31ca494)" style="fill: #828282"/>
   </g>
   <g id="patch_120">
    <path d="M 125.254844 124.579062 
C 125.254844 124.579062 125.254844 124.579062 125.254844 124.579062 
C 125.254844 124.579062 125.254844 124.579062 125.254844 124.579062 
L 125.254844 124.579062 
C 125.254844 124.579062 125.254844 124.579062 125.254844 124.579062 
C 125.254844 124.579062 125.254844 124.579062 125.254844 124.579062 
z
" clip-path="url(#pfac31ca494)" style="fill: #828282"/>
   </g>
   <g id="patch_121">
    <path d="M 125.254844 124.579062 
C 125.254844 124.579062 125.254844 124.579062 125.254844 124.579062 
C 125.254844 124.579062 125.254844 124.579062 125.254844 124.579062 
L 125.254844 124.579062 
C 125.254844 124.579062 125.254844 124.579062 125.254844 124.579062 
C 125.254844 124.579062 125.254844 124.579062 125.254844 124.579062 
z
" clip-path="url(#pfac31ca494)" style="fill: #828282"/>
   </g>
   <g id="patch_122">
    <path d="M 125.254844 124.579062 
C 125.254844 124.579062 125.254844 124.579062 125.254844 124.579062 
C 125.254844 124.579062 125.254844 124.579062 125.254844 124.579062 
L 125.254844 124.579062 
C 125.254844 124.579062 125.254844 124.579062 125.254844 124.579062 
C 125.254844 124.579062 125.254844 124.579062 125.254844 124.579062 
z
" clip-path="url(#pfac31ca494)" style="fill: #828282"/>
   </g>
   <g id="patch_123">
    <path d="M 125.254844 124.579062 
C 125.254844 124.579062 125.254844 124.579062 125.254844 124.579062 
C 125.254844 124.579062 125.254844 124.579062 125.254844 124.579062 
L 125.254844 124.579062 
C 125.254844 124.579062 125.254844 124.579062 125.254844 124.579062 
C 125.254844 124.579062 125.254844 124.579062 125.254844 124.579062 
z
" clip-path="url(#pfac31ca494)" style="fill: #828282"/>
   </g>
   <g id="patch_124">
    <path d="M 116.309595 123.698032 
C 116.338433 123.405241 116.381628 123.114042 116.439025 122.825487 
C 116.496422 122.536932 116.567952 122.251369 116.653356 121.96983 
L 116.653356 121.96983 
C 116.567952 122.251369 116.496422 122.536932 116.439025 122.825487 
C 116.381628 123.114042 116.338433 123.405241 116.309595 123.698032 
z
" clip-path="url(#pfac31ca494)" style="fill: #828282"/>
   </g>
   <g id="patch_125">
    <path d="M 103.308404 117.921683 
C 103.52631 117.203343 103.779353 116.496135 104.06662 115.802613 
C 104.353886 115.109091 104.675029 114.43009 105.028889 113.768065 
L 105.028889 113.768065 
C 104.675029 114.43009 104.353886 115.109091 104.06662 115.802613 
C 103.779353 116.496135 103.52631 117.203343 103.308404 117.921683 
z
" clip-path="url(#pfac31ca494)" style="fill: #828282"/>
   </g>
   <g id="patch_126">
    <path d="M 106.613333 114.614968 
C 106.939473 114.004803 107.295374 113.411019 107.679749 112.83576 
C 108.064125 112.260501 108.476513 111.70446 108.915423 111.169647 
L 108.915423 111.169647 
C 108.476513 111.70446 108.064125 112.260501 107.679749 112.83576 
C 107.295374 113.411019 106.939473 114.004803 106.613333 114.614968 
z
" clip-path="url(#pfac31ca494)" style="fill: #828282"/>
   </g>
   <g id="patch_127">
    <path d="M 100.26053 104.066759 
C 100.931928 103.248658 101.643088 102.464014 102.391441 101.71566 
C 103.139795 100.967307 103.924439 100.256147 104.74254 99.584748 
L 104.74254 99.584748 
C 103.924439 100.256147 103.139795 100.967307 102.391441 101.71566 
C 101.643088 102.464014 100.931928 103.248658 100.26053 104.066759 
z
" clip-path="url(#pfac31ca494)" style="fill: #828282"/>
   </g>
   <g id="patch_128">
    <path d="M 92.059049 84.12987 
C 93.383012 83.043322 94.759523 82.022432 96.18361 81.070887 
C 97.607698 80.119342 99.077645 79.23829 100.588143 78.430912 
L 100.588143 78.430912 
C 99.077645 79.23829 97.607698 80.119342 96.18361 81.070887 
C 94.759523 82.022432 93.383012 83.043322 92.059049 84.12987 
z
" clip-path="url(#pfac31ca494)" style="fill: #828282"/>
   </g>
   <g id="patch_129">
    <path d="M 109.651951 95.388103 
C 110.607414 94.877397 111.587376 94.413909 112.588297 93.999314 
C 113.589218 93.584719 114.609891 93.219517 115.64663 92.905025 
L 115.64663 92.905025 
C 114.609891 93.219517 113.589218 93.584719 112.588297 93.999314 
C 111.587376 94.413909 110.607414 94.877397 109.651951 95.388103 
z
" clip-path="url(#pfac31ca494)" style="fill: #828282"/>
   </g>
   <g id="patch_130">
    <path d="M 108.537418 69.469095 
C 110.341249 68.921909 112.170859 68.463615 114.019638 68.09587 
C 115.868417 67.728125 117.734138 67.451372 119.61006 67.266609 
L 119.61006 67.266609 
C 117.734138 67.451372 115.868417 67.728125 114.019638 68.09587 
C 112.170859 68.463615 110.341249 68.921909 108.537418 69.469095 
z
" clip-path="url(#pfac31ca494)" style="fill: #828282"/>
   </g>
   <g id="patch_131">
    <path d="M 125.254844 124.579062 
C 125.254844 124.579062 125.254844 124.579062 125.254844 124.579062 
C 125.254844 124.579062 125.254844 124.579062 125.254844 124.579062 
L 136.122984 14.232979 
C 132.511192 13.877248 128.884112 13.699061 125.254844 13.699061 
C 121.625576 13.699061 117.998495 13.877248 114.386703 14.232979 
L 125.254844 124.579062 
z
" clip-path="url(#pfac31ca494)" style="fill: none; stroke: #292929; stroke-width: 0.5; stroke-linejoin: miter"/>
   </g>
   <g id="patch_132">
    <path d="M 125.254844 124.579062 
C 125.254844 124.579062 125.254844 124.579062 125.254844 124.579062 
C 125.254844 124.579062 125.254844 124.579062 125.254844 124.579062 
L 151.099422 39.380905 
C 148.310759 38.534973 145.482244 37.826467 142.624094 37.257945 
C 139.765943 36.689424 136.881603 36.261572 133.98149 35.975936 
L 125.254844 124.579062 
z
" clip-path="url(#pfac31ca494)" style="fill: none; stroke: #292929; stroke-width: 0.5; stroke-linejoin: miter"/>
   </g>
   <g id="patch_133">
    <path d="M 125.254844 124.579062 
C 125.254844 124.579062 125.254844 124.579062 125.254844 124.579062 
C 125.254844 124.579062 125.254844 124.579062 125.254844 124.579062 
L 150.74835 76.884067 
C 149.187222 76.049626 147.586065 75.292336 145.950665 74.614931 
C 144.315264 73.937526 142.64759 73.340822 140.953667 72.826977 
L 125.254844 124.579062 
z
" clip-path="url(#pfac31ca494)" style="fill: none; stroke: #292929; stroke-width: 0.5; stroke-linejoin: miter"/>
   </g>
   <g id="patch_134">
    <path d="M 125.254844 124.579062 
C 125.254844 124.579062 125.254844 124.579062 125.254844 124.579062 
C 125.254844 124.579062 125.254844 124.579062 125.254844 124.579062 
L 155.065196 88.255043 
C 153.876257 87.279306 152.640128 86.36253 151.361275 85.508028 
C 150.082421 84.653525 148.762385 83.862326 147.405934 83.137288 
L 125.254844 124.579062 
z
" clip-path="url(#pfac31ca494)" style="fill: none; stroke: #292929; stroke-width: 0.5; stroke-linejoin: miter"/>
   </g>
   <g id="patch_135">
    <path d="M 125.254844 124.579062 
C 125.254844 124.579062 125.254844 124.579062 125.254844 124.579062 
C 125.254844 124.579062 125.254844 124.579062 125.254844 124.579062 
L 164.829258 92.10118 
C 163.766208 90.805851 162.640202 89.563495 161.455307 88.378599 
C 160.270412 87.193704 159.028056 86.067698 157.732726 85.004649 
L 125.254844 124.579062 
z
" clip-path="url(#pfac31ca494)" style="fill: none; stroke: #292929; stroke-width: 0.5; stroke-linejoin: miter"/>
   </g>
   <g id="patch_136">
    <path d="M 125.254844 124.579062 
C 125.254844 124.579062 125.254844 124.579062 125.254844 124.579062 
C 125.254844 124.579062 125.254844 124.579062 125.254844 124.579062 
L 169.943312 100.692579 
C 169.161472 99.229858 168.308287 97.806406 167.38684 96.427363 
C 166.465393 95.04832 165.476794 93.715348 164.424614 92.433263 
L 125.254844 124.579062 
z
" clip-path="url(#pfac31ca494)" style="fill: none; stroke: #292929; stroke-width: 0.5; stroke-linejoin: miter"/>
   </g>
   <g id="patch_137">
    <path d="M 125.254844 124.579062 
C 125.254844 124.579062 125.254844 124.579062 125.254844 124.579062 
C 125.254844 124.579062 125.254844 124.579062 125.254844 124.579062 
L 155.883871 115.287849 
C 155.579756 114.285315 155.226602 113.298317 154.825685 112.330419 
C 154.424769 111.362521 153.976573 110.41489 153.482717 109.49095 
L 125.254844 124.579062 
z
" clip-path="url(#pfac31ca494)" style="fill: none; stroke: #292929; stroke-width: 0.5; stroke-linejoin: miter"/>
   </g>
   <g id="patch_138">
    <path d="M 125.254844 124.579062 
C 125.254844 124.579062 125.254844 124.579062 125.254844 124.579062 
C 125.254844 124.579062 125.254844 124.579062 125.254844 124.579062 
L 155.151251 121.634523 
C 155.054872 120.655969 154.910506 119.682737 154.718676 118.718342 
C 154.526846 117.753947 154.287782 116.799551 154.002349 115.858602 
L 125.254844 124.579062 
z
" clip-path="url(#pfac31ca494)" style="fill: none; stroke: #292929; stroke-width: 0.5; stroke-linejoin: miter"/>
   </g>
   <g id="patch_139">
    <path d="M 125.254844 124.579062 
C 125.254844 124.579062 125.254844 124.579062 125.254844 124.579062 
C 125.254844 124.579062 125.254844 124.579062 125.254844 124.579062 
L 125.254844 124.579062 
C 125.254844 124.579062 125.254844 124.579062 125.254844 124.579062 
C 125.254844 124.579062 125.254844 124.579062 125.254844 124.579062 
L 125.254844 124.579062 
z
" clip-path="url(#pfac31ca494)" style="fill: none; stroke: #292929; stroke-width: 0.5; stroke-linejoin: miter"/>
   </g>
   <g id="patch_140">
    <path d="M 125.254844 124.579062 
C 125.254844 124.579062 125.254844 124.579062 125.254844 124.579062 
C 125.254844 124.579062 125.254844 124.579062 125.254844 124.579062 
L 125.254844 124.579062 
C 125.254844 124.579062 125.254844 124.579062 125.254844 124.579062 
C 125.254844 124.579062 125.254844 124.579062 125.254844 124.579062 
L 125.254844 124.579062 
z
" clip-path="url(#pfac31ca494)" style="fill: none; stroke: #292929; stroke-width: 0.5; stroke-linejoin: miter"/>
   </g>
   <g id="patch_141">
    <path d="M 125.254844 124.579062 
C 125.254844 124.579062 125.254844 124.579062 125.254844 124.579062 
C 125.254844 124.579062 125.254844 124.579062 125.254844 124.579062 
L 125.254844 124.579062 
C 125.254844 124.579062 125.254844 124.579062 125.254844 124.579062 
C 125.254844 124.579062 125.254844 124.579062 125.254844 124.579062 
L 125.254844 124.579062 
z
" clip-path="url(#pfac31ca494)" style="fill: none; stroke: #292929; stroke-width: 0.5; stroke-linejoin: miter"/>
   </g>
   <g id="patch_142">
    <path d="M 125.254844 124.579062 
C 125.254844 124.579062 125.254844 124.579062 125.254844 124.579062 
C 125.254844 124.579062 125.254844 124.579062 125.254844 124.579062 
L 125.254844 124.579062 
C 125.254844 124.579062 125.254844 124.579062 125.254844 124.579062 
C 125.254844 124.579062 125.254844 124.579062 125.254844 124.579062 
L 125.254844 124.579062 
z
" clip-path="url(#pfac31ca494)" style="fill: none; stroke: #292929; stroke-width: 0.5; stroke-linejoin: miter"/>
   </g>
   <g id="patch_143">
    <path d="M 125.254844 124.579062 
C 125.254844 124.579062 125.254844 124.579062 125.254844 124.579062 
C 125.254844 124.579062 125.254844 124.579062 125.254844 124.579062 
L 125.254844 124.579062 
C 125.254844 124.579062 125.254844 124.579062 125.254844 124.579062 
C 125.254844 124.579062 125.254844 124.579062 125.254844 124.579062 
L 125.254844 124.579062 
z
" clip-path="url(#pfac31ca494)" style="fill: none; stroke: #292929; stroke-width: 0.5; stroke-linejoin: miter"/>
   </g>
   <g id="patch_144">
    <path d="M 125.254844 124.579062 
C 125.254844 124.579062 125.254844 124.579062 125.254844 124.579062 
C 125.254844 124.579062 125.254844 124.579062 125.254844 124.579062 
L 125.254844 124.579062 
C 125.254844 124.579062 125.254844 124.579062 125.254844 124.579062 
C 125.254844 124.579062 125.254844 124.579062 125.254844 124.579062 
L 125.254844 124.579062 
z
" clip-path="url(#pfac31ca494)" style="fill: none; stroke: #292929; stroke-width: 0.5; stroke-linejoin: miter"/>
   </g>
   <g id="patch_145">
    <path d="M 125.254844 124.579062 
C 125.254844 124.579062 125.254844 124.579062 125.254844 124.579062 
C 125.254844 124.579062 125.254844 124.579062 125.254844 124.579062 
L 125.254844 124.579062 
C 125.254844 124.579062 125.254844 124.579062 125.254844 124.579062 
C 125.254844 124.579062 125.254844 124.579062 125.254844 124.579062 
L 125.254844 124.579062 
z
" clip-path="url(#pfac31ca494)" style="fill: none; stroke: #292929; stroke-width: 0.5; stroke-linejoin: miter"/>
   </g>
   <g id="patch_146">
    <path d="M 125.254844 124.579062 
C 125.254844 124.579062 125.254844 124.579062 125.254844 124.579062 
C 125.254844 124.579062 125.254844 124.579062 125.254844 124.579062 
L 125.254844 124.579062 
C 125.254844 124.579062 125.254844 124.579062 125.254844 124.579062 
C 125.254844 124.579062 125.254844 124.579062 125.254844 124.579062 
L 125.254844 124.579062 
z
" clip-path="url(#pfac31ca494)" style="fill: none; stroke: #292929; stroke-width: 0.5; stroke-linejoin: miter"/>
   </g>
   <g id="patch_147">
    <path d="M 125.254844 124.579062 
C 125.254844 124.579062 125.254844 124.579062 125.254844 124.579062 
C 125.254844 124.579062 125.254844 124.579062 125.254844 124.579062 
L 125.254844 124.579062 
C 125.254844 124.579062 125.254844 124.579062 125.254844 124.579062 
C 125.254844 124.579062 125.254844 124.579062 125.254844 124.579062 
L 125.254844 124.579062 
z
" clip-path="url(#pfac31ca494)" style="fill: none; stroke: #292929; stroke-width: 0.5; stroke-linejoin: miter"/>
   </g>
   <g id="patch_148">
    <path d="M 125.254844 124.579062 
C 125.254844 124.579062 125.254844 124.579062 125.254844 124.579062 
C 125.254844 124.579062 125.254844 124.579062 125.254844 124.579062 
L 125.254844 124.579062 
C 125.254844 124.579062 125.254844 124.579062 125.254844 124.579062 
C 125.254844 124.579062 125.254844 124.579062 125.254844 124.579062 
L 125.254844 124.579062 
z
" clip-path="url(#pfac31ca494)" style="fill: none; stroke: #292929; stroke-width: 0.5; stroke-linejoin: miter"/>
   </g>
   <g id="patch_149">
    <path d="M 125.254844 124.579062 
C 125.254844 124.579062 125.254844 124.579062 125.254844 124.579062 
C 125.254844 124.579062 125.254844 124.579062 125.254844 124.579062 
L 125.254844 124.579062 
C 125.254844 124.579062 125.254844 124.579062 125.254844 124.579062 
C 125.254844 124.579062 125.254844 124.579062 125.254844 124.579062 
L 125.254844 124.579062 
z
" clip-path="url(#pfac31ca494)" style="fill: none; stroke: #292929; stroke-width: 0.5; stroke-linejoin: miter"/>
   </g>
   <g id="patch_150">
    <path d="M 125.254844 124.579062 
C 125.254844 124.579062 125.254844 124.579062 125.254844 124.579062 
C 125.254844 124.579062 125.254844 124.579062 125.254844 124.579062 
L 125.254844 124.579062 
C 125.254844 124.579062 125.254844 124.579062 125.254844 124.579062 
C 125.254844 124.579062 125.254844 124.579062 125.254844 124.579062 
L 125.254844 124.579062 
z
" clip-path="url(#pfac31ca494)" style="fill: none; stroke: #292929; stroke-width: 0.5; stroke-linejoin: miter"/>
   </g>
   <g id="patch_151">
    <path d="M 125.254844 124.579062 
C 125.254844 124.579062 125.254844 124.579062 125.254844 124.579062 
C 125.254844 124.579062 125.254844 124.579062 125.254844 124.579062 
L 125.254844 124.579062 
C 125.254844 124.579062 125.254844 124.579062 125.254844 124.579062 
C 125.254844 124.579062 125.254844 124.579062 125.254844 124.579062 
L 125.254844 124.579062 
z
" clip-path="url(#pfac31ca494)" style="fill: none; stroke: #292929; stroke-width: 0.5; stroke-linejoin: miter"/>
   </g>
   <g id="patch_152">
    <path d="M 125.254844 124.579062 
C 125.254844 124.579062 125.254844 124.579062 125.254844 124.579062 
C 125.254844 124.579062 125.254844 124.579062 125.254844 124.579062 
L 125.254844 124.579062 
C 125.254844 124.579062 125.254844 124.579062 125.254844 124.579062 
C 125.254844 124.579062 125.254844 124.579062 125.254844 124.579062 
L 125.254844 124.579062 
z
" clip-path="url(#pfac31ca494)" style="fill: none; stroke: #292929; stroke-width: 0.5; stroke-linejoin: miter"/>
   </g>
   <g id="patch_153">
    <path d="M 125.254844 124.579062 
C 125.254844 124.579062 125.254844 124.579062 125.254844 124.579062 
C 125.254844 124.579062 125.254844 124.579062 125.254844 124.579062 
L 125.254844 124.579062 
C 125.254844 124.579062 125.254844 124.579062 125.254844 124.579062 
C 125.254844 124.579062 125.254844 124.579062 125.254844 124.579062 
L 125.254844 124.579062 
z
" clip-path="url(#pfac31ca494)" style="fill: none; stroke: #292929; stroke-width: 0.5; stroke-linejoin: miter"/>
   </g>
   <g id="patch_154">
    <path d="M 125.254844 124.579062 
C 125.254844 124.579062 125.254844 124.579062 125.254844 124.579062 
C 125.254844 124.579062 125.254844 124.579062 125.254844 124.579062 
L 125.254844 124.579062 
C 125.254844 124.579062 125.254844 124.579062 125.254844 124.579062 
C 125.254844 124.579062 125.254844 124.579062 125.254844 124.579062 
L 125.254844 124.579062 
z
" clip-path="url(#pfac31ca494)" style="fill: none; stroke: #292929; stroke-width: 0.5; stroke-linejoin: miter"/>
   </g>
   <g id="patch_155">
    <path d="M 125.254844 124.579062 
C 125.254844 124.579062 125.254844 124.579062 125.254844 124.579062 
C 125.254844 124.579062 125.254844 124.579062 125.254844 124.579062 
L 125.254844 124.579062 
C 125.254844 124.579062 125.254844 124.579062 125.254844 124.579062 
C 125.254844 124.579062 125.254844 124.579062 125.254844 124.579062 
L 125.254844 124.579062 
z
" clip-path="url(#pfac31ca494)" style="fill: none; stroke: #292929; stroke-width: 0.5; stroke-linejoin: miter"/>
   </g>
   <g id="patch_156">
    <path d="M 125.254844 124.579062 
C 125.254844 124.579062 125.254844 124.579062 125.254844 124.579062 
C 125.254844 124.579062 125.254844 124.579062 125.254844 124.579062 
L 116.653356 121.96983 
C 116.567952 122.251369 116.496422 122.536932 116.439025 122.825487 
C 116.381628 123.114042 116.338433 123.405241 116.309595 123.698032 
L 125.254844 124.579062 
z
" clip-path="url(#pfac31ca494)" style="fill: none; stroke: #292929; stroke-width: 0.5; stroke-linejoin: miter"/>
   </g>
   <g id="patch_157">
    <path d="M 125.254844 124.579062 
C 125.254844 124.579062 125.254844 124.579062 125.254844 124.579062 
C 125.254844 124.579062 125.254844 124.579062 125.254844 124.579062 
L 105.028889 113.768065 
C 104.675029 114.43009 104.353886 115.109091 104.06662 115.802613 
C 103.779353 116.496135 103.52631 117.203343 103.308404 117.921683 
L 125.254844 124.579062 
z
" clip-path="url(#pfac31ca494)" style="fill: none; stroke: #292929; stroke-width: 0.5; stroke-linejoin: miter"/>
   </g>
   <g id="patch_158">
    <path d="M 125.254844 124.579062 
C 125.254844 124.579062 125.254844 124.579062 125.254844 124.579062 
C 125.254844 124.579062 125.254844 124.579062 125.254844 124.579062 
L 108.915423 111.169647 
C 108.476513 111.70446 108.064125 112.260501 107.679749 112.83576 
C 107.295374 113.411019 106.939473 114.004803 106.613333 114.614968 
L 125.254844 124.579062 
z
" clip-path="url(#pfac31ca494)" style="fill: none; stroke: #292929; stroke-width: 0.5; stroke-linejoin: miter"/>
   </g>
   <g id="patch_159">
    <path d="M 125.254844 124.579062 
C 125.254844 124.579062 125.254844 124.579062 125.254844 124.579062 
C 125.254844 124.579062 125.254844 124.579062 125.254844 124.579062 
L 104.74254 99.584748 
C 103.924439 100.256147 103.139795 100.967307 102.391441 101.71566 
C 101.643088 102.464014 100.931928 103.248658 100.26053 104.066759 
L 125.254844 124.579062 
z
" clip-path="url(#pfac31ca494)" style="fill: none; stroke: #292929; stroke-width: 0.5; stroke-linejoin: miter"/>
   </g>
   <g id="patch_160">
    <path d="M 125.254844 124.579062 
C 125.254844 124.579062 125.254844 124.579062 125.254844 124.579062 
C 125.254844 124.579062 125.254844 124.579062 125.254844 124.579062 
L 100.588143 78.430912 
C 99.077645 79.23829 97.607698 80.119342 96.18361 81.070887 
C 94.759523 82.022432 93.383012 83.043322 92.059049 84.12987 
L 125.254844 124.579062 
z
" clip-path="url(#pfac31ca494)" style="fill: none; stroke: #292929; stroke-width: 0.5; stroke-linejoin: miter"/>
   </g>
   <g id="patch_161">
    <path d="M 125.254844 124.579062 
C 125.254844 124.579062 125.254844 124.579062 125.254844 124.579062 
C 125.254844 124.579062 125.254844 124.579062 125.254844 124.579062 
L 115.64663 92.905025 
C 114.609891 93.219517 113.589218 93.584719 112.588297 93.999314 
C 111.587376 94.413909 110.607414 94.877397 109.651951 95.388103 
L 125.254844 124.579062 
z
" clip-path="url(#pfac31ca494)" style="fill: none; stroke: #292929; stroke-width: 0.5; stroke-linejoin: miter"/>
   </g>
   <g id="patch_162">
    <path d="M 125.254844 124.579062 
C 125.254844 124.579062 125.254844 124.579062 125.254844 124.579062 
C 125.254844 124.579062 125.254844 124.579062 125.254844 124.579062 
L 119.61006 67.266609 
C 117.734138 67.451372 115.868417 67.728125 114.019638 68.09587 
C 112.170859 68.463615 110.341249 68.921909 108.537418 69.469095 
L 125.254844 124.579062 
z
" clip-path="url(#pfac31ca494)" style="fill: none; stroke: #292929; stroke-width: 0.5; stroke-linejoin: miter"/>
   </g>
   <g id="PathCollection_1">
    <defs>
     <path id="m0810741267" d="M 0.193618 7.414054 
L 0.193618 7.414054 
C 0.054922 7.414054 -0.078235 7.358899 -0.176308 7.260826 
C -0.274381 7.162753 -0.329536 7.029596 -0.329536 6.890901 
L -0.329536 5.365008 
L -1.528416 6.56393 
L -1.528416 6.56393 
C -1.577018 6.612704 -1.634775 6.651408 -1.698366 6.677814 
C -1.761958 6.704221 -1.830141 6.717815 -1.898997 6.717815 
C -1.967853 6.717815 -2.036037 6.704221 -2.099628 6.677814 
C -2.163219 6.651408 -2.220976 6.612704 -2.269578 6.56393 
L -2.269578 6.56393 
C -2.318353 6.515327 -2.357056 6.457571 -2.383463 6.393979 
C -2.409869 6.330388 -2.423463 6.262205 -2.423463 6.193348 
C -2.423463 6.124492 -2.409869 6.056309 -2.383463 5.992718 
C -2.357056 5.929126 -2.318353 5.87137 -2.269578 5.822767 
L -0.329536 3.884106 
L -0.329536 0.820937 
L -2.98067 2.351538 
L -3.691824 5.001416 
L -3.691824 5.001416 
C -3.727584 5.135411 -3.815199 5.249836 -3.93523 5.319305 
C -4.055261 5.388775 -4.198123 5.407741 -4.332122 5.371997 
L -4.332122 5.371997 
C -4.466126 5.336237 -4.580558 5.248616 -4.650029 5.128576 
C -4.719499 5.008535 -4.73846 4.865662 -4.702703 4.731657 
L -4.262647 3.092721 
L -5.585535 3.855668 
L -5.585535 3.855668 
C -5.645013 3.890144 -5.710708 3.912561 -5.778854 3.921634 
C -5.847001 3.930706 -5.916272 3.926258 -5.982698 3.908543 
C -6.049125 3.890828 -6.111412 3.860192 -6.165991 3.818391 
C -6.220571 3.77659 -6.266379 3.724437 -6.300791 3.664922 
L -6.300791 3.664922 
C -6.335212 3.605364 -6.35755 3.539597 -6.366524 3.471396 
C -6.375498 3.403194 -6.370933 3.333888 -6.35309 3.267452 
C -6.335248 3.201017 -6.304476 3.138749 -6.26254 3.08422 
C -6.220605 3.029692 -6.168323 2.983966 -6.108695 2.949666 
L -4.785807 2.186762 
L -6.424743 1.746706 
L -6.424743 1.746706 
C -6.558747 1.710946 -6.673179 1.623325 -6.74265 1.503284 
C -6.81212 1.383244 -6.831081 1.240371 -6.795324 1.106366 
L -6.795324 1.106366 
C -6.777471 1.039969 -6.746703 0.977739 -6.704784 0.923241 
C -6.662864 0.868744 -6.61061 0.823041 -6.551015 0.788752 
C -6.491421 0.754464 -6.425647 0.732257 -6.357465 0.723406 
C -6.289282 0.714554 -6.220019 0.71923 -6.153645 0.737166 
L -3.505232 1.44698 
L -0.852424 -0.08496 
L -3.503767 -1.615666 
L -6.153645 -0.905851 
L -6.153645 -0.905851 
C -6.22011 -0.887939 -6.289462 -0.883321 -6.357716 -0.892262 
C -6.42597 -0.901202 -6.491793 -0.923527 -6.551403 -0.957953 
C -6.611013 -0.992379 -6.663247 -1.038234 -6.705103 -1.092883 
C -6.746958 -1.147533 -6.777619 -1.209911 -6.795324 -1.276432 
L -6.795324 -1.276432 
C -6.831068 -1.410431 -6.812101 -1.553293 -6.742632 -1.673324 
C -6.673162 -1.793355 -6.558738 -1.88097 -6.424743 -1.91673 
L -4.785807 -2.355447 
L -6.108695 -3.119732 
L -6.108695 -3.119732 
C -6.228699 -3.188976 -6.316415 -3.303132 -6.352417 -3.436921 
C -6.388419 -3.57071 -6.369839 -3.713469 -6.300791 -3.833586 
L -6.300791 -3.833586 
C -6.266491 -3.893214 -6.220765 -3.945496 -6.166237 -3.987431 
C -6.111708 -4.029367 -6.04944 -4.060139 -5.983005 -4.077981 
C -5.91657 -4.095823 -5.847263 -4.100389 -5.779062 -4.091415 
C -5.71086 -4.082441 -5.645094 -4.060102 -5.585535 -4.025682 
L -4.262647 -3.261396 
L -4.702703 -4.900332 
L -4.702703 -4.900332 
C -4.73846 -5.034337 -4.719499 -5.17721 -4.650029 -5.29725 
C -4.580558 -5.417291 -4.466126 -5.504912 -4.332122 -5.540672 
L -4.332122 -5.540672 
C -4.19831 -5.576464 -4.055613 -5.557686 -3.935617 -5.488496 
C -3.81562 -5.419305 -3.727882 -5.305212 -3.691824 -5.171472 
L -2.982009 -2.521594 
L -0.329411 -0.990302 
L -0.329411 -4.051588 
L -2.269453 -5.991589 
L -2.269453 -5.991589 
C -2.318227 -6.040191 -2.356931 -6.097947 -2.383337 -6.161539 
C -2.409744 -6.22513 -2.423338 -6.293314 -2.423338 -6.36217 
C -2.423338 -6.431026 -2.409744 -6.499209 -2.383337 -6.5628 
C -2.356931 -6.626392 -2.318227 -6.684149 -2.269453 -6.732751 
L -2.269453 -6.732751 
C -2.22085 -6.781526 -2.163094 -6.820229 -2.099502 -6.846635 
C -2.035911 -6.873042 -1.967728 -6.886636 -1.898871 -6.886636 
C -1.830015 -6.886636 -1.761832 -6.873042 -1.698241 -6.846635 
C -1.634649 -6.820229 -1.576893 -6.781526 -1.52829 -6.732751 
L -0.329411 -5.533829 
L -0.329411 -7.059722 
L -0.329411 -7.059722 
C -0.329411 -7.198418 -0.274255 -7.331575 -0.176182 -7.429647 
C -0.07811 -7.52772 0.055047 -7.582875 0.193743 -7.582875 
L 0.193743 -7.582875 
C 0.332439 -7.582875 0.465596 -7.52772 0.563669 -7.429647 
C 0.661741 -7.331575 0.716897 -7.198418 0.716897 -7.059722 
L 0.716897 -5.533829 
L 1.915777 -6.732751 
L 1.915777 -6.732751 
C 1.964379 -6.781526 2.022136 -6.820229 2.085727 -6.846635 
C 2.149318 -6.873042 2.217502 -6.886636 2.286358 -6.886636 
C 2.355214 -6.886636 2.423397 -6.873042 2.486989 -6.846635 
C 2.55058 -6.820229 2.608337 -6.781526 2.656939 -6.732751 
L 2.656939 -6.732751 
C 2.705714 -6.684149 2.744417 -6.626392 2.770823 -6.5628 
C 2.79723 -6.499209 2.810824 -6.431026 2.810824 -6.36217 
C 2.810824 -6.293314 2.79723 -6.22513 2.770823 -6.161539 
C 2.744417 -6.097947 2.705714 -6.040191 2.656939 -5.991589 
L 0.716897 -4.051588 
L 0.716897 -0.991139 
L 3.369495 -2.522954 
L 4.07931 -5.171367 
L 4.07931 -5.171367 
C 4.115368 -5.305107 4.203106 -5.4192 4.323103 -5.488391 
C 4.4431 -5.557582 4.585797 -5.576359 4.719608 -5.540567 
L 4.719608 -5.540567 
C 4.853612 -5.504807 4.968045 -5.417186 5.037515 -5.297146 
C 5.106986 -5.177105 5.125946 -5.034232 5.090189 -4.900227 
L 4.650133 -3.262673 
L 5.973022 -4.025577 
L 5.973022 -4.025577 
C 6.03258 -4.059998 6.098346 -4.082336 6.166548 -4.09131 
C 6.234749 -4.100284 6.304056 -4.095719 6.370491 -4.077876 
C 6.436926 -4.060034 6.499194 -4.029262 6.553723 -3.987327 
C 6.608252 -3.945391 6.653978 -3.893109 6.688277 -3.833481 
L 6.688277 -3.833481 
C 6.757325 -3.713365 6.775905 -3.570605 6.739903 -3.436816 
C 6.703901 -3.303027 6.616186 -3.188871 6.496181 -3.119628 
L 5.173293 -2.355342 
L 6.812229 -1.916625 
L 6.812229 -1.916625 
C 6.946224 -1.880865 7.060649 -1.79325 7.130118 -1.67322 
C 7.199588 -1.553189 7.218554 -1.410326 7.18281 -1.276327 
L 7.18281 -1.276327 
C 7.165106 -1.209806 7.134445 -1.147429 7.092589 -1.092779 
C 7.050733 -1.038129 6.998499 -0.992274 6.938889 -0.957848 
C 6.879279 -0.923422 6.813456 -0.901098 6.745202 -0.892157 
C 6.676949 -0.883217 6.607597 -0.887835 6.541131 -0.905746 
L 3.891253 -1.615561 
L 1.239492 -0.084604 
L 3.892718 1.447085 
L 6.541131 0.73727 
L 6.541131 0.73727 
C 6.674948 0.701466 6.817656 0.720237 6.937662 0.789429 
C 7.057669 0.858621 7.145413 0.972721 7.181471 1.10647 
L 7.181471 1.10647 
C 7.217274 1.240293 7.198497 1.383006 7.129297 1.503014 
C 7.060096 1.623021 6.945986 1.710762 6.812229 1.74681 
L 5.173293 2.186866 
L 6.496181 2.949771 
L 6.496181 2.949771 
C 6.555697 2.984183 6.607849 3.029991 6.649651 3.08457 
C 6.691452 3.13915 6.722088 3.201437 6.739803 3.267863 
C 6.757517 3.33429 6.761966 3.403561 6.752893 3.471707 
C 6.743821 3.539854 6.721404 3.605549 6.686927 3.665026 
L 6.686927 3.665026 
C 6.617458 3.784813 6.503196 3.87225 6.369416 3.907994 
C 6.235636 3.943739 6.092989 3.924946 5.973032 3.855772 
L 4.650144 3.091487 
L 5.08886 4.731783 
L 5.08886 4.731783 
C 5.124664 4.865606 5.105887 5.008319 5.036686 5.128326 
C 4.967486 5.248334 4.853376 5.336074 4.719619 5.372123 
L 4.719619 5.372123 
C 4.585619 5.407867 4.442757 5.3889 4.322726 5.319431 
C 4.202695 5.249961 4.115081 5.135537 4.07932 5.001542 
L 3.368166 2.351664 
L 0.717033 0.821063 
L 0.717033 3.884232 
L 2.657075 5.822893 
L 2.657075 5.822893 
C 2.70585 5.871495 2.744553 5.929252 2.770959 5.992843 
C 2.797366 6.056435 2.81096 6.124618 2.81096 6.193474 
C 2.81096 6.26233 2.797366 6.330514 2.770959 6.394105 
C 2.744553 6.457696 2.70585 6.515453 2.657075 6.564055 
L 2.657075 6.564055 
C 2.608473 6.61283 2.550716 6.651533 2.487125 6.67794 
C 2.423533 6.704346 2.35535 6.71794 2.286494 6.71794 
C 2.217638 6.71794 2.149454 6.704346 2.085863 6.67794 
C 2.022272 6.651533 1.964515 6.61283 1.915913 6.564055 
L 0.717033 5.365133 
L 0.717033 6.891026 
L 0.717033 6.891026 
C 0.717033 7.029722 0.661877 7.162879 0.563805 7.260952 
C 0.465732 7.359024 0.332575 7.41418 0.193879 7.41418 
L 0.193618 7.414054 
z
"/>
    </defs>
    <g clip-path="url(#pfac31ca494)">
     <use xlink:href="#m0810741267" x="140.895363" y="28.63643" style="fill: #9e2096; fill-opacity: 0.7"/>
    </g>
   </g>
   <g id="patch_163">
    <path d="M 125.254844 13.699062 
C 110.694216 13.699062 96.275171 16.567189 82.822905 22.1393 
C 69.370638 27.711411 57.146763 35.879144 46.850844 46.175063 
C 36.554925 56.470982 28.387192 68.694857 22.815081 82.147124 
C 17.24297 95.59939 14.374844 110.018434 14.374844 124.579063 
C 14.374844 139.139691 17.24297 153.558735 22.815081 167.011001 
C 28.387192 180.463268 36.554925 192.687143 46.850844 202.983062 
C 57.146763 213.278981 69.370638 221.446714 82.822905 227.018825 
C 96.275171 232.590936 110.694216 235.459063 125.254844 235.459063 
C 139.815472 235.459063 154.234516 232.590936 167.686783 227.018825 
C 181.139049 221.446714 193.362925 213.278981 203.658844 202.983062 
C 213.954763 192.687143 222.122495 180.463268 227.694606 167.011001 
C 233.266717 153.558735 236.134844 139.139691 236.134844 124.579062 
C 236.134844 110.018434 233.266717 95.59939 227.694606 82.147124 
C 222.122495 68.694857 213.954763 56.470982 203.658844 46.175063 
C 193.362925 35.879144 181.139049 27.711411 167.686783 22.1393 
C 154.234516 16.567189 139.815472 13.699062 125.254844 13.699062 
" style="fill: none; stroke: #000000; stroke-width: 0.8; stroke-linejoin: miter; stroke-linecap: square"/>
   </g>
  </g>
 </g>
 <defs>
  <clipPath id="pfac31ca494">
   <path d="M 236.134844 124.579063 
C 236.134844 110.018434 233.266717 95.59939 227.694606 82.147124 
C 222.122495 68.694857 213.954763 56.470982 203.658844 46.175063 
C 193.362925 35.879144 181.139049 27.711411 167.686783 22.1393 
C 154.234516 16.567189 139.815472 13.699062 125.254844 13.699062 
C 110.694216 13.699062 96.275171 16.567189 82.822905 22.1393 
C 69.370638 27.711411 57.146763 35.879144 46.850844 46.175063 
C 36.554925 56.470982 28.387192 68.694857 22.815081 82.147124 
C 17.24297 95.59939 14.374844 110.018434 14.374844 124.579062 
C 14.374844 139.139691 17.24297 153.558735 22.815081 167.011001 
C 28.387192 180.463268 36.554925 192.687143 46.850844 202.983062 
C 57.146763 213.278981 69.370638 221.446714 82.822905 227.018825 
C 96.275171 232.590936 110.694216 235.459063 125.254844 235.459063 
C 139.815472 235.459063 154.234516 232.590936 167.686783 227.018825 
C 181.139049 221.446714 193.362925 213.278981 203.658844 202.983062 
C 213.954763 192.687143 222.122495 180.463268 227.694606 167.011001 
C 233.266717 153.558735 236.134844 139.139691 236.134844 124.579063 
M 125.254844 124.579063 
C 125.254844 124.579063 125.254844 124.579063 125.254844 124.579063 
C 125.254844 124.579063 125.254844 124.579063 125.254844 124.579063 
C 125.254844 124.579063 125.254844 124.579063 125.254844 124.579063 
C 125.254844 124.579063 125.254844 124.579063 125.254844 124.579063 
C 125.254844 124.579063 125.254844 124.579063 125.254844 124.579063 
C 125.254844 124.579063 125.254844 124.579063 125.254844 124.579063 
C 125.254844 124.579063 125.254844 124.579063 125.254844 124.579063 
C 125.254844 124.579063 125.254844 124.579063 125.254844 124.579063 
C 125.254844 124.579063 125.254844 124.579063 125.254844 124.579063 
C 125.254844 124.579063 125.254844 124.579063 125.254844 124.579063 
C 125.254844 124.579063 125.254844 124.579063 125.254844 124.579063 
C 125.254844 124.579063 125.254844 124.579063 125.254844 124.579063 
C 125.254844 124.579063 125.254844 124.579063 125.254844 124.579063 
C 125.254844 124.579063 125.254844 124.579063 125.254844 124.579063 
C 125.254844 124.579063 125.254844 124.579063 125.254844 124.579063 
C 125.254844 124.579063 125.254844 124.579063 125.254844 124.579063 
z
"/>
  </clipPath>
 </defs>
</svg>
