<?xml version="1.0" encoding="utf-8" standalone="no"?>
<!DOCTYPE svg PUBLIC "-//W3C//DTD SVG 1.1//EN"
  "http://www.w3.org/Graphics/SVG/1.1/DTD/svg11.dtd">
<svg xmlns:xlink="http://www.w3.org/1999/xlink" width="248.410469pt" height="249.158125pt" viewBox="0 0 248.410469 249.158125" xmlns="http://www.w3.org/2000/svg" version="1.1">
 <title>Ski Rose for Aillon-le-Jeune</title>
 <metadata>
  <rdf:RDF xmlns:dc="http://purl.org/dc/elements/1.1/" xmlns:cc="http://creativecommons.org/ns#" xmlns:rdf="http://www.w3.org/1999/02/22-rdf-syntax-ns#">
   <cc:Work>
    <dc:type rdf:resource="http://purl.org/dc/dcmitype/StillImage"/>
    <dc:title>Ski Rose for Aillon-le-Jeune</dc:title>
    <dc:date>2026-05-30T11:05:42.407789</dc:date>
    <dc:description>A 32-bin stacked histogram of downhill ski run orientations colored by difficulty.</dc:description>
    <dc:format>image/svg+xml</dc:format>
    <dc:source>https://openskimap.org/?obj=a2535a9ac71bbb890ba3cf431e90f71dbf525558</dc:source>
    <dc:creator>
     <cc:Agent>
      <dc:title>https://github.com/dhimmel/openskistats</dc:title>
     </cc:Agent>
    </dc:creator>
    <dc:rights>
     <cc:Agent>
      <dc:title>https://creativecommons.org/licenses/by/4.0/</dc:title>
     </cc:Agent>
    </dc:rights>
   </cc:Work>
  </rdf:RDF>
 </metadata>
 <defs>
  <style type="text/css">*{stroke-linejoin: round; stroke-linecap: butt}</style>
 </defs>
 <g id="figure_1">
  <g id="patch_1">
   <path d="M 0 249.158125 
L 248.410469 249.158125 
L 248.410469 0 
L 0 0 
z
" style="fill: #ffffff"/>
  </g>
  <g id="axes_1">
   <g id="patch_2">
    <path d="M 236.134844 124.579063 
C 236.134844 110.018434 233.266717 95.59939 227.694606 82.147124 
C 222.122495 68.694857 213.954763 56.470982 203.658844 46.175063 
C 193.362925 35.879144 181.139049 27.711411 167.686783 22.1393 
C 154.234516 16.567189 139.815472 13.699063 125.254844 13.699063 
C 110.694216 13.699063 96.275171 16.567189 82.822905 22.1393 
C 69.370638 27.711411 57.146763 35.879144 46.850844 46.175063 
C 36.554925 56.470982 28.387192 68.694857 22.815081 82.147124 
C 17.24297 95.59939 14.374844 110.018434 14.374844 124.579062 
C 14.374844 139.139691 17.24297 153.558735 22.815081 167.011001 
C 28.387192 180.463268 36.554925 192.687143 46.850844 202.983062 
C 57.146763 213.278981 69.370638 221.446714 82.822905 227.018825 
C 96.275171 232.590936 110.694216 235.459063 125.254844 235.459063 
C 139.815472 235.459063 154.234516 232.590936 167.686783 227.018825 
C 181.139049 221.446714 193.362925 213.278981 203.658844 202.983062 
C 213.954763 192.687143 222.122495 180.463268 227.694606 167.011001 
C 233.266717 153.558735 236.134844 139.139691 236.134844 124.579063 
M 125.254844 124.579063 
C 125.254844 124.579063 125.254844 124.579063 125.254844 124.579063 
C 125.254844 124.579063 125.254844 124.579063 125.254844 124.579063 
C 125.254844 124.579063 125.254844 124.579063 125.254844 124.579063 
C 125.254844 124.579063 125.254844 124.579063 125.254844 124.579063 
C 125.254844 124.579063 125.254844 124.579063 125.254844 124.579063 
C 125.254844 124.579063 125.254844 124.579063 125.254844 124.579063 
C 125.254844 124.579063 125.254844 124.579063 125.254844 124.579063 
C 125.254844 124.579063 125.254844 124.579063 125.254844 124.579063 
C 125.254844 124.579063 125.254844 124.579063 125.254844 124.579063 
C 125.254844 124.579063 125.254844 124.579063 125.254844 124.579063 
C 125.254844 124.579063 125.254844 124.579063 125.254844 124.579063 
C 125.254844 124.579063 125.254844 124.579063 125.254844 124.579063 
C 125.254844 124.579063 125.254844 124.579063 125.254844 124.579063 
C 125.254844 124.579063 125.254844 124.579063 125.254844 124.579063 
C 125.254844 124.579063 125.254844 124.579063 125.254844 124.579063 
C 125.254844 124.579063 125.254844 124.579063 125.254844 124.579063 
z
" style="fill: #ffffff"/>
   </g>
   <g id="FillBetweenPolyCollection_1">
    <defs>
     <path id="m32bddb87db" d="M 235.32043 -137.119452 
L 234.953215 -137.077613 
L 234.010963 -135.051086 
L 233.183543 -133.073235 
L 232.090643 -131.11342 
L 230.941219 -129.193429 
L 229.955242 -127.320739 
L 228.718052 -125.481972 
L 227.443052 -123.68728 
L 226.34686 -121.931875 
L 225.005912 -120.223837 
L 223.848712 -118.548803 
L 222.450698 -116.929583 
L 221.239725 -115.33677 
L 219.792221 -113.807889 
L 218.534002 -112.298628 
L 217.044003 -110.861081 
L 215.744741 -109.436247 
L 214.42663 -108.052049 
L 212.884697 -106.750567 
L 211.534426 -105.45134 
L 210.169496 -104.192858 
L 208.791248 -102.97508 
L 207.401014 -101.797913 
L 206.000123 -100.661221 
L 204.589895 -99.564817 
L 203.171643 -98.508466 
L 201.746671 -97.491886 
L 200.316274 -96.514744 
L 198.881739 -95.576657 
L 197.444338 -94.677195 
L 196.185977 -93.737328 
L 194.743697 -92.911168 
L 193.47719 -92.038672 
L 192.034515 -91.283947 
L 190.763887 -90.477213 
L 189.325182 -89.791707 
L 188.054337 -89.048819 
L 186.78323 -88.336073 
L 185.356531 -87.748701 
L 184.090716 -87.096478 
L 182.827184 -86.472762 
L 181.566717 -85.876984 
L 180.310078 -85.308545 
L 179.058009 -84.766815 
L 177.811226 -84.251132 
L 176.570422 -83.760808 
L 175.464029 -83.189804 
L 174.233336 -82.747478 
L 173.010492 -82.328434 
L 171.796081 -81.931876 
L 170.703391 -81.450002 
L 169.5035 -81.096029 
L 168.418855 -80.655046 
L 167.23533 -80.340861 
L 166.160378 -79.938505 
L 164.994838 -79.661171 
L 163.931029 -79.295068 
L 162.871516 -78.946391 
L 161.733425 -78.719201 
L 160.686838 -78.403189 
L 159.645332 -78.102985 
L 158.609126 -77.818084 
L 157.509677 -77.647989 
L 156.488042 -77.390848 
L 155.472193 -77.147325 
L 154.462254 -76.9169 
L 153.458324 -76.699054 
L 152.460478 -76.493266 
L 151.468768 -76.299021 
L 150.48322 -76.115802 
L 149.50384 -75.9431 
L 148.530607 -75.78041 
L 147.563477 -75.627235 
L 146.602383 -75.483084 
L 145.678454 -75.272106 
L 144.726466 -75.147469 
L 143.780268 -75.030564 
L 142.839706 -74.920944 
L 141.904604 -74.818173 
L 140.993997 -74.660846 
L 140.06703 -74.573959 
L 139.144991 -74.492811 
L 138.227627 -74.417032 
L 137.3262 -74.298243 
L 136.415646 -74.235939 
L 135.509037 -74.178092 
L 134.606061 -74.12441 
L 133.712057 -74.040747 
L 132.814137 -73.998649 
L 131.918964 -73.960043 
L 131.0288 -73.901698 
L 130.137218 -73.873671 
L 129.247413 -73.848658 
L 128.359727 -73.814672 
L 127.471924 -73.799586 
L 126.585 -73.782457 
L 125.698186 -73.777074 
L 124.811506 -73.777596 
L 123.924783 -73.786107 
L 123.038014 -73.805316 
L 122.150502 -73.823516 
L 121.261948 -73.844517 
L 120.373817 -73.88766 
L 119.48283 -73.918745 
L 118.589792 -73.952966 
L 117.698847 -74.02071 
L 116.801818 -74.065775 
L 115.901793 -74.114515 
L 115.006723 -74.207938 
L 114.101289 -74.268627 
L 113.192004 -74.33372 
L 112.278568 -74.403526 
L 111.375771 -74.532744 
L 110.455262 -74.616512 
L 109.529913 -74.705953 
L 108.599489 -74.801453 
L 107.687371 -74.970049 
L 106.748657 -75.082018 
L 105.804384 -75.201193 
L 104.854394 -75.32802 
L 103.898554 -75.462958 
L 102.936752 -75.606479 
L 102.008258 -75.841582 
L 101.037274 -76.006132 
L 100.060201 -76.180604 
L 99.077015 -76.3655 
L 98.087718 -76.56133 
L 97.092333 -76.768607 
L 96.090909 -76.987846 
L 95.083518 -77.219568 
L 94.070256 -77.46429 
L 92.982948 -77.623162 
L 91.954897 -77.894259 
L 90.921379 -78.180048 
L 89.882587 -78.48104 
L 88.838737 -78.797742 
L 87.703865 -79.026082 
L 86.647128 -79.375236 
L 85.586112 -79.741717 
L 84.423839 -80.01984 
L 83.351702 -80.422365 
L 82.171463 -80.737095 
L 81.089643 -81.178041 
L 79.893044 -81.532322 
L 78.80318 -82.013955 
L 77.592056 -82.41059 
L 76.372491 -82.829589 
L 75.145067 -83.27175 
L 74.041474 -83.842109 
L 72.803915 -84.332049 
L 71.56036 -84.847235 
L 70.3115 -85.388356 
L 69.058051 -85.956077 
L 67.800751 -86.551028 
L 66.540361 -87.173812 
L 65.277663 -87.824999 
L 63.854495 -88.411493 
L 62.586448 -89.12299 
L 61.318633 -89.864532 
L 59.88336 -90.548822 
L 58.615696 -91.354009 
L 57.176381 -92.107302 
L 55.91277 -92.978059 
L 54.473775 -93.802578 
L 53.218237 -94.740523 
L 51.784044 -95.638145 
L 50.352676 -96.574289 
L 48.925406 -97.549391 
L 47.503518 -98.563833 
L 46.283357 -99.679448 
L 44.878228 -100.770424 
L 43.482269 -101.901521 
L 41.895826 -103.020955 
L 40.520446 -104.236134 
L 39.15834 -105.491927 
L 37.810845 -106.78838 
L 36.479308 -108.125489 
L 34.956626 -109.468323 
L 33.659992 -110.89012 
L 32.383524 -112.352321 
L 30.917273 -113.830654 
L 29.684648 -115.376699 
L 28.264024 -116.945719 
L 27.081529 -118.574525 
L 25.713679 -120.233001 
L 24.588021 -121.943009 
L 23.280854 -123.689149 
L 22.007835 -125.480085 
L 20.982889 -127.30952 
L 19.787013 -129.183887 
L 18.844105 -131.087422 
L 17.745226 -133.040253 
L 16.711725 -135.030576 
L 15.94918 -137.03287 
L 15.154685 -137.123391 
L 15.154685 -137.123391 
L 14.897416 -135.205274 
L 14.743822 -133.276469 
L 14.735628 -131.338707 
L 14.520386 -129.413833 
L 14.52113 -127.478727 
L 14.429047 -125.546225 
L 14.49499 -123.612476 
L 14.469031 -121.678034 
L 14.538001 -119.745061 
L 14.698084 -117.817121 
L 14.769757 -115.883698 
L 14.992358 -113.961993 
L 15.129232 -112.031834 
L 15.345976 -110.109286 
L 15.657936 -108.199695 
L 16.069932 -106.307774 
L 16.263837 -104.378773 
L 16.665931 -102.486398 
L 17.097276 -100.601107 
L 17.458508 -98.699452 
L 17.950896 -96.828375 
L 18.472693 -94.965751 
L 18.947798 -93.089481 
L 19.528266 -91.243601 
L 20.138614 -89.407664 
L 20.778997 -87.582225 
L 21.449615 -85.767878 
L 22.150738 -83.965275 
L 22.882732 -82.175145 
L 23.573324 -80.36668 
L 24.370452 -78.603396 
L 25.200542 -76.855609 
L 26.064249 -75.124456 
L 26.962213 -73.411158 
L 27.838656 -71.686388 
L 28.76174 -69.985891 
L 29.73386 -68.312903 
L 30.727075 -66.652371 
L 31.742683 -65.005246 
L 32.798835 -63.383765 
L 33.906347 -61.79698 
L 35.707603 -60.705637 
L 37.533357 -59.668577 
L 39.382841 -58.687157 
L 41.240562 -57.751085 
L 43.107901 -56.862348 
L 44.973142 -56.012011 
L 46.779518 -55.149959 
L 48.64533 -54.379377 
L 50.447845 -53.589871 
L 52.29975 -52.886292 
L 54.09313 -52.164376 
L 55.881322 -51.474624 
L 57.663514 -50.81607 
L 59.438978 -50.187759 
L 61.207058 -49.58874 
L 62.967164 -49.018065 
L 64.718766 -48.474782 
L 66.461387 -47.957938 
L 68.158107 -47.417251 
L 69.883335 -46.95107 
L 71.561913 -46.455363 
L 73.268446 -46.036183 
L 74.934726 -45.592299 
L 76.62152 -45.21669 
L 78.267747 -44.810801 
L 79.90949 -44.43142 
L 81.540112 -44.066542 
L 83.165886 -43.726927 
L 84.780522 -43.400132 
L 86.390073 -43.097375 
L 87.988619 -42.805795 
L 89.563214 -42.493934 
L 91.149928 -42.242512 
L 92.726073 -41.999967 
L 94.282341 -41.739341 
L 95.846891 -41.533566 
L 97.40161 -41.334521 
L 98.940369 -41.120211 
L 100.484217 -40.954829 
L 102.012375 -40.769428 
L 103.536007 -40.598554 
L 105.060471 -40.463446 
L 106.574806 -40.318858 
L 108.085223 -40.18768 
L 109.596356 -40.093424 
L 111.098897 -39.98646 
L 112.598276 -39.891987 
L 114.094753 -39.809757 
L 115.589638 -39.74864 
L 117.080806 -39.688433 
L 118.569983 -39.639857 
L 120.057471 -39.602767 
L 121.543575 -39.577043 
L 123.028794 -39.569637 
L 124.512917 -39.562714 
L 125.99679 -39.560464 
L 127.48102 -39.564819 
L 128.965966 -39.580378 
L 130.451945 -39.607207 
L 131.939676 -39.640219 
L 133.428915 -39.688084 
L 134.92017 -39.747585 
L 136.413732 -39.818893 
L 137.909885 -39.902207 
L 139.412633 -39.975448 
L 140.915491 -40.081771 
L 142.421781 -40.20087 
L 143.931737 -40.33304 
L 145.450649 -40.45748 
L 146.96938 -40.615181 
L 148.501419 -40.754621 
L 150.030019 -40.939473 
L 151.563309 -41.139271 
L 153.111145 -41.325354 
L 154.668833 -41.51652 
L 156.219211 -41.761101 
L 157.787929 -41.989015 
L 159.349843 -42.266452 
L 160.935962 -42.518109 
L 162.526792 -42.793236 
L 164.129076 -43.07754 
L 165.735931 -43.386563 
L 167.354533 -43.706311 
L 168.97744 -44.052057 
L 170.612244 -44.410129 
L 172.250955 -44.795497 
L 173.901564 -45.194831 
L 175.555551 -45.622768 
L 177.252094 -46.019787 
L 178.92674 -46.485968 
L 180.64259 -46.928306 
L 182.327845 -47.449328 
L 184.061733 -47.940433 
L 185.805028 -48.457048 
L 187.516116 -49.050099 
L 189.275122 -49.620947 
L 191.042106 -50.22009 
L 192.816479 -50.848475 
L 194.597591 -51.507054 
L 196.4347 -52.145914 
L 198.228733 -52.867822 
L 200.027022 -53.622914 
L 201.889164 -54.356646 
L 203.694236 -55.18175 
L 205.557808 -55.993852 
L 207.428315 -56.84048 
L 209.291389 -57.733376 
L 211.154028 -58.6663 
L 212.999026 -59.651783 
L 214.828958 -60.686468 
L 216.62564 -61.781654 
L 217.713708 -63.381875 
L 218.759835 -65.009813 
L 219.783626 -66.65175 
L 220.778019 -68.311612 
L 221.709288 -70.007764 
L 222.679377 -71.681857 
L 223.527414 -73.4216 
L 224.406419 -75.143911 
L 225.241069 -76.88808 
L 226.124294 -78.610206 
L 226.877488 -80.392279 
L 227.659404 -82.161705 
L 228.371213 -83.960444 
L 229.088787 -85.757142 
L 229.759638 -87.571974 
L 230.383938 -89.40336 
L 230.961896 -91.249757 
L 231.493774 -93.109658 
L 232.090396 -94.950942 
L 232.538324 -96.833668 
L 233.06192 -98.696873 
L 233.474727 -100.587292 
L 233.790064 -102.497322 
L 234.240172 -104.379826 
L 234.613765 -106.278655 
L 234.838452 -108.201682 
L 235.138075 -110.112661 
L 235.402768 -112.029292 
L 235.500965 -113.963568 
L 235.715489 -115.885621 
L 235.871859 -117.813436 
L 236.013384 -119.74324 
L 235.93409 -121.680824 
L 236.003142 -123.612577 
L 236.037053 -125.545844 
L 236.019961 -127.479549 
L 235.985628 -129.413673 
L 235.91795 -131.347508 
L 235.634586 -133.266137 
L 235.503143 -135.194766 
L 235.32043 -137.119452 
z
" style="stroke: #ffee9c"/>
    </defs>
    <g clip-path="url(#p0c886311f2)">
     <use xlink:href="#m32bddb87db" x="0" y="249.158125" style="fill: #ffee9c; stroke: #ffee9c"/>
    </g>
   </g>
   <g id="matplotlib.axis_1">
    <g id="xtick_1">
     <g id="line2d_1">
      <path d="M 125.254844 124.579063 
L 125.254844 13.699063 
" clip-path="url(#p0c886311f2)" style="fill: none; stroke: #b0b0b0; stroke-width: 0.8; stroke-linecap: square"/>
     </g>
     <g id="text_1">
      <!-- N -->
      <g transform="translate(121.070469 7.958438) scale(0.1 -0.1)">
       <defs>
        <path id="DejaVuSans-Bold-4e" d="M 588 4666 
L 1931 4666 
L 3628 1466 
L 3628 4666 
L 4769 4666 
L 4769 0 
L 3425 0 
L 1728 3200 
L 1728 0 
L 588 0 
L 588 4666 
z
" transform="scale(0.015625)"/>
       </defs>
       <use xlink:href="#DejaVuSans-Bold-4e"/>
      </g>
     </g>
    </g>
    <g id="xtick_2">
     <g id="line2d_2">
      <path d="M 125.254844 124.579063 
L 203.658844 46.175063 
" clip-path="url(#p0c886311f2)" style="fill: none; stroke: #b0b0b0; stroke-width: 0.8; stroke-linecap: square"/>
     </g>
    </g>
    <g id="xtick_3">
     <g id="line2d_3">
      <path d="M 125.254844 124.579063 
L 236.134844 124.579063 
" clip-path="url(#p0c886311f2)" style="fill: none; stroke: #b0b0b0; stroke-width: 0.8; stroke-linecap: square"/>
     </g>
     <g id="text_2">
      <!-- E -->
      <g transform="translate(241.219219 127.338438) scale(0.1 -0.1)">
       <defs>
        <path id="DejaVuSans-Bold-45" d="M 588 4666 
L 3834 4666 
L 3834 3756 
L 1791 3756 
L 1791 2888 
L 3713 2888 
L 3713 1978 
L 1791 1978 
L 1791 909 
L 3903 909 
L 3903 0 
L 588 0 
L 588 4666 
z
" transform="scale(0.015625)"/>
       </defs>
       <use xlink:href="#DejaVuSans-Bold-45"/>
      </g>
     </g>
    </g>
    <g id="xtick_4">
     <g id="line2d_4">
      <path d="M 125.254844 124.579063 
L 203.658844 202.983062 
" clip-path="url(#p0c886311f2)" style="fill: none; stroke: #b0b0b0; stroke-width: 0.8; stroke-linecap: square"/>
     </g>
    </g>
    <g id="xtick_5">
     <g id="line2d_5">
      <path d="M 125.254844 124.579063 
L 125.254844 235.459063 
" clip-path="url(#p0c886311f2)" style="fill: none; stroke: #b0b0b0; stroke-width: 0.8; stroke-linecap: square"/>
     </g>
     <g id="text_3">
      <!-- S -->
      <g transform="translate(121.654062 246.718438) scale(0.1 -0.1)">
       <defs>
        <path id="DejaVuSans-Bold-53" d="M 3834 4519 
L 3834 3531 
Q 3450 3703 3084 3790 
Q 2719 3878 2394 3878 
Q 1963 3878 1756 3759 
Q 1550 3641 1550 3391 
Q 1550 3203 1689 3098 
Q 1828 2994 2194 2919 
L 2706 2816 
Q 3484 2659 3812 2340 
Q 4141 2022 4141 1434 
Q 4141 663 3683 286 
Q 3225 -91 2284 -91 
Q 1841 -91 1394 -6 
Q 947 78 500 244 
L 500 1259 
Q 947 1022 1364 901 
Q 1781 781 2169 781 
Q 2563 781 2772 912 
Q 2981 1044 2981 1288 
Q 2981 1506 2839 1625 
Q 2697 1744 2272 1838 
L 1806 1941 
Q 1106 2091 782 2419 
Q 459 2747 459 3303 
Q 459 4000 909 4375 
Q 1359 4750 2203 4750 
Q 2588 4750 2994 4692 
Q 3400 4634 3834 4519 
z
" transform="scale(0.015625)"/>
       </defs>
       <use xlink:href="#DejaVuSans-Bold-53"/>
      </g>
     </g>
    </g>
    <g id="xtick_6">
     <g id="line2d_6">
      <path d="M 125.254844 124.579063 
L 46.850844 202.983062 
" clip-path="url(#p0c886311f2)" style="fill: none; stroke: #b0b0b0; stroke-width: 0.8; stroke-linecap: square"/>
     </g>
    </g>
    <g id="xtick_7">
     <g id="line2d_7">
      <path d="M 125.254844 124.579063 
L 14.374844 124.579063 
" clip-path="url(#p0c886311f2)" style="fill: none; stroke: #b0b0b0; stroke-width: 0.8; stroke-linecap: square"/>
     </g>
     <g id="text_4">
      <!-- W -->
      <g transform="translate(0.36 127.338438) scale(0.1 -0.1)">
       <defs>
        <path id="DejaVuSans-Bold-57" d="M 191 4666 
L 1344 4666 
L 2150 1275 
L 2950 4666 
L 4109 4666 
L 4909 1275 
L 5716 4666 
L 6859 4666 
L 5759 0 
L 4372 0 
L 3525 3547 
L 2688 0 
L 1300 0 
L 191 4666 
z
" transform="scale(0.015625)"/>
       </defs>
       <use xlink:href="#DejaVuSans-Bold-57"/>
      </g>
     </g>
    </g>
    <g id="xtick_8">
     <g id="line2d_8">
      <path d="M 125.254844 124.579063 
L 46.850844 46.175063 
" clip-path="url(#p0c886311f2)" style="fill: none; stroke: #b0b0b0; stroke-width: 0.8; stroke-linecap: square"/>
     </g>
    </g>
   </g>
   <g id="matplotlib.axis_2"/>
   <g id="patch_3">
    <path d="M 125.254844 124.579063 
C 125.254844 124.579063 125.254844 124.579063 125.254844 124.579063 
C 125.254844 124.579063 125.254844 124.579063 125.254844 124.579063 
L 125.254844 124.579063 
C 125.254844 124.579063 125.254844 124.579063 125.254844 124.579063 
C 125.254844 124.579063 125.254844 124.579063 125.254844 124.579063 
z
" clip-path="url(#p0c886311f2)" style="fill: #d9d9d9"/>
   </g>
   <g id="patch_4">
    <path d="M 125.254844 124.579063 
C 125.254844 124.579063 125.254844 124.579063 125.254844 124.579063 
C 125.254844 124.579063 125.254844 124.579063 125.254844 124.579063 
L 127.571698 116.941418 
C 127.321706 116.865584 127.068142 116.802069 126.811922 116.751104 
C 126.555701 116.700139 126.297132 116.661784 126.03715 116.636177 
z
" clip-path="url(#p0c886311f2)" style="fill: #d9d9d9"/>
   </g>
   <g id="patch_5">
    <path d="M 125.254844 124.579063 
C 125.254844 124.579063 125.254844 124.579063 125.254844 124.579063 
C 125.254844 124.579063 125.254844 124.579063 125.254844 124.579063 
L 125.254844 124.579063 
C 125.254844 124.579063 125.254844 124.579063 125.254844 124.579063 
C 125.254844 124.579063 125.254844 124.579063 125.254844 124.579063 
z
" clip-path="url(#p0c886311f2)" style="fill: #d9d9d9"/>
   </g>
   <g id="patch_6">
    <path d="M 125.254844 124.579063 
C 125.254844 124.579063 125.254844 124.579063 125.254844 124.579063 
C 125.254844 124.579063 125.254844 124.579063 125.254844 124.579063 
L 125.254844 124.579063 
C 125.254844 124.579063 125.254844 124.579063 125.254844 124.579063 
C 125.254844 124.579063 125.254844 124.579063 125.254844 124.579063 
z
" clip-path="url(#p0c886311f2)" style="fill: #d9d9d9"/>
   </g>
   <g id="patch_7">
    <path d="M 125.254844 124.579063 
C 125.254844 124.579063 125.254844 124.579063 125.254844 124.579063 
C 125.254844 124.579063 125.254844 124.579063 125.254844 124.579063 
L 125.254844 124.579063 
C 125.254844 124.579063 125.254844 124.579063 125.254844 124.579063 
C 125.254844 124.579063 125.254844 124.579063 125.254844 124.579063 
z
" clip-path="url(#p0c886311f2)" style="fill: #d9d9d9"/>
   </g>
   <g id="patch_8">
    <path d="M 125.254844 124.579063 
C 125.254844 124.579063 125.254844 124.579063 125.254844 124.579063 
C 125.254844 124.579063 125.254844 124.579063 125.254844 124.579063 
L 125.254844 124.579063 
C 125.254844 124.579063 125.254844 124.579063 125.254844 124.579063 
C 125.254844 124.579063 125.254844 124.579063 125.254844 124.579063 
z
" clip-path="url(#p0c886311f2)" style="fill: #d9d9d9"/>
   </g>
   <g id="patch_9">
    <path d="M 125.254844 124.579063 
C 125.254844 124.579063 125.254844 124.579063 125.254844 124.579063 
C 125.254844 124.579063 125.254844 124.579063 125.254844 124.579063 
L 132.892488 122.262208 
C 132.816654 122.012217 132.728592 121.766099 132.628619 121.524745 
C 132.528647 121.28339 132.416885 121.047089 132.293737 120.816696 
z
" clip-path="url(#p0c886311f2)" style="fill: #d9d9d9"/>
   </g>
   <g id="patch_10">
    <path d="M 125.254844 124.579063 
C 125.254844 124.579063 125.254844 124.579063 125.254844 124.579063 
C 125.254844 124.579063 125.254844 124.579063 125.254844 124.579063 
L 125.254844 124.579063 
C 125.254844 124.579063 125.254844 124.579063 125.254844 124.579063 
C 125.254844 124.579063 125.254844 124.579063 125.254844 124.579063 
z
" clip-path="url(#p0c886311f2)" style="fill: #d9d9d9"/>
   </g>
   <g id="patch_11">
    <path d="M 125.254844 124.579063 
C 125.254844 124.579063 125.254844 124.579063 125.254844 124.579063 
C 125.254844 124.579063 125.254844 124.579063 125.254844 124.579063 
L 125.254844 124.579063 
C 125.254844 124.579063 125.254844 124.579063 125.254844 124.579063 
C 125.254844 124.579063 125.254844 124.579063 125.254844 124.579063 
z
" clip-path="url(#p0c886311f2)" style="fill: #d9d9d9"/>
   </g>
   <g id="patch_12">
    <path d="M 125.254844 124.579063 
C 125.254844 124.579063 125.254844 124.579063 125.254844 124.579063 
C 125.254844 124.579063 125.254844 124.579063 125.254844 124.579063 
L 125.254844 124.579063 
C 125.254844 124.579063 125.254844 124.579063 125.254844 124.579063 
C 125.254844 124.579063 125.254844 124.579063 125.254844 124.579063 
z
" clip-path="url(#p0c886311f2)" style="fill: #d9d9d9"/>
   </g>
   <g id="patch_13">
    <path d="M 125.254844 124.579063 
C 125.254844 124.579063 125.254844 124.579063 125.254844 124.579063 
C 125.254844 124.579063 125.254844 124.579063 125.254844 124.579063 
L 125.254844 124.579063 
C 125.254844 124.579063 125.254844 124.579063 125.254844 124.579063 
C 125.254844 124.579063 125.254844 124.579063 125.254844 124.579063 
z
" clip-path="url(#p0c886311f2)" style="fill: #d9d9d9"/>
   </g>
   <g id="patch_14">
    <path d="M 125.254844 124.579063 
C 125.254844 124.579063 125.254844 124.579063 125.254844 124.579063 
C 125.254844 124.579063 125.254844 124.579063 125.254844 124.579063 
L 125.254844 124.579063 
C 125.254844 124.579063 125.254844 124.579063 125.254844 124.579063 
C 125.254844 124.579063 125.254844 124.579063 125.254844 124.579063 
z
" clip-path="url(#p0c886311f2)" style="fill: #d9d9d9"/>
   </g>
   <g id="patch_15">
    <path d="M 125.254844 124.579063 
C 125.254844 124.579063 125.254844 124.579063 125.254844 124.579063 
C 125.254844 124.579063 125.254844 124.579063 125.254844 124.579063 
L 125.254844 124.579063 
C 125.254844 124.579063 125.254844 124.579063 125.254844 124.579063 
C 125.254844 124.579063 125.254844 124.579063 125.254844 124.579063 
z
" clip-path="url(#p0c886311f2)" style="fill: #d9d9d9"/>
   </g>
   <g id="patch_16">
    <path d="M 125.254844 124.579063 
C 125.254844 124.579063 125.254844 124.579063 125.254844 124.579063 
C 125.254844 124.579063 125.254844 124.579063 125.254844 124.579063 
L 125.254844 124.579063 
C 125.254844 124.579063 125.254844 124.579063 125.254844 124.579063 
C 125.254844 124.579063 125.254844 124.579063 125.254844 124.579063 
z
" clip-path="url(#p0c886311f2)" style="fill: #d9d9d9"/>
   </g>
   <g id="patch_17">
    <path d="M 125.254844 124.579063 
C 125.254844 124.579063 125.254844 124.579063 125.254844 124.579063 
C 125.254844 124.579063 125.254844 124.579063 125.254844 124.579063 
L 125.254844 124.579063 
C 125.254844 124.579063 125.254844 124.579063 125.254844 124.579063 
C 125.254844 124.579063 125.254844 124.579063 125.254844 124.579063 
z
" clip-path="url(#p0c886311f2)" style="fill: #d9d9d9"/>
   </g>
   <g id="patch_18">
    <path d="M 125.254844 124.579063 
C 125.254844 124.579063 125.254844 124.579063 125.254844 124.579063 
C 125.254844 124.579063 125.254844 124.579063 125.254844 124.579063 
L 125.254844 124.579063 
C 125.254844 124.579063 125.254844 124.579063 125.254844 124.579063 
C 125.254844 124.579063 125.254844 124.579063 125.254844 124.579063 
z
" clip-path="url(#p0c886311f2)" style="fill: #d9d9d9"/>
   </g>
   <g id="patch_19">
    <path d="M 125.254844 124.579063 
C 125.254844 124.579063 125.254844 124.579063 125.254844 124.579063 
C 125.254844 124.579063 125.254844 124.579063 125.254844 124.579063 
L 125.254844 124.579063 
C 125.254844 124.579063 125.254844 124.579063 125.254844 124.579063 
C 125.254844 124.579063 125.254844 124.579063 125.254844 124.579063 
z
" clip-path="url(#p0c886311f2)" style="fill: #d9d9d9"/>
   </g>
   <g id="patch_20">
    <path d="M 125.254844 124.579063 
C 125.254844 124.579063 125.254844 124.579063 125.254844 124.579063 
C 125.254844 124.579063 125.254844 124.579063 125.254844 124.579063 
L 125.254844 124.579063 
C 125.254844 124.579063 125.254844 124.579063 125.254844 124.579063 
C 125.254844 124.579063 125.254844 124.579063 125.254844 124.579063 
z
" clip-path="url(#p0c886311f2)" style="fill: #d9d9d9"/>
   </g>
   <g id="patch_21">
    <path d="M 125.254844 124.579063 
C 125.254844 124.579063 125.254844 124.579063 125.254844 124.579063 
C 125.254844 124.579063 125.254844 124.579063 125.254844 124.579063 
L 125.254844 124.579063 
C 125.254844 124.579063 125.254844 124.579063 125.254844 124.579063 
C 125.254844 124.579063 125.254844 124.579063 125.254844 124.579063 
z
" clip-path="url(#p0c886311f2)" style="fill: #d9d9d9"/>
   </g>
   <g id="patch_22">
    <path d="M 125.254844 124.579063 
C 125.254844 124.579063 125.254844 124.579063 125.254844 124.579063 
C 125.254844 124.579063 125.254844 124.579063 125.254844 124.579063 
L 125.254844 124.579063 
C 125.254844 124.579063 125.254844 124.579063 125.254844 124.579063 
C 125.254844 124.579063 125.254844 124.579063 125.254844 124.579063 
z
" clip-path="url(#p0c886311f2)" style="fill: #d9d9d9"/>
   </g>
   <g id="patch_23">
    <path d="M 125.254844 124.579063 
C 125.254844 124.579063 125.254844 124.579063 125.254844 124.579063 
C 125.254844 124.579063 125.254844 124.579063 125.254844 124.579063 
L 125.254844 124.579063 
C 125.254844 124.579063 125.254844 124.579063 125.254844 124.579063 
C 125.254844 124.579063 125.254844 124.579063 125.254844 124.579063 
z
" clip-path="url(#p0c886311f2)" style="fill: #d9d9d9"/>
   </g>
   <g id="patch_24">
    <path d="M 125.254844 124.579063 
C 125.254844 124.579063 125.254844 124.579063 125.254844 124.579063 
C 125.254844 124.579063 125.254844 124.579063 125.254844 124.579063 
L 125.254844 124.579063 
C 125.254844 124.579063 125.254844 124.579063 125.254844 124.579063 
C 125.254844 124.579063 125.254844 124.579063 125.254844 124.579063 
z
" clip-path="url(#p0c886311f2)" style="fill: #d9d9d9"/>
   </g>
   <g id="patch_25">
    <path d="M 125.254844 124.579063 
C 125.254844 124.579063 125.254844 124.579063 125.254844 124.579063 
C 125.254844 124.579063 125.254844 124.579063 125.254844 124.579063 
L 125.254844 124.579063 
C 125.254844 124.579063 125.254844 124.579063 125.254844 124.579063 
C 125.254844 124.579063 125.254844 124.579063 125.254844 124.579063 
z
" clip-path="url(#p0c886311f2)" style="fill: #d9d9d9"/>
   </g>
   <g id="patch_26">
    <path d="M 125.254844 124.579063 
C 125.254844 124.579063 125.254844 124.579063 125.254844 124.579063 
C 125.254844 124.579063 125.254844 124.579063 125.254844 124.579063 
L 125.254844 124.579063 
C 125.254844 124.579063 125.254844 124.579063 125.254844 124.579063 
C 125.254844 124.579063 125.254844 124.579063 125.254844 124.579063 
z
" clip-path="url(#p0c886311f2)" style="fill: #d9d9d9"/>
   </g>
   <g id="patch_27">
    <path d="M 125.254844 124.579063 
C 125.254844 124.579063 125.254844 124.579063 125.254844 124.579063 
C 125.254844 124.579063 125.254844 124.579063 125.254844 124.579063 
L 125.254844 124.579063 
C 125.254844 124.579063 125.254844 124.579063 125.254844 124.579063 
C 125.254844 124.579063 125.254844 124.579063 125.254844 124.579063 
z
" clip-path="url(#p0c886311f2)" style="fill: #d9d9d9"/>
   </g>
   <g id="patch_28">
    <path d="M 125.254844 124.579063 
C 125.254844 124.579063 125.254844 124.579063 125.254844 124.579063 
C 125.254844 124.579063 125.254844 124.579063 125.254844 124.579063 
L 125.254844 124.579063 
C 125.254844 124.579063 125.254844 124.579063 125.254844 124.579063 
C 125.254844 124.579063 125.254844 124.579063 125.254844 124.579063 
z
" clip-path="url(#p0c886311f2)" style="fill: #d9d9d9"/>
   </g>
   <g id="patch_29">
    <path d="M 125.254844 124.579063 
C 125.254844 124.579063 125.254844 124.579063 125.254844 124.579063 
C 125.254844 124.579063 125.254844 124.579063 125.254844 124.579063 
L 125.254844 124.579063 
C 125.254844 124.579063 125.254844 124.579063 125.254844 124.579063 
C 125.254844 124.579063 125.254844 124.579063 125.254844 124.579063 
z
" clip-path="url(#p0c886311f2)" style="fill: #d9d9d9"/>
   </g>
   <g id="patch_30">
    <path d="M 125.254844 124.579063 
C 125.254844 124.579063 125.254844 124.579063 125.254844 124.579063 
C 125.254844 124.579063 125.254844 124.579063 125.254844 124.579063 
L 125.254844 124.579063 
C 125.254844 124.579063 125.254844 124.579063 125.254844 124.579063 
C 125.254844 124.579063 125.254844 124.579063 125.254844 124.579063 
z
" clip-path="url(#p0c886311f2)" style="fill: #d9d9d9"/>
   </g>
   <g id="patch_31">
    <path d="M 125.254844 124.579063 
C 125.254844 124.579063 125.254844 124.579063 125.254844 124.579063 
C 125.254844 124.579063 125.254844 124.579063 125.254844 124.579063 
L 125.254844 124.579063 
C 125.254844 124.579063 125.254844 124.579063 125.254844 124.579063 
C 125.254844 124.579063 125.254844 124.579063 125.254844 124.579063 
z
" clip-path="url(#p0c886311f2)" style="fill: #d9d9d9"/>
   </g>
   <g id="patch_32">
    <path d="M 125.254844 124.579063 
C 125.254844 124.579063 125.254844 124.579063 125.254844 124.579063 
C 125.254844 124.579063 125.254844 124.579063 125.254844 124.579063 
L 125.254844 124.579063 
C 125.254844 124.579063 125.254844 124.579063 125.254844 124.579063 
C 125.254844 124.579063 125.254844 124.579063 125.254844 124.579063 
z
" clip-path="url(#p0c886311f2)" style="fill: #d9d9d9"/>
   </g>
   <g id="patch_33">
    <path d="M 125.254844 124.579063 
C 125.254844 124.579063 125.254844 124.579063 125.254844 124.579063 
C 125.254844 124.579063 125.254844 124.579063 125.254844 124.579063 
L 125.254844 124.579063 
C 125.254844 124.579063 125.254844 124.579063 125.254844 124.579063 
C 125.254844 124.579063 125.254844 124.579063 125.254844 124.579063 
z
" clip-path="url(#p0c886311f2)" style="fill: #d9d9d9"/>
   </g>
   <g id="patch_34">
    <path d="M 125.254844 124.579063 
C 125.254844 124.579063 125.254844 124.579063 125.254844 124.579063 
C 125.254844 124.579063 125.254844 124.579063 125.254844 124.579063 
L 125.254844 124.579063 
C 125.254844 124.579063 125.254844 124.579063 125.254844 124.579063 
C 125.254844 124.579063 125.254844 124.579063 125.254844 124.579063 
z
" clip-path="url(#p0c886311f2)" style="fill: #d9d9d9"/>
   </g>
   <g id="patch_35">
    <path d="M 125.254844 124.579063 
C 125.254844 124.579063 125.254844 124.579063 125.254844 124.579063 
C 125.254844 124.579063 125.254844 124.579063 125.254844 124.579063 
L 133.824575 37.569117 
C 130.97661 37.288617 128.116589 37.148113 125.254844 37.148113 
C 122.393098 37.148113 119.533078 37.288617 116.685112 37.569117 
z
" clip-path="url(#p0c886311f2)" style="fill: #a1a1d8"/>
   </g>
   <g id="patch_36">
    <path d="M 126.03715 116.636177 
C 126.297132 116.661784 126.555701 116.700139 126.811922 116.751104 
C 127.068142 116.802069 127.321706 116.865584 127.571698 116.941418 
L 151.974108 36.497451 
C 149.091066 35.62289 146.166822 34.890405 143.21194 34.302643 
C 140.257058 33.71488 137.2751 33.272548 134.276835 32.977245 
z
" clip-path="url(#p0c886311f2)" style="fill: #a1a1d8"/>
   </g>
   <g id="patch_37">
    <path d="M 125.254844 124.579063 
C 125.254844 124.579063 125.254844 124.579063 125.254844 124.579063 
C 125.254844 124.579063 125.254844 124.579063 125.254844 124.579063 
L 170.403246 40.112343 
C 167.638524 38.634569 164.802914 37.293425 161.906658 36.093756 
C 159.010401 34.894088 156.05699 33.83734 153.057092 32.927331 
z
" clip-path="url(#p0c886311f2)" style="fill: #a1a1d8"/>
   </g>
   <g id="patch_38">
    <path d="M 125.254844 124.579063 
C 125.254844 124.579063 125.254844 124.579063 125.254844 124.579063 
C 125.254844 124.579063 125.254844 124.579063 125.254844 124.579063 
L 182.315269 55.050733 
C 180.039503 53.18306 177.673411 51.428247 175.22554 49.792631 
C 172.777668 48.157016 170.250968 46.64257 167.654565 45.254764 
z
" clip-path="url(#p0c886311f2)" style="fill: #a1a1d8"/>
   </g>
   <g id="patch_39">
    <path d="M 125.254844 124.579063 
C 125.254844 124.579063 125.254844 124.579063 125.254844 124.579063 
C 125.254844 124.579063 125.254844 124.579063 125.254844 124.579063 
L 209.171042 55.710818 
C 206.916882 52.964116 204.529225 50.329742 202.016695 47.817212 
C 199.504165 45.304682 196.869791 42.917024 194.123088 40.662864 
z
" clip-path="url(#p0c886311f2)" style="fill: #a1a1d8"/>
   </g>
   <g id="patch_40">
    <path d="M 125.254844 124.579063 
C 125.254844 124.579063 125.254844 124.579063 125.254844 124.579063 
C 125.254844 124.579063 125.254844 124.579063 125.254844 124.579063 
L 190.150234 89.891754 
C 189.014867 87.767631 187.775895 85.700531 186.437794 83.697922 
C 185.099693 81.695313 183.664077 79.759607 182.136129 77.897798 
z
" clip-path="url(#p0c886311f2)" style="fill: #a1a1d8"/>
   </g>
   <g id="patch_41">
    <path d="M 132.293737 120.816696 
C 132.416885 121.047089 132.528647 121.28339 132.628619 121.524745 
C 132.728592 121.766099 132.816654 122.012217 132.892488 122.262208 
L 180.33068 107.87199 
C 179.783833 106.069276 179.148806 104.294497 178.427895 102.554063 
C 177.706984 100.81363 176.901057 99.10964 176.013025 97.448249 
z
" clip-path="url(#p0c886311f2)" style="fill: #a1a1d8"/>
   </g>
   <g id="patch_42">
    <path d="M 125.254844 124.579063 
C 125.254844 124.579063 125.254844 124.579063 125.254844 124.579063 
C 125.254844 124.579063 125.254844 124.579063 125.254844 124.579063 
L 150.372451 122.105194 
C 150.291478 121.283057 150.170189 120.465392 150.009022 119.65515 
C 149.847855 118.844909 149.647004 118.043069 149.407196 117.252527 
z
" clip-path="url(#p0c886311f2)" style="fill: #a1a1d8"/>
   </g>
   <g id="patch_43">
    <path d="M 125.254844 124.579063 
C 125.254844 124.579063 125.254844 124.579063 125.254844 124.579063 
C 125.254844 124.579063 125.254844 124.579063 125.254844 124.579063 
L 125.254844 124.579063 
C 125.254844 124.579063 125.254844 124.579063 125.254844 124.579063 
C 125.254844 124.579063 125.254844 124.579063 125.254844 124.579063 
z
" clip-path="url(#p0c886311f2)" style="fill: #a1a1d8"/>
   </g>
   <g id="patch_44">
    <path d="M 125.254844 124.579063 
C 125.254844 124.579063 125.254844 124.579063 125.254844 124.579063 
C 125.254844 124.579063 125.254844 124.579063 125.254844 124.579063 
L 125.254844 124.579063 
C 125.254844 124.579063 125.254844 124.579063 125.254844 124.579063 
C 125.254844 124.579063 125.254844 124.579063 125.254844 124.579063 
z
" clip-path="url(#p0c886311f2)" style="fill: #a1a1d8"/>
   </g>
   <g id="patch_45">
    <path d="M 125.254844 124.579063 
C 125.254844 124.579063 125.254844 124.579063 125.254844 124.579063 
C 125.254844 124.579063 125.254844 124.579063 125.254844 124.579063 
L 125.254844 124.579063 
C 125.254844 124.579063 125.254844 124.579063 125.254844 124.579063 
C 125.254844 124.579063 125.254844 124.579063 125.254844 124.579063 
z
" clip-path="url(#p0c886311f2)" style="fill: #a1a1d8"/>
   </g>
   <g id="patch_46">
    <path d="M 125.254844 124.579063 
C 125.254844 124.579063 125.254844 124.579063 125.254844 124.579063 
C 125.254844 124.579063 125.254844 124.579063 125.254844 124.579063 
L 125.254844 124.579063 
C 125.254844 124.579063 125.254844 124.579063 125.254844 124.579063 
C 125.254844 124.579063 125.254844 124.579063 125.254844 124.579063 
z
" clip-path="url(#p0c886311f2)" style="fill: #a1a1d8"/>
   </g>
   <g id="patch_47">
    <path d="M 125.254844 124.579063 
C 125.254844 124.579063 125.254844 124.579063 125.254844 124.579063 
C 125.254844 124.579063 125.254844 124.579063 125.254844 124.579063 
L 125.254844 124.579063 
C 125.254844 124.579063 125.254844 124.579063 125.254844 124.579063 
C 125.254844 124.579063 125.254844 124.579063 125.254844 124.579063 
z
" clip-path="url(#p0c886311f2)" style="fill: #a1a1d8"/>
   </g>
   <g id="patch_48">
    <path d="M 125.254844 124.579063 
C 125.254844 124.579063 125.254844 124.579063 125.254844 124.579063 
C 125.254844 124.579063 125.254844 124.579063 125.254844 124.579063 
L 125.254844 124.579063 
C 125.254844 124.579063 125.254844 124.579063 125.254844 124.579063 
C 125.254844 124.579063 125.254844 124.579063 125.254844 124.579063 
z
" clip-path="url(#p0c886311f2)" style="fill: #a1a1d8"/>
   </g>
   <g id="patch_49">
    <path d="M 125.254844 124.579063 
C 125.254844 124.579063 125.254844 124.579063 125.254844 124.579063 
C 125.254844 124.579063 125.254844 124.579063 125.254844 124.579063 
L 129.267753 137.807851 
C 129.700751 137.676502 130.127039 137.523974 130.545078 137.350817 
C 130.963116 137.177659 131.372401 136.984082 131.771454 136.770784 
z
" clip-path="url(#p0c886311f2)" style="fill: #a1a1d8"/>
   </g>
   <g id="patch_50">
    <path d="M 125.254844 124.579063 
C 125.254844 124.579063 125.254844 124.579063 125.254844 124.579063 
C 125.254844 124.579063 125.254844 124.579063 125.254844 124.579063 
L 125.254844 124.579063 
C 125.254844 124.579063 125.254844 124.579063 125.254844 124.579063 
C 125.254844 124.579063 125.254844 124.579063 125.254844 124.579063 
z
" clip-path="url(#p0c886311f2)" style="fill: #a1a1d8"/>
   </g>
   <g id="patch_51">
    <path d="M 125.254844 124.579063 
C 125.254844 124.579063 125.254844 124.579063 125.254844 124.579063 
C 125.254844 124.579063 125.254844 124.579063 125.254844 124.579063 
L 125.254844 124.579063 
C 125.254844 124.579063 125.254844 124.579063 125.254844 124.579063 
C 125.254844 124.579063 125.254844 124.579063 125.254844 124.579063 
z
" clip-path="url(#p0c886311f2)" style="fill: #a1a1d8"/>
   </g>
   <g id="patch_52">
    <path d="M 125.254844 124.579063 
C 125.254844 124.579063 125.254844 124.579063 125.254844 124.579063 
C 125.254844 124.579063 125.254844 124.579063 125.254844 124.579063 
L 125.254844 124.579063 
C 125.254844 124.579063 125.254844 124.579063 125.254844 124.579063 
C 125.254844 124.579063 125.254844 124.579063 125.254844 124.579063 
z
" clip-path="url(#p0c886311f2)" style="fill: #a1a1d8"/>
   </g>
   <g id="patch_53">
    <path d="M 125.254844 124.579063 
C 125.254844 124.579063 125.254844 124.579063 125.254844 124.579063 
C 125.254844 124.579063 125.254844 124.579063 125.254844 124.579063 
L 109.742207 153.601164 
C 110.692144 154.108915 111.666438 154.569722 112.661568 154.981919 
C 113.656699 155.394115 114.671468 155.757205 115.702209 156.069877 
z
" clip-path="url(#p0c886311f2)" style="fill: #a1a1d8"/>
   </g>
   <g id="patch_54">
    <path d="M 125.254844 124.579063 
C 125.254844 124.579063 125.254844 124.579063 125.254844 124.579063 
C 125.254844 124.579063 125.254844 124.579063 125.254844 124.579063 
L 100.44987 154.804011 
C 101.439177 155.615915 102.467751 156.378757 103.531875 157.089782 
C 104.596 157.800807 105.694392 158.459158 106.823085 159.062457 
z
" clip-path="url(#p0c886311f2)" style="fill: #a1a1d8"/>
   </g>
   <g id="patch_55">
    <path d="M 125.254844 124.579063 
C 125.254844 124.579063 125.254844 124.579063 125.254844 124.579063 
C 125.254844 124.579063 125.254844 124.579063 125.254844 124.579063 
L 102.170159 143.524174 
C 102.790261 144.27977 103.447086 145.004466 104.138263 145.695643 
C 104.829441 146.38682 105.554136 147.043646 106.309732 147.663747 
z
" clip-path="url(#p0c886311f2)" style="fill: #a1a1d8"/>
   </g>
   <g id="patch_56">
    <path d="M 125.254844 124.579063 
C 125.254844 124.579063 125.254844 124.579063 125.254844 124.579063 
C 125.254844 124.579063 125.254844 124.579063 125.254844 124.579063 
L 111.177057 132.103796 
C 111.423353 132.564583 111.692123 133.013 111.982398 133.447427 
C 112.272673 133.881854 112.584102 134.301767 112.91556 134.705651 
z
" clip-path="url(#p0c886311f2)" style="fill: #a1a1d8"/>
   </g>
   <g id="patch_57">
    <path d="M 125.254844 124.579063 
C 125.254844 124.579063 125.254844 124.579063 125.254844 124.579063 
C 125.254844 124.579063 125.254844 124.579063 125.254844 124.579063 
L 96.677396 133.247937 
C 96.961141 134.183319 97.29064 135.104207 97.664702 136.007273 
C 98.038764 136.91034 98.456939 137.794497 98.917717 138.65655 
z
" clip-path="url(#p0c886311f2)" style="fill: #a1a1d8"/>
   </g>
   <g id="patch_58">
    <path d="M 125.254844 124.579063 
C 125.254844 124.579063 125.254844 124.579063 125.254844 124.579063 
C 125.254844 124.579063 125.254844 124.579063 125.254844 124.579063 
L 100.137236 127.052931 
C 100.218209 127.875068 100.339499 128.692733 100.500666 129.502975 
C 100.661833 130.313216 100.862683 131.115056 101.102492 131.905598 
z
" clip-path="url(#p0c886311f2)" style="fill: #a1a1d8"/>
   </g>
   <g id="patch_59">
    <path d="M 125.254844 124.579063 
C 125.254844 124.579063 125.254844 124.579063 125.254844 124.579063 
C 125.254844 124.579063 125.254844 124.579063 125.254844 124.579063 
L 125.254844 124.579063 
C 125.254844 124.579063 125.254844 124.579063 125.254844 124.579063 
C 125.254844 124.579063 125.254844 124.579063 125.254844 124.579063 
z
" clip-path="url(#p0c886311f2)" style="fill: #a1a1d8"/>
   </g>
   <g id="patch_60">
    <path d="M 125.254844 124.579063 
C 125.254844 124.579063 125.254844 124.579063 125.254844 124.579063 
C 125.254844 124.579063 125.254844 124.579063 125.254844 124.579063 
L 92.851062 114.749483 
C 92.529326 115.810107 92.259856 116.885888 92.043628 117.972941 
C 91.8274 119.059994 91.664673 120.157007 91.556036 121.26002 
z
" clip-path="url(#p0c886311f2)" style="fill: #a1a1d8"/>
   </g>
   <g id="patch_61">
    <path d="M 125.254844 124.579063 
C 125.254844 124.579063 125.254844 124.579063 125.254844 124.579063 
C 125.254844 124.579063 125.254844 124.579063 125.254844 124.579063 
L 125.254844 124.579063 
C 125.254844 124.579063 125.254844 124.579063 125.254844 124.579063 
C 125.254844 124.579063 125.254844 124.579063 125.254844 124.579063 
z
" clip-path="url(#p0c886311f2)" style="fill: #a1a1d8"/>
   </g>
   <g id="patch_62">
    <path d="M 125.254844 124.579063 
C 125.254844 124.579063 125.254844 124.579063 125.254844 124.579063 
C 125.254844 124.579063 125.254844 124.579063 125.254844 124.579063 
L 108.931506 111.182846 
C 108.493028 111.717133 108.081046 112.272626 107.697049 112.847319 
C 107.313051 113.422012 106.957501 114.015212 106.631683 114.624775 
z
" clip-path="url(#p0c886311f2)" style="fill: #a1a1d8"/>
   </g>
   <g id="patch_63">
    <path d="M 125.254844 124.579063 
C 125.254844 124.579063 125.254844 124.579063 125.254844 124.579063 
C 125.254844 124.579063 125.254844 124.579063 125.254844 124.579063 
L 106.998878 102.334104 
C 106.270767 102.931649 105.572433 103.564582 104.906398 104.230617 
C 104.240363 104.896652 103.60743 105.594986 103.009885 106.323097 
z
" clip-path="url(#p0c886311f2)" style="fill: #a1a1d8"/>
   </g>
   <g id="patch_64">
    <path d="M 125.254844 124.579063 
C 125.254844 124.579063 125.254844 124.579063 125.254844 124.579063 
C 125.254844 124.579063 125.254844 124.579063 125.254844 124.579063 
L 106.070462 88.687609 
C 104.895681 89.315542 103.752438 90.000776 102.644862 90.740834 
C 101.537287 91.480892 100.466713 92.274884 99.437009 93.11994 
z
" clip-path="url(#p0c886311f2)" style="fill: #a1a1d8"/>
   </g>
   <g id="patch_65">
    <path d="M 125.254844 124.579063 
C 125.254844 124.579063 125.254844 124.579063 125.254844 124.579063 
C 125.254844 124.579063 125.254844 124.579063 125.254844 124.579063 
L 101.627476 46.690069 
C 99.078053 47.463428 96.568136 48.36149 94.106792 49.381012 
C 91.645447 50.400535 89.235642 51.540288 86.88608 52.796155 
z
" clip-path="url(#p0c886311f2)" style="fill: #a1a1d8"/>
   </g>
   <g id="patch_66">
    <path d="M 125.254844 124.579063 
C 125.254844 124.579063 125.254844 124.579063 125.254844 124.579063 
C 125.254844 124.579063 125.254844 124.579063 125.254844 124.579063 
L 114.386703 14.23298 
C 110.774911 14.58871 107.182761 15.121556 103.623229 15.829591 
C 100.063696 16.537626 96.541072 17.419997 93.068079 18.473518 
z
" clip-path="url(#p0c886311f2)" style="fill: #a1a1d8"/>
   </g>
   <g id="patch_67">
    <path d="M 116.685112 37.569117 
C 119.533078 37.288617 122.393098 37.148113 125.254844 37.148113 
C 128.116589 37.148113 130.97661 37.288617 133.824575 37.569117 
L 133.824575 37.569117 
C 130.97661 37.288617 128.116589 37.148113 125.254844 37.148113 
C 122.393098 37.148113 119.533078 37.288617 116.685112 37.569117 
z
" clip-path="url(#p0c886311f2)" style="fill: #ff8c8e"/>
   </g>
   <g id="patch_68">
    <path d="M 134.276835 32.977245 
C 137.2751 33.272548 140.257058 33.71488 143.21194 34.302643 
C 146.166822 34.890405 149.091066 35.62289 151.974108 36.497451 
L 151.974108 36.497451 
C 149.091066 35.62289 146.166822 34.890405 143.21194 34.302643 
C 140.257058 33.71488 137.2751 33.272548 134.276835 32.977245 
z
" clip-path="url(#p0c886311f2)" style="fill: #ff8c8e"/>
   </g>
   <g id="patch_69">
    <path d="M 153.057092 32.927331 
C 156.05699 33.83734 159.010401 34.894088 161.906658 36.093756 
C 164.802914 37.293425 167.638524 38.634569 170.403246 40.112343 
L 170.403246 40.112343 
C 167.638524 38.634569 164.802914 37.293425 161.906658 36.093756 
C 159.010401 34.894088 156.05699 33.83734 153.057092 32.927331 
z
" clip-path="url(#p0c886311f2)" style="fill: #ff8c8e"/>
   </g>
   <g id="patch_70">
    <path d="M 167.654565 45.254764 
C 170.250968 46.64257 172.777668 48.157016 175.22554 49.792631 
C 177.673411 51.428247 180.039503 53.18306 182.315269 55.050733 
L 182.315269 55.050733 
C 180.039503 53.18306 177.673411 51.428247 175.22554 49.792631 
C 172.777668 48.157016 170.250968 46.64257 167.654565 45.254764 
z
" clip-path="url(#p0c886311f2)" style="fill: #ff8c8e"/>
   </g>
   <g id="patch_71">
    <path d="M 194.123088 40.662864 
C 196.869791 42.917024 199.504165 45.304682 202.016695 47.817212 
C 204.529225 50.329742 206.916882 52.964116 209.171042 55.710818 
L 209.171042 55.710818 
C 206.916882 52.964116 204.529225 50.329742 202.016695 47.817212 
C 199.504165 45.304682 196.869791 42.917024 194.123088 40.662864 
z
" clip-path="url(#p0c886311f2)" style="fill: #ff8c8e"/>
   </g>
   <g id="patch_72">
    <path d="M 182.136129 77.897798 
C 183.664077 79.759607 185.099693 81.695313 186.437794 83.697922 
C 187.775895 85.700531 189.014867 87.767631 190.150234 89.891754 
L 190.150234 89.891754 
C 189.014867 87.767631 187.775895 85.700531 186.437794 83.697922 
C 185.099693 81.695313 183.664077 79.759607 182.136129 77.897798 
z
" clip-path="url(#p0c886311f2)" style="fill: #ff8c8e"/>
   </g>
   <g id="patch_73">
    <path d="M 176.013025 97.448249 
C 176.901057 99.10964 177.706984 100.81363 178.427895 102.554063 
C 179.148806 104.294497 179.783833 106.069276 180.33068 107.87199 
L 180.33068 107.87199 
C 179.783833 106.069276 179.148806 104.294497 178.427895 102.554063 
C 177.706984 100.81363 176.901057 99.10964 176.013025 97.448249 
z
" clip-path="url(#p0c886311f2)" style="fill: #ff8c8e"/>
   </g>
   <g id="patch_74">
    <path d="M 149.407196 117.252527 
C 149.647004 118.043069 149.847855 118.844909 150.009022 119.65515 
C 150.170189 120.465392 150.291478 121.283057 150.372451 122.105194 
L 150.372451 122.105194 
C 150.291478 121.283057 150.170189 120.465392 150.009022 119.65515 
C 149.847855 118.844909 149.647004 118.043069 149.407196 117.252527 
z
" clip-path="url(#p0c886311f2)" style="fill: #ff8c8e"/>
   </g>
   <g id="patch_75">
    <path d="M 125.254844 124.579063 
C 125.254844 124.579063 125.254844 124.579063 125.254844 124.579063 
C 125.254844 124.579063 125.254844 124.579063 125.254844 124.579063 
L 125.254844 124.579063 
C 125.254844 124.579063 125.254844 124.579063 125.254844 124.579063 
C 125.254844 124.579063 125.254844 124.579063 125.254844 124.579063 
z
" clip-path="url(#p0c886311f2)" style="fill: #ff8c8e"/>
   </g>
   <g id="patch_76">
    <path d="M 125.254844 124.579063 
C 125.254844 124.579063 125.254844 124.579063 125.254844 124.579063 
C 125.254844 124.579063 125.254844 124.579063 125.254844 124.579063 
L 125.254844 124.579063 
C 125.254844 124.579063 125.254844 124.579063 125.254844 124.579063 
C 125.254844 124.579063 125.254844 124.579063 125.254844 124.579063 
z
" clip-path="url(#p0c886311f2)" style="fill: #ff8c8e"/>
   </g>
   <g id="patch_77">
    <path d="M 125.254844 124.579063 
C 125.254844 124.579063 125.254844 124.579063 125.254844 124.579063 
C 125.254844 124.579063 125.254844 124.579063 125.254844 124.579063 
L 125.254844 124.579063 
C 125.254844 124.579063 125.254844 124.579063 125.254844 124.579063 
C 125.254844 124.579063 125.254844 124.579063 125.254844 124.579063 
z
" clip-path="url(#p0c886311f2)" style="fill: #ff8c8e"/>
   </g>
   <g id="patch_78">
    <path d="M 125.254844 124.579063 
C 125.254844 124.579063 125.254844 124.579063 125.254844 124.579063 
C 125.254844 124.579063 125.254844 124.579063 125.254844 124.579063 
L 125.254844 124.579063 
C 125.254844 124.579063 125.254844 124.579063 125.254844 124.579063 
C 125.254844 124.579063 125.254844 124.579063 125.254844 124.579063 
z
" clip-path="url(#p0c886311f2)" style="fill: #ff8c8e"/>
   </g>
   <g id="patch_79">
    <path d="M 125.254844 124.579063 
C 125.254844 124.579063 125.254844 124.579063 125.254844 124.579063 
C 125.254844 124.579063 125.254844 124.579063 125.254844 124.579063 
L 125.254844 124.579063 
C 125.254844 124.579063 125.254844 124.579063 125.254844 124.579063 
C 125.254844 124.579063 125.254844 124.579063 125.254844 124.579063 
z
" clip-path="url(#p0c886311f2)" style="fill: #ff8c8e"/>
   </g>
   <g id="patch_80">
    <path d="M 125.254844 124.579063 
C 125.254844 124.579063 125.254844 124.579063 125.254844 124.579063 
C 125.254844 124.579063 125.254844 124.579063 125.254844 124.579063 
L 125.254844 124.579063 
C 125.254844 124.579063 125.254844 124.579063 125.254844 124.579063 
C 125.254844 124.579063 125.254844 124.579063 125.254844 124.579063 
z
" clip-path="url(#p0c886311f2)" style="fill: #ff8c8e"/>
   </g>
   <g id="patch_81">
    <path d="M 131.771454 136.770784 
C 131.372401 136.984082 130.963116 137.177659 130.545078 137.350817 
C 130.127039 137.523974 129.700751 137.676502 129.267753 137.807851 
L 129.267753 137.807851 
C 129.700751 137.676502 130.127039 137.523974 130.545078 137.350817 
C 130.963116 137.177659 131.372401 136.984082 131.771454 136.770784 
z
" clip-path="url(#p0c886311f2)" style="fill: #ff8c8e"/>
   </g>
   <g id="patch_82">
    <path d="M 125.254844 124.579063 
C 125.254844 124.579063 125.254844 124.579063 125.254844 124.579063 
C 125.254844 124.579063 125.254844 124.579063 125.254844 124.579063 
L 125.254844 124.579063 
C 125.254844 124.579063 125.254844 124.579063 125.254844 124.579063 
C 125.254844 124.579063 125.254844 124.579063 125.254844 124.579063 
z
" clip-path="url(#p0c886311f2)" style="fill: #ff8c8e"/>
   </g>
   <g id="patch_83">
    <path d="M 125.254844 124.579063 
C 125.254844 124.579063 125.254844 124.579063 125.254844 124.579063 
C 125.254844 124.579063 125.254844 124.579063 125.254844 124.579063 
L 125.254844 124.579063 
C 125.254844 124.579063 125.254844 124.579063 125.254844 124.579063 
C 125.254844 124.579063 125.254844 124.579063 125.254844 124.579063 
z
" clip-path="url(#p0c886311f2)" style="fill: #ff8c8e"/>
   </g>
   <g id="patch_84">
    <path d="M 125.254844 124.579063 
C 125.254844 124.579063 125.254844 124.579063 125.254844 124.579063 
C 125.254844 124.579063 125.254844 124.579063 125.254844 124.579063 
L 125.254844 124.579063 
C 125.254844 124.579063 125.254844 124.579063 125.254844 124.579063 
C 125.254844 124.579063 125.254844 124.579063 125.254844 124.579063 
z
" clip-path="url(#p0c886311f2)" style="fill: #ff8c8e"/>
   </g>
   <g id="patch_85">
    <path d="M 115.702209 156.069877 
C 114.671468 155.757205 113.656699 155.394115 112.661568 154.981919 
C 111.666438 154.569722 110.692144 154.108915 109.742207 153.601164 
L 109.742207 153.601164 
C 110.692144 154.108915 111.666438 154.569722 112.661568 154.981919 
C 113.656699 155.394115 114.671468 155.757205 115.702209 156.069877 
z
" clip-path="url(#p0c886311f2)" style="fill: #ff8c8e"/>
   </g>
   <g id="patch_86">
    <path d="M 106.823085 159.062457 
C 105.694392 158.459158 104.596 157.800807 103.531875 157.089782 
C 102.467751 156.378757 101.439177 155.615915 100.44987 154.804011 
L 100.44987 154.804011 
C 101.439177 155.615915 102.467751 156.378757 103.531875 157.089782 
C 104.596 157.800807 105.694392 158.459158 106.823085 159.062457 
z
" clip-path="url(#p0c886311f2)" style="fill: #ff8c8e"/>
   </g>
   <g id="patch_87">
    <path d="M 106.309732 147.663747 
C 105.554136 147.043646 104.829441 146.38682 104.138263 145.695643 
C 103.447086 145.004466 102.790261 144.27977 102.170159 143.524174 
L 102.170159 143.524174 
C 102.790261 144.27977 103.447086 145.004466 104.138263 145.695643 
C 104.829441 146.38682 105.554136 147.043646 106.309732 147.663747 
z
" clip-path="url(#p0c886311f2)" style="fill: #ff8c8e"/>
   </g>
   <g id="patch_88">
    <path d="M 112.91556 134.705651 
C 112.584102 134.301767 112.272673 133.881854 111.982398 133.447427 
C 111.692123 133.013 111.423353 132.564583 111.177057 132.103796 
L 111.177057 132.103796 
C 111.423353 132.564583 111.692123 133.013 111.982398 133.447427 
C 112.272673 133.881854 112.584102 134.301767 112.91556 134.705651 
z
" clip-path="url(#p0c886311f2)" style="fill: #ff8c8e"/>
   </g>
   <g id="patch_89">
    <path d="M 98.917717 138.65655 
C 98.456939 137.794497 98.038764 136.91034 97.664702 136.007273 
C 97.29064 135.104207 96.961141 134.183319 96.677396 133.247937 
L 96.677396 133.247937 
C 96.961141 134.183319 97.29064 135.104207 97.664702 136.007273 
C 98.038764 136.91034 98.456939 137.794497 98.917717 138.65655 
z
" clip-path="url(#p0c886311f2)" style="fill: #ff8c8e"/>
   </g>
   <g id="patch_90">
    <path d="M 101.102492 131.905598 
C 100.862683 131.115056 100.661833 130.313216 100.500666 129.502975 
C 100.339499 128.692733 100.218209 127.875068 100.137236 127.052931 
L 100.137236 127.052931 
C 100.218209 127.875068 100.339499 128.692733 100.500666 129.502975 
C 100.661833 130.313216 100.862683 131.115056 101.102492 131.905598 
z
" clip-path="url(#p0c886311f2)" style="fill: #ff8c8e"/>
   </g>
   <g id="patch_91">
    <path d="M 125.254844 124.579063 
C 125.254844 124.579063 125.254844 124.579063 125.254844 124.579063 
C 125.254844 124.579063 125.254844 124.579063 125.254844 124.579063 
L 125.254844 124.579063 
C 125.254844 124.579063 125.254844 124.579063 125.254844 124.579063 
C 125.254844 124.579063 125.254844 124.579063 125.254844 124.579063 
z
" clip-path="url(#p0c886311f2)" style="fill: #ff8c8e"/>
   </g>
   <g id="patch_92">
    <path d="M 91.556036 121.26002 
C 91.664673 120.157007 91.8274 119.059994 92.043628 117.972941 
C 92.259856 116.885888 92.529326 115.810107 92.851062 114.749483 
L 92.851062 114.749483 
C 92.529326 115.810107 92.259856 116.885888 92.043628 117.972941 
C 91.8274 119.059994 91.664673 120.157007 91.556036 121.26002 
z
" clip-path="url(#p0c886311f2)" style="fill: #ff8c8e"/>
   </g>
   <g id="patch_93">
    <path d="M 125.254844 124.579063 
C 125.254844 124.579063 125.254844 124.579063 125.254844 124.579063 
C 125.254844 124.579063 125.254844 124.579063 125.254844 124.579063 
L 125.254844 124.579063 
C 125.254844 124.579063 125.254844 124.579063 125.254844 124.579063 
C 125.254844 124.579063 125.254844 124.579063 125.254844 124.579063 
z
" clip-path="url(#p0c886311f2)" style="fill: #ff8c8e"/>
   </g>
   <g id="patch_94">
    <path d="M 106.631683 114.624775 
C 106.957501 114.015212 107.313051 113.422012 107.697049 112.847319 
C 108.081046 112.272626 108.493028 111.717133 108.931506 111.182846 
L 108.931506 111.182846 
C 108.493028 111.717133 108.081046 112.272626 107.697049 112.847319 
C 107.313051 113.422012 106.957501 114.015212 106.631683 114.624775 
z
" clip-path="url(#p0c886311f2)" style="fill: #ff8c8e"/>
   </g>
   <g id="patch_95">
    <path d="M 103.009885 106.323097 
C 103.60743 105.594986 104.240363 104.896652 104.906398 104.230617 
C 105.572433 103.564582 106.270767 102.931649 106.998878 102.334104 
L 106.998878 102.334104 
C 106.270767 102.931649 105.572433 103.564582 104.906398 104.230617 
C 104.240363 104.896652 103.60743 105.594986 103.009885 106.323097 
z
" clip-path="url(#p0c886311f2)" style="fill: #ff8c8e"/>
   </g>
   <g id="patch_96">
    <path d="M 99.437009 93.11994 
C 100.466713 92.274884 101.537287 91.480892 102.644862 90.740834 
C 103.752438 90.000776 104.895681 89.315542 106.070462 88.687609 
L 106.070462 88.687609 
C 104.895681 89.315542 103.752438 90.000776 102.644862 90.740834 
C 101.537287 91.480892 100.466713 92.274884 99.437009 93.11994 
z
" clip-path="url(#p0c886311f2)" style="fill: #ff8c8e"/>
   </g>
   <g id="patch_97">
    <path d="M 86.88608 52.796155 
C 89.235642 51.540288 91.645447 50.400535 94.106792 49.381012 
C 96.568136 48.36149 99.078053 47.463428 101.627476 46.690069 
L 101.627476 46.690069 
C 99.078053 47.463428 96.568136 48.36149 94.106792 49.381012 
C 91.645447 50.400535 89.235642 51.540288 86.88608 52.796155 
z
" clip-path="url(#p0c886311f2)" style="fill: #ff8c8e"/>
   </g>
   <g id="patch_98">
    <path d="M 93.068079 18.473518 
C 96.541072 17.419997 100.063696 16.537626 103.623229 15.829591 
C 107.182761 15.121556 110.774911 14.58871 114.386703 14.23298 
L 114.386703 14.23298 
C 110.774911 14.58871 107.182761 15.121556 103.623229 15.829591 
C 100.063696 16.537626 96.541072 17.419997 93.068079 18.473518 
z
" clip-path="url(#p0c886311f2)" style="fill: #ff8c8e"/>
   </g>
   <g id="patch_99">
    <path d="M 116.685112 37.569117 
C 119.533078 37.288617 122.393098 37.148113 125.254844 37.148113 
C 128.116589 37.148113 130.97661 37.288617 133.824575 37.569117 
L 133.824575 37.569117 
C 130.97661 37.288617 128.116589 37.148113 125.254844 37.148113 
C 122.393098 37.148113 119.533078 37.288617 116.685112 37.569117 
z
" clip-path="url(#p0c886311f2)" style="fill: #828282"/>
   </g>
   <g id="patch_100">
    <path d="M 134.276835 32.977245 
C 137.2751 33.272548 140.257058 33.71488 143.21194 34.302643 
C 146.166822 34.890405 149.091066 35.62289 151.974108 36.497451 
L 151.974108 36.497451 
C 149.091066 35.62289 146.166822 34.890405 143.21194 34.302643 
C 140.257058 33.71488 137.2751 33.272548 134.276835 32.977245 
z
" clip-path="url(#p0c886311f2)" style="fill: #828282"/>
   </g>
   <g id="patch_101">
    <path d="M 153.057092 32.927331 
C 156.05699 33.83734 159.010401 34.894088 161.906658 36.093756 
C 164.802914 37.293425 167.638524 38.634569 170.403246 40.112343 
L 170.403246 40.112343 
C 167.638524 38.634569 164.802914 37.293425 161.906658 36.093756 
C 159.010401 34.894088 156.05699 33.83734 153.057092 32.927331 
z
" clip-path="url(#p0c886311f2)" style="fill: #828282"/>
   </g>
   <g id="patch_102">
    <path d="M 167.654565 45.254764 
C 170.250968 46.64257 172.777668 48.157016 175.22554 49.792631 
C 177.673411 51.428247 180.039503 53.18306 182.315269 55.050733 
L 182.315269 55.050733 
C 180.039503 53.18306 177.673411 51.428247 175.22554 49.792631 
C 172.777668 48.157016 170.250968 46.64257 167.654565 45.254764 
z
" clip-path="url(#p0c886311f2)" style="fill: #828282"/>
   </g>
   <g id="patch_103">
    <path d="M 194.123088 40.662864 
C 196.869791 42.917024 199.504165 45.304682 202.016695 47.817212 
C 204.529225 50.329742 206.916882 52.964116 209.171042 55.710818 
L 209.171042 55.710818 
C 206.916882 52.964116 204.529225 50.329742 202.016695 47.817212 
C 199.504165 45.304682 196.869791 42.917024 194.123088 40.662864 
z
" clip-path="url(#p0c886311f2)" style="fill: #828282"/>
   </g>
   <g id="patch_104">
    <path d="M 182.136129 77.897798 
C 183.664077 79.759607 185.099693 81.695313 186.437794 83.697922 
C 187.775895 85.700531 189.014867 87.767631 190.150234 89.891754 
L 190.150234 89.891754 
C 189.014867 87.767631 187.775895 85.700531 186.437794 83.697922 
C 185.099693 81.695313 183.664077 79.759607 182.136129 77.897798 
z
" clip-path="url(#p0c886311f2)" style="fill: #828282"/>
   </g>
   <g id="patch_105">
    <path d="M 176.013025 97.448249 
C 176.901057 99.10964 177.706984 100.81363 178.427895 102.554063 
C 179.148806 104.294497 179.783833 106.069276 180.33068 107.87199 
L 180.33068 107.87199 
C 179.783833 106.069276 179.148806 104.294497 178.427895 102.554063 
C 177.706984 100.81363 176.901057 99.10964 176.013025 97.448249 
z
" clip-path="url(#p0c886311f2)" style="fill: #828282"/>
   </g>
   <g id="patch_106">
    <path d="M 149.407196 117.252527 
C 149.647004 118.043069 149.847855 118.844909 150.009022 119.65515 
C 150.170189 120.465392 150.291478 121.283057 150.372451 122.105194 
L 150.372451 122.105194 
C 150.291478 121.283057 150.170189 120.465392 150.009022 119.65515 
C 149.847855 118.844909 149.647004 118.043069 149.407196 117.252527 
z
" clip-path="url(#p0c886311f2)" style="fill: #828282"/>
   </g>
   <g id="patch_107">
    <path d="M 125.254844 124.579063 
C 125.254844 124.579063 125.254844 124.579063 125.254844 124.579063 
C 125.254844 124.579063 125.254844 124.579063 125.254844 124.579063 
L 125.254844 124.579063 
C 125.254844 124.579063 125.254844 124.579063 125.254844 124.579063 
C 125.254844 124.579063 125.254844 124.579063 125.254844 124.579063 
z
" clip-path="url(#p0c886311f2)" style="fill: #828282"/>
   </g>
   <g id="patch_108">
    <path d="M 125.254844 124.579063 
C 125.254844 124.579063 125.254844 124.579063 125.254844 124.579063 
C 125.254844 124.579063 125.254844 124.579063 125.254844 124.579063 
L 125.254844 124.579063 
C 125.254844 124.579063 125.254844 124.579063 125.254844 124.579063 
C 125.254844 124.579063 125.254844 124.579063 125.254844 124.579063 
z
" clip-path="url(#p0c886311f2)" style="fill: #828282"/>
   </g>
   <g id="patch_109">
    <path d="M 125.254844 124.579063 
C 125.254844 124.579063 125.254844 124.579063 125.254844 124.579063 
C 125.254844 124.579063 125.254844 124.579063 125.254844 124.579063 
L 125.254844 124.579063 
C 125.254844 124.579063 125.254844 124.579063 125.254844 124.579063 
C 125.254844 124.579063 125.254844 124.579063 125.254844 124.579063 
z
" clip-path="url(#p0c886311f2)" style="fill: #828282"/>
   </g>
   <g id="patch_110">
    <path d="M 125.254844 124.579063 
C 125.254844 124.579063 125.254844 124.579063 125.254844 124.579063 
C 125.254844 124.579063 125.254844 124.579063 125.254844 124.579063 
L 125.254844 124.579063 
C 125.254844 124.579063 125.254844 124.579063 125.254844 124.579063 
C 125.254844 124.579063 125.254844 124.579063 125.254844 124.579063 
z
" clip-path="url(#p0c886311f2)" style="fill: #828282"/>
   </g>
   <g id="patch_111">
    <path d="M 125.254844 124.579063 
C 125.254844 124.579063 125.254844 124.579063 125.254844 124.579063 
C 125.254844 124.579063 125.254844 124.579063 125.254844 124.579063 
L 125.254844 124.579063 
C 125.254844 124.579063 125.254844 124.579063 125.254844 124.579063 
C 125.254844 124.579063 125.254844 124.579063 125.254844 124.579063 
z
" clip-path="url(#p0c886311f2)" style="fill: #828282"/>
   </g>
   <g id="patch_112">
    <path d="M 125.254844 124.579063 
C 125.254844 124.579063 125.254844 124.579063 125.254844 124.579063 
C 125.254844 124.579063 125.254844 124.579063 125.254844 124.579063 
L 125.254844 124.579063 
C 125.254844 124.579063 125.254844 124.579063 125.254844 124.579063 
C 125.254844 124.579063 125.254844 124.579063 125.254844 124.579063 
z
" clip-path="url(#p0c886311f2)" style="fill: #828282"/>
   </g>
   <g id="patch_113">
    <path d="M 131.771454 136.770784 
C 131.372401 136.984082 130.963116 137.177659 130.545078 137.350817 
C 130.127039 137.523974 129.700751 137.676502 129.267753 137.807851 
L 129.267753 137.807851 
C 129.700751 137.676502 130.127039 137.523974 130.545078 137.350817 
C 130.963116 137.177659 131.372401 136.984082 131.771454 136.770784 
z
" clip-path="url(#p0c886311f2)" style="fill: #828282"/>
   </g>
   <g id="patch_114">
    <path d="M 125.254844 124.579063 
C 125.254844 124.579063 125.254844 124.579063 125.254844 124.579063 
C 125.254844 124.579063 125.254844 124.579063 125.254844 124.579063 
L 125.254844 124.579063 
C 125.254844 124.579063 125.254844 124.579063 125.254844 124.579063 
C 125.254844 124.579063 125.254844 124.579063 125.254844 124.579063 
z
" clip-path="url(#p0c886311f2)" style="fill: #828282"/>
   </g>
   <g id="patch_115">
    <path d="M 125.254844 124.579063 
C 125.254844 124.579063 125.254844 124.579063 125.254844 124.579063 
C 125.254844 124.579063 125.254844 124.579063 125.254844 124.579063 
L 125.254844 124.579063 
C 125.254844 124.579063 125.254844 124.579063 125.254844 124.579063 
C 125.254844 124.579063 125.254844 124.579063 125.254844 124.579063 
z
" clip-path="url(#p0c886311f2)" style="fill: #828282"/>
   </g>
   <g id="patch_116">
    <path d="M 125.254844 124.579063 
C 125.254844 124.579063 125.254844 124.579063 125.254844 124.579063 
C 125.254844 124.579063 125.254844 124.579063 125.254844 124.579063 
L 125.254844 124.579063 
C 125.254844 124.579063 125.254844 124.579063 125.254844 124.579063 
C 125.254844 124.579063 125.254844 124.579063 125.254844 124.579063 
z
" clip-path="url(#p0c886311f2)" style="fill: #828282"/>
   </g>
   <g id="patch_117">
    <path d="M 115.702209 156.069877 
C 114.671468 155.757205 113.656699 155.394115 112.661568 154.981919 
C 111.666438 154.569722 110.692144 154.108915 109.742207 153.601164 
L 109.742207 153.601164 
C 110.692144 154.108915 111.666438 154.569722 112.661568 154.981919 
C 113.656699 155.394115 114.671468 155.757205 115.702209 156.069877 
z
" clip-path="url(#p0c886311f2)" style="fill: #828282"/>
   </g>
   <g id="patch_118">
    <path d="M 106.823085 159.062457 
C 105.694392 158.459158 104.596 157.800807 103.531875 157.089782 
C 102.467751 156.378757 101.439177 155.615915 100.44987 154.804011 
L 100.44987 154.804011 
C 101.439177 155.615915 102.467751 156.378757 103.531875 157.089782 
C 104.596 157.800807 105.694392 158.459158 106.823085 159.062457 
z
" clip-path="url(#p0c886311f2)" style="fill: #828282"/>
   </g>
   <g id="patch_119">
    <path d="M 106.309732 147.663747 
C 105.554136 147.043646 104.829441 146.38682 104.138263 145.695643 
C 103.447086 145.004466 102.790261 144.27977 102.170159 143.524174 
L 102.170159 143.524174 
C 102.790261 144.27977 103.447086 145.004466 104.138263 145.695643 
C 104.829441 146.38682 105.554136 147.043646 106.309732 147.663747 
z
" clip-path="url(#p0c886311f2)" style="fill: #828282"/>
   </g>
   <g id="patch_120">
    <path d="M 112.91556 134.705651 
C 112.584102 134.301767 112.272673 133.881854 111.982398 133.447427 
C 111.692123 133.013 111.423353 132.564583 111.177057 132.103796 
L 111.177057 132.103796 
C 111.423353 132.564583 111.692123 133.013 111.982398 133.447427 
C 112.272673 133.881854 112.584102 134.301767 112.91556 134.705651 
z
" clip-path="url(#p0c886311f2)" style="fill: #828282"/>
   </g>
   <g id="patch_121">
    <path d="M 98.917717 138.65655 
C 98.456939 137.794497 98.038764 136.91034 97.664702 136.007273 
C 97.29064 135.104207 96.961141 134.183319 96.677396 133.247937 
L 96.677396 133.247937 
C 96.961141 134.183319 97.29064 135.104207 97.664702 136.007273 
C 98.038764 136.91034 98.456939 137.794497 98.917717 138.65655 
z
" clip-path="url(#p0c886311f2)" style="fill: #828282"/>
   </g>
   <g id="patch_122">
    <path d="M 101.102492 131.905598 
C 100.862683 131.115056 100.661833 130.313216 100.500666 129.502975 
C 100.339499 128.692733 100.218209 127.875068 100.137236 127.052931 
L 100.137236 127.052931 
C 100.218209 127.875068 100.339499 128.692733 100.500666 129.502975 
C 100.661833 130.313216 100.862683 131.115056 101.102492 131.905598 
z
" clip-path="url(#p0c886311f2)" style="fill: #828282"/>
   </g>
   <g id="patch_123">
    <path d="M 125.254844 124.579063 
C 125.254844 124.579063 125.254844 124.579063 125.254844 124.579063 
C 125.254844 124.579063 125.254844 124.579063 125.254844 124.579063 
L 125.254844 124.579063 
C 125.254844 124.579063 125.254844 124.579063 125.254844 124.579063 
C 125.254844 124.579063 125.254844 124.579063 125.254844 124.579063 
z
" clip-path="url(#p0c886311f2)" style="fill: #828282"/>
   </g>
   <g id="patch_124">
    <path d="M 91.556036 121.26002 
C 91.664673 120.157007 91.8274 119.059994 92.043628 117.972941 
C 92.259856 116.885888 92.529326 115.810107 92.851062 114.749483 
L 92.851062 114.749483 
C 92.529326 115.810107 92.259856 116.885888 92.043628 117.972941 
C 91.8274 119.059994 91.664673 120.157007 91.556036 121.26002 
z
" clip-path="url(#p0c886311f2)" style="fill: #828282"/>
   </g>
   <g id="patch_125">
    <path d="M 125.254844 124.579063 
C 125.254844 124.579063 125.254844 124.579063 125.254844 124.579063 
C 125.254844 124.579063 125.254844 124.579063 125.254844 124.579063 
L 125.254844 124.579063 
C 125.254844 124.579063 125.254844 124.579063 125.254844 124.579063 
C 125.254844 124.579063 125.254844 124.579063 125.254844 124.579063 
z
" clip-path="url(#p0c886311f2)" style="fill: #828282"/>
   </g>
   <g id="patch_126">
    <path d="M 106.631683 114.624775 
C 106.957501 114.015212 107.313051 113.422012 107.697049 112.847319 
C 108.081046 112.272626 108.493028 111.717133 108.931506 111.182846 
L 108.931506 111.182846 
C 108.493028 111.717133 108.081046 112.272626 107.697049 112.847319 
C 107.313051 113.422012 106.957501 114.015212 106.631683 114.624775 
z
" clip-path="url(#p0c886311f2)" style="fill: #828282"/>
   </g>
   <g id="patch_127">
    <path d="M 103.009885 106.323097 
C 103.60743 105.594986 104.240363 104.896652 104.906398 104.230617 
C 105.572433 103.564582 106.270767 102.931649 106.998878 102.334104 
L 106.998878 102.334104 
C 106.270767 102.931649 105.572433 103.564582 104.906398 104.230617 
C 104.240363 104.896652 103.60743 105.594986 103.009885 106.323097 
z
" clip-path="url(#p0c886311f2)" style="fill: #828282"/>
   </g>
   <g id="patch_128">
    <path d="M 99.437009 93.11994 
C 100.466713 92.274884 101.537287 91.480892 102.644862 90.740834 
C 103.752438 90.000776 104.895681 89.315542 106.070462 88.687609 
L 106.070462 88.687609 
C 104.895681 89.315542 103.752438 90.000776 102.644862 90.740834 
C 101.537287 91.480892 100.466713 92.274884 99.437009 93.11994 
z
" clip-path="url(#p0c886311f2)" style="fill: #828282"/>
   </g>
   <g id="patch_129">
    <path d="M 86.88608 52.796155 
C 89.235642 51.540288 91.645447 50.400535 94.106792 49.381012 
C 96.568136 48.36149 99.078053 47.463428 101.627476 46.690069 
L 101.627476 46.690069 
C 99.078053 47.463428 96.568136 48.36149 94.106792 49.381012 
C 91.645447 50.400535 89.235642 51.540288 86.88608 52.796155 
z
" clip-path="url(#p0c886311f2)" style="fill: #828282"/>
   </g>
   <g id="patch_130">
    <path d="M 93.068079 18.473518 
C 96.541072 17.419997 100.063696 16.537626 103.623229 15.829591 
C 107.182761 15.121556 110.774911 14.58871 114.386703 14.23298 
L 114.386703 14.23298 
C 110.774911 14.58871 107.182761 15.121556 103.623229 15.829591 
C 100.063696 16.537626 96.541072 17.419997 93.068079 18.473518 
z
" clip-path="url(#p0c886311f2)" style="fill: #828282"/>
   </g>
   <g id="patch_131">
    <path d="M 125.254844 124.579063 
C 125.254844 124.579063 125.254844 124.579063 125.254844 124.579063 
C 125.254844 124.579063 125.254844 124.579063 125.254844 124.579063 
L 133.824575 37.569117 
C 130.97661 37.288617 128.116589 37.148113 125.254844 37.148113 
C 122.393098 37.148113 119.533078 37.288617 116.685112 37.569117 
L 125.254844 124.579063 
z
" clip-path="url(#p0c886311f2)" style="fill: none; stroke: #292929; stroke-width: 0.5; stroke-linejoin: miter"/>
   </g>
   <g id="patch_132">
    <path d="M 125.254844 124.579063 
C 125.254844 124.579063 125.254844 124.579063 125.254844 124.579063 
C 125.254844 124.579063 125.254844 124.579063 125.254844 124.579063 
L 151.974108 36.497451 
C 149.091066 35.62289 146.166822 34.890405 143.21194 34.302643 
C 140.257058 33.71488 137.2751 33.272548 134.276835 32.977245 
L 125.254844 124.579063 
z
" clip-path="url(#p0c886311f2)" style="fill: none; stroke: #292929; stroke-width: 0.5; stroke-linejoin: miter"/>
   </g>
   <g id="patch_133">
    <path d="M 125.254844 124.579063 
C 125.254844 124.579063 125.254844 124.579063 125.254844 124.579063 
C 125.254844 124.579063 125.254844 124.579063 125.254844 124.579063 
L 170.403246 40.112343 
C 167.638524 38.634569 164.802914 37.293425 161.906658 36.093756 
C 159.010401 34.894088 156.05699 33.83734 153.057092 32.927331 
L 125.254844 124.579063 
z
" clip-path="url(#p0c886311f2)" style="fill: none; stroke: #292929; stroke-width: 0.5; stroke-linejoin: miter"/>
   </g>
   <g id="patch_134">
    <path d="M 125.254844 124.579063 
C 125.254844 124.579063 125.254844 124.579063 125.254844 124.579063 
C 125.254844 124.579063 125.254844 124.579063 125.254844 124.579063 
L 182.315269 55.050733 
C 180.039503 53.18306 177.673411 51.428247 175.22554 49.792631 
C 172.777668 48.157016 170.250968 46.64257 167.654565 45.254764 
L 125.254844 124.579063 
z
" clip-path="url(#p0c886311f2)" style="fill: none; stroke: #292929; stroke-width: 0.5; stroke-linejoin: miter"/>
   </g>
   <g id="patch_135">
    <path d="M 125.254844 124.579063 
C 125.254844 124.579063 125.254844 124.579063 125.254844 124.579063 
C 125.254844 124.579063 125.254844 124.579063 125.254844 124.579063 
L 209.171042 55.710818 
C 206.916882 52.964116 204.529225 50.329742 202.016695 47.817212 
C 199.504165 45.304682 196.869791 42.917024 194.123088 40.662864 
L 125.254844 124.579063 
z
" clip-path="url(#p0c886311f2)" style="fill: none; stroke: #292929; stroke-width: 0.5; stroke-linejoin: miter"/>
   </g>
   <g id="patch_136">
    <path d="M 125.254844 124.579063 
C 125.254844 124.579063 125.254844 124.579063 125.254844 124.579063 
C 125.254844 124.579063 125.254844 124.579063 125.254844 124.579063 
L 190.150234 89.891754 
C 189.014867 87.767631 187.775895 85.700531 186.437794 83.697922 
C 185.099693 81.695313 183.664077 79.759607 182.136129 77.897798 
L 125.254844 124.579063 
z
" clip-path="url(#p0c886311f2)" style="fill: none; stroke: #292929; stroke-width: 0.5; stroke-linejoin: miter"/>
   </g>
   <g id="patch_137">
    <path d="M 125.254844 124.579063 
C 125.254844 124.579063 125.254844 124.579063 125.254844 124.579063 
C 125.254844 124.579063 125.254844 124.579063 125.254844 124.579063 
L 180.33068 107.87199 
C 179.783833 106.069276 179.148806 104.294497 178.427895 102.554063 
C 177.706984 100.81363 176.901057 99.10964 176.013025 97.448249 
L 125.254844 124.579063 
z
" clip-path="url(#p0c886311f2)" style="fill: none; stroke: #292929; stroke-width: 0.5; stroke-linejoin: miter"/>
   </g>
   <g id="patch_138">
    <path d="M 125.254844 124.579063 
C 125.254844 124.579063 125.254844 124.579063 125.254844 124.579063 
C 125.254844 124.579063 125.254844 124.579063 125.254844 124.579063 
L 150.372451 122.105194 
C 150.291478 121.283057 150.170189 120.465392 150.009022 119.65515 
C 149.847855 118.844909 149.647004 118.043069 149.407196 117.252527 
L 125.254844 124.579063 
z
" clip-path="url(#p0c886311f2)" style="fill: none; stroke: #292929; stroke-width: 0.5; stroke-linejoin: miter"/>
   </g>
   <g id="patch_139">
    <path d="M 125.254844 124.579063 
C 125.254844 124.579063 125.254844 124.579063 125.254844 124.579063 
C 125.254844 124.579063 125.254844 124.579063 125.254844 124.579063 
L 125.254844 124.579063 
C 125.254844 124.579063 125.254844 124.579063 125.254844 124.579063 
C 125.254844 124.579063 125.254844 124.579063 125.254844 124.579063 
L 125.254844 124.579063 
z
" clip-path="url(#p0c886311f2)" style="fill: none; stroke: #292929; stroke-width: 0.5; stroke-linejoin: miter"/>
   </g>
   <g id="patch_140">
    <path d="M 125.254844 124.579063 
C 125.254844 124.579063 125.254844 124.579063 125.254844 124.579063 
C 125.254844 124.579063 125.254844 124.579063 125.254844 124.579063 
L 125.254844 124.579063 
C 125.254844 124.579063 125.254844 124.579063 125.254844 124.579063 
C 125.254844 124.579063 125.254844 124.579063 125.254844 124.579063 
L 125.254844 124.579063 
z
" clip-path="url(#p0c886311f2)" style="fill: none; stroke: #292929; stroke-width: 0.5; stroke-linejoin: miter"/>
   </g>
   <g id="patch_141">
    <path d="M 125.254844 124.579063 
C 125.254844 124.579063 125.254844 124.579063 125.254844 124.579063 
C 125.254844 124.579063 125.254844 124.579063 125.254844 124.579063 
L 125.254844 124.579063 
C 125.254844 124.579063 125.254844 124.579063 125.254844 124.579063 
C 125.254844 124.579063 125.254844 124.579063 125.254844 124.579063 
L 125.254844 124.579063 
z
" clip-path="url(#p0c886311f2)" style="fill: none; stroke: #292929; stroke-width: 0.5; stroke-linejoin: miter"/>
   </g>
   <g id="patch_142">
    <path d="M 125.254844 124.579063 
C 125.254844 124.579063 125.254844 124.579063 125.254844 124.579063 
C 125.254844 124.579063 125.254844 124.579063 125.254844 124.579063 
L 125.254844 124.579063 
C 125.254844 124.579063 125.254844 124.579063 125.254844 124.579063 
C 125.254844 124.579063 125.254844 124.579063 125.254844 124.579063 
L 125.254844 124.579063 
z
" clip-path="url(#p0c886311f2)" style="fill: none; stroke: #292929; stroke-width: 0.5; stroke-linejoin: miter"/>
   </g>
   <g id="patch_143">
    <path d="M 125.254844 124.579063 
C 125.254844 124.579063 125.254844 124.579063 125.254844 124.579063 
C 125.254844 124.579063 125.254844 124.579063 125.254844 124.579063 
L 125.254844 124.579063 
C 125.254844 124.579063 125.254844 124.579063 125.254844 124.579063 
C 125.254844 124.579063 125.254844 124.579063 125.254844 124.579063 
L 125.254844 124.579063 
z
" clip-path="url(#p0c886311f2)" style="fill: none; stroke: #292929; stroke-width: 0.5; stroke-linejoin: miter"/>
   </g>
   <g id="patch_144">
    <path d="M 125.254844 124.579063 
C 125.254844 124.579063 125.254844 124.579063 125.254844 124.579063 
C 125.254844 124.579063 125.254844 124.579063 125.254844 124.579063 
L 125.254844 124.579063 
C 125.254844 124.579063 125.254844 124.579063 125.254844 124.579063 
C 125.254844 124.579063 125.254844 124.579063 125.254844 124.579063 
L 125.254844 124.579063 
z
" clip-path="url(#p0c886311f2)" style="fill: none; stroke: #292929; stroke-width: 0.5; stroke-linejoin: miter"/>
   </g>
   <g id="patch_145">
    <path d="M 125.254844 124.579063 
C 125.254844 124.579063 125.254844 124.579063 125.254844 124.579063 
C 125.254844 124.579063 125.254844 124.579063 125.254844 124.579063 
L 129.267753 137.807851 
C 129.700751 137.676502 130.127039 137.523974 130.545078 137.350817 
C 130.963116 137.177659 131.372401 136.984082 131.771454 136.770784 
L 125.254844 124.579063 
z
" clip-path="url(#p0c886311f2)" style="fill: none; stroke: #292929; stroke-width: 0.5; stroke-linejoin: miter"/>
   </g>
   <g id="patch_146">
    <path d="M 125.254844 124.579063 
C 125.254844 124.579063 125.254844 124.579063 125.254844 124.579063 
C 125.254844 124.579063 125.254844 124.579063 125.254844 124.579063 
L 125.254844 124.579063 
C 125.254844 124.579063 125.254844 124.579063 125.254844 124.579063 
C 125.254844 124.579063 125.254844 124.579063 125.254844 124.579063 
L 125.254844 124.579063 
z
" clip-path="url(#p0c886311f2)" style="fill: none; stroke: #292929; stroke-width: 0.5; stroke-linejoin: miter"/>
   </g>
   <g id="patch_147">
    <path d="M 125.254844 124.579063 
C 125.254844 124.579063 125.254844 124.579063 125.254844 124.579063 
C 125.254844 124.579063 125.254844 124.579063 125.254844 124.579063 
L 125.254844 124.579063 
C 125.254844 124.579063 125.254844 124.579063 125.254844 124.579063 
C 125.254844 124.579063 125.254844 124.579063 125.254844 124.579063 
L 125.254844 124.579063 
z
" clip-path="url(#p0c886311f2)" style="fill: none; stroke: #292929; stroke-width: 0.5; stroke-linejoin: miter"/>
   </g>
   <g id="patch_148">
    <path d="M 125.254844 124.579063 
C 125.254844 124.579063 125.254844 124.579063 125.254844 124.579063 
C 125.254844 124.579063 125.254844 124.579063 125.254844 124.579063 
L 125.254844 124.579063 
C 125.254844 124.579063 125.254844 124.579063 125.254844 124.579063 
C 125.254844 124.579063 125.254844 124.579063 125.254844 124.579063 
L 125.254844 124.579063 
z
" clip-path="url(#p0c886311f2)" style="fill: none; stroke: #292929; stroke-width: 0.5; stroke-linejoin: miter"/>
   </g>
   <g id="patch_149">
    <path d="M 125.254844 124.579063 
C 125.254844 124.579063 125.254844 124.579063 125.254844 124.579063 
C 125.254844 124.579063 125.254844 124.579063 125.254844 124.579063 
L 109.742207 153.601164 
C 110.692144 154.108915 111.666438 154.569722 112.661568 154.981919 
C 113.656699 155.394115 114.671468 155.757205 115.702209 156.069877 
L 125.254844 124.579063 
z
" clip-path="url(#p0c886311f2)" style="fill: none; stroke: #292929; stroke-width: 0.5; stroke-linejoin: miter"/>
   </g>
   <g id="patch_150">
    <path d="M 125.254844 124.579063 
C 125.254844 124.579063 125.254844 124.579063 125.254844 124.579063 
C 125.254844 124.579063 125.254844 124.579063 125.254844 124.579063 
L 100.44987 154.804011 
C 101.439177 155.615915 102.467751 156.378757 103.531875 157.089782 
C 104.596 157.800807 105.694392 158.459158 106.823085 159.062457 
L 125.254844 124.579063 
z
" clip-path="url(#p0c886311f2)" style="fill: none; stroke: #292929; stroke-width: 0.5; stroke-linejoin: miter"/>
   </g>
   <g id="patch_151">
    <path d="M 125.254844 124.579063 
C 125.254844 124.579063 125.254844 124.579063 125.254844 124.579063 
C 125.254844 124.579063 125.254844 124.579063 125.254844 124.579063 
L 102.170159 143.524174 
C 102.790261 144.27977 103.447086 145.004466 104.138263 145.695643 
C 104.829441 146.38682 105.554136 147.043646 106.309732 147.663747 
L 125.254844 124.579063 
z
" clip-path="url(#p0c886311f2)" style="fill: none; stroke: #292929; stroke-width: 0.5; stroke-linejoin: miter"/>
   </g>
   <g id="patch_152">
    <path d="M 125.254844 124.579063 
C 125.254844 124.579063 125.254844 124.579063 125.254844 124.579063 
C 125.254844 124.579063 125.254844 124.579063 125.254844 124.579063 
L 111.177057 132.103796 
C 111.423353 132.564583 111.692123 133.013 111.982398 133.447427 
C 112.272673 133.881854 112.584102 134.301767 112.91556 134.705651 
L 125.254844 124.579063 
z
" clip-path="url(#p0c886311f2)" style="fill: none; stroke: #292929; stroke-width: 0.5; stroke-linejoin: miter"/>
   </g>
   <g id="patch_153">
    <path d="M 125.254844 124.579063 
C 125.254844 124.579063 125.254844 124.579063 125.254844 124.579063 
C 125.254844 124.579063 125.254844 124.579063 125.254844 124.579063 
L 96.677396 133.247937 
C 96.961141 134.183319 97.29064 135.104207 97.664702 136.007273 
C 98.038764 136.91034 98.456939 137.794497 98.917717 138.65655 
L 125.254844 124.579063 
z
" clip-path="url(#p0c886311f2)" style="fill: none; stroke: #292929; stroke-width: 0.5; stroke-linejoin: miter"/>
   </g>
   <g id="patch_154">
    <path d="M 125.254844 124.579063 
C 125.254844 124.579063 125.254844 124.579063 125.254844 124.579063 
C 125.254844 124.579063 125.254844 124.579063 125.254844 124.579063 
L 100.137236 127.052931 
C 100.218209 127.875068 100.339499 128.692733 100.500666 129.502975 
C 100.661833 130.313216 100.862683 131.115056 101.102492 131.905598 
L 125.254844 124.579063 
z
" clip-path="url(#p0c886311f2)" style="fill: none; stroke: #292929; stroke-width: 0.5; stroke-linejoin: miter"/>
   </g>
   <g id="patch_155">
    <path d="M 125.254844 124.579063 
C 125.254844 124.579063 125.254844 124.579063 125.254844 124.579063 
C 125.254844 124.579063 125.254844 124.579063 125.254844 124.579063 
L 125.254844 124.579063 
C 125.254844 124.579063 125.254844 124.579063 125.254844 124.579063 
C 125.254844 124.579063 125.254844 124.579063 125.254844 124.579063 
L 125.254844 124.579063 
z
" clip-path="url(#p0c886311f2)" style="fill: none; stroke: #292929; stroke-width: 0.5; stroke-linejoin: miter"/>
   </g>
   <g id="patch_156">
    <path d="M 125.254844 124.579063 
C 125.254844 124.579063 125.254844 124.579063 125.254844 124.579063 
C 125.254844 124.579063 125.254844 124.579063 125.254844 124.579063 
L 92.851062 114.749483 
C 92.529326 115.810107 92.259856 116.885888 92.043628 117.972941 
C 91.8274 119.059994 91.664673 120.157007 91.556036 121.26002 
L 125.254844 124.579063 
z
" clip-path="url(#p0c886311f2)" style="fill: none; stroke: #292929; stroke-width: 0.5; stroke-linejoin: miter"/>
   </g>
   <g id="patch_157">
    <path d="M 125.254844 124.579063 
C 125.254844 124.579063 125.254844 124.579063 125.254844 124.579063 
C 125.254844 124.579063 125.254844 124.579063 125.254844 124.579063 
L 125.254844 124.579063 
C 125.254844 124.579063 125.254844 124.579063 125.254844 124.579063 
C 125.254844 124.579063 125.254844 124.579063 125.254844 124.579063 
L 125.254844 124.579063 
z
" clip-path="url(#p0c886311f2)" style="fill: none; stroke: #292929; stroke-width: 0.5; stroke-linejoin: miter"/>
   </g>
   <g id="patch_158">
    <path d="M 125.254844 124.579063 
C 125.254844 124.579063 125.254844 124.579063 125.254844 124.579063 
C 125.254844 124.579063 125.254844 124.579063 125.254844 124.579063 
L 108.931506 111.182846 
C 108.493028 111.717133 108.081046 112.272626 107.697049 112.847319 
C 107.313051 113.422012 106.957501 114.015212 106.631683 114.624775 
L 125.254844 124.579063 
z
" clip-path="url(#p0c886311f2)" style="fill: none; stroke: #292929; stroke-width: 0.5; stroke-linejoin: miter"/>
   </g>
   <g id="patch_159">
    <path d="M 125.254844 124.579063 
C 125.254844 124.579063 125.254844 124.579063 125.254844 124.579063 
C 125.254844 124.579063 125.254844 124.579063 125.254844 124.579063 
L 106.998878 102.334104 
C 106.270767 102.931649 105.572433 103.564582 104.906398 104.230617 
C 104.240363 104.896652 103.60743 105.594986 103.009885 106.323097 
L 125.254844 124.579063 
z
" clip-path="url(#p0c886311f2)" style="fill: none; stroke: #292929; stroke-width: 0.5; stroke-linejoin: miter"/>
   </g>
   <g id="patch_160">
    <path d="M 125.254844 124.579063 
C 125.254844 124.579063 125.254844 124.579063 125.254844 124.579063 
C 125.254844 124.579063 125.254844 124.579063 125.254844 124.579063 
L 106.070462 88.687609 
C 104.895681 89.315542 103.752438 90.000776 102.644862 90.740834 
C 101.537287 91.480892 100.466713 92.274884 99.437009 93.11994 
L 125.254844 124.579063 
z
" clip-path="url(#p0c886311f2)" style="fill: none; stroke: #292929; stroke-width: 0.5; stroke-linejoin: miter"/>
   </g>
   <g id="patch_161">
    <path d="M 125.254844 124.579063 
C 125.254844 124.579063 125.254844 124.579063 125.254844 124.579063 
C 125.254844 124.579063 125.254844 124.579063 125.254844 124.579063 
L 101.627476 46.690069 
C 99.078053 47.463428 96.568136 48.36149 94.106792 49.381012 
C 91.645447 50.400535 89.235642 51.540288 86.88608 52.796155 
L 125.254844 124.579063 
z
" clip-path="url(#p0c886311f2)" style="fill: none; stroke: #292929; stroke-width: 0.5; stroke-linejoin: miter"/>
   </g>
   <g id="patch_162">
    <path d="M 125.254844 124.579063 
C 125.254844 124.579063 125.254844 124.579063 125.254844 124.579063 
C 125.254844 124.579063 125.254844 124.579063 125.254844 124.579063 
L 114.386703 14.23298 
C 110.774911 14.58871 107.182761 15.121556 103.623229 15.829591 
C 100.063696 16.537626 96.541072 17.419997 93.068079 18.473518 
L 125.254844 124.579063 
z
" clip-path="url(#p0c886311f2)" style="fill: none; stroke: #292929; stroke-width: 0.5; stroke-linejoin: miter"/>
   </g>
   <g id="PathCollection_1">
    <defs>
     <path id="mc0d6582a7a" d="M 0.193618 7.414054 
L 0.193618 7.414054 
C 0.054922 7.414054 -0.078235 7.358899 -0.176308 7.260826 
C -0.274381 7.162753 -0.329536 7.029596 -0.329536 6.890901 
L -0.329536 5.365008 
L -1.528416 6.56393 
L -1.528416 6.56393 
C -1.577018 6.612704 -1.634775 6.651408 -1.698366 6.677814 
C -1.761958 6.704221 -1.830141 6.717815 -1.898997 6.717815 
C -1.967853 6.717815 -2.036037 6.704221 -2.099628 6.677814 
C -2.163219 6.651408 -2.220976 6.612704 -2.269578 6.56393 
L -2.269578 6.56393 
C -2.318353 6.515327 -2.357056 6.457571 -2.383463 6.393979 
C -2.409869 6.330388 -2.423463 6.262205 -2.423463 6.193348 
C -2.423463 6.124492 -2.409869 6.056309 -2.383463 5.992718 
C -2.357056 5.929126 -2.318353 5.87137 -2.269578 5.822767 
L -0.329536 3.884106 
L -0.329536 0.820937 
L -2.98067 2.351538 
L -3.691824 5.001416 
L -3.691824 5.001416 
C -3.727584 5.135411 -3.815199 5.249836 -3.93523 5.319305 
C -4.055261 5.388775 -4.198123 5.407741 -4.332122 5.371997 
L -4.332122 5.371997 
C -4.466126 5.336237 -4.580558 5.248616 -4.650029 5.128576 
C -4.719499 5.008535 -4.73846 4.865662 -4.702703 4.731657 
L -4.262647 3.092721 
L -5.585535 3.855668 
L -5.585535 3.855668 
C -5.645013 3.890144 -5.710708 3.912561 -5.778854 3.921634 
C -5.847001 3.930706 -5.916272 3.926258 -5.982698 3.908543 
C -6.049125 3.890828 -6.111412 3.860192 -6.165991 3.818391 
C -6.220571 3.77659 -6.266379 3.724437 -6.300791 3.664922 
L -6.300791 3.664922 
C -6.335212 3.605364 -6.35755 3.539597 -6.366524 3.471396 
C -6.375498 3.403194 -6.370933 3.333888 -6.35309 3.267452 
C -6.335248 3.201017 -6.304476 3.138749 -6.26254 3.08422 
C -6.220605 3.029692 -6.168323 2.983966 -6.108695 2.949666 
L -4.785807 2.186762 
L -6.424743 1.746706 
L -6.424743 1.746706 
C -6.558747 1.710946 -6.673179 1.623325 -6.74265 1.503284 
C -6.81212 1.383244 -6.831081 1.240371 -6.795324 1.106366 
L -6.795324 1.106366 
C -6.777471 1.039969 -6.746703 0.977739 -6.704784 0.923241 
C -6.662864 0.868744 -6.61061 0.823041 -6.551015 0.788752 
C -6.491421 0.754464 -6.425647 0.732257 -6.357465 0.723406 
C -6.289282 0.714554 -6.220019 0.71923 -6.153645 0.737166 
L -3.505232 1.44698 
L -0.852424 -0.08496 
L -3.503767 -1.615666 
L -6.153645 -0.905851 
L -6.153645 -0.905851 
C -6.22011 -0.887939 -6.289462 -0.883321 -6.357716 -0.892262 
C -6.42597 -0.901202 -6.491793 -0.923527 -6.551403 -0.957953 
C -6.611013 -0.992379 -6.663247 -1.038234 -6.705103 -1.092883 
C -6.746958 -1.147533 -6.777619 -1.209911 -6.795324 -1.276432 
L -6.795324 -1.276432 
C -6.831068 -1.410431 -6.812101 -1.553293 -6.742632 -1.673324 
C -6.673162 -1.793355 -6.558738 -1.88097 -6.424743 -1.91673 
L -4.785807 -2.355447 
L -6.108695 -3.119732 
L -6.108695 -3.119732 
C -6.228699 -3.188976 -6.316415 -3.303132 -6.352417 -3.436921 
C -6.388419 -3.57071 -6.369839 -3.713469 -6.300791 -3.833586 
L -6.300791 -3.833586 
C -6.266491 -3.893214 -6.220765 -3.945496 -6.166237 -3.987431 
C -6.111708 -4.029367 -6.04944 -4.060139 -5.983005 -4.077981 
C -5.91657 -4.095823 -5.847263 -4.100389 -5.779062 -4.091415 
C -5.71086 -4.082441 -5.645094 -4.060102 -5.585535 -4.025682 
L -4.262647 -3.261396 
L -4.702703 -4.900332 
L -4.702703 -4.900332 
C -4.73846 -5.034337 -4.719499 -5.17721 -4.650029 -5.29725 
C -4.580558 -5.417291 -4.466126 -5.504912 -4.332122 -5.540672 
L -4.332122 -5.540672 
C -4.19831 -5.576464 -4.055613 -5.557686 -3.935617 -5.488496 
C -3.81562 -5.419305 -3.727882 -5.305212 -3.691824 -5.171472 
L -2.982009 -2.521594 
L -0.329411 -0.990302 
L -0.329411 -4.051588 
L -2.269453 -5.991589 
L -2.269453 -5.991589 
C -2.318227 -6.040191 -2.356931 -6.097947 -2.383337 -6.161539 
C -2.409744 -6.22513 -2.423338 -6.293314 -2.423338 -6.36217 
C -2.423338 -6.431026 -2.409744 -6.499209 -2.383337 -6.5628 
C -2.356931 -6.626392 -2.318227 -6.684149 -2.269453 -6.732751 
L -2.269453 -6.732751 
C -2.22085 -6.781526 -2.163094 -6.820229 -2.099502 -6.846635 
C -2.035911 -6.873042 -1.967728 -6.886636 -1.898871 -6.886636 
C -1.830015 -6.886636 -1.761832 -6.873042 -1.698241 -6.846635 
C -1.634649 -6.820229 -1.576893 -6.781526 -1.52829 -6.732751 
L -0.329411 -5.533829 
L -0.329411 -7.059722 
L -0.329411 -7.059722 
C -0.329411 -7.198418 -0.274255 -7.331575 -0.176182 -7.429647 
C -0.07811 -7.52772 0.055047 -7.582875 0.193743 -7.582875 
L 0.193743 -7.582875 
C 0.332439 -7.582875 0.465596 -7.52772 0.563669 -7.429647 
C 0.661741 -7.331575 0.716897 -7.198418 0.716897 -7.059722 
L 0.716897 -5.533829 
L 1.915777 -6.732751 
L 1.915777 -6.732751 
C 1.964379 -6.781526 2.022136 -6.820229 2.085727 -6.846635 
C 2.149318 -6.873042 2.217502 -6.886636 2.286358 -6.886636 
C 2.355214 -6.886636 2.423397 -6.873042 2.486989 -6.846635 
C 2.55058 -6.820229 2.608337 -6.781526 2.656939 -6.732751 
L 2.656939 -6.732751 
C 2.705714 -6.684149 2.744417 -6.626392 2.770823 -6.5628 
C 2.79723 -6.499209 2.810824 -6.431026 2.810824 -6.36217 
C 2.810824 -6.293314 2.79723 -6.22513 2.770823 -6.161539 
C 2.744417 -6.097947 2.705714 -6.040191 2.656939 -5.991589 
L 0.716897 -4.051588 
L 0.716897 -0.991139 
L 3.369495 -2.522954 
L 4.07931 -5.171367 
L 4.07931 -5.171367 
C 4.115368 -5.305107 4.203106 -5.4192 4.323103 -5.488391 
C 4.4431 -5.557582 4.585797 -5.576359 4.719608 -5.540567 
L 4.719608 -5.540567 
C 4.853612 -5.504807 4.968045 -5.417186 5.037515 -5.297146 
C 5.106986 -5.177105 5.125946 -5.034232 5.090189 -4.900227 
L 4.650133 -3.262673 
L 5.973022 -4.025577 
L 5.973022 -4.025577 
C 6.03258 -4.059998 6.098346 -4.082336 6.166548 -4.09131 
C 6.234749 -4.100284 6.304056 -4.095719 6.370491 -4.077876 
C 6.436926 -4.060034 6.499194 -4.029262 6.553723 -3.987327 
C 6.608252 -3.945391 6.653978 -3.893109 6.688277 -3.833481 
L 6.688277 -3.833481 
C 6.757325 -3.713365 6.775905 -3.570605 6.739903 -3.436816 
C 6.703901 -3.303027 6.616186 -3.188871 6.496181 -3.119628 
L 5.173293 -2.355342 
L 6.812229 -1.916625 
L 6.812229 -1.916625 
C 6.946224 -1.880865 7.060649 -1.79325 7.130118 -1.67322 
C 7.199588 -1.553189 7.218554 -1.410326 7.18281 -1.276327 
L 7.18281 -1.276327 
C 7.165106 -1.209806 7.134445 -1.147429 7.092589 -1.092779 
C 7.050733 -1.038129 6.998499 -0.992274 6.938889 -0.957848 
C 6.879279 -0.923422 6.813456 -0.901098 6.745202 -0.892157 
C 6.676949 -0.883217 6.607597 -0.887835 6.541131 -0.905746 
L 3.891253 -1.615561 
L 1.239492 -0.084604 
L 3.892718 1.447085 
L 6.541131 0.73727 
L 6.541131 0.73727 
C 6.674948 0.701466 6.817656 0.720237 6.937662 0.789429 
C 7.057669 0.858621 7.145413 0.972721 7.181471 1.10647 
L 7.181471 1.10647 
C 7.217274 1.240293 7.198497 1.383006 7.129297 1.503014 
C 7.060096 1.623021 6.945986 1.710762 6.812229 1.74681 
L 5.173293 2.186866 
L 6.496181 2.949771 
L 6.496181 2.949771 
C 6.555697 2.984183 6.607849 3.029991 6.649651 3.08457 
C 6.691452 3.13915 6.722088 3.201437 6.739803 3.267863 
C 6.757517 3.33429 6.761966 3.403561 6.752893 3.471707 
C 6.743821 3.539854 6.721404 3.605549 6.686927 3.665026 
L 6.686927 3.665026 
C 6.617458 3.784813 6.503196 3.87225 6.369416 3.907994 
C 6.235636 3.943739 6.092989 3.924946 5.973032 3.855772 
L 4.650144 3.091487 
L 5.08886 4.731783 
L 5.08886 4.731783 
C 5.124664 4.865606 5.105887 5.008319 5.036686 5.128326 
C 4.967486 5.248334 4.853376 5.336074 4.719619 5.372123 
L 4.719619 5.372123 
C 4.585619 5.407867 4.442757 5.3889 4.322726 5.319431 
C 4.202695 5.249961 4.115081 5.135537 4.07932 5.001542 
L 3.368166 2.351664 
L 0.717033 0.821063 
L 0.717033 3.884232 
L 2.657075 5.822893 
L 2.657075 5.822893 
C 2.70585 5.871495 2.744553 5.929252 2.770959 5.992843 
C 2.797366 6.056435 2.81096 6.124618 2.81096 6.193474 
C 2.81096 6.26233 2.797366 6.330514 2.770959 6.394105 
C 2.744553 6.457696 2.70585 6.515453 2.657075 6.564055 
L 2.657075 6.564055 
C 2.608473 6.61283 2.550716 6.651533 2.487125 6.67794 
C 2.423533 6.704346 2.35535 6.71794 2.286494 6.71794 
C 2.217638 6.71794 2.149454 6.704346 2.085863 6.67794 
C 2.022272 6.651533 1.964515 6.61283 1.915913 6.564055 
L 0.717033 5.365133 
L 0.717033 6.891026 
L 0.717033 6.891026 
C 0.717033 7.029722 0.661877 7.162879 0.563805 7.260952 
C 0.465732 7.359024 0.332575 7.41418 0.193879 7.41418 
L 0.193618 7.414054 
z
"/>
    </defs>
    <g clip-path="url(#p0c886311f2)">
     <use xlink:href="#mc0d6582a7a" x="144.872124" y="43.096473" style="fill: #9e2096; fill-opacity: 0.7"/>
    </g>
   </g>
   <g id="patch_163">
    <path d="M 125.254844 13.699063 
C 110.694216 13.699063 96.275171 16.567189 82.822905 22.1393 
C 69.370638 27.711411 57.146763 35.879144 46.850844 46.175063 
C 36.554925 56.470982 28.387192 68.694857 22.815081 82.147124 
C 17.24297 95.59939 14.374844 110.018434 14.374844 124.579063 
C 14.374844 139.139691 17.24297 153.558735 22.815081 167.011001 
C 28.387192 180.463268 36.554925 192.687143 46.850844 202.983062 
C 57.146763 213.278981 69.370638 221.446714 82.822905 227.018825 
C 96.275171 232.590936 110.694216 235.459063 125.254844 235.459063 
C 139.815472 235.459063 154.234516 232.590936 167.686783 227.018825 
C 181.139049 221.446714 193.362925 213.278981 203.658844 202.983062 
C 213.954763 192.687143 222.122495 180.463268 227.694606 167.011001 
C 233.266717 153.558735 236.134844 139.139691 236.134844 124.579063 
C 236.134844 110.018434 233.266717 95.59939 227.694606 82.147124 
C 222.122495 68.694857 213.954763 56.470982 203.658844 46.175063 
C 193.362925 35.879144 181.139049 27.711411 167.686783 22.1393 
C 154.234516 16.567189 139.815472 13.699063 125.254844 13.699063 
" style="fill: none; stroke: #000000; stroke-width: 0.8; stroke-linejoin: miter; stroke-linecap: square"/>
   </g>
  </g>
 </g>
 <defs>
  <clipPath id="p0c886311f2">
   <path d="M 236.134844 124.579063 
C 236.134844 110.018434 233.266717 95.59939 227.694606 82.147124 
C 222.122495 68.694857 213.954763 56.470982 203.658844 46.175063 
C 193.362925 35.879144 181.139049 27.711411 167.686783 22.1393 
C 154.234516 16.567189 139.815472 13.699063 125.254844 13.699063 
C 110.694216 13.699063 96.275171 16.567189 82.822905 22.1393 
C 69.370638 27.711411 57.146763 35.879144 46.850844 46.175063 
C 36.554925 56.470982 28.387192 68.694857 22.815081 82.147124 
C 17.24297 95.59939 14.374844 110.018434 14.374844 124.579062 
C 14.374844 139.139691 17.24297 153.558735 22.815081 167.011001 
C 28.387192 180.463268 36.554925 192.687143 46.850844 202.983062 
C 57.146763 213.278981 69.370638 221.446714 82.822905 227.018825 
C 96.275171 232.590936 110.694216 235.459063 125.254844 235.459063 
C 139.815472 235.459063 154.234516 232.590936 167.686783 227.018825 
C 181.139049 221.446714 193.362925 213.278981 203.658844 202.983062 
C 213.954763 192.687143 222.122495 180.463268 227.694606 167.011001 
C 233.266717 153.558735 236.134844 139.139691 236.134844 124.579063 
M 125.254844 124.579063 
C 125.254844 124.579063 125.254844 124.579063 125.254844 124.579063 
C 125.254844 124.579063 125.254844 124.579063 125.254844 124.579063 
C 125.254844 124.579063 125.254844 124.579063 125.254844 124.579063 
C 125.254844 124.579063 125.254844 124.579063 125.254844 124.579063 
C 125.254844 124.579063 125.254844 124.579063 125.254844 124.579063 
C 125.254844 124.579063 125.254844 124.579063 125.254844 124.579063 
C 125.254844 124.579063 125.254844 124.579063 125.254844 124.579063 
C 125.254844 124.579063 125.254844 124.579063 125.254844 124.579063 
C 125.254844 124.579063 125.254844 124.579063 125.254844 124.579063 
C 125.254844 124.579063 125.254844 124.579063 125.254844 124.579063 
C 125.254844 124.579063 125.254844 124.579063 125.254844 124.579063 
C 125.254844 124.579063 125.254844 124.579063 125.254844 124.579063 
C 125.254844 124.579063 125.254844 124.579063 125.254844 124.579063 
C 125.254844 124.579063 125.254844 124.579063 125.254844 124.579063 
C 125.254844 124.579063 125.254844 124.579063 125.254844 124.579063 
C 125.254844 124.579063 125.254844 124.579063 125.254844 124.579063 
z
"/>
  </clipPath>
 </defs>
</svg>
