<?xml version="1.0" encoding="utf-8" standalone="no"?>
<!DOCTYPE svg PUBLIC "-//W3C//DTD SVG 1.1//EN"
  "http://www.w3.org/Graphics/SVG/1.1/DTD/svg11.dtd">
<svg xmlns:xlink="http://www.w3.org/1999/xlink" width="248.410469pt" height="249.158125pt" viewBox="0 0 248.410469 249.158125" xmlns="http://www.w3.org/2000/svg" version="1.1">
 <title>Ski Rose for Blidinje - Risovac</title>
 <metadata>
  <rdf:RDF xmlns:dc="http://purl.org/dc/elements/1.1/" xmlns:cc="http://creativecommons.org/ns#" xmlns:rdf="http://www.w3.org/1999/02/22-rdf-syntax-ns#">
   <cc:Work>
    <dc:type rdf:resource="http://purl.org/dc/dcmitype/StillImage"/>
    <dc:title>Ski Rose for Blidinje - Risovac</dc:title>
    <dc:date>2025-03-22T10:40:54.834501</dc:date>
    <dc:description>A 32-bin stacked histogram of downhill ski run orientations colored by difficulty.</dc:description>
    <dc:format>image/svg+xml</dc:format>
    <dc:source>https://openskimap.org/?obj=a81c4a97651ecacb5044bf9a13471e020c1068da</dc:source>
    <dc:creator>
     <cc:Agent>
      <dc:title>https://github.com/dhimmel/openskistats</dc:title>
     </cc:Agent>
    </dc:creator>
    <dc:rights>
     <cc:Agent>
      <dc:title>https://creativecommons.org/licenses/by/4.0/</dc:title>
     </cc:Agent>
    </dc:rights>
   </cc:Work>
  </rdf:RDF>
 </metadata>
 <defs>
  <style type="text/css">*{stroke-linejoin: round; stroke-linecap: butt}</style>
 </defs>
 <g id="figure_1">
  <g id="patch_1">
   <path d="M 0 249.158125 
L 248.410469 249.158125 
L 248.410469 0 
L 0 0 
z
" style="fill: #ffffff"/>
  </g>
  <g id="axes_1">
   <g id="patch_2">
    <path d="M 236.134844 124.579063 
C 236.134844 110.018434 233.266717 95.59939 227.694606 82.147124 
C 222.122495 68.694857 213.954763 56.470982 203.658844 46.175063 
C 193.362925 35.879144 181.139049 27.711411 167.686783 22.1393 
C 154.234516 16.567189 139.815472 13.699062 125.254844 13.699062 
C 110.694216 13.699062 96.275171 16.567189 82.822905 22.1393 
C 69.370638 27.711411 57.146763 35.879144 46.850844 46.175063 
C 36.554925 56.470982 28.387192 68.694857 22.815081 82.147124 
C 17.24297 95.59939 14.374844 110.018434 14.374844 124.579062 
C 14.374844 139.139691 17.24297 153.558735 22.815081 167.011001 
C 28.387192 180.463268 36.554925 192.687143 46.850844 202.983062 
C 57.146763 213.278981 69.370638 221.446714 82.822905 227.018825 
C 96.275171 232.590936 110.694216 235.459063 125.254844 235.459063 
C 139.815472 235.459063 154.234516 232.590936 167.686783 227.018825 
C 181.139049 221.446714 193.362925 213.278981 203.658844 202.983062 
C 213.954763 192.687143 222.122495 180.463268 227.694606 167.011001 
C 233.266717 153.558735 236.134844 139.139691 236.134844 124.579063 
M 125.254844 124.579063 
C 125.254844 124.579063 125.254844 124.579063 125.254844 124.579063 
C 125.254844 124.579063 125.254844 124.579063 125.254844 124.579063 
C 125.254844 124.579063 125.254844 124.579063 125.254844 124.579063 
C 125.254844 124.579063 125.254844 124.579063 125.254844 124.579063 
C 125.254844 124.579063 125.254844 124.579063 125.254844 124.579063 
C 125.254844 124.579063 125.254844 124.579063 125.254844 124.579063 
C 125.254844 124.579063 125.254844 124.579063 125.254844 124.579063 
C 125.254844 124.579063 125.254844 124.579063 125.254844 124.579063 
C 125.254844 124.579063 125.254844 124.579063 125.254844 124.579063 
C 125.254844 124.579063 125.254844 124.579063 125.254844 124.579063 
C 125.254844 124.579063 125.254844 124.579063 125.254844 124.579063 
C 125.254844 124.579063 125.254844 124.579063 125.254844 124.579063 
C 125.254844 124.579063 125.254844 124.579063 125.254844 124.579063 
C 125.254844 124.579063 125.254844 124.579063 125.254844 124.579063 
C 125.254844 124.579063 125.254844 124.579063 125.254844 124.579063 
C 125.254844 124.579063 125.254844 124.579063 125.254844 124.579063 
z
" style="fill: #ffffff"/>
   </g>
   <g id="PolyCollection_1">
    <defs>
     <path id="ma5d21605ad" d="M 235.233412 -137.109538 
L 235.233412 -137.109538 
L 234.259501 -135.075017 
L 233.193543 -133.074022 
L 232.055643 -131.111279 
L 230.860899 -129.189922 
L 229.83713 -127.317646 
L 228.554685 -125.480547 
L 227.234564 -123.689099 
L 225.880171 -121.944096 
L 224.494294 -120.246175 
L 223.300073 -118.582359 
L 221.857929 -116.976235 
L 220.390794 -115.418512 
L 219.119813 -113.8845 
L 217.607705 -112.420578 
L 216.076223 -111.005716 
L 214.743343 -109.603824 
L 213.177291 -108.2836 
L 211.810592 -106.969096 
L 210.4285 -105.696518 
L 208.82214 -104.51633 
L 207.41513 -103.330968 
L 205.99695 -102.187295 
L 204.568955 -101.085152 
L 203.132496 -100.024333 
L 201.688914 -99.004581 
L 200.239544 -98.025587 
L 198.785715 -97.086996 
L 197.328744 -96.188398 
L 195.869939 -95.329332 
L 194.410598 -94.509285 
L 193.136031 -93.643823 
L 191.676336 -92.897636 
L 190.219794 -92.188733 
L 188.942324 -91.425459 
L 187.66393 -90.693693 
L 186.217077 -90.08829 
L 184.942765 -89.42019 
L 183.67026 -88.782049 
L 182.400409 -88.173323 
L 180.979552 -87.695683 
L 179.721061 -87.145469 
L 178.467723 -86.622684 
L 177.220302 -86.126646 
L 176.119249 -85.549432 
L 174.881986 -85.103851 
L 173.652715 -84.682936 
L 172.4321 -84.285879 
L 171.345214 -83.801748 
L 170.139698 -83.449671 
L 168.944595 -83.119037 
L 167.873092 -82.698226 
L 166.696208 -82.408024 
L 165.636037 -82.026164 
L 164.580301 -81.662856 
L 163.43185 -81.427807 
L 162.38969 -81.099744 
L 161.35296 -80.788545 
L 160.236026 -80.601689 
L 159.214637 -80.321799 
L 158.199442 -80.056994 
L 157.190649 -79.806715 
L 156.188441 -79.570399 
L 155.192977 -79.347477 
L 154.20439 -79.137378 
L 153.222786 -78.939528 
L 152.248249 -78.753355 
L 151.280832 -78.578284 
L 150.320566 -78.413744 
L 149.367454 -78.259169 
L 148.421473 -78.113993 
L 147.482572 -77.97766 
L 146.588555 -77.766507 
L 145.660576 -77.649092 
L 144.739461 -77.539035 
L 143.825063 -77.435815 
L 142.94416 -77.266836 
L 142.040035 -77.179146 
L 141.142142 -77.096934 
L 140.270092 -76.956779 
L 139.381627 -76.887842 
L 138.498729 -76.823154 
L 137.634793 -76.709353 
L 136.760169 -76.655934 
L 135.890283 -76.605696 
L 135.033365 -76.516096 
L 134.170326 -76.475424 
L 133.316938 -76.401885 
L 132.459755 -76.369876 
L 131.609351 -76.31179 
L 130.756951 -76.287691 
L 129.906952 -76.265074 
L 129.060172 -76.22778 
L 128.213087 -76.21221 
L 127.367585 -76.189338 
L 126.522205 -76.180481 
L 125.677287 -76.171852 
L 124.832407 -76.172615 
L 123.987482 -76.180467 
L 123.142469 -76.19772 
L 122.296598 -76.212172 
L 121.45077 -76.243729 
L 120.60273 -76.265017 
L 119.752729 -76.287625 
L 118.904003 -76.339641 
L 118.049921 -76.3698 
L 117.198621 -76.436972 
L 116.339347 -76.475347 
L 115.484892 -76.558216 
L 114.619389 -76.605626 
L 113.749505 -76.655876 
L 112.888577 -76.762256 
L 112.01095 -76.823123 
L 111.128059 -76.887835 
L 110.259449 -77.019747 
L 109.36756 -77.096978 
L 108.469682 -77.179227 
L 107.59252 -77.339032 
L 106.684686 -77.435971 
L 105.770313 -77.539244 
L 104.884109 -77.72958 
L 103.959151 -77.849929 
L 103.027295 -77.978037 
L 102.08844 -78.114444 
L 101.14251 -78.2597 
L 100.189456 -78.414362 
L 99.28261 -78.673296 
L 98.318661 -78.850499 
L 97.34765 -79.038661 
L 96.369627 -79.238354 
L 95.384669 -79.450151 
L 94.392879 -79.674625 
L 93.394385 -79.912346 
L 92.311351 -80.058488 
L 91.296297 -80.323423 
L 90.275059 -80.603446 
L 89.24787 -80.899111 
L 88.214985 -81.21096 
L 87.079814 -81.430041 
L 86.032734 -81.77564 
L 84.980869 -82.139149 
L 83.816169 -82.410761 
L 82.752183 -82.811814 
L 81.568364 -83.122141 
L 80.493908 -83.563222 
L 79.292843 -83.915319 
L 78.081913 -84.289574 
L 76.993556 -84.795527 
L 75.768654 -85.21597 
L 74.535724 -85.660913 
L 73.295451 -86.131134 
L 72.04855 -86.627382 
L 70.79576 -87.150371 
L 69.537844 -87.700785 
L 68.275586 -88.279272 
L 67.009794 -88.88645 
L 65.741295 -89.522903 
L 64.470933 -90.189181 
L 63.028507 -90.792918 
L 61.75394 -91.522585 
L 60.302738 -92.195137 
L 59.027917 -92.990439 
L 57.572366 -93.73438 
L 56.301367 -94.597238 
L 54.846022 -95.414774 
L 53.391137 -96.271196 
L 51.938008 -97.167021 
L 50.487942 -98.102714 
L 49.042257 -99.078688 
L 47.602281 -100.095303 
L 46.169347 -101.152871 
L 44.744799 -102.251651 
L 43.329986 -103.391854 
L 41.926261 -104.57364 
L 40.323549 -105.750248 
L 38.944574 -107.01904 
L 37.580908 -108.329659 
L 36.018238 -109.645976 
L 34.688214 -111.043789 
L 33.159921 -112.454536 
L 31.650898 -113.91424 
L 30.382476 -115.443893 
L 28.918195 -116.997204 
L 27.478764 -118.598821 
L 26.286712 -120.258021 
L 24.903196 -121.951262 
L 23.550901 -123.691506 
L 22.232516 -125.478125 
L 21.16956 -127.304632 
L 19.927843 -129.177739 
L 18.732324 -131.094259 
L 17.591405 -133.052359 
L 16.518617 -135.04917 
L 15.72677 -137.05821 
L 15.115622 -137.127842 
L 15.115622 -137.127842 
L 15.066095 -135.189032 
L 14.82215 -133.270304 
L 14.610592 -131.346355 
L 14.622575 -129.409372 
L 14.475614 -127.479919 
L 14.401578 -125.546464 
L 14.511198 -123.612617 
L 14.460907 -121.677821 
L 14.485684 -119.742777 
L 14.645698 -117.813917 
L 14.73524 -115.880981 
L 14.952904 -113.958194 
L 15.106549 -112.02925 
L 15.431182 -110.120503 
L 15.597296 -108.190632 
L 15.980181 -106.292755 
L 16.261683 -104.378374 
L 16.647791 -102.482708 
L 17.117532 -100.605598 
L 17.493936 -98.707958 
L 17.963347 -96.831595 
L 18.520424 -94.978988 
L 18.991989 -93.102571 
L 19.546714 -91.249417 
L 20.191928 -89.425503 
L 20.758896 -87.575107 
L 21.401797 -85.75 
L 22.136807 -83.959788 
L 22.84032 -82.157578 
L 23.636841 -80.394298 
L 24.364416 -78.600645 
L 25.215506 -76.862746 
L 26.114122 -75.149322 
L 26.943104 -73.40121 
L 27.825244 -71.679106 
L 28.769964 -69.990544 
L 29.725196 -68.307799 
L 30.728872 -66.653473 
L 31.740551 -65.003888 
L 32.992623 -63.512031 
L 34.817793 -62.4234 
L 36.738461 -61.440941 
L 38.606313 -60.462523 
L 40.488039 -59.535206 
L 42.438714 -58.704138 
L 44.319554 -57.861158 
L 46.202071 -57.061617 
L 48.015956 -56.243867 
L 49.885274 -55.515576 
L 51.751289 -54.826793 
L 53.549954 -54.114864 
L 55.395288 -53.489463 
L 57.179353 -52.842464 
L 58.95586 -52.226418 
L 60.77524 -51.698128 
L 62.532754 -51.140931 
L 64.233547 -50.55431 
L 65.973621 -50.052352 
L 67.703313 -49.576447 
L 69.422213 -49.125593 
L 71.094088 -48.648483 
L 72.792219 -48.24547 
L 74.442527 -47.810026 
L 76.118831 -47.450972 
L 77.754174 -47.065015 
L 79.377095 -46.6941 
L 80.994668 -46.349466 
L 82.599696 -46.018053 
L 84.199037 -45.711592 
L 85.785873 -45.416553 
L 87.366815 -45.145159 
L 88.93545 -44.883427 
L 90.478635 -44.599259 
L 92.03373 -44.3762 
L 93.577067 -44.16034 
L 95.099263 -43.924297 
L 96.629461 -43.743476 
L 98.138574 -43.537074 
L 99.651097 -43.374352 
L 101.147891 -43.195354 
L 102.639317 -43.030108 
L 104.133756 -42.909876 
L 105.614046 -42.769251 
L 107.089636 -42.641103 
L 108.560769 -42.525064 
L 110.030814 -42.437548 
L 111.49323 -42.342903 
L 112.952085 -42.25938 
L 114.407685 -42.186713 
L 115.860351 -42.12466 
L 117.310414 -42.073008 
L 118.758215 -42.03157 
L 120.204103 -42.000188 
L 121.648435 -41.978732 
L 123.091573 -41.967104 
L 124.533914 -41.968641 
L 125.975802 -41.965452 
L 127.418102 -41.967545 
L 128.861223 -41.979394 
L 130.30553 -42.001068 
L 131.751386 -42.032668 
L 133.199147 -42.074323 
L 134.649162 -42.12619 
L 136.101773 -42.188455 
L 137.557311 -42.261331 
L 139.016096 -42.345061 
L 140.478436 -42.439909 
L 141.948331 -42.527952 
L 143.419363 -42.64421 
L 144.894844 -42.772573 
L 146.375018 -42.913407 
L 147.869435 -43.033481 
L 149.360745 -43.198905 
L 150.857416 -43.378077 
L 152.369651 -43.541445 
L 153.878614 -43.748029 
L 155.408833 -43.928556 
L 156.930884 -44.16475 
L 158.473841 -44.381308 
L 160.028993 -44.603995 
L 161.572019 -44.888294 
L 163.140203 -45.150754 
L 164.721247 -45.421703 
L 166.307581 -45.717487 
L 167.907058 -46.023456 
L 169.511534 -46.355627 
L 171.12928 -46.699724 
L 172.751597 -47.071405 
L 174.417273 -47.409506 
L 176.063248 -47.815937 
L 177.712875 -48.252154 
L 179.410775 -48.655247 
L 181.082945 -49.131714 
L 182.80163 -49.58263 
L 184.531106 -50.058588 
L 186.270964 -50.56059 
L 188.020748 -51.089631 
L 189.779949 -51.646698 
L 191.548005 -52.232772 
L 193.324299 -52.848824 
L 195.108153 -53.495819 
L 196.952715 -54.121761 
L 198.751172 -54.833651 
L 200.617535 -55.521879 
L 202.486089 -56.250629 
L 204.299785 -57.068305 
L 206.182683 -57.8673 
L 208.062796 -58.710643 
L 210.013332 -59.541587 
L 211.895517 -60.468337 
L 213.762787 -61.44696 
L 215.683539 -62.429142 
L 217.509367 -63.517126 
L 218.762581 -65.008064 
L 219.784565 -66.651175 
L 220.788782 -68.305272 
L 221.734641 -69.99342 
L 222.690114 -71.676027 
L 223.571752 -73.39852 
L 224.480898 -75.106777 
L 225.250844 -76.883417 
L 226.068034 -78.635845 
L 226.83944 -80.408823 
L 227.669352 -82.157584 
L 228.359958 -83.964878 
L 229.090196 -85.756615 
L 229.699246 -87.59336 
L 230.381515 -89.40417 
L 230.943245 -91.255638 
L 231.524382 -93.100591 
L 232.059582 -94.959487 
L 232.549187 -96.830859 
L 233.068224 -98.69536 
L 233.463052 -100.58988 
L 233.813907 -102.492471 
L 234.246093 -104.378728 
L 234.516038 -106.295009 
L 234.875807 -108.1961 
L 235.11782 -110.115327 
L 235.403885 -112.029164 
L 235.558721 -113.958007 
L 235.77219 -115.881159 
L 235.802609 -117.817672 
L 235.986637 -119.744408 
L 236.094357 -121.676628 
L 236.05352 -123.612137 
L 236.129575 -125.546652 
L 235.979425 -127.478488 
L 235.949686 -129.412104 
L 235.924112 -131.347885 
L 235.675126 -133.269327 
L 235.585343 -135.202681 
L 235.233412 -137.109538 
z
" style="stroke: #ffee9c"/>
    </defs>
    <g clip-path="url(#pdade7b3317)">
     <use xlink:href="#ma5d21605ad" x="0" y="249.158125" style="fill: #ffee9c; stroke: #ffee9c"/>
    </g>
   </g>
   <g id="matplotlib.axis_1">
    <g id="xtick_1">
     <g id="line2d_1">
      <path d="M 125.254844 124.579062 
L 125.254844 13.699062 
" clip-path="url(#pdade7b3317)" style="fill: none; stroke: #b0b0b0; stroke-width: 0.8; stroke-linecap: square"/>
     </g>
     <g id="text_1">
      <!-- N -->
      <g transform="translate(121.070469 7.958437) scale(0.1 -0.1)">
       <defs>
        <path id="DejaVuSans-Bold-4e" d="M 588 4666 
L 1931 4666 
L 3628 1466 
L 3628 4666 
L 4769 4666 
L 4769 0 
L 3425 0 
L 1728 3200 
L 1728 0 
L 588 0 
L 588 4666 
z
" transform="scale(0.015625)"/>
       </defs>
       <use xlink:href="#DejaVuSans-Bold-4e"/>
      </g>
     </g>
    </g>
    <g id="xtick_2">
     <g id="line2d_2">
      <path d="M 125.254844 124.579062 
L 203.658844 46.175063 
" clip-path="url(#pdade7b3317)" style="fill: none; stroke: #b0b0b0; stroke-width: 0.8; stroke-linecap: square"/>
     </g>
    </g>
    <g id="xtick_3">
     <g id="line2d_3">
      <path d="M 125.254844 124.579062 
L 236.134844 124.579062 
" clip-path="url(#pdade7b3317)" style="fill: none; stroke: #b0b0b0; stroke-width: 0.8; stroke-linecap: square"/>
     </g>
     <g id="text_2">
      <!-- E -->
      <g transform="translate(241.219219 127.338437) scale(0.1 -0.1)">
       <defs>
        <path id="DejaVuSans-Bold-45" d="M 588 4666 
L 3834 4666 
L 3834 3756 
L 1791 3756 
L 1791 2888 
L 3713 2888 
L 3713 1978 
L 1791 1978 
L 1791 909 
L 3903 909 
L 3903 0 
L 588 0 
L 588 4666 
z
" transform="scale(0.015625)"/>
       </defs>
       <use xlink:href="#DejaVuSans-Bold-45"/>
      </g>
     </g>
    </g>
    <g id="xtick_4">
     <g id="line2d_4">
      <path d="M 125.254844 124.579062 
L 203.658844 202.983062 
" clip-path="url(#pdade7b3317)" style="fill: none; stroke: #b0b0b0; stroke-width: 0.8; stroke-linecap: square"/>
     </g>
    </g>
    <g id="xtick_5">
     <g id="line2d_5">
      <path d="M 125.254844 124.579062 
L 125.254844 235.459063 
" clip-path="url(#pdade7b3317)" style="fill: none; stroke: #b0b0b0; stroke-width: 0.8; stroke-linecap: square"/>
     </g>
     <g id="text_3">
      <!-- S -->
      <g transform="translate(121.654062 246.718437) scale(0.1 -0.1)">
       <defs>
        <path id="DejaVuSans-Bold-53" d="M 3834 4519 
L 3834 3531 
Q 3450 3703 3084 3790 
Q 2719 3878 2394 3878 
Q 1963 3878 1756 3759 
Q 1550 3641 1550 3391 
Q 1550 3203 1689 3098 
Q 1828 2994 2194 2919 
L 2706 2816 
Q 3484 2659 3812 2340 
Q 4141 2022 4141 1434 
Q 4141 663 3683 286 
Q 3225 -91 2284 -91 
Q 1841 -91 1394 -6 
Q 947 78 500 244 
L 500 1259 
Q 947 1022 1364 901 
Q 1781 781 2169 781 
Q 2563 781 2772 912 
Q 2981 1044 2981 1288 
Q 2981 1506 2839 1625 
Q 2697 1744 2272 1838 
L 1806 1941 
Q 1106 2091 782 2419 
Q 459 2747 459 3303 
Q 459 4000 909 4375 
Q 1359 4750 2203 4750 
Q 2588 4750 2994 4692 
Q 3400 4634 3834 4519 
z
" transform="scale(0.015625)"/>
       </defs>
       <use xlink:href="#DejaVuSans-Bold-53"/>
      </g>
     </g>
    </g>
    <g id="xtick_6">
     <g id="line2d_6">
      <path d="M 125.254844 124.579062 
L 46.850844 202.983062 
" clip-path="url(#pdade7b3317)" style="fill: none; stroke: #b0b0b0; stroke-width: 0.8; stroke-linecap: square"/>
     </g>
    </g>
    <g id="xtick_7">
     <g id="line2d_7">
      <path d="M 125.254844 124.579062 
L 14.374844 124.579063 
" clip-path="url(#pdade7b3317)" style="fill: none; stroke: #b0b0b0; stroke-width: 0.8; stroke-linecap: square"/>
     </g>
     <g id="text_4">
      <!-- W -->
      <g transform="translate(0.36 127.338438) scale(0.1 -0.1)">
       <defs>
        <path id="DejaVuSans-Bold-57" d="M 191 4666 
L 1344 4666 
L 2150 1275 
L 2950 4666 
L 4109 4666 
L 4909 1275 
L 5716 4666 
L 6859 4666 
L 5759 0 
L 4372 0 
L 3525 3547 
L 2688 0 
L 1300 0 
L 191 4666 
z
" transform="scale(0.015625)"/>
       </defs>
       <use xlink:href="#DejaVuSans-Bold-57"/>
      </g>
     </g>
    </g>
    <g id="xtick_8">
     <g id="line2d_8">
      <path d="M 125.254844 124.579062 
L 46.850844 46.175063 
" clip-path="url(#pdade7b3317)" style="fill: none; stroke: #b0b0b0; stroke-width: 0.8; stroke-linecap: square"/>
     </g>
    </g>
   </g>
   <g id="matplotlib.axis_2"/>
   <g id="patch_3">
    <path d="M 125.254844 124.579062 
C 125.254844 124.579062 125.254844 124.579062 125.254844 124.579062 
C 125.254844 124.579062 125.254844 124.579062 125.254844 124.579062 
L 125.254844 124.579062 
C 125.254844 124.579062 125.254844 124.579062 125.254844 124.579062 
C 125.254844 124.579062 125.254844 124.579062 125.254844 124.579062 
z
" clip-path="url(#pdade7b3317)" style="fill: #d9d9d9"/>
   </g>
   <g id="patch_4">
    <path d="M 125.254844 124.579062 
C 125.254844 124.579062 125.254844 124.579062 125.254844 124.579062 
C 125.254844 124.579062 125.254844 124.579062 125.254844 124.579062 
L 125.254844 124.579062 
C 125.254844 124.579062 125.254844 124.579062 125.254844 124.579062 
C 125.254844 124.579062 125.254844 124.579062 125.254844 124.579062 
z
" clip-path="url(#pdade7b3317)" style="fill: #d9d9d9"/>
   </g>
   <g id="patch_5">
    <path d="M 125.254844 124.579062 
C 125.254844 124.579062 125.254844 124.579062 125.254844 124.579062 
C 125.254844 124.579062 125.254844 124.579062 125.254844 124.579062 
L 125.254844 124.579062 
C 125.254844 124.579062 125.254844 124.579062 125.254844 124.579062 
C 125.254844 124.579062 125.254844 124.579062 125.254844 124.579062 
z
" clip-path="url(#pdade7b3317)" style="fill: #d9d9d9"/>
   </g>
   <g id="patch_6">
    <path d="M 125.254844 124.579062 
C 125.254844 124.579062 125.254844 124.579062 125.254844 124.579062 
C 125.254844 124.579062 125.254844 124.579062 125.254844 124.579062 
L 125.254844 124.579062 
C 125.254844 124.579062 125.254844 124.579062 125.254844 124.579062 
C 125.254844 124.579062 125.254844 124.579062 125.254844 124.579062 
z
" clip-path="url(#pdade7b3317)" style="fill: #d9d9d9"/>
   </g>
   <g id="patch_7">
    <path d="M 125.254844 124.579062 
C 125.254844 124.579062 125.254844 124.579062 125.254844 124.579062 
C 125.254844 124.579062 125.254844 124.579062 125.254844 124.579062 
L 125.254844 124.579062 
C 125.254844 124.579062 125.254844 124.579062 125.254844 124.579062 
C 125.254844 124.579062 125.254844 124.579062 125.254844 124.579062 
z
" clip-path="url(#pdade7b3317)" style="fill: #d9d9d9"/>
   </g>
   <g id="patch_8">
    <path d="M 125.254844 124.579062 
C 125.254844 124.579062 125.254844 124.579062 125.254844 124.579062 
C 125.254844 124.579062 125.254844 124.579062 125.254844 124.579062 
L 125.254844 124.579062 
C 125.254844 124.579062 125.254844 124.579062 125.254844 124.579062 
C 125.254844 124.579062 125.254844 124.579062 125.254844 124.579062 
z
" clip-path="url(#pdade7b3317)" style="fill: #d9d9d9"/>
   </g>
   <g id="patch_9">
    <path d="M 125.254844 124.579062 
C 125.254844 124.579062 125.254844 124.579062 125.254844 124.579062 
C 125.254844 124.579062 125.254844 124.579062 125.254844 124.579062 
L 125.254844 124.579062 
C 125.254844 124.579062 125.254844 124.579062 125.254844 124.579062 
C 125.254844 124.579062 125.254844 124.579062 125.254844 124.579062 
z
" clip-path="url(#pdade7b3317)" style="fill: #d9d9d9"/>
   </g>
   <g id="patch_10">
    <path d="M 125.254844 124.579062 
C 125.254844 124.579062 125.254844 124.579062 125.254844 124.579062 
C 125.254844 124.579062 125.254844 124.579062 125.254844 124.579062 
L 125.254844 124.579062 
C 125.254844 124.579062 125.254844 124.579062 125.254844 124.579062 
C 125.254844 124.579062 125.254844 124.579062 125.254844 124.579062 
z
" clip-path="url(#pdade7b3317)" style="fill: #d9d9d9"/>
   </g>
   <g id="patch_11">
    <path d="M 125.254844 124.579062 
C 125.254844 124.579062 125.254844 124.579062 125.254844 124.579062 
C 125.254844 124.579062 125.254844 124.579062 125.254844 124.579062 
L 125.254844 124.579062 
C 125.254844 124.579062 125.254844 124.579062 125.254844 124.579062 
C 125.254844 124.579062 125.254844 124.579062 125.254844 124.579062 
z
" clip-path="url(#pdade7b3317)" style="fill: #d9d9d9"/>
   </g>
   <g id="patch_12">
    <path d="M 125.254844 124.579062 
C 125.254844 124.579062 125.254844 124.579062 125.254844 124.579062 
C 125.254844 124.579062 125.254844 124.579062 125.254844 124.579062 
L 125.254844 124.579062 
C 125.254844 124.579062 125.254844 124.579062 125.254844 124.579062 
C 125.254844 124.579062 125.254844 124.579062 125.254844 124.579062 
z
" clip-path="url(#pdade7b3317)" style="fill: #d9d9d9"/>
   </g>
   <g id="patch_13">
    <path d="M 125.254844 124.579062 
C 125.254844 124.579062 125.254844 124.579062 125.254844 124.579062 
C 125.254844 124.579062 125.254844 124.579062 125.254844 124.579062 
L 125.254844 124.579062 
C 125.254844 124.579062 125.254844 124.579062 125.254844 124.579062 
C 125.254844 124.579062 125.254844 124.579062 125.254844 124.579062 
z
" clip-path="url(#pdade7b3317)" style="fill: #d9d9d9"/>
   </g>
   <g id="patch_14">
    <path d="M 125.254844 124.579062 
C 125.254844 124.579062 125.254844 124.579062 125.254844 124.579062 
C 125.254844 124.579062 125.254844 124.579062 125.254844 124.579062 
L 125.254844 124.579062 
C 125.254844 124.579062 125.254844 124.579062 125.254844 124.579062 
C 125.254844 124.579062 125.254844 124.579062 125.254844 124.579062 
z
" clip-path="url(#pdade7b3317)" style="fill: #d9d9d9"/>
   </g>
   <g id="patch_15">
    <path d="M 125.254844 124.579062 
C 125.254844 124.579062 125.254844 124.579062 125.254844 124.579062 
C 125.254844 124.579062 125.254844 124.579062 125.254844 124.579062 
L 125.254844 124.579062 
C 125.254844 124.579062 125.254844 124.579062 125.254844 124.579062 
C 125.254844 124.579062 125.254844 124.579062 125.254844 124.579062 
z
" clip-path="url(#pdade7b3317)" style="fill: #d9d9d9"/>
   </g>
   <g id="patch_16">
    <path d="M 125.254844 124.579062 
C 125.254844 124.579062 125.254844 124.579062 125.254844 124.579062 
C 125.254844 124.579062 125.254844 124.579062 125.254844 124.579062 
L 125.254844 124.579062 
C 125.254844 124.579062 125.254844 124.579062 125.254844 124.579062 
C 125.254844 124.579062 125.254844 124.579062 125.254844 124.579062 
z
" clip-path="url(#pdade7b3317)" style="fill: #d9d9d9"/>
   </g>
   <g id="patch_17">
    <path d="M 125.254844 124.579062 
C 125.254844 124.579062 125.254844 124.579062 125.254844 124.579062 
C 125.254844 124.579062 125.254844 124.579062 125.254844 124.579062 
L 125.254844 124.579062 
C 125.254844 124.579062 125.254844 124.579062 125.254844 124.579062 
C 125.254844 124.579062 125.254844 124.579062 125.254844 124.579062 
z
" clip-path="url(#pdade7b3317)" style="fill: #d9d9d9"/>
   </g>
   <g id="patch_18">
    <path d="M 125.254844 124.579062 
C 125.254844 124.579062 125.254844 124.579062 125.254844 124.579062 
C 125.254844 124.579062 125.254844 124.579062 125.254844 124.579062 
L 125.254844 124.579062 
C 125.254844 124.579062 125.254844 124.579062 125.254844 124.579062 
C 125.254844 124.579062 125.254844 124.579062 125.254844 124.579062 
z
" clip-path="url(#pdade7b3317)" style="fill: #d9d9d9"/>
   </g>
   <g id="patch_19">
    <path d="M 125.254844 124.579062 
C 125.254844 124.579062 125.254844 124.579062 125.254844 124.579062 
C 125.254844 124.579062 125.254844 124.579062 125.254844 124.579062 
L 125.254844 124.579062 
C 125.254844 124.579062 125.254844 124.579062 125.254844 124.579062 
C 125.254844 124.579062 125.254844 124.579062 125.254844 124.579062 
z
" clip-path="url(#pdade7b3317)" style="fill: #d9d9d9"/>
   </g>
   <g id="patch_20">
    <path d="M 125.254844 124.579062 
C 125.254844 124.579062 125.254844 124.579062 125.254844 124.579062 
C 125.254844 124.579062 125.254844 124.579062 125.254844 124.579062 
L 125.254844 124.579062 
C 125.254844 124.579062 125.254844 124.579062 125.254844 124.579062 
C 125.254844 124.579062 125.254844 124.579062 125.254844 124.579062 
z
" clip-path="url(#pdade7b3317)" style="fill: #d9d9d9"/>
   </g>
   <g id="patch_21">
    <path d="M 125.254844 124.579062 
C 125.254844 124.579062 125.254844 124.579062 125.254844 124.579062 
C 125.254844 124.579062 125.254844 124.579062 125.254844 124.579062 
L 125.254844 124.579062 
C 125.254844 124.579062 125.254844 124.579062 125.254844 124.579062 
C 125.254844 124.579062 125.254844 124.579062 125.254844 124.579062 
z
" clip-path="url(#pdade7b3317)" style="fill: #d9d9d9"/>
   </g>
   <g id="patch_22">
    <path d="M 125.254844 124.579062 
C 125.254844 124.579062 125.254844 124.579062 125.254844 124.579062 
C 125.254844 124.579062 125.254844 124.579062 125.254844 124.579062 
L 125.254844 124.579062 
C 125.254844 124.579062 125.254844 124.579062 125.254844 124.579062 
C 125.254844 124.579062 125.254844 124.579062 125.254844 124.579062 
z
" clip-path="url(#pdade7b3317)" style="fill: #d9d9d9"/>
   </g>
   <g id="patch_23">
    <path d="M 125.254844 124.579062 
C 125.254844 124.579062 125.254844 124.579062 125.254844 124.579062 
C 125.254844 124.579062 125.254844 124.579062 125.254844 124.579062 
L 125.254844 124.579062 
C 125.254844 124.579062 125.254844 124.579062 125.254844 124.579062 
C 125.254844 124.579062 125.254844 124.579062 125.254844 124.579062 
z
" clip-path="url(#pdade7b3317)" style="fill: #d9d9d9"/>
   </g>
   <g id="patch_24">
    <path d="M 125.254844 124.579062 
C 125.254844 124.579062 125.254844 124.579062 125.254844 124.579062 
C 125.254844 124.579062 125.254844 124.579062 125.254844 124.579062 
L 109.695743 132.895575 
C 109.967955 133.404848 110.265006 133.900449 110.585825 134.380588 
C 110.906643 134.860726 111.250842 135.324825 111.617178 135.771206 
z
" clip-path="url(#pdade7b3317)" style="fill: #d9d9d9"/>
   </g>
   <g id="patch_25">
    <path d="M 125.254844 124.579062 
C 125.254844 124.579062 125.254844 124.579062 125.254844 124.579062 
C 125.254844 124.579062 125.254844 124.579062 125.254844 124.579062 
L 125.254844 124.579062 
C 125.254844 124.579062 125.254844 124.579062 125.254844 124.579062 
C 125.254844 124.579062 125.254844 124.579062 125.254844 124.579062 
z
" clip-path="url(#pdade7b3317)" style="fill: #d9d9d9"/>
   </g>
   <g id="patch_26">
    <path d="M 125.254844 124.579062 
C 125.254844 124.579062 125.254844 124.579062 125.254844 124.579062 
C 125.254844 124.579062 125.254844 124.579062 125.254844 124.579062 
L 100.425034 127.024585 
C 100.50508 127.837302 100.624979 128.645599 100.7843 129.446556 
C 100.94362 130.247514 101.142169 131.040166 101.37923 131.821651 
z
" clip-path="url(#pdade7b3317)" style="fill: #d9d9d9"/>
   </g>
   <g id="patch_27">
    <path d="M 125.254844 124.579062 
C 125.254844 124.579062 125.254844 124.579062 125.254844 124.579062 
C 125.254844 124.579062 125.254844 124.579062 125.254844 124.579062 
L 110.049753 123.081492 
C 110.000735 123.579177 109.976182 124.078969 109.976182 124.579062 
C 109.976182 125.079156 110.000735 125.578948 110.049753 126.076633 
z
" clip-path="url(#pdade7b3317)" style="fill: #d9d9d9"/>
   </g>
   <g id="patch_28">
    <path d="M 125.254844 124.579062 
C 125.254844 124.579062 125.254844 124.579062 125.254844 124.579062 
C 125.254844 124.579062 125.254844 124.579062 125.254844 124.579062 
L 125.254844 124.579062 
C 125.254844 124.579062 125.254844 124.579062 125.254844 124.579062 
C 125.254844 124.579062 125.254844 124.579062 125.254844 124.579062 
z
" clip-path="url(#pdade7b3317)" style="fill: #d9d9d9"/>
   </g>
   <g id="patch_29">
    <path d="M 125.254844 124.579062 
C 125.254844 124.579062 125.254844 124.579062 125.254844 124.579062 
C 125.254844 124.579062 125.254844 124.579062 125.254844 124.579062 
L 125.254844 124.579062 
C 125.254844 124.579062 125.254844 124.579062 125.254844 124.579062 
C 125.254844 124.579062 125.254844 124.579062 125.254844 124.579062 
z
" clip-path="url(#pdade7b3317)" style="fill: #d9d9d9"/>
   </g>
   <g id="patch_30">
    <path d="M 125.254844 124.579062 
C 125.254844 124.579062 125.254844 124.579062 125.254844 124.579062 
C 125.254844 124.579062 125.254844 124.579062 125.254844 124.579062 
L 125.254844 124.579062 
C 125.254844 124.579062 125.254844 124.579062 125.254844 124.579062 
C 125.254844 124.579062 125.254844 124.579062 125.254844 124.579062 
z
" clip-path="url(#pdade7b3317)" style="fill: #d9d9d9"/>
   </g>
   <g id="patch_31">
    <path d="M 125.254844 124.579062 
C 125.254844 124.579062 125.254844 124.579062 125.254844 124.579062 
C 125.254844 124.579062 125.254844 124.579062 125.254844 124.579062 
L 125.254844 124.579062 
C 125.254844 124.579062 125.254844 124.579062 125.254844 124.579062 
C 125.254844 124.579062 125.254844 124.579062 125.254844 124.579062 
z
" clip-path="url(#pdade7b3317)" style="fill: #d9d9d9"/>
   </g>
   <g id="patch_32">
    <path d="M 125.254844 124.579062 
C 125.254844 124.579062 125.254844 124.579062 125.254844 124.579062 
C 125.254844 124.579062 125.254844 124.579062 125.254844 124.579062 
L 125.254844 124.579062 
C 125.254844 124.579062 125.254844 124.579062 125.254844 124.579062 
C 125.254844 124.579062 125.254844 124.579062 125.254844 124.579062 
z
" clip-path="url(#pdade7b3317)" style="fill: #d9d9d9"/>
   </g>
   <g id="patch_33">
    <path d="M 125.254844 124.579062 
C 125.254844 124.579062 125.254844 124.579062 125.254844 124.579062 
C 125.254844 124.579062 125.254844 124.579062 125.254844 124.579062 
L 125.254844 124.579062 
C 125.254844 124.579062 125.254844 124.579062 125.254844 124.579062 
C 125.254844 124.579062 125.254844 124.579062 125.254844 124.579062 
z
" clip-path="url(#pdade7b3317)" style="fill: #d9d9d9"/>
   </g>
   <g id="patch_34">
    <path d="M 125.254844 124.579062 
C 125.254844 124.579062 125.254844 124.579062 125.254844 124.579062 
C 125.254844 124.579062 125.254844 124.579062 125.254844 124.579062 
L 125.254844 124.579062 
C 125.254844 124.579062 125.254844 124.579062 125.254844 124.579062 
C 125.254844 124.579062 125.254844 124.579062 125.254844 124.579062 
z
" clip-path="url(#pdade7b3317)" style="fill: #d9d9d9"/>
   </g>
   <g id="patch_35">
    <path d="M 125.254844 124.579062 
C 125.254844 124.579062 125.254844 124.579062 125.254844 124.579062 
C 125.254844 124.579062 125.254844 124.579062 125.254844 124.579062 
L 130.654412 69.756328 
C 128.859982 69.579592 127.057956 69.491064 125.254844 69.491064 
C 123.451731 69.491064 121.649706 69.579592 119.855276 69.756328 
z
" clip-path="url(#pdade7b3317)" style="fill: #a1a1d8"/>
   </g>
   <g id="patch_36">
    <path d="M 125.254844 124.579062 
C 125.254844 124.579062 125.254844 124.579062 125.254844 124.579062 
C 125.254844 124.579062 125.254844 124.579062 125.254844 124.579062 
L 129.690005 109.958295 
C 129.211446 109.813125 128.726047 109.691539 128.235563 109.593976 
C 127.745079 109.496412 127.2501 109.422989 126.752414 109.373972 
z
" clip-path="url(#pdade7b3317)" style="fill: #a1a1d8"/>
   </g>
   <g id="patch_37">
    <path d="M 125.254844 124.579062 
C 125.254844 124.579062 125.254844 124.579062 125.254844 124.579062 
C 125.254844 124.579062 125.254844 124.579062 125.254844 124.579062 
L 125.254844 124.579062 
C 125.254844 124.579062 125.254844 124.579062 125.254844 124.579062 
C 125.254844 124.579062 125.254844 124.579062 125.254844 124.579062 
z
" clip-path="url(#pdade7b3317)" style="fill: #a1a1d8"/>
   </g>
   <g id="patch_38">
    <path d="M 125.254844 124.579062 
C 125.254844 124.579062 125.254844 124.579062 125.254844 124.579062 
C 125.254844 124.579062 125.254844 124.579062 125.254844 124.579062 
L 133.168884 114.935776 
C 132.853245 114.676738 132.525078 114.433353 132.185569 114.2065 
C 131.846059 113.979647 131.495616 113.7696 131.135506 113.577117 
z
" clip-path="url(#pdade7b3317)" style="fill: #a1a1d8"/>
   </g>
   <g id="patch_39">
    <path d="M 125.254844 124.579062 
C 125.254844 124.579062 125.254844 124.579062 125.254844 124.579062 
C 125.254844 124.579062 125.254844 124.579062 125.254844 124.579062 
L 125.254844 124.579062 
C 125.254844 124.579062 125.254844 124.579062 125.254844 124.579062 
C 125.254844 124.579062 125.254844 124.579062 125.254844 124.579062 
z
" clip-path="url(#pdade7b3317)" style="fill: #a1a1d8"/>
   </g>
   <g id="patch_40">
    <path d="M 125.254844 124.579062 
C 125.254844 124.579062 125.254844 124.579062 125.254844 124.579062 
C 125.254844 124.579062 125.254844 124.579062 125.254844 124.579062 
L 125.254844 124.579062 
C 125.254844 124.579062 125.254844 124.579062 125.254844 124.579062 
C 125.254844 124.579062 125.254844 124.579062 125.254844 124.579062 
z
" clip-path="url(#pdade7b3317)" style="fill: #a1a1d8"/>
   </g>
   <g id="patch_41">
    <path d="M 125.254844 124.579062 
C 125.254844 124.579062 125.254844 124.579062 125.254844 124.579062 
C 125.254844 124.579062 125.254844 124.579062 125.254844 124.579062 
L 133.696148 122.018421 
C 133.612334 121.742124 133.515006 121.470109 133.404514 121.203359 
C 133.294022 120.936608 133.1705 120.675442 133.034394 120.420806 
z
" clip-path="url(#pdade7b3317)" style="fill: #a1a1d8"/>
   </g>
   <g id="patch_42">
    <path d="M 125.254844 124.579062 
C 125.254844 124.579062 125.254844 124.579062 125.254844 124.579062 
C 125.254844 124.579062 125.254844 124.579062 125.254844 124.579062 
L 125.254844 124.579062 
C 125.254844 124.579062 125.254844 124.579062 125.254844 124.579062 
C 125.254844 124.579062 125.254844 124.579062 125.254844 124.579062 
z
" clip-path="url(#pdade7b3317)" style="fill: #a1a1d8"/>
   </g>
   <g id="patch_43">
    <path d="M 125.254844 124.579062 
C 125.254844 124.579062 125.254844 124.579062 125.254844 124.579062 
C 125.254844 124.579062 125.254844 124.579062 125.254844 124.579062 
L 140.459935 126.076633 
C 140.508952 125.578948 140.533506 125.079156 140.533506 124.579062 
C 140.533506 124.078969 140.508952 123.579177 140.459935 123.081492 
z
" clip-path="url(#pdade7b3317)" style="fill: #a1a1d8"/>
   </g>
   <g id="patch_44">
    <path d="M 125.254844 124.579062 
C 125.254844 124.579062 125.254844 124.579062 125.254844 124.579062 
C 125.254844 124.579062 125.254844 124.579062 125.254844 124.579062 
L 137.192651 128.200357 
C 137.311181 127.809614 137.410456 127.413288 137.490116 127.012809 
C 137.569776 126.612331 137.629726 126.208182 137.669748 125.801824 
z
" clip-path="url(#pdade7b3317)" style="fill: #a1a1d8"/>
   </g>
   <g id="patch_45">
    <path d="M 125.254844 124.579062 
C 125.254844 124.579062 125.254844 124.579062 125.254844 124.579062 
C 125.254844 124.579062 125.254844 124.579062 125.254844 124.579062 
L 125.254844 124.579062 
C 125.254844 124.579062 125.254844 124.579062 125.254844 124.579062 
C 125.254844 124.579062 125.254844 124.579062 125.254844 124.579062 
z
" clip-path="url(#pdade7b3317)" style="fill: #a1a1d8"/>
   </g>
   <g id="patch_46">
    <path d="M 125.254844 124.579062 
C 125.254844 124.579062 125.254844 124.579062 125.254844 124.579062 
C 125.254844 124.579062 125.254844 124.579062 125.254844 124.579062 
L 125.254844 124.579062 
C 125.254844 124.579062 125.254844 124.579062 125.254844 124.579062 
C 125.254844 124.579062 125.254844 124.579062 125.254844 124.579062 
z
" clip-path="url(#pdade7b3317)" style="fill: #a1a1d8"/>
   </g>
   <g id="patch_47">
    <path d="M 125.254844 124.579062 
C 125.254844 124.579062 125.254844 124.579062 125.254844 124.579062 
C 125.254844 124.579062 125.254844 124.579062 125.254844 124.579062 
L 125.254844 124.579062 
C 125.254844 124.579062 125.254844 124.579062 125.254844 124.579062 
C 125.254844 124.579062 125.254844 124.579062 125.254844 124.579062 
z
" clip-path="url(#pdade7b3317)" style="fill: #a1a1d8"/>
   </g>
   <g id="patch_48">
    <path d="M 125.254844 124.579062 
C 125.254844 124.579062 125.254844 124.579062 125.254844 124.579062 
C 125.254844 124.579062 125.254844 124.579062 125.254844 124.579062 
L 125.254844 124.579062 
C 125.254844 124.579062 125.254844 124.579062 125.254844 124.579062 
C 125.254844 124.579062 125.254844 124.579062 125.254844 124.579062 
z
" clip-path="url(#pdade7b3317)" style="fill: #a1a1d8"/>
   </g>
   <g id="patch_49">
    <path d="M 125.254844 124.579062 
C 125.254844 124.579062 125.254844 124.579062 125.254844 124.579062 
C 125.254844 124.579062 125.254844 124.579062 125.254844 124.579062 
L 125.254844 124.579062 
C 125.254844 124.579062 125.254844 124.579062 125.254844 124.579062 
C 125.254844 124.579062 125.254844 124.579062 125.254844 124.579062 
z
" clip-path="url(#pdade7b3317)" style="fill: #a1a1d8"/>
   </g>
   <g id="patch_50">
    <path d="M 125.254844 124.579062 
C 125.254844 124.579062 125.254844 124.579062 125.254844 124.579062 
C 125.254844 124.579062 125.254844 124.579062 125.254844 124.579062 
L 125.254844 124.579062 
C 125.254844 124.579062 125.254844 124.579062 125.254844 124.579062 
C 125.254844 124.579062 125.254844 124.579062 125.254844 124.579062 
z
" clip-path="url(#pdade7b3317)" style="fill: #a1a1d8"/>
   </g>
   <g id="patch_51">
    <path d="M 125.254844 124.579062 
C 125.254844 124.579062 125.254844 124.579062 125.254844 124.579062 
C 125.254844 124.579062 125.254844 124.579062 125.254844 124.579062 
L 125.254844 124.579062 
C 125.254844 124.579062 125.254844 124.579062 125.254844 124.579062 
C 125.254844 124.579062 125.254844 124.579062 125.254844 124.579062 
z
" clip-path="url(#pdade7b3317)" style="fill: #a1a1d8"/>
   </g>
   <g id="patch_52">
    <path d="M 125.254844 124.579062 
C 125.254844 124.579062 125.254844 124.579062 125.254844 124.579062 
C 125.254844 124.579062 125.254844 124.579062 125.254844 124.579062 
L 118.982578 145.255951 
C 119.659364 145.461251 120.345821 145.6332 121.03947 145.771175 
C 121.73312 145.909151 122.433126 146.012987 123.136959 146.082308 
z
" clip-path="url(#pdade7b3317)" style="fill: #a1a1d8"/>
   </g>
   <g id="patch_53">
    <path d="M 125.254844 124.579062 
C 125.254844 124.579062 125.254844 124.579062 125.254844 124.579062 
C 125.254844 124.579062 125.254844 124.579062 125.254844 124.579062 
L 112.105282 149.180161 
C 112.910513 149.610566 113.73639 150.001177 114.579931 150.350583 
C 115.423471 150.699989 116.283658 151.007768 117.157384 151.27281 
z
" clip-path="url(#pdade7b3317)" style="fill: #a1a1d8"/>
   </g>
   <g id="patch_54">
    <path d="M 125.254844 124.579062 
C 125.254844 124.579062 125.254844 124.579062 125.254844 124.579062 
C 125.254844 124.579062 125.254844 124.579062 125.254844 124.579062 
L 107.558511 146.142106 
C 108.264302 146.721333 108.998106 147.265559 109.757272 147.772818 
C 110.516438 148.280077 111.300052 148.749757 112.105282 149.180161 
z
" clip-path="url(#pdade7b3317)" style="fill: #a1a1d8"/>
   </g>
   <g id="patch_55">
    <path d="M 125.254844 124.579062 
C 125.254844 124.579062 125.254844 124.579062 125.254844 124.579062 
C 125.254844 124.579062 125.254844 124.579062 125.254844 124.579062 
L 110.007469 137.092259 
C 110.417045 137.591328 110.850877 138.069988 111.307398 138.526509 
C 111.763918 138.983029 112.242578 139.416861 112.741647 139.826437 
z
" clip-path="url(#pdade7b3317)" style="fill: #a1a1d8"/>
   </g>
   <g id="patch_56">
    <path d="M 111.617178 135.771206 
C 111.250842 135.324825 110.906643 134.860726 110.585825 134.380588 
C 110.265006 133.900449 109.967955 133.404848 109.695743 132.895575 
L 101.916192 137.053832 
C 102.32451 137.817741 102.770088 138.561142 103.251315 139.28135 
C 103.732543 140.001558 104.248841 140.697706 104.798345 141.367278 
z
" clip-path="url(#pdade7b3317)" style="fill: #a1a1d8"/>
   </g>
   <g id="patch_57">
    <path d="M 125.254844 124.579062 
C 125.254844 124.579062 125.254844 124.579062 125.254844 124.579062 
C 125.254844 124.579062 125.254844 124.579062 125.254844 124.579062 
L 125.254844 124.579062 
C 125.254844 124.579062 125.254844 124.579062 125.254844 124.579062 
C 125.254844 124.579062 125.254844 124.579062 125.254844 124.579062 
z
" clip-path="url(#pdade7b3317)" style="fill: #a1a1d8"/>
   </g>
   <g id="patch_58">
    <path d="M 101.37923 131.821651 
C 101.142169 131.040166 100.94362 130.247514 100.7843 129.446556 
C 100.624979 128.645599 100.50508 127.837302 100.425034 127.024585 
L 98.918854 127.172931 
C 99.003755 128.034947 99.130928 128.892276 99.299912 129.741819 
C 99.468897 130.591363 99.67949 131.432098 99.930931 132.260987 
z
" clip-path="url(#pdade7b3317)" style="fill: #a1a1d8"/>
   </g>
   <g id="patch_59">
    <path d="M 110.049753 126.076633 
C 110.000735 125.578948 109.976182 125.079156 109.976182 124.579062 
C 109.976182 124.078969 110.000735 123.579177 110.049753 123.081492 
L 110.049753 123.081492 
C 110.000735 123.579177 109.976182 124.078969 109.976182 124.579062 
C 109.976182 125.079156 110.000735 125.578948 110.049753 126.076633 
z
" clip-path="url(#pdade7b3317)" style="fill: #a1a1d8"/>
   </g>
   <g id="patch_60">
    <path d="M 125.254844 124.579062 
C 125.254844 124.579062 125.254844 124.579062 125.254844 124.579062 
C 125.254844 124.579062 125.254844 124.579062 125.254844 124.579062 
L 113.317037 120.957768 
C 113.198506 121.348511 113.099232 121.744837 113.019572 122.145316 
C 112.939912 122.545794 112.879962 122.949943 112.839939 123.356301 
z
" clip-path="url(#pdade7b3317)" style="fill: #a1a1d8"/>
   </g>
   <g id="patch_61">
    <path d="M 125.254844 124.579062 
C 125.254844 124.579062 125.254844 124.579062 125.254844 124.579062 
C 125.254844 124.579062 125.254844 124.579062 125.254844 124.579062 
L 101.916192 112.104293 
C 101.507874 112.868202 101.137308 113.651698 100.805833 114.451951 
C 100.474357 115.252203 100.182372 116.068248 99.930931 116.897138 
z
" clip-path="url(#pdade7b3317)" style="fill: #a1a1d8"/>
   </g>
   <g id="patch_62">
    <path d="M 125.254844 124.579062 
C 125.254844 124.579062 125.254844 124.579062 125.254844 124.579062 
C 125.254844 124.579062 125.254844 124.579062 125.254844 124.579062 
L 97.979511 102.194776 
C 97.24684 103.087538 96.558443 104.015735 95.916806 104.976012 
C 95.275169 105.93629 94.681065 106.927492 94.136642 107.946037 
z
" clip-path="url(#pdade7b3317)" style="fill: #a1a1d8"/>
   </g>
   <g id="patch_63">
    <path d="M 125.254844 124.579062 
C 125.254844 124.579062 125.254844 124.579062 125.254844 124.579062 
C 125.254844 124.579062 125.254844 124.579062 125.254844 124.579062 
L 92.148037 84.238302 
C 90.827624 85.321937 89.56121 86.469748 88.35337 87.677588 
C 87.145529 88.885429 85.997719 90.151843 84.914083 91.472256 
z
" clip-path="url(#pdade7b3317)" style="fill: #a1a1d8"/>
   </g>
   <g id="patch_64">
    <path d="M 125.254844 124.579062 
C 125.254844 124.579062 125.254844 124.579062 125.254844 124.579062 
C 125.254844 124.579062 125.254844 124.579062 125.254844 124.579062 
L 110.262037 96.529494 
C 109.343933 97.020231 108.450476 97.555749 107.584893 98.134113 
C 106.71931 98.712476 105.882645 99.332989 105.07792 99.99341 
z
" clip-path="url(#pdade7b3317)" style="fill: #a1a1d8"/>
   </g>
   <g id="patch_65">
    <path d="M 125.254844 124.579062 
C 125.254844 124.579062 125.254844 124.579062 125.254844 124.579062 
C 125.254844 124.579062 125.254844 124.579062 125.254844 124.579062 
L 118.982578 103.902174 
C 118.305793 104.107475 117.639495 104.34588 116.986092 104.616529 
C 116.332688 104.887177 115.692966 105.189743 115.069237 105.523133 
z
" clip-path="url(#pdade7b3317)" style="fill: #a1a1d8"/>
   </g>
   <g id="patch_66">
    <path d="M 125.254844 124.579062 
C 125.254844 124.579062 125.254844 124.579062 125.254844 124.579062 
C 125.254844 124.579062 125.254844 124.579062 125.254844 124.579062 
L 122.660975 98.243073 
C 121.798959 98.327974 120.941631 98.455146 120.092087 98.624131 
C 119.242543 98.793116 118.401808 99.003709 117.572919 99.25515 
z
" clip-path="url(#pdade7b3317)" style="fill: #a1a1d8"/>
   </g>
   <g id="patch_67">
    <path d="M 119.855276 69.756328 
C 121.649706 69.579592 123.451731 69.491064 125.254844 69.491064 
C 127.057956 69.491064 128.859982 69.579592 130.654412 69.756328 
L 130.654412 69.756328 
C 128.859982 69.579592 127.057956 69.491064 125.254844 69.491064 
C 123.451731 69.491064 121.649706 69.579592 119.855276 69.756328 
z
" clip-path="url(#pdade7b3317)" style="fill: #ff8c8e"/>
   </g>
   <g id="patch_68">
    <path d="M 126.752414 109.373972 
C 127.2501 109.422989 127.745079 109.496412 128.235563 109.593976 
C 128.726047 109.691539 129.211446 109.813125 129.690005 109.958295 
L 133.352304 97.885315 
C 132.478577 97.620273 131.592365 97.398288 130.696867 97.220163 
C 129.80137 97.042037 128.897666 96.907985 127.989021 96.818492 
z
" clip-path="url(#pdade7b3317)" style="fill: #ff8c8e"/>
   </g>
   <g id="patch_69">
    <path d="M 125.254844 124.579062 
C 125.254844 124.579062 125.254844 124.579062 125.254844 124.579062 
C 125.254844 124.579062 125.254844 124.579062 125.254844 124.579062 
L 139.04622 98.777212 
C 138.201687 98.3258 137.3355 97.916124 136.450787 97.549664 
C 135.566075 97.183204 134.663903 96.860402 133.747531 96.582424 
z
" clip-path="url(#pdade7b3317)" style="fill: #ff8c8e"/>
   </g>
   <g id="patch_70">
    <path d="M 131.135506 113.577117 
C 131.495616 113.7696 131.846059 113.979647 132.185569 114.2065 
C 132.525078 114.433353 132.853245 114.676738 133.168884 114.935776 
L 154.332885 89.147367 
C 153.173153 88.195599 151.96739 87.301344 150.719953 86.467833 
C 149.472515 85.634322 148.184907 84.862559 146.861778 84.155332 
z
" clip-path="url(#pdade7b3317)" style="fill: #ff8c8e"/>
   </g>
   <g id="patch_71">
    <path d="M 125.254844 124.579062 
C 125.254844 124.579062 125.254844 124.579062 125.254844 124.579062 
C 125.254844 124.579062 125.254844 124.579062 125.254844 124.579062 
L 145.711343 107.790847 
C 145.16184 107.121276 144.579793 106.479087 143.967306 105.8666 
C 143.35482 105.254113 142.712631 104.672067 142.043059 104.122563 
z
" clip-path="url(#pdade7b3317)" style="fill: #ff8c8e"/>
   </g>
   <g id="patch_72">
    <path d="M 125.254844 124.579062 
C 125.254844 124.579062 125.254844 124.579062 125.254844 124.579062 
C 125.254844 124.579062 125.254844 124.579062 125.254844 124.579062 
L 125.254844 124.579062 
C 125.254844 124.579062 125.254844 124.579062 125.254844 124.579062 
C 125.254844 124.579062 125.254844 124.579062 125.254844 124.579062 
z
" clip-path="url(#pdade7b3317)" style="fill: #ff8c8e"/>
   </g>
   <g id="patch_73">
    <path d="M 133.034394 120.420806 
C 133.1705 120.675442 133.294022 120.936608 133.404514 121.203359 
C 133.515006 121.470109 133.612334 121.742124 133.696148 122.018421 
L 133.696148 122.018421 
C 133.612334 121.742124 133.515006 121.470109 133.404514 121.203359 
C 133.294022 120.936608 133.1705 120.675442 133.034394 120.420806 
z
" clip-path="url(#pdade7b3317)" style="fill: #ff8c8e"/>
   </g>
   <g id="patch_74">
    <path d="M 125.254844 124.579062 
C 125.254844 124.579062 125.254844 124.579062 125.254844 124.579062 
C 125.254844 124.579062 125.254844 124.579062 125.254844 124.579062 
L 125.254844 124.579062 
C 125.254844 124.579062 125.254844 124.579062 125.254844 124.579062 
C 125.254844 124.579062 125.254844 124.579062 125.254844 124.579062 
z
" clip-path="url(#pdade7b3317)" style="fill: #ff8c8e"/>
   </g>
   <g id="patch_75">
    <path d="M 140.459935 123.081492 
C 140.508952 123.579177 140.533506 124.078969 140.533506 124.579062 
C 140.533506 125.079156 140.508952 125.578948 140.459935 126.076633 
L 140.459935 126.076633 
C 140.508952 125.578948 140.533506 125.079156 140.533506 124.579062 
C 140.533506 124.078969 140.508952 123.579177 140.459935 123.081492 
z
" clip-path="url(#pdade7b3317)" style="fill: #ff8c8e"/>
   </g>
   <g id="patch_76">
    <path d="M 137.669748 125.801824 
C 137.629726 126.208182 137.569776 126.612331 137.490116 127.012809 
C 137.410456 127.413288 137.311181 127.809614 137.192651 128.200357 
L 137.192651 128.200357 
C 137.311181 127.809614 137.410456 127.413288 137.490116 127.012809 
C 137.569776 126.612331 137.629726 126.208182 137.669748 125.801824 
z
" clip-path="url(#pdade7b3317)" style="fill: #ff8c8e"/>
   </g>
   <g id="patch_77">
    <path d="M 125.254844 124.579062 
C 125.254844 124.579062 125.254844 124.579062 125.254844 124.579062 
C 125.254844 124.579062 125.254844 124.579062 125.254844 124.579062 
L 125.254844 124.579062 
C 125.254844 124.579062 125.254844 124.579062 125.254844 124.579062 
C 125.254844 124.579062 125.254844 124.579062 125.254844 124.579062 
z
" clip-path="url(#pdade7b3317)" style="fill: #ff8c8e"/>
   </g>
   <g id="patch_78">
    <path d="M 125.254844 124.579062 
C 125.254844 124.579062 125.254844 124.579062 125.254844 124.579062 
C 125.254844 124.579062 125.254844 124.579062 125.254844 124.579062 
L 125.254844 124.579062 
C 125.254844 124.579062 125.254844 124.579062 125.254844 124.579062 
C 125.254844 124.579062 125.254844 124.579062 125.254844 124.579062 
z
" clip-path="url(#pdade7b3317)" style="fill: #ff8c8e"/>
   </g>
   <g id="patch_79">
    <path d="M 125.254844 124.579062 
C 125.254844 124.579062 125.254844 124.579062 125.254844 124.579062 
C 125.254844 124.579062 125.254844 124.579062 125.254844 124.579062 
L 125.254844 124.579062 
C 125.254844 124.579062 125.254844 124.579062 125.254844 124.579062 
C 125.254844 124.579062 125.254844 124.579062 125.254844 124.579062 
z
" clip-path="url(#pdade7b3317)" style="fill: #ff8c8e"/>
   </g>
   <g id="patch_80">
    <path d="M 125.254844 124.579062 
C 125.254844 124.579062 125.254844 124.579062 125.254844 124.579062 
C 125.254844 124.579062 125.254844 124.579062 125.254844 124.579062 
L 125.254844 124.579062 
C 125.254844 124.579062 125.254844 124.579062 125.254844 124.579062 
C 125.254844 124.579062 125.254844 124.579062 125.254844 124.579062 
z
" clip-path="url(#pdade7b3317)" style="fill: #ff8c8e"/>
   </g>
   <g id="patch_81">
    <path d="M 125.254844 124.579062 
C 125.254844 124.579062 125.254844 124.579062 125.254844 124.579062 
C 125.254844 124.579062 125.254844 124.579062 125.254844 124.579062 
L 125.254844 124.579062 
C 125.254844 124.579062 125.254844 124.579062 125.254844 124.579062 
C 125.254844 124.579062 125.254844 124.579062 125.254844 124.579062 
z
" clip-path="url(#pdade7b3317)" style="fill: #ff8c8e"/>
   </g>
   <g id="patch_82">
    <path d="M 125.254844 124.579062 
C 125.254844 124.579062 125.254844 124.579062 125.254844 124.579062 
C 125.254844 124.579062 125.254844 124.579062 125.254844 124.579062 
L 125.254844 124.579062 
C 125.254844 124.579062 125.254844 124.579062 125.254844 124.579062 
C 125.254844 124.579062 125.254844 124.579062 125.254844 124.579062 
z
" clip-path="url(#pdade7b3317)" style="fill: #ff8c8e"/>
   </g>
   <g id="patch_83">
    <path d="M 125.254844 124.579062 
C 125.254844 124.579062 125.254844 124.579062 125.254844 124.579062 
C 125.254844 124.579062 125.254844 124.579062 125.254844 124.579062 
L 125.254844 124.579062 
C 125.254844 124.579062 125.254844 124.579062 125.254844 124.579062 
C 125.254844 124.579062 125.254844 124.579062 125.254844 124.579062 
z
" clip-path="url(#pdade7b3317)" style="fill: #ff8c8e"/>
   </g>
   <g id="patch_84">
    <path d="M 123.136959 146.082308 
C 122.433126 146.012987 121.73312 145.909151 121.03947 145.771175 
C 120.345821 145.6332 119.659364 145.461251 118.982578 145.255951 
L 118.982578 145.255951 
C 119.659364 145.461251 120.345821 145.6332 121.03947 145.771175 
C 121.73312 145.909151 122.433126 146.012987 123.136959 146.082308 
z
" clip-path="url(#pdade7b3317)" style="fill: #ff8c8e"/>
   </g>
   <g id="patch_85">
    <path d="M 117.157384 151.27281 
C 116.283658 151.007768 115.423471 150.699989 114.579931 150.350583 
C 113.73639 150.001177 112.910513 149.610566 112.105282 149.180161 
L 112.105282 149.180161 
C 112.910513 149.610566 113.73639 150.001177 114.579931 150.350583 
C 115.423471 150.699989 116.283658 151.007768 117.157384 151.27281 
z
" clip-path="url(#pdade7b3317)" style="fill: #ff8c8e"/>
   </g>
   <g id="patch_86">
    <path d="M 112.105282 149.180161 
C 111.300052 148.749757 110.516438 148.280077 109.757272 147.772818 
C 108.998106 147.265559 108.264302 146.721333 107.558511 146.142106 
L 107.558511 146.142106 
C 108.264302 146.721333 108.998106 147.265559 109.757272 147.772818 
C 110.516438 148.280077 111.300052 148.749757 112.105282 149.180161 
z
" clip-path="url(#pdade7b3317)" style="fill: #ff8c8e"/>
   </g>
   <g id="patch_87">
    <path d="M 112.741647 139.826437 
C 112.242578 139.416861 111.763918 138.983029 111.307398 138.526509 
C 110.850877 138.069988 110.417045 137.591328 110.007469 137.092259 
L 110.007469 137.092259 
C 110.417045 137.591328 110.850877 138.069988 111.307398 138.526509 
C 111.763918 138.983029 112.242578 139.416861 112.741647 139.826437 
z
" clip-path="url(#pdade7b3317)" style="fill: #ff8c8e"/>
   </g>
   <g id="patch_88">
    <path d="M 104.798345 141.367278 
C 104.248841 140.697706 103.732543 140.001558 103.251315 139.28135 
C 102.770088 138.561142 102.32451 137.817741 101.916192 137.053832 
L 101.916192 137.053832 
C 102.32451 137.817741 102.770088 138.561142 103.251315 139.28135 
C 103.732543 140.001558 104.248841 140.697706 104.798345 141.367278 
z
" clip-path="url(#pdade7b3317)" style="fill: #ff8c8e"/>
   </g>
   <g id="patch_89">
    <path d="M 125.254844 124.579062 
C 125.254844 124.579062 125.254844 124.579062 125.254844 124.579062 
C 125.254844 124.579062 125.254844 124.579062 125.254844 124.579062 
L 92.561813 134.496385 
C 92.886422 135.566477 93.263374 136.619986 93.691307 137.653108 
C 94.11924 138.686229 94.597638 139.697718 95.124774 140.68392 
z
" clip-path="url(#pdade7b3317)" style="fill: #ff8c8e"/>
   </g>
   <g id="patch_90">
    <path d="M 99.930931 132.260987 
C 99.67949 131.432098 99.468897 130.591363 99.299912 129.741819 
C 99.130928 128.892276 99.003755 128.034947 98.918854 127.172931 
L 80.492268 128.987791 
C 80.636572 130.452937 80.852724 131.910115 81.139943 133.354062 
C 81.427162 134.798008 81.785102 136.226983 82.212469 137.635824 
z
" clip-path="url(#pdade7b3317)" style="fill: #ff8c8e"/>
   </g>
   <g id="patch_91">
    <path d="M 110.049753 126.076633 
C 110.000735 125.578948 109.976182 125.079156 109.976182 124.579062 
C 109.976182 124.078969 110.000735 123.579177 110.049753 123.081492 
L 83.153853 120.432477 
C 83.018129 121.810505 82.950145 123.194367 82.950145 124.579062 
C 82.950145 125.963758 83.018129 127.34762 83.153853 128.725648 
z
" clip-path="url(#pdade7b3317)" style="fill: #ff8c8e"/>
   </g>
   <g id="patch_92">
    <path d="M 112.839939 123.356301 
C 112.879962 122.949943 112.939912 122.545794 113.019572 122.145316 
C 113.099232 121.744837 113.198506 121.348511 113.317037 120.957768 
L 91.489627 114.336496 
C 91.154372 115.441682 90.873582 116.562662 90.648269 117.695387 
C 90.422956 118.828112 90.253392 119.971216 90.14019 121.120571 
z
" clip-path="url(#pdade7b3317)" style="fill: #ff8c8e"/>
   </g>
   <g id="patch_93">
    <path d="M 99.930931 116.897138 
C 100.182372 116.068248 100.474357 115.252203 100.805833 114.451951 
C 101.137308 113.651698 101.507874 112.868202 101.916192 112.104293 
L 93.178935 107.434132 
C 92.617756 108.484025 92.108462 109.560837 91.652892 110.660679 
C 91.197323 111.760521 90.796027 112.882067 90.450455 114.021267 
z
" clip-path="url(#pdade7b3317)" style="fill: #ff8c8e"/>
   </g>
   <g id="patch_94">
    <path d="M 94.136642 107.946037 
C 94.681065 106.927492 95.275169 105.93629 95.916806 104.976012 
C 96.558443 104.015735 97.24684 103.087538 97.979511 102.194776 
L 94.760095 99.552669 
C 93.940944 100.550808 93.171292 101.588563 92.45392 102.662186 
C 91.736548 103.735809 91.07232 104.844006 90.463636 105.982775 
z
" clip-path="url(#pdade7b3317)" style="fill: #ff8c8e"/>
   </g>
   <g id="patch_95">
    <path d="M 84.914083 91.472256 
C 85.997719 90.151843 87.145529 88.885429 88.35337 87.677588 
C 89.56121 86.469748 90.827624 85.321937 92.148037 84.238302 
L 92.148037 84.238302 
C 90.827624 85.321937 89.56121 86.469748 88.35337 87.677588 
C 87.145529 88.885429 85.997719 90.151843 84.914083 91.472256 
z
" clip-path="url(#pdade7b3317)" style="fill: #ff8c8e"/>
   </g>
   <g id="patch_96">
    <path d="M 105.07792 99.99341 
C 105.882645 99.332989 106.71931 98.712476 107.584893 98.134113 
C 108.450476 97.555749 109.343933 97.020231 110.262037 96.529494 
L 75.010441 30.578396 
C 71.933658 32.22297 68.939475 34.017615 66.038705 35.955847 
C 63.137934 37.89408 60.334075 39.973564 57.637252 42.186789 
z
" clip-path="url(#pdade7b3317)" style="fill: #ff8c8e"/>
   </g>
   <g id="patch_97">
    <path d="M 115.069237 105.523133 
C 115.692966 105.189743 116.332688 104.887177 116.986092 104.616529 
C 117.639495 104.34588 118.305793 104.107475 118.982578 103.902174 
L 109.059924 71.191567 
C 107.312472 71.721651 105.592098 72.33721 103.905017 73.036022 
C 102.217937 73.734834 100.566183 74.516055 98.955721 75.376865 
z
" clip-path="url(#pdade7b3317)" style="fill: #ff8c8e"/>
   </g>
   <g id="patch_98">
    <path d="M 117.572919 99.25515 
C 118.401808 99.003709 119.242543 98.793116 120.092087 98.624131 
C 120.941631 98.455146 121.798959 98.327974 122.660975 98.243073 
L 121.58656 87.334348 
C 120.367484 87.454417 119.155039 87.634266 117.953603 87.873246 
C 116.752167 88.112227 115.563188 88.410051 114.390961 88.765642 
z
" clip-path="url(#pdade7b3317)" style="fill: #ff8c8e"/>
   </g>
   <g id="patch_99">
    <path d="M 119.855276 69.756328 
C 121.649706 69.579592 123.451731 69.491064 125.254844 69.491064 
C 127.057956 69.491064 128.859982 69.579592 130.654412 69.756328 
L 130.654412 69.756328 
C 128.859982 69.579592 127.057956 69.491064 125.254844 69.491064 
C 123.451731 69.491064 121.649706 69.579592 119.855276 69.756328 
z
" clip-path="url(#pdade7b3317)" style="fill: #828282"/>
   </g>
   <g id="patch_100">
    <path d="M 127.989021 96.818492 
C 128.897666 96.907985 129.80137 97.042037 130.696867 97.220163 
C 131.592365 97.398288 132.478577 97.620273 133.352304 97.885315 
L 133.352304 97.885315 
C 132.478577 97.620273 131.592365 97.398288 130.696867 97.220163 
C 129.80137 97.042037 128.897666 96.907985 127.989021 96.818492 
z
" clip-path="url(#pdade7b3317)" style="fill: #828282"/>
   </g>
   <g id="patch_101">
    <path d="M 133.747531 96.582424 
C 134.663903 96.860402 135.566075 97.183204 136.450787 97.549664 
C 137.3355 97.916124 138.201687 98.3258 139.04622 98.777212 
L 139.04622 98.777212 
C 138.201687 98.3258 137.3355 97.916124 136.450787 97.549664 
C 135.566075 97.183204 134.663903 96.860402 133.747531 96.582424 
z
" clip-path="url(#pdade7b3317)" style="fill: #828282"/>
   </g>
   <g id="patch_102">
    <path d="M 146.861778 84.155332 
C 148.184907 84.862559 149.472515 85.634322 150.719953 86.467833 
C 151.96739 87.301344 153.173153 88.195599 154.332885 89.147367 
L 154.332885 89.147367 
C 153.173153 88.195599 151.96739 87.301344 150.719953 86.467833 
C 149.472515 85.634322 148.184907 84.862559 146.861778 84.155332 
z
" clip-path="url(#pdade7b3317)" style="fill: #828282"/>
   </g>
   <g id="patch_103">
    <path d="M 142.043059 104.122563 
C 142.712631 104.672067 143.35482 105.254113 143.967306 105.8666 
C 144.579793 106.479087 145.16184 107.121276 145.711343 107.790847 
L 145.711343 107.790847 
C 145.16184 107.121276 144.579793 106.479087 143.967306 105.8666 
C 143.35482 105.254113 142.712631 104.672067 142.043059 104.122563 
z
" clip-path="url(#pdade7b3317)" style="fill: #828282"/>
   </g>
   <g id="patch_104">
    <path d="M 125.254844 124.579062 
C 125.254844 124.579062 125.254844 124.579062 125.254844 124.579062 
C 125.254844 124.579062 125.254844 124.579062 125.254844 124.579062 
L 125.254844 124.579062 
C 125.254844 124.579062 125.254844 124.579062 125.254844 124.579062 
C 125.254844 124.579062 125.254844 124.579062 125.254844 124.579062 
z
" clip-path="url(#pdade7b3317)" style="fill: #828282"/>
   </g>
   <g id="patch_105">
    <path d="M 133.034394 120.420806 
C 133.1705 120.675442 133.294022 120.936608 133.404514 121.203359 
C 133.515006 121.470109 133.612334 121.742124 133.696148 122.018421 
L 133.696148 122.018421 
C 133.612334 121.742124 133.515006 121.470109 133.404514 121.203359 
C 133.294022 120.936608 133.1705 120.675442 133.034394 120.420806 
z
" clip-path="url(#pdade7b3317)" style="fill: #828282"/>
   </g>
   <g id="patch_106">
    <path d="M 125.254844 124.579062 
C 125.254844 124.579062 125.254844 124.579062 125.254844 124.579062 
C 125.254844 124.579062 125.254844 124.579062 125.254844 124.579062 
L 125.254844 124.579062 
C 125.254844 124.579062 125.254844 124.579062 125.254844 124.579062 
C 125.254844 124.579062 125.254844 124.579062 125.254844 124.579062 
z
" clip-path="url(#pdade7b3317)" style="fill: #828282"/>
   </g>
   <g id="patch_107">
    <path d="M 140.459935 123.081492 
C 140.508952 123.579177 140.533506 124.078969 140.533506 124.579062 
C 140.533506 125.079156 140.508952 125.578948 140.459935 126.076633 
L 140.459935 126.076633 
C 140.508952 125.578948 140.533506 125.079156 140.533506 124.579062 
C 140.533506 124.078969 140.508952 123.579177 140.459935 123.081492 
z
" clip-path="url(#pdade7b3317)" style="fill: #828282"/>
   </g>
   <g id="patch_108">
    <path d="M 137.669748 125.801824 
C 137.629726 126.208182 137.569776 126.612331 137.490116 127.012809 
C 137.410456 127.413288 137.311181 127.809614 137.192651 128.200357 
L 137.192651 128.200357 
C 137.311181 127.809614 137.410456 127.413288 137.490116 127.012809 
C 137.569776 126.612331 137.629726 126.208182 137.669748 125.801824 
z
" clip-path="url(#pdade7b3317)" style="fill: #828282"/>
   </g>
   <g id="patch_109">
    <path d="M 125.254844 124.579062 
C 125.254844 124.579062 125.254844 124.579062 125.254844 124.579062 
C 125.254844 124.579062 125.254844 124.579062 125.254844 124.579062 
L 125.254844 124.579062 
C 125.254844 124.579062 125.254844 124.579062 125.254844 124.579062 
C 125.254844 124.579062 125.254844 124.579062 125.254844 124.579062 
z
" clip-path="url(#pdade7b3317)" style="fill: #828282"/>
   </g>
   <g id="patch_110">
    <path d="M 125.254844 124.579062 
C 125.254844 124.579062 125.254844 124.579062 125.254844 124.579062 
C 125.254844 124.579062 125.254844 124.579062 125.254844 124.579062 
L 125.254844 124.579062 
C 125.254844 124.579062 125.254844 124.579062 125.254844 124.579062 
C 125.254844 124.579062 125.254844 124.579062 125.254844 124.579062 
z
" clip-path="url(#pdade7b3317)" style="fill: #828282"/>
   </g>
   <g id="patch_111">
    <path d="M 125.254844 124.579062 
C 125.254844 124.579062 125.254844 124.579062 125.254844 124.579062 
C 125.254844 124.579062 125.254844 124.579062 125.254844 124.579062 
L 125.254844 124.579062 
C 125.254844 124.579062 125.254844 124.579062 125.254844 124.579062 
C 125.254844 124.579062 125.254844 124.579062 125.254844 124.579062 
z
" clip-path="url(#pdade7b3317)" style="fill: #828282"/>
   </g>
   <g id="patch_112">
    <path d="M 125.254844 124.579062 
C 125.254844 124.579062 125.254844 124.579062 125.254844 124.579062 
C 125.254844 124.579062 125.254844 124.579062 125.254844 124.579062 
L 125.254844 124.579062 
C 125.254844 124.579062 125.254844 124.579062 125.254844 124.579062 
C 125.254844 124.579062 125.254844 124.579062 125.254844 124.579062 
z
" clip-path="url(#pdade7b3317)" style="fill: #828282"/>
   </g>
   <g id="patch_113">
    <path d="M 125.254844 124.579062 
C 125.254844 124.579062 125.254844 124.579062 125.254844 124.579062 
C 125.254844 124.579062 125.254844 124.579062 125.254844 124.579062 
L 125.254844 124.579062 
C 125.254844 124.579062 125.254844 124.579062 125.254844 124.579062 
C 125.254844 124.579062 125.254844 124.579062 125.254844 124.579062 
z
" clip-path="url(#pdade7b3317)" style="fill: #828282"/>
   </g>
   <g id="patch_114">
    <path d="M 125.254844 124.579062 
C 125.254844 124.579062 125.254844 124.579062 125.254844 124.579062 
C 125.254844 124.579062 125.254844 124.579062 125.254844 124.579062 
L 125.254844 124.579062 
C 125.254844 124.579062 125.254844 124.579062 125.254844 124.579062 
C 125.254844 124.579062 125.254844 124.579062 125.254844 124.579062 
z
" clip-path="url(#pdade7b3317)" style="fill: #828282"/>
   </g>
   <g id="patch_115">
    <path d="M 125.254844 124.579062 
C 125.254844 124.579062 125.254844 124.579062 125.254844 124.579062 
C 125.254844 124.579062 125.254844 124.579062 125.254844 124.579062 
L 125.254844 124.579062 
C 125.254844 124.579062 125.254844 124.579062 125.254844 124.579062 
C 125.254844 124.579062 125.254844 124.579062 125.254844 124.579062 
z
" clip-path="url(#pdade7b3317)" style="fill: #828282"/>
   </g>
   <g id="patch_116">
    <path d="M 123.136959 146.082308 
C 122.433126 146.012987 121.73312 145.909151 121.03947 145.771175 
C 120.345821 145.6332 119.659364 145.461251 118.982578 145.255951 
L 118.982578 145.255951 
C 119.659364 145.461251 120.345821 145.6332 121.03947 145.771175 
C 121.73312 145.909151 122.433126 146.012987 123.136959 146.082308 
z
" clip-path="url(#pdade7b3317)" style="fill: #828282"/>
   </g>
   <g id="patch_117">
    <path d="M 117.157384 151.27281 
C 116.283658 151.007768 115.423471 150.699989 114.579931 150.350583 
C 113.73639 150.001177 112.910513 149.610566 112.105282 149.180161 
L 112.105282 149.180161 
C 112.910513 149.610566 113.73639 150.001177 114.579931 150.350583 
C 115.423471 150.699989 116.283658 151.007768 117.157384 151.27281 
z
" clip-path="url(#pdade7b3317)" style="fill: #828282"/>
   </g>
   <g id="patch_118">
    <path d="M 112.105282 149.180161 
C 111.300052 148.749757 110.516438 148.280077 109.757272 147.772818 
C 108.998106 147.265559 108.264302 146.721333 107.558511 146.142106 
L 107.558511 146.142106 
C 108.264302 146.721333 108.998106 147.265559 109.757272 147.772818 
C 110.516438 148.280077 111.300052 148.749757 112.105282 149.180161 
z
" clip-path="url(#pdade7b3317)" style="fill: #828282"/>
   </g>
   <g id="patch_119">
    <path d="M 112.741647 139.826437 
C 112.242578 139.416861 111.763918 138.983029 111.307398 138.526509 
C 110.850877 138.069988 110.417045 137.591328 110.007469 137.092259 
L 110.007469 137.092259 
C 110.417045 137.591328 110.850877 138.069988 111.307398 138.526509 
C 111.763918 138.983029 112.242578 139.416861 112.741647 139.826437 
z
" clip-path="url(#pdade7b3317)" style="fill: #828282"/>
   </g>
   <g id="patch_120">
    <path d="M 104.798345 141.367278 
C 104.248841 140.697706 103.732543 140.001558 103.251315 139.28135 
C 102.770088 138.561142 102.32451 137.817741 101.916192 137.053832 
L 101.916192 137.053832 
C 102.32451 137.817741 102.770088 138.561142 103.251315 139.28135 
C 103.732543 140.001558 104.248841 140.697706 104.798345 141.367278 
z
" clip-path="url(#pdade7b3317)" style="fill: #828282"/>
   </g>
   <g id="patch_121">
    <path d="M 95.124774 140.68392 
C 94.597638 139.697718 94.11924 138.686229 93.691307 137.653108 
C 93.263374 136.619986 92.886422 135.566477 92.561813 134.496385 
L 92.561813 134.496385 
C 92.886422 135.566477 93.263374 136.619986 93.691307 137.653108 
C 94.11924 138.686229 94.597638 139.697718 95.124774 140.68392 
z
" clip-path="url(#pdade7b3317)" style="fill: #828282"/>
   </g>
   <g id="patch_122">
    <path d="M 82.212469 137.635824 
C 81.785102 136.226983 81.427162 134.798008 81.139943 133.354062 
C 80.852724 131.910115 80.636572 130.452937 80.492268 128.987791 
L 80.492268 128.987791 
C 80.636572 130.452937 80.852724 131.910115 81.139943 133.354062 
C 81.427162 134.798008 81.785102 136.226983 82.212469 137.635824 
z
" clip-path="url(#pdade7b3317)" style="fill: #828282"/>
   </g>
   <g id="patch_123">
    <path d="M 83.153853 128.725648 
C 83.018129 127.34762 82.950145 125.963758 82.950145 124.579062 
C 82.950145 123.194367 83.018129 121.810505 83.153853 120.432477 
L 83.153853 120.432477 
C 83.018129 121.810505 82.950145 123.194367 82.950145 124.579062 
C 82.950145 125.963758 83.018129 127.34762 83.153853 128.725648 
z
" clip-path="url(#pdade7b3317)" style="fill: #828282"/>
   </g>
   <g id="patch_124">
    <path d="M 90.14019 121.120571 
C 90.253392 119.971216 90.422956 118.828112 90.648269 117.695387 
C 90.873582 116.562662 91.154372 115.441682 91.489627 114.336496 
L 88.460052 113.417484 
C 88.094717 114.621833 87.788732 115.843392 87.543203 117.077751 
C 87.297674 118.312109 87.112896 119.557778 86.989537 120.810259 
z
" clip-path="url(#pdade7b3317)" style="fill: #828282"/>
   </g>
   <g id="patch_125">
    <path d="M 90.450455 114.021267 
C 90.796027 112.882067 91.197323 111.760521 91.652892 110.660679 
C 92.108462 109.560837 92.617756 108.484025 93.178935 107.434132 
L 91.344569 106.453643 
C 90.751297 107.563577 90.212877 108.70197 89.731255 109.86471 
C 89.249632 111.02745 88.825387 112.213136 88.460052 113.417484 
z
" clip-path="url(#pdade7b3317)" style="fill: #828282"/>
   </g>
   <g id="patch_126">
    <path d="M 90.463636 105.982775 
C 91.07232 104.844006 91.736548 103.735809 92.45392 102.662186 
C 93.171292 101.588563 93.940944 100.550808 94.760095 99.552669 
L 74.685024 83.077484 
C 73.326616 84.73271 72.050293 86.453632 70.860666 88.234035 
C 69.671039 90.014437 68.569542 91.852174 67.560153 93.740608 
z
" clip-path="url(#pdade7b3317)" style="fill: #828282"/>
   </g>
   <g id="patch_127">
    <path d="M 84.914083 91.472256 
C 85.997719 90.151843 87.145529 88.885429 88.35337 87.677588 
C 89.56121 86.469748 90.827624 85.321937 92.148037 84.238302 
L 90.307387 81.995464 
C 88.913563 83.139346 87.576739 84.350972 86.301746 85.625965 
C 85.026753 86.900958 83.815127 88.237781 82.671245 89.631606 
z
" clip-path="url(#pdade7b3317)" style="fill: #828282"/>
   </g>
   <g id="patch_128">
    <path d="M 57.637252 42.186789 
C 60.334075 39.973564 63.137934 37.89408 66.038705 35.955847 
C 68.939475 34.017615 71.933658 32.22297 75.010441 30.578396 
L 72.986371 26.791629 
C 69.785643 28.502454 66.67084 30.369395 63.653214 32.385708 
C 60.635588 34.402021 57.718776 36.565277 54.913314 38.86766 
z
" clip-path="url(#pdade7b3317)" style="fill: #828282"/>
   </g>
   <g id="patch_129">
    <path d="M 98.955721 75.376865 
C 100.566183 74.516055 102.217937 73.734834 103.905017 73.036022 
C 105.592098 72.33721 107.312472 71.721651 109.059924 71.191567 
L 102.495363 49.551109 
C 100.039586 50.296061 97.621864 51.161136 95.250931 52.143209 
C 92.879997 53.125282 90.55871 54.223169 88.295453 55.432905 
z
" clip-path="url(#pdade7b3317)" style="fill: #828282"/>
   </g>
   <g id="patch_130">
    <path d="M 114.390961 88.765642 
C 115.563188 88.410051 116.752167 88.112227 117.953603 87.873246 
C 119.155039 87.634266 120.367484 87.454417 121.58656 87.334348 
L 121.58656 87.334348 
C 120.367484 87.454417 119.155039 87.634266 117.953603 87.873246 
C 116.752167 88.112227 115.563188 88.410051 114.390961 88.765642 
z
" clip-path="url(#pdade7b3317)" style="fill: #828282"/>
   </g>
   <g id="patch_131">
    <path d="M 125.254844 124.579062 
C 125.254844 124.579062 125.254844 124.579062 125.254844 124.579062 
C 125.254844 124.579062 125.254844 124.579062 125.254844 124.579062 
L 130.654412 69.756328 
C 128.859982 69.579592 127.057956 69.491064 125.254844 69.491064 
C 123.451731 69.491064 121.649706 69.579592 119.855276 69.756328 
L 125.254844 124.579062 
z
" clip-path="url(#pdade7b3317)" style="fill: none; stroke: #292929; stroke-width: 0.5; stroke-linejoin: miter"/>
   </g>
   <g id="patch_132">
    <path d="M 125.254844 124.579062 
C 125.254844 124.579062 125.254844 124.579062 125.254844 124.579062 
C 125.254844 124.579062 125.254844 124.579062 125.254844 124.579062 
L 133.352304 97.885315 
C 132.478577 97.620273 131.592365 97.398288 130.696867 97.220163 
C 129.80137 97.042037 128.897666 96.907985 127.989021 96.818492 
L 125.254844 124.579062 
z
" clip-path="url(#pdade7b3317)" style="fill: none; stroke: #292929; stroke-width: 0.5; stroke-linejoin: miter"/>
   </g>
   <g id="patch_133">
    <path d="M 125.254844 124.579062 
C 125.254844 124.579062 125.254844 124.579062 125.254844 124.579062 
C 125.254844 124.579062 125.254844 124.579062 125.254844 124.579062 
L 139.04622 98.777212 
C 138.201687 98.3258 137.3355 97.916124 136.450787 97.549664 
C 135.566075 97.183204 134.663903 96.860402 133.747531 96.582424 
L 125.254844 124.579062 
z
" clip-path="url(#pdade7b3317)" style="fill: none; stroke: #292929; stroke-width: 0.5; stroke-linejoin: miter"/>
   </g>
   <g id="patch_134">
    <path d="M 125.254844 124.579062 
C 125.254844 124.579062 125.254844 124.579062 125.254844 124.579062 
C 125.254844 124.579062 125.254844 124.579062 125.254844 124.579062 
L 154.332885 89.147367 
C 153.173153 88.195599 151.96739 87.301344 150.719953 86.467833 
C 149.472515 85.634322 148.184907 84.862559 146.861778 84.155332 
L 125.254844 124.579062 
z
" clip-path="url(#pdade7b3317)" style="fill: none; stroke: #292929; stroke-width: 0.5; stroke-linejoin: miter"/>
   </g>
   <g id="patch_135">
    <path d="M 125.254844 124.579062 
C 125.254844 124.579062 125.254844 124.579062 125.254844 124.579062 
C 125.254844 124.579062 125.254844 124.579062 125.254844 124.579062 
L 145.711343 107.790847 
C 145.16184 107.121276 144.579793 106.479087 143.967306 105.8666 
C 143.35482 105.254113 142.712631 104.672067 142.043059 104.122563 
L 125.254844 124.579062 
z
" clip-path="url(#pdade7b3317)" style="fill: none; stroke: #292929; stroke-width: 0.5; stroke-linejoin: miter"/>
   </g>
   <g id="patch_136">
    <path d="M 125.254844 124.579062 
C 125.254844 124.579062 125.254844 124.579062 125.254844 124.579062 
C 125.254844 124.579062 125.254844 124.579062 125.254844 124.579062 
L 125.254844 124.579062 
C 125.254844 124.579062 125.254844 124.579062 125.254844 124.579062 
C 125.254844 124.579062 125.254844 124.579062 125.254844 124.579062 
L 125.254844 124.579062 
z
" clip-path="url(#pdade7b3317)" style="fill: none; stroke: #292929; stroke-width: 0.5; stroke-linejoin: miter"/>
   </g>
   <g id="patch_137">
    <path d="M 125.254844 124.579062 
C 125.254844 124.579062 125.254844 124.579062 125.254844 124.579062 
C 125.254844 124.579062 125.254844 124.579062 125.254844 124.579062 
L 133.696148 122.018421 
C 133.612334 121.742124 133.515006 121.470109 133.404514 121.203359 
C 133.294022 120.936608 133.1705 120.675442 133.034394 120.420806 
L 125.254844 124.579062 
z
" clip-path="url(#pdade7b3317)" style="fill: none; stroke: #292929; stroke-width: 0.5; stroke-linejoin: miter"/>
   </g>
   <g id="patch_138">
    <path d="M 125.254844 124.579062 
C 125.254844 124.579062 125.254844 124.579062 125.254844 124.579062 
C 125.254844 124.579062 125.254844 124.579062 125.254844 124.579062 
L 125.254844 124.579062 
C 125.254844 124.579062 125.254844 124.579062 125.254844 124.579062 
C 125.254844 124.579062 125.254844 124.579062 125.254844 124.579062 
L 125.254844 124.579062 
z
" clip-path="url(#pdade7b3317)" style="fill: none; stroke: #292929; stroke-width: 0.5; stroke-linejoin: miter"/>
   </g>
   <g id="patch_139">
    <path d="M 125.254844 124.579062 
C 125.254844 124.579062 125.254844 124.579062 125.254844 124.579062 
C 125.254844 124.579062 125.254844 124.579062 125.254844 124.579062 
L 140.459935 126.076633 
C 140.508952 125.578948 140.533506 125.079156 140.533506 124.579062 
C 140.533506 124.078969 140.508952 123.579177 140.459935 123.081492 
L 125.254844 124.579062 
z
" clip-path="url(#pdade7b3317)" style="fill: none; stroke: #292929; stroke-width: 0.5; stroke-linejoin: miter"/>
   </g>
   <g id="patch_140">
    <path d="M 125.254844 124.579062 
C 125.254844 124.579062 125.254844 124.579062 125.254844 124.579062 
C 125.254844 124.579062 125.254844 124.579062 125.254844 124.579062 
L 137.192651 128.200357 
C 137.311181 127.809614 137.410456 127.413288 137.490116 127.012809 
C 137.569776 126.612331 137.629726 126.208182 137.669748 125.801824 
L 125.254844 124.579062 
z
" clip-path="url(#pdade7b3317)" style="fill: none; stroke: #292929; stroke-width: 0.5; stroke-linejoin: miter"/>
   </g>
   <g id="patch_141">
    <path d="M 125.254844 124.579062 
C 125.254844 124.579062 125.254844 124.579062 125.254844 124.579062 
C 125.254844 124.579062 125.254844 124.579062 125.254844 124.579062 
L 125.254844 124.579062 
C 125.254844 124.579062 125.254844 124.579062 125.254844 124.579062 
C 125.254844 124.579062 125.254844 124.579062 125.254844 124.579062 
L 125.254844 124.579062 
z
" clip-path="url(#pdade7b3317)" style="fill: none; stroke: #292929; stroke-width: 0.5; stroke-linejoin: miter"/>
   </g>
   <g id="patch_142">
    <path d="M 125.254844 124.579062 
C 125.254844 124.579062 125.254844 124.579062 125.254844 124.579062 
C 125.254844 124.579062 125.254844 124.579062 125.254844 124.579062 
L 125.254844 124.579062 
C 125.254844 124.579062 125.254844 124.579062 125.254844 124.579062 
C 125.254844 124.579062 125.254844 124.579062 125.254844 124.579062 
L 125.254844 124.579062 
z
" clip-path="url(#pdade7b3317)" style="fill: none; stroke: #292929; stroke-width: 0.5; stroke-linejoin: miter"/>
   </g>
   <g id="patch_143">
    <path d="M 125.254844 124.579062 
C 125.254844 124.579062 125.254844 124.579062 125.254844 124.579062 
C 125.254844 124.579062 125.254844 124.579062 125.254844 124.579062 
L 125.254844 124.579062 
C 125.254844 124.579062 125.254844 124.579062 125.254844 124.579062 
C 125.254844 124.579062 125.254844 124.579062 125.254844 124.579062 
L 125.254844 124.579062 
z
" clip-path="url(#pdade7b3317)" style="fill: none; stroke: #292929; stroke-width: 0.5; stroke-linejoin: miter"/>
   </g>
   <g id="patch_144">
    <path d="M 125.254844 124.579062 
C 125.254844 124.579062 125.254844 124.579062 125.254844 124.579062 
C 125.254844 124.579062 125.254844 124.579062 125.254844 124.579062 
L 125.254844 124.579062 
C 125.254844 124.579062 125.254844 124.579062 125.254844 124.579062 
C 125.254844 124.579062 125.254844 124.579062 125.254844 124.579062 
L 125.254844 124.579062 
z
" clip-path="url(#pdade7b3317)" style="fill: none; stroke: #292929; stroke-width: 0.5; stroke-linejoin: miter"/>
   </g>
   <g id="patch_145">
    <path d="M 125.254844 124.579062 
C 125.254844 124.579062 125.254844 124.579062 125.254844 124.579062 
C 125.254844 124.579062 125.254844 124.579062 125.254844 124.579062 
L 125.254844 124.579062 
C 125.254844 124.579062 125.254844 124.579062 125.254844 124.579062 
C 125.254844 124.579062 125.254844 124.579062 125.254844 124.579062 
L 125.254844 124.579062 
z
" clip-path="url(#pdade7b3317)" style="fill: none; stroke: #292929; stroke-width: 0.5; stroke-linejoin: miter"/>
   </g>
   <g id="patch_146">
    <path d="M 125.254844 124.579062 
C 125.254844 124.579062 125.254844 124.579062 125.254844 124.579062 
C 125.254844 124.579062 125.254844 124.579062 125.254844 124.579062 
L 125.254844 124.579062 
C 125.254844 124.579062 125.254844 124.579062 125.254844 124.579062 
C 125.254844 124.579062 125.254844 124.579062 125.254844 124.579062 
L 125.254844 124.579062 
z
" clip-path="url(#pdade7b3317)" style="fill: none; stroke: #292929; stroke-width: 0.5; stroke-linejoin: miter"/>
   </g>
   <g id="patch_147">
    <path d="M 125.254844 124.579062 
C 125.254844 124.579062 125.254844 124.579062 125.254844 124.579062 
C 125.254844 124.579062 125.254844 124.579062 125.254844 124.579062 
L 125.254844 124.579062 
C 125.254844 124.579062 125.254844 124.579062 125.254844 124.579062 
C 125.254844 124.579062 125.254844 124.579062 125.254844 124.579062 
L 125.254844 124.579062 
z
" clip-path="url(#pdade7b3317)" style="fill: none; stroke: #292929; stroke-width: 0.5; stroke-linejoin: miter"/>
   </g>
   <g id="patch_148">
    <path d="M 125.254844 124.579062 
C 125.254844 124.579062 125.254844 124.579062 125.254844 124.579062 
C 125.254844 124.579062 125.254844 124.579062 125.254844 124.579062 
L 118.982578 145.255951 
C 119.659364 145.461251 120.345821 145.6332 121.03947 145.771175 
C 121.73312 145.909151 122.433126 146.012987 123.136959 146.082308 
L 125.254844 124.579062 
z
" clip-path="url(#pdade7b3317)" style="fill: none; stroke: #292929; stroke-width: 0.5; stroke-linejoin: miter"/>
   </g>
   <g id="patch_149">
    <path d="M 125.254844 124.579062 
C 125.254844 124.579062 125.254844 124.579062 125.254844 124.579062 
C 125.254844 124.579062 125.254844 124.579062 125.254844 124.579062 
L 112.105282 149.180161 
C 112.910513 149.610566 113.73639 150.001177 114.579931 150.350583 
C 115.423471 150.699989 116.283658 151.007768 117.157384 151.27281 
L 125.254844 124.579062 
z
" clip-path="url(#pdade7b3317)" style="fill: none; stroke: #292929; stroke-width: 0.5; stroke-linejoin: miter"/>
   </g>
   <g id="patch_150">
    <path d="M 125.254844 124.579062 
C 125.254844 124.579062 125.254844 124.579062 125.254844 124.579062 
C 125.254844 124.579062 125.254844 124.579062 125.254844 124.579062 
L 107.558511 146.142106 
C 108.264302 146.721333 108.998106 147.265559 109.757272 147.772818 
C 110.516438 148.280077 111.300052 148.749757 112.105282 149.180161 
L 125.254844 124.579062 
z
" clip-path="url(#pdade7b3317)" style="fill: none; stroke: #292929; stroke-width: 0.5; stroke-linejoin: miter"/>
   </g>
   <g id="patch_151">
    <path d="M 125.254844 124.579062 
C 125.254844 124.579062 125.254844 124.579062 125.254844 124.579062 
C 125.254844 124.579062 125.254844 124.579062 125.254844 124.579062 
L 110.007469 137.092259 
C 110.417045 137.591328 110.850877 138.069988 111.307398 138.526509 
C 111.763918 138.983029 112.242578 139.416861 112.741647 139.826437 
L 125.254844 124.579062 
z
" clip-path="url(#pdade7b3317)" style="fill: none; stroke: #292929; stroke-width: 0.5; stroke-linejoin: miter"/>
   </g>
   <g id="patch_152">
    <path d="M 125.254844 124.579062 
C 125.254844 124.579062 125.254844 124.579062 125.254844 124.579062 
C 125.254844 124.579062 125.254844 124.579062 125.254844 124.579062 
L 101.916192 137.053832 
C 102.32451 137.817741 102.770088 138.561142 103.251315 139.28135 
C 103.732543 140.001558 104.248841 140.697706 104.798345 141.367278 
L 125.254844 124.579062 
z
" clip-path="url(#pdade7b3317)" style="fill: none; stroke: #292929; stroke-width: 0.5; stroke-linejoin: miter"/>
   </g>
   <g id="patch_153">
    <path d="M 125.254844 124.579062 
C 125.254844 124.579062 125.254844 124.579062 125.254844 124.579062 
C 125.254844 124.579062 125.254844 124.579062 125.254844 124.579062 
L 92.561813 134.496385 
C 92.886422 135.566477 93.263374 136.619986 93.691307 137.653108 
C 94.11924 138.686229 94.597638 139.697718 95.124774 140.68392 
L 125.254844 124.579062 
z
" clip-path="url(#pdade7b3317)" style="fill: none; stroke: #292929; stroke-width: 0.5; stroke-linejoin: miter"/>
   </g>
   <g id="patch_154">
    <path d="M 125.254844 124.579062 
C 125.254844 124.579062 125.254844 124.579062 125.254844 124.579062 
C 125.254844 124.579062 125.254844 124.579062 125.254844 124.579062 
L 80.492268 128.987791 
C 80.636572 130.452937 80.852724 131.910115 81.139943 133.354062 
C 81.427162 134.798008 81.785102 136.226983 82.212469 137.635824 
L 125.254844 124.579062 
z
" clip-path="url(#pdade7b3317)" style="fill: none; stroke: #292929; stroke-width: 0.5; stroke-linejoin: miter"/>
   </g>
   <g id="patch_155">
    <path d="M 125.254844 124.579062 
C 125.254844 124.579062 125.254844 124.579062 125.254844 124.579062 
C 125.254844 124.579062 125.254844 124.579062 125.254844 124.579062 
L 83.153853 120.432477 
C 83.018129 121.810505 82.950145 123.194367 82.950145 124.579062 
C 82.950145 125.963758 83.018129 127.34762 83.153853 128.725648 
L 125.254844 124.579062 
z
" clip-path="url(#pdade7b3317)" style="fill: none; stroke: #292929; stroke-width: 0.5; stroke-linejoin: miter"/>
   </g>
   <g id="patch_156">
    <path d="M 125.254844 124.579062 
C 125.254844 124.579062 125.254844 124.579062 125.254844 124.579062 
C 125.254844 124.579062 125.254844 124.579062 125.254844 124.579062 
L 88.460052 113.417484 
C 88.094717 114.621833 87.788732 115.843392 87.543203 117.077751 
C 87.297674 118.312109 87.112896 119.557778 86.989537 120.810259 
L 125.254844 124.579062 
z
" clip-path="url(#pdade7b3317)" style="fill: none; stroke: #292929; stroke-width: 0.5; stroke-linejoin: miter"/>
   </g>
   <g id="patch_157">
    <path d="M 125.254844 124.579062 
C 125.254844 124.579062 125.254844 124.579062 125.254844 124.579062 
C 125.254844 124.579062 125.254844 124.579062 125.254844 124.579062 
L 91.344569 106.453643 
C 90.751297 107.563577 90.212877 108.70197 89.731255 109.86471 
C 89.249632 111.02745 88.825387 112.213136 88.460052 113.417484 
L 125.254844 124.579062 
z
" clip-path="url(#pdade7b3317)" style="fill: none; stroke: #292929; stroke-width: 0.5; stroke-linejoin: miter"/>
   </g>
   <g id="patch_158">
    <path d="M 125.254844 124.579062 
C 125.254844 124.579062 125.254844 124.579062 125.254844 124.579062 
C 125.254844 124.579062 125.254844 124.579062 125.254844 124.579062 
L 74.685024 83.077484 
C 73.326616 84.73271 72.050293 86.453632 70.860666 88.234035 
C 69.671039 90.014437 68.569542 91.852174 67.560153 93.740608 
L 125.254844 124.579062 
z
" clip-path="url(#pdade7b3317)" style="fill: none; stroke: #292929; stroke-width: 0.5; stroke-linejoin: miter"/>
   </g>
   <g id="patch_159">
    <path d="M 125.254844 124.579062 
C 125.254844 124.579062 125.254844 124.579062 125.254844 124.579062 
C 125.254844 124.579062 125.254844 124.579062 125.254844 124.579062 
L 90.307387 81.995464 
C 88.913563 83.139346 87.576739 84.350972 86.301746 85.625965 
C 85.026753 86.900958 83.815127 88.237781 82.671245 89.631606 
L 125.254844 124.579062 
z
" clip-path="url(#pdade7b3317)" style="fill: none; stroke: #292929; stroke-width: 0.5; stroke-linejoin: miter"/>
   </g>
   <g id="patch_160">
    <path d="M 125.254844 124.579062 
C 125.254844 124.579062 125.254844 124.579062 125.254844 124.579062 
C 125.254844 124.579062 125.254844 124.579062 125.254844 124.579062 
L 72.986371 26.791629 
C 69.785643 28.502454 66.67084 30.369395 63.653214 32.385708 
C 60.635588 34.402021 57.718776 36.565277 54.913314 38.86766 
L 125.254844 124.579062 
z
" clip-path="url(#pdade7b3317)" style="fill: none; stroke: #292929; stroke-width: 0.5; stroke-linejoin: miter"/>
   </g>
   <g id="patch_161">
    <path d="M 125.254844 124.579062 
C 125.254844 124.579062 125.254844 124.579062 125.254844 124.579062 
C 125.254844 124.579062 125.254844 124.579062 125.254844 124.579062 
L 102.495363 49.551109 
C 100.039586 50.296061 97.621864 51.161136 95.250931 52.143209 
C 92.879997 53.125282 90.55871 54.223169 88.295453 55.432905 
L 125.254844 124.579062 
z
" clip-path="url(#pdade7b3317)" style="fill: none; stroke: #292929; stroke-width: 0.5; stroke-linejoin: miter"/>
   </g>
   <g id="patch_162">
    <path d="M 125.254844 124.579062 
C 125.254844 124.579062 125.254844 124.579062 125.254844 124.579062 
C 125.254844 124.579062 125.254844 124.579062 125.254844 124.579062 
L 121.58656 87.334348 
C 120.367484 87.454417 119.155039 87.634266 117.953603 87.873246 
C 116.752167 88.112227 115.563188 88.410051 114.390961 88.765642 
L 125.254844 124.579062 
z
" clip-path="url(#pdade7b3317)" style="fill: none; stroke: #292929; stroke-width: 0.5; stroke-linejoin: miter"/>
   </g>
   <g id="PathCollection_1">
    <defs>
     <path id="m666a0ef9d4" d="M 0.193618 7.414054 
L 0.193618 7.414054 
C 0.054922 7.414054 -0.078235 7.358899 -0.176308 7.260826 
C -0.274381 7.162753 -0.329536 7.029596 -0.329536 6.890901 
L -0.329536 5.365008 
L -1.528416 6.56393 
L -1.528416 6.56393 
C -1.577018 6.612704 -1.634775 6.651408 -1.698366 6.677814 
C -1.761958 6.704221 -1.830141 6.717815 -1.898997 6.717815 
C -1.967853 6.717815 -2.036037 6.704221 -2.099628 6.677814 
C -2.163219 6.651408 -2.220976 6.612704 -2.269578 6.56393 
L -2.269578 6.56393 
C -2.318353 6.515327 -2.357056 6.457571 -2.383463 6.393979 
C -2.409869 6.330388 -2.423463 6.262205 -2.423463 6.193348 
C -2.423463 6.124492 -2.409869 6.056309 -2.383463 5.992718 
C -2.357056 5.929126 -2.318353 5.87137 -2.269578 5.822767 
L -0.329536 3.884106 
L -0.329536 0.820937 
L -2.98067 2.351538 
L -3.691824 5.001416 
L -3.691824 5.001416 
C -3.727584 5.135411 -3.815199 5.249836 -3.93523 5.319305 
C -4.055261 5.388775 -4.198123 5.407741 -4.332122 5.371997 
L -4.332122 5.371997 
C -4.466126 5.336237 -4.580558 5.248616 -4.650029 5.128576 
C -4.719499 5.008535 -4.73846 4.865662 -4.702703 4.731657 
L -4.262647 3.092721 
L -5.585535 3.855668 
L -5.585535 3.855668 
C -5.645013 3.890144 -5.710708 3.912561 -5.778854 3.921634 
C -5.847001 3.930706 -5.916272 3.926258 -5.982698 3.908543 
C -6.049125 3.890828 -6.111412 3.860192 -6.165991 3.818391 
C -6.220571 3.77659 -6.266379 3.724437 -6.300791 3.664922 
L -6.300791 3.664922 
C -6.335212 3.605364 -6.35755 3.539597 -6.366524 3.471396 
C -6.375498 3.403194 -6.370933 3.333888 -6.35309 3.267452 
C -6.335248 3.201017 -6.304476 3.138749 -6.26254 3.08422 
C -6.220605 3.029692 -6.168323 2.983966 -6.108695 2.949666 
L -4.785807 2.186762 
L -6.424743 1.746706 
L -6.424743 1.746706 
C -6.558747 1.710946 -6.673179 1.623325 -6.74265 1.503284 
C -6.81212 1.383244 -6.831081 1.240371 -6.795324 1.106366 
L -6.795324 1.106366 
C -6.777471 1.039969 -6.746703 0.977739 -6.704784 0.923241 
C -6.662864 0.868744 -6.61061 0.823041 -6.551015 0.788752 
C -6.491421 0.754464 -6.425647 0.732257 -6.357465 0.723406 
C -6.289282 0.714554 -6.220019 0.71923 -6.153645 0.737166 
L -3.505232 1.44698 
L -0.852424 -0.08496 
L -3.503767 -1.615666 
L -6.153645 -0.905851 
L -6.153645 -0.905851 
C -6.22011 -0.887939 -6.289462 -0.883321 -6.357716 -0.892262 
C -6.42597 -0.901202 -6.491793 -0.923527 -6.551403 -0.957953 
C -6.611013 -0.992379 -6.663247 -1.038234 -6.705103 -1.092883 
C -6.746958 -1.147533 -6.777619 -1.209911 -6.795324 -1.276432 
L -6.795324 -1.276432 
C -6.831068 -1.410431 -6.812101 -1.553293 -6.742632 -1.673324 
C -6.673162 -1.793355 -6.558738 -1.88097 -6.424743 -1.91673 
L -4.785807 -2.355447 
L -6.108695 -3.119732 
L -6.108695 -3.119732 
C -6.228699 -3.188976 -6.316415 -3.303132 -6.352417 -3.436921 
C -6.388419 -3.57071 -6.369839 -3.713469 -6.300791 -3.833586 
L -6.300791 -3.833586 
C -6.266491 -3.893214 -6.220765 -3.945496 -6.166237 -3.987431 
C -6.111708 -4.029367 -6.04944 -4.060139 -5.983005 -4.077981 
C -5.91657 -4.095823 -5.847263 -4.100389 -5.779062 -4.091415 
C -5.71086 -4.082441 -5.645094 -4.060102 -5.585535 -4.025682 
L -4.262647 -3.261396 
L -4.702703 -4.900332 
L -4.702703 -4.900332 
C -4.73846 -5.034337 -4.719499 -5.17721 -4.650029 -5.29725 
C -4.580558 -5.417291 -4.466126 -5.504912 -4.332122 -5.540672 
L -4.332122 -5.540672 
C -4.19831 -5.576464 -4.055613 -5.557686 -3.935617 -5.488496 
C -3.81562 -5.419305 -3.727882 -5.305212 -3.691824 -5.171472 
L -2.982009 -2.521594 
L -0.329411 -0.990302 
L -0.329411 -4.051588 
L -2.269453 -5.991589 
L -2.269453 -5.991589 
C -2.318227 -6.040191 -2.356931 -6.097947 -2.383337 -6.161539 
C -2.409744 -6.22513 -2.423338 -6.293314 -2.423338 -6.36217 
C -2.423338 -6.431026 -2.409744 -6.499209 -2.383337 -6.5628 
C -2.356931 -6.626392 -2.318227 -6.684149 -2.269453 -6.732751 
L -2.269453 -6.732751 
C -2.22085 -6.781526 -2.163094 -6.820229 -2.099502 -6.846635 
C -2.035911 -6.873042 -1.967728 -6.886636 -1.898871 -6.886636 
C -1.830015 -6.886636 -1.761832 -6.873042 -1.698241 -6.846635 
C -1.634649 -6.820229 -1.576893 -6.781526 -1.52829 -6.732751 
L -0.329411 -5.533829 
L -0.329411 -7.059722 
L -0.329411 -7.059722 
C -0.329411 -7.198418 -0.274255 -7.331575 -0.176182 -7.429647 
C -0.07811 -7.52772 0.055047 -7.582875 0.193743 -7.582875 
L 0.193743 -7.582875 
C 0.332439 -7.582875 0.465596 -7.52772 0.563669 -7.429647 
C 0.661741 -7.331575 0.716897 -7.198418 0.716897 -7.059722 
L 0.716897 -5.533829 
L 1.915777 -6.732751 
L 1.915777 -6.732751 
C 1.964379 -6.781526 2.022136 -6.820229 2.085727 -6.846635 
C 2.149318 -6.873042 2.217502 -6.886636 2.286358 -6.886636 
C 2.355214 -6.886636 2.423397 -6.873042 2.486989 -6.846635 
C 2.55058 -6.820229 2.608337 -6.781526 2.656939 -6.732751 
L 2.656939 -6.732751 
C 2.705714 -6.684149 2.744417 -6.626392 2.770823 -6.5628 
C 2.79723 -6.499209 2.810824 -6.431026 2.810824 -6.36217 
C 2.810824 -6.293314 2.79723 -6.22513 2.770823 -6.161539 
C 2.744417 -6.097947 2.705714 -6.040191 2.656939 -5.991589 
L 0.716897 -4.051588 
L 0.716897 -0.991139 
L 3.369495 -2.522954 
L 4.07931 -5.171367 
L 4.07931 -5.171367 
C 4.115368 -5.305107 4.203106 -5.4192 4.323103 -5.488391 
C 4.4431 -5.557582 4.585797 -5.576359 4.719608 -5.540567 
L 4.719608 -5.540567 
C 4.853612 -5.504807 4.968045 -5.417186 5.037515 -5.297146 
C 5.106986 -5.177105 5.125946 -5.034232 5.090189 -4.900227 
L 4.650133 -3.262673 
L 5.973022 -4.025577 
L 5.973022 -4.025577 
C 6.03258 -4.059998 6.098346 -4.082336 6.166548 -4.09131 
C 6.234749 -4.100284 6.304056 -4.095719 6.370491 -4.077876 
C 6.436926 -4.060034 6.499194 -4.029262 6.553723 -3.987327 
C 6.608252 -3.945391 6.653978 -3.893109 6.688277 -3.833481 
L 6.688277 -3.833481 
C 6.757325 -3.713365 6.775905 -3.570605 6.739903 -3.436816 
C 6.703901 -3.303027 6.616186 -3.188871 6.496181 -3.119628 
L 5.173293 -2.355342 
L 6.812229 -1.916625 
L 6.812229 -1.916625 
C 6.946224 -1.880865 7.060649 -1.79325 7.130118 -1.67322 
C 7.199588 -1.553189 7.218554 -1.410326 7.18281 -1.276327 
L 7.18281 -1.276327 
C 7.165106 -1.209806 7.134445 -1.147429 7.092589 -1.092779 
C 7.050733 -1.038129 6.998499 -0.992274 6.938889 -0.957848 
C 6.879279 -0.923422 6.813456 -0.901098 6.745202 -0.892157 
C 6.676949 -0.883217 6.607597 -0.887835 6.541131 -0.905746 
L 3.891253 -1.615561 
L 1.239492 -0.084604 
L 3.892718 1.447085 
L 6.541131 0.73727 
L 6.541131 0.73727 
C 6.674948 0.701466 6.817656 0.720237 6.937662 0.789429 
C 7.057669 0.858621 7.145413 0.972721 7.181471 1.10647 
L 7.181471 1.10647 
C 7.217274 1.240293 7.198497 1.383006 7.129297 1.503014 
C 7.060096 1.623021 6.945986 1.710762 6.812229 1.74681 
L 5.173293 2.186866 
L 6.496181 2.949771 
L 6.496181 2.949771 
C 6.555697 2.984183 6.607849 3.029991 6.649651 3.08457 
C 6.691452 3.13915 6.722088 3.201437 6.739803 3.267863 
C 6.757517 3.33429 6.761966 3.403561 6.752893 3.471707 
C 6.743821 3.539854 6.721404 3.605549 6.686927 3.665026 
L 6.686927 3.665026 
C 6.617458 3.784813 6.503196 3.87225 6.369416 3.907994 
C 6.235636 3.943739 6.092989 3.924946 5.973032 3.855772 
L 4.650144 3.091487 
L 5.08886 4.731783 
L 5.08886 4.731783 
C 5.124664 4.865606 5.105887 5.008319 5.036686 5.128326 
C 4.967486 5.248334 4.853376 5.336074 4.719619 5.372123 
L 4.719619 5.372123 
C 4.585619 5.407867 4.442757 5.3889 4.322726 5.319431 
C 4.202695 5.249961 4.115081 5.135537 4.07932 5.001542 
L 3.368166 2.351664 
L 0.717033 0.821063 
L 0.717033 3.884232 
L 2.657075 5.822893 
L 2.657075 5.822893 
C 2.70585 5.871495 2.744553 5.929252 2.770959 5.992843 
C 2.797366 6.056435 2.81096 6.124618 2.81096 6.193474 
C 2.81096 6.26233 2.797366 6.330514 2.770959 6.394105 
C 2.744553 6.457696 2.70585 6.515453 2.657075 6.564055 
L 2.657075 6.564055 
C 2.608473 6.61283 2.550716 6.651533 2.487125 6.67794 
C 2.423533 6.704346 2.35535 6.71794 2.286494 6.71794 
C 2.217638 6.71794 2.149454 6.704346 2.085863 6.67794 
C 2.022272 6.651533 1.964515 6.61283 1.915913 6.564055 
L 0.717033 5.365133 
L 0.717033 6.891026 
L 0.717033 6.891026 
C 0.717033 7.029722 0.661877 7.162879 0.563805 7.260952 
C 0.465732 7.359024 0.332575 7.41418 0.193879 7.41418 
L 0.193618 7.414054 
z
"/>
    </defs>
    <g clip-path="url(#pdade7b3317)">
     <use xlink:href="#m666a0ef9d4" x="73.256082" y="61.233516" style="fill: #9e2096; fill-opacity: 0.7"/>
    </g>
   </g>
   <g id="patch_163">
    <path d="M 125.254844 13.699062 
C 110.694216 13.699062 96.275171 16.567189 82.822905 22.1393 
C 69.370638 27.711411 57.146763 35.879144 46.850844 46.175063 
C 36.554925 56.470982 28.387192 68.694857 22.815081 82.147124 
C 17.24297 95.59939 14.374844 110.018434 14.374844 124.579063 
C 14.374844 139.139691 17.24297 153.558735 22.815081 167.011001 
C 28.387192 180.463268 36.554925 192.687143 46.850844 202.983062 
C 57.146763 213.278981 69.370638 221.446714 82.822905 227.018825 
C 96.275171 232.590936 110.694216 235.459063 125.254844 235.459063 
C 139.815472 235.459063 154.234516 232.590936 167.686783 227.018825 
C 181.139049 221.446714 193.362925 213.278981 203.658844 202.983062 
C 213.954763 192.687143 222.122495 180.463268 227.694606 167.011001 
C 233.266717 153.558735 236.134844 139.139691 236.134844 124.579062 
C 236.134844 110.018434 233.266717 95.59939 227.694606 82.147124 
C 222.122495 68.694857 213.954763 56.470982 203.658844 46.175063 
C 193.362925 35.879144 181.139049 27.711411 167.686783 22.1393 
C 154.234516 16.567189 139.815472 13.699062 125.254844 13.699062 
" style="fill: none; stroke: #000000; stroke-width: 0.8; stroke-linejoin: miter; stroke-linecap: square"/>
   </g>
  </g>
 </g>
 <defs>
  <clipPath id="pdade7b3317">
   <path d="M 236.134844 124.579063 
C 236.134844 110.018434 233.266717 95.59939 227.694606 82.147124 
C 222.122495 68.694857 213.954763 56.470982 203.658844 46.175063 
C 193.362925 35.879144 181.139049 27.711411 167.686783 22.1393 
C 154.234516 16.567189 139.815472 13.699062 125.254844 13.699062 
C 110.694216 13.699062 96.275171 16.567189 82.822905 22.1393 
C 69.370638 27.711411 57.146763 35.879144 46.850844 46.175063 
C 36.554925 56.470982 28.387192 68.694857 22.815081 82.147124 
C 17.24297 95.59939 14.374844 110.018434 14.374844 124.579062 
C 14.374844 139.139691 17.24297 153.558735 22.815081 167.011001 
C 28.387192 180.463268 36.554925 192.687143 46.850844 202.983062 
C 57.146763 213.278981 69.370638 221.446714 82.822905 227.018825 
C 96.275171 232.590936 110.694216 235.459063 125.254844 235.459063 
C 139.815472 235.459063 154.234516 232.590936 167.686783 227.018825 
C 181.139049 221.446714 193.362925 213.278981 203.658844 202.983062 
C 213.954763 192.687143 222.122495 180.463268 227.694606 167.011001 
C 233.266717 153.558735 236.134844 139.139691 236.134844 124.579063 
M 125.254844 124.579063 
C 125.254844 124.579063 125.254844 124.579063 125.254844 124.579063 
C 125.254844 124.579063 125.254844 124.579063 125.254844 124.579063 
C 125.254844 124.579063 125.254844 124.579063 125.254844 124.579063 
C 125.254844 124.579063 125.254844 124.579063 125.254844 124.579063 
C 125.254844 124.579063 125.254844 124.579063 125.254844 124.579063 
C 125.254844 124.579063 125.254844 124.579063 125.254844 124.579063 
C 125.254844 124.579063 125.254844 124.579063 125.254844 124.579063 
C 125.254844 124.579063 125.254844 124.579063 125.254844 124.579063 
C 125.254844 124.579063 125.254844 124.579063 125.254844 124.579063 
C 125.254844 124.579063 125.254844 124.579063 125.254844 124.579063 
C 125.254844 124.579063 125.254844 124.579063 125.254844 124.579063 
C 125.254844 124.579063 125.254844 124.579063 125.254844 124.579063 
C 125.254844 124.579063 125.254844 124.579063 125.254844 124.579063 
C 125.254844 124.579063 125.254844 124.579063 125.254844 124.579063 
C 125.254844 124.579063 125.254844 124.579063 125.254844 124.579063 
C 125.254844 124.579063 125.254844 124.579063 125.254844 124.579063 
z
"/>
  </clipPath>
 </defs>
</svg>
