<?xml version="1.0" encoding="utf-8" standalone="no"?>
<!DOCTYPE svg PUBLIC "-//W3C//DTD SVG 1.1//EN"
  "http://www.w3.org/Graphics/SVG/1.1/DTD/svg11.dtd">
<svg xmlns:xlink="http://www.w3.org/1999/xlink" width="248.410469pt" height="249.158125pt" viewBox="0 0 248.410469 249.158125" xmlns="http://www.w3.org/2000/svg" version="1.1">
 <title>Ski Rose for 翠云山银河滑雪场</title>
 <metadata>
  <rdf:RDF xmlns:dc="http://purl.org/dc/elements/1.1/" xmlns:cc="http://creativecommons.org/ns#" xmlns:rdf="http://www.w3.org/1999/02/22-rdf-syntax-ns#">
   <cc:Work>
    <dc:type rdf:resource="http://purl.org/dc/dcmitype/StillImage"/>
    <dc:title>Ski Rose for 翠云山银河滑雪场</dc:title>
    <dc:date>2026-05-30T11:08:32.947878</dc:date>
    <dc:description>A 32-bin stacked histogram of downhill ski run orientations colored by difficulty.</dc:description>
    <dc:format>image/svg+xml</dc:format>
    <dc:source>https://openskimap.org/?obj=bbb5a293161c030c07f26139b1cb26a865a7457e</dc:source>
    <dc:creator>
     <cc:Agent>
      <dc:title>https://github.com/dhimmel/openskistats</dc:title>
     </cc:Agent>
    </dc:creator>
    <dc:rights>
     <cc:Agent>
      <dc:title>https://creativecommons.org/licenses/by/4.0/</dc:title>
     </cc:Agent>
    </dc:rights>
   </cc:Work>
  </rdf:RDF>
 </metadata>
 <defs>
  <style type="text/css">*{stroke-linejoin: round; stroke-linecap: butt}</style>
 </defs>
 <g id="figure_1">
  <g id="patch_1">
   <path d="M 0 249.158125 
L 248.410469 249.158125 
L 248.410469 0 
L 0 0 
z
" style="fill: #ffffff"/>
  </g>
  <g id="axes_1">
   <g id="patch_2">
    <path d="M 236.134844 124.579063 
C 236.134844 110.018434 233.266717 95.59939 227.694606 82.147124 
C 222.122495 68.694857 213.954763 56.470982 203.658844 46.175063 
C 193.362925 35.879144 181.139049 27.711411 167.686783 22.1393 
C 154.234516 16.567189 139.815472 13.699062 125.254844 13.699062 
C 110.694216 13.699062 96.275171 16.567189 82.822905 22.1393 
C 69.370638 27.711411 57.146763 35.879144 46.850844 46.175063 
C 36.554925 56.470982 28.387192 68.694857 22.815081 82.147124 
C 17.24297 95.59939 14.374844 110.018434 14.374844 124.579062 
C 14.374844 139.139691 17.24297 153.558735 22.815081 167.011001 
C 28.387192 180.463268 36.554925 192.687143 46.850844 202.983062 
C 57.146763 213.278981 69.370638 221.446714 82.822905 227.018825 
C 96.275171 232.590936 110.694216 235.459063 125.254844 235.459063 
C 139.815472 235.459063 154.234516 232.590936 167.686783 227.018825 
C 181.139049 221.446714 193.362925 213.278981 203.658844 202.983062 
C 213.954763 192.687143 222.122495 180.463268 227.694606 167.011001 
C 233.266717 153.558735 236.134844 139.139691 236.134844 124.579063 
M 125.254844 124.579063 
C 125.254844 124.579063 125.254844 124.579063 125.254844 124.579063 
C 125.254844 124.579063 125.254844 124.579063 125.254844 124.579063 
C 125.254844 124.579063 125.254844 124.579063 125.254844 124.579063 
C 125.254844 124.579063 125.254844 124.579063 125.254844 124.579063 
C 125.254844 124.579063 125.254844 124.579063 125.254844 124.579063 
C 125.254844 124.579063 125.254844 124.579063 125.254844 124.579063 
C 125.254844 124.579063 125.254844 124.579063 125.254844 124.579063 
C 125.254844 124.579063 125.254844 124.579063 125.254844 124.579063 
C 125.254844 124.579063 125.254844 124.579063 125.254844 124.579063 
C 125.254844 124.579063 125.254844 124.579063 125.254844 124.579063 
C 125.254844 124.579063 125.254844 124.579063 125.254844 124.579063 
C 125.254844 124.579063 125.254844 124.579063 125.254844 124.579063 
C 125.254844 124.579063 125.254844 124.579063 125.254844 124.579063 
C 125.254844 124.579063 125.254844 124.579063 125.254844 124.579063 
C 125.254844 124.579063 125.254844 124.579063 125.254844 124.579063 
C 125.254844 124.579063 125.254844 124.579063 125.254844 124.579063 
z
" style="fill: #ffffff"/>
   </g>
   <g id="FillBetweenPolyCollection_1">
    <defs>
     <path id="m10d37ddab1" d="M 235.308277 -137.118067 
L 235.109266 -137.095393 
L 233.864007 -135.036935 
L 232.729589 -133.037508 
L 231.526759 -131.078931 
L 230.26951 -129.164102 
L 228.966329 -127.294843 
L 227.622745 -125.472414 
L 226.242719 -123.697755 
L 224.829356 -121.971612 
L 223.385272 -120.294595 
L 221.912792 -118.667209 
L 220.414065 -117.089869 
L 218.891126 -115.562914 
L 217.345938 -114.086608 
L 215.780417 -112.661145 
L 214.196447 -111.286651 
L 212.59589 -109.963184 
L 211.204783 -108.649183 
L 209.575043 -107.423924 
L 208.155166 -106.200504 
L 207.101002 -104.929538 
L 205.656298 -103.785833 
L 203.986028 -102.744973 
L 202.524427 -101.690769 
L 201.055549 -100.679192 
L 199.580773 -99.709954 
L 198.101476 -98.782717 
L 196.619027 -97.897088 
L 195.134786 -97.052621 
L 193.650106 -96.248817 
L 192.166331 -95.48512 
L 190.684792 -94.760917 
L 189.395657 -93.985464 
L 187.919184 -93.335775 
L 186.448738 -92.723537 
L 185.164399 -92.050828 
L 183.881603 -91.409638 
L 182.429164 -90.900814 
L 181.155671 -90.322991 
L 179.886507 -89.774855 
L 178.622532 -89.25576 
L 177.364589 -88.765027 
L 176.113496 -88.301939 
L 174.87005 -87.865741 
L 173.635023 -87.455645 
L 172.409162 -87.070824 
L 171.330924 -86.596873 
L 170.12133 -86.259463 
L 168.922905 -85.944826 
L 167.861848 -85.536936 
L 166.683266 -85.264958 
L 165.635009 -84.897584 
L 164.59193 -84.549353 
L 163.44467 -84.335382 
L 162.416982 -84.023705 
L 161.395615 -83.729352 
L 160.380897 -83.451739 
L 159.279508 -83.303845 
L 158.282859 -83.057156 
L 157.293689 -82.825227 
L 156.312217 -82.607431 
L 155.33864 -82.403136 
L 154.373125 -82.2117 
L 153.415812 -82.03248 
L 152.466813 -81.864827 
L 151.52621 -81.70809 
L 150.653412 -81.460849 
L 149.726108 -81.326249 
L 148.80733 -81.20078 
L 147.897047 -81.083795 
L 147.041039 -80.882715 
L 146.144177 -80.783664 
L 145.255624 -80.691355 
L 144.411809 -80.52106 
L 143.536305 -80.443711 
L 142.66869 -80.371438 
L 141.836814 -80.228567 
L 140.981469 -80.168443 
L 140.156434 -80.042903 
L 139.312693 -79.993261 
L 138.494164 -79.883867 
L 137.661211 -79.843148 
L 136.848737 -79.748805 
L 136.025613 -79.715579 
L 135.218639 -79.635289 
L 134.404255 -79.608269 
L 133.602128 -79.541146 
L 132.795278 -79.519207 
L 131.997262 -79.464486 
L 131.196635 -79.446675 
L 130.401924 -79.403723 
L 129.608164 -79.368104 
L 128.81385 -79.357595 
L 128.022206 -79.333088 
L 127.230671 -79.325181 
L 126.440217 -79.311503 
L 125.649946 -79.304868 
L 124.859751 -79.305913 
L 124.069502 -79.312697 
L 123.279103 -79.32717 
L 122.487676 -79.336266 
L 121.696149 -79.361561 
L 120.904019 -79.39402 
L 120.108438 -79.409643 
L 119.313933 -79.453364 
L 118.513597 -79.472326 
L 117.715848 -79.527799 
L 116.90936 -79.550862 
L 116.107558 -79.618714 
L 115.304182 -79.694529 
L 114.487013 -79.72782 
L 113.678621 -79.81713 
L 112.852351 -79.857118 
L 112.038329 -79.960855 
L 111.201921 -80.008884 
L 110.381755 -80.128085 
L 109.534308 -80.185638 
L 108.679647 -80.246686 
L 107.848354 -80.390114 
L 106.98148 -80.463259 
L 106.143174 -80.625232 
L 105.263578 -80.712233 
L 104.375843 -80.805327 
L 103.525507 -80.996756 
L 102.624525 -81.106624 
L 101.715129 -81.224301 
L 100.79726 -81.350429 
L 99.930073 -81.586132 
L 98.998866 -81.733201 
L 98.059229 -81.890498 
L 97.111214 -82.058677 
L 96.154903 -82.238386 
L 95.190406 -82.430275 
L 94.217862 -82.634989 
L 93.237438 -82.853167 
L 92.249328 -83.085442 
L 91.253753 -83.332441 
L 90.250961 -83.594782 
L 89.241225 -83.873071 
L 88.119765 -84.053236 
L 87.093194 -84.365074 
L 86.06066 -84.694771 
L 84.905319 -84.927695 
L 83.858205 -85.295119 
L 82.680978 -85.567302 
L 81.621078 -85.975168 
L 80.424026 -86.289927 
L 79.353339 -86.740782 
L 78.138748 -87.101228 
L 76.91428 -87.486043 
L 75.680653 -87.896091 
L 74.591708 -88.441399 
L 73.345865 -88.90301 
L 72.093096 -89.392069 
L 70.669853 -89.804588 
L 69.402116 -90.352467 
L 68.130055 -90.92999 
L 66.85455 -91.537766 
L 65.576499 -92.176365 
L 64.11504 -92.751695 
L 62.83154 -93.455951 
L 61.36012 -94.102843 
L 59.883847 -94.787783 
L 58.598637 -95.596119 
L 57.119577 -96.356511 
L 55.639495 -97.156848 
L 54.159736 -97.997691 
L 52.681651 -98.879547 
L 51.206602 -99.802867 
L 49.735957 -100.768049 
L 48.271093 -101.775437 
L 46.598495 -102.765727 
L 45.147382 -103.861864 
L 43.487482 -104.948456 
L 42.056207 -106.134369 
L 40.415679 -107.318339 
L 39.010364 -108.594593 
L 37.395916 -109.87652 
L 35.796419 -111.209411 
L 34.213729 -112.593272 
L 32.878001 -114.054051 
L 31.335303 -115.535639 
L 29.814934 -117.067779 
L 28.31887 -118.650204 
L 26.849167 -120.282578 
L 25.408002 -121.964481 
L 23.997747 -123.695405 
L 22.621094 -125.474734 
L 21.281273 -127.301706 
L 19.756525 -129.185219 
L 18.507682 -131.107999 
L 17.316979 -133.073957 
L 16.201059 -135.079748 
L 15.18199 -137.12028 
L 15.18199 -137.12028 
L 15.18199 -137.12028 
L 14.954988 -135.199731 
L 14.760522 -133.275154 
L 14.598588 -131.347089 
L 14.483382 -129.415449 
L 14.586897 -127.477005 
L 14.522686 -125.545407 
L 14.490391 -123.612436 
L 14.489737 -121.678576 
L 14.520428 -119.744293 
L 14.582153 -117.810031 
L 14.8732 -115.891839 
L 14.995164 -113.962263 
L 15.147237 -112.033885 
L 15.329304 -110.107091 
L 15.766147 -108.215867 
L 16.008554 -106.297503 
L 16.248081 -104.375853 
L 16.775766 -102.508745 
L 17.070656 -100.595205 
L 17.4688 -98.701923 
L 18.009413 -96.843508 
L 18.429795 -94.953855 
L 19.064781 -93.124133 
L 19.545521 -91.249041 
L 20.237526 -89.44076 
L 20.735403 -87.566787 
L 21.484459 -85.780905 
L 22.13319 -83.958363 
L 22.8544 -82.16341 
L 23.651852 -80.400825 
L 24.397688 -78.615809 
L 25.192437 -76.851743 
L 26.106164 -75.145354 
L 26.906322 -73.382062 
L 27.885268 -71.711697 
L 28.782842 -69.99783 
L 29.717458 -68.303242 
L 30.716104 -66.645648 
L 32.374862 -65.407988 
L 34.309446 -64.383617 
L 36.270379 -63.421735 
L 38.244595 -62.515255 
L 40.223343 -61.659062 
L 42.131164 -60.79602 
L 44.105546 -60.029997 
L 46.001671 -59.247789 
L 47.896054 -58.508414 
L 49.778736 -57.803443 
L 51.656782 -57.138864 
L 53.520776 -56.505974 
L 55.377882 -55.911164 
L 57.163886 -55.289201 
L 58.994464 -54.755191 
L 60.760376 -54.195702 
L 62.516187 -53.665911 
L 64.312429 -53.224662 
L 66.044288 -52.750915 
L 67.764405 -52.303675 
L 69.427241 -51.823114 
L 71.124597 -51.426233 
L 72.809021 -51.05273 
L 74.444299 -50.649261 
L 76.103908 -50.320099 
L 77.714452 -49.955595 
L 79.317975 -49.616905 
L 80.908133 -49.293287 
L 82.490805 -48.99388 
L 84.060063 -48.707714 
L 85.621521 -48.444159 
L 87.16968 -48.192041 
L 88.709879 -47.96095 
L 90.217989 -47.697702 
L 91.73636 -47.491828 
L 93.246769 -47.304734 
L 94.730037 -47.087326 
L 96.219649 -46.920908 
L 97.687469 -46.731198 
L 99.148418 -46.555182 
L 100.614291 -46.429213 
L 102.060832 -46.27739 
L 103.501117 -46.137657 
L 104.935384 -46.009539 
L 106.363891 -45.892582 
L 107.79192 -45.808905 
L 109.20899 -45.711171 
L 110.621267 -45.623347 
L 112.029091 -45.545083 
L 113.43282 -45.476055 
L 114.832825 -45.415969 
L 116.228226 -45.353451 
L 117.62234 -45.312478 
L 119.013853 -45.279762 
L 120.403184 -45.255128 
L 121.790757 -45.238434 
L 123.177004 -45.22957 
L 124.562353 -45.227431 
L 125.94736 -45.224594 
L 127.332642 -45.231154 
L 128.718824 -45.24086 
L 130.106304 -45.258392 
L 131.495512 -45.28386 
L 132.886873 -45.317404 
L 134.280807 -45.359196 
L 135.677722 -45.409444 
L 137.078014 -45.468381 
L 138.48207 -45.536275 
L 139.89026 -45.613421 
L 141.302941 -45.700144 
L 142.720451 -45.796797 
L 144.143113 -45.903759 
L 145.571228 -46.021434 
L 147.005078 -46.150253 
L 148.455211 -46.255936 
L 149.90245 -46.406843 
L 151.356188 -46.570366 
L 152.816614 -46.747024 
L 154.297569 -46.900764 
L 155.773131 -47.103877 
L 157.273987 -47.278013 
L 158.765358 -47.510156 
L 160.283363 -47.715993 
L 161.813634 -47.931964 
L 163.330055 -48.212003 
L 164.877867 -48.463943 
L 166.438248 -48.728668 
L 168.007181 -49.014563 
L 169.588701 -49.315109 
L 171.178562 -49.638365 
L 172.813645 -49.926699 
L 174.427918 -50.286651 
L 176.049959 -50.671712 
L 177.722262 -51.022455 
L 179.367503 -51.450001 
L 181.064023 -51.847124 
L 182.773125 -52.268672 
L 184.494414 -52.715717 
L 186.227444 -53.18932 
L 187.971719 -53.69053 
L 189.726696 -54.220382 
L 191.545836 -54.722932 
L 193.322314 -55.313101 
L 195.167857 -55.875736 
L 196.962942 -56.530618 
L 198.827015 -57.162589 
L 200.70334 -57.827872 
L 202.586197 -58.531848 
L 204.478852 -59.27183 
L 206.446761 -59.996095 
L 208.348981 -60.818689 
L 210.327477 -61.628625 
L 212.233427 -62.537842 
L 214.20737 -63.443685 
L 216.168377 -64.404707 
L 218.103519 -65.427933 
L 219.782928 -66.652178 
L 220.790241 -68.304413 
L 221.755982 -69.981346 
L 222.666987 -71.688584 
L 223.572569 -73.398094 
L 224.464996 -75.114705 
L 225.287989 -76.8657 
L 226.141258 -78.602475 
L 226.853537 -80.402693 
L 227.626266 -82.175431 
L 228.346721 -83.970092 
L 229.017262 -85.783884 
L 229.755523 -87.573431 
L 230.349205 -89.414981 
L 230.993833 -91.239687 
L 231.506398 -93.105918 
L 232.041009 -94.964638 
L 232.587463 -96.82096 
L 233.006204 -98.71025 
L 233.456455 -100.591343 
L 233.862826 -102.482519 
L 234.2258 -104.38249 
L 234.545878 -106.290016 
L 234.823595 -108.203903 
L 235.175515 -110.107732 
L 235.37464 -112.032497 
L 235.608057 -113.953257 
L 235.72416 -115.884939 
L 235.801566 -117.817735 
L 235.972515 -119.745025 
L 235.977 -121.679701 
L 236.07843 -123.61192 
L 236.078338 -125.546204 
L 235.976502 -127.478411 
L 235.975077 -129.413212 
L 235.87274 -131.344743 
L 235.672493 -133.26912 
L 235.571665 -135.201364 
L 235.308277 -137.118067 
z
" style="stroke: #ffee9c"/>
    </defs>
    <g clip-path="url(#pc94dcd9af1)">
     <use xlink:href="#m10d37ddab1" x="0" y="249.158125" style="fill: #ffee9c; stroke: #ffee9c"/>
    </g>
   </g>
   <g id="matplotlib.axis_1">
    <g id="xtick_1">
     <g id="line2d_1">
      <path d="M 125.254844 124.579062 
L 125.254844 13.699062 
" clip-path="url(#pc94dcd9af1)" style="fill: none; stroke: #b0b0b0; stroke-width: 0.8; stroke-linecap: square"/>
     </g>
     <g id="text_1">
      <!-- N -->
      <g transform="translate(121.070469 7.958437) scale(0.1 -0.1)">
       <defs>
        <path id="DejaVuSans-Bold-4e" d="M 588 4666 
L 1931 4666 
L 3628 1466 
L 3628 4666 
L 4769 4666 
L 4769 0 
L 3425 0 
L 1728 3200 
L 1728 0 
L 588 0 
L 588 4666 
z
" transform="scale(0.015625)"/>
       </defs>
       <use xlink:href="#DejaVuSans-Bold-4e"/>
      </g>
     </g>
    </g>
    <g id="xtick_2">
     <g id="line2d_2">
      <path d="M 125.254844 124.579062 
L 203.658844 46.175063 
" clip-path="url(#pc94dcd9af1)" style="fill: none; stroke: #b0b0b0; stroke-width: 0.8; stroke-linecap: square"/>
     </g>
    </g>
    <g id="xtick_3">
     <g id="line2d_3">
      <path d="M 125.254844 124.579062 
L 236.134844 124.579062 
" clip-path="url(#pc94dcd9af1)" style="fill: none; stroke: #b0b0b0; stroke-width: 0.8; stroke-linecap: square"/>
     </g>
     <g id="text_2">
      <!-- E -->
      <g transform="translate(241.219219 127.338437) scale(0.1 -0.1)">
       <defs>
        <path id="DejaVuSans-Bold-45" d="M 588 4666 
L 3834 4666 
L 3834 3756 
L 1791 3756 
L 1791 2888 
L 3713 2888 
L 3713 1978 
L 1791 1978 
L 1791 909 
L 3903 909 
L 3903 0 
L 588 0 
L 588 4666 
z
" transform="scale(0.015625)"/>
       </defs>
       <use xlink:href="#DejaVuSans-Bold-45"/>
      </g>
     </g>
    </g>
    <g id="xtick_4">
     <g id="line2d_4">
      <path d="M 125.254844 124.579062 
L 203.658844 202.983062 
" clip-path="url(#pc94dcd9af1)" style="fill: none; stroke: #b0b0b0; stroke-width: 0.8; stroke-linecap: square"/>
     </g>
    </g>
    <g id="xtick_5">
     <g id="line2d_5">
      <path d="M 125.254844 124.579062 
L 125.254844 235.459063 
" clip-path="url(#pc94dcd9af1)" style="fill: none; stroke: #b0b0b0; stroke-width: 0.8; stroke-linecap: square"/>
     </g>
     <g id="text_3">
      <!-- S -->
      <g transform="translate(121.654063 246.718438) scale(0.1 -0.1)">
       <defs>
        <path id="DejaVuSans-Bold-53" d="M 3834 4519 
L 3834 3531 
Q 3450 3703 3084 3790 
Q 2719 3878 2394 3878 
Q 1963 3878 1756 3759 
Q 1550 3641 1550 3391 
Q 1550 3203 1689 3098 
Q 1828 2994 2194 2919 
L 2706 2816 
Q 3484 2659 3812 2340 
Q 4141 2022 4141 1434 
Q 4141 663 3683 286 
Q 3225 -91 2284 -91 
Q 1841 -91 1394 -6 
Q 947 78 500 244 
L 500 1259 
Q 947 1022 1364 901 
Q 1781 781 2169 781 
Q 2563 781 2772 912 
Q 2981 1044 2981 1288 
Q 2981 1506 2839 1625 
Q 2697 1744 2272 1838 
L 1806 1941 
Q 1106 2091 782 2419 
Q 459 2747 459 3303 
Q 459 4000 909 4375 
Q 1359 4750 2203 4750 
Q 2588 4750 2994 4692 
Q 3400 4634 3834 4519 
z
" transform="scale(0.015625)"/>
       </defs>
       <use xlink:href="#DejaVuSans-Bold-53"/>
      </g>
     </g>
    </g>
    <g id="xtick_6">
     <g id="line2d_6">
      <path d="M 125.254844 124.579062 
L 46.850844 202.983062 
" clip-path="url(#pc94dcd9af1)" style="fill: none; stroke: #b0b0b0; stroke-width: 0.8; stroke-linecap: square"/>
     </g>
    </g>
    <g id="xtick_7">
     <g id="line2d_7">
      <path d="M 125.254844 124.579062 
L 14.374844 124.579063 
" clip-path="url(#pc94dcd9af1)" style="fill: none; stroke: #b0b0b0; stroke-width: 0.8; stroke-linecap: square"/>
     </g>
     <g id="text_4">
      <!-- W -->
      <g transform="translate(0.36 127.338438) scale(0.1 -0.1)">
       <defs>
        <path id="DejaVuSans-Bold-57" d="M 191 4666 
L 1344 4666 
L 2150 1275 
L 2950 4666 
L 4109 4666 
L 4909 1275 
L 5716 4666 
L 6859 4666 
L 5759 0 
L 4372 0 
L 3525 3547 
L 2688 0 
L 1300 0 
L 191 4666 
z
" transform="scale(0.015625)"/>
       </defs>
       <use xlink:href="#DejaVuSans-Bold-57"/>
      </g>
     </g>
    </g>
    <g id="xtick_8">
     <g id="line2d_8">
      <path d="M 125.254844 124.579062 
L 46.850844 46.175063 
" clip-path="url(#pc94dcd9af1)" style="fill: none; stroke: #b0b0b0; stroke-width: 0.8; stroke-linecap: square"/>
     </g>
    </g>
   </g>
   <g id="matplotlib.axis_2"/>
   <g id="patch_3">
    <path d="M 125.254844 124.579062 
C 125.254844 124.579062 125.254844 124.579062 125.254844 124.579062 
C 125.254844 124.579062 125.254844 124.579062 125.254844 124.579062 
L 125.254844 124.579062 
C 125.254844 124.579062 125.254844 124.579062 125.254844 124.579062 
C 125.254844 124.579062 125.254844 124.579062 125.254844 124.579062 
z
" clip-path="url(#pc94dcd9af1)" style="fill: #d9d9d9"/>
   </g>
   <g id="patch_4">
    <path d="M 125.254844 124.579062 
C 125.254844 124.579062 125.254844 124.579062 125.254844 124.579062 
C 125.254844 124.579062 125.254844 124.579062 125.254844 124.579062 
L 125.254844 124.579062 
C 125.254844 124.579062 125.254844 124.579062 125.254844 124.579062 
C 125.254844 124.579062 125.254844 124.579062 125.254844 124.579062 
z
" clip-path="url(#pc94dcd9af1)" style="fill: #d9d9d9"/>
   </g>
   <g id="patch_5">
    <path d="M 125.254844 124.579062 
C 125.254844 124.579062 125.254844 124.579062 125.254844 124.579062 
C 125.254844 124.579062 125.254844 124.579062 125.254844 124.579062 
L 125.254844 124.579062 
C 125.254844 124.579062 125.254844 124.579062 125.254844 124.579062 
C 125.254844 124.579062 125.254844 124.579062 125.254844 124.579062 
z
" clip-path="url(#pc94dcd9af1)" style="fill: #d9d9d9"/>
   </g>
   <g id="patch_6">
    <path d="M 125.254844 124.579062 
C 125.254844 124.579062 125.254844 124.579062 125.254844 124.579062 
C 125.254844 124.579062 125.254844 124.579062 125.254844 124.579062 
L 125.254844 124.579062 
C 125.254844 124.579062 125.254844 124.579062 125.254844 124.579062 
C 125.254844 124.579062 125.254844 124.579062 125.254844 124.579062 
z
" clip-path="url(#pc94dcd9af1)" style="fill: #d9d9d9"/>
   </g>
   <g id="patch_7">
    <path d="M 125.254844 124.579062 
C 125.254844 124.579062 125.254844 124.579062 125.254844 124.579062 
C 125.254844 124.579062 125.254844 124.579062 125.254844 124.579062 
L 125.254844 124.579062 
C 125.254844 124.579062 125.254844 124.579062 125.254844 124.579062 
C 125.254844 124.579062 125.254844 124.579062 125.254844 124.579062 
z
" clip-path="url(#pc94dcd9af1)" style="fill: #d9d9d9"/>
   </g>
   <g id="patch_8">
    <path d="M 125.254844 124.579062 
C 125.254844 124.579062 125.254844 124.579062 125.254844 124.579062 
C 125.254844 124.579062 125.254844 124.579062 125.254844 124.579062 
L 125.254844 124.579062 
C 125.254844 124.579062 125.254844 124.579062 125.254844 124.579062 
C 125.254844 124.579062 125.254844 124.579062 125.254844 124.579062 
z
" clip-path="url(#pc94dcd9af1)" style="fill: #d9d9d9"/>
   </g>
   <g id="patch_9">
    <path d="M 125.254844 124.579062 
C 125.254844 124.579062 125.254844 124.579062 125.254844 124.579062 
C 125.254844 124.579062 125.254844 124.579062 125.254844 124.579062 
L 125.254844 124.579062 
C 125.254844 124.579062 125.254844 124.579062 125.254844 124.579062 
C 125.254844 124.579062 125.254844 124.579062 125.254844 124.579062 
z
" clip-path="url(#pc94dcd9af1)" style="fill: #d9d9d9"/>
   </g>
   <g id="patch_10">
    <path d="M 125.254844 124.579062 
C 125.254844 124.579062 125.254844 124.579062 125.254844 124.579062 
C 125.254844 124.579062 125.254844 124.579062 125.254844 124.579062 
L 125.254844 124.579062 
C 125.254844 124.579062 125.254844 124.579062 125.254844 124.579062 
C 125.254844 124.579062 125.254844 124.579062 125.254844 124.579062 
z
" clip-path="url(#pc94dcd9af1)" style="fill: #d9d9d9"/>
   </g>
   <g id="patch_11">
    <path d="M 125.254844 124.579062 
C 125.254844 124.579062 125.254844 124.579062 125.254844 124.579062 
C 125.254844 124.579062 125.254844 124.579062 125.254844 124.579062 
L 125.254844 124.579062 
C 125.254844 124.579062 125.254844 124.579062 125.254844 124.579062 
C 125.254844 124.579062 125.254844 124.579062 125.254844 124.579062 
z
" clip-path="url(#pc94dcd9af1)" style="fill: #d9d9d9"/>
   </g>
   <g id="patch_12">
    <path d="M 125.254844 124.579062 
C 125.254844 124.579062 125.254844 124.579062 125.254844 124.579062 
C 125.254844 124.579062 125.254844 124.579062 125.254844 124.579062 
L 125.254844 124.579062 
C 125.254844 124.579062 125.254844 124.579062 125.254844 124.579062 
C 125.254844 124.579062 125.254844 124.579062 125.254844 124.579062 
z
" clip-path="url(#pc94dcd9af1)" style="fill: #d9d9d9"/>
   </g>
   <g id="patch_13">
    <path d="M 125.254844 124.579062 
C 125.254844 124.579062 125.254844 124.579062 125.254844 124.579062 
C 125.254844 124.579062 125.254844 124.579062 125.254844 124.579062 
L 125.254844 124.579062 
C 125.254844 124.579062 125.254844 124.579062 125.254844 124.579062 
C 125.254844 124.579062 125.254844 124.579062 125.254844 124.579062 
z
" clip-path="url(#pc94dcd9af1)" style="fill: #d9d9d9"/>
   </g>
   <g id="patch_14">
    <path d="M 125.254844 124.579062 
C 125.254844 124.579062 125.254844 124.579062 125.254844 124.579062 
C 125.254844 124.579062 125.254844 124.579062 125.254844 124.579062 
L 125.254844 124.579062 
C 125.254844 124.579062 125.254844 124.579062 125.254844 124.579062 
C 125.254844 124.579062 125.254844 124.579062 125.254844 124.579062 
z
" clip-path="url(#pc94dcd9af1)" style="fill: #d9d9d9"/>
   </g>
   <g id="patch_15">
    <path d="M 125.254844 124.579062 
C 125.254844 124.579062 125.254844 124.579062 125.254844 124.579062 
C 125.254844 124.579062 125.254844 124.579062 125.254844 124.579062 
L 125.254844 124.579062 
C 125.254844 124.579062 125.254844 124.579062 125.254844 124.579062 
C 125.254844 124.579062 125.254844 124.579062 125.254844 124.579062 
z
" clip-path="url(#pc94dcd9af1)" style="fill: #d9d9d9"/>
   </g>
   <g id="patch_16">
    <path d="M 125.254844 124.579062 
C 125.254844 124.579062 125.254844 124.579062 125.254844 124.579062 
C 125.254844 124.579062 125.254844 124.579062 125.254844 124.579062 
L 125.254844 124.579062 
C 125.254844 124.579062 125.254844 124.579062 125.254844 124.579062 
C 125.254844 124.579062 125.254844 124.579062 125.254844 124.579062 
z
" clip-path="url(#pc94dcd9af1)" style="fill: #d9d9d9"/>
   </g>
   <g id="patch_17">
    <path d="M 125.254844 124.579062 
C 125.254844 124.579062 125.254844 124.579062 125.254844 124.579062 
C 125.254844 124.579062 125.254844 124.579062 125.254844 124.579062 
L 125.254844 124.579062 
C 125.254844 124.579062 125.254844 124.579062 125.254844 124.579062 
C 125.254844 124.579062 125.254844 124.579062 125.254844 124.579062 
z
" clip-path="url(#pc94dcd9af1)" style="fill: #d9d9d9"/>
   </g>
   <g id="patch_18">
    <path d="M 125.254844 124.579062 
C 125.254844 124.579062 125.254844 124.579062 125.254844 124.579062 
C 125.254844 124.579062 125.254844 124.579062 125.254844 124.579062 
L 125.254844 124.579062 
C 125.254844 124.579062 125.254844 124.579062 125.254844 124.579062 
C 125.254844 124.579062 125.254844 124.579062 125.254844 124.579062 
z
" clip-path="url(#pc94dcd9af1)" style="fill: #d9d9d9"/>
   </g>
   <g id="patch_19">
    <path d="M 125.254844 124.579062 
C 125.254844 124.579062 125.254844 124.579062 125.254844 124.579062 
C 125.254844 124.579062 125.254844 124.579062 125.254844 124.579062 
L 125.254844 124.579062 
C 125.254844 124.579062 125.254844 124.579062 125.254844 124.579062 
C 125.254844 124.579062 125.254844 124.579062 125.254844 124.579062 
z
" clip-path="url(#pc94dcd9af1)" style="fill: #d9d9d9"/>
   </g>
   <g id="patch_20">
    <path d="M 125.254844 124.579062 
C 125.254844 124.579062 125.254844 124.579062 125.254844 124.579062 
C 125.254844 124.579062 125.254844 124.579062 125.254844 124.579062 
L 125.254844 124.579062 
C 125.254844 124.579062 125.254844 124.579062 125.254844 124.579062 
C 125.254844 124.579062 125.254844 124.579062 125.254844 124.579062 
z
" clip-path="url(#pc94dcd9af1)" style="fill: #d9d9d9"/>
   </g>
   <g id="patch_21">
    <path d="M 125.254844 124.579062 
C 125.254844 124.579062 125.254844 124.579062 125.254844 124.579062 
C 125.254844 124.579062 125.254844 124.579062 125.254844 124.579062 
L 125.254844 124.579062 
C 125.254844 124.579062 125.254844 124.579062 125.254844 124.579062 
C 125.254844 124.579062 125.254844 124.579062 125.254844 124.579062 
z
" clip-path="url(#pc94dcd9af1)" style="fill: #d9d9d9"/>
   </g>
   <g id="patch_22">
    <path d="M 125.254844 124.579062 
C 125.254844 124.579062 125.254844 124.579062 125.254844 124.579062 
C 125.254844 124.579062 125.254844 124.579062 125.254844 124.579062 
L 125.254844 124.579062 
C 125.254844 124.579062 125.254844 124.579062 125.254844 124.579062 
C 125.254844 124.579062 125.254844 124.579062 125.254844 124.579062 
z
" clip-path="url(#pc94dcd9af1)" style="fill: #d9d9d9"/>
   </g>
   <g id="patch_23">
    <path d="M 125.254844 124.579062 
C 125.254844 124.579062 125.254844 124.579062 125.254844 124.579062 
C 125.254844 124.579062 125.254844 124.579062 125.254844 124.579062 
L 125.254844 124.579062 
C 125.254844 124.579062 125.254844 124.579062 125.254844 124.579062 
C 125.254844 124.579062 125.254844 124.579062 125.254844 124.579062 
z
" clip-path="url(#pc94dcd9af1)" style="fill: #d9d9d9"/>
   </g>
   <g id="patch_24">
    <path d="M 125.254844 124.579062 
C 125.254844 124.579062 125.254844 124.579062 125.254844 124.579062 
C 125.254844 124.579062 125.254844 124.579062 125.254844 124.579062 
L 125.254844 124.579062 
C 125.254844 124.579062 125.254844 124.579062 125.254844 124.579062 
C 125.254844 124.579062 125.254844 124.579062 125.254844 124.579062 
z
" clip-path="url(#pc94dcd9af1)" style="fill: #d9d9d9"/>
   </g>
   <g id="patch_25">
    <path d="M 125.254844 124.579062 
C 125.254844 124.579062 125.254844 124.579062 125.254844 124.579062 
C 125.254844 124.579062 125.254844 124.579062 125.254844 124.579062 
L 125.254844 124.579062 
C 125.254844 124.579062 125.254844 124.579062 125.254844 124.579062 
C 125.254844 124.579062 125.254844 124.579062 125.254844 124.579062 
z
" clip-path="url(#pc94dcd9af1)" style="fill: #d9d9d9"/>
   </g>
   <g id="patch_26">
    <path d="M 125.254844 124.579062 
C 125.254844 124.579062 125.254844 124.579062 125.254844 124.579062 
C 125.254844 124.579062 125.254844 124.579062 125.254844 124.579062 
L 125.254844 124.579062 
C 125.254844 124.579062 125.254844 124.579062 125.254844 124.579062 
C 125.254844 124.579062 125.254844 124.579062 125.254844 124.579062 
z
" clip-path="url(#pc94dcd9af1)" style="fill: #d9d9d9"/>
   </g>
   <g id="patch_27">
    <path d="M 125.254844 124.579062 
C 125.254844 124.579062 125.254844 124.579062 125.254844 124.579062 
C 125.254844 124.579062 125.254844 124.579062 125.254844 124.579062 
L 125.254844 124.579062 
C 125.254844 124.579062 125.254844 124.579062 125.254844 124.579062 
C 125.254844 124.579062 125.254844 124.579062 125.254844 124.579062 
z
" clip-path="url(#pc94dcd9af1)" style="fill: #d9d9d9"/>
   </g>
   <g id="patch_28">
    <path d="M 125.254844 124.579062 
C 125.254844 124.579062 125.254844 124.579062 125.254844 124.579062 
C 125.254844 124.579062 125.254844 124.579062 125.254844 124.579062 
L 125.254844 124.579062 
C 125.254844 124.579062 125.254844 124.579062 125.254844 124.579062 
C 125.254844 124.579062 125.254844 124.579062 125.254844 124.579062 
z
" clip-path="url(#pc94dcd9af1)" style="fill: #d9d9d9"/>
   </g>
   <g id="patch_29">
    <path d="M 125.254844 124.579062 
C 125.254844 124.579062 125.254844 124.579062 125.254844 124.579062 
C 125.254844 124.579062 125.254844 124.579062 125.254844 124.579062 
L 125.254844 124.579062 
C 125.254844 124.579062 125.254844 124.579062 125.254844 124.579062 
C 125.254844 124.579062 125.254844 124.579062 125.254844 124.579062 
z
" clip-path="url(#pc94dcd9af1)" style="fill: #d9d9d9"/>
   </g>
   <g id="patch_30">
    <path d="M 125.254844 124.579062 
C 125.254844 124.579062 125.254844 124.579062 125.254844 124.579062 
C 125.254844 124.579062 125.254844 124.579062 125.254844 124.579062 
L 125.254844 124.579062 
C 125.254844 124.579062 125.254844 124.579062 125.254844 124.579062 
C 125.254844 124.579062 125.254844 124.579062 125.254844 124.579062 
z
" clip-path="url(#pc94dcd9af1)" style="fill: #d9d9d9"/>
   </g>
   <g id="patch_31">
    <path d="M 125.254844 124.579062 
C 125.254844 124.579062 125.254844 124.579062 125.254844 124.579062 
C 125.254844 124.579062 125.254844 124.579062 125.254844 124.579062 
L 125.254844 124.579062 
C 125.254844 124.579062 125.254844 124.579062 125.254844 124.579062 
C 125.254844 124.579062 125.254844 124.579062 125.254844 124.579062 
z
" clip-path="url(#pc94dcd9af1)" style="fill: #d9d9d9"/>
   </g>
   <g id="patch_32">
    <path d="M 125.254844 124.579062 
C 125.254844 124.579062 125.254844 124.579062 125.254844 124.579062 
C 125.254844 124.579062 125.254844 124.579062 125.254844 124.579062 
L 125.254844 124.579062 
C 125.254844 124.579062 125.254844 124.579062 125.254844 124.579062 
C 125.254844 124.579062 125.254844 124.579062 125.254844 124.579062 
z
" clip-path="url(#pc94dcd9af1)" style="fill: #d9d9d9"/>
   </g>
   <g id="patch_33">
    <path d="M 125.254844 124.579062 
C 125.254844 124.579062 125.254844 124.579062 125.254844 124.579062 
C 125.254844 124.579062 125.254844 124.579062 125.254844 124.579062 
L 125.254844 124.579062 
C 125.254844 124.579062 125.254844 124.579062 125.254844 124.579062 
C 125.254844 124.579062 125.254844 124.579062 125.254844 124.579062 
z
" clip-path="url(#pc94dcd9af1)" style="fill: #d9d9d9"/>
   </g>
   <g id="patch_34">
    <path d="M 125.254844 124.579062 
C 125.254844 124.579062 125.254844 124.579062 125.254844 124.579062 
C 125.254844 124.579062 125.254844 124.579062 125.254844 124.579062 
L 125.254844 124.579062 
C 125.254844 124.579062 125.254844 124.579062 125.254844 124.579062 
C 125.254844 124.579062 125.254844 124.579062 125.254844 124.579062 
z
" clip-path="url(#pc94dcd9af1)" style="fill: #d9d9d9"/>
   </g>
   <g id="patch_35">
    <path d="M 125.254844 124.579062 
C 125.254844 124.579062 125.254844 124.579062 125.254844 124.579062 
C 125.254844 124.579062 125.254844 124.579062 125.254844 124.579062 
L 126.400821 112.943761 
C 126.01998 112.906251 125.637527 112.887462 125.254844 112.887462 
C 124.87216 112.887462 124.489707 112.906251 124.108867 112.943761 
z
" clip-path="url(#pc94dcd9af1)" style="fill: #badbb8"/>
   </g>
   <g id="patch_36">
    <path d="M 125.254844 124.579062 
C 125.254844 124.579062 125.254844 124.579062 125.254844 124.579062 
C 125.254844 124.579062 125.254844 124.579062 125.254844 124.579062 
L 131.710065 103.29905 
C 131.013539 103.08776 130.307058 102.910796 129.593175 102.768796 
C 128.879293 102.626796 128.158869 102.519931 127.434505 102.448588 
z
" clip-path="url(#pc94dcd9af1)" style="fill: #badbb8"/>
   </g>
   <g id="patch_37">
    <path d="M 125.254844 124.579062 
C 125.254844 124.579062 125.254844 124.579062 125.254844 124.579062 
C 125.254844 124.579062 125.254844 124.579062 125.254844 124.579062 
L 130.166217 115.390529 
C 129.865463 115.229773 129.556997 115.083879 129.241934 114.953376 
C 128.926871 114.822872 128.60559 114.707916 128.279252 114.608923 
z
" clip-path="url(#pc94dcd9af1)" style="fill: #badbb8"/>
   </g>
   <g id="patch_38">
    <path d="M 125.254844 124.579062 
C 125.254844 124.579062 125.254844 124.579062 125.254844 124.579062 
C 125.254844 124.579062 125.254844 124.579062 125.254844 124.579062 
L 126.526861 123.029105 
C 126.476129 122.98747 126.423383 122.948351 126.368814 122.911889 
C 126.314245 122.875427 126.257918 122.841666 126.200038 122.810728 
z
" clip-path="url(#pc94dcd9af1)" style="fill: #badbb8"/>
   </g>
   <g id="patch_39">
    <path d="M 125.254844 124.579062 
C 125.254844 124.579062 125.254844 124.579062 125.254844 124.579062 
C 125.254844 124.579062 125.254844 124.579062 125.254844 124.579062 
L 132.68818 118.478681 
C 132.488505 118.235377 132.277005 118.002023 132.054444 117.779462 
C 131.831883 117.556901 131.598529 117.345401 131.355225 117.145726 
z
" clip-path="url(#pc94dcd9af1)" style="fill: #badbb8"/>
   </g>
   <g id="patch_40">
    <path d="M 125.254844 124.579062 
C 125.254844 124.579062 125.254844 124.579062 125.254844 124.579062 
C 125.254844 124.579062 125.254844 124.579062 125.254844 124.579062 
L 129.208959 122.465544 
C 129.13978 122.33612 129.064289 122.21017 128.982758 122.08815 
C 128.901226 121.96613 128.813753 121.848186 128.720655 121.734745 
z
" clip-path="url(#pc94dcd9af1)" style="fill: #badbb8"/>
   </g>
   <g id="patch_41">
    <path d="M 125.254844 124.579062 
C 125.254844 124.579062 125.254844 124.579062 125.254844 124.579062 
C 125.254844 124.579062 125.254844 124.579062 125.254844 124.579062 
L 125.254844 124.579062 
C 125.254844 124.579062 125.254844 124.579062 125.254844 124.579062 
C 125.254844 124.579062 125.254844 124.579062 125.254844 124.579062 
z
" clip-path="url(#pc94dcd9af1)" style="fill: #badbb8"/>
   </g>
   <g id="patch_42">
    <path d="M 125.254844 124.579062 
C 125.254844 124.579062 125.254844 124.579062 125.254844 124.579062 
C 125.254844 124.579062 125.254844 124.579062 125.254844 124.579062 
L 125.254844 124.579062 
C 125.254844 124.579062 125.254844 124.579062 125.254844 124.579062 
C 125.254844 124.579062 125.254844 124.579062 125.254844 124.579062 
z
" clip-path="url(#pc94dcd9af1)" style="fill: #badbb8"/>
   </g>
   <g id="patch_43">
    <path d="M 125.254844 124.579062 
C 125.254844 124.579062 125.254844 124.579062 125.254844 124.579062 
C 125.254844 124.579062 125.254844 124.579062 125.254844 124.579062 
L 125.254844 124.579062 
C 125.254844 124.579062 125.254844 124.579062 125.254844 124.579062 
C 125.254844 124.579062 125.254844 124.579062 125.254844 124.579062 
z
" clip-path="url(#pc94dcd9af1)" style="fill: #badbb8"/>
   </g>
   <g id="patch_44">
    <path d="M 125.254844 124.579062 
C 125.254844 124.579062 125.254844 124.579062 125.254844 124.579062 
C 125.254844 124.579062 125.254844 124.579062 125.254844 124.579062 
L 132.686147 126.833324 
C 132.759932 126.590086 132.821731 126.343372 132.871319 126.094074 
C 132.920908 125.844775 132.958227 125.593192 132.983141 125.340233 
z
" clip-path="url(#pc94dcd9af1)" style="fill: #badbb8"/>
   </g>
   <g id="patch_45">
    <path d="M 125.254844 124.579062 
C 125.254844 124.579062 125.254844 124.579062 125.254844 124.579062 
C 125.254844 124.579062 125.254844 124.579062 125.254844 124.579062 
L 132.103572 128.239784 
C 132.223393 128.015615 132.332135 127.785698 132.429407 127.550864 
C 132.526678 127.31603 132.612362 127.076561 132.686147 126.833324 
z
" clip-path="url(#pc94dcd9af1)" style="fill: #badbb8"/>
   </g>
   <g id="patch_46">
    <path d="M 125.254844 124.579062 
C 125.254844 124.579062 125.254844 124.579062 125.254844 124.579062 
C 125.254844 124.579062 125.254844 124.579062 125.254844 124.579062 
L 125.254844 124.579062 
C 125.254844 124.579062 125.254844 124.579062 125.254844 124.579062 
C 125.254844 124.579062 125.254844 124.579062 125.254844 124.579062 
z
" clip-path="url(#pc94dcd9af1)" style="fill: #badbb8"/>
   </g>
   <g id="patch_47">
    <path d="M 125.254844 124.579062 
C 125.254844 124.579062 125.254844 124.579062 125.254844 124.579062 
C 125.254844 124.579062 125.254844 124.579062 125.254844 124.579062 
L 128.099161 128.044873 
C 128.212602 127.951775 128.321404 127.853162 128.425174 127.749393 
C 128.528944 127.645623 128.627556 127.536821 128.720655 127.42338 
z
" clip-path="url(#pc94dcd9af1)" style="fill: #badbb8"/>
   </g>
   <g id="patch_48">
    <path d="M 125.254844 124.579062 
C 125.254844 124.579062 125.254844 124.579062 125.254844 124.579062 
C 125.254844 124.579062 125.254844 124.579062 125.254844 124.579062 
L 125.254844 124.579062 
C 125.254844 124.579062 125.254844 124.579062 125.254844 124.579062 
C 125.254844 124.579062 125.254844 124.579062 125.254844 124.579062 
z
" clip-path="url(#pc94dcd9af1)" style="fill: #badbb8"/>
   </g>
   <g id="patch_49">
    <path d="M 125.254844 124.579062 
C 125.254844 124.579062 125.254844 124.579062 125.254844 124.579062 
C 125.254844 124.579062 125.254844 124.579062 125.254844 124.579062 
L 129.370543 138.146704 
C 129.814632 138.011991 130.251839 137.855555 130.680586 137.677963 
C 131.109332 137.50037 131.529101 137.301834 131.938376 137.083072 
z
" clip-path="url(#pc94dcd9af1)" style="fill: #badbb8"/>
   </g>
   <g id="patch_50">
    <path d="M 125.254844 124.579062 
C 125.254844 124.579062 125.254844 124.579062 125.254844 124.579062 
C 125.254844 124.579062 125.254844 124.579062 125.254844 124.579062 
L 125.59525 128.035262 
C 125.708376 128.02412 125.820888 128.007431 125.932377 127.985254 
C 126.043867 127.963077 126.154201 127.93544 126.26298 127.902442 
z
" clip-path="url(#pc94dcd9af1)" style="fill: #badbb8"/>
   </g>
   <g id="patch_51">
    <path d="M 125.254844 124.579062 
C 125.254844 124.579062 125.254844 124.579062 125.254844 124.579062 
C 125.254844 124.579062 125.254844 124.579062 125.254844 124.579062 
L 123.732502 140.035657 
C 124.238419 140.085485 124.746478 140.110445 125.254844 140.110445 
C 125.763209 140.110445 126.271268 140.085485 126.777185 140.035657 
z
" clip-path="url(#pc94dcd9af1)" style="fill: #badbb8"/>
   </g>
   <g id="patch_52">
    <path d="M 125.254844 124.579062 
C 125.254844 124.579062 125.254844 124.579062 125.254844 124.579062 
C 125.254844 124.579062 125.254844 124.579062 125.254844 124.579062 
L 119.095029 144.885249 
C 119.759681 145.086869 120.433831 145.255735 121.115045 145.391237 
C 121.796258 145.526738 122.483714 145.628713 123.174929 145.696792 
z
" clip-path="url(#pc94dcd9af1)" style="fill: #badbb8"/>
   </g>
   <g id="patch_53">
    <path d="M 125.254844 124.579062 
C 125.254844 124.579062 125.254844 124.579062 125.254844 124.579062 
C 125.254844 124.579062 125.254844 124.579062 125.254844 124.579062 
L 118.844225 136.572487 
C 119.236787 136.782316 119.639416 136.972745 120.050655 137.143086 
C 120.461894 137.313427 120.881249 137.463474 121.307204 137.592687 
z
" clip-path="url(#pc94dcd9af1)" style="fill: #badbb8"/>
   </g>
   <g id="patch_54">
    <path d="M 125.254844 124.579062 
C 125.254844 124.579062 125.254844 124.579062 125.254844 124.579062 
C 125.254844 124.579062 125.254844 124.579062 125.254844 124.579062 
L 118.894757 132.328851 
C 119.148419 132.537026 119.412149 132.732622 119.684994 132.914931 
C 119.95784 133.097241 120.239472 133.266044 120.528873 133.420733 
z
" clip-path="url(#pc94dcd9af1)" style="fill: #badbb8"/>
   </g>
   <g id="patch_55">
    <path d="M 125.254844 124.579062 
C 125.254844 124.579062 125.254844 124.579062 125.254844 124.579062 
C 125.254844 124.579062 125.254844 124.579062 125.254844 124.579062 
L 115.45205 132.624007 
C 115.715373 132.944867 115.994291 133.252605 116.287796 133.54611 
C 116.581301 133.839615 116.889039 134.118533 117.209899 134.381856 
z
" clip-path="url(#pc94dcd9af1)" style="fill: #badbb8"/>
   </g>
   <g id="patch_56">
    <path d="M 125.254844 124.579062 
C 125.254844 124.579062 125.254844 124.579062 125.254844 124.579062 
C 125.254844 124.579062 125.254844 124.579062 125.254844 124.579062 
L 117.346614 128.8061 
C 117.484971 129.064948 117.635953 129.316847 117.799016 129.560887 
C 117.962079 129.804928 118.137025 130.040815 118.323222 130.267697 
z
" clip-path="url(#pc94dcd9af1)" style="fill: #badbb8"/>
   </g>
   <g id="patch_57">
    <path d="M 125.254844 124.579062 
C 125.254844 124.579062 125.254844 124.579062 125.254844 124.579062 
C 125.254844 124.579062 125.254844 124.579062 125.254844 124.579062 
L 95.591623 133.577302 
C 95.886148 134.548224 96.228166 135.5041 96.616441 136.441477 
C 97.004715 137.378855 97.438779 138.296605 97.917063 139.191411 
z
" clip-path="url(#pc94dcd9af1)" style="fill: #badbb8"/>
   </g>
   <g id="patch_58">
    <path d="M 125.254844 124.579062 
C 125.254844 124.579062 125.254844 124.579062 125.254844 124.579062 
C 125.254844 124.579062 125.254844 124.579062 125.254844 124.579062 
L 81.038897 128.933953 
C 81.181439 130.381207 81.394952 131.82059 81.678663 133.246904 
C 81.962374 134.673217 82.315943 136.084742 82.738091 137.476378 
z
" clip-path="url(#pc94dcd9af1)" style="fill: #badbb8"/>
   </g>
   <g id="patch_59">
    <path d="M 125.254844 124.579062 
C 125.254844 124.579062 125.254844 124.579062 125.254844 124.579062 
C 125.254844 124.579062 125.254844 124.579062 125.254844 124.579062 
L 68.815341 119.020257 
C 68.633393 120.867606 68.542254 122.722775 68.542254 124.579062 
C 68.542254 126.43535 68.633393 128.290519 68.815341 130.137868 
z
" clip-path="url(#pc94dcd9af1)" style="fill: #badbb8"/>
   </g>
   <g id="patch_60">
    <path d="M 125.254844 124.579062 
C 125.254844 124.579062 125.254844 124.579062 125.254844 124.579062 
C 125.254844 124.579062 125.254844 124.579062 125.254844 124.579062 
L 85.8853 112.636442 
C 85.4944 113.925066 85.167003 115.232105 84.904293 116.552839 
C 84.641583 117.873573 84.443875 119.206409 84.311885 120.546533 
z
" clip-path="url(#pc94dcd9af1)" style="fill: #badbb8"/>
   </g>
   <g id="patch_61">
    <path d="M 125.254844 124.579062 
C 125.254844 124.579062 125.254844 124.579062 125.254844 124.579062 
C 125.254844 124.579062 125.254844 124.579062 125.254844 124.579062 
L 103.453358 112.925926 
C 103.071933 113.639521 102.725774 114.371413 102.416131 115.118958 
C 102.106488 115.866503 101.833733 116.6288 101.598853 117.403096 
z
" clip-path="url(#pc94dcd9af1)" style="fill: #badbb8"/>
   </g>
   <g id="patch_62">
    <path d="M 125.254844 124.579062 
C 125.254844 124.579062 125.254844 124.579062 125.254844 124.579062 
C 125.254844 124.579062 125.254844 124.579062 125.254844 124.579062 
L 111.831816 113.563068 
C 111.471246 114.002424 111.132465 114.459218 110.816695 114.9318 
C 110.500926 115.404382 110.20855 115.892183 109.940622 116.39344 
z
" clip-path="url(#pc94dcd9af1)" style="fill: #badbb8"/>
   </g>
   <g id="patch_63">
    <path d="M 125.254844 124.579062 
C 125.254844 124.579062 125.254844 124.579062 125.254844 124.579062 
C 125.254844 124.579062 125.254844 124.579062 125.254844 124.579062 
L 114.612382 111.611186 
C 114.187924 111.959529 113.780825 112.328503 113.392555 112.716773 
C 113.004284 113.105044 112.635311 113.512143 112.286967 113.936601 
z
" clip-path="url(#pc94dcd9af1)" style="fill: #badbb8"/>
   </g>
   <g id="patch_64">
    <path d="M 125.254844 124.579062 
C 125.254844 124.579062 125.254844 124.579062 125.254844 124.579062 
C 125.254844 124.579062 125.254844 124.579062 125.254844 124.579062 
L 118.985135 112.849262 
C 118.601201 113.054478 118.227574 113.278422 117.865603 113.520283 
C 117.503633 113.762144 117.153755 114.02163 116.817235 114.297806 
z
" clip-path="url(#pc94dcd9af1)" style="fill: #badbb8"/>
   </g>
   <g id="patch_65">
    <path d="M 125.254844 124.579062 
C 125.254844 124.579062 125.254844 124.579062 125.254844 124.579062 
C 125.254844 124.579062 125.254844 124.579062 125.254844 124.579062 
L 117.023446 97.44378 
C 116.135268 97.713206 115.260853 98.026077 114.40336 98.381262 
C 113.545866 98.736447 112.706329 99.133519 111.887779 99.571043 
z
" clip-path="url(#pc94dcd9af1)" style="fill: #badbb8"/>
   </g>
   <g id="patch_66">
    <path d="M 125.254844 124.579062 
C 125.254844 124.579062 125.254844 124.579062 125.254844 124.579062 
C 125.254844 124.579062 125.254844 124.579062 125.254844 124.579062 
L 123.057533 102.26939 
C 122.327304 102.341311 121.601046 102.449041 120.881383 102.592191 
C 120.16172 102.735341 119.449519 102.913738 118.747352 103.126738 
z
" clip-path="url(#pc94dcd9af1)" style="fill: #badbb8"/>
   </g>
   <g id="patch_67">
    <path d="M 124.108867 112.943761 
C 124.489707 112.906251 124.87216 112.887462 125.254844 112.887462 
C 125.637527 112.887462 126.01998 112.906251 126.400821 112.943761 
L 126.400821 112.943761 
C 126.01998 112.906251 125.637527 112.887462 125.254844 112.887462 
C 124.87216 112.887462 124.489707 112.906251 124.108867 112.943761 
z
" clip-path="url(#pc94dcd9af1)" style="fill: #a1a1d8"/>
   </g>
   <g id="patch_68">
    <path d="M 127.434505 102.448588 
C 128.158869 102.519931 128.879293 102.626796 129.593175 102.768796 
C 130.307058 102.910796 131.013539 103.08776 131.710065 103.29905 
L 131.710065 103.29905 
C 131.013539 103.08776 130.307058 102.910796 129.593175 102.768796 
C 128.879293 102.626796 128.158869 102.519931 127.434505 102.448588 
z
" clip-path="url(#pc94dcd9af1)" style="fill: #a1a1d8"/>
   </g>
   <g id="patch_69">
    <path d="M 128.279252 114.608923 
C 128.60559 114.707916 128.926871 114.822872 129.241934 114.953376 
C 129.556997 115.083879 129.865463 115.229773 130.166217 115.390529 
L 130.166217 115.390529 
C 129.865463 115.229773 129.556997 115.083879 129.241934 114.953376 
C 128.926871 114.822872 128.60559 114.707916 128.279252 114.608923 
z
" clip-path="url(#pc94dcd9af1)" style="fill: #a1a1d8"/>
   </g>
   <g id="patch_70">
    <path d="M 126.200038 122.810728 
C 126.257918 122.841666 126.314245 122.875427 126.368814 122.911889 
C 126.423383 122.948351 126.476129 122.98747 126.526861 123.029105 
L 126.526861 123.029105 
C 126.476129 122.98747 126.423383 122.948351 126.368814 122.911889 
C 126.314245 122.875427 126.257918 122.841666 126.200038 122.810728 
z
" clip-path="url(#pc94dcd9af1)" style="fill: #a1a1d8"/>
   </g>
   <g id="patch_71">
    <path d="M 131.355225 117.145726 
C 131.598529 117.345401 131.831883 117.556901 132.054444 117.779462 
C 132.277005 118.002023 132.488505 118.235377 132.68818 118.478681 
L 132.68818 118.478681 
C 132.488505 118.235377 132.277005 118.002023 132.054444 117.779462 
C 131.831883 117.556901 131.598529 117.345401 131.355225 117.145726 
z
" clip-path="url(#pc94dcd9af1)" style="fill: #a1a1d8"/>
   </g>
   <g id="patch_72">
    <path d="M 128.720655 121.734745 
C 128.813753 121.848186 128.901226 121.96613 128.982758 122.08815 
C 129.064289 122.21017 129.13978 122.33612 129.208959 122.465544 
L 129.208959 122.465544 
C 129.13978 122.33612 129.064289 122.21017 128.982758 122.08815 
C 128.901226 121.96613 128.813753 121.848186 128.720655 121.734745 
z
" clip-path="url(#pc94dcd9af1)" style="fill: #a1a1d8"/>
   </g>
   <g id="patch_73">
    <path d="M 125.254844 124.579062 
C 125.254844 124.579062 125.254844 124.579062 125.254844 124.579062 
C 125.254844 124.579062 125.254844 124.579062 125.254844 124.579062 
L 125.254844 124.579062 
C 125.254844 124.579062 125.254844 124.579062 125.254844 124.579062 
C 125.254844 124.579062 125.254844 124.579062 125.254844 124.579062 
z
" clip-path="url(#pc94dcd9af1)" style="fill: #a1a1d8"/>
   </g>
   <g id="patch_74">
    <path d="M 125.254844 124.579062 
C 125.254844 124.579062 125.254844 124.579062 125.254844 124.579062 
C 125.254844 124.579062 125.254844 124.579062 125.254844 124.579062 
L 125.254844 124.579062 
C 125.254844 124.579062 125.254844 124.579062 125.254844 124.579062 
C 125.254844 124.579062 125.254844 124.579062 125.254844 124.579062 
z
" clip-path="url(#pc94dcd9af1)" style="fill: #a1a1d8"/>
   </g>
   <g id="patch_75">
    <path d="M 125.254844 124.579062 
C 125.254844 124.579062 125.254844 124.579062 125.254844 124.579062 
C 125.254844 124.579062 125.254844 124.579062 125.254844 124.579062 
L 125.254844 124.579062 
C 125.254844 124.579062 125.254844 124.579062 125.254844 124.579062 
C 125.254844 124.579062 125.254844 124.579062 125.254844 124.579062 
z
" clip-path="url(#pc94dcd9af1)" style="fill: #a1a1d8"/>
   </g>
   <g id="patch_76">
    <path d="M 132.983141 125.340233 
C 132.958227 125.593192 132.920908 125.844775 132.871319 126.094074 
C 132.821731 126.343372 132.759932 126.590086 132.686147 126.833324 
L 132.686147 126.833324 
C 132.759932 126.590086 132.821731 126.343372 132.871319 126.094074 
C 132.920908 125.844775 132.958227 125.593192 132.983141 125.340233 
z
" clip-path="url(#pc94dcd9af1)" style="fill: #a1a1d8"/>
   </g>
   <g id="patch_77">
    <path d="M 132.686147 126.833324 
C 132.612362 127.076561 132.526678 127.31603 132.429407 127.550864 
C 132.332135 127.785698 132.223393 128.015615 132.103572 128.239784 
L 132.103572 128.239784 
C 132.223393 128.015615 132.332135 127.785698 132.429407 127.550864 
C 132.526678 127.31603 132.612362 127.076561 132.686147 126.833324 
z
" clip-path="url(#pc94dcd9af1)" style="fill: #a1a1d8"/>
   </g>
   <g id="patch_78">
    <path d="M 125.254844 124.579062 
C 125.254844 124.579062 125.254844 124.579062 125.254844 124.579062 
C 125.254844 124.579062 125.254844 124.579062 125.254844 124.579062 
L 125.254844 124.579062 
C 125.254844 124.579062 125.254844 124.579062 125.254844 124.579062 
C 125.254844 124.579062 125.254844 124.579062 125.254844 124.579062 
z
" clip-path="url(#pc94dcd9af1)" style="fill: #a1a1d8"/>
   </g>
   <g id="patch_79">
    <path d="M 128.720655 127.42338 
C 128.627556 127.536821 128.528944 127.645623 128.425174 127.749393 
C 128.321404 127.853162 128.212602 127.951775 128.099161 128.044873 
L 128.099161 128.044873 
C 128.212602 127.951775 128.321404 127.853162 128.425174 127.749393 
C 128.528944 127.645623 128.627556 127.536821 128.720655 127.42338 
z
" clip-path="url(#pc94dcd9af1)" style="fill: #a1a1d8"/>
   </g>
   <g id="patch_80">
    <path d="M 125.254844 124.579062 
C 125.254844 124.579062 125.254844 124.579062 125.254844 124.579062 
C 125.254844 124.579062 125.254844 124.579062 125.254844 124.579062 
L 125.254844 124.579062 
C 125.254844 124.579062 125.254844 124.579062 125.254844 124.579062 
C 125.254844 124.579062 125.254844 124.579062 125.254844 124.579062 
z
" clip-path="url(#pc94dcd9af1)" style="fill: #a1a1d8"/>
   </g>
   <g id="patch_81">
    <path d="M 131.938376 137.083072 
C 131.529101 137.301834 131.109332 137.50037 130.680586 137.677963 
C 130.251839 137.855555 129.814632 138.011991 129.370543 138.146704 
L 129.370543 138.146704 
C 129.814632 138.011991 130.251839 137.855555 130.680586 137.677963 
C 131.109332 137.50037 131.529101 137.301834 131.938376 137.083072 
z
" clip-path="url(#pc94dcd9af1)" style="fill: #a1a1d8"/>
   </g>
   <g id="patch_82">
    <path d="M 126.26298 127.902442 
C 126.154201 127.93544 126.043867 127.963077 125.932377 127.985254 
C 125.820888 128.007431 125.708376 128.02412 125.59525 128.035262 
L 125.59525 128.035262 
C 125.708376 128.02412 125.820888 128.007431 125.932377 127.985254 
C 126.043867 127.963077 126.154201 127.93544 126.26298 127.902442 
z
" clip-path="url(#pc94dcd9af1)" style="fill: #a1a1d8"/>
   </g>
   <g id="patch_83">
    <path d="M 126.777185 140.035657 
C 126.271268 140.085485 125.763209 140.110445 125.254844 140.110445 
C 124.746478 140.110445 124.238419 140.085485 123.732502 140.035657 
L 123.732502 140.035657 
C 124.238419 140.085485 124.746478 140.110445 125.254844 140.110445 
C 125.763209 140.110445 126.271268 140.085485 126.777185 140.035657 
z
" clip-path="url(#pc94dcd9af1)" style="fill: #a1a1d8"/>
   </g>
   <g id="patch_84">
    <path d="M 123.174929 145.696792 
C 122.483714 145.628713 121.796258 145.526738 121.115045 145.391237 
C 120.433831 145.255735 119.759681 145.086869 119.095029 144.885249 
L 118.852319 145.685359 
C 119.543159 145.894924 120.243872 146.070443 120.951927 146.211284 
C 121.659982 146.352125 122.374525 146.458117 123.092976 146.528879 
z
" clip-path="url(#pc94dcd9af1)" style="fill: #a1a1d8"/>
   </g>
   <g id="patch_85">
    <path d="M 121.307204 137.592687 
C 120.881249 137.463474 120.461894 137.313427 120.050655 137.143086 
C 119.639416 136.972745 119.236787 136.782316 118.844225 136.572487 
L 118.844225 136.572487 
C 119.236787 136.782316 119.639416 136.972745 120.050655 137.143086 
C 120.461894 137.313427 120.881249 137.463474 121.307204 137.592687 
z
" clip-path="url(#pc94dcd9af1)" style="fill: #a1a1d8"/>
   </g>
   <g id="patch_86">
    <path d="M 120.528873 133.420733 
C 120.239472 133.266044 119.95784 133.097241 119.684994 132.914931 
C 119.412149 132.732622 119.148419 132.537026 118.894757 132.328851 
L 94.357648 162.227405 
C 95.589934 163.238716 96.871131 164.188916 98.196609 165.074573 
C 99.522088 165.960229 100.89025 166.780274 102.296156 167.531746 
z
" clip-path="url(#pc94dcd9af1)" style="fill: #a1a1d8"/>
   </g>
   <g id="patch_87">
    <path d="M 117.209899 134.381856 
C 116.889039 134.118533 116.581301 133.839615 116.287796 133.54611 
C 115.994291 133.252605 115.715373 132.944867 115.45205 132.624007 
L 115.45205 132.624007 
C 115.715373 132.944867 115.994291 133.252605 116.287796 133.54611 
C 116.581301 133.839615 116.889039 134.118533 117.209899 134.381856 
z
" clip-path="url(#pc94dcd9af1)" style="fill: #a1a1d8"/>
   </g>
   <g id="patch_88">
    <path d="M 118.323222 130.267697 
C 118.137025 130.040815 117.962079 129.804928 117.799016 129.560887 
C 117.635953 129.316847 117.484971 129.064948 117.346614 128.8061 
L 107.660142 133.983626 
C 107.967968 134.559527 108.303883 135.119967 108.666674 135.662923 
C 109.029465 136.205879 109.418696 136.730695 109.832959 137.235476 
z
" clip-path="url(#pc94dcd9af1)" style="fill: #a1a1d8"/>
   </g>
   <g id="patch_89">
    <path d="M 97.917063 139.191411 
C 97.438779 138.296605 97.004715 137.378855 96.616441 136.441477 
C 96.228166 135.5041 95.886148 134.548224 95.591623 133.577302 
L 67.309738 142.156518 
C 67.885075 144.053148 68.553183 145.920387 69.311652 147.751491 
C 70.07012 149.582596 70.918033 151.375357 71.852329 153.123302 
z
" clip-path="url(#pc94dcd9af1)" style="fill: #a1a1d8"/>
   </g>
   <g id="patch_90">
    <path d="M 82.738091 137.476378 
C 82.315943 136.084742 81.962374 134.673217 81.678663 133.246904 
C 81.394952 131.82059 81.181439 130.381207 81.038897 128.933953 
L 67.044125 130.312318 
C 67.231783 132.217642 67.512874 134.112604 67.886383 135.990359 
C 68.259891 137.868114 68.725368 139.7264 69.28113 141.558503 
z
" clip-path="url(#pc94dcd9af1)" style="fill: #a1a1d8"/>
   </g>
   <g id="patch_91">
    <path d="M 68.815341 130.137868 
C 68.633393 128.290519 68.542254 126.43535 68.542254 124.579062 
C 68.542254 122.722775 68.633393 120.867606 68.815341 119.020257 
L 33.075123 115.500152 
C 32.777957 118.517332 32.629105 121.547284 32.629105 124.579062 
C 32.629105 127.610841 32.777957 130.640793 33.075123 133.657973 
z
" clip-path="url(#pc94dcd9af1)" style="fill: #a1a1d8"/>
   </g>
   <g id="patch_92">
    <path d="M 84.311885 120.546533 
C 84.443875 119.206409 84.641583 117.873573 84.904293 116.552839 
C 85.167003 115.232105 85.4944 113.925066 85.8853 112.636442 
L 62.110629 105.424474 
C 61.483671 107.491279 60.958565 109.587619 60.537208 111.705924 
C 60.115851 113.824229 59.798751 115.961945 59.587053 118.11135 
z
" clip-path="url(#pc94dcd9af1)" style="fill: #a1a1d8"/>
   </g>
   <g id="patch_93">
    <path d="M 101.598853 117.403096 
C 101.833733 116.6288 102.106488 115.866503 102.416131 115.118958 
C 102.725774 114.371413 103.071933 113.639521 103.453358 112.925926 
L 79.963394 100.370278 
C 79.171004 101.852735 78.451877 103.373202 77.808609 104.926188 
C 77.165341 106.479175 76.598708 108.062807 76.110757 109.671367 
z
" clip-path="url(#pc94dcd9af1)" style="fill: #a1a1d8"/>
   </g>
   <g id="patch_94">
    <path d="M 109.940622 116.39344 
C 110.20855 115.892183 110.500926 115.404382 110.816695 114.9318 
C 111.132465 114.459218 111.471246 114.002424 111.831816 113.563068 
L 78.39585 86.122881 
C 77.137122 87.656645 75.954456 89.251286 74.852124 90.901042 
C 73.749792 92.550798 72.729123 94.253682 71.793804 96.003541 
z
" clip-path="url(#pc94dcd9af1)" style="fill: #a1a1d8"/>
   </g>
   <g id="patch_95">
    <path d="M 112.286967 113.936601 
C 112.635311 113.512143 113.004284 113.105044 113.392555 112.716773 
C 113.780825 112.328503 114.187924 111.959529 114.612382 111.611186 
L 81.044231 70.708275 
C 79.28096 72.155354 77.589799 73.688133 75.976857 75.301075 
C 74.363914 76.914017 72.831136 78.605178 71.384056 80.36845 
z
" clip-path="url(#pc94dcd9af1)" style="fill: #a1a1d8"/>
   </g>
   <g id="patch_96">
    <path d="M 116.817235 114.297806 
C 117.153755 114.02163 117.503633 113.762144 117.865603 113.520283 
C 118.227574 113.278422 118.601201 113.054478 118.985135 112.849262 
L 96.045437 69.932106 
C 94.25676 70.888173 92.516102 71.931484 90.82975 73.058268 
C 89.143397 74.185053 87.513383 75.393954 85.945595 76.680604 
z
" clip-path="url(#pc94dcd9af1)" style="fill: #a1a1d8"/>
   </g>
   <g id="patch_97">
    <path d="M 111.887779 99.571043 
C 112.706329 99.133519 113.545866 98.736447 114.40336 98.381262 
C 115.260853 98.026077 116.135268 97.713206 117.023446 97.44378 
L 112.852992 83.695637 
C 111.514817 84.101568 110.197378 84.572955 108.905434 85.108096 
C 107.61349 85.643236 106.348599 86.241485 105.11533 86.900682 
z
" clip-path="url(#pc94dcd9af1)" style="fill: #a1a1d8"/>
   </g>
   <g id="patch_98">
    <path d="M 118.747352 103.126738 
C 119.449519 102.913738 120.16172 102.735341 120.881383 102.592191 
C 121.601046 102.449041 122.327304 102.341311 123.057533 102.26939 
L 121.28993 84.32262 
C 119.972277 84.452397 118.661789 84.64679 117.363201 84.905095 
C 116.064613 85.1634 114.779489 85.485307 113.512473 85.869652 
z
" clip-path="url(#pc94dcd9af1)" style="fill: #a1a1d8"/>
   </g>
   <g id="patch_99">
    <path d="M 124.108867 112.943761 
C 124.489707 112.906251 124.87216 112.887462 125.254844 112.887462 
C 125.637527 112.887462 126.01998 112.906251 126.400821 112.943761 
L 126.400821 112.943761 
C 126.01998 112.906251 125.637527 112.887462 125.254844 112.887462 
C 124.87216 112.887462 124.489707 112.906251 124.108867 112.943761 
z
" clip-path="url(#pc94dcd9af1)" style="fill: #828282"/>
   </g>
   <g id="patch_100">
    <path d="M 127.434505 102.448588 
C 128.158869 102.519931 128.879293 102.626796 129.593175 102.768796 
C 130.307058 102.910796 131.013539 103.08776 131.710065 103.29905 
L 131.710065 103.29905 
C 131.013539 103.08776 130.307058 102.910796 129.593175 102.768796 
C 128.879293 102.626796 128.158869 102.519931 127.434505 102.448588 
z
" clip-path="url(#pc94dcd9af1)" style="fill: #828282"/>
   </g>
   <g id="patch_101">
    <path d="M 128.279252 114.608923 
C 128.60559 114.707916 128.926871 114.822872 129.241934 114.953376 
C 129.556997 115.083879 129.865463 115.229773 130.166217 115.390529 
L 130.166217 115.390529 
C 129.865463 115.229773 129.556997 115.083879 129.241934 114.953376 
C 128.926871 114.822872 128.60559 114.707916 128.279252 114.608923 
z
" clip-path="url(#pc94dcd9af1)" style="fill: #828282"/>
   </g>
   <g id="patch_102">
    <path d="M 126.200038 122.810728 
C 126.257918 122.841666 126.314245 122.875427 126.368814 122.911889 
C 126.423383 122.948351 126.476129 122.98747 126.526861 123.029105 
L 126.526861 123.029105 
C 126.476129 122.98747 126.423383 122.948351 126.368814 122.911889 
C 126.314245 122.875427 126.257918 122.841666 126.200038 122.810728 
z
" clip-path="url(#pc94dcd9af1)" style="fill: #828282"/>
   </g>
   <g id="patch_103">
    <path d="M 131.355225 117.145726 
C 131.598529 117.345401 131.831883 117.556901 132.054444 117.779462 
C 132.277005 118.002023 132.488505 118.235377 132.68818 118.478681 
L 132.68818 118.478681 
C 132.488505 118.235377 132.277005 118.002023 132.054444 117.779462 
C 131.831883 117.556901 131.598529 117.345401 131.355225 117.145726 
z
" clip-path="url(#pc94dcd9af1)" style="fill: #828282"/>
   </g>
   <g id="patch_104">
    <path d="M 128.720655 121.734745 
C 128.813753 121.848186 128.901226 121.96613 128.982758 122.08815 
C 129.064289 122.21017 129.13978 122.33612 129.208959 122.465544 
L 129.208959 122.465544 
C 129.13978 122.33612 129.064289 122.21017 128.982758 122.08815 
C 128.901226 121.96613 128.813753 121.848186 128.720655 121.734745 
z
" clip-path="url(#pc94dcd9af1)" style="fill: #828282"/>
   </g>
   <g id="patch_105">
    <path d="M 125.254844 124.579062 
C 125.254844 124.579062 125.254844 124.579062 125.254844 124.579062 
C 125.254844 124.579062 125.254844 124.579062 125.254844 124.579062 
L 125.254844 124.579062 
C 125.254844 124.579062 125.254844 124.579062 125.254844 124.579062 
C 125.254844 124.579062 125.254844 124.579062 125.254844 124.579062 
z
" clip-path="url(#pc94dcd9af1)" style="fill: #828282"/>
   </g>
   <g id="patch_106">
    <path d="M 125.254844 124.579062 
C 125.254844 124.579062 125.254844 124.579062 125.254844 124.579062 
C 125.254844 124.579062 125.254844 124.579062 125.254844 124.579062 
L 125.254844 124.579062 
C 125.254844 124.579062 125.254844 124.579062 125.254844 124.579062 
C 125.254844 124.579062 125.254844 124.579062 125.254844 124.579062 
z
" clip-path="url(#pc94dcd9af1)" style="fill: #828282"/>
   </g>
   <g id="patch_107">
    <path d="M 125.254844 124.579062 
C 125.254844 124.579062 125.254844 124.579062 125.254844 124.579062 
C 125.254844 124.579062 125.254844 124.579062 125.254844 124.579062 
L 125.254844 124.579062 
C 125.254844 124.579062 125.254844 124.579062 125.254844 124.579062 
C 125.254844 124.579062 125.254844 124.579062 125.254844 124.579062 
z
" clip-path="url(#pc94dcd9af1)" style="fill: #828282"/>
   </g>
   <g id="patch_108">
    <path d="M 132.983141 125.340233 
C 132.958227 125.593192 132.920908 125.844775 132.871319 126.094074 
C 132.821731 126.343372 132.759932 126.590086 132.686147 126.833324 
L 132.686147 126.833324 
C 132.759932 126.590086 132.821731 126.343372 132.871319 126.094074 
C 132.920908 125.844775 132.958227 125.593192 132.983141 125.340233 
z
" clip-path="url(#pc94dcd9af1)" style="fill: #828282"/>
   </g>
   <g id="patch_109">
    <path d="M 132.686147 126.833324 
C 132.612362 127.076561 132.526678 127.31603 132.429407 127.550864 
C 132.332135 127.785698 132.223393 128.015615 132.103572 128.239784 
L 132.103572 128.239784 
C 132.223393 128.015615 132.332135 127.785698 132.429407 127.550864 
C 132.526678 127.31603 132.612362 127.076561 132.686147 126.833324 
z
" clip-path="url(#pc94dcd9af1)" style="fill: #828282"/>
   </g>
   <g id="patch_110">
    <path d="M 125.254844 124.579062 
C 125.254844 124.579062 125.254844 124.579062 125.254844 124.579062 
C 125.254844 124.579062 125.254844 124.579062 125.254844 124.579062 
L 125.254844 124.579062 
C 125.254844 124.579062 125.254844 124.579062 125.254844 124.579062 
C 125.254844 124.579062 125.254844 124.579062 125.254844 124.579062 
z
" clip-path="url(#pc94dcd9af1)" style="fill: #828282"/>
   </g>
   <g id="patch_111">
    <path d="M 128.720655 127.42338 
C 128.627556 127.536821 128.528944 127.645623 128.425174 127.749393 
C 128.321404 127.853162 128.212602 127.951775 128.099161 128.044873 
L 128.099161 128.044873 
C 128.212602 127.951775 128.321404 127.853162 128.425174 127.749393 
C 128.528944 127.645623 128.627556 127.536821 128.720655 127.42338 
z
" clip-path="url(#pc94dcd9af1)" style="fill: #828282"/>
   </g>
   <g id="patch_112">
    <path d="M 125.254844 124.579062 
C 125.254844 124.579062 125.254844 124.579062 125.254844 124.579062 
C 125.254844 124.579062 125.254844 124.579062 125.254844 124.579062 
L 125.254844 124.579062 
C 125.254844 124.579062 125.254844 124.579062 125.254844 124.579062 
C 125.254844 124.579062 125.254844 124.579062 125.254844 124.579062 
z
" clip-path="url(#pc94dcd9af1)" style="fill: #828282"/>
   </g>
   <g id="patch_113">
    <path d="M 131.938376 137.083072 
C 131.529101 137.301834 131.109332 137.50037 130.680586 137.677963 
C 130.251839 137.855555 129.814632 138.011991 129.370543 138.146704 
L 129.370543 138.146704 
C 129.814632 138.011991 130.251839 137.855555 130.680586 137.677963 
C 131.109332 137.50037 131.529101 137.301834 131.938376 137.083072 
z
" clip-path="url(#pc94dcd9af1)" style="fill: #828282"/>
   </g>
   <g id="patch_114">
    <path d="M 126.26298 127.902442 
C 126.154201 127.93544 126.043867 127.963077 125.932377 127.985254 
C 125.820888 128.007431 125.708376 128.02412 125.59525 128.035262 
L 125.59525 128.035262 
C 125.708376 128.02412 125.820888 128.007431 125.932377 127.985254 
C 126.043867 127.963077 126.154201 127.93544 126.26298 127.902442 
z
" clip-path="url(#pc94dcd9af1)" style="fill: #828282"/>
   </g>
   <g id="patch_115">
    <path d="M 126.777185 140.035657 
C 126.271268 140.085485 125.763209 140.110445 125.254844 140.110445 
C 124.746478 140.110445 124.238419 140.085485 123.732502 140.035657 
L 123.732502 140.035657 
C 124.238419 140.085485 124.746478 140.110445 125.254844 140.110445 
C 125.763209 140.110445 126.271268 140.085485 126.777185 140.035657 
z
" clip-path="url(#pc94dcd9af1)" style="fill: #828282"/>
   </g>
   <g id="patch_116">
    <path d="M 123.092976 146.528879 
C 122.374525 146.458117 121.659982 146.352125 120.951927 146.211284 
C 120.243872 146.070443 119.543159 145.894924 118.852319 145.685359 
L 118.852319 145.685359 
C 119.543159 145.894924 120.243872 146.070443 120.951927 146.211284 
C 121.659982 146.352125 122.374525 146.458117 123.092976 146.528879 
z
" clip-path="url(#pc94dcd9af1)" style="fill: #828282"/>
   </g>
   <g id="patch_117">
    <path d="M 121.307204 137.592687 
C 120.881249 137.463474 120.461894 137.313427 120.050655 137.143086 
C 119.639416 136.972745 119.236787 136.782316 118.844225 136.572487 
L 118.844225 136.572487 
C 119.236787 136.782316 119.639416 136.972745 120.050655 137.143086 
C 120.461894 137.313427 120.881249 137.463474 121.307204 137.592687 
z
" clip-path="url(#pc94dcd9af1)" style="fill: #828282"/>
   </g>
   <g id="patch_118">
    <path d="M 102.296156 167.531746 
C 100.89025 166.780274 99.522088 165.960229 98.196609 165.074573 
C 96.871131 164.188916 95.589934 163.238716 94.357648 162.227405 
L 94.357648 162.227405 
C 95.589934 163.238716 96.871131 164.188916 98.196609 165.074573 
C 99.522088 165.960229 100.89025 166.780274 102.296156 167.531746 
z
" clip-path="url(#pc94dcd9af1)" style="fill: #828282"/>
   </g>
   <g id="patch_119">
    <path d="M 117.209899 134.381856 
C 116.889039 134.118533 116.581301 133.839615 116.287796 133.54611 
C 115.994291 133.252605 115.715373 132.944867 115.45205 132.624007 
L 115.45205 132.624007 
C 115.715373 132.944867 115.994291 133.252605 116.287796 133.54611 
C 116.581301 133.839615 116.889039 134.118533 117.209899 134.381856 
z
" clip-path="url(#pc94dcd9af1)" style="fill: #828282"/>
   </g>
   <g id="patch_120">
    <path d="M 109.832959 137.235476 
C 109.418696 136.730695 109.029465 136.205879 108.666674 135.662923 
C 108.303883 135.119967 107.967968 134.559527 107.660142 133.983626 
L 100.372179 137.879124 
C 100.80751 138.693571 101.282565 139.486153 101.79563 140.254008 
C 102.308694 141.021863 102.859149 141.764066 103.445006 142.477934 
z
" clip-path="url(#pc94dcd9af1)" style="fill: #828282"/>
   </g>
   <g id="patch_121">
    <path d="M 71.852329 153.123302 
C 70.918033 151.375357 70.07012 149.582596 69.311652 147.751491 
C 68.553183 145.920387 67.885075 144.053148 67.309738 142.156518 
L 59.203978 144.615374 
C 59.859796 146.777317 60.621365 148.905759 61.485933 150.99301 
C 62.350501 153.080262 63.317026 155.123808 64.382017 157.116266 
z
" clip-path="url(#pc94dcd9af1)" style="fill: #828282"/>
   </g>
   <g id="patch_122">
    <path d="M 69.28113 141.558503 
C 68.725368 139.7264 68.259891 137.868114 67.886383 135.990359 
C 67.512874 134.112604 67.231783 132.217642 67.044125 130.312318 
L 57.058733 131.295793 
C 57.278582 133.527954 57.607891 135.747975 58.045471 137.947838 
C 58.483051 140.147701 59.028374 142.324754 59.679471 144.471134 
z
" clip-path="url(#pc94dcd9af1)" style="fill: #828282"/>
   </g>
   <g id="patch_123">
    <path d="M 33.075123 133.657973 
C 32.777957 130.640793 32.629105 127.610841 32.629105 124.579062 
C 32.629105 121.547284 32.777957 118.517332 33.075123 115.500152 
L 14.90876 113.710922 
C 14.553029 117.322714 14.374842 120.949794 14.374842 124.579062 
C 14.374842 128.208331 14.553029 131.835411 14.90876 135.447203 
z
" clip-path="url(#pc94dcd9af1)" style="fill: #828282"/>
   </g>
   <g id="patch_124">
    <path d="M 59.587053 118.11135 
C 59.798751 115.961945 60.115851 113.824229 60.537208 111.705924 
C 60.958565 109.587619 61.483671 107.491279 62.110629 105.424474 
L 35.298212 97.291017 
C 34.405034 100.235431 33.656956 103.221924 33.056682 106.239708 
C 32.456407 109.257491 32.004659 112.302928 31.70307 115.365017 
z
" clip-path="url(#pc94dcd9af1)" style="fill: #828282"/>
   </g>
   <g id="patch_125">
    <path d="M 76.110757 109.671367 
C 76.598708 108.062807 77.165341 106.479175 77.808609 104.926188 
C 78.451877 103.373202 79.171004 101.852735 79.963394 100.370278 
L 62.809864 91.201526 
C 61.717368 93.245443 60.72588 95.341767 59.838983 97.482926 
C 58.952086 99.624085 58.170849 101.807497 57.498093 104.025277 
z
" clip-path="url(#pc94dcd9af1)" style="fill: #828282"/>
   </g>
   <g id="patch_126">
    <path d="M 71.793804 96.003541 
C 72.729123 94.253682 73.749792 92.550798 74.852124 90.901042 
C 75.954456 89.251286 77.137122 87.656645 78.39585 86.122881 
L 72.533492 81.311768 
C 71.117289 83.037416 69.786664 84.831556 68.546424 86.687708 
C 67.306183 88.543859 66.157822 90.459784 65.105488 92.428562 
z
" clip-path="url(#pc94dcd9af1)" style="fill: #828282"/>
   </g>
   <g id="patch_127">
    <path d="M 71.384056 80.36845 
C 72.831136 78.605178 74.363914 76.914017 75.976857 75.301075 
C 77.589799 73.688133 79.28096 72.155354 81.044231 70.708275 
L 68.925867 55.942005 
C 66.679273 57.785737 64.524556 59.738658 62.469498 61.793717 
C 60.41444 63.848775 58.461518 66.003492 56.617786 68.250085 
z
" clip-path="url(#pc94dcd9af1)" style="fill: #828282"/>
   </g>
   <g id="patch_128">
    <path d="M 85.945595 76.680604 
C 87.513383 75.393954 89.143397 74.185053 90.82975 73.058268 
C 92.516102 71.931484 94.25676 70.888173 96.045437 69.932106 
L 85.975229 51.092072 
C 83.56989 52.377752 81.229124 53.780753 78.961386 55.296007 
C 76.693648 56.811261 74.501672 58.436942 72.393375 60.167177 
z
" clip-path="url(#pc94dcd9af1)" style="fill: #828282"/>
   </g>
   <g id="patch_129">
    <path d="M 105.11533 86.900682 
C 106.348599 86.241485 107.61349 85.643236 108.905434 85.108096 
C 110.197378 84.572955 111.514817 84.101568 112.852992 83.695637 
L 111.176987 78.170589 
C 109.657968 78.631378 108.162489 79.166469 106.69595 79.773929 
C 105.229411 80.38139 103.793581 81.060487 102.393645 81.808768 
z
" clip-path="url(#pc94dcd9af1)" style="fill: #828282"/>
   </g>
   <g id="patch_130">
    <path d="M 113.512473 85.869652 
C 114.779489 85.485307 116.064613 85.1634 117.363201 84.905095 
C 118.661789 84.64679 119.972277 84.452397 121.28993 84.32262 
L 121.28993 84.32262 
C 119.972277 84.452397 118.661789 84.64679 117.363201 84.905095 
C 116.064613 85.1634 114.779489 85.485307 113.512473 85.869652 
z
" clip-path="url(#pc94dcd9af1)" style="fill: #828282"/>
   </g>
   <g id="patch_131">
    <path d="M 125.254844 124.579062 
C 125.254844 124.579062 125.254844 124.579062 125.254844 124.579062 
C 125.254844 124.579062 125.254844 124.579062 125.254844 124.579062 
L 126.400821 112.943761 
C 126.01998 112.906251 125.637527 112.887462 125.254844 112.887462 
C 124.87216 112.887462 124.489707 112.906251 124.108867 112.943761 
L 125.254844 124.579062 
z
" clip-path="url(#pc94dcd9af1)" style="fill: none; stroke: #292929; stroke-width: 0.5; stroke-linejoin: miter"/>
   </g>
   <g id="patch_132">
    <path d="M 125.254844 124.579062 
C 125.254844 124.579062 125.254844 124.579062 125.254844 124.579062 
C 125.254844 124.579062 125.254844 124.579062 125.254844 124.579062 
L 131.710065 103.29905 
C 131.013539 103.08776 130.307058 102.910796 129.593175 102.768796 
C 128.879293 102.626796 128.158869 102.519931 127.434505 102.448588 
L 125.254844 124.579062 
z
" clip-path="url(#pc94dcd9af1)" style="fill: none; stroke: #292929; stroke-width: 0.5; stroke-linejoin: miter"/>
   </g>
   <g id="patch_133">
    <path d="M 125.254844 124.579062 
C 125.254844 124.579062 125.254844 124.579062 125.254844 124.579062 
C 125.254844 124.579062 125.254844 124.579062 125.254844 124.579062 
L 130.166217 115.390529 
C 129.865463 115.229773 129.556997 115.083879 129.241934 114.953376 
C 128.926871 114.822872 128.60559 114.707916 128.279252 114.608923 
L 125.254844 124.579062 
z
" clip-path="url(#pc94dcd9af1)" style="fill: none; stroke: #292929; stroke-width: 0.5; stroke-linejoin: miter"/>
   </g>
   <g id="patch_134">
    <path d="M 125.254844 124.579062 
C 125.254844 124.579062 125.254844 124.579062 125.254844 124.579062 
C 125.254844 124.579062 125.254844 124.579062 125.254844 124.579062 
L 126.526861 123.029105 
C 126.476129 122.98747 126.423383 122.948351 126.368814 122.911889 
C 126.314245 122.875427 126.257918 122.841666 126.200038 122.810728 
L 125.254844 124.579062 
z
" clip-path="url(#pc94dcd9af1)" style="fill: none; stroke: #292929; stroke-width: 0.5; stroke-linejoin: miter"/>
   </g>
   <g id="patch_135">
    <path d="M 125.254844 124.579062 
C 125.254844 124.579062 125.254844 124.579062 125.254844 124.579062 
C 125.254844 124.579062 125.254844 124.579062 125.254844 124.579062 
L 132.68818 118.478681 
C 132.488505 118.235377 132.277005 118.002023 132.054444 117.779462 
C 131.831883 117.556901 131.598529 117.345401 131.355225 117.145726 
L 125.254844 124.579062 
z
" clip-path="url(#pc94dcd9af1)" style="fill: none; stroke: #292929; stroke-width: 0.5; stroke-linejoin: miter"/>
   </g>
   <g id="patch_136">
    <path d="M 125.254844 124.579062 
C 125.254844 124.579062 125.254844 124.579062 125.254844 124.579062 
C 125.254844 124.579062 125.254844 124.579062 125.254844 124.579062 
L 129.208959 122.465544 
C 129.13978 122.33612 129.064289 122.21017 128.982758 122.08815 
C 128.901226 121.96613 128.813753 121.848186 128.720655 121.734745 
L 125.254844 124.579062 
z
" clip-path="url(#pc94dcd9af1)" style="fill: none; stroke: #292929; stroke-width: 0.5; stroke-linejoin: miter"/>
   </g>
   <g id="patch_137">
    <path d="M 125.254844 124.579062 
C 125.254844 124.579062 125.254844 124.579062 125.254844 124.579062 
C 125.254844 124.579062 125.254844 124.579062 125.254844 124.579062 
L 125.254844 124.579062 
C 125.254844 124.579062 125.254844 124.579062 125.254844 124.579062 
C 125.254844 124.579062 125.254844 124.579062 125.254844 124.579062 
L 125.254844 124.579062 
z
" clip-path="url(#pc94dcd9af1)" style="fill: none; stroke: #292929; stroke-width: 0.5; stroke-linejoin: miter"/>
   </g>
   <g id="patch_138">
    <path d="M 125.254844 124.579062 
C 125.254844 124.579062 125.254844 124.579062 125.254844 124.579062 
C 125.254844 124.579062 125.254844 124.579062 125.254844 124.579062 
L 125.254844 124.579062 
C 125.254844 124.579062 125.254844 124.579062 125.254844 124.579062 
C 125.254844 124.579062 125.254844 124.579062 125.254844 124.579062 
L 125.254844 124.579062 
z
" clip-path="url(#pc94dcd9af1)" style="fill: none; stroke: #292929; stroke-width: 0.5; stroke-linejoin: miter"/>
   </g>
   <g id="patch_139">
    <path d="M 125.254844 124.579062 
C 125.254844 124.579062 125.254844 124.579062 125.254844 124.579062 
C 125.254844 124.579062 125.254844 124.579062 125.254844 124.579062 
L 125.254844 124.579062 
C 125.254844 124.579062 125.254844 124.579062 125.254844 124.579062 
C 125.254844 124.579062 125.254844 124.579062 125.254844 124.579062 
L 125.254844 124.579062 
z
" clip-path="url(#pc94dcd9af1)" style="fill: none; stroke: #292929; stroke-width: 0.5; stroke-linejoin: miter"/>
   </g>
   <g id="patch_140">
    <path d="M 125.254844 124.579062 
C 125.254844 124.579062 125.254844 124.579062 125.254844 124.579062 
C 125.254844 124.579062 125.254844 124.579062 125.254844 124.579062 
L 132.686147 126.833324 
C 132.759932 126.590086 132.821731 126.343372 132.871319 126.094074 
C 132.920908 125.844775 132.958227 125.593192 132.983141 125.340233 
L 125.254844 124.579062 
z
" clip-path="url(#pc94dcd9af1)" style="fill: none; stroke: #292929; stroke-width: 0.5; stroke-linejoin: miter"/>
   </g>
   <g id="patch_141">
    <path d="M 125.254844 124.579062 
C 125.254844 124.579062 125.254844 124.579062 125.254844 124.579062 
C 125.254844 124.579062 125.254844 124.579062 125.254844 124.579062 
L 132.103572 128.239784 
C 132.223393 128.015615 132.332135 127.785698 132.429407 127.550864 
C 132.526678 127.31603 132.612362 127.076561 132.686147 126.833324 
L 125.254844 124.579062 
z
" clip-path="url(#pc94dcd9af1)" style="fill: none; stroke: #292929; stroke-width: 0.5; stroke-linejoin: miter"/>
   </g>
   <g id="patch_142">
    <path d="M 125.254844 124.579062 
C 125.254844 124.579062 125.254844 124.579062 125.254844 124.579062 
C 125.254844 124.579062 125.254844 124.579062 125.254844 124.579062 
L 125.254844 124.579062 
C 125.254844 124.579062 125.254844 124.579062 125.254844 124.579062 
C 125.254844 124.579062 125.254844 124.579062 125.254844 124.579062 
L 125.254844 124.579062 
z
" clip-path="url(#pc94dcd9af1)" style="fill: none; stroke: #292929; stroke-width: 0.5; stroke-linejoin: miter"/>
   </g>
   <g id="patch_143">
    <path d="M 125.254844 124.579062 
C 125.254844 124.579062 125.254844 124.579062 125.254844 124.579062 
C 125.254844 124.579062 125.254844 124.579062 125.254844 124.579062 
L 128.099161 128.044873 
C 128.212602 127.951775 128.321404 127.853162 128.425174 127.749393 
C 128.528944 127.645623 128.627556 127.536821 128.720655 127.42338 
L 125.254844 124.579062 
z
" clip-path="url(#pc94dcd9af1)" style="fill: none; stroke: #292929; stroke-width: 0.5; stroke-linejoin: miter"/>
   </g>
   <g id="patch_144">
    <path d="M 125.254844 124.579062 
C 125.254844 124.579062 125.254844 124.579062 125.254844 124.579062 
C 125.254844 124.579062 125.254844 124.579062 125.254844 124.579062 
L 125.254844 124.579062 
C 125.254844 124.579062 125.254844 124.579062 125.254844 124.579062 
C 125.254844 124.579062 125.254844 124.579062 125.254844 124.579062 
L 125.254844 124.579062 
z
" clip-path="url(#pc94dcd9af1)" style="fill: none; stroke: #292929; stroke-width: 0.5; stroke-linejoin: miter"/>
   </g>
   <g id="patch_145">
    <path d="M 125.254844 124.579062 
C 125.254844 124.579062 125.254844 124.579062 125.254844 124.579062 
C 125.254844 124.579062 125.254844 124.579062 125.254844 124.579062 
L 129.370543 138.146704 
C 129.814632 138.011991 130.251839 137.855555 130.680586 137.677963 
C 131.109332 137.50037 131.529101 137.301834 131.938376 137.083072 
L 125.254844 124.579062 
z
" clip-path="url(#pc94dcd9af1)" style="fill: none; stroke: #292929; stroke-width: 0.5; stroke-linejoin: miter"/>
   </g>
   <g id="patch_146">
    <path d="M 125.254844 124.579062 
C 125.254844 124.579062 125.254844 124.579062 125.254844 124.579062 
C 125.254844 124.579062 125.254844 124.579062 125.254844 124.579062 
L 125.59525 128.035262 
C 125.708376 128.02412 125.820888 128.007431 125.932377 127.985254 
C 126.043867 127.963077 126.154201 127.93544 126.26298 127.902442 
L 125.254844 124.579062 
z
" clip-path="url(#pc94dcd9af1)" style="fill: none; stroke: #292929; stroke-width: 0.5; stroke-linejoin: miter"/>
   </g>
   <g id="patch_147">
    <path d="M 125.254844 124.579062 
C 125.254844 124.579062 125.254844 124.579062 125.254844 124.579062 
C 125.254844 124.579062 125.254844 124.579062 125.254844 124.579062 
L 123.732502 140.035657 
C 124.238419 140.085485 124.746478 140.110445 125.254844 140.110445 
C 125.763209 140.110445 126.271268 140.085485 126.777185 140.035657 
L 125.254844 124.579062 
z
" clip-path="url(#pc94dcd9af1)" style="fill: none; stroke: #292929; stroke-width: 0.5; stroke-linejoin: miter"/>
   </g>
   <g id="patch_148">
    <path d="M 125.254844 124.579062 
C 125.254844 124.579062 125.254844 124.579062 125.254844 124.579062 
C 125.254844 124.579062 125.254844 124.579062 125.254844 124.579062 
L 118.852319 145.685359 
C 119.543159 145.894924 120.243872 146.070443 120.951927 146.211284 
C 121.659982 146.352125 122.374525 146.458117 123.092976 146.528879 
L 125.254844 124.579062 
z
" clip-path="url(#pc94dcd9af1)" style="fill: none; stroke: #292929; stroke-width: 0.5; stroke-linejoin: miter"/>
   </g>
   <g id="patch_149">
    <path d="M 125.254844 124.579062 
C 125.254844 124.579062 125.254844 124.579062 125.254844 124.579062 
C 125.254844 124.579062 125.254844 124.579062 125.254844 124.579062 
L 118.844225 136.572487 
C 119.236787 136.782316 119.639416 136.972745 120.050655 137.143086 
C 120.461894 137.313427 120.881249 137.463474 121.307204 137.592687 
L 125.254844 124.579062 
z
" clip-path="url(#pc94dcd9af1)" style="fill: none; stroke: #292929; stroke-width: 0.5; stroke-linejoin: miter"/>
   </g>
   <g id="patch_150">
    <path d="M 125.254844 124.579062 
C 125.254844 124.579062 125.254844 124.579062 125.254844 124.579062 
C 125.254844 124.579062 125.254844 124.579062 125.254844 124.579062 
L 94.357648 162.227405 
C 95.589934 163.238716 96.871131 164.188916 98.196609 165.074573 
C 99.522088 165.960229 100.89025 166.780274 102.296156 167.531746 
L 125.254844 124.579062 
z
" clip-path="url(#pc94dcd9af1)" style="fill: none; stroke: #292929; stroke-width: 0.5; stroke-linejoin: miter"/>
   </g>
   <g id="patch_151">
    <path d="M 125.254844 124.579062 
C 125.254844 124.579062 125.254844 124.579062 125.254844 124.579062 
C 125.254844 124.579062 125.254844 124.579062 125.254844 124.579062 
L 115.45205 132.624007 
C 115.715373 132.944867 115.994291 133.252605 116.287796 133.54611 
C 116.581301 133.839615 116.889039 134.118533 117.209899 134.381856 
L 125.254844 124.579062 
z
" clip-path="url(#pc94dcd9af1)" style="fill: none; stroke: #292929; stroke-width: 0.5; stroke-linejoin: miter"/>
   </g>
   <g id="patch_152">
    <path d="M 125.254844 124.579062 
C 125.254844 124.579062 125.254844 124.579062 125.254844 124.579062 
C 125.254844 124.579062 125.254844 124.579062 125.254844 124.579062 
L 100.372179 137.879124 
C 100.80751 138.693571 101.282565 139.486153 101.79563 140.254008 
C 102.308694 141.021863 102.859149 141.764066 103.445006 142.477934 
L 125.254844 124.579062 
z
" clip-path="url(#pc94dcd9af1)" style="fill: none; stroke: #292929; stroke-width: 0.5; stroke-linejoin: miter"/>
   </g>
   <g id="patch_153">
    <path d="M 125.254844 124.579062 
C 125.254844 124.579062 125.254844 124.579062 125.254844 124.579062 
C 125.254844 124.579062 125.254844 124.579062 125.254844 124.579062 
L 59.203978 144.615374 
C 59.859796 146.777317 60.621365 148.905759 61.485933 150.99301 
C 62.350501 153.080262 63.317026 155.123808 64.382017 157.116266 
L 125.254844 124.579062 
z
" clip-path="url(#pc94dcd9af1)" style="fill: none; stroke: #292929; stroke-width: 0.5; stroke-linejoin: miter"/>
   </g>
   <g id="patch_154">
    <path d="M 125.254844 124.579062 
C 125.254844 124.579062 125.254844 124.579062 125.254844 124.579062 
C 125.254844 124.579062 125.254844 124.579062 125.254844 124.579062 
L 57.058733 131.295793 
C 57.278582 133.527954 57.607891 135.747975 58.045471 137.947838 
C 58.483051 140.147701 59.028374 142.324754 59.679471 144.471134 
L 125.254844 124.579062 
z
" clip-path="url(#pc94dcd9af1)" style="fill: none; stroke: #292929; stroke-width: 0.5; stroke-linejoin: miter"/>
   </g>
   <g id="patch_155">
    <path d="M 125.254844 124.579062 
C 125.254844 124.579062 125.254844 124.579062 125.254844 124.579062 
C 125.254844 124.579062 125.254844 124.579062 125.254844 124.579062 
L 14.90876 113.710922 
C 14.553029 117.322714 14.374842 120.949794 14.374842 124.579062 
C 14.374842 128.208331 14.553029 131.835411 14.90876 135.447203 
L 125.254844 124.579062 
z
" clip-path="url(#pc94dcd9af1)" style="fill: none; stroke: #292929; stroke-width: 0.5; stroke-linejoin: miter"/>
   </g>
   <g id="patch_156">
    <path d="M 125.254844 124.579062 
C 125.254844 124.579062 125.254844 124.579062 125.254844 124.579062 
C 125.254844 124.579062 125.254844 124.579062 125.254844 124.579062 
L 35.298212 97.291017 
C 34.405034 100.235431 33.656956 103.221924 33.056682 106.239708 
C 32.456407 109.257491 32.004659 112.302928 31.70307 115.365017 
L 125.254844 124.579062 
z
" clip-path="url(#pc94dcd9af1)" style="fill: none; stroke: #292929; stroke-width: 0.5; stroke-linejoin: miter"/>
   </g>
   <g id="patch_157">
    <path d="M 125.254844 124.579062 
C 125.254844 124.579062 125.254844 124.579062 125.254844 124.579062 
C 125.254844 124.579062 125.254844 124.579062 125.254844 124.579062 
L 62.809864 91.201526 
C 61.717368 93.245443 60.72588 95.341767 59.838983 97.482926 
C 58.952086 99.624085 58.170849 101.807497 57.498093 104.025277 
L 125.254844 124.579062 
z
" clip-path="url(#pc94dcd9af1)" style="fill: none; stroke: #292929; stroke-width: 0.5; stroke-linejoin: miter"/>
   </g>
   <g id="patch_158">
    <path d="M 125.254844 124.579062 
C 125.254844 124.579062 125.254844 124.579062 125.254844 124.579062 
C 125.254844 124.579062 125.254844 124.579062 125.254844 124.579062 
L 72.533492 81.311768 
C 71.117289 83.037416 69.786664 84.831556 68.546424 86.687708 
C 67.306183 88.543859 66.157822 90.459784 65.105488 92.428562 
L 125.254844 124.579062 
z
" clip-path="url(#pc94dcd9af1)" style="fill: none; stroke: #292929; stroke-width: 0.5; stroke-linejoin: miter"/>
   </g>
   <g id="patch_159">
    <path d="M 125.254844 124.579062 
C 125.254844 124.579062 125.254844 124.579062 125.254844 124.579062 
C 125.254844 124.579062 125.254844 124.579062 125.254844 124.579062 
L 68.925867 55.942005 
C 66.679273 57.785737 64.524556 59.738658 62.469498 61.793717 
C 60.41444 63.848775 58.461518 66.003492 56.617786 68.250085 
L 125.254844 124.579062 
z
" clip-path="url(#pc94dcd9af1)" style="fill: none; stroke: #292929; stroke-width: 0.5; stroke-linejoin: miter"/>
   </g>
   <g id="patch_160">
    <path d="M 125.254844 124.579062 
C 125.254844 124.579062 125.254844 124.579062 125.254844 124.579062 
C 125.254844 124.579062 125.254844 124.579062 125.254844 124.579062 
L 85.975229 51.092072 
C 83.56989 52.377752 81.229124 53.780753 78.961386 55.296007 
C 76.693648 56.811261 74.501672 58.436942 72.393375 60.167177 
L 125.254844 124.579062 
z
" clip-path="url(#pc94dcd9af1)" style="fill: none; stroke: #292929; stroke-width: 0.5; stroke-linejoin: miter"/>
   </g>
   <g id="patch_161">
    <path d="M 125.254844 124.579062 
C 125.254844 124.579062 125.254844 124.579062 125.254844 124.579062 
C 125.254844 124.579062 125.254844 124.579062 125.254844 124.579062 
L 111.176987 78.170589 
C 109.657968 78.631378 108.162489 79.166469 106.69595 79.773929 
C 105.229411 80.38139 103.793581 81.060487 102.393645 81.808768 
L 125.254844 124.579062 
z
" clip-path="url(#pc94dcd9af1)" style="fill: none; stroke: #292929; stroke-width: 0.5; stroke-linejoin: miter"/>
   </g>
   <g id="patch_162">
    <path d="M 125.254844 124.579062 
C 125.254844 124.579062 125.254844 124.579062 125.254844 124.579062 
C 125.254844 124.579062 125.254844 124.579062 125.254844 124.579062 
L 121.28993 84.32262 
C 119.972277 84.452397 118.661789 84.64679 117.363201 84.905095 
C 116.064613 85.1634 114.779489 85.485307 113.512473 85.869652 
L 125.254844 124.579062 
z
" clip-path="url(#pc94dcd9af1)" style="fill: none; stroke: #292929; stroke-width: 0.5; stroke-linejoin: miter"/>
   </g>
   <g id="PathCollection_1">
    <defs>
     <path id="mfa6425a957" d="M 0.193618 7.414054 
L 0.193618 7.414054 
C 0.054922 7.414054 -0.078235 7.358899 -0.176308 7.260826 
C -0.274381 7.162753 -0.329536 7.029596 -0.329536 6.890901 
L -0.329536 5.365008 
L -1.528416 6.56393 
L -1.528416 6.56393 
C -1.577018 6.612704 -1.634775 6.651408 -1.698366 6.677814 
C -1.761958 6.704221 -1.830141 6.717815 -1.898997 6.717815 
C -1.967853 6.717815 -2.036037 6.704221 -2.099628 6.677814 
C -2.163219 6.651408 -2.220976 6.612704 -2.269578 6.56393 
L -2.269578 6.56393 
C -2.318353 6.515327 -2.357056 6.457571 -2.383463 6.393979 
C -2.409869 6.330388 -2.423463 6.262205 -2.423463 6.193348 
C -2.423463 6.124492 -2.409869 6.056309 -2.383463 5.992718 
C -2.357056 5.929126 -2.318353 5.87137 -2.269578 5.822767 
L -0.329536 3.884106 
L -0.329536 0.820937 
L -2.98067 2.351538 
L -3.691824 5.001416 
L -3.691824 5.001416 
C -3.727584 5.135411 -3.815199 5.249836 -3.93523 5.319305 
C -4.055261 5.388775 -4.198123 5.407741 -4.332122 5.371997 
L -4.332122 5.371997 
C -4.466126 5.336237 -4.580558 5.248616 -4.650029 5.128576 
C -4.719499 5.008535 -4.73846 4.865662 -4.702703 4.731657 
L -4.262647 3.092721 
L -5.585535 3.855668 
L -5.585535 3.855668 
C -5.645013 3.890144 -5.710708 3.912561 -5.778854 3.921634 
C -5.847001 3.930706 -5.916272 3.926258 -5.982698 3.908543 
C -6.049125 3.890828 -6.111412 3.860192 -6.165991 3.818391 
C -6.220571 3.77659 -6.266379 3.724437 -6.300791 3.664922 
L -6.300791 3.664922 
C -6.335212 3.605364 -6.35755 3.539597 -6.366524 3.471396 
C -6.375498 3.403194 -6.370933 3.333888 -6.35309 3.267452 
C -6.335248 3.201017 -6.304476 3.138749 -6.26254 3.08422 
C -6.220605 3.029692 -6.168323 2.983966 -6.108695 2.949666 
L -4.785807 2.186762 
L -6.424743 1.746706 
L -6.424743 1.746706 
C -6.558747 1.710946 -6.673179 1.623325 -6.74265 1.503284 
C -6.81212 1.383244 -6.831081 1.240371 -6.795324 1.106366 
L -6.795324 1.106366 
C -6.777471 1.039969 -6.746703 0.977739 -6.704784 0.923241 
C -6.662864 0.868744 -6.61061 0.823041 -6.551015 0.788752 
C -6.491421 0.754464 -6.425647 0.732257 -6.357465 0.723406 
C -6.289282 0.714554 -6.220019 0.71923 -6.153645 0.737166 
L -3.505232 1.44698 
L -0.852424 -0.08496 
L -3.503767 -1.615666 
L -6.153645 -0.905851 
L -6.153645 -0.905851 
C -6.22011 -0.887939 -6.289462 -0.883321 -6.357716 -0.892262 
C -6.42597 -0.901202 -6.491793 -0.923527 -6.551403 -0.957953 
C -6.611013 -0.992379 -6.663247 -1.038234 -6.705103 -1.092883 
C -6.746958 -1.147533 -6.777619 -1.209911 -6.795324 -1.276432 
L -6.795324 -1.276432 
C -6.831068 -1.410431 -6.812101 -1.553293 -6.742632 -1.673324 
C -6.673162 -1.793355 -6.558738 -1.88097 -6.424743 -1.91673 
L -4.785807 -2.355447 
L -6.108695 -3.119732 
L -6.108695 -3.119732 
C -6.228699 -3.188976 -6.316415 -3.303132 -6.352417 -3.436921 
C -6.388419 -3.57071 -6.369839 -3.713469 -6.300791 -3.833586 
L -6.300791 -3.833586 
C -6.266491 -3.893214 -6.220765 -3.945496 -6.166237 -3.987431 
C -6.111708 -4.029367 -6.04944 -4.060139 -5.983005 -4.077981 
C -5.91657 -4.095823 -5.847263 -4.100389 -5.779062 -4.091415 
C -5.71086 -4.082441 -5.645094 -4.060102 -5.585535 -4.025682 
L -4.262647 -3.261396 
L -4.702703 -4.900332 
L -4.702703 -4.900332 
C -4.73846 -5.034337 -4.719499 -5.17721 -4.650029 -5.29725 
C -4.580558 -5.417291 -4.466126 -5.504912 -4.332122 -5.540672 
L -4.332122 -5.540672 
C -4.19831 -5.576464 -4.055613 -5.557686 -3.935617 -5.488496 
C -3.81562 -5.419305 -3.727882 -5.305212 -3.691824 -5.171472 
L -2.982009 -2.521594 
L -0.329411 -0.990302 
L -0.329411 -4.051588 
L -2.269453 -5.991589 
L -2.269453 -5.991589 
C -2.318227 -6.040191 -2.356931 -6.097947 -2.383337 -6.161539 
C -2.409744 -6.22513 -2.423338 -6.293314 -2.423338 -6.36217 
C -2.423338 -6.431026 -2.409744 -6.499209 -2.383337 -6.5628 
C -2.356931 -6.626392 -2.318227 -6.684149 -2.269453 -6.732751 
L -2.269453 -6.732751 
C -2.22085 -6.781526 -2.163094 -6.820229 -2.099502 -6.846635 
C -2.035911 -6.873042 -1.967728 -6.886636 -1.898871 -6.886636 
C -1.830015 -6.886636 -1.761832 -6.873042 -1.698241 -6.846635 
C -1.634649 -6.820229 -1.576893 -6.781526 -1.52829 -6.732751 
L -0.329411 -5.533829 
L -0.329411 -7.059722 
L -0.329411 -7.059722 
C -0.329411 -7.198418 -0.274255 -7.331575 -0.176182 -7.429647 
C -0.07811 -7.52772 0.055047 -7.582875 0.193743 -7.582875 
L 0.193743 -7.582875 
C 0.332439 -7.582875 0.465596 -7.52772 0.563669 -7.429647 
C 0.661741 -7.331575 0.716897 -7.198418 0.716897 -7.059722 
L 0.716897 -5.533829 
L 1.915777 -6.732751 
L 1.915777 -6.732751 
C 1.964379 -6.781526 2.022136 -6.820229 2.085727 -6.846635 
C 2.149318 -6.873042 2.217502 -6.886636 2.286358 -6.886636 
C 2.355214 -6.886636 2.423397 -6.873042 2.486989 -6.846635 
C 2.55058 -6.820229 2.608337 -6.781526 2.656939 -6.732751 
L 2.656939 -6.732751 
C 2.705714 -6.684149 2.744417 -6.626392 2.770823 -6.5628 
C 2.79723 -6.499209 2.810824 -6.431026 2.810824 -6.36217 
C 2.810824 -6.293314 2.79723 -6.22513 2.770823 -6.161539 
C 2.744417 -6.097947 2.705714 -6.040191 2.656939 -5.991589 
L 0.716897 -4.051588 
L 0.716897 -0.991139 
L 3.369495 -2.522954 
L 4.07931 -5.171367 
L 4.07931 -5.171367 
C 4.115368 -5.305107 4.203106 -5.4192 4.323103 -5.488391 
C 4.4431 -5.557582 4.585797 -5.576359 4.719608 -5.540567 
L 4.719608 -5.540567 
C 4.853612 -5.504807 4.968045 -5.417186 5.037515 -5.297146 
C 5.106986 -5.177105 5.125946 -5.034232 5.090189 -4.900227 
L 4.650133 -3.262673 
L 5.973022 -4.025577 
L 5.973022 -4.025577 
C 6.03258 -4.059998 6.098346 -4.082336 6.166548 -4.09131 
C 6.234749 -4.100284 6.304056 -4.095719 6.370491 -4.077876 
C 6.436926 -4.060034 6.499194 -4.029262 6.553723 -3.987327 
C 6.608252 -3.945391 6.653978 -3.893109 6.688277 -3.833481 
L 6.688277 -3.833481 
C 6.757325 -3.713365 6.775905 -3.570605 6.739903 -3.436816 
C 6.703901 -3.303027 6.616186 -3.188871 6.496181 -3.119628 
L 5.173293 -2.355342 
L 6.812229 -1.916625 
L 6.812229 -1.916625 
C 6.946224 -1.880865 7.060649 -1.79325 7.130118 -1.67322 
C 7.199588 -1.553189 7.218554 -1.410326 7.18281 -1.276327 
L 7.18281 -1.276327 
C 7.165106 -1.209806 7.134445 -1.147429 7.092589 -1.092779 
C 7.050733 -1.038129 6.998499 -0.992274 6.938889 -0.957848 
C 6.879279 -0.923422 6.813456 -0.901098 6.745202 -0.892157 
C 6.676949 -0.883217 6.607597 -0.887835 6.541131 -0.905746 
L 3.891253 -1.615561 
L 1.239492 -0.084604 
L 3.892718 1.447085 
L 6.541131 0.73727 
L 6.541131 0.73727 
C 6.674948 0.701466 6.817656 0.720237 6.937662 0.789429 
C 7.057669 0.858621 7.145413 0.972721 7.181471 1.10647 
L 7.181471 1.10647 
C 7.217274 1.240293 7.198497 1.383006 7.129297 1.503014 
C 7.060096 1.623021 6.945986 1.710762 6.812229 1.74681 
L 5.173293 2.186866 
L 6.496181 2.949771 
L 6.496181 2.949771 
C 6.555697 2.984183 6.607849 3.029991 6.649651 3.08457 
C 6.691452 3.13915 6.722088 3.201437 6.739803 3.267863 
C 6.757517 3.33429 6.761966 3.403561 6.752893 3.471707 
C 6.743821 3.539854 6.721404 3.605549 6.686927 3.665026 
L 6.686927 3.665026 
C 6.617458 3.784813 6.503196 3.87225 6.369416 3.907994 
C 6.235636 3.943739 6.092989 3.924946 5.973032 3.855772 
L 4.650144 3.091487 
L 5.08886 4.731783 
L 5.08886 4.731783 
C 5.124664 4.865606 5.105887 5.008319 5.036686 5.128326 
C 4.967486 5.248334 4.853376 5.336074 4.719619 5.372123 
L 4.719619 5.372123 
C 4.585619 5.407867 4.442757 5.3889 4.322726 5.319431 
C 4.202695 5.249961 4.115081 5.135537 4.07932 5.001542 
L 3.368166 2.351664 
L 0.717033 0.821063 
L 0.717033 3.884232 
L 2.657075 5.822893 
L 2.657075 5.822893 
C 2.70585 5.871495 2.744553 5.929252 2.770959 5.992843 
C 2.797366 6.056435 2.81096 6.124618 2.81096 6.193474 
C 2.81096 6.26233 2.797366 6.330514 2.770959 6.394105 
C 2.744553 6.457696 2.70585 6.515453 2.657075 6.564055 
L 2.657075 6.564055 
C 2.608473 6.61283 2.550716 6.651533 2.487125 6.67794 
C 2.423533 6.704346 2.35535 6.71794 2.286494 6.71794 
C 2.217638 6.71794 2.149454 6.704346 2.085863 6.67794 
C 2.022272 6.651533 1.964515 6.61283 1.915913 6.564055 
L 0.717033 5.365133 
L 0.717033 6.891026 
L 0.717033 6.891026 
C 0.717033 7.029722 0.661877 7.162879 0.563805 7.260952 
C 0.465732 7.359024 0.332575 7.41418 0.193879 7.41418 
L 0.193618 7.414054 
z
"/>
    </defs>
    <g clip-path="url(#pc94dcd9af1)">
     <use xlink:href="#mfa6425a957" x="37.349961" y="97.444129" style="fill: #9e2096; fill-opacity: 0.7"/>
    </g>
   </g>
   <g id="patch_163">
    <path d="M 125.254844 13.699062 
C 110.694216 13.699062 96.275171 16.567189 82.822905 22.1393 
C 69.370638 27.711411 57.146763 35.879144 46.850844 46.175063 
C 36.554925 56.470982 28.387192 68.694857 22.815081 82.147124 
C 17.24297 95.59939 14.374844 110.018434 14.374844 124.579063 
C 14.374844 139.139691 17.24297 153.558735 22.815081 167.011001 
C 28.387192 180.463268 36.554925 192.687143 46.850844 202.983062 
C 57.146763 213.278981 69.370638 221.446714 82.822905 227.018825 
C 96.275171 232.590936 110.694216 235.459063 125.254844 235.459063 
C 139.815472 235.459063 154.234516 232.590936 167.686783 227.018825 
C 181.139049 221.446714 193.362925 213.278981 203.658844 202.983062 
C 213.954763 192.687143 222.122495 180.463268 227.694606 167.011001 
C 233.266717 153.558735 236.134844 139.139691 236.134844 124.579062 
C 236.134844 110.018434 233.266717 95.59939 227.694606 82.147124 
C 222.122495 68.694857 213.954763 56.470982 203.658844 46.175063 
C 193.362925 35.879144 181.139049 27.711411 167.686783 22.1393 
C 154.234516 16.567189 139.815472 13.699062 125.254844 13.699062 
" style="fill: none; stroke: #000000; stroke-width: 0.8; stroke-linejoin: miter; stroke-linecap: square"/>
   </g>
  </g>
 </g>
 <defs>
  <clipPath id="pc94dcd9af1">
   <path d="M 236.134844 124.579063 
C 236.134844 110.018434 233.266717 95.59939 227.694606 82.147124 
C 222.122495 68.694857 213.954763 56.470982 203.658844 46.175063 
C 193.362925 35.879144 181.139049 27.711411 167.686783 22.1393 
C 154.234516 16.567189 139.815472 13.699062 125.254844 13.699062 
C 110.694216 13.699062 96.275171 16.567189 82.822905 22.1393 
C 69.370638 27.711411 57.146763 35.879144 46.850844 46.175063 
C 36.554925 56.470982 28.387192 68.694857 22.815081 82.147124 
C 17.24297 95.59939 14.374844 110.018434 14.374844 124.579062 
C 14.374844 139.139691 17.24297 153.558735 22.815081 167.011001 
C 28.387192 180.463268 36.554925 192.687143 46.850844 202.983062 
C 57.146763 213.278981 69.370638 221.446714 82.822905 227.018825 
C 96.275171 232.590936 110.694216 235.459063 125.254844 235.459063 
C 139.815472 235.459063 154.234516 232.590936 167.686783 227.018825 
C 181.139049 221.446714 193.362925 213.278981 203.658844 202.983062 
C 213.954763 192.687143 222.122495 180.463268 227.694606 167.011001 
C 233.266717 153.558735 236.134844 139.139691 236.134844 124.579063 
M 125.254844 124.579063 
C 125.254844 124.579063 125.254844 124.579063 125.254844 124.579063 
C 125.254844 124.579063 125.254844 124.579063 125.254844 124.579063 
C 125.254844 124.579063 125.254844 124.579063 125.254844 124.579063 
C 125.254844 124.579063 125.254844 124.579063 125.254844 124.579063 
C 125.254844 124.579063 125.254844 124.579063 125.254844 124.579063 
C 125.254844 124.579063 125.254844 124.579063 125.254844 124.579063 
C 125.254844 124.579063 125.254844 124.579063 125.254844 124.579063 
C 125.254844 124.579063 125.254844 124.579063 125.254844 124.579063 
C 125.254844 124.579063 125.254844 124.579063 125.254844 124.579063 
C 125.254844 124.579063 125.254844 124.579063 125.254844 124.579063 
C 125.254844 124.579063 125.254844 124.579063 125.254844 124.579063 
C 125.254844 124.579063 125.254844 124.579063 125.254844 124.579063 
C 125.254844 124.579063 125.254844 124.579063 125.254844 124.579063 
C 125.254844 124.579063 125.254844 124.579063 125.254844 124.579063 
C 125.254844 124.579063 125.254844 124.579063 125.254844 124.579063 
C 125.254844 124.579063 125.254844 124.579063 125.254844 124.579063 
z
"/>
  </clipPath>
 </defs>
</svg>
