<?xml version="1.0" encoding="utf-8" standalone="no"?>
<!DOCTYPE svg PUBLIC "-//W3C//DTD SVG 1.1//EN"
  "http://www.w3.org/Graphics/SVG/1.1/DTD/svg11.dtd">
<svg xmlns:xlink="http://www.w3.org/1999/xlink" width="248.410469pt" height="249.158125pt" viewBox="0 0 248.410469 249.158125" xmlns="http://www.w3.org/2000/svg" version="1.1">
 <title>Ski Rose for Riserva Bianca</title>
 <metadata>
  <rdf:RDF xmlns:dc="http://purl.org/dc/elements/1.1/" xmlns:cc="http://creativecommons.org/ns#" xmlns:rdf="http://www.w3.org/1999/02/22-rdf-syntax-ns#">
   <cc:Work>
    <dc:type rdf:resource="http://purl.org/dc/dcmitype/StillImage"/>
    <dc:title>Ski Rose for Riserva Bianca</dc:title>
    <dc:date>2025-03-01T23:45:00.969502</dc:date>
    <dc:description>A 32-bin stacked histogram of downhill ski run orientations colored by difficulty.</dc:description>
    <dc:format>image/svg+xml</dc:format>
    <dc:source>https://openskimap.org/?obj=c8df10ba59b2c80f2302566b5b0b9958292c8075</dc:source>
    <dc:creator>
     <cc:Agent>
      <dc:title>https://github.com/dhimmel/openskistats</dc:title>
     </cc:Agent>
    </dc:creator>
    <dc:rights>
     <cc:Agent>
      <dc:title>https://creativecommons.org/licenses/by/4.0/</dc:title>
     </cc:Agent>
    </dc:rights>
   </cc:Work>
  </rdf:RDF>
 </metadata>
 <defs>
  <style type="text/css">*{stroke-linejoin: round; stroke-linecap: butt}</style>
 </defs>
 <g id="figure_1">
  <g id="patch_1">
   <path d="M 0 249.158125 
L 248.410469 249.158125 
L 248.410469 0 
L 0 0 
z
" style="fill: #ffffff"/>
  </g>
  <g id="axes_1">
   <g id="patch_2">
    <path d="M 236.134844 124.579063 
C 236.134844 110.018434 233.266717 95.59939 227.694606 82.147124 
C 222.122495 68.694857 213.954763 56.470982 203.658844 46.175063 
C 193.362925 35.879144 181.139049 27.711411 167.686783 22.1393 
C 154.234516 16.567189 139.815472 13.699063 125.254844 13.699063 
C 110.694216 13.699063 96.275171 16.567189 82.822905 22.1393 
C 69.370638 27.711411 57.146763 35.879144 46.850844 46.175063 
C 36.554925 56.470982 28.387192 68.694857 22.815081 82.147124 
C 17.24297 95.59939 14.374844 110.018434 14.374844 124.579062 
C 14.374844 139.139691 17.24297 153.558735 22.815081 167.011001 
C 28.387192 180.463268 36.554925 192.687143 46.850844 202.983062 
C 57.146763 213.278981 69.370638 221.446714 82.822905 227.018825 
C 96.275171 232.590936 110.694216 235.459063 125.254844 235.459063 
C 139.815472 235.459063 154.234516 232.590936 167.686783 227.018825 
C 181.139049 221.446714 193.362925 213.278981 203.658844 202.983062 
C 213.954763 192.687143 222.122495 180.463268 227.694606 167.011001 
C 233.266717 153.558735 236.134844 139.139691 236.134844 124.579063 
M 125.254844 124.579063 
C 125.254844 124.579063 125.254844 124.579063 125.254844 124.579063 
C 125.254844 124.579063 125.254844 124.579063 125.254844 124.579063 
C 125.254844 124.579063 125.254844 124.579063 125.254844 124.579063 
C 125.254844 124.579063 125.254844 124.579063 125.254844 124.579063 
C 125.254844 124.579063 125.254844 124.579063 125.254844 124.579063 
C 125.254844 124.579063 125.254844 124.579063 125.254844 124.579063 
C 125.254844 124.579063 125.254844 124.579063 125.254844 124.579063 
C 125.254844 124.579063 125.254844 124.579063 125.254844 124.579063 
C 125.254844 124.579063 125.254844 124.579063 125.254844 124.579063 
C 125.254844 124.579063 125.254844 124.579063 125.254844 124.579063 
C 125.254844 124.579063 125.254844 124.579063 125.254844 124.579063 
C 125.254844 124.579063 125.254844 124.579063 125.254844 124.579063 
C 125.254844 124.579063 125.254844 124.579063 125.254844 124.579063 
C 125.254844 124.579063 125.254844 124.579063 125.254844 124.579063 
C 125.254844 124.579063 125.254844 124.579063 125.254844 124.579063 
C 125.254844 124.579063 125.254844 124.579063 125.254844 124.579063 
z
" style="fill: #ffffff"/>
   </g>
   <g id="PolyCollection_1">
    <defs>
     <path id="m0250c4d141" d="M 235.335794 -137.121203 
L 235.147986 -137.099804 
L 234.18482 -135.067826 
L 233.130018 -133.069023 
L 232.003778 -131.108107 
L 231.035435 -129.197543 
L 229.807116 -127.31686 
L 228.536659 -125.480389 
L 227.228526 -123.689152 
L 226.104847 -121.938212 
L 224.731046 -120.235838 
L 223.327918 -118.580656 
L 222.116091 -116.955917 
L 220.660327 -115.392559 
L 219.181345 -113.877489 
L 217.897429 -112.382435 
L 216.376709 -110.960808 
L 215.052493 -109.55209 
L 213.496805 -108.224382 
L 212.138389 -106.902405 
L 210.764387 -105.622053 
L 209.167767 -104.433352 
L 207.768434 -103.239597 
L 206.357722 -102.087244 
L 204.936978 -100.976139 
L 203.507544 -99.906081 
L 202.070755 -98.876818 
L 200.627939 -97.88805 
L 199.180415 -96.939424 
L 197.729492 -96.030539 
L 196.27647 -95.160942 
L 194.822636 -94.330126 
L 193.551612 -93.454432 
L 192.096866 -92.697053 
L 190.821351 -91.888808 
L 189.370218 -91.202711 
L 188.094263 -90.460042 
L 186.651135 -89.842712 
L 185.378664 -89.163426 
L 184.1077 -88.513986 
L 182.839084 -87.893856 
L 181.573638 -87.302466 
L 180.312163 -86.739215 
L 179.055442 -86.203469 
L 177.804232 -85.694561 
L 176.559268 -85.211793 
L 175.32126 -84.754437 
L 174.090891 -84.321732 
L 172.868817 -83.912887 
L 171.778928 -83.41803 
L 170.571261 -83.054217 
L 169.489329 -82.602103 
L 168.298164 -82.28051 
L 167.118034 -81.978771 
L 166.05326 -81.586502 
L 164.992621 -81.212889 
L 163.839851 -80.966646 
L 162.792142 -80.628533 
L 161.749562 -80.307429 
L 160.627229 -80.10988 
L 159.599347 -79.820434 
L 158.577364 -79.546261 
L 157.561489 -79.286816 
L 156.551909 -79.04155 
L 155.548786 -78.809908 
L 154.552258 -78.591334 
L 153.562437 -78.385269 
L 152.57941 -78.191153 
L 151.60324 -78.008429 
L 150.633963 -77.836539 
L 149.67159 -77.674929 
L 148.716106 -77.523051 
L 147.76747 -77.380361 
L 146.825616 -77.246323 
L 145.925221 -77.04045 
L 144.993769 -76.925081 
L 144.068843 -76.816943 
L 143.150282 -76.71554 
L 142.262231 -76.551683 
L 141.353341 -76.465725 
L 140.450305 -76.385216 
L 139.552874 -76.309721 
L 138.676241 -76.183067 
L 137.787163 -76.120181 
L 136.902949 -76.061213 
L 136.033348 -75.960372 
L 135.156217 -75.912256 
L 134.290232 -75.828472 
L 133.41929 -75.790256 
L 132.551716 -75.754553 
L 131.690716 -75.693758 
L 130.827699 -75.666743 
L 129.968915 -75.621558 
L 129.10937 -75.602658 
L 128.251423 -75.585422 
L 127.394996 -75.561522 
L 126.538667 -75.551822 
L 125.682776 -75.542842 
L 124.826917 -75.54357 
L 123.971017 -75.551686 
L 123.115041 -75.569519 
L 122.258242 -75.585064 
L 121.400279 -75.602168 
L 120.542652 -75.641075 
L 119.681909 -75.66604 
L 118.82247 -75.720337 
L 117.957836 -75.753647 
L 117.096002 -75.823745 
L 116.226419 -75.866042 
L 115.353225 -75.911053 
L 114.486131 -76.004538 
L 113.606411 -76.059848 
L 112.722149 -76.118726 
L 111.84849 -76.237313 
L 110.956344 -76.308136 
L 110.058861 -76.383563 
L 109.177628 -76.529331 
L 108.271168 -76.618643 
L 107.358736 -76.713749 
L 106.469262 -76.889084 
L 105.547058 -77.00026 
L 104.618424 -77.118546 
L 103.683218 -77.244449 
L 102.741324 -77.378486 
L 101.792651 -77.521184 
L 100.883625 -77.762386 
L 99.924459 -77.926298 
L 98.958457 -78.100357 
L 97.985624 -78.285114 
L 97.005992 -78.481126 
L 96.019617 -78.688949 
L 95.026584 -78.909143 
L 94.026999 -79.142266 
L 93.020996 -79.388875 
L 92.008733 -79.649522 
L 90.909447 -79.81927 
L 89.881624 -80.10883 
L 88.848148 -80.414209 
L 87.809276 -80.735936 
L 86.669285 -80.966022 
L 85.616865 -81.321799 
L 84.559963 -81.695606 
L 83.391524 -81.978639 
L 82.323144 -82.390199 
L 81.136313 -82.71214 
L 80.058103 -83.16388 
L 78.854742 -83.52772 
L 77.641889 -83.913758 
L 76.550734 -84.430493 
L 75.324599 -84.862752 
L 74.090792 -85.319505 
L 72.849994 -85.801513 
L 71.602911 -86.309511 
L 70.350276 -86.844199 
L 69.092846 -87.406247 
L 67.831398 -87.996293 
L 66.566732 -88.614941 
L 65.299668 -89.262765 
L 63.864712 -89.846197 
L 62.592237 -90.556043 
L 61.320018 -91.296699 
L 59.873073 -91.980914 
L 58.601175 -92.786893 
L 57.150485 -93.542118 
L 55.69812 -94.334938 
L 54.433037 -95.24371 
L 52.98386 -96.110765 
L 51.53671 -97.016982 
L 50.092885 -97.962817 
L 48.653694 -98.948676 
L 47.220456 -99.974915 
L 45.794498 -101.041836 
L 44.377154 -102.149694 
L 42.969766 -103.298694 
L 41.573681 -104.488993 
L 39.980675 -105.674235 
L 38.609762 -106.950921 
L 37.254354 -108.269136 
L 35.702026 -109.59306 
L 34.380648 -110.997823 
L 32.863106 -112.415459 
L 31.581845 -113.906372 
L 30.105834 -115.417255 
L 28.870911 -116.993483 
L 27.443409 -118.596659 
L 26.042839 -120.247373 
L 24.889776 -121.950911 
L 23.549482 -123.691493 
L 22.243117 -125.478032 
L 20.973905 -127.309755 
L 19.960499 -129.176313 
L 18.776964 -131.091529 
L 17.647882 -133.047914 
L 16.586552 -135.042629 
L 15.803805 -137.049433 
L 15.193672 -137.118949 
L 15.193672 -137.118949 
L 14.90745 -135.204308 
L 14.884143 -133.265425 
L 14.663172 -131.343139 
L 14.518444 -129.413918 
L 14.506968 -127.479098 
L 14.382858 -125.546628 
L 14.525929 -123.612746 
L 14.466275 -121.677962 
L 14.486413 -119.742808 
L 14.63 -117.812957 
L 14.851996 -115.89017 
L 14.916583 -113.954696 
L 15.252439 -112.045872 
L 15.379147 -110.113653 
L 15.593007 -108.189991 
L 15.908847 -106.280818 
L 16.309612 -104.387257 
L 16.618659 -102.476781 
L 17.017646 -100.583454 
L 17.506057 -98.710868 
L 17.910609 -96.817956 
L 18.459341 -94.962048 
L 18.971536 -93.096512 
L 19.643663 -91.279985 
L 20.109323 -89.397863 
L 20.775977 -87.581155 
L 21.405969 -85.751559 
L 22.131921 -83.957863 
L 22.823657 -82.150676 
L 23.611919 -80.383461 
L 24.431982 -78.631437 
L 25.189322 -76.850257 
L 26.061621 -75.123146 
L 26.940145 -73.39967 
L 27.864698 -71.700528 
L 28.764076 -69.987213 
L 29.721412 -68.30557 
L 30.73524 -66.657375 
L 31.739981 -65.003525 
L 32.794217 -63.380709 
L 34.563619 -62.24871 
L 36.468347 -61.24827 
L 38.325625 -60.254825 
L 40.199044 -59.313452 
L 42.074794 -58.414664 
L 43.95609 -57.561542 
L 45.83217 -56.745691 
L 47.708439 -55.971799 
L 49.575349 -55.231583 
L 51.379456 -54.473937 
L 53.236991 -53.807316 
L 55.029243 -53.116972 
L 56.865511 -52.511743 
L 58.642406 -51.884343 
L 60.411457 -51.286946 
L 62.172038 -50.718586 
L 63.923582 -50.178293 
L 65.665579 -49.665089 
L 67.358278 -49.126789 
L 69.081694 -48.665408 
L 70.794322 -48.228226 
L 72.458413 -47.75978 
L 74.150426 -47.368709 
L 75.800461 -46.951232 
L 77.438772 -46.550325 
L 79.071999 -46.176149 
L 80.693275 -45.816756 
L 82.332895 -45.526668 
L 83.912832 -45.161798 
L 85.510841 -44.864926 
L 87.096925 -44.579323 
L 88.677106 -44.316542 
L 90.245608 -44.063333 
L 91.790409 -43.78877 
L 93.345744 -43.573093 
L 94.890011 -43.364628 
L 96.414787 -43.137254 
L 97.946435 -42.962831 
L 99.458849 -42.764618 
L 100.973973 -42.608217 
L 102.474848 -42.437051 
L 103.970734 -42.279515 
L 105.468909 -42.164712 
L 106.954516 -42.031618 
L 108.43583 -41.910969 
L 109.913101 -41.802429 
L 111.389101 -41.720652 
L 112.858561 -41.633595 
L 114.324882 -41.557757 
L 115.788372 -41.492903 
L 117.249349 -41.438823 
L 118.708142 -41.395336 
L 120.165088 -41.362287 
L 121.620528 -41.33955 
L 123.074812 -41.327026 
L 124.528293 -41.324648 
L 125.981392 -41.324831 
L 127.434865 -41.327393 
L 128.889135 -41.340099 
L 130.344555 -41.363018 
L 131.801473 -41.396248 
L 133.260233 -41.439915 
L 134.721171 -41.494172 
L 136.184616 -41.559203 
L 137.650885 -41.635215 
L 139.122745 -41.707755 
L 140.596166 -41.804694 
L 142.073358 -41.913425 
L 143.554586 -42.03426 
L 145.040101 -42.167537 
L 146.538269 -42.282164 
L 148.034063 -42.439852 
L 149.534841 -42.611166 
L 151.049717 -42.768177 
L 152.562009 -42.966549 
L 154.093694 -43.140662 
L 155.618354 -43.368166 
L 157.162286 -43.577302 
L 158.717696 -43.79259 
L 160.262368 -44.067268 
L 161.830465 -44.321186 
L 163.410768 -44.583505 
L 164.996396 -44.869839 
L 166.594562 -45.166202 
L 168.197827 -45.487926 
L 169.81381 -45.821357 
L 171.434529 -46.181514 
L 173.067992 -46.555096 
L 174.705694 -46.956777 
L 176.387692 -47.325755 
L 178.047846 -47.764768 
L 179.711249 -48.233998 
L 181.423671 -48.671249 
L 183.146881 -49.13269 
L 184.839984 -49.670275 
L 186.5818 -50.183516 
L 188.333165 -50.723837 
L 190.093567 -51.292218 
L 191.862439 -51.889628 
L 193.688809 -52.46471 
L 195.474479 -53.123042 
L 197.266531 -53.813374 
L 199.124678 -54.479207 
L 200.928619 -55.236823 
L 202.794494 -55.977775 
L 204.671473 -56.750853 
L 206.54652 -57.567376 
L 208.428573 -58.419691 
L 210.303339 -59.319057 
L 212.177571 -60.259628 
L 214.03399 -61.253513 
L 215.938836 -62.253682 
L 217.708137 -63.385562 
L 218.766313 -65.005686 
L 219.772957 -66.658288 
L 220.768699 -68.317102 
L 221.736566 -69.992331 
L 222.648929 -71.698389 
L 223.594287 -73.386788 
L 224.419631 -75.137324 
L 225.286519 -76.866401 
L 226.100274 -78.621152 
L 226.845758 -80.406076 
L 227.677138 -82.154359 
L 228.364078 -83.963255 
L 229.080687 -85.76017 
L 229.72843 -87.583025 
L 230.38577 -89.402747 
L 230.99685 -91.238736 
L 231.561921 -93.089472 
L 232.081282 -94.953469 
L 232.555288 -96.829281 
L 232.984341 -98.715499 
L 233.485634 -100.584874 
L 233.891711 -102.476642 
L 234.190423 -104.389046 
L 234.57941 -106.284404 
L 234.797862 -108.207749 
L 235.160672 -110.109686 
L 235.297076 -112.041334 
L 235.580985 -113.955863 
L 235.788634 -115.879865 
L 235.810078 -117.817215 
L 235.98247 -119.74459 
L 236.084396 -121.676889 
L 236.028776 -123.612353 
L 236.093376 -125.546336 
L 236.091544 -127.481424 
L 235.89881 -129.409882 
L 235.86201 -131.344087 
L 235.792373 -133.278555 
L 235.503296 -135.194781 
L 235.335794 -137.121203 
z
" style="stroke: #ffee9c"/>
    </defs>
    <g clip-path="url(#p517c2ff390)">
     <use xlink:href="#m0250c4d141" x="0" y="249.158125" style="fill: #ffee9c; stroke: #ffee9c"/>
    </g>
   </g>
   <g id="matplotlib.axis_1">
    <g id="xtick_1">
     <g id="line2d_1">
      <path d="M 125.254844 124.579063 
L 125.254844 13.699063 
" clip-path="url(#p517c2ff390)" style="fill: none; stroke: #b0b0b0; stroke-width: 0.8; stroke-linecap: square"/>
     </g>
     <g id="text_1">
      <!-- N -->
      <g transform="translate(121.070469 7.958438) scale(0.1 -0.1)">
       <defs>
        <path id="DejaVuSans-Bold-4e" d="M 588 4666 
L 1931 4666 
L 3628 1466 
L 3628 4666 
L 4769 4666 
L 4769 0 
L 3425 0 
L 1728 3200 
L 1728 0 
L 588 0 
L 588 4666 
z
" transform="scale(0.015625)"/>
       </defs>
       <use xlink:href="#DejaVuSans-Bold-4e"/>
      </g>
     </g>
    </g>
    <g id="xtick_2">
     <g id="line2d_2">
      <path d="M 125.254844 124.579063 
L 203.658844 46.175063 
" clip-path="url(#p517c2ff390)" style="fill: none; stroke: #b0b0b0; stroke-width: 0.8; stroke-linecap: square"/>
     </g>
    </g>
    <g id="xtick_3">
     <g id="line2d_3">
      <path d="M 125.254844 124.579063 
L 236.134844 124.579063 
" clip-path="url(#p517c2ff390)" style="fill: none; stroke: #b0b0b0; stroke-width: 0.8; stroke-linecap: square"/>
     </g>
     <g id="text_2">
      <!-- E -->
      <g transform="translate(241.219219 127.338438) scale(0.1 -0.1)">
       <defs>
        <path id="DejaVuSans-Bold-45" d="M 588 4666 
L 3834 4666 
L 3834 3756 
L 1791 3756 
L 1791 2888 
L 3713 2888 
L 3713 1978 
L 1791 1978 
L 1791 909 
L 3903 909 
L 3903 0 
L 588 0 
L 588 4666 
z
" transform="scale(0.015625)"/>
       </defs>
       <use xlink:href="#DejaVuSans-Bold-45"/>
      </g>
     </g>
    </g>
    <g id="xtick_4">
     <g id="line2d_4">
      <path d="M 125.254844 124.579063 
L 203.658844 202.983062 
" clip-path="url(#p517c2ff390)" style="fill: none; stroke: #b0b0b0; stroke-width: 0.8; stroke-linecap: square"/>
     </g>
    </g>
    <g id="xtick_5">
     <g id="line2d_5">
      <path d="M 125.254844 124.579063 
L 125.254844 235.459063 
" clip-path="url(#p517c2ff390)" style="fill: none; stroke: #b0b0b0; stroke-width: 0.8; stroke-linecap: square"/>
     </g>
     <g id="text_3">
      <!-- S -->
      <g transform="translate(121.654063 246.718438) scale(0.1 -0.1)">
       <defs>
        <path id="DejaVuSans-Bold-53" d="M 3834 4519 
L 3834 3531 
Q 3450 3703 3084 3790 
Q 2719 3878 2394 3878 
Q 1963 3878 1756 3759 
Q 1550 3641 1550 3391 
Q 1550 3203 1689 3098 
Q 1828 2994 2194 2919 
L 2706 2816 
Q 3484 2659 3812 2340 
Q 4141 2022 4141 1434 
Q 4141 663 3683 286 
Q 3225 -91 2284 -91 
Q 1841 -91 1394 -6 
Q 947 78 500 244 
L 500 1259 
Q 947 1022 1364 901 
Q 1781 781 2169 781 
Q 2563 781 2772 912 
Q 2981 1044 2981 1288 
Q 2981 1506 2839 1625 
Q 2697 1744 2272 1838 
L 1806 1941 
Q 1106 2091 782 2419 
Q 459 2747 459 3303 
Q 459 4000 909 4375 
Q 1359 4750 2203 4750 
Q 2588 4750 2994 4692 
Q 3400 4634 3834 4519 
z
" transform="scale(0.015625)"/>
       </defs>
       <use xlink:href="#DejaVuSans-Bold-53"/>
      </g>
     </g>
    </g>
    <g id="xtick_6">
     <g id="line2d_6">
      <path d="M 125.254844 124.579063 
L 46.850844 202.983062 
" clip-path="url(#p517c2ff390)" style="fill: none; stroke: #b0b0b0; stroke-width: 0.8; stroke-linecap: square"/>
     </g>
    </g>
    <g id="xtick_7">
     <g id="line2d_7">
      <path d="M 125.254844 124.579063 
L 14.374844 124.579063 
" clip-path="url(#p517c2ff390)" style="fill: none; stroke: #b0b0b0; stroke-width: 0.8; stroke-linecap: square"/>
     </g>
     <g id="text_4">
      <!-- W -->
      <g transform="translate(0.36 127.338438) scale(0.1 -0.1)">
       <defs>
        <path id="DejaVuSans-Bold-57" d="M 191 4666 
L 1344 4666 
L 2150 1275 
L 2950 4666 
L 4109 4666 
L 4909 1275 
L 5716 4666 
L 6859 4666 
L 5759 0 
L 4372 0 
L 3525 3547 
L 2688 0 
L 1300 0 
L 191 4666 
z
" transform="scale(0.015625)"/>
       </defs>
       <use xlink:href="#DejaVuSans-Bold-57"/>
      </g>
     </g>
    </g>
    <g id="xtick_8">
     <g id="line2d_8">
      <path d="M 125.254844 124.579063 
L 46.850844 46.175063 
" clip-path="url(#p517c2ff390)" style="fill: none; stroke: #b0b0b0; stroke-width: 0.8; stroke-linecap: square"/>
     </g>
    </g>
   </g>
   <g id="matplotlib.axis_2"/>
   <g id="patch_3">
    <path d="M 125.254844 124.579063 
C 125.254844 124.579063 125.254844 124.579063 125.254844 124.579063 
C 125.254844 124.579063 125.254844 124.579063 125.254844 124.579063 
L 125.254844 124.579063 
C 125.254844 124.579063 125.254844 124.579063 125.254844 124.579063 
C 125.254844 124.579063 125.254844 124.579063 125.254844 124.579063 
z
" clip-path="url(#p517c2ff390)" style="fill: #d9d9d9"/>
   </g>
   <g id="patch_4">
    <path d="M 125.254844 124.579063 
C 125.254844 124.579063 125.254844 124.579063 125.254844 124.579063 
C 125.254844 124.579063 125.254844 124.579063 125.254844 124.579063 
L 125.254844 124.579063 
C 125.254844 124.579063 125.254844 124.579063 125.254844 124.579063 
C 125.254844 124.579063 125.254844 124.579063 125.254844 124.579063 
z
" clip-path="url(#p517c2ff390)" style="fill: #d9d9d9"/>
   </g>
   <g id="patch_5">
    <path d="M 125.254844 124.579063 
C 125.254844 124.579063 125.254844 124.579063 125.254844 124.579063 
C 125.254844 124.579063 125.254844 124.579063 125.254844 124.579063 
L 125.254844 124.579063 
C 125.254844 124.579063 125.254844 124.579063 125.254844 124.579063 
C 125.254844 124.579063 125.254844 124.579063 125.254844 124.579063 
z
" clip-path="url(#p517c2ff390)" style="fill: #d9d9d9"/>
   </g>
   <g id="patch_6">
    <path d="M 125.254844 124.579063 
C 125.254844 124.579063 125.254844 124.579063 125.254844 124.579063 
C 125.254844 124.579063 125.254844 124.579063 125.254844 124.579063 
L 125.254844 124.579063 
C 125.254844 124.579063 125.254844 124.579063 125.254844 124.579063 
C 125.254844 124.579063 125.254844 124.579063 125.254844 124.579063 
z
" clip-path="url(#p517c2ff390)" style="fill: #d9d9d9"/>
   </g>
   <g id="patch_7">
    <path d="M 125.254844 124.579063 
C 125.254844 124.579063 125.254844 124.579063 125.254844 124.579063 
C 125.254844 124.579063 125.254844 124.579063 125.254844 124.579063 
L 125.254844 124.579063 
C 125.254844 124.579063 125.254844 124.579063 125.254844 124.579063 
C 125.254844 124.579063 125.254844 124.579063 125.254844 124.579063 
z
" clip-path="url(#p517c2ff390)" style="fill: #d9d9d9"/>
   </g>
   <g id="patch_8">
    <path d="M 125.254844 124.579063 
C 125.254844 124.579063 125.254844 124.579063 125.254844 124.579063 
C 125.254844 124.579063 125.254844 124.579063 125.254844 124.579063 
L 125.254844 124.579063 
C 125.254844 124.579063 125.254844 124.579063 125.254844 124.579063 
C 125.254844 124.579063 125.254844 124.579063 125.254844 124.579063 
z
" clip-path="url(#p517c2ff390)" style="fill: #d9d9d9"/>
   </g>
   <g id="patch_9">
    <path d="M 125.254844 124.579063 
C 125.254844 124.579063 125.254844 124.579063 125.254844 124.579063 
C 125.254844 124.579063 125.254844 124.579063 125.254844 124.579063 
L 125.254844 124.579063 
C 125.254844 124.579063 125.254844 124.579063 125.254844 124.579063 
C 125.254844 124.579063 125.254844 124.579063 125.254844 124.579063 
z
" clip-path="url(#p517c2ff390)" style="fill: #d9d9d9"/>
   </g>
   <g id="patch_10">
    <path d="M 125.254844 124.579063 
C 125.254844 124.579063 125.254844 124.579063 125.254844 124.579063 
C 125.254844 124.579063 125.254844 124.579063 125.254844 124.579063 
L 125.254844 124.579063 
C 125.254844 124.579063 125.254844 124.579063 125.254844 124.579063 
C 125.254844 124.579063 125.254844 124.579063 125.254844 124.579063 
z
" clip-path="url(#p517c2ff390)" style="fill: #d9d9d9"/>
   </g>
   <g id="patch_11">
    <path d="M 125.254844 124.579063 
C 125.254844 124.579063 125.254844 124.579063 125.254844 124.579063 
C 125.254844 124.579063 125.254844 124.579063 125.254844 124.579063 
L 125.254844 124.579063 
C 125.254844 124.579063 125.254844 124.579063 125.254844 124.579063 
C 125.254844 124.579063 125.254844 124.579063 125.254844 124.579063 
z
" clip-path="url(#p517c2ff390)" style="fill: #d9d9d9"/>
   </g>
   <g id="patch_12">
    <path d="M 125.254844 124.579063 
C 125.254844 124.579063 125.254844 124.579063 125.254844 124.579063 
C 125.254844 124.579063 125.254844 124.579063 125.254844 124.579063 
L 125.254844 124.579063 
C 125.254844 124.579063 125.254844 124.579063 125.254844 124.579063 
C 125.254844 124.579063 125.254844 124.579063 125.254844 124.579063 
z
" clip-path="url(#p517c2ff390)" style="fill: #d9d9d9"/>
   </g>
   <g id="patch_13">
    <path d="M 125.254844 124.579063 
C 125.254844 124.579063 125.254844 124.579063 125.254844 124.579063 
C 125.254844 124.579063 125.254844 124.579063 125.254844 124.579063 
L 125.254844 124.579063 
C 125.254844 124.579063 125.254844 124.579063 125.254844 124.579063 
C 125.254844 124.579063 125.254844 124.579063 125.254844 124.579063 
z
" clip-path="url(#p517c2ff390)" style="fill: #d9d9d9"/>
   </g>
   <g id="patch_14">
    <path d="M 125.254844 124.579063 
C 125.254844 124.579063 125.254844 124.579063 125.254844 124.579063 
C 125.254844 124.579063 125.254844 124.579063 125.254844 124.579063 
L 125.254844 124.579063 
C 125.254844 124.579063 125.254844 124.579063 125.254844 124.579063 
C 125.254844 124.579063 125.254844 124.579063 125.254844 124.579063 
z
" clip-path="url(#p517c2ff390)" style="fill: #d9d9d9"/>
   </g>
   <g id="patch_15">
    <path d="M 125.254844 124.579063 
C 125.254844 124.579063 125.254844 124.579063 125.254844 124.579063 
C 125.254844 124.579063 125.254844 124.579063 125.254844 124.579063 
L 125.254844 124.579063 
C 125.254844 124.579063 125.254844 124.579063 125.254844 124.579063 
C 125.254844 124.579063 125.254844 124.579063 125.254844 124.579063 
z
" clip-path="url(#p517c2ff390)" style="fill: #d9d9d9"/>
   </g>
   <g id="patch_16">
    <path d="M 125.254844 124.579063 
C 125.254844 124.579063 125.254844 124.579063 125.254844 124.579063 
C 125.254844 124.579063 125.254844 124.579063 125.254844 124.579063 
L 125.254844 124.579063 
C 125.254844 124.579063 125.254844 124.579063 125.254844 124.579063 
C 125.254844 124.579063 125.254844 124.579063 125.254844 124.579063 
z
" clip-path="url(#p517c2ff390)" style="fill: #d9d9d9"/>
   </g>
   <g id="patch_17">
    <path d="M 125.254844 124.579063 
C 125.254844 124.579063 125.254844 124.579063 125.254844 124.579063 
C 125.254844 124.579063 125.254844 124.579063 125.254844 124.579063 
L 125.254844 124.579063 
C 125.254844 124.579063 125.254844 124.579063 125.254844 124.579063 
C 125.254844 124.579063 125.254844 124.579063 125.254844 124.579063 
z
" clip-path="url(#p517c2ff390)" style="fill: #d9d9d9"/>
   </g>
   <g id="patch_18">
    <path d="M 125.254844 124.579063 
C 125.254844 124.579063 125.254844 124.579063 125.254844 124.579063 
C 125.254844 124.579063 125.254844 124.579063 125.254844 124.579063 
L 125.254844 124.579063 
C 125.254844 124.579063 125.254844 124.579063 125.254844 124.579063 
C 125.254844 124.579063 125.254844 124.579063 125.254844 124.579063 
z
" clip-path="url(#p517c2ff390)" style="fill: #d9d9d9"/>
   </g>
   <g id="patch_19">
    <path d="M 125.254844 124.579063 
C 125.254844 124.579063 125.254844 124.579063 125.254844 124.579063 
C 125.254844 124.579063 125.254844 124.579063 125.254844 124.579063 
L 125.254844 124.579063 
C 125.254844 124.579063 125.254844 124.579063 125.254844 124.579063 
C 125.254844 124.579063 125.254844 124.579063 125.254844 124.579063 
z
" clip-path="url(#p517c2ff390)" style="fill: #d9d9d9"/>
   </g>
   <g id="patch_20">
    <path d="M 125.254844 124.579063 
C 125.254844 124.579063 125.254844 124.579063 125.254844 124.579063 
C 125.254844 124.579063 125.254844 124.579063 125.254844 124.579063 
L 125.254844 124.579063 
C 125.254844 124.579063 125.254844 124.579063 125.254844 124.579063 
C 125.254844 124.579063 125.254844 124.579063 125.254844 124.579063 
z
" clip-path="url(#p517c2ff390)" style="fill: #d9d9d9"/>
   </g>
   <g id="patch_21">
    <path d="M 125.254844 124.579063 
C 125.254844 124.579063 125.254844 124.579063 125.254844 124.579063 
C 125.254844 124.579063 125.254844 124.579063 125.254844 124.579063 
L 125.254844 124.579063 
C 125.254844 124.579063 125.254844 124.579063 125.254844 124.579063 
C 125.254844 124.579063 125.254844 124.579063 125.254844 124.579063 
z
" clip-path="url(#p517c2ff390)" style="fill: #d9d9d9"/>
   </g>
   <g id="patch_22">
    <path d="M 125.254844 124.579063 
C 125.254844 124.579063 125.254844 124.579063 125.254844 124.579063 
C 125.254844 124.579063 125.254844 124.579063 125.254844 124.579063 
L 125.254844 124.579063 
C 125.254844 124.579063 125.254844 124.579063 125.254844 124.579063 
C 125.254844 124.579063 125.254844 124.579063 125.254844 124.579063 
z
" clip-path="url(#p517c2ff390)" style="fill: #d9d9d9"/>
   </g>
   <g id="patch_23">
    <path d="M 125.254844 124.579063 
C 125.254844 124.579063 125.254844 124.579063 125.254844 124.579063 
C 125.254844 124.579063 125.254844 124.579063 125.254844 124.579063 
L 125.254844 124.579063 
C 125.254844 124.579063 125.254844 124.579063 125.254844 124.579063 
C 125.254844 124.579063 125.254844 124.579063 125.254844 124.579063 
z
" clip-path="url(#p517c2ff390)" style="fill: #d9d9d9"/>
   </g>
   <g id="patch_24">
    <path d="M 125.254844 124.579063 
C 125.254844 124.579063 125.254844 124.579063 125.254844 124.579063 
C 125.254844 124.579063 125.254844 124.579063 125.254844 124.579063 
L 125.254844 124.579063 
C 125.254844 124.579063 125.254844 124.579063 125.254844 124.579063 
C 125.254844 124.579063 125.254844 124.579063 125.254844 124.579063 
z
" clip-path="url(#p517c2ff390)" style="fill: #d9d9d9"/>
   </g>
   <g id="patch_25">
    <path d="M 125.254844 124.579063 
C 125.254844 124.579063 125.254844 124.579063 125.254844 124.579063 
C 125.254844 124.579063 125.254844 124.579063 125.254844 124.579063 
L 125.254844 124.579063 
C 125.254844 124.579063 125.254844 124.579063 125.254844 124.579063 
C 125.254844 124.579063 125.254844 124.579063 125.254844 124.579063 
z
" clip-path="url(#p517c2ff390)" style="fill: #d9d9d9"/>
   </g>
   <g id="patch_26">
    <path d="M 125.254844 124.579063 
C 125.254844 124.579063 125.254844 124.579063 125.254844 124.579063 
C 125.254844 124.579063 125.254844 124.579063 125.254844 124.579063 
L 125.254844 124.579063 
C 125.254844 124.579063 125.254844 124.579063 125.254844 124.579063 
C 125.254844 124.579063 125.254844 124.579063 125.254844 124.579063 
z
" clip-path="url(#p517c2ff390)" style="fill: #d9d9d9"/>
   </g>
   <g id="patch_27">
    <path d="M 125.254844 124.579063 
C 125.254844 124.579063 125.254844 124.579063 125.254844 124.579063 
C 125.254844 124.579063 125.254844 124.579063 125.254844 124.579063 
L 125.254844 124.579063 
C 125.254844 124.579063 125.254844 124.579063 125.254844 124.579063 
C 125.254844 124.579063 125.254844 124.579063 125.254844 124.579063 
z
" clip-path="url(#p517c2ff390)" style="fill: #d9d9d9"/>
   </g>
   <g id="patch_28">
    <path d="M 125.254844 124.579063 
C 125.254844 124.579063 125.254844 124.579063 125.254844 124.579063 
C 125.254844 124.579063 125.254844 124.579063 125.254844 124.579063 
L 125.254844 124.579063 
C 125.254844 124.579063 125.254844 124.579063 125.254844 124.579063 
C 125.254844 124.579063 125.254844 124.579063 125.254844 124.579063 
z
" clip-path="url(#p517c2ff390)" style="fill: #d9d9d9"/>
   </g>
   <g id="patch_29">
    <path d="M 125.254844 124.579063 
C 125.254844 124.579063 125.254844 124.579063 125.254844 124.579063 
C 125.254844 124.579063 125.254844 124.579063 125.254844 124.579063 
L 125.254844 124.579063 
C 125.254844 124.579063 125.254844 124.579063 125.254844 124.579063 
C 125.254844 124.579063 125.254844 124.579063 125.254844 124.579063 
z
" clip-path="url(#p517c2ff390)" style="fill: #d9d9d9"/>
   </g>
   <g id="patch_30">
    <path d="M 125.254844 124.579063 
C 125.254844 124.579063 125.254844 124.579063 125.254844 124.579063 
C 125.254844 124.579063 125.254844 124.579063 125.254844 124.579063 
L 125.254844 124.579063 
C 125.254844 124.579063 125.254844 124.579063 125.254844 124.579063 
C 125.254844 124.579063 125.254844 124.579063 125.254844 124.579063 
z
" clip-path="url(#p517c2ff390)" style="fill: #d9d9d9"/>
   </g>
   <g id="patch_31">
    <path d="M 125.254844 124.579063 
C 125.254844 124.579063 125.254844 124.579063 125.254844 124.579063 
C 125.254844 124.579063 125.254844 124.579063 125.254844 124.579063 
L 125.254844 124.579063 
C 125.254844 124.579063 125.254844 124.579063 125.254844 124.579063 
C 125.254844 124.579063 125.254844 124.579063 125.254844 124.579063 
z
" clip-path="url(#p517c2ff390)" style="fill: #d9d9d9"/>
   </g>
   <g id="patch_32">
    <path d="M 125.254844 124.579063 
C 125.254844 124.579063 125.254844 124.579063 125.254844 124.579063 
C 125.254844 124.579063 125.254844 124.579063 125.254844 124.579063 
L 125.254844 124.579063 
C 125.254844 124.579063 125.254844 124.579063 125.254844 124.579063 
C 125.254844 124.579063 125.254844 124.579063 125.254844 124.579063 
z
" clip-path="url(#p517c2ff390)" style="fill: #d9d9d9"/>
   </g>
   <g id="patch_33">
    <path d="M 125.254844 124.579063 
C 125.254844 124.579063 125.254844 124.579063 125.254844 124.579063 
C 125.254844 124.579063 125.254844 124.579063 125.254844 124.579063 
L 125.254844 124.579063 
C 125.254844 124.579063 125.254844 124.579063 125.254844 124.579063 
C 125.254844 124.579063 125.254844 124.579063 125.254844 124.579063 
z
" clip-path="url(#p517c2ff390)" style="fill: #d9d9d9"/>
   </g>
   <g id="patch_34">
    <path d="M 125.254844 124.579063 
C 125.254844 124.579063 125.254844 124.579063 125.254844 124.579063 
C 125.254844 124.579063 125.254844 124.579063 125.254844 124.579063 
L 125.254844 124.579063 
C 125.254844 124.579063 125.254844 124.579063 125.254844 124.579063 
C 125.254844 124.579063 125.254844 124.579063 125.254844 124.579063 
z
" clip-path="url(#p517c2ff390)" style="fill: #d9d9d9"/>
   </g>
   <g id="patch_35">
    <path d="M 125.254844 124.579063 
C 125.254844 124.579063 125.254844 124.579063 125.254844 124.579063 
C 125.254844 124.579063 125.254844 124.579063 125.254844 124.579063 
L 127.760128 99.142484 
C 126.927551 99.060482 126.091449 99.019407 125.254844 99.019407 
C 124.418238 99.019407 123.582137 99.060482 122.749559 99.142484 
z
" clip-path="url(#p517c2ff390)" style="fill: #a1a1d8"/>
   </g>
   <g id="patch_36">
    <path d="M 125.254844 124.579063 
C 125.254844 124.579063 125.254844 124.579063 125.254844 124.579063 
C 125.254844 124.579063 125.254844 124.579063 125.254844 124.579063 
L 131.900577 102.671017 
C 131.183494 102.453492 130.456163 102.271305 129.721212 102.125114 
C 128.986261 101.978923 128.244575 101.868904 127.498833 101.795455 
z
" clip-path="url(#p517c2ff390)" style="fill: #a1a1d8"/>
   </g>
   <g id="patch_37">
    <path d="M 125.254844 124.579063 
C 125.254844 124.579063 125.254844 124.579063 125.254844 124.579063 
C 125.254844 124.579063 125.254844 124.579063 125.254844 124.579063 
L 135.832297 104.790039 
C 135.184573 104.443823 134.520241 104.129617 133.841701 103.848556 
C 133.16316 103.567496 132.471229 103.319919 131.768408 103.10672 
z
" clip-path="url(#p517c2ff390)" style="fill: #a1a1d8"/>
   </g>
   <g id="patch_38">
    <path d="M 125.254844 124.579063 
C 125.254844 124.579063 125.254844 124.579063 125.254844 124.579063 
C 125.254844 124.579063 125.254844 124.579063 125.254844 124.579063 
L 139.656262 107.030883 
C 139.081884 106.559503 138.484709 106.116608 137.866893 105.703796 
C 137.249078 105.290985 136.611366 104.908756 135.956063 104.558489 
z
" clip-path="url(#p517c2ff390)" style="fill: #a1a1d8"/>
   </g>
   <g id="patch_39">
    <path d="M 125.254844 124.579063 
C 125.254844 124.579063 125.254844 124.579063 125.254844 124.579063 
C 125.254844 124.579063 125.254844 124.579063 125.254844 124.579063 
L 140.025858 112.456804 
C 139.629079 111.973327 139.208801 111.509622 138.766543 111.067364 
C 138.324285 110.625105 137.860579 110.204828 137.377102 109.808048 
z
" clip-path="url(#p517c2ff390)" style="fill: #a1a1d8"/>
   </g>
   <g id="patch_40">
    <path d="M 125.254844 124.579063 
C 125.254844 124.579063 125.254844 124.579063 125.254844 124.579063 
C 125.254844 124.579063 125.254844 124.579063 125.254844 124.579063 
L 141.544451 115.872086 
C 141.259458 115.338903 140.94846 114.820034 140.612579 114.317352 
C 140.276698 113.81467 139.916339 113.328783 139.532804 112.861444 
z
" clip-path="url(#p517c2ff390)" style="fill: #a1a1d8"/>
   </g>
   <g id="patch_41">
    <path d="M 125.254844 124.579063 
C 125.254844 124.579063 125.254844 124.579063 125.254844 124.579063 
C 125.254844 124.579063 125.254844 124.579063 125.254844 124.579063 
L 143.952619 118.907154 
C 143.766969 118.295148 143.551383 117.692626 143.30664 117.101764 
C 143.061897 116.510901 142.788292 115.932411 142.486812 115.368383 
z
" clip-path="url(#p517c2ff390)" style="fill: #a1a1d8"/>
   </g>
   <g id="patch_42">
    <path d="M 125.254844 124.579063 
C 125.254844 124.579063 125.254844 124.579063 125.254844 124.579063 
C 125.254844 124.579063 125.254844 124.579063 125.254844 124.579063 
L 155.660469 121.58437 
C 155.562448 120.589148 155.415624 119.599339 155.220526 118.618518 
C 155.025429 117.637696 154.782293 116.667044 154.491998 115.710069 
z
" clip-path="url(#p517c2ff390)" style="fill: #a1a1d8"/>
   </g>
   <g id="patch_43">
    <path d="M 125.254844 124.579063 
C 125.254844 124.579063 125.254844 124.579063 125.254844 124.579063 
C 125.254844 124.579063 125.254844 124.579063 125.254844 124.579063 
L 151.339054 127.148133 
C 151.423144 126.294358 151.465265 125.436969 151.465265 124.579063 
C 151.465265 123.721156 151.423144 122.863767 151.339054 122.009992 
z
" clip-path="url(#p517c2ff390)" style="fill: #a1a1d8"/>
   </g>
   <g id="patch_44">
    <path d="M 125.254844 124.579063 
C 125.254844 124.579063 125.254844 124.579063 125.254844 124.579063 
C 125.254844 124.579063 125.254844 124.579063 125.254844 124.579063 
L 147.731596 131.397311 
C 147.954768 130.661613 148.141684 129.915402 148.29167 129.161372 
C 148.441656 128.407342 148.55453 127.646403 148.629886 126.881303 
z
" clip-path="url(#p517c2ff390)" style="fill: #a1a1d8"/>
   </g>
   <g id="patch_45">
    <path d="M 125.254844 124.579063 
C 125.254844 124.579063 125.254844 124.579063 125.254844 124.579063 
C 125.254844 124.579063 125.254844 124.579063 125.254844 124.579063 
L 139.00702 131.929754 
C 139.247619 131.479624 139.465973 131.017954 139.661293 130.546409 
C 139.856613 130.074864 140.028664 129.594014 140.176824 129.105596 
z
" clip-path="url(#p517c2ff390)" style="fill: #a1a1d8"/>
   </g>
   <g id="patch_46">
    <path d="M 125.254844 124.579063 
C 125.254844 124.579063 125.254844 124.579063 125.254844 124.579063 
C 125.254844 124.579063 125.254844 124.579063 125.254844 124.579063 
L 148.124436 143.347652 
C 148.73876 142.599096 149.315962 141.82083 149.853956 141.015664 
C 150.391951 140.210498 150.89009 139.379404 151.346574 138.525383 
z
" clip-path="url(#p517c2ff390)" style="fill: #a1a1d8"/>
   </g>
   <g id="patch_47">
    <path d="M 125.254844 124.579063 
C 125.254844 124.579063 125.254844 124.579063 125.254844 124.579063 
C 125.254844 124.579063 125.254844 124.579063 125.254844 124.579063 
L 141.581705 144.4734 
C 142.232876 143.938997 142.857417 143.372946 143.453072 142.777291 
C 144.048728 142.181636 144.614779 141.557095 145.149181 140.905923 
z
" clip-path="url(#p517c2ff390)" style="fill: #a1a1d8"/>
   </g>
   <g id="patch_48">
    <path d="M 125.254844 124.579063 
C 125.254844 124.579063 125.254844 124.579063 125.254844 124.579063 
C 125.254844 124.579063 125.254844 124.579063 125.254844 124.579063 
L 134.694 142.238482 
C 135.272019 141.929525 135.834521 141.592374 136.379474 141.228248 
C 136.924427 140.864122 137.451173 140.47346 137.957811 140.057673 
z
" clip-path="url(#p517c2ff390)" style="fill: #a1a1d8"/>
   </g>
   <g id="patch_49">
    <path d="M 125.254844 124.579063 
C 125.254844 124.579063 125.254844 124.579063 125.254844 124.579063 
C 125.254844 124.579063 125.254844 124.579063 125.254844 124.579063 
L 125.651194 125.885655 
C 125.693961 125.872682 125.736065 125.857617 125.777354 125.840514 
C 125.818643 125.823412 125.859068 125.804292 125.898482 125.783225 
z
" clip-path="url(#p517c2ff390)" style="fill: #a1a1d8"/>
   </g>
   <g id="patch_50">
    <path d="M 125.254844 124.579063 
C 125.254844 124.579063 125.254844 124.579063 125.254844 124.579063 
C 125.254844 124.579063 125.254844 124.579063 125.254844 124.579063 
L 125.254844 124.579063 
C 125.254844 124.579063 125.254844 124.579063 125.254844 124.579063 
C 125.254844 124.579063 125.254844 124.579063 125.254844 124.579063 
z
" clip-path="url(#p517c2ff390)" style="fill: #a1a1d8"/>
   </g>
   <g id="patch_51">
    <path d="M 125.254844 124.579063 
C 125.254844 124.579063 125.254844 124.579063 125.254844 124.579063 
C 125.254844 124.579063 125.254844 124.579063 125.254844 124.579063 
L 125.254844 124.579063 
C 125.254844 124.579063 125.254844 124.579063 125.254844 124.579063 
C 125.254844 124.579063 125.254844 124.579063 125.254844 124.579063 
z
" clip-path="url(#p517c2ff390)" style="fill: #a1a1d8"/>
   </g>
   <g id="patch_52">
    <path d="M 125.254844 124.579063 
C 125.254844 124.579063 125.254844 124.579063 125.254844 124.579063 
C 125.254844 124.579063 125.254844 124.579063 125.254844 124.579063 
L 125.254844 124.579063 
C 125.254844 124.579063 125.254844 124.579063 125.254844 124.579063 
C 125.254844 124.579063 125.254844 124.579063 125.254844 124.579063 
z
" clip-path="url(#p517c2ff390)" style="fill: #a1a1d8"/>
   </g>
   <g id="patch_53">
    <path d="M 125.254844 124.579063 
C 125.254844 124.579063 125.254844 124.579063 125.254844 124.579063 
C 125.254844 124.579063 125.254844 124.579063 125.254844 124.579063 
L 125.254844 124.579063 
C 125.254844 124.579063 125.254844 124.579063 125.254844 124.579063 
C 125.254844 124.579063 125.254844 124.579063 125.254844 124.579063 
z
" clip-path="url(#p517c2ff390)" style="fill: #a1a1d8"/>
   </g>
   <g id="patch_54">
    <path d="M 125.254844 124.579063 
C 125.254844 124.579063 125.254844 124.579063 125.254844 124.579063 
C 125.254844 124.579063 125.254844 124.579063 125.254844 124.579063 
L 125.254844 124.579063 
C 125.254844 124.579063 125.254844 124.579063 125.254844 124.579063 
C 125.254844 124.579063 125.254844 124.579063 125.254844 124.579063 
z
" clip-path="url(#p517c2ff390)" style="fill: #a1a1d8"/>
   </g>
   <g id="patch_55">
    <path d="M 125.254844 124.579063 
C 125.254844 124.579063 125.254844 124.579063 125.254844 124.579063 
C 125.254844 124.579063 125.254844 124.579063 125.254844 124.579063 
L 122.945897 126.473967 
C 123.00792 126.549542 123.073616 126.622026 123.142748 126.691158 
C 123.21188 126.76029 123.284364 126.825987 123.35994 126.88801 
z
" clip-path="url(#p517c2ff390)" style="fill: #a1a1d8"/>
   </g>
   <g id="patch_56">
    <path d="M 125.254844 124.579063 
C 125.254844 124.579063 125.254844 124.579063 125.254844 124.579063 
C 125.254844 124.579063 125.254844 124.579063 125.254844 124.579063 
L 125.254844 124.579063 
C 125.254844 124.579063 125.254844 124.579063 125.254844 124.579063 
C 125.254844 124.579063 125.254844 124.579063 125.254844 124.579063 
z
" clip-path="url(#p517c2ff390)" style="fill: #a1a1d8"/>
   </g>
   <g id="patch_57">
    <path d="M 125.254844 124.579063 
C 125.254844 124.579063 125.254844 124.579063 125.254844 124.579063 
C 125.254844 124.579063 125.254844 124.579063 125.254844 124.579063 
L 120.316389 126.077126 
C 120.365423 126.238769 120.422363 126.397908 120.487005 126.553966 
C 120.551646 126.710025 120.623911 126.862815 120.703538 127.011786 
z
" clip-path="url(#p517c2ff390)" style="fill: #a1a1d8"/>
   </g>
   <g id="patch_58">
    <path d="M 125.254844 124.579063 
C 125.254844 124.579063 125.254844 124.579063 125.254844 124.579063 
C 125.254844 124.579063 125.254844 124.579063 125.254844 124.579063 
L 125.254844 124.579063 
C 125.254844 124.579063 125.254844 124.579063 125.254844 124.579063 
C 125.254844 124.579063 125.254844 124.579063 125.254844 124.579063 
z
" clip-path="url(#p517c2ff390)" style="fill: #a1a1d8"/>
   </g>
   <g id="patch_59">
    <path d="M 125.254844 124.579063 
C 125.254844 124.579063 125.254844 124.579063 125.254844 124.579063 
C 125.254844 124.579063 125.254844 124.579063 125.254844 124.579063 
L 117.093895 123.775279 
C 117.067586 124.042399 117.054408 124.31065 117.054408 124.579063 
C 117.054408 124.847475 117.067586 125.115726 117.093895 125.382846 
z
" clip-path="url(#p517c2ff390)" style="fill: #a1a1d8"/>
   </g>
   <g id="patch_60">
    <path d="M 125.254844 124.579063 
C 125.254844 124.579063 125.254844 124.579063 125.254844 124.579063 
C 125.254844 124.579063 125.254844 124.579063 125.254844 124.579063 
L 109.248611 119.723625 
C 109.089685 120.247533 108.956578 120.778928 108.849769 121.31589 
C 108.742961 121.852853 108.66258 122.394736 108.608918 122.939582 
z
" clip-path="url(#p517c2ff390)" style="fill: #a1a1d8"/>
   </g>
   <g id="patch_61">
    <path d="M 125.254844 124.579063 
C 125.254844 124.579063 125.254844 124.579063 125.254844 124.579063 
C 125.254844 124.579063 125.254844 124.579063 125.254844 124.579063 
L 103.685302 113.049902 
C 103.307936 113.755906 102.965459 114.480011 102.65911 115.219603 
C 102.352761 115.959195 102.082909 116.713383 101.850527 117.479441 
z
" clip-path="url(#p517c2ff390)" style="fill: #a1a1d8"/>
   </g>
   <g id="patch_62">
    <path d="M 125.254844 124.579063 
C 125.254844 124.579063 125.254844 124.579063 125.254844 124.579063 
C 125.254844 124.579063 125.254844 124.579063 125.254844 124.579063 
L 104.079837 107.201184 
C 103.511033 107.894273 102.976601 108.614872 102.478471 109.360377 
C 101.98034 110.105881 101.519112 110.875393 101.096453 111.666134 
z
" clip-path="url(#p517c2ff390)" style="fill: #a1a1d8"/>
   </g>
   <g id="patch_63">
    <path d="M 125.254844 124.579063 
C 125.254844 124.579063 125.254844 124.579063 125.254844 124.579063 
C 125.254844 124.579063 125.254844 124.579063 125.254844 124.579063 
L 103.225881 97.736694 
C 102.34729 98.457735 101.50463 99.221477 100.700944 100.025163 
C 99.897259 100.828849 99.133516 101.671509 98.412475 102.5501 
z
" clip-path="url(#p517c2ff390)" style="fill: #a1a1d8"/>
   </g>
   <g id="patch_64">
    <path d="M 125.254844 124.579063 
C 125.254844 124.579063 125.254844 124.579063 125.254844 124.579063 
C 125.254844 124.579063 125.254844 124.579063 125.254844 124.579063 
L 105.435983 87.500581 
C 104.222348 88.149282 103.041295 88.857178 101.897089 89.621712 
C 100.752883 90.386246 99.646903 91.206497 98.583144 92.079502 
z
" clip-path="url(#p517c2ff390)" style="fill: #a1a1d8"/>
   </g>
   <g id="patch_65">
    <path d="M 125.254844 124.579063 
C 125.254844 124.579063 125.254844 124.579063 125.254844 124.579063 
C 125.254844 124.579063 125.254844 124.579063 125.254844 124.579063 
L 111.045726 77.737877 
C 109.512544 78.202963 108.00312 78.743043 106.522907 79.356168 
C 105.042694 79.969292 103.593476 80.654721 102.180488 81.409979 
z
" clip-path="url(#p517c2ff390)" style="fill: #a1a1d8"/>
   </g>
   <g id="patch_66">
    <path d="M 125.254844 124.579063 
C 125.254844 124.579063 125.254844 124.579063 125.254844 124.579063 
C 125.254844 124.579063 125.254844 124.579063 125.254844 124.579063 
L 122.438478 95.984018 
C 121.502519 96.076202 120.571651 96.214283 119.649235 96.397763 
C 118.726819 96.581243 117.813967 96.8099 116.913977 97.082909 
z
" clip-path="url(#p517c2ff390)" style="fill: #a1a1d8"/>
   </g>
   <g id="patch_67">
    <path d="M 122.749559 99.142484 
C 123.582137 99.060482 124.418238 99.019407 125.254844 99.019407 
C 126.091449 99.019407 126.927551 99.060482 127.760128 99.142484 
L 133.506224 40.80139 
C 130.764056 40.53131 128.01028 40.396025 125.254844 40.396025 
C 122.499407 40.396025 119.745632 40.53131 117.003463 40.80139 
z
" clip-path="url(#p517c2ff390)" style="fill: #ff8c8e"/>
   </g>
   <g id="patch_68">
    <path d="M 127.498833 101.795455 
C 128.244575 101.868904 128.986261 101.978923 129.721212 102.125114 
C 130.456163 102.271305 131.183494 102.453492 131.900577 102.671017 
L 141.557607 70.836056 
C 139.798518 70.302442 138.01429 69.855517 136.211368 69.496893 
C 134.408447 69.13827 132.589004 68.868381 130.759613 68.688202 
z
" clip-path="url(#p517c2ff390)" style="fill: #ff8c8e"/>
   </g>
   <g id="patch_69">
    <path d="M 131.768408 103.10672 
C 132.471229 103.319919 133.16316 103.567496 133.841701 103.848556 
C 134.520241 104.129617 135.184573 104.443823 135.832297 104.790039 
L 156.068919 66.929983 
C 154.181978 65.921393 152.246656 65.006053 150.269943 64.187272 
C 148.293229 63.36849 146.277507 62.647253 144.230057 62.026166 
z
" clip-path="url(#p517c2ff390)" style="fill: #ff8c8e"/>
   </g>
   <g id="patch_70">
    <path d="M 135.956063 104.558489 
C 136.611366 104.908756 137.249078 105.290985 137.866893 105.703796 
C 138.484709 106.116608 139.081884 106.559503 139.656262 107.030883 
L 164.14467 77.191672 
C 162.59361 75.91875 160.980988 74.722748 159.312628 73.607986 
C 157.644269 72.493224 155.922183 71.461045 154.152592 70.515179 
z
" clip-path="url(#p517c2ff390)" style="fill: #ff8c8e"/>
   </g>
   <g id="patch_71">
    <path d="M 137.377102 109.808048 
C 137.860579 110.204828 138.324285 110.625105 138.766543 111.067364 
C 139.208801 111.509622 139.629079 111.973327 140.025858 112.456804 
L 162.924253 93.664577 
C 161.912376 92.431601 160.840573 91.249049 159.712715 90.121191 
C 158.584858 88.993334 157.402305 87.92153 156.169329 86.909653 
z
" clip-path="url(#p517c2ff390)" style="fill: #ff8c8e"/>
   </g>
   <g id="patch_72">
    <path d="M 139.532804 112.861444 
C 139.916339 113.328783 140.276698 113.81467 140.612579 114.317352 
C 140.94846 114.820034 141.259458 115.338903 141.544451 115.872086 
L 156.308963 107.98029 
C 155.765661 106.963842 155.172781 105.974682 154.532465 105.016381 
C 153.892149 104.058081 153.20517 103.131796 152.474007 102.240872 
z
" clip-path="url(#p517c2ff390)" style="fill: #ff8c8e"/>
   </g>
   <g id="patch_73">
    <path d="M 142.486812 115.368383 
C 142.788292 115.932411 143.061897 116.510901 143.30664 117.101764 
C 143.551383 117.692626 143.766969 118.295148 143.952619 118.907154 
L 171.038875 110.690629 
C 170.584286 109.192049 170.056394 107.716691 169.457108 106.269885 
C 168.857821 104.823079 168.187861 103.406568 167.449648 102.02547 
z
" clip-path="url(#p517c2ff390)" style="fill: #ff8c8e"/>
   </g>
   <g id="patch_74">
    <path d="M 154.491998 115.710069 
C 154.782293 116.667044 155.025429 117.637696 155.220526 118.618518 
C 155.415624 119.599339 155.562448 120.589148 155.660469 121.58437 
L 179.518635 119.234546 
C 179.343701 117.458411 179.081669 115.691935 178.733486 113.941499 
C 178.385302 112.191063 177.951387 110.458777 177.433308 108.750898 
z
" clip-path="url(#p517c2ff390)" style="fill: #ff8c8e"/>
   </g>
   <g id="patch_75">
    <path d="M 151.339054 122.009992 
C 151.423144 122.863767 151.465265 123.721156 151.465265 124.579063 
C 151.465265 125.436969 151.423144 126.294358 151.339054 127.148133 
L 171.628214 129.146441 
C 171.777711 127.628571 171.852595 126.104276 171.852595 124.579063 
C 171.852595 123.053849 171.777711 121.529554 171.628214 120.011684 
z
" clip-path="url(#p517c2ff390)" style="fill: #ff8c8e"/>
   </g>
   <g id="patch_76">
    <path d="M 148.629886 126.881303 
C 148.55453 127.646403 148.441656 128.407342 148.29167 129.161372 
C 148.141684 129.915402 147.954768 130.661613 147.731596 131.397311 
L 156.525443 134.064895 
C 156.835929 133.041362 157.095974 132.003201 157.304641 130.954164 
C 157.513308 129.905126 157.670344 128.846475 157.775182 127.782036 
z
" clip-path="url(#p517c2ff390)" style="fill: #ff8c8e"/>
   </g>
   <g id="patch_77">
    <path d="M 140.176824 129.105596 
C 140.028664 129.594014 139.856613 130.074864 139.661293 130.546409 
C 139.465973 131.017954 139.247619 131.479624 139.00702 131.929754 
L 153.427024 139.637407 
C 153.919906 138.715289 154.367218 137.769528 154.767343 136.80354 
C 155.167469 135.837552 155.519926 134.852501 155.823441 133.851945 
z
" clip-path="url(#p517c2ff390)" style="fill: #ff8c8e"/>
   </g>
   <g id="patch_78">
    <path d="M 151.346574 138.525383 
C 150.89009 139.379404 150.391951 140.210498 149.853956 141.015664 
C 149.315962 141.82083 148.73876 142.599096 148.124436 143.347652 
L 154.941964 148.942653 
C 155.739421 147.970949 156.488689 146.960678 157.187062 145.915489 
C 157.885435 144.8703 158.532072 143.791452 159.124635 142.682843 
z
" clip-path="url(#p517c2ff390)" style="fill: #ff8c8e"/>
   </g>
   <g id="patch_79">
    <path d="M 145.149181 140.905923 
C 144.614779 141.557095 144.048728 142.181636 143.453072 142.777291 
C 142.857417 143.372946 142.232876 143.938997 141.581705 144.4734 
L 145.800983 149.614605 
C 146.620434 148.9421 147.406372 148.229766 148.15596 147.480179 
C 148.905548 146.730591 149.617881 145.944652 150.290387 145.125202 
z
" clip-path="url(#p517c2ff390)" style="fill: #ff8c8e"/>
   </g>
   <g id="patch_80">
    <path d="M 137.957811 140.057673 
C 137.451173 140.47346 136.924427 140.864122 136.379474 141.228248 
C 135.834521 141.592374 135.272019 141.929525 134.694 142.238482 
L 135.079555 142.959804 
C 135.681184 142.638227 136.266662 142.287305 136.833874 141.908306 
C 137.401086 141.529307 137.949348 141.122688 138.476681 140.689917 
z
" clip-path="url(#p517c2ff390)" style="fill: #ff8c8e"/>
   </g>
   <g id="patch_81">
    <path d="M 125.898482 125.783225 
C 125.859068 125.804292 125.818643 125.823412 125.777354 125.840514 
C 125.736065 125.857617 125.693961 125.872682 125.651194 125.885655 
L 128.614651 135.654862 
C 128.977178 135.544891 129.334088 135.417186 129.684091 135.27221 
C 130.034093 135.127234 130.376767 134.965162 130.710874 134.786578 
z
" clip-path="url(#p517c2ff390)" style="fill: #ff8c8e"/>
   </g>
   <g id="patch_82">
    <path d="M 125.254844 124.579063 
C 125.254844 124.579063 125.254844 124.579063 125.254844 124.579063 
C 125.254844 124.579063 125.254844 124.579063 125.254844 124.579063 
L 125.619606 128.282556 
C 125.740827 128.270617 125.861389 128.252733 125.980855 128.22897 
C 126.100322 128.205206 126.218551 128.175592 126.335113 128.140233 
z
" clip-path="url(#p517c2ff390)" style="fill: #ff8c8e"/>
   </g>
   <g id="patch_83">
    <path d="M 125.254844 124.579063 
C 125.254844 124.579063 125.254844 124.579063 125.254844 124.579063 
C 125.254844 124.579063 125.254844 124.579063 125.254844 124.579063 
L 124.897165 128.210637 
C 125.016032 128.222344 125.135402 128.228208 125.254844 128.228208 
C 125.374286 128.228208 125.493656 128.222344 125.612523 128.210637 
z
" clip-path="url(#p517c2ff390)" style="fill: #ff8c8e"/>
   </g>
   <g id="patch_84">
    <path d="M 125.254844 124.579063 
C 125.254844 124.579063 125.254844 124.579063 125.254844 124.579063 
C 125.254844 124.579063 125.254844 124.579063 125.254844 124.579063 
L 117.350516 150.63614 
C 118.203403 150.894861 119.068478 151.111551 119.942617 151.285428 
C 120.816757 151.459305 121.698906 151.59016 122.585879 151.677519 
z
" clip-path="url(#p517c2ff390)" style="fill: #ff8c8e"/>
   </g>
   <g id="patch_85">
    <path d="M 125.254844 124.579063 
C 125.254844 124.579063 125.254844 124.579063 125.254844 124.579063 
C 125.254844 124.579063 125.254844 124.579063 125.254844 124.579063 
L 122.275378 130.153251 
C 122.457829 130.250774 122.644959 130.339279 122.836091 130.418449 
C 123.027223 130.497618 123.222126 130.567356 123.420098 130.62741 
z
" clip-path="url(#p517c2ff390)" style="fill: #ff8c8e"/>
   </g>
   <g id="patch_86">
    <path d="M 125.254844 124.579063 
C 125.254844 124.579063 125.254844 124.579063 125.254844 124.579063 
C 125.254844 124.579063 125.254844 124.579063 125.254844 124.579063 
L 117.890398 133.552666 
C 118.184117 133.793715 118.489495 134.020198 118.805427 134.231297 
C 119.121359 134.442396 119.447465 134.637857 119.782567 134.816972 
z
" clip-path="url(#p517c2ff390)" style="fill: #ff8c8e"/>
   </g>
   <g id="patch_87">
    <path d="M 123.35994 126.88801 
C 123.284364 126.825987 123.21188 126.76029 123.142748 126.691158 
C 123.073616 126.622026 123.00792 126.549542 122.945897 126.473967 
L 121.305685 127.820054 
C 121.411767 127.949316 121.524132 128.073291 121.642374 128.191533 
C 121.760615 128.309774 121.884591 128.422139 122.013853 128.528222 
z
" clip-path="url(#p517c2ff390)" style="fill: #ff8c8e"/>
   </g>
   <g id="patch_88">
    <path d="M 125.254844 124.579063 
C 125.254844 124.579063 125.254844 124.579063 125.254844 124.579063 
C 125.254844 124.579063 125.254844 124.579063 125.254844 124.579063 
L 110.201093 132.62546 
C 110.464464 133.118192 110.751867 133.597696 111.062266 134.06224 
C 111.372664 134.526784 111.705684 134.975809 112.060121 135.407692 
z
" clip-path="url(#p517c2ff390)" style="fill: #ff8c8e"/>
   </g>
   <g id="patch_89">
    <path d="M 120.703538 127.011786 
C 120.623911 126.862815 120.551646 126.710025 120.487005 126.553966 
C 120.422363 126.397908 120.365423 126.238769 120.316389 126.077126 
L 83.32739 137.297616 
C 83.743687 138.669965 84.227112 140.021047 84.775919 141.345982 
C 85.324725 142.670918 85.938251 143.96811 86.614281 145.232873 
z
" clip-path="url(#p517c2ff390)" style="fill: #ff8c8e"/>
   </g>
   <g id="patch_90">
    <path d="M 125.254844 124.579063 
C 125.254844 124.579063 125.254844 124.579063 125.254844 124.579063 
C 125.254844 124.579063 125.254844 124.579063 125.254844 124.579063 
L 75.372557 129.492039 
C 75.533366 131.124761 75.77424 132.748603 76.094309 134.357701 
C 76.414379 135.966798 76.813258 137.559212 77.289505 139.129189 
z
" clip-path="url(#p517c2ff390)" style="fill: #ff8c8e"/>
   </g>
   <g id="patch_91">
    <path d="M 117.093895 125.382846 
C 117.067586 125.115726 117.054408 124.847475 117.054408 124.579063 
C 117.054408 124.31065 117.067586 124.042399 117.093895 123.775279 
L 73.310636 119.463005 
C 73.143179 121.163216 73.0593 122.870624 73.0593 124.579062 
C 73.0593 126.287501 73.143179 127.994909 73.310636 129.69512 
z
" clip-path="url(#p517c2ff390)" style="fill: #ff8c8e"/>
   </g>
   <g id="patch_92">
    <path d="M 108.608918 122.939582 
C 108.66258 122.394736 108.742961 121.852853 108.849769 121.31589 
C 108.956578 120.778928 109.089685 120.247533 109.248611 119.723625 
L 75.76916 109.567745 
C 75.277817 111.187485 74.866295 112.830372 74.536081 114.490473 
C 74.205866 116.150574 73.957357 117.825887 73.791451 119.510361 
z
" clip-path="url(#p517c2ff390)" style="fill: #ff8c8e"/>
   </g>
   <g id="patch_93">
    <path d="M 101.850527 117.479441 
C 102.082909 116.713383 102.352761 115.959195 102.65911 115.219603 
C 102.965459 114.480011 103.307936 113.755906 103.685302 113.049902 
L 68.474679 94.229432 
C 67.481291 96.087932 66.579748 97.994084 65.773307 99.941003 
C 64.966867 101.887923 64.256501 103.873263 63.644775 105.889853 
z
" clip-path="url(#p517c2ff390)" style="fill: #ff8c8e"/>
   </g>
   <g id="patch_94">
    <path d="M 101.096453 111.666134 
C 101.519112 110.875393 101.98034 110.105881 102.478471 109.360377 
C 102.976601 108.614872 103.511033 107.894273 104.079837 107.201184 
L 73.649109 82.227331 
C 72.262874 83.916463 70.960405 85.672638 69.746409 87.489512 
C 68.532413 89.306386 67.408352 91.181769 66.378286 93.108887 
z
" clip-path="url(#p517c2ff390)" style="fill: #ff8c8e"/>
   </g>
   <g id="patch_95">
    <path d="M 98.412475 102.5501 
C 99.133516 101.671509 99.897259 100.828849 100.700944 100.025163 
C 101.50463 99.221477 102.34729 98.457735 103.225881 97.736694 
L 76.14041 64.732952 
C 74.181557 66.340541 72.302814 68.043335 70.510965 69.835184 
C 68.719116 71.627032 67.016322 73.505776 65.408733 75.464629 
z
" clip-path="url(#p517c2ff390)" style="fill: #ff8c8e"/>
   </g>
   <g id="patch_96">
    <path d="M 98.583144 92.079502 
C 99.646903 91.206497 100.752883 90.386246 101.897089 89.621712 
C 103.041295 88.857178 104.222348 88.149282 105.435983 87.500581 
L 79.940506 39.8019 
C 77.165623 41.285106 74.465234 42.903657 71.849092 44.651707 
C 69.23295 46.399757 66.70421 48.275199 64.272005 50.271258 
z
" clip-path="url(#p517c2ff390)" style="fill: #ff8c8e"/>
   </g>
   <g id="patch_97">
    <path d="M 102.180488 81.409979 
C 103.593476 80.654721 105.042694 79.969292 106.522907 79.356168 
C 108.00312 78.743043 109.512544 78.202963 111.045726 77.737877 
L 98.078297 34.989993 
C 95.145913 35.879522 92.258969 36.912486 89.427895 38.085156 
C 86.59682 39.257826 83.825026 40.568786 81.122526 42.013303 
z
" clip-path="url(#p517c2ff390)" style="fill: #ff8c8e"/>
   </g>
   <g id="patch_98">
    <path d="M 116.913977 97.082909 
C 117.813967 96.8099 118.726819 96.581243 119.649235 96.397763 
C 120.571651 96.214283 121.502519 96.076202 122.438478 95.984018 
L 118.474494 55.73702 
C 116.221192 55.958951 113.980143 56.291379 111.759444 56.733104 
C 109.538744 57.174829 107.34107 57.725317 105.174361 58.382581 
z
" clip-path="url(#p517c2ff390)" style="fill: #ff8c8e"/>
   </g>
   <g id="patch_99">
    <path d="M 117.003463 40.80139 
C 119.745632 40.53131 122.499407 40.396025 125.254844 40.396025 
C 128.01028 40.396025 130.764056 40.53131 133.506224 40.80139 
L 134.833694 27.323359 
C 131.65037 27.009829 128.453571 26.85278 125.254844 26.85278 
C 122.056117 26.85278 118.859317 27.009829 115.675993 27.323359 
z
" clip-path="url(#p517c2ff390)" style="fill: #828282"/>
   </g>
   <g id="patch_100">
    <path d="M 130.759613 68.688202 
C 132.589004 68.868381 134.408447 69.13827 136.211368 69.496893 
C 138.01429 69.855517 139.798518 70.302442 141.557607 70.836056 
L 143.201312 65.417486 
C 141.264865 64.830071 139.300745 64.338085 137.316046 63.943304 
C 135.331347 63.548522 133.328462 63.251422 131.314624 63.053077 
z
" clip-path="url(#p517c2ff390)" style="fill: #828282"/>
   </g>
   <g id="patch_101">
    <path d="M 144.230057 62.026166 
C 146.277507 62.647253 148.293229 63.36849 150.269943 64.187272 
C 152.246656 65.006053 154.181978 65.921393 156.068919 66.929983 
L 158.248983 62.85137 
C 156.228543 61.771423 154.156299 60.791324 152.039735 59.914615 
C 149.923171 59.037905 147.764839 58.265642 145.572534 57.600613 
z
" clip-path="url(#p517c2ff390)" style="fill: #828282"/>
   </g>
   <g id="patch_102">
    <path d="M 154.152592 70.515179 
C 155.922183 71.461045 157.644269 72.493224 159.312628 73.607986 
C 160.980988 74.722748 162.59361 75.91875 164.14467 77.191672 
L 170.007929 70.047271 
C 168.223022 68.582436 166.367271 67.206117 164.44738 65.923287 
C 162.527489 64.640457 160.545771 63.452661 158.509386 62.36419 
z
" clip-path="url(#p517c2ff390)" style="fill: #828282"/>
   </g>
   <g id="patch_103">
    <path d="M 156.169329 86.909653 
C 157.402305 87.92153 158.584858 88.993334 159.712715 90.121191 
C 160.840573 91.249049 161.912376 92.431601 162.924253 93.664577 
L 163.239783 93.405629 
C 162.21943 92.162325 161.138649 90.969867 160.001344 89.832562 
C 158.864039 88.695257 157.671582 87.614476 156.428278 86.594123 
z
" clip-path="url(#p517c2ff390)" style="fill: #828282"/>
   </g>
   <g id="patch_104">
    <path d="M 152.474007 102.240872 
C 153.20517 103.131796 153.892149 104.058081 154.532465 105.016381 
C 155.172781 105.974682 155.765661 106.963842 156.308963 107.98029 
L 156.308963 107.98029 
C 155.765661 106.963842 155.172781 105.974682 154.532465 105.016381 
C 153.892149 104.058081 153.20517 103.131796 152.474007 102.240872 
z
" clip-path="url(#p517c2ff390)" style="fill: #828282"/>
   </g>
   <g id="patch_105">
    <path d="M 167.449648 102.02547 
C 168.187861 103.406568 168.857821 104.823079 169.457108 106.269885 
C 170.056394 107.716691 170.584286 109.192049 171.038875 110.690629 
L 171.891223 110.432072 
C 171.42817 108.905593 170.890452 107.40277 170.280008 105.929029 
C 169.669565 104.455288 168.987132 103.012406 168.235177 101.605596 
z
" clip-path="url(#p517c2ff390)" style="fill: #828282"/>
   </g>
   <g id="patch_106">
    <path d="M 177.433308 108.750898 
C 177.951387 110.458777 178.385302 112.191063 178.733486 113.941499 
C 179.081669 115.691935 179.343701 117.458411 179.518635 119.234546 
L 179.518635 119.234546 
C 179.343701 117.458411 179.081669 115.691935 178.733486 113.941499 
C 178.385302 112.191063 177.951387 110.458777 177.433308 108.750898 
z
" clip-path="url(#p517c2ff390)" style="fill: #828282"/>
   </g>
   <g id="patch_107">
    <path d="M 171.628214 120.011684 
C 171.777711 121.529554 171.852595 123.053849 171.852595 124.579063 
C 171.852595 126.104276 171.777711 127.628571 171.628214 129.146441 
L 171.628214 129.146441 
C 171.777711 127.628571 171.852595 126.104276 171.852595 124.579063 
C 171.852595 123.053849 171.777711 121.529554 171.628214 120.011684 
z
" clip-path="url(#p517c2ff390)" style="fill: #828282"/>
   </g>
   <g id="patch_108">
    <path d="M 157.775182 127.782036 
C 157.670344 128.846475 157.513308 129.905126 157.304641 130.954164 
C 157.095974 132.003201 156.835929 133.041362 156.525443 134.064895 
L 156.525443 134.064895 
C 156.835929 133.041362 157.095974 132.003201 157.304641 130.954164 
C 157.513308 129.905126 157.670344 128.846475 157.775182 127.782036 
z
" clip-path="url(#p517c2ff390)" style="fill: #828282"/>
   </g>
   <g id="patch_109">
    <path d="M 155.823441 133.851945 
C 155.519926 134.852501 155.167469 135.837552 154.767343 136.80354 
C 154.367218 137.769528 153.919906 138.715289 153.427024 139.637407 
L 153.427024 139.637407 
C 153.919906 138.715289 154.367218 137.769528 154.767343 136.80354 
C 155.167469 135.837552 155.519926 134.852501 155.823441 133.851945 
z
" clip-path="url(#p517c2ff390)" style="fill: #828282"/>
   </g>
   <g id="patch_110">
    <path d="M 159.124635 142.682843 
C 158.532072 143.791452 157.885435 144.8703 157.187062 145.915489 
C 156.488689 146.960678 155.739421 147.970949 154.941964 148.942653 
L 154.941964 148.942653 
C 155.739421 147.970949 156.488689 146.960678 157.187062 145.915489 
C 157.885435 144.8703 158.532072 143.791452 159.124635 142.682843 
z
" clip-path="url(#p517c2ff390)" style="fill: #828282"/>
   </g>
   <g id="patch_111">
    <path d="M 150.290387 145.125202 
C 149.617881 145.944652 148.905548 146.730591 148.15596 147.480179 
C 147.406372 148.229766 146.620434 148.9421 145.800983 149.614605 
L 145.800983 149.614605 
C 146.620434 148.9421 147.406372 148.229766 148.15596 147.480179 
C 148.905548 146.730591 149.617881 145.944652 150.290387 145.125202 
z
" clip-path="url(#p517c2ff390)" style="fill: #828282"/>
   </g>
   <g id="patch_112">
    <path d="M 138.476681 140.689917 
C 137.949348 141.122688 137.401086 141.529307 136.833874 141.908306 
C 136.266662 142.287305 135.681184 142.638227 135.079555 142.959804 
L 135.079555 142.959804 
C 135.681184 142.638227 136.266662 142.287305 136.833874 141.908306 
C 137.401086 141.529307 137.949348 141.122688 138.476681 140.689917 
z
" clip-path="url(#p517c2ff390)" style="fill: #828282"/>
   </g>
   <g id="patch_113">
    <path d="M 130.710874 134.786578 
C 130.376767 134.965162 130.034093 135.127234 129.684091 135.27221 
C 129.334088 135.417186 128.977178 135.544891 128.614651 135.654862 
L 128.614651 135.654862 
C 128.977178 135.544891 129.334088 135.417186 129.684091 135.27221 
C 130.034093 135.127234 130.376767 134.965162 130.710874 134.786578 
z
" clip-path="url(#p517c2ff390)" style="fill: #828282"/>
   </g>
   <g id="patch_114">
    <path d="M 126.335113 128.140233 
C 126.218551 128.175592 126.100322 128.205206 125.980855 128.22897 
C 125.861389 128.252733 125.740827 128.270617 125.619606 128.282556 
L 125.619606 128.282556 
C 125.740827 128.270617 125.861389 128.252733 125.980855 128.22897 
C 126.100322 128.205206 126.218551 128.175592 126.335113 128.140233 
z
" clip-path="url(#p517c2ff390)" style="fill: #828282"/>
   </g>
   <g id="patch_115">
    <path d="M 125.612523 128.210637 
C 125.493656 128.222344 125.374286 128.228208 125.254844 128.228208 
C 125.135402 128.228208 125.016032 128.222344 124.897165 128.210637 
L 124.897165 128.210637 
C 125.016032 128.222344 125.135402 128.228208 125.254844 128.228208 
C 125.374286 128.228208 125.493656 128.222344 125.612523 128.210637 
z
" clip-path="url(#p517c2ff390)" style="fill: #828282"/>
   </g>
   <g id="patch_116">
    <path d="M 122.585879 151.677519 
C 121.698906 151.59016 120.816757 151.459305 119.942617 151.285428 
C 119.068478 151.111551 118.203403 150.894861 117.350516 150.63614 
L 117.350516 150.63614 
C 118.203403 150.894861 119.068478 151.111551 119.942617 151.285428 
C 120.816757 151.459305 121.698906 151.59016 122.585879 151.677519 
z
" clip-path="url(#p517c2ff390)" style="fill: #828282"/>
   </g>
   <g id="patch_117">
    <path d="M 123.420098 130.62741 
C 123.222126 130.567356 123.027223 130.497618 122.836091 130.418449 
C 122.644959 130.339279 122.457829 130.250774 122.275378 130.153251 
L 122.275378 130.153251 
C 122.457829 130.250774 122.644959 130.339279 122.836091 130.418449 
C 123.027223 130.497618 123.222126 130.567356 123.420098 130.62741 
z
" clip-path="url(#p517c2ff390)" style="fill: #828282"/>
   </g>
   <g id="patch_118">
    <path d="M 119.782567 134.816972 
C 119.447465 134.637857 119.121359 134.442396 118.805427 134.231297 
C 118.489495 134.020198 118.184117 133.793715 117.890398 133.552666 
L 117.289112 134.285334 
C 117.606813 134.546065 117.937124 134.79104 118.27885 135.019374 
C 118.620577 135.247709 118.973309 135.459128 119.335771 135.652868 
z
" clip-path="url(#p517c2ff390)" style="fill: #828282"/>
   </g>
   <g id="patch_119">
    <path d="M 122.013853 128.528222 
C 121.884591 128.422139 121.760615 128.309774 121.642374 128.191533 
C 121.524132 128.073291 121.411767 127.949316 121.305685 127.820054 
L 92.505286 151.45593 
C 93.385006 152.527872 94.316825 153.555976 95.297378 154.536529 
C 96.27793 155.517081 97.306034 156.4489 98.377976 157.32862 
z
" clip-path="url(#p517c2ff390)" style="fill: #828282"/>
   </g>
   <g id="patch_120">
    <path d="M 112.060121 135.407692 
C 111.705684 134.975809 111.372664 134.526784 111.062266 134.06224 
C 110.751867 133.597696 110.464464 133.118192 110.201093 132.62546 
L 107.507667 134.065126 
C 107.81816 134.646017 108.156987 135.211315 108.522922 135.758975 
C 108.888857 136.306636 109.28146 136.836 109.699314 137.345156 
z
" clip-path="url(#p517c2ff390)" style="fill: #828282"/>
   </g>
   <g id="patch_121">
    <path d="M 86.614281 145.232873 
C 85.938251 143.96811 85.324725 142.670918 84.775919 141.345982 
C 84.227112 140.021047 83.743687 138.669965 83.32739 137.297616 
L 82.733915 137.477645 
C 83.156105 138.869419 83.646372 140.239625 84.202947 141.583315 
C 84.759521 142.927005 85.381732 144.242559 86.067331 145.525224 
z
" clip-path="url(#p517c2ff390)" style="fill: #828282"/>
   </g>
   <g id="patch_122">
    <path d="M 77.289505 139.129189 
C 76.813258 137.559212 76.414379 135.966798 76.094309 134.357701 
C 75.77424 132.748603 75.533366 131.124761 75.372557 129.492039 
L 73.982725 129.628925 
C 74.148014 131.307138 74.3956 132.976225 74.724587 134.630155 
C 75.053574 136.284086 75.463567 137.920868 75.953083 139.534588 
z
" clip-path="url(#p517c2ff390)" style="fill: #828282"/>
   </g>
   <g id="patch_123">
    <path d="M 73.310636 129.69512 
C 73.143179 127.994909 73.0593 126.287501 73.0593 124.579062 
C 73.0593 122.870624 73.143179 121.163216 73.310636 119.463005 
L 62.288121 118.377382 
C 62.085131 120.438376 61.983452 122.508095 61.983452 124.579062 
C 61.983452 126.65003 62.085131 128.719749 62.288121 130.780743 
z
" clip-path="url(#p517c2ff390)" style="fill: #828282"/>
   </g>
   <g id="patch_124">
    <path d="M 73.791451 119.510361 
C 73.957357 117.825887 74.205866 116.150574 74.536081 114.490473 
C 74.866295 112.830372 75.277817 111.187485 75.76916 109.567745 
L 60.699775 104.996496 
C 60.058808 107.10948 59.521969 109.25266 59.091198 111.418295 
C 58.660426 113.58393 58.336241 115.769409 58.119813 117.966839 
z
" clip-path="url(#p517c2ff390)" style="fill: #828282"/>
   </g>
   <g id="patch_125">
    <path d="M 63.644775 105.889853 
C 64.256501 103.873263 64.966867 101.887923 65.773307 99.941003 
C 66.579748 97.994084 67.481291 96.087932 68.474679 94.229432 
L 49.588781 84.13471 
C 48.264977 86.611373 47.063568 89.151538 45.988894 91.746031 
C 44.91422 94.340524 43.967576 96.986217 43.152382 99.673553 
z
" clip-path="url(#p517c2ff390)" style="fill: #828282"/>
   </g>
   <g id="patch_126">
    <path d="M 66.378286 93.108887 
C 67.408352 91.181769 68.532413 89.306386 69.746409 87.489512 
C 70.960405 85.672638 72.262874 83.916463 73.649109 82.227331 
L 57.947501 69.341354 
C 56.139488 71.544424 54.44073 73.834934 52.857362 76.204612 
C 51.273994 78.57429 49.807925 81.020278 48.46445 83.533742 
z
" clip-path="url(#p517c2ff390)" style="fill: #828282"/>
   </g>
   <g id="patch_127">
    <path d="M 65.408733 75.464629 
C 67.016322 73.505776 68.719116 71.627032 70.510965 69.835184 
C 72.302814 68.043335 74.181557 66.340541 76.14041 64.732952 
L 65.514101 51.784756 
C 63.131434 53.74016 60.846209 55.811368 58.666679 57.990898 
C 56.487149 60.170428 54.415941 62.455653 52.460538 64.838319 
z
" clip-path="url(#p517c2ff390)" style="fill: #828282"/>
   </g>
   <g id="patch_128">
    <path d="M 64.272005 50.271258 
C 66.70421 48.275199 69.23295 46.399757 71.849092 44.651707 
C 74.465234 42.903657 77.165623 41.285106 79.940506 39.8019 
L 72.986371 26.791627 
C 69.785642 28.502452 66.670839 30.369393 63.653213 32.385707 
C 60.635587 34.40202 57.718775 36.565275 54.913312 38.867658 
z
" clip-path="url(#p517c2ff390)" style="fill: #828282"/>
   </g>
   <g id="patch_129">
    <path d="M 81.122526 42.013303 
C 83.825026 40.568786 86.59682 39.257826 89.427895 38.085156 
C 92.258969 36.912486 95.145913 35.879522 98.078297 34.989993 
L 93.360504 19.437515 
C 89.919064 20.481465 86.530954 21.69375 83.20841 23.069993 
C 79.885867 24.446235 76.632896 25.984776 73.461247 27.680058 
z
" clip-path="url(#p517c2ff390)" style="fill: #828282"/>
   </g>
   <g id="patch_130">
    <path d="M 105.174361 58.382581 
C 107.34107 57.725317 109.538744 57.174829 111.759444 56.733104 
C 113.980143 56.291379 116.221192 55.958951 118.474494 55.73702 
L 116.972358 40.485571 
C 114.219852 40.756669 111.482316 41.162744 108.769637 41.702329 
C 106.056957 42.241915 103.372405 42.91436 100.725677 43.717236 
z
" clip-path="url(#p517c2ff390)" style="fill: #828282"/>
   </g>
   <g id="patch_131">
    <path d="M 125.254844 124.579063 
C 125.254844 124.579063 125.254844 124.579063 125.254844 124.579063 
C 125.254844 124.579063 125.254844 124.579063 125.254844 124.579063 
L 134.833694 27.323359 
C 131.65037 27.009829 128.453571 26.85278 125.254844 26.85278 
C 122.056117 26.85278 118.859317 27.009829 115.675993 27.323359 
L 125.254844 124.579063 
z
" clip-path="url(#p517c2ff390)" style="fill: none; stroke: #292929; stroke-width: 0.5; stroke-linejoin: miter"/>
   </g>
   <g id="patch_132">
    <path d="M 125.254844 124.579063 
C 125.254844 124.579063 125.254844 124.579063 125.254844 124.579063 
C 125.254844 124.579063 125.254844 124.579063 125.254844 124.579063 
L 143.201312 65.417486 
C 141.264865 64.830071 139.300745 64.338085 137.316046 63.943304 
C 135.331347 63.548522 133.328462 63.251422 131.314624 63.053077 
L 125.254844 124.579063 
z
" clip-path="url(#p517c2ff390)" style="fill: none; stroke: #292929; stroke-width: 0.5; stroke-linejoin: miter"/>
   </g>
   <g id="patch_133">
    <path d="M 125.254844 124.579063 
C 125.254844 124.579063 125.254844 124.579063 125.254844 124.579063 
C 125.254844 124.579063 125.254844 124.579063 125.254844 124.579063 
L 158.248983 62.85137 
C 156.228543 61.771423 154.156299 60.791324 152.039735 59.914615 
C 149.923171 59.037905 147.764839 58.265642 145.572534 57.600613 
L 125.254844 124.579063 
z
" clip-path="url(#p517c2ff390)" style="fill: none; stroke: #292929; stroke-width: 0.5; stroke-linejoin: miter"/>
   </g>
   <g id="patch_134">
    <path d="M 125.254844 124.579063 
C 125.254844 124.579063 125.254844 124.579063 125.254844 124.579063 
C 125.254844 124.579063 125.254844 124.579063 125.254844 124.579063 
L 170.007929 70.047271 
C 168.223022 68.582436 166.367271 67.206117 164.44738 65.923287 
C 162.527489 64.640457 160.545771 63.452661 158.509386 62.36419 
L 125.254844 124.579063 
z
" clip-path="url(#p517c2ff390)" style="fill: none; stroke: #292929; stroke-width: 0.5; stroke-linejoin: miter"/>
   </g>
   <g id="patch_135">
    <path d="M 125.254844 124.579063 
C 125.254844 124.579063 125.254844 124.579063 125.254844 124.579063 
C 125.254844 124.579063 125.254844 124.579063 125.254844 124.579063 
L 163.239783 93.405629 
C 162.21943 92.162325 161.138649 90.969867 160.001344 89.832562 
C 158.864039 88.695257 157.671582 87.614476 156.428278 86.594123 
L 125.254844 124.579063 
z
" clip-path="url(#p517c2ff390)" style="fill: none; stroke: #292929; stroke-width: 0.5; stroke-linejoin: miter"/>
   </g>
   <g id="patch_136">
    <path d="M 125.254844 124.579063 
C 125.254844 124.579063 125.254844 124.579063 125.254844 124.579063 
C 125.254844 124.579063 125.254844 124.579063 125.254844 124.579063 
L 156.308963 107.98029 
C 155.765661 106.963842 155.172781 105.974682 154.532465 105.016381 
C 153.892149 104.058081 153.20517 103.131796 152.474007 102.240872 
L 125.254844 124.579063 
z
" clip-path="url(#p517c2ff390)" style="fill: none; stroke: #292929; stroke-width: 0.5; stroke-linejoin: miter"/>
   </g>
   <g id="patch_137">
    <path d="M 125.254844 124.579063 
C 125.254844 124.579063 125.254844 124.579063 125.254844 124.579063 
C 125.254844 124.579063 125.254844 124.579063 125.254844 124.579063 
L 171.891223 110.432072 
C 171.42817 108.905593 170.890452 107.40277 170.280008 105.929029 
C 169.669565 104.455288 168.987132 103.012406 168.235177 101.605596 
L 125.254844 124.579063 
z
" clip-path="url(#p517c2ff390)" style="fill: none; stroke: #292929; stroke-width: 0.5; stroke-linejoin: miter"/>
   </g>
   <g id="patch_138">
    <path d="M 125.254844 124.579063 
C 125.254844 124.579063 125.254844 124.579063 125.254844 124.579063 
C 125.254844 124.579063 125.254844 124.579063 125.254844 124.579063 
L 179.518635 119.234546 
C 179.343701 117.458411 179.081669 115.691935 178.733486 113.941499 
C 178.385302 112.191063 177.951387 110.458777 177.433308 108.750898 
L 125.254844 124.579063 
z
" clip-path="url(#p517c2ff390)" style="fill: none; stroke: #292929; stroke-width: 0.5; stroke-linejoin: miter"/>
   </g>
   <g id="patch_139">
    <path d="M 125.254844 124.579063 
C 125.254844 124.579063 125.254844 124.579063 125.254844 124.579063 
C 125.254844 124.579063 125.254844 124.579063 125.254844 124.579063 
L 171.628214 129.146441 
C 171.777711 127.628571 171.852595 126.104276 171.852595 124.579063 
C 171.852595 123.053849 171.777711 121.529554 171.628214 120.011684 
L 125.254844 124.579063 
z
" clip-path="url(#p517c2ff390)" style="fill: none; stroke: #292929; stroke-width: 0.5; stroke-linejoin: miter"/>
   </g>
   <g id="patch_140">
    <path d="M 125.254844 124.579063 
C 125.254844 124.579063 125.254844 124.579063 125.254844 124.579063 
C 125.254844 124.579063 125.254844 124.579063 125.254844 124.579063 
L 156.525443 134.064895 
C 156.835929 133.041362 157.095974 132.003201 157.304641 130.954164 
C 157.513308 129.905126 157.670344 128.846475 157.775182 127.782036 
L 125.254844 124.579063 
z
" clip-path="url(#p517c2ff390)" style="fill: none; stroke: #292929; stroke-width: 0.5; stroke-linejoin: miter"/>
   </g>
   <g id="patch_141">
    <path d="M 125.254844 124.579063 
C 125.254844 124.579063 125.254844 124.579063 125.254844 124.579063 
C 125.254844 124.579063 125.254844 124.579063 125.254844 124.579063 
L 153.427024 139.637407 
C 153.919906 138.715289 154.367218 137.769528 154.767343 136.80354 
C 155.167469 135.837552 155.519926 134.852501 155.823441 133.851945 
L 125.254844 124.579063 
z
" clip-path="url(#p517c2ff390)" style="fill: none; stroke: #292929; stroke-width: 0.5; stroke-linejoin: miter"/>
   </g>
   <g id="patch_142">
    <path d="M 125.254844 124.579063 
C 125.254844 124.579063 125.254844 124.579063 125.254844 124.579063 
C 125.254844 124.579063 125.254844 124.579063 125.254844 124.579063 
L 154.941964 148.942653 
C 155.739421 147.970949 156.488689 146.960678 157.187062 145.915489 
C 157.885435 144.8703 158.532072 143.791452 159.124635 142.682843 
L 125.254844 124.579063 
z
" clip-path="url(#p517c2ff390)" style="fill: none; stroke: #292929; stroke-width: 0.5; stroke-linejoin: miter"/>
   </g>
   <g id="patch_143">
    <path d="M 125.254844 124.579063 
C 125.254844 124.579063 125.254844 124.579063 125.254844 124.579063 
C 125.254844 124.579063 125.254844 124.579063 125.254844 124.579063 
L 145.800983 149.614605 
C 146.620434 148.9421 147.406372 148.229766 148.15596 147.480179 
C 148.905548 146.730591 149.617881 145.944652 150.290387 145.125202 
L 125.254844 124.579063 
z
" clip-path="url(#p517c2ff390)" style="fill: none; stroke: #292929; stroke-width: 0.5; stroke-linejoin: miter"/>
   </g>
   <g id="patch_144">
    <path d="M 125.254844 124.579063 
C 125.254844 124.579063 125.254844 124.579063 125.254844 124.579063 
C 125.254844 124.579063 125.254844 124.579063 125.254844 124.579063 
L 135.079555 142.959804 
C 135.681184 142.638227 136.266662 142.287305 136.833874 141.908306 
C 137.401086 141.529307 137.949348 141.122688 138.476681 140.689917 
L 125.254844 124.579063 
z
" clip-path="url(#p517c2ff390)" style="fill: none; stroke: #292929; stroke-width: 0.5; stroke-linejoin: miter"/>
   </g>
   <g id="patch_145">
    <path d="M 125.254844 124.579063 
C 125.254844 124.579063 125.254844 124.579063 125.254844 124.579063 
C 125.254844 124.579063 125.254844 124.579063 125.254844 124.579063 
L 128.614651 135.654862 
C 128.977178 135.544891 129.334088 135.417186 129.684091 135.27221 
C 130.034093 135.127234 130.376767 134.965162 130.710874 134.786578 
L 125.254844 124.579063 
z
" clip-path="url(#p517c2ff390)" style="fill: none; stroke: #292929; stroke-width: 0.5; stroke-linejoin: miter"/>
   </g>
   <g id="patch_146">
    <path d="M 125.254844 124.579063 
C 125.254844 124.579063 125.254844 124.579063 125.254844 124.579063 
C 125.254844 124.579063 125.254844 124.579063 125.254844 124.579063 
L 125.619606 128.282556 
C 125.740827 128.270617 125.861389 128.252733 125.980855 128.22897 
C 126.100322 128.205206 126.218551 128.175592 126.335113 128.140233 
L 125.254844 124.579063 
z
" clip-path="url(#p517c2ff390)" style="fill: none; stroke: #292929; stroke-width: 0.5; stroke-linejoin: miter"/>
   </g>
   <g id="patch_147">
    <path d="M 125.254844 124.579063 
C 125.254844 124.579063 125.254844 124.579063 125.254844 124.579063 
C 125.254844 124.579063 125.254844 124.579063 125.254844 124.579063 
L 124.897165 128.210637 
C 125.016032 128.222344 125.135402 128.228208 125.254844 128.228208 
C 125.374286 128.228208 125.493656 128.222344 125.612523 128.210637 
L 125.254844 124.579063 
z
" clip-path="url(#p517c2ff390)" style="fill: none; stroke: #292929; stroke-width: 0.5; stroke-linejoin: miter"/>
   </g>
   <g id="patch_148">
    <path d="M 125.254844 124.579063 
C 125.254844 124.579063 125.254844 124.579063 125.254844 124.579063 
C 125.254844 124.579063 125.254844 124.579063 125.254844 124.579063 
L 117.350516 150.63614 
C 118.203403 150.894861 119.068478 151.111551 119.942617 151.285428 
C 120.816757 151.459305 121.698906 151.59016 122.585879 151.677519 
L 125.254844 124.579063 
z
" clip-path="url(#p517c2ff390)" style="fill: none; stroke: #292929; stroke-width: 0.5; stroke-linejoin: miter"/>
   </g>
   <g id="patch_149">
    <path d="M 125.254844 124.579063 
C 125.254844 124.579063 125.254844 124.579063 125.254844 124.579063 
C 125.254844 124.579063 125.254844 124.579063 125.254844 124.579063 
L 122.275378 130.153251 
C 122.457829 130.250774 122.644959 130.339279 122.836091 130.418449 
C 123.027223 130.497618 123.222126 130.567356 123.420098 130.62741 
L 125.254844 124.579063 
z
" clip-path="url(#p517c2ff390)" style="fill: none; stroke: #292929; stroke-width: 0.5; stroke-linejoin: miter"/>
   </g>
   <g id="patch_150">
    <path d="M 125.254844 124.579063 
C 125.254844 124.579063 125.254844 124.579063 125.254844 124.579063 
C 125.254844 124.579063 125.254844 124.579063 125.254844 124.579063 
L 117.289112 134.285334 
C 117.606813 134.546065 117.937124 134.79104 118.27885 135.019374 
C 118.620577 135.247709 118.973309 135.459128 119.335771 135.652868 
L 125.254844 124.579063 
z
" clip-path="url(#p517c2ff390)" style="fill: none; stroke: #292929; stroke-width: 0.5; stroke-linejoin: miter"/>
   </g>
   <g id="patch_151">
    <path d="M 125.254844 124.579063 
C 125.254844 124.579063 125.254844 124.579063 125.254844 124.579063 
C 125.254844 124.579063 125.254844 124.579063 125.254844 124.579063 
L 92.505286 151.45593 
C 93.385006 152.527872 94.316825 153.555976 95.297378 154.536529 
C 96.27793 155.517081 97.306034 156.4489 98.377976 157.32862 
L 125.254844 124.579063 
z
" clip-path="url(#p517c2ff390)" style="fill: none; stroke: #292929; stroke-width: 0.5; stroke-linejoin: miter"/>
   </g>
   <g id="patch_152">
    <path d="M 125.254844 124.579063 
C 125.254844 124.579063 125.254844 124.579063 125.254844 124.579063 
C 125.254844 124.579063 125.254844 124.579063 125.254844 124.579063 
L 107.507667 134.065126 
C 107.81816 134.646017 108.156987 135.211315 108.522922 135.758975 
C 108.888857 136.306636 109.28146 136.836 109.699314 137.345156 
L 125.254844 124.579063 
z
" clip-path="url(#p517c2ff390)" style="fill: none; stroke: #292929; stroke-width: 0.5; stroke-linejoin: miter"/>
   </g>
   <g id="patch_153">
    <path d="M 125.254844 124.579063 
C 125.254844 124.579063 125.254844 124.579063 125.254844 124.579063 
C 125.254844 124.579063 125.254844 124.579063 125.254844 124.579063 
L 82.733915 137.477645 
C 83.156105 138.869419 83.646372 140.239625 84.202947 141.583315 
C 84.759521 142.927005 85.381732 144.242559 86.067331 145.525224 
L 125.254844 124.579063 
z
" clip-path="url(#p517c2ff390)" style="fill: none; stroke: #292929; stroke-width: 0.5; stroke-linejoin: miter"/>
   </g>
   <g id="patch_154">
    <path d="M 125.254844 124.579063 
C 125.254844 124.579063 125.254844 124.579063 125.254844 124.579063 
C 125.254844 124.579063 125.254844 124.579063 125.254844 124.579063 
L 73.982725 129.628925 
C 74.148014 131.307138 74.3956 132.976225 74.724587 134.630155 
C 75.053574 136.284086 75.463567 137.920868 75.953083 139.534588 
L 125.254844 124.579063 
z
" clip-path="url(#p517c2ff390)" style="fill: none; stroke: #292929; stroke-width: 0.5; stroke-linejoin: miter"/>
   </g>
   <g id="patch_155">
    <path d="M 125.254844 124.579063 
C 125.254844 124.579063 125.254844 124.579063 125.254844 124.579063 
C 125.254844 124.579063 125.254844 124.579063 125.254844 124.579063 
L 62.288121 118.377382 
C 62.085131 120.438376 61.983452 122.508095 61.983452 124.579062 
C 61.983452 126.65003 62.085131 128.719749 62.288121 130.780743 
L 125.254844 124.579063 
z
" clip-path="url(#p517c2ff390)" style="fill: none; stroke: #292929; stroke-width: 0.5; stroke-linejoin: miter"/>
   </g>
   <g id="patch_156">
    <path d="M 125.254844 124.579063 
C 125.254844 124.579063 125.254844 124.579063 125.254844 124.579063 
C 125.254844 124.579063 125.254844 124.579063 125.254844 124.579063 
L 60.699775 104.996496 
C 60.058808 107.10948 59.521969 109.25266 59.091198 111.418295 
C 58.660426 113.58393 58.336241 115.769409 58.119813 117.966839 
L 125.254844 124.579063 
z
" clip-path="url(#p517c2ff390)" style="fill: none; stroke: #292929; stroke-width: 0.5; stroke-linejoin: miter"/>
   </g>
   <g id="patch_157">
    <path d="M 125.254844 124.579063 
C 125.254844 124.579063 125.254844 124.579063 125.254844 124.579063 
C 125.254844 124.579063 125.254844 124.579063 125.254844 124.579063 
L 49.588781 84.13471 
C 48.264977 86.611373 47.063568 89.151538 45.988894 91.746031 
C 44.91422 94.340524 43.967576 96.986217 43.152382 99.673553 
L 125.254844 124.579063 
z
" clip-path="url(#p517c2ff390)" style="fill: none; stroke: #292929; stroke-width: 0.5; stroke-linejoin: miter"/>
   </g>
   <g id="patch_158">
    <path d="M 125.254844 124.579063 
C 125.254844 124.579063 125.254844 124.579063 125.254844 124.579063 
C 125.254844 124.579063 125.254844 124.579063 125.254844 124.579063 
L 57.947501 69.341354 
C 56.139488 71.544424 54.44073 73.834934 52.857362 76.204612 
C 51.273994 78.57429 49.807925 81.020278 48.46445 83.533742 
L 125.254844 124.579063 
z
" clip-path="url(#p517c2ff390)" style="fill: none; stroke: #292929; stroke-width: 0.5; stroke-linejoin: miter"/>
   </g>
   <g id="patch_159">
    <path d="M 125.254844 124.579063 
C 125.254844 124.579063 125.254844 124.579063 125.254844 124.579063 
C 125.254844 124.579063 125.254844 124.579063 125.254844 124.579063 
L 65.514101 51.784756 
C 63.131434 53.74016 60.846209 55.811368 58.666679 57.990898 
C 56.487149 60.170428 54.415941 62.455653 52.460538 64.838319 
L 125.254844 124.579063 
z
" clip-path="url(#p517c2ff390)" style="fill: none; stroke: #292929; stroke-width: 0.5; stroke-linejoin: miter"/>
   </g>
   <g id="patch_160">
    <path d="M 125.254844 124.579063 
C 125.254844 124.579063 125.254844 124.579063 125.254844 124.579063 
C 125.254844 124.579063 125.254844 124.579063 125.254844 124.579063 
L 72.986371 26.791627 
C 69.785642 28.502452 66.670839 30.369393 63.653213 32.385707 
C 60.635587 34.40202 57.718775 36.565275 54.913312 38.867658 
L 125.254844 124.579063 
z
" clip-path="url(#p517c2ff390)" style="fill: none; stroke: #292929; stroke-width: 0.5; stroke-linejoin: miter"/>
   </g>
   <g id="patch_161">
    <path d="M 125.254844 124.579063 
C 125.254844 124.579063 125.254844 124.579063 125.254844 124.579063 
C 125.254844 124.579063 125.254844 124.579063 125.254844 124.579063 
L 93.360504 19.437515 
C 89.919064 20.481465 86.530954 21.69375 83.20841 23.069993 
C 79.885867 24.446235 76.632896 25.984776 73.461247 27.680058 
L 125.254844 124.579063 
z
" clip-path="url(#p517c2ff390)" style="fill: none; stroke: #292929; stroke-width: 0.5; stroke-linejoin: miter"/>
   </g>
   <g id="patch_162">
    <path d="M 125.254844 124.579063 
C 125.254844 124.579063 125.254844 124.579063 125.254844 124.579063 
C 125.254844 124.579063 125.254844 124.579063 125.254844 124.579063 
L 116.972358 40.485571 
C 114.219852 40.756669 111.482316 41.162744 108.769637 41.702329 
C 106.056957 42.241915 103.372405 42.91436 100.725677 43.717236 
L 125.254844 124.579063 
z
" clip-path="url(#p517c2ff390)" style="fill: none; stroke: #292929; stroke-width: 0.5; stroke-linejoin: miter"/>
   </g>
   <g id="PathCollection_1">
    <defs>
     <path id="m106ec5fafb" d="M 0.193618 7.414054 
L 0.193618 7.414054 
C 0.054922 7.414054 -0.078235 7.358899 -0.176308 7.260826 
C -0.274381 7.162753 -0.329536 7.029596 -0.329536 6.890901 
L -0.329536 5.365008 
L -1.528416 6.56393 
L -1.528416 6.56393 
C -1.577018 6.612704 -1.634775 6.651408 -1.698366 6.677814 
C -1.761958 6.704221 -1.830141 6.717815 -1.898997 6.717815 
C -1.967853 6.717815 -2.036037 6.704221 -2.099628 6.677814 
C -2.163219 6.651408 -2.220976 6.612704 -2.269578 6.56393 
L -2.269578 6.56393 
C -2.318353 6.515327 -2.357056 6.457571 -2.383463 6.393979 
C -2.409869 6.330388 -2.423463 6.262205 -2.423463 6.193348 
C -2.423463 6.124492 -2.409869 6.056309 -2.383463 5.992718 
C -2.357056 5.929126 -2.318353 5.87137 -2.269578 5.822767 
L -0.329536 3.884106 
L -0.329536 0.820937 
L -2.98067 2.351538 
L -3.691824 5.001416 
L -3.691824 5.001416 
C -3.727584 5.135411 -3.815199 5.249836 -3.93523 5.319305 
C -4.055261 5.388775 -4.198123 5.407741 -4.332122 5.371997 
L -4.332122 5.371997 
C -4.466126 5.336237 -4.580558 5.248616 -4.650029 5.128576 
C -4.719499 5.008535 -4.73846 4.865662 -4.702703 4.731657 
L -4.262647 3.092721 
L -5.585535 3.855668 
L -5.585535 3.855668 
C -5.645013 3.890144 -5.710708 3.912561 -5.778854 3.921634 
C -5.847001 3.930706 -5.916272 3.926258 -5.982698 3.908543 
C -6.049125 3.890828 -6.111412 3.860192 -6.165991 3.818391 
C -6.220571 3.77659 -6.266379 3.724437 -6.300791 3.664922 
L -6.300791 3.664922 
C -6.335212 3.605364 -6.35755 3.539597 -6.366524 3.471396 
C -6.375498 3.403194 -6.370933 3.333888 -6.35309 3.267452 
C -6.335248 3.201017 -6.304476 3.138749 -6.26254 3.08422 
C -6.220605 3.029692 -6.168323 2.983966 -6.108695 2.949666 
L -4.785807 2.186762 
L -6.424743 1.746706 
L -6.424743 1.746706 
C -6.558747 1.710946 -6.673179 1.623325 -6.74265 1.503284 
C -6.81212 1.383244 -6.831081 1.240371 -6.795324 1.106366 
L -6.795324 1.106366 
C -6.777471 1.039969 -6.746703 0.977739 -6.704784 0.923241 
C -6.662864 0.868744 -6.61061 0.823041 -6.551015 0.788752 
C -6.491421 0.754464 -6.425647 0.732257 -6.357465 0.723406 
C -6.289282 0.714554 -6.220019 0.71923 -6.153645 0.737166 
L -3.505232 1.44698 
L -0.852424 -0.08496 
L -3.503767 -1.615666 
L -6.153645 -0.905851 
L -6.153645 -0.905851 
C -6.22011 -0.887939 -6.289462 -0.883321 -6.357716 -0.892262 
C -6.42597 -0.901202 -6.491793 -0.923527 -6.551403 -0.957953 
C -6.611013 -0.992379 -6.663247 -1.038234 -6.705103 -1.092883 
C -6.746958 -1.147533 -6.777619 -1.209911 -6.795324 -1.276432 
L -6.795324 -1.276432 
C -6.831068 -1.410431 -6.812101 -1.553293 -6.742632 -1.673324 
C -6.673162 -1.793355 -6.558738 -1.88097 -6.424743 -1.91673 
L -4.785807 -2.355447 
L -6.108695 -3.119732 
L -6.108695 -3.119732 
C -6.228699 -3.188976 -6.316415 -3.303132 -6.352417 -3.436921 
C -6.388419 -3.57071 -6.369839 -3.713469 -6.300791 -3.833586 
L -6.300791 -3.833586 
C -6.266491 -3.893214 -6.220765 -3.945496 -6.166237 -3.987431 
C -6.111708 -4.029367 -6.04944 -4.060139 -5.983005 -4.077981 
C -5.91657 -4.095823 -5.847263 -4.100389 -5.779062 -4.091415 
C -5.71086 -4.082441 -5.645094 -4.060102 -5.585535 -4.025682 
L -4.262647 -3.261396 
L -4.702703 -4.900332 
L -4.702703 -4.900332 
C -4.73846 -5.034337 -4.719499 -5.17721 -4.650029 -5.29725 
C -4.580558 -5.417291 -4.466126 -5.504912 -4.332122 -5.540672 
L -4.332122 -5.540672 
C -4.19831 -5.576464 -4.055613 -5.557686 -3.935617 -5.488496 
C -3.81562 -5.419305 -3.727882 -5.305212 -3.691824 -5.171472 
L -2.982009 -2.521594 
L -0.329411 -0.990302 
L -0.329411 -4.051588 
L -2.269453 -5.991589 
L -2.269453 -5.991589 
C -2.318227 -6.040191 -2.356931 -6.097947 -2.383337 -6.161539 
C -2.409744 -6.22513 -2.423338 -6.293314 -2.423338 -6.36217 
C -2.423338 -6.431026 -2.409744 -6.499209 -2.383337 -6.5628 
C -2.356931 -6.626392 -2.318227 -6.684149 -2.269453 -6.732751 
L -2.269453 -6.732751 
C -2.22085 -6.781526 -2.163094 -6.820229 -2.099502 -6.846635 
C -2.035911 -6.873042 -1.967728 -6.886636 -1.898871 -6.886636 
C -1.830015 -6.886636 -1.761832 -6.873042 -1.698241 -6.846635 
C -1.634649 -6.820229 -1.576893 -6.781526 -1.52829 -6.732751 
L -0.329411 -5.533829 
L -0.329411 -7.059722 
L -0.329411 -7.059722 
C -0.329411 -7.198418 -0.274255 -7.331575 -0.176182 -7.429647 
C -0.07811 -7.52772 0.055047 -7.582875 0.193743 -7.582875 
L 0.193743 -7.582875 
C 0.332439 -7.582875 0.465596 -7.52772 0.563669 -7.429647 
C 0.661741 -7.331575 0.716897 -7.198418 0.716897 -7.059722 
L 0.716897 -5.533829 
L 1.915777 -6.732751 
L 1.915777 -6.732751 
C 1.964379 -6.781526 2.022136 -6.820229 2.085727 -6.846635 
C 2.149318 -6.873042 2.217502 -6.886636 2.286358 -6.886636 
C 2.355214 -6.886636 2.423397 -6.873042 2.486989 -6.846635 
C 2.55058 -6.820229 2.608337 -6.781526 2.656939 -6.732751 
L 2.656939 -6.732751 
C 2.705714 -6.684149 2.744417 -6.626392 2.770823 -6.5628 
C 2.79723 -6.499209 2.810824 -6.431026 2.810824 -6.36217 
C 2.810824 -6.293314 2.79723 -6.22513 2.770823 -6.161539 
C 2.744417 -6.097947 2.705714 -6.040191 2.656939 -5.991589 
L 0.716897 -4.051588 
L 0.716897 -0.991139 
L 3.369495 -2.522954 
L 4.07931 -5.171367 
L 4.07931 -5.171367 
C 4.115368 -5.305107 4.203106 -5.4192 4.323103 -5.488391 
C 4.4431 -5.557582 4.585797 -5.576359 4.719608 -5.540567 
L 4.719608 -5.540567 
C 4.853612 -5.504807 4.968045 -5.417186 5.037515 -5.297146 
C 5.106986 -5.177105 5.125946 -5.034232 5.090189 -4.900227 
L 4.650133 -3.262673 
L 5.973022 -4.025577 
L 5.973022 -4.025577 
C 6.03258 -4.059998 6.098346 -4.082336 6.166548 -4.09131 
C 6.234749 -4.100284 6.304056 -4.095719 6.370491 -4.077876 
C 6.436926 -4.060034 6.499194 -4.029262 6.553723 -3.987327 
C 6.608252 -3.945391 6.653978 -3.893109 6.688277 -3.833481 
L 6.688277 -3.833481 
C 6.757325 -3.713365 6.775905 -3.570605 6.739903 -3.436816 
C 6.703901 -3.303027 6.616186 -3.188871 6.496181 -3.119628 
L 5.173293 -2.355342 
L 6.812229 -1.916625 
L 6.812229 -1.916625 
C 6.946224 -1.880865 7.060649 -1.79325 7.130118 -1.67322 
C 7.199588 -1.553189 7.218554 -1.410326 7.18281 -1.276327 
L 7.18281 -1.276327 
C 7.165106 -1.209806 7.134445 -1.147429 7.092589 -1.092779 
C 7.050733 -1.038129 6.998499 -0.992274 6.938889 -0.957848 
C 6.879279 -0.923422 6.813456 -0.901098 6.745202 -0.892157 
C 6.676949 -0.883217 6.607597 -0.887835 6.541131 -0.905746 
L 3.891253 -1.615561 
L 1.239492 -0.084604 
L 3.892718 1.447085 
L 6.541131 0.73727 
L 6.541131 0.73727 
C 6.674948 0.701466 6.817656 0.720237 6.937662 0.789429 
C 7.057669 0.858621 7.145413 0.972721 7.181471 1.10647 
L 7.181471 1.10647 
C 7.217274 1.240293 7.198497 1.383006 7.129297 1.503014 
C 7.060096 1.623021 6.945986 1.710762 6.812229 1.74681 
L 5.173293 2.186866 
L 6.496181 2.949771 
L 6.496181 2.949771 
C 6.555697 2.984183 6.607849 3.029991 6.649651 3.08457 
C 6.691452 3.13915 6.722088 3.201437 6.739803 3.267863 
C 6.757517 3.33429 6.761966 3.403561 6.752893 3.471707 
C 6.743821 3.539854 6.721404 3.605549 6.686927 3.665026 
L 6.686927 3.665026 
C 6.617458 3.784813 6.503196 3.87225 6.369416 3.907994 
C 6.235636 3.943739 6.092989 3.924946 5.973032 3.855772 
L 4.650144 3.091487 
L 5.08886 4.731783 
L 5.08886 4.731783 
C 5.124664 4.865606 5.105887 5.008319 5.036686 5.128326 
C 4.967486 5.248334 4.853376 5.336074 4.719619 5.372123 
L 4.719619 5.372123 
C 4.585619 5.407867 4.442757 5.3889 4.322726 5.319431 
C 4.202695 5.249961 4.115081 5.135537 4.07932 5.001542 
L 3.368166 2.351664 
L 0.717033 0.821063 
L 0.717033 3.884232 
L 2.657075 5.822893 
L 2.657075 5.822893 
C 2.70585 5.871495 2.744553 5.929252 2.770959 5.992843 
C 2.797366 6.056435 2.81096 6.124618 2.81096 6.193474 
C 2.81096 6.26233 2.797366 6.330514 2.770959 6.394105 
C 2.744553 6.457696 2.70585 6.515453 2.657075 6.564055 
L 2.657075 6.564055 
C 2.608473 6.61283 2.550716 6.651533 2.487125 6.67794 
C 2.423533 6.704346 2.35535 6.71794 2.286494 6.71794 
C 2.217638 6.71794 2.149454 6.704346 2.085863 6.67794 
C 2.022272 6.651533 1.964515 6.61283 1.915913 6.564055 
L 0.717033 5.365133 
L 0.717033 6.891026 
L 0.717033 6.891026 
C 0.717033 7.029722 0.661877 7.162879 0.563805 7.260952 
C 0.465732 7.359024 0.332575 7.41418 0.193879 7.41418 
L 0.193618 7.414054 
z
"/>
    </defs>
    <g clip-path="url(#p517c2ff390)">
     <use xlink:href="#m106ec5fafb" x="98.023419" y="62.583366" style="fill: #9e2096; fill-opacity: 0.7"/>
    </g>
   </g>
   <g id="patch_163">
    <path d="M 125.254844 13.699063 
C 110.694216 13.699063 96.275171 16.567189 82.822905 22.1393 
C 69.370638 27.711411 57.146763 35.879144 46.850844 46.175063 
C 36.554925 56.470982 28.387192 68.694857 22.815081 82.147124 
C 17.24297 95.59939 14.374844 110.018434 14.374844 124.579063 
C 14.374844 139.139691 17.24297 153.558735 22.815081 167.011001 
C 28.387192 180.463268 36.554925 192.687143 46.850844 202.983062 
C 57.146763 213.278981 69.370638 221.446714 82.822905 227.018825 
C 96.275171 232.590936 110.694216 235.459063 125.254844 235.459063 
C 139.815472 235.459063 154.234516 232.590936 167.686783 227.018825 
C 181.139049 221.446714 193.362925 213.278981 203.658844 202.983062 
C 213.954763 192.687143 222.122495 180.463268 227.694606 167.011001 
C 233.266717 153.558735 236.134844 139.139691 236.134844 124.579063 
C 236.134844 110.018434 233.266717 95.59939 227.694606 82.147124 
C 222.122495 68.694857 213.954763 56.470982 203.658844 46.175063 
C 193.362925 35.879144 181.139049 27.711411 167.686783 22.1393 
C 154.234516 16.567189 139.815472 13.699063 125.254844 13.699063 
" style="fill: none; stroke: #000000; stroke-width: 0.8; stroke-linejoin: miter; stroke-linecap: square"/>
   </g>
  </g>
 </g>
 <defs>
  <clipPath id="p517c2ff390">
   <path d="M 236.134844 124.579063 
C 236.134844 110.018434 233.266717 95.59939 227.694606 82.147124 
C 222.122495 68.694857 213.954763 56.470982 203.658844 46.175063 
C 193.362925 35.879144 181.139049 27.711411 167.686783 22.1393 
C 154.234516 16.567189 139.815472 13.699063 125.254844 13.699063 
C 110.694216 13.699063 96.275171 16.567189 82.822905 22.1393 
C 69.370638 27.711411 57.146763 35.879144 46.850844 46.175063 
C 36.554925 56.470982 28.387192 68.694857 22.815081 82.147124 
C 17.24297 95.59939 14.374844 110.018434 14.374844 124.579062 
C 14.374844 139.139691 17.24297 153.558735 22.815081 167.011001 
C 28.387192 180.463268 36.554925 192.687143 46.850844 202.983062 
C 57.146763 213.278981 69.370638 221.446714 82.822905 227.018825 
C 96.275171 232.590936 110.694216 235.459063 125.254844 235.459063 
C 139.815472 235.459063 154.234516 232.590936 167.686783 227.018825 
C 181.139049 221.446714 193.362925 213.278981 203.658844 202.983062 
C 213.954763 192.687143 222.122495 180.463268 227.694606 167.011001 
C 233.266717 153.558735 236.134844 139.139691 236.134844 124.579063 
M 125.254844 124.579063 
C 125.254844 124.579063 125.254844 124.579063 125.254844 124.579063 
C 125.254844 124.579063 125.254844 124.579063 125.254844 124.579063 
C 125.254844 124.579063 125.254844 124.579063 125.254844 124.579063 
C 125.254844 124.579063 125.254844 124.579063 125.254844 124.579063 
C 125.254844 124.579063 125.254844 124.579063 125.254844 124.579063 
C 125.254844 124.579063 125.254844 124.579063 125.254844 124.579063 
C 125.254844 124.579063 125.254844 124.579063 125.254844 124.579063 
C 125.254844 124.579063 125.254844 124.579063 125.254844 124.579063 
C 125.254844 124.579063 125.254844 124.579063 125.254844 124.579063 
C 125.254844 124.579063 125.254844 124.579063 125.254844 124.579063 
C 125.254844 124.579063 125.254844 124.579063 125.254844 124.579063 
C 125.254844 124.579063 125.254844 124.579063 125.254844 124.579063 
C 125.254844 124.579063 125.254844 124.579063 125.254844 124.579063 
C 125.254844 124.579063 125.254844 124.579063 125.254844 124.579063 
C 125.254844 124.579063 125.254844 124.579063 125.254844 124.579063 
C 125.254844 124.579063 125.254844 124.579063 125.254844 124.579063 
z
"/>
  </clipPath>
 </defs>
</svg>
