<?xml version="1.0" encoding="utf-8" standalone="no"?>
<!DOCTYPE svg PUBLIC "-//W3C//DTD SVG 1.1//EN"
  "http://www.w3.org/Graphics/SVG/1.1/DTD/svg11.dtd">
<svg xmlns:xlink="http://www.w3.org/1999/xlink" width="248.410469pt" height="249.158125pt" viewBox="0 0 248.410469 249.158125" xmlns="http://www.w3.org/2000/svg" version="1.1">
 <title>Ski Rose for Guzet-Neige</title>
 <metadata>
  <rdf:RDF xmlns:dc="http://purl.org/dc/elements/1.1/" xmlns:cc="http://creativecommons.org/ns#" xmlns:rdf="http://www.w3.org/1999/02/22-rdf-syntax-ns#">
   <cc:Work>
    <dc:type rdf:resource="http://purl.org/dc/dcmitype/StillImage"/>
    <dc:title>Ski Rose for Guzet-Neige</dc:title>
    <dc:date>2026-05-30T11:10:19.898131</dc:date>
    <dc:description>A 32-bin stacked histogram of downhill ski run orientations colored by difficulty.</dc:description>
    <dc:format>image/svg+xml</dc:format>
    <dc:source>https://openskimap.org/?obj=c8f66e784133d6becb1aba654e27b446daa7af7b</dc:source>
    <dc:creator>
     <cc:Agent>
      <dc:title>https://github.com/dhimmel/openskistats</dc:title>
     </cc:Agent>
    </dc:creator>
    <dc:rights>
     <cc:Agent>
      <dc:title>https://creativecommons.org/licenses/by/4.0/</dc:title>
     </cc:Agent>
    </dc:rights>
   </cc:Work>
  </rdf:RDF>
 </metadata>
 <defs>
  <style type="text/css">*{stroke-linejoin: round; stroke-linecap: butt}</style>
 </defs>
 <g id="figure_1">
  <g id="patch_1">
   <path d="M 0 249.158125 
L 248.410469 249.158125 
L 248.410469 0 
L 0 0 
z
" style="fill: #ffffff"/>
  </g>
  <g id="axes_1">
   <g id="patch_2">
    <path d="M 236.134844 124.579063 
C 236.134844 110.018434 233.266717 95.59939 227.694606 82.147124 
C 222.122495 68.694857 213.954763 56.470982 203.658844 46.175063 
C 193.362925 35.879144 181.139049 27.711411 167.686783 22.1393 
C 154.234516 16.567189 139.815472 13.699063 125.254844 13.699063 
C 110.694216 13.699063 96.275171 16.567189 82.822905 22.1393 
C 69.370638 27.711411 57.146763 35.879144 46.850844 46.175063 
C 36.554925 56.470982 28.387192 68.694857 22.815081 82.147124 
C 17.24297 95.59939 14.374844 110.018434 14.374844 124.579062 
C 14.374844 139.139691 17.24297 153.558735 22.815081 167.011001 
C 28.387192 180.463268 36.554925 192.687143 46.850844 202.983062 
C 57.146763 213.278981 69.370638 221.446714 82.822905 227.018825 
C 96.275171 232.590936 110.694216 235.459063 125.254844 235.459063 
C 139.815472 235.459063 154.234516 232.590936 167.686783 227.018825 
C 181.139049 221.446714 193.362925 213.278981 203.658844 202.983062 
C 213.954763 192.687143 222.122495 180.463268 227.694606 167.011001 
C 233.266717 153.558735 236.134844 139.139691 236.134844 124.579063 
M 125.254844 124.579063 
C 125.254844 124.579063 125.254844 124.579063 125.254844 124.579063 
C 125.254844 124.579063 125.254844 124.579063 125.254844 124.579063 
C 125.254844 124.579063 125.254844 124.579063 125.254844 124.579063 
C 125.254844 124.579063 125.254844 124.579063 125.254844 124.579063 
C 125.254844 124.579063 125.254844 124.579063 125.254844 124.579063 
C 125.254844 124.579063 125.254844 124.579063 125.254844 124.579063 
C 125.254844 124.579063 125.254844 124.579063 125.254844 124.579063 
C 125.254844 124.579063 125.254844 124.579063 125.254844 124.579063 
C 125.254844 124.579063 125.254844 124.579063 125.254844 124.579063 
C 125.254844 124.579063 125.254844 124.579063 125.254844 124.579063 
C 125.254844 124.579063 125.254844 124.579063 125.254844 124.579063 
C 125.254844 124.579063 125.254844 124.579063 125.254844 124.579063 
C 125.254844 124.579063 125.254844 124.579063 125.254844 124.579063 
C 125.254844 124.579063 125.254844 124.579063 125.254844 124.579063 
C 125.254844 124.579063 125.254844 124.579063 125.254844 124.579063 
C 125.254844 124.579063 125.254844 124.579063 125.254844 124.579063 
z
" style="fill: #ffffff"/>
   </g>
   <g id="FillBetweenPolyCollection_1">
    <defs>
     <path id="m31f84131ce" d="M 235.316502 -137.119004 
L 235.316502 -137.119004 
L 234.334095 -135.0822 
L 233.255735 -133.078917 
L 232.102518 -131.114146 
L 230.890844 -129.19123 
L 229.630783 -127.312243 
L 228.328746 -125.478575 
L 226.989191 -123.69124 
L 225.615505 -121.951026 
L 224.210469 -120.258567 
L 223.000439 -118.600686 
L 221.539409 -117.001303 
L 220.053534 -115.450987 
L 218.544809 -113.950014 
L 217.236639 -112.469429 
L 215.686907 -111.0639 
L 214.119838 -109.708162 
L 212.755231 -108.361824 
L 211.157481 -107.101973 
L 209.762634 -105.844136 
L 208.354116 -104.628692 
L 206.721829 -103.510267 
L 205.292006 -102.382793 
L 203.852757 -101.2973 
L 202.405445 -100.253571 
L 200.748569 -99.319215 
L 199.291617 -98.361266 
L 197.830773 -97.444034 
L 196.562579 -96.490199 
L 195.095142 -95.650264 
L 193.627658 -94.849717 
L 192.161428 -94.087975 
L 190.881347 -93.276826 
L 189.418194 -92.588396 
L 188.137294 -91.844531 
L 186.681777 -91.226959 
L 185.40413 -90.548234 
L 184.127942 -89.900157 
L 182.690213 -89.382623 
L 181.423034 -88.795979 
L 180.159972 -88.238151 
L 178.901846 -87.7085 
L 177.64945 -87.206353 
L 176.40356 -86.731003 
L 175.164925 -86.28171 
L 174.07218 -85.748 
L 172.846209 -85.347768 
L 171.629523 -84.971345 
L 170.422763 -84.617863 
L 169.348698 -84.17449 
L 168.159393 -83.864166 
L 167.095998 -83.461875 
L 165.926164 -83.191626 
L 164.875213 -82.827904 
L 163.829222 -82.482516 
L 162.689683 -82.266674 
L 161.658384 -81.955993 
L 160.633035 -81.661884 
L 159.613916 -81.383788 
L 158.517978 -81.229701 
L 157.515779 -80.980911 
L 156.520484 -80.746251 
L 155.532271 -80.525132 
L 154.55129 -80.316961 
L 153.577664 -80.12114 
L 152.611491 -79.937071 
L 151.652842 -79.764155 
L 150.756151 -79.505655 
L 149.809233 -79.355503 
L 148.869948 -79.214869 
L 147.938263 -79.083162 
L 147.014116 -78.9598 
L 146.097419 -78.844206 
L 145.223529 -78.65423 
L 144.318388 -78.555596 
L 143.420364 -78.463204 
L 142.556615 -78.303374 
L 141.669547 -78.225371 
L 140.789059 -78.152187 
L 139.934973 -78.019642 
L 139.064488 -77.958485 
L 138.21576 -77.843509 
L 137.354539 -77.793011 
L 136.498631 -77.745317 
L 135.657975 -77.65357 
L 134.809864 -77.614637 
L 133.973354 -77.53819 
L 133.132006 -77.506995 
L 132.299054 -77.445152 
L 131.463344 -77.420823 
L 130.633294 -77.373007 
L 129.802019 -77.354838 
L 128.974166 -77.320594 
L 128.146063 -77.308051 
L 127.319657 -77.287053 
L 126.493419 -77.27978 
L 125.667688 -77.271835 
L 124.842007 -77.272694 
L 124.016279 -77.280183 
L 123.190442 -77.296486 
L 122.36369 -77.309123 
L 121.536934 -77.338541 
L 120.707835 -77.356575 
L 119.879395 -77.399358 
L 119.046659 -77.42322 
L 118.215804 -77.479746 
L 117.378191 -77.510043 
L 116.544234 -77.580819 
L 115.700574 -77.618327 
L 114.862888 -77.70398 
L 114.012093 -77.749636 
L 113.156362 -77.797705 
L 112.311201 -77.905794 
L 111.446769 -77.963784 
L 110.596542 -78.088869 
L 109.722599 -78.158076 
L 108.84235 -78.231611 
L 107.982837 -78.382981 
L 107.092002 -78.470003 
L 106.194255 -78.56273 
L 105.324822 -78.74315 
L 104.415759 -78.851864 
L 103.499375 -78.967773 
L 102.575554 -79.091444 
L 101.691763 -79.314805 
L 100.756182 -79.45814 
L 99.813043 -79.610832 
L 98.862335 -79.773473 
L 97.904072 -79.94666 
L 96.938299 -80.13099 
L 95.965085 -80.327064 
L 94.984527 -80.535479 
L 93.996751 -80.756833 
L 93.001905 -80.991718 
L 92.000167 -81.240724 
L 90.991737 -81.504434 
L 89.976843 -81.783425 
L 88.861317 -81.967718 
L 87.830531 -82.278572 
L 86.794109 -82.606536 
L 85.752379 -82.95215 
L 84.59577 -83.204088 
L 83.540796 -83.586782 
L 82.363799 -83.87698 
L 81.297241 -84.299341 
L 80.101746 -84.630976 
L 78.895733 -84.984641 
L 77.813597 -85.471516 
L 76.592398 -85.871205 
L 75.362542 -86.295353 
L 74.124726 -86.744766 
L 72.879675 -87.220218 
L 71.78072 -87.827315 
L 70.370889 -88.252165 
L 69.108724 -88.810039 
L 67.842462 -89.39671 
L 66.572942 -90.012781 
L 65.30102 -90.658821 
L 63.853953 -91.241099 
L 62.576741 -91.950907 
L 61.29989 -92.692299 
L 59.841257 -93.378382 
L 58.378842 -94.101913 
L 57.103189 -94.94588 
L 55.639961 -95.743634 
L 54.176689 -96.580633 
L 52.714685 -97.457409 
L 51.255273 -98.37444 
L 49.799784 -99.332153 
L 48.349561 -100.33092 
L 46.905952 -101.371063 
L 45.470314 -102.452854 
L 44.044008 -103.576512 
L 42.415601 -104.69112 
L 41.010407 -105.90252 
L 39.618788 -107.15621 
L 38.024611 -108.411894 
L 36.663032 -109.753878 
L 35.099322 -111.10523 
L 33.552834 -112.506264 
L 32.247371 -113.982199 
L 30.741648 -115.478477 
L 29.258636 -117.023997 
L 27.800311 -118.618488 
L 26.592433 -120.271369 
L 25.189716 -121.958765 
L 23.818065 -123.693837 
L 22.480158 -125.475964 
L 21.179202 -127.304379 
L 19.919337 -129.17811 
L 18.706384 -131.095845 
L 17.549304 -133.055672 
L 16.668 -135.034786 
L 15.662148 -137.065573 
L 15.274823 -137.109703 
L 15.274823 -137.109703 
L 15.015182 -135.193935 
L 14.787907 -133.272999 
L 14.593066 -131.347427 
L 14.623734 -129.409321 
L 14.493594 -127.479448 
L 14.395663 -125.546516 
L 14.556538 -123.613013 
L 14.522922 -121.679445 
L 14.520948 -119.744316 
L 14.586607 -117.810303 
L 14.802746 -115.886294 
L 14.893249 -113.95245 
L 15.205045 -112.040472 
L 15.355557 -110.110547 
L 15.770524 -108.216521 
L 15.982211 -106.293095 
L 16.271699 -104.380231 
L 16.68341 -102.489955 
L 17.036137 -100.587553 
L 17.502773 -98.710079 
L 17.918879 -96.820094 
L 18.441251 -94.957032 
L 19.044329 -93.118075 
L 19.554839 -91.251979 
L 20.105501 -89.396585 
L 20.795217 -87.587969 
L 21.400639 -85.749566 
L 22.094587 -83.943157 
L 22.81931 -82.148875 
L 23.630351 -80.391475 
L 24.364325 -78.600604 
L 25.188963 -76.850086 
L 26.052214 -75.118456 
L 26.918093 -73.38819 
L 27.815461 -71.673794 
L 28.833472 -70.026475 
L 29.724399 -68.30733 
L 30.737916 -66.659014 
L 31.746355 -65.007585 
L 33.443754 -63.810628 
L 35.289606 -62.747668 
L 37.229204 -61.790984 
L 39.109898 -60.835156 
L 41.068528 -59.980631 
L 42.960492 -59.119179 
L 44.847528 -58.296386 
L 46.734532 -57.516381 
L 48.612323 -56.771488 
L 50.486727 -56.066706 
L 52.349097 -55.394093 
L 54.146438 -54.701027 
L 55.994536 -54.099262 
L 57.775919 -53.471113 
L 59.549113 -52.87384 
L 61.36142 -52.360685 
L 63.114385 -51.821934 
L 64.857323 -51.311011 
L 66.547478 -50.773789 
L 68.270811 -50.316025 
L 69.982755 -49.883122 
L 71.642856 -49.417827 
L 73.332923 -49.0322 
L 74.977631 -48.61848 
L 76.644687 -48.276401 
L 78.26631 -47.900744 
L 79.881874 -47.551045 
L 81.484837 -47.215838 
L 83.081371 -46.905188 
L 84.665257 -46.607192 
L 86.242482 -46.33237 
L 87.807175 -46.068393 
L 89.365111 -45.826232 
L 90.893888 -45.554275 
L 92.431682 -45.33694 
L 93.962778 -45.139524 
L 95.469398 -44.914268 
L 96.981395 -44.737307 
L 98.474338 -44.540569 
L 99.961248 -44.358024 
L 101.452635 -44.224153 
L 102.926874 -44.067004 
L 104.395665 -43.922604 
L 105.864739 -43.813463 
L 107.322514 -43.691552 
L 108.775631 -43.581144 
L 110.224371 -43.481886 
L 111.669031 -43.393448 
L 113.109927 -43.315525 
L 114.547385 -43.247841 
L 115.981748 -43.190146 
L 117.413367 -43.142218 
L 118.842607 -43.103863 
L 120.269837 -43.07492 
L 121.695437 -43.055253 
L 123.119793 -43.044759 
L 124.543292 -43.043365 
L 125.966368 -43.046413 
L 127.389724 -43.051287 
L 128.813887 -43.063567 
L 130.23925 -43.084739 
L 131.666191 -43.115176 
L 133.095088 -43.155011 
L 134.526315 -43.204406 
L 135.960234 -43.26355 
L 137.397199 -43.332663 
L 138.841414 -43.388919 
L 140.286236 -43.47693 
L 141.73515 -43.575768 
L 143.188456 -43.685763 
L 144.646435 -43.807271 
L 146.10935 -43.94067 
L 147.584655 -44.060364 
L 149.059124 -44.217159 
L 150.539254 -44.387158 
L 152.038081 -44.532403 
L 153.531305 -44.7288 
L 155.043429 -44.905871 
L 156.550335 -45.130829 
L 158.081961 -45.327391 
L 159.603171 -45.583318 
L 161.148952 -45.81663 
L 162.707503 -46.05793 
L 164.272272 -46.322208 
L 165.850169 -46.596168 
L 167.409931 -46.93905 
L 169.031368 -47.204317 
L 170.63435 -47.539948 
L 172.2507 -47.888795 
L 173.872307 -48.264931 
L 175.507162 -48.656092 
L 177.185353 -49.019703 
L 178.835244 -49.462111 
L 180.535869 -49.871044 
L 182.248238 -50.303825 
L 183.930292 -50.813915 
L 185.663153 -51.297924 
L 187.406542 -51.808774 
L 189.159957 -52.347472 
L 190.922845 -52.915015 
L 192.745674 -53.458567 
L 194.527473 -54.086723 
L 196.376755 -54.687755 
L 198.174525 -55.380868 
L 200.036534 -56.054269 
L 201.91217 -56.758389 
L 203.789521 -57.504112 
L 205.67777 -58.283518 
L 207.564268 -59.10719 
L 209.45745 -59.96813 
L 211.343233 -60.877005 
L 213.296226 -61.779755 
L 215.167553 -62.783769 
L 217.082335 -63.799772 
L 218.766931 -65.005293 
L 219.791838 -66.646718 
L 220.772297 -68.314983 
L 221.747943 -69.985894 
L 222.641761 -71.70228 
L 223.603926 -73.381771 
L 224.442055 -75.126143 
L 225.316485 -76.852108 
L 226.029361 -78.653469 
L 226.816555 -80.418774 
L 227.692359 -82.148054 
L 228.39429 -83.951354 
L 229.027067 -85.780218 
L 229.734431 -87.5809 
L 230.373677 -89.406793 
L 230.908157 -91.266701 
L 231.511749 -93.104333 
L 232.069378 -94.95677 
L 232.581371 -96.822535 
L 233.048104 -98.70019 
L 233.47 -100.58834 
L 233.847527 -102.485631 
L 234.253513 -104.377353 
L 234.539776 -106.291037 
L 234.908717 -108.191181 
L 235.176423 -110.107612 
L 235.338507 -112.036613 
L 235.59725 -113.954297 
L 235.682768 -115.888196 
L 235.922537 -117.810336 
L 235.931605 -119.746811 
L 236.048519 -121.677828 
L 236.033148 -123.612315 
L 236.127557 -125.546634 
L 235.993802 -127.478864 
L 235.973178 -129.413129 
L 235.918775 -131.347559 
L 235.73308 -133.273888 
L 235.612576 -135.205303 
L 235.316502 -137.119004 
z
" style="stroke: #ffee9c"/>
    </defs>
    <g clip-path="url(#p170417f16a)">
     <use xlink:href="#m31f84131ce" x="0" y="249.158125" style="fill: #ffee9c; stroke: #ffee9c"/>
    </g>
   </g>
   <g id="matplotlib.axis_1">
    <g id="xtick_1">
     <g id="line2d_1">
      <path d="M 125.254844 124.579063 
L 125.254844 13.699063 
" clip-path="url(#p170417f16a)" style="fill: none; stroke: #b0b0b0; stroke-width: 0.8; stroke-linecap: square"/>
     </g>
     <g id="text_1">
      <!-- N -->
      <g transform="translate(121.070469 7.958438) scale(0.1 -0.1)">
       <defs>
        <path id="DejaVuSans-Bold-4e" d="M 588 4666 
L 1931 4666 
L 3628 1466 
L 3628 4666 
L 4769 4666 
L 4769 0 
L 3425 0 
L 1728 3200 
L 1728 0 
L 588 0 
L 588 4666 
z
" transform="scale(0.015625)"/>
       </defs>
       <use xlink:href="#DejaVuSans-Bold-4e"/>
      </g>
     </g>
    </g>
    <g id="xtick_2">
     <g id="line2d_2">
      <path d="M 125.254844 124.579063 
L 203.658844 46.175063 
" clip-path="url(#p170417f16a)" style="fill: none; stroke: #b0b0b0; stroke-width: 0.8; stroke-linecap: square"/>
     </g>
    </g>
    <g id="xtick_3">
     <g id="line2d_3">
      <path d="M 125.254844 124.579063 
L 236.134844 124.579063 
" clip-path="url(#p170417f16a)" style="fill: none; stroke: #b0b0b0; stroke-width: 0.8; stroke-linecap: square"/>
     </g>
     <g id="text_2">
      <!-- E -->
      <g transform="translate(241.219219 127.338438) scale(0.1 -0.1)">
       <defs>
        <path id="DejaVuSans-Bold-45" d="M 588 4666 
L 3834 4666 
L 3834 3756 
L 1791 3756 
L 1791 2888 
L 3713 2888 
L 3713 1978 
L 1791 1978 
L 1791 909 
L 3903 909 
L 3903 0 
L 588 0 
L 588 4666 
z
" transform="scale(0.015625)"/>
       </defs>
       <use xlink:href="#DejaVuSans-Bold-45"/>
      </g>
     </g>
    </g>
    <g id="xtick_4">
     <g id="line2d_4">
      <path d="M 125.254844 124.579063 
L 203.658844 202.983062 
" clip-path="url(#p170417f16a)" style="fill: none; stroke: #b0b0b0; stroke-width: 0.8; stroke-linecap: square"/>
     </g>
    </g>
    <g id="xtick_5">
     <g id="line2d_5">
      <path d="M 125.254844 124.579063 
L 125.254844 235.459063 
" clip-path="url(#p170417f16a)" style="fill: none; stroke: #b0b0b0; stroke-width: 0.8; stroke-linecap: square"/>
     </g>
     <g id="text_3">
      <!-- S -->
      <g transform="translate(121.654062 246.718438) scale(0.1 -0.1)">
       <defs>
        <path id="DejaVuSans-Bold-53" d="M 3834 4519 
L 3834 3531 
Q 3450 3703 3084 3790 
Q 2719 3878 2394 3878 
Q 1963 3878 1756 3759 
Q 1550 3641 1550 3391 
Q 1550 3203 1689 3098 
Q 1828 2994 2194 2919 
L 2706 2816 
Q 3484 2659 3812 2340 
Q 4141 2022 4141 1434 
Q 4141 663 3683 286 
Q 3225 -91 2284 -91 
Q 1841 -91 1394 -6 
Q 947 78 500 244 
L 500 1259 
Q 947 1022 1364 901 
Q 1781 781 2169 781 
Q 2563 781 2772 912 
Q 2981 1044 2981 1288 
Q 2981 1506 2839 1625 
Q 2697 1744 2272 1838 
L 1806 1941 
Q 1106 2091 782 2419 
Q 459 2747 459 3303 
Q 459 4000 909 4375 
Q 1359 4750 2203 4750 
Q 2588 4750 2994 4692 
Q 3400 4634 3834 4519 
z
" transform="scale(0.015625)"/>
       </defs>
       <use xlink:href="#DejaVuSans-Bold-53"/>
      </g>
     </g>
    </g>
    <g id="xtick_6">
     <g id="line2d_6">
      <path d="M 125.254844 124.579063 
L 46.850844 202.983062 
" clip-path="url(#p170417f16a)" style="fill: none; stroke: #b0b0b0; stroke-width: 0.8; stroke-linecap: square"/>
     </g>
    </g>
    <g id="xtick_7">
     <g id="line2d_7">
      <path d="M 125.254844 124.579063 
L 14.374844 124.579063 
" clip-path="url(#p170417f16a)" style="fill: none; stroke: #b0b0b0; stroke-width: 0.8; stroke-linecap: square"/>
     </g>
     <g id="text_4">
      <!-- W -->
      <g transform="translate(0.36 127.338438) scale(0.1 -0.1)">
       <defs>
        <path id="DejaVuSans-Bold-57" d="M 191 4666 
L 1344 4666 
L 2150 1275 
L 2950 4666 
L 4109 4666 
L 4909 1275 
L 5716 4666 
L 6859 4666 
L 5759 0 
L 4372 0 
L 3525 3547 
L 2688 0 
L 1300 0 
L 191 4666 
z
" transform="scale(0.015625)"/>
       </defs>
       <use xlink:href="#DejaVuSans-Bold-57"/>
      </g>
     </g>
    </g>
    <g id="xtick_8">
     <g id="line2d_8">
      <path d="M 125.254844 124.579063 
L 46.850844 46.175063 
" clip-path="url(#p170417f16a)" style="fill: none; stroke: #b0b0b0; stroke-width: 0.8; stroke-linecap: square"/>
     </g>
    </g>
   </g>
   <g id="matplotlib.axis_2"/>
   <g id="patch_3">
    <path d="M 125.254844 124.579063 
C 125.254844 124.579063 125.254844 124.579063 125.254844 124.579063 
C 125.254844 124.579063 125.254844 124.579063 125.254844 124.579063 
L 125.254844 124.579063 
C 125.254844 124.579063 125.254844 124.579063 125.254844 124.579063 
C 125.254844 124.579063 125.254844 124.579063 125.254844 124.579063 
z
" clip-path="url(#p170417f16a)" style="fill: #d9d9d9"/>
   </g>
   <g id="patch_4">
    <path d="M 125.254844 124.579063 
C 125.254844 124.579063 125.254844 124.579063 125.254844 124.579063 
C 125.254844 124.579063 125.254844 124.579063 125.254844 124.579063 
L 131.733015 103.223394 
C 131.034012 103.011354 130.32502 102.83376 129.608599 102.691255 
C 128.892179 102.548751 128.169193 102.441506 127.442254 102.369909 
z
" clip-path="url(#p170417f16a)" style="fill: #d9d9d9"/>
   </g>
   <g id="patch_5">
    <path d="M 125.254844 124.579063 
C 125.254844 124.579063 125.254844 124.579063 125.254844 124.579063 
C 125.254844 124.579063 125.254844 124.579063 125.254844 124.579063 
L 137.851983 101.011472 
C 137.080581 100.599149 136.289399 100.224948 135.481297 99.890221 
C 134.673194 99.555494 133.849144 99.260644 133.012124 99.006737 
z
" clip-path="url(#p170417f16a)" style="fill: #d9d9d9"/>
   </g>
   <g id="patch_6">
    <path d="M 125.254844 124.579063 
C 125.254844 124.579063 125.254844 124.579063 125.254844 124.579063 
C 125.254844 124.579063 125.254844 124.579063 125.254844 124.579063 
L 136.802455 110.508258 
C 136.341896 110.130287 135.863058 109.775157 135.36767 109.444149 
C 134.872281 109.113141 134.36094 108.806655 133.835493 108.525797 
z
" clip-path="url(#p170417f16a)" style="fill: #d9d9d9"/>
   </g>
   <g id="patch_7">
    <path d="M 125.254844 124.579063 
C 125.254844 124.579063 125.254844 124.579063 125.254844 124.579063 
C 125.254844 124.579063 125.254844 124.579063 125.254844 124.579063 
L 139.713584 112.713081 
C 139.325192 112.239825 138.9138 111.785923 138.480891 111.353015 
C 138.047983 110.920107 137.594081 110.508714 137.120825 110.120322 
z
" clip-path="url(#p170417f16a)" style="fill: #d9d9d9"/>
   </g>
   <g id="patch_8">
    <path d="M 125.254844 124.579063 
C 125.254844 124.579063 125.254844 124.579063 125.254844 124.579063 
C 125.254844 124.579063 125.254844 124.579063 125.254844 124.579063 
L 125.254844 124.579063 
C 125.254844 124.579063 125.254844 124.579063 125.254844 124.579063 
C 125.254844 124.579063 125.254844 124.579063 125.254844 124.579063 
z
" clip-path="url(#p170417f16a)" style="fill: #d9d9d9"/>
   </g>
   <g id="patch_9">
    <path d="M 125.254844 124.579063 
C 125.254844 124.579063 125.254844 124.579063 125.254844 124.579063 
C 125.254844 124.579063 125.254844 124.579063 125.254844 124.579063 
L 138.844814 120.45659 
C 138.709879 120.01177 138.553186 119.573843 138.375302 119.144391 
C 138.197417 118.714939 137.998554 118.294479 137.779432 117.884531 
z
" clip-path="url(#p170417f16a)" style="fill: #d9d9d9"/>
   </g>
   <g id="patch_10">
    <path d="M 125.254844 124.579063 
C 125.254844 124.579063 125.254844 124.579063 125.254844 124.579063 
C 125.254844 124.579063 125.254844 124.579063 125.254844 124.579063 
L 139.953488 123.131372 
C 139.906102 122.650264 139.835125 122.171772 139.740811 121.697624 
C 139.646497 121.223477 139.528961 120.754246 139.388627 120.291626 
z
" clip-path="url(#p170417f16a)" style="fill: #d9d9d9"/>
   </g>
   <g id="patch_11">
    <path d="M 125.254844 124.579063 
C 125.254844 124.579063 125.254844 124.579063 125.254844 124.579063 
C 125.254844 124.579063 125.254844 124.579063 125.254844 124.579063 
L 143.313454 126.35768 
C 143.37167 125.766595 143.400831 125.173008 143.400831 124.579063 
C 143.400831 123.985117 143.37167 123.39153 143.313454 122.800445 
z
" clip-path="url(#p170417f16a)" style="fill: #d9d9d9"/>
   </g>
   <g id="patch_12">
    <path d="M 125.254844 124.579063 
C 125.254844 124.579063 125.254844 124.579063 125.254844 124.579063 
C 125.254844 124.579063 125.254844 124.579063 125.254844 124.579063 
L 138.635188 128.637946 
C 138.768041 128.199987 138.879312 127.755769 138.968598 127.306898 
C 139.057884 126.858026 139.125078 126.405041 139.169937 125.94958 
z
" clip-path="url(#p170417f16a)" style="fill: #d9d9d9"/>
   </g>
   <g id="patch_13">
    <path d="M 125.254844 124.579063 
C 125.254844 124.579063 125.254844 124.579063 125.254844 124.579063 
C 125.254844 124.579063 125.254844 124.579063 125.254844 124.579063 
L 143.977717 134.586647 
C 144.305281 133.973819 144.602558 133.345279 144.868477 132.703295 
C 145.134395 132.061312 145.368633 131.406659 145.570346 130.741703 
z
" clip-path="url(#p170417f16a)" style="fill: #d9d9d9"/>
   </g>
   <g id="patch_14">
    <path d="M 125.254844 124.579063 
C 125.254844 124.579063 125.254844 124.579063 125.254844 124.579063 
C 125.254844 124.579063 125.254844 124.579063 125.254844 124.579063 
L 134.466347 132.138748 
C 134.713787 131.837242 134.946275 131.523769 135.16297 131.199461 
C 135.379666 130.875153 135.580308 130.540402 135.764172 130.196416 
z
" clip-path="url(#p170417f16a)" style="fill: #d9d9d9"/>
   </g>
   <g id="patch_15">
    <path d="M 125.254844 124.579063 
C 125.254844 124.579063 125.254844 124.579063 125.254844 124.579063 
C 125.254844 124.579063 125.254844 124.579063 125.254844 124.579063 
L 125.254844 124.579063 
C 125.254844 124.579063 125.254844 124.579063 125.254844 124.579063 
C 125.254844 124.579063 125.254844 124.579063 125.254844 124.579063 
z
" clip-path="url(#p170417f16a)" style="fill: #d9d9d9"/>
   </g>
   <g id="patch_16">
    <path d="M 125.254844 124.579063 
C 125.254844 124.579063 125.254844 124.579063 125.254844 124.579063 
C 125.254844 124.579063 125.254844 124.579063 125.254844 124.579063 
L 125.254844 124.579063 
C 125.254844 124.579063 125.254844 124.579063 125.254844 124.579063 
C 125.254844 124.579063 125.254844 124.579063 125.254844 124.579063 
z
" clip-path="url(#p170417f16a)" style="fill: #d9d9d9"/>
   </g>
   <g id="patch_17">
    <path d="M 125.254844 124.579063 
C 125.254844 124.579063 125.254844 124.579063 125.254844 124.579063 
C 125.254844 124.579063 125.254844 124.579063 125.254844 124.579063 
L 125.254844 124.579063 
C 125.254844 124.579063 125.254844 124.579063 125.254844 124.579063 
C 125.254844 124.579063 125.254844 124.579063 125.254844 124.579063 
z
" clip-path="url(#p170417f16a)" style="fill: #d9d9d9"/>
   </g>
   <g id="patch_18">
    <path d="M 125.254844 124.579063 
C 125.254844 124.579063 125.254844 124.579063 125.254844 124.579063 
C 125.254844 124.579063 125.254844 124.579063 125.254844 124.579063 
L 125.254844 124.579063 
C 125.254844 124.579063 125.254844 124.579063 125.254844 124.579063 
C 125.254844 124.579063 125.254844 124.579063 125.254844 124.579063 
z
" clip-path="url(#p170417f16a)" style="fill: #d9d9d9"/>
   </g>
   <g id="patch_19">
    <path d="M 125.254844 124.579063 
C 125.254844 124.579063 125.254844 124.579063 125.254844 124.579063 
C 125.254844 124.579063 125.254844 124.579063 125.254844 124.579063 
L 125.254844 124.579063 
C 125.254844 124.579063 125.254844 124.579063 125.254844 124.579063 
C 125.254844 124.579063 125.254844 124.579063 125.254844 124.579063 
z
" clip-path="url(#p170417f16a)" style="fill: #d9d9d9"/>
   </g>
   <g id="patch_20">
    <path d="M 125.254844 124.579063 
C 125.254844 124.579063 125.254844 124.579063 125.254844 124.579063 
C 125.254844 124.579063 125.254844 124.579063 125.254844 124.579063 
L 125.254844 124.579063 
C 125.254844 124.579063 125.254844 124.579063 125.254844 124.579063 
C 125.254844 124.579063 125.254844 124.579063 125.254844 124.579063 
z
" clip-path="url(#p170417f16a)" style="fill: #d9d9d9"/>
   </g>
   <g id="patch_21">
    <path d="M 125.254844 124.579063 
C 125.254844 124.579063 125.254844 124.579063 125.254844 124.579063 
C 125.254844 124.579063 125.254844 124.579063 125.254844 124.579063 
L 125.254844 124.579063 
C 125.254844 124.579063 125.254844 124.579063 125.254844 124.579063 
C 125.254844 124.579063 125.254844 124.579063 125.254844 124.579063 
z
" clip-path="url(#p170417f16a)" style="fill: #d9d9d9"/>
   </g>
   <g id="patch_22">
    <path d="M 125.254844 124.579063 
C 125.254844 124.579063 125.254844 124.579063 125.254844 124.579063 
C 125.254844 124.579063 125.254844 124.579063 125.254844 124.579063 
L 125.254844 124.579063 
C 125.254844 124.579063 125.254844 124.579063 125.254844 124.579063 
C 125.254844 124.579063 125.254844 124.579063 125.254844 124.579063 
z
" clip-path="url(#p170417f16a)" style="fill: #d9d9d9"/>
   </g>
   <g id="patch_23">
    <path d="M 125.254844 124.579063 
C 125.254844 124.579063 125.254844 124.579063 125.254844 124.579063 
C 125.254844 124.579063 125.254844 124.579063 125.254844 124.579063 
L 125.254844 124.579063 
C 125.254844 124.579063 125.254844 124.579063 125.254844 124.579063 
C 125.254844 124.579063 125.254844 124.579063 125.254844 124.579063 
z
" clip-path="url(#p170417f16a)" style="fill: #d9d9d9"/>
   </g>
   <g id="patch_24">
    <path d="M 125.254844 124.579063 
C 125.254844 124.579063 125.254844 124.579063 125.254844 124.579063 
C 125.254844 124.579063 125.254844 124.579063 125.254844 124.579063 
L 125.254844 124.579063 
C 125.254844 124.579063 125.254844 124.579063 125.254844 124.579063 
C 125.254844 124.579063 125.254844 124.579063 125.254844 124.579063 
z
" clip-path="url(#p170417f16a)" style="fill: #d9d9d9"/>
   </g>
   <g id="patch_25">
    <path d="M 125.254844 124.579063 
C 125.254844 124.579063 125.254844 124.579063 125.254844 124.579063 
C 125.254844 124.579063 125.254844 124.579063 125.254844 124.579063 
L 125.254844 124.579063 
C 125.254844 124.579063 125.254844 124.579063 125.254844 124.579063 
C 125.254844 124.579063 125.254844 124.579063 125.254844 124.579063 
z
" clip-path="url(#p170417f16a)" style="fill: #d9d9d9"/>
   </g>
   <g id="patch_26">
    <path d="M 125.254844 124.579063 
C 125.254844 124.579063 125.254844 124.579063 125.254844 124.579063 
C 125.254844 124.579063 125.254844 124.579063 125.254844 124.579063 
L 125.254844 124.579063 
C 125.254844 124.579063 125.254844 124.579063 125.254844 124.579063 
C 125.254844 124.579063 125.254844 124.579063 125.254844 124.579063 
z
" clip-path="url(#p170417f16a)" style="fill: #d9d9d9"/>
   </g>
   <g id="patch_27">
    <path d="M 125.254844 124.579063 
C 125.254844 124.579063 125.254844 124.579063 125.254844 124.579063 
C 125.254844 124.579063 125.254844 124.579063 125.254844 124.579063 
L 125.254844 124.579063 
C 125.254844 124.579063 125.254844 124.579063 125.254844 124.579063 
C 125.254844 124.579063 125.254844 124.579063 125.254844 124.579063 
z
" clip-path="url(#p170417f16a)" style="fill: #d9d9d9"/>
   </g>
   <g id="patch_28">
    <path d="M 125.254844 124.579063 
C 125.254844 124.579063 125.254844 124.579063 125.254844 124.579063 
C 125.254844 124.579063 125.254844 124.579063 125.254844 124.579063 
L 117.611448 122.260464 
C 117.535557 122.510644 117.471995 122.764399 117.420991 123.020812 
C 117.369987 123.277226 117.331603 123.535989 117.305978 123.796168 
z
" clip-path="url(#p170417f16a)" style="fill: #d9d9d9"/>
   </g>
   <g id="patch_29">
    <path d="M 125.254844 124.579063 
C 125.254844 124.579063 125.254844 124.579063 125.254844 124.579063 
C 125.254844 124.579063 125.254844 124.579063 125.254844 124.579063 
L 125.254844 124.579063 
C 125.254844 124.579063 125.254844 124.579063 125.254844 124.579063 
C 125.254844 124.579063 125.254844 124.579063 125.254844 124.579063 
z
" clip-path="url(#p170417f16a)" style="fill: #d9d9d9"/>
   </g>
   <g id="patch_30">
    <path d="M 125.254844 124.579063 
C 125.254844 124.579063 125.254844 124.579063 125.254844 124.579063 
C 125.254844 124.579063 125.254844 124.579063 125.254844 124.579063 
L 122.77519 122.544063 
C 122.708582 122.625226 122.645998 122.70961 122.587666 122.796911 
C 122.529333 122.884212 122.475322 122.974324 122.425828 123.066922 
z
" clip-path="url(#p170417f16a)" style="fill: #d9d9d9"/>
   </g>
   <g id="patch_31">
    <path d="M 125.254844 124.579063 
C 125.254844 124.579063 125.254844 124.579063 125.254844 124.579063 
C 125.254844 124.579063 125.254844 124.579063 125.254844 124.579063 
L 124.344765 123.470128 
C 124.308467 123.499916 124.273655 123.531468 124.240452 123.564671 
C 124.20725 123.597873 124.175697 123.632686 124.145909 123.668983 
z
" clip-path="url(#p170417f16a)" style="fill: #d9d9d9"/>
   </g>
   <g id="patch_32">
    <path d="M 125.254844 124.579063 
C 125.254844 124.579063 125.254844 124.579063 125.254844 124.579063 
C 125.254844 124.579063 125.254844 124.579063 125.254844 124.579063 
L 116.862804 108.87866 
C 116.348906 109.153344 115.848804 109.453093 115.364305 109.776825 
C 114.879806 110.100557 114.411493 110.447882 113.961058 110.817544 
z
" clip-path="url(#p170417f16a)" style="fill: #d9d9d9"/>
   </g>
   <g id="patch_33">
    <path d="M 125.254844 124.579063 
C 125.254844 124.579063 125.254844 124.579063 125.254844 124.579063 
C 125.254844 124.579063 125.254844 124.579063 125.254844 124.579063 
L 120.275034 108.16283 
C 119.737706 108.325826 119.208705 108.515106 118.689941 108.729985 
C 118.171177 108.944864 117.663276 109.185084 117.168071 109.449776 
z
" clip-path="url(#p170417f16a)" style="fill: #d9d9d9"/>
   </g>
   <g id="patch_34">
    <path d="M 125.254844 124.579063 
C 125.254844 124.579063 125.254844 124.579063 125.254844 124.579063 
C 125.254844 124.579063 125.254844 124.579063 125.254844 124.579063 
L 125.254844 124.579063 
C 125.254844 124.579063 125.254844 124.579063 125.254844 124.579063 
C 125.254844 124.579063 125.254844 124.579063 125.254844 124.579063 
z
" clip-path="url(#p170417f16a)" style="fill: #d9d9d9"/>
   </g>
   <g id="patch_35">
    <path d="M 125.254844 124.579063 
C 125.254844 124.579063 125.254844 124.579063 125.254844 124.579063 
C 125.254844 124.579063 125.254844 124.579063 125.254844 124.579063 
L 129.985767 76.545196 
C 128.413546 76.390346 126.834671 76.312781 125.254844 76.312781 
C 123.675016 76.312781 122.096141 76.390346 120.523921 76.545196 
z
" clip-path="url(#p170417f16a)" style="fill: #a1a1d8"/>
   </g>
   <g id="patch_36">
    <path d="M 127.442254 102.369909 
C 128.169193 102.441506 128.892179 102.548751 129.608599 102.691255 
C 130.32502 102.83376 131.034012 103.011354 131.733015 103.223394 
L 137.230449 85.100782 
C 135.938266 84.708803 134.627617 84.380502 133.303235 84.117066 
C 131.978854 83.85363 130.642336 83.655377 129.298511 83.523021 
z
" clip-path="url(#p170417f16a)" style="fill: #a1a1d8"/>
   </g>
   <g id="patch_37">
    <path d="M 133.012124 99.006737 
C 133.849144 99.260644 134.673194 99.555494 135.481297 99.890221 
C 136.289399 100.224948 137.080581 100.599149 137.851983 101.011472 
L 140.646029 95.784179 
C 139.70353 95.280403 138.736864 94.823204 137.749525 94.414235 
C 136.762185 94.005265 135.755361 93.645018 134.732689 93.334794 
z
" clip-path="url(#p170417f16a)" style="fill: #a1a1d8"/>
   </g>
   <g id="patch_38">
    <path d="M 133.835493 108.525797 
C 134.36094 108.806655 134.872281 109.113141 135.36767 109.444149 
C 135.863058 109.775157 136.341896 110.130287 136.802455 110.508258 
L 143.615002 102.207145 
C 142.882736 101.60619 142.121405 101.041549 141.333761 100.515262 
C 140.546117 99.988975 139.733109 99.501676 138.897672 99.055126 
z
" clip-path="url(#p170417f16a)" style="fill: #a1a1d8"/>
   </g>
   <g id="patch_39">
    <path d="M 137.120825 110.120322 
C 137.594081 110.508714 138.047983 110.920107 138.480891 111.353015 
C 138.9138 111.785923 139.325192 112.239825 139.713584 112.713081 
L 169.348073 88.392684 
C 168.163639 86.949447 166.90906 85.565232 165.588867 84.245039 
C 164.268674 82.924846 162.884459 81.670267 161.441222 80.485833 
z
" clip-path="url(#p170417f16a)" style="fill: #a1a1d8"/>
   </g>
   <g id="patch_40">
    <path d="M 125.254844 124.579063 
C 125.254844 124.579063 125.254844 124.579063 125.254844 124.579063 
C 125.254844 124.579063 125.254844 124.579063 125.254844 124.579063 
L 186.768874 91.699128 
C 185.692664 89.685682 184.518249 87.726289 183.24987 85.828025 
C 181.98149 83.929761 180.620676 82.094915 179.172342 80.330115 
z
" clip-path="url(#p170417f16a)" style="fill: #a1a1d8"/>
   </g>
   <g id="patch_41">
    <path d="M 137.779432 117.884531 
C 137.998554 118.294479 138.197417 118.714939 138.375302 119.144391 
C 138.553186 119.573843 138.709879 120.01177 138.844814 120.45659 
L 158.173296 114.593359 
C 157.846449 113.515889 157.466898 112.455116 157.036014 111.414871 
C 156.605131 110.374625 156.123434 109.356162 155.592663 108.36316 
z
" clip-path="url(#p170417f16a)" style="fill: #a1a1d8"/>
   </g>
   <g id="patch_42">
    <path d="M 139.388627 120.291626 
C 139.528961 120.754246 139.646497 121.223477 139.740811 121.697624 
C 139.835125 122.171772 139.906102 122.650264 139.953488 123.131372 
L 161.792861 120.980382 
C 161.675071 119.784438 161.498634 118.594998 161.264188 117.416359 
C 161.029742 116.237719 160.73757 115.0713 160.388726 113.921316 
z
" clip-path="url(#p170417f16a)" style="fill: #a1a1d8"/>
   </g>
   <g id="patch_43">
    <path d="M 143.313454 122.800445 
C 143.37167 123.39153 143.400831 123.985117 143.400831 124.579063 
C 143.400831 125.173008 143.37167 125.766595 143.313454 126.35768 
L 158.705951 127.873709 
C 158.81379 126.778804 158.867807 125.679265 158.867807 124.579063 
C 158.867807 123.47886 158.81379 122.379321 158.705951 121.284416 
z
" clip-path="url(#p170417f16a)" style="fill: #a1a1d8"/>
   </g>
   <g id="patch_44">
    <path d="M 139.169937 125.94958 
C 139.125078 126.405041 139.057884 126.858026 138.968598 127.306898 
C 138.879312 127.755769 138.768041 128.199987 138.635188 128.637946 
L 150.900758 132.358666 
C 151.155396 131.519237 151.368667 130.667811 151.539801 129.807466 
C 151.710934 128.94712 151.839724 128.07889 151.925705 127.205913 
z
" clip-path="url(#p170417f16a)" style="fill: #a1a1d8"/>
   </g>
   <g id="patch_45">
    <path d="M 145.570346 130.741703 
C 145.368633 131.406659 145.134395 132.061312 144.868477 132.703295 
C 144.602558 133.345279 144.305281 133.973819 143.977717 134.586647 
L 157.136238 141.620023 
C 157.694014 140.576497 158.20022 139.506215 158.653027 138.413043 
C 159.105834 137.319871 159.504696 136.205125 159.848173 135.072834 
z
" clip-path="url(#p170417f16a)" style="fill: #a1a1d8"/>
   </g>
   <g id="patch_46">
    <path d="M 135.764172 130.196416 
C 135.580308 130.540402 135.379666 130.875153 135.16297 131.199461 
C 134.946275 131.523769 134.713787 131.837242 134.466347 132.138748 
L 150.56675 145.352007 
C 151.246679 144.523511 151.885522 143.662131 152.480971 142.770979 
C 153.076419 141.879827 153.627756 140.959978 154.132989 140.014753 
z
" clip-path="url(#p170417f16a)" style="fill: #a1a1d8"/>
   </g>
   <g id="patch_47">
    <path d="M 125.254844 124.579063 
C 125.254844 124.579063 125.254844 124.579063 125.254844 124.579063 
C 125.254844 124.579063 125.254844 124.579063 125.254844 124.579063 
L 140.806284 143.528548 
C 141.426529 143.019526 142.021409 142.480359 142.588774 141.912993 
C 143.15614 141.345628 143.695307 140.750748 144.204329 140.130503 
z
" clip-path="url(#p170417f16a)" style="fill: #a1a1d8"/>
   </g>
   <g id="patch_48">
    <path d="M 125.254844 124.579063 
C 125.254844 124.579063 125.254844 124.579063 125.254844 124.579063 
C 125.254844 124.579063 125.254844 124.579063 125.254844 124.579063 
L 139.310433 150.875221 
C 140.171146 150.415161 141.008752 149.913119 141.820226 149.370909 
C 142.6317 148.8287 143.416064 148.246976 144.170485 147.627838 
z
" clip-path="url(#p170417f16a)" style="fill: #a1a1d8"/>
   </g>
   <g id="patch_49">
    <path d="M 125.254844 124.579063 
C 125.254844 124.579063 125.254844 124.579063 125.254844 124.579063 
C 125.254844 124.579063 125.254844 124.579063 125.254844 124.579063 
L 132.967284 150.003569 
C 133.799466 149.75113 134.618752 149.457984 135.422184 149.125192 
C 136.225615 148.7924 137.012223 148.420362 137.779166 148.010422 
z
" clip-path="url(#p170417f16a)" style="fill: #a1a1d8"/>
   </g>
   <g id="patch_50">
    <path d="M 125.254844 124.579063 
C 125.254844 124.579063 125.254844 124.579063 125.254844 124.579063 
C 125.254844 124.579063 125.254844 124.579063 125.254844 124.579063 
L 127.665839 149.058304 
C 128.467081 148.979389 129.263965 148.861182 130.053614 148.704111 
C 130.843263 148.54704 131.624724 148.351294 132.395175 148.117581 
z
" clip-path="url(#p170417f16a)" style="fill: #a1a1d8"/>
   </g>
   <g id="patch_51">
    <path d="M 125.254844 124.579063 
C 125.254844 124.579063 125.254844 124.579063 125.254844 124.579063 
C 125.254844 124.579063 125.254844 124.579063 125.254844 124.579063 
L 122.885207 148.63839 
C 123.672705 148.715951 124.463536 148.754802 125.254844 148.754802 
C 126.046152 148.754802 126.836983 148.715951 127.624481 148.63839 
z
" clip-path="url(#p170417f16a)" style="fill: #a1a1d8"/>
   </g>
   <g id="patch_52">
    <path d="M 125.254844 124.579063 
C 125.254844 124.579063 125.254844 124.579063 125.254844 124.579063 
C 125.254844 124.579063 125.254844 124.579063 125.254844 124.579063 
L 119.84122 142.425389 
C 120.425357 142.602585 121.017841 142.750994 121.616534 142.870082 
C 122.215226 142.989169 122.819405 143.078791 123.426887 143.138622 
z
" clip-path="url(#p170417f16a)" style="fill: #a1a1d8"/>
   </g>
   <g id="patch_53">
    <path d="M 125.254844 124.579063 
C 125.254844 124.579063 125.254844 124.579063 125.254844 124.579063 
C 125.254844 124.579063 125.254844 124.579063 125.254844 124.579063 
L 114.101845 145.444855 
C 114.784814 145.809909 115.485294 146.141211 116.200755 146.437565 
C 116.916217 146.733919 117.645797 146.994967 118.386861 147.219766 
z
" clip-path="url(#p170417f16a)" style="fill: #a1a1d8"/>
   </g>
   <g id="patch_54">
    <path d="M 125.254844 124.579063 
C 125.254844 124.579063 125.254844 124.579063 125.254844 124.579063 
C 125.254844 124.579063 125.254844 124.579063 125.254844 124.579063 
L 106.515165 147.413427 
C 107.262568 148.026804 108.039636 148.603117 108.843561 149.140283 
C 109.647486 149.677449 110.477301 150.17482 111.330006 150.630601 
z
" clip-path="url(#p170417f16a)" style="fill: #a1a1d8"/>
   </g>
   <g id="patch_55">
    <path d="M 125.254844 124.579063 
C 125.254844 124.579063 125.254844 124.579063 125.254844 124.579063 
C 125.254844 124.579063 125.254844 124.579063 125.254844 124.579063 
L 95.519673 148.982087 
C 96.31842 149.955363 97.164471 150.888837 98.054771 151.779136 
C 98.94507 152.669435 99.878543 153.515486 100.85182 154.314233 
z
" clip-path="url(#p170417f16a)" style="fill: #a1a1d8"/>
   </g>
   <g id="patch_56">
    <path d="M 125.254844 124.579063 
C 125.254844 124.579063 125.254844 124.579063 125.254844 124.579063 
C 125.254844 124.579063 125.254844 124.579063 125.254844 124.579063 
L 99.637012 138.272079 
C 100.085205 139.110589 100.574296 139.926588 101.102519 140.71713 
C 101.630742 141.507671 102.197461 142.271802 102.800627 143.006762 
z
" clip-path="url(#p170417f16a)" style="fill: #a1a1d8"/>
   </g>
   <g id="patch_57">
    <path d="M 125.254844 124.579063 
C 125.254844 124.579063 125.254844 124.579063 125.254844 124.579063 
C 125.254844 124.579063 125.254844 124.579063 125.254844 124.579063 
L 98.040255 132.834518 
C 98.310468 133.725292 98.624254 134.602262 98.980477 135.462262 
C 99.3367 136.322261 99.734932 137.164252 100.173735 137.985194 
z
" clip-path="url(#p170417f16a)" style="fill: #a1a1d8"/>
   </g>
   <g id="patch_58">
    <path d="M 125.254844 124.579063 
C 125.254844 124.579063 125.254844 124.579063 125.254844 124.579063 
C 125.254844 124.579063 125.254844 124.579063 125.254844 124.579063 
L 103.415868 126.730014 
C 103.486272 127.444836 103.591729 128.155771 103.731859 128.86025 
C 103.871988 129.56473 104.046622 130.261905 104.255128 130.949257 
z
" clip-path="url(#p170417f16a)" style="fill: #a1a1d8"/>
   </g>
   <g id="patch_59">
    <path d="M 125.254844 124.579063 
C 125.254844 124.579063 125.254844 124.579063 125.254844 124.579063 
C 125.254844 124.579063 125.254844 124.579063 125.254844 124.579063 
L 83.096597 120.426838 
C 82.960689 121.80674 82.892611 123.192483 82.892611 124.579062 
C 82.892611 125.965642 82.960689 127.351385 83.096597 128.731287 
z
" clip-path="url(#p170417f16a)" style="fill: #a1a1d8"/>
   </g>
   <g id="patch_60">
    <path d="M 117.305978 123.796168 
C 117.331603 123.535989 117.369987 123.277226 117.420991 123.020812 
C 117.471995 122.764399 117.535557 122.510644 117.611448 122.260464 
L 87.161348 113.023527 
C 86.783118 114.270384 86.466333 115.535059 86.212138 116.812985 
C 85.957943 118.090912 85.766643 119.380548 85.638931 120.677236 
z
" clip-path="url(#p170417f16a)" style="fill: #a1a1d8"/>
   </g>
   <g id="patch_61">
    <path d="M 125.254844 124.579063 
C 125.254844 124.579063 125.254844 124.579063 125.254844 124.579063 
C 125.254844 124.579063 125.254844 124.579063 125.254844 124.579063 
L 62.211568 90.88173 
C 61.108604 92.94523 60.107617 95.061639 59.212222 97.223313 
C 58.316828 99.384987 57.528105 101.589319 56.848903 103.828347 
z
" clip-path="url(#p170417f16a)" style="fill: #a1a1d8"/>
   </g>
   <g id="patch_62">
    <path d="M 122.425828 123.066922 
C 122.475322 122.974324 122.529333 122.884212 122.587666 122.796911 
C 122.645998 122.70961 122.708582 122.625226 122.77519 122.544063 
L 68.2336 77.782937 
C 66.701893 79.649328 65.262744 81.589796 63.921351 83.597333 
C 62.579958 85.60487 61.337937 87.677055 60.199776 89.806405 
z
" clip-path="url(#p170417f16a)" style="fill: #a1a1d8"/>
   </g>
   <g id="patch_63">
    <path d="M 124.145909 123.668983 
C 124.175697 123.632686 124.20725 123.597873 124.240452 123.564671 
C 124.273655 123.531468 124.308467 123.499916 124.344765 123.470128 
L 85.616743 76.279897 
C 84.035839 77.577311 82.519588 78.951562 81.073465 80.397684 
C 79.627343 81.843807 78.253093 83.360058 76.955678 84.940962 
z
" clip-path="url(#p170417f16a)" style="fill: #a1a1d8"/>
   </g>
   <g id="patch_64">
    <path d="M 113.961058 110.817544 
C 114.411493 110.447882 114.879806 110.100557 115.364305 109.776825 
C 115.848804 109.453093 116.348906 109.153344 116.862804 108.87866 
L 98.99405 75.448572 
C 97.385935 76.308127 95.820992 77.246118 94.304872 78.259157 
C 92.788753 79.272196 91.323284 80.359061 89.91376 81.515828 
z
" clip-path="url(#p170417f16a)" style="fill: #a1a1d8"/>
   </g>
   <g id="patch_65">
    <path d="M 117.168071 109.449776 
C 117.663276 109.185084 118.171177 108.944864 118.689941 108.729985 
C 119.208705 108.515106 119.737706 108.325826 120.275034 108.16283 
L 110.199782 74.949176 
C 108.575322 75.441951 106.976035 76.014185 105.407697 76.663812 
C 103.839359 77.313439 102.303862 78.039675 100.806751 78.839897 
z
" clip-path="url(#p170417f16a)" style="fill: #a1a1d8"/>
   </g>
   <g id="patch_66">
    <path d="M 125.254844 124.579063 
C 125.254844 124.579063 125.254844 124.579063 125.254844 124.579063 
C 125.254844 124.579063 125.254844 124.579063 125.254844 124.579063 
L 122.255485 94.126067 
C 121.258713 94.22424 120.267362 94.371293 119.285013 94.566695 
C 118.302663 94.762096 117.330499 95.005611 116.372033 95.296358 
z
" clip-path="url(#p170417f16a)" style="fill: #a1a1d8"/>
   </g>
   <g id="patch_67">
    <path d="M 120.523921 76.545196 
C 122.096141 76.390346 123.675016 76.312781 125.254844 76.312781 
C 126.834671 76.312781 128.413546 76.390346 129.985767 76.545196 
L 131.366215 62.529273 
C 129.335232 62.329239 127.295653 62.229041 125.254844 62.229041 
C 123.214034 62.229041 121.174455 62.329239 119.143473 62.529273 
z
" clip-path="url(#p170417f16a)" style="fill: #ff8c8e"/>
   </g>
   <g id="patch_68">
    <path d="M 129.298511 83.523021 
C 130.642336 83.655377 131.978854 83.85363 133.303235 84.117066 
C 134.627617 84.380502 135.938266 84.708803 137.230449 85.100782 
L 141.833883 69.925294 
C 140.044984 69.382637 138.23052 68.928137 136.397045 68.563436 
C 134.563569 68.198736 132.713294 67.924273 130.8529 67.74104 
z
" clip-path="url(#p170417f16a)" style="fill: #ff8c8e"/>
   </g>
   <g id="patch_69">
    <path d="M 134.732689 93.334794 
C 135.755361 93.645018 136.762185 94.005265 137.749525 94.414235 
C 138.736864 94.823204 139.70353 95.280403 140.646029 95.784179 
L 147.652909 82.675229 
C 146.281334 81.942107 144.874592 81.276767 143.437763 80.681613 
C 142.000934 80.086459 140.53575 79.562208 139.047504 79.110754 
z
" clip-path="url(#p170417f16a)" style="fill: #ff8c8e"/>
   </g>
   <g id="patch_70">
    <path d="M 138.897672 99.055126 
C 139.733109 99.501676 140.546117 99.988975 141.333761 100.515262 
C 142.121405 101.041549 142.882736 101.60619 143.615002 102.207145 
L 152.206099 91.738863 
C 151.13119 90.856708 150.013618 90.02786 148.857419 89.255312 
C 147.70122 88.482765 146.507788 87.767449 145.281433 87.111949 
z
" clip-path="url(#p170417f16a)" style="fill: #ff8c8e"/>
   </g>
   <g id="patch_71">
    <path d="M 161.441222 80.485833 
C 162.884459 81.670267 164.268674 82.924846 165.588867 84.245039 
C 166.90906 85.565232 168.163639 86.949447 169.348073 88.392684 
L 181.559905 78.370693 
C 180.047436 76.527744 178.445395 74.760164 176.759568 73.074338 
C 175.073742 71.388511 173.306162 69.78647 171.463213 68.274001 
z
" clip-path="url(#p170417f16a)" style="fill: #ff8c8e"/>
   </g>
   <g id="patch_72">
    <path d="M 179.172342 80.330115 
C 180.620676 82.094915 181.98149 83.929761 183.24987 85.828025 
C 184.518249 87.726289 185.692664 89.685682 186.768874 91.699128 
L 202.316333 83.388838 
C 200.968116 80.866501 199.496871 78.411877 197.907913 76.033834 
C 196.318955 73.65579 194.6142 71.357193 192.799804 69.146346 
z
" clip-path="url(#p170417f16a)" style="fill: #ff8c8e"/>
   </g>
   <g id="patch_73">
    <path d="M 155.592663 108.36316 
C 156.123434 109.356162 156.605131 110.374625 157.036014 111.414871 
C 157.466898 112.455116 157.846449 113.515889 158.173296 114.593359 
L 180.286606 107.88536 
C 179.740196 106.084088 179.105678 104.310729 178.385344 102.571689 
C 177.665009 100.832648 176.859727 99.130022 175.972406 97.469961 
z
" clip-path="url(#p170417f16a)" style="fill: #ff8c8e"/>
   </g>
   <g id="patch_74">
    <path d="M 160.388726 113.921316 
C 160.73757 115.0713 161.029742 116.237719 161.264188 117.416359 
C 161.498634 118.594998 161.675071 119.784438 161.792861 120.980382 
L 182.592708 118.931776 
C 182.407864 117.055022 182.130988 115.188474 181.76308 113.338875 
C 181.395172 111.489277 180.936675 109.658856 180.389246 107.854224 
z
" clip-path="url(#p170417f16a)" style="fill: #ff8c8e"/>
   </g>
   <g id="patch_75">
    <path d="M 158.705951 121.284416 
C 158.81379 122.379321 158.867807 123.47886 158.867807 124.579063 
C 158.867807 125.679265 158.81379 126.778804 158.705951 127.873709 
L 168.036983 128.792735 
C 168.174903 127.392412 168.243988 125.986161 168.243988 124.579063 
C 168.243988 123.171964 168.174903 121.765713 168.036983 120.36539 
z
" clip-path="url(#p170417f16a)" style="fill: #ff8c8e"/>
   </g>
   <g id="patch_76">
    <path d="M 151.925705 127.205913 
C 151.839724 128.07889 151.710934 128.94712 151.539801 129.807466 
C 151.368667 130.667811 151.155396 131.519237 150.900758 132.358666 
L 160.442324 135.253068 
C 160.7917 134.101329 161.084318 132.933131 161.319122 131.752693 
C 161.553925 130.572256 161.730631 129.381001 161.848601 128.183233 
z
" clip-path="url(#p170417f16a)" style="fill: #ff8c8e"/>
   </g>
   <g id="patch_77">
    <path d="M 159.848173 135.072834 
C 159.504696 136.205125 159.105834 137.319871 158.653027 138.413043 
C 158.20022 139.506215 157.694014 140.576497 157.136238 141.620023 
L 161.284563 143.837348 
C 161.914915 142.658042 162.486987 141.448498 162.998712 140.213085 
C 163.510437 138.977671 163.961198 137.717879 164.349367 136.438256 
z
" clip-path="url(#p170417f16a)" style="fill: #ff8c8e"/>
   </g>
   <g id="patch_78">
    <path d="M 154.132989 140.014753 
C 153.627756 140.959978 153.076419 141.879827 152.480971 142.770979 
C 151.885522 143.662131 151.246679 144.523511 150.56675 145.352007 
L 152.099312 146.609748 
C 152.820409 145.731088 153.497932 144.817555 154.129433 143.872446 
C 154.760934 142.927338 155.345653 141.951794 155.881476 140.949339 
z
" clip-path="url(#p170417f16a)" style="fill: #ff8c8e"/>
   </g>
   <g id="patch_79">
    <path d="M 144.204329 140.130503 
C 143.695307 140.750748 143.15614 141.345628 142.588774 141.912993 
C 142.021409 142.480359 141.426529 143.019526 140.806284 143.528548 
L 140.806284 143.528548 
C 141.426529 143.019526 142.021409 142.480359 142.588774 141.912993 
C 143.15614 141.345628 143.695307 140.750748 144.204329 140.130503 
z
" clip-path="url(#p170417f16a)" style="fill: #ff8c8e"/>
   </g>
   <g id="patch_80">
    <path d="M 144.170485 147.627838 
C 143.416064 148.246976 142.6317 148.8287 141.820226 149.370909 
C 141.008752 149.913119 140.171146 150.415161 139.310433 150.875221 
L 139.310433 150.875221 
C 140.171146 150.415161 141.008752 149.913119 141.820226 149.370909 
C 142.6317 148.8287 143.416064 148.246976 144.170485 147.627838 
z
" clip-path="url(#p170417f16a)" style="fill: #ff8c8e"/>
   </g>
   <g id="patch_81">
    <path d="M 137.779166 148.010422 
C 137.012223 148.420362 136.225615 148.7924 135.422184 149.125192 
C 134.618752 149.457984 133.799466 149.75113 132.967284 150.003569 
L 132.967284 150.003569 
C 133.799466 149.75113 134.618752 149.457984 135.422184 149.125192 
C 136.225615 148.7924 137.012223 148.420362 137.779166 148.010422 
z
" clip-path="url(#p170417f16a)" style="fill: #ff8c8e"/>
   </g>
   <g id="patch_82">
    <path d="M 132.395175 148.117581 
C 131.624724 148.351294 130.843263 148.54704 130.053614 148.704111 
C 129.263965 148.861182 128.467081 148.979389 127.665839 149.058304 
L 127.665839 149.058304 
C 128.467081 148.979389 129.263965 148.861182 130.053614 148.704111 
C 130.843263 148.54704 131.624724 148.351294 132.395175 148.117581 
z
" clip-path="url(#p170417f16a)" style="fill: #ff8c8e"/>
   </g>
   <g id="patch_83">
    <path d="M 127.624481 148.63839 
C 126.836983 148.715951 126.046152 148.754802 125.254844 148.754802 
C 124.463536 148.754802 123.672705 148.715951 122.885207 148.63839 
L 122.885207 148.63839 
C 123.672705 148.715951 124.463536 148.754802 125.254844 148.754802 
C 126.046152 148.754802 126.836983 148.715951 127.624481 148.63839 
z
" clip-path="url(#p170417f16a)" style="fill: #ff8c8e"/>
   </g>
   <g id="patch_84">
    <path d="M 123.426887 143.138622 
C 122.819405 143.078791 122.215226 142.989169 121.616534 142.870082 
C 121.017841 142.750994 120.425357 142.602585 119.84122 142.425389 
L 119.84122 142.425389 
C 120.425357 142.602585 121.017841 142.750994 121.616534 142.870082 
C 122.215226 142.989169 122.819405 143.078791 123.426887 143.138622 
z
" clip-path="url(#p170417f16a)" style="fill: #ff8c8e"/>
   </g>
   <g id="patch_85">
    <path d="M 118.386861 147.219766 
C 117.645797 146.994967 116.916217 146.733919 116.200755 146.437565 
C 115.485294 146.141211 114.784814 145.809909 114.101845 145.444855 
L 114.101845 145.444855 
C 114.784814 145.809909 115.485294 146.141211 116.200755 146.437565 
C 116.916217 146.733919 117.645797 146.994967 118.386861 147.219766 
z
" clip-path="url(#p170417f16a)" style="fill: #ff8c8e"/>
   </g>
   <g id="patch_86">
    <path d="M 111.330006 150.630601 
C 110.477301 150.17482 109.647486 149.677449 108.843561 149.140283 
C 108.039636 148.603117 107.262568 148.026804 106.515165 147.413427 
L 106.515165 147.413427 
C 107.262568 148.026804 108.039636 148.603117 108.843561 149.140283 
C 109.647486 149.677449 110.477301 150.17482 111.330006 150.630601 
z
" clip-path="url(#p170417f16a)" style="fill: #ff8c8e"/>
   </g>
   <g id="patch_87">
    <path d="M 100.85182 154.314233 
C 99.878543 153.515486 98.94507 152.669435 98.054771 151.779136 
C 97.164471 150.888837 96.31842 149.955363 95.519673 148.982087 
L 87.27484 155.748446 
C 88.295061 156.991588 89.375701 158.183891 90.512858 159.321048 
C 91.650015 160.458205 92.842318 161.538846 94.08546 162.559066 
z
" clip-path="url(#p170417f16a)" style="fill: #ff8c8e"/>
   </g>
   <g id="patch_88">
    <path d="M 102.800627 143.006762 
C 102.197461 142.271802 101.630742 141.507671 101.102519 140.71713 
C 100.574296 139.926588 100.085205 139.110589 99.637012 138.272079 
L 83.008622 147.160138 
C 83.747735 148.54292 84.554292 149.88858 85.425382 151.192258 
C 86.296472 152.495936 87.231043 153.75606 88.225721 154.968078 
z
" clip-path="url(#p170417f16a)" style="fill: #ff8c8e"/>
   </g>
   <g id="patch_89">
    <path d="M 100.173735 137.985194 
C 99.734932 137.164252 99.3367 136.322261 98.980477 135.462262 
C 98.624254 134.602262 98.310468 133.725292 98.040255 132.834518 
L 93.059962 134.345273 
C 93.379624 135.39906 93.750832 136.436517 94.172245 137.453896 
C 94.593657 138.471276 95.064767 139.467353 95.583871 140.438528 
z
" clip-path="url(#p170417f16a)" style="fill: #ff8c8e"/>
   </g>
   <g id="patch_90">
    <path d="M 104.255128 130.949257 
C 104.046622 130.261905 103.871988 129.56473 103.731859 128.86025 
C 103.591729 128.155771 103.486272 127.444836 103.415868 126.730014 
L 99.007662 127.164184 
C 99.092277 128.023294 99.219021 128.877731 99.387435 129.72441 
C 99.55585 130.571089 99.765733 131.408989 100.016326 132.235083 
z
" clip-path="url(#p170417f16a)" style="fill: #ff8c8e"/>
   </g>
   <g id="patch_91">
    <path d="M 83.096597 128.731287 
C 82.960689 127.351385 82.892611 125.965642 82.892611 124.579062 
C 82.892611 123.192483 82.960689 121.80674 83.096597 120.426838 
L 73.641488 119.495591 
C 73.475098 121.184973 73.391753 122.881506 73.391753 124.579062 
C 73.391753 126.276619 73.475098 127.973152 73.641488 129.662534 
z
" clip-path="url(#p170417f16a)" style="fill: #ff8c8e"/>
   </g>
   <g id="patch_92">
    <path d="M 85.638931 120.677236 
C 85.766643 119.380548 85.957943 118.090912 86.212138 116.812985 
C 86.466333 115.535059 86.783118 114.270384 87.161348 113.023527 
L 72.388892 108.542351 
C 71.863987 110.272733 71.424355 112.027843 71.071584 113.801342 
C 70.718813 115.574841 70.453328 117.364591 70.27609 119.164128 
z
" clip-path="url(#p170417f16a)" style="fill: #ff8c8e"/>
   </g>
   <g id="patch_93">
    <path d="M 56.848903 103.828347 
C 57.528105 101.589319 58.316828 99.384987 59.212222 97.223313 
C 60.107617 95.061639 61.108604 92.94523 62.211568 90.88173 
L 56.224533 87.681592 
C 55.016823 89.941058 53.920775 92.258456 52.940348 94.625418 
C 51.95992 96.992379 51.096295 99.40605 50.352591 101.857713 
z
" clip-path="url(#p170417f16a)" style="fill: #ff8c8e"/>
   </g>
   <g id="patch_94">
    <path d="M 60.199776 89.806405 
C 61.337937 87.677055 62.579958 85.60487 63.921351 83.597333 
C 65.262744 81.589796 66.701893 79.649328 68.2336 77.782937 
L 53.876999 66.000779 
C 51.959644 68.337082 50.158151 70.766114 48.479027 73.279102 
C 46.799902 75.792089 45.245171 78.386002 43.820448 81.051471 
z
" clip-path="url(#p170417f16a)" style="fill: #ff8c8e"/>
   </g>
   <g id="patch_95">
    <path d="M 76.955678 84.940962 
C 78.253093 83.360058 79.627343 81.843807 81.073465 80.397684 
C 82.519588 78.951562 84.035839 77.577311 85.616743 76.279897 
L 63.934143 49.859573 
C 61.488463 51.866691 59.1428 53.992675 56.905629 56.229847 
C 54.668457 58.467019 52.542472 60.812682 50.535354 63.258362 
z
" clip-path="url(#p170417f16a)" style="fill: #ff8c8e"/>
   </g>
   <g id="patch_96">
    <path d="M 89.91376 81.515828 
C 91.323284 80.359061 92.788753 79.272196 94.304872 78.259157 
C 95.820992 77.246118 97.385935 76.308127 98.99405 75.448572 
L 93.134755 64.486604 
C 91.16784 65.537942 89.253727 66.685217 87.399332 67.924285 
C 85.544936 69.163352 83.752493 70.492719 82.028477 71.907582 
z
" clip-path="url(#p170417f16a)" style="fill: #ff8c8e"/>
   </g>
   <g id="patch_97">
    <path d="M 100.806751 78.839897 
C 102.303862 78.039675 103.839359 77.313439 105.407697 76.663812 
C 106.976035 76.014185 108.575322 75.441951 110.199782 74.949176 
L 94.869527 24.412098 
C 91.590913 25.406655 88.363105 26.561583 85.197762 27.872712 
C 82.032418 29.18384 78.933356 30.649587 75.911767 32.26466 
z
" clip-path="url(#p170417f16a)" style="fill: #ff8c8e"/>
   </g>
   <g id="patch_98">
    <path d="M 116.372033 95.296358 
C 117.330499 95.005611 118.302663 94.762096 119.285013 94.566695 
C 120.267362 94.371293 121.258713 94.22424 122.255485 94.126067 
L 120.349517 74.774445 
C 118.719338 74.935004 117.098024 75.175503 115.491431 75.495074 
C 113.884839 75.814645 112.294905 76.212903 110.727373 76.688409 
z
" clip-path="url(#p170417f16a)" style="fill: #ff8c8e"/>
   </g>
   <g id="patch_99">
    <path d="M 119.143473 62.529273 
C 121.174455 62.329239 123.214034 62.229041 125.254844 62.229041 
C 127.295653 62.229041 129.335232 62.329239 131.366215 62.529273 
L 131.767172 58.458281 
C 129.60294 58.245123 127.429547 58.138351 125.254844 58.138351 
C 123.08014 58.138351 120.906747 58.245123 118.742515 58.458281 
z
" clip-path="url(#p170417f16a)" style="fill: #828282"/>
   </g>
   <g id="patch_100">
    <path d="M 130.8529 67.74104 
C 132.713294 67.924273 134.563569 68.198736 136.397045 68.563436 
C 138.23052 68.928137 140.044984 69.382637 141.833883 69.925294 
L 146.35364 55.025654 
C 144.077053 54.335058 141.767932 53.756654 139.434617 53.292529 
C 137.101302 52.828403 134.746607 52.479117 132.379035 52.245932 
z
" clip-path="url(#p170417f16a)" style="fill: #828282"/>
   </g>
   <g id="patch_101">
    <path d="M 139.047504 79.110754 
C 140.53575 79.562208 142.000934 80.086459 143.437763 80.681613 
C 144.874592 81.276767 146.281334 81.942107 147.652909 82.675229 
L 156.347634 66.408544 
C 154.443626 65.390831 152.490798 64.467212 150.496205 63.641025 
C 148.501613 62.814837 146.467658 62.087077 144.401689 61.460372 
z
" clip-path="url(#p170417f16a)" style="fill: #828282"/>
   </g>
   <g id="patch_102">
    <path d="M 145.281433 87.111949 
C 146.507788 87.767449 147.70122 88.482765 148.857419 89.255312 
C 150.013618 90.02786 151.13119 90.856708 152.206099 91.738863 
L 160.325382 81.845488 
C 158.926648 80.697577 157.472398 79.619032 155.967885 78.613748 
C 154.463371 77.608465 152.910408 76.677654 151.314604 75.824679 
z
" clip-path="url(#p170417f16a)" style="fill: #828282"/>
   </g>
   <g id="patch_103">
    <path d="M 171.463213 68.274001 
C 173.306162 69.78647 175.073742 71.388511 176.759568 73.074338 
C 178.445395 74.760164 180.047436 76.527744 181.559905 78.370693 
L 182.598672 77.518199 
C 181.058299 75.64125 179.426702 73.84106 177.709774 72.124132 
C 175.992846 70.407204 174.192656 68.775607 172.315707 67.235235 
z
" clip-path="url(#p170417f16a)" style="fill: #828282"/>
   </g>
   <g id="patch_104">
    <path d="M 192.799804 69.146346 
C 194.6142 71.357193 196.318955 73.65579 197.907913 76.033834 
C 199.496871 78.411877 200.968116 80.866501 202.316333 83.388838 
L 202.316333 83.388838 
C 200.968116 80.866501 199.496871 78.411877 197.907913 76.033834 
C 196.318955 73.65579 194.6142 71.357193 192.799804 69.146346 
z
" clip-path="url(#p170417f16a)" style="fill: #828282"/>
   </g>
   <g id="patch_105">
    <path d="M 175.972406 97.469961 
C 176.859727 99.130022 177.665009 100.832648 178.385344 102.571689 
C 179.105678 104.310729 179.740196 106.084088 180.286606 107.88536 
L 181.706577 107.454616 
C 181.146068 105.606867 180.495178 103.78775 179.756257 102.003838 
C 179.017337 100.219925 178.191276 98.473367 177.281059 96.770471 
z
" clip-path="url(#p170417f16a)" style="fill: #828282"/>
   </g>
   <g id="patch_106">
    <path d="M 180.389246 107.854224 
C 180.936675 109.658856 181.395172 111.489277 181.76308 113.338875 
C 182.130988 115.188474 182.407864 117.055022 182.592708 118.931776 
L 184.34335 118.759353 
C 184.152862 116.825298 183.867532 114.901761 183.488391 112.99569 
C 183.10925 111.089619 182.636755 109.203311 182.072612 107.343581 
z
" clip-path="url(#p170417f16a)" style="fill: #828282"/>
   </g>
   <g id="patch_107">
    <path d="M 168.036983 120.36539 
C 168.174903 121.765713 168.243988 123.171964 168.243988 124.579063 
C 168.243988 125.986161 168.174903 127.392412 168.036983 128.792735 
L 169.627241 128.949362 
C 169.770287 127.496987 169.84194 126.038465 169.84194 124.579063 
C 169.84194 123.11966 169.770287 121.661138 169.627241 120.208763 
z
" clip-path="url(#p170417f16a)" style="fill: #828282"/>
   </g>
   <g id="patch_108">
    <path d="M 161.848601 128.183233 
C 161.730631 129.381001 161.553925 130.572256 161.319122 131.752693 
C 161.084318 132.933131 160.7917 134.101329 160.442324 135.253068 
L 160.442324 135.253068 
C 160.7917 134.101329 161.084318 132.933131 161.319122 131.752693 
C 161.553925 130.572256 161.730631 129.381001 161.848601 128.183233 
z
" clip-path="url(#p170417f16a)" style="fill: #828282"/>
   </g>
   <g id="patch_109">
    <path d="M 164.349367 136.438256 
C 163.961198 137.717879 163.510437 138.977671 162.998712 140.213085 
C 162.486987 141.448498 161.914915 142.658042 161.284563 143.837348 
L 161.284563 143.837348 
C 161.914915 142.658042 162.486987 141.448498 162.998712 140.213085 
C 163.510437 138.977671 163.961198 137.717879 164.349367 136.438256 
z
" clip-path="url(#p170417f16a)" style="fill: #828282"/>
   </g>
   <g id="patch_110">
    <path d="M 155.881476 140.949339 
C 155.345653 141.951794 154.760934 142.927338 154.129433 143.872446 
C 153.497932 144.817555 152.820409 145.731088 152.099312 146.609748 
L 152.099312 146.609748 
C 152.820409 145.731088 153.497932 144.817555 154.129433 143.872446 
C 154.760934 142.927338 155.345653 141.951794 155.881476 140.949339 
z
" clip-path="url(#p170417f16a)" style="fill: #828282"/>
   </g>
   <g id="patch_111">
    <path d="M 144.204329 140.130503 
C 143.695307 140.750748 143.15614 141.345628 142.588774 141.912993 
C 142.021409 142.480359 141.426529 143.019526 140.806284 143.528548 
L 140.806284 143.528548 
C 141.426529 143.019526 142.021409 142.480359 142.588774 141.912993 
C 143.15614 141.345628 143.695307 140.750748 144.204329 140.130503 
z
" clip-path="url(#p170417f16a)" style="fill: #828282"/>
   </g>
   <g id="patch_112">
    <path d="M 144.170485 147.627838 
C 143.416064 148.246976 142.6317 148.8287 141.820226 149.370909 
C 141.008752 149.913119 140.171146 150.415161 139.310433 150.875221 
L 139.326692 150.905639 
C 140.1884 150.445046 141.026975 149.942424 141.839388 149.399587 
C 142.651801 148.85675 143.437072 148.274353 144.192366 147.6545 
z
" clip-path="url(#p170417f16a)" style="fill: #828282"/>
   </g>
   <g id="patch_113">
    <path d="M 137.779166 148.010422 
C 137.012223 148.420362 136.225615 148.7924 135.422184 149.125192 
C 134.618752 149.457984 133.799466 149.75113 132.967284 150.003569 
L 132.967284 150.003569 
C 133.799466 149.75113 134.618752 149.457984 135.422184 149.125192 
C 136.225615 148.7924 137.012223 148.420362 137.779166 148.010422 
z
" clip-path="url(#p170417f16a)" style="fill: #828282"/>
   </g>
   <g id="patch_114">
    <path d="M 132.395175 148.117581 
C 131.624724 148.351294 130.843263 148.54704 130.053614 148.704111 
C 129.263965 148.861182 128.467081 148.979389 127.665839 149.058304 
L 127.665839 149.058304 
C 128.467081 148.979389 129.263965 148.861182 130.053614 148.704111 
C 130.843263 148.54704 131.624724 148.351294 132.395175 148.117581 
z
" clip-path="url(#p170417f16a)" style="fill: #828282"/>
   </g>
   <g id="patch_115">
    <path d="M 127.624481 148.63839 
C 126.836983 148.715951 126.046152 148.754802 125.254844 148.754802 
C 124.463536 148.754802 123.672705 148.715951 122.885207 148.63839 
L 122.885207 148.63839 
C 123.672705 148.715951 124.463536 148.754802 125.254844 148.754802 
C 126.046152 148.754802 126.836983 148.715951 127.624481 148.63839 
z
" clip-path="url(#p170417f16a)" style="fill: #828282"/>
   </g>
   <g id="patch_116">
    <path d="M 123.426887 143.138622 
C 122.819405 143.078791 122.215226 142.989169 121.616534 142.870082 
C 121.017841 142.750994 120.425357 142.602585 119.84122 142.425389 
L 119.84122 142.425389 
C 120.425357 142.602585 121.017841 142.750994 121.616534 142.870082 
C 122.215226 142.989169 122.819405 143.078791 123.426887 143.138622 
z
" clip-path="url(#p170417f16a)" style="fill: #828282"/>
   </g>
   <g id="patch_117">
    <path d="M 118.386861 147.219766 
C 117.645797 146.994967 116.916217 146.733919 116.200755 146.437565 
C 115.485294 146.141211 114.784814 145.809909 114.101845 145.444855 
L 114.101845 145.444855 
C 114.784814 145.809909 115.485294 146.141211 116.200755 146.437565 
C 116.916217 146.733919 117.645797 146.994967 118.386861 147.219766 
z
" clip-path="url(#p170417f16a)" style="fill: #828282"/>
   </g>
   <g id="patch_118">
    <path d="M 111.330006 150.630601 
C 110.477301 150.17482 109.647486 149.677449 108.843561 149.140283 
C 108.039636 148.603117 107.262568 148.026804 106.515165 147.413427 
L 106.515165 147.413427 
C 107.262568 148.026804 108.039636 148.603117 108.843561 149.140283 
C 109.647486 149.677449 110.477301 150.17482 111.330006 150.630601 
z
" clip-path="url(#p170417f16a)" style="fill: #828282"/>
   </g>
   <g id="patch_119">
    <path d="M 94.08546 162.559066 
C 92.842318 161.538846 91.650015 160.458205 90.512858 159.321048 
C 89.375701 158.183891 88.295061 156.991588 87.27484 155.748446 
L 87.27484 155.748446 
C 88.295061 156.991588 89.375701 158.183891 90.512858 159.321048 
C 91.650015 160.458205 92.842318 161.538846 94.08546 162.559066 
z
" clip-path="url(#p170417f16a)" style="fill: #828282"/>
   </g>
   <g id="patch_120">
    <path d="M 88.225721 154.968078 
C 87.231043 153.75606 86.296472 152.495936 85.425382 151.192258 
C 84.554292 149.88858 83.747735 148.54292 83.008622 147.160138 
L 83.008622 147.160138 
C 83.747735 148.54292 84.554292 149.88858 85.425382 151.192258 
C 86.296472 152.495936 87.231043 153.75606 88.225721 154.968078 
z
" clip-path="url(#p170417f16a)" style="fill: #828282"/>
   </g>
   <g id="patch_121">
    <path d="M 95.583871 140.438528 
C 95.064767 139.467353 94.593657 138.471276 94.172245 137.453896 
C 93.750832 136.436517 93.379624 135.39906 93.059962 134.345273 
L 87.609228 135.998735 
C 87.983011 137.230932 88.417066 138.444035 88.909825 139.633662 
C 89.402585 140.823289 89.953455 141.988005 90.560445 143.123605 
z
" clip-path="url(#p170417f16a)" style="fill: #828282"/>
   </g>
   <g id="patch_122">
    <path d="M 100.016326 132.235083 
C 99.765733 131.408989 99.55585 130.571089 99.387435 129.72441 
C 99.219021 128.877731 99.092277 128.023294 99.007662 127.164184 
L 88.438967 128.20511 
C 88.557653 129.410149 88.735431 130.608634 88.97166 131.796237 
C 89.207889 132.983839 89.502283 134.159128 89.85378 135.317858 
z
" clip-path="url(#p170417f16a)" style="fill: #828282"/>
   </g>
   <g id="patch_123">
    <path d="M 73.641488 129.662534 
C 73.475098 127.973152 73.391753 126.276619 73.391753 124.579062 
C 73.391753 122.881506 73.475098 121.184973 73.641488 119.495591 
L 60.662174 118.21724 
C 60.453942 120.331454 60.349638 122.454618 60.349638 124.579062 
C 60.349638 126.703507 60.453942 128.826671 60.662174 130.940885 
z
" clip-path="url(#p170417f16a)" style="fill: #828282"/>
   </g>
   <g id="patch_124">
    <path d="M 70.27609 119.164128 
C 70.453328 117.364591 70.718813 115.574841 71.071584 113.801342 
C 71.424355 112.027843 71.863987 110.272733 72.388892 108.542351 
L 56.177229 103.624597 
C 55.491358 105.885611 54.91691 108.178936 54.45596 110.496289 
C 53.99501 112.813642 53.648113 115.15223 53.416523 117.503605 
z
" clip-path="url(#p170417f16a)" style="fill: #828282"/>
   </g>
   <g id="patch_125">
    <path d="M 50.352591 101.857713 
C 51.096295 99.40605 51.95992 96.992379 52.940348 94.625418 
C 53.920775 92.258456 55.016823 89.941058 56.224533 87.681592 
L 51.863819 85.350742 
C 50.579817 87.75294 49.414531 90.216731 48.372169 92.733216 
C 47.329807 95.249701 46.411625 97.815846 45.620941 100.422382 
z
" clip-path="url(#p170417f16a)" style="fill: #828282"/>
   </g>
   <g id="patch_126">
    <path d="M 43.820448 81.051471 
C 45.245171 78.386002 46.799902 75.792089 48.479027 73.279102 
C 50.158151 70.766114 51.959644 68.337082 53.876999 66.000779 
L 45.004435 58.719254 
C 42.848745 61.34597 40.823319 64.07694 38.935472 66.902302 
C 37.047626 69.727664 35.299635 72.644011 33.697812 75.64081 
z
" clip-path="url(#p170417f16a)" style="fill: #828282"/>
   </g>
   <g id="patch_127">
    <path d="M 50.535354 63.258362 
C 52.542472 60.812682 54.668457 58.467019 56.905629 56.229847 
C 59.1428 53.992675 61.488463 51.866691 63.934143 49.859573 
L 54.913317 38.867664 
C 52.107855 41.170047 49.417124 43.608783 46.850844 46.175063 
C 44.284564 48.741343 41.845828 51.432073 39.543445 54.237536 
z
" clip-path="url(#p170417f16a)" style="fill: #828282"/>
   </g>
   <g id="patch_128">
    <path d="M 82.028477 71.907582 
C 83.752493 70.492719 85.544936 69.163352 87.399332 67.924285 
C 89.253727 66.685217 91.16784 65.537942 93.134755 64.486604 
L 88.450446 55.722878 
C 86.196681 56.927541 84.003419 58.242131 81.878583 59.661901 
C 79.753748 61.081671 77.6999 62.604909 75.724457 64.226112 
z
" clip-path="url(#p170417f16a)" style="fill: #828282"/>
   </g>
   <g id="patch_129">
    <path d="M 75.911767 32.26466 
C 78.933356 30.649587 82.032418 29.18384 85.197762 27.872712 
C 88.363105 26.561583 91.590913 25.406655 94.869527 24.412098 
L 93.688262 20.51799 
C 90.282188 21.551211 86.928895 22.751039 83.640495 24.113138 
C 80.352096 25.475238 77.132553 26.997968 73.993497 28.675829 
z
" clip-path="url(#p170417f16a)" style="fill: #828282"/>
   </g>
   <g id="patch_130">
    <path d="M 110.727373 76.688409 
C 112.294905 76.212903 113.884839 75.814645 115.491431 75.495074 
C 117.098024 75.175503 118.719338 74.935004 120.349517 74.774445 
L 119.256127 63.673072 
C 117.262583 63.869419 115.279881 64.163525 113.315182 64.554328 
C 111.350482 64.945131 109.406155 65.432159 107.489222 66.013655 
z
" clip-path="url(#p170417f16a)" style="fill: #828282"/>
   </g>
   <g id="patch_131">
    <path d="M 125.254844 124.579063 
C 125.254844 124.579063 125.254844 124.579063 125.254844 124.579063 
C 125.254844 124.579063 125.254844 124.579063 125.254844 124.579063 
L 131.767172 58.458281 
C 129.60294 58.245123 127.429547 58.138351 125.254844 58.138351 
C 123.08014 58.138351 120.906747 58.245123 118.742515 58.458281 
L 125.254844 124.579063 
z
" clip-path="url(#p170417f16a)" style="fill: none; stroke: #292929; stroke-width: 0.5; stroke-linejoin: miter"/>
   </g>
   <g id="patch_132">
    <path d="M 125.254844 124.579063 
C 125.254844 124.579063 125.254844 124.579063 125.254844 124.579063 
C 125.254844 124.579063 125.254844 124.579063 125.254844 124.579063 
L 146.35364 55.025654 
C 144.077053 54.335058 141.767932 53.756654 139.434617 53.292529 
C 137.101302 52.828403 134.746607 52.479117 132.379035 52.245932 
L 125.254844 124.579063 
z
" clip-path="url(#p170417f16a)" style="fill: none; stroke: #292929; stroke-width: 0.5; stroke-linejoin: miter"/>
   </g>
   <g id="patch_133">
    <path d="M 125.254844 124.579063 
C 125.254844 124.579063 125.254844 124.579063 125.254844 124.579063 
C 125.254844 124.579063 125.254844 124.579063 125.254844 124.579063 
L 156.347634 66.408544 
C 154.443626 65.390831 152.490798 64.467212 150.496205 63.641025 
C 148.501613 62.814837 146.467658 62.087077 144.401689 61.460372 
L 125.254844 124.579063 
z
" clip-path="url(#p170417f16a)" style="fill: none; stroke: #292929; stroke-width: 0.5; stroke-linejoin: miter"/>
   </g>
   <g id="patch_134">
    <path d="M 125.254844 124.579063 
C 125.254844 124.579063 125.254844 124.579063 125.254844 124.579063 
C 125.254844 124.579063 125.254844 124.579063 125.254844 124.579063 
L 160.325382 81.845488 
C 158.926648 80.697577 157.472398 79.619032 155.967885 78.613748 
C 154.463371 77.608465 152.910408 76.677654 151.314604 75.824679 
L 125.254844 124.579063 
z
" clip-path="url(#p170417f16a)" style="fill: none; stroke: #292929; stroke-width: 0.5; stroke-linejoin: miter"/>
   </g>
   <g id="patch_135">
    <path d="M 125.254844 124.579063 
C 125.254844 124.579063 125.254844 124.579063 125.254844 124.579063 
C 125.254844 124.579063 125.254844 124.579063 125.254844 124.579063 
L 182.598672 77.518199 
C 181.058299 75.64125 179.426702 73.84106 177.709774 72.124132 
C 175.992846 70.407204 174.192656 68.775607 172.315707 67.235235 
L 125.254844 124.579063 
z
" clip-path="url(#p170417f16a)" style="fill: none; stroke: #292929; stroke-width: 0.5; stroke-linejoin: miter"/>
   </g>
   <g id="patch_136">
    <path d="M 125.254844 124.579063 
C 125.254844 124.579063 125.254844 124.579063 125.254844 124.579063 
C 125.254844 124.579063 125.254844 124.579063 125.254844 124.579063 
L 202.316333 83.388838 
C 200.968116 80.866501 199.496871 78.411877 197.907913 76.033834 
C 196.318955 73.65579 194.6142 71.357193 192.799804 69.146346 
L 125.254844 124.579063 
z
" clip-path="url(#p170417f16a)" style="fill: none; stroke: #292929; stroke-width: 0.5; stroke-linejoin: miter"/>
   </g>
   <g id="patch_137">
    <path d="M 125.254844 124.579063 
C 125.254844 124.579063 125.254844 124.579063 125.254844 124.579063 
C 125.254844 124.579063 125.254844 124.579063 125.254844 124.579063 
L 181.706577 107.454616 
C 181.146068 105.606867 180.495178 103.78775 179.756257 102.003838 
C 179.017337 100.219925 178.191276 98.473367 177.281059 96.770471 
L 125.254844 124.579063 
z
" clip-path="url(#p170417f16a)" style="fill: none; stroke: #292929; stroke-width: 0.5; stroke-linejoin: miter"/>
   </g>
   <g id="patch_138">
    <path d="M 125.254844 124.579063 
C 125.254844 124.579063 125.254844 124.579063 125.254844 124.579063 
C 125.254844 124.579063 125.254844 124.579063 125.254844 124.579063 
L 184.34335 118.759353 
C 184.152862 116.825298 183.867532 114.901761 183.488391 112.99569 
C 183.10925 111.089619 182.636755 109.203311 182.072612 107.343581 
L 125.254844 124.579063 
z
" clip-path="url(#p170417f16a)" style="fill: none; stroke: #292929; stroke-width: 0.5; stroke-linejoin: miter"/>
   </g>
   <g id="patch_139">
    <path d="M 125.254844 124.579063 
C 125.254844 124.579063 125.254844 124.579063 125.254844 124.579063 
C 125.254844 124.579063 125.254844 124.579063 125.254844 124.579063 
L 169.627241 128.949362 
C 169.770287 127.496987 169.84194 126.038465 169.84194 124.579063 
C 169.84194 123.11966 169.770287 121.661138 169.627241 120.208763 
L 125.254844 124.579063 
z
" clip-path="url(#p170417f16a)" style="fill: none; stroke: #292929; stroke-width: 0.5; stroke-linejoin: miter"/>
   </g>
   <g id="patch_140">
    <path d="M 125.254844 124.579063 
C 125.254844 124.579063 125.254844 124.579063 125.254844 124.579063 
C 125.254844 124.579063 125.254844 124.579063 125.254844 124.579063 
L 160.442324 135.253068 
C 160.7917 134.101329 161.084318 132.933131 161.319122 131.752693 
C 161.553925 130.572256 161.730631 129.381001 161.848601 128.183233 
L 125.254844 124.579063 
z
" clip-path="url(#p170417f16a)" style="fill: none; stroke: #292929; stroke-width: 0.5; stroke-linejoin: miter"/>
   </g>
   <g id="patch_141">
    <path d="M 125.254844 124.579063 
C 125.254844 124.579063 125.254844 124.579063 125.254844 124.579063 
C 125.254844 124.579063 125.254844 124.579063 125.254844 124.579063 
L 161.284563 143.837348 
C 161.914915 142.658042 162.486987 141.448498 162.998712 140.213085 
C 163.510437 138.977671 163.961198 137.717879 164.349367 136.438256 
L 125.254844 124.579063 
z
" clip-path="url(#p170417f16a)" style="fill: none; stroke: #292929; stroke-width: 0.5; stroke-linejoin: miter"/>
   </g>
   <g id="patch_142">
    <path d="M 125.254844 124.579063 
C 125.254844 124.579063 125.254844 124.579063 125.254844 124.579063 
C 125.254844 124.579063 125.254844 124.579063 125.254844 124.579063 
L 152.099312 146.609748 
C 152.820409 145.731088 153.497932 144.817555 154.129433 143.872446 
C 154.760934 142.927338 155.345653 141.951794 155.881476 140.949339 
L 125.254844 124.579063 
z
" clip-path="url(#p170417f16a)" style="fill: none; stroke: #292929; stroke-width: 0.5; stroke-linejoin: miter"/>
   </g>
   <g id="patch_143">
    <path d="M 125.254844 124.579063 
C 125.254844 124.579063 125.254844 124.579063 125.254844 124.579063 
C 125.254844 124.579063 125.254844 124.579063 125.254844 124.579063 
L 140.806284 143.528548 
C 141.426529 143.019526 142.021409 142.480359 142.588774 141.912993 
C 143.15614 141.345628 143.695307 140.750748 144.204329 140.130503 
L 125.254844 124.579063 
z
" clip-path="url(#p170417f16a)" style="fill: none; stroke: #292929; stroke-width: 0.5; stroke-linejoin: miter"/>
   </g>
   <g id="patch_144">
    <path d="M 125.254844 124.579063 
C 125.254844 124.579063 125.254844 124.579063 125.254844 124.579063 
C 125.254844 124.579063 125.254844 124.579063 125.254844 124.579063 
L 139.326692 150.905639 
C 140.1884 150.445046 141.026975 149.942424 141.839388 149.399587 
C 142.651801 148.85675 143.437072 148.274353 144.192366 147.6545 
L 125.254844 124.579063 
z
" clip-path="url(#p170417f16a)" style="fill: none; stroke: #292929; stroke-width: 0.5; stroke-linejoin: miter"/>
   </g>
   <g id="patch_145">
    <path d="M 125.254844 124.579063 
C 125.254844 124.579063 125.254844 124.579063 125.254844 124.579063 
C 125.254844 124.579063 125.254844 124.579063 125.254844 124.579063 
L 132.967284 150.003569 
C 133.799466 149.75113 134.618752 149.457984 135.422184 149.125192 
C 136.225615 148.7924 137.012223 148.420362 137.779166 148.010422 
L 125.254844 124.579063 
z
" clip-path="url(#p170417f16a)" style="fill: none; stroke: #292929; stroke-width: 0.5; stroke-linejoin: miter"/>
   </g>
   <g id="patch_146">
    <path d="M 125.254844 124.579063 
C 125.254844 124.579063 125.254844 124.579063 125.254844 124.579063 
C 125.254844 124.579063 125.254844 124.579063 125.254844 124.579063 
L 127.665839 149.058304 
C 128.467081 148.979389 129.263965 148.861182 130.053614 148.704111 
C 130.843263 148.54704 131.624724 148.351294 132.395175 148.117581 
L 125.254844 124.579063 
z
" clip-path="url(#p170417f16a)" style="fill: none; stroke: #292929; stroke-width: 0.5; stroke-linejoin: miter"/>
   </g>
   <g id="patch_147">
    <path d="M 125.254844 124.579063 
C 125.254844 124.579063 125.254844 124.579063 125.254844 124.579063 
C 125.254844 124.579063 125.254844 124.579063 125.254844 124.579063 
L 122.885207 148.63839 
C 123.672705 148.715951 124.463536 148.754802 125.254844 148.754802 
C 126.046152 148.754802 126.836983 148.715951 127.624481 148.63839 
L 125.254844 124.579063 
z
" clip-path="url(#p170417f16a)" style="fill: none; stroke: #292929; stroke-width: 0.5; stroke-linejoin: miter"/>
   </g>
   <g id="patch_148">
    <path d="M 125.254844 124.579063 
C 125.254844 124.579063 125.254844 124.579063 125.254844 124.579063 
C 125.254844 124.579063 125.254844 124.579063 125.254844 124.579063 
L 119.84122 142.425389 
C 120.425357 142.602585 121.017841 142.750994 121.616534 142.870082 
C 122.215226 142.989169 122.819405 143.078791 123.426887 143.138622 
L 125.254844 124.579063 
z
" clip-path="url(#p170417f16a)" style="fill: none; stroke: #292929; stroke-width: 0.5; stroke-linejoin: miter"/>
   </g>
   <g id="patch_149">
    <path d="M 125.254844 124.579063 
C 125.254844 124.579063 125.254844 124.579063 125.254844 124.579063 
C 125.254844 124.579063 125.254844 124.579063 125.254844 124.579063 
L 114.101845 145.444855 
C 114.784814 145.809909 115.485294 146.141211 116.200755 146.437565 
C 116.916217 146.733919 117.645797 146.994967 118.386861 147.219766 
L 125.254844 124.579063 
z
" clip-path="url(#p170417f16a)" style="fill: none; stroke: #292929; stroke-width: 0.5; stroke-linejoin: miter"/>
   </g>
   <g id="patch_150">
    <path d="M 125.254844 124.579063 
C 125.254844 124.579063 125.254844 124.579063 125.254844 124.579063 
C 125.254844 124.579063 125.254844 124.579063 125.254844 124.579063 
L 106.515165 147.413427 
C 107.262568 148.026804 108.039636 148.603117 108.843561 149.140283 
C 109.647486 149.677449 110.477301 150.17482 111.330006 150.630601 
L 125.254844 124.579063 
z
" clip-path="url(#p170417f16a)" style="fill: none; stroke: #292929; stroke-width: 0.5; stroke-linejoin: miter"/>
   </g>
   <g id="patch_151">
    <path d="M 125.254844 124.579063 
C 125.254844 124.579063 125.254844 124.579063 125.254844 124.579063 
C 125.254844 124.579063 125.254844 124.579063 125.254844 124.579063 
L 87.27484 155.748446 
C 88.295061 156.991588 89.375701 158.183891 90.512858 159.321048 
C 91.650015 160.458205 92.842318 161.538846 94.08546 162.559066 
L 125.254844 124.579063 
z
" clip-path="url(#p170417f16a)" style="fill: none; stroke: #292929; stroke-width: 0.5; stroke-linejoin: miter"/>
   </g>
   <g id="patch_152">
    <path d="M 125.254844 124.579063 
C 125.254844 124.579063 125.254844 124.579063 125.254844 124.579063 
C 125.254844 124.579063 125.254844 124.579063 125.254844 124.579063 
L 83.008622 147.160138 
C 83.747735 148.54292 84.554292 149.88858 85.425382 151.192258 
C 86.296472 152.495936 87.231043 153.75606 88.225721 154.968078 
L 125.254844 124.579063 
z
" clip-path="url(#p170417f16a)" style="fill: none; stroke: #292929; stroke-width: 0.5; stroke-linejoin: miter"/>
   </g>
   <g id="patch_153">
    <path d="M 125.254844 124.579063 
C 125.254844 124.579063 125.254844 124.579063 125.254844 124.579063 
C 125.254844 124.579063 125.254844 124.579063 125.254844 124.579063 
L 87.609228 135.998735 
C 87.983011 137.230932 88.417066 138.444035 88.909825 139.633662 
C 89.402585 140.823289 89.953455 141.988005 90.560445 143.123605 
L 125.254844 124.579063 
z
" clip-path="url(#p170417f16a)" style="fill: none; stroke: #292929; stroke-width: 0.5; stroke-linejoin: miter"/>
   </g>
   <g id="patch_154">
    <path d="M 125.254844 124.579063 
C 125.254844 124.579063 125.254844 124.579063 125.254844 124.579063 
C 125.254844 124.579063 125.254844 124.579063 125.254844 124.579063 
L 88.438967 128.20511 
C 88.557653 129.410149 88.735431 130.608634 88.97166 131.796237 
C 89.207889 132.983839 89.502283 134.159128 89.85378 135.317858 
L 125.254844 124.579063 
z
" clip-path="url(#p170417f16a)" style="fill: none; stroke: #292929; stroke-width: 0.5; stroke-linejoin: miter"/>
   </g>
   <g id="patch_155">
    <path d="M 125.254844 124.579063 
C 125.254844 124.579063 125.254844 124.579063 125.254844 124.579063 
C 125.254844 124.579063 125.254844 124.579063 125.254844 124.579063 
L 60.662174 118.21724 
C 60.453942 120.331454 60.349638 122.454618 60.349638 124.579062 
C 60.349638 126.703507 60.453942 128.826671 60.662174 130.940885 
L 125.254844 124.579063 
z
" clip-path="url(#p170417f16a)" style="fill: none; stroke: #292929; stroke-width: 0.5; stroke-linejoin: miter"/>
   </g>
   <g id="patch_156">
    <path d="M 125.254844 124.579063 
C 125.254844 124.579063 125.254844 124.579063 125.254844 124.579063 
C 125.254844 124.579063 125.254844 124.579063 125.254844 124.579063 
L 56.177229 103.624597 
C 55.491358 105.885611 54.91691 108.178936 54.45596 110.496289 
C 53.99501 112.813642 53.648113 115.15223 53.416523 117.503605 
L 125.254844 124.579063 
z
" clip-path="url(#p170417f16a)" style="fill: none; stroke: #292929; stroke-width: 0.5; stroke-linejoin: miter"/>
   </g>
   <g id="patch_157">
    <path d="M 125.254844 124.579063 
C 125.254844 124.579063 125.254844 124.579063 125.254844 124.579063 
C 125.254844 124.579063 125.254844 124.579063 125.254844 124.579063 
L 51.863819 85.350742 
C 50.579817 87.75294 49.414531 90.216731 48.372169 92.733216 
C 47.329807 95.249701 46.411625 97.815846 45.620941 100.422382 
L 125.254844 124.579063 
z
" clip-path="url(#p170417f16a)" style="fill: none; stroke: #292929; stroke-width: 0.5; stroke-linejoin: miter"/>
   </g>
   <g id="patch_158">
    <path d="M 125.254844 124.579063 
C 125.254844 124.579063 125.254844 124.579063 125.254844 124.579063 
C 125.254844 124.579063 125.254844 124.579063 125.254844 124.579063 
L 45.004435 58.719254 
C 42.848745 61.34597 40.823319 64.07694 38.935472 66.902302 
C 37.047626 69.727664 35.299635 72.644011 33.697812 75.64081 
L 125.254844 124.579063 
z
" clip-path="url(#p170417f16a)" style="fill: none; stroke: #292929; stroke-width: 0.5; stroke-linejoin: miter"/>
   </g>
   <g id="patch_159">
    <path d="M 125.254844 124.579063 
C 125.254844 124.579063 125.254844 124.579063 125.254844 124.579063 
C 125.254844 124.579063 125.254844 124.579063 125.254844 124.579063 
L 54.913317 38.867664 
C 52.107855 41.170047 49.417124 43.608783 46.850844 46.175063 
C 44.284564 48.741343 41.845828 51.432073 39.543445 54.237536 
L 125.254844 124.579063 
z
" clip-path="url(#p170417f16a)" style="fill: none; stroke: #292929; stroke-width: 0.5; stroke-linejoin: miter"/>
   </g>
   <g id="patch_160">
    <path d="M 125.254844 124.579063 
C 125.254844 124.579063 125.254844 124.579063 125.254844 124.579063 
C 125.254844 124.579063 125.254844 124.579063 125.254844 124.579063 
L 88.450446 55.722878 
C 86.196681 56.927541 84.003419 58.242131 81.878583 59.661901 
C 79.753748 61.081671 77.6999 62.604909 75.724457 64.226112 
L 125.254844 124.579063 
z
" clip-path="url(#p170417f16a)" style="fill: none; stroke: #292929; stroke-width: 0.5; stroke-linejoin: miter"/>
   </g>
   <g id="patch_161">
    <path d="M 125.254844 124.579063 
C 125.254844 124.579063 125.254844 124.579063 125.254844 124.579063 
C 125.254844 124.579063 125.254844 124.579063 125.254844 124.579063 
L 93.688262 20.51799 
C 90.282188 21.551211 86.928895 22.751039 83.640495 24.113138 
C 80.352096 25.475238 77.132553 26.997968 73.993497 28.675829 
L 125.254844 124.579063 
z
" clip-path="url(#p170417f16a)" style="fill: none; stroke: #292929; stroke-width: 0.5; stroke-linejoin: miter"/>
   </g>
   <g id="patch_162">
    <path d="M 125.254844 124.579063 
C 125.254844 124.579063 125.254844 124.579063 125.254844 124.579063 
C 125.254844 124.579063 125.254844 124.579063 125.254844 124.579063 
L 119.256127 63.673072 
C 117.262583 63.869419 115.279881 64.163525 113.315182 64.554328 
C 111.350482 64.945131 109.406155 65.432159 107.489222 66.013655 
L 125.254844 124.579063 
z
" clip-path="url(#p170417f16a)" style="fill: none; stroke: #292929; stroke-width: 0.5; stroke-linejoin: miter"/>
   </g>
   <g id="PathCollection_1">
    <defs>
     <path id="md1e5b85fa4" d="M 0.193618 7.414054 
L 0.193618 7.414054 
C 0.054922 7.414054 -0.078235 7.358899 -0.176308 7.260826 
C -0.274381 7.162753 -0.329536 7.029596 -0.329536 6.890901 
L -0.329536 5.365008 
L -1.528416 6.56393 
L -1.528416 6.56393 
C -1.577018 6.612704 -1.634775 6.651408 -1.698366 6.677814 
C -1.761958 6.704221 -1.830141 6.717815 -1.898997 6.717815 
C -1.967853 6.717815 -2.036037 6.704221 -2.099628 6.677814 
C -2.163219 6.651408 -2.220976 6.612704 -2.269578 6.56393 
L -2.269578 6.56393 
C -2.318353 6.515327 -2.357056 6.457571 -2.383463 6.393979 
C -2.409869 6.330388 -2.423463 6.262205 -2.423463 6.193348 
C -2.423463 6.124492 -2.409869 6.056309 -2.383463 5.992718 
C -2.357056 5.929126 -2.318353 5.87137 -2.269578 5.822767 
L -0.329536 3.884106 
L -0.329536 0.820937 
L -2.98067 2.351538 
L -3.691824 5.001416 
L -3.691824 5.001416 
C -3.727584 5.135411 -3.815199 5.249836 -3.93523 5.319305 
C -4.055261 5.388775 -4.198123 5.407741 -4.332122 5.371997 
L -4.332122 5.371997 
C -4.466126 5.336237 -4.580558 5.248616 -4.650029 5.128576 
C -4.719499 5.008535 -4.73846 4.865662 -4.702703 4.731657 
L -4.262647 3.092721 
L -5.585535 3.855668 
L -5.585535 3.855668 
C -5.645013 3.890144 -5.710708 3.912561 -5.778854 3.921634 
C -5.847001 3.930706 -5.916272 3.926258 -5.982698 3.908543 
C -6.049125 3.890828 -6.111412 3.860192 -6.165991 3.818391 
C -6.220571 3.77659 -6.266379 3.724437 -6.300791 3.664922 
L -6.300791 3.664922 
C -6.335212 3.605364 -6.35755 3.539597 -6.366524 3.471396 
C -6.375498 3.403194 -6.370933 3.333888 -6.35309 3.267452 
C -6.335248 3.201017 -6.304476 3.138749 -6.26254 3.08422 
C -6.220605 3.029692 -6.168323 2.983966 -6.108695 2.949666 
L -4.785807 2.186762 
L -6.424743 1.746706 
L -6.424743 1.746706 
C -6.558747 1.710946 -6.673179 1.623325 -6.74265 1.503284 
C -6.81212 1.383244 -6.831081 1.240371 -6.795324 1.106366 
L -6.795324 1.106366 
C -6.777471 1.039969 -6.746703 0.977739 -6.704784 0.923241 
C -6.662864 0.868744 -6.61061 0.823041 -6.551015 0.788752 
C -6.491421 0.754464 -6.425647 0.732257 -6.357465 0.723406 
C -6.289282 0.714554 -6.220019 0.71923 -6.153645 0.737166 
L -3.505232 1.44698 
L -0.852424 -0.08496 
L -3.503767 -1.615666 
L -6.153645 -0.905851 
L -6.153645 -0.905851 
C -6.22011 -0.887939 -6.289462 -0.883321 -6.357716 -0.892262 
C -6.42597 -0.901202 -6.491793 -0.923527 -6.551403 -0.957953 
C -6.611013 -0.992379 -6.663247 -1.038234 -6.705103 -1.092883 
C -6.746958 -1.147533 -6.777619 -1.209911 -6.795324 -1.276432 
L -6.795324 -1.276432 
C -6.831068 -1.410431 -6.812101 -1.553293 -6.742632 -1.673324 
C -6.673162 -1.793355 -6.558738 -1.88097 -6.424743 -1.91673 
L -4.785807 -2.355447 
L -6.108695 -3.119732 
L -6.108695 -3.119732 
C -6.228699 -3.188976 -6.316415 -3.303132 -6.352417 -3.436921 
C -6.388419 -3.57071 -6.369839 -3.713469 -6.300791 -3.833586 
L -6.300791 -3.833586 
C -6.266491 -3.893214 -6.220765 -3.945496 -6.166237 -3.987431 
C -6.111708 -4.029367 -6.04944 -4.060139 -5.983005 -4.077981 
C -5.91657 -4.095823 -5.847263 -4.100389 -5.779062 -4.091415 
C -5.71086 -4.082441 -5.645094 -4.060102 -5.585535 -4.025682 
L -4.262647 -3.261396 
L -4.702703 -4.900332 
L -4.702703 -4.900332 
C -4.73846 -5.034337 -4.719499 -5.17721 -4.650029 -5.29725 
C -4.580558 -5.417291 -4.466126 -5.504912 -4.332122 -5.540672 
L -4.332122 -5.540672 
C -4.19831 -5.576464 -4.055613 -5.557686 -3.935617 -5.488496 
C -3.81562 -5.419305 -3.727882 -5.305212 -3.691824 -5.171472 
L -2.982009 -2.521594 
L -0.329411 -0.990302 
L -0.329411 -4.051588 
L -2.269453 -5.991589 
L -2.269453 -5.991589 
C -2.318227 -6.040191 -2.356931 -6.097947 -2.383337 -6.161539 
C -2.409744 -6.22513 -2.423338 -6.293314 -2.423338 -6.36217 
C -2.423338 -6.431026 -2.409744 -6.499209 -2.383337 -6.5628 
C -2.356931 -6.626392 -2.318227 -6.684149 -2.269453 -6.732751 
L -2.269453 -6.732751 
C -2.22085 -6.781526 -2.163094 -6.820229 -2.099502 -6.846635 
C -2.035911 -6.873042 -1.967728 -6.886636 -1.898871 -6.886636 
C -1.830015 -6.886636 -1.761832 -6.873042 -1.698241 -6.846635 
C -1.634649 -6.820229 -1.576893 -6.781526 -1.52829 -6.732751 
L -0.329411 -5.533829 
L -0.329411 -7.059722 
L -0.329411 -7.059722 
C -0.329411 -7.198418 -0.274255 -7.331575 -0.176182 -7.429647 
C -0.07811 -7.52772 0.055047 -7.582875 0.193743 -7.582875 
L 0.193743 -7.582875 
C 0.332439 -7.582875 0.465596 -7.52772 0.563669 -7.429647 
C 0.661741 -7.331575 0.716897 -7.198418 0.716897 -7.059722 
L 0.716897 -5.533829 
L 1.915777 -6.732751 
L 1.915777 -6.732751 
C 1.964379 -6.781526 2.022136 -6.820229 2.085727 -6.846635 
C 2.149318 -6.873042 2.217502 -6.886636 2.286358 -6.886636 
C 2.355214 -6.886636 2.423397 -6.873042 2.486989 -6.846635 
C 2.55058 -6.820229 2.608337 -6.781526 2.656939 -6.732751 
L 2.656939 -6.732751 
C 2.705714 -6.684149 2.744417 -6.626392 2.770823 -6.5628 
C 2.79723 -6.499209 2.810824 -6.431026 2.810824 -6.36217 
C 2.810824 -6.293314 2.79723 -6.22513 2.770823 -6.161539 
C 2.744417 -6.097947 2.705714 -6.040191 2.656939 -5.991589 
L 0.716897 -4.051588 
L 0.716897 -0.991139 
L 3.369495 -2.522954 
L 4.07931 -5.171367 
L 4.07931 -5.171367 
C 4.115368 -5.305107 4.203106 -5.4192 4.323103 -5.488391 
C 4.4431 -5.557582 4.585797 -5.576359 4.719608 -5.540567 
L 4.719608 -5.540567 
C 4.853612 -5.504807 4.968045 -5.417186 5.037515 -5.297146 
C 5.106986 -5.177105 5.125946 -5.034232 5.090189 -4.900227 
L 4.650133 -3.262673 
L 5.973022 -4.025577 
L 5.973022 -4.025577 
C 6.03258 -4.059998 6.098346 -4.082336 6.166548 -4.09131 
C 6.234749 -4.100284 6.304056 -4.095719 6.370491 -4.077876 
C 6.436926 -4.060034 6.499194 -4.029262 6.553723 -3.987327 
C 6.608252 -3.945391 6.653978 -3.893109 6.688277 -3.833481 
L 6.688277 -3.833481 
C 6.757325 -3.713365 6.775905 -3.570605 6.739903 -3.436816 
C 6.703901 -3.303027 6.616186 -3.188871 6.496181 -3.119628 
L 5.173293 -2.355342 
L 6.812229 -1.916625 
L 6.812229 -1.916625 
C 6.946224 -1.880865 7.060649 -1.79325 7.130118 -1.67322 
C 7.199588 -1.553189 7.218554 -1.410326 7.18281 -1.276327 
L 7.18281 -1.276327 
C 7.165106 -1.209806 7.134445 -1.147429 7.092589 -1.092779 
C 7.050733 -1.038129 6.998499 -0.992274 6.938889 -0.957848 
C 6.879279 -0.923422 6.813456 -0.901098 6.745202 -0.892157 
C 6.676949 -0.883217 6.607597 -0.887835 6.541131 -0.905746 
L 3.891253 -1.615561 
L 1.239492 -0.084604 
L 3.892718 1.447085 
L 6.541131 0.73727 
L 6.541131 0.73727 
C 6.674948 0.701466 6.817656 0.720237 6.937662 0.789429 
C 7.057669 0.858621 7.145413 0.972721 7.181471 1.10647 
L 7.181471 1.10647 
C 7.217274 1.240293 7.198497 1.383006 7.129297 1.503014 
C 7.060096 1.623021 6.945986 1.710762 6.812229 1.74681 
L 5.173293 2.186866 
L 6.496181 2.949771 
L 6.496181 2.949771 
C 6.555697 2.984183 6.607849 3.029991 6.649651 3.08457 
C 6.691452 3.13915 6.722088 3.201437 6.739803 3.267863 
C 6.757517 3.33429 6.761966 3.403561 6.752893 3.471707 
C 6.743821 3.539854 6.721404 3.605549 6.686927 3.665026 
L 6.686927 3.665026 
C 6.617458 3.784813 6.503196 3.87225 6.369416 3.907994 
C 6.235636 3.943739 6.092989 3.924946 5.973032 3.855772 
L 4.650144 3.091487 
L 5.08886 4.731783 
L 5.08886 4.731783 
C 5.124664 4.865606 5.105887 5.008319 5.036686 5.128326 
C 4.967486 5.248334 4.853376 5.336074 4.719619 5.372123 
L 4.719619 5.372123 
C 4.585619 5.407867 4.442757 5.3889 4.322726 5.319431 
C 4.202695 5.249961 4.115081 5.135537 4.07932 5.001542 
L 3.368166 2.351664 
L 0.717033 0.821063 
L 0.717033 3.884232 
L 2.657075 5.822893 
L 2.657075 5.822893 
C 2.70585 5.871495 2.744553 5.929252 2.770959 5.992843 
C 2.797366 6.056435 2.81096 6.124618 2.81096 6.193474 
C 2.81096 6.26233 2.797366 6.330514 2.770959 6.394105 
C 2.744553 6.457696 2.70585 6.515453 2.657075 6.564055 
L 2.657075 6.564055 
C 2.608473 6.61283 2.550716 6.651533 2.487125 6.67794 
C 2.423533 6.704346 2.35535 6.71794 2.286494 6.71794 
C 2.217638 6.71794 2.149454 6.704346 2.085863 6.67794 
C 2.022272 6.651533 1.964515 6.61283 1.915913 6.564055 
L 0.717033 5.365133 
L 0.717033 6.891026 
L 0.717033 6.891026 
C 0.717033 7.029722 0.661877 7.162879 0.563805 7.260952 
C 0.465732 7.359024 0.332575 7.41418 0.193879 7.41418 
L 0.193618 7.414054 
z
"/>
    </defs>
    <g clip-path="url(#p170417f16a)">
     <use xlink:href="#md1e5b85fa4" x="106.059318" y="72.861348" style="fill: #9e2096; fill-opacity: 0.7"/>
    </g>
   </g>
   <g id="patch_163">
    <path d="M 125.254844 13.699063 
C 110.694216 13.699063 96.275171 16.567189 82.822905 22.1393 
C 69.370638 27.711411 57.146763 35.879144 46.850844 46.175063 
C 36.554925 56.470982 28.387192 68.694857 22.815081 82.147124 
C 17.24297 95.59939 14.374844 110.018434 14.374844 124.579063 
C 14.374844 139.139691 17.24297 153.558735 22.815081 167.011001 
C 28.387192 180.463268 36.554925 192.687143 46.850844 202.983062 
C 57.146763 213.278981 69.370638 221.446714 82.822905 227.018825 
C 96.275171 232.590936 110.694216 235.459063 125.254844 235.459063 
C 139.815472 235.459063 154.234516 232.590936 167.686783 227.018825 
C 181.139049 221.446714 193.362925 213.278981 203.658844 202.983062 
C 213.954763 192.687143 222.122495 180.463268 227.694606 167.011001 
C 233.266717 153.558735 236.134844 139.139691 236.134844 124.579063 
C 236.134844 110.018434 233.266717 95.59939 227.694606 82.147124 
C 222.122495 68.694857 213.954763 56.470982 203.658844 46.175063 
C 193.362925 35.879144 181.139049 27.711411 167.686783 22.1393 
C 154.234516 16.567189 139.815472 13.699063 125.254844 13.699063 
" style="fill: none; stroke: #000000; stroke-width: 0.8; stroke-linejoin: miter; stroke-linecap: square"/>
   </g>
  </g>
 </g>
 <defs>
  <clipPath id="p170417f16a">
   <path d="M 236.134844 124.579063 
C 236.134844 110.018434 233.266717 95.59939 227.694606 82.147124 
C 222.122495 68.694857 213.954763 56.470982 203.658844 46.175063 
C 193.362925 35.879144 181.139049 27.711411 167.686783 22.1393 
C 154.234516 16.567189 139.815472 13.699063 125.254844 13.699063 
C 110.694216 13.699063 96.275171 16.567189 82.822905 22.1393 
C 69.370638 27.711411 57.146763 35.879144 46.850844 46.175063 
C 36.554925 56.470982 28.387192 68.694857 22.815081 82.147124 
C 17.24297 95.59939 14.374844 110.018434 14.374844 124.579062 
C 14.374844 139.139691 17.24297 153.558735 22.815081 167.011001 
C 28.387192 180.463268 36.554925 192.687143 46.850844 202.983062 
C 57.146763 213.278981 69.370638 221.446714 82.822905 227.018825 
C 96.275171 232.590936 110.694216 235.459063 125.254844 235.459063 
C 139.815472 235.459063 154.234516 232.590936 167.686783 227.018825 
C 181.139049 221.446714 193.362925 213.278981 203.658844 202.983062 
C 213.954763 192.687143 222.122495 180.463268 227.694606 167.011001 
C 233.266717 153.558735 236.134844 139.139691 236.134844 124.579063 
M 125.254844 124.579063 
C 125.254844 124.579063 125.254844 124.579063 125.254844 124.579063 
C 125.254844 124.579063 125.254844 124.579063 125.254844 124.579063 
C 125.254844 124.579063 125.254844 124.579063 125.254844 124.579063 
C 125.254844 124.579063 125.254844 124.579063 125.254844 124.579063 
C 125.254844 124.579063 125.254844 124.579063 125.254844 124.579063 
C 125.254844 124.579063 125.254844 124.579063 125.254844 124.579063 
C 125.254844 124.579063 125.254844 124.579063 125.254844 124.579063 
C 125.254844 124.579063 125.254844 124.579063 125.254844 124.579063 
C 125.254844 124.579063 125.254844 124.579063 125.254844 124.579063 
C 125.254844 124.579063 125.254844 124.579063 125.254844 124.579063 
C 125.254844 124.579063 125.254844 124.579063 125.254844 124.579063 
C 125.254844 124.579063 125.254844 124.579063 125.254844 124.579063 
C 125.254844 124.579063 125.254844 124.579063 125.254844 124.579063 
C 125.254844 124.579063 125.254844 124.579063 125.254844 124.579063 
C 125.254844 124.579063 125.254844 124.579063 125.254844 124.579063 
C 125.254844 124.579063 125.254844 124.579063 125.254844 124.579063 
z
"/>
  </clipPath>
 </defs>
</svg>
