<?xml version="1.0" encoding="utf-8" standalone="no"?>
<!DOCTYPE svg PUBLIC "-//W3C//DTD SVG 1.1//EN"
  "http://www.w3.org/Graphics/SVG/1.1/DTD/svg11.dtd">
<svg xmlns:xlink="http://www.w3.org/1999/xlink" width="248.410469pt" height="249.158125pt" viewBox="0 0 248.410469 249.158125" xmlns="http://www.w3.org/2000/svg" version="1.1">
 <title>Ski Rose for Sir Sam's</title>
 <metadata>
  <rdf:RDF xmlns:dc="http://purl.org/dc/elements/1.1/" xmlns:cc="http://creativecommons.org/ns#" xmlns:rdf="http://www.w3.org/1999/02/22-rdf-syntax-ns#">
   <cc:Work>
    <dc:type rdf:resource="http://purl.org/dc/dcmitype/StillImage"/>
    <dc:title>Ski Rose for Sir Sam's</dc:title>
    <dc:date>2026-01-03T10:33:23.337866</dc:date>
    <dc:description>A 32-bin stacked histogram of downhill ski run orientations colored by difficulty.</dc:description>
    <dc:format>image/svg+xml</dc:format>
    <dc:source>https://openskimap.org/?obj=cd69fd6a8474e538f8292dcbefb3338147ca5b28</dc:source>
    <dc:creator>
     <cc:Agent>
      <dc:title>https://github.com/dhimmel/openskistats</dc:title>
     </cc:Agent>
    </dc:creator>
    <dc:rights>
     <cc:Agent>
      <dc:title>https://creativecommons.org/licenses/by/4.0/</dc:title>
     </cc:Agent>
    </dc:rights>
   </cc:Work>
  </rdf:RDF>
 </metadata>
 <defs>
  <style type="text/css">*{stroke-linejoin: round; stroke-linecap: butt}</style>
 </defs>
 <g id="figure_1">
  <g id="patch_1">
   <path d="M 0 249.158125 
L 248.410469 249.158125 
L 248.410469 0 
L 0 0 
z
" style="fill: #ffffff"/>
  </g>
  <g id="axes_1">
   <g id="patch_2">
    <path d="M 236.134844 124.579063 
C 236.134844 110.018434 233.266717 95.59939 227.694606 82.147124 
C 222.122495 68.694857 213.954763 56.470982 203.658844 46.175063 
C 193.362925 35.879144 181.139049 27.711411 167.686783 22.1393 
C 154.234516 16.567189 139.815472 13.699063 125.254844 13.699063 
C 110.694216 13.699063 96.275171 16.567189 82.822905 22.1393 
C 69.370638 27.711411 57.146763 35.879144 46.850844 46.175063 
C 36.554925 56.470982 28.387192 68.694857 22.815081 82.147124 
C 17.24297 95.59939 14.374844 110.018434 14.374844 124.579062 
C 14.374844 139.139691 17.24297 153.558735 22.815081 167.011001 
C 28.387192 180.463268 36.554925 192.687143 46.850844 202.983062 
C 57.146763 213.278981 69.370638 221.446714 82.822905 227.018825 
C 96.275171 232.590936 110.694216 235.459063 125.254844 235.459063 
C 139.815472 235.459063 154.234516 232.590936 167.686783 227.018825 
C 181.139049 221.446714 193.362925 213.278981 203.658844 202.983062 
C 213.954763 192.687143 222.122495 180.463268 227.694606 167.011001 
C 233.266717 153.558735 236.134844 139.139691 236.134844 124.579063 
M 125.254844 124.579063 
C 125.254844 124.579063 125.254844 124.579063 125.254844 124.579063 
C 125.254844 124.579063 125.254844 124.579063 125.254844 124.579063 
C 125.254844 124.579063 125.254844 124.579063 125.254844 124.579063 
C 125.254844 124.579063 125.254844 124.579063 125.254844 124.579063 
C 125.254844 124.579063 125.254844 124.579063 125.254844 124.579063 
C 125.254844 124.579063 125.254844 124.579063 125.254844 124.579063 
C 125.254844 124.579063 125.254844 124.579063 125.254844 124.579063 
C 125.254844 124.579063 125.254844 124.579063 125.254844 124.579063 
C 125.254844 124.579063 125.254844 124.579063 125.254844 124.579063 
C 125.254844 124.579063 125.254844 124.579063 125.254844 124.579063 
C 125.254844 124.579063 125.254844 124.579063 125.254844 124.579063 
C 125.254844 124.579063 125.254844 124.579063 125.254844 124.579063 
C 125.254844 124.579063 125.254844 124.579063 125.254844 124.579063 
C 125.254844 124.579063 125.254844 124.579063 125.254844 124.579063 
C 125.254844 124.579063 125.254844 124.579063 125.254844 124.579063 
C 125.254844 124.579063 125.254844 124.579063 125.254844 124.579063 
z
" style="fill: #ffffff"/>
   </g>
   <g id="FillBetweenPolyCollection_1">
    <defs>
     <path id="m9c69e6260c" d="M 235.318893 -137.119277 
L 234.768883 -137.056611 
L 233.819189 -135.03262 
L 232.984142 -133.057542 
L 231.881673 -131.100639 
L 230.722414 -129.183876 
L 229.728093 -127.314791 
L 228.480815 -125.479902 
L 227.195652 -123.689439 
L 226.090979 -121.938575 
L 224.739836 -120.235454 
L 223.574197 -118.565593 
L 222.166045 -116.951986 
L 220.946742 -115.364981 
L 219.489223 -113.842411 
L 218.222837 -112.339594 
L 216.723 -110.909055 
L 215.415779 -109.491296 
L 213.880387 -108.153289 
L 212.53841 -106.82102 
L 211.180566 -105.529788 
L 209.603318 -104.328786 
L 208.219529 -103.122936 
L 206.824045 -101.957921 
L 205.418203 -100.833594 
L 204.003329 -99.749761 
L 202.580745 -98.706178 
L 201.151766 -97.702553 
L 199.717693 -96.738544 
L 198.467417 -95.739863 
L 197.024321 -94.851172 
L 195.579861 -94.000875 
L 194.135296 -93.188432 
L 192.868242 -92.329126 
L 191.424015 -91.588331 
L 190.153535 -90.794942 
L 188.881321 -90.032704 
L 187.444069 -89.394092 
L 186.174187 -88.694827 
L 184.905246 -88.025249 
L 183.638073 -87.384843 
L 182.222895 -86.872732 
L 180.965165 -86.290419 
L 179.711647 -85.735402 
L 178.463086 -85.207035 
L 177.356408 -84.600126 
L 176.116144 -84.122158 
L 174.882868 -83.668876 
L 173.657227 -83.239522 
L 172.43984 -82.833305 
L 171.348714 -82.341812 
L 170.145572 -81.979352 
L 169.062253 -81.529641 
L 167.875321 -81.20815 
L 166.801556 -80.797963 
L 165.632573 -80.514503 
L 164.569912 -80.141461 
L 163.420382 -79.892958 
L 162.370168 -79.554573 
L 161.32484 -79.232862 
L 160.284659 -78.927318 
L 159.173419 -78.740738 
L 158.147731 -78.464935 
L 157.127818 -78.203597 
L 156.113846 -77.956195 
L 155.105959 -77.722197 
L 154.104275 -77.50107 
L 153.108888 -77.292279 
L 152.11987 -77.09529 
L 151.137265 -76.909572 
L 150.161096 -76.734597 
L 149.191359 -76.569841 
L 148.228026 -76.414784 
L 147.271047 -76.268914 
L 146.320343 -76.13173 
L 145.407275 -75.926789 
L 144.466095 -75.80846 
L 143.530915 -75.697489 
L 142.601572 -75.593414 
L 141.677877 -75.49579 
L 140.778937 -75.342929 
L 139.863688 -75.260431 
L 138.953516 -75.183244 
L 138.06155 -75.059206 
L 137.158855 -74.995289 
L 136.260514 -74.935691 
L 135.374679 -74.838484 
L 134.482595 -74.790573 
L 133.594012 -74.746159 
L 132.713186 -74.674131 
L 131.829428 -74.640136 
L 130.948213 -74.609004 
L 130.071046 -74.560886 
L 129.193062 -74.539252 
L 128.316584 -74.520057 
L 127.441561 -74.494996 
L 126.56661 -74.484748 
L 125.692089 -74.475767 
L 124.817607 -74.476733 
L 123.943116 -74.486196 
L 123.068253 -74.497891 
L 122.19334 -74.523913 
L 121.317042 -74.544544 
L 120.439288 -74.567606 
L 119.562348 -74.616666 
L 118.681453 -74.649205 
L 117.802607 -74.714981 
L 116.917579 -74.757533 
L 116.029453 -74.803311 
L 115.146245 -74.893713 
L 114.252487 -74.950639 
L 113.354735 -75.011542 
L 112.465949 -75.128075 
L 111.561259 -75.20159 
L 110.651799 -75.280009 
L 109.737304 -75.363713 
L 108.839014 -75.517319 
L 107.916147 -75.616092 
L 106.987669 -75.721284 
L 106.053393 -75.833339 
L 105.144442 -76.028257 
L 104.200884 -76.158271 
L 103.251184 -76.296438 
L 102.29524 -76.443252 
L 101.332975 -76.599216 
L 100.364335 -76.76484 
L 99.389292 -76.940643 
L 98.407842 -77.127147 
L 97.420003 -77.324881 
L 96.425822 -77.534375 
L 95.425368 -77.756164 
L 94.418733 -77.990781 
L 93.406035 -78.238758 
L 92.387416 -78.500628 
L 91.363041 -78.776919 
L 90.333098 -79.068157 
L 89.214535 -79.270185 
L 88.170573 -79.592245 
L 87.121741 -79.930935 
L 85.973849 -80.179975 
L 84.912598 -80.553227 
L 83.847395 -80.944716 
L 82.672953 -81.247416 
L 81.597403 -81.677014 
L 80.405851 -82.018958 
L 79.204427 -82.38163 
L 78.114771 -82.873049 
L 76.89912 -83.279373 
L 75.675224 -83.708778 
L 74.575887 -84.2672 
L 73.341137 -84.744274 
L 72.100018 -85.246561 
L 70.853227 -85.774766 
L 69.601485 -86.329568 
L 68.345535 -86.911613 
L 67.086146 -87.521515 
L 65.824105 -88.159859 
L 64.399886 -88.732753 
L 63.131799 -89.431535 
L 61.86362 -90.160436 
L 60.426218 -90.831416 
L 59.157539 -91.624162 
L 57.891487 -92.44839 
L 56.450161 -93.222962 
L 55.007704 -94.034737 
L 53.749936 -94.96076 
L 52.311666 -95.845981 
L 50.875918 -96.769922 
L 49.443974 -97.733025 
L 48.017128 -98.735684 
L 46.793366 -99.840253 
L 45.382749 -100.91987 
L 43.780264 -101.984162 
L 42.386936 -103.147964 
L 41.005306 -104.352538 
L 39.636718 -105.597981 
L 38.282517 -106.884343 
L 36.735103 -108.172898 
L 35.412531 -109.544615 
L 34.108557 -110.957159 
L 32.612288 -112.382439 
L 31.348859 -113.879827 
L 29.894577 -115.396913 
L 28.677902 -116.978292 
L 27.272594 -118.586211 
L 26.109178 -120.250269 
L 24.760354 -121.947522 
L 23.443106 -123.690565 
L 22.373667 -125.476893 
L 21.127176 -127.305741 
L 19.921977 -129.177995 
L 18.971699 -131.079618 
L 17.864786 -133.030843 
L 17.022508 -135.000651 
L 16.058594 -137.020404 
L 15.088342 -137.13095 
L 15.088342 -137.13095 
L 14.966608 -135.198612 
L 14.74749 -133.27618 
L 14.640664 -131.344516 
L 14.487599 -129.415265 
L 14.497631 -127.479342 
L 14.41091 -125.546383 
L 14.432012 -123.611926 
L 14.593768 -121.6813 
L 14.549772 -119.745575 
L 14.594635 -117.810794 
L 14.738286 -115.881221 
L 14.969044 -113.959748 
L 15.110694 -112.029722 
L 15.402959 -110.116787 
L 15.609423 -108.192445 
L 15.897694 -106.278952 
L 16.278472 -104.381486 
L 16.688445 -102.490979 
L 17.022442 -100.584517 
L 17.493266 -98.707797 
L 17.993369 -96.839359 
L 18.423736 -94.952174 
L 18.984781 -93.100436 
L 19.575202 -91.258399 
L 20.123318 -89.402546 
L 20.772654 -87.579979 
L 21.451929 -85.768743 
L 22.090475 -83.941537 
L 22.831289 -82.153837 
L 23.603426 -80.379768 
L 24.407444 -78.620255 
L 25.180355 -76.84598 
L 26.052824 -75.11876 
L 26.903937 -73.380821 
L 27.849344 -71.692191 
L 28.785615 -69.999399 
L 29.736236 -68.314303 
L 30.723458 -66.650155 
L 31.742266 -65.00498 
L 32.805998 -63.388506 
L 34.173759 -61.980767 
L 35.97744 -60.898109 
L 37.810848 -59.873909 
L 39.662558 -58.901791 
L 41.526138 -57.978243 
L 43.39388 -57.098092 
L 45.263733 -56.2602 
L 47.130768 -55.460719 
L 48.93602 -54.645745 
L 50.796231 -53.920477 
L 52.594011 -53.175461 
L 54.387205 -52.463629 
L 56.225702 -51.837525 
L 58.005279 -51.189041 
L 59.777802 -50.57073 
L 61.542619 -49.981631 
L 63.299142 -49.420786 
L 65.046842 -48.887231 
L 66.745422 -48.3281 
L 68.475941 -47.84678 
L 70.196364 -47.38992 
L 71.870738 -46.904706 
L 73.571844 -46.494567 
L 75.231046 -46.057428 
L 76.881394 -45.640767 
L 78.525009 -45.247545 
L 80.159422 -44.873175 
L 81.811223 -44.565866 
L 83.428728 -44.231842 
L 85.015476 -43.871377 
L 86.616758 -43.572631 
L 88.210756 -43.293231 
L 89.795405 -43.027936 
L 91.372851 -42.780696 
L 92.926849 -42.509666 
L 94.488535 -42.290832 
L 96.043326 -42.088281 
L 97.578883 -41.864335 
L 99.118909 -41.686469 
L 100.643256 -41.491733 
L 102.162748 -41.311656 
L 103.684921 -41.17436 
L 105.194287 -41.020829 
L 106.699375 -40.880751 
L 108.204576 -40.774321 
L 109.701071 -40.658417 
L 111.194031 -40.554961 
L 112.683715 -40.463675 
L 114.172561 -40.400766 
L 115.656025 -40.331314 
L 117.137125 -40.273326 
L 118.616163 -40.226629 
L 120.093453 -40.191072 
L 121.569313 -40.166534 
L 123.04412 -40.154918 
L 124.518045 -40.150285 
L 125.991634 -40.151319 
L 127.465557 -40.155341 
L 128.940216 -40.17016 
L 130.415939 -40.195899 
L 131.89305 -40.232651 
L 133.373113 -40.26761 
L 134.854387 -40.324955 
L 136.338048 -40.393771 
L 137.82439 -40.474263 
L 139.313699 -40.566655 
L 140.809652 -40.652826 
L 142.306373 -40.768116 
L 143.806895 -40.896166 
L 145.311447 -41.037299 
L 146.827691 -41.16305 
L 148.341891 -41.32986 
L 149.869173 -41.482479 
L 151.393866 -41.676676 
L 152.935332 -41.850804 
L 154.471322 -42.074272 
L 156.025436 -42.279376 
L 157.573199 -42.534138 
L 159.143242 -42.765232 
L 160.719915 -43.014983 
L 162.286633 -43.320217 
L 163.879993 -43.599753 
L 165.47998 -43.89992 
L 167.090073 -44.214335 
L 168.706651 -44.550789 
L 170.333387 -44.903007 
L 171.966329 -45.278696 
L 173.638201 -45.624599 
L 175.290789 -46.038361 
L 176.94892 -46.477832 
L 178.650654 -46.887676 
L 180.327386 -47.370206 
L 182.048476 -47.826873 
L 183.737993 -48.362339 
L 185.477041 -48.869384 
L 187.225387 -49.402782 
L 188.982555 -49.963499 
L 190.748015 -50.552498 
L 192.521178 -51.17074 
L 194.301391 -51.819183 
L 196.087929 -52.498791 
L 197.936343 -53.155152 
L 199.734742 -53.900278 
L 201.536669 -54.679648 
L 203.399381 -55.442616 
L 205.268982 -56.240532 
L 207.13731 -57.080367 
L 209.007465 -57.95922 
L 210.806062 -58.933304 
L 212.72307 -59.855979 
L 214.554352 -60.882342 
L 216.359441 -61.964607 
L 217.715958 -63.380386 
L 218.728052 -65.030061 
L 219.783742 -66.651679 
L 220.761369 -68.32142 
L 221.727396 -69.997519 
L 222.626201 -71.710729 
L 223.576481 -73.396058 
L 224.480781 -75.106835 
L 225.327733 -76.846743 
L 226.111581 -78.615999 
L 226.850885 -80.403847 
L 227.654494 -82.163739 
L 228.388433 -83.953661 
L 229.023008 -85.781736 
L 229.715199 -87.587711 
L 230.360745 -89.41112 
L 230.959844 -91.250404 
L 231.512732 -93.104042 
L 232.086806 -94.951937 
L 232.542863 -96.832494 
L 233.070196 -98.694886 
L 233.495536 -100.582679 
L 233.819999 -102.491232 
L 234.234672 -104.380845 
L 234.478174 -106.301345 
L 234.858543 -108.19868 
L 235.164156 -110.109227 
L 235.319357 -112.038795 
L 235.581093 -113.955853 
L 235.777723 -115.880723 
L 235.78331 -117.818852 
L 235.933916 -119.74671 
L 236.048007 -121.677841 
L 236.104231 -123.611695 
L 236.126254 -125.546623 
L 235.974093 -127.478348 
L 235.94934 -129.412089 
L 235.891265 -131.345876 
L 235.778246 -133.277443 
L 235.473246 -135.191888 
L 235.318893 -137.119277 
z
" style="stroke: #ffee9c"/>
    </defs>
    <g clip-path="url(#p43f5b3493b)">
     <use xlink:href="#m9c69e6260c" x="0" y="249.158125" style="fill: #ffee9c; stroke: #ffee9c"/>
    </g>
   </g>
   <g id="matplotlib.axis_1">
    <g id="xtick_1">
     <g id="line2d_1">
      <path d="M 125.254844 124.579063 
L 125.254844 13.699063 
" clip-path="url(#p43f5b3493b)" style="fill: none; stroke: #b0b0b0; stroke-width: 0.8; stroke-linecap: square"/>
     </g>
     <g id="text_1">
      <!-- N -->
      <g transform="translate(121.070469 7.958438) scale(0.1 -0.1)">
       <defs>
        <path id="DejaVuSans-Bold-4e" d="M 588 4666 
L 1931 4666 
L 3628 1466 
L 3628 4666 
L 4769 4666 
L 4769 0 
L 3425 0 
L 1728 3200 
L 1728 0 
L 588 0 
L 588 4666 
z
" transform="scale(0.015625)"/>
       </defs>
       <use xlink:href="#DejaVuSans-Bold-4e"/>
      </g>
     </g>
    </g>
    <g id="xtick_2">
     <g id="line2d_2">
      <path d="M 125.254844 124.579063 
L 203.658844 46.175063 
" clip-path="url(#p43f5b3493b)" style="fill: none; stroke: #b0b0b0; stroke-width: 0.8; stroke-linecap: square"/>
     </g>
    </g>
    <g id="xtick_3">
     <g id="line2d_3">
      <path d="M 125.254844 124.579063 
L 236.134844 124.579063 
" clip-path="url(#p43f5b3493b)" style="fill: none; stroke: #b0b0b0; stroke-width: 0.8; stroke-linecap: square"/>
     </g>
     <g id="text_2">
      <!-- E -->
      <g transform="translate(241.219219 127.338438) scale(0.1 -0.1)">
       <defs>
        <path id="DejaVuSans-Bold-45" d="M 588 4666 
L 3834 4666 
L 3834 3756 
L 1791 3756 
L 1791 2888 
L 3713 2888 
L 3713 1978 
L 1791 1978 
L 1791 909 
L 3903 909 
L 3903 0 
L 588 0 
L 588 4666 
z
" transform="scale(0.015625)"/>
       </defs>
       <use xlink:href="#DejaVuSans-Bold-45"/>
      </g>
     </g>
    </g>
    <g id="xtick_4">
     <g id="line2d_4">
      <path d="M 125.254844 124.579063 
L 203.658844 202.983062 
" clip-path="url(#p43f5b3493b)" style="fill: none; stroke: #b0b0b0; stroke-width: 0.8; stroke-linecap: square"/>
     </g>
    </g>
    <g id="xtick_5">
     <g id="line2d_5">
      <path d="M 125.254844 124.579063 
L 125.254844 235.459063 
" clip-path="url(#p43f5b3493b)" style="fill: none; stroke: #b0b0b0; stroke-width: 0.8; stroke-linecap: square"/>
     </g>
     <g id="text_3">
      <!-- S -->
      <g transform="translate(121.654062 246.718438) scale(0.1 -0.1)">
       <defs>
        <path id="DejaVuSans-Bold-53" d="M 3834 4519 
L 3834 3531 
Q 3450 3703 3084 3790 
Q 2719 3878 2394 3878 
Q 1963 3878 1756 3759 
Q 1550 3641 1550 3391 
Q 1550 3203 1689 3098 
Q 1828 2994 2194 2919 
L 2706 2816 
Q 3484 2659 3812 2340 
Q 4141 2022 4141 1434 
Q 4141 663 3683 286 
Q 3225 -91 2284 -91 
Q 1841 -91 1394 -6 
Q 947 78 500 244 
L 500 1259 
Q 947 1022 1364 901 
Q 1781 781 2169 781 
Q 2563 781 2772 912 
Q 2981 1044 2981 1288 
Q 2981 1506 2839 1625 
Q 2697 1744 2272 1838 
L 1806 1941 
Q 1106 2091 782 2419 
Q 459 2747 459 3303 
Q 459 4000 909 4375 
Q 1359 4750 2203 4750 
Q 2588 4750 2994 4692 
Q 3400 4634 3834 4519 
z
" transform="scale(0.015625)"/>
       </defs>
       <use xlink:href="#DejaVuSans-Bold-53"/>
      </g>
     </g>
    </g>
    <g id="xtick_6">
     <g id="line2d_6">
      <path d="M 125.254844 124.579063 
L 46.850844 202.983062 
" clip-path="url(#p43f5b3493b)" style="fill: none; stroke: #b0b0b0; stroke-width: 0.8; stroke-linecap: square"/>
     </g>
    </g>
    <g id="xtick_7">
     <g id="line2d_7">
      <path d="M 125.254844 124.579063 
L 14.374844 124.579063 
" clip-path="url(#p43f5b3493b)" style="fill: none; stroke: #b0b0b0; stroke-width: 0.8; stroke-linecap: square"/>
     </g>
     <g id="text_4">
      <!-- W -->
      <g transform="translate(0.36 127.338438) scale(0.1 -0.1)">
       <defs>
        <path id="DejaVuSans-Bold-57" d="M 191 4666 
L 1344 4666 
L 2150 1275 
L 2950 4666 
L 4109 4666 
L 4909 1275 
L 5716 4666 
L 6859 4666 
L 5759 0 
L 4372 0 
L 3525 3547 
L 2688 0 
L 1300 0 
L 191 4666 
z
" transform="scale(0.015625)"/>
       </defs>
       <use xlink:href="#DejaVuSans-Bold-57"/>
      </g>
     </g>
    </g>
    <g id="xtick_8">
     <g id="line2d_8">
      <path d="M 125.254844 124.579063 
L 46.850844 46.175063 
" clip-path="url(#p43f5b3493b)" style="fill: none; stroke: #b0b0b0; stroke-width: 0.8; stroke-linecap: square"/>
     </g>
    </g>
   </g>
   <g id="matplotlib.axis_2"/>
   <g id="patch_3">
    <path d="M 125.254844 124.579063 
C 125.254844 124.579063 125.254844 124.579063 125.254844 124.579063 
C 125.254844 124.579063 125.254844 124.579063 125.254844 124.579063 
L 125.254844 124.579063 
C 125.254844 124.579063 125.254844 124.579063 125.254844 124.579063 
C 125.254844 124.579063 125.254844 124.579063 125.254844 124.579063 
z
" clip-path="url(#p43f5b3493b)" style="fill: #d9d9d9"/>
   </g>
   <g id="patch_4">
    <path d="M 125.254844 124.579063 
C 125.254844 124.579063 125.254844 124.579063 125.254844 124.579063 
C 125.254844 124.579063 125.254844 124.579063 125.254844 124.579063 
L 125.254844 124.579063 
C 125.254844 124.579063 125.254844 124.579063 125.254844 124.579063 
C 125.254844 124.579063 125.254844 124.579063 125.254844 124.579063 
z
" clip-path="url(#p43f5b3493b)" style="fill: #d9d9d9"/>
   </g>
   <g id="patch_5">
    <path d="M 125.254844 124.579063 
C 125.254844 124.579063 125.254844 124.579063 125.254844 124.579063 
C 125.254844 124.579063 125.254844 124.579063 125.254844 124.579063 
L 125.254844 124.579063 
C 125.254844 124.579063 125.254844 124.579063 125.254844 124.579063 
C 125.254844 124.579063 125.254844 124.579063 125.254844 124.579063 
z
" clip-path="url(#p43f5b3493b)" style="fill: #d9d9d9"/>
   </g>
   <g id="patch_6">
    <path d="M 125.254844 124.579063 
C 125.254844 124.579063 125.254844 124.579063 125.254844 124.579063 
C 125.254844 124.579063 125.254844 124.579063 125.254844 124.579063 
L 125.254844 124.579063 
C 125.254844 124.579063 125.254844 124.579063 125.254844 124.579063 
C 125.254844 124.579063 125.254844 124.579063 125.254844 124.579063 
z
" clip-path="url(#p43f5b3493b)" style="fill: #d9d9d9"/>
   </g>
   <g id="patch_7">
    <path d="M 125.254844 124.579063 
C 125.254844 124.579063 125.254844 124.579063 125.254844 124.579063 
C 125.254844 124.579063 125.254844 124.579063 125.254844 124.579063 
L 125.254844 124.579063 
C 125.254844 124.579063 125.254844 124.579063 125.254844 124.579063 
C 125.254844 124.579063 125.254844 124.579063 125.254844 124.579063 
z
" clip-path="url(#p43f5b3493b)" style="fill: #d9d9d9"/>
   </g>
   <g id="patch_8">
    <path d="M 125.254844 124.579063 
C 125.254844 124.579063 125.254844 124.579063 125.254844 124.579063 
C 125.254844 124.579063 125.254844 124.579063 125.254844 124.579063 
L 125.254844 124.579063 
C 125.254844 124.579063 125.254844 124.579063 125.254844 124.579063 
C 125.254844 124.579063 125.254844 124.579063 125.254844 124.579063 
z
" clip-path="url(#p43f5b3493b)" style="fill: #d9d9d9"/>
   </g>
   <g id="patch_9">
    <path d="M 125.254844 124.579063 
C 125.254844 124.579063 125.254844 124.579063 125.254844 124.579063 
C 125.254844 124.579063 125.254844 124.579063 125.254844 124.579063 
L 125.254844 124.579063 
C 125.254844 124.579063 125.254844 124.579063 125.254844 124.579063 
C 125.254844 124.579063 125.254844 124.579063 125.254844 124.579063 
z
" clip-path="url(#p43f5b3493b)" style="fill: #d9d9d9"/>
   </g>
   <g id="patch_10">
    <path d="M 125.254844 124.579063 
C 125.254844 124.579063 125.254844 124.579063 125.254844 124.579063 
C 125.254844 124.579063 125.254844 124.579063 125.254844 124.579063 
L 125.254844 124.579063 
C 125.254844 124.579063 125.254844 124.579063 125.254844 124.579063 
C 125.254844 124.579063 125.254844 124.579063 125.254844 124.579063 
z
" clip-path="url(#p43f5b3493b)" style="fill: #d9d9d9"/>
   </g>
   <g id="patch_11">
    <path d="M 125.254844 124.579063 
C 125.254844 124.579063 125.254844 124.579063 125.254844 124.579063 
C 125.254844 124.579063 125.254844 124.579063 125.254844 124.579063 
L 125.254844 124.579063 
C 125.254844 124.579063 125.254844 124.579063 125.254844 124.579063 
C 125.254844 124.579063 125.254844 124.579063 125.254844 124.579063 
z
" clip-path="url(#p43f5b3493b)" style="fill: #d9d9d9"/>
   </g>
   <g id="patch_12">
    <path d="M 125.254844 124.579063 
C 125.254844 124.579063 125.254844 124.579063 125.254844 124.579063 
C 125.254844 124.579063 125.254844 124.579063 125.254844 124.579063 
L 125.254844 124.579063 
C 125.254844 124.579063 125.254844 124.579063 125.254844 124.579063 
C 125.254844 124.579063 125.254844 124.579063 125.254844 124.579063 
z
" clip-path="url(#p43f5b3493b)" style="fill: #d9d9d9"/>
   </g>
   <g id="patch_13">
    <path d="M 125.254844 124.579063 
C 125.254844 124.579063 125.254844 124.579063 125.254844 124.579063 
C 125.254844 124.579063 125.254844 124.579063 125.254844 124.579063 
L 125.254844 124.579063 
C 125.254844 124.579063 125.254844 124.579063 125.254844 124.579063 
C 125.254844 124.579063 125.254844 124.579063 125.254844 124.579063 
z
" clip-path="url(#p43f5b3493b)" style="fill: #d9d9d9"/>
   </g>
   <g id="patch_14">
    <path d="M 125.254844 124.579063 
C 125.254844 124.579063 125.254844 124.579063 125.254844 124.579063 
C 125.254844 124.579063 125.254844 124.579063 125.254844 124.579063 
L 125.254844 124.579063 
C 125.254844 124.579063 125.254844 124.579063 125.254844 124.579063 
C 125.254844 124.579063 125.254844 124.579063 125.254844 124.579063 
z
" clip-path="url(#p43f5b3493b)" style="fill: #d9d9d9"/>
   </g>
   <g id="patch_15">
    <path d="M 125.254844 124.579063 
C 125.254844 124.579063 125.254844 124.579063 125.254844 124.579063 
C 125.254844 124.579063 125.254844 124.579063 125.254844 124.579063 
L 125.254844 124.579063 
C 125.254844 124.579063 125.254844 124.579063 125.254844 124.579063 
C 125.254844 124.579063 125.254844 124.579063 125.254844 124.579063 
z
" clip-path="url(#p43f5b3493b)" style="fill: #d9d9d9"/>
   </g>
   <g id="patch_16">
    <path d="M 125.254844 124.579063 
C 125.254844 124.579063 125.254844 124.579063 125.254844 124.579063 
C 125.254844 124.579063 125.254844 124.579063 125.254844 124.579063 
L 125.254844 124.579063 
C 125.254844 124.579063 125.254844 124.579063 125.254844 124.579063 
C 125.254844 124.579063 125.254844 124.579063 125.254844 124.579063 
z
" clip-path="url(#p43f5b3493b)" style="fill: #d9d9d9"/>
   </g>
   <g id="patch_17">
    <path d="M 125.254844 124.579063 
C 125.254844 124.579063 125.254844 124.579063 125.254844 124.579063 
C 125.254844 124.579063 125.254844 124.579063 125.254844 124.579063 
L 125.254844 124.579063 
C 125.254844 124.579063 125.254844 124.579063 125.254844 124.579063 
C 125.254844 124.579063 125.254844 124.579063 125.254844 124.579063 
z
" clip-path="url(#p43f5b3493b)" style="fill: #d9d9d9"/>
   </g>
   <g id="patch_18">
    <path d="M 125.254844 124.579063 
C 125.254844 124.579063 125.254844 124.579063 125.254844 124.579063 
C 125.254844 124.579063 125.254844 124.579063 125.254844 124.579063 
L 125.254844 124.579063 
C 125.254844 124.579063 125.254844 124.579063 125.254844 124.579063 
C 125.254844 124.579063 125.254844 124.579063 125.254844 124.579063 
z
" clip-path="url(#p43f5b3493b)" style="fill: #d9d9d9"/>
   </g>
   <g id="patch_19">
    <path d="M 125.254844 124.579063 
C 125.254844 124.579063 125.254844 124.579063 125.254844 124.579063 
C 125.254844 124.579063 125.254844 124.579063 125.254844 124.579063 
L 125.254844 124.579063 
C 125.254844 124.579063 125.254844 124.579063 125.254844 124.579063 
C 125.254844 124.579063 125.254844 124.579063 125.254844 124.579063 
z
" clip-path="url(#p43f5b3493b)" style="fill: #d9d9d9"/>
   </g>
   <g id="patch_20">
    <path d="M 125.254844 124.579063 
C 125.254844 124.579063 125.254844 124.579063 125.254844 124.579063 
C 125.254844 124.579063 125.254844 124.579063 125.254844 124.579063 
L 125.254844 124.579063 
C 125.254844 124.579063 125.254844 124.579063 125.254844 124.579063 
C 125.254844 124.579063 125.254844 124.579063 125.254844 124.579063 
z
" clip-path="url(#p43f5b3493b)" style="fill: #d9d9d9"/>
   </g>
   <g id="patch_21">
    <path d="M 125.254844 124.579063 
C 125.254844 124.579063 125.254844 124.579063 125.254844 124.579063 
C 125.254844 124.579063 125.254844 124.579063 125.254844 124.579063 
L 125.254844 124.579063 
C 125.254844 124.579063 125.254844 124.579063 125.254844 124.579063 
C 125.254844 124.579063 125.254844 124.579063 125.254844 124.579063 
z
" clip-path="url(#p43f5b3493b)" style="fill: #d9d9d9"/>
   </g>
   <g id="patch_22">
    <path d="M 125.254844 124.579063 
C 125.254844 124.579063 125.254844 124.579063 125.254844 124.579063 
C 125.254844 124.579063 125.254844 124.579063 125.254844 124.579063 
L 125.254844 124.579063 
C 125.254844 124.579063 125.254844 124.579063 125.254844 124.579063 
C 125.254844 124.579063 125.254844 124.579063 125.254844 124.579063 
z
" clip-path="url(#p43f5b3493b)" style="fill: #d9d9d9"/>
   </g>
   <g id="patch_23">
    <path d="M 125.254844 124.579063 
C 125.254844 124.579063 125.254844 124.579063 125.254844 124.579063 
C 125.254844 124.579063 125.254844 124.579063 125.254844 124.579063 
L 125.254844 124.579063 
C 125.254844 124.579063 125.254844 124.579063 125.254844 124.579063 
C 125.254844 124.579063 125.254844 124.579063 125.254844 124.579063 
z
" clip-path="url(#p43f5b3493b)" style="fill: #d9d9d9"/>
   </g>
   <g id="patch_24">
    <path d="M 125.254844 124.579063 
C 125.254844 124.579063 125.254844 124.579063 125.254844 124.579063 
C 125.254844 124.579063 125.254844 124.579063 125.254844 124.579063 
L 125.254844 124.579063 
C 125.254844 124.579063 125.254844 124.579063 125.254844 124.579063 
C 125.254844 124.579063 125.254844 124.579063 125.254844 124.579063 
z
" clip-path="url(#p43f5b3493b)" style="fill: #d9d9d9"/>
   </g>
   <g id="patch_25">
    <path d="M 125.254844 124.579063 
C 125.254844 124.579063 125.254844 124.579063 125.254844 124.579063 
C 125.254844 124.579063 125.254844 124.579063 125.254844 124.579063 
L 125.254844 124.579063 
C 125.254844 124.579063 125.254844 124.579063 125.254844 124.579063 
C 125.254844 124.579063 125.254844 124.579063 125.254844 124.579063 
z
" clip-path="url(#p43f5b3493b)" style="fill: #d9d9d9"/>
   </g>
   <g id="patch_26">
    <path d="M 125.254844 124.579063 
C 125.254844 124.579063 125.254844 124.579063 125.254844 124.579063 
C 125.254844 124.579063 125.254844 124.579063 125.254844 124.579063 
L 125.254844 124.579063 
C 125.254844 124.579063 125.254844 124.579063 125.254844 124.579063 
C 125.254844 124.579063 125.254844 124.579063 125.254844 124.579063 
z
" clip-path="url(#p43f5b3493b)" style="fill: #d9d9d9"/>
   </g>
   <g id="patch_27">
    <path d="M 125.254844 124.579063 
C 125.254844 124.579063 125.254844 124.579063 125.254844 124.579063 
C 125.254844 124.579063 125.254844 124.579063 125.254844 124.579063 
L 125.254844 124.579063 
C 125.254844 124.579063 125.254844 124.579063 125.254844 124.579063 
C 125.254844 124.579063 125.254844 124.579063 125.254844 124.579063 
z
" clip-path="url(#p43f5b3493b)" style="fill: #d9d9d9"/>
   </g>
   <g id="patch_28">
    <path d="M 125.254844 124.579063 
C 125.254844 124.579063 125.254844 124.579063 125.254844 124.579063 
C 125.254844 124.579063 125.254844 124.579063 125.254844 124.579063 
L 125.254844 124.579063 
C 125.254844 124.579063 125.254844 124.579063 125.254844 124.579063 
C 125.254844 124.579063 125.254844 124.579063 125.254844 124.579063 
z
" clip-path="url(#p43f5b3493b)" style="fill: #d9d9d9"/>
   </g>
   <g id="patch_29">
    <path d="M 125.254844 124.579063 
C 125.254844 124.579063 125.254844 124.579063 125.254844 124.579063 
C 125.254844 124.579063 125.254844 124.579063 125.254844 124.579063 
L 125.254844 124.579063 
C 125.254844 124.579063 125.254844 124.579063 125.254844 124.579063 
C 125.254844 124.579063 125.254844 124.579063 125.254844 124.579063 
z
" clip-path="url(#p43f5b3493b)" style="fill: #d9d9d9"/>
   </g>
   <g id="patch_30">
    <path d="M 125.254844 124.579063 
C 125.254844 124.579063 125.254844 124.579063 125.254844 124.579063 
C 125.254844 124.579063 125.254844 124.579063 125.254844 124.579063 
L 125.254844 124.579063 
C 125.254844 124.579063 125.254844 124.579063 125.254844 124.579063 
C 125.254844 124.579063 125.254844 124.579063 125.254844 124.579063 
z
" clip-path="url(#p43f5b3493b)" style="fill: #d9d9d9"/>
   </g>
   <g id="patch_31">
    <path d="M 125.254844 124.579063 
C 125.254844 124.579063 125.254844 124.579063 125.254844 124.579063 
C 125.254844 124.579063 125.254844 124.579063 125.254844 124.579063 
L 125.254844 124.579063 
C 125.254844 124.579063 125.254844 124.579063 125.254844 124.579063 
C 125.254844 124.579063 125.254844 124.579063 125.254844 124.579063 
z
" clip-path="url(#p43f5b3493b)" style="fill: #d9d9d9"/>
   </g>
   <g id="patch_32">
    <path d="M 125.254844 124.579063 
C 125.254844 124.579063 125.254844 124.579063 125.254844 124.579063 
C 125.254844 124.579063 125.254844 124.579063 125.254844 124.579063 
L 125.254844 124.579063 
C 125.254844 124.579063 125.254844 124.579063 125.254844 124.579063 
C 125.254844 124.579063 125.254844 124.579063 125.254844 124.579063 
z
" clip-path="url(#p43f5b3493b)" style="fill: #d9d9d9"/>
   </g>
   <g id="patch_33">
    <path d="M 125.254844 124.579063 
C 125.254844 124.579063 125.254844 124.579063 125.254844 124.579063 
C 125.254844 124.579063 125.254844 124.579063 125.254844 124.579063 
L 125.254844 124.579063 
C 125.254844 124.579063 125.254844 124.579063 125.254844 124.579063 
C 125.254844 124.579063 125.254844 124.579063 125.254844 124.579063 
z
" clip-path="url(#p43f5b3493b)" style="fill: #d9d9d9"/>
   </g>
   <g id="patch_34">
    <path d="M 125.254844 124.579063 
C 125.254844 124.579063 125.254844 124.579063 125.254844 124.579063 
C 125.254844 124.579063 125.254844 124.579063 125.254844 124.579063 
L 125.254844 124.579063 
C 125.254844 124.579063 125.254844 124.579063 125.254844 124.579063 
C 125.254844 124.579063 125.254844 124.579063 125.254844 124.579063 
z
" clip-path="url(#p43f5b3493b)" style="fill: #d9d9d9"/>
   </g>
   <g id="patch_35">
    <path d="M 125.254844 124.579063 
C 125.254844 124.579063 125.254844 124.579063 125.254844 124.579063 
C 125.254844 124.579063 125.254844 124.579063 125.254844 124.579063 
L 128.404533 92.599727 
C 127.357802 92.496633 126.30664 92.444993 125.254844 92.444993 
C 124.203048 92.444993 123.151886 92.496633 122.105154 92.599727 
z
" clip-path="url(#p43f5b3493b)" style="fill: #badbb8"/>
   </g>
   <g id="patch_36">
    <path d="M 125.254844 124.579063 
C 125.254844 124.579063 125.254844 124.579063 125.254844 124.579063 
C 125.254844 124.579063 125.254844 124.579063 125.254844 124.579063 
L 135.748875 89.984876 
C 134.616556 89.641391 133.468055 89.353706 132.307521 89.122862 
C 131.146986 88.892017 129.975817 88.71829 128.798245 88.60231 
z
" clip-path="url(#p43f5b3493b)" style="fill: #badbb8"/>
   </g>
   <g id="patch_37">
    <path d="M 125.254844 124.579063 
C 125.254844 124.579063 125.254844 124.579063 125.254844 124.579063 
C 125.254844 124.579063 125.254844 124.579063 125.254844 124.579063 
L 152.266084 74.044587 
C 150.612015 73.160468 148.915535 72.358093 147.182773 71.640359 
C 145.45001 70.922626 143.683053 70.290398 141.888283 69.745961 
z
" clip-path="url(#p43f5b3493b)" style="fill: #badbb8"/>
   </g>
   <g id="patch_38">
    <path d="M 125.254844 124.579063 
C 125.254844 124.579063 125.254844 124.579063 125.254844 124.579063 
C 125.254844 124.579063 125.254844 124.579063 125.254844 124.579063 
L 160.286867 81.892419 
C 158.889669 80.745769 157.437016 79.668408 155.934155 78.664228 
C 154.431294 77.660049 152.880036 76.730261 151.285985 75.878222 
z
" clip-path="url(#p43f5b3493b)" style="fill: #badbb8"/>
   </g>
   <g id="patch_39">
    <path d="M 125.254844 124.579063 
C 125.254844 124.579063 125.254844 124.579063 125.254844 124.579063 
C 125.254844 124.579063 125.254844 124.579063 125.254844 124.579063 
L 173.206687 85.226002 
C 171.918602 83.656467 170.554234 82.151119 169.118511 80.715395 
C 167.682788 79.279672 166.17744 77.915304 164.607904 76.62722 
z
" clip-path="url(#p43f5b3493b)" style="fill: #badbb8"/>
   </g>
   <g id="patch_40">
    <path d="M 125.254844 124.579063 
C 125.254844 124.579063 125.254844 124.579063 125.254844 124.579063 
C 125.254844 124.579063 125.254844 124.579063 125.254844 124.579063 
L 134.627325 119.569367 
C 134.46335 119.262592 134.284412 118.964052 134.091158 118.674826 
C 133.897903 118.385601 133.690565 118.106037 133.469892 117.837147 
z
" clip-path="url(#p43f5b3493b)" style="fill: #badbb8"/>
   </g>
   <g id="patch_41">
    <path d="M 125.254844 124.579063 
C 125.254844 124.579063 125.254844 124.579063 125.254844 124.579063 
C 125.254844 124.579063 125.254844 124.579063 125.254844 124.579063 
L 149.412741 117.250844 
C 149.172878 116.46012 148.894337 115.681649 148.578124 114.918244 
C 148.261911 114.154838 147.908407 113.407417 147.51889 112.678682 
z
" clip-path="url(#p43f5b3493b)" style="fill: #badbb8"/>
   </g>
   <g id="patch_42">
    <path d="M 125.254844 124.579063 
C 125.254844 124.579063 125.254844 124.579063 125.254844 124.579063 
C 125.254844 124.579063 125.254844 124.579063 125.254844 124.579063 
L 143.353918 122.796459 
C 143.295571 122.20405 143.208173 121.614862 143.092041 121.031023 
C 142.975908 120.447185 142.831181 119.869401 142.658381 119.299757 
z
" clip-path="url(#p43f5b3493b)" style="fill: #badbb8"/>
   </g>
   <g id="patch_43">
    <path d="M 125.254844 124.579063 
C 125.254844 124.579063 125.254844 124.579063 125.254844 124.579063 
C 125.254844 124.579063 125.254844 124.579063 125.254844 124.579063 
L 137.895786 125.824087 
C 137.936537 125.41033 137.95695 124.994821 137.95695 124.579063 
C 137.95695 124.163304 137.936537 123.747795 137.895786 123.334038 
z
" clip-path="url(#p43f5b3493b)" style="fill: #badbb8"/>
   </g>
   <g id="patch_44">
    <path d="M 125.254844 124.579063 
C 125.254844 124.579063 125.254844 124.579063 125.254844 124.579063 
C 125.254844 124.579063 125.254844 124.579063 125.254844 124.579063 
L 125.254844 124.579063 
C 125.254844 124.579063 125.254844 124.579063 125.254844 124.579063 
C 125.254844 124.579063 125.254844 124.579063 125.254844 124.579063 
z
" clip-path="url(#p43f5b3493b)" style="fill: #badbb8"/>
   </g>
   <g id="patch_45">
    <path d="M 125.254844 124.579063 
C 125.254844 124.579063 125.254844 124.579063 125.254844 124.579063 
C 125.254844 124.579063 125.254844 124.579063 125.254844 124.579063 
L 125.254844 124.579063 
C 125.254844 124.579063 125.254844 124.579063 125.254844 124.579063 
C 125.254844 124.579063 125.254844 124.579063 125.254844 124.579063 
z
" clip-path="url(#p43f5b3493b)" style="fill: #badbb8"/>
   </g>
   <g id="patch_46">
    <path d="M 125.254844 124.579063 
C 125.254844 124.579063 125.254844 124.579063 125.254844 124.579063 
C 125.254844 124.579063 125.254844 124.579063 125.254844 124.579063 
L 125.254844 124.579063 
C 125.254844 124.579063 125.254844 124.579063 125.254844 124.579063 
C 125.254844 124.579063 125.254844 124.579063 125.254844 124.579063 
z
" clip-path="url(#p43f5b3493b)" style="fill: #badbb8"/>
   </g>
   <g id="patch_47">
    <path d="M 125.254844 124.579063 
C 125.254844 124.579063 125.254844 124.579063 125.254844 124.579063 
C 125.254844 124.579063 125.254844 124.579063 125.254844 124.579063 
L 125.254844 124.579063 
C 125.254844 124.579063 125.254844 124.579063 125.254844 124.579063 
C 125.254844 124.579063 125.254844 124.579063 125.254844 124.579063 
z
" clip-path="url(#p43f5b3493b)" style="fill: #badbb8"/>
   </g>
   <g id="patch_48">
    <path d="M 125.254844 124.579063 
C 125.254844 124.579063 125.254844 124.579063 125.254844 124.579063 
C 125.254844 124.579063 125.254844 124.579063 125.254844 124.579063 
L 125.254844 124.579063 
C 125.254844 124.579063 125.254844 124.579063 125.254844 124.579063 
C 125.254844 124.579063 125.254844 124.579063 125.254844 124.579063 
z
" clip-path="url(#p43f5b3493b)" style="fill: #badbb8"/>
   </g>
   <g id="patch_49">
    <path d="M 125.254844 124.579063 
C 125.254844 124.579063 125.254844 124.579063 125.254844 124.579063 
C 125.254844 124.579063 125.254844 124.579063 125.254844 124.579063 
L 127.274421 131.236717 
C 127.492336 131.170613 127.706874 131.09385 127.91726 131.006705 
C 128.127647 130.91956 128.333628 130.822139 128.534459 130.714792 
z
" clip-path="url(#p43f5b3493b)" style="fill: #badbb8"/>
   </g>
   <g id="patch_50">
    <path d="M 125.254844 124.579063 
C 125.254844 124.579063 125.254844 124.579063 125.254844 124.579063 
C 125.254844 124.579063 125.254844 124.579063 125.254844 124.579063 
L 125.254844 124.579063 
C 125.254844 124.579063 125.254844 124.579063 125.254844 124.579063 
C 125.254844 124.579063 125.254844 124.579063 125.254844 124.579063 
z
" clip-path="url(#p43f5b3493b)" style="fill: #badbb8"/>
   </g>
   <g id="patch_51">
    <path d="M 125.254844 124.579063 
C 125.254844 124.579063 125.254844 124.579063 125.254844 124.579063 
C 125.254844 124.579063 125.254844 124.579063 125.254844 124.579063 
L 125.254844 124.579063 
C 125.254844 124.579063 125.254844 124.579063 125.254844 124.579063 
C 125.254844 124.579063 125.254844 124.579063 125.254844 124.579063 
z
" clip-path="url(#p43f5b3493b)" style="fill: #badbb8"/>
   </g>
   <g id="patch_52">
    <path d="M 125.254844 124.579063 
C 125.254844 124.579063 125.254844 124.579063 125.254844 124.579063 
C 125.254844 124.579063 125.254844 124.579063 125.254844 124.579063 
L 125.254844 124.579063 
C 125.254844 124.579063 125.254844 124.579063 125.254844 124.579063 
C 125.254844 124.579063 125.254844 124.579063 125.254844 124.579063 
z
" clip-path="url(#p43f5b3493b)" style="fill: #badbb8"/>
   </g>
   <g id="patch_53">
    <path d="M 125.254844 124.579063 
C 125.254844 124.579063 125.254844 124.579063 125.254844 124.579063 
C 125.254844 124.579063 125.254844 124.579063 125.254844 124.579063 
L 125.254844 124.579063 
C 125.254844 124.579063 125.254844 124.579063 125.254844 124.579063 
C 125.254844 124.579063 125.254844 124.579063 125.254844 124.579063 
z
" clip-path="url(#p43f5b3493b)" style="fill: #badbb8"/>
   </g>
   <g id="patch_54">
    <path d="M 125.254844 124.579063 
C 125.254844 124.579063 125.254844 124.579063 125.254844 124.579063 
C 125.254844 124.579063 125.254844 124.579063 125.254844 124.579063 
L 125.254844 124.579063 
C 125.254844 124.579063 125.254844 124.579063 125.254844 124.579063 
C 125.254844 124.579063 125.254844 124.579063 125.254844 124.579063 
z
" clip-path="url(#p43f5b3493b)" style="fill: #badbb8"/>
   </g>
   <g id="patch_55">
    <path d="M 125.254844 124.579063 
C 125.254844 124.579063 125.254844 124.579063 125.254844 124.579063 
C 125.254844 124.579063 125.254844 124.579063 125.254844 124.579063 
L 125.254844 124.579063 
C 125.254844 124.579063 125.254844 124.579063 125.254844 124.579063 
C 125.254844 124.579063 125.254844 124.579063 125.254844 124.579063 
z
" clip-path="url(#p43f5b3493b)" style="fill: #badbb8"/>
   </g>
   <g id="patch_56">
    <path d="M 125.254844 124.579063 
C 125.254844 124.579063 125.254844 124.579063 125.254844 124.579063 
C 125.254844 124.579063 125.254844 124.579063 125.254844 124.579063 
L 125.254844 124.579063 
C 125.254844 124.579063 125.254844 124.579063 125.254844 124.579063 
C 125.254844 124.579063 125.254844 124.579063 125.254844 124.579063 
z
" clip-path="url(#p43f5b3493b)" style="fill: #badbb8"/>
   </g>
   <g id="patch_57">
    <path d="M 125.254844 124.579063 
C 125.254844 124.579063 125.254844 124.579063 125.254844 124.579063 
C 125.254844 124.579063 125.254844 124.579063 125.254844 124.579063 
L 117.567247 126.91107 
C 117.643577 127.162696 117.732215 127.410423 117.832841 127.653357 
C 117.933468 127.89629 118.045961 128.134136 118.169914 128.366036 
z
" clip-path="url(#p43f5b3493b)" style="fill: #badbb8"/>
   </g>
   <g id="patch_58">
    <path d="M 125.254844 124.579063 
C 125.254844 124.579063 125.254844 124.579063 125.254844 124.579063 
C 125.254844 124.579063 125.254844 124.579063 125.254844 124.579063 
L 117.776362 125.315629 
C 117.800471 125.560411 117.836583 125.803861 117.884569 126.045101 
C 117.932554 126.286341 117.992355 126.52508 118.063755 126.760455 
z
" clip-path="url(#p43f5b3493b)" style="fill: #badbb8"/>
   </g>
   <g id="patch_59">
    <path d="M 125.254844 124.579063 
C 125.254844 124.579063 125.254844 124.579063 125.254844 124.579063 
C 125.254844 124.579063 125.254844 124.579063 125.254844 124.579063 
L 109.516997 123.02902 
C 109.466262 123.544143 109.440849 124.061447 109.440849 124.579063 
C 109.440849 125.096678 109.466262 125.613982 109.516997 126.129105 
z
" clip-path="url(#p43f5b3493b)" style="fill: #badbb8"/>
   </g>
   <g id="patch_60">
    <path d="M 125.254844 124.579063 
C 125.254844 124.579063 125.254844 124.579063 125.254844 124.579063 
C 125.254844 124.579063 125.254844 124.579063 125.254844 124.579063 
L 111.664964 120.456618 
C 111.53003 120.901435 111.417017 121.352608 111.326333 121.808509 
C 111.235649 122.26441 111.167402 122.724489 111.121841 123.187083 
z
" clip-path="url(#p43f5b3493b)" style="fill: #badbb8"/>
   </g>
   <g id="patch_61">
    <path d="M 125.254844 124.579063 
C 125.254844 124.579063 125.254844 124.579063 125.254844 124.579063 
C 125.254844 124.579063 125.254844 124.579063 125.254844 124.579063 
L 92.212931 106.917792 
C 91.634852 107.999303 91.110219 109.108545 90.64093 110.24151 
C 90.17164 111.374475 89.758259 112.529798 89.40228 113.703306 
z
" clip-path="url(#p43f5b3493b)" style="fill: #badbb8"/>
   </g>
   <g id="patch_62">
    <path d="M 125.254844 124.579063 
C 125.254844 124.579063 125.254844 124.579063 125.254844 124.579063 
C 125.254844 124.579063 125.254844 124.579063 125.254844 124.579063 
L 102.650128 106.027852 
C 102.042919 106.767738 101.472403 107.53699 100.940639 108.33283 
C 100.408876 109.128671 99.916506 109.950139 99.46531 110.794269 
z
" clip-path="url(#p43f5b3493b)" style="fill: #badbb8"/>
   </g>
   <g id="patch_63">
    <path d="M 125.254844 124.579063 
C 125.254844 124.579063 125.254844 124.579063 125.254844 124.579063 
C 125.254844 124.579063 125.254844 124.579063 125.254844 124.579063 
L 106.703633 101.974347 
C 105.963747 102.581556 105.254119 103.224725 104.577313 103.901531 
C 103.900506 104.578338 103.257337 105.287966 102.650128 106.027852 
z
" clip-path="url(#p43f5b3493b)" style="fill: #badbb8"/>
   </g>
   <g id="patch_64">
    <path d="M 125.254844 124.579063 
C 125.254844 124.579063 125.254844 124.579063 125.254844 124.579063 
C 125.254844 124.579063 125.254844 124.579063 125.254844 124.579063 
L 114.133126 103.771792 
C 113.452073 104.135823 112.789304 104.533072 112.147211 104.962104 
C 111.505119 105.391136 110.884478 105.851435 110.28753 106.341338 
z
" clip-path="url(#p43f5b3493b)" style="fill: #badbb8"/>
   </g>
   <g id="patch_65">
    <path d="M 125.254844 124.579063 
C 125.254844 124.579063 125.254844 124.579063 125.254844 124.579063 
C 125.254844 124.579063 125.254844 124.579063 125.254844 124.579063 
L 113.165462 84.725713 
C 111.861003 85.121416 110.576757 85.580926 109.317364 86.102584 
C 108.057972 86.624241 106.82495 87.207417 105.622753 87.850005 
z
" clip-path="url(#p43f5b3493b)" style="fill: #badbb8"/>
   </g>
   <g id="patch_66">
    <path d="M 125.254844 124.579063 
C 125.254844 124.579063 125.254844 124.579063 125.254844 124.579063 
C 125.254844 124.579063 125.254844 124.579063 125.254844 124.579063 
L 120.513933 76.443789 
C 118.938394 76.598966 117.371423 76.831404 115.81868 77.140264 
C 114.265937 77.449124 112.729295 77.834033 111.214302 78.293601 
z
" clip-path="url(#p43f5b3493b)" style="fill: #badbb8"/>
   </g>
   <g id="patch_67">
    <path d="M 122.105154 92.599727 
C 123.151886 92.496633 124.203048 92.444993 125.254844 92.444993 
C 126.30664 92.444993 127.357802 92.496633 128.404533 92.599727 
L 133.212292 43.785738 
C 130.567805 43.525279 127.912125 43.394814 125.254844 43.394814 
C 122.597562 43.394814 119.941882 43.525279 117.297396 43.785738 
z
" clip-path="url(#p43f5b3493b)" style="fill: #a1a1d8"/>
   </g>
   <g id="patch_68">
    <path d="M 128.798245 88.60231 
C 129.975817 88.71829 131.146986 88.892017 132.307521 89.122862 
C 133.468055 89.353706 134.616556 89.641391 135.748875 89.984876 
L 144.253904 61.947554 
C 142.203881 61.325686 140.124562 60.804844 138.023457 60.386908 
C 135.922352 59.968972 133.801994 59.654447 131.670041 59.444468 
z
" clip-path="url(#p43f5b3493b)" style="fill: #a1a1d8"/>
   </g>
   <g id="patch_69">
    <path d="M 141.888283 69.745961 
C 143.683053 70.290398 145.45001 70.922626 147.182773 71.640359 
C 148.915535 72.358093 150.612015 73.160468 152.266084 74.044587 
L 154.741002 69.414341 
C 152.935378 68.449215 151.083458 67.573322 149.19193 66.789825 
C 147.300402 66.006329 145.371546 65.316173 143.41233 64.721852 
z
" clip-path="url(#p43f5b3493b)" style="fill: #a1a1d8"/>
   </g>
   <g id="patch_70">
    <path d="M 151.285985 75.878222 
C 152.880036 76.730261 154.431294 77.660049 155.934155 78.664228 
C 157.437016 79.668408 158.889669 80.745769 160.286867 81.892419 
L 164.936536 76.226781 
C 163.353894 74.92794 161.708436 73.707585 160.006105 72.570124 
C 158.303775 71.432663 156.546625 70.379468 154.741001 69.414342 
z
" clip-path="url(#p43f5b3493b)" style="fill: #a1a1d8"/>
   </g>
   <g id="patch_71">
    <path d="M 164.607904 76.62722 
C 166.17744 77.915304 167.682788 79.279672 169.118511 80.715395 
C 170.554234 82.151119 171.918602 83.656467 173.206687 85.226002 
L 173.206687 85.226002 
C 171.918602 83.656467 170.554234 82.151119 169.118511 80.715395 
C 167.682788 79.279672 166.17744 77.915304 164.607904 76.62722 
z
" clip-path="url(#p43f5b3493b)" style="fill: #a1a1d8"/>
   </g>
   <g id="patch_72">
    <path d="M 133.469892 117.837147 
C 133.690565 118.106037 133.897903 118.385601 134.091158 118.674826 
C 134.284412 118.964052 134.46335 119.262592 134.627325 119.569367 
L 134.627325 119.569367 
C 134.46335 119.262592 134.284412 118.964052 134.091158 118.674826 
C 133.897903 118.385601 133.690565 118.106037 133.469892 117.837147 
z
" clip-path="url(#p43f5b3493b)" style="fill: #a1a1d8"/>
   </g>
   <g id="patch_73">
    <path d="M 147.51889 112.678682 
C 147.908407 113.407417 148.261911 114.154838 148.578124 114.918244 
C 148.894337 115.681649 149.172878 116.46012 149.412741 117.250844 
L 149.412741 117.250844 
C 149.172878 116.46012 148.894337 115.681649 148.578124 114.918244 
C 148.261911 114.154838 147.908407 113.407417 147.51889 112.678682 
z
" clip-path="url(#p43f5b3493b)" style="fill: #a1a1d8"/>
   </g>
   <g id="patch_74">
    <path d="M 142.658381 119.299757 
C 142.831181 119.869401 142.975908 120.447185 143.092041 121.031023 
C 143.208173 121.614862 143.295571 122.20405 143.353918 122.796459 
L 143.353918 122.796459 
C 143.295571 122.20405 143.208173 121.614862 143.092041 121.031023 
C 142.975908 120.447185 142.831181 119.869401 142.658381 119.299757 
z
" clip-path="url(#p43f5b3493b)" style="fill: #a1a1d8"/>
   </g>
   <g id="patch_75">
    <path d="M 137.895786 123.334038 
C 137.936537 123.747795 137.95695 124.163304 137.95695 124.579063 
C 137.95695 124.994821 137.936537 125.41033 137.895786 125.824087 
L 141.736616 126.202375 
C 141.789749 125.662902 141.816364 125.121146 141.816364 124.579063 
C 141.816364 124.036979 141.789749 123.495223 141.736616 122.95575 
z
" clip-path="url(#p43f5b3493b)" style="fill: #a1a1d8"/>
   </g>
   <g id="patch_76">
    <path d="M 125.254844 124.579063 
C 125.254844 124.579063 125.254844 124.579063 125.254844 124.579063 
C 125.254844 124.579063 125.254844 124.579063 125.254844 124.579063 
L 125.254844 124.579063 
C 125.254844 124.579063 125.254844 124.579063 125.254844 124.579063 
C 125.254844 124.579063 125.254844 124.579063 125.254844 124.579063 
z
" clip-path="url(#p43f5b3493b)" style="fill: #a1a1d8"/>
   </g>
   <g id="patch_77">
    <path d="M 125.254844 124.579063 
C 125.254844 124.579063 125.254844 124.579063 125.254844 124.579063 
C 125.254844 124.579063 125.254844 124.579063 125.254844 124.579063 
L 125.254844 124.579063 
C 125.254844 124.579063 125.254844 124.579063 125.254844 124.579063 
C 125.254844 124.579063 125.254844 124.579063 125.254844 124.579063 
z
" clip-path="url(#p43f5b3493b)" style="fill: #a1a1d8"/>
   </g>
   <g id="patch_78">
    <path d="M 125.254844 124.579063 
C 125.254844 124.579063 125.254844 124.579063 125.254844 124.579063 
C 125.254844 124.579063 125.254844 124.579063 125.254844 124.579063 
L 125.254844 124.579063 
C 125.254844 124.579063 125.254844 124.579063 125.254844 124.579063 
C 125.254844 124.579063 125.254844 124.579063 125.254844 124.579063 
z
" clip-path="url(#p43f5b3493b)" style="fill: #a1a1d8"/>
   </g>
   <g id="patch_79">
    <path d="M 125.254844 124.579063 
C 125.254844 124.579063 125.254844 124.579063 125.254844 124.579063 
C 125.254844 124.579063 125.254844 124.579063 125.254844 124.579063 
L 125.254844 124.579063 
C 125.254844 124.579063 125.254844 124.579063 125.254844 124.579063 
C 125.254844 124.579063 125.254844 124.579063 125.254844 124.579063 
z
" clip-path="url(#p43f5b3493b)" style="fill: #a1a1d8"/>
   </g>
   <g id="patch_80">
    <path d="M 125.254844 124.579063 
C 125.254844 124.579063 125.254844 124.579063 125.254844 124.579063 
C 125.254844 124.579063 125.254844 124.579063 125.254844 124.579063 
L 125.254844 124.579063 
C 125.254844 124.579063 125.254844 124.579063 125.254844 124.579063 
C 125.254844 124.579063 125.254844 124.579063 125.254844 124.579063 
z
" clip-path="url(#p43f5b3493b)" style="fill: #a1a1d8"/>
   </g>
   <g id="patch_81">
    <path d="M 128.534459 130.714792 
C 128.333628 130.822139 128.127647 130.91956 127.91726 131.006705 
C 127.706874 131.09385 127.492336 131.170613 127.274421 131.236717 
L 127.274421 131.236717 
C 127.492336 131.170613 127.706874 131.09385 127.91726 131.006705 
C 128.127647 130.91956 128.333628 130.822139 128.534459 130.714792 
z
" clip-path="url(#p43f5b3493b)" style="fill: #a1a1d8"/>
   </g>
   <g id="patch_82">
    <path d="M 125.254844 124.579063 
C 125.254844 124.579063 125.254844 124.579063 125.254844 124.579063 
C 125.254844 124.579063 125.254844 124.579063 125.254844 124.579063 
L 125.254844 124.579063 
C 125.254844 124.579063 125.254844 124.579063 125.254844 124.579063 
C 125.254844 124.579063 125.254844 124.579063 125.254844 124.579063 
z
" clip-path="url(#p43f5b3493b)" style="fill: #a1a1d8"/>
   </g>
   <g id="patch_83">
    <path d="M 125.254844 124.579063 
C 125.254844 124.579063 125.254844 124.579063 125.254844 124.579063 
C 125.254844 124.579063 125.254844 124.579063 125.254844 124.579063 
L 125.254844 124.579063 
C 125.254844 124.579063 125.254844 124.579063 125.254844 124.579063 
C 125.254844 124.579063 125.254844 124.579063 125.254844 124.579063 
z
" clip-path="url(#p43f5b3493b)" style="fill: #a1a1d8"/>
   </g>
   <g id="patch_84">
    <path d="M 125.254844 124.579063 
C 125.254844 124.579063 125.254844 124.579063 125.254844 124.579063 
C 125.254844 124.579063 125.254844 124.579063 125.254844 124.579063 
L 125.254844 124.579063 
C 125.254844 124.579063 125.254844 124.579063 125.254844 124.579063 
C 125.254844 124.579063 125.254844 124.579063 125.254844 124.579063 
z
" clip-path="url(#p43f5b3493b)" style="fill: #a1a1d8"/>
   </g>
   <g id="patch_85">
    <path d="M 125.254844 124.579063 
C 125.254844 124.579063 125.254844 124.579063 125.254844 124.579063 
C 125.254844 124.579063 125.254844 124.579063 125.254844 124.579063 
L 125.254844 124.579063 
C 125.254844 124.579063 125.254844 124.579063 125.254844 124.579063 
C 125.254844 124.579063 125.254844 124.579063 125.254844 124.579063 
z
" clip-path="url(#p43f5b3493b)" style="fill: #a1a1d8"/>
   </g>
   <g id="patch_86">
    <path d="M 125.254844 124.579063 
C 125.254844 124.579063 125.254844 124.579063 125.254844 124.579063 
C 125.254844 124.579063 125.254844 124.579063 125.254844 124.579063 
L 125.254844 124.579063 
C 125.254844 124.579063 125.254844 124.579063 125.254844 124.579063 
C 125.254844 124.579063 125.254844 124.579063 125.254844 124.579063 
z
" clip-path="url(#p43f5b3493b)" style="fill: #a1a1d8"/>
   </g>
   <g id="patch_87">
    <path d="M 125.254844 124.579063 
C 125.254844 124.579063 125.254844 124.579063 125.254844 124.579063 
C 125.254844 124.579063 125.254844 124.579063 125.254844 124.579063 
L 125.254844 124.579063 
C 125.254844 124.579063 125.254844 124.579063 125.254844 124.579063 
C 125.254844 124.579063 125.254844 124.579063 125.254844 124.579063 
z
" clip-path="url(#p43f5b3493b)" style="fill: #a1a1d8"/>
   </g>
   <g id="patch_88">
    <path d="M 125.254844 124.579063 
C 125.254844 124.579063 125.254844 124.579063 125.254844 124.579063 
C 125.254844 124.579063 125.254844 124.579063 125.254844 124.579063 
L 125.254844 124.579063 
C 125.254844 124.579063 125.254844 124.579063 125.254844 124.579063 
C 125.254844 124.579063 125.254844 124.579063 125.254844 124.579063 
z
" clip-path="url(#p43f5b3493b)" style="fill: #a1a1d8"/>
   </g>
   <g id="patch_89">
    <path d="M 118.169914 128.366036 
C 118.045961 128.134136 117.933468 127.89629 117.832841 127.653357 
C 117.732215 127.410423 117.643577 127.162696 117.567247 126.91107 
L 117.567247 126.91107 
C 117.643577 127.162696 117.732215 127.410423 117.832841 127.653357 
C 117.933468 127.89629 118.045961 128.134136 118.169914 128.366036 
z
" clip-path="url(#p43f5b3493b)" style="fill: #a1a1d8"/>
   </g>
   <g id="patch_90">
    <path d="M 118.063755 126.760455 
C 117.992355 126.52508 117.932554 126.286341 117.884569 126.045101 
C 117.836583 125.803861 117.800471 125.560411 117.776362 125.315629 
L 117.776362 125.315629 
C 117.800471 125.560411 117.836583 125.803861 117.884569 126.045101 
C 117.932554 126.286341 117.992355 126.52508 118.063755 126.760455 
z
" clip-path="url(#p43f5b3493b)" style="fill: #a1a1d8"/>
   </g>
   <g id="patch_91">
    <path d="M 109.516997 126.129105 
C 109.466262 125.613982 109.440849 125.096678 109.440849 124.579063 
C 109.440849 124.061447 109.466262 123.544143 109.516997 123.02902 
L 109.516997 123.02902 
C 109.466262 123.544143 109.440849 124.061447 109.440849 124.579063 
C 109.440849 125.096678 109.466262 125.613982 109.516997 126.129105 
z
" clip-path="url(#p43f5b3493b)" style="fill: #a1a1d8"/>
   </g>
   <g id="patch_92">
    <path d="M 111.121841 123.187083 
C 111.167402 122.724489 111.235649 122.26441 111.326333 121.808509 
C 111.417017 121.352608 111.53003 120.901435 111.664964 120.456618 
L 111.664964 120.456618 
C 111.53003 120.901435 111.417017 121.352608 111.326333 121.808509 
C 111.235649 122.26441 111.167402 122.724489 111.121841 123.187083 
z
" clip-path="url(#p43f5b3493b)" style="fill: #a1a1d8"/>
   </g>
   <g id="patch_93">
    <path d="M 89.40228 113.703306 
C 89.758259 112.529798 90.17164 111.374475 90.64093 110.24151 
C 91.110219 109.108545 91.634852 107.999303 92.212931 106.917792 
L 92.212931 106.917792 
C 91.634852 107.999303 91.110219 109.108545 90.64093 110.24151 
C 90.17164 111.374475 89.758259 112.529798 89.40228 113.703306 
z
" clip-path="url(#p43f5b3493b)" style="fill: #a1a1d8"/>
   </g>
   <g id="patch_94">
    <path d="M 99.46531 110.794269 
C 99.916506 109.950139 100.408876 109.128671 100.940639 108.33283 
C 101.472403 107.53699 102.042919 106.767738 102.650128 106.027852 
L 102.123141 105.595365 
C 101.501776 106.3525 100.917959 107.139686 100.373799 107.95408 
C 99.829638 108.768473 99.32579 109.609093 98.864074 110.472902 
z
" clip-path="url(#p43f5b3493b)" style="fill: #a1a1d8"/>
   </g>
   <g id="patch_95">
    <path d="M 102.650128 106.027852 
C 103.257337 105.287966 103.900506 104.578338 104.577313 103.901531 
C 105.254119 103.224725 105.963747 102.581556 106.703633 101.974347 
L 106.703633 101.974347 
C 105.963747 102.581556 105.254119 103.224725 104.577313 103.901531 
C 103.900506 104.578338 103.257337 105.287966 102.650128 106.027852 
z
" clip-path="url(#p43f5b3493b)" style="fill: #a1a1d8"/>
   </g>
   <g id="patch_96">
    <path d="M 110.28753 106.341338 
C 110.884478 105.851435 111.505119 105.391136 112.147211 104.962104 
C 112.789304 104.533072 113.452073 104.135823 114.133126 103.771792 
L 82.851727 45.24841 
C 80.255116 46.636327 77.728213 48.150895 75.280145 49.786641 
C 72.832078 51.422388 70.465796 53.177341 68.189848 55.045164 
z
" clip-path="url(#p43f5b3493b)" style="fill: #a1a1d8"/>
   </g>
   <g id="patch_97">
    <path d="M 105.622753 87.850005 
C 106.82495 87.207417 108.057972 86.624241 109.317364 86.102584 
C 110.576757 85.580926 111.861003 85.121416 113.165462 84.725713 
L 110.832177 77.033902 
C 109.275953 77.505977 107.743844 78.054174 106.241385 78.676513 
C 104.738926 79.298852 103.267928 79.994583 101.833704 80.761191 
z
" clip-path="url(#p43f5b3493b)" style="fill: #a1a1d8"/>
   </g>
   <g id="patch_98">
    <path d="M 111.214302 78.293601 
C 112.729295 77.834033 114.265937 77.449124 115.81868 77.140264 
C 117.371423 76.831404 118.938394 76.598966 120.513933 76.443789 
L 119.329523 64.418271 
C 117.36037 64.612216 115.401927 64.902723 113.461266 65.288745 
C 111.520606 65.674766 109.600067 66.155836 107.706588 66.730216 
z
" clip-path="url(#p43f5b3493b)" style="fill: #a1a1d8"/>
   </g>
   <g id="patch_99">
    <path d="M 117.297396 43.785738 
C 119.941882 43.525279 122.597562 43.394814 125.254844 43.394814 
C 127.912125 43.394814 130.567805 43.525279 133.212292 43.785738 
L 135.148674 24.12532 
C 131.860673 23.80148 128.558754 23.639268 125.254844 23.639268 
C 121.950934 23.639268 118.649015 23.80148 115.361014 24.12532 
z
" clip-path="url(#p43f5b3493b)" style="fill: #828282"/>
   </g>
   <g id="patch_100">
    <path d="M 131.670041 59.444468 
C 133.801994 59.654447 135.922352 59.968972 138.023457 60.386908 
C 140.124562 60.804844 142.203881 61.325686 144.253904 61.947554 
L 152.034876 36.297128 
C 149.145276 35.420578 146.214382 34.686427 143.25278 34.097328 
C 140.291178 33.508228 137.302437 33.06489 134.297354 32.768916 
z
" clip-path="url(#p43f5b3493b)" style="fill: #828282"/>
   </g>
   <g id="patch_101">
    <path d="M 143.41233 64.721852 
C 145.371546 65.316173 147.300402 66.006329 149.19193 66.789825 
C 151.083458 67.573322 152.935378 68.449215 154.741002 69.414341 
L 159.67779 60.178259 
C 157.569856 59.051545 155.407873 58.029003 153.199652 57.114328 
C 150.99143 56.199653 148.739632 55.393946 146.45239 54.700119 
z
" clip-path="url(#p43f5b3493b)" style="fill: #828282"/>
   </g>
   <g id="patch_102">
    <path d="M 154.741001 69.414342 
C 156.546625 70.379468 158.303775 71.432663 160.006105 72.570124 
C 161.708436 73.707585 163.353894 74.92794 164.936536 76.226781 
L 167.164871 73.511546 
C 165.493355 72.139768 163.755496 70.850884 161.957571 69.649549 
C 160.159646 68.448214 158.303823 67.335876 156.396804 66.316553 
z
" clip-path="url(#p43f5b3493b)" style="fill: #828282"/>
   </g>
   <g id="patch_103">
    <path d="M 164.607904 76.62722 
C 166.17744 77.915304 167.682788 79.279672 169.118511 80.715395 
C 170.554234 82.151119 171.918602 83.656467 173.206687 85.226002 
L 175.417597 83.411555 
C 174.070123 81.769653 172.642848 80.194898 171.140928 78.692978 
C 169.639008 77.191058 168.064253 75.763783 166.422351 74.416309 
z
" clip-path="url(#p43f5b3493b)" style="fill: #828282"/>
   </g>
   <g id="patch_104">
    <path d="M 133.469892 117.837147 
C 133.690565 118.106037 133.897903 118.385601 134.091158 118.674826 
C 134.284412 118.964052 134.46335 119.262592 134.627325 119.569367 
L 154.573958 108.90767 
C 154.06101 107.948011 153.501254 107.014116 152.896713 106.109356 
C 152.292172 105.204596 151.643574 104.330063 150.953262 103.488916 
z
" clip-path="url(#p43f5b3493b)" style="fill: #828282"/>
   </g>
   <g id="patch_105">
    <path d="M 147.51889 112.678682 
C 147.908407 113.407417 148.261911 114.154838 148.578124 114.918244 
C 148.894337 115.681649 149.172878 116.46012 149.412741 117.250844 
L 149.412741 117.250844 
C 149.172878 116.46012 148.894337 115.681649 148.578124 114.918244 
C 148.261911 114.154838 147.908407 113.407417 147.51889 112.678682 
z
" clip-path="url(#p43f5b3493b)" style="fill: #828282"/>
   </g>
   <g id="patch_106">
    <path d="M 142.658381 119.299757 
C 142.831181 119.869401 142.975908 120.447185 143.092041 121.031023 
C 143.208173 121.614862 143.295571 122.20405 143.353918 122.796459 
L 143.353918 122.796459 
C 143.295571 122.20405 143.208173 121.614862 143.092041 121.031023 
C 142.975908 120.447185 142.831181 119.869401 142.658381 119.299757 
z
" clip-path="url(#p43f5b3493b)" style="fill: #828282"/>
   </g>
   <g id="patch_107">
    <path d="M 141.736616 122.95575 
C 141.789749 123.495223 141.816364 124.036979 141.816364 124.579063 
C 141.816364 125.121146 141.789749 125.662902 141.736616 126.202375 
L 148.563589 126.874774 
C 148.638731 126.111844 148.67637 125.345684 148.67637 124.579063 
C 148.67637 123.812441 148.638731 123.046281 148.563589 122.283351 
z
" clip-path="url(#p43f5b3493b)" style="fill: #828282"/>
   </g>
   <g id="patch_108">
    <path d="M 125.254844 124.579063 
C 125.254844 124.579063 125.254844 124.579063 125.254844 124.579063 
C 125.254844 124.579063 125.254844 124.579063 125.254844 124.579063 
L 125.254844 124.579063 
C 125.254844 124.579063 125.254844 124.579063 125.254844 124.579063 
C 125.254844 124.579063 125.254844 124.579063 125.254844 124.579063 
z
" clip-path="url(#p43f5b3493b)" style="fill: #828282"/>
   </g>
   <g id="patch_109">
    <path d="M 125.254844 124.579063 
C 125.254844 124.579063 125.254844 124.579063 125.254844 124.579063 
C 125.254844 124.579063 125.254844 124.579063 125.254844 124.579063 
L 125.254844 124.579063 
C 125.254844 124.579063 125.254844 124.579063 125.254844 124.579063 
C 125.254844 124.579063 125.254844 124.579063 125.254844 124.579063 
z
" clip-path="url(#p43f5b3493b)" style="fill: #828282"/>
   </g>
   <g id="patch_110">
    <path d="M 125.254844 124.579063 
C 125.254844 124.579063 125.254844 124.579063 125.254844 124.579063 
C 125.254844 124.579063 125.254844 124.579063 125.254844 124.579063 
L 125.254844 124.579063 
C 125.254844 124.579063 125.254844 124.579063 125.254844 124.579063 
C 125.254844 124.579063 125.254844 124.579063 125.254844 124.579063 
z
" clip-path="url(#p43f5b3493b)" style="fill: #828282"/>
   </g>
   <g id="patch_111">
    <path d="M 125.254844 124.579063 
C 125.254844 124.579063 125.254844 124.579063 125.254844 124.579063 
C 125.254844 124.579063 125.254844 124.579063 125.254844 124.579063 
L 125.254844 124.579063 
C 125.254844 124.579063 125.254844 124.579063 125.254844 124.579063 
C 125.254844 124.579063 125.254844 124.579063 125.254844 124.579063 
z
" clip-path="url(#p43f5b3493b)" style="fill: #828282"/>
   </g>
   <g id="patch_112">
    <path d="M 125.254844 124.579063 
C 125.254844 124.579063 125.254844 124.579063 125.254844 124.579063 
C 125.254844 124.579063 125.254844 124.579063 125.254844 124.579063 
L 125.254844 124.579063 
C 125.254844 124.579063 125.254844 124.579063 125.254844 124.579063 
C 125.254844 124.579063 125.254844 124.579063 125.254844 124.579063 
z
" clip-path="url(#p43f5b3493b)" style="fill: #828282"/>
   </g>
   <g id="patch_113">
    <path d="M 128.534459 130.714792 
C 128.333628 130.822139 128.127647 130.91956 127.91726 131.006705 
C 127.706874 131.09385 127.492336 131.170613 127.274421 131.236717 
L 127.274421 131.236717 
C 127.492336 131.170613 127.706874 131.09385 127.91726 131.006705 
C 128.127647 130.91956 128.333628 130.822139 128.534459 130.714792 
z
" clip-path="url(#p43f5b3493b)" style="fill: #828282"/>
   </g>
   <g id="patch_114">
    <path d="M 125.254844 124.579063 
C 125.254844 124.579063 125.254844 124.579063 125.254844 124.579063 
C 125.254844 124.579063 125.254844 124.579063 125.254844 124.579063 
L 125.254844 124.579063 
C 125.254844 124.579063 125.254844 124.579063 125.254844 124.579063 
C 125.254844 124.579063 125.254844 124.579063 125.254844 124.579063 
z
" clip-path="url(#p43f5b3493b)" style="fill: #828282"/>
   </g>
   <g id="patch_115">
    <path d="M 125.254844 124.579063 
C 125.254844 124.579063 125.254844 124.579063 125.254844 124.579063 
C 125.254844 124.579063 125.254844 124.579063 125.254844 124.579063 
L 125.254844 124.579063 
C 125.254844 124.579063 125.254844 124.579063 125.254844 124.579063 
C 125.254844 124.579063 125.254844 124.579063 125.254844 124.579063 
z
" clip-path="url(#p43f5b3493b)" style="fill: #828282"/>
   </g>
   <g id="patch_116">
    <path d="M 125.254844 124.579063 
C 125.254844 124.579063 125.254844 124.579063 125.254844 124.579063 
C 125.254844 124.579063 125.254844 124.579063 125.254844 124.579063 
L 125.254844 124.579063 
C 125.254844 124.579063 125.254844 124.579063 125.254844 124.579063 
C 125.254844 124.579063 125.254844 124.579063 125.254844 124.579063 
z
" clip-path="url(#p43f5b3493b)" style="fill: #828282"/>
   </g>
   <g id="patch_117">
    <path d="M 125.254844 124.579063 
C 125.254844 124.579063 125.254844 124.579063 125.254844 124.579063 
C 125.254844 124.579063 125.254844 124.579063 125.254844 124.579063 
L 125.254844 124.579063 
C 125.254844 124.579063 125.254844 124.579063 125.254844 124.579063 
C 125.254844 124.579063 125.254844 124.579063 125.254844 124.579063 
z
" clip-path="url(#p43f5b3493b)" style="fill: #828282"/>
   </g>
   <g id="patch_118">
    <path d="M 125.254844 124.579063 
C 125.254844 124.579063 125.254844 124.579063 125.254844 124.579063 
C 125.254844 124.579063 125.254844 124.579063 125.254844 124.579063 
L 125.254844 124.579063 
C 125.254844 124.579063 125.254844 124.579063 125.254844 124.579063 
C 125.254844 124.579063 125.254844 124.579063 125.254844 124.579063 
z
" clip-path="url(#p43f5b3493b)" style="fill: #828282"/>
   </g>
   <g id="patch_119">
    <path d="M 125.254844 124.579063 
C 125.254844 124.579063 125.254844 124.579063 125.254844 124.579063 
C 125.254844 124.579063 125.254844 124.579063 125.254844 124.579063 
L 125.254844 124.579063 
C 125.254844 124.579063 125.254844 124.579063 125.254844 124.579063 
C 125.254844 124.579063 125.254844 124.579063 125.254844 124.579063 
z
" clip-path="url(#p43f5b3493b)" style="fill: #828282"/>
   </g>
   <g id="patch_120">
    <path d="M 125.254844 124.579063 
C 125.254844 124.579063 125.254844 124.579063 125.254844 124.579063 
C 125.254844 124.579063 125.254844 124.579063 125.254844 124.579063 
L 125.254844 124.579063 
C 125.254844 124.579063 125.254844 124.579063 125.254844 124.579063 
C 125.254844 124.579063 125.254844 124.579063 125.254844 124.579063 
z
" clip-path="url(#p43f5b3493b)" style="fill: #828282"/>
   </g>
   <g id="patch_121">
    <path d="M 118.169914 128.366036 
C 118.045961 128.134136 117.933468 127.89629 117.832841 127.653357 
C 117.732215 127.410423 117.643577 127.162696 117.567247 126.91107 
L 117.567247 126.91107 
C 117.643577 127.162696 117.732215 127.410423 117.832841 127.653357 
C 117.933468 127.89629 118.045961 128.134136 118.169914 128.366036 
z
" clip-path="url(#p43f5b3493b)" style="fill: #828282"/>
   </g>
   <g id="patch_122">
    <path d="M 118.063755 126.760455 
C 117.992355 126.52508 117.932554 126.286341 117.884569 126.045101 
C 117.836583 125.803861 117.800471 125.560411 117.776362 125.315629 
L 117.776362 125.315629 
C 117.800471 125.560411 117.836583 125.803861 117.884569 126.045101 
C 117.932554 126.286341 117.992355 126.52508 118.063755 126.760455 
z
" clip-path="url(#p43f5b3493b)" style="fill: #828282"/>
   </g>
   <g id="patch_123">
    <path d="M 109.516997 126.129105 
C 109.466262 125.613982 109.440849 125.096678 109.440849 124.579063 
C 109.440849 124.061447 109.466262 123.544143 109.516997 123.02902 
L 109.516997 123.02902 
C 109.466262 123.544143 109.440849 124.061447 109.440849 124.579063 
C 109.440849 125.096678 109.466262 125.613982 109.516997 126.129105 
z
" clip-path="url(#p43f5b3493b)" style="fill: #828282"/>
   </g>
   <g id="patch_124">
    <path d="M 111.121841 123.187083 
C 111.167402 122.724489 111.235649 122.26441 111.326333 121.808509 
C 111.417017 121.352608 111.53003 120.901435 111.664964 120.456618 
L 102.84184 117.780152 
C 102.619301 118.513763 102.432915 119.257858 102.283355 120.009749 
C 102.133794 120.76164 102.02124 121.520421 101.946098 122.283351 
z
" clip-path="url(#p43f5b3493b)" style="fill: #828282"/>
   </g>
   <g id="patch_125">
    <path d="M 89.40228 113.703306 
C 89.758259 112.529798 90.17164 111.374475 90.64093 110.24151 
C 91.110219 109.108545 91.634852 107.999303 92.212931 106.917792 
L 84.401146 102.742306 
C 83.686396 104.079509 83.037731 105.450997 82.457491 106.851819 
C 81.877252 108.25264 81.366139 109.681105 80.925999 111.132054 
z
" clip-path="url(#p43f5b3493b)" style="fill: #828282"/>
   </g>
   <g id="patch_126">
    <path d="M 98.864074 110.472902 
C 99.32579 109.609093 99.829638 108.768473 100.373799 107.95408 
C 100.917959 107.139686 101.501776 106.3525 102.123141 105.595365 
L 77.202579 85.143588 
C 75.911797 86.71641 74.699014 88.351658 73.568611 90.043426 
C 72.438208 91.735193 71.391548 93.481441 70.43241 95.275861 
z
" clip-path="url(#p43f5b3493b)" style="fill: #828282"/>
   </g>
   <g id="patch_127">
    <path d="M 102.650128 106.027852 
C 103.257337 105.287966 103.900506 104.578338 104.577313 103.901531 
C 105.254119 103.224725 105.963747 102.581556 106.703633 101.974347 
L 81.229122 70.933566 
C 79.473225 72.374593 77.789137 73.900962 76.18294 75.507159 
C 74.576743 77.113356 73.050375 78.797444 71.609347 80.553341 
z
" clip-path="url(#p43f5b3493b)" style="fill: #828282"/>
   </g>
   <g id="patch_128">
    <path d="M 68.189848 55.045164 
C 70.465796 53.177341 72.832078 51.422388 75.280145 49.786641 
C 77.728213 48.150895 80.255116 46.636327 82.851727 45.24841 
L 72.986373 26.791631 
C 69.785644 28.502456 66.670841 30.369397 63.653215 32.38571 
C 60.635589 34.402023 57.718777 36.565278 54.913315 38.867662 
z
" clip-path="url(#p43f5b3493b)" style="fill: #828282"/>
   </g>
   <g id="patch_129">
    <path d="M 101.833704 80.761191 
C 103.267928 79.994583 104.738926 79.298852 106.241385 78.676513 
C 107.743844 78.054174 109.275953 77.505977 110.832177 77.033902 
L 106.327478 62.183901 
C 104.285192 62.803422 102.274552 63.52284 100.302824 64.339557 
C 98.331095 65.156274 96.400653 66.069305 94.51847 67.075352 
z
" clip-path="url(#p43f5b3493b)" style="fill: #828282"/>
   </g>
   <g id="patch_130">
    <path d="M 107.706588 66.730216 
C 109.600067 66.155836 111.520606 65.674766 113.461266 65.288745 
C 115.401927 64.902723 117.36037 64.612216 119.329523 64.418271 
L 118.0112 51.03311 
C 115.603931 51.270206 113.209754 51.625348 110.837316 52.097255 
C 108.464878 52.569163 106.11704 53.157266 103.802281 53.85944 
z
" clip-path="url(#p43f5b3493b)" style="fill: #828282"/>
   </g>
   <g id="patch_131">
    <path d="M 125.254844 124.579063 
C 125.254844 124.579063 125.254844 124.579063 125.254844 124.579063 
C 125.254844 124.579063 125.254844 124.579063 125.254844 124.579063 
L 135.148674 24.12532 
C 131.860673 23.80148 128.558754 23.639268 125.254844 23.639268 
C 121.950934 23.639268 118.649015 23.80148 115.361014 24.12532 
L 125.254844 124.579063 
z
" clip-path="url(#p43f5b3493b)" style="fill: none; stroke: #292929; stroke-width: 0.5; stroke-linejoin: miter"/>
   </g>
   <g id="patch_132">
    <path d="M 125.254844 124.579063 
C 125.254844 124.579063 125.254844 124.579063 125.254844 124.579063 
C 125.254844 124.579063 125.254844 124.579063 125.254844 124.579063 
L 152.034876 36.297128 
C 149.145276 35.420578 146.214382 34.686427 143.25278 34.097328 
C 140.291178 33.508228 137.302437 33.06489 134.297354 32.768916 
L 125.254844 124.579063 
z
" clip-path="url(#p43f5b3493b)" style="fill: none; stroke: #292929; stroke-width: 0.5; stroke-linejoin: miter"/>
   </g>
   <g id="patch_133">
    <path d="M 125.254844 124.579063 
C 125.254844 124.579063 125.254844 124.579063 125.254844 124.579063 
C 125.254844 124.579063 125.254844 124.579063 125.254844 124.579063 
L 159.67779 60.178259 
C 157.569856 59.051545 155.407873 58.029003 153.199652 57.114328 
C 150.99143 56.199653 148.739632 55.393946 146.45239 54.700119 
L 125.254844 124.579063 
z
" clip-path="url(#p43f5b3493b)" style="fill: none; stroke: #292929; stroke-width: 0.5; stroke-linejoin: miter"/>
   </g>
   <g id="patch_134">
    <path d="M 125.254844 124.579063 
C 125.254844 124.579063 125.254844 124.579063 125.254844 124.579063 
C 125.254844 124.579063 125.254844 124.579063 125.254844 124.579063 
L 167.164871 73.511546 
C 165.493355 72.139768 163.755496 70.850884 161.957571 69.649549 
C 160.159646 68.448214 158.303823 67.335876 156.396804 66.316553 
L 125.254844 124.579063 
z
" clip-path="url(#p43f5b3493b)" style="fill: none; stroke: #292929; stroke-width: 0.5; stroke-linejoin: miter"/>
   </g>
   <g id="patch_135">
    <path d="M 125.254844 124.579063 
C 125.254844 124.579063 125.254844 124.579063 125.254844 124.579063 
C 125.254844 124.579063 125.254844 124.579063 125.254844 124.579063 
L 175.417597 83.411555 
C 174.070123 81.769653 172.642848 80.194898 171.140928 78.692978 
C 169.639008 77.191058 168.064253 75.763783 166.422351 74.416309 
L 125.254844 124.579063 
z
" clip-path="url(#p43f5b3493b)" style="fill: none; stroke: #292929; stroke-width: 0.5; stroke-linejoin: miter"/>
   </g>
   <g id="patch_136">
    <path d="M 125.254844 124.579063 
C 125.254844 124.579063 125.254844 124.579063 125.254844 124.579063 
C 125.254844 124.579063 125.254844 124.579063 125.254844 124.579063 
L 154.573958 108.90767 
C 154.06101 107.948011 153.501254 107.014116 152.896713 106.109356 
C 152.292172 105.204596 151.643574 104.330063 150.953262 103.488916 
L 125.254844 124.579063 
z
" clip-path="url(#p43f5b3493b)" style="fill: none; stroke: #292929; stroke-width: 0.5; stroke-linejoin: miter"/>
   </g>
   <g id="patch_137">
    <path d="M 125.254844 124.579063 
C 125.254844 124.579063 125.254844 124.579063 125.254844 124.579063 
C 125.254844 124.579063 125.254844 124.579063 125.254844 124.579063 
L 149.412741 117.250844 
C 149.172878 116.46012 148.894337 115.681649 148.578124 114.918244 
C 148.261911 114.154838 147.908407 113.407417 147.51889 112.678682 
L 125.254844 124.579063 
z
" clip-path="url(#p43f5b3493b)" style="fill: none; stroke: #292929; stroke-width: 0.5; stroke-linejoin: miter"/>
   </g>
   <g id="patch_138">
    <path d="M 125.254844 124.579063 
C 125.254844 124.579063 125.254844 124.579063 125.254844 124.579063 
C 125.254844 124.579063 125.254844 124.579063 125.254844 124.579063 
L 143.353918 122.796459 
C 143.295571 122.20405 143.208173 121.614862 143.092041 121.031023 
C 142.975908 120.447185 142.831181 119.869401 142.658381 119.299757 
L 125.254844 124.579063 
z
" clip-path="url(#p43f5b3493b)" style="fill: none; stroke: #292929; stroke-width: 0.5; stroke-linejoin: miter"/>
   </g>
   <g id="patch_139">
    <path d="M 125.254844 124.579063 
C 125.254844 124.579063 125.254844 124.579063 125.254844 124.579063 
C 125.254844 124.579063 125.254844 124.579063 125.254844 124.579063 
L 148.563589 126.874774 
C 148.638731 126.111844 148.67637 125.345684 148.67637 124.579063 
C 148.67637 123.812441 148.638731 123.046281 148.563589 122.283351 
L 125.254844 124.579063 
z
" clip-path="url(#p43f5b3493b)" style="fill: none; stroke: #292929; stroke-width: 0.5; stroke-linejoin: miter"/>
   </g>
   <g id="patch_140">
    <path d="M 125.254844 124.579063 
C 125.254844 124.579063 125.254844 124.579063 125.254844 124.579063 
C 125.254844 124.579063 125.254844 124.579063 125.254844 124.579063 
L 125.254844 124.579063 
C 125.254844 124.579063 125.254844 124.579063 125.254844 124.579063 
C 125.254844 124.579063 125.254844 124.579063 125.254844 124.579063 
L 125.254844 124.579063 
z
" clip-path="url(#p43f5b3493b)" style="fill: none; stroke: #292929; stroke-width: 0.5; stroke-linejoin: miter"/>
   </g>
   <g id="patch_141">
    <path d="M 125.254844 124.579063 
C 125.254844 124.579063 125.254844 124.579063 125.254844 124.579063 
C 125.254844 124.579063 125.254844 124.579063 125.254844 124.579063 
L 125.254844 124.579063 
C 125.254844 124.579063 125.254844 124.579063 125.254844 124.579063 
C 125.254844 124.579063 125.254844 124.579063 125.254844 124.579063 
L 125.254844 124.579063 
z
" clip-path="url(#p43f5b3493b)" style="fill: none; stroke: #292929; stroke-width: 0.5; stroke-linejoin: miter"/>
   </g>
   <g id="patch_142">
    <path d="M 125.254844 124.579063 
C 125.254844 124.579063 125.254844 124.579063 125.254844 124.579063 
C 125.254844 124.579063 125.254844 124.579063 125.254844 124.579063 
L 125.254844 124.579063 
C 125.254844 124.579063 125.254844 124.579063 125.254844 124.579063 
C 125.254844 124.579063 125.254844 124.579063 125.254844 124.579063 
L 125.254844 124.579063 
z
" clip-path="url(#p43f5b3493b)" style="fill: none; stroke: #292929; stroke-width: 0.5; stroke-linejoin: miter"/>
   </g>
   <g id="patch_143">
    <path d="M 125.254844 124.579063 
C 125.254844 124.579063 125.254844 124.579063 125.254844 124.579063 
C 125.254844 124.579063 125.254844 124.579063 125.254844 124.579063 
L 125.254844 124.579063 
C 125.254844 124.579063 125.254844 124.579063 125.254844 124.579063 
C 125.254844 124.579063 125.254844 124.579063 125.254844 124.579063 
L 125.254844 124.579063 
z
" clip-path="url(#p43f5b3493b)" style="fill: none; stroke: #292929; stroke-width: 0.5; stroke-linejoin: miter"/>
   </g>
   <g id="patch_144">
    <path d="M 125.254844 124.579063 
C 125.254844 124.579063 125.254844 124.579063 125.254844 124.579063 
C 125.254844 124.579063 125.254844 124.579063 125.254844 124.579063 
L 125.254844 124.579063 
C 125.254844 124.579063 125.254844 124.579063 125.254844 124.579063 
C 125.254844 124.579063 125.254844 124.579063 125.254844 124.579063 
L 125.254844 124.579063 
z
" clip-path="url(#p43f5b3493b)" style="fill: none; stroke: #292929; stroke-width: 0.5; stroke-linejoin: miter"/>
   </g>
   <g id="patch_145">
    <path d="M 125.254844 124.579063 
C 125.254844 124.579063 125.254844 124.579063 125.254844 124.579063 
C 125.254844 124.579063 125.254844 124.579063 125.254844 124.579063 
L 127.274421 131.236717 
C 127.492336 131.170613 127.706874 131.09385 127.91726 131.006705 
C 128.127647 130.91956 128.333628 130.822139 128.534459 130.714792 
L 125.254844 124.579063 
z
" clip-path="url(#p43f5b3493b)" style="fill: none; stroke: #292929; stroke-width: 0.5; stroke-linejoin: miter"/>
   </g>
   <g id="patch_146">
    <path d="M 125.254844 124.579063 
C 125.254844 124.579063 125.254844 124.579063 125.254844 124.579063 
C 125.254844 124.579063 125.254844 124.579063 125.254844 124.579063 
L 125.254844 124.579063 
C 125.254844 124.579063 125.254844 124.579063 125.254844 124.579063 
C 125.254844 124.579063 125.254844 124.579063 125.254844 124.579063 
L 125.254844 124.579063 
z
" clip-path="url(#p43f5b3493b)" style="fill: none; stroke: #292929; stroke-width: 0.5; stroke-linejoin: miter"/>
   </g>
   <g id="patch_147">
    <path d="M 125.254844 124.579063 
C 125.254844 124.579063 125.254844 124.579063 125.254844 124.579063 
C 125.254844 124.579063 125.254844 124.579063 125.254844 124.579063 
L 125.254844 124.579063 
C 125.254844 124.579063 125.254844 124.579063 125.254844 124.579063 
C 125.254844 124.579063 125.254844 124.579063 125.254844 124.579063 
L 125.254844 124.579063 
z
" clip-path="url(#p43f5b3493b)" style="fill: none; stroke: #292929; stroke-width: 0.5; stroke-linejoin: miter"/>
   </g>
   <g id="patch_148">
    <path d="M 125.254844 124.579063 
C 125.254844 124.579063 125.254844 124.579063 125.254844 124.579063 
C 125.254844 124.579063 125.254844 124.579063 125.254844 124.579063 
L 125.254844 124.579063 
C 125.254844 124.579063 125.254844 124.579063 125.254844 124.579063 
C 125.254844 124.579063 125.254844 124.579063 125.254844 124.579063 
L 125.254844 124.579063 
z
" clip-path="url(#p43f5b3493b)" style="fill: none; stroke: #292929; stroke-width: 0.5; stroke-linejoin: miter"/>
   </g>
   <g id="patch_149">
    <path d="M 125.254844 124.579063 
C 125.254844 124.579063 125.254844 124.579063 125.254844 124.579063 
C 125.254844 124.579063 125.254844 124.579063 125.254844 124.579063 
L 125.254844 124.579063 
C 125.254844 124.579063 125.254844 124.579063 125.254844 124.579063 
C 125.254844 124.579063 125.254844 124.579063 125.254844 124.579063 
L 125.254844 124.579063 
z
" clip-path="url(#p43f5b3493b)" style="fill: none; stroke: #292929; stroke-width: 0.5; stroke-linejoin: miter"/>
   </g>
   <g id="patch_150">
    <path d="M 125.254844 124.579063 
C 125.254844 124.579063 125.254844 124.579063 125.254844 124.579063 
C 125.254844 124.579063 125.254844 124.579063 125.254844 124.579063 
L 125.254844 124.579063 
C 125.254844 124.579063 125.254844 124.579063 125.254844 124.579063 
C 125.254844 124.579063 125.254844 124.579063 125.254844 124.579063 
L 125.254844 124.579063 
z
" clip-path="url(#p43f5b3493b)" style="fill: none; stroke: #292929; stroke-width: 0.5; stroke-linejoin: miter"/>
   </g>
   <g id="patch_151">
    <path d="M 125.254844 124.579063 
C 125.254844 124.579063 125.254844 124.579063 125.254844 124.579063 
C 125.254844 124.579063 125.254844 124.579063 125.254844 124.579063 
L 125.254844 124.579063 
C 125.254844 124.579063 125.254844 124.579063 125.254844 124.579063 
C 125.254844 124.579063 125.254844 124.579063 125.254844 124.579063 
L 125.254844 124.579063 
z
" clip-path="url(#p43f5b3493b)" style="fill: none; stroke: #292929; stroke-width: 0.5; stroke-linejoin: miter"/>
   </g>
   <g id="patch_152">
    <path d="M 125.254844 124.579063 
C 125.254844 124.579063 125.254844 124.579063 125.254844 124.579063 
C 125.254844 124.579063 125.254844 124.579063 125.254844 124.579063 
L 125.254844 124.579063 
C 125.254844 124.579063 125.254844 124.579063 125.254844 124.579063 
C 125.254844 124.579063 125.254844 124.579063 125.254844 124.579063 
L 125.254844 124.579063 
z
" clip-path="url(#p43f5b3493b)" style="fill: none; stroke: #292929; stroke-width: 0.5; stroke-linejoin: miter"/>
   </g>
   <g id="patch_153">
    <path d="M 125.254844 124.579063 
C 125.254844 124.579063 125.254844 124.579063 125.254844 124.579063 
C 125.254844 124.579063 125.254844 124.579063 125.254844 124.579063 
L 117.567247 126.91107 
C 117.643577 127.162696 117.732215 127.410423 117.832841 127.653357 
C 117.933468 127.89629 118.045961 128.134136 118.169914 128.366036 
L 125.254844 124.579063 
z
" clip-path="url(#p43f5b3493b)" style="fill: none; stroke: #292929; stroke-width: 0.5; stroke-linejoin: miter"/>
   </g>
   <g id="patch_154">
    <path d="M 125.254844 124.579063 
C 125.254844 124.579063 125.254844 124.579063 125.254844 124.579063 
C 125.254844 124.579063 125.254844 124.579063 125.254844 124.579063 
L 117.776362 125.315629 
C 117.800471 125.560411 117.836583 125.803861 117.884569 126.045101 
C 117.932554 126.286341 117.992355 126.52508 118.063755 126.760455 
L 125.254844 124.579063 
z
" clip-path="url(#p43f5b3493b)" style="fill: none; stroke: #292929; stroke-width: 0.5; stroke-linejoin: miter"/>
   </g>
   <g id="patch_155">
    <path d="M 125.254844 124.579063 
C 125.254844 124.579063 125.254844 124.579063 125.254844 124.579063 
C 125.254844 124.579063 125.254844 124.579063 125.254844 124.579063 
L 109.516997 123.02902 
C 109.466262 123.544143 109.440849 124.061447 109.440849 124.579063 
C 109.440849 125.096678 109.466262 125.613982 109.516997 126.129105 
L 125.254844 124.579063 
z
" clip-path="url(#p43f5b3493b)" style="fill: none; stroke: #292929; stroke-width: 0.5; stroke-linejoin: miter"/>
   </g>
   <g id="patch_156">
    <path d="M 125.254844 124.579063 
C 125.254844 124.579063 125.254844 124.579063 125.254844 124.579063 
C 125.254844 124.579063 125.254844 124.579063 125.254844 124.579063 
L 102.84184 117.780152 
C 102.619301 118.513763 102.432915 119.257858 102.283355 120.009749 
C 102.133794 120.76164 102.02124 121.520421 101.946098 122.283351 
L 125.254844 124.579063 
z
" clip-path="url(#p43f5b3493b)" style="fill: none; stroke: #292929; stroke-width: 0.5; stroke-linejoin: miter"/>
   </g>
   <g id="patch_157">
    <path d="M 125.254844 124.579063 
C 125.254844 124.579063 125.254844 124.579063 125.254844 124.579063 
C 125.254844 124.579063 125.254844 124.579063 125.254844 124.579063 
L 84.401146 102.742306 
C 83.686396 104.079509 83.037731 105.450997 82.457491 106.851819 
C 81.877252 108.25264 81.366139 109.681105 80.925999 111.132054 
L 125.254844 124.579063 
z
" clip-path="url(#p43f5b3493b)" style="fill: none; stroke: #292929; stroke-width: 0.5; stroke-linejoin: miter"/>
   </g>
   <g id="patch_158">
    <path d="M 125.254844 124.579063 
C 125.254844 124.579063 125.254844 124.579063 125.254844 124.579063 
C 125.254844 124.579063 125.254844 124.579063 125.254844 124.579063 
L 77.202579 85.143588 
C 75.911797 86.71641 74.699014 88.351658 73.568611 90.043426 
C 72.438208 91.735193 71.391548 93.481441 70.43241 95.275861 
L 125.254844 124.579063 
z
" clip-path="url(#p43f5b3493b)" style="fill: none; stroke: #292929; stroke-width: 0.5; stroke-linejoin: miter"/>
   </g>
   <g id="patch_159">
    <path d="M 125.254844 124.579063 
C 125.254844 124.579063 125.254844 124.579063 125.254844 124.579063 
C 125.254844 124.579063 125.254844 124.579063 125.254844 124.579063 
L 81.229122 70.933566 
C 79.473225 72.374593 77.789137 73.900962 76.18294 75.507159 
C 74.576743 77.113356 73.050375 78.797444 71.609347 80.553341 
L 125.254844 124.579063 
z
" clip-path="url(#p43f5b3493b)" style="fill: none; stroke: #292929; stroke-width: 0.5; stroke-linejoin: miter"/>
   </g>
   <g id="patch_160">
    <path d="M 125.254844 124.579063 
C 125.254844 124.579063 125.254844 124.579063 125.254844 124.579063 
C 125.254844 124.579063 125.254844 124.579063 125.254844 124.579063 
L 72.986373 26.791631 
C 69.785644 28.502456 66.670841 30.369397 63.653215 32.38571 
C 60.635589 34.402023 57.718777 36.565278 54.913315 38.867662 
L 125.254844 124.579063 
z
" clip-path="url(#p43f5b3493b)" style="fill: none; stroke: #292929; stroke-width: 0.5; stroke-linejoin: miter"/>
   </g>
   <g id="patch_161">
    <path d="M 125.254844 124.579063 
C 125.254844 124.579063 125.254844 124.579063 125.254844 124.579063 
C 125.254844 124.579063 125.254844 124.579063 125.254844 124.579063 
L 106.327478 62.183901 
C 104.285192 62.803422 102.274552 63.52284 100.302824 64.339557 
C 98.331095 65.156274 96.400653 66.069305 94.51847 67.075352 
L 125.254844 124.579063 
z
" clip-path="url(#p43f5b3493b)" style="fill: none; stroke: #292929; stroke-width: 0.5; stroke-linejoin: miter"/>
   </g>
   <g id="patch_162">
    <path d="M 125.254844 124.579063 
C 125.254844 124.579063 125.254844 124.579063 125.254844 124.579063 
C 125.254844 124.579063 125.254844 124.579063 125.254844 124.579063 
L 118.0112 51.03311 
C 115.603931 51.270206 113.209754 51.625348 110.837316 52.097255 
C 108.464878 52.569163 106.11704 53.157266 103.802281 53.85944 
L 125.254844 124.579063 
z
" clip-path="url(#p43f5b3493b)" style="fill: none; stroke: #292929; stroke-width: 0.5; stroke-linejoin: miter"/>
   </g>
   <g id="PathCollection_1">
    <defs>
     <path id="m1b2ae86091" d="M 0.193618 7.414054 
L 0.193618 7.414054 
C 0.054922 7.414054 -0.078235 7.358899 -0.176308 7.260826 
C -0.274381 7.162753 -0.329536 7.029596 -0.329536 6.890901 
L -0.329536 5.365008 
L -1.528416 6.56393 
L -1.528416 6.56393 
C -1.577018 6.612704 -1.634775 6.651408 -1.698366 6.677814 
C -1.761958 6.704221 -1.830141 6.717815 -1.898997 6.717815 
C -1.967853 6.717815 -2.036037 6.704221 -2.099628 6.677814 
C -2.163219 6.651408 -2.220976 6.612704 -2.269578 6.56393 
L -2.269578 6.56393 
C -2.318353 6.515327 -2.357056 6.457571 -2.383463 6.393979 
C -2.409869 6.330388 -2.423463 6.262205 -2.423463 6.193348 
C -2.423463 6.124492 -2.409869 6.056309 -2.383463 5.992718 
C -2.357056 5.929126 -2.318353 5.87137 -2.269578 5.822767 
L -0.329536 3.884106 
L -0.329536 0.820937 
L -2.98067 2.351538 
L -3.691824 5.001416 
L -3.691824 5.001416 
C -3.727584 5.135411 -3.815199 5.249836 -3.93523 5.319305 
C -4.055261 5.388775 -4.198123 5.407741 -4.332122 5.371997 
L -4.332122 5.371997 
C -4.466126 5.336237 -4.580558 5.248616 -4.650029 5.128576 
C -4.719499 5.008535 -4.73846 4.865662 -4.702703 4.731657 
L -4.262647 3.092721 
L -5.585535 3.855668 
L -5.585535 3.855668 
C -5.645013 3.890144 -5.710708 3.912561 -5.778854 3.921634 
C -5.847001 3.930706 -5.916272 3.926258 -5.982698 3.908543 
C -6.049125 3.890828 -6.111412 3.860192 -6.165991 3.818391 
C -6.220571 3.77659 -6.266379 3.724437 -6.300791 3.664922 
L -6.300791 3.664922 
C -6.335212 3.605364 -6.35755 3.539597 -6.366524 3.471396 
C -6.375498 3.403194 -6.370933 3.333888 -6.35309 3.267452 
C -6.335248 3.201017 -6.304476 3.138749 -6.26254 3.08422 
C -6.220605 3.029692 -6.168323 2.983966 -6.108695 2.949666 
L -4.785807 2.186762 
L -6.424743 1.746706 
L -6.424743 1.746706 
C -6.558747 1.710946 -6.673179 1.623325 -6.74265 1.503284 
C -6.81212 1.383244 -6.831081 1.240371 -6.795324 1.106366 
L -6.795324 1.106366 
C -6.777471 1.039969 -6.746703 0.977739 -6.704784 0.923241 
C -6.662864 0.868744 -6.61061 0.823041 -6.551015 0.788752 
C -6.491421 0.754464 -6.425647 0.732257 -6.357465 0.723406 
C -6.289282 0.714554 -6.220019 0.71923 -6.153645 0.737166 
L -3.505232 1.44698 
L -0.852424 -0.08496 
L -3.503767 -1.615666 
L -6.153645 -0.905851 
L -6.153645 -0.905851 
C -6.22011 -0.887939 -6.289462 -0.883321 -6.357716 -0.892262 
C -6.42597 -0.901202 -6.491793 -0.923527 -6.551403 -0.957953 
C -6.611013 -0.992379 -6.663247 -1.038234 -6.705103 -1.092883 
C -6.746958 -1.147533 -6.777619 -1.209911 -6.795324 -1.276432 
L -6.795324 -1.276432 
C -6.831068 -1.410431 -6.812101 -1.553293 -6.742632 -1.673324 
C -6.673162 -1.793355 -6.558738 -1.88097 -6.424743 -1.91673 
L -4.785807 -2.355447 
L -6.108695 -3.119732 
L -6.108695 -3.119732 
C -6.228699 -3.188976 -6.316415 -3.303132 -6.352417 -3.436921 
C -6.388419 -3.57071 -6.369839 -3.713469 -6.300791 -3.833586 
L -6.300791 -3.833586 
C -6.266491 -3.893214 -6.220765 -3.945496 -6.166237 -3.987431 
C -6.111708 -4.029367 -6.04944 -4.060139 -5.983005 -4.077981 
C -5.91657 -4.095823 -5.847263 -4.100389 -5.779062 -4.091415 
C -5.71086 -4.082441 -5.645094 -4.060102 -5.585535 -4.025682 
L -4.262647 -3.261396 
L -4.702703 -4.900332 
L -4.702703 -4.900332 
C -4.73846 -5.034337 -4.719499 -5.17721 -4.650029 -5.29725 
C -4.580558 -5.417291 -4.466126 -5.504912 -4.332122 -5.540672 
L -4.332122 -5.540672 
C -4.19831 -5.576464 -4.055613 -5.557686 -3.935617 -5.488496 
C -3.81562 -5.419305 -3.727882 -5.305212 -3.691824 -5.171472 
L -2.982009 -2.521594 
L -0.329411 -0.990302 
L -0.329411 -4.051588 
L -2.269453 -5.991589 
L -2.269453 -5.991589 
C -2.318227 -6.040191 -2.356931 -6.097947 -2.383337 -6.161539 
C -2.409744 -6.22513 -2.423338 -6.293314 -2.423338 -6.36217 
C -2.423338 -6.431026 -2.409744 -6.499209 -2.383337 -6.5628 
C -2.356931 -6.626392 -2.318227 -6.684149 -2.269453 -6.732751 
L -2.269453 -6.732751 
C -2.22085 -6.781526 -2.163094 -6.820229 -2.099502 -6.846635 
C -2.035911 -6.873042 -1.967728 -6.886636 -1.898871 -6.886636 
C -1.830015 -6.886636 -1.761832 -6.873042 -1.698241 -6.846635 
C -1.634649 -6.820229 -1.576893 -6.781526 -1.52829 -6.732751 
L -0.329411 -5.533829 
L -0.329411 -7.059722 
L -0.329411 -7.059722 
C -0.329411 -7.198418 -0.274255 -7.331575 -0.176182 -7.429647 
C -0.07811 -7.52772 0.055047 -7.582875 0.193743 -7.582875 
L 0.193743 -7.582875 
C 0.332439 -7.582875 0.465596 -7.52772 0.563669 -7.429647 
C 0.661741 -7.331575 0.716897 -7.198418 0.716897 -7.059722 
L 0.716897 -5.533829 
L 1.915777 -6.732751 
L 1.915777 -6.732751 
C 1.964379 -6.781526 2.022136 -6.820229 2.085727 -6.846635 
C 2.149318 -6.873042 2.217502 -6.886636 2.286358 -6.886636 
C 2.355214 -6.886636 2.423397 -6.873042 2.486989 -6.846635 
C 2.55058 -6.820229 2.608337 -6.781526 2.656939 -6.732751 
L 2.656939 -6.732751 
C 2.705714 -6.684149 2.744417 -6.626392 2.770823 -6.5628 
C 2.79723 -6.499209 2.810824 -6.431026 2.810824 -6.36217 
C 2.810824 -6.293314 2.79723 -6.22513 2.770823 -6.161539 
C 2.744417 -6.097947 2.705714 -6.040191 2.656939 -5.991589 
L 0.716897 -4.051588 
L 0.716897 -0.991139 
L 3.369495 -2.522954 
L 4.07931 -5.171367 
L 4.07931 -5.171367 
C 4.115368 -5.305107 4.203106 -5.4192 4.323103 -5.488391 
C 4.4431 -5.557582 4.585797 -5.576359 4.719608 -5.540567 
L 4.719608 -5.540567 
C 4.853612 -5.504807 4.968045 -5.417186 5.037515 -5.297146 
C 5.106986 -5.177105 5.125946 -5.034232 5.090189 -4.900227 
L 4.650133 -3.262673 
L 5.973022 -4.025577 
L 5.973022 -4.025577 
C 6.03258 -4.059998 6.098346 -4.082336 6.166548 -4.09131 
C 6.234749 -4.100284 6.304056 -4.095719 6.370491 -4.077876 
C 6.436926 -4.060034 6.499194 -4.029262 6.553723 -3.987327 
C 6.608252 -3.945391 6.653978 -3.893109 6.688277 -3.833481 
L 6.688277 -3.833481 
C 6.757325 -3.713365 6.775905 -3.570605 6.739903 -3.436816 
C 6.703901 -3.303027 6.616186 -3.188871 6.496181 -3.119628 
L 5.173293 -2.355342 
L 6.812229 -1.916625 
L 6.812229 -1.916625 
C 6.946224 -1.880865 7.060649 -1.79325 7.130118 -1.67322 
C 7.199588 -1.553189 7.218554 -1.410326 7.18281 -1.276327 
L 7.18281 -1.276327 
C 7.165106 -1.209806 7.134445 -1.147429 7.092589 -1.092779 
C 7.050733 -1.038129 6.998499 -0.992274 6.938889 -0.957848 
C 6.879279 -0.923422 6.813456 -0.901098 6.745202 -0.892157 
C 6.676949 -0.883217 6.607597 -0.887835 6.541131 -0.905746 
L 3.891253 -1.615561 
L 1.239492 -0.084604 
L 3.892718 1.447085 
L 6.541131 0.73727 
L 6.541131 0.73727 
C 6.674948 0.701466 6.817656 0.720237 6.937662 0.789429 
C 7.057669 0.858621 7.145413 0.972721 7.181471 1.10647 
L 7.181471 1.10647 
C 7.217274 1.240293 7.198497 1.383006 7.129297 1.503014 
C 7.060096 1.623021 6.945986 1.710762 6.812229 1.74681 
L 5.173293 2.186866 
L 6.496181 2.949771 
L 6.496181 2.949771 
C 6.555697 2.984183 6.607849 3.029991 6.649651 3.08457 
C 6.691452 3.13915 6.722088 3.201437 6.739803 3.267863 
C 6.757517 3.33429 6.761966 3.403561 6.752893 3.471707 
C 6.743821 3.539854 6.721404 3.605549 6.686927 3.665026 
L 6.686927 3.665026 
C 6.617458 3.784813 6.503196 3.87225 6.369416 3.907994 
C 6.235636 3.943739 6.092989 3.924946 5.973032 3.855772 
L 4.650144 3.091487 
L 5.08886 4.731783 
L 5.08886 4.731783 
C 5.124664 4.865606 5.105887 5.008319 5.036686 5.128326 
C 4.967486 5.248334 4.853376 5.336074 4.719619 5.372123 
L 4.719619 5.372123 
C 4.585619 5.407867 4.442757 5.3889 4.322726 5.319431 
C 4.202695 5.249961 4.115081 5.135537 4.07932 5.001542 
L 3.368166 2.351664 
L 0.717033 0.821063 
L 0.717033 3.884232 
L 2.657075 5.822893 
L 2.657075 5.822893 
C 2.70585 5.871495 2.744553 5.929252 2.770959 5.992843 
C 2.797366 6.056435 2.81096 6.124618 2.81096 6.193474 
C 2.81096 6.26233 2.797366 6.330514 2.770959 6.394105 
C 2.744553 6.457696 2.70585 6.515453 2.657075 6.564055 
L 2.657075 6.564055 
C 2.608473 6.61283 2.550716 6.651533 2.487125 6.67794 
C 2.423533 6.704346 2.35535 6.71794 2.286494 6.71794 
C 2.217638 6.71794 2.149454 6.704346 2.085863 6.67794 
C 2.022272 6.651533 1.964515 6.61283 1.915913 6.564055 
L 0.717033 5.365133 
L 0.717033 6.891026 
L 0.717033 6.891026 
C 0.717033 7.029722 0.661877 7.162879 0.563805 7.260952 
C 0.465732 7.359024 0.332575 7.41418 0.193879 7.41418 
L 0.193618 7.414054 
z
"/>
    </defs>
    <g clip-path="url(#p43f5b3493b)">
     <use xlink:href="#m1b2ae86091" x="112.756607" y="33.487756" style="fill: #9e2096; fill-opacity: 0.7"/>
    </g>
   </g>
   <g id="patch_163">
    <path d="M 125.254844 13.699063 
C 110.694216 13.699063 96.275171 16.567189 82.822905 22.1393 
C 69.370638 27.711411 57.146763 35.879144 46.850844 46.175063 
C 36.554925 56.470982 28.387192 68.694857 22.815081 82.147124 
C 17.24297 95.59939 14.374844 110.018434 14.374844 124.579063 
C 14.374844 139.139691 17.24297 153.558735 22.815081 167.011001 
C 28.387192 180.463268 36.554925 192.687143 46.850844 202.983062 
C 57.146763 213.278981 69.370638 221.446714 82.822905 227.018825 
C 96.275171 232.590936 110.694216 235.459063 125.254844 235.459063 
C 139.815472 235.459063 154.234516 232.590936 167.686783 227.018825 
C 181.139049 221.446714 193.362925 213.278981 203.658844 202.983062 
C 213.954763 192.687143 222.122495 180.463268 227.694606 167.011001 
C 233.266717 153.558735 236.134844 139.139691 236.134844 124.579063 
C 236.134844 110.018434 233.266717 95.59939 227.694606 82.147124 
C 222.122495 68.694857 213.954763 56.470982 203.658844 46.175063 
C 193.362925 35.879144 181.139049 27.711411 167.686783 22.1393 
C 154.234516 16.567189 139.815472 13.699063 125.254844 13.699063 
" style="fill: none; stroke: #000000; stroke-width: 0.8; stroke-linejoin: miter; stroke-linecap: square"/>
   </g>
  </g>
 </g>
 <defs>
  <clipPath id="p43f5b3493b">
   <path d="M 236.134844 124.579063 
C 236.134844 110.018434 233.266717 95.59939 227.694606 82.147124 
C 222.122495 68.694857 213.954763 56.470982 203.658844 46.175063 
C 193.362925 35.879144 181.139049 27.711411 167.686783 22.1393 
C 154.234516 16.567189 139.815472 13.699063 125.254844 13.699063 
C 110.694216 13.699063 96.275171 16.567189 82.822905 22.1393 
C 69.370638 27.711411 57.146763 35.879144 46.850844 46.175063 
C 36.554925 56.470982 28.387192 68.694857 22.815081 82.147124 
C 17.24297 95.59939 14.374844 110.018434 14.374844 124.579062 
C 14.374844 139.139691 17.24297 153.558735 22.815081 167.011001 
C 28.387192 180.463268 36.554925 192.687143 46.850844 202.983062 
C 57.146763 213.278981 69.370638 221.446714 82.822905 227.018825 
C 96.275171 232.590936 110.694216 235.459063 125.254844 235.459063 
C 139.815472 235.459063 154.234516 232.590936 167.686783 227.018825 
C 181.139049 221.446714 193.362925 213.278981 203.658844 202.983062 
C 213.954763 192.687143 222.122495 180.463268 227.694606 167.011001 
C 233.266717 153.558735 236.134844 139.139691 236.134844 124.579063 
M 125.254844 124.579063 
C 125.254844 124.579063 125.254844 124.579063 125.254844 124.579063 
C 125.254844 124.579063 125.254844 124.579063 125.254844 124.579063 
C 125.254844 124.579063 125.254844 124.579063 125.254844 124.579063 
C 125.254844 124.579063 125.254844 124.579063 125.254844 124.579063 
C 125.254844 124.579063 125.254844 124.579063 125.254844 124.579063 
C 125.254844 124.579063 125.254844 124.579063 125.254844 124.579063 
C 125.254844 124.579063 125.254844 124.579063 125.254844 124.579063 
C 125.254844 124.579063 125.254844 124.579063 125.254844 124.579063 
C 125.254844 124.579063 125.254844 124.579063 125.254844 124.579063 
C 125.254844 124.579063 125.254844 124.579063 125.254844 124.579063 
C 125.254844 124.579063 125.254844 124.579063 125.254844 124.579063 
C 125.254844 124.579063 125.254844 124.579063 125.254844 124.579063 
C 125.254844 124.579063 125.254844 124.579063 125.254844 124.579063 
C 125.254844 124.579063 125.254844 124.579063 125.254844 124.579063 
C 125.254844 124.579063 125.254844 124.579063 125.254844 124.579063 
C 125.254844 124.579063 125.254844 124.579063 125.254844 124.579063 
z
"/>
  </clipPath>
 </defs>
</svg>
