<?xml version="1.0" encoding="utf-8" standalone="no"?>
<!DOCTYPE svg PUBLIC "-//W3C//DTD SVG 1.1//EN"
  "http://www.w3.org/Graphics/SVG/1.1/DTD/svg11.dtd">
<svg xmlns:xlink="http://www.w3.org/1999/xlink" width="248.410469pt" height="249.158125pt" viewBox="0 0 248.410469 249.158125" xmlns="http://www.w3.org/2000/svg" version="1.1">
 <title>Ski Rose for Thollon-les-Mémises</title>
 <metadata>
  <rdf:RDF xmlns:dc="http://purl.org/dc/elements/1.1/" xmlns:cc="http://creativecommons.org/ns#" xmlns:rdf="http://www.w3.org/1999/02/22-rdf-syntax-ns#">
   <cc:Work>
    <dc:type rdf:resource="http://purl.org/dc/dcmitype/StillImage"/>
    <dc:title>Ski Rose for Thollon-les-Mémises</dc:title>
    <dc:date>2025-10-18T10:25:46.711345</dc:date>
    <dc:description>A 32-bin stacked histogram of downhill ski run orientations colored by difficulty.</dc:description>
    <dc:format>image/svg+xml</dc:format>
    <dc:source>https://openskimap.org/?obj=d3c7b897d3dac0b590961eb352677d3070e52fe1</dc:source>
    <dc:creator>
     <cc:Agent>
      <dc:title>https://github.com/dhimmel/openskistats</dc:title>
     </cc:Agent>
    </dc:creator>
    <dc:rights>
     <cc:Agent>
      <dc:title>https://creativecommons.org/licenses/by/4.0/</dc:title>
     </cc:Agent>
    </dc:rights>
   </cc:Work>
  </rdf:RDF>
 </metadata>
 <defs>
  <style type="text/css">*{stroke-linejoin: round; stroke-linecap: butt}</style>
 </defs>
 <g id="figure_1">
  <g id="patch_1">
   <path d="M 0 249.158125 
L 248.410469 249.158125 
L 248.410469 0 
L 0 0 
z
" style="fill: #ffffff"/>
  </g>
  <g id="axes_1">
   <g id="patch_2">
    <path d="M 236.134844 124.579063 
C 236.134844 110.018434 233.266717 95.59939 227.694606 82.147124 
C 222.122495 68.694857 213.954763 56.470982 203.658844 46.175063 
C 193.362925 35.879144 181.139049 27.711411 167.686783 22.1393 
C 154.234516 16.567189 139.815472 13.699063 125.254844 13.699063 
C 110.694216 13.699063 96.275171 16.567189 82.822905 22.1393 
C 69.370638 27.711411 57.146763 35.879144 46.850844 46.175063 
C 36.554925 56.470982 28.387192 68.694857 22.815081 82.147124 
C 17.24297 95.59939 14.374844 110.018434 14.374844 124.579062 
C 14.374844 139.139691 17.24297 153.558735 22.815081 167.011001 
C 28.387192 180.463268 36.554925 192.687143 46.850844 202.983062 
C 57.146763 213.278981 69.370638 221.446714 82.822905 227.018825 
C 96.275171 232.590936 110.694216 235.459063 125.254844 235.459063 
C 139.815472 235.459063 154.234516 232.590936 167.686783 227.018825 
C 181.139049 221.446714 193.362925 213.278981 203.658844 202.983062 
C 213.954763 192.687143 222.122495 180.463268 227.694606 167.011001 
C 233.266717 153.558735 236.134844 139.139691 236.134844 124.579063 
M 125.254844 124.579063 
C 125.254844 124.579063 125.254844 124.579063 125.254844 124.579063 
C 125.254844 124.579063 125.254844 124.579063 125.254844 124.579063 
C 125.254844 124.579063 125.254844 124.579063 125.254844 124.579063 
C 125.254844 124.579063 125.254844 124.579063 125.254844 124.579063 
C 125.254844 124.579063 125.254844 124.579063 125.254844 124.579063 
C 125.254844 124.579063 125.254844 124.579063 125.254844 124.579063 
C 125.254844 124.579063 125.254844 124.579063 125.254844 124.579063 
C 125.254844 124.579063 125.254844 124.579063 125.254844 124.579063 
C 125.254844 124.579063 125.254844 124.579063 125.254844 124.579063 
C 125.254844 124.579063 125.254844 124.579063 125.254844 124.579063 
C 125.254844 124.579063 125.254844 124.579063 125.254844 124.579063 
C 125.254844 124.579063 125.254844 124.579063 125.254844 124.579063 
C 125.254844 124.579063 125.254844 124.579063 125.254844 124.579063 
C 125.254844 124.579063 125.254844 124.579063 125.254844 124.579063 
C 125.254844 124.579063 125.254844 124.579063 125.254844 124.579063 
C 125.254844 124.579063 125.254844 124.579063 125.254844 124.579063 
z
" style="fill: #ffffff"/>
   </g>
   <g id="PolyCollection_1">
    <defs>
     <path id="m80b57567cb" d="M 235.326062 -137.120094 
L 234.779521 -137.057823 
L 234.035866 -135.053484 
L 233.023018 -133.060602 
L 232.146388 -131.116829 
L 231.014547 -129.196631 
L 230.043378 -127.323047 
L 228.824025 -125.482897 
L 227.566891 -123.686199 
L 226.485572 -121.928243 
L 225.162446 -120.217002 
L 224.02003 -118.538325 
L 222.849667 -116.898183 
L 221.443385 -115.317159 
L 220.22223 -113.758896 
L 218.76963 -112.267607 
L 217.503989 -110.792335 
L 216.217864 -109.357073 
L 214.707808 -107.999935 
L 213.386109 -106.648554 
L 212.048113 -105.337458 
L 210.695157 -104.066658 
L 209.328568 -102.836119 
L 207.94967 -101.645758 
L 206.559778 -100.495444 
L 205.1602 -99.385001 
L 203.752236 -98.314202 
L 202.337178 -97.282776 
L 200.916308 -96.2904 
L 199.490898 -95.336703 
L 198.243061 -94.346353 
L 196.809563 -93.466185 
L 195.375151 -92.623397 
L 194.113555 -91.735142 
L 192.677854 -90.96319 
L 191.411283 -90.1402 
L 190.14221 -89.348097 
L 188.710917 -88.677344 
L 187.442519 -87.947722 
L 186.174242 -87.247607 
L 184.906899 -86.576512 
L 183.493995 -86.031409 
L 182.234298 -85.418168 
L 180.977931 -84.832171 
L 179.725624 -84.272806 
L 178.478085 -83.739433 
L 177.365606 -83.12829 
L 176.125919 -82.644184 
L 174.892923 -82.184138 
L 173.667227 -81.747404 
L 172.56439 -81.22785 
L 171.351117 -80.835332 
L 170.146752 -80.463907 
L 169.055555 -80.007135 
L 167.866474 -79.675773 
L 166.784012 -79.257928 
L 165.611825 -78.963793 
L 164.539546 -78.582586 
L 163.471114 -78.219019 
L 162.324775 -77.975772 
L 161.268319 -77.645388 
L 160.216505 -77.331089 
L 159.098297 -77.132291 
L 158.059785 -76.847576 
L 157.026493 -76.577337 
L 155.998572 -76.321076 
L 154.976153 -76.078295 
L 153.959344 -75.848492 
L 152.948229 -75.631169 
L 151.942872 -75.425828 
L 150.943312 -75.231975 
L 149.949563 -75.049118 
L 148.96162 -74.876772 
L 147.979454 -74.714457 
L 147.003011 -74.561702 
L 146.032218 -74.418043 
L 145.066979 -74.283028 
L 144.107175 -74.156213 
L 143.152667 -74.037169 
L 142.224423 -73.862335 
L 141.277771 -73.760831 
L 140.335982 -73.665993 
L 139.398843 -73.577448 
L 138.466122 -73.49484 
L 137.54893 -73.37051 
L 136.622596 -73.302447 
L 135.700006 -73.239448 
L 134.780869 -73.181232 
L 133.870496 -73.093956 
L 132.956142 -73.048473 
L 132.044418 -73.007124 
L 131.137613 -72.946662 
L 130.229327 -72.917078 
L 129.322769 -72.891166 
L 128.417578 -72.868807 
L 127.513741 -72.841809 
L 126.609929 -72.830433 
L 125.706517 -72.822417 
L 124.803169 -72.822239 
L 123.899839 -72.833509 
L 122.996215 -72.847955 
L 122.091925 -72.865797 
L 121.187802 -72.902398 
L 120.281734 -72.931339 
L 119.374042 -72.963929 
L 118.467802 -73.026365 
L 117.556862 -73.070666 
L 116.643394 -73.119066 
L 115.727067 -73.171778 
L 114.815753 -73.269293 
L 113.894328 -73.335086 
L 112.969252 -73.405891 
L 112.040246 -73.482005 
L 111.121872 -73.617213 
L 110.186248 -73.708337 
L 109.246061 -73.805689 
L 108.301092 -73.909639 
L 107.351144 -74.020574 
L 106.421622 -74.207323 
L 105.463724 -74.336377 
L 104.500462 -74.473553 
L 103.531717 -74.619291 
L 102.557388 -74.774041 
L 101.577399 -74.938266 
L 100.591693 -75.112436 
L 99.60024 -75.297027 
L 98.603028 -75.492525 
L 97.600072 -75.699418 
L 96.591406 -75.918201 
L 95.57709 -76.14937 
L 94.557206 -76.393423 
L 93.531858 -76.65086 
L 92.501175 -76.922179 
L 91.39449 -77.108598 
L 90.350219 -77.408169 
L 89.301107 -77.723241 
L 88.247378 -78.054302 
L 87.104244 -78.298684 
L 86.03858 -78.662717 
L 84.969084 -79.044295 
L 83.800156 -79.33921 
L 82.720502 -79.757218 
L 81.5347 -80.089121 
L 80.446323 -80.545852 
L 79.245245 -80.917584 
L 78.035259 -81.310285 
L 76.935244 -81.829492 
L 75.712828 -82.266183 
L 74.483103 -82.726069 
L 73.246675 -83.209897 
L 72.136987 -83.820298 
L 70.892683 -84.353179 
L 69.643592 -84.911942 
L 68.390423 -85.497229 
L 67.133903 -86.109651 
L 65.874784 -86.749793 
L 64.460386 -87.324171 
L 63.195211 -88.023145 
L 61.929889 -88.751527 
L 60.665248 -89.509773 
L 59.236023 -90.21184 
L 57.972436 -91.033291 
L 56.54012 -91.80382 
L 55.28144 -92.690345 
L 53.850341 -93.531501 
L 52.600542 -94.484665 
L 51.175088 -95.398271 
L 49.752876 -96.350033 
L 48.335163 -97.340375 
L 46.923222 -98.369669 
L 45.710655 -99.498876 
L 44.316186 -100.60394 
L 42.93124 -101.748706 
L 41.557121 -102.93336 
L 39.995252 -104.110045 
L 38.645153 -105.378156 
L 37.309968 -106.686475 
L 35.991032 -108.034993 
L 34.689685 -109.423653 
L 33.200648 -110.821471 
L 31.937611 -112.293616 
L 30.696375 -113.805486 
L 29.269299 -115.336706 
L 28.075364 -116.930872 
L 26.697782 -118.551054 
L 25.557575 -120.226186 
L 24.236918 -121.933815 
L 23.157508 -123.688073 
L 21.902386 -125.481006 
L 20.89234 -127.311891 
L 19.714264 -129.187064 
L 18.786069 -131.090972 
L 17.704511 -133.043457 
L 16.881815 -135.014198 
L 15.937773 -137.034169 
L 15.145056 -137.124488 
L 15.145056 -137.124488 
L 14.997735 -135.195615 
L 14.766082 -133.274717 
L 14.684748 -131.341819 
L 14.519344 -129.413879 
L 14.438543 -127.480889 
L 14.454617 -125.546001 
L 14.388101 -123.611543 
L 14.468878 -121.67803 
L 14.581117 -119.746943 
L 14.613124 -117.811925 
L 14.788627 -115.885183 
L 14.886235 -113.951774 
L 15.124144 -112.031254 
L 15.391886 -110.11533 
L 15.613085 -108.192992 
L 16.015902 -106.298733 
L 16.274242 -104.380702 
L 16.662094 -102.485618 
L 17.079362 -100.597135 
L 17.445149 -98.696245 
L 18.002517 -96.841725 
L 18.421606 -94.951584 
L 18.959675 -93.092999 
L 19.527601 -91.243391 
L 20.125509 -89.403279 
L 20.753551 -87.573214 
L 21.411903 -85.753778 
L 22.10078 -83.945596 
L 22.820465 -82.149354 
L 23.571331 -80.365813 
L 24.42723 -78.629272 
L 25.241843 -76.875308 
L 26.089696 -75.137144 
L 26.903448 -73.380567 
L 27.82349 -71.678153 
L 28.750234 -69.979381 
L 29.754796 -68.325235 
L 30.721197 -66.648769 
L 31.744563 -65.006444 
L 32.794007 -63.380569 
L 33.878786 -61.778038 
L 35.308665 -60.421077 
L 37.119757 -59.362529 
L 38.950982 -58.35578 
L 40.801275 -57.40166 
L 42.597225 -56.44138 
L 44.457094 -55.571265 
L 46.321114 -54.744398 
L 48.124074 -53.901734 
L 49.979408 -53.145342 
L 51.777375 -52.372955 
L 53.571808 -51.633875 
L 55.361736 -50.927095 
L 57.196612 -50.306535 
L 58.973291 -49.661395 
L 60.74317 -49.045597 
L 62.460736 -48.403719 
L 64.217089 -47.844089 
L 65.965024 -47.311065 
L 67.704109 -46.803708 
L 69.39978 -46.273151 
L 71.121824 -45.81503 
L 72.79974 -45.328045 
L 74.474431 -44.869781 
L 76.169684 -44.479361 
L 77.825266 -44.059617 
L 79.476833 -43.666702 
L 81.117715 -43.288583 
L 82.754199 -42.936084 
L 84.379964 -42.596737 
L 86.001075 -42.281825 
L 87.61158 -41.978458 
L 89.217294 -41.698372 
L 90.798214 -41.393398 
L 92.387453 -41.140331 
L 93.97187 -40.908948 
L 95.535691 -40.654763 
L 97.10452 -40.446613 
L 98.657826 -40.224099 
L 100.216387 -40.050648 
L 101.759621 -39.858027 
L 103.304494 -39.703357 
L 104.838491 -39.538832 
L 106.374523 -39.415438 
L 107.900053 -39.27754 
L 109.422103 -39.153237 
L 110.94328 -39.056532 
L 112.458519 -38.956852 
L 113.971025 -38.86995 
L 115.481054 -38.79561 
L 116.990297 -38.748466 
L 118.495775 -38.696948 
L 119.999654 -38.657474 
L 121.502223 -38.629927 
L 123.003765 -38.613819 
L 124.504586 -38.608064 
L 126.005093 -38.609044 
L 127.505868 -38.615918 
L 129.007314 -38.633364 
L 130.510444 -38.650758 
L 132.014493 -38.689576 
L 133.520163 -38.740444 
L 135.027734 -38.803504 
L 136.537481 -38.87892 
L 138.05149 -38.954704 
L 139.566875 -39.053735 
L 141.085258 -39.165792 
L 142.612054 -39.265651 
L 144.137929 -39.40297 
L 145.667506 -39.554206 
L 147.206762 -39.697293 
L 148.745125 -39.875846 
L 150.297679 -40.035868 
L 151.845775 -40.243402 
L 153.408007 -40.438126 
L 154.966338 -40.676392 
L 156.544103 -40.892138 
L 158.126242 -41.130156 
L 159.70144 -41.417622 
L 161.300288 -41.680216 
L 162.903438 -41.966761 
L 164.517667 -42.262841 
L 166.136033 -42.584083 
L 167.765751 -42.916369 
L 169.399316 -43.27506 
L 171.044367 -43.646354 
L 172.692845 -44.045317 
L 174.352799 -44.458481 
L 176.015632 -44.900585 
L 177.720101 -45.312705 
L 179.402661 -45.7935 
L 181.125402 -46.251429 
L 182.81753 -46.787557 
L 184.557247 -47.294666 
L 186.267029 -47.876233 
L 188.02227 -48.436086 
L 189.785446 -49.023435 
L 191.556018 -49.639218 
L 193.333383 -50.284374 
L 195.116869 -50.959849 
L 196.905726 -51.666595 
L 198.749937 -52.355635 
L 200.5485 -53.12805 
L 202.349454 -53.934868 
L 204.212718 -54.723036 
L 206.015539 -55.602912 
L 207.873733 -56.473306 
L 209.733841 -57.381434 
L 211.579705 -58.339666 
L 213.415363 -59.34371 
L 215.221827 -60.406237 
L 216.629324 -61.779122 
L 217.700975 -63.390303 
L 218.769563 -65.003616 
L 219.751074 -66.671698 
L 220.773729 -68.314139 
L 221.74398 -69.988136 
L 222.591056 -71.729812 
L 223.505164 -73.433183 
L 224.368788 -75.162673 
L 225.32939 -76.845953 
L 226.0587 -78.640099 
L 226.913673 -80.376545 
L 227.663219 -82.160125 
L 228.414462 -83.943408 
L 229.035636 -85.777014 
L 229.699436 -87.593293 
L 230.386177 -89.40261 
L 230.949971 -91.253517 
L 231.467433 -93.11746 
L 232.055685 -94.960568 
L 232.536038 -96.834259 
L 233.04874 -98.700038 
L 233.430879 -100.597013 
L 233.868444 -102.481376 
L 234.271004 -104.374111 
L 234.51846 -106.294604 
L 234.870341 -108.196917 
L 235.161766 -110.109542 
L 235.418231 -112.02753 
L 235.493719 -113.964266 
L 235.691636 -115.887498 
L 235.851969 -117.814653 
L 235.964649 -119.745368 
L 236.053022 -121.67771 
L 236.105517 -123.611683 
L 236.122857 -125.546593 
L 235.923704 -127.477029 
L 235.864737 -129.408395 
L 235.781024 -131.339133 
L 235.664868 -133.26852 
L 235.5064 -135.19508 
L 235.326062 -137.120094 
z
" style="stroke: #ffee9c"/>
    </defs>
    <g clip-path="url(#pc6eb694d07)">
     <use xlink:href="#m80b57567cb" x="0" y="249.158125" style="fill: #ffee9c; stroke: #ffee9c"/>
    </g>
   </g>
   <g id="matplotlib.axis_1">
    <g id="xtick_1">
     <g id="line2d_1">
      <path d="M 125.254844 124.579063 
L 125.254844 13.699063 
" clip-path="url(#pc6eb694d07)" style="fill: none; stroke: #b0b0b0; stroke-width: 0.8; stroke-linecap: square"/>
     </g>
     <g id="text_1">
      <!-- N -->
      <g transform="translate(121.070469 7.958438) scale(0.1 -0.1)">
       <defs>
        <path id="DejaVuSans-Bold-4e" d="M 588 4666 
L 1931 4666 
L 3628 1466 
L 3628 4666 
L 4769 4666 
L 4769 0 
L 3425 0 
L 1728 3200 
L 1728 0 
L 588 0 
L 588 4666 
z
" transform="scale(0.015625)"/>
       </defs>
       <use xlink:href="#DejaVuSans-Bold-4e"/>
      </g>
     </g>
    </g>
    <g id="xtick_2">
     <g id="line2d_2">
      <path d="M 125.254844 124.579063 
L 203.658844 46.175063 
" clip-path="url(#pc6eb694d07)" style="fill: none; stroke: #b0b0b0; stroke-width: 0.8; stroke-linecap: square"/>
     </g>
    </g>
    <g id="xtick_3">
     <g id="line2d_3">
      <path d="M 125.254844 124.579063 
L 236.134844 124.579063 
" clip-path="url(#pc6eb694d07)" style="fill: none; stroke: #b0b0b0; stroke-width: 0.8; stroke-linecap: square"/>
     </g>
     <g id="text_2">
      <!-- E -->
      <g transform="translate(241.219219 127.338438) scale(0.1 -0.1)">
       <defs>
        <path id="DejaVuSans-Bold-45" d="M 588 4666 
L 3834 4666 
L 3834 3756 
L 1791 3756 
L 1791 2888 
L 3713 2888 
L 3713 1978 
L 1791 1978 
L 1791 909 
L 3903 909 
L 3903 0 
L 588 0 
L 588 4666 
z
" transform="scale(0.015625)"/>
       </defs>
       <use xlink:href="#DejaVuSans-Bold-45"/>
      </g>
     </g>
    </g>
    <g id="xtick_4">
     <g id="line2d_4">
      <path d="M 125.254844 124.579063 
L 203.658844 202.983062 
" clip-path="url(#pc6eb694d07)" style="fill: none; stroke: #b0b0b0; stroke-width: 0.8; stroke-linecap: square"/>
     </g>
    </g>
    <g id="xtick_5">
     <g id="line2d_5">
      <path d="M 125.254844 124.579063 
L 125.254844 235.459063 
" clip-path="url(#pc6eb694d07)" style="fill: none; stroke: #b0b0b0; stroke-width: 0.8; stroke-linecap: square"/>
     </g>
     <g id="text_3">
      <!-- S -->
      <g transform="translate(121.654062 246.718438) scale(0.1 -0.1)">
       <defs>
        <path id="DejaVuSans-Bold-53" d="M 3834 4519 
L 3834 3531 
Q 3450 3703 3084 3790 
Q 2719 3878 2394 3878 
Q 1963 3878 1756 3759 
Q 1550 3641 1550 3391 
Q 1550 3203 1689 3098 
Q 1828 2994 2194 2919 
L 2706 2816 
Q 3484 2659 3812 2340 
Q 4141 2022 4141 1434 
Q 4141 663 3683 286 
Q 3225 -91 2284 -91 
Q 1841 -91 1394 -6 
Q 947 78 500 244 
L 500 1259 
Q 947 1022 1364 901 
Q 1781 781 2169 781 
Q 2563 781 2772 912 
Q 2981 1044 2981 1288 
Q 2981 1506 2839 1625 
Q 2697 1744 2272 1838 
L 1806 1941 
Q 1106 2091 782 2419 
Q 459 2747 459 3303 
Q 459 4000 909 4375 
Q 1359 4750 2203 4750 
Q 2588 4750 2994 4692 
Q 3400 4634 3834 4519 
z
" transform="scale(0.015625)"/>
       </defs>
       <use xlink:href="#DejaVuSans-Bold-53"/>
      </g>
     </g>
    </g>
    <g id="xtick_6">
     <g id="line2d_6">
      <path d="M 125.254844 124.579063 
L 46.850844 202.983062 
" clip-path="url(#pc6eb694d07)" style="fill: none; stroke: #b0b0b0; stroke-width: 0.8; stroke-linecap: square"/>
     </g>
    </g>
    <g id="xtick_7">
     <g id="line2d_7">
      <path d="M 125.254844 124.579063 
L 14.374844 124.579063 
" clip-path="url(#pc6eb694d07)" style="fill: none; stroke: #b0b0b0; stroke-width: 0.8; stroke-linecap: square"/>
     </g>
     <g id="text_4">
      <!-- W -->
      <g transform="translate(0.36 127.338438) scale(0.1 -0.1)">
       <defs>
        <path id="DejaVuSans-Bold-57" d="M 191 4666 
L 1344 4666 
L 2150 1275 
L 2950 4666 
L 4109 4666 
L 4909 1275 
L 5716 4666 
L 6859 4666 
L 5759 0 
L 4372 0 
L 3525 3547 
L 2688 0 
L 1300 0 
L 191 4666 
z
" transform="scale(0.015625)"/>
       </defs>
       <use xlink:href="#DejaVuSans-Bold-57"/>
      </g>
     </g>
    </g>
    <g id="xtick_8">
     <g id="line2d_8">
      <path d="M 125.254844 124.579063 
L 46.850844 46.175063 
" clip-path="url(#pc6eb694d07)" style="fill: none; stroke: #b0b0b0; stroke-width: 0.8; stroke-linecap: square"/>
     </g>
    </g>
   </g>
   <g id="matplotlib.axis_2"/>
   <g id="patch_3">
    <path d="M 125.254844 124.579063 
C 125.254844 124.579063 125.254844 124.579063 125.254844 124.579063 
C 125.254844 124.579063 125.254844 124.579063 125.254844 124.579063 
L 125.254844 124.579063 
C 125.254844 124.579063 125.254844 124.579063 125.254844 124.579063 
C 125.254844 124.579063 125.254844 124.579063 125.254844 124.579063 
z
" clip-path="url(#pc6eb694d07)" style="fill: #d9d9d9"/>
   </g>
   <g id="patch_4">
    <path d="M 125.254844 124.579063 
C 125.254844 124.579063 125.254844 124.579063 125.254844 124.579063 
C 125.254844 124.579063 125.254844 124.579063 125.254844 124.579063 
L 125.254844 124.579063 
C 125.254844 124.579063 125.254844 124.579063 125.254844 124.579063 
C 125.254844 124.579063 125.254844 124.579063 125.254844 124.579063 
z
" clip-path="url(#pc6eb694d07)" style="fill: #d9d9d9"/>
   </g>
   <g id="patch_5">
    <path d="M 125.254844 124.579063 
C 125.254844 124.579063 125.254844 124.579063 125.254844 124.579063 
C 125.254844 124.579063 125.254844 124.579063 125.254844 124.579063 
L 125.254844 124.579063 
C 125.254844 124.579063 125.254844 124.579063 125.254844 124.579063 
C 125.254844 124.579063 125.254844 124.579063 125.254844 124.579063 
z
" clip-path="url(#pc6eb694d07)" style="fill: #d9d9d9"/>
   </g>
   <g id="patch_6">
    <path d="M 125.254844 124.579063 
C 125.254844 124.579063 125.254844 124.579063 125.254844 124.579063 
C 125.254844 124.579063 125.254844 124.579063 125.254844 124.579063 
L 125.254844 124.579063 
C 125.254844 124.579063 125.254844 124.579063 125.254844 124.579063 
C 125.254844 124.579063 125.254844 124.579063 125.254844 124.579063 
z
" clip-path="url(#pc6eb694d07)" style="fill: #d9d9d9"/>
   </g>
   <g id="patch_7">
    <path d="M 125.254844 124.579063 
C 125.254844 124.579063 125.254844 124.579063 125.254844 124.579063 
C 125.254844 124.579063 125.254844 124.579063 125.254844 124.579063 
L 125.254844 124.579063 
C 125.254844 124.579063 125.254844 124.579063 125.254844 124.579063 
C 125.254844 124.579063 125.254844 124.579063 125.254844 124.579063 
z
" clip-path="url(#pc6eb694d07)" style="fill: #d9d9d9"/>
   </g>
   <g id="patch_8">
    <path d="M 125.254844 124.579063 
C 125.254844 124.579063 125.254844 124.579063 125.254844 124.579063 
C 125.254844 124.579063 125.254844 124.579063 125.254844 124.579063 
L 125.254844 124.579063 
C 125.254844 124.579063 125.254844 124.579063 125.254844 124.579063 
C 125.254844 124.579063 125.254844 124.579063 125.254844 124.579063 
z
" clip-path="url(#pc6eb694d07)" style="fill: #d9d9d9"/>
   </g>
   <g id="patch_9">
    <path d="M 125.254844 124.579063 
C 125.254844 124.579063 125.254844 124.579063 125.254844 124.579063 
C 125.254844 124.579063 125.254844 124.579063 125.254844 124.579063 
L 125.254844 124.579063 
C 125.254844 124.579063 125.254844 124.579063 125.254844 124.579063 
C 125.254844 124.579063 125.254844 124.579063 125.254844 124.579063 
z
" clip-path="url(#pc6eb694d07)" style="fill: #d9d9d9"/>
   </g>
   <g id="patch_10">
    <path d="M 125.254844 124.579063 
C 125.254844 124.579063 125.254844 124.579063 125.254844 124.579063 
C 125.254844 124.579063 125.254844 124.579063 125.254844 124.579063 
L 125.254844 124.579063 
C 125.254844 124.579063 125.254844 124.579063 125.254844 124.579063 
C 125.254844 124.579063 125.254844 124.579063 125.254844 124.579063 
z
" clip-path="url(#pc6eb694d07)" style="fill: #d9d9d9"/>
   </g>
   <g id="patch_11">
    <path d="M 125.254844 124.579063 
C 125.254844 124.579063 125.254844 124.579063 125.254844 124.579063 
C 125.254844 124.579063 125.254844 124.579063 125.254844 124.579063 
L 125.254844 124.579063 
C 125.254844 124.579063 125.254844 124.579063 125.254844 124.579063 
C 125.254844 124.579063 125.254844 124.579063 125.254844 124.579063 
z
" clip-path="url(#pc6eb694d07)" style="fill: #d9d9d9"/>
   </g>
   <g id="patch_12">
    <path d="M 125.254844 124.579063 
C 125.254844 124.579063 125.254844 124.579063 125.254844 124.579063 
C 125.254844 124.579063 125.254844 124.579063 125.254844 124.579063 
L 125.254844 124.579063 
C 125.254844 124.579063 125.254844 124.579063 125.254844 124.579063 
C 125.254844 124.579063 125.254844 124.579063 125.254844 124.579063 
z
" clip-path="url(#pc6eb694d07)" style="fill: #d9d9d9"/>
   </g>
   <g id="patch_13">
    <path d="M 125.254844 124.579063 
C 125.254844 124.579063 125.254844 124.579063 125.254844 124.579063 
C 125.254844 124.579063 125.254844 124.579063 125.254844 124.579063 
L 125.254844 124.579063 
C 125.254844 124.579063 125.254844 124.579063 125.254844 124.579063 
C 125.254844 124.579063 125.254844 124.579063 125.254844 124.579063 
z
" clip-path="url(#pc6eb694d07)" style="fill: #d9d9d9"/>
   </g>
   <g id="patch_14">
    <path d="M 125.254844 124.579063 
C 125.254844 124.579063 125.254844 124.579063 125.254844 124.579063 
C 125.254844 124.579063 125.254844 124.579063 125.254844 124.579063 
L 125.254844 124.579063 
C 125.254844 124.579063 125.254844 124.579063 125.254844 124.579063 
C 125.254844 124.579063 125.254844 124.579063 125.254844 124.579063 
z
" clip-path="url(#pc6eb694d07)" style="fill: #d9d9d9"/>
   </g>
   <g id="patch_15">
    <path d="M 125.254844 124.579063 
C 125.254844 124.579063 125.254844 124.579063 125.254844 124.579063 
C 125.254844 124.579063 125.254844 124.579063 125.254844 124.579063 
L 125.254844 124.579063 
C 125.254844 124.579063 125.254844 124.579063 125.254844 124.579063 
C 125.254844 124.579063 125.254844 124.579063 125.254844 124.579063 
z
" clip-path="url(#pc6eb694d07)" style="fill: #d9d9d9"/>
   </g>
   <g id="patch_16">
    <path d="M 125.254844 124.579063 
C 125.254844 124.579063 125.254844 124.579063 125.254844 124.579063 
C 125.254844 124.579063 125.254844 124.579063 125.254844 124.579063 
L 125.254844 124.579063 
C 125.254844 124.579063 125.254844 124.579063 125.254844 124.579063 
C 125.254844 124.579063 125.254844 124.579063 125.254844 124.579063 
z
" clip-path="url(#pc6eb694d07)" style="fill: #d9d9d9"/>
   </g>
   <g id="patch_17">
    <path d="M 125.254844 124.579063 
C 125.254844 124.579063 125.254844 124.579063 125.254844 124.579063 
C 125.254844 124.579063 125.254844 124.579063 125.254844 124.579063 
L 125.254844 124.579063 
C 125.254844 124.579063 125.254844 124.579063 125.254844 124.579063 
C 125.254844 124.579063 125.254844 124.579063 125.254844 124.579063 
z
" clip-path="url(#pc6eb694d07)" style="fill: #d9d9d9"/>
   </g>
   <g id="patch_18">
    <path d="M 125.254844 124.579063 
C 125.254844 124.579063 125.254844 124.579063 125.254844 124.579063 
C 125.254844 124.579063 125.254844 124.579063 125.254844 124.579063 
L 125.254844 124.579063 
C 125.254844 124.579063 125.254844 124.579063 125.254844 124.579063 
C 125.254844 124.579063 125.254844 124.579063 125.254844 124.579063 
z
" clip-path="url(#pc6eb694d07)" style="fill: #d9d9d9"/>
   </g>
   <g id="patch_19">
    <path d="M 125.254844 124.579063 
C 125.254844 124.579063 125.254844 124.579063 125.254844 124.579063 
C 125.254844 124.579063 125.254844 124.579063 125.254844 124.579063 
L 125.254844 124.579063 
C 125.254844 124.579063 125.254844 124.579063 125.254844 124.579063 
C 125.254844 124.579063 125.254844 124.579063 125.254844 124.579063 
z
" clip-path="url(#pc6eb694d07)" style="fill: #d9d9d9"/>
   </g>
   <g id="patch_20">
    <path d="M 125.254844 124.579063 
C 125.254844 124.579063 125.254844 124.579063 125.254844 124.579063 
C 125.254844 124.579063 125.254844 124.579063 125.254844 124.579063 
L 125.254844 124.579063 
C 125.254844 124.579063 125.254844 124.579063 125.254844 124.579063 
C 125.254844 124.579063 125.254844 124.579063 125.254844 124.579063 
z
" clip-path="url(#pc6eb694d07)" style="fill: #d9d9d9"/>
   </g>
   <g id="patch_21">
    <path d="M 125.254844 124.579063 
C 125.254844 124.579063 125.254844 124.579063 125.254844 124.579063 
C 125.254844 124.579063 125.254844 124.579063 125.254844 124.579063 
L 125.254844 124.579063 
C 125.254844 124.579063 125.254844 124.579063 125.254844 124.579063 
C 125.254844 124.579063 125.254844 124.579063 125.254844 124.579063 
z
" clip-path="url(#pc6eb694d07)" style="fill: #d9d9d9"/>
   </g>
   <g id="patch_22">
    <path d="M 125.254844 124.579063 
C 125.254844 124.579063 125.254844 124.579063 125.254844 124.579063 
C 125.254844 124.579063 125.254844 124.579063 125.254844 124.579063 
L 125.254844 124.579063 
C 125.254844 124.579063 125.254844 124.579063 125.254844 124.579063 
C 125.254844 124.579063 125.254844 124.579063 125.254844 124.579063 
z
" clip-path="url(#pc6eb694d07)" style="fill: #d9d9d9"/>
   </g>
   <g id="patch_23">
    <path d="M 125.254844 124.579063 
C 125.254844 124.579063 125.254844 124.579063 125.254844 124.579063 
C 125.254844 124.579063 125.254844 124.579063 125.254844 124.579063 
L 125.254844 124.579063 
C 125.254844 124.579063 125.254844 124.579063 125.254844 124.579063 
C 125.254844 124.579063 125.254844 124.579063 125.254844 124.579063 
z
" clip-path="url(#pc6eb694d07)" style="fill: #d9d9d9"/>
   </g>
   <g id="patch_24">
    <path d="M 125.254844 124.579063 
C 125.254844 124.579063 125.254844 124.579063 125.254844 124.579063 
C 125.254844 124.579063 125.254844 124.579063 125.254844 124.579063 
L 125.254844 124.579063 
C 125.254844 124.579063 125.254844 124.579063 125.254844 124.579063 
C 125.254844 124.579063 125.254844 124.579063 125.254844 124.579063 
z
" clip-path="url(#pc6eb694d07)" style="fill: #d9d9d9"/>
   </g>
   <g id="patch_25">
    <path d="M 125.254844 124.579063 
C 125.254844 124.579063 125.254844 124.579063 125.254844 124.579063 
C 125.254844 124.579063 125.254844 124.579063 125.254844 124.579063 
L 125.254844 124.579063 
C 125.254844 124.579063 125.254844 124.579063 125.254844 124.579063 
C 125.254844 124.579063 125.254844 124.579063 125.254844 124.579063 
z
" clip-path="url(#pc6eb694d07)" style="fill: #d9d9d9"/>
   </g>
   <g id="patch_26">
    <path d="M 125.254844 124.579063 
C 125.254844 124.579063 125.254844 124.579063 125.254844 124.579063 
C 125.254844 124.579063 125.254844 124.579063 125.254844 124.579063 
L 125.254844 124.579063 
C 125.254844 124.579063 125.254844 124.579063 125.254844 124.579063 
C 125.254844 124.579063 125.254844 124.579063 125.254844 124.579063 
z
" clip-path="url(#pc6eb694d07)" style="fill: #d9d9d9"/>
   </g>
   <g id="patch_27">
    <path d="M 125.254844 124.579063 
C 125.254844 124.579063 125.254844 124.579063 125.254844 124.579063 
C 125.254844 124.579063 125.254844 124.579063 125.254844 124.579063 
L 125.254844 124.579063 
C 125.254844 124.579063 125.254844 124.579063 125.254844 124.579063 
C 125.254844 124.579063 125.254844 124.579063 125.254844 124.579063 
z
" clip-path="url(#pc6eb694d07)" style="fill: #d9d9d9"/>
   </g>
   <g id="patch_28">
    <path d="M 125.254844 124.579063 
C 125.254844 124.579063 125.254844 124.579063 125.254844 124.579063 
C 125.254844 124.579063 125.254844 124.579063 125.254844 124.579063 
L 125.254844 124.579063 
C 125.254844 124.579063 125.254844 124.579063 125.254844 124.579063 
C 125.254844 124.579063 125.254844 124.579063 125.254844 124.579063 
z
" clip-path="url(#pc6eb694d07)" style="fill: #d9d9d9"/>
   </g>
   <g id="patch_29">
    <path d="M 125.254844 124.579063 
C 125.254844 124.579063 125.254844 124.579063 125.254844 124.579063 
C 125.254844 124.579063 125.254844 124.579063 125.254844 124.579063 
L 125.254844 124.579063 
C 125.254844 124.579063 125.254844 124.579063 125.254844 124.579063 
C 125.254844 124.579063 125.254844 124.579063 125.254844 124.579063 
z
" clip-path="url(#pc6eb694d07)" style="fill: #d9d9d9"/>
   </g>
   <g id="patch_30">
    <path d="M 125.254844 124.579063 
C 125.254844 124.579063 125.254844 124.579063 125.254844 124.579063 
C 125.254844 124.579063 125.254844 124.579063 125.254844 124.579063 
L 125.254844 124.579063 
C 125.254844 124.579063 125.254844 124.579063 125.254844 124.579063 
C 125.254844 124.579063 125.254844 124.579063 125.254844 124.579063 
z
" clip-path="url(#pc6eb694d07)" style="fill: #d9d9d9"/>
   </g>
   <g id="patch_31">
    <path d="M 125.254844 124.579063 
C 125.254844 124.579063 125.254844 124.579063 125.254844 124.579063 
C 125.254844 124.579063 125.254844 124.579063 125.254844 124.579063 
L 125.254844 124.579063 
C 125.254844 124.579063 125.254844 124.579063 125.254844 124.579063 
C 125.254844 124.579063 125.254844 124.579063 125.254844 124.579063 
z
" clip-path="url(#pc6eb694d07)" style="fill: #d9d9d9"/>
   </g>
   <g id="patch_32">
    <path d="M 125.254844 124.579063 
C 125.254844 124.579063 125.254844 124.579063 125.254844 124.579063 
C 125.254844 124.579063 125.254844 124.579063 125.254844 124.579063 
L 125.254844 124.579063 
C 125.254844 124.579063 125.254844 124.579063 125.254844 124.579063 
C 125.254844 124.579063 125.254844 124.579063 125.254844 124.579063 
z
" clip-path="url(#pc6eb694d07)" style="fill: #d9d9d9"/>
   </g>
   <g id="patch_33">
    <path d="M 125.254844 124.579063 
C 125.254844 124.579063 125.254844 124.579063 125.254844 124.579063 
C 125.254844 124.579063 125.254844 124.579063 125.254844 124.579063 
L 125.254844 124.579063 
C 125.254844 124.579063 125.254844 124.579063 125.254844 124.579063 
C 125.254844 124.579063 125.254844 124.579063 125.254844 124.579063 
z
" clip-path="url(#pc6eb694d07)" style="fill: #d9d9d9"/>
   </g>
   <g id="patch_34">
    <path d="M 125.254844 124.579063 
C 125.254844 124.579063 125.254844 124.579063 125.254844 124.579063 
C 125.254844 124.579063 125.254844 124.579063 125.254844 124.579063 
L 125.254844 124.579063 
C 125.254844 124.579063 125.254844 124.579063 125.254844 124.579063 
C 125.254844 124.579063 125.254844 124.579063 125.254844 124.579063 
z
" clip-path="url(#pc6eb694d07)" style="fill: #d9d9d9"/>
   </g>
   <g id="patch_35">
    <path d="M 125.254844 124.579063 
C 125.254844 124.579063 125.254844 124.579063 125.254844 124.579063 
C 125.254844 124.579063 125.254844 124.579063 125.254844 124.579063 
L 128.425073 92.391189 
C 127.371515 92.287422 126.313499 92.235445 125.254844 92.235445 
C 124.196189 92.235445 123.138172 92.287422 122.084615 92.391189 
z
" clip-path="url(#pc6eb694d07)" style="fill: #a1a1d8"/>
   </g>
   <g id="patch_36">
    <path d="M 125.254844 124.579063 
C 125.254844 124.579063 125.254844 124.579063 125.254844 124.579063 
C 125.254844 124.579063 125.254844 124.579063 125.254844 124.579063 
L 135.556779 90.618135 
C 134.445187 90.280937 133.317709 89.998518 132.178419 89.7719 
C 131.039129 89.545281 129.889398 89.374734 128.733381 89.260876 
z
" clip-path="url(#pc6eb694d07)" style="fill: #a1a1d8"/>
   </g>
   <g id="patch_37">
    <path d="M 125.254844 124.579063 
C 125.254844 124.579063 125.254844 124.579063 125.254844 124.579063 
C 125.254844 124.579063 125.254844 124.579063 125.254844 124.579063 
L 137.875081 100.96826 
C 137.102264 100.55518 136.309632 100.180293 135.500048 99.844953 
C 134.690463 99.509612 133.864902 99.214221 133.026347 98.959849 
z
" clip-path="url(#pc6eb694d07)" style="fill: #a1a1d8"/>
   </g>
   <g id="patch_38">
    <path d="M 125.254844 124.579063 
C 125.254844 124.579063 125.254844 124.579063 125.254844 124.579063 
C 125.254844 124.579063 125.254844 124.579063 125.254844 124.579063 
L 133.820148 114.142209 
C 133.478535 113.861853 133.123362 113.598439 132.755914 113.352918 
C 132.388465 113.107397 132.009184 112.880064 131.619439 112.671742 
z
" clip-path="url(#pc6eb694d07)" style="fill: #a1a1d8"/>
   </g>
   <g id="patch_39">
    <path d="M 125.254844 124.579063 
C 125.254844 124.579063 125.254844 124.579063 125.254844 124.579063 
C 125.254844 124.579063 125.254844 124.579063 125.254844 124.579063 
L 125.254844 124.579063 
C 125.254844 124.579063 125.254844 124.579063 125.254844 124.579063 
C 125.254844 124.579063 125.254844 124.579063 125.254844 124.579063 
z
" clip-path="url(#pc6eb694d07)" style="fill: #a1a1d8"/>
   </g>
   <g id="patch_40">
    <path d="M 125.254844 124.579063 
C 125.254844 124.579063 125.254844 124.579063 125.254844 124.579063 
C 125.254844 124.579063 125.254844 124.579063 125.254844 124.579063 
L 139.615613 116.903071 
C 139.364366 116.433022 139.090193 115.975591 138.794083 115.532432 
C 138.497974 115.089272 138.180284 114.660918 137.842163 114.248916 
z
" clip-path="url(#pc6eb694d07)" style="fill: #a1a1d8"/>
   </g>
   <g id="patch_41">
    <path d="M 125.254844 124.579063 
C 125.254844 124.579063 125.254844 124.579063 125.254844 124.579063 
C 125.254844 124.579063 125.254844 124.579063 125.254844 124.579063 
L 144.388873 118.774818 
C 144.198891 118.148533 143.978275 117.531953 143.727822 116.927304 
C 143.477368 116.322656 143.197379 115.730669 142.888866 115.153481 
z
" clip-path="url(#pc6eb694d07)" style="fill: #a1a1d8"/>
   </g>
   <g id="patch_42">
    <path d="M 125.254844 124.579063 
C 125.254844 124.579063 125.254844 124.579063 125.254844 124.579063 
C 125.254844 124.579063 125.254844 124.579063 125.254844 124.579063 
L 125.254844 124.579063 
C 125.254844 124.579063 125.254844 124.579063 125.254844 124.579063 
C 125.254844 124.579063 125.254844 124.579063 125.254844 124.579063 
z
" clip-path="url(#pc6eb694d07)" style="fill: #a1a1d8"/>
   </g>
   <g id="patch_43">
    <path d="M 125.254844 124.579063 
C 125.254844 124.579063 125.254844 124.579063 125.254844 124.579063 
C 125.254844 124.579063 125.254844 124.579063 125.254844 124.579063 
L 144.525029 126.47701 
C 144.587152 125.846268 144.618269 125.212856 144.618269 124.579063 
C 144.618269 123.945269 144.587152 123.311857 144.525029 122.681115 
z
" clip-path="url(#pc6eb694d07)" style="fill: #a1a1d8"/>
   </g>
   <g id="patch_44">
    <path d="M 125.254844 124.579063 
C 125.254844 124.579063 125.254844 124.579063 125.254844 124.579063 
C 125.254844 124.579063 125.254844 124.579063 125.254844 124.579063 
L 147.463098 131.315863 
C 147.683603 130.588953 147.868287 129.851656 148.016481 129.106634 
C 148.164675 128.361611 148.276201 127.609762 148.350657 126.853802 
z
" clip-path="url(#pc6eb694d07)" style="fill: #a1a1d8"/>
   </g>
   <g id="patch_45">
    <path d="M 125.254844 124.579063 
C 125.254844 124.579063 125.254844 124.579063 125.254844 124.579063 
C 125.254844 124.579063 125.254844 124.579063 125.254844 124.579063 
L 139.89341 132.403539 
C 140.149517 131.924397 140.381945 131.432969 140.589854 130.931032 
C 140.797763 130.429094 140.980904 129.917251 141.138614 129.397351 
z
" clip-path="url(#pc6eb694d07)" style="fill: #a1a1d8"/>
   </g>
   <g id="patch_46">
    <path d="M 125.254844 124.579063 
C 125.254844 124.579063 125.254844 124.579063 125.254844 124.579063 
C 125.254844 124.579063 125.254844 124.579063 125.254844 124.579063 
L 125.254844 124.579063 
C 125.254844 124.579063 125.254844 124.579063 125.254844 124.579063 
C 125.254844 124.579063 125.254844 124.579063 125.254844 124.579063 
z
" clip-path="url(#pc6eb694d07)" style="fill: #a1a1d8"/>
   </g>
   <g id="patch_47">
    <path d="M 125.254844 124.579063 
C 125.254844 124.579063 125.254844 124.579063 125.254844 124.579063 
C 125.254844 124.579063 125.254844 124.579063 125.254844 124.579063 
L 125.254844 124.579063 
C 125.254844 124.579063 125.254844 124.579063 125.254844 124.579063 
C 125.254844 124.579063 125.254844 124.579063 125.254844 124.579063 
z
" clip-path="url(#pc6eb694d07)" style="fill: #a1a1d8"/>
   </g>
   <g id="patch_48">
    <path d="M 125.254844 124.579063 
C 125.254844 124.579063 125.254844 124.579063 125.254844 124.579063 
C 125.254844 124.579063 125.254844 124.579063 125.254844 124.579063 
L 128.05224 129.812622 
C 128.223542 129.721059 128.390245 129.621141 128.551748 129.513228 
C 128.713251 129.405316 128.869358 129.289539 129.019505 129.166316 
z
" clip-path="url(#pc6eb694d07)" style="fill: #a1a1d8"/>
   </g>
   <g id="patch_49">
    <path d="M 125.254844 124.579063 
C 125.254844 124.579063 125.254844 124.579063 125.254844 124.579063 
C 125.254844 124.579063 125.254844 124.579063 125.254844 124.579063 
L 125.254844 124.579063 
C 125.254844 124.579063 125.254844 124.579063 125.254844 124.579063 
C 125.254844 124.579063 125.254844 124.579063 125.254844 124.579063 
z
" clip-path="url(#pc6eb694d07)" style="fill: #a1a1d8"/>
   </g>
   <g id="patch_50">
    <path d="M 125.254844 124.579063 
C 125.254844 124.579063 125.254844 124.579063 125.254844 124.579063 
C 125.254844 124.579063 125.254844 124.579063 125.254844 124.579063 
L 125.885743 130.984689 
C 126.095409 130.964039 126.303934 130.933107 126.510566 130.892005 
C 126.717198 130.850903 126.921688 130.799681 127.123296 130.738524 
z
" clip-path="url(#pc6eb694d07)" style="fill: #a1a1d8"/>
   </g>
   <g id="patch_51">
    <path d="M 125.254844 124.579063 
C 125.254844 124.579063 125.254844 124.579063 125.254844 124.579063 
C 125.254844 124.579063 125.254844 124.579063 125.254844 124.579063 
L 125.254844 124.579063 
C 125.254844 124.579063 125.254844 124.579063 125.254844 124.579063 
C 125.254844 124.579063 125.254844 124.579063 125.254844 124.579063 
z
" clip-path="url(#pc6eb694d07)" style="fill: #a1a1d8"/>
   </g>
   <g id="patch_52">
    <path d="M 125.254844 124.579063 
C 125.254844 124.579063 125.254844 124.579063 125.254844 124.579063 
C 125.254844 124.579063 125.254844 124.579063 125.254844 124.579063 
L 123.482274 130.422441 
C 123.673537 130.48046 123.867533 130.529053 124.063561 130.568046 
C 124.259589 130.607038 124.457414 130.636383 124.65632 130.655973 
z
" clip-path="url(#pc6eb694d07)" style="fill: #a1a1d8"/>
   </g>
   <g id="patch_53">
    <path d="M 125.254844 124.579063 
C 125.254844 124.579063 125.254844 124.579063 125.254844 124.579063 
C 125.254844 124.579063 125.254844 124.579063 125.254844 124.579063 
L 120.703541 133.093951 
C 120.982246 133.242922 121.268097 133.37812 121.560062 133.499055 
C 121.852026 133.619991 122.149753 133.726519 122.452165 133.818255 
z
" clip-path="url(#pc6eb694d07)" style="fill: #a1a1d8"/>
   </g>
   <g id="patch_54">
    <path d="M 125.254844 124.579063 
C 125.254844 124.579063 125.254844 124.579063 125.254844 124.579063 
C 125.254844 124.579063 125.254844 124.579063 125.254844 124.579063 
L 122.672307 127.725892 
C 122.775308 127.810423 122.882396 127.889845 122.993186 127.963872 
C 123.103976 128.0379 123.218334 128.106443 123.335846 128.169255 
z
" clip-path="url(#pc6eb694d07)" style="fill: #a1a1d8"/>
   </g>
   <g id="patch_55">
    <path d="M 125.254844 124.579063 
C 125.254844 124.579063 125.254844 124.579063 125.254844 124.579063 
C 125.254844 124.579063 125.254844 124.579063 125.254844 124.579063 
L 125.254844 124.579063 
C 125.254844 124.579063 125.254844 124.579063 125.254844 124.579063 
C 125.254844 124.579063 125.254844 124.579063 125.254844 124.579063 
z
" clip-path="url(#pc6eb694d07)" style="fill: #a1a1d8"/>
   </g>
   <g id="patch_56">
    <path d="M 125.254844 124.579063 
C 125.254844 124.579063 125.254844 124.579063 125.254844 124.579063 
C 125.254844 124.579063 125.254844 124.579063 125.254844 124.579063 
L 117.745418 128.592934 
C 117.876798 128.838729 118.020167 129.077925 118.175006 129.309659 
C 118.329845 129.541392 118.495969 129.765384 118.672777 129.980825 
z
" clip-path="url(#pc6eb694d07)" style="fill: #a1a1d8"/>
   </g>
   <g id="patch_57">
    <path d="M 125.254844 124.579063 
C 125.254844 124.579063 125.254844 124.579063 125.254844 124.579063 
C 125.254844 124.579063 125.254844 124.579063 125.254844 124.579063 
L 105.583101 130.54642 
C 105.778421 131.190306 106.005237 131.824214 106.262729 132.445854 
C 106.520221 133.067494 106.808078 133.676118 107.125262 134.269526 
z
" clip-path="url(#pc6eb694d07)" style="fill: #a1a1d8"/>
   </g>
   <g id="patch_58">
    <path d="M 125.254844 124.579063 
C 125.254844 124.579063 125.254844 124.579063 125.254844 124.579063 
C 125.254844 124.579063 125.254844 124.579063 125.254844 124.579063 
L 95.795926 127.480513 
C 95.890895 128.444747 96.033148 129.403737 96.222171 130.35402 
C 96.411194 131.304303 96.646759 132.244732 96.928016 133.171912 
z
" clip-path="url(#pc6eb694d07)" style="fill: #a1a1d8"/>
   </g>
   <g id="patch_59">
    <path d="M 125.254844 124.579063 
C 125.254844 124.579063 125.254844 124.579063 125.254844 124.579063 
C 125.254844 124.579063 125.254844 124.579063 125.254844 124.579063 
L 96.572226 121.754071 
C 96.47976 122.692896 96.433443 123.635695 96.433443 124.579062 
C 96.433443 125.52243 96.47976 126.465229 96.572226 127.404054 
z
" clip-path="url(#pc6eb694d07)" style="fill: #a1a1d8"/>
   </g>
   <g id="patch_60">
    <path d="M 125.254844 124.579063 
C 125.254844 124.579063 125.254844 124.579063 125.254844 124.579063 
C 125.254844 124.579063 125.254844 124.579063 125.254844 124.579063 
L 97.985745 116.307072 
C 97.714991 117.19963 97.488222 118.104944 97.306257 119.019743 
C 97.124292 119.934542 96.987351 120.857723 96.895928 121.785953 
z
" clip-path="url(#pc6eb694d07)" style="fill: #a1a1d8"/>
   </g>
   <g id="patch_61">
    <path d="M 125.254844 124.579063 
C 125.254844 124.579063 125.254844 124.579063 125.254844 124.579063 
C 125.254844 124.579063 125.254844 124.579063 125.254844 124.579063 
L 82.472764 101.711565 
C 81.724277 103.111886 81.044992 104.548112 80.437365 106.015055 
C 79.829737 107.481998 79.294498 108.97789 78.833582 110.497327 
z
" clip-path="url(#pc6eb694d07)" style="fill: #a1a1d8"/>
   </g>
   <g id="patch_62">
    <path d="M 125.254844 124.579063 
C 125.254844 124.579063 125.254844 124.579063 125.254844 124.579063 
C 125.254844 124.579063 125.254844 124.579063 125.254844 124.579063 
L 84.802472 91.380659 
C 83.715839 92.704725 82.694868 94.081345 81.743249 95.505544 
C 80.791629 96.929744 79.910507 98.399807 79.103066 99.910423 
z
" clip-path="url(#pc6eb694d07)" style="fill: #a1a1d8"/>
   </g>
   <g id="patch_63">
    <path d="M 125.254844 124.579063 
C 125.254844 124.579063 125.254844 124.579063 125.254844 124.579063 
C 125.254844 124.579063 125.254844 124.579063 125.254844 124.579063 
L 106.970741 102.299819 
C 106.241508 102.898285 105.542098 103.532193 104.875036 104.199255 
C 104.207975 104.866316 103.574066 105.565727 102.9756 106.29496 
z
" clip-path="url(#pc6eb694d07)" style="fill: #a1a1d8"/>
   </g>
   <g id="patch_64">
    <path d="M 125.254844 124.579063 
C 125.254844 124.579063 125.254844 124.579063 125.254844 124.579063 
C 125.254844 124.579063 125.254844 124.579063 125.254844 124.579063 
L 103.364386 83.624896 
C 102.023895 84.341403 100.71939 85.123293 99.455584 85.967742 
C 98.191778 86.81219 96.970193 87.718179 95.795243 88.682435 
z
" clip-path="url(#pc6eb694d07)" style="fill: #a1a1d8"/>
   </g>
   <g id="patch_65">
    <path d="M 125.254844 124.579063 
C 125.254844 124.579063 125.254844 124.579063 125.254844 124.579063 
C 125.254844 124.579063 125.254844 124.579063 125.254844 124.579063 
L 121.014651 110.601019 
C 120.557128 110.739807 120.106696 110.900974 119.664981 111.083939 
C 119.223265 111.266904 118.790799 111.471445 118.369144 111.696824 
z
" clip-path="url(#pc6eb694d07)" style="fill: #a1a1d8"/>
   </g>
   <g id="patch_66">
    <path d="M 125.254844 124.579063 
C 125.254844 124.579063 125.254844 124.579063 125.254844 124.579063 
C 125.254844 124.579063 125.254844 124.579063 125.254844 124.579063 
L 121.495828 86.413139 
C 120.246601 86.536177 119.004167 86.720475 117.773014 86.965366 
C 116.541862 87.210258 115.323475 87.515448 114.122254 87.879834 
z
" clip-path="url(#pc6eb694d07)" style="fill: #a1a1d8"/>
   </g>
   <g id="patch_67">
    <path d="M 122.084615 92.391189 
C 123.138172 92.287422 124.196189 92.235445 125.254844 92.235445 
C 126.313499 92.235445 127.371515 92.287422 128.425073 92.391189 
L 132.188996 54.175431 
C 129.88458 53.948466 127.57041 53.834778 125.254844 53.834778 
C 122.939278 53.834778 120.625107 53.948466 118.320691 54.175431 
z
" clip-path="url(#pc6eb694d07)" style="fill: #ff8c8e"/>
   </g>
   <g id="patch_68">
    <path d="M 128.733381 89.260876 
C 129.889398 89.374734 131.039129 89.545281 132.178419 89.7719 
C 133.317709 89.998518 134.445187 90.280937 135.556779 90.618135 
L 146.207351 55.507904 
C 143.946548 54.822097 141.653438 54.247703 139.336301 53.786796 
C 137.019165 53.325889 134.680795 52.979024 132.32964 52.747456 
z
" clip-path="url(#pc6eb694d07)" style="fill: #ff8c8e"/>
   </g>
   <g id="patch_69">
    <path d="M 133.026347 98.959849 
C 133.864902 99.214221 134.690463 99.509612 135.500048 99.844953 
C 136.309632 100.180293 137.102264 100.55518 137.875081 100.96826 
L 141.252887 94.648829 
C 140.273226 94.125189 139.268446 93.649964 138.242176 93.224869 
C 137.215906 92.799774 136.169384 92.425323 135.10639 92.102867 
z
" clip-path="url(#pc6eb694d07)" style="fill: #ff8c8e"/>
   </g>
   <g id="patch_70">
    <path d="M 131.619439 112.671742 
C 132.009184 112.880064 132.388465 113.107397 132.755914 113.352918 
C 133.123362 113.598439 133.478535 113.861853 133.820148 114.142209 
L 148.497672 96.257594 
C 147.570668 95.496821 146.606871 94.782021 145.609762 94.115774 
C 144.612654 93.449527 143.583435 92.832637 142.525824 92.267332 
z
" clip-path="url(#pc6eb694d07)" style="fill: #ff8c8e"/>
   </g>
   <g id="patch_71">
    <path d="M 125.254844 124.579063 
C 125.254844 124.579063 125.254844 124.579063 125.254844 124.579063 
C 125.254844 124.579063 125.254844 124.579063 125.254844 124.579063 
L 167.179785 90.172152 
C 166.053595 88.799886 164.86071 87.48374 163.605438 86.228468 
C 162.350166 84.973196 161.03402 83.780311 159.661754 82.654121 
z
" clip-path="url(#pc6eb694d07)" style="fill: #ff8c8e"/>
   </g>
   <g id="patch_72">
    <path d="M 137.842163 114.248916 
C 138.180284 114.660918 138.497974 115.089272 138.794083 115.532432 
C 139.090193 115.975591 139.364366 116.433022 139.615613 116.903071 
L 181.220404 94.664848 
C 180.241267 92.833011 179.172782 91.050352 178.018808 89.323309 
C 176.864835 87.596265 175.626764 85.92692 174.309067 84.321302 
z
" clip-path="url(#pc6eb694d07)" style="fill: #ff8c8e"/>
   </g>
   <g id="patch_73">
    <path d="M 142.888866 115.153481 
C 143.197379 115.730669 143.477368 116.322656 143.727822 116.927304 
C 143.978275 117.531953 144.198891 118.148533 144.388873 118.774818 
L 162.390831 113.313984 
C 162.022108 112.098468 161.593929 110.901787 161.10784 109.728265 
C 160.621752 108.554743 160.078339 107.405794 159.479566 106.285568 
z
" clip-path="url(#pc6eb694d07)" style="fill: #ff8c8e"/>
   </g>
   <g id="patch_74">
    <path d="M 125.254844 124.579063 
C 125.254844 124.579063 125.254844 124.579063 125.254844 124.579063 
C 125.254844 124.579063 125.254844 124.579063 125.254844 124.579063 
L 234.723597 113.797331 
C 234.370695 110.214256 233.842087 106.650666 233.139681 103.119434 
C 232.437275 99.588202 231.561919 96.093585 230.516775 92.648205 
z
" clip-path="url(#pc6eb694d07)" style="fill: #ff8c8e"/>
   </g>
   <g id="patch_75">
    <path d="M 144.525029 122.681115 
C 144.587152 123.311857 144.618269 123.945269 144.618269 124.579063 
C 144.618269 125.212856 144.587152 125.846268 144.525029 126.47701 
L 169.402577 128.927235 
C 169.544899 127.482213 169.616189 126.031076 169.616189 124.579063 
C 169.616189 123.127049 169.544899 121.675912 169.402577 120.23089 
z
" clip-path="url(#pc6eb694d07)" style="fill: #ff8c8e"/>
   </g>
   <g id="patch_76">
    <path d="M 148.350657 126.853802 
C 148.276201 127.609762 148.164675 128.361611 148.016481 129.106634 
C 147.868287 129.851656 147.683603 130.588953 147.463098 131.315863 
L 148.011532 131.482229 
C 148.237483 130.737368 148.426728 129.981863 148.578581 129.218442 
C 148.730435 128.455022 148.844716 127.684605 148.92101 126.909976 
z
" clip-path="url(#pc6eb694d07)" style="fill: #ff8c8e"/>
   </g>
   <g id="patch_77">
    <path d="M 141.138614 129.397351 
C 140.980904 129.917251 140.797763 130.429094 140.589854 130.931032 
C 140.381945 131.432969 140.149517 131.924397 139.89341 132.403539 
L 143.070664 134.101817 
C 143.382358 133.518679 143.665234 132.920588 143.918269 132.309707 
C 144.171305 131.698825 144.394195 131.075888 144.586136 130.443146 
z
" clip-path="url(#pc6eb694d07)" style="fill: #ff8c8e"/>
   </g>
   <g id="patch_78">
    <path d="M 125.254844 124.579063 
C 125.254844 124.579063 125.254844 124.579063 125.254844 124.579063 
C 125.254844 124.579063 125.254844 124.579063 125.254844 124.579063 
L 125.254844 124.579063 
C 125.254844 124.579063 125.254844 124.579063 125.254844 124.579063 
C 125.254844 124.579063 125.254844 124.579063 125.254844 124.579063 
z
" clip-path="url(#pc6eb694d07)" style="fill: #ff8c8e"/>
   </g>
   <g id="patch_79">
    <path d="M 125.254844 124.579063 
C 125.254844 124.579063 125.254844 124.579063 125.254844 124.579063 
C 125.254844 124.579063 125.254844 124.579063 125.254844 124.579063 
L 131.242208 131.874688 
C 131.481005 131.678712 131.710036 131.471131 131.928474 131.252693 
C 132.146912 131.034255 132.354493 130.805224 132.550469 130.566427 
z
" clip-path="url(#pc6eb694d07)" style="fill: #ff8c8e"/>
   </g>
   <g id="patch_80">
    <path d="M 129.019505 129.166316 
C 128.869358 129.289539 128.713251 129.405316 128.551748 129.513228 
C 128.390245 129.621141 128.223542 129.721059 128.05224 129.812622 
L 128.05224 129.812622 
C 128.223542 129.721059 128.390245 129.621141 128.551748 129.513228 
C 128.713251 129.405316 128.869358 129.289539 129.019505 129.166316 
z
" clip-path="url(#pc6eb694d07)" style="fill: #ff8c8e"/>
   </g>
   <g id="patch_81">
    <path d="M 125.254844 124.579063 
C 125.254844 124.579063 125.254844 124.579063 125.254844 124.579063 
C 125.254844 124.579063 125.254844 124.579063 125.254844 124.579063 
L 125.254844 124.579063 
C 125.254844 124.579063 125.254844 124.579063 125.254844 124.579063 
C 125.254844 124.579063 125.254844 124.579063 125.254844 124.579063 
z
" clip-path="url(#pc6eb694d07)" style="fill: #ff8c8e"/>
   </g>
   <g id="patch_82">
    <path d="M 127.123296 130.738524 
C 126.921688 130.799681 126.717198 130.850903 126.510566 130.892005 
C 126.303934 130.933107 126.095409 130.964039 125.885743 130.984689 
L 125.885743 130.984689 
C 126.095409 130.964039 126.303934 130.933107 126.510566 130.892005 
C 126.717198 130.850903 126.921688 130.799681 127.123296 130.738524 
z
" clip-path="url(#pc6eb694d07)" style="fill: #ff8c8e"/>
   </g>
   <g id="patch_83">
    <path d="M 125.254844 124.579063 
C 125.254844 124.579063 125.254844 124.579063 125.254844 124.579063 
C 125.254844 124.579063 125.254844 124.579063 125.254844 124.579063 
L 125.254844 124.579063 
C 125.254844 124.579063 125.254844 124.579063 125.254844 124.579063 
C 125.254844 124.579063 125.254844 124.579063 125.254844 124.579063 
z
" clip-path="url(#pc6eb694d07)" style="fill: #ff8c8e"/>
   </g>
   <g id="patch_84">
    <path d="M 124.65632 130.655973 
C 124.457414 130.636383 124.259589 130.607038 124.063561 130.568046 
C 123.867533 130.529053 123.673537 130.48046 123.482274 130.422441 
L 123.482274 130.422441 
C 123.673537 130.48046 123.867533 130.529053 124.063561 130.568046 
C 124.259589 130.607038 124.457414 130.636383 124.65632 130.655973 
z
" clip-path="url(#pc6eb694d07)" style="fill: #ff8c8e"/>
   </g>
   <g id="patch_85">
    <path d="M 122.452165 133.818255 
C 122.149753 133.726519 121.852026 133.619991 121.560062 133.499055 
C 121.268097 133.37812 120.982246 133.242922 120.703541 133.093951 
L 119.18644 135.932247 
C 119.558047 136.130875 119.939182 136.311138 120.328468 136.472386 
C 120.717754 136.633634 121.114722 136.775671 121.517939 136.897986 
z
" clip-path="url(#pc6eb694d07)" style="fill: #ff8c8e"/>
   </g>
   <g id="patch_86">
    <path d="M 123.335846 128.169255 
C 123.218334 128.106443 123.103976 128.0379 122.993186 127.963872 
C 122.882396 127.889845 122.775308 127.810423 122.672307 127.725892 
L 119.700889 131.346576 
C 119.9224 131.528365 120.152702 131.699169 120.390965 131.858371 
C 120.629228 132.017573 120.875163 132.164981 121.127883 132.300063 
z
" clip-path="url(#pc6eb694d07)" style="fill: #ff8c8e"/>
   </g>
   <g id="patch_87">
    <path d="M 125.254844 124.579063 
C 125.254844 124.579063 125.254844 124.579063 125.254844 124.579063 
C 125.254844 124.579063 125.254844 124.579063 125.254844 124.579063 
L 111.314353 136.019728 
C 111.688823 136.476021 112.08547 136.913654 112.502861 137.331045 
C 112.920253 137.748437 113.357885 138.145084 113.814178 138.519554 
z
" clip-path="url(#pc6eb694d07)" style="fill: #ff8c8e"/>
   </g>
   <g id="patch_88">
    <path d="M 118.672777 129.980825 
C 118.495969 129.765384 118.329845 129.541392 118.175006 129.309659 
C 118.020167 129.077925 117.876798 128.838729 117.745418 128.592934 
L 109.400983 133.053127 
C 109.678352 133.572048 109.981031 134.077038 110.307928 134.566273 
C 110.634824 135.055507 110.985543 135.528398 111.358819 135.983235 
z
" clip-path="url(#pc6eb694d07)" style="fill: #ff8c8e"/>
   </g>
   <g id="patch_89">
    <path d="M 107.125262 134.269526 
C 106.808078 133.676118 106.520221 133.067494 106.262729 132.445854 
C 106.005237 131.824214 105.778421 131.190306 105.583101 130.54642 
L 100.501776 132.087824 
C 100.747549 132.898028 101.032953 133.695678 101.356956 134.477892 
C 101.68096 135.260105 102.043172 136.02594 102.442286 136.772629 
z
" clip-path="url(#pc6eb694d07)" style="fill: #ff8c8e"/>
   </g>
   <g id="patch_90">
    <path d="M 96.928016 133.171912 
C 96.646759 132.244732 96.411194 131.304303 96.222171 130.35402 
C 96.033148 129.403737 95.890895 128.444747 95.795926 127.480513 
L 94.971742 127.561688 
C 95.069367 128.552899 95.2156 129.538719 95.409911 130.515589 
C 95.604223 131.492458 95.846379 132.459198 96.135504 133.412318 
z
" clip-path="url(#pc6eb694d07)" style="fill: #ff8c8e"/>
   </g>
   <g id="patch_91">
    <path d="M 96.572226 127.404054 
C 96.47976 126.465229 96.433443 125.52243 96.433443 124.579062 
C 96.433443 123.635695 96.47976 122.692896 96.572226 121.754071 
L 78.052725 119.93006 
C 77.900556 121.475055 77.824334 123.026591 77.824334 124.579062 
C 77.824334 126.131534 77.900556 127.68307 78.052725 129.228065 
z
" clip-path="url(#pc6eb694d07)" style="fill: #ff8c8e"/>
   </g>
   <g id="patch_92">
    <path d="M 96.895928 121.785953 
C 96.987351 120.857723 97.124292 119.934542 97.306257 119.019743 
C 97.488222 118.104944 97.714991 117.19963 97.985745 116.307072 
L 90.932768 114.167575 
C 90.591984 115.290987 90.306562 116.430455 90.077534 117.58186 
C 89.848505 118.733266 89.676145 119.895223 89.561076 121.063533 
z
" clip-path="url(#pc6eb694d07)" style="fill: #ff8c8e"/>
   </g>
   <g id="patch_93">
    <path d="M 78.833582 110.497327 
C 79.294498 108.97789 79.829737 107.481998 80.437365 106.015055 
C 81.044992 104.548112 81.724277 103.111886 82.472764 101.711565 
L 71.267495 95.722223 
C 70.322968 97.48931 69.465769 99.301705 68.698994 101.152863 
C 67.93222 103.00402 67.256794 104.891708 66.675157 106.809109 
z
" clip-path="url(#pc6eb694d07)" style="fill: #ff8c8e"/>
   </g>
   <g id="patch_94">
    <path d="M 79.103066 99.910423 
C 79.910507 98.399807 80.791629 96.929744 81.743249 95.505544 
C 82.694868 94.081345 83.715839 92.704725 84.802472 91.380659 
L 62.65349 73.203459 
C 60.97189 75.252495 59.391905 77.382857 57.919243 79.586852 
C 56.44658 81.790847 55.083016 84.065817 53.833474 86.403545 
z
" clip-path="url(#pc6eb694d07)" style="fill: #ff8c8e"/>
   </g>
   <g id="patch_95">
    <path d="M 102.9756 106.29496 
C 103.574066 105.565727 104.207975 104.866316 104.875036 104.199255 
C 105.542098 103.532193 106.241508 102.898285 106.970741 102.299819 
L 88.720851 80.062263 
C 87.263749 81.258075 85.866237 82.524706 84.533363 83.857581 
C 83.200488 85.190456 81.933857 86.587968 80.738044 88.04507 
z
" clip-path="url(#pc6eb694d07)" style="fill: #ff8c8e"/>
   </g>
   <g id="patch_96">
    <path d="M 95.795243 88.682435 
C 96.970193 87.718179 98.191778 86.81219 99.455584 85.967742 
C 100.71939 85.123293 102.023895 84.341403 103.364386 83.624896 
L 98.201058 73.96499 
C 96.544384 74.850501 94.932185 75.816816 93.370283 76.860445 
C 91.808382 77.904075 90.298661 79.02376 88.846574 80.215457 
z
" clip-path="url(#pc6eb694d07)" style="fill: #ff8c8e"/>
   </g>
   <g id="patch_97">
    <path d="M 118.369144 111.696824 
C 118.790799 111.471445 119.223265 111.266904 119.664981 111.083939 
C 120.106696 110.900974 120.557128 110.739807 121.014651 110.601019 
L 108.268363 68.582139 
C 106.4355 69.138132 104.631039 69.783778 102.861499 70.516746 
C 101.091959 71.249713 99.359471 72.069119 97.670295 72.972002 
z
" clip-path="url(#pc6eb694d07)" style="fill: #ff8c8e"/>
   </g>
   <g id="patch_98">
    <path d="M 114.122254 87.879834 
C 115.323475 87.515448 116.541862 87.210258 117.773014 86.965366 
C 119.004167 86.720475 120.246601 86.536177 121.495828 86.413139 
L 116.658626 37.300198 
C 113.801858 37.581565 110.960627 38.003022 108.145194 38.563046 
C 105.329762 39.123071 102.543522 39.820987 99.796538 40.654276 
z
" clip-path="url(#pc6eb694d07)" style="fill: #ff8c8e"/>
   </g>
   <g id="patch_99">
    <path d="M 118.320691 54.175431 
C 120.625107 53.948466 122.939278 53.834778 125.254844 53.834778 
C 127.57041 53.834778 129.88458 53.948466 132.188996 54.175431 
L 132.322604 52.818893 
C 129.973786 52.587555 127.615026 52.471676 125.254844 52.471676 
C 122.894661 52.471676 120.535901 52.587555 118.187084 52.818893 
z
" clip-path="url(#pc6eb694d07)" style="fill: #828282"/>
   </g>
   <g id="patch_100">
    <path d="M 132.32964 52.747456 
C 134.680795 52.979024 137.019165 53.325889 139.336301 53.786796 
C 141.653438 54.247703 143.946548 54.822097 146.207351 55.507904 
L 150.207602 42.320843 
C 147.515167 41.504102 144.784256 40.820045 142.024732 40.271141 
C 139.265208 39.722238 136.480397 39.30915 133.680359 39.033371 
z
" clip-path="url(#pc6eb694d07)" style="fill: #828282"/>
   </g>
   <g id="patch_101">
    <path d="M 135.10639 92.102867 
C 136.169384 92.425323 137.215906 92.799774 138.242176 93.224869 
C 139.268446 93.649964 140.273226 94.125189 141.252887 94.648829 
L 149.717362 78.81291 
C 148.219367 78.012215 146.682964 77.285551 145.113701 76.63554 
C 143.544438 75.98553 141.944207 75.412959 140.318788 74.919893 
z
" clip-path="url(#pc6eb694d07)" style="fill: #828282"/>
   </g>
   <g id="patch_102">
    <path d="M 142.525824 92.267332 
C 143.583435 92.832637 144.612654 93.449527 145.609762 94.115774 
C 146.606871 94.782021 147.570668 95.496821 148.497672 96.257594 
L 155.302853 87.965457 
C 154.104435 86.981941 152.858452 86.057857 151.569403 85.196542 
C 150.280354 84.335227 148.949794 83.53772 147.582529 82.806902 
z
" clip-path="url(#pc6eb694d07)" style="fill: #828282"/>
   </g>
   <g id="patch_103">
    <path d="M 159.661754 82.654121 
C 161.03402 83.780311 162.350166 84.973196 163.605438 86.228468 
C 164.86071 87.48374 166.053595 88.799886 167.179785 90.172152 
L 167.780732 89.678968 
C 166.6384 88.287032 165.428416 86.95202 164.155151 85.678755 
C 162.881886 84.40549 161.546874 83.195506 160.154939 82.053174 
z
" clip-path="url(#pc6eb694d07)" style="fill: #828282"/>
   </g>
   <g id="patch_104">
    <path d="M 174.309067 84.321302 
C 175.626764 85.92692 176.864835 87.596265 178.018808 89.323309 
C 179.172782 91.050352 180.241267 92.833011 181.220404 94.664848 
L 182.837992 93.800228 
C 181.830555 91.915446 180.731187 90.081262 179.54386 88.304301 
C 178.356533 86.527341 177.082678 84.809746 175.726895 83.15772 
z
" clip-path="url(#pc6eb694d07)" style="fill: #828282"/>
   </g>
   <g id="patch_105">
    <path d="M 159.479566 106.285568 
C 160.078339 107.405794 160.621752 108.554743 161.10784 109.728265 
C 161.593929 110.901787 162.022108 112.098468 162.390831 113.313984 
L 163.324105 113.030878 
C 162.946116 111.784815 162.507176 110.55806 162.008871 109.355046 
C 161.510566 108.152032 160.953497 106.974208 160.339676 105.825829 
z
" clip-path="url(#pc6eb694d07)" style="fill: #828282"/>
   </g>
   <g id="patch_106">
    <path d="M 230.516775 92.648205 
C 231.561919 96.093585 232.437275 99.588202 233.139681 103.119434 
C 233.842087 106.650666 234.370695 110.214256 234.723597 113.797331 
L 235.60093 113.710922 
C 235.245199 110.099129 234.712354 106.50698 234.004319 102.947447 
C 233.296284 99.387914 232.413912 95.86529 231.360391 92.392297 
z
" clip-path="url(#pc6eb694d07)" style="fill: #828282"/>
   </g>
   <g id="patch_107">
    <path d="M 169.402577 120.23089 
C 169.544899 121.675912 169.616189 123.127049 169.616189 124.579063 
C 169.616189 126.031076 169.544899 127.482213 169.402577 128.927235 
L 169.402577 128.927235 
C 169.544899 127.482213 169.616189 126.031076 169.616189 124.579063 
C 169.616189 123.127049 169.544899 121.675912 169.402577 120.23089 
z
" clip-path="url(#pc6eb694d07)" style="fill: #828282"/>
   </g>
   <g id="patch_108">
    <path d="M 148.92101 126.909976 
C 148.844716 127.684605 148.730435 128.455022 148.578581 129.218442 
C 148.426728 129.981863 148.237483 130.737368 148.011532 131.482229 
L 148.011532 131.482229 
C 148.237483 130.737368 148.426728 129.981863 148.578581 129.218442 
C 148.730435 128.455022 148.844716 127.684605 148.92101 126.909976 
z
" clip-path="url(#pc6eb694d07)" style="fill: #828282"/>
   </g>
   <g id="patch_109">
    <path d="M 144.586136 130.443146 
C 144.394195 131.075888 144.171305 131.698825 143.918269 132.309707 
C 143.665234 132.920588 143.382358 133.518679 143.070664 134.101817 
L 143.070664 134.101817 
C 143.382358 133.518679 143.665234 132.920588 143.918269 132.309707 
C 144.171305 131.698825 144.394195 131.075888 144.586136 130.443146 
z
" clip-path="url(#pc6eb694d07)" style="fill: #828282"/>
   </g>
   <g id="patch_110">
    <path d="M 125.254844 124.579063 
C 125.254844 124.579063 125.254844 124.579063 125.254844 124.579063 
C 125.254844 124.579063 125.254844 124.579063 125.254844 124.579063 
L 125.254844 124.579063 
C 125.254844 124.579063 125.254844 124.579063 125.254844 124.579063 
C 125.254844 124.579063 125.254844 124.579063 125.254844 124.579063 
z
" clip-path="url(#pc6eb694d07)" style="fill: #828282"/>
   </g>
   <g id="patch_111">
    <path d="M 132.550469 130.566427 
C 132.354493 130.805224 132.146912 131.034255 131.928474 131.252693 
C 131.710036 131.471131 131.481005 131.678712 131.242208 131.874688 
L 131.242208 131.874688 
C 131.481005 131.678712 131.710036 131.471131 131.928474 131.252693 
C 132.146912 131.034255 132.354493 130.805224 132.550469 130.566427 
z
" clip-path="url(#pc6eb694d07)" style="fill: #828282"/>
   </g>
   <g id="patch_112">
    <path d="M 129.019505 129.166316 
C 128.869358 129.289539 128.713251 129.405316 128.551748 129.513228 
C 128.390245 129.621141 128.223542 129.721059 128.05224 129.812622 
L 128.05224 129.812622 
C 128.223542 129.721059 128.390245 129.621141 128.551748 129.513228 
C 128.713251 129.405316 128.869358 129.289539 129.019505 129.166316 
z
" clip-path="url(#pc6eb694d07)" style="fill: #828282"/>
   </g>
   <g id="patch_113">
    <path d="M 125.254844 124.579063 
C 125.254844 124.579063 125.254844 124.579063 125.254844 124.579063 
C 125.254844 124.579063 125.254844 124.579063 125.254844 124.579063 
L 125.254844 124.579063 
C 125.254844 124.579063 125.254844 124.579063 125.254844 124.579063 
C 125.254844 124.579063 125.254844 124.579063 125.254844 124.579063 
z
" clip-path="url(#pc6eb694d07)" style="fill: #828282"/>
   </g>
   <g id="patch_114">
    <path d="M 127.123296 130.738524 
C 126.921688 130.799681 126.717198 130.850903 126.510566 130.892005 
C 126.303934 130.933107 126.095409 130.964039 125.885743 130.984689 
L 125.885743 130.984689 
C 126.095409 130.964039 126.303934 130.933107 126.510566 130.892005 
C 126.717198 130.850903 126.921688 130.799681 127.123296 130.738524 
z
" clip-path="url(#pc6eb694d07)" style="fill: #828282"/>
   </g>
   <g id="patch_115">
    <path d="M 125.254844 124.579063 
C 125.254844 124.579063 125.254844 124.579063 125.254844 124.579063 
C 125.254844 124.579063 125.254844 124.579063 125.254844 124.579063 
L 125.254844 124.579063 
C 125.254844 124.579063 125.254844 124.579063 125.254844 124.579063 
C 125.254844 124.579063 125.254844 124.579063 125.254844 124.579063 
z
" clip-path="url(#pc6eb694d07)" style="fill: #828282"/>
   </g>
   <g id="patch_116">
    <path d="M 124.65632 130.655973 
C 124.457414 130.636383 124.259589 130.607038 124.063561 130.568046 
C 123.867533 130.529053 123.673537 130.48046 123.482274 130.422441 
L 123.482274 130.422441 
C 123.673537 130.48046 123.867533 130.529053 124.063561 130.568046 
C 124.259589 130.607038 124.457414 130.636383 124.65632 130.655973 
z
" clip-path="url(#pc6eb694d07)" style="fill: #828282"/>
   </g>
   <g id="patch_117">
    <path d="M 121.517939 136.897986 
C 121.114722 136.775671 120.717754 136.633634 120.328468 136.472386 
C 119.939182 136.311138 119.558047 136.130875 119.18644 135.932247 
L 119.18644 135.932247 
C 119.558047 136.130875 119.939182 136.311138 120.328468 136.472386 
C 120.717754 136.633634 121.114722 136.775671 121.517939 136.897986 
z
" clip-path="url(#pc6eb694d07)" style="fill: #828282"/>
   </g>
   <g id="patch_118">
    <path d="M 121.127883 132.300063 
C 120.875163 132.164981 120.629228 132.017573 120.390965 131.858371 
C 120.152702 131.699169 119.9224 131.528365 119.700889 131.346576 
L 117.615598 133.887511 
C 117.920277 134.137555 118.237049 134.372489 118.56477 134.591465 
C 118.892491 134.810441 119.230766 135.013195 119.578372 135.198995 
z
" clip-path="url(#pc6eb694d07)" style="fill: #828282"/>
   </g>
   <g id="patch_119">
    <path d="M 113.814178 138.519554 
C 113.357885 138.145084 112.920253 137.748437 112.502861 137.331045 
C 112.08547 136.913654 111.688823 136.476021 111.314353 136.019728 
L 107.698748 138.986978 
C 108.170341 139.561615 108.669862 140.112752 109.195509 140.638398 
C 109.721155 141.164044 110.272291 141.663565 110.846929 142.135158 
z
" clip-path="url(#pc6eb694d07)" style="fill: #828282"/>
   </g>
   <g id="patch_120">
    <path d="M 111.358819 135.983235 
C 110.985543 135.528398 110.634824 135.055507 110.307928 134.566273 
C 109.981031 134.077038 109.678352 133.572048 109.400983 133.053127 
L 102.870059 136.543979 
C 103.261689 137.276667 103.689055 137.989684 104.150615 138.680457 
C 104.612175 139.37123 105.107371 140.038926 105.634416 140.681131 
z
" clip-path="url(#pc6eb694d07)" style="fill: #828282"/>
   </g>
   <g id="patch_121">
    <path d="M 102.442286 136.772629 
C 102.043172 136.02594 101.68096 135.260105 101.356956 134.477892 
C 101.032953 133.695678 100.747549 132.898028 100.501776 132.087824 
L 99.158781 132.495217 
C 99.417888 133.34938 99.718777 134.190307 100.060359 135.01496 
C 100.401942 135.839613 100.783806 136.646998 101.204574 137.434199 
z
" clip-path="url(#pc6eb694d07)" style="fill: #828282"/>
   </g>
   <g id="patch_122">
    <path d="M 96.135504 133.412318 
C 95.846379 132.459198 95.604223 131.492458 95.409911 130.515589 
C 95.2156 129.538719 95.069367 128.552899 94.971742 127.561688 
L 89.878616 128.063317 
C 89.992661 129.221234 90.163487 130.372853 90.390479 131.514016 
C 90.61747 132.655179 90.900353 133.784509 91.238105 134.897928 
z
" clip-path="url(#pc6eb694d07)" style="fill: #828282"/>
   </g>
   <g id="patch_123">
    <path d="M 78.052725 129.228065 
C 77.900556 127.68307 77.824334 126.131534 77.824334 124.579062 
C 77.824334 123.026591 77.900556 121.475055 78.052725 119.93006 
L 73.215291 119.453614 
C 73.047528 121.156946 72.963494 122.867489 72.963494 124.579062 
C 72.963494 126.290636 73.047528 128.001179 73.215291 129.704511 
z
" clip-path="url(#pc6eb694d07)" style="fill: #828282"/>
   </g>
   <g id="patch_124">
    <path d="M 89.561076 121.063533 
C 89.676145 119.895223 89.848505 118.733266 90.077534 117.58186 
C 90.306562 116.430455 90.591984 115.290987 90.932768 114.167575 
L 86.3965 112.791513 
C 86.010676 114.063404 85.687531 115.353472 85.428232 116.657057 
C 85.168933 117.960641 84.973792 119.276171 84.843515 120.598894 
z
" clip-path="url(#pc6eb694d07)" style="fill: #828282"/>
   </g>
   <g id="patch_125">
    <path d="M 66.675157 106.809109 
C 67.256794 104.891708 67.93222 103.00402 68.698994 101.152863 
C 69.465769 99.301705 70.322968 97.48931 71.267495 95.722223 
L 71.118482 95.642574 
C 70.171347 97.414538 69.311782 99.231936 68.542892 101.088203 
C 67.774001 102.94447 67.096711 104.837368 66.513468 106.760061 
z
" clip-path="url(#pc6eb694d07)" style="fill: #828282"/>
   </g>
   <g id="patch_126">
    <path d="M 53.833474 86.403545 
C 55.083016 84.065817 56.44658 81.790847 57.919243 79.586852 
C 59.391905 77.382857 60.97189 75.252495 62.65349 73.203459 
L 61.555824 72.302628 
C 59.844739 74.387592 58.23705 76.555309 56.738566 78.797949 
C 55.240082 81.040589 53.852608 83.355449 52.581157 85.734168 
z
" clip-path="url(#pc6eb694d07)" style="fill: #828282"/>
   </g>
   <g id="patch_127">
    <path d="M 80.738044 88.04507 
C 81.933857 86.587968 83.200488 85.190456 84.533363 83.857581 
C 85.866237 82.524706 87.263749 81.258075 88.720851 80.062263 
L 88.720851 80.062263 
C 87.263749 81.258075 85.866237 82.524706 84.533363 83.857581 
C 83.200488 85.190456 81.933857 86.587968 80.738044 88.04507 
z
" clip-path="url(#pc6eb694d07)" style="fill: #828282"/>
   </g>
   <g id="patch_128">
    <path d="M 88.846574 80.215457 
C 90.298661 79.02376 91.808382 77.904075 93.370283 76.860445 
C 94.932185 75.816816 96.544384 74.850501 98.201058 73.96499 
L 97.955456 73.505501 
C 96.283742 74.399051 94.656907 75.374138 93.080826 76.427242 
C 91.504745 77.480346 89.981318 78.610196 88.516049 79.812711 
z
" clip-path="url(#pc6eb694d07)" style="fill: #828282"/>
   </g>
   <g id="patch_129">
    <path d="M 97.670295 72.972002 
C 99.359471 72.069119 101.091959 71.249713 102.861499 70.516746 
C 104.631039 69.783778 106.4355 69.138132 108.268363 68.582139 
L 97.128586 31.859217 
C 94.093727 32.779831 91.105897 33.848894 88.175887 35.062543 
C 85.245878 36.276193 82.377222 37.632966 79.58028 39.127963 
z
" clip-path="url(#pc6eb694d07)" style="fill: #828282"/>
   </g>
   <g id="patch_130">
    <path d="M 99.796538 40.654276 
C 102.543522 39.820987 105.329762 39.123071 108.145194 38.563046 
C 110.960627 38.003022 113.801858 37.581565 116.658626 37.300198 
L 116.112247 31.752716 
C 113.073902 32.051967 110.05208 32.500212 107.057698 33.095831 
C 104.063315 33.691451 101.09998 34.433728 98.178397 35.31998 
z
" clip-path="url(#pc6eb694d07)" style="fill: #828282"/>
   </g>
   <g id="patch_131">
    <path d="M 125.254844 124.579063 
C 125.254844 124.579063 125.254844 124.579063 125.254844 124.579063 
C 125.254844 124.579063 125.254844 124.579063 125.254844 124.579063 
L 132.322604 52.818893 
C 129.973786 52.587555 127.615026 52.471676 125.254844 52.471676 
C 122.894661 52.471676 120.535901 52.587555 118.187084 52.818893 
L 125.254844 124.579063 
z
" clip-path="url(#pc6eb694d07)" style="fill: none; stroke: #292929; stroke-width: 0.5; stroke-linejoin: miter"/>
   </g>
   <g id="patch_132">
    <path d="M 125.254844 124.579063 
C 125.254844 124.579063 125.254844 124.579063 125.254844 124.579063 
C 125.254844 124.579063 125.254844 124.579063 125.254844 124.579063 
L 150.207602 42.320843 
C 147.515167 41.504102 144.784256 40.820045 142.024732 40.271141 
C 139.265208 39.722238 136.480397 39.30915 133.680359 39.033371 
L 125.254844 124.579063 
z
" clip-path="url(#pc6eb694d07)" style="fill: none; stroke: #292929; stroke-width: 0.5; stroke-linejoin: miter"/>
   </g>
   <g id="patch_133">
    <path d="M 125.254844 124.579063 
C 125.254844 124.579063 125.254844 124.579063 125.254844 124.579063 
C 125.254844 124.579063 125.254844 124.579063 125.254844 124.579063 
L 149.717362 78.81291 
C 148.219367 78.012215 146.682964 77.285551 145.113701 76.63554 
C 143.544438 75.98553 141.944207 75.412959 140.318788 74.919893 
L 125.254844 124.579063 
z
" clip-path="url(#pc6eb694d07)" style="fill: none; stroke: #292929; stroke-width: 0.5; stroke-linejoin: miter"/>
   </g>
   <g id="patch_134">
    <path d="M 125.254844 124.579063 
C 125.254844 124.579063 125.254844 124.579063 125.254844 124.579063 
C 125.254844 124.579063 125.254844 124.579063 125.254844 124.579063 
L 155.302853 87.965457 
C 154.104435 86.981941 152.858452 86.057857 151.569403 85.196542 
C 150.280354 84.335227 148.949794 83.53772 147.582529 82.806902 
L 125.254844 124.579063 
z
" clip-path="url(#pc6eb694d07)" style="fill: none; stroke: #292929; stroke-width: 0.5; stroke-linejoin: miter"/>
   </g>
   <g id="patch_135">
    <path d="M 125.254844 124.579063 
C 125.254844 124.579063 125.254844 124.579063 125.254844 124.579063 
C 125.254844 124.579063 125.254844 124.579063 125.254844 124.579063 
L 167.780732 89.678968 
C 166.6384 88.287032 165.428416 86.95202 164.155151 85.678755 
C 162.881886 84.40549 161.546874 83.195506 160.154939 82.053174 
L 125.254844 124.579063 
z
" clip-path="url(#pc6eb694d07)" style="fill: none; stroke: #292929; stroke-width: 0.5; stroke-linejoin: miter"/>
   </g>
   <g id="patch_136">
    <path d="M 125.254844 124.579063 
C 125.254844 124.579063 125.254844 124.579063 125.254844 124.579063 
C 125.254844 124.579063 125.254844 124.579063 125.254844 124.579063 
L 182.837992 93.800228 
C 181.830555 91.915446 180.731187 90.081262 179.54386 88.304301 
C 178.356533 86.527341 177.082678 84.809746 175.726895 83.15772 
L 125.254844 124.579063 
z
" clip-path="url(#pc6eb694d07)" style="fill: none; stroke: #292929; stroke-width: 0.5; stroke-linejoin: miter"/>
   </g>
   <g id="patch_137">
    <path d="M 125.254844 124.579063 
C 125.254844 124.579063 125.254844 124.579063 125.254844 124.579063 
C 125.254844 124.579063 125.254844 124.579063 125.254844 124.579063 
L 163.324105 113.030878 
C 162.946116 111.784815 162.507176 110.55806 162.008871 109.355046 
C 161.510566 108.152032 160.953497 106.974208 160.339676 105.825829 
L 125.254844 124.579063 
z
" clip-path="url(#pc6eb694d07)" style="fill: none; stroke: #292929; stroke-width: 0.5; stroke-linejoin: miter"/>
   </g>
   <g id="patch_138">
    <path d="M 125.254844 124.579063 
C 125.254844 124.579063 125.254844 124.579063 125.254844 124.579063 
C 125.254844 124.579063 125.254844 124.579063 125.254844 124.579063 
L 235.60093 113.710922 
C 235.245199 110.099129 234.712354 106.50698 234.004319 102.947447 
C 233.296284 99.387914 232.413912 95.86529 231.360391 92.392297 
L 125.254844 124.579063 
z
" clip-path="url(#pc6eb694d07)" style="fill: none; stroke: #292929; stroke-width: 0.5; stroke-linejoin: miter"/>
   </g>
   <g id="patch_139">
    <path d="M 125.254844 124.579063 
C 125.254844 124.579063 125.254844 124.579063 125.254844 124.579063 
C 125.254844 124.579063 125.254844 124.579063 125.254844 124.579063 
L 169.402577 128.927235 
C 169.544899 127.482213 169.616189 126.031076 169.616189 124.579063 
C 169.616189 123.127049 169.544899 121.675912 169.402577 120.23089 
L 125.254844 124.579063 
z
" clip-path="url(#pc6eb694d07)" style="fill: none; stroke: #292929; stroke-width: 0.5; stroke-linejoin: miter"/>
   </g>
   <g id="patch_140">
    <path d="M 125.254844 124.579063 
C 125.254844 124.579063 125.254844 124.579063 125.254844 124.579063 
C 125.254844 124.579063 125.254844 124.579063 125.254844 124.579063 
L 148.011532 131.482229 
C 148.237483 130.737368 148.426728 129.981863 148.578581 129.218442 
C 148.730435 128.455022 148.844716 127.684605 148.92101 126.909976 
L 125.254844 124.579063 
z
" clip-path="url(#pc6eb694d07)" style="fill: none; stroke: #292929; stroke-width: 0.5; stroke-linejoin: miter"/>
   </g>
   <g id="patch_141">
    <path d="M 125.254844 124.579063 
C 125.254844 124.579063 125.254844 124.579063 125.254844 124.579063 
C 125.254844 124.579063 125.254844 124.579063 125.254844 124.579063 
L 143.070664 134.101817 
C 143.382358 133.518679 143.665234 132.920588 143.918269 132.309707 
C 144.171305 131.698825 144.394195 131.075888 144.586136 130.443146 
L 125.254844 124.579063 
z
" clip-path="url(#pc6eb694d07)" style="fill: none; stroke: #292929; stroke-width: 0.5; stroke-linejoin: miter"/>
   </g>
   <g id="patch_142">
    <path d="M 125.254844 124.579063 
C 125.254844 124.579063 125.254844 124.579063 125.254844 124.579063 
C 125.254844 124.579063 125.254844 124.579063 125.254844 124.579063 
L 125.254844 124.579063 
C 125.254844 124.579063 125.254844 124.579063 125.254844 124.579063 
C 125.254844 124.579063 125.254844 124.579063 125.254844 124.579063 
L 125.254844 124.579063 
z
" clip-path="url(#pc6eb694d07)" style="fill: none; stroke: #292929; stroke-width: 0.5; stroke-linejoin: miter"/>
   </g>
   <g id="patch_143">
    <path d="M 125.254844 124.579063 
C 125.254844 124.579063 125.254844 124.579063 125.254844 124.579063 
C 125.254844 124.579063 125.254844 124.579063 125.254844 124.579063 
L 131.242208 131.874688 
C 131.481005 131.678712 131.710036 131.471131 131.928474 131.252693 
C 132.146912 131.034255 132.354493 130.805224 132.550469 130.566427 
L 125.254844 124.579063 
z
" clip-path="url(#pc6eb694d07)" style="fill: none; stroke: #292929; stroke-width: 0.5; stroke-linejoin: miter"/>
   </g>
   <g id="patch_144">
    <path d="M 125.254844 124.579063 
C 125.254844 124.579063 125.254844 124.579063 125.254844 124.579063 
C 125.254844 124.579063 125.254844 124.579063 125.254844 124.579063 
L 128.05224 129.812622 
C 128.223542 129.721059 128.390245 129.621141 128.551748 129.513228 
C 128.713251 129.405316 128.869358 129.289539 129.019505 129.166316 
L 125.254844 124.579063 
z
" clip-path="url(#pc6eb694d07)" style="fill: none; stroke: #292929; stroke-width: 0.5; stroke-linejoin: miter"/>
   </g>
   <g id="patch_145">
    <path d="M 125.254844 124.579063 
C 125.254844 124.579063 125.254844 124.579063 125.254844 124.579063 
C 125.254844 124.579063 125.254844 124.579063 125.254844 124.579063 
L 125.254844 124.579063 
C 125.254844 124.579063 125.254844 124.579063 125.254844 124.579063 
C 125.254844 124.579063 125.254844 124.579063 125.254844 124.579063 
L 125.254844 124.579063 
z
" clip-path="url(#pc6eb694d07)" style="fill: none; stroke: #292929; stroke-width: 0.5; stroke-linejoin: miter"/>
   </g>
   <g id="patch_146">
    <path d="M 125.254844 124.579063 
C 125.254844 124.579063 125.254844 124.579063 125.254844 124.579063 
C 125.254844 124.579063 125.254844 124.579063 125.254844 124.579063 
L 125.885743 130.984689 
C 126.095409 130.964039 126.303934 130.933107 126.510566 130.892005 
C 126.717198 130.850903 126.921688 130.799681 127.123296 130.738524 
L 125.254844 124.579063 
z
" clip-path="url(#pc6eb694d07)" style="fill: none; stroke: #292929; stroke-width: 0.5; stroke-linejoin: miter"/>
   </g>
   <g id="patch_147">
    <path d="M 125.254844 124.579063 
C 125.254844 124.579063 125.254844 124.579063 125.254844 124.579063 
C 125.254844 124.579063 125.254844 124.579063 125.254844 124.579063 
L 125.254844 124.579063 
C 125.254844 124.579063 125.254844 124.579063 125.254844 124.579063 
C 125.254844 124.579063 125.254844 124.579063 125.254844 124.579063 
L 125.254844 124.579063 
z
" clip-path="url(#pc6eb694d07)" style="fill: none; stroke: #292929; stroke-width: 0.5; stroke-linejoin: miter"/>
   </g>
   <g id="patch_148">
    <path d="M 125.254844 124.579063 
C 125.254844 124.579063 125.254844 124.579063 125.254844 124.579063 
C 125.254844 124.579063 125.254844 124.579063 125.254844 124.579063 
L 123.482274 130.422441 
C 123.673537 130.48046 123.867533 130.529053 124.063561 130.568046 
C 124.259589 130.607038 124.457414 130.636383 124.65632 130.655973 
L 125.254844 124.579063 
z
" clip-path="url(#pc6eb694d07)" style="fill: none; stroke: #292929; stroke-width: 0.5; stroke-linejoin: miter"/>
   </g>
   <g id="patch_149">
    <path d="M 125.254844 124.579063 
C 125.254844 124.579063 125.254844 124.579063 125.254844 124.579063 
C 125.254844 124.579063 125.254844 124.579063 125.254844 124.579063 
L 119.18644 135.932247 
C 119.558047 136.130875 119.939182 136.311138 120.328468 136.472386 
C 120.717754 136.633634 121.114722 136.775671 121.517939 136.897986 
L 125.254844 124.579063 
z
" clip-path="url(#pc6eb694d07)" style="fill: none; stroke: #292929; stroke-width: 0.5; stroke-linejoin: miter"/>
   </g>
   <g id="patch_150">
    <path d="M 125.254844 124.579063 
C 125.254844 124.579063 125.254844 124.579063 125.254844 124.579063 
C 125.254844 124.579063 125.254844 124.579063 125.254844 124.579063 
L 117.615598 133.887511 
C 117.920277 134.137555 118.237049 134.372489 118.56477 134.591465 
C 118.892491 134.810441 119.230766 135.013195 119.578372 135.198995 
L 125.254844 124.579063 
z
" clip-path="url(#pc6eb694d07)" style="fill: none; stroke: #292929; stroke-width: 0.5; stroke-linejoin: miter"/>
   </g>
   <g id="patch_151">
    <path d="M 125.254844 124.579063 
C 125.254844 124.579063 125.254844 124.579063 125.254844 124.579063 
C 125.254844 124.579063 125.254844 124.579063 125.254844 124.579063 
L 107.698748 138.986978 
C 108.170341 139.561615 108.669862 140.112752 109.195509 140.638398 
C 109.721155 141.164044 110.272291 141.663565 110.846929 142.135158 
L 125.254844 124.579063 
z
" clip-path="url(#pc6eb694d07)" style="fill: none; stroke: #292929; stroke-width: 0.5; stroke-linejoin: miter"/>
   </g>
   <g id="patch_152">
    <path d="M 125.254844 124.579063 
C 125.254844 124.579063 125.254844 124.579063 125.254844 124.579063 
C 125.254844 124.579063 125.254844 124.579063 125.254844 124.579063 
L 102.870059 136.543979 
C 103.261689 137.276667 103.689055 137.989684 104.150615 138.680457 
C 104.612175 139.37123 105.107371 140.038926 105.634416 140.681131 
L 125.254844 124.579063 
z
" clip-path="url(#pc6eb694d07)" style="fill: none; stroke: #292929; stroke-width: 0.5; stroke-linejoin: miter"/>
   </g>
   <g id="patch_153">
    <path d="M 125.254844 124.579063 
C 125.254844 124.579063 125.254844 124.579063 125.254844 124.579063 
C 125.254844 124.579063 125.254844 124.579063 125.254844 124.579063 
L 99.158781 132.495217 
C 99.417888 133.34938 99.718777 134.190307 100.060359 135.01496 
C 100.401942 135.839613 100.783806 136.646998 101.204574 137.434199 
L 125.254844 124.579063 
z
" clip-path="url(#pc6eb694d07)" style="fill: none; stroke: #292929; stroke-width: 0.5; stroke-linejoin: miter"/>
   </g>
   <g id="patch_154">
    <path d="M 125.254844 124.579063 
C 125.254844 124.579063 125.254844 124.579063 125.254844 124.579063 
C 125.254844 124.579063 125.254844 124.579063 125.254844 124.579063 
L 89.878616 128.063317 
C 89.992661 129.221234 90.163487 130.372853 90.390479 131.514016 
C 90.61747 132.655179 90.900353 133.784509 91.238105 134.897928 
L 125.254844 124.579063 
z
" clip-path="url(#pc6eb694d07)" style="fill: none; stroke: #292929; stroke-width: 0.5; stroke-linejoin: miter"/>
   </g>
   <g id="patch_155">
    <path d="M 125.254844 124.579063 
C 125.254844 124.579063 125.254844 124.579063 125.254844 124.579063 
C 125.254844 124.579063 125.254844 124.579063 125.254844 124.579063 
L 73.215291 119.453614 
C 73.047528 121.156946 72.963494 122.867489 72.963494 124.579062 
C 72.963494 126.290636 73.047528 128.001179 73.215291 129.704511 
L 125.254844 124.579063 
z
" clip-path="url(#pc6eb694d07)" style="fill: none; stroke: #292929; stroke-width: 0.5; stroke-linejoin: miter"/>
   </g>
   <g id="patch_156">
    <path d="M 125.254844 124.579063 
C 125.254844 124.579063 125.254844 124.579063 125.254844 124.579063 
C 125.254844 124.579063 125.254844 124.579063 125.254844 124.579063 
L 86.3965 112.791513 
C 86.010676 114.063404 85.687531 115.353472 85.428232 116.657057 
C 85.168933 117.960641 84.973792 119.276171 84.843515 120.598894 
L 125.254844 124.579063 
z
" clip-path="url(#pc6eb694d07)" style="fill: none; stroke: #292929; stroke-width: 0.5; stroke-linejoin: miter"/>
   </g>
   <g id="patch_157">
    <path d="M 125.254844 124.579063 
C 125.254844 124.579063 125.254844 124.579063 125.254844 124.579063 
C 125.254844 124.579063 125.254844 124.579063 125.254844 124.579063 
L 71.118482 95.642574 
C 70.171347 97.414538 69.311782 99.231936 68.542892 101.088203 
C 67.774001 102.94447 67.096711 104.837368 66.513468 106.760061 
L 125.254844 124.579063 
z
" clip-path="url(#pc6eb694d07)" style="fill: none; stroke: #292929; stroke-width: 0.5; stroke-linejoin: miter"/>
   </g>
   <g id="patch_158">
    <path d="M 125.254844 124.579063 
C 125.254844 124.579063 125.254844 124.579063 125.254844 124.579063 
C 125.254844 124.579063 125.254844 124.579063 125.254844 124.579063 
L 61.555824 72.302628 
C 59.844739 74.387592 58.23705 76.555309 56.738566 78.797949 
C 55.240082 81.040589 53.852608 83.355449 52.581157 85.734168 
L 125.254844 124.579063 
z
" clip-path="url(#pc6eb694d07)" style="fill: none; stroke: #292929; stroke-width: 0.5; stroke-linejoin: miter"/>
   </g>
   <g id="patch_159">
    <path d="M 125.254844 124.579063 
C 125.254844 124.579063 125.254844 124.579063 125.254844 124.579063 
C 125.254844 124.579063 125.254844 124.579063 125.254844 124.579063 
L 88.720851 80.062263 
C 87.263749 81.258075 85.866237 82.524706 84.533363 83.857581 
C 83.200488 85.190456 81.933857 86.587968 80.738044 88.04507 
L 125.254844 124.579063 
z
" clip-path="url(#pc6eb694d07)" style="fill: none; stroke: #292929; stroke-width: 0.5; stroke-linejoin: miter"/>
   </g>
   <g id="patch_160">
    <path d="M 125.254844 124.579063 
C 125.254844 124.579063 125.254844 124.579063 125.254844 124.579063 
C 125.254844 124.579063 125.254844 124.579063 125.254844 124.579063 
L 97.955456 73.505501 
C 96.283742 74.399051 94.656907 75.374138 93.080826 76.427242 
C 91.504745 77.480346 89.981318 78.610196 88.516049 79.812711 
L 125.254844 124.579063 
z
" clip-path="url(#pc6eb694d07)" style="fill: none; stroke: #292929; stroke-width: 0.5; stroke-linejoin: miter"/>
   </g>
   <g id="patch_161">
    <path d="M 125.254844 124.579063 
C 125.254844 124.579063 125.254844 124.579063 125.254844 124.579063 
C 125.254844 124.579063 125.254844 124.579063 125.254844 124.579063 
L 97.128586 31.859217 
C 94.093727 32.779831 91.105897 33.848894 88.175887 35.062543 
C 85.245878 36.276193 82.377222 37.632966 79.58028 39.127963 
L 125.254844 124.579063 
z
" clip-path="url(#pc6eb694d07)" style="fill: none; stroke: #292929; stroke-width: 0.5; stroke-linejoin: miter"/>
   </g>
   <g id="patch_162">
    <path d="M 125.254844 124.579063 
C 125.254844 124.579063 125.254844 124.579063 125.254844 124.579063 
C 125.254844 124.579063 125.254844 124.579063 125.254844 124.579063 
L 116.112247 31.752716 
C 113.073902 32.051967 110.05208 32.500212 107.057698 33.095831 
C 104.063315 33.691451 101.09998 34.433728 98.178397 35.31998 
L 125.254844 124.579063 
z
" clip-path="url(#pc6eb694d07)" style="fill: none; stroke: #292929; stroke-width: 0.5; stroke-linejoin: miter"/>
   </g>
   <g id="PathCollection_1">
    <defs>
     <path id="m0aca03c7be" d="M 0.193618 7.414054 
L 0.193618 7.414054 
C 0.054922 7.414054 -0.078235 7.358899 -0.176308 7.260826 
C -0.274381 7.162753 -0.329536 7.029596 -0.329536 6.890901 
L -0.329536 5.365008 
L -1.528416 6.56393 
L -1.528416 6.56393 
C -1.577018 6.612704 -1.634775 6.651408 -1.698366 6.677814 
C -1.761958 6.704221 -1.830141 6.717815 -1.898997 6.717815 
C -1.967853 6.717815 -2.036037 6.704221 -2.099628 6.677814 
C -2.163219 6.651408 -2.220976 6.612704 -2.269578 6.56393 
L -2.269578 6.56393 
C -2.318353 6.515327 -2.357056 6.457571 -2.383463 6.393979 
C -2.409869 6.330388 -2.423463 6.262205 -2.423463 6.193348 
C -2.423463 6.124492 -2.409869 6.056309 -2.383463 5.992718 
C -2.357056 5.929126 -2.318353 5.87137 -2.269578 5.822767 
L -0.329536 3.884106 
L -0.329536 0.820937 
L -2.98067 2.351538 
L -3.691824 5.001416 
L -3.691824 5.001416 
C -3.727584 5.135411 -3.815199 5.249836 -3.93523 5.319305 
C -4.055261 5.388775 -4.198123 5.407741 -4.332122 5.371997 
L -4.332122 5.371997 
C -4.466126 5.336237 -4.580558 5.248616 -4.650029 5.128576 
C -4.719499 5.008535 -4.73846 4.865662 -4.702703 4.731657 
L -4.262647 3.092721 
L -5.585535 3.855668 
L -5.585535 3.855668 
C -5.645013 3.890144 -5.710708 3.912561 -5.778854 3.921634 
C -5.847001 3.930706 -5.916272 3.926258 -5.982698 3.908543 
C -6.049125 3.890828 -6.111412 3.860192 -6.165991 3.818391 
C -6.220571 3.77659 -6.266379 3.724437 -6.300791 3.664922 
L -6.300791 3.664922 
C -6.335212 3.605364 -6.35755 3.539597 -6.366524 3.471396 
C -6.375498 3.403194 -6.370933 3.333888 -6.35309 3.267452 
C -6.335248 3.201017 -6.304476 3.138749 -6.26254 3.08422 
C -6.220605 3.029692 -6.168323 2.983966 -6.108695 2.949666 
L -4.785807 2.186762 
L -6.424743 1.746706 
L -6.424743 1.746706 
C -6.558747 1.710946 -6.673179 1.623325 -6.74265 1.503284 
C -6.81212 1.383244 -6.831081 1.240371 -6.795324 1.106366 
L -6.795324 1.106366 
C -6.777471 1.039969 -6.746703 0.977739 -6.704784 0.923241 
C -6.662864 0.868744 -6.61061 0.823041 -6.551015 0.788752 
C -6.491421 0.754464 -6.425647 0.732257 -6.357465 0.723406 
C -6.289282 0.714554 -6.220019 0.71923 -6.153645 0.737166 
L -3.505232 1.44698 
L -0.852424 -0.08496 
L -3.503767 -1.615666 
L -6.153645 -0.905851 
L -6.153645 -0.905851 
C -6.22011 -0.887939 -6.289462 -0.883321 -6.357716 -0.892262 
C -6.42597 -0.901202 -6.491793 -0.923527 -6.551403 -0.957953 
C -6.611013 -0.992379 -6.663247 -1.038234 -6.705103 -1.092883 
C -6.746958 -1.147533 -6.777619 -1.209911 -6.795324 -1.276432 
L -6.795324 -1.276432 
C -6.831068 -1.410431 -6.812101 -1.553293 -6.742632 -1.673324 
C -6.673162 -1.793355 -6.558738 -1.88097 -6.424743 -1.91673 
L -4.785807 -2.355447 
L -6.108695 -3.119732 
L -6.108695 -3.119732 
C -6.228699 -3.188976 -6.316415 -3.303132 -6.352417 -3.436921 
C -6.388419 -3.57071 -6.369839 -3.713469 -6.300791 -3.833586 
L -6.300791 -3.833586 
C -6.266491 -3.893214 -6.220765 -3.945496 -6.166237 -3.987431 
C -6.111708 -4.029367 -6.04944 -4.060139 -5.983005 -4.077981 
C -5.91657 -4.095823 -5.847263 -4.100389 -5.779062 -4.091415 
C -5.71086 -4.082441 -5.645094 -4.060102 -5.585535 -4.025682 
L -4.262647 -3.261396 
L -4.702703 -4.900332 
L -4.702703 -4.900332 
C -4.73846 -5.034337 -4.719499 -5.17721 -4.650029 -5.29725 
C -4.580558 -5.417291 -4.466126 -5.504912 -4.332122 -5.540672 
L -4.332122 -5.540672 
C -4.19831 -5.576464 -4.055613 -5.557686 -3.935617 -5.488496 
C -3.81562 -5.419305 -3.727882 -5.305212 -3.691824 -5.171472 
L -2.982009 -2.521594 
L -0.329411 -0.990302 
L -0.329411 -4.051588 
L -2.269453 -5.991589 
L -2.269453 -5.991589 
C -2.318227 -6.040191 -2.356931 -6.097947 -2.383337 -6.161539 
C -2.409744 -6.22513 -2.423338 -6.293314 -2.423338 -6.36217 
C -2.423338 -6.431026 -2.409744 -6.499209 -2.383337 -6.5628 
C -2.356931 -6.626392 -2.318227 -6.684149 -2.269453 -6.732751 
L -2.269453 -6.732751 
C -2.22085 -6.781526 -2.163094 -6.820229 -2.099502 -6.846635 
C -2.035911 -6.873042 -1.967728 -6.886636 -1.898871 -6.886636 
C -1.830015 -6.886636 -1.761832 -6.873042 -1.698241 -6.846635 
C -1.634649 -6.820229 -1.576893 -6.781526 -1.52829 -6.732751 
L -0.329411 -5.533829 
L -0.329411 -7.059722 
L -0.329411 -7.059722 
C -0.329411 -7.198418 -0.274255 -7.331575 -0.176182 -7.429647 
C -0.07811 -7.52772 0.055047 -7.582875 0.193743 -7.582875 
L 0.193743 -7.582875 
C 0.332439 -7.582875 0.465596 -7.52772 0.563669 -7.429647 
C 0.661741 -7.331575 0.716897 -7.198418 0.716897 -7.059722 
L 0.716897 -5.533829 
L 1.915777 -6.732751 
L 1.915777 -6.732751 
C 1.964379 -6.781526 2.022136 -6.820229 2.085727 -6.846635 
C 2.149318 -6.873042 2.217502 -6.886636 2.286358 -6.886636 
C 2.355214 -6.886636 2.423397 -6.873042 2.486989 -6.846635 
C 2.55058 -6.820229 2.608337 -6.781526 2.656939 -6.732751 
L 2.656939 -6.732751 
C 2.705714 -6.684149 2.744417 -6.626392 2.770823 -6.5628 
C 2.79723 -6.499209 2.810824 -6.431026 2.810824 -6.36217 
C 2.810824 -6.293314 2.79723 -6.22513 2.770823 -6.161539 
C 2.744417 -6.097947 2.705714 -6.040191 2.656939 -5.991589 
L 0.716897 -4.051588 
L 0.716897 -0.991139 
L 3.369495 -2.522954 
L 4.07931 -5.171367 
L 4.07931 -5.171367 
C 4.115368 -5.305107 4.203106 -5.4192 4.323103 -5.488391 
C 4.4431 -5.557582 4.585797 -5.576359 4.719608 -5.540567 
L 4.719608 -5.540567 
C 4.853612 -5.504807 4.968045 -5.417186 5.037515 -5.297146 
C 5.106986 -5.177105 5.125946 -5.034232 5.090189 -4.900227 
L 4.650133 -3.262673 
L 5.973022 -4.025577 
L 5.973022 -4.025577 
C 6.03258 -4.059998 6.098346 -4.082336 6.166548 -4.09131 
C 6.234749 -4.100284 6.304056 -4.095719 6.370491 -4.077876 
C 6.436926 -4.060034 6.499194 -4.029262 6.553723 -3.987327 
C 6.608252 -3.945391 6.653978 -3.893109 6.688277 -3.833481 
L 6.688277 -3.833481 
C 6.757325 -3.713365 6.775905 -3.570605 6.739903 -3.436816 
C 6.703901 -3.303027 6.616186 -3.188871 6.496181 -3.119628 
L 5.173293 -2.355342 
L 6.812229 -1.916625 
L 6.812229 -1.916625 
C 6.946224 -1.880865 7.060649 -1.79325 7.130118 -1.67322 
C 7.199588 -1.553189 7.218554 -1.410326 7.18281 -1.276327 
L 7.18281 -1.276327 
C 7.165106 -1.209806 7.134445 -1.147429 7.092589 -1.092779 
C 7.050733 -1.038129 6.998499 -0.992274 6.938889 -0.957848 
C 6.879279 -0.923422 6.813456 -0.901098 6.745202 -0.892157 
C 6.676949 -0.883217 6.607597 -0.887835 6.541131 -0.905746 
L 3.891253 -1.615561 
L 1.239492 -0.084604 
L 3.892718 1.447085 
L 6.541131 0.73727 
L 6.541131 0.73727 
C 6.674948 0.701466 6.817656 0.720237 6.937662 0.789429 
C 7.057669 0.858621 7.145413 0.972721 7.181471 1.10647 
L 7.181471 1.10647 
C 7.217274 1.240293 7.198497 1.383006 7.129297 1.503014 
C 7.060096 1.623021 6.945986 1.710762 6.812229 1.74681 
L 5.173293 2.186866 
L 6.496181 2.949771 
L 6.496181 2.949771 
C 6.555697 2.984183 6.607849 3.029991 6.649651 3.08457 
C 6.691452 3.13915 6.722088 3.201437 6.739803 3.267863 
C 6.757517 3.33429 6.761966 3.403561 6.752893 3.471707 
C 6.743821 3.539854 6.721404 3.605549 6.686927 3.665026 
L 6.686927 3.665026 
C 6.617458 3.784813 6.503196 3.87225 6.369416 3.907994 
C 6.235636 3.943739 6.092989 3.924946 5.973032 3.855772 
L 4.650144 3.091487 
L 5.08886 4.731783 
L 5.08886 4.731783 
C 5.124664 4.865606 5.105887 5.008319 5.036686 5.128326 
C 4.967486 5.248334 4.853376 5.336074 4.719619 5.372123 
L 4.719619 5.372123 
C 4.585619 5.407867 4.442757 5.3889 4.322726 5.319431 
C 4.202695 5.249961 4.115081 5.135537 4.07932 5.001542 
L 3.368166 2.351664 
L 0.717033 0.821063 
L 0.717033 3.884232 
L 2.657075 5.822893 
L 2.657075 5.822893 
C 2.70585 5.871495 2.744553 5.929252 2.770959 5.992843 
C 2.797366 6.056435 2.81096 6.124618 2.81096 6.193474 
C 2.81096 6.26233 2.797366 6.330514 2.770959 6.394105 
C 2.744553 6.457696 2.70585 6.515453 2.657075 6.564055 
L 2.657075 6.564055 
C 2.608473 6.61283 2.550716 6.651533 2.487125 6.67794 
C 2.423533 6.704346 2.35535 6.71794 2.286494 6.71794 
C 2.217638 6.71794 2.149454 6.704346 2.085863 6.67794 
C 2.022272 6.651533 1.964515 6.61283 1.915913 6.564055 
L 0.717033 5.365133 
L 0.717033 6.891026 
L 0.717033 6.891026 
C 0.717033 7.029722 0.661877 7.162879 0.563805 7.260952 
C 0.465732 7.359024 0.332575 7.41418 0.193879 7.41418 
L 0.193618 7.414054 
z
"/>
    </defs>
    <g clip-path="url(#pc6eb694d07)">
     <use xlink:href="#m0aca03c7be" x="124.56026" y="59.366383" style="fill: #9e2096; fill-opacity: 0.7"/>
    </g>
   </g>
   <g id="patch_163">
    <path d="M 125.254844 13.699063 
C 110.694216 13.699063 96.275171 16.567189 82.822905 22.1393 
C 69.370638 27.711411 57.146763 35.879144 46.850844 46.175063 
C 36.554925 56.470982 28.387192 68.694857 22.815081 82.147124 
C 17.24297 95.59939 14.374844 110.018434 14.374844 124.579063 
C 14.374844 139.139691 17.24297 153.558735 22.815081 167.011001 
C 28.387192 180.463268 36.554925 192.687143 46.850844 202.983062 
C 57.146763 213.278981 69.370638 221.446714 82.822905 227.018825 
C 96.275171 232.590936 110.694216 235.459063 125.254844 235.459063 
C 139.815472 235.459063 154.234516 232.590936 167.686783 227.018825 
C 181.139049 221.446714 193.362925 213.278981 203.658844 202.983062 
C 213.954763 192.687143 222.122495 180.463268 227.694606 167.011001 
C 233.266717 153.558735 236.134844 139.139691 236.134844 124.579063 
C 236.134844 110.018434 233.266717 95.59939 227.694606 82.147124 
C 222.122495 68.694857 213.954763 56.470982 203.658844 46.175063 
C 193.362925 35.879144 181.139049 27.711411 167.686783 22.1393 
C 154.234516 16.567189 139.815472 13.699063 125.254844 13.699063 
" style="fill: none; stroke: #000000; stroke-width: 0.8; stroke-linejoin: miter; stroke-linecap: square"/>
   </g>
  </g>
 </g>
 <defs>
  <clipPath id="pc6eb694d07">
   <path d="M 236.134844 124.579063 
C 236.134844 110.018434 233.266717 95.59939 227.694606 82.147124 
C 222.122495 68.694857 213.954763 56.470982 203.658844 46.175063 
C 193.362925 35.879144 181.139049 27.711411 167.686783 22.1393 
C 154.234516 16.567189 139.815472 13.699063 125.254844 13.699063 
C 110.694216 13.699063 96.275171 16.567189 82.822905 22.1393 
C 69.370638 27.711411 57.146763 35.879144 46.850844 46.175063 
C 36.554925 56.470982 28.387192 68.694857 22.815081 82.147124 
C 17.24297 95.59939 14.374844 110.018434 14.374844 124.579062 
C 14.374844 139.139691 17.24297 153.558735 22.815081 167.011001 
C 28.387192 180.463268 36.554925 192.687143 46.850844 202.983062 
C 57.146763 213.278981 69.370638 221.446714 82.822905 227.018825 
C 96.275171 232.590936 110.694216 235.459063 125.254844 235.459063 
C 139.815472 235.459063 154.234516 232.590936 167.686783 227.018825 
C 181.139049 221.446714 193.362925 213.278981 203.658844 202.983062 
C 213.954763 192.687143 222.122495 180.463268 227.694606 167.011001 
C 233.266717 153.558735 236.134844 139.139691 236.134844 124.579063 
M 125.254844 124.579063 
C 125.254844 124.579063 125.254844 124.579063 125.254844 124.579063 
C 125.254844 124.579063 125.254844 124.579063 125.254844 124.579063 
C 125.254844 124.579063 125.254844 124.579063 125.254844 124.579063 
C 125.254844 124.579063 125.254844 124.579063 125.254844 124.579063 
C 125.254844 124.579063 125.254844 124.579063 125.254844 124.579063 
C 125.254844 124.579063 125.254844 124.579063 125.254844 124.579063 
C 125.254844 124.579063 125.254844 124.579063 125.254844 124.579063 
C 125.254844 124.579063 125.254844 124.579063 125.254844 124.579063 
C 125.254844 124.579063 125.254844 124.579063 125.254844 124.579063 
C 125.254844 124.579063 125.254844 124.579063 125.254844 124.579063 
C 125.254844 124.579063 125.254844 124.579063 125.254844 124.579063 
C 125.254844 124.579063 125.254844 124.579063 125.254844 124.579063 
C 125.254844 124.579063 125.254844 124.579063 125.254844 124.579063 
C 125.254844 124.579063 125.254844 124.579063 125.254844 124.579063 
C 125.254844 124.579063 125.254844 124.579063 125.254844 124.579063 
C 125.254844 124.579063 125.254844 124.579063 125.254844 124.579063 
z
"/>
  </clipPath>
 </defs>
</svg>
