<?xml version="1.0" encoding="utf-8" standalone="no"?>
<!DOCTYPE svg PUBLIC "-//W3C//DTD SVG 1.1//EN"
  "http://www.w3.org/Graphics/SVG/1.1/DTD/svg11.dtd">
<svg xmlns:xlink="http://www.w3.org/1999/xlink" width="248.410469pt" height="249.158125pt" viewBox="0 0 248.410469 249.158125" xmlns="http://www.w3.org/2000/svg" version="1.1">
 <title>Ski Rose for Embach</title>
 <metadata>
  <rdf:RDF xmlns:dc="http://purl.org/dc/elements/1.1/" xmlns:cc="http://creativecommons.org/ns#" xmlns:rdf="http://www.w3.org/1999/02/22-rdf-syntax-ns#">
   <cc:Work>
    <dc:type rdf:resource="http://purl.org/dc/dcmitype/StillImage"/>
    <dc:title>Ski Rose for Embach</dc:title>
    <dc:date>2025-11-29T10:16:37.086480</dc:date>
    <dc:description>A 32-bin stacked histogram of downhill ski run orientations colored by difficulty.</dc:description>
    <dc:format>image/svg+xml</dc:format>
    <dc:source>https://openskimap.org/?obj=d432acfab1cd765b3606d4ff0b76bb159293c0d3</dc:source>
    <dc:creator>
     <cc:Agent>
      <dc:title>https://github.com/dhimmel/openskistats</dc:title>
     </cc:Agent>
    </dc:creator>
    <dc:rights>
     <cc:Agent>
      <dc:title>https://creativecommons.org/licenses/by/4.0/</dc:title>
     </cc:Agent>
    </dc:rights>
   </cc:Work>
  </rdf:RDF>
 </metadata>
 <defs>
  <style type="text/css">*{stroke-linejoin: round; stroke-linecap: butt}</style>
 </defs>
 <g id="figure_1">
  <g id="patch_1">
   <path d="M 0 249.158125 
L 248.410469 249.158125 
L 248.410469 0 
L 0 0 
z
" style="fill: #ffffff"/>
  </g>
  <g id="axes_1">
   <g id="patch_2">
    <path d="M 236.134844 124.579063 
C 236.134844 110.018434 233.266717 95.59939 227.694606 82.147124 
C 222.122495 68.694857 213.954763 56.470982 203.658844 46.175063 
C 193.362925 35.879144 181.139049 27.711411 167.686783 22.1393 
C 154.234516 16.567189 139.815472 13.699063 125.254844 13.699063 
C 110.694216 13.699063 96.275171 16.567189 82.822905 22.1393 
C 69.370638 27.711411 57.146763 35.879144 46.850844 46.175063 
C 36.554925 56.470982 28.387192 68.694857 22.815081 82.147124 
C 17.24297 95.59939 14.374844 110.018434 14.374844 124.579062 
C 14.374844 139.139691 17.24297 153.558735 22.815081 167.011001 
C 28.387192 180.463268 36.554925 192.687143 46.850844 202.983062 
C 57.146763 213.278981 69.370638 221.446714 82.822905 227.018825 
C 96.275171 232.590936 110.694216 235.459063 125.254844 235.459063 
C 139.815472 235.459063 154.234516 232.590936 167.686783 227.018825 
C 181.139049 221.446714 193.362925 213.278981 203.658844 202.983062 
C 213.954763 192.687143 222.122495 180.463268 227.694606 167.011001 
C 233.266717 153.558735 236.134844 139.139691 236.134844 124.579063 
M 125.254844 124.579063 
C 125.254844 124.579063 125.254844 124.579063 125.254844 124.579063 
C 125.254844 124.579063 125.254844 124.579063 125.254844 124.579063 
C 125.254844 124.579063 125.254844 124.579063 125.254844 124.579063 
C 125.254844 124.579063 125.254844 124.579063 125.254844 124.579063 
C 125.254844 124.579063 125.254844 124.579063 125.254844 124.579063 
C 125.254844 124.579063 125.254844 124.579063 125.254844 124.579063 
C 125.254844 124.579063 125.254844 124.579063 125.254844 124.579063 
C 125.254844 124.579063 125.254844 124.579063 125.254844 124.579063 
C 125.254844 124.579063 125.254844 124.579063 125.254844 124.579063 
C 125.254844 124.579063 125.254844 124.579063 125.254844 124.579063 
C 125.254844 124.579063 125.254844 124.579063 125.254844 124.579063 
C 125.254844 124.579063 125.254844 124.579063 125.254844 124.579063 
C 125.254844 124.579063 125.254844 124.579063 125.254844 124.579063 
C 125.254844 124.579063 125.254844 124.579063 125.254844 124.579063 
C 125.254844 124.579063 125.254844 124.579063 125.254844 124.579063 
C 125.254844 124.579063 125.254844 124.579063 125.254844 124.579063 
z
" style="fill: #ffffff"/>
   </g>
   <g id="FillBetweenPolyCollection_1">
    <defs>
     <path id="m3cf68ac041" d="M 235.37996 -137.126235 
L 234.663482 -137.044602 
L 233.932108 -135.043493 
L 232.93657 -133.053798 
L 232.075798 -131.112512 
L 231.166614 -129.20327 
L 230.00999 -127.322173 
L 229.017097 -125.484582 
L 227.781902 -123.684322 
L 226.718669 -121.922139 
L 225.417058 -120.205886 
L 224.292369 -118.521668 
L 223.139561 -116.875368 
L 221.75422 -115.287229 
L 220.550252 -113.721522 
L 219.322698 -112.194795 
L 217.86933 -110.737735 
L 216.599777 -109.293163 
L 215.31088 -107.888163 
L 214.00398 -106.522847 
L 212.680407 -105.197282 
L 211.144479 -103.958785 
L 209.793209 -102.715955 
L 208.429339 -101.512734 
L 207.054171 -100.348998 
L 205.668998 -99.224577 
L 204.462491 -98.076555 
L 203.058868 -97.027212 
L 201.648949 -96.016477 
L 200.233989 -95.043992 
L 198.99306 -94.035693 
L 197.569003 -93.135971 
L 196.143483 -92.273249 
L 194.887311 -91.366079 
L 193.4594 -90.573525 
L 192.197209 -89.731073 
L 190.931996 -88.919279 
L 189.506752 -88.227082 
L 188.241091 -87.477327 
L 186.974996 -86.756905 
L 185.709268 -86.065347 
L 184.299904 -85.497989 
L 183.040599 -84.864013 
L 181.784021 -84.257192 
L 180.530893 -83.676938 
L 179.281912 -83.122635 
L 178.16517 -82.492288 
L 176.92284 -81.987253 
L 175.686555 -81.506312 
L 174.456917 -81.048746 
L 173.234494 -80.613813 
L 172.129098 -80.097057 
L 170.918866 -79.705153 
L 169.81944 -79.2298 
L 168.623217 -78.878332 
L 167.531399 -78.442298 
L 166.350789 -78.128546 
L 165.268028 -77.729643 
L 164.104405 -77.450776 
L 163.031954 -77.086726 
L 161.963383 -76.739563 
L 160.825355 -76.508276 
L 159.768597 -76.192565 
L 158.716386 -75.892217 
L 157.668904 -75.60676 
L 156.566362 -75.429823 
L 155.531996 -75.17124 
L 154.502739 -74.92599 
L 153.478682 -74.693598 
L 152.459896 -74.473589 
L 151.446431 -74.265492 
L 150.438312 -74.06884 
L 149.435544 -73.88317 
L 148.438111 -73.708026 
L 147.445974 -73.542957 
L 146.459074 -73.387523 
L 145.477329 -73.241293 
L 144.500639 -73.103845 
L 143.528882 -72.974769 
L 142.561918 -72.85367 
L 141.618208 -72.681102 
L 140.65825 -72.578035 
L 139.702657 -72.481932 
L 138.751219 -72.392453 
L 137.803709 -72.309276 
L 136.859886 -72.232099 
L 135.927586 -72.120861 
L 134.98895 -72.058523 
L 134.053317 -72.001458 
L 133.120394 -71.94944 
L 132.193306 -71.876207 
L 131.263978 -71.83757 
L 130.336554 -71.803482 
L 129.410708 -71.773805 
L 128.48682 -71.736717 
L 127.562741 -71.719531 
L 126.63936 -71.706507 
L 125.716333 -71.697604 
L 124.793352 -71.697337 
L 123.87039 -71.708912 
L 122.947157 -71.724335 
L 122.023308 -71.743914 
L 121.099671 -71.782587 
L 120.174207 -71.814633 
L 119.247248 -71.851074 
L 118.318466 -71.892042 
L 117.391889 -71.966801 
L 116.459658 -72.021104 
L 115.524796 -72.080425 
L 114.58701 -72.144985 
L 113.646017 -72.215029 
L 112.712631 -72.336985 
L 111.766181 -72.422275 
L 110.815875 -72.513824 
L 109.861484 -72.61195 
L 108.902795 -72.71699 
L 107.939615 -72.829299 
L 106.994609 -73.013751 
L 106.024305 -73.144649 
L 105.049127 -73.283862 
L 104.068953 -73.431797 
L 103.083679 -73.588874 
L 102.093222 -73.755522 
L 101.097521 -73.932181 
L 100.096534 -74.1193 
L 99.090243 -74.317333 
L 98.078651 -74.526741 
L 97.06178 -74.747992 
L 96.039679 -74.981555 
L 95.012415 -75.227903 
L 93.980077 -75.487513 
L 92.879949 -75.665932 
L 91.834565 -75.952256 
L 90.784481 -76.253396 
L 89.729876 -76.569824 
L 88.594392 -76.802231 
L 87.528024 -77.14995 
L 86.457795 -77.514479 
L 85.296789 -77.794191 
L 84.216286 -78.193412 
L 83.038328 -78.50782 
L 81.948796 -78.94401 
L 80.755253 -79.29595 
L 79.658132 -79.771299 
L 78.450597 -80.163491 
L 77.347517 -80.680086 
L 76.127801 -81.115127 
L 74.900871 -81.572707 
L 73.667296 -82.05357 
L 72.554702 -82.659477 
L 71.313247 -83.188219 
L 70.066965 -83.74218 
L 68.816529 -84.322004 
L 67.562636 -84.928307 
L 66.306005 -85.561678 
L 65.047378 -86.222677 
L 63.63662 -86.819367 
L 62.373164 -87.538922 
L 61.110128 -88.287729 
L 59.848332 -89.066224 
L 58.425263 -89.789785 
L 57.165647 -90.631041 
L 55.740684 -91.422509 
L 54.487051 -92.328321 
L 53.06444 -93.189782 
L 51.820709 -94.161648 
L 50.40482 -95.094854 
L 48.992708 -96.065818 
L 47.770321 -97.140354 
L 46.371786 -98.185161 
L 44.980674 -99.268714 
L 43.598258 -100.39128 
L 42.225824 -101.553078 
L 40.864664 -102.754278 
L 39.516078 -103.995006 
L 38.181373 -105.275339 
L 36.861862 -106.595307 
L 35.558868 -107.954896 
L 34.071654 -109.32023 
L 32.80464 -110.762287 
L 31.558286 -112.243677 
L 30.333952 -113.764193 
L 28.927549 -115.303799 
L 27.750943 -116.905339 
L 26.600721 -118.545118 
L 25.272004 -120.213717 
L 24.179139 -121.932302 
L 22.911643 -123.685927 
L 21.883754 -125.481168 
L 20.891369 -127.311916 
L 19.734264 -129.186191 
L 18.823226 -131.088699 
L 17.761576 -133.038966 
L 16.954449 -135.007204 
L 16.027099 -137.023992 
L 15.365976 -139.046206 
L 15.365976 -139.046206 
L 15.365976 -139.046206 
L 15.236115 -137.114113 
L 14.892303 -135.205766 
L 14.757541 -133.275389 
L 14.728212 -131.339161 
L 14.481581 -129.415528 
L 14.445263 -127.480713 
L 14.441309 -125.546118 
L 14.544952 -123.612912 
L 14.427296 -121.676941 
L 14.519612 -119.744258 
L 14.643046 -117.813755 
L 14.87676 -115.892119 
L 14.885862 -113.951738 
L 15.102498 -112.028788 
L 15.431825 -110.120588 
L 15.618348 -108.193778 
L 15.928102 -106.28404 
L 16.267515 -104.379455 
L 16.636618 -102.480435 
L 17.035502 -100.587412 
L 17.4643 -98.700842 
L 17.92316 -96.821202 
L 18.412228 -94.948983 
L 19.020872 -93.111126 
L 19.570804 -91.257013 
L 20.151211 -89.411879 
L 20.76228 -87.576305 
L 21.404217 -85.750904 
L 22.164918 -83.970861 
L 22.847241 -82.160445 
L 23.582891 -80.370839 
L 24.434201 -78.632448 
L 25.233334 -76.871249 
L 26.054292 -75.119492 
L 26.925665 -73.392132 
L 27.832667 -71.683136 
L 28.775851 -69.993874 
L 29.724649 -68.307477 
L 30.756533 -66.670423 
L 31.757306 -65.014561 
L 32.807294 -63.389364 
L 33.885709 -61.782796 
L 35.012181 -60.209597 
L 36.641567 -59.008687 
L 38.451344 -57.972394 
L 40.285217 -56.991169 
L 42.070467 -56.007154 
L 43.920697 -55.113139 
L 45.718449 -54.211204 
L 47.57625 -53.399746 
L 49.375187 -52.571957 
L 51.223372 -51.828538 
L 53.016843 -51.069139 
L 54.806665 -50.342172 
L 56.591931 -49.646642 
L 58.371846 -48.981586 
L 60.145707 -48.346058 
L 61.912888 -47.739126 
L 63.634236 -47.111341 
L 65.388184 -46.559313 
L 67.133951 -46.033184 
L 68.833909 -45.47983 
L 70.563953 -45.003323 
L 72.254623 -44.504463 
L 73.935517 -44.023855 
L 75.640598 -43.615972 
L 77.31046 -43.185651 
L 78.970094 -42.771045 
L 80.626188 -42.383303 
L 82.271931 -42.009656 
L 83.913784 -41.661725 
L 85.545313 -41.326299 
L 87.17272 -41.015469 
L 88.789971 -40.715598 
L 90.402987 -40.439238 
L 91.993259 -40.13961 
L 93.590782 -39.889682 
L 95.184057 -39.661779 
L 96.758632 -39.412864 
L 98.337393 -39.207817 
L 99.902415 -38.990697 
L 101.472003 -38.820911 
L 103.027924 -38.633942 
L 104.584974 -38.48286 
L 106.132643 -38.324387 
L 107.681933 -38.205445 
L 109.222104 -38.074141 
L 110.75924 -37.95675 
L 112.295355 -37.865097 
L 113.826619 -37.773081 
L 115.355571 -37.694261 
L 116.883876 -37.643241 
L 118.408544 -37.588575 
L 119.931711 -37.546607 
L 121.453642 -37.517225 
L 122.974591 -37.499737 
L 124.49486 -37.493513 
L 126.014814 -37.495047 
L 127.53501 -37.503024 
L 129.056227 -37.513067 
L 130.578231 -37.542456 
L 132.10147 -37.584434 
L 133.626209 -37.639111 
L 135.153646 -37.698391 
L 136.682526 -37.777197 
L 138.21372 -37.869198 
L 139.751128 -37.952684 
L 141.288333 -38.070096 
L 142.828573 -38.201422 
L 144.376153 -38.328409 
L 145.923754 -38.486857 
L 147.482783 -38.629999 
L 149.038769 -38.816997 
L 150.606114 -38.994609 
L 152.17107 -39.211698 
L 153.752331 -39.409051 
L 155.326969 -39.658002 
L 156.917494 -39.893458 
L 158.517885 -40.135912 
L 160.108215 -40.43558 
L 161.718126 -40.719255 
L 163.338594 -41.011899 
L 164.962672 -41.32987 
L 166.597637 -41.658248 
L 168.235946 -42.013134 
L 169.885334 -42.379924 
L 171.53768 -42.774426 
L 173.201158 -43.182374 
L 174.867079 -43.619252 
L 176.572115 -44.027082 
L 178.257126 -44.501349 
L 179.94359 -45.006444 
L 181.673593 -45.482893 
L 183.377915 -46.03024 
L 185.123716 -46.556429 
L 186.877697 -47.108518 
L 188.594478 -47.741943 
L 190.361648 -48.348789 
L 192.135501 -48.984231 
L 193.91541 -49.649203 
L 195.700673 -50.344648 
L 197.490494 -51.071531 
L 199.283967 -51.830846 
L 201.136933 -52.569648 
L 202.93588 -53.397507 
L 204.78893 -54.213247 
L 206.586703 -55.115092 
L 208.441648 -56.005153 
L 210.226873 -56.989258 
L 212.056202 -57.974038 
L 213.8704 -59.007 
L 215.515013 -60.19711 
L 216.58833 -61.807296 
L 217.707912 -63.385711 
L 218.76787 -65.004695 
L 219.784349 -66.651307 
L 220.742182 -68.332722 
L 221.755648 -69.981534 
L 222.561205 -71.746019 
L 223.602229 -73.382654 
L 224.434113 -75.130103 
L 225.294446 -76.86262 
L 226.066369 -78.636603 
L 226.896386 -80.384062 
L 227.679019 -82.15358 
L 228.414258 -83.943489 
L 229.102166 -85.75214 
L 229.742865 -87.577914 
L 230.393495 -89.400162 
L 230.934281 -91.258464 
L 231.547984 -93.0936 
L 232.043978 -94.963815 
L 232.582041 -96.822362 
L 232.948818 -98.724027 
L 233.441607 -100.594635 
L 233.892978 -102.476384 
L 234.130212 -104.400206 
L 234.483325 -106.300483 
L 234.815443 -108.205121 
L 235.107727 -110.116656 
L 235.360776 -112.034076 
L 235.569681 -113.956952 
L 235.748283 -115.88304 
L 235.889262 -117.812372 
L 235.992268 -119.744162 
L 236.061252 -121.677495 
L 236.09491 -123.611776 
L 236.093492 -125.546337 
L 236.057335 -127.480528 
L 235.988496 -129.413798 
L 235.884818 -131.345482 
L 235.748344 -133.27509 
L 235.579822 -135.20215 
L 235.37996 -137.126235 
z
" style="stroke: #ffee9c"/>
    </defs>
    <g clip-path="url(#ped440bd7d1)">
     <use xlink:href="#m3cf68ac041" x="0" y="249.158125" style="fill: #ffee9c; stroke: #ffee9c"/>
    </g>
   </g>
   <g id="matplotlib.axis_1">
    <g id="xtick_1">
     <g id="line2d_1">
      <path d="M 125.254844 124.579063 
L 125.254844 13.699063 
" clip-path="url(#ped440bd7d1)" style="fill: none; stroke: #b0b0b0; stroke-width: 0.8; stroke-linecap: square"/>
     </g>
     <g id="text_1">
      <!-- N -->
      <g transform="translate(121.070469 7.958438) scale(0.1 -0.1)">
       <defs>
        <path id="DejaVuSans-Bold-4e" d="M 588 4666 
L 1931 4666 
L 3628 1466 
L 3628 4666 
L 4769 4666 
L 4769 0 
L 3425 0 
L 1728 3200 
L 1728 0 
L 588 0 
L 588 4666 
z
" transform="scale(0.015625)"/>
       </defs>
       <use xlink:href="#DejaVuSans-Bold-4e"/>
      </g>
     </g>
    </g>
    <g id="xtick_2">
     <g id="line2d_2">
      <path d="M 125.254844 124.579063 
L 203.658844 46.175063 
" clip-path="url(#ped440bd7d1)" style="fill: none; stroke: #b0b0b0; stroke-width: 0.8; stroke-linecap: square"/>
     </g>
    </g>
    <g id="xtick_3">
     <g id="line2d_3">
      <path d="M 125.254844 124.579063 
L 236.134844 124.579063 
" clip-path="url(#ped440bd7d1)" style="fill: none; stroke: #b0b0b0; stroke-width: 0.8; stroke-linecap: square"/>
     </g>
     <g id="text_2">
      <!-- E -->
      <g transform="translate(241.219219 127.338438) scale(0.1 -0.1)">
       <defs>
        <path id="DejaVuSans-Bold-45" d="M 588 4666 
L 3834 4666 
L 3834 3756 
L 1791 3756 
L 1791 2888 
L 3713 2888 
L 3713 1978 
L 1791 1978 
L 1791 909 
L 3903 909 
L 3903 0 
L 588 0 
L 588 4666 
z
" transform="scale(0.015625)"/>
       </defs>
       <use xlink:href="#DejaVuSans-Bold-45"/>
      </g>
     </g>
    </g>
    <g id="xtick_4">
     <g id="line2d_4">
      <path d="M 125.254844 124.579063 
L 203.658844 202.983062 
" clip-path="url(#ped440bd7d1)" style="fill: none; stroke: #b0b0b0; stroke-width: 0.8; stroke-linecap: square"/>
     </g>
    </g>
    <g id="xtick_5">
     <g id="line2d_5">
      <path d="M 125.254844 124.579063 
L 125.254844 235.459063 
" clip-path="url(#ped440bd7d1)" style="fill: none; stroke: #b0b0b0; stroke-width: 0.8; stroke-linecap: square"/>
     </g>
     <g id="text_3">
      <!-- S -->
      <g transform="translate(121.654062 246.718438) scale(0.1 -0.1)">
       <defs>
        <path id="DejaVuSans-Bold-53" d="M 3834 4519 
L 3834 3531 
Q 3450 3703 3084 3790 
Q 2719 3878 2394 3878 
Q 1963 3878 1756 3759 
Q 1550 3641 1550 3391 
Q 1550 3203 1689 3098 
Q 1828 2994 2194 2919 
L 2706 2816 
Q 3484 2659 3812 2340 
Q 4141 2022 4141 1434 
Q 4141 663 3683 286 
Q 3225 -91 2284 -91 
Q 1841 -91 1394 -6 
Q 947 78 500 244 
L 500 1259 
Q 947 1022 1364 901 
Q 1781 781 2169 781 
Q 2563 781 2772 912 
Q 2981 1044 2981 1288 
Q 2981 1506 2839 1625 
Q 2697 1744 2272 1838 
L 1806 1941 
Q 1106 2091 782 2419 
Q 459 2747 459 3303 
Q 459 4000 909 4375 
Q 1359 4750 2203 4750 
Q 2588 4750 2994 4692 
Q 3400 4634 3834 4519 
z
" transform="scale(0.015625)"/>
       </defs>
       <use xlink:href="#DejaVuSans-Bold-53"/>
      </g>
     </g>
    </g>
    <g id="xtick_6">
     <g id="line2d_6">
      <path d="M 125.254844 124.579063 
L 46.850844 202.983062 
" clip-path="url(#ped440bd7d1)" style="fill: none; stroke: #b0b0b0; stroke-width: 0.8; stroke-linecap: square"/>
     </g>
    </g>
    <g id="xtick_7">
     <g id="line2d_7">
      <path d="M 125.254844 124.579063 
L 14.374844 124.579063 
" clip-path="url(#ped440bd7d1)" style="fill: none; stroke: #b0b0b0; stroke-width: 0.8; stroke-linecap: square"/>
     </g>
     <g id="text_4">
      <!-- W -->
      <g transform="translate(0.36 127.338438) scale(0.1 -0.1)">
       <defs>
        <path id="DejaVuSans-Bold-57" d="M 191 4666 
L 1344 4666 
L 2150 1275 
L 2950 4666 
L 4109 4666 
L 4909 1275 
L 5716 4666 
L 6859 4666 
L 5759 0 
L 4372 0 
L 3525 3547 
L 2688 0 
L 1300 0 
L 191 4666 
z
" transform="scale(0.015625)"/>
       </defs>
       <use xlink:href="#DejaVuSans-Bold-57"/>
      </g>
     </g>
    </g>
    <g id="xtick_8">
     <g id="line2d_8">
      <path d="M 125.254844 124.579063 
L 46.850844 46.175063 
" clip-path="url(#ped440bd7d1)" style="fill: none; stroke: #b0b0b0; stroke-width: 0.8; stroke-linecap: square"/>
     </g>
    </g>
   </g>
   <g id="matplotlib.axis_2"/>
   <g id="patch_3">
    <path d="M 125.254844 124.579063 
C 125.254844 124.579063 125.254844 124.579063 125.254844 124.579063 
C 125.254844 124.579063 125.254844 124.579063 125.254844 124.579063 
L 125.254844 124.579063 
C 125.254844 124.579063 125.254844 124.579063 125.254844 124.579063 
C 125.254844 124.579063 125.254844 124.579063 125.254844 124.579063 
z
" clip-path="url(#ped440bd7d1)" style="fill: #d9d9d9"/>
   </g>
   <g id="patch_4">
    <path d="M 125.254844 124.579063 
C 125.254844 124.579063 125.254844 124.579063 125.254844 124.579063 
C 125.254844 124.579063 125.254844 124.579063 125.254844 124.579063 
L 125.254844 124.579063 
C 125.254844 124.579063 125.254844 124.579063 125.254844 124.579063 
C 125.254844 124.579063 125.254844 124.579063 125.254844 124.579063 
z
" clip-path="url(#ped440bd7d1)" style="fill: #d9d9d9"/>
   </g>
   <g id="patch_5">
    <path d="M 125.254844 124.579063 
C 125.254844 124.579063 125.254844 124.579063 125.254844 124.579063 
C 125.254844 124.579063 125.254844 124.579063 125.254844 124.579063 
L 125.254844 124.579063 
C 125.254844 124.579063 125.254844 124.579063 125.254844 124.579063 
C 125.254844 124.579063 125.254844 124.579063 125.254844 124.579063 
z
" clip-path="url(#ped440bd7d1)" style="fill: #d9d9d9"/>
   </g>
   <g id="patch_6">
    <path d="M 125.254844 124.579063 
C 125.254844 124.579063 125.254844 124.579063 125.254844 124.579063 
C 125.254844 124.579063 125.254844 124.579063 125.254844 124.579063 
L 125.254844 124.579063 
C 125.254844 124.579063 125.254844 124.579063 125.254844 124.579063 
C 125.254844 124.579063 125.254844 124.579063 125.254844 124.579063 
z
" clip-path="url(#ped440bd7d1)" style="fill: #d9d9d9"/>
   </g>
   <g id="patch_7">
    <path d="M 125.254844 124.579063 
C 125.254844 124.579063 125.254844 124.579063 125.254844 124.579063 
C 125.254844 124.579063 125.254844 124.579063 125.254844 124.579063 
L 125.254844 124.579063 
C 125.254844 124.579063 125.254844 124.579063 125.254844 124.579063 
C 125.254844 124.579063 125.254844 124.579063 125.254844 124.579063 
z
" clip-path="url(#ped440bd7d1)" style="fill: #d9d9d9"/>
   </g>
   <g id="patch_8">
    <path d="M 125.254844 124.579063 
C 125.254844 124.579063 125.254844 124.579063 125.254844 124.579063 
C 125.254844 124.579063 125.254844 124.579063 125.254844 124.579063 
L 125.254844 124.579063 
C 125.254844 124.579063 125.254844 124.579063 125.254844 124.579063 
C 125.254844 124.579063 125.254844 124.579063 125.254844 124.579063 
z
" clip-path="url(#ped440bd7d1)" style="fill: #d9d9d9"/>
   </g>
   <g id="patch_9">
    <path d="M 125.254844 124.579063 
C 125.254844 124.579063 125.254844 124.579063 125.254844 124.579063 
C 125.254844 124.579063 125.254844 124.579063 125.254844 124.579063 
L 125.254844 124.579063 
C 125.254844 124.579063 125.254844 124.579063 125.254844 124.579063 
C 125.254844 124.579063 125.254844 124.579063 125.254844 124.579063 
z
" clip-path="url(#ped440bd7d1)" style="fill: #d9d9d9"/>
   </g>
   <g id="patch_10">
    <path d="M 125.254844 124.579063 
C 125.254844 124.579063 125.254844 124.579063 125.254844 124.579063 
C 125.254844 124.579063 125.254844 124.579063 125.254844 124.579063 
L 125.254844 124.579063 
C 125.254844 124.579063 125.254844 124.579063 125.254844 124.579063 
C 125.254844 124.579063 125.254844 124.579063 125.254844 124.579063 
z
" clip-path="url(#ped440bd7d1)" style="fill: #d9d9d9"/>
   </g>
   <g id="patch_11">
    <path d="M 125.254844 124.579063 
C 125.254844 124.579063 125.254844 124.579063 125.254844 124.579063 
C 125.254844 124.579063 125.254844 124.579063 125.254844 124.579063 
L 125.254844 124.579063 
C 125.254844 124.579063 125.254844 124.579063 125.254844 124.579063 
C 125.254844 124.579063 125.254844 124.579063 125.254844 124.579063 
z
" clip-path="url(#ped440bd7d1)" style="fill: #d9d9d9"/>
   </g>
   <g id="patch_12">
    <path d="M 125.254844 124.579063 
C 125.254844 124.579063 125.254844 124.579063 125.254844 124.579063 
C 125.254844 124.579063 125.254844 124.579063 125.254844 124.579063 
L 125.254844 124.579063 
C 125.254844 124.579063 125.254844 124.579063 125.254844 124.579063 
C 125.254844 124.579063 125.254844 124.579063 125.254844 124.579063 
z
" clip-path="url(#ped440bd7d1)" style="fill: #d9d9d9"/>
   </g>
   <g id="patch_13">
    <path d="M 125.254844 124.579063 
C 125.254844 124.579063 125.254844 124.579063 125.254844 124.579063 
C 125.254844 124.579063 125.254844 124.579063 125.254844 124.579063 
L 125.254844 124.579063 
C 125.254844 124.579063 125.254844 124.579063 125.254844 124.579063 
C 125.254844 124.579063 125.254844 124.579063 125.254844 124.579063 
z
" clip-path="url(#ped440bd7d1)" style="fill: #d9d9d9"/>
   </g>
   <g id="patch_14">
    <path d="M 125.254844 124.579063 
C 125.254844 124.579063 125.254844 124.579063 125.254844 124.579063 
C 125.254844 124.579063 125.254844 124.579063 125.254844 124.579063 
L 125.254844 124.579063 
C 125.254844 124.579063 125.254844 124.579063 125.254844 124.579063 
C 125.254844 124.579063 125.254844 124.579063 125.254844 124.579063 
z
" clip-path="url(#ped440bd7d1)" style="fill: #d9d9d9"/>
   </g>
   <g id="patch_15">
    <path d="M 125.254844 124.579063 
C 125.254844 124.579063 125.254844 124.579063 125.254844 124.579063 
C 125.254844 124.579063 125.254844 124.579063 125.254844 124.579063 
L 125.254844 124.579063 
C 125.254844 124.579063 125.254844 124.579063 125.254844 124.579063 
C 125.254844 124.579063 125.254844 124.579063 125.254844 124.579063 
z
" clip-path="url(#ped440bd7d1)" style="fill: #d9d9d9"/>
   </g>
   <g id="patch_16">
    <path d="M 125.254844 124.579063 
C 125.254844 124.579063 125.254844 124.579063 125.254844 124.579063 
C 125.254844 124.579063 125.254844 124.579063 125.254844 124.579063 
L 125.254844 124.579063 
C 125.254844 124.579063 125.254844 124.579063 125.254844 124.579063 
C 125.254844 124.579063 125.254844 124.579063 125.254844 124.579063 
z
" clip-path="url(#ped440bd7d1)" style="fill: #d9d9d9"/>
   </g>
   <g id="patch_17">
    <path d="M 125.254844 124.579063 
C 125.254844 124.579063 125.254844 124.579063 125.254844 124.579063 
C 125.254844 124.579063 125.254844 124.579063 125.254844 124.579063 
L 125.254844 124.579063 
C 125.254844 124.579063 125.254844 124.579063 125.254844 124.579063 
C 125.254844 124.579063 125.254844 124.579063 125.254844 124.579063 
z
" clip-path="url(#ped440bd7d1)" style="fill: #d9d9d9"/>
   </g>
   <g id="patch_18">
    <path d="M 125.254844 124.579063 
C 125.254844 124.579063 125.254844 124.579063 125.254844 124.579063 
C 125.254844 124.579063 125.254844 124.579063 125.254844 124.579063 
L 125.254844 124.579063 
C 125.254844 124.579063 125.254844 124.579063 125.254844 124.579063 
C 125.254844 124.579063 125.254844 124.579063 125.254844 124.579063 
z
" clip-path="url(#ped440bd7d1)" style="fill: #d9d9d9"/>
   </g>
   <g id="patch_19">
    <path d="M 125.254844 124.579063 
C 125.254844 124.579063 125.254844 124.579063 125.254844 124.579063 
C 125.254844 124.579063 125.254844 124.579063 125.254844 124.579063 
L 125.254844 124.579063 
C 125.254844 124.579063 125.254844 124.579063 125.254844 124.579063 
C 125.254844 124.579063 125.254844 124.579063 125.254844 124.579063 
z
" clip-path="url(#ped440bd7d1)" style="fill: #d9d9d9"/>
   </g>
   <g id="patch_20">
    <path d="M 125.254844 124.579063 
C 125.254844 124.579063 125.254844 124.579063 125.254844 124.579063 
C 125.254844 124.579063 125.254844 124.579063 125.254844 124.579063 
L 125.254844 124.579063 
C 125.254844 124.579063 125.254844 124.579063 125.254844 124.579063 
C 125.254844 124.579063 125.254844 124.579063 125.254844 124.579063 
z
" clip-path="url(#ped440bd7d1)" style="fill: #d9d9d9"/>
   </g>
   <g id="patch_21">
    <path d="M 125.254844 124.579063 
C 125.254844 124.579063 125.254844 124.579063 125.254844 124.579063 
C 125.254844 124.579063 125.254844 124.579063 125.254844 124.579063 
L 125.254844 124.579063 
C 125.254844 124.579063 125.254844 124.579063 125.254844 124.579063 
C 125.254844 124.579063 125.254844 124.579063 125.254844 124.579063 
z
" clip-path="url(#ped440bd7d1)" style="fill: #d9d9d9"/>
   </g>
   <g id="patch_22">
    <path d="M 125.254844 124.579063 
C 125.254844 124.579063 125.254844 124.579063 125.254844 124.579063 
C 125.254844 124.579063 125.254844 124.579063 125.254844 124.579063 
L 125.254844 124.579063 
C 125.254844 124.579063 125.254844 124.579063 125.254844 124.579063 
C 125.254844 124.579063 125.254844 124.579063 125.254844 124.579063 
z
" clip-path="url(#ped440bd7d1)" style="fill: #d9d9d9"/>
   </g>
   <g id="patch_23">
    <path d="M 125.254844 124.579063 
C 125.254844 124.579063 125.254844 124.579063 125.254844 124.579063 
C 125.254844 124.579063 125.254844 124.579063 125.254844 124.579063 
L 125.254844 124.579063 
C 125.254844 124.579063 125.254844 124.579063 125.254844 124.579063 
C 125.254844 124.579063 125.254844 124.579063 125.254844 124.579063 
z
" clip-path="url(#ped440bd7d1)" style="fill: #d9d9d9"/>
   </g>
   <g id="patch_24">
    <path d="M 125.254844 124.579063 
C 125.254844 124.579063 125.254844 124.579063 125.254844 124.579063 
C 125.254844 124.579063 125.254844 124.579063 125.254844 124.579063 
L 125.254844 124.579063 
C 125.254844 124.579063 125.254844 124.579063 125.254844 124.579063 
C 125.254844 124.579063 125.254844 124.579063 125.254844 124.579063 
z
" clip-path="url(#ped440bd7d1)" style="fill: #d9d9d9"/>
   </g>
   <g id="patch_25">
    <path d="M 125.254844 124.579063 
C 125.254844 124.579063 125.254844 124.579063 125.254844 124.579063 
C 125.254844 124.579063 125.254844 124.579063 125.254844 124.579063 
L 125.254844 124.579063 
C 125.254844 124.579063 125.254844 124.579063 125.254844 124.579063 
C 125.254844 124.579063 125.254844 124.579063 125.254844 124.579063 
z
" clip-path="url(#ped440bd7d1)" style="fill: #d9d9d9"/>
   </g>
   <g id="patch_26">
    <path d="M 125.254844 124.579063 
C 125.254844 124.579063 125.254844 124.579063 125.254844 124.579063 
C 125.254844 124.579063 125.254844 124.579063 125.254844 124.579063 
L 125.254844 124.579063 
C 125.254844 124.579063 125.254844 124.579063 125.254844 124.579063 
C 125.254844 124.579063 125.254844 124.579063 125.254844 124.579063 
z
" clip-path="url(#ped440bd7d1)" style="fill: #d9d9d9"/>
   </g>
   <g id="patch_27">
    <path d="M 125.254844 124.579063 
C 125.254844 124.579063 125.254844 124.579063 125.254844 124.579063 
C 125.254844 124.579063 125.254844 124.579063 125.254844 124.579063 
L 125.254844 124.579063 
C 125.254844 124.579063 125.254844 124.579063 125.254844 124.579063 
C 125.254844 124.579063 125.254844 124.579063 125.254844 124.579063 
z
" clip-path="url(#ped440bd7d1)" style="fill: #d9d9d9"/>
   </g>
   <g id="patch_28">
    <path d="M 125.254844 124.579063 
C 125.254844 124.579063 125.254844 124.579063 125.254844 124.579063 
C 125.254844 124.579063 125.254844 124.579063 125.254844 124.579063 
L 125.254844 124.579063 
C 125.254844 124.579063 125.254844 124.579063 125.254844 124.579063 
C 125.254844 124.579063 125.254844 124.579063 125.254844 124.579063 
z
" clip-path="url(#ped440bd7d1)" style="fill: #d9d9d9"/>
   </g>
   <g id="patch_29">
    <path d="M 125.254844 124.579063 
C 125.254844 124.579063 125.254844 124.579063 125.254844 124.579063 
C 125.254844 124.579063 125.254844 124.579063 125.254844 124.579063 
L 125.254844 124.579063 
C 125.254844 124.579063 125.254844 124.579063 125.254844 124.579063 
C 125.254844 124.579063 125.254844 124.579063 125.254844 124.579063 
z
" clip-path="url(#ped440bd7d1)" style="fill: #d9d9d9"/>
   </g>
   <g id="patch_30">
    <path d="M 125.254844 124.579063 
C 125.254844 124.579063 125.254844 124.579063 125.254844 124.579063 
C 125.254844 124.579063 125.254844 124.579063 125.254844 124.579063 
L 125.254844 124.579063 
C 125.254844 124.579063 125.254844 124.579063 125.254844 124.579063 
C 125.254844 124.579063 125.254844 124.579063 125.254844 124.579063 
z
" clip-path="url(#ped440bd7d1)" style="fill: #d9d9d9"/>
   </g>
   <g id="patch_31">
    <path d="M 125.254844 124.579063 
C 125.254844 124.579063 125.254844 124.579063 125.254844 124.579063 
C 125.254844 124.579063 125.254844 124.579063 125.254844 124.579063 
L 125.254844 124.579063 
C 125.254844 124.579063 125.254844 124.579063 125.254844 124.579063 
C 125.254844 124.579063 125.254844 124.579063 125.254844 124.579063 
z
" clip-path="url(#ped440bd7d1)" style="fill: #d9d9d9"/>
   </g>
   <g id="patch_32">
    <path d="M 125.254844 124.579063 
C 125.254844 124.579063 125.254844 124.579063 125.254844 124.579063 
C 125.254844 124.579063 125.254844 124.579063 125.254844 124.579063 
L 125.254844 124.579063 
C 125.254844 124.579063 125.254844 124.579063 125.254844 124.579063 
C 125.254844 124.579063 125.254844 124.579063 125.254844 124.579063 
z
" clip-path="url(#ped440bd7d1)" style="fill: #d9d9d9"/>
   </g>
   <g id="patch_33">
    <path d="M 125.254844 124.579063 
C 125.254844 124.579063 125.254844 124.579063 125.254844 124.579063 
C 125.254844 124.579063 125.254844 124.579063 125.254844 124.579063 
L 125.254844 124.579063 
C 125.254844 124.579063 125.254844 124.579063 125.254844 124.579063 
C 125.254844 124.579063 125.254844 124.579063 125.254844 124.579063 
z
" clip-path="url(#ped440bd7d1)" style="fill: #d9d9d9"/>
   </g>
   <g id="patch_34">
    <path d="M 125.254844 124.579063 
C 125.254844 124.579063 125.254844 124.579063 125.254844 124.579063 
C 125.254844 124.579063 125.254844 124.579063 125.254844 124.579063 
L 125.254844 124.579063 
C 125.254844 124.579063 125.254844 124.579063 125.254844 124.579063 
C 125.254844 124.579063 125.254844 124.579063 125.254844 124.579063 
z
" clip-path="url(#ped440bd7d1)" style="fill: #d9d9d9"/>
   </g>
   <g id="patch_35">
    <path d="M 125.254844 124.579063 
C 125.254844 124.579063 125.254844 124.579063 125.254844 124.579063 
C 125.254844 124.579063 125.254844 124.579063 125.254844 124.579063 
L 130.440237 71.930879 
C 128.716984 71.761153 126.986435 71.676137 125.254844 71.676137 
C 123.523252 71.676137 121.792704 71.761153 120.06945 71.930879 
z
" clip-path="url(#ped440bd7d1)" style="fill: #a1a1d8"/>
   </g>
   <g id="patch_36">
    <path d="M 125.254844 124.579063 
C 125.254844 124.579063 125.254844 124.579063 125.254844 124.579063 
C 125.254844 124.579063 125.254844 124.579063 125.254844 124.579063 
L 140.053131 75.795648 
C 138.456377 75.311278 136.836804 74.905596 135.200262 74.580067 
C 133.56372 74.254539 131.912183 74.009556 130.251614 73.846005 
z
" clip-path="url(#ped440bd7d1)" style="fill: #a1a1d8"/>
   </g>
   <g id="patch_37">
    <path d="M 125.254844 124.579063 
C 125.254844 124.579063 125.254844 124.579063 125.254844 124.579063 
C 125.254844 124.579063 125.254844 124.579063 125.254844 124.579063 
L 155.22691 68.50527 
C 153.391531 67.52424 151.509093 66.633913 149.586394 65.837505 
C 147.663695 65.041097 145.703053 64.339568 143.711551 63.735452 
z
" clip-path="url(#ped440bd7d1)" style="fill: #a1a1d8"/>
   </g>
   <g id="patch_38">
    <path d="M 125.254844 124.579063 
C 125.254844 124.579063 125.254844 124.579063 125.254844 124.579063 
C 125.254844 124.579063 125.254844 124.579063 125.254844 124.579063 
L 125.254844 124.579063 
C 125.254844 124.579063 125.254844 124.579063 125.254844 124.579063 
C 125.254844 124.579063 125.254844 124.579063 125.254844 124.579063 
z
" clip-path="url(#ped440bd7d1)" style="fill: #a1a1d8"/>
   </g>
   <g id="patch_39">
    <path d="M 125.254844 124.579063 
C 125.254844 124.579063 125.254844 124.579063 125.254844 124.579063 
C 125.254844 124.579063 125.254844 124.579063 125.254844 124.579063 
L 145.042337 108.339886 
C 144.510805 107.692212 143.947794 107.071025 143.355338 106.478569 
C 142.762881 105.886112 142.141694 105.323101 141.49402 104.791569 
z
" clip-path="url(#ped440bd7d1)" style="fill: #a1a1d8"/>
   </g>
   <g id="patch_40">
    <path d="M 125.254844 124.579063 
C 125.254844 124.579063 125.254844 124.579063 125.254844 124.579063 
C 125.254844 124.579063 125.254844 124.579063 125.254844 124.579063 
L 152.351686 110.095498 
C 151.877618 109.208578 151.360289 108.345468 150.80157 107.509286 
C 150.242851 106.673103 149.643414 105.864856 149.005425 105.087464 
z
" clip-path="url(#ped440bd7d1)" style="fill: #a1a1d8"/>
   </g>
   <g id="patch_41">
    <path d="M 125.254844 124.579063 
C 125.254844 124.579063 125.254844 124.579063 125.254844 124.579063 
C 125.254844 124.579063 125.254844 124.579063 125.254844 124.579063 
L 155.170988 115.504099 
C 154.873951 114.524899 154.529017 113.560873 154.137431 112.615503 
C 153.745846 111.670133 153.308082 110.744558 152.82572 109.842122 
z
" clip-path="url(#ped440bd7d1)" style="fill: #a1a1d8"/>
   </g>
   <g id="patch_42">
    <path d="M 125.254844 124.579063 
C 125.254844 124.579063 125.254844 124.579063 125.254844 124.579063 
C 125.254844 124.579063 125.254844 124.579063 125.254844 124.579063 
L 125.254844 124.579063 
C 125.254844 124.579063 125.254844 124.579063 125.254844 124.579063 
C 125.254844 124.579063 125.254844 124.579063 125.254844 124.579063 
z
" clip-path="url(#ped440bd7d1)" style="fill: #a1a1d8"/>
   </g>
   <g id="patch_43">
    <path d="M 125.254844 124.579063 
C 125.254844 124.579063 125.254844 124.579063 125.254844 124.579063 
C 125.254844 124.579063 125.254844 124.579063 125.254844 124.579063 
L 125.254844 124.579063 
C 125.254844 124.579063 125.254844 124.579063 125.254844 124.579063 
C 125.254844 124.579063 125.254844 124.579063 125.254844 124.579063 
z
" clip-path="url(#ped440bd7d1)" style="fill: #a1a1d8"/>
   </g>
   <g id="patch_44">
    <path d="M 125.254844 124.579063 
C 125.254844 124.579063 125.254844 124.579063 125.254844 124.579063 
C 125.254844 124.579063 125.254844 124.579063 125.254844 124.579063 
L 125.254844 124.579063 
C 125.254844 124.579063 125.254844 124.579063 125.254844 124.579063 
C 125.254844 124.579063 125.254844 124.579063 125.254844 124.579063 
z
" clip-path="url(#ped440bd7d1)" style="fill: #a1a1d8"/>
   </g>
   <g id="patch_45">
    <path d="M 125.254844 124.579063 
C 125.254844 124.579063 125.254844 124.579063 125.254844 124.579063 
C 125.254844 124.579063 125.254844 124.579063 125.254844 124.579063 
L 125.254844 124.579063 
C 125.254844 124.579063 125.254844 124.579063 125.254844 124.579063 
C 125.254844 124.579063 125.254844 124.579063 125.254844 124.579063 
z
" clip-path="url(#ped440bd7d1)" style="fill: #a1a1d8"/>
   </g>
   <g id="patch_46">
    <path d="M 125.254844 124.579063 
C 125.254844 124.579063 125.254844 124.579063 125.254844 124.579063 
C 125.254844 124.579063 125.254844 124.579063 125.254844 124.579063 
L 125.254844 124.579063 
C 125.254844 124.579063 125.254844 124.579063 125.254844 124.579063 
C 125.254844 124.579063 125.254844 124.579063 125.254844 124.579063 
z
" clip-path="url(#ped440bd7d1)" style="fill: #a1a1d8"/>
   </g>
   <g id="patch_47">
    <path d="M 125.254844 124.579063 
C 125.254844 124.579063 125.254844 124.579063 125.254844 124.579063 
C 125.254844 124.579063 125.254844 124.579063 125.254844 124.579063 
L 125.254844 124.579063 
C 125.254844 124.579063 125.254844 124.579063 125.254844 124.579063 
C 125.254844 124.579063 125.254844 124.579063 125.254844 124.579063 
z
" clip-path="url(#ped440bd7d1)" style="fill: #a1a1d8"/>
   </g>
   <g id="patch_48">
    <path d="M 125.254844 124.579063 
C 125.254844 124.579063 125.254844 124.579063 125.254844 124.579063 
C 125.254844 124.579063 125.254844 124.579063 125.254844 124.579063 
L 126.825807 127.518128 
C 126.922007 127.466708 127.015624 127.410596 127.106321 127.349994 
C 127.197018 127.289392 127.284684 127.224374 127.369004 127.155175 
z
" clip-path="url(#ped440bd7d1)" style="fill: #a1a1d8"/>
   </g>
   <g id="patch_49">
    <path d="M 125.254844 124.579063 
C 125.254844 124.579063 125.254844 124.579063 125.254844 124.579063 
C 125.254844 124.579063 125.254844 124.579063 125.254844 124.579063 
L 125.254844 124.579063 
C 125.254844 124.579063 125.254844 124.579063 125.254844 124.579063 
C 125.254844 124.579063 125.254844 124.579063 125.254844 124.579063 
z
" clip-path="url(#ped440bd7d1)" style="fill: #a1a1d8"/>
   </g>
   <g id="patch_50">
    <path d="M 125.254844 124.579063 
C 125.254844 124.579063 125.254844 124.579063 125.254844 124.579063 
C 125.254844 124.579063 125.254844 124.579063 125.254844 124.579063 
L 125.254844 124.579063 
C 125.254844 124.579063 125.254844 124.579063 125.254844 124.579063 
C 125.254844 124.579063 125.254844 124.579063 125.254844 124.579063 
z
" clip-path="url(#ped440bd7d1)" style="fill: #a1a1d8"/>
   </g>
   <g id="patch_51">
    <path d="M 125.254844 124.579063 
C 125.254844 124.579063 125.254844 124.579063 125.254844 124.579063 
C 125.254844 124.579063 125.254844 124.579063 125.254844 124.579063 
L 125.254844 124.579063 
C 125.254844 124.579063 125.254844 124.579063 125.254844 124.579063 
C 125.254844 124.579063 125.254844 124.579063 125.254844 124.579063 
z
" clip-path="url(#ped440bd7d1)" style="fill: #a1a1d8"/>
   </g>
   <g id="patch_52">
    <path d="M 125.254844 124.579063 
C 125.254844 124.579063 125.254844 124.579063 125.254844 124.579063 
C 125.254844 124.579063 125.254844 124.579063 125.254844 124.579063 
L 125.254844 124.579063 
C 125.254844 124.579063 125.254844 124.579063 125.254844 124.579063 
C 125.254844 124.579063 125.254844 124.579063 125.254844 124.579063 
z
" clip-path="url(#ped440bd7d1)" style="fill: #a1a1d8"/>
   </g>
   <g id="patch_53">
    <path d="M 125.254844 124.579063 
C 125.254844 124.579063 125.254844 124.579063 125.254844 124.579063 
C 125.254844 124.579063 125.254844 124.579063 125.254844 124.579063 
L 125.254844 124.579063 
C 125.254844 124.579063 125.254844 124.579063 125.254844 124.579063 
C 125.254844 124.579063 125.254844 124.579063 125.254844 124.579063 
z
" clip-path="url(#ped440bd7d1)" style="fill: #a1a1d8"/>
   </g>
   <g id="patch_54">
    <path d="M 125.254844 124.579063 
C 125.254844 124.579063 125.254844 124.579063 125.254844 124.579063 
C 125.254844 124.579063 125.254844 124.579063 125.254844 124.579063 
L 125.254844 124.579063 
C 125.254844 124.579063 125.254844 124.579063 125.254844 124.579063 
C 125.254844 124.579063 125.254844 124.579063 125.254844 124.579063 
z
" clip-path="url(#ped440bd7d1)" style="fill: #a1a1d8"/>
   </g>
   <g id="patch_55">
    <path d="M 125.254844 124.579063 
C 125.254844 124.579063 125.254844 124.579063 125.254844 124.579063 
C 125.254844 124.579063 125.254844 124.579063 125.254844 124.579063 
L 125.254844 124.579063 
C 125.254844 124.579063 125.254844 124.579063 125.254844 124.579063 
C 125.254844 124.579063 125.254844 124.579063 125.254844 124.579063 
z
" clip-path="url(#ped440bd7d1)" style="fill: #a1a1d8"/>
   </g>
   <g id="patch_56">
    <path d="M 125.254844 124.579063 
C 125.254844 124.579063 125.254844 124.579063 125.254844 124.579063 
C 125.254844 124.579063 125.254844 124.579063 125.254844 124.579063 
L 125.254844 124.579063 
C 125.254844 124.579063 125.254844 124.579063 125.254844 124.579063 
C 125.254844 124.579063 125.254844 124.579063 125.254844 124.579063 
z
" clip-path="url(#ped440bd7d1)" style="fill: #a1a1d8"/>
   </g>
   <g id="patch_57">
    <path d="M 125.254844 124.579063 
C 125.254844 124.579063 125.254844 124.579063 125.254844 124.579063 
C 125.254844 124.579063 125.254844 124.579063 125.254844 124.579063 
L 125.254844 124.579063 
C 125.254844 124.579063 125.254844 124.579063 125.254844 124.579063 
C 125.254844 124.579063 125.254844 124.579063 125.254844 124.579063 
z
" clip-path="url(#ped440bd7d1)" style="fill: #a1a1d8"/>
   </g>
   <g id="patch_58">
    <path d="M 125.254844 124.579063 
C 125.254844 124.579063 125.254844 124.579063 125.254844 124.579063 
C 125.254844 124.579063 125.254844 124.579063 125.254844 124.579063 
L 79.180222 129.117017 
C 79.328756 130.625108 79.551243 132.124997 79.846881 133.611268 
C 80.142518 135.097538 80.51095 136.568398 80.950843 138.018534 
z
" clip-path="url(#ped440bd7d1)" style="fill: #a1a1d8"/>
   </g>
   <g id="patch_59">
    <path d="M 125.254844 124.579063 
C 125.254844 124.579063 125.254844 124.579063 125.254844 124.579063 
C 125.254844 124.579063 125.254844 124.579063 125.254844 124.579063 
L 66.579549 118.80005 
C 66.390393 120.72058 66.295645 122.64924 66.295645 124.579062 
C 66.295645 126.508885 66.390393 128.437545 66.579549 130.358075 
z
" clip-path="url(#ped440bd7d1)" style="fill: #a1a1d8"/>
   </g>
   <g id="patch_60">
    <path d="M 125.254844 124.579063 
C 125.254844 124.579063 125.254844 124.579063 125.254844 124.579063 
C 125.254844 124.579063 125.254844 124.579063 125.254844 124.579063 
L 85.168835 112.419105 
C 84.770821 113.73118 84.437467 115.062005 84.169976 116.406774 
C 83.902484 117.751543 83.701179 119.108635 83.566786 120.473147 
z
" clip-path="url(#ped440bd7d1)" style="fill: #a1a1d8"/>
   </g>
   <g id="patch_61">
    <path d="M 125.254844 124.579063 
C 125.254844 124.579063 125.254844 124.579063 125.254844 124.579063 
C 125.254844 124.579063 125.254844 124.579063 125.254844 124.579063 
L 99.801792 110.974123 
C 99.356482 111.807239 98.952344 112.661717 98.590838 113.53447 
C 98.229332 114.407223 97.910894 115.297198 97.636673 116.201182 
z
" clip-path="url(#ped440bd7d1)" style="fill: #a1a1d8"/>
   </g>
   <g id="patch_62">
    <path d="M 125.254844 124.579063 
C 125.254844 124.579063 125.254844 124.579063 125.254844 124.579063 
C 125.254844 124.579063 125.254844 124.579063 125.254844 124.579063 
L 125.254844 124.579063 
C 125.254844 124.579063 125.254844 124.579063 125.254844 124.579063 
C 125.254844 124.579063 125.254844 124.579063 125.254844 124.579063 
z
" clip-path="url(#ped440bd7d1)" style="fill: #a1a1d8"/>
   </g>
   <g id="patch_63">
    <path d="M 125.254844 124.579063 
C 125.254844 124.579063 125.254844 124.579063 125.254844 124.579063 
C 125.254844 124.579063 125.254844 124.579063 125.254844 124.579063 
L 108.209935 103.809782 
C 107.530126 104.367687 106.878118 104.958633 106.256266 105.580485 
C 105.634414 106.202336 105.043468 106.854345 104.485563 107.534154 
z
" clip-path="url(#ped440bd7d1)" style="fill: #a1a1d8"/>
   </g>
   <g id="patch_64">
    <path d="M 125.254844 124.579063 
C 125.254844 124.579063 125.254844 124.579063 125.254844 124.579063 
C 125.254844 124.579063 125.254844 124.579063 125.254844 124.579063 
L 125.254844 124.579063 
C 125.254844 124.579063 125.254844 124.579063 125.254844 124.579063 
C 125.254844 124.579063 125.254844 124.579063 125.254844 124.579063 
z
" clip-path="url(#ped440bd7d1)" style="fill: #a1a1d8"/>
   </g>
   <g id="patch_65">
    <path d="M 125.254844 124.579063 
C 125.254844 124.579063 125.254844 124.579063 125.254844 124.579063 
C 125.254844 124.579063 125.254844 124.579063 125.254844 124.579063 
L 118.212107 101.36227 
C 117.452187 101.592789 116.704042 101.86048 115.970376 102.164374 
C 115.23671 102.468269 114.518406 102.808001 113.81806 103.182344 
z
" clip-path="url(#ped440bd7d1)" style="fill: #a1a1d8"/>
   </g>
   <g id="patch_66">
    <path d="M 125.254844 124.579063 
C 125.254844 124.579063 125.254844 124.579063 125.254844 124.579063 
C 125.254844 124.579063 125.254844 124.579063 125.254844 124.579063 
L 123.350169 105.240572 
C 122.717191 105.302914 122.087656 105.396297 121.463837 105.520383 
C 120.840018 105.644468 120.222667 105.799106 119.614014 105.983739 
z
" clip-path="url(#ped440bd7d1)" style="fill: #a1a1d8"/>
   </g>
   <g id="patch_67">
    <path d="M 120.06945 71.930879 
C 121.792704 71.761153 123.523252 71.676137 125.254844 71.676137 
C 126.986435 71.676137 128.716984 71.761153 130.440237 71.930879 
L 131.116352 65.06617 
C 129.168406 64.874314 127.212215 64.778213 125.254844 64.778213 
C 123.297473 64.778213 121.341281 64.874314 119.393335 65.06617 
z
" clip-path="url(#ped440bd7d1)" style="fill: #ff8c8e"/>
   </g>
   <g id="patch_68">
    <path d="M 130.251614 73.846005 
C 131.912183 74.009556 133.56372 74.254539 135.200262 74.580067 
C 136.836804 74.905596 138.456377 75.311278 140.053131 75.795648 
L 140.053131 75.795648 
C 138.456377 75.311278 136.836804 74.905596 135.200262 74.580067 
C 133.56372 74.254539 131.912183 74.009556 130.251614 73.846005 
z
" clip-path="url(#ped440bd7d1)" style="fill: #ff8c8e"/>
   </g>
   <g id="patch_69">
    <path d="M 143.711551 63.735452 
C 145.703053 64.339568 147.663695 65.041097 149.586394 65.837505 
C 151.509093 66.633913 153.391531 67.52424 155.22691 68.50527 
L 155.22691 68.50527 
C 153.391531 67.52424 151.509093 66.633913 149.586394 65.837505 
C 147.663695 65.041097 145.703053 64.339568 143.711551 63.735452 
z
" clip-path="url(#ped440bd7d1)" style="fill: #ff8c8e"/>
   </g>
   <g id="patch_70">
    <path d="M 125.254844 124.579063 
C 125.254844 124.579063 125.254844 124.579063 125.254844 124.579063 
C 125.254844 124.579063 125.254844 124.579063 125.254844 124.579063 
L 125.254844 124.579063 
C 125.254844 124.579063 125.254844 124.579063 125.254844 124.579063 
C 125.254844 124.579063 125.254844 124.579063 125.254844 124.579063 
z
" clip-path="url(#ped440bd7d1)" style="fill: #ff8c8e"/>
   </g>
   <g id="patch_71">
    <path d="M 141.49402 104.791569 
C 142.141694 105.323101 142.762881 105.886112 143.355338 106.478569 
C 143.947794 107.071025 144.510805 107.692212 145.042337 108.339886 
L 145.042337 108.339886 
C 144.510805 107.692212 143.947794 107.071025 143.355338 106.478569 
C 142.762881 105.886112 142.141694 105.323101 141.49402 104.791569 
z
" clip-path="url(#ped440bd7d1)" style="fill: #ff8c8e"/>
   </g>
   <g id="patch_72">
    <path d="M 149.005425 105.087464 
C 149.643414 105.864856 150.242851 106.673103 150.80157 107.509286 
C 151.360289 108.345468 151.877618 109.208578 152.351686 110.095498 
L 153.750138 109.34801 
C 153.251603 108.415317 152.707576 107.507662 152.120022 106.628325 
C 151.532467 105.748987 150.902094 104.899027 150.231178 104.081514 
z
" clip-path="url(#ped440bd7d1)" style="fill: #ff8c8e"/>
   </g>
   <g id="patch_73">
    <path d="M 152.82572 109.842122 
C 153.308082 110.744558 153.745846 111.670133 154.137431 112.615503 
C 154.529017 113.560873 154.873951 114.524899 155.170988 115.504099 
L 155.170988 115.504099 
C 154.873951 114.524899 154.529017 113.560873 154.137431 112.615503 
C 153.745846 111.670133 153.308082 110.744558 152.82572 109.842122 
z
" clip-path="url(#ped440bd7d1)" style="fill: #ff8c8e"/>
   </g>
   <g id="patch_74">
    <path d="M 125.254844 124.579063 
C 125.254844 124.579063 125.254844 124.579063 125.254844 124.579063 
C 125.254844 124.579063 125.254844 124.579063 125.254844 124.579063 
L 135.204415 123.599115 
C 135.17234 123.273451 135.124295 122.949558 135.060453 122.628605 
C 134.996612 122.307653 134.917051 121.990029 134.822059 121.67688 
z
" clip-path="url(#ped440bd7d1)" style="fill: #ff8c8e"/>
   </g>
   <g id="patch_75">
    <path d="M 125.254844 124.579063 
C 125.254844 124.579063 125.254844 124.579063 125.254844 124.579063 
C 125.254844 124.579063 125.254844 124.579063 125.254844 124.579063 
L 125.254844 124.579063 
C 125.254844 124.579063 125.254844 124.579063 125.254844 124.579063 
C 125.254844 124.579063 125.254844 124.579063 125.254844 124.579063 
z
" clip-path="url(#ped440bd7d1)" style="fill: #ff8c8e"/>
   </g>
   <g id="patch_76">
    <path d="M 125.254844 124.579063 
C 125.254844 124.579063 125.254844 124.579063 125.254844 124.579063 
C 125.254844 124.579063 125.254844 124.579063 125.254844 124.579063 
L 125.254844 124.579063 
C 125.254844 124.579063 125.254844 124.579063 125.254844 124.579063 
C 125.254844 124.579063 125.254844 124.579063 125.254844 124.579063 
z
" clip-path="url(#ped440bd7d1)" style="fill: #ff8c8e"/>
   </g>
   <g id="patch_77">
    <path d="M 125.254844 124.579063 
C 125.254844 124.579063 125.254844 124.579063 125.254844 124.579063 
C 125.254844 124.579063 125.254844 124.579063 125.254844 124.579063 
L 125.254844 124.579063 
C 125.254844 124.579063 125.254844 124.579063 125.254844 124.579063 
C 125.254844 124.579063 125.254844 124.579063 125.254844 124.579063 
z
" clip-path="url(#ped440bd7d1)" style="fill: #ff8c8e"/>
   </g>
   <g id="patch_78">
    <path d="M 125.254844 124.579063 
C 125.254844 124.579063 125.254844 124.579063 125.254844 124.579063 
C 125.254844 124.579063 125.254844 124.579063 125.254844 124.579063 
L 125.254844 124.579063 
C 125.254844 124.579063 125.254844 124.579063 125.254844 124.579063 
C 125.254844 124.579063 125.254844 124.579063 125.254844 124.579063 
z
" clip-path="url(#ped440bd7d1)" style="fill: #ff8c8e"/>
   </g>
   <g id="patch_79">
    <path d="M 125.254844 124.579063 
C 125.254844 124.579063 125.254844 124.579063 125.254844 124.579063 
C 125.254844 124.579063 125.254844 124.579063 125.254844 124.579063 
L 125.254844 124.579063 
C 125.254844 124.579063 125.254844 124.579063 125.254844 124.579063 
C 125.254844 124.579063 125.254844 124.579063 125.254844 124.579063 
z
" clip-path="url(#ped440bd7d1)" style="fill: #ff8c8e"/>
   </g>
   <g id="patch_80">
    <path d="M 127.369004 127.155175 
C 127.284684 127.224374 127.197018 127.289392 127.106321 127.349994 
C 127.015624 127.410596 126.922007 127.466708 126.825807 127.518128 
L 126.825807 127.518128 
C 126.922007 127.466708 127.015624 127.410596 127.106321 127.349994 
C 127.197018 127.289392 127.284684 127.224374 127.369004 127.155175 
z
" clip-path="url(#ped440bd7d1)" style="fill: #ff8c8e"/>
   </g>
   <g id="patch_81">
    <path d="M 125.254844 124.579063 
C 125.254844 124.579063 125.254844 124.579063 125.254844 124.579063 
C 125.254844 124.579063 125.254844 124.579063 125.254844 124.579063 
L 125.254844 124.579063 
C 125.254844 124.579063 125.254844 124.579063 125.254844 124.579063 
C 125.254844 124.579063 125.254844 124.579063 125.254844 124.579063 
z
" clip-path="url(#ped440bd7d1)" style="fill: #ff8c8e"/>
   </g>
   <g id="patch_82">
    <path d="M 125.254844 124.579063 
C 125.254844 124.579063 125.254844 124.579063 125.254844 124.579063 
C 125.254844 124.579063 125.254844 124.579063 125.254844 124.579063 
L 125.254844 124.579063 
C 125.254844 124.579063 125.254844 124.579063 125.254844 124.579063 
C 125.254844 124.579063 125.254844 124.579063 125.254844 124.579063 
z
" clip-path="url(#ped440bd7d1)" style="fill: #ff8c8e"/>
   </g>
   <g id="patch_83">
    <path d="M 125.254844 124.579063 
C 125.254844 124.579063 125.254844 124.579063 125.254844 124.579063 
C 125.254844 124.579063 125.254844 124.579063 125.254844 124.579063 
L 125.254844 124.579063 
C 125.254844 124.579063 125.254844 124.579063 125.254844 124.579063 
C 125.254844 124.579063 125.254844 124.579063 125.254844 124.579063 
z
" clip-path="url(#ped440bd7d1)" style="fill: #ff8c8e"/>
   </g>
   <g id="patch_84">
    <path d="M 125.254844 124.579063 
C 125.254844 124.579063 125.254844 124.579063 125.254844 124.579063 
C 125.254844 124.579063 125.254844 124.579063 125.254844 124.579063 
L 125.254844 124.579063 
C 125.254844 124.579063 125.254844 124.579063 125.254844 124.579063 
C 125.254844 124.579063 125.254844 124.579063 125.254844 124.579063 
z
" clip-path="url(#ped440bd7d1)" style="fill: #ff8c8e"/>
   </g>
   <g id="patch_85">
    <path d="M 125.254844 124.579063 
C 125.254844 124.579063 125.254844 124.579063 125.254844 124.579063 
C 125.254844 124.579063 125.254844 124.579063 125.254844 124.579063 
L 125.254844 124.579063 
C 125.254844 124.579063 125.254844 124.579063 125.254844 124.579063 
C 125.254844 124.579063 125.254844 124.579063 125.254844 124.579063 
z
" clip-path="url(#ped440bd7d1)" style="fill: #ff8c8e"/>
   </g>
   <g id="patch_86">
    <path d="M 125.254844 124.579063 
C 125.254844 124.579063 125.254844 124.579063 125.254844 124.579063 
C 125.254844 124.579063 125.254844 124.579063 125.254844 124.579063 
L 125.254844 124.579063 
C 125.254844 124.579063 125.254844 124.579063 125.254844 124.579063 
C 125.254844 124.579063 125.254844 124.579063 125.254844 124.579063 
z
" clip-path="url(#ped440bd7d1)" style="fill: #ff8c8e"/>
   </g>
   <g id="patch_87">
    <path d="M 125.254844 124.579063 
C 125.254844 124.579063 125.254844 124.579063 125.254844 124.579063 
C 125.254844 124.579063 125.254844 124.579063 125.254844 124.579063 
L 125.254844 124.579063 
C 125.254844 124.579063 125.254844 124.579063 125.254844 124.579063 
C 125.254844 124.579063 125.254844 124.579063 125.254844 124.579063 
z
" clip-path="url(#ped440bd7d1)" style="fill: #ff8c8e"/>
   </g>
   <g id="patch_88">
    <path d="M 125.254844 124.579063 
C 125.254844 124.579063 125.254844 124.579063 125.254844 124.579063 
C 125.254844 124.579063 125.254844 124.579063 125.254844 124.579063 
L 125.254844 124.579063 
C 125.254844 124.579063 125.254844 124.579063 125.254844 124.579063 
C 125.254844 124.579063 125.254844 124.579063 125.254844 124.579063 
z
" clip-path="url(#ped440bd7d1)" style="fill: #ff8c8e"/>
   </g>
   <g id="patch_89">
    <path d="M 125.254844 124.579063 
C 125.254844 124.579063 125.254844 124.579063 125.254844 124.579063 
C 125.254844 124.579063 125.254844 124.579063 125.254844 124.579063 
L 125.254844 124.579063 
C 125.254844 124.579063 125.254844 124.579063 125.254844 124.579063 
C 125.254844 124.579063 125.254844 124.579063 125.254844 124.579063 
z
" clip-path="url(#ped440bd7d1)" style="fill: #ff8c8e"/>
   </g>
   <g id="patch_90">
    <path d="M 80.950843 138.018534 
C 80.51095 136.568398 80.142518 135.097538 79.846881 133.611268 
C 79.551243 132.124997 79.328756 130.625108 79.180222 129.117017 
L 78.705213 129.163801 
C 78.855278 130.68744 79.08006 132.202793 79.378745 133.704386 
C 79.677431 135.205979 80.04966 136.692003 80.494089 138.157089 
z
" clip-path="url(#ped440bd7d1)" style="fill: #ff8c8e"/>
   </g>
   <g id="patch_91">
    <path d="M 66.579549 130.358075 
C 66.390393 128.437545 66.295645 126.508885 66.295645 124.579062 
C 66.295645 122.64924 66.390393 120.72058 66.579549 118.80005 
L 66.579549 118.80005 
C 66.390393 120.72058 66.295645 122.64924 66.295645 124.579062 
C 66.295645 126.508885 66.390393 128.437545 66.579549 130.358075 
z
" clip-path="url(#ped440bd7d1)" style="fill: #ff8c8e"/>
   </g>
   <g id="patch_92">
    <path d="M 83.566786 120.473147 
C 83.701179 119.108635 83.902484 117.751543 84.169976 116.406774 
C 84.437467 115.062005 84.770821 113.73118 85.168835 112.419105 
L 85.168835 112.419105 
C 84.770821 113.73118 84.437467 115.062005 84.169976 116.406774 
C 83.902484 117.751543 83.701179 119.108635 83.566786 120.473147 
z
" clip-path="url(#ped440bd7d1)" style="fill: #ff8c8e"/>
   </g>
   <g id="patch_93">
    <path d="M 97.636673 116.201182 
C 97.910894 115.297198 98.229332 114.407223 98.590838 113.53447 
C 98.952344 112.661717 99.356482 111.807239 99.801792 110.974123 
L 86.042822 103.6198 
C 85.356794 104.903268 84.734195 106.219645 84.177272 107.564175 
C 83.620349 108.908705 83.129775 110.279769 82.707321 111.672413 
z
" clip-path="url(#ped440bd7d1)" style="fill: #ff8c8e"/>
   </g>
   <g id="patch_94">
    <path d="M 125.254844 124.579063 
C 125.254844 124.579063 125.254844 124.579063 125.254844 124.579063 
C 125.254844 124.579063 125.254844 124.579063 125.254844 124.579063 
L 125.254844 124.579063 
C 125.254844 124.579063 125.254844 124.579063 125.254844 124.579063 
C 125.254844 124.579063 125.254844 124.579063 125.254844 124.579063 
z
" clip-path="url(#ped440bd7d1)" style="fill: #ff8c8e"/>
   </g>
   <g id="patch_95">
    <path d="M 104.485563 107.534154 
C 105.043468 106.854345 105.634414 106.202336 106.256266 105.580485 
C 106.878118 104.958633 107.530126 104.367687 108.209935 103.809782 
L 65.084776 51.261623 
C 62.684987 53.231079 60.383339 55.317171 58.188146 57.512365 
C 55.992953 59.707558 53.90686 62.009206 51.937404 64.408995 
z
" clip-path="url(#ped440bd7d1)" style="fill: #ff8c8e"/>
   </g>
   <g id="patch_96">
    <path d="M 125.254844 124.579063 
C 125.254844 124.579063 125.254844 124.579063 125.254844 124.579063 
C 125.254844 124.579063 125.254844 124.579063 125.254844 124.579063 
L 99.875158 77.09701 
C 98.320999 77.927725 96.808564 78.834244 95.343313 79.813293 
C 93.878063 80.792342 92.461764 81.842741 91.099533 82.960695 
z
" clip-path="url(#ped440bd7d1)" style="fill: #ff8c8e"/>
   </g>
   <g id="patch_97">
    <path d="M 113.81806 103.182344 
C 114.518406 102.808001 115.23671 102.468269 115.970376 102.164374 
C 116.704042 101.86048 117.452187 101.592789 118.212107 101.36227 
L 94.328472 22.628477 
C 90.991477 23.640743 87.706193 24.816237 84.484486 26.150711 
C 81.262779 27.485186 78.108533 28.977033 75.033141 30.620865 
z
" clip-path="url(#ped440bd7d1)" style="fill: #ff8c8e"/>
   </g>
   <g id="patch_98">
    <path d="M 119.614014 105.983739 
C 120.222667 105.799106 120.840018 105.644468 121.463837 105.520383 
C 122.087656 105.396297 122.717191 105.302914 123.350169 105.240572 
L 114.386703 14.232981 
C 110.774911 14.588711 107.182762 15.121556 103.623229 15.829591 
C 100.063696 16.537626 96.541072 17.419998 93.068079 18.473519 
z
" clip-path="url(#ped440bd7d1)" style="fill: #ff8c8e"/>
   </g>
   <g id="patch_99">
    <path d="M 119.393335 65.06617 
C 121.341281 64.874314 123.297473 64.778213 125.254844 64.778213 
C 127.212215 64.778213 129.168406 64.874314 131.116352 65.06617 
L 131.116352 65.06617 
C 129.168406 64.874314 127.212215 64.778213 125.254844 64.778213 
C 123.297473 64.778213 121.341281 64.874314 119.393335 65.06617 
z
" clip-path="url(#ped440bd7d1)" style="fill: #828282"/>
   </g>
   <g id="patch_100">
    <path d="M 130.251614 73.846005 
C 131.912183 74.009556 133.56372 74.254539 135.200262 74.580067 
C 136.836804 74.905596 138.456377 75.311278 140.053131 75.795648 
L 140.053131 75.795648 
C 138.456377 75.311278 136.836804 74.905596 135.200262 74.580067 
C 133.56372 74.254539 131.912183 74.009556 130.251614 73.846005 
z
" clip-path="url(#ped440bd7d1)" style="fill: #828282"/>
   </g>
   <g id="patch_101">
    <path d="M 143.711551 63.735452 
C 145.703053 64.339568 147.663695 65.041097 149.586394 65.837505 
C 151.509093 66.633913 153.391531 67.52424 155.22691 68.50527 
L 155.22691 68.50527 
C 153.391531 67.52424 151.509093 66.633913 149.586394 65.837505 
C 147.663695 65.041097 145.703053 64.339568 143.711551 63.735452 
z
" clip-path="url(#ped440bd7d1)" style="fill: #828282"/>
   </g>
   <g id="patch_102">
    <path d="M 125.254844 124.579063 
C 125.254844 124.579063 125.254844 124.579063 125.254844 124.579063 
C 125.254844 124.579063 125.254844 124.579063 125.254844 124.579063 
L 125.254844 124.579063 
C 125.254844 124.579063 125.254844 124.579063 125.254844 124.579063 
C 125.254844 124.579063 125.254844 124.579063 125.254844 124.579063 
z
" clip-path="url(#ped440bd7d1)" style="fill: #828282"/>
   </g>
   <g id="patch_103">
    <path d="M 141.49402 104.791569 
C 142.141694 105.323101 142.762881 105.886112 143.355338 106.478569 
C 143.947794 107.071025 144.510805 107.692212 145.042337 108.339886 
L 145.042337 108.339886 
C 144.510805 107.692212 143.947794 107.071025 143.355338 106.478569 
C 142.762881 105.886112 142.141694 105.323101 141.49402 104.791569 
z
" clip-path="url(#ped440bd7d1)" style="fill: #828282"/>
   </g>
   <g id="patch_104">
    <path d="M 150.231178 104.081514 
C 150.902094 104.899027 151.532467 105.748987 152.120022 106.628325 
C 152.707576 107.507662 153.251603 108.415317 153.750138 109.34801 
L 153.750138 109.34801 
C 153.251603 108.415317 152.707576 107.507662 152.120022 106.628325 
C 151.532467 105.748987 150.902094 104.899027 150.231178 104.081514 
z
" clip-path="url(#ped440bd7d1)" style="fill: #828282"/>
   </g>
   <g id="patch_105">
    <path d="M 152.82572 109.842122 
C 153.308082 110.744558 153.745846 111.670133 154.137431 112.615503 
C 154.529017 113.560873 154.873951 114.524899 155.170988 115.504099 
L 155.170988 115.504099 
C 154.873951 114.524899 154.529017 113.560873 154.137431 112.615503 
C 153.745846 111.670133 153.308082 110.744558 152.82572 109.842122 
z
" clip-path="url(#ped440bd7d1)" style="fill: #828282"/>
   </g>
   <g id="patch_106">
    <path d="M 134.822059 121.67688 
C 134.917051 121.990029 134.996612 122.307653 135.060453 122.628605 
C 135.124295 122.949558 135.17234 123.273451 135.204415 123.599115 
L 135.204415 123.599115 
C 135.17234 123.273451 135.124295 122.949558 135.060453 122.628605 
C 134.996612 122.307653 134.917051 121.990029 134.822059 121.67688 
z
" clip-path="url(#ped440bd7d1)" style="fill: #828282"/>
   </g>
   <g id="patch_107">
    <path d="M 125.254844 124.579063 
C 125.254844 124.579063 125.254844 124.579063 125.254844 124.579063 
C 125.254844 124.579063 125.254844 124.579063 125.254844 124.579063 
L 125.254844 124.579063 
C 125.254844 124.579063 125.254844 124.579063 125.254844 124.579063 
C 125.254844 124.579063 125.254844 124.579063 125.254844 124.579063 
z
" clip-path="url(#ped440bd7d1)" style="fill: #828282"/>
   </g>
   <g id="patch_108">
    <path d="M 125.254844 124.579063 
C 125.254844 124.579063 125.254844 124.579063 125.254844 124.579063 
C 125.254844 124.579063 125.254844 124.579063 125.254844 124.579063 
L 125.254844 124.579063 
C 125.254844 124.579063 125.254844 124.579063 125.254844 124.579063 
C 125.254844 124.579063 125.254844 124.579063 125.254844 124.579063 
z
" clip-path="url(#ped440bd7d1)" style="fill: #828282"/>
   </g>
   <g id="patch_109">
    <path d="M 125.254844 124.579063 
C 125.254844 124.579063 125.254844 124.579063 125.254844 124.579063 
C 125.254844 124.579063 125.254844 124.579063 125.254844 124.579063 
L 125.254844 124.579063 
C 125.254844 124.579063 125.254844 124.579063 125.254844 124.579063 
C 125.254844 124.579063 125.254844 124.579063 125.254844 124.579063 
z
" clip-path="url(#ped440bd7d1)" style="fill: #828282"/>
   </g>
   <g id="patch_110">
    <path d="M 125.254844 124.579063 
C 125.254844 124.579063 125.254844 124.579063 125.254844 124.579063 
C 125.254844 124.579063 125.254844 124.579063 125.254844 124.579063 
L 125.254844 124.579063 
C 125.254844 124.579063 125.254844 124.579063 125.254844 124.579063 
C 125.254844 124.579063 125.254844 124.579063 125.254844 124.579063 
z
" clip-path="url(#ped440bd7d1)" style="fill: #828282"/>
   </g>
   <g id="patch_111">
    <path d="M 125.254844 124.579063 
C 125.254844 124.579063 125.254844 124.579063 125.254844 124.579063 
C 125.254844 124.579063 125.254844 124.579063 125.254844 124.579063 
L 125.254844 124.579063 
C 125.254844 124.579063 125.254844 124.579063 125.254844 124.579063 
C 125.254844 124.579063 125.254844 124.579063 125.254844 124.579063 
z
" clip-path="url(#ped440bd7d1)" style="fill: #828282"/>
   </g>
   <g id="patch_112">
    <path d="M 127.369004 127.155175 
C 127.284684 127.224374 127.197018 127.289392 127.106321 127.349994 
C 127.015624 127.410596 126.922007 127.466708 126.825807 127.518128 
L 126.825807 127.518128 
C 126.922007 127.466708 127.015624 127.410596 127.106321 127.349994 
C 127.197018 127.289392 127.284684 127.224374 127.369004 127.155175 
z
" clip-path="url(#ped440bd7d1)" style="fill: #828282"/>
   </g>
   <g id="patch_113">
    <path d="M 125.254844 124.579063 
C 125.254844 124.579063 125.254844 124.579063 125.254844 124.579063 
C 125.254844 124.579063 125.254844 124.579063 125.254844 124.579063 
L 125.254844 124.579063 
C 125.254844 124.579063 125.254844 124.579063 125.254844 124.579063 
C 125.254844 124.579063 125.254844 124.579063 125.254844 124.579063 
z
" clip-path="url(#ped440bd7d1)" style="fill: #828282"/>
   </g>
   <g id="patch_114">
    <path d="M 125.254844 124.579063 
C 125.254844 124.579063 125.254844 124.579063 125.254844 124.579063 
C 125.254844 124.579063 125.254844 124.579063 125.254844 124.579063 
L 125.254844 124.579063 
C 125.254844 124.579063 125.254844 124.579063 125.254844 124.579063 
C 125.254844 124.579063 125.254844 124.579063 125.254844 124.579063 
z
" clip-path="url(#ped440bd7d1)" style="fill: #828282"/>
   </g>
   <g id="patch_115">
    <path d="M 125.254844 124.579063 
C 125.254844 124.579063 125.254844 124.579063 125.254844 124.579063 
C 125.254844 124.579063 125.254844 124.579063 125.254844 124.579063 
L 125.254844 124.579063 
C 125.254844 124.579063 125.254844 124.579063 125.254844 124.579063 
C 125.254844 124.579063 125.254844 124.579063 125.254844 124.579063 
z
" clip-path="url(#ped440bd7d1)" style="fill: #828282"/>
   </g>
   <g id="patch_116">
    <path d="M 125.254844 124.579063 
C 125.254844 124.579063 125.254844 124.579063 125.254844 124.579063 
C 125.254844 124.579063 125.254844 124.579063 125.254844 124.579063 
L 125.254844 124.579063 
C 125.254844 124.579063 125.254844 124.579063 125.254844 124.579063 
C 125.254844 124.579063 125.254844 124.579063 125.254844 124.579063 
z
" clip-path="url(#ped440bd7d1)" style="fill: #828282"/>
   </g>
   <g id="patch_117">
    <path d="M 125.254844 124.579063 
C 125.254844 124.579063 125.254844 124.579063 125.254844 124.579063 
C 125.254844 124.579063 125.254844 124.579063 125.254844 124.579063 
L 125.254844 124.579063 
C 125.254844 124.579063 125.254844 124.579063 125.254844 124.579063 
C 125.254844 124.579063 125.254844 124.579063 125.254844 124.579063 
z
" clip-path="url(#ped440bd7d1)" style="fill: #828282"/>
   </g>
   <g id="patch_118">
    <path d="M 125.254844 124.579063 
C 125.254844 124.579063 125.254844 124.579063 125.254844 124.579063 
C 125.254844 124.579063 125.254844 124.579063 125.254844 124.579063 
L 125.254844 124.579063 
C 125.254844 124.579063 125.254844 124.579063 125.254844 124.579063 
C 125.254844 124.579063 125.254844 124.579063 125.254844 124.579063 
z
" clip-path="url(#ped440bd7d1)" style="fill: #828282"/>
   </g>
   <g id="patch_119">
    <path d="M 125.254844 124.579063 
C 125.254844 124.579063 125.254844 124.579063 125.254844 124.579063 
C 125.254844 124.579063 125.254844 124.579063 125.254844 124.579063 
L 125.254844 124.579063 
C 125.254844 124.579063 125.254844 124.579063 125.254844 124.579063 
C 125.254844 124.579063 125.254844 124.579063 125.254844 124.579063 
z
" clip-path="url(#ped440bd7d1)" style="fill: #828282"/>
   </g>
   <g id="patch_120">
    <path d="M 125.254844 124.579063 
C 125.254844 124.579063 125.254844 124.579063 125.254844 124.579063 
C 125.254844 124.579063 125.254844 124.579063 125.254844 124.579063 
L 125.254844 124.579063 
C 125.254844 124.579063 125.254844 124.579063 125.254844 124.579063 
C 125.254844 124.579063 125.254844 124.579063 125.254844 124.579063 
z
" clip-path="url(#ped440bd7d1)" style="fill: #828282"/>
   </g>
   <g id="patch_121">
    <path d="M 125.254844 124.579063 
C 125.254844 124.579063 125.254844 124.579063 125.254844 124.579063 
C 125.254844 124.579063 125.254844 124.579063 125.254844 124.579063 
L 125.254844 124.579063 
C 125.254844 124.579063 125.254844 124.579063 125.254844 124.579063 
C 125.254844 124.579063 125.254844 124.579063 125.254844 124.579063 
z
" clip-path="url(#ped440bd7d1)" style="fill: #828282"/>
   </g>
   <g id="patch_122">
    <path d="M 80.494089 138.157089 
C 80.04966 136.692003 79.677431 135.205979 79.378745 133.704386 
C 79.08006 132.202793 78.855278 130.68744 78.705213 129.163801 
L 78.705213 129.163801 
C 78.855278 130.68744 79.08006 132.202793 79.378745 133.704386 
C 79.677431 135.205979 80.04966 136.692003 80.494089 138.157089 
z
" clip-path="url(#ped440bd7d1)" style="fill: #828282"/>
   </g>
   <g id="patch_123">
    <path d="M 66.579549 130.358075 
C 66.390393 128.437545 66.295645 126.508885 66.295645 124.579062 
C 66.295645 122.64924 66.390393 120.72058 66.579549 118.80005 
L 66.579549 118.80005 
C 66.390393 120.72058 66.295645 122.64924 66.295645 124.579062 
C 66.295645 126.508885 66.390393 128.437545 66.579549 130.358075 
z
" clip-path="url(#ped440bd7d1)" style="fill: #828282"/>
   </g>
   <g id="patch_124">
    <path d="M 83.566786 120.473147 
C 83.701179 119.108635 83.902484 117.751543 84.169976 116.406774 
C 84.437467 115.062005 84.770821 113.73118 85.168835 112.419105 
L 85.168835 112.419105 
C 84.770821 113.73118 84.437467 115.062005 84.169976 116.406774 
C 83.902484 117.751543 83.701179 119.108635 83.566786 120.473147 
z
" clip-path="url(#ped440bd7d1)" style="fill: #828282"/>
   </g>
   <g id="patch_125">
    <path d="M 82.707321 111.672413 
C 83.129775 110.279769 83.620349 108.908705 84.177272 107.564175 
C 84.734195 106.219645 85.356794 104.903268 86.042822 103.6198 
L 86.042822 103.6198 
C 85.356794 104.903268 84.734195 106.219645 84.177272 107.564175 
C 83.620349 108.908705 83.129775 110.279769 82.707321 111.672413 
z
" clip-path="url(#ped440bd7d1)" style="fill: #828282"/>
   </g>
   <g id="patch_126">
    <path d="M 125.254844 124.579063 
C 125.254844 124.579063 125.254844 124.579063 125.254844 124.579063 
C 125.254844 124.579063 125.254844 124.579063 125.254844 124.579063 
L 125.254844 124.579063 
C 125.254844 124.579063 125.254844 124.579063 125.254844 124.579063 
C 125.254844 124.579063 125.254844 124.579063 125.254844 124.579063 
z
" clip-path="url(#ped440bd7d1)" style="fill: #828282"/>
   </g>
   <g id="patch_127">
    <path d="M 51.937404 64.408995 
C 53.90686 62.009206 55.992953 59.707558 58.188146 57.512365 
C 60.383339 55.317171 62.684987 53.231079 65.084776 51.261623 
L 65.084776 51.261623 
C 62.684987 53.231079 60.383339 55.317171 58.188146 57.512365 
C 55.992953 59.707558 53.90686 62.009206 51.937404 64.408995 
z
" clip-path="url(#ped440bd7d1)" style="fill: #828282"/>
   </g>
   <g id="patch_128">
    <path d="M 91.099533 82.960695 
C 92.461764 81.842741 93.878063 80.792342 95.343313 79.813293 
C 96.808564 78.834244 98.320999 77.927725 99.875158 77.09701 
L 99.875158 77.09701 
C 98.320999 77.927725 96.808564 78.834244 95.343313 79.813293 
C 93.878063 80.792342 92.461764 81.842741 91.099533 82.960695 
z
" clip-path="url(#ped440bd7d1)" style="fill: #828282"/>
   </g>
   <g id="patch_129">
    <path d="M 75.033141 30.620865 
C 78.108533 28.977033 81.262779 27.485186 84.484486 26.150711 
C 87.706193 24.816237 90.991477 23.640743 94.328472 22.628477 
L 94.328472 22.628477 
C 90.991477 23.640743 87.706193 24.816237 84.484486 26.150711 
C 81.262779 27.485186 78.108533 28.977033 75.033141 30.620865 
z
" clip-path="url(#ped440bd7d1)" style="fill: #828282"/>
   </g>
   <g id="patch_130">
    <path d="M 93.068079 18.473519 
C 96.541072 17.419998 100.063696 16.537626 103.623229 15.829591 
C 107.182762 15.121556 110.774911 14.588711 114.386703 14.232981 
L 114.386703 14.232981 
C 110.774911 14.588711 107.182762 15.121556 103.623229 15.829591 
C 100.063696 16.537626 96.541072 17.419998 93.068079 18.473519 
z
" clip-path="url(#ped440bd7d1)" style="fill: #828282"/>
   </g>
   <g id="patch_131">
    <path d="M 125.254844 124.579063 
C 125.254844 124.579063 125.254844 124.579063 125.254844 124.579063 
C 125.254844 124.579063 125.254844 124.579063 125.254844 124.579063 
L 131.116352 65.06617 
C 129.168406 64.874314 127.212215 64.778213 125.254844 64.778213 
C 123.297473 64.778213 121.341281 64.874314 119.393335 65.06617 
L 125.254844 124.579063 
z
" clip-path="url(#ped440bd7d1)" style="fill: none; stroke: #292929; stroke-width: 0.5; stroke-linejoin: miter"/>
   </g>
   <g id="patch_132">
    <path d="M 125.254844 124.579063 
C 125.254844 124.579063 125.254844 124.579063 125.254844 124.579063 
C 125.254844 124.579063 125.254844 124.579063 125.254844 124.579063 
L 140.053131 75.795648 
C 138.456377 75.311278 136.836804 74.905596 135.200262 74.580067 
C 133.56372 74.254539 131.912183 74.009556 130.251614 73.846005 
L 125.254844 124.579063 
z
" clip-path="url(#ped440bd7d1)" style="fill: none; stroke: #292929; stroke-width: 0.5; stroke-linejoin: miter"/>
   </g>
   <g id="patch_133">
    <path d="M 125.254844 124.579063 
C 125.254844 124.579063 125.254844 124.579063 125.254844 124.579063 
C 125.254844 124.579063 125.254844 124.579063 125.254844 124.579063 
L 155.22691 68.50527 
C 153.391531 67.52424 151.509093 66.633913 149.586394 65.837505 
C 147.663695 65.041097 145.703053 64.339568 143.711551 63.735452 
L 125.254844 124.579063 
z
" clip-path="url(#ped440bd7d1)" style="fill: none; stroke: #292929; stroke-width: 0.5; stroke-linejoin: miter"/>
   </g>
   <g id="patch_134">
    <path d="M 125.254844 124.579063 
C 125.254844 124.579063 125.254844 124.579063 125.254844 124.579063 
C 125.254844 124.579063 125.254844 124.579063 125.254844 124.579063 
L 125.254844 124.579063 
C 125.254844 124.579063 125.254844 124.579063 125.254844 124.579063 
C 125.254844 124.579063 125.254844 124.579063 125.254844 124.579063 
L 125.254844 124.579063 
z
" clip-path="url(#ped440bd7d1)" style="fill: none; stroke: #292929; stroke-width: 0.5; stroke-linejoin: miter"/>
   </g>
   <g id="patch_135">
    <path d="M 125.254844 124.579063 
C 125.254844 124.579063 125.254844 124.579063 125.254844 124.579063 
C 125.254844 124.579063 125.254844 124.579063 125.254844 124.579063 
L 145.042337 108.339886 
C 144.510805 107.692212 143.947794 107.071025 143.355338 106.478569 
C 142.762881 105.886112 142.141694 105.323101 141.49402 104.791569 
L 125.254844 124.579063 
z
" clip-path="url(#ped440bd7d1)" style="fill: none; stroke: #292929; stroke-width: 0.5; stroke-linejoin: miter"/>
   </g>
   <g id="patch_136">
    <path d="M 125.254844 124.579063 
C 125.254844 124.579063 125.254844 124.579063 125.254844 124.579063 
C 125.254844 124.579063 125.254844 124.579063 125.254844 124.579063 
L 153.750138 109.34801 
C 153.251603 108.415317 152.707576 107.507662 152.120022 106.628325 
C 151.532467 105.748987 150.902094 104.899027 150.231178 104.081514 
L 125.254844 124.579063 
z
" clip-path="url(#ped440bd7d1)" style="fill: none; stroke: #292929; stroke-width: 0.5; stroke-linejoin: miter"/>
   </g>
   <g id="patch_137">
    <path d="M 125.254844 124.579063 
C 125.254844 124.579063 125.254844 124.579063 125.254844 124.579063 
C 125.254844 124.579063 125.254844 124.579063 125.254844 124.579063 
L 155.170988 115.504099 
C 154.873951 114.524899 154.529017 113.560873 154.137431 112.615503 
C 153.745846 111.670133 153.308082 110.744558 152.82572 109.842122 
L 125.254844 124.579063 
z
" clip-path="url(#ped440bd7d1)" style="fill: none; stroke: #292929; stroke-width: 0.5; stroke-linejoin: miter"/>
   </g>
   <g id="patch_138">
    <path d="M 125.254844 124.579063 
C 125.254844 124.579063 125.254844 124.579063 125.254844 124.579063 
C 125.254844 124.579063 125.254844 124.579063 125.254844 124.579063 
L 135.204415 123.599115 
C 135.17234 123.273451 135.124295 122.949558 135.060453 122.628605 
C 134.996612 122.307653 134.917051 121.990029 134.822059 121.67688 
L 125.254844 124.579063 
z
" clip-path="url(#ped440bd7d1)" style="fill: none; stroke: #292929; stroke-width: 0.5; stroke-linejoin: miter"/>
   </g>
   <g id="patch_139">
    <path d="M 125.254844 124.579063 
C 125.254844 124.579063 125.254844 124.579063 125.254844 124.579063 
C 125.254844 124.579063 125.254844 124.579063 125.254844 124.579063 
L 125.254844 124.579063 
C 125.254844 124.579063 125.254844 124.579063 125.254844 124.579063 
C 125.254844 124.579063 125.254844 124.579063 125.254844 124.579063 
L 125.254844 124.579063 
z
" clip-path="url(#ped440bd7d1)" style="fill: none; stroke: #292929; stroke-width: 0.5; stroke-linejoin: miter"/>
   </g>
   <g id="patch_140">
    <path d="M 125.254844 124.579063 
C 125.254844 124.579063 125.254844 124.579063 125.254844 124.579063 
C 125.254844 124.579063 125.254844 124.579063 125.254844 124.579063 
L 125.254844 124.579063 
C 125.254844 124.579063 125.254844 124.579063 125.254844 124.579063 
C 125.254844 124.579063 125.254844 124.579063 125.254844 124.579063 
L 125.254844 124.579063 
z
" clip-path="url(#ped440bd7d1)" style="fill: none; stroke: #292929; stroke-width: 0.5; stroke-linejoin: miter"/>
   </g>
   <g id="patch_141">
    <path d="M 125.254844 124.579063 
C 125.254844 124.579063 125.254844 124.579063 125.254844 124.579063 
C 125.254844 124.579063 125.254844 124.579063 125.254844 124.579063 
L 125.254844 124.579063 
C 125.254844 124.579063 125.254844 124.579063 125.254844 124.579063 
C 125.254844 124.579063 125.254844 124.579063 125.254844 124.579063 
L 125.254844 124.579063 
z
" clip-path="url(#ped440bd7d1)" style="fill: none; stroke: #292929; stroke-width: 0.5; stroke-linejoin: miter"/>
   </g>
   <g id="patch_142">
    <path d="M 125.254844 124.579063 
C 125.254844 124.579063 125.254844 124.579063 125.254844 124.579063 
C 125.254844 124.579063 125.254844 124.579063 125.254844 124.579063 
L 125.254844 124.579063 
C 125.254844 124.579063 125.254844 124.579063 125.254844 124.579063 
C 125.254844 124.579063 125.254844 124.579063 125.254844 124.579063 
L 125.254844 124.579063 
z
" clip-path="url(#ped440bd7d1)" style="fill: none; stroke: #292929; stroke-width: 0.5; stroke-linejoin: miter"/>
   </g>
   <g id="patch_143">
    <path d="M 125.254844 124.579063 
C 125.254844 124.579063 125.254844 124.579063 125.254844 124.579063 
C 125.254844 124.579063 125.254844 124.579063 125.254844 124.579063 
L 125.254844 124.579063 
C 125.254844 124.579063 125.254844 124.579063 125.254844 124.579063 
C 125.254844 124.579063 125.254844 124.579063 125.254844 124.579063 
L 125.254844 124.579063 
z
" clip-path="url(#ped440bd7d1)" style="fill: none; stroke: #292929; stroke-width: 0.5; stroke-linejoin: miter"/>
   </g>
   <g id="patch_144">
    <path d="M 125.254844 124.579063 
C 125.254844 124.579063 125.254844 124.579063 125.254844 124.579063 
C 125.254844 124.579063 125.254844 124.579063 125.254844 124.579063 
L 126.825807 127.518128 
C 126.922007 127.466708 127.015624 127.410596 127.106321 127.349994 
C 127.197018 127.289392 127.284684 127.224374 127.369004 127.155175 
L 125.254844 124.579063 
z
" clip-path="url(#ped440bd7d1)" style="fill: none; stroke: #292929; stroke-width: 0.5; stroke-linejoin: miter"/>
   </g>
   <g id="patch_145">
    <path d="M 125.254844 124.579063 
C 125.254844 124.579063 125.254844 124.579063 125.254844 124.579063 
C 125.254844 124.579063 125.254844 124.579063 125.254844 124.579063 
L 125.254844 124.579063 
C 125.254844 124.579063 125.254844 124.579063 125.254844 124.579063 
C 125.254844 124.579063 125.254844 124.579063 125.254844 124.579063 
L 125.254844 124.579063 
z
" clip-path="url(#ped440bd7d1)" style="fill: none; stroke: #292929; stroke-width: 0.5; stroke-linejoin: miter"/>
   </g>
   <g id="patch_146">
    <path d="M 125.254844 124.579063 
C 125.254844 124.579063 125.254844 124.579063 125.254844 124.579063 
C 125.254844 124.579063 125.254844 124.579063 125.254844 124.579063 
L 125.254844 124.579063 
C 125.254844 124.579063 125.254844 124.579063 125.254844 124.579063 
C 125.254844 124.579063 125.254844 124.579063 125.254844 124.579063 
L 125.254844 124.579063 
z
" clip-path="url(#ped440bd7d1)" style="fill: none; stroke: #292929; stroke-width: 0.5; stroke-linejoin: miter"/>
   </g>
   <g id="patch_147">
    <path d="M 125.254844 124.579063 
C 125.254844 124.579063 125.254844 124.579063 125.254844 124.579063 
C 125.254844 124.579063 125.254844 124.579063 125.254844 124.579063 
L 125.254844 124.579063 
C 125.254844 124.579063 125.254844 124.579063 125.254844 124.579063 
C 125.254844 124.579063 125.254844 124.579063 125.254844 124.579063 
L 125.254844 124.579063 
z
" clip-path="url(#ped440bd7d1)" style="fill: none; stroke: #292929; stroke-width: 0.5; stroke-linejoin: miter"/>
   </g>
   <g id="patch_148">
    <path d="M 125.254844 124.579063 
C 125.254844 124.579063 125.254844 124.579063 125.254844 124.579063 
C 125.254844 124.579063 125.254844 124.579063 125.254844 124.579063 
L 125.254844 124.579063 
C 125.254844 124.579063 125.254844 124.579063 125.254844 124.579063 
C 125.254844 124.579063 125.254844 124.579063 125.254844 124.579063 
L 125.254844 124.579063 
z
" clip-path="url(#ped440bd7d1)" style="fill: none; stroke: #292929; stroke-width: 0.5; stroke-linejoin: miter"/>
   </g>
   <g id="patch_149">
    <path d="M 125.254844 124.579063 
C 125.254844 124.579063 125.254844 124.579063 125.254844 124.579063 
C 125.254844 124.579063 125.254844 124.579063 125.254844 124.579063 
L 125.254844 124.579063 
C 125.254844 124.579063 125.254844 124.579063 125.254844 124.579063 
C 125.254844 124.579063 125.254844 124.579063 125.254844 124.579063 
L 125.254844 124.579063 
z
" clip-path="url(#ped440bd7d1)" style="fill: none; stroke: #292929; stroke-width: 0.5; stroke-linejoin: miter"/>
   </g>
   <g id="patch_150">
    <path d="M 125.254844 124.579063 
C 125.254844 124.579063 125.254844 124.579063 125.254844 124.579063 
C 125.254844 124.579063 125.254844 124.579063 125.254844 124.579063 
L 125.254844 124.579063 
C 125.254844 124.579063 125.254844 124.579063 125.254844 124.579063 
C 125.254844 124.579063 125.254844 124.579063 125.254844 124.579063 
L 125.254844 124.579063 
z
" clip-path="url(#ped440bd7d1)" style="fill: none; stroke: #292929; stroke-width: 0.5; stroke-linejoin: miter"/>
   </g>
   <g id="patch_151">
    <path d="M 125.254844 124.579063 
C 125.254844 124.579063 125.254844 124.579063 125.254844 124.579063 
C 125.254844 124.579063 125.254844 124.579063 125.254844 124.579063 
L 125.254844 124.579063 
C 125.254844 124.579063 125.254844 124.579063 125.254844 124.579063 
C 125.254844 124.579063 125.254844 124.579063 125.254844 124.579063 
L 125.254844 124.579063 
z
" clip-path="url(#ped440bd7d1)" style="fill: none; stroke: #292929; stroke-width: 0.5; stroke-linejoin: miter"/>
   </g>
   <g id="patch_152">
    <path d="M 125.254844 124.579063 
C 125.254844 124.579063 125.254844 124.579063 125.254844 124.579063 
C 125.254844 124.579063 125.254844 124.579063 125.254844 124.579063 
L 125.254844 124.579063 
C 125.254844 124.579063 125.254844 124.579063 125.254844 124.579063 
C 125.254844 124.579063 125.254844 124.579063 125.254844 124.579063 
L 125.254844 124.579063 
z
" clip-path="url(#ped440bd7d1)" style="fill: none; stroke: #292929; stroke-width: 0.5; stroke-linejoin: miter"/>
   </g>
   <g id="patch_153">
    <path d="M 125.254844 124.579063 
C 125.254844 124.579063 125.254844 124.579063 125.254844 124.579063 
C 125.254844 124.579063 125.254844 124.579063 125.254844 124.579063 
L 125.254844 124.579063 
C 125.254844 124.579063 125.254844 124.579063 125.254844 124.579063 
C 125.254844 124.579063 125.254844 124.579063 125.254844 124.579063 
L 125.254844 124.579063 
z
" clip-path="url(#ped440bd7d1)" style="fill: none; stroke: #292929; stroke-width: 0.5; stroke-linejoin: miter"/>
   </g>
   <g id="patch_154">
    <path d="M 125.254844 124.579063 
C 125.254844 124.579063 125.254844 124.579063 125.254844 124.579063 
C 125.254844 124.579063 125.254844 124.579063 125.254844 124.579063 
L 78.705213 129.163801 
C 78.855278 130.68744 79.08006 132.202793 79.378745 133.704386 
C 79.677431 135.205979 80.04966 136.692003 80.494089 138.157089 
L 125.254844 124.579063 
z
" clip-path="url(#ped440bd7d1)" style="fill: none; stroke: #292929; stroke-width: 0.5; stroke-linejoin: miter"/>
   </g>
   <g id="patch_155">
    <path d="M 125.254844 124.579063 
C 125.254844 124.579063 125.254844 124.579063 125.254844 124.579063 
C 125.254844 124.579063 125.254844 124.579063 125.254844 124.579063 
L 66.579549 118.80005 
C 66.390393 120.72058 66.295645 122.64924 66.295645 124.579062 
C 66.295645 126.508885 66.390393 128.437545 66.579549 130.358075 
L 125.254844 124.579063 
z
" clip-path="url(#ped440bd7d1)" style="fill: none; stroke: #292929; stroke-width: 0.5; stroke-linejoin: miter"/>
   </g>
   <g id="patch_156">
    <path d="M 125.254844 124.579063 
C 125.254844 124.579063 125.254844 124.579063 125.254844 124.579063 
C 125.254844 124.579063 125.254844 124.579063 125.254844 124.579063 
L 85.168835 112.419105 
C 84.770821 113.73118 84.437467 115.062005 84.169976 116.406774 
C 83.902484 117.751543 83.701179 119.108635 83.566786 120.473147 
L 125.254844 124.579063 
z
" clip-path="url(#ped440bd7d1)" style="fill: none; stroke: #292929; stroke-width: 0.5; stroke-linejoin: miter"/>
   </g>
   <g id="patch_157">
    <path d="M 125.254844 124.579063 
C 125.254844 124.579063 125.254844 124.579063 125.254844 124.579063 
C 125.254844 124.579063 125.254844 124.579063 125.254844 124.579063 
L 86.042822 103.6198 
C 85.356794 104.903268 84.734195 106.219645 84.177272 107.564175 
C 83.620349 108.908705 83.129775 110.279769 82.707321 111.672413 
L 125.254844 124.579063 
z
" clip-path="url(#ped440bd7d1)" style="fill: none; stroke: #292929; stroke-width: 0.5; stroke-linejoin: miter"/>
   </g>
   <g id="patch_158">
    <path d="M 125.254844 124.579063 
C 125.254844 124.579063 125.254844 124.579063 125.254844 124.579063 
C 125.254844 124.579063 125.254844 124.579063 125.254844 124.579063 
L 125.254844 124.579063 
C 125.254844 124.579063 125.254844 124.579063 125.254844 124.579063 
C 125.254844 124.579063 125.254844 124.579063 125.254844 124.579063 
L 125.254844 124.579063 
z
" clip-path="url(#ped440bd7d1)" style="fill: none; stroke: #292929; stroke-width: 0.5; stroke-linejoin: miter"/>
   </g>
   <g id="patch_159">
    <path d="M 125.254844 124.579063 
C 125.254844 124.579063 125.254844 124.579063 125.254844 124.579063 
C 125.254844 124.579063 125.254844 124.579063 125.254844 124.579063 
L 65.084776 51.261623 
C 62.684987 53.231079 60.383339 55.317171 58.188146 57.512365 
C 55.992953 59.707558 53.90686 62.009206 51.937404 64.408995 
L 125.254844 124.579063 
z
" clip-path="url(#ped440bd7d1)" style="fill: none; stroke: #292929; stroke-width: 0.5; stroke-linejoin: miter"/>
   </g>
   <g id="patch_160">
    <path d="M 125.254844 124.579063 
C 125.254844 124.579063 125.254844 124.579063 125.254844 124.579063 
C 125.254844 124.579063 125.254844 124.579063 125.254844 124.579063 
L 99.875158 77.09701 
C 98.320999 77.927725 96.808564 78.834244 95.343313 79.813293 
C 93.878063 80.792342 92.461764 81.842741 91.099533 82.960695 
L 125.254844 124.579063 
z
" clip-path="url(#ped440bd7d1)" style="fill: none; stroke: #292929; stroke-width: 0.5; stroke-linejoin: miter"/>
   </g>
   <g id="patch_161">
    <path d="M 125.254844 124.579063 
C 125.254844 124.579063 125.254844 124.579063 125.254844 124.579063 
C 125.254844 124.579063 125.254844 124.579063 125.254844 124.579063 
L 94.328472 22.628477 
C 90.991477 23.640743 87.706193 24.816237 84.484486 26.150711 
C 81.262779 27.485186 78.108533 28.977033 75.033141 30.620865 
L 125.254844 124.579063 
z
" clip-path="url(#ped440bd7d1)" style="fill: none; stroke: #292929; stroke-width: 0.5; stroke-linejoin: miter"/>
   </g>
   <g id="patch_162">
    <path d="M 125.254844 124.579063 
C 125.254844 124.579063 125.254844 124.579063 125.254844 124.579063 
C 125.254844 124.579063 125.254844 124.579063 125.254844 124.579063 
L 114.386703 14.232981 
C 110.774911 14.588711 107.182762 15.121556 103.623229 15.829591 
C 100.063696 16.537626 96.541072 17.419998 93.068079 18.473519 
L 125.254844 124.579063 
z
" clip-path="url(#ped440bd7d1)" style="fill: none; stroke: #292929; stroke-width: 0.5; stroke-linejoin: miter"/>
   </g>
   <g id="PathCollection_1">
    <defs>
     <path id="mea81904bde" d="M 0.193618 7.414054 
L 0.193618 7.414054 
C 0.054922 7.414054 -0.078235 7.358899 -0.176308 7.260826 
C -0.274381 7.162753 -0.329536 7.029596 -0.329536 6.890901 
L -0.329536 5.365008 
L -1.528416 6.56393 
L -1.528416 6.56393 
C -1.577018 6.612704 -1.634775 6.651408 -1.698366 6.677814 
C -1.761958 6.704221 -1.830141 6.717815 -1.898997 6.717815 
C -1.967853 6.717815 -2.036037 6.704221 -2.099628 6.677814 
C -2.163219 6.651408 -2.220976 6.612704 -2.269578 6.56393 
L -2.269578 6.56393 
C -2.318353 6.515327 -2.357056 6.457571 -2.383463 6.393979 
C -2.409869 6.330388 -2.423463 6.262205 -2.423463 6.193348 
C -2.423463 6.124492 -2.409869 6.056309 -2.383463 5.992718 
C -2.357056 5.929126 -2.318353 5.87137 -2.269578 5.822767 
L -0.329536 3.884106 
L -0.329536 0.820937 
L -2.98067 2.351538 
L -3.691824 5.001416 
L -3.691824 5.001416 
C -3.727584 5.135411 -3.815199 5.249836 -3.93523 5.319305 
C -4.055261 5.388775 -4.198123 5.407741 -4.332122 5.371997 
L -4.332122 5.371997 
C -4.466126 5.336237 -4.580558 5.248616 -4.650029 5.128576 
C -4.719499 5.008535 -4.73846 4.865662 -4.702703 4.731657 
L -4.262647 3.092721 
L -5.585535 3.855668 
L -5.585535 3.855668 
C -5.645013 3.890144 -5.710708 3.912561 -5.778854 3.921634 
C -5.847001 3.930706 -5.916272 3.926258 -5.982698 3.908543 
C -6.049125 3.890828 -6.111412 3.860192 -6.165991 3.818391 
C -6.220571 3.77659 -6.266379 3.724437 -6.300791 3.664922 
L -6.300791 3.664922 
C -6.335212 3.605364 -6.35755 3.539597 -6.366524 3.471396 
C -6.375498 3.403194 -6.370933 3.333888 -6.35309 3.267452 
C -6.335248 3.201017 -6.304476 3.138749 -6.26254 3.08422 
C -6.220605 3.029692 -6.168323 2.983966 -6.108695 2.949666 
L -4.785807 2.186762 
L -6.424743 1.746706 
L -6.424743 1.746706 
C -6.558747 1.710946 -6.673179 1.623325 -6.74265 1.503284 
C -6.81212 1.383244 -6.831081 1.240371 -6.795324 1.106366 
L -6.795324 1.106366 
C -6.777471 1.039969 -6.746703 0.977739 -6.704784 0.923241 
C -6.662864 0.868744 -6.61061 0.823041 -6.551015 0.788752 
C -6.491421 0.754464 -6.425647 0.732257 -6.357465 0.723406 
C -6.289282 0.714554 -6.220019 0.71923 -6.153645 0.737166 
L -3.505232 1.44698 
L -0.852424 -0.08496 
L -3.503767 -1.615666 
L -6.153645 -0.905851 
L -6.153645 -0.905851 
C -6.22011 -0.887939 -6.289462 -0.883321 -6.357716 -0.892262 
C -6.42597 -0.901202 -6.491793 -0.923527 -6.551403 -0.957953 
C -6.611013 -0.992379 -6.663247 -1.038234 -6.705103 -1.092883 
C -6.746958 -1.147533 -6.777619 -1.209911 -6.795324 -1.276432 
L -6.795324 -1.276432 
C -6.831068 -1.410431 -6.812101 -1.553293 -6.742632 -1.673324 
C -6.673162 -1.793355 -6.558738 -1.88097 -6.424743 -1.91673 
L -4.785807 -2.355447 
L -6.108695 -3.119732 
L -6.108695 -3.119732 
C -6.228699 -3.188976 -6.316415 -3.303132 -6.352417 -3.436921 
C -6.388419 -3.57071 -6.369839 -3.713469 -6.300791 -3.833586 
L -6.300791 -3.833586 
C -6.266491 -3.893214 -6.220765 -3.945496 -6.166237 -3.987431 
C -6.111708 -4.029367 -6.04944 -4.060139 -5.983005 -4.077981 
C -5.91657 -4.095823 -5.847263 -4.100389 -5.779062 -4.091415 
C -5.71086 -4.082441 -5.645094 -4.060102 -5.585535 -4.025682 
L -4.262647 -3.261396 
L -4.702703 -4.900332 
L -4.702703 -4.900332 
C -4.73846 -5.034337 -4.719499 -5.17721 -4.650029 -5.29725 
C -4.580558 -5.417291 -4.466126 -5.504912 -4.332122 -5.540672 
L -4.332122 -5.540672 
C -4.19831 -5.576464 -4.055613 -5.557686 -3.935617 -5.488496 
C -3.81562 -5.419305 -3.727882 -5.305212 -3.691824 -5.171472 
L -2.982009 -2.521594 
L -0.329411 -0.990302 
L -0.329411 -4.051588 
L -2.269453 -5.991589 
L -2.269453 -5.991589 
C -2.318227 -6.040191 -2.356931 -6.097947 -2.383337 -6.161539 
C -2.409744 -6.22513 -2.423338 -6.293314 -2.423338 -6.36217 
C -2.423338 -6.431026 -2.409744 -6.499209 -2.383337 -6.5628 
C -2.356931 -6.626392 -2.318227 -6.684149 -2.269453 -6.732751 
L -2.269453 -6.732751 
C -2.22085 -6.781526 -2.163094 -6.820229 -2.099502 -6.846635 
C -2.035911 -6.873042 -1.967728 -6.886636 -1.898871 -6.886636 
C -1.830015 -6.886636 -1.761832 -6.873042 -1.698241 -6.846635 
C -1.634649 -6.820229 -1.576893 -6.781526 -1.52829 -6.732751 
L -0.329411 -5.533829 
L -0.329411 -7.059722 
L -0.329411 -7.059722 
C -0.329411 -7.198418 -0.274255 -7.331575 -0.176182 -7.429647 
C -0.07811 -7.52772 0.055047 -7.582875 0.193743 -7.582875 
L 0.193743 -7.582875 
C 0.332439 -7.582875 0.465596 -7.52772 0.563669 -7.429647 
C 0.661741 -7.331575 0.716897 -7.198418 0.716897 -7.059722 
L 0.716897 -5.533829 
L 1.915777 -6.732751 
L 1.915777 -6.732751 
C 1.964379 -6.781526 2.022136 -6.820229 2.085727 -6.846635 
C 2.149318 -6.873042 2.217502 -6.886636 2.286358 -6.886636 
C 2.355214 -6.886636 2.423397 -6.873042 2.486989 -6.846635 
C 2.55058 -6.820229 2.608337 -6.781526 2.656939 -6.732751 
L 2.656939 -6.732751 
C 2.705714 -6.684149 2.744417 -6.626392 2.770823 -6.5628 
C 2.79723 -6.499209 2.810824 -6.431026 2.810824 -6.36217 
C 2.810824 -6.293314 2.79723 -6.22513 2.770823 -6.161539 
C 2.744417 -6.097947 2.705714 -6.040191 2.656939 -5.991589 
L 0.716897 -4.051588 
L 0.716897 -0.991139 
L 3.369495 -2.522954 
L 4.07931 -5.171367 
L 4.07931 -5.171367 
C 4.115368 -5.305107 4.203106 -5.4192 4.323103 -5.488391 
C 4.4431 -5.557582 4.585797 -5.576359 4.719608 -5.540567 
L 4.719608 -5.540567 
C 4.853612 -5.504807 4.968045 -5.417186 5.037515 -5.297146 
C 5.106986 -5.177105 5.125946 -5.034232 5.090189 -4.900227 
L 4.650133 -3.262673 
L 5.973022 -4.025577 
L 5.973022 -4.025577 
C 6.03258 -4.059998 6.098346 -4.082336 6.166548 -4.09131 
C 6.234749 -4.100284 6.304056 -4.095719 6.370491 -4.077876 
C 6.436926 -4.060034 6.499194 -4.029262 6.553723 -3.987327 
C 6.608252 -3.945391 6.653978 -3.893109 6.688277 -3.833481 
L 6.688277 -3.833481 
C 6.757325 -3.713365 6.775905 -3.570605 6.739903 -3.436816 
C 6.703901 -3.303027 6.616186 -3.188871 6.496181 -3.119628 
L 5.173293 -2.355342 
L 6.812229 -1.916625 
L 6.812229 -1.916625 
C 6.946224 -1.880865 7.060649 -1.79325 7.130118 -1.67322 
C 7.199588 -1.553189 7.218554 -1.410326 7.18281 -1.276327 
L 7.18281 -1.276327 
C 7.165106 -1.209806 7.134445 -1.147429 7.092589 -1.092779 
C 7.050733 -1.038129 6.998499 -0.992274 6.938889 -0.957848 
C 6.879279 -0.923422 6.813456 -0.901098 6.745202 -0.892157 
C 6.676949 -0.883217 6.607597 -0.887835 6.541131 -0.905746 
L 3.891253 -1.615561 
L 1.239492 -0.084604 
L 3.892718 1.447085 
L 6.541131 0.73727 
L 6.541131 0.73727 
C 6.674948 0.701466 6.817656 0.720237 6.937662 0.789429 
C 7.057669 0.858621 7.145413 0.972721 7.181471 1.10647 
L 7.181471 1.10647 
C 7.217274 1.240293 7.198497 1.383006 7.129297 1.503014 
C 7.060096 1.623021 6.945986 1.710762 6.812229 1.74681 
L 5.173293 2.186866 
L 6.496181 2.949771 
L 6.496181 2.949771 
C 6.555697 2.984183 6.607849 3.029991 6.649651 3.08457 
C 6.691452 3.13915 6.722088 3.201437 6.739803 3.267863 
C 6.757517 3.33429 6.761966 3.403561 6.752893 3.471707 
C 6.743821 3.539854 6.721404 3.605549 6.686927 3.665026 
L 6.686927 3.665026 
C 6.617458 3.784813 6.503196 3.87225 6.369416 3.907994 
C 6.235636 3.943739 6.092989 3.924946 5.973032 3.855772 
L 4.650144 3.091487 
L 5.08886 4.731783 
L 5.08886 4.731783 
C 5.124664 4.865606 5.105887 5.008319 5.036686 5.128326 
C 4.967486 5.248334 4.853376 5.336074 4.719619 5.372123 
L 4.719619 5.372123 
C 4.585619 5.407867 4.442757 5.3889 4.322726 5.319431 
C 4.202695 5.249961 4.115081 5.135537 4.07932 5.001542 
L 3.368166 2.351664 
L 0.717033 0.821063 
L 0.717033 3.884232 
L 2.657075 5.822893 
L 2.657075 5.822893 
C 2.70585 5.871495 2.744553 5.929252 2.770959 5.992843 
C 2.797366 6.056435 2.81096 6.124618 2.81096 6.193474 
C 2.81096 6.26233 2.797366 6.330514 2.770959 6.394105 
C 2.744553 6.457696 2.70585 6.515453 2.657075 6.564055 
L 2.657075 6.564055 
C 2.608473 6.61283 2.550716 6.651533 2.487125 6.67794 
C 2.423533 6.704346 2.35535 6.71794 2.286494 6.71794 
C 2.217638 6.71794 2.149454 6.704346 2.085863 6.67794 
C 2.022272 6.651533 1.964515 6.61283 1.915913 6.564055 
L 0.717033 5.365133 
L 0.717033 6.891026 
L 0.717033 6.891026 
C 0.717033 7.029722 0.661877 7.162879 0.563805 7.260952 
C 0.465732 7.359024 0.332575 7.41418 0.193879 7.41418 
L 0.193618 7.414054 
z
"/>
    </defs>
    <g clip-path="url(#ped440bd7d1)">
     <use xlink:href="#mea81904bde" x="88.061586" y="42.858714" style="fill: #9e2096; fill-opacity: 0.7"/>
    </g>
   </g>
   <g id="patch_163">
    <path d="M 125.254844 13.699063 
C 110.694216 13.699063 96.275171 16.567189 82.822905 22.1393 
C 69.370638 27.711411 57.146763 35.879144 46.850844 46.175063 
C 36.554925 56.470982 28.387192 68.694857 22.815081 82.147124 
C 17.24297 95.59939 14.374844 110.018434 14.374844 124.579063 
C 14.374844 139.139691 17.24297 153.558735 22.815081 167.011001 
C 28.387192 180.463268 36.554925 192.687143 46.850844 202.983062 
C 57.146763 213.278981 69.370638 221.446714 82.822905 227.018825 
C 96.275171 232.590936 110.694216 235.459063 125.254844 235.459063 
C 139.815472 235.459063 154.234516 232.590936 167.686783 227.018825 
C 181.139049 221.446714 193.362925 213.278981 203.658844 202.983062 
C 213.954763 192.687143 222.122495 180.463268 227.694606 167.011001 
C 233.266717 153.558735 236.134844 139.139691 236.134844 124.579063 
C 236.134844 110.018434 233.266717 95.59939 227.694606 82.147124 
C 222.122495 68.694857 213.954763 56.470982 203.658844 46.175063 
C 193.362925 35.879144 181.139049 27.711411 167.686783 22.1393 
C 154.234516 16.567189 139.815472 13.699063 125.254844 13.699063 
" style="fill: none; stroke: #000000; stroke-width: 0.8; stroke-linejoin: miter; stroke-linecap: square"/>
   </g>
  </g>
 </g>
 <defs>
  <clipPath id="ped440bd7d1">
   <path d="M 236.134844 124.579063 
C 236.134844 110.018434 233.266717 95.59939 227.694606 82.147124 
C 222.122495 68.694857 213.954763 56.470982 203.658844 46.175063 
C 193.362925 35.879144 181.139049 27.711411 167.686783 22.1393 
C 154.234516 16.567189 139.815472 13.699063 125.254844 13.699063 
C 110.694216 13.699063 96.275171 16.567189 82.822905 22.1393 
C 69.370638 27.711411 57.146763 35.879144 46.850844 46.175063 
C 36.554925 56.470982 28.387192 68.694857 22.815081 82.147124 
C 17.24297 95.59939 14.374844 110.018434 14.374844 124.579062 
C 14.374844 139.139691 17.24297 153.558735 22.815081 167.011001 
C 28.387192 180.463268 36.554925 192.687143 46.850844 202.983062 
C 57.146763 213.278981 69.370638 221.446714 82.822905 227.018825 
C 96.275171 232.590936 110.694216 235.459063 125.254844 235.459063 
C 139.815472 235.459063 154.234516 232.590936 167.686783 227.018825 
C 181.139049 221.446714 193.362925 213.278981 203.658844 202.983062 
C 213.954763 192.687143 222.122495 180.463268 227.694606 167.011001 
C 233.266717 153.558735 236.134844 139.139691 236.134844 124.579063 
M 125.254844 124.579063 
C 125.254844 124.579063 125.254844 124.579063 125.254844 124.579063 
C 125.254844 124.579063 125.254844 124.579063 125.254844 124.579063 
C 125.254844 124.579063 125.254844 124.579063 125.254844 124.579063 
C 125.254844 124.579063 125.254844 124.579063 125.254844 124.579063 
C 125.254844 124.579063 125.254844 124.579063 125.254844 124.579063 
C 125.254844 124.579063 125.254844 124.579063 125.254844 124.579063 
C 125.254844 124.579063 125.254844 124.579063 125.254844 124.579063 
C 125.254844 124.579063 125.254844 124.579063 125.254844 124.579063 
C 125.254844 124.579063 125.254844 124.579063 125.254844 124.579063 
C 125.254844 124.579063 125.254844 124.579063 125.254844 124.579063 
C 125.254844 124.579063 125.254844 124.579063 125.254844 124.579063 
C 125.254844 124.579063 125.254844 124.579063 125.254844 124.579063 
C 125.254844 124.579063 125.254844 124.579063 125.254844 124.579063 
C 125.254844 124.579063 125.254844 124.579063 125.254844 124.579063 
C 125.254844 124.579063 125.254844 124.579063 125.254844 124.579063 
C 125.254844 124.579063 125.254844 124.579063 125.254844 124.579063 
z
"/>
  </clipPath>
 </defs>
</svg>
