<?xml version="1.0" encoding="utf-8" standalone="no"?>
<!DOCTYPE svg PUBLIC "-//W3C//DTD SVG 1.1//EN"
  "http://www.w3.org/Graphics/SVG/1.1/DTD/svg11.dtd">
<svg xmlns:xlink="http://www.w3.org/1999/xlink" width="248.410469pt" height="249.158125pt" viewBox="0 0 248.410469 249.158125" xmlns="http://www.w3.org/2000/svg" version="1.1">
 <title>Ski Rose for Газпром, Gazprom</title>
 <metadata>
  <rdf:RDF xmlns:dc="http://purl.org/dc/elements/1.1/" xmlns:cc="http://creativecommons.org/ns#" xmlns:rdf="http://www.w3.org/1999/02/22-rdf-syntax-ns#">
   <cc:Work>
    <dc:type rdf:resource="http://purl.org/dc/dcmitype/StillImage"/>
    <dc:title>Ski Rose for Газпром, Gazprom</dc:title>
    <dc:date>2025-11-22T10:13:53.817543</dc:date>
    <dc:description>A 32-bin stacked histogram of downhill ski run orientations colored by difficulty.</dc:description>
    <dc:format>image/svg+xml</dc:format>
    <dc:source>https://openskimap.org/?obj=d4c30482dd7589be58b5597546bab89f29722bc2</dc:source>
    <dc:creator>
     <cc:Agent>
      <dc:title>https://github.com/dhimmel/openskistats</dc:title>
     </cc:Agent>
    </dc:creator>
    <dc:rights>
     <cc:Agent>
      <dc:title>https://creativecommons.org/licenses/by/4.0/</dc:title>
     </cc:Agent>
    </dc:rights>
   </cc:Work>
  </rdf:RDF>
 </metadata>
 <defs>
  <style type="text/css">*{stroke-linejoin: round; stroke-linecap: butt}</style>
 </defs>
 <g id="figure_1">
  <g id="patch_1">
   <path d="M 0 249.158125 
L 248.410469 249.158125 
L 248.410469 0 
L 0 0 
z
" style="fill: #ffffff"/>
  </g>
  <g id="axes_1">
   <g id="patch_2">
    <path d="M 236.134844 124.579062 
C 236.134844 110.018434 233.266717 95.59939 227.694606 82.147124 
C 222.122495 68.694857 213.954763 56.470982 203.658844 46.175063 
C 193.362925 35.879144 181.139049 27.711411 167.686783 22.1393 
C 154.234516 16.567189 139.815472 13.699062 125.254844 13.699062 
C 110.694216 13.699062 96.275171 16.567189 82.822905 22.1393 
C 69.370638 27.711411 57.146763 35.879144 46.850844 46.175063 
C 36.554925 56.470982 28.387192 68.694857 22.815081 82.147124 
C 17.24297 95.59939 14.374844 110.018434 14.374844 124.579062 
C 14.374844 139.139691 17.24297 153.558735 22.815081 167.011001 
C 28.387192 180.463268 36.554925 192.687143 46.850844 202.983062 
C 57.146763 213.278981 69.370638 221.446714 82.822905 227.018825 
C 96.275171 232.590936 110.694216 235.459062 125.254844 235.459062 
C 139.815472 235.459062 154.234516 232.590936 167.686783 227.018825 
C 181.139049 221.446714 193.362925 213.278981 203.658844 202.983062 
C 213.954763 192.687143 222.122495 180.463268 227.694606 167.011001 
C 233.266717 153.558735 236.134844 139.139691 236.134844 124.579063 
M 125.254844 124.579062 
C 125.254844 124.579062 125.254844 124.579062 125.254844 124.579062 
C 125.254844 124.579062 125.254844 124.579062 125.254844 124.579062 
C 125.254844 124.579062 125.254844 124.579062 125.254844 124.579062 
C 125.254844 124.579062 125.254844 124.579062 125.254844 124.579062 
C 125.254844 124.579062 125.254844 124.579062 125.254844 124.579062 
C 125.254844 124.579062 125.254844 124.579062 125.254844 124.579062 
C 125.254844 124.579062 125.254844 124.579062 125.254844 124.579062 
C 125.254844 124.579062 125.254844 124.579062 125.254844 124.579062 
C 125.254844 124.579062 125.254844 124.579062 125.254844 124.579062 
C 125.254844 124.579062 125.254844 124.579062 125.254844 124.579062 
C 125.254844 124.579062 125.254844 124.579062 125.254844 124.579062 
C 125.254844 124.579062 125.254844 124.579062 125.254844 124.579062 
C 125.254844 124.579062 125.254844 124.579062 125.254844 124.579062 
C 125.254844 124.579062 125.254844 124.579062 125.254844 124.579062 
C 125.254844 124.579062 125.254844 124.579062 125.254844 124.579062 
C 125.254844 124.579062 125.254844 124.579062 125.254844 124.579062 
z
" style="fill: #ffffff"/>
   </g>
   <g id="FillBetweenPolyCollection_1">
    <defs>
     <path id="m0ca9f9e34c" d="M 235.405717 -137.129169 
L 235.218154 -137.107799 
L 234.2557 -135.074651 
L 233.197628 -133.074344 
L 232.065159 -131.111861 
L 230.874373 -129.190511 
L 229.853198 -127.318067 
L 228.573315 -125.480709 
L 227.255347 -123.688918 
L 225.902823 -121.943502 
L 224.739193 -120.235482 
L 223.325661 -118.580794 
L 221.884936 -116.974109 
L 220.419126 -115.415784 
L 219.149183 -113.881154 
L 217.638274 -112.416553 
L 216.325058 -110.968528 
L 214.775964 -109.598365 
L 213.425675 -108.237565 
L 211.845125 -106.962071 
L 210.46385 -105.688681 
L 208.85847 -104.507608 
L 207.452227 -103.321374 
L 206.034792 -102.1768 
L 204.607521 -101.073729 
L 203.171763 -100.011952 
L 201.728861 -98.991214 
L 200.280149 -98.011208 
L 198.826957 -97.071577 
L 197.3706 -96.171911 
L 195.912388 -95.31175 
L 194.453616 -94.49058 
L 193.179419 -93.62405 
L 191.720246 -92.876692 
L 190.442048 -92.077921 
L 188.987032 -91.402185 
L 187.708912 -90.66927 
L 186.26248 -90.062602 
L 184.988391 -89.393314 
L 183.716083 -88.753969 
L 182.446401 -88.144022 
L 181.180174 -87.562894 
L 179.767471 -87.113572 
L 178.514215 -86.589522 
L 177.410198 -85.98613 
L 176.165655 -85.513823 
L 174.928382 -85.066946 
L 173.699069 -84.644725 
L 172.478378 -84.246354 
L 171.391235 -83.761031 
L 170.185578 -83.40763 
L 168.990296 -83.075668 
L 167.918442 -82.653661 
L 166.741309 -82.362129 
L 165.680721 -81.979076 
L 164.624539 -81.61458 
L 163.47573 -81.378209 
L 162.433056 -81.048968 
L 161.39578 -80.736601 
L 160.364184 -80.440572 
L 159.256374 -80.267406 
L 158.240531 -80.001464 
L 157.231059 -79.750062 
L 156.228139 -79.512638 
L 155.231931 -79.288625 
L 154.242567 -79.077452 
L 153.260155 -78.878549 
L 152.284776 -78.691343 
L 151.316488 -78.515262 
L 150.35532 -78.349737 
L 149.401274 -78.194201 
L 148.454329 -78.048093 
L 147.55533 -77.825121 
L 146.619347 -77.698938 
L 145.690323 -77.580678 
L 144.768135 -77.469809 
L 143.852638 -77.365812 
L 142.970578 -77.19618 
L 142.065306 -77.107781 
L 141.166244 -77.024899 
L 140.292981 -76.884186 
L 139.403306 -76.814653 
L 138.519179 -76.749413 
L 137.653981 -76.635155 
L 136.778095 -76.581265 
L 135.906931 -76.530601 
L 135.048714 -76.440653 
L 134.184372 -76.399642 
L 133.329666 -76.325828 
L 132.471159 -76.293568 
L 131.619423 -76.235283 
L 130.765686 -76.211023 
L 129.914345 -76.188296 
L 129.066221 -76.150921 
L 128.217789 -76.135333 
L 127.370941 -76.112457 
L 126.524216 -76.103675 
L 125.677957 -76.095119 
L 124.831738 -76.095935 
L 123.985479 -76.103987 
L 123.139137 -76.121419 
L 122.291949 -76.136163 
L 121.443556 -76.152061 
L 120.595473 -76.189643 
L 119.74419 -76.212678 
L 118.894185 -76.265062 
L 118.038852 -76.295734 
L 117.1863 -76.363344 
L 116.325811 -76.402314 
L 115.470136 -76.485689 
L 114.603459 -76.533773 
L 113.732425 -76.584736 
L 112.870335 -76.691719 
L 111.991606 -76.753371 
L 111.10764 -76.818904 
L 110.237933 -76.951508 
L 109.345024 -77.029623 
L 108.446155 -77.112789 
L 107.567968 -77.273364 
L 106.659202 -77.371275 
L 105.743929 -77.475547 
L 104.821977 -77.586687 
L 103.930981 -77.788116 
L 102.998321 -77.917292 
L 102.058696 -78.054788 
L 101.112031 -78.201151 
L 100.158277 -78.356937 
L 99.197412 -78.522708 
L 98.229439 -78.699029 
L 97.314458 -78.984498 
L 96.33587 -79.185367 
L 95.350382 -79.398349 
L 94.287456 -79.521233 
L 93.284911 -79.758869 
L 92.275825 -80.010477 
L 91.260382 -80.276618 
L 90.238789 -80.557849 
L 89.211278 -80.854721 
L 88.085061 -81.058839 
L 87.042839 -81.388248 
L 85.995536 -81.735046 
L 84.838889 -81.989532 
L 83.778793 -82.372727 
L 82.714678 -82.774958 
L 81.53094 -83.086627 
L 80.336307 -83.418807 
L 79.255496 -83.882277 
L 78.044742 -84.257827 
L 76.956403 -84.764901 
L 75.731736 -85.186604 
L 74.499068 -85.632786 
L 73.259086 -86.104226 
L 72.012502 -86.601669 
L 70.760054 -87.125831 
L 69.502503 -87.677393 
L 68.240635 -88.257006 
L 66.975256 -88.865285 
L 65.70719 -89.502814 
L 64.269589 -90.075265 
L 62.995528 -90.775012 
L 61.721455 -91.505674 
L 60.270963 -92.179295 
L 58.99667 -92.975535 
L 57.541863 -93.720479 
L 56.085098 -94.503201 
L 54.816855 -95.402692 
L 53.362759 -96.260017 
L 51.910432 -97.15671 
L 50.461181 -98.093237 
L 49.016325 -99.070011 
L 47.577189 -100.087392 
L 46.145109 -101.145692 
L 44.721428 -102.24517 
L 43.307493 -103.386037 
L 41.695062 -104.518134 
L 40.303054 -105.745704 
L 38.925001 -107.015057 
L 37.348024 -108.286497 
L 36.000763 -109.643052 
L 34.455034 -111.00894 
L 33.144641 -112.452524 
L 31.63687 -113.912642 
L 30.369523 -115.442645 
L 28.906592 -116.996291 
L 27.468584 -118.598199 
L 26.277791 -120.257631 
L 24.895901 -121.951071 
L 23.545402 -123.691458 
L 22.229047 -125.478155 
L 20.950173 -127.310376 
L 19.929099 -129.177684 
L 18.737093 -131.093967 
L 17.600878 -133.051613 
L 16.534775 -135.047614 
L 15.750842 -137.055468 
L 15.145705 -137.124414 
L 15.145705 -137.124414 
L 14.906307 -135.204418 
L 14.850252 -133.268092 
L 14.638785 -131.34463 
L 14.498806 -129.414776 
L 14.501828 -127.479232 
L 14.387246 -125.546589 
L 14.535385 -123.612828 
L 14.485213 -121.678458 
L 14.510051 -119.74384 
L 14.668095 -117.815287 
L 14.757716 -115.88275 
L 14.973501 -113.960177 
L 15.127255 -112.031609 
L 15.449961 -110.122975 
L 15.616409 -108.193489 
L 15.997478 -106.29565 
L 16.279167 -104.381615 
L 16.66384 -102.485973 
L 17.00927 -100.581597 
L 17.450064 -98.697425 
L 17.97689 -96.835097 
L 18.417559 -94.950461 
L 18.943349 -93.088163 
L 19.55828 -91.253064 
L 20.202255 -89.428958 
L 20.769628 -87.578907 
L 21.411875 -85.753767 
L 22.145815 -83.963336 
L 22.848854 -82.161113 
L 23.644432 -80.397598 
L 24.372493 -78.604327 
L 25.176275 -76.844034 
L 26.120194 -75.152349 
L 26.903256 -73.380467 
L 27.831892 -71.682715 
L 28.776515 -69.99425 
L 29.743958 -68.318851 
L 30.736185 -66.657954 
L 31.742743 -65.005284 
L 33.001238 -63.517733 
L 34.81901 -62.424236 
L 36.733622 -61.437489 
L 38.597218 -60.455793 
L 40.476465 -59.526325 
L 42.424829 -58.693094 
L 44.303698 -57.848087 
L 46.185325 -57.047314 
L 47.998311 -56.228256 
L 49.866436 -55.498315 
L 51.73215 -54.808631 
L 53.530348 -54.095597 
L 55.37488 -53.468695 
L 57.158658 -52.820656 
L 58.934948 -52.203597 
L 60.703064 -51.616548 
L 62.511883 -51.116494 
L 64.212336 -50.528579 
L 65.952412 -50.025688 
L 67.68215 -49.548868 
L 69.40114 -49.097114 
L 71.073499 -48.619619 
L 72.77179 -48.215746 
L 74.422022 -47.779046 
L 76.098562 -47.419157 
L 77.734499 -47.032907 
L 79.357455 -46.660759 
L 80.975666 -46.315881 
L 82.580801 -45.983252 
L 84.18082 -45.676597 
L 85.76783 -45.380366 
L 87.349487 -45.108829 
L 88.918363 -44.845932 
L 90.462077 -44.561178 
L 92.017932 -44.338059 
L 93.561602 -44.121081 
L 95.084389 -43.884515 
L 96.615383 -43.703721 
L 98.125114 -43.496848 
L 99.638085 -43.333083 
L 101.13554 -43.153657 
L 102.627642 -42.988008 
L 104.122915 -42.867957 
L 105.603899 -42.726986 
L 107.080194 -42.598517 
L 108.552045 -42.482184 
L 110.022704 -42.393791 
L 111.485868 -42.298905 
L 112.945478 -42.21517 
L 114.401841 -42.142319 
L 115.855276 -42.080111 
L 117.306113 -42.028333 
L 118.754692 -41.986798 
L 120.201361 -41.955349 
L 121.646476 -41.933856 
L 123.090589 -41.929498 
L 124.533522 -41.92379 
L 125.976192 -41.920709 
L 127.419272 -41.922899 
L 128.863167 -41.934874 
L 130.308244 -41.956704 
L 131.754863 -41.988489 
L 133.20338 -42.030357 
L 134.654144 -42.082465 
L 136.107494 -42.145 
L 137.563761 -42.218174 
L 139.023264 -42.302227 
L 140.48631 -42.397426 
L 141.956869 -42.485987 
L 143.428583 -42.60262 
L 144.904733 -42.731384 
L 146.385561 -42.872643 
L 147.880606 -42.9932 
L 149.372528 -43.159125 
L 150.869794 -43.338818 
L 152.382619 -43.502687 
L 153.892148 -43.709811 
L 155.422847 -43.891072 
L 156.945411 -44.12787 
L 158.488917 -44.344912 
L 160.04444 -44.568469 
L 161.58791 -44.853426 
L 163.156611 -45.116354 
L 164.737904 -45.388296 
L 166.324735 -45.684535 
L 167.92437 -45.991571 
L 169.529323 -46.324185 
L 171.147132 -46.669418 
L 172.769905 -47.041529 
L 174.4358 -47.380424 
L 176.081642 -47.788147 
L 177.731691 -48.224776 
L 179.429658 -48.628774 
L 181.101573 -49.106539 
L 182.820232 -49.558388 
L 184.549638 -50.03529 
L 186.289381 -50.538248 
L 188.039003 -51.068257 
L 189.797989 -51.626308 
L 191.565775 -52.21338 
L 193.341737 -52.830447 
L 195.125191 -53.47848 
L 196.969548 -54.105219 
L 198.767434 -54.818219 
L 200.632663 -55.508016 
L 202.500644 -56.237751 
L 204.379183 -57.000493 
L 206.194529 -57.857535 
L 208.142115 -58.64755 
L 210.021471 -59.535342 
L 211.900409 -60.464717 
L 213.764131 -61.446001 
L 215.678873 -62.432349 
L 217.496716 -63.525499 
L 218.761076 -65.009023 
L 219.786558 -66.649953 
L 220.778764 -68.311173 
L 221.726313 -69.998131 
L 222.682583 -71.680116 
L 223.565047 -73.40201 
L 224.473931 -75.11025 
L 225.245534 -76.88595 
L 226.062808 -78.638226 
L 226.834589 -80.410932 
L 227.69262 -82.147946 
L 228.354962 -83.966846 
L 229.084849 -85.758614 
L 229.694537 -87.595027 
L 230.37615 -89.405965 
L 230.938244 -91.257214 
L 231.519077 -93.102163 
L 232.054098 -94.961008 
L 232.543642 -96.832293 
L 233.061696 -98.696927 
L 233.456717 -100.591285 
L 233.807858 -102.493702 
L 234.23908 -104.380028 
L 234.50943 -106.296115 
L 234.868281 -108.197224 
L 235.109938 -110.116365 
L 235.395133 -112.030162 
L 235.549739 -113.958872 
L 235.76237 -115.881932 
L 235.834468 -117.815723 
L 235.975833 -119.74488 
L 236.082733 -121.676932 
L 236.041747 -123.61224 
L 236.116155 -125.546535 
L 235.966623 -127.478152 
L 235.936047 -129.411508 
L 235.908772 -131.346947 
L 235.660307 -133.268161 
L 235.568751 -135.201084 
L 235.405717 -137.129169 
z
" style="stroke: #ffee9c"/>
    </defs>
    <g clip-path="url(#p670027b048)">
     <use xlink:href="#m0ca9f9e34c" x="0" y="249.158125" style="fill: #ffee9c; stroke: #ffee9c"/>
    </g>
   </g>
   <g id="matplotlib.axis_1">
    <g id="xtick_1">
     <g id="line2d_1">
      <path d="M 125.254844 124.579062 
L 125.254844 13.699062 
" clip-path="url(#p670027b048)" style="fill: none; stroke: #b0b0b0; stroke-width: 0.8; stroke-linecap: square"/>
     </g>
     <g id="text_1">
      <!-- N -->
      <g transform="translate(121.070469 7.958437) scale(0.1 -0.1)">
       <defs>
        <path id="DejaVuSans-Bold-4e" d="M 588 4666 
L 1931 4666 
L 3628 1466 
L 3628 4666 
L 4769 4666 
L 4769 0 
L 3425 0 
L 1728 3200 
L 1728 0 
L 588 0 
L 588 4666 
z
" transform="scale(0.015625)"/>
       </defs>
       <use xlink:href="#DejaVuSans-Bold-4e"/>
      </g>
     </g>
    </g>
    <g id="xtick_2">
     <g id="line2d_2">
      <path d="M 125.254844 124.579062 
L 203.658844 46.175063 
" clip-path="url(#p670027b048)" style="fill: none; stroke: #b0b0b0; stroke-width: 0.8; stroke-linecap: square"/>
     </g>
    </g>
    <g id="xtick_3">
     <g id="line2d_3">
      <path d="M 125.254844 124.579062 
L 236.134844 124.579062 
" clip-path="url(#p670027b048)" style="fill: none; stroke: #b0b0b0; stroke-width: 0.8; stroke-linecap: square"/>
     </g>
     <g id="text_2">
      <!-- E -->
      <g transform="translate(241.219219 127.338437) scale(0.1 -0.1)">
       <defs>
        <path id="DejaVuSans-Bold-45" d="M 588 4666 
L 3834 4666 
L 3834 3756 
L 1791 3756 
L 1791 2888 
L 3713 2888 
L 3713 1978 
L 1791 1978 
L 1791 909 
L 3903 909 
L 3903 0 
L 588 0 
L 588 4666 
z
" transform="scale(0.015625)"/>
       </defs>
       <use xlink:href="#DejaVuSans-Bold-45"/>
      </g>
     </g>
    </g>
    <g id="xtick_4">
     <g id="line2d_4">
      <path d="M 125.254844 124.579062 
L 203.658844 202.983062 
" clip-path="url(#p670027b048)" style="fill: none; stroke: #b0b0b0; stroke-width: 0.8; stroke-linecap: square"/>
     </g>
    </g>
    <g id="xtick_5">
     <g id="line2d_5">
      <path d="M 125.254844 124.579062 
L 125.254844 235.459062 
" clip-path="url(#p670027b048)" style="fill: none; stroke: #b0b0b0; stroke-width: 0.8; stroke-linecap: square"/>
     </g>
     <g id="text_3">
      <!-- S -->
      <g transform="translate(121.654062 246.718437) scale(0.1 -0.1)">
       <defs>
        <path id="DejaVuSans-Bold-53" d="M 3834 4519 
L 3834 3531 
Q 3450 3703 3084 3790 
Q 2719 3878 2394 3878 
Q 1963 3878 1756 3759 
Q 1550 3641 1550 3391 
Q 1550 3203 1689 3098 
Q 1828 2994 2194 2919 
L 2706 2816 
Q 3484 2659 3812 2340 
Q 4141 2022 4141 1434 
Q 4141 663 3683 286 
Q 3225 -91 2284 -91 
Q 1841 -91 1394 -6 
Q 947 78 500 244 
L 500 1259 
Q 947 1022 1364 901 
Q 1781 781 2169 781 
Q 2563 781 2772 912 
Q 2981 1044 2981 1288 
Q 2981 1506 2839 1625 
Q 2697 1744 2272 1838 
L 1806 1941 
Q 1106 2091 782 2419 
Q 459 2747 459 3303 
Q 459 4000 909 4375 
Q 1359 4750 2203 4750 
Q 2588 4750 2994 4692 
Q 3400 4634 3834 4519 
z
" transform="scale(0.015625)"/>
       </defs>
       <use xlink:href="#DejaVuSans-Bold-53"/>
      </g>
     </g>
    </g>
    <g id="xtick_6">
     <g id="line2d_6">
      <path d="M 125.254844 124.579062 
L 46.850844 202.983062 
" clip-path="url(#p670027b048)" style="fill: none; stroke: #b0b0b0; stroke-width: 0.8; stroke-linecap: square"/>
     </g>
    </g>
    <g id="xtick_7">
     <g id="line2d_7">
      <path d="M 125.254844 124.579062 
L 14.374844 124.579062 
" clip-path="url(#p670027b048)" style="fill: none; stroke: #b0b0b0; stroke-width: 0.8; stroke-linecap: square"/>
     </g>
     <g id="text_4">
      <!-- W -->
      <g transform="translate(0.36 127.338437) scale(0.1 -0.1)">
       <defs>
        <path id="DejaVuSans-Bold-57" d="M 191 4666 
L 1344 4666 
L 2150 1275 
L 2950 4666 
L 4109 4666 
L 4909 1275 
L 5716 4666 
L 6859 4666 
L 5759 0 
L 4372 0 
L 3525 3547 
L 2688 0 
L 1300 0 
L 191 4666 
z
" transform="scale(0.015625)"/>
       </defs>
       <use xlink:href="#DejaVuSans-Bold-57"/>
      </g>
     </g>
    </g>
    <g id="xtick_8">
     <g id="line2d_8">
      <path d="M 125.254844 124.579062 
L 46.850844 46.175063 
" clip-path="url(#p670027b048)" style="fill: none; stroke: #b0b0b0; stroke-width: 0.8; stroke-linecap: square"/>
     </g>
    </g>
   </g>
   <g id="matplotlib.axis_2"/>
   <g id="patch_3">
    <path d="M 125.254844 124.579062 
C 125.254844 124.579062 125.254844 124.579062 125.254844 124.579062 
C 125.254844 124.579062 125.254844 124.579062 125.254844 124.579062 
L 126.613867 110.780668 
C 126.162225 110.736185 125.708671 110.713903 125.254844 110.713903 
C 124.801016 110.713903 124.347463 110.736185 123.895821 110.780668 
z
" clip-path="url(#p670027b048)" style="fill: #d9d9d9"/>
   </g>
   <g id="patch_4">
    <path d="M 125.254844 124.579062 
C 125.254844 124.579062 125.254844 124.579062 125.254844 124.579062 
C 125.254844 124.579062 125.254844 124.579062 125.254844 124.579062 
L 129.902332 109.258346 
C 129.400862 109.106226 128.892226 108.97882 128.378261 108.876586 
C 127.864295 108.774351 127.34562 108.697413 126.824109 108.646049 
z
" clip-path="url(#p670027b048)" style="fill: #d9d9d9"/>
   </g>
   <g id="patch_5">
    <path d="M 125.254844 124.579062 
C 125.254844 124.579062 125.254844 124.579062 125.254844 124.579062 
C 125.254844 124.579062 125.254844 124.579062 125.254844 124.579062 
L 131.135506 113.577117 
C 130.775396 113.384634 130.406053 113.209948 130.02881 113.053689 
C 129.651567 112.89743 129.26688 112.759786 128.876138 112.641256 
z
" clip-path="url(#p670027b048)" style="fill: #d9d9d9"/>
   </g>
   <g id="patch_6">
    <path d="M 125.254844 124.579062 
C 125.254844 124.579062 125.254844 124.579062 125.254844 124.579062 
C 125.254844 124.579062 125.254844 124.579062 125.254844 124.579062 
L 137.545235 109.603177 
C 137.055052 109.200894 136.545414 108.822921 136.01816 108.470621 
C 135.490907 108.118322 134.946674 107.792121 134.387429 107.493198 
z
" clip-path="url(#p670027b048)" style="fill: #d9d9d9"/>
   </g>
   <g id="patch_7">
    <path d="M 125.254844 124.579062 
C 125.254844 124.579062 125.254844 124.579062 125.254844 124.579062 
C 125.254844 124.579062 125.254844 124.579062 125.254844 124.579062 
L 138.485323 113.721089 
C 138.129925 113.288036 137.75348 112.872692 137.357347 112.476559 
C 136.961214 112.080426 136.545871 111.703981 136.112817 111.348584 
z
" clip-path="url(#p670027b048)" style="fill: #d9d9d9"/>
   </g>
   <g id="patch_8">
    <path d="M 125.254844 124.579062 
C 125.254844 124.579062 125.254844 124.579062 125.254844 124.579062 
C 125.254844 124.579062 125.254844 124.579062 125.254844 124.579062 
L 138.051867 117.738911 
C 137.827978 117.320046 137.58366 116.912425 137.319793 116.517521 
C 137.055927 116.122617 136.772831 115.740906 136.471528 115.373768 
z
" clip-path="url(#p670027b048)" style="fill: #d9d9d9"/>
   </g>
   <g id="patch_9">
    <path d="M 125.254844 124.579062 
C 125.254844 124.579062 125.254844 124.579062 125.254844 124.579062 
C 125.254844 124.579062 125.254844 124.579062 125.254844 124.579062 
L 133.444111 122.094875 
C 133.3628 121.826828 133.268378 121.562935 133.161185 121.304149 
C 133.053992 121.045362 132.934158 120.791995 132.802116 120.544961 
z
" clip-path="url(#p670027b048)" style="fill: #d9d9d9"/>
   </g>
   <g id="patch_10">
    <path d="M 125.254844 124.579062 
C 125.254844 124.579062 125.254844 124.579062 125.254844 124.579062 
C 125.254844 124.579062 125.254844 124.579062 125.254844 124.579062 
L 142.81217 122.849817 
C 142.755569 122.275139 142.670787 121.703587 142.558131 121.137225 
C 142.445474 120.570862 142.305079 120.010372 142.137452 119.457779 
z
" clip-path="url(#p670027b048)" style="fill: #d9d9d9"/>
   </g>
   <g id="patch_11">
    <path d="M 125.254844 124.579062 
C 125.254844 124.579062 125.254844 124.579062 125.254844 124.579062 
C 125.254844 124.579062 125.254844 124.579062 125.254844 124.579062 
L 143.570386 126.382986 
C 143.629431 125.783491 143.659007 125.181458 143.659007 124.579062 
C 143.659007 123.976667 143.629431 123.374634 143.570386 122.775139 
z
" clip-path="url(#p670027b048)" style="fill: #d9d9d9"/>
   </g>
   <g id="patch_12">
    <path d="M 125.254844 124.579062 
C 125.254844 124.579062 125.254844 124.579062 125.254844 124.579062 
C 125.254844 124.579062 125.254844 124.579062 125.254844 124.579062 
L 146.333261 130.973131 
C 146.542549 130.283203 146.717837 129.583415 146.858491 128.876295 
C 146.999146 128.169176 147.104999 127.455576 147.175666 126.738075 
z
" clip-path="url(#p670027b048)" style="fill: #d9d9d9"/>
   </g>
   <g id="patch_13">
    <path d="M 125.254844 124.579062 
C 125.254844 124.579062 125.254844 124.579062 125.254844 124.579062 
C 125.254844 124.579062 125.254844 124.579062 125.254844 124.579062 
L 137.770579 131.268862 
C 137.989546 130.859204 138.188268 130.439041 138.366027 130.009893 
C 138.543786 129.580744 138.700368 129.143126 138.835208 128.698621 
z
" clip-path="url(#p670027b048)" style="fill: #d9d9d9"/>
   </g>
   <g id="patch_14">
    <path d="M 125.254844 124.579062 
C 125.254844 124.579062 125.254844 124.579062 125.254844 124.579062 
C 125.254844 124.579062 125.254844 124.579062 125.254844 124.579062 
L 131.442834 129.657415 
C 131.609056 129.454872 131.765233 129.244291 131.910802 129.026432 
C 132.056371 128.808572 132.191156 128.583697 132.314671 128.352619 
z
" clip-path="url(#p670027b048)" style="fill: #d9d9d9"/>
   </g>
   <g id="patch_15">
    <path d="M 125.254844 124.579062 
C 125.254844 124.579062 125.254844 124.579062 125.254844 124.579062 
C 125.254844 124.579062 125.254844 124.579062 125.254844 124.579062 
L 125.254844 124.579062 
C 125.254844 124.579062 125.254844 124.579062 125.254844 124.579062 
C 125.254844 124.579062 125.254844 124.579062 125.254844 124.579062 
z
" clip-path="url(#p670027b048)" style="fill: #d9d9d9"/>
   </g>
   <g id="patch_16">
    <path d="M 125.254844 124.579062 
C 125.254844 124.579062 125.254844 124.579062 125.254844 124.579062 
C 125.254844 124.579062 125.254844 124.579062 125.254844 124.579062 
L 125.254844 124.579062 
C 125.254844 124.579062 125.254844 124.579062 125.254844 124.579062 
C 125.254844 124.579062 125.254844 124.579062 125.254844 124.579062 
z
" clip-path="url(#p670027b048)" style="fill: #d9d9d9"/>
   </g>
   <g id="patch_17">
    <path d="M 125.254844 124.579062 
C 125.254844 124.579062 125.254844 124.579062 125.254844 124.579062 
C 125.254844 124.579062 125.254844 124.579062 125.254844 124.579062 
L 125.254844 124.579062 
C 125.254844 124.579062 125.254844 124.579062 125.254844 124.579062 
C 125.254844 124.579062 125.254844 124.579062 125.254844 124.579062 
z
" clip-path="url(#p670027b048)" style="fill: #d9d9d9"/>
   </g>
   <g id="patch_18">
    <path d="M 125.254844 124.579062 
C 125.254844 124.579062 125.254844 124.579062 125.254844 124.579062 
C 125.254844 124.579062 125.254844 124.579062 125.254844 124.579062 
L 125.254844 124.579062 
C 125.254844 124.579062 125.254844 124.579062 125.254844 124.579062 
C 125.254844 124.579062 125.254844 124.579062 125.254844 124.579062 
z
" clip-path="url(#p670027b048)" style="fill: #d9d9d9"/>
   </g>
   <g id="patch_19">
    <path d="M 125.254844 124.579062 
C 125.254844 124.579062 125.254844 124.579062 125.254844 124.579062 
C 125.254844 124.579062 125.254844 124.579062 125.254844 124.579062 
L 124.958281 127.590119 
C 125.056837 127.599826 125.155811 127.604688 125.254844 127.604688 
C 125.353877 127.604688 125.452851 127.599826 125.551407 127.590119 
z
" clip-path="url(#p670027b048)" style="fill: #d9d9d9"/>
   </g>
   <g id="patch_20">
    <path d="M 125.254844 124.579062 
C 125.254844 124.579062 125.254844 124.579062 125.254844 124.579062 
C 125.254844 124.579062 125.254844 124.579062 125.254844 124.579062 
L 125.254844 124.579062 
C 125.254844 124.579062 125.254844 124.579062 125.254844 124.579062 
C 125.254844 124.579062 125.254844 124.579062 125.254844 124.579062 
z
" clip-path="url(#p670027b048)" style="fill: #d9d9d9"/>
   </g>
   <g id="patch_21">
    <path d="M 125.254844 124.579062 
C 125.254844 124.579062 125.254844 124.579062 125.254844 124.579062 
C 125.254844 124.579062 125.254844 124.579062 125.254844 124.579062 
L 125.254844 124.579062 
C 125.254844 124.579062 125.254844 124.579062 125.254844 124.579062 
C 125.254844 124.579062 125.254844 124.579062 125.254844 124.579062 
z
" clip-path="url(#p670027b048)" style="fill: #d9d9d9"/>
   </g>
   <g id="patch_22">
    <path d="M 125.254844 124.579062 
C 125.254844 124.579062 125.254844 124.579062 125.254844 124.579062 
C 125.254844 124.579062 125.254844 124.579062 125.254844 124.579062 
L 116.888213 134.773831 
C 117.221903 135.047684 117.568838 135.304988 117.927763 135.544814 
C 118.286688 135.78464 118.657172 136.0067 119.037876 136.21019 
z
" clip-path="url(#p670027b048)" style="fill: #d9d9d9"/>
   </g>
   <g id="patch_23">
    <path d="M 125.254844 124.579062 
C 125.254844 124.579062 125.254844 124.579062 125.254844 124.579062 
C 125.254844 124.579062 125.254844 124.579062 125.254844 124.579062 
L 119.066854 129.657415 
C 119.233076 129.859957 119.409142 130.054216 119.594416 130.23949 
C 119.77969 130.424764 119.97395 130.60083 120.176492 130.767052 
z
" clip-path="url(#p670027b048)" style="fill: #d9d9d9"/>
   </g>
   <g id="patch_24">
    <path d="M 125.254844 124.579062 
C 125.254844 124.579062 125.254844 124.579062 125.254844 124.579062 
C 125.254844 124.579062 125.254844 124.579062 125.254844 124.579062 
L 115.270741 129.915677 
C 115.445416 130.242471 115.636031 130.560493 115.841897 130.868593 
C 116.047763 131.176692 116.268631 131.474499 116.503704 131.760937 
z
" clip-path="url(#p670027b048)" style="fill: #d9d9d9"/>
   </g>
   <g id="patch_25">
    <path d="M 125.254844 124.579062 
C 125.254844 124.579062 125.254844 124.579062 125.254844 124.579062 
C 125.254844 124.579062 125.254844 124.579062 125.254844 124.579062 
L 109.134254 129.46919 
C 109.294315 129.996841 109.480186 130.516315 109.691196 131.025737 
C 109.902205 131.535158 110.138098 132.033913 110.398023 132.520198 
z
" clip-path="url(#p670027b048)" style="fill: #d9d9d9"/>
   </g>
   <g id="patch_26">
    <path d="M 125.254844 124.579062 
C 125.254844 124.579062 125.254844 124.579062 125.254844 124.579062 
C 125.254844 124.579062 125.254844 124.579062 125.254844 124.579062 
L 114.824238 125.606388 
C 114.857864 125.947797 114.908232 126.287349 114.97516 126.623819 
C 115.042087 126.960288 115.125495 127.293269 115.22508 127.621558 
z
" clip-path="url(#p670027b048)" style="fill: #d9d9d9"/>
   </g>
   <g id="patch_27">
    <path d="M 125.254844 124.579062 
C 125.254844 124.579062 125.254844 124.579062 125.254844 124.579062 
C 125.254844 124.579062 125.254844 124.579062 125.254844 124.579062 
L 104.177448 122.50312 
C 104.109499 123.193015 104.075463 123.88583 104.075463 124.579062 
C 104.075463 125.272295 104.109499 125.96511 104.177448 126.655005 
z
" clip-path="url(#p670027b048)" style="fill: #d9d9d9"/>
   </g>
   <g id="patch_28">
    <path d="M 125.254844 124.579062 
C 125.254844 124.579062 125.254844 124.579062 125.254844 124.579062 
C 125.254844 124.579062 125.254844 124.579062 125.254844 124.579062 
L 96.013309 115.70874 
C 95.72297 116.665859 95.479798 117.636656 95.284672 118.617625 
C 95.089545 119.598593 94.942699 120.588551 94.844663 121.583921 
z
" clip-path="url(#p670027b048)" style="fill: #d9d9d9"/>
   </g>
   <g id="patch_29">
    <path d="M 125.254844 124.579062 
C 125.254844 124.579062 125.254844 124.579062 125.254844 124.579062 
C 125.254844 124.579062 125.254844 124.579062 125.254844 124.579062 
L 106.198915 114.393457 
C 105.865525 115.017186 105.562959 115.656907 105.292311 116.310311 
C 105.021662 116.963714 104.783257 117.630012 104.577956 118.306797 
z
" clip-path="url(#p670027b048)" style="fill: #d9d9d9"/>
   </g>
   <g id="patch_30">
    <path d="M 125.254844 124.579062 
C 125.254844 124.579062 125.254844 124.579062 125.254844 124.579062 
C 125.254844 124.579062 125.254844 124.579062 125.254844 124.579062 
L 111.819229 113.552738 
C 111.458321 113.992506 111.119222 114.449728 110.803156 114.922754 
C 110.487091 115.395779 110.19444 115.884037 109.926261 116.385764 
z
" clip-path="url(#p670027b048)" style="fill: #d9d9d9"/>
   </g>
   <g id="patch_31">
    <path d="M 125.254844 124.579062 
C 125.254844 124.579062 125.254844 124.579062 125.254844 124.579062 
C 125.254844 124.579062 125.254844 124.579062 125.254844 124.579062 
L 114.062701 110.941397 
C 113.61632 111.307732 113.188194 111.695763 112.779869 112.104088 
C 112.371545 112.512412 111.983514 112.940538 111.617178 113.38692 
z
" clip-path="url(#p670027b048)" style="fill: #d9d9d9"/>
   </g>
   <g id="patch_32">
    <path d="M 125.254844 124.579062 
C 125.254844 124.579062 125.254844 124.579062 125.254844 124.579062 
C 125.254844 124.579062 125.254844 124.579062 125.254844 124.579062 
L 118.718853 112.351084 
C 118.318613 112.565017 117.929118 112.798471 117.551774 113.050604 
C 117.17443 113.302737 116.809693 113.573245 116.45888 113.86115 
z
" clip-path="url(#p670027b048)" style="fill: #d9d9d9"/>
   </g>
   <g id="patch_33">
    <path d="M 125.254844 124.579062 
C 125.254844 124.579062 125.254844 124.579062 125.254844 124.579062 
C 125.254844 124.579062 125.254844 124.579062 125.254844 124.579062 
L 122.341876 114.976295 
C 122.027563 115.071641 121.718121 115.182361 121.414667 115.308056 
C 121.111213 115.43375 120.814113 115.574268 120.524441 115.729101 
z
" clip-path="url(#p670027b048)" style="fill: #d9d9d9"/>
   </g>
   <g id="patch_34">
    <path d="M 125.254844 124.579062 
C 125.254844 124.579062 125.254844 124.579062 125.254844 124.579062 
C 125.254844 124.579062 125.254844 124.579062 125.254844 124.579062 
L 124.18557 113.722544 
C 123.83022 113.757543 123.476802 113.809967 123.126594 113.879628 
C 122.776385 113.949289 122.429808 114.036102 122.088114 114.139754 
z
" clip-path="url(#p670027b048)" style="fill: #d9d9d9"/>
   </g>
   <g id="patch_35">
    <path d="M 123.895821 110.780668 
C 124.347463 110.736185 124.801016 110.713903 125.254844 110.713903 
C 125.708671 110.713903 126.162225 110.736185 126.613867 110.780668 
L 130.226149 74.104557 
C 128.574043 73.941839 126.914944 73.860332 125.254844 73.860332 
C 123.594744 73.860332 121.935645 73.941839 120.283539 74.104557 
z
" clip-path="url(#p670027b048)" style="fill: #a1a1d8"/>
   </g>
   <g id="patch_36">
    <path d="M 126.824109 108.646049 
C 127.34562 108.697413 127.864295 108.774351 128.378261 108.876586 
C 128.892226 108.97882 129.400862 109.106226 129.902332 109.258346 
L 135.903578 89.47489 
C 134.754566 89.126341 133.589134 88.834416 132.411491 88.600168 
C 131.233848 88.36592 130.045414 88.189632 128.850481 88.071942 
z
" clip-path="url(#p670027b048)" style="fill: #a1a1d8"/>
   </g>
   <g id="patch_37">
    <path d="M 128.876138 112.641256 
C 129.26688 112.759786 129.651567 112.89743 130.02881 113.053689 
C 130.406053 113.209948 130.775396 113.384634 131.135506 113.577117 
L 139.083046 98.708317 
C 138.236257 98.255699 137.367757 97.844929 136.480682 97.47749 
C 135.593608 97.110052 134.689027 96.786388 133.770208 96.507667 
z
" clip-path="url(#p670027b048)" style="fill: #a1a1d8"/>
   </g>
   <g id="patch_38">
    <path d="M 134.387429 107.493198 
C 134.946674 107.792121 135.490907 108.118322 136.01816 108.470621 
C 136.545414 108.822921 137.055052 109.200894 137.545235 109.603177 
L 144.640204 100.957933 
C 143.867049 100.323421 143.063207 99.727251 142.231582 99.171577 
C 141.399958 98.615903 140.541552 98.101395 139.659466 97.62991 
z
" clip-path="url(#p670027b048)" style="fill: #a1a1d8"/>
   </g>
   <g id="patch_39">
    <path d="M 136.112817 111.348584 
C 136.545871 111.703981 136.961214 112.080426 137.357347 112.476559 
C 137.75348 112.872692 138.129925 113.288036 138.485323 113.721089 
L 147.070094 106.675749 
C 146.484092 105.961703 145.863385 105.276859 145.210216 104.62369 
C 144.557047 103.970521 143.872203 103.349814 143.158157 102.763812 
z
" clip-path="url(#p670027b048)" style="fill: #a1a1d8"/>
   </g>
   <g id="patch_40">
    <path d="M 136.471528 115.373768 
C 136.772831 115.740906 137.055927 116.122617 137.319793 116.517521 
C 137.58366 116.912425 137.827978 117.320046 138.051867 117.738911 
L 154.11761 109.151592 
C 153.612646 108.206871 153.061603 107.287511 152.466472 106.396834 
C 151.87134 105.506157 151.232838 104.645236 150.55327 103.81718 
z
" clip-path="url(#p670027b048)" style="fill: #a1a1d8"/>
   </g>
   <g id="patch_41">
    <path d="M 132.802116 120.544961 
C 132.934158 120.791995 133.053992 121.045362 133.161185 121.304149 
C 133.268378 121.562935 133.3628 121.826828 133.444111 122.094875 
L 156.303942 115.160422 
C 155.995656 114.144138 155.637659 113.143603 155.231244 112.162431 
C 154.824829 111.181259 154.370486 110.220632 153.869857 109.284019 
z
" clip-path="url(#p670027b048)" style="fill: #a1a1d8"/>
   </g>
   <g id="patch_42">
    <path d="M 142.137452 119.457779 
C 142.305079 120.010372 142.445474 120.570862 142.558131 121.137225 
C 142.670787 121.703587 142.755569 122.275139 142.81217 122.849817 
L 154.135884 121.734528 
C 154.042778 120.789209 153.903316 119.84903 153.718 118.917389 
C 153.532685 117.985747 153.301741 117.063765 153.026002 116.154774 
z
" clip-path="url(#p670027b048)" style="fill: #a1a1d8"/>
   </g>
   <g id="patch_43">
    <path d="M 143.570386 122.775139 
C 143.629431 123.374634 143.659007 123.976667 143.659007 124.579062 
C 143.659007 125.181458 143.629431 125.783491 143.570386 126.382986 
L 146.758089 126.696947 
C 146.82741 125.993114 146.862134 125.286301 146.862134 124.579062 
C 146.862134 123.871824 146.82741 123.165011 146.758089 122.461178 
z
" clip-path="url(#p670027b048)" style="fill: #a1a1d8"/>
   </g>
   <g id="patch_44">
    <path d="M 147.175666 126.738075 
C 147.104999 127.455576 146.999146 128.169176 146.858491 128.876295 
C 146.717837 129.583415 146.542549 130.283203 146.333261 130.973131 
L 148.0528 131.494747 
C 148.279161 130.748536 148.468748 129.991661 148.620877 129.226856 
C 148.773006 128.46205 148.887494 127.690237 148.963927 126.914203 
z
" clip-path="url(#p670027b048)" style="fill: #a1a1d8"/>
   </g>
   <g id="patch_45">
    <path d="M 138.835208 128.698621 
C 138.700368 129.143126 138.543786 129.580744 138.366027 130.009893 
C 138.188268 130.439041 137.989546 130.859204 137.770579 131.268862 
L 138.327103 131.566331 
C 138.555807 131.138456 138.763365 130.699611 138.949028 130.251379 
C 139.134692 129.803148 139.298236 129.346072 139.439071 128.881801 
z
" clip-path="url(#p670027b048)" style="fill: #a1a1d8"/>
   </g>
   <g id="patch_46">
    <path d="M 132.314671 128.352619 
C 132.191156 128.583697 132.056371 128.808572 131.910802 129.026432 
C 131.765233 129.244291 131.609056 129.454872 131.442834 129.657415 
L 131.442834 129.657415 
C 131.609056 129.454872 131.765233 129.244291 131.910802 129.026432 
C 132.056371 128.808572 132.191156 128.583697 132.314671 128.352619 
z
" clip-path="url(#p670027b048)" style="fill: #a1a1d8"/>
   </g>
   <g id="patch_47">
    <path d="M 125.254844 124.579062 
C 125.254844 124.579062 125.254844 124.579062 125.254844 124.579062 
C 125.254844 124.579062 125.254844 124.579062 125.254844 124.579062 
L 125.254844 124.579062 
C 125.254844 124.579062 125.254844 124.579062 125.254844 124.579062 
C 125.254844 124.579062 125.254844 124.579062 125.254844 124.579062 
z
" clip-path="url(#p670027b048)" style="fill: #a1a1d8"/>
   </g>
   <g id="patch_48">
    <path d="M 125.254844 124.579062 
C 125.254844 124.579062 125.254844 124.579062 125.254844 124.579062 
C 125.254844 124.579062 125.254844 124.579062 125.254844 124.579062 
L 125.254844 124.579062 
C 125.254844 124.579062 125.254844 124.579062 125.254844 124.579062 
C 125.254844 124.579062 125.254844 124.579062 125.254844 124.579062 
z
" clip-path="url(#p670027b048)" style="fill: #a1a1d8"/>
   </g>
   <g id="patch_49">
    <path d="M 125.254844 124.579062 
C 125.254844 124.579062 125.254844 124.579062 125.254844 124.579062 
C 125.254844 124.579062 125.254844 124.579062 125.254844 124.579062 
L 125.254844 124.579062 
C 125.254844 124.579062 125.254844 124.579062 125.254844 124.579062 
C 125.254844 124.579062 125.254844 124.579062 125.254844 124.579062 
z
" clip-path="url(#p670027b048)" style="fill: #a1a1d8"/>
   </g>
   <g id="patch_50">
    <path d="M 125.254844 124.579062 
C 125.254844 124.579062 125.254844 124.579062 125.254844 124.579062 
C 125.254844 124.579062 125.254844 124.579062 125.254844 124.579062 
L 125.254844 124.579062 
C 125.254844 124.579062 125.254844 124.579062 125.254844 124.579062 
C 125.254844 124.579062 125.254844 124.579062 125.254844 124.579062 
z
" clip-path="url(#p670027b048)" style="fill: #a1a1d8"/>
   </g>
   <g id="patch_51">
    <path d="M 125.551407 127.590119 
C 125.452851 127.599826 125.353877 127.604688 125.254844 127.604688 
C 125.155811 127.604688 125.056837 127.599826 124.958281 127.590119 
L 124.958281 127.590119 
C 125.056837 127.599826 125.155811 127.604688 125.254844 127.604688 
C 125.353877 127.604688 125.452851 127.599826 125.551407 127.590119 
z
" clip-path="url(#p670027b048)" style="fill: #a1a1d8"/>
   </g>
   <g id="patch_52">
    <path d="M 125.254844 124.579062 
C 125.254844 124.579062 125.254844 124.579062 125.254844 124.579062 
C 125.254844 124.579062 125.254844 124.579062 125.254844 124.579062 
L 125.254844 124.579062 
C 125.254844 124.579062 125.254844 124.579062 125.254844 124.579062 
C 125.254844 124.579062 125.254844 124.579062 125.254844 124.579062 
z
" clip-path="url(#p670027b048)" style="fill: #a1a1d8"/>
   </g>
   <g id="patch_53">
    <path d="M 125.254844 124.579062 
C 125.254844 124.579062 125.254844 124.579062 125.254844 124.579062 
C 125.254844 124.579062 125.254844 124.579062 125.254844 124.579062 
L 125.254844 124.579062 
C 125.254844 124.579062 125.254844 124.579062 125.254844 124.579062 
C 125.254844 124.579062 125.254844 124.579062 125.254844 124.579062 
z
" clip-path="url(#p670027b048)" style="fill: #a1a1d8"/>
   </g>
   <g id="patch_54">
    <path d="M 119.037876 136.21019 
C 118.657172 136.0067 118.286688 135.78464 117.927763 135.544814 
C 117.568838 135.304988 117.221903 135.047684 116.888213 134.773831 
L 116.888213 134.773831 
C 117.221903 135.047684 117.568838 135.304988 117.927763 135.544814 
C 118.286688 135.78464 118.657172 136.0067 119.037876 136.21019 
z
" clip-path="url(#p670027b048)" style="fill: #a1a1d8"/>
   </g>
   <g id="patch_55">
    <path d="M 120.176492 130.767052 
C 119.97395 130.60083 119.77969 130.424764 119.594416 130.23949 
C 119.409142 130.054216 119.233076 129.859957 119.066854 129.657415 
L 119.066854 129.657415 
C 119.233076 129.859957 119.409142 130.054216 119.594416 130.23949 
C 119.77969 130.424764 119.97395 130.60083 120.176492 130.767052 
z
" clip-path="url(#p670027b048)" style="fill: #a1a1d8"/>
   </g>
   <g id="patch_56">
    <path d="M 116.503704 131.760937 
C 116.268631 131.474499 116.047763 131.176692 115.841897 130.868593 
C 115.636031 130.560493 115.445416 130.242471 115.270741 129.915677 
L 111.913025 131.710413 
C 112.146445 132.147111 112.401165 132.572085 112.676264 132.983801 
C 112.951364 133.395516 113.246512 133.793477 113.560642 134.176246 
z
" clip-path="url(#p670027b048)" style="fill: #a1a1d8"/>
   </g>
   <g id="patch_57">
    <path d="M 110.398023 132.520198 
C 110.138098 132.033913 109.902205 131.535158 109.691196 131.025737 
C 109.480186 130.516315 109.294315 129.996841 109.134254 129.46919 
L 108.876308 129.547437 
C 109.038931 130.083531 109.227776 130.611317 109.442161 131.12889 
C 109.656547 131.646463 109.896215 132.153198 110.160299 132.647265 
z
" clip-path="url(#p670027b048)" style="fill: #a1a1d8"/>
   </g>
   <g id="patch_58">
    <path d="M 115.22508 127.621558 
C 115.125495 127.293269 115.042087 126.960288 114.97516 126.623819 
C 114.908232 126.287349 114.857864 125.947797 114.824238 125.606388 
L 104.61208 126.612197 
C 104.678628 127.287866 104.778308 127.95986 104.910763 128.625752 
C 105.043217 129.291644 105.208285 129.950632 105.40537 130.600335 
z
" clip-path="url(#p670027b048)" style="fill: #a1a1d8"/>
   </g>
   <g id="patch_59">
    <path d="M 104.177448 126.655005 
C 104.109499 125.96511 104.075463 125.272295 104.075463 124.579062 
C 104.075463 123.88583 104.109499 123.193015 104.177448 122.50312 
L 100.062537 122.097837 
C 99.981323 122.922419 99.940642 123.750491 99.940642 124.579062 
C 99.940642 125.407634 99.981323 126.235706 100.062537 127.060288 
z
" clip-path="url(#p670027b048)" style="fill: #a1a1d8"/>
   </g>
   <g id="patch_60">
    <path d="M 94.844663 121.583921 
C 94.942699 120.588551 95.089545 119.598593 95.284672 118.617625 
C 95.479798 117.636656 95.72297 116.665859 96.013309 115.70874 
L 70.24332 107.891499 
C 69.697111 109.692109 69.239637 111.51845 68.872549 113.363927 
C 68.50546 115.209403 68.229201 117.071791 68.044769 118.944362 
z
" clip-path="url(#p670027b048)" style="fill: #a1a1d8"/>
   </g>
   <g id="patch_61">
    <path d="M 104.577956 118.306797 
C 104.783257 117.630012 105.021662 116.963714 105.292311 116.310311 
C 105.562959 115.656907 105.865525 115.017186 106.198915 114.393457 
L 93.012882 107.345375 
C 92.448798 108.400703 91.936867 109.483089 91.47894 110.588625 
C 91.021012 111.694161 90.617638 112.821513 90.270277 113.96661 
z
" clip-path="url(#p670027b048)" style="fill: #a1a1d8"/>
   </g>
   <g id="patch_62">
    <path d="M 109.926261 116.385764 
C 110.19444 115.884037 110.487091 115.395779 110.803156 114.922754 
C 111.119222 114.449728 111.458321 113.992506 111.819229 113.552738 
L 95.030365 99.774474 
C 94.218474 100.763766 93.455644 101.792324 92.74463 102.856432 
C 92.033616 103.92054 91.375275 105.018915 90.771985 106.147591 
z
" clip-path="url(#p670027b048)" style="fill: #a1a1d8"/>
   </g>
   <g id="patch_63">
    <path d="M 111.617178 113.38692 
C 111.983514 112.940538 112.371545 112.512412 112.779869 112.104088 
C 113.188194 111.695763 113.61632 111.307732 114.062701 110.941397 
L 96.914701 90.046499 
C 95.784399 90.974114 94.700321 91.956665 93.666383 92.990602 
C 92.632446 94.02454 91.649895 95.108617 90.72228 96.23892 
z
" clip-path="url(#p670027b048)" style="fill: #a1a1d8"/>
   </g>
   <g id="patch_64">
    <path d="M 116.45888 113.86115 
C 116.809693 113.573245 117.17443 113.302737 117.551774 113.050604 
C 117.929118 112.798471 118.318613 112.565017 118.718853 112.351084 
L 106.441049 89.380928 
C 105.288961 89.996731 104.167802 90.668728 103.081622 91.394491 
C 101.995441 92.120253 100.945548 92.898907 99.935735 93.727639 
z
" clip-path="url(#p670027b048)" style="fill: #a1a1d8"/>
   </g>
   <g id="patch_65">
    <path d="M 120.524441 115.729101 
C 120.814113 115.574268 121.111213 115.43375 121.414667 115.308056 
C 121.718121 115.182361 122.027563 115.071641 122.341876 114.976295 
L 115.396032 92.078914 
C 114.332253 92.401608 113.284959 92.776335 112.257933 93.201744 
C 111.230906 93.627152 110.225385 94.102728 109.245001 94.626754 
z
" clip-path="url(#p670027b048)" style="fill: #a1a1d8"/>
   </g>
   <g id="patch_66">
    <path d="M 122.088114 114.139754 
C 122.429808 114.036102 122.776385 113.949289 123.126594 113.879628 
C 123.476802 113.809967 123.83022 113.757543 124.18557 113.722544 
L 120.998361 81.362271 
C 119.583811 81.501592 118.176954 81.710279 116.782871 81.98758 
C 115.388788 82.26488 114.00916 82.610459 112.648971 83.023068 
z
" clip-path="url(#p670027b048)" style="fill: #a1a1d8"/>
   </g>
   <g id="patch_67">
    <path d="M 120.283539 74.104557 
C 121.935645 73.941839 123.594744 73.860332 125.254844 73.860332 
C 126.914944 73.860332 128.574043 73.941839 130.226149 74.104557 
L 133.300401 42.891146 
C 130.626634 42.627803 127.941548 42.495893 125.254844 42.495893 
C 122.568139 42.495893 119.883054 42.627803 117.209286 42.891146 
z
" clip-path="url(#p670027b048)" style="fill: #ff8c8e"/>
   </g>
   <g id="patch_68">
    <path d="M 128.850481 88.071942 
C 130.045414 88.189632 131.233848 88.36592 132.411491 88.600168 
C 133.589134 88.834416 134.754566 89.126341 135.903578 89.47489 
L 142.798729 66.744625 
C 140.905721 66.170387 138.985661 65.689437 137.045484 65.303512 
C 135.105307 64.917586 133.147351 64.627151 131.178689 64.433255 
z
" clip-path="url(#p670027b048)" style="fill: #ff8c8e"/>
   </g>
   <g id="patch_69">
    <path d="M 133.770208 96.507667 
C 134.689027 96.786388 135.593608 97.110052 136.480682 97.47749 
C 137.367757 97.844929 138.236257 98.255699 139.083046 98.708317 
L 147.4424 83.069065 
C 146.083716 82.342833 144.690194 81.683747 143.266869 81.094186 
C 141.843544 80.504626 140.392132 79.985302 138.917873 79.53809 
z
" clip-path="url(#p670027b048)" style="fill: #ff8c8e"/>
   </g>
   <g id="patch_70">
    <path d="M 139.659466 97.62991 
C 140.541552 98.101395 141.399958 98.615903 142.231582 99.171577 
C 143.063207 99.727251 143.867049 100.323421 144.640204 100.957933 
L 155.96583 87.157617 
C 154.740971 86.1524 153.467496 85.207927 152.150006 84.327608 
C 150.832515 83.447289 149.472598 82.632186 148.075166 81.885243 
z
" clip-path="url(#p670027b048)" style="fill: #ff8c8e"/>
   </g>
   <g id="patch_71">
    <path d="M 143.158157 102.763812 
C 143.872203 103.349814 144.557047 103.970521 145.210216 104.62369 
C 145.863385 105.276859 146.484092 105.961703 147.070094 106.675749 
L 162.749307 93.808152 
C 161.742129 92.580902 160.675304 91.403842 159.552684 90.281222 
C 158.430065 89.158603 157.253004 88.091777 156.025754 87.084599 
z
" clip-path="url(#p670027b048)" style="fill: #ff8c8e"/>
   </g>
   <g id="patch_72">
    <path d="M 150.55327 103.81718 
C 151.232838 104.645236 151.87134 105.506157 152.466472 106.396834 
C 153.061603 107.287511 153.612646 108.206871 154.11761 109.151592 
L 169.262625 101.056413 
C 168.492694 99.615973 167.652505 98.214202 166.745093 96.856164 
C 165.837681 95.498126 164.86414 94.185459 163.827987 92.922902 
z
" clip-path="url(#p670027b048)" style="fill: #ff8c8e"/>
   </g>
   <g id="patch_73">
    <path d="M 153.869857 109.284019 
C 154.370486 110.220632 154.824829 111.181259 155.231244 112.162431 
C 155.637659 113.143603 155.995656 114.144138 156.303942 115.160422 
L 175.32001 109.39196 
C 174.822914 107.753253 174.245661 106.139939 173.590337 104.557846 
C 172.935012 102.975753 172.202407 101.426788 171.395166 99.916547 
z
" clip-path="url(#p670027b048)" style="fill: #ff8c8e"/>
   </g>
   <g id="patch_74">
    <path d="M 153.026002 116.154774 
C 153.301741 117.063765 153.532685 117.985747 153.718 118.917389 
C 153.903316 119.84903 154.042778 120.789209 154.135884 121.734528 
L 164.973408 120.667125 
C 164.845364 119.367078 164.653569 118.0741 164.398715 116.792862 
C 164.143861 115.511625 163.826255 114.243673 163.447046 112.993585 
z
" clip-path="url(#p670027b048)" style="fill: #ff8c8e"/>
   </g>
   <g id="patch_75">
    <path d="M 146.758089 122.461178 
C 146.82741 123.165011 146.862134 123.871824 146.862134 124.579062 
C 146.862134 125.286301 146.82741 125.993114 146.758089 126.696947 
L 149.901404 127.006537 
C 149.980859 126.199818 150.020658 125.389685 150.020658 124.579062 
C 150.020658 123.76844 149.980859 122.958307 149.901404 122.151588 
z
" clip-path="url(#p670027b048)" style="fill: #ff8c8e"/>
   </g>
   <g id="patch_76">
    <path d="M 148.963927 126.914203 
C 148.887494 127.690237 148.773006 128.46205 148.620877 129.226856 
C 148.468748 129.991661 148.279161 130.748536 148.0528 131.494747 
L 155.483116 133.748709 
C 155.783252 132.759292 156.03463 131.755736 156.236341 130.741665 
C 156.438052 129.727595 156.589854 128.704232 156.691197 127.675273 
z
" clip-path="url(#p670027b048)" style="fill: #ff8c8e"/>
   </g>
   <g id="patch_77">
    <path d="M 139.439071 128.881801 
C 139.298236 129.346072 139.134692 129.803148 138.949028 130.251379 
C 138.763365 130.699611 138.555807 131.138456 138.327103 131.566331 
L 139.870074 132.391066 
C 140.125772 131.912687 140.35783 131.422043 140.565408 130.920906 
C 140.772986 130.419768 140.955834 129.908741 141.113292 129.38967 
z
" clip-path="url(#p670027b048)" style="fill: #ff8c8e"/>
   </g>
   <g id="patch_78">
    <path d="M 132.314671 128.352619 
C 132.191156 128.583697 132.056371 128.808572 131.910802 129.026432 
C 131.765233 129.244291 131.609056 129.454872 131.442834 129.657415 
L 131.442834 129.657415 
C 131.609056 129.454872 131.765233 129.244291 131.910802 129.026432 
C 132.056371 128.808572 132.191156 128.583697 132.314671 128.352619 
z
" clip-path="url(#p670027b048)" style="fill: #ff8c8e"/>
   </g>
   <g id="patch_79">
    <path d="M 125.254844 124.579062 
C 125.254844 124.579062 125.254844 124.579062 125.254844 124.579062 
C 125.254844 124.579062 125.254844 124.579062 125.254844 124.579062 
L 125.254844 124.579062 
C 125.254844 124.579062 125.254844 124.579062 125.254844 124.579062 
C 125.254844 124.579062 125.254844 124.579062 125.254844 124.579062 
z
" clip-path="url(#p670027b048)" style="fill: #ff8c8e"/>
   </g>
   <g id="patch_80">
    <path d="M 125.254844 124.579062 
C 125.254844 124.579062 125.254844 124.579062 125.254844 124.579062 
C 125.254844 124.579062 125.254844 124.579062 125.254844 124.579062 
L 125.254844 124.579062 
C 125.254844 124.579062 125.254844 124.579062 125.254844 124.579062 
C 125.254844 124.579062 125.254844 124.579062 125.254844 124.579062 
z
" clip-path="url(#p670027b048)" style="fill: #ff8c8e"/>
   </g>
   <g id="patch_81">
    <path d="M 125.254844 124.579062 
C 125.254844 124.579062 125.254844 124.579062 125.254844 124.579062 
C 125.254844 124.579062 125.254844 124.579062 125.254844 124.579062 
L 125.254844 124.579062 
C 125.254844 124.579062 125.254844 124.579062 125.254844 124.579062 
C 125.254844 124.579062 125.254844 124.579062 125.254844 124.579062 
z
" clip-path="url(#p670027b048)" style="fill: #ff8c8e"/>
   </g>
   <g id="patch_82">
    <path d="M 125.254844 124.579062 
C 125.254844 124.579062 125.254844 124.579062 125.254844 124.579062 
C 125.254844 124.579062 125.254844 124.579062 125.254844 124.579062 
L 125.254844 124.579062 
C 125.254844 124.579062 125.254844 124.579062 125.254844 124.579062 
C 125.254844 124.579062 125.254844 124.579062 125.254844 124.579062 
z
" clip-path="url(#p670027b048)" style="fill: #ff8c8e"/>
   </g>
   <g id="patch_83">
    <path d="M 125.551407 127.590119 
C 125.452851 127.599826 125.353877 127.604688 125.254844 127.604688 
C 125.155811 127.604688 125.056837 127.599826 124.958281 127.590119 
L 124.958281 127.590119 
C 125.056837 127.599826 125.155811 127.604688 125.254844 127.604688 
C 125.353877 127.604688 125.452851 127.599826 125.551407 127.590119 
z
" clip-path="url(#p670027b048)" style="fill: #ff8c8e"/>
   </g>
   <g id="patch_84">
    <path d="M 125.254844 124.579062 
C 125.254844 124.579062 125.254844 124.579062 125.254844 124.579062 
C 125.254844 124.579062 125.254844 124.579062 125.254844 124.579062 
L 125.254844 124.579062 
C 125.254844 124.579062 125.254844 124.579062 125.254844 124.579062 
C 125.254844 124.579062 125.254844 124.579062 125.254844 124.579062 
z
" clip-path="url(#p670027b048)" style="fill: #ff8c8e"/>
   </g>
   <g id="patch_85">
    <path d="M 125.254844 124.579062 
C 125.254844 124.579062 125.254844 124.579062 125.254844 124.579062 
C 125.254844 124.579062 125.254844 124.579062 125.254844 124.579062 
L 125.254844 124.579062 
C 125.254844 124.579062 125.254844 124.579062 125.254844 124.579062 
C 125.254844 124.579062 125.254844 124.579062 125.254844 124.579062 
z
" clip-path="url(#p670027b048)" style="fill: #ff8c8e"/>
   </g>
   <g id="patch_86">
    <path d="M 119.037876 136.21019 
C 118.657172 136.0067 118.286688 135.78464 117.927763 135.544814 
C 117.568838 135.304988 117.221903 135.047684 116.888213 134.773831 
L 116.888213 134.773831 
C 117.221903 135.047684 117.568838 135.304988 117.927763 135.544814 
C 118.286688 135.78464 118.657172 136.0067 119.037876 136.21019 
z
" clip-path="url(#p670027b048)" style="fill: #ff8c8e"/>
   </g>
   <g id="patch_87">
    <path d="M 120.176492 130.767052 
C 119.97395 130.60083 119.77969 130.424764 119.594416 130.23949 
C 119.409142 130.054216 119.233076 129.859957 119.066854 129.657415 
L 119.066854 129.657415 
C 119.233076 129.859957 119.409142 130.054216 119.594416 130.23949 
C 119.77969 130.424764 119.97395 130.60083 120.176492 130.767052 
z
" clip-path="url(#p670027b048)" style="fill: #ff8c8e"/>
   </g>
   <g id="patch_88">
    <path d="M 113.560642 134.176246 
C 113.246512 133.793477 112.951364 133.395516 112.676264 132.983801 
C 112.401165 132.572085 112.146445 132.147111 111.913025 131.710413 
L 111.913025 131.710413 
C 112.146445 132.147111 112.401165 132.572085 112.676264 132.983801 
C 112.951364 133.395516 113.246512 133.793477 113.560642 134.176246 
z
" clip-path="url(#p670027b048)" style="fill: #ff8c8e"/>
   </g>
   <g id="patch_89">
    <path d="M 110.160299 132.647265 
C 109.896215 132.153198 109.656547 131.646463 109.442161 131.12889 
C 109.227776 130.611317 109.038931 130.083531 108.876308 129.547437 
L 98.718584 132.628749 
C 98.982062 133.49732 99.288026 134.352432 99.63537 135.190996 
C 99.982715 136.029559 100.371021 136.850564 100.798886 137.651044 
z
" clip-path="url(#p670027b048)" style="fill: #ff8c8e"/>
   </g>
   <g id="patch_90">
    <path d="M 105.40537 130.600335 
C 105.208285 129.950632 105.043217 129.291644 104.910763 128.625752 
C 104.778308 127.95986 104.678628 127.287866 104.61208 126.612197 
L 94.844663 127.574204 
C 94.942699 128.569574 95.089545 129.559532 95.284672 130.5405 
C 95.479798 131.521469 95.72297 132.492266 96.013309 133.449385 
z
" clip-path="url(#p670027b048)" style="fill: #ff8c8e"/>
   </g>
   <g id="patch_91">
    <path d="M 100.062537 127.060288 
C 99.981323 126.235706 99.940642 125.407634 99.940642 124.579062 
C 99.940642 123.750491 99.981323 122.922419 100.062537 122.097837 
L 85.195342 120.633546 
C 85.066199 121.944753 85.001511 123.261511 85.001511 124.579062 
C 85.001511 125.896614 85.066199 127.213372 85.195342 128.524579 
z
" clip-path="url(#p670027b048)" style="fill: #ff8c8e"/>
   </g>
   <g id="patch_92">
    <path d="M 68.044769 118.944362 
C 68.229201 117.071791 68.50546 115.209403 68.872549 113.363927 
C 69.239637 111.51845 69.697111 109.692109 70.24332 107.891499 
L 63.699 105.906301 
C 63.087813 107.921116 62.575915 109.964724 62.165157 112.029744 
C 61.7544 114.094763 61.445276 116.178705 61.238903 118.274043 
z
" clip-path="url(#p670027b048)" style="fill: #ff8c8e"/>
   </g>
   <g id="patch_93">
    <path d="M 90.270277 113.96661 
C 90.617638 112.821513 91.021012 111.694161 91.47894 110.588625 
C 91.936867 109.483089 92.448798 108.400703 93.012882 107.345375 
L 66.733059 93.298517 
C 65.7092 95.214022 64.780004 97.178642 63.948828 99.185279 
C 63.117651 101.191917 62.385496 103.238153 61.755007 105.316598 
z
" clip-path="url(#p670027b048)" style="fill: #ff8c8e"/>
   </g>
   <g id="patch_94">
    <path d="M 90.771985 106.147591 
C 91.375275 105.018915 92.033616 103.92054 92.74463 102.856432 
C 93.455644 101.792324 94.218474 100.763766 95.030365 99.774474 
L 72.800124 81.530587 
C 71.391083 83.247508 70.067188 85.032574 68.833219 86.879338 
C 67.599251 88.726102 66.456698 90.632338 65.409686 92.591159 
z
" clip-path="url(#p670027b048)" style="fill: #ff8c8e"/>
   </g>
   <g id="patch_95">
    <path d="M 90.72228 96.23892 
C 91.649895 95.108617 92.632446 94.02454 93.666383 92.990602 
C 94.700321 91.956665 95.784399 90.974114 96.914701 90.046499 
L 84.31186 74.689893 
C 82.678913 76.030018 81.112747 77.449508 79.619018 78.943237 
C 78.125289 80.436966 76.705799 82.003132 75.365674 83.636079 
z
" clip-path="url(#p670027b048)" style="fill: #ff8c8e"/>
   </g>
   <g id="patch_96">
    <path d="M 99.935735 93.727639 
C 100.945548 92.898907 101.995441 92.120253 103.081622 91.394491 
C 104.167802 90.668728 105.288961 89.996731 106.441049 89.380928 
L 86.038899 51.21119 
C 83.637459 52.494787 81.300488 53.895514 79.036426 55.408312 
C 76.772364 56.921109 74.583941 58.544155 72.479061 60.271585 
z
" clip-path="url(#p670027b048)" style="fill: #ff8c8e"/>
   </g>
   <g id="patch_97">
    <path d="M 109.245001 94.626754 
C 110.225385 94.102728 111.230906 93.627152 112.257933 93.201744 
C 113.284959 92.776335 114.332253 92.401608 115.396032 92.078914 
L 104.084525 54.789876 
C 101.800221 55.482812 99.551315 56.287483 97.34593 57.200984 
C 95.140545 58.114484 92.981339 59.135712 90.876112 60.26098 
z
" clip-path="url(#p670027b048)" style="fill: #ff8c8e"/>
   </g>
   <g id="patch_98">
    <path d="M 112.648971 83.023068 
C 114.00916 82.610459 115.388788 82.26488 116.782871 81.98758 
C 118.176954 81.710279 119.583811 81.501592 120.998361 81.362271 
L 117.682313 47.693869 
C 115.165746 47.941729 112.662865 48.312997 110.18271 48.80633 
C 107.702556 49.299664 105.248117 49.914468 102.82826 50.648524 
z
" clip-path="url(#p670027b048)" style="fill: #ff8c8e"/>
   </g>
   <g id="patch_99">
    <path d="M 117.209286 42.891146 
C 119.883054 42.627803 122.568139 42.495893 125.254844 42.495893 
C 127.941548 42.495893 130.626634 42.627803 133.300401 42.891146 
L 134.205944 33.697015 
C 131.231239 33.404032 128.243942 33.257276 125.254844 33.257276 
C 122.265745 33.257276 119.278448 33.404032 116.303743 33.697015 
z
" clip-path="url(#p670027b048)" style="fill: #828282"/>
   </g>
   <g id="patch_100">
    <path d="M 131.178689 64.433255 
C 133.147351 64.627151 135.105307 64.917586 137.045484 65.303512 
C 138.985661 65.689437 140.905721 66.170387 142.798729 66.744625 
L 144.795625 60.16174 
C 142.68715 59.522141 140.548543 58.986448 138.387529 58.556595 
C 136.226515 58.126743 134.045699 57.803249 131.852958 57.587283 
z
" clip-path="url(#p670027b048)" style="fill: #828282"/>
   </g>
   <g id="patch_101">
    <path d="M 138.917873 79.53809 
C 140.392132 79.985302 141.843544 80.504626 143.266869 81.094186 
C 144.690194 81.683747 146.083716 82.342833 147.4424 83.069065 
L 150.688883 76.995321 
C 149.131396 76.162827 147.533975 75.407303 145.902389 74.731478 
C 144.270803 74.055653 142.60702 73.460342 140.917048 72.947695 
z
" clip-path="url(#p670027b048)" style="fill: #828282"/>
   </g>
   <g id="patch_102">
    <path d="M 148.075166 81.885243 
C 149.472598 82.632186 150.832515 83.447289 152.150006 84.327608 
C 153.467496 85.207927 154.740971 86.1524 155.96583 87.157617 
L 168.045799 72.438133 
C 166.339149 71.037521 164.564761 69.721545 162.729044 68.494958 
C 160.893328 67.268372 158.998496 66.132653 157.051392 65.091905 
z
" clip-path="url(#p670027b048)" style="fill: #828282"/>
   </g>
   <g id="patch_103">
    <path d="M 156.025754 87.084599 
C 157.253004 88.091777 158.430065 89.158603 159.552684 90.281222 
C 160.675304 91.403842 161.742129 92.580902 162.749307 93.808152 
L 163.898828 92.864764 
C 162.860772 91.599889 161.76124 90.386741 160.604202 89.229704 
C 159.447165 88.072667 158.234018 86.973134 156.969142 85.935078 
z
" clip-path="url(#p670027b048)" style="fill: #828282"/>
   </g>
   <g id="patch_104">
    <path d="M 163.827987 92.922902 
C 164.86414 94.185459 165.837681 95.498126 166.745093 96.856164 
C 167.652505 98.214202 168.492694 99.615973 169.262625 101.056413 
L 177.679873 96.557301 
C 176.762678 94.841351 175.761789 93.171468 174.680819 91.553682 
C 173.599849 89.935896 172.440101 88.372158 171.205766 86.868115 
z
" clip-path="url(#p670027b048)" style="fill: #828282"/>
   </g>
   <g id="patch_105">
    <path d="M 171.395166 99.916547 
C 172.202407 101.426788 172.935012 102.975753 173.590337 104.557846 
C 174.245661 106.139939 174.822914 107.753253 175.32001 109.39196 
L 175.487173 109.341252 
C 174.988417 107.697073 174.409237 106.078372 173.751724 104.490997 
C 173.094212 102.903622 172.35916 101.349485 171.549224 99.834201 
z
" clip-path="url(#p670027b048)" style="fill: #828282"/>
   </g>
   <g id="patch_106">
    <path d="M 163.447046 112.993585 
C 163.826255 114.243673 164.143861 115.511625 164.398715 116.792862 
C 164.653569 118.0741 164.845364 119.367078 164.973408 120.667125 
L 165.427349 120.622416 
C 165.297842 119.30751 165.103855 117.999755 164.846088 116.703874 
C 164.588321 115.407994 164.267086 114.12555 163.883542 112.861175 
z
" clip-path="url(#p670027b048)" style="fill: #828282"/>
   </g>
   <g id="patch_107">
    <path d="M 149.901404 122.151588 
C 149.980859 122.958307 150.020658 123.76844 150.020658 124.579062 
C 150.020658 125.389685 149.980859 126.199818 149.901404 127.006537 
L 149.901404 127.006537 
C 149.980859 126.199818 150.020658 125.389685 150.020658 124.579062 
C 150.020658 123.76844 149.980859 122.958307 149.901404 122.151588 
z
" clip-path="url(#p670027b048)" style="fill: #828282"/>
   </g>
   <g id="patch_108">
    <path d="M 156.691197 127.675273 
C 156.589854 128.704232 156.438052 129.727595 156.236341 130.741665 
C 156.03463 131.755736 155.783252 132.759292 155.483116 133.748709 
L 155.483116 133.748709 
C 155.783252 132.759292 156.03463 131.755736 156.236341 130.741665 
C 156.438052 129.727595 156.589854 128.704232 156.691197 127.675273 
z
" clip-path="url(#p670027b048)" style="fill: #828282"/>
   </g>
   <g id="patch_109">
    <path d="M 141.113292 129.38967 
C 140.955834 129.908741 140.772986 130.419768 140.565408 130.920906 
C 140.35783 131.422043 140.125772 131.912687 139.870074 132.391066 
L 139.870074 132.391066 
C 140.125772 131.912687 140.35783 131.422043 140.565408 130.920906 
C 140.772986 130.419768 140.955834 129.908741 141.113292 129.38967 
z
" clip-path="url(#p670027b048)" style="fill: #828282"/>
   </g>
   <g id="patch_110">
    <path d="M 132.314671 128.352619 
C 132.191156 128.583697 132.056371 128.808572 131.910802 129.026432 
C 131.765233 129.244291 131.609056 129.454872 131.442834 129.657415 
L 131.442834 129.657415 
C 131.609056 129.454872 131.765233 129.244291 131.910802 129.026432 
C 132.056371 128.808572 132.191156 128.583697 132.314671 128.352619 
z
" clip-path="url(#p670027b048)" style="fill: #828282"/>
   </g>
   <g id="patch_111">
    <path d="M 125.254844 124.579062 
C 125.254844 124.579062 125.254844 124.579062 125.254844 124.579062 
C 125.254844 124.579062 125.254844 124.579062 125.254844 124.579062 
L 125.254844 124.579062 
C 125.254844 124.579062 125.254844 124.579062 125.254844 124.579062 
C 125.254844 124.579062 125.254844 124.579062 125.254844 124.579062 
z
" clip-path="url(#p670027b048)" style="fill: #828282"/>
   </g>
   <g id="patch_112">
    <path d="M 125.254844 124.579062 
C 125.254844 124.579062 125.254844 124.579062 125.254844 124.579062 
C 125.254844 124.579062 125.254844 124.579062 125.254844 124.579062 
L 125.254844 124.579062 
C 125.254844 124.579062 125.254844 124.579062 125.254844 124.579062 
C 125.254844 124.579062 125.254844 124.579062 125.254844 124.579062 
z
" clip-path="url(#p670027b048)" style="fill: #828282"/>
   </g>
   <g id="patch_113">
    <path d="M 125.254844 124.579062 
C 125.254844 124.579062 125.254844 124.579062 125.254844 124.579062 
C 125.254844 124.579062 125.254844 124.579062 125.254844 124.579062 
L 125.254844 124.579062 
C 125.254844 124.579062 125.254844 124.579062 125.254844 124.579062 
C 125.254844 124.579062 125.254844 124.579062 125.254844 124.579062 
z
" clip-path="url(#p670027b048)" style="fill: #828282"/>
   </g>
   <g id="patch_114">
    <path d="M 125.254844 124.579062 
C 125.254844 124.579062 125.254844 124.579062 125.254844 124.579062 
C 125.254844 124.579062 125.254844 124.579062 125.254844 124.579062 
L 125.254844 124.579062 
C 125.254844 124.579062 125.254844 124.579062 125.254844 124.579062 
C 125.254844 124.579062 125.254844 124.579062 125.254844 124.579062 
z
" clip-path="url(#p670027b048)" style="fill: #828282"/>
   </g>
   <g id="patch_115">
    <path d="M 125.551407 127.590119 
C 125.452851 127.599826 125.353877 127.604688 125.254844 127.604688 
C 125.155811 127.604688 125.056837 127.599826 124.958281 127.590119 
L 124.958281 127.590119 
C 125.056837 127.599826 125.155811 127.604688 125.254844 127.604688 
C 125.353877 127.604688 125.452851 127.599826 125.551407 127.590119 
z
" clip-path="url(#p670027b048)" style="fill: #828282"/>
   </g>
   <g id="patch_116">
    <path d="M 125.254844 124.579062 
C 125.254844 124.579062 125.254844 124.579062 125.254844 124.579062 
C 125.254844 124.579062 125.254844 124.579062 125.254844 124.579062 
L 125.254844 124.579062 
C 125.254844 124.579062 125.254844 124.579062 125.254844 124.579062 
C 125.254844 124.579062 125.254844 124.579062 125.254844 124.579062 
z
" clip-path="url(#p670027b048)" style="fill: #828282"/>
   </g>
   <g id="patch_117">
    <path d="M 125.254844 124.579062 
C 125.254844 124.579062 125.254844 124.579062 125.254844 124.579062 
C 125.254844 124.579062 125.254844 124.579062 125.254844 124.579062 
L 125.254844 124.579062 
C 125.254844 124.579062 125.254844 124.579062 125.254844 124.579062 
C 125.254844 124.579062 125.254844 124.579062 125.254844 124.579062 
z
" clip-path="url(#p670027b048)" style="fill: #828282"/>
   </g>
   <g id="patch_118">
    <path d="M 119.037876 136.21019 
C 118.657172 136.0067 118.286688 135.78464 117.927763 135.544814 
C 117.568838 135.304988 117.221903 135.047684 116.888213 134.773831 
L 116.888213 134.773831 
C 117.221903 135.047684 117.568838 135.304988 117.927763 135.544814 
C 118.286688 135.78464 118.657172 136.0067 119.037876 136.21019 
z
" clip-path="url(#p670027b048)" style="fill: #828282"/>
   </g>
   <g id="patch_119">
    <path d="M 120.176492 130.767052 
C 119.97395 130.60083 119.77969 130.424764 119.594416 130.23949 
C 119.409142 130.054216 119.233076 129.859957 119.066854 129.657415 
L 119.066854 129.657415 
C 119.233076 129.859957 119.409142 130.054216 119.594416 130.23949 
C 119.77969 130.424764 119.97395 130.60083 120.176492 130.767052 
z
" clip-path="url(#p670027b048)" style="fill: #828282"/>
   </g>
   <g id="patch_120">
    <path d="M 113.560642 134.176246 
C 113.246512 133.793477 112.951364 133.395516 112.676264 132.983801 
C 112.401165 132.572085 112.146445 132.147111 111.913025 131.710413 
L 111.913025 131.710413 
C 112.146445 132.147111 112.401165 132.572085 112.676264 132.983801 
C 112.951364 133.395516 113.246512 133.793477 113.560642 134.176246 
z
" clip-path="url(#p670027b048)" style="fill: #828282"/>
   </g>
   <g id="patch_121">
    <path d="M 100.798886 137.651044 
C 100.371021 136.850564 99.982715 136.029559 99.63537 135.190996 
C 99.288026 134.352432 98.982062 133.49732 98.718584 132.628749 
L 98.718584 132.628749 
C 98.982062 133.49732 99.288026 134.352432 99.63537 135.190996 
C 99.982715 136.029559 100.371021 136.850564 100.798886 137.651044 
z
" clip-path="url(#p670027b048)" style="fill: #828282"/>
   </g>
   <g id="patch_122">
    <path d="M 96.013309 133.449385 
C 95.72297 132.492266 95.479798 131.521469 95.284672 130.5405 
C 95.089545 129.559532 94.942699 128.569574 94.844663 127.574204 
L 94.844663 127.574204 
C 94.942699 128.569574 95.089545 129.559532 95.284672 130.5405 
C 95.479798 131.521469 95.72297 132.492266 96.013309 133.449385 
z
" clip-path="url(#p670027b048)" style="fill: #828282"/>
   </g>
   <g id="patch_123">
    <path d="M 85.195342 128.524579 
C 85.066199 127.213372 85.001511 125.896614 85.001511 124.579062 
C 85.001511 123.261511 85.066199 121.944753 85.195342 120.633546 
L 85.195342 120.633546 
C 85.066199 121.944753 85.001511 123.261511 85.001511 124.579062 
C 85.001511 125.896614 85.066199 127.213372 85.195342 128.524579 
z
" clip-path="url(#p670027b048)" style="fill: #828282"/>
   </g>
   <g id="patch_124">
    <path d="M 61.238903 118.274043 
C 61.445276 116.178705 61.7544 114.094763 62.165157 112.029744 
C 62.575915 109.964724 63.087813 107.921116 63.699 105.906301 
L 63.699 105.906301 
C 63.087813 107.921116 62.575915 109.964724 62.165157 112.029744 
C 61.7544 114.094763 61.445276 116.178705 61.238903 118.274043 
z
" clip-path="url(#p670027b048)" style="fill: #828282"/>
   </g>
   <g id="patch_125">
    <path d="M 61.755007 105.316598 
C 62.385496 103.238153 63.117651 101.191917 63.948828 99.185279 
C 64.780004 97.178642 65.7092 95.214022 66.733059 93.298517 
L 66.733059 93.298517 
C 65.7092 95.214022 64.780004 97.178642 63.948828 99.185279 
C 63.117651 101.191917 62.385496 103.238153 61.755007 105.316598 
z
" clip-path="url(#p670027b048)" style="fill: #828282"/>
   </g>
   <g id="patch_126">
    <path d="M 65.409686 92.591159 
C 66.456698 90.632338 67.599251 88.726102 68.833219 86.879338 
C 70.067188 85.032574 71.391083 83.247508 72.800124 81.530587 
L 39.543445 54.237535 
C 37.241061 57.042997 35.077806 59.959809 33.061493 62.977435 
C 31.04518 65.995061 29.178239 69.109864 27.467414 72.310592 
z
" clip-path="url(#p670027b048)" style="fill: #828282"/>
   </g>
   <g id="patch_127">
    <path d="M 75.365674 83.636079 
C 76.705799 82.003132 78.125289 80.436966 79.619018 78.943237 
C 81.112747 77.449508 82.678913 76.030018 84.31186 74.689893 
L 82.120869 72.020163 
C 80.400538 73.432002 78.750561 74.927454 77.176898 76.501117 
C 75.603235 78.07478 74.107783 79.724757 72.695944 81.445088 
z
" clip-path="url(#p670027b048)" style="fill: #828282"/>
   </g>
   <g id="patch_128">
    <path d="M 72.479061 60.271585 
C 74.583941 58.544155 76.772364 56.921109 79.036426 55.408312 
C 81.300488 53.895514 83.637459 52.494787 86.038899 51.21119 
L 84.362906 48.075628 
C 81.858834 49.414082 79.421986 50.874672 77.061164 52.452124 
C 74.700341 54.029575 72.418391 55.721985 70.223553 57.523241 
z
" clip-path="url(#p670027b048)" style="fill: #828282"/>
   </g>
   <g id="patch_129">
    <path d="M 90.876112 60.26098 
C 92.981339 59.135712 95.140545 58.114484 97.34593 57.200984 
C 99.551315 56.287483 101.800221 55.482812 104.084525 54.789876 
L 102.588763 49.859007 
C 100.143064 50.600902 97.735264 51.462426 95.37406 52.440469 
C 93.012856 53.418512 90.701094 54.511893 88.447125 55.716665 
z
" clip-path="url(#p670027b048)" style="fill: #828282"/>
   </g>
   <g id="patch_130">
    <path d="M 102.82826 50.648524 
C 105.248117 49.914468 107.702556 49.299664 110.18271 48.80633 
C 112.662865 48.312997 115.165746 47.941729 117.682313 47.693869 
L 117.275145 43.559817 
C 114.623264 43.821004 111.985805 44.212234 109.372294 44.732094 
C 106.758784 45.251953 104.172372 45.899816 101.622401 46.673341 
z
" clip-path="url(#p670027b048)" style="fill: #828282"/>
   </g>
   <g id="patch_131">
    <path d="M 125.254844 124.579062 
C 125.254844 124.579062 125.254844 124.579062 125.254844 124.579062 
C 125.254844 124.579062 125.254844 124.579062 125.254844 124.579062 
L 134.205944 33.697015 
C 131.231239 33.404032 128.243942 33.257276 125.254844 33.257276 
C 122.265745 33.257276 119.278448 33.404032 116.303743 33.697015 
L 125.254844 124.579062 
z
" clip-path="url(#p670027b048)" style="fill: none; stroke: #292929; stroke-width: 0.5; stroke-linejoin: miter"/>
   </g>
   <g id="patch_132">
    <path d="M 125.254844 124.579062 
C 125.254844 124.579062 125.254844 124.579062 125.254844 124.579062 
C 125.254844 124.579062 125.254844 124.579062 125.254844 124.579062 
L 144.795625 60.16174 
C 142.68715 59.522141 140.548543 58.986448 138.387529 58.556595 
C 136.226515 58.126743 134.045699 57.803249 131.852958 57.587283 
L 125.254844 124.579062 
z
" clip-path="url(#p670027b048)" style="fill: none; stroke: #292929; stroke-width: 0.5; stroke-linejoin: miter"/>
   </g>
   <g id="patch_133">
    <path d="M 125.254844 124.579062 
C 125.254844 124.579062 125.254844 124.579062 125.254844 124.579062 
C 125.254844 124.579062 125.254844 124.579062 125.254844 124.579062 
L 150.688883 76.995321 
C 149.131396 76.162827 147.533975 75.407303 145.902389 74.731478 
C 144.270803 74.055653 142.60702 73.460342 140.917048 72.947695 
L 125.254844 124.579062 
z
" clip-path="url(#p670027b048)" style="fill: none; stroke: #292929; stroke-width: 0.5; stroke-linejoin: miter"/>
   </g>
   <g id="patch_134">
    <path d="M 125.254844 124.579062 
C 125.254844 124.579062 125.254844 124.579062 125.254844 124.579062 
C 125.254844 124.579062 125.254844 124.579062 125.254844 124.579062 
L 168.045799 72.438133 
C 166.339149 71.037521 164.564761 69.721545 162.729044 68.494958 
C 160.893328 67.268372 158.998496 66.132653 157.051392 65.091905 
L 125.254844 124.579062 
z
" clip-path="url(#p670027b048)" style="fill: none; stroke: #292929; stroke-width: 0.5; stroke-linejoin: miter"/>
   </g>
   <g id="patch_135">
    <path d="M 125.254844 124.579062 
C 125.254844 124.579062 125.254844 124.579062 125.254844 124.579062 
C 125.254844 124.579062 125.254844 124.579062 125.254844 124.579062 
L 163.898828 92.864764 
C 162.860772 91.599889 161.76124 90.386741 160.604202 89.229704 
C 159.447165 88.072667 158.234018 86.973134 156.969142 85.935078 
L 125.254844 124.579062 
z
" clip-path="url(#p670027b048)" style="fill: none; stroke: #292929; stroke-width: 0.5; stroke-linejoin: miter"/>
   </g>
   <g id="patch_136">
    <path d="M 125.254844 124.579062 
C 125.254844 124.579062 125.254844 124.579062 125.254844 124.579062 
C 125.254844 124.579062 125.254844 124.579062 125.254844 124.579062 
L 177.679873 96.557301 
C 176.762678 94.841351 175.761789 93.171468 174.680819 91.553682 
C 173.599849 89.935896 172.440101 88.372158 171.205766 86.868115 
L 125.254844 124.579062 
z
" clip-path="url(#p670027b048)" style="fill: none; stroke: #292929; stroke-width: 0.5; stroke-linejoin: miter"/>
   </g>
   <g id="patch_137">
    <path d="M 125.254844 124.579062 
C 125.254844 124.579062 125.254844 124.579062 125.254844 124.579062 
C 125.254844 124.579062 125.254844 124.579062 125.254844 124.579062 
L 175.487173 109.341252 
C 174.988417 107.697073 174.409237 106.078372 173.751724 104.490997 
C 173.094212 102.903622 172.35916 101.349485 171.549224 99.834201 
L 125.254844 124.579062 
z
" clip-path="url(#p670027b048)" style="fill: none; stroke: #292929; stroke-width: 0.5; stroke-linejoin: miter"/>
   </g>
   <g id="patch_138">
    <path d="M 125.254844 124.579062 
C 125.254844 124.579062 125.254844 124.579062 125.254844 124.579062 
C 125.254844 124.579062 125.254844 124.579062 125.254844 124.579062 
L 165.427349 120.622416 
C 165.297842 119.30751 165.103855 117.999755 164.846088 116.703874 
C 164.588321 115.407994 164.267086 114.12555 163.883542 112.861175 
L 125.254844 124.579062 
z
" clip-path="url(#p670027b048)" style="fill: none; stroke: #292929; stroke-width: 0.5; stroke-linejoin: miter"/>
   </g>
   <g id="patch_139">
    <path d="M 125.254844 124.579062 
C 125.254844 124.579062 125.254844 124.579062 125.254844 124.579062 
C 125.254844 124.579062 125.254844 124.579062 125.254844 124.579062 
L 149.901404 127.006537 
C 149.980859 126.199818 150.020658 125.389685 150.020658 124.579062 
C 150.020658 123.76844 149.980859 122.958307 149.901404 122.151588 
L 125.254844 124.579062 
z
" clip-path="url(#p670027b048)" style="fill: none; stroke: #292929; stroke-width: 0.5; stroke-linejoin: miter"/>
   </g>
   <g id="patch_140">
    <path d="M 125.254844 124.579062 
C 125.254844 124.579062 125.254844 124.579062 125.254844 124.579062 
C 125.254844 124.579062 125.254844 124.579062 125.254844 124.579062 
L 155.483116 133.748709 
C 155.783252 132.759292 156.03463 131.755736 156.236341 130.741665 
C 156.438052 129.727595 156.589854 128.704232 156.691197 127.675273 
L 125.254844 124.579062 
z
" clip-path="url(#p670027b048)" style="fill: none; stroke: #292929; stroke-width: 0.5; stroke-linejoin: miter"/>
   </g>
   <g id="patch_141">
    <path d="M 125.254844 124.579062 
C 125.254844 124.579062 125.254844 124.579062 125.254844 124.579062 
C 125.254844 124.579062 125.254844 124.579062 125.254844 124.579062 
L 139.870074 132.391066 
C 140.125772 131.912687 140.35783 131.422043 140.565408 130.920906 
C 140.772986 130.419768 140.955834 129.908741 141.113292 129.38967 
L 125.254844 124.579062 
z
" clip-path="url(#p670027b048)" style="fill: none; stroke: #292929; stroke-width: 0.5; stroke-linejoin: miter"/>
   </g>
   <g id="patch_142">
    <path d="M 125.254844 124.579062 
C 125.254844 124.579062 125.254844 124.579062 125.254844 124.579062 
C 125.254844 124.579062 125.254844 124.579062 125.254844 124.579062 
L 131.442834 129.657415 
C 131.609056 129.454872 131.765233 129.244291 131.910802 129.026432 
C 132.056371 128.808572 132.191156 128.583697 132.314671 128.352619 
L 125.254844 124.579062 
z
" clip-path="url(#p670027b048)" style="fill: none; stroke: #292929; stroke-width: 0.5; stroke-linejoin: miter"/>
   </g>
   <g id="patch_143">
    <path d="M 125.254844 124.579062 
C 125.254844 124.579062 125.254844 124.579062 125.254844 124.579062 
C 125.254844 124.579062 125.254844 124.579062 125.254844 124.579062 
L 125.254844 124.579062 
C 125.254844 124.579062 125.254844 124.579062 125.254844 124.579062 
C 125.254844 124.579062 125.254844 124.579062 125.254844 124.579062 
L 125.254844 124.579062 
z
" clip-path="url(#p670027b048)" style="fill: none; stroke: #292929; stroke-width: 0.5; stroke-linejoin: miter"/>
   </g>
   <g id="patch_144">
    <path d="M 125.254844 124.579062 
C 125.254844 124.579062 125.254844 124.579062 125.254844 124.579062 
C 125.254844 124.579062 125.254844 124.579062 125.254844 124.579062 
L 125.254844 124.579062 
C 125.254844 124.579062 125.254844 124.579062 125.254844 124.579062 
C 125.254844 124.579062 125.254844 124.579062 125.254844 124.579062 
L 125.254844 124.579062 
z
" clip-path="url(#p670027b048)" style="fill: none; stroke: #292929; stroke-width: 0.5; stroke-linejoin: miter"/>
   </g>
   <g id="patch_145">
    <path d="M 125.254844 124.579062 
C 125.254844 124.579062 125.254844 124.579062 125.254844 124.579062 
C 125.254844 124.579062 125.254844 124.579062 125.254844 124.579062 
L 125.254844 124.579062 
C 125.254844 124.579062 125.254844 124.579062 125.254844 124.579062 
C 125.254844 124.579062 125.254844 124.579062 125.254844 124.579062 
L 125.254844 124.579062 
z
" clip-path="url(#p670027b048)" style="fill: none; stroke: #292929; stroke-width: 0.5; stroke-linejoin: miter"/>
   </g>
   <g id="patch_146">
    <path d="M 125.254844 124.579062 
C 125.254844 124.579062 125.254844 124.579062 125.254844 124.579062 
C 125.254844 124.579062 125.254844 124.579062 125.254844 124.579062 
L 125.254844 124.579062 
C 125.254844 124.579062 125.254844 124.579062 125.254844 124.579062 
C 125.254844 124.579062 125.254844 124.579062 125.254844 124.579062 
L 125.254844 124.579062 
z
" clip-path="url(#p670027b048)" style="fill: none; stroke: #292929; stroke-width: 0.5; stroke-linejoin: miter"/>
   </g>
   <g id="patch_147">
    <path d="M 125.254844 124.579062 
C 125.254844 124.579062 125.254844 124.579062 125.254844 124.579062 
C 125.254844 124.579062 125.254844 124.579062 125.254844 124.579062 
L 124.958281 127.590119 
C 125.056837 127.599826 125.155811 127.604688 125.254844 127.604688 
C 125.353877 127.604688 125.452851 127.599826 125.551407 127.590119 
L 125.254844 124.579062 
z
" clip-path="url(#p670027b048)" style="fill: none; stroke: #292929; stroke-width: 0.5; stroke-linejoin: miter"/>
   </g>
   <g id="patch_148">
    <path d="M 125.254844 124.579062 
C 125.254844 124.579062 125.254844 124.579062 125.254844 124.579062 
C 125.254844 124.579062 125.254844 124.579062 125.254844 124.579062 
L 125.254844 124.579062 
C 125.254844 124.579062 125.254844 124.579062 125.254844 124.579062 
C 125.254844 124.579062 125.254844 124.579062 125.254844 124.579062 
L 125.254844 124.579062 
z
" clip-path="url(#p670027b048)" style="fill: none; stroke: #292929; stroke-width: 0.5; stroke-linejoin: miter"/>
   </g>
   <g id="patch_149">
    <path d="M 125.254844 124.579062 
C 125.254844 124.579062 125.254844 124.579062 125.254844 124.579062 
C 125.254844 124.579062 125.254844 124.579062 125.254844 124.579062 
L 125.254844 124.579062 
C 125.254844 124.579062 125.254844 124.579062 125.254844 124.579062 
C 125.254844 124.579062 125.254844 124.579062 125.254844 124.579062 
L 125.254844 124.579062 
z
" clip-path="url(#p670027b048)" style="fill: none; stroke: #292929; stroke-width: 0.5; stroke-linejoin: miter"/>
   </g>
   <g id="patch_150">
    <path d="M 125.254844 124.579062 
C 125.254844 124.579062 125.254844 124.579062 125.254844 124.579062 
C 125.254844 124.579062 125.254844 124.579062 125.254844 124.579062 
L 116.888213 134.773831 
C 117.221903 135.047684 117.568838 135.304988 117.927763 135.544814 
C 118.286688 135.78464 118.657172 136.0067 119.037876 136.21019 
L 125.254844 124.579062 
z
" clip-path="url(#p670027b048)" style="fill: none; stroke: #292929; stroke-width: 0.5; stroke-linejoin: miter"/>
   </g>
   <g id="patch_151">
    <path d="M 125.254844 124.579062 
C 125.254844 124.579062 125.254844 124.579062 125.254844 124.579062 
C 125.254844 124.579062 125.254844 124.579062 125.254844 124.579062 
L 119.066854 129.657415 
C 119.233076 129.859957 119.409142 130.054216 119.594416 130.23949 
C 119.77969 130.424764 119.97395 130.60083 120.176492 130.767052 
L 125.254844 124.579062 
z
" clip-path="url(#p670027b048)" style="fill: none; stroke: #292929; stroke-width: 0.5; stroke-linejoin: miter"/>
   </g>
   <g id="patch_152">
    <path d="M 125.254844 124.579062 
C 125.254844 124.579062 125.254844 124.579062 125.254844 124.579062 
C 125.254844 124.579062 125.254844 124.579062 125.254844 124.579062 
L 111.913025 131.710413 
C 112.146445 132.147111 112.401165 132.572085 112.676264 132.983801 
C 112.951364 133.395516 113.246512 133.793477 113.560642 134.176246 
L 125.254844 124.579062 
z
" clip-path="url(#p670027b048)" style="fill: none; stroke: #292929; stroke-width: 0.5; stroke-linejoin: miter"/>
   </g>
   <g id="patch_153">
    <path d="M 125.254844 124.579062 
C 125.254844 124.579062 125.254844 124.579062 125.254844 124.579062 
C 125.254844 124.579062 125.254844 124.579062 125.254844 124.579062 
L 98.718584 132.628749 
C 98.982062 133.49732 99.288026 134.352432 99.63537 135.190996 
C 99.982715 136.029559 100.371021 136.850564 100.798886 137.651044 
L 125.254844 124.579062 
z
" clip-path="url(#p670027b048)" style="fill: none; stroke: #292929; stroke-width: 0.5; stroke-linejoin: miter"/>
   </g>
   <g id="patch_154">
    <path d="M 125.254844 124.579062 
C 125.254844 124.579062 125.254844 124.579062 125.254844 124.579062 
C 125.254844 124.579062 125.254844 124.579062 125.254844 124.579062 
L 94.844663 127.574204 
C 94.942699 128.569574 95.089545 129.559532 95.284672 130.5405 
C 95.479798 131.521469 95.72297 132.492266 96.013309 133.449385 
L 125.254844 124.579062 
z
" clip-path="url(#p670027b048)" style="fill: none; stroke: #292929; stroke-width: 0.5; stroke-linejoin: miter"/>
   </g>
   <g id="patch_155">
    <path d="M 125.254844 124.579062 
C 125.254844 124.579062 125.254844 124.579062 125.254844 124.579062 
C 125.254844 124.579062 125.254844 124.579062 125.254844 124.579062 
L 85.195342 120.633546 
C 85.066199 121.944753 85.001511 123.261511 85.001511 124.579062 
C 85.001511 125.896614 85.066199 127.213372 85.195342 128.524579 
L 125.254844 124.579062 
z
" clip-path="url(#p670027b048)" style="fill: none; stroke: #292929; stroke-width: 0.5; stroke-linejoin: miter"/>
   </g>
   <g id="patch_156">
    <path d="M 125.254844 124.579062 
C 125.254844 124.579062 125.254844 124.579062 125.254844 124.579062 
C 125.254844 124.579062 125.254844 124.579062 125.254844 124.579062 
L 63.699 105.906301 
C 63.087813 107.921116 62.575915 109.964724 62.165157 112.029744 
C 61.7544 114.094763 61.445276 116.178705 61.238903 118.274043 
L 125.254844 124.579062 
z
" clip-path="url(#p670027b048)" style="fill: none; stroke: #292929; stroke-width: 0.5; stroke-linejoin: miter"/>
   </g>
   <g id="patch_157">
    <path d="M 125.254844 124.579062 
C 125.254844 124.579062 125.254844 124.579062 125.254844 124.579062 
C 125.254844 124.579062 125.254844 124.579062 125.254844 124.579062 
L 66.733059 93.298517 
C 65.7092 95.214022 64.780004 97.178642 63.948828 99.185279 
C 63.117651 101.191917 62.385496 103.238153 61.755007 105.316598 
L 125.254844 124.579062 
z
" clip-path="url(#p670027b048)" style="fill: none; stroke: #292929; stroke-width: 0.5; stroke-linejoin: miter"/>
   </g>
   <g id="patch_158">
    <path d="M 125.254844 124.579062 
C 125.254844 124.579062 125.254844 124.579062 125.254844 124.579062 
C 125.254844 124.579062 125.254844 124.579062 125.254844 124.579062 
L 39.543445 54.237535 
C 37.241061 57.042997 35.077806 59.959809 33.061493 62.977435 
C 31.04518 65.995061 29.178239 69.109864 27.467414 72.310592 
L 125.254844 124.579062 
z
" clip-path="url(#p670027b048)" style="fill: none; stroke: #292929; stroke-width: 0.5; stroke-linejoin: miter"/>
   </g>
   <g id="patch_159">
    <path d="M 125.254844 124.579062 
C 125.254844 124.579062 125.254844 124.579062 125.254844 124.579062 
C 125.254844 124.579062 125.254844 124.579062 125.254844 124.579062 
L 82.120869 72.020163 
C 80.400538 73.432002 78.750561 74.927454 77.176898 76.501117 
C 75.603235 78.07478 74.107783 79.724757 72.695944 81.445088 
L 125.254844 124.579062 
z
" clip-path="url(#p670027b048)" style="fill: none; stroke: #292929; stroke-width: 0.5; stroke-linejoin: miter"/>
   </g>
   <g id="patch_160">
    <path d="M 125.254844 124.579062 
C 125.254844 124.579062 125.254844 124.579062 125.254844 124.579062 
C 125.254844 124.579062 125.254844 124.579062 125.254844 124.579062 
L 84.362906 48.075628 
C 81.858834 49.414082 79.421986 50.874672 77.061164 52.452124 
C 74.700341 54.029575 72.418391 55.721985 70.223553 57.523241 
L 125.254844 124.579062 
z
" clip-path="url(#p670027b048)" style="fill: none; stroke: #292929; stroke-width: 0.5; stroke-linejoin: miter"/>
   </g>
   <g id="patch_161">
    <path d="M 125.254844 124.579062 
C 125.254844 124.579062 125.254844 124.579062 125.254844 124.579062 
C 125.254844 124.579062 125.254844 124.579062 125.254844 124.579062 
L 102.588763 49.859007 
C 100.143064 50.600902 97.735264 51.462426 95.37406 52.440469 
C 93.012856 53.418512 90.701094 54.511893 88.447125 55.716665 
L 125.254844 124.579062 
z
" clip-path="url(#p670027b048)" style="fill: none; stroke: #292929; stroke-width: 0.5; stroke-linejoin: miter"/>
   </g>
   <g id="patch_162">
    <path d="M 125.254844 124.579062 
C 125.254844 124.579062 125.254844 124.579062 125.254844 124.579062 
C 125.254844 124.579062 125.254844 124.579062 125.254844 124.579062 
L 117.275145 43.559817 
C 114.623264 43.821004 111.985805 44.212234 109.372294 44.732094 
C 106.758784 45.251953 104.172372 45.899816 101.622401 46.673341 
L 125.254844 124.579062 
z
" clip-path="url(#p670027b048)" style="fill: none; stroke: #292929; stroke-width: 0.5; stroke-linejoin: miter"/>
   </g>
   <g id="PathCollection_1">
    <defs>
     <path id="mcab4aee8a9" d="M 0.193618 7.414054 
L 0.193618 7.414054 
C 0.054922 7.414054 -0.078235 7.358899 -0.176308 7.260826 
C -0.274381 7.162753 -0.329536 7.029596 -0.329536 6.890901 
L -0.329536 5.365008 
L -1.528416 6.56393 
L -1.528416 6.56393 
C -1.577018 6.612704 -1.634775 6.651408 -1.698366 6.677814 
C -1.761958 6.704221 -1.830141 6.717815 -1.898997 6.717815 
C -1.967853 6.717815 -2.036037 6.704221 -2.099628 6.677814 
C -2.163219 6.651408 -2.220976 6.612704 -2.269578 6.56393 
L -2.269578 6.56393 
C -2.318353 6.515327 -2.357056 6.457571 -2.383463 6.393979 
C -2.409869 6.330388 -2.423463 6.262205 -2.423463 6.193348 
C -2.423463 6.124492 -2.409869 6.056309 -2.383463 5.992718 
C -2.357056 5.929126 -2.318353 5.87137 -2.269578 5.822767 
L -0.329536 3.884106 
L -0.329536 0.820937 
L -2.98067 2.351538 
L -3.691824 5.001416 
L -3.691824 5.001416 
C -3.727584 5.135411 -3.815199 5.249836 -3.93523 5.319305 
C -4.055261 5.388775 -4.198123 5.407741 -4.332122 5.371997 
L -4.332122 5.371997 
C -4.466126 5.336237 -4.580558 5.248616 -4.650029 5.128576 
C -4.719499 5.008535 -4.73846 4.865662 -4.702703 4.731657 
L -4.262647 3.092721 
L -5.585535 3.855668 
L -5.585535 3.855668 
C -5.645013 3.890144 -5.710708 3.912561 -5.778854 3.921634 
C -5.847001 3.930706 -5.916272 3.926258 -5.982698 3.908543 
C -6.049125 3.890828 -6.111412 3.860192 -6.165991 3.818391 
C -6.220571 3.77659 -6.266379 3.724437 -6.300791 3.664922 
L -6.300791 3.664922 
C -6.335212 3.605364 -6.35755 3.539597 -6.366524 3.471396 
C -6.375498 3.403194 -6.370933 3.333888 -6.35309 3.267452 
C -6.335248 3.201017 -6.304476 3.138749 -6.26254 3.08422 
C -6.220605 3.029692 -6.168323 2.983966 -6.108695 2.949666 
L -4.785807 2.186762 
L -6.424743 1.746706 
L -6.424743 1.746706 
C -6.558747 1.710946 -6.673179 1.623325 -6.74265 1.503284 
C -6.81212 1.383244 -6.831081 1.240371 -6.795324 1.106366 
L -6.795324 1.106366 
C -6.777471 1.039969 -6.746703 0.977739 -6.704784 0.923241 
C -6.662864 0.868744 -6.61061 0.823041 -6.551015 0.788752 
C -6.491421 0.754464 -6.425647 0.732257 -6.357465 0.723406 
C -6.289282 0.714554 -6.220019 0.71923 -6.153645 0.737166 
L -3.505232 1.44698 
L -0.852424 -0.08496 
L -3.503767 -1.615666 
L -6.153645 -0.905851 
L -6.153645 -0.905851 
C -6.22011 -0.887939 -6.289462 -0.883321 -6.357716 -0.892262 
C -6.42597 -0.901202 -6.491793 -0.923527 -6.551403 -0.957953 
C -6.611013 -0.992379 -6.663247 -1.038234 -6.705103 -1.092883 
C -6.746958 -1.147533 -6.777619 -1.209911 -6.795324 -1.276432 
L -6.795324 -1.276432 
C -6.831068 -1.410431 -6.812101 -1.553293 -6.742632 -1.673324 
C -6.673162 -1.793355 -6.558738 -1.88097 -6.424743 -1.91673 
L -4.785807 -2.355447 
L -6.108695 -3.119732 
L -6.108695 -3.119732 
C -6.228699 -3.188976 -6.316415 -3.303132 -6.352417 -3.436921 
C -6.388419 -3.57071 -6.369839 -3.713469 -6.300791 -3.833586 
L -6.300791 -3.833586 
C -6.266491 -3.893214 -6.220765 -3.945496 -6.166237 -3.987431 
C -6.111708 -4.029367 -6.04944 -4.060139 -5.983005 -4.077981 
C -5.91657 -4.095823 -5.847263 -4.100389 -5.779062 -4.091415 
C -5.71086 -4.082441 -5.645094 -4.060102 -5.585535 -4.025682 
L -4.262647 -3.261396 
L -4.702703 -4.900332 
L -4.702703 -4.900332 
C -4.73846 -5.034337 -4.719499 -5.17721 -4.650029 -5.29725 
C -4.580558 -5.417291 -4.466126 -5.504912 -4.332122 -5.540672 
L -4.332122 -5.540672 
C -4.19831 -5.576464 -4.055613 -5.557686 -3.935617 -5.488496 
C -3.81562 -5.419305 -3.727882 -5.305212 -3.691824 -5.171472 
L -2.982009 -2.521594 
L -0.329411 -0.990302 
L -0.329411 -4.051588 
L -2.269453 -5.991589 
L -2.269453 -5.991589 
C -2.318227 -6.040191 -2.356931 -6.097947 -2.383337 -6.161539 
C -2.409744 -6.22513 -2.423338 -6.293314 -2.423338 -6.36217 
C -2.423338 -6.431026 -2.409744 -6.499209 -2.383337 -6.5628 
C -2.356931 -6.626392 -2.318227 -6.684149 -2.269453 -6.732751 
L -2.269453 -6.732751 
C -2.22085 -6.781526 -2.163094 -6.820229 -2.099502 -6.846635 
C -2.035911 -6.873042 -1.967728 -6.886636 -1.898871 -6.886636 
C -1.830015 -6.886636 -1.761832 -6.873042 -1.698241 -6.846635 
C -1.634649 -6.820229 -1.576893 -6.781526 -1.52829 -6.732751 
L -0.329411 -5.533829 
L -0.329411 -7.059722 
L -0.329411 -7.059722 
C -0.329411 -7.198418 -0.274255 -7.331575 -0.176182 -7.429647 
C -0.07811 -7.52772 0.055047 -7.582875 0.193743 -7.582875 
L 0.193743 -7.582875 
C 0.332439 -7.582875 0.465596 -7.52772 0.563669 -7.429647 
C 0.661741 -7.331575 0.716897 -7.198418 0.716897 -7.059722 
L 0.716897 -5.533829 
L 1.915777 -6.732751 
L 1.915777 -6.732751 
C 1.964379 -6.781526 2.022136 -6.820229 2.085727 -6.846635 
C 2.149318 -6.873042 2.217502 -6.886636 2.286358 -6.886636 
C 2.355214 -6.886636 2.423397 -6.873042 2.486989 -6.846635 
C 2.55058 -6.820229 2.608337 -6.781526 2.656939 -6.732751 
L 2.656939 -6.732751 
C 2.705714 -6.684149 2.744417 -6.626392 2.770823 -6.5628 
C 2.79723 -6.499209 2.810824 -6.431026 2.810824 -6.36217 
C 2.810824 -6.293314 2.79723 -6.22513 2.770823 -6.161539 
C 2.744417 -6.097947 2.705714 -6.040191 2.656939 -5.991589 
L 0.716897 -4.051588 
L 0.716897 -0.991139 
L 3.369495 -2.522954 
L 4.07931 -5.171367 
L 4.07931 -5.171367 
C 4.115368 -5.305107 4.203106 -5.4192 4.323103 -5.488391 
C 4.4431 -5.557582 4.585797 -5.576359 4.719608 -5.540567 
L 4.719608 -5.540567 
C 4.853612 -5.504807 4.968045 -5.417186 5.037515 -5.297146 
C 5.106986 -5.177105 5.125946 -5.034232 5.090189 -4.900227 
L 4.650133 -3.262673 
L 5.973022 -4.025577 
L 5.973022 -4.025577 
C 6.03258 -4.059998 6.098346 -4.082336 6.166548 -4.09131 
C 6.234749 -4.100284 6.304056 -4.095719 6.370491 -4.077876 
C 6.436926 -4.060034 6.499194 -4.029262 6.553723 -3.987327 
C 6.608252 -3.945391 6.653978 -3.893109 6.688277 -3.833481 
L 6.688277 -3.833481 
C 6.757325 -3.713365 6.775905 -3.570605 6.739903 -3.436816 
C 6.703901 -3.303027 6.616186 -3.188871 6.496181 -3.119628 
L 5.173293 -2.355342 
L 6.812229 -1.916625 
L 6.812229 -1.916625 
C 6.946224 -1.880865 7.060649 -1.79325 7.130118 -1.67322 
C 7.199588 -1.553189 7.218554 -1.410326 7.18281 -1.276327 
L 7.18281 -1.276327 
C 7.165106 -1.209806 7.134445 -1.147429 7.092589 -1.092779 
C 7.050733 -1.038129 6.998499 -0.992274 6.938889 -0.957848 
C 6.879279 -0.923422 6.813456 -0.901098 6.745202 -0.892157 
C 6.676949 -0.883217 6.607597 -0.887835 6.541131 -0.905746 
L 3.891253 -1.615561 
L 1.239492 -0.084604 
L 3.892718 1.447085 
L 6.541131 0.73727 
L 6.541131 0.73727 
C 6.674948 0.701466 6.817656 0.720237 6.937662 0.789429 
C 7.057669 0.858621 7.145413 0.972721 7.181471 1.10647 
L 7.181471 1.10647 
C 7.217274 1.240293 7.198497 1.383006 7.129297 1.503014 
C 7.060096 1.623021 6.945986 1.710762 6.812229 1.74681 
L 5.173293 2.186866 
L 6.496181 2.949771 
L 6.496181 2.949771 
C 6.555697 2.984183 6.607849 3.029991 6.649651 3.08457 
C 6.691452 3.13915 6.722088 3.201437 6.739803 3.267863 
C 6.757517 3.33429 6.761966 3.403561 6.752893 3.471707 
C 6.743821 3.539854 6.721404 3.605549 6.686927 3.665026 
L 6.686927 3.665026 
C 6.617458 3.784813 6.503196 3.87225 6.369416 3.907994 
C 6.235636 3.943739 6.092989 3.924946 5.973032 3.855772 
L 4.650144 3.091487 
L 5.08886 4.731783 
L 5.08886 4.731783 
C 5.124664 4.865606 5.105887 5.008319 5.036686 5.128326 
C 4.967486 5.248334 4.853376 5.336074 4.719619 5.372123 
L 4.719619 5.372123 
C 4.585619 5.407867 4.442757 5.3889 4.322726 5.319431 
C 4.202695 5.249961 4.115081 5.135537 4.07932 5.001542 
L 3.368166 2.351664 
L 0.717033 0.821063 
L 0.717033 3.884232 
L 2.657075 5.822893 
L 2.657075 5.822893 
C 2.70585 5.871495 2.744553 5.929252 2.770959 5.992843 
C 2.797366 6.056435 2.81096 6.124618 2.81096 6.193474 
C 2.81096 6.26233 2.797366 6.330514 2.770959 6.394105 
C 2.744553 6.457696 2.70585 6.515453 2.657075 6.564055 
L 2.657075 6.564055 
C 2.608473 6.61283 2.550716 6.651533 2.487125 6.67794 
C 2.423533 6.704346 2.35535 6.71794 2.286494 6.71794 
C 2.217638 6.71794 2.149454 6.704346 2.085863 6.67794 
C 2.022272 6.651533 1.964515 6.61283 1.915913 6.564055 
L 0.717033 5.365133 
L 0.717033 6.891026 
L 0.717033 6.891026 
C 0.717033 7.029722 0.661877 7.162879 0.563805 7.260952 
C 0.465732 7.359024 0.332575 7.41418 0.193879 7.41418 
L 0.193618 7.414054 
z
"/>
    </defs>
    <g clip-path="url(#p670027b048)">
     <use xlink:href="#mcab4aee8a9" x="101.180192" y="51.44694" style="fill: #9e2096; fill-opacity: 0.7"/>
    </g>
   </g>
   <g id="patch_163">
    <path d="M 125.254844 13.699062 
C 110.694216 13.699062 96.275171 16.567189 82.822905 22.1393 
C 69.370638 27.711411 57.146763 35.879144 46.850844 46.175063 
C 36.554925 56.470982 28.387192 68.694857 22.815081 82.147124 
C 17.24297 95.59939 14.374844 110.018434 14.374844 124.579062 
C 14.374844 139.139691 17.24297 153.558735 22.815081 167.011001 
C 28.387192 180.463268 36.554925 192.687143 46.850844 202.983062 
C 57.146763 213.278981 69.370638 221.446714 82.822905 227.018825 
C 96.275171 232.590936 110.694216 235.459062 125.254844 235.459062 
C 139.815472 235.459062 154.234516 232.590936 167.686783 227.018825 
C 181.139049 221.446714 193.362925 213.278981 203.658844 202.983062 
C 213.954763 192.687143 222.122495 180.463268 227.694606 167.011001 
C 233.266717 153.558735 236.134844 139.139691 236.134844 124.579062 
C 236.134844 110.018434 233.266717 95.59939 227.694606 82.147124 
C 222.122495 68.694857 213.954763 56.470982 203.658844 46.175063 
C 193.362925 35.879144 181.139049 27.711411 167.686783 22.1393 
C 154.234516 16.567189 139.815472 13.699062 125.254844 13.699062 
" style="fill: none; stroke: #000000; stroke-width: 0.8; stroke-linejoin: miter; stroke-linecap: square"/>
   </g>
  </g>
 </g>
 <defs>
  <clipPath id="p670027b048">
   <path d="M 236.134844 124.579062 
C 236.134844 110.018434 233.266717 95.59939 227.694606 82.147124 
C 222.122495 68.694857 213.954763 56.470982 203.658844 46.175063 
C 193.362925 35.879144 181.139049 27.711411 167.686783 22.1393 
C 154.234516 16.567189 139.815472 13.699062 125.254844 13.699062 
C 110.694216 13.699062 96.275171 16.567189 82.822905 22.1393 
C 69.370638 27.711411 57.146763 35.879144 46.850844 46.175063 
C 36.554925 56.470982 28.387192 68.694857 22.815081 82.147124 
C 17.24297 95.59939 14.374844 110.018434 14.374844 124.579062 
C 14.374844 139.139691 17.24297 153.558735 22.815081 167.011001 
C 28.387192 180.463268 36.554925 192.687143 46.850844 202.983062 
C 57.146763 213.278981 69.370638 221.446714 82.822905 227.018825 
C 96.275171 232.590936 110.694216 235.459062 125.254844 235.459062 
C 139.815472 235.459062 154.234516 232.590936 167.686783 227.018825 
C 181.139049 221.446714 193.362925 213.278981 203.658844 202.983062 
C 213.954763 192.687143 222.122495 180.463268 227.694606 167.011001 
C 233.266717 153.558735 236.134844 139.139691 236.134844 124.579063 
M 125.254844 124.579062 
C 125.254844 124.579062 125.254844 124.579062 125.254844 124.579062 
C 125.254844 124.579062 125.254844 124.579062 125.254844 124.579062 
C 125.254844 124.579062 125.254844 124.579062 125.254844 124.579062 
C 125.254844 124.579062 125.254844 124.579062 125.254844 124.579062 
C 125.254844 124.579062 125.254844 124.579062 125.254844 124.579062 
C 125.254844 124.579062 125.254844 124.579062 125.254844 124.579062 
C 125.254844 124.579062 125.254844 124.579062 125.254844 124.579062 
C 125.254844 124.579062 125.254844 124.579062 125.254844 124.579062 
C 125.254844 124.579062 125.254844 124.579062 125.254844 124.579062 
C 125.254844 124.579062 125.254844 124.579062 125.254844 124.579062 
C 125.254844 124.579062 125.254844 124.579062 125.254844 124.579062 
C 125.254844 124.579062 125.254844 124.579062 125.254844 124.579062 
C 125.254844 124.579062 125.254844 124.579062 125.254844 124.579062 
C 125.254844 124.579062 125.254844 124.579062 125.254844 124.579062 
C 125.254844 124.579062 125.254844 124.579062 125.254844 124.579062 
C 125.254844 124.579062 125.254844 124.579062 125.254844 124.579062 
z
"/>
  </clipPath>
 </defs>
</svg>
