<?xml version="1.0" encoding="utf-8" standalone="no"?>
<!DOCTYPE svg PUBLIC "-//W3C//DTD SVG 1.1//EN"
  "http://www.w3.org/Graphics/SVG/1.1/DTD/svg11.dtd">
<svg xmlns:xlink="http://www.w3.org/1999/xlink" width="248.410469pt" height="249.158125pt" viewBox="0 0 248.410469 249.158125" xmlns="http://www.w3.org/2000/svg" version="1.1">
 <title>Ski Rose for Cataloochee Ski Area</title>
 <metadata>
  <rdf:RDF xmlns:dc="http://purl.org/dc/elements/1.1/" xmlns:cc="http://creativecommons.org/ns#" xmlns:rdf="http://www.w3.org/1999/02/22-rdf-syntax-ns#">
   <cc:Work>
    <dc:type rdf:resource="http://purl.org/dc/dcmitype/StillImage"/>
    <dc:title>Ski Rose for Cataloochee Ski Area</dc:title>
    <dc:date>2025-03-08T16:21:16.976105</dc:date>
    <dc:description>A 32-bin stacked histogram of downhill ski run orientations colored by difficulty.</dc:description>
    <dc:format>image/svg+xml</dc:format>
    <dc:source>https://openskimap.org/?obj=d64d3fdfeb8b567bd38dc82ad832e0b8a475ba54</dc:source>
    <dc:creator>
     <cc:Agent>
      <dc:title>https://github.com/dhimmel/openskistats</dc:title>
     </cc:Agent>
    </dc:creator>
    <dc:rights>
     <cc:Agent>
      <dc:title>https://creativecommons.org/licenses/by/4.0/</dc:title>
     </cc:Agent>
    </dc:rights>
   </cc:Work>
  </rdf:RDF>
 </metadata>
 <defs>
  <style type="text/css">*{stroke-linejoin: round; stroke-linecap: butt}</style>
 </defs>
 <g id="figure_1">
  <g id="patch_1">
   <path d="M 0 249.158125 
L 248.410469 249.158125 
L 248.410469 0 
L 0 0 
z
" style="fill: #ffffff"/>
  </g>
  <g id="axes_1">
   <g id="patch_2">
    <path d="M 236.134844 124.579063 
C 236.134844 110.018434 233.266717 95.59939 227.694606 82.147124 
C 222.122495 68.694857 213.954763 56.470982 203.658844 46.175063 
C 193.362925 35.879144 181.139049 27.711411 167.686783 22.1393 
C 154.234516 16.567189 139.815472 13.699063 125.254844 13.699063 
C 110.694216 13.699063 96.275171 16.567189 82.822905 22.1393 
C 69.370638 27.711411 57.146763 35.879144 46.850844 46.175063 
C 36.554925 56.470982 28.387192 68.694857 22.815081 82.147124 
C 17.24297 95.59939 14.374844 110.018434 14.374844 124.579062 
C 14.374844 139.139691 17.24297 153.558735 22.815081 167.011001 
C 28.387192 180.463268 36.554925 192.687143 46.850844 202.983062 
C 57.146763 213.278981 69.370638 221.446714 82.822905 227.018825 
C 96.275171 232.590936 110.694216 235.459063 125.254844 235.459063 
C 139.815472 235.459063 154.234516 232.590936 167.686783 227.018825 
C 181.139049 221.446714 193.362925 213.278981 203.658844 202.983062 
C 213.954763 192.687143 222.122495 180.463268 227.694606 167.011001 
C 233.266717 153.558735 236.134844 139.139691 236.134844 124.579063 
M 125.254844 124.579063 
C 125.254844 124.579063 125.254844 124.579063 125.254844 124.579063 
C 125.254844 124.579063 125.254844 124.579063 125.254844 124.579063 
C 125.254844 124.579063 125.254844 124.579063 125.254844 124.579063 
C 125.254844 124.579063 125.254844 124.579063 125.254844 124.579063 
C 125.254844 124.579063 125.254844 124.579063 125.254844 124.579063 
C 125.254844 124.579063 125.254844 124.579063 125.254844 124.579063 
C 125.254844 124.579063 125.254844 124.579063 125.254844 124.579063 
C 125.254844 124.579063 125.254844 124.579063 125.254844 124.579063 
C 125.254844 124.579063 125.254844 124.579063 125.254844 124.579063 
C 125.254844 124.579063 125.254844 124.579063 125.254844 124.579063 
C 125.254844 124.579063 125.254844 124.579063 125.254844 124.579063 
C 125.254844 124.579063 125.254844 124.579063 125.254844 124.579063 
C 125.254844 124.579063 125.254844 124.579063 125.254844 124.579063 
C 125.254844 124.579063 125.254844 124.579063 125.254844 124.579063 
C 125.254844 124.579063 125.254844 124.579063 125.254844 124.579063 
C 125.254844 124.579063 125.254844 124.579063 125.254844 124.579063 
z
" style="fill: #ffffff"/>
   </g>
   <g id="PolyCollection_1">
    <defs>
     <path id="mee63434616" d="M 235.549007 -135.199182 
L 234.676311 -135.115151 
L 233.238078 -133.077527 
L 231.700696 -131.08957 
L 230.095041 -129.156484 
L 228.437205 -127.280988 
L 226.984103 -125.46684 
L 225.246271 -123.706451 
L 223.474781 -122.007083 
L 221.673117 -120.36935 
L 219.844289 -118.793724 
L 218.239232 -117.261032 
L 216.363488 -115.806298 
L 214.468216 -114.414483 
L 212.801546 -113.053321 
L 210.873304 -111.783298 
L 209.175768 -110.535516 
L 207.46514 -109.342285 
L 205.7433 -108.203501 
L 204.012131 -107.118992 
L 202.273515 -106.088515 
L 200.529342 -105.111754 
L 198.781503 -104.188315 
L 197.031896 -103.317731 
L 195.509774 -102.427768 
L 193.759625 -101.657683 
L 192.235267 -100.860051 
L 190.710804 -100.106082 
L 189.187687 -99.395246 
L 187.667362 -98.726951 
L 186.151273 -98.100542 
L 184.640856 -97.515298 
L 183.137541 -96.970432 
L 181.84282 -96.365338 
L 180.354222 -95.896142 
L 179.069671 -95.359995 
L 177.600831 -94.963128 
L 176.330929 -94.492949 
L 175.06809 -94.053466 
L 173.813273 -93.643932 
L 172.56742 -93.263552 
L 171.331454 -92.911486 
L 170.106276 -92.586847 
L 169.054006 -92.169388 
L 167.848601 -91.895723 
L 166.656447 -91.64674 
L 165.626685 -91.299085 
L 164.458732 -91.095779 
L 163.445816 -90.790545 
L 162.440104 -90.505049 
L 161.442081 -90.238657 
L 160.32523 -90.11549 
L 159.348221 -89.88539 
L 158.380245 -89.672173 
L 157.421684 -89.475117 
L 156.472891 -89.293479 
L 155.534192 -89.1265 
L 154.605883 -88.973404 
L 153.784733 -88.712076 
L 152.873562 -88.585649 
L 151.973482 -88.470895 
L 151.084666 -88.366987 
L 150.286979 -88.157079 
L 149.416727 -88.074439 
L 148.629933 -87.887522 
L 147.778645 -87.82356 
L 146.939029 -87.766622 
L 146.17103 -87.609828 
L 145.40714 -87.46315 
L 144.594094 -87.428709 
L 143.84186 -87.299274 
L 143.047635 -87.275699 
L 142.306955 -87.161619 
L 141.570452 -87.055732 
L 140.801629 -87.045802 
L 140.076274 -86.952669 
L 139.354932 -86.866663 
L 138.637544 -86.787484 
L 137.898963 -86.789772 
L 137.191692 -86.720216 
L 136.488011 -86.656526 
L 135.787802 -86.59844 
L 135.090938 -86.545707 
L 134.383774 -86.554333 
L 133.695008 -86.50794 
L 133.009007 -86.466133 
L 132.325593 -86.428715 
L 131.64458 -86.395503 
L 130.965775 -86.366326 
L 130.288976 -86.341032 
L 129.613973 -86.31948 
L 128.940549 -86.30155 
L 128.266996 -86.306043 
L 127.596649 -86.290884 
L 126.927058 -86.279054 
L 126.257989 -86.270504 
L 125.589204 -86.265201 
L 124.920484 -86.265222 
L 124.251702 -86.270606 
L 123.582637 -86.279239 
L 122.913055 -86.29115 
L 122.242719 -86.306391 
L 121.571399 -86.325026 
L 120.898866 -86.347139 
L 120.224898 -86.37283 
L 119.544019 -86.367044 
L 118.865241 -86.396303 
L 118.184258 -86.429598 
L 117.500877 -86.467098 
L 116.814911 -86.508987 
L 116.126185 -86.555463 
L 115.434533 -86.606737 
L 114.739798 -86.663033 
L 114.022098 -86.657947 
L 113.318469 -86.721719 
L 112.611255 -86.791359 
L 111.900351 -86.867137 
L 111.185666 -86.949337 
L 110.434154 -86.954549 
L 109.708871 -87.047764 
L 108.979534 -87.148413 
L 108.203723 -87.163793 
L 107.463128 -87.277955 
L 106.718363 -87.400634 
L 105.916878 -87.431177 
L 105.160563 -87.570001 
L 104.340173 -87.612507 
L 103.572283 -87.769378 
L 102.732813 -87.826448 
L 101.953504 -88.003285 
L 101.095009 -88.077534 
L 100.304615 -88.276254 
L 99.427374 -88.370285 
L 98.538741 -88.474322 
L 97.73091 -88.709173 
L 96.82434 -88.837021 
L 95.906893 -88.977152 
L 94.978801 -89.130371 
L 94.040328 -89.297471 
L 93.091771 -89.479228 
L 92.133455 -89.676402 
L 91.165735 -89.889733 
L 90.188991 -90.119945 
L 89.203632 -90.36774 
L 88.210092 -90.633801 
L 87.069336 -90.795379 
L 86.056729 -91.10071 
L 85.037435 -91.426389 
L 83.859747 -91.651916 
L 82.824765 -92.021318 
L 81.624219 -92.294099 
L 80.411172 -92.592382 
L 79.186476 -92.917151 
L 78.124276 -93.38402 
L 76.882965 -93.762777 
L 75.632602 -94.170514 
L 74.189118 -94.499051 
L 72.919793 -94.969315 
L 71.644401 -95.470967 
L 70.363935 -96.004664 
L 68.879855 -96.47153 
L 67.385866 -96.976976 
L 66.090011 -97.616095 
L 64.58378 -98.198533 
L 63.071765 -98.821988 
L 61.555403 -99.487186 
L 60.03614 -100.194788 
L 58.515424 -100.945394 
L 56.770261 -101.664442 
L 55.248516 -102.506152 
L 53.729819 -103.392385 
L 51.983941 -104.259243 
L 50.239717 -105.178832 
L 48.499045 -106.151626 
L 46.763823 -107.178022 
L 45.035938 -108.258342 
L 43.317278 -109.392832 
L 41.609724 -110.58167 
L 39.915159 -111.824961 
L 37.990144 -113.090447 
L 36.32623 -114.446927 
L 34.433957 -115.834006 
L 32.80893 -117.303411 
L 30.958429 -118.811647 
L 29.13219 -120.382257 
L 27.332923 -122.014887 
L 25.811917 -123.711237 
L 24.075245 -125.462043 
L 22.37551 -127.273053 
L 20.718081 -129.143236 
L 19.111133 -131.07109 
L 17.568964 -133.054125 
L 16.119021 -135.087647 
L 15.021928 -135.193285 
L 15.021928 -135.193285 
L 14.754738 -133.275609 
L 14.657993 -131.343456 
L 14.492386 -129.415056 
L 14.461835 -127.48028 
L 14.501129 -125.545596 
L 14.391463 -123.611572 
L 14.45942 -121.677782 
L 14.593353 -119.747477 
L 14.757945 -117.820783 
L 14.737656 -115.881171 
L 14.962036 -113.959073 
L 15.215563 -112.04167 
L 15.497823 -110.129277 
L 15.596944 -108.19058 
L 15.936712 -106.285481 
L 16.319034 -104.389004 
L 16.712916 -102.495958 
L 17.135066 -100.609485 
L 17.585472 -98.729933 
L 18.064125 -96.857658 
L 18.572852 -94.993528 
L 19.104864 -93.136006 
L 19.660811 -91.285392 
L 20.247826 -89.444206 
L 20.856749 -87.609758 
L 21.493349 -85.784229 
L 22.160058 -83.968946 
L 22.859647 -82.165583 
L 23.594974 -80.376093 
L 24.366563 -78.601624 
L 25.183375 -76.84742 
L 26.042404 -75.113565 
L 26.903342 -73.380511 
L 27.826855 -71.679981 
L 28.87958 -70.052562 
L 31.015138 -69.067633 
L 33.198864 -68.167086 
L 35.317 -67.282337 
L 37.442185 -66.457132 
L 39.564381 -65.685639 
L 41.680211 -64.965856 
L 43.704224 -64.234778 
L 45.796648 -63.608645 
L 47.797403 -62.966632 
L 49.784874 -62.366421 
L 51.685665 -61.745047 
L 53.644549 -61.223626 
L 55.517463 -60.676527 
L 57.377535 -60.165901 
L 59.286189 -59.751846 
L 61.051142 -59.244901 
L 62.862983 -58.831759 
L 64.658686 -58.449961 
L 66.380569 -58.033801 
L 68.08823 -57.645557 
L 69.781124 -57.284059 
L 71.458757 -56.948112 
L 73.120685 -56.636504 
L 74.766516 -56.348004 
L 76.352723 -56.020818 
L 77.967514 -55.77557 
L 79.527412 -55.492449 
L 81.073081 -55.227586 
L 82.606626 -54.983497 
L 84.125646 -54.75554 
L 85.632294 -54.546443 
L 87.124306 -54.351349 
L 88.603875 -54.173206 
L 90.044126 -53.957288 
L 91.497532 -53.805387 
L 92.916301 -53.618606 
L 94.346015 -53.493623 
L 95.743667 -53.33278 
L 97.131763 -53.184463 
L 98.525669 -53.088638 
L 99.893778 -52.961621 
L 101.252967 -52.845016 
L 102.6035 -52.738178 
L 103.945666 -52.640485 
L 105.270984 -52.519591 
L 106.59851 -52.440371 
L 107.918653 -52.36863 
L 109.231814 -52.303848 
L 110.532979 -52.218786 
L 111.834354 -52.168579 
L 113.130025 -52.124001 
L 114.417837 -52.066956 
L 115.704201 -52.034729 
L 116.984432 -51.990589 
L 118.263339 -51.969507 
L 119.53901 -51.952507 
L 120.811589 -51.932496 
L 122.082717 -51.925407 
L 123.352101 -51.916253 
L 124.620741 -51.918117 
L 125.888929 -51.920054 
L 127.157551 -51.917602 
L 128.427056 -51.923455 
L 129.698225 -51.930414 
L 130.970601 -51.953482 
L 132.246268 -51.970346 
L 133.523652 -52.004663 
L 134.805822 -52.032178 
L 136.09225 -52.064285 
L 137.379607 -52.124334 
L 138.675296 -52.16878 
L 139.976694 -52.218856 
L 141.278559 -52.300756 
L 142.591802 -52.365433 
L 143.912031 -52.437073 
L 145.239645 -52.516196 
L 146.564178 -52.639957 
L 147.906392 -52.73753 
L 149.256976 -52.844251 
L 150.616221 -52.960743 
L 151.984388 -53.087649 
L 153.37946 -53.180565 
L 154.767664 -53.328813 
L 156.165426 -53.489591 
L 157.572876 -53.663614 
L 159.012881 -53.803866 
L 160.441605 -54.005337 
L 161.908034 -54.16894 
L 163.386361 -54.349544 
L 164.879862 -54.54208 
L 166.353434 -54.807501 
L 167.870311 -55.03694 
L 169.437968 -55.22545 
L 170.98525 -55.487955 
L 172.543737 -55.773296 
L 174.158638 -56.018471 
L 175.746534 -56.34346 
L 177.392498 -56.631949 
L 179.054559 -56.943551 
L 180.732323 -57.279498 
L 182.425348 -57.641002 
L 184.133139 -58.029256 
L 185.855151 -58.445432 
L 187.649291 -58.829034 
L 189.462959 -59.24041 
L 191.228036 -59.747387 
L 193.069513 -60.225344 
L 194.995295 -60.673713 
L 196.870054 -61.219276 
L 198.829063 -61.740743 
L 200.728242 -62.363594 
L 202.715832 -62.96381 
L 204.716703 -63.605833 
L 206.810958 -64.230712 
L 208.83507 -64.961866 
L 210.949299 -65.682895 
L 213.07326 -66.453321 
L 215.196842 -67.27969 
L 217.316623 -68.163532 
L 219.500243 -69.06428 
L 221.551989 -70.096759 
L 222.697281 -71.672136 
L 223.602941 -73.382284 
L 224.477788 -75.108327 
L 225.289855 -76.86481 
L 226.108025 -78.61762 
L 226.892721 -80.385656 
L 227.641493 -82.169124 
L 228.336515 -83.974112 
L 229.110637 -85.748973 
L 229.667617 -87.60456 
L 230.342613 -89.417187 
L 230.948922 -91.253848 
L 231.512424 -93.104133 
L 232.029174 -94.96792 
L 232.475258 -96.849978 
L 233.059071 -98.697557 
L 233.458192 -100.590958 
L 233.88992 -102.477006 
L 234.207042 -104.385966 
L 234.57932 -106.284419 
L 234.818745 -108.204628 
L 235.165796 -110.109011 
L 235.39665 -112.029989 
L 235.52204 -113.961539 
L 235.745684 -115.883245 
L 235.844856 -117.815088 
L 235.987886 -119.744353 
L 236.093409 -121.676653 
L 236.071092 -123.611984 
L 236.103422 -125.546423 
L 235.977489 -127.478437 
L 235.941614 -129.411751 
L 235.872447 -131.344725 
L 235.77077 -133.276855 
L 235.549007 -135.199182 
z
" style="stroke: #ffee9c"/>
    </defs>
    <g clip-path="url(#p55fa245923)">
     <use xlink:href="#mee63434616" x="0" y="249.158125" style="fill: #ffee9c; stroke: #ffee9c"/>
    </g>
   </g>
   <g id="matplotlib.axis_1">
    <g id="xtick_1">
     <g id="line2d_1">
      <path d="M 125.254844 124.579063 
L 125.254844 13.699063 
" clip-path="url(#p55fa245923)" style="fill: none; stroke: #b0b0b0; stroke-width: 0.8; stroke-linecap: square"/>
     </g>
     <g id="text_1">
      <!-- N -->
      <g transform="translate(121.070469 7.958438) scale(0.1 -0.1)">
       <defs>
        <path id="DejaVuSans-Bold-4e" d="M 588 4666 
L 1931 4666 
L 3628 1466 
L 3628 4666 
L 4769 4666 
L 4769 0 
L 3425 0 
L 1728 3200 
L 1728 0 
L 588 0 
L 588 4666 
z
" transform="scale(0.015625)"/>
       </defs>
       <use xlink:href="#DejaVuSans-Bold-4e"/>
      </g>
     </g>
    </g>
    <g id="xtick_2">
     <g id="line2d_2">
      <path d="M 125.254844 124.579063 
L 203.658844 46.175063 
" clip-path="url(#p55fa245923)" style="fill: none; stroke: #b0b0b0; stroke-width: 0.8; stroke-linecap: square"/>
     </g>
    </g>
    <g id="xtick_3">
     <g id="line2d_3">
      <path d="M 125.254844 124.579063 
L 236.134844 124.579063 
" clip-path="url(#p55fa245923)" style="fill: none; stroke: #b0b0b0; stroke-width: 0.8; stroke-linecap: square"/>
     </g>
     <g id="text_2">
      <!-- E -->
      <g transform="translate(241.219219 127.338438) scale(0.1 -0.1)">
       <defs>
        <path id="DejaVuSans-Bold-45" d="M 588 4666 
L 3834 4666 
L 3834 3756 
L 1791 3756 
L 1791 2888 
L 3713 2888 
L 3713 1978 
L 1791 1978 
L 1791 909 
L 3903 909 
L 3903 0 
L 588 0 
L 588 4666 
z
" transform="scale(0.015625)"/>
       </defs>
       <use xlink:href="#DejaVuSans-Bold-45"/>
      </g>
     </g>
    </g>
    <g id="xtick_4">
     <g id="line2d_4">
      <path d="M 125.254844 124.579063 
L 203.658844 202.983062 
" clip-path="url(#p55fa245923)" style="fill: none; stroke: #b0b0b0; stroke-width: 0.8; stroke-linecap: square"/>
     </g>
    </g>
    <g id="xtick_5">
     <g id="line2d_5">
      <path d="M 125.254844 124.579063 
L 125.254844 235.459063 
" clip-path="url(#p55fa245923)" style="fill: none; stroke: #b0b0b0; stroke-width: 0.8; stroke-linecap: square"/>
     </g>
     <g id="text_3">
      <!-- S -->
      <g transform="translate(121.654062 246.718438) scale(0.1 -0.1)">
       <defs>
        <path id="DejaVuSans-Bold-53" d="M 3834 4519 
L 3834 3531 
Q 3450 3703 3084 3790 
Q 2719 3878 2394 3878 
Q 1963 3878 1756 3759 
Q 1550 3641 1550 3391 
Q 1550 3203 1689 3098 
Q 1828 2994 2194 2919 
L 2706 2816 
Q 3484 2659 3812 2340 
Q 4141 2022 4141 1434 
Q 4141 663 3683 286 
Q 3225 -91 2284 -91 
Q 1841 -91 1394 -6 
Q 947 78 500 244 
L 500 1259 
Q 947 1022 1364 901 
Q 1781 781 2169 781 
Q 2563 781 2772 912 
Q 2981 1044 2981 1288 
Q 2981 1506 2839 1625 
Q 2697 1744 2272 1838 
L 1806 1941 
Q 1106 2091 782 2419 
Q 459 2747 459 3303 
Q 459 4000 909 4375 
Q 1359 4750 2203 4750 
Q 2588 4750 2994 4692 
Q 3400 4634 3834 4519 
z
" transform="scale(0.015625)"/>
       </defs>
       <use xlink:href="#DejaVuSans-Bold-53"/>
      </g>
     </g>
    </g>
    <g id="xtick_6">
     <g id="line2d_6">
      <path d="M 125.254844 124.579063 
L 46.850844 202.983062 
" clip-path="url(#p55fa245923)" style="fill: none; stroke: #b0b0b0; stroke-width: 0.8; stroke-linecap: square"/>
     </g>
    </g>
    <g id="xtick_7">
     <g id="line2d_7">
      <path d="M 125.254844 124.579063 
L 14.374844 124.579063 
" clip-path="url(#p55fa245923)" style="fill: none; stroke: #b0b0b0; stroke-width: 0.8; stroke-linecap: square"/>
     </g>
     <g id="text_4">
      <!-- W -->
      <g transform="translate(0.36 127.338438) scale(0.1 -0.1)">
       <defs>
        <path id="DejaVuSans-Bold-57" d="M 191 4666 
L 1344 4666 
L 2150 1275 
L 2950 4666 
L 4109 4666 
L 4909 1275 
L 5716 4666 
L 6859 4666 
L 5759 0 
L 4372 0 
L 3525 3547 
L 2688 0 
L 1300 0 
L 191 4666 
z
" transform="scale(0.015625)"/>
       </defs>
       <use xlink:href="#DejaVuSans-Bold-57"/>
      </g>
     </g>
    </g>
    <g id="xtick_8">
     <g id="line2d_8">
      <path d="M 125.254844 124.579063 
L 46.850844 46.175063 
" clip-path="url(#p55fa245923)" style="fill: none; stroke: #b0b0b0; stroke-width: 0.8; stroke-linecap: square"/>
     </g>
    </g>
   </g>
   <g id="matplotlib.axis_2"/>
   <g id="patch_3">
    <path d="M 125.254844 124.579063 
C 125.254844 124.579063 125.254844 124.579063 125.254844 124.579063 
C 125.254844 124.579063 125.254844 124.579063 125.254844 124.579063 
L 125.254844 124.579063 
C 125.254844 124.579063 125.254844 124.579063 125.254844 124.579063 
C 125.254844 124.579063 125.254844 124.579063 125.254844 124.579063 
z
" clip-path="url(#p55fa245923)" style="fill: #d9d9d9"/>
   </g>
   <g id="patch_4">
    <path d="M 125.254844 124.579063 
C 125.254844 124.579063 125.254844 124.579063 125.254844 124.579063 
C 125.254844 124.579063 125.254844 124.579063 125.254844 124.579063 
L 125.254844 124.579063 
C 125.254844 124.579063 125.254844 124.579063 125.254844 124.579063 
C 125.254844 124.579063 125.254844 124.579063 125.254844 124.579063 
z
" clip-path="url(#p55fa245923)" style="fill: #d9d9d9"/>
   </g>
   <g id="patch_5">
    <path d="M 125.254844 124.579063 
C 125.254844 124.579063 125.254844 124.579063 125.254844 124.579063 
C 125.254844 124.579063 125.254844 124.579063 125.254844 124.579063 
L 125.254844 124.579063 
C 125.254844 124.579063 125.254844 124.579063 125.254844 124.579063 
C 125.254844 124.579063 125.254844 124.579063 125.254844 124.579063 
z
" clip-path="url(#p55fa245923)" style="fill: #d9d9d9"/>
   </g>
   <g id="patch_6">
    <path d="M 125.254844 124.579063 
C 125.254844 124.579063 125.254844 124.579063 125.254844 124.579063 
C 125.254844 124.579063 125.254844 124.579063 125.254844 124.579063 
L 125.254844 124.579063 
C 125.254844 124.579063 125.254844 124.579063 125.254844 124.579063 
C 125.254844 124.579063 125.254844 124.579063 125.254844 124.579063 
z
" clip-path="url(#p55fa245923)" style="fill: #d9d9d9"/>
   </g>
   <g id="patch_7">
    <path d="M 125.254844 124.579063 
C 125.254844 124.579063 125.254844 124.579063 125.254844 124.579063 
C 125.254844 124.579063 125.254844 124.579063 125.254844 124.579063 
L 125.254844 124.579063 
C 125.254844 124.579063 125.254844 124.579063 125.254844 124.579063 
C 125.254844 124.579063 125.254844 124.579063 125.254844 124.579063 
z
" clip-path="url(#p55fa245923)" style="fill: #d9d9d9"/>
   </g>
   <g id="patch_8">
    <path d="M 125.254844 124.579063 
C 125.254844 124.579063 125.254844 124.579063 125.254844 124.579063 
C 125.254844 124.579063 125.254844 124.579063 125.254844 124.579063 
L 125.254844 124.579063 
C 125.254844 124.579063 125.254844 124.579063 125.254844 124.579063 
C 125.254844 124.579063 125.254844 124.579063 125.254844 124.579063 
z
" clip-path="url(#p55fa245923)" style="fill: #d9d9d9"/>
   </g>
   <g id="patch_9">
    <path d="M 125.254844 124.579063 
C 125.254844 124.579063 125.254844 124.579063 125.254844 124.579063 
C 125.254844 124.579063 125.254844 124.579063 125.254844 124.579063 
L 125.254844 124.579063 
C 125.254844 124.579063 125.254844 124.579063 125.254844 124.579063 
C 125.254844 124.579063 125.254844 124.579063 125.254844 124.579063 
z
" clip-path="url(#p55fa245923)" style="fill: #d9d9d9"/>
   </g>
   <g id="patch_10">
    <path d="M 125.254844 124.579063 
C 125.254844 124.579063 125.254844 124.579063 125.254844 124.579063 
C 125.254844 124.579063 125.254844 124.579063 125.254844 124.579063 
L 125.254844 124.579063 
C 125.254844 124.579063 125.254844 124.579063 125.254844 124.579063 
C 125.254844 124.579063 125.254844 124.579063 125.254844 124.579063 
z
" clip-path="url(#p55fa245923)" style="fill: #d9d9d9"/>
   </g>
   <g id="patch_11">
    <path d="M 125.254844 124.579063 
C 125.254844 124.579063 125.254844 124.579063 125.254844 124.579063 
C 125.254844 124.579063 125.254844 124.579063 125.254844 124.579063 
L 125.254844 124.579063 
C 125.254844 124.579063 125.254844 124.579063 125.254844 124.579063 
C 125.254844 124.579063 125.254844 124.579063 125.254844 124.579063 
z
" clip-path="url(#p55fa245923)" style="fill: #d9d9d9"/>
   </g>
   <g id="patch_12">
    <path d="M 125.254844 124.579063 
C 125.254844 124.579063 125.254844 124.579063 125.254844 124.579063 
C 125.254844 124.579063 125.254844 124.579063 125.254844 124.579063 
L 125.254844 124.579063 
C 125.254844 124.579063 125.254844 124.579063 125.254844 124.579063 
C 125.254844 124.579063 125.254844 124.579063 125.254844 124.579063 
z
" clip-path="url(#p55fa245923)" style="fill: #d9d9d9"/>
   </g>
   <g id="patch_13">
    <path d="M 125.254844 124.579063 
C 125.254844 124.579063 125.254844 124.579063 125.254844 124.579063 
C 125.254844 124.579063 125.254844 124.579063 125.254844 124.579063 
L 125.254844 124.579063 
C 125.254844 124.579063 125.254844 124.579063 125.254844 124.579063 
C 125.254844 124.579063 125.254844 124.579063 125.254844 124.579063 
z
" clip-path="url(#p55fa245923)" style="fill: #d9d9d9"/>
   </g>
   <g id="patch_14">
    <path d="M 125.254844 124.579063 
C 125.254844 124.579063 125.254844 124.579063 125.254844 124.579063 
C 125.254844 124.579063 125.254844 124.579063 125.254844 124.579063 
L 125.254844 124.579063 
C 125.254844 124.579063 125.254844 124.579063 125.254844 124.579063 
C 125.254844 124.579063 125.254844 124.579063 125.254844 124.579063 
z
" clip-path="url(#p55fa245923)" style="fill: #d9d9d9"/>
   </g>
   <g id="patch_15">
    <path d="M 125.254844 124.579063 
C 125.254844 124.579063 125.254844 124.579063 125.254844 124.579063 
C 125.254844 124.579063 125.254844 124.579063 125.254844 124.579063 
L 125.254844 124.579063 
C 125.254844 124.579063 125.254844 124.579063 125.254844 124.579063 
C 125.254844 124.579063 125.254844 124.579063 125.254844 124.579063 
z
" clip-path="url(#p55fa245923)" style="fill: #d9d9d9"/>
   </g>
   <g id="patch_16">
    <path d="M 125.254844 124.579063 
C 125.254844 124.579063 125.254844 124.579063 125.254844 124.579063 
C 125.254844 124.579063 125.254844 124.579063 125.254844 124.579063 
L 125.254844 124.579063 
C 125.254844 124.579063 125.254844 124.579063 125.254844 124.579063 
C 125.254844 124.579063 125.254844 124.579063 125.254844 124.579063 
z
" clip-path="url(#p55fa245923)" style="fill: #d9d9d9"/>
   </g>
   <g id="patch_17">
    <path d="M 125.254844 124.579063 
C 125.254844 124.579063 125.254844 124.579063 125.254844 124.579063 
C 125.254844 124.579063 125.254844 124.579063 125.254844 124.579063 
L 125.254844 124.579063 
C 125.254844 124.579063 125.254844 124.579063 125.254844 124.579063 
C 125.254844 124.579063 125.254844 124.579063 125.254844 124.579063 
z
" clip-path="url(#p55fa245923)" style="fill: #d9d9d9"/>
   </g>
   <g id="patch_18">
    <path d="M 125.254844 124.579063 
C 125.254844 124.579063 125.254844 124.579063 125.254844 124.579063 
C 125.254844 124.579063 125.254844 124.579063 125.254844 124.579063 
L 125.254844 124.579063 
C 125.254844 124.579063 125.254844 124.579063 125.254844 124.579063 
C 125.254844 124.579063 125.254844 124.579063 125.254844 124.579063 
z
" clip-path="url(#p55fa245923)" style="fill: #d9d9d9"/>
   </g>
   <g id="patch_19">
    <path d="M 125.254844 124.579063 
C 125.254844 124.579063 125.254844 124.579063 125.254844 124.579063 
C 125.254844 124.579063 125.254844 124.579063 125.254844 124.579063 
L 125.254844 124.579063 
C 125.254844 124.579063 125.254844 124.579063 125.254844 124.579063 
C 125.254844 124.579063 125.254844 124.579063 125.254844 124.579063 
z
" clip-path="url(#p55fa245923)" style="fill: #d9d9d9"/>
   </g>
   <g id="patch_20">
    <path d="M 125.254844 124.579063 
C 125.254844 124.579063 125.254844 124.579063 125.254844 124.579063 
C 125.254844 124.579063 125.254844 124.579063 125.254844 124.579063 
L 125.254844 124.579063 
C 125.254844 124.579063 125.254844 124.579063 125.254844 124.579063 
C 125.254844 124.579063 125.254844 124.579063 125.254844 124.579063 
z
" clip-path="url(#p55fa245923)" style="fill: #d9d9d9"/>
   </g>
   <g id="patch_21">
    <path d="M 125.254844 124.579063 
C 125.254844 124.579063 125.254844 124.579063 125.254844 124.579063 
C 125.254844 124.579063 125.254844 124.579063 125.254844 124.579063 
L 125.254844 124.579063 
C 125.254844 124.579063 125.254844 124.579063 125.254844 124.579063 
C 125.254844 124.579063 125.254844 124.579063 125.254844 124.579063 
z
" clip-path="url(#p55fa245923)" style="fill: #d9d9d9"/>
   </g>
   <g id="patch_22">
    <path d="M 125.254844 124.579063 
C 125.254844 124.579063 125.254844 124.579063 125.254844 124.579063 
C 125.254844 124.579063 125.254844 124.579063 125.254844 124.579063 
L 125.254844 124.579063 
C 125.254844 124.579063 125.254844 124.579063 125.254844 124.579063 
C 125.254844 124.579063 125.254844 124.579063 125.254844 124.579063 
z
" clip-path="url(#p55fa245923)" style="fill: #d9d9d9"/>
   </g>
   <g id="patch_23">
    <path d="M 125.254844 124.579063 
C 125.254844 124.579063 125.254844 124.579063 125.254844 124.579063 
C 125.254844 124.579063 125.254844 124.579063 125.254844 124.579063 
L 125.254844 124.579063 
C 125.254844 124.579063 125.254844 124.579063 125.254844 124.579063 
C 125.254844 124.579063 125.254844 124.579063 125.254844 124.579063 
z
" clip-path="url(#p55fa245923)" style="fill: #d9d9d9"/>
   </g>
   <g id="patch_24">
    <path d="M 125.254844 124.579063 
C 125.254844 124.579063 125.254844 124.579063 125.254844 124.579063 
C 125.254844 124.579063 125.254844 124.579063 125.254844 124.579063 
L 125.254844 124.579063 
C 125.254844 124.579063 125.254844 124.579063 125.254844 124.579063 
C 125.254844 124.579063 125.254844 124.579063 125.254844 124.579063 
z
" clip-path="url(#p55fa245923)" style="fill: #d9d9d9"/>
   </g>
   <g id="patch_25">
    <path d="M 125.254844 124.579063 
C 125.254844 124.579063 125.254844 124.579063 125.254844 124.579063 
C 125.254844 124.579063 125.254844 124.579063 125.254844 124.579063 
L 125.254844 124.579063 
C 125.254844 124.579063 125.254844 124.579063 125.254844 124.579063 
C 125.254844 124.579063 125.254844 124.579063 125.254844 124.579063 
z
" clip-path="url(#p55fa245923)" style="fill: #d9d9d9"/>
   </g>
   <g id="patch_26">
    <path d="M 125.254844 124.579063 
C 125.254844 124.579063 125.254844 124.579063 125.254844 124.579063 
C 125.254844 124.579063 125.254844 124.579063 125.254844 124.579063 
L 125.254844 124.579063 
C 125.254844 124.579063 125.254844 124.579063 125.254844 124.579063 
C 125.254844 124.579063 125.254844 124.579063 125.254844 124.579063 
z
" clip-path="url(#p55fa245923)" style="fill: #d9d9d9"/>
   </g>
   <g id="patch_27">
    <path d="M 125.254844 124.579063 
C 125.254844 124.579063 125.254844 124.579063 125.254844 124.579063 
C 125.254844 124.579063 125.254844 124.579063 125.254844 124.579063 
L 125.254844 124.579063 
C 125.254844 124.579063 125.254844 124.579063 125.254844 124.579063 
C 125.254844 124.579063 125.254844 124.579063 125.254844 124.579063 
z
" clip-path="url(#p55fa245923)" style="fill: #d9d9d9"/>
   </g>
   <g id="patch_28">
    <path d="M 125.254844 124.579063 
C 125.254844 124.579063 125.254844 124.579063 125.254844 124.579063 
C 125.254844 124.579063 125.254844 124.579063 125.254844 124.579063 
L 125.254844 124.579063 
C 125.254844 124.579063 125.254844 124.579063 125.254844 124.579063 
C 125.254844 124.579063 125.254844 124.579063 125.254844 124.579063 
z
" clip-path="url(#p55fa245923)" style="fill: #d9d9d9"/>
   </g>
   <g id="patch_29">
    <path d="M 125.254844 124.579063 
C 125.254844 124.579063 125.254844 124.579063 125.254844 124.579063 
C 125.254844 124.579063 125.254844 124.579063 125.254844 124.579063 
L 125.254844 124.579063 
C 125.254844 124.579063 125.254844 124.579063 125.254844 124.579063 
C 125.254844 124.579063 125.254844 124.579063 125.254844 124.579063 
z
" clip-path="url(#p55fa245923)" style="fill: #d9d9d9"/>
   </g>
   <g id="patch_30">
    <path d="M 125.254844 124.579063 
C 125.254844 124.579063 125.254844 124.579063 125.254844 124.579063 
C 125.254844 124.579063 125.254844 124.579063 125.254844 124.579063 
L 125.254844 124.579063 
C 125.254844 124.579063 125.254844 124.579063 125.254844 124.579063 
C 125.254844 124.579063 125.254844 124.579063 125.254844 124.579063 
z
" clip-path="url(#p55fa245923)" style="fill: #d9d9d9"/>
   </g>
   <g id="patch_31">
    <path d="M 125.254844 124.579063 
C 125.254844 124.579063 125.254844 124.579063 125.254844 124.579063 
C 125.254844 124.579063 125.254844 124.579063 125.254844 124.579063 
L 125.254844 124.579063 
C 125.254844 124.579063 125.254844 124.579063 125.254844 124.579063 
C 125.254844 124.579063 125.254844 124.579063 125.254844 124.579063 
z
" clip-path="url(#p55fa245923)" style="fill: #d9d9d9"/>
   </g>
   <g id="patch_32">
    <path d="M 125.254844 124.579063 
C 125.254844 124.579063 125.254844 124.579063 125.254844 124.579063 
C 125.254844 124.579063 125.254844 124.579063 125.254844 124.579063 
L 125.254844 124.579063 
C 125.254844 124.579063 125.254844 124.579063 125.254844 124.579063 
C 125.254844 124.579063 125.254844 124.579063 125.254844 124.579063 
z
" clip-path="url(#p55fa245923)" style="fill: #d9d9d9"/>
   </g>
   <g id="patch_33">
    <path d="M 125.254844 124.579063 
C 125.254844 124.579063 125.254844 124.579063 125.254844 124.579063 
C 125.254844 124.579063 125.254844 124.579063 125.254844 124.579063 
L 125.254844 124.579063 
C 125.254844 124.579063 125.254844 124.579063 125.254844 124.579063 
C 125.254844 124.579063 125.254844 124.579063 125.254844 124.579063 
z
" clip-path="url(#p55fa245923)" style="fill: #d9d9d9"/>
   </g>
   <g id="patch_34">
    <path d="M 125.254844 124.579063 
C 125.254844 124.579063 125.254844 124.579063 125.254844 124.579063 
C 125.254844 124.579063 125.254844 124.579063 125.254844 124.579063 
L 125.254844 124.579063 
C 125.254844 124.579063 125.254844 124.579063 125.254844 124.579063 
C 125.254844 124.579063 125.254844 124.579063 125.254844 124.579063 
z
" clip-path="url(#p55fa245923)" style="fill: #d9d9d9"/>
   </g>
   <g id="patch_35">
    <path d="M 125.254844 124.579063 
C 125.254844 124.579063 125.254844 124.579063 125.254844 124.579063 
C 125.254844 124.579063 125.254844 124.579063 125.254844 124.579063 
L 128.231207 94.359542 
C 127.242077 94.262121 126.24876 94.213322 125.254844 94.213322 
C 124.260928 94.213322 123.267611 94.262121 122.278481 94.359542 
z
" clip-path="url(#p55fa245923)" style="fill: #badbb8"/>
   </g>
   <g id="patch_36">
    <path d="M 125.254844 124.579063 
C 125.254844 124.579063 125.254844 124.579063 125.254844 124.579063 
C 125.254844 124.579063 125.254844 124.579063 125.254844 124.579063 
L 139.946026 76.148726 
C 138.360828 75.667862 136.752977 75.265116 135.12828 74.941944 
C 133.503583 74.618772 131.863999 74.375562 130.215449 74.213194 
z
" clip-path="url(#p55fa245923)" style="fill: #badbb8"/>
   </g>
   <g id="patch_37">
    <path d="M 125.254844 124.579063 
C 125.254844 124.579063 125.254844 124.579063 125.254844 124.579063 
C 125.254844 124.579063 125.254844 124.579063 125.254844 124.579063 
L 143.73454 90.005983 
C 142.602911 89.401115 141.442267 88.852172 140.2568 88.361135 
C 139.071334 87.870099 137.862473 87.437561 136.634584 87.065085 
z
" clip-path="url(#p55fa245923)" style="fill: #badbb8"/>
   </g>
   <g id="patch_38">
    <path d="M 125.254844 124.579063 
C 125.254844 124.579063 125.254844 124.579063 125.254844 124.579063 
C 125.254844 124.579063 125.254844 124.579063 125.254844 124.579063 
L 140.983688 105.41341 
C 140.356368 104.898581 139.704149 104.414863 139.029387 103.964001 
C 138.354625 103.51314 137.658134 103.095679 136.94243 102.713127 
z
" clip-path="url(#p55fa245923)" style="fill: #badbb8"/>
   </g>
   <g id="patch_39">
    <path d="M 125.254844 124.579063 
C 125.254844 124.579063 125.254844 124.579063 125.254844 124.579063 
C 125.254844 124.579063 125.254844 124.579063 125.254844 124.579063 
L 148.727878 105.315241 
C 148.097345 104.546933 147.429469 103.810046 146.726665 103.107242 
C 146.02386 102.404437 145.286973 101.736562 144.518665 101.106028 
z
" clip-path="url(#p55fa245923)" style="fill: #badbb8"/>
   </g>
   <g id="patch_40">
    <path d="M 125.254844 124.579063 
C 125.254844 124.579063 125.254844 124.579063 125.254844 124.579063 
C 125.254844 124.579063 125.254844 124.579063 125.254844 124.579063 
L 152.035036 110.264752 
C 151.566507 109.388196 151.055224 108.535172 150.503034 107.708761 
C 149.950844 106.88235 149.358412 106.083548 148.727878 105.315241 
z
" clip-path="url(#p55fa245923)" style="fill: #badbb8"/>
   </g>
   <g id="patch_41">
    <path d="M 125.254844 124.579063 
C 125.254844 124.579063 125.254844 124.579063 125.254844 124.579063 
C 125.254844 124.579063 125.254844 124.579063 125.254844 124.579063 
L 125.254844 124.579063 
C 125.254844 124.579063 125.254844 124.579063 125.254844 124.579063 
C 125.254844 124.579063 125.254844 124.579063 125.254844 124.579063 
z
" clip-path="url(#p55fa245923)" style="fill: #badbb8"/>
   </g>
   <g id="patch_42">
    <path d="M 125.254844 124.579063 
C 125.254844 124.579063 125.254844 124.579063 125.254844 124.579063 
C 125.254844 124.579063 125.254844 124.579063 125.254844 124.579063 
L 135.328017 123.586941 
C 135.295544 123.257231 135.246902 122.929315 135.182267 122.604375 
C 135.117633 122.279436 135.037084 121.957866 134.940911 121.640826 
z
" clip-path="url(#p55fa245923)" style="fill: #badbb8"/>
   </g>
   <g id="patch_43">
    <path d="M 125.254844 124.579063 
C 125.254844 124.579063 125.254844 124.579063 125.254844 124.579063 
C 125.254844 124.579063 125.254844 124.579063 125.254844 124.579063 
L 125.254844 124.579063 
C 125.254844 124.579063 125.254844 124.579063 125.254844 124.579063 
C 125.254844 124.579063 125.254844 124.579063 125.254844 124.579063 
z
" clip-path="url(#p55fa245923)" style="fill: #badbb8"/>
   </g>
   <g id="patch_44">
    <path d="M 125.254844 124.579063 
C 125.254844 124.579063 125.254844 124.579063 125.254844 124.579063 
C 125.254844 124.579063 125.254844 124.579063 125.254844 124.579063 
L 125.254844 124.579063 
C 125.254844 124.579063 125.254844 124.579063 125.254844 124.579063 
C 125.254844 124.579063 125.254844 124.579063 125.254844 124.579063 
z
" clip-path="url(#p55fa245923)" style="fill: #badbb8"/>
   </g>
   <g id="patch_45">
    <path d="M 125.254844 124.579063 
C 125.254844 124.579063 125.254844 124.579063 125.254844 124.579063 
C 125.254844 124.579063 125.254844 124.579063 125.254844 124.579063 
L 140.716395 132.843434 
C 140.9869 132.337354 141.232395 131.818298 141.451993 131.288142 
C 141.671591 130.757985 141.865028 130.217366 142.031604 129.668237 
z
" clip-path="url(#p55fa245923)" style="fill: #badbb8"/>
   </g>
   <g id="patch_46">
    <path d="M 125.254844 124.579063 
C 125.254844 124.579063 125.254844 124.579063 125.254844 124.579063 
C 125.254844 124.579063 125.254844 124.579063 125.254844 124.579063 
L 125.254844 124.579063 
C 125.254844 124.579063 125.254844 124.579063 125.254844 124.579063 
C 125.254844 124.579063 125.254844 124.579063 125.254844 124.579063 
z
" clip-path="url(#p55fa245923)" style="fill: #badbb8"/>
   </g>
   <g id="patch_47">
    <path d="M 125.254844 124.579063 
C 125.254844 124.579063 125.254844 124.579063 125.254844 124.579063 
C 125.254844 124.579063 125.254844 124.579063 125.254844 124.579063 
L 125.254844 124.579063 
C 125.254844 124.579063 125.254844 124.579063 125.254844 124.579063 
C 125.254844 124.579063 125.254844 124.579063 125.254844 124.579063 
z
" clip-path="url(#p55fa245923)" style="fill: #badbb8"/>
   </g>
   <g id="patch_48">
    <path d="M 125.254844 124.579063 
C 125.254844 124.579063 125.254844 124.579063 125.254844 124.579063 
C 125.254844 124.579063 125.254844 124.579063 125.254844 124.579063 
L 125.254844 124.579063 
C 125.254844 124.579063 125.254844 124.579063 125.254844 124.579063 
C 125.254844 124.579063 125.254844 124.579063 125.254844 124.579063 
z
" clip-path="url(#p55fa245923)" style="fill: #badbb8"/>
   </g>
   <g id="patch_49">
    <path d="M 125.254844 124.579063 
C 125.254844 124.579063 125.254844 124.579063 125.254844 124.579063 
C 125.254844 124.579063 125.254844 124.579063 125.254844 124.579063 
L 125.254844 124.579063 
C 125.254844 124.579063 125.254844 124.579063 125.254844 124.579063 
C 125.254844 124.579063 125.254844 124.579063 125.254844 124.579063 
z
" clip-path="url(#p55fa245923)" style="fill: #badbb8"/>
   </g>
   <g id="patch_50">
    <path d="M 125.254844 124.579063 
C 125.254844 124.579063 125.254844 124.579063 125.254844 124.579063 
C 125.254844 124.579063 125.254844 124.579063 125.254844 124.579063 
L 125.254844 124.579063 
C 125.254844 124.579063 125.254844 124.579063 125.254844 124.579063 
C 125.254844 124.579063 125.254844 124.579063 125.254844 124.579063 
z
" clip-path="url(#p55fa245923)" style="fill: #badbb8"/>
   </g>
   <g id="patch_51">
    <path d="M 125.254844 124.579063 
C 125.254844 124.579063 125.254844 124.579063 125.254844 124.579063 
C 125.254844 124.579063 125.254844 124.579063 125.254844 124.579063 
L 125.254844 124.579063 
C 125.254844 124.579063 125.254844 124.579063 125.254844 124.579063 
C 125.254844 124.579063 125.254844 124.579063 125.254844 124.579063 
z
" clip-path="url(#p55fa245923)" style="fill: #badbb8"/>
   </g>
   <g id="patch_52">
    <path d="M 125.254844 124.579063 
C 125.254844 124.579063 125.254844 124.579063 125.254844 124.579063 
C 125.254844 124.579063 125.254844 124.579063 125.254844 124.579063 
L 125.254844 124.579063 
C 125.254844 124.579063 125.254844 124.579063 125.254844 124.579063 
C 125.254844 124.579063 125.254844 124.579063 125.254844 124.579063 
z
" clip-path="url(#p55fa245923)" style="fill: #badbb8"/>
   </g>
   <g id="patch_53">
    <path d="M 125.254844 124.579063 
C 125.254844 124.579063 125.254844 124.579063 125.254844 124.579063 
C 125.254844 124.579063 125.254844 124.579063 125.254844 124.579063 
L 125.254844 124.579063 
C 125.254844 124.579063 125.254844 124.579063 125.254844 124.579063 
C 125.254844 124.579063 125.254844 124.579063 125.254844 124.579063 
z
" clip-path="url(#p55fa245923)" style="fill: #badbb8"/>
   </g>
   <g id="patch_54">
    <path d="M 125.254844 124.579063 
C 125.254844 124.579063 125.254844 124.579063 125.254844 124.579063 
C 125.254844 124.579063 125.254844 124.579063 125.254844 124.579063 
L 125.254844 124.579063 
C 125.254844 124.579063 125.254844 124.579063 125.254844 124.579063 
C 125.254844 124.579063 125.254844 124.579063 125.254844 124.579063 
z
" clip-path="url(#p55fa245923)" style="fill: #badbb8"/>
   </g>
   <g id="patch_55">
    <path d="M 125.254844 124.579063 
C 125.254844 124.579063 125.254844 124.579063 125.254844 124.579063 
C 125.254844 124.579063 125.254844 124.579063 125.254844 124.579063 
L 125.254844 124.579063 
C 125.254844 124.579063 125.254844 124.579063 125.254844 124.579063 
C 125.254844 124.579063 125.254844 124.579063 125.254844 124.579063 
z
" clip-path="url(#p55fa245923)" style="fill: #badbb8"/>
   </g>
   <g id="patch_56">
    <path d="M 125.254844 124.579063 
C 125.254844 124.579063 125.254844 124.579063 125.254844 124.579063 
C 125.254844 124.579063 125.254844 124.579063 125.254844 124.579063 
L 109.793293 132.843434 
C 110.063798 133.349513 110.358987 133.842007 110.677794 134.319136 
C 110.996601 134.796264 111.338642 135.257453 111.702681 135.701035 
z
" clip-path="url(#p55fa245923)" style="fill: #badbb8"/>
   </g>
   <g id="patch_57">
    <path d="M 125.254844 124.579063 
C 125.254844 124.579063 125.254844 124.579063 125.254844 124.579063 
C 125.254844 124.579063 125.254844 124.579063 125.254844 124.579063 
L 111.556676 128.734356 
C 111.692685 129.182718 111.850625 129.624131 112.029927 130.057003 
C 112.209228 130.489874 112.409674 130.913681 112.63054 131.326893 
z
" clip-path="url(#p55fa245923)" style="fill: #badbb8"/>
   </g>
   <g id="patch_58">
    <path d="M 125.254844 124.579063 
C 125.254844 124.579063 125.254844 124.579063 125.254844 124.579063 
C 125.254844 124.579063 125.254844 124.579063 125.254844 124.579063 
L 111.009225 125.982133 
C 111.05515 126.448414 111.12394 126.912158 111.215347 127.371692 
C 111.306753 127.831226 111.420667 128.285995 111.556676 128.734356 
z
" clip-path="url(#p55fa245923)" style="fill: #badbb8"/>
   </g>
   <g id="patch_59">
    <path d="M 125.254844 124.579063 
C 125.254844 124.579063 125.254844 124.579063 125.254844 124.579063 
C 125.254844 124.579063 125.254844 124.579063 125.254844 124.579063 
L 98.603731 121.954157 
C 98.517814 122.826488 98.474778 123.702511 98.474778 124.579063 
C 98.474778 125.455614 98.517814 126.331637 98.603731 127.203968 
z
" clip-path="url(#p55fa245923)" style="fill: #badbb8"/>
   </g>
   <g id="patch_60">
    <path d="M 125.254844 124.579063 
C 125.254844 124.579063 125.254844 124.579063 125.254844 124.579063 
C 125.254844 124.579063 125.254844 124.579063 125.254844 124.579063 
L 108.478083 119.489888 
C 108.311507 120.039016 108.171992 120.595992 108.060042 121.158804 
C 107.948091 121.721615 107.863841 122.289584 107.807595 122.860659 
z
" clip-path="url(#p55fa245923)" style="fill: #badbb8"/>
   </g>
   <g id="patch_61">
    <path d="M 125.254844 124.579063 
C 125.254844 124.579063 125.254844 124.579063 125.254844 124.579063 
C 125.254844 124.579063 125.254844 124.579063 125.254844 124.579063 
L 103.388909 112.891477 
C 103.006356 113.607181 102.659174 114.341237 102.348615 115.090992 
C 102.038057 115.840747 101.764496 116.605298 101.528921 117.381883 
z
" clip-path="url(#p55fa245923)" style="fill: #badbb8"/>
   </g>
   <g id="patch_62">
    <path d="M 125.254844 124.579063 
C 125.254844 124.579063 125.254844 124.579063 125.254844 124.579063 
C 125.254844 124.579063 125.254844 124.579063 125.254844 124.579063 
L 125.254844 124.579063 
C 125.254844 124.579063 125.254844 124.579063 125.254844 124.579063 
C 125.254844 124.579063 125.254844 124.579063 125.254844 124.579063 
z
" clip-path="url(#p55fa245923)" style="fill: #badbb8"/>
   </g>
   <g id="patch_63">
    <path d="M 125.254844 124.579063 
C 125.254844 124.579063 125.254844 124.579063 125.254844 124.579063 
C 125.254844 124.579063 125.254844 124.579063 125.254844 124.579063 
L 108.26575 103.877792 
C 107.588166 104.43387 106.938293 105.022881 106.318478 105.642696 
C 105.698662 106.262512 105.109651 106.912385 104.553573 107.589969 
z
" clip-path="url(#p55fa245923)" style="fill: #badbb8"/>
   </g>
   <g id="patch_64">
    <path d="M 125.254844 124.579063 
C 125.254844 124.579063 125.254844 124.579063 125.254844 124.579063 
C 125.254844 124.579063 125.254844 124.579063 125.254844 124.579063 
L 103.916329 84.657509 
C 102.609637 85.355951 101.338024 86.118126 100.106083 86.941283 
C 98.874143 87.764439 97.683359 88.647584 96.538034 89.587528 
z
" clip-path="url(#p55fa245923)" style="fill: #badbb8"/>
   </g>
   <g id="patch_65">
    <path d="M 125.254844 124.579063 
C 125.254844 124.579063 125.254844 124.579063 125.254844 124.579063 
C 125.254844 124.579063 125.254844 124.579063 125.254844 124.579063 
L 125.254844 124.579063 
C 125.254844 124.579063 125.254844 124.579063 125.254844 124.579063 
C 125.254844 124.579063 125.254844 124.579063 125.254844 124.579063 
z
" clip-path="url(#p55fa245923)" style="fill: #badbb8"/>
   </g>
   <g id="patch_66">
    <path d="M 125.254844 124.579063 
C 125.254844 124.579063 125.254844 124.579063 125.254844 124.579063 
C 125.254844 124.579063 125.254844 124.579063 125.254844 124.579063 
L 122.824654 99.904927 
C 122.017032 99.984471 121.213803 100.103619 120.417867 100.26194 
C 119.621932 100.420261 118.834249 100.617566 118.057664 100.85314 
z
" clip-path="url(#p55fa245923)" style="fill: #badbb8"/>
   </g>
   <g id="patch_67">
    <path d="M 122.278481 94.359542 
C 123.267611 94.262121 124.260928 94.213322 125.254844 94.213322 
C 126.24876 94.213322 127.242077 94.262121 128.231207 94.359542 
L 130.504655 71.276838 
C 128.759993 71.105004 127.007947 71.018931 125.254844 71.018931 
C 123.501741 71.018931 121.749694 71.105004 120.005033 71.276838 
z
" clip-path="url(#p55fa245923)" style="fill: #a1a1d8"/>
   </g>
   <g id="patch_68">
    <path d="M 130.215449 74.213194 
C 131.863999 74.375562 133.503583 74.618772 135.12828 74.941944 
C 136.752977 75.265116 138.360828 75.667862 139.946026 76.148726 
L 145.182932 58.884958 
C 143.032666 58.232682 140.851671 57.686371 138.647825 57.247999 
C 136.443979 56.809627 134.219938 56.479722 131.983736 56.259475 
z
" clip-path="url(#p55fa245923)" style="fill: #a1a1d8"/>
   </g>
   <g id="patch_69">
    <path d="M 136.634584 87.065085 
C 137.862473 87.437561 139.071334 87.870099 140.2568 88.361135 
C 141.442267 88.852172 142.602911 89.401115 143.73454 90.005983 
L 155.052458 68.831647 
C 153.227762 67.856327 151.35628 66.971182 149.444772 66.179409 
C 147.533264 65.387637 145.584035 64.690191 143.604124 64.089592 
z
" clip-path="url(#p55fa245923)" style="fill: #a1a1d8"/>
   </g>
   <g id="patch_70">
    <path d="M 136.94243 102.713127 
C 137.658134 103.095679 138.354625 103.51314 139.029387 103.964001 
C 139.704149 104.414863 140.356368 104.898581 140.983688 105.41341 
L 165.866546 75.09356 
C 164.246811 73.764279 162.562789 72.515323 160.820562 71.351204 
C 159.078335 70.187085 157.280002 69.109206 155.432061 68.12146 
z
" clip-path="url(#p55fa245923)" style="fill: #a1a1d8"/>
   </g>
   <g id="patch_71">
    <path d="M 144.518665 101.106028 
C 145.286973 101.736562 146.02386 102.404437 146.726665 103.107242 
C 147.429469 103.810046 148.097345 104.546933 148.727878 105.315241 
L 155.558401 99.709576 
C 154.744386 98.717695 153.882162 97.766378 152.974845 96.859061 
C 152.067528 95.951744 151.116211 95.089521 150.124331 94.275505 
z
" clip-path="url(#p55fa245923)" style="fill: #a1a1d8"/>
   </g>
   <g id="patch_72">
    <path d="M 148.727878 105.315241 
C 149.358412 106.083548 149.950844 106.88235 150.503034 107.708761 
C 151.055224 108.535172 151.566507 109.388196 152.035036 110.264752 
L 152.035036 110.264752 
C 151.566507 109.388196 151.055224 108.535172 150.503034 107.708761 
C 149.950844 106.88235 149.358412 106.083548 148.727878 105.315241 
z
" clip-path="url(#p55fa245923)" style="fill: #a1a1d8"/>
   </g>
   <g id="patch_73">
    <path d="M 125.254844 124.579063 
C 125.254844 124.579063 125.254844 124.579063 125.254844 124.579063 
C 125.254844 124.579063 125.254844 124.579063 125.254844 124.579063 
L 125.254844 124.579063 
C 125.254844 124.579063 125.254844 124.579063 125.254844 124.579063 
C 125.254844 124.579063 125.254844 124.579063 125.254844 124.579063 
z
" clip-path="url(#p55fa245923)" style="fill: #a1a1d8"/>
   </g>
   <g id="patch_74">
    <path d="M 134.940911 121.640826 
C 135.037084 121.957866 135.117633 122.279436 135.182267 122.604375 
C 135.246902 122.929315 135.295544 123.257231 135.328017 123.586941 
L 135.328017 123.586941 
C 135.295544 123.257231 135.246902 122.929315 135.182267 122.604375 
C 135.117633 122.279436 135.037084 121.957866 134.940911 121.640826 
z
" clip-path="url(#p55fa245923)" style="fill: #a1a1d8"/>
   </g>
   <g id="patch_75">
    <path d="M 125.254844 124.579063 
C 125.254844 124.579063 125.254844 124.579063 125.254844 124.579063 
C 125.254844 124.579063 125.254844 124.579063 125.254844 124.579063 
L 125.254844 124.579063 
C 125.254844 124.579063 125.254844 124.579063 125.254844 124.579063 
C 125.254844 124.579063 125.254844 124.579063 125.254844 124.579063 
z
" clip-path="url(#p55fa245923)" style="fill: #a1a1d8"/>
   </g>
   <g id="patch_76">
    <path d="M 125.254844 124.579063 
C 125.254844 124.579063 125.254844 124.579063 125.254844 124.579063 
C 125.254844 124.579063 125.254844 124.579063 125.254844 124.579063 
L 125.254844 124.579063 
C 125.254844 124.579063 125.254844 124.579063 125.254844 124.579063 
C 125.254844 124.579063 125.254844 124.579063 125.254844 124.579063 
z
" clip-path="url(#p55fa245923)" style="fill: #a1a1d8"/>
   </g>
   <g id="patch_77">
    <path d="M 142.031604 129.668237 
C 141.865028 130.217366 141.671591 130.757985 141.451993 131.288142 
C 141.232395 131.818298 140.9869 132.337354 140.716395 132.843434 
L 140.716395 132.843434 
C 140.9869 132.337354 141.232395 131.818298 141.451993 131.288142 
C 141.671591 130.757985 141.865028 130.217366 142.031604 129.668237 
z
" clip-path="url(#p55fa245923)" style="fill: #a1a1d8"/>
   </g>
   <g id="patch_78">
    <path d="M 125.254844 124.579063 
C 125.254844 124.579063 125.254844 124.579063 125.254844 124.579063 
C 125.254844 124.579063 125.254844 124.579063 125.254844 124.579063 
L 125.254844 124.579063 
C 125.254844 124.579063 125.254844 124.579063 125.254844 124.579063 
C 125.254844 124.579063 125.254844 124.579063 125.254844 124.579063 
z
" clip-path="url(#p55fa245923)" style="fill: #a1a1d8"/>
   </g>
   <g id="patch_79">
    <path d="M 125.254844 124.579063 
C 125.254844 124.579063 125.254844 124.579063 125.254844 124.579063 
C 125.254844 124.579063 125.254844 124.579063 125.254844 124.579063 
L 125.254844 124.579063 
C 125.254844 124.579063 125.254844 124.579063 125.254844 124.579063 
C 125.254844 124.579063 125.254844 124.579063 125.254844 124.579063 
z
" clip-path="url(#p55fa245923)" style="fill: #a1a1d8"/>
   </g>
   <g id="patch_80">
    <path d="M 125.254844 124.579063 
C 125.254844 124.579063 125.254844 124.579063 125.254844 124.579063 
C 125.254844 124.579063 125.254844 124.579063 125.254844 124.579063 
L 125.254844 124.579063 
C 125.254844 124.579063 125.254844 124.579063 125.254844 124.579063 
C 125.254844 124.579063 125.254844 124.579063 125.254844 124.579063 
z
" clip-path="url(#p55fa245923)" style="fill: #a1a1d8"/>
   </g>
   <g id="patch_81">
    <path d="M 125.254844 124.579063 
C 125.254844 124.579063 125.254844 124.579063 125.254844 124.579063 
C 125.254844 124.579063 125.254844 124.579063 125.254844 124.579063 
L 125.254844 124.579063 
C 125.254844 124.579063 125.254844 124.579063 125.254844 124.579063 
C 125.254844 124.579063 125.254844 124.579063 125.254844 124.579063 
z
" clip-path="url(#p55fa245923)" style="fill: #a1a1d8"/>
   </g>
   <g id="patch_82">
    <path d="M 125.254844 124.579063 
C 125.254844 124.579063 125.254844 124.579063 125.254844 124.579063 
C 125.254844 124.579063 125.254844 124.579063 125.254844 124.579063 
L 125.254844 124.579063 
C 125.254844 124.579063 125.254844 124.579063 125.254844 124.579063 
C 125.254844 124.579063 125.254844 124.579063 125.254844 124.579063 
z
" clip-path="url(#p55fa245923)" style="fill: #a1a1d8"/>
   </g>
   <g id="patch_83">
    <path d="M 125.254844 124.579063 
C 125.254844 124.579063 125.254844 124.579063 125.254844 124.579063 
C 125.254844 124.579063 125.254844 124.579063 125.254844 124.579063 
L 125.254844 124.579063 
C 125.254844 124.579063 125.254844 124.579063 125.254844 124.579063 
C 125.254844 124.579063 125.254844 124.579063 125.254844 124.579063 
z
" clip-path="url(#p55fa245923)" style="fill: #a1a1d8"/>
   </g>
   <g id="patch_84">
    <path d="M 125.254844 124.579063 
C 125.254844 124.579063 125.254844 124.579063 125.254844 124.579063 
C 125.254844 124.579063 125.254844 124.579063 125.254844 124.579063 
L 125.254844 124.579063 
C 125.254844 124.579063 125.254844 124.579063 125.254844 124.579063 
C 125.254844 124.579063 125.254844 124.579063 125.254844 124.579063 
z
" clip-path="url(#p55fa245923)" style="fill: #a1a1d8"/>
   </g>
   <g id="patch_85">
    <path d="M 125.254844 124.579063 
C 125.254844 124.579063 125.254844 124.579063 125.254844 124.579063 
C 125.254844 124.579063 125.254844 124.579063 125.254844 124.579063 
L 125.254844 124.579063 
C 125.254844 124.579063 125.254844 124.579063 125.254844 124.579063 
C 125.254844 124.579063 125.254844 124.579063 125.254844 124.579063 
z
" clip-path="url(#p55fa245923)" style="fill: #a1a1d8"/>
   </g>
   <g id="patch_86">
    <path d="M 125.254844 124.579063 
C 125.254844 124.579063 125.254844 124.579063 125.254844 124.579063 
C 125.254844 124.579063 125.254844 124.579063 125.254844 124.579063 
L 125.254844 124.579063 
C 125.254844 124.579063 125.254844 124.579063 125.254844 124.579063 
C 125.254844 124.579063 125.254844 124.579063 125.254844 124.579063 
z
" clip-path="url(#p55fa245923)" style="fill: #a1a1d8"/>
   </g>
   <g id="patch_87">
    <path d="M 125.254844 124.579063 
C 125.254844 124.579063 125.254844 124.579063 125.254844 124.579063 
C 125.254844 124.579063 125.254844 124.579063 125.254844 124.579063 
L 125.254844 124.579063 
C 125.254844 124.579063 125.254844 124.579063 125.254844 124.579063 
C 125.254844 124.579063 125.254844 124.579063 125.254844 124.579063 
z
" clip-path="url(#p55fa245923)" style="fill: #a1a1d8"/>
   </g>
   <g id="patch_88">
    <path d="M 111.702681 135.701035 
C 111.338642 135.257453 110.996601 134.796264 110.677794 134.319136 
C 110.358987 133.842007 110.063798 133.349513 109.793293 132.843434 
L 100.006237 138.074724 
C 100.44797 138.901149 100.930012 139.705387 101.450622 140.484535 
C 101.971232 141.263683 102.529782 142.016801 103.124254 142.741168 
z
" clip-path="url(#p55fa245923)" style="fill: #a1a1d8"/>
   </g>
   <g id="patch_89">
    <path d="M 112.63054 131.326893 
C 112.409674 130.913681 112.209228 130.489874 112.029927 130.057003 
C 111.850625 129.624131 111.692685 129.182718 111.556676 128.734356 
L 75.865398 139.561187 
C 76.355785 141.177777 76.925247 142.769317 77.571727 144.330056 
C 78.218206 145.890796 78.940924 147.418854 79.73727 148.908713 
z
" clip-path="url(#p55fa245923)" style="fill: #a1a1d8"/>
   </g>
   <g id="patch_90">
    <path d="M 111.556676 128.734356 
C 111.420667 128.285995 111.306753 127.831226 111.215347 127.371692 
C 111.12394 126.912158 111.05515 126.448414 111.009225 125.982133 
L 84.962149 128.547547 
C 85.092044 129.866387 85.286611 131.178054 85.545149 132.477812 
C 85.803687 133.777569 86.125883 135.06385 86.510575 136.332008 
z
" clip-path="url(#p55fa245923)" style="fill: #a1a1d8"/>
   </g>
   <g id="patch_91">
    <path d="M 98.603731 127.203968 
C 98.517814 126.331637 98.474778 125.455614 98.474778 124.579063 
C 98.474778 123.702511 98.517814 122.826488 98.603731 121.954157 
L 79.093763 120.032593 
C 78.94495 121.543514 78.870409 123.060831 78.870409 124.579062 
C 78.870409 126.097294 78.94495 127.614611 79.093763 129.125532 
z
" clip-path="url(#p55fa245923)" style="fill: #a1a1d8"/>
   </g>
   <g id="patch_92">
    <path d="M 107.807595 122.860659 
C 107.863841 122.289584 107.948091 121.721615 108.060042 121.158804 
C 108.171992 120.595992 108.311507 120.039016 108.478083 119.489888 
L 108.478083 119.489888 
C 108.311507 120.039016 108.171992 120.595992 108.060042 121.158804 
C 107.948091 121.721615 107.863841 122.289584 107.807595 122.860659 
z
" clip-path="url(#p55fa245923)" style="fill: #a1a1d8"/>
   </g>
   <g id="patch_93">
    <path d="M 101.528921 117.381883 
C 101.764496 116.605298 102.038057 115.840747 102.348615 115.090992 
C 102.659174 114.341237 103.006356 113.607181 103.388909 112.891477 
L 103.388909 112.891477 
C 103.006356 113.607181 102.659174 114.341237 102.348615 115.090992 
C 102.038057 115.840747 101.764496 116.605298 101.528921 117.381883 
z
" clip-path="url(#p55fa245923)" style="fill: #a1a1d8"/>
   </g>
   <g id="patch_94">
    <path d="M 125.254844 124.579063 
C 125.254844 124.579063 125.254844 124.579063 125.254844 124.579063 
C 125.254844 124.579063 125.254844 124.579063 125.254844 124.579063 
L 80.993665 88.254852 
C 79.80472 89.703586 78.687619 91.209822 77.6464 92.768117 
C 76.60518 94.326413 75.641096 95.93489 74.757629 97.587739 
z
" clip-path="url(#p55fa245923)" style="fill: #a1a1d8"/>
   </g>
   <g id="patch_95">
    <path d="M 104.553573 107.589969 
C 105.109651 106.912385 105.698662 106.262512 106.318478 105.642696 
C 106.938293 105.022881 107.588166 104.43387 108.26575 103.877792 
L 92.512643 84.682575 
C 91.206771 85.754276 89.954304 86.889446 88.759766 88.083985 
C 87.565228 89.278523 86.430058 90.53099 85.358357 91.836862 
z
" clip-path="url(#p55fa245923)" style="fill: #a1a1d8"/>
   </g>
   <g id="patch_96">
    <path d="M 96.538034 89.587528 
C 97.683359 88.647584 98.874143 87.764439 100.106083 86.941283 
C 101.338024 86.118126 102.609637 85.355951 103.916329 84.657509 
L 83.114654 45.740312 
C 80.534144 47.119623 78.022909 48.624799 75.590021 50.250403 
C 73.157133 51.876007 70.805524 53.620079 68.543688 55.47632 
z
" clip-path="url(#p55fa245923)" style="fill: #a1a1d8"/>
   </g>
   <g id="patch_97">
    <path d="M 125.254844 124.579063 
C 125.254844 124.579063 125.254844 124.579063 125.254844 124.579063 
C 125.254844 124.579063 125.254844 124.579063 125.254844 124.579063 
L 111.473294 79.14738 
C 109.986247 79.598471 108.522244 80.1223 107.086572 80.716974 
C 105.6509 81.311649 104.245291 81.976453 102.874821 82.708984 
z
" clip-path="url(#p55fa245923)" style="fill: #a1a1d8"/>
   </g>
   <g id="patch_98">
    <path d="M 118.057664 100.85314 
C 118.834249 100.617566 119.621932 100.420261 120.417867 100.26194 
C 121.213803 100.103619 122.017032 99.984471 122.824654 99.904927 
L 119.220007 63.306339 
C 117.21446 63.503869 115.219819 63.799746 113.24329 64.192902 
C 111.26676 64.586058 109.310725 65.076019 107.38225 65.661016 
z
" clip-path="url(#p55fa245923)" style="fill: #a1a1d8"/>
   </g>
   <g id="patch_99">
    <path d="M 120.005033 71.276838 
C 121.749694 71.105004 123.501741 71.018931 125.254844 71.018931 
C 127.007947 71.018931 128.759993 71.105004 130.504655 71.276838 
L 133.314873 42.744213 
C 130.636296 42.480396 127.946381 42.348249 125.254844 42.348249 
C 122.563306 42.348249 119.873391 42.480396 117.194815 42.744213 
z
" clip-path="url(#p55fa245923)" style="fill: #828282"/>
   </g>
   <g id="patch_100">
    <path d="M 131.983736 56.259475 
C 134.219938 56.479722 136.443979 56.809627 138.647825 57.247999 
C 140.851671 57.686371 143.032666 58.232682 145.182932 58.884958 
L 146.031312 56.088224 
C 143.789505 55.408179 141.51566 54.838611 139.217992 54.381576 
C 136.920323 53.924542 134.601601 53.580592 132.270199 53.350969 
z
" clip-path="url(#p55fa245923)" style="fill: #828282"/>
   </g>
   <g id="patch_101">
    <path d="M 143.604124 64.089592 
C 145.584035 64.690191 147.533264 65.387637 149.444772 66.179409 
C 151.35628 66.971182 153.227762 67.856327 155.052458 68.831647 
L 155.052458 68.831647 
C 153.227762 67.856327 151.35628 66.971182 149.444772 66.179409 
C 147.533264 65.387637 145.584035 64.690191 143.604124 64.089592 
z
" clip-path="url(#p55fa245923)" style="fill: #828282"/>
   </g>
   <g id="patch_102">
    <path d="M 155.432061 68.12146 
C 157.280002 69.109206 159.078335 70.187085 160.820562 71.351204 
C 162.562789 72.515323 164.246811 73.764279 165.866546 75.09356 
L 165.866546 75.09356 
C 164.246811 73.764279 162.562789 72.515323 160.820562 71.351204 
C 159.078335 70.187085 157.280002 69.109206 155.432061 68.12146 
z
" clip-path="url(#p55fa245923)" style="fill: #828282"/>
   </g>
   <g id="patch_103">
    <path d="M 150.124331 94.275505 
C 151.116211 95.089521 152.067528 95.951744 152.974845 96.859061 
C 153.882162 97.766378 154.744386 98.717695 155.558401 99.709576 
L 155.558401 99.709576 
C 154.744386 98.717695 153.882162 97.766378 152.974845 96.859061 
C 152.067528 95.951744 151.116211 95.089521 150.124331 94.275505 
z
" clip-path="url(#p55fa245923)" style="fill: #828282"/>
   </g>
   <g id="patch_104">
    <path d="M 148.727878 105.315241 
C 149.358412 106.083548 149.950844 106.88235 150.503034 107.708761 
C 151.055224 108.535172 151.566507 109.388196 152.035036 110.264752 
L 152.035036 110.264752 
C 151.566507 109.388196 151.055224 108.535172 150.503034 107.708761 
C 149.950844 106.88235 149.358412 106.083548 148.727878 105.315241 
z
" clip-path="url(#p55fa245923)" style="fill: #828282"/>
   </g>
   <g id="patch_105">
    <path d="M 125.254844 124.579063 
C 125.254844 124.579063 125.254844 124.579063 125.254844 124.579063 
C 125.254844 124.579063 125.254844 124.579063 125.254844 124.579063 
L 125.254844 124.579063 
C 125.254844 124.579063 125.254844 124.579063 125.254844 124.579063 
C 125.254844 124.579063 125.254844 124.579063 125.254844 124.579063 
z
" clip-path="url(#p55fa245923)" style="fill: #828282"/>
   </g>
   <g id="patch_106">
    <path d="M 134.940911 121.640826 
C 135.037084 121.957866 135.117633 122.279436 135.182267 122.604375 
C 135.246902 122.929315 135.295544 123.257231 135.328017 123.586941 
L 135.328017 123.586941 
C 135.295544 123.257231 135.246902 122.929315 135.182267 122.604375 
C 135.117633 122.279436 135.037084 121.957866 134.940911 121.640826 
z
" clip-path="url(#p55fa245923)" style="fill: #828282"/>
   </g>
   <g id="patch_107">
    <path d="M 125.254844 124.579063 
C 125.254844 124.579063 125.254844 124.579063 125.254844 124.579063 
C 125.254844 124.579063 125.254844 124.579063 125.254844 124.579063 
L 125.254844 124.579063 
C 125.254844 124.579063 125.254844 124.579063 125.254844 124.579063 
C 125.254844 124.579063 125.254844 124.579063 125.254844 124.579063 
z
" clip-path="url(#p55fa245923)" style="fill: #828282"/>
   </g>
   <g id="patch_108">
    <path d="M 125.254844 124.579063 
C 125.254844 124.579063 125.254844 124.579063 125.254844 124.579063 
C 125.254844 124.579063 125.254844 124.579063 125.254844 124.579063 
L 125.254844 124.579063 
C 125.254844 124.579063 125.254844 124.579063 125.254844 124.579063 
C 125.254844 124.579063 125.254844 124.579063 125.254844 124.579063 
z
" clip-path="url(#p55fa245923)" style="fill: #828282"/>
   </g>
   <g id="patch_109">
    <path d="M 142.031604 129.668237 
C 141.865028 130.217366 141.671591 130.757985 141.451993 131.288142 
C 141.232395 131.818298 140.9869 132.337354 140.716395 132.843434 
L 140.716395 132.843434 
C 140.9869 132.337354 141.232395 131.818298 141.451993 131.288142 
C 141.671591 130.757985 141.865028 130.217366 142.031604 129.668237 
z
" clip-path="url(#p55fa245923)" style="fill: #828282"/>
   </g>
   <g id="patch_110">
    <path d="M 125.254844 124.579063 
C 125.254844 124.579063 125.254844 124.579063 125.254844 124.579063 
C 125.254844 124.579063 125.254844 124.579063 125.254844 124.579063 
L 125.254844 124.579063 
C 125.254844 124.579063 125.254844 124.579063 125.254844 124.579063 
C 125.254844 124.579063 125.254844 124.579063 125.254844 124.579063 
z
" clip-path="url(#p55fa245923)" style="fill: #828282"/>
   </g>
   <g id="patch_111">
    <path d="M 125.254844 124.579063 
C 125.254844 124.579063 125.254844 124.579063 125.254844 124.579063 
C 125.254844 124.579063 125.254844 124.579063 125.254844 124.579063 
L 125.254844 124.579063 
C 125.254844 124.579063 125.254844 124.579063 125.254844 124.579063 
C 125.254844 124.579063 125.254844 124.579063 125.254844 124.579063 
z
" clip-path="url(#p55fa245923)" style="fill: #828282"/>
   </g>
   <g id="patch_112">
    <path d="M 125.254844 124.579063 
C 125.254844 124.579063 125.254844 124.579063 125.254844 124.579063 
C 125.254844 124.579063 125.254844 124.579063 125.254844 124.579063 
L 125.254844 124.579063 
C 125.254844 124.579063 125.254844 124.579063 125.254844 124.579063 
C 125.254844 124.579063 125.254844 124.579063 125.254844 124.579063 
z
" clip-path="url(#p55fa245923)" style="fill: #828282"/>
   </g>
   <g id="patch_113">
    <path d="M 125.254844 124.579063 
C 125.254844 124.579063 125.254844 124.579063 125.254844 124.579063 
C 125.254844 124.579063 125.254844 124.579063 125.254844 124.579063 
L 125.254844 124.579063 
C 125.254844 124.579063 125.254844 124.579063 125.254844 124.579063 
C 125.254844 124.579063 125.254844 124.579063 125.254844 124.579063 
z
" clip-path="url(#p55fa245923)" style="fill: #828282"/>
   </g>
   <g id="patch_114">
    <path d="M 125.254844 124.579063 
C 125.254844 124.579063 125.254844 124.579063 125.254844 124.579063 
C 125.254844 124.579063 125.254844 124.579063 125.254844 124.579063 
L 125.254844 124.579063 
C 125.254844 124.579063 125.254844 124.579063 125.254844 124.579063 
C 125.254844 124.579063 125.254844 124.579063 125.254844 124.579063 
z
" clip-path="url(#p55fa245923)" style="fill: #828282"/>
   </g>
   <g id="patch_115">
    <path d="M 125.254844 124.579063 
C 125.254844 124.579063 125.254844 124.579063 125.254844 124.579063 
C 125.254844 124.579063 125.254844 124.579063 125.254844 124.579063 
L 125.254844 124.579063 
C 125.254844 124.579063 125.254844 124.579063 125.254844 124.579063 
C 125.254844 124.579063 125.254844 124.579063 125.254844 124.579063 
z
" clip-path="url(#p55fa245923)" style="fill: #828282"/>
   </g>
   <g id="patch_116">
    <path d="M 125.254844 124.579063 
C 125.254844 124.579063 125.254844 124.579063 125.254844 124.579063 
C 125.254844 124.579063 125.254844 124.579063 125.254844 124.579063 
L 125.254844 124.579063 
C 125.254844 124.579063 125.254844 124.579063 125.254844 124.579063 
C 125.254844 124.579063 125.254844 124.579063 125.254844 124.579063 
z
" clip-path="url(#p55fa245923)" style="fill: #828282"/>
   </g>
   <g id="patch_117">
    <path d="M 125.254844 124.579063 
C 125.254844 124.579063 125.254844 124.579063 125.254844 124.579063 
C 125.254844 124.579063 125.254844 124.579063 125.254844 124.579063 
L 125.254844 124.579063 
C 125.254844 124.579063 125.254844 124.579063 125.254844 124.579063 
C 125.254844 124.579063 125.254844 124.579063 125.254844 124.579063 
z
" clip-path="url(#p55fa245923)" style="fill: #828282"/>
   </g>
   <g id="patch_118">
    <path d="M 125.254844 124.579063 
C 125.254844 124.579063 125.254844 124.579063 125.254844 124.579063 
C 125.254844 124.579063 125.254844 124.579063 125.254844 124.579063 
L 125.254844 124.579063 
C 125.254844 124.579063 125.254844 124.579063 125.254844 124.579063 
C 125.254844 124.579063 125.254844 124.579063 125.254844 124.579063 
z
" clip-path="url(#p55fa245923)" style="fill: #828282"/>
   </g>
   <g id="patch_119">
    <path d="M 125.254844 124.579063 
C 125.254844 124.579063 125.254844 124.579063 125.254844 124.579063 
C 125.254844 124.579063 125.254844 124.579063 125.254844 124.579063 
L 125.254844 124.579063 
C 125.254844 124.579063 125.254844 124.579063 125.254844 124.579063 
C 125.254844 124.579063 125.254844 124.579063 125.254844 124.579063 
z
" clip-path="url(#p55fa245923)" style="fill: #828282"/>
   </g>
   <g id="patch_120">
    <path d="M 103.124254 142.741168 
C 102.529782 142.016801 101.971232 141.263683 101.450622 140.484535 
C 100.930012 139.705387 100.44797 138.901149 100.006237 138.074724 
L 100.006237 138.074724 
C 100.44797 138.901149 100.930012 139.705387 101.450622 140.484535 
C 101.971232 141.263683 102.529782 142.016801 103.124254 142.741168 
z
" clip-path="url(#p55fa245923)" style="fill: #828282"/>
   </g>
   <g id="patch_121">
    <path d="M 79.73727 148.908713 
C 78.940924 147.418854 78.218206 145.890796 77.571727 144.330056 
C 76.925247 142.769317 76.355785 141.177777 75.865398 139.561187 
L 75.865398 139.561187 
C 76.355785 141.177777 76.925247 142.769317 77.571727 144.330056 
C 78.218206 145.890796 78.940924 147.418854 79.73727 148.908713 
z
" clip-path="url(#p55fa245923)" style="fill: #828282"/>
   </g>
   <g id="patch_122">
    <path d="M 86.510575 136.332008 
C 86.125883 135.06385 85.803687 133.777569 85.545149 132.477812 
C 85.286611 131.178054 85.092044 129.866387 84.962149 128.547547 
L 84.962149 128.547547 
C 85.092044 129.866387 85.286611 131.178054 85.545149 132.477812 
C 85.803687 133.777569 86.125883 135.06385 86.510575 136.332008 
z
" clip-path="url(#p55fa245923)" style="fill: #828282"/>
   </g>
   <g id="patch_123">
    <path d="M 79.093763 129.125532 
C 78.94495 127.614611 78.870409 126.097294 78.870409 124.579062 
C 78.870409 123.060831 78.94495 121.543514 79.093763 120.032593 
L 79.093763 120.032593 
C 78.94495 121.543514 78.870409 123.060831 78.870409 124.579062 
C 78.870409 126.097294 78.94495 127.614611 79.093763 129.125532 
z
" clip-path="url(#p55fa245923)" style="fill: #828282"/>
   </g>
   <g id="patch_124">
    <path d="M 107.807595 122.860659 
C 107.863841 122.289584 107.948091 121.721615 108.060042 121.158804 
C 108.171992 120.595992 108.311507 120.039016 108.478083 119.489888 
L 108.478083 119.489888 
C 108.311507 120.039016 108.171992 120.595992 108.060042 121.158804 
C 107.948091 121.721615 107.863841 122.289584 107.807595 122.860659 
z
" clip-path="url(#p55fa245923)" style="fill: #828282"/>
   </g>
   <g id="patch_125">
    <path d="M 101.528921 117.381883 
C 101.764496 116.605298 102.038057 115.840747 102.348615 115.090992 
C 102.659174 114.341237 103.006356 113.607181 103.388909 112.891477 
L 103.388909 112.891477 
C 103.006356 113.607181 102.659174 114.341237 102.348615 115.090992 
C 102.038057 115.840747 101.764496 116.605298 101.528921 117.381883 
z
" clip-path="url(#p55fa245923)" style="fill: #828282"/>
   </g>
   <g id="patch_126">
    <path d="M 74.757629 97.587739 
C 75.641096 95.93489 76.60518 94.326413 77.6464 92.768117 
C 78.687619 91.209822 79.80472 89.703586 80.993665 88.254852 
L 80.993665 88.254852 
C 79.80472 89.703586 78.687619 91.209822 77.6464 92.768117 
C 76.60518 94.326413 75.641096 95.93489 74.757629 97.587739 
z
" clip-path="url(#p55fa245923)" style="fill: #828282"/>
   </g>
   <g id="patch_127">
    <path d="M 85.358357 91.836862 
C 86.430058 90.53099 87.565228 89.278523 88.759766 88.083985 
C 89.954304 86.889446 91.206771 85.754276 92.512643 84.682575 
L 92.512643 84.682575 
C 91.206771 85.754276 89.954304 86.889446 88.759766 88.083985 
C 87.565228 89.278523 86.430058 90.53099 85.358357 91.836862 
z
" clip-path="url(#p55fa245923)" style="fill: #828282"/>
   </g>
   <g id="patch_128">
    <path d="M 68.543688 55.47632 
C 70.805524 53.620079 73.157133 51.876007 75.590021 50.250403 
C 78.022909 48.624799 80.534144 47.119623 83.114654 45.740312 
L 83.114654 45.740312 
C 80.534144 47.119623 78.022909 48.624799 75.590021 50.250403 
C 73.157133 51.876007 70.805524 53.620079 68.543688 55.47632 
z
" clip-path="url(#p55fa245923)" style="fill: #828282"/>
   </g>
   <g id="patch_129">
    <path d="M 102.874821 82.708984 
C 104.245291 81.976453 105.6509 81.311649 107.086572 80.716974 
C 108.522244 80.1223 109.986247 79.598471 111.473294 79.14738 
L 106.671805 63.318994 
C 104.666672 63.927245 102.69261 64.633576 100.756751 65.435435 
C 98.820892 66.237294 96.925568 67.133715 95.077627 68.12146 
z
" clip-path="url(#p55fa245923)" style="fill: #828282"/>
   </g>
   <g id="patch_130">
    <path d="M 107.38225 65.661016 
C 109.310725 65.076019 111.26676 64.586058 113.24329 64.192902 
C 115.219819 63.799746 117.21446 63.503869 119.220007 63.306339 
L 114.386703 14.232974 
C 110.77491 14.588704 107.18276 15.12155 103.623228 15.829585 
C 100.063695 16.53762 96.54107 17.419991 93.068077 18.473512 
z
" clip-path="url(#p55fa245923)" style="fill: #828282"/>
   </g>
   <g id="patch_131">
    <path d="M 125.254844 124.579063 
C 125.254844 124.579063 125.254844 124.579063 125.254844 124.579063 
C 125.254844 124.579063 125.254844 124.579063 125.254844 124.579063 
L 133.314873 42.744213 
C 130.636296 42.480396 127.946381 42.348249 125.254844 42.348249 
C 122.563306 42.348249 119.873391 42.480396 117.194815 42.744213 
L 125.254844 124.579063 
z
" clip-path="url(#p55fa245923)" style="fill: none; stroke: #292929; stroke-width: 0.5; stroke-linejoin: miter"/>
   </g>
   <g id="patch_132">
    <path d="M 125.254844 124.579063 
C 125.254844 124.579063 125.254844 124.579063 125.254844 124.579063 
C 125.254844 124.579063 125.254844 124.579063 125.254844 124.579063 
L 146.031312 56.088224 
C 143.789505 55.408179 141.51566 54.838611 139.217992 54.381576 
C 136.920323 53.924542 134.601601 53.580592 132.270199 53.350969 
L 125.254844 124.579063 
z
" clip-path="url(#p55fa245923)" style="fill: none; stroke: #292929; stroke-width: 0.5; stroke-linejoin: miter"/>
   </g>
   <g id="patch_133">
    <path d="M 125.254844 124.579063 
C 125.254844 124.579063 125.254844 124.579063 125.254844 124.579063 
C 125.254844 124.579063 125.254844 124.579063 125.254844 124.579063 
L 155.052458 68.831647 
C 153.227762 67.856327 151.35628 66.971182 149.444772 66.179409 
C 147.533264 65.387637 145.584035 64.690191 143.604124 64.089592 
L 125.254844 124.579063 
z
" clip-path="url(#p55fa245923)" style="fill: none; stroke: #292929; stroke-width: 0.5; stroke-linejoin: miter"/>
   </g>
   <g id="patch_134">
    <path d="M 125.254844 124.579063 
C 125.254844 124.579063 125.254844 124.579063 125.254844 124.579063 
C 125.254844 124.579063 125.254844 124.579063 125.254844 124.579063 
L 165.866546 75.09356 
C 164.246811 73.764279 162.562789 72.515323 160.820562 71.351204 
C 159.078335 70.187085 157.280002 69.109206 155.432061 68.12146 
L 125.254844 124.579063 
z
" clip-path="url(#p55fa245923)" style="fill: none; stroke: #292929; stroke-width: 0.5; stroke-linejoin: miter"/>
   </g>
   <g id="patch_135">
    <path d="M 125.254844 124.579063 
C 125.254844 124.579063 125.254844 124.579063 125.254844 124.579063 
C 125.254844 124.579063 125.254844 124.579063 125.254844 124.579063 
L 155.558401 99.709576 
C 154.744386 98.717695 153.882162 97.766378 152.974845 96.859061 
C 152.067528 95.951744 151.116211 95.089521 150.124331 94.275505 
L 125.254844 124.579063 
z
" clip-path="url(#p55fa245923)" style="fill: none; stroke: #292929; stroke-width: 0.5; stroke-linejoin: miter"/>
   </g>
   <g id="patch_136">
    <path d="M 125.254844 124.579063 
C 125.254844 124.579063 125.254844 124.579063 125.254844 124.579063 
C 125.254844 124.579063 125.254844 124.579063 125.254844 124.579063 
L 152.035036 110.264752 
C 151.566507 109.388196 151.055224 108.535172 150.503034 107.708761 
C 149.950844 106.88235 149.358412 106.083548 148.727878 105.315241 
L 125.254844 124.579063 
z
" clip-path="url(#p55fa245923)" style="fill: none; stroke: #292929; stroke-width: 0.5; stroke-linejoin: miter"/>
   </g>
   <g id="patch_137">
    <path d="M 125.254844 124.579063 
C 125.254844 124.579063 125.254844 124.579063 125.254844 124.579063 
C 125.254844 124.579063 125.254844 124.579063 125.254844 124.579063 
L 125.254844 124.579063 
C 125.254844 124.579063 125.254844 124.579063 125.254844 124.579063 
C 125.254844 124.579063 125.254844 124.579063 125.254844 124.579063 
L 125.254844 124.579063 
z
" clip-path="url(#p55fa245923)" style="fill: none; stroke: #292929; stroke-width: 0.5; stroke-linejoin: miter"/>
   </g>
   <g id="patch_138">
    <path d="M 125.254844 124.579063 
C 125.254844 124.579063 125.254844 124.579063 125.254844 124.579063 
C 125.254844 124.579063 125.254844 124.579063 125.254844 124.579063 
L 135.328017 123.586941 
C 135.295544 123.257231 135.246902 122.929315 135.182267 122.604375 
C 135.117633 122.279436 135.037084 121.957866 134.940911 121.640826 
L 125.254844 124.579063 
z
" clip-path="url(#p55fa245923)" style="fill: none; stroke: #292929; stroke-width: 0.5; stroke-linejoin: miter"/>
   </g>
   <g id="patch_139">
    <path d="M 125.254844 124.579063 
C 125.254844 124.579063 125.254844 124.579063 125.254844 124.579063 
C 125.254844 124.579063 125.254844 124.579063 125.254844 124.579063 
L 125.254844 124.579063 
C 125.254844 124.579063 125.254844 124.579063 125.254844 124.579063 
C 125.254844 124.579063 125.254844 124.579063 125.254844 124.579063 
L 125.254844 124.579063 
z
" clip-path="url(#p55fa245923)" style="fill: none; stroke: #292929; stroke-width: 0.5; stroke-linejoin: miter"/>
   </g>
   <g id="patch_140">
    <path d="M 125.254844 124.579063 
C 125.254844 124.579063 125.254844 124.579063 125.254844 124.579063 
C 125.254844 124.579063 125.254844 124.579063 125.254844 124.579063 
L 125.254844 124.579063 
C 125.254844 124.579063 125.254844 124.579063 125.254844 124.579063 
C 125.254844 124.579063 125.254844 124.579063 125.254844 124.579063 
L 125.254844 124.579063 
z
" clip-path="url(#p55fa245923)" style="fill: none; stroke: #292929; stroke-width: 0.5; stroke-linejoin: miter"/>
   </g>
   <g id="patch_141">
    <path d="M 125.254844 124.579063 
C 125.254844 124.579063 125.254844 124.579063 125.254844 124.579063 
C 125.254844 124.579063 125.254844 124.579063 125.254844 124.579063 
L 140.716395 132.843434 
C 140.9869 132.337354 141.232395 131.818298 141.451993 131.288142 
C 141.671591 130.757985 141.865028 130.217366 142.031604 129.668237 
L 125.254844 124.579063 
z
" clip-path="url(#p55fa245923)" style="fill: none; stroke: #292929; stroke-width: 0.5; stroke-linejoin: miter"/>
   </g>
   <g id="patch_142">
    <path d="M 125.254844 124.579063 
C 125.254844 124.579063 125.254844 124.579063 125.254844 124.579063 
C 125.254844 124.579063 125.254844 124.579063 125.254844 124.579063 
L 125.254844 124.579063 
C 125.254844 124.579063 125.254844 124.579063 125.254844 124.579063 
C 125.254844 124.579063 125.254844 124.579063 125.254844 124.579063 
L 125.254844 124.579063 
z
" clip-path="url(#p55fa245923)" style="fill: none; stroke: #292929; stroke-width: 0.5; stroke-linejoin: miter"/>
   </g>
   <g id="patch_143">
    <path d="M 125.254844 124.579063 
C 125.254844 124.579063 125.254844 124.579063 125.254844 124.579063 
C 125.254844 124.579063 125.254844 124.579063 125.254844 124.579063 
L 125.254844 124.579063 
C 125.254844 124.579063 125.254844 124.579063 125.254844 124.579063 
C 125.254844 124.579063 125.254844 124.579063 125.254844 124.579063 
L 125.254844 124.579063 
z
" clip-path="url(#p55fa245923)" style="fill: none; stroke: #292929; stroke-width: 0.5; stroke-linejoin: miter"/>
   </g>
   <g id="patch_144">
    <path d="M 125.254844 124.579063 
C 125.254844 124.579063 125.254844 124.579063 125.254844 124.579063 
C 125.254844 124.579063 125.254844 124.579063 125.254844 124.579063 
L 125.254844 124.579063 
C 125.254844 124.579063 125.254844 124.579063 125.254844 124.579063 
C 125.254844 124.579063 125.254844 124.579063 125.254844 124.579063 
L 125.254844 124.579063 
z
" clip-path="url(#p55fa245923)" style="fill: none; stroke: #292929; stroke-width: 0.5; stroke-linejoin: miter"/>
   </g>
   <g id="patch_145">
    <path d="M 125.254844 124.579063 
C 125.254844 124.579063 125.254844 124.579063 125.254844 124.579063 
C 125.254844 124.579063 125.254844 124.579063 125.254844 124.579063 
L 125.254844 124.579063 
C 125.254844 124.579063 125.254844 124.579063 125.254844 124.579063 
C 125.254844 124.579063 125.254844 124.579063 125.254844 124.579063 
L 125.254844 124.579063 
z
" clip-path="url(#p55fa245923)" style="fill: none; stroke: #292929; stroke-width: 0.5; stroke-linejoin: miter"/>
   </g>
   <g id="patch_146">
    <path d="M 125.254844 124.579063 
C 125.254844 124.579063 125.254844 124.579063 125.254844 124.579063 
C 125.254844 124.579063 125.254844 124.579063 125.254844 124.579063 
L 125.254844 124.579063 
C 125.254844 124.579063 125.254844 124.579063 125.254844 124.579063 
C 125.254844 124.579063 125.254844 124.579063 125.254844 124.579063 
L 125.254844 124.579063 
z
" clip-path="url(#p55fa245923)" style="fill: none; stroke: #292929; stroke-width: 0.5; stroke-linejoin: miter"/>
   </g>
   <g id="patch_147">
    <path d="M 125.254844 124.579063 
C 125.254844 124.579063 125.254844 124.579063 125.254844 124.579063 
C 125.254844 124.579063 125.254844 124.579063 125.254844 124.579063 
L 125.254844 124.579063 
C 125.254844 124.579063 125.254844 124.579063 125.254844 124.579063 
C 125.254844 124.579063 125.254844 124.579063 125.254844 124.579063 
L 125.254844 124.579063 
z
" clip-path="url(#p55fa245923)" style="fill: none; stroke: #292929; stroke-width: 0.5; stroke-linejoin: miter"/>
   </g>
   <g id="patch_148">
    <path d="M 125.254844 124.579063 
C 125.254844 124.579063 125.254844 124.579063 125.254844 124.579063 
C 125.254844 124.579063 125.254844 124.579063 125.254844 124.579063 
L 125.254844 124.579063 
C 125.254844 124.579063 125.254844 124.579063 125.254844 124.579063 
C 125.254844 124.579063 125.254844 124.579063 125.254844 124.579063 
L 125.254844 124.579063 
z
" clip-path="url(#p55fa245923)" style="fill: none; stroke: #292929; stroke-width: 0.5; stroke-linejoin: miter"/>
   </g>
   <g id="patch_149">
    <path d="M 125.254844 124.579063 
C 125.254844 124.579063 125.254844 124.579063 125.254844 124.579063 
C 125.254844 124.579063 125.254844 124.579063 125.254844 124.579063 
L 125.254844 124.579063 
C 125.254844 124.579063 125.254844 124.579063 125.254844 124.579063 
C 125.254844 124.579063 125.254844 124.579063 125.254844 124.579063 
L 125.254844 124.579063 
z
" clip-path="url(#p55fa245923)" style="fill: none; stroke: #292929; stroke-width: 0.5; stroke-linejoin: miter"/>
   </g>
   <g id="patch_150">
    <path d="M 125.254844 124.579063 
C 125.254844 124.579063 125.254844 124.579063 125.254844 124.579063 
C 125.254844 124.579063 125.254844 124.579063 125.254844 124.579063 
L 125.254844 124.579063 
C 125.254844 124.579063 125.254844 124.579063 125.254844 124.579063 
C 125.254844 124.579063 125.254844 124.579063 125.254844 124.579063 
L 125.254844 124.579063 
z
" clip-path="url(#p55fa245923)" style="fill: none; stroke: #292929; stroke-width: 0.5; stroke-linejoin: miter"/>
   </g>
   <g id="patch_151">
    <path d="M 125.254844 124.579063 
C 125.254844 124.579063 125.254844 124.579063 125.254844 124.579063 
C 125.254844 124.579063 125.254844 124.579063 125.254844 124.579063 
L 125.254844 124.579063 
C 125.254844 124.579063 125.254844 124.579063 125.254844 124.579063 
C 125.254844 124.579063 125.254844 124.579063 125.254844 124.579063 
L 125.254844 124.579063 
z
" clip-path="url(#p55fa245923)" style="fill: none; stroke: #292929; stroke-width: 0.5; stroke-linejoin: miter"/>
   </g>
   <g id="patch_152">
    <path d="M 125.254844 124.579063 
C 125.254844 124.579063 125.254844 124.579063 125.254844 124.579063 
C 125.254844 124.579063 125.254844 124.579063 125.254844 124.579063 
L 100.006237 138.074724 
C 100.44797 138.901149 100.930012 139.705387 101.450622 140.484535 
C 101.971232 141.263683 102.529782 142.016801 103.124254 142.741168 
L 125.254844 124.579063 
z
" clip-path="url(#p55fa245923)" style="fill: none; stroke: #292929; stroke-width: 0.5; stroke-linejoin: miter"/>
   </g>
   <g id="patch_153">
    <path d="M 125.254844 124.579063 
C 125.254844 124.579063 125.254844 124.579063 125.254844 124.579063 
C 125.254844 124.579063 125.254844 124.579063 125.254844 124.579063 
L 75.865398 139.561187 
C 76.355785 141.177777 76.925247 142.769317 77.571727 144.330056 
C 78.218206 145.890796 78.940924 147.418854 79.73727 148.908713 
L 125.254844 124.579063 
z
" clip-path="url(#p55fa245923)" style="fill: none; stroke: #292929; stroke-width: 0.5; stroke-linejoin: miter"/>
   </g>
   <g id="patch_154">
    <path d="M 125.254844 124.579063 
C 125.254844 124.579063 125.254844 124.579063 125.254844 124.579063 
C 125.254844 124.579063 125.254844 124.579063 125.254844 124.579063 
L 84.962149 128.547547 
C 85.092044 129.866387 85.286611 131.178054 85.545149 132.477812 
C 85.803687 133.777569 86.125883 135.06385 86.510575 136.332008 
L 125.254844 124.579063 
z
" clip-path="url(#p55fa245923)" style="fill: none; stroke: #292929; stroke-width: 0.5; stroke-linejoin: miter"/>
   </g>
   <g id="patch_155">
    <path d="M 125.254844 124.579063 
C 125.254844 124.579063 125.254844 124.579063 125.254844 124.579063 
C 125.254844 124.579063 125.254844 124.579063 125.254844 124.579063 
L 79.093763 120.032593 
C 78.94495 121.543514 78.870409 123.060831 78.870409 124.579062 
C 78.870409 126.097294 78.94495 127.614611 79.093763 129.125532 
L 125.254844 124.579063 
z
" clip-path="url(#p55fa245923)" style="fill: none; stroke: #292929; stroke-width: 0.5; stroke-linejoin: miter"/>
   </g>
   <g id="patch_156">
    <path d="M 125.254844 124.579063 
C 125.254844 124.579063 125.254844 124.579063 125.254844 124.579063 
C 125.254844 124.579063 125.254844 124.579063 125.254844 124.579063 
L 108.478083 119.489888 
C 108.311507 120.039016 108.171992 120.595992 108.060042 121.158804 
C 107.948091 121.721615 107.863841 122.289584 107.807595 122.860659 
L 125.254844 124.579063 
z
" clip-path="url(#p55fa245923)" style="fill: none; stroke: #292929; stroke-width: 0.5; stroke-linejoin: miter"/>
   </g>
   <g id="patch_157">
    <path d="M 125.254844 124.579063 
C 125.254844 124.579063 125.254844 124.579063 125.254844 124.579063 
C 125.254844 124.579063 125.254844 124.579063 125.254844 124.579063 
L 103.388909 112.891477 
C 103.006356 113.607181 102.659174 114.341237 102.348615 115.090992 
C 102.038057 115.840747 101.764496 116.605298 101.528921 117.381883 
L 125.254844 124.579063 
z
" clip-path="url(#p55fa245923)" style="fill: none; stroke: #292929; stroke-width: 0.5; stroke-linejoin: miter"/>
   </g>
   <g id="patch_158">
    <path d="M 125.254844 124.579063 
C 125.254844 124.579063 125.254844 124.579063 125.254844 124.579063 
C 125.254844 124.579063 125.254844 124.579063 125.254844 124.579063 
L 80.993665 88.254852 
C 79.80472 89.703586 78.687619 91.209822 77.6464 92.768117 
C 76.60518 94.326413 75.641096 95.93489 74.757629 97.587739 
L 125.254844 124.579063 
z
" clip-path="url(#p55fa245923)" style="fill: none; stroke: #292929; stroke-width: 0.5; stroke-linejoin: miter"/>
   </g>
   <g id="patch_159">
    <path d="M 125.254844 124.579063 
C 125.254844 124.579063 125.254844 124.579063 125.254844 124.579063 
C 125.254844 124.579063 125.254844 124.579063 125.254844 124.579063 
L 92.512643 84.682575 
C 91.206771 85.754276 89.954304 86.889446 88.759766 88.083985 
C 87.565228 89.278523 86.430058 90.53099 85.358357 91.836862 
L 125.254844 124.579063 
z
" clip-path="url(#p55fa245923)" style="fill: none; stroke: #292929; stroke-width: 0.5; stroke-linejoin: miter"/>
   </g>
   <g id="patch_160">
    <path d="M 125.254844 124.579063 
C 125.254844 124.579063 125.254844 124.579063 125.254844 124.579063 
C 125.254844 124.579063 125.254844 124.579063 125.254844 124.579063 
L 83.114654 45.740312 
C 80.534144 47.119623 78.022909 48.624799 75.590021 50.250403 
C 73.157133 51.876007 70.805524 53.620079 68.543688 55.47632 
L 125.254844 124.579063 
z
" clip-path="url(#p55fa245923)" style="fill: none; stroke: #292929; stroke-width: 0.5; stroke-linejoin: miter"/>
   </g>
   <g id="patch_161">
    <path d="M 125.254844 124.579063 
C 125.254844 124.579063 125.254844 124.579063 125.254844 124.579063 
C 125.254844 124.579063 125.254844 124.579063 125.254844 124.579063 
L 106.671805 63.318994 
C 104.666672 63.927245 102.69261 64.633576 100.756751 65.435435 
C 98.820892 66.237294 96.925568 67.133715 95.077627 68.12146 
L 125.254844 124.579063 
z
" clip-path="url(#p55fa245923)" style="fill: none; stroke: #292929; stroke-width: 0.5; stroke-linejoin: miter"/>
   </g>
   <g id="patch_162">
    <path d="M 125.254844 124.579063 
C 125.254844 124.579063 125.254844 124.579063 125.254844 124.579063 
C 125.254844 124.579063 125.254844 124.579063 125.254844 124.579063 
L 114.386703 14.232974 
C 110.77491 14.588704 107.18276 15.12155 103.623228 15.829585 
C 100.063695 16.53762 96.54107 17.419991 93.068077 18.473512 
L 125.254844 124.579063 
z
" clip-path="url(#p55fa245923)" style="fill: none; stroke: #292929; stroke-width: 0.5; stroke-linejoin: miter"/>
   </g>
   <g id="PathCollection_1">
    <defs>
     <path id="mfc9d754c72" d="M 0.193618 7.414054 
L 0.193618 7.414054 
C 0.054922 7.414054 -0.078235 7.358899 -0.176308 7.260826 
C -0.274381 7.162753 -0.329536 7.029596 -0.329536 6.890901 
L -0.329536 5.365008 
L -1.528416 6.56393 
L -1.528416 6.56393 
C -1.577018 6.612704 -1.634775 6.651408 -1.698366 6.677814 
C -1.761958 6.704221 -1.830141 6.717815 -1.898997 6.717815 
C -1.967853 6.717815 -2.036037 6.704221 -2.099628 6.677814 
C -2.163219 6.651408 -2.220976 6.612704 -2.269578 6.56393 
L -2.269578 6.56393 
C -2.318353 6.515327 -2.357056 6.457571 -2.383463 6.393979 
C -2.409869 6.330388 -2.423463 6.262205 -2.423463 6.193348 
C -2.423463 6.124492 -2.409869 6.056309 -2.383463 5.992718 
C -2.357056 5.929126 -2.318353 5.87137 -2.269578 5.822767 
L -0.329536 3.884106 
L -0.329536 0.820937 
L -2.98067 2.351538 
L -3.691824 5.001416 
L -3.691824 5.001416 
C -3.727584 5.135411 -3.815199 5.249836 -3.93523 5.319305 
C -4.055261 5.388775 -4.198123 5.407741 -4.332122 5.371997 
L -4.332122 5.371997 
C -4.466126 5.336237 -4.580558 5.248616 -4.650029 5.128576 
C -4.719499 5.008535 -4.73846 4.865662 -4.702703 4.731657 
L -4.262647 3.092721 
L -5.585535 3.855668 
L -5.585535 3.855668 
C -5.645013 3.890144 -5.710708 3.912561 -5.778854 3.921634 
C -5.847001 3.930706 -5.916272 3.926258 -5.982698 3.908543 
C -6.049125 3.890828 -6.111412 3.860192 -6.165991 3.818391 
C -6.220571 3.77659 -6.266379 3.724437 -6.300791 3.664922 
L -6.300791 3.664922 
C -6.335212 3.605364 -6.35755 3.539597 -6.366524 3.471396 
C -6.375498 3.403194 -6.370933 3.333888 -6.35309 3.267452 
C -6.335248 3.201017 -6.304476 3.138749 -6.26254 3.08422 
C -6.220605 3.029692 -6.168323 2.983966 -6.108695 2.949666 
L -4.785807 2.186762 
L -6.424743 1.746706 
L -6.424743 1.746706 
C -6.558747 1.710946 -6.673179 1.623325 -6.74265 1.503284 
C -6.81212 1.383244 -6.831081 1.240371 -6.795324 1.106366 
L -6.795324 1.106366 
C -6.777471 1.039969 -6.746703 0.977739 -6.704784 0.923241 
C -6.662864 0.868744 -6.61061 0.823041 -6.551015 0.788752 
C -6.491421 0.754464 -6.425647 0.732257 -6.357465 0.723406 
C -6.289282 0.714554 -6.220019 0.71923 -6.153645 0.737166 
L -3.505232 1.44698 
L -0.852424 -0.08496 
L -3.503767 -1.615666 
L -6.153645 -0.905851 
L -6.153645 -0.905851 
C -6.22011 -0.887939 -6.289462 -0.883321 -6.357716 -0.892262 
C -6.42597 -0.901202 -6.491793 -0.923527 -6.551403 -0.957953 
C -6.611013 -0.992379 -6.663247 -1.038234 -6.705103 -1.092883 
C -6.746958 -1.147533 -6.777619 -1.209911 -6.795324 -1.276432 
L -6.795324 -1.276432 
C -6.831068 -1.410431 -6.812101 -1.553293 -6.742632 -1.673324 
C -6.673162 -1.793355 -6.558738 -1.88097 -6.424743 -1.91673 
L -4.785807 -2.355447 
L -6.108695 -3.119732 
L -6.108695 -3.119732 
C -6.228699 -3.188976 -6.316415 -3.303132 -6.352417 -3.436921 
C -6.388419 -3.57071 -6.369839 -3.713469 -6.300791 -3.833586 
L -6.300791 -3.833586 
C -6.266491 -3.893214 -6.220765 -3.945496 -6.166237 -3.987431 
C -6.111708 -4.029367 -6.04944 -4.060139 -5.983005 -4.077981 
C -5.91657 -4.095823 -5.847263 -4.100389 -5.779062 -4.091415 
C -5.71086 -4.082441 -5.645094 -4.060102 -5.585535 -4.025682 
L -4.262647 -3.261396 
L -4.702703 -4.900332 
L -4.702703 -4.900332 
C -4.73846 -5.034337 -4.719499 -5.17721 -4.650029 -5.29725 
C -4.580558 -5.417291 -4.466126 -5.504912 -4.332122 -5.540672 
L -4.332122 -5.540672 
C -4.19831 -5.576464 -4.055613 -5.557686 -3.935617 -5.488496 
C -3.81562 -5.419305 -3.727882 -5.305212 -3.691824 -5.171472 
L -2.982009 -2.521594 
L -0.329411 -0.990302 
L -0.329411 -4.051588 
L -2.269453 -5.991589 
L -2.269453 -5.991589 
C -2.318227 -6.040191 -2.356931 -6.097947 -2.383337 -6.161539 
C -2.409744 -6.22513 -2.423338 -6.293314 -2.423338 -6.36217 
C -2.423338 -6.431026 -2.409744 -6.499209 -2.383337 -6.5628 
C -2.356931 -6.626392 -2.318227 -6.684149 -2.269453 -6.732751 
L -2.269453 -6.732751 
C -2.22085 -6.781526 -2.163094 -6.820229 -2.099502 -6.846635 
C -2.035911 -6.873042 -1.967728 -6.886636 -1.898871 -6.886636 
C -1.830015 -6.886636 -1.761832 -6.873042 -1.698241 -6.846635 
C -1.634649 -6.820229 -1.576893 -6.781526 -1.52829 -6.732751 
L -0.329411 -5.533829 
L -0.329411 -7.059722 
L -0.329411 -7.059722 
C -0.329411 -7.198418 -0.274255 -7.331575 -0.176182 -7.429647 
C -0.07811 -7.52772 0.055047 -7.582875 0.193743 -7.582875 
L 0.193743 -7.582875 
C 0.332439 -7.582875 0.465596 -7.52772 0.563669 -7.429647 
C 0.661741 -7.331575 0.716897 -7.198418 0.716897 -7.059722 
L 0.716897 -5.533829 
L 1.915777 -6.732751 
L 1.915777 -6.732751 
C 1.964379 -6.781526 2.022136 -6.820229 2.085727 -6.846635 
C 2.149318 -6.873042 2.217502 -6.886636 2.286358 -6.886636 
C 2.355214 -6.886636 2.423397 -6.873042 2.486989 -6.846635 
C 2.55058 -6.820229 2.608337 -6.781526 2.656939 -6.732751 
L 2.656939 -6.732751 
C 2.705714 -6.684149 2.744417 -6.626392 2.770823 -6.5628 
C 2.79723 -6.499209 2.810824 -6.431026 2.810824 -6.36217 
C 2.810824 -6.293314 2.79723 -6.22513 2.770823 -6.161539 
C 2.744417 -6.097947 2.705714 -6.040191 2.656939 -5.991589 
L 0.716897 -4.051588 
L 0.716897 -0.991139 
L 3.369495 -2.522954 
L 4.07931 -5.171367 
L 4.07931 -5.171367 
C 4.115368 -5.305107 4.203106 -5.4192 4.323103 -5.488391 
C 4.4431 -5.557582 4.585797 -5.576359 4.719608 -5.540567 
L 4.719608 -5.540567 
C 4.853612 -5.504807 4.968045 -5.417186 5.037515 -5.297146 
C 5.106986 -5.177105 5.125946 -5.034232 5.090189 -4.900227 
L 4.650133 -3.262673 
L 5.973022 -4.025577 
L 5.973022 -4.025577 
C 6.03258 -4.059998 6.098346 -4.082336 6.166548 -4.09131 
C 6.234749 -4.100284 6.304056 -4.095719 6.370491 -4.077876 
C 6.436926 -4.060034 6.499194 -4.029262 6.553723 -3.987327 
C 6.608252 -3.945391 6.653978 -3.893109 6.688277 -3.833481 
L 6.688277 -3.833481 
C 6.757325 -3.713365 6.775905 -3.570605 6.739903 -3.436816 
C 6.703901 -3.303027 6.616186 -3.188871 6.496181 -3.119628 
L 5.173293 -2.355342 
L 6.812229 -1.916625 
L 6.812229 -1.916625 
C 6.946224 -1.880865 7.060649 -1.79325 7.130118 -1.67322 
C 7.199588 -1.553189 7.218554 -1.410326 7.18281 -1.276327 
L 7.18281 -1.276327 
C 7.165106 -1.209806 7.134445 -1.147429 7.092589 -1.092779 
C 7.050733 -1.038129 6.998499 -0.992274 6.938889 -0.957848 
C 6.879279 -0.923422 6.813456 -0.901098 6.745202 -0.892157 
C 6.676949 -0.883217 6.607597 -0.887835 6.541131 -0.905746 
L 3.891253 -1.615561 
L 1.239492 -0.084604 
L 3.892718 1.447085 
L 6.541131 0.73727 
L 6.541131 0.73727 
C 6.674948 0.701466 6.817656 0.720237 6.937662 0.789429 
C 7.057669 0.858621 7.145413 0.972721 7.181471 1.10647 
L 7.181471 1.10647 
C 7.217274 1.240293 7.198497 1.383006 7.129297 1.503014 
C 7.060096 1.623021 6.945986 1.710762 6.812229 1.74681 
L 5.173293 2.186866 
L 6.496181 2.949771 
L 6.496181 2.949771 
C 6.555697 2.984183 6.607849 3.029991 6.649651 3.08457 
C 6.691452 3.13915 6.722088 3.201437 6.739803 3.267863 
C 6.757517 3.33429 6.761966 3.403561 6.752893 3.471707 
C 6.743821 3.539854 6.721404 3.605549 6.686927 3.665026 
L 6.686927 3.665026 
C 6.617458 3.784813 6.503196 3.87225 6.369416 3.907994 
C 6.235636 3.943739 6.092989 3.924946 5.973032 3.855772 
L 4.650144 3.091487 
L 5.08886 4.731783 
L 5.08886 4.731783 
C 5.124664 4.865606 5.105887 5.008319 5.036686 5.128326 
C 4.967486 5.248334 4.853376 5.336074 4.719619 5.372123 
L 4.719619 5.372123 
C 4.585619 5.407867 4.442757 5.3889 4.322726 5.319431 
C 4.202695 5.249961 4.115081 5.135537 4.07932 5.001542 
L 3.368166 2.351664 
L 0.717033 0.821063 
L 0.717033 3.884232 
L 2.657075 5.822893 
L 2.657075 5.822893 
C 2.70585 5.871495 2.744553 5.929252 2.770959 5.992843 
C 2.797366 6.056435 2.81096 6.124618 2.81096 6.193474 
C 2.81096 6.26233 2.797366 6.330514 2.770959 6.394105 
C 2.744553 6.457696 2.70585 6.515453 2.657075 6.564055 
L 2.657075 6.564055 
C 2.608473 6.61283 2.550716 6.651533 2.487125 6.67794 
C 2.423533 6.704346 2.35535 6.71794 2.286494 6.71794 
C 2.217638 6.71794 2.149454 6.704346 2.085863 6.67794 
C 2.022272 6.651533 1.964515 6.61283 1.915913 6.564055 
L 0.717033 5.365133 
L 0.717033 6.891026 
L 0.717033 6.891026 
C 0.717033 7.029722 0.661877 7.162879 0.563805 7.260952 
C 0.465732 7.359024 0.332575 7.41418 0.193879 7.41418 
L 0.193618 7.414054 
z
"/>
    </defs>
    <g clip-path="url(#p55fa245923)">
     <use xlink:href="#mfc9d754c72" x="100.459321" y="42.951952" style="fill: #9e2096; fill-opacity: 0.7"/>
    </g>
   </g>
   <g id="patch_163">
    <path d="M 125.254844 13.699063 
C 110.694216 13.699063 96.275171 16.567189 82.822905 22.1393 
C 69.370638 27.711411 57.146763 35.879144 46.850844 46.175063 
C 36.554925 56.470982 28.387192 68.694857 22.815081 82.147124 
C 17.24297 95.59939 14.374844 110.018434 14.374844 124.579063 
C 14.374844 139.139691 17.24297 153.558735 22.815081 167.011001 
C 28.387192 180.463268 36.554925 192.687143 46.850844 202.983062 
C 57.146763 213.278981 69.370638 221.446714 82.822905 227.018825 
C 96.275171 232.590936 110.694216 235.459063 125.254844 235.459063 
C 139.815472 235.459063 154.234516 232.590936 167.686783 227.018825 
C 181.139049 221.446714 193.362925 213.278981 203.658844 202.983062 
C 213.954763 192.687143 222.122495 180.463268 227.694606 167.011001 
C 233.266717 153.558735 236.134844 139.139691 236.134844 124.579063 
C 236.134844 110.018434 233.266717 95.59939 227.694606 82.147124 
C 222.122495 68.694857 213.954763 56.470982 203.658844 46.175063 
C 193.362925 35.879144 181.139049 27.711411 167.686783 22.1393 
C 154.234516 16.567189 139.815472 13.699063 125.254844 13.699063 
" style="fill: none; stroke: #000000; stroke-width: 0.8; stroke-linejoin: miter; stroke-linecap: square"/>
   </g>
  </g>
 </g>
 <defs>
  <clipPath id="p55fa245923">
   <path d="M 236.134844 124.579063 
C 236.134844 110.018434 233.266717 95.59939 227.694606 82.147124 
C 222.122495 68.694857 213.954763 56.470982 203.658844 46.175063 
C 193.362925 35.879144 181.139049 27.711411 167.686783 22.1393 
C 154.234516 16.567189 139.815472 13.699063 125.254844 13.699063 
C 110.694216 13.699063 96.275171 16.567189 82.822905 22.1393 
C 69.370638 27.711411 57.146763 35.879144 46.850844 46.175063 
C 36.554925 56.470982 28.387192 68.694857 22.815081 82.147124 
C 17.24297 95.59939 14.374844 110.018434 14.374844 124.579062 
C 14.374844 139.139691 17.24297 153.558735 22.815081 167.011001 
C 28.387192 180.463268 36.554925 192.687143 46.850844 202.983062 
C 57.146763 213.278981 69.370638 221.446714 82.822905 227.018825 
C 96.275171 232.590936 110.694216 235.459063 125.254844 235.459063 
C 139.815472 235.459063 154.234516 232.590936 167.686783 227.018825 
C 181.139049 221.446714 193.362925 213.278981 203.658844 202.983062 
C 213.954763 192.687143 222.122495 180.463268 227.694606 167.011001 
C 233.266717 153.558735 236.134844 139.139691 236.134844 124.579063 
M 125.254844 124.579063 
C 125.254844 124.579063 125.254844 124.579063 125.254844 124.579063 
C 125.254844 124.579063 125.254844 124.579063 125.254844 124.579063 
C 125.254844 124.579063 125.254844 124.579063 125.254844 124.579063 
C 125.254844 124.579063 125.254844 124.579063 125.254844 124.579063 
C 125.254844 124.579063 125.254844 124.579063 125.254844 124.579063 
C 125.254844 124.579063 125.254844 124.579063 125.254844 124.579063 
C 125.254844 124.579063 125.254844 124.579063 125.254844 124.579063 
C 125.254844 124.579063 125.254844 124.579063 125.254844 124.579063 
C 125.254844 124.579063 125.254844 124.579063 125.254844 124.579063 
C 125.254844 124.579063 125.254844 124.579063 125.254844 124.579063 
C 125.254844 124.579063 125.254844 124.579063 125.254844 124.579063 
C 125.254844 124.579063 125.254844 124.579063 125.254844 124.579063 
C 125.254844 124.579063 125.254844 124.579063 125.254844 124.579063 
C 125.254844 124.579063 125.254844 124.579063 125.254844 124.579063 
C 125.254844 124.579063 125.254844 124.579063 125.254844 124.579063 
C 125.254844 124.579063 125.254844 124.579063 125.254844 124.579063 
z
"/>
  </clipPath>
 </defs>
</svg>
