<?xml version="1.0" encoding="utf-8" standalone="no"?>
<!DOCTYPE svg PUBLIC "-//W3C//DTD SVG 1.1//EN"
  "http://www.w3.org/Graphics/SVG/1.1/DTD/svg11.dtd">
<svg xmlns:xlink="http://www.w3.org/1999/xlink" width="248.410469pt" height="249.158125pt" viewBox="0 0 248.410469 249.158125" xmlns="http://www.w3.org/2000/svg" version="1.1">
 <title>Ski Rose for Mürren/Schilthorn</title>
 <metadata>
  <rdf:RDF xmlns:dc="http://purl.org/dc/elements/1.1/" xmlns:cc="http://creativecommons.org/ns#" xmlns:rdf="http://www.w3.org/1999/02/22-rdf-syntax-ns#">
   <cc:Work>
    <dc:type rdf:resource="http://purl.org/dc/dcmitype/StillImage"/>
    <dc:title>Ski Rose for Mürren/Schilthorn</dc:title>
    <dc:date>2026-02-28T10:43:26.263759</dc:date>
    <dc:description>A 32-bin stacked histogram of downhill ski run orientations colored by difficulty.</dc:description>
    <dc:format>image/svg+xml</dc:format>
    <dc:source>https://openskimap.org/?obj=d9ac8983541d7960d801802ce64751267338b5e4</dc:source>
    <dc:creator>
     <cc:Agent>
      <dc:title>https://github.com/dhimmel/openskistats</dc:title>
     </cc:Agent>
    </dc:creator>
    <dc:rights>
     <cc:Agent>
      <dc:title>https://creativecommons.org/licenses/by/4.0/</dc:title>
     </cc:Agent>
    </dc:rights>
   </cc:Work>
  </rdf:RDF>
 </metadata>
 <defs>
  <style type="text/css">*{stroke-linejoin: round; stroke-linecap: butt}</style>
 </defs>
 <g id="figure_1">
  <g id="patch_1">
   <path d="M 0 249.158125 
L 248.410469 249.158125 
L 248.410469 0 
L 0 0 
z
" style="fill: #ffffff"/>
  </g>
  <g id="axes_1">
   <g id="patch_2">
    <path d="M 236.134844 124.579063 
C 236.134844 110.018434 233.266717 95.59939 227.694606 82.147124 
C 222.122495 68.694857 213.954763 56.470982 203.658844 46.175063 
C 193.362925 35.879144 181.139049 27.711411 167.686783 22.1393 
C 154.234516 16.567189 139.815472 13.699063 125.254844 13.699063 
C 110.694216 13.699063 96.275171 16.567189 82.822905 22.1393 
C 69.370638 27.711411 57.146763 35.879144 46.850844 46.175063 
C 36.554925 56.470982 28.387192 68.694857 22.815081 82.147124 
C 17.24297 95.59939 14.374844 110.018434 14.374844 124.579062 
C 14.374844 139.139691 17.24297 153.558735 22.815081 167.011001 
C 28.387192 180.463268 36.554925 192.687143 46.850844 202.983062 
C 57.146763 213.278981 69.370638 221.446714 82.822905 227.018825 
C 96.275171 232.590936 110.694216 235.459063 125.254844 235.459063 
C 139.815472 235.459063 154.234516 232.590936 167.686783 227.018825 
C 181.139049 221.446714 193.362925 213.278981 203.658844 202.983062 
C 213.954763 192.687143 222.122495 180.463268 227.694606 167.011001 
C 233.266717 153.558735 236.134844 139.139691 236.134844 124.579063 
M 125.254844 124.579063 
C 125.254844 124.579063 125.254844 124.579063 125.254844 124.579063 
C 125.254844 124.579063 125.254844 124.579063 125.254844 124.579063 
C 125.254844 124.579063 125.254844 124.579063 125.254844 124.579063 
C 125.254844 124.579063 125.254844 124.579063 125.254844 124.579063 
C 125.254844 124.579063 125.254844 124.579063 125.254844 124.579063 
C 125.254844 124.579063 125.254844 124.579063 125.254844 124.579063 
C 125.254844 124.579063 125.254844 124.579063 125.254844 124.579063 
C 125.254844 124.579063 125.254844 124.579063 125.254844 124.579063 
C 125.254844 124.579063 125.254844 124.579063 125.254844 124.579063 
C 125.254844 124.579063 125.254844 124.579063 125.254844 124.579063 
C 125.254844 124.579063 125.254844 124.579063 125.254844 124.579063 
C 125.254844 124.579063 125.254844 124.579063 125.254844 124.579063 
C 125.254844 124.579063 125.254844 124.579063 125.254844 124.579063 
C 125.254844 124.579063 125.254844 124.579063 125.254844 124.579063 
C 125.254844 124.579063 125.254844 124.579063 125.254844 124.579063 
C 125.254844 124.579063 125.254844 124.579063 125.254844 124.579063 
z
" style="fill: #ffffff"/>
   </g>
   <g id="FillBetweenPolyCollection_1">
    <defs>
     <path id="mf74160398e" d="M 235.35663 -137.123576 
L 234.816096 -137.06199 
L 233.890115 -135.039449 
L 233.078228 -133.064947 
L 232.005716 -131.108226 
L 231.083049 -129.199622 
L 229.910018 -127.319555 
L 228.903341 -125.483589 
L 227.651551 -123.68546 
L 226.574482 -121.925914 
L 225.256272 -120.212906 
L 224.117808 -118.532345 
L 222.742122 -116.906647 
L 221.54951 -115.306941 
L 220.331987 -113.74639 
L 218.883679 -112.252592 
L 217.621483 -110.774776 
L 216.338716 -109.33685 
L 214.83266 -107.976796 
L 213.514141 -106.622505 
L 212.179239 -105.308388 
L 210.829288 -104.034456 
L 209.465616 -102.800676 
L 208.089542 -101.606967 
L 206.702381 -100.453203 
L 205.305438 -99.339207 
L 203.90001 -98.264758 
L 202.487387 -97.229585 
L 201.068848 -96.233368 
L 199.645661 -95.27574 
L 198.399299 -94.281637 
L 196.96781 -93.397377 
L 195.53529 -92.550418 
L 194.274854 -91.658206 
L 192.840812 -90.881942 
L 191.575181 -90.05488 
L 190.306937 -89.258658 
L 188.876936 -88.583415 
L 187.609132 -87.84958 
L 186.341332 -87.145214 
L 185.074347 -86.469836 
L 183.662207 -85.920072 
L 182.40261 -85.302491 
L 181.146217 -84.712133 
L 179.893756 -84.148395 
L 178.645932 -83.610639 
L 177.532575 -82.995477 
L 176.292351 -82.506988 
L 175.058683 -82.042566 
L 173.832177 -81.601469 
L 172.727988 -81.07794 
L 171.513642 -80.681102 
L 170.308063 -80.305387 
L 169.215154 -79.844726 
L 168.024591 -79.509153 
L 166.940181 -79.0875 
L 165.766242 -78.789256 
L 164.691778 -78.404345 
L 163.535839 -78.140502 
L 162.472566 -77.789973 
L 161.413582 -77.456077 
L 160.359133 -77.138338 
L 159.238391 -76.935887 
L 158.197018 -76.647902 
L 157.160761 -76.37448 
L 156.129775 -76.115129 
L 155.104192 -75.869354 
L 154.084122 -75.63666 
L 153.069654 -75.416552 
L 152.013015 -75.296641 
L 151.012966 -75.098169 
L 150.018582 -74.910687 
L 149.068746 -74.652179 
L 148.0828 -74.487683 
L 147.102505 -74.332882 
L 146.127789 -74.187314 
L 145.158561 -74.050532 
L 144.194707 -73.922097 
L 143.236092 -73.801583 
L 142.282562 -73.688576 
L 141.333942 -73.582679 
L 140.406827 -73.426825 
L 139.465412 -73.337409 
L 138.528383 -73.254095 
L 137.595496 -73.176546 
L 136.676217 -73.060576 
L 135.749264 -72.997341 
L 134.825753 -72.939059 
L 133.905384 -72.885475 
L 132.992327 -72.806354 
L 132.076239 -72.765421 
L 131.162457 -72.728604 
L 130.25064 -72.695736 
L 129.341648 -72.651293 
L 128.432185 -72.629999 
L 127.52376 -72.61233 
L 126.616128 -72.593732 
L 125.708569 -72.587247 
L 124.801121 -72.587624 
L 123.893629 -72.596368 
L 122.986108 -72.61647 
L 122.077894 -72.636388 
L 121.168719 -72.659922 
L 120.258222 -72.687164 
L 119.348634 -72.740925 
L 118.435359 -72.779935 
L 117.519854 -72.823038 
L 116.607333 -72.903574 
L 115.687683 -72.95928 
L 114.764963 -73.019652 
L 113.838873 -73.084944 
L 112.920357 -73.202229 
L 111.988461 -73.281766 
L 111.052489 -73.367027 
L 110.112197 -73.458345 
L 109.167356 -73.55607 
L 108.238675 -73.723096 
L 107.286445 -73.837869 
L 106.329188 -73.960097 
L 105.366748 -74.090191 
L 104.398989 -74.228576 
L 103.425795 -74.375688 
L 102.447072 -74.531974 
L 101.462747 -74.697894 
L 100.514287 -74.957182 
L 99.521606 -75.145973 
L 98.523303 -75.34569 
L 97.46876 -75.467326 
L 96.456121 -75.688533 
L 95.437917 -75.92226 
L 94.414232 -76.168999 
L 93.385176 -76.429246 
L 92.350877 -76.703494 
L 91.31149 -76.992236 
L 90.1931 -77.195836 
L 89.140688 -77.514179 
L 88.083762 -77.848609 
L 87.022566 -78.199601 
L 85.869074 -78.464251 
L 84.796722 -78.849474 
L 83.625265 -79.148349 
L 82.542992 -79.570163 
L 81.354937 -79.906193 
L 80.264185 -80.366865 
L 79.061131 -80.742866 
L 77.963533 -81.24456 
L 76.747302 -81.663215 
L 75.523335 -82.104341 
L 74.292207 -82.568707 
L 73.183302 -83.159488 
L 71.943336 -83.671703 
L 70.698046 -84.209156 
L 69.448113 -84.772508 
L 68.194242 -85.362397 
L 66.93716 -85.97943 
L 65.677618 -86.624184 
L 64.416385 -87.297207 
L 62.998091 -87.907032 
L 61.73276 -88.639997 
L 60.468242 -89.402808 
L 59.039793 -90.109689 
L 57.776594 -90.935648 
L 56.345341 -91.710916 
L 55.087306 -92.601873 
L 53.657544 -93.44767 
L 52.408636 -94.405175 
L 50.984784 -95.323308 
L 49.564306 -96.27953 
L 48.148458 -97.274259 
L 46.928006 -98.371269 
L 45.527423 -99.441103 
L 44.135184 -100.550325 
L 42.752587 -101.699162 
L 41.380935 -102.887795 
L 40.021541 -104.116357 
L 38.675722 -105.384933 
L 37.142565 -106.652417 
L 35.826558 -108.004509 
L 34.528252 -109.396638 
L 33.248993 -110.828696 
L 31.783325 -112.273304 
L 30.545474 -113.788293 
L 29.330926 -115.34264 
L 27.932362 -116.919617 
L 26.768379 -118.555372 
L 25.423059 -120.220313 
L 24.316351 -121.935895 
L 23.032222 -123.686979 
L 21.990496 -125.480237 
L 20.777384 -127.314901 
L 19.810814 -129.182848 
L 18.683426 -131.09725 
L 17.808943 -133.035238 
L 16.795789 -135.022482 
L 16.048657 -137.021536 
L 15.142638 -137.124764 
L 15.142638 -137.124764 
L 14.927068 -135.202419 
L 14.807936 -133.271423 
L 14.607863 -131.346522 
L 14.554613 -129.412339 
L 14.420879 -127.481352 
L 14.433201 -125.546188 
L 14.477768 -123.612326 
L 14.443145 -121.677356 
L 14.48228 -119.742628 
L 14.621238 -117.812421 
L 14.863458 -115.891072 
L 14.886472 -113.951797 
L 15.11841 -112.030601 
L 15.380158 -110.113786 
L 15.749056 -108.213313 
L 15.896244 -106.278709 
L 16.249017 -104.376027 
L 16.631351 -102.479363 
L 17.043326 -100.589147 
L 17.567282 -98.725566 
L 17.953018 -96.828923 
L 18.457283 -94.961478 
L 18.99139 -93.102394 
L 19.555453 -91.252173 
L 20.149605 -89.411342 
L 20.774002 -87.580456 
L 21.428827 -85.760105 
L 22.114298 -83.950921 
L 22.830702 -82.153594 
L 23.578411 -80.368891 
L 24.429054 -78.630103 
L 25.240812 -76.874816 
L 26.085928 -75.135265 
L 26.965042 -73.41263 
L 27.814072 -71.67304 
L 28.789342 -70.001508 
L 29.737885 -68.315274 
L 30.738074 -66.659112 
L 31.741326 -65.004381 
L 32.816481 -63.395445 
L 33.879239 -61.77835 
L 35.218404 -60.356694 
L 37.017826 -59.287104 
L 38.846176 -58.27536 
L 40.68802 -57.311573 
L 42.543424 -56.397029 
L 44.342014 -55.472977 
L 46.200279 -54.637492 
L 48.002121 -53.789984 
L 49.8603 -53.032312 
L 51.657812 -52.255461 
L 53.452037 -51.511996 
L 55.289986 -50.851486 
L 57.073037 -50.171677 
L 58.850145 -49.522204 
L 60.620629 -48.90212 
L 62.342889 -48.260759 
L 64.100136 -47.697059 
L 65.849118 -47.160014 
L 67.549964 -46.595393 
L 69.282958 -46.109372 
L 71.006525 -45.647269 
L 72.689724 -45.16183 
L 74.362843 -44.694624 
L 76.060026 -44.300416 
L 77.721093 -43.882767 
L 79.371637 -43.480769 
L 81.018103 -43.105121 
L 82.653933 -42.743475 
L 84.285359 -42.406989 
L 85.906187 -42.082887 
L 87.522406 -41.782784 
L 89.128209 -41.493491 
L 90.712241 -41.185842 
L 92.307221 -40.936649 
L 93.892282 -40.69608 
L 95.459474 -40.439535 
L 97.034013 -40.235891 
L 98.590741 -40.011332 
L 100.150673 -39.828803 
L 101.697573 -39.63429 
L 103.248018 -39.48498 
L 104.785688 -39.318893 
L 106.323796 -39.186626 
L 107.853221 -39.047354 
L 109.37921 -38.921808 
L 110.905627 -38.831525 
L 112.424756 -38.730941 
L 113.941182 -38.643269 
L 115.456156 -38.577085 
L 116.967609 -38.512843 
L 118.477199 -38.460925 
L 119.985203 -38.421193 
L 121.491902 -38.39353 
L 122.997768 -38.384819 
L 124.502574 -38.377461 
L 126.007127 -38.375923 
L 127.512006 -38.381525 
L 129.017602 -38.397721 
L 130.524226 -38.425432 
L 132.032151 -38.465211 
L 133.541661 -38.517172 
L 135.054943 -38.564696 
L 136.56897 -38.639738 
L 138.085449 -38.727478 
L 139.604628 -38.828131 
L 141.129639 -38.926332 
L 142.65554 -39.051907 
L 144.184876 -39.191204 
L 145.724743 -39.315798 
L 147.262451 -39.481958 
L 148.810824 -39.638941 
L 150.357632 -39.833469 
L 151.919825 -40.008547 
L 153.476581 -40.233181 
L 155.048548 -40.444238 
L 156.615646 -40.700787 
L 158.20344 -40.934177 
L 159.795494 -41.190555 
L 161.379431 -41.4982 
L 162.9883 -41.780549 
L 164.601261 -42.087584 
L 166.225363 -42.404914 
L 167.853322 -42.748148 
L 169.492626 -43.103204 
L 171.135427 -43.485407 
L 172.789633 -43.881004 
L 174.446849 -44.305006 
L 176.143937 -44.699187 
L 177.820978 -45.160296 
L 179.536543 -45.5987 
L 181.223547 -46.113835 
L 182.95645 -46.599818 
L 184.661523 -47.158771 
L 186.410482 -47.695888 
L 188.167705 -48.259659 
L 189.885438 -48.90636 
L 191.65584 -49.52639 
L 193.432867 -50.175807 
L 195.268506 -50.800057 
L 197.058414 -51.511218 
L 198.852606 -52.254742 
L 200.650085 -53.03165 
L 202.503456 -53.793751 
L 204.305266 -54.641157 
L 206.16825 -55.472485 
L 207.9668 -56.396588 
L 209.817518 -57.314874 
L 211.66395 -58.275023 
L 213.487853 -59.29007 
L 215.291618 -60.356455 
L 216.632652 -61.776835 
L 217.702218 -63.38948 
L 218.766745 -65.005411 
L 219.744539 -66.675703 
L 220.763961 -68.319893 
L 221.729721 -69.996203 
L 222.688073 -71.677136 
L 223.485199 -73.443576 
L 224.474751 -75.109841 
L 225.302466 -76.858795 
L 226.13694 -78.604443 
L 226.878773 -80.39172 
L 227.682426 -82.152169 
L 228.370461 -83.960741 
L 229.070704 -85.763903 
L 229.724015 -87.584589 
L 230.33056 -89.42122 
L 230.99286 -91.239994 
L 231.514446 -93.103534 
L 232.039933 -94.964936 
L 232.588175 -96.820776 
L 233.014113 -98.708351 
L 233.48699 -100.584573 
L 233.816291 -102.491986 
L 234.214315 -104.384618 
L 234.602597 -106.280524 
L 234.774018 -108.211312 
L 235.081434 -110.120118 
L 235.334053 -112.037121 
L 235.566194 -113.957288 
L 235.760066 -115.882113 
L 235.916332 -117.810716 
L 236.026997 -119.742646 
L 235.930921 -121.680907 
L 235.979265 -123.612785 
L 235.992545 -125.545456 
L 235.965184 -127.478115 
L 235.910396 -129.410388 
L 235.822409 -131.341665 
L 235.701955 -133.271439 
L 235.541301 -135.19844 
L 235.35663 -137.123576 
z
" style="stroke: #ffee9c"/>
    </defs>
    <g clip-path="url(#p3ea06b7f28)">
     <use xlink:href="#mf74160398e" x="0" y="249.158125" style="fill: #ffee9c; stroke: #ffee9c"/>
    </g>
   </g>
   <g id="matplotlib.axis_1">
    <g id="xtick_1">
     <g id="line2d_1">
      <path d="M 125.254844 124.579063 
L 125.254844 13.699063 
" clip-path="url(#p3ea06b7f28)" style="fill: none; stroke: #b0b0b0; stroke-width: 0.8; stroke-linecap: square"/>
     </g>
     <g id="text_1">
      <!-- N -->
      <g transform="translate(121.070469 7.958438) scale(0.1 -0.1)">
       <defs>
        <path id="DejaVuSans-Bold-4e" d="M 588 4666 
L 1931 4666 
L 3628 1466 
L 3628 4666 
L 4769 4666 
L 4769 0 
L 3425 0 
L 1728 3200 
L 1728 0 
L 588 0 
L 588 4666 
z
" transform="scale(0.015625)"/>
       </defs>
       <use xlink:href="#DejaVuSans-Bold-4e"/>
      </g>
     </g>
    </g>
    <g id="xtick_2">
     <g id="line2d_2">
      <path d="M 125.254844 124.579063 
L 203.658844 46.175063 
" clip-path="url(#p3ea06b7f28)" style="fill: none; stroke: #b0b0b0; stroke-width: 0.8; stroke-linecap: square"/>
     </g>
    </g>
    <g id="xtick_3">
     <g id="line2d_3">
      <path d="M 125.254844 124.579063 
L 236.134844 124.579063 
" clip-path="url(#p3ea06b7f28)" style="fill: none; stroke: #b0b0b0; stroke-width: 0.8; stroke-linecap: square"/>
     </g>
     <g id="text_2">
      <!-- E -->
      <g transform="translate(241.219219 127.338438) scale(0.1 -0.1)">
       <defs>
        <path id="DejaVuSans-Bold-45" d="M 588 4666 
L 3834 4666 
L 3834 3756 
L 1791 3756 
L 1791 2888 
L 3713 2888 
L 3713 1978 
L 1791 1978 
L 1791 909 
L 3903 909 
L 3903 0 
L 588 0 
L 588 4666 
z
" transform="scale(0.015625)"/>
       </defs>
       <use xlink:href="#DejaVuSans-Bold-45"/>
      </g>
     </g>
    </g>
    <g id="xtick_4">
     <g id="line2d_4">
      <path d="M 125.254844 124.579063 
L 203.658844 202.983062 
" clip-path="url(#p3ea06b7f28)" style="fill: none; stroke: #b0b0b0; stroke-width: 0.8; stroke-linecap: square"/>
     </g>
    </g>
    <g id="xtick_5">
     <g id="line2d_5">
      <path d="M 125.254844 124.579063 
L 125.254844 235.459063 
" clip-path="url(#p3ea06b7f28)" style="fill: none; stroke: #b0b0b0; stroke-width: 0.8; stroke-linecap: square"/>
     </g>
     <g id="text_3">
      <!-- S -->
      <g transform="translate(121.654062 246.718438) scale(0.1 -0.1)">
       <defs>
        <path id="DejaVuSans-Bold-53" d="M 3834 4519 
L 3834 3531 
Q 3450 3703 3084 3790 
Q 2719 3878 2394 3878 
Q 1963 3878 1756 3759 
Q 1550 3641 1550 3391 
Q 1550 3203 1689 3098 
Q 1828 2994 2194 2919 
L 2706 2816 
Q 3484 2659 3812 2340 
Q 4141 2022 4141 1434 
Q 4141 663 3683 286 
Q 3225 -91 2284 -91 
Q 1841 -91 1394 -6 
Q 947 78 500 244 
L 500 1259 
Q 947 1022 1364 901 
Q 1781 781 2169 781 
Q 2563 781 2772 912 
Q 2981 1044 2981 1288 
Q 2981 1506 2839 1625 
Q 2697 1744 2272 1838 
L 1806 1941 
Q 1106 2091 782 2419 
Q 459 2747 459 3303 
Q 459 4000 909 4375 
Q 1359 4750 2203 4750 
Q 2588 4750 2994 4692 
Q 3400 4634 3834 4519 
z
" transform="scale(0.015625)"/>
       </defs>
       <use xlink:href="#DejaVuSans-Bold-53"/>
      </g>
     </g>
    </g>
    <g id="xtick_6">
     <g id="line2d_6">
      <path d="M 125.254844 124.579063 
L 46.850844 202.983062 
" clip-path="url(#p3ea06b7f28)" style="fill: none; stroke: #b0b0b0; stroke-width: 0.8; stroke-linecap: square"/>
     </g>
    </g>
    <g id="xtick_7">
     <g id="line2d_7">
      <path d="M 125.254844 124.579063 
L 14.374844 124.579063 
" clip-path="url(#p3ea06b7f28)" style="fill: none; stroke: #b0b0b0; stroke-width: 0.8; stroke-linecap: square"/>
     </g>
     <g id="text_4">
      <!-- W -->
      <g transform="translate(0.36 127.338438) scale(0.1 -0.1)">
       <defs>
        <path id="DejaVuSans-Bold-57" d="M 191 4666 
L 1344 4666 
L 2150 1275 
L 2950 4666 
L 4109 4666 
L 4909 1275 
L 5716 4666 
L 6859 4666 
L 5759 0 
L 4372 0 
L 3525 3547 
L 2688 0 
L 1300 0 
L 191 4666 
z
" transform="scale(0.015625)"/>
       </defs>
       <use xlink:href="#DejaVuSans-Bold-57"/>
      </g>
     </g>
    </g>
    <g id="xtick_8">
     <g id="line2d_8">
      <path d="M 125.254844 124.579063 
L 46.850844 46.175063 
" clip-path="url(#p3ea06b7f28)" style="fill: none; stroke: #b0b0b0; stroke-width: 0.8; stroke-linecap: square"/>
     </g>
    </g>
   </g>
   <g id="matplotlib.axis_2"/>
   <g id="patch_3">
    <path d="M 125.254844 124.579063 
C 125.254844 124.579063 125.254844 124.579063 125.254844 124.579063 
C 125.254844 124.579063 125.254844 124.579063 125.254844 124.579063 
L 125.254844 124.579063 
C 125.254844 124.579063 125.254844 124.579063 125.254844 124.579063 
C 125.254844 124.579063 125.254844 124.579063 125.254844 124.579063 
z
" clip-path="url(#p3ea06b7f28)" style="fill: #d9d9d9"/>
   </g>
   <g id="patch_4">
    <path d="M 125.254844 124.579063 
C 125.254844 124.579063 125.254844 124.579063 125.254844 124.579063 
C 125.254844 124.579063 125.254844 124.579063 125.254844 124.579063 
L 125.254844 124.579063 
C 125.254844 124.579063 125.254844 124.579063 125.254844 124.579063 
C 125.254844 124.579063 125.254844 124.579063 125.254844 124.579063 
z
" clip-path="url(#p3ea06b7f28)" style="fill: #d9d9d9"/>
   </g>
   <g id="patch_5">
    <path d="M 125.254844 124.579063 
C 125.254844 124.579063 125.254844 124.579063 125.254844 124.579063 
C 125.254844 124.579063 125.254844 124.579063 125.254844 124.579063 
L 125.254844 124.579063 
C 125.254844 124.579063 125.254844 124.579063 125.254844 124.579063 
C 125.254844 124.579063 125.254844 124.579063 125.254844 124.579063 
z
" clip-path="url(#p3ea06b7f28)" style="fill: #d9d9d9"/>
   </g>
   <g id="patch_6">
    <path d="M 125.254844 124.579063 
C 125.254844 124.579063 125.254844 124.579063 125.254844 124.579063 
C 125.254844 124.579063 125.254844 124.579063 125.254844 124.579063 
L 125.254844 124.579063 
C 125.254844 124.579063 125.254844 124.579063 125.254844 124.579063 
C 125.254844 124.579063 125.254844 124.579063 125.254844 124.579063 
z
" clip-path="url(#p3ea06b7f28)" style="fill: #d9d9d9"/>
   </g>
   <g id="patch_7">
    <path d="M 125.254844 124.579063 
C 125.254844 124.579063 125.254844 124.579063 125.254844 124.579063 
C 125.254844 124.579063 125.254844 124.579063 125.254844 124.579063 
L 125.254844 124.579063 
C 125.254844 124.579063 125.254844 124.579063 125.254844 124.579063 
C 125.254844 124.579063 125.254844 124.579063 125.254844 124.579063 
z
" clip-path="url(#p3ea06b7f28)" style="fill: #d9d9d9"/>
   </g>
   <g id="patch_8">
    <path d="M 125.254844 124.579063 
C 125.254844 124.579063 125.254844 124.579063 125.254844 124.579063 
C 125.254844 124.579063 125.254844 124.579063 125.254844 124.579063 
L 125.254844 124.579063 
C 125.254844 124.579063 125.254844 124.579063 125.254844 124.579063 
C 125.254844 124.579063 125.254844 124.579063 125.254844 124.579063 
z
" clip-path="url(#p3ea06b7f28)" style="fill: #d9d9d9"/>
   </g>
   <g id="patch_9">
    <path d="M 125.254844 124.579063 
C 125.254844 124.579063 125.254844 124.579063 125.254844 124.579063 
C 125.254844 124.579063 125.254844 124.579063 125.254844 124.579063 
L 125.254844 124.579063 
C 125.254844 124.579063 125.254844 124.579063 125.254844 124.579063 
C 125.254844 124.579063 125.254844 124.579063 125.254844 124.579063 
z
" clip-path="url(#p3ea06b7f28)" style="fill: #d9d9d9"/>
   </g>
   <g id="patch_10">
    <path d="M 125.254844 124.579063 
C 125.254844 124.579063 125.254844 124.579063 125.254844 124.579063 
C 125.254844 124.579063 125.254844 124.579063 125.254844 124.579063 
L 125.254844 124.579063 
C 125.254844 124.579063 125.254844 124.579063 125.254844 124.579063 
C 125.254844 124.579063 125.254844 124.579063 125.254844 124.579063 
z
" clip-path="url(#p3ea06b7f28)" style="fill: #d9d9d9"/>
   </g>
   <g id="patch_11">
    <path d="M 125.254844 124.579063 
C 125.254844 124.579063 125.254844 124.579063 125.254844 124.579063 
C 125.254844 124.579063 125.254844 124.579063 125.254844 124.579063 
L 125.254844 124.579063 
C 125.254844 124.579063 125.254844 124.579063 125.254844 124.579063 
C 125.254844 124.579063 125.254844 124.579063 125.254844 124.579063 
z
" clip-path="url(#p3ea06b7f28)" style="fill: #d9d9d9"/>
   </g>
   <g id="patch_12">
    <path d="M 125.254844 124.579063 
C 125.254844 124.579063 125.254844 124.579063 125.254844 124.579063 
C 125.254844 124.579063 125.254844 124.579063 125.254844 124.579063 
L 125.254844 124.579063 
C 125.254844 124.579063 125.254844 124.579063 125.254844 124.579063 
C 125.254844 124.579063 125.254844 124.579063 125.254844 124.579063 
z
" clip-path="url(#p3ea06b7f28)" style="fill: #d9d9d9"/>
   </g>
   <g id="patch_13">
    <path d="M 125.254844 124.579063 
C 125.254844 124.579063 125.254844 124.579063 125.254844 124.579063 
C 125.254844 124.579063 125.254844 124.579063 125.254844 124.579063 
L 125.254844 124.579063 
C 125.254844 124.579063 125.254844 124.579063 125.254844 124.579063 
C 125.254844 124.579063 125.254844 124.579063 125.254844 124.579063 
z
" clip-path="url(#p3ea06b7f28)" style="fill: #d9d9d9"/>
   </g>
   <g id="patch_14">
    <path d="M 125.254844 124.579063 
C 125.254844 124.579063 125.254844 124.579063 125.254844 124.579063 
C 125.254844 124.579063 125.254844 124.579063 125.254844 124.579063 
L 125.254844 124.579063 
C 125.254844 124.579063 125.254844 124.579063 125.254844 124.579063 
C 125.254844 124.579063 125.254844 124.579063 125.254844 124.579063 
z
" clip-path="url(#p3ea06b7f28)" style="fill: #d9d9d9"/>
   </g>
   <g id="patch_15">
    <path d="M 125.254844 124.579063 
C 125.254844 124.579063 125.254844 124.579063 125.254844 124.579063 
C 125.254844 124.579063 125.254844 124.579063 125.254844 124.579063 
L 125.254844 124.579063 
C 125.254844 124.579063 125.254844 124.579063 125.254844 124.579063 
C 125.254844 124.579063 125.254844 124.579063 125.254844 124.579063 
z
" clip-path="url(#p3ea06b7f28)" style="fill: #d9d9d9"/>
   </g>
   <g id="patch_16">
    <path d="M 125.254844 124.579063 
C 125.254844 124.579063 125.254844 124.579063 125.254844 124.579063 
C 125.254844 124.579063 125.254844 124.579063 125.254844 124.579063 
L 125.254844 124.579063 
C 125.254844 124.579063 125.254844 124.579063 125.254844 124.579063 
C 125.254844 124.579063 125.254844 124.579063 125.254844 124.579063 
z
" clip-path="url(#p3ea06b7f28)" style="fill: #d9d9d9"/>
   </g>
   <g id="patch_17">
    <path d="M 125.254844 124.579063 
C 125.254844 124.579063 125.254844 124.579063 125.254844 124.579063 
C 125.254844 124.579063 125.254844 124.579063 125.254844 124.579063 
L 125.254844 124.579063 
C 125.254844 124.579063 125.254844 124.579063 125.254844 124.579063 
C 125.254844 124.579063 125.254844 124.579063 125.254844 124.579063 
z
" clip-path="url(#p3ea06b7f28)" style="fill: #d9d9d9"/>
   </g>
   <g id="patch_18">
    <path d="M 125.254844 124.579063 
C 125.254844 124.579063 125.254844 124.579063 125.254844 124.579063 
C 125.254844 124.579063 125.254844 124.579063 125.254844 124.579063 
L 125.254844 124.579063 
C 125.254844 124.579063 125.254844 124.579063 125.254844 124.579063 
C 125.254844 124.579063 125.254844 124.579063 125.254844 124.579063 
z
" clip-path="url(#p3ea06b7f28)" style="fill: #d9d9d9"/>
   </g>
   <g id="patch_19">
    <path d="M 125.254844 124.579063 
C 125.254844 124.579063 125.254844 124.579063 125.254844 124.579063 
C 125.254844 124.579063 125.254844 124.579063 125.254844 124.579063 
L 125.254844 124.579063 
C 125.254844 124.579063 125.254844 124.579063 125.254844 124.579063 
C 125.254844 124.579063 125.254844 124.579063 125.254844 124.579063 
z
" clip-path="url(#p3ea06b7f28)" style="fill: #d9d9d9"/>
   </g>
   <g id="patch_20">
    <path d="M 125.254844 124.579063 
C 125.254844 124.579063 125.254844 124.579063 125.254844 124.579063 
C 125.254844 124.579063 125.254844 124.579063 125.254844 124.579063 
L 125.254844 124.579063 
C 125.254844 124.579063 125.254844 124.579063 125.254844 124.579063 
C 125.254844 124.579063 125.254844 124.579063 125.254844 124.579063 
z
" clip-path="url(#p3ea06b7f28)" style="fill: #d9d9d9"/>
   </g>
   <g id="patch_21">
    <path d="M 125.254844 124.579063 
C 125.254844 124.579063 125.254844 124.579063 125.254844 124.579063 
C 125.254844 124.579063 125.254844 124.579063 125.254844 124.579063 
L 125.254844 124.579063 
C 125.254844 124.579063 125.254844 124.579063 125.254844 124.579063 
C 125.254844 124.579063 125.254844 124.579063 125.254844 124.579063 
z
" clip-path="url(#p3ea06b7f28)" style="fill: #d9d9d9"/>
   </g>
   <g id="patch_22">
    <path d="M 125.254844 124.579063 
C 125.254844 124.579063 125.254844 124.579063 125.254844 124.579063 
C 125.254844 124.579063 125.254844 124.579063 125.254844 124.579063 
L 125.254844 124.579063 
C 125.254844 124.579063 125.254844 124.579063 125.254844 124.579063 
C 125.254844 124.579063 125.254844 124.579063 125.254844 124.579063 
z
" clip-path="url(#p3ea06b7f28)" style="fill: #d9d9d9"/>
   </g>
   <g id="patch_23">
    <path d="M 125.254844 124.579063 
C 125.254844 124.579063 125.254844 124.579063 125.254844 124.579063 
C 125.254844 124.579063 125.254844 124.579063 125.254844 124.579063 
L 125.254844 124.579063 
C 125.254844 124.579063 125.254844 124.579063 125.254844 124.579063 
C 125.254844 124.579063 125.254844 124.579063 125.254844 124.579063 
z
" clip-path="url(#p3ea06b7f28)" style="fill: #d9d9d9"/>
   </g>
   <g id="patch_24">
    <path d="M 125.254844 124.579063 
C 125.254844 124.579063 125.254844 124.579063 125.254844 124.579063 
C 125.254844 124.579063 125.254844 124.579063 125.254844 124.579063 
L 125.254844 124.579063 
C 125.254844 124.579063 125.254844 124.579063 125.254844 124.579063 
C 125.254844 124.579063 125.254844 124.579063 125.254844 124.579063 
z
" clip-path="url(#p3ea06b7f28)" style="fill: #d9d9d9"/>
   </g>
   <g id="patch_25">
    <path d="M 125.254844 124.579063 
C 125.254844 124.579063 125.254844 124.579063 125.254844 124.579063 
C 125.254844 124.579063 125.254844 124.579063 125.254844 124.579063 
L 125.254844 124.579063 
C 125.254844 124.579063 125.254844 124.579063 125.254844 124.579063 
C 125.254844 124.579063 125.254844 124.579063 125.254844 124.579063 
z
" clip-path="url(#p3ea06b7f28)" style="fill: #d9d9d9"/>
   </g>
   <g id="patch_26">
    <path d="M 125.254844 124.579063 
C 125.254844 124.579063 125.254844 124.579063 125.254844 124.579063 
C 125.254844 124.579063 125.254844 124.579063 125.254844 124.579063 
L 125.254844 124.579063 
C 125.254844 124.579063 125.254844 124.579063 125.254844 124.579063 
C 125.254844 124.579063 125.254844 124.579063 125.254844 124.579063 
z
" clip-path="url(#p3ea06b7f28)" style="fill: #d9d9d9"/>
   </g>
   <g id="patch_27">
    <path d="M 125.254844 124.579063 
C 125.254844 124.579063 125.254844 124.579063 125.254844 124.579063 
C 125.254844 124.579063 125.254844 124.579063 125.254844 124.579063 
L 125.254844 124.579063 
C 125.254844 124.579063 125.254844 124.579063 125.254844 124.579063 
C 125.254844 124.579063 125.254844 124.579063 125.254844 124.579063 
z
" clip-path="url(#p3ea06b7f28)" style="fill: #d9d9d9"/>
   </g>
   <g id="patch_28">
    <path d="M 125.254844 124.579063 
C 125.254844 124.579063 125.254844 124.579063 125.254844 124.579063 
C 125.254844 124.579063 125.254844 124.579063 125.254844 124.579063 
L 125.254844 124.579063 
C 125.254844 124.579063 125.254844 124.579063 125.254844 124.579063 
C 125.254844 124.579063 125.254844 124.579063 125.254844 124.579063 
z
" clip-path="url(#p3ea06b7f28)" style="fill: #d9d9d9"/>
   </g>
   <g id="patch_29">
    <path d="M 125.254844 124.579063 
C 125.254844 124.579063 125.254844 124.579063 125.254844 124.579063 
C 125.254844 124.579063 125.254844 124.579063 125.254844 124.579063 
L 125.254844 124.579063 
C 125.254844 124.579063 125.254844 124.579063 125.254844 124.579063 
C 125.254844 124.579063 125.254844 124.579063 125.254844 124.579063 
z
" clip-path="url(#p3ea06b7f28)" style="fill: #d9d9d9"/>
   </g>
   <g id="patch_30">
    <path d="M 125.254844 124.579063 
C 125.254844 124.579063 125.254844 124.579063 125.254844 124.579063 
C 125.254844 124.579063 125.254844 124.579063 125.254844 124.579063 
L 125.254844 124.579063 
C 125.254844 124.579063 125.254844 124.579063 125.254844 124.579063 
C 125.254844 124.579063 125.254844 124.579063 125.254844 124.579063 
z
" clip-path="url(#p3ea06b7f28)" style="fill: #d9d9d9"/>
   </g>
   <g id="patch_31">
    <path d="M 125.254844 124.579063 
C 125.254844 124.579063 125.254844 124.579063 125.254844 124.579063 
C 125.254844 124.579063 125.254844 124.579063 125.254844 124.579063 
L 125.254844 124.579063 
C 125.254844 124.579063 125.254844 124.579063 125.254844 124.579063 
C 125.254844 124.579063 125.254844 124.579063 125.254844 124.579063 
z
" clip-path="url(#p3ea06b7f28)" style="fill: #d9d9d9"/>
   </g>
   <g id="patch_32">
    <path d="M 125.254844 124.579063 
C 125.254844 124.579063 125.254844 124.579063 125.254844 124.579063 
C 125.254844 124.579063 125.254844 124.579063 125.254844 124.579063 
L 125.254844 124.579063 
C 125.254844 124.579063 125.254844 124.579063 125.254844 124.579063 
C 125.254844 124.579063 125.254844 124.579063 125.254844 124.579063 
z
" clip-path="url(#p3ea06b7f28)" style="fill: #d9d9d9"/>
   </g>
   <g id="patch_33">
    <path d="M 125.254844 124.579063 
C 125.254844 124.579063 125.254844 124.579063 125.254844 124.579063 
C 125.254844 124.579063 125.254844 124.579063 125.254844 124.579063 
L 125.254844 124.579063 
C 125.254844 124.579063 125.254844 124.579063 125.254844 124.579063 
C 125.254844 124.579063 125.254844 124.579063 125.254844 124.579063 
z
" clip-path="url(#p3ea06b7f28)" style="fill: #d9d9d9"/>
   </g>
   <g id="patch_34">
    <path d="M 125.254844 124.579063 
C 125.254844 124.579063 125.254844 124.579063 125.254844 124.579063 
C 125.254844 124.579063 125.254844 124.579063 125.254844 124.579063 
L 125.254844 124.579063 
C 125.254844 124.579063 125.254844 124.579063 125.254844 124.579063 
C 125.254844 124.579063 125.254844 124.579063 125.254844 124.579063 
z
" clip-path="url(#p3ea06b7f28)" style="fill: #d9d9d9"/>
   </g>
   <g id="patch_35">
    <path d="M 125.254844 124.579063 
C 125.254844 124.579063 125.254844 124.579063 125.254844 124.579063 
C 125.254844 124.579063 125.254844 124.579063 125.254844 124.579063 
L 129.278722 83.723944 
C 127.941473 83.592236 126.598563 83.526263 125.254844 83.526263 
C 123.911124 83.526263 122.568215 83.592236 121.230966 83.723944 
z
" clip-path="url(#p3ea06b7f28)" style="fill: #a1a1d8"/>
   </g>
   <g id="patch_36">
    <path d="M 125.254844 124.579063 
C 125.254844 124.579063 125.254844 124.579063 125.254844 124.579063 
C 125.254844 124.579063 125.254844 124.579063 125.254844 124.579063 
L 132.250527 101.517387 
C 131.495684 101.288408 130.730053 101.096627 129.956401 100.942738 
C 129.182749 100.788849 128.402007 100.673037 127.616997 100.59572 
z
" clip-path="url(#p3ea06b7f28)" style="fill: #a1a1d8"/>
   </g>
   <g id="patch_37">
    <path d="M 125.254844 124.579063 
C 125.254844 124.579063 125.254844 124.579063 125.254844 124.579063 
C 125.254844 124.579063 125.254844 124.579063 125.254844 124.579063 
L 139.86242 97.250209 
C 138.967906 96.772081 138.050456 96.33816 137.113385 95.950012 
C 136.176313 95.561864 135.220749 95.219958 134.250145 94.925528 
z
" clip-path="url(#p3ea06b7f28)" style="fill: #a1a1d8"/>
   </g>
   <g id="patch_38">
    <path d="M 125.254844 124.579063 
C 125.254844 124.579063 125.254844 124.579063 125.254844 124.579063 
C 125.254844 124.579063 125.254844 124.579063 125.254844 124.579063 
L 157.863009 84.845898 
C 156.562484 83.778584 155.210339 82.775765 153.811461 81.841065 
C 152.412582 80.906364 150.968656 80.040908 149.484897 79.247822 
z
" clip-path="url(#p3ea06b7f28)" style="fill: #a1a1d8"/>
   </g>
   <g id="patch_39">
    <path d="M 125.254844 124.579063 
C 125.254844 124.579063 125.254844 124.579063 125.254844 124.579063 
C 125.254844 124.579063 125.254844 124.579063 125.254844 124.579063 
L 165.625904 91.447389 
C 164.541455 90.125984 163.392782 88.858619 162.184035 87.649871 
C 160.975287 86.441124 159.707922 85.292451 158.386517 84.208002 
z
" clip-path="url(#p3ea06b7f28)" style="fill: #a1a1d8"/>
   </g>
   <g id="patch_40">
    <path d="M 125.254844 124.579063 
C 125.254844 124.579063 125.254844 124.579063 125.254844 124.579063 
C 125.254844 124.579063 125.254844 124.579063 125.254844 124.579063 
L 173.660804 98.705538 
C 172.813925 97.121139 171.889766 95.579274 170.891667 94.085512 
C 169.893567 92.591751 168.82273 91.147894 167.683022 89.759156 
z
" clip-path="url(#p3ea06b7f28)" style="fill: #a1a1d8"/>
   </g>
   <g id="patch_41">
    <path d="M 125.254844 124.579063 
C 125.254844 124.579063 125.254844 124.579063 125.254844 124.579063 
C 125.254844 124.579063 125.254844 124.579063 125.254844 124.579063 
L 156.904301 114.978305 
C 156.590054 113.942371 156.225134 112.92249 155.810861 111.922346 
C 155.396588 110.922202 154.93346 109.943 154.42315 108.988278 
z
" clip-path="url(#p3ea06b7f28)" style="fill: #a1a1d8"/>
   </g>
   <g id="patch_42">
    <path d="M 125.254844 124.579063 
C 125.254844 124.579063 125.254844 124.579063 125.254844 124.579063 
C 125.254844 124.579063 125.254844 124.579063 125.254844 124.579063 
L 176.871443 119.495271 
C 176.705043 117.805783 176.455794 116.125483 176.124596 114.46044 
C 175.793399 112.795397 175.380652 111.147618 174.887846 109.523056 
z
" clip-path="url(#p3ea06b7f28)" style="fill: #a1a1d8"/>
   </g>
   <g id="patch_43">
    <path d="M 125.254844 124.579063 
C 125.254844 124.579063 125.254844 124.579063 125.254844 124.579063 
C 125.254844 124.579063 125.254844 124.579063 125.254844 124.579063 
L 188.080047 130.766805 
C 188.282581 128.710442 188.384031 126.645375 188.384031 124.579063 
C 188.384031 122.51275 188.282581 120.447683 188.080047 118.39132 
z
" clip-path="url(#p3ea06b7f28)" style="fill: #a1a1d8"/>
   </g>
   <g id="patch_44">
    <path d="M 125.254844 124.579063 
C 125.254844 124.579063 125.254844 124.579063 125.254844 124.579063 
C 125.254844 124.579063 125.254844 124.579063 125.254844 124.579063 
L 174.159371 139.414089 
C 174.644944 137.81337 175.051633 136.189777 175.377969 134.549172 
C 175.704306 132.908567 175.949897 131.252929 176.113854 129.588238 
z
" clip-path="url(#p3ea06b7f28)" style="fill: #a1a1d8"/>
   </g>
   <g id="patch_45">
    <path d="M 125.254844 124.579063 
C 125.254844 124.579063 125.254844 124.579063 125.254844 124.579063 
C 125.254844 124.579063 125.254844 124.579063 125.254844 124.579063 
L 171.07255 149.069137 
C 171.874147 147.569455 172.60163 146.03132 173.252372 144.46029 
C 173.903114 142.889259 174.476331 141.287225 174.969952 139.659976 
z
" clip-path="url(#p3ea06b7f28)" style="fill: #a1a1d8"/>
   </g>
   <g id="patch_46">
    <path d="M 125.254844 124.579063 
C 125.254844 124.579063 125.254844 124.579063 125.254844 124.579063 
C 125.254844 124.579063 125.254844 124.579063 125.254844 124.579063 
L 169.223228 160.662983 
C 170.404309 159.223832 171.514019 157.727561 172.548351 156.179574 
C 173.582683 154.631587 174.54039 153.03375 175.418012 151.391834 
z
" clip-path="url(#p3ea06b7f28)" style="fill: #a1a1d8"/>
   </g>
   <g id="patch_47">
    <path d="M 125.254844 124.579063 
C 125.254844 124.579063 125.254844 124.579063 125.254844 124.579063 
C 125.254844 124.579063 125.254844 124.579063 125.254844 124.579063 
L 162.386595 169.824232 
C 163.867537 168.608855 165.287915 167.321499 166.642598 165.966816 
C 167.997281 164.612134 169.284636 163.191756 170.500014 161.710814 
z
" clip-path="url(#p3ea06b7f28)" style="fill: #a1a1d8"/>
   </g>
   <g id="patch_48">
    <path d="M 125.254844 124.579063 
C 125.254844 124.579063 125.254844 124.579063 125.254844 124.579063 
C 125.254844 124.579063 125.254844 124.579063 125.254844 124.579063 
L 144.442647 160.476918 
C 145.617637 159.848872 146.761084 159.163516 147.868858 158.423326 
C 148.976631 157.683136 150.047395 156.889003 151.077283 156.043796 
z
" clip-path="url(#p3ea06b7f28)" style="fill: #a1a1d8"/>
   </g>
   <g id="patch_49">
    <path d="M 125.254844 124.579063 
C 125.254844 124.579063 125.254844 124.579063 125.254844 124.579063 
C 125.254844 124.579063 125.254844 124.579063 125.254844 124.579063 
L 134.216705 154.12236 
C 135.183701 153.829025 136.135713 153.488389 137.069301 153.101685 
C 138.002889 152.71498 138.916928 152.282671 139.808117 151.806321 
z
" clip-path="url(#p3ea06b7f28)" style="fill: #a1a1d8"/>
   </g>
   <g id="patch_50">
    <path d="M 125.254844 124.579063 
C 125.254844 124.579063 125.254844 124.579063 125.254844 124.579063 
C 125.254844 124.579063 125.254844 124.579063 125.254844 124.579063 
L 128.825741 160.834993 
C 130.012452 160.718112 131.192709 160.543037 132.362249 160.310401 
C 133.531789 160.077765 134.689202 159.787848 135.830308 159.441697 
z
" clip-path="url(#p3ea06b7f28)" style="fill: #a1a1d8"/>
   </g>
   <g id="patch_51">
    <path d="M 125.254844 124.579063 
C 125.254844 124.579063 125.254844 124.579063 125.254844 124.579063 
C 125.254844 124.579063 125.254844 124.579063 125.254844 124.579063 
L 121.465358 163.054352 
C 122.724712 163.178388 123.989397 163.240518 125.254844 163.240518 
C 126.520291 163.240518 127.784975 163.178388 129.044329 163.054352 
z
" clip-path="url(#p3ea06b7f28)" style="fill: #a1a1d8"/>
   </g>
   <g id="patch_52">
    <path d="M 125.254844 124.579063 
C 125.254844 124.579063 125.254844 124.579063 125.254844 124.579063 
C 125.254844 124.579063 125.254844 124.579063 125.254844 124.579063 
L 119.547274 143.394397 
C 120.163128 143.581214 120.787783 143.737682 121.418983 143.863236 
C 122.050183 143.988789 122.687167 144.083277 123.327633 144.146357 
z
" clip-path="url(#p3ea06b7f28)" style="fill: #a1a1d8"/>
   </g>
   <g id="patch_53">
    <path d="M 125.254844 124.579063 
C 125.254844 124.579063 125.254844 124.579063 125.254844 124.579063 
C 125.254844 124.579063 125.254844 124.579063 125.254844 124.579063 
L 109.487316 154.078032 
C 110.452861 154.594127 111.443164 155.062505 112.454646 155.481474 
C 113.466128 155.900444 114.49757 156.2695 115.545248 156.58731 
z
" clip-path="url(#p3ea06b7f28)" style="fill: #a1a1d8"/>
   </g>
   <g id="patch_54">
    <path d="M 125.254844 124.579063 
C 125.254844 124.579063 125.254844 124.579063 125.254844 124.579063 
C 125.254844 124.579063 125.254844 124.579063 125.254844 124.579063 
L 110.08405 143.064728 
C 110.689114 143.56129 111.318192 144.027847 111.969014 144.462712 
C 112.619835 144.897577 113.291615 145.300226 113.981927 145.669206 
z
" clip-path="url(#p3ea06b7f28)" style="fill: #a1a1d8"/>
   </g>
   <g id="patch_55">
    <path d="M 125.254844 124.579063 
C 125.254844 124.579063 125.254844 124.579063 125.254844 124.579063 
C 125.254844 124.579063 125.254844 124.579063 125.254844 124.579063 
L 109.370958 137.614631 
C 109.797631 138.134534 110.249574 138.633176 110.725152 139.108754 
C 111.200731 139.584333 111.699372 140.036275 112.219275 140.462948 
z
" clip-path="url(#p3ea06b7f28)" style="fill: #a1a1d8"/>
   </g>
   <g id="patch_56">
    <path d="M 125.254844 124.579063 
C 125.254844 124.579063 125.254844 124.579063 125.254844 124.579063 
C 125.254844 124.579063 125.254844 124.579063 125.254844 124.579063 
L 102.520552 136.730795 
C 102.918296 137.474922 103.352335 138.199073 103.821101 138.900631 
C 104.289868 139.60219 104.792796 140.28031 105.32807 140.932543 
z
" clip-path="url(#p3ea06b7f28)" style="fill: #a1a1d8"/>
   </g>
   <g id="patch_57">
    <path d="M 125.254844 124.579063 
C 125.254844 124.579063 125.254844 124.579063 125.254844 124.579063 
C 125.254844 124.579063 125.254844 124.579063 125.254844 124.579063 
L 101.565049 131.765283 
C 101.800264 132.540686 102.073409 133.304072 102.383494 134.052686 
C 102.69358 134.801299 103.040234 135.534237 103.422204 136.248852 
z
" clip-path="url(#p3ea06b7f28)" style="fill: #a1a1d8"/>
   </g>
   <g id="patch_58">
    <path d="M 125.254844 124.579063 
C 125.254844 124.579063 125.254844 124.579063 125.254844 124.579063 
C 125.254844 124.579063 125.254844 124.579063 125.254844 124.579063 
L 104.043362 126.668211 
C 104.111743 127.362495 104.21417 128.053002 104.350274 128.73724 
C 104.486377 129.421478 104.655993 130.098621 104.858508 130.766223 
z
" clip-path="url(#p3ea06b7f28)" style="fill: #a1a1d8"/>
   </g>
   <g id="patch_59">
    <path d="M 125.254844 124.579063 
C 125.254844 124.579063 125.254844 124.579063 125.254844 124.579063 
C 125.254844 124.579063 125.254844 124.579063 125.254844 124.579063 
L 95.821361 121.680117 
C 95.726474 122.643519 95.678945 123.610999 95.678945 124.579062 
C 95.678945 125.547126 95.726474 126.514606 95.821361 127.478008 
z
" clip-path="url(#p3ea06b7f28)" style="fill: #a1a1d8"/>
   </g>
   <g id="patch_60">
    <path d="M 125.254844 124.579063 
C 125.254844 124.579063 125.254844 124.579063 125.254844 124.579063 
C 125.254844 124.579063 125.254844 124.579063 125.254844 124.579063 
L 107.282089 119.127087 
C 107.103637 119.715362 106.954176 120.312044 106.834245 120.914978 
C 106.714314 121.517911 106.624058 122.12637 106.563802 122.738156 
z
" clip-path="url(#p3ea06b7f28)" style="fill: #a1a1d8"/>
   </g>
   <g id="patch_61">
    <path d="M 125.254844 124.579063 
C 125.254844 124.579063 125.254844 124.579063 125.254844 124.579063 
C 125.254844 124.579063 125.254844 124.579063 125.254844 124.579063 
L 91.815033 106.705112 
C 91.229992 107.799646 90.699043 108.922246 90.224102 110.068854 
C 89.749161 111.215463 89.330802 112.384698 88.970535 113.572338 
z
" clip-path="url(#p3ea06b7f28)" style="fill: #a1a1d8"/>
   </g>
   <g id="patch_62">
    <path d="M 125.254844 124.579063 
C 125.254844 124.579063 125.254844 124.579063 125.254844 124.579063 
C 125.254844 124.579063 125.254844 124.579063 125.254844 124.579063 
L 108.176024 110.562837 
C 107.717252 111.121853 107.286203 111.703055 106.884433 112.304346 
C 106.482663 112.905637 106.110657 113.526292 105.769759 114.164068 
z
" clip-path="url(#p3ea06b7f28)" style="fill: #a1a1d8"/>
   </g>
   <g id="patch_63">
    <path d="M 125.254844 124.579063 
C 125.254844 124.579063 125.254844 124.579063 125.254844 124.579063 
C 125.254844 124.579063 125.254844 124.579063 125.254844 124.579063 
L 120.104258 118.303055 
C 119.898835 118.471642 119.701812 118.650212 119.513903 118.838122 
C 119.325993 119.026031 119.147423 119.223053 118.978836 119.428476 
z
" clip-path="url(#p3ea06b7f28)" style="fill: #a1a1d8"/>
   </g>
   <g id="patch_64">
    <path d="M 125.254844 124.579063 
C 125.254844 124.579063 125.254844 124.579063 125.254844 124.579063 
C 125.254844 124.579063 125.254844 124.579063 125.254844 124.579063 
L 115.775097 106.843704 
C 115.194593 107.153991 114.629672 107.492591 114.082376 107.858283 
C 113.53508 108.223974 113.006068 108.616316 112.497251 109.033891 
z
" clip-path="url(#p3ea06b7f28)" style="fill: #a1a1d8"/>
   </g>
   <g id="patch_65">
    <path d="M 125.254844 124.579063 
C 125.254844 124.579063 125.254844 124.579063 125.254844 124.579063 
C 125.254844 124.579063 125.254844 124.579063 125.254844 124.579063 
L 118.71385 103.016295 
C 118.008068 103.230391 117.313223 103.479011 116.631826 103.761255 
C 115.950428 104.043499 115.283298 104.359028 114.632846 104.706702 
z
" clip-path="url(#p3ea06b7f28)" style="fill: #a1a1d8"/>
   </g>
   <g id="patch_66">
    <path d="M 125.254844 124.579063 
C 125.254844 124.579063 125.254844 124.579063 125.254844 124.579063 
C 125.254844 124.579063 125.254844 124.579063 125.254844 124.579063 
L 122.80379 99.693099 
C 121.989236 99.773326 121.179111 99.893496 120.376342 100.053177 
C 119.573573 100.212857 118.779128 100.411856 117.995876 100.649452 
z
" clip-path="url(#p3ea06b7f28)" style="fill: #a1a1d8"/>
   </g>
   <g id="patch_67">
    <path d="M 121.230966 83.723944 
C 122.568215 83.592236 123.911124 83.526263 125.254844 83.526263 
C 126.598563 83.526263 127.941473 83.592236 129.278722 83.723944 
L 131.160951 64.61335 
C 129.198184 64.420034 127.227108 64.323202 125.254844 64.323202 
C 123.282579 64.323202 121.311504 64.420034 119.348737 64.61335 
z
" clip-path="url(#p3ea06b7f28)" style="fill: #ff8c8e"/>
   </g>
   <g id="patch_68">
    <path d="M 127.616997 100.59572 
C 128.402007 100.673037 129.182749 100.788849 129.956401 100.942738 
C 130.730053 101.096627 131.495684 101.288408 132.250527 101.517387 
L 136.865573 86.303618 
C 135.61276 85.923582 134.342044 85.605284 133.058014 85.349875 
C 131.773984 85.094465 130.478189 84.902252 129.175307 84.773929 
z
" clip-path="url(#p3ea06b7f28)" style="fill: #ff8c8e"/>
   </g>
   <g id="patch_69">
    <path d="M 134.250145 94.925528 
C 135.220749 95.219958 136.176313 95.561864 137.113385 95.950012 
C 138.050456 96.33816 138.967906 96.772081 139.86242 97.250209 
L 148.045179 81.941345 
C 146.649583 81.195383 145.218203 80.518391 143.75621 79.912814 
C 142.294217 79.307236 140.803373 78.773804 139.289063 78.314443 
z
" clip-path="url(#p3ea06b7f28)" style="fill: #ff8c8e"/>
   </g>
   <g id="patch_70">
    <path d="M 149.484897 79.247822 
C 150.968656 80.040908 152.412582 80.906364 153.811461 81.841065 
C 155.210339 82.775765 156.562484 83.778584 157.863009 84.845898 
L 168.629666 71.726689 
C 166.899729 70.306966 165.10113 68.973035 163.240366 67.729712 
C 161.379601 66.486389 159.458915 65.335174 157.485244 64.280225 
z
" clip-path="url(#p3ea06b7f28)" style="fill: #ff8c8e"/>
   </g>
   <g id="patch_71">
    <path d="M 158.386517 84.208002 
C 159.707922 85.292451 160.975287 86.441124 162.184035 87.649871 
C 163.392782 88.858619 164.541455 90.125984 165.625904 91.447389 
L 181.455495 78.45638 
C 179.945831 76.616849 178.346761 74.852547 176.66406 73.169846 
C 174.98136 71.487146 173.217058 69.888075 171.377526 68.378411 
z
" clip-path="url(#p3ea06b7f28)" style="fill: #ff8c8e"/>
   </g>
   <g id="patch_72">
    <path d="M 167.683022 89.759156 
C 168.82273 91.147894 169.893567 92.591751 170.891667 94.085512 
C 171.889766 95.579274 172.813925 97.121139 173.660804 98.705538 
L 188.206918 90.930478 
C 187.105549 88.869963 185.903679 86.864763 184.605648 84.922123 
C 183.307617 82.979482 181.914991 81.101743 180.432798 79.295686 
z
" clip-path="url(#p3ea06b7f28)" style="fill: #ff8c8e"/>
   </g>
   <g id="patch_73">
    <path d="M 154.42315 108.988278 
C 154.93346 109.943 155.396588 110.922202 155.810861 111.922346 
C 156.225134 112.92249 156.590054 113.942371 156.904301 114.978305 
L 200.851422 101.647091 
C 200.100824 99.172702 199.229193 96.736657 198.239677 94.347755 
C 197.250162 91.958852 196.143954 89.619972 194.925049 87.339562 
z
" clip-path="url(#p3ea06b7f28)" style="fill: #ff8c8e"/>
   </g>
   <g id="patch_74">
    <path d="M 174.887846 109.523056 
C 175.380652 111.147618 175.793399 112.795397 176.124596 114.46044 
C 176.455794 116.125483 176.705043 117.805783 176.871443 119.495271 
L 214.82501 115.757171 
C 214.536257 112.825406 214.103735 109.909585 213.529009 107.020239 
C 212.954282 104.130894 212.238043 101.271508 211.382879 98.452409 
z
" clip-path="url(#p3ea06b7f28)" style="fill: #ff8c8e"/>
   </g>
   <g id="patch_75">
    <path d="M 188.080047 118.39132 
C 188.282581 120.447683 188.384031 122.51275 188.384031 124.579063 
C 188.384031 126.645375 188.282581 128.710442 188.080047 130.766805 
L 213.963977 133.31615 
C 214.249955 130.412567 214.393202 127.496694 214.393202 124.579063 
C 214.393202 121.661431 214.249955 118.745558 213.963977 115.841975 
z
" clip-path="url(#p3ea06b7f28)" style="fill: #ff8c8e"/>
   </g>
   <g id="patch_76">
    <path d="M 176.113854 129.588238 
C 175.949897 131.252929 175.704306 132.908567 175.377969 134.549172 
C 175.051633 136.189777 174.644944 137.81337 174.159371 139.414089 
L 217.41308 152.534958 
C 218.328119 149.518481 219.094505 146.458897 219.70947 143.367256 
C 220.324436 140.275615 220.78724 137.155644 221.09621 134.018613 
z
" clip-path="url(#p3ea06b7f28)" style="fill: #ff8c8e"/>
   </g>
   <g id="patch_77">
    <path d="M 174.969952 139.659976 
C 174.476331 141.287225 173.903114 142.889259 173.252372 144.46029 
C 172.60163 146.03132 171.874147 147.569455 171.07255 149.069137 
L 204.761717 167.076371 
C 206.152717 164.473993 207.415109 161.804888 208.544334 159.078699 
C 209.673558 156.35251 210.668254 153.572521 211.524828 150.748776 
z
" clip-path="url(#p3ea06b7f28)" style="fill: #ff8c8e"/>
   </g>
   <g id="patch_78">
    <path d="M 175.418012 151.391834 
C 174.54039 153.03375 173.582683 154.631587 172.548351 156.179574 
C 171.514019 157.727561 170.404309 159.223832 169.223228 160.662983 
L 183.793544 172.620532 
C 185.366013 170.704473 186.843461 168.712365 188.220551 166.651403 
C 189.597642 164.590442 190.872715 162.463111 192.041165 160.277095 
z
" clip-path="url(#p3ea06b7f28)" style="fill: #ff8c8e"/>
   </g>
   <g id="patch_79">
    <path d="M 170.500014 161.710814 
C 169.284636 163.191756 167.997281 164.612134 166.642598 165.966816 
C 165.287915 167.321499 163.867537 168.608855 162.386595 169.824232 
L 182.989365 194.92878 
C 185.292016 193.039043 187.500498 191.037391 189.606835 188.931054 
C 191.713172 186.824717 193.714824 184.616235 195.604561 182.313583 
z
" clip-path="url(#p3ea06b7f28)" style="fill: #ff8c8e"/>
   </g>
   <g id="patch_80">
    <path d="M 151.077283 156.043796 
C 150.047395 156.889003 148.976631 157.683136 147.868858 158.423326 
C 146.761084 159.163516 145.617637 159.848872 144.442647 160.476918 
L 150.264765 171.369334 
C 151.796281 170.550722 153.286681 169.65741 154.730584 168.692625 
C 156.174487 167.72784 157.570151 166.692745 158.912536 165.591079 
z
" clip-path="url(#p3ea06b7f28)" style="fill: #ff8c8e"/>
   </g>
   <g id="patch_81">
    <path d="M 139.808117 151.806321 
C 138.916928 152.282671 138.002889 152.71498 137.069301 153.101685 
C 136.135713 153.488389 135.183701 153.829025 134.216705 154.12236 
L 144.95037 189.506511 
C 147.075542 188.861847 149.167782 188.113231 151.219533 187.263368 
C 153.271284 186.413505 155.280073 185.463419 157.238643 184.416541 
z
" clip-path="url(#p3ea06b7f28)" style="fill: #ff8c8e"/>
   </g>
   <g id="patch_82">
    <path d="M 135.830308 159.441697 
C 134.689202 159.787848 133.531789 160.077765 132.362249 160.310401 
C 131.192709 160.543037 130.012452 160.718112 128.825741 160.834993 
L 132.022562 193.292864 
C 134.271668 193.071346 136.508542 192.739537 138.725104 192.298635 
C 140.941667 191.857734 143.135247 191.308271 145.29792 190.652231 
z
" clip-path="url(#p3ea06b7f28)" style="fill: #ff8c8e"/>
   </g>
   <g id="patch_83">
    <path d="M 129.044329 163.054352 
C 127.784975 163.178388 126.520291 163.240518 125.254844 163.240518 
C 123.989397 163.240518 122.724712 163.178388 121.465358 163.054352 
L 119.446631 183.550841 
C 121.376865 183.740952 123.31527 183.83618 125.254844 183.83618 
C 127.194418 183.83618 129.132823 183.740952 131.063057 183.550841 
z
" clip-path="url(#p3ea06b7f28)" style="fill: #ff8c8e"/>
   </g>
   <g id="patch_84">
    <path d="M 123.327633 144.146357 
C 122.687167 144.083277 122.050183 143.988789 121.418983 143.863236 
C 120.787783 143.737682 120.163128 143.581214 119.547274 143.394397 
L 115.077232 158.130151 
C 116.175409 158.46328 117.289281 158.74229 118.414822 158.966174 
C 119.540364 159.190058 120.676219 159.358546 121.818285 159.47103 
z
" clip-path="url(#p3ea06b7f28)" style="fill: #ff8c8e"/>
   </g>
   <g id="patch_85">
    <path d="M 115.545248 156.58731 
C 114.49757 156.2695 113.466128 155.900444 112.454646 155.481474 
C 111.443164 155.062505 110.452861 154.594127 109.487316 154.078032 
L 105.933398 160.726946 
C 107.116572 161.359365 108.330083 161.933313 109.569548 162.446717 
C 110.809013 162.96012 112.072937 163.412359 113.356756 163.801801 
z
" clip-path="url(#p3ea06b7f28)" style="fill: #ff8c8e"/>
   </g>
   <g id="patch_86">
    <path d="M 113.981927 145.669206 
C 113.291615 145.300226 112.619835 144.897577 111.969014 144.462712 
C 111.318192 144.027847 110.689114 143.56129 110.08405 143.064728 
L 106.664848 147.231038 
C 107.406281 147.839517 108.177141 148.411226 108.974645 148.944101 
C 109.772149 149.476976 110.595336 149.970375 111.44123 150.422515 
z
" clip-path="url(#p3ea06b7f28)" style="fill: #ff8c8e"/>
   </g>
   <g id="patch_87">
    <path d="M 112.219275 140.462948 
C 111.699372 140.036275 111.200731 139.584333 110.725152 139.108754 
C 110.249574 138.633176 109.797631 138.134534 109.370958 137.614631 
L 103.563137 142.380986 
C 104.145821 143.090988 104.763012 143.771954 105.412483 144.421424 
C 106.061953 145.070894 106.742918 145.688085 107.45292 146.270769 
z
" clip-path="url(#p3ea06b7f28)" style="fill: #ff8c8e"/>
   </g>
   <g id="patch_88">
    <path d="M 105.32807 140.932543 
C 104.792796 140.28031 104.289868 139.60219 103.821101 138.900631 
C 103.352335 138.199073 102.918296 137.474922 102.520552 136.730795 
L 96.710788 139.836178 
C 97.210176 140.770468 97.755134 141.679676 98.343694 142.560518 
C 98.932254 143.44136 99.563706 144.292775 100.235769 145.111686 
z
" clip-path="url(#p3ea06b7f28)" style="fill: #ff8c8e"/>
   </g>
   <g id="patch_89">
    <path d="M 103.422204 136.248852 
C 103.040234 135.534237 102.69358 134.801299 102.383494 134.052686 
C 102.073409 133.304072 101.800264 132.540686 101.565049 131.765283 
L 94.256412 133.982334 
C 94.564195 134.996959 94.921608 135.995861 95.32736 136.975432 
C 95.733111 137.955004 96.186713 138.914063 96.686525 139.849147 
z
" clip-path="url(#p3ea06b7f28)" style="fill: #ff8c8e"/>
   </g>
   <g id="patch_90">
    <path d="M 104.858508 130.766223 
C 104.655993 130.098621 104.486377 129.421478 104.350274 128.73724 
C 104.21417 128.053002 104.111743 127.362495 104.043362 126.668211 
L 95.941498 127.466175 
C 96.035997 128.425645 96.177547 129.379896 96.365636 130.325483 
C 96.553725 131.27107 96.788126 132.206852 97.067993 133.12945 
z
" clip-path="url(#p3ea06b7f28)" style="fill: #ff8c8e"/>
   </g>
   <g id="patch_91">
    <path d="M 95.821361 127.478008 
C 95.726474 126.514606 95.678945 125.547126 95.678945 124.579062 
C 95.678945 123.610999 95.726474 122.643519 95.821361 121.680117 
L 89.292093 121.037041 
C 89.176158 122.214155 89.118085 123.396252 89.118085 124.579062 
C 89.118085 125.761873 89.176158 126.94397 89.292093 128.121084 
z
" clip-path="url(#p3ea06b7f28)" style="fill: #ff8c8e"/>
   </g>
   <g id="patch_92">
    <path d="M 106.563802 122.738156 
C 106.624058 122.12637 106.714314 121.517911 106.834245 120.914978 
C 106.954176 120.312044 107.103637 119.715362 107.282089 119.127087 
L 101.599507 117.403295 
C 101.364634 118.177569 101.167917 118.962909 101.010066 119.756476 
C 100.852216 120.550044 100.733422 121.350884 100.654115 122.156102 
z
" clip-path="url(#p3ea06b7f28)" style="fill: #ff8c8e"/>
   </g>
   <g id="patch_93">
    <path d="M 88.970535 113.572338 
C 89.330802 112.384698 89.749161 111.215463 90.224102 110.068854 
C 90.699043 108.922246 91.229992 107.799646 91.815033 106.705112 
L 91.199147 106.375913 
C 90.603331 107.490607 90.062602 108.633882 89.578914 109.801609 
C 89.095226 110.969335 88.669162 112.160105 88.30226 113.369619 
z
" clip-path="url(#p3ea06b7f28)" style="fill: #ff8c8e"/>
   </g>
   <g id="patch_94">
    <path d="M 105.769759 114.164068 
C 106.110657 113.526292 106.482663 112.905637 106.884433 112.304346 
C 107.286203 111.703055 107.717252 111.121853 108.176024 110.562837 
L 103.029854 106.339485 
C 102.432846 107.066942 101.871913 107.823272 101.349082 108.605743 
C 100.826252 109.388215 100.342153 110.195884 99.898536 111.025834 
z
" clip-path="url(#p3ea06b7f28)" style="fill: #ff8c8e"/>
   </g>
   <g id="patch_95">
    <path d="M 118.978836 119.428476 
C 119.147423 119.223053 119.325993 119.026031 119.513903 118.838122 
C 119.701812 118.650212 119.898835 118.471642 120.104258 118.303055 
L 114.182136 111.086929 
C 113.740518 111.449355 113.316961 111.833245 112.912994 112.237212 
C 112.509027 112.64118 112.125137 113.064737 111.76271 113.506355 
z
" clip-path="url(#p3ea06b7f28)" style="fill: #ff8c8e"/>
   </g>
   <g id="patch_96">
    <path d="M 112.497251 109.033891 
C 113.006068 108.616316 113.53508 108.223974 114.082376 107.858283 
C 114.629672 107.492591 115.194593 107.153991 115.775097 106.843704 
L 111.952213 99.69159 
C 111.137608 100.127005 110.344873 100.602152 109.57687 101.115316 
C 108.808866 101.628479 108.06652 102.179041 107.352514 102.765011 
z
" clip-path="url(#p3ea06b7f28)" style="fill: #ff8c8e"/>
   </g>
   <g id="patch_97">
    <path d="M 114.632846 104.706702 
C 115.283298 104.359028 115.950428 104.043499 116.631826 103.761255 
C 117.313223 103.479011 118.008068 103.230391 118.71385 103.016295 
L 115.988267 94.031252 
C 114.988391 94.334561 114.00401 94.686778 113.038679 95.086631 
C 112.073347 95.486485 111.12823 95.933492 110.206739 96.426039 
z
" clip-path="url(#p3ea06b7f28)" style="fill: #ff8c8e"/>
   </g>
   <g id="patch_98">
    <path d="M 117.995876 100.649452 
C 118.779128 100.411856 119.573573 100.212857 120.376342 100.053177 
C 121.179111 99.893496 121.989236 99.773326 122.80379 99.693099 
L 121.033754 81.721618 
C 119.630966 81.85978 118.235806 82.066733 116.853315 82.341727 
C 115.470824 82.616722 114.102668 82.959427 112.753788 83.368605 
z
" clip-path="url(#p3ea06b7f28)" style="fill: #ff8c8e"/>
   </g>
   <g id="patch_99">
    <path d="M 119.348737 64.61335 
C 121.311504 64.420034 123.282579 64.323202 125.254844 64.323202 
C 127.227108 64.323202 129.198184 64.420034 131.160951 64.61335 
L 132.246472 53.591868 
C 129.922955 53.363021 127.589603 53.248391 125.254844 53.248391 
C 122.920084 53.248391 120.586732 53.363021 118.263215 53.591868 
z
" clip-path="url(#p3ea06b7f28)" style="fill: #828282"/>
   </g>
   <g id="patch_100">
    <path d="M 129.175307 84.773929 
C 130.478189 84.902252 131.773984 85.094465 133.058014 85.349875 
C 134.342044 85.605284 135.61276 85.923582 136.865573 86.303618 
L 140.180666 75.37522 
C 138.570151 74.886676 136.93662 74.477497 135.285974 74.149164 
C 133.635328 73.82083 131.969557 73.573736 130.294677 73.408775 
z
" clip-path="url(#p3ea06b7f28)" style="fill: #828282"/>
   </g>
   <g id="patch_101">
    <path d="M 139.289063 78.314443 
C 140.803373 78.773804 142.294217 79.307236 143.75621 79.912814 
C 145.218203 80.518391 146.649583 81.195383 148.045179 81.941345 
L 155.351053 68.273016 
C 153.508072 67.287922 151.617836 66.393907 149.687174 65.5942 
C 147.756511 64.794494 145.787749 64.090059 143.787998 63.483441 
z
" clip-path="url(#p3ea06b7f28)" style="fill: #828282"/>
   </g>
   <g id="patch_102">
    <path d="M 157.485244 64.280225 
C 159.458915 65.335174 161.379601 66.486389 163.240366 67.729712 
C 165.10113 68.973035 166.899729 70.306966 168.629666 71.726689 
L 172.26288 67.299605 
C 170.388037 65.760962 168.438782 64.315296 166.422154 62.967828 
C 164.405527 61.62036 162.323958 60.372716 160.184966 59.229401 
z
" clip-path="url(#p3ea06b7f28)" style="fill: #828282"/>
   </g>
   <g id="patch_103">
    <path d="M 171.377526 68.378411 
C 173.217058 69.888075 174.98136 71.487146 176.66406 73.169846 
C 178.346761 74.852547 179.945831 76.616849 181.455495 78.45638 
L 189.93616 71.496478 
C 188.198688 69.379362 186.358318 67.348827 184.421699 65.412208 
C 182.485079 63.475588 180.454544 61.635219 178.337428 59.897746 
z
" clip-path="url(#p3ea06b7f28)" style="fill: #828282"/>
   </g>
   <g id="patch_104">
    <path d="M 180.432798 79.295686 
C 181.914991 81.101743 183.307617 82.979482 184.605648 84.922123 
C 185.903679 86.864763 187.105549 88.869963 188.206918 90.930478 
L 195.242546 87.169856 
C 194.018087 84.879054 192.681893 82.649751 191.238793 80.489997 
C 189.795692 78.330244 188.247423 76.242645 186.599578 74.23474 
z
" clip-path="url(#p3ea06b7f28)" style="fill: #828282"/>
   </g>
   <g id="patch_105">
    <path d="M 194.925049 87.339562 
C 196.143954 89.619972 197.250162 91.958852 198.239677 94.347755 
C 199.229193 96.736657 200.100824 99.172702 200.851422 101.647091 
L 216.075703 97.028856 
C 215.173943 94.056154 214.126776 91.129517 212.937983 88.259517 
C 211.74919 85.389517 210.420204 82.579613 208.955827 79.839955 
z
" clip-path="url(#p3ea06b7f28)" style="fill: #828282"/>
   </g>
   <g id="patch_106">
    <path d="M 211.382879 98.452409 
C 212.238043 101.271508 212.954282 104.130894 213.529009 107.020239 
C 214.103735 109.909585 214.536257 112.825406 214.82501 115.757171 
L 222.748059 114.976819 
C 222.433763 111.78572 221.962983 108.611976 221.337418 105.46705 
C 220.711853 102.322124 219.932259 99.209807 219.00145 96.141341 
z
" clip-path="url(#p3ea06b7f28)" style="fill: #828282"/>
   </g>
   <g id="patch_107">
    <path d="M 213.963977 115.841975 
C 214.249955 118.745558 214.393202 121.661431 214.393202 124.579063 
C 214.393202 127.496694 214.249955 130.412567 213.963977 133.31615 
L 218.917499 133.804029 
C 219.219446 130.73831 219.370693 127.659615 219.370693 124.579063 
C 219.370693 121.49851 219.219446 118.419815 218.917499 115.354096 
z
" clip-path="url(#p3ea06b7f28)" style="fill: #828282"/>
   </g>
   <g id="patch_108">
    <path d="M 221.09621 134.018613 
C 220.78724 137.155644 220.324436 140.275615 219.70947 143.367256 
C 219.094505 146.458897 218.328119 149.518481 217.41308 152.534958 
L 231.360391 156.765828 
C 232.413911 153.292835 233.296283 149.770211 234.004318 146.210678 
C 234.712353 142.651145 235.245198 139.058995 235.600929 135.447203 
z
" clip-path="url(#p3ea06b7f28)" style="fill: #828282"/>
   </g>
   <g id="patch_109">
    <path d="M 211.524828 150.748776 
C 210.668254 153.572521 209.673558 156.35251 208.544334 159.078699 
C 207.415109 161.804888 206.152717 164.473993 204.761717 167.076371 
L 214.79467 172.439097 
C 216.3612 169.508324 217.782893 166.502406 219.054615 163.4322 
C 220.326336 160.361993 221.446552 157.231199 222.411216 154.051126 
z
" clip-path="url(#p3ea06b7f28)" style="fill: #828282"/>
   </g>
   <g id="patch_110">
    <path d="M 192.041165 160.277095 
C 190.872715 162.463111 189.597642 164.590442 188.220551 166.651403 
C 186.843461 168.712365 185.366013 170.704473 183.793544 172.620532 
L 192.184786 179.507046 
C 193.982661 177.31633 195.671894 175.038662 197.246384 172.682272 
C 198.820874 170.325881 200.278722 167.893608 201.614664 165.394237 
z
" clip-path="url(#p3ea06b7f28)" style="fill: #828282"/>
   </g>
   <g id="patch_111">
    <path d="M 195.604561 182.313583 
C 193.714824 184.616235 191.713172 186.824717 189.606835 188.931054 
C 187.500498 191.037391 185.292016 193.039043 182.989365 194.92878 
L 192.201754 206.154109 
C 194.871827 203.962837 197.432706 201.641792 199.875139 199.199358 
C 202.317573 196.756924 204.638618 194.196046 206.82989 191.525973 
z
" clip-path="url(#p3ea06b7f28)" style="fill: #828282"/>
   </g>
   <g id="patch_112">
    <path d="M 158.912536 165.591079 
C 157.570151 166.692745 156.174487 167.72784 154.730584 168.692625 
C 153.286681 169.65741 151.796281 170.550722 150.264765 171.369334 
L 160.808416 191.095118 
C 162.985586 189.931396 165.104308 188.661483 167.156929 187.289965 
C 169.209551 185.918448 171.193598 184.446978 173.101903 182.880873 
z
" clip-path="url(#p3ea06b7f28)" style="fill: #828282"/>
   </g>
   <g id="patch_113">
    <path d="M 157.238643 184.416541 
C 155.280073 185.463419 153.271284 186.413505 151.219533 187.263368 
C 149.167782 188.113231 147.075542 188.861847 144.95037 189.506511 
L 146.494308 194.596194 
C 148.786074 193.900995 151.042325 193.093695 153.254914 192.177211 
C 155.467502 191.260727 157.63376 190.236163 159.745863 189.107221 
z
" clip-path="url(#p3ea06b7f28)" style="fill: #828282"/>
   </g>
   <g id="patch_114">
    <path d="M 145.29792 190.652231 
C 143.135247 191.308271 140.941667 191.857734 138.725104 192.298635 
C 136.508542 192.739537 134.271668 193.071346 132.022562 193.292864 
L 132.324376 196.357226 
C 134.673782 196.12583 137.010412 195.779224 139.325824 195.31866 
C 141.641237 194.858095 143.932642 194.284128 146.191762 193.598832 
z
" clip-path="url(#p3ea06b7f28)" style="fill: #828282"/>
   </g>
   <g id="patch_115">
    <path d="M 131.063057 183.550841 
C 129.132823 183.740952 127.194418 183.83618 125.254844 183.83618 
C 123.31527 183.83618 121.376865 183.740952 119.446631 183.550841 
L 119.305425 184.98452 
C 121.282586 185.179253 123.268116 185.276796 125.254844 185.276796 
C 127.241571 185.276796 129.227101 185.179253 131.204262 184.98452 
z
" clip-path="url(#p3ea06b7f28)" style="fill: #828282"/>
   </g>
   <g id="patch_116">
    <path d="M 121.818285 159.47103 
C 120.676219 159.358546 119.540364 159.190058 118.414822 158.966174 
C 117.289281 158.74229 116.175409 158.46328 115.077232 158.130151 
L 112.886589 165.351734 
C 114.22114 165.756565 115.574762 166.09563 116.942566 166.367703 
C 118.310371 166.639777 119.690709 166.84453 121.078595 166.981225 
z
" clip-path="url(#p3ea06b7f28)" style="fill: #828282"/>
   </g>
   <g id="patch_117">
    <path d="M 113.356756 163.801801 
C 112.072937 163.412359 110.809013 162.96012 109.569548 162.446717 
C 108.330083 161.933313 107.116572 161.359365 105.933398 160.726946 
L 105.749865 161.070311 
C 106.944278 161.708738 108.169316 162.288138 109.420555 162.806417 
C 110.671793 163.324697 111.947724 163.781233 113.243737 164.174374 
z
" clip-path="url(#p3ea06b7f28)" style="fill: #828282"/>
   </g>
   <g id="patch_118">
    <path d="M 111.44123 150.422515 
C 110.595336 149.970375 109.772149 149.476976 108.974645 148.944101 
C 108.177141 148.411226 107.406281 147.839517 106.664848 147.231038 
L 105.687746 148.42164 
C 106.468149 149.0621 107.279527 149.663859 108.118948 150.224742 
C 108.95837 150.785626 109.824823 151.304958 110.715179 151.780863 
z
" clip-path="url(#p3ea06b7f28)" style="fill: #828282"/>
   </g>
   <g id="patch_119">
    <path d="M 107.45292 146.270769 
C 106.742918 145.688085 106.061953 145.070894 105.412483 144.421424 
C 104.763012 143.771954 104.145821 143.090988 103.563137 142.380986 
L 103.005917 142.838284 
C 103.603569 143.566525 104.236615 144.264984 104.902769 144.931137 
C 105.568923 145.597291 106.267381 146.230337 106.995622 146.827989 
z
" clip-path="url(#p3ea06b7f28)" style="fill: #828282"/>
   </g>
   <g id="patch_120">
    <path d="M 100.235769 145.111686 
C 99.563706 144.292775 98.932254 143.44136 98.343694 142.560518 
C 97.755134 141.679676 97.210176 140.770468 96.710788 139.836178 
L 96.710788 139.836178 
C 97.210176 140.770468 97.755134 141.679676 98.343694 142.560518 
C 98.932254 143.44136 99.563706 144.292775 100.235769 145.111686 
z
" clip-path="url(#p3ea06b7f28)" style="fill: #828282"/>
   </g>
   <g id="patch_121">
    <path d="M 96.686525 139.849147 
C 96.186713 138.914063 95.733111 137.955004 95.32736 136.975432 
C 94.921608 135.995861 94.564195 134.996959 94.256412 133.982334 
L 94.256412 133.982334 
C 94.564195 134.996959 94.921608 135.995861 95.32736 136.975432 
C 95.733111 137.955004 96.186713 138.914063 96.686525 139.849147 
z
" clip-path="url(#p3ea06b7f28)" style="fill: #828282"/>
   </g>
   <g id="patch_122">
    <path d="M 97.067993 133.12945 
C 96.788126 132.206852 96.553725 131.27107 96.365636 130.325483 
C 96.177547 129.379896 96.035997 128.425645 95.941498 127.466175 
L 95.941498 127.466175 
C 96.035997 128.425645 96.177547 129.379896 96.365636 130.325483 
C 96.553725 131.27107 96.788126 132.206852 97.067993 133.12945 
z
" clip-path="url(#p3ea06b7f28)" style="fill: #828282"/>
   </g>
   <g id="patch_123">
    <path d="M 89.292093 128.121084 
C 89.176158 126.94397 89.118085 125.761873 89.118085 124.579062 
C 89.118085 123.396252 89.176158 122.214155 89.292093 121.037041 
L 89.292093 121.037041 
C 89.176158 122.214155 89.118085 123.396252 89.118085 124.579062 
C 89.118085 125.761873 89.176158 126.94397 89.292093 128.121084 
z
" clip-path="url(#p3ea06b7f28)" style="fill: #828282"/>
   </g>
   <g id="patch_124">
    <path d="M 100.654115 122.156102 
C 100.733422 121.350884 100.852216 120.550044 101.010066 119.756476 
C 101.167917 118.962909 101.364634 118.177569 101.599507 117.403295 
L 101.599507 117.403295 
C 101.364634 118.177569 101.167917 118.962909 101.010066 119.756476 
C 100.852216 120.550044 100.733422 121.350884 100.654115 122.156102 
z
" clip-path="url(#p3ea06b7f28)" style="fill: #828282"/>
   </g>
   <g id="patch_125">
    <path d="M 88.30226 113.369619 
C 88.669162 112.160105 89.095226 110.969335 89.578914 109.801609 
C 90.062602 108.633882 90.603331 107.490607 91.199147 106.375913 
L 91.199147 106.375913 
C 90.603331 107.490607 90.062602 108.633882 89.578914 109.801609 
C 89.095226 110.969335 88.669162 112.160105 88.30226 113.369619 
z
" clip-path="url(#p3ea06b7f28)" style="fill: #828282"/>
   </g>
   <g id="patch_126">
    <path d="M 99.898536 111.025834 
C 100.342153 110.195884 100.826252 109.388215 101.349082 108.605743 
C 101.871913 107.823272 102.432846 107.066942 103.029854 106.339485 
L 100.751682 104.469837 
C 100.093477 105.271862 99.475046 106.10572 98.898623 106.968399 
C 98.322199 107.831077 97.788478 108.721536 97.299388 109.63656 
z
" clip-path="url(#p3ea06b7f28)" style="fill: #828282"/>
   </g>
   <g id="patch_127">
    <path d="M 111.76271 113.506355 
C 112.125137 113.064737 112.509027 112.64118 112.912994 112.237212 
C 113.316961 111.833245 113.740518 111.449355 114.182136 111.086929 
L 111.060708 107.283458 
C 110.494597 107.748054 109.951638 108.240163 109.433791 108.75801 
C 108.915945 109.275857 108.423835 109.818816 107.95924 110.384927 
z
" clip-path="url(#p3ea06b7f28)" style="fill: #828282"/>
   </g>
   <g id="patch_128">
    <path d="M 107.352514 102.765011 
C 108.06652 102.179041 108.808866 101.628479 109.57687 101.115316 
C 110.344873 100.602152 111.137608 100.127005 111.952213 99.69159 
L 111.952213 99.69159 
C 111.137608 100.127005 110.344873 100.602152 109.57687 101.115316 
C 108.808866 101.628479 108.06652 102.179041 107.352514 102.765011 
z
" clip-path="url(#p3ea06b7f28)" style="fill: #828282"/>
   </g>
   <g id="patch_129">
    <path d="M 110.206739 96.426039 
C 111.12823 95.933492 112.073347 95.486485 113.038679 95.086631 
C 114.00401 94.686778 114.988391 94.334561 115.988267 94.031252 
L 107.36046 65.589183 
C 105.429633 66.174893 103.528726 66.855048 101.664607 67.627192 
C 99.800487 68.399336 97.975401 69.262537 96.195941 70.213678 
z
" clip-path="url(#p3ea06b7f28)" style="fill: #828282"/>
   </g>
   <g id="patch_130">
    <path d="M 112.753788 83.368605 
C 114.102668 82.959427 115.470824 82.616722 116.853315 82.341727 
C 118.235806 82.066733 119.630966 81.85978 121.033754 81.721618 
L 118.150293 52.445349 
C 115.789249 52.677892 113.441045 53.026215 111.114163 53.48906 
C 108.787281 53.951906 106.484526 54.528716 104.214216 55.217407 
z
" clip-path="url(#p3ea06b7f28)" style="fill: #828282"/>
   </g>
   <g id="patch_131">
    <path d="M 125.254844 124.579063 
C 125.254844 124.579063 125.254844 124.579063 125.254844 124.579063 
C 125.254844 124.579063 125.254844 124.579063 125.254844 124.579063 
L 132.246472 53.591868 
C 129.922955 53.363021 127.589603 53.248391 125.254844 53.248391 
C 122.920084 53.248391 120.586732 53.363021 118.263215 53.591868 
L 125.254844 124.579063 
z
" clip-path="url(#p3ea06b7f28)" style="fill: none; stroke: #292929; stroke-width: 0.5; stroke-linejoin: miter"/>
   </g>
   <g id="patch_132">
    <path d="M 125.254844 124.579063 
C 125.254844 124.579063 125.254844 124.579063 125.254844 124.579063 
C 125.254844 124.579063 125.254844 124.579063 125.254844 124.579063 
L 140.180666 75.37522 
C 138.570151 74.886676 136.93662 74.477497 135.285974 74.149164 
C 133.635328 73.82083 131.969557 73.573736 130.294677 73.408775 
L 125.254844 124.579063 
z
" clip-path="url(#p3ea06b7f28)" style="fill: none; stroke: #292929; stroke-width: 0.5; stroke-linejoin: miter"/>
   </g>
   <g id="patch_133">
    <path d="M 125.254844 124.579063 
C 125.254844 124.579063 125.254844 124.579063 125.254844 124.579063 
C 125.254844 124.579063 125.254844 124.579063 125.254844 124.579063 
L 155.351053 68.273016 
C 153.508072 67.287922 151.617836 66.393907 149.687174 65.5942 
C 147.756511 64.794494 145.787749 64.090059 143.787998 63.483441 
L 125.254844 124.579063 
z
" clip-path="url(#p3ea06b7f28)" style="fill: none; stroke: #292929; stroke-width: 0.5; stroke-linejoin: miter"/>
   </g>
   <g id="patch_134">
    <path d="M 125.254844 124.579063 
C 125.254844 124.579063 125.254844 124.579063 125.254844 124.579063 
C 125.254844 124.579063 125.254844 124.579063 125.254844 124.579063 
L 172.26288 67.299605 
C 170.388037 65.760962 168.438782 64.315296 166.422154 62.967828 
C 164.405527 61.62036 162.323958 60.372716 160.184966 59.229401 
L 125.254844 124.579063 
z
" clip-path="url(#p3ea06b7f28)" style="fill: none; stroke: #292929; stroke-width: 0.5; stroke-linejoin: miter"/>
   </g>
   <g id="patch_135">
    <path d="M 125.254844 124.579063 
C 125.254844 124.579063 125.254844 124.579063 125.254844 124.579063 
C 125.254844 124.579063 125.254844 124.579063 125.254844 124.579063 
L 189.93616 71.496478 
C 188.198688 69.379362 186.358318 67.348827 184.421699 65.412208 
C 182.485079 63.475588 180.454544 61.635219 178.337428 59.897746 
L 125.254844 124.579063 
z
" clip-path="url(#p3ea06b7f28)" style="fill: none; stroke: #292929; stroke-width: 0.5; stroke-linejoin: miter"/>
   </g>
   <g id="patch_136">
    <path d="M 125.254844 124.579063 
C 125.254844 124.579063 125.254844 124.579063 125.254844 124.579063 
C 125.254844 124.579063 125.254844 124.579063 125.254844 124.579063 
L 195.242546 87.169856 
C 194.018087 84.879054 192.681893 82.649751 191.238793 80.489997 
C 189.795692 78.330244 188.247423 76.242645 186.599578 74.23474 
L 125.254844 124.579063 
z
" clip-path="url(#p3ea06b7f28)" style="fill: none; stroke: #292929; stroke-width: 0.5; stroke-linejoin: miter"/>
   </g>
   <g id="patch_137">
    <path d="M 125.254844 124.579063 
C 125.254844 124.579063 125.254844 124.579063 125.254844 124.579063 
C 125.254844 124.579063 125.254844 124.579063 125.254844 124.579063 
L 216.075703 97.028856 
C 215.173943 94.056154 214.126776 91.129517 212.937983 88.259517 
C 211.74919 85.389517 210.420204 82.579613 208.955827 79.839955 
L 125.254844 124.579063 
z
" clip-path="url(#p3ea06b7f28)" style="fill: none; stroke: #292929; stroke-width: 0.5; stroke-linejoin: miter"/>
   </g>
   <g id="patch_138">
    <path d="M 125.254844 124.579063 
C 125.254844 124.579063 125.254844 124.579063 125.254844 124.579063 
C 125.254844 124.579063 125.254844 124.579063 125.254844 124.579063 
L 222.748059 114.976819 
C 222.433763 111.78572 221.962983 108.611976 221.337418 105.46705 
C 220.711853 102.322124 219.932259 99.209807 219.00145 96.141341 
L 125.254844 124.579063 
z
" clip-path="url(#p3ea06b7f28)" style="fill: none; stroke: #292929; stroke-width: 0.5; stroke-linejoin: miter"/>
   </g>
   <g id="patch_139">
    <path d="M 125.254844 124.579063 
C 125.254844 124.579063 125.254844 124.579063 125.254844 124.579063 
C 125.254844 124.579063 125.254844 124.579063 125.254844 124.579063 
L 218.917499 133.804029 
C 219.219446 130.73831 219.370693 127.659615 219.370693 124.579063 
C 219.370693 121.49851 219.219446 118.419815 218.917499 115.354096 
L 125.254844 124.579063 
z
" clip-path="url(#p3ea06b7f28)" style="fill: none; stroke: #292929; stroke-width: 0.5; stroke-linejoin: miter"/>
   </g>
   <g id="patch_140">
    <path d="M 125.254844 124.579063 
C 125.254844 124.579063 125.254844 124.579063 125.254844 124.579063 
C 125.254844 124.579063 125.254844 124.579063 125.254844 124.579063 
L 231.360391 156.765828 
C 232.413911 153.292835 233.296283 149.770211 234.004318 146.210678 
C 234.712353 142.651145 235.245198 139.058995 235.600929 135.447203 
L 125.254844 124.579063 
z
" clip-path="url(#p3ea06b7f28)" style="fill: none; stroke: #292929; stroke-width: 0.5; stroke-linejoin: miter"/>
   </g>
   <g id="patch_141">
    <path d="M 125.254844 124.579063 
C 125.254844 124.579063 125.254844 124.579063 125.254844 124.579063 
C 125.254844 124.579063 125.254844 124.579063 125.254844 124.579063 
L 214.79467 172.439097 
C 216.3612 169.508324 217.782893 166.502406 219.054615 163.4322 
C 220.326336 160.361993 221.446552 157.231199 222.411216 154.051126 
L 125.254844 124.579063 
z
" clip-path="url(#p3ea06b7f28)" style="fill: none; stroke: #292929; stroke-width: 0.5; stroke-linejoin: miter"/>
   </g>
   <g id="patch_142">
    <path d="M 125.254844 124.579063 
C 125.254844 124.579063 125.254844 124.579063 125.254844 124.579063 
C 125.254844 124.579063 125.254844 124.579063 125.254844 124.579063 
L 192.184786 179.507046 
C 193.982661 177.31633 195.671894 175.038662 197.246384 172.682272 
C 198.820874 170.325881 200.278722 167.893608 201.614664 165.394237 
L 125.254844 124.579063 
z
" clip-path="url(#p3ea06b7f28)" style="fill: none; stroke: #292929; stroke-width: 0.5; stroke-linejoin: miter"/>
   </g>
   <g id="patch_143">
    <path d="M 125.254844 124.579063 
C 125.254844 124.579063 125.254844 124.579063 125.254844 124.579063 
C 125.254844 124.579063 125.254844 124.579063 125.254844 124.579063 
L 192.201754 206.154109 
C 194.871827 203.962837 197.432706 201.641792 199.875139 199.199358 
C 202.317573 196.756924 204.638618 194.196046 206.82989 191.525973 
L 125.254844 124.579063 
z
" clip-path="url(#p3ea06b7f28)" style="fill: none; stroke: #292929; stroke-width: 0.5; stroke-linejoin: miter"/>
   </g>
   <g id="patch_144">
    <path d="M 125.254844 124.579063 
C 125.254844 124.579063 125.254844 124.579063 125.254844 124.579063 
C 125.254844 124.579063 125.254844 124.579063 125.254844 124.579063 
L 160.808416 191.095118 
C 162.985586 189.931396 165.104308 188.661483 167.156929 187.289965 
C 169.209551 185.918448 171.193598 184.446978 173.101903 182.880873 
L 125.254844 124.579063 
z
" clip-path="url(#p3ea06b7f28)" style="fill: none; stroke: #292929; stroke-width: 0.5; stroke-linejoin: miter"/>
   </g>
   <g id="patch_145">
    <path d="M 125.254844 124.579063 
C 125.254844 124.579063 125.254844 124.579063 125.254844 124.579063 
C 125.254844 124.579063 125.254844 124.579063 125.254844 124.579063 
L 146.494308 194.596194 
C 148.786074 193.900995 151.042325 193.093695 153.254914 192.177211 
C 155.467502 191.260727 157.63376 190.236163 159.745863 189.107221 
L 125.254844 124.579063 
z
" clip-path="url(#p3ea06b7f28)" style="fill: none; stroke: #292929; stroke-width: 0.5; stroke-linejoin: miter"/>
   </g>
   <g id="patch_146">
    <path d="M 125.254844 124.579063 
C 125.254844 124.579063 125.254844 124.579063 125.254844 124.579063 
C 125.254844 124.579063 125.254844 124.579063 125.254844 124.579063 
L 132.324376 196.357226 
C 134.673782 196.12583 137.010412 195.779224 139.325824 195.31866 
C 141.641237 194.858095 143.932642 194.284128 146.191762 193.598832 
L 125.254844 124.579063 
z
" clip-path="url(#p3ea06b7f28)" style="fill: none; stroke: #292929; stroke-width: 0.5; stroke-linejoin: miter"/>
   </g>
   <g id="patch_147">
    <path d="M 125.254844 124.579063 
C 125.254844 124.579063 125.254844 124.579063 125.254844 124.579063 
C 125.254844 124.579063 125.254844 124.579063 125.254844 124.579063 
L 119.305425 184.98452 
C 121.282586 185.179253 123.268116 185.276796 125.254844 185.276796 
C 127.241571 185.276796 129.227101 185.179253 131.204262 184.98452 
L 125.254844 124.579063 
z
" clip-path="url(#p3ea06b7f28)" style="fill: none; stroke: #292929; stroke-width: 0.5; stroke-linejoin: miter"/>
   </g>
   <g id="patch_148">
    <path d="M 125.254844 124.579063 
C 125.254844 124.579063 125.254844 124.579063 125.254844 124.579063 
C 125.254844 124.579063 125.254844 124.579063 125.254844 124.579063 
L 112.886589 165.351734 
C 114.22114 165.756565 115.574762 166.09563 116.942566 166.367703 
C 118.310371 166.639777 119.690709 166.84453 121.078595 166.981225 
L 125.254844 124.579063 
z
" clip-path="url(#p3ea06b7f28)" style="fill: none; stroke: #292929; stroke-width: 0.5; stroke-linejoin: miter"/>
   </g>
   <g id="patch_149">
    <path d="M 125.254844 124.579063 
C 125.254844 124.579063 125.254844 124.579063 125.254844 124.579063 
C 125.254844 124.579063 125.254844 124.579063 125.254844 124.579063 
L 105.749865 161.070311 
C 106.944278 161.708738 108.169316 162.288138 109.420555 162.806417 
C 110.671793 163.324697 111.947724 163.781233 113.243737 164.174374 
L 125.254844 124.579063 
z
" clip-path="url(#p3ea06b7f28)" style="fill: none; stroke: #292929; stroke-width: 0.5; stroke-linejoin: miter"/>
   </g>
   <g id="patch_150">
    <path d="M 125.254844 124.579063 
C 125.254844 124.579063 125.254844 124.579063 125.254844 124.579063 
C 125.254844 124.579063 125.254844 124.579063 125.254844 124.579063 
L 105.687746 148.42164 
C 106.468149 149.0621 107.279527 149.663859 108.118948 150.224742 
C 108.95837 150.785626 109.824823 151.304958 110.715179 151.780863 
L 125.254844 124.579063 
z
" clip-path="url(#p3ea06b7f28)" style="fill: none; stroke: #292929; stroke-width: 0.5; stroke-linejoin: miter"/>
   </g>
   <g id="patch_151">
    <path d="M 125.254844 124.579063 
C 125.254844 124.579063 125.254844 124.579063 125.254844 124.579063 
C 125.254844 124.579063 125.254844 124.579063 125.254844 124.579063 
L 103.005917 142.838284 
C 103.603569 143.566525 104.236615 144.264984 104.902769 144.931137 
C 105.568923 145.597291 106.267381 146.230337 106.995622 146.827989 
L 125.254844 124.579063 
z
" clip-path="url(#p3ea06b7f28)" style="fill: none; stroke: #292929; stroke-width: 0.5; stroke-linejoin: miter"/>
   </g>
   <g id="patch_152">
    <path d="M 125.254844 124.579063 
C 125.254844 124.579063 125.254844 124.579063 125.254844 124.579063 
C 125.254844 124.579063 125.254844 124.579063 125.254844 124.579063 
L 96.710788 139.836178 
C 97.210176 140.770468 97.755134 141.679676 98.343694 142.560518 
C 98.932254 143.44136 99.563706 144.292775 100.235769 145.111686 
L 125.254844 124.579063 
z
" clip-path="url(#p3ea06b7f28)" style="fill: none; stroke: #292929; stroke-width: 0.5; stroke-linejoin: miter"/>
   </g>
   <g id="patch_153">
    <path d="M 125.254844 124.579063 
C 125.254844 124.579063 125.254844 124.579063 125.254844 124.579063 
C 125.254844 124.579063 125.254844 124.579063 125.254844 124.579063 
L 94.256412 133.982334 
C 94.564195 134.996959 94.921608 135.995861 95.32736 136.975432 
C 95.733111 137.955004 96.186713 138.914063 96.686525 139.849147 
L 125.254844 124.579063 
z
" clip-path="url(#p3ea06b7f28)" style="fill: none; stroke: #292929; stroke-width: 0.5; stroke-linejoin: miter"/>
   </g>
   <g id="patch_154">
    <path d="M 125.254844 124.579063 
C 125.254844 124.579063 125.254844 124.579063 125.254844 124.579063 
C 125.254844 124.579063 125.254844 124.579063 125.254844 124.579063 
L 95.941498 127.466175 
C 96.035997 128.425645 96.177547 129.379896 96.365636 130.325483 
C 96.553725 131.27107 96.788126 132.206852 97.067993 133.12945 
L 125.254844 124.579063 
z
" clip-path="url(#p3ea06b7f28)" style="fill: none; stroke: #292929; stroke-width: 0.5; stroke-linejoin: miter"/>
   </g>
   <g id="patch_155">
    <path d="M 125.254844 124.579063 
C 125.254844 124.579063 125.254844 124.579063 125.254844 124.579063 
C 125.254844 124.579063 125.254844 124.579063 125.254844 124.579063 
L 89.292093 121.037041 
C 89.176158 122.214155 89.118085 123.396252 89.118085 124.579062 
C 89.118085 125.761873 89.176158 126.94397 89.292093 128.121084 
L 125.254844 124.579063 
z
" clip-path="url(#p3ea06b7f28)" style="fill: none; stroke: #292929; stroke-width: 0.5; stroke-linejoin: miter"/>
   </g>
   <g id="patch_156">
    <path d="M 125.254844 124.579063 
C 125.254844 124.579063 125.254844 124.579063 125.254844 124.579063 
C 125.254844 124.579063 125.254844 124.579063 125.254844 124.579063 
L 101.599507 117.403295 
C 101.364634 118.177569 101.167917 118.962909 101.010066 119.756476 
C 100.852216 120.550044 100.733422 121.350884 100.654115 122.156102 
L 125.254844 124.579063 
z
" clip-path="url(#p3ea06b7f28)" style="fill: none; stroke: #292929; stroke-width: 0.5; stroke-linejoin: miter"/>
   </g>
   <g id="patch_157">
    <path d="M 125.254844 124.579063 
C 125.254844 124.579063 125.254844 124.579063 125.254844 124.579063 
C 125.254844 124.579063 125.254844 124.579063 125.254844 124.579063 
L 91.199147 106.375913 
C 90.603331 107.490607 90.062602 108.633882 89.578914 109.801609 
C 89.095226 110.969335 88.669162 112.160105 88.30226 113.369619 
L 125.254844 124.579063 
z
" clip-path="url(#p3ea06b7f28)" style="fill: none; stroke: #292929; stroke-width: 0.5; stroke-linejoin: miter"/>
   </g>
   <g id="patch_158">
    <path d="M 125.254844 124.579063 
C 125.254844 124.579063 125.254844 124.579063 125.254844 124.579063 
C 125.254844 124.579063 125.254844 124.579063 125.254844 124.579063 
L 100.751682 104.469837 
C 100.093477 105.271862 99.475046 106.10572 98.898623 106.968399 
C 98.322199 107.831077 97.788478 108.721536 97.299388 109.63656 
L 125.254844 124.579063 
z
" clip-path="url(#p3ea06b7f28)" style="fill: none; stroke: #292929; stroke-width: 0.5; stroke-linejoin: miter"/>
   </g>
   <g id="patch_159">
    <path d="M 125.254844 124.579063 
C 125.254844 124.579063 125.254844 124.579063 125.254844 124.579063 
C 125.254844 124.579063 125.254844 124.579063 125.254844 124.579063 
L 111.060708 107.283458 
C 110.494597 107.748054 109.951638 108.240163 109.433791 108.75801 
C 108.915945 109.275857 108.423835 109.818816 107.95924 110.384927 
L 125.254844 124.579063 
z
" clip-path="url(#p3ea06b7f28)" style="fill: none; stroke: #292929; stroke-width: 0.5; stroke-linejoin: miter"/>
   </g>
   <g id="patch_160">
    <path d="M 125.254844 124.579063 
C 125.254844 124.579063 125.254844 124.579063 125.254844 124.579063 
C 125.254844 124.579063 125.254844 124.579063 125.254844 124.579063 
L 111.952213 99.69159 
C 111.137608 100.127005 110.344873 100.602152 109.57687 101.115316 
C 108.808866 101.628479 108.06652 102.179041 107.352514 102.765011 
L 125.254844 124.579063 
z
" clip-path="url(#p3ea06b7f28)" style="fill: none; stroke: #292929; stroke-width: 0.5; stroke-linejoin: miter"/>
   </g>
   <g id="patch_161">
    <path d="M 125.254844 124.579063 
C 125.254844 124.579063 125.254844 124.579063 125.254844 124.579063 
C 125.254844 124.579063 125.254844 124.579063 125.254844 124.579063 
L 107.36046 65.589183 
C 105.429633 66.174893 103.528726 66.855048 101.664607 67.627192 
C 99.800487 68.399336 97.975401 69.262537 96.195941 70.213678 
L 125.254844 124.579063 
z
" clip-path="url(#p3ea06b7f28)" style="fill: none; stroke: #292929; stroke-width: 0.5; stroke-linejoin: miter"/>
   </g>
   <g id="patch_162">
    <path d="M 125.254844 124.579063 
C 125.254844 124.579063 125.254844 124.579063 125.254844 124.579063 
C 125.254844 124.579063 125.254844 124.579063 125.254844 124.579063 
L 118.150293 52.445349 
C 115.789249 52.677892 113.441045 53.026215 111.114163 53.48906 
C 108.787281 53.951906 106.484526 54.528716 104.214216 55.217407 
L 125.254844 124.579063 
z
" clip-path="url(#p3ea06b7f28)" style="fill: none; stroke: #292929; stroke-width: 0.5; stroke-linejoin: miter"/>
   </g>
   <g id="PathCollection_1">
    <defs>
     <path id="mc1c9b40ff9" d="M 0.193618 7.414054 
L 0.193618 7.414054 
C 0.054922 7.414054 -0.078235 7.358899 -0.176308 7.260826 
C -0.274381 7.162753 -0.329536 7.029596 -0.329536 6.890901 
L -0.329536 5.365008 
L -1.528416 6.56393 
L -1.528416 6.56393 
C -1.577018 6.612704 -1.634775 6.651408 -1.698366 6.677814 
C -1.761958 6.704221 -1.830141 6.717815 -1.898997 6.717815 
C -1.967853 6.717815 -2.036037 6.704221 -2.099628 6.677814 
C -2.163219 6.651408 -2.220976 6.612704 -2.269578 6.56393 
L -2.269578 6.56393 
C -2.318353 6.515327 -2.357056 6.457571 -2.383463 6.393979 
C -2.409869 6.330388 -2.423463 6.262205 -2.423463 6.193348 
C -2.423463 6.124492 -2.409869 6.056309 -2.383463 5.992718 
C -2.357056 5.929126 -2.318353 5.87137 -2.269578 5.822767 
L -0.329536 3.884106 
L -0.329536 0.820937 
L -2.98067 2.351538 
L -3.691824 5.001416 
L -3.691824 5.001416 
C -3.727584 5.135411 -3.815199 5.249836 -3.93523 5.319305 
C -4.055261 5.388775 -4.198123 5.407741 -4.332122 5.371997 
L -4.332122 5.371997 
C -4.466126 5.336237 -4.580558 5.248616 -4.650029 5.128576 
C -4.719499 5.008535 -4.73846 4.865662 -4.702703 4.731657 
L -4.262647 3.092721 
L -5.585535 3.855668 
L -5.585535 3.855668 
C -5.645013 3.890144 -5.710708 3.912561 -5.778854 3.921634 
C -5.847001 3.930706 -5.916272 3.926258 -5.982698 3.908543 
C -6.049125 3.890828 -6.111412 3.860192 -6.165991 3.818391 
C -6.220571 3.77659 -6.266379 3.724437 -6.300791 3.664922 
L -6.300791 3.664922 
C -6.335212 3.605364 -6.35755 3.539597 -6.366524 3.471396 
C -6.375498 3.403194 -6.370933 3.333888 -6.35309 3.267452 
C -6.335248 3.201017 -6.304476 3.138749 -6.26254 3.08422 
C -6.220605 3.029692 -6.168323 2.983966 -6.108695 2.949666 
L -4.785807 2.186762 
L -6.424743 1.746706 
L -6.424743 1.746706 
C -6.558747 1.710946 -6.673179 1.623325 -6.74265 1.503284 
C -6.81212 1.383244 -6.831081 1.240371 -6.795324 1.106366 
L -6.795324 1.106366 
C -6.777471 1.039969 -6.746703 0.977739 -6.704784 0.923241 
C -6.662864 0.868744 -6.61061 0.823041 -6.551015 0.788752 
C -6.491421 0.754464 -6.425647 0.732257 -6.357465 0.723406 
C -6.289282 0.714554 -6.220019 0.71923 -6.153645 0.737166 
L -3.505232 1.44698 
L -0.852424 -0.08496 
L -3.503767 -1.615666 
L -6.153645 -0.905851 
L -6.153645 -0.905851 
C -6.22011 -0.887939 -6.289462 -0.883321 -6.357716 -0.892262 
C -6.42597 -0.901202 -6.491793 -0.923527 -6.551403 -0.957953 
C -6.611013 -0.992379 -6.663247 -1.038234 -6.705103 -1.092883 
C -6.746958 -1.147533 -6.777619 -1.209911 -6.795324 -1.276432 
L -6.795324 -1.276432 
C -6.831068 -1.410431 -6.812101 -1.553293 -6.742632 -1.673324 
C -6.673162 -1.793355 -6.558738 -1.88097 -6.424743 -1.91673 
L -4.785807 -2.355447 
L -6.108695 -3.119732 
L -6.108695 -3.119732 
C -6.228699 -3.188976 -6.316415 -3.303132 -6.352417 -3.436921 
C -6.388419 -3.57071 -6.369839 -3.713469 -6.300791 -3.833586 
L -6.300791 -3.833586 
C -6.266491 -3.893214 -6.220765 -3.945496 -6.166237 -3.987431 
C -6.111708 -4.029367 -6.04944 -4.060139 -5.983005 -4.077981 
C -5.91657 -4.095823 -5.847263 -4.100389 -5.779062 -4.091415 
C -5.71086 -4.082441 -5.645094 -4.060102 -5.585535 -4.025682 
L -4.262647 -3.261396 
L -4.702703 -4.900332 
L -4.702703 -4.900332 
C -4.73846 -5.034337 -4.719499 -5.17721 -4.650029 -5.29725 
C -4.580558 -5.417291 -4.466126 -5.504912 -4.332122 -5.540672 
L -4.332122 -5.540672 
C -4.19831 -5.576464 -4.055613 -5.557686 -3.935617 -5.488496 
C -3.81562 -5.419305 -3.727882 -5.305212 -3.691824 -5.171472 
L -2.982009 -2.521594 
L -0.329411 -0.990302 
L -0.329411 -4.051588 
L -2.269453 -5.991589 
L -2.269453 -5.991589 
C -2.318227 -6.040191 -2.356931 -6.097947 -2.383337 -6.161539 
C -2.409744 -6.22513 -2.423338 -6.293314 -2.423338 -6.36217 
C -2.423338 -6.431026 -2.409744 -6.499209 -2.383337 -6.5628 
C -2.356931 -6.626392 -2.318227 -6.684149 -2.269453 -6.732751 
L -2.269453 -6.732751 
C -2.22085 -6.781526 -2.163094 -6.820229 -2.099502 -6.846635 
C -2.035911 -6.873042 -1.967728 -6.886636 -1.898871 -6.886636 
C -1.830015 -6.886636 -1.761832 -6.873042 -1.698241 -6.846635 
C -1.634649 -6.820229 -1.576893 -6.781526 -1.52829 -6.732751 
L -0.329411 -5.533829 
L -0.329411 -7.059722 
L -0.329411 -7.059722 
C -0.329411 -7.198418 -0.274255 -7.331575 -0.176182 -7.429647 
C -0.07811 -7.52772 0.055047 -7.582875 0.193743 -7.582875 
L 0.193743 -7.582875 
C 0.332439 -7.582875 0.465596 -7.52772 0.563669 -7.429647 
C 0.661741 -7.331575 0.716897 -7.198418 0.716897 -7.059722 
L 0.716897 -5.533829 
L 1.915777 -6.732751 
L 1.915777 -6.732751 
C 1.964379 -6.781526 2.022136 -6.820229 2.085727 -6.846635 
C 2.149318 -6.873042 2.217502 -6.886636 2.286358 -6.886636 
C 2.355214 -6.886636 2.423397 -6.873042 2.486989 -6.846635 
C 2.55058 -6.820229 2.608337 -6.781526 2.656939 -6.732751 
L 2.656939 -6.732751 
C 2.705714 -6.684149 2.744417 -6.626392 2.770823 -6.5628 
C 2.79723 -6.499209 2.810824 -6.431026 2.810824 -6.36217 
C 2.810824 -6.293314 2.79723 -6.22513 2.770823 -6.161539 
C 2.744417 -6.097947 2.705714 -6.040191 2.656939 -5.991589 
L 0.716897 -4.051588 
L 0.716897 -0.991139 
L 3.369495 -2.522954 
L 4.07931 -5.171367 
L 4.07931 -5.171367 
C 4.115368 -5.305107 4.203106 -5.4192 4.323103 -5.488391 
C 4.4431 -5.557582 4.585797 -5.576359 4.719608 -5.540567 
L 4.719608 -5.540567 
C 4.853612 -5.504807 4.968045 -5.417186 5.037515 -5.297146 
C 5.106986 -5.177105 5.125946 -5.034232 5.090189 -4.900227 
L 4.650133 -3.262673 
L 5.973022 -4.025577 
L 5.973022 -4.025577 
C 6.03258 -4.059998 6.098346 -4.082336 6.166548 -4.09131 
C 6.234749 -4.100284 6.304056 -4.095719 6.370491 -4.077876 
C 6.436926 -4.060034 6.499194 -4.029262 6.553723 -3.987327 
C 6.608252 -3.945391 6.653978 -3.893109 6.688277 -3.833481 
L 6.688277 -3.833481 
C 6.757325 -3.713365 6.775905 -3.570605 6.739903 -3.436816 
C 6.703901 -3.303027 6.616186 -3.188871 6.496181 -3.119628 
L 5.173293 -2.355342 
L 6.812229 -1.916625 
L 6.812229 -1.916625 
C 6.946224 -1.880865 7.060649 -1.79325 7.130118 -1.67322 
C 7.199588 -1.553189 7.218554 -1.410326 7.18281 -1.276327 
L 7.18281 -1.276327 
C 7.165106 -1.209806 7.134445 -1.147429 7.092589 -1.092779 
C 7.050733 -1.038129 6.998499 -0.992274 6.938889 -0.957848 
C 6.879279 -0.923422 6.813456 -0.901098 6.745202 -0.892157 
C 6.676949 -0.883217 6.607597 -0.887835 6.541131 -0.905746 
L 3.891253 -1.615561 
L 1.239492 -0.084604 
L 3.892718 1.447085 
L 6.541131 0.73727 
L 6.541131 0.73727 
C 6.674948 0.701466 6.817656 0.720237 6.937662 0.789429 
C 7.057669 0.858621 7.145413 0.972721 7.181471 1.10647 
L 7.181471 1.10647 
C 7.217274 1.240293 7.198497 1.383006 7.129297 1.503014 
C 7.060096 1.623021 6.945986 1.710762 6.812229 1.74681 
L 5.173293 2.186866 
L 6.496181 2.949771 
L 6.496181 2.949771 
C 6.555697 2.984183 6.607849 3.029991 6.649651 3.08457 
C 6.691452 3.13915 6.722088 3.201437 6.739803 3.267863 
C 6.757517 3.33429 6.761966 3.403561 6.752893 3.471707 
C 6.743821 3.539854 6.721404 3.605549 6.686927 3.665026 
L 6.686927 3.665026 
C 6.617458 3.784813 6.503196 3.87225 6.369416 3.907994 
C 6.235636 3.943739 6.092989 3.924946 5.973032 3.855772 
L 4.650144 3.091487 
L 5.08886 4.731783 
L 5.08886 4.731783 
C 5.124664 4.865606 5.105887 5.008319 5.036686 5.128326 
C 4.967486 5.248334 4.853376 5.336074 4.719619 5.372123 
L 4.719619 5.372123 
C 4.585619 5.407867 4.442757 5.3889 4.322726 5.319431 
C 4.202695 5.249961 4.115081 5.135537 4.07932 5.001542 
L 3.368166 2.351664 
L 0.717033 0.821063 
L 0.717033 3.884232 
L 2.657075 5.822893 
L 2.657075 5.822893 
C 2.70585 5.871495 2.744553 5.929252 2.770959 5.992843 
C 2.797366 6.056435 2.81096 6.124618 2.81096 6.193474 
C 2.81096 6.26233 2.797366 6.330514 2.770959 6.394105 
C 2.744553 6.457696 2.70585 6.515453 2.657075 6.564055 
L 2.657075 6.564055 
C 2.608473 6.61283 2.550716 6.651533 2.487125 6.67794 
C 2.423533 6.704346 2.35535 6.71794 2.286494 6.71794 
C 2.217638 6.71794 2.149454 6.704346 2.085863 6.67794 
C 2.022272 6.651533 1.964515 6.61283 1.915913 6.564055 
L 0.717033 5.365133 
L 0.717033 6.891026 
L 0.717033 6.891026 
C 0.717033 7.029722 0.661877 7.162879 0.563805 7.260952 
C 0.465732 7.359024 0.332575 7.41418 0.193879 7.41418 
L 0.193618 7.414054 
z
"/>
    </defs>
    <g clip-path="url(#p3ea06b7f28)">
     <use xlink:href="#mc1c9b40ff9" x="180.983691" y="126.629437" style="fill: #9e2096; fill-opacity: 0.7"/>
    </g>
   </g>
   <g id="patch_163">
    <path d="M 125.254844 13.699063 
C 110.694216 13.699063 96.275171 16.567189 82.822905 22.1393 
C 69.370638 27.711411 57.146763 35.879144 46.850844 46.175063 
C 36.554925 56.470982 28.387192 68.694857 22.815081 82.147124 
C 17.24297 95.59939 14.374844 110.018434 14.374844 124.579063 
C 14.374844 139.139691 17.24297 153.558735 22.815081 167.011001 
C 28.387192 180.463268 36.554925 192.687143 46.850844 202.983062 
C 57.146763 213.278981 69.370638 221.446714 82.822905 227.018825 
C 96.275171 232.590936 110.694216 235.459063 125.254844 235.459063 
C 139.815472 235.459063 154.234516 232.590936 167.686783 227.018825 
C 181.139049 221.446714 193.362925 213.278981 203.658844 202.983062 
C 213.954763 192.687143 222.122495 180.463268 227.694606 167.011001 
C 233.266717 153.558735 236.134844 139.139691 236.134844 124.579063 
C 236.134844 110.018434 233.266717 95.59939 227.694606 82.147124 
C 222.122495 68.694857 213.954763 56.470982 203.658844 46.175063 
C 193.362925 35.879144 181.139049 27.711411 167.686783 22.1393 
C 154.234516 16.567189 139.815472 13.699063 125.254844 13.699063 
" style="fill: none; stroke: #000000; stroke-width: 0.8; stroke-linejoin: miter; stroke-linecap: square"/>
   </g>
  </g>
 </g>
 <defs>
  <clipPath id="p3ea06b7f28">
   <path d="M 236.134844 124.579063 
C 236.134844 110.018434 233.266717 95.59939 227.694606 82.147124 
C 222.122495 68.694857 213.954763 56.470982 203.658844 46.175063 
C 193.362925 35.879144 181.139049 27.711411 167.686783 22.1393 
C 154.234516 16.567189 139.815472 13.699063 125.254844 13.699063 
C 110.694216 13.699063 96.275171 16.567189 82.822905 22.1393 
C 69.370638 27.711411 57.146763 35.879144 46.850844 46.175063 
C 36.554925 56.470982 28.387192 68.694857 22.815081 82.147124 
C 17.24297 95.59939 14.374844 110.018434 14.374844 124.579062 
C 14.374844 139.139691 17.24297 153.558735 22.815081 167.011001 
C 28.387192 180.463268 36.554925 192.687143 46.850844 202.983062 
C 57.146763 213.278981 69.370638 221.446714 82.822905 227.018825 
C 96.275171 232.590936 110.694216 235.459063 125.254844 235.459063 
C 139.815472 235.459063 154.234516 232.590936 167.686783 227.018825 
C 181.139049 221.446714 193.362925 213.278981 203.658844 202.983062 
C 213.954763 192.687143 222.122495 180.463268 227.694606 167.011001 
C 233.266717 153.558735 236.134844 139.139691 236.134844 124.579063 
M 125.254844 124.579063 
C 125.254844 124.579063 125.254844 124.579063 125.254844 124.579063 
C 125.254844 124.579063 125.254844 124.579063 125.254844 124.579063 
C 125.254844 124.579063 125.254844 124.579063 125.254844 124.579063 
C 125.254844 124.579063 125.254844 124.579063 125.254844 124.579063 
C 125.254844 124.579063 125.254844 124.579063 125.254844 124.579063 
C 125.254844 124.579063 125.254844 124.579063 125.254844 124.579063 
C 125.254844 124.579063 125.254844 124.579063 125.254844 124.579063 
C 125.254844 124.579063 125.254844 124.579063 125.254844 124.579063 
C 125.254844 124.579063 125.254844 124.579063 125.254844 124.579063 
C 125.254844 124.579063 125.254844 124.579063 125.254844 124.579063 
C 125.254844 124.579063 125.254844 124.579063 125.254844 124.579063 
C 125.254844 124.579063 125.254844 124.579063 125.254844 124.579063 
C 125.254844 124.579063 125.254844 124.579063 125.254844 124.579063 
C 125.254844 124.579063 125.254844 124.579063 125.254844 124.579063 
C 125.254844 124.579063 125.254844 124.579063 125.254844 124.579063 
C 125.254844 124.579063 125.254844 124.579063 125.254844 124.579063 
z
"/>
  </clipPath>
 </defs>
</svg>
