<?xml version="1.0" encoding="utf-8" standalone="no"?>
<!DOCTYPE svg PUBLIC "-//W3C//DTD SVG 1.1//EN"
  "http://www.w3.org/Graphics/SVG/1.1/DTD/svg11.dtd">
<svg xmlns:xlink="http://www.w3.org/1999/xlink" width="248.410469pt" height="249.158125pt" viewBox="0 0 248.410469 249.158125" xmlns="http://www.w3.org/2000/svg" version="1.1">
 <title>Ski Rose for Laurel Mountain Ski Resort</title>
 <metadata>
  <rdf:RDF xmlns:dc="http://purl.org/dc/elements/1.1/" xmlns:cc="http://creativecommons.org/ns#" xmlns:rdf="http://www.w3.org/1999/02/22-rdf-syntax-ns#">
   <cc:Work>
    <dc:type rdf:resource="http://purl.org/dc/dcmitype/StillImage"/>
    <dc:title>Ski Rose for Laurel Mountain Ski Resort</dc:title>
    <dc:date>2026-05-30T11:12:49.361304</dc:date>
    <dc:description>A 32-bin stacked histogram of downhill ski run orientations colored by difficulty.</dc:description>
    <dc:format>image/svg+xml</dc:format>
    <dc:source>https://openskimap.org/?obj=df8e5111a26b3f12f1d25b9f0a2cf6e8395fe31d</dc:source>
    <dc:creator>
     <cc:Agent>
      <dc:title>https://github.com/dhimmel/openskistats</dc:title>
     </cc:Agent>
    </dc:creator>
    <dc:rights>
     <cc:Agent>
      <dc:title>https://creativecommons.org/licenses/by/4.0/</dc:title>
     </cc:Agent>
    </dc:rights>
   </cc:Work>
  </rdf:RDF>
 </metadata>
 <defs>
  <style type="text/css">*{stroke-linejoin: round; stroke-linecap: butt}</style>
 </defs>
 <g id="figure_1">
  <g id="patch_1">
   <path d="M 0 249.158125 
L 248.410469 249.158125 
L 248.410469 0 
L 0 0 
z
" style="fill: #ffffff"/>
  </g>
  <g id="axes_1">
   <g id="patch_2">
    <path d="M 236.134844 124.579063 
C 236.134844 110.018434 233.266717 95.59939 227.694606 82.147124 
C 222.122495 68.694857 213.954763 56.470982 203.658844 46.175063 
C 193.362925 35.879144 181.139049 27.711411 167.686783 22.1393 
C 154.234516 16.567189 139.815472 13.699063 125.254844 13.699063 
C 110.694216 13.699063 96.275171 16.567189 82.822905 22.1393 
C 69.370638 27.711411 57.146763 35.879144 46.850844 46.175063 
C 36.554925 56.470982 28.387192 68.694857 22.815081 82.147124 
C 17.24297 95.59939 14.374844 110.018434 14.374844 124.579062 
C 14.374844 139.139691 17.24297 153.558735 22.815081 167.011001 
C 28.387192 180.463268 36.554925 192.687143 46.850844 202.983062 
C 57.146763 213.278981 69.370638 221.446714 82.822905 227.018825 
C 96.275171 232.590936 110.694216 235.459063 125.254844 235.459063 
C 139.815472 235.459063 154.234516 232.590936 167.686783 227.018825 
C 181.139049 221.446714 193.362925 213.278981 203.658844 202.983062 
C 213.954763 192.687143 222.122495 180.463268 227.694606 167.011001 
C 233.266717 153.558735 236.134844 139.139691 236.134844 124.579063 
M 125.254844 124.579063 
C 125.254844 124.579063 125.254844 124.579063 125.254844 124.579063 
C 125.254844 124.579063 125.254844 124.579063 125.254844 124.579063 
C 125.254844 124.579063 125.254844 124.579063 125.254844 124.579063 
C 125.254844 124.579063 125.254844 124.579063 125.254844 124.579063 
C 125.254844 124.579063 125.254844 124.579063 125.254844 124.579063 
C 125.254844 124.579063 125.254844 124.579063 125.254844 124.579063 
C 125.254844 124.579063 125.254844 124.579063 125.254844 124.579063 
C 125.254844 124.579063 125.254844 124.579063 125.254844 124.579063 
C 125.254844 124.579063 125.254844 124.579063 125.254844 124.579063 
C 125.254844 124.579063 125.254844 124.579063 125.254844 124.579063 
C 125.254844 124.579063 125.254844 124.579063 125.254844 124.579063 
C 125.254844 124.579063 125.254844 124.579063 125.254844 124.579063 
C 125.254844 124.579063 125.254844 124.579063 125.254844 124.579063 
C 125.254844 124.579063 125.254844 124.579063 125.254844 124.579063 
C 125.254844 124.579063 125.254844 124.579063 125.254844 124.579063 
C 125.254844 124.579063 125.254844 124.579063 125.254844 124.579063 
z
" style="fill: #ffffff"/>
   </g>
   <g id="FillBetweenPolyCollection_1">
    <defs>
     <path id="m3192d3dba4" d="M 235.28403 -137.115305 
L 235.28403 -137.115305 
L 234.261844 -135.075243 
L 233.136029 -133.069496 
L 231.93142 -131.103681 
L 230.437743 -129.171447 
L 229.121463 -127.298906 
L 227.763474 -125.473642 
L 226.36821 -123.69666 
L 224.939053 -121.96874 
L 223.478789 -120.290512 
L 221.756648 -118.676759 
L 220.241637 -117.10344 
L 218.702458 -115.581081 
L 217.141105 -114.109945 
L 215.559515 -112.690227 
L 213.959592 -111.322049 
L 212.571541 -109.967259 
L 210.939183 -108.698409 
L 209.293932 -107.481117 
L 207.637637 -106.315237 
L 206.194101 -105.147266 
L 204.51923 -104.079898 
L 203.056651 -103.002712 
L 201.585804 -101.968802 
L 199.894449 -101.045285 
L 198.413623 -100.100477 
L 196.928843 -99.197968 
L 195.441492 -98.33735 
L 193.952947 -97.51816 
L 192.464575 -96.73988 
L 190.977738 -96.001935 
L 189.493784 -95.303691 
L 188.205171 -94.553297 
L 186.727584 -93.929885 
L 185.441298 -93.247978 
L 183.974822 -92.696716 
L 182.695094 -92.080933 
L 181.41847 -91.496158 
L 179.975276 -91.046338 
L 178.711209 -90.523602 
L 177.453014 -90.029848 
L 176.201543 -89.564366 
L 174.957627 -89.126412 
L 173.722074 -88.715199 
L 172.643159 -88.216729 
L 171.422521 -87.855634 
L 170.21244 -87.51888 
L 169.149071 -87.089851 
L 167.957852 -86.798632 
L 166.906475 -86.412375 
L 165.736444 -86.163459 
L 164.699081 -85.817319 
L 163.552328 -85.607259 
L 162.530793 -85.298408 
L 161.51581 -85.007162 
L 160.50773 -84.732923 
L 159.506879 -84.475081 
L 158.41879 -84.347979 
L 157.437244 -84.120241 
L 156.463747 -83.906828 
L 155.498517 -83.707084 
L 154.541741 -83.520347 
L 153.593581 -83.345944 
L 152.725336 -83.075676 
L 151.790923 -82.925762 
L 150.865469 -82.786321 
L 149.949021 -82.656669 
L 149.041594 -82.536123 
L 148.196222 -82.326301 
L 147.303174 -82.224615 
L 146.419077 -82.130177 
L 145.586954 -81.951907 
L 144.717058 -81.873132 
L 143.892877 -81.714521 
L 143.036876 -81.649439 
L 142.1892 -81.588696 
L 141.377979 -81.455779 
L 140.543307 -81.405774 
L 139.739504 -81.288977 
L 138.917088 -81.247959 
L 138.120292 -81.146037 
L 137.309224 -81.112371 
L 136.518904 -81.024174 
L 135.730715 -80.94392 
L 134.933637 -80.920849 
L 134.151038 -80.852872 
L 133.36255 -80.833796 
L 132.584757 -80.777228 
L 131.808471 -80.727719 
L 131.029636 -80.715161 
L 130.256959 -80.676063 
L 129.485341 -80.643667 
L 128.71324 -80.635974 
L 127.943905 -80.613292 
L 127.175138 -80.597086 
L 126.406654 -80.593212 
L 125.638762 -80.586345 
L 124.870931 -80.586983 
L 124.102996 -80.591776 
L 123.334855 -80.604088 
L 122.566365 -80.622826 
L 121.796073 -80.631211 
L 121.025869 -80.659484 
L 120.254813 -80.694359 
L 119.478997 -80.707148 
L 118.704866 -80.752137 
L 117.929417 -80.804036 
L 117.145074 -80.822661 
L 116.3653 -80.885561 
L 115.573109 -80.907579 
L 114.788182 -80.98228 
L 114.001265 -81.064701 
L 113.196006 -81.096299 
L 112.402974 -81.191876 
L 111.586942 -81.230018 
L 110.787204 -81.339846 
L 109.959411 -81.386093 
L 109.152493 -81.511368 
L 108.312105 -81.567413 
L 107.497656 -81.709418 
L 106.644004 -81.777062 
L 105.821805 -81.93715 
L 104.954394 -82.018285 
L 104.078254 -82.105394 
L 103.24287 -82.294455 
L 102.352488 -82.398171 
L 101.453137 -82.509688 
L 100.604687 -82.7314 
L 99.69105 -82.862742 
L 98.768449 -83.003751 
L 97.836927 -83.155109 
L 96.896557 -83.317499 
L 95.947442 -83.4916 
L 94.989714 -83.678088 
L 94.023537 -83.877632 
L 93.049101 -84.090895 
L 92.066624 -84.318532 
L 91.076352 -84.56119 
L 90.078557 -84.819503 
L 89.073538 -85.094096 
L 88.061618 -85.38558 
L 86.928509 -85.577901 
L 85.899957 -85.905123 
L 84.865643 -86.251142 
L 83.699152 -86.500286 
L 82.650798 -86.886187 
L 81.463081 -87.177364 
L 80.402702 -87.60581 
L 79.196075 -87.942263 
L 77.97886 -88.302924 
L 76.751787 -88.688689 
L 75.670674 -89.211018 
L 74.430085 -89.648174 
L 73.181903 -90.112735 
L 71.926958 -90.605452 
L 70.6661 -91.127037 
L 69.226513 -91.575853 
L 67.95301 -92.159245 
L 66.676359 -92.77354 
L 65.213338 -93.323433 
L 63.930034 -94.00364 
L 62.455799 -94.625455 
L 61.170072 -95.373949 
L 59.689363 -96.07038 
L 58.205716 -96.806404 
L 56.720479 -97.582658 
L 55.235014 -98.399721 
L 53.75069 -99.258114 
L 52.268882 -100.158301 
L 50.790974 -101.100695 
L 49.318357 -102.08565 
L 47.63483 -103.053128 
L 46.175008 -104.127626 
L 44.503219 -105.192313 
L 43.062334 -106.357422 
L 41.409013 -107.520435 
L 39.993234 -108.776757 
L 38.365135 -110.038712 
L 36.751568 -111.352159 
L 35.154396 -112.717113 
L 33.575495 -114.13352 
L 32.016765 -115.601257 
L 30.480136 -117.120131 
L 28.96759 -118.689882 
L 27.481181 -120.310172 
L 26.023077 -121.980587 
L 24.595629 -123.700623 
L 22.969541 -125.471693 
L 21.612958 -127.293021 
L 20.297467 -129.161601 
L 19.029011 -131.076113 
L 17.816843 -133.034617 
L 16.463994 -135.05443 
L 15.431655 -137.091834 
L 15.23351 -137.11441 
L 15.23351 -137.11441 
L 15.022534 -135.193227 
L 14.844207 -133.268568 
L 14.698497 -131.340978 
L 14.585327 -129.410998 
L 14.504553 -127.479161 
L 14.455958 -125.54599 
L 14.439265 -123.61199 
L 14.454162 -121.677645 
L 14.500315 -119.743415 
L 14.589857 -117.810502 
L 14.897143 -115.893723 
L 15.035998 -113.966195 
L 15.204853 -112.04045 
L 15.403528 -110.116862 
L 15.631955 -108.195812 
L 15.912842 -106.281487 
L 16.370589 -104.398559 
L 16.687108 -102.490707 
L 17.004863 -100.580619 
L 17.598959 -98.733171 
L 17.972315 -96.833914 
L 18.440323 -94.956774 
L 19.055429 -93.121363 
L 19.549949 -91.250437 
L 20.111904 -89.398727 
L 20.772045 -87.579763 
L 21.533126 -85.799101 
L 22.112044 -83.950033 
L 22.895336 -82.180366 
L 23.579201 -80.369235 
L 24.430081 -78.630571 
L 25.185324 -76.84835 
L 26.063961 -75.124313 
L 26.921539 -73.389984 
L 27.885259 -71.711692 
L 28.766339 -69.988493 
L 29.717549 -68.303295 
L 30.860999 -66.73444 
L 32.844781 -65.70736 
L 34.794562 -64.704708 
L 36.76712 -63.763135 
L 38.750166 -62.875876 
L 40.735901 -62.038335 
L 42.719272 -61.247291 
L 44.626017 -60.443998 
L 46.596949 -59.738498 
L 48.489326 -59.015117 
L 50.374654 -58.330667 
L 52.249451 -57.681946 
L 54.114853 -57.069732 
L 55.967566 -56.490645 
L 57.750502 -55.886146 
L 59.580717 -55.372973 
L 61.342456 -54.83093 
L 63.093563 -54.318516 
L 64.882721 -53.892388 
L 66.608819 -53.435745 
L 68.322642 -53.005475 
L 69.980469 -52.544095 
L 71.670452 -52.163914 
L 73.346968 -51.806905 
L 74.971082 -51.415735 
L 76.621784 -51.102525 
L 78.224633 -50.756419 
L 79.815663 -50.429059 
L 81.397089 -50.12337 
L 82.966431 -49.834546 
L 84.525936 -49.565746 
L 86.073261 -49.311941 
L 87.61067 -49.076531 
L 89.135971 -48.854272 
L 90.630385 -48.602623 
L 92.136598 -48.412311 
L 93.614074 -48.191487 
L 95.09955 -48.02539 
L 96.560531 -47.832638 
L 98.027988 -47.692795 
L 99.473113 -47.52559 
L 100.911243 -47.371024 
L 102.342582 -47.228563 
L 103.775596 -47.127399 
L 105.193052 -47.005869 
L 106.604533 -46.894928 
L 108.01034 -46.794134 
L 109.410794 -46.703071 
L 110.806235 -46.621348 
L 112.197023 -46.548603 
L 113.583534 -46.484503 
L 114.966159 -46.428744 
L 116.345306 -46.381053 
L 117.720387 -46.330737 
L 119.094192 -46.300562 
L 120.465736 -46.277843 
L 121.835466 -46.262433 
L 123.203836 -46.25422 
L 124.571303 -46.253102 
L 125.938389 -46.252567 
L 127.305883 -46.253025 
L 128.674302 -46.260602 
L 130.044102 -46.275379 
L 131.415083 -46.305807 
L 132.788659 -46.337404 
L 134.164886 -46.376625 
L 135.544195 -46.423678 
L 136.927005 -46.478808 
L 138.313721 -46.542287 
L 139.704736 -46.614421 
L 141.100425 -46.695544 
L 142.501146 -46.786018 
L 143.907241 -46.886235 
L 145.31903 -46.996612 
L 146.736811 -47.117592 
L 148.160862 -47.249642 
L 149.591436 -47.393252 
L 151.040254 -47.514595 
L 152.485758 -47.681332 
L 153.938449 -47.861275 
L 155.415222 -48.012481 
L 156.884133 -48.219203 
L 158.378866 -48.399026 
L 159.864479 -48.635148 
L 161.3807 -48.839629 
L 162.906233 -49.062058 
L 164.444464 -49.296502 
L 165.965791 -49.598825 
L 167.522598 -49.871059 
L 169.092243 -50.157927 
L 170.704288 -50.41231 
L 172.295477 -50.740059 
L 173.899326 -51.085267 
L 175.550648 -51.398213 
L 177.174868 -51.789873 
L 178.851987 -52.146681 
L 180.499803 -52.582429 
L 182.201539 -52.987255 
L 183.915995 -53.417396 
L 185.642725 -53.873938 
L 187.381235 -54.357951 
L 189.130979 -54.870493 
L 190.945963 -55.355067 
L 192.718279 -55.927772 
L 194.56106 -56.472034 
L 196.413652 -57.051875 
L 198.280435 -57.663437 
L 200.15504 -58.312966 
L 202.041769 -58.996832 
L 203.933873 -59.721076 
L 205.905354 -60.42675 
L 207.813487 -61.229588 
L 209.797335 -62.02091 
L 211.783458 -62.858802 
L 213.766753 -63.746513 
L 215.739326 -64.68869 
L 217.688755 -65.692167 
L 219.599052 -66.764857 
L 220.790012 -68.304548 
L 221.753577 -69.982706 
L 222.677407 -71.682927 
L 223.572471 -73.398145 
L 224.466267 -75.114071 
L 225.279036 -76.86997 
L 226.137144 -78.604349 
L 226.881621 -80.390482 
L 227.670231 -82.15722 
L 228.408835 -83.945625 
L 229.097229 -85.753986 
L 229.735319 -87.580586 
L 230.295481 -89.432957 
L 230.965564 -91.2486 
L 231.486875 -93.111701 
L 232.047788 -94.962758 
L 232.545188 -96.831893 
L 233.057603 -98.69791 
L 233.415866 -100.600341 
L 233.845083 -102.486129 
L 234.230714 -104.381579 
L 234.573244 -106.285436 
L 234.873176 -108.196493 
L 235.131054 -110.113585 
L 235.3475 -112.035589 
L 235.606469 -113.95341 
L 235.739802 -115.883708 
L 235.83438 -117.815728 
L 236.013315 -119.743243 
L 236.03477 -121.678188 
L 236.094114 -123.611783 
L 236.042679 -125.545893 
L 236.082576 -127.481189 
L 235.963059 -129.412688 
L 235.810468 -131.340934 
L 235.749728 -133.275198 
L 235.607652 -135.204829 
L 235.28403 -137.115305 
z
" style="stroke: #ffee9c"/>
    </defs>
    <g clip-path="url(#pf21e200128)">
     <use xlink:href="#m3192d3dba4" x="0" y="249.158125" style="fill: #ffee9c; stroke: #ffee9c"/>
    </g>
   </g>
   <g id="matplotlib.axis_1">
    <g id="xtick_1">
     <g id="line2d_1">
      <path d="M 125.254844 124.579063 
L 125.254844 13.699063 
" clip-path="url(#pf21e200128)" style="fill: none; stroke: #b0b0b0; stroke-width: 0.8; stroke-linecap: square"/>
     </g>
     <g id="text_1">
      <!-- N -->
      <g transform="translate(121.070469 7.958438) scale(0.1 -0.1)">
       <defs>
        <path id="DejaVuSans-Bold-4e" d="M 588 4666 
L 1931 4666 
L 3628 1466 
L 3628 4666 
L 4769 4666 
L 4769 0 
L 3425 0 
L 1728 3200 
L 1728 0 
L 588 0 
L 588 4666 
z
" transform="scale(0.015625)"/>
       </defs>
       <use xlink:href="#DejaVuSans-Bold-4e"/>
      </g>
     </g>
    </g>
    <g id="xtick_2">
     <g id="line2d_2">
      <path d="M 125.254844 124.579063 
L 203.658844 46.175063 
" clip-path="url(#pf21e200128)" style="fill: none; stroke: #b0b0b0; stroke-width: 0.8; stroke-linecap: square"/>
     </g>
    </g>
    <g id="xtick_3">
     <g id="line2d_3">
      <path d="M 125.254844 124.579063 
L 236.134844 124.579063 
" clip-path="url(#pf21e200128)" style="fill: none; stroke: #b0b0b0; stroke-width: 0.8; stroke-linecap: square"/>
     </g>
     <g id="text_2">
      <!-- E -->
      <g transform="translate(241.219219 127.338438) scale(0.1 -0.1)">
       <defs>
        <path id="DejaVuSans-Bold-45" d="M 588 4666 
L 3834 4666 
L 3834 3756 
L 1791 3756 
L 1791 2888 
L 3713 2888 
L 3713 1978 
L 1791 1978 
L 1791 909 
L 3903 909 
L 3903 0 
L 588 0 
L 588 4666 
z
" transform="scale(0.015625)"/>
       </defs>
       <use xlink:href="#DejaVuSans-Bold-45"/>
      </g>
     </g>
    </g>
    <g id="xtick_4">
     <g id="line2d_4">
      <path d="M 125.254844 124.579063 
L 203.658844 202.983062 
" clip-path="url(#pf21e200128)" style="fill: none; stroke: #b0b0b0; stroke-width: 0.8; stroke-linecap: square"/>
     </g>
    </g>
    <g id="xtick_5">
     <g id="line2d_5">
      <path d="M 125.254844 124.579063 
L 125.254844 235.459063 
" clip-path="url(#pf21e200128)" style="fill: none; stroke: #b0b0b0; stroke-width: 0.8; stroke-linecap: square"/>
     </g>
     <g id="text_3">
      <!-- S -->
      <g transform="translate(121.654062 246.718438) scale(0.1 -0.1)">
       <defs>
        <path id="DejaVuSans-Bold-53" d="M 3834 4519 
L 3834 3531 
Q 3450 3703 3084 3790 
Q 2719 3878 2394 3878 
Q 1963 3878 1756 3759 
Q 1550 3641 1550 3391 
Q 1550 3203 1689 3098 
Q 1828 2994 2194 2919 
L 2706 2816 
Q 3484 2659 3812 2340 
Q 4141 2022 4141 1434 
Q 4141 663 3683 286 
Q 3225 -91 2284 -91 
Q 1841 -91 1394 -6 
Q 947 78 500 244 
L 500 1259 
Q 947 1022 1364 901 
Q 1781 781 2169 781 
Q 2563 781 2772 912 
Q 2981 1044 2981 1288 
Q 2981 1506 2839 1625 
Q 2697 1744 2272 1838 
L 1806 1941 
Q 1106 2091 782 2419 
Q 459 2747 459 3303 
Q 459 4000 909 4375 
Q 1359 4750 2203 4750 
Q 2588 4750 2994 4692 
Q 3400 4634 3834 4519 
z
" transform="scale(0.015625)"/>
       </defs>
       <use xlink:href="#DejaVuSans-Bold-53"/>
      </g>
     </g>
    </g>
    <g id="xtick_6">
     <g id="line2d_6">
      <path d="M 125.254844 124.579063 
L 46.850844 202.983062 
" clip-path="url(#pf21e200128)" style="fill: none; stroke: #b0b0b0; stroke-width: 0.8; stroke-linecap: square"/>
     </g>
    </g>
    <g id="xtick_7">
     <g id="line2d_7">
      <path d="M 125.254844 124.579063 
L 14.374844 124.579063 
" clip-path="url(#pf21e200128)" style="fill: none; stroke: #b0b0b0; stroke-width: 0.8; stroke-linecap: square"/>
     </g>
     <g id="text_4">
      <!-- W -->
      <g transform="translate(0.36 127.338438) scale(0.1 -0.1)">
       <defs>
        <path id="DejaVuSans-Bold-57" d="M 191 4666 
L 1344 4666 
L 2150 1275 
L 2950 4666 
L 4109 4666 
L 4909 1275 
L 5716 4666 
L 6859 4666 
L 5759 0 
L 4372 0 
L 3525 3547 
L 2688 0 
L 1300 0 
L 191 4666 
z
" transform="scale(0.015625)"/>
       </defs>
       <use xlink:href="#DejaVuSans-Bold-57"/>
      </g>
     </g>
    </g>
    <g id="xtick_8">
     <g id="line2d_8">
      <path d="M 125.254844 124.579063 
L 46.850844 46.175063 
" clip-path="url(#pf21e200128)" style="fill: none; stroke: #b0b0b0; stroke-width: 0.8; stroke-linecap: square"/>
     </g>
    </g>
   </g>
   <g id="matplotlib.axis_2"/>
   <g id="patch_3">
    <path d="M 125.254844 124.579063 
C 125.254844 124.579063 125.254844 124.579063 125.254844 124.579063 
C 125.254844 124.579063 125.254844 124.579063 125.254844 124.579063 
L 125.254844 124.579063 
C 125.254844 124.579063 125.254844 124.579063 125.254844 124.579063 
C 125.254844 124.579063 125.254844 124.579063 125.254844 124.579063 
z
" clip-path="url(#pf21e200128)" style="fill: #d9d9d9"/>
   </g>
   <g id="patch_4">
    <path d="M 125.254844 124.579063 
C 125.254844 124.579063 125.254844 124.579063 125.254844 124.579063 
C 125.254844 124.579063 125.254844 124.579063 125.254844 124.579063 
L 125.254844 124.579063 
C 125.254844 124.579063 125.254844 124.579063 125.254844 124.579063 
C 125.254844 124.579063 125.254844 124.579063 125.254844 124.579063 
z
" clip-path="url(#pf21e200128)" style="fill: #d9d9d9"/>
   </g>
   <g id="patch_5">
    <path d="M 125.254844 124.579063 
C 125.254844 124.579063 125.254844 124.579063 125.254844 124.579063 
C 125.254844 124.579063 125.254844 124.579063 125.254844 124.579063 
L 125.254844 124.579063 
C 125.254844 124.579063 125.254844 124.579063 125.254844 124.579063 
C 125.254844 124.579063 125.254844 124.579063 125.254844 124.579063 
z
" clip-path="url(#pf21e200128)" style="fill: #d9d9d9"/>
   </g>
   <g id="patch_6">
    <path d="M 125.254844 124.579063 
C 125.254844 124.579063 125.254844 124.579063 125.254844 124.579063 
C 125.254844 124.579063 125.254844 124.579063 125.254844 124.579063 
L 125.254844 124.579063 
C 125.254844 124.579063 125.254844 124.579063 125.254844 124.579063 
C 125.254844 124.579063 125.254844 124.579063 125.254844 124.579063 
z
" clip-path="url(#pf21e200128)" style="fill: #d9d9d9"/>
   </g>
   <g id="patch_7">
    <path d="M 125.254844 124.579063 
C 125.254844 124.579063 125.254844 124.579063 125.254844 124.579063 
C 125.254844 124.579063 125.254844 124.579063 125.254844 124.579063 
L 125.254844 124.579063 
C 125.254844 124.579063 125.254844 124.579063 125.254844 124.579063 
C 125.254844 124.579063 125.254844 124.579063 125.254844 124.579063 
z
" clip-path="url(#pf21e200128)" style="fill: #d9d9d9"/>
   </g>
   <g id="patch_8">
    <path d="M 125.254844 124.579063 
C 125.254844 124.579063 125.254844 124.579063 125.254844 124.579063 
C 125.254844 124.579063 125.254844 124.579063 125.254844 124.579063 
L 125.254844 124.579063 
C 125.254844 124.579063 125.254844 124.579063 125.254844 124.579063 
C 125.254844 124.579063 125.254844 124.579063 125.254844 124.579063 
z
" clip-path="url(#pf21e200128)" style="fill: #d9d9d9"/>
   </g>
   <g id="patch_9">
    <path d="M 125.254844 124.579063 
C 125.254844 124.579063 125.254844 124.579063 125.254844 124.579063 
C 125.254844 124.579063 125.254844 124.579063 125.254844 124.579063 
L 125.254844 124.579063 
C 125.254844 124.579063 125.254844 124.579063 125.254844 124.579063 
C 125.254844 124.579063 125.254844 124.579063 125.254844 124.579063 
z
" clip-path="url(#pf21e200128)" style="fill: #d9d9d9"/>
   </g>
   <g id="patch_10">
    <path d="M 125.254844 124.579063 
C 125.254844 124.579063 125.254844 124.579063 125.254844 124.579063 
C 125.254844 124.579063 125.254844 124.579063 125.254844 124.579063 
L 125.254844 124.579063 
C 125.254844 124.579063 125.254844 124.579063 125.254844 124.579063 
C 125.254844 124.579063 125.254844 124.579063 125.254844 124.579063 
z
" clip-path="url(#pf21e200128)" style="fill: #d9d9d9"/>
   </g>
   <g id="patch_11">
    <path d="M 125.254844 124.579063 
C 125.254844 124.579063 125.254844 124.579063 125.254844 124.579063 
C 125.254844 124.579063 125.254844 124.579063 125.254844 124.579063 
L 125.254844 124.579063 
C 125.254844 124.579063 125.254844 124.579063 125.254844 124.579063 
C 125.254844 124.579063 125.254844 124.579063 125.254844 124.579063 
z
" clip-path="url(#pf21e200128)" style="fill: #d9d9d9"/>
   </g>
   <g id="patch_12">
    <path d="M 125.254844 124.579063 
C 125.254844 124.579063 125.254844 124.579063 125.254844 124.579063 
C 125.254844 124.579063 125.254844 124.579063 125.254844 124.579063 
L 125.254844 124.579063 
C 125.254844 124.579063 125.254844 124.579063 125.254844 124.579063 
C 125.254844 124.579063 125.254844 124.579063 125.254844 124.579063 
z
" clip-path="url(#pf21e200128)" style="fill: #d9d9d9"/>
   </g>
   <g id="patch_13">
    <path d="M 125.254844 124.579063 
C 125.254844 124.579063 125.254844 124.579063 125.254844 124.579063 
C 125.254844 124.579063 125.254844 124.579063 125.254844 124.579063 
L 125.254844 124.579063 
C 125.254844 124.579063 125.254844 124.579063 125.254844 124.579063 
C 125.254844 124.579063 125.254844 124.579063 125.254844 124.579063 
z
" clip-path="url(#pf21e200128)" style="fill: #d9d9d9"/>
   </g>
   <g id="patch_14">
    <path d="M 125.254844 124.579063 
C 125.254844 124.579063 125.254844 124.579063 125.254844 124.579063 
C 125.254844 124.579063 125.254844 124.579063 125.254844 124.579063 
L 125.254844 124.579063 
C 125.254844 124.579063 125.254844 124.579063 125.254844 124.579063 
C 125.254844 124.579063 125.254844 124.579063 125.254844 124.579063 
z
" clip-path="url(#pf21e200128)" style="fill: #d9d9d9"/>
   </g>
   <g id="patch_15">
    <path d="M 125.254844 124.579063 
C 125.254844 124.579063 125.254844 124.579063 125.254844 124.579063 
C 125.254844 124.579063 125.254844 124.579063 125.254844 124.579063 
L 125.254844 124.579063 
C 125.254844 124.579063 125.254844 124.579063 125.254844 124.579063 
C 125.254844 124.579063 125.254844 124.579063 125.254844 124.579063 
z
" clip-path="url(#pf21e200128)" style="fill: #d9d9d9"/>
   </g>
   <g id="patch_16">
    <path d="M 125.254844 124.579063 
C 125.254844 124.579063 125.254844 124.579063 125.254844 124.579063 
C 125.254844 124.579063 125.254844 124.579063 125.254844 124.579063 
L 125.254844 124.579063 
C 125.254844 124.579063 125.254844 124.579063 125.254844 124.579063 
C 125.254844 124.579063 125.254844 124.579063 125.254844 124.579063 
z
" clip-path="url(#pf21e200128)" style="fill: #d9d9d9"/>
   </g>
   <g id="patch_17">
    <path d="M 125.254844 124.579063 
C 125.254844 124.579063 125.254844 124.579063 125.254844 124.579063 
C 125.254844 124.579063 125.254844 124.579063 125.254844 124.579063 
L 125.254844 124.579063 
C 125.254844 124.579063 125.254844 124.579063 125.254844 124.579063 
C 125.254844 124.579063 125.254844 124.579063 125.254844 124.579063 
z
" clip-path="url(#pf21e200128)" style="fill: #d9d9d9"/>
   </g>
   <g id="patch_18">
    <path d="M 125.254844 124.579063 
C 125.254844 124.579063 125.254844 124.579063 125.254844 124.579063 
C 125.254844 124.579063 125.254844 124.579063 125.254844 124.579063 
L 125.254844 124.579063 
C 125.254844 124.579063 125.254844 124.579063 125.254844 124.579063 
C 125.254844 124.579063 125.254844 124.579063 125.254844 124.579063 
z
" clip-path="url(#pf21e200128)" style="fill: #d9d9d9"/>
   </g>
   <g id="patch_19">
    <path d="M 125.254844 124.579063 
C 125.254844 124.579063 125.254844 124.579063 125.254844 124.579063 
C 125.254844 124.579063 125.254844 124.579063 125.254844 124.579063 
L 125.254844 124.579063 
C 125.254844 124.579063 125.254844 124.579063 125.254844 124.579063 
C 125.254844 124.579063 125.254844 124.579063 125.254844 124.579063 
z
" clip-path="url(#pf21e200128)" style="fill: #d9d9d9"/>
   </g>
   <g id="patch_20">
    <path d="M 125.254844 124.579063 
C 125.254844 124.579063 125.254844 124.579063 125.254844 124.579063 
C 125.254844 124.579063 125.254844 124.579063 125.254844 124.579063 
L 125.254844 124.579063 
C 125.254844 124.579063 125.254844 124.579063 125.254844 124.579063 
C 125.254844 124.579063 125.254844 124.579063 125.254844 124.579063 
z
" clip-path="url(#pf21e200128)" style="fill: #d9d9d9"/>
   </g>
   <g id="patch_21">
    <path d="M 125.254844 124.579063 
C 125.254844 124.579063 125.254844 124.579063 125.254844 124.579063 
C 125.254844 124.579063 125.254844 124.579063 125.254844 124.579063 
L 125.254844 124.579063 
C 125.254844 124.579063 125.254844 124.579063 125.254844 124.579063 
C 125.254844 124.579063 125.254844 124.579063 125.254844 124.579063 
z
" clip-path="url(#pf21e200128)" style="fill: #d9d9d9"/>
   </g>
   <g id="patch_22">
    <path d="M 125.254844 124.579063 
C 125.254844 124.579063 125.254844 124.579063 125.254844 124.579063 
C 125.254844 124.579063 125.254844 124.579063 125.254844 124.579063 
L 125.254844 124.579063 
C 125.254844 124.579063 125.254844 124.579063 125.254844 124.579063 
C 125.254844 124.579063 125.254844 124.579063 125.254844 124.579063 
z
" clip-path="url(#pf21e200128)" style="fill: #d9d9d9"/>
   </g>
   <g id="patch_23">
    <path d="M 125.254844 124.579063 
C 125.254844 124.579063 125.254844 124.579063 125.254844 124.579063 
C 125.254844 124.579063 125.254844 124.579063 125.254844 124.579063 
L 125.254844 124.579063 
C 125.254844 124.579063 125.254844 124.579063 125.254844 124.579063 
C 125.254844 124.579063 125.254844 124.579063 125.254844 124.579063 
z
" clip-path="url(#pf21e200128)" style="fill: #d9d9d9"/>
   </g>
   <g id="patch_24">
    <path d="M 125.254844 124.579063 
C 125.254844 124.579063 125.254844 124.579063 125.254844 124.579063 
C 125.254844 124.579063 125.254844 124.579063 125.254844 124.579063 
L 125.254844 124.579063 
C 125.254844 124.579063 125.254844 124.579063 125.254844 124.579063 
C 125.254844 124.579063 125.254844 124.579063 125.254844 124.579063 
z
" clip-path="url(#pf21e200128)" style="fill: #d9d9d9"/>
   </g>
   <g id="patch_25">
    <path d="M 125.254844 124.579063 
C 125.254844 124.579063 125.254844 124.579063 125.254844 124.579063 
C 125.254844 124.579063 125.254844 124.579063 125.254844 124.579063 
L 125.254844 124.579063 
C 125.254844 124.579063 125.254844 124.579063 125.254844 124.579063 
C 125.254844 124.579063 125.254844 124.579063 125.254844 124.579063 
z
" clip-path="url(#pf21e200128)" style="fill: #d9d9d9"/>
   </g>
   <g id="patch_26">
    <path d="M 125.254844 124.579063 
C 125.254844 124.579063 125.254844 124.579063 125.254844 124.579063 
C 125.254844 124.579063 125.254844 124.579063 125.254844 124.579063 
L 125.254844 124.579063 
C 125.254844 124.579063 125.254844 124.579063 125.254844 124.579063 
C 125.254844 124.579063 125.254844 124.579063 125.254844 124.579063 
z
" clip-path="url(#pf21e200128)" style="fill: #d9d9d9"/>
   </g>
   <g id="patch_27">
    <path d="M 125.254844 124.579063 
C 125.254844 124.579063 125.254844 124.579063 125.254844 124.579063 
C 125.254844 124.579063 125.254844 124.579063 125.254844 124.579063 
L 125.254844 124.579063 
C 125.254844 124.579063 125.254844 124.579063 125.254844 124.579063 
C 125.254844 124.579063 125.254844 124.579063 125.254844 124.579063 
z
" clip-path="url(#pf21e200128)" style="fill: #d9d9d9"/>
   </g>
   <g id="patch_28">
    <path d="M 125.254844 124.579063 
C 125.254844 124.579063 125.254844 124.579063 125.254844 124.579063 
C 125.254844 124.579063 125.254844 124.579063 125.254844 124.579063 
L 125.254844 124.579063 
C 125.254844 124.579063 125.254844 124.579063 125.254844 124.579063 
C 125.254844 124.579063 125.254844 124.579063 125.254844 124.579063 
z
" clip-path="url(#pf21e200128)" style="fill: #d9d9d9"/>
   </g>
   <g id="patch_29">
    <path d="M 125.254844 124.579063 
C 125.254844 124.579063 125.254844 124.579063 125.254844 124.579063 
C 125.254844 124.579063 125.254844 124.579063 125.254844 124.579063 
L 125.254844 124.579063 
C 125.254844 124.579063 125.254844 124.579063 125.254844 124.579063 
C 125.254844 124.579063 125.254844 124.579063 125.254844 124.579063 
z
" clip-path="url(#pf21e200128)" style="fill: #d9d9d9"/>
   </g>
   <g id="patch_30">
    <path d="M 125.254844 124.579063 
C 125.254844 124.579063 125.254844 124.579063 125.254844 124.579063 
C 125.254844 124.579063 125.254844 124.579063 125.254844 124.579063 
L 125.254844 124.579063 
C 125.254844 124.579063 125.254844 124.579063 125.254844 124.579063 
C 125.254844 124.579063 125.254844 124.579063 125.254844 124.579063 
z
" clip-path="url(#pf21e200128)" style="fill: #d9d9d9"/>
   </g>
   <g id="patch_31">
    <path d="M 125.254844 124.579063 
C 125.254844 124.579063 125.254844 124.579063 125.254844 124.579063 
C 125.254844 124.579063 125.254844 124.579063 125.254844 124.579063 
L 125.254844 124.579063 
C 125.254844 124.579063 125.254844 124.579063 125.254844 124.579063 
C 125.254844 124.579063 125.254844 124.579063 125.254844 124.579063 
z
" clip-path="url(#pf21e200128)" style="fill: #d9d9d9"/>
   </g>
   <g id="patch_32">
    <path d="M 125.254844 124.579063 
C 125.254844 124.579063 125.254844 124.579063 125.254844 124.579063 
C 125.254844 124.579063 125.254844 124.579063 125.254844 124.579063 
L 125.254844 124.579063 
C 125.254844 124.579063 125.254844 124.579063 125.254844 124.579063 
C 125.254844 124.579063 125.254844 124.579063 125.254844 124.579063 
z
" clip-path="url(#pf21e200128)" style="fill: #d9d9d9"/>
   </g>
   <g id="patch_33">
    <path d="M 125.254844 124.579063 
C 125.254844 124.579063 125.254844 124.579063 125.254844 124.579063 
C 125.254844 124.579063 125.254844 124.579063 125.254844 124.579063 
L 125.254844 124.579063 
C 125.254844 124.579063 125.254844 124.579063 125.254844 124.579063 
C 125.254844 124.579063 125.254844 124.579063 125.254844 124.579063 
z
" clip-path="url(#pf21e200128)" style="fill: #d9d9d9"/>
   </g>
   <g id="patch_34">
    <path d="M 125.254844 124.579063 
C 125.254844 124.579063 125.254844 124.579063 125.254844 124.579063 
C 125.254844 124.579063 125.254844 124.579063 125.254844 124.579063 
L 125.254844 124.579063 
C 125.254844 124.579063 125.254844 124.579063 125.254844 124.579063 
C 125.254844 124.579063 125.254844 124.579063 125.254844 124.579063 
z
" clip-path="url(#pf21e200128)" style="fill: #d9d9d9"/>
   </g>
   <g id="patch_35">
    <path d="M 125.254844 124.579063 
C 125.254844 124.579063 125.254844 124.579063 125.254844 124.579063 
C 125.254844 124.579063 125.254844 124.579063 125.254844 124.579063 
L 126.493383 112.003959 
C 126.081781 111.96342 125.668437 111.943114 125.254844 111.943114 
C 124.84125 111.943114 124.427906 111.96342 124.016304 112.003959 
z
" clip-path="url(#pf21e200128)" style="fill: #badbb8"/>
   </g>
   <g id="patch_36">
    <path d="M 125.254844 124.579063 
C 125.254844 124.579063 125.254844 124.579063 125.254844 124.579063 
C 125.254844 124.579063 125.254844 124.579063 125.254844 124.579063 
L 130.166575 108.387253 
C 129.636593 108.226485 129.099037 108.091834 128.555849 107.983787 
C 128.012661 107.875741 127.464496 107.794428 126.913333 107.740143 
z
" clip-path="url(#pf21e200128)" style="fill: #badbb8"/>
   </g>
   <g id="patch_37">
    <path d="M 125.254844 124.579063 
C 125.254844 124.579063 125.254844 124.579063 125.254844 124.579063 
C 125.254844 124.579063 125.254844 124.579063 125.254844 124.579063 
L 125.254844 124.579063 
C 125.254844 124.579063 125.254844 124.579063 125.254844 124.579063 
C 125.254844 124.579063 125.254844 124.579063 125.254844 124.579063 
z
" clip-path="url(#pf21e200128)" style="fill: #badbb8"/>
   </g>
   <g id="patch_38">
    <path d="M 125.254844 124.579063 
C 125.254844 124.579063 125.254844 124.579063 125.254844 124.579063 
C 125.254844 124.579063 125.254844 124.579063 125.254844 124.579063 
L 136.394235 111.005676 
C 135.949957 110.641067 135.488047 110.29849 135.010171 109.979184 
C 134.532295 109.659877 134.03903 109.364226 133.532158 109.093297 
z
" clip-path="url(#pf21e200128)" style="fill: #badbb8"/>
   </g>
   <g id="patch_39">
    <path d="M 125.254844 124.579063 
C 125.254844 124.579063 125.254844 124.579063 125.254844 124.579063 
C 125.254844 124.579063 125.254844 124.579063 125.254844 124.579063 
L 125.254844 124.579063 
C 125.254844 124.579063 125.254844 124.579063 125.254844 124.579063 
C 125.254844 124.579063 125.254844 124.579063 125.254844 124.579063 
z
" clip-path="url(#pf21e200128)" style="fill: #badbb8"/>
   </g>
   <g id="patch_40">
    <path d="M 125.254844 124.579063 
C 125.254844 124.579063 125.254844 124.579063 125.254844 124.579063 
C 125.254844 124.579063 125.254844 124.579063 125.254844 124.579063 
L 125.254844 124.579063 
C 125.254844 124.579063 125.254844 124.579063 125.254844 124.579063 
C 125.254844 124.579063 125.254844 124.579063 125.254844 124.579063 
z
" clip-path="url(#pf21e200128)" style="fill: #badbb8"/>
   </g>
   <g id="patch_41">
    <path d="M 125.254844 124.579063 
C 125.254844 124.579063 125.254844 124.579063 125.254844 124.579063 
C 125.254844 124.579063 125.254844 124.579063 125.254844 124.579063 
L 165.296061 112.432692 
C 164.898492 111.122083 164.436815 109.831784 163.912699 108.566455 
C 163.388582 107.301125 162.802657 106.062291 162.157041 104.854427 
z
" clip-path="url(#pf21e200128)" style="fill: #badbb8"/>
   </g>
   <g id="patch_42">
    <path d="M 125.254844 124.579063 
C 125.254844 124.579063 125.254844 124.579063 125.254844 124.579063 
C 125.254844 124.579063 125.254844 124.579063 125.254844 124.579063 
L 161.051832 121.053367 
C 160.93643 119.881678 160.763572 118.716361 160.533881 117.561626 
C 160.30419 116.40689 160.017943 115.264128 159.676174 114.137466 
z
" clip-path="url(#pf21e200128)" style="fill: #badbb8"/>
   </g>
   <g id="patch_43">
    <path d="M 125.254844 124.579063 
C 125.254844 124.579063 125.254844 124.579063 125.254844 124.579063 
C 125.254844 124.579063 125.254844 124.579063 125.254844 124.579063 
L 160.514654 128.051851 
C 160.628324 126.897744 160.685261 125.738753 160.685261 124.579063 
C 160.685261 123.419372 160.628324 122.260381 160.514654 121.106274 
z
" clip-path="url(#pf21e200128)" style="fill: #badbb8"/>
   </g>
   <g id="patch_44">
    <path d="M 125.254844 124.579063 
C 125.254844 124.579063 125.254844 124.579063 125.254844 124.579063 
C 125.254844 124.579063 125.254844 124.579063 125.254844 124.579063 
L 125.254844 124.579063 
C 125.254844 124.579063 125.254844 124.579063 125.254844 124.579063 
C 125.254844 124.579063 125.254844 124.579063 125.254844 124.579063 
z
" clip-path="url(#pf21e200128)" style="fill: #badbb8"/>
   </g>
   <g id="patch_45">
    <path d="M 125.254844 124.579063 
C 125.254844 124.579063 125.254844 124.579063 125.254844 124.579063 
C 125.254844 124.579063 125.254844 124.579063 125.254844 124.579063 
L 125.254844 124.579063 
C 125.254844 124.579063 125.254844 124.579063 125.254844 124.579063 
C 125.254844 124.579063 125.254844 124.579063 125.254844 124.579063 
z
" clip-path="url(#pf21e200128)" style="fill: #badbb8"/>
   </g>
   <g id="patch_46">
    <path d="M 125.254844 124.579063 
C 125.254844 124.579063 125.254844 124.579063 125.254844 124.579063 
C 125.254844 124.579063 125.254844 124.579063 125.254844 124.579063 
L 125.254844 124.579063 
C 125.254844 124.579063 125.254844 124.579063 125.254844 124.579063 
C 125.254844 124.579063 125.254844 124.579063 125.254844 124.579063 
z
" clip-path="url(#pf21e200128)" style="fill: #badbb8"/>
   </g>
   <g id="patch_47">
    <path d="M 125.254844 124.579063 
C 125.254844 124.579063 125.254844 124.579063 125.254844 124.579063 
C 125.254844 124.579063 125.254844 124.579063 125.254844 124.579063 
L 125.254844 124.579063 
C 125.254844 124.579063 125.254844 124.579063 125.254844 124.579063 
C 125.254844 124.579063 125.254844 124.579063 125.254844 124.579063 
z
" clip-path="url(#pf21e200128)" style="fill: #badbb8"/>
   </g>
   <g id="patch_48">
    <path d="M 125.254844 124.579063 
C 125.254844 124.579063 125.254844 124.579063 125.254844 124.579063 
C 125.254844 124.579063 125.254844 124.579063 125.254844 124.579063 
L 125.254844 124.579063 
C 125.254844 124.579063 125.254844 124.579063 125.254844 124.579063 
C 125.254844 124.579063 125.254844 124.579063 125.254844 124.579063 
z
" clip-path="url(#pf21e200128)" style="fill: #badbb8"/>
   </g>
   <g id="patch_49">
    <path d="M 125.254844 124.579063 
C 125.254844 124.579063 125.254844 124.579063 125.254844 124.579063 
C 125.254844 124.579063 125.254844 124.579063 125.254844 124.579063 
L 125.254844 124.579063 
C 125.254844 124.579063 125.254844 124.579063 125.254844 124.579063 
C 125.254844 124.579063 125.254844 124.579063 125.254844 124.579063 
z
" clip-path="url(#pf21e200128)" style="fill: #badbb8"/>
   </g>
   <g id="patch_50">
    <path d="M 125.254844 124.579063 
C 125.254844 124.579063 125.254844 124.579063 125.254844 124.579063 
C 125.254844 124.579063 125.254844 124.579063 125.254844 124.579063 
L 125.254844 124.579063 
C 125.254844 124.579063 125.254844 124.579063 125.254844 124.579063 
C 125.254844 124.579063 125.254844 124.579063 125.254844 124.579063 
z
" clip-path="url(#pf21e200128)" style="fill: #badbb8"/>
   </g>
   <g id="patch_51">
    <path d="M 125.254844 124.579063 
C 125.254844 124.579063 125.254844 124.579063 125.254844 124.579063 
C 125.254844 124.579063 125.254844 124.579063 125.254844 124.579063 
L 125.254844 124.579063 
C 125.254844 124.579063 125.254844 124.579063 125.254844 124.579063 
C 125.254844 124.579063 125.254844 124.579063 125.254844 124.579063 
z
" clip-path="url(#pf21e200128)" style="fill: #badbb8"/>
   </g>
   <g id="patch_52">
    <path d="M 125.254844 124.579063 
C 125.254844 124.579063 125.254844 124.579063 125.254844 124.579063 
C 125.254844 124.579063 125.254844 124.579063 125.254844 124.579063 
L 125.254844 124.579063 
C 125.254844 124.579063 125.254844 124.579063 125.254844 124.579063 
C 125.254844 124.579063 125.254844 124.579063 125.254844 124.579063 
z
" clip-path="url(#pf21e200128)" style="fill: #badbb8"/>
   </g>
   <g id="patch_53">
    <path d="M 125.254844 124.579063 
C 125.254844 124.579063 125.254844 124.579063 125.254844 124.579063 
C 125.254844 124.579063 125.254844 124.579063 125.254844 124.579063 
L 125.254844 124.579063 
C 125.254844 124.579063 125.254844 124.579063 125.254844 124.579063 
C 125.254844 124.579063 125.254844 124.579063 125.254844 124.579063 
z
" clip-path="url(#pf21e200128)" style="fill: #badbb8"/>
   </g>
   <g id="patch_54">
    <path d="M 125.254844 124.579063 
C 125.254844 124.579063 125.254844 124.579063 125.254844 124.579063 
C 125.254844 124.579063 125.254844 124.579063 125.254844 124.579063 
L 120.547592 130.314865 
C 120.735333 130.468941 120.930526 130.613706 121.132466 130.748637 
C 121.334405 130.883569 121.542848 131.008504 121.75704 131.122993 
z
" clip-path="url(#pf21e200128)" style="fill: #badbb8"/>
   </g>
   <g id="patch_55">
    <path d="M 125.254844 124.579063 
C 125.254844 124.579063 125.254844 124.579063 125.254844 124.579063 
C 125.254844 124.579063 125.254844 124.579063 125.254844 124.579063 
L 114.994328 132.999651 
C 115.269946 133.335493 115.561887 133.6576 115.869097 133.96481 
C 116.176306 134.272019 116.498414 134.56396 116.834256 134.839579 
z
" clip-path="url(#pf21e200128)" style="fill: #badbb8"/>
   </g>
   <g id="patch_56">
    <path d="M 125.254844 124.579063 
C 125.254844 124.579063 125.254844 124.579063 125.254844 124.579063 
C 125.254844 124.579063 125.254844 124.579063 125.254844 124.579063 
L 106.861859 134.410318 
C 107.18365 135.012348 107.534806 135.598216 107.914058 136.165805 
C 108.293309 136.733395 108.700199 137.282023 109.133258 137.809706 
z
" clip-path="url(#pf21e200128)" style="fill: #badbb8"/>
   </g>
   <g id="patch_57">
    <path d="M 125.254844 124.579063 
C 125.254844 124.579063 125.254844 124.579063 125.254844 124.579063 
C 125.254844 124.579063 125.254844 124.579063 125.254844 124.579063 
L 105.80911 130.477861 
C 106.002186 131.114349 106.226396 131.740974 106.480929 132.355472 
C 106.735463 132.969971 107.020013 133.571602 107.333552 134.158192 
z
" clip-path="url(#pf21e200128)" style="fill: #badbb8"/>
   </g>
   <g id="patch_58">
    <path d="M 125.254844 124.579063 
C 125.254844 124.579063 125.254844 124.579063 125.254844 124.579063 
C 125.254844 124.579063 125.254844 124.579063 125.254844 124.579063 
L 106.284093 126.447518 
C 106.34525 127.068459 106.436857 127.686023 106.558583 128.29798 
C 106.680309 128.909937 106.832006 129.515548 107.013128 130.112626 
z
" clip-path="url(#pf21e200128)" style="fill: #badbb8"/>
   </g>
   <g id="patch_59">
    <path d="M 125.254844 124.579063 
C 125.254844 124.579063 125.254844 124.579063 125.254844 124.579063 
C 125.254844 124.579063 125.254844 124.579063 125.254844 124.579063 
L 98.527967 121.946695 
C 98.441806 122.821505 98.398647 123.700019 98.398647 124.579063 
C 98.398647 125.458106 98.441806 126.33662 98.527967 127.21143 
z
" clip-path="url(#pf21e200128)" style="fill: #badbb8"/>
   </g>
   <g id="patch_60">
    <path d="M 125.254844 124.579063 
C 125.254844 124.579063 125.254844 124.579063 125.254844 124.579063 
C 125.254844 124.579063 125.254844 124.579063 125.254844 124.579063 
L 87.083044 112.999774 
C 86.704037 114.249194 86.386601 115.516469 86.131883 116.797022 
C 85.877165 118.077575 85.685473 119.369862 85.557498 120.669215 
z
" clip-path="url(#pf21e200128)" style="fill: #badbb8"/>
   </g>
   <g id="patch_61">
    <path d="M 125.254844 124.579063 
C 125.254844 124.579063 125.254844 124.579063 125.254844 124.579063 
C 125.254844 124.579063 125.254844 124.579063 125.254844 124.579063 
L 48.912104 83.773018 
C 47.576462 86.27183 46.364309 88.834712 45.280024 91.452407 
C 44.195739 94.070103 43.240629 96.739456 42.418144 99.450824 
z
" clip-path="url(#pf21e200128)" style="fill: #badbb8"/>
   </g>
   <g id="patch_62">
    <path d="M 125.254844 124.579063 
C 125.254844 124.579063 125.254844 124.579063 125.254844 124.579063 
C 125.254844 124.579063 125.254844 124.579063 125.254844 124.579063 
L 91.031755 96.492899 
C 90.112452 97.613072 89.248702 98.777705 88.443623 99.982591 
C 87.638543 101.187477 86.893106 102.431164 86.210003 103.70916 
z
" clip-path="url(#pf21e200128)" style="fill: #badbb8"/>
   </g>
   <g id="patch_63">
    <path d="M 125.254844 124.579063 
C 125.254844 124.579063 125.254844 124.579063 125.254844 124.579063 
C 125.254844 124.579063 125.254844 124.579063 125.254844 124.579063 
L 108.948445 104.709658 
C 108.29809 105.243391 107.674331 105.808733 107.079423 106.403642 
C 106.484514 106.99855 105.919172 107.622309 105.38544 108.272664 
z
" clip-path="url(#pf21e200128)" style="fill: #badbb8"/>
   </g>
   <g id="patch_64">
    <path d="M 125.254844 124.579063 
C 125.254844 124.579063 125.254844 124.579063 125.254844 124.579063 
C 125.254844 124.579063 125.254844 124.579063 125.254844 124.579063 
L 117.202295 109.513803 
C 116.709186 109.777375 116.229316 110.064999 115.764417 110.375634 
C 115.299517 110.68627 114.850149 111.019544 114.417936 111.374252 
z
" clip-path="url(#pf21e200128)" style="fill: #badbb8"/>
   </g>
   <g id="patch_65">
    <path d="M 125.254844 124.579063 
C 125.254844 124.579063 125.254844 124.579063 125.254844 124.579063 
C 125.254844 124.579063 125.254844 124.579063 125.254844 124.579063 
L 115.129049 91.198792 
C 114.036463 91.530224 112.960808 91.9151 111.905969 92.352028 
C 110.85113 92.788957 109.818379 93.277412 108.811446 93.815629 
z
" clip-path="url(#pf21e200128)" style="fill: #badbb8"/>
   </g>
   <g id="patch_66">
    <path d="M 125.254844 124.579063 
C 125.254844 124.579063 125.254844 124.579063 125.254844 124.579063 
C 125.254844 124.579063 125.254844 124.579063 125.254844 124.579063 
L 122.71451 98.786619 
C 121.870285 98.869768 121.030651 98.994316 120.198641 99.159813 
C 119.366631 99.32531 118.543248 99.531557 117.731466 99.777808 
z
" clip-path="url(#pf21e200128)" style="fill: #badbb8"/>
   </g>
   <g id="patch_67">
    <path d="M 124.016304 112.003959 
C 124.427906 111.96342 124.84125 111.943114 125.254844 111.943114 
C 125.668437 111.943114 126.081781 111.96342 126.493383 112.003959 
L 126.493383 112.003959 
C 126.081781 111.96342 125.668437 111.943114 125.254844 111.943114 
C 124.84125 111.943114 124.427906 111.96342 124.016304 112.003959 
z
" clip-path="url(#pf21e200128)" style="fill: #a1a1d8"/>
   </g>
   <g id="patch_68">
    <path d="M 126.913333 107.740143 
C 127.464496 107.794428 128.012661 107.875741 128.555849 107.983787 
C 129.099037 108.091834 129.636593 108.226485 130.166575 108.387253 
L 130.166575 108.387253 
C 129.636593 108.226485 129.099037 108.091834 128.555849 107.983787 
C 128.012661 107.875741 127.464496 107.794428 126.913333 107.740143 
z
" clip-path="url(#pf21e200128)" style="fill: #a1a1d8"/>
   </g>
   <g id="patch_69">
    <path d="M 125.254844 124.579063 
C 125.254844 124.579063 125.254844 124.579063 125.254844 124.579063 
C 125.254844 124.579063 125.254844 124.579063 125.254844 124.579063 
L 125.254844 124.579063 
C 125.254844 124.579063 125.254844 124.579063 125.254844 124.579063 
C 125.254844 124.579063 125.254844 124.579063 125.254844 124.579063 
z
" clip-path="url(#pf21e200128)" style="fill: #a1a1d8"/>
   </g>
   <g id="patch_70">
    <path d="M 133.532158 109.093297 
C 134.03903 109.364226 134.532295 109.659877 135.010171 109.979184 
C 135.488047 110.29849 135.949957 110.641067 136.394235 111.005676 
L 155.174604 88.121729 
C 153.981301 87.142411 152.740635 86.222271 151.457089 85.364632 
C 150.173542 84.506993 148.848661 83.71289 147.487231 82.985191 
z
" clip-path="url(#pf21e200128)" style="fill: #a1a1d8"/>
   </g>
   <g id="patch_71">
    <path d="M 125.254844 124.579063 
C 125.254844 124.579063 125.254844 124.579063 125.254844 124.579063 
C 125.254844 124.579063 125.254844 124.579063 125.254844 124.579063 
L 125.254844 124.579063 
C 125.254844 124.579063 125.254844 124.579063 125.254844 124.579063 
C 125.254844 124.579063 125.254844 124.579063 125.254844 124.579063 
z
" clip-path="url(#pf21e200128)" style="fill: #a1a1d8"/>
   </g>
   <g id="patch_72">
    <path d="M 125.254844 124.579063 
C 125.254844 124.579063 125.254844 124.579063 125.254844 124.579063 
C 125.254844 124.579063 125.254844 124.579063 125.254844 124.579063 
L 125.254844 124.579063 
C 125.254844 124.579063 125.254844 124.579063 125.254844 124.579063 
C 125.254844 124.579063 125.254844 124.579063 125.254844 124.579063 
z
" clip-path="url(#pf21e200128)" style="fill: #a1a1d8"/>
   </g>
   <g id="patch_73">
    <path d="M 162.157041 104.854427 
C 162.802657 106.062291 163.388582 107.301125 163.912699 108.566455 
C 164.436815 109.831784 164.898492 111.122083 165.296061 112.432692 
L 177.433224 108.750924 
C 176.915145 107.043048 176.313527 105.361637 175.630542 103.712765 
C 174.947557 102.063893 174.184028 100.449548 173.342714 98.87556 
z
" clip-path="url(#pf21e200128)" style="fill: #a1a1d8"/>
   </g>
   <g id="patch_74">
    <path d="M 159.676174 114.137466 
C 160.017943 115.264128 160.30419 116.40689 160.533881 117.561626 
C 160.763572 118.716361 160.93643 119.881678 161.051832 121.053367 
L 195.192129 117.690841 
C 194.966667 115.401689 194.62895 113.124987 194.180198 110.868957 
C 193.731446 108.612927 193.172199 106.38029 192.504478 104.179109 
z
" clip-path="url(#pf21e200128)" style="fill: #a1a1d8"/>
   </g>
   <g id="patch_75">
    <path d="M 160.514654 121.106274 
C 160.628324 122.260381 160.685261 123.419372 160.685261 124.579063 
C 160.685261 125.738753 160.628324 126.897744 160.514654 128.051851 
L 160.514654 128.051851 
C 160.628324 126.897744 160.685261 125.738753 160.685261 124.579063 
C 160.685261 123.419372 160.628324 122.260381 160.514654 121.106274 
z
" clip-path="url(#pf21e200128)" style="fill: #a1a1d8"/>
   </g>
   <g id="patch_76">
    <path d="M 125.254844 124.579063 
C 125.254844 124.579063 125.254844 124.579063 125.254844 124.579063 
C 125.254844 124.579063 125.254844 124.579063 125.254844 124.579063 
L 125.254844 124.579063 
C 125.254844 124.579063 125.254844 124.579063 125.254844 124.579063 
C 125.254844 124.579063 125.254844 124.579063 125.254844 124.579063 
z
" clip-path="url(#pf21e200128)" style="fill: #a1a1d8"/>
   </g>
   <g id="patch_77">
    <path d="M 125.254844 124.579063 
C 125.254844 124.579063 125.254844 124.579063 125.254844 124.579063 
C 125.254844 124.579063 125.254844 124.579063 125.254844 124.579063 
L 125.254844 124.579063 
C 125.254844 124.579063 125.254844 124.579063 125.254844 124.579063 
C 125.254844 124.579063 125.254844 124.579063 125.254844 124.579063 
z
" clip-path="url(#pf21e200128)" style="fill: #a1a1d8"/>
   </g>
   <g id="patch_78">
    <path d="M 125.254844 124.579063 
C 125.254844 124.579063 125.254844 124.579063 125.254844 124.579063 
C 125.254844 124.579063 125.254844 124.579063 125.254844 124.579063 
L 125.254844 124.579063 
C 125.254844 124.579063 125.254844 124.579063 125.254844 124.579063 
C 125.254844 124.579063 125.254844 124.579063 125.254844 124.579063 
z
" clip-path="url(#pf21e200128)" style="fill: #a1a1d8"/>
   </g>
   <g id="patch_79">
    <path d="M 125.254844 124.579063 
C 125.254844 124.579063 125.254844 124.579063 125.254844 124.579063 
C 125.254844 124.579063 125.254844 124.579063 125.254844 124.579063 
L 125.254844 124.579063 
C 125.254844 124.579063 125.254844 124.579063 125.254844 124.579063 
C 125.254844 124.579063 125.254844 124.579063 125.254844 124.579063 
z
" clip-path="url(#pf21e200128)" style="fill: #a1a1d8"/>
   </g>
   <g id="patch_80">
    <path d="M 125.254844 124.579063 
C 125.254844 124.579063 125.254844 124.579063 125.254844 124.579063 
C 125.254844 124.579063 125.254844 124.579063 125.254844 124.579063 
L 125.254844 124.579063 
C 125.254844 124.579063 125.254844 124.579063 125.254844 124.579063 
C 125.254844 124.579063 125.254844 124.579063 125.254844 124.579063 
z
" clip-path="url(#pf21e200128)" style="fill: #a1a1d8"/>
   </g>
   <g id="patch_81">
    <path d="M 125.254844 124.579063 
C 125.254844 124.579063 125.254844 124.579063 125.254844 124.579063 
C 125.254844 124.579063 125.254844 124.579063 125.254844 124.579063 
L 125.254844 124.579063 
C 125.254844 124.579063 125.254844 124.579063 125.254844 124.579063 
C 125.254844 124.579063 125.254844 124.579063 125.254844 124.579063 
z
" clip-path="url(#pf21e200128)" style="fill: #a1a1d8"/>
   </g>
   <g id="patch_82">
    <path d="M 125.254844 124.579063 
C 125.254844 124.579063 125.254844 124.579063 125.254844 124.579063 
C 125.254844 124.579063 125.254844 124.579063 125.254844 124.579063 
L 125.254844 124.579063 
C 125.254844 124.579063 125.254844 124.579063 125.254844 124.579063 
C 125.254844 124.579063 125.254844 124.579063 125.254844 124.579063 
z
" clip-path="url(#pf21e200128)" style="fill: #a1a1d8"/>
   </g>
   <g id="patch_83">
    <path d="M 125.254844 124.579063 
C 125.254844 124.579063 125.254844 124.579063 125.254844 124.579063 
C 125.254844 124.579063 125.254844 124.579063 125.254844 124.579063 
L 125.254844 124.579063 
C 125.254844 124.579063 125.254844 124.579063 125.254844 124.579063 
C 125.254844 124.579063 125.254844 124.579063 125.254844 124.579063 
z
" clip-path="url(#pf21e200128)" style="fill: #a1a1d8"/>
   </g>
   <g id="patch_84">
    <path d="M 125.254844 124.579063 
C 125.254844 124.579063 125.254844 124.579063 125.254844 124.579063 
C 125.254844 124.579063 125.254844 124.579063 125.254844 124.579063 
L 125.254844 124.579063 
C 125.254844 124.579063 125.254844 124.579063 125.254844 124.579063 
C 125.254844 124.579063 125.254844 124.579063 125.254844 124.579063 
z
" clip-path="url(#pf21e200128)" style="fill: #a1a1d8"/>
   </g>
   <g id="patch_85">
    <path d="M 125.254844 124.579063 
C 125.254844 124.579063 125.254844 124.579063 125.254844 124.579063 
C 125.254844 124.579063 125.254844 124.579063 125.254844 124.579063 
L 125.254844 124.579063 
C 125.254844 124.579063 125.254844 124.579063 125.254844 124.579063 
C 125.254844 124.579063 125.254844 124.579063 125.254844 124.579063 
z
" clip-path="url(#pf21e200128)" style="fill: #a1a1d8"/>
   </g>
   <g id="patch_86">
    <path d="M 121.75704 131.122993 
C 121.542848 131.008504 121.334405 130.883569 121.132466 130.748637 
C 120.930526 130.613706 120.735333 130.468941 120.547592 130.314865 
L 120.547592 130.314865 
C 120.735333 130.468941 120.930526 130.613706 121.132466 130.748637 
C 121.334405 130.883569 121.542848 131.008504 121.75704 131.122993 
z
" clip-path="url(#pf21e200128)" style="fill: #a1a1d8"/>
   </g>
   <g id="patch_87">
    <path d="M 116.834256 134.839579 
C 116.498414 134.56396 116.176306 134.272019 115.869097 133.96481 
C 115.561887 133.6576 115.269946 133.335493 114.994328 132.999651 
L 114.994328 132.999651 
C 115.269946 133.335493 115.561887 133.6576 115.869097 133.96481 
C 116.176306 134.272019 116.498414 134.56396 116.834256 134.839579 
z
" clip-path="url(#pf21e200128)" style="fill: #a1a1d8"/>
   </g>
   <g id="patch_88">
    <path d="M 109.133258 137.809706 
C 108.700199 137.282023 108.293309 136.733395 107.914058 136.165805 
C 107.534806 135.598216 107.18365 135.012348 106.861859 134.410318 
L 106.861859 134.410318 
C 107.18365 135.012348 107.534806 135.598216 107.914058 136.165805 
C 108.293309 136.733395 108.700199 137.282023 109.133258 137.809706 
z
" clip-path="url(#pf21e200128)" style="fill: #a1a1d8"/>
   </g>
   <g id="patch_89">
    <path d="M 107.333552 134.158192 
C 107.020013 133.571602 106.735463 132.969971 106.480929 132.355472 
C 106.226396 131.740974 106.002186 131.114349 105.80911 130.477861 
L 105.80911 130.477861 
C 106.002186 131.114349 106.226396 131.740974 106.480929 132.355472 
C 106.735463 132.969971 107.020013 133.571602 107.333552 134.158192 
z
" clip-path="url(#pf21e200128)" style="fill: #a1a1d8"/>
   </g>
   <g id="patch_90">
    <path d="M 107.013128 130.112626 
C 106.832006 129.515548 106.680309 128.909937 106.558583 128.29798 
C 106.436857 127.686023 106.34525 127.068459 106.284093 126.447518 
L 106.284093 126.447518 
C 106.34525 127.068459 106.436857 127.686023 106.558583 128.29798 
C 106.680309 128.909937 106.832006 129.515548 107.013128 130.112626 
z
" clip-path="url(#pf21e200128)" style="fill: #a1a1d8"/>
   </g>
   <g id="patch_91">
    <path d="M 98.527967 127.21143 
C 98.441806 126.33662 98.398647 125.458106 98.398647 124.579063 
C 98.398647 123.700019 98.441806 122.821505 98.527967 121.946695 
L 98.527967 121.946695 
C 98.441806 122.821505 98.398647 123.700019 98.398647 124.579063 
C 98.398647 125.458106 98.441806 126.33662 98.527967 127.21143 
z
" clip-path="url(#pf21e200128)" style="fill: #a1a1d8"/>
   </g>
   <g id="patch_92">
    <path d="M 85.557498 120.669215 
C 85.685473 119.369862 85.877165 118.077575 86.131883 116.797022 
C 86.386601 115.516469 86.704037 114.249194 87.083044 112.999774 
L 86.29861 112.761818 
C 85.911814 114.036914 85.587855 115.330232 85.327903 116.6371 
C 85.067951 117.943969 84.872319 119.262812 84.741713 120.588867 
z
" clip-path="url(#pf21e200128)" style="fill: #a1a1d8"/>
   </g>
   <g id="patch_93">
    <path d="M 42.418144 99.450824 
C 43.240629 96.739456 44.195739 94.070103 45.280024 91.452407 
C 46.364309 88.834712 47.576462 86.27183 48.912104 83.773018 
L 27.467414 72.310592 
C 25.756589 75.511321 24.203942 78.794117 22.815081 82.147124 
C 21.42622 85.50013 20.20282 88.919305 19.149299 92.392297 
z
" clip-path="url(#pf21e200128)" style="fill: #a1a1d8"/>
   </g>
   <g id="patch_94">
    <path d="M 86.210003 103.70916 
C 86.893106 102.431164 87.638543 101.187477 88.443623 99.982591 
C 89.248702 98.777705 90.112452 97.613072 91.031755 96.492899 
L 59.730985 70.805022 
C 57.970881 72.949715 56.317135 75.179533 54.775723 77.48642 
C 53.23431 79.793306 51.807089 82.174482 50.499213 84.621345 
z
" clip-path="url(#pf21e200128)" style="fill: #a1a1d8"/>
   </g>
   <g id="patch_95">
    <path d="M 105.38544 108.272664 
C 105.919172 107.622309 106.484514 106.99855 107.079423 106.403642 
C 107.674331 105.808733 108.29809 105.243391 108.948445 104.709658 
L 77.435097 66.310532 
C 75.527881 67.875744 73.698662 69.533652 71.954047 71.278266 
C 70.209433 73.022881 68.551525 74.8521 66.986314 76.759316 
z
" clip-path="url(#pf21e200128)" style="fill: #a1a1d8"/>
   </g>
   <g id="patch_96">
    <path d="M 114.417936 111.374252 
C 114.850149 111.019544 115.299517 110.68627 115.764417 110.375634 
C 116.229316 110.064999 116.709186 109.777375 117.202295 109.513803 
L 104.620767 85.97542 
C 103.357212 86.650804 102.127578 87.387818 100.936307 88.1838 
C 99.745035 88.979782 98.593563 89.833772 97.486048 90.742686 
z
" clip-path="url(#pf21e200128)" style="fill: #a1a1d8"/>
   </g>
   <g id="patch_97">
    <path d="M 108.811446 93.815629 
C 109.818379 93.277412 110.85113 92.788957 111.905969 92.352028 
C 112.960808 91.9151 114.036463 91.530224 115.129049 91.198792 
L 111.700436 79.896167 
C 110.237898 80.339823 108.798024 80.855018 107.386014 81.439892 
C 105.974005 82.024765 104.591562 82.678612 103.243679 83.39907 
z
" clip-path="url(#pf21e200128)" style="fill: #a1a1d8"/>
   </g>
   <g id="patch_98">
    <path d="M 117.731466 99.777808 
C 118.543248 99.531557 119.366631 99.32531 120.198641 99.159813 
C 121.030651 98.994316 121.870285 98.869768 122.71451 98.786619 
L 121.797321 89.47424 
C 120.648287 89.58741 119.505503 89.756926 118.373095 89.982176 
C 117.240687 90.207426 116.120021 90.488138 115.015145 90.823299 
z
" clip-path="url(#pf21e200128)" style="fill: #a1a1d8"/>
   </g>
   <g id="patch_99">
    <path d="M 124.016304 112.003959 
C 124.427906 111.96342 124.84125 111.943114 125.254844 111.943114 
C 125.668437 111.943114 126.081781 111.96342 126.493383 112.003959 
L 135.614656 19.394119 
C 132.171796 19.055027 128.714363 18.885174 125.254844 18.885174 
C 121.795325 18.885174 118.337891 19.055027 114.895031 19.394119 
z
" clip-path="url(#pf21e200128)" style="fill: #828282"/>
   </g>
   <g id="patch_100">
    <path d="M 126.913333 107.740143 
C 127.464496 107.794428 128.012661 107.875741 128.555849 107.983787 
C 129.099037 108.091834 129.636593 108.226485 130.166575 108.387253 
L 137.721654 83.481496 
C 136.37647 83.073438 135.012061 82.731672 133.633357 82.457431 
C 132.254653 82.183189 130.863316 81.976804 129.464371 81.83902 
z
" clip-path="url(#pf21e200128)" style="fill: #828282"/>
   </g>
   <g id="patch_101">
    <path d="M 125.254844 124.579063 
C 125.254844 124.579063 125.254844 124.579063 125.254844 124.579063 
C 125.254844 124.579063 125.254844 124.579063 125.254844 124.579063 
L 125.254844 124.579063 
C 125.254844 124.579063 125.254844 124.579063 125.254844 124.579063 
C 125.254844 124.579063 125.254844 124.579063 125.254844 124.579063 
z
" clip-path="url(#pf21e200128)" style="fill: #828282"/>
   </g>
   <g id="patch_102">
    <path d="M 147.487231 82.985191 
C 148.848661 83.71289 150.173542 84.506993 151.457089 85.364632 
C 152.740635 86.222271 153.981301 87.142411 155.174604 88.121729 
L 155.174604 88.121729 
C 153.981301 87.142411 152.740635 86.222271 151.457089 85.364632 
C 150.173542 84.506993 148.848661 83.71289 147.487231 82.985191 
z
" clip-path="url(#pf21e200128)" style="fill: #828282"/>
   </g>
   <g id="patch_103">
    <path d="M 125.254844 124.579063 
C 125.254844 124.579063 125.254844 124.579063 125.254844 124.579063 
C 125.254844 124.579063 125.254844 124.579063 125.254844 124.579063 
L 125.254844 124.579063 
C 125.254844 124.579063 125.254844 124.579063 125.254844 124.579063 
C 125.254844 124.579063 125.254844 124.579063 125.254844 124.579063 
z
" clip-path="url(#pf21e200128)" style="fill: #828282"/>
   </g>
   <g id="patch_104">
    <path d="M 125.254844 124.579063 
C 125.254844 124.579063 125.254844 124.579063 125.254844 124.579063 
C 125.254844 124.579063 125.254844 124.579063 125.254844 124.579063 
L 125.254844 124.579063 
C 125.254844 124.579063 125.254844 124.579063 125.254844 124.579063 
C 125.254844 124.579063 125.254844 124.579063 125.254844 124.579063 
z
" clip-path="url(#pf21e200128)" style="fill: #828282"/>
   </g>
   <g id="patch_105">
    <path d="M 173.342714 98.87556 
C 174.184028 100.449548 174.947557 102.063893 175.630542 103.712765 
C 176.313527 105.361637 176.915145 107.043048 177.433224 108.750924 
L 177.433224 108.750924 
C 176.915145 107.043048 176.313527 105.361637 175.630542 103.712765 
C 174.947557 102.063893 174.184028 100.449548 173.342714 98.87556 
z
" clip-path="url(#pf21e200128)" style="fill: #828282"/>
   </g>
   <g id="patch_106">
    <path d="M 192.504478 104.179109 
C 193.172199 106.38029 193.731446 108.612927 194.180198 110.868957 
C 194.62895 113.124987 194.966667 115.401689 195.192129 117.690841 
L 195.192129 117.690841 
C 194.966667 115.401689 194.62895 113.124987 194.180198 110.868957 
C 193.731446 108.612927 193.172199 106.38029 192.504478 104.179109 
z
" clip-path="url(#pf21e200128)" style="fill: #828282"/>
   </g>
   <g id="patch_107">
    <path d="M 160.514654 121.106274 
C 160.628324 122.260381 160.685261 123.419372 160.685261 124.579063 
C 160.685261 125.738753 160.628324 126.897744 160.514654 128.051851 
L 160.514654 128.051851 
C 160.628324 126.897744 160.685261 125.738753 160.685261 124.579063 
C 160.685261 123.419372 160.628324 122.260381 160.514654 121.106274 
z
" clip-path="url(#pf21e200128)" style="fill: #828282"/>
   </g>
   <g id="patch_108">
    <path d="M 125.254844 124.579063 
C 125.254844 124.579063 125.254844 124.579063 125.254844 124.579063 
C 125.254844 124.579063 125.254844 124.579063 125.254844 124.579063 
L 125.254844 124.579063 
C 125.254844 124.579063 125.254844 124.579063 125.254844 124.579063 
C 125.254844 124.579063 125.254844 124.579063 125.254844 124.579063 
z
" clip-path="url(#pf21e200128)" style="fill: #828282"/>
   </g>
   <g id="patch_109">
    <path d="M 125.254844 124.579063 
C 125.254844 124.579063 125.254844 124.579063 125.254844 124.579063 
C 125.254844 124.579063 125.254844 124.579063 125.254844 124.579063 
L 125.254844 124.579063 
C 125.254844 124.579063 125.254844 124.579063 125.254844 124.579063 
C 125.254844 124.579063 125.254844 124.579063 125.254844 124.579063 
z
" clip-path="url(#pf21e200128)" style="fill: #828282"/>
   </g>
   <g id="patch_110">
    <path d="M 125.254844 124.579063 
C 125.254844 124.579063 125.254844 124.579063 125.254844 124.579063 
C 125.254844 124.579063 125.254844 124.579063 125.254844 124.579063 
L 125.254844 124.579063 
C 125.254844 124.579063 125.254844 124.579063 125.254844 124.579063 
C 125.254844 124.579063 125.254844 124.579063 125.254844 124.579063 
z
" clip-path="url(#pf21e200128)" style="fill: #828282"/>
   </g>
   <g id="patch_111">
    <path d="M 125.254844 124.579063 
C 125.254844 124.579063 125.254844 124.579063 125.254844 124.579063 
C 125.254844 124.579063 125.254844 124.579063 125.254844 124.579063 
L 125.254844 124.579063 
C 125.254844 124.579063 125.254844 124.579063 125.254844 124.579063 
C 125.254844 124.579063 125.254844 124.579063 125.254844 124.579063 
z
" clip-path="url(#pf21e200128)" style="fill: #828282"/>
   </g>
   <g id="patch_112">
    <path d="M 125.254844 124.579063 
C 125.254844 124.579063 125.254844 124.579063 125.254844 124.579063 
C 125.254844 124.579063 125.254844 124.579063 125.254844 124.579063 
L 125.254844 124.579063 
C 125.254844 124.579063 125.254844 124.579063 125.254844 124.579063 
C 125.254844 124.579063 125.254844 124.579063 125.254844 124.579063 
z
" clip-path="url(#pf21e200128)" style="fill: #828282"/>
   </g>
   <g id="patch_113">
    <path d="M 125.254844 124.579063 
C 125.254844 124.579063 125.254844 124.579063 125.254844 124.579063 
C 125.254844 124.579063 125.254844 124.579063 125.254844 124.579063 
L 125.254844 124.579063 
C 125.254844 124.579063 125.254844 124.579063 125.254844 124.579063 
C 125.254844 124.579063 125.254844 124.579063 125.254844 124.579063 
z
" clip-path="url(#pf21e200128)" style="fill: #828282"/>
   </g>
   <g id="patch_114">
    <path d="M 125.254844 124.579063 
C 125.254844 124.579063 125.254844 124.579063 125.254844 124.579063 
C 125.254844 124.579063 125.254844 124.579063 125.254844 124.579063 
L 125.254844 124.579063 
C 125.254844 124.579063 125.254844 124.579063 125.254844 124.579063 
C 125.254844 124.579063 125.254844 124.579063 125.254844 124.579063 
z
" clip-path="url(#pf21e200128)" style="fill: #828282"/>
   </g>
   <g id="patch_115">
    <path d="M 125.254844 124.579063 
C 125.254844 124.579063 125.254844 124.579063 125.254844 124.579063 
C 125.254844 124.579063 125.254844 124.579063 125.254844 124.579063 
L 125.254844 124.579063 
C 125.254844 124.579063 125.254844 124.579063 125.254844 124.579063 
C 125.254844 124.579063 125.254844 124.579063 125.254844 124.579063 
z
" clip-path="url(#pf21e200128)" style="fill: #828282"/>
   </g>
   <g id="patch_116">
    <path d="M 125.254844 124.579063 
C 125.254844 124.579063 125.254844 124.579063 125.254844 124.579063 
C 125.254844 124.579063 125.254844 124.579063 125.254844 124.579063 
L 125.254844 124.579063 
C 125.254844 124.579063 125.254844 124.579063 125.254844 124.579063 
C 125.254844 124.579063 125.254844 124.579063 125.254844 124.579063 
z
" clip-path="url(#pf21e200128)" style="fill: #828282"/>
   </g>
   <g id="patch_117">
    <path d="M 125.254844 124.579063 
C 125.254844 124.579063 125.254844 124.579063 125.254844 124.579063 
C 125.254844 124.579063 125.254844 124.579063 125.254844 124.579063 
L 125.254844 124.579063 
C 125.254844 124.579063 125.254844 124.579063 125.254844 124.579063 
C 125.254844 124.579063 125.254844 124.579063 125.254844 124.579063 
z
" clip-path="url(#pf21e200128)" style="fill: #828282"/>
   </g>
   <g id="patch_118">
    <path d="M 121.75704 131.122993 
C 121.542848 131.008504 121.334405 130.883569 121.132466 130.748637 
C 120.930526 130.613706 120.735333 130.468941 120.547592 130.314865 
L 120.547592 130.314865 
C 120.735333 130.468941 120.930526 130.613706 121.132466 130.748637 
C 121.334405 130.883569 121.542848 131.008504 121.75704 131.122993 
z
" clip-path="url(#pf21e200128)" style="fill: #828282"/>
   </g>
   <g id="patch_119">
    <path d="M 116.834256 134.839579 
C 116.498414 134.56396 116.176306 134.272019 115.869097 133.96481 
C 115.561887 133.6576 115.269946 133.335493 114.994328 132.999651 
L 114.994328 132.999651 
C 115.269946 133.335493 115.561887 133.6576 115.869097 133.96481 
C 116.176306 134.272019 116.498414 134.56396 116.834256 134.839579 
z
" clip-path="url(#pf21e200128)" style="fill: #828282"/>
   </g>
   <g id="patch_120">
    <path d="M 109.133258 137.809706 
C 108.700199 137.282023 108.293309 136.733395 107.914058 136.165805 
C 107.534806 135.598216 107.18365 135.012348 106.861859 134.410318 
L 106.861859 134.410318 
C 107.18365 135.012348 107.534806 135.598216 107.914058 136.165805 
C 108.293309 136.733395 108.700199 137.282023 109.133258 137.809706 
z
" clip-path="url(#pf21e200128)" style="fill: #828282"/>
   </g>
   <g id="patch_121">
    <path d="M 107.333552 134.158192 
C 107.020013 133.571602 106.735463 132.969971 106.480929 132.355472 
C 106.226396 131.740974 106.002186 131.114349 105.80911 130.477861 
L 105.80911 130.477861 
C 106.002186 131.114349 106.226396 131.740974 106.480929 132.355472 
C 106.735463 132.969971 107.020013 133.571602 107.333552 134.158192 
z
" clip-path="url(#pf21e200128)" style="fill: #828282"/>
   </g>
   <g id="patch_122">
    <path d="M 107.013128 130.112626 
C 106.832006 129.515548 106.680309 128.909937 106.558583 128.29798 
C 106.436857 127.686023 106.34525 127.068459 106.284093 126.447518 
L 106.284093 126.447518 
C 106.34525 127.068459 106.436857 127.686023 106.558583 128.29798 
C 106.680309 128.909937 106.832006 129.515548 107.013128 130.112626 
z
" clip-path="url(#pf21e200128)" style="fill: #828282"/>
   </g>
   <g id="patch_123">
    <path d="M 98.527967 127.21143 
C 98.441806 126.33662 98.398647 125.458106 98.398647 124.579063 
C 98.398647 123.700019 98.441806 122.821505 98.527967 121.946695 
L 98.527967 121.946695 
C 98.441806 122.821505 98.398647 123.700019 98.398647 124.579063 
C 98.398647 125.458106 98.441806 126.33662 98.527967 127.21143 
z
" clip-path="url(#pf21e200128)" style="fill: #828282"/>
   </g>
   <g id="patch_124">
    <path d="M 84.741713 120.588867 
C 84.872319 119.262812 85.067951 117.943969 85.327903 116.6371 
C 85.587855 115.330232 85.911814 114.036914 86.29861 112.761818 
L 86.29861 112.761818 
C 85.911814 114.036914 85.587855 115.330232 85.327903 116.6371 
C 85.067951 117.943969 84.872319 119.262812 84.741713 120.588867 
z
" clip-path="url(#pf21e200128)" style="fill: #828282"/>
   </g>
   <g id="patch_125">
    <path d="M 19.149299 92.392297 
C 20.20282 88.919305 21.42622 85.50013 22.815081 82.147124 
C 24.203942 78.794117 25.756589 75.511321 27.467414 72.310592 
L 27.467414 72.310592 
C 25.756589 75.511321 24.203942 78.794117 22.815081 82.147124 
C 21.42622 85.50013 20.20282 88.919305 19.149299 92.392297 
z
" clip-path="url(#pf21e200128)" style="fill: #828282"/>
   </g>
   <g id="patch_126">
    <path d="M 50.499213 84.621345 
C 51.807089 82.174482 53.23431 79.793306 54.775723 77.48642 
C 56.317135 75.179533 57.970881 72.949715 59.730985 70.805022 
L 59.730985 70.805022 
C 57.970881 72.949715 56.317135 75.179533 54.775723 77.48642 
C 53.23431 79.793306 51.807089 82.174482 50.499213 84.621345 
z
" clip-path="url(#pf21e200128)" style="fill: #828282"/>
   </g>
   <g id="patch_127">
    <path d="M 66.986314 76.759316 
C 68.551525 74.8521 70.209433 73.022881 71.954047 71.278266 
C 73.698662 69.533652 75.527881 67.875744 77.435097 66.310532 
L 77.435097 66.310532 
C 75.527881 67.875744 73.698662 69.533652 71.954047 71.278266 
C 70.209433 73.022881 68.551525 74.8521 66.986314 76.759316 
z
" clip-path="url(#pf21e200128)" style="fill: #828282"/>
   </g>
   <g id="patch_128">
    <path d="M 97.486048 90.742686 
C 98.593563 89.833772 99.745035 88.979782 100.936307 88.1838 
C 102.127578 87.387818 103.357212 86.650804 104.620767 85.97542 
L 104.620767 85.97542 
C 103.357212 86.650804 102.127578 87.387818 100.936307 88.1838 
C 99.745035 88.979782 98.593563 89.833772 97.486048 90.742686 
z
" clip-path="url(#pf21e200128)" style="fill: #828282"/>
   </g>
   <g id="patch_129">
    <path d="M 103.243679 83.39907 
C 104.591562 82.678612 105.974005 82.024765 107.386014 81.439892 
C 108.798024 80.855018 110.237898 80.339823 111.700436 79.896167 
L 111.700436 79.896167 
C 110.237898 80.339823 108.798024 80.855018 107.386014 81.439892 
C 105.974005 82.024765 104.591562 82.678612 103.243679 83.39907 
z
" clip-path="url(#pf21e200128)" style="fill: #828282"/>
   </g>
   <g id="patch_130">
    <path d="M 115.015145 90.823299 
C 116.120021 90.488138 117.240687 90.207426 118.373095 89.982176 
C 119.505503 89.756926 120.648287 89.58741 121.797321 89.47424 
L 119.875807 69.964782 
C 118.0882 70.140846 116.310314 70.404571 114.548573 70.755003 
C 112.786831 71.105435 111.043356 71.542153 109.324446 72.063579 
z
" clip-path="url(#pf21e200128)" style="fill: #828282"/>
   </g>
   <g id="patch_131">
    <path d="M 125.254844 124.579063 
C 125.254844 124.579063 125.254844 124.579063 125.254844 124.579063 
C 125.254844 124.579063 125.254844 124.579063 125.254844 124.579063 
L 135.614656 19.394119 
C 132.171796 19.055027 128.714363 18.885174 125.254844 18.885174 
C 121.795325 18.885174 118.337891 19.055027 114.895031 19.394119 
L 125.254844 124.579063 
z
" clip-path="url(#pf21e200128)" style="fill: none; stroke: #292929; stroke-width: 0.5; stroke-linejoin: miter"/>
   </g>
   <g id="patch_132">
    <path d="M 125.254844 124.579063 
C 125.254844 124.579063 125.254844 124.579063 125.254844 124.579063 
C 125.254844 124.579063 125.254844 124.579063 125.254844 124.579063 
L 137.721654 83.481496 
C 136.37647 83.073438 135.012061 82.731672 133.633357 82.457431 
C 132.254653 82.183189 130.863316 81.976804 129.464371 81.83902 
L 125.254844 124.579063 
z
" clip-path="url(#pf21e200128)" style="fill: none; stroke: #292929; stroke-width: 0.5; stroke-linejoin: miter"/>
   </g>
   <g id="patch_133">
    <path d="M 125.254844 124.579063 
C 125.254844 124.579063 125.254844 124.579063 125.254844 124.579063 
C 125.254844 124.579063 125.254844 124.579063 125.254844 124.579063 
L 125.254844 124.579063 
C 125.254844 124.579063 125.254844 124.579063 125.254844 124.579063 
C 125.254844 124.579063 125.254844 124.579063 125.254844 124.579063 
L 125.254844 124.579063 
z
" clip-path="url(#pf21e200128)" style="fill: none; stroke: #292929; stroke-width: 0.5; stroke-linejoin: miter"/>
   </g>
   <g id="patch_134">
    <path d="M 125.254844 124.579063 
C 125.254844 124.579063 125.254844 124.579063 125.254844 124.579063 
C 125.254844 124.579063 125.254844 124.579063 125.254844 124.579063 
L 155.174604 88.121729 
C 153.981301 87.142411 152.740635 86.222271 151.457089 85.364632 
C 150.173542 84.506993 148.848661 83.71289 147.487231 82.985191 
L 125.254844 124.579063 
z
" clip-path="url(#pf21e200128)" style="fill: none; stroke: #292929; stroke-width: 0.5; stroke-linejoin: miter"/>
   </g>
   <g id="patch_135">
    <path d="M 125.254844 124.579063 
C 125.254844 124.579063 125.254844 124.579063 125.254844 124.579063 
C 125.254844 124.579063 125.254844 124.579063 125.254844 124.579063 
L 125.254844 124.579063 
C 125.254844 124.579063 125.254844 124.579063 125.254844 124.579063 
C 125.254844 124.579063 125.254844 124.579063 125.254844 124.579063 
L 125.254844 124.579063 
z
" clip-path="url(#pf21e200128)" style="fill: none; stroke: #292929; stroke-width: 0.5; stroke-linejoin: miter"/>
   </g>
   <g id="patch_136">
    <path d="M 125.254844 124.579063 
C 125.254844 124.579063 125.254844 124.579063 125.254844 124.579063 
C 125.254844 124.579063 125.254844 124.579063 125.254844 124.579063 
L 125.254844 124.579063 
C 125.254844 124.579063 125.254844 124.579063 125.254844 124.579063 
C 125.254844 124.579063 125.254844 124.579063 125.254844 124.579063 
L 125.254844 124.579063 
z
" clip-path="url(#pf21e200128)" style="fill: none; stroke: #292929; stroke-width: 0.5; stroke-linejoin: miter"/>
   </g>
   <g id="patch_137">
    <path d="M 125.254844 124.579063 
C 125.254844 124.579063 125.254844 124.579063 125.254844 124.579063 
C 125.254844 124.579063 125.254844 124.579063 125.254844 124.579063 
L 177.433224 108.750924 
C 176.915145 107.043048 176.313527 105.361637 175.630542 103.712765 
C 174.947557 102.063893 174.184028 100.449548 173.342714 98.87556 
L 125.254844 124.579063 
z
" clip-path="url(#pf21e200128)" style="fill: none; stroke: #292929; stroke-width: 0.5; stroke-linejoin: miter"/>
   </g>
   <g id="patch_138">
    <path d="M 125.254844 124.579063 
C 125.254844 124.579063 125.254844 124.579063 125.254844 124.579063 
C 125.254844 124.579063 125.254844 124.579063 125.254844 124.579063 
L 195.192129 117.690841 
C 194.966667 115.401689 194.62895 113.124987 194.180198 110.868957 
C 193.731446 108.612927 193.172199 106.38029 192.504478 104.179109 
L 125.254844 124.579063 
z
" clip-path="url(#pf21e200128)" style="fill: none; stroke: #292929; stroke-width: 0.5; stroke-linejoin: miter"/>
   </g>
   <g id="patch_139">
    <path d="M 125.254844 124.579063 
C 125.254844 124.579063 125.254844 124.579063 125.254844 124.579063 
C 125.254844 124.579063 125.254844 124.579063 125.254844 124.579063 
L 160.514654 128.051851 
C 160.628324 126.897744 160.685261 125.738753 160.685261 124.579063 
C 160.685261 123.419372 160.628324 122.260381 160.514654 121.106274 
L 125.254844 124.579063 
z
" clip-path="url(#pf21e200128)" style="fill: none; stroke: #292929; stroke-width: 0.5; stroke-linejoin: miter"/>
   </g>
   <g id="patch_140">
    <path d="M 125.254844 124.579063 
C 125.254844 124.579063 125.254844 124.579063 125.254844 124.579063 
C 125.254844 124.579063 125.254844 124.579063 125.254844 124.579063 
L 125.254844 124.579063 
C 125.254844 124.579063 125.254844 124.579063 125.254844 124.579063 
C 125.254844 124.579063 125.254844 124.579063 125.254844 124.579063 
L 125.254844 124.579063 
z
" clip-path="url(#pf21e200128)" style="fill: none; stroke: #292929; stroke-width: 0.5; stroke-linejoin: miter"/>
   </g>
   <g id="patch_141">
    <path d="M 125.254844 124.579063 
C 125.254844 124.579063 125.254844 124.579063 125.254844 124.579063 
C 125.254844 124.579063 125.254844 124.579063 125.254844 124.579063 
L 125.254844 124.579063 
C 125.254844 124.579063 125.254844 124.579063 125.254844 124.579063 
C 125.254844 124.579063 125.254844 124.579063 125.254844 124.579063 
L 125.254844 124.579063 
z
" clip-path="url(#pf21e200128)" style="fill: none; stroke: #292929; stroke-width: 0.5; stroke-linejoin: miter"/>
   </g>
   <g id="patch_142">
    <path d="M 125.254844 124.579063 
C 125.254844 124.579063 125.254844 124.579063 125.254844 124.579063 
C 125.254844 124.579063 125.254844 124.579063 125.254844 124.579063 
L 125.254844 124.579063 
C 125.254844 124.579063 125.254844 124.579063 125.254844 124.579063 
C 125.254844 124.579063 125.254844 124.579063 125.254844 124.579063 
L 125.254844 124.579063 
z
" clip-path="url(#pf21e200128)" style="fill: none; stroke: #292929; stroke-width: 0.5; stroke-linejoin: miter"/>
   </g>
   <g id="patch_143">
    <path d="M 125.254844 124.579063 
C 125.254844 124.579063 125.254844 124.579063 125.254844 124.579063 
C 125.254844 124.579063 125.254844 124.579063 125.254844 124.579063 
L 125.254844 124.579063 
C 125.254844 124.579063 125.254844 124.579063 125.254844 124.579063 
C 125.254844 124.579063 125.254844 124.579063 125.254844 124.579063 
L 125.254844 124.579063 
z
" clip-path="url(#pf21e200128)" style="fill: none; stroke: #292929; stroke-width: 0.5; stroke-linejoin: miter"/>
   </g>
   <g id="patch_144">
    <path d="M 125.254844 124.579063 
C 125.254844 124.579063 125.254844 124.579063 125.254844 124.579063 
C 125.254844 124.579063 125.254844 124.579063 125.254844 124.579063 
L 125.254844 124.579063 
C 125.254844 124.579063 125.254844 124.579063 125.254844 124.579063 
C 125.254844 124.579063 125.254844 124.579063 125.254844 124.579063 
L 125.254844 124.579063 
z
" clip-path="url(#pf21e200128)" style="fill: none; stroke: #292929; stroke-width: 0.5; stroke-linejoin: miter"/>
   </g>
   <g id="patch_145">
    <path d="M 125.254844 124.579063 
C 125.254844 124.579063 125.254844 124.579063 125.254844 124.579063 
C 125.254844 124.579063 125.254844 124.579063 125.254844 124.579063 
L 125.254844 124.579063 
C 125.254844 124.579063 125.254844 124.579063 125.254844 124.579063 
C 125.254844 124.579063 125.254844 124.579063 125.254844 124.579063 
L 125.254844 124.579063 
z
" clip-path="url(#pf21e200128)" style="fill: none; stroke: #292929; stroke-width: 0.5; stroke-linejoin: miter"/>
   </g>
   <g id="patch_146">
    <path d="M 125.254844 124.579063 
C 125.254844 124.579063 125.254844 124.579063 125.254844 124.579063 
C 125.254844 124.579063 125.254844 124.579063 125.254844 124.579063 
L 125.254844 124.579063 
C 125.254844 124.579063 125.254844 124.579063 125.254844 124.579063 
C 125.254844 124.579063 125.254844 124.579063 125.254844 124.579063 
L 125.254844 124.579063 
z
" clip-path="url(#pf21e200128)" style="fill: none; stroke: #292929; stroke-width: 0.5; stroke-linejoin: miter"/>
   </g>
   <g id="patch_147">
    <path d="M 125.254844 124.579063 
C 125.254844 124.579063 125.254844 124.579063 125.254844 124.579063 
C 125.254844 124.579063 125.254844 124.579063 125.254844 124.579063 
L 125.254844 124.579063 
C 125.254844 124.579063 125.254844 124.579063 125.254844 124.579063 
C 125.254844 124.579063 125.254844 124.579063 125.254844 124.579063 
L 125.254844 124.579063 
z
" clip-path="url(#pf21e200128)" style="fill: none; stroke: #292929; stroke-width: 0.5; stroke-linejoin: miter"/>
   </g>
   <g id="patch_148">
    <path d="M 125.254844 124.579063 
C 125.254844 124.579063 125.254844 124.579063 125.254844 124.579063 
C 125.254844 124.579063 125.254844 124.579063 125.254844 124.579063 
L 125.254844 124.579063 
C 125.254844 124.579063 125.254844 124.579063 125.254844 124.579063 
C 125.254844 124.579063 125.254844 124.579063 125.254844 124.579063 
L 125.254844 124.579063 
z
" clip-path="url(#pf21e200128)" style="fill: none; stroke: #292929; stroke-width: 0.5; stroke-linejoin: miter"/>
   </g>
   <g id="patch_149">
    <path d="M 125.254844 124.579063 
C 125.254844 124.579063 125.254844 124.579063 125.254844 124.579063 
C 125.254844 124.579063 125.254844 124.579063 125.254844 124.579063 
L 125.254844 124.579063 
C 125.254844 124.579063 125.254844 124.579063 125.254844 124.579063 
C 125.254844 124.579063 125.254844 124.579063 125.254844 124.579063 
L 125.254844 124.579063 
z
" clip-path="url(#pf21e200128)" style="fill: none; stroke: #292929; stroke-width: 0.5; stroke-linejoin: miter"/>
   </g>
   <g id="patch_150">
    <path d="M 125.254844 124.579063 
C 125.254844 124.579063 125.254844 124.579063 125.254844 124.579063 
C 125.254844 124.579063 125.254844 124.579063 125.254844 124.579063 
L 120.547592 130.314865 
C 120.735333 130.468941 120.930526 130.613706 121.132466 130.748637 
C 121.334405 130.883569 121.542848 131.008504 121.75704 131.122993 
L 125.254844 124.579063 
z
" clip-path="url(#pf21e200128)" style="fill: none; stroke: #292929; stroke-width: 0.5; stroke-linejoin: miter"/>
   </g>
   <g id="patch_151">
    <path d="M 125.254844 124.579063 
C 125.254844 124.579063 125.254844 124.579063 125.254844 124.579063 
C 125.254844 124.579063 125.254844 124.579063 125.254844 124.579063 
L 114.994328 132.999651 
C 115.269946 133.335493 115.561887 133.6576 115.869097 133.96481 
C 116.176306 134.272019 116.498414 134.56396 116.834256 134.839579 
L 125.254844 124.579063 
z
" clip-path="url(#pf21e200128)" style="fill: none; stroke: #292929; stroke-width: 0.5; stroke-linejoin: miter"/>
   </g>
   <g id="patch_152">
    <path d="M 125.254844 124.579063 
C 125.254844 124.579063 125.254844 124.579063 125.254844 124.579063 
C 125.254844 124.579063 125.254844 124.579063 125.254844 124.579063 
L 106.861859 134.410318 
C 107.18365 135.012348 107.534806 135.598216 107.914058 136.165805 
C 108.293309 136.733395 108.700199 137.282023 109.133258 137.809706 
L 125.254844 124.579063 
z
" clip-path="url(#pf21e200128)" style="fill: none; stroke: #292929; stroke-width: 0.5; stroke-linejoin: miter"/>
   </g>
   <g id="patch_153">
    <path d="M 125.254844 124.579063 
C 125.254844 124.579063 125.254844 124.579063 125.254844 124.579063 
C 125.254844 124.579063 125.254844 124.579063 125.254844 124.579063 
L 105.80911 130.477861 
C 106.002186 131.114349 106.226396 131.740974 106.480929 132.355472 
C 106.735463 132.969971 107.020013 133.571602 107.333552 134.158192 
L 125.254844 124.579063 
z
" clip-path="url(#pf21e200128)" style="fill: none; stroke: #292929; stroke-width: 0.5; stroke-linejoin: miter"/>
   </g>
   <g id="patch_154">
    <path d="M 125.254844 124.579063 
C 125.254844 124.579063 125.254844 124.579063 125.254844 124.579063 
C 125.254844 124.579063 125.254844 124.579063 125.254844 124.579063 
L 106.284093 126.447518 
C 106.34525 127.068459 106.436857 127.686023 106.558583 128.29798 
C 106.680309 128.909937 106.832006 129.515548 107.013128 130.112626 
L 125.254844 124.579063 
z
" clip-path="url(#pf21e200128)" style="fill: none; stroke: #292929; stroke-width: 0.5; stroke-linejoin: miter"/>
   </g>
   <g id="patch_155">
    <path d="M 125.254844 124.579063 
C 125.254844 124.579063 125.254844 124.579063 125.254844 124.579063 
C 125.254844 124.579063 125.254844 124.579063 125.254844 124.579063 
L 98.527967 121.946695 
C 98.441806 122.821505 98.398647 123.700019 98.398647 124.579063 
C 98.398647 125.458106 98.441806 126.33662 98.527967 127.21143 
L 125.254844 124.579063 
z
" clip-path="url(#pf21e200128)" style="fill: none; stroke: #292929; stroke-width: 0.5; stroke-linejoin: miter"/>
   </g>
   <g id="patch_156">
    <path d="M 125.254844 124.579063 
C 125.254844 124.579063 125.254844 124.579063 125.254844 124.579063 
C 125.254844 124.579063 125.254844 124.579063 125.254844 124.579063 
L 86.29861 112.761818 
C 85.911814 114.036914 85.587855 115.330232 85.327903 116.6371 
C 85.067951 117.943969 84.872319 119.262812 84.741713 120.588867 
L 125.254844 124.579063 
z
" clip-path="url(#pf21e200128)" style="fill: none; stroke: #292929; stroke-width: 0.5; stroke-linejoin: miter"/>
   </g>
   <g id="patch_157">
    <path d="M 125.254844 124.579063 
C 125.254844 124.579063 125.254844 124.579063 125.254844 124.579063 
C 125.254844 124.579063 125.254844 124.579063 125.254844 124.579063 
L 27.467414 72.310592 
C 25.756589 75.511321 24.203942 78.794117 22.815081 82.147124 
C 21.42622 85.50013 20.20282 88.919305 19.149299 92.392297 
L 125.254844 124.579063 
z
" clip-path="url(#pf21e200128)" style="fill: none; stroke: #292929; stroke-width: 0.5; stroke-linejoin: miter"/>
   </g>
   <g id="patch_158">
    <path d="M 125.254844 124.579063 
C 125.254844 124.579063 125.254844 124.579063 125.254844 124.579063 
C 125.254844 124.579063 125.254844 124.579063 125.254844 124.579063 
L 59.730985 70.805022 
C 57.970881 72.949715 56.317135 75.179533 54.775723 77.48642 
C 53.23431 79.793306 51.807089 82.174482 50.499213 84.621345 
L 125.254844 124.579063 
z
" clip-path="url(#pf21e200128)" style="fill: none; stroke: #292929; stroke-width: 0.5; stroke-linejoin: miter"/>
   </g>
   <g id="patch_159">
    <path d="M 125.254844 124.579063 
C 125.254844 124.579063 125.254844 124.579063 125.254844 124.579063 
C 125.254844 124.579063 125.254844 124.579063 125.254844 124.579063 
L 77.435097 66.310532 
C 75.527881 67.875744 73.698662 69.533652 71.954047 71.278266 
C 70.209433 73.022881 68.551525 74.8521 66.986314 76.759316 
L 125.254844 124.579063 
z
" clip-path="url(#pf21e200128)" style="fill: none; stroke: #292929; stroke-width: 0.5; stroke-linejoin: miter"/>
   </g>
   <g id="patch_160">
    <path d="M 125.254844 124.579063 
C 125.254844 124.579063 125.254844 124.579063 125.254844 124.579063 
C 125.254844 124.579063 125.254844 124.579063 125.254844 124.579063 
L 104.620767 85.97542 
C 103.357212 86.650804 102.127578 87.387818 100.936307 88.1838 
C 99.745035 88.979782 98.593563 89.833772 97.486048 90.742686 
L 125.254844 124.579063 
z
" clip-path="url(#pf21e200128)" style="fill: none; stroke: #292929; stroke-width: 0.5; stroke-linejoin: miter"/>
   </g>
   <g id="patch_161">
    <path d="M 125.254844 124.579063 
C 125.254844 124.579063 125.254844 124.579063 125.254844 124.579063 
C 125.254844 124.579063 125.254844 124.579063 125.254844 124.579063 
L 111.700436 79.896167 
C 110.237898 80.339823 108.798024 80.855018 107.386014 81.439892 
C 105.974005 82.024765 104.591562 82.678612 103.243679 83.39907 
L 125.254844 124.579063 
z
" clip-path="url(#pf21e200128)" style="fill: none; stroke: #292929; stroke-width: 0.5; stroke-linejoin: miter"/>
   </g>
   <g id="patch_162">
    <path d="M 125.254844 124.579063 
C 125.254844 124.579063 125.254844 124.579063 125.254844 124.579063 
C 125.254844 124.579063 125.254844 124.579063 125.254844 124.579063 
L 119.875807 69.964782 
C 118.0882 70.140846 116.310314 70.404571 114.548573 70.755003 
C 112.786831 71.105435 111.043356 71.542153 109.324446 72.063579 
L 125.254844 124.579063 
z
" clip-path="url(#pf21e200128)" style="fill: none; stroke: #292929; stroke-width: 0.5; stroke-linejoin: miter"/>
   </g>
   <g id="PathCollection_1">
    <defs>
     <path id="m32379ee004" d="M 0.193618 7.414054 
L 0.193618 7.414054 
C 0.054922 7.414054 -0.078235 7.358899 -0.176308 7.260826 
C -0.274381 7.162753 -0.329536 7.029596 -0.329536 6.890901 
L -0.329536 5.365008 
L -1.528416 6.56393 
L -1.528416 6.56393 
C -1.577018 6.612704 -1.634775 6.651408 -1.698366 6.677814 
C -1.761958 6.704221 -1.830141 6.717815 -1.898997 6.717815 
C -1.967853 6.717815 -2.036037 6.704221 -2.099628 6.677814 
C -2.163219 6.651408 -2.220976 6.612704 -2.269578 6.56393 
L -2.269578 6.56393 
C -2.318353 6.515327 -2.357056 6.457571 -2.383463 6.393979 
C -2.409869 6.330388 -2.423463 6.262205 -2.423463 6.193348 
C -2.423463 6.124492 -2.409869 6.056309 -2.383463 5.992718 
C -2.357056 5.929126 -2.318353 5.87137 -2.269578 5.822767 
L -0.329536 3.884106 
L -0.329536 0.820937 
L -2.98067 2.351538 
L -3.691824 5.001416 
L -3.691824 5.001416 
C -3.727584 5.135411 -3.815199 5.249836 -3.93523 5.319305 
C -4.055261 5.388775 -4.198123 5.407741 -4.332122 5.371997 
L -4.332122 5.371997 
C -4.466126 5.336237 -4.580558 5.248616 -4.650029 5.128576 
C -4.719499 5.008535 -4.73846 4.865662 -4.702703 4.731657 
L -4.262647 3.092721 
L -5.585535 3.855668 
L -5.585535 3.855668 
C -5.645013 3.890144 -5.710708 3.912561 -5.778854 3.921634 
C -5.847001 3.930706 -5.916272 3.926258 -5.982698 3.908543 
C -6.049125 3.890828 -6.111412 3.860192 -6.165991 3.818391 
C -6.220571 3.77659 -6.266379 3.724437 -6.300791 3.664922 
L -6.300791 3.664922 
C -6.335212 3.605364 -6.35755 3.539597 -6.366524 3.471396 
C -6.375498 3.403194 -6.370933 3.333888 -6.35309 3.267452 
C -6.335248 3.201017 -6.304476 3.138749 -6.26254 3.08422 
C -6.220605 3.029692 -6.168323 2.983966 -6.108695 2.949666 
L -4.785807 2.186762 
L -6.424743 1.746706 
L -6.424743 1.746706 
C -6.558747 1.710946 -6.673179 1.623325 -6.74265 1.503284 
C -6.81212 1.383244 -6.831081 1.240371 -6.795324 1.106366 
L -6.795324 1.106366 
C -6.777471 1.039969 -6.746703 0.977739 -6.704784 0.923241 
C -6.662864 0.868744 -6.61061 0.823041 -6.551015 0.788752 
C -6.491421 0.754464 -6.425647 0.732257 -6.357465 0.723406 
C -6.289282 0.714554 -6.220019 0.71923 -6.153645 0.737166 
L -3.505232 1.44698 
L -0.852424 -0.08496 
L -3.503767 -1.615666 
L -6.153645 -0.905851 
L -6.153645 -0.905851 
C -6.22011 -0.887939 -6.289462 -0.883321 -6.357716 -0.892262 
C -6.42597 -0.901202 -6.491793 -0.923527 -6.551403 -0.957953 
C -6.611013 -0.992379 -6.663247 -1.038234 -6.705103 -1.092883 
C -6.746958 -1.147533 -6.777619 -1.209911 -6.795324 -1.276432 
L -6.795324 -1.276432 
C -6.831068 -1.410431 -6.812101 -1.553293 -6.742632 -1.673324 
C -6.673162 -1.793355 -6.558738 -1.88097 -6.424743 -1.91673 
L -4.785807 -2.355447 
L -6.108695 -3.119732 
L -6.108695 -3.119732 
C -6.228699 -3.188976 -6.316415 -3.303132 -6.352417 -3.436921 
C -6.388419 -3.57071 -6.369839 -3.713469 -6.300791 -3.833586 
L -6.300791 -3.833586 
C -6.266491 -3.893214 -6.220765 -3.945496 -6.166237 -3.987431 
C -6.111708 -4.029367 -6.04944 -4.060139 -5.983005 -4.077981 
C -5.91657 -4.095823 -5.847263 -4.100389 -5.779062 -4.091415 
C -5.71086 -4.082441 -5.645094 -4.060102 -5.585535 -4.025682 
L -4.262647 -3.261396 
L -4.702703 -4.900332 
L -4.702703 -4.900332 
C -4.73846 -5.034337 -4.719499 -5.17721 -4.650029 -5.29725 
C -4.580558 -5.417291 -4.466126 -5.504912 -4.332122 -5.540672 
L -4.332122 -5.540672 
C -4.19831 -5.576464 -4.055613 -5.557686 -3.935617 -5.488496 
C -3.81562 -5.419305 -3.727882 -5.305212 -3.691824 -5.171472 
L -2.982009 -2.521594 
L -0.329411 -0.990302 
L -0.329411 -4.051588 
L -2.269453 -5.991589 
L -2.269453 -5.991589 
C -2.318227 -6.040191 -2.356931 -6.097947 -2.383337 -6.161539 
C -2.409744 -6.22513 -2.423338 -6.293314 -2.423338 -6.36217 
C -2.423338 -6.431026 -2.409744 -6.499209 -2.383337 -6.5628 
C -2.356931 -6.626392 -2.318227 -6.684149 -2.269453 -6.732751 
L -2.269453 -6.732751 
C -2.22085 -6.781526 -2.163094 -6.820229 -2.099502 -6.846635 
C -2.035911 -6.873042 -1.967728 -6.886636 -1.898871 -6.886636 
C -1.830015 -6.886636 -1.761832 -6.873042 -1.698241 -6.846635 
C -1.634649 -6.820229 -1.576893 -6.781526 -1.52829 -6.732751 
L -0.329411 -5.533829 
L -0.329411 -7.059722 
L -0.329411 -7.059722 
C -0.329411 -7.198418 -0.274255 -7.331575 -0.176182 -7.429647 
C -0.07811 -7.52772 0.055047 -7.582875 0.193743 -7.582875 
L 0.193743 -7.582875 
C 0.332439 -7.582875 0.465596 -7.52772 0.563669 -7.429647 
C 0.661741 -7.331575 0.716897 -7.198418 0.716897 -7.059722 
L 0.716897 -5.533829 
L 1.915777 -6.732751 
L 1.915777 -6.732751 
C 1.964379 -6.781526 2.022136 -6.820229 2.085727 -6.846635 
C 2.149318 -6.873042 2.217502 -6.886636 2.286358 -6.886636 
C 2.355214 -6.886636 2.423397 -6.873042 2.486989 -6.846635 
C 2.55058 -6.820229 2.608337 -6.781526 2.656939 -6.732751 
L 2.656939 -6.732751 
C 2.705714 -6.684149 2.744417 -6.626392 2.770823 -6.5628 
C 2.79723 -6.499209 2.810824 -6.431026 2.810824 -6.36217 
C 2.810824 -6.293314 2.79723 -6.22513 2.770823 -6.161539 
C 2.744417 -6.097947 2.705714 -6.040191 2.656939 -5.991589 
L 0.716897 -4.051588 
L 0.716897 -0.991139 
L 3.369495 -2.522954 
L 4.07931 -5.171367 
L 4.07931 -5.171367 
C 4.115368 -5.305107 4.203106 -5.4192 4.323103 -5.488391 
C 4.4431 -5.557582 4.585797 -5.576359 4.719608 -5.540567 
L 4.719608 -5.540567 
C 4.853612 -5.504807 4.968045 -5.417186 5.037515 -5.297146 
C 5.106986 -5.177105 5.125946 -5.034232 5.090189 -4.900227 
L 4.650133 -3.262673 
L 5.973022 -4.025577 
L 5.973022 -4.025577 
C 6.03258 -4.059998 6.098346 -4.082336 6.166548 -4.09131 
C 6.234749 -4.100284 6.304056 -4.095719 6.370491 -4.077876 
C 6.436926 -4.060034 6.499194 -4.029262 6.553723 -3.987327 
C 6.608252 -3.945391 6.653978 -3.893109 6.688277 -3.833481 
L 6.688277 -3.833481 
C 6.757325 -3.713365 6.775905 -3.570605 6.739903 -3.436816 
C 6.703901 -3.303027 6.616186 -3.188871 6.496181 -3.119628 
L 5.173293 -2.355342 
L 6.812229 -1.916625 
L 6.812229 -1.916625 
C 6.946224 -1.880865 7.060649 -1.79325 7.130118 -1.67322 
C 7.199588 -1.553189 7.218554 -1.410326 7.18281 -1.276327 
L 7.18281 -1.276327 
C 7.165106 -1.209806 7.134445 -1.147429 7.092589 -1.092779 
C 7.050733 -1.038129 6.998499 -0.992274 6.938889 -0.957848 
C 6.879279 -0.923422 6.813456 -0.901098 6.745202 -0.892157 
C 6.676949 -0.883217 6.607597 -0.887835 6.541131 -0.905746 
L 3.891253 -1.615561 
L 1.239492 -0.084604 
L 3.892718 1.447085 
L 6.541131 0.73727 
L 6.541131 0.73727 
C 6.674948 0.701466 6.817656 0.720237 6.937662 0.789429 
C 7.057669 0.858621 7.145413 0.972721 7.181471 1.10647 
L 7.181471 1.10647 
C 7.217274 1.240293 7.198497 1.383006 7.129297 1.503014 
C 7.060096 1.623021 6.945986 1.710762 6.812229 1.74681 
L 5.173293 2.186866 
L 6.496181 2.949771 
L 6.496181 2.949771 
C 6.555697 2.984183 6.607849 3.029991 6.649651 3.08457 
C 6.691452 3.13915 6.722088 3.201437 6.739803 3.267863 
C 6.757517 3.33429 6.761966 3.403561 6.752893 3.471707 
C 6.743821 3.539854 6.721404 3.605549 6.686927 3.665026 
L 6.686927 3.665026 
C 6.617458 3.784813 6.503196 3.87225 6.369416 3.907994 
C 6.235636 3.943739 6.092989 3.924946 5.973032 3.855772 
L 4.650144 3.091487 
L 5.08886 4.731783 
L 5.08886 4.731783 
C 5.124664 4.865606 5.105887 5.008319 5.036686 5.128326 
C 4.967486 5.248334 4.853376 5.336074 4.719619 5.372123 
L 4.719619 5.372123 
C 4.585619 5.407867 4.442757 5.3889 4.322726 5.319431 
C 4.202695 5.249961 4.115081 5.135537 4.07932 5.001542 
L 3.368166 2.351664 
L 0.717033 0.821063 
L 0.717033 3.884232 
L 2.657075 5.822893 
L 2.657075 5.822893 
C 2.70585 5.871495 2.744553 5.929252 2.770959 5.992843 
C 2.797366 6.056435 2.81096 6.124618 2.81096 6.193474 
C 2.81096 6.26233 2.797366 6.330514 2.770959 6.394105 
C 2.744553 6.457696 2.70585 6.515453 2.657075 6.564055 
L 2.657075 6.564055 
C 2.608473 6.61283 2.550716 6.651533 2.487125 6.67794 
C 2.423533 6.704346 2.35535 6.71794 2.286494 6.71794 
C 2.217638 6.71794 2.149454 6.704346 2.085863 6.67794 
C 2.022272 6.651533 1.964515 6.61283 1.915913 6.564055 
L 0.717033 5.365133 
L 0.717033 6.891026 
L 0.717033 6.891026 
C 0.717033 7.029722 0.661877 7.162879 0.563805 7.260952 
C 0.465732 7.359024 0.332575 7.41418 0.193879 7.41418 
L 0.193618 7.414054 
z
"/>
    </defs>
    <g clip-path="url(#pf21e200128)">
     <use xlink:href="#m32379ee004" x="93.257351" y="58.15664" style="fill: #9e2096; fill-opacity: 0.7"/>
    </g>
   </g>
   <g id="patch_163">
    <path d="M 125.254844 13.699063 
C 110.694216 13.699063 96.275171 16.567189 82.822905 22.1393 
C 69.370638 27.711411 57.146763 35.879144 46.850844 46.175063 
C 36.554925 56.470982 28.387192 68.694857 22.815081 82.147124 
C 17.24297 95.59939 14.374844 110.018434 14.374844 124.579063 
C 14.374844 139.139691 17.24297 153.558735 22.815081 167.011001 
C 28.387192 180.463268 36.554925 192.687143 46.850844 202.983062 
C 57.146763 213.278981 69.370638 221.446714 82.822905 227.018825 
C 96.275171 232.590936 110.694216 235.459063 125.254844 235.459063 
C 139.815472 235.459063 154.234516 232.590936 167.686783 227.018825 
C 181.139049 221.446714 193.362925 213.278981 203.658844 202.983062 
C 213.954763 192.687143 222.122495 180.463268 227.694606 167.011001 
C 233.266717 153.558735 236.134844 139.139691 236.134844 124.579063 
C 236.134844 110.018434 233.266717 95.59939 227.694606 82.147124 
C 222.122495 68.694857 213.954763 56.470982 203.658844 46.175063 
C 193.362925 35.879144 181.139049 27.711411 167.686783 22.1393 
C 154.234516 16.567189 139.815472 13.699063 125.254844 13.699063 
" style="fill: none; stroke: #000000; stroke-width: 0.8; stroke-linejoin: miter; stroke-linecap: square"/>
   </g>
  </g>
 </g>
 <defs>
  <clipPath id="pf21e200128">
   <path d="M 236.134844 124.579063 
C 236.134844 110.018434 233.266717 95.59939 227.694606 82.147124 
C 222.122495 68.694857 213.954763 56.470982 203.658844 46.175063 
C 193.362925 35.879144 181.139049 27.711411 167.686783 22.1393 
C 154.234516 16.567189 139.815472 13.699063 125.254844 13.699063 
C 110.694216 13.699063 96.275171 16.567189 82.822905 22.1393 
C 69.370638 27.711411 57.146763 35.879144 46.850844 46.175063 
C 36.554925 56.470982 28.387192 68.694857 22.815081 82.147124 
C 17.24297 95.59939 14.374844 110.018434 14.374844 124.579062 
C 14.374844 139.139691 17.24297 153.558735 22.815081 167.011001 
C 28.387192 180.463268 36.554925 192.687143 46.850844 202.983062 
C 57.146763 213.278981 69.370638 221.446714 82.822905 227.018825 
C 96.275171 232.590936 110.694216 235.459063 125.254844 235.459063 
C 139.815472 235.459063 154.234516 232.590936 167.686783 227.018825 
C 181.139049 221.446714 193.362925 213.278981 203.658844 202.983062 
C 213.954763 192.687143 222.122495 180.463268 227.694606 167.011001 
C 233.266717 153.558735 236.134844 139.139691 236.134844 124.579063 
M 125.254844 124.579063 
C 125.254844 124.579063 125.254844 124.579063 125.254844 124.579063 
C 125.254844 124.579063 125.254844 124.579063 125.254844 124.579063 
C 125.254844 124.579063 125.254844 124.579063 125.254844 124.579063 
C 125.254844 124.579063 125.254844 124.579063 125.254844 124.579063 
C 125.254844 124.579063 125.254844 124.579063 125.254844 124.579063 
C 125.254844 124.579063 125.254844 124.579063 125.254844 124.579063 
C 125.254844 124.579063 125.254844 124.579063 125.254844 124.579063 
C 125.254844 124.579063 125.254844 124.579063 125.254844 124.579063 
C 125.254844 124.579063 125.254844 124.579063 125.254844 124.579063 
C 125.254844 124.579063 125.254844 124.579063 125.254844 124.579063 
C 125.254844 124.579063 125.254844 124.579063 125.254844 124.579063 
C 125.254844 124.579063 125.254844 124.579063 125.254844 124.579063 
C 125.254844 124.579063 125.254844 124.579063 125.254844 124.579063 
C 125.254844 124.579063 125.254844 124.579063 125.254844 124.579063 
C 125.254844 124.579063 125.254844 124.579063 125.254844 124.579063 
C 125.254844 124.579063 125.254844 124.579063 125.254844 124.579063 
z
"/>
  </clipPath>
 </defs>
</svg>
