<?xml version="1.0" encoding="utf-8" standalone="no"?>
<!DOCTYPE svg PUBLIC "-//W3C//DTD SVG 1.1//EN"
  "http://www.w3.org/Graphics/SVG/1.1/DTD/svg11.dtd">
<svg xmlns:xlink="http://www.w3.org/1999/xlink" width="248.410469pt" height="249.158125pt" viewBox="0 0 248.410469 249.158125" xmlns="http://www.w3.org/2000/svg" version="1.1">
 <title>Ski Rose for Sigriswill-Schwanden</title>
 <metadata>
  <rdf:RDF xmlns:dc="http://purl.org/dc/elements/1.1/" xmlns:cc="http://creativecommons.org/ns#" xmlns:rdf="http://www.w3.org/1999/02/22-rdf-syntax-ns#">
   <cc:Work>
    <dc:type rdf:resource="http://purl.org/dc/dcmitype/StillImage"/>
    <dc:title>Ski Rose for Sigriswill-Schwanden</dc:title>
    <dc:date>2026-05-30T11:13:24.462637</dc:date>
    <dc:description>A 32-bin stacked histogram of downhill ski run orientations colored by difficulty.</dc:description>
    <dc:format>image/svg+xml</dc:format>
    <dc:source>https://openskimap.org/?obj=e410120f5240ca332675de666e3f19f08bdc04a5</dc:source>
    <dc:creator>
     <cc:Agent>
      <dc:title>https://github.com/dhimmel/openskistats</dc:title>
     </cc:Agent>
    </dc:creator>
    <dc:rights>
     <cc:Agent>
      <dc:title>https://creativecommons.org/licenses/by/4.0/</dc:title>
     </cc:Agent>
    </dc:rights>
   </cc:Work>
  </rdf:RDF>
 </metadata>
 <defs>
  <style type="text/css">*{stroke-linejoin: round; stroke-linecap: butt}</style>
 </defs>
 <g id="figure_1">
  <g id="patch_1">
   <path d="M 0 249.158125 
L 248.410469 249.158125 
L 248.410469 0 
L 0 0 
z
" style="fill: #ffffff"/>
  </g>
  <g id="axes_1">
   <g id="patch_2">
    <path d="M 236.134844 124.579062 
C 236.134844 110.018434 233.266717 95.59939 227.694606 82.147124 
C 222.122495 68.694857 213.954763 56.470982 203.658844 46.175063 
C 193.362925 35.879144 181.139049 27.711411 167.686783 22.1393 
C 154.234516 16.567189 139.815472 13.699062 125.254844 13.699062 
C 110.694216 13.699062 96.275171 16.567189 82.822905 22.1393 
C 69.370638 27.711411 57.146763 35.879144 46.850844 46.175063 
C 36.554925 56.470982 28.387192 68.694857 22.815081 82.147124 
C 17.24297 95.59939 14.374844 110.018434 14.374844 124.579062 
C 14.374844 139.139691 17.24297 153.558735 22.815081 167.011001 
C 28.387192 180.463268 36.554925 192.687143 46.850844 202.983062 
C 57.146763 213.278981 69.370638 221.446714 82.822905 227.018825 
C 96.275171 232.590936 110.694216 235.459062 125.254844 235.459062 
C 139.815472 235.459062 154.234516 232.590936 167.686783 227.018825 
C 181.139049 221.446714 193.362925 213.278981 203.658844 202.983062 
C 213.954763 192.687143 222.122495 180.463268 227.694606 167.011001 
C 233.266717 153.558735 236.134844 139.139691 236.134844 124.579063 
M 125.254844 124.579062 
C 125.254844 124.579062 125.254844 124.579062 125.254844 124.579062 
C 125.254844 124.579062 125.254844 124.579062 125.254844 124.579062 
C 125.254844 124.579062 125.254844 124.579062 125.254844 124.579062 
C 125.254844 124.579062 125.254844 124.579062 125.254844 124.579062 
C 125.254844 124.579062 125.254844 124.579062 125.254844 124.579062 
C 125.254844 124.579062 125.254844 124.579062 125.254844 124.579062 
C 125.254844 124.579062 125.254844 124.579062 125.254844 124.579062 
C 125.254844 124.579062 125.254844 124.579062 125.254844 124.579062 
C 125.254844 124.579062 125.254844 124.579062 125.254844 124.579062 
C 125.254844 124.579062 125.254844 124.579062 125.254844 124.579062 
C 125.254844 124.579062 125.254844 124.579062 125.254844 124.579062 
C 125.254844 124.579062 125.254844 124.579062 125.254844 124.579062 
C 125.254844 124.579062 125.254844 124.579062 125.254844 124.579062 
C 125.254844 124.579062 125.254844 124.579062 125.254844 124.579062 
C 125.254844 124.579062 125.254844 124.579062 125.254844 124.579062 
C 125.254844 124.579062 125.254844 124.579062 125.254844 124.579062 
z
" style="fill: #ffffff"/>
   </g>
   <g id="FillBetweenPolyCollection_1">
    <defs>
     <path id="m0c7efc7d7e" d="M 235.279141 -137.114748 
L 234.735023 -137.052753 
L 233.99572 -135.049618 
L 232.989226 -133.057942 
L 232.118528 -131.115125 
L 230.994257 -129.195745 
L 230.029613 -127.322686 
L 228.818247 -125.482847 
L 227.777678 -123.684359 
L 226.494681 -121.928004 
L 225.388722 -120.207123 
L 224.044178 -118.536848 
L 222.880665 -116.895744 
L 221.690716 -115.293344 
L 220.268301 -113.753646 
L 219.030577 -112.233253 
L 217.565082 -110.783205 
L 216.285735 -109.345716 
L 214.987233 -107.948147 
L 213.670922 -106.590608 
L 212.338143 -105.27316 
L 210.791147 -104.043613 
L 209.431112 -102.809599 
L 208.058705 -101.615519 
L 206.675236 -100.461244 
L 205.282005 -99.346596 
L 203.880307 -98.271351 
L 202.658509 -97.168987 
L 201.241303 -96.16889 
L 199.819338 -95.207327 
L 198.393867 -94.283887 
L 197.143128 -93.321147 
L 195.711487 -92.47012 
L 194.451373 -91.574011 
L 193.017971 -90.793614 
L 191.752439 -89.962606 
L 190.321565 -89.250715 
L 189.054454 -88.48298 
L 187.786405 -87.745158 
L 186.365265 -87.130548 
L 185.101049 -86.452825 
L 183.838396 -85.803455 
L 182.578075 -85.181897 
L 181.320837 -84.587578 
L 180.06741 -84.019897 
L 178.818498 -83.478225 
L 177.574782 -82.961905 
L 176.336918 -82.47025 
L 175.226988 -81.898819 
L 173.998909 -81.453956 
L 172.778444 -81.031707 
L 171.676646 -80.526417 
L 170.469132 -80.147105 
L 169.270744 -79.788157 
L 168.181252 -79.344067 
L 166.998498 -79.023858 
L 165.918059 -78.617659 
L 164.840952 -78.229685 
L 163.682383 -77.96273 
L 162.616272 -77.60931 
L 161.554362 -77.27261 
L 160.422531 -77.05266 
L 159.37311 -76.747017 
L 158.328545 -76.456528 
L 157.289017 -76.180707 
L 156.194143 -76.01409 
L 155.168374 -75.764618 
L 154.148004 -75.52821 
L 153.13312 -75.304377 
L 152.123784 -75.092631 
L 151.120037 -74.892488 
L 150.121899 -74.703466 
L 149.129365 -74.525088 
L 148.142408 -74.356886 
L 147.160981 -74.198397 
L 146.185011 -74.049168 
L 145.214409 -73.908754 
L 144.274637 -73.708316 
L 143.311996 -73.587238 
L 142.354418 -73.473821 
L 141.401735 -73.367668 
L 140.453755 -73.268396 
L 139.510274 -73.175642 
L 138.584052 -73.038837 
L 137.647092 -72.961632 
L 136.714025 -72.890037 
L 135.784579 -72.823759 
L 134.865315 -72.725602 
L 133.940946 -72.672965 
L 133.019438 -72.624949 
L 132.100473 -72.581344 
L 131.186311 -72.519242 
L 130.270651 -72.487913 
L 129.35666 -72.460543 
L 128.444723 -72.424996 
L 127.532626 -72.409283 
L 126.621272 -72.39727 
L 125.7103 -72.388912 
L 124.799385 -72.3887 
L 123.888489 -72.400089 
L 122.977308 -72.414916 
L 122.06548 -72.433434 
L 121.153838 -72.470838 
L 120.240295 -72.500985 
L 119.32518 -72.535071 
L 118.408146 -72.573234 
L 117.49329 -72.645296 
L 116.572595 -72.695988 
L 115.649129 -72.751264 
L 114.722585 -72.811356 
L 113.802299 -72.91997 
L 112.870386 -72.994083 
L 111.934666 -73.073757 
L 110.994882 -73.159302 
L 110.06744 -73.307245 
L 109.120931 -73.408828 
L 108.169794 -73.517232 
L 107.213838 -73.632835 
L 106.252891 -73.756031 
L 105.2868 -73.887229 
L 104.315432 -74.026851 
L 103.371703 -74.251284 
L 102.392221 -74.411615 
L 101.407269 -74.581582 
L 100.416796 -74.761645 
L 99.420772 -74.952273 
L 98.419191 -75.153939 
L 97.412069 -75.367125 
L 96.399443 -75.592313 
L 95.381374 -75.829991 
L 94.297806 -75.986247 
L 93.265854 -76.248971 
L 92.228742 -76.525787 
L 91.186625 -76.817182 
L 90.139681 -77.123643 
L 89.010772 -77.344869 
L 87.951391 -77.682195 
L 86.88783 -78.036153 
L 85.732256 -78.304057 
L 84.657734 -78.692378 
L 83.579893 -79.098835 
L 82.400181 -79.41967 
L 81.313307 -79.86383 
L 80.117979 -80.223189 
L 78.913528 -80.602796 
L 77.814363 -81.107871 
L 76.596963 -81.530206 
L 75.371948 -81.975045 
L 74.264644 -82.545986 
L 73.029832 -83.037412 
L 71.789159 -83.5534 
L 70.543279 -84.094634 
L 69.29287 -84.661774 
L 68.038636 -85.255452 
L 66.781303 -85.87627 
L 65.521619 -86.524801 
L 64.260353 -87.20159 
L 62.842564 -87.81542 
L 61.577421 -88.55211 
L 60.313192 -89.318622 
L 58.885594 -90.029418 
L 57.622892 -90.859015 
L 56.363759 -91.719701 
L 54.935371 -92.532632 
L 53.50689 -93.382164 
L 52.258866 -94.343138 
L 50.836494 -95.264895 
L 49.417595 -96.224677 
L 48.190088 -97.289001 
L 46.784208 -98.323155 
L 45.385476 -99.396348 
L 43.995176 -100.508852 
L 42.6146 -101.660895 
L 41.245052 -102.852653 
L 39.887839 -104.084258 
L 38.544276 -105.355792 
L 37.215685 -106.667293 
L 35.700403 -107.981128 
L 34.404561 -109.375939 
L 33.127829 -110.810588 
L 31.871561 -112.28492 
L 30.430111 -113.775149 
L 29.218254 -115.331791 
L 28.031157 -116.927392 
L 26.661803 -118.548854 
L 25.528448 -120.224914 
L 24.216008 -121.933267 
L 23.143425 -123.68795 
L 21.896458 -125.481057 
L 20.893152 -127.31187 
L 19.723055 -129.18668 
L 18.801356 -131.090037 
L 17.727276 -133.041666 
L 16.910344 -135.011451 
L 15.972318 -137.030234 
L 15.179873 -137.120521 
L 15.179873 -137.120521 
L 14.912083 -135.203862 
L 14.723475 -133.27807 
L 14.701179 -131.340814 
L 14.532489 -129.413305 
L 14.440702 -127.480833 
L 14.449044 -125.54605 
L 14.379275 -123.611466 
L 14.452333 -121.677597 
L 14.556871 -119.745885 
L 14.585728 -117.810249 
L 14.753627 -115.882428 
L 14.951973 -113.958104 
L 15.180384 -112.037662 
L 15.339027 -110.108371 
L 15.629096 -108.195385 
L 15.948713 -106.287489 
L 16.297844 -104.385076 
L 16.676524 -102.488554 
L 17.168343 -100.616862 
L 17.519843 -98.714177 
L 17.906679 -96.816939 
L 18.491388 -94.970936 
L 19.021921 -93.111437 
L 19.582458 -91.260687 
L 20.173142 -89.419217 
L 20.794141 -87.587588 
L 21.445646 -85.766394 
L 22.127886 -83.956274 
L 22.841156 -82.157924 
L 23.585839 -80.372121 
L 24.362412 -78.599732 
L 25.241379 -76.875087 
L 26.083888 -75.134248 
L 26.960539 -73.410286 
L 27.818947 -71.675687 
L 28.777125 -69.994595 
L 29.722871 -68.30643 
L 30.720629 -66.648421 
L 31.744648 -65.006498 
L 32.794241 -63.380725 
L 33.879956 -61.778842 
L 35.130273 -60.293831 
L 36.932421 -59.223908 
L 38.75594 -58.206119 
L 40.600374 -57.241857 
L 42.392534 -56.272646 
L 44.248971 -55.393511 
L 46.110392 -54.557967 
L 47.911829 -53.707247 
L 49.712716 -52.89226 
L 51.562937 -52.162227 
L 53.357051 -51.415337 
L 55.146979 -50.700788 
L 56.931851 -50.017599 
L 58.710899 -49.364815 
L 60.483438 -48.741491 
L 62.248857 -48.146689 
L 64.006608 -47.579477 
L 65.7562 -47.038921 
L 67.461555 -46.475915 
L 69.195329 -45.986522 
L 70.883976 -45.468959 
L 72.600596 -45.027172 
L 74.278435 -44.562129 
L 75.946104 -44.114512 
L 77.610217 -43.694536 
L 79.291361 -43.338881 
L 80.936249 -42.954366 
L 82.576977 -42.595643 
L 84.207169 -42.250163 
L 85.832933 -41.929309 
L 87.431314 -41.582901 
L 89.040634 -41.292082 
L 90.645308 -41.024253 
L 92.239944 -40.765857 
L 93.815535 -40.490813 
L 95.399634 -40.270552 
L 96.974376 -40.057653 
L 98.533844 -39.830878 
L 100.098642 -39.653147 
L 101.648316 -39.456675 
L 103.199694 -39.298126 
L 104.740384 -39.130187 
L 106.277264 -38.976734 
L 107.815629 -38.862586 
L 109.34469 -38.735557 
L 110.870576 -38.622069 
L 112.395364 -38.534277 
L 113.915129 -38.44538 
L 115.432481 -38.369291 
L 116.949098 -38.320592 
L 118.462003 -38.267841 
L 119.973349 -38.227386 
L 121.483414 -38.199114 
L 122.99247 -38.182495 
L 124.50082 -38.176545 
L 126.008857 -38.177716 
L 127.517152 -38.185004 
L 129.026095 -38.203207 
L 130.536693 -38.221594 
L 132.048174 -38.261623 
L 133.561229 -38.313954 
L 135.076132 -38.378726 
L 136.594502 -38.445806 
L 138.114324 -38.53427 
L 139.636821 -38.635758 
L 141.166618 -38.726809 
L 142.695915 -38.85346 
L 144.228608 -38.993944 
L 145.769833 -39.127981 
L 147.310668 -39.295519 
L 148.864321 -39.446037 
L 150.414294 -39.642183 
L 151.977062 -39.827015 
L 153.536727 -40.053422 
L 155.11429 -40.258587 
L 156.684308 -40.517141 
L 158.271859 -40.760487 
L 159.869699 -41.01141 
L 161.456341 -41.321319 
L 163.064337 -41.613703 
L 164.683236 -41.915718 
L 166.30604 -42.243101 
L 167.940018 -42.581606 
L 169.577599 -42.946703 
L 171.226483 -43.324465 
L 172.878544 -43.730062 
L 174.568787 -44.106021 
L 176.24074 -44.547237 
L 177.915008 -45.018233 
L 179.632016 -45.459786 
L 181.325204 -45.971317 
L 183.059448 -46.460623 
L 184.760936 -47.029213 
L 186.510932 -47.569605 
L 188.269087 -48.136673 
L 190.034783 -48.731499 
L 191.764211 -49.403898 
L 193.541946 -50.056767 
L 195.372514 -50.690455 
L 197.162905 -51.404887 
L 198.957409 -52.151753 
L 200.755094 -52.932 
L 202.614079 -53.692383 
L 204.415881 -54.543293 
L 206.272896 -55.383109 
L 208.071142 -56.310574 
L 209.926677 -57.228045 
L 211.76661 -58.196249 
L 213.594522 -59.211139 
L 215.392182 -60.284724 
L 216.622688 -61.783683 
L 217.697171 -63.392821 
L 218.768413 -65.004349 
L 219.780204 -66.653848 
L 220.738647 -68.334804 
L 221.735506 -69.99293 
L 222.604761 -71.72237 
L 223.510683 -73.43031 
L 224.369405 -75.162365 
L 225.323808 -76.848615 
L 226.045379 -78.646169 
L 226.8939 -80.385143 
L 227.634211 -82.17214 
L 228.378758 -83.957472 
L 229.076112 -85.761881 
L 229.726396 -87.583745 
L 230.329779 -89.421481 
L 230.990677 -91.240682 
L 231.563202 -93.089092 
L 232.029417 -94.967853 
L 232.576101 -96.823898 
L 232.996781 -98.712512 
L 233.501914 -100.581265 
L 233.791806 -102.496968 
L 234.188124 -104.389472 
L 234.57305 -106.285469 
L 234.897509 -108.192856 
L 235.044318 -110.125004 
L 235.309115 -112.039962 
L 235.523869 -113.961363 
L 235.714295 -115.885715 
L 235.867125 -117.813726 
L 235.976056 -119.74487 
L 236.056918 -121.677608 
L 236.101909 -123.611715 
L 236.111763 -125.546496 
L 236.082641 -127.481191 
L 236.02431 -129.415362 
L 235.92777 -131.348109 
L 235.628828 -133.265683 
L 235.466729 -135.19126 
L 235.279141 -137.114748 
z
" style="stroke: #ffee9c"/>
    </defs>
    <g clip-path="url(#p023799bd33)">
     <use xlink:href="#m0c7efc7d7e" x="0" y="249.158125" style="fill: #ffee9c; stroke: #ffee9c"/>
    </g>
   </g>
   <g id="matplotlib.axis_1">
    <g id="xtick_1">
     <g id="line2d_1">
      <path d="M 125.254844 124.579062 
L 125.254844 13.699062 
" clip-path="url(#p023799bd33)" style="fill: none; stroke: #b0b0b0; stroke-width: 0.8; stroke-linecap: square"/>
     </g>
     <g id="text_1">
      <!-- N -->
      <g transform="translate(121.070469 7.958437) scale(0.1 -0.1)">
       <defs>
        <path id="DejaVuSans-Bold-4e" d="M 588 4666 
L 1931 4666 
L 3628 1466 
L 3628 4666 
L 4769 4666 
L 4769 0 
L 3425 0 
L 1728 3200 
L 1728 0 
L 588 0 
L 588 4666 
z
" transform="scale(0.015625)"/>
       </defs>
       <use xlink:href="#DejaVuSans-Bold-4e"/>
      </g>
     </g>
    </g>
    <g id="xtick_2">
     <g id="line2d_2">
      <path d="M 125.254844 124.579062 
L 203.658844 46.175063 
" clip-path="url(#p023799bd33)" style="fill: none; stroke: #b0b0b0; stroke-width: 0.8; stroke-linecap: square"/>
     </g>
    </g>
    <g id="xtick_3">
     <g id="line2d_3">
      <path d="M 125.254844 124.579062 
L 236.134844 124.579062 
" clip-path="url(#p023799bd33)" style="fill: none; stroke: #b0b0b0; stroke-width: 0.8; stroke-linecap: square"/>
     </g>
     <g id="text_2">
      <!-- E -->
      <g transform="translate(241.219219 127.338437) scale(0.1 -0.1)">
       <defs>
        <path id="DejaVuSans-Bold-45" d="M 588 4666 
L 3834 4666 
L 3834 3756 
L 1791 3756 
L 1791 2888 
L 3713 2888 
L 3713 1978 
L 1791 1978 
L 1791 909 
L 3903 909 
L 3903 0 
L 588 0 
L 588 4666 
z
" transform="scale(0.015625)"/>
       </defs>
       <use xlink:href="#DejaVuSans-Bold-45"/>
      </g>
     </g>
    </g>
    <g id="xtick_4">
     <g id="line2d_4">
      <path d="M 125.254844 124.579062 
L 203.658844 202.983062 
" clip-path="url(#p023799bd33)" style="fill: none; stroke: #b0b0b0; stroke-width: 0.8; stroke-linecap: square"/>
     </g>
    </g>
    <g id="xtick_5">
     <g id="line2d_5">
      <path d="M 125.254844 124.579062 
L 125.254844 235.459062 
" clip-path="url(#p023799bd33)" style="fill: none; stroke: #b0b0b0; stroke-width: 0.8; stroke-linecap: square"/>
     </g>
     <g id="text_3">
      <!-- S -->
      <g transform="translate(121.654063 246.718437) scale(0.1 -0.1)">
       <defs>
        <path id="DejaVuSans-Bold-53" d="M 3834 4519 
L 3834 3531 
Q 3450 3703 3084 3790 
Q 2719 3878 2394 3878 
Q 1963 3878 1756 3759 
Q 1550 3641 1550 3391 
Q 1550 3203 1689 3098 
Q 1828 2994 2194 2919 
L 2706 2816 
Q 3484 2659 3812 2340 
Q 4141 2022 4141 1434 
Q 4141 663 3683 286 
Q 3225 -91 2284 -91 
Q 1841 -91 1394 -6 
Q 947 78 500 244 
L 500 1259 
Q 947 1022 1364 901 
Q 1781 781 2169 781 
Q 2563 781 2772 912 
Q 2981 1044 2981 1288 
Q 2981 1506 2839 1625 
Q 2697 1744 2272 1838 
L 1806 1941 
Q 1106 2091 782 2419 
Q 459 2747 459 3303 
Q 459 4000 909 4375 
Q 1359 4750 2203 4750 
Q 2588 4750 2994 4692 
Q 3400 4634 3834 4519 
z
" transform="scale(0.015625)"/>
       </defs>
       <use xlink:href="#DejaVuSans-Bold-53"/>
      </g>
     </g>
    </g>
    <g id="xtick_6">
     <g id="line2d_6">
      <path d="M 125.254844 124.579062 
L 46.850844 202.983062 
" clip-path="url(#p023799bd33)" style="fill: none; stroke: #b0b0b0; stroke-width: 0.8; stroke-linecap: square"/>
     </g>
    </g>
    <g id="xtick_7">
     <g id="line2d_7">
      <path d="M 125.254844 124.579062 
L 14.374844 124.579062 
" clip-path="url(#p023799bd33)" style="fill: none; stroke: #b0b0b0; stroke-width: 0.8; stroke-linecap: square"/>
     </g>
     <g id="text_4">
      <!-- W -->
      <g transform="translate(0.36 127.338437) scale(0.1 -0.1)">
       <defs>
        <path id="DejaVuSans-Bold-57" d="M 191 4666 
L 1344 4666 
L 2150 1275 
L 2950 4666 
L 4109 4666 
L 4909 1275 
L 5716 4666 
L 6859 4666 
L 5759 0 
L 4372 0 
L 3525 3547 
L 2688 0 
L 1300 0 
L 191 4666 
z
" transform="scale(0.015625)"/>
       </defs>
       <use xlink:href="#DejaVuSans-Bold-57"/>
      </g>
     </g>
    </g>
    <g id="xtick_8">
     <g id="line2d_8">
      <path d="M 125.254844 124.579062 
L 46.850844 46.175063 
" clip-path="url(#p023799bd33)" style="fill: none; stroke: #b0b0b0; stroke-width: 0.8; stroke-linecap: square"/>
     </g>
    </g>
   </g>
   <g id="matplotlib.axis_2"/>
   <g id="patch_3">
    <path d="M 125.254844 124.579062 
C 125.254844 124.579062 125.254844 124.579062 125.254844 124.579062 
C 125.254844 124.579062 125.254844 124.579062 125.254844 124.579062 
L 125.254844 124.579062 
C 125.254844 124.579062 125.254844 124.579062 125.254844 124.579062 
C 125.254844 124.579062 125.254844 124.579062 125.254844 124.579062 
z
" clip-path="url(#p023799bd33)" style="fill: #d9d9d9"/>
   </g>
   <g id="patch_4">
    <path d="M 125.254844 124.579062 
C 125.254844 124.579062 125.254844 124.579062 125.254844 124.579062 
C 125.254844 124.579062 125.254844 124.579062 125.254844 124.579062 
L 125.254844 124.579062 
C 125.254844 124.579062 125.254844 124.579062 125.254844 124.579062 
C 125.254844 124.579062 125.254844 124.579062 125.254844 124.579062 
z
" clip-path="url(#p023799bd33)" style="fill: #d9d9d9"/>
   </g>
   <g id="patch_5">
    <path d="M 125.254844 124.579062 
C 125.254844 124.579062 125.254844 124.579062 125.254844 124.579062 
C 125.254844 124.579062 125.254844 124.579062 125.254844 124.579062 
L 125.254844 124.579062 
C 125.254844 124.579062 125.254844 124.579062 125.254844 124.579062 
C 125.254844 124.579062 125.254844 124.579062 125.254844 124.579062 
z
" clip-path="url(#p023799bd33)" style="fill: #d9d9d9"/>
   </g>
   <g id="patch_6">
    <path d="M 125.254844 124.579062 
C 125.254844 124.579062 125.254844 124.579062 125.254844 124.579062 
C 125.254844 124.579062 125.254844 124.579062 125.254844 124.579062 
L 125.254844 124.579062 
C 125.254844 124.579062 125.254844 124.579062 125.254844 124.579062 
C 125.254844 124.579062 125.254844 124.579062 125.254844 124.579062 
z
" clip-path="url(#p023799bd33)" style="fill: #d9d9d9"/>
   </g>
   <g id="patch_7">
    <path d="M 125.254844 124.579062 
C 125.254844 124.579062 125.254844 124.579062 125.254844 124.579062 
C 125.254844 124.579062 125.254844 124.579062 125.254844 124.579062 
L 125.254844 124.579062 
C 125.254844 124.579062 125.254844 124.579062 125.254844 124.579062 
C 125.254844 124.579062 125.254844 124.579062 125.254844 124.579062 
z
" clip-path="url(#p023799bd33)" style="fill: #d9d9d9"/>
   </g>
   <g id="patch_8">
    <path d="M 125.254844 124.579062 
C 125.254844 124.579062 125.254844 124.579062 125.254844 124.579062 
C 125.254844 124.579062 125.254844 124.579062 125.254844 124.579062 
L 125.254844 124.579062 
C 125.254844 124.579062 125.254844 124.579062 125.254844 124.579062 
C 125.254844 124.579062 125.254844 124.579062 125.254844 124.579062 
z
" clip-path="url(#p023799bd33)" style="fill: #d9d9d9"/>
   </g>
   <g id="patch_9">
    <path d="M 125.254844 124.579062 
C 125.254844 124.579062 125.254844 124.579062 125.254844 124.579062 
C 125.254844 124.579062 125.254844 124.579062 125.254844 124.579062 
L 125.254844 124.579062 
C 125.254844 124.579062 125.254844 124.579062 125.254844 124.579062 
C 125.254844 124.579062 125.254844 124.579062 125.254844 124.579062 
z
" clip-path="url(#p023799bd33)" style="fill: #d9d9d9"/>
   </g>
   <g id="patch_10">
    <path d="M 125.254844 124.579062 
C 125.254844 124.579062 125.254844 124.579062 125.254844 124.579062 
C 125.254844 124.579062 125.254844 124.579062 125.254844 124.579062 
L 125.254844 124.579062 
C 125.254844 124.579062 125.254844 124.579062 125.254844 124.579062 
C 125.254844 124.579062 125.254844 124.579062 125.254844 124.579062 
z
" clip-path="url(#p023799bd33)" style="fill: #d9d9d9"/>
   </g>
   <g id="patch_11">
    <path d="M 125.254844 124.579062 
C 125.254844 124.579062 125.254844 124.579062 125.254844 124.579062 
C 125.254844 124.579062 125.254844 124.579062 125.254844 124.579062 
L 125.254844 124.579062 
C 125.254844 124.579062 125.254844 124.579062 125.254844 124.579062 
C 125.254844 124.579062 125.254844 124.579062 125.254844 124.579062 
z
" clip-path="url(#p023799bd33)" style="fill: #d9d9d9"/>
   </g>
   <g id="patch_12">
    <path d="M 125.254844 124.579062 
C 125.254844 124.579062 125.254844 124.579062 125.254844 124.579062 
C 125.254844 124.579062 125.254844 124.579062 125.254844 124.579062 
L 125.254844 124.579062 
C 125.254844 124.579062 125.254844 124.579062 125.254844 124.579062 
C 125.254844 124.579062 125.254844 124.579062 125.254844 124.579062 
z
" clip-path="url(#p023799bd33)" style="fill: #d9d9d9"/>
   </g>
   <g id="patch_13">
    <path d="M 125.254844 124.579062 
C 125.254844 124.579062 125.254844 124.579062 125.254844 124.579062 
C 125.254844 124.579062 125.254844 124.579062 125.254844 124.579062 
L 125.254844 124.579062 
C 125.254844 124.579062 125.254844 124.579062 125.254844 124.579062 
C 125.254844 124.579062 125.254844 124.579062 125.254844 124.579062 
z
" clip-path="url(#p023799bd33)" style="fill: #d9d9d9"/>
   </g>
   <g id="patch_14">
    <path d="M 125.254844 124.579062 
C 125.254844 124.579062 125.254844 124.579062 125.254844 124.579062 
C 125.254844 124.579062 125.254844 124.579062 125.254844 124.579062 
L 125.254844 124.579062 
C 125.254844 124.579062 125.254844 124.579062 125.254844 124.579062 
C 125.254844 124.579062 125.254844 124.579062 125.254844 124.579062 
z
" clip-path="url(#p023799bd33)" style="fill: #d9d9d9"/>
   </g>
   <g id="patch_15">
    <path d="M 125.254844 124.579062 
C 125.254844 124.579062 125.254844 124.579062 125.254844 124.579062 
C 125.254844 124.579062 125.254844 124.579062 125.254844 124.579062 
L 125.254844 124.579062 
C 125.254844 124.579062 125.254844 124.579062 125.254844 124.579062 
C 125.254844 124.579062 125.254844 124.579062 125.254844 124.579062 
z
" clip-path="url(#p023799bd33)" style="fill: #d9d9d9"/>
   </g>
   <g id="patch_16">
    <path d="M 125.254844 124.579062 
C 125.254844 124.579062 125.254844 124.579062 125.254844 124.579062 
C 125.254844 124.579062 125.254844 124.579062 125.254844 124.579062 
L 125.254844 124.579062 
C 125.254844 124.579062 125.254844 124.579062 125.254844 124.579062 
C 125.254844 124.579062 125.254844 124.579062 125.254844 124.579062 
z
" clip-path="url(#p023799bd33)" style="fill: #d9d9d9"/>
   </g>
   <g id="patch_17">
    <path d="M 125.254844 124.579062 
C 125.254844 124.579062 125.254844 124.579062 125.254844 124.579062 
C 125.254844 124.579062 125.254844 124.579062 125.254844 124.579062 
L 125.254844 124.579062 
C 125.254844 124.579062 125.254844 124.579062 125.254844 124.579062 
C 125.254844 124.579062 125.254844 124.579062 125.254844 124.579062 
z
" clip-path="url(#p023799bd33)" style="fill: #d9d9d9"/>
   </g>
   <g id="patch_18">
    <path d="M 125.254844 124.579062 
C 125.254844 124.579062 125.254844 124.579062 125.254844 124.579062 
C 125.254844 124.579062 125.254844 124.579062 125.254844 124.579062 
L 125.254844 124.579062 
C 125.254844 124.579062 125.254844 124.579062 125.254844 124.579062 
C 125.254844 124.579062 125.254844 124.579062 125.254844 124.579062 
z
" clip-path="url(#p023799bd33)" style="fill: #d9d9d9"/>
   </g>
   <g id="patch_19">
    <path d="M 125.254844 124.579062 
C 125.254844 124.579062 125.254844 124.579062 125.254844 124.579062 
C 125.254844 124.579062 125.254844 124.579062 125.254844 124.579062 
L 125.254844 124.579062 
C 125.254844 124.579062 125.254844 124.579062 125.254844 124.579062 
C 125.254844 124.579062 125.254844 124.579062 125.254844 124.579062 
z
" clip-path="url(#p023799bd33)" style="fill: #d9d9d9"/>
   </g>
   <g id="patch_20">
    <path d="M 125.254844 124.579062 
C 125.254844 124.579062 125.254844 124.579062 125.254844 124.579062 
C 125.254844 124.579062 125.254844 124.579062 125.254844 124.579062 
L 125.254844 124.579062 
C 125.254844 124.579062 125.254844 124.579062 125.254844 124.579062 
C 125.254844 124.579062 125.254844 124.579062 125.254844 124.579062 
z
" clip-path="url(#p023799bd33)" style="fill: #d9d9d9"/>
   </g>
   <g id="patch_21">
    <path d="M 125.254844 124.579062 
C 125.254844 124.579062 125.254844 124.579062 125.254844 124.579062 
C 125.254844 124.579062 125.254844 124.579062 125.254844 124.579062 
L 125.254844 124.579062 
C 125.254844 124.579062 125.254844 124.579062 125.254844 124.579062 
C 125.254844 124.579062 125.254844 124.579062 125.254844 124.579062 
z
" clip-path="url(#p023799bd33)" style="fill: #d9d9d9"/>
   </g>
   <g id="patch_22">
    <path d="M 125.254844 124.579062 
C 125.254844 124.579062 125.254844 124.579062 125.254844 124.579062 
C 125.254844 124.579062 125.254844 124.579062 125.254844 124.579062 
L 125.254844 124.579062 
C 125.254844 124.579062 125.254844 124.579062 125.254844 124.579062 
C 125.254844 124.579062 125.254844 124.579062 125.254844 124.579062 
z
" clip-path="url(#p023799bd33)" style="fill: #d9d9d9"/>
   </g>
   <g id="patch_23">
    <path d="M 125.254844 124.579062 
C 125.254844 124.579062 125.254844 124.579062 125.254844 124.579062 
C 125.254844 124.579062 125.254844 124.579062 125.254844 124.579062 
L 125.254844 124.579062 
C 125.254844 124.579062 125.254844 124.579062 125.254844 124.579062 
C 125.254844 124.579062 125.254844 124.579062 125.254844 124.579062 
z
" clip-path="url(#p023799bd33)" style="fill: #d9d9d9"/>
   </g>
   <g id="patch_24">
    <path d="M 125.254844 124.579062 
C 125.254844 124.579062 125.254844 124.579062 125.254844 124.579062 
C 125.254844 124.579062 125.254844 124.579062 125.254844 124.579062 
L 125.254844 124.579062 
C 125.254844 124.579062 125.254844 124.579062 125.254844 124.579062 
C 125.254844 124.579062 125.254844 124.579062 125.254844 124.579062 
z
" clip-path="url(#p023799bd33)" style="fill: #d9d9d9"/>
   </g>
   <g id="patch_25">
    <path d="M 125.254844 124.579062 
C 125.254844 124.579062 125.254844 124.579062 125.254844 124.579062 
C 125.254844 124.579062 125.254844 124.579062 125.254844 124.579062 
L 125.254844 124.579062 
C 125.254844 124.579062 125.254844 124.579062 125.254844 124.579062 
C 125.254844 124.579062 125.254844 124.579062 125.254844 124.579062 
z
" clip-path="url(#p023799bd33)" style="fill: #d9d9d9"/>
   </g>
   <g id="patch_26">
    <path d="M 125.254844 124.579062 
C 125.254844 124.579062 125.254844 124.579062 125.254844 124.579062 
C 125.254844 124.579062 125.254844 124.579062 125.254844 124.579062 
L 125.254844 124.579062 
C 125.254844 124.579062 125.254844 124.579062 125.254844 124.579062 
C 125.254844 124.579062 125.254844 124.579062 125.254844 124.579062 
z
" clip-path="url(#p023799bd33)" style="fill: #d9d9d9"/>
   </g>
   <g id="patch_27">
    <path d="M 125.254844 124.579062 
C 125.254844 124.579062 125.254844 124.579062 125.254844 124.579062 
C 125.254844 124.579062 125.254844 124.579062 125.254844 124.579062 
L 125.254844 124.579062 
C 125.254844 124.579062 125.254844 124.579062 125.254844 124.579062 
C 125.254844 124.579062 125.254844 124.579062 125.254844 124.579062 
z
" clip-path="url(#p023799bd33)" style="fill: #d9d9d9"/>
   </g>
   <g id="patch_28">
    <path d="M 125.254844 124.579062 
C 125.254844 124.579062 125.254844 124.579062 125.254844 124.579062 
C 125.254844 124.579062 125.254844 124.579062 125.254844 124.579062 
L 125.254844 124.579062 
C 125.254844 124.579062 125.254844 124.579062 125.254844 124.579062 
C 125.254844 124.579062 125.254844 124.579062 125.254844 124.579062 
z
" clip-path="url(#p023799bd33)" style="fill: #d9d9d9"/>
   </g>
   <g id="patch_29">
    <path d="M 125.254844 124.579062 
C 125.254844 124.579062 125.254844 124.579062 125.254844 124.579062 
C 125.254844 124.579062 125.254844 124.579062 125.254844 124.579062 
L 125.254844 124.579062 
C 125.254844 124.579062 125.254844 124.579062 125.254844 124.579062 
C 125.254844 124.579062 125.254844 124.579062 125.254844 124.579062 
z
" clip-path="url(#p023799bd33)" style="fill: #d9d9d9"/>
   </g>
   <g id="patch_30">
    <path d="M 125.254844 124.579062 
C 125.254844 124.579062 125.254844 124.579062 125.254844 124.579062 
C 125.254844 124.579062 125.254844 124.579062 125.254844 124.579062 
L 125.254844 124.579062 
C 125.254844 124.579062 125.254844 124.579062 125.254844 124.579062 
C 125.254844 124.579062 125.254844 124.579062 125.254844 124.579062 
z
" clip-path="url(#p023799bd33)" style="fill: #d9d9d9"/>
   </g>
   <g id="patch_31">
    <path d="M 125.254844 124.579062 
C 125.254844 124.579062 125.254844 124.579062 125.254844 124.579062 
C 125.254844 124.579062 125.254844 124.579062 125.254844 124.579062 
L 125.254844 124.579062 
C 125.254844 124.579062 125.254844 124.579062 125.254844 124.579062 
C 125.254844 124.579062 125.254844 124.579062 125.254844 124.579062 
z
" clip-path="url(#p023799bd33)" style="fill: #d9d9d9"/>
   </g>
   <g id="patch_32">
    <path d="M 125.254844 124.579062 
C 125.254844 124.579062 125.254844 124.579062 125.254844 124.579062 
C 125.254844 124.579062 125.254844 124.579062 125.254844 124.579062 
L 125.254844 124.579062 
C 125.254844 124.579062 125.254844 124.579062 125.254844 124.579062 
C 125.254844 124.579062 125.254844 124.579062 125.254844 124.579062 
z
" clip-path="url(#p023799bd33)" style="fill: #d9d9d9"/>
   </g>
   <g id="patch_33">
    <path d="M 125.254844 124.579062 
C 125.254844 124.579062 125.254844 124.579062 125.254844 124.579062 
C 125.254844 124.579062 125.254844 124.579062 125.254844 124.579062 
L 125.254844 124.579062 
C 125.254844 124.579062 125.254844 124.579062 125.254844 124.579062 
C 125.254844 124.579062 125.254844 124.579062 125.254844 124.579062 
z
" clip-path="url(#p023799bd33)" style="fill: #d9d9d9"/>
   </g>
   <g id="patch_34">
    <path d="M 125.254844 124.579062 
C 125.254844 124.579062 125.254844 124.579062 125.254844 124.579062 
C 125.254844 124.579062 125.254844 124.579062 125.254844 124.579062 
L 125.254844 124.579062 
C 125.254844 124.579062 125.254844 124.579062 125.254844 124.579062 
C 125.254844 124.579062 125.254844 124.579062 125.254844 124.579062 
z
" clip-path="url(#p023799bd33)" style="fill: #d9d9d9"/>
   </g>
   <g id="patch_35">
    <path d="M 125.254844 124.579062 
C 125.254844 124.579062 125.254844 124.579062 125.254844 124.579062 
C 125.254844 124.579062 125.254844 124.579062 125.254844 124.579062 
L 127.343635 103.371207 
C 126.64947 103.302838 125.952367 103.268591 125.254844 103.268591 
C 124.55732 103.268591 123.860217 103.302838 123.166052 103.371207 
z
" clip-path="url(#p023799bd33)" style="fill: #a1a1d8"/>
   </g>
   <g id="patch_36">
    <path d="M 125.254844 124.579062 
C 125.254844 124.579062 125.254844 124.579062 125.254844 124.579062 
C 125.254844 124.579062 125.254844 124.579062 125.254844 124.579062 
L 125.254844 124.579062 
C 125.254844 124.579062 125.254844 124.579062 125.254844 124.579062 
C 125.254844 124.579062 125.254844 124.579062 125.254844 124.579062 
z
" clip-path="url(#p023799bd33)" style="fill: #a1a1d8"/>
   </g>
   <g id="patch_37">
    <path d="M 125.254844 124.579062 
C 125.254844 124.579062 125.254844 124.579062 125.254844 124.579062 
C 125.254844 124.579062 125.254844 124.579062 125.254844 124.579062 
L 133.587316 108.990104 
C 133.077066 108.71737 132.553733 108.469852 132.019207 108.248444 
C 131.484682 108.027037 130.939608 107.832006 130.385955 107.664057 
z
" clip-path="url(#p023799bd33)" style="fill: #a1a1d8"/>
   </g>
   <g id="patch_38">
    <path d="M 125.254844 124.579062 
C 125.254844 124.579062 125.254844 124.579062 125.254844 124.579062 
C 125.254844 124.579062 125.254844 124.579062 125.254844 124.579062 
L 136.002411 111.483114 
C 135.573761 111.13133 135.128098 110.800804 134.667031 110.492729 
C 134.205964 110.184654 133.73005 109.899402 133.241007 109.638003 
z
" clip-path="url(#p023799bd33)" style="fill: #a1a1d8"/>
   </g>
   <g id="patch_39">
    <path d="M 125.254844 124.579062 
C 125.254844 124.579062 125.254844 124.579062 125.254844 124.579062 
C 125.254844 124.579062 125.254844 124.579062 125.254844 124.579062 
L 125.254844 124.579062 
C 125.254844 124.579062 125.254844 124.579062 125.254844 124.579062 
C 125.254844 124.579062 125.254844 124.579062 125.254844 124.579062 
z
" clip-path="url(#p023799bd33)" style="fill: #a1a1d8"/>
   </g>
   <g id="patch_40">
    <path d="M 125.254844 124.579062 
C 125.254844 124.579062 125.254844 124.579062 125.254844 124.579062 
C 125.254844 124.579062 125.254844 124.579062 125.254844 124.579062 
L 125.254844 124.579062 
C 125.254844 124.579062 125.254844 124.579062 125.254844 124.579062 
C 125.254844 124.579062 125.254844 124.579062 125.254844 124.579062 
z
" clip-path="url(#p023799bd33)" style="fill: #a1a1d8"/>
   </g>
   <g id="patch_41">
    <path d="M 125.254844 124.579062 
C 125.254844 124.579062 125.254844 124.579062 125.254844 124.579062 
C 125.254844 124.579062 125.254844 124.579062 125.254844 124.579062 
L 125.254844 124.579062 
C 125.254844 124.579062 125.254844 124.579062 125.254844 124.579062 
C 125.254844 124.579062 125.254844 124.579062 125.254844 124.579062 
z
" clip-path="url(#p023799bd33)" style="fill: #a1a1d8"/>
   </g>
   <g id="patch_42">
    <path d="M 125.254844 124.579062 
C 125.254844 124.579062 125.254844 124.579062 125.254844 124.579062 
C 125.254844 124.579062 125.254844 124.579062 125.254844 124.579062 
L 125.254844 124.579062 
C 125.254844 124.579062 125.254844 124.579062 125.254844 124.579062 
C 125.254844 124.579062 125.254844 124.579062 125.254844 124.579062 
z
" clip-path="url(#p023799bd33)" style="fill: #a1a1d8"/>
   </g>
   <g id="patch_43">
    <path d="M 125.254844 124.579062 
C 125.254844 124.579062 125.254844 124.579062 125.254844 124.579062 
C 125.254844 124.579062 125.254844 124.579062 125.254844 124.579062 
L 125.254844 124.579062 
C 125.254844 124.579062 125.254844 124.579062 125.254844 124.579062 
C 125.254844 124.579062 125.254844 124.579062 125.254844 124.579062 
z
" clip-path="url(#p023799bd33)" style="fill: #a1a1d8"/>
   </g>
   <g id="patch_44">
    <path d="M 125.254844 124.579062 
C 125.254844 124.579062 125.254844 124.579062 125.254844 124.579062 
C 125.254844 124.579062 125.254844 124.579062 125.254844 124.579062 
L 125.254844 124.579062 
C 125.254844 124.579062 125.254844 124.579062 125.254844 124.579062 
C 125.254844 124.579062 125.254844 124.579062 125.254844 124.579062 
z
" clip-path="url(#p023799bd33)" style="fill: #a1a1d8"/>
   </g>
   <g id="patch_45">
    <path d="M 125.254844 124.579062 
C 125.254844 124.579062 125.254844 124.579062 125.254844 124.579062 
C 125.254844 124.579062 125.254844 124.579062 125.254844 124.579062 
L 125.254844 124.579062 
C 125.254844 124.579062 125.254844 124.579062 125.254844 124.579062 
C 125.254844 124.579062 125.254844 124.579062 125.254844 124.579062 
z
" clip-path="url(#p023799bd33)" style="fill: #a1a1d8"/>
   </g>
   <g id="patch_46">
    <path d="M 125.254844 124.579062 
C 125.254844 124.579062 125.254844 124.579062 125.254844 124.579062 
C 125.254844 124.579062 125.254844 124.579062 125.254844 124.579062 
L 128.863945 127.540975 
C 128.960893 127.422844 129.051982 127.300024 129.136884 127.172959 
C 129.221786 127.045894 129.300399 126.914737 129.372437 126.779962 
z
" clip-path="url(#p023799bd33)" style="fill: #a1a1d8"/>
   </g>
   <g id="patch_47">
    <path d="M 125.254844 124.579062 
C 125.254844 124.579062 125.254844 124.579062 125.254844 124.579062 
C 125.254844 124.579062 125.254844 124.579062 125.254844 124.579062 
L 140.11369 142.68462 
C 140.706312 142.198267 141.274698 141.683112 141.816796 141.141015 
C 142.358893 140.598917 142.874049 140.030531 143.360401 139.437909 
z
" clip-path="url(#p023799bd33)" style="fill: #a1a1d8"/>
   </g>
   <g id="patch_48">
    <path d="M 125.254844 124.579062 
C 125.254844 124.579062 125.254844 124.579062 125.254844 124.579062 
C 125.254844 124.579062 125.254844 124.579062 125.254844 124.579062 
L 125.254844 124.579062 
C 125.254844 124.579062 125.254844 124.579062 125.254844 124.579062 
C 125.254844 124.579062 125.254844 124.579062 125.254844 124.579062 
z
" clip-path="url(#p023799bd33)" style="fill: #a1a1d8"/>
   </g>
   <g id="patch_49">
    <path d="M 125.254844 124.579062 
C 125.254844 124.579062 125.254844 124.579062 125.254844 124.579062 
C 125.254844 124.579062 125.254844 124.579062 125.254844 124.579062 
L 129.432181 138.349899 
C 129.882921 138.213169 130.326677 138.05439 130.761844 137.874138 
C 131.197012 137.693886 131.623068 137.492376 132.038472 137.270338 
z
" clip-path="url(#p023799bd33)" style="fill: #a1a1d8"/>
   </g>
   <g id="patch_50">
    <path d="M 125.254844 124.579062 
C 125.254844 124.579062 125.254844 124.579062 125.254844 124.579062 
C 125.254844 124.579062 125.254844 124.579062 125.254844 124.579062 
L 127.481147 147.183095 
C 128.22101 147.110225 128.956851 147.001074 129.686009 146.856035 
C 130.415168 146.710996 131.136766 146.530245 131.848197 146.314435 
z
" clip-path="url(#p023799bd33)" style="fill: #a1a1d8"/>
   </g>
   <g id="patch_51">
    <path d="M 125.254844 124.579062 
C 125.254844 124.579062 125.254844 124.579062 125.254844 124.579062 
C 125.254844 124.579062 125.254844 124.579062 125.254844 124.579062 
L 122.899043 148.497913 
C 123.681942 148.575022 124.468156 148.613646 125.254844 148.613646 
C 126.041532 148.613646 126.827745 148.575022 127.610645 148.497913 
z
" clip-path="url(#p023799bd33)" style="fill: #a1a1d8"/>
   </g>
   <g id="patch_52">
    <path d="M 125.254844 124.579062 
C 125.254844 124.579062 125.254844 124.579062 125.254844 124.579062 
C 125.254844 124.579062 125.254844 124.579062 125.254844 124.579062 
L 120.725873 139.509079 
C 121.214554 139.657319 121.71022 139.781477 122.211078 139.881104 
C 122.711937 139.980731 123.217385 140.055707 123.725597 140.105762 
z
" clip-path="url(#p023799bd33)" style="fill: #a1a1d8"/>
   </g>
   <g id="patch_53">
    <path d="M 125.254844 124.579062 
C 125.254844 124.579062 125.254844 124.579062 125.254844 124.579062 
C 125.254844 124.579062 125.254844 124.579062 125.254844 124.579062 
L 110.246709 152.657307 
C 111.165752 153.148546 112.108359 153.594366 113.071127 153.993157 
C 114.033894 154.391949 115.01566 154.74323 116.01288 155.045734 
z
" clip-path="url(#p023799bd33)" style="fill: #a1a1d8"/>
   </g>
   <g id="patch_54">
    <path d="M 125.254844 124.579062 
C 125.254844 124.579062 125.254844 124.579062 125.254844 124.579062 
C 125.254844 124.579062 125.254844 124.579062 125.254844 124.579062 
L 95.243394 161.14812 
C 96.440354 162.130439 97.684822 163.053399 98.972302 163.913666 
C 100.259782 164.773933 101.588723 165.570469 102.954325 166.300399 
z
" clip-path="url(#p023799bd33)" style="fill: #a1a1d8"/>
   </g>
   <g id="patch_55">
    <path d="M 125.254844 124.579062 
C 125.254844 124.579062 125.254844 124.579062 125.254844 124.579062 
C 125.254844 124.579062 125.254844 124.579062 125.254844 124.579062 
L 91.947971 151.913306 
C 92.842662 153.00349 93.790338 154.04909 94.787577 155.046329 
C 95.784816 156.043568 96.830416 156.991244 97.9206 157.885935 
z
" clip-path="url(#p023799bd33)" style="fill: #a1a1d8"/>
   </g>
   <g id="patch_56">
    <path d="M 125.254844 124.579062 
C 125.254844 124.579062 125.254844 124.579062 125.254844 124.579062 
C 125.254844 124.579062 125.254844 124.579062 125.254844 124.579062 
L 98.782421 138.728867 
C 99.245565 139.595349 99.750972 140.43857 100.296816 141.255483 
C 100.84266 142.072397 101.428284 142.862019 102.051571 143.621496 
z
" clip-path="url(#p023799bd33)" style="fill: #a1a1d8"/>
   </g>
   <g id="patch_57">
    <path d="M 125.254844 124.579062 
C 125.254844 124.579062 125.254844 124.579062 125.254844 124.579062 
C 125.254844 124.579062 125.254844 124.579062 125.254844 124.579062 
L 62.307299 143.673992 
C 62.932304 145.734359 63.658092 147.762798 64.482039 149.751983 
C 65.305986 151.741167 66.2271 153.688699 67.242054 155.587545 
z
" clip-path="url(#p023799bd33)" style="fill: #a1a1d8"/>
   </g>
   <g id="patch_58">
    <path d="M 125.254844 124.579062 
C 125.254844 124.579062 125.254844 124.579062 125.254844 124.579062 
C 125.254844 124.579062 125.254844 124.579062 125.254844 124.579062 
L 51.17899 131.874897 
C 51.417793 134.299511 51.775495 136.710938 52.250802 139.100469 
C 52.726109 141.490001 53.318449 143.854755 54.025683 146.186192 
z
" clip-path="url(#p023799bd33)" style="fill: #a1a1d8"/>
   </g>
   <g id="patch_59">
    <path d="M 125.254844 124.579062 
C 125.254844 124.579062 125.254844 124.579062 125.254844 124.579062 
C 125.254844 124.579062 125.254844 124.579062 125.254844 124.579062 
L 36.607024 115.848014 
C 36.321244 118.74959 36.178095 121.663448 36.178095 124.579062 
C 36.178095 127.494677 36.321244 130.408535 36.607024 133.310111 
z
" clip-path="url(#p023799bd33)" style="fill: #a1a1d8"/>
   </g>
   <g id="patch_60">
    <path d="M 125.254844 124.579062 
C 125.254844 124.579062 125.254844 124.579062 125.254844 124.579062 
C 125.254844 124.579062 125.254844 124.579062 125.254844 124.579062 
L 51.388802 102.172044 
C 50.655387 104.589789 50.041118 107.042087 49.548215 109.520078 
C 49.055312 111.998069 48.684368 114.498766 48.436724 117.013138 
z
" clip-path="url(#p023799bd33)" style="fill: #a1a1d8"/>
   </g>
   <g id="patch_61">
    <path d="M 125.254844 124.579062 
C 125.254844 124.579062 125.254844 124.579062 125.254844 124.579062 
C 125.254844 124.579062 125.254844 124.579062 125.254844 124.579062 
L 98.569787 110.315602 
C 98.102922 111.189044 97.679223 112.084881 97.300219 112.999878 
C 96.921215 113.914874 96.587363 114.847928 96.29987 115.795667 
z
" clip-path="url(#p023799bd33)" style="fill: #a1a1d8"/>
   </g>
   <g id="patch_62">
    <path d="M 125.254844 124.579062 
C 125.254844 124.579062 125.254844 124.579062 125.254844 124.579062 
C 125.254844 124.579062 125.254844 124.579062 125.254844 124.579062 
L 76.833673 84.840834 
C 75.532981 86.425732 74.310888 88.073534 73.171806 89.77829 
C 72.032725 91.483045 70.978029 93.242699 70.011528 95.050895 
z
" clip-path="url(#p023799bd33)" style="fill: #a1a1d8"/>
   </g>
   <g id="patch_63">
    <path d="M 125.254844 124.579062 
C 125.254844 124.579062 125.254844 124.579062 125.254844 124.579062 
C 125.254844 124.579062 125.254844 124.579062 125.254844 124.579062 
L 94.331568 86.898941 
C 93.098241 87.911106 91.915352 88.983214 90.787174 90.111393 
C 89.658996 91.239571 88.586888 92.42246 87.574723 93.655786 
z
" clip-path="url(#p023799bd33)" style="fill: #a1a1d8"/>
   </g>
   <g id="patch_64">
    <path d="M 125.254844 124.579062 
C 125.254844 124.579062 125.254844 124.579062 125.254844 124.579062 
C 125.254844 124.579062 125.254844 124.579062 125.254844 124.579062 
L 109.901038 95.854112 
C 108.960827 96.356665 108.045857 96.905077 107.159433 97.497367 
C 106.273009 98.089656 105.416198 98.72511 104.592097 99.401433 
z
" clip-path="url(#p023799bd33)" style="fill: #a1a1d8"/>
   </g>
   <g id="patch_65">
    <path d="M 125.254844 124.579062 
C 125.254844 124.579062 125.254844 124.579062 125.254844 124.579062 
C 125.254844 124.579062 125.254844 124.579062 125.254844 124.579062 
L 118.478307 102.239815 
C 117.74711 102.461621 117.027244 102.719194 116.321309 103.011602 
C 115.615374 103.30401 114.92422 103.630901 114.250346 103.991094 
z
" clip-path="url(#p023799bd33)" style="fill: #a1a1d8"/>
   </g>
   <g id="patch_66">
    <path d="M 125.254844 124.579062 
C 125.254844 124.579062 125.254844 124.579062 125.254844 124.579062 
C 125.254844 124.579062 125.254844 124.579062 125.254844 124.579062 
L 121.992047 91.451333 
C 120.907727 91.55813 119.829304 91.718099 118.760673 91.930662 
C 117.692042 92.143226 116.634492 92.408129 115.591842 92.724413 
z
" clip-path="url(#p023799bd33)" style="fill: #a1a1d8"/>
   </g>
   <g id="patch_67">
    <path d="M 123.166052 103.371207 
C 123.860217 103.302838 124.55732 103.268591 125.254844 103.268591 
C 125.952367 103.268591 126.64947 103.302838 127.343635 103.371207 
L 127.343635 103.371207 
C 126.64947 103.302838 125.952367 103.268591 125.254844 103.268591 
C 124.55732 103.268591 123.860217 103.302838 123.166052 103.371207 
z
" clip-path="url(#p023799bd33)" style="fill: #ff8c8e"/>
   </g>
   <g id="patch_68">
    <path d="M 125.254844 124.579062 
C 125.254844 124.579062 125.254844 124.579062 125.254844 124.579062 
C 125.254844 124.579062 125.254844 124.579062 125.254844 124.579062 
L 126.819818 119.420034 
C 126.650955 119.36881 126.479679 119.325908 126.306609 119.291482 
C 126.133538 119.257056 125.958882 119.231148 125.783271 119.213852 
z
" clip-path="url(#p023799bd33)" style="fill: #ff8c8e"/>
   </g>
   <g id="patch_69">
    <path d="M 130.385955 107.664057 
C 130.939608 107.832006 131.484682 108.027037 132.019207 108.248444 
C 132.553733 108.469852 133.077066 108.71737 133.587316 108.990104 
L 133.587316 108.990104 
C 133.077066 108.71737 132.553733 108.469852 132.019207 108.248444 
C 131.484682 108.027037 130.939608 107.832006 130.385955 107.664057 
z
" clip-path="url(#p023799bd33)" style="fill: #ff8c8e"/>
   </g>
   <g id="patch_70">
    <path d="M 133.241007 109.638003 
C 133.73005 109.899402 134.205964 110.184654 134.667031 110.492729 
C 135.128098 110.800804 135.573761 111.13133 136.002411 111.483114 
L 136.002411 111.483114 
C 135.573761 111.13133 135.128098 110.800804 134.667031 110.492729 
C 134.205964 110.184654 133.73005 109.899402 133.241007 109.638003 
z
" clip-path="url(#p023799bd33)" style="fill: #ff8c8e"/>
   </g>
   <g id="patch_71">
    <path d="M 125.254844 124.579062 
C 125.254844 124.579062 125.254844 124.579062 125.254844 124.579062 
C 125.254844 124.579062 125.254844 124.579062 125.254844 124.579062 
L 125.254844 124.579062 
C 125.254844 124.579062 125.254844 124.579062 125.254844 124.579062 
C 125.254844 124.579062 125.254844 124.579062 125.254844 124.579062 
z
" clip-path="url(#p023799bd33)" style="fill: #ff8c8e"/>
   </g>
   <g id="patch_72">
    <path d="M 125.254844 124.579062 
C 125.254844 124.579062 125.254844 124.579062 125.254844 124.579062 
C 125.254844 124.579062 125.254844 124.579062 125.254844 124.579062 
L 125.254844 124.579062 
C 125.254844 124.579062 125.254844 124.579062 125.254844 124.579062 
C 125.254844 124.579062 125.254844 124.579062 125.254844 124.579062 
z
" clip-path="url(#p023799bd33)" style="fill: #ff8c8e"/>
   </g>
   <g id="patch_73">
    <path d="M 125.254844 124.579062 
C 125.254844 124.579062 125.254844 124.579062 125.254844 124.579062 
C 125.254844 124.579062 125.254844 124.579062 125.254844 124.579062 
L 125.254844 124.579062 
C 125.254844 124.579062 125.254844 124.579062 125.254844 124.579062 
C 125.254844 124.579062 125.254844 124.579062 125.254844 124.579062 
z
" clip-path="url(#p023799bd33)" style="fill: #ff8c8e"/>
   </g>
   <g id="patch_74">
    <path d="M 125.254844 124.579062 
C 125.254844 124.579062 125.254844 124.579062 125.254844 124.579062 
C 125.254844 124.579062 125.254844 124.579062 125.254844 124.579062 
L 125.254844 124.579062 
C 125.254844 124.579062 125.254844 124.579062 125.254844 124.579062 
C 125.254844 124.579062 125.254844 124.579062 125.254844 124.579062 
z
" clip-path="url(#p023799bd33)" style="fill: #ff8c8e"/>
   </g>
   <g id="patch_75">
    <path d="M 125.254844 124.579062 
C 125.254844 124.579062 125.254844 124.579062 125.254844 124.579062 
C 125.254844 124.579062 125.254844 124.579062 125.254844 124.579062 
L 125.254844 124.579062 
C 125.254844 124.579062 125.254844 124.579062 125.254844 124.579062 
C 125.254844 124.579062 125.254844 124.579062 125.254844 124.579062 
z
" clip-path="url(#p023799bd33)" style="fill: #ff8c8e"/>
   </g>
   <g id="patch_76">
    <path d="M 125.254844 124.579062 
C 125.254844 124.579062 125.254844 124.579062 125.254844 124.579062 
C 125.254844 124.579062 125.254844 124.579062 125.254844 124.579062 
L 125.254844 124.579062 
C 125.254844 124.579062 125.254844 124.579062 125.254844 124.579062 
C 125.254844 124.579062 125.254844 124.579062 125.254844 124.579062 
z
" clip-path="url(#p023799bd33)" style="fill: #ff8c8e"/>
   </g>
   <g id="patch_77">
    <path d="M 125.254844 124.579062 
C 125.254844 124.579062 125.254844 124.579062 125.254844 124.579062 
C 125.254844 124.579062 125.254844 124.579062 125.254844 124.579062 
L 125.254844 124.579062 
C 125.254844 124.579062 125.254844 124.579062 125.254844 124.579062 
C 125.254844 124.579062 125.254844 124.579062 125.254844 124.579062 
z
" clip-path="url(#p023799bd33)" style="fill: #ff8c8e"/>
   </g>
   <g id="patch_78">
    <path d="M 129.372437 126.779962 
C 129.300399 126.914737 129.221786 127.045894 129.136884 127.172959 
C 129.051982 127.300024 128.960893 127.422844 128.863945 127.540975 
L 128.863945 127.540975 
C 128.960893 127.422844 129.051982 127.300024 129.136884 127.172959 
C 129.221786 127.045894 129.300399 126.914737 129.372437 126.779962 
z
" clip-path="url(#p023799bd33)" style="fill: #ff8c8e"/>
   </g>
   <g id="patch_79">
    <path d="M 143.360401 139.437909 
C 142.874049 140.030531 142.358893 140.598917 141.816796 141.141015 
C 141.274698 141.683112 140.706312 142.198267 140.11369 142.68462 
L 140.11369 142.68462 
C 140.706312 142.198267 141.274698 141.683112 141.816796 141.141015 
C 142.358893 140.598917 142.874049 140.030531 143.360401 139.437909 
z
" clip-path="url(#p023799bd33)" style="fill: #ff8c8e"/>
   </g>
   <g id="patch_80">
    <path d="M 125.254844 124.579062 
C 125.254844 124.579062 125.254844 124.579062 125.254844 124.579062 
C 125.254844 124.579062 125.254844 124.579062 125.254844 124.579062 
L 125.254844 124.579062 
C 125.254844 124.579062 125.254844 124.579062 125.254844 124.579062 
C 125.254844 124.579062 125.254844 124.579062 125.254844 124.579062 
z
" clip-path="url(#p023799bd33)" style="fill: #ff8c8e"/>
   </g>
   <g id="patch_81">
    <path d="M 132.038472 137.270338 
C 131.623068 137.492376 131.197012 137.693886 130.761844 137.874138 
C 130.326677 138.05439 129.882921 138.213169 129.432181 138.349899 
L 132.09881 147.140596 
C 132.837283 146.916583 133.564312 146.656448 134.277272 146.36113 
C 134.990231 146.065813 135.688262 145.735669 136.368842 145.371891 
z
" clip-path="url(#p023799bd33)" style="fill: #ff8c8e"/>
   </g>
   <g id="patch_82">
    <path d="M 131.848197 146.314435 
C 131.136766 146.530245 130.415168 146.710996 129.686009 146.856035 
C 128.956851 147.001074 128.22101 147.110225 127.481147 147.183095 
L 128.013314 152.586282 
C 128.930032 152.495993 129.841765 152.360751 130.745219 152.181042 
C 131.648673 152.001334 132.542759 151.777377 133.424248 151.509981 
z
" clip-path="url(#p023799bd33)" style="fill: #ff8c8e"/>
   </g>
   <g id="patch_83">
    <path d="M 127.610645 148.497913 
C 126.827745 148.575022 126.041532 148.613646 125.254844 148.613646 
C 124.468156 148.613646 123.681942 148.575022 122.899043 148.497913 
L 122.855005 148.945033 
C 123.65254 149.023583 124.45345 149.062929 125.254844 149.062929 
C 126.056237 149.062929 126.857148 149.023583 127.654682 148.945033 
z
" clip-path="url(#p023799bd33)" style="fill: #ff8c8e"/>
   </g>
   <g id="patch_84">
    <path d="M 123.725597 140.105762 
C 123.217385 140.055707 122.711937 139.980731 122.211078 139.881104 
C 121.71022 139.781477 121.214554 139.657319 120.725873 139.509079 
L 117.198647 151.136785 
C 118.067921 151.400477 118.949617 151.62133 119.840551 151.798548 
C 120.731486 151.975766 121.630584 152.109135 122.534599 152.198172 
z
" clip-path="url(#p023799bd33)" style="fill: #ff8c8e"/>
   </g>
   <g id="patch_85">
    <path d="M 116.01288 155.045734 
C 115.01566 154.74323 114.033894 154.391949 113.071127 153.993157 
C 112.108359 153.594366 111.165752 153.148546 110.246709 152.657307 
L 109.692133 153.694846 
C 110.645136 154.204237 111.622575 154.666531 112.620918 155.080058 
C 113.619261 155.493585 114.637305 155.857847 115.671374 156.171529 
z
" clip-path="url(#p023799bd33)" style="fill: #ff8c8e"/>
   </g>
   <g id="patch_86">
    <path d="M 102.954325 166.300399 
C 101.588723 165.570469 100.259782 164.773933 98.972302 163.913666 
C 97.684822 163.053399 96.440354 162.130439 95.243394 161.14812 
L 89.445496 168.212879 
C 90.873696 169.384973 92.358581 170.486239 93.894789 171.512701 
C 95.430997 172.539162 97.016676 173.489581 98.646098 174.360525 
z
" clip-path="url(#p023799bd33)" style="fill: #ff8c8e"/>
   </g>
   <g id="patch_87">
    <path d="M 97.9206 157.885935 
C 96.830416 156.991244 95.784816 156.043568 94.787577 155.046329 
C 93.790338 154.04909 92.842662 153.00349 91.947971 151.913306 
L 86.663894 156.249836 
C 87.700526 157.512976 88.79855 158.724458 89.953999 159.879907 
C 91.109448 161.035357 92.320931 162.13338 93.58407 163.170012 
z
" clip-path="url(#p023799bd33)" style="fill: #ff8c8e"/>
   </g>
   <g id="patch_88">
    <path d="M 102.051571 143.621496 
C 101.428284 142.862019 100.84266 142.072397 100.296816 141.255483 
C 99.750972 140.43857 99.245565 139.595349 98.782421 138.728867 
L 69.909321 154.161861 
C 70.87761 155.973402 71.934257 157.736312 73.075446 159.444221 
C 74.216635 161.152131 75.440989 162.802982 76.744087 164.390811 
z
" clip-path="url(#p023799bd33)" style="fill: #ff8c8e"/>
   </g>
   <g id="patch_89">
    <path d="M 67.242054 155.587545 
C 66.2271 153.688699 65.305986 151.741167 64.482039 149.751983 
C 63.658092 147.762798 62.932304 145.734359 62.307299 143.673992 
L 48.170951 147.962206 
C 48.936316 150.485277 49.825096 152.96925 50.83408 155.405152 
C 51.843064 157.841055 52.971036 160.225951 54.213921 162.551227 
z
" clip-path="url(#p023799bd33)" style="fill: #ff8c8e"/>
   </g>
   <g id="patch_90">
    <path d="M 54.025683 146.186192 
C 53.318449 143.854755 52.726109 141.490001 52.250802 139.100469 
C 51.775495 136.710938 51.417793 134.299511 51.17899 131.874897 
L 22.26237 134.722936 
C 22.594394 138.094033 23.09173 141.446797 23.752581 144.769118 
C 24.413431 148.091439 25.237 151.379311 26.220313 154.620859 
z
" clip-path="url(#p023799bd33)" style="fill: #ff8c8e"/>
   </g>
   <g id="patch_91">
    <path d="M 36.607024 133.310111 
C 36.321244 130.408535 36.178095 127.494677 36.178095 124.579062 
C 36.178095 121.663448 36.321244 118.74959 36.607024 115.848014 
L 35.980101 115.786268 
C 35.6923 118.708363 35.548139 121.642828 35.548139 124.579062 
C 35.548139 127.515297 35.6923 130.449762 35.980101 133.371857 
z
" clip-path="url(#p023799bd33)" style="fill: #ff8c8e"/>
   </g>
   <g id="patch_92">
    <path d="M 48.436724 117.013138 
C 48.684368 114.498766 49.055312 111.998069 49.548215 109.520078 
C 50.041118 107.042087 50.655387 104.589789 51.388802 102.172044 
L 37.305139 97.899811 
C 36.431888 100.778537 35.7005 103.698401 35.113617 106.648858 
C 34.526735 109.599315 34.085066 112.576808 33.790205 115.570582 
z
" clip-path="url(#p023799bd33)" style="fill: #ff8c8e"/>
   </g>
   <g id="patch_93">
    <path d="M 96.29987 115.795667 
C 96.587363 114.847928 96.921215 113.914874 97.300219 112.999878 
C 97.679223 112.084881 98.102922 111.189044 98.569787 110.315602 
L 68.3734 94.175298 
C 67.37824 96.037112 66.475089 97.946664 65.66721 99.897056 
C 64.859331 101.847449 64.147698 103.83633 63.534881 105.856516 
z
" clip-path="url(#p023799bd33)" style="fill: #ff8c8e"/>
   </g>
   <g id="patch_94">
    <path d="M 70.011528 95.050895 
C 70.978029 93.242699 72.032725 91.483045 73.171806 89.77829 
C 74.310888 88.073534 75.532981 86.425732 76.833673 84.840834 
L 57.927937 69.325298 
C 56.119399 71.529008 54.420147 73.820185 52.836319 76.190551 
C 51.25249 78.560917 49.785995 81.007617 48.44213 83.521812 
z
" clip-path="url(#p023799bd33)" style="fill: #ff8c8e"/>
   </g>
   <g id="patch_95">
    <path d="M 87.574723 93.655786 
C 88.586888 92.42246 89.658996 91.239571 90.787174 90.111393 
C 91.915352 88.983214 93.098241 87.911106 94.331568 86.898941 
L 94.331568 86.898941 
C 93.098241 87.911106 91.915352 88.983214 90.787174 90.111393 
C 89.658996 91.239571 88.586888 92.42246 87.574723 93.655786 
z
" clip-path="url(#p023799bd33)" style="fill: #ff8c8e"/>
   </g>
   <g id="patch_96">
    <path d="M 104.592097 99.401433 
C 105.416198 98.72511 106.273009 98.089656 107.159433 97.497367 
C 108.045857 96.905077 108.960827 96.356665 109.901038 95.854112 
L 109.901038 95.854112 
C 108.960827 96.356665 108.045857 96.905077 107.159433 97.497367 
C 106.273009 98.089656 105.416198 98.72511 104.592097 99.401433 
z
" clip-path="url(#p023799bd33)" style="fill: #ff8c8e"/>
   </g>
   <g id="patch_97">
    <path d="M 114.250346 103.991094 
C 114.92422 103.630901 115.615374 103.30401 116.321309 103.011602 
C 117.027244 102.719194 117.74711 102.461621 118.478307 102.239815 
L 115.996332 94.05784 
C 114.997327 94.360885 114.013803 94.712796 113.049312 95.112301 
C 112.08482 95.511806 111.140525 95.958425 110.219837 96.450543 
z
" clip-path="url(#p023799bd33)" style="fill: #ff8c8e"/>
   </g>
   <g id="patch_98">
    <path d="M 115.591842 92.724413 
C 116.634492 92.408129 117.692042 92.143226 118.760673 91.930662 
C 119.829304 91.718099 120.907727 91.55813 121.992047 91.451333 
L 121.992047 91.451333 
C 120.907727 91.55813 119.829304 91.718099 118.760673 91.930662 
C 117.692042 92.143226 116.634492 92.408129 115.591842 92.724413 
z
" clip-path="url(#p023799bd33)" style="fill: #ff8c8e"/>
   </g>
   <g id="patch_99">
    <path d="M 123.166052 103.371207 
C 123.860217 103.302838 124.55732 103.268591 125.254844 103.268591 
C 125.952367 103.268591 126.64947 103.302838 127.343635 103.371207 
L 127.343635 103.371207 
C 126.64947 103.302838 125.952367 103.268591 125.254844 103.268591 
C 124.55732 103.268591 123.860217 103.302838 123.166052 103.371207 
z
" clip-path="url(#p023799bd33)" style="fill: #828282"/>
   </g>
   <g id="patch_100">
    <path d="M 125.783271 119.213852 
C 125.958882 119.231148 126.133538 119.257056 126.306609 119.291482 
C 126.479679 119.325908 126.650955 119.36881 126.819818 119.420034 
L 126.819818 119.420034 
C 126.650955 119.36881 126.479679 119.325908 126.306609 119.291482 
C 126.133538 119.257056 125.958882 119.231148 125.783271 119.213852 
z
" clip-path="url(#p023799bd33)" style="fill: #828282"/>
   </g>
   <g id="patch_101">
    <path d="M 130.385955 107.664057 
C 130.939608 107.832006 131.484682 108.027037 132.019207 108.248444 
C 132.553733 108.469852 133.077066 108.71737 133.587316 108.990104 
L 133.587316 108.990104 
C 133.077066 108.71737 132.553733 108.469852 132.019207 108.248444 
C 131.484682 108.027037 130.939608 107.832006 130.385955 107.664057 
z
" clip-path="url(#p023799bd33)" style="fill: #828282"/>
   </g>
   <g id="patch_102">
    <path d="M 133.241007 109.638003 
C 133.73005 109.899402 134.205964 110.184654 134.667031 110.492729 
C 135.128098 110.800804 135.573761 111.13133 136.002411 111.483114 
L 136.002411 111.483114 
C 135.573761 111.13133 135.128098 110.800804 134.667031 110.492729 
C 134.205964 110.184654 133.73005 109.899402 133.241007 109.638003 
z
" clip-path="url(#p023799bd33)" style="fill: #828282"/>
   </g>
   <g id="patch_103">
    <path d="M 125.254844 124.579062 
C 125.254844 124.579062 125.254844 124.579062 125.254844 124.579062 
C 125.254844 124.579062 125.254844 124.579062 125.254844 124.579062 
L 125.254844 124.579062 
C 125.254844 124.579062 125.254844 124.579062 125.254844 124.579062 
C 125.254844 124.579062 125.254844 124.579062 125.254844 124.579062 
z
" clip-path="url(#p023799bd33)" style="fill: #828282"/>
   </g>
   <g id="patch_104">
    <path d="M 125.254844 124.579062 
C 125.254844 124.579062 125.254844 124.579062 125.254844 124.579062 
C 125.254844 124.579062 125.254844 124.579062 125.254844 124.579062 
L 125.254844 124.579062 
C 125.254844 124.579062 125.254844 124.579062 125.254844 124.579062 
C 125.254844 124.579062 125.254844 124.579062 125.254844 124.579062 
z
" clip-path="url(#p023799bd33)" style="fill: #828282"/>
   </g>
   <g id="patch_105">
    <path d="M 125.254844 124.579062 
C 125.254844 124.579062 125.254844 124.579062 125.254844 124.579062 
C 125.254844 124.579062 125.254844 124.579062 125.254844 124.579062 
L 125.254844 124.579062 
C 125.254844 124.579062 125.254844 124.579062 125.254844 124.579062 
C 125.254844 124.579062 125.254844 124.579062 125.254844 124.579062 
z
" clip-path="url(#p023799bd33)" style="fill: #828282"/>
   </g>
   <g id="patch_106">
    <path d="M 125.254844 124.579062 
C 125.254844 124.579062 125.254844 124.579062 125.254844 124.579062 
C 125.254844 124.579062 125.254844 124.579062 125.254844 124.579062 
L 125.254844 124.579062 
C 125.254844 124.579062 125.254844 124.579062 125.254844 124.579062 
C 125.254844 124.579062 125.254844 124.579062 125.254844 124.579062 
z
" clip-path="url(#p023799bd33)" style="fill: #828282"/>
   </g>
   <g id="patch_107">
    <path d="M 125.254844 124.579062 
C 125.254844 124.579062 125.254844 124.579062 125.254844 124.579062 
C 125.254844 124.579062 125.254844 124.579062 125.254844 124.579062 
L 125.254844 124.579062 
C 125.254844 124.579062 125.254844 124.579062 125.254844 124.579062 
C 125.254844 124.579062 125.254844 124.579062 125.254844 124.579062 
z
" clip-path="url(#p023799bd33)" style="fill: #828282"/>
   </g>
   <g id="patch_108">
    <path d="M 125.254844 124.579062 
C 125.254844 124.579062 125.254844 124.579062 125.254844 124.579062 
C 125.254844 124.579062 125.254844 124.579062 125.254844 124.579062 
L 125.254844 124.579062 
C 125.254844 124.579062 125.254844 124.579062 125.254844 124.579062 
C 125.254844 124.579062 125.254844 124.579062 125.254844 124.579062 
z
" clip-path="url(#p023799bd33)" style="fill: #828282"/>
   </g>
   <g id="patch_109">
    <path d="M 125.254844 124.579062 
C 125.254844 124.579062 125.254844 124.579062 125.254844 124.579062 
C 125.254844 124.579062 125.254844 124.579062 125.254844 124.579062 
L 125.254844 124.579062 
C 125.254844 124.579062 125.254844 124.579062 125.254844 124.579062 
C 125.254844 124.579062 125.254844 124.579062 125.254844 124.579062 
z
" clip-path="url(#p023799bd33)" style="fill: #828282"/>
   </g>
   <g id="patch_110">
    <path d="M 129.372437 126.779962 
C 129.300399 126.914737 129.221786 127.045894 129.136884 127.172959 
C 129.051982 127.300024 128.960893 127.422844 128.863945 127.540975 
L 128.863945 127.540975 
C 128.960893 127.422844 129.051982 127.300024 129.136884 127.172959 
C 129.221786 127.045894 129.300399 126.914737 129.372437 126.779962 
z
" clip-path="url(#p023799bd33)" style="fill: #828282"/>
   </g>
   <g id="patch_111">
    <path d="M 143.360401 139.437909 
C 142.874049 140.030531 142.358893 140.598917 141.816796 141.141015 
C 141.274698 141.683112 140.706312 142.198267 140.11369 142.68462 
L 140.11369 142.68462 
C 140.706312 142.198267 141.274698 141.683112 141.816796 141.141015 
C 142.358893 140.598917 142.874049 140.030531 143.360401 139.437909 
z
" clip-path="url(#p023799bd33)" style="fill: #828282"/>
   </g>
   <g id="patch_112">
    <path d="M 125.254844 124.579062 
C 125.254844 124.579062 125.254844 124.579062 125.254844 124.579062 
C 125.254844 124.579062 125.254844 124.579062 125.254844 124.579062 
L 125.254844 124.579062 
C 125.254844 124.579062 125.254844 124.579062 125.254844 124.579062 
C 125.254844 124.579062 125.254844 124.579062 125.254844 124.579062 
z
" clip-path="url(#p023799bd33)" style="fill: #828282"/>
   </g>
   <g id="patch_113">
    <path d="M 136.368842 145.371891 
C 135.688262 145.735669 134.990231 146.065813 134.277272 146.36113 
C 133.564312 146.656448 132.837283 146.916583 132.09881 147.140596 
L 132.09881 147.140596 
C 132.837283 146.916583 133.564312 146.656448 134.277272 146.36113 
C 134.990231 146.065813 135.688262 145.735669 136.368842 145.371891 
z
" clip-path="url(#p023799bd33)" style="fill: #828282"/>
   </g>
   <g id="patch_114">
    <path d="M 133.424248 151.509981 
C 132.542759 151.777377 131.648673 152.001334 130.745219 152.181042 
C 129.841765 152.360751 128.930032 152.495993 128.013314 152.586282 
L 128.013314 152.586282 
C 128.930032 152.495993 129.841765 152.360751 130.745219 152.181042 
C 131.648673 152.001334 132.542759 151.777377 133.424248 151.509981 
z
" clip-path="url(#p023799bd33)" style="fill: #828282"/>
   </g>
   <g id="patch_115">
    <path d="M 127.654682 148.945033 
C 126.857148 149.023583 126.056237 149.062929 125.254844 149.062929 
C 124.45345 149.062929 123.65254 149.023583 122.855005 148.945033 
L 122.855005 148.945033 
C 123.65254 149.023583 124.45345 149.062929 125.254844 149.062929 
C 126.056237 149.062929 126.857148 149.023583 127.654682 148.945033 
z
" clip-path="url(#p023799bd33)" style="fill: #828282"/>
   </g>
   <g id="patch_116">
    <path d="M 122.534599 152.198172 
C 121.630584 152.109135 120.731486 151.975766 119.840551 151.798548 
C 118.949617 151.62133 118.067921 151.400477 117.198647 151.136785 
L 117.198647 151.136785 
C 118.067921 151.400477 118.949617 151.62133 119.840551 151.798548 
C 120.731486 151.975766 121.630584 152.109135 122.534599 152.198172 
z
" clip-path="url(#p023799bd33)" style="fill: #828282"/>
   </g>
   <g id="patch_117">
    <path d="M 115.671374 156.171529 
C 114.637305 155.857847 113.619261 155.493585 112.620918 155.080058 
C 111.622575 154.666531 110.645136 154.204237 109.692133 153.694846 
L 108.614141 155.711628 
C 109.633156 156.256303 110.678299 156.750619 111.745795 157.192791 
C 112.813291 157.634962 113.901853 158.024456 115.007549 158.359865 
z
" clip-path="url(#p023799bd33)" style="fill: #828282"/>
   </g>
   <g id="patch_118">
    <path d="M 98.646098 174.360525 
C 97.016676 173.489581 95.430997 172.539162 93.894789 171.512701 
C 92.358581 170.486239 90.873696 169.384973 89.445496 168.212879 
L 88.51837 169.342585 
C 89.983547 170.545025 91.506877 171.674804 93.082859 172.727841 
C 94.65884 173.780878 96.285573 174.755904 97.957181 175.649397 
z
" clip-path="url(#p023799bd33)" style="fill: #828282"/>
   </g>
   <g id="patch_119">
    <path d="M 93.58407 163.170012 
C 92.320931 162.13338 91.109448 161.035357 89.953999 159.879907 
C 88.79855 158.724458 87.700526 157.512976 86.663894 156.249836 
L 75.901131 165.082608 
C 77.226872 166.698029 78.631127 168.247386 80.108824 169.725082 
C 81.58652 171.202779 83.135877 172.607034 84.751298 173.932776 
z
" clip-path="url(#p023799bd33)" style="fill: #828282"/>
   </g>
   <g id="patch_120">
    <path d="M 76.744087 164.390811 
C 75.440989 162.802982 74.216635 161.152131 73.075446 159.444221 
C 71.934257 157.736312 70.87761 155.973402 69.909321 154.161861 
L 58.521027 160.249031 
C 59.688559 162.433328 60.962629 164.558986 62.338637 166.618328 
C 63.714645 168.677669 65.190932 170.668211 66.762164 172.582764 
z
" clip-path="url(#p023799bd33)" style="fill: #828282"/>
   </g>
   <g id="patch_121">
    <path d="M 54.213921 162.551227 
C 52.971036 160.225951 51.843064 157.841055 50.83408 155.405152 
C 49.825096 152.96925 48.936316 150.485277 48.170951 147.962206 
L 20.776561 156.272203 
C 21.813925 159.691933 23.018563 163.05867 24.386124 166.360254 
C 25.753685 169.661838 27.28252 172.894289 28.967107 176.04593 
z
" clip-path="url(#p023799bd33)" style="fill: #828282"/>
   </g>
   <g id="patch_122">
    <path d="M 26.220313 154.620859 
C 25.237 151.379311 24.413431 148.091439 23.752581 144.769118 
C 23.09173 141.446797 22.594394 138.094033 22.26237 134.722936 
L 14.90876 135.447203 
C 15.26449 139.058995 15.797336 142.651145 16.505371 146.210678 
C 17.213406 149.77021 18.095777 153.292835 19.149298 156.765828 
z
" clip-path="url(#p023799bd33)" style="fill: #828282"/>
   </g>
   <g id="patch_123">
    <path d="M 35.980101 133.371857 
C 35.6923 130.449762 35.548139 127.515297 35.548139 124.579062 
C 35.548139 121.642828 35.6923 118.708363 35.980101 115.786268 
L 32.695251 115.462738 
C 32.39686 118.492352 32.247394 121.53479 32.247394 124.579062 
C 32.247394 127.623335 32.39686 130.665773 32.695251 133.695387 
z
" clip-path="url(#p023799bd33)" style="fill: #828282"/>
   </g>
   <g id="patch_124">
    <path d="M 33.790205 115.570582 
C 34.085066 112.576808 34.526735 109.599315 35.113617 106.648858 
C 35.7005 103.698401 36.431888 100.778537 37.305139 97.899811 
L 28.325505 95.175869 
C 27.363094 98.348511 26.557032 101.566492 25.910229 104.81819 
C 25.263426 108.069888 24.776662 111.351381 24.451696 114.650819 
z
" clip-path="url(#p023799bd33)" style="fill: #828282"/>
   </g>
   <g id="patch_125">
    <path d="M 63.534881 105.856516 
C 64.147698 103.83633 64.859331 101.847449 65.66721 99.897056 
C 66.475089 97.946664 67.37824 96.037112 68.3734 94.175298 
L 63.331017 91.480087 
C 62.247638 93.506947 61.264425 95.585775 60.38493 97.709064 
C 59.505435 99.832354 58.730717 101.997544 58.063576 104.196814 
z
" clip-path="url(#p023799bd33)" style="fill: #828282"/>
   </g>
   <g id="patch_126">
    <path d="M 48.44213 83.521812 
C 49.785995 81.007617 51.25249 78.560917 52.836319 76.190551 
C 54.420147 73.820185 56.119399 71.529008 57.927937 69.325298 
L 52.161266 64.592714 
C 50.197823 66.985175 48.353027 69.472595 46.633541 72.045988 
C 44.914055 74.61938 43.321952 77.275644 41.862983 80.005184 
z
" clip-path="url(#p023799bd33)" style="fill: #828282"/>
   </g>
   <g id="patch_127">
    <path d="M 87.574723 93.655786 
C 88.586888 92.42246 89.658996 91.239571 90.787174 90.111393 
C 91.915352 88.983214 93.098241 87.911106 94.331568 86.898941 
L 87.093268 78.079048 
C 85.571253 79.328134 84.111483 80.651193 82.719228 82.043447 
C 81.326974 83.435701 80.003915 84.895472 78.75483 86.417487 
z
" clip-path="url(#p023799bd33)" style="fill: #828282"/>
   </g>
   <g id="patch_128">
    <path d="M 104.592097 99.401433 
C 105.416198 98.72511 106.273009 98.089656 107.159433 97.497367 
C 108.045857 96.905077 108.960827 96.356665 109.901038 95.854112 
L 107.150298 90.70784 
C 106.041642 91.300428 104.962749 91.947092 103.917516 92.645495 
C 102.872282 93.343897 101.861969 94.093197 100.890224 94.890687 
z
" clip-path="url(#p023799bd33)" style="fill: #828282"/>
   </g>
   <g id="patch_129">
    <path d="M 110.219837 96.450543 
C 111.140525 95.958425 112.08482 95.511806 113.049312 95.112301 
C 114.013803 94.712796 114.997327 94.360885 115.996332 94.05784 
L 114.554494 89.304738 
C 113.399913 89.654977 112.263223 90.061691 111.148531 90.523411 
C 110.033839 90.985132 108.942488 91.501303 107.878419 92.070059 
z
" clip-path="url(#p023799bd33)" style="fill: #828282"/>
   </g>
   <g id="patch_130">
    <path d="M 115.591842 92.724413 
C 116.634492 92.408129 117.692042 92.143226 118.760673 91.930662 
C 119.829304 91.718099 120.907727 91.55813 121.992047 91.451333 
L 121.992047 91.451333 
C 120.907727 91.55813 119.829304 91.718099 118.760673 91.930662 
C 117.692042 92.143226 116.634492 92.408129 115.591842 92.724413 
z
" clip-path="url(#p023799bd33)" style="fill: #828282"/>
   </g>
   <g id="patch_131">
    <path d="M 125.254844 124.579062 
C 125.254844 124.579062 125.254844 124.579062 125.254844 124.579062 
C 125.254844 124.579062 125.254844 124.579062 125.254844 124.579062 
L 127.343635 103.371207 
C 126.64947 103.302838 125.952367 103.268591 125.254844 103.268591 
C 124.55732 103.268591 123.860217 103.302838 123.166052 103.371207 
L 125.254844 124.579062 
z
" clip-path="url(#p023799bd33)" style="fill: none; stroke: #292929; stroke-width: 0.5; stroke-linejoin: miter"/>
   </g>
   <g id="patch_132">
    <path d="M 125.254844 124.579062 
C 125.254844 124.579062 125.254844 124.579062 125.254844 124.579062 
C 125.254844 124.579062 125.254844 124.579062 125.254844 124.579062 
L 126.819818 119.420034 
C 126.650955 119.36881 126.479679 119.325908 126.306609 119.291482 
C 126.133538 119.257056 125.958882 119.231148 125.783271 119.213852 
L 125.254844 124.579062 
z
" clip-path="url(#p023799bd33)" style="fill: none; stroke: #292929; stroke-width: 0.5; stroke-linejoin: miter"/>
   </g>
   <g id="patch_133">
    <path d="M 125.254844 124.579062 
C 125.254844 124.579062 125.254844 124.579062 125.254844 124.579062 
C 125.254844 124.579062 125.254844 124.579062 125.254844 124.579062 
L 133.587316 108.990104 
C 133.077066 108.71737 132.553733 108.469852 132.019207 108.248444 
C 131.484682 108.027037 130.939608 107.832006 130.385955 107.664057 
L 125.254844 124.579062 
z
" clip-path="url(#p023799bd33)" style="fill: none; stroke: #292929; stroke-width: 0.5; stroke-linejoin: miter"/>
   </g>
   <g id="patch_134">
    <path d="M 125.254844 124.579062 
C 125.254844 124.579062 125.254844 124.579062 125.254844 124.579062 
C 125.254844 124.579062 125.254844 124.579062 125.254844 124.579062 
L 136.002411 111.483114 
C 135.573761 111.13133 135.128098 110.800804 134.667031 110.492729 
C 134.205964 110.184654 133.73005 109.899402 133.241007 109.638003 
L 125.254844 124.579062 
z
" clip-path="url(#p023799bd33)" style="fill: none; stroke: #292929; stroke-width: 0.5; stroke-linejoin: miter"/>
   </g>
   <g id="patch_135">
    <path d="M 125.254844 124.579062 
C 125.254844 124.579062 125.254844 124.579062 125.254844 124.579062 
C 125.254844 124.579062 125.254844 124.579062 125.254844 124.579062 
L 125.254844 124.579062 
C 125.254844 124.579062 125.254844 124.579062 125.254844 124.579062 
C 125.254844 124.579062 125.254844 124.579062 125.254844 124.579062 
L 125.254844 124.579062 
z
" clip-path="url(#p023799bd33)" style="fill: none; stroke: #292929; stroke-width: 0.5; stroke-linejoin: miter"/>
   </g>
   <g id="patch_136">
    <path d="M 125.254844 124.579062 
C 125.254844 124.579062 125.254844 124.579062 125.254844 124.579062 
C 125.254844 124.579062 125.254844 124.579062 125.254844 124.579062 
L 125.254844 124.579062 
C 125.254844 124.579062 125.254844 124.579062 125.254844 124.579062 
C 125.254844 124.579062 125.254844 124.579062 125.254844 124.579062 
L 125.254844 124.579062 
z
" clip-path="url(#p023799bd33)" style="fill: none; stroke: #292929; stroke-width: 0.5; stroke-linejoin: miter"/>
   </g>
   <g id="patch_137">
    <path d="M 125.254844 124.579062 
C 125.254844 124.579062 125.254844 124.579062 125.254844 124.579062 
C 125.254844 124.579062 125.254844 124.579062 125.254844 124.579062 
L 125.254844 124.579062 
C 125.254844 124.579062 125.254844 124.579062 125.254844 124.579062 
C 125.254844 124.579062 125.254844 124.579062 125.254844 124.579062 
L 125.254844 124.579062 
z
" clip-path="url(#p023799bd33)" style="fill: none; stroke: #292929; stroke-width: 0.5; stroke-linejoin: miter"/>
   </g>
   <g id="patch_138">
    <path d="M 125.254844 124.579062 
C 125.254844 124.579062 125.254844 124.579062 125.254844 124.579062 
C 125.254844 124.579062 125.254844 124.579062 125.254844 124.579062 
L 125.254844 124.579062 
C 125.254844 124.579062 125.254844 124.579062 125.254844 124.579062 
C 125.254844 124.579062 125.254844 124.579062 125.254844 124.579062 
L 125.254844 124.579062 
z
" clip-path="url(#p023799bd33)" style="fill: none; stroke: #292929; stroke-width: 0.5; stroke-linejoin: miter"/>
   </g>
   <g id="patch_139">
    <path d="M 125.254844 124.579062 
C 125.254844 124.579062 125.254844 124.579062 125.254844 124.579062 
C 125.254844 124.579062 125.254844 124.579062 125.254844 124.579062 
L 125.254844 124.579062 
C 125.254844 124.579062 125.254844 124.579062 125.254844 124.579062 
C 125.254844 124.579062 125.254844 124.579062 125.254844 124.579062 
L 125.254844 124.579062 
z
" clip-path="url(#p023799bd33)" style="fill: none; stroke: #292929; stroke-width: 0.5; stroke-linejoin: miter"/>
   </g>
   <g id="patch_140">
    <path d="M 125.254844 124.579062 
C 125.254844 124.579062 125.254844 124.579062 125.254844 124.579062 
C 125.254844 124.579062 125.254844 124.579062 125.254844 124.579062 
L 125.254844 124.579062 
C 125.254844 124.579062 125.254844 124.579062 125.254844 124.579062 
C 125.254844 124.579062 125.254844 124.579062 125.254844 124.579062 
L 125.254844 124.579062 
z
" clip-path="url(#p023799bd33)" style="fill: none; stroke: #292929; stroke-width: 0.5; stroke-linejoin: miter"/>
   </g>
   <g id="patch_141">
    <path d="M 125.254844 124.579062 
C 125.254844 124.579062 125.254844 124.579062 125.254844 124.579062 
C 125.254844 124.579062 125.254844 124.579062 125.254844 124.579062 
L 125.254844 124.579062 
C 125.254844 124.579062 125.254844 124.579062 125.254844 124.579062 
C 125.254844 124.579062 125.254844 124.579062 125.254844 124.579062 
L 125.254844 124.579062 
z
" clip-path="url(#p023799bd33)" style="fill: none; stroke: #292929; stroke-width: 0.5; stroke-linejoin: miter"/>
   </g>
   <g id="patch_142">
    <path d="M 125.254844 124.579062 
C 125.254844 124.579062 125.254844 124.579062 125.254844 124.579062 
C 125.254844 124.579062 125.254844 124.579062 125.254844 124.579062 
L 128.863945 127.540975 
C 128.960893 127.422844 129.051982 127.300024 129.136884 127.172959 
C 129.221786 127.045894 129.300399 126.914737 129.372437 126.779962 
L 125.254844 124.579062 
z
" clip-path="url(#p023799bd33)" style="fill: none; stroke: #292929; stroke-width: 0.5; stroke-linejoin: miter"/>
   </g>
   <g id="patch_143">
    <path d="M 125.254844 124.579062 
C 125.254844 124.579062 125.254844 124.579062 125.254844 124.579062 
C 125.254844 124.579062 125.254844 124.579062 125.254844 124.579062 
L 140.11369 142.68462 
C 140.706312 142.198267 141.274698 141.683112 141.816796 141.141015 
C 142.358893 140.598917 142.874049 140.030531 143.360401 139.437909 
L 125.254844 124.579062 
z
" clip-path="url(#p023799bd33)" style="fill: none; stroke: #292929; stroke-width: 0.5; stroke-linejoin: miter"/>
   </g>
   <g id="patch_144">
    <path d="M 125.254844 124.579062 
C 125.254844 124.579062 125.254844 124.579062 125.254844 124.579062 
C 125.254844 124.579062 125.254844 124.579062 125.254844 124.579062 
L 125.254844 124.579062 
C 125.254844 124.579062 125.254844 124.579062 125.254844 124.579062 
C 125.254844 124.579062 125.254844 124.579062 125.254844 124.579062 
L 125.254844 124.579062 
z
" clip-path="url(#p023799bd33)" style="fill: none; stroke: #292929; stroke-width: 0.5; stroke-linejoin: miter"/>
   </g>
   <g id="patch_145">
    <path d="M 125.254844 124.579062 
C 125.254844 124.579062 125.254844 124.579062 125.254844 124.579062 
C 125.254844 124.579062 125.254844 124.579062 125.254844 124.579062 
L 132.09881 147.140596 
C 132.837283 146.916583 133.564312 146.656448 134.277272 146.36113 
C 134.990231 146.065813 135.688262 145.735669 136.368842 145.371891 
L 125.254844 124.579062 
z
" clip-path="url(#p023799bd33)" style="fill: none; stroke: #292929; stroke-width: 0.5; stroke-linejoin: miter"/>
   </g>
   <g id="patch_146">
    <path d="M 125.254844 124.579062 
C 125.254844 124.579062 125.254844 124.579062 125.254844 124.579062 
C 125.254844 124.579062 125.254844 124.579062 125.254844 124.579062 
L 128.013314 152.586282 
C 128.930032 152.495993 129.841765 152.360751 130.745219 152.181042 
C 131.648673 152.001334 132.542759 151.777377 133.424248 151.509981 
L 125.254844 124.579062 
z
" clip-path="url(#p023799bd33)" style="fill: none; stroke: #292929; stroke-width: 0.5; stroke-linejoin: miter"/>
   </g>
   <g id="patch_147">
    <path d="M 125.254844 124.579062 
C 125.254844 124.579062 125.254844 124.579062 125.254844 124.579062 
C 125.254844 124.579062 125.254844 124.579062 125.254844 124.579062 
L 122.855005 148.945033 
C 123.65254 149.023583 124.45345 149.062929 125.254844 149.062929 
C 126.056237 149.062929 126.857148 149.023583 127.654682 148.945033 
L 125.254844 124.579062 
z
" clip-path="url(#p023799bd33)" style="fill: none; stroke: #292929; stroke-width: 0.5; stroke-linejoin: miter"/>
   </g>
   <g id="patch_148">
    <path d="M 125.254844 124.579062 
C 125.254844 124.579062 125.254844 124.579062 125.254844 124.579062 
C 125.254844 124.579062 125.254844 124.579062 125.254844 124.579062 
L 117.198647 151.136785 
C 118.067921 151.400477 118.949617 151.62133 119.840551 151.798548 
C 120.731486 151.975766 121.630584 152.109135 122.534599 152.198172 
L 125.254844 124.579062 
z
" clip-path="url(#p023799bd33)" style="fill: none; stroke: #292929; stroke-width: 0.5; stroke-linejoin: miter"/>
   </g>
   <g id="patch_149">
    <path d="M 125.254844 124.579062 
C 125.254844 124.579062 125.254844 124.579062 125.254844 124.579062 
C 125.254844 124.579062 125.254844 124.579062 125.254844 124.579062 
L 108.614141 155.711628 
C 109.633156 156.256303 110.678299 156.750619 111.745795 157.192791 
C 112.813291 157.634962 113.901853 158.024456 115.007549 158.359865 
L 125.254844 124.579062 
z
" clip-path="url(#p023799bd33)" style="fill: none; stroke: #292929; stroke-width: 0.5; stroke-linejoin: miter"/>
   </g>
   <g id="patch_150">
    <path d="M 125.254844 124.579062 
C 125.254844 124.579062 125.254844 124.579062 125.254844 124.579062 
C 125.254844 124.579062 125.254844 124.579062 125.254844 124.579062 
L 88.51837 169.342585 
C 89.983547 170.545025 91.506877 171.674804 93.082859 172.727841 
C 94.65884 173.780878 96.285573 174.755904 97.957181 175.649397 
L 125.254844 124.579062 
z
" clip-path="url(#p023799bd33)" style="fill: none; stroke: #292929; stroke-width: 0.5; stroke-linejoin: miter"/>
   </g>
   <g id="patch_151">
    <path d="M 125.254844 124.579062 
C 125.254844 124.579062 125.254844 124.579062 125.254844 124.579062 
C 125.254844 124.579062 125.254844 124.579062 125.254844 124.579062 
L 75.901131 165.082608 
C 77.226872 166.698029 78.631127 168.247386 80.108824 169.725082 
C 81.58652 171.202779 83.135877 172.607034 84.751298 173.932776 
L 125.254844 124.579062 
z
" clip-path="url(#p023799bd33)" style="fill: none; stroke: #292929; stroke-width: 0.5; stroke-linejoin: miter"/>
   </g>
   <g id="patch_152">
    <path d="M 125.254844 124.579062 
C 125.254844 124.579062 125.254844 124.579062 125.254844 124.579062 
C 125.254844 124.579062 125.254844 124.579062 125.254844 124.579062 
L 58.521027 160.249031 
C 59.688559 162.433328 60.962629 164.558986 62.338637 166.618328 
C 63.714645 168.677669 65.190932 170.668211 66.762164 172.582764 
L 125.254844 124.579062 
z
" clip-path="url(#p023799bd33)" style="fill: none; stroke: #292929; stroke-width: 0.5; stroke-linejoin: miter"/>
   </g>
   <g id="patch_153">
    <path d="M 125.254844 124.579062 
C 125.254844 124.579062 125.254844 124.579062 125.254844 124.579062 
C 125.254844 124.579062 125.254844 124.579062 125.254844 124.579062 
L 20.776561 156.272203 
C 21.813925 159.691933 23.018563 163.05867 24.386124 166.360254 
C 25.753685 169.661838 27.28252 172.894289 28.967107 176.04593 
L 125.254844 124.579062 
z
" clip-path="url(#p023799bd33)" style="fill: none; stroke: #292929; stroke-width: 0.5; stroke-linejoin: miter"/>
   </g>
   <g id="patch_154">
    <path d="M 125.254844 124.579062 
C 125.254844 124.579062 125.254844 124.579062 125.254844 124.579062 
C 125.254844 124.579062 125.254844 124.579062 125.254844 124.579062 
L 14.90876 135.447203 
C 15.26449 139.058995 15.797336 142.651145 16.505371 146.210678 
C 17.213406 149.77021 18.095777 153.292835 19.149298 156.765828 
L 125.254844 124.579062 
z
" clip-path="url(#p023799bd33)" style="fill: none; stroke: #292929; stroke-width: 0.5; stroke-linejoin: miter"/>
   </g>
   <g id="patch_155">
    <path d="M 125.254844 124.579062 
C 125.254844 124.579062 125.254844 124.579062 125.254844 124.579062 
C 125.254844 124.579062 125.254844 124.579062 125.254844 124.579062 
L 32.695251 115.462738 
C 32.39686 118.492352 32.247394 121.53479 32.247394 124.579062 
C 32.247394 127.623335 32.39686 130.665773 32.695251 133.695387 
L 125.254844 124.579062 
z
" clip-path="url(#p023799bd33)" style="fill: none; stroke: #292929; stroke-width: 0.5; stroke-linejoin: miter"/>
   </g>
   <g id="patch_156">
    <path d="M 125.254844 124.579062 
C 125.254844 124.579062 125.254844 124.579062 125.254844 124.579062 
C 125.254844 124.579062 125.254844 124.579062 125.254844 124.579062 
L 28.325505 95.175869 
C 27.363094 98.348511 26.557032 101.566492 25.910229 104.81819 
C 25.263426 108.069888 24.776662 111.351381 24.451696 114.650819 
L 125.254844 124.579062 
z
" clip-path="url(#p023799bd33)" style="fill: none; stroke: #292929; stroke-width: 0.5; stroke-linejoin: miter"/>
   </g>
   <g id="patch_157">
    <path d="M 125.254844 124.579062 
C 125.254844 124.579062 125.254844 124.579062 125.254844 124.579062 
C 125.254844 124.579062 125.254844 124.579062 125.254844 124.579062 
L 63.331017 91.480087 
C 62.247638 93.506947 61.264425 95.585775 60.38493 97.709064 
C 59.505435 99.832354 58.730717 101.997544 58.063576 104.196814 
L 125.254844 124.579062 
z
" clip-path="url(#p023799bd33)" style="fill: none; stroke: #292929; stroke-width: 0.5; stroke-linejoin: miter"/>
   </g>
   <g id="patch_158">
    <path d="M 125.254844 124.579062 
C 125.254844 124.579062 125.254844 124.579062 125.254844 124.579062 
C 125.254844 124.579062 125.254844 124.579062 125.254844 124.579062 
L 52.161266 64.592714 
C 50.197823 66.985175 48.353027 69.472595 46.633541 72.045988 
C 44.914055 74.61938 43.321952 77.275644 41.862983 80.005184 
L 125.254844 124.579062 
z
" clip-path="url(#p023799bd33)" style="fill: none; stroke: #292929; stroke-width: 0.5; stroke-linejoin: miter"/>
   </g>
   <g id="patch_159">
    <path d="M 125.254844 124.579062 
C 125.254844 124.579062 125.254844 124.579062 125.254844 124.579062 
C 125.254844 124.579062 125.254844 124.579062 125.254844 124.579062 
L 87.093268 78.079048 
C 85.571253 79.328134 84.111483 80.651193 82.719228 82.043447 
C 81.326974 83.435701 80.003915 84.895472 78.75483 86.417487 
L 125.254844 124.579062 
z
" clip-path="url(#p023799bd33)" style="fill: none; stroke: #292929; stroke-width: 0.5; stroke-linejoin: miter"/>
   </g>
   <g id="patch_160">
    <path d="M 125.254844 124.579062 
C 125.254844 124.579062 125.254844 124.579062 125.254844 124.579062 
C 125.254844 124.579062 125.254844 124.579062 125.254844 124.579062 
L 107.150298 90.70784 
C 106.041642 91.300428 104.962749 91.947092 103.917516 92.645495 
C 102.872282 93.343897 101.861969 94.093197 100.890224 94.890687 
L 125.254844 124.579062 
z
" clip-path="url(#p023799bd33)" style="fill: none; stroke: #292929; stroke-width: 0.5; stroke-linejoin: miter"/>
   </g>
   <g id="patch_161">
    <path d="M 125.254844 124.579062 
C 125.254844 124.579062 125.254844 124.579062 125.254844 124.579062 
C 125.254844 124.579062 125.254844 124.579062 125.254844 124.579062 
L 114.554494 89.304738 
C 113.399913 89.654977 112.263223 90.061691 111.148531 90.523411 
C 110.033839 90.985132 108.942488 91.501303 107.878419 92.070059 
L 125.254844 124.579062 
z
" clip-path="url(#p023799bd33)" style="fill: none; stroke: #292929; stroke-width: 0.5; stroke-linejoin: miter"/>
   </g>
   <g id="patch_162">
    <path d="M 125.254844 124.579062 
C 125.254844 124.579062 125.254844 124.579062 125.254844 124.579062 
C 125.254844 124.579062 125.254844 124.579062 125.254844 124.579062 
L 121.992047 91.451333 
C 120.907727 91.55813 119.829304 91.718099 118.760673 91.930662 
C 117.692042 92.143226 116.634492 92.408129 115.591842 92.724413 
L 125.254844 124.579062 
z
" clip-path="url(#p023799bd33)" style="fill: none; stroke: #292929; stroke-width: 0.5; stroke-linejoin: miter"/>
   </g>
   <g id="PathCollection_1">
    <defs>
     <path id="m3168f0a296" d="M 0.193618 7.414054 
L 0.193618 7.414054 
C 0.054922 7.414054 -0.078235 7.358899 -0.176308 7.260826 
C -0.274381 7.162753 -0.329536 7.029596 -0.329536 6.890901 
L -0.329536 5.365008 
L -1.528416 6.56393 
L -1.528416 6.56393 
C -1.577018 6.612704 -1.634775 6.651408 -1.698366 6.677814 
C -1.761958 6.704221 -1.830141 6.717815 -1.898997 6.717815 
C -1.967853 6.717815 -2.036037 6.704221 -2.099628 6.677814 
C -2.163219 6.651408 -2.220976 6.612704 -2.269578 6.56393 
L -2.269578 6.56393 
C -2.318353 6.515327 -2.357056 6.457571 -2.383463 6.393979 
C -2.409869 6.330388 -2.423463 6.262205 -2.423463 6.193348 
C -2.423463 6.124492 -2.409869 6.056309 -2.383463 5.992718 
C -2.357056 5.929126 -2.318353 5.87137 -2.269578 5.822767 
L -0.329536 3.884106 
L -0.329536 0.820937 
L -2.98067 2.351538 
L -3.691824 5.001416 
L -3.691824 5.001416 
C -3.727584 5.135411 -3.815199 5.249836 -3.93523 5.319305 
C -4.055261 5.388775 -4.198123 5.407741 -4.332122 5.371997 
L -4.332122 5.371997 
C -4.466126 5.336237 -4.580558 5.248616 -4.650029 5.128576 
C -4.719499 5.008535 -4.73846 4.865662 -4.702703 4.731657 
L -4.262647 3.092721 
L -5.585535 3.855668 
L -5.585535 3.855668 
C -5.645013 3.890144 -5.710708 3.912561 -5.778854 3.921634 
C -5.847001 3.930706 -5.916272 3.926258 -5.982698 3.908543 
C -6.049125 3.890828 -6.111412 3.860192 -6.165991 3.818391 
C -6.220571 3.77659 -6.266379 3.724437 -6.300791 3.664922 
L -6.300791 3.664922 
C -6.335212 3.605364 -6.35755 3.539597 -6.366524 3.471396 
C -6.375498 3.403194 -6.370933 3.333888 -6.35309 3.267452 
C -6.335248 3.201017 -6.304476 3.138749 -6.26254 3.08422 
C -6.220605 3.029692 -6.168323 2.983966 -6.108695 2.949666 
L -4.785807 2.186762 
L -6.424743 1.746706 
L -6.424743 1.746706 
C -6.558747 1.710946 -6.673179 1.623325 -6.74265 1.503284 
C -6.81212 1.383244 -6.831081 1.240371 -6.795324 1.106366 
L -6.795324 1.106366 
C -6.777471 1.039969 -6.746703 0.977739 -6.704784 0.923241 
C -6.662864 0.868744 -6.61061 0.823041 -6.551015 0.788752 
C -6.491421 0.754464 -6.425647 0.732257 -6.357465 0.723406 
C -6.289282 0.714554 -6.220019 0.71923 -6.153645 0.737166 
L -3.505232 1.44698 
L -0.852424 -0.08496 
L -3.503767 -1.615666 
L -6.153645 -0.905851 
L -6.153645 -0.905851 
C -6.22011 -0.887939 -6.289462 -0.883321 -6.357716 -0.892262 
C -6.42597 -0.901202 -6.491793 -0.923527 -6.551403 -0.957953 
C -6.611013 -0.992379 -6.663247 -1.038234 -6.705103 -1.092883 
C -6.746958 -1.147533 -6.777619 -1.209911 -6.795324 -1.276432 
L -6.795324 -1.276432 
C -6.831068 -1.410431 -6.812101 -1.553293 -6.742632 -1.673324 
C -6.673162 -1.793355 -6.558738 -1.88097 -6.424743 -1.91673 
L -4.785807 -2.355447 
L -6.108695 -3.119732 
L -6.108695 -3.119732 
C -6.228699 -3.188976 -6.316415 -3.303132 -6.352417 -3.436921 
C -6.388419 -3.57071 -6.369839 -3.713469 -6.300791 -3.833586 
L -6.300791 -3.833586 
C -6.266491 -3.893214 -6.220765 -3.945496 -6.166237 -3.987431 
C -6.111708 -4.029367 -6.04944 -4.060139 -5.983005 -4.077981 
C -5.91657 -4.095823 -5.847263 -4.100389 -5.779062 -4.091415 
C -5.71086 -4.082441 -5.645094 -4.060102 -5.585535 -4.025682 
L -4.262647 -3.261396 
L -4.702703 -4.900332 
L -4.702703 -4.900332 
C -4.73846 -5.034337 -4.719499 -5.17721 -4.650029 -5.29725 
C -4.580558 -5.417291 -4.466126 -5.504912 -4.332122 -5.540672 
L -4.332122 -5.540672 
C -4.19831 -5.576464 -4.055613 -5.557686 -3.935617 -5.488496 
C -3.81562 -5.419305 -3.727882 -5.305212 -3.691824 -5.171472 
L -2.982009 -2.521594 
L -0.329411 -0.990302 
L -0.329411 -4.051588 
L -2.269453 -5.991589 
L -2.269453 -5.991589 
C -2.318227 -6.040191 -2.356931 -6.097947 -2.383337 -6.161539 
C -2.409744 -6.22513 -2.423338 -6.293314 -2.423338 -6.36217 
C -2.423338 -6.431026 -2.409744 -6.499209 -2.383337 -6.5628 
C -2.356931 -6.626392 -2.318227 -6.684149 -2.269453 -6.732751 
L -2.269453 -6.732751 
C -2.22085 -6.781526 -2.163094 -6.820229 -2.099502 -6.846635 
C -2.035911 -6.873042 -1.967728 -6.886636 -1.898871 -6.886636 
C -1.830015 -6.886636 -1.761832 -6.873042 -1.698241 -6.846635 
C -1.634649 -6.820229 -1.576893 -6.781526 -1.52829 -6.732751 
L -0.329411 -5.533829 
L -0.329411 -7.059722 
L -0.329411 -7.059722 
C -0.329411 -7.198418 -0.274255 -7.331575 -0.176182 -7.429647 
C -0.07811 -7.52772 0.055047 -7.582875 0.193743 -7.582875 
L 0.193743 -7.582875 
C 0.332439 -7.582875 0.465596 -7.52772 0.563669 -7.429647 
C 0.661741 -7.331575 0.716897 -7.198418 0.716897 -7.059722 
L 0.716897 -5.533829 
L 1.915777 -6.732751 
L 1.915777 -6.732751 
C 1.964379 -6.781526 2.022136 -6.820229 2.085727 -6.846635 
C 2.149318 -6.873042 2.217502 -6.886636 2.286358 -6.886636 
C 2.355214 -6.886636 2.423397 -6.873042 2.486989 -6.846635 
C 2.55058 -6.820229 2.608337 -6.781526 2.656939 -6.732751 
L 2.656939 -6.732751 
C 2.705714 -6.684149 2.744417 -6.626392 2.770823 -6.5628 
C 2.79723 -6.499209 2.810824 -6.431026 2.810824 -6.36217 
C 2.810824 -6.293314 2.79723 -6.22513 2.770823 -6.161539 
C 2.744417 -6.097947 2.705714 -6.040191 2.656939 -5.991589 
L 0.716897 -4.051588 
L 0.716897 -0.991139 
L 3.369495 -2.522954 
L 4.07931 -5.171367 
L 4.07931 -5.171367 
C 4.115368 -5.305107 4.203106 -5.4192 4.323103 -5.488391 
C 4.4431 -5.557582 4.585797 -5.576359 4.719608 -5.540567 
L 4.719608 -5.540567 
C 4.853612 -5.504807 4.968045 -5.417186 5.037515 -5.297146 
C 5.106986 -5.177105 5.125946 -5.034232 5.090189 -4.900227 
L 4.650133 -3.262673 
L 5.973022 -4.025577 
L 5.973022 -4.025577 
C 6.03258 -4.059998 6.098346 -4.082336 6.166548 -4.09131 
C 6.234749 -4.100284 6.304056 -4.095719 6.370491 -4.077876 
C 6.436926 -4.060034 6.499194 -4.029262 6.553723 -3.987327 
C 6.608252 -3.945391 6.653978 -3.893109 6.688277 -3.833481 
L 6.688277 -3.833481 
C 6.757325 -3.713365 6.775905 -3.570605 6.739903 -3.436816 
C 6.703901 -3.303027 6.616186 -3.188871 6.496181 -3.119628 
L 5.173293 -2.355342 
L 6.812229 -1.916625 
L 6.812229 -1.916625 
C 6.946224 -1.880865 7.060649 -1.79325 7.130118 -1.67322 
C 7.199588 -1.553189 7.218554 -1.410326 7.18281 -1.276327 
L 7.18281 -1.276327 
C 7.165106 -1.209806 7.134445 -1.147429 7.092589 -1.092779 
C 7.050733 -1.038129 6.998499 -0.992274 6.938889 -0.957848 
C 6.879279 -0.923422 6.813456 -0.901098 6.745202 -0.892157 
C 6.676949 -0.883217 6.607597 -0.887835 6.541131 -0.905746 
L 3.891253 -1.615561 
L 1.239492 -0.084604 
L 3.892718 1.447085 
L 6.541131 0.73727 
L 6.541131 0.73727 
C 6.674948 0.701466 6.817656 0.720237 6.937662 0.789429 
C 7.057669 0.858621 7.145413 0.972721 7.181471 1.10647 
L 7.181471 1.10647 
C 7.217274 1.240293 7.198497 1.383006 7.129297 1.503014 
C 7.060096 1.623021 6.945986 1.710762 6.812229 1.74681 
L 5.173293 2.186866 
L 6.496181 2.949771 
L 6.496181 2.949771 
C 6.555697 2.984183 6.607849 3.029991 6.649651 3.08457 
C 6.691452 3.13915 6.722088 3.201437 6.739803 3.267863 
C 6.757517 3.33429 6.761966 3.403561 6.752893 3.471707 
C 6.743821 3.539854 6.721404 3.605549 6.686927 3.665026 
L 6.686927 3.665026 
C 6.617458 3.784813 6.503196 3.87225 6.369416 3.907994 
C 6.235636 3.943739 6.092989 3.924946 5.973032 3.855772 
L 4.650144 3.091487 
L 5.08886 4.731783 
L 5.08886 4.731783 
C 5.124664 4.865606 5.105887 5.008319 5.036686 5.128326 
C 4.967486 5.248334 4.853376 5.336074 4.719619 5.372123 
L 4.719619 5.372123 
C 4.585619 5.407867 4.442757 5.3889 4.322726 5.319431 
C 4.202695 5.249961 4.115081 5.135537 4.07932 5.001542 
L 3.368166 2.351664 
L 0.717033 0.821063 
L 0.717033 3.884232 
L 2.657075 5.822893 
L 2.657075 5.822893 
C 2.70585 5.871495 2.744553 5.929252 2.770959 5.992843 
C 2.797366 6.056435 2.81096 6.124618 2.81096 6.193474 
C 2.81096 6.26233 2.797366 6.330514 2.770959 6.394105 
C 2.744553 6.457696 2.70585 6.515453 2.657075 6.564055 
L 2.657075 6.564055 
C 2.608473 6.61283 2.550716 6.651533 2.487125 6.67794 
C 2.423533 6.704346 2.35535 6.71794 2.286494 6.71794 
C 2.217638 6.71794 2.149454 6.704346 2.085863 6.67794 
C 2.022272 6.651533 1.964515 6.61283 1.915913 6.564055 
L 0.717033 5.365133 
L 0.717033 6.891026 
L 0.717033 6.891026 
C 0.717033 7.029722 0.661877 7.162879 0.563805 7.260952 
C 0.465732 7.359024 0.332575 7.41418 0.193879 7.41418 
L 0.193618 7.414054 
z
"/>
    </defs>
    <g clip-path="url(#p023799bd33)">
     <use xlink:href="#m3168f0a296" x="36.020745" y="129.476952" style="fill: #9e2096; fill-opacity: 0.7"/>
    </g>
   </g>
   <g id="patch_163">
    <path d="M 125.254844 13.699062 
C 110.694216 13.699062 96.275171 16.567189 82.822905 22.1393 
C 69.370638 27.711411 57.146763 35.879144 46.850844 46.175063 
C 36.554925 56.470982 28.387192 68.694857 22.815081 82.147124 
C 17.24297 95.59939 14.374844 110.018434 14.374844 124.579062 
C 14.374844 139.139691 17.24297 153.558735 22.815081 167.011001 
C 28.387192 180.463268 36.554925 192.687143 46.850844 202.983062 
C 57.146763 213.278981 69.370638 221.446714 82.822905 227.018825 
C 96.275171 232.590936 110.694216 235.459062 125.254844 235.459062 
C 139.815472 235.459062 154.234516 232.590936 167.686783 227.018825 
C 181.139049 221.446714 193.362925 213.278981 203.658844 202.983062 
C 213.954763 192.687143 222.122495 180.463268 227.694606 167.011001 
C 233.266717 153.558735 236.134844 139.139691 236.134844 124.579062 
C 236.134844 110.018434 233.266717 95.59939 227.694606 82.147124 
C 222.122495 68.694857 213.954763 56.470982 203.658844 46.175063 
C 193.362925 35.879144 181.139049 27.711411 167.686783 22.1393 
C 154.234516 16.567189 139.815472 13.699062 125.254844 13.699062 
" style="fill: none; stroke: #000000; stroke-width: 0.8; stroke-linejoin: miter; stroke-linecap: square"/>
   </g>
  </g>
 </g>
 <defs>
  <clipPath id="p023799bd33">
   <path d="M 236.134844 124.579062 
C 236.134844 110.018434 233.266717 95.59939 227.694606 82.147124 
C 222.122495 68.694857 213.954763 56.470982 203.658844 46.175063 
C 193.362925 35.879144 181.139049 27.711411 167.686783 22.1393 
C 154.234516 16.567189 139.815472 13.699062 125.254844 13.699062 
C 110.694216 13.699062 96.275171 16.567189 82.822905 22.1393 
C 69.370638 27.711411 57.146763 35.879144 46.850844 46.175063 
C 36.554925 56.470982 28.387192 68.694857 22.815081 82.147124 
C 17.24297 95.59939 14.374844 110.018434 14.374844 124.579062 
C 14.374844 139.139691 17.24297 153.558735 22.815081 167.011001 
C 28.387192 180.463268 36.554925 192.687143 46.850844 202.983062 
C 57.146763 213.278981 69.370638 221.446714 82.822905 227.018825 
C 96.275171 232.590936 110.694216 235.459062 125.254844 235.459062 
C 139.815472 235.459062 154.234516 232.590936 167.686783 227.018825 
C 181.139049 221.446714 193.362925 213.278981 203.658844 202.983062 
C 213.954763 192.687143 222.122495 180.463268 227.694606 167.011001 
C 233.266717 153.558735 236.134844 139.139691 236.134844 124.579063 
M 125.254844 124.579062 
C 125.254844 124.579062 125.254844 124.579062 125.254844 124.579062 
C 125.254844 124.579062 125.254844 124.579062 125.254844 124.579062 
C 125.254844 124.579062 125.254844 124.579062 125.254844 124.579062 
C 125.254844 124.579062 125.254844 124.579062 125.254844 124.579062 
C 125.254844 124.579062 125.254844 124.579062 125.254844 124.579062 
C 125.254844 124.579062 125.254844 124.579062 125.254844 124.579062 
C 125.254844 124.579062 125.254844 124.579062 125.254844 124.579062 
C 125.254844 124.579062 125.254844 124.579062 125.254844 124.579062 
C 125.254844 124.579062 125.254844 124.579062 125.254844 124.579062 
C 125.254844 124.579062 125.254844 124.579062 125.254844 124.579062 
C 125.254844 124.579062 125.254844 124.579062 125.254844 124.579062 
C 125.254844 124.579062 125.254844 124.579062 125.254844 124.579062 
C 125.254844 124.579062 125.254844 124.579062 125.254844 124.579062 
C 125.254844 124.579062 125.254844 124.579062 125.254844 124.579062 
C 125.254844 124.579062 125.254844 124.579062 125.254844 124.579062 
C 125.254844 124.579062 125.254844 124.579062 125.254844 124.579062 
z
"/>
  </clipPath>
 </defs>
</svg>
