<?xml version="1.0" encoding="utf-8" standalone="no"?>
<!DOCTYPE svg PUBLIC "-//W3C//DTD SVG 1.1//EN"
  "http://www.w3.org/Graphics/SVG/1.1/DTD/svg11.dtd">
<svg xmlns:xlink="http://www.w3.org/1999/xlink" width="248.410469pt" height="249.158125pt" viewBox="0 0 248.410469 249.158125" xmlns="http://www.w3.org/2000/svg" version="1.1">
 <title>Ski Rose for Skiarena Jizerky</title>
 <metadata>
  <rdf:RDF xmlns:dc="http://purl.org/dc/elements/1.1/" xmlns:cc="http://creativecommons.org/ns#" xmlns:rdf="http://www.w3.org/1999/02/22-rdf-syntax-ns#">
   <cc:Work>
    <dc:type rdf:resource="http://purl.org/dc/dcmitype/StillImage"/>
    <dc:title>Ski Rose for Skiarena Jizerky</dc:title>
    <dc:date>2025-11-22T10:15:16.313314</dc:date>
    <dc:description>A 32-bin stacked histogram of downhill ski run orientations colored by difficulty.</dc:description>
    <dc:format>image/svg+xml</dc:format>
    <dc:source>https://openskimap.org/?obj=fc5c595e1d019acccb554e126e719c2fed6f0502</dc:source>
    <dc:creator>
     <cc:Agent>
      <dc:title>https://github.com/dhimmel/openskistats</dc:title>
     </cc:Agent>
    </dc:creator>
    <dc:rights>
     <cc:Agent>
      <dc:title>https://creativecommons.org/licenses/by/4.0/</dc:title>
     </cc:Agent>
    </dc:rights>
   </cc:Work>
  </rdf:RDF>
 </metadata>
 <defs>
  <style type="text/css">*{stroke-linejoin: round; stroke-linecap: butt}</style>
 </defs>
 <g id="figure_1">
  <g id="patch_1">
   <path d="M 0 249.158125 
L 248.410469 249.158125 
L 248.410469 0 
L 0 0 
z
" style="fill: #ffffff"/>
  </g>
  <g id="axes_1">
   <g id="patch_2">
    <path d="M 236.134844 124.579063 
C 236.134844 110.018434 233.266717 95.59939 227.694606 82.147124 
C 222.122495 68.694857 213.954763 56.470982 203.658844 46.175063 
C 193.362925 35.879144 181.139049 27.711411 167.686783 22.1393 
C 154.234516 16.567189 139.815472 13.699063 125.254844 13.699063 
C 110.694216 13.699063 96.275171 16.567189 82.822905 22.1393 
C 69.370638 27.711411 57.146763 35.879144 46.850844 46.175063 
C 36.554925 56.470982 28.387192 68.694857 22.815081 82.147124 
C 17.24297 95.59939 14.374844 110.018434 14.374844 124.579062 
C 14.374844 139.139691 17.24297 153.558735 22.815081 167.011001 
C 28.387192 180.463268 36.554925 192.687143 46.850844 202.983062 
C 57.146763 213.278981 69.370638 221.446714 82.822905 227.018825 
C 96.275171 232.590936 110.694216 235.459063 125.254844 235.459063 
C 139.815472 235.459063 154.234516 232.590936 167.686783 227.018825 
C 181.139049 221.446714 193.362925 213.278981 203.658844 202.983062 
C 213.954763 192.687143 222.122495 180.463268 227.694606 167.011001 
C 233.266717 153.558735 236.134844 139.139691 236.134844 124.579063 
M 125.254844 124.579063 
C 125.254844 124.579063 125.254844 124.579063 125.254844 124.579063 
C 125.254844 124.579063 125.254844 124.579063 125.254844 124.579063 
C 125.254844 124.579063 125.254844 124.579063 125.254844 124.579063 
C 125.254844 124.579063 125.254844 124.579063 125.254844 124.579063 
C 125.254844 124.579063 125.254844 124.579063 125.254844 124.579063 
C 125.254844 124.579063 125.254844 124.579063 125.254844 124.579063 
C 125.254844 124.579063 125.254844 124.579063 125.254844 124.579063 
C 125.254844 124.579063 125.254844 124.579063 125.254844 124.579063 
C 125.254844 124.579063 125.254844 124.579063 125.254844 124.579063 
C 125.254844 124.579063 125.254844 124.579063 125.254844 124.579063 
C 125.254844 124.579063 125.254844 124.579063 125.254844 124.579063 
C 125.254844 124.579063 125.254844 124.579063 125.254844 124.579063 
C 125.254844 124.579063 125.254844 124.579063 125.254844 124.579063 
C 125.254844 124.579063 125.254844 124.579063 125.254844 124.579063 
C 125.254844 124.579063 125.254844 124.579063 125.254844 124.579063 
C 125.254844 124.579063 125.254844 124.579063 125.254844 124.579063 
z
" style="fill: #ffffff"/>
   </g>
   <g id="FillBetweenPolyCollection_1">
    <defs>
     <path id="m8f192b0d00" d="M 235.031941 -139.031492 
L 235.031941 -139.031492 
L 234.263655 -136.999048 
L 233.587645 -135.010325 
L 232.849483 -133.046944 
L 232.057757 -131.111409 
L 231.218847 -129.205551 
L 230.147332 -127.325769 
L 229.225664 -125.486402 
L 228.267944 -123.680081 
L 227.276331 -121.907536 
L 226.252705 -120.169401 
L 225.198761 -118.466231 
L 224.116068 -116.798515 
L 223.006112 -115.166686 
L 221.679115 -113.592904 
L 220.519557 -112.037225 
L 219.337031 -110.518385 
L 218.132858 -109.036613 
L 216.908346 -107.59209 
L 215.664786 -106.184952 
L 214.403458 -104.81529 
L 213.309202 -103.439081 
L 212.014552 -102.141476 
L 210.7058 -100.881415 
L 209.384192 -99.658814 
L 208.050962 -98.473547 
L 206.881994 -97.267 
L 205.527031 -96.15319 
L 204.163979 -95.076146 
L 202.962141 -93.969344 
L 201.584003 -92.962489 
L 200.364542 -91.920436 
L 198.975569 -90.982592 
L 197.742308 -90.004316 
L 196.346641 -89.134 
L 195.103302 -88.218257 
L 193.854926 -87.332257 
L 192.455141 -86.558963 
L 191.201966 -85.733239 
L 189.946207 -84.936144 
L 188.688628 -84.167285 
L 187.29499 -83.515586 
L 186.039105 -82.803197 
L 184.783636 -82.117588 
L 183.529265 -81.458259 
L 182.276657 -80.824686 
L 181.026452 -80.216322 
L 179.894738 -79.537409 
L 178.647756 -78.977208 
L 177.40492 -78.440573 
L 176.166777 -77.926871 
L 174.933845 -77.43545 
L 173.805152 -76.868808 
L 172.580536 -76.420088 
L 171.362502 -75.991729 
L 170.239764 -75.486637 
L 169.032495 -75.097429 
L 167.914547 -74.630968 
L 166.719414 -74.278517 
L 165.60753 -73.848783 
L 164.425692 -73.53062 
L 163.320966 -73.13565 
L 162.153364 -72.849245 
L 161.056704 -72.487033 
L 159.962864 -72.140964 
L 158.816171 -71.898331 
L 157.731434 -71.582085 
L 156.649985 -71.280689 
L 155.571955 -70.993751 
L 154.453441 -70.801937 
L 153.385283 -70.540991 
L 152.320763 -70.293226 
L 151.259933 -70.05826 
L 150.202825 -69.835714 
L 149.149455 -69.625219 
L 148.099821 -69.426408 
L 147.053904 -69.238924 
L 145.988027 -69.125645 
L 144.951573 -68.957216 
L 143.918589 -68.799008 
L 142.888987 -68.650704 
L 141.862664 -68.512001 
L 140.8395 -68.382607 
L 139.819363 -68.262243 
L 138.802108 -68.150647 
L 137.787574 -68.047569 
L 136.775592 -67.952775 
L 135.772304 -67.831926 
L 134.763708 -67.756332 
L 133.7572 -67.68847 
L 132.752571 -67.628169 
L 131.749605 -67.575278 
L 130.748076 -67.529664 
L 129.747755 -67.491213 
L 128.748406 -67.459831 
L 127.749788 -67.435443 
L 126.751659 -67.417995 
L 125.753773 -67.407451 
L 124.755914 -67.407403 
L 123.75802 -67.417658 
L 122.76018 -67.441876 
L 121.761871 -67.469468 
L 120.762942 -67.504039 
L 119.763152 -67.545661 
L 118.762264 -67.594423 
L 117.760048 -67.650434 
L 116.756277 -67.713824 
L 115.750734 -67.784739 
L 114.743207 -67.863346 
L 113.733496 -67.949828 
L 112.721408 -68.044387 
L 111.706762 -68.147239 
L 110.689387 -68.258619 
L 109.669125 -68.378777 
L 108.645831 -68.507976 
L 107.619373 -68.646497 
L 106.589633 -68.794629 
L 105.556508 -68.952679 
L 104.519909 -69.120961 
L 103.479765 -69.299805 
L 102.436019 -69.489546 
L 101.388632 -69.690533 
L 100.337581 -69.90312 
L 99.282862 -70.127669 
L 98.224486 -70.364552 
L 97.12162 -70.535642 
L 96.053326 -70.796557 
L 94.981469 -71.071054 
L 93.906137 -71.359519 
L 92.827438 -71.662346 
L 91.6901 -71.892968 
L 90.602117 -72.224504 
L 89.511167 -72.57169 
L 88.352629 -72.844066 
L 87.253283 -73.2229 
L 86.08018 -73.525647 
L 84.973244 -73.938151 
L 83.864419 -74.368462 
L 82.67287 -74.721977 
L 81.558027 -75.188795 
L 80.354387 -75.578813 
L 79.143412 -75.987752 
L 78.020413 -76.512957 
L 76.79947 -76.962099 
L 75.57239 -77.432174 
L 74.444695 -78.020139 
L 73.210237 -78.533884 
L 71.971085 -79.070433 
L 70.727781 -79.630421 
L 69.480896 -80.214461 
L 68.231022 -80.823145 
L 67.103723 -81.549497 
L 65.852987 -82.20813 
L 64.469779 -82.802645 
L 63.214369 -83.515368 
L 61.959285 -84.255344 
L 60.705253 -85.023022 
L 59.453015 -85.818823 
L 58.20333 -86.643142 
L 56.807506 -87.41519 
L 55.562557 -88.299555 
L 54.32261 -89.213555 
L 52.930794 -90.08226 
L 51.70085 -91.058576 
L 50.315645 -91.994572 
L 49.099419 -93.034453 
L 47.724962 -94.03923 
L 46.526271 -95.143655 
L 45.166806 -96.218401 
L 43.815379 -97.329799 
L 42.649415 -98.533671 
L 41.31962 -99.716316 
L 40.001391 -100.936188 
L 38.695963 -102.193414 
L 37.587671 -103.532037 
L 36.313056 -104.861143 
L 35.054875 -106.227671 
L 33.814396 -107.631577 
L 32.592897 -109.072771 
L 31.391666 -110.551117 
L 30.212004 -112.066435 
L 29.055227 -113.618501 
L 27.922671 -115.20704 
L 26.815699 -116.831734 
L 25.543758 -118.480471 
L 24.492131 -120.179667 
L 23.470652 -121.91375 
L 22.480972 -123.682169 
L 21.52491 -125.4843 
L 20.60453 -127.319427 
L 19.72228 -129.186714 
L 18.694853 -131.096551 
L 17.901795 -133.027931 
L 17.160527 -134.987361 
L 16.478979 -136.972507 
L 15.866439 -138.980319 
L 15.376418 -139.044832 
L 15.376418 -139.044832 
L 15.100324 -137.129585 
L 14.958803 -135.199363 
L 14.748323 -133.276114 
L 14.673824 -131.342487 
L 14.52902 -129.413456 
L 14.416697 -127.481462 
L 14.442104 -125.546111 
L 14.395087 -123.611604 
L 14.486821 -121.6785 
L 14.504561 -119.743601 
L 14.717802 -117.818327 
L 14.743924 -115.881664 
L 15.020005 -113.964655 
L 15.11186 -112.029855 
L 15.337822 -110.108212 
L 15.65577 -108.199371 
L 16.00592 -106.297063 
L 16.274365 -104.380725 
L 16.687995 -102.490887 
L 17.01891 -100.583734 
L 17.536396 -98.718151 
L 17.928338 -96.822541 
L 18.467091 -94.964198 
L 18.958013 -93.092507 
L 19.558583 -91.253159 
L 20.190277 -89.42495 
L 20.739066 -87.568085 
L 21.464494 -85.773441 
L 22.188354 -83.980092 
L 22.831556 -82.153947 
L 23.646359 -80.398436 
L 24.382767 -78.609009 
L 25.229149 -76.869253 
L 26.031967 -75.108361 
L 26.940127 -73.39966 
L 27.813187 -71.67256 
L 28.783693 -69.998312 
L 29.731154 -68.311309 
L 30.723234 -66.650017 
L 31.76239 -65.0178 
L 32.798655 -63.383646 
L 33.879512 -61.778537 
L 35.005098 -60.204544 
L 36.141867 -58.638928 
L 37.295409 -57.085414 
L 38.494384 -55.566677 
L 40.141391 -54.416946 
L 41.934047 -53.416379 
L 43.691778 -52.418158 
L 45.462212 -51.462587 
L 47.241197 -50.546876 
L 49.02552 -49.668715 
L 50.812741 -48.826229 
L 52.600976 -48.01786 
L 54.388736 -47.242277 
L 56.17482 -46.4983 
L 57.958232 -45.784854 
L 59.697037 -45.051084 
L 61.474324 -44.39596 
L 63.246776 -43.768576 
L 64.981402 -43.124181 
L 66.744215 -42.550186 
L 68.467647 -41.953178 
L 70.191316 -41.387146 
L 71.937494 -40.887587 
L 73.648022 -40.364383 
L 75.357717 -39.87055 
L 77.05929 -39.393709 
L 78.78013 -38.983287 
L 80.473892 -38.555654 
L 82.159294 -38.142762 
L 83.842705 -37.756708 
L 85.517759 -37.383987 
L 87.173408 -36.997757 
L 88.842077 -36.670868 
L 90.502601 -36.355354 
L 92.160581 -36.064437 
L 93.810731 -35.783626 
L 95.447115 -35.493151 
L 97.090668 -35.253709 
L 98.727029 -35.022662 
L 100.35272 -34.784904 
L 101.982847 -34.592929 
L 103.602111 -34.38894 
L 105.222603 -34.219464 
L 106.840864 -34.07146 
L 108.451244 -33.914953 
L 110.061504 -33.787246 
L 111.667119 -33.661475 
L 113.27084 -33.551516 
L 114.874618 -33.472987 
L 116.474585 -33.392587 
L 118.073525 -33.33176 
L 119.670769 -33.280254 
L 121.267461 -33.252994 
L 122.862758 -33.228993 
L 124.457559 -33.219329 
L 126.052122 -33.22006 
L 127.647055 -33.224212 
L 129.242512 -33.246446 
L 130.838708 -33.283692 
L 132.436141 -33.332024 
L 134.034585 -33.397959 
L 135.636175 -33.463287 
L 137.237939 -33.55842 
L 138.842875 -33.659424 
L 140.448795 -33.783591 
L 142.056646 -33.924648 
L 143.671544 -34.058089 
L 145.284654 -34.230426 
L 146.904643 -34.401157 
L 148.530842 -34.577456 
L 150.15328 -34.798203 
L 151.785276 -35.013823 
L 153.414205 -35.268977 
L 155.057398 -35.508616 
L 156.702802 -35.772767 
L 158.356273 -36.045268 
L 160.000219 -36.37279 
L 161.65985 -36.689602 
L 163.328154 -37.016443 
L 164.998256 -37.370103 
L 166.677321 -37.735034 
L 168.357855 -38.127797 
L 170.04752 -38.533132 
L 171.738216 -38.967341 
L 173.438083 -39.415476 
L 175.138426 -39.893545 
L 176.847845 -40.386937 
L 178.587609 -40.863391 
L 180.302399 -41.411279 
L 182.02585 -41.976736 
L 183.783198 -42.525336 
L 185.509877 -43.149059 
L 187.277698 -43.749305 
L 189.015926 -44.420396 
L 190.792386 -45.075666 
L 192.573064 -45.759553 
L 194.357238 -46.473014 
L 196.09767 -47.267684 
L 197.884667 -48.043199 
L 199.672177 -48.851434 
L 201.45873 -49.693712 
L 203.242465 -50.571573 
L 205.020974 -51.486871 
L 206.844237 -52.394865 
L 208.602035 -53.393837 
L 210.342127 -54.438519 
L 212.019792 -55.563107 
L 213.201626 -57.095123 
L 214.376693 -58.632363 
L 215.521398 -60.192555 
L 216.616804 -61.787727 
L 217.637113 -63.432572 
L 218.698926 -65.048617 
L 219.711558 -66.695913 
L 220.772369 -68.314941 
L 221.676553 -70.026284 
L 222.656649 -71.694197 
L 223.589935 -73.389054 
L 224.476055 -75.109191 
L 225.314704 -76.852957 
L 226.105659 -78.618698 
L 226.890321 -80.386699 
L 227.684494 -82.151312 
L 228.362656 -83.963815 
L 229.103337 -85.751702 
L 229.653957 -87.609397 
L 230.296385 -89.432655 
L 230.911712 -91.26558 
L 231.484258 -93.112476 
L 232.017018 -94.971291 
L 232.514774 -96.839759 
L 232.969964 -98.71895 
L 233.383212 -100.60758 
L 233.771033 -102.501194 
L 234.265 -104.375224 
L 234.559961 -106.287659 
L 234.83934 -108.20155 
L 235.057137 -110.123316 
L 235.398445 -112.029784 
L 235.570404 -113.956882 
L 235.674869 -115.888818 
L 235.906043 -117.811345 
L 235.972209 -119.745038 
L 235.967388 -121.679953 
L 236.129056 -123.611478 
L 236.054218 -125.545994 
L 235.982616 -127.478571 
L 236.003929 -129.414472 
L 235.827092 -131.341951 
L 235.781527 -133.277701 
L 235.57623 -135.201804 
L 235.337923 -137.121445 
L 235.031941 -139.031492 
z
" style="stroke: #ffee9c"/>
    </defs>
    <g clip-path="url(#p30b3875da6)">
     <use xlink:href="#m8f192b0d00" x="0" y="249.158125" style="fill: #ffee9c; stroke: #ffee9c"/>
    </g>
   </g>
   <g id="matplotlib.axis_1">
    <g id="xtick_1">
     <g id="line2d_1">
      <path d="M 125.254844 124.579063 
L 125.254844 13.699063 
" clip-path="url(#p30b3875da6)" style="fill: none; stroke: #b0b0b0; stroke-width: 0.8; stroke-linecap: square"/>
     </g>
     <g id="text_1">
      <!-- N -->
      <g transform="translate(121.070469 7.958438) scale(0.1 -0.1)">
       <defs>
        <path id="DejaVuSans-Bold-4e" d="M 588 4666 
L 1931 4666 
L 3628 1466 
L 3628 4666 
L 4769 4666 
L 4769 0 
L 3425 0 
L 1728 3200 
L 1728 0 
L 588 0 
L 588 4666 
z
" transform="scale(0.015625)"/>
       </defs>
       <use xlink:href="#DejaVuSans-Bold-4e"/>
      </g>
     </g>
    </g>
    <g id="xtick_2">
     <g id="line2d_2">
      <path d="M 125.254844 124.579063 
L 203.658844 46.175063 
" clip-path="url(#p30b3875da6)" style="fill: none; stroke: #b0b0b0; stroke-width: 0.8; stroke-linecap: square"/>
     </g>
    </g>
    <g id="xtick_3">
     <g id="line2d_3">
      <path d="M 125.254844 124.579063 
L 236.134844 124.579063 
" clip-path="url(#p30b3875da6)" style="fill: none; stroke: #b0b0b0; stroke-width: 0.8; stroke-linecap: square"/>
     </g>
     <g id="text_2">
      <!-- E -->
      <g transform="translate(241.219219 127.338438) scale(0.1 -0.1)">
       <defs>
        <path id="DejaVuSans-Bold-45" d="M 588 4666 
L 3834 4666 
L 3834 3756 
L 1791 3756 
L 1791 2888 
L 3713 2888 
L 3713 1978 
L 1791 1978 
L 1791 909 
L 3903 909 
L 3903 0 
L 588 0 
L 588 4666 
z
" transform="scale(0.015625)"/>
       </defs>
       <use xlink:href="#DejaVuSans-Bold-45"/>
      </g>
     </g>
    </g>
    <g id="xtick_4">
     <g id="line2d_4">
      <path d="M 125.254844 124.579063 
L 203.658844 202.983062 
" clip-path="url(#p30b3875da6)" style="fill: none; stroke: #b0b0b0; stroke-width: 0.8; stroke-linecap: square"/>
     </g>
    </g>
    <g id="xtick_5">
     <g id="line2d_5">
      <path d="M 125.254844 124.579063 
L 125.254844 235.459063 
" clip-path="url(#p30b3875da6)" style="fill: none; stroke: #b0b0b0; stroke-width: 0.8; stroke-linecap: square"/>
     </g>
     <g id="text_3">
      <!-- S -->
      <g transform="translate(121.654062 246.718438) scale(0.1 -0.1)">
       <defs>
        <path id="DejaVuSans-Bold-53" d="M 3834 4519 
L 3834 3531 
Q 3450 3703 3084 3790 
Q 2719 3878 2394 3878 
Q 1963 3878 1756 3759 
Q 1550 3641 1550 3391 
Q 1550 3203 1689 3098 
Q 1828 2994 2194 2919 
L 2706 2816 
Q 3484 2659 3812 2340 
Q 4141 2022 4141 1434 
Q 4141 663 3683 286 
Q 3225 -91 2284 -91 
Q 1841 -91 1394 -6 
Q 947 78 500 244 
L 500 1259 
Q 947 1022 1364 901 
Q 1781 781 2169 781 
Q 2563 781 2772 912 
Q 2981 1044 2981 1288 
Q 2981 1506 2839 1625 
Q 2697 1744 2272 1838 
L 1806 1941 
Q 1106 2091 782 2419 
Q 459 2747 459 3303 
Q 459 4000 909 4375 
Q 1359 4750 2203 4750 
Q 2588 4750 2994 4692 
Q 3400 4634 3834 4519 
z
" transform="scale(0.015625)"/>
       </defs>
       <use xlink:href="#DejaVuSans-Bold-53"/>
      </g>
     </g>
    </g>
    <g id="xtick_6">
     <g id="line2d_6">
      <path d="M 125.254844 124.579063 
L 46.850844 202.983062 
" clip-path="url(#p30b3875da6)" style="fill: none; stroke: #b0b0b0; stroke-width: 0.8; stroke-linecap: square"/>
     </g>
    </g>
    <g id="xtick_7">
     <g id="line2d_7">
      <path d="M 125.254844 124.579063 
L 14.374844 124.579063 
" clip-path="url(#p30b3875da6)" style="fill: none; stroke: #b0b0b0; stroke-width: 0.8; stroke-linecap: square"/>
     </g>
     <g id="text_4">
      <!-- W -->
      <g transform="translate(0.36 127.338438) scale(0.1 -0.1)">
       <defs>
        <path id="DejaVuSans-Bold-57" d="M 191 4666 
L 1344 4666 
L 2150 1275 
L 2950 4666 
L 4109 4666 
L 4909 1275 
L 5716 4666 
L 6859 4666 
L 5759 0 
L 4372 0 
L 3525 3547 
L 2688 0 
L 1300 0 
L 191 4666 
z
" transform="scale(0.015625)"/>
       </defs>
       <use xlink:href="#DejaVuSans-Bold-57"/>
      </g>
     </g>
    </g>
    <g id="xtick_8">
     <g id="line2d_8">
      <path d="M 125.254844 124.579063 
L 46.850844 46.175063 
" clip-path="url(#p30b3875da6)" style="fill: none; stroke: #b0b0b0; stroke-width: 0.8; stroke-linecap: square"/>
     </g>
    </g>
   </g>
   <g id="matplotlib.axis_2"/>
   <g id="patch_3">
    <path d="M 125.254844 124.579063 
C 125.254844 124.579063 125.254844 124.579063 125.254844 124.579063 
C 125.254844 124.579063 125.254844 124.579063 125.254844 124.579063 
L 125.254844 124.579063 
C 125.254844 124.579063 125.254844 124.579063 125.254844 124.579063 
C 125.254844 124.579063 125.254844 124.579063 125.254844 124.579063 
z
" clip-path="url(#p30b3875da6)" style="fill: #d9d9d9"/>
   </g>
   <g id="patch_4">
    <path d="M 125.254844 124.579063 
C 125.254844 124.579063 125.254844 124.579063 125.254844 124.579063 
C 125.254844 124.579063 125.254844 124.579063 125.254844 124.579063 
L 125.254844 124.579063 
C 125.254844 124.579063 125.254844 124.579063 125.254844 124.579063 
C 125.254844 124.579063 125.254844 124.579063 125.254844 124.579063 
z
" clip-path="url(#p30b3875da6)" style="fill: #d9d9d9"/>
   </g>
   <g id="patch_5">
    <path d="M 125.254844 124.579063 
C 125.254844 124.579063 125.254844 124.579063 125.254844 124.579063 
C 125.254844 124.579063 125.254844 124.579063 125.254844 124.579063 
L 125.254844 124.579063 
C 125.254844 124.579063 125.254844 124.579063 125.254844 124.579063 
C 125.254844 124.579063 125.254844 124.579063 125.254844 124.579063 
z
" clip-path="url(#p30b3875da6)" style="fill: #d9d9d9"/>
   </g>
   <g id="patch_6">
    <path d="M 125.254844 124.579063 
C 125.254844 124.579063 125.254844 124.579063 125.254844 124.579063 
C 125.254844 124.579063 125.254844 124.579063 125.254844 124.579063 
L 125.254844 124.579063 
C 125.254844 124.579063 125.254844 124.579063 125.254844 124.579063 
C 125.254844 124.579063 125.254844 124.579063 125.254844 124.579063 
z
" clip-path="url(#p30b3875da6)" style="fill: #d9d9d9"/>
   </g>
   <g id="patch_7">
    <path d="M 125.254844 124.579063 
C 125.254844 124.579063 125.254844 124.579063 125.254844 124.579063 
C 125.254844 124.579063 125.254844 124.579063 125.254844 124.579063 
L 125.254844 124.579063 
C 125.254844 124.579063 125.254844 124.579063 125.254844 124.579063 
C 125.254844 124.579063 125.254844 124.579063 125.254844 124.579063 
z
" clip-path="url(#p30b3875da6)" style="fill: #d9d9d9"/>
   </g>
   <g id="patch_8">
    <path d="M 125.254844 124.579063 
C 125.254844 124.579063 125.254844 124.579063 125.254844 124.579063 
C 125.254844 124.579063 125.254844 124.579063 125.254844 124.579063 
L 125.254844 124.579063 
C 125.254844 124.579063 125.254844 124.579063 125.254844 124.579063 
C 125.254844 124.579063 125.254844 124.579063 125.254844 124.579063 
z
" clip-path="url(#p30b3875da6)" style="fill: #d9d9d9"/>
   </g>
   <g id="patch_9">
    <path d="M 125.254844 124.579063 
C 125.254844 124.579063 125.254844 124.579063 125.254844 124.579063 
C 125.254844 124.579063 125.254844 124.579063 125.254844 124.579063 
L 125.254844 124.579063 
C 125.254844 124.579063 125.254844 124.579063 125.254844 124.579063 
C 125.254844 124.579063 125.254844 124.579063 125.254844 124.579063 
z
" clip-path="url(#p30b3875da6)" style="fill: #d9d9d9"/>
   </g>
   <g id="patch_10">
    <path d="M 125.254844 124.579063 
C 125.254844 124.579063 125.254844 124.579063 125.254844 124.579063 
C 125.254844 124.579063 125.254844 124.579063 125.254844 124.579063 
L 125.254844 124.579063 
C 125.254844 124.579063 125.254844 124.579063 125.254844 124.579063 
C 125.254844 124.579063 125.254844 124.579063 125.254844 124.579063 
z
" clip-path="url(#p30b3875da6)" style="fill: #d9d9d9"/>
   </g>
   <g id="patch_11">
    <path d="M 125.254844 124.579063 
C 125.254844 124.579063 125.254844 124.579063 125.254844 124.579063 
C 125.254844 124.579063 125.254844 124.579063 125.254844 124.579063 
L 125.254844 124.579063 
C 125.254844 124.579063 125.254844 124.579063 125.254844 124.579063 
C 125.254844 124.579063 125.254844 124.579063 125.254844 124.579063 
z
" clip-path="url(#p30b3875da6)" style="fill: #d9d9d9"/>
   </g>
   <g id="patch_12">
    <path d="M 125.254844 124.579063 
C 125.254844 124.579063 125.254844 124.579063 125.254844 124.579063 
C 125.254844 124.579063 125.254844 124.579063 125.254844 124.579063 
L 125.254844 124.579063 
C 125.254844 124.579063 125.254844 124.579063 125.254844 124.579063 
C 125.254844 124.579063 125.254844 124.579063 125.254844 124.579063 
z
" clip-path="url(#p30b3875da6)" style="fill: #d9d9d9"/>
   </g>
   <g id="patch_13">
    <path d="M 125.254844 124.579063 
C 125.254844 124.579063 125.254844 124.579063 125.254844 124.579063 
C 125.254844 124.579063 125.254844 124.579063 125.254844 124.579063 
L 125.254844 124.579063 
C 125.254844 124.579063 125.254844 124.579063 125.254844 124.579063 
C 125.254844 124.579063 125.254844 124.579063 125.254844 124.579063 
z
" clip-path="url(#p30b3875da6)" style="fill: #d9d9d9"/>
   </g>
   <g id="patch_14">
    <path d="M 125.254844 124.579063 
C 125.254844 124.579063 125.254844 124.579063 125.254844 124.579063 
C 125.254844 124.579063 125.254844 124.579063 125.254844 124.579063 
L 125.254844 124.579063 
C 125.254844 124.579063 125.254844 124.579063 125.254844 124.579063 
C 125.254844 124.579063 125.254844 124.579063 125.254844 124.579063 
z
" clip-path="url(#p30b3875da6)" style="fill: #d9d9d9"/>
   </g>
   <g id="patch_15">
    <path d="M 125.254844 124.579063 
C 125.254844 124.579063 125.254844 124.579063 125.254844 124.579063 
C 125.254844 124.579063 125.254844 124.579063 125.254844 124.579063 
L 125.254844 124.579063 
C 125.254844 124.579063 125.254844 124.579063 125.254844 124.579063 
C 125.254844 124.579063 125.254844 124.579063 125.254844 124.579063 
z
" clip-path="url(#p30b3875da6)" style="fill: #d9d9d9"/>
   </g>
   <g id="patch_16">
    <path d="M 125.254844 124.579063 
C 125.254844 124.579063 125.254844 124.579063 125.254844 124.579063 
C 125.254844 124.579063 125.254844 124.579063 125.254844 124.579063 
L 125.254844 124.579063 
C 125.254844 124.579063 125.254844 124.579063 125.254844 124.579063 
C 125.254844 124.579063 125.254844 124.579063 125.254844 124.579063 
z
" clip-path="url(#p30b3875da6)" style="fill: #d9d9d9"/>
   </g>
   <g id="patch_17">
    <path d="M 125.254844 124.579063 
C 125.254844 124.579063 125.254844 124.579063 125.254844 124.579063 
C 125.254844 124.579063 125.254844 124.579063 125.254844 124.579063 
L 125.254844 124.579063 
C 125.254844 124.579063 125.254844 124.579063 125.254844 124.579063 
C 125.254844 124.579063 125.254844 124.579063 125.254844 124.579063 
z
" clip-path="url(#p30b3875da6)" style="fill: #d9d9d9"/>
   </g>
   <g id="patch_18">
    <path d="M 125.254844 124.579063 
C 125.254844 124.579063 125.254844 124.579063 125.254844 124.579063 
C 125.254844 124.579063 125.254844 124.579063 125.254844 124.579063 
L 125.254844 124.579063 
C 125.254844 124.579063 125.254844 124.579063 125.254844 124.579063 
C 125.254844 124.579063 125.254844 124.579063 125.254844 124.579063 
z
" clip-path="url(#p30b3875da6)" style="fill: #d9d9d9"/>
   </g>
   <g id="patch_19">
    <path d="M 125.254844 124.579063 
C 125.254844 124.579063 125.254844 124.579063 125.254844 124.579063 
C 125.254844 124.579063 125.254844 124.579063 125.254844 124.579063 
L 125.254844 124.579063 
C 125.254844 124.579063 125.254844 124.579063 125.254844 124.579063 
C 125.254844 124.579063 125.254844 124.579063 125.254844 124.579063 
z
" clip-path="url(#p30b3875da6)" style="fill: #d9d9d9"/>
   </g>
   <g id="patch_20">
    <path d="M 125.254844 124.579063 
C 125.254844 124.579063 125.254844 124.579063 125.254844 124.579063 
C 125.254844 124.579063 125.254844 124.579063 125.254844 124.579063 
L 125.254844 124.579063 
C 125.254844 124.579063 125.254844 124.579063 125.254844 124.579063 
C 125.254844 124.579063 125.254844 124.579063 125.254844 124.579063 
z
" clip-path="url(#p30b3875da6)" style="fill: #d9d9d9"/>
   </g>
   <g id="patch_21">
    <path d="M 125.254844 124.579063 
C 125.254844 124.579063 125.254844 124.579063 125.254844 124.579063 
C 125.254844 124.579063 125.254844 124.579063 125.254844 124.579063 
L 125.254844 124.579063 
C 125.254844 124.579063 125.254844 124.579063 125.254844 124.579063 
C 125.254844 124.579063 125.254844 124.579063 125.254844 124.579063 
z
" clip-path="url(#p30b3875da6)" style="fill: #d9d9d9"/>
   </g>
   <g id="patch_22">
    <path d="M 125.254844 124.579063 
C 125.254844 124.579063 125.254844 124.579063 125.254844 124.579063 
C 125.254844 124.579063 125.254844 124.579063 125.254844 124.579063 
L 125.254844 124.579063 
C 125.254844 124.579063 125.254844 124.579063 125.254844 124.579063 
C 125.254844 124.579063 125.254844 124.579063 125.254844 124.579063 
z
" clip-path="url(#p30b3875da6)" style="fill: #d9d9d9"/>
   </g>
   <g id="patch_23">
    <path d="M 125.254844 124.579063 
C 125.254844 124.579063 125.254844 124.579063 125.254844 124.579063 
C 125.254844 124.579063 125.254844 124.579063 125.254844 124.579063 
L 125.254844 124.579063 
C 125.254844 124.579063 125.254844 124.579063 125.254844 124.579063 
C 125.254844 124.579063 125.254844 124.579063 125.254844 124.579063 
z
" clip-path="url(#p30b3875da6)" style="fill: #d9d9d9"/>
   </g>
   <g id="patch_24">
    <path d="M 125.254844 124.579063 
C 125.254844 124.579063 125.254844 124.579063 125.254844 124.579063 
C 125.254844 124.579063 125.254844 124.579063 125.254844 124.579063 
L 125.254844 124.579063 
C 125.254844 124.579063 125.254844 124.579063 125.254844 124.579063 
C 125.254844 124.579063 125.254844 124.579063 125.254844 124.579063 
z
" clip-path="url(#p30b3875da6)" style="fill: #d9d9d9"/>
   </g>
   <g id="patch_25">
    <path d="M 125.254844 124.579063 
C 125.254844 124.579063 125.254844 124.579063 125.254844 124.579063 
C 125.254844 124.579063 125.254844 124.579063 125.254844 124.579063 
L 125.254844 124.579063 
C 125.254844 124.579063 125.254844 124.579063 125.254844 124.579063 
C 125.254844 124.579063 125.254844 124.579063 125.254844 124.579063 
z
" clip-path="url(#p30b3875da6)" style="fill: #d9d9d9"/>
   </g>
   <g id="patch_26">
    <path d="M 125.254844 124.579063 
C 125.254844 124.579063 125.254844 124.579063 125.254844 124.579063 
C 125.254844 124.579063 125.254844 124.579063 125.254844 124.579063 
L 125.254844 124.579063 
C 125.254844 124.579063 125.254844 124.579063 125.254844 124.579063 
C 125.254844 124.579063 125.254844 124.579063 125.254844 124.579063 
z
" clip-path="url(#p30b3875da6)" style="fill: #d9d9d9"/>
   </g>
   <g id="patch_27">
    <path d="M 125.254844 124.579063 
C 125.254844 124.579063 125.254844 124.579063 125.254844 124.579063 
C 125.254844 124.579063 125.254844 124.579063 125.254844 124.579063 
L 125.254844 124.579063 
C 125.254844 124.579063 125.254844 124.579063 125.254844 124.579063 
C 125.254844 124.579063 125.254844 124.579063 125.254844 124.579063 
z
" clip-path="url(#p30b3875da6)" style="fill: #d9d9d9"/>
   </g>
   <g id="patch_28">
    <path d="M 125.254844 124.579063 
C 125.254844 124.579063 125.254844 124.579063 125.254844 124.579063 
C 125.254844 124.579063 125.254844 124.579063 125.254844 124.579063 
L 125.254844 124.579063 
C 125.254844 124.579063 125.254844 124.579063 125.254844 124.579063 
C 125.254844 124.579063 125.254844 124.579063 125.254844 124.579063 
z
" clip-path="url(#p30b3875da6)" style="fill: #d9d9d9"/>
   </g>
   <g id="patch_29">
    <path d="M 125.254844 124.579063 
C 125.254844 124.579063 125.254844 124.579063 125.254844 124.579063 
C 125.254844 124.579063 125.254844 124.579063 125.254844 124.579063 
L 125.254844 124.579063 
C 125.254844 124.579063 125.254844 124.579063 125.254844 124.579063 
C 125.254844 124.579063 125.254844 124.579063 125.254844 124.579063 
z
" clip-path="url(#p30b3875da6)" style="fill: #d9d9d9"/>
   </g>
   <g id="patch_30">
    <path d="M 125.254844 124.579063 
C 125.254844 124.579063 125.254844 124.579063 125.254844 124.579063 
C 125.254844 124.579063 125.254844 124.579063 125.254844 124.579063 
L 125.254844 124.579063 
C 125.254844 124.579063 125.254844 124.579063 125.254844 124.579063 
C 125.254844 124.579063 125.254844 124.579063 125.254844 124.579063 
z
" clip-path="url(#p30b3875da6)" style="fill: #d9d9d9"/>
   </g>
   <g id="patch_31">
    <path d="M 125.254844 124.579063 
C 125.254844 124.579063 125.254844 124.579063 125.254844 124.579063 
C 125.254844 124.579063 125.254844 124.579063 125.254844 124.579063 
L 125.254844 124.579063 
C 125.254844 124.579063 125.254844 124.579063 125.254844 124.579063 
C 125.254844 124.579063 125.254844 124.579063 125.254844 124.579063 
z
" clip-path="url(#p30b3875da6)" style="fill: #d9d9d9"/>
   </g>
   <g id="patch_32">
    <path d="M 125.254844 124.579063 
C 125.254844 124.579063 125.254844 124.579063 125.254844 124.579063 
C 125.254844 124.579063 125.254844 124.579063 125.254844 124.579063 
L 125.254844 124.579063 
C 125.254844 124.579063 125.254844 124.579063 125.254844 124.579063 
C 125.254844 124.579063 125.254844 124.579063 125.254844 124.579063 
z
" clip-path="url(#p30b3875da6)" style="fill: #d9d9d9"/>
   </g>
   <g id="patch_33">
    <path d="M 125.254844 124.579063 
C 125.254844 124.579063 125.254844 124.579063 125.254844 124.579063 
C 125.254844 124.579063 125.254844 124.579063 125.254844 124.579063 
L 125.254844 124.579063 
C 125.254844 124.579063 125.254844 124.579063 125.254844 124.579063 
C 125.254844 124.579063 125.254844 124.579063 125.254844 124.579063 
z
" clip-path="url(#p30b3875da6)" style="fill: #d9d9d9"/>
   </g>
   <g id="patch_34">
    <path d="M 125.254844 124.579063 
C 125.254844 124.579063 125.254844 124.579063 125.254844 124.579063 
C 125.254844 124.579063 125.254844 124.579063 125.254844 124.579063 
L 125.254844 124.579063 
C 125.254844 124.579063 125.254844 124.579063 125.254844 124.579063 
C 125.254844 124.579063 125.254844 124.579063 125.254844 124.579063 
z
" clip-path="url(#p30b3875da6)" style="fill: #d9d9d9"/>
   </g>
   <g id="patch_35">
    <path d="M 125.254844 124.579063 
C 125.254844 124.579063 125.254844 124.579063 125.254844 124.579063 
C 125.254844 124.579063 125.254844 124.579063 125.254844 124.579063 
L 133.542013 40.438018 
C 130.787951 40.166766 128.022232 40.030895 125.254844 40.030895 
C 122.487456 40.030895 119.721736 40.166766 116.967674 40.438018 
z
" clip-path="url(#p30b3875da6)" style="fill: #a1a1d8"/>
   </g>
   <g id="patch_36">
    <path d="M 125.254844 124.579063 
C 125.254844 124.579063 125.254844 124.579063 125.254844 124.579063 
C 125.254844 124.579063 125.254844 124.579063 125.254844 124.579063 
L 156.019766 23.160707 
C 152.700191 22.153725 149.333178 21.310332 145.930887 20.633575 
C 142.528596 19.956817 139.095128 19.44751 135.642887 19.107494 
z
" clip-path="url(#p30b3875da6)" style="fill: #a1a1d8"/>
   </g>
   <g id="patch_37">
    <path d="M 125.254844 124.579063 
C 125.254844 124.579063 125.254844 124.579063 125.254844 124.579063 
C 125.254844 124.579063 125.254844 124.579063 125.254844 124.579063 
L 167.339171 45.844824 
C 164.762082 44.467341 162.118915 43.217216 159.419219 42.098965 
C 156.719522 40.980714 153.966549 39.995685 151.170245 39.147435 
z
" clip-path="url(#p30b3875da6)" style="fill: #a1a1d8"/>
   </g>
   <g id="patch_38">
    <path d="M 125.254844 124.579063 
C 125.254844 124.579063 125.254844 124.579063 125.254844 124.579063 
C 125.254844 124.579063 125.254844 124.579063 125.254844 124.579063 
L 164.381348 76.90328 
C 162.820848 75.622611 161.198412 74.41933 159.519899 73.297783 
C 157.841386 72.176237 156.10882 71.137777 154.328459 70.186154 
z
" clip-path="url(#p30b3875da6)" style="fill: #a1a1d8"/>
   </g>
   <g id="patch_39">
    <path d="M 125.254844 124.579063 
C 125.254844 124.579063 125.254844 124.579063 125.254844 124.579063 
C 125.254844 124.579063 125.254844 124.579063 125.254844 124.579063 
L 161.451254 94.873436 
C 160.478944 93.688674 159.449052 92.552363 158.365298 91.468608 
C 157.281543 90.384854 156.145232 89.354962 154.96047 88.382652 
z
" clip-path="url(#p30b3875da6)" style="fill: #a1a1d8"/>
   </g>
   <g id="patch_40">
    <path d="M 125.254844 124.579063 
C 125.254844 124.579063 125.254844 124.579063 125.254844 124.579063 
C 125.254844 124.579063 125.254844 124.579063 125.254844 124.579063 
L 168.498932 101.464616 
C 167.742362 100.049172 166.916753 98.671727 166.025088 97.337256 
C 165.133423 96.002785 164.176777 94.712897 163.158605 93.47225 
z
" clip-path="url(#p30b3875da6)" style="fill: #a1a1d8"/>
   </g>
   <g id="patch_41">
    <path d="M 125.254844 124.579063 
C 125.254844 124.579063 125.254844 124.579063 125.254844 124.579063 
C 125.254844 124.579063 125.254844 124.579063 125.254844 124.579063 
L 160.685246 113.831368 
C 160.333458 112.671678 159.924944 111.529958 159.46118 110.410334 
C 158.997417 109.290709 158.478962 108.194529 157.907689 107.125753 
z
" clip-path="url(#p30b3875da6)" style="fill: #a1a1d8"/>
   </g>
   <g id="patch_42">
    <path d="M 125.254844 124.579063 
C 125.254844 124.579063 125.254844 124.579063 125.254844 124.579063 
C 125.254844 124.579063 125.254844 124.579063 125.254844 124.579063 
L 159.345638 121.221412 
C 159.235737 120.10557 159.071117 118.995796 158.852374 117.896098 
C 158.633631 116.796401 158.361027 115.708106 158.035548 114.635145 
z
" clip-path="url(#p30b3875da6)" style="fill: #a1a1d8"/>
   </g>
   <g id="patch_43">
    <path d="M 125.254844 124.579063 
C 125.254844 124.579063 125.254844 124.579063 125.254844 124.579063 
C 125.254844 124.579063 125.254844 124.579063 125.254844 124.579063 
L 151.782314 127.19179 
C 151.867833 126.323507 151.91067 125.451547 151.91067 124.579063 
C 151.91067 123.706578 151.867833 122.834618 151.782314 121.966335 
z
" clip-path="url(#p30b3875da6)" style="fill: #a1a1d8"/>
   </g>
   <g id="patch_44">
    <path d="M 125.254844 124.579063 
C 125.254844 124.579063 125.254844 124.579063 125.254844 124.579063 
C 125.254844 124.579063 125.254844 124.579063 125.254844 124.579063 
L 154.202572 133.36026 
C 154.489994 132.412757 154.730722 131.451715 154.923889 130.480602 
C 155.117055 129.50949 155.262426 128.52948 155.359476 127.54411 
z
" clip-path="url(#p30b3875da6)" style="fill: #a1a1d8"/>
   </g>
   <g id="patch_45">
    <path d="M 125.254844 124.579063 
C 125.254844 124.579063 125.254844 124.579063 125.254844 124.579063 
C 125.254844 124.579063 125.254844 124.579063 125.254844 124.579063 
L 127.617521 125.84194 
C 127.658857 125.764606 127.696371 125.685289 127.729927 125.604276 
C 127.763484 125.523263 127.793043 125.440651 127.818498 125.356738 
z
" clip-path="url(#p30b3875da6)" style="fill: #a1a1d8"/>
   </g>
   <g id="patch_46">
    <path d="M 125.254844 124.579063 
C 125.254844 124.579063 125.254844 124.579063 125.254844 124.579063 
C 125.254844 124.579063 125.254844 124.579063 125.254844 124.579063 
L 125.254844 124.579063 
C 125.254844 124.579063 125.254844 124.579063 125.254844 124.579063 
C 125.254844 124.579063 125.254844 124.579063 125.254844 124.579063 
z
" clip-path="url(#p30b3875da6)" style="fill: #a1a1d8"/>
   </g>
   <g id="patch_47">
    <path d="M 125.254844 124.579063 
C 125.254844 124.579063 125.254844 124.579063 125.254844 124.579063 
C 125.254844 124.579063 125.254844 124.579063 125.254844 124.579063 
L 126.456605 126.043413 
C 126.504535 126.004077 126.550505 125.962412 126.594349 125.918568 
C 126.638193 125.874724 126.679858 125.828754 126.719194 125.780824 
z
" clip-path="url(#p30b3875da6)" style="fill: #a1a1d8"/>
   </g>
   <g id="patch_48">
    <path d="M 125.254844 124.579063 
C 125.254844 124.579063 125.254844 124.579063 125.254844 124.579063 
C 125.254844 124.579063 125.254844 124.579063 125.254844 124.579063 
L 125.254844 124.579063 
C 125.254844 124.579063 125.254844 124.579063 125.254844 124.579063 
C 125.254844 124.579063 125.254844 124.579063 125.254844 124.579063 
z
" clip-path="url(#p30b3875da6)" style="fill: #a1a1d8"/>
   </g>
   <g id="patch_49">
    <path d="M 125.254844 124.579063 
C 125.254844 124.579063 125.254844 124.579063 125.254844 124.579063 
C 125.254844 124.579063 125.254844 124.579063 125.254844 124.579063 
L 125.254844 124.579063 
C 125.254844 124.579063 125.254844 124.579063 125.254844 124.579063 
C 125.254844 124.579063 125.254844 124.579063 125.254844 124.579063 
z
" clip-path="url(#p30b3875da6)" style="fill: #a1a1d8"/>
   </g>
   <g id="patch_50">
    <path d="M 125.254844 124.579063 
C 125.254844 124.579063 125.254844 124.579063 125.254844 124.579063 
C 125.254844 124.579063 125.254844 124.579063 125.254844 124.579063 
L 125.254844 124.579063 
C 125.254844 124.579063 125.254844 124.579063 125.254844 124.579063 
C 125.254844 124.579063 125.254844 124.579063 125.254844 124.579063 
z
" clip-path="url(#p30b3875da6)" style="fill: #a1a1d8"/>
   </g>
   <g id="patch_51">
    <path d="M 125.254844 124.579063 
C 125.254844 124.579063 125.254844 124.579063 125.254844 124.579063 
C 125.254844 124.579063 125.254844 124.579063 125.254844 124.579063 
L 125.254844 124.579063 
C 125.254844 124.579063 125.254844 124.579063 125.254844 124.579063 
C 125.254844 124.579063 125.254844 124.579063 125.254844 124.579063 
z
" clip-path="url(#p30b3875da6)" style="fill: #a1a1d8"/>
   </g>
   <g id="patch_52">
    <path d="M 125.254844 124.579063 
C 125.254844 124.579063 125.254844 124.579063 125.254844 124.579063 
C 125.254844 124.579063 125.254844 124.579063 125.254844 124.579063 
L 125.254844 124.579063 
C 125.254844 124.579063 125.254844 124.579063 125.254844 124.579063 
C 125.254844 124.579063 125.254844 124.579063 125.254844 124.579063 
z
" clip-path="url(#p30b3875da6)" style="fill: #a1a1d8"/>
   </g>
   <g id="patch_53">
    <path d="M 125.254844 124.579063 
C 125.254844 124.579063 125.254844 124.579063 125.254844 124.579063 
C 125.254844 124.579063 125.254844 124.579063 125.254844 124.579063 
L 125.254844 124.579063 
C 125.254844 124.579063 125.254844 124.579063 125.254844 124.579063 
C 125.254844 124.579063 125.254844 124.579063 125.254844 124.579063 
z
" clip-path="url(#p30b3875da6)" style="fill: #a1a1d8"/>
   </g>
   <g id="patch_54">
    <path d="M 125.254844 124.579063 
C 125.254844 124.579063 125.254844 124.579063 125.254844 124.579063 
C 125.254844 124.579063 125.254844 124.579063 125.254844 124.579063 
L 118.247433 133.117617 
C 118.526913 133.34698 118.817485 133.562483 119.1181 133.763348 
C 119.418716 133.964213 119.729012 134.150197 120.047868 134.320629 
z
" clip-path="url(#p30b3875da6)" style="fill: #a1a1d8"/>
   </g>
   <g id="patch_55">
    <path d="M 125.254844 124.579063 
C 125.254844 124.579063 125.254844 124.579063 125.254844 124.579063 
C 125.254844 124.579063 125.254844 124.579063 125.254844 124.579063 
L 114.494113 133.410166 
C 114.783168 133.762381 115.089341 134.100192 115.411528 134.422378 
C 115.733714 134.744565 116.071525 135.050739 116.42374 135.339794 
z
" clip-path="url(#p30b3875da6)" style="fill: #a1a1d8"/>
   </g>
   <g id="patch_56">
    <path d="M 125.254844 124.579063 
C 125.254844 124.579063 125.254844 124.579063 125.254844 124.579063 
C 125.254844 124.579063 125.254844 124.579063 125.254844 124.579063 
L 109.582618 132.956042 
C 109.856809 133.469017 110.15602 133.968221 110.479171 134.451851 
C 110.802322 134.935481 111.149024 135.402954 111.518023 135.85258 
z
" clip-path="url(#p30b3875da6)" style="fill: #a1a1d8"/>
   </g>
   <g id="patch_57">
    <path d="M 125.254844 124.579063 
C 125.254844 124.579063 125.254844 124.579063 125.254844 124.579063 
C 125.254844 124.579063 125.254844 124.579063 125.254844 124.579063 
L 102.905427 131.358684 
C 103.127335 132.090214 103.385024 132.810407 103.677565 133.516664 
C 103.970106 134.222921 104.297146 134.914388 104.657504 135.58857 
z
" clip-path="url(#p30b3875da6)" style="fill: #a1a1d8"/>
   </g>
   <g id="patch_58">
    <path d="M 125.254844 124.579063 
C 125.254844 124.579063 125.254844 124.579063 125.254844 124.579063 
C 125.254844 124.579063 125.254844 124.579063 125.254844 124.579063 
L 91.216217 127.931575 
C 91.32595 129.04571 91.490318 130.153786 91.708726 131.2518 
C 91.927135 132.349815 92.199321 133.436444 92.524303 134.507764 
z
" clip-path="url(#p30b3875da6)" style="fill: #a1a1d8"/>
   </g>
   <g id="patch_59">
    <path d="M 125.254844 124.579063 
C 125.254844 124.579063 125.254844 124.579063 125.254844 124.579063 
C 125.254844 124.579063 125.254844 124.579063 125.254844 124.579063 
L 89.336478 121.041412 
C 89.220686 122.217074 89.162685 123.397712 89.162685 124.579062 
C 89.162685 125.760413 89.220686 126.941051 89.336478 128.116713 
z
" clip-path="url(#p30b3875da6)" style="fill: #a1a1d8"/>
   </g>
   <g id="patch_60">
    <path d="M 125.254844 124.579063 
C 125.254844 124.579063 125.254844 124.579063 125.254844 124.579063 
C 125.254844 124.579063 125.254844 124.579063 125.254844 124.579063 
L 81.975385 111.450382 
C 81.545664 112.866983 81.185752 114.303829 80.896952 115.755729 
C 80.608151 117.207629 80.390808 118.672833 80.245709 120.14605 
z
" clip-path="url(#p30b3875da6)" style="fill: #a1a1d8"/>
   </g>
   <g id="patch_61">
    <path d="M 125.254844 124.579063 
C 125.254844 124.579063 125.254844 124.579063 125.254844 124.579063 
C 125.254844 124.579063 125.254844 124.579063 125.254844 124.579063 
L 92.988946 107.332581 
C 92.424442 108.388692 91.912132 109.471882 91.453864 110.578238 
C 90.995596 111.684595 90.591923 112.812784 90.244304 113.958731 
z
" clip-path="url(#p30b3875da6)" style="fill: #a1a1d8"/>
   </g>
   <g id="patch_62">
    <path d="M 125.254844 124.579063 
C 125.254844 124.579063 125.254844 124.579063 125.254844 124.579063 
C 125.254844 124.579063 125.254844 124.579063 125.254844 124.579063 
L 91.702369 97.043258 
C 90.801081 98.141481 89.954256 99.283292 89.164953 100.464568 
C 88.37565 101.645844 87.644819 102.865161 86.975102 104.118114 
z
" clip-path="url(#p30b3875da6)" style="fill: #a1a1d8"/>
   </g>
   <g id="patch_63">
    <path d="M 125.254844 124.579063 
C 125.254844 124.579063 125.254844 124.579063 125.254844 124.579063 
C 125.254844 124.579063 125.254844 124.579063 125.254844 124.579063 
L 94.451293 87.044827 
C 93.222741 88.053073 92.044432 89.12103 90.920622 90.24484 
C 89.796811 91.368651 88.728854 92.54696 87.720608 93.775511 
z
" clip-path="url(#p30b3875da6)" style="fill: #a1a1d8"/>
   </g>
   <g id="patch_64">
    <path d="M 125.254844 124.579063 
C 125.254844 124.579063 125.254844 124.579063 125.254844 124.579063 
C 125.254844 124.579063 125.254844 124.579063 125.254844 124.579063 
L 103.656321 84.171069 
C 102.333708 84.878021 101.0466 85.649484 99.799648 86.48267 
C 98.552697 87.315857 97.347403 88.209763 96.188123 89.16116 
z
" clip-path="url(#p30b3875da6)" style="fill: #a1a1d8"/>
   </g>
   <g id="patch_65">
    <path d="M 125.254844 124.579063 
C 125.254844 124.579063 125.254844 124.579063 125.254844 124.579063 
C 125.254844 124.579063 125.254844 124.579063 125.254844 124.579063 
L 102.695539 50.211002 
C 100.261361 50.949401 97.864904 51.806868 95.514824 52.780303 
C 93.164743 53.753738 90.863872 54.841969 88.620521 56.041065 
z
" clip-path="url(#p30b3875da6)" style="fill: #a1a1d8"/>
   </g>
   <g id="patch_66">
    <path d="M 125.254844 124.579063 
C 125.254844 124.579063 125.254844 124.579063 125.254844 124.579063 
C 125.254844 124.579063 125.254844 124.579063 125.254844 124.579063 
L 116.839695 39.138628 
C 114.043102 39.414068 111.261718 39.826647 108.50559 40.374876 
C 105.749461 40.923104 103.02191 41.60632 100.332788 42.422056 
z
" clip-path="url(#p30b3875da6)" style="fill: #a1a1d8"/>
   </g>
   <g id="patch_67">
    <path d="M 116.967674 40.438018 
C 119.721736 40.166766 122.487456 40.030895 125.254844 40.030895 
C 128.022232 40.030895 130.787951 40.166766 133.542013 40.438018 
L 134.056473 35.214616 
C 131.131442 34.926526 128.194028 34.78222 125.254844 34.78222 
C 122.315659 34.78222 119.378246 34.926526 116.453214 35.214616 
z
" clip-path="url(#p30b3875da6)" style="fill: #ff8c8e"/>
   </g>
   <g id="patch_68">
    <path d="M 135.642887 19.107494 
C 139.095128 19.44751 142.528596 19.956817 145.930887 20.633575 
C 149.333178 21.310332 152.700191 22.153725 156.019766 23.160707 
L 157.441608 18.473519 
C 153.968616 17.419998 150.445991 16.537627 146.886458 15.829592 
C 143.326926 15.121557 139.734776 14.588712 136.122984 14.232981 
z
" clip-path="url(#p30b3875da6)" style="fill: #ff8c8e"/>
   </g>
   <g id="patch_69">
    <path d="M 151.170245 39.147435 
C 153.966549 39.995685 156.719522 40.980714 159.419219 42.098965 
C 162.118915 43.217216 164.762082 44.467341 167.339171 45.844824 
L 168.220516 44.195944 
C 165.589456 42.789613 162.890936 41.513308 160.134701 40.371638 
C 157.378466 39.229968 154.56784 38.22431 151.712974 37.358296 
z
" clip-path="url(#p30b3875da6)" style="fill: #ff8c8e"/>
   </g>
   <g id="patch_70">
    <path d="M 154.328459 70.186154 
C 156.10882 71.137777 157.841386 72.176237 159.519899 73.297783 
C 161.198412 74.41933 162.820848 75.622611 164.381348 76.90328 
L 164.381348 76.90328 
C 162.820848 75.622611 161.198412 74.41933 159.519899 73.297783 
C 157.841386 72.176237 156.10882 71.137777 154.328459 70.186154 
z
" clip-path="url(#p30b3875da6)" style="fill: #ff8c8e"/>
   </g>
   <g id="patch_71">
    <path d="M 154.96047 88.382652 
C 156.145232 89.354962 157.281543 90.384854 158.365298 91.468608 
C 159.449052 92.552363 160.478944 93.688674 161.451254 94.873436 
L 162.271341 94.200408 
C 161.277003 92.988803 160.223777 91.826747 159.115468 90.718438 
C 158.007159 89.610129 156.845103 88.556904 155.633498 87.562565 
z
" clip-path="url(#p30b3875da6)" style="fill: #ff8c8e"/>
   </g>
   <g id="patch_72">
    <path d="M 163.158605 93.47225 
C 164.176777 94.712897 165.133423 96.002785 166.025088 97.337256 
C 166.916753 98.671727 167.742362 100.049172 168.498932 101.464616 
L 168.498932 101.464616 
C 167.742362 100.049172 166.916753 98.671727 166.025088 97.337256 
C 165.133423 96.002785 164.176777 94.712897 163.158605 93.47225 
z
" clip-path="url(#p30b3875da6)" style="fill: #ff8c8e"/>
   </g>
   <g id="patch_73">
    <path d="M 157.907689 107.125753 
C 158.478962 108.194529 158.997417 109.290709 159.46118 110.410334 
C 159.924944 111.529958 160.333458 112.671678 160.685246 113.831368 
L 161.145999 113.6916 
C 160.789636 112.516829 160.37581 111.360262 159.906015 110.226077 
C 159.43622 109.091893 158.911023 107.981458 158.332322 106.898782 
z
" clip-path="url(#p30b3875da6)" style="fill: #ff8c8e"/>
   </g>
   <g id="patch_74">
    <path d="M 158.035548 114.635145 
C 158.361027 115.708106 158.633631 116.796401 158.852374 117.896098 
C 159.071117 118.995796 159.235737 120.10557 159.345638 121.221412 
L 159.811593 121.17552 
C 159.70019 120.044426 159.53332 118.919483 159.311587 117.804755 
C 159.089854 116.690027 158.813524 115.586857 158.483596 114.499231 
z
" clip-path="url(#p30b3875da6)" style="fill: #ff8c8e"/>
   </g>
   <g id="patch_75">
    <path d="M 151.782314 121.966335 
C 151.867833 122.834618 151.91067 123.706578 151.91067 124.579063 
C 151.91067 125.451547 151.867833 126.323507 151.782314 127.19179 
L 151.782314 127.19179 
C 151.867833 126.323507 151.91067 125.451547 151.91067 124.579063 
C 151.91067 123.706578 151.867833 122.834618 151.782314 121.966335 
z
" clip-path="url(#p30b3875da6)" style="fill: #ff8c8e"/>
   </g>
   <g id="patch_76">
    <path d="M 155.359476 127.54411 
C 155.262426 128.52948 155.117055 129.50949 154.923889 130.480602 
C 154.730722 131.451715 154.489994 132.412757 154.202572 133.36026 
L 155.206836 133.6649 
C 155.504229 132.684527 155.753309 131.690143 155.953177 130.685341 
C 156.153045 129.680538 156.303459 128.666529 156.403876 127.646974 
z
" clip-path="url(#p30b3875da6)" style="fill: #ff8c8e"/>
   </g>
   <g id="patch_77">
    <path d="M 127.818498 125.356738 
C 127.793043 125.440651 127.763484 125.523263 127.729927 125.604276 
C 127.696371 125.685289 127.658857 125.764606 127.617521 125.84194 
L 127.617521 125.84194 
C 127.658857 125.764606 127.696371 125.685289 127.729927 125.604276 
C 127.763484 125.523263 127.793043 125.440651 127.818498 125.356738 
z
" clip-path="url(#p30b3875da6)" style="fill: #ff8c8e"/>
   </g>
   <g id="patch_78">
    <path d="M 125.254844 124.579063 
C 125.254844 124.579063 125.254844 124.579063 125.254844 124.579063 
C 125.254844 124.579063 125.254844 124.579063 125.254844 124.579063 
L 125.254844 124.579063 
C 125.254844 124.579063 125.254844 124.579063 125.254844 124.579063 
C 125.254844 124.579063 125.254844 124.579063 125.254844 124.579063 
z
" clip-path="url(#p30b3875da6)" style="fill: #ff8c8e"/>
   </g>
   <g id="patch_79">
    <path d="M 126.719194 125.780824 
C 126.679858 125.828754 126.638193 125.874724 126.594349 125.918568 
C 126.550505 125.962412 126.504535 126.004077 126.456605 126.043413 
L 126.456605 126.043413 
C 126.504535 126.004077 126.550505 125.962412 126.594349 125.918568 
C 126.638193 125.874724 126.679858 125.828754 126.719194 125.780824 
z
" clip-path="url(#p30b3875da6)" style="fill: #ff8c8e"/>
   </g>
   <g id="patch_80">
    <path d="M 125.254844 124.579063 
C 125.254844 124.579063 125.254844 124.579063 125.254844 124.579063 
C 125.254844 124.579063 125.254844 124.579063 125.254844 124.579063 
L 125.254844 124.579063 
C 125.254844 124.579063 125.254844 124.579063 125.254844 124.579063 
C 125.254844 124.579063 125.254844 124.579063 125.254844 124.579063 
z
" clip-path="url(#p30b3875da6)" style="fill: #ff8c8e"/>
   </g>
   <g id="patch_81">
    <path d="M 125.254844 124.579063 
C 125.254844 124.579063 125.254844 124.579063 125.254844 124.579063 
C 125.254844 124.579063 125.254844 124.579063 125.254844 124.579063 
L 128.554243 135.455725 
C 128.910253 135.34773 129.260745 135.222322 129.604455 135.079953 
C 129.948165 134.937584 130.284678 134.778425 130.612778 134.603052 
z
" clip-path="url(#p30b3875da6)" style="fill: #ff8c8e"/>
   </g>
   <g id="patch_82">
    <path d="M 125.254844 124.579063 
C 125.254844 124.579063 125.254844 124.579063 125.254844 124.579063 
C 125.254844 124.579063 125.254844 124.579063 125.254844 124.579063 
L 125.576448 127.844368 
C 125.683327 127.833842 125.789624 127.818074 125.894956 127.797122 
C 126.000288 127.77617 126.104527 127.75006 126.207298 127.718885 
z
" clip-path="url(#p30b3875da6)" style="fill: #ff8c8e"/>
   </g>
   <g id="patch_83">
    <path d="M 125.254844 124.579063 
C 125.254844 124.579063 125.254844 124.579063 125.254844 124.579063 
C 125.254844 124.579063 125.254844 124.579063 125.254844 124.579063 
L 125.254844 124.579063 
C 125.254844 124.579063 125.254844 124.579063 125.254844 124.579063 
C 125.254844 124.579063 125.254844 124.579063 125.254844 124.579063 
z
" clip-path="url(#p30b3875da6)" style="fill: #ff8c8e"/>
   </g>
   <g id="patch_84">
    <path d="M 125.254844 124.579063 
C 125.254844 124.579063 125.254844 124.579063 125.254844 124.579063 
C 125.254844 124.579063 125.254844 124.579063 125.254844 124.579063 
L 125.254844 124.579063 
C 125.254844 124.579063 125.254844 124.579063 125.254844 124.579063 
C 125.254844 124.579063 125.254844 124.579063 125.254844 124.579063 
z
" clip-path="url(#p30b3875da6)" style="fill: #ff8c8e"/>
   </g>
   <g id="patch_85">
    <path d="M 125.254844 124.579063 
C 125.254844 124.579063 125.254844 124.579063 125.254844 124.579063 
C 125.254844 124.579063 125.254844 124.579063 125.254844 124.579063 
L 106.910493 158.898928 
C 108.033834 159.499366 109.185977 160.044289 110.362762 160.531729 
C 111.539546 161.019169 112.739553 161.448539 113.958449 161.818287 
z
" clip-path="url(#p30b3875da6)" style="fill: #ff8c8e"/>
   </g>
   <g id="patch_86">
    <path d="M 120.047868 134.320629 
C 119.729012 134.150197 119.418716 133.964213 119.1181 133.763348 
C 118.817485 133.562483 118.526913 133.34698 118.247433 133.117617 
L 100.802624 154.374178 
C 101.777863 155.174536 102.791809 155.926529 103.840801 156.627443 
C 104.889792 157.328357 105.972564 157.977345 107.085206 158.572064 
z
" clip-path="url(#p30b3875da6)" style="fill: #ff8c8e"/>
   </g>
   <g id="patch_87">
    <path d="M 116.42374 135.339794 
C 116.071525 135.050739 115.733714 134.744565 115.411528 134.422378 
C 115.089341 134.100192 114.783168 133.762381 114.494113 133.410166 
L 98.93725 146.177353 
C 99.644195 147.038767 100.393006 147.864953 101.180979 148.652927 
C 101.968953 149.4409 102.795139 150.189712 103.656553 150.896656 
z
" clip-path="url(#p30b3875da6)" style="fill: #ff8c8e"/>
   </g>
   <g id="patch_88">
    <path d="M 111.518023 135.85258 
C 111.149024 135.402954 110.802322 134.935481 110.479171 134.451851 
C 110.15602 133.968221 109.856809 133.469017 109.582618 132.956042 
L 100.531261 137.794093 
C 100.963808 138.603333 101.435827 139.390848 101.945611 140.153794 
C 102.455395 140.91674 103.002331 141.654197 103.584442 142.363502 
z
" clip-path="url(#p30b3875da6)" style="fill: #ff8c8e"/>
   </g>
   <g id="patch_89">
    <path d="M 104.657504 135.58857 
C 104.297146 134.914388 103.970106 134.222921 103.677565 133.516664 
C 103.385024 132.810407 103.127335 132.090214 102.905427 131.358684 
L 95.084221 133.731221 
C 95.383785 134.71875 95.731653 135.690977 96.126569 136.644389 
C 96.521485 137.597801 96.962973 138.531249 97.449438 139.441361 
z
" clip-path="url(#p30b3875da6)" style="fill: #ff8c8e"/>
   </g>
   <g id="patch_90">
    <path d="M 92.524303 134.507764 
C 92.199321 133.436444 91.927135 132.349815 91.708726 131.2518 
C 91.490318 130.153786 91.32595 129.04571 91.216217 127.931575 
L 88.02463 128.245919 
C 88.144651 129.464519 88.324431 130.676492 88.563318 131.877461 
C 88.802206 133.078429 89.099913 134.266945 89.455366 135.438715 
z
" clip-path="url(#p30b3875da6)" style="fill: #ff8c8e"/>
   </g>
   <g id="patch_91">
    <path d="M 89.336478 128.116713 
C 89.220686 126.941051 89.162685 125.760413 89.162685 124.579062 
C 89.162685 123.397712 89.220686 122.217074 89.336478 121.041412 
L 83.694284 120.485705 
C 83.560303 121.846044 83.49319 123.212141 83.49319 124.579062 
C 83.49319 125.945984 83.560303 127.312081 83.694284 128.67242 
z
" clip-path="url(#p30b3875da6)" style="fill: #ff8c8e"/>
   </g>
   <g id="patch_92">
    <path d="M 80.245709 120.14605 
C 80.390808 118.672833 80.608151 117.207629 80.896952 115.755729 
C 81.185752 114.303829 81.545664 112.866983 81.975385 111.450382 
L 77.913936 110.218355 
C 77.443889 111.767894 77.050203 113.339576 76.7343 114.927726 
C 76.418397 116.515876 76.180659 118.118579 76.021943 119.730045 
z
" clip-path="url(#p30b3875da6)" style="fill: #ff8c8e"/>
   </g>
   <g id="patch_93">
    <path d="M 90.244304 113.958731 
C 90.591923 112.812784 90.995596 111.684595 91.453864 110.578238 
C 91.912132 109.471882 92.424442 108.388692 92.988946 107.332581 
L 83.221765 102.111914 
C 82.486382 103.487719 81.81899 104.898801 81.222 106.340062 
C 80.62501 107.781322 80.099142 109.251025 79.646296 110.743861 
z
" clip-path="url(#p30b3875da6)" style="fill: #ff8c8e"/>
   </g>
   <g id="patch_94">
    <path d="M 86.975102 104.118114 
C 87.644819 102.865161 88.37565 101.645844 89.164953 100.464568 
C 89.954256 99.283292 90.801081 98.141481 91.702369 97.043258 
L 78.327051 86.066419 
C 77.066475 87.602435 75.882073 89.199417 74.778122 90.851595 
C 73.674172 92.503774 72.652004 94.209158 71.715312 95.961586 
z
" clip-path="url(#p30b3875da6)" style="fill: #ff8c8e"/>
   </g>
   <g id="patch_95">
    <path d="M 87.720608 93.775511 
C 88.728854 92.54696 89.796811 91.368651 90.920622 90.24484 
C 92.044432 89.12103 93.222741 88.053073 94.451293 87.044827 
L 83.903088 74.191802 
C 82.253837 75.545307 80.672034 76.978969 79.163392 78.487611 
C 77.65475 79.996253 76.221088 81.578056 74.867583 83.227306 
z
" clip-path="url(#p30b3875da6)" style="fill: #ff8c8e"/>
   </g>
   <g id="patch_96">
    <path d="M 96.188123 89.16116 
C 97.347403 88.209763 98.552697 87.315857 99.799648 86.48267 
C 101.0466 85.649484 102.333708 84.878021 103.656321 84.171069 
L 89.201968 57.128877 
C 86.994223 58.308941 84.845746 59.596689 82.764298 60.987468 
C 80.682851 62.378247 78.670941 63.870381 76.735836 65.45848 
z
" clip-path="url(#p30b3875da6)" style="fill: #ff8c8e"/>
   </g>
   <g id="patch_97">
    <path d="M 88.620521 56.041065 
C 90.863872 54.841969 93.164743 53.753738 95.514824 52.780303 
C 97.864904 51.806868 100.261361 50.949401 102.695539 50.211002 
L 98.785287 37.320628 
C 95.929188 38.187016 93.117348 39.193109 90.359923 40.335272 
C 87.602498 41.477435 84.902812 42.754291 82.270616 44.161229 
z
" clip-path="url(#p30b3875da6)" style="fill: #ff8c8e"/>
   </g>
   <g id="patch_98">
    <path d="M 100.332788 42.422056 
C 103.02191 41.60632 105.749461 40.923104 108.50559 40.374876 
C 111.261718 39.826647 114.043102 39.414068 116.839695 39.138628 
L 115.954224 30.148286 
C 112.863364 30.452709 109.789313 30.908701 106.743174 31.514616 
C 103.697036 32.120531 100.682483 32.875637 97.710402 33.777208 
z
" clip-path="url(#p30b3875da6)" style="fill: #ff8c8e"/>
   </g>
   <g id="patch_99">
    <path d="M 116.453214 35.214616 
C 119.378246 34.926526 122.315659 34.78222 125.254844 34.78222 
C 128.194028 34.78222 131.131442 34.926526 134.056473 35.214616 
L 134.377687 31.953285 
C 131.345907 31.654681 128.301293 31.505108 125.254844 31.505108 
C 122.208394 31.505108 119.163781 31.654681 116.132001 31.953285 
z
" clip-path="url(#p30b3875da6)" style="fill: #828282"/>
   </g>
   <g id="patch_100">
    <path d="M 136.122984 14.232981 
C 139.734776 14.588712 143.326926 15.121557 146.886458 15.829592 
C 150.445991 16.537627 153.968616 17.419998 157.441608 18.473519 
L 157.441608 18.473519 
C 153.968616 17.419998 150.445991 16.537627 146.886458 15.829592 
C 143.326926 15.121557 139.734776 14.588712 136.122984 14.232981 
z
" clip-path="url(#p30b3875da6)" style="fill: #828282"/>
   </g>
   <g id="patch_101">
    <path d="M 151.712974 37.358296 
C 154.56784 38.22431 157.378466 39.229968 160.134701 40.371638 
C 162.890936 41.513308 165.589456 42.789613 168.220516 44.195944 
L 168.220516 44.195944 
C 165.589456 42.789613 162.890936 41.513308 160.134701 40.371638 
C 157.378466 39.229968 154.56784 38.22431 151.712974 37.358296 
z
" clip-path="url(#p30b3875da6)" style="fill: #828282"/>
   </g>
   <g id="patch_102">
    <path d="M 154.328459 70.186154 
C 156.10882 71.137777 157.841386 72.176237 159.519899 73.297783 
C 161.198412 74.41933 162.820848 75.622611 164.381348 76.90328 
L 167.539074 73.055579 
C 165.852634 71.671553 164.099258 70.37116 162.28528 69.159099 
C 160.471301 67.947037 158.598908 66.824768 156.674862 65.796344 
z
" clip-path="url(#p30b3875da6)" style="fill: #828282"/>
   </g>
   <g id="patch_103">
    <path d="M 155.633498 87.562565 
C 156.845103 88.556904 158.007159 89.610129 159.115468 90.718438 
C 160.223777 91.826747 161.277003 92.988803 162.271341 94.200408 
L 170.436627 87.499331 
C 169.222952 86.020464 167.9374 84.602076 166.584615 83.249291 
C 165.23183 81.896506 163.813442 80.610954 162.334575 79.397279 
z
" clip-path="url(#p30b3875da6)" style="fill: #828282"/>
   </g>
   <g id="patch_104">
    <path d="M 163.158605 93.47225 
C 164.176777 94.712897 165.133423 96.002785 166.025088 97.337256 
C 166.916753 98.671727 167.742362 100.049172 168.498932 101.464616 
L 181.86056 94.322677 
C 180.870223 92.469887 179.789517 90.666837 178.622344 88.920039 
C 177.455171 87.173241 176.202938 85.484801 174.870169 83.860817 
z
" clip-path="url(#p30b3875da6)" style="fill: #828282"/>
   </g>
   <g id="patch_105">
    <path d="M 158.332322 106.898782 
C 158.911023 107.981458 159.43622 109.091893 159.906015 110.226077 
C 160.37581 111.360262 160.789636 112.516829 161.145999 113.6916 
L 161.145999 113.6916 
C 160.789636 112.516829 160.37581 111.360262 159.906015 110.226077 
C 159.43622 109.091893 158.911023 107.981458 158.332322 106.898782 
z
" clip-path="url(#p30b3875da6)" style="fill: #828282"/>
   </g>
   <g id="patch_106">
    <path d="M 158.483596 114.499231 
C 158.813524 115.586857 159.089854 116.690027 159.311587 117.804755 
C 159.53332 118.919483 159.70019 120.044426 159.811593 121.17552 
L 160.372699 121.120256 
C 160.259487 119.970796 160.089908 118.827587 159.864574 117.694759 
C 159.639241 116.561931 159.358424 115.440849 159.023139 114.335562 
z
" clip-path="url(#p30b3875da6)" style="fill: #828282"/>
   </g>
   <g id="patch_107">
    <path d="M 151.782314 121.966335 
C 151.867833 122.834618 151.91067 123.706578 151.91067 124.579063 
C 151.91067 125.451547 151.867833 126.323507 151.782314 127.19179 
L 151.782314 127.19179 
C 151.867833 126.323507 151.91067 125.451547 151.91067 124.579063 
C 151.91067 123.706578 151.867833 122.834618 151.782314 121.966335 
z
" clip-path="url(#p30b3875da6)" style="fill: #828282"/>
   </g>
   <g id="patch_108">
    <path d="M 156.403876 127.646974 
C 156.303459 128.666529 156.153045 129.680538 155.953177 130.685341 
C 155.753309 131.690143 155.504229 132.684527 155.206836 133.6649 
L 155.206836 133.6649 
C 155.504229 132.684527 155.753309 131.690143 155.953177 130.685341 
C 156.153045 129.680538 156.303459 128.666529 156.403876 127.646974 
z
" clip-path="url(#p30b3875da6)" style="fill: #828282"/>
   </g>
   <g id="patch_109">
    <path d="M 127.818498 125.356738 
C 127.793043 125.440651 127.763484 125.523263 127.729927 125.604276 
C 127.696371 125.685289 127.658857 125.764606 127.617521 125.84194 
L 127.617521 125.84194 
C 127.658857 125.764606 127.696371 125.685289 127.729927 125.604276 
C 127.763484 125.523263 127.793043 125.440651 127.818498 125.356738 
z
" clip-path="url(#p30b3875da6)" style="fill: #828282"/>
   </g>
   <g id="patch_110">
    <path d="M 125.254844 124.579063 
C 125.254844 124.579063 125.254844 124.579063 125.254844 124.579063 
C 125.254844 124.579063 125.254844 124.579063 125.254844 124.579063 
L 125.254844 124.579063 
C 125.254844 124.579063 125.254844 124.579063 125.254844 124.579063 
C 125.254844 124.579063 125.254844 124.579063 125.254844 124.579063 
z
" clip-path="url(#p30b3875da6)" style="fill: #828282"/>
   </g>
   <g id="patch_111">
    <path d="M 126.719194 125.780824 
C 126.679858 125.828754 126.638193 125.874724 126.594349 125.918568 
C 126.550505 125.962412 126.504535 126.004077 126.456605 126.043413 
L 126.456605 126.043413 
C 126.504535 126.004077 126.550505 125.962412 126.594349 125.918568 
C 126.638193 125.874724 126.679858 125.828754 126.719194 125.780824 
z
" clip-path="url(#p30b3875da6)" style="fill: #828282"/>
   </g>
   <g id="patch_112">
    <path d="M 125.254844 124.579063 
C 125.254844 124.579063 125.254844 124.579063 125.254844 124.579063 
C 125.254844 124.579063 125.254844 124.579063 125.254844 124.579063 
L 125.254844 124.579063 
C 125.254844 124.579063 125.254844 124.579063 125.254844 124.579063 
C 125.254844 124.579063 125.254844 124.579063 125.254844 124.579063 
z
" clip-path="url(#p30b3875da6)" style="fill: #828282"/>
   </g>
   <g id="patch_113">
    <path d="M 130.612778 134.603052 
C 130.284678 134.778425 129.948165 134.937584 129.604455 135.079953 
C 129.260745 135.222322 128.910253 135.34773 128.554243 135.455725 
L 128.554243 135.455725 
C 128.910253 135.34773 129.260745 135.222322 129.604455 135.079953 
C 129.948165 134.937584 130.284678 134.778425 130.612778 134.603052 
z
" clip-path="url(#p30b3875da6)" style="fill: #828282"/>
   </g>
   <g id="patch_114">
    <path d="M 126.207298 127.718885 
C 126.104527 127.75006 126.000288 127.77617 125.894956 127.797122 
C 125.789624 127.818074 125.683327 127.833842 125.576448 127.844368 
L 125.576448 127.844368 
C 125.683327 127.833842 125.789624 127.818074 125.894956 127.797122 
C 126.000288 127.77617 126.104527 127.75006 126.207298 127.718885 
z
" clip-path="url(#p30b3875da6)" style="fill: #828282"/>
   </g>
   <g id="patch_115">
    <path d="M 125.254844 124.579063 
C 125.254844 124.579063 125.254844 124.579063 125.254844 124.579063 
C 125.254844 124.579063 125.254844 124.579063 125.254844 124.579063 
L 125.254844 124.579063 
C 125.254844 124.579063 125.254844 124.579063 125.254844 124.579063 
C 125.254844 124.579063 125.254844 124.579063 125.254844 124.579063 
z
" clip-path="url(#p30b3875da6)" style="fill: #828282"/>
   </g>
   <g id="patch_116">
    <path d="M 125.254844 124.579063 
C 125.254844 124.579063 125.254844 124.579063 125.254844 124.579063 
C 125.254844 124.579063 125.254844 124.579063 125.254844 124.579063 
L 125.254844 124.579063 
C 125.254844 124.579063 125.254844 124.579063 125.254844 124.579063 
C 125.254844 124.579063 125.254844 124.579063 125.254844 124.579063 
z
" clip-path="url(#p30b3875da6)" style="fill: #828282"/>
   </g>
   <g id="patch_117">
    <path d="M 113.958449 161.818287 
C 112.739553 161.448539 111.539546 161.019169 110.362762 160.531729 
C 109.185977 160.044289 108.033834 159.499366 106.910493 158.898928 
L 106.910493 158.898928 
C 108.033834 159.499366 109.185977 160.044289 110.362762 160.531729 
C 111.539546 161.019169 112.739553 161.448539 113.958449 161.818287 
z
" clip-path="url(#p30b3875da6)" style="fill: #828282"/>
   </g>
   <g id="patch_118">
    <path d="M 107.085206 158.572064 
C 105.972564 157.977345 104.889792 157.328357 103.840801 156.627443 
C 102.791809 155.926529 101.777863 155.174536 100.802624 154.374178 
L 100.802624 154.374178 
C 101.777863 155.174536 102.791809 155.926529 103.840801 156.627443 
C 104.889792 157.328357 105.972564 157.977345 107.085206 158.572064 
z
" clip-path="url(#p30b3875da6)" style="fill: #828282"/>
   </g>
   <g id="patch_119">
    <path d="M 103.656553 150.896656 
C 102.795139 150.189712 101.968953 149.4409 101.180979 148.652927 
C 100.393006 147.864953 99.644195 147.038767 98.93725 146.177353 
L 98.93725 146.177353 
C 99.644195 147.038767 100.393006 147.864953 101.180979 148.652927 
C 101.968953 149.4409 102.795139 150.189712 103.656553 150.896656 
z
" clip-path="url(#p30b3875da6)" style="fill: #828282"/>
   </g>
   <g id="patch_120">
    <path d="M 103.584442 142.363502 
C 103.002331 141.654197 102.455395 140.91674 101.945611 140.153794 
C 101.435827 139.390848 100.963808 138.603333 100.531261 137.794093 
L 100.531261 137.794093 
C 100.963808 138.603333 101.435827 139.390848 101.945611 140.153794 
C 102.455395 140.91674 103.002331 141.654197 103.584442 142.363502 
z
" clip-path="url(#p30b3875da6)" style="fill: #828282"/>
   </g>
   <g id="patch_121">
    <path d="M 97.449438 139.441361 
C 96.962973 138.531249 96.521485 137.597801 96.126569 136.644389 
C 95.731653 135.690977 95.383785 134.71875 95.084221 133.731221 
L 95.084221 133.731221 
C 95.383785 134.71875 95.731653 135.690977 96.126569 136.644389 
C 96.521485 137.597801 96.962973 138.531249 97.449438 139.441361 
z
" clip-path="url(#p30b3875da6)" style="fill: #828282"/>
   </g>
   <g id="patch_122">
    <path d="M 89.455366 135.438715 
C 89.099913 134.266945 88.802206 133.078429 88.563318 131.877461 
C 88.324431 130.676492 88.144651 129.464519 88.02463 128.245919 
L 88.02463 128.245919 
C 88.144651 129.464519 88.324431 130.676492 88.563318 131.877461 
C 88.802206 133.078429 89.099913 134.266945 89.455366 135.438715 
z
" clip-path="url(#p30b3875da6)" style="fill: #828282"/>
   </g>
   <g id="patch_123">
    <path d="M 83.694284 128.67242 
C 83.560303 127.312081 83.49319 125.945984 83.49319 124.579062 
C 83.49319 123.212141 83.560303 121.846044 83.694284 120.485705 
L 83.694284 120.485705 
C 83.560303 121.846044 83.49319 123.212141 83.49319 124.579062 
C 83.49319 125.945984 83.560303 127.312081 83.694284 128.67242 
z
" clip-path="url(#p30b3875da6)" style="fill: #828282"/>
   </g>
   <g id="patch_124">
    <path d="M 76.021943 119.730045 
C 76.180659 118.118579 76.418397 116.515876 76.7343 114.927726 
C 77.050203 113.339576 77.443889 111.767894 77.913936 110.218355 
L 77.913936 110.218355 
C 77.443889 111.767894 77.050203 113.339576 76.7343 114.927726 
C 76.418397 116.515876 76.180659 118.118579 76.021943 119.730045 
z
" clip-path="url(#p30b3875da6)" style="fill: #828282"/>
   </g>
   <g id="patch_125">
    <path d="M 79.646296 110.743861 
C 80.099142 109.251025 80.62501 107.781322 81.222 106.340062 
C 81.81899 104.898801 82.486382 103.487719 83.221765 102.111914 
L 83.221765 102.111914 
C 82.486382 103.487719 81.81899 104.898801 81.222 106.340062 
C 80.62501 107.781322 80.099142 109.251025 79.646296 110.743861 
z
" clip-path="url(#p30b3875da6)" style="fill: #828282"/>
   </g>
   <g id="patch_126">
    <path d="M 71.715312 95.961586 
C 72.652004 94.209158 73.674172 92.503774 74.778122 90.851595 
C 75.882073 89.199417 77.066475 87.602435 78.327051 86.066419 
L 78.327051 86.066419 
C 77.066475 87.602435 75.882073 89.199417 74.778122 90.851595 
C 73.674172 92.503774 72.652004 94.209158 71.715312 95.961586 
z
" clip-path="url(#p30b3875da6)" style="fill: #828282"/>
   </g>
   <g id="patch_127">
    <path d="M 74.867583 83.227306 
C 76.221088 81.578056 77.65475 79.996253 79.163392 78.487611 
C 80.672034 76.978969 82.253837 75.545307 83.903088 74.191802 
L 83.903088 74.191802 
C 82.253837 75.545307 80.672034 76.978969 79.163392 78.487611 
C 77.65475 79.996253 76.221088 81.578056 74.867583 83.227306 
z
" clip-path="url(#p30b3875da6)" style="fill: #828282"/>
   </g>
   <g id="patch_128">
    <path d="M 76.735836 65.45848 
C 78.670941 63.870381 80.682851 62.378247 82.764298 60.987468 
C 84.845746 59.596689 86.994223 58.308941 89.201968 57.128877 
L 89.201968 57.128877 
C 86.994223 58.308941 84.845746 59.596689 82.764298 60.987468 
C 80.682851 62.378247 78.670941 63.870381 76.735836 65.45848 
z
" clip-path="url(#p30b3875da6)" style="fill: #828282"/>
   </g>
   <g id="patch_129">
    <path d="M 82.270616 44.161229 
C 84.902812 42.754291 87.602498 41.477435 90.359923 40.335272 
C 93.117348 39.193109 95.929188 38.187016 98.785287 37.320628 
L 95.015348 24.892806 
C 91.752468 25.882589 88.54015 27.031975 85.389998 28.336811 
C 82.239845 29.641647 79.155655 31.10036 76.148568 32.707682 
z
" clip-path="url(#p30b3875da6)" style="fill: #828282"/>
   </g>
   <g id="patch_130">
    <path d="M 97.710402 33.777208 
C 100.682483 32.875637 103.697036 32.120531 106.743174 31.514616 
C 109.789313 30.908701 112.863364 30.452709 115.954224 30.148286 
L 115.105175 21.52775 
C 111.732152 21.859963 108.377472 22.357583 105.053254 23.018811 
C 101.729035 23.680039 98.439284 24.504079 95.195885 25.487954 
z
" clip-path="url(#p30b3875da6)" style="fill: #828282"/>
   </g>
   <g id="patch_131">
    <path d="M 125.254844 124.579063 
C 125.254844 124.579063 125.254844 124.579063 125.254844 124.579063 
C 125.254844 124.579063 125.254844 124.579063 125.254844 124.579063 
L 134.377687 31.953285 
C 131.345907 31.654681 128.301293 31.505108 125.254844 31.505108 
C 122.208394 31.505108 119.163781 31.654681 116.132001 31.953285 
L 125.254844 124.579063 
z
" clip-path="url(#p30b3875da6)" style="fill: none; stroke: #292929; stroke-width: 0.5; stroke-linejoin: miter"/>
   </g>
   <g id="patch_132">
    <path d="M 125.254844 124.579063 
C 125.254844 124.579063 125.254844 124.579063 125.254844 124.579063 
C 125.254844 124.579063 125.254844 124.579063 125.254844 124.579063 
L 157.441608 18.473519 
C 153.968616 17.419998 150.445991 16.537627 146.886458 15.829592 
C 143.326926 15.121557 139.734776 14.588712 136.122984 14.232981 
L 125.254844 124.579063 
z
" clip-path="url(#p30b3875da6)" style="fill: none; stroke: #292929; stroke-width: 0.5; stroke-linejoin: miter"/>
   </g>
   <g id="patch_133">
    <path d="M 125.254844 124.579063 
C 125.254844 124.579063 125.254844 124.579063 125.254844 124.579063 
C 125.254844 124.579063 125.254844 124.579063 125.254844 124.579063 
L 168.220516 44.195944 
C 165.589456 42.789613 162.890936 41.513308 160.134701 40.371638 
C 157.378466 39.229968 154.56784 38.22431 151.712974 37.358296 
L 125.254844 124.579063 
z
" clip-path="url(#p30b3875da6)" style="fill: none; stroke: #292929; stroke-width: 0.5; stroke-linejoin: miter"/>
   </g>
   <g id="patch_134">
    <path d="M 125.254844 124.579063 
C 125.254844 124.579063 125.254844 124.579063 125.254844 124.579063 
C 125.254844 124.579063 125.254844 124.579063 125.254844 124.579063 
L 167.539074 73.055579 
C 165.852634 71.671553 164.099258 70.37116 162.28528 69.159099 
C 160.471301 67.947037 158.598908 66.824768 156.674862 65.796344 
L 125.254844 124.579063 
z
" clip-path="url(#p30b3875da6)" style="fill: none; stroke: #292929; stroke-width: 0.5; stroke-linejoin: miter"/>
   </g>
   <g id="patch_135">
    <path d="M 125.254844 124.579063 
C 125.254844 124.579063 125.254844 124.579063 125.254844 124.579063 
C 125.254844 124.579063 125.254844 124.579063 125.254844 124.579063 
L 170.436627 87.499331 
C 169.222952 86.020464 167.9374 84.602076 166.584615 83.249291 
C 165.23183 81.896506 163.813442 80.610954 162.334575 79.397279 
L 125.254844 124.579063 
z
" clip-path="url(#p30b3875da6)" style="fill: none; stroke: #292929; stroke-width: 0.5; stroke-linejoin: miter"/>
   </g>
   <g id="patch_136">
    <path d="M 125.254844 124.579063 
C 125.254844 124.579063 125.254844 124.579063 125.254844 124.579063 
C 125.254844 124.579063 125.254844 124.579063 125.254844 124.579063 
L 181.86056 94.322677 
C 180.870223 92.469887 179.789517 90.666837 178.622344 88.920039 
C 177.455171 87.173241 176.202938 85.484801 174.870169 83.860817 
L 125.254844 124.579063 
z
" clip-path="url(#p30b3875da6)" style="fill: none; stroke: #292929; stroke-width: 0.5; stroke-linejoin: miter"/>
   </g>
   <g id="patch_137">
    <path d="M 125.254844 124.579063 
C 125.254844 124.579063 125.254844 124.579063 125.254844 124.579063 
C 125.254844 124.579063 125.254844 124.579063 125.254844 124.579063 
L 161.145999 113.6916 
C 160.789636 112.516829 160.37581 111.360262 159.906015 110.226077 
C 159.43622 109.091893 158.911023 107.981458 158.332322 106.898782 
L 125.254844 124.579063 
z
" clip-path="url(#p30b3875da6)" style="fill: none; stroke: #292929; stroke-width: 0.5; stroke-linejoin: miter"/>
   </g>
   <g id="patch_138">
    <path d="M 125.254844 124.579063 
C 125.254844 124.579063 125.254844 124.579063 125.254844 124.579063 
C 125.254844 124.579063 125.254844 124.579063 125.254844 124.579063 
L 160.372699 121.120256 
C 160.259487 119.970796 160.089908 118.827587 159.864574 117.694759 
C 159.639241 116.561931 159.358424 115.440849 159.023139 114.335562 
L 125.254844 124.579063 
z
" clip-path="url(#p30b3875da6)" style="fill: none; stroke: #292929; stroke-width: 0.5; stroke-linejoin: miter"/>
   </g>
   <g id="patch_139">
    <path d="M 125.254844 124.579063 
C 125.254844 124.579063 125.254844 124.579063 125.254844 124.579063 
C 125.254844 124.579063 125.254844 124.579063 125.254844 124.579063 
L 151.782314 127.19179 
C 151.867833 126.323507 151.91067 125.451547 151.91067 124.579063 
C 151.91067 123.706578 151.867833 122.834618 151.782314 121.966335 
L 125.254844 124.579063 
z
" clip-path="url(#p30b3875da6)" style="fill: none; stroke: #292929; stroke-width: 0.5; stroke-linejoin: miter"/>
   </g>
   <g id="patch_140">
    <path d="M 125.254844 124.579063 
C 125.254844 124.579063 125.254844 124.579063 125.254844 124.579063 
C 125.254844 124.579063 125.254844 124.579063 125.254844 124.579063 
L 155.206836 133.6649 
C 155.504229 132.684527 155.753309 131.690143 155.953177 130.685341 
C 156.153045 129.680538 156.303459 128.666529 156.403876 127.646974 
L 125.254844 124.579063 
z
" clip-path="url(#p30b3875da6)" style="fill: none; stroke: #292929; stroke-width: 0.5; stroke-linejoin: miter"/>
   </g>
   <g id="patch_141">
    <path d="M 125.254844 124.579063 
C 125.254844 124.579063 125.254844 124.579063 125.254844 124.579063 
C 125.254844 124.579063 125.254844 124.579063 125.254844 124.579063 
L 127.617521 125.84194 
C 127.658857 125.764606 127.696371 125.685289 127.729927 125.604276 
C 127.763484 125.523263 127.793043 125.440651 127.818498 125.356738 
L 125.254844 124.579063 
z
" clip-path="url(#p30b3875da6)" style="fill: none; stroke: #292929; stroke-width: 0.5; stroke-linejoin: miter"/>
   </g>
   <g id="patch_142">
    <path d="M 125.254844 124.579063 
C 125.254844 124.579063 125.254844 124.579063 125.254844 124.579063 
C 125.254844 124.579063 125.254844 124.579063 125.254844 124.579063 
L 125.254844 124.579063 
C 125.254844 124.579063 125.254844 124.579063 125.254844 124.579063 
C 125.254844 124.579063 125.254844 124.579063 125.254844 124.579063 
L 125.254844 124.579063 
z
" clip-path="url(#p30b3875da6)" style="fill: none; stroke: #292929; stroke-width: 0.5; stroke-linejoin: miter"/>
   </g>
   <g id="patch_143">
    <path d="M 125.254844 124.579063 
C 125.254844 124.579063 125.254844 124.579063 125.254844 124.579063 
C 125.254844 124.579063 125.254844 124.579063 125.254844 124.579063 
L 126.456605 126.043413 
C 126.504535 126.004077 126.550505 125.962412 126.594349 125.918568 
C 126.638193 125.874724 126.679858 125.828754 126.719194 125.780824 
L 125.254844 124.579063 
z
" clip-path="url(#p30b3875da6)" style="fill: none; stroke: #292929; stroke-width: 0.5; stroke-linejoin: miter"/>
   </g>
   <g id="patch_144">
    <path d="M 125.254844 124.579063 
C 125.254844 124.579063 125.254844 124.579063 125.254844 124.579063 
C 125.254844 124.579063 125.254844 124.579063 125.254844 124.579063 
L 125.254844 124.579063 
C 125.254844 124.579063 125.254844 124.579063 125.254844 124.579063 
C 125.254844 124.579063 125.254844 124.579063 125.254844 124.579063 
L 125.254844 124.579063 
z
" clip-path="url(#p30b3875da6)" style="fill: none; stroke: #292929; stroke-width: 0.5; stroke-linejoin: miter"/>
   </g>
   <g id="patch_145">
    <path d="M 125.254844 124.579063 
C 125.254844 124.579063 125.254844 124.579063 125.254844 124.579063 
C 125.254844 124.579063 125.254844 124.579063 125.254844 124.579063 
L 128.554243 135.455725 
C 128.910253 135.34773 129.260745 135.222322 129.604455 135.079953 
C 129.948165 134.937584 130.284678 134.778425 130.612778 134.603052 
L 125.254844 124.579063 
z
" clip-path="url(#p30b3875da6)" style="fill: none; stroke: #292929; stroke-width: 0.5; stroke-linejoin: miter"/>
   </g>
   <g id="patch_146">
    <path d="M 125.254844 124.579063 
C 125.254844 124.579063 125.254844 124.579063 125.254844 124.579063 
C 125.254844 124.579063 125.254844 124.579063 125.254844 124.579063 
L 125.576448 127.844368 
C 125.683327 127.833842 125.789624 127.818074 125.894956 127.797122 
C 126.000288 127.77617 126.104527 127.75006 126.207298 127.718885 
L 125.254844 124.579063 
z
" clip-path="url(#p30b3875da6)" style="fill: none; stroke: #292929; stroke-width: 0.5; stroke-linejoin: miter"/>
   </g>
   <g id="patch_147">
    <path d="M 125.254844 124.579063 
C 125.254844 124.579063 125.254844 124.579063 125.254844 124.579063 
C 125.254844 124.579063 125.254844 124.579063 125.254844 124.579063 
L 125.254844 124.579063 
C 125.254844 124.579063 125.254844 124.579063 125.254844 124.579063 
C 125.254844 124.579063 125.254844 124.579063 125.254844 124.579063 
L 125.254844 124.579063 
z
" clip-path="url(#p30b3875da6)" style="fill: none; stroke: #292929; stroke-width: 0.5; stroke-linejoin: miter"/>
   </g>
   <g id="patch_148">
    <path d="M 125.254844 124.579063 
C 125.254844 124.579063 125.254844 124.579063 125.254844 124.579063 
C 125.254844 124.579063 125.254844 124.579063 125.254844 124.579063 
L 125.254844 124.579063 
C 125.254844 124.579063 125.254844 124.579063 125.254844 124.579063 
C 125.254844 124.579063 125.254844 124.579063 125.254844 124.579063 
L 125.254844 124.579063 
z
" clip-path="url(#p30b3875da6)" style="fill: none; stroke: #292929; stroke-width: 0.5; stroke-linejoin: miter"/>
   </g>
   <g id="patch_149">
    <path d="M 125.254844 124.579063 
C 125.254844 124.579063 125.254844 124.579063 125.254844 124.579063 
C 125.254844 124.579063 125.254844 124.579063 125.254844 124.579063 
L 106.910493 158.898928 
C 108.033834 159.499366 109.185977 160.044289 110.362762 160.531729 
C 111.539546 161.019169 112.739553 161.448539 113.958449 161.818287 
L 125.254844 124.579063 
z
" clip-path="url(#p30b3875da6)" style="fill: none; stroke: #292929; stroke-width: 0.5; stroke-linejoin: miter"/>
   </g>
   <g id="patch_150">
    <path d="M 125.254844 124.579063 
C 125.254844 124.579063 125.254844 124.579063 125.254844 124.579063 
C 125.254844 124.579063 125.254844 124.579063 125.254844 124.579063 
L 100.802624 154.374178 
C 101.777863 155.174536 102.791809 155.926529 103.840801 156.627443 
C 104.889792 157.328357 105.972564 157.977345 107.085206 158.572064 
L 125.254844 124.579063 
z
" clip-path="url(#p30b3875da6)" style="fill: none; stroke: #292929; stroke-width: 0.5; stroke-linejoin: miter"/>
   </g>
   <g id="patch_151">
    <path d="M 125.254844 124.579063 
C 125.254844 124.579063 125.254844 124.579063 125.254844 124.579063 
C 125.254844 124.579063 125.254844 124.579063 125.254844 124.579063 
L 98.93725 146.177353 
C 99.644195 147.038767 100.393006 147.864953 101.180979 148.652927 
C 101.968953 149.4409 102.795139 150.189712 103.656553 150.896656 
L 125.254844 124.579063 
z
" clip-path="url(#p30b3875da6)" style="fill: none; stroke: #292929; stroke-width: 0.5; stroke-linejoin: miter"/>
   </g>
   <g id="patch_152">
    <path d="M 125.254844 124.579063 
C 125.254844 124.579063 125.254844 124.579063 125.254844 124.579063 
C 125.254844 124.579063 125.254844 124.579063 125.254844 124.579063 
L 100.531261 137.794093 
C 100.963808 138.603333 101.435827 139.390848 101.945611 140.153794 
C 102.455395 140.91674 103.002331 141.654197 103.584442 142.363502 
L 125.254844 124.579063 
z
" clip-path="url(#p30b3875da6)" style="fill: none; stroke: #292929; stroke-width: 0.5; stroke-linejoin: miter"/>
   </g>
   <g id="patch_153">
    <path d="M 125.254844 124.579063 
C 125.254844 124.579063 125.254844 124.579063 125.254844 124.579063 
C 125.254844 124.579063 125.254844 124.579063 125.254844 124.579063 
L 95.084221 133.731221 
C 95.383785 134.71875 95.731653 135.690977 96.126569 136.644389 
C 96.521485 137.597801 96.962973 138.531249 97.449438 139.441361 
L 125.254844 124.579063 
z
" clip-path="url(#p30b3875da6)" style="fill: none; stroke: #292929; stroke-width: 0.5; stroke-linejoin: miter"/>
   </g>
   <g id="patch_154">
    <path d="M 125.254844 124.579063 
C 125.254844 124.579063 125.254844 124.579063 125.254844 124.579063 
C 125.254844 124.579063 125.254844 124.579063 125.254844 124.579063 
L 88.02463 128.245919 
C 88.144651 129.464519 88.324431 130.676492 88.563318 131.877461 
C 88.802206 133.078429 89.099913 134.266945 89.455366 135.438715 
L 125.254844 124.579063 
z
" clip-path="url(#p30b3875da6)" style="fill: none; stroke: #292929; stroke-width: 0.5; stroke-linejoin: miter"/>
   </g>
   <g id="patch_155">
    <path d="M 125.254844 124.579063 
C 125.254844 124.579063 125.254844 124.579063 125.254844 124.579063 
C 125.254844 124.579063 125.254844 124.579063 125.254844 124.579063 
L 83.694284 120.485705 
C 83.560303 121.846044 83.49319 123.212141 83.49319 124.579062 
C 83.49319 125.945984 83.560303 127.312081 83.694284 128.67242 
L 125.254844 124.579063 
z
" clip-path="url(#p30b3875da6)" style="fill: none; stroke: #292929; stroke-width: 0.5; stroke-linejoin: miter"/>
   </g>
   <g id="patch_156">
    <path d="M 125.254844 124.579063 
C 125.254844 124.579063 125.254844 124.579063 125.254844 124.579063 
C 125.254844 124.579063 125.254844 124.579063 125.254844 124.579063 
L 77.913936 110.218355 
C 77.443889 111.767894 77.050203 113.339576 76.7343 114.927726 
C 76.418397 116.515876 76.180659 118.118579 76.021943 119.730045 
L 125.254844 124.579063 
z
" clip-path="url(#p30b3875da6)" style="fill: none; stroke: #292929; stroke-width: 0.5; stroke-linejoin: miter"/>
   </g>
   <g id="patch_157">
    <path d="M 125.254844 124.579063 
C 125.254844 124.579063 125.254844 124.579063 125.254844 124.579063 
C 125.254844 124.579063 125.254844 124.579063 125.254844 124.579063 
L 83.221765 102.111914 
C 82.486382 103.487719 81.81899 104.898801 81.222 106.340062 
C 80.62501 107.781322 80.099142 109.251025 79.646296 110.743861 
L 125.254844 124.579063 
z
" clip-path="url(#p30b3875da6)" style="fill: none; stroke: #292929; stroke-width: 0.5; stroke-linejoin: miter"/>
   </g>
   <g id="patch_158">
    <path d="M 125.254844 124.579063 
C 125.254844 124.579063 125.254844 124.579063 125.254844 124.579063 
C 125.254844 124.579063 125.254844 124.579063 125.254844 124.579063 
L 78.327051 86.066419 
C 77.066475 87.602435 75.882073 89.199417 74.778122 90.851595 
C 73.674172 92.503774 72.652004 94.209158 71.715312 95.961586 
L 125.254844 124.579063 
z
" clip-path="url(#p30b3875da6)" style="fill: none; stroke: #292929; stroke-width: 0.5; stroke-linejoin: miter"/>
   </g>
   <g id="patch_159">
    <path d="M 125.254844 124.579063 
C 125.254844 124.579063 125.254844 124.579063 125.254844 124.579063 
C 125.254844 124.579063 125.254844 124.579063 125.254844 124.579063 
L 83.903088 74.191802 
C 82.253837 75.545307 80.672034 76.978969 79.163392 78.487611 
C 77.65475 79.996253 76.221088 81.578056 74.867583 83.227306 
L 125.254844 124.579063 
z
" clip-path="url(#p30b3875da6)" style="fill: none; stroke: #292929; stroke-width: 0.5; stroke-linejoin: miter"/>
   </g>
   <g id="patch_160">
    <path d="M 125.254844 124.579063 
C 125.254844 124.579063 125.254844 124.579063 125.254844 124.579063 
C 125.254844 124.579063 125.254844 124.579063 125.254844 124.579063 
L 89.201968 57.128877 
C 86.994223 58.308941 84.845746 59.596689 82.764298 60.987468 
C 80.682851 62.378247 78.670941 63.870381 76.735836 65.45848 
L 125.254844 124.579063 
z
" clip-path="url(#p30b3875da6)" style="fill: none; stroke: #292929; stroke-width: 0.5; stroke-linejoin: miter"/>
   </g>
   <g id="patch_161">
    <path d="M 125.254844 124.579063 
C 125.254844 124.579063 125.254844 124.579063 125.254844 124.579063 
C 125.254844 124.579063 125.254844 124.579063 125.254844 124.579063 
L 95.015348 24.892806 
C 91.752468 25.882589 88.54015 27.031975 85.389998 28.336811 
C 82.239845 29.641647 79.155655 31.10036 76.148568 32.707682 
L 125.254844 124.579063 
z
" clip-path="url(#p30b3875da6)" style="fill: none; stroke: #292929; stroke-width: 0.5; stroke-linejoin: miter"/>
   </g>
   <g id="patch_162">
    <path d="M 125.254844 124.579063 
C 125.254844 124.579063 125.254844 124.579063 125.254844 124.579063 
C 125.254844 124.579063 125.254844 124.579063 125.254844 124.579063 
L 115.105175 21.52775 
C 111.732152 21.859963 108.377472 22.357583 105.053254 23.018811 
C 101.729035 23.680039 98.439284 24.504079 95.195885 25.487954 
L 125.254844 124.579063 
z
" clip-path="url(#p30b3875da6)" style="fill: none; stroke: #292929; stroke-width: 0.5; stroke-linejoin: miter"/>
   </g>
   <g id="PathCollection_1">
    <defs>
     <path id="m75b3f7f4cc" d="M 0.193618 7.414054 
L 0.193618 7.414054 
C 0.054922 7.414054 -0.078235 7.358899 -0.176308 7.260826 
C -0.274381 7.162753 -0.329536 7.029596 -0.329536 6.890901 
L -0.329536 5.365008 
L -1.528416 6.56393 
L -1.528416 6.56393 
C -1.577018 6.612704 -1.634775 6.651408 -1.698366 6.677814 
C -1.761958 6.704221 -1.830141 6.717815 -1.898997 6.717815 
C -1.967853 6.717815 -2.036037 6.704221 -2.099628 6.677814 
C -2.163219 6.651408 -2.220976 6.612704 -2.269578 6.56393 
L -2.269578 6.56393 
C -2.318353 6.515327 -2.357056 6.457571 -2.383463 6.393979 
C -2.409869 6.330388 -2.423463 6.262205 -2.423463 6.193348 
C -2.423463 6.124492 -2.409869 6.056309 -2.383463 5.992718 
C -2.357056 5.929126 -2.318353 5.87137 -2.269578 5.822767 
L -0.329536 3.884106 
L -0.329536 0.820937 
L -2.98067 2.351538 
L -3.691824 5.001416 
L -3.691824 5.001416 
C -3.727584 5.135411 -3.815199 5.249836 -3.93523 5.319305 
C -4.055261 5.388775 -4.198123 5.407741 -4.332122 5.371997 
L -4.332122 5.371997 
C -4.466126 5.336237 -4.580558 5.248616 -4.650029 5.128576 
C -4.719499 5.008535 -4.73846 4.865662 -4.702703 4.731657 
L -4.262647 3.092721 
L -5.585535 3.855668 
L -5.585535 3.855668 
C -5.645013 3.890144 -5.710708 3.912561 -5.778854 3.921634 
C -5.847001 3.930706 -5.916272 3.926258 -5.982698 3.908543 
C -6.049125 3.890828 -6.111412 3.860192 -6.165991 3.818391 
C -6.220571 3.77659 -6.266379 3.724437 -6.300791 3.664922 
L -6.300791 3.664922 
C -6.335212 3.605364 -6.35755 3.539597 -6.366524 3.471396 
C -6.375498 3.403194 -6.370933 3.333888 -6.35309 3.267452 
C -6.335248 3.201017 -6.304476 3.138749 -6.26254 3.08422 
C -6.220605 3.029692 -6.168323 2.983966 -6.108695 2.949666 
L -4.785807 2.186762 
L -6.424743 1.746706 
L -6.424743 1.746706 
C -6.558747 1.710946 -6.673179 1.623325 -6.74265 1.503284 
C -6.81212 1.383244 -6.831081 1.240371 -6.795324 1.106366 
L -6.795324 1.106366 
C -6.777471 1.039969 -6.746703 0.977739 -6.704784 0.923241 
C -6.662864 0.868744 -6.61061 0.823041 -6.551015 0.788752 
C -6.491421 0.754464 -6.425647 0.732257 -6.357465 0.723406 
C -6.289282 0.714554 -6.220019 0.71923 -6.153645 0.737166 
L -3.505232 1.44698 
L -0.852424 -0.08496 
L -3.503767 -1.615666 
L -6.153645 -0.905851 
L -6.153645 -0.905851 
C -6.22011 -0.887939 -6.289462 -0.883321 -6.357716 -0.892262 
C -6.42597 -0.901202 -6.491793 -0.923527 -6.551403 -0.957953 
C -6.611013 -0.992379 -6.663247 -1.038234 -6.705103 -1.092883 
C -6.746958 -1.147533 -6.777619 -1.209911 -6.795324 -1.276432 
L -6.795324 -1.276432 
C -6.831068 -1.410431 -6.812101 -1.553293 -6.742632 -1.673324 
C -6.673162 -1.793355 -6.558738 -1.88097 -6.424743 -1.91673 
L -4.785807 -2.355447 
L -6.108695 -3.119732 
L -6.108695 -3.119732 
C -6.228699 -3.188976 -6.316415 -3.303132 -6.352417 -3.436921 
C -6.388419 -3.57071 -6.369839 -3.713469 -6.300791 -3.833586 
L -6.300791 -3.833586 
C -6.266491 -3.893214 -6.220765 -3.945496 -6.166237 -3.987431 
C -6.111708 -4.029367 -6.04944 -4.060139 -5.983005 -4.077981 
C -5.91657 -4.095823 -5.847263 -4.100389 -5.779062 -4.091415 
C -5.71086 -4.082441 -5.645094 -4.060102 -5.585535 -4.025682 
L -4.262647 -3.261396 
L -4.702703 -4.900332 
L -4.702703 -4.900332 
C -4.73846 -5.034337 -4.719499 -5.17721 -4.650029 -5.29725 
C -4.580558 -5.417291 -4.466126 -5.504912 -4.332122 -5.540672 
L -4.332122 -5.540672 
C -4.19831 -5.576464 -4.055613 -5.557686 -3.935617 -5.488496 
C -3.81562 -5.419305 -3.727882 -5.305212 -3.691824 -5.171472 
L -2.982009 -2.521594 
L -0.329411 -0.990302 
L -0.329411 -4.051588 
L -2.269453 -5.991589 
L -2.269453 -5.991589 
C -2.318227 -6.040191 -2.356931 -6.097947 -2.383337 -6.161539 
C -2.409744 -6.22513 -2.423338 -6.293314 -2.423338 -6.36217 
C -2.423338 -6.431026 -2.409744 -6.499209 -2.383337 -6.5628 
C -2.356931 -6.626392 -2.318227 -6.684149 -2.269453 -6.732751 
L -2.269453 -6.732751 
C -2.22085 -6.781526 -2.163094 -6.820229 -2.099502 -6.846635 
C -2.035911 -6.873042 -1.967728 -6.886636 -1.898871 -6.886636 
C -1.830015 -6.886636 -1.761832 -6.873042 -1.698241 -6.846635 
C -1.634649 -6.820229 -1.576893 -6.781526 -1.52829 -6.732751 
L -0.329411 -5.533829 
L -0.329411 -7.059722 
L -0.329411 -7.059722 
C -0.329411 -7.198418 -0.274255 -7.331575 -0.176182 -7.429647 
C -0.07811 -7.52772 0.055047 -7.582875 0.193743 -7.582875 
L 0.193743 -7.582875 
C 0.332439 -7.582875 0.465596 -7.52772 0.563669 -7.429647 
C 0.661741 -7.331575 0.716897 -7.198418 0.716897 -7.059722 
L 0.716897 -5.533829 
L 1.915777 -6.732751 
L 1.915777 -6.732751 
C 1.964379 -6.781526 2.022136 -6.820229 2.085727 -6.846635 
C 2.149318 -6.873042 2.217502 -6.886636 2.286358 -6.886636 
C 2.355214 -6.886636 2.423397 -6.873042 2.486989 -6.846635 
C 2.55058 -6.820229 2.608337 -6.781526 2.656939 -6.732751 
L 2.656939 -6.732751 
C 2.705714 -6.684149 2.744417 -6.626392 2.770823 -6.5628 
C 2.79723 -6.499209 2.810824 -6.431026 2.810824 -6.36217 
C 2.810824 -6.293314 2.79723 -6.22513 2.770823 -6.161539 
C 2.744417 -6.097947 2.705714 -6.040191 2.656939 -5.991589 
L 0.716897 -4.051588 
L 0.716897 -0.991139 
L 3.369495 -2.522954 
L 4.07931 -5.171367 
L 4.07931 -5.171367 
C 4.115368 -5.305107 4.203106 -5.4192 4.323103 -5.488391 
C 4.4431 -5.557582 4.585797 -5.576359 4.719608 -5.540567 
L 4.719608 -5.540567 
C 4.853612 -5.504807 4.968045 -5.417186 5.037515 -5.297146 
C 5.106986 -5.177105 5.125946 -5.034232 5.090189 -4.900227 
L 4.650133 -3.262673 
L 5.973022 -4.025577 
L 5.973022 -4.025577 
C 6.03258 -4.059998 6.098346 -4.082336 6.166548 -4.09131 
C 6.234749 -4.100284 6.304056 -4.095719 6.370491 -4.077876 
C 6.436926 -4.060034 6.499194 -4.029262 6.553723 -3.987327 
C 6.608252 -3.945391 6.653978 -3.893109 6.688277 -3.833481 
L 6.688277 -3.833481 
C 6.757325 -3.713365 6.775905 -3.570605 6.739903 -3.436816 
C 6.703901 -3.303027 6.616186 -3.188871 6.496181 -3.119628 
L 5.173293 -2.355342 
L 6.812229 -1.916625 
L 6.812229 -1.916625 
C 6.946224 -1.880865 7.060649 -1.79325 7.130118 -1.67322 
C 7.199588 -1.553189 7.218554 -1.410326 7.18281 -1.276327 
L 7.18281 -1.276327 
C 7.165106 -1.209806 7.134445 -1.147429 7.092589 -1.092779 
C 7.050733 -1.038129 6.998499 -0.992274 6.938889 -0.957848 
C 6.879279 -0.923422 6.813456 -0.901098 6.745202 -0.892157 
C 6.676949 -0.883217 6.607597 -0.887835 6.541131 -0.905746 
L 3.891253 -1.615561 
L 1.239492 -0.084604 
L 3.892718 1.447085 
L 6.541131 0.73727 
L 6.541131 0.73727 
C 6.674948 0.701466 6.817656 0.720237 6.937662 0.789429 
C 7.057669 0.858621 7.145413 0.972721 7.181471 1.10647 
L 7.181471 1.10647 
C 7.217274 1.240293 7.198497 1.383006 7.129297 1.503014 
C 7.060096 1.623021 6.945986 1.710762 6.812229 1.74681 
L 5.173293 2.186866 
L 6.496181 2.949771 
L 6.496181 2.949771 
C 6.555697 2.984183 6.607849 3.029991 6.649651 3.08457 
C 6.691452 3.13915 6.722088 3.201437 6.739803 3.267863 
C 6.757517 3.33429 6.761966 3.403561 6.752893 3.471707 
C 6.743821 3.539854 6.721404 3.605549 6.686927 3.665026 
L 6.686927 3.665026 
C 6.617458 3.784813 6.503196 3.87225 6.369416 3.907994 
C 6.235636 3.943739 6.092989 3.924946 5.973032 3.855772 
L 4.650144 3.091487 
L 5.08886 4.731783 
L 5.08886 4.731783 
C 5.124664 4.865606 5.105887 5.008319 5.036686 5.128326 
C 4.967486 5.248334 4.853376 5.336074 4.719619 5.372123 
L 4.719619 5.372123 
C 4.585619 5.407867 4.442757 5.3889 4.322726 5.319431 
C 4.202695 5.249961 4.115081 5.135537 4.07932 5.001542 
L 3.368166 2.351664 
L 0.717033 0.821063 
L 0.717033 3.884232 
L 2.657075 5.822893 
L 2.657075 5.822893 
C 2.70585 5.871495 2.744553 5.929252 2.770959 5.992843 
C 2.797366 6.056435 2.81096 6.124618 2.81096 6.193474 
C 2.81096 6.26233 2.797366 6.330514 2.770959 6.394105 
C 2.744553 6.457696 2.70585 6.515453 2.657075 6.564055 
L 2.657075 6.564055 
C 2.608473 6.61283 2.550716 6.651533 2.487125 6.67794 
C 2.423533 6.704346 2.35535 6.71794 2.286494 6.71794 
C 2.217638 6.71794 2.149454 6.704346 2.085863 6.67794 
C 2.022272 6.651533 1.964515 6.61283 1.915913 6.564055 
L 0.717033 5.365133 
L 0.717033 6.891026 
L 0.717033 6.891026 
C 0.717033 7.029722 0.661877 7.162879 0.563805 7.260952 
C 0.465732 7.359024 0.332575 7.41418 0.193879 7.41418 
L 0.193618 7.414054 
z
"/>
    </defs>
    <g clip-path="url(#p30b3875da6)">
     <use xlink:href="#m75b3f7f4cc" x="114.260276" y="48.707049" style="fill: #9e2096; fill-opacity: 0.7"/>
    </g>
   </g>
   <g id="patch_163">
    <path d="M 125.254844 13.699063 
C 110.694216 13.699063 96.275171 16.567189 82.822905 22.1393 
C 69.370638 27.711411 57.146763 35.879144 46.850844 46.175063 
C 36.554925 56.470982 28.387192 68.694857 22.815081 82.147124 
C 17.24297 95.59939 14.374844 110.018434 14.374844 124.579063 
C 14.374844 139.139691 17.24297 153.558735 22.815081 167.011001 
C 28.387192 180.463268 36.554925 192.687143 46.850844 202.983062 
C 57.146763 213.278981 69.370638 221.446714 82.822905 227.018825 
C 96.275171 232.590936 110.694216 235.459063 125.254844 235.459063 
C 139.815472 235.459063 154.234516 232.590936 167.686783 227.018825 
C 181.139049 221.446714 193.362925 213.278981 203.658844 202.983062 
C 213.954763 192.687143 222.122495 180.463268 227.694606 167.011001 
C 233.266717 153.558735 236.134844 139.139691 236.134844 124.579063 
C 236.134844 110.018434 233.266717 95.59939 227.694606 82.147124 
C 222.122495 68.694857 213.954763 56.470982 203.658844 46.175063 
C 193.362925 35.879144 181.139049 27.711411 167.686783 22.1393 
C 154.234516 16.567189 139.815472 13.699063 125.254844 13.699063 
" style="fill: none; stroke: #000000; stroke-width: 0.8; stroke-linejoin: miter; stroke-linecap: square"/>
   </g>
  </g>
 </g>
 <defs>
  <clipPath id="p30b3875da6">
   <path d="M 236.134844 124.579063 
C 236.134844 110.018434 233.266717 95.59939 227.694606 82.147124 
C 222.122495 68.694857 213.954763 56.470982 203.658844 46.175063 
C 193.362925 35.879144 181.139049 27.711411 167.686783 22.1393 
C 154.234516 16.567189 139.815472 13.699063 125.254844 13.699063 
C 110.694216 13.699063 96.275171 16.567189 82.822905 22.1393 
C 69.370638 27.711411 57.146763 35.879144 46.850844 46.175063 
C 36.554925 56.470982 28.387192 68.694857 22.815081 82.147124 
C 17.24297 95.59939 14.374844 110.018434 14.374844 124.579062 
C 14.374844 139.139691 17.24297 153.558735 22.815081 167.011001 
C 28.387192 180.463268 36.554925 192.687143 46.850844 202.983062 
C 57.146763 213.278981 69.370638 221.446714 82.822905 227.018825 
C 96.275171 232.590936 110.694216 235.459063 125.254844 235.459063 
C 139.815472 235.459063 154.234516 232.590936 167.686783 227.018825 
C 181.139049 221.446714 193.362925 213.278981 203.658844 202.983062 
C 213.954763 192.687143 222.122495 180.463268 227.694606 167.011001 
C 233.266717 153.558735 236.134844 139.139691 236.134844 124.579063 
M 125.254844 124.579063 
C 125.254844 124.579063 125.254844 124.579063 125.254844 124.579063 
C 125.254844 124.579063 125.254844 124.579063 125.254844 124.579063 
C 125.254844 124.579063 125.254844 124.579063 125.254844 124.579063 
C 125.254844 124.579063 125.254844 124.579063 125.254844 124.579063 
C 125.254844 124.579063 125.254844 124.579063 125.254844 124.579063 
C 125.254844 124.579063 125.254844 124.579063 125.254844 124.579063 
C 125.254844 124.579063 125.254844 124.579063 125.254844 124.579063 
C 125.254844 124.579063 125.254844 124.579063 125.254844 124.579063 
C 125.254844 124.579063 125.254844 124.579063 125.254844 124.579063 
C 125.254844 124.579063 125.254844 124.579063 125.254844 124.579063 
C 125.254844 124.579063 125.254844 124.579063 125.254844 124.579063 
C 125.254844 124.579063 125.254844 124.579063 125.254844 124.579063 
C 125.254844 124.579063 125.254844 124.579063 125.254844 124.579063 
C 125.254844 124.579063 125.254844 124.579063 125.254844 124.579063 
C 125.254844 124.579063 125.254844 124.579063 125.254844 124.579063 
C 125.254844 124.579063 125.254844 124.579063 125.254844 124.579063 
z
"/>
  </clipPath>
 </defs>
</svg>
