<?xml version="1.0" encoding="utf-8" standalone="no"?>
<!DOCTYPE svg PUBLIC "-//W3C//DTD SVG 1.1//EN"
  "http://www.w3.org/Graphics/SVG/1.1/DTD/svg11.dtd">
<svg xmlns:xlink="http://www.w3.org/1999/xlink" width="248.410469pt" height="249.158125pt" viewBox="0 0 248.410469 249.158125" xmlns="http://www.w3.org/2000/svg" version="1.1">
 <title>Ski Rose for Bergeralm</title>
 <metadata>
  <rdf:RDF xmlns:dc="http://purl.org/dc/elements/1.1/" xmlns:cc="http://creativecommons.org/ns#" xmlns:rdf="http://www.w3.org/1999/02/22-rdf-syntax-ns#">
   <cc:Work>
    <dc:type rdf:resource="http://purl.org/dc/dcmitype/StillImage"/>
    <dc:title>Ski Rose for Bergeralm</dc:title>
    <dc:date>2026-02-28T10:48:11.416001</dc:date>
    <dc:description>A 32-bin stacked histogram of downhill ski run orientations colored by difficulty.</dc:description>
    <dc:format>image/svg+xml</dc:format>
    <dc:source>https://openskimap.org/?obj=fe328a6ab0ed5457ebffed8bf67e112693a52e01</dc:source>
    <dc:creator>
     <cc:Agent>
      <dc:title>https://github.com/dhimmel/openskistats</dc:title>
     </cc:Agent>
    </dc:creator>
    <dc:rights>
     <cc:Agent>
      <dc:title>https://creativecommons.org/licenses/by/4.0/</dc:title>
     </cc:Agent>
    </dc:rights>
   </cc:Work>
  </rdf:RDF>
 </metadata>
 <defs>
  <style type="text/css">*{stroke-linejoin: round; stroke-linecap: butt}</style>
 </defs>
 <g id="figure_1">
  <g id="patch_1">
   <path d="M 0 249.158125 
L 248.410469 249.158125 
L 248.410469 0 
L 0 0 
z
" style="fill: #ffffff"/>
  </g>
  <g id="axes_1">
   <g id="patch_2">
    <path d="M 236.134844 124.579063 
C 236.134844 110.018434 233.266717 95.59939 227.694606 82.147124 
C 222.122495 68.694857 213.954763 56.470982 203.658844 46.175063 
C 193.362925 35.879144 181.139049 27.711411 167.686783 22.1393 
C 154.234516 16.567189 139.815472 13.699063 125.254844 13.699063 
C 110.694216 13.699063 96.275171 16.567189 82.822905 22.1393 
C 69.370638 27.711411 57.146763 35.879144 46.850844 46.175063 
C 36.554925 56.470982 28.387192 68.694857 22.815081 82.147124 
C 17.24297 95.59939 14.374844 110.018434 14.374844 124.579062 
C 14.374844 139.139691 17.24297 153.558735 22.815081 167.011001 
C 28.387192 180.463268 36.554925 192.687143 46.850844 202.983062 
C 57.146763 213.278981 69.370638 221.446714 82.822905 227.018825 
C 96.275171 232.590936 110.694216 235.459063 125.254844 235.459063 
C 139.815472 235.459063 154.234516 232.590936 167.686783 227.018825 
C 181.139049 221.446714 193.362925 213.278981 203.658844 202.983062 
C 213.954763 192.687143 222.122495 180.463268 227.694606 167.011001 
C 233.266717 153.558735 236.134844 139.139691 236.134844 124.579063 
M 125.254844 124.579063 
C 125.254844 124.579063 125.254844 124.579063 125.254844 124.579063 
C 125.254844 124.579063 125.254844 124.579063 125.254844 124.579063 
C 125.254844 124.579063 125.254844 124.579063 125.254844 124.579063 
C 125.254844 124.579063 125.254844 124.579063 125.254844 124.579063 
C 125.254844 124.579063 125.254844 124.579063 125.254844 124.579063 
C 125.254844 124.579063 125.254844 124.579063 125.254844 124.579063 
C 125.254844 124.579063 125.254844 124.579063 125.254844 124.579063 
C 125.254844 124.579063 125.254844 124.579063 125.254844 124.579063 
C 125.254844 124.579063 125.254844 124.579063 125.254844 124.579063 
C 125.254844 124.579063 125.254844 124.579063 125.254844 124.579063 
C 125.254844 124.579063 125.254844 124.579063 125.254844 124.579063 
C 125.254844 124.579063 125.254844 124.579063 125.254844 124.579063 
C 125.254844 124.579063 125.254844 124.579063 125.254844 124.579063 
C 125.254844 124.579063 125.254844 124.579063 125.254844 124.579063 
C 125.254844 124.579063 125.254844 124.579063 125.254844 124.579063 
C 125.254844 124.579063 125.254844 124.579063 125.254844 124.579063 
z
" style="fill: #ffffff"/>
   </g>
   <g id="FillBetweenPolyCollection_1">
    <defs>
     <path id="mec9c37664f" d="M 235.268964 -137.113588 
L 234.728209 -137.051977 
L 233.99485 -135.049534 
L 232.995979 -133.058474 
L 232.131851 -131.11594 
L 231.015576 -129.196676 
L 230.05764 -127.32342 
L 228.854339 -125.483162 
L 227.82049 -123.683986 
L 226.545545 -121.926672 
L 225.446275 -120.20461 
L 224.317262 -118.520145 
L 222.952862 -116.890062 
L 221.769515 -115.285757 
L 220.355004 -113.743768 
L 219.123797 -112.22098 
L 217.870521 -110.737557 
L 216.596544 -109.293704 
L 215.101029 -107.927056 
L 213.791009 -106.566176 
L 212.464451 -105.245158 
L 211.122681 -103.964019 
L 209.767018 -102.722728 
L 208.398774 -101.52121 
L 207.019252 -100.359341 
L 205.629752 -99.236951 
L 204.231561 -98.153823 
L 202.825959 -97.10969 
L 201.414216 -96.10424 
L 200.178683 -95.065777 
L 198.75579 -94.133974 
L 197.330383 -93.239726 
L 196.076837 -92.303621 
L 194.647089 -91.480659 
L 193.385789 -90.610227 
L 191.956028 -89.856624 
L 190.690854 -89.050208 
L 189.423663 -88.274091 
L 187.99998 -87.619353 
L 186.734406 -86.904338 
L 185.46936 -86.218185 
L 184.205627 -85.56039 
L 182.943975 -84.930421 
L 181.685152 -84.327715 
L 180.429882 -83.751682 
L 179.178868 -83.201704 
L 177.932789 -82.677133 
L 176.692298 -82.177297 
L 175.458024 -81.701496 
L 174.347712 -81.145362 
L 173.123854 -80.715196 
L 171.907888 -80.306977 
L 170.806519 -79.815556 
L 169.603972 -79.449062 
L 168.410738 -79.102239 
L 167.322266 -78.670527 
L 166.144958 -78.361196 
L 165.065813 -77.966406 
L 163.990115 -77.589421 
L 162.837224 -77.331535 
L 161.77265 -76.988131 
L 160.712323 -76.661029 
L 159.586143 -76.448356 
L 158.538283 -76.151357 
L 157.495259 -75.869108 
L 156.457229 -75.601128 
L 155.42433 -75.346935 
L 154.396677 -75.106047 
L 153.374362 -74.877982 
L 152.310051 -74.74957 
L 151.301608 -74.543694 
L 150.298587 -74.349085 
L 149.300987 -74.165275 
L 148.308785 -73.991806 
L 147.321937 -73.828222 
L 146.370761 -73.600729 
L 145.391835 -73.458331 
L 144.418093 -73.324625 
L 143.449409 -73.199196 
L 142.48564 -73.08164 
L 141.526624 -72.971568 
L 140.572178 -72.868608 
L 139.636859 -72.719192 
L 138.689058 -72.632809 
L 137.745293 -72.552599 
L 136.805315 -72.478252 
L 135.868865 -72.40948 
L 134.942462 -72.309352 
L 134.010938 -72.254708 
L 133.082206 -72.204957 
L 132.155958 -72.159893 
L 131.234455 -72.096687 
L 130.31143 -72.06441 
L 129.390043 -72.036376 
L 128.469954 -72.01247 
L 127.551171 -71.98453 
L 126.632391 -71.972661 
L 125.714002 -71.964734 
L 124.795686 -71.964744 
L 123.877404 -71.976757 
L 122.958874 -71.992716 
L 122.039744 -72.012647 
L 121.119664 -72.036617 
L 120.200087 -72.083404 
L 119.277853 -72.119684 
L 118.353784 -72.160311 
L 117.427554 -72.205444 
L 116.504346 -72.288149 
L 115.574134 -72.346624 
L 114.640961 -72.410164 
L 113.704541 -72.479014 
L 112.775707 -72.599717 
L 111.83374 -72.683505 
L 110.887858 -72.773386 
L 109.937828 -72.869684 
L 108.983432 -72.972739 
L 108.024471 -73.082908 
L 107.0837 -73.265337 
L 106.117468 -73.393825 
L 105.146275 -73.530487 
L 104.169995 -73.675735 
L 103.18852 -73.829993 
L 102.201764 -73.993696 
L 101.209662 -74.16729 
L 100.212168 -74.351226 
L 99.209262 -74.545966 
L 98.200944 -74.751977 
L 97.187234 -74.96973 
L 96.168177 -75.199702 
L 95.14384 -75.44237 
L 94.11431 -75.698217 
L 93.079699 -75.967722 
L 91.973702 -76.1547 
L 90.92604 -76.451855 
L 89.873734 -76.764237 
L 88.816987 -77.092323 
L 87.675682 -77.335582 
L 86.607359 -77.695914 
L 85.535317 -78.073472 
L 84.368809 -78.365807 
L 83.286823 -78.779005 
L 82.103708 -79.107254 
L 81.013117 -79.558355 
L 79.814873 -79.925328 
L 78.607765 -80.312638 
L 77.505538 -80.824885 
L 76.285963 -81.255057 
L 75.059027 -81.707785 
L 73.94931 -82.286044 
L 72.71305 -82.785433 
L 71.471177 -83.309403 
L 70.22434 -83.858632 
L 68.973215 -84.433767 
L 67.718503 -85.035431 
L 66.460926 -85.664217 
L 65.201229 -86.32069 
L 63.940175 -87.005385 
L 62.523782 -87.627643 
L 61.259313 -88.372133 
L 59.995973 -89.146387 
L 58.734599 -89.950815 
L 57.309115 -90.702572 
L 56.051505 -91.570763 
L 54.625911 -92.391603 
L 53.37594 -93.325225 
L 51.954558 -94.21709 
L 50.535622 -95.146378 
L 49.303478 -96.18201 
L 47.895557 -97.184702 
L 46.493706 -98.225954 
L 45.099193 -99.306083 
L 43.713298 -100.425356 
L 42.337308 -101.583995 
L 40.972519 -102.782171 
L 39.620235 -104.020012 
L 38.281766 -105.297595 
L 36.958429 -106.614954 
L 35.651548 -107.972073 
L 34.362455 -109.368893 
L 32.888532 -110.774825 
L 31.638127 -112.254188 
L 30.409694 -113.772823 
L 28.998286 -115.31061 
L 27.817485 -116.910576 
L 26.663024 -118.548928 
L 25.329154 -120.216213 
L 24.231958 -121.933685 
L 22.9592 -123.686342 
L 21.926875 -125.480792 
L 20.724893 -127.316276 
L 19.767407 -129.184743 
L 18.650531 -131.099262 
L 17.784295 -133.037178 
L 16.972198 -135.005495 
L 16.03867 -137.022674 
L 15.372376 -139.045364 
L 15.372376 -139.045364 
L 15.372376 -139.045364 
L 15.245433 -137.113052 
L 14.905412 -135.204504 
L 14.775491 -133.273976 
L 14.749156 -131.33788 
L 14.506279 -129.414449 
L 14.474811 -127.47994 
L 14.475698 -125.545817 
L 14.402706 -123.611671 
L 14.468283 -121.678014 
L 14.565334 -119.746254 
L 14.591025 -117.810573 
L 14.751491 -115.88226 
L 14.942451 -113.957187 
L 15.163539 -112.035743 
L 15.495655 -110.128991 
L 15.602137 -108.191356 
L 15.914717 -106.2818 
L 16.256945 -104.377496 
L 16.628875 -102.478859 
L 17.116738 -100.605422 
L 17.465829 -98.70121 
L 17.930367 -96.823066 
L 18.424868 -94.952488 
L 18.949461 -93.089974 
L 19.579352 -91.259708 
L 20.162757 -89.415742 
L 20.776865 -87.58147 
L 21.421901 -85.757516 
L 22.098139 -83.944556 
L 22.890968 -82.178557 
L 23.629209 -80.390979 
L 24.399574 -78.616668 
L 25.202627 -76.856603 
L 26.030753 -75.107756 
L 26.905603 -73.381688 
L 27.815928 -71.674048 
L 28.762282 -69.986198 
L 29.717811 -68.30345 
L 30.752387 -66.667883 
L 31.757254 -65.014528 
L 32.809457 -63.390796 
L 33.882698 -61.780727 
L 34.989951 -60.19374 
L 36.774898 -59.107347 
L 38.531818 -58.034144 
L 40.366454 -57.055788 
L 42.216775 -56.127761 
L 44.069205 -55.239976 
L 45.868094 -54.343599 
L 47.726824 -53.537722 
L 49.526026 -52.715098 
L 51.323635 -51.927066 
L 53.118435 -51.172519 
L 54.956853 -50.500437 
L 56.741355 -49.80971 
L 58.520309 -49.149392 
L 60.293023 -48.518543 
L 62.01835 -47.867061 
L 63.778548 -47.292766 
L 65.530843 -46.745229 
L 67.235664 -46.170641 
L 68.972664 -45.674356 
L 70.700586 -45.202125 
L 72.388842 -44.707246 
L 74.067229 -44.230602 
L 75.769757 -43.82674 
L 77.436805 -43.400142 
L 79.093538 -42.989231 
L 80.74657 -42.60502 
L 82.389168 -42.234865 
L 84.027724 -41.890252 
L 85.655875 -41.558097 
L 87.279762 -41.250351 
L 88.893419 -40.95351 
L 90.485736 -40.639012 
L 92.089124 -40.382978 
L 93.682761 -40.135691 
L 95.258895 -39.873116 
L 96.842504 -39.66353 
L 98.417126 -39.460696 
L 99.977899 -39.245529 
L 101.543184 -39.077579 
L 103.094733 -38.892272 
L 104.647377 -38.742787 
L 106.190569 -38.585675 
L 107.730249 -38.442929 
L 109.270947 -38.337671 
L 110.803489 -38.221173 
L 112.333178 -38.118177 
L 113.861608 -38.038848 
L 115.385898 -37.960441 
L 116.908107 -37.894886 
L 118.428491 -37.842022 
L 119.948002 -37.812975 
L 121.465261 -37.783357 
L 122.981549 -37.765441 
L 124.497174 -37.758652 
L 126.012512 -37.758873 
L 127.528126 -37.765912 
L 129.04439 -37.784194 
L 130.561617 -37.814089 
L 132.081096 -37.843304 
L 133.601433 -37.896415 
L 135.123587 -37.962214 
L 136.649149 -38.030722 
L 138.17613 -38.120715 
L 139.70573 -38.223973 
L 141.238174 -38.340729 
L 142.778826 -38.44594 
L 144.318402 -38.588909 
L 145.866365 -38.725897 
L 147.413892 -38.896381 
L 148.974114 -39.050135 
L 150.530562 -39.249668 
L 152.099597 -39.438383 
L 153.665488 -39.668596 
L 155.249104 -39.877885 
L 156.825077 -40.140639 
L 158.418309 -40.388701 
L 160.02174 -40.64435 
L 161.629092 -40.924018 
L 163.227051 -41.256658 
L 164.851028 -41.563935 
L 166.478638 -41.896922 
L 168.11732 -42.241011 
L 169.75932 -42.612014 
L 171.412518 -42.995649 
L 173.068594 -43.407422 
L 174.762497 -43.789915 
L 176.43814 -44.23738 
L 178.115781 -44.714898 
L 179.835769 -45.163324 
L 181.531995 -45.681407 
L 183.268746 -46.177774 
L 184.972701 -46.753235 
L 186.724716 -47.300842 
L 188.484634 -47.875194 
L 190.25196 -48.477217 
L 191.982877 -49.156741 
L 193.761585 -49.817074 
L 195.592541 -50.458595 
L 197.383251 -51.180662 
L 199.177811 -51.935165 
L 200.975189 -52.723138 
L 202.832927 -53.491846 
L 204.633468 -54.350788 
L 206.488138 -55.199274 
L 208.283686 -56.135367 
L 210.13468 -57.062592 
L 211.968546 -58.041299 
L 213.788283 -59.067764 
L 215.520304 -60.193335 
L 216.628852 -61.779446 
L 217.714289 -63.381491 
L 218.745926 -65.018674 
L 219.75467 -66.669495 
L 220.78166 -68.309467 
L 221.680147 -70.024251 
L 222.636775 -71.704988 
L 223.540763 -73.414652 
L 224.375805 -75.159174 
L 225.314878 -76.852874 
L 226.114579 -78.614633 
L 226.847524 -80.405308 
L 227.633346 -82.172499 
L 228.371808 -83.96021 
L 229.06298 -85.766791 
L 229.772545 -87.567403 
L 230.363282 -89.410271 
L 230.907469 -91.266918 
L 231.523357 -93.100895 
L 231.982918 -94.980748 
L 232.565464 -96.826649 
L 233.07088 -98.694722 
L 233.433229 -100.596492 
L 233.889238 -102.477145 
L 234.130172 -104.400213 
L 234.485629 -106.300098 
L 234.822439 -108.204076 
L 235.119416 -110.115117 
L 235.366825 -112.033387 
L 235.588424 -113.955147 
L 235.771711 -115.881196 
L 235.917363 -117.810653 
L 236.022713 -119.742833 
L 236.09634 -121.676576 
L 235.954164 -123.613004 
L 235.956788 -125.545144 
L 235.92514 -127.477066 
L 235.858775 -129.408134 
L 235.760314 -131.337867 
L 235.629496 -133.265736 
L 235.46377 -135.190975 
L 235.268964 -137.113588 
z
" style="stroke: #ffee9c"/>
    </defs>
    <g clip-path="url(#p9f02c4baf5)">
     <use xlink:href="#mec9c37664f" x="0" y="249.158125" style="fill: #ffee9c; stroke: #ffee9c"/>
    </g>
   </g>
   <g id="matplotlib.axis_1">
    <g id="xtick_1">
     <g id="line2d_1">
      <path d="M 125.254844 124.579063 
L 125.254844 13.699063 
" clip-path="url(#p9f02c4baf5)" style="fill: none; stroke: #b0b0b0; stroke-width: 0.8; stroke-linecap: square"/>
     </g>
     <g id="text_1">
      <!-- N -->
      <g transform="translate(121.070469 7.958438) scale(0.1 -0.1)">
       <defs>
        <path id="DejaVuSans-Bold-4e" d="M 588 4666 
L 1931 4666 
L 3628 1466 
L 3628 4666 
L 4769 4666 
L 4769 0 
L 3425 0 
L 1728 3200 
L 1728 0 
L 588 0 
L 588 4666 
z
" transform="scale(0.015625)"/>
       </defs>
       <use xlink:href="#DejaVuSans-Bold-4e"/>
      </g>
     </g>
    </g>
    <g id="xtick_2">
     <g id="line2d_2">
      <path d="M 125.254844 124.579063 
L 203.658844 46.175063 
" clip-path="url(#p9f02c4baf5)" style="fill: none; stroke: #b0b0b0; stroke-width: 0.8; stroke-linecap: square"/>
     </g>
    </g>
    <g id="xtick_3">
     <g id="line2d_3">
      <path d="M 125.254844 124.579063 
L 236.134844 124.579063 
" clip-path="url(#p9f02c4baf5)" style="fill: none; stroke: #b0b0b0; stroke-width: 0.8; stroke-linecap: square"/>
     </g>
     <g id="text_2">
      <!-- E -->
      <g transform="translate(241.219219 127.338438) scale(0.1 -0.1)">
       <defs>
        <path id="DejaVuSans-Bold-45" d="M 588 4666 
L 3834 4666 
L 3834 3756 
L 1791 3756 
L 1791 2888 
L 3713 2888 
L 3713 1978 
L 1791 1978 
L 1791 909 
L 3903 909 
L 3903 0 
L 588 0 
L 588 4666 
z
" transform="scale(0.015625)"/>
       </defs>
       <use xlink:href="#DejaVuSans-Bold-45"/>
      </g>
     </g>
    </g>
    <g id="xtick_4">
     <g id="line2d_4">
      <path d="M 125.254844 124.579063 
L 203.658844 202.983062 
" clip-path="url(#p9f02c4baf5)" style="fill: none; stroke: #b0b0b0; stroke-width: 0.8; stroke-linecap: square"/>
     </g>
    </g>
    <g id="xtick_5">
     <g id="line2d_5">
      <path d="M 125.254844 124.579063 
L 125.254844 235.459063 
" clip-path="url(#p9f02c4baf5)" style="fill: none; stroke: #b0b0b0; stroke-width: 0.8; stroke-linecap: square"/>
     </g>
     <g id="text_3">
      <!-- S -->
      <g transform="translate(121.654062 246.718438) scale(0.1 -0.1)">
       <defs>
        <path id="DejaVuSans-Bold-53" d="M 3834 4519 
L 3834 3531 
Q 3450 3703 3084 3790 
Q 2719 3878 2394 3878 
Q 1963 3878 1756 3759 
Q 1550 3641 1550 3391 
Q 1550 3203 1689 3098 
Q 1828 2994 2194 2919 
L 2706 2816 
Q 3484 2659 3812 2340 
Q 4141 2022 4141 1434 
Q 4141 663 3683 286 
Q 3225 -91 2284 -91 
Q 1841 -91 1394 -6 
Q 947 78 500 244 
L 500 1259 
Q 947 1022 1364 901 
Q 1781 781 2169 781 
Q 2563 781 2772 912 
Q 2981 1044 2981 1288 
Q 2981 1506 2839 1625 
Q 2697 1744 2272 1838 
L 1806 1941 
Q 1106 2091 782 2419 
Q 459 2747 459 3303 
Q 459 4000 909 4375 
Q 1359 4750 2203 4750 
Q 2588 4750 2994 4692 
Q 3400 4634 3834 4519 
z
" transform="scale(0.015625)"/>
       </defs>
       <use xlink:href="#DejaVuSans-Bold-53"/>
      </g>
     </g>
    </g>
    <g id="xtick_6">
     <g id="line2d_6">
      <path d="M 125.254844 124.579063 
L 46.850844 202.983062 
" clip-path="url(#p9f02c4baf5)" style="fill: none; stroke: #b0b0b0; stroke-width: 0.8; stroke-linecap: square"/>
     </g>
    </g>
    <g id="xtick_7">
     <g id="line2d_7">
      <path d="M 125.254844 124.579063 
L 14.374844 124.579063 
" clip-path="url(#p9f02c4baf5)" style="fill: none; stroke: #b0b0b0; stroke-width: 0.8; stroke-linecap: square"/>
     </g>
     <g id="text_4">
      <!-- W -->
      <g transform="translate(0.36 127.338438) scale(0.1 -0.1)">
       <defs>
        <path id="DejaVuSans-Bold-57" d="M 191 4666 
L 1344 4666 
L 2150 1275 
L 2950 4666 
L 4109 4666 
L 4909 1275 
L 5716 4666 
L 6859 4666 
L 5759 0 
L 4372 0 
L 3525 3547 
L 2688 0 
L 1300 0 
L 191 4666 
z
" transform="scale(0.015625)"/>
       </defs>
       <use xlink:href="#DejaVuSans-Bold-57"/>
      </g>
     </g>
    </g>
    <g id="xtick_8">
     <g id="line2d_8">
      <path d="M 125.254844 124.579063 
L 46.850844 46.175063 
" clip-path="url(#p9f02c4baf5)" style="fill: none; stroke: #b0b0b0; stroke-width: 0.8; stroke-linecap: square"/>
     </g>
    </g>
   </g>
   <g id="matplotlib.axis_2"/>
   <g id="patch_3">
    <path d="M 125.254844 124.579063 
C 125.254844 124.579063 125.254844 124.579063 125.254844 124.579063 
C 125.254844 124.579063 125.254844 124.579063 125.254844 124.579063 
L 125.254844 124.579063 
C 125.254844 124.579063 125.254844 124.579063 125.254844 124.579063 
C 125.254844 124.579063 125.254844 124.579063 125.254844 124.579063 
z
" clip-path="url(#p9f02c4baf5)" style="fill: #d9d9d9"/>
   </g>
   <g id="patch_4">
    <path d="M 125.254844 124.579063 
C 125.254844 124.579063 125.254844 124.579063 125.254844 124.579063 
C 125.254844 124.579063 125.254844 124.579063 125.254844 124.579063 
L 128.468991 113.98344 
C 128.12218 113.878237 127.770413 113.790124 127.414961 113.71942 
C 127.059509 113.648716 126.700799 113.595506 126.340128 113.559983 
z
" clip-path="url(#p9f02c4baf5)" style="fill: #d9d9d9"/>
   </g>
   <g id="patch_5">
    <path d="M 125.254844 124.579063 
C 125.254844 124.579063 125.254844 124.579063 125.254844 124.579063 
C 125.254844 124.579063 125.254844 124.579063 125.254844 124.579063 
L 134.857311 106.614109 
C 134.269292 106.299806 133.666195 106.014562 133.0502 105.759409 
C 132.434204 105.504255 131.806053 105.279499 131.168014 105.085952 
z
" clip-path="url(#p9f02c4baf5)" style="fill: #d9d9d9"/>
   </g>
   <g id="patch_6">
    <path d="M 125.254844 124.579063 
C 125.254844 124.579063 125.254844 124.579063 125.254844 124.579063 
C 125.254844 124.579063 125.254844 124.579063 125.254844 124.579063 
L 141.785678 104.436183 
C 141.126371 103.895104 140.440897 103.386722 139.73173 102.912872 
C 139.022563 102.439021 138.290559 102.000275 137.538361 101.598217 
z
" clip-path="url(#p9f02c4baf5)" style="fill: #d9d9d9"/>
   </g>
   <g id="patch_7">
    <path d="M 125.254844 124.579063 
C 125.254844 124.579063 125.254844 124.579063 125.254844 124.579063 
C 125.254844 124.579063 125.254844 124.579063 125.254844 124.579063 
L 132.885739 118.316548 
C 132.680758 118.066778 132.463637 117.827222 132.235161 117.598745 
C 132.006685 117.370269 131.767129 117.153148 131.517358 116.948167 
z
" clip-path="url(#p9f02c4baf5)" style="fill: #d9d9d9"/>
   </g>
   <g id="patch_8">
    <path d="M 125.254844 124.579063 
C 125.254844 124.579063 125.254844 124.579063 125.254844 124.579063 
C 125.254844 124.579063 125.254844 124.579063 125.254844 124.579063 
L 125.254844 124.579063 
C 125.254844 124.579063 125.254844 124.579063 125.254844 124.579063 
C 125.254844 124.579063 125.254844 124.579063 125.254844 124.579063 
z
" clip-path="url(#p9f02c4baf5)" style="fill: #d9d9d9"/>
   </g>
   <g id="patch_9">
    <path d="M 125.254844 124.579063 
C 125.254844 124.579063 125.254844 124.579063 125.254844 124.579063 
C 125.254844 124.579063 125.254844 124.579063 125.254844 124.579063 
L 139.651459 120.211897 
C 139.508516 119.740674 139.342522 119.276754 139.154079 118.821811 
C 138.965635 118.366868 138.754969 117.921452 138.522841 117.48717 
z
" clip-path="url(#p9f02c4baf5)" style="fill: #d9d9d9"/>
   </g>
   <g id="patch_10">
    <path d="M 125.254844 124.579063 
C 125.254844 124.579063 125.254844 124.579063 125.254844 124.579063 
C 125.254844 124.579063 125.254844 124.579063 125.254844 124.579063 
L 133.530918 123.76394 
C 133.504237 123.493052 133.464273 123.223637 133.41117 122.956668 
C 133.358067 122.6897 133.291888 122.425499 133.212873 122.165021 
z
" clip-path="url(#p9f02c4baf5)" style="fill: #d9d9d9"/>
   </g>
   <g id="patch_11">
    <path d="M 125.254844 124.579063 
C 125.254844 124.579063 125.254844 124.579063 125.254844 124.579063 
C 125.254844 124.579063 125.254844 124.579063 125.254844 124.579063 
L 125.254844 124.579063 
C 125.254844 124.579063 125.254844 124.579063 125.254844 124.579063 
C 125.254844 124.579063 125.254844 124.579063 125.254844 124.579063 
z
" clip-path="url(#p9f02c4baf5)" style="fill: #d9d9d9"/>
   </g>
   <g id="patch_12">
    <path d="M 125.254844 124.579063 
C 125.254844 124.579063 125.254844 124.579063 125.254844 124.579063 
C 125.254844 124.579063 125.254844 124.579063 125.254844 124.579063 
L 140.239317 129.124553 
C 140.388097 128.634089 140.512708 128.136615 140.612698 127.63393 
C 140.712689 127.131244 140.787938 126.623952 140.838175 126.113887 
z
" clip-path="url(#p9f02c4baf5)" style="fill: #d9d9d9"/>
   </g>
   <g id="patch_13">
    <path d="M 125.254844 124.579063 
C 125.254844 124.579063 125.254844 124.579063 125.254844 124.579063 
C 125.254844 124.579063 125.254844 124.579063 125.254844 124.579063 
L 127.466177 125.761045 
C 127.504865 125.688664 127.539976 125.614428 127.571383 125.538604 
C 127.60279 125.462781 127.630456 125.385461 127.65428 125.306923 
z
" clip-path="url(#p9f02c4baf5)" style="fill: #d9d9d9"/>
   </g>
   <g id="patch_14">
    <path d="M 125.254844 124.579063 
C 125.254844 124.579063 125.254844 124.579063 125.254844 124.579063 
C 125.254844 124.579063 125.254844 124.579063 125.254844 124.579063 
L 125.254844 124.579063 
C 125.254844 124.579063 125.254844 124.579063 125.254844 124.579063 
C 125.254844 124.579063 125.254844 124.579063 125.254844 124.579063 
z
" clip-path="url(#p9f02c4baf5)" style="fill: #d9d9d9"/>
   </g>
   <g id="patch_15">
    <path d="M 125.254844 124.579063 
C 125.254844 124.579063 125.254844 124.579063 125.254844 124.579063 
C 125.254844 124.579063 125.254844 124.579063 125.254844 124.579063 
L 125.254844 124.579063 
C 125.254844 124.579063 125.254844 124.579063 125.254844 124.579063 
C 125.254844 124.579063 125.254844 124.579063 125.254844 124.579063 
z
" clip-path="url(#p9f02c4baf5)" style="fill: #d9d9d9"/>
   </g>
   <g id="patch_16">
    <path d="M 125.254844 124.579063 
C 125.254844 124.579063 125.254844 124.579063 125.254844 124.579063 
C 125.254844 124.579063 125.254844 124.579063 125.254844 124.579063 
L 125.254844 124.579063 
C 125.254844 124.579063 125.254844 124.579063 125.254844 124.579063 
C 125.254844 124.579063 125.254844 124.579063 125.254844 124.579063 
z
" clip-path="url(#p9f02c4baf5)" style="fill: #d9d9d9"/>
   </g>
   <g id="patch_17">
    <path d="M 125.254844 124.579063 
C 125.254844 124.579063 125.254844 124.579063 125.254844 124.579063 
C 125.254844 124.579063 125.254844 124.579063 125.254844 124.579063 
L 125.254844 124.579063 
C 125.254844 124.579063 125.254844 124.579063 125.254844 124.579063 
C 125.254844 124.579063 125.254844 124.579063 125.254844 124.579063 
z
" clip-path="url(#p9f02c4baf5)" style="fill: #d9d9d9"/>
   </g>
   <g id="patch_18">
    <path d="M 125.254844 124.579063 
C 125.254844 124.579063 125.254844 124.579063 125.254844 124.579063 
C 125.254844 124.579063 125.254844 124.579063 125.254844 124.579063 
L 125.254844 124.579063 
C 125.254844 124.579063 125.254844 124.579063 125.254844 124.579063 
C 125.254844 124.579063 125.254844 124.579063 125.254844 124.579063 
z
" clip-path="url(#p9f02c4baf5)" style="fill: #d9d9d9"/>
   </g>
   <g id="patch_19">
    <path d="M 125.254844 124.579063 
C 125.254844 124.579063 125.254844 124.579063 125.254844 124.579063 
C 125.254844 124.579063 125.254844 124.579063 125.254844 124.579063 
L 125.254844 124.579063 
C 125.254844 124.579063 125.254844 124.579063 125.254844 124.579063 
C 125.254844 124.579063 125.254844 124.579063 125.254844 124.579063 
z
" clip-path="url(#p9f02c4baf5)" style="fill: #d9d9d9"/>
   </g>
   <g id="patch_20">
    <path d="M 125.254844 124.579063 
C 125.254844 124.579063 125.254844 124.579063 125.254844 124.579063 
C 125.254844 124.579063 125.254844 124.579063 125.254844 124.579063 
L 125.254844 124.579063 
C 125.254844 124.579063 125.254844 124.579063 125.254844 124.579063 
C 125.254844 124.579063 125.254844 124.579063 125.254844 124.579063 
z
" clip-path="url(#p9f02c4baf5)" style="fill: #d9d9d9"/>
   </g>
   <g id="patch_21">
    <path d="M 125.254844 124.579063 
C 125.254844 124.579063 125.254844 124.579063 125.254844 124.579063 
C 125.254844 124.579063 125.254844 124.579063 125.254844 124.579063 
L 125.254844 124.579063 
C 125.254844 124.579063 125.254844 124.579063 125.254844 124.579063 
C 125.254844 124.579063 125.254844 124.579063 125.254844 124.579063 
z
" clip-path="url(#p9f02c4baf5)" style="fill: #d9d9d9"/>
   </g>
   <g id="patch_22">
    <path d="M 125.254844 124.579063 
C 125.254844 124.579063 125.254844 124.579063 125.254844 124.579063 
C 125.254844 124.579063 125.254844 124.579063 125.254844 124.579063 
L 125.254844 124.579063 
C 125.254844 124.579063 125.254844 124.579063 125.254844 124.579063 
C 125.254844 124.579063 125.254844 124.579063 125.254844 124.579063 
z
" clip-path="url(#p9f02c4baf5)" style="fill: #d9d9d9"/>
   </g>
   <g id="patch_23">
    <path d="M 125.254844 124.579063 
C 125.254844 124.579063 125.254844 124.579063 125.254844 124.579063 
C 125.254844 124.579063 125.254844 124.579063 125.254844 124.579063 
L 125.254844 124.579063 
C 125.254844 124.579063 125.254844 124.579063 125.254844 124.579063 
C 125.254844 124.579063 125.254844 124.579063 125.254844 124.579063 
z
" clip-path="url(#p9f02c4baf5)" style="fill: #d9d9d9"/>
   </g>
   <g id="patch_24">
    <path d="M 125.254844 124.579063 
C 125.254844 124.579063 125.254844 124.579063 125.254844 124.579063 
C 125.254844 124.579063 125.254844 124.579063 125.254844 124.579063 
L 125.254844 124.579063 
C 125.254844 124.579063 125.254844 124.579063 125.254844 124.579063 
C 125.254844 124.579063 125.254844 124.579063 125.254844 124.579063 
z
" clip-path="url(#p9f02c4baf5)" style="fill: #d9d9d9"/>
   </g>
   <g id="patch_25">
    <path d="M 125.254844 124.579063 
C 125.254844 124.579063 125.254844 124.579063 125.254844 124.579063 
C 125.254844 124.579063 125.254844 124.579063 125.254844 124.579063 
L 125.254844 124.579063 
C 125.254844 124.579063 125.254844 124.579063 125.254844 124.579063 
C 125.254844 124.579063 125.254844 124.579063 125.254844 124.579063 
z
" clip-path="url(#p9f02c4baf5)" style="fill: #d9d9d9"/>
   </g>
   <g id="patch_26">
    <path d="M 125.254844 124.579063 
C 125.254844 124.579063 125.254844 124.579063 125.254844 124.579063 
C 125.254844 124.579063 125.254844 124.579063 125.254844 124.579063 
L 125.254844 124.579063 
C 125.254844 124.579063 125.254844 124.579063 125.254844 124.579063 
C 125.254844 124.579063 125.254844 124.579063 125.254844 124.579063 
z
" clip-path="url(#p9f02c4baf5)" style="fill: #d9d9d9"/>
   </g>
   <g id="patch_27">
    <path d="M 125.254844 124.579063 
C 125.254844 124.579063 125.254844 124.579063 125.254844 124.579063 
C 125.254844 124.579063 125.254844 124.579063 125.254844 124.579063 
L 125.254844 124.579063 
C 125.254844 124.579063 125.254844 124.579063 125.254844 124.579063 
C 125.254844 124.579063 125.254844 124.579063 125.254844 124.579063 
z
" clip-path="url(#p9f02c4baf5)" style="fill: #d9d9d9"/>
   </g>
   <g id="patch_28">
    <path d="M 125.254844 124.579063 
C 125.254844 124.579063 125.254844 124.579063 125.254844 124.579063 
C 125.254844 124.579063 125.254844 124.579063 125.254844 124.579063 
L 125.254844 124.579063 
C 125.254844 124.579063 125.254844 124.579063 125.254844 124.579063 
C 125.254844 124.579063 125.254844 124.579063 125.254844 124.579063 
z
" clip-path="url(#p9f02c4baf5)" style="fill: #d9d9d9"/>
   </g>
   <g id="patch_29">
    <path d="M 125.254844 124.579063 
C 125.254844 124.579063 125.254844 124.579063 125.254844 124.579063 
C 125.254844 124.579063 125.254844 124.579063 125.254844 124.579063 
L 125.254844 124.579063 
C 125.254844 124.579063 125.254844 124.579063 125.254844 124.579063 
C 125.254844 124.579063 125.254844 124.579063 125.254844 124.579063 
z
" clip-path="url(#p9f02c4baf5)" style="fill: #d9d9d9"/>
   </g>
   <g id="patch_30">
    <path d="M 125.254844 124.579063 
C 125.254844 124.579063 125.254844 124.579063 125.254844 124.579063 
C 125.254844 124.579063 125.254844 124.579063 125.254844 124.579063 
L 125.254844 124.579063 
C 125.254844 124.579063 125.254844 124.579063 125.254844 124.579063 
C 125.254844 124.579063 125.254844 124.579063 125.254844 124.579063 
z
" clip-path="url(#p9f02c4baf5)" style="fill: #d9d9d9"/>
   </g>
   <g id="patch_31">
    <path d="M 125.254844 124.579063 
C 125.254844 124.579063 125.254844 124.579063 125.254844 124.579063 
C 125.254844 124.579063 125.254844 124.579063 125.254844 124.579063 
L 125.254844 124.579063 
C 125.254844 124.579063 125.254844 124.579063 125.254844 124.579063 
C 125.254844 124.579063 125.254844 124.579063 125.254844 124.579063 
z
" clip-path="url(#p9f02c4baf5)" style="fill: #d9d9d9"/>
   </g>
   <g id="patch_32">
    <path d="M 125.254844 124.579063 
C 125.254844 124.579063 125.254844 124.579063 125.254844 124.579063 
C 125.254844 124.579063 125.254844 124.579063 125.254844 124.579063 
L 125.254844 124.579063 
C 125.254844 124.579063 125.254844 124.579063 125.254844 124.579063 
C 125.254844 124.579063 125.254844 124.579063 125.254844 124.579063 
z
" clip-path="url(#p9f02c4baf5)" style="fill: #d9d9d9"/>
   </g>
   <g id="patch_33">
    <path d="M 125.254844 124.579063 
C 125.254844 124.579063 125.254844 124.579063 125.254844 124.579063 
C 125.254844 124.579063 125.254844 124.579063 125.254844 124.579063 
L 125.254844 124.579063 
C 125.254844 124.579063 125.254844 124.579063 125.254844 124.579063 
C 125.254844 124.579063 125.254844 124.579063 125.254844 124.579063 
z
" clip-path="url(#p9f02c4baf5)" style="fill: #d9d9d9"/>
   </g>
   <g id="patch_34">
    <path d="M 125.254844 124.579063 
C 125.254844 124.579063 125.254844 124.579063 125.254844 124.579063 
C 125.254844 124.579063 125.254844 124.579063 125.254844 124.579063 
L 124.604601 117.97704 
C 124.388507 117.998323 124.173588 118.030203 123.960621 118.072565 
C 123.747654 118.114927 123.536894 118.167719 123.329105 118.230752 
z
" clip-path="url(#p9f02c4baf5)" style="fill: #d9d9d9"/>
   </g>
   <g id="patch_35">
    <path d="M 125.254844 124.579063 
C 125.254844 124.579063 125.254844 124.579063 125.254844 124.579063 
C 125.254844 124.579063 125.254844 124.579063 125.254844 124.579063 
L 130.080302 75.585368 
C 128.476665 75.427423 126.86624 75.348308 125.254844 75.348308 
C 123.643448 75.348308 122.033023 75.427423 120.429386 75.585368 
z
" clip-path="url(#p9f02c4baf5)" style="fill: #a1a1d8"/>
   </g>
   <g id="patch_36">
    <path d="M 126.340128 113.559983 
C 126.700799 113.595506 127.059509 113.648716 127.414961 113.71942 
C 127.770413 113.790124 128.12218 113.878237 128.468991 113.98344 
L 137.924643 82.812332 
C 136.557556 82.39763 135.170931 82.050299 133.769779 81.771593 
C 132.368627 81.492886 130.954635 81.28314 129.532911 81.143113 
z
" clip-path="url(#p9f02c4baf5)" style="fill: #a1a1d8"/>
   </g>
   <g id="patch_37">
    <path d="M 131.168014 105.085952 
C 131.806053 105.279499 132.434204 105.504255 133.0502 105.759409 
C 133.666195 106.014562 134.269292 106.299806 134.857311 106.614109 
L 143.199963 91.006106 
C 142.10107 90.418735 140.974001 89.885671 139.822827 89.408839 
C 138.671653 88.932007 137.497762 88.511982 136.305394 88.150281 
z
" clip-path="url(#p9f02c4baf5)" style="fill: #a1a1d8"/>
   </g>
   <g id="patch_38">
    <path d="M 137.538361 101.598217 
C 138.290559 102.000275 139.022563 102.439021 139.73173 102.912872 
C 140.440897 103.386722 141.126371 103.895104 141.785678 104.436183 
L 152.132162 91.828955 
C 151.060202 90.94922 149.945696 90.122646 148.792669 89.352218 
C 147.639642 88.58179 146.449483 87.868436 145.226493 87.214735 
z
" clip-path="url(#p9f02c4baf5)" style="fill: #a1a1d8"/>
   </g>
   <g id="patch_39">
    <path d="M 131.517358 116.948167 
C 131.767129 117.153148 132.006685 117.370269 132.235161 117.598745 
C 132.463637 117.827222 132.680758 118.066778 132.885739 118.316548 
L 162.310402 94.168352 
C 161.315014 92.955468 160.260677 91.792186 159.151199 90.682708 
C 158.04172 89.573229 156.878438 88.518892 155.665555 87.523504 
z
" clip-path="url(#p9f02c4baf5)" style="fill: #a1a1d8"/>
   </g>
   <g id="patch_40">
    <path d="M 125.254844 124.579063 
C 125.254844 124.579063 125.254844 124.579063 125.254844 124.579063 
C 125.254844 124.579063 125.254844 124.579063 125.254844 124.579063 
L 152.473108 110.030597 
C 151.996915 109.139703 151.477269 108.272725 150.916046 107.432795 
C 150.354823 106.592866 149.7527 105.780997 149.111852 105.000122 
z
" clip-path="url(#p9f02c4baf5)" style="fill: #a1a1d8"/>
   </g>
   <g id="patch_41">
    <path d="M 138.522841 117.48717 
C 138.754969 117.921452 138.965635 118.366868 139.154079 118.821811 
C 139.342522 119.276754 139.508516 119.740674 139.651459 120.211897 
L 161.644092 113.540505 
C 161.282783 112.34943 160.863214 111.176813 160.386899 110.026889 
C 159.910585 108.876964 159.3781 107.751118 158.791367 106.653418 
z
" clip-path="url(#p9f02c4baf5)" style="fill: #a1a1d8"/>
   </g>
   <g id="patch_42">
    <path d="M 133.212873 122.165021 
C 133.291888 122.425499 133.358067 122.6897 133.41117 122.956668 
C 133.464273 123.223637 133.504237 123.493052 133.530918 123.76394 
L 175.192628 119.66062 
C 175.03164 118.026082 174.790498 116.400433 174.470072 114.789545 
C 174.149647 113.178657 173.750324 111.584472 173.273547 110.012748 
z
" clip-path="url(#p9f02c4baf5)" style="fill: #a1a1d8"/>
   </g>
   <g id="patch_43">
    <path d="M 125.254844 124.579063 
C 125.254844 124.579063 125.254844 124.579063 125.254844 124.579063 
C 125.254844 124.579063 125.254844 124.579063 125.254844 124.579063 
L 198.898795 131.832359 
C 199.136206 129.421882 199.255126 127.001202 199.255126 124.579063 
C 199.255126 122.156923 199.136206 119.736243 198.898795 117.325766 
z
" clip-path="url(#p9f02c4baf5)" style="fill: #a1a1d8"/>
   </g>
   <g id="patch_44">
    <path d="M 140.838175 126.113887 
C 140.787938 126.623952 140.712689 127.131244 140.612698 127.63393 
C 140.512708 128.136615 140.388097 128.634089 140.239317 129.124553 
L 202.727276 148.080068 
C 203.496499 145.54428 204.140759 142.972253 204.657727 140.373278 
C 205.174695 137.774303 205.563749 135.151513 205.823484 132.514381 
z
" clip-path="url(#p9f02c4baf5)" style="fill: #a1a1d8"/>
   </g>
   <g id="patch_45">
    <path d="M 127.65428 125.306923 
C 127.630456 125.385461 127.60279 125.462781 127.571383 125.538604 
C 127.539976 125.614428 127.504865 125.688664 127.466177 125.761045 
L 196.722302 162.779215 
C 197.97265 160.439978 199.107394 158.040763 200.122436 155.590235 
C 201.137478 153.139707 202.031594 150.64082 202.801555 148.1026 
z
" clip-path="url(#p9f02c4baf5)" style="fill: #a1a1d8"/>
   </g>
   <g id="patch_46">
    <path d="M 125.254844 124.579063 
C 125.254844 124.579063 125.254844 124.579063 125.254844 124.579063 
C 125.254844 124.579063 125.254844 124.579063 125.254844 124.579063 
L 179.056544 168.732977 
C 180.501768 166.971967 181.859659 165.141062 183.125315 163.246875 
C 184.39097 161.352688 185.562863 159.397503 186.636761 157.388381 
z
" clip-path="url(#p9f02c4baf5)" style="fill: #a1a1d8"/>
   </g>
   <g id="patch_47">
    <path d="M 125.254844 124.579063 
C 125.254844 124.579063 125.254844 124.579063 125.254844 124.579063 
C 125.254844 124.579063 125.254844 124.579063 125.254844 124.579063 
L 155.435879 161.35476 
C 156.639602 160.36689 157.794099 159.320515 158.895198 158.219416 
C 159.996297 157.118317 161.042671 155.963821 162.030541 154.760098 
z
" clip-path="url(#p9f02c4baf5)" style="fill: #a1a1d8"/>
   </g>
   <g id="patch_48">
    <path d="M 125.254844 124.579063 
C 125.254844 124.579063 125.254844 124.579063 125.254844 124.579063 
C 125.254844 124.579063 125.254844 124.579063 125.254844 124.579063 
L 136.216094 145.08612 
C 136.887321 144.727342 137.540528 144.335825 138.173356 143.912983 
C 138.806184 143.49014 139.417871 143.036483 140.006206 142.553649 
z
" clip-path="url(#p9f02c4baf5)" style="fill: #a1a1d8"/>
   </g>
   <g id="patch_49">
    <path d="M 125.254844 124.579063 
C 125.254844 124.579063 125.254844 124.579063 125.254844 124.579063 
C 125.254844 124.579063 125.254844 124.579063 125.254844 124.579063 
L 134.169283 153.966031 
C 135.131163 153.674249 136.078137 153.335416 137.006785 152.950757 
C 137.935432 152.566099 138.844635 152.136078 139.731108 151.662248 
z
" clip-path="url(#p9f02c4baf5)" style="fill: #a1a1d8"/>
   </g>
   <g id="patch_50">
    <path d="M 125.254844 124.579063 
C 125.254844 124.579063 125.254844 124.579063 125.254844 124.579063 
C 125.254844 124.579063 125.254844 124.579063 125.254844 124.579063 
L 127.266546 145.004219 
C 127.935092 144.938373 128.600002 144.839743 129.258875 144.708685 
C 129.917747 144.577627 130.569788 144.4143 131.212642 144.219292 
z
" clip-path="url(#p9f02c4baf5)" style="fill: #a1a1d8"/>
   </g>
   <g id="patch_51">
    <path d="M 125.254844 124.579063 
C 125.254844 124.579063 125.254844 124.579063 125.254844 124.579063 
C 125.254844 124.579063 125.254844 124.579063 125.254844 124.579063 
L 123.739825 139.96131 
C 124.243309 140.010899 124.748924 140.035738 125.254844 140.035738 
C 125.760764 140.035738 126.266379 140.010899 126.769863 139.96131 
z
" clip-path="url(#p9f02c4baf5)" style="fill: #a1a1d8"/>
   </g>
   <g id="patch_52">
    <path d="M 125.254844 124.579063 
C 125.254844 124.579063 125.254844 124.579063 125.254844 124.579063 
C 125.254844 124.579063 125.254844 124.579063 125.254844 124.579063 
L 125.254844 124.579063 
C 125.254844 124.579063 125.254844 124.579063 125.254844 124.579063 
C 125.254844 124.579063 125.254844 124.579063 125.254844 124.579063 
z
" clip-path="url(#p9f02c4baf5)" style="fill: #a1a1d8"/>
   </g>
   <g id="patch_53">
    <path d="M 125.254844 124.579063 
C 125.254844 124.579063 125.254844 124.579063 125.254844 124.579063 
C 125.254844 124.579063 125.254844 124.579063 125.254844 124.579063 
L 125.254844 124.579063 
C 125.254844 124.579063 125.254844 124.579063 125.254844 124.579063 
C 125.254844 124.579063 125.254844 124.579063 125.254844 124.579063 
z
" clip-path="url(#p9f02c4baf5)" style="fill: #a1a1d8"/>
   </g>
   <g id="patch_54">
    <path d="M 125.254844 124.579063 
C 125.254844 124.579063 125.254844 124.579063 125.254844 124.579063 
C 125.254844 124.579063 125.254844 124.579063 125.254844 124.579063 
L 125.254844 124.579063 
C 125.254844 124.579063 125.254844 124.579063 125.254844 124.579063 
C 125.254844 124.579063 125.254844 124.579063 125.254844 124.579063 
z
" clip-path="url(#p9f02c4baf5)" style="fill: #a1a1d8"/>
   </g>
   <g id="patch_55">
    <path d="M 125.254844 124.579063 
C 125.254844 124.579063 125.254844 124.579063 125.254844 124.579063 
C 125.254844 124.579063 125.254844 124.579063 125.254844 124.579063 
L 125.254844 124.579063 
C 125.254844 124.579063 125.254844 124.579063 125.254844 124.579063 
C 125.254844 124.579063 125.254844 124.579063 125.254844 124.579063 
z
" clip-path="url(#p9f02c4baf5)" style="fill: #a1a1d8"/>
   </g>
   <g id="patch_56">
    <path d="M 125.254844 124.579063 
C 125.254844 124.579063 125.254844 124.579063 125.254844 124.579063 
C 125.254844 124.579063 125.254844 124.579063 125.254844 124.579063 
L 125.254844 124.579063 
C 125.254844 124.579063 125.254844 124.579063 125.254844 124.579063 
C 125.254844 124.579063 125.254844 124.579063 125.254844 124.579063 
z
" clip-path="url(#p9f02c4baf5)" style="fill: #a1a1d8"/>
   </g>
   <g id="patch_57">
    <path d="M 125.254844 124.579063 
C 125.254844 124.579063 125.254844 124.579063 125.254844 124.579063 
C 125.254844 124.579063 125.254844 124.579063 125.254844 124.579063 
L 125.254844 124.579063 
C 125.254844 124.579063 125.254844 124.579063 125.254844 124.579063 
C 125.254844 124.579063 125.254844 124.579063 125.254844 124.579063 
z
" clip-path="url(#p9f02c4baf5)" style="fill: #a1a1d8"/>
   </g>
   <g id="patch_58">
    <path d="M 125.254844 124.579063 
C 125.254844 124.579063 125.254844 124.579063 125.254844 124.579063 
C 125.254844 124.579063 125.254844 124.579063 125.254844 124.579063 
L 125.254844 124.579063 
C 125.254844 124.579063 125.254844 124.579063 125.254844 124.579063 
C 125.254844 124.579063 125.254844 124.579063 125.254844 124.579063 
z
" clip-path="url(#p9f02c4baf5)" style="fill: #a1a1d8"/>
   </g>
   <g id="patch_59">
    <path d="M 125.254844 124.579063 
C 125.254844 124.579063 125.254844 124.579063 125.254844 124.579063 
C 125.254844 124.579063 125.254844 124.579063 125.254844 124.579063 
L 105.765693 122.659549 
C 105.702864 123.297458 105.671393 123.938067 105.671393 124.579063 
C 105.671393 125.220058 105.702864 125.860667 105.765693 126.498576 
z
" clip-path="url(#p9f02c4baf5)" style="fill: #a1a1d8"/>
   </g>
   <g id="patch_60">
    <path d="M 125.254844 124.579063 
C 125.254844 124.579063 125.254844 124.579063 125.254844 124.579063 
C 125.254844 124.579063 125.254844 124.579063 125.254844 124.579063 
L 119.627668 122.872077 
C 119.571796 123.056263 119.525 123.243081 119.48745 123.431857 
C 119.449901 123.620632 119.421642 123.811137 119.402776 124.002684 
z
" clip-path="url(#p9f02c4baf5)" style="fill: #a1a1d8"/>
   </g>
   <g id="patch_61">
    <path d="M 125.254844 124.579063 
C 125.254844 124.579063 125.254844 124.579063 125.254844 124.579063 
C 125.254844 124.579063 125.254844 124.579063 125.254844 124.579063 
L 107.495211 115.086341 
C 107.1845 115.66764 106.902516 116.263844 106.650279 116.872799 
C 106.398041 117.481755 106.175854 118.102727 105.984519 118.733473 
z
" clip-path="url(#p9f02c4baf5)" style="fill: #a1a1d8"/>
   </g>
   <g id="patch_62">
    <path d="M 125.254844 124.579063 
C 125.254844 124.579063 125.254844 124.579063 125.254844 124.579063 
C 125.254844 124.579063 125.254844 124.579063 125.254844 124.579063 
L 116.918118 117.737288 
C 116.694176 118.010162 116.483767 118.293866 116.28765 118.587375 
C 116.091533 118.880885 115.909945 119.183846 115.743541 119.495166 
z
" clip-path="url(#p9f02c4baf5)" style="fill: #a1a1d8"/>
   </g>
   <g id="patch_63">
    <path d="M 125.254844 124.579063 
C 125.254844 124.579063 125.254844 124.579063 125.254844 124.579063 
C 125.254844 124.579063 125.254844 124.579063 125.254844 124.579063 
L 114.763587 111.795429 
C 114.34516 112.138824 113.943844 112.502555 113.56109 112.885309 
C 113.178336 113.268063 112.814605 113.669379 112.471211 114.087806 
z
" clip-path="url(#p9f02c4baf5)" style="fill: #a1a1d8"/>
   </g>
   <g id="patch_64">
    <path d="M 125.254844 124.579063 
C 125.254844 124.579063 125.254844 124.579063 125.254844 124.579063 
C 125.254844 124.579063 125.254844 124.579063 125.254844 124.579063 
L 109.57408 95.242417 
C 108.613848 95.755672 107.679394 96.315762 106.774093 96.920664 
C 105.868792 97.525567 104.993736 98.174553 104.152086 98.865277 
z
" clip-path="url(#p9f02c4baf5)" style="fill: #a1a1d8"/>
   </g>
   <g id="patch_65">
    <path d="M 125.254844 124.579063 
C 125.254844 124.579063 125.254844 124.579063 125.254844 124.579063 
C 125.254844 124.579063 125.254844 124.579063 125.254844 124.579063 
L 115.328144 91.855118 
C 114.25704 92.180034 113.202535 92.557342 112.168436 92.98568 
C 111.134338 93.414018 110.121893 93.892868 109.134758 94.420503 
z
" clip-path="url(#p9f02c4baf5)" style="fill: #a1a1d8"/>
   </g>
   <g id="patch_66">
    <path d="M 123.329105 118.230752 
C 123.536894 118.167719 123.747654 118.114927 123.960621 118.072565 
C 124.173588 118.030203 124.388507 117.998323 124.604601 117.97704 
L 121.630278 87.778231 
C 120.425732 87.896869 119.227737 88.074574 118.040619 88.310707 
C 116.853502 88.546839 115.678693 88.841113 114.520437 89.192467 
z
" clip-path="url(#p9f02c4baf5)" style="fill: #a1a1d8"/>
   </g>
   <g id="patch_67">
    <path d="M 120.429386 75.585368 
C 122.033023 75.427423 123.643448 75.348308 125.254844 75.348308 
C 126.86624 75.348308 128.476665 75.427423 130.080302 75.585368 
L 134.615045 29.543342 
C 131.504384 29.236969 128.380556 29.083505 125.254844 29.083505 
C 122.129132 29.083505 119.005303 29.236969 115.894642 29.543342 
z
" clip-path="url(#p9f02c4baf5)" style="fill: #ff8c8e"/>
   </g>
   <g id="patch_68">
    <path d="M 129.532911 81.143113 
C 130.954635 81.28314 132.368627 81.492886 133.769779 81.771593 
C 135.170931 82.050299 136.557556 82.39763 137.924643 82.812332 
L 154.640961 27.706015 
C 151.470162 26.744163 148.254049 25.938569 145.00424 25.292142 
C 141.754431 24.645715 138.474843 24.159234 135.177321 23.834456 
z
" clip-path="url(#p9f02c4baf5)" style="fill: #ff8c8e"/>
   </g>
   <g id="patch_69">
    <path d="M 136.305394 88.150281 
C 137.497762 88.511982 138.671653 88.932007 139.822827 89.408839 
C 140.974001 89.885671 142.10107 90.418735 143.199963 91.006106 
L 171.954355 37.210423 
C 169.094649 35.681878 166.161619 34.294658 163.16586 33.053774 
C 160.1701 31.81289 157.115223 30.719837 154.012261 29.778564 
z
" clip-path="url(#p9f02c4baf5)" style="fill: #ff8c8e"/>
   </g>
   <g id="patch_70">
    <path d="M 145.226493 87.214735 
C 146.449483 87.868436 147.639642 88.58179 148.792669 89.352218 
C 149.945696 90.122646 151.060202 90.94922 152.132162 91.828955 
L 189.848998 45.870858 
C 187.272761 43.756595 184.594272 41.770092 181.823206 39.918525 
C 179.052141 38.066958 176.191838 36.352559 173.25263 34.781519 
z
" clip-path="url(#p9f02c4baf5)" style="fill: #ff8c8e"/>
   </g>
   <g id="patch_71">
    <path d="M 155.665555 87.523504 
C 156.878438 88.518892 158.04172 89.573229 159.151199 90.682708 
C 160.260677 91.792186 161.315014 92.955468 162.310402 94.168352 
L 195.300507 67.094072 
C 193.418937 64.801373 191.425937 62.602436 189.328704 60.505203 
C 187.23147 58.40797 185.032533 56.414969 182.739834 54.533399 
z
" clip-path="url(#p9f02c4baf5)" style="fill: #ff8c8e"/>
   </g>
   <g id="patch_72">
    <path d="M 149.111852 105.000122 
C 149.7527 105.780997 150.354823 106.592866 150.916046 107.432795 
C 151.477269 108.272725 151.996915 109.139703 152.473108 110.030597 
L 199.375738 84.960619 
C 198.078967 82.534532 196.663864 80.173574 195.135539 77.886275 
C 193.607214 75.598975 191.967511 73.388091 190.222351 71.261607 
z
" clip-path="url(#p9f02c4baf5)" style="fill: #ff8c8e"/>
   </g>
   <g id="patch_73">
    <path d="M 158.791367 106.653418 
C 159.3781 107.751118 159.910585 108.876964 160.386899 110.026889 
C 160.863214 111.176813 161.282783 112.34943 161.644092 113.540505 
L 182.162464 107.316325 
C 181.597429 105.453653 180.941282 103.619846 180.196394 101.821527 
C 179.451506 100.023208 178.618774 98.262545 177.701207 96.545897 
z
" clip-path="url(#p9f02c4baf5)" style="fill: #ff8c8e"/>
   </g>
   <g id="patch_74">
    <path d="M 173.273547 110.012748 
C 173.750324 111.584472 174.149647 113.178657 174.470072 114.789545 
C 174.790498 116.400433 175.03164 118.026082 175.192628 119.66062 
L 193.272618 117.879896 
C 193.053344 115.653573 192.724896 113.439357 192.288461 111.245247 
C 191.852025 109.051137 191.308127 106.879777 190.658733 104.73901 
z
" clip-path="url(#p9f02c4baf5)" style="fill: #ff8c8e"/>
   </g>
   <g id="patch_75">
    <path d="M 198.898795 117.325766 
C 199.136206 119.736243 199.255126 122.156923 199.255126 124.579063 
C 199.255126 127.001202 199.136206 129.421882 198.898795 131.832359 
L 214.163563 133.335807 
C 214.450184 130.425692 214.593754 127.503258 214.593754 124.579063 
C 214.593754 121.654867 214.450184 118.732433 214.163563 115.822318 
z
" clip-path="url(#p9f02c4baf5)" style="fill: #ff8c8e"/>
   </g>
   <g id="patch_76">
    <path d="M 205.823484 132.514381 
C 205.563749 135.151513 205.174695 137.774303 204.657727 140.373278 
C 204.140759 142.972253 203.496499 145.54428 202.727276 148.080068 
L 210.1386 150.328268 
C 210.98141 147.549896 211.687301 144.731819 212.253725 141.884216 
C 212.820148 139.036613 213.246421 136.162916 213.531003 133.273505 
z
" clip-path="url(#p9f02c4baf5)" style="fill: #ff8c8e"/>
   </g>
   <g id="patch_77">
    <path d="M 202.801555 148.1026 
C 202.031594 150.64082 201.137478 153.139707 200.122436 155.590235 
C 199.107394 158.040763 197.97265 160.439978 196.722302 162.779215 
L 200.423898 164.757759 
C 201.739007 162.297364 202.932525 159.773883 204.00014 157.196432 
C 205.067755 154.618981 206.008181 151.990666 206.818021 149.320982 
z
" clip-path="url(#p9f02c4baf5)" style="fill: #ff8c8e"/>
   </g>
   <g id="patch_78">
    <path d="M 186.636761 157.388381 
C 185.562863 159.397503 184.39097 161.352688 183.125315 163.246875 
C 181.859659 165.141062 180.501768 166.971967 179.056544 168.732977 
L 179.335131 168.961607 
C 180.787838 167.191478 182.152761 165.351093 183.424969 163.447098 
C 184.697178 161.543103 185.875139 159.577793 186.954598 157.558268 
z
" clip-path="url(#p9f02c4baf5)" style="fill: #ff8c8e"/>
   </g>
   <g id="patch_79">
    <path d="M 162.030541 154.760098 
C 161.042671 155.963821 159.996297 157.118317 158.895198 158.219416 
C 157.794099 159.320515 156.639602 160.36689 155.435879 161.35476 
L 155.435879 161.35476 
C 156.639602 160.36689 157.794099 159.320515 158.895198 158.219416 
C 159.996297 157.118317 161.042671 155.963821 162.030541 154.760098 
z
" clip-path="url(#p9f02c4baf5)" style="fill: #ff8c8e"/>
   </g>
   <g id="patch_80">
    <path d="M 140.006206 142.553649 
C 139.417871 143.036483 138.806184 143.49014 138.173356 143.912983 
C 137.540528 144.335825 136.887321 144.727342 136.216094 145.08612 
L 136.216094 145.08612 
C 136.887321 144.727342 137.540528 144.335825 138.173356 143.912983 
C 138.806184 143.49014 139.417871 143.036483 140.006206 142.553649 
z
" clip-path="url(#p9f02c4baf5)" style="fill: #ff8c8e"/>
   </g>
   <g id="patch_81">
    <path d="M 139.731108 151.662248 
C 138.844635 152.136078 137.935432 152.566099 137.006785 152.950757 
C 136.078137 153.335416 135.131163 153.674249 134.169283 153.966031 
L 134.169283 153.966031 
C 135.131163 153.674249 136.078137 153.335416 137.006785 152.950757 
C 137.935432 152.566099 138.844635 152.136078 139.731108 151.662248 
z
" clip-path="url(#p9f02c4baf5)" style="fill: #ff8c8e"/>
   </g>
   <g id="patch_82">
    <path d="M 131.212642 144.219292 
C 130.569788 144.4143 129.917747 144.577627 129.258875 144.708685 
C 128.600002 144.839743 127.935092 144.938373 127.266546 145.004219 
L 127.266546 145.004219 
C 127.935092 144.938373 128.600002 144.839743 129.258875 144.708685 
C 129.917747 144.577627 130.569788 144.4143 131.212642 144.219292 
z
" clip-path="url(#p9f02c4baf5)" style="fill: #ff8c8e"/>
   </g>
   <g id="patch_83">
    <path d="M 126.769863 139.96131 
C 126.266379 140.010899 125.760764 140.035738 125.254844 140.035738 
C 124.748924 140.035738 124.243309 140.010899 123.739825 139.96131 
L 123.739825 139.96131 
C 124.243309 140.010899 124.748924 140.035738 125.254844 140.035738 
C 125.760764 140.035738 126.266379 140.010899 126.769863 139.96131 
z
" clip-path="url(#p9f02c4baf5)" style="fill: #ff8c8e"/>
   </g>
   <g id="patch_84">
    <path d="M 125.254844 124.579063 
C 125.254844 124.579063 125.254844 124.579063 125.254844 124.579063 
C 125.254844 124.579063 125.254844 124.579063 125.254844 124.579063 
L 125.254844 124.579063 
C 125.254844 124.579063 125.254844 124.579063 125.254844 124.579063 
C 125.254844 124.579063 125.254844 124.579063 125.254844 124.579063 
z
" clip-path="url(#p9f02c4baf5)" style="fill: #ff8c8e"/>
   </g>
   <g id="patch_85">
    <path d="M 125.254844 124.579063 
C 125.254844 124.579063 125.254844 124.579063 125.254844 124.579063 
C 125.254844 124.579063 125.254844 124.579063 125.254844 124.579063 
L 125.254844 124.579063 
C 125.254844 124.579063 125.254844 124.579063 125.254844 124.579063 
C 125.254844 124.579063 125.254844 124.579063 125.254844 124.579063 
z
" clip-path="url(#p9f02c4baf5)" style="fill: #ff8c8e"/>
   </g>
   <g id="patch_86">
    <path d="M 125.254844 124.579063 
C 125.254844 124.579063 125.254844 124.579063 125.254844 124.579063 
C 125.254844 124.579063 125.254844 124.579063 125.254844 124.579063 
L 125.254844 124.579063 
C 125.254844 124.579063 125.254844 124.579063 125.254844 124.579063 
C 125.254844 124.579063 125.254844 124.579063 125.254844 124.579063 
z
" clip-path="url(#p9f02c4baf5)" style="fill: #ff8c8e"/>
   </g>
   <g id="patch_87">
    <path d="M 125.254844 124.579063 
C 125.254844 124.579063 125.254844 124.579063 125.254844 124.579063 
C 125.254844 124.579063 125.254844 124.579063 125.254844 124.579063 
L 125.254844 124.579063 
C 125.254844 124.579063 125.254844 124.579063 125.254844 124.579063 
C 125.254844 124.579063 125.254844 124.579063 125.254844 124.579063 
z
" clip-path="url(#p9f02c4baf5)" style="fill: #ff8c8e"/>
   </g>
   <g id="patch_88">
    <path d="M 125.254844 124.579063 
C 125.254844 124.579063 125.254844 124.579063 125.254844 124.579063 
C 125.254844 124.579063 125.254844 124.579063 125.254844 124.579063 
L 125.254844 124.579063 
C 125.254844 124.579063 125.254844 124.579063 125.254844 124.579063 
C 125.254844 124.579063 125.254844 124.579063 125.254844 124.579063 
z
" clip-path="url(#p9f02c4baf5)" style="fill: #ff8c8e"/>
   </g>
   <g id="patch_89">
    <path d="M 125.254844 124.579063 
C 125.254844 124.579063 125.254844 124.579063 125.254844 124.579063 
C 125.254844 124.579063 125.254844 124.579063 125.254844 124.579063 
L 125.254844 124.579063 
C 125.254844 124.579063 125.254844 124.579063 125.254844 124.579063 
C 125.254844 124.579063 125.254844 124.579063 125.254844 124.579063 
z
" clip-path="url(#p9f02c4baf5)" style="fill: #ff8c8e"/>
   </g>
   <g id="patch_90">
    <path d="M 125.254844 124.579063 
C 125.254844 124.579063 125.254844 124.579063 125.254844 124.579063 
C 125.254844 124.579063 125.254844 124.579063 125.254844 124.579063 
L 125.254844 124.579063 
C 125.254844 124.579063 125.254844 124.579063 125.254844 124.579063 
C 125.254844 124.579063 125.254844 124.579063 125.254844 124.579063 
z
" clip-path="url(#p9f02c4baf5)" style="fill: #ff8c8e"/>
   </g>
   <g id="patch_91">
    <path d="M 105.765693 126.498576 
C 105.702864 125.860667 105.671393 125.220058 105.671393 124.579063 
C 105.671393 123.938067 105.702864 123.297458 105.765693 122.659549 
L 93.592654 121.460609 
C 93.490583 122.49696 93.439455 123.537697 93.439455 124.579062 
C 93.439455 125.620428 93.490583 126.661165 93.592654 127.697516 
z
" clip-path="url(#p9f02c4baf5)" style="fill: #ff8c8e"/>
   </g>
   <g id="patch_92">
    <path d="M 119.402776 124.002684 
C 119.421642 123.811137 119.449901 123.620632 119.48745 123.431857 
C 119.525 123.243081 119.571796 123.056263 119.627668 122.872077 
L 113.138286 120.903545 
C 113.017981 121.300138 112.91722 121.702399 112.836367 122.108874 
C 112.755514 122.515349 112.694667 122.925549 112.654045 123.337992 
z
" clip-path="url(#p9f02c4baf5)" style="fill: #ff8c8e"/>
   </g>
   <g id="patch_93">
    <path d="M 105.984519 118.733473 
C 106.175854 118.102727 106.398041 117.481755 106.650279 116.872799 
C 106.902516 116.263844 107.1845 115.66764 107.495211 115.086341 
L 105.108642 113.810694 
C 104.756178 114.470109 104.436301 115.146432 104.150167 115.837219 
C 103.864034 116.528007 103.611988 117.232426 103.394941 117.947934 
z
" clip-path="url(#p9f02c4baf5)" style="fill: #ff8c8e"/>
   </g>
   <g id="patch_94">
    <path d="M 115.743541 119.495166 
C 115.909945 119.183846 116.091533 118.880885 116.28765 118.587375 
C 116.483767 118.293866 116.694176 118.010162 116.918118 117.737288 
L 108.413252 110.757525 
C 107.960852 111.308776 107.53579 111.881905 107.139601 112.474844 
C 106.743412 113.067783 106.376573 113.679817 106.04041 114.308734 
z
" clip-path="url(#p9f02c4baf5)" style="fill: #ff8c8e"/>
   </g>
   <g id="patch_95">
    <path d="M 112.471211 114.087806 
C 112.814605 113.669379 113.178336 113.268063 113.56109 112.885309 
C 113.943844 112.502555 114.34516 112.138824 114.763587 111.795429 
L 94.719583 87.37174 
C 93.501732 88.371205 92.333686 89.42986 91.219664 90.543883 
C 90.105642 91.657905 89.046986 92.825951 88.047521 94.043802 
z
" clip-path="url(#p9f02c4baf5)" style="fill: #ff8c8e"/>
   </g>
   <g id="patch_96">
    <path d="M 104.152086 98.865277 
C 104.993736 98.174553 105.868792 97.525567 106.774093 96.920664 
C 107.679394 96.315762 108.613848 95.755672 109.57408 95.242417 
L 96.302315 70.41269 
C 94.529368 71.36035 92.804018 72.394485 91.132496 73.51136 
C 89.460974 74.628236 87.845295 75.826505 86.291294 77.10184 
z
" clip-path="url(#p9f02c4baf5)" style="fill: #ff8c8e"/>
   </g>
   <g id="patch_97">
    <path d="M 109.134758 94.420503 
C 110.121893 93.892868 111.134338 93.414018 112.168436 92.98568 
C 113.202535 92.557342 114.25704 92.180034 115.328144 91.855118 
L 103.607863 53.21853 
C 101.272126 53.927068 98.972584 54.749857 96.717544 55.683926 
C 94.462503 56.617994 92.254682 57.662216 90.102054 58.812819 
z
" clip-path="url(#p9f02c4baf5)" style="fill: #ff8c8e"/>
   </g>
   <g id="patch_98">
    <path d="M 114.520437 89.192467 
C 115.678693 88.841113 116.853502 88.546839 118.040619 88.310707 
C 119.227737 88.074574 120.425732 87.896869 121.630278 87.778231 
L 121.419752 85.640718 
C 120.145241 85.766246 118.877663 85.954274 117.621593 86.204122 
C 116.365524 86.453969 115.122479 86.765336 113.896948 87.137097 
z
" clip-path="url(#p9f02c4baf5)" style="fill: #ff8c8e"/>
   </g>
   <g id="patch_99">
    <path d="M 115.894642 29.543342 
C 119.005303 29.236969 122.129132 29.083505 125.254844 29.083505 
C 128.380556 29.083505 131.504384 29.236969 134.615045 29.543342 
L 136.064471 14.82708 
C 132.472124 14.473265 128.864572 14.296037 125.254844 14.296037 
C 121.645116 14.296037 118.037563 14.473265 114.445217 14.82708 
z
" clip-path="url(#p9f02c4baf5)" style="fill: #828282"/>
   </g>
   <g id="patch_100">
    <path d="M 135.177321 23.834456 
C 138.474843 24.159234 141.754431 24.645715 145.00424 25.292142 
C 148.254049 25.938569 151.470162 26.744163 154.640961 27.706015 
L 157.313793 18.894872 
C 153.854591 17.845534 150.345955 16.966667 146.800558 16.261443 
C 143.25516 15.55622 139.677275 15.025491 136.079826 14.671173 
z
" clip-path="url(#p9f02c4baf5)" style="fill: #828282"/>
   </g>
   <g id="patch_101">
    <path d="M 154.012261 29.778564 
C 157.115223 30.719837 160.1701 31.81289 163.16586 33.053774 
C 166.161619 34.294658 169.094649 35.681878 171.954355 37.210423 
L 177.523314 26.791632 
C 174.322586 25.080807 171.039789 23.52816 167.686783 22.139299 
C 164.333777 20.750439 160.914602 19.527038 157.441609 18.473518 
z
" clip-path="url(#p9f02c4baf5)" style="fill: #828282"/>
   </g>
   <g id="patch_102">
    <path d="M 173.25263 34.781519 
C 176.191838 36.352559 179.052141 38.066958 181.823206 39.918525 
C 184.594272 41.770092 187.272761 43.756595 189.848998 45.870858 
L 193.635595 41.256875 
C 190.908336 39.018671 188.07283 36.915717 185.139321 34.955609 
C 182.205812 32.9955 179.177834 31.180601 176.066326 29.517465 
z
" clip-path="url(#p9f02c4baf5)" style="fill: #828282"/>
   </g>
   <g id="patch_103">
    <path d="M 182.739834 54.533399 
C 185.032533 56.414969 187.23147 58.40797 189.328704 60.505203 
C 191.425937 62.602436 193.418937 64.801373 195.300507 67.094072 
L 197.881026 64.976295 
C 195.930139 62.599131 193.863715 60.319184 191.689219 58.144688 
C 189.514722 55.970191 187.234775 53.903767 184.857612 51.95288 
z
" clip-path="url(#p9f02c4baf5)" style="fill: #828282"/>
   </g>
   <g id="patch_104">
    <path d="M 190.222351 71.261607 
C 191.967511 73.388091 193.607214 75.598975 195.135539 77.886275 
C 196.663864 80.173574 198.078967 82.534532 199.375738 84.960619 
L 201.617901 83.762158 
C 200.281902 81.262681 198.823992 78.830305 197.249435 76.473814 
C 195.674879 74.117324 193.985574 71.83956 192.187623 69.64875 
z
" clip-path="url(#p9f02c4baf5)" style="fill: #828282"/>
   </g>
   <g id="patch_105">
    <path d="M 177.701207 96.545897 
C 178.618774 98.262545 179.451506 100.023208 180.196394 101.821527 
C 180.941282 103.619846 181.597429 105.453653 182.162464 107.316325 
L 183.413331 106.936878 
C 182.835876 105.033264 182.165306 103.159149 181.404045 101.321302 
C 180.642784 99.483455 179.791748 97.684091 178.854012 95.92971 
z
" clip-path="url(#p9f02c4baf5)" style="fill: #828282"/>
   </g>
   <g id="patch_106">
    <path d="M 190.658733 104.73901 
C 191.308127 106.879777 191.852025 109.051137 192.288461 111.245247 
C 192.724896 113.439357 193.053344 115.653573 193.272618 117.879896 
L 193.272618 117.879896 
C 193.053344 115.653573 192.724896 113.439357 192.288461 111.245247 
C 191.852025 109.051137 191.308127 106.879777 190.658733 104.73901 
z
" clip-path="url(#p9f02c4baf5)" style="fill: #828282"/>
   </g>
   <g id="patch_107">
    <path d="M 214.163563 115.822318 
C 214.450184 118.732433 214.593754 121.654867 214.593754 124.579063 
C 214.593754 127.503258 214.450184 130.425692 214.163563 133.335807 
L 214.163563 133.335807 
C 214.450184 130.425692 214.593754 127.503258 214.593754 124.579063 
C 214.593754 121.654867 214.450184 118.732433 214.163563 115.822318 
z
" clip-path="url(#p9f02c4baf5)" style="fill: #828282"/>
   </g>
   <g id="patch_108">
    <path d="M 213.531003 133.273505 
C 213.246421 136.162916 212.820148 139.036613 212.253725 141.884216 
C 211.687301 144.731819 210.98141 147.549896 210.1386 150.328268 
L 210.1386 150.328268 
C 210.98141 147.549896 211.687301 144.731819 212.253725 141.884216 
C 212.820148 139.036613 213.246421 136.162916 213.531003 133.273505 
z
" clip-path="url(#p9f02c4baf5)" style="fill: #828282"/>
   </g>
   <g id="patch_109">
    <path d="M 206.818021 149.320982 
C 206.008181 151.990666 205.067755 154.618981 204.00014 157.196432 
C 202.932525 159.773883 201.739007 162.297364 200.423898 164.757759 
L 200.423898 164.757759 
C 201.739007 162.297364 202.932525 159.773883 204.00014 157.196432 
C 205.067755 154.618981 206.008181 151.990666 206.818021 149.320982 
z
" clip-path="url(#p9f02c4baf5)" style="fill: #828282"/>
   </g>
   <g id="patch_110">
    <path d="M 186.954598 157.558268 
C 185.875139 159.577793 184.697178 161.543103 183.424969 163.447098 
C 182.152761 165.351093 180.787838 167.191478 179.335131 168.961607 
L 179.335131 168.961607 
C 180.787838 167.191478 182.152761 165.351093 183.424969 163.447098 
C 184.697178 161.543103 185.875139 159.577793 186.954598 157.558268 
z
" clip-path="url(#p9f02c4baf5)" style="fill: #828282"/>
   </g>
   <g id="patch_111">
    <path d="M 162.030541 154.760098 
C 161.042671 155.963821 159.996297 157.118317 158.895198 158.219416 
C 157.794099 159.320515 156.639602 160.36689 155.435879 161.35476 
L 155.435879 161.35476 
C 156.639602 160.36689 157.794099 159.320515 158.895198 158.219416 
C 159.996297 157.118317 161.042671 155.963821 162.030541 154.760098 
z
" clip-path="url(#p9f02c4baf5)" style="fill: #828282"/>
   </g>
   <g id="patch_112">
    <path d="M 140.006206 142.553649 
C 139.417871 143.036483 138.806184 143.49014 138.173356 143.912983 
C 137.540528 144.335825 136.887321 144.727342 136.216094 145.08612 
L 136.216094 145.08612 
C 136.887321 144.727342 137.540528 144.335825 138.173356 143.912983 
C 138.806184 143.49014 139.417871 143.036483 140.006206 142.553649 
z
" clip-path="url(#p9f02c4baf5)" style="fill: #828282"/>
   </g>
   <g id="patch_113">
    <path d="M 139.731108 151.662248 
C 138.844635 152.136078 137.935432 152.566099 137.006785 152.950757 
C 136.078137 153.335416 135.131163 153.674249 134.169283 153.966031 
L 134.169283 153.966031 
C 135.131163 153.674249 136.078137 153.335416 137.006785 152.950757 
C 137.935432 152.566099 138.844635 152.136078 139.731108 151.662248 
z
" clip-path="url(#p9f02c4baf5)" style="fill: #828282"/>
   </g>
   <g id="patch_114">
    <path d="M 131.212642 144.219292 
C 130.569788 144.4143 129.917747 144.577627 129.258875 144.708685 
C 128.600002 144.839743 127.935092 144.938373 127.266546 145.004219 
L 127.266546 145.004219 
C 127.935092 144.938373 128.600002 144.839743 129.258875 144.708685 
C 129.917747 144.577627 130.569788 144.4143 131.212642 144.219292 
z
" clip-path="url(#p9f02c4baf5)" style="fill: #828282"/>
   </g>
   <g id="patch_115">
    <path d="M 126.769863 139.96131 
C 126.266379 140.010899 125.760764 140.035738 125.254844 140.035738 
C 124.748924 140.035738 124.243309 140.010899 123.739825 139.96131 
L 123.739825 139.96131 
C 124.243309 140.010899 124.748924 140.035738 125.254844 140.035738 
C 125.760764 140.035738 126.266379 140.010899 126.769863 139.96131 
z
" clip-path="url(#p9f02c4baf5)" style="fill: #828282"/>
   </g>
   <g id="patch_116">
    <path d="M 125.254844 124.579063 
C 125.254844 124.579063 125.254844 124.579063 125.254844 124.579063 
C 125.254844 124.579063 125.254844 124.579063 125.254844 124.579063 
L 125.254844 124.579063 
C 125.254844 124.579063 125.254844 124.579063 125.254844 124.579063 
C 125.254844 124.579063 125.254844 124.579063 125.254844 124.579063 
z
" clip-path="url(#p9f02c4baf5)" style="fill: #828282"/>
   </g>
   <g id="patch_117">
    <path d="M 125.254844 124.579063 
C 125.254844 124.579063 125.254844 124.579063 125.254844 124.579063 
C 125.254844 124.579063 125.254844 124.579063 125.254844 124.579063 
L 125.254844 124.579063 
C 125.254844 124.579063 125.254844 124.579063 125.254844 124.579063 
C 125.254844 124.579063 125.254844 124.579063 125.254844 124.579063 
z
" clip-path="url(#p9f02c4baf5)" style="fill: #828282"/>
   </g>
   <g id="patch_118">
    <path d="M 125.254844 124.579063 
C 125.254844 124.579063 125.254844 124.579063 125.254844 124.579063 
C 125.254844 124.579063 125.254844 124.579063 125.254844 124.579063 
L 125.254844 124.579063 
C 125.254844 124.579063 125.254844 124.579063 125.254844 124.579063 
C 125.254844 124.579063 125.254844 124.579063 125.254844 124.579063 
z
" clip-path="url(#p9f02c4baf5)" style="fill: #828282"/>
   </g>
   <g id="patch_119">
    <path d="M 125.254844 124.579063 
C 125.254844 124.579063 125.254844 124.579063 125.254844 124.579063 
C 125.254844 124.579063 125.254844 124.579063 125.254844 124.579063 
L 125.254844 124.579063 
C 125.254844 124.579063 125.254844 124.579063 125.254844 124.579063 
C 125.254844 124.579063 125.254844 124.579063 125.254844 124.579063 
z
" clip-path="url(#p9f02c4baf5)" style="fill: #828282"/>
   </g>
   <g id="patch_120">
    <path d="M 125.254844 124.579063 
C 125.254844 124.579063 125.254844 124.579063 125.254844 124.579063 
C 125.254844 124.579063 125.254844 124.579063 125.254844 124.579063 
L 125.254844 124.579063 
C 125.254844 124.579063 125.254844 124.579063 125.254844 124.579063 
C 125.254844 124.579063 125.254844 124.579063 125.254844 124.579063 
z
" clip-path="url(#p9f02c4baf5)" style="fill: #828282"/>
   </g>
   <g id="patch_121">
    <path d="M 125.254844 124.579063 
C 125.254844 124.579063 125.254844 124.579063 125.254844 124.579063 
C 125.254844 124.579063 125.254844 124.579063 125.254844 124.579063 
L 125.254844 124.579063 
C 125.254844 124.579063 125.254844 124.579063 125.254844 124.579063 
C 125.254844 124.579063 125.254844 124.579063 125.254844 124.579063 
z
" clip-path="url(#p9f02c4baf5)" style="fill: #828282"/>
   </g>
   <g id="patch_122">
    <path d="M 125.254844 124.579063 
C 125.254844 124.579063 125.254844 124.579063 125.254844 124.579063 
C 125.254844 124.579063 125.254844 124.579063 125.254844 124.579063 
L 125.254844 124.579063 
C 125.254844 124.579063 125.254844 124.579063 125.254844 124.579063 
C 125.254844 124.579063 125.254844 124.579063 125.254844 124.579063 
z
" clip-path="url(#p9f02c4baf5)" style="fill: #828282"/>
   </g>
   <g id="patch_123">
    <path d="M 93.592654 127.697516 
C 93.490583 126.661165 93.439455 125.620428 93.439455 124.579062 
C 93.439455 123.537697 93.490583 122.49696 93.592654 121.460609 
L 93.592654 121.460609 
C 93.490583 122.49696 93.439455 123.537697 93.439455 124.579062 
C 93.439455 125.620428 93.490583 126.661165 93.592654 127.697516 
z
" clip-path="url(#p9f02c4baf5)" style="fill: #828282"/>
   </g>
   <g id="patch_124">
    <path d="M 112.654045 123.337992 
C 112.694667 122.925549 112.755514 122.515349 112.836367 122.108874 
C 112.91722 121.702399 113.017981 121.300138 113.138286 120.903545 
L 113.138286 120.903545 
C 113.017981 121.300138 112.91722 121.702399 112.836367 122.108874 
C 112.755514 122.515349 112.694667 122.925549 112.654045 123.337992 
z
" clip-path="url(#p9f02c4baf5)" style="fill: #828282"/>
   </g>
   <g id="patch_125">
    <path d="M 103.394941 117.947934 
C 103.611988 117.232426 103.864034 116.528007 104.150167 115.837219 
C 104.436301 115.146432 104.756178 114.470109 105.108642 113.810694 
L 105.108642 113.810694 
C 104.756178 114.470109 104.436301 115.146432 104.150167 115.837219 
C 103.864034 116.528007 103.611988 117.232426 103.394941 117.947934 
z
" clip-path="url(#p9f02c4baf5)" style="fill: #828282"/>
   </g>
   <g id="patch_126">
    <path d="M 106.04041 114.308734 
C 106.376573 113.679817 106.743412 113.067783 107.139601 112.474844 
C 107.53579 111.881905 107.960852 111.308776 108.413252 110.757525 
L 102.036266 105.524068 
C 101.412567 106.284047 100.826557 107.074189 100.280353 107.891641 
C 99.734149 108.709094 99.228409 109.552871 98.764959 110.419924 
z
" clip-path="url(#p9f02c4baf5)" style="fill: #828282"/>
   </g>
   <g id="patch_127">
    <path d="M 88.047521 94.043802 
C 89.046986 92.825951 90.105642 91.657905 91.219664 90.543883 
C 92.333686 89.42986 93.501732 88.371205 94.719583 87.37174 
L 88.017974 79.205806 
C 86.53284 80.424624 85.108441 81.715624 83.749923 83.074142 
C 82.391405 84.43266 81.100405 85.857059 79.881587 87.342193 
z
" clip-path="url(#p9f02c4baf5)" style="fill: #828282"/>
   </g>
   <g id="patch_128">
    <path d="M 86.291294 77.10184 
C 87.845295 75.826505 89.460974 74.628236 91.132496 73.51136 
C 92.804018 72.394485 94.529368 71.36035 96.302315 70.41269 
L 89.423043 57.542478 
C 87.228835 58.715307 85.093533 59.995158 83.024849 61.377408 
C 80.956164 62.759659 78.956591 64.242644 77.033352 65.821005 
z
" clip-path="url(#p9f02c4baf5)" style="fill: #828282"/>
   </g>
   <g id="patch_129">
    <path d="M 90.102054 58.812819 
C 92.254682 57.662216 94.462503 56.617994 96.717544 55.683926 
C 98.972584 54.749857 101.272126 53.927068 103.607863 53.21853 
L 102.492455 49.541522 
C 100.036364 50.286569 97.618333 51.151754 95.247097 52.133953 
C 92.87586 53.116151 90.554276 54.214179 88.29073 55.424069 
z
" clip-path="url(#p9f02c4baf5)" style="fill: #828282"/>
   </g>
   <g id="patch_130">
    <path d="M 113.896948 87.137097 
C 115.122479 86.765336 116.365524 86.453969 117.621593 86.204122 
C 118.877663 85.954274 120.145241 85.766246 121.419752 85.640718 
L 119.519951 66.351723 
C 117.614084 66.539435 115.718581 66.820606 113.840289 67.194221 
C 111.961998 67.567837 110.103182 68.033446 108.270555 68.589367 
z
" clip-path="url(#p9f02c4baf5)" style="fill: #828282"/>
   </g>
   <g id="patch_131">
    <path d="M 125.254844 124.579063 
C 125.254844 124.579063 125.254844 124.579063 125.254844 124.579063 
C 125.254844 124.579063 125.254844 124.579063 125.254844 124.579063 
L 136.064471 14.82708 
C 132.472124 14.473265 128.864572 14.296037 125.254844 14.296037 
C 121.645116 14.296037 118.037563 14.473265 114.445217 14.82708 
L 125.254844 124.579063 
z
" clip-path="url(#p9f02c4baf5)" style="fill: none; stroke: #292929; stroke-width: 0.5; stroke-linejoin: miter"/>
   </g>
   <g id="patch_132">
    <path d="M 125.254844 124.579063 
C 125.254844 124.579063 125.254844 124.579063 125.254844 124.579063 
C 125.254844 124.579063 125.254844 124.579063 125.254844 124.579063 
L 157.313793 18.894872 
C 153.854591 17.845534 150.345955 16.966667 146.800558 16.261443 
C 143.25516 15.55622 139.677275 15.025491 136.079826 14.671173 
L 125.254844 124.579063 
z
" clip-path="url(#p9f02c4baf5)" style="fill: none; stroke: #292929; stroke-width: 0.5; stroke-linejoin: miter"/>
   </g>
   <g id="patch_133">
    <path d="M 125.254844 124.579063 
C 125.254844 124.579063 125.254844 124.579063 125.254844 124.579063 
C 125.254844 124.579063 125.254844 124.579063 125.254844 124.579063 
L 177.523314 26.791632 
C 174.322586 25.080807 171.039789 23.52816 167.686783 22.139299 
C 164.333777 20.750439 160.914602 19.527038 157.441609 18.473518 
L 125.254844 124.579063 
z
" clip-path="url(#p9f02c4baf5)" style="fill: none; stroke: #292929; stroke-width: 0.5; stroke-linejoin: miter"/>
   </g>
   <g id="patch_134">
    <path d="M 125.254844 124.579063 
C 125.254844 124.579063 125.254844 124.579063 125.254844 124.579063 
C 125.254844 124.579063 125.254844 124.579063 125.254844 124.579063 
L 193.635595 41.256875 
C 190.908336 39.018671 188.07283 36.915717 185.139321 34.955609 
C 182.205812 32.9955 179.177834 31.180601 176.066326 29.517465 
L 125.254844 124.579063 
z
" clip-path="url(#p9f02c4baf5)" style="fill: none; stroke: #292929; stroke-width: 0.5; stroke-linejoin: miter"/>
   </g>
   <g id="patch_135">
    <path d="M 125.254844 124.579063 
C 125.254844 124.579063 125.254844 124.579063 125.254844 124.579063 
C 125.254844 124.579063 125.254844 124.579063 125.254844 124.579063 
L 197.881026 64.976295 
C 195.930139 62.599131 193.863715 60.319184 191.689219 58.144688 
C 189.514722 55.970191 187.234775 53.903767 184.857612 51.95288 
L 125.254844 124.579063 
z
" clip-path="url(#p9f02c4baf5)" style="fill: none; stroke: #292929; stroke-width: 0.5; stroke-linejoin: miter"/>
   </g>
   <g id="patch_136">
    <path d="M 125.254844 124.579063 
C 125.254844 124.579063 125.254844 124.579063 125.254844 124.579063 
C 125.254844 124.579063 125.254844 124.579063 125.254844 124.579063 
L 201.617901 83.762158 
C 200.281902 81.262681 198.823992 78.830305 197.249435 76.473814 
C 195.674879 74.117324 193.985574 71.83956 192.187623 69.64875 
L 125.254844 124.579063 
z
" clip-path="url(#p9f02c4baf5)" style="fill: none; stroke: #292929; stroke-width: 0.5; stroke-linejoin: miter"/>
   </g>
   <g id="patch_137">
    <path d="M 125.254844 124.579063 
C 125.254844 124.579063 125.254844 124.579063 125.254844 124.579063 
C 125.254844 124.579063 125.254844 124.579063 125.254844 124.579063 
L 183.413331 106.936878 
C 182.835876 105.033264 182.165306 103.159149 181.404045 101.321302 
C 180.642784 99.483455 179.791748 97.684091 178.854012 95.92971 
L 125.254844 124.579063 
z
" clip-path="url(#p9f02c4baf5)" style="fill: none; stroke: #292929; stroke-width: 0.5; stroke-linejoin: miter"/>
   </g>
   <g id="patch_138">
    <path d="M 125.254844 124.579063 
C 125.254844 124.579063 125.254844 124.579063 125.254844 124.579063 
C 125.254844 124.579063 125.254844 124.579063 125.254844 124.579063 
L 193.272618 117.879896 
C 193.053344 115.653573 192.724896 113.439357 192.288461 111.245247 
C 191.852025 109.051137 191.308127 106.879777 190.658733 104.73901 
L 125.254844 124.579063 
z
" clip-path="url(#p9f02c4baf5)" style="fill: none; stroke: #292929; stroke-width: 0.5; stroke-linejoin: miter"/>
   </g>
   <g id="patch_139">
    <path d="M 125.254844 124.579063 
C 125.254844 124.579063 125.254844 124.579063 125.254844 124.579063 
C 125.254844 124.579063 125.254844 124.579063 125.254844 124.579063 
L 214.163563 133.335807 
C 214.450184 130.425692 214.593754 127.503258 214.593754 124.579063 
C 214.593754 121.654867 214.450184 118.732433 214.163563 115.822318 
L 125.254844 124.579063 
z
" clip-path="url(#p9f02c4baf5)" style="fill: none; stroke: #292929; stroke-width: 0.5; stroke-linejoin: miter"/>
   </g>
   <g id="patch_140">
    <path d="M 125.254844 124.579063 
C 125.254844 124.579063 125.254844 124.579063 125.254844 124.579063 
C 125.254844 124.579063 125.254844 124.579063 125.254844 124.579063 
L 210.1386 150.328268 
C 210.98141 147.549896 211.687301 144.731819 212.253725 141.884216 
C 212.820148 139.036613 213.246421 136.162916 213.531003 133.273505 
L 125.254844 124.579063 
z
" clip-path="url(#p9f02c4baf5)" style="fill: none; stroke: #292929; stroke-width: 0.5; stroke-linejoin: miter"/>
   </g>
   <g id="patch_141">
    <path d="M 125.254844 124.579063 
C 125.254844 124.579063 125.254844 124.579063 125.254844 124.579063 
C 125.254844 124.579063 125.254844 124.579063 125.254844 124.579063 
L 200.423898 164.757759 
C 201.739007 162.297364 202.932525 159.773883 204.00014 157.196432 
C 205.067755 154.618981 206.008181 151.990666 206.818021 149.320982 
L 125.254844 124.579063 
z
" clip-path="url(#p9f02c4baf5)" style="fill: none; stroke: #292929; stroke-width: 0.5; stroke-linejoin: miter"/>
   </g>
   <g id="patch_142">
    <path d="M 125.254844 124.579063 
C 125.254844 124.579063 125.254844 124.579063 125.254844 124.579063 
C 125.254844 124.579063 125.254844 124.579063 125.254844 124.579063 
L 179.335131 168.961607 
C 180.787838 167.191478 182.152761 165.351093 183.424969 163.447098 
C 184.697178 161.543103 185.875139 159.577793 186.954598 157.558268 
L 125.254844 124.579063 
z
" clip-path="url(#p9f02c4baf5)" style="fill: none; stroke: #292929; stroke-width: 0.5; stroke-linejoin: miter"/>
   </g>
   <g id="patch_143">
    <path d="M 125.254844 124.579063 
C 125.254844 124.579063 125.254844 124.579063 125.254844 124.579063 
C 125.254844 124.579063 125.254844 124.579063 125.254844 124.579063 
L 155.435879 161.35476 
C 156.639602 160.36689 157.794099 159.320515 158.895198 158.219416 
C 159.996297 157.118317 161.042671 155.963821 162.030541 154.760098 
L 125.254844 124.579063 
z
" clip-path="url(#p9f02c4baf5)" style="fill: none; stroke: #292929; stroke-width: 0.5; stroke-linejoin: miter"/>
   </g>
   <g id="patch_144">
    <path d="M 125.254844 124.579063 
C 125.254844 124.579063 125.254844 124.579063 125.254844 124.579063 
C 125.254844 124.579063 125.254844 124.579063 125.254844 124.579063 
L 136.216094 145.08612 
C 136.887321 144.727342 137.540528 144.335825 138.173356 143.912983 
C 138.806184 143.49014 139.417871 143.036483 140.006206 142.553649 
L 125.254844 124.579063 
z
" clip-path="url(#p9f02c4baf5)" style="fill: none; stroke: #292929; stroke-width: 0.5; stroke-linejoin: miter"/>
   </g>
   <g id="patch_145">
    <path d="M 125.254844 124.579063 
C 125.254844 124.579063 125.254844 124.579063 125.254844 124.579063 
C 125.254844 124.579063 125.254844 124.579063 125.254844 124.579063 
L 134.169283 153.966031 
C 135.131163 153.674249 136.078137 153.335416 137.006785 152.950757 
C 137.935432 152.566099 138.844635 152.136078 139.731108 151.662248 
L 125.254844 124.579063 
z
" clip-path="url(#p9f02c4baf5)" style="fill: none; stroke: #292929; stroke-width: 0.5; stroke-linejoin: miter"/>
   </g>
   <g id="patch_146">
    <path d="M 125.254844 124.579063 
C 125.254844 124.579063 125.254844 124.579063 125.254844 124.579063 
C 125.254844 124.579063 125.254844 124.579063 125.254844 124.579063 
L 127.266546 145.004219 
C 127.935092 144.938373 128.600002 144.839743 129.258875 144.708685 
C 129.917747 144.577627 130.569788 144.4143 131.212642 144.219292 
L 125.254844 124.579063 
z
" clip-path="url(#p9f02c4baf5)" style="fill: none; stroke: #292929; stroke-width: 0.5; stroke-linejoin: miter"/>
   </g>
   <g id="patch_147">
    <path d="M 125.254844 124.579063 
C 125.254844 124.579063 125.254844 124.579063 125.254844 124.579063 
C 125.254844 124.579063 125.254844 124.579063 125.254844 124.579063 
L 123.739825 139.96131 
C 124.243309 140.010899 124.748924 140.035738 125.254844 140.035738 
C 125.760764 140.035738 126.266379 140.010899 126.769863 139.96131 
L 125.254844 124.579063 
z
" clip-path="url(#p9f02c4baf5)" style="fill: none; stroke: #292929; stroke-width: 0.5; stroke-linejoin: miter"/>
   </g>
   <g id="patch_148">
    <path d="M 125.254844 124.579063 
C 125.254844 124.579063 125.254844 124.579063 125.254844 124.579063 
C 125.254844 124.579063 125.254844 124.579063 125.254844 124.579063 
L 125.254844 124.579063 
C 125.254844 124.579063 125.254844 124.579063 125.254844 124.579063 
C 125.254844 124.579063 125.254844 124.579063 125.254844 124.579063 
L 125.254844 124.579063 
z
" clip-path="url(#p9f02c4baf5)" style="fill: none; stroke: #292929; stroke-width: 0.5; stroke-linejoin: miter"/>
   </g>
   <g id="patch_149">
    <path d="M 125.254844 124.579063 
C 125.254844 124.579063 125.254844 124.579063 125.254844 124.579063 
C 125.254844 124.579063 125.254844 124.579063 125.254844 124.579063 
L 125.254844 124.579063 
C 125.254844 124.579063 125.254844 124.579063 125.254844 124.579063 
C 125.254844 124.579063 125.254844 124.579063 125.254844 124.579063 
L 125.254844 124.579063 
z
" clip-path="url(#p9f02c4baf5)" style="fill: none; stroke: #292929; stroke-width: 0.5; stroke-linejoin: miter"/>
   </g>
   <g id="patch_150">
    <path d="M 125.254844 124.579063 
C 125.254844 124.579063 125.254844 124.579063 125.254844 124.579063 
C 125.254844 124.579063 125.254844 124.579063 125.254844 124.579063 
L 125.254844 124.579063 
C 125.254844 124.579063 125.254844 124.579063 125.254844 124.579063 
C 125.254844 124.579063 125.254844 124.579063 125.254844 124.579063 
L 125.254844 124.579063 
z
" clip-path="url(#p9f02c4baf5)" style="fill: none; stroke: #292929; stroke-width: 0.5; stroke-linejoin: miter"/>
   </g>
   <g id="patch_151">
    <path d="M 125.254844 124.579063 
C 125.254844 124.579063 125.254844 124.579063 125.254844 124.579063 
C 125.254844 124.579063 125.254844 124.579063 125.254844 124.579063 
L 125.254844 124.579063 
C 125.254844 124.579063 125.254844 124.579063 125.254844 124.579063 
C 125.254844 124.579063 125.254844 124.579063 125.254844 124.579063 
L 125.254844 124.579063 
z
" clip-path="url(#p9f02c4baf5)" style="fill: none; stroke: #292929; stroke-width: 0.5; stroke-linejoin: miter"/>
   </g>
   <g id="patch_152">
    <path d="M 125.254844 124.579063 
C 125.254844 124.579063 125.254844 124.579063 125.254844 124.579063 
C 125.254844 124.579063 125.254844 124.579063 125.254844 124.579063 
L 125.254844 124.579063 
C 125.254844 124.579063 125.254844 124.579063 125.254844 124.579063 
C 125.254844 124.579063 125.254844 124.579063 125.254844 124.579063 
L 125.254844 124.579063 
z
" clip-path="url(#p9f02c4baf5)" style="fill: none; stroke: #292929; stroke-width: 0.5; stroke-linejoin: miter"/>
   </g>
   <g id="patch_153">
    <path d="M 125.254844 124.579063 
C 125.254844 124.579063 125.254844 124.579063 125.254844 124.579063 
C 125.254844 124.579063 125.254844 124.579063 125.254844 124.579063 
L 125.254844 124.579063 
C 125.254844 124.579063 125.254844 124.579063 125.254844 124.579063 
C 125.254844 124.579063 125.254844 124.579063 125.254844 124.579063 
L 125.254844 124.579063 
z
" clip-path="url(#p9f02c4baf5)" style="fill: none; stroke: #292929; stroke-width: 0.5; stroke-linejoin: miter"/>
   </g>
   <g id="patch_154">
    <path d="M 125.254844 124.579063 
C 125.254844 124.579063 125.254844 124.579063 125.254844 124.579063 
C 125.254844 124.579063 125.254844 124.579063 125.254844 124.579063 
L 125.254844 124.579063 
C 125.254844 124.579063 125.254844 124.579063 125.254844 124.579063 
C 125.254844 124.579063 125.254844 124.579063 125.254844 124.579063 
L 125.254844 124.579063 
z
" clip-path="url(#p9f02c4baf5)" style="fill: none; stroke: #292929; stroke-width: 0.5; stroke-linejoin: miter"/>
   </g>
   <g id="patch_155">
    <path d="M 125.254844 124.579063 
C 125.254844 124.579063 125.254844 124.579063 125.254844 124.579063 
C 125.254844 124.579063 125.254844 124.579063 125.254844 124.579063 
L 93.592654 121.460609 
C 93.490583 122.49696 93.439455 123.537697 93.439455 124.579062 
C 93.439455 125.620428 93.490583 126.661165 93.592654 127.697516 
L 125.254844 124.579063 
z
" clip-path="url(#p9f02c4baf5)" style="fill: none; stroke: #292929; stroke-width: 0.5; stroke-linejoin: miter"/>
   </g>
   <g id="patch_156">
    <path d="M 125.254844 124.579063 
C 125.254844 124.579063 125.254844 124.579063 125.254844 124.579063 
C 125.254844 124.579063 125.254844 124.579063 125.254844 124.579063 
L 113.138286 120.903545 
C 113.017981 121.300138 112.91722 121.702399 112.836367 122.108874 
C 112.755514 122.515349 112.694667 122.925549 112.654045 123.337992 
L 125.254844 124.579063 
z
" clip-path="url(#p9f02c4baf5)" style="fill: none; stroke: #292929; stroke-width: 0.5; stroke-linejoin: miter"/>
   </g>
   <g id="patch_157">
    <path d="M 125.254844 124.579063 
C 125.254844 124.579063 125.254844 124.579063 125.254844 124.579063 
C 125.254844 124.579063 125.254844 124.579063 125.254844 124.579063 
L 105.108642 113.810694 
C 104.756178 114.470109 104.436301 115.146432 104.150167 115.837219 
C 103.864034 116.528007 103.611988 117.232426 103.394941 117.947934 
L 125.254844 124.579063 
z
" clip-path="url(#p9f02c4baf5)" style="fill: none; stroke: #292929; stroke-width: 0.5; stroke-linejoin: miter"/>
   </g>
   <g id="patch_158">
    <path d="M 125.254844 124.579063 
C 125.254844 124.579063 125.254844 124.579063 125.254844 124.579063 
C 125.254844 124.579063 125.254844 124.579063 125.254844 124.579063 
L 102.036266 105.524068 
C 101.412567 106.284047 100.826557 107.074189 100.280353 107.891641 
C 99.734149 108.709094 99.228409 109.552871 98.764959 110.419924 
L 125.254844 124.579063 
z
" clip-path="url(#p9f02c4baf5)" style="fill: none; stroke: #292929; stroke-width: 0.5; stroke-linejoin: miter"/>
   </g>
   <g id="patch_159">
    <path d="M 125.254844 124.579063 
C 125.254844 124.579063 125.254844 124.579063 125.254844 124.579063 
C 125.254844 124.579063 125.254844 124.579063 125.254844 124.579063 
L 88.017974 79.205806 
C 86.53284 80.424624 85.108441 81.715624 83.749923 83.074142 
C 82.391405 84.43266 81.100405 85.857059 79.881587 87.342193 
L 125.254844 124.579063 
z
" clip-path="url(#p9f02c4baf5)" style="fill: none; stroke: #292929; stroke-width: 0.5; stroke-linejoin: miter"/>
   </g>
   <g id="patch_160">
    <path d="M 125.254844 124.579063 
C 125.254844 124.579063 125.254844 124.579063 125.254844 124.579063 
C 125.254844 124.579063 125.254844 124.579063 125.254844 124.579063 
L 89.423043 57.542478 
C 87.228835 58.715307 85.093533 59.995158 83.024849 61.377408 
C 80.956164 62.759659 78.956591 64.242644 77.033352 65.821005 
L 125.254844 124.579063 
z
" clip-path="url(#p9f02c4baf5)" style="fill: none; stroke: #292929; stroke-width: 0.5; stroke-linejoin: miter"/>
   </g>
   <g id="patch_161">
    <path d="M 125.254844 124.579063 
C 125.254844 124.579063 125.254844 124.579063 125.254844 124.579063 
C 125.254844 124.579063 125.254844 124.579063 125.254844 124.579063 
L 102.492455 49.541522 
C 100.036364 50.286569 97.618333 51.151754 95.247097 52.133953 
C 92.87586 53.116151 90.554276 54.214179 88.29073 55.424069 
L 125.254844 124.579063 
z
" clip-path="url(#p9f02c4baf5)" style="fill: none; stroke: #292929; stroke-width: 0.5; stroke-linejoin: miter"/>
   </g>
   <g id="patch_162">
    <path d="M 125.254844 124.579063 
C 125.254844 124.579063 125.254844 124.579063 125.254844 124.579063 
C 125.254844 124.579063 125.254844 124.579063 125.254844 124.579063 
L 119.519951 66.351723 
C 117.614084 66.539435 115.718581 66.820606 113.840289 67.194221 
C 111.961998 67.567837 110.103182 68.033446 108.270555 68.589367 
L 125.254844 124.579063 
z
" clip-path="url(#p9f02c4baf5)" style="fill: none; stroke: #292929; stroke-width: 0.5; stroke-linejoin: miter"/>
   </g>
   <g id="PathCollection_1">
    <defs>
     <path id="m59e33402d5" d="M 0.193618 7.414054 
L 0.193618 7.414054 
C 0.054922 7.414054 -0.078235 7.358899 -0.176308 7.260826 
C -0.274381 7.162753 -0.329536 7.029596 -0.329536 6.890901 
L -0.329536 5.365008 
L -1.528416 6.56393 
L -1.528416 6.56393 
C -1.577018 6.612704 -1.634775 6.651408 -1.698366 6.677814 
C -1.761958 6.704221 -1.830141 6.717815 -1.898997 6.717815 
C -1.967853 6.717815 -2.036037 6.704221 -2.099628 6.677814 
C -2.163219 6.651408 -2.220976 6.612704 -2.269578 6.56393 
L -2.269578 6.56393 
C -2.318353 6.515327 -2.357056 6.457571 -2.383463 6.393979 
C -2.409869 6.330388 -2.423463 6.262205 -2.423463 6.193348 
C -2.423463 6.124492 -2.409869 6.056309 -2.383463 5.992718 
C -2.357056 5.929126 -2.318353 5.87137 -2.269578 5.822767 
L -0.329536 3.884106 
L -0.329536 0.820937 
L -2.98067 2.351538 
L -3.691824 5.001416 
L -3.691824 5.001416 
C -3.727584 5.135411 -3.815199 5.249836 -3.93523 5.319305 
C -4.055261 5.388775 -4.198123 5.407741 -4.332122 5.371997 
L -4.332122 5.371997 
C -4.466126 5.336237 -4.580558 5.248616 -4.650029 5.128576 
C -4.719499 5.008535 -4.73846 4.865662 -4.702703 4.731657 
L -4.262647 3.092721 
L -5.585535 3.855668 
L -5.585535 3.855668 
C -5.645013 3.890144 -5.710708 3.912561 -5.778854 3.921634 
C -5.847001 3.930706 -5.916272 3.926258 -5.982698 3.908543 
C -6.049125 3.890828 -6.111412 3.860192 -6.165991 3.818391 
C -6.220571 3.77659 -6.266379 3.724437 -6.300791 3.664922 
L -6.300791 3.664922 
C -6.335212 3.605364 -6.35755 3.539597 -6.366524 3.471396 
C -6.375498 3.403194 -6.370933 3.333888 -6.35309 3.267452 
C -6.335248 3.201017 -6.304476 3.138749 -6.26254 3.08422 
C -6.220605 3.029692 -6.168323 2.983966 -6.108695 2.949666 
L -4.785807 2.186762 
L -6.424743 1.746706 
L -6.424743 1.746706 
C -6.558747 1.710946 -6.673179 1.623325 -6.74265 1.503284 
C -6.81212 1.383244 -6.831081 1.240371 -6.795324 1.106366 
L -6.795324 1.106366 
C -6.777471 1.039969 -6.746703 0.977739 -6.704784 0.923241 
C -6.662864 0.868744 -6.61061 0.823041 -6.551015 0.788752 
C -6.491421 0.754464 -6.425647 0.732257 -6.357465 0.723406 
C -6.289282 0.714554 -6.220019 0.71923 -6.153645 0.737166 
L -3.505232 1.44698 
L -0.852424 -0.08496 
L -3.503767 -1.615666 
L -6.153645 -0.905851 
L -6.153645 -0.905851 
C -6.22011 -0.887939 -6.289462 -0.883321 -6.357716 -0.892262 
C -6.42597 -0.901202 -6.491793 -0.923527 -6.551403 -0.957953 
C -6.611013 -0.992379 -6.663247 -1.038234 -6.705103 -1.092883 
C -6.746958 -1.147533 -6.777619 -1.209911 -6.795324 -1.276432 
L -6.795324 -1.276432 
C -6.831068 -1.410431 -6.812101 -1.553293 -6.742632 -1.673324 
C -6.673162 -1.793355 -6.558738 -1.88097 -6.424743 -1.91673 
L -4.785807 -2.355447 
L -6.108695 -3.119732 
L -6.108695 -3.119732 
C -6.228699 -3.188976 -6.316415 -3.303132 -6.352417 -3.436921 
C -6.388419 -3.57071 -6.369839 -3.713469 -6.300791 -3.833586 
L -6.300791 -3.833586 
C -6.266491 -3.893214 -6.220765 -3.945496 -6.166237 -3.987431 
C -6.111708 -4.029367 -6.04944 -4.060139 -5.983005 -4.077981 
C -5.91657 -4.095823 -5.847263 -4.100389 -5.779062 -4.091415 
C -5.71086 -4.082441 -5.645094 -4.060102 -5.585535 -4.025682 
L -4.262647 -3.261396 
L -4.702703 -4.900332 
L -4.702703 -4.900332 
C -4.73846 -5.034337 -4.719499 -5.17721 -4.650029 -5.29725 
C -4.580558 -5.417291 -4.466126 -5.504912 -4.332122 -5.540672 
L -4.332122 -5.540672 
C -4.19831 -5.576464 -4.055613 -5.557686 -3.935617 -5.488496 
C -3.81562 -5.419305 -3.727882 -5.305212 -3.691824 -5.171472 
L -2.982009 -2.521594 
L -0.329411 -0.990302 
L -0.329411 -4.051588 
L -2.269453 -5.991589 
L -2.269453 -5.991589 
C -2.318227 -6.040191 -2.356931 -6.097947 -2.383337 -6.161539 
C -2.409744 -6.22513 -2.423338 -6.293314 -2.423338 -6.36217 
C -2.423338 -6.431026 -2.409744 -6.499209 -2.383337 -6.5628 
C -2.356931 -6.626392 -2.318227 -6.684149 -2.269453 -6.732751 
L -2.269453 -6.732751 
C -2.22085 -6.781526 -2.163094 -6.820229 -2.099502 -6.846635 
C -2.035911 -6.873042 -1.967728 -6.886636 -1.898871 -6.886636 
C -1.830015 -6.886636 -1.761832 -6.873042 -1.698241 -6.846635 
C -1.634649 -6.820229 -1.576893 -6.781526 -1.52829 -6.732751 
L -0.329411 -5.533829 
L -0.329411 -7.059722 
L -0.329411 -7.059722 
C -0.329411 -7.198418 -0.274255 -7.331575 -0.176182 -7.429647 
C -0.07811 -7.52772 0.055047 -7.582875 0.193743 -7.582875 
L 0.193743 -7.582875 
C 0.332439 -7.582875 0.465596 -7.52772 0.563669 -7.429647 
C 0.661741 -7.331575 0.716897 -7.198418 0.716897 -7.059722 
L 0.716897 -5.533829 
L 1.915777 -6.732751 
L 1.915777 -6.732751 
C 1.964379 -6.781526 2.022136 -6.820229 2.085727 -6.846635 
C 2.149318 -6.873042 2.217502 -6.886636 2.286358 -6.886636 
C 2.355214 -6.886636 2.423397 -6.873042 2.486989 -6.846635 
C 2.55058 -6.820229 2.608337 -6.781526 2.656939 -6.732751 
L 2.656939 -6.732751 
C 2.705714 -6.684149 2.744417 -6.626392 2.770823 -6.5628 
C 2.79723 -6.499209 2.810824 -6.431026 2.810824 -6.36217 
C 2.810824 -6.293314 2.79723 -6.22513 2.770823 -6.161539 
C 2.744417 -6.097947 2.705714 -6.040191 2.656939 -5.991589 
L 0.716897 -4.051588 
L 0.716897 -0.991139 
L 3.369495 -2.522954 
L 4.07931 -5.171367 
L 4.07931 -5.171367 
C 4.115368 -5.305107 4.203106 -5.4192 4.323103 -5.488391 
C 4.4431 -5.557582 4.585797 -5.576359 4.719608 -5.540567 
L 4.719608 -5.540567 
C 4.853612 -5.504807 4.968045 -5.417186 5.037515 -5.297146 
C 5.106986 -5.177105 5.125946 -5.034232 5.090189 -4.900227 
L 4.650133 -3.262673 
L 5.973022 -4.025577 
L 5.973022 -4.025577 
C 6.03258 -4.059998 6.098346 -4.082336 6.166548 -4.09131 
C 6.234749 -4.100284 6.304056 -4.095719 6.370491 -4.077876 
C 6.436926 -4.060034 6.499194 -4.029262 6.553723 -3.987327 
C 6.608252 -3.945391 6.653978 -3.893109 6.688277 -3.833481 
L 6.688277 -3.833481 
C 6.757325 -3.713365 6.775905 -3.570605 6.739903 -3.436816 
C 6.703901 -3.303027 6.616186 -3.188871 6.496181 -3.119628 
L 5.173293 -2.355342 
L 6.812229 -1.916625 
L 6.812229 -1.916625 
C 6.946224 -1.880865 7.060649 -1.79325 7.130118 -1.67322 
C 7.199588 -1.553189 7.218554 -1.410326 7.18281 -1.276327 
L 7.18281 -1.276327 
C 7.165106 -1.209806 7.134445 -1.147429 7.092589 -1.092779 
C 7.050733 -1.038129 6.998499 -0.992274 6.938889 -0.957848 
C 6.879279 -0.923422 6.813456 -0.901098 6.745202 -0.892157 
C 6.676949 -0.883217 6.607597 -0.887835 6.541131 -0.905746 
L 3.891253 -1.615561 
L 1.239492 -0.084604 
L 3.892718 1.447085 
L 6.541131 0.73727 
L 6.541131 0.73727 
C 6.674948 0.701466 6.817656 0.720237 6.937662 0.789429 
C 7.057669 0.858621 7.145413 0.972721 7.181471 1.10647 
L 7.181471 1.10647 
C 7.217274 1.240293 7.198497 1.383006 7.129297 1.503014 
C 7.060096 1.623021 6.945986 1.710762 6.812229 1.74681 
L 5.173293 2.186866 
L 6.496181 2.949771 
L 6.496181 2.949771 
C 6.555697 2.984183 6.607849 3.029991 6.649651 3.08457 
C 6.691452 3.13915 6.722088 3.201437 6.739803 3.267863 
C 6.757517 3.33429 6.761966 3.403561 6.752893 3.471707 
C 6.743821 3.539854 6.721404 3.605549 6.686927 3.665026 
L 6.686927 3.665026 
C 6.617458 3.784813 6.503196 3.87225 6.369416 3.907994 
C 6.235636 3.943739 6.092989 3.924946 5.973032 3.855772 
L 4.650144 3.091487 
L 5.08886 4.731783 
L 5.08886 4.731783 
C 5.124664 4.865606 5.105887 5.008319 5.036686 5.128326 
C 4.967486 5.248334 4.853376 5.336074 4.719619 5.372123 
L 4.719619 5.372123 
C 4.585619 5.407867 4.442757 5.3889 4.322726 5.319431 
C 4.202695 5.249961 4.115081 5.135537 4.07932 5.001542 
L 3.368166 2.351664 
L 0.717033 0.821063 
L 0.717033 3.884232 
L 2.657075 5.822893 
L 2.657075 5.822893 
C 2.70585 5.871495 2.744553 5.929252 2.770959 5.992843 
C 2.797366 6.056435 2.81096 6.124618 2.81096 6.193474 
C 2.81096 6.26233 2.797366 6.330514 2.770959 6.394105 
C 2.744553 6.457696 2.70585 6.515453 2.657075 6.564055 
L 2.657075 6.564055 
C 2.608473 6.61283 2.550716 6.651533 2.487125 6.67794 
C 2.423533 6.704346 2.35535 6.71794 2.286494 6.71794 
C 2.217638 6.71794 2.149454 6.704346 2.085863 6.67794 
C 2.022272 6.651533 1.964515 6.61283 1.915913 6.564055 
L 0.717033 5.365133 
L 0.717033 6.891026 
L 0.717033 6.891026 
C 0.717033 7.029722 0.661877 7.162879 0.563805 7.260952 
C 0.465732 7.359024 0.332575 7.41418 0.193879 7.41418 
L 0.193618 7.414054 
z
"/>
    </defs>
    <g clip-path="url(#p9f02c4baf5)">
     <use xlink:href="#m59e33402d5" x="170.645772" y="68.086105" style="fill: #9e2096; fill-opacity: 0.7"/>
    </g>
   </g>
   <g id="patch_163">
    <path d="M 125.254844 13.699063 
C 110.694216 13.699063 96.275171 16.567189 82.822905 22.1393 
C 69.370638 27.711411 57.146763 35.879144 46.850844 46.175063 
C 36.554925 56.470982 28.387192 68.694857 22.815081 82.147124 
C 17.24297 95.59939 14.374844 110.018434 14.374844 124.579063 
C 14.374844 139.139691 17.24297 153.558735 22.815081 167.011001 
C 28.387192 180.463268 36.554925 192.687143 46.850844 202.983062 
C 57.146763 213.278981 69.370638 221.446714 82.822905 227.018825 
C 96.275171 232.590936 110.694216 235.459063 125.254844 235.459063 
C 139.815472 235.459063 154.234516 232.590936 167.686783 227.018825 
C 181.139049 221.446714 193.362925 213.278981 203.658844 202.983062 
C 213.954763 192.687143 222.122495 180.463268 227.694606 167.011001 
C 233.266717 153.558735 236.134844 139.139691 236.134844 124.579063 
C 236.134844 110.018434 233.266717 95.59939 227.694606 82.147124 
C 222.122495 68.694857 213.954763 56.470982 203.658844 46.175063 
C 193.362925 35.879144 181.139049 27.711411 167.686783 22.1393 
C 154.234516 16.567189 139.815472 13.699063 125.254844 13.699063 
" style="fill: none; stroke: #000000; stroke-width: 0.8; stroke-linejoin: miter; stroke-linecap: square"/>
   </g>
  </g>
 </g>
 <defs>
  <clipPath id="p9f02c4baf5">
   <path d="M 236.134844 124.579063 
C 236.134844 110.018434 233.266717 95.59939 227.694606 82.147124 
C 222.122495 68.694857 213.954763 56.470982 203.658844 46.175063 
C 193.362925 35.879144 181.139049 27.711411 167.686783 22.1393 
C 154.234516 16.567189 139.815472 13.699063 125.254844 13.699063 
C 110.694216 13.699063 96.275171 16.567189 82.822905 22.1393 
C 69.370638 27.711411 57.146763 35.879144 46.850844 46.175063 
C 36.554925 56.470982 28.387192 68.694857 22.815081 82.147124 
C 17.24297 95.59939 14.374844 110.018434 14.374844 124.579062 
C 14.374844 139.139691 17.24297 153.558735 22.815081 167.011001 
C 28.387192 180.463268 36.554925 192.687143 46.850844 202.983062 
C 57.146763 213.278981 69.370638 221.446714 82.822905 227.018825 
C 96.275171 232.590936 110.694216 235.459063 125.254844 235.459063 
C 139.815472 235.459063 154.234516 232.590936 167.686783 227.018825 
C 181.139049 221.446714 193.362925 213.278981 203.658844 202.983062 
C 213.954763 192.687143 222.122495 180.463268 227.694606 167.011001 
C 233.266717 153.558735 236.134844 139.139691 236.134844 124.579063 
M 125.254844 124.579063 
C 125.254844 124.579063 125.254844 124.579063 125.254844 124.579063 
C 125.254844 124.579063 125.254844 124.579063 125.254844 124.579063 
C 125.254844 124.579063 125.254844 124.579063 125.254844 124.579063 
C 125.254844 124.579063 125.254844 124.579063 125.254844 124.579063 
C 125.254844 124.579063 125.254844 124.579063 125.254844 124.579063 
C 125.254844 124.579063 125.254844 124.579063 125.254844 124.579063 
C 125.254844 124.579063 125.254844 124.579063 125.254844 124.579063 
C 125.254844 124.579063 125.254844 124.579063 125.254844 124.579063 
C 125.254844 124.579063 125.254844 124.579063 125.254844 124.579063 
C 125.254844 124.579063 125.254844 124.579063 125.254844 124.579063 
C 125.254844 124.579063 125.254844 124.579063 125.254844 124.579063 
C 125.254844 124.579063 125.254844 124.579063 125.254844 124.579063 
C 125.254844 124.579063 125.254844 124.579063 125.254844 124.579063 
C 125.254844 124.579063 125.254844 124.579063 125.254844 124.579063 
C 125.254844 124.579063 125.254844 124.579063 125.254844 124.579063 
C 125.254844 124.579063 125.254844 124.579063 125.254844 124.579063 
z
"/>
  </clipPath>
 </defs>
</svg>
